<svg id="Layer_1" viewBox="0 0 24 24" xmlns="http://www.w3.org/2000/svg" data-name="Layer 1"><path d="m17.104 15.365-3.667-2.87c-.846-.662-2.028-.664-2.876 0l-3.667 2.869c-.568.446-.895 1.116-.895 1.837v6.797h12v-6.797c0-.722-.326-1.392-.896-1.837zm-.104 7.635h-10v-5.797c0-.413.187-.795.511-1.05l3.667-2.869c.484-.379 1.161-.378 1.644 0l3.667 2.869c.325.255.512.638.512 1.05v5.797zm-7-2h4v-4h-4zm1-3h2v2h-2zm4-15v-1.5c0-.827-.673-1.5-1.5-1.5h-3c-.827 0-1.5.673-1.5 1.5v1.5h-9v1h9v1.207l2.5 2.5v2.293h1v-2.293l2.5-2.5v-1.207h9v-1zm-1 1.793-2 2-2-2v-3.293c0-.276.225-.5.5-.5h3c.275 0 .5.224.5.5z"/></svg>