<svg id="Layer_1" viewBox="0 0 24 24" xmlns="http://www.w3.org/2000/svg" data-name="Layer 1"><path d="m21 18c-.647 0-1.243.21-1.733.56l-1.276-1.276c1.246-1.411 2.009-3.258 2.009-5.284s-.763-3.873-2.009-5.284l1.276-1.276c.49.349 1.086.56 1.733.56 1.654 0 3-1.346 3-3s-1.346-3-3-3-3 1.346-3 3c0 .647.21 1.243.56 1.733l-1.276 1.276c-1.411-1.246-3.258-2.009-5.284-2.009s-3.873.763-5.284 2.009l-1.276-1.276c.349-.49.56-1.086.56-1.733 0-1.654-1.346-3-3-3s-3 1.346-3 3 1.346 3 3 3c.647 0 1.243-.21 1.733-.56l1.276 1.276c-1.246 1.411-2.009 3.258-2.009 5.284s.763 3.873 2.009 5.284l-1.276 1.276c-.49-.349-1.086-.56-1.733-.56-1.654 0-3 1.346-3 3s1.346 3 3 3 3-1.346 3-3c0-.647-.21-1.243-.56-1.733l1.276-1.276c1.411 1.246 3.258 2.009 5.284 2.009s3.873-.763 5.284-2.009l1.276 1.276c-.349.49-.56 1.086-.56 1.733 0 1.654 1.346 3 3 3s3-1.346 3-3-1.346-3-3-3zm0-17c1.103 0 2 .897 2 2s-.897 2-2 2-2-.897-2-2 .897-2 2-2zm-20 2c0-1.103.897-2 2-2s2 .897 2 2-.897 2-2 2-2-.897-2-2zm2 20c-1.103 0-2-.897-2-2s.897-2 2-2 2 .897 2 2-.897 2-2 2zm2-11c0-3.859 3.14-7 7-7s7 3.141 7 7-3.14 7-7 7-7-3.141-7-7zm16 11c-1.103 0-2-.897-2-2s.897-2 2-2 2 .897 2 2-.897 2-2 2zm-5.5-12.908v-3.092h-1c0 1.927-1.797 1.998-2 2h-2.5c-1.378 0-2.5 1.121-2.5 2.5 0 .445.096.811.253 1.257l1.925 4.224h.328c.65 0 1.249-.325 1.603-.87s.407-1.225.15-1.8l-.125-.311h.867c.082 0 2 .022 2 2h1v-3.092c.581-.207 1-.757 1-1.408s-.419-1.201-1-1.408zm-4.731 5.474c-.121.186-.301.317-.541.378l-.846-1.944h1.172l.283.7c.125.282.1.606-.069.866zm3.731-1.871c-.64-.52-1.45-.695-2-.695h-3.552l-.264-.607c-.116-.333-.184-.586-.184-.893 0-.827.673-1.5 1.5-1.5h2.5c.55 0 1.36-.176 2-.695v4.391z"/></svg>