<svg id="Layer_1" viewBox="0 0 24 24" xmlns="http://www.w3.org/2000/svg" data-name="Layer 1"><path d="m17.5 15h1v4h-1zm.5-7c-1.103 0-2-.897-2-2s.897-2 2-2 2 .897 2 2-.897 2-2 2zm1-2c0-.551-.449-1-1-1s-1 .449-1 1 .449 1 1 1 1-.449 1-1zm-.5 3h-1v4h1zm-3 2.447v-1.143c-1.487-.867-2.5-2.462-2.5-4.304 0-2.757 2.243-5 5-5s5 2.243 5 5c0 1.842-1.013 3.437-2.5 4.304v1.143c2.062-.95 3.5-3.032 3.5-5.447 0-3.309-2.691-6-6-6s-6 2.691-6 6c0 2.416 1.438 4.497 3.5 5.447zm7.5 11.553h-22v-20.5c0-.827.673-1.5 1.5-1.5h9.278c.286-.359.598-.696.943-1h-10.221c-1.378 0-2.5 1.122-2.5 2.5v21.5h24v-12.721c-.304.345-.641.657-1 .943zm-12.791-16.649 3.511 12.649h-1.014l-1.117-4h-5.958l-1.117 4h-1.014l3.537-12.75c.107-.464.413-.854.839-1.073.434-.223.937-.236 1.417-.034.439.184.779.627.915 1.208zm1.101 7.649-2.105-7.537c-.069-.273-.313-.463-.595-.463s-.526.19-.591.45l-2.109 7.55z"/></svg>