<svg id="Layer_1" viewBox="0 0 24 24" xmlns="http://www.w3.org/2000/svg" data-name="Layer 1"><path d="m24 8v-.5c-.225-6.53-6.202-7.425-6.656-7.5-1.572 1.428-3.439 2.958-5.344 3.483-1.897-.522-3.758-2.06-5.326-3.483-.425.037-6.469.465-6.674 7.5v.5h4.024l.466 9.315c-.571.642-2.49 3.067-2.49 6.685h1c0-2.889 1.387-4.959 2.029-5.765 2.135 2.127 4.707 3.737 6.971 4.281 2.264-.544 4.837-2.154 6.971-4.281.642.806 2.029 2.876 2.029 5.765h1c0-3.618-1.919-6.043-2.49-6.685l.465-9.315zm-5.273 4.946c-2.939-.421-4.99-2.318-6.227-3.929v-1.643c1.696-.499 3.48-1.512 5.545-3.147l.952 3.331zm-13.723-5.389.951-3.329c2.065 1.635 3.849 2.648 5.545 3.146v1.643c-1.237 1.611-3.289 3.507-6.227 3.929l-.269-5.39zm17.98-.557h-3.107l-1.658-5.804c1.487.469 4.526 1.9 4.766 5.804zm-16.221-5.599c1.56 1.356 3.337 2.669 5.237 3.115 1.9-.445 3.677-1.759 5.237-3.115l.511 1.787c-2.195 1.783-4.029 2.837-5.748 3.295-1.719-.459-3.553-1.512-5.748-3.295zm-.963-.272-1.677 5.871h-3.11c.225-4.272 3.327-5.519 4.787-5.871zm-.477 12.824c2.301-.305 4.41-1.462 6.177-3.386v10.755c-1.966-.661-4.2-2.148-6.01-4.032zm7.177 7.369v-10.755c1.767 1.924 3.876 3.081 6.177 3.386l-.167 3.337c-1.809 1.883-4.043 3.37-6.01 4.032z"/></svg>