<svg id="Layer_1" viewBox="0 0 24 24" xmlns="http://www.w3.org/2000/svg" data-name="Layer 1"><path d="m23 0v2h-22v-2h-1v20h1v-8h12.285l.368-1h-1.945l7.999-8h3.293v1.293l-3.743 3.743.38 1.034 3.363-3.363v5.293h-2.653l.368 1h2.285v8h1v-20zm-16.707 3-5.293 5.293v-5.293zm-5.293 6.707 6.707-6.707h4.586l-8 8h-3.293zm9.293 1.293h-4.586l8-8h4.586zm7.556-1h-1.697l-4.783 13h-1.368v1h14v-1h-1.368l-4.783-13zm2.246 9h-6.189l1.104-3h3.982l1.104 3zm-3.246-8h.303l1.471 4h-3.246l1.471-4zm-3.311 9h6.925l1.104 3h-9.133z"/></svg>