<svg id="Layer_1" viewBox="0 0 24 24" xmlns="http://www.w3.org/2000/svg" data-name="Layer 1"><path d="m23.974 12h.026v8h-2v1.5c0 1.378-1.122 2.5-2.5 2.5h-19.5v-16h9.14c.061.34.135.675.235 1h-8.375v14h18.5c.827 0 1.5-.673 1.5-1.5v-2.5h2v-6h-.028c.362-.305.696-.64 1.003-1zm-12.974-5.5c0-3.584 2.916-6.5 6.5-6.5s6.5 2.916 6.5 6.5-2.916 6.5-6.5 6.5-6.5-2.916-6.5-6.5zm1 0c0 3.033 2.467 5.5 5.5 5.5s5.5-2.467 5.5-5.5-2.467-5.5-5.5-5.5-5.5 2.467-5.5 5.5zm6-4.5h-1v6h1zm-.5 9c.552 0 1-.448 1-1s-.448-1-1-1-1 .448-1 1 .448 1 1 1zm-14.5 0v10h16v-6.14c-.327.058-.661.095-1 .115v5.025h-14v-8h7.026c-.267-.314-.508-.649-.727-1z"/></svg>