<svg id="Layer_1" viewBox="0 0 24 24" xmlns="http://www.w3.org/2000/svg" data-name="Layer 1"><path d="m11 10.142c-1.72.447-3 2-3 3.858 0 2.206 1.794 4 4 4s4-1.794 4-4c0-1.858-1.28-3.411-3-3.858v-1.142h-2zm4 3.858c0 1.654-1.346 3-3 3s-3-1.346-3-3 1.346-3 3-3 3 1.346 3 3zm-2.5-6h-1c0-1.378 1.122-2.5 2.5-2.5v1c-.827 0-1.5.673-1.5 1.5zm2.5-2 1.333-.667.667-1.333.667 1.333 1.333.667-1.333.667-.667 1.333-.667-1.333zm9 6c0 .723-.28 1.4-.788 1.907l-9.308 9.324c-.488.489-1.183.77-1.905.77s-1.417-.28-1.905-.769l-9.307-9.326c-.507-.508-.787-1.185-.787-1.906s.279-1.398.787-1.906l9.307-9.325c.488-.489 1.182-.769 1.904-.769.721 0 1.414.28 1.902.768 0 0 1.941 1.944 1.941 1.944-.335.118-.645.281-.925.49l-1.722-1.724c-.302-.303-.738-.477-1.197-.477-.459 0-.895.173-1.196.475l-9.306 9.324c-.319.32-.495.746-.495 1.2s.176.88.495 1.199l9.308 9.325c.603.605 1.791.604 2.394 0l9.309-9.324c.319-.319.495-.745.495-1.2 0-.454-.176-.88-.495-1.199l-2.71-2.714c.209-.279.373-.589.492-.923l2.926 2.93c.507.508.787 1.185.787 1.906z"/></svg>