<svg id="Layer_1" viewBox="0 0 24 24" xmlns="http://www.w3.org/2000/svg" data-name="Layer 1"><path d="m9.999 13.492v-2.53s8.001-4.569 8.001-4.569v2.632c.339.02.673.057 1 .115v-3.756l-9.507-5.372-9.487 5.372v10.956l9.494 5.427.497-.276c-.138-.259-.258-.529-.369-.804l-8.628-4.927v-9.37l8.006 4.572-.003 6.474c.011-1.425.365-2.767.996-3.944zm-.505-12.332 7.868 4.446-7.856 4.49-7.86-4.491 7.848-4.444zm8.006 9.839c-3.584 0-6.5 2.916-6.5 6.5s2.916 6.5 6.5 6.5 6.5-2.916 6.5-6.5-2.916-6.5-6.5-6.5zm0 12c-3.032 0-5.5-2.468-5.5-5.5s2.468-5.5 5.5-5.5 5.5 2.468 5.5 5.5-2.468 5.5-5.5 5.5zm3.5-5c0 1.379-1.121 2.5-2.5 2.5h-1.5v-1h1.5c.827 0 1.5-.673 1.5-1.5s-.673-1.5-1.5-1.5h-3.174l1.527 1.527-.707.707-1.775-1.775c-.494-.494-.494-1.297 0-1.791l1.775-1.775.707.707-1.4 1.4h3.047c1.379 0 2.5 1.121 2.5 2.5z"/></svg>