<svg id="Layer_1" viewBox="0 0 24 24" xmlns="http://www.w3.org/2000/svg" data-name="Layer 1"><path d="m6 3.5h3v2.249l1-.566v-2.683h-4v-2.5h-6v6h6zm-1 1.5h-4v-4h4zm12 4.178-5.005-2.828-4.995 2.828v5.813l4.997 2.856 5.003-2.777v-5.893zm-5.004-1.679 3.429 1.938-3.424 1.957-3.426-1.958 3.42-1.937zm-3.996 2.76 3.5 2v4.154l-3.5-2.001v-4.154zm4.5 6.167v-4.165l3.5-2.001v4.222zm5.5-16.426v2.5h-4v2.682l1 .566v-2.248h3v2.5h6v-6zm5 5h-4v-4h4zm-5 15.5h-3v-2.034l-1 .555v2.479h4v2.5h6v-6h-6zm1-1.5h4v4h-4zm-10 1.5h-3v-2.5h-6v6h6v-2.5h4v-2.488l-1-.572zm-4 2.5h-4v-4h4z"/></svg>