<svg id="Layer_1" viewBox="0 0 24 24" xmlns="http://www.w3.org/2000/svg" data-name="Layer 1"><path d="m23 5.5v2.698l-8 8.5v7.276l-6-3.174v-4.103l-8-8.499v-2.698c0-1.378 1.121-2.5 2.5-2.5h1.5v1h-1.5c-.827 0-1.5.673-1.5 1.5v2.302l8 8.5v3.897l4 2.115v-6.013l8-8.499v-2.302c0-.827-.673-1.5-1.5-1.5h-1.5v-1h1.5c1.379 0 2.5 1.122 2.5 2.5zm-10.998 6-4.997-2.856v-5.813l4.996-2.828 4.999 2.828v5.892zm4.003-3.366v-4.221l-3.505 2v4.165zm-4.004-6.983-3.42 1.936 3.426 1.958 3.423-1.956zm-4.001 6.913 3.5 2v-4.154l-3.5-2z"/></svg>