<svg id="Layer_1" viewBox="0 0 24 24" xmlns="http://www.w3.org/2000/svg" data-name="Layer 1"><path d="m24 0v12c0 6.617-5.383 12-12 12s-12-5.383-12-12v-12h7.94l-1.769 1h-5.171v4h4v1h-4v6c0 6.065 4.935 11 11 11s11-4.935 11-11v-6h-4v-1h4v-4h-5.171l-1.769-1zm-12.001.033 5.001 2.828v5.892l-4.999 2.778-4.997-2.856v-5.813zm-3.999 8.062 3.5 2v-4.154l-3.5-2.001v4.154zm8.004.07v-4.223l-3.504 2.002v4.164zm-4.004-6.983-3.42 1.937 3.426 1.958 3.423-1.956-3.429-1.938zm6 9.273-1 .556v.989c0 2.757-2.243 5-5 5s-5-2.243-5-5v-1.055l-1-.572v1.626s0 0 0 .001c0 3.309 2.691 6 6 6s6-2.691 6-6h-.012z"/></svg>