<svg id="Layer_1" viewBox="0 0 24 24" xmlns="http://www.w3.org/2000/svg" data-name="Layer 1"><path d="m3 0c-1.654 0-3 1.346-3 3s1.346 3 3 3 3-1.346 3-3-1.346-3-3-3zm0 5c-1.103 0-2-.897-2-2s.897-2 2-2 2 .897 2 2-.897 2-2 2zm0 3c-1.654 0-3 1.346-3 3s1.346 3 3 3 3-1.346 3-3-1.346-3-3-3zm0 5c-1.103 0-2-.897-2-2s.897-2 2-2 2 .897 2 2-.897 2-2 2zm8-7c1.654 0 3-1.346 3-3s-1.346-3-3-3-3 1.346-3 3 1.346 3 3 3zm0-5c1.103 0 2 .897 2 2s-.897 2-2 2-2-.897-2-2 .897-2 2-2zm-8 15c-1.654 0-3 1.346-3 3s1.346 3 3 3 3-1.346 3-3-1.346-3-3-3zm0 5c-1.103 0-2-.897-2-2s.897-2 2-2 2 .897 2 2-.897 2-2 2zm21-1.354v4.354h-1v-3.646l-7-2.462v-6.286c0-.789-.535-1.471-1.244-1.586-.452-.073-.886.046-1.228.336-.336.286-.528.703-.528 1.143v9.843s-2.426-1.853-2.479-1.903c-.606-.562-1.554-.53-2.115.072-.565.604-.534 1.557.064 2.118l2.535 2.37h-1.44l-1.783-1.646c-1-.937-1.048-2.518-.106-3.524.924-.99 2.468-1.052 3.476-.16l.85.622v-7.792c0-.734.321-1.429.881-1.905.561-.477 1.307-.677 2.035-.562 1.188.194 2.084 1.3 2.084 2.573v5.577l7 2.462zm-16-8.646c0-1.654 1.346-3 3-3 .206 0 .407.021.601.061-.005.004-.011.007-.016.011-.325.276-.586.604-.817.952-.992.117-1.768.953-1.768 1.977 0 .737.405 1.375 1 1.722v1.094c-1.161-.414-2-1.514-2-2.816z"/></svg>