<svg id="Layer_1" viewBox="0 0 24 24" xmlns="http://www.w3.org/2000/svg" data-name="Layer 1"><path d="m14 17c0 .552-.448 1-1 1s-1-.448-1-1 .448-1 1-1 1 .448 1 1zm7-9v1h-1v.034s-1.033 14.966-1.033 14.966h-13.934l-1.032-14.966c0-.011 0-.023 0-.034h-1.001v-1h1.066c.484-3.791 3.597-6.746 7.434-6.984v-1.016h1v1.016c3.846.238 6.964 3.206 7.438 6.984zm-8.5 0h6.428c-.463-3.226-3.134-5.748-6.428-5.982zm-7.428 0h6.428v-5.982c-3.293.234-5.965 2.756-6.428 5.982zm.274 6.003c.788-.387 2.331-1.003 4.171-1.003.794 0 1.425.095 1.983.226v-4.226h-6.5l.345 5.003zm13.282.381c-.794.26-2.103.616-3.317.616-1.33 0-2.201-.266-3.043-.521-.807-.246-1.569-.479-2.751-.479-2.016 0-3.675.856-4.096 1.094l.546 7.906h12.066l.594-8.616zm.371-5.384h-6.499v4.504c.777.236 1.697.496 2.811.496 1.307 0 2.772-.474 3.392-.698l.297-4.302zm-8.999 10c-.552 0-1 .448-1 1s.448 1 1 1 1-.448 1-1-.448-1-1-1zm4 2c0 .552.448 1 1 1s1-.448 1-1-.448-1-1-1-1 .448-1 1z"/></svg>