<svg id="Layer_1" viewBox="0 0 24 24" xmlns="http://www.w3.org/2000/svg" data-name="Layer 1"><path d="m11.959 14.527c.051-.286-.374-.466-.506-.515-.623-.23-1.185-.481-1.185-.481-.497-.316-.716-.803-.644-1.309.078-.538.471-.976 1.027-1.144 1.092-.329 1.948.481 1.986.512l-.618.728c-.021-.017-.524-.41-1.069-.248-.243.073-.291.234-.3.299-.006.049-.01.17.108.25.013 0 .509.218 1.055.42 1.013.374 1.267 1.107 1.167 1.669-.133.746-.844 1.287-1.691 1.287-.685 0-1.328-.276-1.765-.758l.767-.696c.237.261.61.418.998.418.371 0 .633-.22.671-.432zm4.541 3.473h1.723l-1.723 3.247v.753h3v-1h-1.737l1.737-3.273v-.727h-3zm3.75 4h2v-1h-1v-1h1v-1h-1v-1h1v-1h-2zm-5.5 0h1v-5h-1zm-13-4h1v4h1v-4h1v-1h-3zm22.25-6.5v12.5h-24v-12.5c0-1.378 1.122-2.5 2.5-2.5h9.002c-.322-.77-.502-1.614-.502-2.5 0-3.584 2.916-6.5 6.5-6.5s6.5 2.916 6.5 6.5c0 1.148-.302 2.225-.826 3.162.517.469.826 1.121.826 1.838zm-12-5c0 3.033 2.467 5.5 5.5 5.5s5.5-2.467 5.5-5.5-2.467-5.5-5.5-5.5-5.5 2.467-5.5 5.5zm11 5c0-.378-.143-.728-.388-.999-1.191 1.518-3.037 2.499-5.112 2.499-2.295 0-4.312-1.199-5.468-3h-9.532c-.827 0-1.5.673-1.5 1.5v11.5h22zm-15.25 3c0 .276-.224.5-.5.5s-.5-.224-.5-.5v-3.5h-1v3.5c0 .827.673 1.5 1.5 1.5s1.5-.673 1.5-1.5v-3.5h-1zm.5 4v2c0 .827-.673 1.5-1.5 1.5s-1.5-.673-1.5-1.5v-2c0-.827.673-1.5 1.5-1.5s1.5.673 1.5 1.5zm-1 0c0-.276-.224-.5-.5-.5s-.5.224-.5.5v2c0 .276.224.5.5.5s.5-.224.5-.5zm5.25-1.5c-.386 0-.734.15-1 .39-.266-.24-.614-.39-1-.39-.176 0-.343.036-.5.092v-.092h-1v5h1v-3.5c0-.276.224-.5.5-.5s.5.224.5.5v3.5h1v-3.5c0-.276.224-.5.5-.5s.5.224.5.5v3.5h1v-3.5c0-.827-.673-1.5-1.5-1.5zm-9-5c.276 0 .5.224.5.5h1c0-.827-.673-1.5-1.5-1.5s-1.5.673-1.5 1.5v2c0 .827.673 1.5 1.5 1.5s1.5-.673 1.5-1.5h-1c0 .276-.224.5-.5.5s-.5-.224-.5-.5v-2c0-.276.224-.5.5-.5zm13.67-2.5h-2.67v-2.67l3.276-3.276c.713-.714 1.958-.713 2.67 0 .357.356.553.831.553 1.335s-.196.979-.553 1.335zm-.414-1 2.983-2.983c.168-.168.26-.391.26-.628s-.092-.46-.26-.628c-.335-.335-.92-.336-1.256 0l-2.983 2.983v1.256z"/></svg>