<svg id="Layer_1" viewBox="0 0 24 24" xmlns="http://www.w3.org/2000/svg" data-name="Layer 1"><path d="m15.626 7.481 1.912 1.195c-.023.105-.038.213-.038.325 0 .827.673 1.5 1.5 1.5s1.5-.673 1.5-1.5-.673-1.5-1.5-1.5c-.352 0-.672.127-.928.331l-2.076-1.297c0-.011.003-.022.003-.033s-.003-.022-.003-.034l2.076-1.297c.256.204.576.331.928.331.827 0 1.5-.673 1.5-1.5s-.673-1.5-1.5-1.5-1.5.673-1.5 1.5c0 .112.014.22.038.324l-1.912 1.195c-.275-.315-.675-.519-1.126-.519-.827 0-1.5.673-1.5 1.5s.673 1.5 1.5 1.5c.451 0 .851-.204 1.126-.519zm3.374 1.019c.276 0 .5.224.5.5s-.224.5-.5.5-.5-.224-.5-.5.224-.5.5-.5zm0-5c.276 0 .5.224.5.5s-.224.5-.5.5-.5-.224-.5-.5.224-.5.5-.5zm-5 3c0-.276.224-.5.5-.5s.5.224.5.5-.224.5-.5.5-.5-.224-.5-.5zm8.104 4.582c1.171-1.176 1.896-2.796 1.896-4.582 0-3.584-2.916-6.5-6.5-6.5s-6.5 2.916-6.5 6.5c0 1.746.696 3.331 1.821 4.5h-10.321c-1.378 0-2.5 1.122-2.5 2.5v10.5h24v-10.5c0-1.169-.81-2.145-1.896-2.418zm-4.604-10.082c3.033 0 5.5 2.467 5.5 5.5s-2.467 5.5-5.5 5.5-5.5-2.467-5.5-5.5 2.467-5.5 5.5-5.5zm5.5 22h-22v-9.5c0-.827.673-1.5 1.5-1.5h11.552c1.001.63 2.181 1 3.448 1s2.447-.37 3.448-1h.552c.827 0 1.5.673 1.5 1.5zm-4-8h2v1h-1v1h1v1h-1v1h1v1h-2zm-1 1.5c0-.827-.673-1.5-1.5-1.5h-1.5v5h1v-2h.383l.617 2h1.06l-.709-2.267c.391-.271.649-.722.649-1.233zm-2-.5h.5c.276 0 .5.224.5.5s-.224.5-.5.5h-.5zm-7-1h1v5h-1v-2h-1v2h-1v-5h1v2h1zm3.5 0c-.827 0-1.5.673-1.5 1.5v3.5h1v-1.5h1v1.5h1v-3.5c0-.827-.673-1.5-1.5-1.5zm-.5 2.5v-1c0-.276.224-.5.5-.5s.5.224.5.5v1zm-6.043 1.213c-.133.746-.844 1.287-1.691 1.287-.685 0-1.328-.276-1.765-.758l.767-.696c.237.261.61.418.998.418.371 0 .633-.22.671-.432.051-.286-.374-.466-.506-.515-.623-.23-1.185-.481-1.185-.481-.497-.316-.716-.803-.644-1.309.078-.538.471-.976 1.027-1.144 1.092-.329 1.948.481 1.986.512l-.618.728c-.021-.017-.524-.41-1.069-.248-.243.073-.291.234-.3.299-.006.049-.01.17.108.25.013 0 .509.218 1.055.42 1.013.374 1.267 1.107 1.167 1.669z"/></svg>