<svg id="Layer_1" viewBox="0 0 24 24" xmlns="http://www.w3.org/2000/svg" data-name="Layer 1"><path d="m7 15c-.827 0-1.5.673-1.5 1.5v2c0 .827.673 1.5 1.5 1.5s1.5-.673 1.5-1.5v-2c0-.827-.673-1.5-1.5-1.5zm.5 3.5c0 .275-.225.5-.5.5s-.5-.225-.5-.5v-2c0-.275.225-.5.5-.5s.5.225.5.5zm7-3.5c-.827 0-1.5.673-1.5 1.5v3.5h1v-1.5h1v1.5h1v-3.5c0-.827-.673-1.5-1.5-1.5zm-.5 2.5v-1c0-.275.225-.5.5-.5s.5.225.5.5v1zm8.105-6.418c1.171-1.176 1.895-2.796 1.895-4.582 0-3.584-2.916-6.5-6.5-6.5s-6.5 2.916-6.5 6.5c0 1.746.696 3.331 1.821 4.5h-10.321c-1.379 0-2.5 1.122-2.5 2.5v10.5h24v-10.5c0-1.169-.81-2.145-1.895-2.418zm-4.605-10.082c3.032 0 5.5 2.467 5.5 5.5s-2.468 5.5-5.5 5.5-5.5-2.467-5.5-5.5 2.468-5.5 5.5-5.5zm5.5 22h-22v-9.5c0-.827.673-1.5 1.5-1.5h11.552c1.001.63 2.181 1 3.448 1s2.447-.37 3.448-1h.552c.827 0 1.5.673 1.5 1.5zm-4.5-17.5c0-.552.448-1 1-1s1 .448 1 1-.448 1-1 1-1-.448-1-1zm-4 0c0-.552.448-1 1-1s1 .448 1 1-.448 1-1 1-1-.448-1-1zm.939 2.146c1.102 1.101 3.02 1.101 4.121 0l.707.707c-.739.739-1.722 1.146-2.768 1.146s-2.028-.407-2.768-1.146l.707-.707zm-12.189 7.354h-1.5v5h1.5c.827 0 1.5-.673 1.5-1.5v-2c0-.827-.673-1.5-1.5-1.5zm.5 3.5c0 .275-.225.5-.5.5h-.5v-3h.5c.275 0 .5.225.5.5zm8.5-2v3.5h-1v-3.5c0-.275-.225-.5-.5-.5s-.5.225-.5.5v3.5h-1v-5h1v.092c.157-.056.324-.092.5-.092.827 0 1.5.673 1.5 1.5zm4.25-1.5h3v1h-1v4h-1v-4h-1zm3.75 0h2v1h-1v1h1v1h-1v1h1v1h-2z"/></svg>