<svg id="Layer_1" viewBox="0 0 24 24" xmlns="http://www.w3.org/2000/svg" data-name="Layer 1"><path d="m8 15h-1.5v5h1.5c.827 0 1.5-.673 1.5-1.5 0-.384-.145-.734-.383-1 .238-.266.383-.616.383-1 0-.827-.673-1.5-1.5-1.5zm0 4h-.5v-1h.5c.276 0 .5.225.5.5s-.224.5-.5.5zm0-2h-.5v-1h.5c.276 0 .5.225.5.5s-.224.5-.5.5zm8.557-2h1.039l-1.096 3.887v1.113h-1v-1.113l-1.096-3.887h1.039l.557 1.979zm-4.057 0h1v3.5c0 .827-.673 1.5-1.5 1.5s-1.5-.673-1.5-1.5v-3.5h1v3.5c0 .275.224.5.5.5s.5-.225.5-.5zm9.605-3.918c1.171-1.176 1.895-2.796 1.895-4.582 0-3.584-2.916-6.5-6.5-6.5s-6.5 2.916-6.5 6.5c0 1.746.696 3.331 1.821 4.5h-10.321c-1.378 0-2.5 1.122-2.5 2.5v10.5h24v-10.5c0-1.169-.81-2.145-1.895-2.418zm-4.605-10.082c3.032 0 5.5 2.467 5.5 5.5s-2.468 5.5-5.5 5.5-5.5-2.467-5.5-5.5 2.468-5.5 5.5-5.5zm5.5 22h-22v-9.5c0-.827.673-1.5 1.5-1.5h11.552c1.001.63 2.181 1 3.448 1s2.447-.37 3.448-1h.552c.827 0 1.5.673 1.5 1.5zm-7.188-13h3.188c.981 0 1.832-.732 1.978-1.702l.497-3.298h-1.475v-.5c0-1.378-1.121-2.5-2.5-2.5s-2.5 1.122-2.5 2.5v.5h-1.534l.357 3.221c.112 1.014.967 1.779 1.988 1.779zm.188-5.5c0-.827.673-1.5 1.5-1.5s1.5.673 1.5 1.5v.5h-3zm4.312 1.5-.323 2.149c-.073.485-.498.851-.989.851h-3.188c-.511 0-.938-.382-.994-.89l-.234-2.11h5.729z"/></svg>