<svg id="Layer_1" viewBox="0 0 24 24" xmlns="http://www.w3.org/2000/svg" data-name="Layer 1"><path d="m23 15.724c.353-.126.693-.28 1-.485v8.762h-24v-15.5c0-1.379 1.122-2.5 2.5-2.5h8.5v1h-8.5c-.827 0-1.5.673-1.5 1.5v1.5h10v1h-10v2h10.276c.126.353.28.693.485 1h-10.761v9h22v-7.276zm1-10.724v6.5c0 1.379-1.122 2.5-2.5 2.5h-6c-1.378 0-2.5-1.121-2.5-2.5v-6.5h2v-1.5c0-1.93 1.57-3.5 3.5-3.5s3.5 1.57 3.5 3.5v1.5zm-8 0h5v-1.5c0-1.379-1.122-2.5-2.5-2.5s-2.5 1.121-2.5 2.5zm7 1h-9v5.5c0 .827.673 1.5 1.5 1.5h6c.827 0 1.5-.673 1.5-1.5zm-4 2.5h-1v2h1zm-14.058 8.5c1.103 0 2 .897 2 2s-.897 2-2 2-2-.897-2-2 .897-2 2-2zm0 1c-.551 0-1 .448-1 1s.449 1 1 1 1-.448 1-1-.449-1-1-1z"/></svg>