<svg id="Layer_1" viewBox="0 0 24 24" xmlns="http://www.w3.org/2000/svg" data-name="Layer 1"><path d="m3 8.5c0 3.032 2.468 5.5 5.5 5.5 2.981 0 5.5-2.519 5.5-5.5v-1.5h1v-1h-1v-.5c0-2.981-2.519-5.5-5.5-5.5-3.032 0-5.5 2.468-5.5 5.5v.5h-1v1h1zm1-3c0-2.481 2.019-4.5 4.5-4.5 2.439 0 4.5 2.061 4.5 4.5v.5h-9zm0 1.5h9v1.5c0 2.439-2.061 4.5-4.5 4.5-2.481 0-4.5-2.019-4.5-4.5zm19.561 3.561c.585-.585.585-1.536 0-2.121s-1.537-.584-2.121 0l-2.146 2.146-2.189-2.189-.707.707 1.396 1.396-5.5 5.5h-7.793c-2.481 0-4.5 2.019-4.5 4.5v3.5h1v-3.5c0-1.93 1.57-3.5 3.5-3.5h8c1.93 0 3.5 1.57 3.5 3.5v3.5h1v-3.5c0-.533-.109-1.038-.28-1.513l4.78-4.78 1.396 1.396.707-.707-2.189-2.189zm-1.415-1.415c.195-.195.512-.195.707 0s.195.512 0 .707l-2.146 2.146-.707-.707zm-5.888 8.889c-.616-.936-1.573-1.62-2.692-1.894l4.934-4.934.793.793-2.896 2.896.707.707 2.896-2.896.793.793z"/></svg>