<svg id="Layer_1" viewBox="0 0 24 24" xmlns="http://www.w3.org/2000/svg" data-name="Layer 1"><path d="m20 8c2.206 0 4-1.794 4-4s-1.794-4-4-4-4 1.794-4 4 1.794 4 4 4zm0-7c1.654 0 3 1.346 3 3s-1.346 3-3 3-3-1.346-3-3 1.346-3 3-3zm3 17.354c0 .243-.128.457-.342.571-.215.115-.462.104-.665-.031l-4.341-2.895h-10.652v-13.499c0-.827.673-1.5 1.5-1.5h6.309c.208-.359.452-.693.728-1h-7.037c-1.378 0-2.5 1.122-2.5 2.5v1.5h-3.5c-1.378 0-2.5 1.122-2.5 2.5v15.854c0 .608.333 1.166.87 1.453.245.131.512.192.779.192.359 0 .637-.09.913-.273l4.089-2.727h11.349v-3.566l3.438 2.292c.276.184.594.276.913.276.267 0 .534-.064.779-.195.537-.287.87-.845.87-1.453v-9.89c-.307.275-.641.52-1 .728v9.164zm-16.651 1.646-4.341 2.895c-.201.135-.45.146-.665.031-.214-.114-.342-.328-.342-.571v-15.855c0-.827.673-1.5 1.5-1.5h3.5v12h11v3z"/></svg>