<svg id="Layer_1" viewBox="0 0 24 24" xmlns="http://www.w3.org/2000/svg" data-name="Layer 1"><path d="m21.5 0h-19c-1.379 0-2.5 1.122-2.5 2.5v19.5h9v-1h-8v-14h22v14h-8v1h9v-19.5c0-1.378-1.121-2.5-2.5-2.5zm-6.293 1h5.086l-5 5h-5.086zm-6.414 5h-4.586l5-5h4.586zm-7.793-3.5c0-.827.673-1.5 1.5-1.5h5.293l-5 5h-1.793zm15.707 3.5 4.981-4.981c.738.094 1.312.718 1.312 1.481v3.5zm-2.779 11.505c-.894.493-1.428 1.325-1.428 2.227v1.268h-1v-1.268c0-1.271.728-2.432 1.945-3.103 1.188-.654 1.78-1.998 1.474-3.343-.246-1.073-1.132-1.959-2.206-2.205-.92-.209-1.861-.002-2.582.571-.719.574-1.131 1.429-1.131 2.347h-1c0-1.224.55-2.365 1.508-3.129.959-.764 2.211-1.042 3.428-.764 1.463.333 2.624 1.494 2.958 2.957.406 1.785-.384 3.569-1.966 4.441zm-.928 5.495c0 .552-.448 1-1 1s-1-.448-1-1 .448-1 1-1 1 .448 1 1z"/></svg>