<?xml version="1.0" encoding="UTF-8"?>
<svg xmlns="http://www.w3.org/2000/svg" id="Layer_1" data-name="Layer 1" viewBox="0 0 24 24">
  <path d="M24,12c0,2.596-1.424,4.862-3.529,6.07,.013-.189,.029-.378,.029-.57,0-.207-.016-.41-.031-.613,1.529-1.089,2.531-2.871,2.531-4.887,0-2.958-2.204-5.511-5.126-5.937l-.287-.042-.105-.27c-1.139-2.887-3.879-4.752-6.981-4.752-4.136,0-7.5,3.364-7.5,7.5,0,.637,.079,1.267,.236,1.873l.098,.381-.347,.186c-1.226,.654-1.987,1.923-1.987,3.311,0,1.632,1.055,3.01,2.514,3.524,.012,.365,.047,.723,.103,1.074-2.071-.511-3.617-2.372-3.617-4.598,0-1.627,.826-3.125,2.182-3.996-.121-.573-.182-1.161-.182-1.754C2,3.813,5.813,0,10.5,0c3.421,0,6.453,2.001,7.803,5.121,3.268,.616,5.697,3.524,5.697,6.879Zm-5.5,5.5c0,3.584-2.916,6.5-6.5,6.5s-6.5-2.916-6.5-6.5,2.916-6.5,6.5-6.5,6.5,2.916,6.5,6.5Zm-1,0c0-3.032-2.468-5.5-5.5-5.5s-5.5,2.468-5.5,5.5,2.468,5.5,5.5,5.5,5.5-2.468,5.5-5.5Zm-4.51-3.089l3.103,3.589h-3.593v3h-1v-3h-3.587l3.074-3.584c.55-.553,1.447-.556,2.003-.005Zm.917,2.589l-1.647-1.907c-.134-.132-.388-.134-.553,.018l-1.62,1.89h3.82Z"/>
</svg>
