<?xml version="1.0" encoding="UTF-8"?>
<svg xmlns="http://www.w3.org/2000/svg" id="Layer_1" data-name="Layer 1" viewBox="0 0 24 24">
  <path d="M12.5,20.5h-1v-2h1v2Zm3-5.5h2v6.5c0,1.378-1.122,2.5-2.5,2.5h-6c-1.378,0-2.5-1.122-2.5-2.5v-6.5h2v-1.5c0-1.93,1.57-3.5,3.5-3.5s3.5,1.57,3.5,3.5v1.5Zm-6,0h5v-1.5c0-1.378-1.122-2.5-2.5-2.5s-2.5,1.122-2.5,2.5v1.5Zm7,1H7.5v5.5c0,.827,.673,1.5,1.5,1.5h6c.827,0,1.5-.673,1.5-1.5v-5.5Zm1.802-10.878C16.953,2,13.921,0,10.5,0,5.813,0,2,3.813,2,8.5c0,.591,.061,1.18,.181,1.754-1.354,.871-2.181,2.369-2.181,3.996,0,2.534,1.999,4.592,4.5,4.725v-1c-1.95-.131-3.5-1.742-3.5-3.725,0-1.387,.761-2.656,1.987-3.311l.347-.185-.098-.38c-.157-.609-.236-1.239-.236-1.874C3,4.364,6.364,1,10.5,1c3.103,0,5.843,1.865,6.98,4.752l.106,.27,.287,.042c2.923,.426,5.126,2.979,5.126,5.937,0,2.416-1.438,4.497-3.5,5.447v1.083c2.627-1.009,4.5-3.552,4.5-6.53,0-3.355-2.43-6.262-5.698-6.878Z"/>
</svg>
