<svg id="Layer_1" viewBox="0 0 24 24" xmlns="http://www.w3.org/2000/svg" data-name="Layer 1"><path d="m23 11.177c.356-.208.695-.44 1-.714v11.537h-24v-15.5c0-1.378 1.122-2.5 2.5-2.5h11.849c-.114.322-.201.656-.259 1h-11.59c-.827 0-1.5.673-1.5 1.5v1.5h13.349c.124.349.277.684.461 1h-13.81v2h15.686c.95.631 2.088 1 3.314 1h-19v9h22zm-18.058 3.823c1.103 0 2 .897 2 2s-.897 2-2 2-2-.897-2-2 .897-2 2-2zm0 1c-.551 0-1 .449-1 1s.449 1 1 1 1-.449 1-1-.449-1-1-1zm11.058-10c0-2.206 1.794-4 4-4s4 1.794 4 4-1.794 4-4 4-4-1.794-4-4zm1 0c0 1.654 1.346 3 3 3s3-1.346 3-3-1.346-3-3-3-3 1.346-3 3z"/></svg>