<svg id="Layer_1" viewBox="0 0 24 24" xmlns="http://www.w3.org/2000/svg" data-name="Layer 1"><path d="m20.5 15c1.103 0 2-.897 2-2s-.897-2-2-2-2 .897-2 2 .897 2 2 2zm0-3c.551 0 1 .448 1 1s-.449 1-1 1-1-.448-1-1 .449-1 1-1zm-17 3c1.103 0 2-.897 2-2s-.897-2-2-2-2 .897-2 2 .897 2 2 2zm0-3c.551 0 1 .448 1 1s-.449 1-1 1-1-.448-1-1 .449-1 1-1zm8.5 7c1.103 0 2-.897 2-2s-.897-2-2-2-2 .897-2 2 .897 2 2 2zm0-3c.551 0 1 .448 1 1s-.449 1-1 1-1-.448-1-1 .449-1 1-1zm7.158-12.525-.316-.949 3-1 .316.949zm2.684 5-3-1 .316-.949 3 1zm-17-5-3-1 .316-.949 3 1zm-2.684 5-.316-.949 3-1 .316.949zm21.842 9.525v2h-1v-2c0-.552-.449-1-1-1h-3c-.551 0-1 .448-1 1v2h-1v-2c0-1.103.897-2 2-2h3c1.103 0 2 .897 2 2zm-8.5 4v2h-1v-2c0-.552-.449-1-1-1h-3c-.551 0-1 .448-1 1v2h-1v-2c0-1.103.897-2 2-2h3c1.103 0 2 .897 2 2zm-8.5-4v2h-1v-2c0-.552-.449-1-1-1h-3c-.551 0-1 .448-1 1v2h-1v-2c0-1.103.897-2 2-2h3c1.103 0 2 .897 2 2zm8.147-16.885c-1.176-.954-2.718-1.316-4.229-1.001-1.998.421-3.548 2.07-3.858 4.104-.311 2.036.631 4.026 2.398 5.069.339.2.542.531.542.886v1.827h4v-1.826c0-.354.204-.687.545-.889 1.538-.91 2.455-2.512 2.455-4.285 0-1.514-.675-2.931-1.853-3.885zm-2.147 9.885h-2v-.827c0-.059-.018-.115-.023-.173h2.047c-.005.059-.024.114-.024.174zm1.036-2.576c-.256.152-.457.354-.623.576h-.912v-3.071c.86-.224 1.5-1 1.5-1.929h-1c0 .552-.449 1-1 1s-1-.448-1-1h-1c0 .929.64 1.705 1.5 1.929v3.071h-.911c-.166-.222-.367-.423-.622-.574-1.414-.834-2.167-2.427-1.918-4.058.244-1.598 1.509-2.945 3.076-3.275 1.214-.255 2.451.035 3.394.799.942.764 1.482 1.897 1.482 3.108 0 1.416-.734 2.696-1.964 3.424z"/></svg>