<svg id="Layer_1" viewBox="0 0 24 24" xmlns="http://www.w3.org/2000/svg" data-name="Layer 1"><path d="m24 2.007-6.068-1.709-1.464 1.464-.969-.969s-13.768 13.694-13.888 13.814c-1.032 1.032-1.611 2.496-1.611 3.849 0 2.006.939 3.641 2.534 4.678.89.583 1.924.873 2.958.873 1.104 0 2.208-.33 3.141-.986 1.186-.833 1.987-2.062 2.259-3.459.455-2.347 1.395-4.245 2.792-5.642l7.472-7.472-.744-.744c.877-.888 3.589-3.698 3.589-3.698zm-11.023 11.206c-1.541 1.54-2.572 3.612-3.067 6.158-.222 1.142-.879 2.147-1.851 2.831-1.476 1.038-3.476 1.077-4.978.095-1.167-.764-1.917-1.979-2.057-3.335-.141-1.355.331-2.685 1.295-3.648.109-.11 11.057-11 13.178-13.109l4.244 4.244-6.765 6.765zm6.727-8.216-2.529-2.529 1.051-1.051 3.928 1.096c-.709.719-1.867 1.893-2.45 2.484zm-16.118 11.799 2.121 2.121 4.207-4.207-2.121-2.121zm2.121.707-.707-.707 2.793-2.793.707.707z"/></svg>