<svg id="Layer_1" viewBox="0 0 24 24" xmlns="http://www.w3.org/2000/svg" data-name="Layer 1"><path d="m19.5 0h-15c-1.379 0-2.5 1.122-2.5 2.5v21.5h20v-21.5c0-1.378-1.121-2.5-2.5-2.5zm1.5 23h-18v-20.5c0-.827.673-1.5 1.5-1.5h15c.827 0 1.5.673 1.5 1.5zm-12-9h6v-2h2v-4c0-2.757-2.243-5-5-5s-5 2.243-5 5v4h2zm-1-3v-3c0-2.206 1.794-4 4-4s4 1.794 4 4v3h-2v2h-4v-2zm10.176 5.468-4.753 1.782 4.753 1.782-.352.936-5.824-2.184-5.824 2.184-.352-.936 4.753-1.782-4.753-1.782.352-.936 5.824 2.184 5.824-2.184zm-5.176-7.468c0-.552.448-1 1-1s1 .448 1 1-.448 1-1 1-1-.448-1-1zm-3 1c-.552 0-1-.448-1-1s.448-1 1-1 1 .448 1 1-.448 1-1 1z"/></svg>