<?xml version="1.0" encoding="UTF-8"?>
<svg xmlns="http://www.w3.org/2000/svg" id="Layer_1" data-name="Layer 1" viewBox="0 0 24 24">
  <path d="M17.5,11c-3.584,0-6.5,2.916-6.5,6.5s2.916,6.5,6.5,6.5,6.5-2.916,6.5-6.5-2.916-6.5-6.5-6.5Zm0,12c-3.032,0-5.5-2.467-5.5-5.5s2.468-5.5,5.5-5.5,5.5,2.467,5.5,5.5-2.468,5.5-5.5,5.5Zm-9,0c-4.065,0-7.5-1.603-7.5-3.5v-2.851c1.419,1.411,4.213,2.351,7.5,2.351,.216,0,.427-.009,.638-.017-.057-.326-.094-.659-.113-.996-.174,.006-.348,.013-.525,.013-4.065,0-7.5-1.603-7.5-3.5v-2.851c1.419,1.411,4.213,2.351,7.5,2.351,.44,0,.867-.022,1.286-.055,.171-.37,.365-.726,.584-1.065-.601,.075-1.227,.12-1.871,.12-4.065,0-7.5-1.603-7.5-3.5v-2.851c1.419,1.411,4.213,2.351,7.5,2.351s6.081-.94,7.5-2.351v2.492c.326-.058,.659-.096,.997-.115,0-.009,.003-.017,.003-.025V4.5C17,1.977,13.267,0,8.5,0S0,1.977,0,4.5v15c0,2.523,3.733,4.5,8.5,4.5,1.131,0,2.2-.114,3.179-.318-.289-.272-.561-.562-.81-.872-.749,.121-1.545,.19-2.369,.19ZM8.5,1c4.065,0,7.5,1.603,7.5,3.5s-3.435,3.5-7.5,3.5S1,6.397,1,4.5,4.435,1,8.5,1Zm11.349,14.651c-.353-.986-1.279-1.651-2.349-1.651-1.379,0-2.5,1.122-2.5,2.5v.063c-.861,.222-1.5,1.006-1.5,1.937,0,1.103,.897,2,2,2h3.5c1.379,0,2.5-1.122,2.5-2.5,0-1.069-.665-1.996-1.651-2.349Zm-.849,3.849h-3.5c-.552,0-1-.449-1-1s.448-1,1-1h.5v-1c0-.827,.673-1.5,1.5-1.5,.702,0,1.302,.479,1.459,1.165l.069,.306,.307,.07c.686,.157,1.165,.757,1.165,1.459,0,.827-.673,1.5-1.5,1.5Z"/>
</svg>
