<svg id="Layer_1" viewBox="0 0 24 24" xmlns="http://www.w3.org/2000/svg" data-name="Layer 1"><path d="m4 5c0-.552.448-1 1-1s1 .448 1 1-.448 1-1 1-1-.448-1-1zm20 15h-2.18c.116.32.18.655.18 1 0 1.654-1.346 3-3 3s-3-1.346-3-3c0-.345.064-.68.18-1h-8.36c.116.32.18.655.18 1 0 1.654-1.346 3-3 3s-3-1.346-3-3c0-.345.064-.68.18-1h-2.18v-10.109c-.02-.008.979.967 1 .987v8.122h15v-14.5c0-.827-.673-1.5-1.5-1.5h-2.79c-.102-.344-.237-.676-.391-1h3.181c1.379 0 2.5 1.121 2.5 2.5v2.5h2.5c2.481 0 4.5 2.019 4.5 4.5zm-17.304 0h-3.392c-.185.309-.304.645-.304 1 0 1.103.897 2 2 2s2-.897 2-2c0-.355-.119-.691-.304-1zm10.304-12v5h6v-1.5c0-1.93-1.57-3.5-3.5-3.5zm3.696 12h-3.392c-.185.309-.304.645-.304 1 0 1.103.897 2 2 2s2-.897 2-2c0-.355-.119-.691-.304-1zm2.304-1v-5h-6v5zm-21.531-10.461c-.948-.948-1.469-2.203-1.469-3.539 0-1.5.521-2.591 1.465-3.535.943-.944 2.199-1.465 3.535-1.465s2.591.521 3.535 1.465 1.465 2.199 1.465 3.535-.521 2.591-1.465 3.535l-3.535 3.458zm-.469-3.539c0 1.068.416 2.073 1.172 2.828l2.828 2.767 2.832-2.771c.752-.751 1.168-1.756 1.168-2.824s-.416-2.073-1.172-2.828c-.756-.756-1.76-1.172-2.828-1.172s-2.073.416-2.828 1.172c-.756.755-1.172 1.76-1.172 2.828z"/></svg>