<svg id="Layer_1" viewBox="0 0 24 24" xmlns="http://www.w3.org/2000/svg" data-name="Layer 1"><path d="m14.737 2.5h5.334c.224.86 1 1.5 1.929 1.5 1.103 0 2-.897 2-2s-.897-2-2-2c-.929 0-1.705.64-1.929 1.5h-5.808l-2.262 2.765c.277.195.54.402.787.618l1.95-2.383zm7.263-1.5c.551 0 1 .449 1 1s-.449 1-1 1-1-.449-1-1 .449-1 1-1zm0 19c-.929 0-1.705.64-1.929 1.5h-5.334l-1.95-2.383c-.247.216-.509.423-.787.618l2.262 2.765h5.808c.224.86 1 1.5 1.929 1.5 1.103 0 2-.897 2-2s-.897-2-2-2zm0 3c-.551 0-1-.449-1-1s.449-1 1-1 1 .449 1 1-.449 1-1 1zm0-13c-.929 0-1.705.64-1.929 1.5h-4.071v1h4.071c.224.86 1 1.5 1.929 1.5 1.103 0 2-.897 2-2s-.897-2-2-2zm0 3c-.551 0-1-.449-1-1s.449-1 1-1 1 .449 1 1-.449 1-1 1zm-15-8c-3.86 0-7 3.14-7 7s3.14 7 7 7 7-3.14 7-7-3.14-7-7-7zm0 13c-3.309 0-6-2.691-6-6s2.691-6 6-6 6 2.691 6 6-2.691 6-6 6zm3.039-4.33c0 1.009-.8 1.83-1.783 1.83h-.756v1.5h-1v-1.5h-.717c-.983 0-1.783-.821-1.783-1.83v-.17h1v.17c0 .458.351.83.783.83h2.473c.432 0 .783-.373.783-.83 0-.371-.235-.7-.572-.799l-3.094-.777c-.779-.23-1.309-.953-1.309-1.764 0-1.009.8-1.83 1.783-1.83h.653v-1.5h1v1.5h.717c.983 0 1.783.821 1.783 1.83v.196h-1v-.196c0-.458-.351-.83-.783-.83h-2.371c-.432 0-.783.373-.783.83 0 .371.235.7.572.799l3.094.777c.779.23 1.309.953 1.309 1.764z"/></svg>