<svg id="Layer_1" viewBox="0 0 24 24" xmlns="http://www.w3.org/2000/svg" data-name="Layer 1"><path d="m7.001 7.646-6 5.572v10.782h-1.001v-11.218s7.001-6.5 7.001-6.5zm13.999.354v4h1v1h-5.064c-.056-.343-.159-.676-.291-1h.855v-4h-2v2.344c-.065-.061-.117-.13-.187-.188-.255-.213-.529-.385-.813-.535v-1.621h-1.5v1.123c-.332-.049-.666-.052-1-.031v-1.093h-1v-1.26c0-.729.398-1.4 1.039-1.75l3.507-1.913c.598-.324 1.311-.325 1.908 0l3.507 1.911c.641.351 1.039 1.021 1.039 1.751v1.26h-1zm-9-1h9v-.26c0-.364-.198-.698-.518-.873l-3.507-1.911c-.299-.164-.652-.163-.951 0l-3.507 1.913c-.319.174-.518.508-.518.872v.26zm8 1h-1.5v4h1.5zm4-8v19.5c0 1.379-1.121 2.5-2.5 2.5h-9.5c-.653 0-1.269-.266-1.733-.717l-.267.376v2.341h-1v-2.659l4.706-6.63c.494-.719.361-1.688-.314-2.252-.645-.535-1.6-.516-2.221.048l-4.338 3.866-.666-.746 4.335-3.863c.984-.896 2.504-.929 3.53-.072.989.825 1.237 2.196.652 3.309h8.315v-14.001h-12.999v8.684c-.358.196-.697.454-1 .738v-10.422zm-1 19.5v-3.5h-8.982l-3.143 4.492c.284.322.694.508 1.125.508h9.5c.827 0 1.5-.673 1.5-1.5zm-8-.5h3v-1h-3z"/></svg>