<svg id="Layer_1" viewBox="0 0 24 24" xmlns="http://www.w3.org/2000/svg" data-name="Layer 1"><path d="m4.5 7.5v5h1.5c.827 0 1.5-.673 1.5-1.5v-2c0-.827-.673-1.5-1.5-1.5zm2 1.5v2c0 .275-.225.5-.5.5h-.5v-3h.5c.275 0 .5.225.5.5zm4.936 0v3.5h-1v-3.5c0-.276-.224-.5-.5-.5s-.5.224-.5.5v3.5h-1v-5h1v.092c.157-.056.324-.092.5-.092.828 0 1.5.672 1.5 1.5zm3.1 2.027c.051-.286-.374-.466-.506-.515-.623-.23-1.185-.481-1.185-.481-.497-.316-.716-.803-.644-1.309.078-.538.471-.976 1.027-1.144 1.092-.329 1.948.481 1.986.512l-.618.728c-.021-.017-.524-.41-1.069-.248-.243.073-.291.234-.3.299-.006.049-.01.17.108.25.013 0 .509.218 1.055.42 1.013.374 1.267 1.107 1.167 1.669-.133.746-.844 1.287-1.691 1.287-.685 0-1.328-.276-1.765-.758l.767-.696c.237.261.61.418.998.418.371 0 .633-.22.671-.432zm-13.536-1.027c0-1.438.347-2.793.95-4h16.115c.391.796.677 1.658.823 2.578.074.486.123.99.108 1.49.338.042.668.108.991.19.037-.614-.02-1.239-.111-1.839-.775-4.878-4.928-8.419-9.876-8.419-5.514 0-10 4.486-10 10 0 5.136 3.847 9.411 8.948 9.945.43.042.873.072 1.311.042-.097-.379-.176-.766-.217-1.164-.62-.649-1.749-1.986-2.705-3.823h3.25c.14-.347.306-.679.492-1h-9.148c-.597-1.207-.931-2.566-.931-4zm6.337-5c.927-1.799 2.093-3.173 2.663-3.783.57.611 1.736 1.985 2.663 3.783zm10.156 0h-3.714c-.805-1.7-1.826-3.064-2.55-3.909 2.603.351 4.862 1.797 6.264 3.909zm-8.725-3.905c-.723.844-1.743 2.207-2.547 3.905h-3.699c1.399-2.085 3.648-3.547 6.246-3.905zm-2.547 13.905c.806 1.701 1.827 3.064 2.55 3.908-2.633-.359-4.866-1.828-6.254-3.908zm11.779 1c-1.103 0-2 .897-2 2s.897 2 2 2 2-.897 2-2-.897-2-2-2zm0 3c-.552 0-1-.448-1-1s.448-1 1-1 1 .448 1 1-.448 1-1 1zm4.5-1c0-.274-.03-.551-.094-.851l1.526-.896-1.521-2.587-1.516.892c-.408-.34-.882-.606-1.396-.786v-1.771h-3v1.771c-.515.18-.988.446-1.396.786l-1.516-.892-1.521 2.587 1.526.896c-.063.3-.094.576-.094.851s.03.551.094.851l-1.526.896 1.521 2.587 1.516-.892c.408.34.882.606 1.396.786v1.771h3v-1.771c.515-.18.988-.446 1.396-.786l1.516.892 1.521-2.587-1.526-.896c.063-.3.094-.576.094-.851zm.063 2.103-.507.862-1.305-.768c-.576.664-1.37 1.104-2.252 1.274v1.528h-1v-1.528c-.883-.17-1.676-.61-2.252-1.274l-1.305.768-.507-.862 1.32-.775c-.328-.919-.328-1.735 0-2.654l-1.32-.775.507-.862 1.305.768c.576-.664 1.37-1.104 2.252-1.274v-1.528h1v1.528c.883.17 1.676.61 2.252 1.274l1.305-.768.507.862-1.32.775c.328.919.328 1.735 0 2.654z"/></svg>