<svg id="Layer_1" viewBox="0 0 24 24" xmlns="http://www.w3.org/2000/svg" data-name="Layer 1"><path d="m21.5 0h-19c-1.379 0-2.5 1.121-2.5 2.5v21.5h24v-21.5c0-1.379-1.121-2.5-2.5-2.5zm1.5 2.5v2.773c-.54.463-2.575 2.094-6 3.697v-7.97h4.5c.827 0 1.5.673 1.5 1.5zm-15 9.328v-10.828h8v8.419c-2.19.942-4.857 1.831-8 2.409zm-5.5-10.828h4.5v10.981c-1.852.293-3.849.478-6 .503v-9.984c0-.827.673-1.5 1.5-1.5zm-1.5 22v-9.515c12.178-.136 19.62-5.053 22-6.917v16.432zm4-3c0 .552-.448 1-1 1s-1-.448-1-1 .448-1 1-1 1 .448 1 1zm5.5 0c0 .552-.448 1-1 1s-1-.448-1-1 .448-1 1-1 1 .448 1 1zm10.5 0c0 .552-.448 1-1 1s-1-.448-1-1 .448-1 1-1 1 .448 1 1zm-5.5 0c0 .552-.448 1-1 1s-1-.448-1-1 .448-1 1-1 1 .448 1 1z"/></svg>