<?xml version="1.0" encoding="UTF-8"?>
<svg xmlns="http://www.w3.org/2000/svg" id="Layer_1" data-name="Layer 1" viewBox="0 0 24 24">
  <path d="m21.501.021H2.501C1.122.021,0,1.143,0,2.521v21.5h24V2.521C24.001,1.143,22.879.021,21.501.021Zm0,1c.827,0,1.5.673,1.5,1.5v1.5h-3V1.021h1.5Zm-1.5,16h3v3h-3v-3Zm0-1v-3h3v3h-3Zm0-4v-3h3v3h-3Zm0-4v-3h3v3h-3Zm-1-7v11H5.001V1.021h14ZM4.001,20.021H1.001v-3h3v3Zm0-4H1.001v-3h3v3Zm-3-4v-3h3v3H1.001Zm3-4H1.001v-3h3v3ZM2.501,1.021h1.5v3H1.001v-1.5c0-.827.673-1.5,1.5-1.5Zm-1.5,22v-2h3v2H1.001Zm4,0v-10h14v10H5.001Zm15,0v-2h3v2h-3Z"/>
</svg>
