<svg id="Layer_1" viewBox="0 0 24 24" xmlns="http://www.w3.org/2000/svg" data-name="Layer 1"><path d="m11.76 23c.29.361.613.694.96 1h-10.22c-1.378 0-2.5-1.122-2.5-2.5 0-.821.403-1.544 1.015-2-.613-.456-1.015-1.179-1.015-2 0-1.378 1.122-2.5 2.5-2.5h8.087c-.131.323-.237.658-.325 1h-7.762c-.827 0-1.5.673-1.5 1.5s.673 1.5 1.5 1.5h7.569c.043.341.109.674.193 1h-7.762c-.827 0-1.5.673-1.5 1.5s.673 1.5 1.5 1.5zm12.24-17.5v7.22c-.306-.348-.639-.67-1-.96v-5.755l-4 2.019v2.044c-.328-.041-.661-.069-1-.069v-1.47l-3.976 2.007c-.608.307-1.32.461-2.032.461s-1.423-.153-2.03-.46l-3.962-2v4.463h-1v-4.968l-5-2.532 9.961-5.038c1.213-.613 2.847-.613 4.062 0l9.977 5.04zm-2.217 0-8.21-4.146c-.945-.476-2.216-.476-3.162 0l-8.209 4.146 8.211 4.146c.946.477 2.216.477 3.16 0l8.21-4.145zm2.217 12.5c0 3.309-2.691 6-6 6s-6-2.691-6-6 2.691-6 6-6 6 2.691 6 6zm-1 0c0-2.757-2.243-5-5-5s-5 2.243-5 5 2.243 5 5 5 5-2.243 5-5zm-3.534-.159-2.575-.646c-.245-.073-.417-.314-.417-.587 0-.335.255-.608.568-.608h1.976c.313 0 .569.273.569.608v.163h1v-.163c0-.887-.704-1.608-1.569-1.608h-.518v-1h-1v1h-.458c-.865 0-1.568.722-1.568 1.608 0 .711.466 1.347 1.152 1.551l2.575.646c.246.073.417.314.417.586 0 .335-.255.608-.568.608h-2.062c-.313 0-.568-.273-.568-.608v-.142h-1v.142c0 .887.703 1.608 1.568 1.608h.512v1h1v-1h.55c.865 0 1.568-.722 1.568-1.608 0-.712-.466-1.347-1.152-1.551z"/></svg>