<svg id="Layer_1" viewBox="0 0 24 24" xmlns="http://www.w3.org/2000/svg" data-name="Layer 1"><path d="m1 17h1v7h-1zm23-2v-.505c0-1.376-1.119-2.495-2.495-2.495h-1.005v-2h-1v2h-1.005c-1.376 0-2.495 1.119-2.495 2.495 0 1.108.744 2.095 1.81 2.399l4.105 1.173c.639.182 1.085.773 1.085 1.438 0 .824-.671 1.495-1.495 1.495h-3.01c-.824 0-1.495-.671-1.495-1.495v-.505h-1v.505c0 1.376 1.119 2.495 2.495 2.495h1.005v2h1v-2h1.005c1.376 0 2.495-1.119 2.495-2.495 0-1.108-.744-2.095-1.81-2.399l-4.105-1.173c-.639-.182-1.085-.773-1.085-1.438 0-.824.671-1.495 1.495-1.495h3.01c.824 0 1.495.671 1.495 1.495v.505zm-7-12h-1v8.026c.292-.486.604-.891 1-1.262zm5-3h-1v8h1zm-10 6c0 3.309-2.691 6-6 6s-6-2.691-6-6 2.691-6 6-6 6 2.691 6 6zm-5.5-4.949v2c1.252.212 2.237 1.197 2.449 2.449h2c-.238-2.353-2.097-4.211-4.449-4.449zm-.5 6.949c1.103 0 2-.897 2-2s-.897-2-2-2-2 .897-2 2 .897 2 2 2zm-5-2c0 1.198.441 2.284 1.146 3.146l1.413-1.413c-.349-.49-.56-1.086-.56-1.733 0-1.483 1.084-2.71 2.5-2.949v-2c-2.519.255-4.499 2.363-4.499 4.949zm9.949.5h-2c-.24 1.416-1.466 2.5-2.949 2.5-.647 0-1.243-.21-1.733-.56l-1.413 1.413c.862.705 1.948 1.146 3.146 1.146 2.586 0 4.694-1.98 4.949-4.5zm-4.949 7.501v9.999h1l-.026-10.07c-.328.042-.635.07-.974.07zm5-1.77v11.769h1l-.027-12.732c-.305.348-.612.672-.973.963z"/></svg>