<svg id="Layer_1" viewBox="0 0 24 24" xmlns="http://www.w3.org/2000/svg" data-name="Layer 1"><path d="m9 13c2.206 0 4-1.794 4-4 0-2.035-1.532-3.7-3.5-3.949v-4.026c4.184.259 7.5 3.725 7.5 7.975 0 .446-.046.88-.116 1.305.335.144.644.336.915.575.13-.607.201-1.235.201-1.88 0-.688-.085-1.356-.232-2h3.732v3.071c-.86.224-1.5 1-1.5 1.929 0 1.103.897 2 2 2s2-.897 2-2c0-.929-.64-1.705-1.5-1.929v-4.071h-5.025c-1.24-3.49-4.566-6-8.475-6-4.962 0-9 4.037-9 9 0 4.274 2.998 7.853 7 8.766v3.734h-3.071c-.224-.86-1-1.5-1.929-1.5-1.103 0-2 .897-2 2s.897 2 2 2c.929 0 1.705-.64 1.929-1.5h4.071v-5.569c-3.782-.473-6.738-3.581-6.977-7.431h4.028c.249 1.968 1.915 3.5 3.949 3.5zm14-1c0 .552-.449 1-1 1s-1-.448-1-1 .449-1 1-1 1 .448 1 1zm-21 11c-.551 0-1-.448-1-1s.449-1 1-1 1 .448 1 1-.449 1-1 1zm10-14c0 1.654-1.346 3-3 3s-3-1.346-3-3 1.346-3 3-3 3 1.346 3 3zm-3.5-7.975v4.026c-1.802.228-3.221 1.647-3.449 3.449h-4.026c.249-4.018 3.457-7.226 7.475-7.475zm8.5 16.292 7 2.321v4.361h-1v-3.639l-7-2.321v-4.54c0-.275-.224-.5-.5-.5s-.5.225-.5.5v7.959l-2.668-2.278c-.155-.13-.366-.194-.597-.177-.208.019-.404.122-.544.29s-.207.38-.187.598c.02.217.124.414.292.555l4.089 3.554h-1.524l-3.206-2.786s-.002-.002-.003-.003l-.004-.004s-.001-.002-.002-.003c-.366-.311-.592-.743-.636-1.222-.044-.485.104-.957.415-1.329.31-.372.747-.602 1.23-.646.5-.042.964.109 1.324.41l1.024.874v-5.791c0-.827.673-1.5 1.5-1.5s1.5.673 1.5 1.5v3.817z"/></svg>