<svg id="Layer_1" viewBox="0 0 24 24" xmlns="http://www.w3.org/2000/svg" data-name="Layer 1"><path d="m14.15 17.214c-3.396-1.381-5.87-3.857-7.36-7.369l3.373-3.373-5.679-5.679-2.879 2.879c-1.035 1.033-1.605 2.433-1.605 3.941 0 7.198 9.189 16.386 16.387 16.386 1.509 0 2.908-.57 3.94-1.604l2.88-2.879-5.68-5.679-3.377 3.376zm5.47 4.475c-.845.845-1.992 1.311-3.233 1.311-6.615 0-15.387-8.771-15.387-15.386 0-1.241.466-2.39 1.312-3.234l2.172-2.172 4.265 4.265-3.135 3.135.123.307c1.625 4.046 4.437 6.856 8.357 8.353l.303.115 3.131-3.13 4.266 4.265-2.173 2.173zm-.62-10.189c2.757 0 5-2.243 5-5 0-2.196-1.879-3.694-3.388-4.897-.476-.379-.924-.737-1.259-1.072l-.38-.38-.352.406c-.723.834-.895 1.869-1.032 2.7-.182 1.096-.283 1.243-.59 1.243-.386 0-.496-.866-.503-1.08l-.037-1.181-.822.847c-.703.726-1.638 1.868-1.638 3.414 0 2.757 2.243 5 5 5zm.707-1.344c-.38.379-1.037.378-1.414 0-.39-.39-.39-1.025 0-1.415l.707-.708.707.708c.188.189.293.44.293.708s-.104.518-.293.707zm-3.99-5.629c.214.524.608.973 1.283.973 1.231 0 1.423-1.153 1.576-2.079.097-.583.204-1.229.506-1.779.278.242.587.488.906.743 1.412 1.125 3.012 2.401 3.012 4.115 0 1.507-.848 2.807-2.083 3.489.049-.174.083-.354.083-.539 0-.535-.208-1.037-.586-1.415l-1.414-1.415-1.414 1.415c-.529.529-.69 1.281-.501 1.955-1.236-.681-2.085-1.981-2.085-3.49 0-.774.318-1.43.717-1.973z"/></svg>