<svg id="Layer_1" viewBox="0 0 24 24" xmlns="http://www.w3.org/2000/svg" data-name="Layer 1"><path d="m24 2.5v10.491c-.316-.393-.654-.764-1-1.119v-9.372c0-.827-.673-1.5-1.5-1.5h-9v11.595c-.348.37-.689.751-1 1.167v-12.762h-9c-.827 0-1.5.673-1.5 1.5v20.5h10.789c.284.359.593.697.938 1h-12.727v-21.5c0-1.378 1.122-2.5 2.5-2.5h19c1.378 0 2.5 1.122 2.5 2.5zm-15 9.5h-6v-8h6zm-1-7h-4v6h4zm16 13c0 3.309-2.691 6-6 6s0 0 0 0c-3.308 0-5.999-2.692-5.999-6 0-2.284 1.164-3.965 2.141-4.973l.856-.883.003 1.231c.001.675.215 1.5.461 1.5.402 0 .525-.271.8-1.347.227-.89.51-1.997 1.361-2.98l.352-.406.38.38c.383.383.883.802 1.413 1.246 1.886 1.58 4.233 3.545 4.233 6.233zm-4.94 2.438-1.06-1.061-1.061 1.061c-.283.283-.439.66-.439 1.061s.156.778.439 1.062c.567.566 1.556.566 2.122 0 .584-.584.584-1.537 0-2.122zm3.94-2.438c0-2.221-2.149-4.02-3.875-5.466-.376-.315-.739-.619-1.063-.912-.46.7-.656 1.465-.832 2.153-.263 1.033-.536 2.1-1.769 2.1-.708 0-1.116-.579-1.312-1.303-.616.861-1.149 2.014-1.149 3.428 0 1.911 1.091 3.556 2.671 4.397-.109-.283-.171-.585-.171-.898 0-.668.26-1.296.732-1.768l1.768-1.768 1.768 1.768c.719.72.904 1.772.561 2.666 1.581-.841 2.671-2.486 2.671-4.398zm-11.66-4h-3.34v1h2.742c.18-.354.38-.687.598-1zm9.66-3.809v-6.191h-6v5.267l1-1.032v-3.235h4v4.328c.289.266.646.567 1 .863z"/></svg>