<svg id="Layer_1" viewBox="0 0 24 24" xmlns="http://www.w3.org/2000/svg" data-name="Layer 1"><path d="m12 9c2.206 0 4-1.794 4-4 0-1.749-1.451-2.881-2.616-3.791-.549-.414-.951-.766-1.375-1.209l-.352.402c-.566.655-.736 1.385-.859 1.918-.159.681-.205.673-.427.655-.098-.1-.145-.389-.141-.557l.04-1.292-.899.929c-.321.332-1.371 1.526-1.371 2.944 0 2.206 1.794 4 4 4zm.53-1.259c-.142.142-.33.22-.53.22-.2 0-.388-.078-.529-.22s-.22-.33-.22-.531.078-.389.22-.53l.53-.53.53.53c.142.142.22.33.22.531s-.078.389-.22.53zm-3.021-4.25c.205.317.547.513.936.509.991 0 1.186-.84 1.327-1.454.079-.339.165-.71.352-1.063.202.169.42.34.646.515 1.046.816 2.231 1.741 2.231 3.002 0 1.01-.505 1.901-1.273 2.445.09-.537-.106-1.09-.49-1.472l-1.237-1.238-1.237 1.238c-.383.382-.58.935-.49 1.472-.768-.544-1.273-1.435-1.273-2.445 0-.515.218-1.048.509-1.509zm9.491 8.509v-4h-1.82c.184-.317.346-.649.47-1h2.35v6h-7v-2.09c.345-.058.678-.149 1-.263v1.353zm-14-4v4h5v-1.353c.322.114.655.205 1 .263v2.09h-7v-6h2.35c.125.351.286.683.47 1zm19-3.684v19.684h-5v-8h-5v8h-4v-8h-5v8h-5v-19.684l7.388-2.873c-.3.363-.638.869-.909 1.473l-5.479 2.131v17.975l3-.019v-8.003h7v8h2v-8h7v8h3v-17.953l-5.479-2.131c-.271-.605-.609-1.11-.909-1.473z"/></svg>