<svg id="Layer_1" viewBox="0 0 24 24" xmlns="http://www.w3.org/2000/svg" data-name="Layer 1"><path d="m18.5 0h-13c-1.378 0-2.5 1.122-2.5 2.5v21.5h18v-21.5c0-1.378-1.122-2.5-2.5-2.5zm-13 1h13c.827 0 1.5.673 1.5 1.5v10.5h-16v-10.5c0-.827.673-1.5 1.5-1.5zm-1.5 22v-9h16v9zm2-7h12v1h-12zm0 3h8v1h-8zm12-10.25c0-1.241-1.009-2.25-2.25-2.25h-1.75v-2.5h-1v7h2.75c1.241 0 2.25-1.009 2.25-2.25zm-4-1.25h1.75c.689 0 1.25.561 1.25 1.25s-.561 1.25-1.25 1.25h-1.75zm-2 1.25c0-.97-.617-1.798-1.479-2.114.3-.382.479-.864.479-1.386 0-1.241-1.009-2.25-2.25-2.25h-2.75v8h3.75c1.241 0 2.25-1.009 2.25-2.25zm-5-4.75h1.75c.689 0 1.25.561 1.25 1.25s-.561 1.25-1.25 1.25h-1.75zm0 3.5h2.75c.689 0 1.25.561 1.25 1.25s-.561 1.25-1.25 1.25h-2.75z"/></svg>