<svg id="Layer_1" viewBox="0 0 24 24" xmlns="http://www.w3.org/2000/svg" data-name="Layer 1"><path d="m19.732 12.732-7.732 7.732v3.535h3.535l7.732-7.732c.975-.975.975-2.561 0-3.535s-2.561-.975-3.535 0zm2.829 2.829-7.439 7.439h-2.121v-2.121l7.439-7.439c.584-.584 1.537-.584 2.121 0s.585 1.536 0 2.121zm-1.061-13.561h-9.382l-4-2h-5.618c-1.378 0-2.5 1.121-2.5 2.5v19.5h10v-1h-9v-14h22v3.274c.348.123.685.277 1 .488v-6.262c0-1.379-1.121-2.5-2.5-2.5zm-20.5 4v-3.5c0-.827.673-1.5 1.5-1.5h5.382l4 2h9.618c.827 0 1.5.673 1.5 1.5v1.5z"/></svg>