<svg id="Layer_1" viewBox="0 0 24 24" xmlns="http://www.w3.org/2000/svg" data-name="Layer 1"><path d="m21 6h-8v-1h8zm-8 3h8v-1h-8zm-8.5-1.5c0-1.378 1.122-2.5 2.5-2.5s2.5 1.122 2.5 2.5-1.122 2.5-2.5 2.5-2.5-1.122-2.5-2.5zm1 0c0 .827.673 1.5 1.5 1.5s1.5-.673 1.5-1.5-.673-1.5-1.5-1.5-1.5.673-1.5 1.5zm16-7.5h-19c-1.378 0-2.5 1.122-2.5 2.5v17.5h12.305c-.099-.32-.174-.654-.227-1h-11.078v-16.5c0-.827.673-1.5 1.5-1.5h19c.827 0 1.5.673 1.5 1.5v8.146c.345.105.697.246 1 .429v-8.575c0-1.378-1.122-2.5-2.5-2.5zm-10.5 15v-2c0-1.103-.897-2-2-2h-4c-1.103 0-2 .897-2 2v2h1v-2c0-.551.449-1 1-1h4c.551 0 1 .449 1 1v2zm13-.472v3.443c-.053 2.654-1.671 4.649-4.809 5.941l-.213.087-.205-.104c-3.117-1.589-4.723-3.579-4.774-5.913v-3.454c0-.864.551-1.626 1.371-1.898l3.629-1.204 3.629 1.203c.82.272 1.371 1.035 1.371 1.898zm-1 0c0-.432-.275-.813-.685-.949l-3.315-1.099-3.315 1.099c-.41.136-.685.517-.685.949v3.443c.041 1.878 1.395 3.539 4.023 4.927 2.632-1.138 3.934-2.754 3.977-4.937v-3.434z"/></svg>