<svg id="Layer_1" viewBox="0 0 24 24" xmlns="http://www.w3.org/2000/svg" data-name="Layer 1"><path d="m19.715.999-.825.827c-1.139 1.087-1.182 3.037-.096 4.174h-2.126l-2.465 5.915-4.772-6.845c-.467-.67-1.233-1.07-2.051-1.07h-4.38v8h-.5c-1.379 0-2.5 1.121-2.5 2.5v4.5h1v1c0 1.654 1.346 3 3 3s3-1.346 3-3v-1h4v1c0 1.654 1.346 3 3 3s3-1.346 3-3v-1h1v-4.5c0-1.379-1.121-2.5-2.5-2.5h-.25l2.083-5h3.667c.814 0 1.626-.339 2.172-.887l.828-.827zm-15.715 4.001h3.379c.49 0 .95.24 1.23.643l4.432 6.357h-9.041zm2 15c0 1.103-.897 2-2 2s-2-.897-2-2v-1h4zm10 0c0 1.103-.897 2-2 2s-2-.897-2-2v-1h4zm-.5-7c.827 0 1.5.673 1.5 1.5v3.5h-16v-3.5c0-.827.673-1.5 1.5-1.5zm6.964-7.593c-.722.724-2.149.724-2.871-.002-.785-.753-.786-2.119.003-2.871l.119-.12 2.871 2.872z"/></svg>