<svg id="Layer_1" viewBox="0 0 24 24" xmlns="http://www.w3.org/2000/svg" data-name="Layer 1"><path d="m20 14h-11v-6.5c0-.827.673-1.5 1.5-1.5h2.774l.569-1h-3.343c-1.379 0-2.5 1.122-2.5 2.5v6.5h-1.5c-1.379 0-2.5 1.122-2.5 2.5v2c0 .827-.673 1.5-1.5 1.5s-1.5-.673-1.5-1.5v-10.5h1.5c.827 0 1.5-.673 1.5-1.5v-3.793l1.854-1.854-.707-.707-4.708 4.708c-.283.283-.439.66-.439 1.06v12.586c0 1.378 1.121 2.5 2.5 2.5s2.5-1.122 2.5-2.5v-2c0-.827.673-1.5 1.5-1.5h1.5v9h13v-11.923l-1-.429zm-18.854-8.439 1.854-1.854v2.793c0 .276-.225.5-.5.5h-1.5v-1.086c0-.131.054-.26.146-.354zm7.854 17.439v-8h11v8zm14.824-14.539-4.826-8.461-4.826 8.462c-.23.408-.231.916.006 1.345.205.334.646.7 1.181.7.194 0 .402-.048.615-.165l3.017-1.302 2.988 1.28c.418.231.914.229 1.326-.005.317-.179.546-.47.644-.82.098-.351.054-.718-.125-1.035zm-1.011.983c-.108.062-.238.063-.395-.021l-3.429-1.472-3.452 1.492c-.245.131-.412-.015-.495-.14-.061-.109-.06-.243 0-.35l3.956-6.955 3.956 6.954c.047.083.058.181.032.273-.026.093-.087.17-.173.218z"/></svg>