<svg id="Layer_1" viewBox="0 0 24 24" xmlns="http://www.w3.org/2000/svg" data-name="Layer 1"><path d="m15.649 14h-.149v-1h-1v1h-5v-1h-1v1h-.149c-1.042 0-1.984.655-2.347 1.632-1.125 3.036-1.504 5.824-1.504 6.63 0 .958.78 1.738 1.738 1.738 1.427 0 3.664-2.481 4.506-4h2.542c.845 1.546 3.033 4 4.475 4 .958 0 1.738-.78 1.738-1.738 0-.806-.379-3.594-1.504-6.63-.362-.977-1.305-1.632-2.347-1.632zm2.113 9c-.902-.011-3.204-2.386-3.851-4h-3.788c-.652 1.616-2.973 3.989-3.885 4-.407 0-.738-.331-.738-.738 0-.639.342-3.314 1.442-6.282.217-.586.784-.979 1.409-.979h7.298c.625 0 1.192.394 1.409.979 1.1 2.968 1.442 5.644 1.442 6.282 0 .407-.331.738-.738.738zm6.238-10.5c0 2.45-1.234 4.712-3.046 6.098-.079-.344-.167-.697-.264-1.061 1.387-1.213 2.31-3.054 2.31-5.037 0-3.509-2.857-6.422-6.368-6.493l-.355-.007-.11-.339c-.907-2.788-3.485-4.661-6.417-4.661-3.722 0-6.75 3.028-6.75 6.75-.009.908.212 1.831.553 2.691-1.541.798-2.569 2.326-2.553 4.059 0 1.601.853 2.983 2.118 3.774-.086.357-.162.701-.23 1.032-1.711-.932-2.888-2.725-2.888-4.807 0-1.803.87-3.451 2.345-4.483-.229-.743-.345-1.504-.345-2.267 0-4.272 3.477-7.749 7.75-7.749 3.249 0 6.12 2.004 7.252 5.022 3.89.262 6.998 3.545 6.998 7.478z"/></svg>