<svg id="Layer_1" viewBox="0 0 24 24" xmlns="http://www.w3.org/2000/svg" data-name="Layer 1"><path d="m18.323 3.222-1.457-.818v-.403h1.91l.516-2h.427l.516 2h1.899v.401l-1.447.846.582 1.786-.333.232-1.432-1.117-1.438 1.122-.316-.241s.573-1.807.573-1.807zm-8.073 3.806s.316.241.316.241l1.438-1.122 1.432 1.117.333-.232-.582-1.786 1.447-.846v-.401h-1.899l-.516-2h-.427l-.516 2h-1.91v.403l1.457.818-.573 1.806zm-8 2s.316.241.316.241l1.438-1.122 1.432 1.117.333-.232-.582-1.786 1.447-.846v-.401h-1.899l-.516-2h-.427l-.516 2h-1.91v.403l1.457.818-.573 1.806zm19.25-2.028h-4c-1.208 0-2.217.86-2.449 2h-5.551c-1.207 0-2.217.86-2.449 2h-4.551c-1.378 0-2.5 1.122-2.5 2.5v10.5h7.449c-.165-.311-.286-.647-.363-1h-6.086v-9.5c0-.827.673-1.5 1.5-1.5h4.5v10.262c0-.958.319-3.072 1-5.404v-5.357c0-.827.673-1.5 1.5-1.5h5.5v2h1v-2.5c0-.827.673-1.5 1.5-1.5h4c.827 0 1.5.673 1.5 1.5v3.538c.393.323.733.707 1 1.149v-4.688c0-1.378-1.121-2.5-2.5-2.5zm.995 8.632c1.126 3.035 1.505 5.824 1.505 6.63 0 .958-.78 1.738-1.738 1.738-1.44 0-3.629-2.454-4.475-4h-2.542c-.843 1.519-3.08 4-4.507 4-.958 0-1.738-.78-1.738-1.738 0-.806.379-3.594 1.504-6.63.362-.976 1.306-1.632 2.347-1.632h.149v-1h1v1h5v-1h1v1h.148c1.042 0 1.985.656 2.347 1.632zm.505 6.63c0-.639-.342-3.315-1.442-6.282-.217-.586-.783-.979-1.409-.979h-7.297c-.625 0-1.191.394-1.409.979-1.1 2.967-1.442 5.643-1.442 6.282 0 .407.331.738.738.738.912-.012 3.233-2.383 3.885-4h3.787c.649 1.613 2.949 3.99 3.852 4 .407 0 .738-.331.738-.738z"/></svg>