<svg id="Layer_1" viewBox="0 0 24 24" xmlns="http://www.w3.org/2000/svg" data-name="Layer 1"><path d="m9.454 13.568c-.231.266-.433.558-.597.876-.529-.678-.857-1.52-.857-2.444 0-2.206 1.794-4 4-4 1.858 0 3.411 1.279 3.858 3h-1.042c-.414-1.161-1.514-2-2.816-2-1.654 0-3 1.346-3 3 0 .576.171 1.11.454 1.568zm-3.572 3.616-2.723 1.541-1.478-2.61 2.716-1.536c-.242-.861-.421-1.83-.405-2.582-.016-.745.163-1.717.405-2.574l-2.715-1.536 1.478-2.611 2.722 1.541c1.211-1.37 2.827-2.311 4.611-2.688v-3.129h3v3.127c1.786.379 3.401 1.32 4.608 2.688l2.724-1.541 1.479 2.611-2.716 1.536c.14.512.275 1.088.335 1.578h1.011c-.042-.348-.105-.71-.19-1.083l2.922-1.654-2.464-4.352-2.922 1.654c-1.068-1.03-2.364-1.787-3.788-2.209v-3.355h-5v3.355c-1.421.422-2.718 1.179-3.789 2.21l-2.922-1.654-2.462 4.352 2.922 1.654c-.17.746-.253 1.445-.249 2.079-.005.639.079 1.339.249 2.087l-2.923 1.654 2.463 4.351 2.923-1.654c.492.474 1.04.876 1.618 1.229.064-.334.137-.684.221-1.049-.607-.398-1.169-.887-1.66-1.429zm18.118 5.078c0 .958-.78 1.738-1.738 1.738-1.441 0-3.629-2.454-4.475-4h-2.542c-.843 1.519-3.079 4-4.506 4-.958 0-1.738-.78-1.738-1.738 0-.806.379-3.594 1.504-6.63.362-.977 1.305-1.632 2.347-1.632h.149v-1h1v1h5v-1h1v1h.149c1.042 0 1.984.655 2.347 1.632 1.125 3.036 1.504 5.824 1.504 6.63zm-1 0c0-.639-.342-3.314-1.442-6.282-.217-.586-.784-.979-1.409-.979h-7.298c-.625 0-1.192.394-1.409.979-1.1 2.968-1.442 5.644-1.442 6.282 0 .407.331.738.738.738.912-.012 3.233-2.383 3.885-4h3.788c.646 1.614 2.949 3.989 3.851 4 .407 0 .738-.331.738-.738z"/></svg>