<svg id="Layer_1" viewBox="0 0 24 24" xmlns="http://www.w3.org/2000/svg" data-name="Layer 1"><path d="m12 12.804-2.121 2.075c-.567.566-.879 1.32-.879 2.121s.312 1.555.879 2.121c.566.567 1.319.879 2.121.879s1.555-.312 2.121-.879c.567-.566.879-1.32.879-2.121s-.312-1.555-.883-2.125zm1.414 5.61c-.755.756-2.073.756-2.828 0-.378-.378-.586-.88-.586-1.414s.208-1.036.582-1.41l1.418-1.387 1.414 1.383c.378.378.586.88.586 1.414s-.208 1.036-.586 1.414zm4.086-9.414h-.5v-3h-2.572l-1.12-6h-2.615l-1.121 6h-2.572v3h-.5c-1.378 0-2.5 1.122-2.5 2.5v12.5h16v-12.5c0-1.378-1.122-2.5-2.5-2.5zm-5.978-8h.955l.934 5h-2.822l.934-5zm4.478 6v2h-8v-2zm3 16h-14v-11.5c0-.827.673-1.5 1.5-1.5h11c.827 0 1.5.673 1.5 1.5z"/></svg>