<svg id="Layer_1" viewBox="0 0 24 24" xmlns="http://www.w3.org/2000/svg" data-name="Layer 1"><path d="m22.724 7.639c.172.244.276.54.276.861v14.5h-17v-16h4.637l1-1h-9.137c-1.379 0-2.5 1.121-2.5 2.5v15.5h24v-15.5c0-.597-.219-1.138-.569-1.568zm-21.724.861c0-.827.673-1.5 1.5-1.5h2.5v16h-4zm22.268-4.232c.473-.473.732-1.1.732-1.768s-.26-1.296-.732-1.768c-.975-.975-2.561-.975-3.535 0l-7.732 7.732v3.535h3.535l7.732-7.732zm-10.268 6.732v-2.121l7.439-7.44c.584-.585 1.537-.585 2.121 0 .283.283.439.66.439 1.061s-.156.777-.439 1.061l-7.439 7.439zm-4 2h-1v-4h2v1h-1zm-1 4h1v3h3v1h-4zm12 0h1v4h-4v-1h3zm1-4h-1v-2.637l1-1z"/></svg>