<svg id="Layer_1" viewBox="0 0 24 24" xmlns="http://www.w3.org/2000/svg" data-name="Layer 1"><path d="m1 14.535 1-1v10.465h-1zm4 9.465h1v-14.465l-1 1zm4-17.465v10.953c.256-.392.586-.842 1-1.306v-9.647l-.5-.5zm0 17.465h1v-1.349c-.426-.459-.759-.885-1-1.219zm14.729-4.73.119.23c-.662 1.241-2.46 4.418-6.849 4.5-4.372-.102-6.582-4.071-6.858-4.482.666-1.259 2.443-4.43 6.858-4.518 4.19 0 6.21 3.269 6.729 4.27zm-1.014.23c-.605-1.061-2.363-3.5-5.716-3.5-3.335 0-5.089 2.404-5.705 3.477.566.819 2.664 3.523 5.705 3.523 3.348 0 5.109-2.44 5.716-3.5zm-.216-19.5h-5.5v1h5.293l-6.793 6.793-5.999-6-9.443 9.443.707.707 8.736-8.736 6 6 7.5-7.5v5.293h1v-5.5c0-.827-.673-1.5-1.5-1.5zm-1.5 9v4.898c.355.172.689.36 1 .562v-5.46zm-4 1.535v2.465c.345 0 .678.019 1 .052v-3.516l-1 1zm-4-1v4.36c.315-.152.649-.287 1-.406v-2.954zm5.999 9.965c0 1.103-.897 2-2 2s-2-.897-2-2 .897-2 2-2 2 .897 2 2zm-1 0c0-.552-.448-1-1-1s-1 .448-1 1 .448 1 1 1 1-.448 1-1z"/></svg>