<svg id="Layer_1" viewBox="0 0 24 24" xmlns="http://www.w3.org/2000/svg" data-name="Layer 1"><path d="m.128 12c-.081-.417-.128-.834-.128-1.25 0-3.17 2.58-5.75 5.75-5.75s5.75 2.58 5.75 5.75h-1c0-2.619-2.131-4.75-4.75-4.75s-4.75 2.131-4.75 4.75c0 .414.067.831.161 1.25zm7.129.911 2.583 5.167 2.052-3.078h3.107v-1h-3.643l-1.393 2.089-2.583-5.167-2.052 3.078h-5.328v1h5.865l1.393-2.089zm8.006 5.956c-1.995 1.936-4.037 3.408-4.762 3.911-.941-.654-4.094-2.948-6.514-5.777h-1.309c2.937 3.732 7.272 6.62 7.547 6.8l.275.181c.523-.361 2.613-1.674 5.459-4.397 1.647-1.597 2.89-3.128 3.732-4.584h-1.19c-.785 1.233-1.859 2.528-3.238 3.867zm2.737-18.867c-3.309 0-6 2.691-6 6 0 2.416 1.438 4.497 3.5 5.447v-1.143c-1.487-.867-2.5-2.462-2.5-4.304 0-2.757 2.243-5 5-5s5 2.243 5 5c0 1.842-1.013 3.437-2.5 4.304v1.143c2.062-.95 3.5-3.032 3.5-5.447 0-3.309-2.691-6-6-6zm2 6c0 1.103-.897 2-2 2s-2-.897-2-2 .897-2 2-2 2 .897 2 2zm-1 0c0-.551-.448-1-1-1s-1 .449-1 1 .448 1 1 1 1-.449 1-1zm-1.5 3v4h1v-4z"/></svg>