<svg id="Layer_1" viewBox="0 0 24 24" xmlns="http://www.w3.org/2000/svg" data-name="Layer 1"><path d="m18 23c0 .552-.448 1-1 1s-1-.448-1-1 .448-1 1-1 1 .448 1 1zm2 1h3.915l-7-11.972-7 11.972h4.085v-1h-2.345l5.26-8.987 5.26 8.987h-2.175zm-2.5-7h-1v4h1zm-8.5.5c0 1.379-1.121 2.5-2.5 2.5s-2.5-1.121-2.5-2.5c0-1.208.86-2.217 2-2.449v-11.051h1v11.051c1.14.232 2 1.242 2 2.449zm-1 0c0-.827-.673-1.5-1.5-1.5s-1.5.673-1.5 1.5.673 1.5 1.5 1.5 1.5-.673 1.5-1.5zm-2.685 5.377c-2.081-.432-3.767-2.124-4.194-4.21-.426-2.044.298-4.085 1.879-5.406v-8.761c0-1.93 1.57-3.5 3.5-3.5s3.5 1.57 3.5 3.5v8.761c1.025.86 1.712 2.06 1.921 3.36l.717-1.229c-.334-.965-.888-1.851-1.638-2.572v-8.32c0-2.481-2.019-4.5-4.5-4.5s-4.5 2.019-4.5 4.5v8.319c-1.627 1.561-2.32 3.805-1.859 6.049.508 2.472 2.506 4.476 4.972 4.987.459.096.92.143 1.376.143.404 0 .804-.044 1.196-.116l.713-1.223c-.967.354-2.031.436-3.083.218z"/></svg>