<svg id="Layer_1" viewBox="0 0 24 24" xmlns="http://www.w3.org/2000/svg" data-name="Layer 1"><path d="m12 10.405-2.829 2.767c-.755.755-1.171 1.76-1.171 2.828s.416 2.073 1.171 2.828c.756.756 1.76 1.172 2.829 1.172s2.072-.416 2.828-1.172c.756-.755 1.172-1.76 1.172-2.828s-.416-2.073-1.176-2.832zm2.121 7.716c-1.133 1.132-3.11 1.132-4.243 0-.566-.566-.878-1.319-.878-2.121s.312-1.555.875-2.117l2.125-2.079 2.121 2.075c.566.566.879 1.319.879 2.121s-.313 1.555-.879 2.121zm7.379-10.121h-4.467l-.029-3h2.034v-5h-14.038v5h2v3h-4.5c-1.378 0-2.5 1.122-2.5 2.5v13.5h24v-13.5c0-1.378-1.121-2.5-2.5-2.5zm-15.5-7h12.038v3h-12.038zm17 22h-22v-12.5c0-.827.673-1.5 1.5-1.5h5.5v-4h8.004l.039 4h5.457c.827 0 1.5.673 1.5 1.5z"/></svg>