<svg id="Layer_1" viewBox="0 0 24 24" xmlns="http://www.w3.org/2000/svg" data-name="Layer 1"><path d="m15.987 3.005c-1.657 0-3.005 1.348-3.005 3.005s1.348 3.005 3.005 3.005 3.005-1.348 3.005-3.005-1.348-3.005-3.005-3.005zm0 5.008c-1.105 0-2.003-.898-2.003-2.003s.898-2.003 2.003-2.003 2.003.898 2.003 2.003-.898 2.003-2.003 2.003zm0-8.013c-4.418 0-8.012 3.594-8.012 8.013 0 2.029.764 3.879 2.012 5.292l-3.99 3.99-2.599-2.599-.708.708 2.599 2.599-1.969 1.969-2.599-2.599-.708.708 2.599 2.599-2.612 2.612.708.708 9.987-9.987c1.413 1.248 3.263 2.012 5.292 2.012 4.418 0 8.013-3.594 8.013-8.013s-3.594-8.012-8.013-8.012zm-4.006 13.758v-1.238c0-.828.674-1.502 1.502-1.502h5.008c.828 0 1.502.674 1.502 1.502v1.238c-1.137.795-2.517 1.266-4.006 1.266s-2.869-.47-4.006-1.266zm9.014-.848v-.39c0-1.381-1.123-2.504-2.504-2.504h-5.008c-1.381 0-2.504 1.123-2.504 2.504v.39c-1.237-1.265-2.003-2.992-2.003-4.897 0-3.866 3.145-7.011 7.011-7.011s7.011 3.145 7.011 7.011c0 1.905-.766 3.633-2.003 4.897z"/></svg>