<svg id="Layer_1" viewBox="0 0 24 24" xmlns="http://www.w3.org/2000/svg" data-name="Layer 1"><path d="m11.997 14.728c2.567-.905 4.104-2 6.003-3.691v-4.334c-.101-3.469-5.605-6.398-6-6.632-.393.232-5.901 3.164-6 6.632v4.334c1.881 1.677 3.355 2.718 5.997 3.691zm-4.997-8.026c0-2.131 3.406-4.558 5-5.486 1.594.928 5 3.355 5 5.486v3.88c-1.639 1.423-2.861 2.274-4.997 3.077-2.215-.861-3.384-1.671-5.003-3.077zm9-.702h-8v2.559l4 2 4-2zm-1 1.941-3 1.5-3-1.5v-.941h6zm3 6.059h-.192c-1.758 1.625-4.07 3.016-5.808 3.483-1.738-.468-4.05-1.858-5.808-3.483h-.192c-.06 0-6 .074-6 6.5v.5h1v3h1v-3h3v3h1v-5.352c1.706 1.242 3.618 2.182 5.5 2.71v2.642h1v-2.642c1.882-.529 3.794-1.469 5.5-2.71v5.352h1v-3h3v3h1v-3h1v-.5c0-6.426-5.94-6.5-6-6.5zm-13 6h-3.986c.205-3.537 2.588-4.57 3.986-4.872zm13-2.62c-1.822 1.45-3.936 2.545-6 3.085-2.064-.54-4.178-1.635-6-3.085v-2.22c1.934 1.654 4.137 2.908 6 3.355 1.862-.448 4.067-1.702 6-3.355zm1 2.62v-4.877c1.398.297 3.781 1.324 3.986 4.877z"/></svg>