<svg id="Layer_1" viewBox="0 0 24 24" xmlns="http://www.w3.org/2000/svg" data-name="Layer 1"><path d="m22.639 18.609c-.577.928-1.763 1.374-3.333 1.374-.434 0-.907-.047-1.396-.114.097-.306.188-.619.272-.943 1.819.233 3.124-.067 3.607-.845.887-1.431-.884-4.625-4.85-7.748.032.546.061 1.096.061 1.667 0 6.729-2.196 12-5 12-1.221 0-2.327-1.002-3.187-2.687.319-.092.645-.203.971-.313.675 1.273 1.462 2 2.216 2 1.501 0 3.134-2.851 3.747-7.264-.277.192-.54.389-.834.576-.08-.338-.214-.653-.396-.936.485-.31.94-.625 1.379-.942.067-.775.105-1.587.105-2.434 0-.868-.054-1.679-.128-2.465-.522-.373-1.067-.743-1.651-1.106 0 0 0 0-.001 0-.766-.476-1.509-.877-2.239-1.246-.716.367-1.45.78-2.198 1.244 0 0 0 0-.001.001-.595.369-1.145.746-1.675 1.126-.068.778-.106 1.594-.106 2.446 0 .857.046 1.668.115 2.45.437.312.887.623 1.368.929-.182.283-.316.598-.396.935-5.863-3.693-9.252-8.468-7.728-10.923 0-.001.002-.002.002-.003.736-1.182 2.467-1.573 4.717-1.263-.096.307-.185.622-.269.948-1.815-.232-3.118.069-3.601.846-.887 1.431.891 4.625 4.86 7.748-.031-.549-.07-1.093-.07-1.667 0-6.729 2.196-12 5-12 1.22 0 2.324 1 3.184 2.682-.32.093-.644.196-.973.309-.674-1.267-1.459-1.99-2.211-1.99-1.499 0-3.13 2.843-3.744 7.246.33-.224.649-.451.998-.668 5.964-3.704 11.844-4.667 13.385-2.188s0 0 0 0c.769 1.237.289 3.064-1.124 5.044-.225-.237-.458-.473-.703-.709 1.122-1.613 1.482-2.996.978-3.808-.862-1.386-4.321-1.268-8.689.724.546.29 1.094.593 1.647.937 5.965 3.706 9.432 8.551 7.892 11.031zm-10.639-2.609c-.552 0-1 .448-1 1s.448 1 1 1 1-.448 1-1-.448-1-1-1zm2.434-5.083c-.209-.915-.936-1.642-1.851-1.851-.762-.175-1.541 0-2.14.479-.599.478-.942 1.19-.942 1.955h1c0-.459.206-.887.566-1.174.365-.29.823-.391 1.294-.285.535.122.977.563 1.099 1.099.154.674-.143 1.348-.736 1.676-.766.422-1.223 1.154-1.223 1.96v.225h1v-.225c0-.436.264-.841.706-1.085.988-.545 1.482-1.66 1.228-2.773zm-5.232 7.139c-3.546 1.297-6.242 1.228-6.99.026-.504-.812-.144-2.195.978-3.807-.245-.236-.479-.472-.704-.708-1.413 1.979-1.892 3.805-1.123 5.043.577.929 1.762 1.374 3.333 1.374 1.413 0 3.142-.372 5.016-1.067-.214-.256-.388-.542-.508-.86z"/></svg>