<svg id="Layer_1" viewBox="0 0 24 24" xmlns="http://www.w3.org/2000/svg" data-name="Layer 1"><path d="m5 10v6h7v-1.643l3 2.143v-7l-3 2.143v-1.643zm6 5h-5v-4h5zm3-3.557v3.113l-2.18-1.557 2.18-1.557zm8 7.557v-9.465l-1-1v10.465h-5.707l-1 1h-4.586l-1-1h-5.707v-12h10.464l1-1h-12.464v13h-2v2.5c0 1.379 1.122 2.5 2.5 2.5h19c1.378 0 2.5-1.121 2.5-2.5v-2.5zm1 2.5c0 .827-.673 1.5-1.5 1.5h-19c-.827 0-1.5-.673-1.5-1.5v-1.5h7.293l1 1h5.414l1-1h7.293zm-6.954-14.254 3.247-3.246-3.247-3.246.707-.707 3.247 3.246 3.247-3.246.707.707-3.247 3.246 3.247 3.246-.707.707-3.247-3.246-3.247 3.246z"/></svg>