<svg id="Layer_1" viewBox="0 0 24 24" xmlns="http://www.w3.org/2000/svg" data-name="Layer 1"><path d="m15.805 12.75c.251.177.52.246.772.246.256 0 .495-.071.682-.17.371-.199.76-.625.741-1.206v-9.62c0-1.103-.897-2-2-2h-8c-1.103 0-2 .897-2 2v9h7.173c.067.037 2.608 1.736 2.632 1.75zm-8.805-10.75c0-.551.448-1 1-1h8c.552 0 1 .449 1 1v9.635c.006.186-.191.297-.213.309-.065.035-.238.106-.427-.025-.042-.026-2.955-1.919-2.955-1.919h-6.405zm6.189 5 .363 2h1.016l-1.007-5.538c-.12-.668-.62-1.462-1.555-1.462s-1.442.837-1.546 1.416l-1.027 5.584h1.017l.368-2h2.37zm-1.182-4c.444 0 .559.573.571.638l.429 2.362h-2.004l.442-2.403c.002-.011.133-.597.562-.597zm11.993 12.5v8.5h-24v-8.5c0-1.378 1.121-2.5 2.5-2.5h10.079c.266.176.932.623 1.496 1h-11.575c-.827 0-1.5.673-1.5 1.5v7.5h22v-7.5c0-.827-.673-1.5-1.5-1.5h-2.496c.3-.293.538-.633.707-1h1.789c1.379 0 2.5 1.122 2.5 2.5zm-15.449 2.5h-4.551v1h4.551c.232 1.14 1.242 2 2.449 2 1.379 0 2.5-1.122 2.5-2.5s-1.121-2.5-2.5-2.5c-1.208 0-2.217.86-2.449 2zm3.949.5c0 .827-.673 1.5-1.5 1.5s-1.5-.673-1.5-1.5.673-1.5 1.5-1.5 1.5.673 1.5 1.5zm3.5-.5h4v1h-4z"/></svg>