<svg id="Layer_1" viewBox="0 0 24 24" xmlns="http://www.w3.org/2000/svg" data-name="Layer 1"><path d="m15 5h-6c-1.103 0-2 .897-2 2v7h2.148l-.784 2h1.193l.784-2h3.316l.784 2h1.193l-.784-2h2.149v-7c0-1.103-.897-2-2-2zm1 2v3h-3.5v-4h2.5c.552 0 1 .448 1 1zm-7-1h2.5v4h-3.5v-3c0-.552.448-1 1-1zm-1 7v-2h1v1h1v-1h4v1h1v-1h1v2zm11.07-10.071c-1.889-1.889-4.399-2.929-7.07-2.929s-5.182 1.04-7.071 2.929c-3.899 3.899-3.899 10.243.004 14.146l7.067 6.911 7.07-6.915c3.899-3.899 3.899-10.243 0-14.143zm-.703 13.432-6.367 6.228-6.364-6.224c-3.509-3.51-3.509-9.219 0-12.729 1.7-1.699 3.961-2.636 6.364-2.636s4.663.937 6.363 2.636c3.509 3.51 3.509 9.219.004 12.725z"/></svg>