<svg id="Layer_1" viewBox="0 0 24 24" xmlns="http://www.w3.org/2000/svg" data-name="Layer 1"><path d="m19.07 2.929c-1.889-1.889-4.399-2.929-7.07-2.929s-5.182 1.04-7.071 2.929c-3.899 3.899-3.899 10.243.004 14.146l7.067 6.911 7.071-6.915c3.899-3.899 3.899-10.243 0-14.143zm-.703 13.432-6.368 6.228-6.364-6.224c-3.509-3.51-3.509-9.219 0-12.729 1.7-1.699 3.96-2.636 6.364-2.636s4.663.937 6.363 2.636c3.509 3.51 3.509 9.219.004 12.725zm-2.867-7.36c-.052 0-.101.012-.152.015l-.288-1.069c.084.029.17.053.264.053h.676v-2h-.676c-.292 0-.537.161-.683.391l-.375-1.391h-2.266v1h1.5l.267.99c-.304.25-.596.601-.893 1.01h-1.971c-.204-.634-.814-.999-1.522-1h-1.381v1h1.381c.28 0 .48.104.58.303.101.202.08.465-.05.639l-.261.348c-.353-.184-.744-.289-1.149-.289-1.378 0-2.5 1.121-2.5 2.5s1.122 2.5 2.5 2.5c1.248 0 2.276-.921 2.461-2.118.236-.098.449-.251.605-.459l1.969-2.635c.11-.155.313-.441.53-.693l.318 1.18c-.816.412-1.383 1.249-1.383 2.225 0 1.379 1.121 2.5 2.5 2.5s2.5-1.121 2.5-2.5-1.121-2.5-2.5-2.5zm-7 4c-.827 0-1.5-.673-1.5-1.5s.673-1.5 1.5-1.5c.187 0 .369.036.54.102l-.259.345c-.222.296-.257.686-.092 1.017.166.33.498.536.868.536h.351c-.207.581-.757 1-1.408 1zm2.266-2.177c-.083.11-.214.177-.353.177l-.833.047 1.129-1.506c.122-.162.195-.349.247-.541h1.172zm4.734 2.177c-.827 0-1.5-.673-1.5-1.5 0-.511.258-.963.65-1.234l.368 1.364.008-.002c.057.213.243.372.474.372.276 0 .5-.224.5-.5 0-.045-.014-.086-.026-.128l.008-.002-.366-1.358c.772.061 1.384.701 1.384 1.488 0 .827-.673 1.5-1.5 1.5z"/></svg>