<svg id="Layer_1" viewBox="0 0 24 24" xmlns="http://www.w3.org/2000/svg" data-name="Layer 1"><path d="m19.071 2.929c-1.889-1.889-4.4-2.929-7.071-2.929s-5.183 1.04-7.071 2.929c-3.899 3.899-3.899 10.243.004 14.146l7.067 6.912 7.071-6.916c3.899-3.899 3.899-10.243 0-14.142zm-.703 13.431-6.368 6.229-6.364-6.225c-3.509-3.509-3.509-9.219 0-12.728 1.7-1.7 3.96-2.636 6.364-2.636s4.664.936 6.364 2.636c3.509 3.509 3.509 9.219.004 12.724zm-2.868-7.36c-.144 0-.283.019-.42.042l-1.521-3.042h2.441v-1h-3.5v1.118l.54 1.08-2.209 1.381-1.547-2.579h-1.783v1h1.217l1.266 2.109-.312.195c-.351-.188-.745-.304-1.17-.304-1.378 0-2.5 1.122-2.5 2.5s1.122 2.5 2.5 2.5 2.5-1.122 2.5-2.5c0-.573-.202-1.096-.528-1.518l3.017-1.885.655 1.309c-.687.446-1.144 1.216-1.144 2.094 0 1.378 1.122 2.5 2.5 2.5s2.5-1.122 2.5-2.5-1.122-2.5-2.5-2.5zm-7 4c-.827 0-1.5-.673-1.5-1.5s.673-1.5 1.5-1.5 1.5.673 1.5 1.5-.673 1.5-1.5 1.5zm7 0c-.827 0-1.5-.673-1.5-1.5s.673-1.5 1.5-1.5 1.5.673 1.5 1.5-.673 1.5-1.5 1.5z"/></svg>