<svg id="Layer_1" viewBox="0 0 24 24" xmlns="http://www.w3.org/2000/svg" data-name="Layer 1"><path d="m15 15v-1h1v-1.83c0-.688-.083-1.399-.261-2.163l-1.178-3.505-.003-.009c-.319-.893-1.171-1.493-2.119-1.493h-2.879c-.948 0-1.8.6-2.122 1.502l-1.191 3.552c-.164.716-.247 1.428-.247 2.115v1.83h1v1h2v-1h4v1h2zm-6.617-8.17c.178-.497.65-.83 1.178-.83h2.879c.525 0 .997.332 1.176.826l1.069 3.174h-7.368l1.065-3.17zm-1.383 5.34c0-.387.039-.78.094-1.17h.906v1h1v-1h4v1h1v-1h.904c.057.396.096.788.096 1.17v.83h-8zm15-12.17v2h-3v-2h-1v4.5c0 .827.673 1.5 1.5 1.5h.5v4c0 2.404-.937 4.664-2.633 6.36l-6.367 6.229-6.364-6.225c-3.509-3.509-3.509-9.219 0-12.728 1.7-1.7 3.96-2.636 6.364-2.636 1.807 0 3.533.529 5 1.514v-1.166c-1.505-.873-3.214-1.348-5-1.348-2.671 0-5.183 1.04-7.071 2.929-3.899 3.899-3.899 10.243.004 14.146l7.067 6.912 7.07-6.916c1.89-1.889 2.93-4.4 2.93-7.071v-4h.5c.827 0 1.5-.673 1.5-1.5v-4.5zm0 4.5c0 .276-.225.5-.5.5h-2c-.275 0-.5-.224-.5-.5v-1.5h3z"/></svg>