<svg id="Layer_1" viewBox="0 0 24 24" xmlns="http://www.w3.org/2000/svg" data-name="Layer 1"><path d="m9.018 6.136c-.005.122-.018.241-.018.364 0 .227.016.451.034.674-1.179.405-2.034 1.512-2.034 2.826 0 1.654 1.346 3 3 3 .566 0 1.091-.167 1.543-.441.247.243.512.466.788.678-.658.475-1.459.763-2.331.763-2.206 0-4-1.794-4-4 0-1.865 1.289-3.423 3.018-3.864zm8.468 8.863c-.325.485-.7.942-1.122 1.364l-6.364 6.224-6.364-6.224c-1.7-1.7-2.636-3.96-2.636-6.364s.936-4.663 2.636-6.363c1.7-1.699 3.96-2.636 6.364-2.636.328 0 .653.021.975.056.264-.316.556-.608.863-.883-.6-.111-1.214-.173-1.837-.173-2.671 0-5.183 1.04-7.072 2.929s-2.929 4.4-2.929 7.071 1.04 5.183 2.933 7.075l7.067 6.911 7.067-6.911s.003-.003.005-.004c.653-.653 1.197-1.384 1.639-2.167-.396.057-.798.096-1.21.096-.005 0-.009 0-.013 0zm6.513-8.499c0 3.584-2.916 6.5-6.5 6.5s-6.5-2.916-6.5-6.5 2.917-6.5 6.501-6.5 6.5 2.916 6.5 6.5zm-1 0c0-3.032-2.467-5.5-5.5-5.5s-5.5 2.468-5.5 5.5 2.467 5.5 5.5 5.5 5.5-2.468 5.5-5.5zm-5-4.5h-1v6h1zm-.5 7c-.552 0-1 .448-1 1s.448 1 1 1 1-.448 1-1-.448-1-1-1z"/></svg>