<svg id="Layer_1" viewBox="0 0 24 24" xmlns="http://www.w3.org/2000/svg" data-name="Layer 1"><path d="m12.5 5h-3.5v11h1v-4h2.5c1.93 0 3.5-1.57 3.5-3.5s-1.57-3.5-3.5-3.5zm0 6h-2.5v-5h2.5c1.378 0 2.5 1.121 2.5 2.5s-1.122 2.5-2.5 2.5zm6.571-8.071c-1.889-1.889-4.4-2.929-7.071-2.929s-5.182 1.04-7.071 2.929c-3.899 3.899-3.899 10.243.004 14.146l7.067 6.911 7.071-6.915c3.899-3.899 3.899-10.243 0-14.143zm-.703 13.432-6.368 6.228-6.364-6.224c-3.509-3.51-3.509-9.219 0-12.729 1.7-1.699 3.96-2.636 6.364-2.636s4.664.937 6.364 2.636c3.509 3.51 3.509 9.219.004 12.725z"/></svg>