<svg id="Layer_1" viewBox="0 0 24 24" xmlns="http://www.w3.org/2000/svg" data-name="Layer 1"><path d="m16.275 16-1.888 6h1.049l.315-1h1.896l.308 1h1.046l-1.847-6zm-.21 4 .644-2.045.63 2.045zm5.435-6h-7c-1.378 0-2.5 1.122-2.5 2.5v1.5h-5v-2.071c.86-.224 1.5-1 1.5-1.929 0-1.103-.897-2-2-2s-2 .897-2 2c0 .929.64 1.705 1.5 1.929v3.071h6v2.5c0 1.378 1.122 2.5 2.5 2.5h7c1.378 0 2.5-1.122 2.5-2.5v-5c0-1.378-1.122-2.5-2.5-2.5zm-16 0c0-.551.449-1 1-1s1 .449 1 1-.449 1-1 1-1-.449-1-1zm17.5 7.5c0 .827-.673 1.5-1.5 1.5h-7c-.827 0-1.5-.673-1.5-1.5v-5c0-.827.673-1.5 1.5-1.5h7c.827 0 1.5.673 1.5 1.5zm-3-5.5h1v6h-1zm-17.5 7c-.827 0-1.5-.673-1.5-1.5v-12.5h18v3h1v-4h-3v-1c0-3.86-3.14-7-7-7s-7 3.14-7 7v1h-3v13.5c0 1.378 1.122 2.5 2.5 2.5h8.056c-.181-.311-.322-.646-.419-1zm1.5-16c0-3.309 2.691-6 6-6s6 2.691 6 6v1h-12z"/></svg>