<svg id="Layer_1" viewBox="0 0 24 24" xmlns="http://www.w3.org/2000/svg" data-name="Layer 1"><path d="m23.18 4.302c-.724-.725-1.767-.963-2.749-.733.231-.984-.008-2.025-.733-2.749-.566-.566-1.336-.859-2.169-.816-.815.039-1.594.391-2.194.99-2.254 2.41-1.013 8.118-.943 8.614 1.469.393 7.075.898 8.614-.943.6-.599.951-1.379.99-2.194.04-.833-.25-1.603-.816-2.169zm-.881 3.656c-1.392 1.391-5.282 1.084-7.05.794-.292-1.766-.599-5.657.794-7.05.423-.423.968-.671 1.534-.698.549-.035 1.05.16 1.415.524.364.364.55.867.524 1.415-.027.566-.275 1.111-.698 1.534l-.171.171.707.707.171-.171c.423-.423.968-.671 1.534-.698.558-.034 1.05.16 1.415.524.364.364.55.866.524 1.415-.027.566-.275 1.11-.698 1.534zm-13.613 10.412c-.843.843-2.213.843-3.056 0s-.842-2.214 0-3.056l5.443-5.443-3.505-3.505-5.487 5.487c-2.775 2.775-2.775 7.291 0 10.067 1.388 1.388 3.211 2.081 5.033 2.081s3.646-.694 5.033-2.081l5.487-5.487-3.505-3.505-5.443 5.443zm.974-8.5-1.139 1.139-2.091-2.091 1.139-1.139zm1.781 11.342c-2.386 2.385-6.267 2.386-8.652 0-2.385-2.386-2.385-6.267 0-8.652l2.933-2.933 2.091 2.091-2.89 2.89c-1.233 1.233-1.233 3.238 0 4.47s3.238 1.233 4.47 0l2.89-2.89 2.091 2.091zm3.641-3.641-2.091-2.091 1.139-1.139 2.091 2.091z"/></svg>