<svg id="Layer_1" viewBox="0 0 24 24" xmlns="http://www.w3.org/2000/svg" data-name="Layer 1"><path d="m7 6c0 .552-.448 1-1 1s-1-.448-1-1 .448-1 1-1 1 .448 1 1zm1.504 2c-.966 0-1.5.354-1.5.792s.534 1.208 1.5 1.208 1.5-.771 1.5-1.208-.534-.792-1.5-.792zm2.496-3c-.552 0-1 .448-1 1s.448 1 1 1 1-.448 1-1-.448-1-1-1zm13 .5v2c0 4.922-2.674 9.416-7 11.799v4.701h-1v-5.303l.269-.141c4.152-2.17 6.731-6.407 6.731-11.057v-2c0-.276-.224-.5-.5-.5s-.5.224-.5.5v.5c0 4.935-2.491 8-6.5 8h-5.278c.172.295.278.634.278 1 0 1.103-.897 2-2 2s-2-.897-2-2c0-.366.106-.705.278-1h-1.278c-2.576 0-4.5 2.64-4.5 5v5h-1v-5c0-2.661 1.784-5.045 4.072-5.77-1.879-.984-3.068-2.834-3.068-5.104.084-3.28.485-5.014.91-6.849l.273-1.195 2.858 1.645c2.103-.95 4.807-.95 6.909 0l2.858-1.645.273 1.191c.425 1.836.827 3.57.911 6.841 0 2.11-1.018 3.858-2.66 4.887h2.164c3.444 0 5.5-2.617 5.5-7v-.5c0-.827.673-1.5 1.5-1.5s1.5.673 1.5 1.5zm-14.5 9.5c0-.551-.449-1-1-1s-1 .449-1 1 .449 1 1 1 1-.449 1-1zm5.496-6.874c-.08-3.083-.454-4.764-.856-6.504l-2.146 1.234-.24-.119c-1.944-.964-4.565-.964-6.51 0l-.24.119-2.144-1.234c-.403 1.741-.777 3.421-.856 6.517 0 2.812 2.243 4.861 5.333 4.861h2.326c3.09 0 5.333-2.05 5.333-4.874z"/></svg>