<svg id="Layer_1" viewBox="0 0 24 24" xmlns="http://www.w3.org/2000/svg" data-name="Layer 1"><path d="m24 10.127c0-5.584-4.486-10.127-10-10.127s-10 4.543-10 10.127c0 .309.018.597.051.865-2.456 1.847-4.051 4.806-4.051 8.135 0 4.781 4.169 4.839 6.661 4.873h7.216c3.027-.094 6.123-.746 6.123-4.873 0-1.498-.323-2.921-.902-4.202 2.394-.232 4.902-1.099 4.902-4.798zm-10.139 12.873h-7.19c-3.678-.051-5.671-.684-5.671-3.873 0-5.032 4.038-9.127 9-9.127s9 4.095 9 9.127c0 3.092-1.972 3.774-5.139 3.873zm4.737-9.037c-1.745-2.969-4.946-4.963-8.599-4.963-1.819 0-3.525.494-4.996 1.357-.003-.075-.004-.152-.004-.23.001-5.032 4.039-9.127 9.001-9.127s9 4.095 9 9.127c0 2.498-1.277 3.615-4.401 3.836zm-8.56-.963c-3.645 0-6.5 2.781-6.5 6.331v.412l.404.079c.425.082 1.042.178 2.057.178h8.001c.95 0 1.727-.087 2.136-.169l.402-.092v-.41c0-3.549-2.854-6.329-6.5-6.329zm3.961 6h-7.999c-.635 0-1.096-.04-1.445-.089.213-2.786 2.545-4.911 5.484-4.911s5.267 2.122 5.483 4.915c-.383.046-.913.085-1.521.085z"/></svg>