<svg id="Layer_1" viewBox="0 0 24 24" xmlns="http://www.w3.org/2000/svg" data-name="Layer 1"><path d="m17.5-.003c-3.584 0-6.5 2.916-6.5 6.501s2.916 6.501 6.5 6.501 6.5-2.916 6.5-6.501-2.916-6.501-6.5-6.501zm0 12.001c-3.032 0-5.5-2.468-5.5-5.501s2.468-5.5 5.5-5.5 5.5 2.468 5.5 5.501-2.468 5.501-5.5 5.501zm2.5-7.215v.214h-1v-.214c0-.543-.463-.786-.921-.786h-1.158c-.508 0-.921.413-.921.921 0 .452.323.835.77.909l1.649.359c.906.15 1.581.947 1.581 1.89.003 1.089-.914 1.963-2 1.921v1h-1v-1c-1.114.039-2.006-.739-2-1.786v-.214h1v.214c0 .543.463.786.921.786h1.158c.508 0 .921-.413.921-.921 0-.452-.323-.835-.77-.909l-1.649-.359c-.906-.15-1.581-.947-1.581-1.89-.003-1.089.914-1.963 2-1.921v-1h1v1c1.114-.039 2.006.739 2 1.786zm-11.312 13.583c-.817.817-2.24.816-3.056 0-.408-.408-.633-.951-.633-1.528s.225-1.12.633-1.528l4.942-4.944-3.504-3.505-4.986 4.987c-1.345 1.344-2.085 3.132-2.085 5.033s.74 3.689 2.085 5.033c1.388 1.387 3.21 2.081 5.032 2.081s3.645-.694 5.032-2.081l4.986-4.987-3.504-3.505-4.943 4.944zm.473-7.999-1.139 1.139-2.09-2.091 1.139-1.139zm2.281 10.841c-2.385 2.385-6.266 2.385-8.65 0-1.155-1.156-1.792-2.692-1.792-4.326s.637-3.171 1.792-4.326l2.433-2.433 2.09 2.091-2.39 2.39c-1.232 1.233-1.232 3.238 0 4.47 1.231 1.231 3.236 1.233 4.47 0l2.39-2.39 2.09 2.091-2.434 2.434zm3.141-3.141-2.09-2.091 1.139-1.139 2.09 2.091z"/></svg>