<?xml version="1.0" encoding="UTF-8"?>
<svg xmlns="http://www.w3.org/2000/svg" id="Layer_1" data-name="Layer 1" viewBox="0 0 24 24">
  <path d="m23.097.576c-.574-.477-1.33-.671-2.057-.533l-12.001,2.25c-1.182.222-2.039,1.255-2.039,2.457v12.632c-.734-.84-1.799-1.382-3-1.382-2.206,0-4,1.794-4,4s1.794,4,4,4,4-1.794,4-4v-11.495l15-2.812v8.69c-.734-.84-1.799-1.382-3-1.382-2.206,0-4,1.794-4,4s1.794,4,4,4,4-1.794,4-4V2.5c0-.746-.329-1.447-.903-1.924ZM4,23c-1.654,0-3-1.346-3-3s1.346-3,3-3,3,1.346,3,3-1.346,3-3,3Zm16-3c-1.654,0-3-1.346-3-3s1.346-3,3-3,3,1.346,3,3-1.346,3-3,3ZM8,7.488v-2.738c0-.721.515-1.341,1.224-1.475l12-2.25c.44-.077.89.034,1.234.32s.542.707.542,1.154v2.175l-15,2.812Z"/>
</svg>
