<svg id="Layer_1" viewBox="0 0 24 24" xmlns="http://www.w3.org/2000/svg" data-name="Layer 1"><path d="m23 20v.5c0 1.378-1.121 2.5-2.5 2.5s-2.5-1.122-2.5-2.5c0-1.11.456-2.162 1.034-3.494.876-2.019 1.966-4.532 1.966-8.506 0-.401-.028-.788-.077-1.164.948-.834 2.008-1.83 2.158-1.979 1.224-1.224 1.224-3.214 0-4.438-1.185-1.186-3.252-1.187-4.438 0-.135.135-.54.602-1.135 1.302-.992-.558-4.415-2.222-10.008-2.222-3.024.001-7.188.994-7.364 1.036l.233.973c.042-.01 4.226-1.008 7.13-1.008 5.018 0 8.245 1.426 9.342 2.001-.086.087-.155.184-.227.279-4.936 5.905-15.773 18.981-16.57 20.054l.633.649c1.243-1.023 14.521-11.887 19.301-15.844.005.121.021.235.021.36 0 3.767-1.044 6.174-1.883 8.108-.6 1.381-1.117 2.575-1.117 3.892 0 1.93 1.57 3.5 3.5 3.5s3.5-1.57 3.5-3.5v-.5h-1zm-3.65-18.374c.404-.404.941-.626 1.512-.626s1.108.222 1.513.626c.834.833.834 2.19 0 3.024-.118.118-.891.843-1.681 1.553-.209-.739-.52-1.412-.933-2.003-.199.235-.424.501-.673.797.33.528.565 1.131.717 1.792-.727.362-1.632.25-2.239-.356-.659-.659-.743-1.677-.255-2.429 1.103-1.313 1.855-2.195 2.038-2.377zm-6.6 11.174c-2.931 2.399-6.109 5.003-8.508 6.969 3.912-4.744 8.672-10.503 11.802-14.251.093.594.36 1.165.816 1.622.49.49 1.114.758 1.755.829z"/></svg>