<svg id="Layer_1" viewBox="0 0 24 24" xmlns="http://www.w3.org/2000/svg" data-name="Layer 1"><path d="m15.689 9-.458-2h.27c1.93 0 3.5-1.57 3.5-3.5s-1.57-3.5-3.5-3.5h-7c-1.93 0-3.5 1.57-3.5 3.5s1.57 3.5 3.5 3.5h.27l-.458 2h-7.813v12.5c0 1.378 1.122 2.5 2.5 2.5h18.5c1.379 0 2.5-1.122 2.5-2.5v-12.5zm-7.189-3c-1.378 0-2.5-1.122-2.5-2.5s1.122-2.5 2.5-2.5h7c1.379 0 2.5 1.122 2.5 2.5s-1.121 2.5-2.5 2.5h-1.525l.688 3h-5.326l.688-3h-1.524zm6.392 4 2.981 13h-11.745l2.98-13zm-13.392 11.5v-11.5h6.582l-2.98 13h-2.102c-.827 0-1.5-.673-1.5-1.5zm21.5 0c0 .827-.673 1.5-1.5 1.5h-2.602l-2.98-13h7.082z"/></svg>