<svg id="Layer_1" viewBox="0 0 24 24" xmlns="http://www.w3.org/2000/svg" data-name="Layer 1"><path d="m20.148 14h-.148v-1h-1v1h-5v-1h-1v1h-.148c-1.042 0-1.985.656-2.347 1.632-1.126 3.035-1.505 5.824-1.505 6.63 0 .958.78 1.738 1.738 1.738 1.427 0 3.664-2.481 4.507-4h2.542c.846 1.546 3.034 4 4.475 4 .958 0 1.738-.78 1.738-1.738 0-.806-.379-3.595-1.505-6.63-.361-.976-1.305-1.632-2.347-1.632zm2.114 9c-.903-.011-3.202-2.386-3.852-4h-3.787c-.651 1.617-2.973 3.989-3.885 4-.407 0-.738-.331-.738-.738 0-.639.342-3.315 1.442-6.283.217-.585.783-.979 1.409-.979h7.297c.626 0 1.192.394 1.409.979 1.101 2.968 1.442 5.644 1.442 6.283 0 .407-.331.738-.738.738zm-11.262-10.5v-1h-2.978c.186-4.799 2.956-8.861 3.978-10.198 1.022 1.339 3.793 5.396 3.979 10.198h1.001c-.168-4.769-2.666-8.746-3.911-10.446 5.566.539 9.932 5.241 9.932 10.946 0 .337-.02.669-.05.998.335.267.631.579.88.934.103-.63.17-1.273.17-1.931-.001-6.618-5.384-12.001-12.001-12.001s-12 5.383-12 12c0 4.858 2.906 9.041 7.067 10.927-.039-.217-.067-.438-.067-.665 0-.129.009-.289.02-.458-3.429-1.748-5.819-5.243-6.002-9.304h6.006c.059 1.681.394 3.269.877 4.688.158-.564.345-1.145.547-1.727-.234-.94-.39-1.933-.431-2.96h2.982zm-.07-11.446c-1.248 1.697-3.741 5.675-3.909 10.446h-5.996c.248-5.475 4.505-9.922 9.905-10.446z"/></svg>