<svg id="Layer_1" viewBox="0 0 24 24" xmlns="http://www.w3.org/2000/svg" data-name="Layer 1"><path d="m21.5 0h-7.5c-.821 0-1.544.403-2 1.015-.456-.613-1.179-1.015-2-1.015h-7.5c-1.378 0-2.5 1.122-2.5 2.5v17.5h3v3.961l2.5-2.284 2.5 2.284v-3.961h16v-17.5c0-1.378-1.122-2.5-2.5-2.5zm-14.5 21.693-1.5-1.37-1.5 1.37v-1.693h3zm4.5-2.693h-10.5v-16.5c0-.827.673-1.5 1.5-1.5h7.5c.827 0 1.5.673 1.5 1.5zm1-16.5c0-.827.673-1.5 1.5-1.5h5v18h-6.5zm10.5 16.5h-3v-18h1.5c.827 0 1.5.673 1.5 1.5zm-20-15h6v1h-6zm0 3h6v1h-6zm0 3h6v1h-6zm0 3h6v1h-6z"/></svg>