<svg id="Layer_1" viewBox="0 0 24 24" xmlns="http://www.w3.org/2000/svg" data-name="Layer 1"><path d="m9.932 15c.713 0 1.423-.172 2.068-.5.646.328 1.355.5 2.068.5 2.903 0 4.932-2.277 4.932-5.538 0-2.628-1.6-4.756-3.8-5.311.157-.109.321-.208.461-.341 1.053-.997 1.261-2.454 1.309-3.251l.033-.557-.556.027c-.855.04-2.421.23-3.489 1.242-.381.36-.65.758-.846 1.17-.224-.783-.537-1.578-.951-2.368l-.887.465c.614 1.171 1.002 2.348 1.152 3.46h-1.495c-2.766 0-4.932 2.399-4.932 5.462 0 3.825 2.477 5.538 4.932 5.538zm3.714-13.001c.64-.605 1.568-.85 2.29-.946-.106.647-.361 1.463-.962 2.031-.663.618-1.582.875-2.298.916.126-.724.371-1.435.97-2.001zm-3.714 3.001h4.137c2.241 0 3.932 1.918 3.932 4.462 0 2.715-1.58 4.538-3.932 4.538-.734.01-1.442-.246-2.068-.649-.626.403-1.334.659-2.068.649-2.389 0-3.932-1.781-3.932-4.538 0-2.502 1.727-4.462 3.932-4.462zm14.068 2.588v14.235l-12 2.177-12-2.177v-14.235c0-.771.339-1.495.931-1.988.591-.494 1.363-.7 2.124-.561l1.126.205c-.184.293-.342.606-.486.929l-.82-.149c-.463-.086-.94.041-1.304.344s-.571.748-.571 1.221v13.401l10.5 1.909v-5.898h1v5.898l10.5-1.909v-13.402c0-.473-.208-.918-.571-1.221s-.841-.432-1.304-.344l-.82.149c-.144-.322-.303-.635-.486-.929l1.126-.205c.759-.14 1.532.066 2.124.561.592.493.931 1.218.931 1.988z"/></svg>