<svg id="Layer_1" viewBox="0 0 24 24" xmlns="http://www.w3.org/2000/svg" data-name="Layer 1"><path d="m11 5c0-.552.448-1 1-1 .086 0 .164.029.244.049l1.403-1.403.707.707-1.403 1.403c.021.08.049.157.049.244 0 .552-.448 1-1 1s-1-.448-1-1zm12.83 9.519c-.299.824-.992 1.415-1.83 1.644l-.008 4.494-9.996 3.331-9.996-3.331.008-4.487c-.845-.228-1.55-.818-1.85-1.65-.277-.753-.2-1.577.211-2.26l2.025-3.169 3.305-1.058c.149.308.312.608.503.889l-2.011.644 7.803 2.61 7.922-2.65-2.067-.686c.186-.283.348-.581.492-.89l3.216 1.067 2.06 3.243c.412.683.489 1.506.212 2.259zm-21.727.628 5.314 1.771c.694.231 1.499-.072 1.87-.691l1.95-3.251-8.354-2.793-1.658 2.594c-.254.421-.302.931-.13 1.396.171.463.539.818 1.007.974zm9.397-.664-1.355 2.258c-.464.776-1.319 1.258-2.23 1.258-.277 0-.552-.045-.814-.133l-4.093-1.364-.006 3.433 8.496 2.832.003-8.284zm9.5 2.013-4.113 1.371c-.262.088-.536.133-.813.133-.911 0-1.766-.482-2.231-1.258l-1.342-2.237-.003 8.263 8.496-2.832.006-3.439zm1.762-3.72s-1.65-2.596-1.65-2.596l-8.362 2.797 1.95 3.25c.371.62 1.176.922 1.869.691l5.315-1.771c.469-.156.836-.512 1.008-.976.171-.465.124-.974-.13-1.396zm-15.762-7.776c0-2.757 2.243-5 5-5s5 2.243 5 5c.014 1.826-1.012 3.473-2.572 4.395l-1.162-1.395h-2.608l-1.135 1.362c-1.527-.93-2.537-2.564-2.522-4.362zm1 0c0 1.15.5 2.24 1.358 2.997l.83-.997h3.546l.866 1.039c.884-.756 1.4-1.863 1.4-3.039 0-2.206-1.794-4-4-4s-4 1.794-4 4z"/></svg>