<svg id="Layer_1" viewBox="0 0 24 24" xmlns="http://www.w3.org/2000/svg" data-name="Layer 1"><path d="m23.618 12.26h-.002s-.002-.006-.004-.01l-2.054-3.233-3.216-1.067c-.144.309-.306.608-.492.89l2.067.686-7.922 2.65-7.803-2.61 2.011-.644c-.19-.281-.354-.581-.503-.889l-3.305 1.058-2.02 3.159s-.002.008-.005.012h-.002c-.23.38-.369.817-.369 1.238 0 .342.035.688.157 1.021.278.75.872 1.324 1.629 1.576l.221.074-.008 4.487 9.997 3.332 9.996-3.332.008-4.494.199-.066c.758-.252 1.352-.826 1.63-1.577.104-.282.17-.573.17-.864 0-.562-.125-.968-.382-1.395zm-22.523 1.914c-.172-.467-.124-.975.13-1.397l1.658-2.594 8.354 2.794-1.95 3.251c-.371.617-1.168.924-1.87.69l-5.314-1.771c-.468-.155-.836-.511-1.007-.974zm1.905 2.33 4.102 1.365c.264.088.538.132.812.132.911 0 1.766-.481 2.23-1.258l1.358-2.258-.003 8.284-8.506-2.831.006-3.433zm18 3.433-8.503 2.831.003-8.264 1.342 2.238c.464.776 1.319 1.258 2.23 1.258.275 0 .548-.044.813-.132l4.121-1.371zm1.892-5.764c-.172.464-.54.819-1.008.975l-5.313 1.771c-.707.233-1.5-.072-1.871-.69l-1.95-3.251 8.362-2.797 1.65 2.596c.254.421.302.93.13 1.396zm-10.892-4.173c2.757 0 5-2.243 5-5s-2.243-5-5-5-5 2.243-5 5 2.243 5 5 5zm0-9c2.206 0 4 1.794 4 4s-1.794 4-4 4-4-1.794-4-4 1.794-4 4-4zm-1.27 5.658-1.602-1.544.694-.72 1.608 1.551c.071.071.177.071.242.006l2.518-2.461.699.715-2.514 2.457c-.216.216-.509.338-.821.338s-.605-.122-.825-.342z"/></svg>