<svg id="Layer_1" viewBox="0 0 24 24" xmlns="http://www.w3.org/2000/svg" data-name="Layer 1"><path d="m23.181 11.655c1.013.923 1.094 2.506.182 3.527l-7.857 8.818h-1.339l8.449-9.484c.549-.615.5-1.567-.109-2.122-.298-.272-.685-.411-1.088-.393-.403.019-.774.194-1.046.492l-4.51 4.956c-.305.936-1.116 1.663-2.131 1.808l-5.668.738-.129-.991 5.661-.737c.797-.114 1.403-.813 1.403-1.625 0-.905-.737-1.642-1.643-1.642h-10.856c-.827 0-1.5.673-1.5 1.5v7.5h-1v-7.5c0-1.378 1.122-2.5 2.5-2.5h10.857c1.21 0 2.221.822 2.534 1.933l3.742-4.112c.451-.496 1.069-.787 1.739-.818.668-.023 1.312.201 1.809.652zm-7.681-2.155 2 1-2 1-1 2-1-2-2-1 2-1 1-2zm-.236 1-.51-.255-.254-.509-.254.509-.51.255.51.255.254.509.254-.509zm3.236-9.5c.827 0 1.5.673 1.5 1.5v4.104l-2.28-2.224-.699.715 2.607 2.544c.232.233.542.362.872.362s.64-.128.868-.357l2.606-2.543-.699-.715-2.275 2.22v-4.106c0-1.378-1.121-2.5-2.5-2.5h-7.221c.345.304.657.641.943 1zm-18.5 5c0-3.309 2.691-6 6-6s6 2.691 6 6-2.691 6-6 6-6-2.691-6-6zm1 0c0 2.757 2.243 5 5 5s5-2.243 5-5-2.243-5-5-5-5 2.243-5 5zm3.989 3h.511v1h1v-1h.55c.865 0 1.569-.722 1.569-1.608 0-.712-.466-1.347-1.154-1.551l-2.574-.646c-.246-.073-.417-.314-.417-.586 0-.335.255-.608.569-.608h1.976c.313 0 .569.273.569.608v.163h1v-.163c0-.887-.704-1.608-1.569-1.608h-.518v-1h-1v1h-.458c-.865 0-1.569.722-1.569 1.608 0 .712.466 1.347 1.154 1.551l2.574.646c.246.073.417.314.417.586 0 .335-.255.608-.569.608h-2.061c-.313 0-.569-.273-.569-.608v-.142h-1v.142c0 .887.704 1.608 1.569 1.608z"/></svg>