<svg id="Layer_1" viewBox="0 0 24 24" xmlns="http://www.w3.org/2000/svg" data-name="Layer 1"><path d="m24 3.985c0-1.103-.897-2-2-2h-6c-1.103 0-2 .897-2 2v9.407l-3.193 2.939c-.513.472-.807 1.142-.807 1.839v5.814h1v-5.814c0-.418.177-.821.484-1.104l4.021-3.7c.298-.267.686-.4 1.08-.38.398.022.766.198 1.032.496.494.551.508 1.394.056 1.934l-3.075 3.179.719.695 3.099-3.206c.273-.325.442-.705.523-1.101h3.061v3.731c0 .371-.137.729-.387 1.006l-3.729 4.263h1.343l3.128-3.593c.416-.462.645-1.058.645-1.676v-3.731h1zm-5.055 10c-.085-.424-.279-.83-.583-1.169-.872-.973-2.334-1.089-3.362-.311v-8.52c0-.551.448-1 1-1h4v11zm4.055 0h-2v-11h1c.552 0 1 .449 1 1zm-22-9.272v5.941c0 2.329 1.124 4.555 3.341 6.616 1.28 1.19 2.653 2.071 3.659 2.636v1.139c-1.066-.562-2.768-1.58-4.341-3.042-2.428-2.259-3.659-4.731-3.659-7.349v-5.941c0-1.028.656-1.936 1.634-2.259l7.352-2.439 4.027 1.336c-.229.26-.424.548-.58.861l-3.446-1.143-7.039 2.334c-.567.188-.948.714-.948 1.31z"/></svg>