<svg id="Layer_1" viewBox="0 0 24 24" xmlns="http://www.w3.org/2000/svg" data-name="Layer 1"><path d="m24 7c0-3.86-3.14-7-7-7s-7 3.14-7 7 3.14 7 7 7 7-3.14 7-7zm-13 0c0-3.309 2.691-6 6-6s6 2.691 6 6-2.691 6-6 6-6-2.691-6-6zm5.5 5v-1.5h-.717c-.983 0-1.783-.821-1.783-1.83v-.17h1v.17c0 .458.351.83.783.83h2.473c.432 0 .783-.373.783-.83 0-.371-.235-.7-.572-.799l-3.094-.777c-.779-.23-1.309-.953-1.309-1.764 0-1.009.8-1.83 1.783-1.83h.653v-1.5h1v1.5h.717c.983 0 1.783.821 1.783 1.83v.196h-1v-.196c0-.458-.351-.83-.783-.83h-2.371c-.432 0-.783.373-.783.83 0 .371.235.7.572.799l3.094.777c.779.23 1.309.953 1.309 1.764 0 1.009-.8 1.83-1.783 1.83h-.756v1.5h-1zm-15.5-2h-1v-4.5c0-1.378 1.122-2.5 2.5-2.5h5.191l-2.265-2.265.707-.707 2.439 2.438c.57.57.57 1.498 0 2.067l-2.439 2.438-.707-.707 2.266-2.265h-5.192c-.827 0-1.5.673-1.5 1.5v4.5zm20.508 5.428 2.439 2.438-.707.707-2.266-2.265v5.191c0 1.378-1.122 2.5-2.5 2.5h-4.5v-1h4.5c.827 0 1.5-.673 1.5-1.5v-5.191l-2.265 2.265-.707-.707 2.439-2.438c.57-.571 1.497-.57 2.067 0zm-15.508.572c-1.103 0-2 .897-2 2s.897 2 2 2 2-.897 2-2-.897-2-2-2zm0 3c-.551 0-1-.449-1-1s.449-1 1-1 1 .449 1 1-.449 1-1 1zm4.412-5.334-1.516.892c-.408-.34-.881-.606-1.396-.786v-1.771h-3v1.771c-.515.18-.988.446-1.396.786l-1.516-.892-1.521 2.586 1.527.897c-.064.299-.094.576-.094.85s.03.551.094.85l-1.527.897 1.521 2.586 1.516-.892c.408.34.881.606 1.396.786v1.771h3v-1.771c.515-.18.988-.446 1.396-.786l1.516.892 1.521-2.586-1.527-.897c.064-.299.094-.576.094-.85s-.03-.551-.094-.85l1.527-.897zm-1.169 3.007c.126.418.27.949.257 1.327.013.377-.131.91-.257 1.327l1.32.776-.507.862-1.306-.768c-.574.663-1.368 1.105-2.251 1.274v1.529h-1v-1.529c-.883-.169-1.677-.611-2.251-1.274l-1.306.768-.507-.862 1.32-.776c-.126-.418-.27-.949-.257-1.327-.013-.377.131-.91.257-1.327l-1.32-.776.507-.862 1.306.768c.574-.663 1.369-1.106 2.251-1.274v-1.529h1v1.529c.883.168 1.677.61 2.251 1.274l1.306-.768.507.862z"/></svg>