<svg id="Layer_1" viewBox="0 0 24 24" xmlns="http://www.w3.org/2000/svg" data-name="Layer 1"><path d="m24 1v-1h-24v1h3v16.051c-1.692.245-3 1.691-3 3.449 0 1.93 1.57 3.5 3.5 3.5 1.28 0 2.39-.698 3-1.726.61 1.028 1.72 1.726 3 1.726 1.93 0 3.5-1.57 3.5-3.5 0-1.758-1.308-3.204-3-3.449v-16.051h5.486l3.693 15.263c-1.276.523-2.178 1.775-2.178 3.237 0 1.93 1.57 3.5 3.5 3.5s3.5-1.57 3.5-3.5-1.57-3.5-3.5-3.5c-.119 0-.232.023-.348.035l-3.638-15.035zm-1 18.5c0 1.379-1.121 2.5-2.5 2.5s-2.5-1.121-2.5-2.5 1.121-2.5 2.5-2.5 2.5 1.121 2.5 2.5zm-19.5 3.5c-1.379 0-2.5-1.121-2.5-2.5s1.121-2.5 2.5-2.5 2.5 1.121 2.5 2.5-1.121 2.5-2.5 2.5zm8.5-2.5c0 1.379-1.121 2.5-2.5 2.5s-2.5-1.121-2.5-2.5 1.121-2.5 2.5-2.5 2.5 1.121 2.5 2.5zm-3-3.449c-1.066.155-1.971.785-2.5 1.675-.529-.891-1.434-1.521-2.5-1.675v-16.051h5z"/></svg>