<svg id="Layer_1" viewBox="0 0 24 24" xmlns="http://www.w3.org/2000/svg" data-name="Layer 1"><path d="m22 7c-.929 0-1.705.64-1.929 1.5h-3.071v-5h3.071c.224.86 1 1.5 1.929 1.5 1.103 0 2-.897 2-2s-.897-2-2-2c-.929 0-1.705.64-1.929 1.5h-4.071v3h-3v1h3v3h4.071c.224.86 1 1.5 1.929 1.5 1.103 0 2-.897 2-2s-.897-2-2-2zm0-5c.552 0 1 .448 1 1s-.448 1-1 1-1-.448-1-1 .448-1 1-1zm0 8c-.552 0-1-.448-1-1s.448-1 1-1 1 .448 1 1-.448 1-1 1zm-16-2c1.103 0 2-.897 2-2s-.897-2-2-2-2 .897-2 2 .897 2 2 2zm0-3c.551 0 1 .448 1 1s-.449 1-1 1-1-.448-1-1 .449-1 1-1zm-4.412 5.334 1.516-.892c.408.34.881.606 1.396.786v1.771h3v-1.771c.515-.18.988-.446 1.396-.786l1.516.892 1.521-2.587-1.527-.896c.064-.3.094-.576.094-.851s-.03-.551-.094-.851l1.527-.896-1.521-2.587-1.516.892c-.408-.34-.881-.606-1.396-.786v-1.772h-3v1.771c-.515.18-.988.446-1.396.786l-1.516-.892-1.521 2.588 1.527.896c-.064.3-.094.576-.094.851s.03.551.094.851l-1.527.896zm1.169-3.007c-.126-.418-.27-.95-.257-1.327-.013-.376.131-.91.257-1.327l-1.32-.775.507-.862 1.306.768c.575-.664 1.369-1.104 2.251-1.274v-1.53h1v1.528c.882.17 1.676.611 2.251 1.274l1.306-.768.507.862-1.32.775c.126.418.27.95.257 1.327.013.376-.131.91-.257 1.327l1.32.775-.507.862-1.306-.768c-.575.664-1.369 1.104-2.251 1.274v1.528h-1v-1.528c-.882-.17-1.676-.611-2.251-1.274l-1.306.768-.507-.862 1.32-.775zm20.424 5.327c1.013.923 1.094 2.506.182 3.528l-6.966 7.817h-1.339l7.558-8.483c.549-.615.5-1.567-.109-2.123-.298-.271-.685-.404-1.088-.392-.403.019-.774.193-1.046.492l-4.51 4.957c-.306.936-1.117 1.662-2.131 1.807l-5.667.738-.129-.992 5.661-.737c.798-.113 1.403-.812 1.403-1.624 0-.905-.737-1.643-1.643-1.643h-10.857c-.827 0-1.5.673-1.5 1.5v6.5h-1v-6.5c0-1.379 1.122-2.5 2.5-2.5h10.857c1.21 0 2.221.822 2.533 1.933l3.742-4.112c.451-.496 1.069-.786 1.739-.817.663-.037 1.312.2 1.809.651z"/></svg>