<svg id="Layer_1" viewBox="0 0 24 24" xmlns="http://www.w3.org/2000/svg" data-name="Layer 1"><path d="m10.5 9.5c0 .552-.448 1-1 1s-1-.448-1-1 .448-1 1-1 1 .448 1 1zm13.5 9v.5h-3v-.5c0-2.474-.641-4.348-1.905-5.57-1.362-1.317-3.537-1.961-6.448-1.926-.345.719-.924 1.298-1.643 1.643-.036 2.917.609 5.088 1.924 6.449 1.222 1.264 3.096 1.904 5.572 1.904h.5v3h-.5c-3.32 0-5.92-.949-7.729-2.819-1.882-1.947-2.81-4.819-2.767-8.529-1.035-.494-1.783-1.476-1.954-2.651h-2.055l-2.201-2.201-1.68-6.04 1.646-1.646 6.04 1.68 2.2 2.2v2.056c1.175.17 2.158.919 2.652 1.954 3.729-.035 6.583.888 8.529 2.768 1.871 1.809 2.82 4.408 2.82 7.727zm-19.591-9.5h1.642c.221-1.527 1.423-2.728 2.949-2.949v-1.642l-1.722-1.722-5.224-1.453-.056.056 3.856 3.856-.707.707-3.856-3.855-.056.056 1.453 5.224 1.722 1.722zm5.599 3.949c-.167.025-.334.051-.508.051-.169 0-.33-.027-.492-.05.01 3.295.838 5.835 2.482 7.535 1.523 1.576 3.711 2.418 6.51 2.507v-1c-2.514-.085-4.46-.825-5.791-2.201-1.454-1.504-2.188-3.811-2.202-6.842zm1.992-3.449c0-1.378-1.122-2.5-2.5-2.5s-2.5 1.122-2.5 2.5 1.122 2.5 2.5 2.5 2.5-1.122 2.5-2.5zm10.992 8.5c-.089-2.797-.931-4.985-2.507-6.508-1.7-1.642-4.233-2.484-7.535-2.484.023.162.05.324.05.493 0 .174-.027.341-.051.509 3.027.021 5.336.746 6.842 2.202 1.376 1.331 2.116 3.277 2.201 5.789h1z"/></svg>