<svg id="Layer_1" viewBox="0 0 24 24" xmlns="http://www.w3.org/2000/svg" data-name="Layer 1"><path d="m12 8h-8v-4h8v1h-7v2h7zm-6 2h-2v1h2zm0 3h-2v1h2zm4-3h-2v1h2zm0 3h-2v1h2zm-4 3h-2v1h2zm8 0h-2v1h2zm-4 0h-2v1h2zm-6 4h2v-1h-2zm10-1h-2v1h2zm-6 1h2v-1h-2zm11 0h-1v-4h-1v7h-16v-20.5c0-.827.673-1.5 1.5-1.5h9.641c.092-.356.233-.69.413-1h-10.054c-1.379 0-2.5 1.121-2.5 2.5v21.5h18v-3h2v-5h-1zm5-18v12h-10v-12c0-1.103.897-2 2-2h6c1.103 0 2 .897 2 2zm-1 0c0-.552-.448-1-1-1h-6c-.552 0-1 .448-1 1v11h8zm-5.5 9h3v-1h-3z"/></svg>