<svg id="Layer_1" viewBox="0 0 24 24" xmlns="http://www.w3.org/2000/svg" data-name="Layer 1"><path d="m5 5v2h6v1h-7v-4h7v1zm1 5h-2v1h2zm0 3h-2v1h2zm4-3h-2v1h2zm0 3h-2v1h2zm-4 3h-2v1h2zm8 0h-2v1h2zm-4 0h-2v1h2zm-6 4h2v-1h-2zm8 0h2v-1h-2zm-4 0h2v-1h-2zm11 0h-1v-4h-1v7h-16v-20.5c0-.827.673-1.5 1.5-1.5h11.105c.183-.357.399-.694.652-1h-11.757c-1.378 0-2.5 1.121-2.5 2.5v21.5h18v-3h2v-5h-1zm5-15v6.5c0 1.379-1.122 2.5-2.5 2.5h-6c-1.378 0-2.5-1.121-2.5-2.5v-6.5h2v-1.5c0-1.93 1.57-3.5 3.5-3.5s3.5 1.57 3.5 3.5v1.5zm-8 0h5v-1.5c0-1.379-1.122-2.5-2.5-2.5s-2.5 1.121-2.5 2.5zm7 1h-9v5.5c0 .827.673 1.5 1.5 1.5h6c.827 0 1.5-.673 1.5-1.5zm-4 2.5h-1v2h1z"/></svg>