<svg id="Layer_1" viewBox="0 0 24 24" xmlns="http://www.w3.org/2000/svg" data-name="Layer 1"><path d="m14 8h-10v-4h6.36l1.027 1h-6.387v2h9zm-8 2h-2v1h2zm8 0h-2v1h2zm-8 3h-2v1h2zm8 0h-2v1h2zm-4-3h-2v1h2zm0 3h-2v1h2zm-4 3h-2v1h2zm8 0h-2v1h2zm-4 0h-2v1h2zm-6 4h2v-1h-2zm8 0h2v-1h-2zm-4 0h2v-1h-2zm7.856-13.439c.283.283.66.439 1.061.439s.778-.156 1.058-.437l5.876-5.79-.702-.713-5.879 5.793c-.187.189-.512.194-.711-.005l-3.293-3.207-.697.717 3.288 3.202zm3.144 1.737v11.702h-1v-11.186c-.32.104-.654.17-1 .178v14.008h-16v-20.5c0-.827.673-1.5 1.5-1.5h9.572l.973-1h-10.545c-1.378 0-2.5 1.121-2.5 2.5v21.5h18v-3h2v-13.624c-.243.233-.723.743-1 .922z"/></svg>