<svg id="Layer_1" viewBox="0 0 24 24" xmlns="http://www.w3.org/2000/svg" data-name="Layer 1"><path d="m9 8h-5v-4h5v1h-4v2h4zm-3 2h-2v1h2zm0 3h-2v1h2zm8 0h-2v1h2zm-4-3h-2v1h2zm0 3h-2v1h2zm-4 3h-2v1h2zm6 1h2v-1h-2zm-2-1h-2v1h2zm-6 4h2v-1h-2zm8 0h2v-1h-2zm-2-1h-2v1h2zm9 1h-1v-8h-1v11h-16v-20.5c0-.827.673-1.5 1.5-1.5h6.641c.092-.356.233-.69.413-1h-7.054c-1.379 0-2.5 1.121-2.5 2.5v21.5h18v-3h2v-9h-1zm5-18v8h-13v-8c0-1.103.897-2 2-2h9c1.103 0 2 .897 2 2zm-12 0v1h11v-1c0-.552-.448-1-1-1h-9c-.552 0-1 .448-1 1zm0 2v1h11v-1zm11 5v-3h-11v3z"/></svg>