<svg id="Layer_1" viewBox="0 0 24 24" xmlns="http://www.w3.org/2000/svg" data-name="Layer 1"><path d="m23 9.191v10.809h-4v-6h-14v6h-4v-11.5c0-.827.673-1.5 1.5-1.5h12.309c-.183-.316-.337-.651-.461-1h-8.348v-5h8.809c.208-.359.452-.693.728-1h-10.537v6h-2.5c-1.378 0-2.5 1.122-2.5 2.5v12.5h5v3h14v-3h5v-12.5c0-.011-.005-.021-.005-.032-.306.274-.638.516-.995.723zm-5 13.809h-12v-8h12zm2-15c2.206 0 4-1.794 4-4s-1.794-4-4-4-4 1.794-4 4 1.794 4 4 4zm0-7c1.654 0 3 1.346 3 3s-1.346 3-3 3-3-1.346-3-3 1.346-3 3-3z"/></svg>