<svg id="Layer_1" viewBox="0 0 24 24" xmlns="http://www.w3.org/2000/svg" data-name="Layer 1"><path d="m16 17c-1.102 0-1.999-.896-2-1.999h1c0 .551.448.999 1 .999s.999-.448 1-.999h.5c.168 0 .332-.016.498-.025 0 .008.002.016.002.024 0 1.103-.897 2-2 2zm-4-1.999h-1c0 2.756 2.243 4.999 5 4.999s5-2.243 5-5c0-.249-.038-.487-.073-.727-.312.138-.633.26-.964.361.011.122.037.241.037.366 0 2.206-1.794 4-4 4s-3.999-1.794-4-3.999zm5.5-2h-6.5v-6.5c0-3.584 2.916-6.501 6.5-6.501s6.5 2.916 6.5 6.5-2.916 6.5-6.5 6.5zm-5.5-1h5.5c3.032 0 5.5-2.467 5.5-5.5s-2.468-5.5-5.5-5.5-5.5 2.467-5.5 5.5zm6.5-2.001c0-.552-.448-1-1-1s-1 .448-1 1 .448 1 1 1 1-.448 1-1zm-.64-6.959c.535.122.977.564 1.099 1.099.153.674-.143 1.347-.736 1.675-.766.421-1.223 1.154-1.223 1.96v.225h1v-.225c0-.436.264-.841.705-1.084.989-.545 1.482-1.66 1.229-2.773-.209-.916-.936-1.642-1.851-1.851-.763-.176-1.542 0-2.141.478s-.942 1.19-.942 1.956h1c0-.459.206-.887.565-1.173.365-.292.825-.393 1.295-.286zm5.14 19.959h-22v-14.5c-.014-.8.79-1.493 1.567-1.5h6.433v-1h-5.562l6.865-5.23-.605-.77-8.331 6.321c-.771.426-1.367 1.237-1.367 2.177v15.502h24v-12.033c-.303.36-.641.687-1 .99v10.044zm-14-13h-6v1h6zm0 3h-6v1h6zm0 3h-6v1h6zm-6 4h6v-1h-6z"/></svg>