<svg id="Layer_1" viewBox="0 0 24 24" xmlns="http://www.w3.org/2000/svg" data-name="Layer 1"><path d="m12.5 17.113-1 1.758v-2.871h1zm-11.248 5.887 3.632-20.758c.125-.72.747-1.242 1.478-1.242h11.277c.73 0 1.351.521 1.477 1.24l1.752 10.245 1.455 2.558-2.221-12.976c-.21-1.198-1.246-2.067-2.462-2.067h-11.278c-1.217 0-2.253.87-2.463 2.069l-3.837 21.931h10.311c-.153-.328-.26-.663-.315-1zm21.958.799c-.467.264-1.045.265-1.515.005l-3.704-1.587-3.73 1.61c-.245.134-.483.189-.707.189-.613 0-1.116-.417-1.349-.799-.273-.495-.271-1.06-.005-1.532l5.8-10.197 5.8 10.196c.42.745.155 1.694-.59 2.115zm-.281-1.624-4.929-8.665-4.93 8.667c-.093.164-.093.37 0 .537.079.122.341.439.755.213l4.165-1.8 4.146 1.78c.21.114.417.114.582.02.266-.15.36-.487.211-.753zm-10.429-18.175h-1v4h1zm-1 10h1v-4h-1z"/></svg>