<svg id="Layer_1" viewBox="0 0 24 24" xmlns="http://www.w3.org/2000/svg" data-name="Layer 1"><path d="m12.5 8h-1v-4h1zm11.5 9.5c0 3.584-2.916 6.5-6.5 6.5s-6.5-2.916-6.5-6.5 2.916-6.5 6.5-6.5 6.5 2.916 6.5 6.5zm-1 0c0-3.033-2.467-5.5-5.5-5.5s-5.5 2.467-5.5 5.5 2.467 5.5 5.5 5.5 5.5-2.467 5.5-5.5zm-5-3.5h-1v3.707l2.146 2.146.707-.707-1.854-1.854v-3.293zm-6.5-2.52c.309-.308.647-.586 1-.843v-.637h-1zm-10.248 11.52 3.632-20.758c.125-.72.747-1.242 1.478-1.242h11.277c.73 0 1.351.521 1.477 1.24l1.242 7.263c.378.135.747.291 1.098.477l-1.355-7.913c-.21-1.198-1.246-2.067-2.462-2.067h-11.277c-1.217 0-2.253.87-2.463 2.069l-3.837 21.931h11.966c-.362-.305-.696-.64-1.003-1z"/></svg>