<svg id="Layer_1" viewBox="0 0 24 24" xmlns="http://www.w3.org/2000/svg" data-name="Layer 1"><path d="m6.5 11c-3.584 0-6.5 2.916-6.5 6.5s2.916 6.5 6.5 6.5 6.5-2.916 6.5-6.5-2.916-6.5-6.5-6.5zm0 12c-3.032 0-5.5-2.468-5.5-5.5s2.468-5.5 5.5-5.5 5.5 2.468 5.5 5.5-2.468 5.5-5.5 5.5zm2.5-7.214v.214h-1v-.214c0-.543-.463-.786-.921-.786h-1.158c-.508 0-.921.413-.921.921 0 .452.323.835.77.909l1.649.358c.906.15 1.581.947 1.581 1.891.003 1.089-1 1.921-2 1.921v1h-1v-1c-1 0-2.006-.739-2-1.786v-.214h1v.214c0 .543.463.786.921.786h1.158c.508 0 .921-.413.921-.921 0-.452-.323-.835-.77-.909l-1.649-.358c-.906-.15-1.581-.947-1.581-1.891-.003-1.089 1-1.921 2-1.921v-1h1v1c1 0 2.006.739 2 1.786zm9.553.75 2.366 2.684-.75.662-2.173-2.465c.029 2.433-.735 4.714-2.019 6.583h-1.247c1.428-1.805 2.294-4.101 2.266-6.575l-2.166 2.457-.75-.662 2.369-2.688c.527-.609 1.569-.613 2.103.004zm-13.553-9.42c-1.87.271-3.582 1.031-5 2.153v-1.247c1.46-1.005 3.163-1.676 5-1.918v1.011zm16 1.884h-1v-6h1zm-4 0c1.103 0 2-.897 2-2v-2c0-1.103-.897-2-2-2s-2 .897-2 2v2c0 1.103.897 2 2 2zm-1-4c0-.552.448-1 1-1s1 .448 1 1v2c0 .552-.448 1-1 1s-1-.448-1-1zm-2 0c0-1.103-.897-2-2-2h-2v6h1v-2h1c.084 0 .164-.015.245-.025l.589 2.025h1.042l-.696-2.394c.495-.365.82-.946.82-1.606zm-3 1v-2h1c.552 0 1 .448 1 1s-.448 1-1 1zm13-3.5v9.5h-5.651l-2.068 1.71c-.218.193-.496.291-.775.291-.284 0-.571-.101-.799-.303l-3.069-2.698h1.417l2.306 1.941c.083.075.194.075.27.009l2.359-1.95h5.011v-8.5c0-.827-.673-1.5-1.5-1.5h-12c-.827 0-1.5.673-1.5 1.5v6.64c-.327-.058-.661-.095-1-.115v-6.525c0-1.379 1.121-2.5 2.5-2.5h12c1.379 0 2.5 1.121 2.5 2.5z"/></svg>