<svg id="Layer_1" viewBox="0 0 24 24" xmlns="http://www.w3.org/2000/svg" data-name="Layer 1"><path d="m15 11h-14v9h-1v1.5c0 1.379 1.121 2.5 2.5 2.5h11c1.379 0 2.5-1.121 2.5-2.5v-1.5h-1zm-13 1h12v8h-3.707l-1 1h-2.586l-1-1h-3.707zm13 9.5c0 .827-.673 1.5-1.5 1.5h-11c-.827 0-1.5-.673-1.5-1.5v-.5h4.293l1 1h3.414l1-1h4.293zm9-13.5v4h-7v-1h6v-3c0-.551-.448-1-1-1h-13c-.552 0-1 .449-1 1v1h-1v-1c0-1.103.897-2 2-2h9.5v-2h1v2h2.5c1.103 0 2 .897 2 2zm-3 2c-.552 0-1-.448-1-1s.448-1 1-1 1 .448 1 1-.448 1-1 1zm.475-6.975-.707.707c-.943-.944-2.592-.944-3.535 0l-.707-.707c1.32-1.322 3.629-1.322 4.949 0zm-5.656-.708-.707-.707c1.038-1.039 2.42-1.611 3.889-1.611s2.851.572 3.889 1.611l-.707.707c-.85-.85-1.979-1.318-3.182-1.318s-2.332.468-3.182 1.318z"/></svg>