<svg id="Layer_1" viewBox="0 0 24 24" xmlns="http://www.w3.org/2000/svg" data-name="Layer 1"><path d="m22.466 1.535c-.988-.99-2.303-1.535-3.703-1.535-1.398 0-2.714.545-3.703 1.534l-3.265 3.265 3.35 3.35 2.001-2.002c.188-.189.518-.189.707 0 .195.194.195.512 0 .707l-2.001 2.002 2.611 2.611c-4.862 4.798-9.528 8.613-12.61 10.409.086-.279.146-.569.146-.876 0-1.654-1.346-3-3-3-.771 0-1.468.301-2 .78v-18.78h-.999v21c0 1.654 1.346 3 3 3 .343 0 .667-.07.975-.176 3.454-1.011 10.193-6.642 15.791-12.24l2.699-2.639c2.043-2.042 2.043-5.366.001-7.41zm-19.466 21.465c-1.105 0-2-.895-2-2s.895-2 2-2 2 .895 2 2-.895 2-2 2zm18.762-14.766-2.587 2.53-1.908-1.907 1.295-1.296c.584-.585.583-1.537 0-2.122-.568-.567-1.557-.565-2.122 0l-1.294 1.295-1.936-1.936 2.558-2.558c.8-.8 1.864-1.241 2.996-1.241 1.132 0 2.196.441 2.996 1.242 1.652 1.653 1.651 4.343.002 5.992z"/></svg>