<svg id="Layer_1" viewBox="0 0 24 24" xmlns="http://www.w3.org/2000/svg" data-name="Layer 1"><path d="m22.214 15.957-14.473-15.171c-1.058-1.046-2.775-1.046-3.837.008l-2.904 3.004v3.202h2v2h2v2h2v2h2v2h2v2h2v1.17c-.751 1.019-.667 2.465.254 3.388l1.649 1.656c.527.522 1.221.784 1.914.784s1.388-.262 1.916-.785l3.471-3.457c.514-.509.796-1.185.796-1.905s-.282-1.396-.786-1.894zm-10.214.043v-2h-2v-2h-2v-2h-2v-2h-2v-2h-2v-1.798l2.615-2.705c.668-.66 1.755-.661 2.412-.011l11.048 11.58-4.075 4.063v-1.13h-2zm9.5 3.046-3.471 3.457c-.67.662-1.756.661-2.42.003l-1.647-1.654c-.626-.628-.625-1.648.004-2.274l4.8-4.787 2.735 2.867c.321.318.499.743.499 1.193s-.178.876-.5 1.195zm-2.822-3.761-3.799 3.788c-.39.388-.392 1.021-.003 1.414l1.163 1.168c.195.196.451.294.708.294s.511-.097.706-.29l3.054-3.041c.387-.387.395-1.001.017-1.398zm-1.931 5.664-1.162-1.167 3.075-3.067 1.141 1.195z"/></svg>