<svg id="Layer_1" viewBox="0 0 24 24" xmlns="http://www.w3.org/2000/svg" data-name="Layer 1"><path d="m16.275 16-1.888 6h1.049l.315-1h1.896l.308 1h1.046l-1.847-6zm-.21 4 .644-2.045.63 2.045zm5.435-6h-7c-1.379 0-2.5 1.121-2.5 2.5v5c0 1.379 1.121 2.5 2.5 2.5h7c1.379 0 2.5-1.121 2.5-2.5v-5c0-1.379-1.121-2.5-2.5-2.5zm1.5 7.5c0 .827-.673 1.5-1.5 1.5h-7c-.827 0-1.5-.673-1.5-1.5v-5c0-.827.673-1.5 1.5-1.5h7c.827 0 1.5.673 1.5 1.5zm-3-5.5h1v6h-1zm-2-8c1.103 0 2-.897 2-2s-.897-2-2-2-2 .897-2 2 .897 2 2 2zm0-3c.552 0 1 .449 1 1s-.448 1-1 1-1-.449-1-1 .448-1 1-1zm-4.412 5.334 1.516-.892c.408.34.882.606 1.396.786v1.771h3v-1.771c.515-.18.988-.446 1.396-.786l1.516.892 1.521-2.586-1.526-.897c.063-.299.094-.576.094-.85s-.03-.551-.094-.85l1.526-.897-1.521-2.586-1.516.892c-.408-.34-.882-.606-1.396-.786v-1.774h-3v1.771c-.515.18-.988.446-1.396.786l-1.516-.892-1.521 2.586 1.526.897c-.063.299-.094.576-.094.85s.03.551.094.85l-1.526.897 1.521 2.586zm1.169-3.007c-.127-.417-.27-.949-.257-1.327-.013-.377.13-.91.257-1.327l-1.32-.776.507-.862 1.305.768c.575-.663 1.37-1.106 2.252-1.274v-1.529h1v1.529c.882.168 1.676.611 2.252 1.274l1.305-.768.507.862-1.32.776c.127.417.27.949.257 1.327.013.377-.13.91-.257 1.327l1.32.776-.507.862-1.305-.768c-.574.664-1.369 1.105-2.252 1.274v1.529h-1v-1.529c-.883-.169-1.678-.61-2.252-1.274l-1.305.768-.507-.862zm-14.757-6.327h1v19c0 2.206 1.794 4 4 4s4-1.794 4-4v-19h1v-1h-10zm5 22c-1.654 0-3-1.346-3-3v-10h6v10c0 1.654-1.346 3-3 3zm3-14h-6v-8h6z"/></svg>