<?xml version="1.0" encoding="UTF-8"?>
<svg xmlns="http://www.w3.org/2000/svg" id="Layer_1" data-name="Layer 1" viewBox="0 0 24 24">
  <path d="m19.5,15c-.916,0-1.767.278-2.479.75l-4.366-5.165L21.056.648,20.292.003l-8.291,9.807L3.734.029l-.764.646,8.376,9.91-4.367,5.166c-.712-.472-1.563-.75-2.479-.75-2.481,0-4.5,2.019-4.5,4.5s2.019,4.5,4.5,4.5,4.5-2.019,4.5-4.5c0-1.205-.483-2.296-1.257-3.105l4.257-5.036,4.256,5.036c-.774.809-1.257,1.899-1.257,3.105,0,2.481,2.019,4.5,4.5,4.5s4.5-2.019,4.5-4.5-2.019-4.5-4.5-4.5Zm-15,8c-1.93,0-3.5-1.57-3.5-3.5s1.57-3.5,3.5-3.5,3.5,1.57,3.5,3.5-1.57,3.5-3.5,3.5Zm15,0c-1.93,0-3.5-1.57-3.5-3.5s1.57-3.5,3.5-3.5,3.5,1.57,3.5,3.5-1.57,3.5-3.5,3.5Z"/>
</svg>
