<svg id="Layer_1" viewBox="0 0 24 24" xmlns="http://www.w3.org/2000/svg" data-name="Layer 1"><path d="m21.408 12.276-.402-.134-.198.375c-.082.157-.808 1.558-.808 2.483 0 1.103.897 2 2 2v1.25c0 2.619-2.131 4.75-4.75 4.75-2.633.001-4.773-2.157-4.75-4.79.335-.338 1.131-1.19 1.737-2.21h1.763c1.103 0 2-.897 2-2h-1c0 .551-.448 1-1 1h-1.271c.165-.43.271-.868.271-1.295v-.705h3c1.103 0 2-.897 2-2h-1c0 .551-.448 1-1 1h-3v-2h3.5c1.314 0 2.421-.855 2.826-2.033 1.499-.165 2.674-1.424 2.674-2.967 0-1.492-1.258-3.809-1.312-3.906l-.571-1.045-.346 1.139c-.003.011-.275.897-.801 1.816-.554-.729-.845-1.005-.882-1.04l-.358-.329-.339.349c-.057.059-1.392 1.449-1.392 3.015 0 1.403.972 2.575 2.275 2.901-.331.649-.999 1.099-1.775 1.099h-3.5v-2c0-1.065-.486-1.983-1-2.664v-3.335h-1v2.266c-.182-.155-.198-.164-.333-.266h-1.334c-.135.102-.151.111-.333.266v-2.266h-1v3.336c-.514.681-1 1.598-1 2.664v2h-3.5c-.777 0-1.444-.45-1.775-1.099 1.303-.326 2.275-1.498 2.275-2.901 0-1.566-1.335-2.957-1.392-3.015l-.339-.349-.358.329c-.037.035-.328.311-.882 1.04-.525-.919-.798-1.806-.801-1.816l-.344-1.14-.571 1.045c-.054.098-1.312 2.415-1.312 3.906 0 1.543 1.175 2.802 2.674 2.967.405 1.178 1.512 2.033 2.826 2.033h3.5v2h-3c-.552 0-1-.449-1-1h-1c0 1.103.897 2 2 2h3v.705c0 .427.106.865.271 1.295h-1.271c-.552 0-1-.449-1-1h-1c0 1.103.897 2 2 2h1.763c.606 1.02 1.402 1.872 1.737 2.21-.023 3.184 2.565 5.792 5.75 5.79 3.171 0 5.75-2.58 5.75-5.75v-1.528c.595-.347 1-.985 1-1.722 0-1.839-2.486-2.689-2.592-2.724zm-2.408-7.276c0-.733.441-1.463.767-1.903.196.234.472.585.825 1.083l.408.575.408-.575c.382-.539.68-1.114.895-1.595.342.775.697 1.754.697 2.415 0 1.103-.897 2-2 2s-2-.897-2-2zm-18 0c0-.66.355-1.639.697-2.415.215.481.513 1.056.895 1.595l.408.575.408-.575c.354-.499.629-.849.825-1.083.325.44.767 1.17.767 1.903 0 1.103-.897 2-2 2s-2-.897-2-2zm9 8h3v-1h-3v-2h3v-1h-3v-2c0-1.453 1.271-2.654 1.678-3h.645c.406.346 1.678 1.547 1.678 3v6.705c0 1.2-1.233 2.768-2 3.584-.767-.817-2-2.384-2-3.584v-.705zm12 3c-.552 0-1-.449-1-1 0-.396.254-1.082.493-1.608.56.263 1.507.823 1.507 1.608 0 .551-.448 1-1 1z"/></svg>