<svg id="Layer_1" viewBox="0 0 24 24" xmlns="http://www.w3.org/2000/svg" data-name="Layer 1"><path d="m16.5 11c3.033 0 5.5-2.467 5.5-5.5s-2.467-5.5-5.5-5.5-5.5 2.467-5.5 5.5 2.467 5.5 5.5 5.5zm0-10c2.481 0 4.5 2.019 4.5 4.5s-2.019 4.5-4.5 4.5-4.5-2.019-4.5-4.5 2.019-4.5 4.5-4.5zm3.5 12h-13.293l-5-5h.293c.551 0 1-.449 1-1v-3c0-.551-.449-1-1-1h-1c-.551 0-1 .449-1 1v3.707l6.293 6.293h13.707c1.654 0 3 1.346 3 3v7h1v-7c0-2.206-1.794-4-4-4zm-19-9h1v3h-1zm9 12h1v8h-1zm-8.143-14-.857-2 2.5 1.071 2.5-1.071-1.071 2.5 1.071 2.5-2-.857v-.143c0-1.103-.897-2-2-2z"/></svg>