<svg id="Layer_1" viewBox="0 0 24 24" xmlns="http://www.w3.org/2000/svg" data-name="Layer 1"><path d="m14 11c0-.552.448-1 1-1s1 .448 1 1-.448 1-1 1-1-.448-1-1zm10-10v22h-7.992c-.957-1.252-2.428-2.006-4.008-2-1.58-.006-3.05.748-4.008 2h-7.992v-22h7.993c.957 1.252 2.426 2.006 4.007 2 1.581.006 3.05-.748 4.007-2zm-1 14h-15.618c.703.615 1.612 1 2.618 1h13zm0-7h-13c-2.206 0-4 1.794-4 4 0 .732.212 1.409.556 2h16.444zm0-6h-6.528c-1.139 1.274-2.755 2-4.472 2s-3.333-.726-4.472-2h-6.528v20h6.527c1.14-1.274 2.756-2 4.473-2s3.333.726 4.473 2h6.527v-5h-13c-2.761 0-5-2.239-5-5s2.239-5 5-5h13z"/></svg>