<svg id="Layer_1" viewBox="0 0 24 24" xmlns="http://www.w3.org/2000/svg" data-name="Layer 1"><path d="m23.774 11.775c-.36-1.05-1.107-1.897-2.105-2.385-.155-.076-.316-.132-.477-.188.204-.498.398-.994.572-1.485.376-1.068.301-2.223-.213-3.251-.536-1.071-1.509-1.894-2.669-2.258-.891-.279-1.841-.257-2.724.021-.897-1.343-2.425-2.23-4.157-2.23s-3.26.887-4.157 2.23c-.883-.279-1.833-.301-2.724-.021-1.16.364-2.133 1.187-2.669 2.258-.514 1.028-.59 2.183-.213 3.251.173.491.368.988.572 1.485-.161.056-.322.112-.477.188-.997.488-1.744 1.335-2.104 2.385s-.29 2.177.198 3.174c1.128 2.305 4.634 4.839 7.576 6.659v.891c0 .827.673 1.5 1.5 1.5h4.999c.827 0 1.5-.673 1.5-1.5v-.891c2.941-1.82 6.448-4.353 7.576-6.659.488-.997.558-2.125.198-3.174zm-5.19-8.612c.903.283 1.658.921 2.073 1.751.392.783.45 1.661.165 2.47-1.86 5.272-5.68 11.091-7.571 13.616h-.049c1.433-4.216 3.799-12.158 3.799-16 0-.664-.136-1.295-.372-1.875.639-.168 1.316-.162 1.955.038zm-6.582-2.163c2.205 0 3.999 1.794 3.999 4 0 3.814-2.458 11.939-3.856 16h-.286c-1.398-4.061-3.856-12.186-3.856-16 0-2.206 1.794-4 3.999-4zm-8.656 3.914c.415-.83 1.171-1.468 2.073-1.751.638-.199 1.315-.204 1.955-.037-.236.58-.372 1.211-.372 1.875 0 3.842 2.366 11.784 3.799 16h-.049c-1.891-2.525-5.711-8.344-7.571-13.616-.286-.81-.228-1.687.165-2.47zm-2.021 9.596c-.765-1.563-.115-3.457 1.447-4.221.139-.068.282-.122.427-.168 1.877 4.267 4.605 8.511 6.313 10.879h-.587c-4.059-2.468-6.76-4.77-7.601-6.49zm13.676 7.99c0 .276-.224.5-.5.5h-4.999c-.276 0-.5-.224-.5-.5v-.5h5.999zm7.677-7.99c-.841 1.719-3.541 4.022-7.601 6.49h-.587c1.708-2.369 4.437-6.612 6.313-10.879.145.047.288.101.427.168 1.563.765 2.212 2.658 1.448 4.221z"/></svg>