<svg id="Layer_1" viewBox="0 0 24 24" xmlns="http://www.w3.org/2000/svg" data-name="Layer 1"><path d="m24 18v-15.5c0-1.378-1.121-2.5-2.5-2.5h-19c-1.378 0-2.5 1.122-2.5 2.5v15.5h11.5v3h-3c-1.378 0-2.5 1.122-2.5 2.5v.5h1v-.5c0-.827.673-1.5 1.5-1.5h7c.827 0 1.5.673 1.5 1.5v.5h1v-.5c0-1.378-1.121-2.5-2.5-2.5h-3v-3zm-23-15.5c0-.827.673-1.5 1.5-1.5h19c.827 0 1.5.673 1.5 1.5v14.5h-22zm5.007 2.5c-.936 0-1.442.837-1.546 1.416l-1.211 6.583h1.017s.368-1.999.368-1.999h2.736l.363 2h1.016s-1.188-6.538-1.188-6.538c-.12-.668-.62-1.462-1.555-1.462zm-1.188 5 .626-3.403c.002-.011.133-.597.562-.597.444 0 .559.573.571.638l.611 3.362zm12.181-2.5v3c0 .827.673 1.5 1.5 1.5.651 0 1.201-.419 1.408-1h1.042c-.232 1.14-1.242 2-2.449 2-1.378 0-2.5-1.121-2.5-2.5v-3c0-1.379 1.122-2.5 2.5-2.5s2.5 1.121 2.5 2.5h-1c0-.827-.673-1.5-1.5-1.5s-1.5.673-1.5 1.5zm-3.123 1.303c.386-.404.623-.951.623-1.553 0-1.241-1.01-2.25-2.25-2.25h-2.25v8h2.75c1.24 0 2.25-1.009 2.25-2.25 0-.831-.452-1.557-1.123-1.947zm-2.877-2.803h1.25c.689 0 1.25.561 1.25 1.25s-.561 1.25-1.25 1.25h-1.25zm1.75 6h-1.75v-2.5h1.75c.689 0 1.25.561 1.25 1.25s-.561 1.25-1.25 1.25z"/></svg>