<svg id="Layer_1" viewBox="0 0 24 24" xmlns="http://www.w3.org/2000/svg" data-name="Layer 1"><path d="m10 16h3.636l-1 1h-2.636zm0-2h5.636l1-1h-6.637v1zm13.268-1.268c.473.472.732 1.1.732 1.768s-.26 1.296-.732 1.768l-7.732 7.732h-3.535v-3.536l7.732-7.732c.976-.976 2.562-.975 3.535 0zm-.268 1.768c0-.401-.156-.777-.439-1.061-.584-.585-1.537-.585-2.121 0l-7.439 7.439v2.122h2.121l7.439-7.439c.283-.283.439-.66.439-1.061zm1-7.968v4.228c-.307-.205-.646-.359-1-.484v-3.276h-6v-6h-8.5c-.827 0-1.5.673-1.5 1.5v18.5h3v1h-4v-10h-3.5v3.071c.86.224 1.5 1 1.5 1.929 0 1.103-.897 2-2 2s-2-.897-2-2c0-.929.64-1.705 1.5-1.929v-4.071h4.5v-3h-4.5v-4.071c-.86-.224-1.5-1-1.5-1.929 0-1.103.897-2 2-2s2 .897 2 2c0 .929-.64 1.705-1.5 1.929v3.071h3.5v-4.5c0-1.378 1.121-2.5 2.5-2.5h8.968zm-22-3.532c.552 0 1-.449 1-1s-.448-1-1-1-1 .449-1 1 .448 1 1 1zm0 13c-.552 0-1 .449-1 1s.448 1 1 1 1-.449 1-1-.448-1-1-1zm16-10h4.054l-4.054-4.054zm2 4h-10v1h10z"/></svg>