<svg id="Layer_1" viewBox="0 0 24 24" xmlns="http://www.w3.org/2000/svg" data-name="Layer 1"><path d="m23 5.823v-2.823h-1v2.188c-.22-.083-.447-.148-.688-.173-.447-.044-.894.02-1.312.168v-2.183h-1v2.768s-.006.004-.009.006c-.63.569-.991 1.38-.991 2.226v1c0 3.883-2.106 7.791-6.155 9.32 1.319-1.19 2.155-2.908 2.155-4.82 0-2.481-2.019-4.5-4.5-4.5-1.93 0-3.5 1.57-3.5 3.5 0 1.378 1.122 2.5 2.5 2.5h.5v-1h-.5c-.827 0-1.5-.673-1.5-1.5 0-1.378 1.122-2.5 2.5-2.5 1.93 0 3.5 1.57 3.5 3.5 0 3.033-2.467 5.5-5.5 5.5-3.584 0-6.5-2.916-6.5-6.5 0-5.238 4.262-9.5 9.5-9.5 2.515 0 4.799.989 6.5 2.591v-1.321c-1.79-1.417-4.045-2.27-6.5-2.27-5.79 0-10.5 4.71-10.5 10.5 0 2.779 1.523 5.204 3.774 6.5h-2.274c-.827 0-1.5.673-1.5 1.5s.673 1.5 1.5 1.5h10c6.893 0 12.5-5.607 12.5-12.5v-1.352c0-.913-.391-1.743-1-2.325zm0 3.677c0 6.341-5.159 11.5-11.5 11.5h-10c-.276 0-.5-.224-.5-.5s.224-.5.5-.5h6.5c6.374 0 11-4.626 11-11v-1c0-.563.241-1.104.661-1.484.426-.385.978-.564 1.55-.505 1.003.103 1.789 1.042 1.789 2.137z"/></svg>