<svg id="Layer_1" viewBox="0 0 24 24" xmlns="http://www.w3.org/2000/svg" data-name="Layer 1"><path d="m23 5.521v2.698l-8 8.5v7.281l-6-3.369v-3.912l-8-8.5v-2.698c0-1.378 1.122-2.5 2.5-2.5h.5v1h-.5c-.827 0-1.5.673-1.5 1.5v2.302l8 8.5v3.723l4 2.246v-5.969l8-8.5v-2.302c0-.827-.673-1.5-1.5-1.5h-.5v-1h.5c1.378 0 2.5 1.122 2.5 2.5zm-5 3.5h-12v-7c0-1.103.897-2 2-2h8c1.103 0 2 .897 2 2zm-10-8c-.153 0-.294.041-.424.103l3.524 3.525c.496.496 1.304.496 1.8 0l3.524-3.525c-.13-.062-.271-.103-.424-.103zm9 1c0-.017-.009-.032-.01-.049l-3.383 3.384c-.443.443-1.025.664-1.607.664s-1.164-.221-1.607-.664l-3.383-3.384c0 .017-.01.032-.01.049v6h10z"/></svg>