<svg id="Layer_1" viewBox="0 0 24 24" xmlns="http://www.w3.org/2000/svg" data-name="Layer 1"><path d="m8.999 16.232 7.524-4.232-7.524-4.232zm1-6.753 4.482 2.521-4.482 2.521v-5.043zm-5.781 10.303-.707.707c-4.681-4.68-4.681-12.298-.001-16.979l.707.707c-4.29 4.292-4.29 11.274.001 15.565zm16.272.708-.707-.707c4.291-4.291 4.291-11.273 0-15.564l.707-.707c4.681 4.681 4.681 12.298 0 16.979zm-13.442-13.442c-1.323 1.323-2.051 3.082-2.051 4.952s.728 3.629 2.051 4.952l-.707.707c-1.512-1.511-2.344-3.522-2.344-5.66s.832-4.148 2.344-5.66l.707.707zm12.956 4.952c0 2.138-.832 4.148-2.344 5.66l-.707-.707c1.323-1.323 2.051-3.082 2.051-4.952s-.728-3.629-2.051-4.952l.707-.707c1.512 1.511 2.344 3.522 2.344 5.66z"/></svg>