<svg id="Layer_1" viewBox="0 0 24 24" xmlns="http://www.w3.org/2000/svg" data-name="Layer 1"><path d="m22.579 2.128 1.418-1.418-.707-.707-1.418 1.418c-1.046-.886-2.398-1.421-3.872-1.421-3.309 0-6 2.691-6 6 0 .926.211 1.803.587 2.587-.784-.376-1.661-.587-2.587-.587-3.309 0-6 2.691-6 6 0 1.475.535 2.827 1.421 3.872l-5.41 5.41.707.707 5.41-5.41c1.046.886 2.398 1.421 3.872 1.421 3.309 0 6-2.691 6-6 0-.926-.211-1.803-.587-2.587.784.376 1.661.587 2.587.587 3.309 0 6-2.691 6-6 0-1.475-.535-2.826-1.421-3.872zm.364 3.119c-.736.501-1.593.765-2.493.765-2.45 0-4.535-2.093-4.447-4.595.612-.268 1.287-.417 1.997-.417 2.501 0 4.579 1.846 4.943 4.247zm-8 8c-.736.501-1.593.765-2.493.765-2.45 0-4.535-2.093-4.447-4.595.612-.268 1.287-.417 1.997-.417 2.501 0 4.579 1.846 4.943 4.247zm-4.943 5.753c-2.757 0-5-2.243-5-5 0-1.64.794-3.098 2.017-4.01.219 2.806 2.573 5.022 5.433 5.022.897 0 1.758-.214 2.535-.624-.199 2.576-2.359 4.612-4.985 4.612zm8-8c-2.757 0-5-2.243-5-5 0-1.64.794-3.098 2.017-4.01.219 2.806 2.573 5.022 5.433 5.022.897 0 1.758-.214 2.535-.624-.199 2.576-2.359 4.612-4.985 4.612z"/></svg>