<svg id="Layer_1" viewBox="0 0 24 24" xmlns="http://www.w3.org/2000/svg" data-name="Layer 1"><path d="m17 0c-2.206 0-4 1.794-4 4s1.794 4 4 4 4-1.794 4-4-1.794-4-4-4zm0 7c-1.654 0-3-1.346-3-3s1.346-3 3-3 3 1.346 3 3-1.346 3-3 3zm-8 2v6.051c-1.14.232-2 1.242-2 2.449 0 1.379 1.122 2.5 2.5 2.5s2.5-1.121 2.5-2.5c0-1.208-.86-2.217-2-2.449v-6.051zm2 8.5c0 .827-.673 1.5-1.5 1.5s-1.5-.673-1.5-1.5.673-1.5 1.5-1.5 1.5.673 1.5 1.5zm3-4.681c1.274 1.225 2 2.918 2 4.681 0 1.964-.875 3.803-2.4 5.044-1.168.951-2.616 1.454-4.112 1.454-.456 0-.917-.047-1.376-.143-2.465-.512-4.463-2.516-4.971-4.987-.461-2.244.233-4.488 1.859-6.049v-8.319c0-2.481 2.019-4.5 4.5-4.5.911 0 1.756.276 2.465.743-.182.28-.342.574-.476.884-.566-.393-1.25-.627-1.99-.627-1.93 0-3.5 1.57-3.5 3.5v8.761c-1.581 1.321-2.305 3.363-1.88 5.406.429 2.086 2.115 3.778 4.195 4.21 1.665.346 3.363-.058 4.654-1.108s2.031-2.606 2.031-4.269c.004-1.63-.744-3.187-2-4.239v-4.798c.307.275.641.52 1 .728v3.629z"/></svg>