<svg id="Layer_1" viewBox="0 0 24 24" xmlns="http://www.w3.org/2000/svg" data-name="Layer 1"><path d="m21.8 21-2.569-18.837c-.168-1.233-1.233-2.163-2.477-2.163h-9.508c-1.244 0-2.309.93-2.477 2.163l-2.569 18.837h-2.2v3h24v-3zm-16.04-18.703c.101-.74.74-1.297 1.486-1.297h9.509c.746 0 1.385.558 1.486 1.297l2.551 18.703h-17.583zm17.24 20.703h-22v-1h22zm-12.5-10c0 .552-.448 1-1 1s-1-.448-1-1 .448-1 1-1 1 .448 1 1zm5 0c0 .552-.448 1-1 1s-1-.448-1-1 .448-1 1-1 1 .448 1 1zm-2.5 4c0 .552-.448 1-1 1s-1-.448-1-1 .448-1 1-1 1 .448 1 1zm0-8c0 .552-.448 1-1 1s-1-.448-1-1 .448-1 1-1 1 .448 1 1zm-5 8c0 .552-.448 1-1 1s-1-.448-1-1 .448-1 1-1 1 .448 1 1zm7.5-12c0 .552-.448 1-1 1s-1-.448-1-1 .448-1 1-1 1 .448 1 1zm2.5 12c0 .552-.448 1-1 1s-1-.448-1-1 .448-1 1-1 1 .448 1 1zm-10-8c0 .552-.448 1-1 1s-1-.448-1-1 .448-1 1-1 1 .448 1 1zm10 0c0 .552-.448 1-1 1s-1-.448-1-1 .448-1 1-1 1 .448 1 1zm-7.5-4c0 .552-.448 1-1 1s-1-.448-1-1 .448-1 1-1 1 .448 1 1z"/></svg>