<svg id="Layer_1" viewBox="0 0 24 24" xmlns="http://www.w3.org/2000/svg" data-name="Layer 1"><path d="m6.242 14.694c-.194.195-.459.306-.742.306-.282 0-.547-.11-.747-.31l-2.103-2.055.699-.715 1.65 1.613v-4.533h1v4.469l1.65-1.549.699.715-2.107 2.059zm12.758.306v-4.534l1.65 1.613.699-.715-2.104-2.056c-.41-.411-1.08-.41-1.488-.003l-2.107 2.06.699.715 1.65-1.549v4.47h1zm-15 4.5h-2v-3.5h-1v8h1v-3.5h2v3.5h1v-8h-1zm-1-15h2v3.5h1v-8h-1v3.5h-2v-3.5h-1v8h1zm6 3.5c-1.103 0-2-.897-2-2v-4c0-1.103.897-2 2-2s2 .897 2 2v4c0 1.103-.897 2-2 2zm1-6c0-.551-.449-1-1-1s-1 .449-1 1v4c0 .551.449 1 1 1s1-.449 1-1zm13 16v4c0 1.103-.897 2-2 2s-2-.897-2-2v-4c0-1.103.897-2 2-2s2 .897 2 2zm-1 0c0-.552-.449-1-1-1s-1 .448-1 1v4c0 .552.449 1 1 1s1-.448 1-1zm-6.5-11h-2.5v-7h-1v8h3.5zm0 9h-1v8h3.5v-1h-2.5zm-4.5 0h-1v8h3.5v-1h-2.5zm-5 8h3v-1h-2v-2.5h2v-1h-2v-2.5h2v-1h-3zm11.517-15.999h-1.017s1.211-6.584 1.211-6.584c.103-.58.61-1.417 1.546-1.417s1.435.794 1.555 1.462l1.188 6.538h-1.016s-.363-1.999-.363-1.999h-2.736zm.552-3h2.37l-.611-3.362c-.012-.065-.127-.638-.571-.638-.429 0-.56.586-.562.597z"/></svg>