<svg id="Layer_1" viewBox="0 0 24 24" xmlns="http://www.w3.org/2000/svg" data-name="Layer 1"><path d="m19 9c0 .552-.448 1-1 1s-1-.448-1-1 .448-1 1-1 1 .448 1 1zm5 1v2.218c-.069.142-1.771 3.497-5.641 6.433-.656.464-1.302.964-2.05 1.3-.101.395-.217.788-.349 1.171-.592 1.721-2.227 2.877-4.067 2.877h-1.463l.531-1.363c.098-.25.221-.57.361-.937-1.086.199-2.201.3-3.325.3h-6.804l1.687-5.34c.228-.722.51-1.79.735-2.855l-3.53 1.119.338-.949c.263-.738.577-1.854.577-2.975s-.313-2.236-.577-2.975l-.338-.949 3.573 1.132c-.255-1.195-.588-2.265-.779-2.869l-1.686-5.338h6.805c3.835 0 7.515 1.189 10.361 3.349 4.016 3.139 5.523 6.179 5.641 6.651zm-20.177 2.69c.106-.639.177-1.235.177-1.69 0-.544-.054-1.114-.137-1.677l-2.206-.699c.189.701.343 1.532.343 2.376s-.154 1.675-.343 2.376zm-1.266 8.31h4.1l1.491-4.275c.556-1.76.852-3.745.852-5.724 0-1.925-.294-3.833-.874-5.668l-1.368-4.333h-4.201l1.275 4.039c.543 1.721 1.167 3.954 1.167 5.961 0 1.709-.787 4.754-1.167 5.961l-1.276 4.039zm10.638-4.653c.412-1.779.798-2.915.805-5.347 0-1.925-.294-3.833-.874-5.668l-1.228-3.889c-1.317-.307-2.702-.456-4.092-.443l1.273 4.032c.611 1.933.92 3.941.92 5.969 0 2.081-.312 4.169-.903 6.039l-1.381 3.96c1.36.016 2.723-.114 4.025-.404.538-1.438 1.15-3.149 1.454-4.249zm9.805-6.226c-.298-.563-1.933-3.462-5.245-5.975-1.387-1.052-2.987-1.859-4.71-2.393l1.035 3.278c.611 1.933.92 3.941.92 5.969-.001 4.449-1.751 8.349-3.106 12 1.414 0 2.668-.885 3.122-2.202.177-.513.322-1.051.442-1.583.831-.278 1.578-.846 2.311-1.371 3.3-2.504 4.983-5.402 5.281-5.965z"/></svg>