<svg id="Layer_1" viewBox="0 0 24 24" xmlns="http://www.w3.org/2000/svg" data-name="Layer 1"><path d="m17.5 15c.169 0 .334-.016.5-.025v.025c0 1.691-.472 3.339-1.364 4.766-1.658 2.651-4.512 4.234-7.636 4.234-4.962 0-9-4.038-9-9v-4.5c0-1.207.86-2.217 2-2.449v-8.051h10.028c-.362.305-.696.64-1.003 1h-8.025v7h6.14c.061.34.135.675.235 1h-6.875c-.827 0-1.5.673-1.5 1.5v4.5c0 4.411 3.589 8 8 8 2.776 0 5.313-1.407 6.788-3.765.793-1.268 1.212-2.732 1.212-4.235v-.025c.166.01.331.025.5.025zm-10.5-9v-2h-1v2zm17 .5c0 3.584-2.916 6.5-6.5 6.5s-6.5-2.916-6.5-6.5 2.916-6.5 6.5-6.5 6.5 2.916 6.5 6.5zm-1 0c0-3.033-2.468-5.5-5.5-5.5s-5.5 2.467-5.5 5.5 2.468 5.5 5.5 5.5 5.5-2.467 5.5-5.5zm-5-4.5h-1v6h1zm-.5 7c-.552 0-1 .448-1 1s.448 1 1 1 1-.448 1-1-.448-1-1-1z"/></svg>