<svg id="Layer_1" viewBox="0 0 24 24" xmlns="http://www.w3.org/2000/svg" data-name="Layer 1"><path d="m23.461 17.484-8.426-14.772c-.691-1.12-1.741-1.712-3.035-1.712s-2.38.608-3.068 1.728l-8.385 14.742c-.696 1.131-.729 2.501-.089 3.666.652 1.185 1.798 1.864 3.144 1.864h16.796c1.325 0 2.5-.697 3.144-1.866.64-1.163.606-2.532-.081-3.649zm-.795 3.167c-.465.845-1.313 1.349-2.268 1.349h-16.796c-.97 0-1.797-.491-2.268-1.347-.465-.845-.441-1.839.073-2.674l8.385-14.743c.491-.797 1.275-1.236 2.208-1.236.943 0 1.677.416 2.175 1.223l8.426 14.771c.504.82.529 1.814.065 2.657zm-12.166-9.651h1v5.5c0 1.379-1.122 2.5-2.5 2.5s-2.5-1.121-2.5-2.5v-5.5h1v5.5c0 .827.673 1.5 1.5 1.5s1.5-.673 1.5-1.5zm6.227 0h1.016s-1.188 6.538-1.188 6.538c-.12.668-.62 1.462-1.555 1.462s-1.442-.837-1.546-1.416l-1.211-6.583h1.017s1.178 6.402 1.178 6.402c.002.011.133.597.562.597.444 0 .559-.573.571-.638z"/></svg>