<svg id="Layer_1" viewBox="0 0 24 24" xmlns="http://www.w3.org/2000/svg" data-name="Layer 1"><path d="m19 13h-4v-1h4zm0-7h-4v1h4zm0 3h-4v1h4zm-11.5 5.5v-1.351c-.122-.059-.242-.124-.357-.197l-1.142.723-1.605-2.533 1.133-.718c-.019-.145-.028-.285-.028-.424s.01-.279.028-.424l-1.133-.718 1.605-2.533 1.142.723c.115-.073.235-.139.357-.197v-1.351h3v1.351c.122.059.242.124.357.197l1.142-.723 1.605 2.533-1.133.718c.019.145.028.285.028.424s-.01.279-.028.424l1.133.718-1.605 2.533-1.142-.723c-.115.073-.235.139-.357.197v1.351zm.667-2.155.333.118v1.037h1v-1.037c.478-.137.938-.391 1.312-.723l.876.556.535-.846-.869-.551c.064-.273.153-.639.146-.899.008-.26-.082-.627-.146-.899l.869-.551-.535-.846-.876.556c-.375-.332-.834-.586-1.312-.723v-1.037h-1v1.037c-.478.137-.938.391-1.312.723l-.876-.556-.535.846.869.551c-.064.273-.153.639-.146.899-.008.26.082.627.146.899l-.869.551.535.846.876-.556c.292.237.622.489.979.604zm.833-.845c-.827 0-1.5-.673-1.5-1.5s.673-1.5 1.5-1.5 1.5.673 1.5 1.5-.673 1.5-1.5 1.5zm0-1c.275 0 .5-.225.5-.5s-.225-.5-.5-.5-.5.225-.5.5.225.5.5.5zm15 5.5v2.5c0 1.379-1.121 2.5-2.5 2.5h-19c-1.379 0-2.5-1.121-2.5-2.5v-2.5h2v-13h20v13zm-21 0h5.707l1 1h4.586l1-1h5.707v-12h-18zm20 1h-7.293l-1 1h-5.414l-1-1h-7.293v1.5c0 .827.673 1.5 1.5 1.5h19c.827 0 1.5-.673 1.5-1.5z"/></svg>