<svg id="Layer_1" viewBox="0 0 24 24" xmlns="http://www.w3.org/2000/svg" data-name="Layer 1"><path d="m23 19v-4h-5v4h-1v3c0 1.103.897 2 2 2h3c1.103 0 2-.897 2-2v-3zm-4-3h3v3h-3zm4 6c0 .552-.448 1-1 1h-3c-.552 0-1-.448-1-1v-2h5zm-16-18h-1v-4h1zm-4.934 1.017-2-3.5.868-.496 2 3.5zm9.434 1.983h-7c-1.93 0-3.5 1.57-3.5 3.5v6.5c0 3.859 3.14 7 7 7s7-3.141 7-7v-6.5c0-1.93-1.57-3.5-3.5-3.5zm-7 1h3v5h-5.5v-2.5c0-1.378 1.122-2.5 2.5-2.5zm3.5 15c-3.309 0-6-2.691-6-6v-3h12v3c0 3.309-2.691 6-6 6zm6-10h-5.5v-5h3c1.378 0 2.5 1.122 2.5 2.5z"/></svg>