<svg id="Layer_1" viewBox="0 0 24 24" xmlns="http://www.w3.org/2000/svg" data-name="Layer 1"><path d="m6 19.5c0 .828-.672 1.5-1.5 1.5s-1.5-.672-1.5-1.5.672-1.5 1.5-1.5 1.5.672 1.5 1.5zm13.5-1.5c-.828 0-1.5.672-1.5 1.5s.672 1.5 1.5 1.5 1.5-.672 1.5-1.5-.672-1.5-1.5-1.5zm-11 0c-.828 0-1.5.672-1.5 1.5s.672 1.5 1.5 1.5 1.5-.672 1.5-1.5-.672-1.5-1.5-1.5zm15.5-15v21h-24v-21c0-1.654 1.346-3 3-3h18c1.654 0 3 1.346 3 3zm-11 .086v-1.086h-2v1.086l1 1zm-11-.086v12h6v-5h8v5h6v-12c0-.551-.449-1-1-1h-6v1.914l-2 2v2.086h-2v-2.086l-2-2v-1.914h-6c-.551 0-1 .449-1 1zm12 9h-4v3h4zm8 10v-5h-20v5z"/></svg>