<svg id="Layer_1" viewBox="0 0 24 24" xmlns="http://www.w3.org/2000/svg" data-name="Layer 1"><path d="m13 9c0-1.654-1.346-3-3-3h-6c-1.103 0-2-.897-2-2s.897-2 2-2h6v-2h-6c-2.206 0-4 1.794-4 4s1.794 4 4 4h6c.551 0 1 .449 1 1v1.722l-5 2.832v6.976l5.993 3.426 6.007-3.334v-7.068l-5-2.825v-1.728zm-.999 6.762-2.907-1.662 2.901-1.643 2.91 1.645zm-4.001.016 3 1.714v3.592l-3-1.715v-3.592zm5 5.332v-3.615l3-1.715v3.664zm10.122-14.231-6.872-6.879h-4.243v4.243l6.871 6.878c.567.567 1.32.879 2.122.879s1.555-.312 2.121-.878.879-1.32.879-2.122-.312-1.554-.878-2.121zm-1.415 2.828c-.377.378-1.036.377-1.413 0l-6.287-6.292v-1.415h1.414l6.285 6.292c.189.189.293.44.293.708s-.104.518-.293.707z"/></svg>