<svg id="Layer_1" viewBox="0 0 24 24" xmlns="http://www.w3.org/2000/svg" data-name="Layer 1"><path d="m17 15h2v4h-2zm2.5-9c0-.828-.672-1.5-1.5-1.5s-1.5.672-1.5 1.5.672 1.5 1.5 1.5 1.5-.672 1.5-1.5zm-.5 3h-2v4h2zm-4 2.188v-2.568c-.615-.703-1-1.613-1-2.62 0-2.209 1.791-4 4-4s4 1.791 4 4c0 1.008-.385 1.917-1 2.62v2.568c1.79-1.039 3-2.973 3-5.188 0-3.309-2.691-6-6-6s-6 2.691-6 6c0 2.215 1.21 4.149 3 5.188zm7 10.812h-20v-19c0-.551.449-1 1-1h8.087c.437-.751.985-1.429 1.634-2h-9.721c-1.654 0-3 1.346-3 3v21h24v-12.721c-.571.649-1.249 1.197-2 1.634zm-12.963-16.767c-.557.285-.957.797-1.098 1.405l-3.439 12.362h2.05l.847-3h5.206l.847 3h2.05l-1.732-6.22c-1.34-.838-2.414-2.059-3.066-3.514l1.336 4.734h-4.077l1.908-6.761c.046-.143.187-.153.218-.153-.05-.356-.087-.716-.087-1.086 0-.335.027-.664.067-.988-.356-.012-.707.055-1.03.221z"/></svg>