<svg id="Layer_1" viewBox="0 0 24 24" xmlns="http://www.w3.org/2000/svg" data-name="Layer 1"><path d="m15.289 15.049 1.41.813.999-1.732-1.417-.816c.129-.418.218-.853.218-1.312s-.089-.895-.218-1.313l1.416-.816-.998-1.733-1.411.813c-.605-.652-1.393-1.125-2.289-1.33v-1.621h-2v1.621c-.896.205-1.685.678-2.289 1.33l-1.411-.813-.998 1.733 1.416.816c-.129.418-.218.853-.218 1.313s.089.895.218 1.312l-1.417.816.999 1.732 1.41-.813c.605.652 1.393 1.126 2.289 1.331v3.898c-.595.346-1 .984-1 1.723 0 1.105.895 2 2 2s2-.895 2-2c0-.738-.405-1.376-1-1.723v-3.898c.896-.205 1.685-.678 2.289-1.331zm-5.789-3.049c0-1.378 1.122-2.5 2.5-2.5s2.5 1.122 2.5 2.5-1.122 2.5-2.5 2.5-2.5-1.121-2.5-2.5zm14.5 10c0 1.105-.895 2-2 2-.738 0-1.376-.405-1.723-1h-4.277v-5h2v3h2.277c.346-.595.984-1 1.723-1 1.105 0 2 .895 2 2zm-18-4h2v5h-4.277c-.346.595-.984 1-1.723 1-1.105 0-2-.895-2-2s.895-2 2-2c.738 0 1.376.405 1.723 1h2.277zm-6-4.5c0-1.674.753-3.225 2.044-4.265-.03-.281-.044-.548-.044-.806 0-4.687 3.813-8.429 8.5-8.429 3.442 0 6.517 1.994 7.835 5.127 3.271.626 5.665 3.477 5.665 6.873 0 2.785-1.639 5.188-4 6.315v-2.34c1.207-.914 2-2.348 2-3.974 0-2.579-1.932-4.717-4.494-4.974l-.66-.093-.24-.738c-.935-2.558-3.369-4.195-6.106-4.195-3.584 0-6.5 2.845-6.5 6.429-.013.486.124 1.224.217 1.758l-.567.356c-1.033.648-1.65 1.754-1.65 2.958 0 1.391.822 2.585 2 3.149v2.138c-2.305-.655-4-2.775-4-5.287z"/></svg>