<svg id="Layer_1" viewBox="0 0 24 24" xmlns="http://www.w3.org/2000/svg" data-name="Layer 1"><path d="m4 16.5v1h-1v-1c0-.276.224-.5.5-.5s.5.224.5.5zm14-6.5h-2v2h2zm-1-4c.275 0 .5.224.5.5 0 .225-.101.329-.24.411-.377.221-1.26.739-1.26 2.089h2c0-.347.505-.439.667-.637.529-.474.833-1.153.833-1.863 0-1.378-1.121-2.5-2.5-2.5s-2.5 1.122-2.5 2.5h2c0-.276.225-.5.5-.5zm7 9v8h-24v-8c0-1.657 1.343-3 3-3h8.264c-.794-1.135-1.264-2.513-1.264-4 0-3.86 3.141-7 7-7s7 3.14 7 7c0 1.66-.583 3.184-1.552 4.385.924.508 1.552 1.485 1.552 2.615zm-19 1.5c0-.828-.672-1.5-1.5-1.5s-1.5.672-1.5 1.5v3.5h1v-1.5h1v1.5h1zm3.096.544c-.546-.202-1.042-.42-1.055-.42-.118-.08-.114-.201-.108-.25.009-.065.057-.226.3-.299.545-.162 1.048.231 1.069.248l.618-.728c-.038-.031-.894-.841-1.986-.512-.556.168-.949.606-1.027 1.144-.072.506.147.993.644 1.309 0 0 .562.251 1.185.481.132.049.557.229.506.515-.038.212-.3.432-.671.432-.388 0-.761-.157-.998-.418l-.767.696c.437.482 1.08.758 1.765.758.847 0 1.558-.541 1.691-1.286.1-.563-.154-1.296-1.167-1.67zm4.196.456.768-2.5h-1.06l-.602 2h-.398v-2h-1v5h1v-2h.398l.602 2h1.06zm4.708-4.5c2.757 0 5-2.243 5-5s-2.243-5-5-5-5 2.243-5 5 2.243 5 5 5zm1 2h-1v3.5c0 .276-.224.5-.5.5s-.5-.224-.5-.5v-3.5h-1v3.5c0 .828.672 1.5 1.5 1.5s1.5-.672 1.5-1.5zm3.099 2.044c-.546-.202-1.042-.42-1.055-.42-.118-.08-.114-.201-.108-.25.009-.065.057-.226.3-.299.545-.162 1.048.231 1.069.248l.618-.728c-.038-.031-.894-.841-1.986-.512-.556.168-.949.606-1.027 1.144-.072.506.147.993.644 1.309 0 0 .562.251 1.185.481.132.049.557.229.506.515-.038.212-.3.432-.671.432-.388 0-.761-.157-.998-.418l-.767.696c.437.482 1.08.758 1.765.758.847 0 1.558-.541 1.691-1.286.1-.563-.154-1.296-1.167-1.67z"/></svg>