<svg id="Layer_1" viewBox="0 0 24 24" xmlns="http://www.w3.org/2000/svg" data-name="Layer 1"><path d="m6 20.02v-5h3v-2h-1v-3.02h1v-2h-6v-6h6v-2h-8v10h5v1.02l-3 2h-1c-1.105 0-2 .895-2 2v5c0 1.105.895 2 2 2h8.05l-.418-2zm-4-5h2v5h-2zm20-.02h-1l-3-2v-1.019l5 .019v-10h-5v1.18c1.201 0 2.189.925 2.291 2.1h-1.62c-.086-.289-.354-.5-.671-.5h-2.127c-.316 0-.573.257-.573.574 0 .272.194.509.461.562l2.792.559c1.013.202 1.747 1.099 1.747 2.131 0 1.199-.975 2.173-2.174 2.173h-.126v1.201h-2v-1.201c-1.201 0-2.189-.925-2.291-2.1h1.62c.086.289.354.5.671.5h2.126c.316 0 .574-.257.574-.574 0-.272-.194-.509-.462-.563l-2.791-.559c-1.013-.203-1.747-1.099-1.747-2.131 0-1.199.975-2.173 2.173-2.173h.127v-1.18h-5v9.981h5v3.02h-5v2l1.5 7h9.5c1.105 0 2-.895 2-2v-5c0-1.105-.895-2-2-2zm-8.965 2h4.965v5h-3.84zm8.965 5h-2v-5h2z"/></svg>