<svg id="Layer_1" viewBox="0 0 24 24" xmlns="http://www.w3.org/2000/svg" data-name="Layer 1"><path d="m12 0c-6.953 0-12 2.523-12 6v12c0 2.001 1.689 3.813 4.634 4.971l1.366.537v-14.149c-1.991-.637-4.135-2.131-4-3.359 0-1.932 4.019-4 10-4s10 2.068 10 4c.136 1.227-2.01 2.722-4 3.359v14.149l1.366-.537c2.944-1.158 4.634-2.97 4.634-4.971v-12c0-3.477-5.047-6-12-6zm-8 10.703v9.757c-1.273-.735-2-1.61-2-2.46v-8.482c.56.437 1.229.835 2 1.185zm18 7.297c0 .85-.727 1.726-2 2.46v-9.757c.771-.35 1.44-.749 2-1.185zm-14-8h3v2h-1v1h-2zm2 6h1v2h-3v-3h2zm4-1h2v3h-3.25v-2h1.25zm-1-5h3v3h-2v-1h-1z"/></svg>