<svg id="Layer_1" viewBox="0 0 24 24" xmlns="http://www.w3.org/2000/svg" data-name="Layer 1"><path d="m19 3h-2v-3h2zm4.207-.293-1.414-1.414-2 2 1.414 1.414zm-7 .586-2-2-1.414 1.414 2 2zm-12 0-2-2-1.414 1.414 2 2zm7-.586-1.414-1.414-2 2 1.414 1.414zm12.793 9.293v12h-2v-4h-20v4h-2v-12c0-1.654 1.346-3 3-3v-1c0-1.654 1.346-3 3-3s3 1.346 3 3v1h6v-1c0-1.654 1.346-3 3-3s3 1.346 3 3v1c1.654 0 3 1.346 3 3zm-7-3h2v-1c0-.552-.448-1-1-1s-1 .448-1 1zm-12 0h2v-1c0-.552-.448-1-1-1s-1 .448-1 1zm-3 7.086 5.086-5.086h-4.086c-.552 0-1 .448-1 1zm5.086 1.914 7-7h-4.172l-7 7zm7 0 7-7h-4.172l-7 7zm7.914-5.086-5.086 5.086h5.086zm-15-12.914h-2v3h2z"/></svg>