<svg id="Layer_1" viewBox="0 0 24 24" xmlns="http://www.w3.org/2000/svg" data-name="Layer 1"><path d="m9.518 12c.506.756 1.125 1.429 1.831 2h-5.349v4h10v-2.059c.329.036.662.059 1 .059s.671-.022 1-.059v4.059h-14v-8zm.482-5c0-3.86 3.14-7 7-7s7 3.14 7 7-3.14 7-7 7-7-3.14-7-7zm2 0c0 2.757 2.243 5 5 5s5-2.243 5-5-2.243-5-5-5-5 2.243-5 5zm6-4h-2v5h2zm0 6h-2v2h2zm2 6.477v5.523c0 .551-.449 1-1 1h-17v-12h6.523c-.226-.638-.388-1.305-.464-2h-8.059v16h19c1.654 0 3-1.346 3-3v-1h2v-7.349c-1.035 1.281-2.417 2.265-4 2.826z"/></svg>