<svg id="Layer_1" viewBox="0 0 24 24" xmlns="http://www.w3.org/2000/svg" data-name="Layer 1"><path d="m8 14c0 2.206 1.794 4 4 4s4-1.794 4-4c0-1.858-1.28-3.411-3-3.858v-1.142h-2v1.142c-1.72.447-3 2-3 3.858zm4-2c1.103 0 2 .897 2 2s-.897 2-2 2-2-.897-2-2 .897-2 2-2zm1-4h-2c0-1.654 1.346-3 3-3v2c-.551 0-1 .449-1 1zm2-2 1.333-.667.667-1.333.667 1.333 1.333.667-1.333.667-.667 1.333-.667-1.333zm9 6c0 .83-.322 1.608-.906 2.192l-8.903 8.918c-.563.564-1.362.889-2.19.889-.829 0-1.627-.323-2.191-.888l-8.905-8.92c-.584-.584-.905-1.363-.905-2.192s.321-1.608.905-2.192l8.903-8.919c.564-.565 1.362-.888 2.191-.888.829 0 1.627.323 2.191.888s2.108 2.111 2.108 2.111h-2.827l-.697-.698s0 0 0 0c-.191-.192-.474-.302-.775-.302-.302 0-.584.11-.776.302l-8.903 8.919c-.207.207-.32.484-.32.779s.114.573.32.78l8.903 8.919c.191.191.474.301.776.301.301 0 .584-.11.775-.302l8.904-8.918c.207-.207.321-.484.321-.781s-.114-.571-.32-.778 0 0 0 0l-2.498-2.502c.536-.431.937-1.011 1.146-1.683l2.768 2.772s0 0 0 0c.584.584.905 1.363.905 2.193z"/></svg>