<svg id="Layer_1" viewBox="0 0 24 24" xmlns="http://www.w3.org/2000/svg" data-name="Layer 1"><path d="m12.129 14 2.446-4-2.446-4h2.344l1.274 2.084 1.274-2.084h2.344l-2.446 4 2.446 4h-2.344l-1.274-2.084-1.274 2.084zm-5.129 0h2v-6h2v-2h-2v-3c0-.552.449-1 1-1h1v-2h-1c-1.654 0-3 1.346-3 3v3h-2v2h2zm15.922-8.303c-.545-.455-1.225-.687-1.922-.686v1.997c.303 0 .528.13.641.224.134.112.359.361.359.769v12.147l-9 1.637v-5.785h-2v5.785l-9-1.637v-12.147c0-.407.225-.656.359-.769.113-.094.336-.225.641-.224v-1.997c-.697-.001-1.377.232-1.922.686-.685.571-1.078 1.411-1.078 2.304v13.817l12 2.182 12-2.182v-13.817c0-.893-.393-1.732-1.078-2.304z"/></svg>