<svg id="Layer_1" viewBox="0 0 24 24" xmlns="http://www.w3.org/2000/svg" data-name="Layer 1"><path d="m17 10c-3.86 0-7 3.141-7 7s3.14 7 7 7 7-3.141 7-7-3.14-7-7-7zm0 12c-2.757 0-5-2.243-5-5s2.243-5 5-5 5 2.243 5 5-2.243 5-5 5zm-3-6h6v2h-6zm-12-8.729 6 3.429v6.3c0-2.141.751-4.105 1.999-5.65v-.646l6.001-3.43v.784c.329-.036.662-.059 1-.059s.671.022 1 .059v-2.963l-9.009-5.09-8.991 5.091v10.465l4.878 2.788s3.852 2.201 3.852 2.201c-.362-.842-.596-1.75-.686-2.701l-2.174-1.238s-.001 0-.002 0l-3.868-2.211zm6.992-4.968 5.872 3.318-5.861 3.35-5.866-3.353 5.854-3.315z"/></svg>