<svg id="Layer_1" viewBox="0 0 24 24" xmlns="http://www.w3.org/2000/svg" data-name="Layer 1"><path d="m12 0c-6.617 0-12 5.383-12 12s5.383 12 12 12 12-5.383 12-12-5.383-12-12-12zm1 21.949v-1.949h-2v1.949c-4.717-.471-8.479-4.232-8.949-8.949h1.949v-2h-1.949c.47-4.717 4.232-8.479 8.949-8.949v1.949h2v-1.949c4.717.471 8.479 4.232 8.949 8.949h-1.949v2h1.949c-.471 4.717-4.232 8.479-8.949 8.949zm-6-12.741v5.813l4.993 2.854 5.007-2.779v-5.889l-5.004-2.828zm6.92.556-1.919 1.097-1.921-1.098 1.916-1.085 1.924 1.087zm-4.92 1.685 2 1.143v2.412l-2-1.143zm4 3.58v-2.435l2-1.143v2.468z"/></svg>