<svg id="Layer_1" viewBox="0 0 24 24" xmlns="http://www.w3.org/2000/svg" data-name="Layer 1"><path d="m17.994 2.286c-1.908-1.705-4.47-2.514-7.038-2.227-4.052.458-7.366 3.723-7.881 7.763-.374 2.931.644 5.76 2.793 7.761 1.375 1.279 2.132 2.9 2.132 4.566v3.851h8v-3.685c0-1.816.704-3.475 1.932-4.552 1.95-1.708 3.068-4.173 3.068-6.763 0-2.56-1.096-5.007-3.006-6.714zm-3.994 19.714h-4c0-.051.003-2.015-.008-2h4.008zm2.613-7.741c-1.105.969-1.888 2.274-2.293 3.741h-4.641c-.421-1.43-1.248-2.765-2.448-3.881-1.671-1.556-2.463-3.759-2.171-6.043.399-3.138 2.974-5.673 6.121-6.029 2.027-.229 3.974.386 5.48 1.731 1.486 1.328 2.339 3.231 2.339 5.222 0 2.013-.87 3.93-2.387 5.259zm-9.613-8.079v5.813l4.993 2.854 5.007-2.78v-5.888l-5.006-2.828zm2 2.241 1.999 1.143v2.413l-1.999-1.143v-2.412zm3.999 3.581v-2.436l2.001-1.144v2.469l-2.001 1.11zm.92-5.265-1.919 1.096-1.921-1.098 1.916-1.085 1.923 1.087z"/></svg>