<svg id="Layer_1" viewBox="0 0 24 24" xmlns="http://www.w3.org/2000/svg" data-name="Layer 1"><path d="m17 10c-3.859 0-7 3.141-7 7s3.141 7 7 7 7-3.141 7-7-3.141-7-7-7zm0 12c-2.757 0-5-2.243-5-5s2.243-5 5-5 5 2.243 5 5-2.243 5-5 5zm-15-14.729 6 3.429v6.3c0-2.141.751-4.105 1.999-5.65v-.646l6.001-3.43v.784c.329-.036.662-.059 1-.059s.671.022 1 .059v-2.963l-9.009-5.09-8.991 5.091v10.465l4.878 2.788s3.852 2.201 3.852 2.201c-.362-.842-.596-1.75-.686-2.701l-2.174-1.238s-.001 0-.002 0l-3.868-2.211zm6.992-4.968 5.872 3.318-5.861 3.35-5.866-3.353 5.854-3.315zm11.508 15.197c0 1.654-1.346 3-3 3h-.5v-2h.5c.552 0 1-.448 1-1s-.448-1-1-1h-1.5v1.881l-2.276-2.276c-.299-.299-.299-.784 0-1.084l2.276-2.276v1.754h1.5c1.654 0 3 1.346 3 3z"/></svg>