<svg id="Layer_1" viewBox="0 0 24 24" xmlns="http://www.w3.org/2000/svg" data-name="Layer 1"><path d="m24 2v5h-2v-3.586l-3.293 3.293-1.414-1.414 3.293-3.293h-3.586v-2h4.977c1.116 0 2.023.897 2.023 2zm-17.305 16.695-1.414-1.414-3.29 3.264.008-3.545-1.988.01-.012 4.99c0 1.103.897 2 2 2h5.001v-2h-3.611s3.306-3.305 3.306-3.305zm-4.695-11.695-.005-3.591 3.298 3.298 1.414-1.414-3.269-3.293h3.562l-.012-1.988h-5c-1.102 0-1.988.88-1.988 1.988l.012 4.993zm20 13.598-3.291-3.303-1.418 1.41 3.253 3.295h-3.544l.012 1.988h4.977c1.103 0 2-.897 2-1.998l.012-4.988-2-.002v3.598zm-4-4.962-6.001 3.334-5.994-3.426v-6.976l5.995-3.394 6 3.394zm-6-8.164-2.901 1.642 2.903 1.662 2.909-1.66-2.911-1.645zm-4 6.912 3.005 1.715v-3.592l-3.005-1.715zm8.005.074v-3.664l-3.005 1.715v3.615z"/></svg>