<svg id="Layer_1" viewBox="0 0 24 24" xmlns="http://www.w3.org/2000/svg" data-name="Layer 1"><path d="m3 0c-1.654 0-3 1.346-3 3s1.346 3 3 3 3-1.346 3-3-1.346-3-3-3zm0 4c-.552 0-1-.449-1-1s.448-1 1-1 1 .449 1 1-.448 1-1 1zm0 4c-1.654 0-3 1.346-3 3s1.346 3 3 3 3-1.346 3-3-1.346-3-3-3zm0 4c-.552 0-1-.449-1-1s.448-1 1-1 1 .449 1 1-.448 1-1 1zm8-6c1.654 0 3-1.346 3-3s-1.346-3-3-3-3 1.346-3 3 1.346 3 3 3zm0-4c.552 0 1 .449 1 1s-.448 1-1 1-1-.449-1-1 .448-1 1-1zm-8 14c-1.654 0-3 1.346-3 3s1.346 3 3 3 3-1.346 3-3-1.346-3-3-3zm0 4c-.552 0-1-.448-1-1s.448-1 1-1 1 .448 1 1-.448 1-1 1zm21-.193v4.193h-2v-2.883l-6-2.616v-5.394c0-.538-.362-1.018-.825-1.093-.303-.049-.595.03-.822.224-.224.19-.353.468-.353.762v9.916s-3.3-2.629-3.32-2.647c-.402-.373-1.034-.354-1.41.048-.377.403-.356 1.038.046 1.416l2.352 2.268h-2.881l-.849-.818c-1.196-1.12-1.26-3.022-.13-4.23 1.109-1.188 2.963-1.263 4.173-.192l.018-5.76c0-.881.385-1.714 1.057-2.286.672-.571 1.559-.818 2.439-.674 1.428.232 2.504 1.551 2.504 3.067v4.083l6 2.616zm-16-8.807c0-1.654 1.346-3 3-3 .642 0 1.235.207 1.723.552-.341.174-.665.386-.962.639-.286.243-.539.515-.76.809-.552 0-1 .449-1 1 0 .223.087.418.211.585-.134.455-.211.93-.211 1.415v.816c-1.161-.414-2-1.514-2-2.816z"/></svg>