<svg id="Layer_1" viewBox="0 0 24 24" xmlns="http://www.w3.org/2000/svg" data-name="Layer 1"><path d="m14 16.5v2c0 .276-.224.5-.5.5s-.5-.224-.5-.5v-2c0-.276.224-.5.5-.5s.5.224.5.5zm10-1.5v8h-24v-8c0-1.657 1.343-3 3-3h8.264c-.794-1.135-1.264-2.513-1.264-4 0-3.86 3.141-7 7-7s7 3.14 7 7c0 1.66-.583 3.184-1.552 4.385.924.508 1.552 1.485 1.552 2.615zm-12-7c0 2.757 2.243 5 5 5s5-2.243 5-5-2.243-5-5-5-5 2.243-5 5zm-7.5 7h-1v3.5c0 .276-.224.5-.5.5s-.5-.224-.5-.5v-3.5h-1v3.5c0 .828.672 1.5 1.5 1.5s1.5-.672 1.5-1.5zm4 1.5c0-.827-.673-1.5-1.5-1.5h-1.5v5h1v-2h.5c.827 0 1.5-.673 1.5-1.5zm2.705 2.5h-1v-4h-1v5h2zm3.795-2.5c0-.828-.672-1.5-1.5-1.5s-1.5.672-1.5 1.5v2c0 .828.672 1.5 1.5 1.5s1.5-.672 1.5-1.5zm4 0c0-.828-.672-1.5-1.5-1.5s-1.5.672-1.5 1.5v3.5h1v-1.5h1v1.5h1zm4 0c0-.827-.673-1.5-1.5-1.5h-1.5v5h1.5c.827 0 1.5-.673 1.5-1.5zm-16-.5h-.5v1h.5c.275 0 .5-.224.5-.5s-.225-.5-.5-.5zm10.5 0c-.276 0-.5.224-.5.5v1h1v-1c0-.276-.224-.5-.5-.5zm4 0h-.5v3h.5c.275 0 .5-.225.5-.5v-2c0-.275-.225-.5-.5-.5zm-1.5-7h-6v2h6zm-.25-2-2.318-2.265c-.238-.238-.626-.238-.864 0l-2.318 2.265h1.75v1h2v-1z"/></svg>