<svg id="Layer_1" viewBox="0 0 24 24" xmlns="http://www.w3.org/2000/svg" data-name="Layer 1"><path d="m14 4h6v2h-6zm6.5 14h-.5v3h.5c.275 0 .5-.225.5-.5v-2c0-.275-.225-.5-.5-.5zm2.78-7.927c.445.52.72 1.188.72 1.927v12h-24v-12c0-1.657 1.343-3 3-3h7.295c-.19-.634-.295-1.305-.295-2 0-3.86 3.14-7 7-7s7 3.14 7 7c0 1.103-.263 2.143-.72 3.073zm-21.28 5.927h1.5c.827 0 1.5-.673 1.5-1.5v-2c0-.827-.673-1.5-1.5-1.5h-1.5zm4 2h-4v4h4zm1.5-2c.828 0 1.5-.672 1.5-1.5v-2c0-.828-.672-1.5-1.5-1.5s-1.5.672-1.5 1.5v2c0 .828.672 1.5 1.5 1.5zm2.5 5h-1v-4h-1v5h2zm4-2.5c0-.828-.672-1.5-1.5-1.5s-1.5.672-1.5 1.5v2c0 .828.672 1.5 1.5 1.5s1.5-.672 1.5-1.5zm4 0c0-.828-.672-1.5-1.5-1.5s-1.5.672-1.5 1.5v3.5h1v-1.5h1v1.5h1zm4 0c0-.827-.673-1.5-1.5-1.5h-1.5v5h1.5c.827 0 1.5-.673 1.5-1.5zm0-11.5c0-2.757-2.243-5-5-5s-5 2.243-5 5c0 1.641.806 3.088 2.031 4h-.031v3.5c0 .276-.224.5-.5.5s-.5-.224-.5-.5v-3.5h-1v3.5c0 .276-.224.5-.5.5s-.5-.224-.5-.5v-3.5h-1v3.5c0 .828.672 1.5 1.5 1.5.386 0 .734-.15 1-.39.266.24.614.39 1 .39.828 0 1.5-.672 1.5-1.5v-2.924c.318.14.651.252 1 .323v4.101h1v-3.5c0-.276.224-.5.5-.5s.5.224.5.5v3.5h1v-3.5c0-.308-.094-.594-.253-.832 1.894-.712 3.253-2.528 3.253-4.668zm-18 7.5v-2c0-.275-.225-.5-.5-.5h-.5v3h.5c.275 0 .5-.225.5-.5zm12.5 3.5c-.276 0-.5.224-.5.5v1h1v-1c0-.276-.224-.5-.5-.5zm-9-6c-.276 0-.5.224-.5.5v2c0 .276.224.5.5.5s.5-.224.5-.5v-2c0-.276-.224-.5-.5-.5zm5 6c-.276 0-.5.224-.5.5v2c0 .276.224.5.5.5s.5-.224.5-.5v-2c0-.276-.224-.5-.5-.5zm5.5-10v-1h-2v1h-1.75l2.318 2.265c.238.238.626.238.864 0l2.318-2.265z"/></svg>