<svg id="Layer_1" viewBox="0 0 24 24" xmlns="http://www.w3.org/2000/svg" data-name="Layer 1"><path d="m17 16.5c0 .276-.224.5-.5.5h-.5v-1h.5c.276 0 .5.224.5.5zm-4.5-.5c-.276 0-.5.224-.5.5v1h1v-1c0-.276-.224-.5-.5-.5zm2.537-6.603 1.977 1.235c.068.765.704 1.368 1.487 1.368.828 0 1.5-.672 1.5-1.5s-.672-1.5-1.5-1.5c-.19 0-.37.039-.537.103l-1.765-1.103 1.765-1.103c.167.064.347.103.537.103.828 0 1.5-.672 1.5-1.5s-.672-1.5-1.5-1.5c-.783 0-1.419.602-1.487 1.368l-1.977 1.235c-.167-.064-.347-.103-.537-.103-.828 0-1.5.672-1.5 1.5s.672 1.5 1.5 1.5c.19 0 .37-.039.537-.103zm8.963 5.603v8h-24v-8c0-1.657 1.343-3 3-3h8.264c-.794-1.135-1.264-2.513-1.264-4 0-3.86 3.14-7 7-7s7 3.14 7 7c0 1.66-.583 3.184-1.552 4.385.924.508 1.552 1.485 1.552 2.615zm-12-7c0 2.757 2.243 5 5 5s5-2.243 5-5-2.243-5-5-5-5 2.243-5 5zm-7.21 9.044c-.546-.202-1.042-.42-1.055-.42-.118-.08-.114-.201-.108-.25.009-.065.057-.226.3-.299.545-.162 1.048.231 1.069.248l.618-.728c-.038-.031-.894-.841-1.986-.512-.556.168-.949.606-1.027 1.144-.072.506.147.993.644 1.309 0 0 .562.251 1.185.481.132.049.557.229.506.515-.038.212-.3.432-.671.432-.388 0-.761-.157-.998-.418l-.767.696c.437.482 1.08.758 1.765.758.847 0 1.558-.541 1.691-1.286.1-.563-.154-1.296-1.167-1.67zm5.21-2.044h-1v2h-1v-2h-1v5h1v-2h1v2h1zm4 1.5c0-.828-.672-1.5-1.5-1.5s-1.5.672-1.5 1.5v3.5h1v-1.5h1v1.5h1zm4.06 3.5-.699-2.275c.385-.272.639-.718.639-1.225 0-.828-.672-1.5-1.5-1.5h-1.5v5h1v-2h.398l.602 2zm2.94-5h-2v5h2v-1h-1v-1h1v-1h-1v-1h1z"/></svg>