<svg id="Layer_1" viewBox="0 0 24 24" xmlns="http://www.w3.org/2000/svg" data-name="Layer 1"><path d="m20.5 7.945-5.5 3.056v-6.112zm-14 8.055h-.5v1h.5c.275 0 .5-.224.5-.5s-.225-.5-.5-.5zm7 0c-.276 0-.5.224-.5.5v1h1v-1c0-.276-.224-.5-.5-.5zm10.5-1v8h-24v-8c0-1.657 1.343-3 3-3h8.264c-.794-1.135-1.264-2.513-1.264-4 0-3.86 3.141-7 7-7s7 3.14 7 7c0 1.66-.583 3.184-1.552 4.385.924.508 1.552 1.485 1.552 2.615zm-12-7c0 2.757 2.243 5 5 5s5-2.243 5-5-2.243-5-5-5-5 2.243-5 5zm-4 8.5c0-.827-.673-1.5-1.5-1.5h-1.5v5h1v-2h.5c.827 0 1.5-.673 1.5-1.5zm3 2.5h-1v-4h-1v5h2zm4-2.5c0-.828-.672-1.5-1.5-1.5s-1.5.672-1.5 1.5v3.5h1v-1.5h1v1.5h1zm4-1.5h-1.039l-.557 1.979-.557-1.979h-1.039l1.096 3.887v1.113h1v-1.113z"/></svg>