<svg id="Layer_1" viewBox="0 0 24 24" xmlns="http://www.w3.org/2000/svg" data-name="Layer 1"><path d="m22 16.899c.743-.152 1.416-.482 2-.924v8.026h-24v-15c0-1.654 1.346-3 3-3h7v2h-7c-.551 0-1 .448-1 1v2h8v1c0 .342.035.677.101 1h-8.101v9h20v-5.101zm2-11.899v7c0 1.654-1.346 3-3 3h-6c-1.654 0-3-1.346-3-3v-7h2v-1c0-2.206 1.794-4 4-4s4 1.794 4 4v1zm-8 0h4v-1c0-1.103-.897-2-2-2s-2 .897-2 2zm6 2h-8v5c0 .552.449 1 1 1h6c.551 0 1-.448 1-1zm-3 2h-2v2h2zm-15 9.5c0 .828.672 1.5 1.5 1.5s1.5-.672 1.5-1.5-.672-1.5-1.5-1.5-1.5.672-1.5 1.5z"/></svg>