<svg id="Layer_1" viewBox="0 0 24 24" xmlns="http://www.w3.org/2000/svg" data-name="Layer 1"><path d="m22.564 15.829-2.295 2.303c-.128.128-.277.147-.354.147s-.227-.02-.355-.148l-2.387-2.389 2.731-2.731-10.698-10.7c-1.169-1.166-3.07-1.167-4.238.001l-3.468-2.312-1.5 1.5 2.312 3.468c-.564.567-.875 1.318-.874 2.118 0 .802.313 1.556.88 2.121l7.79 7.793h-5.108v2h6.086l-3.57 3.57 1.414 1.414 6.828-6.828 2.386 2.388c.473.474 1.102.735 1.771.735s1.298-.262 1.771-.735l2.295-2.303-1.416-1.412zm-6.805-1.502-2.796-2.799 1.315-1.315 2.797 2.798zm-12.321-7.242c0-.268.104-.519.293-.708l2.649-2.649c.195-.195.452-.292.708-.292s.511.097.705.29l5.071 5.073-4.064 4.064-5.069-5.071c-.189-.188-.294-.44-.294-.707zm9.573 9.99-2.797-2.798 1.335-1.335 2.796 2.799z"/></svg>