<svg id="Layer_1" viewBox="0 0 24 24" xmlns="http://www.w3.org/2000/svg" data-name="Layer 1"><path d="m22 18h2v6h-7.059c-1.293 0-2.437-.824-2.846-2.051l-1.518-4.553-6.432 3.646-1.115-2.042-2.148 1.191-2.011-3.686 2.13-1.181-3.001-2.158 10.142-5.69c.127.681.343 1.329.632 1.938l-7.063 3.957.865.62 2.352 4.309 8.406-4.765c.835.296 1.73.465 2.667.465.211 0 .417-.016.624-.031l-4.273 2.422 1.642 4.926c.136.409.518.684.949.684h5.059v-4zm-3-11h-2v2h2zm0-4h-2v3h2zm-7 3c0-3.309 2.691-6 6-6s6 2.691 6 6-2.691 6-6 6-6-2.691-6-6zm2 0c0 2.206 1.794 4 4 4s4-1.794 4-4-1.794-4-4-4-4 1.794-4 4z"/></svg>