<?xml version="1.0" encoding="UTF-8"?>
<svg xmlns="http://www.w3.org/2000/svg" id="Layer_1" data-name="Layer 1" viewBox="0 0 24 24">
  <path d="M12,10c-2.991,0-5,1.206-5,3v8.593c0,1.11,1.31,2.407,5,2.407s5-1.296,5-2.407V13c0-1.794-2.009-3-5-3Zm3,7.408c-.244,.199-1.11,.592-3,.592s-2.756-.393-3-.592v-1.934c.81,.335,1.825,.526,3,.526s2.19-.191,3-.526v1.934Zm-3,4.592c-1.873,0-2.747-.388-3-.589v-1.821c.751,.248,1.725,.41,3,.41s2.249-.162,3-.41v1.821c-.253,.201-1.127,.589-3,.589Zm0-8c-1.998,0-3-.641-3-1s1.002-1,3-1,3,.641,3,1-1.002,1-3,1Zm12-1.5c0,3.258-2.092,6.03-5,7.062v-2.17c1.778-.912,3-2.761,3-4.893,0-2.688-1.919-4.966-4.563-5.419l-.587-.101-.191-.564c-.894-2.641-3.369-4.415-6.159-4.415-3.584,0-6.5,2.916-6.5,6.5,0,.612,.085,1.219,.253,1.802l.219,.759-.688,.388c-1.1,.621-1.783,1.79-1.783,3.05,0,1.93,1.346,3.5,3,3.5v2c-2.757,0-5-2.467-5-5.5,0-1.722,.811-3.334,2.157-4.367-.104-.536-.157-1.083-.157-1.633C2,3.813,5.813,0,10.5,0c3.453,0,6.537,2.079,7.848,5.23,3.308,.833,5.652,3.803,5.652,7.27Z"/>
</svg>
