<?xml version="1.0" encoding="UTF-8"?>
<svg xmlns="http://www.w3.org/2000/svg" id="Layer_1" data-name="Layer 1" viewBox="0 0 24 24">
  <path d="M13,20h-2v-2h2v2Zm3-6h2v7c0,1.654-1.346,3-3,3h-6c-1.654,0-3-1.346-3-3v-7h2v-1c0-2.206,1.794-4,4-4s4,1.794,4,4v1Zm-6,0h4v-1c0-1.103-.897-2-2-2s-2,.897-2,2v1Zm6,2H8v5c0,.551,.449,1,1,1h6c.551,0,1-.449,1-1v-5Zm2.348-10.77C17.037,2.079,13.953,0,10.5,0,5.813,0,2,3.813,2,8.5c0,.55,.053,1.097,.157,1.633-1.347,1.033-2.157,2.645-2.157,4.367,0,2.656,1.721,4.878,4,5.389v-2.104c-1.161-.483-2-1.766-2-3.285,0-1.261,.684-2.43,1.783-3.05l.688-.388-.219-.759c-.168-.583-.253-1.19-.253-1.802,0-3.584,2.916-6.5,6.5-6.5,2.79,0,5.265,1.774,6.159,4.415l.191,.564,.587,.101c2.644,.453,4.563,2.732,4.563,5.419,0,1.704-.779,3.23-2,4.239v2.389c2.376-1.26,4-3.757,4-6.628,0-3.467-2.344-6.437-5.652-7.27Z"/>
</svg>
