<svg id="Layer_1" viewBox="0 0 24 24" xmlns="http://www.w3.org/2000/svg" data-name="Layer 1"><path d="m23.53 1.756c-.566-.961-1.513-1.591-2.598-1.729-1.077-.135-2.146.227-2.915.997l-.411.41 1.412 1.416.412-.411c.33-.332.787-.484 1.251-.428.473.06.872.33 1.126.76.257.436.257 1.021 0 1.457-.272.462-.724.743-1.237.77-2.036.106-4.021 1.028-5.589 2.597l-3.232 3.24-1.767-1.767-8.957 8.957c-1.365 1.364-1.365 3.585 0 4.949.661.661 1.54 1.025 2.475 1.025s1.814-.364 2.475-1.025l8.957-8.956-1.768-1.768 3.233-3.241c1.218-1.218 2.737-1.933 4.277-2.013 1.179-.062 2.246-.716 2.856-1.751.624-1.06.624-2.428 0-3.487zm-18.97 19.805c-.565.566-1.554.566-2.121 0-.584-.585-.584-1.536 0-2.121l7.543-7.543 2.121 2.121z"/></svg>