<svg id="Layer_1" viewBox="0 0 24 24" xmlns="http://www.w3.org/2000/svg" data-name="Layer 1"><path d="m20.814 4.743-3.783-3.226c-.646-.66-1.781-.67-2.438-.023l-2.072 2.021c-.678.664-.702 1.745-.031 2.434l1.688 1.625-2.181 2.181-2.181-2.181 1.712-1.648c.647-.665.623-1.746-.057-2.411l-2.068-2.019c-.657-.649-1.857-.579-2.376-.039l-3.913 3.348c-3.821 3.91-3.312 7.815-2.67 9.795l.493 1.52 4.555-4.384 2.262 2.262-4.781 4.781 4.242 4.242 4.781-4.781 4.781 4.781 4.242-4.242-4.781-4.781 2.262-2.262 4.555 4.384.493-1.52c.643-1.979 1.151-5.885-2.735-9.856zm-16.335 1.522 3.702-3.167 1.689 1.648-7.859 7.565c-.137-1.734.352-3.876 2.468-6.046zm2.737 13.928-1.414-1.414 3.367-3.367 1.414 1.414zm9.562 0-9.844-9.845 1.441-1.387 9.817 9.817-1.414 1.414zm-1.953-7.609-1.414-1.414 2.208-2.208 1.441 1.387zm7.157-.273-7.859-7.562 1.688-1.647 3.64 3.104c2.164 2.215 2.666 4.369 2.532 6.106z"/></svg>