<svg id="Layer_1" viewBox="0 0 24 24" xmlns="http://www.w3.org/2000/svg" data-name="Layer 1"><path d="m24 1.614-5.431-1.614-1.531 1.624-1.54-1.54s-13.622 13.547-13.74 13.666c-1.283 1.284-1.912 3.056-1.726 4.863.187 1.807 1.181 3.423 2.728 4.436.974.636 2.136.951 3.266.951 1.204 0 2.377-.358 3.395-1.074 1.291-.908 2.165-2.247 2.461-3.772.437-2.247 1.33-4.059 2.655-5.384l7.323-7.324-1.314-1.314c.795-.805 3.454-3.518 3.454-3.518zm-10.877 10.742c-1.612 1.612-2.69 3.771-3.204 6.417-.197 1.014-.782 1.908-1.648 2.517-1.311.921-3.086.955-4.415.085-1.057-.691-1.707-1.745-1.834-2.967-.125-1.206.295-2.387 1.151-3.244.13-.13 9.625-9.573 12.321-12.255l3.538 3.538-5.909 5.91zm-4.83.437 1.414 1.414-3.5 3.5-1.414-1.414z"/></svg>