<svg id="Layer_1" viewBox="0 0 24 24" xmlns="http://www.w3.org/2000/svg" data-name="Layer 1"><path d="m8 12c-1.381 0-2.5-1.119-2.5-2.5s1.119-2.5 2.5-2.5 2.5 1.119 2.5 2.5-1.119 2.5-2.5 2.5zm-6-7c0-.551.449-1 1-1h12v-2h-12c-1.654 0-3 1.346-3 3v17h15v-2h-13zm20 2h-2v2h2zm0 6h2v-2h-2zm0 2h-2v2h2zm0-12v2h2v-2zm-7 6h2v-2h-2zm2 4h2v-2h-2zm0 2h-2v2h2zm5 6h2v-2h-2zm-5 0h2v-2h-2zm0-16h2v-2h-2zm-5 12v-1.5c0-1.378-1.122-2.5-2.5-2.5h-3c-1.378 0-2.5 1.122-2.5 2.5v1.5h2v-1.5c0-.276.224-.5.5-.5h3c.276 0 .5.224.5.5v1.5z"/></svg>