<svg id="Layer_1" viewBox="0 0 24 24" xmlns="http://www.w3.org/2000/svg" data-name="Layer 1"><path d="m21 0h-18c-1.654 0-3 1.346-3 3v21h24v-21c0-1.654-1.346-3-3-3zm1 3v2.076c-.598.554-2.241 1.948-5 3.352v-6.428h4c.552 0 1 .448 1 1zm-13 8.186v-9.186h6v7.341c-1.695.711-3.693 1.362-6 1.845zm-6-9.186h4v9.543c-1.546.235-3.212.384-5 .427v-8.97c0-.552.448-1 1-1zm-1 20v-8.03c10.601-.236 17.127-4.076 20-6.281v14.312h-20zm5-3.5c0 .828-.672 1.5-1.5 1.5s-1.5-.672-1.5-1.5.672-1.5 1.5-1.5 1.5.672 1.5 1.5zm6.5 0c0 .828-.672 1.5-1.5 1.5s-1.5-.672-1.5-1.5.672-1.5 1.5-1.5 1.5.672 1.5 1.5zm6.5 0c0 .828-.672 1.5-1.5 1.5s-1.5-.672-1.5-1.5.672-1.5 1.5-1.5 1.5.672 1.5 1.5z"/></svg>