<svg id="Layer_1" viewBox="0 0 24 24" xmlns="http://www.w3.org/2000/svg" data-name="Layer 1"><path d="m15.32 10.169c.329.598.111 1.35-.488 1.678-.598.329-1.35.111-1.679-.487s-.108-2.761-.108-2.761 1.945.972 2.274 1.57zm8.68 7.068c0 2.098-.536 3.653-1.639 4.752-1.894 1.888-4.861 2.01-8.692 2.01h-2.518c-4.151 0-7.479.019-9.513-2.01-1.103-1.1-1.639-2.654-1.639-4.752.001-4.471 2.44-8.913 6.068-11.269-.208-.224-.388-.436-.498-.604-1.048-1.595-.604-3.743.989-4.791 1.098-.72 2.62-.751 3.776-.149 1.017-.548 2.315-.548 3.331 0 1.157-.602 2.68-.571 3.775.149.772.507 1.301 1.285 1.488 2.19s.01 1.828-.497 2.6c-.103.156-.268.367-.478.603 3.663 2.357 6.046 6.72 6.046 11.272zm-2 0c0-4.221-2.521-8.397-6.131-10.156l-1.372-.669 1.162-.991c.526-.449.968-.957 1.101-1.159.442-.672.255-1.578-.418-2.02-.562-.37-1.522-.308-2.013.132l-.661.594-.667-.587c-.555-.488-1.447-.488-2.002 0l-.667.587-.661-.594c-.49-.44-1.448-.502-2.014-.132-.672.442-.859 1.349-.417 2.021.096.146.548.638 1.144 1.179l1.094.993-1.327.647c-3.621 1.764-6.15 5.94-6.15 10.156 0 1.54.344 2.632 1.051 3.337 1.446 1.442 4.521 1.441 8.096 1.427h1.707c3.568.015 6.65.016 8.096-1.427.707-.705 1.051-1.797 1.051-3.337zm-13.347-7.068c-.329.598-.111 1.35.488 1.678.598.329 1.35.111 1.679-.487s.108-2.761.108-2.761-1.945.972-2.274 1.57z"/></svg>