<svg id="Layer_1" viewBox="0 0 24 24" xmlns="http://www.w3.org/2000/svg" data-name="Layer 1"><path d="m21 0h-7.319l-13.681 13.682v7.318c0 1.654 1.346 3 3 3h7.319l13.681-13.682v-7.318c0-1.654-1.346-3-3-3zm1 3v6.194c-.569-.32-1.273-.625-2.07-.847.241-1.16-.099-2.397-.99-3.287-.889-.891-2.125-1.232-3.283-.992-.223-.798-.529-1.501-.85-2.068h6.193c.551 0 1 .448 1 1zm-15.526 14.525c-.405-.405-.553-.99-.428-1.524.762-.022 1.526-.133 2.263-.316-.186.75-.294 1.515-.312 2.272-.536.13-1.113-.023-1.523-.432zm11.475-9.511c-.669-.04-1.371-.007-2.09.125.134-.721.168-1.424.129-2.093.537-.135 1.121.013 1.536.429.409.409.556 1.002.424 1.539zm-4.374.892c-.878.439-1.754 1.06-2.602 1.908-.698.698-1.296 1.545-1.77 2.476-1.882.785-4.315 1.051-6.096.113l10.108-10.109c.607 1.225 1.228 3.328.361 5.612zm-1.188 3.322c3.129-3.128 6.579-2.277 8.312-1.437l-10.099 10.099c-1.317-2.534-.318-6.557 1.787-8.662zm-10.387 8.772v-5.92c.635.362 1.322.609 2.036.756-.171 1.105.18 2.261 1.023 3.104.702.702 1.625 1.065 2.558 1.065.184 0 .369-.015.552-.043.15.721.397 1.409.754 2.038h-5.923c-.551 0-1-.448-1-1z"/></svg>