<svg id="Layer_1" viewBox="0 0 24 24" xmlns="http://www.w3.org/2000/svg" data-name="Layer 1"><path d="m24 3v9.991c-.617-.766-1.313-1.456-2-2.087v-7.904c0-.551-.449-1-1-1h-8v10.068c-1.073 1.091-2.142 2.242-2.674 3.932h-2.326v-2h3v-12h-8c-.551 0-1 .449-1 1v19h9.105c.432.751.974 1.43 1.621 2h-12.726v-21c0-1.654 1.346-3 3-3h18c1.654 0 3 1.346 3 3zm-15 9h-5v-8h5zm-2-6h-1v4h1zm17 11.987c0 3.309-2.691 6-6 6s-6-2.691-6-6c0-1.759.979-3.688 1.945-4.686l1.369-1.412.334 1.94c.062.36.184.774.298 1.039.111-.222.23-.714.307-1.031.203-.84.456-1.884 1.144-2.899l.679-1.001c.61.617 1.27 1.279 1.968 1.864 1.669 1.453 3.955 3.443 3.955 6.186zm-2 0c0-1.987-1.911-3.492-3.474-4.857-.138.391-.234.787-.328 1.177-.273 1.131-.648 2.68-2.464 2.68-.582 0-1.008-.317-1.319-.763-.248.577-.416 1.205-.416 1.763 0 1.525.867 2.837 2.125 3.512-.257-.708-.107-1.53.46-2.097l1.415-1.415 1.414 1.415c.567.568.717 1.39.46 2.097 1.258-.675 2.126-1.987 2.126-3.512zm-2-8.955v-5.032h-5v5.501l2-1.934v-1.567h1v1.032z"/></svg>