<svg id="Layer_1" viewBox="0 0 24 24" xmlns="http://www.w3.org/2000/svg" data-name="Layer 1"><path d="m12 0c-6.617 0-12 5.383-12 12s5.383 12 12 12 12-5.383 12-12-5.383-12-12-12zm1 21.949v-1.949h-2v1.949c-4.717-.471-8.479-4.232-8.949-8.949h1.949v-2h-1.949c.47-4.717 4.232-8.479 8.949-8.949v1.949h2v-1.949c4.717.471 8.479 4.232 8.949 8.949h-1.949v2h1.949c-.471 4.717-4.232 8.479-8.949 8.949zm-1.5-6.449c0 .828-.672 1.5-1.5 1.5s-1.5-.672-1.5-1.5.672-1.5 1.5-1.5 1.5.672 1.5 1.5zm4 0c0 .828-.672 1.5-1.5 1.5s-1.5-.672-1.5-1.5.672-1.5 1.5-1.5 1.5.672 1.5 1.5zm-2-9.5c-.628 0-1.046.555-1.5 1-.454-.445-.872-1-1.5-1-1.229 0-2.5 2.981-3 5h-1.5v2h12v-2h-1.5c-.5-2.019-1.771-5-3-5zm-3.929 5c.301-1.039.711-1.965 1.05-2.551l1.379 1.352 1.379-1.352c.339.586.749 1.512 1.05 2.551h-4.859z"/></svg>