<svg id="Layer_1" viewBox="0 0 24 24" xmlns="http://www.w3.org/2000/svg" data-name="Layer 1"><path d="m19 7h-5v-2h5zm-8.5.5c0-1.381-1.119-2.5-2.5-2.5s-2.5 1.119-2.5 2.5 1.119 2.5 2.5 2.5 2.5-1.119 2.5-2.5zm10.5-7.5h-18c-1.654 0-3 1.346-3 3v17h12.305c-.187-.605-.305-1.254-.305-1.959v-.041h-10v-15c0-.551.449-1 1-1h18c.551 0 1 .449 1 1v7.432l1.336.443c.235.078.454.182.664.299v-8.174c0-1.654-1.346-3-3-3zm-9 15v-1.5c0-1.378-1.122-2.5-2.5-2.5h-3c-1.378 0-2.5 1.122-2.5 2.5v1.5h2v-1.5c0-.276.224-.5.5-.5h3c.276 0 .5.224.5.5v1.5zm12-.436v3.477c0 3.652-3.398 5.304-4.44 5.723l-.603.237-.582-.285c-1.026-.513-4.375-2.438-4.375-5.675v-3.477c0-.814.52-1.534 1.293-1.791l3.707-1.229 3.707 1.229c.773.256 1.293.976 1.293 1.791zm-2 .083-3-.995-3 .995v3.394c0 1.929 2.206 3.312 3.045 3.769.923-.416 2.955-1.579 2.955-3.769zm-8-3.646h.368c.099-.042 4.632-1.562 4.632-1.562v-.438h-5z"/></svg>