<svg id="Layer_1" viewBox="0 0 24 24" xmlns="http://www.w3.org/2000/svg" data-name="Layer 1"><path d="m19.713.999-.826.829c-.572.571-.887 1.333-.887 2.143 0 .358.071.703.189 1.029h-1.856l-2.242 5.382-4.251-6.097c-.56-.805-1.48-1.285-2.461-1.285h-4.379v8c-1.654 0-3 1.346-3 3v5h1v.5c0 1.93 1.57 3.5 3.5 3.5s3.5-1.57 3.5-3.5v-.5h2v.5c0 1.93 1.57 3.5 3.5 3.5s3.5-1.57 3.5-3.5v-.5h1v-5c0-1.327-.872-2.442-2.068-2.837l1.735-4.163h3.333v-.003c.01 0 .02.003.03.003.811 0 1.572-.316 2.143-.887l.827-.827zm-14.713 4.001h2.379c.327 0 .634.16.82.429l3.884 5.571h-7.083zm1 14.5c0 .827-.673 1.5-1.5 1.5s-1.5-.673-1.5-1.5v-.5h3zm9 0c0 .827-.673 1.5-1.5 1.5s-1.5-.673-1.5-1.5v-.5h3zm1-2.5h-14v-3c0-.552.448-1 1-1h12c.552 0 1 .448 1 1z"/></svg>