<?xml version="1.0" encoding="UTF-8"?>
<svg xmlns="http://www.w3.org/2000/svg" id="Layer_1" data-name="Layer 1" viewBox="0 0 24 24">
  <path d="M23,6v2.414l-8,8v7.688l-6-3.865v-3.824L1,8.414v-2.414c0-1.654,1.346-3,3-3h2v2h-2c-.551,0-1,.449-1,1v1.586L11,15.586v3.561l2,1.289v-4.85L21,7.586v-1.586c0-.551-.449-1-1-1h-2V3h2c1.654,0,3,1.346,3,3Zm-7,3h-5.154c.1-.291,.154-.602,.154-.925v-1.075h3v-2h-3v-1.75c0-.689,.561-1.25,1.25-1.25,.601,0,1.08,.434,1.199,1h2.025c-.13-1.674-1.518-3-3.225-3-1.792,0-3.25,1.458-3.25,3.25v1.75h-1v2h1v1.075c0,.493-.467,.925-1,.925v2h8v-2Z"/>
</svg>
