<svg id="Layer_1" viewBox="0 0 24 24" xmlns="http://www.w3.org/2000/svg" data-name="Layer 1"><path d="m12 12.804-2.121 2.075c-.567.567-.879 1.32-.879 2.122s.312 1.555.878 2.121c.566.567 1.32.879 2.122.879s1.554-.312 2.121-.878c.567-.567.879-1.32.879-2.122s-.312-1.555-.887-2.129l-2.113-2.067zm.707 4.903c-.378.378-1.036.379-1.414 0-.189-.188-.293-.439-.293-.707s.104-.518.285-.699l.715-.699.707.692c.189.188.293.439.293.707s-.104.518-.293.707zm4.293-8.707v-4h-2.758l-.934-5h-2.615l-.934 5h-2.758v4c-1.654 0-3 1.346-3 3v12h15.999v-12c0-1.654-1.346-3-3-3zm-2-2v2h-6v-2zm3 15h-12v-10c0-.551.449-1 1-1h10c.551 0 1 .449 1 1z"/></svg>