<svg id="Layer_1" viewBox="0 0 24 24" xmlns="http://www.w3.org/2000/svg" data-name="Layer 1"><path d="m18.5 19.5c0 .828-.672 1.5-1.5 1.5s-1.5-.672-1.5-1.5.672-1.5 1.5-1.5 1.5.672 1.5 1.5zm-13.5 4.5h2v-14.828l-2 2zm-5 0h2v-9.828l-2 2zm22-24h-5v2h3.586l-5.086 5.086-6-6-9.38 9.38 1.414 1.414 7.966-7.966 6 6 6.5-6.5v3.586h2v-5c0-1.103-.897-2-2-2zm1.389 19.041.237.46-.238.46c-.492.947-2.406 4.039-6.387 4.039-3.939 0-6.263-3.825-6.36-3.988l-.284-.478.255-.493c.49-.948 2.398-4.041 6.39-4.041s5.896 3.093 6.388 4.041zm-2.045.458c-.596-.926-1.961-2.499-4.343-2.499-2.346 0-3.704 1.522-4.315 2.453.646.846 2.207 2.547 4.315 2.547 2.378 0 3.745-1.574 4.343-2.501zm.656-10.499h-2v4.509c.755.267 1.42.619 2 1.018zm-10 5.531v-5.448l-2-2v9.291c.505-.615 1.169-1.271 2-1.843z"/></svg>