<svg id="Layer_1" viewBox="0 0 24 24" xmlns="http://www.w3.org/2000/svg" data-name="Layer 1"><path d="m3.5 4h2v2h-2zm18.5 8c0 .206-.019.407-.031.61.62.424 1.084 1.047 1.331 1.771.143.063.273.145.408.221.187-.839.293-1.708.293-2.603-.001-6.616-5.384-11.999-12.001-11.999h-1v11.586l-6.738 6.739c-1.412-1.725-2.262-3.927-2.262-6.324 0-.338.018-.671.051-1h-2c-.027.331-.051.662-.051 1 0 6.617 5.383 12 12 12v-2c-2.398 0-4.599-.85-6.324-2.262l7.324-7.324v-10.365c5.046.503 9 4.773 9 9.95zm2 6.5v5.5h-10v-5.5c0-1.379 1.122-2.5 2.5-2.5v-.5c0-.827.673-1.5 1.5-1.5h2c.827 0 1.5.673 1.5 1.5v.5c1.378 0 2.5 1.121 2.5 2.5zm-2 0c0-.275-.224-.5-.5-.5h-1.5v2h-2v-2h-1.5c-.276 0-.5.225-.5.5v3.5h6zm-13-9.5h-9v-5.008c0-.671.303-1.293.833-1.706l2.332-1.825c.393-.309.864-.461 1.335-.461s.943.152 1.336.461l2.332 1.825c.529.413.833 1.035.833 1.706v5.008zm-2-5.008c0-.051-.023-.099-.063-.13s-2.333-1.827-2.333-1.827c-.062-.047-.145-.047-.205 0l-2.334 1.826c-.041.032-.064.08-.064.131v3.008h4.999z"/></svg>