<svg id="Layer_1" viewBox="0 0 24 24" xmlns="http://www.w3.org/2000/svg" data-name="Layer 1"><path d="m8.835 17.514c-.647.647-1.701.647-2.349 0s-.647-1.701 0-2.349l5.046-5.046-4.212-4.212-5.09 5.09c-1.515 1.515-2.231 3.514-2.231 5.503 0 1.923.776 3.814 2.231 5.269 1.485 1.485 3.344 2.231 5.269 2.231 1.951 0 4.019-.746 5.503-2.231l5.09-5.09-4.212-4.212-5.046 5.046zm-.13-7.395-1.086 1.086-1.384-1.384 1.086-1.086zm-5.06 10.236c-2.19-2.19-2.19-5.754 0-7.944l1.176-1.176 1.384 1.384-1.132 1.132c-1.427 1.427-1.427 3.75 0 5.177 1.427 1.428 3.75 1.428 5.177 0l1.132-1.132 1.384 1.384-1.176 1.176c-2.189 2.19-5.753 2.191-7.944 0zm10.534-2.59-1.384-1.384 1.086-1.086 1.384 1.384zm7.931-16.68c-.892-.709-1.982-1.085-3.11-1.085-2.462 0-4.374 1.602-4.865 3.826-.501 2.179.45 4.386 2.367 5.491.308.177.499.506.499.858v1.825h4v-1.825c0-.352.191-.681.498-.858 1.543-.889 2.502-2.543 2.502-4.317 0-1.533-.688-2.96-1.89-3.915zm-1.611 6.499c-.184.106-.345.239-.499.378v-2.201c.595-.346 1-.984 1-1.723h-4c0 .738.405 1.376 1 1.723v2.201c-.154-.139-.316-.272-.5-.378-1.168-.673-1.725-1.973-1.417-3.309.245-1.064 1.125-1.945 2.188-2.19.94-.217 1.861-.017 2.594.566.721.573 1.134 1.43 1.134 2.35 0 1.061-.575 2.05-1.501 2.584z"/></svg>