<svg id="Layer_1" viewBox="0 0 24 24" xmlns="http://www.w3.org/2000/svg" data-name="Layer 1"><path d="m23.957 22.543-6.219-6.219c1.412-1.725 2.262-3.927 2.262-6.324 0-5.514-4.486-10-10-10s-10 4.486-10 10 4.486 10 10 10c2.397 0 4.599-.85 6.324-2.262l6.219 6.219zm-13.957-4.543c-4.411 0-8-3.589-8-8s3.589-8 8-8 8 3.589 8 8-3.589 8-8 8zm2.5-12v-.5c0-.827-.673-1.5-1.5-1.5h-2c-.827 0-1.5.673-1.5 1.5v.5c-1.378 0-2.5 1.121-2.5 2.5v5.5h10v-5.5c0-1.379-1.121-2.5-2.5-2.5zm.5 6h-6v-3.5c0-.275.224-.5.5-.5h1.5v2h2v-2h1.5c.276 0 .5.225.5.5z"/></svg>