<svg id="Layer_1" viewBox="0 0 24 24" xmlns="http://www.w3.org/2000/svg" data-name="Layer 1"><path d="m22 0-6 .002c-1.103 0-2 .897-2 2.001l.002 7.909c0 .62.469 1.088 1.09 1.088.37 0 .382 0 3.058-2h5.85v-7c0-1.103-.897-2-2-2zm0 7h-4.515s-1.096.818-1.483 1.104v-6.102s5.999-.002 5.999-.002v5zm-12 14h-4v-2h4zm0-7v-1.5c0-.275-.224-.5-.5-.5h-3c-.276 0-.5.225-.5.5v1.5h-2v-1.5c0-1.379 1.122-2.5 2.5-2.5h3c1.378 0 2.5 1.121 2.5 2.5v1.5zm-2-5c-1.381 0-2.5-1.119-2.5-2.5s1.119-2.5 2.5-2.5 2.5 1.119 2.5 2.5-1.119 2.5-2.5 2.5zm6 7h-12v-14h10c0-.732.213-1.409.558-2h-12.558v21c0 1.654 1.346 3 3 3h10c1.654 0 3-1.346 3-3v-8h-2zm0 5c0 .552-.449 1-1 1h-10c-.551 0-1-.448-1-1v-3h12z"/></svg>