<svg id="Layer_1" viewBox="0 0 24 24" xmlns="http://www.w3.org/2000/svg" data-name="Layer 1"><path d="m2 5.998c-.139 0-.27.027-.405.041 2.07-3.605 5.95-6.039 10.405-6.039 1.346.001 2.636.234 3.844.644-1.106.713-1.844 1.949-1.844 3.36v.931c-.598-.892-1.261-1.739-2-2.523-1.288 1.367-2.373 2.912-3.222 4.588h5.223v2s-4.143 0-4.143 0c-.365-1.404-1.468-2.503-2.875-2.863.661-1.346 1.466-2.618 2.417-3.781-2.157.586-4.039 1.877-5.372 3.643h-2.028zm21.948 5.001c.028.331.051.662.052 1 0 6.627-5.373 12-12 12-4.841 0-9.003-2.873-10.899-7.002h2.139c.076.053.131.09.202.14 1.332 2.211 3.462 3.829 5.957 4.506-.726-.888-1.362-1.843-1.921-2.841.691-.13 1.294-.494 1.741-1.003.774 1.367 1.701 2.643 2.78 3.788 1.288-1.367 2.373-2.912 3.222-4.588h-5.482c.164-.377.258-.791.258-1.228v-.772h6.026c.227-.717.373-1.456.437-2.203.204.042.414.066.631.066.505 0 .81-.042 1.372-.349-.041.839-.149 1.673-.364 2.486h3.437c.409-1.299.539-2.659.405-4zm-3.302 6h-3.221c-.721 1.671-1.67 3.234-2.821 4.644 2.547-.693 4.717-2.361 6.042-4.644zm3.353-13v5h-3.868c-2.673 1.862-2.684 1.862-3.04 1.862-.611 0-1.09-.478-1.09-1.088l-.002-5.771c0-1.103.896-2 1.999-2.001l4.001-.002c1.103 0 2 .897 2 2zm-2 0-3.999.002v4.041c.395-.272 1.502-1.043 1.502-1.043h2.497zm-18.131 10.999h-3.868v-5c0-1.103.897-2 2-2l4.001.002c1.103 0 1.999.898 1.999 2.001l-.002 5.771c0 .61-.479 1.089-1.09 1.089-.356 0-.367 0-3.04-1.862zm-1.868-2h2.497s1.107.771 1.502 1.043v-4.041s-3.999-.002-3.999-.002z"/></svg>