<svg id="Layer_1" viewBox="0 0 24 24" xmlns="http://www.w3.org/2000/svg" data-name="Layer 1"><path d="m22 18v-6.845s-2-2-2-2v8.845h-4.914l-1 1h-4.172l-1-1h-4.914v-10h5.395s3-2 3-2h-10.395v12h-2v3c0 1.654 1.346 3 3 3h18c1.654 0 3-1.346 3-3v-3zm0 3c0 .552-.449 1-1 1h-18c-.551 0-1-.448-1-1v-1h6.086l1 1h5.828l1-1h6.086zm-6.907-13.594 2.993-2.993-2.993-2.993 1.414-1.414 2.993 2.993 2.993-2.993 1.414 1.414-2.993 2.993 2.993 2.993-1.414 1.414-2.993-2.993-2.993 2.993zm-5.093 2.594h-2c-1.105 0-2 .895-2 2v2c0 1.105.895 2 2 2h2l3 2v-3.5c.828 0 1.5-.672 1.5-1.5s-.672-1.5-1.5-1.5v-3.5zm1 4h-3v-2h3z"/></svg>