<svg id="Layer_1" viewBox="0 0 24 24" xmlns="http://www.w3.org/2000/svg" data-name="Layer 1"><path d="m15.829 12.766c.882.628 2.205-.081 2.171-1.162v-9.604c0-1.105-.895-2-2-2h-8c-1.105 0-2 .895-2 2v9h7.173c.092.045 2.565 1.711 2.656 1.766zm-5.392-3.266h-1.437l1.616-6.853c.271-1.486 2.631-1.52 2.898.049l1.559 6.804h-1.437l-.389-1.7h-2.409zm1.702-6.537.787 3.437h-1.757l.811-3.437c.008-.037.041-.063.079-.063.038 0 .07.026.079.063zm-1.139 11.037c-1.302 0-2.402.839-2.816 2h-4.184v2h4.184c.414 1.161 1.514 2 2.816 2 1.654 0 3-1.346 3-3s-1.346-3-3-3zm0 4c-.552 0-1-.449-1-1s.448-1 1-1 1 .449 1 1-.448 1-1 1zm13-5v11h-24v-11c0-1.654 1.346-3 3-3h1v2h-1c-.552 0-1 .449-1 1v9h20v-9c0-.551-.448-1-1-1h-1v-2h1c1.654 0 3 1.346 3 3zm-8 3h4v2h-4z"/></svg>