<svg id="Layer_1" viewBox="0 0 24 24" xmlns="http://www.w3.org/2000/svg" data-name="Layer 1"><path d="m17.5 11.5c0 1.381-1.119 2.5-2.5 2.5s-2.5-1.119-2.5-2.5c0-.293.06-.569.152-.83l-1.196.399c.025.141.044.284.044.432 0 1.381-1.119 2.5-2.5 2.5s-2.5-1.119-2.5-2.5 1.119-2.5 2.5-2.5c.121 0 .237.019.354.036l-.188-1.036h-1.166v-2h2.834l.364 2h2.149l-.182-1h-1.165v-2h2.835l.182 1h.983v2h-.62l.195 1.073c1.102.261 1.925 1.245 1.925 2.427zm4.5-1.5c0 2.671-1.04 5.183-2.93 7.071l-7.071 6.915-7.063-6.907c-3.907-3.907-3.907-10.251-.008-14.15 1.89-1.889 4.401-2.929 7.072-2.929s5.182 1.04 7.07 2.929c1.89 1.889 2.93 4.4 2.93 7.071zm-2 0c0-2.137-.832-4.146-2.344-5.657-1.511-1.511-3.52-2.343-5.656-2.343s-4.146.832-5.657 2.343c-3.119 3.119-3.119 8.195 0 11.314l5.657 5.532 5.665-5.54c1.504-1.503 2.336-3.513 2.336-5.649z"/></svg>