<svg id="Layer_1" viewBox="0 0 24 24" xmlns="http://www.w3.org/2000/svg" data-name="Layer 1"><path d="m8.023 6.544c-.008.152-.023.302-.023.456 0 .71.091 1.397.246 2.059-.152.282-.246.599-.246.941 0 .917.625 1.685 1.469 1.919.466.712 1.03 1.352 1.674 1.905-.368.111-.751.176-1.142.176-2.206 0-4-1.794-4-4 0-1.483.821-2.766 2.023-3.456zm7.429 9.314-5.452 5.332-5.657-5.532c-3.119-3.119-3.119-8.195 0-11.314.957-.956 2.145-1.658 3.433-2.029h.001c.559-.161 1.136-.242 1.719-.278.485-.732 1.073-1.389 1.746-1.95-.41-.051-.823-.085-1.242-.085-.942 0-1.876.132-2.777.392 0 0-.001 0-.002.001-1.613.465-3.097 1.341-4.292 2.536-3.899 3.899-3.899 10.243.008 14.15l7.063 6.907 7.071-6.915c.357-.357.67-.741.962-1.135-.339.039-.683.064-1.033.064-.529 0-1.044-.055-1.548-.142zm8.548-8.858c0 3.859-3.14 7-7 7s-7-3.141-7-7 3.14-7 7-7 7 3.141 7 7zm-2 0c0-2.757-2.243-5-5-5s-5 2.243-5 5 2.243 5 5 5 5-2.243 5-5zm-6 1h2v-5h-2zm0 3h2v-2h-2z"/></svg>