<svg id="Layer_1" viewBox="0 0 24 24" xmlns="http://www.w3.org/2000/svg" data-name="Layer 1"><path d="m12.5 5h-3.5v10h2v-3h1.5c1.93 0 3.5-1.57 3.5-3.5s-1.57-3.5-3.5-3.5zm0 5h-1.5v-3h1.5c.827 0 1.5.673 1.5 1.5s-.673 1.5-1.5 1.5zm6.571-7.071c-1.889-1.889-4.4-2.929-7.07-2.929s-5.183 1.04-7.072 2.929-2.929 4.4-2.929 7.071 1.04 5.183 2.937 7.079l7.063 6.907 7.071-6.915c1.889-1.889 2.929-4.4 2.929-7.071s-1.04-5.183-2.929-7.071zm-1.406 12.721-5.665 5.54-5.657-5.532c-1.511-1.511-2.343-3.521-2.343-5.657s.832-4.146 2.343-5.657 3.521-2.343 5.657-2.343 4.145.832 5.656 2.343 2.343 3.521 2.343 5.657-.832 4.146-2.335 5.649z"/></svg>