<svg id="Layer_1" viewBox="0 0 24 24" xmlns="http://www.w3.org/2000/svg" data-name="Layer 1"><path d="m19.07 2.929c-1.889-1.889-4.399-2.929-7.07-2.929s-5.183 1.041-7.071 2.929c-3.899 3.899-3.899 10.243.008 14.149l7.063 6.909 7.071-6.917c1.89-1.889 2.93-4.4 2.93-7.071s-1.04-5.182-2.93-7.071zm-1.406 12.72-5.665 5.541-5.657-5.533c-1.511-1.511-2.343-3.52-2.343-5.657s.832-4.146 2.343-5.657 3.52-2.343 5.657-2.343 4.146.832 5.656 2.343c1.512 1.511 2.344 3.52 2.344 5.657s-.832 4.146-2.336 5.649zm-1.926-8.972-.007-.019c-.355-.992-1.302-1.658-2.354-1.658h-2.754c-1.054 0-2 .667-2.36 1.677l-1.037 3.1c-.15.654-.226 1.307-.226 1.94v1.283h1v2h2v-2h4v2h2v-2h1v-1.283c0-.632-.076-1.285-.253-2.035l-1.009-3.004zm-5.115.323h2.754c.209 0 .396.131.47.327l.565 1.673h-4.82l.561-1.668c.071-.199.26-.332.471-.332z"/></svg>