<svg id="Layer_1" viewBox="0 0 24 24" xmlns="http://www.w3.org/2000/svg" data-name="Layer 1"><path d="m19.07 2.929c-1.889-1.889-4.399-2.929-7.07-2.929s-5.182 1.04-7.071 2.929c-3.899 3.899-3.899 10.243.008 14.15l7.063 6.907 7.07-6.915c1.89-1.889 2.93-4.4 2.93-7.071s-1.04-5.183-2.93-7.071zm-1.406 12.721-5.664 5.54-5.657-5.532c-3.119-3.119-3.119-8.195 0-11.314 1.512-1.511 3.521-2.343 5.657-2.343s4.146.832 5.656 2.343c1.512 1.511 2.344 3.521 2.344 5.657s-.832 4.146-2.336 5.649zm-3.164-10.649h-5c-1.379 0-2.5 1.121-2.5 2.5v6.5h1.725l-.725 2h2.256l.725-2h2.038l.725 2h2.256l-.725-2h1.725v-6.501c0-1.379-1.121-2.5-2.5-2.5zm-5.5 5v-2.5c0-.275.225-.5.5-.5h5c.275 0 .5.225.5.5v2.5z"/></svg>