<svg id="Layer_1" viewBox="0 0 24 24" xmlns="http://www.w3.org/2000/svg" data-name="Layer 1"><path d="m12.377 5h-2.754c-1.054 0-2 .667-2.36 1.677l-1.036 3.1c-.15.655-.227 1.308-.227 1.94v1.283h1v2h2v-2h4v2h2v-2h1v-1.283c0-.635-.076-1.287-.252-2.035l-1.016-3.022c-.354-.993-1.301-1.66-2.355-1.66zm-2.754 2h2.754c.209 0 .396.13.469.326l.566 1.674h-4.819l.561-1.668c.07-.198.259-.332.47-.332zm13.377-7v4c0 1.103-.897 2-2 2v4c0 2.67-1.04 5.182-2.929 7.071l-7.071 6.917-7.063-6.909c-3.908-3.907-3.908-10.251-.008-14.15 1.888-1.889 4.4-2.929 7.071-2.929 1.401 0 2.754.293 4 .837v2.241c-1.204-.698-2.571-1.078-4-1.078-2.137 0-4.146.832-5.657 2.343-3.119 3.119-3.119 8.194 0 11.313l5.657 5.533 5.665-5.541c1.503-1.503 2.335-3.512 2.335-5.649v-3.999c-1.103 0-2-.897-2-2v-4h2v2h2v-2z"/></svg>