<svg id="Layer_1" viewBox="0 0 24 24" xmlns="http://www.w3.org/2000/svg" data-name="Layer 1"><path d="m8.504 10c-.966 0-1.5-.771-1.5-1.208s.534-.792 1.5-.792 1.5.354 1.5.792-.534 1.208-1.5 1.208zm15.496-5v2.974c0 5.037-2.667 9.634-7 12.143v3.884h-2v-5.08l.537-.281c2.383-1.246 4.22-3.21 5.318-5.545-1.463 1.19-3.326 1.906-5.354 1.906h-9.501c-2.206 0-4 1.794-4 4v5h-2v-5c0-2.387 1.404-4.446 3.426-5.412-1.474-1.184-2.422-3.003-2.422-5.043 0-.099-.004-.584.006-.674.052-3.066.566-5.942.589-6.068l.414-1.803 3.03 1.743c1.024-.474 2.192-.743 3.456-.743s2.436.269 3.461.743l3.034-1.743.414 1.803c.023.127.536 2.998.589 6.06.011.094.006.579.007.682 0 1.727-.682 3.295-1.784 4.455h1.281c3.584 0 6.5-2.916 6.5-6.5v-1.5h2zm-14.413 8c2.436 0 4.417-1.999 4.417-4.455v-.545c0-2.897-2.315-5-5.504-5s-5.496 2.103-5.496 5v.545c0 2.456 1.981 4.455 4.417 4.455h2.167zm-2.587 3.5c0 .828.672 1.5 1.5 1.5s1.5-.672 1.5-1.5-.672-1.5-1.5-1.5-1.5.672-1.5 1.5z"/></svg>