<svg id="Layer_1" viewBox="0 0 24 24" xmlns="http://www.w3.org/2000/svg" data-name="Layer 1"><path d="m3.293 7.584-3.271-2.303 1.152-1.635 3.271 2.303zm4.604-3.932-1.68-3.63-1.814.84 1.681 3.63 1.814-.84zm8.52 17.06 2.303 3.288 1.635-1.168-2.303-3.271zm3.092-2.789 3.63 1.681.84-1.814-3.63-1.681zm-2.839.179-3.667 3.667c-1.484 1.485-3.413 2.231-5.503 2.231-1.95 0-3.784-.746-5.269-2.231-1.439-1.438-2.231-3.352-2.231-5.386s.792-3.948 2.231-5.386l3.666-3.667 4.212 4.211-3.623 3.624c-.647.647-.647 1.701 0 2.349.649.648 1.701.647 2.349 0l3.623-3.623zm-4.212-1.383-1.086 1.086 1.384 1.383 1.086-1.086zm-6.561-6.561-1.086 1.086 1.384 1.383 1.086-1.086zm5.42 10.419-1.388-1.388c-1.435 1.143-3.528 1.067-4.857-.262-1.328-1.328-1.404-3.421-.261-4.857l-1.389-1.389c-.907 1.027-1.422 2.319-1.422 3.7 0 1.5.584 2.911 1.646 3.972 2.105 2.105 5.468 2.164 7.671.222zm-3.962-14.705 3.642-3.641c1.514-1.515 3.503-2.231 5.503-2.231 1.911 0 3.813.776 5.269 2.231 1.439 1.438 2.231 3.352 2.231 5.386s-.792 3.948-2.231 5.386l-3.641 3.641-4.212-4.212 3.598-3.598c.647-.647.647-1.701 0-2.349-.649-.648-1.701-.646-2.349 0l-3.598 3.598-4.212-4.212zm4.212 1.384 1.086-1.086-1.384-1.384-1.086 1.086zm6.561 6.56 1.086-1.086-1.384-1.384-1.086 1.086zm-5.417-10.416 1.388 1.388c1.436-1.119 3.51-1.034 4.828.284 1.319 1.319 1.404 3.393.284 4.828l1.389 1.389c.892-1.022 1.399-2.303 1.399-3.672 0-1.5-.584-2.911-1.646-3.972-2.096-2.096-5.439-2.162-7.643-.245z"/></svg>