<svg id="Layer_1" viewBox="0 0 24 24" xmlns="http://www.w3.org/2000/svg" data-name="Layer 1"><path d="m4 12h4v2h-4zm11.473-3.457c-1.957-1.958-1.957-5.129-.008-7.079.945-.944 2.2-1.464 3.535-1.464s2.592.52 3.535 1.464c1.949 1.95 1.949 5.122 0 7.071l-3.535 3.458zm1.406-1.422 2.121 2.074 2.129-2.082c1.162-1.162 1.162-3.065-.008-4.235-.566-.566-1.319-.878-2.121-.878s-1.555.312-2.121.879c-1.17 1.169-1.17 3.073 0 4.243zm7.121 3.378v13.5h-24v-11.999c0-3.309 2.691-6 6-6h6.089c.099.687.3 1.36.603 2h-2.232c.954 1.063 1.54 2.462 1.54 4v10h10v-10.039s1.963-1.923 1.971-1.93c.012.156.029.31.029.469zm-22 11.501h8v-10c0-2.206-1.794-4-4-4s-4 1.794-4 4z"/></svg>