<svg id="Layer_1" viewBox="0 0 24 24" xmlns="http://www.w3.org/2000/svg" data-name="Layer 1"><path d="m20 6h-.515c.177-.71.87-3 .87-3h-9.154c.563.455 1.115.991 1.177 1.05l.999.95h4.298c-.23.87-.502 2.022-.618 3h-5.865c.17.695.193 1.225.195 1.339l.017.661h5.605c.049 1.642.299 2.907.745 3.764.225.431.297.92.209 1.415-.185 1.038-1.189 1.821-2.337 1.821h-9.253c-1.147 0-2.152-.783-2.337-1.821-.088-.495-.015-.984.21-1.416.127-.244.238-.521.333-.83l-.528-.556c-.062-.066-.669-.69-1.14-1.29-.088.758-.237 1.365-.438 1.751-.431.827-.571 1.756-.405 2.69.358 2.011 2.169 3.471 4.306 3.471h3.627v3h-5.001v2h12v-2h-5v-3h3.626c2.137 0 3.947-1.459 4.306-3.47.156-.873.044-1.744-.325-2.53h.393c2.168 0 4-1.766 4-3.857 0-1.938-1.532-3.143-4-3.143zm0 5h-.92c-.052-.485-.08-1.029-.08-1.615v-.539c0-.239.027-.528.073-.846h.927c1.327 0 2 .385 2 1.143 0 .989-.935 1.857-2 1.857zm-15.672-2.672c.04 1.482 1.171 2.672 1.171 2.672s1.131-1.19 1.171-2.672c1.076 1.019 2.718 1.061 2.718 1.061s-.042-1.641-1.061-2.718c1.482-.04 2.672-1.171 2.672-1.171s-1.19-1.131-2.672-1.172c1.019-1.076 1.061-2.718 1.061-2.718s-1.641.042-2.718 1.061c-.04-1.482-1.171-2.672-1.171-2.672s-1.132 1.19-1.172 2.672c-1.075-1.019-2.716-1.06-2.716-1.06s.042 1.642 1.061 2.718c-1.482.04-2.672 1.171-2.672 1.171s1.19 1.131 2.672 1.171c-1.019 1.076-1.061 2.718-1.061 2.718s1.641-.042 2.718-1.061zm.422-3.576.75-1.752.759 1.741 1.741.759-1.751.751-.749 1.749-.757-1.742-1.743-.758z"/></svg>