<svg id="Layer_1" viewBox="0 0 24 24" xmlns="http://www.w3.org/2000/svg" data-name="Layer 1"><path d="m20 0h-15c-1.654 0-3 1.346-3 3v18c0 1.654 1.346 3 3 3h17v-22c0-1.103-.897-2-2-2zm-15 2h15v16h-15c-.352 0-.686.072-1 .184v-15.184c0-.552.449-1 1-1zm0 20c-.551 0-1-.448-1-1s.449-1 1-1h15v2zm7-6.007 3.535-3.458c.944-.943 1.465-2.199 1.465-3.535s-.521-2.592-1.465-3.535c-.943-.944-2.199-1.465-3.535-1.465s-2.591.521-3.536 1.465-1.464 2.199-1.464 3.535.52 2.591 1.472 3.543zm-2.122-9.114c.567-.566 1.32-.879 2.122-.879s1.555.312 2.12.879c.566.566.879 1.319.879 2.121s-.312 1.555-.871 2.113l-2.129 2.083-2.122-2.075c-.566-.566-.878-1.319-.878-2.121s.312-1.555.878-2.121zm.622 2.017c0-.828.672-1.5 1.5-1.5s1.5.672 1.5 1.5-.672 1.5-1.5 1.5-1.5-.672-1.5-1.5z"/></svg>