<svg id="Layer_1" viewBox="0 0 24 24" xmlns="http://www.w3.org/2000/svg" data-name="Layer 1"><path d="m23.552 11.694s-1.895-3.143-1.895-3.143l-2.657-.888v1.327l-7.007 2.343-6.993-2.338v-1.336l-2.671.893-1.895 3.142c-.476.789-.565 1.74-.245 2.61.31.839.968 1.481 1.804 1.786l-.008 4.566 9.998 3.333 9.996-3.332.007-4.564c.839-.304 1.499-.947 1.811-1.789.32-.869.231-1.82-.245-2.609zm-21.486 1.918c-.109-.296-.08-.619.081-.885s0 0 0 0l1.294-2.146 7.048 2.357-1.53 2.55c-.231.388-.734.581-1.174.434l-5.08-1.693c-.297-.099-.53-.324-.638-.617zm8.934 7.94-7.011-2.337.004-2.449 3.158 1.052c.305.102.622.154.943.154 1.053 0 2.042-.558 2.58-1.456l.326-.544zm8.981-2.338-6.981 2.327v-5.545l.312.52c.539.898 1.527 1.456 2.581 1.456.321 0 .639-.052.942-.153l3.151-1.05-.004 2.446zm1.939-5.604c-.108.293-.341.519-.639.618l-5.081 1.693c-.438.144-.941-.046-1.174-.434l-1.53-2.55 7.048-2.357 1.294 2.146s0 0 0 0c.161.266.19.589.082.884zm-12.535-4.366 1.037-1.245h3.077l1.061 1.273c1.455-.874 2.439-2.452 2.439-4.273 0-2.761-2.239-5-5-5s-4.999 2.24-4.999 5.001c0 1.8.959 3.364 2.386 4.245zm2.692-5.737 1.715-1.715 1.414 1.414-1.715 1.715c.065.852-.643 1.581-1.492 1.578-.828 0-1.5-.672-1.5-1.5s.75-1.492 1.578-1.492z"/></svg>