<svg id="Layer_1" viewBox="0 0 24 24" xmlns="http://www.w3.org/2000/svg" data-name="Layer 1"><path d="m21.226 16.508 2.772 2.709-1.397 1.431-1.601-1.565v1.916c0 1.654-1.346 3-3 3h-4v-2h4c.551 0 1-.449 1-1v-1.916l-1.601 1.565-1.397-1.431 2.781-2.718c.639-.639 1.789-.646 2.443.009zm-19.226-10.508c0-.551.449-1 1-1h1.916l-1.565 1.601 1.431 1.397 2.71-2.773c.328-.328.508-.763.508-1.226s-.181-.899-.5-1.217l-2.718-2.781-1.431 1.397 1.565 1.601h-1.916c-1.654 0-3 1.346-3 3v4h2zm15 8c-3.866 0-7-3.134-7-7s3.134-7 7-7 7 3.134 7 7-3.134 7-7 7zm-1-2.5v1h2v-1h.376c1.447 0 2.624-1.177 2.624-2.624 0-1.288-.923-2.377-2.193-2.588l-3.286-.548c-.302-.05-.521-.309-.521-.616 0-.344.28-.624.624-.624h2.376c.552 0 1 .449 1 1h2c0-1.654-1.346-3-3-3v-1h-2v1h-.376c-1.447 0-2.624 1.177-2.624 2.624 0 1.288.922 2.377 2.192 2.588l3.286.548c.302.05.521.309.521.616 0 .344-.28.624-.624.624h-2.376c-.551 0-1-.449-1-1h-2c0 1.654 1.346 3 3 3zm-4.292 4.4-1.42.809c.125.412.212.84.212 1.292s-.087.88-.212 1.292l1.42.809-.989 1.738-1.416-.806c-.606.66-1.4 1.141-2.303 1.347v1.621h-2v-1.621c-.903-.206-1.697-.687-2.303-1.347l-1.416.806-.989-1.738 1.42-.809c-.125-.412-.212-.84-.212-1.292s.087-.88.212-1.292l-1.42-.809.989-1.738 1.416.806c.606-.66 1.4-1.141 2.303-1.347v-1.621h2v1.621c.903.206 1.697.687 2.303 1.347l1.416-.806zm-3.208 2.1c0-1.378-1.122-2.5-2.5-2.5s-2.5 1.122-2.5 2.5 1.122 2.5 2.5 2.5 2.5-1.122 2.5-2.5z"/></svg>