<svg id="Layer_1" viewBox="0 0 24 24" xmlns="http://www.w3.org/2000/svg" data-name="Layer 1"><path d="m21.5 2h-5c-1.379 0-2.5 1.122-2.5 2.5v8.27s-.003.002-.005.004l-4.026 3.705c-.616.566-.969 1.371-.969 2.208v5.314h2v-5.314c0-.279.117-.547.322-.736l4.017-3.695c.198-.177.451-.268.72-.253.266.015.51.132.687.33.329.367.339.928.067 1.254l-2.616 2.721 1.441 1.387 2.661-2.771c.465-.553.692-1.238.693-1.922h2.009v4.231c0 .248-.092.486-.258.671l-3.596 4.098h2.684l2.396-2.759c.499-.555.772-1.268.772-2.01v-4.231h1v-10.502c0-1.378-1.121-2.5-2.5-2.5zm-2.5 11h-.762c-.567-.629-1.385-1.022-2.238-.988v-7.512c0-.276.225-.5.5-.5h2.5zm3 0h-1v-9h.5c.275 0 .5.224.5.5zm-20-8.219v5.438c0 3.445 3.076 5.948 5.167 7.252-.1.396-.167.8-.167 1.214v1.008c-2.299-1.281-7-4.508-7-9.474v-5.438c0-1.149.734-2.165 1.827-2.526l6.673-2.213 4.596 1.548c-.44.513-.766 1.12-.939 1.794l-3.657-1.235-6.044 2.004c-.272.09-.456.343-.456.628z"/></svg>