<svg id="Layer_1" viewBox="0 0 24 24" xmlns="http://www.w3.org/2000/svg" data-name="Layer 1"><path d="m24 9c0 1.105-.895 2-2 2-.738 0-1.376-.405-1.723-1h-4.277v-3h-3v-2h3v-3h4.277c.346-.595.984-1 1.723-1 1.105 0 2 .895 2 2s-.895 2-2 2c-.738 0-1.376-.405-1.723-1h-2.277v4h2.277c.346-.595.984-1 1.723-1 1.105 0 2 .895 2 2zm-.982 3.785c-.596-.542-1.37-.819-2.169-.782-.804.038-1.544.387-2.085.981l-3.224 3.544c-.551-.911-1.541-1.528-2.681-1.528h-9.859c-1.654 0-3 1.346-3 3v6h2v-6c0-.552.449-1 1-1h9.858c.629 0 1.142.513 1.142 1.143 0 .564-.421 1.051-.98 1.13l-5.161.737.283 1.98 5.161-.737c1.171-.167 2.119-.985 2.506-2.051l4.433-4.872c.182-.199.431-.316.7-.329.266-.019.528.081.728.263.408.371.44 1.009.073 1.42s0 0-.001 0l-7.409 8.315h2.679l6.224-6.985s0-.001.001-.002c1.091-1.227.993-3.122-.22-4.228zm-22.727-4.684 1.42-.809c-.124-.412-.211-.84-.211-1.291s.087-.88.211-1.291l-1.42-.811.99-1.738 1.416.807c.606-.66 1.4-1.14 2.303-1.347v-1.621h2v1.621c.903.206 1.697.687 2.303 1.347l1.416-.807.99 1.738-1.42.809c.124.412.211.84.211 1.291s-.087.88-.211 1.291l1.42.809-.99 1.738-1.416-.807c-.606.66-1.4 1.14-2.303 1.347v1.621h-2v-1.621c-.903-.206-1.697-.687-2.303-1.347l-1.416.807-.99-1.738zm3.209-2.101c0 1.379 1.122 2.5 2.5 2.5s2.5-1.121 2.5-2.5-1.122-2.5-2.5-2.5-2.5 1.121-2.5 2.5z"/></svg>