<svg id="Layer_1" viewBox="0 0 24 24" xmlns="http://www.w3.org/2000/svg" data-name="Layer 1"><path d="m21.333 10.632c-3.024-2.875-7.301-2.653-9.094-2.609-.333-.377-.756-.667-1.239-.839v-2.897l-2.44-2.44-6.447-1.792-2.058 2.058 1.793 6.447 2.44 2.44h2.897c.172.483.462.906.839 1.239-.045 1.795-.266 6.072 2.608 9.094 1.71 1.77 4.19 2.667 7.369 2.667v-2c-2.616 0-4.612-.692-5.931-2.057-1.99-2.059-2.099-5.271-2.065-6.944 1.651-.002 2.994-1.345 2.996-2.996 1.674-.034 4.884.077 6.943 2.067 1.365 1.32 2.057 3.314 2.057 5.93h2c0-3.178-.897-5.657-2.667-7.368zm-17.699-3.114-.952-3.422 2.611 2.611 1.414-1.414-2.611-2.611 3.422.952 1.482 1.482v2.069c-.847.302-1.514.969-1.816 1.816h-2.069l-1.482-1.482zm6.366 3.482c-.551 0-1-.449-1-1s.449-1 1-1 1 .449 1 1-.449 1-1 1z"/></svg>