<svg id="Layer_1" viewBox="0 0 24 24" xmlns="http://www.w3.org/2000/svg" data-name="Layer 1"><path d="m20.035 11.814c-.41-.357-.795-.691-1.112-1.008l-.855-.855-.679 1.001c-.688 1.015-.941 2.06-1.144 2.898-.077.317-.196.81-.308 1.031-.114-.265-.236-.679-.299-1.038l-.334-1.941-1.369 1.413c-.967.998-1.945 2.927-1.945 4.686-.069 3.255 2.823 6 6.077 6 2.307 0 4.255-1.403 5.3-3.505 2.006-4.033-1.206-6.83-3.332-8.681zm1.541 7.791c-.393.79-.993 1.422-1.689 1.841.225-.723 0-1.548-.556-2.104l-1.341-1.341-1.341 1.341c-.571.571-.797 1.427-.54 2.164-.334-.177-.653-.385-.931-.659-.767-.758-1.188-1.768-1.188-2.846 0-.558.167-1.186.415-1.763.312.445.738.763 1.32.763 1.815 0 2.189-1.549 2.463-2.68.095-.39.19-.786.328-1.178 2.436 2.094 4.359 3.955 3.06 6.462zm-14.576-3.604h3v8h-2v-6h-1c-3.309 0-6-2.691-6-6v-4h-1v-2h4v-6.001h2v6h5v-6h2v6h4v2h-14v4c0 2.206 1.794 4 4 4z"/></svg>