<svg id="Layer_1" viewBox="0 0 24 24" xmlns="http://www.w3.org/2000/svg" data-name="Layer 1"><path d="m10 8h-6v-4h6zm-4 2h-2v2h2zm0 4h-2v2h2zm4-4h-2v2h2zm0 4h-2v2h2zm-6 6h2v-2h-2zm10-2h-2v2h2zm-6 2h2v-2h-2zm8-3v5h-14v-19c0-.552.449-1 1-1h9.349c.264-.746.67-1.423 1.188-2h-10.537c-1.654 0-3 1.346-3 3v21h18v-4h1v-3zm8-12v7c0 1.654-1.346 3-3 3h-6c-1.654 0-3-1.346-3-3v-7h2v-1c0-2.206 1.794-4 4-4s4 1.794 4 4v1zm-8 0h4v-1c0-1.103-.897-2-2-2s-2 .897-2 2zm6 2h-8v5c0 .552.449 1 1 1h6c.551 0 1-.448 1-1zm-3 2h-2v2h2z"/></svg>