<?xml version="1.0" encoding="UTF-8"?>
<svg xmlns="http://www.w3.org/2000/svg" id="Layer_1" data-name="Layer 1" viewBox="0 0 24 24">
  <path d="M12,14c3.86,0,7-3.141,7-7S15.86,0,12,0,5,3.141,5,7s3.14,7,7,7Zm0-12c2.757,0,5,2.243,5,5s-2.243,5-5,5-5-2.243-5-5,2.243-5,5-5Zm9,14H3c-1.654,0-3,1.346-3,3v2c0,1.654,1.346,3,3,3H21c1.654,0,3-1.346,3-3v-2c0-1.654-1.346-3-3-3ZM2,21v-2c0-.552,.449-1,1-1H14v4H3c-.551,0-1-.448-1-1Zm20,0c0,.552-.449,1-1,1h-5v-4h5c.551,0,1,.448,1,1v2ZM13.293,9.707l-2.293-2.293v-3.414h2v2.586l1.707,1.707-1.414,1.414Z"/>
</svg>
