<?xml version="1.0" encoding="UTF-8"?>
<svg xmlns="http://www.w3.org/2000/svg" id="Layer_1" data-name="Layer 1" viewBox="0 0 24 24">
  <path d="M4,8H2c-.827,0-1.5,.673-1.5,1.5v5c0,.827,.673,1.5,1.5,1.5h2c.827,0,1.5-.673,1.5-1.5v-5c0-.827-.673-1.5-1.5-1.5Zm-.5,6h-1v-4h1v4Zm6.5-6h-2c-.827,0-1.5,.673-1.5,1.5v5c0,.827,.673,1.5,1.5,1.5h2c.827,0,1.5-.673,1.5-1.5v-5c0-.827-.673-1.5-1.5-1.5Zm-.5,6h-1v-4h1v4Zm6.5-6h-2c-.827,0-1.5,.673-1.5,1.5v5c0,.827,.673,1.5,1.5,1.5h2c.827,0,1.5-.673,1.5-1.5v-5c0-.827-.673-1.5-1.5-1.5Zm-.5,6h-1v-4h1v4Zm6.5-6h-2c-.827,0-1.5,.673-1.5,1.5v5c0,.827,.673,1.5,1.5,1.5h2c.827,0,1.5-.673,1.5-1.5v-5c0-.827-.673-1.5-1.5-1.5Zm-.5,6h-1v-4h1v4Z"/>
</svg>
