<svg id="Layer_1" viewBox="0 0 24 24" xmlns="http://www.w3.org/2000/svg" data-name="Layer 1"><path d="m18 15c0-.008-.002-.016-.002-.024.679-.04 1.338-.151 1.965-.342.01.123.037.241.037.366 0 2.481-2.019 4.5-4.5 4.5s-4.499-2.018-4.5-4.499h2c0 1.378 1.122 2.499 2.5 2.499s2.5-1.122 2.5-2.5zm-.5-2h-6.5v-6.499c0-3.59 2.91-6.501 6.5-6.501s6.5 2.91 6.5 6.5-2.91 6.499-6.5 6.499zm-3-7.972h2c.048-.65.488-1.144 1.287-.99.334.087.618.39.689.736.109.524-.178.937-.511 1.112-.4.211-1.465.772-1.465 2.116h2c0-.061 0-.137.397-.346 1.197-.631 1.814-1.953 1.537-3.289-.228-1.093-1.067-1.981-2.14-2.263-.915-.241-1.868-.05-2.61.522-.741.572-1.184 1.47-1.184 2.402zm2 5.973h2v-2h-2zm-7.5-1.001h-5v2h5zm13 3.691v8.309h-20v-13c-.001-.534.548-.983 1.067-1h5.933v-1.499c0-.169.016-.334.025-.501h-3.787l5.39-4.35-1.256-1.557-7.898 6.375c-.842.531-1.474 1.463-1.474 2.527v15.005h24v-12.033c-.57.676-1.248 1.254-2 1.725zm-18 6.309h5v-2h-5zm5-6h-5v2h5z"/></svg>