<svg id="Layer_1" viewBox="0 0 24 24" xmlns="http://www.w3.org/2000/svg" data-name="Layer 1"><path d="m12.025 24h-12.025l3.726-21.517c.251-1.438 1.495-2.483 2.955-2.483h10.641c1.46 0 2.702 1.043 2.955 2.48l1.322 7.572c-.675-.372-1.406-.654-2.178-.832l-1.115-6.394c-.084-.479-.498-.827-.984-.827h-10.641c-.487 0-.901.348-.985.828l-3.355 19.173h7.949c.472.754 1.058 1.429 1.735 2zm11.975-6.5c0 3.584-2.916 6.5-6.5 6.5s-6.5-2.916-6.5-6.5 2.916-6.5 6.5-6.5 6.5 2.916 6.5 6.5zm-2 0c0-2.481-2.019-4.5-4.5-4.5s-4.5 2.019-4.5 4.5 2.019 4.5 4.5 4.5 4.5-2.019 4.5-4.5zm-9-13.5h-2v4h2zm5.5 10h-2v3.914l2.293 2.293 1.414-1.414-1.707-1.707zm-7.5-1.972c.57-.677 1.247-1.258 2-1.73v-.298h-2z"/></svg>