<svg id="Layer_1" viewBox="0 0 24 24" xmlns="http://www.w3.org/2000/svg" data-name="Layer 1"><path d="m12.843 16-1.842 3.239v-3.239zm-2.836 6h-7.627l3.316-19.172c.084-.479.499-.828.985-.828h10.641c.486 0 .9.348.984.827l1.129 6.711 2.869 4.956-2.028-12.013c-.253-1.438-1.495-2.48-2.955-2.48h-10.64c-1.46 0-2.704 1.044-2.955 2.483l-3.726 21.516h10.522c-.007-.013-.017-.024-.024-.038-.336-.606-.498-1.285-.491-1.962zm12.996 1.748c-.566.322-1.271.333-1.854.035l-3.155-1.354-3.175 1.37c-.298.163-.589.202-.864.202-.761 0-1.394-.493-1.687-.972-.348-.628-.345-1.359-.014-1.945l5.748-10.105 5.749 10.105c.528.94.193 2.136-.747 2.665zm-1.063-1.802-3.938-6.924-3.938 6.924 3.929-1.695 3.948 1.695zm-8.939-17.946h-2v4h2zm-2 10h2v-4h-2z"/></svg>