<svg id="Layer_1" viewBox="0 0 24 24" xmlns="http://www.w3.org/2000/svg" data-name="Layer 1"><path d="m6.5 11c-3.59 0-6.5 2.91-6.5 6.5s2.91 6.5 6.5 6.5 6.5-2.91 6.5-6.5-2.91-6.5-6.5-6.5zm1.126 10.3h-.326v1.2h-1.6v-1.2h-.2c-1.201 0-2.189-.925-2.291-2.1h1.62c.086.289.354.5.671.5h2.126c.316 0 .574-.257.574-.574 0-.272-.194-.509-.462-.563l-2.791-.559c-1.013-.203-1.747-1.099-1.747-2.131 0-1.199.975-2.173 2.173-2.173h.327v-1.2h1.6v1.2h.2c1.201 0 2.189.925 2.291 2.1h-1.62c-.086-.289-.354-.5-.671-.5h-2.127c-.316 0-.573.257-.573.574 0 .272.194.509.461.562l2.792.559c1.013.202 1.747 1.099 1.747 2.131 0 1.199-.975 2.173-2.174 2.173zm10.774-16.8v3c0 .496-.404.9-.9.9s-.9-.404-.9-.9v-3c0-.496.404-.9.9-.9s.9.404.9.9zm-6.9.9h-.9v-1.8h.9c.496 0 .9.404.9.9s-.404.9-.9.9zm10.881-5.4h-13.762c-.894 0-1.619.725-1.619 1.619v7.406c.691.04 1.363.154 2 .35v-7.375h2.5c1.381 0 2.5 1.119 2.5 2.5 0 .846-.423 1.592-1.067 2.044.024-.014.036-.023.055-.035-.018.012-.018.012-.042.029l1.054 3.462h-1.744l-.872-3h-.784v3.062c1.005.555 1.884 1.306 2.587 2.203l1.775 1.495c.307.273.769.273 1.076 0l2.129-1.76h5.833v-10.381c0-.894-.725-1.619-1.619-1.619zm-2.381 7.5c0 1.379-1.121 2.5-2.5 2.5s-2.5-1.121-2.5-2.5v-3c0-1.379 1.121-2.5 2.5-2.5s2.5 1.121 2.5 2.5zm2.5 2.5h-1.6v-8h1.6zm-2.968 5.764 2.718 3.082-1.5 1.322-1.773-2.011c-.113 2.133-.766 4.122-1.82 5.843h-2.426c1.269-1.604 2.081-3.583 2.237-5.742l-1.717 1.91-1.5-1.322 2.724-3.089c.764-.883 2.283-.89 3.059.007zm-14.532-8.644c-1.871.269-3.582 1.035-5 2.155v-2.427c1.492-.912 3.184-1.53 5-1.748v2.021z"/></svg>