<svg id="Layer_1" viewBox="0 0 24 24" xmlns="http://www.w3.org/2000/svg" data-name="Layer 1"><path d="m22.32 1.682c-1.083-1.084-2.524-1.682-4.056-1.682h-.001c-1.532 0-2.973.597-4.056 1.68l-3.619 3.619 6.666 6.666c-4.288 4.198-7.773 6.986-10.254 8.538 0 0 0-.002 0-.003 0-1.93-1.57-3.5-3.5-3.5-.539 0-1.044.133-1.5.351v-17.351h-2v20.5c0 1.93 1.57 3.5 3.5 3.5.255 0 .502-.031.742-.083 4.323-.824 12.099-8.201 15.359-11.462l2.718-2.657c2.238-2.237 2.238-5.878.002-8.116zm-20.32 18.818c0-.827.673-1.5 1.5-1.5s1.5.673 1.5 1.5-.673 1.5-1.5 1.5-1.5-.673-1.5-1.5zm18.906-12.118-2.219 2.188-1.921-1.92 2.441-2.442-1.415-1.414-2.441 2.442-1.936-1.936 2.205-2.205c.706-.706 1.644-1.094 2.642-1.094.999 0 1.937.389 2.642 1.096 1.458 1.458 1.457 3.831 0 5.287z"/></svg>