<svg id="Layer_1" viewBox="0 0 24 24" xmlns="http://www.w3.org/2000/svg" data-name="Layer 1"><path d="m24 2v-2h-24v2h4.975l5.061 2.995-8.456 5.005 8.456 5.005-5.061 2.995h-4.975v2h2v.5c0 1.93 1.57 3.5 3.5 3.5s3.5-1.57 3.5-3.5v-.5h6v.5c0 1.93 1.57 3.5 3.5 3.5s3.5-1.57 3.5-3.5v-.5h2v-2h-4.975l-5.061-2.995 8.456-5.005-8.456-5.005 5.061-2.995zm-17 18.5c0 .827-.673 1.5-1.5 1.5s-1.5-.673-1.5-1.5v-.5h3zm13 0c0 .827-.673 1.5-1.5 1.5s-1.5-.673-1.5-1.5v-.5h3zm-4.902-2.5h-6.195l3.098-1.833 3.098 1.833zm3.395-8-6.492 3.842-6.492-3.842 6.492-3.842zm-6.493-6.167-3.098-1.833h6.195l-3.098 1.833z"/></svg>