<svg id="Layer_1" viewBox="0 0 24 24" xmlns="http://www.w3.org/2000/svg" data-name="Layer 1"><path d="m21 12s-1 1.895-1 3 .895 2 2 2v.5c0 2.481-2.019 4.5-4.5 4.5-2.056 0-3.776-1.394-4.311-3.281.184-.196.402-.438.636-.719h1.359c1.304 0 2.403-.837 2.816-2h-2.794c.346-.636.619-1.317.732-2h1.246c1.304 0 2.403-.837 2.816-2h-4v-2h2c1.493 0 2.782-.832 3.469-2.047 1.432-.227 2.531-1.457 2.531-2.953 0-3-2-5-2-5s-.395 1.972-1.432 3.439c-.71-.729-1.068-1.439-1.068-1.439s-1.5 1.343-1.5 3c0 1.036.525 1.949 1.323 2.488-.354.315-.814.512-1.323.512h-2v-.8c0-1.18-.457-2.218-1-3.04v-3.16h-2v1h-2v-1h-2v3.16c-.543.823-1 1.86-1 3.04v.8h-2c-.509 0-.97-.197-1.323-.512.798-.539 1.323-1.452 1.323-2.488 0-1.657-1.5-3-1.5-3s-.358.71-1.068 1.439c-1.037-1.467-1.432-3.439-1.432-3.439s-2 2-2 5c0 1.496 1.098 2.726 2.531 2.953.687 1.215 1.976 2.047 3.469 2.047h2v2h-4c.413 1.163 1.512 2 2.816 2h1.246c.113.683.386 1.364.732 2h-2.794c.413 1.163 1.512 2 2.816 2h1.359c.45.539.846.943 1.041 1.133.727 2.794 3.265 4.867 6.284 4.867 3.584 0 6.5-2.916 6.5-6.5v-2.5c0-2-3-3-3-3zm-8.998 5.054c-.856-.974-2.002-2.538-2.002-3.708v-6.146c0-1.467 1.233-2.727 1.764-3.2h.472c.529.475 1.765 1.74 1.765 3.2v6.146c0 1.091-1.047 2.629-1.998 3.708z"/></svg>