<svg id="Layer_1" viewBox="0 0 24 24" xmlns="http://www.w3.org/2000/svg" data-name="Layer 1"><path d="m22.839 17.235c-.936-.937-4.236-3.742-5.637-4.927l.018-.018-.077-.501c-1.101-7.155-5.96-11.008-6.166-11.168l-.697-.542-10.201 10.2.542.697c.16.206 4.013 5.065 11.168 6.166l.417.064c1.18 1.358 4.085 4.689 5.029 5.632.748.749 1.744 1.161 2.802 1.161s2.054-.412 2.802-1.161c.748-.748 1.161-1.743 1.161-2.802s-.412-2.054-1.161-2.802zm-20.049-6.838 7.606-7.607c1.228 1.207 3.836 4.232 4.686 8.81l-3.482 3.482c-4.578-.85-7.604-3.459-8.81-4.685zm18.635 11.027c-.742.741-2.032.743-2.775 0-.901-.901-3.848-4.281-4.98-5.585l2.113-2.113c1.301 1.099 4.741 4.02 5.643 4.922.371.371.575.864.575 1.388s-.204 1.017-.575 1.388z"/></svg>