<?xml version="1.0" encoding="UTF-8"?>
<svg xmlns="http://www.w3.org/2000/svg" id="Layer_1" data-name="Layer 1" viewBox="0 0 24 24">
  <path d="M20.252,12.746c.586,.586,.586,1.536,0,2.121s-1.536,.586-2.121,0c-.586-.586-.586-1.536,0-2.121s1.536-.586,2.121,0Zm2.121,5.657c-1.168,1.168-2.785,1.739-4.413,1.585l-4.012,4.011h-4.944s-.024-5.485-.024-5.485h1.997l.015-2h2.25v-.393c-.602-1.959-.091-4.052,1.354-5.496,1.039-1.039,2.42-1.611,3.889-1.611s2.85,.572,3.889,1.611c2.144,2.145,2.144,5.634,0,7.778Zm-1.414-6.364c-1.323-1.323-3.628-1.321-4.95,0-.942,.942-1.257,2.323-.821,3.603l.053,.156v2.716h-2.265l-.015,2h-1.974l.007,1.486h2.125s4.158-4.158,4.158-4.158l.523,.104c1.148,.23,2.33-.13,3.158-.956,1.364-1.365,1.364-3.586,0-4.95Zm-18.959,.42v2.041c0,.884,1.906,2.113,5,2.425v2.004c-2.023-.177-3.763-.701-5-1.47v2.327c0,.656,1.753,1.855,5,2.148v2.004c-3.679-.301-7-1.713-7-4.151V4.5C0,1.935,3.654,0,8.5,0s8.5,1.935,8.5,4.5-3.654,4.5-8.5,4.5c-2.665,0-4.965-.588-6.5-1.541v2.041c0,1.02,2.532,2.5,6.5,2.5,1.15,0,2.174-.127,3.056-.328-.273,.67-.453,1.388-.521,2.139-.795,.123-1.644,.189-2.535,.189-2.665,0-4.965-.588-6.5-1.541Zm0-7.959c0,1.02,2.532,2.5,6.5,2.5s6.5-1.48,6.5-2.5-2.532-2.5-6.5-2.5S2,3.48,2,4.5Z"/>
</svg>
