<svg id="Layer_1" viewBox="0 0 24 24" xmlns="http://www.w3.org/2000/svg" data-name="Layer 1"><path d="m23 5.058v-3.058h-2v2.051c-.165-.024-.329-.051-.5-.051s-.335.027-.5.051v-2.051h-2v3.058c-.617.631-1 1.492-1 2.442v1c0 2.391-.748 4.906-2.024 6.973.011-.157.024-.313.024-.473 0-2.757-2.243-5-5-5-2.206 0-4 1.794-4 4 0 1.654 1.346 3 3 3v-2c-.551 0-1-.449-1-1 0-1.103.897-2 2-2 1.654 0 3 1.346 3 3 0 2.757-2.243 5-5 5-3.309 0-6-2.691-6-6 0-4.962 4.038-9 9-9 1.517 0 2.945.381 4.201 1.046.18-.657.478-1.263.871-1.798-1.519-.793-3.242-1.249-5.071-1.249-6.066.001-11.001 4.936-11.001 11.001 0 2.39 1.059 4.533 2.726 6h-2.726v2h11c7.532 0 13-5.678 13-13.5v-1c0-.95-.383-1.81-1-2.442zm-1 3.442c0 5.624-3.121 9.839-7.889 11.106 3.035-2.627 4.889-7.016 4.889-11.106v-1c0-.827.673-1.5 1.5-1.5s1.5.673 1.5 1.5z"/></svg>