<svg id="Layer_1" viewBox="0 0 24 24" xmlns="http://www.w3.org/2000/svg" data-name="Layer 1"><path d="m23.236 15.015-8.006 8.985h-2.678l9.191-10.315c.367-.412.334-1.05-.073-1.421-.199-.181-.459-.272-.728-.262-.27.013-.518.129-.7.329l-4.433 4.873c-.387 1.066-1.336 1.883-2.507 2.05l-5.16.737-.283-1.98 5.161-.737c.56-.079.981-.565.981-1.13 0-.63-.512-1.143-1.142-1.143h-9.859c-.551 0-1 .448-1 1v8h-2v-8c0-1.654 1.346-3 3-3h9.858c1.14 0 2.13.617 2.681 1.528l3.224-3.543c.542-.595 1.282-.944 2.086-.981.808-.045 1.574.24 2.168.782 1.213 1.106 1.312 3.004.219 4.229zm-11.235-5.103-.002-7.909c0-1.1.899-2 1.999-2.001l6-.002c1.104 0 2 .895 2 2v7h-5.872l-2.454 1.827c-.186.119-.387.173-.583.173-.566 0-1.089-.45-1.089-1.088zm2.248-6.202c0 1.555 2.75 3.465 2.75 3.465s2.75-1.91 2.75-3.465c0-.82-.616-1.485-1.375-1.485s-1.375.555-1.375 1.375c0-.82-.616-1.375-1.375-1.375s-1.375.665-1.375 1.485zm-8.377 5.29h-5.872v-7c0-1.105.896-2 2-2l6 .002c1.1 0 1.999.901 1.999 2.001l-.002 7.909c0 .638-.524 1.088-1.089 1.088-.196 0-.397-.054-.583-.173l-2.454-1.827zm-2.872-2 4.5-2.5-4.5-2.5z"/></svg>