<svg id="Layer_1" viewBox="0 0 24 24" xmlns="http://www.w3.org/2000/svg" data-name="Layer 1"><path d="m23 7v2.414l-8 8v6.586l-6-3.762v-2.824l-8-8v-2.414c0-1.654 1.346-3 3-3v2c-.551 0-1 .449-1 1v1.586l8 8v2.561l2 1.289v-3.85l8-8v-1.586c0-.551-.449-1-1-1v-2c1.654 0 3 1.346 3 3zm-5 3h-12v-7.5c0-1.378 1.122-2.5 2.5-2.5h7c1.378 0 2.5 1.122 2.5 2.5zm-8.477-8 1.931 1.931c.302.301.791.301 1.093 0l1.931-1.931h-4.954zm6.477 6v-4.695l-2.04 2.04c-.541.541-1.25.811-1.96.811s-1.42-.271-1.96-.811l-2.04-2.04v4.695z"/></svg>