<svg id="Layer_1" viewBox="0 0 24 24" xmlns="http://www.w3.org/2000/svg" data-name="Layer 1"><path d="m17.267 12.186c3.192-3.164 5.28-6.693 6.206-10.486l.389-1.595-1.597.383c-3.786.908-7.319 2.994-10.493 6.194l-1.842 1.832-5.05-5.051 2.047-2.047-1.417-1.417-5.51 5.511 1.417 1.417 2.047-2.047 5.047 5.047-5.109 5.081-1.985-1.985-1.417 1.417 4.05 4.05-3.299 3.299 1.417 1.417 3.299-3.299 4.05 4.05 1.417-1.417-2.034-2.034zm-4.076-4.088c2.418-2.437 5.042-4.164 7.819-5.149-.995 2.784-2.723 5.406-5.154 7.816l-8.372 8.326-2.665-2.665 8.373-8.327zm2.249 8.733 1.424-1.409 2.338 2.364-1.424 1.409zm8.56 2.064v5.105h-5.105c-1.964 0-3.811-.764-5.197-2.152l-1.633-1.634 1.417-1.417 1.633 1.634c1.023 1.024 2.33 1.565 3.78 1.565h3.101v-3.101c0-1.451-.541-2.757-1.565-3.778l-1.635-1.636 1.417-1.417 1.634 1.635c1.388 1.383 2.153 3.229 2.153 5.196z"/></svg>