<svg id="Layer_1" viewBox="0 0 24 24" xmlns="http://www.w3.org/2000/svg" data-name="Layer 1"><path d="m22.746 2.668 1.236-1.236-1.414-1.414-1.236 1.236c-1.075-.788-2.4-1.254-3.832-1.254-3.584 0-6.5 2.916-6.5 6.5 0 .601.082 1.183.236 1.736-.553-.153-1.135-.236-1.736-.236-3.584 0-6.5 2.916-6.5 6.5 0 1.432.466 2.757 1.254 3.832l-4.245 4.245 1.414 1.414 4.245-4.245c1.075.788 2.4 1.254 3.832 1.254 3.584 0 6.5-2.916 6.5-6.5 0-.601-.082-1.183-.236-1.736.553.153 1.135.236 1.736.236 3.584 0 6.5-2.916 6.5-6.5 0-1.432-.466-2.757-1.254-3.832zm-.858 2.835c-.588.331-1.254.51-1.938.51-2.113 0-3.844-1.668-3.945-3.756.468-.165.971-.256 1.495-.256 2.139 0 3.933 1.499 4.388 3.502zm-8 8c-.587.331-1.254.509-1.938.509-2.113 0-3.844-1.668-3.945-3.756.468-.165.971-.256 1.495-.256 2.139 0 3.933 1.5 4.388 3.503zm-4.388 5.497c-2.481 0-4.5-2.019-4.5-4.5 0-1.163.443-2.225 1.17-3.024.636 2.601 2.986 4.536 5.78 4.536.647 0 1.283-.105 1.886-.307-.528 1.898-2.272 3.295-4.336 3.295zm8-8c-2.481 0-4.5-2.019-4.5-4.5 0-1.163.443-2.225 1.17-3.024.636 2.6 2.986 4.536 5.78 4.536.647 0 1.283-.106 1.886-.307-.528 1.898-2.272 3.296-4.336 3.296z"/></svg>