<svg id="Layer_1" viewBox="0 0 24 24" xmlns="http://www.w3.org/2000/svg" data-name="Layer 1"><path d="m8.113 10.785 1.398 1.43-2.371 2.317c-.312.312-.725.467-1.139.467-.416 0-.833-.157-1.15-.473l-2.364-2.311 1.398-1.43 1.113 1.088v-2.873h2v2.873l1.113-1.088zm8.887 1.341v2.873h2v-2.873l1.114 1.088 1.397-1.43-2.362-2.309c-.634-.634-1.665-.634-2.29-.008l-2.371 2.317 1.397 1.43 1.114-1.088zm-10.5 11.874h3v-1.6h-1.4v-1.551h1.4v-1.6h-1.4v-1.65h1.4v-1.6h-3v8zm5.6-8h-1.6v8h3.5v-1.6h-1.9zm4.5 0h-1.6v8h3v-1.6h-1.4zm-.6-9.6h-1.4v-6.4h-1.6v8h3zm-12 12.85h-1.4v-3.25h-1.6v8h1.6v-3.15h1.4v3.15h1.6v-8h-1.6zm-.4-14.4h1.4v3.15h1.6v-8h-1.6v3.25h-1.4v-3.25h-1.6v8h1.6zm19.4 13.45v3.4c0 1.269-1.031 2.3-2.3 2.3s-2.3-1.031-2.3-2.3v-3.4c0-1.269 1.031-2.3 2.3-2.3s2.3 1.031 2.3 2.3zm-1.6 0c0-.386-.314-.7-.7-.7s-.7.314-.7.7v3.4c0 .386.314.7.7.7s.7-.314.7-.7zm-11.6-10.3c-1.269 0-2.3-1.031-2.3-2.3v-3.4c0-1.269 1.031-2.3 2.3-2.3s2.3 1.031 2.3 2.3v3.4c0 1.269-1.031 2.3-2.3 2.3zm.7-5.7c0-.386-.314-.7-.7-.7s-.7.314-.7.7v3.4c0 .386.314.7.7.7s.7-.314.7-.7zm8.204 5.699h-1.704l1.211-6.418c.103-.58.404-1.079.821-1.356.226-.15.474-.225.724-.225.215 0 .432.056.637.168.454.246.798.791.918 1.459l1.188 6.373h-1.698l-.174-.999h-1.747l-.176.999zm.457-2.599h1.186l-.591-3.383z"/></svg>