<svg id="Layer_1" viewBox="0 0 24 24" xmlns="http://www.w3.org/2000/svg" data-name="Layer 1"><path d="m10 11c0 2.947 0 8.433-4.514 11.143l-1.029-1.715c3.543-2.126 3.543-6.697 3.543-9.428 0-1.407.977-2.583 2.287-2.905.185.682.456 1.327.803 1.923-.731 0-1.09.43-1.09.982zm-8 0c0-4.962 4.115-8.997 9.077-8.997.407-.703.918-1.337 1.512-1.884-.522-.075-1.052-.119-1.589-.119-6.044.025-11 4.95-11 11v3h2zm9.903 2.916c-.316 3.729-1.524 6.616-3.592 8.581l1.378 1.45c2.433-2.312 3.848-5.63 4.207-9.862zm-4.627-6.249c.724-.807 1.685-1.35 2.729-1.564 0-.677.088-1.434.247-2.062-1.708.185-3.305.997-4.465 2.292l1.49 1.334zm-1.207 2.5-1.972-.335c-.065.382-.098.774-.098 1.167 0 4.645-1.346 7-4 7v2c3.869 0 6-3.196 6-9 0-.281.023-.562.069-.833zm11.657 12.754 1.805.861c1.483-3.109 2.071-6.26 2.307-8.783h-2.011c-.233 2.32-.783 5.159-2.101 7.921zm.274-22.921c-3.309 0-6 2.691-6 6 0 2.215 1.21 4.149 3 5.188v-2.568c-.615-.703-1-1.613-1-2.62 0-2.209 1.791-4 4-4s4 1.791 4 4c0 1.008-.385 1.917-1 2.62v2.568c1.79-1.039 3-2.973 3-5.188 0-3.309-2.691-6-6-6zm-4.811 22.858 1.622 1.142c1.388-1.923 2.881-5.529 2.881-8.961h-2c0 2.855-1.259 6.095-2.503 7.819zm3.811-9.858h2v-4h-2zm2.5-7c0-.828-.672-1.5-1.5-1.5s-1.5.672-1.5 1.5.672 1.5 1.5 1.5 1.5-.672 1.5-1.5z"/></svg>