<svg id="Layer_1" viewBox="0 0 24 24" xmlns="http://www.w3.org/2000/svg" data-name="Layer 1"><path d="m9 5h-2c0-1.531.687-2.956 1.885-3.911 1.197-.956 2.757-1.302 4.28-.956 1.831.417 3.284 1.871 3.703 3.702.565 2.478-.727 4.93-3.072 5.833-.491.189-.796.59-.796 1.047v.286h-2v-.286c0-1.284.815-2.428 2.078-2.913 1.208-.465 2.227-1.824 1.84-3.521-.244-1.07-1.127-1.953-2.197-2.197-.938-.216-1.858-.013-2.589.57-.719.573-1.131 1.429-1.131 2.347zm4 8h-2v2h2zm-2 5.5c0 3.038-2.462 5.5-5.5 5.5s-5.5-2.462-5.5-5.5 2.462-5.5 5.5-5.5 5.5 2.462 5.5 5.5zm-3-3.5h-5v1.6h1.65v5.4h1.6v-5.4h1.75zm16 3.5c0 3.038-2.462 5.5-5.5 5.5s-5.5-2.462-5.5-5.5 2.462-5.5 5.5-5.5 5.5 2.462 5.5 5.5zm-3.5-3.5h-4v7h1.6v-2.5h2.4v-1.6h-2.4v-1.301h2.4v-1.6z"/></svg>