<svg id="Layer_1" viewBox="0 0 24 24" xmlns="http://www.w3.org/2000/svg" data-name="Layer 1"><path d="m8.007 8h-2.303l2.909-5.092c.756-1.224 1.984-1.908 3.387-1.908s2.595.667 3.346 1.877l2.935 5.123h-2.305s-2.348-4.099-2.348-4.099c-.371-.597-.909-.901-1.628-.901-.715 0-1.292.321-1.668.931zm15.41 8.963-3.725-6.501-.555 3.054 2.561 4.47c.381.618.4 1.366.049 2-.357.645-.981 1.015-1.713 1.015h-16.068c-.743 0-1.352-.359-1.712-1.012-.352-.637-.334-1.385.066-2.032l2.381-4.168v-4.031l-4.1 7.176c-.768 1.24-.805 2.743-.098 4.022.72 1.299 1.981 2.044 3.463 2.044h16.068c1.459 0 2.754-.765 3.463-2.047.705-1.275.668-2.778-.081-3.99zm-16.717-6.963v5.7c0 1.269 1.031 2.3 2.3 2.3s2.3-1.031 2.3-2.3v-5.7h-1.6v5.7c0 .386-.314.7-.7.7s-.7-.314-.7-.7v-5.7zm5.543 0s1.211 6.584 1.211 6.584c.103.58.61 1.416 1.546 1.416s1.435-.794 1.555-1.462l1.188-6.538s-1.64 0-1.64 0l.008.034-1.111 6.111-1.129-6.138v-.007s-1.628 0-1.628 0z"/></svg>