<svg id="Layer_1" viewBox="0 0 24 24" xmlns="http://www.w3.org/2000/svg" data-name="Layer 1"><path d="m23 18v-3h-5v3h-1v3.5c0 1.379 1.121 2.5 2.5 2.5h2c1.379 0 2.5-1.121 2.5-2.5v-3.5zm-1 3.5c0 .275-.225.5-.5.5h-2c-.275 0-.5-.225-.5-.5v-1.5h3zm-14-17.5h-2v-4h2zm-5.868 1.265-2-3.5 1.736-.992 2 3.5zm8.868 1.735h-6c-2.206 0-4 1.794-4 4v6c0 3.859 3.14 7 7 7s7-3.141 7-7v-6c0-2.206-1.794-4-4-4zm2 4v2h-4v-4h2c1.103 0 2 .897 2 2zm-8-2h2v4h-4v-2c0-1.103.897-2 2-2zm3 13c-2.757 0-5-2.243-5-5v-2h10v2c0 2.757-2.243 5-5 5z"/></svg>