<svg id="Layer_1" viewBox="0 0 24 24" xmlns="http://www.w3.org/2000/svg" data-name="Layer 1"><path d="m10.967 10.963 1.516-1.516-2.482-7.447c-.674-1.531-1.643-2-3.001-2s-2.327.469-3 2l-4 12h2.149l1.319-4h7.168zm-6.839-2.963s1.623-4.927 1.739-5.273c.24-.564.636-.727 1.135-.727s.863.1 1.134.727l1.813 5.273h-5.822zm19.873 4.184v11.816h-2v-10.538l-1.508-.791c-.108.16-.231.312-.371.451l-2.306 2.306-1.592-1.236 2.484-2.485c.189-.189.293-.44.293-.707s-.104-.518-.293-.707c-.378-.379-1.037-.378-1.414 0l-2.676 2.675c-.601-.447-1.272-.729-1.968-.86l3.229-3.229c1.133-1.134 3.109-1.134 4.243 0 .454.454.724 1.034.819 1.658zm-11.697 4.026 2.776 2.156 1.227-1.579-2.75-2.135c-1.193-.994-2.973-.831-3.968.361-.125.151-3.587 3.744-3.587 3.744v4.243h4.243l2.067-2.067 1.69 1.396v1.671h2v-2.613l-4.771-3.941c-.346-.289-.393-.806-.105-1.152.289-.347.806-.393 1.179-.083zm-2.888 4.79h-1.415v-1.415l1.338-1.338c.16.271.358.525.614.738l.809.668z"/></svg>