<svg id="Layer_1" viewBox="0 0 24 24" xmlns="http://www.w3.org/2000/svg" data-name="Layer 1"><path d="m10 13c.553 0 1-.448 1-1s-.447-1-1-1h-.96c.275-3.596 1.948-6.686 2.961-8.259 1.02 1.586 2.71 4.71 2.967 8.329.037.553.523.968 1.067.927.551-.039.966-.517.927-1.068-.261-3.702-1.798-6.848-2.935-8.723 4.545.94 7.973 4.973 7.973 9.793 0 .552.447 1 1 1s1-.448 1-1c0-6.616-5.383-11.999-12-11.999s-12 5.383-12 12c0 4.531 2.508 8.627 6.545 10.691.481.248 1.094.061 1.346-.436.251-.492.057-1.094-.436-1.346-3.064-1.566-5.051-4.541-5.386-7.91h4.975c.037.553.092 1.11.188 1.669.09.548.622.911 1.154.817.544-.094.91-.61.816-1.155-.076-.446-.126-.89-.159-1.331h.956zm-.034-10.791c-1.144 1.889-2.663 5.078-2.909 8.791h-5.006c.436-4.367 3.692-7.915 7.915-8.791zm13.034 15.495c.747 2.423 1 4.455 1 5.058 0 .682-.555 1.238-1.238 1.238-.951 0-2.532-1.442-3.456-2.793-.52-.76-1.385-1.207-2.306-1.207s-1.786.447-2.306 1.207c-.925 1.351-2.505 2.793-3.456 2.793-.682 0-1.238-.555-1.238-1.238 0-.603.254-2.634 1-5.058.132-.428.46-2.444 3-2.68v-.024c0-.552.448-1 1-1s1 .448 1 1h2c0-.552.448-1 1-1s1 .448 1 1v.024c2.54.236 2.868 2.252 3 2.68z"/></svg>