<svg id="Layer_1" viewBox="0 0 24 24" xmlns="http://www.w3.org/2000/svg" data-name="Layer 1"><path d="m21 5c0-.552.448-1 1-1s1 .448 1 1-.448 1-1 1-1-.448-1-1zm-6 9.5c0 2.322-1.178 3.5-3.5 3.5s-3.5-1.178-3.5-3.5c.006-.047-.004-1.883 0-2 0-2.72.475-5.5 4-5.5.569 0 1.238.063 1.706.162.541.113.886.645.772 1.185s-.647.885-1.185.772c-.281-.06-.816-.119-1.294-.119-.88 0-1.716.007-1.94 2.2.419-.129.895-.2 1.44-.2 2.322 0 3.5 1.178 3.5 3.5zm-2 0c0-1.233-.267-1.5-1.5-1.5s-1.5.267-1.5 1.5.267 1.5 1.5 1.5 1.5-.267 1.5-1.5zm10-2c0 1.646 0 5.5-3.5 5.5s-3.5-3.854-3.5-5.5 0-5.5 3.5-5.5 3.5 3.854 3.5 5.5zm-2 0c0-3.5-.867-3.5-1.5-3.5s-1.5 0-1.5 3.5.867 3.5 1.5 3.5 1.5 0 1.5-3.5zm-14.5-2.5c0-1.963-1.072-3-3.1-3-.604 0-1.154.059-1.635.176-.537.13-.867.67-.737 1.207.129.537.669.865 1.208.736.327-.079.719-.119 1.165-.119 1.047 0 1.1.257 1.1 1 0 .603 0 1-1.5 1-.552 0-1 .447-1 1s.448 1 1 1c1.974 0 1.992.414 2 1.5 0 1.125-.235 1.5-1.625 1.5-.443 0-.848-.031-1.205-.093-.547-.092-1.062.271-1.156.815s.271 1.062.815 1.155c.469.081.989.122 1.545.122 2.405 0 3.625-1.178 3.625-3.5.056-1.236-.362-2.261-.96-2.727.307-.462.46-1.054.46-1.773z"/></svg>