<svg id="Layer_1" viewBox="0 0 24 24" xmlns="http://www.w3.org/2000/svg" data-name="Layer 1"><path d="m9.007 3.884c.064-.549.561-.942 1.109-.877.866.102 1.572.242 2.359.588.328-.749.708-1.432 1.195-2.154.16-.236.412-.393.695-.432.281-.037.568.046.784.231.759.649 1.355 1.414 1.832 2.359.89-.389 1.883-.586 3.006-.6.513.022.994.423 1.012.968.031.97-.156 1.931-.57 2.913.849.326 1.602.789 2.248 1.384.201.185.318.444.323.718s-.103.537-.297.729c-.711.703-1.475 1.28-2.28 1.724.22.412.44.893.548 1.323.134.535-.192 1.078-.728 1.212-.522.135-1.081-.187-1.213-.728-.118-.47-.589-1.282-.859-1.684-.169-.252-.215-.567-.125-.856.09-.29.308-.523.59-.634.611-.238 1.202-.574 1.766-1.001-.477-.267-1.01-.462-1.61-.589-.314-.067-.577-.281-.706-.574-.13-.294-.111-.632.051-.909.385-.657.639-1.284.768-1.895-.697.125-1.307.366-1.846.729-.255.172-.572.217-.865.122-.292-.095-.524-.317-.63-.604-.247-.665-.538-1.225-.891-1.704-.279.523-.509 1.061-.727 1.686-.1.285-.322.51-.606.612-.283.102-.598.071-.857-.087-.98-.595-1.568-.741-2.597-.861-.548-.064-.941-.561-.877-1.109zm-.009 7.116c1.127-.007 1.973-.487 2.001-2-.025-1.453-.878-1.993-2.001-2-1.127.007-1.974.516-2.001 2 .028 1.509.878 1.993 2.001 2zm13.627 10.22c.431.345.5.973.156 1.404-.346.433-.977.499-1.405.157-.021-.017-2.019-1.593-4.479-2.323-.852.23-1.838.627-2.934 1.182-.859.435-1.835.502-2.747.196-.914-.31-1.649-.958-2.07-1.827l-2.93-6.045c-1.133-.06-2.22-.214-3.037-.634-.153-.079-.284-.196-.378-.34l-1.637-2.495c-.303-.462-.174-1.082.287-1.385.463-.304 1.082-.174 1.385.287l1.477 2.251c.983.372 2.777.358 4.116.354.303-.003.916-.003 1.22 0 1.328.006 2.702.018 3.621-.351l1.479-2.255c.303-.461.922-.591 1.385-.287.461.303.59.923.287 1.385l-1.637 2.495c-.094.144-.225.261-.378.34-.476.246-1.004.4-1.559.5l1.853 3.791c.632-.785 1.354-1.512 1.963-2.028.115-.097.25-.167.395-.204 2.647-.687 5.03-.249 5.13-.229.542.104.899.627.796 1.169-.104.542-.626.897-1.168.796-.061-.011-1.944-.342-4.034.146-.387.342-.809.764-1.2 1.208.032-.008.066-.02.097-.027.162-.039.331-.036.493.007 2.987.805 5.355 2.683 5.455 2.763zm-9.565-1.365c.14-.071.272-.129.409-.195l-2.765-5.658c-.724.01-1.521-.005-2.246.002l2.488 5.134c.186.383.509.668.91.804s.827.104 1.205-.086z"/></svg>