<svg id="Layer_1" viewBox="0 0 24 24" xmlns="http://www.w3.org/2000/svg" data-name="Layer 1"><path d="m22.972 8.763c-.691-2.832-3.01-4.949-5.909-5.394-1.288-.198-2.669-.294-4.062-.332v-1.037c0-.552-.448-1-1-1s-1 .448-1 1v1.037c-1.393.038-2.775.134-4.063.332-2.898.445-5.218 2.562-5.909 5.394-.129.532.192 1.069.723 1.205.04.01.306.077.77.172.221 9.558 5.226 11.204 7.666 11.994.326.105.759.246.934.342.173.318.508.523.879.523s.707-.205.879-.523c.174-.097.608-.237.934-.342 2.44-.79 7.445-2.436 7.666-11.994.464-.095.73-.162.77-.172.53-.136.852-.673.723-1.205zm-15.732-3.417c2.995-.459 6.525-.459 9.519 0 1.744.268 3.198 1.371 3.923 2.911-1.525.287-4.599.743-8.683.743s-7.153-.458-8.682-.744c.726-1.54 2.179-2.643 3.922-2.911zm5.957 14.886c-.438.142-.849.275-1.197.451-.348-.176-.759-.31-1.197-.451-2.263-.733-5.981-1.959-6.275-9.746 1.775.258 4.329.514 7.471.514s5.696-.257 7.471-.514c-.294 7.787-4.011 9.013-6.275 9.746z"/></svg>