<svg id="Layer_1" viewBox="0 0 24 24" xmlns="http://www.w3.org/2000/svg" data-name="Layer 1"><path d="m13.961 18.963c-.612.023-1.266.037-1.961.037-4.344 0-7.079-.541-8.158-.806-.264-1.218-.842-4.222-.842-7.194 0-.672.029-1.346.078-2h18.76c.283 0 .553-.12.742-.33s.281-.49.253-.771c-.288-2.822-.84-5.048-.863-5.141-.082-.332-.329-.599-.653-.706-.129-.043-3.225-1.052-9.316-1.052s-9.189 1.009-9.317 1.052c-.324.107-.571.374-.653.706-.042.168-1.03 4.166-1.03 8.242s.988 8.074 1.03 8.242c.082.332.329.599.653.706.129.043 3.225 1.052 9.316 1.052.723 0 1.401-.014 2.039-.039.552-.021.981-.486.96-1.038s-.481-1.003-1.038-.96zm-10.119-15.157c1.081-.265 3.816-.806 8.158-.806s7.079.541 8.158.806c.141.65.371 1.809.556 3.194h-17.426c.184-1.388.413-2.545.554-3.194zm3.158 1.194c0 .553-.447 1-1 1s-1-.447-1-1 .447-1 1-1 1 .447 1 1zm3 0c0 .553-.447 1-1 1s-1-.447-1-1 .447-1 1-1 1 .447 1 1zm11 16.784v.216c0 .553-.447 1-1 1s-1-.447-1-1v-.13c-1.018-.286-1.876-1.042-2.226-2.04-.182-.521.093-1.092.614-1.274.524-.181 1.092.094 1.274.614.165.474.69.83 1.222.83.615 0 1.115-.506 1.115-1.128.005-.694-.513-1.124-1.296-1.124-1.519 0-2.704-1.352-2.704-2.871 0-1.231.782-2.276 1.872-2.686v-.191c0-.553.447-1 1-1s1 .447 1 1v.185c.785.291 1.427.912 1.717 1.732.185.521-.088 1.093-.608 1.276-.521.186-1.093-.089-1.276-.608-.124-.35-.456-.585-.827-.585-.483 0-.877.394-.877.877-.001.454.282.868.821.868 1.777 0 3.179 1.403 3.179 3.127 0 1.329-.833 2.459-2 2.912zm-14.473-10.526c-.057.089-1.387 2.213-1.537 5.105-.019.349.249.646.597.663.352.03.645-.248.663-.597.007-.13.029-.249.041-.376h1.539c.012.127.034.246.04.376.017.349.319.616.663.597.348-.018.615-.314.597-.663-.15-2.893-1.481-5.017-1.538-5.106-.23-.363-.834-.364-1.064 0zm1.103 3.534h-1.138c.161-.701.37-1.319.569-1.79.199.471.409 1.088.569 1.79zm2.882-3.725c-.26.052-.46.261-.501.523-.006.037-.142.938-.142 2.409s.137 2.362.143 2.399c.04.256.231.461.484.518.021.005.512.114 1.084.114 2.286 0 2.551-1.729 2.551-3.031s-.265-3.031-2.551-3.031c-.564 0-1.048.095-1.068.099zm2.357 2.933c0 1.646-.511 1.77-1.289 1.77-.133 0-.261-.008-.374-.02-.035-.378-.075-.979-.075-1.75s.04-1.371.075-1.753c.113-.01.241-.017.374-.017.778 0 1.289.123 1.289 1.77z"/></svg>