<svg id="Layer_1" viewBox="0 0 24 24" xmlns="http://www.w3.org/2000/svg" data-name="Layer 1"><path d="m16 11c0-2.691-1.309-4-4-4s-4 1.309-4 4 1.309 4 4 4 4-1.309 4-4zm-6 0c0-1.589.411-2 2-2s2 .411 2 2-.411 2-2 2-2-.411-2-2zm8.825 10.822c.099.543-.262 1.063-.806 1.162-.531.099-1.066-.259-1.162-.807-.346-1.907-1.304-3.178-4.857-3.178s-4.512 1.27-4.857 3.178c-.098.544-.619.903-1.162.807-.543-.099-.904-.619-.806-1.162.783-4.322 4.27-4.822 6.825-4.822s6.042.5 6.825 4.822zm.157-4.823c-.528 0-.97-.414-.998-.947-.006-.107-.062-.305-.297-.632-.452-.628-.478-1.459-.066-2.115.093-.148.179-.296.257-.443.271-.516.757-.873 1.332-.979.687-.126.786-.303.79-.889-.003-.574-.102-.751-.788-.877-.577-.106-1.062-.464-1.334-.981-.077-.146-.163-.293-.257-.443-.411-.654-.385-1.485.068-2.114.428-.596.375-.794-.045-1.215-.421-.421-.619-.476-1.212-.049-.625.454-1.456.481-2.113.071-.149-.094-.295-.178-.44-.254-.509-.265-.878-.766-.982-1.338-.125-.685-.323-.794-.896-.794s-.772.109-.896.794c-.104.572-.473 1.073-.987 1.341-.139.073-.285.157-.432.249-.66.414-1.49.385-2.117-.07-.589-.426-.788-.375-1.21.05-.42.421-.474.619-.045 1.215.453.629.478 1.46.066 2.116-.093.148-.179.296-.257.443-.271.516-.757.873-1.332.979-.687.126-.786.303-.79.889.003.574.102.751.788.877.577.106 1.062.464 1.334.981.077.146.163.293.257.443.411.654.385 1.485-.068 2.114-.234.326-.29.523-.296.631-.029.552-.5.986-1.051.946-.551-.029-.975-.5-.946-1.052.028-.535.234-1.071.629-1.637-.106-.173-.205-.344-.294-.513-1.528-.241-2.345-1.198-2.354-2.792.009-1.605.826-2.562 2.428-2.855.023-.123.115-.289.22-.461-1.169-1.675-.489-2.956.294-3.74.786-.784 2.069-1.469 3.74-.297.168-.104.338-.201.506-.29.238-1.519 1.228-2.362 2.812-2.362s2.574.843 2.864 2.436c.121.022.285.111.454.216 1.672-1.171 2.954-.488 3.74.297.783.784 1.462 2.065.294 3.74.106.173.205.344.294.513 1.528.241 2.345 1.198 2.354 2.792-.009 1.605-.826 2.562-2.428 2.855-.023.123-.115.289-.22.461.395.566.601 1.103.629 1.637.029.552-.395 1.022-.946 1.052-.018 0-.036 0-.054 0z"/></svg>