<?xml version="1.0" encoding="UTF-8"?>
<svg xmlns="http://www.w3.org/2000/svg" id="Layer_1" data-name="Layer 1" viewBox="0 0 24 24">
  <path d="M15,12h-2v-2c0-.552-.448-1-1-1s-1,.448-1,1v2h-2c-.552,0-1,.448-1,1s.448,1,1,1h2v2c0,.552,.448,1,1,1s1-.448,1-1v-2h2c.552,0,1-.448,1-1s-.448-1-1-1Z"/>
  <path d="M19.565,18.629c1.05-1.477,1.61-3.446,1.655-5.885-.096-5.496-3-8.687-8.22-9.075v-1.67c0-.552-.448-1-1-1s-1,.448-1,1v1.668c-5.283,.371-8.22,3.652-8.22,9.113,0,2.304,.603,4.379,1.651,5.85-1.19,.531-1.792,1.658-1.792,3.369,0,.552,.448,1,1,1s1-.448,1-1c0-1.352,.386-1.677,1.448-1.719,1.49,1.053,3.47,1.599,5.918,1.613,2.441-.014,4.417-.559,5.905-1.613,1.063,.042,1.45,.366,1.45,1.719,0,.552,.448,1,1,1s1-.448,1-1c0-1.713-.603-2.84-1.796-3.371Zm-7.559,1.265c-4.834-.028-7.13-2.294-7.226-7.132,.092-4.77,2.456-7.103,7.213-7.132,4.712,.03,7.144,2.436,7.226,7.114-.09,4.851-2.386,7.123-7.214,7.151Z"/>
  <path d="M3.291,5.836c.789-1.393,2.009-2.363,3.625-2.885,.526-.169,.814-.733,.645-1.259-.169-.525-.733-.814-1.259-.645-2.078,.671-3.721,1.985-4.75,3.802-.272,.48-.103,1.089,.377,1.363,.617,.353,1.179-.052,1.363-.377Z"/>
  <path d="M22.449,4.85c-1.03-1.816-2.672-3.131-4.75-3.802-.525-.17-1.089,.12-1.259,.645-.169,.525,.119,1.089,.645,1.259,1.616,.521,2.835,1.492,3.625,2.885,.184,.325,.746,.73,1.363,.377,.479-.274,.649-.883,.377-1.363Z"/>
</svg>
