<svg id="Layer_1" viewBox="0 0 24 24" xmlns="http://www.w3.org/2000/svg" data-name="Layer 1"><path d="m12 8c-.552 0-1 .448-1 1v4c0 .552.448 1 1 1s1-.448 1-1v-4c0-.552-.448-1-1-1z"/><path d="m19.508 18.63c1.043-1.478 1.599-3.446 1.644-5.885-.096-5.493-2.975-8.684-8.152-9.074v-1.671c0-.552-.448-1-1-1s-1 .448-1 1v1.668c-5.239.374-8.052 3.494-8.152 9.076 0 0-.139 3.357 1.64 5.888-1.182.532-1.779 1.658-1.779 3.368 0 .552.448 1 1 1s1-.448 1-1c0-1.349.38-1.676 1.422-1.719 1.479 1.053 3.444 1.599 5.875 1.613 2.423-.014 4.385-.559 5.861-1.613 1.044.043 1.424.369 1.424 1.719 0 .552.448 1 1 1s1-.448 1-1c0-1.712-.598-2.839-1.783-3.37zm-7.502 1.264c-4.789-.027-7.063-2.294-7.158-7.133.092-4.835 2.367-7.102 7.146-7.132 4.668.03 7.077 2.436 7.158 7.114-.089 4.851-2.364 7.123-7.146 7.151z"/><path d="m3.372 5.833c.782-1.391 1.99-2.361 3.591-2.882.525-.171.812-.735.641-1.26-.17-.524-.733-.812-1.26-.641-2.063.672-3.694 1.987-4.715 3.804-.271.481-.112 1.115.382 1.361.699.349 1.178-.055 1.361-.382z"/><path d="m22.37 4.854c-1.021-1.817-2.651-3.132-4.715-3.804-.527-.171-1.09.117-1.26.641-.171.525.116 1.089.641 1.26 1.601.521 2.809 1.491 3.591 2.882.183.327.663.731 1.361.382.494-.247.653-.88.382-1.361z"/><circle cx="12" cy="17.003" r=".997"/></svg>