<svg id="Layer_1" viewBox="0 0 24 24" xmlns="http://www.w3.org/2000/svg" data-name="Layer 1"><path d="m13 16c0 .414-.448.75-1 .75s-1-.336-1-.75.448-.75 1-.75 1 .336 1 .75zm10 0c0 3.343-.78 5.463-.813 5.552-.116.309-.377.541-.697.619-.138.034-3.438.829-9.489.829s-9.352-.795-9.489-.829c-.32-.078-.581-.311-.697-.619-.033-.089-.813-2.209-.813-5.552s.78-5.463.813-5.552c.116-.309.377-.541.697-.619.138-.034 3.438-.829 9.489-.829s9.352.795 9.489.829c.32.078.581.311.697.619.033.089.813 2.209.813 5.552zm-2 0c0-2.056-.329-3.591-.532-4.341-1.142-.214-4.052-.659-8.468-.659s-7.326.445-8.468.659c-.202.749-.532 2.284-.532 4.341s.329 3.591.532 4.341c1.142.214 4.052.659 8.468.659s7.326-.445 8.468-.659c.203-.75.532-2.285.532-4.341zm-18.012-8.229c.031-.008 3.231-.771 9.012-.771s8.98.764 9.012.771c.523.13 1.08-.193 1.209-.734.131-.535-.196-1.076-.731-1.208-.138-.034-3.438-.829-9.489-.829s-9.352.795-9.489.829c-.535.132-.862.673-.731 1.208.131.537.672.856 1.209.734zm0-4c.031-.008 3.231-.771 9.012-.771s8.98.764 9.012.771c.523.13 1.08-.193 1.209-.734.131-.535-.196-1.076-.731-1.208-.138-.034-3.438-.829-9.489-.829s-9.353.795-9.49.829c-.535.132-.862.673-.731 1.208.131.537.672.857 1.209.734zm16.012 12.229c0 3.524-3.538 4-7 4s-7-.476-7-4 3.538-4 7-4 7 .476 7 4zm-2 0c0-.748 0-2-5-2s-5 1.252-5 2 0 2 5 2 5-1.252 5-2z"/></svg>