<svg id="Layer_1" viewBox="0 0 24 24" xmlns="http://www.w3.org/2000/svg" data-name="Layer 1"><path d="m12 11c.552 0 1 .448 1 1s-.448 1-1 1-1-.448-1-1 .448-1 1-1zm1.997 6.891c-.041-.551-.534-.974-1.071-.923-.293.021-.602.032-.926.032-3.738 0-5-1.262-5-5s1.262-5 5-5c3.361 0 4.216 1.12 4.639 2.33.182.521.752.797 1.274.614s.796-.753.614-1.274c-1.15-3.289-4.276-3.67-6.527-3.67-4.841 0-7 2.159-7 7s2.159 7 7 7c.376 0 .734-.013 1.074-.038.551-.041.964-.521.923-1.071zm-3.939 3.05c-2.644-.154-5.092-.576-6.209-.79-.265-1.386-.849-4.823-.849-8.15s.584-6.765.849-8.15c1.386-.265 4.824-.85 8.151-.85s6.765.585 8.151.85c.239 1.252.739 4.179.833 7.182.017.552.444 1.009 1.031.968.552-.017.985-.479.968-1.03-.13-4.147-.971-8.021-1.007-8.184-.083-.381-.381-.679-.762-.762-.19-.042-4.713-1.023-9.214-1.023s-9.024.979-9.214 1.021c-.381.083-.679.381-.762.762-.042.19-1.023 4.714-1.023 9.215s.981 9.024 1.023 9.215c.083.381.381.678.762.762.137.03 3.407.741 7.156.96.02 0 .04.002.059.002.525 0 .966-.41.998-.941.032-.552-.389-1.024-.94-1.057zm10.943-5.958c-.035 1.92-1.126 3.006-2.995 3.018-1.88-.012-2.972-1.098-3.007-2.981v-.037c.034-1.855 1.153-2.971 2.995-2.981 1.827.011 2.975 1.154 3.007 2.982zm-2 0c-.013-.721-.267-.977-1.007-.981-.74.005-.978.238-.995 1 .018.771.246.995 1.007 1 .764-.005.98-.224.995-1.019zm3.939 6.679c-.496-1.373-1.483-2.301-2.639-2.481-1.518-.236-3.086-.236-4.603 0-1.156.181-2.143 1.108-2.639 2.481-.188.52.081 1.093.601 1.28s1.092-.081 1.28-.601c.241-.666.649-1.12 1.067-1.185 1.313-.207 2.67-.207 3.985 0 .418.065.827.519 1.067 1.185.187.524.775.787 1.28.601.52-.188.789-.761.601-1.28z"/></svg>