<svg id="Layer_1" viewBox="0 0 24 24" xmlns="http://www.w3.org/2000/svg" data-name="Layer 1"><path d="m22.8 18.4c-.91-1.214-1.986-2.29-3.2-3.2-.441-.331-1.067-.242-1.399.2-.332.441-.242 1.068.2 1.399.489.368.945.774 1.381 1.2h-12.899c-.235-1.018-.865-1.647-1.883-1.883v-9.233c1.018-.235 1.648-.865 1.883-1.883h10.234c.306 1.321 1.264 2 2.883 2 1.99 0 3-1.009 3-3s-1.01-3-3-3c-1.619 0-2.577.679-2.883 2h-10.234c-.306-1.321-1.264-2-2.883-2-1.991 0-3 1.009-3 3 0 1.619.679 2.578 2 2.883v9.234c-1.321.306-2 1.264-2 2.883 0 1.99 1.009 3 3 3 1.619 0 2.577-.68 2.883-2h12.899c-.436.427-.892.833-1.381 1.2-.442.331-.532.958-.2 1.399.332.445.962.53 1.399.2 1.214-.91 2.29-1.986 3.2-3.2.257-.364.257-.835 0-1.199zm-2.8-15.4c.879 0 1 .122 1 1s-.121 1-1 1-1-.122-1-1 .121-1 1-1zm-16 0c.878 0 1 .122 1 1s-.122 1-1 1-1-.122-1-1 .122-1 1-1zm0 17c-.878 0-1-.121-1-1s.122-1 1-1 1 .121 1 1-.122 1-1 1zm5-8.5c0 1.99 1.009 3 3 3s3-1.01 3-3-1.01-3-3-3-3 1.009-3 3zm4 0c0 .878-.122 1-1 1s-1-.122-1-1 .122-1 1-1 1 .122 1 1z"/></svg>