<svg id="Layer_1" viewBox="0 0 24 24" xmlns="http://www.w3.org/2000/svg" data-name="Layer 1"><path d="m10.198 9.802c.592.592.761 1.607.8 2.331.027.484-.371.881-.855.854-.724-.04-1.739-.209-2.331-.8s-.761-1.607-.8-2.331c-.027-.484.371-.881.854-.855.724.04 1.739.209 2.331.8zm5.934-.8c-.724.04-1.739.209-2.331.8s-.761 1.607-.8 2.331c-.027.484.371.881.854.854.724-.04 1.739-.209 2.331-.8s.761-1.607.8-2.331c.027-.484-.371-.881-.854-.855zm4.868.999c0 6.13-8.04 12.518-8.382 12.786-.181.143-.399.214-.618.214s-.437-.071-.618-.214c-.342-.269-8.382-6.656-8.382-12.786 0-6.31 2.691-9.001 9-9.001s9 2.691 9 9zm-2 0c0-5.168-1.832-7-7-7s-7 1.832-7 7c0 4.277 5.185 9.129 7 10.697 1.815-1.568 7-6.42 7-10.697z"/></svg>