<svg id="Layer_1" viewBox="0 0 24 24" xmlns="http://www.w3.org/2000/svg" data-name="Layer 1"><path d="m13.79 18.032 2.115 2.115c-1.161-.087-2.47-.148-3.905-.148-5.789 0-9.719.96-9.758.97-.522.134-1.08-.189-1.212-.729-.133-.536.192-1.078.728-1.212.168-.042 4.189-1.03 10.243-1.03.622 0 1.214.013 1.79.032zm-11.79-7.032c.47-.037 1.363-.348 4.095-.663l-1.784-1.784c-1.57.235-2.486.46-2.554.477-.535.134-.861.676-.728 1.212.114.455.521.758.97.758zm-.97 4.19c.132.54.69.863 1.212.729.036-.009 3.401-.829 8.482-.953l-1.924-1.924c-4.234.247-6.905.903-7.042.937-.536.134-.861.676-.728 1.212zm21.677 6.103-.36-.36c.298-.112.54-.36.623-.692.133-.536-.192-1.078-.728-1.212-.035-.009-.833-.205-2.223-.424l-3.458-3.458c3.196.282 5.173.765 5.197.771.522.134 1.08-.189 1.212-.729.133-.536-.192-1.078-.728-1.212-.126-.031-3.122-.769-7.827-.976l-2.995-2.995c.193-.002.381-.007.579-.007 5.789 0 9.719.96 9.758.97.522.134 1.08-.189 1.212-.729.133-.536-.192-1.078-.728-1.212-.168-.042-4.189-1.03-10.243-1.03-.888 0-1.732.022-2.528.058l-2.786-2.786c1.443-.149 3.25-.272 5.314-.272 5.789 0 9.719.96 9.758.97.522.134 1.08-.189 1.212-.729.133-.536-.192-1.078-.728-1.212-.168-.042-4.189-1.03-10.243-1.03-2.991 0-5.474.248-7.113.473l-2.177-2.177c-.391-.391-1.023-.391-1.414 0s-.391 1.023 0 1.414l20 20c.391.391 1.023.391 1.414 0s.391-1.023 0-1.414z"/></svg>