<svg id="Layer_1" viewBox="0 0 24 24" xmlns="http://www.w3.org/2000/svg" data-name="Layer 1"><path d="m22.631 11.224c-.233-.19-.541-.264-.835-.203-.012.002-1.193.247-2.937.496-.546.078-.927.584-.849 1.131s.583.926 1.132.849c.716-.102 1.336-.203 1.828-.288-.282 5.335-2.555 7.537-7.97 7.768v-6.941c.667-.017 1.352-.046 2.071-.097.551-.04.966-.518.926-1.069-.039-.551-.501-.964-1.068-.926-.674.048-1.306.075-1.929.092v-3.11c2.013-.304 3-1.594 3-3.926 0-2.691-1.309-4-4-4s-4 1.309-4 4c0 2.332.987 3.622 3 3.926v3.11c-.623-.017-1.255-.044-1.929-.092-.553-.031-1.03.375-1.069.926-.04.551.375 1.029.926 1.069.719.052 1.404.08 2.071.097v6.941c-5.415-.231-7.688-2.433-7.97-7.768.492.085 1.113.186 1.829.288.538.076 1.053-.302 1.131-.849s-.302-1.053-.849-1.131c-1.743-.249-2.925-.494-2.937-.496-.601-.14-1.219.364-1.204.979 0 7.71 3.29 11 11 11s11-3.29 11-11c0-.301-.136-.586-.369-.776zm-12.631-6.224c0-1.589.411-2 2-2s2 .411 2 2-.411 2-2 2-2-.411-2-2z"/></svg>