<?xml version="1.0" encoding="UTF-8"?>
<svg xmlns="http://www.w3.org/2000/svg" id="Layer_1" data-name="Layer 1" viewBox="0 0 24 24">
  <path d="M22.047,6.313c-.686-2.044-2.315-3.674-4.361-4.361-3.773-1.266-7.6-1.266-11.373,0h0c-2.045,.688-3.675,2.317-4.36,4.361-1.266,3.773-1.266,7.6,0,11.373,.686,2.044,2.315,3.674,4.361,4.361,1.887,.633,3.786,.949,5.687,.949s3.8-.316,5.687-.949c2.045-.688,3.675-2.317,4.36-4.361,1.266-3.773,1.266-7.6,0-11.373Zm-1.896,10.736c-.487,1.454-1.646,2.613-3.1,3.102-3.352,1.125-6.75,1.125-10.101,0-1.454-.488-2.613-1.647-3.101-3.102-1.125-3.351-1.125-6.749,0-10.1,.487-1.454,1.646-2.613,3.101-3.102,3.352-1.125,6.75-1.125,10.101,0,1.454,.488,2.613,1.647,3.101,3.102,1.125,3.351,1.125,6.749,0,10.1Z"/>
  <path d="M13.607,9.057c.526-.169,.814-.732,.645-1.259-.17-.524-.732-.813-1.259-.644-4.269,1.378-4.882,4.535-4.907,4.669-.021,.117-.021,.236,0,.354,.024,.134,.638,3.291,4.907,4.669,.102,.033,.206,.049,.307,.049,.422,0,.815-.27,.952-.692,.169-.526-.119-1.09-.645-1.259-2.578-.833-3.319-2.409-3.5-2.941,.186-.544,.93-2.114,3.5-2.945Z"/>
</svg>
