<?xml version="1.0" encoding="UTF-8"?>
<svg xmlns="http://www.w3.org/2000/svg" id="Layer_1" data-name="Layer 1" viewBox="0 0 24 24">
  <path d="M6.563,23c-.368,0-.722-.203-.896-.555-.246-.494-.044-1.095,.45-1.341,6.925-3.445,9.562-7.823,10.216-9.104-.651-1.277-3.288-5.657-10.216-9.104-.494-.246-.696-.847-.45-1.341s.847-.696,1.341-.45c8.519,4.239,11.047,9.778,11.336,10.472,.061,.128,.094,.271,.094,.422,0,.138-.028,.271-.08,.392-.209,.517-2.669,6.187-11.35,10.506-.143,.071-.295,.104-.444,.104Z"/>
</svg>
