<?xml version="1.0" encoding="UTF-8"?>
<svg xmlns="http://www.w3.org/2000/svg" id="Layer_1" data-name="Layer 1" viewBox="0 0 24 24">
  <path d="M22.048,6.313c-.687-2.044-2.317-3.675-4.361-4.361-3.772-1.266-7.599-1.266-11.373,0-2.044,.687-3.675,2.317-4.361,4.361-1.265,3.773-1.265,7.6,0,11.373,.687,2.044,2.317,3.675,4.361,4.361,1.887,.633,3.786,.949,5.687,.949s3.8-.316,5.687-.949c2.044-.687,3.675-2.317,4.361-4.361,1.265-3.773,1.265-7.6,0-11.373Zm-1.896,10.736c-.488,1.454-1.647,2.613-3.102,3.102-3.352,1.125-6.75,1.125-10.1,0-1.454-.488-2.613-1.647-3.102-3.102-1.124-3.351-1.124-6.749,0-10.1,.488-1.454,1.647-2.613,3.102-3.102,3.352-1.125,6.75-1.125,10.1,0,1.454,.488,2.613,1.647,3.102,3.102,1.124,3.351,1.124,6.749,0,10.1Z"/>
  <path d="M16.202,9.749c-.527-.171-1.089,.119-1.259,.644-.833,2.578-2.41,3.319-2.941,3.5-.544-.185-2.114-.928-2.945-3.5-.169-.524-.729-.814-1.259-.644-.525,.169-.813,.732-.644,1.259,1.378,4.269,4.535,4.881,4.669,4.905,.059,.011,.118,.016,.177,.016s.118-.005,.177-.016c.134-.024,3.291-.637,4.669-4.905,.17-.526-.118-1.09-.644-1.259Z"/>
</svg>
