<?xml version="1.0" encoding="UTF-8"?>
<svg xmlns="http://www.w3.org/2000/svg" id="Layer_1" data-name="Layer 1" viewBox="0 0 24 24">
  <path d="M22.048,6.313c-.687-2.044-2.317-3.675-4.361-4.361-3.774-1.266-7.601-1.266-11.374,0-2.044,.688-3.674,2.317-4.361,4.361-1.266,3.773-1.266,7.6,0,11.373,.687,2.044,2.316,3.674,4.361,4.361,1.887,.633,3.786,.949,5.686,.949s3.8-.316,5.687-.949c2.044-.687,3.675-2.317,4.361-4.361,1.265-3.773,1.265-7.6,0-11.373Zm-1.896,10.736c-.488,1.454-1.647,2.613-3.102,3.102-3.35,1.125-6.748,1.125-10.1,0-1.454-.488-2.613-1.647-3.101-3.102-1.125-3.351-1.125-6.749,0-10.1,.488-1.454,1.647-2.613,3.101-3.102,1.676-.562,3.363-.843,5.051-.843s3.375,.28,5.05,.843c1.454,.488,2.613,1.647,3.102,3.102,1.124,3.351,1.124,6.749,0,10.1Z"/>
  <path d="M12.177,8.087c-.117-.021-.237-.021-.353,0-.134,.024-3.292,.637-4.67,4.905-.169,.526,.119,1.09,.645,1.259,.527,.172,1.089-.119,1.259-.644,.832-2.579,2.409-3.319,2.941-3.5,.544,.185,2.114,.928,2.945,3.5,.137,.423,.528,.692,.951,.692,.102,0,.205-.016,.308-.049,.525-.169,.813-.732,.644-1.259-1.378-4.269-4.536-4.881-4.669-4.905Z"/>
</svg>
