<?xml version="1.0" encoding="UTF-8"?>
<svg xmlns="http://www.w3.org/2000/svg" id="Layer_1" data-name="Layer 1" viewBox="0 0 24 24">
  <path d="M21.323,11.545c-.146-.286-3.666-7.031-10.671-10.444-.497-.24-1.095-.034-1.337,.462s-.036,1.095,.461,1.337c5.391,2.626,8.614,7.578,9.511,9.102-.896,1.523-4.12,6.474-9.511,9.1-.497,.242-.703,.841-.461,1.337,.173,.355,.529,.562,.899,.562,.147,0,.296-.032,.438-.101,7.006-3.413,10.525-10.156,10.671-10.442,.147-.286,.147-.626,0-.912Z"/>
  <path d="M14.643,12.518c.192-.317,.192-.716,0-1.033-.146-.243-3.666-5.981-10.638-9.378-.497-.24-1.095-.035-1.337,.462-.242,.496-.036,1.095,.461,1.337,5.252,2.558,8.448,6.658,9.456,8.096-1.008,1.438-4.204,5.536-9.456,8.094-.497,.242-.703,.841-.461,1.337,.173,.356,.529,.562,.899,.562,.147,0,.296-.032,.438-.101,6.971-3.396,10.491-9.133,10.638-9.376Z"/>
</svg>
