<svg id="Layer_1" viewBox="0 0 24 24" xmlns="http://www.w3.org/2000/svg" data-name="Layer 1"><path d="m21.797 2.707c-.109-.322-.375-.566-.705-.648-.173-.043-4.287-1.058-9.092-1.058s-8.919 1.014-9.092 1.057c-.33.083-.596.327-.705.648-.049.145-1.203 3.597-1.203 8.233 0 4.795 1.162 8.108 1.212 8.247.114.322.386.563.719.639.133.03 3.125.707 5.959.926.91.991 2.431 2.245 3.192 2.245.713 0 2.169-1.277 3.029-2.245 2.833-.219 5.826-.896 5.959-.926.335-.077.607-.32.722-.645.049-.141 1.208-3.51 1.208-8.241 0-4.636-1.154-8.088-1.203-8.233zm-1.73 15.288c-1.053.217-3.413.665-5.515.791-.296.018-.568.166-.745.405-.459.624-1.306 1.296-1.808 1.649-.501-.353-1.348-1.025-1.807-1.648-.176-.239-.449-.388-.746-.406-2.098-.126-4.46-.574-5.513-.791-.305-1.062-.935-3.669-.935-7.056 0-3.301.638-5.979.94-7.066 1.244-.269 4.438-.873 8.06-.873s6.815.604 8.06.873c.303 1.087.94 3.766.94 7.066 0 3.393-.627 5.989-.933 7.056zm-10.742-11.56c-.373-.545-1.277-.545-1.65 0-.156.229-.979 1.5-1.796 4.11-.873 2.788-.879 4.39-.879 4.457 0 .551.447.994.998.995.55.001.998-.445 1.002-.996 0-.007.005-.354.103-1.002h2.793c.099.647.103.993.103.998-.001.553.447 1.003 1 1.002.551 0 .999-.446 1-.998 0-.067-.006-1.669-.879-4.457-.817-2.61-1.64-3.882-1.796-4.11zm-1.789 5.565c.073-.269.156-.555.251-.857.247-.789.493-1.438.713-1.956.22.518.466 1.167.713 1.956.095.302.177.588.251.857h-1.927zm11.464-5c0 .552-.447 1-1 1h-3c-.553 0-1-.448-1-1s.447-1 1-1h3c.553 0 1 .448 1 1zm-2 8c0 .552-.447 1-1 1h-1c-.553 0-1-.448-1-1s.447-1 1-1h1c.553 0 1 .448 1 1zm2-4c0 .552-.447 1-1 1h-3c-.553 0-1-.448-1-1s.447-1 1-1h3c.553 0 1 .448 1 1z"/></svg>