<svg id="Layer_1" viewBox="0 0 24 24" xmlns="http://www.w3.org/2000/svg" data-name="Layer 1"><path d="m7 13h-1c-.552 0-1 .447-1 1s.448 1 1 1h1c.552 0 1-.447 1-1s-.448-1-1-1z"/><path d="m12.5 13h-1c-.552 0-1 .447-1 1s.448 1 1 1h1c.552 0 1-.447 1-1s-.448-1-1-1z"/><path d="m18 13h-1c-.552 0-1 .447-1 1s.448 1 1 1h1c.552 0 1-.447 1-1s-.448-1-1-1z"/><path d="m7 17h-1c-.552 0-1 .447-1 1s.448 1 1 1h1c.552 0 1-.447 1-1s-.448-1-1-1z"/><path d="m12.5 17h-1c-.552 0-1 .447-1 1s.448 1 1 1h1c.552 0 1-.447 1-1s-.448-1-1-1z"/><path d="m18 17h-1c-.552 0-1 .447-1 1s.448 1 1 1h1c.552 0 1-.447 1-1s-.448-1-1-1z"/><path d="m12.5 9h-1c-.552 0-1 .447-1 1s.448 1 1 1h1c.552 0 1-.447 1-1s-.448-1-1-1z"/><path d="m12.5 5h-1c-.552 0-1 .447-1 1s.448 1 1 1h1c.552 0 1-.447 1-1s-.448-1-1-1z"/><path d="m18 9h-1c-.552 0-1 .447-1 1s.448 1 1 1h1c.552 0 1-.447 1-1s-.448-1-1-1z"/><path d="m20.306 5.081c-.806-.081-1.578-.136-2.306-.162v-.708c0-1.507-1.126-2.787-2.618-2.977-1.214-.155-2.353-.234-3.382-.234s-2.167.079-3.381.234c-1.493.189-2.619 1.47-2.619 2.977v4.308c-.723.027-1.495.081-2.306.162-1.536.155-2.694 1.438-2.694 2.985v9.334c0 .409.249.776.628.929.109.044 2.767 1.071 10.372 1.071s10.262-1.027 10.372-1.071c.379-.152.628-.52.628-.929v-12.934c0-1.548-1.159-2.831-2.694-2.985zm.694 15.167c-1.128.271-3.858.752-9 .752s-7.876-.482-9-.752v-8.582c0-.516.385-.943.894-.995 1.131-.113 2.177-.171 3.106-.171.552 0 1-.447 1-1v-5.289c0-.503.375-.93.872-.992 1.115-.144 2.196-.219 3.128-.219s2.013.075 3.129.219c.497.062.871.489.871.992v1.689c0 .553.448 1 1 1 1.173 0 2.335.093 3.106.171.51.051.894.479.894.995z"/></svg>