<svg id="Layer_1" viewBox="0 0 24 24" xmlns="http://www.w3.org/2000/svg" data-name="Layer 1"><path d="m12 1c-7.71 0-11 3.29-11 11s3.29 11 11 11 11-3.29 11-11-3.29-11-11-11zm8.211 5.957c-1.154-.265-2.798-.596-4.477-.778-1.339-.146-2.822-.204-4.248-.17 1.004-1.218 1.997-2.268 2.622-2.904 3.197.333 5.131 1.514 6.104 3.852zm-11.259-.965c-1.003 1.338-1.807 2.637-2.365 3.614-.799-2.084-1.335-4.044-1.486-4.618 1.346-1.306 3.409-1.906 6.339-1.974-.768.841-1.663 1.877-2.488 2.977zm.903 9.939c-.166-.244-1.224-1.828-2.261-3.982.258-.512 1.095-2.109 2.342-3.903.586.032 3.148-.118 4.202.013.141.206 1.215 1.806 2.268 3.993-.257.511-1.091 2.103-2.335 3.893-.489.005-3.213.11-4.216-.014zm5.194 2.078c1.003-1.338 1.807-2.637 2.365-3.614.799 2.084 1.335 4.044 1.486 4.618-1.346 1.306-3.409 1.906-6.339 1.974.769-.842 1.664-1.878 2.488-2.977zm-11.376-10.734c.371 1.212.913 2.824 1.595 4.398.702 1.619 1.472 3.014 2.057 3.994-1.804-.275-3.428-.671-4.125-.851-.13-.842-.2-1.771-.2-2.815 0-1.916.216-3.47.673-4.725zm.103 9.742c1.158.269 2.856.616 4.593.805 1.312.144 2.765.202 4.144.172-1.003 1.216-1.995 2.266-2.62 2.903-3.21-.334-5.148-1.522-6.117-3.879zm16.55-.291c-.371-1.212-.913-2.824-1.595-4.398-.707-1.63-1.482-3.031-2.067-4.011 1.76.262 3.368.646 4.132.842.133.849.204 1.787.204 2.843 0 1.916-.216 3.47-.673 4.725z"/></svg>