<svg id="Layer_1" viewBox="0 0 24 24" xmlns="http://www.w3.org/2000/svg" data-name="Layer 1"><path d="m23.029 10.972c-.047-.241.012-.463.005-.739-.052-3.021-1.417-5.05-3.815-5.846.328-.139.65-.331.922-.603.594-.594.808-1.418.883-2.02.055-.443-.315-.813-.758-.758-.602.075-1.427.289-2.02.883-.303.303-.502.668-.643 1.035-.306-.797-.673-1.376-.741-1.479-.307-.459-.927-.584-1.387-.277-.46.306-.584.927-.277 1.387.006.009.445.689.682 1.507-1.902.192-3.114.927-3.882 1.795-.667-.736-1.543-1.26-2.608-1.556.267-.131.528-.294.751-.518.594-.594.808-1.418.883-2.02.055-.443-.315-.813-.758-.758-.602.075-1.427.289-2.02.883-.303.303-.502.668-.643 1.035-.306-.797-.673-1.376-.741-1.479-.307-.459-.926-.584-1.387-.277-.46.306-.584.927-.277 1.387.007.009.463.715.697 1.554-3.092.488-4.808 2.623-4.871 6.159-.059 3.925-.06 6.737 1.036 10.974.082.332.329.598.653.706.129.043 3.225 1.051 9.316 1.051s9.188-1.008 9.316-1.051c.324-.108.571-.375.653-.706 1.003-4.008 1.134-6.604 1.03-10.271zm-6.255-4.972c2.65.017 4.025 1.271 4.221 3.764-1.47-.27-4.134-.659-7.588-.745-.069-.454-.171-.881-.309-1.278.636-1.154 1.841-1.729 3.676-1.741zm-9.506 0c2.364.016 3.718 1.006 4.125 3.006-3.815.044-6.758.469-8.331.758.195-2.568 1.503-3.747 4.206-3.764zm12.929 14.192c-1.074.264-3.813.808-8.168.808s-7.095-.544-8.168-.808c-.098-.413-.185-.808-.263-1.192h14.431c.553 0 1-.448 1-1s-.447-1-1-1h-14.773c-.092-.679-.156-1.338-.196-2h14.969c.553 0 1-.448 1-1s-.447-1-1-1h-15.028c-.001-.385.001-.778.009-1.188 1.4-.275 4.69-.812 9.02-.812s7.619.537 9.02.812c.056 2.969-.092 5.174-.852 8.38z"/></svg>