<?xml version="1.0" encoding="UTF-8"?>
<svg xmlns="http://www.w3.org/2000/svg" id="Layer_1" data-name="Layer 1" viewBox="0 0 24 24">
  <path d="M20.479,9.088c-.167,.526,.12,1.1,.649,1.256,.637,.188,1.121-.224,1.257-.649,1.392-4.37-.01-7.408-.07-7.536-.099-.208-.267-.376-.475-.475-.127-.061-3.166-1.463-7.536-.07-.526,.167-.816,.73-.649,1.256,.168,.526,.727,.815,1.257,.649,1.929-.614,3.513-.588,4.579-.426L1.293,21.293c-.391,.391-.398,1.031,0,1.414,.579,.556,1.219,.195,1.414,0L20.905,4.509c.162,1.068,.189,2.652-.425,4.579Z"/>
  <path d="M21.129,13.656c-.526,.167-.816,.73-.649,1.256,.614,1.928,.588,3.512,.426,4.579l-5.198-5.198c-.391-.391-1.023-.391-1.414,0s-.391,1.023,0,1.414l5.198,5.198c-1.068,.162-2.651,.189-4.579-.425-.53-.167-1.089,.123-1.257,.649-.167,.526,.123,1.089,.649,1.256,1.44,.459,2.735,.614,3.83,.614,2.227,0,3.621-.644,3.706-.684,.208-.099,.376-.267,.475-.475,.061-.127,1.462-3.166,.07-7.536-.168-.527-.729-.818-1.257-.649Z"/>
  <path d="M8.293,9.707c.195,.195,.816,.543,1.414,0,.409-.371,.391-1.023,0-1.414L2.707,1.293c-.391-.391-1.023-.391-1.414,0s-.391,1.023,0,1.414l7,7Z"/>
</svg>
