<?xml version="1.0" encoding="UTF-8"?>
<svg xmlns="http://www.w3.org/2000/svg" id="Layer_1" data-name="Layer 1" viewBox="0 0 24 24">
  <path d="M12.972,15.597c.033-.059,.659-1.206,.89-2.602h3.143c.552,0,1-.448,1-1s-.448-1-1-1h-3.154c-.253-1.412-.926-2.567-.961-2.626-.222-.377-.664-.565-1.089-.466-3.428,.803-5.499,3.357-5.579,3.47-.496,.701,.014,1.262,.036,1.287,.378,.443,2.397,2.649,5.604,3.425,.438,.106,.893-.094,1.11-.488Z"/>
  <path d="M21.142,21.806c.325-.1,.578-.358,.67-.686,.049-.172,1.188-4.272,1.188-9.121s-1.139-8.948-1.188-9.12c-.093-.329-.347-.588-.674-.687-.161-.049-4.007-1.193-9.139-1.193C6.825,1,3.018,2.146,2.858,2.194c-.325,.1-.578,.358-.67,.686-.049,.172-1.188,4.272-1.188,9.121s1.139,8.948,1.188,9.12c.093,.329,.347,.588,.674,.687,.161,.049,4.007,1.193,9.139,1.193,5.175,0,8.982-1.146,9.142-1.194Zm-17.167-1.771c-.298-1.245-.976-4.467-.976-8.036s.678-6.796,.976-8.038c1.184-.3,4.23-.962,8.024-.962,3.752,0,6.829,.665,8.024,.964,.298,1.245,.976,4.467,.976,8.036s-.678,6.796-.976,8.038c-1.184,.3-4.23,.962-8.024,.962-3.752,0-6.829-.665-8.024-.964Z"/>
</svg>
