<svg id="Layer_1" viewBox="0 0 24 24" xmlns="http://www.w3.org/2000/svg" data-name="Layer 1"><path d="m11 22c0 .552-.448 1-1 1s-1-.448-1-1 .448-1 1-1 1 .448 1 1zm3-1c-.552 0-1 .448-1 1s.448 1 1 1 1-.448 1-1-.448-1-1-1zm4 0c-.552 0-1 .448-1 1s.448 1 1 1 1-.448 1-1-.448-1-1-1zm4 0c-.552 0-1 .448-1 1s.448 1 1 1 1-.448 1-1-.448-1-1-1zm-16 0c-.552 0-1 .448-1 1s.448 1 1 1 1-.448 1-1-.448-1-1-1zm-4 0c-.552 0-1 .448-1 1s.448 1 1 1 1-.448 1-1-.448-1-1-1zm11-17.032c1.59 1.268 2.993 2.792 4.163 4.58.304.465.928.589 1.384.289.462-.303.592-.922.29-1.385-1.692-2.586-3.811-4.704-6.298-6.295-.328-.209-.749-.209-1.077 0-2.488 1.591-4.606 3.709-6.298 6.295-.302.463-.173 1.082.29 1.385.464.303 1.083.173 1.384-.289 1.17-1.788 2.573-3.313 4.163-4.58v14.032c0 .553.448 1 1 1s1-.447 1-1v-14.032z"/></svg>