<?xml version="1.0" encoding="UTF-8"?>
<svg xmlns="http://www.w3.org/2000/svg" id="Layer_1" data-name="Layer 1" viewBox="0 0 24 24">
  <path d="M22.048,6.313c-.688-2.044-2.317-3.674-4.361-4.361-3.773-1.266-7.6-1.266-11.373,0-2.044,.687-3.674,2.316-4.361,4.361-1.266,3.773-1.266,7.6,0,11.374,.688,2.044,2.317,3.674,4.361,4.361,1.887,.633,3.787,.949,5.687,.949s3.8-.316,5.687-.949c2.044-.687,3.674-2.316,4.361-4.361,1.266-3.773,1.266-7.6,0-11.374Zm-1.896,10.737c-.488,1.454-1.647,2.613-3.102,3.101-3.352,1.125-6.75,1.124-10.1,0-1.454-.488-2.613-1.647-3.102-3.101-1.124-3.352-1.124-6.75,0-10.101,.488-1.454,1.647-2.613,3.102-3.101,1.676-.562,3.362-.843,5.05-.843s3.375,.281,5.05,.843c1.454,.488,2.613,1.647,3.102,3.101,1.124,3.352,1.124,6.75,0,10.101Z"/>
  <path d="M15.331,11.431c-.494-.246-1.095-.043-1.341,.45-.321,.646-.667,1.145-.991,1.527v-4.873c0-.552-.447-1-1-1s-1,.448-1,1v4.87c-.324-.381-.669-.879-.989-1.524-.246-.494-.848-.696-1.341-.45-.494,.246-.696,.847-.45,1.341,1.377,2.767,3.214,3.546,3.419,3.625,.116,.045,.239,.068,.362,.068s.246-.022,.362-.068c.205-.08,2.042-.858,3.419-3.625,.246-.494,.044-1.095-.45-1.341Z"/>
</svg>
