<?xml version="1.0" encoding="UTF-8"?>
<svg xmlns="http://www.w3.org/2000/svg" id="Layer_1" data-name="Layer 1" viewBox="0 0 24 24">
  <path d="M22.707,21.293L4.707,3.292c1.527-.34,4.175-.591,7.496,.467,.528,.168,1.089-.123,1.256-.649,.168-.526-.123-1.089-.649-1.256-6.057-1.93-10.229-.005-10.403,.078-.208,.099-.376,.267-.475,.475-.083,.175-2.007,4.348-.078,10.403,.135,.425,.529,.719,.952,.697,.851-.044,1.121-.778,.953-1.304-1.049-3.294-.799-5.953-.461-7.49L21.293,22.707c.195,.195,.891,.538,1.414,0,.385-.396,.391-1.023,0-1.414Z"/>
</svg>
