<?xml version="1.0" encoding="UTF-8"?>
<svg xmlns="http://www.w3.org/2000/svg" id="Layer_1" data-name="Layer 1" viewBox="0 0 24 24">
  <path d="M22.936,11.647c-.07-.184-1.781-4.545-8.206-7.825-.497-.253-1.095-.055-1.346,.436-.251,.492-.056,1.094,.436,1.345,3.619,1.847,5.545,4.022,6.482,5.397H2c-.553,0-1,.448-1,1s.447,1,1,1H20.286c-.949,1.381-2.888,3.569-6.467,5.396-.491,.251-.687,.854-.436,1.345,.177,.346,.527,.545,.892,.545,.152,0,.308-.035,.454-.109,6.236-3.183,8.018-7.345,8.2-7.809,.091-.231,.094-.49,.006-.722Z"/>
</svg>
