<svg id="Layer_1" viewBox="0 0 24 24" xmlns="http://www.w3.org/2000/svg" data-name="Layer 1"><path d="m22 13.413c0 3.886-.888 7.788-.925 7.953-.079.344-.334.621-.672.729-.116.037-2.911.905-8.403.905s-8.287-.868-8.403-.905c-.337-.107-.593-.385-.672-.729-.038-.165-.925-4.067-.925-7.953s.888-7.787.925-7.952c.08-.344.334-.621.671-.729.06-.019 1.502-.471 4.312-.729.549-.053 1.037.354 1.087.904.051.551-.354 1.037-.904 1.088-1.611.147-2.729.362-3.34.502-.241 1.213-.751 4.111-.751 6.915s.51 5.702.751 6.915c1.018.232 3.448.672 7.249.672s6.229-.439 7.249-.672c.241-1.213.751-4.112.751-6.915s-.51-5.703-.751-6.915c-.61-.14-1.728-.354-3.34-.502-.55-.051-.955-.537-.904-1.088.051-.549.538-.956 1.087-.904 2.81.258 4.252.71 4.312.729.337.107.592.385.671.729.038.165.925 4.066.925 7.952zm-14.2-2.013c-.332-.442-.957-.53-1.4-.2-.442.331-.531.958-.2 1.399 1.479 1.973 3.229 3.722 5.2 5.2.356.267.845.267 1.2 0 1.972-1.479 3.721-3.228 5.2-5.2.331-.441.242-1.068-.2-1.399-.443-.33-1.069-.242-1.4.2-.949 1.266-2.023 2.429-3.2 3.481v-12.881c0-.553-.448-1-1-1s-1 .447-1 1v12.882c-1.176-1.052-2.25-2.215-3.2-3.481z"/></svg>