<?xml version="1.0" encoding="UTF-8"?>
<svg xmlns="http://www.w3.org/2000/svg" id="Layer_1" data-name="Layer 1" viewBox="0 0 24 24">
  <path d="M20.178,9.271C16.995,3.035,12.833,1.253,12.369,1.07c-.233-.092-.492-.093-.722-.005-.184,.069-4.545,1.781-7.825,8.206-.251,.492-.056,1.094,.436,1.345,.493,.25,1.095,.056,1.345-.436,1.847-3.619,4.022-5.544,5.397-6.48V22c0,.552,.448,1,1,1s1-.448,1-1V3.714c1.381,.949,3.568,2.887,5.396,6.466,.177,.346,.527,.545,.892,.545,.152,0,.308-.035,.454-.109,.491-.251,.687-.854,.436-1.345Z"/>
</svg>
