<svg id="Layer_1" viewBox="0 0 24 24" xmlns="http://www.w3.org/2000/svg" data-name="Layer 1"><path d="m10.6 17.2c.442.331.532.958.2 1.399-1.193 1.594-2.606 3.007-4.2 4.2-.355.267-.844.267-1.199 0-1.594-1.193-3.007-2.606-4.2-4.2-.332-.441-.242-1.068.2-1.399.443-.333 1.068-.242 1.399.2.655.874 1.407 1.663 2.2 2.41v-17.81c0-.553.447-1 1-1s1 .447 1 1v17.81c.793-.747 1.545-1.536 2.2-2.41.331-.442.958-.531 1.399-.2zm8.4-8.2c-1.425 0-2.854-.31-2.914-.323-.382-.083-.68-.381-.763-.763-.014-.06-.323-1.489-.323-2.914s.31-2.854.323-2.914c.083-.382.381-.68.763-.763.06-.014 1.489-.323 2.914-.323s2.854.31 2.914.323c.382.083.68.381.763.763.014.06.323 1.489.323 2.914s-.31 2.854-.323 2.914c-.083.382-.381.68-.763.763-.06.014-1.489.323-2.914.323zm-1.84-2.16c.965.15 2.715.15 3.68 0 .075-.482.16-1.172.16-1.84s-.085-1.357-.16-1.84c-.965-.15-2.715-.15-3.68 0-.075.482-.16 1.172-.16 1.84s.085 1.357.16 1.84zm.84 16.16c-1.864 0-3.735-.406-3.814-.424-.381-.084-.678-.381-.762-.762-.018-.079-.424-1.95-.424-3.814s.406-3.735.424-3.814c.084-.381.381-.678.762-.762.079-.018 1.95-.424 3.814-.424s3.735.406 3.814.424c.381.084.678.381.762.762.018.079.424 1.95.424 3.814s-.406 3.735-.424 3.814c-.084.381-.381.678-.762.762-.079.018-1.95.424-3.814.424zm-2.743-2.256c.654.11 1.715.257 2.743.257s2.089-.146 2.743-.257c.11-.654.257-1.715.257-2.743s-.146-2.089-.257-2.743c-.654-.11-1.715-.257-2.743-.257s-2.089.146-2.743.257c-.11.654-.257 1.715-.257 2.743s.146 2.089.257 2.743z"/></svg>