<svg id="Layer_1" viewBox="0 0 24 24" xmlns="http://www.w3.org/2000/svg" data-name="Layer 1"><path d="m16.2 6.1c-.331-.442-.242-1.069.199-1.4.443-.329 1.07-.242 1.4.199.218.291.456.567.7.835v-3.734c0-.553.447-1 1-1s1 .447 1 1v3.734c.244-.268.482-.544.7-.835.331-.441.957-.529 1.4-.199.441.331.53.958.199 1.4-.768 1.023-1.676 1.932-2.699 2.699-.178.134-.39.2-.601.2s-.423-.066-.601-.2c-1.023-.768-1.932-1.676-2.699-2.699zm-12.3 2.699c.178.134.39.2.601.2s.423-.066.601-.2c1.023-.768 1.932-1.676 2.699-2.699.331-.442.242-1.069-.199-1.4-.443-.33-1.069-.242-1.4.199-.218.291-.456.567-.7.835v-3.734c0-.553-.447-1-1-1s-1 .447-1 1v3.734c-.244-.268-.482-.544-.7-.835-.33-.441-.957-.528-1.4-.199-.441.331-.53.958-.199 1.4.768 1.023 1.676 1.932 2.699 2.699zm8.1 2.201c1.429 0 2-.571 2-2s-.571-2-2-2-2 .571-2 2 .571 2 2 2zm-7 2.999c-1.429 0-2 .571-2 2s.571 2 2 2 2-.571 2-2-.571-2-2-2zm12 2c0 1.428.571 2 2 2s2-.571 2-2-.571-2-2-2-2 .571-2 2zm-12 3c-.855 0-3.46 0-3.983 2.817-.101.543.258 1.064.801 1.166.539.104 1.064-.258 1.166-.801.124-.67.352-1.183 2.017-1.183s1.892.513 2.017 1.183c.099.547.636.902 1.166.801.543-.102.901-.623.801-1.166-.523-2.817-3.128-2.817-3.983-2.817zm14 0c-.855 0-3.46 0-3.983 2.817-.101.543.258 1.064.801 1.166.54.104 1.064-.258 1.166-.801.124-.67.352-1.183 2.017-1.183s1.892.513 2.017 1.183c.099.547.636.902 1.166.801.543-.102.901-.623.801-1.166-.523-2.817-3.128-2.817-3.983-2.817zm-3.017-4.182c-.523-2.817-3.128-2.817-3.983-2.817s-3.46 0-3.983 2.817c-.101.543.258 1.064.801 1.166.539.103 1.064-.258 1.166-.801.124-.67.352-1.183 2.017-1.183s1.892.513 2.017 1.183c.099.547.636.902 1.166.801.543-.102.901-.623.801-1.166z"/></svg>