<?xml version="1.0" encoding="UTF-8"?>
<svg xmlns="http://www.w3.org/2000/svg" id="Layer_1" data-name="Layer 1" viewBox="0 0 24 24">
  <path d="M22,11H2c-.553,0-1,.448-1,1s.447,1,1,1H22c.553,0,1-.448,1-1s-.447-1-1-1Z"/>
  <path d="M8.396,5.998c.49,.254,1.092,.063,1.349-.426,.391-.753,.841-1.306,1.256-1.705v5.143c0,.553,.447,1.001,1,1.001s1-.448,1-1.001V3.871c.416,.4,.867,.952,1.256,1.701,.179,.343,.689,.732,1.349,.426,.501-.232,.681-.859,.427-1.35-1.436-2.763-3.605-3.558-3.697-3.591-.217-.076-.451-.076-.668,0-.092,.033-2.262,.828-3.697,3.591-.254,.491-.063,1.095,.427,1.35Z"/>
  <path d="M15.607,18.002c-.49-.254-1.092-.063-1.349,.426-.391,.753-.841,1.306-1.256,1.705v-5.143c0-.553-.447-1.001-1-1.001s-1,.448-1,1.001v5.139c-.416-.4-.867-.952-1.256-1.701-.179-.343-.689-.732-1.349-.426-.501,.232-.681,.859-.427,1.35,1.436,2.763,3.605,3.558,3.697,3.591,.217,.076,.451,.076,.668,0,.092-.033,2.262-.828,3.697-3.591,.254-.491,.063-1.095-.427-1.35Z"/>
</svg>
