<?xml version="1.0" encoding="UTF-8"?>
<svg xmlns="http://www.w3.org/2000/svg" id="Layer_1" data-name="Layer 1" viewBox="0 0 24 24">
  <path d="M1.993,12.615h.007c.549,0,.996-.443,1-.993,.019-2.672,2.161-4.935,4.877-5.152,1.465-.117,2.889-.177,4.231-.177,3.578,0,6.803,.421,8.13,.621-.587,.566-1.502,1.238-2.844,1.716-.521,.185-.812,.765-.606,1.277,.336,.84,1.167,.646,1.277,.606,3.492-1.244,4.77-3.654,4.822-3.756,.106-.204,.138-.439,.091-.664-.024-.112-.611-2.777-3.643-4.912-.452-.317-1.076-.209-1.394,.242-.318,.452-.209,1.075,.242,1.394,.984,.693,1.638,1.437,2.067,2.075-1.521-.221-4.635-.599-8.143-.599-1.396,0-2.874,.062-4.391,.184-3.741,.299-6.691,3.432-6.718,7.131-.004,.553,.44,1.003,.993,1.007Z"/>
  <path d="M22.007,11.385h-.007c-.549,0-.996,.443-1,.993-.019,2.672-2.161,4.935-4.877,5.152-1.465,.117-2.889,.177-4.231,.177-3.578,0-6.803-.421-8.13-.621,.587-.566,1.502-1.238,2.844-1.716,.521-.185,.792-.757,.606-1.277-.185-.521-.757-.792-1.277-.606-3.492,1.244-4.77,3.654-4.822,3.756-.106,.204-.138,.439-.091,.664,.024,.112,.611,2.777,3.643,4.912,.175,.123,.868,.44,1.394-.242,.337-.438,.209-1.075-.242-1.394-.984-.693-1.638-1.437-2.067-2.075,1.521,.221,4.635,.599,8.143,.599,1.396,0,2.874-.062,4.391-.184,3.741-.299,6.691-3.432,6.718-7.131,.004-.553-.44-1.003-.993-1.007Z"/>
</svg>
