<?xml version="1.0" encoding="UTF-8"?>
<svg xmlns="http://www.w3.org/2000/svg" id="Layer_1" data-name="Layer 1" viewBox="0 0 24 24">
  <path d="M23,12c0-5.122-1.25-11-11-11S1,6.878,1,12s1.25,11,11,11,11-5.878,11-11Zm-20,0C3,6.598,4.53,3,12,3s9,3.598,9,9-1.53,9-9,9S3,17.402,3,12Z"/>
  <path d="M12.967,15.602c.033-.059,.659-1.206,.89-2.602h3.143c.552,0,1-.448,1-1s-.448-1-1-1h-3.154c-.253-1.412-.926-2.567-.961-2.626-.222-.377-.664-.565-1.089-.466-3.428,.803-5.499,3.357-5.579,3.47-.496,.701,.014,1.262,.036,1.287,.378,.443,2.397,2.649,5.604,3.425,.438,.106,.893-.094,1.11-.488Z"/>
</svg>
