<?xml version="1.0" encoding="UTF-8"?>
<svg xmlns="http://www.w3.org/2000/svg" id="Layer_1" data-name="Layer 1" viewBox="0 0 24 24">
  <path d="M19.234,21h-6.233V3.714c1.381,.949,3.568,2.887,5.396,6.466,.177,.346,.527,.545,.892,.545,.152,0,.308-.035,.454-.109,.491-.251,.687-.854,.436-1.345C16.995,3.035,12.833,1.253,12.369,1.07c-.229-.09-.487-.094-.723-.005-.184,.069-4.545,1.781-7.824,8.206-.251,.492-.056,1.094,.436,1.345,.495,.251,1.095,.055,1.346-.436,1.847-3.618,4.022-5.544,5.397-6.48V21H4.766c-.553,0-1,.448-1,1s.447,1,1,1h14.469c.553,0,1-.448,1-1s-.447-1-1-1Z"/>
</svg>
