<svg id="Layer_1" viewBox="0 0 24 24" xmlns="http://www.w3.org/2000/svg" data-name="Layer 1"><path d="m22.8 16.6c-.91 1.214-1.986 2.29-3.2 3.2-.364.257-.835.257-1.199 0-1.214-.91-2.29-1.986-3.2-3.2-.332-.441-.242-1.068.2-1.399.44-.331 1.068-.243 1.399.2.368.489.774.945 1.2 1.381v-1.782c0-3.344-.291-6.791-.427-8.215-1.043-.25-3.42-.706-7.092-.775-.553-.011-.992-.467-.981-1.019s.461-.992 1.019-.981c5.424.104 8.183 1.003 8.298 1.042.37.123.635.451.678.839.021.188.506 4.661.506 9.109v1.782c.427-.436.833-.892 1.2-1.381.331-.442.958-.53 1.399-.2.442.331.532.958.2 1.399zm-9.281 1.391c-3.672-.069-6.049-.525-7.092-.775-.136-1.424-.427-4.871-.427-8.215v-1.782c.427.436.833.892 1.2 1.381.332.445.962.53 1.399.2.442-.331.532-.958.2-1.399-.91-1.214-1.986-2.29-3.2-3.2-.362-.254-.838-.254-1.199 0-1.214.91-2.29 1.986-3.2 3.2-.332.441-.242 1.068.2 1.399.441.332 1.068.243 1.399-.2.368-.489.774-.945 1.2-1.381v1.782c0 4.448.485 8.921.506 9.109.043.388.308.716.678.839.115.039 2.874.938 8.298 1.042h.019c.544 0 .989-.436 1-.981.011-.552-.429-1.008-.981-1.019z"/></svg>