<?xml version="1.0" encoding="UTF-8"?>
<svg xmlns="http://www.w3.org/2000/svg" id="Layer_1" data-name="Layer 1" viewBox="0 0 24 24">
  <path d="M23,12C23,2.25,17.122,1,12,1c-5.122,0-11,1.25-11,11,0,9.75,5.878,11,11,11s11-1.25,11-11Zm-2,0c0,7.47-3.598,9-9,9S3,19.47,3,12c0-7.47,3.598-9,9-9s9,1.53,9,9Z"/>
  <path d="M15.602,12.967c-.059,.033-1.206,.659-2.602,.89v3.143c0,.552-.448,1-1,1s-1-.448-1-1v-3.154c-1.412-.253-2.567-.926-2.626-.961-.377-.222-.565-.664-.466-1.089,.803-3.428,3.357-5.499,3.47-5.579,.701-.496,1.262,.014,1.287,.036,.443,.378,2.649,2.397,3.425,5.604,.106,.438-.094,.893-.488,1.11Z"/>
</svg>
