<?xml version="1.0" encoding="UTF-8"?>
<svg xmlns="http://www.w3.org/2000/svg" id="Layer_1" data-name="Layer 1" viewBox="0 0 24 24">
  <path d="M22.047,6.313c-.686-2.044-2.316-3.675-4.361-4.361-3.773-1.266-7.6-1.266-11.373,0h0c-2.044,.687-3.674,2.317-4.36,4.361-1.266,3.774-1.266,7.6,0,11.374,.686,2.044,2.316,3.675,4.361,4.361,1.887,.633,3.787,.949,5.687,.949s3.8-.316,5.687-.949c2.044-.687,3.674-2.317,4.36-4.361,1.266-3.774,1.266-7.6,0-11.374Zm-1.896,10.737c-.487,1.454-1.646,2.613-3.1,3.101-3.353,1.125-6.75,1.125-10.101,0-1.454-.488-2.613-1.647-3.101-3.101-1.125-3.351-1.125-6.75,0-10.101,.487-1.454,1.646-2.613,3.101-3.101h0c3.353-1.125,6.75-1.125,10.101,0,1.454,.488,2.613,1.647,3.101,3.101,1.125,3.351,1.125,6.75,0,10.101Z"/>
  <path d="M12.377,7.608c-.236-.095-.501-.098-.739-.006-.205,.08-2.042,.858-3.419,3.625-.246,.494-.044,1.095,.45,1.341,.494,.245,1.095,.043,1.341-.45,.321-.646,.667-1.145,.992-1.526v4.873c0,.552,.448,1,1,1s1-.448,1-1v-4.87c.324,.381,.668,.879,.989,1.523,.175,.352,.529,.555,.896,.555,.149,0,.301-.034,.444-.104,.495-.246,.696-.847,.45-1.341-1.356-2.726-3.198-3.536-3.404-3.62Z"/>
</svg>
