<?xml version="1.0" encoding="UTF-8"?>
<svg xmlns="http://www.w3.org/2000/svg" id="Layer_1" data-name="Layer 1" viewBox="0 0 24 24">
  <path d="M15.597,11.028c-.059-.033-1.206-.659-2.602-.89v-3.143c0-.552-.448-1-1-1s-1,.448-1,1v3.154c-1.412,.253-2.567,.926-2.626,.961-.377,.222-.565,.664-.466,1.089,.803,3.428,3.357,5.499,3.47,5.579,.701,.496,1.262-.014,1.287-.036,.443-.378,2.649-2.397,3.425-5.604,.106-.438-.094-.893-.488-1.11Z"/>
  <path d="M21.806,2.858c-.1-.325-.358-.578-.686-.67-.172-.049-4.272-1.188-9.121-1.188S3.052,2.139,2.88,2.188c-.329,.093-.588,.347-.687,.674-.049,.161-1.193,4.007-1.193,9.139,0,5.175,1.146,8.982,1.194,9.142,.1,.325,.358,.578,.686,.67,.172,.049,4.272,1.188,9.121,1.188s8.948-1.139,9.12-1.188c.329-.093,.588-.347,.687-.674,.049-.161,1.193-4.007,1.193-9.139,0-5.175-1.146-8.982-1.194-9.142Zm-1.771,17.167c-1.245,.298-4.467,.976-8.036,.976s-6.796-.678-8.038-.976c-.3-1.184-.962-4.23-.962-8.024,0-3.752,.665-6.829,.964-8.024,1.245-.298,4.467-.976,8.036-.976s6.796,.678,8.038,.976c.3,1.184,.962,4.23,.962,8.024,0,3.752-.665,6.829-.964,8.024Z"/>
</svg>
