<svg id="Layer_1" viewBox="0 0 24 24" xmlns="http://www.w3.org/2000/svg" data-name="Layer 1"><path d="m13.684 10.504c.061.021 1.52.496 4.316.496s4.255-.476 4.316-.496c.481-.16.766-.654.664-1.15-.013-.063-.334-1.563-1.738-3.982-1.311-2.26-2.369-3.279-2.568-3.46-.382-.35-.966-.35-1.348 0-.199.181-1.257 1.2-2.568 3.46-1.404 2.419-1.725 3.919-1.738 3.982-.103.496.183.99.664 1.15zm2.804-4.129c.595-1.024 1.124-1.755 1.512-2.237.389.482.917 1.213 1.512 2.237.596 1.027.969 1.855 1.195 2.437-.616.096-1.521.188-2.708.188s-2.092-.093-2.708-.188c.227-.581.6-1.41 1.195-2.437zm-5.888 10.825c.442.331.531.958.2 1.399-1.195 1.594-2.608 3.007-4.2 4.2-.356.267-.845.267-1.2 0-1.592-1.193-3.005-2.606-4.2-4.2-.331-.441-.242-1.068.2-1.399.444-.33 1.07-.242 1.4.2.655.874 1.407 1.663 2.2 2.41v-17.81c0-.553.448-1 1-1s1 .447 1 1v17.81c.793-.747 1.544-1.536 2.2-2.41.333-.442.958-.53 1.4-.2zm7.4 5.8c-1.865 0-3.736-.406-3.815-.424-.381-.084-.678-.381-.762-.763-.018-.078-.423-1.949-.423-3.813s.406-3.735.423-3.813c.083-.382.381-.679.762-.763.079-.018 1.95-.424 3.815-.424s3.736.406 3.815.424c.381.084.678.381.762.763.018.078.423 1.949.423 3.813s-.406 3.735-.423 3.813c-.083.382-.381.679-.762.763-.079.018-1.95.424-3.815.424zm-2.743-2.256c.654.11 1.715.257 2.744.257s2.089-.146 2.744-.257c.11-.654.256-1.715.256-2.743s-.146-2.089-.256-2.743c-.654-.11-1.715-.257-2.744-.257s-2.089.146-2.744.257c-.11.654-.256 1.715-.256 2.743s.146 2.089.256 2.743z"/></svg>