<svg id="Layer_1" viewBox="0 0 24 24" xmlns="http://www.w3.org/2000/svg" data-name="Layer 1"><path d="m17.147 6.005c-.197-1.375-.197-2.769 0-4.145.078-.548.58-.931 1.131-.849.546.078.926.585.848 1.132-.068.477-.107.957-.12 1.438l2.286-2.286c.391-.391 1.023-.391 1.414 0s.391 1.023 0 1.414l-2.286 2.286c.481-.014.961-.053 1.438-.122.542-.073 1.054.302 1.131.849.079.547-.301 1.053-.848 1.132-.687.099-1.38.147-2.073.147s-1.385-.049-2.073-.147c-.439-.063-.785-.409-.848-.849zm-13.567-1.01c-.48-.014-.96-.053-1.438-.122-.546-.077-1.053.302-1.131.849-.079.547.301 1.053.848 1.132.687.099 1.38.147 2.073.147s1.385-.049 2.073-.147c.439-.063.785-.409.848-.849.197-1.375.197-2.769 0-4.145-.078-.548-.589-.921-1.131-.849-.546.078-.926.585-.848 1.132.068.477.107.957.12 1.438l-2.286-2.287c-.391-.391-1.023-.391-1.414 0s-.391 1.023 0 1.414l2.286 2.286zm16.84 14.011c.481.014.961.053 1.438.122.538.078 1.053-.302 1.131-.849.079-.547-.301-1.053-.848-1.132-1.374-.197-2.77-.197-4.146 0-.439.063-.785.409-.848.849-.197 1.375-.197 2.769 0 4.145.076.55.596.928 1.131.849.546-.078.926-.585.848-1.132-.068-.477-.107-.957-.12-1.438l2.286 2.286c.391.391 1.023.391 1.414 0s.391-1.023 0-1.414zm-14.415-1.859c-1.376-.197-2.772-.197-4.146 0-.547.079-.927.585-.848 1.132.078.548.589.931 1.131.849.478-.068.957-.108 1.438-.122l-2.286 2.286c-.391.391-.391 1.023 0 1.414s1.023.391 1.414 0l2.286-2.286c-.013.48-.052.96-.12 1.438-.078.547.302 1.054.848 1.132.535.079 1.055-.299 1.131-.849.197-1.376.197-2.77 0-4.145-.062-.439-.408-.785-.848-.849zm5.992-6.647c-1.025.007-1.475.455-1.496 1.5.022 1.059.458 1.494 1.503 1.5 1.042-.006 1.478-.444 1.497-1.509-.018-1.018-.482-1.484-1.503-1.491zm6.458 1.794c-.925 3.009-3.214 4.68-6.444 4.706h-.016c-3.242-.025-5.533-1.697-6.452-4.708-.058-.19-.058-.394 0-.585.921-3.007 3.21-4.677 6.445-4.707 3.239.029 5.528 1.699 6.464 4.702.06.192.061.399.001.592zm-2.01-.292c-.72-1.972-2.217-2.981-4.456-3.002-2.263.021-3.723 1.003-4.436 3 .706 1.972 2.201 2.98 4.45 3 2.238-.02 3.731-1.028 4.441-2.998z"/></svg>