<?xml version="1.0" encoding="UTF-8"?>
<svg xmlns="http://www.w3.org/2000/svg" id="Layer_1" data-name="Layer 1" viewBox="0 0 24 24">
  <path d="M3.096,4.51L12.899,14.313c.195,.195,.861,.562,1.414,0,.388-.394,.391-1.023,0-1.414L4.511,3.097c1.071-.163,2.664-.192,4.599,.425,.525,.169,1.088-.123,1.256-.649,.168-.526-.123-1.089-.649-1.256-4.381-1.395-7.428,.01-7.556,.07-.208,.099-.376,.267-.475,.475-.061,.127-1.466,3.174-.07,7.556,.135,.425,.623,.857,1.256,.649,.524-.172,.817-.73,.649-1.256-.617-1.937-.589-3.529-.425-4.6Z"/>
  <path d="M13.606,4.213c-1.296,0-2.4,.107-3.376,.329-.539,.122-.876,.657-.754,1.196,.122,.538,.656,.877,1.196,.754,.829-.188,1.788-.279,2.934-.279,4.438,0,7.394,1.257,7.394,7.393s-2.956,7.394-7.394,7.394-7.393-1.257-7.393-7.394c0-1.1,.098-2.082,.291-2.917,.124-.538-.211-1.075-.75-1.2-.535-.122-1.075,.211-1.2,.75-.227,.983-.342,2.116-.342,3.367,0,8.326,5.02,9.394,9.393,9.394,4.032,0,9.394-.974,9.394-9.394,0-8.325-5.021-9.393-9.394-9.393Z"/>
</svg>
