<?xml version="1.0" encoding="UTF-8"?>
<svg xmlns="http://www.w3.org/2000/svg" id="Layer_1" data-name="Layer 1" viewBox="0 0 24 24">
  <path d="M22.843,11.464c-.014-.022-1.549-2.281-4.479-3.01-.294-.074-.614-.007-.857,.182-.242,.19-.384,.48-.384,.788v1.576h-4.123V6.877h1.575c.308,0,.599-.142,.788-.384,.189-.242,.257-.559,.183-.857-.729-2.926-2.986-4.463-3.009-4.478-.106-.067-.223-.112-.341-.135-.248-.049-.512-.005-.733,.135-.022,.014-2.28,1.551-3.009,4.478-.074,.299-.007,.615,.183,.857,.189,.243,.48,.384,.788,.384h1.575v4.123H6.877v-1.575c0-.308-.142-.598-.384-.788-.243-.19-.563-.258-.857-.182-2.93,.729-4.465,2.987-4.479,3.01-.068,.108-.113,.225-.136,.344-.049,.247-.003,.508,.136,.727,.014,.022,1.549,2.281,4.479,3.01,.079,.02,.16,.03,.241,.03,.221,0,.438-.073,.616-.212,.242-.19,.384-.48,.384-.788v-1.576h4.123v4.123h-1.575c-.308,0-.599,.142-.788,.384-.189,.242-.257,.559-.183,.857,.729,2.926,2.986,4.463,3.009,4.478,.106,.067,.223,.112,.341,.135,.065,.013,.133,.02,.199,.02,.186,0,.371-.052,.534-.155,.022-.014,2.28-1.551,3.009-4.478,.074-.299,.007-.615-.183-.857-.189-.243-.48-.384-.788-.384h-1.575v-4.123h4.123v1.575c0,.308,.142,.598,.384,.788,.178,.139,.396,.212,.616,.212,.081,0,.162-.01,.241-.03,2.93-.729,4.465-2.987,4.479-3.01,.068-.108,.113-.225,.136-.344,.049-.247,.003-.508-.136-.727Z"/>
</svg>
