<?xml version="1.0" encoding="UTF-8"?>
<svg xmlns="http://www.w3.org/2000/svg" id="Layer_1" data-name="Layer 1" viewBox="0 0 24 24">
  <path d="M21.817,2.899c-.091-.351-.365-.625-.716-.716C15.062,.612,8.937,.612,2.898,2.183c-.351,.091-.625,.365-.716,.716-1.57,6.039-1.57,12.163,0,18.202,.091,.351,.365,.625,.716,.716,3.02,.785,6.061,1.178,9.102,1.178s6.082-.393,9.102-1.178c.351-.091,.625-.365,.716-.716,1.57-6.039,1.57-12.163,0-18.202Zm-1.792,17.126c-5.328,1.292-10.723,1.292-16.051,0-1.292-5.328-1.292-10.723,0-16.051,5.328-1.292,10.723-1.292,16.051,0,1.292,5.328,1.292,10.723,0,16.051Z"/>
  <path d="M15.331,11.431c-.494-.246-1.095-.044-1.341,.45-.321,.646-.667,1.145-.991,1.527v-4.873c0-.552-.447-1-1-1s-1,.448-1,1v4.87c-.324-.381-.669-.879-.989-1.524-.246-.494-.848-.696-1.341-.45-.494,.246-.696,.847-.45,1.341,1.377,2.767,3.214,3.546,3.419,3.625,.116,.045,.239,.068,.362,.068s.246-.022,.362-.068c.205-.08,2.042-.858,3.419-3.625,.246-.494,.044-1.095-.45-1.341Z"/>
</svg>
