<svg id="Layer_1" viewBox="0 0 24 24" xmlns="http://www.w3.org/2000/svg" data-name="Layer 1"><path d="m14.972 6.165c.068-.547.574-.937 1.112-.867.362.045.704.092 1.022.139.545.081.92.589.84 1.134-.074.495-.5.85-.985.85-.366-.027-.72-.102-1.122-.144-.547-.068-.935-.566-.867-1.112zm-5.228.621c.354-.422.298-1.051-.124-1.405-.423-.354-1.051-.299-1.405.124-.524.625-1.103 1.205-1.729 1.73-.276-.231-.543-.473-.798-.724-.393-.386-1.024-.378-1.411.014-.385.394-.379 1.025.014 1.41.5.49 1.037.951 1.596 1.371.355.266.842.266 1.197 0 .98-.735 1.875-1.583 2.66-2.52zm-2.759 6.211c-4.139 0-5.985-1.846-5.985-5.985s1.846-5.984 5.985-5.984 5.985 1.846 5.985 5.985-1.846 5.985-5.985 5.985zm0-1.994c3.02 0 3.99-.97 3.99-3.99s-.97-3.99-3.99-3.99-3.99.97-3.99 3.99.97 3.99 3.99 3.99zm15.141 2.114-4.449 4.457c-.86.865-2.01 1.373-3.238 1.428l-1.426.063c-.566.038-1.078-.472-1.04-1.039l.061-1.434c.054-1.234.557-2.389 1.416-3.254l4.442-4.449c1.113-1.163 3.119-1.163 4.233-.001 1.166 1.166 1.167 3.064.001 4.23zm-1.412-2.82c-.371-.387-1.04-.387-1.41 0l-4.44 4.447c-.507.51-.804 1.198-.837 1.934l-.015.346.338-.015c.726-.032 1.406-.332 1.913-.843l4.451-4.459c.389-.389.388-1.021 0-1.41zm-1.024 7.698c-.541-.078-1.052.295-1.134.84-.091.608-.181 1.123-.25 1.493-1.174.219-3.796.649-6.334.649s-5.16-.43-6.333-.649c-.164-.876-.445-2.556-.577-4.409-.039-.549-.518-.95-1.066-.924-.549.039-.963.516-.924 1.066.202 2.835.722 5.229.744 5.33.083.38.38.677.76.76.153.034 3.782.821 7.396.821s7.243-.788 7.396-.821c.38-.083.677-.38.76-.76.008-.038.203-.927.402-2.261.081-.544-.295-1.052-.84-1.134z"/></svg>