<?xml version="1.0" encoding="UTF-8"?>
<svg xmlns="http://www.w3.org/2000/svg" id="Layer_1" data-name="Layer 1" viewBox="0 0 24 24">
  <path d="M22.268,14.324c-.353-.279-.707-.562-1.062-.849-.603-.484-1.238-.978-1.902-1.475,.664-.497,1.301-.991,1.903-1.476,.354-.287,.709-.569,1.062-.849,.26-.206,.401-.528,.376-.859-.141-1.845-1.12-3.364-2.833-4.394-.263-.158-.584-.188-.867-.079,0,0-.47,.176-1.198,.462-.598,.235-1.215,.499-1.864,.798-.085-.699-.179-1.365-.283-2.013-.042-.261-.083-.443-.124-.625-.033-.146-.066-.293-.101-.504-.047-.292-.221-.547-.474-.699-1.707-1.022-4.092-1.022-5.799,0-.196,.117-.346,.298-.425,.512-.036,.098-.134,.414-.265,1.225-.11,.681-.208,1.376-.295,2.103-.649-.298-1.265-.562-1.862-.796-.607-.239-1.034-.401-1.181-.456-.282-.111-.609-.091-.883,.072-1.713,1.029-2.693,2.549-2.833,4.395-.025,.331,.116,.653,.375,.859l1.062,.849c.602,.484,1.239,.978,1.902,1.475-.663,.497-1.3,.991-1.902,1.476l-1.062,.849c-.26,.207-.401,.528-.375,.859,.14,1.846,1.12,3.365,2.833,4.395,.156,.093,.333,.143,.515,.143q.21,0,1.549-.526c.598-.235,1.215-.499,1.865-.798,.084,.698,.178,1.364,.283,2.012,.042,.262,.083,.445,.124,.627,.033,.146,.067,.292,.101,.503,.046,.292,.22,.548,.474,.7,.854,.511,1.876,.767,2.899,.767s2.046-.256,2.899-.767c.196-.117,.346-.298,.425-.512,.036-.098,.135-.415,.265-1.225,.109-.679,.207-1.375,.295-2.103,.649,.298,1.266,.562,1.862,.796,.588,.231,1.007,.39,1.182,.457,.287,.113,.613,.087,.883-.073,1.713-1.03,2.692-2.549,2.833-4.394,.025-.331-.116-.653-.376-.859Zm-3.095,3.279c-.188-.072-.423-.163-.695-.271-.924-.363-1.901-.802-2.99-1.342-.294-.145-.641-.138-.93,.021-.287,.159-.478,.45-.51,.777-.12,1.218-.262,2.328-.434,3.394-.035,.219-.066,.389-.092,.518-.916,.398-2.097,.401-3.019,.012-.009-.04-.018-.079-.027-.119-.033-.146-.066-.292-.1-.502-.167-1.033-.305-2.113-.422-3.303-.032-.327-.223-.617-.51-.776-.288-.16-.634-.167-.929-.021-1.088,.54-2.067,.979-2.993,1.343-.273,.107-.509,.199-.695,.271-.763-.557-1.226-1.239-1.404-2.07l.626-.5c.901-.726,1.884-1.473,2.919-2.222,.262-.189,.415-.492,.414-.812,0-.32-.152-.623-.414-.812-1.035-.749-2.018-1.496-2.919-2.221l-.626-.5c.178-.83,.642-1.513,1.404-2.07,.187,.072,.422,.163,.695,.271,.923,.363,1.901,.802,2.99,1.342,.295,.146,.642,.138,.93-.021,.287-.16,.478-.45,.51-.777,.119-1.214,.261-2.324,.433-3.393,.035-.219,.066-.39,.092-.518,.917-.397,2.098-.401,3.019-.012,.009,.04,.018,.079,.026,.118,.033,.146,.066,.293,.101,.503,.166,1.03,.305,2.11,.423,3.304,.032,.327,.224,.617,.511,.776s.633,.167,.929,.021c1.089-.54,2.068-.979,2.991-1.343,.273-.107,.509-.199,.696-.271,.763,.557,1.226,1.239,1.404,2.068-.208,.167-.417,.334-.626,.502-.901,.726-1.884,1.473-2.919,2.222-.26,.188-.414,.491-.414,.812s.154,.624,.414,.812c1.035,.749,2.018,1.496,2.918,2.221,.21,.168,.419,.336,.627,.502-.179,.829-.642,1.511-1.404,2.068Z"/>
</svg>
