<svg id="Layer_1" viewBox="0 0 24 24" xmlns="http://www.w3.org/2000/svg" data-name="Layer 1"><path d="m15.589 19.875c.031.552-.392 1.023-.943 1.054-.852.047-1.742.071-2.646.071-6.103 0-9.206-1.079-9.335-1.125-.278-.099-.498-.315-.602-.591-.043-.116-1.063-2.887-1.063-7.284 0-1.421.107-2.82.318-4.156.086-.546.604-.916 1.144-.832.546.086.918.598.832 1.144-.195 1.233-.293 2.527-.293 3.844 0 3.024.528 5.219.792 6.125 1.027.274 3.78.875 8.208.875.867 0 1.72-.023 2.535-.068.561-.025 1.024.392 1.054.943zm7.118 1.418c.391.391.391 1.023 0 1.414s-1.023.391-1.414 0l-5.707-5.707h-1.586c-.552 0-1-.448-1-1v-8c0-.552.448-1 1-1h1.75c3.75 0 3.75 3.632 3.75 5 0 1.038-.004 3.375-1.641 4.445l1.813 1.813c.207-.048.394-.094.536-.132.263-.904.792-3.1.792-6.126s-.528-5.219-.792-6.125c-1.027-.274-3.78-.875-8.208-.875-2.18 0-3.934.146-5.266.32l1.717 1.717c.335-.015.675.11.872.395.095.138.957 1.429 1.798 4.113.874 2.788.879 4.391.879 4.458-.001.551-.449.997-1 .997h-.003c-.552-.001-.999-.451-.997-1.003 0-.005-.005-.351-.103-.997h-2.793c-.099.647-.103.995-.103 1.001-.003.55-.45.996-1 .996h-.001c-.551 0-.997-.444-.999-.995 0-.067.005-1.67.879-4.458.43-1.373.864-2.377 1.2-3.053l-5.787-5.784c-.391-.391-.391-1.023 0-1.414s1.023-.391 1.414 0l2.274 2.274c1.461-.266 3.818-.567 7.019-.567 6.103 0 9.206 1.079 9.335 1.125.278.099.498.315.602.591.043.116 1.063 2.887 1.063 7.284s-1.02 7.168-1.063 7.284c-.104.276-.323.492-.601.591-.004.001-.027.009-.035.012zm-13.494-9.15c-.249-.792-.494-1.441-.713-1.958-.219.518-.464 1.167-.713 1.958-.095.302-.177.588-.251.857h1.927c-.073-.269-.156-.555-.251-.857zm5.787 2.857h.75c.86 0 1.75 0 1.75-3s-.89-3-1.75-3h-.75z"/></svg>