<svg id="Layer_1" viewBox="0 0 24 24" xmlns="http://www.w3.org/2000/svg" data-name="Layer 1"><path d="m22 15h-1.915c-.221-.678-.451-1.345-.691-2h2.606c.553 0 1-.447 1-1s-.447-1-1-1h-3.39c-1.465-3.507-3.31-6.695-5.851-9.651-.381-.443-1.137-.443-1.518 0-2.541 2.957-4.386 6.144-5.851 9.651h-3.39c-.553 0-1 .447-1 1s.447 1 1 1h2.606c-.24.655-.47 1.322-.691 2h-1.915c-.553 0-1 .447-1 1s.447 1 1 1h1.296c-.449 1.529-.867 3.113-1.268 4.764-.131.537.199 1.077.735 1.208s1.077-.198 1.208-.735c.444-1.825.905-3.567 1.41-5.236h13.236c.505 1.669.967 3.411 1.41 5.236.129.541.686.866 1.208.735.536-.131.866-.671.735-1.208-.401-1.651-.819-3.235-1.268-4.764h1.296c.553 0 1-.447 1-1s-.447-1-1-1zm-10-11.432c1.826 2.296 3.237 4.767 4.414 7.432h-8.828c1.177-2.664 2.588-5.135 4.414-7.432zm-5.97 11.432c.23-.68.476-1.345.728-2h10.484c.252.655.497 1.32.728 2z"/></svg>