<svg id="Layer_1" viewBox="0 0 24 24" xmlns="http://www.w3.org/2000/svg" data-name="Layer 1"><path d="m17.5 1c-.802 0-1.283.578-1.75 1.138-.575.69-1.268 1.52-2.75 1.78v-1.918c0-.552-.447-1-1-1s-1 .448-1 1v1.918c-1.482-.26-2.175-1.09-2.75-1.78-.467-.56-.948-1.138-1.75-1.138-2.646 0-5.5 3.059-5.5 8 0 5.008 2.797 8 5.5 8 .802 0 1.283-.578 1.75-1.138.575-.69 1.268-1.52 2.75-1.78v7.918c0 .552.447 1 1 1s1-.448 1-1v-7.918c1.482.26 2.175 1.09 2.75 1.78.467.56.948 1.138 1.75 1.138 2.703 0 5.5-2.992 5.5-8 0-4.941-2.854-8-5.5-8zm-10.787 13.582c-.114.137-.262.314-.359.411-1.452-.133-3.354-2.208-3.354-5.993s1.901-5.86 3.354-5.993c.098.097.245.274.359.411.714.856 1.854 2.224 4.287 2.523v6.118c-2.434.299-3.573 1.667-4.287 2.523zm10.934.411c-.098-.097-.245-.274-.359-.411-.714-.856-1.854-2.224-4.287-2.523v-6.118c2.434-.299 3.573-1.667 4.287-2.523.114-.137.262-.314.359-.411 1.452.133 3.354 2.208 3.354 5.993s-1.901 5.86-3.354 5.993z"/></svg>