<svg id="Layer_1" viewBox="0 0 24 24" xmlns="http://www.w3.org/2000/svg" data-name="Layer 1"><path d="m22 5.336c-1.086 0-1.954-.079-2.7-.222l.407-.407c.391-.391.391-1.023 0-1.414s-1.023-.391-1.414 0l-1.089 1.089c-.457-.251-.879-.544-1.301-.889-.007-.006-.015-.013-.023-.019-.961-.739-1.965-1.316-2.007-1.34-.151-.086-.323-.132-.498-.132-.166 0-1.662.039-2.999 1.376-1.338 1.338-1.376 2.833-1.376 2.999 0 .174.045.346.132.497.024.042.602 1.046 1.34 2.007.338.44.629.88.881 1.351l-10.06 10.061c-.391.391-.391 1.023 0 1.414s1.023.391 1.414 0l9.388-9.388c.153.745.239 1.6.239 2.65-.003.586.503 1.039 1.082 1 2.884 0 5.296-.883 6.979-2.556 1.705-1.694 2.605-4.141 2.605-7.078 0-.552-.448-1-1-1zm-3.015 6.659c-1.132 1.125-2.736 1.787-4.678 1.939-.16-2.953-1.02-4.67-2.249-6.271-.436-.568-.818-1.169-1.026-1.508.062-.302.241-.845.758-1.363.52-.52 1.065-.698 1.361-.759.337.206.932.585 1.499 1.019 1.819 1.482 3.6 2.135 6.309 2.26-.167 1.95-.841 3.555-1.975 4.682z"/></svg>