<svg id="Layer_1" viewBox="0 0 24 24" xmlns="http://www.w3.org/2000/svg" data-name="Layer 1"><path d="m8 13.711c.451-.204.928-.514 1.453-.943.572-.479 1.136-.998 1.727-1.588.274-.274.529-.542.776-.809l.337.337c.391.391 1.023.391 1.414 0s.391-1.023 0-1.414l-.47-.47c.196-.285.359-.56.478-.823h1.286c.552 0 1-.448 1-1s-.448-1-1-1h-1.177c-.11-.297-.276-.597-.505-.904l.889-.889c.391-.391.391-1.023 0-1.414s-1.023-.391-1.414 0l-.888.888c-.307-.229-.607-.394-.905-.504v-1.177c0-.552-.448-1-1-1s-1 .448-1 1v1.292c-.261.119-.534.281-.818.476l-.975-.975c-.391-.391-1.023-.391-1.414 0s-.391 1.023 0 1.414l.835.835c-.286.26-.556.517-.812.774-.257.256-.513.526-.774.812l-.835-.835c-.391-.391-1.023-.391-1.414 0s-.391 1.023 0 1.414l.975.975c-.195.284-.358.557-.477.818h-1.291c-.552 0-1 .448-1 1s.448 1 1 1h1.177c.11.298.275.598.505.905l-.888.888c-.391.391-.391 1.023 0 1.414s1.023.391 1.414 0l.888-.888c.307.229.607.392.905.502v1.179c0 .552.448 1 1 1s1-.448 1-1v-1.289zm.178-2.484c-1.348 1.102-1.491.956-2.43.02-.93-.93-1.073-1.072.021-2.411.507-.606.985-1.131 1.459-1.606s1-.952 1.597-1.452c.655-.535 1.025-.777 1.34-.777.332 0 .602.27 1.08.748.938.938 1.082 1.082-.012 2.42-.441.526-.921 1.049-1.468 1.596-.548.548-1.071 1.028-1.588 1.462zm13.822 1.773h-1.177c-.11-.298-.275-.598-.505-.905l.888-.888c.391-.391.391-1.023 0-1.414s-1.023-.391-1.414 0l-.889.889c-.307-.229-.607-.395-.904-.505v-1.177c0-.552-.448-1-1-1s-1 .448-1 1v1.287c-.451.204-.928.516-1.453.945-.572.479-1.136.998-1.727 1.588-.274.274-.529.542-.776.809l-.337-.337c-.391-.391-1.023-.391-1.414 0s-.391 1.023 0 1.414l.47.47c-.196.285-.359.56-.478.823h-1.286c-.552 0-1 .448-1 1s.448 1 1 1h1.177c.11.297.276.597.505.904l-.889.889c-.391.391-.391 1.023 0 1.414s1.023.391 1.414 0l.888-.888c.307.229.607.392.905.502v1.179c0 .552.448 1 1 1s1-.448 1-1v-1.295c.262-.119.534-.278.818-.473l.975.975c.391.391 1.023.391 1.414 0s.391-1.023 0-1.414l-.835-.835c.286-.26.556-.517.812-.774.257-.256.513-.526.774-.812l.835.835c.391.391 1.023.391 1.414 0s.391-1.023 0-1.414l-.975-.975c.195-.284.358-.557.477-.818h1.291c.552 0 1-.448 1-1s-.448-1-1-1zm-6.178-.227c.653-.534 1.024-.775 1.339-.775.335 0 .607.273 1.091.756.93.93 1.073 1.072-.021 2.411-.507.606-.985 1.131-1.459 1.606s-1 .952-1.597 1.452c-1.347 1.1-1.489.959-2.42.029-.938-.938-1.082-1.082.012-2.42.441-.526.921-1.049 1.468-1.596.548-.548 1.071-1.028 1.588-1.462zm-5.822-4.773c0 .552-.448 1-1 1s-1-.448-1-1 .448-1 1-1 1 .448 1 1zm4 8c0-.552.448-1 1-1s1 .448 1 1-.448 1-1 1-1-.448-1-1z"/></svg>