<?xml version="1.0" encoding="UTF-8"?>
<svg xmlns="http://www.w3.org/2000/svg" id="Layer_1" data-name="Layer 1" viewBox="0 0 24 24">
  <path d="M22.88,12.619c.168-.311,.158-.684-.018-.982-.215-.378-.969-1.573-2.486-2.719,.513-2.384-.025-4.095-.051-4.173-.108-.334-.383-.584-.718-.665-.346-.087-1.955-.44-4.098-.014-1.377-1.973-2.972-2.825-3.045-2.863-.294-.154-.642-.151-.929,0-.338,.17-1.871,1.014-3.141,2.845-2.088-.397-3.656-.056-4.001,.032-.335,.08-.61,.33-.719,.665-.024,.073-.527,1.672-.102,3.927-1.698,1.2-2.42,2.513-2.453,2.575-.168,.311-.158,.684,.019,.983,.152,.267,.657,1.083,1.616,1.984-.801,2.063-.629,3.663-.62,3.737,.041,.351,.262,.65,.576,.794,.374,.179,1.577,.688,3.342,.796,.289,1.783,.973,2.862,1.007,2.914,.325,.495,.86,.458,.87,.458,.493-.006,2.126-.108,4.071-1.093,1.939,.982,3.57,1.086,4.071,1.093,.343,.009,.678-.161,.87-.458,.033-.052,.718-1.131,1.006-2.914,1.757-.108,2.96-.614,3.341-.795,.315-.144,.537-.444,.577-.794,.008-.069,.168-1.544-.526-3.485,1.026-.925,1.485-1.742,1.541-1.846Zm-3.349,.75c-.367,.282-.492,.778-.304,1.201,.481,1.076,.617,2.016,.65,2.583-.575,.191-1.55,.433-2.802,.405-.008,0-.016,0-.022,0-.525,0-.963,.407-.998,.934-.07,1.063-.34,1.882-.546,2.37-.659-.09-1.782-.342-3.013-1.046-.308-.176-.686-.176-.993,0-1.231,.704-2.355,.957-3.014,1.047-.206-.486-.474-1.303-.545-2.37-.035-.526-.472-.934-.997-.934-.008,0-.015,0-.023,0-1.25,.02-2.228-.214-2.802-.405,.035-.6,.185-1.618,.742-2.781,.2-.417,.087-.917-.271-1.208-.659-.535-1.11-1.061-1.387-1.432,.353-.447,1.002-1.14,2.012-1.747,.381-.229,.565-.683,.451-1.113-.341-1.284-.287-2.348-.202-2.957,.652-.08,1.783-.125,3.14,.229,.431,.113,.89-.075,1.116-.462,.747-1.278,1.693-2.044,2.253-2.419,.536,.389,1.458,1.179,2.22,2.451,.23,.384,.688,.568,1.119,.451,1.391-.376,2.552-.332,3.217-.25,.09,.641,.144,1.778-.253,3.146-.123,.421,.044,.874,.411,1.114,1.057,.695,1.737,1.469,2.104,1.96-.254,.323-.666,.776-1.264,1.234Z"/>
</svg>
