<svg id="Layer_1" viewBox="0 0 24 24" xmlns="http://www.w3.org/2000/svg" data-name="Layer 1"><path d="m20 15.558c0-2.765-1.494-4.172-3.447-4.878.854-.666 1.447-1.67 1.447-3.18 0-3.835-2.957-4.415-6.194-4.487.096-.49.161-.76.164-.771.133-.536-.193-1.079-.729-1.212-.536-.136-1.078.19-1.212.728-.013.053-.12.487-.26 1.244l-3.969-.002c-.459 0-.859.312-.97.758-.034.136-.83 3.375-.83 8.242s.796 8.106.83 8.242c.111.445.511.758.97.758h3.97c.14.756.246 1.189.26 1.242.132.54.69.863 1.212.728.536-.133.862-.676.729-1.212-.003-.01-.067-.277-.162-.761 3.864-.036 8.192-.729 8.192-5.439zm-4-8.058c0 .809-.002 2.49-4.961 2.499.076-1.996.255-3.695.437-4.989 4.201.072 4.525.996 4.525 2.49zm-9.388-2.5 2.843.002c-.178 1.329-.346 3.019-.418 4.998h-2.99c.11-2.3.387-4.061.564-5zm0 14c-.226-1.195-.612-3.724-.612-7h3c0 2.85.219 5.241.455 7h-2.844zm4.969 0h-.104c-.24-1.709-.477-4.124-.477-7 .143.001.326-.004.5 0 5.712 0 6.5 1.71 6.5 3.558 0 1.732-.496 3.425-6.419 3.442z"/></svg>