<svg id="Layer_1" viewBox="0 0 24 24" xmlns="http://www.w3.org/2000/svg" data-name="Layer 1"><path d="m12 1c-7.71 0-11 3.29-11 11s3.29 11 11 11 11-3.29 11-11-3.29-11-11-11zm9 11c0 2.741-.434 4.753-1.408 6.178l-.723-.723c.09-.171.148-.361.124-.568-.15-1.331-.377-2.027-.403-2.103-.11-.324-.38-.57-.713-.651 0 0-.228-.053-.596-.123.03-.333.011-.691-.011-1.01h.73c.552 0 1-.447 1-1s-.448-1-1-1h-1.197c-.138-.312-.3-.598-.496-.85.919-.132 1.535-.276 1.569-.284.334-.08.604-.326.715-.651.025-.075.252-.771.403-2.103.062-.549-.333-1.044-.881-1.106-.549-.058-1.044.333-1.106.882-.055.49-.122.875-.179 1.152-.328.06-.777.133-1.297.195-.091-2.139-1.254-3.235-3.482-3.235-1.868 0-2.982.775-3.352 2.282l-2.875-2.875c1.425-.974 3.438-1.408 6.178-1.408 6.561 0 9 2.439 9 9zm-10.381-2.795c-.045-.198-.071-.432-.071-.705 0-1.233.266-1.5 1.5-1.5s1.5.267 1.5 1.5c0 .119-.006.951-.011 1.475-.003.385.215.736.56.906.594.29 1.201.858 1.201 2.869 0 .047-.005.083-.006.128l-4.674-4.674zm-7.619 2.795c0-2.741.434-4.753 1.408-6.178l10.321 10.321c-.485.615-1.317.857-2.681.857-2.491 0-3.25-.76-3.25-3.25 0-.59.053-1.095.158-1.5.077-.3.012-.618-.178-.862-.189-.245-.481-.388-.791-.388h-1.987c-.552 0-1 .447-1 1s.448 1 1 1h.823c-.02.31-.039.664-.01.992-.432.08-.69.142-.69.142-.333.081-.603.327-.713.651-.025.075-.252.771-.403 2.103-.062.549.333 1.044.881 1.106.539.063 1.046-.33 1.106-.882.045-.401.097-.714.146-.973.651 1.937 2.25 2.861 4.908 2.861 1.89 0 3.233-.479 4.094-1.445l2.037 2.037c-1.425.974-3.438 1.408-6.178 1.408-6.561 0-9-2.439-9-9z"/></svg>