<svg id="Layer_1" viewBox="0 0 24 24" xmlns="http://www.w3.org/2000/svg" data-name="Layer 1"><path d="m21 13v2.5c0 5.187-2.313 7.5-7.5 7.5s-7.5-2.313-7.5-7.5v-4.722c-1.023.066-1.813.205-1.823.207-.55.096-1.064-.264-1.161-.808-.098-.543.263-1.062.806-1.161.049-.008.979-.172 2.178-.241v-3.775c0-1.589-.411-2-2-2-.552 0-1-.447-1-1s.448-1 1-1c2.691 0 4 1.309 4 4v3.775c1.199.069 2.129.232 2.178.241.543.099.904.618.806 1.161-.087.484-.508.823-.983.823-.318-.015-.746-.141-2-.222v4.722c0 4.112 1.388 5.5 5.5 5.5s5.5-1.388 5.5-5.5v-2.5c0-1.589-.411-2-2-2-.552 0-1-.447-1-1s.448-1 1-1c2.691 0 4 1.309 4 4z"/></svg>