<svg id="Layer_1" viewBox="0 0 24 24" xmlns="http://www.w3.org/2000/svg" data-name="Layer 1"><path d="m22.6 15.2c-1.238-.928-2.355-2.002-3.331-3.2.976-1.198 2.093-2.272 3.331-3.2.304-.228.452-.608.383-.981s-.344-.676-.708-.78c-.148-.042-3.71-1.039-10.275-1.039s-10.126.996-10.275 1.039c-.365.104-.64.406-.708.78s.08.754.383.981c1.238.928 2.355 2.002 3.331 3.2-.976 1.198-2.093 2.272-3.331 3.2-.304.228-.452.607-.383.981.069.373.343.676.708.78.148.042 3.71 1.038 10.275 1.038s10.126-.996 10.275-1.038c.365-.104.64-.407.708-.78.069-.374-.08-.754-.383-.981zm-10.6.8c-3.506 0-6.128-.3-7.761-.564.937-.864 1.794-1.812 2.562-2.835.267-.356.266-.845 0-1.2-.767-1.022-1.624-1.971-2.561-2.835 1.633-.265 4.255-.564 7.761-.564s6.128.299 7.761.564c-.937.864-1.794 1.813-2.561 2.835-.267.355-.267.844 0 1.2.767 1.023 1.625 1.971 2.562 2.835-1.633.265-4.255.564-7.761.564z"/></svg>