<svg id="Layer_1" viewBox="0 0 24 24" xmlns="http://www.w3.org/2000/svg" data-name="Layer 1"><path d="m20.121 9.583c1.052-.808 1.627-1.033 2.537-1.83.251-.219.376-.549.334-.88-.043-.331-.247-.618-.545-.767-.094-.046-2.384-1.178-4.672-1.102-.465.016-.864.345-.952.802-.113.588-.248 1.56-.3 2.97-1.17.111-2.788.224-4.523.224s-3.353-.113-4.523-.224c-.052-1.411-.187-2.382-.3-2.97-.088-.457-.487-.786-.952-.802-2.288-.077-4.578 1.055-4.672 1.102-.298.149-.502.437-.545.767-.042.331.083.661.334.88.91.797 1.485 1.023 2.537 1.83-.879.853-1.622 1.545-2.537 2.665-.286.351-.439.788-.238 1.194.198.407.657.628 1.093.538.058-.011.856-.172 1.818-.401-.006.141-.014.282-.014.42 0 1.706.51 3.719.531 3.804.1.39.424.683.822.741.125.019 3.113.455 6.646.455s6.521-.437 6.646-.455c.398-.059.723-.352.822-.741.021-.085.531-2.098.531-3.804 0-.138-.008-.28-.014-.42.961.229 1.759.389 1.818.401.436.09.894-.131 1.093-.538.201-.406.048-.844-.238-1.194-.915-1.12-1.658-1.812-2.537-2.665zm-2.443 7.07c-1.064.127-3.26.347-5.678.347s-4.613-.22-5.678-.347c-.138-.67-.322-1.738-.322-2.653 0-1.451.464-3.29.469-3.308 0-.002 0-.005 0-.007 1.203.134 3.251.315 5.531.315s4.328-.181 5.531-.315v.007c.005.018.469 1.857.469 3.308 0 .915-.185 1.983-.322 2.653z"/></svg>