<?xml version="1.0" encoding="UTF-8"?>
<svg xmlns="http://www.w3.org/2000/svg" id="Layer_1" data-name="Layer 1" viewBox="0 0 24 24">
  <path d="M17.982,1.895c-.276,0-.5,.224-.5,.5V21.605c0,.276,.224,.5,.5,.5s.5-.224,.5-.5V2.395c0-.276-.224-.5-.5-.5Z"/>
  <path d="M22,2.982c-.553,0-1,.448-1,1V20.044c0,.552,.447,1,1,1s1-.448,1-1V3.982c0-.552-.447-1-1-1Z"/>
  <path d="M6.984,2.01c-.828,0-1.5,.671-1.5,1.5V20.49c0,.829,.672,1.5,1.5,1.5s1.5-.671,1.5-1.5V3.51c0-.829-.672-1.5-1.5-1.5Z"/>
  <path d="M13,1.001c-.828,0-1.5,.671-1.5,1.5V21.499c0,.829,.672,1.5,1.5,1.5s1.5-.671,1.5-1.5V2.501c0-.829-.672-1.5-1.5-1.5Z"/>
  <path d="M2,2.982c-.553,0-1,.448-1,1V20.044c0,.552,.447,1,1,1s1-.448,1-1V3.982c0-.552-.447-1-1-1Z"/>
</svg>
