<svg id="Layer_1" viewBox="0 0 24 24" xmlns="http://www.w3.org/2000/svg" data-name="Layer 1"><path d="m1.01 4.688c-.078-.547.302-1.054.848-1.132.155-.021 3.844-.541 8.642-.541s8.486.52 8.642.541c.547.078.927.585.849 1.132-.076.549-.596.928-1.132.849-.036-.006-3.711-.521-8.358-.521s-8.322.516-8.359.521c-.548.079-1.053-.303-1.131-.849zm21.131 6.853c-.155-.021-3.845-.541-8.642-.541s-8.487.52-8.642.541c-.546.078-.926.585-.848 1.132.078.546.584.931 1.131.849.037-.006 3.712-.521 8.359-.521s8.322.516 8.358.521c.536.079 1.056-.3 1.132-.849.078-.547-.302-1.054-.849-1.132zm-3 8c-.155-.021-3.845-.541-8.642-.541s-8.487.52-8.642.541c-.546.078-.926.585-.848 1.132.078.546.583.93 1.131.849.037-.006 3.712-.521 8.359-.521s8.322.516 8.358.521c.536.079 1.056-.3 1.132-.849.078-.547-.302-1.054-.849-1.132z"/></svg>