<svg id="Layer_1" viewBox="0 0 24 24" xmlns="http://www.w3.org/2000/svg" data-name="Layer 1"><path d="m15.766 12.031c.009-.271-.093-.533-.281-.727s-.447-.304-.718-.304h-6.233c.102-.612.288-1.429.627-2.258.769-1.879 1.803-3.069 1.812-3.079.366-.413.328-1.045-.085-1.412-.413-.366-1.045-.329-1.411.085-.052.058-1.262 1.438-2.167 3.648-.821 2.01-.891 3.903-.893 3.983-.009.271.093.533.28.728.188.194.448.304.719.304h6.233c-.102.612-.287 1.429-.627 2.258-.759 1.854-1.847 3.035-1.867 3.057-.378.401-.373 1.048.042 1.412.588.516 1.217.168 1.413-.041.056-.058 1.353-1.446 2.264-3.671.822-2.01.891-3.905.893-3.984z"/><path d="m22.315 8.581c-.129-.278-.378-.481-.676-.552-.041-.01-.336-.078-.888-.157-.304-1.457-.661-2.371-.686-2.437-.119-.299-.375-.523-.688-.601-.103-.025-2.542-.627-5.804-.833-.55-.035-1.027.384-1.062.935s.384 1.026.935 1.061c2.22.14 4.063.481 4.925.661.278.884.81 2.889.81 5.341 0 2.472-.549 4.514-.824 5.382-.556.152-1.576.398-2.859.56-.549.069-.943.57-.868 1.117.128.941 1.074.873 1.116.868 2.174-.272 3.646-.763 3.709-.784.279-.094.504-.308.611-.583.026-.066.38-.982.683-2.433.553-.079.848-.146.89-.156.3-.071.55-.276.679-.556.027-.061.683-1.51.683-3.415 0-1.921-.656-3.359-.685-3.419z"/><path d="m8.702 18.002c-2.205-.141-4.036-.48-4.893-.661-.278-.883-.81-2.89-.81-5.341 0-2.482.554-4.532.828-5.394.505-.147 1.411-.38 2.557-.538.547-.075.93-.58.854-1.127-.075-.547-.57-.932-1.127-.854-2.007.276-3.35.757-3.405.777-.271.098-.486.308-.591.575-.046.116-1.115 2.883-1.115 6.56 0 3.708 1.071 6.449 1.116 6.564.119.299.374.523.687.601.102.025 2.526.625 5.772.833.021.001.919.068 1.062-.934.078-.547-.383-1.027-.935-1.062z"/></svg>