<svg id="Layer_1" viewBox="0 0 24 24" xmlns="http://www.w3.org/2000/svg" data-name="Layer 1"><path d="m22.315 8.581c-.129-.278-.378-.481-.676-.552-.041-.01-.336-.078-.888-.157-.304-1.457-.661-2.371-.686-2.436-.123-.31-.393-.538-.718-.608-.156-.034-3.867-.828-8.257-.828s-8.101.794-8.257.828c-.327.071-.597.301-.719.612-.046.116-1.115 2.883-1.115 6.56 0 3.708 1.071 6.449 1.116 6.563.123.31.393.538.718.608.156.034 3.867.828 8.257.828s8.101-.794 8.257-.828c.327-.071.597-.301.719-.612.026-.066.38-.982.683-2.433.553-.079.848-.146.89-.156.3-.071.55-.276.679-.556.027-.061.683-1.51.683-3.415 0-1.921-.656-3.359-.685-3.419zm-11.225 9.419c-3.219 0-6.117-.462-7.286-.676-.28-.893-.805-2.888-.805-5.324 0-2.417.525-4.425.806-5.324 1.172-.214 4.074-.676 7.285-.676s6.117.462 7.286.676c.28.893.805 2.888.805 5.324 0 2.417-.525 4.425-.806 5.324-1.172.214-4.074.676-7.285.676z"/></svg>