<svg id="Layer_1" viewBox="0 0 24 24" xmlns="http://www.w3.org/2000/svg" data-name="Layer 1"><path d="m3.512 6.713c-.187.87-.512 2.748-.512 5.287s.325 4.417.512 5.287c.653.157 1.803.449 3.582.617.55.052.954.539.902 1.089-.05.55-.548.957-1.089.901-2.962-.279-4.465-.82-4.531-.84-.318-.102-.564-.354-.657-.675-.029-.102-.718-2.527-.718-6.378s.689-6.277.718-6.378c.092-.32.339-.573.656-.675.067-.021 1.57-.485 4.532-.765.55-.052 1.037.352 1.089.902s-.352 1.038-.902 1.089c-1.779.168-2.929.382-3.582.539zm19.111 2.014c-.093-.32-.339-.573-.656-.674-.055-.017-.496-.148-1.267-.273-.19-1.295-.401-2.063-.417-2.118-.093-.32-.339-.573-.657-.675-.064-.021-1.63-.513-4.528-.793-.556-.054-1.039.349-1.092.898-.054.55.349 1.039.898 1.092 1.729.168 2.943.415 3.585.569.187.87.512 2.748.512 5.287s-.325 4.417-.512 5.287c-.642.154-1.855.401-3.585.569-.55.053-.952.542-.898 1.092.051.551.551.954 1.092.898 2.898-.281 4.463-.772 4.528-.793.317-.102.564-.354.657-.675.016-.055.228-.824.417-2.119.771-.125 1.212-.255 1.266-.273.318-.102.564-.354.657-.675.015-.054.377-1.326.377-3.312s-.362-3.259-.377-3.312zm-11.623-4.727c-.552 0-1 .448-1 1v10c0 .553.448 1 1 1s1-.447 1-1v-10c0-.552-.448-1-1-1zm0 14c-.552 0-1 .448-1 1s.448 1 1 1 1-.448 1-1-.448-1-1-1z"/></svg>