<svg id="Layer_1" viewBox="0 0 24 24" xmlns="http://www.w3.org/2000/svg" data-name="Layer 1"><path d="m22.365 13.704c.097-.968.147-1.936.147-2.884 0-4.609-1.143-7.13-1.191-7.235-.126-.272-.367-.473-.657-.548-.164-.042-4.061-1.037-8.668-1.037s-8.504.994-8.668 1.037c-.293.076-.536.28-.661.556-.048.106-1.179 2.66-1.179 7.228 0 .95.049 1.92.146 2.888-.243.469-.633 1.402-.633 2.553 0 1.591.735 2.75.819 2.876.167.252.438.416.739.444.012.001.352.033.942.079v1.339c0 .552.448 1 1 1s1-.448 1-1v-1.202c1.719.102 4.031.202 6.5.202s4.78-.1 6.5-.203v1.203c0 .552.448 1 1 1s1-.448 1-1v-1.339c.59-.046.93-.078.942-.079.303-.029.576-.194.742-.449.083-.128.816-1.295.816-2.872 0-1.159-.39-2.089-.635-2.557zm-18.038-8.847c1.171-.258 4.253-.857 7.669-.857s6.507.6 7.673.857c.286.84.844 2.877.844 5.963 0 .634-.024 1.278-.071 1.926-.5-.087-1.149-.191-1.913-.293.036-.264.055-.547.055-.85 0-2.526-1.275-3.808-3.789-3.808-1.229 0-2.161.307-2.793.915-.633-.608-1.565-.915-2.793-.915-2.514 0-3.789 1.281-3.789 3.808 0 .303.018.586.053.85-.764.102-1.413.206-1.913.293-.046-.647-.07-1.292-.07-1.926 0-3.063.555-5.115.839-5.963zm3.132 7.368c-.027-.184-.041-.392-.041-.622 0-1.557.527-1.808 1.789-1.808s1.789.251 1.789 1.808c0 .145-.006.282-.017.409-1.256.03-2.447.11-3.52.213zm5.563-.213c-.011-.127-.016-.264-.016-.409 0-1.557.527-1.808 1.789-1.808s1.789.251 1.789 1.808c0 .23-.014.438-.042.622-1.072-.103-2.263-.183-3.52-.213zm7.688 5.626c-1.307.107-4.811.362-8.708.362s-7.404-.254-8.709-.362c-.135-.323-.291-.815-.291-1.377 0-.595.176-1.116.317-1.437 1.221-.23 4.753-.824 8.683-.824s7.466.594 8.684.824c.142.32.316.838.316 1.437 0 .56-.156 1.053-.292 1.377z"/></svg>