<svg id="Layer_1" viewBox="0 0 24 24" xmlns="http://www.w3.org/2000/svg" data-name="Layer 1"><path d="m15.735 20.83c-.759 2.17-2.999 2.17-3.735 2.17-2.407 0-3.7-1.055-3.948-3.201-3.191-.328-5.132-.946-5.24-.982-.367-.12-.633-.44-.682-.823-.018-.14-.432-3.472.311-8.343.043-.282.088-.558.136-.825.096-.543.611-.905 1.159-.811.544.096.907.615.811 1.159-.045.253-.087.513-.128.78-.513 3.366-.438 5.979-.36 7.136 1.206.306 4.076.911 7.943.911.504 0 .992-.01 1.46-.028.577-.012 1.017.408 1.039.959.022.552-.408 1.017-.959 1.039-.494.02-1.008.03-1.54.03-.669 0-1.307-.017-1.916-.047.185.807.711 1.047 1.916 1.047 1.557 0 1.739-.52 1.848-.83.182-.521.751-.796 1.274-.614.521.182.796.753.614 1.274zm6.972 1.877c-.391.391-1.023.391-1.414 0l-20-20c-.391-.391-.391-1.023 0-1.414s1.023-.391 1.414 0l2.175 2.175c1.366-1.447 3.222-2.32 5.24-2.422 1.172-.06 2.584-.06 3.756 0 3.467.175 6.432 2.683 7.208 6.1.185.812.344 1.654.474 2.505.743 4.871.329 8.203.311 8.343-.049.383-.315.703-.682.823-.017.006-.28.09-.747.21l2.266 2.266c.391.391.391 1.023 0 1.414zm-16.412-17.827 12.481 12.481c.01-.002.016-.009.026-.011.469-.095.853-.186 1.142-.26.077-1.157.153-3.77-.361-7.137-.122-.804-.272-1.599-.446-2.363-.588-2.588-2.741-4.415-5.358-4.547-1.109-.056-2.445-.056-3.555 0-1.516.077-2.91.739-3.928 1.837z"/></svg>