<svg id="Layer_1" viewBox="0 0 24 24" xmlns="http://www.w3.org/2000/svg" data-name="Layer 1"><path d="m2.883 9.446c.085.022 2.108.552 5.117.552s5.032-.53 5.117-.552c.407-.109.703-.462.738-.883.006-.062.128-1.545.128-3.453 0-2.149-.126-3.189-.132-3.232-.062-.498-.482-.873-.984-.876h-.007c-.722 0-1.94.882-2.927 1.813-.524-.773-1.111-1.402-1.208-1.504-.377-.398-1.074-.398-1.451 0-.097.102-.684.73-1.208 1.504-.986-.931-2.205-1.813-2.927-1.813h-.007c-.502.004-.923.379-.984.876-.006.043-.132 1.083-.132 3.232 0 1.908.122 3.391.128 3.453.035.421.331.774.738.883zm1.155-5.751c.459.366.995.857 1.478 1.442.23.277.588.41.945.347.354-.063.647-.312.768-.65.138-.389.454-.867.77-1.282.316.416.633.894.77 1.282.12.339.414.587.768.65.36.062.715-.07.945-.347.483-.584 1.019-1.076 1.478-1.442.013.395.021.867.021 1.416 0 1.034-.038 1.949-.072 2.549-.779.143-2.167.339-3.911.339s-3.132-.196-3.911-.339c-.034-.6-.072-1.515-.072-2.549 0-.549.009-1.02.021-1.416zm18.92 8.806c-.133-.791-.565-1.482-1.219-1.946-.653-.465-1.449-.651-2.237-.516-.79.133-1.48.565-1.946 1.219-.995 1.397-2.054 2.544-3.17 3.437-.221-1.011-.967-1.834-1.992-2.143-.075-.023-1.873-.555-4.394-.555-2.984 0-5.581.497-5.69.518-.382.074-.686.362-.779.739-.022.087-.53 2.143-.53 4.243s.508 4.156.53 4.243c.094.375.395.662.773.738.106.021 2.633.52 5.696.52 5.679 0 10.539-2.779 14.443-8.259.465-.652.647-1.447.516-2.237zm-2.144 1.078c-3.508 4.923-7.819 7.42-12.814 7.42-1.983 0-3.758-.229-4.665-.371-.14-.71-.335-1.926-.335-3.129s.195-2.414.335-3.127c.921-.142 2.72-.373 4.665-.373 2.21 0 3.805.466 3.818.47.374.113.636.464.636.856.005.457-.249.751-.703.965-.9.423-1.864.625-2.841.713-.55.05-.956.536-.906 1.086s.546.956 1.086.906c3.838-.347 7.234-2.559 10.095-6.575.155-.218.386-.363.648-.407.269-.043.528.018.746.173s.362.385.406.648c.044.264-.017.528-.172.746z"/></svg>