<svg id="Layer_1" viewBox="0 0 24 24" xmlns="http://www.w3.org/2000/svg" data-name="Layer 1"><path d="m22.959 11.503c-.133-.79-.565-1.481-1.219-1.946s-1.447-.65-2.237-.516c-.79.133-1.48.565-1.946 1.219-.996 1.397-2.055 2.545-3.172 3.439-.227-1.003-.981-1.842-1.99-2.146-.075-.022-1.873-.554-4.395-.554-2.985 0-5.582.497-5.69.519-.381.074-.686.362-.78.739-.021.086-.53 2.144-.53 4.242s.508 4.156.53 4.242c.094.375.395.663.774.738.106.021 2.632.52 5.696.52 5.68 0 10.539-2.779 14.443-8.26.465-.652.647-1.447.516-2.237zm-2.145 1.077c-3.508 4.924-7.819 7.42-12.814 7.42-1.983 0-3.758-.229-4.666-.371-.139-.711-.334-1.926-.334-3.129s.196-2.414.334-3.127c.921-.142 2.72-.373 4.666-.373 2.21 0 3.805.465 3.819.47.374.112.635.464.635.855.005.461-.2.75-.708.967-.913.39-1.861.624-2.836.712-.55.05-.956.536-.906 1.086s.544.965 1.086.906c3.838-.347 7.234-2.56 10.096-6.576.155-.218.386-.362.648-.406.268-.046.528.017.746.172s.362.386.406.648c.044.264-.017.528-.172.746zm-16.814-9.08c0-1.071.429-1.5 1.5-1.5s1.5.429 1.5 1.5-.429 1.5-1.5 1.5-1.5-.429-1.5-1.5zm6.5 3.5c1.071 0 1.5.429 1.5 1.5s-.429 1.5-1.5 1.5-1.5-.429-1.5-1.5.429-1.5 1.5-1.5zm-5.332 1.445 4-6c.306-.46.926-.584 1.387-.277.459.307.583.927.277 1.387l-4 6c-.193.289-.51.445-.833.445-.19 0-.383-.055-.554-.168-.459-.307-.583-.927-.277-1.387z"/></svg>