<svg id="Layer_1" viewBox="0 0 24 24" xmlns="http://www.w3.org/2000/svg" data-name="Layer 1"><path d="m21.937 4.715c-.104-.275-.324-.492-.602-.591-.129-.046-3.232-1.124-9.335-1.124s-9.206 1.078-9.335 1.124c-.277.099-.498.315-.602.591-.043.116-1.063 2.888-1.063 7.285s1.021 7.169 1.063 7.285c.104.275.324.492.602.591.129.046 3.232 1.124 9.335 1.124s9.206-1.078 9.335-1.124c.277-.099.498-.315.602-.591.043-.116 1.063-2.888 1.063-7.285s-1.021-7.169-1.063-7.285zm-9.937.285c4.428 0 7.182.601 8.208.875.077.265.177.652.279 1.125h-16.975c.102-.474.202-.861.279-1.125 1.029-.275 3.782-.875 8.209-.875zm0 14c-4.428 0-7.182-.601-8.208-.875-.264-.906-.792-3.101-.792-6.125 0-1.122.073-2.129.178-3h17.644c.105.87.178 1.877.178 3 0 3.023-.528 5.219-.792 6.125-1.028.275-3.781.875-8.208.875zm-4.007-8c-1.843.011-2.962 1.126-2.995 2.982v.036c.035 1.884 1.127 2.97 3.007 2.981 1.869-.012 2.961-1.099 2.995-3.018-.032-1.828-1.18-2.972-3.007-2.982zm.012 4c-.761-.005-.988-.229-1.007-1 .018-.762.255-.995.995-1 .739.005.994.261 1.007.981-.015.795-.23 1.014-.995 1.019zm9.995-4h-4c-.553 0-1 .447-1 1v4c0 .553.447 1 1 1h4c.553 0 1-.447 1-1v-4c0-.553-.447-1-1-1zm-1 4h-2v-2h2z"/></svg>