<svg id="Layer_1" viewBox="0 0 24 24" xmlns="http://www.w3.org/2000/svg" data-name="Layer 1"><path d="m20.186 2.827c-.067-.381-.348-.689-.721-.792-.154-.042-3.816-1.036-7.465-1.036-1.465 0-3.103.159-4.868.472-1.958.347-3.438 1.908-3.682 3.883-.205 1.664-.45 4.167-.45 6.645s.245 4.981.45 6.645c.244 1.976 1.724 3.536 3.682 3.883 1.766.313 3.403.472 4.868.472 3.648 0 7.311-.993 7.465-1.036.373-.103.653-.411.721-.792.033-.189.814-4.693.814-9.173s-.781-8.983-.814-9.173zm-14.75 2.773c.135-1.099.958-1.966 2.046-2.159 1.65-.293 3.171-.441 4.519-.441 2.534 0 5.155.539 6.317.811.213 1.393.683 4.845.683 8.189 0 1.367-.08 2.745-.187 4h-10.314c-.818 0-2.17.341-3.182 1.375-.164-1.523-.318-3.458-.318-5.375 0-2.376.237-4.792.436-6.4zm6.564 15.4c-1.348 0-2.868-.148-4.519-.441-.52-.092-.975-.341-1.328-.693.49-1.762 2.158-1.862 2.347-1.866h10.111c-.108.924-.217 1.692-.293 2.189-1.162.272-3.783.811-6.317.811zm-2.995-12.792c-.057-.549.341-1.042.891-1.099.363-.038.735-.039 1.104-.057v-1.052c0-.552.448-1 1-1s1 .448 1 1v1.052c.369.018.741.019 1.104.057.55.058.948.549.891 1.099-.054.514-.487.896-.993.896-.331-.026-.666-.038-1.001-.051v3.948c0 .552-.448 1-1 1s-1-.448-1-1v-3.948c-.299.016-.601.015-.896.046-.557.046-1.042-.342-1.099-.891z"/></svg>