<svg id="Layer_1" viewBox="0 0 24 24" xmlns="http://www.w3.org/2000/svg" data-name="Layer 1"><path d="m23 16.5c0 2.32-1.18 3.5-3.5 3.5h-5.5c-.55 0-1-.45-1-1s.45-1 1-1h5.5c1.23 0 1.5-.27 1.5-1.5s-.27-1.5-1.5-1.5h-5.5c-2.32 0-3.5-1.18-3.5-3.5s1.18-3.5 3.5-3.5c.55 0 1 .45 1 1s-.45 1-1 1c-1.23 0-1.5.27-1.5 1.5s.27 1.5 1.5 1.5h5.5c2.32 0 3.5 1.18 3.5 3.5zm-5.56-7.22c-.05-.13-.44-1.39-.44-3.82 0-2.2.32-3.43.42-3.75.16-.52.71-.82 1.23-.67.35.1 1.08.35 2.09.94 1.35.78 1.94 1.43 2 1.5.34.38.33.96 0 1.33-.11.12-.7.74-1.99 1.49-.71.41-1.28.66-1.67.8.1 1.02.26 1.54.26 1.55.22.63-.29 1.32-.95 1.31-.42 0-.81-.26-.95-.68zm1.57-4.32c.21-.1.46-.23.74-.39.26-.15.49-.3.68-.43-.19-.13-.42-.28-.68-.43-.23-.13-.43-.24-.62-.33-.05.41-.1.94-.12 1.58zm-9.89 14.05-1-2.01h.88c.55 0 1-.45 1-1s-.45-1-1-1h-1c-1.27 0-2 .73-2 2 0 .14.04.27.09.4-.14.05-.28.11-.43.18-.44-.75-1.3-1.58-2.67-1.58-.55 0-1 .45-1 1s.45 1 1 1c.52 0 .82.38.96.62-.16.13-.32.26-.47.4-.15-.02-.31-.03-.49-.03-1.43 0-2 .57-2 2s.57 2 2 2 2-.57 2-2c0-.22-.02-.41-.05-.59.69-.62 1.48-1 2.03-1.2l.27.54c-.17.31-.25.72-.25 1.26 0 1.43.57 2 2 2s2-.57 2-2-.54-1.96-1.88-1.99z"/></svg>