<svg id="Layer_1" viewBox="0 0 24 24" xmlns="http://www.w3.org/2000/svg" data-name="Layer 1"><path d="m7 12c0 .552-.448 1-1 1s-1-.448-1-1 .448-1 1-1 1 .448 1 1zm11-1c-.552 0-1 .448-1 1s.448 1 1 1 1-.448 1-1-.448-1-1-1zm-12 6c-.552 0-1 .448-1 1s.448 1 1 1 1-.448 1-1-.448-1-1-1zm12 0c-.552 0-1 .448-1 1s.448 1 1 1 1-.448 1-1-.448-1-1-1zm-2-2c0 2.691-1.309 4-4 4s-4-1.309-4-4 1.309-4 4-4 4 1.309 4 4zm-2 0c0-1.589-.411-2-2-2s-2 .411-2 2 .411 2 2 2 2-.411 2-2zm1.8-9.4c.367-.489.773-.945 1.2-1.382v4.782c0 .552.447 1 1 1s1-.448 1-1v-4.782c.427.436.833.893 1.2 1.382.332.445.962.53 1.399.201.442-.332.532-.958.2-1.4-.908-1.212-1.984-2.289-3.199-3.2-.355-.267-.846-.267-1.201 0-1.215.912-2.291 1.988-3.199 3.2-.332.442-.242 1.068.2 1.4s1.069.242 1.399-.201zm6.684 4.14c-.097-.543-.614-.905-1.16-.809-.544.097-.905.616-.809 1.16.221 1.238.484 3.095.484 4.908 0 2.137-.375 4.367-.585 5.45-1.386.179-4.708.55-8.415.55s-7.029-.372-8.415-.55c-.21-1.083-.585-3.312-.585-5.45s.375-4.367.585-5.45c1.386-.179 4.708-.55 8.415-.55.673 0 1.332.012 1.968.033.515.03 1.014-.414 1.031-.967.019-.552-.415-1.014-.967-1.032-.657-.021-1.338-.034-2.032-.034-5.019 0-9.226.641-9.402.668-.404.062-.729.364-.821.762-.032.137-.776 3.381-.776 6.57s.744 6.433.776 6.57c.092.398.417.7.821.762.177.027 4.384.668 9.402.668s9.226-.641 9.402-.668c.404-.062.729-.364.821-.762.032-.137.776-3.381.776-6.57 0-1.96-.28-3.942-.516-5.26z"/></svg>