<svg id="Layer_1" viewBox="0 0 24 24" xmlns="http://www.w3.org/2000/svg" data-name="Layer 1"><path d="m20.107 5.836c-.035-.016-.071-.032-.107-.048v-1.517c0-1.804-1.455-3.271-3.244-3.271-1.727 0-3.144 1.358-3.25 3.066-.49-.043-.993-.066-1.507-.066s-1.017.023-1.507.065c-.106-1.708-1.523-3.065-3.25-3.065-1.789 0-3.244 1.468-3.244 3.271v1.51c-.039.017-.078.035-.115.052-1.752.799-2.885 2.578-2.885 4.531v7.636c0 2.664 2.336 5 5 5s5-2.336 5-5v-5c0-.551.449-1 1-1s1 .449 1 1v5c0 2.664 2.336 5 5 5s5-2.336 5-5v-7.628c0-1.956-1.135-3.736-2.893-4.535zm-4.607-1.565c0-.701.563-1.271 1.256-1.271.686 0 1.244.57 1.244 1.271v.739c-.758-.252-1.597-.483-2.5-.661zm-9.5 0c0-.701.558-1.271 1.244-1.271.693 0 1.256.57 1.256 1.271v.074c-.905.177-1.743.407-2.5.658zm0 16.729c-1.57 0-3-1.43-3-3s1.43-3 3-3 3 1.43 3 3-1.43 3-3 3zm6-11c-1.654 0-3 1.346-3 3v1.061c-.849-.66-1.896-1.061-3-1.061s-2.151.402-3 1.061v-3.697c0-1.172.673-2.236 1.714-2.711 1.655-.754 4.262-1.653 7.286-1.653 3.002 0 5.616.901 7.28 1.657 1.045.475 1.72 1.541 1.72 2.714v3.69c-.849-.66-1.896-1.061-3-1.061s-2.151.402-3 1.061v-1.061c0-1.654-1.346-3-3-3zm6 11c-1.57 0-3-1.43-3-3s1.43-3 3-3 3 1.43 3 3-1.43 3-3 3z"/></svg>