<svg id="Layer_1" viewBox="0 0 24 24" xmlns="http://www.w3.org/2000/svg" data-name="Layer 1"><path d="m17 6c0 .552-.448 1-1 1s-1-.448-1-1 .448-1 1-1 1 .448 1 1zm6 1c0 .351-.184.676-.484.857-.379.227-.859.476-1.516.675v2.467c0 5.985-2.19 9.032-7.191 9.797.074.349.136.708.183 1.075.07.548-.316 1.049-.864 1.12-.538.071-1.051-.314-1.12-.864-.051-.4-.126-.78-.213-1.15-.263.009-.52.022-.795.022-.253 0-.49-.013-.733-.02.058.293.113.589.152.892.07.548-.316 1.049-.864 1.12-.538.071-1.051-.314-1.12-.864-.06-.464-.153-.905-.261-1.334-4.988-.77-7.173-3.816-7.173-9.794v-3c0-.553.447-1 1-1s1 .447 1 1c0 2.299.701 3 3 3s3-.701 3-3v-1c0-4.149 1.851-6 6-6 3.582 0 5.444 1.388 5.888 4.435.715.204 1.228.467 1.628.707.301.182.484.507.484.857zm-4 0c0-3.028-.972-4-4-4s-4 .972-4 4v.827c1.344.791 2 2.164 2 4.173 0 4.481-3.424 5-6 5-.553 0-1-.447-1-1s.447-1 1-1c3.382 0 4-1.011 4-3 0-.792-.13-1.327-.33-1.715-.622 1.837-2.144 2.715-4.67 2.715-1.212 0-2.193-.2-2.956-.612.328 4.851 2.538 6.612 7.956 6.612 5.906 0 8-2.094 8-8z"/></svg>