<svg id="Layer_1" viewBox="0 0 24 24" xmlns="http://www.w3.org/2000/svg" data-name="Layer 1"><path d="m20 15.558c0-2.765-1.494-4.172-3.447-4.878.854-.666 1.447-1.67 1.447-3.18 0-3.031-1.849-4.027-4.222-4.348.112-.581.191-.906.193-.91.133-.536-.193-1.079-.729-1.212-.543-.136-1.079.19-1.212.728-.006.023-.115.464-.26 1.254-.488-.013-1.469-.008-1.962-.009.096-.489.162-.756.163-.76.133-.536-.193-1.079-.729-1.212-.538-.136-1.078.19-1.212.728-.006.023-.114.46-.258 1.244h-1.971s0 0 0 0c-.459 0-.859.312-.97.758-.034.135-.83 3.374-.83 8.241s.796 8.106.83 8.242c.111.445.511.758.97.758h1.972c.144.783.252 1.219.258 1.242.132.54.69.863 1.212.728.536-.133.862-.676.729-1.212 0-.004-.067-.271-.162-.758.874-.002 1.427.004 1.964-.002.144.784.253 1.221.258 1.244.132.541.69.863 1.212.728.535-.133.861-.676.729-1.212-.001-.004-.076-.306-.181-.851 3.225-.296 6.21-1.439 6.21-5.35zm-13.388-10.557 4.442.002c4.613.015 4.946.953 4.946 2.497 0 .812 0 2.5-5 2.5h-4.952c.11-2.3.387-4.06.564-4.999zm4.969 14c-.629 0-2.08 0-3.371 0h-1.598c-.226-1.195-.612-3.724-.612-7h5c5.31-.227 7.287 1.6 7 3.558 0 1.732-.496 3.425-6.419 3.443z"/></svg>