<svg id="Layer_1" viewBox="0 0 24 24" xmlns="http://www.w3.org/2000/svg" data-name="Layer 1"><path d="m6.217 15.414c.024-.004 2.493-.409 6.781-.414 4.359.008 8.641.6 8.684.605.536.084 1.081-.329 1.132-.873.008-.065.187-1.595.187-2.732 0-4.501-.981-9.024-1.023-9.214-.083-.381-.381-.679-.762-.762-.19-.042-4.714-1.023-9.213-1.023-4.469-.032-6.582.432-6.631.444-2.651.472-3.617 1.554-3.972 4.428-.266 1.743-.399 3.468-.399 5.128 0 4.621.874 7.784 1.215 8.842.425 1.559 1.479 2.451 3.196 2.712.134.019 3.32.445 7.537.445 4.619 0 7.242-.698 7.32-.719 1.845-.436 2.231-1.663 2.231-2.614 0-1.938-1.539-2.146-2.558-2.285-.296-.038-3.292-.374-6.942-.382-3.534 0-6.094.38-6.201.396-.546.083-.922.591-.839 1.138.082.546.598.925 1.137.84.025-.003 2.528-.374 5.903-.374 3.574.015 6.442.331 6.675.364.318.043.825.127.825.357 0 .314 0 .45-.723.621-.024.006-2.505.658-6.829.658-4.073 0-7.236-.423-7.252-.425-1.4-.114-1.723-1.275-1.696-2.552 0-1.801.415-2.289 2.217-2.609zm-3.025-.832c-.115-1.051-.192-2.252-.192-3.582 0-1.56.127-3.184.38-4.855.266-2.149.681-2.437 2.376-2.739.02-.004 1.96-.406 6.13-.406 3.363.012 6.863.582 8.265.849.265 1.386.85 4.824.85 8.151 0 .465-.036 1.024-.075 1.495-1.563-.182-4.685-.489-7.923-.495-4.237-.021-7.128.432-7.131.444-1.179.209-2.059.573-2.679 1.138z"/></svg>