<svg id="Layer_1" viewBox="0 0 24 24" xmlns="http://www.w3.org/2000/svg" data-name="Layer 1"><path d="m21.3 17.297c.245-1.77.369-3.55.369-5.297 0-5.166-1.067-8.965-1.112-9.124-.094-.327-.347-.584-.673-.683-.161-.048-4.005-1.193-8.549-1.193s-8.388 1.144-8.549 1.193c-.327.099-.582.357-.674.686-.045.161-1.111 3.999-1.111 9.121 0 5.166 1.067 8.965 1.112 9.124.093.327.347.584.672.683.162.048 4.006 1.193 8.55 1.193.723 0 1.479-.03 2.248-.089.551-.042.962-.523.92-1.074-.042-.55-.511-.966-1.074-.92-.717.055-1.421.083-2.093.083-3.291 0-6.256-.662-7.435-.962-.281-1.192-.9-4.252-.9-8.038 0-.107 0-.213.002-.319h12.8c.553 0 1-.448 1-1v-7.149c.851.158 1.531.319 1.966.43.281 1.189.9 4.24.9 8.038 0 1.675-.121 3.383-.358 5.081-1.323.312-2.311 1.502-2.311 2.919 0 1.654 1.346 3 3 3s3-1.346 3-3c0-1.189-.695-2.218-1.7-2.703zm-18.223-7.616c.055-.85.137-1.642.229-2.357h11.497v2.357zm11.726-4.357h-11.185c.107-.575.207-1.037.283-1.362 1.178-.301 4.14-.962 7.433-.962 1.227 0 2.408.092 3.468.223v2.101zm5.197 15.676c-.552 0-1-.449-1-1s.448-1 1-1 1 .449 1 1-.448 1-1 1z"/></svg>