<svg id="Layer_1" viewBox="0 0 24 24" xmlns="http://www.w3.org/2000/svg"><path d="m17 11c-4.149 0-6 1.851-6 6s1.851 6 6 6 6-1.851 6-6-1.851-6-6-6zm0 2c.948 0 1.674.111 2.252.334l-5.918 5.918c-.224-.578-.334-1.304-.334-2.252 0-3.028.972-4 4-4zm0 8c-.948 0-1.674-.111-2.252-.334l5.918-5.918c.224.578.334 1.304.334 2.252 0 3.028-.972 4-4 4zm-10-11.499c0 .351.011.68.027.999h1.973c.552 0 1 .448 1 1s-.448 1-1 1h-1.72c.311 1.372.885 2.294 1.747 2.829.469.291.614.908.322 1.377-.293.473-.915.611-1.377.322-2.028-1.258-2.973-3.65-2.973-7.527 0-3.649.726-8.501 7-8.501 4.303 0 6.574 2.264 6.942 6.921.043.55-.368 1.032-.918 1.076-.404.029-.752-.178-.937-.497h-2.087c-.553 0-1-.448-1-1s.447-1 1-1h1.707c-.557-2.479-1.963-3.5-4.707-3.5-2.399 0-4.084.667-4.718 3.5h1.718c.552 0 1 .448 1 1s-.448 1-1 1h-1.975c-.016.317-.025.649-.025 1.001zm2.468 11.353c-.136.539-.698.856-1.218.718-4.405-1.138-6.678-4.473-7.154-10.494-.043-.55.368-1.032.918-1.076.545-.041 1.032.368 1.076.918.404 5.12 2.15 7.807 5.66 8.714.535.138.856.684.718 1.218z"/></svg>