<svg id="Layer_1" viewBox="0 0 24 24" xmlns="http://www.w3.org/2000/svg" data-name="Layer 1"><path d="m21.806 2.858c-.1-.325-.358-.578-.686-.67-.172-.049-4.272-1.188-9.121-1.188s-8.947 1.139-9.119 1.188c-.329.093-.588.347-.687.674-.049.161-1.193 4.007-1.193 9.139 0 5.175 1.146 8.982 1.194 9.142.1.325.358.578.686.67.172.049 4.272 1.188 9.121 1.188s8.948-1.139 9.12-1.188c.329-.093.588-.347.687-.674.049-.161 1.193-4.007 1.193-9.139 0-5.175-1.146-8.982-1.194-9.142zm-1.771 17.167c-1.245.298-4.467.976-8.036.976s-6.796-.678-8.038-.976c-.3-1.184-.962-4.23-.962-8.024 0-3.752.665-6.829.964-8.024 1.245-.298 4.467-.976 8.036-.976s6.796.678 8.038.976c.3 1.184.962 4.23.962 8.024 0 3.752-.665 6.829-.964 8.024z"/><path d="m6 5.001c-.552 0-1 .448-1 1s.448 1 1 1 1-.448 1-1-.448-1-1-1z"/><path d="m18 5.001c-.552 0-1 .448-1 1s.448 1 1 1 1-.448 1-1-.448-1-1-1z"/><path d="m18 17.002c-.552 0-1 .448-1 1s.448 1 1 1 1-.448 1-1-.448-1-1-1z"/><path d="m6 17.002c-.552 0-1 .448-1 1s.448 1 1 1 1-.448 1-1-.448-1-1-1z"/></svg>