<svg id="Layer_1" viewBox="0 0 24 24" xmlns="http://www.w3.org/2000/svg" data-name="Layer 1"><path d="m21.937 17.492c-.99-2.633-1.978-3.901-2.166-4.129-.379-.461-1.162-.461-1.541 0-.188.228-1.176 1.496-2.165 4.129-1.058 2.812-1.064 4.443-1.064 4.511.002.55.447.992.997.994h.003c.548 0 .994-.445 1-.994 0-.006.006-.354.127-1.003h3.746c.121.648.127.994.127.997-.002.552.444 1.001.997 1.003h.003c.551 0 .998-.445 1-.997 0-.067-.007-1.699-1.063-4.511zm-4.283 1.508c.084-.254.176-.521.283-.805.378-1.008.753-1.784 1.063-2.352.311.567.686 1.344 1.064 2.352.107.284.199.55.283.805zm-.852-9.598c-.188-.253-.485-.402-.802-.402h-3.867l.859-6.876c.108-.691-.615-1.304-1.279-1.082-7.469 2.233-10.544 12.246-10.671 12.671-.203.617.308 1.305.958 1.287h3.867l-.859 6.876c-.108.692.617 1.303 1.279 1.082 7.469-2.233 10.544-12.246 10.671-12.671.091-.303.033-.631-.156-.885zm-9.6 11.043.79-6.321c.086-.577-.408-1.138-.992-1.124h-3.591c.917-2.372 3.26-7.354 7.389-9.445l-.79 6.321c-.086.577.408 1.138.992 1.124h3.591c-.917 2.372-3.26 7.354-7.389 9.445z"/></svg>