<svg id="Layer_1" viewBox="0 0 24 24" xmlns="http://www.w3.org/2000/svg" data-name="Layer 1"><path d="m6 9.145c.378 0 .725-.214.894-.552.13-.26.238-.516.332-.768.083-.218.235-.371.449-.452.256-.096.513-.204.772-.334.338-.169.552-.516.552-.894s-.214-.725-.552-.894c-.26-.13-.516-.238-.768-.332-.218-.083-.371-.235-.452-.451-.096-.255-.203-.511-.333-.771-.339-.677-1.449-.677-1.788 0-.13.26-.238.516-.333.768-.083.218-.235.371-.449.452-.256.096-.513.204-.772.334-.338.169-.552.516-.552.894s.214.725.552.894c.26.13.516.238.768.332.218.083.371.235.452.449.096.256.204.513.334.772.169.338.516.552.894.552z"/><path d="m10.442 4.397c1.883-.927 3.753-1.397 5.558-1.397 2.224 0 3.021 2.227 3.053 2.322.141.416.53.679.947.679.104 0 .211-.017.316-.052.524-.175.807-.741.632-1.265-.05-.15-1.271-3.684-4.949-3.684-2.114 0-4.281.539-6.442 1.603-.495.244-.699.843-.455 1.339.243.495.843.701 1.339.455z"/><path d="m20.125 12.257.129-.129c.033-.034.064-.069.092-.106.417-.555.719-1.901-.797-3.427-1.519-1.531-2.872-1.223-3.433-.801-.037.028-.072.059-.104.091l-.131.131c-2.76-1.629-5.367-.996-8.354 1.99-3.285 3.284-3.166 6.734.354 10.253 1.683 1.683 3.287 2.573 4.903 2.72.156.014.312.021.467.021 1.656 0 3.296-.801 4.882-2.387 2.996-2.996 3.631-5.605 1.992-8.355zm-3.406 6.941c-2.512 2.511-4.662 2.409-7.425-.354-2.762-2.762-2.865-4.914-.354-7.425 1.639-1.639 2.904-2.272 4.028-2.272.867 0 1.65.377 2.456.961.398.288.947.245 1.294-.103l.556-.556c.13.013.429.123.856.553.428.431.541.733.555.865l-.552.551c-.349.349-.391.9-.1 1.298 1.348 1.842 1.598 3.569-1.314 6.48z"/></svg>