<svg id="Layer_1" viewBox="0 0 24 24" xmlns="http://www.w3.org/2000/svg" data-name="Layer 1"><path d="m20.186 2.827c-.067-.381-.348-.689-.721-.792-.154-.042-3.816-1.035-7.465-1.035-1.467 0-3.104.159-4.867.473-1.959.347-3.438 1.906-3.682 3.882-.206 1.662-.451 4.164-.451 6.646s.245 4.983.451 6.645c.243 1.977 1.723 3.536 3.681 3.883 1.764.313 3.401.473 4.868.473 3.648 0 7.311-.993 7.465-1.035.373-.103.653-.411.721-.792.033-.189.814-4.693.814-9.173s-.781-8.983-.814-9.173zm-1.868.984c.213 1.392.683 4.845.683 8.188 0 1.367-.08 2.745-.187 4h-9.814v-12.786c1.071-.137 2.092-.213 3-.213 2.534 0 5.155.539 6.317.812zm-12.882 1.788c.115-.928.722-1.687 1.564-2.017v12.715c-.576.21-1.169.553-1.682 1.077-.164-1.522-.318-3.456-.318-5.375 0-2.38.237-4.794.436-6.4zm6.564 15.4c-1.33 0-2.893-.152-4.52-.441-.52-.092-.975-.341-1.328-.693.491-1.762 2.158-1.862 2.347-1.866h10.111c-.108.924-.217 1.692-.293 2.188-1.162.272-3.783.812-6.317.812zm-1-11.5c0 1.519.981 2.5 2.5 2.5.421 0 .5.079.5.5s-.079.5-.5.5h-.5c-.553 0-1 .447-1 1s.447 1 1 1h.5c1.519 0 2.5-.981 2.5-2.5 0-.308-.05-.587-.127-.848.708-.411 1.127-1.165 1.127-2.152 0-1.519-.981-2.5-2.5-2.5-.421 0-.5-.079-.5-.5s.079-.5.5-.5h.5c.553 0 1-.447 1-1s-.447-1-1-1h-.5c-1.519 0-2.5.981-2.5 2.5 0 .308.05.587.127.848-.708.411-1.127 1.165-1.127 2.152zm4 0c0 .421-.079.5-.5.5h-1c-.421 0-.5-.079-.5-.5s.079-.5.5-.5h1c.421 0 .5.079.5.5z"/></svg>