<svg id="Layer_1" viewBox="0 0 24 24" xmlns="http://www.w3.org/2000/svg" data-name="Layer 1"><path d="m3 12.1c0-.802.039-1.563.098-2.275.932-.222 3.828-.824 7.902-.824s6.97.602 7.902.824c.059.712.098 1.473.098 2.275 0 .76-.033 1.539-.098 2.317-.046.55.363 1.033.913 1.079.55.052 1.034-.362 1.08-.913.07-.833.105-1.668.105-2.483 0-4.143-.9-7.34-.938-7.474-.095-.332-.354-.592-.687-.688-.068-.019-.913-.256-2.375-.487v-1.45c0-.553-.448-1-1-1s-1 .448-1 1v1.195c-1.148-.115-2.489-.196-4-.196s-2.852.082-4 .196v-1.196c0-.553-.448-1-1-1s-1 .447-1 1v1.451c-1.462.231-2.307.468-2.375.487-.332.096-.592.355-.687.688-.039.134-.938 3.331-.938 7.474s.9 7.341.938 7.475c.15.536.719.839 1.235.687.531-.15.839-.704.688-1.235-.009-.03-.862-3.077-.862-6.926zm8-7.1c3.57 0 6.192.486 7.277.729.102.44.245 1.133.377 1.991-1.415-.291-4.097-.72-7.654-.72s-6.239.428-7.654.72c.132-.858.275-1.551.377-1.991 1.084-.242 3.707-.729 7.277-.729zm11.995 14.533c0 .753-.029 1.902-.083 2.55-.043.521-.48.917-.996.917-.581.004-1.048-.504-.998-1.083.035-.422.06-1.126.07-1.757-1.864-.855-3.87-1.402-6.111-1.667-.503-.06-.883-.486-.883-.993v-4.27c0-1.147-.378-1.23-1-1.23s-1 .083-1 1.23l-.004 7.574c0 .442-.292.832-.716.958-.424.123-.881-.043-1.122-.413-.861-1.322-1.776-2.147-1.785-2.155-.251-.218-.59-.258-.895-.099-.285.149-.48.442-.472.692.099.246.373.907.793 1.751.246.494.044 1.095-.45 1.341-.496.245-1.095.044-1.341-.45-.665-1.379-.866-1.865-.959-2.2-.217-1.136.402-2.331 1.504-2.907 1.031-.534 2.263-.391 3.14.369.017.015.128.115.304.291l.002-4.754c0-2.052 1.094-3.229 3-3.229s3 1.178 3 3.23v3.396c2.327.359 4.493 1.034 6.448 2.012.339.169.553.516.553.895z"/></svg>