<svg id="Layer_1" viewBox="0 0 24 24" xmlns="http://www.w3.org/2000/svg" data-name="Layer 1"><path d="m20.186 2.827c-.067-.381-.348-.689-.721-.792-.154-.042-3.816-1.036-7.465-1.036-1.465 0-3.103.159-4.868.472-1.958.347-3.438 1.908-3.682 3.883-.205 1.664-.45 4.167-.45 6.645s.245 4.981.45 6.645c.244 1.976 1.724 3.536 3.682 3.883 1.766.313 3.403.472 4.868.472 3.648 0 7.311-.993 7.465-1.036.373-.103.653-.411.721-.792.033-.189.814-4.693.814-9.173s-.781-8.983-.814-9.173zm-14.75 2.773c.135-1.099.958-1.966 2.046-2.159 1.65-.293 3.171-.441 4.519-.441 2.534 0 5.155.539 6.317.811.213 1.393.683 4.845.683 8.189 0 1.367-.08 2.745-.187 4h-10.314c-.818 0-2.17.341-3.182 1.375-.164-1.523-.318-3.458-.318-5.375 0-2.376.237-4.792.436-6.4zm6.564 15.4c-1.348 0-2.868-.148-4.519-.441-.52-.092-.975-.341-1.328-.693.49-1.762 2.158-1.862 2.347-1.866h10.111c-.108.924-.217 1.692-.293 2.189-1.162.272-3.783.811-6.317.811zm.006-11c1.868-.011 2.96-1.098 2.995-3.018-.032-1.828-1.18-2.971-3.007-2.982-1.842.011-2.961 1.126-2.995 2.982v.037c.035 1.884 1.126 2.971 3.007 2.981zm-.012-4c.74.005.994.262 1.007.981-.015.795-.231 1.014-.995 1.019-.761-.004-.989-.229-1.007-1 .018-.761.255-.996.995-1zm-4.934 7.66c.496-1.373 1.482-2.3 2.638-2.481 1.518-.239 3.087-.238 4.604 0 1.156.181 2.143 1.108 2.639 2.481.188.52-.081 1.093-.601 1.28-.518.187-1.092-.08-1.28-.601-.24-.666-.649-1.12-1.067-1.185-1.312-.205-2.67-.205-3.985 0-.417.065-.826.52-1.067 1.185-.187.524-.775.788-1.28.601-.52-.188-.789-.761-.601-1.28z"/></svg>