<svg id="Layer_1" viewBox="0 0 24 24" xmlns="http://www.w3.org/2000/svg" data-name="Layer 1"><path d="m10 3c2.534 0 5.156.539 6.318.812.128.838.35 2.422.505 4.271.046.551.529.973 1.08.913.55-.046.959-.529.913-1.079-.237-2.83-.615-4.999-.631-5.09-.067-.381-.347-.689-.72-.792-.154-.042-3.816-1.035-7.465-1.035-1.466 0-3.104.159-4.868.473-1.958.347-3.438 1.906-3.682 3.882-.205 1.664-.45 4.167-.45 6.646s.245 4.981.45 6.646c.244 1.976 1.724 3.535 3.681 3.882 1.345.239 2.63.39 3.82.447h.049c.53 0 .972-.417.998-.952.026-.551-.399-1.021-.951-1.047-1.105-.053-2.306-.194-3.567-.418-.52-.092-.975-.341-1.328-.693.491-1.762 2.158-1.862 2.347-1.866h1.5c.552 0 1-.447 1-1s-.448-1-1-1h-1v-12.787c1.071-.137 2.092-.213 3-.213zm-6.682 14.375c-.164-1.523-.318-3.458-.318-5.375 0-2.377.237-4.792.436-6.399.115-.929.723-1.688 1.564-2.018v12.715c-.576.21-1.169.553-1.682 1.078zm13.682-6.375c-4.149 0-6 1.851-6 6s1.851 6 6 6 6-1.851 6-6-1.851-6-6-6zm0 10c-3.028 0-4-.972-4-4s.972-4 4-4 4 .972 4 4-.972 4-4 4zm2.1-5.2c.171.228.198.532.071.785-.127.254-.387.415-.671.415h-.5v2c0 .553-.448 1-1 1s-1-.447-1-1v-2h-.5c-.284 0-.544-.16-.671-.415-.127-.254-.1-.559.071-.785.469-.627 1.025-1.182 1.65-1.65.267-.2.633-.2.899 0 .625.468 1.181 1.023 1.65 1.65z"/></svg>