<svg id="Layer_1" viewBox="0 0 24 24" xmlns="http://www.w3.org/2000/svg" data-name="Layer 1"><path d="m17.609 15c-.402-.1-2.422-.741-3.606-3.68.006-.417-.002-.916-.003-1.341 0-5.311-.645-7.974-.672-8.084-.096-.387-.411-.68-.804-.746-.077-.012-1.961-.318-5.358.168-3.414.49-4.831 1.411-4.981 1.515-.207.143-.353.357-.408.603-.032.139-.776 3.488-.776 10.54 0 2.958.173 6.056.345 7.813.038.391.301.724.673.85.108.037 1.115.362 2.982.362s2.874-.325 2.982-.362c.312-.106.553-.36.642-.679.021-.077.171-.641.274-1.716.262.148.52.304.783.463 1.725 1.039 3.68 2.294 7.883 2.294 1.586 0 3.73-.529 4.883-1.105.339-.17.553-.516.553-.895 0-3.572-.92-5.962-5.391-6zm-10.803 5.862c-.394.066-.999.138-1.806.138-.757 0-1.336-.062-1.729-.125-.045-.552-.088-1.186-.127-1.875h.855c1.225 0 2.165.146 2.96.385-.039.645-.101 1.138-.154 1.478zm10.758.138c-3.647 0-5.203-1.015-6.851-2.007-1.627-.98-3.31-1.993-6.714-1.993h-.945c-.034-.983-.055-2.012-.055-3.025 0-5.396.454-8.571.645-9.664.43-.203 1.302-.542 2.698-.821-.176 1.721-.342 4.206-.342 7.511 0 .553.447 1 1 1s1-.447 1-1c0-3.57.197-6.153.386-7.818 1.444-.156 2.506-.15 3.133-.119.18 1.068.48 3.378.48 6.917.001.48.011 1.025 0 1.497 1.055 4.331 5 5.523 5.334 5.51.055.009.11.014.166.014 2.608 0 3.389.675 3.488 3.336-.964.331-2.397.664-3.424.664z"/></svg>