<svg id="Layer_1" viewBox="0 0 24 24" xmlns="http://www.w3.org/2000/svg" data-name="Layer 1"><path d="m8.5 21.731c0 .552-.448 1-1 1s-1-.448-1-1 .448-1 1-1 1 .448 1 1zm3.5-.731c-.552 0-1 .448-1 1s.448 1 1 1 1-.448 1-1-.448-1-1-1zm4.5-.269c-.552 0-1 .448-1 1s.448 1 1 1 1-.448 1-1-.448-1-1-1zm-8.5-8.731c0-.552-.448-1-1-1s-1 .448-1 1 .448 1 1 1 1-.448 1-1zm9-1c-.552 0-1 .448-1 1s.448 1 1 1 1-.448 1-1-.448-1-1-1zm4 9c-.552 0-1 .448-1 1s.448 1 1 1 1-.448 1-1-.448-1-1-1zm-18 0c-.552 0-1 .448-1 1s.448 1 1 1 1-.448 1-1-.448-1-1-1zm18.731-4.5c-.552 0-1 .448-1 1s.448 1 1 1 1-.448 1-1-.448-1-1-1zm.269-4.5c-.552 0-1 .448-1 1s.448 1 1 1 1-.448 1-1-.448-1-1-1zm-1.269-3.5c0 .552.448 1 1 1s1-.448 1-1-.448-1-1-1-1 .448-1 1zm-8.731-1.5c-.552 0-1 .448-1 1s.448 1 1 1 1-.448 1-1-.448-1-1-1zm-8.731 10.5c0-.552-.448-1-1-1s-1 .448-1 1 .448 1 1 1 1-.448 1-1zm8.731-.5c-.552 0-1 .448-1 1s.448 1 1 1 1-.448 1-1-.448-1-1-1zm-10-3c.552 0 1-.448 1-1s-.448-1-1-1-1 .448-1 1 .448 1 1 1zm10-2c-.552 0-1 .448-1 1s.448 1 1 1 1-.448 1-1-.448-1-1-1zm-9.731-2.5c.552 0 1-.448 1-1s-.448-1-1-1-1 .448-1 1 .448 1 1 1zm.945-4.523c.044-.01 4.507-.977 8.786-.977s8.741.967 8.786.977c.526.12 1.075-.219 1.191-.762.119-.54-.223-1.073-.762-1.191-.19-.042-4.713-1.023-9.214-1.023s-9.025.98-9.215 1.022c-.54.118-.881.651-.762 1.191.118.54.652.881 1.191.762z"/></svg>