<svg id="Layer_1" viewBox="0 0 24 24" xmlns="http://www.w3.org/2000/svg" data-name="Layer 1"><path d="m2.269 17.5c-.552 0-1-.448-1-1s.448-1 1-1 1 .448 1 1-.448 1-1 1zm0-9c.552 0 1-.448 1-1s-.448-1-1-1-1 .448-1 1 .448 1 1 1zm9.731 7.5c-.552 0-1 .448-1 1s.448 1 1 1 1-.448 1-1-.448-1-1-1zm0-8c.552 0 1-.448 1-1s-.448-1-1-1-1 .448-1 1 .448 1 1 1zm-9-4c.552 0 1-.448 1-1s-.448-1-1-1-1 .448-1 1 .448 1 1 1zm0 16c-.552 0-1 .448-1 1s.448 1 1 1 1-.448 1-1-.448-1-1-1zm18.731-4.5c-.552 0-1 .448-1 1s.448 1 1 1 1-.448 1-1-.448-1-1-1zm-1-8c0 .552.448 1 1 1s1-.448 1-1-.448-1-1-1-1 .448-1 1zm.269-3.5c.552 0 1-.448 1-1s-.448-1-1-1-1 .448-1 1 .448 1 1 1zm0 16c-.552 0-1 .448-1 1s.448 1 1 1 1-.448 1-1-.448-1-1-1zm-13.5-16.731c.552 0 1-.448 1-1s-.448-1-1-1-1 .448-1 1 .448 1 1 1zm4.5-.269c.552 0 1-.448 1-1s-.448-1-1-1-1 .448-1 1 .448 1 1 1zm4.5.269c.552 0 1-.448 1-1s-.448-1-1-1-1 .448-1 1 .448 1 1 1zm-9 17.462c-.552 0-1 .448-1 1s.448 1 1 1 1-.448 1-1-.448-1-1-1zm4.5.269c-.552 0-1 .448-1 1s.448 1 1 1 1-.448 1-1-.448-1-1-1zm4.5-.269c-.552 0-1 .448-1 1s.448 1 1 1 1-.448 1-1-.448-1-1-1zm-14.5-7.731h20c.553 0 1-.448 1-1s-.447-1-1-1h-20c-.552 0-1 .448-1 1s.448 1 1 1z"/></svg>