<svg id="Layer_1" viewBox="0 0 24 24" xmlns="http://www.w3.org/2000/svg" data-name="Layer 1"><path d="m23.01 7.067c-.059.551-.564.944-1.103.882-5.902-.655-11.885-.654-17.785 0-.546.053-1.042-.333-1.102-.882-.061-.548.334-1.041.882-1.103 6.048-.671 12.178-.671 18.226 0 .548.061.943.555.882 1.103zm-18.999-2.606c6.096-1.331 12.246-1.523 18.007-1.498.552 0 .999-.447.999-.999s-.447-.999-.999-.999c-5.804 0-11.993.118-18.225 1.522-.538.121-.876.655-.755 1.194.105.464.517.779.973.779zm18.973 7.719v3.265c0 4.13-3.359 7.489-7.489 7.489h-6.99c-4.13 0-7.489-3.359-7.489-7.489v-3.265c0-.424.268-.802.667-.942.149-.053 3.731-1.285 10.316-1.285s10.168 1.233 10.317 1.285c.4.14.667.518.667.942zm-1.997.75c-1.277-.333-4.355-.98-8.987-.98s-7.709.647-8.987.98v2.515c0 3.028 2.464 5.492 5.492 5.492h6.99c3.028 0 5.492-2.464 5.492-5.492z"/></svg>