<svg id="Layer_1" viewBox="0 0 24 24" xmlns="http://www.w3.org/2000/svg" data-name="Layer 1"><path d="m22.996 9.41-.5-5.5c-.04-.434-.354-.792-.779-.886-.188-.042-4.669-1.024-9.716-1.024s-9.528.982-9.717 1.023c-.426.094-.74.453-.78.886l-.5 5.5c-.028.316.095.627.332.838.185.164.422.252.664.252h.001c-.001.44-.001.953-.001 1.5 0 4.666.998 8.135 1.04 8.28.098.333.361.593.696.684.154.042 3.838 1.036 8.266 1.036s8.106-.993 8.262-1.035c.336-.092.601-.353.697-.688.042-.147 1.039-3.651 1.039-8.277 0-.452 0-1.001-.002-1.501.242 0 .481-.088.666-.252.237-.211.36-.522.332-.838zm-10.995-5.41c3.681 0 7.127.563 8.57.834l.304 3.345c-.043.005-.085.012-.126.022-1.943-.416-5.119-1.005-8.748-1.005s-6.837.596-8.782 1.012c-.032-.006-.064-.011-.096-.015l.306-3.358c1.445-.271 4.898-.835 8.572-.835zm7.178 15.171c-1.162.266-3.999.829-7.177.829s-6.022-.563-7.183-.829c-.267-1.12-.819-3.843-.819-7.171 0-.519 0-1.305.003-1.913 1.887-.392 4.772-.891 7.998-.891s6.113.499 7.997.891c.002.584.002 1.331.002 1.914 0 3.304-.554 6.043-.821 7.171z"/><path d="m15.691 11.497c-.491-.255-1.094-.062-1.348.429-1.031 1.995-2.342 3.11-3.021 3.593-.535-.371-1.284-.964-1.748-1.597-.328-.445-.953-.542-1.397-.215-.446.327-.542.953-.216 1.398 1.021 1.392 2.779 2.421 2.854 2.464.155.089.328.135.502.135.154 0 .309-.036.45-.107.104-.053 2.585-1.332 4.354-4.752.253-.491.062-1.094-.43-1.348z"/></svg>