<svg id="Layer_1" viewBox="0 0 24 24" xmlns="http://www.w3.org/2000/svg" data-name="Layer 1"><path d="m22.361 3.886c-.077-.346-.331-.625-.667-.734-.145-.047-3.605-1.151-9.694-1.151s-9.55 1.103-9.694 1.15c-.336.109-.59.389-.667.734-.02.088-.48 2.191-.638 5.414-.043.582.495 1.104 1.074 1.042-.045.712-.075 1.431-.075 2.158 0 4.635.908 7.548.947 7.669.089.279.296.506.565.619.118.05 2.949 1.212 8.487 1.212s8.369-1.162 8.487-1.212c.27-.113.477-.34.565-.619.039-.121.947-3.034.947-7.669 0-.729-.03-1.45-.075-2.165.572.091 1.119-.465 1.074-1.035-.157-3.223-.618-5.326-.638-5.414zm-18.881 1.015c1.168-.292 4.133-.901 8.52-.901s7.352.609 8.52.901c.107.615.271 1.688.388 3.079-1.649-.418-4.658-.98-8.907-.98s-7.258.562-8.907.98c.116-1.392.28-2.464.388-3.079zm15.793 14.193c-.941.292-3.38.905-7.273.905s-6.334-.613-7.273-.905c-.237-.958-.727-3.324-.727-6.595 0-.919.049-1.825.125-2.714 1.592-.363 4.224-.786 7.875-.786s6.283.423 7.875.786c.076.889.125 1.795.125 2.714 0 3.271-.489 5.637-.727 6.595zm-7.273.905c-.553 0-1-.447-1-1v-.139c-.838-.271-1.526-.919-1.83-1.778-.185-.521.088-1.093.608-1.276.523-.184 1.094.088 1.276.608.124.35.457.585.828.585.483 0 .876-.394.876-.877 0-.427-.334-.844-.763-.854-1.453 0-2.635-1.182-2.635-2.635 0-1.1.679-2.043 1.639-2.436v-.198c0-.553.447-1 1-1s1 .447 1 1v.206c.363.15.694.374.96.673.368.412.332 1.045-.08 1.412-.412.366-1.045.332-1.412-.08-.121-.136-.289-.211-.472-.211-.35 0-.635.285-.635.635-.001.376.329.673.694.617 1.516.09 2.703 1.352 2.703 2.871 0 1.19-.726 2.214-1.759 2.651v.226c0 .553-.447 1-1 1z"/></svg>