<svg id="Layer_1" viewBox="0 0 24 24" xmlns="http://www.w3.org/2000/svg" data-name="Layer 1"><path d="m6.34 6.251c.19.167.425.249.66.249.278 0 .554-.115.751-.34.827-.94 1.903-1.842 2.573-2.371.28.25.637.578 1.023.953-.376.357-.749.726-1.074 1.071-.379.402-.36 1.035.042 1.414.193.182.44.272.686.272.266 0 .531-.105.728-.314.762-.809 1.843-1.786 2.518-2.381.42.351.996.851 1.554 1.4.394.386 1.026.38 1.415-.013.387-.395.381-1.027-.013-1.415-1.143-1.122-2.318-2.031-2.368-2.069-.373-.287-.898-.276-1.259.03-.031.026-.326.278-.749.652-.976-.955-1.78-1.627-1.818-1.659-.351-.293-.855-.311-1.225-.043-.085.061-2.093 1.513-3.533 3.151-.365.415-.324 1.046.091 1.411z"/><path d="m22.832 9.945-2-3c-.28-.419-.828-.565-1.279-.34l-7.553 3.776-7.553-3.776c-.451-.225-1-.08-1.279.34l-2 3c-.203.304-.224.695-.054 1.019.036.069.678 1.276 1.887 2.357v.179c-.001 4.182 1.047 5.875 1.167 6.055.097.145.229.262.385.34.533.267 5.273 2.605 7.447 2.605s6.914-2.339 7.448-2.605c.156-.078.288-.195.385-.34.12-.179 1.168-1.873 1.168-6.055v-.179c1.208-1.081 1.85-2.288 1.886-2.357.17-.324.149-.714-.054-1.019zm-3.174-1.156 1.153 1.73c-.399.579-1.177 1.537-2.264 2.089-1.252.637-2.532.819-3.153.871l-1.706-1.705zm-15.315 0 5.97 2.985-1.706 1.705c-.623-.052-1.901-.234-3.153-.871-1.087-.552-1.865-1.51-2.264-2.089zm.687 5.831c1.961.859 3.794.88 3.966.88h.01c.263-.002.515-.107.701-.293l1.293-1.293v6.425c-1.492-.381-3.765-1.36-5.263-2.09-.194-.435-.595-1.567-.707-3.629zm7.97 5.719v-6.425s1.293 1.293 1.293 1.293c.186.186.438.291.701.293h.01c.173 0 2.006-.021 3.966-.88-.112 2.072-.517 3.204-.705 3.628-1.498.731-3.773 1.711-5.266 2.091z"/></svg>