<svg id="Layer_1" viewBox="0 0 24 24" xmlns="http://www.w3.org/2000/svg" data-name="Layer 1"><path d="m1 15.255c0 3.108 1.214 5.451 1.265 5.549.146.278.416.472.726.522.17.027 4.228.674 9.009.674s8.839-.646 9.009-.674c.309-.05.576-.242.723-.518.052-.097 1.268-2.419 1.268-5.554s-1.214-5.451-1.265-5.549c-.146-.279-.416-.472-.726-.522-.037-.006-.749-.12-1.916-.253l.975-5.492c.067-.376-.086-.758-.396-.983s-.72-.253-1.057-.076c-.489.259-.841.602-1.151.904-.496.484-.761.717-1.354.717s-.858-.233-1.354-.717c-.556-.542-1.318-1.285-2.751-1.285s-2.196.743-2.752 1.285c-.497.484-.762.717-1.356.717s-.86-.233-1.357-.717c-.311-.303-.664-.646-1.155-.906-.336-.178-.747-.148-1.056.077-.308.225-.461.606-.395.982l.975 5.492c-1.168.133-1.88.248-1.917.254-.309.05-.576.242-.723.518-.052.097-1.268 2.419-1.268 5.554zm16.643-9.6-1.056 5.948c-.39.063-.935.141-1.587.21v-2.812c0-.552-.448-1-1-1s-1 .448-1 1v2.956c-.324.012-.659.019-1 .019s-.676-.007-1-.019v-3.956c0-.552-.448-1-1-1s-1 .448-1 1v3.812c-.651-.069-1.197-.147-1.587-.21l-1.056-5.95c.41.206.91.349 1.539.349 1.434 0 2.196-.742 2.752-1.284.497-.484.763-.717 1.357-.717s.858.233 1.354.717c.556.542 1.318 1.285 2.751 1.285.626 0 1.124-.142 1.532-.347zm-14.387 11.899h17.493c-.179.824-.415 1.475-.581 1.875-1.237.171-4.517.572-8.168.572s-6.923-.399-8.164-.571c-.165-.402-.401-1.057-.58-1.875zm-.256-2.299c0-1.904.532-3.451.833-4.173.336-.047.823-.11 1.425-.178l.308 1.736c.071.402.38.721.78.804.104.021 2.591.532 5.654.532s5.55-.51 5.654-.532c.4-.083.708-.402.78-.804l.308-1.736c.6.067 1.085.131 1.421.177.301.732.836 2.3.836 4.174 0 .101-.002.2-.005.299h-17.989c-.003-.099-.005-.198-.005-.299z"/></svg>