<svg id="Layer_1" viewBox="0 0 24 24" xmlns="http://www.w3.org/2000/svg" data-name="Layer 1"><path d="m22.832 8.445-1.986-2.978c-.094-.15-.229-.277-.399-.361-1.037-.519-6.319-3.105-8.447-3.105s-7.41 2.586-8.447 3.104c-.004.002-.279.158-.399.361l-1.986 2.978c-.203.304-.224.695-.054 1.019.036.069.678 1.276 1.887 2.357l-.002.179c0 4.133 1.018 6.909 1.062 7.025.092.246.276.446.515.557.533.248 5.265 2.418 7.424 2.418s6.887-2.148 7.419-2.394c.241-.111.428-.312.52-.561.044-.117 1.062-2.914 1.062-7.045v-.179c1.208-1.081 1.85-2.288 1.886-2.357.17-.324.149-.714-.054-1.019zm-3.175-1.156 1.153 1.73c-.398.579-1.176 1.537-2.264 2.089-1.252.637-2.531.819-3.153.871l-1.705-1.705zm-1.936-1.268-5.721 2.861-5.721-2.861c2.162-.987 4.741-2.021 5.721-2.021s3.559 1.034 5.721 2.021zm-14.532 2.998 1.153-1.73 5.969 2.985-1.705 1.705c-.623-.052-1.901-.234-3.153-.871-1.088-.552-1.865-1.51-2.264-2.089zm1.838 4.1c1.961.86 3.796.881 3.968.881h.011c.263-.002.515-.107.7-.293l1.293-1.293v7.437c-1.466-.346-3.682-1.227-5.187-1.903-.22-.732-.67-2.479-.786-4.83zm7.972 6.734v-7.439l1.293 1.293c.186.186.438.291.7.293h.011c.172 0 2.007-.021 3.968-.881-.115 2.354-.566 4.112-.787 4.851-1.505.67-3.72 1.542-5.186 1.884z"/></svg>