<?xml version="1.0" encoding="UTF-8"?>
<svg xmlns="http://www.w3.org/2000/svg" id="Layer_1" data-name="Layer 1" viewBox="0 0 24 24">
  <path d="M22.991,9.152l-.631-5.26c-.05-.416-.354-.757-.762-.854-.184-.043-4.546-1.065-9.6-1.065S2.588,2.995,2.404,3.038c-.407,.097-.711,.437-.762,.852l-.637,5.211c-.04,.32,.078,.64,.316,.858,.171,.157,.388,.246,.613,.26-.034,.602-.052,1.197-.052,1.78,0,4.688,1.049,8.139,1.094,8.284,.1,.325,.358,.577,.687,.668,.157,.044,3.905,1.075,8.336,1.075s8.178-1.031,8.336-1.075c.328-.091,.588-.345,.688-.671,.045-.146,1.093-3.633,1.093-8.281,0-.573-.017-1.152-.048-1.732,.222-.016,.436-.105,.605-.259,.238-.218,.356-.537,.318-.857ZM3.541,4.841c1.396-.279,4.778-.868,8.458-.868s7.064,.588,8.46,.868l.382,3.181c-3.706-.684-6.809-.837-8.842-.837-3.653,0-6.878,.446-8.842,.795l.384-3.138Zm15.714,14.32c-1.167,.274-4.059,.866-7.255,.866s-6.094-.593-7.257-.866c-.277-1.101-.859-3.804-.859-7.161,0-.695,.027-1.409,.079-2.131,1.905-.32,4.794-.685,8.037-.685,1.868,0,4.679,.136,8.043,.726,.049,.699,.074,1.399,.074,2.09,0,3.319-.584,6.049-.861,7.161Z"/>
  <path d="M13.916,11.567h-3.831c-.553,0-1,.448-1,1s.447,1,1,1h3.831c.553,0,1-.448,1-1s-.447-1-1-1Z"/>
</svg>
