<svg id="Layer_1" viewBox="0 0 24 24" xmlns="http://www.w3.org/2000/svg" data-name="Layer 1"><path d="m11 8h2c.552 0 1-.448 1-1s-.448-1-1-1h-2c-.552 0-1 .448-1 1s.448 1 1 1z"/><path d="m8 14h-2c-.552 0-1 .448-1 1s.448 1 1 1h2c.552 0 1-.448 1-1s-.448-1-1-1z"/><path d="m22.378 11.575c-.103-.325-.362-.575-.69-.664-.078-.021-1.704-.459-3.778-.567.094-.686.169-1.517.169-2.426 0-2.625-.604-4.571-.63-4.652-.102-.324-.362-.575-.69-.664-.09-.024-2.233-.601-4.759-.601s-4.668.577-4.758.601c-.329.089-.59.341-.692.667-.026.083-.629 2.047-.629 4.649 0 .912.074 1.742.168 2.426-2.069.109-3.697.546-3.775.567-.33.089-.591.341-.692.667-.025.081-.621 2.018-.621 4.582 0 2.586.596 4.504.622 4.584.103.325.362.575.69.664.089.024 2.2.592 4.688.592 2.043 0 4.216-.37 4.947-.507.588.109 2.89.507 5.053.507 2.482 0 4.598-.567 4.687-.592.33-.089.591-.341.692-.667.025-.081.621-2.018.621-4.582 0-2.586-.596-4.504-.622-4.584zm-14.058-7.173c.743-.157 2.148-.402 3.68-.402s2.94.246 3.682.403c.159.683.397 1.963.397 3.515 0 .937-.09 1.781-.192 2.438-1.665.104-3.227.402-3.841.529-.524-.108-2.171-.425-3.936-.531-.102-.655-.19-1.497-.19-2.437 0-1.53.24-2.824.4-3.515zm-4.93 15.204c-.157-.678-.39-1.939-.39-3.447 0-1.498.234-2.765.391-3.447.733-.155 2.109-.394 3.609-.394 1.477 0 3.075.239 4 .403v6.906c-.929.152-2.523.372-4 .372-1.503 0-2.878-.239-3.61-.394zm17.219 0c-.733.155-2.109.394-3.609.394-1.475 0-3.068-.21-4-.357v-6.906c.922-.17 2.521-.418 4-.418 1.503 0 2.878.239 3.61.394.157.678.39 1.939.39 3.447 0 1.498-.234 2.765-.391 3.447z"/><path d="m18 14h-2c-.552 0-1 .448-1 1s.448 1 1 1h2c.552 0 1-.448 1-1s-.448-1-1-1z"/></svg>