<svg id="Layer_1" viewBox="0 0 24 24" xmlns="http://www.w3.org/2000/svg" data-name="Layer 1"><path d="m22.842 12.539c-.515.805-1.168 1.531-1.945 2.164-.255 3.551-.89 6.614-.918 6.749-.072.346-.322.628-.657.742-.059.02-1.467.49-4.209.8-.539.062-1.047-.33-1.106-.882-.062-.549.333-1.044.882-1.106 1.563-.176 2.65-.406 3.248-.556.205-1.109.629-3.634.795-6.323.019-.295.166-.566.403-.742.556-.411 1.038-.875 1.439-1.385-.401-.51-.884-.974-1.439-1.385-.237-.176-.385-.447-.403-.742-.166-2.69-.59-5.214-.795-6.323-.598-.149-1.684-.38-3.248-.556-.549-.062-.943-.558-.882-1.106s.551-.938 1.106-.882c2.742.31 4.15.78 4.209.8.335.114.585.396.657.742.028.135.663 3.198.918 6.749.777.633 1.431 1.359 1.945 2.164.211.328.211.75 0 1.078z"/><path d="m1.158 11.461c.515-.805 1.168-1.531 1.945-2.164.255-3.551.89-6.614.918-6.749.072-.346.322-.628.657-.742.059-.02 1.467-.49 4.209-.8.556-.056 1.045.333 1.106.882s-.333 1.044-.882 1.106c-1.564.176-2.65.406-3.248.556-.205 1.109-.629 3.633-.795 6.323-.019.295-.166.566-.403.742-.556.411-1.038.875-1.439 1.385.401.51.884.974 1.439 1.385.237.176.385.447.403.742.166 2.689.59 5.214.795 6.323.598.149 1.685.38 3.248.556.549.063.943.558.882 1.106-.06.551-.567.944-1.106.882-2.742-.31-4.15-.78-4.209-.8-.335-.114-.585-.396-.657-.742-.028-.135-.663-3.198-.918-6.749-.777-.633-1.431-1.359-1.945-2.164-.211-.328-.211-.75 0-1.078z"/></svg>