<svg id="Layer_1" viewBox="0 0 24 24" xmlns="http://www.w3.org/2000/svg" data-name="Layer 1"><path d="m3 12.007c0 4.984 1.073 7.796 3.481 9.116.483.266.661.874.396 1.358-.268.488-.882.658-1.358.396-3.083-1.691-4.519-5.146-4.519-10.87s1.444-9.2 4.547-10.885c.484-.264 1.093-.084 1.356.401s.084 1.092-.401 1.356c-2.422 1.316-3.502 4.132-3.502 9.128zm15.453-10.885c-.484-.264-1.093-.084-1.356.401s-.084 1.092.401 1.356c2.422 1.316 3.502 4.132 3.502 9.128s-1.073 7.796-3.481 9.116c-.483.266-.661.874-.396 1.358.268.489.882.657 1.358.396 3.083-1.691 4.519-5.146 4.519-10.87s-1.444-9.2-4.547-10.885z"/></svg>