<?xml version="1.0" encoding="UTF-8"?>
<svg xmlns="http://www.w3.org/2000/svg" id="Layer_1" data-name="Layer 1" viewBox="0 0 24 24">
  <path d="M23,13.087c-.03-1.409-.425-2.537-1.177-3.362,.06-.296,.093-.616,.1-.962-.043-2.049-1.038-3.045-2.064-3.526-.233-1.429-1.17-3.22-4.4-3.236-1.73,.009-2.802,.528-3.459,1.231-.659-.703-1.733-1.223-3.467-1.231-3.221,.016-4.157,1.808-4.39,3.236-1.027,.483-2.021,1.485-2.064,3.567,.007,.323,.04,.631,.099,.922-.751,.827-1.146,1.96-1.176,3.403,.044,2.223,1.049,3.425,2.092,4.075-.008,.118-.013,.24-.016,.368,.056,2.797,1.862,4.411,4.967,4.429,1.783-.01,3.122-.522,3.955-1.487,.835,.964,2.177,1.477,3.969,1.487,3.094-.018,4.9-1.632,4.956-4.469-.002-.111-.007-.22-.015-.328,1.043-.651,2.047-1.859,2.091-4.115Zm-14.956,6.913c-2.587-.015-2.945-1.327-2.968-2.428,.005-.263,.031-.508,.077-.729,.097-.468-.151-.939-.592-1.125-1.038-.436-1.534-1.271-1.561-2.588,.023-1.085,.323-1.838,.919-2.301,.35-.272,.479-.741,.318-1.153-.099-.254-.153-.561-.16-.871,.028-1.354,.659-1.715,1.272-1.891,.418-.119,.711-.494,.725-.929,.039-1.185,.473-1.975,2.457-1.985,2.008,.01,2.44,.817,2.468,2.026v11.504c-.024,1.213-.396,2.455-2.956,2.469Zm11.395-4.282c-.441,.185-.689,.656-.592,1.125,.046,.221,.072,.467,.077,.689-.022,1.142-.38,2.454-2.957,2.469-2.571-.014-2.943-1.256-2.967-2.449V6.026c.028-1.209,.46-2.016,2.458-2.026,1.994,.01,2.428,.801,2.467,1.985,.014,.435,.307,.81,.725,.929,.613,.175,1.244,.537,1.272,1.85-.007,.352-.061,.658-.16,.912-.161,.412-.032,.881,.318,1.153,.596,.463,.896,1.216,.919,2.26-.027,1.358-.523,2.193-1.561,2.629Z"/>
</svg>
