<svg id="Layer_1" viewBox="0 0 24 24" xmlns="http://www.w3.org/2000/svg" data-name="Layer 1"><path d="m12 7c-3.411 0-5 1.589-5 5s1.589 5 5 5 5-1.589 5-5-1.589-5-5-5zm0 8c-2.299 0-3-.701-3-3s.701-3 3-3 3 .701 3 3-.701 3-3 3zm-1-12c0-.552.448-1 1-1s1 .448 1 1-.448 1-1 1-1-.448-1-1zm2 18c0 .552-.448 1-1 1s-1-.448-1-1 .448-1 1-1 1 .448 1 1zm-9-9c0 .552-.448 1-1 1s-1-.448-1-1 .448-1 1-1 1 .448 1 1zm18 0c0 .552-.448 1-1 1s-1-.448-1-1 .448-1 1-1 1 .448 1 1zm-2.5-6.5c0 .552-.448 1-1 1s-1-.448-1-1 .448-1 1-1 1 .448 1 1zm-13 13c0 .552-.448 1-1 1s-1-.448-1-1 .448-1 1-1 1 .448 1 1zm0-13c0 .552-.448 1-1 1s-1-.448-1-1 .448-1 1-1 1 .448 1 1zm13 13c0 .552-.448 1-1 1s-1-.448-1-1 .448-1 1-1 1 .448 1 1z"/></svg>