<svg id="Layer_1" viewBox="0 0 24 24" xmlns="http://www.w3.org/2000/svg" data-name="Layer 1"><path d="m20 17c-2.61 0-3 1.879-3 3 0 1.369.521 3 3 3s3-1.631 3-3-.521-3-3-3zm0 4c-.797 0-1-.098-1-1 0-.882.201-1 1-1 .811 0 1 .092 1 1 0 .902-.203 1-1 1z"/><path d="m14.929 10.485 7.778-7.778c.391-.391.391-1.023 0-1.414s-1.023-.391-1.414 0l-7.778 7.778c-1.657-1.461-2.69-1.683-2.901-1.714-.303-.043-.613.053-.836.266 0 0-.515.491-1.181 1.157-.594.594-.952 1.342-1.116 1.746-3.329-.141-5.94 2.507-6.415 6.575-.279 2.386.419 4.636.449 4.731.098.311.342.555.653.653.079.025 1.658.515 3.564.515.379 0 .771-.02 1.167-.066 4.069-.476 6.721-3.091 6.576-6.416.404-.165 1.155-.525 1.745-1.116.672-.672 1.157-1.181 1.157-1.181.212-.223.311-.531.266-.835-.031-.211-.252-1.244-1.714-2.901zm-8.262 10.463c-1.339.158-2.671-.074-3.378-.236-.162-.707-.393-2.038-.236-3.378.303-2.586 1.835-5.077 4.578-4.793.306.031.609.095.9.191l2.737 2.737c.096.293.161.595.191.901.278 2.742-2.207 4.275-4.793 4.578zm7.14-6.959c-.199.199-.46.367-.697.494l-3.592-3.592c.121-.229.287-.489.494-.696.264-.265.504-.5.696-.688.421.218 1.145.686 2.122 1.664.983.983 1.451 1.709 1.666 2.12-.187.191-.422.431-.689.698z"/></svg>