<?xml version="1.0" encoding="UTF-8"?>
<svg xmlns="http://www.w3.org/2000/svg" id="Layer_1" data-name="Layer 1" viewBox="0 0 24 24">
  <path d="M21.798,3.633c-.108-.321-.372-.566-.7-.65-.172-.044-4.262-1.077-9.098-1.077S3.075,2.938,2.903,2.982c-.33,.084-.595,.33-.702,.653-.049,.147-1.201,3.671-1.201,8.364,0,4.734,1.153,8.222,1.202,8.367,.108,.321,.372,.566,.7,.65,.172,.044,4.262,1.077,9.098,1.077s8.925-1.033,9.097-1.077c.33-.084,.595-.33,.702-.653,.049-.147,1.201-3.671,1.201-8.364,0-4.734-1.153-8.222-1.202-8.367ZM3.945,4.794c1.247-.272,4.47-.889,8.055-.889s6.812,.617,8.057,.889c.179,.651,.477,1.871,.69,3.461H3.257c.213-1.581,.51-2.806,.689-3.461Zm16.109,14.412c-1.247,.272-4.47,.889-8.055,.889s-6.812-.617-8.057-.889c-.303-1.099-.943-3.821-.943-7.206,0-.603,.021-1.187,.057-1.745H20.944c.035,.557,.056,1.14,.056,1.745,0,3.345-.643,6.096-.945,7.206Z"/>
  <path d="M16.952,12.149H7.048c-.553,0-1,.447-1,1s.447,1,1,1h9.904c.553,0,1-.447,1-1s-.447-1-1-1Z"/>
  <path d="M12.979,15.691H7.048c-.553,0-1,.447-1,1s.447,1,1,1h5.931c.553,0,1-.447,1-1s-.447-1-1-1Z"/>
  <circle cx="6.31" cy="6.252" r="1"/>
  <circle cx="9.645" cy="6.252" r="1"/>
  <circle cx="12.979" cy="6.252" r="1"/>
</svg>
