<svg id="Layer_1" viewBox="0 0 24 24" xmlns="http://www.w3.org/2000/svg" data-name="Layer 1"><path d="m8.959 13.302c.294-.346.604-.771.91-1.306.261-.456.124-1.037-.313-1.328-.103-.068-1.046-.668-2.555-.668s-2.452.6-2.555.668c-.437.291-.574.872-.313 1.328.306.535.616.96.91 1.306-1.369.432-2.494 1.325-3.249 2.637-.748 1.302-.977 2.744-.645 4.061.667 2.643 3.332 2.999 5.852 2.999s5.184-.356 5.852-2.999c.332-1.318.103-2.76-.645-4.061-.754-1.312-1.879-2.204-3.248-2.637zm1.954 6.209c-.141.557-.375 1.489-3.913 1.489s-3.772-.932-3.913-1.489c-.205-.812-.049-1.727.439-2.575.739-1.285 1.908-1.936 3.474-1.936s2.735.651 3.473 1.936c.488.849.644 1.764.439 2.575zm11.033-16.95c-1.393-1.08-3.82-1.561-7.868-1.561-2.692 0-6.194.387-8.33 1.162-1.199.435-1.804 1.464-2.016 2.371-.228.797-.418 1.964-.549 3.375-.058.582.411 1.095.997 1.092.511 0 .947-.389.995-.908.118-1.27.297-2.336.48-3.01.217-.797.46-1.016 1.321-1.082.878 0 1 .122 1 1 0 .57-.125 1.397-.179 1.75-.073.337.01.696.255.945.253.271.631.351.985.281 1.703-.195 4.034-.462 6.445-.476.774-.006 1.526.021 2.241.063-.141 1.364-.221 2.905-.221 4.437 0 2.742.433 5.898.855 8.329-.856.179-2.096.404-3.456.541-.549.056-.95.546-.895 1.096.054.551.555.951 1.096.895 2.037-.206 3.784-.586 4.644-.794.517-.125.845-.633.748-1.155-.453-2.431-.993-5.95-.993-8.911 0-1.48.078-2.965.214-4.27.802.087 1.483.183 1.963.258.53.082 1.025-.262 1.134-.783.007-.037.188-.914.188-2.07 0-.452 0-1.827-1.054-2.574zm-.974 3.305c-1.336-.176-3.259-.366-5.317-.366-2.044 0-4.099.185-5.727.363.028-.29.048-.589.048-.863 0-.677-.117-1.24-.349-1.689 1.472-.206 3.082-.311 4.451-.311 3.479 0 5.652.374 6.678 1.167.203.144.245.605.245.968 0 .265-.012.512-.028.731z"/></svg>