<svg id="Layer_1" viewBox="0 0 24 24" xmlns="http://www.w3.org/2000/svg" data-name="Layer 1"><path d="m17 8c.256 0 .512-.098.707-.293l.924-.924c.389.141.842.217 1.369.217 1.99 0 3-1.009 3-3s-1.01-3-3-3-3 1.009-3 3c0 .527.076.98.217 1.369l-.924.924c-.391.391-.391 1.023 0 1.414.195.195.451.293.707.293zm3-5c.879 0 1 .122 1 1s-.121 1-1 1-1-.122-1-1 .121-1 1-1zm0 14c-.527 0-.98.076-1.369.217l-.924-.924c-.391-.391-1.023-.391-1.414 0s-.391 1.023 0 1.414l.924.924c-.141.389-.217.842-.217 1.369 0 1.991 1.01 3 3 3s3-1.009 3-3-1.01-3-3-3zm0 4c-.879 0-1-.122-1-1s.121-1 1-1 1 .122 1 1-.121 1-1 1zm-4.859-7.102c0 1.381-.902 2.542-2.141 2.956v.172c0 .552-.447 1-1 1s-1-.448-1-1v-.167c-.956-.314-1.752-1.051-2.085-2.003-.182-.521.093-1.092.614-1.274.522-.181 1.092.093 1.274.614.165.473.69.83 1.222.83.615 0 1.115-.506 1.115-1.128.005-.694-.62-1.203-1.296-1.124-1.517-.091-2.704-1.352-2.704-2.872 0-1.231.782-2.276 1.872-2.685v-.191c0-.552.447-1 1-1s1 .448 1 1v.185c.785.291 1.427.913 1.717 1.732.185.521-.088 1.092-.609 1.276-.518.186-1.092-.089-1.275-.609-.124-.35-.456-.584-.827-.584-.483 0-.877.393-.877.876 0 .448.338.822.777.872.003 0 .041-.003.044-.002 1.777 0 3.179 1.402 3.179 3.126zm-8.358-8.529c.141-.389.217-.842.217-1.369 0-1.991-1.01-3-3-3s-3 1.009-3 3 1.01 3 3 3c.527 0 .98-.076 1.369-.217l.924.924c.391.391 1.023.391 1.414 0s.391-1.023 0-1.414zm-2.783-.369c-.879 0-1-.122-1-1s.121-1 1-1 1 .122 1 1-.121 1-1 1zm2.293 11.293-.924.924c-.389-.141-.842-.217-1.369-.217-1.99 0-3 1.009-3 3s1.01 3 3 3 3-1.009 3-3c0-.527-.076-.98-.217-1.369l.924-.924c.391-.391.391-1.023 0-1.414s-1.023-.391-1.414 0zm-2.293 4.707c-.879 0-1-.122-1-1s.121-1 1-1 1 .122 1 1-.121 1-1 1z"/></svg>