<svg id="Layer_1" viewBox="0 0 24 24" xmlns="http://www.w3.org/2000/svg" data-name="Layer 1"><path d="m21.594 16.774c-.034-.007-.725-.15-1.786-.316.129-.732.192-1.548.192-2.459 0-.318-.01-.655-.029-1h2.029c.553 0 1-.448 1-1s-.447-1-1-1h-2.31c-.274-1.155-.784-2.284-1.725-3.173 2.096-.242 3.577-.589 3.656-.607.334-.08.604-.326.715-.651.016-.048.404-1.21.658-3.456.062-.549-.333-1.044-.882-1.106-.554-.063-1.045.333-1.106.881-.132 1.175-.303 2.014-.421 2.508-.718.143-2.055.38-3.653.528-.32-2.665-1.906-3.924-4.932-3.924-2.935 0-4.513 1.185-4.899 3.687l-4.394-4.393c-.391-.391-1.023-.391-1.414 0s-.391 1.023 0 1.414l20 20c.287.288.72.371 1.09.217.374-.155.617-.52.617-.924 0-2.109-.62-4.412-.646-4.509-.099-.362-.393-.639-.76-.716zm-12.594-9.774c0-2.299.701-3 3-3s3 .701 3 3c0 .177-.034.601-.034.601-.032.42.203.816.589.988 1.209.542 2.445 1.608 2.445 5.411 0 .916-.079 1.69-.221 2.364l-8.747-8.746c.004-.009-.032-.441-.032-.618zm6.966 13.408c.143.534-.174 1.082-.708 1.225-.925.247-1.99.367-3.258.367-3.759 0-6.1-1.143-7.216-3.608-.557.084-1.031.164-1.372.227-.119.496-.287 1.33-.418 2.494-.06.551-.567.945-1.106.881-.549-.062-.943-.557-.881-1.106.254-2.246.641-3.407.657-3.455.114-.335.396-.585.742-.658.034-.007.731-.151 1.801-.318-.134-.742-.207-1.554-.207-2.456 0-.349.011-.68.03-1h-2.03c-.552 0-1-.448-1-1s.448-1 1-1h2.311c.02-.085.036-.176.058-.259.143-.533.693-.852 1.225-.707.534.143.85.691.707 1.225-.202.755-.301 1.652-.301 2.741 0 4.43 1.57 6 6 6 1.091 0 1.987-.098 2.742-.3.526-.139 1.082.174 1.224.708z"/></svg>