<svg id="Layer_1" viewBox="0 0 24 24" xmlns="http://www.w3.org/2000/svg" data-name="Layer 1"><path d="m16.99 13.02c-.093 4.585-.756 8.289-.783 8.444-.073.401-.382.717-.78.801-.144.03-3.557.735-6.427.735s-6.283-.706-6.427-.735c-.398-.083-.707-.4-.78-.8-.032-.179-.793-4.432-.793-9.464 0-4.322.568-8.106.743-9.164.089-.545.595-.912 1.149-.824.545.09.913.604.823 1.149-.168 1.019-.716 4.668-.716 8.837 0 3.708.441 7.052.652 8.435 1.112.2 3.406.565 5.348.565s4.235-.365 5.348-.565c.192-1.261.576-4.149.643-7.455.011-.552.462-.958 1.021-.98.552.011.99.468.979 1.02zm-10.99.98h1c.553 0 1-.448 1-1s-.447-1-1-1h-1c-.553 0-1 .448-1 1s.447 1 1 1zm6-2h-1c-.553 0-1 .448-1 1s.447 1 1 1h1c.553 0 1-.448 1-1s-.447-1-1-1zm-6 6h1c.553 0 1-.448 1-1s-.447-1-1-1h-1c-.553 0-1 .448-1 1s.447 1 1 1zm6-2h-1c-.553 0-1 .448-1 1s.447 1 1 1h1c.553 0 1-.448 1-1s-.447-1-1-1zm-5.628-6.012c.546-.085.919-.596.835-1.142-.002-.011-.153-1.004-.195-2.54l1.354 3.095c.16.367.522.599.916.599.488.002.915-.363.988-.846.009-.06.23-1.501.23-3.654s-.222-3.594-.23-3.654c-.085-.544-.594-.912-1.142-.833-.546.085-.919.596-.835 1.142.002.011.153 1.004.195 2.54l-1.354-3.095c-.178-.406-.601-.646-1.044-.591-.441.057-.791.398-.86.837-.009.06-.23 1.501-.23 3.654s.222 3.594.23 3.654c.086.545.596.918 1.142.833zm16.628-5.655v2.333c0 2.212-.925 3.333-2.75 3.333s-2.75-1.122-2.75-3.333v-2.333c0-2.212.925-3.333 2.75-3.333s2.75 1.122 2.75 3.333zm-2 0c0-1.333-.267-1.333-.75-1.333s-.75 0-.75 1.333v2.333c0 1.333.267 1.333.75 1.333s.75 0 .75-1.333zm-5 .667h-1c-.553 0-1 .448-1 1 0 .546.438.991.982 1-.078 1-.41 1-.732 1-.483 0-.75 0-.75-1.333v-2.333c0-1.333.267-1.333.75-1.333.521 0 .565.128.632.323.18.522.751.799 1.27.623.522-.179.802-.747.623-1.27-.262-.764-.912-1.676-2.524-1.676-1.825 0-2.75 1.122-2.75 3.333v2.333c0 2.212.925 3.333 2.75 3.333 1.255 0 2.75-.607 2.75-3.5v-.5c0-.552-.447-1-1-1z"/></svg>