<svg id="Layer_1" viewBox="0 0 24 24" xmlns="http://www.w3.org/2000/svg" data-name="Layer 1"><path d="m11.857 18.138c-.634-.091-1.352-.138-2.135-.138-4.145 0-6.099 1.22-6.745 4.211-.114.544-.662.884-1.188.767-.54-.116-.883-.648-.767-1.188.853-3.949 3.617-5.789 8.7-5.789.878 0 1.692.054 2.421.159.546.078.925.586.847 1.133-.079.547-.591.936-1.133.846zm-9.121-10.802c.087-.521.57-.873 1.082-.82.379-2.8 1.955-4.202 4.905-4.455v-.06c0-.553.448-1 1-1s1 .447 1 1v.06c2.95.253 4.526 1.655 4.905 4.455.516-.055.996.299 1.082.82.101.62-.364 1.139-.986 1.177v.487c0 4.149-1.851 6-6 6s-6-1.851-6-6v-.487c-.623-.037-1.087-.557-.986-1.177zm10.987 1.434c-1.121.119-2.552.23-4 .23s-2.879-.111-4-.23v.23c0 3.028.972 4 4 4s4-.972 4-4zm-7.919-2.004c1.088.118 2.508.234 3.918.234s2.832-.116 3.919-.234c-.235-1.763-1.065-2.539-2.919-2.72v.954c0 .553-.448 1-1 1s-1-.447-1-1v-.954c-1.854.181-2.684.958-2.918 2.72zm16.628 13.348c-.028-.005-.704-.114-1.932-.114s-1.903.109-1.932.114c-.162.026-.301.132-.371.281-.02.043-.197.441-.197 1.104 0 .64.174 1.05.193 1.095.068.154.209.264.375.291.028.005.704.114 1.932.114s1.903-.109 1.932-.114c.166-.027.307-.137.375-.291.02-.045.193-.455.193-1.095s-.174-1.05-.193-1.095c-.068-.154-.209-.264-.375-.291zm-6 0c-.028-.005-.704-.114-1.932-.114s-1.903.109-1.932.114c-.163.026-.302.132-.372.282-.02.043-.197.44-.197 1.104 0 .64.173 1.05.192 1.095.068.154.209.264.376.291.028.005.704.114 1.932.114s1.903-.109 1.932-.114c.166-.027.307-.137.375-.291.02-.045.193-.455.193-1.095s-.174-1.05-.193-1.095c-.068-.154-.209-.264-.375-.291zm3.375-1.52c.02-.045.193-.455.193-1.095s-.174-1.05-.193-1.095c-.068-.154-.209-.264-.375-.291-.028-.005-.704-.114-1.932-.114s-1.903.109-1.932.114c-.162.026-.301.132-.371.281-.02.043-.197.441-.197 1.104 0 .64.174 1.05.193 1.095.068.154.209.264.375.291.028.005.704.114 1.932.114s1.903-.109 1.932-.114c.166-.027.307-.137.375-.291zm-1.238-3.709c.028.005.704.114 1.932.114s1.903-.109 1.932-.114c.166-.027.307-.137.375-.291.02-.045.193-.455.193-1.095s-.174-1.05-.193-1.095c-.068-.154-.209-.264-.375-.291-.028-.005-.704-.114-1.932-.114s-1.903.109-1.932.114c-.162.026-.301.132-.371.281-.02.043-.197.441-.197 1.104 0 .64.174 1.05.193 1.095.068.154.209.264.375.291zm3.902 1.143c-.585.034-.899.086-.899.086-.163.026-.304.132-.374.281-.02.043-.197.441-.197 1.104 0 .64.174 1.05.193 1.095.068.154.211.265.378.291 0 0 .314.052.899.086.278.023.536-.22.529-.499v-1.945c.006-.279-.251-.522-.529-.499z"/></svg>