<svg id="Layer_1" viewBox="0 0 24 24" xmlns="http://www.w3.org/2000/svg" data-name="Layer 1"><path d="m9.33 10.982c.472.092.961-.178 1.127-.642.019-.053.419-1.183.52-3.341h2.67c.247.698.825 1 1.853 1h4.5c1.429 0 2-.571 2-2s-.571-2-2-2h-4.5c-1.028 0-1.606.302-1.853 1h-2.67c-.101-2.158-.501-3.288-.52-3.341-.167-.462-.649-.73-1.127-.642-.067.013-1.678.329-4.293 1.723-2.461 1.312-3.555 2.36-3.749 2.557-.384.39-.384 1.016 0 1.405.194.197 1.288 1.245 3.749 2.557 2.615 1.394 4.226 1.71 4.293 1.723zm-3.352-6.477c1.207-.644 2.166-1.029 2.809-1.252.106.613.213 1.53.213 2.747s-.106 2.134-.213 2.747c-.644-.223-1.602-.609-2.809-1.252-1.101-.586-1.888-1.107-2.414-1.495.526-.387 1.313-.908 2.414-1.495zm16.022 6.495h-9c-.553 0-1 .448-1 1v4h-9.659c-.287 0-.56.123-.75.338-.189.215-.278.501-.242.786.292 2.336.659 4.02.675 4.09.083.381.381.679.762.762.19.042 4.714 1.023 9.215 1.023s9.025-.981 9.215-1.023c.381-.083.679-.381.762-.762.042-.19 1.023-4.713 1.023-9.214 0-.552-.447-1-1-1zm-18.514 7h3.514v2.648c-1.357-.174-2.491-.372-3.151-.498-.094-.492-.229-1.242-.362-2.15zm5.514 2.859v-2.86h6v2.86c-.972.083-1.988.14-3 .14s-2.028-.058-3-.14zm11.15-.709c-.66.126-1.793.324-3.15.497v-2.648h3.513c-.134.911-.269 1.66-.362 2.151zm.618-4.15h-6.768v-3h6.983c-.033 1.032-.114 2.053-.216 3z"/></svg>