<svg id="Layer_1" viewBox="0 0 24 24" xmlns="http://www.w3.org/2000/svg" data-name="Layer 1"><path d="m23 9.5c0-2.214-1.083-3.375-3.195-3.479-.299-2.683-.848-4.174-.931-4.385-.165-.433-.638-.709-1.097-.628-.249.041-.472.173-.626.371-.458.5-3.32 2.949-5.973 2.656-2.606-.287-6.025-.027-7.464.383-1.447.413-2.506 1.717-2.635 3.245-.047.559-.075 1.038-.078 1.842.003.796.031 1.276.078 1.834.1 1.188.766 2.233 1.735 2.837l.406 1.416c.587 2.046 1.408 4.107 2.252 5.655.582 1.065 1.689 1.753 2.823 1.753 1.922.03 3.274-1.929 2.882-3.803-.244-1.27-.66-2.694-1.195-4.142.41-.02.813-.047 1.197-.089 2.648-.295 5.515 2.156 5.973 2.656.186.24.483.385.788.384.404.006.791-.263.936-.642.083-.21.631-1.701.931-4.385 2.112-.105 3.195-1.265 3.195-3.479zm-19.929-1.67c.06-.705.538-1.303 1.191-1.49.63-.179 1.957-.344 3.436-.402.131.664.302 1.853.302 3.562s-.171 2.9-.302 3.562c-1.479-.058-2.807-.223-3.436-.403-.653-.186-1.131-.785-1.191-1.49-.043-.507-.068-.944-.071-1.666.003-.729.028-1.166.071-1.674zm5.768 12.973c-.482.393-1.262.128-1.612-.515-.801-1.465-1.594-3.489-2.139-5.438.799.111 1.763.189 2.765.22.607 1.533 1.103 3.153 1.359 4.503.091.476-.058.97-.373 1.229zm8.577-5.582c-1.326-1.019-3.469-2.28-5.784-2.28-.636.006-1.248.11-1.901.122.136-.805.269-1.994.269-3.563s-.133-2.758-.269-3.563c.419.017.834.042 1.229.085 2.572.281 5.003-1.126 6.456-2.243.27 1.181.575 3.095.584 5.717-.009 2.629-.315 4.547-.583 5.725zm2.542-4.241c.022-.473.04-.959.042-1.484-.002-.522-.02-1.006-.041-1.477.84.076 1.041.42 1.041 1.481s-.201 1.405-1.042 1.481z"/></svg>