<svg id="Layer_1" viewBox="0 0 24 24" xmlns="http://www.w3.org/2000/svg" data-name="Layer 1"><path d="m22.973 15.928c-.126-2.352-1.89-4.321-4.194-4.684-.652-.102-1.344-.161-2.045-.198.146-1.403.248-2.765.267-4.031.039-2.689-.228-4.107-.238-4.166-.063-.329-.287-.604-.596-.733-.108-.046-2.708-1.115-7.166-1.115s-7.059 1.068-7.167 1.114c-.309.129-.532.404-.596.733-.011.059-.277 1.477-.238 4.166.024 1.707.167 3.555.423 5.491.747 5.655 2.025 8.698 2.273 9.251.112.249.32.44.577.532.469.167 2.195.711 4.727.711 1.002-.041 2.03 0 2.948-.316 1.119.194 2.298.316 3.552.316 1.516 0 2.949-.144 4.263-.427 1.623-.352 2.861-1.711 3.081-3.382.157-1.161.186-2.186.129-3.264zm-2.003.072h-10.94c.091-1.421 1.114-2.562 2.502-2.779 1.842-.294 4.094-.294 5.936 0 1.388.217 2.411 1.359 2.502 2.779zm-11.97-13c2.928 0 4.971.504 5.873.781.051.46.111 1.208.126 2.219h-11.998c.015-1.013.075-1.761.127-2.221.896-.277 2.922-.779 5.872-.779zm-5.595 9.244c-.196-1.488-.303-2.896-.358-4.244h11.907c-.04.971-.115 1.98-.228 3.029-.859.029-1.71.09-2.504.215-2.305.362-4.068 2.332-4.194 4.685-.057 1.076-.028 2.104.129 3.263.088.668.344 1.282.717 1.806-1.658-.014-2.899-.288-3.523-.465-.413-1.038-1.345-3.745-1.945-8.288zm17.456 6.686c-.11.837-.722 1.516-1.521 1.688-2.348.506-5.333.506-7.679 0-.801-.173-1.412-.852-1.522-1.689-.042-.321-.073-.629-.096-.929h3.724l2.103 1.659c.576.448 1.379.455 1.963.017l1.984-1.677h1.141c-.023.3-.054.608-.096.929z"/></svg>