<svg id="Layer_1" viewBox="0 0 24 24" xmlns="http://www.w3.org/2000/svg" data-name="Layer 1"><path d="m13 10.97c-.053-1.801-1.137-3.952-6.003-3.97-5.067.019-5.935 2.446-5.993 3.983 0 .006-.003.011-.003.017v8.031c.056 1.801 1.141 3.953 6.003 3.969 4.856-.017 5.941-2.168 5.997-4v-8s0-.002 0-.002c0-.009 0-.018 0-.027zm-10 3.25c.905.47 2.191.774 4.003.78 1.809-.006 3.093-.309 3.997-.779v.755c-.017.556-.075 2.01-3.997 2.024-3.915-.014-3.986-1.458-4.003-2.018zm3.996-5.22c3.869.015 3.986 1.473 4.003 2-.019.573-.13 1.987-3.996 2-3.915-.014-3.986-1.458-4.003-1.96v-.014c.041-1.334 1.387-2.016 3.996-2.026zm.007 12c-3.942-.014-3.987-1.479-4.003-2v-.78c.905.47 2.191.774 4.003.78 1.809-.006 3.093-.309 3.997-.779v.749c-.017.551-.061 2.017-3.997 2.03zm15.997-9c0 6.103-1.079 9.206-1.125 9.335-.099.278-.315.498-.591.602-.098.037-2.45.904-6.247 1.044-.548.021-1.017-.41-1.037-.962s.411-1.016.962-1.037c2.525-.093 4.354-.539 5.162-.773.274-1.027.875-3.78.875-8.208s-.6-7.18-.875-8.208c-.904-.263-3.1-.792-6.125-.792s-5.221.529-6.126.792c-.033.122-.07.269-.111.439-.128.537-.67.866-1.204.742-.537-.128-.87-.667-.742-1.204.175-.736.308-1.104.308-1.104.1-.276.317-.499.591-.602.116-.043 2.887-1.063 7.284-1.063s7.168 1.02 7.284 1.063c.276.104.492.324.591.602.046.129 1.125 3.232 1.125 9.335zm-4 6c0 .552-.448 1-1 1h-1c-.552 0-1-.448-1-1s.448-1 1-1h1c.552 0 1 .448 1 1zm0-4c0 .552-.448 1-1 1h-1c-.552 0-1-.448-1-1s.448-1 1-1h1c.552 0 1 .448 1 1zm-2-7h-4c-.552 0-1-.448-1-1s.448-1 1-1h5c.552 0 1 .448 1 1v4c0 .552-.448 1-1 1h-2c-.552 0-1-.448-1-1s.448-1 1-1h1z"/></svg>