<?xml version="1.0" encoding="UTF-8"?>
<svg xmlns="http://www.w3.org/2000/svg" id="Layer_1" data-name="Layer 1" viewBox="0 0 24 24">
  <path d="M8.293,19.491c-1.984-.186-3.608-.501-4.412-.677-.286-1.055-.873-3.598-.873-6.726,0-.819,.041-1.601,.106-2.326,1.329-.288,4.615-.909,8.266-.909,4.726,0,8.899,1.062,8.941,1.072,.32,.083,.658,.002,.906-.214,.249-.216,.375-.541,.337-.868-.315-2.749-.917-4.565-.942-4.641-.108-.321-.371-.566-.699-.651-.062-.016-.665-.169-1.641-.351v-1.201c0-.552-.448-1-1-1s-1,.448-1,1v.88c-1.398-.188-3.094-.343-4.902-.343s-3.503,.155-4.902,.343v-.88c0-.552-.448-1-1-1s-1,.448-1,1v1.201c-.975,.182-1.578,.335-1.64,.351-.33,.084-.594,.331-.701,.654-.046,.139-1.129,3.46-1.129,7.882,0,4.46,1.084,7.748,1.13,7.885,.108,.322,.371,.567,.699,.651,.091,.023,2.264,.576,5.27,.857,.032,.003,.063,.004,.094,.004,.51,0,.946-.389,.995-.907,.051-.55-.353-1.038-.902-1.089ZM3.883,5.363c1.191-.259,4.178-.826,7.498-.826s6.309,.568,7.5,.827c.132,.485,.328,1.283,.5,2.306-1.692-.336-4.688-.816-7.999-.816-3.328,0-6.322,.478-7.994,.808,.172-1.018,.365-1.814,.496-2.299Z"/>
  <path d="M12,16c0-.552-.448-1-1-1h-3c-.552,0-1,.448-1,1s.448,1,1,1h3c.552,0,1-.448,1-1Z"/>
  <path d="M8,11c-.552,0-1,.448-1,1s.448,1,1,1h6c.552,0,1-.448,1-1s-.448-1-1-1h-6Z"/>
  <path d="M22.114,12.544c-.567-.569-1.321-.882-2.123-.882h0c-.802,0-1.557,.313-2.113,.872l-4.833,4.708c-.873,.875-1.383,2.039-1.438,3.276l-.063,1.439c0,.776,.633,1.043,1.043,1.043,.359,0,1.435-.063,1.435-.063,1.234-.054,2.396-.566,3.259-1.433l4.833-4.708c1.169-1.172,1.169-3.08,0-4.251Zm-1.406,2.829l-4.833,4.708c-.944,.969-2.285,.872-2.285,.872,0,0-.079-1.339,.86-2.29l4.833-4.708c.189-.19,.806-.547,1.415,0,.413,.371,.392,1.034,.01,1.417Z"/>
</svg>
