<?xml version="1.0" encoding="UTF-8"?>
<svg xmlns="http://www.w3.org/2000/svg" id="Layer_1" data-name="Layer 1" viewBox="0 0 24 24">
  <path d="M19.656,20.347l-.22,.037c-1.413,.238-3.348,.565-5.436,.565-3.807,0-7.226-.852-7.91-1.032l-1.515-.387-.498-1.475c-.11-.328-1.078-3.323-1.078-7.381,0-.945,.054-1.912,.161-2.875,.061-.549-.335-1.043-.884-1.104-.544-.057-1.043,.335-1.104,.884-.115,1.036-.173,2.078-.173,3.096,0,4.376,1.061,7.659,1.182,8.019l.671,1.991c.108,.321,.372,.565,.7,.649l2.063,.527c.968,.255,4.431,1.088,8.383,1.088,2.255,0,4.286-.343,5.769-.593l.219-.037c.545-.092,.912-.607,.821-1.152-.092-.545-.609-.915-1.152-.821Z"/>
  <path d="M22.021,3.886c-.108-.321-.372-.566-.7-.649-.051-.013-.529-.133-1.305-.281v-.905c0-.552-.448-1-1-1s-1,.448-1,1v.587c-1.177-.152-2.583-.274-4.077-.274s-2.899,.122-4.077,.274v-.587c0-.552-.448-1-1-1s-1,.448-1,1v.905c-.776,.147-1.253,.267-1.304,.28-.33,.084-.594,.33-.702,.653-.04,.12-.979,2.98-.979,6.785,0,3.837,.94,6.669,.98,6.788,.108,.321,.372,.566,.7,.649,.14,.036,3.459,.872,7.382,.872s7.242-.836,7.382-.872c.33-.084,.594-.33,.702-.653,.04-.12,.979-2.98,.979-6.784,0-3.836-.939-6.669-.979-6.788Zm-8.083,.479c2.769,0,5.27,.458,6.339,.686,.101,.378,.238,.947,.366,1.659-1.474-.281-3.954-.655-6.705-.655s-5.227,.374-6.702,.655c.127-.71,.264-1.279,.365-1.659,1.072-.227,3.576-.686,6.338-.686Zm6.338,11.933c-1.071,.227-3.576,.686-6.338,.686s-5.27-.458-6.339-.686c-.251-.939-.723-3.047-.723-5.624,0-.655,.031-1.281,.082-1.867,1.198-.253,3.948-.753,6.98-.753s5.786,.5,6.981,.752c.05,.584,.081,1.21,.081,1.867,0,2.557-.473,4.678-.724,5.624Z"/>
</svg>
