<svg id="Layer_1" viewBox="0 0 24 24" xmlns="http://www.w3.org/2000/svg" data-name="Layer 1"><path d="m21.961 4.726c-.095-.332-.354-.592-.687-.688-.069-.019-.878-.245-2.275-.48v-1.558c0-.553-.448-1-1-1s-1 .447-1 1v1.278c-1.388-.158-3.069-.278-5-.278s-3.612.12-5 .278v-1.278c0-.553-.448-1-1-1s-1 .447-1 1v1.558c-1.397.236-2.206.461-2.275.48-.332.096-.592.355-.687.688-.042.148-1.039 3.688-1.039 8.274s.996 8.126 1.039 8.274c.095.332.354.592.687.688.148.042 3.699 1.038 9.275 1.038s9.126-.996 9.275-1.038c.332-.096.592-.355.687-.688.042-.148 1.039-3.688 1.039-8.274s-.996-8.126-1.039-8.274zm-10.961 6.274v2h-3v-2zm5 0v2h-3v-2zm4.929 0c.042.639.071 1.304.071 2h-3v-2zm-14.929 2h-3c0-.696.029-1.361.071-2h2.929zm-2.929 2h2.929v2h-2.737c-.078-.615-.145-1.284-.192-2zm4.929 0h3v2h-3zm3 4v1.983c-1.095-.025-2.106-.086-3-.17v-1.813zm2 0h3v1.813c-.894.084-1.905.145-3 .17zm0-2v-2h3v2zm5-2h2.929c-.047.716-.114 1.385-.192 2h-2.737zm-6-10c4.053 0 7.01.562 8.178.827.146.624.378 1.75.559 3.173h-17.474c.181-1.423.413-2.549.559-3.173 1.167-.265 4.125-.827 8.178-.827zm-8.425 14h2.425v1.571c-.972-.144-1.718-.294-2.178-.398-.068-.29-.155-.689-.247-1.173zm14.425 1.571v-1.571h2.425c-.092.484-.179.883-.247 1.173-.46.104-1.206.254-2.178.398z"/></svg>