<?xml version="1.0" encoding="UTF-8"?>
<svg xmlns="http://www.w3.org/2000/svg" id="Layer_1" data-name="Layer 1" viewBox="0 0 24 24">
  <path d="M21.954,4.701c-.105-.337-.381-.593-.725-.674-.077-.018-.914-.213-2.229-.429v-1.598c0-.552-.447-1-1-1s-1,.448-1,1v1.315c-1.46-.176-3.188-.315-5-.315s-3.539,.139-5,.315v-1.315c0-.552-.448-1-1-1s-1,.448-1,1v1.599c-1.315,.215-2.152,.41-2.229,.428-.345,.081-.621,.339-.726,.677-.043,.138-1.045,3.43-1.045,8.113,0,4.708,.995,8.302,1.037,8.453,.099,.35,.379,.619,.733,.703,.178,.042,4.403,1.027,9.23,1.027s9.052-.985,9.229-1.027c.354-.083,.637-.354,.734-.705,.042-.152,1.036-3.782,1.036-8.451,0-4.724-1.003-7.98-1.046-8.116Zm-9.954,.299c3.584,0,6.897,.589,8.194,.851,.12,.481,.293,1.258,.448,2.266-1.774-.45-5.018-1.117-8.642-1.117s-6.863,.667-8.64,1.117c.155-1.005,.327-1.784,.447-2.266,1.299-.262,4.618-.851,8.193-.851Zm8.179,15.153c-1.308,.263-4.609,.847-8.179,.847s-6.873-.584-8.18-.848c-.268-1.165-.82-3.972-.82-7.335,0-.914,.042-1.773,.107-2.562,1.331-.371,4.917-1.256,8.893-1.256s7.567,.885,8.894,1.256c.065,.787,.106,1.646,.106,2.561,0,3.338-.554,6.163-.821,7.335Z"/>
  <path d="M15,14h-6c-.552,0-1,.448-1,1s.448,1,1,1h6c.553,0,1-.448,1-1s-.447-1-1-1Z"/>
</svg>
