<svg id="Layer_1" viewBox="0 0 24 24" xmlns="http://www.w3.org/2000/svg" data-name="Layer 1"><path d="m21.961 4.725c-.095-.332-.354-.592-.687-.687-.069-.02-.878-.245-2.275-.481v-1.558c0-.552-.448-1-1-1s-1 .448-1 1v1.278c-1.388-.158-3.069-.278-5-.278s-3.612.12-5 .278v-1.278c0-.552-.448-1-1-1s-1 .448-1 1v1.558c-1.397.236-2.206.461-2.275.481-.332.095-.592.354-.687.687-.042.148-1.039 3.688-1.039 8.275s.996 8.126 1.039 8.274c.095.332.354.592.687.688.148.042 3.699 1.038 9.275 1.038s9.126-.996 9.275-1.038c.332-.096.592-.355.687-.688.042-.148 1.039-3.688 1.039-8.274s-.996-8.126-1.039-8.275zm-9.961.275c4.053 0 7.01.562 8.178.827.104.442.252 1.138.393 2.009-1.449-.314-4.473-.837-8.571-.837s-7.122.523-8.571.837c.142-.872.29-1.567.393-2.009 1.167-.265 4.125-.827 8.178-.827zm-9 8c0-1.089.064-2.112.156-3.045.664-.171 3.964-.955 8.844-.955s8.176.783 8.844.955c.092.934.156 1.956.156 3.045 0 .628-.025 1.228-.06 1.81-1.204-1.037-2.53-1.943-3.964-2.696-.228-.119-.491-.146-.739-.077-2.115.602-5.414 2.076-9.102 5.674-1.207 1.129-2.274 2.481-2.404 2.647-.363-.069-.68-.134-.91-.186-.266-1.134-.822-3.893-.822-7.173zm9 8c-1.929 0-3.6-.129-4.958-.291.404-.465.927-1.037 1.476-1.551 3.183-3.104 5.987-4.476 7.885-5.081 1.596.881 3.037 1.97 4.296 3.239-.174 1.276-.385 2.279-.52 2.857-1.167.265-4.125.827-8.178.827zm-6-8.5c0-1.071.429-1.5 1.5-1.5s1.5.429 1.5 1.5-.429 1.5-1.5 1.5-1.5-.429-1.5-1.5z"/></svg>