<svg id="Layer_1" viewBox="0 0 24 24" xmlns="http://www.w3.org/2000/svg"><path d="m10.045 20.957c-3.042-.136-5.251-.563-6.223-.783-.267-1.134-.822-3.893-.822-7.173 0-1.089.064-2.112.156-3.045.669-.172 3.989-.955 8.844-.955s8.186.786 8.847.956c0 .6.501 1.098 1.103 1.04.55-.051.954-.538.903-1.088-.281-3.021-.867-5.095-.892-5.182-.096-.332-.355-.592-.688-.687-.069-.02-.878-.245-2.274-.48v-1.558c0-.552-.447-1-1-1s-1 .448-1 1v1.278c-1.388-.158-3.069-.278-5-.278s-3.612.12-5 .278v-1.278c0-.552-.447-1-1-1s-1 .448-1 1v1.558c-1.396.236-2.206.461-2.274.48-.332.095-.592.354-.688.687-.042.148-1.038 3.688-1.038 8.275s.996 8.126 1.038 8.275c.096.332.355.592.688.687.113.033 2.829.796 7.229.993.547.026 1.02-.402 1.044-.954s-.402-1.019-.954-1.044zm1.955-15.957c4.053 0 7.011.562 8.178.827.104.443.253 1.139.394 2.01-1.448-.314-4.473-.837-8.572-.837s-7.123.523-8.571.837c.142-.872.29-1.567.394-2.01 1.168-.265 4.125-.827 8.178-.827zm10.707 16.293-2.492-2.492c.492-.537.907-1.036 1.223-1.437.298.208.688.241 1.016.071.492-.251.688-.852.438-1.344-.035-.067-.854-1.662-2.088-2.896s-2.828-2.053-2.896-2.087c-.492-.25-1.093-.055-1.344.437-.197.386-.112.835.169 1.134-.577.454-1.351 1.105-2.15 1.904s-1.45 1.573-1.904 2.15c-.299-.281-.746-.368-1.133-.169-.492.251-.688.852-.438 1.344.035.067.854 1.662 2.088 2.896s2.828 2.053 2.896 2.087c.482.248 1.091.06 1.344-.437.172-.337.122-.72-.077-1.013.402-.316.903-.732 1.443-1.227l2.492 2.492c.391.391 1.023.391 1.414 0s.391-1.023 0-1.414zm-8.858-2.794c.358-.486 1.125-1.478 2.148-2.502 1.024-1.023 2.016-1.791 2.502-2.148.301.226.61.48.891.761.322.322.608.679.856 1.019-.364.493-1.123 1.471-2.134 2.482s-1.99 1.77-2.482 2.134c-.34-.247-.697-.534-1.019-.855-.281-.281-.536-.59-.762-.891z"/></svg>