<svg id="Layer_1" viewBox="0 0 24 24" xmlns="http://www.w3.org/2000/svg" data-name="Layer 1"><path d="m21.962 4.725c-.096-.332-.355-.592-.688-.687-.069-.02-.878-.245-2.274-.48v-1.558c0-.552-.447-1-1-1s-1 .448-1 1v1.278c-1.388-.158-3.069-.278-5-.278s-3.612.12-5 .278v-1.278c0-.552-.447-1-1-1s-1 .448-1 1v1.558c-1.396.236-2.206.461-2.274.48-.332.095-.592.354-.688.687-.042.148-1.038 3.688-1.038 8.275s.996 8.126 1.038 8.275c.096.332.355.592.688.687.148.042 3.698 1.039 9.274 1.039s9.126-.996 9.274-1.039c.332-.095.592-.354.688-.687.042-.148 1.038-3.688 1.038-8.275s-.996-8.126-1.038-8.275zm-9.962.275c4.053 0 7.01.562 8.178.827.104.442.252 1.138.394 2.01-1.449-.314-4.472-.837-8.571-.837s-7.123.523-8.571.837c.142-.872.29-1.567.394-2.01 1.168-.265 4.125-.827 8.178-.827zm0 16c-4.053 0-7.01-.562-8.178-.827-.267-1.134-.822-3.892-.822-7.173 0-1.089.064-2.112.156-3.045.669-.172 3.989-.955 8.844-.955s8.175.783 8.844.955c.092.934.156 1.956.156 3.045 0 3.281-.556 6.039-.822 7.173-1.168.265-4.125.827-8.178.827zm4-7.34c0 2.438-2.13 4.161-3.282 4.915-.439.287-.998.287-1.437 0-1.151-.754-3.282-2.477-3.282-4.915 0-1.193.895-2.16 2-2.16s2 .807 2 2c0-1.193.895-2 2-2s2 .967 2 2.16z"/></svg>