<svg id="Layer_1" viewBox="0 0 24 24" xmlns="http://www.w3.org/2000/svg" data-name="Layer 1"><path d="m1.008 6.712c.302-2.411.68-4.148.696-4.221.086-.393.393-.7.787-.787.073-.016 1.81-.395 4.221-.696.558-.072 1.081.33 1.152.896.071.565-.331 1.081-.896 1.152-1.458.182-2.675.398-3.38.533-.135.704-.35 1.922-.533 3.379-.069.568-.598.969-1.152.896-.566-.071-.967-.587-.896-1.152zm5.96 14.232c-1.458-.182-2.675-.397-3.38-.532-.135-.704-.35-1.922-.533-3.38-.071-.566-.594-.972-1.152-.896-.566.071-.967.587-.896 1.152.302 2.411.68 4.148.696 4.221.086.393.394.7.787.787.073.016 1.81.395 4.221.696.554.073 1.084-.328 1.152-.896.071-.565-.331-1.081-.896-1.152zm15.128-4.808c-.565-.076-1.081.33-1.152.896-.182 1.457-.398 2.675-.533 3.38-.704.135-1.922.35-3.38.532-.565.071-.966.587-.896 1.152.068.568.598.969 1.152.896 2.411-.301 4.148-.68 4.221-.696.393-.086.7-.394.787-.787.016-.073.395-1.81.696-4.221.071-.565-.33-1.081-.896-1.152zm-5.064-13.08c1.458.182 2.675.398 3.38.533.135.703.35 1.918.533 3.379.069.568.598.969 1.152.896.566-.071.967-.587.896-1.152-.302-2.411-.68-4.148-.696-4.221-.086-.393-.393-.7-.787-.787-.073-.016-1.81-.395-4.221-.696-.565-.072-1.081.33-1.152.896-.071.565.331 1.081.896 1.152zm-.164 13.621c-.089.02-2.205.483-4.868.483s-4.779-.464-4.868-.483c-.38-.084-.68-.375-.776-.752-.023-.087-.548-2.164-.548-3.925s.526-3.838.548-3.925c.096-.377.396-.668.776-.752.049-.011.727-.156 1.76-.284.359-1.043.652-1.545.689-1.606.151-.249.4-.423.685-.478.038-.008.927-.179 1.733-.179s1.695.171 1.733.179c.286.055.535.229.685.478.037.061.33.562.689 1.606 1.033.129 1.712.274 1.76.284.38.084.68.375.776.752.023.087.548 2.164.548 3.925s-.526 3.838-.548 3.925c-.096.377-.396.668-.776.752zm-.74-4.677c0-.963-.198-2.091-.341-2.779-.775-.129-2.183-.317-3.787-.317s-3.012.188-3.787.317c-.143.688-.341 1.816-.341 2.779s.198 2.091.341 2.779c.775.129 2.183.317 3.787.317s3.012-.188 3.787-.317c.143-.688.341-1.816.341-2.779zm-4.128-2.064c-1.474 0-2.064.59-2.064 2.064s.59 2.064 2.064 2.064 2.064-.59 2.064-2.064-.59-2.064-2.064-2.064z"/></svg>