<svg id="Layer_1" viewBox="0 0 24 24" xmlns="http://www.w3.org/2000/svg" data-name="Layer 1"><path d="m22.559 12.042c-.025-.017-.534-.368-1.453-.86.305-.893.463-1.579.473-1.625.089-.396-.07-.808-.404-1.04-.104-.072-2.595-1.797-7.19-4.112-4.598-2.314-7.467-3.288-7.587-3.329-.383-.129-.81-.012-1.076.295-.05.059-1.242 1.448-2.058 3.067-.816 1.621-1.223 3.406-1.24 3.481-.089.396.07.808.404 1.04.098.068 2.329 1.604 6.413 3.711-.39 2.418-1.545 4.07-5.382 4.3-.118-1.694-.471-3.141-.489-3.212-.134-.537-.677-.86-1.213-.728-.536.134-.861.677-.728 1.212.005.02.47 1.902.47 3.758s-.466 3.739-.47 3.758c-.133.536.193 1.078.729 1.212.521.135 1.08-.187 1.212-.728.018-.072.379-1.549.493-3.267 4.185-.217 6.46-1.91 7.232-5.372 3.963 1.931 6.4 2.76 6.509 2.797.381.128.81.014 1.076-.295.031-.036.488-.57 1.023-1.345.942.445 1.528.645 1.556.655.38.128.809.015 1.075-.295.039-.045.391-.458.642-.955.25-.498.373-1.026.386-1.085.089-.396-.07-.807-.403-1.039zm-5.368 2.226c-1.083-.409-3.456-1.363-6.671-2.982s-5.396-2.958-6.369-3.584c.173-.6.475-1.518.901-2.362.424-.842.982-1.632 1.361-2.129 1.083.409 3.457 1.363 6.672 2.982 3.215 1.618 5.395 2.957 6.369 3.584-.174.601-.477 1.521-.901 2.362-.423.841-.981 1.632-1.361 2.129z"/></svg>