<svg id="Layer_1" viewBox="0 0 24 24" xmlns="http://www.w3.org/2000/svg" data-name="Layer 1"><path d="m22.463 12.303c-.091-.211-.264-.357-.463-.462v-.34c0-4.164-2.001-8.715-2.086-8.906-.114-.257-.331-.453-.597-.542-.129-.043-3.202-1.052-7.316-1.052s-7.188 1.009-7.316 1.052c-.267.089-.483.285-.597.542-.085.191-2.086 4.742-2.086 8.906v.34c-.198.105-.372.251-.463.462-.055.127-.537 1.295-.537 3.197s.482 3.07.537 3.197c.127.295.389.51.703.579.035.008.293.062.76.138v.586c0 1.654 1.346 3 3 3 1.674.002 3.031-1.382 3-3.055.91.034 1.905.055 3 .055s2.09-.021 3-.055c-.031 1.673 1.326 3.057 3 3.055 1.654 0 3-1.346 3-3v-.586c.468-.075.725-.13.76-.138.314-.069.575-.284.703-.579.055-.127.537-1.295.537-3.197s-.482-3.07-.537-3.197zm-16.723-8.48c.933-.258 3.316-.823 6.26-.823s5.323.566 6.26.824c.469 1.169 1.722 4.578 1.737 7.618-1.586-.204-4.241-.443-7.997-.443s-6.411.239-7.997.443c.016-3.041 1.269-6.452 1.737-7.619zm1.26 16.177c0 .552-.449 1-1 1s-1-.448-1-1v-.327c.577.06 1.24.119 2 .17v.158zm12 0c0 .552-.449 1-1 1-.621.004-1.065-.555-1-1.158.76-.051 1.423-.11 2-.17v.327zm1-3.5h.939c-.045.376-.106.693-.164.924-.778.127-2.388.342-4.775.471v-.949c.011-.549-.487-1.038-1.038-.999-1.789.066-4.136.066-5.925 0-.546-.041-1.05.452-1.038.999v.949c-2.387-.128-3.997-.344-4.775-.471-.058-.231-.12-.548-.164-.924h.939c.552 0 1-.447 1-1s-.448-1-1-1h-.939c.045-.377.106-.693.164-.924 1.154-.188 4.096-.576 8.775-.576s7.621.388 8.775.576c.058.231.12.548.164.924h-.939c-.552 0-1 .447-1 1s.448 1 1 1z"/></svg>