<svg id="Layer_1" viewBox="0 0 24 24" xmlns="http://www.w3.org/2000/svg" data-name="Layer 1"><path d="m8.055 16.972c-2.192-.12-4.029-.35-4.999-.489-.029-.352-.056-.81-.056-1.325 0-.545.03-1.031.062-1.392.45-.104 1.114-.245 1.931-.385v.619c0 .552.447 1 1 1s1-.448 1-1v-.908c.344-.04.701-.078 1.068-.11.551-.048.957-.533.909-1.083-.047-.55-.533-.959-1.083-.909-1.567.137-2.946.356-3.987.556.162-3.137 1.079-5.762 1.447-6.704.781-.268 2.768-.841 5.494-.841 2.745 0 4.761.589 5.523.853.185.404.489 1.112.714 1.845.162.527.72.822 1.249.663.528-.162.825-.722.663-1.25-.392-1.277-.977-2.451-1.001-2.5-.105-.21-.282-.377-.499-.471-.108-.046-2.691-1.14-6.649-1.14s-6.539 1.093-6.647 1.139c-.229.099-.414.28-.517.507-.072.157-1.685 3.781-1.796 8.35-.38.104-.662.421-.723.81-.006.042-.159 1.037-.159 2.352 0 1.326.153 2.312.16 2.353.066.423.396.757.817.83.039.007.405.069 1.023.155l.004.48c0 1.695 1.311 3.023 2.984 3.023 1.688 0 3.011-1.318 3.011-3v-1.03c0-.531-.415-.97-.945-.999zm-1.055 2.028c0 .58-.425 1-1.011 1-.562 0-.984-.44-.984-1.031l-.002-.233c.602.062 1.273.123 1.997.173v.09z"/><path d="m16.5 9.009c-3.584 0-6.5 2.914-6.5 6.496s2.916 6.495 6.5 6.495 6.5-2.914 6.5-6.495-2.916-6.496-6.5-6.496zm0 10.991c-2.481 0-4.5-2.017-4.5-4.495s2.019-4.496 4.5-4.496 4.5 2.017 4.5 4.496-2.019 4.495-4.5 4.495z"/><path d="m17.659 14.505h-1.047c.178-.379.371-.612.371-.612.361-.418.314-1.049-.104-1.411-.416-.359-1.048-.315-1.41.103-.048.056-.479.567-.8 1.373-.296.745-.326 1.438-.328 1.515-.009.271.092.533.28.728.188.194.448.304.719.304h1.046c-.172.356-.365.58-.378.594-.368.407-.341 1.036.064 1.408.191.177.435.264.677.264.27 0 .539-.108.736-.323.052-.057.517-.576.844-1.396.296-.745.326-1.438.328-1.514.009-.271-.092-.533-.28-.728-.188-.194-.448-.304-.719-.304z"/></svg>