<svg id="Layer_1" viewBox="0 0 24 24" xmlns="http://www.w3.org/2000/svg" data-name="Layer 1"><path d="m13.23 9.572h-1.633c.297-.725.629-1.133.629-1.133.361-.418.314-1.049-.104-1.41-.416-.36-1.05-.316-1.41.104-.057.065-.562.666-.943 1.622-.352.881-.386 1.697-.389 1.788-.008.27.094.532.282.727s.447.304.718.304h1.633c-.175.571-.627 1.098-.642 1.113-.369.406-.344 1.038.062 1.409.566.515 1.216.156 1.413-.059.062-.066.607-.675.994-1.646.352-.881.386-1.697.389-1.788.008-.27-.094-.532-.282-.727s-.447-.304-.718-.304z"/><path d="m20.385 10.221c-1.234-3.53-3.534-6.009-3.634-6.117-.111-.119-.249-.208-.403-.261-.1-.034-2.479-.845-5.369-.845-3.933 0-6.132 1.035-6.224 1.079-.238.114-.422.318-.51.568-.038.104-.875 2.502-1.164 5.8-1.241.634-2.078 1.923-2.081 3.385q0 .043.169 2.747c.029.462.371.844.827.923.05.009.407.07 1.004.155v.347c0 1.655 1.343 3.002 2.993 3.002 1.611 0 2.887-1.204 2.998-2.779.954.048 1.965.078 3.009.078s2.055-.03 3.009-.078c.114 1.552 1.408 2.779 2.984 2.779 1.687 0 3.007-1.319 3.007-3.002v-.347c.597-.085.953-.146 1.004-.155.456-.079.798-.461.827-.923q.169-2.702.169-2.749c-.003-1.661-1.086-3.101-2.615-3.606zm-14.392 8.781c-.557 0-.993-.44-.993-1.002v-.096c.599.066 1.269.131 1.996.189-.042.457-.39.909-1.003.909zm13.007-1.002c0 .486-.353 1.002-1.007 1.002-.526 0-.944-.393-.989-.909.726-.058 1.397-.124 1.996-.189v.097zm1.885-2.353c-1.504.217-5.007.653-8.885.653s-7.382-.436-8.885-.653c-.048-.756-.112-1.78-.115-1.817.002-.909.686-1.678 1.59-1.789.643-.079 1.399-.161 2.239-.234.551-.048.957-.533.909-1.083s-.533-.959-1.083-.909c-.541.047-1.049.098-1.516.15.226-1.961.643-3.519.857-4.232.716-.251 2.427-.736 4.982-.736 2.049 0 3.848.474 4.479.661.45.526 1.724 2.112 2.649 4.228-.367-.036-.753-.071-1.156-.104-.543-.049-1.033.365-1.078.915-.045.551.365 1.033.916 1.078.994.082 1.885.177 2.622.267.904.111 1.588.88 1.591 1.735-.004.07-.068 1.109-.116 1.871z"/></svg>