<svg id="Layer_1" viewBox="0 0 24 24" xmlns="http://www.w3.org/2000/svg" data-name="Layer 1"><path d="m20.052 2.913c-.08-.328-.321-.594-.64-.706-.14-.049-3.474-1.207-7.412-1.207s-7.271 1.158-7.411 1.207c-.32.112-.561.379-.641.708-.039.16-.948 3.981-.948 9.084 0 5.146.91 8.929.949 9.087.08.328.32.594.639.706.14.049 3.474 1.207 7.412 1.207s7.271-1.158 7.411-1.207c.32-.112.562-.379.641-.708.039-.16.948-3.981.948-9.084 0-5.146-.91-8.929-.948-9.087zm-1.827 17.157c-1.039.306-3.497.93-6.225.93s-5.185-.625-6.225-.93c-.242-1.199-.775-4.271-.775-8.07 0-3.771.534-6.863.776-8.07 1.042-.305 3.508-.93 6.224-.93s5.186.625 6.226.93c.242 1.199.774 4.271.774 8.07 0 3.771-.534 6.864-.775 8.07z"/><path d="m15.412 9.177c-1.015-.847-2.47-.893-3.416-.175-.973-.718-2.407-.663-3.409.175-.552.461-1.085 1.337-1.085 2.415 0 2.163 2.714 3.451 2.829 3.511.522.264 1.096.396 1.669.396s1.147-.132 1.67-.396c.469-.237 2.83-1.507 2.83-3.584 0-1.046-.554-1.896-1.088-2.342z"/></svg>