<?xml version="1.0" encoding="UTF-8"?>
<svg xmlns="http://www.w3.org/2000/svg" id="Layer_1" data-name="Layer 1" viewBox="0 0 24 24">
  <path d="M22.048,6.313c-.688-2.044-2.317-3.674-4.361-4.361-3.773-1.266-7.601-1.266-11.373,0h0c-2.044,.687-3.674,2.317-4.36,4.361-1.266,3.773-1.266,7.6,0,11.374,.686,2.044,2.315,3.674,4.361,4.361,1.887,.633,3.786,.949,5.686,.949s3.8-.316,5.687-.949c2.044-.687,3.675-2.317,4.361-4.361,1.266-3.773,1.266-7.6,0-11.374Zm-1.896,10.737c-.488,1.454-1.647,2.613-3.102,3.102-3.35,1.126-6.748,1.126-10.1,0-1.454-.488-2.613-1.647-3.101-3.102-1.125-3.351-1.125-6.749,0-10.101,.487-1.454,1.646-2.613,3.101-3.101h0c3.351-1.124,6.75-1.124,10.101,0,1.454,.488,2.613,1.647,3.102,3.101,1.124,3.351,1.124,6.75,0,10.101Z"/>
  <path d="M14.854,8.085c-1.894-.224-3.812-.224-5.707,0-.829,.099-1.546,.605-1.918,1.354-.373,.752-.342,1.634,.083,2.358,1.623,2.761,4.039,4.357,4.141,4.424,.167,.108,.356,.163,.547,.163s.38-.055,.547-.163c.102-.066,2.519-1.663,4.141-4.424,.426-.724,.457-1.606,.083-2.358-.371-.749-1.088-1.255-1.917-1.354Z"/>
</svg>
