<?xml version="1.0" encoding="UTF-8"?>
<svg xmlns="http://www.w3.org/2000/svg" id="Layer_1" data-name="Layer 1" viewBox="0 0 24 24">
  <path d="M22.048,6.313c-.688-2.045-2.317-3.675-4.361-4.36-3.772-1.266-7.599-1.266-11.373,0-2.044,.686-3.674,2.315-4.361,4.361-1.266,3.773-1.266,7.6,0,11.373,.687,2.044,2.317,3.675,4.361,4.361,1.887,.633,3.786,.949,5.687,.949s3.8-.316,5.687-.949c2.044-.687,3.675-2.317,4.361-4.361,1.266-3.773,1.266-7.6,0-11.374Zm-1.896,10.737c-.488,1.454-1.647,2.613-3.102,3.102-3.352,1.125-6.75,1.125-10.1,0-1.454-.488-2.613-1.647-3.102-3.102-1.124-3.352-1.124-6.75,0-10.1,.488-1.454,1.647-2.613,3.102-3.101,3.35-1.125,6.75-1.125,10.1,0,1.454,.487,2.613,1.646,3.102,3.1,1.124,3.351,1.124,6.75,0,10.101Z"/>
  <path d="M11.797,7.312c-.726-.426-1.606-.458-2.357-.083-.749,.372-1.255,1.088-1.354,1.918-.225,1.893-.225,3.813,0,5.707,.1,.83,.605,1.547,1.354,1.918,.349,.173,.726,.259,1.102,.259,.434,0,.867-.115,1.256-.343,2.761-1.622,4.357-4.039,4.424-4.141,.218-.333,.218-.761,0-1.094-.066-.102-1.663-2.519-4.424-4.141Z"/>
</svg>
