<svg id="Layer_1" viewBox="0 0 24 24" xmlns="http://www.w3.org/2000/svg" data-name="Layer 1"><path d="m21.937 4.716c-.104-.276-.324-.492-.602-.591-.129-.046-3.232-1.125-9.335-1.125s-9.206 1.079-9.335 1.125c-.278.099-.498.315-.602.591-.043.116-1.063 2.887-1.063 7.284s1.02 7.169 1.063 7.285c.104.275.324.492.602.591.129.046 3.233 1.124 9.335 1.124s9.206-1.078 9.335-1.124c.278-.099.498-.315.602-.591.043-.116 1.063-2.888 1.063-7.285s-1.02-7.168-1.063-7.284zm-9.937.284c4.428 0 7.182.601 8.208.875.077.265.177.652.279 1.125h-16.975c.102-.473.202-.86.279-1.125 1.029-.275 3.782-.875 8.208-.875zm0 14c-4.428 0-7.182-.601-8.208-.875-.263-.906-.792-3.101-.792-6.125 0-1.123.073-2.13.178-3h17.644c.105.871.178 1.877.178 3 0 3.023-.528 5.219-.792 6.125-1.029.275-3.782.875-8.208.875zm5.5-8h-11c-.379 0-.725.214-.895.553-.062.124-.605 1.246-.605 2.447s.543 2.323.605 2.447c.169.339.516.553.895.553h11c.379 0 .725-.214.895-.553.062-.124.605-1.246.605-2.447s-.543-2.323-.605-2.447c-.169-.339-.516-.553-.895-.553zm-4.5 2v2h-2v-2zm-6 1c0-.336.085-.701.18-1h1.82v2h-1.82c-.095-.299-.18-.664-.18-1zm9.82 1h-1.82v-2h1.82c.095.299.18.664.18 1s-.085.701-.18 1z"/></svg>