<svg id="Layer_1" viewBox="0 0 24 24" xmlns="http://www.w3.org/2000/svg" data-name="Layer 1"><path d="m21.786 20.023c-.013.003-.386.083-1 .195.14-1.411.213-2.499.213-3.218 0-2.208-.196-3.665-.355-4.49 1.582-.697 2.355-2.162 2.355-4.51 0-4.542-.491-5.732-.967-6.517-.182-.3-.506-.483-.856-.483-.351 0-.676.184-.856.485-.245.408-.514.934-.721 1.679-.485-.098-1.004-.164-1.598-.164s-1.113.067-1.598.164c-.207-.745-.476-1.271-.721-1.679-.181-.3-.514-.47-.864-.471h-.002c-.35 0-.682.196-.863.495-.46.759-.951 1.948-.951 6.491 0 .907.121 1.677.35 2.331-5.537.635-8.086 3.625-8.325 9.705-1.383-.638-2.026-1.599-2.026-3.035 0-1.255.704-2.269 1.45-3.343.762-1.097 1.55-2.232 1.55-3.657 0-2.654-1.346-4-4-4-.552 0-1 .448-1 1s.448 1 1 1c1.57 0 2 .43 2 2 0 .799-.553 1.595-1.193 2.517-.847 1.22-1.807 2.602-1.807 4.483 0 1.842.777 4.263 4.48 5.337 2.373.682 5.157.661 7.52.663 4.501 0 9.024-.981 9.215-1.023.539-.118.88-.651.762-1.191s-.662-.882-1.19-.762zm-3.045.526c-.396.056-.816.111-1.259.163-.182.015-.345.029-.497.043-.079-3.233-1.661-4.755-4.985-4.755-.552 0-1 .448-1 1s.448 1 1 1c2.274 0 2.982.692 2.997 2.931-.724.044-1.46.073-2.191.069-1.789-.003-3.951-.004-5.797-.358.085-5.856 2.229-8.173 7.784-8.422.795.517 1.851.781 3.208.781.248 0 .466-.027.695-.044.132.711.305 2.027.305 4.044 0 .739-.09 1.948-.259 3.549zm-.741-9.549c-2.299 0-3-.701-3-3s.701-3 3-3 3 .701 3 3-.701 3-3 3z"/></svg>