<svg id="Layer_1" viewBox="0 0 24 24" xmlns="http://www.w3.org/2000/svg" data-name="Layer 1"><path d="m6.389 5.321c.486.222 1.413.608 1.833.704.539.123.875.659.753 1.197-.121.543-.673.876-1.197.753-.757-.173-2.071-.767-2.219-.834-.502-.229-.724-.822-.495-1.324.229-.503.822-.725 1.324-.496zm16.564 15.882c.164.525-.126 1.084-.651 1.25-.07.022-1.764.547-5.039.547-2.466 0-4.352-.871-5.263-1.396-.911.524-2.797 1.396-5.263 1.396-3.409 0-5.197-1.108-5.272-1.155-.466-.295-.605-.913-.31-1.38.295-.468.912-.606 1.38-.31.006.003 1.424.845 4.202.845.838 0 1.582-.132 2.232-.308-2.631-.486-5.7-1.582-7.405-3.533-.124-.143-.205-.315-.234-.502-.329-2.077-.329-4.51-.329-6.656 0-3.53.489-6.996.51-7.142.04-.281.198-.533.435-.69.179-.12 1.845-1.168 5.055-1.168 2.331 0 4.12.816 5 1.318.88-.502 2.669-1.318 5-1.318 3.21 0 4.875 1.048 5.055 1.168.237.158.395.409.435.69.021.146.51 3.611.51 7.142 0 2.146 0 4.579-.33 6.656-.03.187-.111.359-.234.501-1.704 1.952-4.773 3.049-7.405 3.534.649.176 1.394.308 2.232.308 2.926 0 4.424-.45 4.439-.455.528-.156 1.087.133 1.25.658zm-11.953-17.15c-.662-.376-2.109-1.053-4-1.053-1.814 0-3.011.401-3.576.648-.133 1.083-.424 3.734-.424 6.352 0 1.967 0 4.184.26 6.047 1.732 1.758 5.267 2.697 7.74 2.907zm2 14.901c2.473-.21 6.008-1.148 7.739-2.907.261-1.863.261-4.08.261-6.047 0-2.618-.291-5.271-.424-6.353-.561-.245-1.758-.647-3.576-.647-1.89 0-3.336.676-4 1.053zm-4.778-4.93c-.42-.095-1.347-.482-1.832-.704-.503-.227-1.096-.008-1.325.495-.229.502-.008 1.096.494 1.324.147.067 1.462.663 2.22.836.525.122 1.077-.211 1.197-.754.123-.538-.215-1.074-.753-1.197zm0-3.999c-.42-.096-1.348-.482-1.833-.704-.502-.228-1.096-.008-1.324.496-.229.502-.008 1.095.495 1.324.147.067 1.462.662 2.219.834.524.123 1.076-.21 1.197-.753.123-.538-.214-1.074-.753-1.197zm9.388 3.295c-.485.222-1.412.609-1.832.704-.539.123-.876.659-.753 1.197.12.543.672.876 1.197.754.757-.173 2.072-.769 2.22-.836.502-.229.724-.822.494-1.324-.229-.503-.823-.721-1.325-.495zm-1.611-5.32c.757-.062 2.264-.794 2.442-.859.502-.229.724-.822.495-1.324-.228-.503-.822-.724-1.324-.496-.486.222-1.413.608-1.833.704-.539.123-.875.659-.753 1.197.106.464.518.778.974.778zm0 4c.757-.062 2.264-.794 2.442-.859.502-.229.724-.822.495-1.324-.228-.503-.822-.724-1.324-.496-.486.222-1.413.608-1.833.704-.539.123-.875.659-.753 1.197.106.464.518.778.974.778z"/></svg>