<svg id="Layer_1" viewBox="0 0 24 24" xmlns="http://www.w3.org/2000/svg" data-name="Layer 1"><path d="m22.227 7.536c-.083-.381-.381-.679-.762-.762-.095-.021-1.64-.355-3.662-.577-.225-2.04-.56-3.589-.576-3.661-.101-.383-.414-.705-.813-.773-.435-.093-3.678-.762-6.914-.762-3.403 0-6.821.742-6.964.773-.381.083-.679.381-.762.762-.032.144-.773 3.562-.773 6.964s.742 6.82.773 6.965c.083.381.381.678.762.762.073.016 1.621.352 3.661.576.222 2.022.556 3.566.577 3.662.083.381.381.679.762.762.144.032 3.562.773 6.964.773s6.821-.741 6.964-.773c.381-.083.679-.381.762-.762.032-.145.773-3.562.773-6.965s-.742-6.821-.773-6.964zm-6.756-3.529c.094.534.203 1.222.301 2.025-.42-.02-.846-.032-1.271-.032-1.181 0-2.362.09-3.409.208 1.15-.804 2.637-1.647 4.38-2.202zm-11.87 11.392c-.208-1.12-.601-3.549-.601-5.899s.393-4.778.601-5.899c1.121-.208 3.548-.601 5.899-.601.95 0 1.909.065 2.793.156-3.216 1.629-5.181 3.808-5.29 3.93-.096.137-.18.287-.229.45-.032.144-.773 3.562-.773 6.964 0 .425.012.851.032 1.27-1.013-.122-1.881-.269-2.431-.371zm16.798 5c-1.121.208-3.548.601-5.899.601s-4.779-.394-5.899-.602c-.208-1.119-.601-3.543-.601-5.898s.393-4.778.601-5.899c1.121-.208 3.548-.601 5.899-.601s4.778.393 5.899.601c.208 1.121.601 3.548.601 5.899s-.393 4.778-.601 5.899zm-6.523-9.513c.013.057.124.577.124 1.114s-.111 1.057-.124 1.114c-.083.381-.381.679-.762.763-.057.013-.577.123-1.114.123s-1.057-.11-1.114-.123c-.381-.084-.679-.382-.762-.763-.013-.058-.124-.577-.124-1.114s.111-1.057.124-1.114c.083-.381.381-.679.762-.762.057-.013.577-.124 1.114-.124s1.057.111 1.114.124c.381.083.679.381.762.762zm5.124 1.114c0 .552-.448 1-1 1h-2c-.552 0-1-.448-1-1s.448-1 1-1h2c.552 0 1 .448 1 1zm-5.124 3.885c.013.058.124.578.124 1.115s-.111 1.058-.124 1.115c-.083.381-.381.679-.763.762-.057.013-.576.123-1.113.123s-1.056-.11-1.113-.123c-.382-.083-.68-.381-.763-.762-.013-.058-.124-.578-.124-1.115s.111-1.058.124-1.115c.083-.381.381-.679.763-.762.057-.013.576-.123 1.113-.123s1.056.11 1.113.123c.382.083.68.381.763.762zm5.124 1.115c0 .553-.448 1-1 1h-2c-.552 0-1-.447-1-1s.448-1 1-1h2c.552 0 1 .447 1 1z"/></svg>