<svg id="Layer_1" viewBox="0 0 24 24" xmlns="http://www.w3.org/2000/svg" data-name="Layer 1"><path d="m19.773 15.056c-.522-.182-1.091.094-1.274.614-.74 2.119-2.426 3.126-5.527 3.295-.238-1.707-.472-4.108-.472-6.965s.234-5.258.472-6.965c3.1.169 4.786 1.176 5.527 3.295.184.521.753.798 1.274.614.521-.183.796-.753.614-1.274-1.254-3.588-4.389-4.454-7.086-4.629.099-.506.167-.789.169-.799.133-.536-.193-1.079-.729-1.212-.543-.136-1.078.19-1.212.728-.013.053-.122.495-.263 1.263-5.703.218-8.267 3.007-8.267 8.979s2.563 8.761 8.267 8.979c.142.768.25 1.21.263 1.263.132.541.69.863 1.212.728.535-.133.861-.676.729-1.212-.003-.01-.071-.293-.169-.799 2.697-.175 5.832-1.041 7.086-4.629.182-.521-.093-1.092-.614-1.274zm-14.773-3.056c0-4.8 1.585-6.72 5.951-6.969-.235 1.756-.451 4.136-.451 6.969s.217 5.213.451 6.969c-4.366-.249-5.951-2.169-5.951-6.969z"/></svg>