<svg id="Layer_1" viewBox="0 0 24 24" xmlns="http://www.w3.org/2000/svg" data-name="Layer 1"><path d="m22.707 2.707c.391-.391.391-1.023 0-1.414s-1.023-.391-1.414 0l-4.33 4.33c-1.512-1.099-3.593-1.623-6.463-1.623-.804 0-1.557.042-2.238.125-.457.056-.816.416-.872.872-.415 3.415-1.978 4.978-5.393 5.393-.457.056-.816.416-.872.872-.083.681-.125 1.435-.125 2.238 0 2.785.544 4.895 1.652 6.433l-1.359 1.359c-.391.391-.391 1.023 0 1.414s1.023.391 1.414 0l1.358-1.358c1.532 1.105 3.646 1.651 6.435 1.651.804 0 1.557-.042 2.238-.125.457-.056.816-.416.872-.872.415-3.415 1.978-4.978 5.393-5.393.457-.056.816-.416.872-.872.083-.681.125-1.435.125-2.238 0-2.87-.524-4.951-1.623-6.463l4.33-4.33zm-4.707 10.793c0 .436-.014.853-.04 1.247-3.562.655-5.559 2.652-6.213 6.213-.394.026-.811.04-1.247.04-2.185 0-3.828-.365-4.994-1.092l1.201-1.201c.391-.391.391-1.023 0-1.414s-1.023-.391-1.414 0l-1.199 1.199c-.73-1.171-1.094-2.811-1.094-4.992 0-.436.014-.853.04-1.247 3.562-.655 5.559-2.652 6.213-6.213.394-.026.811-.04 1.247-.04 2.249 0 3.871.346 5.021 1.065l-6.228 6.228c-.391.391-.391 1.023 0 1.414s1.023.391 1.414 0l6.229-6.229c.719 1.15 1.064 2.773 1.064 5.022zm-1-11.5c0-.552.448-1 1-1s1 .448 1 1-.448 1-1 1-1-.448-1-1zm6 4c0 .552-.448 1-1 1s-1-.448-1-1 .448-1 1-1 1 .448 1 1z"/></svg>