<svg id="Layer_1" viewBox="0 0 24 24" xmlns="http://www.w3.org/2000/svg" data-name="Layer 1"><path d="m20.986 17.333c-.242-1.426-.909-2.998-2.491-4.151.196-.981.291-2.094.291-3.387 0-6-2.156-8.794-6.786-8.794s-6.786 2.793-6.786 8.793c0 1.298.094 2.413.286 3.394-1.576 1.152-2.241 2.72-2.485 4.143-.05.291.031.588.221.813.19.226.47.355.765.355h1v3.5c0 .552.448 1 1 1s1-.448 1-1v-3.5h10v3.5c0 .552.448 1 1 1s1-.448 1-1v-3.5h1c.294 0 .574-.13.764-.355s.271-.522.222-.812zm-4.2-7.538c0 .891-.052 1.698-.154 2.412-.491-.179-1.033-.33-1.632-.445v-7.987c1.06.834 1.786 2.544 1.786 6.019zm-3.786-6.75v8.481c-.321-.017-.654-.026-1-.026s-.679.009-1 .026v-8.478c.331-.037.667-.048 1-.048.336 0 .672.01 1 .044zm-5.786 6.75c0-3.427.738-5.138 1.786-5.984v7.951c-.601.116-1.144.267-1.636.447-.1-.714-.15-1.522-.15-2.414zm4.786 3.706c4.632 0 6.149 1.693 6.698 3h-13.394c.55-1.308 2.069-3 6.696-3z"/></svg>