<svg id="Layer_1" viewBox="0 0 24 24" xmlns="http://www.w3.org/2000/svg" data-name="Layer 1"><path d="m11.994 4.092c-1.705.011-2.741 1.045-2.772 2.767-.01.552.43 1.008.982 1.018.544-.012 1.008-.43 1.018-.982.011-.634.173-.799.772-.803.598.004.774.184.785.766-.013.688-.197.8-.784.803-.55.003-.994.45-.994 1v.839c0 .552.448 1 1 1 .546 0 .99-.438 1-.981 1.105-.34 1.753-1.276 1.778-2.659-.029-1.696-1.092-2.757-2.785-2.768z"/><path d="m19.037 6.5h-.537v-3.5c0-.423-.266-.8-.665-.942-.121-.043-3.006-1.058-5.835-1.058s-5.713 1.015-5.834 1.058c-.399.142-.666.519-.666.942v3.495h-.537c-1.634 0-2.963 1.329-2.963 2.963v8.042c0 .436.282.821.697.953.183.059 4.222 1.331 8.303 1.523v.978c-1.167-.104-2.051-.348-2.062-.351-.532-.151-1.083.16-1.233.691s.159 1.083.69 1.233c.068.019 1.693.473 3.605.473s3.537-.453 3.605-.473c.531-.15.84-.701.691-1.232-.149-.532-.701-.839-1.233-.693-.011.003-.897.247-2.063.352v-.978c4.073-.192 8.119-1.464 8.303-1.523.415-.132.697-.518.697-.953v-8.037c0-1.634-1.329-2.963-2.963-2.963zm-11.537-2.768c.949-.277 2.767-.732 4.5-.732s3.55.455 4.5.733v10.267h-9zm-3.5 5.725c0-.531.432-.963.963-.963h.537v5.505h-1.5zm16 7.292c-1.441.4-4.873 1.25-8 1.25s-6.561-.85-8-1.25v-.75h16zm0-2.75h-1.5v-5.5h.537c.531 0 .963.432.963.963z"/><circle cx="12" cy="12" r=".997"/></svg>