<svg id="Layer_1" viewBox="0 0 24 24" xmlns="http://www.w3.org/2000/svg" data-name="Layer 1"><path d="m23.009 8.5c0 3.371-.815 5.894-.85 6-.098.299-.332.534-.629.635-.096.032-2.253.73-6.417.842-.675.031-1.445.024-2.129.01-.552-.013-.989-.472-.975-1.024s.497-1 1.024-.975c.311.007.633.011.967.012v-.885c0-.503.374-.928.874-.992.04-.005.974-.123 1.626-.123s1.587.118 1.626.123c.5.064.874.489.874.992v.529c.612-.097 1.086-.196 1.4-.272.218-.845.609-2.67.609-4.872s-.391-4.028-.609-4.872c-.9-.218-3.042-.628-6.391-.628-3.375 0-5.498.408-6.392.626-.042.162-.09.36-.141.589-.119.539-.655.88-1.192.761-.54-.119-.88-.653-.761-1.192.179-.812.335-1.284.335-1.284.099-.298.333-.535.629-.635.104-.035 2.612-.865 7.521-.865s7.417.83 7.521.865c.298.101.531.336.629.635.035.106.85 2.628.85 6zm-20 2.5c0-2.691 1.309-4 4-4s4 1.309 4 4-1.309 4-4 4-4-1.309-4-4zm2 0c0 1.589.411 2 2 2s2-.411 2-2-.411-2-2-2-2 .411-2 2zm2 5c-4.149 0-6 1.851-6 6 0 .552.448 1 1 1s1-.448 1-1c0-3.028.972-4 4-4s4 .972 4 4c0 .552.448 1 1 1s1-.448 1-1c0-4.149-1.851-6-6-6z"/></svg>