<svg id="Layer_1" viewBox="0 0 24 24" xmlns="http://www.w3.org/2000/svg" data-name="Layer 1"><path d="m20 9c-1.619 0-2.577.68-2.883 2h-1.191c-.126-.833-.421-1.49-.889-1.973l1.295-2.072c.209.029.431.045.668.045 1.99 0 3-1.01 3-3s-1.01-3-3-3-3 1.01-3 3c0 .854.197 1.516.567 2.007l-1.326 2.122c-.379-.076-.782-.129-1.241-.129s-.862.052-1.241.129l-1.326-2.122c.37-.491.567-1.153.567-2.007 0-1.99-1.01-3-3-3s-3 1.01-3 3 1.01 3 3 3c.237 0 .458-.016.668-.045l1.295 2.072c-.468.484-.763 1.14-.889 1.973h-1.191c-.306-1.32-1.264-2-2.883-2-1.99 0-3 1.01-3 3s1.01 3 3 3c1.619 0 2.577-.68 2.883-2h1.191c.126.833.421 1.49.889 1.973l-1.295 2.072c-.209-.029-.431-.045-.668-.045-1.99 0-3 1.01-3 3s1.01 3 3 3 3-1.01 3-3c0-.854-.197-1.516-.567-2.007l1.326-2.122c.379.076.782.129 1.241.129s.862-.052 1.241-.129l1.326 2.122c-.37.491-.567 1.153-.567 2.007 0 1.99 1.01 3 3 3s3-1.01 3-3-1.01-3-3-3c-.237 0-.458.016-.668.045l-1.295-2.072c.468-.484.763-1.14.889-1.973h1.191c.306 1.32 1.264 2 2.883 2 1.99 0 3-1.01 3-3s-1.01-3-3-3zm-3-6c.879 0 1 .121 1 1s-.121 1-1 1-1-.121-1-1 .121-1 1-1zm-10 2c-.879 0-1-.121-1-1s.121-1 1-1 1 .121 1 1-.121 1-1 1zm-3 8c-.879 0-1-.121-1-1s.121-1 1-1 1 .121 1 1-.121 1-1 1zm3 8c-.879 0-1-.121-1-1s.121-1 1-1 1 .121 1 1-.121 1-1 1zm5-7c-1.589 0-2-.411-2-2s.411-2 2-2 2 .411 2 2-.411 2-2 2zm5 5c.879 0 1 .121 1 1s-.121 1-1 1-1-.121-1-1 .121-1 1-1zm3-6c-.879 0-1-.121-1-1s.121-1 1-1 1 .121 1 1-.121 1-1 1z"/></svg>