<svg id="Layer_1" viewBox="0 0 24 24" xmlns="http://www.w3.org/2000/svg" data-name="Layer 1"><path d="m22.922 20.633c.173.524-.109 1.088-.632 1.263-.136.045-3.386 1.104-9.79 1.104s-9.654-1.059-9.79-1.104c-.334-.111-.585-.39-.66-.734-.044-.2-1.076-4.956-1.076-9.688s1.032-9.488 1.076-9.688c.118-.54.651-.882 1.19-.762.54.118.881.651.763 1.191-.01.047-1.029 4.75-1.029 9.259 0 3.574.641 7.27.911 8.673 1.13.278 4.019.854 8.615.854 6.037 0 9.129-.992 9.159-1.002.528-.172 1.09.112 1.263.635zm-6.902-5.008c-.108.542.242 1.068.784 1.177.04.008 1.009.198 2.696.198s2.656-.19 2.696-.198c.54-.108.89-.633.783-1.174-.106-.54-.625-.898-1.173-.788-.009.001-.839.16-2.307.16s-2.298-.158-2.304-.159c-.54-.108-1.069.242-1.177.784zm-9.216-10.823c.04.008 1.009.198 2.696.198s2.656-.19 2.696-.198c.54-.108.89-.633.783-1.174-.106-.54-.628-.896-1.173-.788-.009.001-.839.16-2.307.16s-2.298-.158-2.304-.159c-.541-.107-1.069.243-1.177.784-.108.542.242 1.068.784 1.177zm2.216 4.718c-.106.541.243 1.067.784 1.175.062.013 1.557.305 4.196.305s4.134-.292 4.196-.305c.541-.108.891-.634.784-1.175s-.626-.894-1.175-.787c-.014.003-1.386.267-3.806.267s-3.792-.264-3.806-.267c-.552-.107-1.067.246-1.175.787z"/></svg>