<svg id="Layer_1" viewBox="0 0 24 24" xmlns="http://www.w3.org/2000/svg" data-name="Layer 1"><path d="m5 10c-.301 0-.587-.136-.776-.37-.739-.912-1.607-1.707-2.447-2.477l-.456-.419c-.405-.375-.43-1.008-.054-1.413.373-.406 1.008-.431 1.413-.055l.448.413c.598.548 1.209 1.108 1.797 1.726 2.118-2.814 4.271-4.868 6.555-6.259.374-.228.851-.187 1.181.103 1.846 1.621 3.253 2.984 4.343 4.208 1.385-1.575 2.85-2.996 4.365-4.232.428-.35 1.058-.285 1.406.143.35.428.286 1.058-.143 1.407-1.7 1.387-3.336 3.023-4.862 4.863-.38.464-1.178.482-1.549-.012-1.004-1.249-2.386-2.65-4.317-4.376-2.088 1.412-4.085 3.489-6.086 6.326-.187.265-.493.424-.817.424zm18.48 11.805c-.005-.024-.48-2.479-.48-6.805s.476-6.781.48-6.805c.107-.542-.244-1.068-.785-1.176-.547-.111-1.068.244-1.176.784-.021.106-.52 2.649-.52 7.196s.498 7.09.52 7.196c.095.475.513.803.979.803.621.007 1.11-.585.981-1.195zm-10 0c-.005-.024-.48-2.479-.48-6.805 0-2.731.184-4.699.337-5.87.072-.548-.313-1.05-.861-1.122-.551-.068-1.051.314-1.121.861-.162 1.229-.354 3.292-.354 6.13 0 4.547.498 7.09.52 7.196.095.475.513.803.979.803.621.007 1.11-.585.981-1.195zm5 0c-.005-.024-.48-2.479-.48-6.805 0-1.019.026-2.01.077-2.945.031-.552-.392-1.023-.943-1.054-.549-.032-1.022.392-1.053.943-.054.972-.081 2-.081 3.055 0 4.547.498 7.09.52 7.196.095.475.513.803.979.803.621.007 1.11-.585.981-1.195zm-15 0c-.005-.024-.48-2.479-.48-6.805 0-1.019.026-2.01.077-2.945.031-.552-.392-1.023-.943-1.054-.547-.032-1.022.392-1.053.943-.054.972-.081 2-.081 3.055 0 4.547.498 7.09.52 7.196.095.475.513.803.979.803.621.007 1.11-.585.981-1.195zm5 0c-.005-.024-.48-2.479-.48-6.805 0-.552-.447-1-1-1s-1 .448-1 1c0 4.547.498 7.09.52 7.196.095.475.513.803.979.803.621.007 1.11-.585.981-1.195z"/></svg>