<svg id="Layer_1" viewBox="0 0 24 24" xmlns="http://www.w3.org/2000/svg" data-name="Layer 1"><path d="m23 8.5c0 3.371-.815 5.894-.85 5.999-.098.3-.332.535-.629.636-.104.035-2.613.865-7.521.865-.354 0-.696-.004-1.024-.012-.552-.014-.989-.473-.975-1.024s.48-.978 1.024-.976c.313.008.638.012.976.012 3.347 0 5.489-.41 6.391-.628.218-.845.609-2.67.609-4.872s-.391-4.027-.609-4.872c-.9-.218-3.043-.628-6.391-.628s-5.49.41-6.392.628c-.042.161-.09.358-.14.587-.119.539-.652.876-1.192.762-.539-.119-.88-.652-.761-1.191.179-.812.335-1.284.335-1.284.099-.298.332-.535.629-.636.104-.035 2.613-.865 7.521-.865s7.417.83 7.521.865c.298.101.531.336.629.636.035.105.85 2.628.85 5.999zm-9.293.793c-.391-.391-1.023-.391-1.414 0s-.391 1.023 0 1.414l1 1c.372.387 1.042.387 1.414 0l2.236-2.236c-.013.129-.017.259-.036.387-.078.547.302 1.054.849 1.132.535.079 1.056-.299 1.131-.849.151-1.056.151-2.125 0-3.181-.062-.44-.409-.786-.849-.849-1.053-.15-2.124-.15-3.178 0-.547.078-.927.584-.85 1.131.079.547.59.927 1.131.85.129-.018.259-.023.388-.036l-1.529 1.529-.293-.293zm-10.707 1.707c0-2.691 1.309-4 4-4s4 1.309 4 4-1.309 4-4 4-4-1.309-4-4zm2 0c0 1.589.411 2 2 2s2-.411 2-2-.411-2-2-2-2 .411-2 2zm2 5c-4.149 0-6 1.851-6 6 0 .553.448 1 1 1s1-.447 1-1c0-3.028.972-4 4-4s4 .972 4 4c0 .553.448 1 1 1s1-.447 1-1c0-4.149-1.851-6-6-6z"/></svg>