<svg id="Layer_1" viewBox="0 0 24 24" xmlns="http://www.w3.org/2000/svg" data-name="Layer 1"><path d="m22.316 21.896c-.136.045-3.386 1.104-9.79 1.104s-9.655-1.059-9.79-1.104c-.334-.111-.585-.39-.66-.734-.044-.2-1.076-4.956-1.076-9.688s1.032-9.488 1.076-9.688c.118-.54.651-.885 1.191-.762.539.118.881.651.762 1.191-.01.047-1.029 4.75-1.029 9.259 0 3.574.64 7.27.911 8.673 1.129.278 4.019.854 8.615.854 6.037 0 9.129-.992 9.159-1.002.528-.172 1.089.112 1.263.635.173.524-.109 1.088-.632 1.263zm-16.049-7.001c-.011-.075-.267-1.863-.267-5.395s.256-5.32.267-5.395c.061-.418.378-.752.792-.835.122-.024.516-.101.941-.167v-1.103c0-.552.448-1 1-1s1 .448 1 1v1.103c.425.066.819.142.941.167.414.083.731.417.792.835.011.075.267 1.863.267 5.395s-.256 5.32-.267 5.395c-.061.418-.378.752-.792.835-.122.024-.516.101-.941.167v1.103c0 .552-.448 1-1 1s-1-.448-1-1v-1.103c-.425-.066-.819-.142-.941-.167-.414-.083-.731-.417-.792-.835zm1.733-5.395c0 2.129.098 3.601.169 4.399.343.056.675.101.831.101s.488-.045.831-.101c.072-.798.169-2.27.169-4.399s-.098-3.601-.169-4.399c-.343-.056-.675-.101-.831-.101s-.488.045-.831.101c-.072.798-.169 2.27-.169 4.399zm7.207 2.335c-.138-1.156-.207-2.446-.207-3.835s.069-2.679.207-3.835c.05-.42.359-.763.771-.857.262-.06.638-.139 1.021-.203v-1.105c0-.552.447-1 1-1s1 .448 1 1v1.105c.383.064.76.143 1.021.203.412.094.722.437.771.857.138 1.156.207 2.446.207 3.835s-.069 2.679-.207 3.835c-.05.42-.359.763-.771.857-.262.06-.638.139-1.021.203v1.105c0 .552-.447 1-1 1s-1-.448-1-1v-1.105c-.383-.064-.76-.143-1.021-.203-.412-.094-.722-.437-.771-.857zm1.793-3.835c0 1.029.04 1.996.119 2.886.389.071.711.114.881.114s.492-.043.881-.114c.079-.89.119-1.857.119-2.886s-.04-1.996-.119-2.886c-.389-.071-.711-.114-.881-.114s-.492.043-.881.114c-.079.89-.119 1.857-.119 2.886z"/></svg>