<?xml version="1.0" encoding="UTF-8"?>
<svg xmlns="http://www.w3.org/2000/svg" id="Layer_1" data-name="Layer 1" viewBox="0 0 24 24">
  <path d="M22.968,20.471c-.138-.536-.683-.855-1.218-.718-5.874,1.517-11.826,1.565-17.707,.143-1.43-5.835-1.382-11.745,.146-17.575,.14-.534-.181-1.081-.715-1.221-.533-.141-1.08,.18-1.221,.714-1.664,6.357-1.664,12.804,0,19.161,.092,.351,.366,.624,.718,.715,3.198,.826,6.419,1.239,9.64,1.239s6.441-.413,9.64-1.239c.535-.138,.856-.684,.718-1.218Z"/>
  <path d="M5.979,15.463c.255,0,.51-.097,.705-.291l3.122-3.102c.264-.261,.696-.264,.96,0l1.195,1.188c1.044,1.036,2.738,1.035,3.78,0l3.744-3.72c-.044,.487-.153,1.064-.373,1.721-.176,.524,.106,1.091,.63,1.267,.105,.035,.213,.052,.318,.052,.418,0,.808-.264,.948-.682,.943-2.811,.295-4.625,.155-4.96-.099-.237-.285-.429-.521-.533-.203-.089-2.049-.839-4.982,.145-.523,.176-.806,.743-.63,1.266,.176,.524,.743,.804,1.267,.63,.709-.238,1.325-.346,1.836-.383l-3.802,3.777c-.263,.262-.695,.265-.96,0l-1.195-1.188c-1.043-1.036-2.737-1.034-3.78,0l-3.122,3.102c-.392,.389-.394,1.022-.004,1.414,.195,.197,.452,.295,.709,.295Z"/>
</svg>
