<svg id="Layer_1" viewBox="0 0 24 24" xmlns="http://www.w3.org/2000/svg" data-name="Layer 1"><path d="m2.269 9.383c-.362.026 5.1.684 9.731.617 1.096 0 2.091-.018 3-.047v.047c0 .552.448 1 1 1s1-.448 1-1v-.135c3.07-.176 4.638-.465 4.731-.482.305-.058.567-.254.707-.532.058-.114.562-1.161.562-2.851s-.504-2.737-.562-2.851c-.14-.278-.402-.474-.707-.532-.093-.017-1.661-.306-4.731-.482v-.135c0-.552-.448-1-1-1s-1 .448-1 1v.047c-.909-.029-1.904-.047-3-.047-4.592-.069-10.147.595-9.731.617-.305.058-.567.254-.707.532-.058.114-.562 1.161-.562 2.851s.504 2.737.562 2.851c.14.278.402.474.707.532zm18.537-4.886c.093.338.194.853.194 1.503s-.101 1.165-.194 1.503c-.667.094-1.952.243-3.806.354v-3.715c1.854.111 3.139.261 3.806.354zm-5.806-.447v3.901c-.907.03-1.901.05-3 .05v-4.001c1.099 0 2.093.02 3 .05zm-11.806.447c.98-.138 3.269-.398 6.806-.474v3.954c-3.537-.076-5.826-.336-6.806-.473-.093-.338-.194-.853-.194-1.503s.101-1.167.194-1.503zm18.537 10.12c-.127-.024-3.014-.554-8.731-.611v-.006c0-.552-.448-1-1-1s-1 .448-1 1v.006c-5.717.057-8.604.588-8.731.611-.305.058-.567.254-.707.532-.058.114-.562 1.161-.562 2.851s.504 2.737.562 2.851c.14.278.402.474.707.532.127.024 3.014.554 8.731.611v.006c0 .552.448 1 1 1s1-.448 1-1v-.006c5.717-.057 8.604-.588 8.731-.611.305-.058.567-.254.707-.532.058-.114.562-1.161.562-2.851s-.504-2.737-.562-2.851c-.14-.278-.402-.474-.707-.532zm-18.731 3.383c0-.652.101-1.167.194-1.503.539-.076 1.487-.189 2.806-.288v3.582c-1.319-.099-2.267-.212-2.806-.288-.093-.338-.194-.853-.194-1.503zm5 1.91v-3.819c.89-.041 1.89-.07 3-.082v3.983c-1.11-.012-2.11-.041-3-.082zm12.806-.406c-1.069.15-3.698.444-7.806.488v-3.983c4.108.044 6.737.338 7.806.488.093.338.194.853.194 1.503s-.101 1.165-.194 1.503z"/></svg>