<svg id="Layer_1" viewBox="0 0 24 24" xmlns="http://www.w3.org/2000/svg" data-name="Layer 1"><path d="m22.8 18.6c-1.193 1.594-2.606 3.007-4.2 4.2-.178.134-.389.2-.6.2s-.422-.066-.6-.2c-1.594-1.193-3.007-2.606-4.2-4.2-.332-.441-.242-1.068.2-1.399.442-.333 1.069-.242 1.399.2.655.874 1.407 1.663 2.2 2.41v-17.811c0-.553.447-1 1-1s1 .447 1 1v17.81c.793-.747 1.545-1.536 2.2-2.41.331-.442.958-.531 1.399-.2.442.331.532.958.2 1.399zm-11.8.4c-5.906 0-8-2.094-8-8s2.094-8 8-8c1.059 0 2.008.075 2.821.223.553.096 1.064-.264 1.163-.806.098-.544-.263-1.064-.806-1.163-.944-.171-1.983-.254-3.179-.254-7.009 0-9.999 2.99-9.999 10s2.99 10 10 10c.553 0 1-.447 1-1s-.447-1-1-1zm3.128-6.128c0-1.724-1.401-3.127-3.179-3.127-.456-.007-.823-.414-.821-.868 0-.483.394-.877.877-.877.371 0 .703.235.827.585.184.521.756.794 1.276.608.521-.184.793-.755.608-1.276-.29-.819-.932-1.44-1.717-1.732v-.185c0-.553-.447-1-1-1s-1 .447-1 1v.191c-1.09.41-1.872 1.455-1.872 2.686 0 1.52 1.187 2.781 2.704 2.871.676-.079 1.3.431 1.296 1.124 0 .622-.5 1.128-1.115 1.128-.531 0-1.057-.356-1.222-.83-.183-.521-.751-.795-1.274-.614-.521.183-.796.753-.614 1.274.335.956 1.135 1.696 2.098 2.008v.162c0 .553.447 1 1 1s1-.447 1-1v-.176c1.232-.417 2.128-1.576 2.128-2.952z"/></svg>