<svg id="Layer_1" viewBox="0 0 24 24" xmlns="http://www.w3.org/2000/svg" data-name="Layer 1"><path d="m7 6c0 .552-.448 1-1 1s-1-.448-1-1 .448-1 1-1 1 .448 1 1zm11-1c-.552 0-1 .448-1 1s.448 1 1 1 1-.448 1-1-.448-1-1-1zm-12 6c-.552 0-1 .448-1 1s.448 1 1 1 1-.448 1-1-.448-1-1-1zm12 0c-.552 0-1 .448-1 1s.448 1 1 1 1-.448 1-1-.448-1-1-1zm-2-2c0 2.691-1.309 4-4 4s-4-1.309-4-4 1.309-4 4-4 4 1.309 4 4zm-2 0c0-1.589-.411-2-2-2s-2 .411-2 2 .411 2 2 2 2-.411 2-2zm9 0c0 3.189-.744 6.434-.776 6.569-.092.398-.417.7-.821.763-.165.026-3.837.584-8.402.659v2.791c.427-.436.833-.892 1.2-1.381.331-.442.958-.531 1.399-.2.442.331.532.958.2 1.399-.91 1.214-1.986 2.29-3.2 3.2-.178.134-.389.2-.6.2s-.422-.066-.6-.2c-1.213-.909-2.29-1.985-3.2-3.2-.332-.441-.242-1.068.2-1.399.444-.33 1.07-.242 1.4.2.368.49.774.946 1.2 1.382v-2.791c-4.566-.075-8.238-.634-8.403-.659-.404-.062-.729-.364-.821-.763-.032-.136-.776-3.38-.776-6.569s.744-6.434.776-6.569c.092-.398.417-.7.821-.763.177-.027 4.384-.668 9.403-.668s9.226.641 9.402.668c.404.062.729.364.821.763.032.136.776 3.38.776 6.569zm-2 0c0-2.137-.375-4.367-.585-5.449-1.386-.18-4.708-.551-8.415-.551s-7.03.371-8.415.551c-.21 1.082-.585 3.312-.585 5.449s.375 4.367.585 5.449c1.385.18 4.707.551 8.415.551s7.029-.371 8.415-.551c.21-1.082.585-3.312.585-5.449z"/></svg>