<svg id="Layer_1" viewBox="0 0 24 24" xmlns="http://www.w3.org/2000/svg" data-name="Layer 1"><path d="m21.96 4.73c-.1-.33-.36-.59-.69-.69-.07-.02-.88-.24-2.27-.48v-1.56c0-.55-.45-1-1-1s-1 .45-1 1v1.28c-1.39-.16-3.07-.28-5-.28s-3.61.12-5 .28v-1.28c0-.55-.45-1-1-1s-1 .45-1 1v1.56c-1.4.24-2.21.46-2.27.48-.33.1-.59.36-.69.69-.03.11-.75 2.65-.97 6.21-.03.55.38 1.03.94 1.06.56.04 1.03-.38 1.06-.93.02-.38.06-.75.09-1.11.66-.17 3.98-.96 8.85-.96s8.17.78 8.84.95c.09.93.16 1.96.16 3.05 0 3.28-.56 6.04-.82 7.17-1.17.26-4.12.83-8.18.83s-7.01-.56-8.18-.83c-.08-.33-.18-.79-.28-1.35-.1-.54-.62-.91-1.16-.8-.54.1-.9.62-.8 1.16.24 1.28.46 2.06.47 2.09.09.33.35.59.69.69.15.04 3.7 1.04 9.27 1.04s9.13-1 9.27-1.04c.33-.1.59-.36.69-.69.04-.15 1.04-3.69 1.04-8.27s-1-8.13-1.04-8.27zm-9.96 2.27c-4.1 0-7.12.52-8.57.84.14-.87.29-1.57.4-2.01 1.17-.26 4.12-.83 8.18-.83s7.01.56 8.18.83c.1.44.25 1.14.39 2.01-1.45-.31-4.47-.84-8.57-.84zm-10 9c-.55 0-1-.45-1-1s.45-1 1-1h6.73c-.27-.24-.54-.48-.83-.7-.44-.33-.53-.96-.2-1.4s.96-.53 1.4-.2c1.02.77 1.93 1.68 2.7 2.7.27.36.27.84 0 1.2-.77 1.02-1.68 1.93-2.7 2.7-.44.33-1.07.25-1.4-.2-.33-.44-.24-1.07.2-1.4.29-.22.57-.46.83-.7z"/></svg>