<svg id="Layer_1" viewBox="0 0 24 24" xmlns="http://www.w3.org/2000/svg" data-name="Layer 1"><path d="m17.305 9.539c-1.312 2.053-3.18 4.626-6.001 6.319-.324.195-.731.19-1.05-.013-1.52-.963-2.661-1.995-3.594-3.248-.33-.443-.238-1.069.205-1.399.442-.33 1.069-.237 1.398.205.674.905 1.488 1.679 2.536 2.405 2.16-1.46 3.644-3.507 4.819-5.346.299-.466.917-.602 1.381-.304.466.298.602.916.305 1.381zm5.695 2.461c0 7.71-3.29 11-11 11s-11-3.29-11-11 3.29-11 11-11 11 3.29 11 11zm-2 0c0-6.561-2.439-9-9-9s-9 2.439-9 9 2.439 9 9 9 9-2.439 9-9z"/></svg>