<svg id="Layer_1" viewBox="0 0 24 24" xmlns="http://www.w3.org/2000/svg" data-name="Layer 1"><path d="m2.198 7.098c-.33-.443-.238-1.069.205-1.399.443-.331 1.07-.238 1.399.204 1.104 1.483 2.449 2.736 4.201 3.912 3.472-2.251 5.813-5.471 7.655-8.353.298-.465.915-.602 1.381-.305.465.298.602.916.304 1.381-1.938 3.033-4.694 6.834-8.837 9.319-.324.194-.73.19-1.05-.013-2.224-1.409-3.895-2.918-5.257-4.747zm20.316 1.045c-.475-.285-1.088-.132-1.372.343-3.129 5.215-7.176 9.466-11.732 12.331-2.408-1.621-4.683-3.828-6.608-6.414-.33-.442-.957-.535-1.399-.204-.443.33-.535.956-.205 1.399 2.208 2.965 4.857 5.471 7.661 7.247.32.203.725.207 1.05.013 5.053-3.032 9.531-7.646 12.949-13.343.284-.474.131-1.088-.343-1.372z"/></svg>