<svg id="Layer_1" viewBox="0 0 24 24" xmlns="http://www.w3.org/2000/svg" data-name="Layer 1"><path d="m22.448 9.684c-.055-.072-.074-.157-.116-.238-.171-.257-4.275-6.32-11.027-8.401-.174-.054-.355-.06-.53-.016-5.635 1.365-9.631 6.398-9.717 12.239-.083 1.709-.081 3.971.08 5.573.169 1.816 1.542 3.292 3.339 3.588 1.581.261 4.171.571 7.523.571 6.07 0 9.626-.996 9.774-1.038.317-.091.57-.333.674-.646.057-.17.552-1.771.552-5.816s-.495-5.647-.552-5.816zm-11.469-6.644c3.572 1.178 6.345 3.654 7.994 5.445-1.661-.247-4.016-.484-6.974-.484-3.353 0-5.942.311-7.523.571-.099.016-.192.049-.289.073 1.337-2.702 3.767-4.788 6.792-5.604zm9.688 17.134c-1.193.265-4.242.826-8.667.826-3.218 0-5.69-.296-7.198-.544-.9-.148-1.588-.889-1.672-1.801-.086-.926-.13-1.988-.13-3.155s.044-2.229.13-3.155c.084-.912.771-1.652 1.671-1.8 1.509-.249 3.981-.544 7.199-.544 4.424 0 7.473.561 8.666.826.134.709.334 2.186.334 4.674s-.2 3.968-.333 4.674z"/></svg>