<svg id="Layer_1" viewBox="0 0 24 24" xmlns="http://www.w3.org/2000/svg" data-name="Layer 1"><path d="m22.463 2.303c-.127-.294-.389-.51-.703-.579-.134-.03-3.361-.724-9.76-.724s-9.626.694-9.76.724c-.314.069-.575.285-.703.579-.055.127-.537 1.295-.537 3.197s.482 3.07.537 3.197c.127.294.389.51.703.579.037.008.32.068.833.149-.045.837-.073 1.697-.073 2.574 0 6.103 1.079 9.206 1.125 9.335.099.278.315.498.591.602.116.043 2.887 1.063 7.284 1.063s7.168-1.02 7.284-1.063c.276-.104.492-.324.591-.602.046-.129 1.125-3.232 1.125-9.335 0-.878-.028-1.737-.073-2.574.513-.081.796-.141.833-.149.314-.069.575-.285.703-.579.055-.127.537-1.295.537-3.197s-.482-3.07-.537-3.197zm-13.463 7.642v4.055h-3.953c-.027-.628-.047-1.284-.047-2 0-.791.025-1.564.063-2.321 1.029.106 2.339.206 3.937.266zm-3.125 10.263c-.18-.671-.495-2.087-.694-4.208h7.818v4.979c-.323.013-.655.021-1 .021-3.025 0-5.22-.528-6.125-.792zm9.125.614v-4.822h3.818c-.199 2.123-.514 3.539-.693 4.208-.57.165-1.651.435-3.125.613zm4-8.822c0 .716-.02 1.372-.047 2h-7.953v-4.007c.326.004.656.007 1 .007 3.018 0 5.322-.155 6.937-.321.038.756.063 1.53.063 2.321zm1.775-4.577c-1.154.189-4.096.577-8.775.577s-7.621-.388-8.775-.577c-.104-.413-.225-1.073-.225-1.923s.121-1.512.225-1.923c1.154-.189 4.096-.577 8.775-.577s7.621.388 8.775.577c.104.413.225 1.073.225 1.923s-.121 1.511-.225 1.923z"/></svg>