<svg id="Layer_1" viewBox="0 0 24 24" xmlns="http://www.w3.org/2000/svg" data-name="Layer 1"><path d="m2.036 7.726c.051.011 1.258.273 2.464.273s2.414-.262 2.464-.273c.381-.083.679-.381.762-.762.011-.051.273-1.258.273-2.464s-.262-2.414-.273-2.464c-.083-.381-.381-.679-.762-.762-.051-.011-1.258-.273-2.464-.273s-2.414.262-2.464.273c-.381.083-.679.381-.762.762-.011.051-.273 1.258-.273 2.464s.262 2.414.273 2.464c.083.381.381.679.762.762zm1.077-4.613c.77-.113 2.003-.113 2.773 0 .057.385.113.893.113 1.387s-.057 1.001-.113 1.387c-.77.113-2.003.113-2.773 0-.057-.385-.113-.893-.113-1.387s.057-1.001.113-1.387zm6.16 3.851c-.011-.051-.273-1.258-.273-2.464s.262-2.414.273-2.464c.083-.381.381-.679.762-.762.051-.011 1.258-.273 2.464-.273s2.414.262 2.464.273c.381.083.679.381.762.762.011.051.273 1.258.273 2.464s-.262 2.414-.273 2.464c-.083.381-.381.679-.762.762-.051.011-1.258.273-2.464.273s-2.414-.262-2.464-.273c-.381-.083-.679-.381-.762-.762zm-1.546 8c.011-.051.273-1.258.273-2.464s-.262-2.414-.273-2.464c-.083-.381-.381-.679-.762-.762-.051-.011-1.258-.273-2.464-.273s-2.414.262-2.464.273c-.381.083-.679.381-.762.762-.011.051-.273 1.258-.273 2.464s.262 2.414.273 2.464c.083.381.381.679.762.762.051.011 1.258.273 2.464.273s2.414-.262 2.464-.273c.381-.083.679-.381.762-.762zm-1.84-1.077c-.77.113-2.003.113-2.773 0-.057-.385-.113-.893-.113-1.387s.057-1.001.113-1.387c.77-.113 2.003-.113 2.773 0 .057.385.113.893.113 1.387s-.057 1.001-.113 1.387zm17.113 5.646c0 .752-.029 1.902-.083 2.549-.043.552-.536.961-1.079.914-.55-.045-.959-.529-.914-1.079.035-.423.06-1.127.07-1.757-1.863-.855-3.869-1.402-6.111-1.667-.503-.06-.883-.486-.883-.993v-4.269c0-1.148-.378-1.231-1-1.231s-1 .083-1 1.23l-.004 7.574c0 .443-.291.833-.716.958-.423.125-.881-.042-1.122-.414-.861-1.322-1.777-2.148-1.786-2.157-.25-.217-.588-.255-.894-.097-.286.149-.481.442-.472.692.099.246.373.907.793 1.751.246.495.044 1.095-.45 1.341-.496.245-1.095.043-1.341-.45-.665-1.379-.866-1.865-.959-2.2-.217-1.136.401-2.331 1.504-2.907 1.029-.537 2.262-.393 3.14.368.017.015.129.115.305.291l.002-4.752c0-2.052 1.094-3.229 3-3.229s3 1.177 3 3.23v3.396c2.328.359 4.494 1.035 6.448 2.012.339.169.553.516.553.895z"/></svg>