<svg id="Layer_1" viewBox="0 0 24 24" xmlns="http://www.w3.org/2000/svg" data-name="Layer 1"><path d="m21.5 19.533c0 .752-.029 1.902-.082 2.549-.044.552-.537.961-1.079.914-.551-.045-.96-.529-.915-1.079.035-.423.06-1.127.07-1.757-1.862-.855-3.869-1.402-6.111-1.667-.504-.06-.883-.486-.883-.993v-4.269c0-1.148-.378-1.231-1-1.231s-1 .083-1 1.23l-.004 7.574c0 .443-.292.833-.716.958s-.88-.042-1.122-.414c-.861-1.322-1.777-2.148-1.786-2.157-.25-.217-.589-.255-.894-.097-.286.149-.481.442-.472.692.099.246.373.907.793 1.751.246.495.044 1.095-.45 1.341-.495.245-1.095.043-1.341-.45-.665-1.379-.866-1.865-.959-2.2-.217-1.136.401-2.331 1.504-2.907 1.03-.537 2.262-.393 3.14.368.017.015.129.115.305.291l.002-4.752c0-2.052 1.094-3.229 3-3.229s3 1.177 3 3.23v3.396c2.328.359 4.493 1.035 6.447 2.012.339.169.553.516.553.895zm-11-14.732v2.199c0 .552.448 1 1 1s1-.448 1-1v-2.199c.647-.291 1-.901 1-1.801 0-1.29-.71-2-2-2s-2 .71-2 2c0 .9.353 1.51 1 1.801zm5.001 4.999c.175 0 .353-.046.514-.143l1.452-.871c.287.136.628.214 1.033.214 1.29 0 2-.71 2-2s-.71-2-2-2-2 .71-2 2c0 .011.002.021.002.032l-1.517.91c-.474.284-.627.898-.343 1.372.187.312.519.485.858.485zm-9.968-1.014 1.452.871c.466.281 1.086.135 1.372-.343.284-.474.131-1.088-.343-1.372l-1.517-.91c0-.011.002-.021.002-.032 0-1.29-.71-2-2-2s-2 .71-2 2 .71 2 2 2c.405 0 .746-.078 1.033-.214z"/></svg>