<svg id="Layer_1" viewBox="0 0 24 24" xmlns="http://www.w3.org/2000/svg" data-name="Layer 1"><path d="m22.843 9.205c-1.173 1.835-2.843 4.136-5.37 5.652-.324.194-.731.19-1.05-.013-1.362-.863-2.387-1.789-3.225-2.914-.33-.443-.238-1.069.204-1.399.444-.332 1.069-.239 1.399.205.578.776 1.275 1.443 2.166 2.069 1.87-1.284 3.162-3.07 4.189-4.677.298-.465.917-.602 1.381-.304.466.297.602.916.305 1.381zm-7.298 8.117c-1.056 1.145-2.817 1.678-5.545 1.678-5.168 0-7-1.832-7-7s1.832-7 7-7c4.78 0 5.993 1.757 6.549 3.475.17.525.73.813 1.259.644.525-.17.813-.734.644-1.259-1.408-4.356-5.497-4.86-8.451-4.86-6.31 0-9.001 2.691-9.001 9 0 6.225 2.775 9 9 9 3.325 0 5.554-.738 7.016-2.322.374-.405.349-1.038-.058-1.413-.405-.373-1.038-.349-1.413.058zm-5.545-2.322c-.552 0-1 .448-1 1s.448 1 1 1 1-.448 1-1-.448-1-1-1zm1-7c0-.552-.447-1-1-1s-1 .448-1 1v5c0 .553.447 1 1 1s1-.447 1-1z"/></svg>