<svg id="Layer_1" viewBox="0 0 24 24" xmlns="http://www.w3.org/2000/svg" data-name="Layer 1"><path d="m12 1c-4.722 0-11 1.14-11 11 0 9.75 5.879 11 11 11s11-1.25 11-11-5.879-11-11-11zm0 20c-5.402 0-9-1.53-9-9 0-6.393 2.607-9 9-9 5.402 0 9 1.53 9 9s-3.598 9-9 9z"/><path d="m14.795 11.206c.344-.529.524-1.21.524-2.025 0-1.451-.576-3.18-3.32-3.18-.865 0-3.499 0-3.499 3 0 .552.447 1 1 1s1-.448 1-1c0-.711.058-1 1.499-1 1.086 0 1.32.209 1.32 1.18 0 1.024-.296 1.32-1.32 1.32-.553 0-1 .448-1 1s.447 1 1 1c1.646 0 2.001.298 2.001 1.68 0 1.412-.449 1.82-2.001 1.82-1.476 0-1.999-.523-1.999-2 0-.552-.447-1-1-1s-1 .448-1 1c0 2.58 1.42 4 3.999 4 2.655 0 4.001-1.285 4.001-3.82 0-1.558-.521-2.457-1.205-2.975z"/></svg>