<svg id="Layer_1" viewBox="0 0 24 24" xmlns="http://www.w3.org/2000/svg" data-name="Layer 1"><path d="m12 1c-7.71 0-11 3.29-11 11s3.29 11 11 11 11-3.29 11-11-3.29-11-11-11zm0 20c-6.561 0-9-2.439-9-9s2.439-9 9-9 9 2.439 9 9-2.439 9-9 9zm4.012-11.694c-.568-.073-1.094-.133-1.59-.18-.23-.527-.482-1.063-.752-1.602-.331-.649-.948-1.05-1.67-1.025-.686-.018-1.338.375-1.672 1.031-.269.535-.52 1.069-.75 1.596-.496.046-1.021.106-1.59.18-.726.093-1.334.605-1.549 1.301-.218.7-.004 1.466.601 2.002.342.304.676.601 1.009.891-.155.595-.29 1.19-.402 1.775-.132.692.13 1.392.688 1.828.559.435 1.303.517 1.938.221.606-.281 1.176-.574 1.729-.89.552.315 1.122.608 1.727.888.637.298 1.382.214 1.942-.222.555-.434.816-1.134.685-1.825-.111-.585-.247-1.18-.402-1.775.337-.294.685-.602 1.064-.94.549-.487.763-1.254.545-1.954-.217-.697-.824-1.208-1.549-1.301zm-1.84 3.087c-.299.254-.422.66-.313 1.038.188.659.351 1.32.481 1.971-.642-.306-1.239-.628-1.82-.982-.159-.097-.34-.146-.52-.146s-.36.048-.52.146c-.581.354-1.178.675-1.82.982.131-.65.293-1.312.481-1.971.108-.377-.015-.783-.313-1.038-.42-.357-.837-.726-1.303-1.139.655-.081 1.249-.143 1.811-.185.377-.028.705-.266.85-.615.244-.588.518-1.192.814-1.795.298.605.571 1.208.814 1.795.145.349.473.587.85.615.562.042 1.155.104 1.811.185-.441.392-.871.772-1.303 1.139z"/></svg>