<svg id="Layer_1" viewBox="0 0 24 24" xmlns="http://www.w3.org/2000/svg" data-name="Layer 1"><path d="m15.26 6.429c-.065-.018-1.615-.429-3.26-.429-1.979 0-3.345.588-3.401.613-.506.222-.736.812-.515 1.317.223.506.811.737 1.317.515.011-.005 1.059-.445 2.599-.445.623 0 1.243.074 1.735.154-.307.975-.841 2.501-1.55 3.889-1.619 3.169-2.802 4.168-2.804 4.171-.435.341-.521.98-.168 1.404.544.653 1.222.312 1.404.167.15-.118 1.523-1.26 3.349-4.832 1.25-2.446 1.971-5.192 2.001-5.308.139-.531-.178-1.075-.708-1.217z"/><path d="m12 1c-4.722 0-11 1.14-11 11 0 9.75 5.879 11 11 11s11-1.25 11-11-5.879-11-11-11zm0 20c-5.402 0-9-1.53-9-9 0-6.393 2.607-9 9-9 5.402 0 9 1.53 9 9s-3.598 9-9 9z"/></svg>