<svg id="Layer_1" viewBox="0 0 24 24" xmlns="http://www.w3.org/2000/svg" data-name="Layer 1"><path d="m12 1c-7.71 0-11 3.29-11 11s3.29 11 11 11 11-3.29 11-11-3.29-11-11-11zm0 20c-6.561 0-9-2.439-9-9s2.439-9 9-9 9 2.439 9 9-2.439 9-9 9zm4.29-12.886-6.018 7.736c.525.083 1.133.149 1.729.149 1.562 0 3.212-.458 3.229-.463.531-.148 1.084.16 1.233.692.149.531-.16 1.083-.691 1.232-.078.022-1.926.538-3.771.538s-3.694-.516-3.771-.538c-.32-.09-.575-.334-.679-.649-.104-.316-.043-.664.161-.927l6.018-7.736c-.525-.083-1.133-.149-1.729-.149-1.562 0-3.212.458-3.229.463-.531.149-1.083-.16-1.233-.692-.149-.531.16-1.083.691-1.232.078-.022 1.926-.538 3.771-.538s3.694.516 3.771.538c.32.09.575.334.679.649.104.316.043.664-.161.927z"/></svg>