<svg id="Layer_1" viewBox="0 0 24 24" xmlns="http://www.w3.org/2000/svg" data-name="Layer 1"><path d="m12 1c-4.722 0-11 1.14-11 11 0 9.75 5.878 11 11 11s11-1.25 11-11-5.878-11-11-11zm0 20c-5.402 0-9-1.53-9-9 0-6.393 2.607-9 9-9 5.402 0 9 1.53 9 9s-3.598 9-9 9z"/><path d="m15.197 13.047s-.071.022-.197.054v-6.101c0-.27-.109-.527-.302-.716-.193-.188-.454-.302-.723-.284-.098.002-2.425.085-4.256 2.375-2.194 2.742-2.219 5.508-2.219 5.625 0 .405.245.771.619.925.057.023 1.419.575 3.381.575.542 0 1.044-.023 1.5-.061v1.561c0 .552.448 1 1 1s1-.448 1-1v-1.846c.494-.104.777-.193.805-.202.525-.168.813-.729.646-1.254-.166-.525-.727-.815-1.254-.651zm-2.197.385c-.446.041-.949.068-1.5.068-.787 0-1.451-.11-1.914-.218.151-.824.565-2.246 1.694-3.658.578-.722 1.208-1.124 1.719-1.347v5.154z"/></svg>