<svg id="Layer_1" viewBox="0 0 24 24" xmlns="http://www.w3.org/2000/svg" data-name="Layer 1"><path d="m12 1c-4.722 0-11 1.14-11 11 0 9.75 5.879 11 11 11s11.404-.974 11.404-10.723-6.283-11.277-11.404-11.277zm0 20c-5.402 0-9-1.53-9-9 0-6.393 2.607-9 9-9 5.402 0 9 1.53 9 9s-3.598 9-9 9z"/><path d="m14.558 15.604c-.009.004-.853.396-2.558.396-.949 0-1.534-.2-1.859-.367.16-.401.483-.99 1.12-1.566.52-.471 1.104-.783 1.668-1.085 1.146-.613 2.571-1.376 2.571-3.481 0-1.995-1.459-3.5-3.394-3.5-1.571 0-2.848.748-3.501 2.052-.247.494-.047 1.094.446 1.342.497.249 1.095.047 1.343-.446.392-.783 1.147-.948 1.712-.948.82 0 1.394.617 1.394 1.5 0 .866-.364 1.102-1.515 1.718-.64.342-1.364.73-2.066 1.365-1.648 1.492-1.89 3.116-1.911 3.296-.031.254.036.51.188.715.105.144 1.116 1.406 3.804 1.406 2.198 0 3.333-.547 3.455-.609.487-.249.678-.84.436-1.33-.242-.491-.843-.694-1.333-.457z"/></svg>