<svg id="Layer_1" viewBox="0 0 24 24" xmlns="http://www.w3.org/2000/svg" data-name="Layer 1"><path d="m16.717 7.468c-.047-.01-.705-.151-1.706-.276-.348-1.011-.632-1.497-.668-1.556-.146-.241-.387-.41-.664-.463-.037-.007-.898-.173-1.679-.173s-1.643.166-1.679.173c-.277.054-.518.222-.664.463-.035.059-.32.545-.668 1.556-1.001.125-1.659.265-1.706.276-.368.082-.659.363-.752.729-.022.084-.531 2.097-.531 3.803s.509 3.719.531 3.803c.093.365.384.647.752.729.086.019 2.137.468 4.717.468s4.631-.449 4.717-.468c.368-.082.659-.363.752-.729.022-.084.531-2.097.531-3.803s-.509-3.719-.531-3.803c-.093-.365-.384-.647-.752-.729zm-1.047 7.225c-.751.125-2.115.307-3.67.307s-2.919-.182-3.67-.307c-.138-.667-.33-1.76-.33-2.693s.192-2.026.33-2.693c.751-.125 2.115-.307 3.67-.307s2.919.182 3.67.307c.138.667.33 1.76.33 2.693s-.192 2.026-.33 2.693zm-3.67-13.693c-7.71 0-11 3.29-11 11s3.29 11 11 11 11-3.29 11-11-3.29-11-11-11zm0 20c-6.561 0-9-2.439-9-9s2.439-9 9-9 9 2.439 9 9-2.439 9-9 9zm2-9c0 1.429-.571 2-2 2s-2-.571-2-2 .571-2 2-2 2 .571 2 2z"/></svg>