<svg id="Layer_1" viewBox="0 0 24 24" xmlns="http://www.w3.org/2000/svg" data-name="Layer 1"><path d="m12 1c-7.71 0-11 3.29-11 11s3.29 11 11 11 11-3.29 11-11-3.29-11-11-11zm0 20c-6.561 0-9-2.439-9-9s2.439-9 9-9 9 2.439 9 9-2.439 9-9 9zm1.571-14.823c-.26 1.453-.571 3.643-.571 5.823s.311 4.37.571 5.823c.097.544-.264 1.063-.808 1.161-.531.099-1.065-.261-1.161-.808-.274-1.533-.602-3.85-.602-6.177s.328-4.644.602-6.177c.098-.543.619-.906 1.161-.808.544.098.905.617.808 1.161zm-4.414 2.925c-.104 1.026-.157 2.002-.157 2.898s.053 1.872.157 2.898c.056.55-.344 1.04-.894 1.097-.54.057-1.042-.343-1.096-.894-.111-1.095-.168-2.138-.168-3.102s.057-2.007.168-3.102c.056-.549.545-.938 1.096-.894.55.057.95.547.894 1.097zm8.112-.974c-.179 1.39-.27 2.692-.27 3.872s.091 2.482.27 3.872c.071.548-.316 1.049-.864 1.12-.537.071-1.051-.314-1.119-.864-.19-1.475-.286-2.863-.286-4.128s.096-2.653.286-4.128c.07-.548.576-.926 1.119-.864.548.071.935.572.864 1.12z"/></svg>