<svg id="Layer_1" viewBox="0 0 24 24" xmlns="http://www.w3.org/2000/svg" data-name="Layer 1"><path d="m17.493 9.13c-.313-.179-.697-.172-1.007.013-.249.149-.712.444-1.182.813-.106-.526-.22-.846-.243-.907-.104-.275-.324-.492-.601-.591-.132-.047-1.356-.458-3.71-.458s-3.579.411-3.71.458c-.277.099-.498.315-.601.591-.045.12-.438 1.22-.438 2.951s.394 2.831.438 2.951c.104.275.324.492.601.591.132.047 1.356.458 3.71.458s3.579-.411 3.71-.458c.277-.099.498-.315.601-.591.023-.061.137-.383.243-.911.419.35.866.663 1.247.854.309.154.678.139.973-.044.295-.182.475-.504.475-.851v-4c0-.36-.194-.692-.507-.87zm-4.177 4.645c-.488.1-1.346.226-2.566.226s-2.08-.126-2.566-.226c-.086-.391-.184-1.004-.184-1.774s.098-1.385.184-1.774c.488-.1 1.346-.226 2.566-.226s2.08.126 2.566.226c.086.391.184 1.004.184 1.774s-.098 1.384-.184 1.774zm-1.316-12.775c-7.71 0-11 3.29-11 11s3.29 11 11 11 11-3.29 11-11-3.29-11-11-11zm0 20c-6.561 0-9-2.439-9-9s2.439-9 9-9 9 2.439 9 9-2.439 9-9 9z"/></svg>