<svg id="Layer_1" viewBox="0 0 24 24" xmlns="http://www.w3.org/2000/svg" data-name="Layer 1"><path d="m15.986 8.014c-.145-4.84-2.467-7.014-7.486-7.014-5.187 0-7.5 2.313-7.5 7.5 0 5.019 2.175 7.341 7.014 7.486.145 4.84 2.467 7.014 7.486 7.014 5.187 0 7.5-2.313 7.5-7.5 0-5.019-2.175-7.341-7.014-7.486zm-12.986.486c0-4.112 1.388-5.5 5.5-5.5 3.967 0 5.394 1.299 5.491 5.081-3.648.384-5.525 2.262-5.91 5.91-3.782-.096-5.081-1.524-5.081-5.491zm12.5 12.5c-3.967 0-5.394-1.299-5.491-5.081 3.648-.384 5.525-2.262 5.91-5.91 3.782.096 5.081 1.524 5.081 5.491 0 4.112-1.388 5.5-5.5 5.5z"/></svg>