<svg id="Layer_1" viewBox="0 0 24 24" xmlns="http://www.w3.org/2000/svg" data-name="Layer 1"><path d="m12 1c-4.722 0-11 1.14-11 11 0 9.75 5.878 11 11 11s11-1.25 11-11-5.879-11-11-11zm0 20c-5.402 0-9-1.53-9-9 0-6.393 2.607-9 9-9 5.402 0 9 1.53 9 9s-3.598 9-9 9z"/><path d="m12.007 10.207c-.76 0-1.382.111-1.89.304.386-1.953 1.633-2.439 3.447-2.511.552-.022.981-.487.959-1.039s-.495-.979-1.039-.959c-3.697.148-5.494 2.109-5.494 5.995 0 0-.019 1.893 0 2.157.017 2.553 1.368 3.848 4.017 3.848 2.666 0 4.017-1.311 4.017-3.897s-1.352-3.896-4.017-3.896zm0 5.793c-1.584 0-2.018-.408-2.018-1.897 0-1.454.471-1.896 2.018-1.896 1.565 0 2.017.425 2.017 1.896s-.452 1.897-2.017 1.897z"/></svg>