<svg id="Layer_1" viewBox="0 0 24 24" xmlns="http://www.w3.org/2000/svg" data-name="Layer 1"><path d="m1 12c0 9.75 5.879 11 11 11s11-1.25 11-11-5.878-11-11-11-11 1.25-11 11zm2 0c0-7.47 3.598-9 9-9s9 1.53 9 9-3.598 9-9 9-9-1.53-9-9z"/><path d="m15.111 15.175c-.821-.436-1.342-1.282-1.357-2.202l-.003-.142c-.457-.221-1.235-.377-1.752-.388-.525.005-1.296.152-1.752.366v.137c-.007.924-.52 1.765-1.341 2.197-.717.376-1.571.381-2.284.013-.823-.423-1.327-1.264-1.32-2.141-.008-.078-.163-1.918 1.443-3.022 1.472-.986 3.686-1.447 5.246-1.466 1.542.036 3.775.498 5.244 1.523 1.522 1.062 1.48 2.775 1.468 2.997.007.922-.491 1.751-1.306 2.165-.711.36-1.565.347-2.285-.037z"/></svg>