<svg id="Layer_1" viewBox="0 0 24 24" xmlns="http://www.w3.org/2000/svg" data-name="Layer 1"><path d="m14.5 5h-1c-.552 0-1 .448-1 1s.448 1 1 1h1c.552 0 1-.448 1-1s-.448-1-1-1z"/><path d="m18.5 5h-1c-.552 0-1 .448-1 1s.448 1 1 1h1c.552 0 1-.448 1-1s-.448-1-1-1z"/><path d="m14.5 9h-1c-.552 0-1 .448-1 1s.448 1 1 1h1c.552 0 1-.448 1-1s-.448-1-1-1z"/><path d="m18.5 9h-1c-.552 0-1 .448-1 1s.448 1 1 1h1c.552 0 1-.448 1-1s-.448-1-1-1z"/><path d="m14.5 13h-1c-.552 0-1 .448-1 1s.448 1 1 1h1c.552 0 1-.448 1-1s-.448-1-1-1z"/><path d="m18.5 13h-1c-.552 0-1 .448-1 1s.448 1 1 1h1c.552 0 1-.448 1-1s-.448-1-1-1z"/><path d="m14.5 17h-1c-.552 0-1 .448-1 1s.448 1 1 1h1c.552 0 1-.448 1-1s-.448-1-1-1z"/><path d="m18.5 17h-1c-.552 0-1 .448-1 1s.448 1 1 1h1c.552 0 1-.448 1-1s-.448-1-1-1z"/><path d="m5.5 11h1.5c.552 0 1-.448 1-1s-.448-1-1-1h-1.5c-.552 0-1 .448-1 1s.448 1 1 1z"/><path d="m7 13h-1.5c-.552 0-1 .448-1 1s.448 1 1 1h1.5c.552 0 1-.448 1-1s-.448-1-1-1z"/><path d="m7 17h-1.5c-.552 0-1 .448-1 1s.448 1 1 1h1.5c.552 0 1-.448 1-1s-.448-1-1-1z"/><path d="m22.304 2.986c-.052-.314-.252-.585-.537-.729-.102-.051-2.533-1.257-5.759-1.257s-5.777 1.03-5.885 1.074c-.376.153-.623.52-.623.926v.457c-.838-.583-1.695-1.131-1.965-1.302-.332-.21-.755-.207-1.083.008 0 0-2.283 1.495-3.027 2.019-.79.555-1.234 1.038-1.375 1.5-.195.485-1.049 2.863-1.049 7.318 0 4.85 1.002 8.156 1.044 8.294.048.156.133.297.249.413.216.216 1.458 1.293 4.707 1.293 1.773 0 2.922-.495 3.61-.898.906.305 2.981.898 5.398.898 3.211 0 5.764-1.031 5.871-1.075.336-.138.572-.447.614-.808.021-.175.507-4.347.507-9.117s-.668-8.844-.696-9.014zm-18.433 17.41c-.235-.9-.871-3.684-.871-7.396 0-4.44.906-6.575.913-6.591s.014-.031.02-.047c.053-.064.222-.248.643-.544.502-.353 1.72-1.158 2.431-1.625.988.642 1.996 1.34 2.494 1.746v14.494c-.506.278-1.279.567-2.5.567-1.834 0-2.779-.407-3.129-.604zm16.702-.129c-.845.271-2.576.733-4.564.733-1.899 0-3.588-.429-4.476-.703-.01-.016-.021-.031-.032-.045v-16.541c.874-.274 2.573-.711 4.508-.711 1.982 0 3.638.545 4.403.847.178 1.245.589 4.515.589 8.153 0 3.603-.293 6.932-.428 8.267z"/></svg>