<svg id="Layer_1" viewBox="0 0 24 24" xmlns="http://www.w3.org/2000/svg" data-name="Layer 1"><path d="m10.839 11.07c-.506-.2-1.084.042-1.293.547-.022.054-.546 1.334-.546 2.884s.523 2.828.546 2.883c.21.509.798.745 1.293.546 1.741-.692 3.164-1.577 4.35-2.704.199-.188.312-.45.312-.725s-.112-.536-.311-.725c-1.188-1.129-2.61-2.014-4.351-2.706zm.275 4.552c-.064-.328-.114-.714-.114-1.121s.05-.795.115-1.123c.676.332 1.287.704 1.841 1.123-.554.417-1.165.79-1.842 1.121zm10.856-11.864c-.082-.332-.329-.599-.653-.706-.129-.043-3.225-1.052-9.316-1.052-2.514-.233-9.869.947-9.316 1.052-.324.107-.571.374-.653.706-.042.168-1.03 4.166-1.03 8.242s.988 8.074 1.03 8.242c.082.332.329.599.653.706.129.043 3.225 1.052 9.316 1.052s9.187-1.009 9.316-1.052c.324-.107.571-.374.653-.706.042-.168 1.03-4.166 1.03-8.242s-.988-8.074-1.03-8.242zm-1.87 1.034c.105.484.318 1.272.466 2.208h-2.673zm-2.395-.433-2.64 2.641h-2.859l2.9-2.9c1.005.066 1.865.159 2.6.259zm-8.066-.298c.825-.039 1.798-.074 2.732-.056l-2.994 2.994h-2.677l2.939-2.939zm-5.797.744c.519-.127 1.43-.317 2.706-.481l-2.676 2.676h-.437c.148-.935.302-1.71.407-2.194zm16.316 14.389c-1.081.265-3.816.806-8.158.806s-7.079-.541-8.158-.806c-.264-1.218-.842-4.222-.842-7.194 0-1.021.071-2.043.172-3h17.657c.1.956.171 1.977.171 3 0 2.966-.578 5.976-.842 7.194z"/></svg>