<svg id="Layer_1" viewBox="0 0 24 24" xmlns="http://www.w3.org/2000/svg" data-name="Layer 1"><path d="m21.97 3.758c-.082-.332-.329-.599-.653-.706-.129-.043-3.225-1.052-9.316-1.052-2.514-.233-9.872.948-9.316 1.052-.324.107-.571.374-.654.706-.042.168-1.03 4.166-1.03 8.242s.988 8.074 1.03 8.242c.083.332.33.599.654.706.129.043 3.224 1.052 9.316 1.052s9.187-1.009 9.316-1.052c.324-.107.571-.374.653-.706.042-.168 1.03-4.166 1.03-8.242s-.988-8.074-1.03-8.242zm-1.87 1.034c.105.484.318 1.272.466 2.208h-2.673zm-2.395-.433-2.64 2.641h-2.859l2.9-2.9c1.005.066 1.865.159 2.6.259zm-8.065-.298c.824-.039 1.798-.074 2.732-.055l-2.994 2.994h-2.677zm-5.798.745c.519-.127 1.43-.317 2.706-.481l-2.676 2.676h-.437c.148-.935.302-1.71.407-2.194zm16.316 14.389c-1.081.265-3.816.806-8.158.806s-7.08-.541-8.159-.806c-.264-1.218-.841-4.222-.841-7.194 0-1.021.071-2.043.172-3h17.657c.1.956.171 1.977.171 3 0 2.966-.578 5.976-.842 7.194z"/></svg>