<svg id="Layer_1" viewBox="0 0 24 24" xmlns="http://www.w3.org/2000/svg" data-name="Layer 1"><path d="m19.863 4.533c-.108-.274-.332-.487-.611-.581-.056-.019-1.261-.418-3.312-.693-.545-1.519-1.842-2.259-3.94-2.259s-3.396.74-3.94 2.259c-2.051.275-3.256.675-3.312.693-.279.094-.503.307-.612.581-.046.117-1.136 2.939-1.136 8.467s1.09 8.35 1.136 8.467c.104.265.316.472.583.57.106.04 2.655.963 7.281.963s7.175-.923 7.28-.963c.267-.099.479-.306.583-.57.047-.117 1.137-2.939 1.137-8.467s-1.09-8.35-1.137-8.467zm-1.718 15.763c-.865.237-2.973.704-6.145.704s-5.281-.468-6.144-.704c-.276-.941-.856-3.387-.856-7.296s.576-6.339.853-7.285c.572-.149 1.647-.392 3.106-.551.439-.048.794-.379.875-.813.136-.739.393-1.351 2.167-1.351s2.031.611 2.167 1.351c.08.435.436.766.875.813 1.458.159 2.533.401 3.105.551.276.949.853 3.391.853 7.285s-.581 6.357-.855 7.296zm-6.145-12.296c-3.571 0-5 1.429-5 5s1.429 5 5 5 5-1.429 5-5-1.429-5-5-5zm0 8.5c-.552 0-1-.448-1-1s.448-1 1-1 1 .448 1 1-.448 1-1 1zm1-4c0 .552-.448 1-1 1s-1-.448-1-1v-1.5c0-.552.448-1 1-1s1 .448 1 1z"/></svg>