<svg id="Layer_1" viewBox="0 0 24 24" xmlns="http://www.w3.org/2000/svg"><path d="m8.603 18.832c-1.949-.201-3.248-.541-3.876-.736-.237-.958-.727-3.325-.727-6.596 0-.919.049-1.825.125-2.714 1.592-.363 4.224-.786 7.875-.786s6.293.424 7.884.788c-.032.644.411 1.271 1.099 1.209.412-.031.746-.307.871-.675.592.148 1.194-.426 1.146-1.023-.157-3.223-.618-5.326-.638-5.414-.077-.346-.331-.625-.667-.734-.145-.047-3.605-1.151-9.694-1.151s-9.551 1.104-9.695 1.151c-.336.109-.59.389-.667.734-.02.088-.48 2.191-.638 5.414-.017.336.138.657.409.856.195.142.431.203.664.186-.045.712-.075 1.431-.075 2.158 0 4.635.908 7.548.947 7.669.089.279.296.506.565.619.068.028 1.707.706 4.885 1.034.541.057 1.042-.341 1.098-.893.057-.549-.343-1.041-.893-1.098zm-5.123-14.931c1.168-.292 4.133-.901 8.52-.901s7.352.609 8.52.901c.107.615.271 1.688.388 3.079-1.649-.418-4.658-.98-8.907-.98s-7.258.562-8.907.98c.116-1.392.28-2.464.388-3.079zm13.52 7.099c-4.149 0-6 1.851-6 6s1.851 6 6 6 6-1.851 6-6-1.851-6-6-6zm0 10c-3.028 0-4-.972-4-4s.972-4 4-4 4 .972 4 4-.972 4-4 4zm1.707-3.707c.391.391.391 1.023 0 1.414s-1.023.391-1.414 0l-1-1c-.188-.188-.293-.441-.293-.707v-2c0-.553.447-1 1-1s1 .447 1 1v1.586z"/></svg>