<?xml version="1.0" encoding="UTF-8"?>
<svg xmlns="http://www.w3.org/2000/svg" id="Layer_1" data-name="Layer 1" viewBox="0 0 24 24">
  <path d="M14.832,14.445l-2-3c-.245-.367-.701-.532-1.122-.402-.422,.127-.71,.517-.71,.957v6c0,.552,.448,1,1,1s1-.448,1-1v-2.697l.168,.252c.306,.459,.926,.584,1.387,.277,.459-.306,.583-.927,.277-1.387Z"/>
  <path d="M11.994,1C4.929,1.044,1,5.016,1,11.982s3.932,11.018,11.006,11.018c7.162,0,10.861-3.737,10.994-11.017-.122-7.037-4.026-10.938-11.006-10.983Zm.012,20c-6.026-.035-8.888-2.895-9.006-9,.113-6.019,3.059-8.963,8.994-9,5.873,.038,8.903,3.072,9.006,8.981-.112,6.117-2.974,8.983-8.994,9.019Z"/>
</svg>
