<svg id="Layer_1" viewBox="0 0 24 24" xmlns="http://www.w3.org/2000/svg" data-name="Layer 1"><path d="m12 10v7c0 .553-.448 1-1 1s-1-.447-1-1v-7c0-.553.448-1 1-1s1 .447 1 1zm-1 10c-.552 0-1 .448-1 1s.448 1 1 1 1-.448 1-1-.448-1-1-1zm8.981-9.582c-.301-4.692-4.214-8.418-8.981-8.418-4.962 0-9 4.037-9 9 0 1.159.227 2.312.661 3.384-1.032.793-1.661 2.03-1.661 3.366 0 2.344 1.907 4.25 4.25 4.25h1.75c.552 0 1-.447 1-1s-.448-1-1-1h-1.75c-1.241 0-2.25-1.01-2.25-2.25 0-.891.53-1.699 1.35-2.059.255-.112.452-.326.543-.59s.068-.553-.064-.799c-.55-1.024-.829-2.136-.829-3.303 0-3.859 3.14-7 7-7s7 3.141 6.999 7.023c0 .386.221.736.569.902 1.5.716 2.432 2.182 2.432 3.824 0 2.344-1.907 4.25-4.25 4.25h-1.75c-.552 0-1 .447-1 1s.448 1 1 1h1.75c3.446 0 6.25-2.804 6.25-6.25 0-2.212-1.142-4.203-3.019-5.332z"/></svg>