<svg id="Layer_1" viewBox="0 0 24 24" xmlns="http://www.w3.org/2000/svg" data-name="Layer 1"><path d="m23 14.75c0 1.42-.464 2.759-1.343 3.87-.342.435-.97.509-1.404.164-.434-.342-.507-.971-.164-1.404.596-.755.911-1.664.911-2.63 0-1.643-.932-3.108-2.432-3.824-.348-.166-.569-.517-.569-.902 0-3.884-3.14-7.024-6.999-7.024s-7 3.14-7 7c0 1.151.286 2.293.828 3.303.132.245.155.535.064.799s-.288.478-.543.59c-.82.359-1.35 1.168-1.35 2.059 0 1.24 1.01 2.25 2.25 2.25h.75c.553 0 1 .447 1 1s-.447 1-1 1h-.75c-2.344 0-4.25-1.906-4.25-4.25 0-1.336.629-2.573 1.66-3.366-.434-1.071-.66-2.224-.66-3.384.001-4.963 4.038-9.001 9.001-9.001 4.767 0 8.681 3.726 8.981 8.418 1.877 1.129 3.019 3.12 3.019 5.332zm-10.2-.35c-.625-.835-1.365-1.575-2.2-2.2-.355-.267-.844-.267-1.199 0-.835.625-1.575 1.365-2.2 2.2-.332.441-.242 1.068.2 1.399.442.332 1.069.243 1.399-.2.063-.084.135-.16.2-.241v6.641c0 .553.447 1 1 1s1-.447 1-1v-6.641c.066.081.137.157.2.241.332.445.962.53 1.399.2.442-.331.532-.958.2-1.399zm3.4 5c-.063.084-.135.16-.2.241v-6.641c0-.552-.447-1-1-1s-1 .448-1 1v6.641c-.066-.081-.137-.157-.2-.241-.331-.443-.959-.532-1.399-.2-.442.331-.532.958-.2 1.399.625.835 1.365 1.575 2.2 2.2.178.134.389.2.6.2s.422-.066.6-.2c.835-.625 1.575-1.365 2.2-2.2.332-.441.242-1.068-.2-1.399-.441-.331-1.067-.242-1.399.2z"/></svg>