<?xml version="1.0" encoding="UTF-8"?>
<svg xmlns="http://www.w3.org/2000/svg" id="Layer_1" data-name="Layer 1" viewBox="0 0 24 24">
  <path d="M21.75,9.685c.204-.536,.311-1.108,.311-1.687,0-2.6-2.106-4.715-4.695-4.715-.464,0-.916,.066-1.352,.198-1.464-1.207-3.288-1.865-5.2-1.865C6.285,1.616,2.601,5.317,2.601,9.867c0,.475,.041,.949,.121,1.415-1.076,.886-1.722,2.225-1.722,3.644,0,2.518,1.962,4.583,4.466,4.702,.016,0,.032,0,.048,0,.53,0,.973-.417,.998-.953,.026-.552-.4-1.02-.952-1.046-1.436-.067-2.56-1.255-2.56-2.704,0-.962,.515-1.86,1.343-2.344,.388-.227,.577-.684,.463-1.118-.136-.52-.205-1.057-.205-1.598,0-3.447,2.787-6.251,6.213-6.251,1.608,0,3.134,.616,4.294,1.735,.3,.289,.745,.361,1.12,.185,.356-.168,.74-.253,1.138-.253,1.486,0,2.695,1.218,2.695,2.715,0,.474-.123,.94-.355,1.348-.218,.383-.16,.863,.143,1.183,.743,.785,1.152,1.814,1.152,2.899,0,1.804-1.14,3.405-2.836,3.984-.522,.178-.802,.747-.623,1.27,.178,.523,.746,.801,1.27,.623,2.506-.855,4.189-3.217,4.189-5.876,0-1.364-.439-2.669-1.25-3.743Z"/>
  <path d="M15.312,17.215c-.498-.239-1.097-.026-1.333,.472-.317,.665-.658,1.181-.979,1.577v-5.917c0-.552-.447-1-1-1s-1,.448-1,1v5.917c-.321-.397-.661-.912-.979-1.577-.239-.498-.837-.71-1.333-.472-.498,.238-.71,.834-.472,1.333,1.37,2.871,3.203,3.68,3.407,3.763,.121,.049,.248,.073,.376,.073s.255-.024,.376-.073c.204-.083,2.037-.893,3.407-3.763,.238-.499,.026-1.095-.472-1.333Z"/>
</svg>
