<?xml version="1.0" encoding="UTF-8"?>
<svg xmlns="http://www.w3.org/2000/svg" id="Layer_1" data-name="Layer 1" viewBox="0 0 24 24">
  <path d="M22.999,5.597c-.048-2.626-1.508-4.082-4.123-4.097-2.603,.015-4.063,1.47-4.111,4.132,.039,2.27,1.262,3.734,3.324,4.038,.017,.151,.027,.326,.027,.525,0,.529-.107,.987-.196,1.274-.777,.316-2.818,1.021-5.56,1.021-3.146,0-5.618-.789-6.497-1.112,.041-.725,.146-1.334,.23-1.727,3.328-.567,3.139-4.044,3.139-4.055-.048-2.626-1.508-4.082-4.123-4.097-2.603,.015-4.063,1.47-4.111,4.132,.037,2.172,1.158,3.605,3.061,3.992-.109,.605-.215,1.434-.215,2.376s.104,1.764,.212,2.366c-1.942,.364-3.017,1.758-3.058,4.036,.044,2.55,1.581,4.082,4.123,4.098,4.334,0,4.11-4.121,4.11-4.133-.042-2.276-1.144-3.672-3.139-4.014-.046-.216-.099-.499-.144-.832,1.324,.415,3.615,.969,6.411,.969,3.983,0,6.684-1.325,6.797-1.382,.201-.101,.363-.266,.458-.47,.051-.109,.5-1.106,.5-2.444,0-.202-.009-.399-.025-.589,3.086-.686,2.906-3.998,2.906-4.009Zm-19.999,.036c.028-1.526,.623-2.124,2.111-2.133,1.494,.009,2.09,.602,2.123,2.115-.031,1.493-.647,2.105-2.11,2.115-1.462-.009-2.098-.647-2.123-2.097Zm4.233,12.752c-.031,1.493-.647,2.105-2.11,2.115-1.462-.009-2.098-.647-2.123-2.097,.028-1.526,.623-2.124,2.111-2.133,1.494,.009,2.09,.602,2.123,2.115ZM18.889,7.729c-1.462-.009-2.098-.647-2.123-2.097,.028-1.526,.623-2.124,2.111-2.133,1.494,.009,2.09,.602,2.123,2.115-.031,1.493-.647,2.105-2.11,2.115Z"/>
</svg>
