<?xml version="1.0" encoding="UTF-8"?>
<svg xmlns="http://www.w3.org/2000/svg" id="Layer_1" data-name="Layer 1" viewBox="0 0 24 24">
  <path d="M5.964,10.272c2.113-.3,3.317-1.754,3.317-4.125,0-2.62-1.554-4.13-4.147-4.147-2.544,.017-4.089,1.567-4.134,4.183,.04,2.221,1.072,3.614,2.945,4.021-.079,.483-.147,1.103-.147,1.795,0,.699,.069,1.322,.148,1.805-1.83,.43-2.909,1.869-2.946,4.048,.048,2.658,1.517,4.13,4.146,4.146,2.618-.015,4.135-1.521,4.135-4.183,0-2.327-1.226-3.779-3.317-4.086-.079-.408-.166-1.022-.166-1.732,0-.704,.087-1.318,.166-1.728ZM3,6.182c.026-1.52,.668-2.172,2.134-2.182,1.492,.009,2.115,.637,2.147,2.165-.033,1.548-.636,2.156-2.135,2.165-1.517-.009-2.118-.621-2.146-2.147Zm4.281,11.653c-.033,1.548-.636,2.156-2.135,2.165-1.517-.009-2.118-.621-2.146-2.147,.026-1.52,.668-2.172,2.134-2.182,1.492,.009,2.115,.637,2.147,2.165Z"/>
  <path d="M20.27,13.854c.073-.739,.11-1.476,.11-2.2,0-3.145-.699-5.514-.729-5.613-.099-.327-.356-.582-.686-.675-.093-.027-2.318-.649-5.035-.724-.037,0-.116-.002-.219-.003,.305-.25,.684-.509,1.154-.752,.49-.254,.682-.857,.428-1.348-.254-.49-.855-.683-1.348-.428-2.465,1.277-3.159,2.984-3.23,3.174-.084,.226-.084,.474,0,.699,.071,.19,.766,1.898,3.23,3.175,.147,.076,.883,.349,1.348-.428,.283-.474,.062-1.094-.428-1.348-.465-.241-.841-.497-1.143-.744,.071,0,.126,.001,.154,.002,1.703,.047,3.221,.338,3.997,.514,.189,.816,.507,2.485,.507,4.498,0,.673-.035,1.359-.105,2.048-2.199,.234-3.515,1.74-3.556,4.151,.048,2.658,1.517,4.13,4.146,4.146,2.618-.015,4.135-1.521,4.135-4.183,0-2.1-.998-3.487-2.73-3.963Zm-1.405,6.146c-1.517-.009-2.118-.621-2.146-2.147,.026-1.52,.668-2.172,2.134-2.182,1.492,.009,2.115,.637,2.147,2.165-.033,1.548-.636,2.156-2.135,2.165Z"/>
</svg>
