<svg id="Layer_1" viewBox="0 0 24 24" xmlns="http://www.w3.org/2000/svg" data-name="Layer 1"><path d="m23 5.473c-.046-1.661-.95-4.45-6.504-4.473-5.265.021-6.438 2.443-6.496 4.472v3.528c0 .552.447 1 1 1 .546 0 .985-.438.996-.981.987.586 2.424.973 4.508.981 2.077-.008 3.51-.393 4.496-.981v.452c-.021.752-.072 2.512-4.496 2.529-.502-.002-.969-.027-1.39-.076-.556-.064-1.044.331-1.107.88-.063.548.33 1.044.879 1.107.494.057 1.036.086 1.618.088 2.077-.008 3.51-.393 4.496-.978v.449c-.021.752-.072 2.512-4.497 2.529-.158 0-.313-.003-.467-.009-.555-.03-1.016.411-1.035.964-.021.552.411 1.015.963 1.035.175.006.354.01.54.01 2.077-.008 3.51-.393 4.496-.978v.449c-.021.752-.072 2.512-4.496 2.529-.502-.002-.969-.027-1.39-.076-.556-.067-1.044.331-1.107.88-.063.548.33 1.044.879 1.107.494.057 1.036.086 1.618.088 5.263-.02 6.438-2.442 6.496-4.5v-11.998s-.001-.004-.001-.006c0-.007.001-.014.001-.021zm-6.496 2.527c-4.372-.016-4.482-1.792-4.504-2.5.02-.648.136-2.482 4.496-2.5 2.943.012 4.459.862 4.504 2.471-.021.752-.072 2.512-4.496 2.529zm-9.504 3c-4.149 0-6 1.851-6 6s1.851 6 6 6 6-1.851 6-6-1.851-6-6-6zm0 10c-3.028 0-4-.972-4-4s.972-4 4-4 4 .972 4 4-.972 4-4 4zm2.1-5.2c.171.228.198.532.071.785-.127.254-.387.415-.671.415h-.5v2c0 .552-.447 1-1 1s-1-.448-1-1v-2h-.5c-.284 0-.544-.16-.671-.415-.127-.254-.1-.559.071-.785.469-.627 1.025-1.182 1.65-1.65.267-.2.633-.2.899 0 .625.468 1.181 1.023 1.65 1.65z"/></svg>