<svg id="Layer_1" viewBox="0 0 24 24" xmlns="http://www.w3.org/2000/svg" data-name="Layer 1"><path d="m20.705 15.556c-.521-.181-1.092.093-1.274.614-.91 2.717-3.35 3.887-7.587 3.826l5.849-14.622c.802.602 1.372 1.408 1.738 2.456.183.521.753.798 1.274.614.521-.183.796-.753.614-1.274-.569-1.627-1.524-2.835-2.87-3.683l.446-1.115c.205-.513-.044-1.095-.557-1.3-.515-.207-1.095.044-1.3.558l-.404 1.01c-.607-.199-1.282-.341-2.003-.445.093-.464-.135-.941-.59-1.123-.516-.207-1.095.044-1.3.558l-.158.396c-.198-.005-.377-.025-.582-.025-7.01-.001-10.001 2.989-10.001 9.999 0 4.08 1.022 6.79 3.252 8.35l-.512 1.279c-.205.513.044 1.095.557 1.3.5.203 1.095-.039 1.3-.558l.443-1.108c.599.218 1.255.385 1.97.504-.115.475.115.975.582 1.162.5.203 1.095-.039 1.3-.558l.159-.397c.31.013.62.026.947.026 5.124 0 8.085-1.643 9.318-5.17.183-.521-.092-1.092-.614-1.274zm-16.705-3.556c0-5.833 2.049-7.944 7.79-7.995l-5.766 14.416c-1.428-1.245-2.023-3.294-2.023-6.421zm9.904-7.896c.736.078 1.407.198 1.991.379l-6.153 15.383c-.734-.094-1.385-.242-1.963-.448z"/></svg>