<svg id="Layer_1" viewBox="0 0 24 24" xmlns="http://www.w3.org/2000/svg" data-name="Layer 1"><path d="m12 1c-7.71 0-11 3.29-11 11s3.29 11 11 11c3.701 0 9.348-.483 9.586-.504.485-.042.87-.428.911-.914.021-.249.503-6.139.503-9.582 0-7.71-3.29-11-11-11zm8.569 19.572c-1.738.136-5.785.428-8.569.428-6.561 0-9-2.439-9-9s2.439-9 9-9 9 2.439 9 9c0 2.604-.295 6.791-.431 8.572zm-4.569-8.572c0 .552-.447 1-1 1h-2v2c0 .552-.447 1-1 1s-1-.448-1-1v-2h-2c-.553 0-1-.448-1-1s.447-1 1-1h2v-2c0-.552.447-1 1-1s1 .448 1 1v2h2c.553 0 1 .448 1 1z"/></svg>