<svg id="Layer_1" viewBox="0 0 24 24" xmlns="http://www.w3.org/2000/svg" data-name="Layer 1"><path d="m12 1c-5.121 0-11 1.25-11 11s5.879 11 11 11c3.763 0 7.026-.643 9.102-1.183.351-.091.625-.365.716-.716.785-3.02 1.183-6.082 1.183-9.101-.001-9.75-5.88-11-11.001-11zm8.025 19.025c-1.964.474-4.803.975-8.025.975-5.402 0-9-1.53-9-9s3.598-9 9-9 9 1.53 9 9c0 2.659-.328 5.356-.975 8.025z"/><path d="m17.473 7.663c-.12-.292-.371-.509-.677-.587-.091-.023-2.241-.563-4.779-.563s-4.688.541-4.779.563c-.294.075-.537.278-.663.553-.038.083-.378.854-.565 2.237-.074.547.31 1.051.857 1.125.045.006.09.009.135.009.493 0 .922-.364.99-.866.072-.535.171-.95.253-1.232.577-.115 1.587-.288 2.756-.358v7.395c-.725-.085-1.246-.228-1.254-.23-.533-.148-1.084.162-1.231.693-.149.531.159 1.083.69 1.232.053.015 1.314.366 2.795.366s2.741-.351 2.794-.365c.532-.15.842-.702.692-1.233-.149-.532-.706-.841-1.233-.692-.008.002-.526.146-1.253.23v-7.398c1.171.068 2.184.24 2.77.356.076.288.167.702.239 1.236.074.546.564.926 1.125.857.547-.074.931-.578.857-1.125-.185-1.37-.484-2.122-.519-2.203z"/></svg>