<svg id="Layer_1" viewBox="0 0 24 24" xmlns="http://www.w3.org/2000/svg" data-name="Layer 1"><path d="m21.796 2.715c-.109-.32-.372-.563-.7-.646-.172-.043-4.261-1.069-9.096-1.069-4.749 0-8.916 1.024-9.091 1.068-.333.083-.599.33-.708.655-.049.148-1.201 3.67-1.201 8.299s1.152 8.151 1.201 8.299c.108.325.375.572.707.655.118.03 2.843.703 6.161.992 1.286 1.188 2.358 1.854 2.406 1.883.161.099.343.149.525.149.176 0 .352-.046.509-.139.046-.027 1.079-.643 2.422-1.892 3.385-.287 6.052-.965 6.167-.995.329-.084.592-.33.7-.652.049-.147 1.202-3.664 1.202-8.321 0-4.699-1.155-8.141-1.204-8.285zm-1.742 15.45c-.974.217-3.141.651-5.629.838-.232.017-.452.115-.619.277-.733.707-1.379 1.21-1.801 1.513-.436-.315-1.099-.831-1.812-1.515-.167-.16-.384-.257-.615-.275-2.444-.19-4.644-.625-5.633-.841-.303-1.109-.945-3.847-.945-7.14s.641-6.027.944-7.137c1.264-.27 4.53-.884 8.056-.884 3.586 0 6.813.613 8.059.883.303 1.09.941 3.783.941 7.117s-.643 6.059-.946 7.165z"/><path d="m14 5c-2.833 0-4.075 1.161-4.207 1.293-.188.188-.293.442-.293.707v4.184c-.314-.112-.648-.184-1-.184-1.654 0-3 1.346-3 3s1.346 3 3 3 3-1.346 3-3v-6.481c.395-.215 1.187-.519 2.5-.519s2.112.307 2.5.517v3.67c-.314-.114-.648-.187-1-.187-1.654 0-3 1.346-3 3s1.346 3 3 3c1.682 0 3-1.299 3-2.958v-7.042c0-.265-.105-.52-.293-.707-.132-.132-1.375-1.293-4.207-1.293z"/></svg>