<?xml version="1.0" encoding="UTF-8"?>
<svg xmlns="http://www.w3.org/2000/svg" id="Layer_1" data-name="Layer 1" viewBox="0 0 24 24">
  <g>
    <path d="M12.006,1s-.007,0-.013,0C4.946,1.044,1.154,4.842,1.027,12.018c.13,7.144,3.923,10.941,10.973,10.982h9.973c.552,0,1-.448,1-1V11.983c-.122-7.037-4.016-10.938-10.967-10.983Zm8.967,20H12.006c-6.014-.035-8.868-2.901-8.979-8.982,.107-6.028,3.042-8.979,8.973-9.018,5.852,.041,8.871,3.074,8.974,9v9Z"/>
    <path d="M11.994,5.731c-2.461,.015-3.897,1.457-3.942,3.957-.01,.552,.43,1.008,.982,1.018h.018c.544,0,.99-.436,1-.982,.025-1.425,.573-1.983,1.942-1.992,1.346,.009,1.931,.604,1.955,1.956-.026,1.444-.556,1.984-1.954,1.993-.55,.003-.994,.45-.994,1v1.451c0,.552,.448,1,1,1s1-.448,1-1v-.541c1.872-.347,2.908-1.695,2.948-3.902-.042-2.462-1.516-3.941-3.955-3.957Z"/>
  </g>
  <circle cx="12" cy="17.27" r="1"/>
</svg>
