<svg id="Layer_1" viewBox="0 0 24 24" xmlns="http://www.w3.org/2000/svg" data-name="Layer 1"><path d="m19 15h-2v-6h2c2.691 0 4-1.309 4-4s-1.309-4-4-4-4 1.309-4 4v2h-6v-2c0-2.691-1.309-4-4-4s-4 1.309-4 4 1.309 4 4 4h2v6h-2c-2.691 0-4 1.309-4 4s1.309 4 4 4 4-1.309 4-4v-2h6v2c0 2.691 1.309 4 4 4s4-1.309 4-4-1.309-4-4-4zm-2-10c0-1.589.411-2 2-2s2 .411 2 2-.411 2-2 2h-2zm-12 2c-1.589 0-2-.411-2-2s.411-2 2-2 2 .411 2 2v2zm2 12c0 1.589-.411 2-2 2s-2-.411-2-2 .411-2 2-2h2zm2-10h6v6h-6zm10 12c-1.589 0-2-.411-2-2v-2h2c1.589 0 2 .411 2 2s-.411 2-2 2z"/></svg>