<svg id="Layer_1" viewBox="0 0 24 24" xmlns="http://www.w3.org/2000/svg" data-name="Layer 1"><path d="m13 12c0 .552-.448 1-1 1s-1-.448-1-1 .448-1 1-1 1 .448 1 1zm3-1c-.552 0-1 .448-1 1s.448 1 1 1 1-.448 1-1-.448-1-1-1zm-8 0c-.552 0-1 .448-1 1s.448 1 1 1 1-.448 1-1-.448-1-1-1zm15 1c0 3.443-.483 9.333-.503 9.582-.04.486-.425.873-.911.914-.239.021-5.884.504-9.586.504-7.71 0-11-3.29-11-11s3.29-11 11-11 11 3.29 11 11zm-2 0c0-6.561-2.439-9-9-9s-9 2.439-9 9 2.439 9 9 9c2.785 0 6.832-.292 8.569-.428.135-1.781.431-5.968.431-8.572z"/></svg>