<svg id="Layer_1" viewBox="0 0 24 24" xmlns="http://www.w3.org/2000/svg" data-name="Layer 1"><path d="m21.797 2.707c-.109-.322-.375-.566-.705-.648-.173-.043-4.287-1.058-9.092-1.058s-8.919 1.014-9.092 1.057c-.33.083-.596.327-.705.648-.049.145-1.203 3.597-1.203 8.233 0 4.795 1.162 8.108 1.212 8.247.114.322.386.563.719.639.133.03 3.125.707 5.959.926.91.991 2.431 2.253 3.192 2.245.609-.048 2.169-1.277 3.029-2.245 2.833-.219 5.826-.896 5.959-.926.335-.077.607-.32.722-.645.049-.141 1.208-3.51 1.208-8.241 0-4.636-1.154-8.088-1.203-8.233zm-1.729 15.289c-1.053.217-3.413.665-5.515.791-.296.018-.568.166-.745.405-.459.624-1.306 1.296-1.808 1.649-.501-.353-1.348-1.025-1.807-1.648-.176-.239-.449-.388-.746-.406-2.098-.126-4.46-.574-5.513-.791-.305-1.062-.935-3.669-.935-7.056 0-3.301.638-5.979.94-7.066 1.244-.269 4.438-.873 8.06-.873s6.815.604 8.06.873c.303 1.087.94 3.766.94 7.066 0 3.393-.627 5.989-.933 7.056zm-3.914-11.12c-1.171-1.163-3.071-1.168-4.238-.009l-3.411 3.411c-.871.864-1.381 2.019-1.435 3.25l-.063 1.429c-.038.569.474 1.081 1.042 1.043l1.439-.062c1.235-.054 2.394-.559 3.265-1.422l3.394-3.396c1.13-1.005 1.125-3.23.008-4.245zm-1.4 2.809-3.412 3.414c-.515.51-1.204.809-1.94.841l-.348.015.015-.339c.032-.728.332-1.409.848-1.921l3.412-3.412c.378-.375 1.013-.371 1.398-.006.348.274.368 1.104.027 1.408z"/></svg>