<svg id="Layer_1" viewBox="0 0 24 24" xmlns="http://www.w3.org/2000/svg" data-name="Layer 1"><path d="m11 14.997v3.003c0 .553-.447 1-1 1h-3c-.553 0-1-.447-1-1s.447-1 1-1h2v-1.025c-4.218-.145-6.376-.861-6.472-.894-.279-.095-.502-.308-.609-.582-.038-.096-.919-2.385-.919-5.999s.881-5.903.919-5.999c.107-.274.33-.487.609-.582.11-.037 2.767-.919 7.972-.919s7.861.882 7.972.919c.279.095.503.309.61.583.014.035.341.881.6 2.321.098.544-.264 1.063-.808 1.161-.543.1-1.063-.265-1.161-.808-.117-.651-.248-1.157-.346-1.49-.924-.229-3.227-.687-6.867-.687s-5.941.457-6.866.687c-.227.772-.634 2.486-.634 4.813s.407 4.04.634 4.814c.882.218 3.02.645 6.378.683.548.006.988.452.988 1zm12 .503c0 3.291-.438 6.077-.457 6.193-.063.4-.362.723-.757.815-.084.021-2.089.491-3.786.491s-3.702-.471-3.786-.491c-.395-.093-.693-.415-.757-.815-.019-.116-.457-2.902-.457-6.193s.438-6.077.457-6.193c.063-.4.362-.723.757-.815.084-.021 2.089-.491 3.786-.491s3.702.471 3.786.491c.395.093.693.415.757.815.019.116.457 2.902.457 6.193zm-2 0c0-2.202-.211-4.199-.338-5.201-.674-.128-1.744-.299-2.662-.299s-1.989.171-2.661.299c-.128 1.003-.339 3.003-.339 5.201s.211 4.199.338 5.201c.674.128 1.744.299 2.662.299s1.989-.171 2.661-.299c.128-1.003.339-3.003.339-5.201zm-3-.5c-1.429 0-2 .571-2 2s.571 2 2 2 2-.571 2-2-.571-2-2-2zm0-1c.552 0 1-.448 1-1s-.448-1-1-1-1 .448-1 1 .448 1 1 1z"/></svg>