<svg id="Layer_1" viewBox="0 0 24 24" xmlns="http://www.w3.org/2000/svg" data-name="Layer 1"><path d="m21.937 2.716c-.104-.276-.324-.492-.602-.591-.129-.046-3.232-1.125-9.335-1.125s-9.206 1.079-9.335 1.125c-.278.099-.498.315-.602.591-.043.116-1.063 2.887-1.063 7.284s1.02 7.168 1.063 7.284c.104.276.324.492.602.591.022.008.138.048.335.105v1.219c0 1.562.4 2.532.446 2.637.127.295.389.51.703.579.108.024 2.71.583 7.851.583s7.743-.56 7.851-.583c.313-.069.575-.284.703-.579.046-.105.446-1.075.446-2.637v-1.219c.197-.058.313-.098.335-.105.278-.099.498-.315.602-.591.043-.116 1.063-2.887 1.063-7.284s-1.02-7.168-1.063-7.284zm-2.937 16.484c0 .58-.072 1.044-.144 1.362-.994.155-3.292.438-6.856.438s-5.862-.282-6.856-.438c-.072-.319-.144-.783-.144-1.362v-.763c1.555.281 3.884.562 7 .562s5.445-.281 7-.562zm1.208-3.075c-1.029.275-3.782.875-8.208.875s-7.182-.601-8.208-.875c-.263-.906-.792-3.101-.792-6.125s.528-5.219.792-6.125c1.029-.275 3.782-.875 8.208-.875s7.182.601 8.208.875c.263.906.792 3.101.792 6.125s-.528 5.22-.792 6.125zm-12.208-2.125c0 .552-.448 1-1 1s-1-.448-1-1 .448-1 1-1 1 .448 1 1zm10 0c0 .552-.448 1-1 1h-6c-.552 0-1-.448-1-1s.448-1 1-1h6c.552 0 1 .448 1 1zm-.132-8.573c-1.748-.283-3.722-.427-5.868-.427s-4.122.144-5.869.429c-.422.068-.754.398-.825.82-.203 1.202-.306 2.463-.306 3.751 0 .552.448 1 1 1h12c.552 0 1-.448 1-1 0-1.29-.103-2.552-.307-3.752-.071-.422-.403-.751-.826-.82zm-10.845 3.573c.026-.578.076-1.147.148-1.704 1.142-.152 2.767-.296 4.829-.296s3.686.144 4.829.296c.072.556.122 1.125.148 1.704z"/></svg>