<svg id="Layer_1" viewBox="0 0 24 24" xmlns="http://www.w3.org/2000/svg" data-name="Layer 1"><path d="m11.999 21.955c.017.552-.417 1.013-.969 1.03-.331.01-.674.015-1.03.015-4.626 0-7.174-.923-7.281-.963-.267-.099-.479-.306-.583-.57-.046-.117-1.136-2.939-1.136-8.467s1.09-8.349 1.136-8.467c.108-.274.333-.487.612-.581.056-.019 1.261-.418 3.311-.693.545-1.519 1.841-2.259 3.94-2.259s3.396.741 3.94 2.259c2.051.275 3.256.675 3.311.693.279.094.503.307.612.581.024.061.592 1.521.915 4.353.062.549-.332 1.044-.88 1.106-.546.07-1.044-.332-1.107-.88-.191-1.681-.473-2.818-.643-3.398-.572-.149-1.647-.392-3.106-.551-.439-.048-.795-.379-.874-.813-.136-.739-.393-1.351-2.167-1.351s-2.031.611-2.167 1.351c-.08.435-.436.766-.874.813-1.458.159-2.534.401-3.106.551-.276.946-.853 3.389-.853 7.285s.58 6.354.856 7.296c.863.236 2.971.704 6.144.704.335 0 .659-.005.97-.015.533-.013 1.013.417 1.03.97zm10.37-1.143c-1.143 1.228-3.781 2.055-4.078 2.144-.189.057-.395.057-.584 0-.297-.09-2.935-.916-4.077-2.144-1.318-1.417-.165-7.188-.153-7.247.056-.277.227-.518.471-.661.005-.028 1.731-.948 4.096-.904 2.451 0 3.944.867 4.006.904.244.144.415.384.471.661.012.059 1.165 5.829-.152 7.247zm-1.714-6.356c-.479-.187-1.354-.469-2.651-.456-1.276-.025-2.177.269-2.659.456-.387 2.194-.442 4.58-.197 5.064.434.454 1.745 1.062 2.852 1.431 1.107-.368 2.423-.982 2.904-1.5.197-.42.138-2.802-.249-4.995zm-6.655-5.456c0-.553-.448-1-1-1h-7c-.552 0-1 .447-1 1s.448 1 1 1h7c.552 0 1-.447 1-1zm-4 3h-4c-.552 0-1 .447-1 1s.448 1 1 1h4c.552 0 1-.447 1-1s-.448-1-1-1zm0 4h-4c-.552 0-1 .447-1 1s.448 1 1 1h4c.552 0 1-.447 1-1s-.448-1-1-1z"/></svg>