<svg id="Layer_1" viewBox="0 0 24 24" xmlns="http://www.w3.org/2000/svg" data-name="Layer 1"><path d="m19.641 4.909c-.067-.372-.339-.674-.702-.781-1.588-.466-3.208-.93-5.938-1.101v-1.026c0-.552-.448-1-1-1s-1 .448-1 1v1.026c-2.736.171-4.352.635-5.941 1.102-.362.106-.633.407-.701.778-.365 2.022-.832 4.578-.858 9.719.012 4.618 3.826 8.375 8.501 8.375 4.607 0 8.499-3.82 8.499-8.342s-.635-8.51-.859-9.749zm-6.64.122c2.04.117 3.819.558 4.77.837.167.729.357 2.149.535 4.131h-5.304v-4.969zm-6.788.843c.964-.284 2.733-.724 4.788-.843v4.969h-5.315c.163-1.965.398-3.425.528-4.126zm5.788 15.126c-3.575 0-6.492-2.862-6.501-6.38-.002-.934.022-1.801.06-2.62h12.875c.039.83.066 1.712.066 2.658 0 3.438-2.976 6.342-6.499 6.342z"/></svg>