<svg id="Layer_1" viewBox="0 0 24 24" xmlns="http://www.w3.org/2000/svg" data-name="Layer 1"><path d="m21.823 20.016c-.051.009-4.721.842-8.823.968v-1.999c3.861-.112 8.235-.818 9.191-1.003.47-.091.809-.503.809-.981 0-7.59-3.363-11.614-10-11.974v-2.027h2c.552 0 1-.448 1-1s-.448-1-1-1h-6c-.552 0-1 .448-1 1s.448 1 1 1h2v2.026c-6.637.36-10 4.384-10 11.974 0 .479.339.89.809.981.956.186 5.33.891 9.191 1.003v1.999c-4.102-.127-8.772-.959-8.823-.968-.544-.096-1.063.264-1.162.807-.098.544.264 1.063.807 1.162.23.042 5.695 1.016 10.177 1.016s9.947-.974 10.177-1.016c.543-.098.905-.618.807-1.162-.098-.543-.615-.906-1.162-.807zm-9.823-13.016c4.054 0 8.688 1.063 8.985 9.161-1.783.287-5.76.839-8.985.839s-7.203-.552-8.986-.84c.222-6.326 3.02-9.16 8.986-9.16z"/></svg>