<svg id="Layer_1" viewBox="0 0 24 24" xmlns="http://www.w3.org/2000/svg" data-name="Layer 1"><path d="m22.707 21.293c.391.391.391 1.023 0 1.414-.195.195-.451.293-.707.293s-.512-.098-.707-.293l-1.293-1.293-1.293 1.293c-.195.195-.451.293-.707.293s-.512-.098-.707-.293c-.391-.391-.391-1.023 0-1.414l1.293-1.293-1.293-1.293c-.391-.391-.391-1.023 0-1.414s1.023-.391 1.414 0l1.293 1.293 1.293-1.293c.391-.391 1.023-.391 1.414 0s.391 1.023 0 1.414l-1.293 1.293zm-16.473-2.897c-.711.849-1.502 1.632-2.358 2.333-.407-.334-.801-.687-1.175-1.054-.395-.388-1.027-.38-1.414.014-.387.395-.381 1.027.014 1.414.619.606 1.283 1.178 1.976 1.696.178.134.389.2.6.2s.422-.066.6-.2c1.212-.908 2.319-1.958 3.292-3.12.354-.423.299-1.054-.125-1.408-.425-.356-1.054-.299-1.409.125zm10.874-5.116c-.435.355-1.052.823-1.754 1.245-1.297.776-2.871 1.384-2.937 1.409-.115.044-.237.066-.358.066s-.243-.022-.358-.066c-.066-.025-1.641-.633-2.936-1.409-.711-.426-1.335-.901-1.77-1.257-1.387.163-2.259.366-2.73.5-.074.337-.174.822-.279 1.409-.095.546-.63.906-1.161.808-.544-.098-.905-.617-.808-1.161.222-1.236.419-2.032.428-2.065.073-.294.276-.539.552-.666.111-.051 1.042-.455 3.327-.756.096-.138 1.063-1.015 2.44-1.86.776-.465 1.645-.866 2.237-1.121v-1.472c-1.321-.306-2-1.264-2-2.883 0-1.99 1.009-3 3-3s3 1.01 3 3c0 1.619-.68 2.577-2 2.883v1.422c.589.25 1.526.675 2.352 1.17 1.4.861 2.339 1.718 2.454 1.88 2.183.299 3.089.687 3.198.737.275.127.479.372.553.666.008.033.206.829.427 2.066.098.543-.265 1.062-.809 1.16-.531.099-1.065-.262-1.16-.809-.105-.587-.205-1.071-.278-1.409-.456-.13-1.3-.326-2.63-.487zm-6.108-9.28c0 .879.122 1 1 1s1-.121 1-1-.122-1-1-1-1 .121-1 1zm4.503 8c-.334-.257-.741-.547-1.179-.81-.803-.48-1.759-.9-2.267-1.112-.508.212-1.467.634-2.267 1.112-.438.264-.845.553-1.179.81.335.257.742.547 1.179.81.8.479 1.758.9 2.267 1.112.509-.212 1.467-.634 2.268-1.113.437-.262.844-.552 1.178-.809z"/></svg>