<svg id="Layer_1" viewBox="0 0 24 24" xmlns="http://www.w3.org/2000/svg" data-name="Layer 1"><path d="m5 20c0 .552-.448 1-1 1s-1-.448-1-1 .448-1 1-1 1 .448 1 1zm16-8c0 .552.448 1 1 1s1-.448 1-1-.448-1-1-1-1 .448-1 1zm-10 9c-.552 0-1 .448-1 1s.448 1 1 1 1-.448 1-1-.448-1-1-1zm-9-18c.552 0 1-.448 1-1s-.448-1-1-1-1 .448-1 1 .448 1 1 1zm3 3c.552 0 1-.448 1-1s-.448-1-1-1-1 .448-1 1 .448 1 1 1zm18 13.982c-.034 1.919-1.124 3.006-2.993 3.018-1.88-.012-2.972-1.098-3.007-2.981v-.037c.005-.285.045-.546.1-.795-1.23-.804-2.799-2.046-3.912-3.375-.35.119-.743.186-1.182.189-1.521-.009-2.514-.732-2.861-2h-2.294c-.352 1.275-1.341 1.991-2.844 2-1.881-.012-2.973-1.099-3.007-2.981v-.036c.033-1.856 1.152-2.971 2.995-2.982 1.469.009 2.487.759 2.851 2h2.303c.269-.952.916-1.598 1.863-1.859.046-.924.253-2.323.525-3.448-.964-.443-1.514-1.359-1.538-2.675v-.036c.033-1.856 1.152-2.971 2.995-2.982 1.469.009 2.487.759 2.851 2h1.305c.355-1.255 1.359-1.991 2.844-2 1.827.012 2.973 1.155 3.005 2.982-.034 1.919-1.124 3.006-2.993 3.018-1.52-.009-2.514-.731-2.861-2h-1.295c-.308 1.118-1.11 1.8-2.317 1.957-.253.968-.469 2.342-.52 3.198 1.22.361 1.962 1.371 1.988 2.827-.011.578-.128 1.071-.323 1.491.92 1.118 2.326 2.261 3.508 3.034.479-.323 1.085-.503 1.809-.507 1.827.011 2.973 1.154 3.005 2.982zm-4-15.982c.019.771.246.996 1.007 1 .765-.005.98-.224.995-1.018-.013-.72-.268-.977-1.008-.982-.738.004-.977.239-.994 1zm-7 0c.018.771.246.996 1.007 1 .764-.005.98-.224.995-1.019-.013-.72-.268-.977-1.008-.981-.739.004-.977.239-.994 1zm-6.998 8.981c-.013-.72-.268-.977-1.008-.981-.739.004-.977.239-.994 1 .018.771.246.995 1.007 1 .764-.005.98-.224.995-1.019zm7.004 1.019c.764-.005.98-.224.995-1.019-.013-.72-.268-.977-1.008-.981-.738.004-.975.239-.994.997v.003.003c.018.768.247.992 1.006.997zm8.996 5.981c-.013-.721-.268-.977-1.007-.981-.739.005-.978.238-.995 1 .019.771.246.995 1.007 1 .765-.005.98-.224.995-1.019z"/></svg>