<svg id="Layer_1" viewBox="0 0 24 24" xmlns="http://www.w3.org/2000/svg" data-name="Layer 1"><path d="m6.04 12.276c.083.029 2.082.724 5.96.724s5.877-.695 5.96-.724c.277-.099.498-.315.602-.591.028-.075.688-1.869.688-4.685s-.66-4.609-.688-4.685c-.104-.276-.324-.492-.602-.591-.083-.029-2.082-.724-5.96-.724s-5.877.695-5.96.724c-.277.099-.498.315-.602.591-.028.075-.688 1.869-.688 4.685s.66 4.609.688 4.685c.104.276.324.492.602.591zm5.96-9.276c.308 0 .602.005.884.013-.033.485-.069.908-.104 1.254-.042.409-.373.73-.804.733-.382-.002-.713-.324-.755-.732-.035-.346-.072-.769-.104-1.255.281-.009.576-.013.884-.013zm-4.827.481c.396-.096 1.052-.226 1.948-.327.035.509.073.953.11 1.317.147 1.433 1.322 2.521 2.806 2.529 1.411-.008 2.586-1.096 2.733-2.53.036-.363.075-.807.109-1.316.896.101 1.553.232 1.948.327.166.632.423 1.872.423 3.519s-.257 2.888-.423 3.519c-.74.179-2.356.481-4.827.481s-4.089-.303-4.827-.481c-.166-.632-.423-1.872-.423-3.519s.257-2.887.423-3.519zm-.173 15.019c0 .552-.448 1-1 1s-1-.448-1-1 .448-1 1-1 1 .448 1 1zm12.28-4.143c-1.479-.163-3.941-.357-7.28-.357s-5.802.194-7.28.357c-2.109.233-3.708 1.989-3.72 4.085-.048 2.136 1.569 3.966 3.72 4.201 1.479.163 3.941.357 7.28.357s5.802-.194 7.28-.357c2.151-.234 3.767-2.064 3.72-4.201-.012-2.096-1.61-3.853-3.72-4.085zm1.72 4.193c-.008 1.079-.841 1.984-1.938 2.105-1.429.158-3.813.345-7.062.345s-5.633-.188-7.062-.345c-1.099-.121-1.933-1.027-1.938-2.202.006-1.081.84-1.987 1.938-2.108 1.429-.158 3.813-.345 7.062-.345s5.633.188 7.062.345c1.099.121 1.933 1.027 1.938 2.155zm-8-.05c0 .552-.448 1-1 1s-1-.448-1-1 .448-1 1-1 1 .448 1 1zm6 0c0 .552-.448 1-1 1s-1-.448-1-1 .448-1 1-1 1 .448 1 1z"/></svg>