<svg id="Layer_1" viewBox="0 0 24 24" xmlns="http://www.w3.org/2000/svg" data-name="Layer 1"><path d="m22.013 17.002h-.003l-3.02.008-.007-2.999c0-.552-.449-.998-1-.998h-.003c-.552 0-.998.45-.997 1.002l.007 3-2.98.008c-.552 0-.998.45-.997 1.003 0 .551.449.997 1 .997h.003l2.979-.008.007 3c0 .552.449.998 1 .998h.003c.552 0 .998-.45.997-1.002l-.007-3.001 3.021-.008c.552 0 .998-.45.997-1.003 0-.551-.449-.997-1-.997z"/><path d="m13.454 20.712c-.293.191-.782.288-1.454.288-1.206 0-1.732-.24-1.916-1.049.497-.043.898-.44.915-.951.019-.552-.415-1.014-.967-1.031-3.367-.109-5.852-.479-6.989-.68-.072-.93-.106-2.773.41-5.106.512-2.31 1.326-3.921 1.815-4.741 1.45-.215 3.695-.442 6.731-.442s5.284.226 6.731.442c.489.82 1.304 2.43 1.815 4.741.143.643.253 1.294.328 1.934.064.548.561.945 1.109.877.549-.064.941-.561.877-1.109-.083-.707-.204-1.425-.361-2.134-.677-3.054-1.854-5.057-2.328-5.776-.153-.232-.397-.391-.672-.436-.697-.115-1.627-.239-2.77-.34.166-.376.27-.792.27-1.229-.003-1.329-.957-2.547-2.126-2.716-.737-.106-1.747-.252-2.874-.252s-2.137.146-2.873.252c-1.17.168-2.124 1.387-2.127 2.779 0 .41.101.805.261 1.167-1.138.101-2.065.224-2.76.339-.275.045-.52.204-.673.436-.475.72-1.651 2.723-2.328 5.776-.845 3.817-.369 6.456-.349 6.566.074.394.374.705.765.792.109.024 2.388.526 6.141.766.269 2.098 1.563 3.126 3.943 3.126 1.081 0 1.914-.2 2.546-.612.463-.302.594-.922.292-1.384-.303-.462-.922-.593-1.384-.292zm-4.041-17.48c.714-.104 1.604-.232 2.587-.232s1.873.128 2.577.23c.122.035.422.339.423.798 0 .403-.301.707-.413.74-.899.134-1.193.228-2.587.232-1.39-.004-1.684-.098-2.577-.23-.122-.035-.422-.339-.423-.798 0-.403.301-.707.413-.74z"/></svg>