<svg id="Layer_1" viewBox="0 0 24 24" xmlns="http://www.w3.org/2000/svg" data-name="Layer 1"><path d="m21.852 6.004c-.062.44-.408.786-.848.848-.688.099-1.38.147-2.073.147s-1.385-.049-2.073-.147c-.546-.078-.926-.584-.848-1.131s.583-.928 1.131-.848c.584.083 1.171.111 1.759.112-1.394-1.355-3.581-1.985-6.9-1.985-4.317 0-6.781 1.064-7.99 3.452-.25.498-.862.687-1.344.44-.493-.25-.69-.851-.44-1.344 1.571-3.103 4.677-4.548 9.774-4.548 3.604 0 6.196.717 7.966 2.226-.02-.362-.042-.725-.094-1.085-.078-.547.302-1.053.848-1.131.545-.074 1.053.301 1.131.848.197 1.375.197 2.77 0 4.146zm-2.388 12.397c-1.323 1.772-3.694 2.598-7.464 2.598-3.32 0-5.507-.63-6.9-1.985.588.002 1.175.029 1.759.112.546.078 1.053-.302 1.131-.848.078-.547-.302-1.053-.848-1.131-1.376-.197-2.77-.197-4.146 0-.44.062-.786.408-.848.848-.197 1.375-.197 2.77 0 4.146.076.549.596.929 1.131.848.546-.078.926-.584.848-1.131-.051-.36-.073-.723-.094-1.085 1.771 1.51 4.363 2.226 7.966 2.226 4.454 0 7.334-1.081 9.066-3.402.331-.443.239-1.069-.203-1.399-.443-.331-1.069-.239-1.399.203zm-6.313-5.659c.347.51.769 1.289.971 2.298.086.433-.194.854-.628.941-.423.088-.857-.192-.941-.628-.202-1.009-.708-1.724-.941-2.011-.361.062-.798.101-1.248.096.087.964.23 1.557.232 1.565.106.429-.155.862-.584.969-.417.107-.863-.15-.968-.582-.014-.056-.344-1.397-.344-3.392 0-1.728.248-2.967.323-3.302.048-.375.355-.672.744-.694.201-.012.549 0 .762 0 .99.003 3.608.013 3.608 2.642 0 .733-.229 1.539-.986 2.098zm-2.691-.902c2.078 0 2.078-.749 2.078-1.195.035-.517-.096-1.06-2.056-1.042-.079.499-.171 1.279-.181 2.236.048 0 .101.002.159.002zm9.15-3.838c-.3-.021-.575.118-.733.365-.022.035-.327.515-.677 1.391-.35-.875-.655-1.356-.677-1.391-.159-.248-.437-.388-.733-.365-.293.022-.55.203-.67.472-.052.117-1.28 2.905-1.419 6.697-.016.441.329.812.77.829.437.033.812-.328.829-.77.062-1.673.359-3.146.652-4.226.167.499.332 1.097.462 1.786.072.378.402.651.786.651s.714-.273.786-.651c.13-.688.295-1.287.462-1.786.293 1.08.591 2.554.652 4.226.016.432.371.77.799.77.452.001.817-.377.8-.829-.139-3.792-1.367-6.58-1.419-6.697-.12-.269-.377-.449-.67-.472zm-14.243 1.597c.508 0 .711.151.873.647.135.419.586.651 1.008.514.42-.136.65-.587.514-1.008-.372-1.147-1.2-1.753-2.394-1.753-2.666 0-2.666 2.906-2.666 4s0 4 2.666 4c1.194 0 2.022-.606 2.394-1.753.137-.42-.094-.872-.514-1.008-.421-.138-.872.094-1.008.514-.161.496-.365.647-.873.647-.475 0-1.067 0-1.067-2.4s.592-2.4 1.067-2.4z"/></svg>