<svg id="Layer_1" viewBox="0 0 24 24" xmlns="http://www.w3.org/2000/svg" data-name="Layer 1"><path d="m12 23c-1.521 0-2.839-.558-2.894-.581-.335-.144-.565-.458-.601-.82-.004-.041-.378-3.86-.479-7.756-2.075-.146-3.671-.341-3.748-.351-.38-.047-.7-.306-.824-.668-.019-.054-.454-1.342-.454-2.824s.436-2.771.454-2.824c.124-.362.444-.621.823-.668.08-.01 1.77-.217 3.934-.364.137-2.143.292-3.725.294-3.742.036-.362.266-.677.601-.82.055-.023 1.373-.581 2.894-.581s2.839.558 2.894.581c.335.144.565.458.601.82.002.018.157 1.6.294 3.742 2.164.147 3.854.354 3.934.364.379.047.699.306.823.668.019.054.454 1.342.454 2.824s-.436 2.771-.454 2.824c-.124.362-.444.621-.824.668-.076.01-1.672.205-3.748.351-.102 3.896-.476 7.715-.479 7.756-.036.362-.266.677-.601.82-.055.023-1.373.581-2.894.581zm-1.563-2.236c.396.113.965.236 1.563.236s1.167-.123 1.563-.236c.12-1.363.385-4.695.43-7.873.007-.524.418-.954.942-.984 1.613-.094 3.069-.236 3.877-.323.091-.406.188-.979.188-1.583s-.096-1.176-.188-1.583c-.832-.089-2.353-.238-4.024-.332-.508-.028-.914-.434-.943-.941-.095-1.68-.213-3.12-.282-3.907-.396-.113-.965-.236-1.563-.236s-1.167.123-1.563.236c-.069.787-.188 2.228-.282 3.907-.029.508-.435.913-.943.941-1.671.094-3.192.243-4.024.332-.091.406-.188.979-.188 1.583s.096 1.176.188 1.583c.808.087 2.265.229 3.877.323.523.03.935.46.942.984.044 3.178.31 6.51.43 7.873z"/></svg>