<svg id="Layer_1" viewBox="0 0 24 24" xmlns="http://www.w3.org/2000/svg" data-name="Layer 1"><path d="m20.02 9.448c-.552 0-1 .448-1 1 0 3.074-.752 5.103-2.279 6.211-1.258-.264-2.991-.492-5.224-.492-2.221 0-3.944.225-5.199.486-1.532-1.112-2.286-3.139-2.286-6.205 0-6.182 2.996-7.448 7.494-7.448.479 0 .942.016 1.387.051.556.046 1.032-.368 1.076-.918.043-.551-.368-1.032-.918-1.076-.496-.039-1.011-.057-1.544-.057-4.422 0-9.495 1.074-9.495 9.448 0 3.046.676 5.3 2.039 6.851-.192.077-.297.129-.316.138-.186.093-.337.241-.435.424-.038.071-.923 1.754-1.286 3.977-.047.29.045 1.092.987 1.161h16.987c.931-.059 1.034-.872.987-1.161-.362-2.214-1.244-3.903-1.282-3.974-.098-.185-.25-.334-.437-.428-.019-.009-.118-.057-.292-.128 1.361-1.55 2.036-3.808 2.036-6.861 0-.552-.448-1-1-1zm-15.76 11.552c.23-.846.51-1.522.678-1.892.741-.278 2.896-.942 6.579-.942s5.838.666 6.576.942c.167.369.446 1.044.676 1.892z"/><path d="m13.101 7.065c-.381 0-.729.217-.897.559-.136.277-.248.548-.346.816-.093.253-.264.429-.503.521-.268.102-.535.217-.807.357-.333.171-.543.515-.543.89s.21.718.543.89c.271.14.539.254.802.354.244.094.415.27.506.519.1.272.211.544.347.82.168.342.517.559.897.559.381 0 .729-.218.897-.56.135-.276.247-.547.344-.814.094-.253.265-.43.504-.522.268-.102.535-.217.807-.356.333-.171.543-.515.543-.89s-.21-.718-.543-.89c-.271-.14-.539-.255-.802-.355-.243-.094-.414-.271-.506-.519-.099-.271-.211-.542-.346-.818-.168-.343-.516-.56-.897-.561z"/><path d="m21.435 3.627c-.313-.161-.622-.293-.928-.411-.331-.128-.574-.377-.699-.716-.115-.315-.248-.622-.404-.941-.336-.685-1.459-.685-1.796 0-.157.32-.282.626-.396.937-.127.343-.37.592-.699.72-.309.118-.617.25-.93.411-.334.17-.544.514-.545.89 0 .375.209.719.543.89.314.162.624.294.929.411.332.128.575.378.7.716.115.315.244.629.401.949.168.342.517.56.898.56s.729-.217.898-.56c.157-.319.286-.634.399-.944.127-.343.37-.593.698-.72.31-.118.619-.25.933-.412.334-.171.544-.515.543-.89 0-.375-.21-.719-.545-.89z"/></svg>