<svg id="Layer_1" viewBox="0 0 24 24" xmlns="http://www.w3.org/2000/svg" data-name="Layer 1"><path d="m22.8 19.4c-.626-.836-1.366-1.576-2.2-2.2-.303-.229-.708-.262-1.047-.095-.339.17-.553.516-.553.895v1.055c-1.218.029-3.135.042-5.485-.054-.834-.034-1.642-.088-2.409-.151 1.251-.828 2.056-2.066 2.383-3.701.173-1.148.285-1.148 1.011-1.148.692 0 .816 0 1.021 1.206.035.167.058.318.079.463.076.507.163 1.08.631 1.851.288.472.903.623 1.374.335.472-.287.622-.902.335-1.374-.259-.427-.298-.684-.362-1.109-.027-.181-.056-.369-.093-.538-.249-1.472-.783-2.833-2.986-2.833-2.25 0-2.766 1.37-2.98 2.804-.144.722-.535 2.621-3.647 3.149 2.53-2.989 2.908-7.975 3.088-10.397l.028-.41c.168-1.146.248-1.146 1.011-1.146.705 0 .852 0 1.004 1.093.079.844.138 1.432.235 2.156.075.548.576.927 1.125.857.547-.074.931-.578.857-1.125-.095-.697-.151-1.264-.231-2.119-.197-1.415-.706-2.862-2.991-2.862-2.134 0-2.738 1.142-2.997 2.921l-.037.487c-.179 2.412-.579 7.709-3.298 9.921-.241-1.553-.576-4.105-.669-6.837-.08-2.351-.069-4.271-.045-5.492h1.046c.379 0 .725-.214.895-.553s.133-.744-.095-1.047c-.625-.835-1.366-1.575-2.2-2.2-.355-.268-.845-.268-1.2 0-.834.625-1.574 1.365-2.2 2.2-.228.303-.264.708-.095 1.047s.516.553.895.553h.953c-.024 1.245-.034 3.175.048 5.561.155 4.54.933 8.519.966 8.687.1.385.39.708.789.787.161.031 3.989.771 8.677.965 1.427.06 2.692.079 3.746.079.711 0 1.319-.009 1.822-.021v.943c-.011.539.464 1.01 1 1 .212 0 .423-.067.6-.2.834-.624 1.574-1.364 2.2-2.2.267-.355.267-.844 0-1.199z"/></svg>