<svg id="Layer_1" viewBox="0 0 24 24" xmlns="http://www.w3.org/2000/svg" data-name="Layer 1"><path d="m1.032 6.672c.348-1.173 1.269-1.672 2.968-1.672 1.004 0 1.73.18 2.233.564-1.203.59-1.795 1.548-2.078 2.427-.93.034-1.831-.08-2.508-.273-.461-.132-.746-.604-.615-1.047zm12.813 1.319c.93.034 1.831-.08 2.508-.272.461-.132.746-.604.615-1.047-.348-1.173-1.269-1.672-2.968-1.672-1.004 0-1.73.18-2.233.564 1.202.59 1.794 1.547 2.078 2.427zm8.598 6.749c-3.904 5.481-8.764 8.26-14.443 8.26-3.063 0-5.59-.498-5.696-.52-.379-.076-.68-.363-.773-.738-.022-.087-.53-2.144-.53-4.243s.508-4.156.53-4.243c.094-.377.397-.665.779-.739.109-.021 2.706-.518 5.69-.518 2.521 0 4.319.532 4.395.555 1.025.308 1.771 1.132 1.992 2.143 1.116-.894 2.175-2.041 3.17-3.438.91-1.333 2.887-1.668 4.184-.703 1.334.907 1.665 2.89.703 4.184zm-1.457-1.906c-.044-.263-.188-.493-.406-.648-.429-.321-1.092-.212-1.395.234-2.861 4.017-6.258 6.229-10.096 6.576-.54.044-1.036-.355-1.086-.906-.05-.55.356-1.036.906-1.086.977-.088 1.922-.334 2.841-.713.475-.196.709-.507.703-.965 0-.392-.262-.743-.636-.856-.014-.004-1.608-.47-3.818-.47-1.945 0-3.744.231-4.665.373-.14.713-.335 1.93-.335 3.127s.195 2.418.335 3.129c.907.142 2.682.371 4.665.371 4.995 0 9.307-2.497 12.814-7.42.155-.218.216-.482.172-.746zm-11.986-6.834c1.071 0 1.5-.429 1.5-1.5s-.429-1.5-1.5-1.5-1.5.429-1.5 1.5.429 1.5 1.5 1.5zm5-2c1.071 0 1.5-.429 1.5-1.5s-.429-1.5-1.5-1.5-1.5.429-1.5 1.5.429 1.5 1.5 1.5zm-10 0c1.071 0 1.5-.429 1.5-1.5s-.429-1.5-1.5-1.5-1.5.429-1.5 1.5.429 1.5 1.5 1.5zm2.647 5.719c.655.188 1.432.281 2.353.281s1.698-.093 2.353-.281c.461-.132.746-.604.615-1.047-.348-1.173-1.269-1.672-2.968-1.672s-2.62.499-2.968 1.672c-.131.442.154.915.615 1.047z"/></svg>