<svg id="Layer_1" viewBox="0 0 24 24" xmlns="http://www.w3.org/2000/svg" data-name="Layer 1"><path d="m19.843 5.598 2.368-2.395c.389-.393.385-1.026-.008-1.414-.393-.389-1.026-.385-1.414.008l-2.359 2.385c-2.12-1.886-4.665-3.182-6.93-3.182-.552 0-1 .448-1 1s.448 1 1 1c.859 0 1.789.255 2.718.695-2.166 1.713-8.269 6.576-10.171 8.478-3.527 3.528-3.036 9.627-3.013 9.885.042.483.426.867.909.909.059.005.427.035 1.001.035 1.925 0 6.168-.334 8.883-3.049 1.902-1.902 6.765-8.005 8.478-10.171.44.929.695 1.859.695 2.718 0 .552.448 1 1 1s1-.448 1-1c0-2.255-1.285-4.788-3.157-6.902zm-9.43 12.941c-2.159 2.158-5.753 2.449-7.411 2.459.01-1.657.3-5.251 2.459-7.411 2.024-2.024 9.4-7.853 10.59-8.791 1.185.863 2.289 1.968 3.152 3.152-.936 1.189-6.766 8.565-8.791 10.59z"/></svg>