<?xml version="1.0" encoding="UTF-8"?>
<svg xmlns="http://www.w3.org/2000/svg" id="Layer_1" data-name="Layer 1" viewBox="0 0 24 24">
  <path d="M9.969,13.661c-5.328,.033-8.195,2.91-8.292,8.321-.01,.552,.43,1.008,.982,1.018,.551,.003,1.008-.431,1.018-.982,.076-4.311,2.079-6.33,6.291-6.356,4.169,.026,6.23,2.105,6.304,6.356,.01,.546,.455,.982,1,.982h.018c.552-.01,.992-.465,.982-1.018-.092-5.332-3.036-8.287-8.303-8.321Z"/>
  <path d="M20.785,12.702l1.246-1.246c.391-.391,.391-1.023,0-1.414s-1.023-.391-1.414,0l-1.246,1.246-1.246-1.246c-.391-.391-1.023-.391-1.414,0s-.391,1.023,0,1.414l1.246,1.246-1.246,1.246c-.391,.391-.391,1.023,0,1.414,.195,.195,.451,.293,.707,.293s.512-.098,.707-.293l1.246-1.246,1.246,1.246c.195,.195,.451,.293,.707,.293s.512-.098,.707-.293c.391-.391,.391-1.023,0-1.414l-1.246-1.246Z"/>
  <path d="M9.98,12.309c3.61-.021,5.555-1.971,5.622-5.671-.061-3.56-2.109-5.614-5.635-5.637-3.561,.023-5.62,2.181-5.62,5.637,0,3.608,2.062,5.651,5.633,5.672Zm-.013-9.309c2.438,.016,3.593,1.183,3.635,3.636-.047,2.559-1.134,3.657-3.622,3.672-2.494-.015-3.582-1.108-3.633-3.654,.05-2.511,1.171-3.639,3.62-3.654Z"/>
</svg>
