<svg id="Layer_1" viewBox="0 0 24 24" xmlns="http://www.w3.org/2000/svg" data-name="Layer 1"><path d="m22.994 22.109c-.059.551-.564.946-1.103.884-.021-.002-2.033-.223-4.94-.367-.552-.027-.977-.497-.949-1.048.027-.551.47-.985 1.049-.949.712.035 1.365.075 1.953.115v-10.148c-1.6.18-3.687.354-6.003.395v.737c.738.307 1.337.907 1.614 1.69.185.521-.088 1.092-.609 1.276-.518.186-1.092-.089-1.275-.609-.124-.35-.457-.584-.828-.584-.483 0-.876.393-.876.876-.001.458.367.864.825.869 1.772 0 3.175 1.403 3.175 3.126 0 1.334-.84 2.467-2.013 2.916l-.012.729c-.01.546-.455.983-1 .983h-.017c-.553-.009-.992-.465-.983-1.017l.01-.617c-1.011-.289-1.863-1.043-2.211-2.035-.183-.521.091-1.092.612-1.275.523-.182 1.092.092 1.274.613.166.474.692.831 1.224.831.615 0 1.115-.506 1.115-1.128.004-.695-.62-1.201-1.297-1.124-1.516-.09-2.703-1.352-2.703-2.872 0-1.269.832-2.337 1.975-2.718v-.668c-2.313-.041-4.398-.215-5.997-.395v10.148c.587-.04 1.237-.079 1.947-.114.542-.039 1.02.397 1.049.949.027.552-.397 1.021-.949 1.048-2.906.145-4.92.365-4.94.367-.539.062-1.045-.334-1.103-.885-.061-.549.336-1.043.885-1.103.036-.004.444-.048 1.112-.107v-10.56c-.702-.103-1.129-.18-1.185-.19-.355-.065-.647-.318-.765-.66-.117-.342-.04-.721.201-.99 1.353-1.513 2.923-2.908 4.666-4.146.451-.319 1.074-.213 1.394.236.319.45.214 1.075-.236 1.394-1.081.768-2.089 1.599-3.012 2.482 1.802.236 4.715.535 7.935.535s6.132-.298 7.93-.534c-.924-.885-1.932-1.717-3.013-2.485-.45-.32-.556-.944-.236-1.394.319-.451.943-.556 1.394-.235 1.743 1.239 3.313 2.635 4.666 4.148.241.27.318.648.201.99s-.409.595-.765.66c-.055.01-.48.087-1.179.19v10.561c.666.059 1.071.102 1.106.106.55.061.945.555.885 1.104zm-11.702-15.403c.386.381 1.031.381 1.416 0 .789-.607 1.496-1.31 2.092-2.106.228-.303.264-.708.095-1.047-.17-.339-.516-.553-.895-.553h-1v-1c0-.552-.447-1-1-1s-1 .448-1 1v1h-1c-.379 0-.725.214-.895.553-.169.339-.133.744.095 1.047.595.796 1.303 1.499 2.092 2.106z"/></svg>