<svg id="Layer_1" viewBox="0 0 24 24" xmlns="http://www.w3.org/2000/svg" data-name="Layer 1"><path d="m12 1c-1.991 0-3 1.009-3 3s1.009 3 3 3 3-1.009 3-3-1.009-3-3-3zm0 4c-.878 0-1-.122-1-1s.122-1 1-1 1 .122 1 1-.122 1-1 1zm-8-4c-1.991 0-3 1.009-3 3s1.009 3 3 3 3-1.009 3-3-1.009-3-3-3zm0 4c-.878 0-1-.122-1-1s.122-1 1-1 1 .122 1 1-.122 1-1 1zm16 2c1.991 0 3-1.009 3-3s-1.009-3-3-3-3 1.009-3 3 1.009 3 3 3zm0-4c.878 0 1 .122 1 1s-.122 1-1 1-1-.122-1-1 .122-1 1-1zm-5.051 7.316c-.808 1.32-1.125.341-2.949.434-1.05 0-1.689.196-1.696.198-.522.163-1.086-.126-1.253-.649s.116-1.083.639-1.254c.092-.03.941-.294 2.311-.294s2.224.271 2.316.301c.524.175.807.741.632 1.265zm0 4c-.14.419-.53.684-.949.684-.539-.042-.594-.232-2-.25-1.05 0-1.689.196-1.696.198-.522.162-1.086-.125-1.253-.649-.167-.523.116-1.083.639-1.254.092-.03.941-.294 2.311-.294s2.224.271 2.316.301c.524.175.807.741.632 1.265zm0 4c-.14.419-.53.684-.949.684-.539-.042-.594-.232-2-.25-1.05 0-1.689.196-1.696.198-.522.164-1.086-.126-1.253-.649s.116-1.083.639-1.254c.092-.03.941-.294 2.311-.294s2.224.271 2.316.301c.524.175.807.741.632 1.265zm0 4c-.14.419-.53.684-.949.684-.539-.042-.594-.232-2-.25-1.05 0-1.689.196-1.696.198-.522.163-1.086-.126-1.253-.649s.116-1.083.639-1.254c.092-.03.941-.294 2.311-.294s2.224.271 2.316.301c.524.175.807.741.632 1.265zm-8-12c-.14.419-.53.684-.949.684-.539-.042-.594-.232-2-.25-1.05 0-1.689.196-1.696.198-.523.163-1.086-.126-1.253-.649s.116-1.083.639-1.254c.092-.03.941-.294 2.311-.294s2.224.271 2.316.301c.524.175.807.741.632 1.265zm0 4c-.14.419-.53.684-.949.684-.539-.042-.594-.232-2-.25-1.05 0-1.689.196-1.696.198-.523.162-1.086-.125-1.253-.649-.167-.523.116-1.083.639-1.254.092-.03.941-.294 2.311-.294s2.224.271 2.316.301c.524.175.807.741.632 1.265zm0 4c-.14.419-.53.684-.949.684-.539-.042-.594-.232-2-.25-1.05 0-1.689.196-1.696.198-.523.164-1.086-.126-1.253-.649s.116-1.083.639-1.254c.092-.03.941-.294 2.311-.294s2.224.271 2.316.301c.524.175.807.741.632 1.265zm0 4c-.14.419-.53.684-.949.684-.539-.042-.594-.232-2-.25-1.05 0-1.689.196-1.696.198-.523.163-1.086-.126-1.253-.649s.116-1.083.639-1.254c.092-.03.941-.294 2.311-.294s2.224.271 2.316.301c.524.175.807.741.632 1.265zm16-12c-.14.419-.53.684-.949.684-.539-.042-.594-.232-2-.25-1.05 0-1.689.196-1.696.198-.523.163-1.086-.126-1.253-.649s.116-1.083.639-1.254c.092-.03.941-.294 2.311-.294s2.224.271 2.316.301c.524.175.807.741.632 1.265zm0 4c-.808 1.32-1.125.341-2.949.434-1.05 0-1.689.196-1.696.198-.523.162-1.086-.125-1.253-.649-.167-.523.116-1.083.639-1.254.092-.03.941-.294 2.311-.294s2.224.271 2.316.301c.524.175.807.741.632 1.265zm0 4c-.14.419-.53.684-.949.684-.539-.042-.594-.232-2-.25-1.05 0-1.689.196-1.696.198-.523.164-1.086-.126-1.253-.649s.116-1.083.639-1.254c.092-.03.941-.294 2.311-.294s2.224.271 2.316.301c.524.175.807.741.632 1.265zm0 4c-.14.419-.53.684-.949.684-.539-.042-.594-.232-2-.25-1.05 0-1.689.196-1.696.198-.523.163-1.086-.126-1.253-.649s.116-1.083.639-1.254c.092-.03.941-.294 2.311-.294s2.224.271 2.316.301c.524.175.807.741.632 1.265z"/></svg>