<svg id="Layer_1" viewBox="0 0 24 24" xmlns="http://www.w3.org/2000/svg" data-name="Layer 1"><path d="m21.937 2.716c-.104-.276-.323-.492-.602-.591-.072-.026-1.824-.639-5.244-.949-.546-.043-1.036.356-1.086.906s.355 1.037.906 1.086c2.177.197 3.616.523 4.297.706.264.906.792 3.101.792 6.125 0 1.123-.073 2.13-.178 3h-17.644c-.105-.871-.178-1.877-.178-3 0-3.025.529-5.221.792-6.125.683-.183 2.122-.51 4.3-.707.55-.05.956-.536.906-1.086-.05-.549-.519-.945-1.086-.906-3.42.31-5.173.922-5.246.948-.278.099-.498.315-.602.591-.043.116-1.063 2.887-1.063 7.284s1.02 7.168 1.063 7.284c.104.276.324.492.602.591.122.043 2.895 1.005 8.335 1.114v2.011s-2.999 0-2.999 0c-.552 0-1 .448-1 1s.448 1 1 1h8c.553 0 1-.448 1-1s-.447-1-1-1h-3v-2.011c5.439-.108 8.213-1.07 8.334-1.114.278-.099.498-.315.602-.591.043-.116 1.063-2.887 1.063-7.284s-1.021-7.168-1.063-7.284zm-9.937 14.284c-4.428 0-7.182-.601-8.208-.875-.077-.265-.177-.652-.279-1.125h16.975c-.102.473-.202.86-.279 1.125-1.029.275-3.782.875-8.209.875zm-3.542-10.8c.444-.332 1.07-.241 1.4.2.367.49.773.946 1.2 1.382v-5.782c0-.552.448-1 1-1s1 .448 1 1v5.782c.427-.436.833-.893 1.2-1.382.331-.441.958-.532 1.399-.201.442.332.532.958.2 1.4-.908 1.212-1.984 2.289-3.2 3.2-.182.108-.384.203-.6.2-.216.003-.418-.093-.6-.2-1.213-.91-2.29-1.986-3.2-3.2-.332-.442-.242-1.069.2-1.4z"/></svg>