<svg id="Layer_1" viewBox="0 0 24 24" xmlns="http://www.w3.org/2000/svg" data-name="Layer 1"><path d="m22 11h-.021c-.113-2.514-.665-4.458-1.713-5.883.315-.393.305-.961-.059-1.325s-.934-.375-1.327-.058c-1.425-1.045-3.369-1.595-5.883-1.707v-.025c0-.552-.448-1-1-1-.552 0-1 .448-1 1v.024c-2.512.114-4.455.665-5.879 1.712-.393-.319-.964-.309-1.329.056s-.375.938-.055 1.331c-1.044 1.425-1.594 3.367-1.706 5.878h-.029c-.552 0-1 .449-.999 1.001 0 .552.448.999 1 .999h.028c.113 2.512.664 4.455 1.71 5.879-.316.393-.306.961.059 1.326.365.366.935.389 1.326.058 1.424 1.046 3.368 1.597 5.88 1.71v.025c0 .552.448 1 1 1 .552 0 1-.448 1-1v-.024c2.514-.113 4.458-.664 5.883-1.711.392.328.958.303 1.322-.061.363-.363.374-.929.061-1.322 1.047-1.425 1.598-3.37 1.711-5.885.559.012 1.022-.44 1.021-1 0-.552-.447-1-1-1zm-6.068 0c-.067-.441-.192-.821-.354-1.164l3.262-3.262c.694 1.075 1.055 2.522 1.144 4.426h-4.051zm-3.929 3.006c-1.591 0-2.003-.412-2.003-2.003s.412-2.003 2.003-2.003 2.003.412 2.003 2.003-.412 2.003-2.003 2.003zm5.421-8.845-3.263 3.263c-.342-.161-.721-.286-1.161-.352l-.002-4.05c1.903.087 3.35.447 4.426 1.138zm-6.424 2.913c-.441.067-.822.192-1.164.355l-3.262-3.262c1.075-.694 2.521-1.055 4.424-1.144zm-5.839-1.492 3.263 3.263c-.16.34-.284.717-.35 1.154l-4.051.004c.088-1.901.447-3.346 1.138-4.421zm2.912 6.417c.066.442.192.823.354 1.166l-3.263 3.263c-.693-1.075-1.053-2.522-1.141-4.425zm-1.494 5.843 3.263-3.263c.341.161.72.286 1.159.352l.002 4.051c-1.902-.088-3.348-.448-4.423-1.14zm6.421-2.909c.442-.066.822-.192 1.166-.354l3.263 3.263c-1.076.693-2.523 1.053-4.426 1.141l-.002-4.05zm5.842 1.495-3.263-3.263c.162-.343.287-.724.354-1.166h4.05c-.088 1.905-.448 3.352-1.141 4.428z"/></svg>