<svg id="Layer_1" viewBox="0 0 24 24" xmlns="http://www.w3.org/2000/svg" data-name="Layer 1"><path d="m2.063 11h10.937c.553 0 1-.447 1-1 0-1.885-.107-3.643-.224-5h.724c1.652 0 2.687.127 3.243.226.089.525.198 1.393.238 2.487-.237-.262-.469-.529-.682-.813-.331-.442-.956-.528-1.4-.199-.441.331-.53.958-.199 1.4.768 1.023 1.676 1.932 2.699 2.699.356.267.845.267 1.201 0 1.023-.768 1.932-1.676 2.699-2.699.331-.442.242-1.069-.199-1.4-.442-.33-1.068-.243-1.4.199-.223.297-.465.579-.715.852-.067-2.16-.401-3.531-.416-3.594-.08-.321-.315-.583-.628-.696-.129-.047-1.354-.461-4.441-.461h-.927c-.045-.377-.078-.607-.082-.642-.056-.386-.329-.704-.703-.816.263-.071-3.402-.604-5.256-.542-3.404 0-5.232.518-5.309.539-.378.109-.657.43-.713.819-.021.146-.51 3.625-.446 7.657.009.546.454.984 1 .984zm9.926-2h-3.075l2.937-2.937c.063.884.117 1.88.138 2.937zm-8.584-5.674c.542-.1 1.433-.226 2.643-.288l-2.873 2.873c.073-1.099.164-2.009.23-2.584zm-.344 5.527 5.822-5.822c1.258.059 2.166.19 2.712.291.005.045.012.102.017.151l-5.527 5.527h-3.026c0-.05.002-.097.002-.147zm19.54 4.46c-.189-.2-.452-.313-.728-.313h-19.873c-.56-.012-1.043.501-.998 1.059.22 3.748.928 7.018.958 7.155.075.344.326.623.66.734.129.043 3.225 1.052 9.316 1.052s9.188-1.009 9.316-1.052c.334-.111.585-.39.66-.734.03-.138.739-3.407.958-7.155.017-.275-.082-.545-.271-.745zm-2.522 6.885c-1.093.267-3.822.802-8.142.802s-7.051-.535-8.142-.802c-.182-.948-.528-2.938-.721-5.198h17.725c-.191 2.259-.539 4.25-.721 5.198z"/></svg>