<svg id="Layer_1" viewBox="0 0 24 24" xmlns="http://www.w3.org/2000/svg" data-name="Layer 1"><path d="m15.5 4.5c-1.364 0-2.523.165-3.5.495-.977-.33-2.136-.495-3.5-.495-5.187 0-7.5 2.313-7.5 7.5s2.313 7.5 7.5 7.5c1.364 0 2.523-.165 3.5-.495.977.33 2.136.495 3.5.495 5.187 0 7.5-2.313 7.5-7.5s-2.313-7.5-7.5-7.5zm-3.5 2.634c.757.399 1.269 1.006 1.585 1.866h-3.17c.316-.86.828-1.467 1.585-1.866zm-2.404 10.323c-.344.026-.704.043-1.096.043-4.112 0-5.5-1.388-5.5-5.5s1.388-5.5 5.5-5.5c.392 0 .752.017 1.096.043-1.078 1.226-1.596 3.021-1.596 5.457s.518 4.23 1.596 5.457zm2.404-.59c-.757-.399-1.269-1.006-1.585-1.866h3.17c-.316.86-.828 1.467-1.585 1.866zm1.964-3.866h-3.927c-.022-.316-.036-.644-.036-1s.015-.684.036-1h3.927c.022.316.036.644.036 1s-.015.684-.036 1z"/></svg>