<svg id="Layer_1" viewBox="0 0 24 24" xmlns="http://www.w3.org/2000/svg" data-name="Layer 1"><path d="m21.874 13h-10.937c-.552 0-1 .447-1 1 0 1.056.034 2.071.084 3h-.521c-1.652 0-2.688-.127-3.244-.226-.109-.647-.256-1.798-.256-3.274v-2.5h15.937c.56.012 1.042-.501.999-1.059-.22-3.748-.928-7.018-.958-7.155-.076-.344-.327-.623-.661-.734-.129-.043-3.224-1.052-9.316-1.052s-9.189 1.009-9.317 1.052c-.334.111-.585.391-.661.734-.03.138-.738 3.407-.958 7.155-.044.558.439 1.071.999 1.059h1.937v2.5c0 2.594.412 4.271.43 4.342.081.322.316.584.628.697.129.048 1.354.461 4.442.461h.66c.132 1.541.275 2.564.287 2.642.055.386.329.704.702.816.074.021 1.847.542 5.256.542s5.233-.518 5.309-.539c.378-.109.656-.43.712-.819.021-.146.511-3.625.447-7.657-.009-.546-.454-.984-1-.984zm-18.015-9.198c1.092-.267 3.821-.802 8.141-.802s7.051.535 8.141.802c.182.948.529 2.938.721 5.198h-17.724c.192-2.26.539-4.25.721-5.198zm16.673 16.872c-.745.137-2.138.326-4.126.326-1.976 0-3.338-.188-4.064-.322-.124-1.055-.344-3.221-.394-5.678h8.931c-.016 2.453-.225 4.617-.346 5.674z"/></svg>