<svg id="Layer_1" viewBox="0 0 24 24" xmlns="http://www.w3.org/2000/svg" data-name="Layer 1"><path d="m22.577 14.187c-.083-.382-.381-.679-.762-.763-.079-.018-1.95-.424-3.815-.424s-3.735.406-3.814.424c-.381.084-.678.381-.762.762-.014.065-.286 1.335-.385 2.814h-2.538c-1.652 0-2.687-.126-3.243-.225-.109-.647-.257-1.799-.257-3.275v-2.538c1.48-.099 2.75-.37 2.814-.385.381-.083.679-.381.763-.763.018-.078.423-1.949.423-3.814s-.406-3.735-.423-3.813c-.083-.382-.381-.679-.762-.763-.079-.018-1.95-.424-3.815-.424s-3.735.406-3.814.424c-.381.084-.678.381-.762.762-.018.079-.424 1.95-.424 3.814s.406 3.736.424 3.815c.083.381.381.679.763.762.064.014 1.334.286 2.813.385v2.538c0 2.594.413 4.273.43 4.343.081.323.316.584.629.697.129.048 1.354.46 4.441.46h2.538c.099 1.481.371 2.751.385 2.815.083.381.381.679.763.762.079.018 1.949.423 3.813.423s3.735-.405 3.814-.423c.381-.083.679-.381.763-.763.018-.078.423-1.949.423-3.814s-.406-3.735-.423-3.813zm-19.577-8.187c0-1.028.146-2.089.257-2.743.654-.11 1.715-.257 2.743-.257s2.089.146 2.744.257c.11.654.256 1.715.256 2.743s-.146 2.09-.256 2.744c-.654.11-1.715.256-2.744.256s-2.089-.146-2.744-.256c-.11-.653-.256-1.712-.256-2.744zm17.744 14.744c-.654.11-1.715.256-2.744.256s-2.089-.146-2.744-.256c-.11-.653-.256-1.712-.256-2.744s.146-2.089.257-2.743c.654-.11 1.715-.257 2.743-.257s2.089.146 2.744.257c.11.654.256 1.715.256 2.743s-.146 2.09-.256 2.744z"/></svg>