<svg id="Layer_1" viewBox="0 0 24 24" xmlns="http://www.w3.org/2000/svg" data-name="Layer 1"><path d="m11 13v-6c0-.552.448-1 1-1s1 .448 1 1v6c0 .552-.448 1-1 1s-1-.448-1-1zm1 3c-.552 0-1 .448-1 1s.448 1 1 1 1-.448 1-1-.448-1-1-1zm10.842-3.461c-.083.13-2.062 3.207-4.58 5.724s-5.594 4.497-5.724 4.58c-.329.21-.749.21-1.078 0-.13-.083-3.207-2.062-5.724-4.58s-4.495-5.594-4.578-5.724c-.21-.329-.21-.75 0-1.078.083-.13 2.062-3.207 4.58-5.724s5.593-4.496 5.723-4.579c.329-.21.749-.21 1.078 0 .13.083 3.207 2.062 5.724 4.58s4.497 5.594 4.58 5.724c.21.329.21.75 0 1.078zm-2.045-.539c-.667-.974-2.188-3.089-3.948-4.849s-3.875-3.281-4.849-3.948c-.974.667-3.089 2.188-4.849 3.948s-3.281 3.875-3.948 4.849c.667.974 2.188 3.089 3.948 4.849s3.875 3.281 4.849 3.948c.974-.667 3.089-2.188 4.849-3.948s3.281-3.875 3.948-4.849z"/></svg>