<svg id="Layer_1" viewBox="0 0 24 24" xmlns="http://www.w3.org/2000/svg" data-name="Layer 1"><path d="m20 13c1.429 0 2-.571 2-2 .019-1.474-.658-2.037-2.104-2-.022-.34-.046-.675-.072-1 1.457.057 2.207-.491 2.176-2 0-1.429-.571-2-2-2h-.631c-.099-.685-.174-1.117-.184-1.173-.067-.381-.348-.689-.721-.792-.154-.042-3.816-1.036-7.465-1.036-1.465 0-3.103.159-4.868.472-1.958.348-3.438 1.908-3.681 3.883-.206 1.662-.451 4.164-.451 6.646s.245 4.983.451 6.645c.243 1.977 1.723 3.536 3.681 3.883 1.764.313 3.401.473 4.868.473 3.648 0 7.311-.993 7.465-1.035.373-.103.653-.411.721-.792.017-.098.235-1.361.441-3.173h.373c1.429 0 2-.571 2-2 .009-1.45-.612-2.019-2.049-2 .015-.331.027-.664.035-1h.014zm-2.683-9.189c.213 1.393.683 4.845.683 8.189 0 1.367-.08 2.745-.187 4h-9.813v-12.788c1.07-.138 2.078-.212 3-.212 2.534 0 5.155.539 6.317.811zm-12.881 1.789c.115-.928.723-1.686 1.564-2.017v12.715c-.576.21-1.169.553-1.682 1.077-.164-1.522-.318-3.456-.318-5.375 0-2.38.237-4.794.436-6.4zm6.564 15.4c-1.33 0-2.893-.152-4.52-.441-.52-.092-.975-.341-1.328-.693.491-1.762 2.158-1.862 2.347-1.866h10.111c-.108.924-.217 1.692-.293 2.188-1.162.272-3.783.812-6.317.812z"/></svg>