<svg id="Layer_1" viewBox="0 0 24 24" xmlns="http://www.w3.org/2000/svg" data-name="Layer 1"><path d="m14 10h-8c-.552 0-1-.447-1-1v-1c0-.553.448-1 1-1h8c.552 0 1 .447 1 1v1c0 .553-.448 1-1 1zm9 2c0 4.397-1.02 7.169-1.063 7.285-.104.275-.324.492-.602.591-.129.046-3.233 1.124-9.335 1.124s-9.206-1.078-9.335-1.124c-.278-.099-.498-.315-.602-.591-.043-.116-1.063-2.888-1.063-7.285s1.02-7.169 1.063-7.285c.104-.275.324-.492.602-.591.129-.046 3.233-1.124 9.335-1.124s9.206 1.078 9.335 1.124c.278.099.498.315.602.591.043.116 1.063 2.888 1.063 7.285zm-2 0c0-3.024-.528-5.219-.792-6.125-1.027-.274-3.78-.875-8.208-.875s-7.18.6-8.208.875c-.263.906-.792 3.102-.792 6.125s.528 5.219.792 6.125c1.027.274 3.78.875 8.208.875s7.18-.6 8.208-.875c.263-.904.792-3.101.792-6.125zm-11 3h-4c-.552 0-1 .447-1 1s.448 1 1 1h4c.552 0 1-.447 1-1s-.448-1-1-1zm8 0h-4c-.552 0-1 .447-1 1s.448 1 1 1h4c.552 0 1-.447 1-1s-.448-1-1-1zm-12-1.5c.552 0 1-.448 1-1s-.448-1-1-1-1 .448-1 1 .448 1 1 1zm4-2c-.552 0-1 .448-1 1s.448 1 1 1 1-.448 1-1-.448-1-1-1zm4 0c-.552 0-1 .448-1 1s.448 1 1 1 1-.448 1-1-.448-1-1-1z"/></svg>