<svg id="Layer_1" viewBox="0 0 24 24" xmlns="http://www.w3.org/2000/svg" data-name="Layer 1"><path d="m22.832 14.945c-1.085-1.628-2.244-2.49-2.293-2.525-.141-.104-.306-.168-.48-.188-.99-.112-4.584-.205-7.059-.227v-2.009c3.94-.031 8.556-.225 8.606-.227.384-.016.726-.252.877-.605.021-.049.517-1.224.517-2.663 0-1.428-.45-2.448-.502-2.559-.153-.333-.477-.556-.843-.58-.05-.003-4.705-.306-8.661-.354l.006-1.001c.003-.553-.442-1.003-.995-1.006h-.005c-.55 0-.997.444-1 .994l-.006 1.011c-2.474.022-6.064.115-7.054.227-.174.02-.339.084-.48.188-.048.036-1.207.897-2.292 2.525-.224.336-.224.773 0 1.109 1.085 1.628 2.244 2.489 2.292 2.525.141.104.306.168.479.188.989.112 4.584.206 7.06.228v2.012c-3.955.048-8.605.351-8.655.354-.366.024-.689.247-.843.58-.052.111-.502 1.131-.502 2.559 0 1.438.496 2.613.517 2.663.151.354.493.589.877.605.05.002 4.66.196 8.598.227l.008 3.007c.001.551.449.997 1 .997h.003c.552-.001.999-.451.997-1.003l-.008-3.002c2.476-.022 6.078-.115 7.068-.228.173-.02.339-.084.479-.188.049-.036 1.208-.897 2.293-2.525.224-.336.224-.773 0-1.109zm-19.601-8.445c.498-.646.964-1.086 1.218-1.306 1.352-.1 5.279-.194 7.552-.194 3.21 0 7.273.221 8.853.315.075.303.146.714.146 1.185 0 .498-.085.958-.172 1.297-1.594.062-5.625.203-8.828.203-2.274 0-6.203-.094-7.552-.194-.253-.22-.719-.66-1.217-1.306zm16.321 10.306c-1.35.1-5.277.194-7.552.194-3.203 0-7.234-.141-8.828-.203-.087-.34-.172-.799-.172-1.297 0-.471.071-.882.146-1.185 1.58-.094 5.643-.315 8.853-.315 2.273 0 6.2.094 7.551.194.254.221.721.661 1.218 1.306-.498.646-.965 1.086-1.218 1.306z"/></svg>