<svg id="Layer_1" viewBox="0 0 24 24" xmlns="http://www.w3.org/2000/svg" data-name="Layer 1"><path d="m22.707 20.793-2.304-2.304c.382-.681.597-1.512.597-2.489 0-2.817-1.683-4.5-4.5-4.5s-4.5 1.683-4.5 4.5 1.683 4.5 4.5 4.5c.977 0 1.808-.215 2.489-.597l2.304 2.304c.391.391 1.023.391 1.414 0s.391-1.023 0-1.414zm-8.707-4.793c0-1.706.794-2.5 2.5-2.5s2.5.794 2.5 2.5-.794 2.5-2.5 2.5-2.5-.794-2.5-2.5zm-3.961 3.463c-3.214-.127-5.29-.546-6.197-.769-.264-1.217-.842-4.222-.842-7.194 0-.685.033-1.333.084-2h17.834c.027.355.049.676.063 1.039.021.553.488 1.008 1.038.96.552-.021.981-.486.96-1.038-.143-3.701-.974-7.062-1.01-7.204-.082-.332-.329-.598-.653-.706-.129-.043-3.225-1.051-9.316-1.051s-9.188 1.008-9.316 1.051c-.324.108-.571.375-.653.706-.042.168-1.03 4.167-1.03 8.243s.988 8.074 1.03 8.242c.083.332.329.599.653.706.101.034 2.522.825 7.277 1.013.548.024 1.017-.407 1.038-.96.022-.552-.407-1.017-.96-1.038zm1.961-15.963c4.344 0 7.079.541 8.158.806.139.642.365 1.827.548 3.194h-17.411c.183-1.368.408-2.552.547-3.194 1.081-.266 3.816-.806 8.158-.806zm-4 2c0-.553.447-1 1-1s1 .447 1 1-.447 1-1 1-1-.447-1-1zm-3 0c0-.553.447-1 1-1s1 .447 1 1-.447 1-1 1-1-.447-1-1z"/></svg>