<svg id="Layer_1" viewBox="0 0 24 24" xmlns="http://www.w3.org/2000/svg" data-name="Layer 1"><path d="m23.002 5.519v-.036c-.037-2.167-1.344-3.469-3.507-3.483-1.149.007-3.309 1.043-4.756 2.013-.331.223-.756.196-1.031-.062-1.325-1.246-3.061-2.48-3.963-2.813-2.053-.729-3.686.03-4.482 2.12-.297.87-.248 2.083-.155 2.949.05.461-.187.891-.603 1.094-.646.316-1.554.826-2.236 1.485-1.684 1.748-1.681 3.73.017 5.447.197.195.399.37.607.524.269.198.367.539.24.83-.333.76-1.111 2.66-1.134 3.931.041 2.2 1.314 3.469 3.507 3.481 1.364-.008 4.01-1.732 5.358-2.817.221-.178.522-.194.766-.038 2.197 1.407 5.661 2.847 6.875 2.854 2.181-.014 3.454-1.283 3.495-3.518-.021-1.194-.708-4.235-1.501-6.641-.19-.577-.124-1.205.181-1.722.383-.649 2.291-3.967 2.322-5.601zm-4.402 7.949c.835 2.533 1.387 5.275 1.4 6.014-.021 1.128-.401 1.512-1.495 1.519-.557-.007-3.526-1.085-5.797-2.539-.44-.282-.939-.421-1.437-.421-.591 0-1.179.197-1.661.585-1.781 1.433-3.68 2.353-4.104 2.375-1.092-.006-1.486-.404-1.507-1.482.009-.481.311-1.635.965-3.127.505-1.152.142-2.485-.882-3.241-.132-.098-.262-.211-.381-.329-.938-.949-.936-1.666-.018-2.62.361-.348.981-.75 1.702-1.103 1.162-.57 1.85-1.817 1.711-3.104-.098-.912-.076-1.693.047-2.055.393-1.028.92-1.273 1.921-.919.504.186 1.993 1.185 3.275 2.39.959.9 2.405 1.008 3.514.266 1.633-1.095 3.247-1.672 3.642-1.675 1.06.007 1.483.427 1.508 1.496-.023.603-.79 2.478-2.045 4.607-.598 1.013-.728 2.24-.357 3.364zm-8.1-3.468c-1.071 0-1.5-.429-1.5-1.5s.429-1.5 1.5-1.5 1.5.429 1.5 1.5-.429 1.5-1.5 1.5zm2.5 4.5c0 1.071-.429 1.5-1.5 1.5s-1.5-.429-1.5-1.5.429-1.5 1.5-1.5 1.5.429 1.5 1.5zm4 2.5c0 .552-.448 1-1 1s-1-.448-1-1 .448-1 1-1 1 .448 1 1zm-2-5c-.552 0-1-.448-1-1s.448-1 1-1 1 .448 1 1-.448 1-1 1zm-7 0c0 .552-.448 1-1 1s-1-.448-1-1 .448-1 1-1 1 .448 1 1z"/></svg>