<svg id="Layer_1" viewBox="0 0 24 24" xmlns="http://www.w3.org/2000/svg" data-name="Layer 1"><path d="m18.646 7.455c-.125-.019-3.113-.455-6.646-.455s-6.521.437-6.646.455c-.398.059-.723.352-.822.742-.022.084-.531 2.097-.531 3.803s.509 3.719.531 3.803c.1.39.424.683.822.742.125.019 3.113.455 6.646.455s6.521-.437 6.646-.455c.398-.059.723-.352.822-.742.021-.084.531-2.097.531-3.803s-.51-3.719-.531-3.803c-.1-.39-.424-.683-.822-.742zm-.969 7.199c-1.064.126-3.26.346-5.678.346s-4.614-.22-5.678-.346c-.138-.67-.322-1.739-.322-2.654s.185-1.984.322-2.654c1.064-.126 3.26-.346 5.678-.346s4.613.22 5.678.346c.138.67.322 1.739.322 2.654s-.185 1.984-.322 2.654zm-16.666-10.824c-.081-.546.296-1.055.843-1.136.191-.028 4.75-.694 10.146-.694s9.955.666 10.146.694c.546.081.924.589.843 1.136-.08.547-.589.926-1.136.843-.046-.007-4.611-.673-9.854-.673s-9.808.666-9.854.673c-.535.082-1.057-.294-1.136-.843zm21.978 16.34c.081.546-.297 1.055-.843 1.136-.191.028-4.75.694-10.146.694s-9.955-.666-10.146-.694c-.546-.081-.923-.589-.843-1.136.081-.546.584-.926 1.136-.843.045.007 4.611.673 9.854.673s9.808-.666 9.854-.673c.547-.079 1.056.296 1.136.843z"/></svg>