<svg id="Layer_1" viewBox="0 0 24 24" xmlns="http://www.w3.org/2000/svg" data-name="Layer 1"><path d="m23 12c0 .553-.447 1-1 1h-20c-.553 0-1-.447-1-1s.447-1 1-1h20c.553 0 1 .447 1 1zm-14.027-6.981v-.036c.033-1.856 1.152-2.972 2.995-2.982 1.827.011 2.975 1.154 3.007 2.982-.035 1.92-1.127 3.006-2.995 3.018-1.881-.012-2.973-1.099-3.007-2.981zm2-.019c.018.771.246.995 1.007 1 .764-.005.98-.224.995-1.019-.013-.721-.268-.977-1.007-.981-.74.005-.978.238-.995 1zm4.002 13.982c-.035 1.92-1.127 3.006-2.995 3.018-1.881-.012-2.973-1.099-3.007-2.981v-.036c.033-1.856 1.152-2.972 2.995-2.982 1.827.011 2.975 1.154 3.007 2.982zm-2 0c-.013-.721-.268-.977-1.007-.981-.74.005-.978.238-.995 1 .018.771.246.995 1.007 1 .764-.005.98-.224.995-1.019z"/></svg>