<svg id="Layer_1" viewBox="0 0 24 24" xmlns="http://www.w3.org/2000/svg" data-name="Layer 1"><path d="m12 13c-4.321 0-7 1.505-7 9 0 .552-.447 1-1 1s-1-.448-1-1c0-7.71 2.691-11 9-11 4.321 0 7-1.505 7-9 0-.552.447-1 1-1s1 .448 1 1c0 7.71-2.691 11-9 11zm5.345.395c-.417.362-.462.994-.101 1.411.052.06.096.132.145.195h-8.389c-.553 0-1 .448-1 1s.447 1 1 1h9.388c.185.59.326 1.257.426 2h-10.814c-.553 0-1 .448-1 1s.447 1 1 1h10.978c.011.325.022.653.022 1 0 .552.447 1 1 1s1-.448 1-1c0-4.037-.713-6.74-2.244-8.505-.363-.417-.994-.461-1.411-.1zm-11.21-2.395c.245 0 .489-.089.683-.269.403-.377.425-1.01.049-1.414-.091-.097-.17-.21-.254-.317h8.387c.553 0 1-.448 1-1s-.447-1-1-1h-9.394c-.185-.588-.326-1.254-.425-2h10.819c.553 0 1-.448 1-1s-.447-1-1-1h-10.979c-.011-.325-.021-.651-.021-1 0-.552-.447-1-1-1s-1 .448-1 1c0 4.167.764 6.926 2.403 8.683.197.211.464.317.731.317z"/></svg>