<svg id="Layer_1" viewBox="0 0 24 24" xmlns="http://www.w3.org/2000/svg" data-name="Layer 1"><path d="m9.072 20.928c-2.237-.162-4.266-.554-5.233-.763-.265-1.271-.838-4.451-.838-8.165s.573-6.894.838-8.166c1.238-.267 4.215-.834 7.162-.834.539 0 1.046.02 1.509.057-.069 3.141.283 4.78.299 4.852.027.122.075.237.144.34.617.924 6.138.728 6.858.644.265-.03.506-.165.67-.374.344-.441.261-1.17-.125-1.559l-5.722-5.443c-.137-.13-.308-.219-.493-.256-.863-.173-1.92-.261-3.141-.261-4.076 0-8.074.988-8.243 1.03-.358.09-.638.37-.728.728-.042.168-1.03 4.178-1.03 9.243s.988 9.074 1.03 9.242c.09.358.37.639.728.728.116.029 2.889.716 6.17.952.544.042 1.031-.373 1.069-.925.04-.551-.375-1.03-.926-1.069zm8.423-13.928c-1.121-.014-2.167-.11-2.835-.19-.068-.552-.146-1.442-.158-2.658zm-.495 4c-4.149 0-6 1.851-6 6s1.851 6 6 6 6-1.851 6-6-1.851-6-6-6zm0 10c-3.028 0-4-.972-4-4s.972-4 4-4 4 .972 4 4-.972 4-4 4zm2.121-4.707-.707.707.707.707c.391.391.391 1.023 0 1.414s-1.023.391-1.414 0l-.707-.707-.707.707c-.391.391-1.023.391-1.414 0s-.391-1.023 0-1.414l.707-.707-.707-.707c-.391-.391-.391-1.023 0-1.414s1.023-.391 1.414 0l.707.707.707-.707c.391-.391 1.023-.391 1.414 0s.391 1.023 0 1.414z"/></svg>