<svg id="Layer_1" viewBox="0 0 24 24" xmlns="http://www.w3.org/2000/svg" data-name="Layer 1"><path d="m19.258 20.03c-.039.01-3.925.97-7.758.97-2.939 0-5.922-.568-7.161-.835-.266-1.271-.839-4.451-.839-8.165s.573-6.894.839-8.165c1.237-.268 4.215-.835 7.161-.835.543 0 1.049.022 1.515.06-.067 3.125.277 4.776.293 4.848.087.396.404.7.804.771.094.016 1.864.321 4.08.321.363 0 .753-.029 1.135-.048.008.604.499 1.119 1.12 1.043.55-.059.946-.552.888-1.101-.054-.5-.117-.957-.181-1.364-.034-.217-.14-.417-.299-.569l-5.721-5.443c-.137-.13-.308-.219-.492-.256-.862-.174-1.919-.262-3.142-.262-4.076 0-8.074.988-8.242 1.03-.358.089-.639.369-.728.728-.042.168-1.03 4.178-1.03 9.242s.988 9.074 1.03 9.242c.089.358.369.639.728.728.168.042 4.166 1.03 8.242 1.03s8.074-.988 8.242-1.03c.536-.134.862-.677.728-1.212-.134-.537-.677-.862-1.212-.728zm-1.267-13.034c-1.164-.011-2.19-.109-2.831-.189-.068-.551-.144-1.443-.156-2.653zm-5.431 4.004c-.284 0-.548.151-.691.396-.068.118-1.685 2.932-1.867 6.761-.021.441.319.816.761.837.41.037.815-.318.837-.761.009-.185.036-.355.052-.535h1.816c.016.18.043.35.052.535.02.442.4.783.837.761.441-.021.782-.396.761-.837-.183-3.829-1.798-6.643-1.866-6.76-.144-.246-.406-.397-.691-.397zm-.677 5.099c.19-.919.437-1.734.677-2.366.24.632.487 1.448.676 2.366zm8.142-5.099c-.65 0-1.193.122-1.254.136-.324.076-.568.345-.611.676-.007.05-.159 1.238-.159 3.186s.152 3.123.159 3.172c.043.32.274.584.587.668.062.016.615.158 1.278.158 2.976 0 2.976-2.904 2.976-3.998s0-3.997-2.976-3.997zm0 6.396c-.117 0-.231-.007-.336-.018-.041-.506-.089-1.324-.089-2.381 0-1.05.048-1.871.088-2.383.105-.009.22-.015.337-.015.677 0 1.376 0 1.376 2.397s-.699 2.398-1.376 2.398zm-2.636-5.476c0 .012-.188 1.185-.188 3.08s.187 3.049.188 3.061c.072.436-.223.848-.658.92-.426.073-.849-.22-.92-.657-.009-.052-.21-1.283-.21-3.323s.201-3.287.21-3.339c.071-.436.479-.731.918-.659.436.071.731.482.66.918zm-7.389 1.78c0-2.697-2.386-2.697-3.17-2.697 0 0-.635-.007-.768 0-.388.024-.692.322-.74.696-.076.34-.322 1.575-.322 3.3 0 1.995.33 3.336.344 3.392.107.431.552.69.97.581.428-.106.688-.54.583-.969-.002-.009-.16-.658-.244-1.705.906-.009 3.304.088 3.348-2.599zm-3.397.997c.017-.893.104-1.621.179-2.095 1.537-.024 1.649.422 1.619 1.098.121.593-.352 1.087-1.798.997z"/></svg>