<svg id="Layer_1" viewBox="0 0 24 24" xmlns="http://www.w3.org/2000/svg" data-name="Layer 1"><path d="m22.707 6.293c-.894-.894-2.039-1.17-2.697-1.255-.362-.412-1.039-1.05-2.01-1.534v-1.67c0-.566-.568-.988-1.095-.781-.902.354-2.229 1.424-2.71 3.431-.911 1.061-1.42 1.925-1.808 3.055-4.768-2.701-6.472-5.945-6.494-5.99-.248-.491-.846-.69-1.34-.444-.494.247-.694.848-.447 1.342.071.141 1.472 2.87 5.272 5.553h-.877c-2.102 0-3.653.445-4.715 1.371-.602-.513-.785-.902-.785-2.371 0-.552-.448-1-1-1s-1 .448-1 1c0 2.234.521 3.076 1.608 3.989-.41.935-.608 2.1-.608 3.511 0 3.965.492 6.997.513 7.124.04.239.164.456.351.609.095.078.973.767 2.443.767 1.524 0 2.314-.747 2.399-.832.163-.163.265-.377.288-.607.002-.021.179-1.79.322-3.715.433.092.938.154 1.683.154.71 0 1.189-.062 1.587-.152.143 1.927.32 3.692.322 3.713.023.229.125.444.288.607.085.085.875.832 2.399.832 1.47 0 2.348-.688 2.443-.767.177-.146.299-.348.344-.573.014-.068.337-1.708.467-6.44.24-.571.907-2.293 1.098-4.215 1.765-.073 2.9-.566 2.956-.59.212-.094.386-.259.49-.467.062-.124.605-1.26.605-2.947 0-.265-.105-.52-.293-.707zm-14.624 9.426-.42-.118c-.587-.176-1.237.29-1.259.903-.105 1.688-.271 3.518-.353 4.37-.166.064-.411.126-.745.126-.389 0-.689-.083-.888-.164-.134-.98-.419-3.417-.419-6.336 0-3.364 1.136-4.5 4.5-4.5h2.5v3c0 1.156.154 2.16.299 2.858-.337.089-.673.142-1.299.142-.939 0-1.307-.106-1.917-.281zm7.773-.745c-.086 3.336-.27 5.116-.368 5.859-.202.083-.502.167-.892.167-.335 0-.582-.062-.745-.125-.081-.853-.248-2.691-.354-4.388-.061-.433-.466-1.341-.498-3.487v-2.4c.722.77 1.909 1.732 3.567 2.201-.288 1.031-.615 1.771-.62 1.784-.056.122-.086.255-.09.389zm4.879-6.266c-.49.146-1.446.359-2.682.293-.561-.043-1.063.442-1.054.999 0 .277-.016.555-.044.83-1.488-.474-2.458-1.504-2.868-2.027.391-1.422.836-2.22 2.327-3.79 1.474.43 2.25 1.536 2.254 1.542.183.274.496.441.825.445.01 0 .825.017 1.489.455-.043.54-.155.975-.246 1.253z"/></svg>