<svg id="Layer_1" viewBox="0 0 24 24" xmlns="http://www.w3.org/2000/svg" data-name="Layer 1"><path d="m22.707 6.293c-.894-.894-2.039-1.17-2.696-1.255-.362-.412-1.039-1.05-2.011-1.534v-1.67c0-.566-.568-.988-1.095-.781-.902.354-2.229 1.425-2.71 3.431-1.032 1.202-1.55 2.143-1.959 3.515h-3.736c-2.102 0-3.653.445-4.715 1.371-.602-.513-.785-.902-.785-2.371 0-.552-.448-1-1-1s-1 .448-1 1c0 2.234.521 3.076 1.608 3.989-.41.935-.608 2.1-.608 3.511 0 3.965.492 6.997.513 7.124.04.239.164.456.351.609.095.078.973.767 2.443.767 1.524 0 2.314-.747 2.399-.832.163-.163.265-.377.288-.607.002-.021.179-1.79.322-3.715.433.092.938.154 1.683.154.71 0 1.189-.062 1.587-.152.143 1.927.32 3.692.322 3.713.023.229.125.444.288.607.085.085.875.832 2.4.832 1.47 0 2.348-.688 2.443-.767.177-.146.299-.348.345-.573.014-.068.337-1.708.466-6.44.24-.571.907-2.293 1.098-4.215 1.766-.073 2.901-.566 2.957-.59.212-.094.385-.259.489-.467.062-.124.605-1.26.605-2.947 0-.265-.105-.52-.293-.707zm-1.971 2.415c-.491.146-1.451.359-2.683.293-.286-.018-.543.084-.741.273-.199.188-.312.451-.312.726 0 2.243-1.043 4.562-1.054 4.585-.056.122-.086.255-.09.389-.086 3.336-.27 5.116-.367 5.859-.202.083-.503.167-.893.167-.336 0-.582-.062-.745-.125-.081-.853-.248-2.691-.354-4.388-.023-.614-.67-1.079-1.259-.903-.853.229-1.121.421-2.239.416-1.122.004-1.496-.171-2.336-.399-.588-.176-1.236.29-1.259.903-.105 1.688-.271 3.518-.353 4.37-.166.064-.411.126-.745.126-.389 0-.689-.083-.888-.164-.134-.98-.419-3.417-.419-6.336 0-3.364 1.136-4.5 4.5-4.5h4.5c.459 0 .858-.312.97-.757.431-1.719.805-2.502 2.444-4.23 1.474.43 2.25 1.536 2.254 1.542.183.274.496.441.825.445.01 0 .825.017 1.488.455-.043.54-.154.975-.245 1.253z"/></svg>