<svg id="Layer_1" viewBox="0 0 24 24" xmlns="http://www.w3.org/2000/svg" data-name="Layer 1"><path d="m20.974 20.909c-.126-.538-.665-.874-1.201-.746-.007.002-.141.032-.381.081.246-1.486.609-4.216.609-7.366 0-4.707-.798-8.167-.832-8.312-.077-.328-.312-.595-.629-.71-.048-.018-1.038-.378-2.53-.685v-.945c.002-.486-.348-.902-.826-.986-.88-.155-2.011-.24-3.183-.24-3.482 0-6.442 1.172-6.567 1.222-.309.125-.536.395-.605.721-.033.16-.827 3.968-.827 9.057 0 3.618.394 6.694.638 8.25-.259-.052-.404-.086-.412-.088-.536-.124-1.075.209-1.2.747s.209 1.075.746 1.201c.156.037 3.863.89 8.228.89s8.072-.854 8.228-.89c.538-.126.872-.664.746-1.201zm-6.984.031c-.64.038-1.307.06-1.989.06-1.993 0-3.867-.194-5.275-.395-.185-1.059-.725-4.5-.725-8.605 0-3.788.47-6.892.683-8.1.928-.307 3.02-.9 5.317-.9.712 0 1.4.034 2.009.097l-.019 17.843zm3.307-.337c-.4.057-.839.114-1.307.166l.017-15.552c.551.125 1.006.251 1.326.348.215 1.124.667 3.886.667 7.312 0 3.576-.504 6.649-.703 7.725z"/><circle cx="12" cy="12.001" r=".997"/></svg>