<svg id="Layer_1" viewBox="0 0 24 24" xmlns="http://www.w3.org/2000/svg" data-name="Layer 1"><path d="m20.974 20.909c-.125-.538-.667-.874-1.201-.746-.007.002-.152.035-.412.088.243-1.561.64-4.654.64-8.25 0-5.132-.794-8.901-.828-9.059-.069-.325-.296-.594-.604-.718-.124-.05-3.078-1.223-6.567-1.223s-6.443 1.172-6.567 1.222c-.31.125-.537.395-.606.721-.034.16-.827 3.968-.827 9.057 0 3.618.394 6.694.638 8.249-.259-.052-.404-.086-.411-.087-.537-.125-1.076.209-1.201.747s.208 1.075.747 1.201c.155.037 3.863.89 8.227.89s8.072-.854 8.228-.89c.538-.126.872-.664.746-1.201zm-3.7-.303c-1.407.201-3.279.394-5.274.394s-3.867-.194-5.275-.395c-.185-1.059-.725-4.5-.725-8.605 0-3.789.47-6.894.682-8.101.925-.307 3.009-.899 5.318-.899s4.393.593 5.318.9c.213 1.2.682 4.284.682 8.1 0 4.065-.541 7.539-.726 8.606z"/><circle cx="15" cy="12.001" r=".997"/></svg>