<svg id="Layer_1" viewBox="0 0 24 24" xmlns="http://www.w3.org/2000/svg" data-name="Layer 1"><path d="m14.011 21.999c-2.202 0-4.428-.234-6.666-.702-.626-.114-.989-.865-.689-1.427.031-.063.728-1.438 2.531-3.671-.529-.479-1.017-.941-1.457-1.381-2.295-2.295-5.374-6.061-5.504-6.22-.225-.276-.287-.65-.162-.983.052-.137.554-1.39 2.357-3.193s3.056-2.306 3.193-2.357c.332-.125.708-.063.983.162.159.13 3.925 3.209 6.22 5.504.44.44.902.928 1.381 1.457 2.233-1.803 3.608-2.5 3.671-2.531.562-.3 1.312.064 1.427.689.937 4.478.936 8.915-.002 13.187-.083.381-.381.679-.762.762-2.138.47-4.316.704-6.521.705zm-4.854-2.399c3.501.572 6.962.529 10.315-.128.656-3.354.699-6.814.128-10.316-.693.462-1.669 1.169-2.861 2.18-.418.354-1.042.307-1.401-.106-.68-.781-1.331-1.483-1.934-2.086-1.739-1.738-4.445-4.021-5.562-4.949-.432.266-1.134.768-2.006 1.64-.871.871-1.373 1.573-1.64 2.007.929 1.118 3.211 3.824 4.949 5.562.603.603 1.305 1.253 2.086 1.934.413.359.46.984.106 1.401-1.01 1.191-1.718 2.167-2.18 2.861z"/></svg>