<svg id="Layer_1" viewBox="0 0 24 24" xmlns="http://www.w3.org/2000/svg" data-name="Layer 1"><path d="m20 17c-.226 0-.435.017-.635.043-1.314-1.95-2.306-3.016-3.427-4.279.038-.237.062-.489.062-.764s-.024-.527-.062-.764c1.12-1.263 2.113-2.33 3.427-4.279.2.026.41.043.635.043 1.99 0 3-1.009 3-3s-1.01-3-3-3c-1.356 0-2.245.48-2.681 1.408-1.481-.207-3.404-.408-5.319-.408s-3.853.203-5.319.407c-.437-.928-1.326-1.407-2.681-1.407-1.99 0-3 1.009-3 3 0 1.356.48 2.245 1.407 2.681-.207 1.483-.407 3.407-.407 5.319s.203 3.853.407 5.319c-.928.437-1.407 1.326-1.407 2.681 0 1.991 1.01 3 3 3 1.356 0 2.245-.48 2.681-1.407 1.466.205 3.399.407 5.319.407s3.853-.203 5.319-.408c.437.928 1.326 1.408 2.681 1.408 1.99 0 3-1.009 3-3s-1.01-3-3-3zm0-14c.879 0 1 .122 1 1s-.121 1-1 1-1-.122-1-1 .121-1 1-1zm-16 0c.879 0 1 .122 1 1s-.121 1-1 1-1-.122-1-1 .121-1 1-1zm0 18c-.879 0-1-.122-1-1s.121-1 1-1 1 .122 1 1-.121 1-1 1zm2.974-1.386c-.12-1.6-.989-2.468-2.588-2.588-.194-1.395-.386-3.224-.386-5.026s.19-3.615.387-5.026c1.599-.12 2.468-.988 2.587-2.588 1.395-.194 3.223-.386 5.026-.386s3.617.19 5.026.386c.051.679.237 1.226.556 1.64-1.006 1.474-1.914 2.507-2.73 3.42-.473-.295-1.089-.447-1.853-.447-1.99 0-3 1.009-3 3s1.01 3 3 3c.763 0 1.379-.151 1.853-.447.816.914 1.723 1.946 2.73 3.42-.319.414-.505.961-.556 1.64-1.395.194-3.223.386-5.026.386s-3.632-.192-5.026-.386zm7.026-7.614c0 .878-.121 1-1 1s-1-.122-1-1 .121-1 1-1 1 .122 1 1zm6 9c-.879 0-1-.122-1-1s.121-1 1-1 1 .122 1 1-.121 1-1 1z"/></svg>