<svg id="Layer_1" viewBox="0 0 24 24" xmlns="http://www.w3.org/2000/svg" data-name="Layer 1"><path d="m21.593 17.319c.207-1.483.407-3.407.407-5.319s-.203-3.853-.407-5.319c.928-.437 1.407-1.326 1.407-2.681 0-1.991-1.01-3-3-3-1.356 0-2.245.48-2.681 1.408-1.481-.207-3.404-.408-5.319-.408s-3.853.203-5.319.407c-.437-.928-1.326-1.407-2.681-1.407-1.99 0-3 1.009-3 3 0 1.356.48 2.245 1.407 2.681-.207 1.483-.407 3.407-.407 5.319s.203 3.853.407 5.319c-.928.437-1.407 1.326-1.407 2.681 0 1.991 1.01 3 3 3 1.356 0 2.245-.48 2.681-1.407 1.466.205 3.399.407 5.319.407s3.853-.203 5.319-.408c.437.928 1.326 1.408 2.681 1.408 1.99 0 3-1.009 3-3 0-1.356-.48-2.245-1.407-2.681zm-1.593-14.319c.879 0 1 .122 1 1s-.121 1-1 1-1-.122-1-1 .121-1 1-1zm-16 0c.879 0 1 .122 1 1s-.121 1-1 1-1-.122-1-1 .121-1 1-1zm0 18c-.879 0-1-.122-1-1s.121-1 1-1 1 .122 1 1-.121 1-1 1zm2.974-1.386c-.12-1.6-.989-2.468-2.588-2.588-.194-1.395-.386-3.224-.386-5.026s.19-3.615.387-5.026c1.599-.12 2.468-.988 2.587-2.588 1.395-.194 3.223-.386 5.026-.386s3.617.19 5.026.386c.12 1.6.989 2.468 2.588 2.588.194 1.395.386 3.224.386 5.026s-.19 3.615-.387 5.026c-1.599.12-2.468.988-2.587 2.588-1.395.194-3.223.386-5.026.386s-3.632-.192-5.026-.386zm13.026 1.386c-.879 0-1-.122-1-1s.121-1 1-1 1 .122 1 1-.121 1-1 1z"/></svg>