<svg id="Layer_1" viewBox="0 0 24 24" xmlns="http://www.w3.org/2000/svg" data-name="Layer 1"><path d="m8.732 8.7c-.057.073-.118.192-.083.341.28 1.21.938 1.959 3.351 1.959 2.077 0 2.703-.511 3.081-1.393.217-.508.806-.745 1.313-.525.507.218.743.806.525 1.312-.99 2.31-3.149 2.606-4.919 2.606-3.019 0-4.753-1.147-5.3-3.507-.163-.702 0-1.438.451-2.018.472-.608 1.183-.968 1.951-.985 1.737-.041 2.214-.22 3.19-1.196.39-.391 1.023-.391 1.414 0s.391 1.023 0 1.414c-1.454 1.455-2.458 1.731-4.557 1.782-.162.004-.318.082-.417.211zm3.268 8.299c-3.411 0-5 1.589-5 5 0 .553.448 1 1 1s1-.447 1-1c0-2.299.701-3 3-3s3 .701 3 3c0 .553.448 1 1 1s1-.447 1-1c0-3.411-1.589-5-5-5zm0-3c-5.932 0-8.707 2.451-8.998 7.947-.029.552.394 1.022.946 1.052.557.034 1.022-.395 1.051-.946.233-4.412 2.131-6.052 7.001-6.052s6.768 1.641 7.001 6.052c.028.553.505.976 1.051.946.552-.029.975-.5.946-1.052-.291-5.496-3.066-7.947-8.998-7.947zm-7.941 1c.551.006 1.005-.438 1.01-.99 0-.032.044-3.176.896-6.097.755-2.794 3.35-4.905 6.032-4.912 2.687.007 5.282 2.118 6.042 4.931.847 2.902.89 6.046.891 6.078.006.549.452.99 1 .99.555 0 1.006-.454 1-1.01-.001-.145-.045-3.445-.965-6.599-.998-3.694-4.346-6.382-7.967-6.39-3.616.009-6.965 2.696-7.957 6.371-.926 3.174-.969 6.474-.971 6.619-.005.553.438 1.004.99 1.01z"/></svg>