<svg id="Layer_1" viewBox="0 0 24 24" xmlns="http://www.w3.org/2000/svg" data-name="Layer 1"><path d="m17.293 18.707c.391.391 1.023.391 1.414 0s.391-1.023 0-1.414l-2.586-2.586c-.723-.723-1.121-1.685-1.121-2.707s.398-1.984 1.121-2.707l2.586-2.586c.391-.391.391-1.023 0-1.414s-1.023-.391-1.414 0l-2.586 2.586c-1.446 1.446-3.968 1.446-5.414 0l-2.586-2.586c-.391-.391-1.023-.391-1.414 0s-.391 1.023 0 1.414l2.586 2.586c.723.723 1.121 1.685 1.121 2.707s-.398 1.984-1.121 2.707l-2.586 2.586c-.391.391-.391 1.023 0 1.414s1.023.391 1.414 0l2.586-2.586c1.446-1.446 3.968-1.446 5.414 0zm-5.293-5.707c-.375 0-.745.037-1.106.106.069-.361.106-.731.106-1.106s-.037-.745-.106-1.106c.361.069.731.106 1.106.106s.745-.037 1.106-.106c-.069.361-.106.731-.106 1.106s.037.745.106 1.106c-.361-.069-.731-.106-1.106-.106zm1.063-8.121c.319-2.61 1.934-3.879 4.937-3.879 3.411 0 5 1.589 5 5 0 3.003-1.269 4.618-3.879 4.937-.538.069-1.049-.321-1.114-.872-.067-.548.323-1.047.872-1.114 1.375-.168 2.121-.688 2.121-2.952 0-2.299-.701-3-3-3-2.264 0-2.784.746-2.952 2.121-.067.549-.566.933-1.114.872-.548-.067-.938-.566-.872-1.114zm9.937 13.121c0 3.411-1.589 5-5 5-3.003 0-4.618-1.269-4.937-3.879-.067-.548.323-1.047.872-1.114.547-.066 1.047.323 1.114.872.168 1.375.688 2.121 2.952 2.121 2.299 0 3-.701 3-3 0-2.264-.746-2.784-2.121-2.952-.548-.067-.938-.566-.872-1.114.067-.549.569-.938 1.114-.872 2.61.319 3.879 1.934 3.879 4.937zm-22-12c0-3.411 1.589-5 5-5 3.003 0 4.618 1.269 4.937 3.879.067.548-.323 1.047-.872 1.114-.547.061-1.047-.323-1.114-.872-.168-1.375-.688-2.121-2.952-2.121-2.299 0-3 .701-3 3 0 2.264.746 2.784 2.121 2.952.548.067.938.566.872 1.114-.065.551-.576.94-1.114.872-2.61-.319-3.879-1.934-3.879-4.937zm9.937 13.121c-.319 2.61-1.934 3.879-4.937 3.879-3.411 0-5-1.589-5-5 0-3.003 1.269-4.618 3.879-4.937.545-.066 1.046.323 1.114.872.067.548-.323 1.047-.872 1.114-1.375.168-2.121.688-2.121 2.952 0 2.299.701 3 3 3 2.264 0 2.784-.746 2.952-2.121.067-.549.566-.938 1.114-.872.548.067.938.566.872 1.114z"/></svg>