<svg id="Layer_1" viewBox="0 0 24 24" xmlns="http://www.w3.org/2000/svg" data-name="Layer 1"><path d="m12 1c-5.439 0-11 .951-11 8v6c0 7.049 5.561 8 11 8s11-.951 11-8v-6c0-7.049-5.561-8-11-8zm-2.271 9.522c.314-.599.463-1.227.499-1.814.499.196 1.073.299 1.772.299s1.272-.103 1.772-.299c.035.587.185 1.216.499 1.814 1.286 2.099 3.84 2.493 5.415 2.525-1.241 1.25-3.548 1.953-7.685 1.953s-6.444-.703-7.685-1.953c1.575-.031 4.129-.426 5.415-2.525zm11.271-1.522c0 .728-.062 1.399-.212 2.011-.011.001-.022-.004-.033-.002-.034.004-3.523.42-4.75-1.486-.576-1.276-.158-2.266 1.333-5.4l.203-.428c2.763.942 3.46 2.8 3.46 5.305zm-5.473-5.774c-1.608 3.248-2.007 3.782-3.527 3.782s-1.918-.534-3.527-3.782c.996-.147 2.159-.226 3.527-.226s2.531.078 3.527.226zm-9.067.47.203.428c1.491 3.134 1.909 4.124 1.333 5.4-1.235 1.92-4.714 1.49-4.752 1.485-.011-.001-.021.003-.031.002-.15-.612-.212-1.283-.212-2.011 0-2.505.696-4.362 3.46-5.305zm14.54 11.305c0 3.704-1.506 6-9 6s-9-2.297-9-6.001v-.422c2.102 2.041 5.574 2.422 9 2.422s6.898-.381 9-2.422v.422z"/></svg>