<svg id="Layer_1" viewBox="0 0 24 24" xmlns="http://www.w3.org/2000/svg" data-name="Layer 1"><path d="m22.333 6.528c-.261-.487-.868-.67-1.354-.409s-.67.867-.409 1.354c.29.541.431 1.204.431 2.028 0 2.778-1.506 4.5-9 4.5s-9.001-1.723-9.001-4.501 1.505-4.5 9-4.5c.69 0 1.34.015 1.949.046.542.031 1.021-.396 1.05-.948.027-.552-.396-1.021-.948-1.049-.641-.033-1.324-.049-2.051-.049-5.439 0-11 .772-11 6.5v7c0 5.728 5.561 6.5 11 6.5s11-.772 11-6.5v-7c0-1.162-.219-2.134-.667-2.972zm-11.333 14.457c-1.153-.026-2.145-.1-3-.217v-4.977c.967.121 1.979.178 3 .199zm2-4.995c1.021-.021 2.033-.078 3-.199v4.977c-.855.117-1.847.19-3 .217zm-10 .51v-2.468c.82.646 1.848 1.087 3 1.384v4.932c-2.381-.74-3-2.079-3-3.849zm15 3.849v-4.932c1.152-.297 2.18-.738 3-1.384v2.468c0 1.77-.619 3.108-3 3.849zm-5.665-11.096 9.001-8.001c.411-.367 1.044-.33 1.411.083s.33 1.045-.083 1.412l-9 8.001c-.411.365-1.043.331-1.412-.083-.367-.413-.33-1.045.083-1.412z"/></svg>