<svg id="Layer_1" viewBox="0 0 24 24" xmlns="http://www.w3.org/2000/svg" data-name="Layer 1"><path d="m9.999 17.977c.031-.552-.391-1.023-.942-1.055-2.743-.156-4.261-.51-4.909-.701-.271-.912-.853-3.155-1.053-6.134-.046-.686-.071-1.326-.083-1.926 1.468.331 4.459.839 8.989.839s7.52-.508 8.988-.839c-.012.556-.033 1.144-.073 1.776-.035.551.383 1.026.935 1.062.544.021 1.026-.384 1.062-.935.274-4.322-.169-7.048-.188-7.162-.061-.366-.321-.669-.674-.785-.139-.045-3.473-1.116-10.048-1.116s-9.913 1.07-10.051 1.115c-.354.116-.613.419-.674.785-.02.117-.474 2.907-.178 7.319.28 4.181 1.261 6.995 1.303 7.112.09.255.279.462.523.575.071.033.402.175 1.074.346v1.746c0 1.654 1.346 3 3 3s3-1.346 3-3v-2c0-.006-.003-.011-.003-.016 0-.003.002-.005.002-.007zm3.001-14.962c1.109.02 2.109.07 3 .14v3.694c-.891.07-1.892.121-3 .141zm-2 3.975c-1.108-.02-2.109-.071-3-.141v-3.694c.891-.07 1.891-.12 3-.14zm9.98-.886c-.525.133-1.521.349-2.98.538v-3.283c1.321.171 2.277.365 2.831.498.053.489.118 1.255.15 2.247zm-14.98-2.745v3.284c-1.459-.188-2.454-.405-2.979-.537.032-.989.096-1.758.149-2.248.554-.133 1.51-.328 2.83-.499zm1 17.641c-.551 0-1-.448-1-1v-1.364c.572.081 1.235.156 2 .217v1.147c0 .552-.449 1-1 1zm12.06-9.842c-.831-.5-1.178-.606-1.388-.644-.235-.04-.476.004-.681.124-1.104.653-1.597 1.656-1.815 2.567-.416-.317-1.01-.264-1.357.129-.92 1.032-1.819 2.237-1.819 4.599 0 2.632 2.513 5.066 5.465 5.066s5.571-2.434 5.569-5.095c0-2.891-1.337-5.16-3.974-6.747zm.381 9.225c-.086-1.14-1.204-2.034-1.437-2.207-.32-.237-.756-.236-1.074.002-.229.171-1.314 1.046-1.422 2.166-.885-.585-1.508-1.487-1.508-2.411 0-1.213.302-1.95.753-2.584l.675.471c.306.213.704.239 1.035.066.33-.173.537-.515.537-.887 0-1.17.19-1.894.64-2.353.103.056.231.129.389.224 2.022 1.218 3.005 2.864 3.005 5.034 0 .954-.659 1.889-1.593 2.478z"/></svg>