<svg id="Layer_1" viewBox="0 0 24 24" xmlns="http://www.w3.org/2000/svg" data-name="Layer 1"><path d="m22.723 2.901c-.062-.367-.321-.669-.674-.785-.139-.045-3.473-1.116-10.049-1.116s-9.91 1.071-10.048 1.116c-.354.116-.613.418-.674.785-.02.117-.474 2.907-.178 7.319.28 4.18 1.261 6.995 1.303 7.113.09.254.279.461.523.574.083.038.418.18 1.074.348v1.744c0 1.654 1.346 3 3 3s3-1.346 3-3v-1.035c.62.021 1.28.035 2 .035s1.38-.014 2-.035v1.035c0 1.654 1.346 3 3 3s3-1.346 3-3v-1.744c.656-.168.991-.309 1.074-.348.244-.113.433-.32.522-.574.042-.118 1.024-2.933 1.305-7.113.295-4.412-.159-7.203-.179-7.319zm-1.744 3.204c-.525.132-1.52.349-2.979.537v-3.284c1.32.171 2.275.365 2.83.499.053.49.117 1.259.149 2.247zm-12.979.744v-3.694c.891-.07 1.891-.12 3-.14v3.975c-1.108-.02-2.109-.071-3-.141zm5-3.834c1.109.02 2.109.07 3 .14v3.694c-.891.07-1.892.121-3 .141zm-7 .344v3.284c-1.459-.188-2.454-.405-2.979-.537.032-.989.096-1.758.149-2.248.554-.133 1.51-.328 2.83-.499zm2 16.641c0 .551-.449 1-1 1s-1-.449-1-1v-1.362c.573.082 1.233.157 2 .217zm10 0c0 .551-.448 1-1 1s-1-.449-1-1v-1.145c.767-.061 1.427-.136 2-.217zm1.852-3.78c-.858.253-3.205.78-7.852.78s-7.001-.529-7.852-.779c-.271-.916-.854-3.17-1.053-6.134-.046-.686-.071-1.326-.083-1.926 1.468.331 4.459.839 8.989.839s7.52-.508 8.989-.839c-.013.6-.037 1.24-.083 1.926-.198 2.963-.783 5.217-1.054 6.133z"/></svg>