<svg id="Layer_1" viewBox="0 0 24 24" xmlns="http://www.w3.org/2000/svg"><path d="m7.529 15.934c.083.211.906 2.066 4.432 2.066s4.35-1.855 4.432-2.066c.077-.198.089-.416.034-.622-.43-1.601-1.112-2.604-1.84-3.312.728-.708 1.411-1.711 1.84-3.312.055-.205.043-.423-.034-.621-.083-.211-.906-2.066-4.432-2.066s-4.35 1.855-4.432 2.066c-.077.198-.089.416-.034.621.424 1.581 1.136 2.589 1.902 3.312-.766.723-1.478 1.731-1.902 3.312-.055.206-.043.423.034.622zm4.038-4.758c-.751-.517-1.518-1.142-2.001-2.55.292-.249.97-.626 2.396-.626 1.443 0 2.12.386 2.399.619-.493 1.468-1.248 2.089-1.927 2.557-.271.187-.433.495-.433.824s.162.637.433.824c.678.467 1.432 1.086 1.925 2.549-.292.249-.969.627-2.396.627-1.441 0-2.118-.385-2.398-.619.484-1.415 1.251-2.041 2.003-2.558.271-.187.433-.495.433-.824s-.162-.637-.433-.824zm11.433.824c0 7.71-3.29 11-11 11-4.36-.036-7.036-.915-8.937-3.234-.343-.433-.271-1.062.163-1.405.432-.343 1.06-.271 1.405.163 1.485 1.799 3.667 2.441 7.37 2.476 6.561 0 9-2.439 9-9 0-4.052-.908-6.432-2.99-7.725.009.529.042 1.058.117 1.584.078.547-.302 1.053-.848 1.131-.535.08-1.056-.299-1.131-.848-.197-1.375-.197-2.771 0-4.146.062-.44.408-.786.848-.848 1.375-.197 2.77-.197 4.146 0 .546.078.926.584.848 1.131-.079.546-.584.921-1.131.848-.395-.056-.792-.084-1.189-.103 2.248 1.734 3.33 4.629 3.33 8.976zm-13.992-9.823c-.051-.55.354-1.037.904-1.087.645-.06 1.348-.09 2.088-.09.552 0 1 .448 1 1s-.448 1-1 1c-.68 0-1.321.027-1.905.081-.542.053-1.039-.352-1.087-.904zm-6.521 14.305c-.529.107-1.069-.244-1.173-.79-.126-.645-.215-1.354-.265-2.108-.036-.551.381-1.027.932-1.064.555-.041 1.027.381 1.064.932.044.669.122 1.294.232 1.857.106.542-.248 1.067-.79 1.173zm1.274-11.648c-.375-.406-.351-1.038.055-1.413.545-.504 1.184-.934 1.898-1.276.497-.238 1.095-.029 1.334.47.239.498.028 1.095-.47 1.334-.534.256-1.006.572-1.404.94-.404.375-1.037.351-1.413-.055zm-2.618 4.571c.092-.761.231-1.472.412-2.111.15-.531.705-.837 1.234-.69.532.15.841.703.69 1.234-.153.541-.271 1.149-.351 1.809-.064.551-.575.941-1.113.872-.548-.066-.938-.565-.872-1.113z"/></svg>