<svg id="Layer_1" viewBox="0 0 24 24" xmlns="http://www.w3.org/2000/svg"><path d="m15.342 20.172c.298.465.162 1.083-.303 1.381-1.5.96-3.532 1.447-6.039 1.447-6.498 0-7.876-3.352-7.932-3.495-.077-.198-.089-.416-.034-.621.992-3.701 2.427-5.606 3.933-6.884-1.504-1.276-2.939-3.182-3.933-6.884-.055-.206-.043-.423.034-.622.056-.143 1.434-3.495 7.932-3.495 2.507 0 4.539.487 6.039 1.447.465.298.601.916.303 1.381-.297.465-.916.601-1.381.303-.807-.516-2.322-1.131-4.961-1.131-4.055 0-5.499 1.405-5.925 1.992.997 3.462 2.369 4.986 4.11 6.184.271.187.434.495.434.824s-.162.638-.433.824c-1.744 1.2-3.117 2.726-4.112 6.188.414.569 1.852 1.988 5.926 1.988 2.639 0 4.154-.615 4.961-1.131.466-.297 1.084-.162 1.381.303zm7.658-8.172c0 4.149-1.851 6-6 6s-6-1.851-6-6 1.851-6 6-6 6 1.851 6 6zm-2 0c0-3.028-.972-4-4-4s-4 .972-4 4 .972 4 4 4 4-.972 4-4zm-3-.414v-1.586c0-.552-.447-1-1-1s-1 .448-1 1v2c0 .265.105.52.293.707l1 1c.391.391 1.023.391 1.414 0s.391-1.023 0-1.414zm-9.57 2.807c-.993.688-1.879 1.38-2.679 2.883-.309.547.022 1.298.634 1.438.741.19 1.621.286 2.614.286 1.085-.038 2.017-.034 2.82-.393-1.367-.965-2.246-2.427-2.614-4.362-.265-.072-.545-.01-.776.147z"/></svg>