<svg id="Layer_1" viewBox="0 0 24 24" xmlns="http://www.w3.org/2000/svg" data-name="Layer 1"><path d="m9.707 15.707-7 7c-.391.391-1.023.391-1.414 0s-.391-1.023 0-1.414l7-7c.391-.391 1.023-.391 1.414 0s.391 1.023 0 1.414zm3.963-2.929c-.521.182-.796.752-.614 1.273.182.527.767.797 1.274.614 2.67-.932 2.67-3.742 2.67-4.666 0-3.411-1.589-5-5-5s-5 1.589-5 5c0 .552.447 1 1 1 .802 0 .871.199.918.331.181.526.767.795 1.273.613.521-.183.796-.753.613-1.274-.285-.816-.877-1.33-1.755-1.547.186-1.598.978-2.122 2.95-2.122 2.299 0 3 .701 3 3 0 2.134-.687 2.553-1.33 2.778zm9.037-11.485c-.391-.391-1.023-.391-1.414 0l-2.154 2.154c-1.447-1.672-3.774-2.447-7.139-2.447-6.309 0-9 2.691-9 9 0 .552.447 1 1 1s1-.448 1-1c0-5.168 1.832-7 7-7s7 1.832 7 7c0 3.544-1.319 4.812-2.99 6.415-.852.761-1.738 1.818-2.28 2.662-.923 1.333-1.388 1.923-2.729 1.923-.782 0-1.359-.228-1.717-.677-.346-.433-.974-.506-1.405-.161-.433.344-.505.973-.161 1.405.745.938 1.881 1.433 3.283 1.433 2.447 0 3.427-1.416 4.374-2.786.532-.823 1.259-1.672 2.021-2.356 1.772-1.702 3.605-3.461 3.605-7.858 0-1.931-.255-3.52-.786-4.8l2.493-2.493c.391-.391.391-1.023 0-1.414z"/></svg>