<svg id="Layer_1" viewBox="0 0 24 24" xmlns="http://www.w3.org/2000/svg" data-name="Layer 1"><path d="m23 14.25c0-.736-.353-1.447-1.078-2.172-.285-.285-.656-.521-.964-.689-.165-1.233-.835-1.997-1.958-2.27v-1.118c0-4.841-2.159-7-7-7s-7 2.159-7 7v1.118c-1.122.272-1.793 1.036-1.958 2.27-.308.168-.68.404-.965.689-.725.725-1.078 1.436-1.078 2.172 0 .594.229 1.17.696 1.75-.468.581-.696 1.157-.696 1.75 0 .736.353 1.447 1.078 2.172.285.285.656.521.965.689.209 1.566 1.221 2.389 2.958 2.389 1.171 0 2.094-.438 2.616-1.259.667-1.121 1.384-3.396 1.384-5.741 0-2.271-.979-4.937-1.302-5.568-.321-.69-.895-1.126-1.698-1.317v-1.115c0-3.738 1.262-5 5-5s5 1.262 5 5v1.115c-.802.189-1.373.618-1.683 1.285-.338.663-1.317 3.33-1.317 5.6 0 2.346.717 4.62 1.4 5.768.506.795 1.429 1.232 2.6 1.232 1.736 0 2.748-.822 2.958-2.388.308-.169.68-.405.964-.69.726-.725 1.079-1.436 1.079-2.172 0-.594-.229-1.17-.697-1.75.468-.58.697-1.157.697-1.75zm-16.087 6.443c-.122.192-.463.307-.913.307-.858 0-.998-.145-.998-1.034 0-.405-.247-.771-.622-.926-.501-.157-1.37-.844-1.38-1.29.047-.471.988-1.043.866-1.752.12-.704-.821-1.279-.866-1.748.011-.446.878-1.132 1.378-1.29.377-.153.624-.52.624-.926 0-.889.14-1.034.998-1.034.757 0 .846.192.9.307.224.44 1.1 2.821 1.1 4.693 0 1.86-.568 3.82-1.087 4.693zm13.595-3.701c.312.312.492.589.492.758-.01.444-.879 1.132-1.378 1.289-.377.153-.624.52-.624.927 0 .89-.14 1.034-.998 1.034-.449 0-.791-.114-.897-.28-.535-.899-1.103-2.859-1.103-4.72 0-1.872.876-4.253 1.115-4.725.039-.083.128-.275.885-.275.858 0 .998.145.998 1.034 0 .405.247.771.622.926.501.157 1.37.845 1.38 1.29-.046.47-.987 1.043-.866 1.75 0 .398.133.751.374.992z"/></svg>