<svg id="Layer_1" viewBox="0 0 24 24" xmlns="http://www.w3.org/2000/svg" data-name="Layer 1"><path d="m21 10c0 4.397-1.833 6.156-3.605 7.858-.227.218-.457.439-.688.669-.536.536-.941 1.122-1.333 1.687-.947 1.37-1.927 2.786-4.374 2.786-1.402 0-2.538-.496-3.283-1.433-.344-.432-.271-1.061.161-1.405.432-.345 1.06-.271 1.405.161.357.449.935.677 1.717.677 1.342 0 1.807-.59 2.729-1.923.422-.609.899-1.299 1.563-1.963.24-.24.48-.471.717-.698 1.671-1.604 2.99-2.871 2.99-6.415 0-5.168-1.832-7-7-7s-7 1.832-7 7c0 .552-.447 1-1 1s-1-.448-1-1c.001-6.31 2.692-9.001 9.001-9.001s9 2.691 9 9zm-12.082 1.331c.144.412.53.67.943.67.109 0 .222-.019.33-.057.521-.183.796-.753.613-1.274-.285-.816-.877-1.33-1.755-1.547.186-1.598.978-2.122 2.95-2.122 2.299 0 3 .701 3 3 0 2.134-.687 2.553-1.33 2.778-.521.182-.796.752-.614 1.273.145.413.531.671.944.671.109 0 .221-.018.33-.057 2.67-.932 2.67-3.742 2.67-4.666 0-3.411-1.589-5-5-5s-5 1.589-5 5c0 .552.447 1 1 1 .802 0 .871.199.918.331z"/></svg>