<svg id="Layer_1" viewBox="0 0 24 24" xmlns="http://www.w3.org/2000/svg" data-name="Layer 1"><path d="m19.98 16.03c-.87-2.34-1.87-5.49-2.77-8.75-.39-1.41-.7-2.78-.96-4.11 3.58.3 5.41.88 5.43.89.51.17 1.09-.1 1.27-.63.17-.52-.11-1.09-.63-1.27-.14-.05-3.57-1.16-10.32-1.16s-10.17 1.12-10.32 1.16c-.52.17-.81.74-.63 1.26.17.52.74.81 1.26.64 0 0 .3-.1.85-.22-.1 1.33-.17 2.71-.17 4.16 0 2.9.21 5.4.37 7.41.02.25.04.48.06.7-1.61.33-2.43 1.46-2.43 3.39 0 2.32 1.18 3.5 3.5 3.5 1.09 0 1.92-.27 2.5-.78.58.52 1.41.78 2.5.78 2.32 0 3.5-1.18 3.5-3.5 0-1.98-.87-3.13-2.57-3.42-.02-.27-.04-.54-.07-.83-.16-1.97-.37-4.43-.37-7.25 0-1.65.07-3.59.17-4.97.58-.02 1.19-.03 1.83-.03.78 0 1.5.02 2.19.04.29 1.53.65 3.13 1.1 4.77.86 3.14 1.79 6.09 2.64 8.43-1.28.45-1.93 1.54-1.93 3.26 0 2.32 1.18 3.5 3.5 3.5s3.5-1.18 3.5-3.5c0-2.15-1.02-3.31-3.02-3.47zm-15.48 4.97c-1.23 0-1.5-.27-1.5-1.5s.27-1.5 1.5-1.5 1.5.27 1.5 1.5-.27 1.5-1.5 1.5zm6.5-1.5c0 1.23-.27 1.5-1.5 1.5s-1.5-.27-1.5-1.5.27-1.5 1.5-1.5 1.5.27 1.5 1.5zm-2.63-4.09c.02.25.04.48.06.7-.58.12-1.06.34-1.43.67-.4-.36-.92-.59-1.57-.7-.02-.27-.04-.54-.07-.83-.16-1.97-.37-4.43-.37-7.25 0-1.59.07-3.11.2-4.54.81-.12 1.8-.24 2.95-.32-.09 1.41-.15 3.27-.15 4.86 0 2.9.21 5.4.37 7.41zm11.13 5.59c-1.23 0-1.5-.27-1.5-1.5s.27-1.5 1.5-1.5 1.5.27 1.5 1.5-.27 1.5-1.5 1.5z"/></svg>