<svg id="Layer_1" viewBox="0 0 24 24" xmlns="http://www.w3.org/2000/svg" data-name="Layer 1"><path d="m1.721 17.993c.142.041 3.547 1.007 10.279 1.007s10.137-.966 10.279-1.007c.512-.149.816-.673.693-1.192-.03-.129-.792-3.229-4.198-8.34-3.268-4.905-5.87-7.022-6.155-7.247-.363-.286-.874-.286-1.237 0-.286.225-2.887 2.341-6.156 7.247-3.407 5.111-4.168 8.21-4.199 8.34-.124.519.182 1.043.694 1.192zm5.169-8.423c2.26-3.391 4.171-5.366 5.11-6.242.939.876 2.851 2.851 5.11 6.242 2.108 3.164 3.14 5.503 3.598 6.728-1.424.275-4.34.702-8.708.702s-7.284-.427-8.708-.702c.458-1.226 1.49-3.564 3.598-6.728zm15.39 12.422c-.143.041-3.548 1.007-10.279 1.007s-10.137-.966-10.279-1.007c-.53-.154-.834-.708-.681-1.237.153-.53.706-.836 1.237-.684.032.009 3.314.929 9.723.929s9.69-.919 9.723-.929c.531-.152 1.085.155 1.237.684.153.53-.151 1.083-.681 1.237z"/></svg>