<svg id="Layer_1" viewBox="0 0 24 24" xmlns="http://www.w3.org/2000/svg"><path d="m22.492 3.877c-.036-.289-.195-.548-.438-.709-.18-.119-1.845-1.168-5.055-1.168-2.331 0-4.12.815-5 1.317-.88-.502-2.669-1.317-5-1.317-3.21 0-4.875 1.049-5.055 1.168-.242.161-.401.42-.438.709-.021.166-.508 4.115-.508 7.123 0 2.124.175 4.475.321 6.071.137 1.503 1.217 2.743 2.688 3.087l7.763 1.815c.15.035.305.035.455 0l7.763-1.815c1.472-.344 2.552-1.584 2.688-3.086.146-1.598.321-3.948.321-6.072 0-3.008-.487-6.957-.508-7.123zm-19.179 13.012c-.144-1.556-.313-3.841-.313-5.889 0-2.261.3-5.182.432-6.355.568-.247 1.763-.645 3.568-.645 1.891 0 3.338.677 4 1.053v14.686l-6.535-1.528c-.63-.147-1.093-.679-1.151-1.322zm17.374.001c-.059.643-.521 1.174-1.151 1.321l-6.535 1.528v-14.685c.663-.378 2.11-1.054 4-1.054 1.806 0 3 .397 3.568.645.132 1.173.432 4.093.432 6.355 0 2.048-.17 4.333-.313 5.89zm-12.596-.935c0 .577-.468 1.045-1.045 1.045s-1.045-.468-1.045-1.045.468-1.045 1.045-1.045 1.045.468 1.045 1.045zm-2.091-2.955v-6c0-.553.447-1 1-1s1 .447 1 1v6c0 .553-.447 1-1 1s-1-.447-1-1z"/></svg>