<svg id="Layer_1" viewBox="0 0 24 24" xmlns="http://www.w3.org/2000/svg" data-name="Layer 1"><path d="m12 8c2.322 0 3.5-1.178 3.5-3.5s-1.178-3.5-3.5-3.5-3.5 1.178-3.5 3.5 1.178 3.5 3.5 3.5zm0-5c1.233 0 1.5.267 1.5 1.5s-.267 1.5-1.5 1.5-1.5-.267-1.5-1.5.267-1.5 1.5-1.5zm1.5 8.5c0 2.322 1.178 3.5 3.5 3.5s3.5-1.178 3.5-3.5-1.178-3.5-3.5-3.5-3.5 1.178-3.5 3.5zm3.5-1.5c1.233 0 1.5.267 1.5 1.5s-.267 1.5-1.5 1.5-1.5-.267-1.5-1.5.267-1.5 1.5-1.5zm-10 5c2.322 0 3.5-1.178 3.5-3.5s-1.178-3.5-3.5-3.5-3.5 1.178-3.5 3.5 1.178 3.5 3.5 3.5zm0-5c1.233 0 1.5.267 1.5 1.5s-.267 1.5-1.5 1.5-1.5-.267-1.5-1.5.267-1.5 1.5-1.5zm16 11.979c.011.552-.427 1.009-.979 1.021-.55.011-1.009-.426-1.021-.979.03-2.223-.725-3.596-1.592-4.002-.614.747-1.209 1.333-1.808 1.782-.347.259-.872.259-1.219 0-.601-.451-1.206-1.045-1.804-1.773-.858.408-1.607 1.776-1.578 3.994-.012.544-.456.979-1 .979s-.988-.435-1-.979c.03-2.215-.72-3.589-1.583-3.998-.567.695-1.196 1.312-1.816 1.777-.347.259-.872.259-1.219 0-.62-.465-1.246-1.079-1.811-1.77-.855.409-1.6 1.779-1.571 3.99-.012.553-.485.999-1.021.979-.552-.012-.991-.469-.979-1.021.043-2.146.38-4.992 3.557-6.127.418-.146.887.001 1.145.364.393.552.836 1.062 1.288 1.484.454-.426.906-.943 1.295-1.49.258-.362.723-.509 1.142-.365 1.234.427 2.043 1.133 2.574 1.954.528-.818 1.332-1.521 2.557-1.948.412-.146.872-.004 1.133.349.438.591.874 1.092 1.3 1.496.419-.398.852-.896 1.309-1.506.262-.348.716-.487 1.127-.345 3.195 1.134 3.53 3.984 3.574 6.133z"/></svg>