<svg id="Layer_1" viewBox="0 0 24 24" xmlns="http://www.w3.org/2000/svg" data-name="Layer 1"><path d="m22.146 3.609c-.096-.279-.31-.501-.584-.608-.105-.041-2.632-1.001-7.562-1.001s-7.458.96-7.563 1.001c-.274.107-.488.329-.583.608-.035.102-.854 2.536-.854 6.391s.819 6.29.854 6.391c.095.279.309.501.583.608.105.041 2.632 1.001 7.563 1.001s7.457-.96 7.562-1.001c.274-.107.488-.329.584-.608.034-.102.854-2.536.854-6.391s-.819-6.29-.854-6.391zm-2.848.861c-1.699 1.794-4.288 3.658-5.299 4.332-1.009-.673-3.601-2.539-5.299-4.332 1.141-.228 2.903-.47 5.299-.47s4.158.242 5.299.47zm1.089 10.805c-.877.246-3.018.725-6.388.725s-5.513-.479-6.388-.725c-.215-.829-.612-2.71-.612-5.275 0-1.682.171-3.062.349-4.052 2.261 2.388 6.1 4.912 6.116 4.898.326.206.742.206 1.068 0-.004.03 3.87-2.521 6.117-4.898.178.99.349 2.37.349 4.052 0 2.565-.397 4.446-.612 5.275zm-2.389 5.624c.024.552-.402 1.019-.954 1.044-.806.036-1.667.057-2.583.057-7.572 0-11.407-1.404-11.566-1.463-.276-.104-.493-.323-.591-.601-.053-.149-1.304-3.729-1.304-9.436 0-.533.011-1.046.031-1.541.022-.552.493-.972 1.04-.958.552.022.981.488.958 1.04-.019.468-.029.955-.029 1.459 0 4.205.731 7.207 1.047 8.306 1.18.345 4.675 1.194 10.415 1.194.885 0 1.715-.02 2.493-.055.539-.012 1.019.401 1.044.954z"/></svg>