<svg id="Layer_1" viewBox="0 0 24 24" xmlns="http://www.w3.org/2000/svg" data-name="Layer 1"><path d="m22.471 9.261c-.086-.349-.353-.625-.698-.723-.024-.007-.496-.14-1.362-.308-.115-1.379-.304-2.175-.312-2.214-.085-.352-.353-.63-.7-.729-.025-.008-.519-.146-1.413-.304-.058-1.373-.254-2.184-.264-2.224-.085-.348-.351-.624-.696-.723-.076-.021-1.92-.538-5.024-.538s-4.948.517-5.025.538c-.345.099-.61.375-.696.723-.009.039-.2.829-.26 2.223-.896.158-1.391.297-1.417.305-.348.099-.615.377-.699.729-.01.039-.198.835-.312 2.214-.867.168-1.339.301-1.363.308-.346.098-.612.374-.698.723-.021.088-.529 2.192-.529 5.739s.507 5.651.529 5.739c.086.348.352.624.696.723.148.042 3.705 1.038 9.775 1.038s9.626-.996 9.774-1.038c.346-.099.611-.375.696-.723.021-.088.529-2.192.529-5.739s-.508-5.651-.529-5.739zm-1.828 10.418c-.372.082-.937.192-1.643.304v-2.483c0-.553-.447-1-1-1s-1 .447-1 1v2.743c-.612.065-1.269.124-2 .168v-2.911c0-.553-.447-1-1-1s-1 .447-1 1v2.985c-.33.006-.653.015-1 .015s-.67-.009-1-.015v-2.985c0-.553-.448-1-1-1s-1 .447-1 1v2.911c-.731-.044-1.388-.103-2-.168v-2.743c0-.553-.448-1-1-1s-1 .447-1 1v2.483c-.705-.112-1.27-.222-1.643-.304-.14-.812-.357-2.438-.357-4.679s.218-3.868.357-4.68c.323-.071.775-.163 1.344-.259.462-.078.809-.467.833-.936.046-.9.134-1.6.205-2.052.336-.071.809-.159 1.405-.245.492-.071.856-.582.856-1.079 0-.833.062-1.487.12-1.92.719-.137 2.059-.33 3.88-.33s3.161.193 3.879.33c.059.439.12 1.11.119 1.978-.016.509.354.948.857 1.021.597.086 1.069.175 1.405.245.071.452.159 1.151.205 2.052.024.469.37.857.833.936.569.096 1.021.188 1.344.259.14.812.357 2.438.357 4.68s-.218 3.867-.357 4.679z"/></svg>