<svg id="Layer_1" viewBox="0 0 24 24" xmlns="http://www.w3.org/2000/svg" data-name="Layer 1"><path d="m5 18.5c0-.552.448-1 1-1s1 .448 1 1-.448 1-1 1-1-.448-1-1zm5 1c.552 0 1-.448 1-1s-.448-1-1-1-1 .448-1 1 .448 1 1 1zm12.916-4.393c-.042.386-.303.713-.67.839-.126.043-3.104 1.054-5.246 1.054-.591.014-1.087-.558-.99-1.142.023-.162.613-3.963 4.906-6.183-.098-1.428-.278-3.094-.6-4.93-1.357 1.096-3.605 3.189-5.445 6.246.069.387.128.892.128 1.508 0 1.386-.299 2.248-.333 2.341-.155.407-.465.604-.905.676.758.778 1.233 1.839 1.238 2.979-.008 1.936-1.311 3.626-3.168 4.12-1.448.385-2.5.385-3.832.385s-2.384 0-3.832-.385c-1.857-.494-3.16-2.184-3.168-4.111.005-1.145.48-2.208 1.238-2.987-.439-.072-.751-.269-.905-.676-.034-.094-.333-.955-.333-2.341s.299-2.248.333-2.341c.111-.309.368-.543.687-.626.048-.013.761-.189 2.096-.336-.068-.675-.116-1.367-.116-2.086 0-3.219.679-4.989.707-5.063.107-.274.33-.487.608-.582.056-.019 1.38-.466 2.762-.466 1.359 0 3.132.519 3.206.541.247.073.457.239.585.463.073.128 1.551 2.754 2.307 6.406 2.892-4.095 6.143-6.162 6.295-6.258.278-.173.622-.2.923-.072s.52.396.586.716c1.477 7.073.96 12.101.938 12.312zm-16.806-6.06c.576-.027 1.192-.047 1.89-.047 1.88 0 3.305.119 4.3.244-.521-2.805-1.556-5.053-1.98-5.893-.593-.149-1.55-.352-2.242-.352-.612 0-1.232.123-1.642.225-.169.642-.436 1.962-.436 3.886 0 .67.045 1.312.11 1.936zm-3.11 3.453c0 .475.045.863.094 1.146.801.138 2.443.354 4.906.354s4.104-.215 4.906-.354c.049-.283.094-.671.094-1.146s-.045-.863-.094-1.146c-.801-.138-2.443-.354-4.906-.354s-4.104.215-4.906.354c-.049.282-.094.671-.094 1.146zm5 3.5c-1.253 0-2.104.021-3.339.323-.821.2-1.656 1.014-1.661 2.182.005 1.194.849 1.957 1.682 2.178 1.196.317 2.086.317 3.318.317s2.122 0 3.318-.317c.833-.222 1.677-.984 1.682-2.187-.005-1.159-.84-1.973-1.662-2.173-1.234-.301-2.085-.323-3.338-.323zm13.012-4.065c-1.418.941-2.183 2.073-2.588 2.927.962-.161 1.938-.429 2.55-.612.027-.505.054-1.295.038-2.315z"/></svg>