<?xml version="1.0" encoding="UTF-8"?>
<svg xmlns="http://www.w3.org/2000/svg" id="Layer_1" data-name="Layer 1" viewBox="0 0 24 24">
  <path d="M2,9.026h14.809v1.821c0,.309,.143,.6,.386,.789,.177,.138,.394,.211,.614,.211,.082,0,.164-.01,.245-.03,3.148-.795,4.781-3.236,4.796-3.261,.066-.105,.109-.22,.131-.337,.049-.243,.006-.501-.129-.719-.315-.514-2.055-2.572-4.799-3.264-.296-.076-.616-.008-.858,.181-.243,.189-.386,.48-.386,.789v1.82H2c-.552,0-1,.446-1,.999s.448,1,1,1Z"/>
  <path d="M22,14.974H7.191v-1.821c0-.309-.142-.6-.385-.789-.244-.188-.562-.257-.859-.181-3.148,.795-4.781,3.236-4.796,3.261-.065,.105-.109,.22-.13,.337-.049,.243-.005,.501,.128,.719,.015,.024,1.637,2.467,4.799,3.264,.081,.021,.163,.03,.244,.03,.22,0,.437-.073,.615-.211,.243-.189,.385-.48,.385-.789v-1.82h14.809c.552,0,1-.446,1-.999s-.447-1-1-1Z"/>
</svg>
