<svg id="Layer_1" viewBox="0 0 24 24" xmlns="http://www.w3.org/2000/svg" data-name="Layer 1"><path d="m15.382 19.374c-1.31 3.25-4.555 3.626-6.882 3.626-5.186 0-7.5-2.313-7.5-7.5 0-2.327.376-5.571 3.626-6.881.514-.208 1.095.041 1.302.553.206.512-.042 1.095-.554 1.301-1.174.474-2.374 1.441-2.374 5.027 0 4.112 1.388 5.5 5.5 5.5 3.587 0 4.554-1.2 5.026-2.373.207-.513.789-.758 1.302-.554.512.207.76.789.554 1.301zm5.217-2.174c-.441-.332-1.068-.241-1.399.2-.332.442-.242 1.069.2 1.4.084.063.16.135.241.2h-1.641c-.553 0-1 .448-1 1s.447 1 1 1h1.641c-.081.066-.157.137-.241.2-.442.331-.532.958-.2 1.4.196.262.496.4.801.4.209 0 .419-.065.599-.2.836-.626 1.576-1.366 2.2-2.2.267-.355.267-.844 0-1.199-.624-.834-1.364-1.574-2.2-2.2zm-17.198-10.4c.18.135.39.2.599.2.305 0 .604-.138.801-.4.332-.442.242-1.069-.2-1.4-.084-.063-.16-.135-.241-.2h1.641c.553 0 1-.448 1-1s-.447-1-1-1h-1.641c.081-.066.157-.137.241-.2.442-.331.532-.958.2-1.4-.331-.442-.958-.533-1.399-.2-.836.626-1.576 1.366-2.2 2.2-.267.355-.267.844 0 1.199.624.834 1.364 1.574 2.2 2.2zm12.099 9.2c-5.186 0-7.5-2.313-7.5-7.5s2.314-7.499 7.5-7.499 7.5 2.313 7.5 7.5-2.313 7.5-7.5 7.5zm5.5-7.5c0-4.112-1.388-5.5-5.5-5.5s-5.5 1.388-5.5 5.5 1.388 5.5 5.5 5.5 5.5-1.388 5.5-5.5zm-1.882 1.416c0 2.098-1.83 2.486-3.059 2.559v.018c0 .442-.358.8-.8.8s-.8-.358-.8-.8-.94 0-.94 0c-.367 0-.687-.25-.776-.605-.014-.056-.344-1.398-.344-3.394s.33-3.338.344-3.394c.09-.356.409-.605.776-.605h.94s0 0 0 0c0-.442.358-.8.8-.8s.8.358.8.8v.052c.993.12 2.26.552 2.26 2.148 0 .384-.072.794-.292 1.16.623.356 1.092.978 1.092 2.063zm-5.081-2.543h1.201c1.48 0 1.48-.409 1.48-.68 0-.25 0-.594-1.579-.599h-.96c-.051.319-.106.755-.143 1.279zm3.482 2.543c0-.464 0-.943-2.08-.943-.07 0-1.434 0-1.434 0 .024.813.105 1.477.175 1.92h1.172c2.167-.007 2.167-.567 2.167-.977z"/></svg>