<?xml version="1.0" encoding="UTF-8"?>
<svg xmlns="http://www.w3.org/2000/svg" id="Layer_1" data-name="Layer 1" viewBox="0 0 24 24">
  <path d="M20.966,14.784c-.521,.184-.793,.756-.608,1.276,.513,1.45,.648,2.643,.639,3.522l-7.582-7.583,7.589-7.589c.009,.874-.128,2.064-.646,3.528-.185,.521,.088,1.093,.608,1.276,.11,.039,.224,.058,.334,.058,.412,0,.798-.256,.942-.666,1.385-3.911,.468-6.385,.359-6.654-.1-.246-.294-.443-.538-.547-.104-.044-2.633-1.079-6.671,.352-.521,.184-.793,.756-.608,1.276,.184,.521,.754,.793,1.276,.608,1.45-.512,2.643-.647,3.522-.638l-7.583,7.582L4.412,2.997c.874-.009,2.064,.128,3.528,.646,.522,.184,1.094-.088,1.276-.608,.185-.521-.088-1.093-.608-1.276C4.697,.372,2.223,1.29,1.953,1.398c-.246,.1-.443,.294-.547,.538-.045,.105-1.078,2.632,.352,6.671,.145,.41,.53,.666,.942,.666,.11,0,.224-.019,.334-.058,.521-.184,.793-.756,.608-1.276-.513-1.45-.648-2.643-.639-3.522l7.582,7.583-7.589,7.589c-.009-.874,.128-2.064,.646-3.528,.185-.521-.088-1.093-.608-1.276-.523-.185-1.093,.089-1.276,.608-1.385,3.911-.468,6.385-.359,6.654,.1,.246,.294,.443,.538,.547,.062,.026,.981,.403,2.565,.403,1.08,0,2.469-.175,4.105-.755,.521-.184,.793-.756,.608-1.276-.183-.521-.754-.792-1.276-.608-1.451,.513-2.643,.648-3.523,.639l7.583-7.583,7.588,7.589c-.874,.009-2.064-.127-3.527-.645-.522-.185-1.093,.088-1.276,.608-.185,.521,.088,1.093,.608,1.276,1.643,.582,3.031,.757,4.11,.757,1.489,0,2.388-.335,2.544-.397,.246-.1,.443-.294,.547-.538,.045-.105,1.078-2.632-.352-6.671-.184-.52-.753-.792-1.276-.608Z"/>
</svg>
