<?xml version="1.0" encoding="UTF-8"?>
<svg xmlns="http://www.w3.org/2000/svg" id="Layer_1" data-name="Layer 1" viewBox="0 0 24 24">
  <path d="M20.951,15.499c-.311-.033-.611,.068-.829,.285l-1.462,1.462-5.246-5.246,5.246-5.246,1.462,1.462c.188,.188,.443,.293,.707,.293,.04,0,.081-.003,.122-.008,.305-.037,.576-.213,.735-.477,1.822-3.031,1.22-6.14,1.213-6.17-.028-.123-.079-.235-.147-.335-.14-.209-.354-.36-.606-.419-.031-.007-3.138-.609-6.17,1.213-.264,.159-.439,.431-.477,.735-.038,.306,.067,.611,.285,.829l1.462,1.462-5.246,5.246L6.754,5.34l1.462-1.462c.218-.218,.323-.523,.285-.829-.037-.305-.213-.576-.477-.735C4.993,.492,1.885,1.092,1.854,1.101c-.123,.028-.235,.079-.335,.146-.209,.14-.36,.355-.419,.607-.007,.03-.609,3.139,1.213,6.17,.159,.264,.431,.439,.735,.477,.041,.005,.082,.008,.122,.008,.264,0,.519-.104,.707-.293l1.462-1.462,5.246,5.246-5.246,5.246-1.462-1.462c-.217-.218-.52-.326-.829-.285-.305,.037-.576,.213-.735,.477-1.822,3.031-1.22,6.14-1.213,6.17,.028,.123,.079,.235,.147,.335,.14,.209,.354,.36,.606,.419,.013,.003,.517,.101,1.312,.101,1.192,0,3.039-.221,4.857-1.313,.264-.159,.439-.431,.477-.735,.038-.306-.067-.611-.285-.829l-1.462-1.462,5.246-5.246,5.246,5.246-1.462,1.462c-.218,.218-.323,.523-.285,.829,.037,.305,.213,.576,.477,.735,1.818,1.093,3.665,1.313,4.857,1.313,.795,0,1.3-.098,1.312-.101,.123-.028,.235-.079,.335-.146,.209-.14,.36-.355,.419-.607,.007-.03,.609-3.139-1.213-6.17-.159-.264-.431-.439-.735-.477Z"/>
</svg>
