<svg id="Layer_1" viewBox="0 0 24 24" xmlns="http://www.w3.org/2000/svg" data-name="Layer 1"><path d="m22.958 12.503c-.133-.791-.565-1.482-1.219-1.946-.653-.465-1.447-.65-2.237-.516-.79.133-1.48.565-1.946 1.219-.996 1.398-2.055 2.545-3.173 3.439-.226-1.002-.98-1.841-1.989-2.144-.076-.023-1.873-.555-4.395-.555-2.985 0-5.581.497-5.69.518-.381.074-.686.362-.78.739-.021.087-.53 2.143-.53 4.243s.508 4.156.53 4.243c.094.375.395.662.774.738.106.021 2.632.52 5.696.52 5.679 0 10.539-2.779 14.443-8.259.465-.652.647-1.447.516-2.237zm-2.144 1.077c-3.508 4.923-7.819 7.42-12.814 7.42-1.983 0-3.758-.229-4.665-.371-.139-.71-.334-1.926-.334-3.129s.196-2.414.334-3.127c.921-.142 2.72-.373 4.665-.373 2.21 0 3.805.466 3.819.47.374.113.686.468.635.856-.172 1.315-2.395 1.42-3.544 1.678-.55.05-.956.536-.906 1.086s.544.951 1.086.906c3.838-.347 7.234-2.559 10.095-6.575.303-.446.965-.556 1.394-.234.445.302.555.963.234 1.394zm-12.814-1.58c-.552 0-1-.448-1-1v-.139c-.838-.271-1.527-.919-1.83-1.779-.184-.521.089-1.092.61-1.276.523-.184 1.092.089 1.276.61.124.349.456.584.827.584.483 0 .876-.393.876-.876 0-.428-.334-.844-.764-.854-1.453 0-2.634-1.182-2.634-2.634 0-1.1.679-2.042 1.639-2.436v-.198c0-.552.448-1 1-1s1 .448 1 1v.207c.362.15.692.373.959.671.368.412.333 1.044-.078 1.412-.413.368-1.045.333-1.412-.078-.071-.079-.227-.212-.473-.212-.35 0-.634.285-.634.635-.001.377.329.671.694.617 1.516.09 2.704 1.352 2.704 2.871 0 1.19-.727 2.213-1.759 2.65v.226c0 .552-.448 1-1 1zm5-7c0-.552.447-1 1-1h3.782c-.436-.426-.892-.832-1.382-1.2-.441-.332-.53-.958-.199-1.4.332-.441.958-.531 1.4-.2 1.215.912 2.291 1.988 3.199 3.2.267.355.267.844 0 1.199-.908 1.212-1.984 2.288-3.199 3.2-.438.33-1.067.245-1.4-.2-.331-.441-.242-1.068.199-1.4.49-.368.946-.774 1.382-1.2h-3.782c-.553 0-1-.448-1-1z"/></svg>