<svg id="Layer_1" viewBox="0 0 24 24" xmlns="http://www.w3.org/2000/svg" data-name="Layer 1"><path d="m21.872 2.158c-.011-.012-.022-.023-.034-.035-1.447-1.398-3.764-1.495-5.389-.225-.794.62-1.678 1.358-2.633 2.198-2.288-.384-4.304 1.024-4.396 1.088-.358.255-.508.714-.369 1.131.236.709.528 1.366.844 1.998l-1.06 1.047c-3.197 3.192-5.095 5.434-6.124 6.752-.939 1.203-1.04 2.817-.344 4.105l-1.074 1.074c-.391.391-.391 1.023 0 1.414s1.023.391 1.414 0l1.087-1.087c1.287.68 2.829.535 4.002-.376 1.33-1.034 3.586-2.939 6.793-6.145l1.021-1.034c.655.332 1.336.638 2.074.883.411.138.876-.009 1.132-.37.066-.093 1.492-2.137 1.078-4.442.84-.958 1.579-1.846 2.2-2.645 1.257-1.616 1.164-3.859-.221-5.334zm-15.304 17.508c-.686.533-1.63.498-2.212-.047-.591-.612-.62-1.568-.068-2.273.289-.369.658-.824 1.099-1.345h5.402c-1.886 1.77-3.293 2.944-4.22 3.666zm6.604-5.975c-.109.109-.207.204-.314.309h-5.706c.854-.932 1.873-2.001 3.092-3.219l.708-.699c.804 1.135 1.771 2.109 2.899 2.92l-.68.69zm7.343-7.426c-.679.873-1.508 1.861-2.464 2.938-.234.263-.312.63-.206.965.305.965-.011 1.969-.302 2.602-3.03-1.207-5.105-3.282-6.312-6.312.627-.289 1.616-.603 2.572-.313.332.101.695.021.956-.21 1.071-.955 2.054-1.782 2.921-2.458.852-.665 2.004-.635 2.751.07.691.752.728 1.892.084 2.719z"/></svg>