<svg id="Layer_1" viewBox="0 0 24 24" xmlns="http://www.w3.org/2000/svg" data-name="Layer 1"><path d="m18.083 1.109c-.871-.073-1.728-.109-2.548-.109-4.625 0-8.556 1.143-8.721 1.191-.328.096-.583.354-.678.682-.046.161-1.136 4.002-1.136 9.126s1.184 10.033 1.234 10.238c.112.456.596.88 1.209.733.537-.129.864-.673.733-1.209-.011-.045-1.023-4.222-1.161-8.762h9.762c.552 0 1-.448 1-1s-.448-1-1-1h-9.762c.097-3.296.645-5.942.906-7.034 1.2-.3 4.246-.966 7.614-.966.765 0 1.566.035 2.382.103.548.046 1.034-.363 1.08-.914s-.363-1.034-.914-1.08z"/></svg>