<svg id="Layer_1" viewBox="0 0 24 24" xmlns="http://www.w3.org/2000/svg" data-name="Layer 1"><path d="m9 11c.552 0 1 .448 1 1s-.448 1-1 1-1-.448-1-1 .448-1 1-1zm6 2c.552 0 1-.448 1-1s-.448-1-1-1-1 .448-1 1 .448 1 1 1zm-6-6c0-.552-.448-1-1-1s-1 .448-1 1c0 .878-.122 1-1 1-.552 0-1 .448-1 1s.448 1 1 1c1.991 0 3-1.009 3-3zm14 5c0 7.71-3.29 11-11 11s-11-3.29-11-11 3.29-11 11-11 11 3.29 11 11zm-2 0c0-6.561-2.439-9-9-9s-9 2.439-9 9 2.439 9 9 9 9-2.439 9-9zm-4.374 4.28c.431-.346.5-.975.153-1.406-.345-.431-.975-.5-1.405-.154-.382.307-.843.733-1.122 1.28h-4.504c-.279-.547-.739-.972-1.121-1.279-.429-.346-1.06-.277-1.406.153-.346.431-.278 1.06.153 1.406.514.413.626.66.626.721s-.112.308-.626.721c-.431.346-.499.975-.153 1.406.347.432.978.497 1.406.153.382-.307.842-.733 1.121-1.279h4.504c.279.547.74.973 1.122 1.28.427.344 1.059.279 1.405-.154.347-.431.277-1.06-.153-1.406-.514-.413-.626-.66-.626-.72s.112-.308.626-.72zm1.374-8.28c-.879 0-1-.122-1-1 0-.552-.447-1-1-1s-1 .448-1 1c0 1.991 1.01 3 3 3 .553 0 1-.448 1-1s-.447-1-1-1z"/></svg>