<svg id="Layer_1" viewBox="0 0 24 24" xmlns="http://www.w3.org/2000/svg" data-name="Layer 1"><path d="m10.98 7.308c-.109.542-.637.888-1.178.783-.599-.121-1.037-.12-1.304.002-.141.065-.354.216-.566.767-.197.52-.791.771-1.292.573-.516-.199-.772-.777-.573-1.293.354-.92.875-1.53 1.591-1.862.679-.314 1.485-.361 2.539-.149.542.109.893.637.783 1.178zm5.36-1.03c-.678-.313-1.486-.36-2.538-.148-.542.109-.893.637-.783 1.178.108.542.637.888 1.178.783.601-.123 1.038-.12 1.303.001.142.066.354.217.567.768.197.52.791.771 1.292.573.516-.199.772-.777.573-1.293-.354-.92-.875-1.53-1.592-1.863zm6.659 5.723c0 2.711-.401 4.822-1.226 6.452-.177.348-.528.548-.894.548-.723.016-1.237-.81-.892-1.452.636-1.254.953-2.941.994-5.102-.875.842-1.767 1.371-2.385 1.673.187.739.401 1.899.401 3.381 0 2.563-.644 4.203-.671 4.271-.109.273-.333.484-.612.578-.08.026-1.998.651-5.717.651s-5.637-.625-5.717-.651c-.279-.093-.503-.304-.612-.578-.027-.068-.671-1.708-.671-4.271 0-1.483.215-2.642.401-3.381-.618-.301-1.51-.83-2.385-1.673.041 2.162.359 3.848.994 5.102.249.493.052 1.094-.441 1.344-.494.25-1.094.051-1.344-.44-.824-1.63-1.226-3.74-1.226-6.452.004-7.711 3.294-11.001 11.004-11.001s11 3.29 11 11zm-6 5.5c0-1.419-.229-2.498-.386-3.071-.72-.162-2.266-.429-4.614-.429s-3.893.267-4.615.429c-.156.572-.385 1.651-.385 3.071s.229 2.498.386 3.071c.72.162 2.266.429 4.614.429s3.893-.267 4.615-.429c.156-.573.385-1.652.385-3.071zm3.83-8.118c-.642-4.596-3.232-6.382-8.83-6.382s-8.194 1.789-8.831 6.398c1.21 2.175 3.218 2.995 3.576 3.127.773-.189 2.524-.526 5.257-.526s4.48.336 5.254.525c.302-.111 2.354-.947 3.575-3.144z"/></svg>