<svg id="Layer_1" viewBox="0 0 24 24" xmlns="http://www.w3.org/2000/svg" data-name="Layer 1"><path d="m22.582 16.175c-1.104 4.721-4.367 6.825-10.582 6.825-7.71 0-11-3.29-11-11s3.29-11 11-11c4.454 0 7.334 1.081 9.066 3.402.331.442.239 1.068-.203 1.399-.442.33-1.069.24-1.399-.204-1.323-1.772-3.694-2.598-7.464-2.598-6.561.001-9 2.44-9 9.001s2.439 9 9 9c5.256 0 7.758-1.53 8.635-5.28.126-.538.666-.869 1.201-.746.538.126.872.663.746 1.201zm-12.582-6.175c0-.552-.448-1-1-1s-1 .448-1 1 .448 1 1 1 1-.448 1-1zm5.996 0c0-.552-.448-1-1-1s-1 .448-1 1 .448 1 1 1 1-.448 1-1zm3.369-1.232s-3.265 3.448-5.269 5.431c-.626-.122-1.306-.199-2.101-.199-2.027 0-3.465.385-4.525 1.212-.436.339-.513.968-.173 1.403.34.437.969.513 1.404.173.68-.53 1.758-.788 3.294-.788s2.614.258 3.294.788c.207.153.467.252.708.191l.002.021c.872 0 .917-.169 1.5-.633l.726-.726-.933-.933c-.391-.391-.391-1.023 0-1.414s1.023-.391 1.414 0l.933.933 1.086-1.086-.933-.933c-.391-.391-.391-1.023 0-1.414s1.023-.391 1.414 0l.933.933.092-.092c1.024-1.024 1.024-1.843 0-2.867s-1.843-1.024-2.867 0z"/></svg>