<svg id="Layer_1" viewBox="0 0 24 24" xmlns="http://www.w3.org/2000/svg" data-name="Layer 1"><path d="m1 12c0-7.71 3.29-11 11-11s11 3.29 11 11c0 .553-.448 1-1 1s-1-.447-1-1c0-6.561-2.439-9-9-9s-9 2.439-9 9c0 .553-.448 1-1 1s-1-.447-1-1zm15-6c-1.991 0-3 1.01-3 3 0 .553.448 1 1 1s1-.447 1-1c0-.879.122-1 1-1s1 .121 1 1c0 .553.448 1 1 1s1-.447 1-1c0-1.99-1.009-3-3-3zm-11 3c0 .553.448 1 1 1s1-.447 1-1c0-.879.122-1 1-1s1 .121 1 1c0 .553.448 1 1 1s1-.447 1-1c0-1.99-1.009-3-3-3s-3 1.01-3 3zm11.698 2.385c-.34-.436-.969-.513-1.404-.173-.68.53-1.758.788-3.294.788s-2.614-.258-3.294-.788c-.435-.339-1.063-.263-1.404.173-.339.436-.262 1.064.173 1.403 1.06.827 2.498 1.212 4.525 1.212s3.465-.385 4.525-1.212c.436-.339.513-.968.173-1.403zm-6.068 4.225s.37 1.235.37 3.14c0 2.5-1.999 4.25-4.499 4.25-.578 0-1.974-.026-3.663-1.715-.564-.564-1.136-1.154-1.633-1.824-.272-.367-.273-.879.037-1.215.403-.44 1.098-.401 1.449.074 0 0 .284.343.716.773l.558-.558c-1.181-1.202-2.269-2.522-2.299-2.566-.294-.425-.188-1.008.237-1.301.42-.292 1.006-.192 1.303.236.007.009 1.023 1.089 2.142 2.249l.597-.597c-1.073-1.105-1.742-2.061-1.773-2.11-.281-.434-.157-1.013.278-1.293.428-.279 1.011-.161 1.295.276.007.01 1.672 1.878 2.997 3.292.01-.328.03-.664.074-.941.163-.567.563-.767.95-.777h.022c.391 0 .726.255.842.61zm-1.829 4.097c-.022-.024-1.519-1.62-1.538-1.641-.584.584-1.78 1.78-2.366 2.366.776.569 1.314.569 1.603.569.919 0 1.892-.411 2.301-1.293zm13.957-1.461c.31.336.309.848.037 1.215-.497.669-1.069 1.26-1.633 1.824-1.689 1.689-3.085 1.715-3.663 1.715-2.5 0-4.499-1.75-4.499-4.25 0-1.905.37-3.14.37-3.14.117-.355.451-.61.842-.61h.022c.387.01.787.21.95.777.043.277.064.614.074.941 1.325-1.414 2.99-3.282 2.997-3.292.283-.437.867-.555 1.295-.276.434.28.558.859.278 1.293-.032.049-.7 1.005-1.773 2.11l.597.597c1.119-1.16 2.136-2.24 2.142-2.249.297-.427.883-.528 1.303-.236.425.293.531.876.237 1.301-.03.044-1.119 1.365-2.299 2.566l.558.558c.433-.429.716-.773.716-.773.351-.475 1.046-.514 1.449-.074zm-3.655 2.185c-.372-.372-2.029-2.029-2.366-2.366-.015.016-1.521 1.623-1.538 1.641.408.883 1.381 1.293 2.301 1.293.289 0 .827 0 1.603-.569z"/></svg>