<svg id="Layer_1" viewBox="0 0 24 24" xmlns="http://www.w3.org/2000/svg" data-name="Layer 1"><path d="m22.124 19.258c-.037-.005-.466-.057-1.097-.112-.03-.65-.036-1.337-.012-1.992.515.048.853.088.86.089.538.07 1.05-.318 1.116-.868.068-.548-.32-1.048-.868-1.116-.035-.005-.418-.051-.986-.102.054-.611.103-1.023.104-1.031.068-.548-.32-1.048-.868-1.116-.552-.067-1.048.32-1.116.868-.005.038-.059.489-.117 1.149-.647-.027-1.337-.033-1.99-.011.049-.531.091-.882.092-.89.068-.548-.32-1.048-.868-1.116-.549-.067-1.047.32-1.116.868-.005.041-.065.533-.126 1.255-.722.061-1.215.121-1.255.126-.548.068-.937.568-.868 1.116s.562.929 1.116.868c.008 0 .359-.043.89-.092-.022.653-.016 1.344.011 1.99-.66.058-1.111.112-1.149.117-.548.068-.937.568-.868 1.116s.562.933 1.116.868c.009 0 .42-.05 1.031-.104.052.569.098.951.102.986.063.506.494.876.991.876.596.004 1.071-.532.993-1.124 0-.008-.041-.346-.089-.86.655-.024 1.343-.018 1.992.012.056.63.108 1.059.112 1.097.063.506.494.876.991.876.596.004 1.071-.532.993-1.124 0-.007-.034-.278-.075-.709.431.041.702.075.709.075.538.07 1.05-.318 1.116-.868.068-.548-.32-1.048-.868-1.116zm-4.124-.258c-.331 0-.657.008-.978.019-.028-.655-.029-1.343-.002-1.998.656-.027 1.343-.026 1.998.002-.025.653-.024 1.346.002 1.998-.334-.012-.675-.021-1.021-.021zm-6-16c-5.948 0-8.449 1.988-8.919 7.092-.051.55-.538.949-1.087.904-.55-.051-.955-.538-.904-1.088.567-6.161 3.932-8.908 10.91-8.908s10.344 2.747 10.91 8.908c.056.582-.413 1.096-.997 1.092-.511 0-.947-.39-.995-.908-.469-5.104-2.97-7.092-8.918-7.092zm-2.547 7.707c-.391.391-1.023.391-1.414 0s-.391-1.023 0-1.414c-.675-.676-1.65-1.533-1.66-1.542-.415-.364-.456-.996-.091-1.411.364-.414.996-.455 1.411-.091.042.036 1.033.908 1.754 1.63.918.918.686 2.143 0 2.828zm8.243-3.05-1.636 1.636c.391.391.391 1.023 0 1.414s-1.023.391-1.414 0c-.686-.686-.919-1.91 0-2.828l1.636-1.636c.391-.391 1.023-.391 1.414 0s.391 1.023 0 1.414zm-11.05 11.466c0 1.19-.727 2.214-1.759 2.651v.226c0 .553-.448 1-1 1s-1-.447-1-1v-.139c-.838-.271-1.526-.919-1.83-1.778-.184-.521.088-1.093.609-1.276.52-.185 1.091.087 1.276.608.124.35.456.585.827.585.483 0 .876-.394.876-.877 0-.427-.334-.844-.763-.854-1.453 0-2.635-1.182-2.635-2.635 0-1.1.679-2.042 1.639-2.436v-.198c0-.553.448-1 1-1s1 .447 1 1v.206c.362.15.693.374.96.672.368.411.333 1.044-.079 1.412-.412.367-1.045.333-1.412-.08-.122-.136-.29-.211-.473-.211-.35 0-.635.285-.635.635-.002.376.329.673.694.617 1.516.09 2.704 1.352 2.704 2.871zm4.354-5.123v5c0 .553-.448 1-1 1s-1-.447-1-1v-5c0-.553.448-1 1-1s1 .447 1 1zm0 8c0 .552-.448 1-1 1s-1-.448-1-1 .448-1 1-1 1 .448 1 1z"/></svg>