<svg id="Layer_1" viewBox="0 0 24 24" xmlns="http://www.w3.org/2000/svg" data-name="Layer 1"><path d="m12 23c-4.685 0-7.652-1.204-9.338-3.791-.302-.463-.171-1.082.292-1.384.461-.3 1.083-.171 1.384.292 1.282 1.967 3.717 2.883 7.662 2.883 6.561 0 9-2.439 9-9s-2.439-9-9-9c-5.238 0-7.736 1.516-8.623 5.232-.128.537-.669.868-1.205.74-.537-.128-.868-.668-.74-1.205 1.117-4.68 4.376-6.767 10.568-6.767 7.71 0 11 3.29 11 11s-3.29 11-11 11zm-3-12c-.552 0-1 .448-1 1s.448 1 1 1 1-.448 1-1-.448-1-1-1zm6 0c-.552 0-1 .448-1 1s.448 1 1 1 1-.448 1-1-.448-1-1-1zm-11.422.052c-.3-.368-.858-.37-1.161-.003-.59.715-1.417 1.903-1.417 2.952 0 1.429.571 2 2 2s2-.571 2-2c0-1.025-.832-2.225-1.422-2.948zm8.422 2.948c-2.494 0-3.702.845-3.991 2.899-.083.586.41 1.101 1.011 1.101h5.96c.601 0 1.093-.515 1.011-1.101-.289-2.054-1.497-2.899-3.991-2.899zm7-5c0-.553-.447-1-1-1-.879 0-1-.121-1-1 0-.553-.447-1-1-1s-1 .447-1 1c0 1.99 1.01 3 3 3 .553 0 1-.447 1-1zm-10-2c0-.553-.447-1-1-1s-1 .447-1 1c0 .879-.121 1-1 1-.553 0-1 .447-1 1s.447 1 1 1c1.99 0 3-1.01 3-3z"/></svg>