<svg id="Layer_1" viewBox="0 0 24 24" xmlns="http://www.w3.org/2000/svg" data-name="Layer 1"><path d="m12 23c-7.71 0-11-3.29-11-11s3.29-11 11-11 11 3.29 11 11-3.29 11-11 11zm0-20c-6.561 0-9 2.439-9 9s2.439 9 9 9 9-2.439 9-9-2.439-9-9-9zm2 7c0 .552.448 1 1 1s1-.448 1-1-.448-1-1-1-1 .448-1 1zm-6 0c0 .552.448 1 1 1s1-.448 1-1-.448-1-1-1-1 .448-1 1zm.615 6.788c.68-.53 1.758-.788 3.294-.788h4.09c.552 0 1-.447 1-1s-.448-1-1-1h-4.09c-2.027 0-3.465.385-4.525 1.212-.436.339-.513.968-.173 1.403.342.438.972.511 1.404.173z"/></svg>