<svg id="Layer_1" viewBox="0 0 24 24" xmlns="http://www.w3.org/2000/svg" data-name="Layer 1"><path d="m12 23c-7.71 0-11-3.29-11-11s3.29-11 11-11 11 3.29 11 11c0 .739-.03 1.442-.09 2.092-.05.549-.544.955-1.087.904-.55-.05-.955-.538-.904-1.087.054-.588.082-1.23.082-1.908 0-6.561-2.439-9-9-9s-9.001 2.438-9.001 8.999 2.439 9 9 9c1.474 0 2.707-.123 3.768-.376.539-.127 1.077.203 1.205.74.128.538-.203 1.077-.74 1.205-1.215.29-2.6.431-4.232.431zm3.701-5.288c.394-.387.399-1.021.012-1.414-.859-.874-2.074-1.298-3.713-1.298s-2.854.425-3.713 1.298c-.387.394-.382 1.027.012 1.414.395.387 1.027.383 1.414-.012.47-.478 1.197-.701 2.287-.701s1.817.223 2.287.701c.196.199.454.299.713.299.253 0 .506-.096.701-.287zm2.981-5.981c.404-.376.426-1.009.049-1.413s-1.009-.427-1.413-.049c-1.055.983-1.581.983-2.636 0-.404-.377-1.036-.355-1.413.049s-.355 1.037.049 1.413c.915.854 1.792 1.269 2.682 1.269s1.767-.415 2.682-1.269zm-8 0c.404-.376.426-1.009.049-1.413-.376-.404-1.01-.427-1.413-.049-1.055.983-1.581.983-2.636 0-.403-.377-1.037-.355-1.413.049-.377.404-.355 1.037.049 1.413.915.854 1.792 1.269 2.682 1.269s1.767-.415 2.682-1.269zm9.293 9.269c1.446 0 2.025-.574 2.025-2.007 0-2.007-2.025-3.513-4.14-3.973-.584-.127-1.062.392-.773.912.452.814.914 2.065.914 3.069 0 1.434.529 2 1.975 2z"/></svg>