<svg id="Layer_1" viewBox="0 0 24 24" xmlns="http://www.w3.org/2000/svg" data-name="Layer 1"><path d="m12 1c-7.71 0-11 3.29-11 11s3.29 11 11 11 11-3.29 11-11-3.29-11-11-11zm0 20c-6.561 0-9-2.439-9-9s2.439-9 9-9 9 2.439 9 9-2.439 9-9 9zm6-11c0 .553-.447 1-1 1-1.99 0-3-1.01-3-3 0-.553.447-1 1-1s1 .447 1 1c0 .879.121 1 1 1 .553 0 1 .447 1 1zm-11 1c-.553 0-1-.447-1-1s.447-1 1-1c.879 0 1-.121 1-1 0-.553.447-1 1-1s1 .447 1 1c0 1.99-1.01 3-3 3zm9.948 5.184c.087.261.063.546-.066.788-.207.39-.667.592-1.093.506-.401-.08-2.468-.478-3.789-.478-1.313 0-3.384.397-3.785.477-.294.061-.617-.014-.85-.204-.32-.263-.445-.695-.313-1.089.613-1.842 2.694-3.181 4.947-3.184 2.255.003 4.336 1.342 4.949 3.184z"/></svg>