<svg id="Layer_1" viewBox="0 0 24 24" xmlns="http://www.w3.org/2000/svg" data-name="Layer 1"><path d="m22.78 8.846c.146.938.22 1.999.22 3.154 0 7.71-3.29 11-11 11s-11-3.29-11-11c0-1.155.074-2.217.22-3.154.085-.545.595-.915 1.143-.834.545.085.919.597.834 1.143-.131.836-.197 1.793-.197 2.846 0 6.561 2.439 9 9 9s9-2.439 9-9c0-1.053-.066-2.01-.197-2.846-.085-.546.289-1.058.834-1.143.545-.08 1.057.289 1.143.834zm-21.78-4.846c0-2.521 3.866-3 11-3s11 .479 11 3-3.866 3-11 3-11-.479-11-3zm1.993.021c.182.265 1.424.979 9.007.979s8.825-.714 9.007-1.021c-.182-.265-1.424-.979-9.007-.979s-8.825.714-9.007 1.021zm9.007 13.979c2.027 0 3.465-.385 4.525-1.212.436-.339.513-.968.173-1.403-.339-.437-.969-.513-1.404-.173-.68.53-1.758.788-3.294.788s-2.614-.258-3.294-.788c-.434-.339-1.063-.263-1.404.173-.339.436-.262 1.064.173 1.403 1.06.827 2.498 1.212 4.525 1.212zm6-5c.552 0 1-.447 1-1 0-1.99-1.009-3-3-3s-3 1.01-3 3c0 .553.448 1 1 1s1-.447 1-1c0-.879.122-1 1-1s1 .121 1 1c0 .553.448 1 1 1zm-9-1c0 .553.448 1 1 1s1-.447 1-1c0-1.99-1.009-3-3-3s-3 1.01-3 3c0 .553.448 1 1 1s1-.447 1-1c0-.879.122-1 1-1s1 .121 1 1z"/></svg>