<svg id="Layer_1" viewBox="0 0 24 24" xmlns="http://www.w3.org/2000/svg" data-name="Layer 1"><path d="m12 1c-7.71 0-11 3.29-11 11s3.29 11 11 11 11-3.29 11-11-3.29-11-11-11zm0 20c-6.561 0-9-2.439-9-9s2.439-9 9-9 9 2.439 9 9-2.439 9-9 9zm5.788-5.615c.34.436.263 1.064-.173 1.403-1.045.815-2.525 1.212-4.524 1.212h-4.091c-.553 0-1-.447-1-1s.447-1 1-1h4.091c1.536 0 2.614-.258 3.294-.788.436-.341 1.063-.263 1.403.173zm-9.788-3.385c-.553 0-1-.447-1-1h-1c-.553 0-1-.447-1-1s.447-1 1-1h1c1.299 0 2 1.03 2 2 0 .553-.447 1-1 1zm5-2c0-.553.447-1 1-1h1c1.299 0 2 1.03 2 2 0 .553-.447 1-1 1s-1-.447-1-1h-1c-.553 0-1-.447-1-1z"/></svg>