<svg id="Layer_1" viewBox="0 0 24 24" xmlns="http://www.w3.org/2000/svg" data-name="Layer 1"><path d="m22.78 8.846c.146.938.22 1.999.22 3.154 0 7.71-3.29 11-11 11-1.173 0-2.205-.072-3.154-.22-.545-.085-.919-.597-.834-1.143.085-.545.598-.92 1.143-.834.834.13 1.792.196 2.846.196 6.561 0 9-2.439 9-9 0-1.053-.066-2.01-.197-2.846-.085-.546.289-1.058.834-1.143.545-.08 1.057.289 1.143.834zm-20.573 7.154c.607.006 1.089-.554.99-1.154-.131-.836-.197-1.793-.197-2.846 0-6.561 2.439-9 9-9 .678 0 1.32.027 1.908.082.543.051 1.037-.354 1.087-.904s-.354-1.037-.904-1.088c-.649-.06-1.353-.09-2.092-.09-7.709 0-10.999 3.29-10.999 11 0 1.155.074 2.217.22 3.154.077.493.503.846.987.846zm14.318-.212c.436-.339.513-.968.173-1.403-.34-.436-.969-.513-1.404-.173-.68.53-1.758.788-3.294.788s-2.614-.258-3.294-.788c-.435-.339-1.063-.263-1.404.173-.339.436-.262 1.064.173 1.403 1.06.827 2.498 1.212 4.525 1.212s3.465-.385 4.525-1.212zm2.854-9.536c.377.254.866.254 1.243 0 .879-.591 2.379-1.918 2.379-3.69 0-.895-.672-1.62-1.5-1.62s-1.5.605-1.5 1.5c0-.895-.672-1.5-1.5-1.5s-1.5.725-1.5 1.62c0 1.771 1.5 3.098 2.379 3.69zm-13.879 11.248c-.828 0-1.5.605-1.5 1.5 0-.895-.672-1.5-1.5-1.5s-1.5.725-1.5 1.62c0 1.771 1.5 3.098 2.379 3.69.377.254.866.254 1.243 0 .879-.591 2.379-1.919 2.379-3.69 0-.895-.672-1.62-1.5-1.62zm7.5-6.5c0 .553.448 1 1 1s1-.447 1-1c0-.879.122-1 1-1s1 .121 1 1c0 .553.448 1 1 1s1-.447 1-1c0-1.99-1.009-3-3-3s-3 1.01-3 3zm-5-1c.878 0 1 .121 1 1 0 .553.448 1 1 1s1-.447 1-1c0-1.99-1.009-3-3-3s-3 1.01-3 3c0 .553.448 1 1 1s1-.447 1-1c0-.879.122-1 1-1z"/></svg>