<svg id="Layer_1" viewBox="0 0 24 24" xmlns="http://www.w3.org/2000/svg" data-name="Layer 1"><path d="m17.944 20.975c.183.521-.092 1.092-.614 1.274-1.446.505-3.19.751-5.33.751-7.71 0-11-3.29-11-11s3.29-11 11-11 11 3.29 11 11c0 .739-.03 1.442-.09 2.092-.051.55-.544.951-1.087.904-.55-.051-.955-.538-.904-1.088.054-.588.082-1.23.082-1.908 0-6.561-2.439-9-9-9s-9.001 2.439-9.001 9 2.439 9 9 9c1.912 0 3.439-.209 4.67-.64.523-.182 1.092.094 1.274.614zm-7.944-10.975c0-.552-.448-1-1-1s-1 .448-1 1 .448 1 1 1 1-.448 1-1zm6 0c0-.552-.448-1-1-1s-1 .448-1 1 .448 1 1 1 1-.448 1-1zm-10 5v2c0 .553.448 1 1 1s1-.447 1-1v-2c0-.553-.448-1-1-1s-1 .447-1 1zm4 3c.552 0 1-.447 1-1v-2c0-.553-.448-1-1-1s-1 .447-1 1v2c0 .553.448 1 1 1zm2-3v2c0 .553.448 1 1 1s1-.447 1-1v-2c0-.553-.448-1-1-1s-1 .447-1 1zm4 3c.552 0 1-.447 1-1v-2c0-.553-.448-1-1-1s-1 .447-1 1v2c0 .553.448 1 1 1zm2.827-2c-.472-.048-.868.346-.823.818.088.923.669 2.683 1.41 3.424 1.01 1.01 1.818 1.01 2.828 0s1.01-1.818 0-2.828c-.725-.725-2.487-1.32-3.416-1.414z"/></svg>