<svg id="Layer_1" viewBox="0 0 24 24" xmlns="http://www.w3.org/2000/svg" data-name="Layer 1"><path d="m12 23c-7.71 0-11-3.29-11-11s3.29-11 11-11 11 3.29 11 11-3.29 11-11 11zm0-20c-6.561 0-9 2.439-9 9s2.439 9 9 9 9-2.439 9-9-2.439-9-9-9zm-3.51 8.371c.838-.472 1.584-1.031 2.217-1.664.391-.391.391-1.023 0-1.414-.633-.633-1.378-1.192-2.217-1.664-.481-.273-1.092-.101-1.362.381-.271.481-.1 1.091.381 1.361.343.193.666.403.966.629-.3.226-.623.436-.966.629-.481.271-.652.88-.381 1.361.272.485.89.65 1.362.381zm8.381-.381c.271-.481.1-1.091-.381-1.361-.343-.193-.666-.403-.966-.629.3-.226.623-.436.966-.629.481-.271.652-.88.381-1.361s-.88-.653-1.362-.381c-.838.472-1.584 1.031-2.217 1.664-.391.391-.391 1.023 0 1.414.633.633 1.378 1.192 2.217 1.664.472.269 1.09.104 1.362-.381zm-.843 7.01c.3-.002.583-.14.771-.373.419-.522 1.017-1.118 1.88-1.875.415-.364.456-.996.092-1.411-.363-.415-.996-.456-1.411-.093-.524.461-.964.872-1.336 1.252-.441-.463-.9-.89-1.372-1.274-.367-.299-.958-.289-1.312.022-.525.461-.964.873-1.336 1.252-.441-.464-.9-.89-1.373-1.275-.366-.299-.957-.288-1.312.023-.524.461-.964.872-1.336 1.252-.441-.464-.9-.89-1.373-1.275-.427-.349-1.057-.283-1.407.144-.349.428-.285 1.058.143 1.407.651.53 1.277 1.157 1.862 1.862.191.231.445.386.777.362.3-.002.583-.139.771-.373.308-.382.71-.803 1.242-1.299.425.397.837.836 1.229 1.31.191.231.448.386.777.362.3-.002.584-.14.772-.373.306-.381.708-.803 1.241-1.299.426.398.837.837 1.23 1.311.19.229.472.361.77.361h.008z"/></svg>