<svg id="Layer_1" viewBox="0 0 24 24" xmlns="http://www.w3.org/2000/svg" data-name="Layer 1"><path d="m7.939 13.001s0 0 0 0c0-2.856 1.161-3.999 4.061-3.999 2.418 0 3.613.811 3.949 2.73-.103-.089-.198-.187-.315-.262-.473-.306-1.024-.469-1.591-.469-.936 0-1.804.439-2.357 1.183-.15.168-.55.616-1.053 1.171-.421-.228-.912-.354-1.42-.354-.447 0-.873.106-1.257.291-.003-.1-.016-.186-.016-.29zm-1.764 8.045c.302-.463.171-1.083-.292-1.384-1.967-1.282-2.883-3.717-2.883-7.662 0-6.561 2.439-9 9-9s9 2.439 9 9c0 2.648-.409 4.604-1.25 5.978-.288.471-.14 1.087.332 1.375.469.289 1.086.14 1.375-.331 1.038-1.698 1.543-3.995 1.543-7.022 0-7.71-3.29-11-11-11s-11 3.29-11 11c0 4.684 1.204 7.651 3.791 9.338.456.299 1.08.174 1.384-.292zm5.562-2.981c-.012.012-1.538 1.641-1.538 1.641.408.883 1.381 1.293 2.301 1.293.289 0 .827 0 1.603-.569l-2.366-2.366m2.305-5.065c.174 0 .351.049.508.15.434.28.558.859.278 1.293-.032.049-.7 1.005-1.773 2.11l.597.597c1.119-1.16 2.136-2.24 2.142-2.249.297-.427.883-.528 1.303-.236.425.293.531.876.237 1.301-.03.044-1.119 1.365-2.299 2.566l.558.558c.433-.429.716-.773.716-.773.351-.475 1.046-.514 1.449-.074.31.336.309.848.037 1.215-.497.669-1.069 1.26-1.633 1.824-1.689 1.689-3.085 1.715-3.663 1.715-2.5 0-4.499-1.75-4.499-4.25 0-1.905.37-3.14.37-3.14.117-.355.451-.61.842-.61h.022c.387.01.787.21.95.777.043.277.064.614.074.941 1.325-1.414 2.99-3.282 2.997-3.292.179-.276.48-.427.787-.427zm3.317-4.567c.516-.199.772-.777.573-1.293-.354-.92-.875-1.53-1.592-1.863-.678-.313-1.486-.359-2.538-.148-.542.109-.893.637-.783 1.178.109.541.639.89 1.178.783.602-.122 1.038-.121 1.303.001.142.066.354.217.567.768.197.52.791.771 1.292.573zm-9.427-.573c.213-.551.426-.702.566-.767.266-.123.704-.123 1.304-.002.538.107 1.068-.242 1.178-.783.109-.542-.241-1.069-.783-1.178-1.053-.212-1.86-.166-2.539.149-.716.332-1.236.941-1.591 1.862-.199.516.058 1.094.573 1.293.501.198 1.095-.053 1.292-.573z"/></svg>