<svg id="Layer_1" viewBox="0 0 24 24" xmlns="http://www.w3.org/2000/svg" data-name="Layer 1"><path d="m16.5 10.5c0 .552-.448 1-1 1s-1-.448-1-1 .448-1 1-1 1 .448 1 1zm3.5 0c0 1.457-.334 2.533-1 3.273v8.227c0 .552-.447 1-1 1s-1-.448-1-1v-7.161c-.452.097-.94.161-1.5.161-3.07 0-4.5-1.43-4.5-4.5s1.43-4.5 4.5-4.5 4.5 1.43 4.5 4.5zm-4.5 2.5c1.939 0 2.5-.561 2.5-2.5s-.561-2.5-2.5-2.5-2.5.561-2.5 2.5.561 2.5 2.5 2.5zm-6.5-4c0-.552-.448-1-1-1s-1 .448-1 1 .448 1 1 1 1-.448 1-1zm-1.094 7.035c1.827.171 3.261 1.02 4.262 2.52.308.463.934.581 1.387.277.46-.307.584-.927.277-1.387-1.332-1.998-3.316-3.174-5.738-3.402-.564-.048-1.038.353-1.09.902-.051.55.353 1.037.902 1.089zm4.094-15.035c-7.71 0-11 3.29-11 11s3.29 11 11 11c.737 0 1.44-.03 2.091-.09.55-.05.955-.537.905-1.086-.051-.549-.546-.948-1.087-.905-.591.054-1.232.082-1.909.082-6.561 0-9-2.439-9-9s2.439-9.001 9-9.001 9 2.439 9 9c0 1.475-.123 2.707-.377 3.768-.128.537.203 1.077.74 1.205.538.128 1.077-.203 1.205-.74.29-1.214.432-2.599.432-4.232 0-7.71-3.29-11-11-11z"/></svg>