<svg id="Layer_1" viewBox="0 0 24 24" xmlns="http://www.w3.org/2000/svg" data-name="Layer 1"><path d="m12 23c-7.71 0-11-3.29-11-11s3.29-11 11-11 11 3.29 11 11-3.29 11-11 11zm0-20c-6.561 0-9 2.439-9 9s2.439 9 9 9 9-2.439 9-9-2.439-9-9-9zm6.683 9.731c.403-.377.425-1.01.048-1.414-.377-.405-1.009-.425-1.413-.048-1.053.983-1.582.983-2.635 0-.404-.377-1.037-.356-1.413.048-.377.404-.355 1.037.048 1.414.915.854 1.792 1.269 2.683 1.269s1.768-.415 2.683-1.269zm-8 0c.403-.377.425-1.01.048-1.414-.376-.405-1.009-.425-1.413-.048-1.053.983-1.582.983-2.635 0-.404-.377-1.038-.356-1.413.048-.377.404-.355 1.037.048 1.414.915.854 1.792 1.269 2.683 1.269s1.768-.415 2.683-1.269zm4.317 4.269c0-.552-.447-1-1-1h-4c-.553 0-1 .448-1 1s.447 1 1 1h4c.553 0 1-.448 1-1zm4-9c0-.552-.447-1-1-1-.879 0-1-.122-1-1 0-.552-.447-1-1-1s-1 .448-1 1c0 1.991 1.01 3 3 3 .553 0 1-.448 1-1zm-10-2c0-.552-.447-1-1-1s-1 .448-1 1c0 .878-.121 1-1 1-.553 0-1 .448-1 1s.447 1 1 1c1.99 0 3-1.009 3-3z"/></svg>