<svg id="Layer_1" viewBox="0 0 24 24" xmlns="http://www.w3.org/2000/svg" data-name="Layer 1"><path d="m12 23c-7.71 0-11-3.29-11-11s3.29-11 11-11 11 3.29 11 11-3.29 11-11 11zm0-20c-6.561 0-9 2.439-9 9s2.439 9 9 9 9-2.439 9-9-2.439-9-9-9zm-3 7.999c-.552 0-1 .448-1 1s.448 1 1 1 1-.448 1-1-.448-1-1-1zm6 0c-.552 0-1 .448-1 1s.448 1 1 1 1-.448 1-1-.448-1-1-1zm-3 8.001c1.429 0 2-.571 2-2s-.571-2-2-2-2 .571-2 2 .571 2 2 2m7-10c0-1.991-1.01-3-3-3-.553 0-1 .448-1 1s.447 1 1 1c.879 0 1 .122 1 1 0 .552.447 1 1 1s1-.448 1-1zm-12 0c0-.878.122-1 1-1 .552 0 1-.448 1-1s-.448-1-1-1c-1.991 0-3 1.009-3 3 0 .552.448 1 1 1s1-.448 1-1z"/></svg>