<svg id="Layer_1" viewBox="0 0 24 24" xmlns="http://www.w3.org/2000/svg" data-name="Layer 1"><path d="m9 10c0-.552.448-1 1-1s1 .448 1 1-.448 1-1 1-1-.448-1-1zm5-1c-.552 0-1 .448-1 1s.448 1 1 1 1-.448 1-1-.448-1-1-1zm-12.124-1.008c.537.071 1.05-.318 1.116-.868.194-1.552.424-2.842.564-3.568.726-.14 2.016-.37 3.568-.564.548-.068.937-.568.868-1.116-.068-.548-.573-.938-1.116-.868-2.504.313-4.308.707-4.383.723-.381.083-.679.381-.762.762-.017.075-.41 1.879-.723 4.383-.069.548.32 1.048.868 1.116zm15-5c1.552.194 2.842.424 3.568.564.14.726.37 2.016.564 3.568.063.506.494.876.991.876.596.004 1.072-.532.994-1.124-.313-2.504-.707-4.308-.723-4.383-.083-.381-.381-.679-.762-.762-.075-.017-1.879-.41-4.383-.723-.545-.07-1.048.32-1.116.868-.069.548.32 1.048.868 1.116zm-9.752 18.016c-1.552-.194-2.842-.424-3.568-.564-.14-.726-.37-2.016-.564-3.568-.069-.548-.574-.942-1.116-.868-.548.068-.937.568-.868 1.116.313 2.504.707 4.308.723 4.383.083.381.381.679.762.762.075.017 1.879.41 4.383.723.537.071 1.05-.318 1.116-.868.069-.548-.32-1.048-.868-1.116zm15-5c-.544-.074-1.048.32-1.116.868-.194 1.552-.424 2.842-.564 3.568-.726.14-2.016.37-3.568.564-.548.068-.937.568-.868 1.116.066.55.579.939 1.116.868 2.504-.313 4.308-.707 4.383-.723.381-.083.679-.381.762-.762.017-.075.41-1.879.723-4.383.069-.548-.32-1.048-.868-1.116zm-10.124 2.992c-4.841 0-7-2.159-7-7s2.159-7 7-7 7 2.159 7 7-2.159 7-7 7zm5-7c0-3.738-1.262-5-5-5s-5 1.262-5 5 1.262 5 5 5 5-1.262 5-5zm-3.713.632c-.089.091-.362.368-1.287.368s-1.198-.277-1.287-.368c-.387-.394-1.021-.398-1.414-.012-.394.388-.399 1.021-.012 1.414.639.649 1.526.965 2.713.965s2.074-.316 2.713-.965c.387-.394.382-1.026-.012-1.414-.392-.386-1.026-.382-1.414.012z"/></svg>