<svg id="Layer_1" viewBox="0 0 24 24" xmlns="http://www.w3.org/2000/svg" data-name="Layer 1"><path d="m19.001 21.265c-.923.035-1.375-1.265-.599-1.802 1.772-1.322 2.598-3.694 2.598-7.463 0-6.561-2.439-9-9-9s-9 2.439-9 9c0 3.769.825 6.141 2.598 7.463.443.331.534.957.204 1.399-.331.443-.959.534-1.399.204-2.321-1.732-3.402-4.613-3.402-9.066-.001-7.71 3.289-11 10.999-11s11 3.29 11 11c0 4.453-1.081 7.334-3.402 9.066-.179.134-.389.198-.597.198zm0-11.265c0-1.99-1.01-3-3-3s-3 1.01-3 3c0 .553.447 1 1 1s1-.447 1-1c0-.879.121-1 1-1s1 .121 1 1c0 .553.447 1 1 1s1-.447 1-1zm-8 0c0-1.99-1.01-3-3-3s-3 1.01-3 3c0 .553.447 1 1 1s1-.447 1-1c0-.879.121-1 1-1s1 .121 1 1c0 .553.447 1 1 1s1-.447 1-1zm-.278 8.086-1.519 1.62c.408.883 1.381 1.293 2.301 1.293.289 0 .827 0 1.603-.569l-2.366-2.366m2.305-5.065c.174 0 .351.049.508.15.434.28.558.859.278 1.293-.032.049-.7 1.005-1.773 2.11l.597.597c1.119-1.16 2.136-2.24 2.142-2.249.297-.427.883-.528 1.303-.236.425.293.531.876.237 1.301-.03.044-1.119 1.365-2.299 2.566l.558.558c.433-.429.716-.773.716-.773.351-.475 1.046-.514 1.449-.074.31.336.309.848.037 1.215-.497.669-1.069 1.26-1.633 1.824-1.689 1.689-3.085 1.715-3.663 1.715-2.5 0-4.499-1.75-4.499-4.25 0-1.905.37-3.14.37-3.14.117-.355.451-.61.842-.61h.022c.387.01.787.21.95.777.043.277.064.614.074.941 1.325-1.414 2.99-3.282 2.997-3.292.179-.276.48-.427.787-.427z"/></svg>