<svg id="Layer_1" viewBox="0 0 24 24" xmlns="http://www.w3.org/2000/svg" data-name="Layer 1"><path d="m23 12c0 7.71-3.29 11-11 11s-11-3.29-11-11c0-3.086.525-5.416 1.606-7.122.295-.467.912-.606 1.38-.31.467.296.605.913.31 1.38-.872 1.376-1.296 3.355-1.296 6.052 0 6.561 2.439 9 9 9s9-2.439 9-9c0-2.66-.412-4.622-1.261-5.997-.29-.471-.145-1.087.325-1.377.472-.289 1.087-.143 1.377.326 1.049 1.701 1.559 4.006 1.559 7.048zm-14 5v-1h-1c-.553 0-1-.447-1-1s.447-1 1-1h8c.553 0 1 .447 1 1s-.447 1-1 1h-1v1c0 1.99-1.01 3-3 3s-3-1.01-3-3zm4-1h-2v1c0 .879.121 1 1 1s1-.121 1-1zm-5.117-7c-.371 0-.704-.235-.828-.585-.183-.52-.754-.794-1.276-.608-.521.184-.793.755-.608 1.276.304.859.992 1.507 1.83 1.778v.139c0 .553.447 1 1 1s1-.447 1-1v-.226c1.033-.437 1.759-1.461 1.759-2.651 0-1.52-1.188-2.781-2.703-2.871-.364.055-.696-.24-.694-.617 0-.35.285-.635.635-.635.183 0 .351.075.472.211.368.411.999.446 1.412.08.412-.367.448-1 .08-1.412-.266-.299-.597-.523-.96-.673v-.206c0-.553-.447-1-1-1s-1 .447-1 1v.198c-.96.394-1.639 1.336-1.639 2.436 0 1.453 1.182 2.635 2.635 2.635.429.01.763.426.763.854 0 .483-.393.877-.876.877zm8 0c-.371 0-.704-.235-.828-.585-.184-.52-.753-.794-1.276-.608-.521.184-.793.755-.608 1.276.304.859.992 1.507 1.83 1.778v.139c0 .553.447 1 1 1s1-.447 1-1v-.226c1.033-.437 1.759-1.461 1.759-2.651 0-1.52-1.188-2.781-2.703-2.871-.365.055-.696-.24-.694-.617 0-.35.285-.635.635-.635.183 0 .351.075.472.211.368.411 1 .446 1.412.08.412-.367.448-1 .08-1.412-.266-.299-.597-.523-.96-.673v-.206c0-.553-.447-1-1-1s-1 .447-1 1v.198c-.96.394-1.639 1.336-1.639 2.436 0 1.453 1.182 2.635 2.635 2.635.429.01.763.426.763.854 0 .483-.393.877-.876.877z"/></svg>