<svg id="Layer_1" viewBox="0 0 24 24" xmlns="http://www.w3.org/2000/svg" data-name="Layer 1"><path d="m12 1c-7.71 0-11 3.29-11 11s3.29 11 11 11 11-3.29 11-11-3.29-11-11-11zm0 20c-6.561 0-9-2.439-9-9s2.439-9 9-9 9 2.439 9 9-2.439 9-9 9zm3.713-3.702c.388.394.382 1.027-.012 1.415-.396.386-1.028.381-1.414-.012-.47-.478-1.196-.701-2.287-.701s-1.817.223-2.287.701c-.387.394-1.021.399-1.414.012-.394-.387-.399-1.021-.012-1.414.859-.874 2.074-1.298 3.713-1.298s2.854.425 3.713 1.298zm3.051-9.712c-.854.393-1.547.547-2.35.284-.68-.24-1.219-.796-1.649-1.698-.238-.499-.026-1.095.472-1.333.499-.24 1.097-.025 1.333.472.256.535.442.649.512.674.066.022.284.052.821-.203.496-.24 1.095-.027 1.333.471s.027 1.095-.472 1.333zm-13.528 0c-.498-.238-.709-.835-.471-1.333s.836-.708 1.333-.471c.535.256.754.227.822.203s.256-.139.512-.674c.238-.499.837-.71 1.333-.472.499.238.709.835.472 1.333-.431.902-.971 1.458-1.65 1.698-.804.263-1.496.109-2.351-.284zm10.765 1.414c-.352 0-.663.043-.954.106.558.219.954.759.954 1.394 0 .828-.672 1.5-1.5 1.5-.635 0-1.175-.396-1.394-.954-.063.291-.106.601-.106.954 0 1.991 1.01 3 3 3s3-1.009 3-3-1.01-3-3-3zm1 5c-.552 0-1-.448-1-1s.448-1 1-1 1 .448 1 1-.448 1-1 1zm-6-2c0-1.991-1.01-3-3-3-.352 0-.663.043-.954.106.558.219.954.759.954 1.394 0 .828-.672 1.5-1.5 1.5-.635 0-1.175-.396-1.394-.954-.063.291-.106.601-.106.954 0 1.991 1.01 3 3 3s3-1.009 3-3zm-2 0c.552 0 1 .448 1 1s-.448 1-1 1-1-.448-1-1 .448-1 1-1z"/></svg>