<svg id="Layer_1" viewBox="0 0 24 24" xmlns="http://www.w3.org/2000/svg" data-name="Layer 1"><path d="m7 14c-1.429 0-2-.571-2-2s.571-2 2-2 2 .571 2 2-.571 2-2 2zm7.5-2c-2.322 0-3.5-1.178-3.5-3.5s1.178-3.5 3.5-3.5 3.5 1.178 3.5 3.5-1.178 3.5-3.5 3.5zm0-2c1.233 0 1.5-.267 1.5-1.5s-.267-1.5-1.5-1.5-1.5.267-1.5 1.5.267 1.5 1.5 1.5zm-2.5-9c-7.71 0-11 3.29-11 11 0 4.79 1.264 7.795 3.978 9.456.47.288 1.085.14 1.375-.33.288-.472.14-1.087-.331-1.375-2.09-1.279-3.022-3.67-3.022-7.751 0-6.561 2.439-9 9-9s9 2.439 9 9c0 4.99-1.429 7.533-4.778 8.503-.53.154-.836.709-.682 1.239.152.536.722.835 1.239.683 4.245-1.229 6.222-4.542 6.222-10.425 0-7.71-3.29-11-11-11zm2.851 18.437c-.279.104-.563.195-.851.274v.289c0 1.99-1.009 3-3 3s-3-1.01-3-3v-2c-.01-.504.407-.945.904-.996 1.526-.176 3.665-.536 4.673-.973 1.488-.646 3.022-2.012 3.695-2.717.283-.296.721-.392 1.1-.243.445.179.701.647.61 1.118-.532 2.758-1.806 4.377-4.131 5.247zm-2.851-.895c-.723.147-1.438.26-2 .338v1.12c0 .879.122 1 1 1s1-.121 1-1z"/></svg>