<svg id="Layer_1" viewBox="0 0 24 24" xmlns="http://www.w3.org/2000/svg" data-name="Layer 1"><path d="m12 1c-7.71 0-11 3.29-11 11s3.29 11 11 11 11-3.29 11-11-3.29-11-11-11zm0 20c-6.561 0-9-2.439-9-9s2.439-9 9-9 9 2.439 9 9-2.439 9-9 9zm-.003-4.958c-.043.553-.535.961-1.078.916-1.463-.119-2.589-.502-3.443-1.17-.436-.34-.513-.969-.173-1.403.339-.436.967-.514 1.403-.173.538.42 1.314.666 2.375.752.551.045.961.528.916 1.078zm2.003-7.042c0-.552.448-1 1-1s1 .448 1 1-.448 1-1 1-1-.448-1-1zm-6 0c0-.552.448-1 1-1s1 .448 1 1-.448 1-1 1-1-.448-1-1zm8.578 3.052c.591.723 1.422 1.923 1.422 2.948 0 1.429-.571 2-2 2s-2-.571-2-2c0-1.048.827-2.237 1.417-2.952.302-.366.86-.364 1.161.003z"/></svg>