<svg id="Layer_1" viewBox="0 0 24 24" xmlns="http://www.w3.org/2000/svg" data-name="Layer 1"><path d="m16.525 15.212c.436.339.513.968.173 1.403-.342.438-.972.511-1.404.173-.68-.53-1.758-.788-3.294-.788s-2.614.258-3.294.788c-.435.34-1.063.264-1.404-.173-.339-.436-.262-1.064.173-1.403 1.06-.827 2.498-1.212 4.525-1.212s3.465.385 4.525 1.212zm-8.525-3.505c.391.391 1.023.391 1.414 0 .686-.686.918-1.91 0-2.828-.721-.722-1.712-1.594-1.754-1.63-.415-.365-1.046-.323-1.411.091-.365.415-.324 1.047.091 1.411.01.009.985.866 1.66 1.542-.391.391-.391 1.023 0 1.414zm8.243-4.464-1.636 1.636c-.559.559-.744 1.286-.507 1.996.151.453.426.752.507.832.39.391 1.024.391 1.415 0 .39-.391.39-1.023 0-1.414l1.636-1.636c.391-.391.391-1.023 0-1.414s-1.023-.391-1.414 0zm6.107-.258c.438 1.402.65 3.066.65 5.015 0 7.71-3.29 11-11 11s-11-3.29-11-11c0-1.949.212-3.614.651-5.016-.683-2.557-.652-4.899-.65-5.001-.008-.688.771-1.193 1.394-.901l2.946 1.262c1.684-.908 3.88-1.343 6.66-1.343s4.976.435 6.66 1.343l2.947-1.262c.623-.291 1.402.213 1.394.901.002.102.033 2.445-.65 5.003zm-1.35 5.015c0-6.561-2.439-9-9-9s-9 2.439-9 9 2.439 9 9 9 9-2.439 9-9z"/></svg>