<svg id="Layer_1" viewBox="0 0 24 24" xmlns="http://www.w3.org/2000/svg" data-name="Layer 1"><path d="m12 1c-7.71 0-11 3.29-11 11s3.29 11 11 11 11-3.29 11-11-3.29-11-11-11zm0 20c-6.561 0-9-2.439-9-9s2.439-9 9-9 9 2.439 9 9-2.439 9-9 9zm-3-10c.552 0 1 .448 1 1s-.448 1-1 1-1-.448-1-1 .448-1 1-1zm5 1c0-.552.448-1 1-1s1 .448 1 1-.448 1-1 1-1-.448-1-1zm5-3c0 .553-.447 1-1 1s-1-.447-1-1c0-.879-.121-1-1-1-.553 0-1-.447-1-1s.447-1 1-1c1.99 0 3 1.01 3 3zm-12 0c0 .553-.448 1-1 1s-1-.447-1-1c0-1.99 1.009-3 3-3 .552 0 1 .447 1 1s-.448 1-1 1c-.878 0-1 .121-1 1zm9.948 8.184c.132.394.007.826-.313 1.089-.232.19-.556.262-.85.204-.401-.079-2.472-.477-3.785-.477s-3.384.397-3.785.477c-.293.061-.618-.014-.85-.204-.32-.263-.445-.695-.314-1.089.614-1.842 2.695-3.181 4.947-3.184 2.255.003 4.336 1.342 4.95 3.184z"/></svg>