<svg id="Layer_1" viewBox="0 0 24 24" xmlns="http://www.w3.org/2000/svg" data-name="Layer 1"><path d="m23 15c0 1.991-1.009 3-3 3h-5c0 1.271-.729 2-2 2h-2c-.552 0-1-.448-1-1s.448-1 1-1h2c-.552 0-1-.448-1-1s.448-1 1-1h-2c-.552 0-1-.448-1-1s.448-1 1-1h2c1.271 0 2 .729 2 2h5c.878 0 1-.122 1-1s-.122-1-1-1c-.581 0-.768.115-.822.165-.406.374-1.039.35-1.413-.056-.375-.406-.35-1.038.056-1.413.507-.469 1.22-.696 2.179-.696 1.991 0 3 1.009 3 3zm-5.682-5.731c-1.055.983-1.581.983-2.636 0-.404-.376-1.036-.355-1.413.049s-.355 1.037.049 1.413c.915.854 1.792 1.269 2.682 1.269s1.767-.415 2.682-1.269c.404-.376.426-1.009.049-1.413s-1.009-.426-1.413-.049zm2.035 10.812c.288.471.14 1.086-.331 1.375-1.697 1.039-3.994 1.544-7.022 1.544-7.71 0-11-3.29-11-11 .035-1.256.011-2.341.298-3.364-.057-.406-.118-.892-.185-1.484-.291-2.587.062-4.535.176-5.071.083-.388.393-.709.781-.789.546-.117 2.494-.47 5.081-.179.496.056.905.107 1.268.156 1.223-.161 2.181-.276 3.58-.269 6.608 0 9.933 2.42 10.78 7.846.085.546-.289 1.057-.834 1.143-.534.086-1.06-.285-1.143-.834-.69-4.429-3.159-6.154-8.803-6.154-.353 0-.679.017-1.008.033-.171.8-.843 2.817-2.992 4.966-.479.479-.95.879-1.402 1.218 1.081.962 1.633 1.102 2.72.052.403-.377 1.037-.355 1.413.049.377.404.355 1.037-.049 1.413-.915.854-1.792 1.269-2.682 1.269s-1.767-.415-2.682-1.269c-.157-.147-.239-.336-.279-.532-.893.459-1.607.658-2.004.74.007-.143-.035.69-.035 1.061 0 6.561 2.439 9 9 9 2.649 0 4.604-.409 5.978-1.25.469-.288 1.085-.14 1.375.331zm-16.252-13.153c.096.855.177 1.443.241 1.844.756-.282 1.949-.892 3.244-2.187s1.903-2.485 2.186-3.244c-.401-.063-.988-.145-1.843-.241-1.663-.187-3.007-.078-3.793.034-.113.798-.221 2.137-.035 3.794z"/></svg>