<svg id="Layer_1" viewBox="0 0 24 24" xmlns="http://www.w3.org/2000/svg" data-name="Layer 1"><path d="m23 12c0 6.192-2.087 9.451-6.768 10.568-.523.129-1.079-.199-1.205-.74-.128-.537.203-1.077.74-1.205 3.717-.887 5.232-3.385 5.232-8.623 0-6.561-2.439-9-9-9-5.238 0-7.736 1.516-8.624 5.232-.126.541-.682.869-1.205.74-.537-.128-.869-.668-.74-1.205 1.119-4.68 4.378-6.767 10.57-6.767 7.71 0 11 3.29 11 11zm-14.768 8.623c-1.669-.398-2.877-1.125-3.695-2.221-.329-.443-.956-.534-1.399-.204s-.534.957-.204 1.399c1.109 1.487 2.69 2.459 4.834 2.971.523.129 1.079-.199 1.205-.74.128-.537-.203-1.077-.741-1.205zm8.768-11.623c.553 0 1-.447 1-1s-.447-1-1-1c-.879 0-1-.121-1-1 0-.553-.447-1-1-1s-1 .447-1 1c0 1.99 1.01 3 3 3zm-8-4c-.552 0-1 .447-1 1 0 .879-.122 1-1 1-.552 0-1 .447-1 1s.448 1 1 1c1.991 0 3-1.01 3-3 0-.553-.448-1-1-1zm6.949 13h-.949c0 1.99-1.01 3-3 3s-3-1.01-3-3h-.949c-.586 0-1.06-.508-1-1.091.285-2.775 1.766-3.909 4.948-3.909s4.664 1.135 4.948 3.909c.06.583-.413 1.091-1 1.091zm-2.949-1c0-.879-.122-1-1-1s-1 .121-1 1v1c0 .879.122 1 1 1s1-.121 1-1zm-5-6c0 .552.448 1 1 1s1-.448 1-1-.448-1-1-1-1 .448-1 1zm7 1c.552 0 1-.448 1-1s-.448-1-1-1-1 .448-1 1 .448 1 1 1zm-10 2c0-1.025-.832-2.225-1.422-2.948-.3-.368-.858-.37-1.161-.003-.59.715-1.417 1.903-1.417 2.952 0 1.429.571 2 2 2s2-.571 2-2z"/></svg>