<svg id="Layer_1" viewBox="0 0 24 24" xmlns="http://www.w3.org/2000/svg" data-name="Layer 1"><path d="m7 11.5c-.685.012-1.195-.722-.933-1.36.356-.923.877-1.531 1.593-1.862.676-.313 1.482-.361 2.538-.147.542.109.892.638.782 1.179-.109.541-.635.893-1.178.782-.6-.122-1.038-.121-1.301.002-.143.065-.354.216-.568.768-.153.396-.532.64-.933.64zm10.437 3.45c-.343-.166-.751-.124-1.051.11-.811.632-2.082.939-3.885.939s-3.075-.308-3.885-.939c-.435-.336-1.063-.262-1.403.174s-.262 1.064.174 1.404c1.089.849 2.627 1.276 4.647 1.337v3.025c0 .553.448 1 1 1s1-.447 1-1v-3.086c.731-.08 1.395-.214 1.977-.418l.023 4.509c.003.551.45.995 1 .995h.005c.552-.003.998-.453.995-1.005l-.032-6.15c-.002-.382-.221-.729-.563-.895zm-3.238-4.859c.598-.123 1.036-.122 1.303.003.141.064.353.215.566.767.198.52.791.77 1.293.572.515-.199.771-.777.572-1.293-.356-.923-.877-1.531-1.591-1.861-.679-.315-1.484-.361-2.54-.148-.542.109-.892.638-.782 1.179.109.541.635.893 1.178.782zm-2.199-9.091c-7.71 0-11 3.29-11 11-.01 6.659 2.497 10.036 8.001 10.792.484 0 .91-.353.987-.846.085-.546-.289-1.058-.834-1.143-4.429-.691-6.154-3.159-6.154-8.804 0-6.56 2.439-8.999 9-8.999s9 2.439 9 9c0 2.736-.438 4.736-1.337 6.117-.302.462-.171 1.082.291 1.384.464.3 1.083.171 1.384-.292 1.119-1.715 1.663-4.073 1.663-7.209 0-7.71-3.29-11-11-11z"/></svg>