<svg id="Layer_1" viewBox="0 0 24 24" xmlns="http://www.w3.org/2000/svg" data-name="Layer 1"><path d="m12 23c-7.71 0-11-3.29-11-11s3.29-11 11-11 11 3.29 11 11-3.29 11-11 11zm0-20c-6.561 0-9 2.439-9 9s2.439 9 9 9 9-2.439 9-9-2.439-9-9-9zm0 11c-2.494 0-3.702.845-3.991 2.899-.083.586.41 1.101 1.011 1.101h5.96c.601 0 1.093-.515 1.011-1.101-.289-2.054-1.497-2.899-3.991-2.899zm-3-4c-.552 0-1 .448-1 1s.448 1 1 1 1-.448 1-1-.448-1-1-1zm6 0c-.552 0-1 .448-1 1s.448 1 1 1 1-.448 1-1-.448-1-1-1zm4-2c0-1.99-1.009-3-3-3-.552 0-1 .447-1 1s.448 1 1 1c.878 0 1 .121 1 1 0 .553.448 1 1 1s1-.447 1-1zm-12 0c0-.879.122-1 1-1 .552 0 1-.447 1-1s-.448-1-1-1c-1.991 0-3 1.01-3 3 0 .553.448 1 1 1s1-.447 1-1z"/></svg>