<svg id="Layer_1" viewBox="0 0 24 24" xmlns="http://www.w3.org/2000/svg" data-name="Layer 1"><path d="m11.994 1c-7.065.044-10.867 3.842-10.994 10.982v.036c.131 7.144 3.933 10.941 11.006 10.982 7.162-.042 10.861-3.737 10.994-11.017-.122-7.037-4.026-10.938-11.006-10.983zm.012 20c-6.026-.035-8.889-2.895-9.006-9 .112-6.019 3.059-8.963 8.993-9 5.874.038 8.904 3.072 9.007 8.981-.112 6.117-2.974 8.983-8.994 9.019z"/><path d="m8 8.5s.009 0 .013 0l-.3.381c-.341.434-.267 1.063.168 1.404.183.145.401.214.617.214.196 0 .391-.058.557-.169.137.39.507.669.944.669.553 0 1-.448 1-1 0-1.407-.799-3.5-3-3.5s-3 2.093-3 3.5c0 .552.447 1 1 1s1-.448 1-1c0-.061.012-1.5 1-1.5z"/><path d="m16 6.5c-2.201 0-3 2.093-3 3.5 0 .552.447 1 1 1s1-.448 1-1c0-.061.012-1.5 1-1.5h.013l-.3.381c-.341.434-.267 1.063.168 1.404.183.145.401.214.617.214.196 0 .391-.058.557-.169.137.39.507.669.944.669.553 0 1-.448 1-1 0-1.407-.799-3.5-3-3.5z"/><path d="m15.824 13.156c-1.362.16-2.648.344-3.824.344-1.166 0-2.452-.185-3.825-.346-.313-.036-.64.065-.878.283-.237.217-.306.741-.297 1.063.031 1.148.513 2.053 1.569 3.122 1.095 1.082 2.252 1.626 3.42 1.626s2.352-.547 3.488-1.644c1.012-1.046 1.482-1.956 1.522-3.104.012-.324-.055-.839-.294-1.058-.239-.22-.565-.324-.883-.286zm-1.144 3.677c-1.165 1.123-2.238 1.452-3.224 1.254-.051-1.01.903-2.108 2.333-2.59.675-.228 1.349-.282 1.933-.188-.202.497-.542 1.007-1.042 1.524z"/></svg>