<svg id="Layer_1" viewBox="0 0 24 24" xmlns="http://www.w3.org/2000/svg" data-name="Layer 1"><path d="m9 13h-2c-.552 0-1-.447-1-1s.448-1 1-1h2c.552 0 1 .447 1 1s-.448 1-1 1zm9-1c0-.553-.448-1-1-1h-2c-.552 0-1 .447-1 1s.448 1 1 1h2c.552 0 1-.447 1-1zm5 0c0-7.71-3.29-11-11-11-2.14 0-3.884.246-5.33.751-.521.183-.796.753-.614 1.274s.753.797 1.274.614c1.23-.431 2.758-.64 4.67-.64 6.561 0 9 2.439 9 9s-2.439 9-9 9-9-2.438-9-8.999c0-.677.027-1.318.082-1.909.05-.55-.355-1.036-.905-1.087-.546-.052-1.036.354-1.086.905-.06.65-.09 1.354-.09 2.091 0 7.71 3.29 11 11 11s11-3.29 11-11zm-19.422-9.948c-.3-.368-.858-.37-1.161-.003-.59.715-1.417 1.903-1.417 2.952 0 1.429.571 2 2 2s2-.571 2-2c0-1.025-.832-2.225-1.422-2.948zm12.124 15.661c.394-.388.399-1.021.012-1.414-.86-.874-2.074-1.299-3.713-1.299s-2.853.425-3.713 1.299c-.387.394-.382 1.026.012 1.414.395.387 1.027.383 1.414-.012.471-.479 1.197-.701 2.287-.701s1.816.223 2.287.701c.387.394 1.021.399 1.414.012z"/></svg>