<svg id="Layer_1" viewBox="0 0 24 24" xmlns="http://www.w3.org/2000/svg" data-name="Layer 1"><path d="m12 23c-7.71 0-11-3.29-11-11s3.29-11 11-11 11 3.29 11 11-3.29 11-11 11zm0-20c-6.561 0-9 2.439-9 9s2.439 9 9 9 9-2.439 9-9-2.439-9-9-9zm4.525 13.789c.436-.34.513-.968.173-1.404-.34-.435-.969-.513-1.404-.173-.68.53-1.757.788-3.294.788s-2.615-.258-3.294-.788c-.435-.339-1.063-.262-1.404.173-.339.436-.262 1.064.173 1.404 1.059.826 2.497 1.211 4.525 1.211s3.466-.385 4.525-1.211zm2.157-5.058c.404-.376.426-1.009.049-1.413s-1.009-.426-1.413-.049c-1.055.983-1.581.983-2.636 0-.404-.376-1.036-.355-1.413.049s-.355 1.037.049 1.413c.915.854 1.792 1.269 2.682 1.269s1.767-.415 2.682-1.269zm-8 0c.404-.376.426-1.009.049-1.413-.376-.404-1.01-.426-1.413-.049-1.055.983-1.581.983-2.636 0-.403-.376-1.037-.355-1.413.049-.377.404-.355 1.037.049 1.413.915.854 1.792 1.269 2.682 1.269s1.767-.415 2.682-1.269zm-3.991-3.96c.271-.836.426-.913 1.26-.643.528.173 1.09-.117 1.26-.643.17-.525-.117-1.089-.643-1.26-1.896-.616-3.165.035-3.779 1.928-.17.525.117 1.089.643 1.26.511.171 1.09-.112 1.26-.643zm11.877.643c.525-.17.813-.734.643-1.26-.615-1.893-1.887-2.543-3.779-1.928-.525.17-.813.734-.643 1.26s.733.814 1.26.643c.834-.271.989-.193 1.26.643.169.53.748.813 1.26.643z"/></svg>