<svg id="Layer_1" viewBox="0 0 24 24" xmlns="http://www.w3.org/2000/svg" data-name="Layer 1"><path d="m10 14c0 .552-.448 1-1 1s-1-.448-1-1 .448-1 1-1 1 .448 1 1zm5-1c-.552 0-1 .448-1 1s.448 1 1 1 1-.448 1-1-.448-1-1-1zm-3 3c-1.871 0-2.776.634-2.993 2.174-.062.44.307.826.758.826h4.47c.451 0 .82-.386.758-.826-.217-1.54-1.122-2.174-2.993-2.174zm11-4v-3c0-.552-.446-1.03-.999-1.03-.547 0-.99.41-.998.955 0 .008 0 .015-.002.023-.052.289-.684 1.009-3.001 1.009h-1.919c-.606 0-1.081-.43-1.081-.978 0-.54.438-.979.979-.979h2.021c1.99 0 3-1.009 3-3s-1.01-3-3-3c-.432 0-.813.047-1.15.143-.572-.76-1.525-1.143-2.85-1.143-.812 0-1.474.139-2 .423-.526-.284-1.188-.423-2-.423-1.324 0-2.277.383-2.85 1.143-.337-.096-.719-.143-1.15-.143-1.99 0-3 1.009-3 3s1.01 3 3 3h2.021c.54 0 .979.439.979.979 0 .548-.475.978-1.081.978h-1.919c-2.336 0-2.92-.522-3.015-.63-.083-.469-.492-.826-.985-.826-.553 0-1 .448-1 1v2.5c0 7.71 3.29 11 11 11s11-3.29 11-11zm-17-.043h1.919c1.699 0 3.081-1.336 3.081-2.978s-1.336-2.979-2.979-2.979h-2.021c-.879 0-1-.122-1-1s.121-1 1-1c.434 0 .73.069.835.193.245.292.633.417 1.003.328.369-.09.655-.382.738-.753.085-.377.172-.768 1.424-.768.635 0 1.05.111 1.235.331.381.451 1.148.451 1.529 0 .186-.22.601-.331 1.235-.331 1.252 0 1.339.391 1.424.768.083.371.369.663.738.753.372.09.759-.037 1.003-.328.104-.125.401-.193.835-.193.879 0 1 .122 1 1s-.121 1-1 1h-2.021c-1.643 0-2.979 1.336-2.979 2.979s1.382 2.978 3.081 2.978h1.919c1.316 0 2.285-.201 3-.498v.542c0 6.561-2.439 9-9 9s-8.999-2.44-8.999-9.001v-.435c.715.235 1.686.391 3 .391z"/></svg>