<svg id="Layer_1" viewBox="0 0 24 24" xmlns="http://www.w3.org/2000/svg" data-name="Layer 1"><path d="m14.834 10.264c-.063-.011-1.564-.264-2.834-.264s-2.771.253-2.834.264c-.4.068-.72.372-.808.769-.015.065-.357 1.628-.357 3.467s.343 3.401.357 3.467c.075.339.324.6.643.714v3.319c0 .552.448 1 1 1s1-.448 1-1v-3.042c.33.025.672.042 1 .042s.67-.017 1-.042v3.042c0 .552.448 1 1 1s1-.448 1-1v-3.319c.319-.115.568-.376.643-.714.015-.065.357-1.628.357-3.467s-.343-3.401-.357-3.467c-.088-.397-.408-.701-.808-.769zm-4.645 6.6c-.087-.566-.19-1.431-.19-2.364s.103-1.798.19-2.364c.503-.064 1.201-.136 1.81-.136s1.307.072 1.81.136c.087.566.19 1.431.19 2.364s-.103 1.798-.19 2.364c-.503.064-1.201.136-1.81.136s-1.307-.072-1.81-.136zm-.19-9.864c0-1.429.571-2 2-2s2 .571 2 2-.571 2-2 2-2-.571-2-2zm-5.999-4c0-1.429.571-2 2-2s2 .571 2 2-.571 2-2 2-2-.571-2-2zm3.998 4.097c-.034.551-.508.984-1.061.936-.314-.02-.633-.032-.938-.032-.938 0-2.023.119-2.708.209-.123.722-.292 1.953-.292 3.291s.168 2.568.292 3.291c.464.061 1.111.135 1.771.177.551.035.97.51.936 1.061-.033.53-.474.938-.997.938v5.035c0 .552-.448 1-1 1s-1-.448-1-1v-5.231c-.415-.055-.694-.1-.718-.104-.4-.066-.721-.367-.812-.762-.019-.083-.47-2.066-.47-4.403s.451-4.32.47-4.403c.091-.395.412-.696.812-.762.083-.014 2.055-.334 3.718-.334.346 0 .707.014 1.062.036.551.035.97.509.936 1.061zm8.002-4.097c0-1.429.571-2 2-2s2 .571 2 2-.571 2-2 2-2-.571-2-2zm7 8.5c0 2.337-.451 4.32-.47 4.403-.091.395-.412.696-.812.762-.024.004-.303.049-.718.104v5.231c0 .552-.448 1-1 1s-1-.448-1-1v-5.035c-.523 0-.964-.407-.997-.938-.035-.551.384-1.026.936-1.061.66-.042 1.307-.116 1.771-.177.123-.722.292-1.953.292-3.291s-.168-2.568-.292-3.291c-.687-.09-1.772-.209-2.708-.209-.305 0-.624.013-.938.032-.54.045-1.026-.385-1.061-.936s.384-1.026.936-1.061c.356-.022.717-.036 1.062-.036 1.663 0 3.635.321 3.718.334.4.066.721.367.812.762.019.083.47 2.066.47 4.403z"/></svg>