<svg id="Layer_1" viewBox="0 0 24 24" xmlns="http://www.w3.org/2000/svg" data-name="Layer 1"><path d="m14.832 10.265c-.063-.011-1.564-.265-2.834-.265s-2.771.254-2.834.265c-.4.067-.72.372-.808.768-.015.065-.357 1.628-.357 3.466s.343 3.401.357 3.466c.075.338.324.6.642.714v3.318c0 .553.448 1 1 1s1-.447 1-1v-3.042c.33.025.672.042 1 .042s.67-.017 1-.042v3.042c0 .553.448 1 1 1s1-.447 1-1v-3.318c.319-.114.567-.376.642-.714.015-.065.357-1.628.357-3.466s-.343-3.401-.357-3.466c-.088-.396-.408-.701-.808-.768zm-4.643 6.599c-.087-.566-.19-1.431-.19-2.364s.103-1.798.19-2.364c.503-.063 1.2-.136 1.81-.136s1.306.072 1.81.136c.087.566.19 1.431.19 2.364s-.103 1.798-.19 2.364c-.503.063-1.2.136-1.81.136s-1.306-.072-1.81-.136zm-.19-9.863c0-1.428.571-2 2-2s2 .571 2 2-.571 2-2 2-2-.571-2-2zm-5.999-4c0-1.428.571-2 2-2s2 .571 2 2-.571 2-2 2-2-.571-2-2zm11.998 0c0-1.428.571-2 2-2s2 .571 2 2-.571 2-2 2-2-.571-2-2zm6.999 14.52c-.017.716-.006.69-.002 1.045-.029.442-.346.812-.779.909-.043.01-.534.117-1.219.232v2.292c0 .553-.448 1-1 1s-1-.447-1-1v-2.044c-.337.026-.674.045-1 .045-.552 0-1-.447-1-1s.448-1 1-1c1.02 0 2.225-.182 2.996-.321.084-2.647-.631-7.211-1.663-9.216-.073-.145-.234-.461-1.333-.461-.469 0-.821.058-1.047.171-.495.251-1.095.051-1.343-.442s-.05-1.095.443-1.343c.515-.26 1.152-.386 1.947-.386.576 0 2.328 0 3.112 1.548 1.186 2.281 1.948 7.089 1.887 9.972zm-15-10.425c-.034.551-.514.964-1.059.936-.314-.02-.634-.032-.939-.032-.938 0-2.023.119-2.708.209-.123.723-.291 1.953-.291 3.291s.168 2.568.291 3.291c.464.061 1.111.135 1.771.177.551.035.97.51.935 1.061-.034.529-.474.936-.997.936v5.033c0 .553-.448 1-1 1s-1-.447-1-1v-5.23c-.415-.055-.694-.1-.718-.104-.4-.065-.721-.366-.812-.762-.019-.083-.47-2.066-.47-4.403s.451-4.32.47-4.403c.091-.395.412-.696.812-.762.083-.014 2.055-.335 3.717-.335.345 0 .705.015 1.061.036.551.033.971.508.937 1.059z"/></svg>