<svg id="Layer_1" viewBox="0 0 24 24" xmlns="http://www.w3.org/2000/svg" data-name="Layer 1"><path d="m22.448 9.184c-.025-.077-.061-.151-.104-.221l-3.5-5.5c-.118-.185-.293-.326-.498-.401-5.6-2.062-6.161-2.062-6.346-2.062s-.746 0-6.346 2.062c-.205.076-.38.217-.498.401l-3.5 5.5c-.044.069-.079.144-.104.221-.022.068-.552 1.69-.552 4.816 0 4.115 1.009 7.188 1.052 7.316.098.293.325.525.617.627.123.043 3.082 1.057 9.331 1.057s9.208-1.013 9.331-1.057c.292-.102.52-.334.617-.627.043-.129 1.052-3.202 1.052-7.316 0-3.126-.529-4.749-.552-4.816zm-6.544 7.145c.056.47.095 1.029.095 1.671 0 .626-.035 1.193-.085 1.688l-2.251-1.681 2.24-1.678zm-3.911.43-2.894-2.162c.732-.29 1.774-.598 2.901-.598 1.113 0 2.151.305 2.885.594l-2.891 2.166zm-3.994 1.241c0-.634.039-1.188.095-1.656l2.23 1.665-2.239 1.677c-.05-.491-.085-1.06-.085-1.687zm1.734 2.951 2.261-1.694 2.268 1.694c-.696.031-1.45.049-2.263.049s-1.57-.018-2.266-.049zm10.461-.76c-.458.117-1.248.291-2.383.448.103-.707.188-1.605.188-2.638 0-2.568-.562-4.052-.586-4.113-.079-.206-.225-.379-.413-.494-.093-.057-2.318-1.393-5.001-1.393s-4.906 1.335-5 1.392c-.19.116-.337.291-.416.499-.023.062-.584 1.563-.584 4.109 0 1.04.085 1.935.187 2.638-1.136-.157-1.926-.331-2.382-.448-.266-.978-.805-3.317-.805-6.19 0-2.343.32-3.715.42-4.083l3.242-5.095c2.262-.828 4.731-1.681 5.338-1.812.606.131 3.076.984 5.338 1.812l3.242 5.094c.101.375.42 1.746.42 4.083 0 2.86-.54 5.209-.806 6.19z"/><path d="m12 5c-1.654 0-3 1.346-3 3s1.346 3 3 3 3-1.346 3-3-1.346-3-3-3zm0 4c-.552 0-1-.449-1-1s.448-1 1-1 1 .449 1 1-.448 1-1 1z"/></svg>