<svg id="Layer_1" viewBox="0 0 24 24" xmlns="http://www.w3.org/2000/svg" data-name="Layer 1"><path d="m22.779 14.355c-.075.095-.78.953-2.243 1.736s-2.568.895-2.689.905c-.293.025-.586-.083-.794-.293-.055-.056-1.269-1.286-2.553-2.825-1.349.081-2.552.121-4.052.121-5.73 0-8.408-.187-8.52-.195-.551-.04-.965-.518-.926-1.069s.509-.964 1.069-.926c.026.002 2.731.19 8.377.19 1.646 0 2.98-.05 4.43-.149.331-.024.64.115.845.367.923 1.136 1.879 2.167 2.386 2.7.343-.088.869-.26 1.482-.588.581-.311 1-.634 1.268-.87-.292-.822-1.026-2.586-2.599-4.948-1-.161-3.444-.511-7.812-.511-5.617 0-8.309.298-8.335.301-.556.066-1.044-.332-1.106-.88-.062-.549.331-1.044.879-1.107.078-.009 1.396-.156 4.104-.245.019-.559.436-.977.973-1.003.65-.026 1.341-.041 2.037-.051v-1.539c-2.2-.098-4.106-.478-4.198-.496-.541-.109-.892-.637-.782-1.178.108-.542.638-.891 1.177-.783.024.005 2.417.48 4.803.48 2.201 0 4.791-.478 4.816-.483.542-.104 1.065.256 1.167.799s-.256 1.065-.799 1.167c-.097.018-2.102.388-4.184.491v1.533c.718.005 1.42.015 2.05.036.545.019.976.471.966 1.016v.023c3.28.157 4.792.489 5.031.537.179.037.333.154.49.25 2.521 3.443 3.492 6.724 3.429 6.627.074.3.004.618-.188.86zm-2.362 3.693c-.59.715-1.417 1.903-1.417 2.952 0 1.429.571 2 2 2s2-.571 2-2c0-1.025-.832-2.225-1.422-2.948-.3-.368-.858-.37-1.161-.003z"/></svg>