<svg id="Layer_1" viewBox="0 0 24 24" xmlns="http://www.w3.org/2000/svg" data-name="Layer 1"><path d="m9.996 16h7c.552 0 1 .448 1 1s-.448 1-1 1h-7c-.552 0-1-.448-1-1s.448-1 1-1zm7-2c.552 0 1-.448 1-1s-.448-1-1-1h-5c-.552 0-1 .448-1 1s.448 1 1 1zm6-2.053c0 5.118-.988 9.127-1.03 9.295-.09.358-.37.638-.728.728-.168.042-4.167 1.03-8.243 1.03s-8.074-.988-8.243-1.03c-.536-.134-.861-.677-.728-1.212s.675-.862 1.212-.728c.039.01 3.935.97 7.758.97 2.946 0 5.924-.567 7.162-.834.265-1.272.838-4.452.838-8.166 0-1.044-.073-2.044-.188-3.047-.376.018-.761.048-1.119.048-2.216 0-3.987-.306-4.081-.322-.399-.07-.716-.374-.803-.77-.016-.072-.361-1.723-.294-4.849-.466-.038-.971-.06-1.514-.06-2.947 0-5.925.568-7.162.834-.022.107-.047.227-.073.359-.107.542-.635.896-1.175.787-.542-.107-.894-.633-.787-1.175.132-.67.227-1.048.227-1.048.089-.358.37-.639.728-.729.168-.042 4.167-1.03 8.243-1.03 1.221 0 2.278.088 3.141.261.185.037.356.126.493.256l5.721 5.442c.16.152.265.353.298.57.233 1.492.347 2.937.347 4.417zm-6.34-5.139c.642.08 1.669.178 2.834.189l-2.99-2.844c.011 1.211.088 2.104.156 2.655zm-12.935 11.216c-.517-.058-.718-.918-.718-2.157 0-.112.002-.613.005-1.218-1.336-.546-2.005-1.744-2.005-3.648 0-2.691 1.309-4 4-4s4 1.309 4 4c0 1.904-.669 3.102-2.005 3.648.003.606.005 1.107.005 1.218 0 1.229-.187 2.099-.718 2.157-.563.062-1.282-1.024-1.282-1.024s-.719 1.087-1.282 1.024zm-.717-7.024c0 1.589.411 2 2 2s2-.411 2-2-.411-2-2-2-2 .411-2 2z"/></svg>