<svg id="Layer_1" viewBox="0 0 24 24" xmlns="http://www.w3.org/2000/svg" data-name="Layer 1"><path d="m12 12c0 .553-.447 1-1 1h-5c-.553 0-1-.447-1-1s.447-1 1-1h5c.553 0 1 .447 1 1zm8.812 4.795c.008.037.188.914.188 2.07 0 .451 0 1.826-1.087 2.599-1.361 1.055-3.788 1.536-7.836 1.536-2.692 0-6.203-.361-8.33-1.162-1.141-.309-1.804-1.465-2.017-2.371-.443-1.555-.73-4.485-.73-7.467 0-5.064.988-9.074 1.03-9.242.088-.352.358-.628.708-.723.156-.043 3.864-1.035 7.646-1.035.602 0 1.202.023 1.79.062.551.037.968.515.931 1.065s-.496.958-1.065.931c-.543-.037-1.099-.059-1.655-.059-2.673 0-5.387.555-6.544.823-.264 1.265-.841 4.452-.841 8.177 0 3.196.328 5.777.654 6.918.348 1.065.859 1.082 1.32 1.082.666 0 1-.121 1-1 0-.573-.126-1.401-.18-1.755-.132-.697.549-1.391 1.24-1.222 1.702.195 4.034.463 6.445.477.785.005 1.548-.023 2.272-.066-.12-1.13-.208-2.255-.238-3.354-.015-.553.421-1.012.973-1.027.547.002 1.013.42 1.027.973.029 1.061.115 2.149.231 3.242.789-.086 1.457-.18 1.932-.254.53-.078 1.025.263 1.134.783zm-1.812 2.07c0-.266-.012-.513-.028-.731-1.378.181-3.358.358-5.503.366-2.017-.012-3.953-.189-5.542-.363.028.293.048.591.048.863 0 .677-.116 1.24-.349 1.688 1.472.206 3.082.312 4.451.312 3.479 0 5.651-.374 6.645-1.143.235-.168.278-.63.278-.992zm3.685-13.222c-.563.5-1.105.982-1.65 1.446.238.829.437 1.658.594 2.485.066.345-.066.699-.343.916-.279.217-.654.26-.972.111-.847-.392-1.607-.8-2.314-1.231-.708.43-1.468.839-2.314 1.231-.318.149-.692.106-.972-.111-.277-.217-.409-.57-.343-.916.157-.827.356-1.656.594-2.485-.546-.464-1.088-.946-1.65-1.446-.275-.244-.382-.626-.273-.977s.411-.607.776-.653c.848-.109 1.603-.19 2.311-.243.312-.754.658-1.506 1.034-2.254.152-.299.451-.517.782-.517.372-.033.724.175.893.517.376.748.721 1.5 1.034 2.254.708.052 1.462.134 2.311.243.365.046.668.302.776.653.109.351.001.733-.273.977zm-3.131.102c-.702-.111-1.297-.595-1.554-1.266-.256.67-.851 1.154-1.554 1.266.482.527.643 1.284.419 1.973.683-.463 1.585-.463 2.268 0-.193-.671-.042-1.465.419-1.973zm-8.554 1.255h-5c-.553 0-1 .447-1 1s.447 1 1 1h5c.553 0 1-.447 1-1s-.447-1-1-1z"/></svg>