<svg id="Layer_1" viewBox="0 0 24 24" xmlns="http://www.w3.org/2000/svg" data-name="Layer 1"><path d="m14.979 14.332c.054.175 0 .367-.137.489-.281.25-.552.491-.825.723.119.414.218.829.297 1.242.033.173-.033.349-.171.458-.139.108-.326.13-.486.056-.423-.196-.803-.4-1.157-.615-.354.215-.734.419-1.157.615-.16.075-.347.053-.486-.056-.138-.108-.204-.285-.171-.458.079-.414.178-.828.297-1.242-.273-.232-.544-.473-.825-.723-.137-.122-.191-.313-.137-.489s.206-.303.388-.327c.424-.055.801-.095 1.155-.121.156-.377.329-.753.517-1.127.08-.158.242-.27.419-.257.177-.013.339.099.419.257.188.374.361.75.517 1.127.354.026.731.067 1.155.121.182.023.334.151.388.327zm-5.888-.326c-.424-.055-.801-.095-1.155-.121-.156-.377-.329-.753-.517-1.127-.08-.158-.242-.27-.419-.257-.177-.013-.339.099-.419.257-.188.374-.361.75-.517 1.127-.354.026-.731.067-1.155.121-.182.023-.334.151-.388.327s0 .367.137.489c.281.25.552.491.825.723-.119.414-.218.829-.297 1.242-.033.173.033.349.171.458.139.108.326.13.486.056.423-.196.803-.4 1.157-.615.354.215.734.419 1.157.615.16.075.347.053.486-.056.138-.108.204-.285.171-.458-.079-.414-.178-.828-.297-1.242.273-.232.544-.473.825-.723.137-.122.191-.313.137-.489s-.206-.303-.388-.327zm11-.016c-.424-.055-.801-.095-1.155-.121-.156-.377-.329-.753-.517-1.127-.08-.158-.242-.27-.419-.257-.177-.013-.339.099-.419.257-.188.374-.361.75-.517 1.127-.354.026-.731.067-1.155.121-.182.023-.334.151-.388.326s0 .367.137.489c.281.25.552.491.825.723-.119.414-.218.829-.297 1.242-.033.173.033.349.171.458.139.108.326.13.486.056.423-.196.803-.4 1.157-.615.354.215.734.419 1.157.615.16.075.347.053.486-.056.138-.108.204-.285.171-.458-.079-.413-.178-.828-.297-1.242.273-.232.544-.473.825-.723.137-.122.191-.313.137-.489-.054-.175-.206-.303-.388-.326zm-14.091-8.99c-.552 0-1 .448-1 1s.448 1 1 1h6c.552 0 1-.448 1-1s-.448-1-1-1zm9 0c-.552 0-1 .448-1 1s.448 1 1 1h2c.552 0 1-.448 1-1s-.448-1-1-1zm8 10c0 2.577-.721 4.625-.914 4.943-.156.258-.42.431-.719.472-.607.085-2.701.357-5.531.499-.739.586-2.556 2.083-3.328 2.086-.772-.002-2.589-1.5-3.326-2.085-2.818-.141-4.901-.414-5.489-.496-.297-.042-.585-.219-.741-.476-.202-.332-.953-2.413-.953-4.943s.751-4.611.953-4.943c.156-.257.418-.43.716-.472.698-.099 4.371-.585 8.832-.585 4.582 0 8.442.525 8.867.584.297.042.563.215.719.472.193.319.914 2.366.914 4.943zm-2 0c0-1.577-.31-2.855-.508-3.513-1.294-.158-4.411-.487-7.992-.487s-6.693.332-7.969.489c-.193.622-.531 1.92-.531 3.511 0 1.571.33 2.857.538 3.513.971.121 2.788.317 5.071.42.222.01.434.094.603.237.955.812 1.836 1.426 2.297 1.713.461-.287 1.342-.9 2.298-1.714.169-.144.381-.228.603-.237 2.299-.104 4.129-.301 5.088-.419.183-.619.501-1.912.501-3.513zm-18-8c0-1.591.338-2.89.531-3.511 1.275-.157 4.393-.489 7.969-.489s6.698.329 7.992.487c.199.657.508 1.936.508 3.513 0 .552.448 1 1 1s1-.448 1-1c0-2.578-.721-4.625-.914-4.943-.156-.257-.421-.43-.719-.472-.425-.06-4.285-.584-8.867-.584-4.46 0-8.133.486-8.832.585-.297.042-.56.215-.716.472-.202.333-.953 2.414-.953 4.943 0 .552.448 1 1 1s1-.448 1-1z"/></svg>