<svg id="Layer_1" viewBox="0 0 24 24" xmlns="http://www.w3.org/2000/svg" data-name="Layer 1"><path d="m22 19.533c0 .762-.029 1.915-.083 2.551-.044.521-.48.916-.995.916-.582.002-1.049-.504-.997-1.084.034-.415.06-1.121.069-1.756-1.863-.855-3.87-1.402-6.111-1.667-.504-.06-.883-.486-.883-.993v-4.27c0-1.147-.378-1.23-1-1.23s-1 .083-1 1.23l-.004 7.574c0 .442-.292.832-.716.958-.424.121-.881-.043-1.122-.413-.861-1.322-1.776-2.147-1.785-2.155-.251-.218-.59-.256-.896-.099-.285.149-.48.442-.472.692.099.245.374.907.793 1.751.246.494.044 1.095-.45 1.341-.496.246-1.095.044-1.341-.45-.665-1.378-.866-1.866-.959-2.199-.218-1.136.4-2.331 1.503-2.907 1.031-.537 2.263-.392 3.141.368.017.015.128.114.305.291l.002-4.754c0-2.052 1.094-3.229 3-3.229s3 1.177 3 3.23v3.396c2.327.359 4.491 1.034 6.447 2.012.339.169.553.516.553.895zm-7.521-13.201c-.054-.175-.206-.303-.388-.327-.424-.055-.801-.095-1.155-.121-.156-.377-.329-.753-.517-1.127-.08-.158-.242-.27-.419-.257-.177-.013-.339.099-.419.257-.188.374-.361.75-.517 1.127-.354.026-.731.067-1.155.121-.182.023-.334.151-.388.327s0 .367.137.489c.281.25.552.491.825.723-.119.414-.218.829-.297 1.242-.033.173.033.349.171.458.139.108.326.13.486.056.423-.196.803-.4 1.157-.615.354.215.734.419 1.157.615.16.075.347.053.486-.056.138-.108.204-.285.171-.458-.079-.414-.178-.828-.297-1.242.273-.232.544-.473.825-.723.137-.122.191-.313.137-.489zm-9.622 2.912c.139.108.326.13.486.056.423-.196.803-.4 1.157-.615.354.215.734.419 1.157.615.16.075.347.053.486-.056.138-.108.204-.285.171-.458-.079-.414-.178-.828-.297-1.242.273-.232.544-.473.825-.723.137-.122.191-.313.137-.489s-.206-.303-.388-.327c-.424-.055-.801-.095-1.155-.121-.156-.377-.329-.753-.517-1.127-.08-.158-.242-.27-.419-.257-.177-.013-.339.099-.419.257-.188.374-.361.75-.517 1.127-.354.026-.731.067-1.155.121-.182.023-.334.151-.388.327s0 .367.137.489c.281.25.552.491.825.723-.119.414-.218.829-.297 1.242-.033.173.033.349.171.458zm15.122-2.928c-.054-.175-.206-.303-.388-.326-.424-.055-.801-.095-1.155-.121-.156-.377-.329-.753-.517-1.127-.08-.158-.242-.27-.419-.257-.177-.013-.339.099-.419.257-.188.374-.361.75-.517 1.127-.354.026-.731.067-1.155.121-.182.023-.334.151-.388.326s0 .367.137.489c.281.25.552.491.825.723-.119.414-.218.829-.297 1.242-.033.173.033.349.171.458.139.108.326.13.486.056.423-.196.803-.4 1.157-.615.354.215.734.419 1.157.615.16.075.347.053.486-.056.138-.108.204-.285.171-.458-.079-.413-.178-.828-.297-1.242.273-.232.544-.473.825-.723.137-.122.191-.313.137-.489zm2.183-4.06c-.132-.293-.396-.505-.711-.569-.137-.028-3.419-.687-9.451-.687s-9.314.659-9.451.687c-.315.064-.58.276-.711.569-.034.076-.838 1.896-.838 4.744s.804 4.668.838 4.744c.132.293.396.505.711.569.048.01 1.197.243 3.362.435.542.051 1.037-.356 1.084-.908.049-.55-.357-1.036-.908-1.084-1.206-.107-2.081-.228-2.595-.309-.197-.628-.493-1.842-.493-3.447s.296-2.82.493-3.447c1.144-.179 4.068-.553 8.507-.553s7.363.374 8.507.553c.197.628.493 1.842.493 3.447s-.297 2.82-.493 3.447c-.515.081-1.389.202-2.596.309-.55.049-.956.535-.907 1.084.049.55.525.956 1.085.908 2.164-.192 3.314-.425 3.362-.435.314-.064.579-.276.711-.569.034-.076.838-1.896.838-4.744s-.804-4.668-.838-4.744z"/></svg>