<svg id="Layer_1" viewBox="0 0 24 24" xmlns="http://www.w3.org/2000/svg" data-name="Layer 1"><path d="m8.857 4.115c-.184-.164-.256-.42-.183-.656.073-.235.276-.407.521-.438.569-.073 1.075-.128 1.55-.163.21-.506.441-1.011.694-1.512.107-.212.325-.363.562-.345.237-.017.454.133.562.345.252.502.484 1.006.694 1.512.475.035.981.09 1.55.163.245.031.448.203.521.438s0 .492-.183.656c-.378.335-.741.659-1.107.97.16.556.293 1.112.399 1.667.044.232-.044.469-.23.614-.187.145-.437.175-.652.075-.568-.263-1.078-.537-1.553-.826-.475.289-.985.563-1.553.826-.215.1-.465.071-.652-.075-.186-.145-.274-.382-.23-.614.106-.555.239-1.111.399-1.667-.366-.311-.73-.635-1.107-.97zm-2.152 6.252c.186-.145.274-.382.23-.614-.106-.555-.239-1.111-.399-1.667.366-.311.73-.635 1.107-.97.184-.164.256-.42.183-.656-.073-.235-.276-.407-.521-.438-.569-.073-1.075-.128-1.55-.163-.21-.506-.441-1.011-.694-1.512-.107-.212-.325-.363-.562-.345-.237-.017-.454.133-.562.345-.252.502-.484 1.006-.694 1.512-.475.035-.981.09-1.55.163-.245.031-.448.203-.521.438s0 .492.183.656c.378.335.741.659 1.107.97-.16.556-.293 1.112-.399 1.667-.044.232.044.469.23.614.187.145.437.175.652.075.568-.263 1.078-.537 1.553-.826.475.289.985.563 1.553.826.215.1.465.071.652-.075zm16.121-3.907c-.073-.235-.276-.407-.521-.438-.569-.073-1.075-.128-1.55-.163-.21-.506-.441-1.011-.694-1.512-.107-.212-.325-.363-.562-.345-.237-.017-.454.133-.562.345-.252.502-.484 1.006-.694 1.512-.475.035-.981.09-1.55.163-.245.031-.448.203-.521.438s0 .492.183.656c.378.335.741.659 1.107.97-.16.556-.293 1.112-.399 1.667-.044.232.044.469.23.614.187.145.437.175.652.075.568-.263 1.078-.537 1.553-.826.475.289.985.563 1.553.826.215.1.465.071.652-.075.186-.145.274-.382.23-.614-.106-.555-.239-1.111-.399-1.667.366-.311.73-.635 1.107-.97.184-.164.256-.42.183-.656zm-3.84 7.417c.014.65.031 1.459-.023 2.238-.084 1.716-.446 4.241-1.689 6.396-.175.303-.507.49-.857.49-2.821 0-6.005-.691-7.879-1.696-.519-.021-1.725-.093-2.747-.326-.46-.105-.79-.506-.79-.978v-5.708c0-.487.35-.908.83-.986 1.161-.187 2.342-.274 2.714-.297.817-2.304 2.259-3.704 2.259-3.704.435-.363 1.072-.416 1.569-.088.479.316.718.876.597 1.453 0 0-.135.588-.475 1.391.486-.041.988-.062 1.506-.062.764 0 3.334.031 4.347.436.376.15.624.512.629.917l.01.522zm-1.995.288c-.759-.104-1.979-.164-2.991-.164-1.984-.018-3.588.357-5 .943v4.395c1.534.743 3.847 1.566 6.817 1.652.823-1.694 1.081-3.62 1.148-4.994.043-.62.037-1.253.025-1.831z"/></svg>