<svg id="Layer_1" viewBox="0 0 24 24" xmlns="http://www.w3.org/2000/svg" data-name="Layer 1"><path d="m9.102 20.843c-1.839-.188-3.438-.499-4.263-.677-.266-1.272-.839-4.452-.839-8.166s.573-6.894.839-8.166c1.237-.267 4.215-.834 7.161-.834.543 0 1.049.022 1.515.06-.068 3.126.277 4.776.293 4.848.087.396.404.7.804.77.094.017 1.865.322 4.081.322.363 0 .752-.029 1.134-.048.009.605.494 1.119 1.12 1.042.55-.059.946-.552.888-1.101-.054-.5-.117-.956-.181-1.364-.034-.218-.14-.418-.299-.57l-5.721-5.442c-.137-.13-.308-.219-.492-.256-.863-.173-1.92-.261-3.142-.261-4.076 0-8.074.988-8.242 1.03-.358.09-.639.37-.728.728-.042.168-1.03 4.178-1.03 9.243s.988 9.074 1.03 9.243c.089.358.369.638.728.728-.005.003 2.553.626 5.243.867.507 0 .941-.384.994-.899.056-.549-.345-1.04-.894-1.096zm9.389-13.847c-1.164-.011-2.191-.108-2.832-.188-.068-.551-.144-1.444-.156-2.654zm-1.491 4.004c-4.149 0-6 1.851-6 6s1.851 6 6 6 6-1.851 6-6-1.851-6-6-6zm0 10c-3.028 0-4-.972-4-4s.972-4 4-4 4 .972 4 4-.972 4-4 4zm1-3v1c0 .552-.447 1-1 1s-1-.448-1-1v-1c0-.552.447-1 1-1s1 .448 1 1zm0-3c0 .552-.448 1-1 1s-1-.448-1-1 .448-1 1-1 1 .448 1 1z"/></svg>