<svg id="Layer_1" viewBox="0 0 24 24" xmlns="http://www.w3.org/2000/svg" data-name="Layer 1"><path d="m7.996 14.975v2h6c.553 0 1 .447 1 1s-.447 1-1 1h-7c-.552 0-1-.447-1-1v-4c0-.553.448-1 1-1h7c.553 0 1 .447 1 1s-.447 1-1 1zm-1-4h3c.552 0 1-.447 1-1s-.448-1-1-1h-3c-.552 0-1 .447-1 1s.448 1 1 1zm0-3h3c.552 0 1-.447 1-1s-.448-1-1-1h-3c-.552 0-1 .447-1 1s.448 1 1 1zm8.995 13.736c.056.549-.344 1.04-.894 1.097-1.086.11-2.129.167-3.102.167-4.076 0-8.074-.988-8.243-1.03-.358-.089-.638-.369-.728-.728-.042-.168-1.03-4.178-1.03-9.242s.99-9.075 1.032-9.243c.09-.358.37-.639.728-.728.168-.042 4.167-1.03 8.243-1.03 1.223 0 2.279.088 3.142.262.185.037.355.126.492.256l5.721 5.442c.254.217.312.584.349.897.097.584-.399 1.157-.991 1.143l-1.713-.002c-2.357.021-4.306-.304-4.388-.318-.399-.07-.717-.375-.804-.771-.016-.072-.367-1.711-.298-4.853-.464-.037-.971-.057-1.51-.057-2.946 0-5.924.567-7.162.835-.265 1.271-.838 4.451-.838 8.165s.573 6.894.838 8.165c1.239.267 4.222.835 7.162.835.905 0 1.88-.053 2.898-.157.54-.051 1.04.344 1.097.894zm-.493-17.583c.012 1.214.089 2.104.157 2.656.643.079 1.669.179 2.835.189l-2.992-2.846zm7.498 14.72c0-1.725-1.402-3.127-3.171-3.127h-.002l-.047.002c-.44-.048-.78-.422-.78-.871 0-.483.394-.877.877-.877.371 0 .703.235.827.585.184.521.753.795 1.275.609.521-.184.794-.755.609-1.275-.29-.82-.932-1.442-1.717-1.733v-.186c0-.553-.447-1-1-1s-1 .447-1 1v.191c-1.09.41-1.872 1.455-1.872 2.686 0 1.52 1.188 2.781 2.704 2.871.033 0 .069.003.104 0l.063-.004c.622 0 1.128.506 1.128 1.128s-.5 1.127-1.115 1.127c-.531 0-1.057-.356-1.222-.83-.183-.521-.75-.794-1.274-.614-.521.183-.796.753-.614 1.274.349.998 1.208 1.754 2.226 2.04v.13c0 .553.447 1 1 1s1-.447 1-1v-.216c1.167-.452 2-1.582 2-2.911z"/></svg>