<svg id="Layer_1" viewBox="0 0 24 24" xmlns="http://www.w3.org/2000/svg" data-name="Layer 1"><path d="m6.751 16c0 1.77.525 1.77.989 1.77.47 0 .627-.146.728-.305.187-.293.576-.384.871-.193.294.187.381.577.194.871-.375.59-.978.889-1.792.889-2.25 0-2.25-2.281-2.25-3.031s0-3.031 2.25-3.031c.814 0 1.417.299 1.792.889.187.294.101.685-.194.871-.292.189-.684.1-.871-.193-.101-.158-.258-.305-.728-.305-.463 0-.989 0-.989 1.77zm5.301-.831c-.259 0-.469-.21-.469-.469s.21-.47.469-.47c.187 0 .355.11.43.281.14.318.511.468.831.326.32-.139.466-.511.327-.83-.275-.632-.898-1.039-1.587-1.039-.955 0-1.731.776-1.731 1.731s.776 1.73 1.731 1.73c.369 0 .669.3.669.669s-.3.67-.669.67c-.283 0-.537-.18-.631-.447-.116-.329-.478-.499-.805-.384-.329.116-.5.477-.384.806.272.77 1.004 1.287 1.821 1.287 1.064 0 1.931-.866 1.931-1.932s-.866-1.931-1.931-1.931zm5.981-2.204c-.357-.018-.646.249-.663.597-.073 1.401-.468 2.615-.811 3.428-.342-.81-.735-2.02-.809-3.428-.018-.348-.309-.601-.663-.597-.348.019-.616.315-.598.664.151 2.893 1.481 5.017 1.538 5.105.116.183.317.293.533.293s.417-.11.533-.293c.057-.089 1.386-2.213 1.538-5.105.018-.349-.25-.645-.598-.664zm3.967-.965c0 5.064-.988 9.074-1.03 9.242-.09.358-.37.639-.728.728-.168.042-4.167 1.03-8.243 1.03s-8.074-.988-8.243-1.03c-.358-.089-.638-.369-.728-.728-.042-.168-1.03-4.178-1.03-9.242s.99-9.074 1.032-9.243c.09-.358.37-.638.728-.728.168-.042 4.167-1.03 8.243-1.03 1.221 0 2.278.088 3.141.261.185.037.356.126.493.256l5.721 5.442c.16.152.265.353.298.57.233 1.492.347 2.989.347 4.47zm-6.497-7.847c.011 1.211.088 2.104.156 2.655.642.079 1.669.177 2.833.189zm4.497 7.847c0-1.005-.073-2.048-.188-3.047-.377.018-.761.048-1.12.048-2.216 0-3.987-.306-4.081-.322-.399-.07-.716-.374-.803-.77-.016-.072-.361-1.723-.294-4.849-.466-.038-.971-.06-1.514-.06-2.946 0-5.924.567-7.162.834-.265 1.272-.838 4.452-.838 8.166s.573 6.894.838 8.165c1.239.267 4.222.835 7.162.835s5.924-.567 7.162-.835c.265-1.271.838-4.451.838-8.165z"/></svg>