<svg id="Layer_1" viewBox="0 0 24 24" xmlns="http://www.w3.org/2000/svg" data-name="Layer 1"><path d="m21.653 7.53c-.034-.218-.139-.418-.298-.57l-5.721-5.442c-.137-.13-.307-.219-.492-.256-.862-.174-1.919-.262-3.142-.262-4.076 0-8.074.988-8.243 1.03-.358.089-.638.369-.728.728-.042.168-1.03 4.178-1.03 9.242s.988 9.074 1.03 9.242c.09.358.37.639.728.728.168.042 4.167 1.03 8.243 1.03s8.074-.988 8.243-1.03c.358-.089.638-.369.728-.728.042-.168 1.03-4.178 1.03-9.242 0-1.863-.188-3.459-.347-4.47zm-3.161-.534c-1.164-.011-2.191-.109-2.833-.189-.068-.551-.145-1.444-.156-2.654zm-6.492 14.003c-2.94 0-5.922-.568-7.162-.835-.265-1.271-.838-4.451-.838-8.165s.573-6.894.838-8.165c1.238-.268 4.215-.835 7.162-.835.543 0 1.048.022 1.514.06-.067 3.125.278 4.777.294 4.849.087.396.405.699.804.77.094.016 1.864.321 4.079.321.364 0 .754-.029 1.136-.048.095.847.173 1.892.173 3.048 0 3.714-.573 6.894-.838 8.165-1.238.268-4.215.835-7.162.835zm-5-14.999v-1c0-.553.448-1 1-1s1 .447 1 1v1c0 .553-.448 1-1 1s-1-.447-1-1zm0 4v-1c0-.553.448-1 1-1s1 .447 1 1v1c0 .553-.448 1-1 1s-1-.447-1-1zm3 6c0 1.429-.571 2-2 2s-2-.571-2-2 1-4 2-4 2 2.571 2 4z"/></svg>