<svg id="Layer_1" viewBox="0 0 24 24" xmlns="http://www.w3.org/2000/svg" data-name="Layer 1"><path d="m15.998 21.873c.035.552-.384 1.026-.935 1.062-.653.041-1.345.065-2.075.065-4.93 0-8.261-1.126-9.164-1.471-.297-.113-.522-.361-.607-.667-.365-1.32-1.217-5.021-1.217-10.862 0-1.389.049-2.759.146-4.073.041-.551.523-.971 1.07-.924.551.04.965.52.924 1.07-.093 1.267-.141 2.587-.141 3.927 0 4.972.632 8.282 1.014 9.829 1.163.385 4.023 1.171 7.975 1.171.686 0 1.336-.022 1.948-.062.545-.024 1.026.384 1.062.935zm6.002-11.873c0 4.885-.757 7.565-.789 7.678-.098.337-.364.599-.703.688-.098.026-2.424.634-6.508.634-3.944 0-6.392-.604-6.494-.63-.345-.087-.618-.351-.717-.692-.032-.112-.789-2.793-.789-7.678s.757-7.565.789-7.678c.099-.342.372-.605.717-.692.103-.025 2.55-.63 6.494-.63.966 0 1.805.072 2.492.214.188.039.36.131.497.265l4.45 4.354c.176.156.318.715.349 1.087.132 1.023.212 2.056.212 3.081zm-4.989-5.703c.017.664.056 1.201.096 1.57.415.048.986.098 1.632.121l-1.728-1.69zm2.989 5.703c0-.673-.043-1.349-.105-2.023-.18.005-.369.023-.543.023-1.791 0-3.223-.247-3.298-.26-.399-.07-.717-.375-.804-.771-.013-.059-.294-1.404-.239-3.935-.315-.022-.652-.035-1.012-.035-2.6 0-4.516.282-5.423.449-.206.989-.577 3.231-.577 6.551s.371 5.562.577 6.551c.907.167 2.823.449 5.423.449 2.671 0 4.54-.277 5.422-.444.205-.986.578-3.231.578-6.556zm-4 1h-1v-1c0-.553-.447-1-1-1s-1 .447-1 1v1h-1c-.553 0-1 .447-1 1s.447 1 1 1h1v1c0 .553.447 1 1 1s1-.447 1-1v-1h1c.553 0 1-.447 1-1s-.447-1-1-1z"/></svg>