<svg id="Layer_1" viewBox="0 0 24 24" xmlns="http://www.w3.org/2000/svg" data-name="Layer 1"><path d="m21.618 7c-.04-.226-.155-.431-.328-.582l-5.646-4.928c-.131-.114-.29-.192-.459-.227-.876-.177-1.878-.263-3.064-.263-4.387 0-8.113.774-8.269.807-.372.078-.667.36-.762.727-.044.171-1.09 4.258-1.09 9.466 0 5.265 1.053 8.952 1.098 9.106.093.321.341.574.66.675.158.05 3.917 1.219 8.362 1.219s8.203-1.169 8.361-1.219c.341-.107.599-.388.676-.737.035-.155.843-3.854.843-9.044 0-1.811-.136-3.586-.382-5zm-2.725-.02c-1.434.036-2.742-.079-3.509-.167-.076-.605-.162-1.617-.144-3.021zm.424 13.051c-1.175.311-4.037.968-7.197.968-3.202 0-6.087-.672-7.236-.978-.276-1.163-.884-4.154-.884-8.022 0-3.809.604-7.05.885-8.352 1.218-.214 4.078-.648 7.234-.648.405 0 .783.011 1.138.033-.112 3.168.266 4.826.283 4.901.092.393.412.692.81.758.097.016 1.819.296 3.974.296.493 0 1.009-.015 1.533-.051.079.809.142 1.838.142 3.062 0 3.803-.464 6.818-.683 8.032z"/><path d="m15.444 10.102h-.002c-.552 0-.999.45-.998 1.002 0 .02 0 2.044-.358 3.601-.141.615-.311 1.131-.485 1.559l-.631-2.507c-.112-.444-.511-.756-.97-.756s-.858.312-.97.756l-.631 2.507c-.174-.427-.344-.943-.485-1.559-.356-1.55-.358-3.581-.358-3.601 0-.552-.446-1-.999-1.001h-.001c-.551 0-.999.447-1 .998 0 .092 0 2.276.409 4.052.704 3.068 2.052 4.25 2.203 4.375.265.218.623.285.948.178.326-.107.574-.374.657-.706l.227-.9.227.9c.083.333.412.756.97.756.229 0 .454-.079.636-.228.151-.125 1.499-1.307 2.203-4.375.408-1.777.409-3.96.409-4.053 0-.552-.449-.998-1-.998z"/></svg>