<svg id="Layer_1" viewBox="0 0 24 24" xmlns="http://www.w3.org/2000/svg" data-name="Layer 1"><path d="m16.996 12.975h-10c-.552 0-1 .447-1 1v4c0 .553.448 1 1 1h10c.552 0 1-.447 1-1v-4c0-.553-.448-1-1-1zm-1 4h-8v-2h8zm-10-7c0-.553.448-1 1-1h3c.552 0 1 .447 1 1s-.448 1-1 1h-3c-.552 0-1-.447-1-1zm0-3c0-.553.448-1 1-1h3c.552 0 1 .447 1 1s-.448 1-1 1h-3c-.552 0-1-.447-1-1zm15.653.53c-.034-.218-.139-.418-.298-.57l-5.721-5.443c-.137-.13-.307-.219-.492-.256-.862-.174-1.919-.262-3.142-.262-4.076.001-8.074.989-8.243 1.031-.358.089-.638.369-.728.728-.042.168-1.03 4.178-1.03 9.242s.988 9.074 1.03 9.242c.09.358.37.639.728.728.168.042 4.167 1.03 8.243 1.03s8.074-.988 8.243-1.03c.358-.089.638-.369.728-.728.042-.168 1.03-4.178 1.03-9.242v-.052c0-1.48-.113-2.926-.347-4.418zm-3.161-.532c-1.164-.011-2.192-.109-2.833-.189-.068-.551-.145-1.444-.156-2.655l2.99 2.845zm-6.493 14.002c-2.94 0-5.922-.568-7.162-.835-.265-1.271-.838-4.451-.838-8.165s.573-6.894.838-8.165c1.238-.268 4.215-.835 7.162-.835.543 0 1.048.022 1.514.06-.067 3.126.278 4.778.294 4.85.087.396.405.699.804.77.094.016 1.864.321 4.079.321.359 0 .744-.029 1.121-.048.115 1 .188 1.991.188 2.995v.052c0 3.714-.573 6.894-.838 8.165-1.238.268-4.215.835-7.162.835z"/></svg>