<svg id="Layer_1" viewBox="0 0 24 24" xmlns="http://www.w3.org/2000/svg" data-name="Layer 1"><path d="m15.8 13.399c.332.442.242 1.069-.2 1.4-.437.329-1.067.245-1.4-.199-.368-.49-.774-.946-1.2-1.382v4.782c0 .553-.448 1-1 1s-1-.447-1-1v-4.782c-.426.436-.833.892-1.2 1.382-.33.441-.957.53-1.4.199-.442-.331-.531-.958-.2-1.4.912-1.215 1.988-2.291 3.2-3.199.362-.254.838-.254 1.199 0 1.212.908 2.289 1.984 3.2 3.199zm6.2-1.399c0 5.064-.988 9.074-1.03 9.242-.09.358-.37.639-.728.728-.168.042-4.167 1.03-8.243 1.03s-8.074-.988-8.243-1.03c-.358-.089-.638-.369-.728-.728-.042-.168-1.03-4.178-1.03-9.242s.99-9.074 1.032-9.242c.09-.358.37-.639.728-.728.168-.042 4.167-1.03 8.243-1.03 1.222 0 2.279.088 3.142.262.185.037.355.126.492.256l5.721 5.442c.16.152.265.353.298.57.233 1.491.347 2.988.347 4.47zm-6.497-7.847c.011 1.211.088 2.103.156 2.654.641.08 1.668.178 2.832.189zm4.497 7.847c0-1.005-.073-2.048-.188-3.048-.377.018-.762.048-1.121.048-2.215 0-3.985-.306-4.079-.321-.399-.07-.716-.374-.804-.77-.016-.073-.361-1.724-.294-4.849-.466-.038-.971-.06-1.514-.06-2.946 0-5.924.567-7.162.835-.265 1.271-.838 4.451-.838 8.165s.573 6.894.838 8.165c1.239.267 4.222.835 7.162.835s5.924-.567 7.162-.835c.265-1.271.838-4.451.838-8.165z"/></svg>