<svg id="Layer_1" viewBox="0 0 24 24" xmlns="http://www.w3.org/2000/svg" data-name="Layer 1"><path d="m22.242 2.63c-.087-.312-.319-.563-.623-.673-.108-.039-2.7-.957-7.619-.957s-7.478.92-7.584.959c-.297.109-.525.354-.614.658-.032.112-.802 2.793-.802 7.383s.728 7.258.758 7.37c.087.312.319.563.623.673.108.039 2.7.957 7.619.957s7.478-.92 7.584-.959c.297-.109.525-.354.614-.658.032-.112.802-2.793.802-7.383s-.728-7.258-.758-7.37zm-1.256 6.37h-1.986v-2h1.882c.048.603.085 1.271.103 2zm-1.986 2h1.985c-.019.729-.058 1.397-.109 2h-1.876zm1.66-6h-1.66v-1.61c.627.107 1.113.217 1.436.302.063.306.144.754.225 1.309zm-11.66 4h-1.985c.019-.729.058-1.397.109-2h1.876zm-1.986 2h1.986v2h-1.882c-.048-.603-.085-1.271-.103-2zm1.986-7.607v1.607h-1.641c.086-.556.172-1.004.238-1.309.315-.083.79-.192 1.402-.298zm-1.66 11.607h1.66v1.61c-.627-.107-1.113-.217-1.436-.302-.063-.306-.144-.754-.225-1.309zm3.66 1.866v-13.732c.863-.079 1.857-.134 3-.134s2.135.055 3 .134v13.732c-.863.079-1.857.134-3 .134s-2.135-.055-3-.134zm8-.259v-1.607h1.641c-.086.556-.172 1.004-.238 1.309-.315.083-.79.192-1.402.298zm-.003 5.168c.042.551-.37 1.031-.921 1.074-1.302.1-2.674.151-4.076.151-7.292 0-11.1-1.349-11.259-1.406-.304-.11-.536-.361-.623-.673-.046-.165-1.118-4.113-1.118-10.921 0-.552.447-1 1-1s1 .448 1 1c0 5.134.645 8.609.922 9.866 1.215.34 4.633 1.134 10.078 1.134 1.352 0 2.672-.049 3.924-.145.546-.043 1.031.371 1.073.92z"/></svg>