<svg id="Layer_1" viewBox="0 0 24 24" xmlns="http://www.w3.org/2000/svg" data-name="Layer 1"><path d="m13.19 14.481c-.596-.36-.859-.44-1.037-.47-.233-.04-.475.004-.678.125-.638.377-1.003.891-1.212 1.411-.346-.073-.717.045-.952.313-.879.988-1.29 2.077-1.29 3.428 0 1.918 1.845 3.644 3.949 3.694h.046c2.125-.048 3.989-1.782 3.989-3.712 0-1.412-.488-3.388-2.815-4.787zm-.129 6.175c.087-.801-1.095-1.679-1.081-1.669.002 0-1.107.825-1.081 1.639-.513-.327-.88-.834-.88-1.34 0-.474.077-.854.197-1.168.291.344.773.468 1.186.284.383-.171.618-.562.591-.979-.047-.487.05-1.029.172-1.232 1.259.759 1.845 1.737 1.845 3.077 0 .529-.398 1.059-.948 1.388zm9.429-13.591c.318-1.285.604-2.646.481-4.027-.039-.434-.355-.793-.78-.886-.211-.047-5.216-1.133-10.197-1.133s-9.986 1.086-10.197 1.133c-.425.094-.741.452-.78.886-.126 1.441.456 2.664.818 3.978-.063.457-.163 1.016-.269 1.618-.259 1.461-.553 3.118-.553 4.363 0 3.094.465 5.972.77 7.527-.349.085-.647.344-.739.717-.134.534.191 1.075.726 1.209.086.022 2.145.529 4.734.529.599.014 1.097-.574.985-1.162-.18-1.086-.485-3.43-.485-5.327 0-1.815.252-3.251.417-3.994.917-.181 2.776-.498 4.574-.498s3.657.317 4.574.498c.165.743.417 2.179.417 3.994 0 1.896-.305 4.241-.485 5.327-.112.588.386 1.176.985 1.162 2.589 0 4.648-.507 4.734-.529.535-.134.86-.675.726-1.209-.093-.373-.392-.631-.739-.716.305-1.555.77-4.433.77-7.528 0-1.735-.294-4.39-.485-5.933zm-10.496-4.049c3.655 0 7.428.635 9.005.934-.026.691-.157 1.358-.318 2.061-1.431-.015-17.069 0-17.069 0-.192-.681-.475-1.422-.573-2.071 1.605-.303 5.339-.924 8.956-.924zm6.345 8.344c-.103-.339-.378-.598-.723-.679-.116-.028-2.874-.677-5.622-.677s-5.506.648-5.622.677c-.345.082-.62.34-.723.679-.026.086-.642 2.134-.642 5.133 0 1.474.171 3.189.336 4.455-.542-.033-1.032-.087-1.463-.145-.247-1.146-.869-4.375-.869-7.804 0-1.069.277-2.634.522-4.015.061-.343.118-.67.169-.976 0 0 15.429-.015 16.897 0 .175 1.507.381 3.608.381 4.991 0 3.429-.622 6.658-.869 7.804-.431.058-.921.112-1.463.145.166-1.266.336-2.981.336-4.455 0-2.999-.616-5.047-.642-5.133z"/></svg>