<svg id="Layer_1" viewBox="0 0 24 24" xmlns="http://www.w3.org/2000/svg" data-name="Layer 1"><path d="m19.176 21.015c-.044-.008-.458-.081-1.176-.169v-5.846h.5c1.071 0 1.5-.429 1.5-1.5s-.429-1.5-1.5-1.5h-.5v-3c0-3.791-1.568-5.645-5-5.939v-1.06c0-.553-.448-1-1-1s-1 .447-1 1v1.06c-3.432.295-5 2.148-5 5.939v3h-.5c-1.071 0-1.5.429-1.5 1.5s.429 1.5 1.5 1.5h.5v5.846c-.717.088-1.132.161-1.176.169-.543.097-.905.616-.809 1.159.097.544.614.909 1.16.81.027-.005 2.776-.484 6.824-.484s6.797.479 6.824.484c.531.099 1.065-.263 1.16-.81.097-.543-.265-1.062-.809-1.159zm-7.176-16.015c2.724 0 3.776.801 3.962 3.163-2.594-.197-5.329-.197-7.923 0 .185-2.363 1.238-3.163 3.962-3.163zm-4 15.649v-10.478c2.611-.208 5.389-.208 8 0v10.478c-1.105-.084-2.457-.15-4-.15s-2.895.066-4 .15zm5.5-7.149c0 1.071-.429 1.5-1.5 1.5s-1.5-.429-1.5-1.5.429-1.5 1.5-1.5 1.5.429 1.5 1.5z"/></svg>