<svg id="Layer_1" viewBox="0 0 24 24" xmlns="http://www.w3.org/2000/svg" data-name="Layer 1"><path d="m19.941 8.187c-.292-2.144-1.761-5.187-5.941-5.187l-5 .003v-1.003c0-.553-.448-1-1-1s-1 .447-1 1v1.036c-1.161.126-3.05.599-4.707 2.257-.391.391-.391 1.023 0 1.414s1.023.391 1.414 0c1.146-1.146 2.428-1.53 3.293-1.655v2.043c-2.578.472-4.68 2.715-4.883 5.408-.074.855-.122.573-.117 1.72 0 4.751.676 7.174.705 7.274.08.279.276.51.539.632.077.035 1.901.871 4.756.871s4.68-.836 4.756-.871c.263-.122.459-.353.539-.632.029-.101.705-2.523.705-7.274.005-1.146-.044-.864-.117-1.72-.202-2.693-2.305-4.936-4.883-5.408v-2.095h5c3.076 0 3.786 2.287 3.949 3.419-.489 1.059-1.949 4.521-1.949 8.119 0 .39.227.744.581.908.802.37 1.61.556 2.418.556s1.617-.186 2.419-.556c.354-.164.581-.519.581-.908 0-3.927-1.742-7.697-2.059-8.351zm-8.052 4.466c.072.973.111.407.111 1.569 0 3.28-.341 5.377-.52 6.254-.612.202-1.842.523-3.48.523s-2.868-.321-3.479-.523c-.083-.405-.2-1.082-.302-2.002.822.244 2.119.526 3.781.526.377 0 .736-.015 1.074-.04.551-.041.964-.521.923-1.071s-.523-.964-1.071-.923c-.292.021-.601.034-.926.034-2.364 0-3.876-.668-3.914-.686-.012-.005-.024-.004-.036-.008-.03-.633-.05-1.323-.05-2.083 0-1.163.04-.596.111-1.569.152-2.015 1.896-3.653 3.889-3.653s3.737 1.639 3.889 3.653zm6.131 3.203c.099-1.719.547-3.396.98-4.662.433 1.267.881 2.942.98 4.661-.656.191-1.305.19-1.96 0z"/></svg>