<svg id="Layer_1" viewBox="0 0 24 24" xmlns="http://www.w3.org/2000/svg" data-name="Layer 1"><path d="m22.707 6.814c-1.39-1.389-2.432-2.062-3.212-2.31-.25-.779-.922-1.82-2.309-3.209-.387-.395-1.092-.37-1.457.045-1.177 1.191-1.729 2.28-1.729 3.422 0 .909.354 1.785 1.09 2.704l-1.158 1.158c-1.541-1.168-3.057-1.401-3.131-1.411-.547-.08-1.045.302-1.125.846s.297 1.051.841 1.134c.012.002.956.164 1.982.865l-1.553 1.553c-2.108-1.713-4.256-2.036-4.357-2.05-.547-.076-1.047.303-1.126.848-.079.544.3 1.051.844 1.132.018.003 1.607.26 3.214 1.495l-1.387 1.387c-1.541-1.168-3.058-1.401-3.132-1.411-.253-.038-.51.027-.718.176-3.875 2.758-3.255 8.633-3.226 8.882.053.463.419.828.882.881.062.007.481.051 1.117.051 1.889 0 5.695-.389 7.758-3.287.148-.209.211-.466.175-.719-.01-.075-.244-1.613-1.437-3.165l1.387-1.387c1.254 1.611 1.515 3.214 1.519 3.245.076.547.594.925 1.128.847.547-.076.928-.582.852-1.129-.014-.102-.341-2.269-2.077-4.385l1.556-1.556c.715 1.027.885 1.983.89 2.014.077.547.594.924 1.128.846.547-.076.928-.582.852-1.129-.01-.075-.245-1.613-1.437-3.164l1.156-1.156c.924.74 1.828 1.125 2.731 1.125 1.143 0 2.285-.592 3.468-1.774.387-.373.387-1.042 0-1.414zm-6.707-2.052c0-.383.167-.803.506-1.271.714.814.956 1.297 1.039 1.526-.005.005-.012.006-.017.011l-1.007 1.007c-.338-.467-.522-.891-.522-1.273zm-12.992 16.236c-.005-1.423.234-4.296 2.095-5.912.528.154 1.512.541 2.392 1.42.88.88 1.266 1.862 1.421 2.39-1.616 1.861-4.466 2.059-5.909 2.103zm14.917-13.538 1.018-1.018s0 0 0-.001c.208.067.7.292 1.571 1.056-.919.673-1.668.653-2.59-.037zm-10.925 10.54c0 .552-.448 1-1 1s-1-.448-1-1 .448-1 1-1 1 .448 1 1z"/></svg>