<svg id="Layer_1" viewBox="0 0 24 24" xmlns="http://www.w3.org/2000/svg" data-name="Layer 1"><path d="m6.75 9.5c-.411 0-.8.091-1.15.253.174-2.989.529-4.468.7-5.028.951-.418 4.146-1.596 10.201-1.715v2.99c0 .552.447 1 1 1s1-.448 1-1v-4c0-.552-.447-1-1-1-8.667 0-12.345 2.045-12.497 2.132-.171.098-.31.244-.398.421-.112.223-1.077 2.366-1.105 9.626-.514.18-.87.437-.928.481-.22.165-.363.414-.394.688-.007.064-.179 1.603-.179 3.652 0 2.067.171 3.59.179 3.654.031.273.174.521.394.686.09.067.909.66 1.928.66s1.837-.592 1.927-.66c.22-.165.363-.414.394-.688.007-.064.179-1.603.179-3.652 0-1.285-.066-2.359-.118-3.003 1.456-.069 2.618-1.274 2.618-2.747 0-1.517-1.233-2.75-2.75-2.75zm0 3.5c-.414 0-.75-.336-.75-.75s.336-.75.75-.75.75.336.75.75-.336.75-.75.75z"/><path d="m22 14.5c0-3.526-2.919-6-4.5-6s-4.5 2.474-4.5 6c0 1.685.878 3.346 1.942 4.493-.896 1.251-.942 2.799-.942 3.007 0 .35.184.674.482.855.299.181.672.194.982.031.469-.245 1.436-.634 2.035-.634s1.566.389 2.035.634c.146.076.306.114.464.114.181 0 .359-.048.519-.145.299-.181.482-.505.482-.855 0-.208-.046-1.757-.942-3.008 1.063-1.146 1.942-2.807 1.942-4.492zm-4.515-4c.479.054 2.515 1.523 2.515 4 0 2.018-1.944 3.889-2.461 4.002-.595-.114-2.539-1.985-2.539-4.002 0-2.478 2.035-3.946 2.485-4z"/></svg>