<svg id="Layer_1" viewBox="0 0 24 24" xmlns="http://www.w3.org/2000/svg" data-name="Layer 1"><path d="m22.684 7.407c-.084-.079-2.083-1.94-4.614-3.458-2.515-1.507-5.582-2.689-5.711-2.739-.23-.089-.486-.089-.717 0-.129.049-3.197 1.232-5.712 2.739-2.531 1.517-4.53 3.379-4.614 3.458-.19.197-.29.458-.316.73v5.006c0 .308.142.599.385.788.083.065 2.083 1.62 4.612 2.884 2.509 1.254 5.569 2.239 5.698 2.28.198.063.412.063.609 0 .129-.042 3.188-1.026 5.698-2.28 2.529-1.265 4.529-2.819 4.612-2.884.243-.189.385-.48.385-.788v-5.006c-.01-.233-.171-.562-.316-.73zm-11.684 9.334c-1.101-.396-2.711-1.016-4.108-1.714-1.725-.862-3.216-1.894-3.892-2.385v-2.355c.794.624 1.803 1.362 2.93 2.038 1.859 1.114 4.017 2.05 5.07 2.482zm1-3.66c-.921-.375-3.21-1.374-5.041-2.472-1.411-.845-2.657-1.821-3.436-2.472.778-.651 2.022-1.625 3.435-2.472 1.882-1.127 4.172-2.093 5.042-2.445.87.353 3.16 1.318 5.041 2.445 1.41.844 2.656 1.82 3.436 2.472-.78.651-2.025 1.627-3.435 2.472-1.829 1.096-4.121 2.097-5.042 2.472zm9-.439c-.676.491-2.167 1.522-3.892 2.385-1.395.698-3.007 1.318-4.108 1.714v-1.934c1.053-.433 3.211-1.368 5.07-2.482 1.127-.676 2.136-1.413 2.93-2.038zm1.818 4.426c.317.452.209 1.076-.243 1.393-.084.059-2.083 1.457-4.609 2.594-2.506 1.127-5.561 2.012-5.689 2.049-.18.052-.373.052-.553 0-.129-.037-3.185-.921-5.689-2.049-2.526-1.137-4.525-2.535-4.609-2.594-.451-.317-.561-.941-.243-1.393.318-.451.941-.56 1.394-.244.019.014 1.934 1.351 4.279 2.406 1.956.88 4.344 1.627 5.146 1.869.802-.242 3.192-.99 5.146-1.869 2.354-1.059 4.261-2.393 4.279-2.406.452-.318 1.074-.208 1.394.243z"/></svg>