<svg id="Layer_1" viewBox="0 0 24 24" xmlns="http://www.w3.org/2000/svg" data-name="Layer 1"><path d="m17 11c-4.149 0-6 1.851-6 6s1.851 6 6 6 6-1.851 6-6-1.851-6-6-6zm0 10c-3.028 0-4-.972-4-4s.972-4 4-4 4 .972 4 4-.972 4-4 4zm2.85-4.45c.2.267.2.633 0 .899-.468.625-1.023 1.181-1.65 1.65-.468.376-1.219-.001-1.2-.6v-.5h-2c-.553 0-1-.448-1-1s.447-1 1-1h2v-.5c-.02-.599.734-.976 1.2-.6.627.469 1.182 1.025 1.65 1.65zm-11.273 2.35c-2.054-.159-3.897-.474-4.827-.649-.243-1.284-.75-4.316-.75-7.25s.507-5.966.75-7.25c.318-.06.745-.137 1.25-.218v3.468c0 .552.447 1 1 1h8c.553 0 1-.448 1-1v-3.065l3.828 3.829c.026.266.051.538.072.814.044.55.518.956 1.076.918.551-.044.961-.525.918-1.076-.033-.417-.071-.824-.113-1.218-.024-.228-.125-.439-.287-.601l-5.096-5.096c-.161-.162-.374-.263-.601-.287-1.358-.145-2.636-.219-3.798-.219-4.061 0-8.142.885-8.313.923-.381.083-.678.381-.762.762-.038.171-.924 4.252-.924 8.314s.886 8.143.924 8.314c.084.381.381.679.762.762.045.013 2.829.611 5.815.82.518 0 .955-.398.996-.923.043-.551-.369-1.032-.92-1.074zm4.423-15.823v2.923h-6v-2.743c1.23-.144 2.623-.257 4-.257.627 0 1.303.031 2 .077zm-3 9.923c0 .288.028.514.083.671.235.634-.272 1.341-.944 1.33-.413 0-.8-.259-.944-.671-.131-.375-.194-.81-.194-1.33 0-1.991 1.01-3 3-3 .553 0 1 .448 1 1s-.447 1-1 1c-.879 0-1 .122-1 1z"/></svg>