<svg id="Layer_1" viewBox="0 0 24 24" xmlns="http://www.w3.org/2000/svg" data-name="Layer 1"><path d="m22.604 5.026c-.031-.213-.13-.411-.283-.563l-2.785-2.785c-.152-.152-.35-.251-.563-.283-1.81-.262-3.483-.396-4.973-.396-3.623 0-7.261.79-7.415.823-.381.083-.679.381-.762.762-.034.153-.823 3.792-.823 7.415s.79 7.261.823 7.415c.083.381.381.679.762.762.153.034 3.792.823 7.415.823s7.261-.79 7.414-.823c.381-.083.679-.381.762-.762.034-.153.824-3.792.824-7.415 0-1.492-.133-3.166-.396-4.974zm-6.128-1.907c-.039.627-.118 1.223-.187 1.651-.619.101-1.594.229-2.539.229s-1.92-.129-2.539-.229c-.067-.417-.143-.996-.183-1.606.941-.096 1.961-.165 2.972-.165.77 0 1.602.043 2.476.119zm3.873 13.231c-1.177.22-3.805.65-6.349.65s-5.172-.431-6.35-.65c-.22-1.177-.65-3.806-.65-6.35s.431-5.172.65-6.35c.347-.065.831-.148 1.391-.233.093 1.278.318 2.364.33 2.42.082.385.382.687.768.77.075.016 1.846.393 3.611.393s3.536-.377 3.611-.393c.385-.083.686-.384.768-.77.012-.056.237-1.136.33-2.41l2.213 2.213c.218 1.587.329 3.052.329 4.359 0 2.544-.431 5.172-.651 6.35zm-6.349-7.35c-1.991 0-3 1.009-3 3s1.009 3 3 3 3-1.009 3-3-1.009-3-3-3zm0 4c-.878 0-1-.122-1-1s.122-1 1-1 1 .122 1 1-.122 1-1 1zm4.994 8.642c.062.549-.332 1.044-.881 1.106-1.468.167-2.852.251-4.113.251-6.192-.196-7.363-.791-10.773-1.465-.381-.083-.679-.381-.762-.762-.674-3.416-1.269-4.576-1.465-10.773 0-.964.049-2.003.147-3.089.05-.55.531-.951 1.085-.907.55.049.956.536.907 1.085-.092 1.027-.139 2.006-.139 2.911.183 5.744.752 7.001 1.281 9.719 2.728.53 3.964 1.096 9.719 1.281 1.186 0 2.494-.08 3.887-.239.537-.064 1.044.331 1.106.881z"/></svg>