<svg id="Layer_1" viewBox="0 0 24 24" xmlns="http://www.w3.org/2000/svg" data-name="Layer 1"><path d="m21 2c0 .553-.447 1-1 1-3.564 0-4.521 1.197-4.986 2.369l-1.592 5.351c1.478.09 2.674.282 2.739.293.545.09.915.604.825 1.148-.089.545-.605.912-1.147.826-.017-.003-1.42-.228-3.004-.295l-1.961 6.592c-1.321 3.339-4.555 3.715-6.874 3.715-.553 0-1-.447-1-1s.447-1 1-1c3.564 0 4.521-1.197 4.986-2.369l1.76-5.917c-1.616.097-2.462.275-2.747.286-.481 0-.905-.349-.986-.839-.089-.545.281-1.059.826-1.148.076-.012 1.698-.273 3.511-.328l1.776-5.97c1.321-3.339 4.555-3.715 6.874-3.715.553 0 1 .447 1 1z"/></svg>