<?xml version="1.0" encoding="UTF-8"?>
<svg xmlns="http://www.w3.org/2000/svg" id="Layer_1" data-name="Layer 1" viewBox="0 0 24 24">
  <path d="M8.612,12.37c1.236-.009,1.988-.754,2.012-2.031-.022-1.229-.792-1.997-2.023-2.006-1.239,.008-1.992,.754-2.014,2.031,.023,1.247,.775,1.997,2.011,2.005h.014Z"/>
  <path d="M15.391,8.333c-1.239,.008-1.992,.753-2.015,2.032,.024,1.247,.776,1.996,2.012,2.005h.014c1.237-.009,1.989-.754,2.012-2.03-.021-1.229-.791-1.998-2.022-2.006Z"/>
  <path d="M15.395,15.485h-6.79c-.552,0-1,.448-1,1s.448,1,1,1h6.79c.553,0,1-.448,1-1s-.447-1-1-1Z"/>
  <path d="M11.994,1C4.929,1.044,1,4.841,1,11.982c0,7.018,3.933,10.977,11.006,11.018,7.162-.042,10.861-3.737,10.994-11.017-.122-7.037-4.026-10.938-11.006-10.983Zm.012,20c-6.026-.035-8.888-2.895-9.006-9,.113-6.019,3.059-8.963,8.994-9,5.873,.038,8.903,3.072,9.006,8.981-.112,6.117-2.974,8.983-8.994,9.019Z"/>
</svg>
