<svg id="Layer_1" viewBox="0 0 24 24" xmlns="http://www.w3.org/2000/svg" data-name="Layer 1"><path d="m21.573 11.926c-1.024-1.023-3.537-2.868-5.578-3.993-.015-1.232-.426-2.078-1.226-2.533.149-.396.23-.858.23-1.4 0-1.991-1.01-3-3-3s-3 1.009-3 3c0 .542.081 1.004.23 1.4-.8.455-1.211 1.302-1.226 2.534-2.165 1.192-4.665 3.08-5.578 3.993-1.9 1.899-1.9 3.747 0 5.647.95.95 1.887 1.425 2.823 1.425.833 0 1.667-.397 2.509-1.149.185.618.419 1.257.716 1.837.787 1.543 1.898 3.314 3.526 3.314s2.739-1.771 3.525-3.313c.296-.579.531-1.219.716-1.838.842.751 1.676 1.149 2.508 1.149.937 0 1.873-.475 2.823-1.425.96-.96 1.427-1.884 1.427-2.823s-.467-1.863-1.427-2.824zm-9.574-8.926c.878 0 1 .122 1 1s-.122 1-1 1-1-.122-1-1 .122-1 1-1zm-1 4h2c.879 0 1 .122 1 1s-.121 1-1 1h-2c-.872 0-1-.052-1-1 0-.878.122-1 1-1zm2.529 6.967c-1.032.041-2.026.041-3.058 0 .545-1.011 1.048-2.06 1.42-2.967h.218c.372.906.875 1.956 1.42 2.967zm-6.87 2.192c-1.119 1.119-1.699 1.119-2.818 0s-1.119-1.699 0-2.818c.749-.749 2.804-2.308 4.674-3.4.296.426.719.726 1.273.893-.917 2.064-2.355 4.552-3.129 5.325zm5.341 4.841c-.048 0-.399-.043-1.05-1.017.355.01.708.017 1.05.017s.695-.008 1.05-.017c-.651.974-1.002 1.017-1.05 1.017zm2.101-3.062c-1.431.077-2.771.077-4.202 0-.218-.589-.408-1.273-.561-2.031.922.058 1.82.094 2.662.094s1.741-.035 2.662-.094c-.154.759-.343 1.443-.561 2.031zm6.058-1.779c-1.115 1.115-1.703 1.115-2.818 0-.773-.773-2.211-3.261-3.129-5.325.555-.167.978-.468 1.275-.896 1.885 1.1 3.929 2.659 4.672 3.403.558.558.841 1.032.841 1.409s-.283.852-.841 1.409z"/></svg>