<svg id="Layer_1" viewBox="0 0 24 24" xmlns="http://www.w3.org/2000/svg" data-name="Layer 1"><path d="m12 9c5.189 0 8.2.729 8.976.944.011.346.024.689.024 1.056 0 .552.448 1 1 1s1-.448 1-1c0-2.626-.296-4.786-.545-6.135-.067-.364-.329-.661-.682-.772-.353-.112-3.629-1.093-9.773-1.093-.335 0-.662.003-.979.008l-.468-1.19c-.126-.321-.41-.555-.75-.618-.681-.125-1.812-.257-3.339-.174-2.525.139-3.82.886-3.96.971-.209.127-.365.328-.437.562-.043.143-1.067 3.548-1.067 8.441s1.003 8.162 1.045 8.298c.096.307.333.549.639.65.086.029 2.171.711 6.255.96.545.036 1.027-.385 1.059-.937.034-.551-.386-1.025-.937-1.059-2.688-.165-4.444-.526-5.245-.725-.265-1.063-.816-3.698-.816-7.188 0-.363.01-.711.021-1.056.766-.215 3.749-.944 8.979-.944zm-5.426-5.977c.977-.055 1.755-.008 2.328.062l.513 1.305c.154.393.529.641.961.634.515-.016 1.057-.024 1.624-.024 4.555 0 7.438.563 8.594.845.091.565.179 1.248.252 2.003-1.408-.328-4.348-.848-8.846-.848s-7.434.519-8.843.847c.198-2.054.535-3.593.711-4.288.449-.179 1.35-.461 2.706-.536zm16.122 10.977c-.277-.482-.897-.64-1.366-.366l-.758.437c-.492-.529-1.179-.863-2.072-.998v-1.074c0-.552-.448-1-1-1s-1 .448-1 1v1.074c-.893.135-1.58.469-2.072.998l-.758-.437c-.469-.274-1.089-.117-1.366.366-.276.478-.113 1.09.366 1.366l.927.535c-.058.339-.096.699-.096 1.099s.038.76.096 1.099l-.927.535c-.479.276-.642.888-.366 1.366.277.482.897.64 1.366.366l.758-.437c.492.529 1.179.863 2.072.998v1.074c0 .552.448 1 1 1s1-.448 1-1v-1.074c.893-.135 1.58-.469 2.072-.998l.758.437c.469.274 1.089.117 1.366-.366.276-.478.113-1.09-.366-1.366l-.927-.535c.058-.339.096-.699.096-1.099s-.038-.76-.096-1.099l.927-.535c.479-.276.642-.888.366-1.366zm-5.196 5c-1.589 0-2-.411-2-2s.411-2 2-2 2 .411 2 2-.411 2-2 2z"/></svg>