<svg id="Layer_1" viewBox="0 0 24 24" xmlns="http://www.w3.org/2000/svg"><path d="m12 9c6.096 0 9.641.954 9.676.964.311.088.645.016.895-.187s.389-.514.37-.836c-.082-1.398-.245-2.771-.486-4.077-.067-.363-.329-.66-.682-.771-.353-.112-3.627-1.093-9.773-1.093-.335 0-.662.003-.979.009l-.468-1.19c-.126-.322-.41-.556-.75-.618-.68-.126-1.812-.259-3.339-.174-2.525.14-3.82.886-3.96.971-.209.127-.365.327-.437.562-.043.143-1.067 3.548-1.067 8.44s1.003 8.162 1.045 8.298c.099.316.348.563.666.659.106.032 2.658.792 6.728 1.041.545.036 1.027-.384 1.059-.937.034-.552-.386-1.025-.937-1.06-2.786-.171-4.834-.6-5.747-.821-.266-1.068-.814-3.699-.814-7.181 0-.36.006-.712.017-1.056.771-.216 3.76-.944 8.983-.944zm-8.132-5.44c.449-.18 1.35-.462 2.706-.537.977-.053 1.756-.008 2.328.062l.513 1.305c.154.393.525.638.96.635.516-.016 1.057-.024 1.625-.024 4.556 0 7.438.562 8.594.844.1.618.182 1.249.246 1.891-1.623-.307-4.642-.734-8.84-.734-4.494 0-7.438.52-8.848.848.198-2.062.54-3.592.716-4.288zm15.218 7.096c-.828-.498-1.174-.604-1.383-.642-.234-.04-.476.004-.682.125-.845.499-1.424 1.349-1.731 2.535-.187-.184-.438-.287-.701-.287-.285 0-.556.122-.746.335-1.152 1.293-1.812 3.198-1.812 5.228 0 2.623 2.545 4.982 5.447 5.05h.045c2.849-.064 5.421-2.423 5.504-5.052.095-3.57-1.974-6.107-3.941-7.292zm-1.939 10.077c-.228-.228-.265-.339-.268-.339 0-.283.274-.689.602-1.046.332.355.608.759.609 1.032 0 0-.028.112-.269.353-.213.213-.323.258-.327.266-.001 0-.002 0-.003 0-.024-.008-.134-.055-.345-.266zm2.88-.849c-.291-1.385-1.654-2.466-1.954-2.688-.354-.263-.839-.262-1.192.002-.297.221-1.64 1.294-1.937 2.669-.552-.545-.913-1.223-.913-1.917 0-1.067.24-2.103.666-2.943l.589.659c.275.309.715.414 1.102.269.388-.148.644-.52.644-.935 0-1.324.234-2.307.667-2.838.097.054.215.121.357.206.513.31 3.066 2.029 2.974 5.522-.023.725-.417 1.433-1.001 1.994z"/></svg>