<svg id="Layer_1" viewBox="0 0 24 24" xmlns="http://www.w3.org/2000/svg" data-name="Layer 1"><path d="m14 9c-.782 0-1.477.27-2 .727-.523-.457-1.218-.727-2-.727-1.654 0-3 1.417-3 3.16 0 2.901 2.37 4.869 3.784 5.784.369.239.792.358 1.216.358s.847-.12 1.217-.359c1.413-.915 3.783-2.882 3.783-5.784 0-1.743-1.346-3.16-3-3.16zm-1.87 7.265c-.082.054-.179.053-.26 0-.863-.559-2.87-2.077-2.87-4.105 0-.64.449-1.16 1-1.16.498 0 1 .309 1 1 0 .552.448 1 1 1s1-.448 1-1c0-.691.502-1 1-1 .551 0 1 .521 1 1.16 0 2.028-2.007 3.546-2.87 4.104zm10.325-10.4c-.067-.364-.329-.661-.682-.772-.353-.112-3.629-1.093-9.773-1.093-.335 0-.662.003-.979.008l-.468-1.19c-.126-.321-.41-.555-.75-.618-.68-.125-1.812-.256-3.339-.174-2.525.139-3.82.886-3.96.971-.209.127-.365.328-.437.562-.043.143-1.067 3.548-1.067 8.441s1.003 8.162 1.045 8.298c.101.322.357.571.681.664.142.04 3.529.984 9.283 1.038 5.735-.054 9.123-.998 9.264-1.038.318-.09.571-.332.675-.646.043-.129 1.051-3.213 1.051-8.316 0-2.626-.296-4.786-.545-6.135zm-10.446 14.135c-4.168-.039-7.06-.578-8.198-.832-.267-1.076-.812-3.7-.812-7.168 0-3.629.61-6.424.868-7.441.449-.179 1.35-.461 2.706-.536.977-.055 1.755-.009 2.328.062l.513 1.305c.154.393.542.642.961.634.515-.016 1.057-.024 1.624-.024 4.555 0 7.438.563 8.594.845.204 1.266.406 3.049.406 5.155 0 3.593-.538 6.131-.804 7.167-1.132.253-4.024.794-8.187.833z"/></svg>