<svg id="Layer_1" viewBox="0 0 24 24" xmlns="http://www.w3.org/2000/svg" data-name="Layer 1"><path d="m22.316 10.107c-.049-.017-.511-.168-1.388-.353-.084-1.332-.243-2.638-.474-3.891-.066-.359-.372-.67-.719-.784-1.23-.402-3.998-1.078-8.718-1.08l-.464-1.182c-.126-.322-.41-.556-.75-.618-.68-.126-1.812-.259-3.339-.174-2.525.14-3.82.886-3.96.971-.209.127-.365.327-.437.562-.043.143-1.067 3.548-1.067 8.44 0 4.72.928 7.925 1.037 8.271.136.43.435.6.617.667.301.114 2.944 1.062 8.346 1.062 5.628 0 8.262-1.027 8.372-1.071.179-.072.334-.194.446-.353 2.958-4.194 3.174-9.271 3.182-9.484.016-.443-.262-.845-.683-.984zm-19.316 1.893c0-3.629.61-6.424.868-7.44.449-.18 1.35-.462 2.706-.537.977-.053 1.756-.008 2.328.062l.513 1.305c.154.393.518.63.96.635.327-.01.394-.023.371-.023 3.732-.043 6.68.484 7.846.826.136.839.239 1.701.308 2.578-1.582-.22-3.714-.405-6.399-.405-1.61 0-3.155.067-4.592.199-.386.036-.717.292-.849.656-1.496 4.142-2.731 6.531-3.557 7.858-.247-1.357-.502-3.337-.502-5.714zm15.364 7.159c-.76.232-3.15.841-7.364.841-2.954 0-5.011-.299-6.238-.558.905-1.307 2.282-3.772 3.958-8.305 1.195-.091 2.464-.138 3.78-.138 4.347 0 7.171.513 8.429.806-.172 1.445-.743 4.622-2.565 7.354z"/></svg>