<?xml version="1.0" encoding="UTF-8"?>
<svg xmlns="http://www.w3.org/2000/svg" id="Layer_1" data-name="Layer 1" viewBox="0 0 24 24">
  <path d="M22.198,5.402c-.095-.38-.403-.67-.789-.741-.111-.021-2.768-.505-5.583-.667-2.148-.123-3.914-.129-4.844-.116l-.356-.938c-.11-.29-.348-.512-.644-.602-.063-.02-1.585-.471-3.978-.238-2.281,.223-3.292,.797-3.4,.862-.218,.131-.377,.339-.447,.583-.047,.166-1.157,4.102-1.157,8.344,0,4.438,1.113,8.199,1.16,8.356,.101,.336,.37,.594,.709,.682,.165,.042,4.103,1.04,9.131,1.04,5.057,0,9.084-.996,9.253-1.039,.331-.083,.598-.329,.705-.653,.043-.127,1.042-3.174,1.042-7.655,0-3.969-.769-7.087-.802-7.218ZM6.198,4.091c1.264-.124,2.224-.021,2.75,.066l.413,1.089c.151,.399,.54,.656,.968,.645,.023-.001,2.333-.074,5.383,.101,1.883,.107,3.734,.375,4.683,.526,.106,.53,.255,1.367,.378,2.405-1.704-.338-4.921-.853-8.704-.853-3.866,0-7.181,.531-8.895,.868,.222-1.976,.598-3.635,.788-4.397,.385-.138,1.107-.34,2.235-.451Zm14.014,15.022c-1.246,.264-4.456,.854-8.212,.854-3.7,0-6.838-.583-8.073-.849-.295-1.167-.927-4.036-.927-7.229,0-.293,.006-.585,.017-.875,1.363-.289,4.915-.944,9.054-.944,4.073,0,7.527,.643,8.885,.935,.028,.517,.045,1.057,.045,1.614,0,3.099-.522,5.482-.788,6.494Z"/>
</svg>
