<svg id="Layer_1" viewBox="0 0 24 24" xmlns="http://www.w3.org/2000/svg" data-name="Layer 1"><path d="m22.072 19.005c-.906-.089-1.632-.387-2.05-.598-.075-1.733-.208-7.498.983-13.203.113-.54-.234-1.07-.775-1.183-.539-.114-1.07.233-1.183.774-.608 2.911-.883 5.793-1 8.204h-2.092c-.185-1.254-.432-2.463-.792-3.762-1.335-4.823-3.09-7.101-3.164-7.195-.127-.162-.301-.281-.499-.341-.095-.029-2.351-.702-4.474-.702-2.136 0-4.188.668-4.274.696-.279.092-.503.302-.613.573-.045.112-1.112 2.792-1.112 7.73 0 3.962.702 6.554 1.003 7.484 0 .006-.003.01-.003.016v2.5c0 1.654 1.346 3 3 3s3-1.346 3-3v-1.021c.469.013.968.021 1.5.021.174 0 .335-.002.5-.004v1.004c0 1.654 1.346 3 3 3s3-1.346 3-3v-5h1.956c-.039 2.352.063 3.934.073 4.069.021.299.174.572.418.746.057.04 1.404.983 3.404 1.18.541.056 1.041-.346 1.093-.897.054-.55-.348-1.039-.897-1.093zm-18.227-15.543c.66-.177 1.925-.462 3.181-.462 1.393 0 2.921.356 3.573.527.448.678 1.659 2.715 2.636 6.244.309 1.116.524 2.16.693 3.229h-4.744c-3.319-1.103-5.76-3.663-6.137-4.074.098-2.808.557-4.671.798-5.464zm2.181 16.538c0 .552-.449 1-1 1s-1-.448-1-1v-1.33c.501.069 1.173.143 2 .204zm8 0c0 .552-.449 1-1 1s-1-.448-1-1v-1.068c.843-.05 1.503-.121 2-.195zm0-3.288c-.719.126-2.109.288-4.5.288-2.894 0-4.8-.237-5.668-.376-.232-.789-.636-2.482-.777-4.908 1.278 1.087 3.247 2.478 5.644 3.237.098.031.2.047.302.047h5v1.712z"/></svg>