<svg id="Layer_1" viewBox="0 0 24 24" xmlns="http://www.w3.org/2000/svg" data-name="Layer 1"><path d="m22 1c-.552 0-1 .448-1 1v.5h-1.5v-.5c0-.552-.448-1-1-1s-1 .448-1 1v.5h-1.5v-.5c0-.552-.448-1-1-1s-1 .448-1 1v2.947c0 1.117.603 2.095 1.5 2.627v3.926h-7v-3.926c.897-.532 1.5-1.51 1.5-2.627v-2.947c0-.552-.448-1-1-1s-1 .448-1 1v.5h-1.5v-.5c0-.552-.448-1-1-1s-1 .448-1 1v.5h-1.5v-.5c0-.552-.448-1-1-1s-1 .448-1 1v2.947c0 1 .483 1.888 1.227 2.446-.255 1.147-.727 3.679-.727 6.713 0 4.127.986 7.171 1.028 7.299.112.341.398.596.75.667.187.038 4.617.928 8.721.928s8.534-.89 8.721-.928c.353-.072.641-.328.752-.67.042-.129 1.027-3.204 1.027-7.296 0-2.973-.523-5.443-.83-6.64.803-.551 1.33-1.474 1.33-2.519v-2.947c0-.552-.448-1-1-1zm-1 3.947c0 .581-.473 1.053-1.053 1.053h-2.894c-.581 0-1.053-.473-1.053-1.053v-.447h5zm-5.5 8.553v7.31c-.488.048-.991.09-1.5.122v-2.933c0-1.103-.897-2-2-2s-2 .897-2 2v2.933c-.509-.032-1.013-.074-1.5-.122v-7.311h7zm-7.5-8.553c0 .581-.473 1.053-1.053 1.053h-2.894c-.581 0-1.053-.473-1.053-1.053v-.447h5zm-4.5 9.158c0-2.681.404-4.98.644-6.105h2.356v12.574c-.946-.13-1.73-.262-2.23-.351-.265-1.012-.77-3.309-.77-6.117zm16.229 6.118c-.5.089-1.284.221-2.229.351v-12.574h2.24c.278 1.098.76 3.392.76 6.105 0 2.788-.506 5.099-.771 6.118z"/></svg>