<svg id="Layer_1" viewBox="0 0 24 24" xmlns="http://www.w3.org/2000/svg" data-name="Layer 1"><path d="m21.992 1.721c-.154-.529-.707-.836-1.237-.681-.529.153-.835.707-.684 1.237.008.027.662 2.377.867 6.956-.779-.791-1.809-1.74-3.149-2.778-3.566-2.765-5.766-3.394-5.857-3.419-.523-.156-1.117.189-1.237.723-.016.066-.326 1.34-.526 3.824-.442-.381-.903-.758-1.379-1.127-3.567-2.766-5.767-3.394-5.858-3.42-.523-.155-1.116.189-1.237.722-.028.114-.695 2.848-.695 8.242s.667 8.128.695 8.242c.121.532.713.88 1.237.722.092-.025 2.291-.653 5.858-3.42.476-.369.937-.746 1.379-1.127.2 2.483.51 3.758.526 3.823.12.535.714.88 1.237.724.092-.025 2.291-.653 5.857-3.42 1.339-1.038 2.37-1.987 3.149-2.778-.205 4.58-.858 6.929-.867 6.956-.151.53.154 1.084.684 1.237.516.152 1.085-.146 1.237-.681.042-.143 1.008-3.548 1.008-10.279s-.966-10.137-1.008-10.279zm-5.428 14.243c-1.834 1.422-3.254 2.221-4.137 2.645-.139-.922-.309-2.393-.385-4.399-.015-.396-.264-.747-.633-.893-.367-.146-.79-.059-1.071.222-.83.825-1.763 1.642-2.774 2.426-1.834 1.422-3.254 2.221-4.137 2.645-.185-1.229-.427-3.44-.427-6.608s.242-5.379.427-6.608c.884.424 2.304 1.223 4.137 2.645 1.012.785 1.945 1.601 2.773 2.426.282.28.703.368 1.072.222.37-.146.618-.496.633-.893.076-2.006.246-3.478.385-4.399.884.425 2.304 1.224 4.137 2.645 2.237 1.735 3.562 3.202 4.182 3.964-.62.762-1.944 2.229-4.182 3.964z"/></svg>