<svg id="Layer_1" viewBox="0 0 24 24" xmlns="http://www.w3.org/2000/svg" data-name="Layer 1"><path d="m22.969 17.741c-.133-.535-.676-.859-1.208-.726-.017.004-.759.185-2.058.389.155-1.524.273-3.356.273-5.436 0-2.046-.114-3.851-.265-5.36 1.252.199 1.969.373 1.986.377.52.134 1.077-.188 1.208-.726.133-.534-.191-1.075-.725-1.208-.081-.02-1.059-.259-2.718-.501-.246-1.706-.492-2.712-.513-2.794-.133-.534-.671-.859-1.208-.725-.534.133-.859.674-.726 1.208.004.017.185.759.389 2.058-1.524-.155-3.356-.273-5.436-.273-2.046 0-3.851.114-5.36.265.199-1.252.374-1.97.378-1.986.132-.534-.193-1.075-.726-1.208-.54-.134-1.076.191-1.208.725-.02.081-.259 1.059-.501 2.718-1.706.246-2.712.492-2.794.512-.535.133-.859.674-.725 1.208.133.535.675.856 1.208.726.017-.004.759-.185 2.058-.389-.155 1.524-.273 3.356-.273 5.436 0 2.046.114 3.851.265 5.36-1.252-.199-1.969-.373-1.986-.377-.535-.133-1.075.192-1.208.726s.191 1.075.725 1.208c.081.02 1.059.259 2.718.501.246 1.706.492 2.712.513 2.794.131.538.688.859 1.208.725.534-.133.859-.674.726-1.208-.004-.017-.185-.759-.389-2.058 1.524.155 3.356.273 5.436.273 2.046 0 3.851-.114 5.36-.265-.199 1.252-.374 1.97-.378 1.986-.132.534.193 1.075.726 1.208.52.133 1.077-.187 1.208-.725.02-.081.259-1.059.501-2.718 1.706-.246 2.712-.492 2.794-.512.535-.133.859-.674.725-1.208zm-10.937.241c-2.215 0-4.153-.141-5.707-.316-.171-1.542-.307-3.455-.307-5.635 0-2.215.141-4.153.316-5.707 1.542-.17 3.455-.307 5.634-.307 2.215 0 4.153.141 5.707.316.171 1.542.307 3.455.307 5.635 0 2.215-.141 4.153-.316 5.707-1.542.17-3.455.307-5.634.307z"/></svg>