<svg id="Layer_1" viewBox="0 0 24 24" xmlns="http://www.w3.org/2000/svg"><path d="m22.016 13c.552-.018.985-.479.967-1.032-.131-4.084-.984-7.115-1.021-7.242-.096-.333-.354-.592-.688-.687-.069-.02-.878-.245-2.274-.48v-1.558c0-.552-.447-1-1-1s-1 .448-1 1v1.278c-1.388-.158-3.069-.278-5-.278s-3.612.12-5 .278v-1.278c0-.552-.447-1-1-1s-1 .448-1 1v1.558c-1.396.236-2.206.461-2.274.48-.332.095-.592.354-.688.687-.042.148-1.038 3.688-1.038 8.275s.996 8.126 1.038 8.274c.096.332.355.592.688.688.062.018 1.577.445 4.158.747.539.066 1.048-.327 1.109-.877.064-.549-.328-1.045-.877-1.109-1.534-.18-2.669-.407-3.294-.549-.267-1.134-.822-3.893-.822-7.174 0-1.089.064-2.112.156-3.045.669-.172 3.989-.955 8.844-.955s8.189.786 8.848.956c.064.65.113 1.346.136 2.076.017.553.522.982 1.031.967zm-10.016-6c-4.099 0-7.123.523-8.571.837.142-.872.29-1.567.394-2.01 1.168-.265 4.125-.827 8.178-.827s7.01.562 8.178.827c.104.442.251 1.141.393 2.009-1.449-.314-4.472-.837-8.571-.837zm10.972 15.008c.105.429-.155.862-.584.968-.417.109-.863-.15-.969-.582-.014-.056-.343-1.397-.343-3.392s.329-3.335.343-3.391c.107-.429.542-.691.969-.582.429.105.689.539.584.968-.003.012-.296 1.223-.296 3.005s.293 2.994.296 3.006zm-8.941-6.205c0 .441-.358.8-.8.8-.78 0-1.512.083-1.986.152-.047.375-.102.916-.13 1.526.359-.031.79-.061 1.249-.073.438-.014.81.337.821.778s-.336.81-.778.821c-.478.013-.929.047-1.285.08.058 1.179.205 2.184.206 2.197.065.437-.235.844-.673.909-.428.066-.846-.233-.909-.672-.011-.067-.248-1.672-.248-3.308 0-1.646.241-3.031.251-3.089.058-.323.305-.578.626-.645.055-.012 1.355-.277 2.856-.277.441 0 .8.358.8.8zm5.952 1.843c0-2.63-2.619-2.639-3.609-2.642-.214.001-.556-.011-.761 0-.391.022-.697.32-.745.696-.075.34-.322 1.576-.322 3.3 0 1.995.33 3.336.344 3.393.106.431.552.69.97.581.428-.106.688-.54.583-.969-.002-.008-.146-.601-.232-1.565.449.005.887-.034 1.248-.096.231.284.738.997.941 2.012.085.436.519.715.941.627.434-.087.714-.508.627-.941-.202-1.008-.625-1.788-.971-2.298.757-.56.986-1.365.986-2.098zm-3.837 1.194c.01-.957.102-1.736.181-2.235h.046c2.011.007 2.011.533 2.011 1.042.109.479-.31 1.293-2.237 1.193z"/></svg>