<svg id="Layer_1" viewBox="0 0 24 24" xmlns="http://www.w3.org/2000/svg" data-name="Layer 1"><path d="m12.79 23c-6.771 0-9.79-3.393-9.79-11 0-7.505 3.111-11 9.79-11 3.106 0 5.293.669 6.883 2.104.409.371.441 1.003.071 1.413-.37.411-1.004.441-1.413.072-1.199-1.084-2.96-1.589-5.541-1.589-4.046 0-7.79 1.09-7.79 9 0 7.47 3.114 9 7.79 9 2.754 0 4.604-.594 5.809-1.867.088-.188.401-.963.401-2.454 0-1.24-.334-2.046-.453-2.293-2.597-2.524-6.001-.547-6.036-.527-.476.281-1.088.126-1.371-.348s-.126-1.088.348-1.371c1.676-.998 5.629-2.081 8.584.944.053.053.099.112.138.176.081.132.789 1.347.789 3.419 0 2.367-.668 3.468-.744 3.586-.029.045-.062.087-.098.127-1.609 1.779-3.95 2.607-7.368 2.607z"/></svg>