<svg id="Layer_1" viewBox="0 0 24 24" xmlns="http://www.w3.org/2000/svg" data-name="Layer 1"><path d="m2.511 14.171c.138.034 3.438.829 9.489.829s9.352-.795 9.489-.829c.32-.079.581-.311.697-.62.033-.088.813-2.208.813-5.551s-.78-5.463-.813-5.551c-.116-.309-.377-.541-.697-.62-.138-.034-3.438-.829-9.489-.829s-9.352.795-9.489.829c-.32.079-.581.311-.697.62-.033.088-.813 2.208-.813 5.551s.78 5.463.813 5.551c.116.309.377.541.697.62zm1.021-10.512c1.142-.214 4.052-.659 8.468-.659s7.326.445 8.468.659c.203.75.532 2.285.532 4.341s-.329 3.591-.532 4.341c-1.142.214-4.052.659-8.468.659s-7.326-.445-8.468-.659c-.203-.75-.532-2.285-.532-4.341s.33-3.592.532-4.341zm10.482 13.564c-.042-.009-1.028-.224-2.015-.224s-1.973.214-2.015.224c-.381.083-.678.381-.762.762-.009.042-.224 1.029-.224 2.015s.215 1.973.224 2.015c.084.381.381.678.762.762.042.009 1.028.224 2.015.224s1.973-.214 2.015-.224c.381-.083.678-.381.762-.762.009-.042.224-1.029.224-2.015s-.215-1.973-.224-2.015c-.084-.381-.381-.678-.762-.762zm-1.082 3.708c-.555.073-1.311.073-1.865 0-.036-.276-.067-.609-.067-.932s.031-.656.067-.932c.555-.073 1.311-.073 1.865 0 .036.276.067.609.067.932s-.031.656-.067.932zm9.082-3.708c-.042-.009-1.028-.224-2.015-.224s-1.973.214-2.015.224c-.381.083-.678.381-.762.762-.009.042-.224 1.029-.224 2.015s.215 1.973.224 2.015c.084.381.381.678.762.762.042.009 1.028.224 2.015.224s1.973-.214 2.015-.224c.381-.083.678-.381.762-.762.009-.042.224-1.029.224-2.015s-.215-1.973-.224-2.015c-.084-.381-.381-.678-.762-.762zm-1.082 3.708c-.555.073-1.311.073-1.865 0-.036-.276-.067-.609-.067-.932s.031-.656.067-.932c.555-.073 1.311-.073 1.865 0 .036.276.067.609.067.932s-.031.656-.067.932zm-14.918-3.708c-.042-.009-1.028-.224-2.015-.224s-1.973.214-2.015.224c-.381.083-.678.381-.762.762-.009.042-.224 1.029-.224 2.015s.215 1.973.224 2.015c.084.381.381.678.762.762.042.009 1.028.224 2.015.224s1.973-.214 2.015-.224c.381-.083.678-.381.762-.762.009-.042.224-1.029.224-2.015s-.215-1.973-.224-2.015c-.084-.381-.381-.678-.762-.762zm-1.082 3.708c-.555.073-1.311.073-1.865 0-.036-.276-.067-.609-.067-.932s.031-.656.067-.932c.555-.073 1.311-.073 1.865 0 .036.276.067.609.067.932s-.031.656-.067.932z"/></svg>