<svg id="Layer_1" viewBox="0 0 24 24" xmlns="http://www.w3.org/2000/svg" data-name="Layer 1"><path d="m17 11c-1.87 0-3.25.399-4.227 1.192.152-.302.227-.692.227-1.192 0-1.028-.302-1.606-1-1.853v-3.147c0-.553-.447-1-1-1s-1 .447-1 1v3.147c-.698.247-1 .825-1 1.853 0 1.429.571 2 2 2 .5 0 .89-.075 1.192-.227-.793.977-1.192 2.357-1.192 4.227 0 4.149 1.851 6 6 6s6-1.851 6-6-1.851-6-6-6zm0 10c-3.028 0-4-.972-4-4s.972-4 4-4 4 .972 4 4-.972 4-4 4zm3-4c0 .553-.447 1-1 1h-4c-.553 0-1-.447-1-1s.447-1 1-1h4c.553 0 1 .447 1 1zm-11.241-.651c.359.419.312 1.05-.107 1.41l-2.34 2.01c-.305.263-.739.315-1.096.137-2.876-1.426-4.216-4.256-4.216-8.905 0-7.011 2.99-10.001 10-10.001 5.886 0 8.891 2.104 9.746 6.821.098.544-.263 1.064-.806 1.163-.551.099-1.064-.264-1.163-.806-.666-3.679-2.919-5.179-7.777-5.179-5.906.001-8 2.095-8 8.001 0 3.502.79 5.633 2.543 6.792l1.806-1.551c.418-.358 1.049-.312 1.41.107z"/></svg>