<svg id="Layer_1" viewBox="0 0 24 24" xmlns="http://www.w3.org/2000/svg" data-name="Layer 1"><path d="m20.393 16.08c-.093-.04-2.323-.979-5.524-1.391-.367-.041-.73.112-.944.415-.673.953-1.309 1.762-1.925 2.447-.616-.686-1.251-1.494-1.925-2.447-.213-.303-.575-.456-.944-.415-3.201.411-5.431 1.351-5.524 1.391-.508.217-.744.805-.527 1.312.172.403.577.624.991.594.141 1.964.444 3.197.458 3.256.071.282.262.521.523.651.09.045 2.265 1.105 6.947 1.105s6.857-1.061 6.947-1.105c.261-.131.452-.369.523-.651.015-.059.317-1.293.458-3.257.415.03.82-.192.991-.595.216-.508-.02-1.095-.527-1.312zm-8.393 4.92c-3.036 0-4.865-.477-5.632-.734-.104-.561-.256-1.588-.327-2.9.732-.211 1.666-.439 2.758-.609.867 1.187 1.688 2.157 2.499 2.956.195.191.448.287.702.287s.507-.096.702-.287c.811-.799 1.632-1.77 2.499-2.956 1.089.17 2.023.399 2.758.61-.07 1.311-.222 2.338-.327 2.899-.771.259-2.599.734-5.632.734zm-5-13.983v1.983c0 3.411 1.589 5 5 5s5-1.589 5-5v-1.983c1.336-1.006 1.837-1.955 1.895-2.069.174-.349.13-.768-.114-1.072-2.274-2.843-6.598-2.875-6.781-2.875s-4.507.032-6.781 2.875c-.244.305-.288.724-.114 1.072.058.114.558 1.063 1.895 2.069zm5 4.983c-2.299 0-3-.701-3-3v-.254c.746.13 1.773.254 3 .254s2.254-.124 3-.254v.254c0 2.299-.701 3-3 3zm0-9c.032 0 2.928.048 4.703 1.59-.264.299-.67.687-1.258 1.078-.278.186-.445.498-.445.832v.213c-.646.129-1.699.287-3 .287s-2.354-.158-3-.287v-.213c0-.334-.167-.646-.445-.832-.589-.393-.995-.781-1.259-1.079 1.784-1.557 4.674-1.589 4.704-1.589zm-1.45 1.938c-.085-.076-.118-.194-.085-.303.034-.109.127-.188.24-.202.263-.034.496-.059.716-.075.097-.234.204-.466.32-.698.05-.098.15-.167.259-.159.109-.008.21.062.259.159.116.232.223.464.32.698.219.016.453.041.716.075.113.014.207.094.24.202.034.109 0 .227-.085.303-.174.155-.342.304-.511.448.074.257.135.513.184.769.02.107-.02.216-.106.283s-.202.081-.301.034c-.262-.121-.498-.248-.717-.381-.219.133-.454.26-.717.381-.099.046-.215.033-.301-.034s-.127-.177-.106-.283c.049-.256.11-.513.184-.769-.169-.144-.337-.293-.511-.448z"/></svg>