<svg id="Layer_1" viewBox="0 0 24 24" xmlns="http://www.w3.org/2000/svg" data-name="Layer 1"><path d="m12 1c-6.309 0-9 2.691-9 9v11c0 .534.42.975.954.999.551.029.993-.375 1.042-.907.062-.677.168-1.092 1.504-1.092 1.233 0 1.5.267 1.5 1.5v.5c0 .553.448 1 1 1s1-.447 1-1c0-1.589.411-2 2-2s2 .411 2 2c0 .553.448 1 1 1s1-.447 1-1v-.5c0-1.233.267-1.5 1.5-1.5 1.336 0 1.442.415 1.504 1.092.048.531.485.942 1.042.907.534-.024.954-.465.954-.999v-11c0-6.309-2.691-9-9-9zm7 17.206c-.432-.137-.932-.206-1.5-.206-1.158 0-2.031.292-2.615.873-.662-.584-1.621-.873-2.885-.873s-2.223.289-2.885.873c-.584-.581-1.458-.873-2.615-.873-.568 0-1.068.069-1.5.206v-8.206c0-5.168 1.832-7 7-7s7 1.832 7 7zm-9-8.206c0 .552-.448 1-1 1s-1-.448-1-1 .448-1 1-1 1 .448 1 1zm6 0c0 .552-.448 1-1 1s-1-.448-1-1 .448-1 1-1 1 .448 1 1z"/></svg>