<svg id="Layer_1" viewBox="0 0 24 24" xmlns="http://www.w3.org/2000/svg" data-name="Layer 1"><path d="m21.925 7.604c-.109-.273-.333-.484-.612-.577-.082-.027-1.361-.442-3.835-.743.323-.53.519-1.145.519-1.809 0-1.93-1.57-3.5-3.5-3.5-.98 0-1.864.407-2.5 1.058-.636-.651-1.52-1.058-2.5-1.058-1.93 0-3.5 1.57-3.5 3.5 0 .664.196 1.279.519 1.809-2.475.3-3.754.716-3.835.743-.279.093-.503.304-.612.577-.044.109-1.071 2.727-1.071 6.871s1.027 6.762 1.071 6.871c.109.273.333.484.612.577.129.043 3.225 1.052 9.316 1.052s9.188-1.009 9.316-1.052c.279-.093.503-.304.612-.577.044-.109 1.071-2.727 1.071-6.871s-1.027-6.762-1.071-6.871zm-7.429-4.629c.827 0 1.5.673 1.5 1.5s-.673 1.5-1.5 1.5c-.087 0-1.064.018-1.5.01v-1.51c0-.827.673-1.5 1.5-1.5zm-5 3c-.827 0-1.5-.673-1.5-1.5s.673-1.5 1.5-1.5 1.5.673 1.5 1.5v1.51c-.436.008-1.413-.01-1.5-.01zm-5.723 2.822c.941-.236 3.33-.72 7.096-.805-.238.805-.935 1.75-2.989 1.989-.549.063-.941.56-.878 1.108.061.551.57.944 1.108.878 1.748-.203 3.058-.883 3.885-1.928.827 1.045 2.137 1.725 3.885 1.928.539.066 1.048-.327 1.108-.878.063-.549-.329-1.045-.878-1.108-2.054-.239-2.751-1.185-2.989-1.989 3.767.085 6.156.569 7.096.805.264.858.777 2.89.777 5.678 0 .532-.023 1.026-.055 1.5h-17.888c-.032-.474-.055-.968-.055-1.5 0-2.789.514-4.82.777-5.678zm8.223 12.178c-4.433 0-7.19-.563-8.223-.822-.135-.438-.333-1.185-.497-2.178h17.44c-.163.993-.362 1.74-.497 2.178-1.033.259-3.791.822-8.223.822z"/></svg>