<svg id="Layer_1" viewBox="0 0 24 24" xmlns="http://www.w3.org/2000/svg" data-name="Layer 1"><path d="m22.627 2.836c-.092-.333-.349-.596-.681-.693-.15-.044-3.733-1.076-9.946-1.076s-9.796 1.032-9.946 1.076c-.332.098-.589.36-.681.693-.017.06-.407 1.515-.351 4.243.037 1.723.241 3.584.608 5.531 1.075 5.696 2.913 8.758 3.27 9.314.138.214.353.368.6.429.645.16 3.02.681 6.5.681s5.855-.521 6.5-.681c.248-.061.462-.215.6-.429.358-.556 2.196-3.618 3.271-9.314.368-1.946.571-3.807.607-5.531.057-2.727-.334-4.182-.351-4.243zm-19.434 1.08c1.214-.275 4.295-.852 8.807-.852s7.593.577 8.807.852c.092.588.205 1.637.174 3.121-.033 1.613-.226 3.364-.572 5.202-.054.285-.114.54-.171.81h-16.475c-.057-.27-.117-.525-.171-.81-.347-1.839-.54-3.589-.573-5.202-.031-1.486.082-2.535.174-3.121zm14.432 16.588c-.908.194-2.885.532-5.625.532s-4.718-.338-5.625-.532c-.437-.757-1.344-2.557-2.135-5.459h15.521c-.791 2.902-1.699 4.702-2.135 5.459z"/></svg>