<svg id="Layer_1" viewBox="0 0 24 24" xmlns="http://www.w3.org/2000/svg" data-name="Layer 1"><path d="m22.626 2.836c-.092-.333-.349-.596-.681-.693-.15-.044-3.733-1.076-9.946-1.076s-9.795 1.032-9.946 1.076c-.332.098-.589.36-.681.693-.017.06-.408 1.515-.351 4.242.036 1.724.24 3.585.607 5.531 1.075 5.696 2.913 8.758 3.271 9.314.137.215.352.368.6.429.646.16 3.023.681 6.5.681s5.855-.521 6.5-.681c.248-.061.462-.215.6-.429.358-.556 2.196-3.618 3.271-9.314.368-1.946.571-3.807.607-5.531.057-2.727-.334-4.182-.351-4.243zm-2.218 9.403c-.867 4.595-2.219 7.288-2.783 8.265-.908.194-2.885.532-5.625.532s-4.718-.338-5.625-.532c-.564-.978-1.916-3.67-2.783-8.265-.346-1.838-.539-3.588-.572-5.202-.031-1.485.082-2.534.174-3.121 1.214-.275 4.294-.852 8.807-.852s7.593.577 8.807.852c.092.588.205 1.637.174 3.121-.033 1.613-.226 3.364-.572 5.202zm-4.041-.562c-.807-.806-1.79-1.439-1.832-1.466-.328-.21-.749-.21-1.077 0-.018.012-.224.146-.512.355-.077-.802-.213-1.439-.222-1.476-.083-.381-.38-.678-.761-.761-.051-.011-1.257-.273-2.461-.273s-2.41.262-2.461.273c-.38.083-.678.38-.761.761-.012.051-.273 1.256-.273 2.461s.261 2.41.273 2.461c.083.381.38.678.761.761.051.011 1.257.273 2.461.273.321 0 .641-.019.94-.047.266.373.688.924 1.183 1.419.807.806 1.79 1.439 1.832 1.466.328.21.749.21 1.077 0 .042-.027 1.025-.66 1.832-1.467.806-.807 1.439-1.79 1.466-1.832.211-.328.211-.748 0-1.077-.026-.041-.659-1.025-1.466-1.832zm-8.248 1.259c-.057-.385-.113-.892-.113-1.385s.057-1 .113-1.385c.768-.113 2.001-.113 2.769 0 .057.385.113.892.113 1.385s-.057 1-.113 1.385c-.768.113-2.001.113-2.769 0zm6.836 2.069c-.314.314-.672.602-.959.818-.479-.349-1.085-.893-1.479-1.401.097-.119.173-.255.207-.41.006-.024.067-.31.13-.726.333-.377.797-.755 1.142-1.013.597.419 1.356 1.179 1.776 1.776-.215.286-.502.642-.817.957z"/></svg>