<svg id="Layer_1" viewBox="0 0 24 24" xmlns="http://www.w3.org/2000/svg" data-name="Layer 1"><path d="m22.287 21.042c-.054-.016-.586-.172-1.592-.357.142-.366.305-.944.305-1.691-.004-.551-.182-1.067-.477-1.503 1.005-1.563 1.477-3.652 1.477-6.49 0-7.009-2.991-10-10-10s-10 2.99-10 9.999c0 2.838.472 4.928 1.478 6.491-.295.437-.474.955-.478 1.509 0 .743.163 1.319.305 1.685-1.006.186-1.538.341-1.592.357-.528.159-.828.715-.67 1.243.158.529.716.829 1.243.673.032-.01 3.311-.958 9.714-.958s9.682.949 9.714.958c.515.157 1.087-.14 1.243-.673.158-.528-.142-1.084-.67-1.243zm-10.287-18.042c5.907 0 8 2.093 8 8 0 2.359-.368 4.113-1.12 5.338-.133-.033-.267-.065-.407-.078-1.13-.105-2.957-.228-5.474-.255 0 0-.008-1.034-.009-1.049.505-.038.939-.092 1.152-.123.287-.042.541-.205.698-.449.157-.243.2-.543.119-.821-.043-.288-.64-1.54-1.226-2.188.608.008 1.116-.569.93-1.168-.084-.29-.308-.889-.853-1.649-.648-.904-1.181-1.313-1.281-1.386-.316-.23-.744-.23-1.06 0-.1.073-.633.483-1.281 1.386-.545.76-.769 1.36-.853 1.649-.186.599.321 1.176.93 1.168-.587.65-1.181 1.897-1.226 2.188-.081.278-.038.578.119.821.157.244.411.407.698.449.213.031.647.084 1.152.123 0 .015-.009 1.049-.009 1.049-2.516.027-4.343.149-5.474.255-.14.013-.273.044-.406.078-.752-1.225-1.12-2.979-1.12-5.338 0-5.907 2.093-8 8-8zm-6.681 17.379c-.086-.45-.283-.389-.319-1.372.002-.38.322-.719.712-.755 1.233-.115 3.325-.251 6.288-.251s5.055.137 6.288.251c.39.037.71.375.712.749-.032.966-.224.926-.325 1.379-1.655-.205-3.873-.379-6.675-.379s-5.025.174-6.681.379zm8.681-14.379c0-.552.448-1 1-1s1 .448 1 1-.448 1-1 1-1-.448-1-1zm3 4c0-.552.448-1 1-1s1 .448 1 1-.448 1-1 1-1-.448-1-1zm-11-2c0-.552.448-1 1-1s1 .448 1 1-.448 1-1 1-1-.448-1-1z"/></svg>