<svg id="Layer_1" viewBox="0 0 24 24" xmlns="http://www.w3.org/2000/svg" data-name="Layer 1"><path d="m22.992 2.294c-.062.506-.494.876-.991.876-.003 0-.005 0-.008 0 .003 1.133.007 2.546.007 2.653 0 1.383-.463 2.109-1.059 2.175-.634.07-1.442-1.151-1.442-1.151s-.809 1.223-1.442 1.151c-.581-.065-1.057-.783-1.057-2.177 0-.107.004-1.531.007-2.666-.502.002-.937-.352-.999-.86-.068-.548.32-1.047.868-1.116 1.896-.236 3.352-.236 5.248 0 .548.068.937.568.868 1.116zm-17.992 3.206c0-3.07 1.43-4.5 4.5-4.5s4.5 1.43 4.5 4.5-1.43 4.5-4.5 4.5-4.5-1.43-4.5-4.5zm2 0c0 1.939.561 2.5 2.5 2.5s2.5-.561 2.5-2.5-.561-2.5-2.5-2.5-2.5.561-2.5 2.5zm10.991 14.13c-.072.547-.562.933-1.122.861-.011-.001-.336-.043-.869-.102v1.61c0 .552-.447 1-1 1s-1-.448-1-1v-1.8c-1.31-.106-2.919-.2-4.5-.2s-3.191.094-4.5.2v1.8c0 .552-.447 1-1 1s-1-.448-1-1v-1.61c-.533.058-.858.1-.869.102-.537.074-1.052-.311-1.122-.861-.079-.605.386-1.116.991-1.138.002-5.181 2.316-7.492 7.5-7.492s7.497 2.311 7.5 7.492c.605.023 1.071.534.991 1.138zm-6.508-6.482c-.275.509-.577.929-.943 1.28.358.977.636 2.103.888 3.612 1.333.052 2.579.146 3.568.238-.042-3.204-.985-4.69-3.513-5.13zm-7.478 5.13c.989-.091 2.235-.186 3.568-.238.251-1.51.529-2.635.888-3.612-.366-.351-.668-.771-.943-1.28-2.528.44-3.47 1.926-3.513 5.13z"/></svg>