<svg id="Layer_1" viewBox="0 0 24 24" xmlns="http://www.w3.org/2000/svg" data-name="Layer 1"><path d="m20.069 16.324c-.764-.071-1.791-.149-3.068-.21-.03-1.599.357-2.141 2-2.114h.5c2.322 0 3.5-1.178 3.5-3.5s-1.178-3.5-3.5-3.5h-1c-2.899 0-10.461-4.233-13.13-5.865-.506-.328-1.243-.08-1.452.485-.092.234-.905 2.405-.918 6.371.013 3.959.826 6.13.918 6.364.215.584.989.823 1.495.458.085-.058 8.54-5.813 13.086-5.813h1c1.233 0 1.5.267 1.5 1.5s-.267 1.5-1.5 1.5h-.5c-2.708-.006-4.018 1.34-4 4.04-.911-.024-1.904-.04-3-.04-3.796 0-6.483.176-8.069.324-1.632.153-2.919 1.545-2.931 3.176 0 1.486.538 2.417.6 2.519.152.252.409.423.7.469.133.021 3.332.512 9.701.512s9.567-.491 9.701-.512c.291-.046.547-.217.7-.469.062-.102.6-1.032.6-2.526-.012-1.624-1.299-3.016-2.931-3.168zm-14.628-3.92c-.207-.945-.435-2.43-.441-4.413.007-2.028.244-3.535.454-4.478 1.856 1.087 5.513 3.137 8.737 4.4-3.391 1.218-6.96 3.352-8.75 4.49zm15.405 8.178c-1.151.136-4.117.417-8.846.417s-7.695-.282-8.846-.417c-.078-.256-.154-.623-.154-1.076.004-.6.506-1.134 1.117-1.192 1.543-.144 4.164-.315 7.883-.315s6.339.171 7.882.315c.612.058 1.113.592 1.118 1.185 0 .458-.077.827-.154 1.083z"/></svg>