<svg id="Layer_1" viewBox="0 0 24 24" xmlns="http://www.w3.org/2000/svg" data-name="Layer 1"><path d="m14 13c.552 0 1-.448 1-1s-.448-1-1-1h-1v-7.983c1.033.034 2.052.116 3 .218v5.765c0 .552.448 1 1 1s1-.448 1-1v-5.511c.908.134 1.661.267 2.151.361.239 1.25.739 4.173.833 7.182.017.551.441.976 1.031.968.552-.017.985-.479.968-1.031-.13-4.147-.971-8.02-1.007-8.183-.083-.381-.381-.679-.762-.762-.19-.042-4.713-1.023-9.214-1.023s-9.024.98-9.214 1.022c-.381.083-.679.381-.762.762-.042.19-1.023 4.713-1.023 9.214s.981 9.024 1.023 9.214c.083.381.381.679.762.762.19.042 4.713 1.023 9.214 1.023.552 0 1-.448 1-1v-9h1zm-3-2h-3v-7.765c.948-.102 1.967-.185 3-.218zm-5-7.511v7.511h-2.979c.097-2.994.59-5.903.829-7.151.49-.093 1.243-.227 2.151-.361zm-2.979 9.511h2.979v7.511c-.908-.134-1.661-.267-2.151-.361-.238-1.247-.731-4.157-.829-7.151zm7.979 7.983c-1.033-.034-2.052-.116-3-.218v-7.765h3zm8.151-8.742c-.375-.321-.927-.321-1.302 0-.394.338-3.849 3.382-3.849 6.259 0 2.481 2.019 4.5 4.5 4.5s4.5-2.019 4.5-4.5c0-2.877-3.455-5.921-3.849-6.259zm-.651 8.759c-1.378 0-2.5-1.122-2.5-2.5 0-1.235 1.346-2.981 2.5-4.134 1.154 1.153 2.5 2.899 2.5 4.134 0 1.378-1.122 2.5-2.5 2.5z"/></svg>