<svg id="Layer_1" viewBox="0 0 24 24" xmlns="http://www.w3.org/2000/svg" data-name="Layer 1"><path d="m20.973 22.123c-.111.458-.521.766-.972.766-.078 0-.156-.009-.235-.028-1.334-.321-4.117-.861-7.766-.861s-6.432.54-7.766.861c-.535.13-1.076-.201-1.207-.738-.129-.537.201-1.077.738-1.207 1.421-.342 4.38-.917 8.234-.917s6.813.574 8.234.917c.537.129.867.669.738 1.207zm-17.97-5.098c.043.552.535.962 1.078.916 9.456-.771 16.335-7.501 16.623-7.787.189-.188.296-.443.296-.709s-.106-.522-.296-.709c-.288-.286-7.167-7.017-16.623-7.787-.54-.05-1.032.365-1.078.916-.045.55.365 1.033.916 1.078 6.964.568 12.58 4.797 14.585 6.503-2.005 1.707-7.621 5.936-14.585 6.503-.551.045-.961.527-.916 1.078z"/></svg>