<?xml version="1.0" encoding="UTF-8"?>
<svg xmlns="http://www.w3.org/2000/svg" id="Layer_1" data-name="Layer 1" viewBox="0 0 24 24">
  <path d="M3.697,14.842c-1.433-2.998-.691-5.914,2.259-8.906,2.827-2.792,5.722-3.595,8.603-2.382,.508,.214,1.095-.024,1.31-.534,.214-.51-.025-1.096-.534-1.31C11.69,.176,7.959,1.145,4.541,4.522,1.018,8.094,.102,11.961,1.892,15.704c.172,.36,.53,.57,.903,.569,.145,0,.292-.031,.431-.098,.499-.238,.71-.836,.471-1.334Z"/>
  <path d="M22.999,11.869c-.01-.547-.455-.983-1-.983h-.017c-.553,.01-.993,.465-.984,1.018,.034,2.005-.95,3.994-3,6.071-1.947,1.927-3.891,2.936-5.775,3-.552,.019-.984,.482-.966,1.034,.019,.541,.463,.966,1,.966,.011,0,.023,0,.035,0,2.404-.082,4.798-1.286,7.123-3.586,2.422-2.454,3.629-4.984,3.586-7.52Z"/>
  <path d="M7.103,16.542c-.304-.179-.681-.183-.989-.013-.258,.143-2.555,1.496-2.555,3.459,0,1.554,1.488,2.989,3.053,3.011,1.536-.022,2.978-1.457,3.025-3.057-.032-1.88-2.277-3.25-2.533-3.4Z"/>
  <path d="M16.313,5.822c-.179,.304-.183,.681-.013,.989,.143,.258,1.496,2.555,3.459,2.555,1.554,0,2.989-1.488,3.011-3.053-.022-1.536-1.457-2.978-3.057-3.025-1.88,.032-3.25,2.277-3.4,2.533Z"/>
  <path d="M12.155,18.106c1.679-.161,3.098-.771,4.107-1.766,.992-1.006,1.602-2.425,1.763-4.104,.026-.274-.013-.805-.569-1.293-.327-.289-.768-.4-1.209-.306-.287,.061-.737,.169-1.057,.856-.534,1.149-.928,1.772-1.422,2.335-.586,.516-1.334,.974-2.357,1.443-.445,.204-.756,.59-.856,1.058-.094,.441,.018,.881,.306,1.208,.488,.556,1.019,.595,1.293,.569Z"/>
  <path d="M12.904,4.996c-.502-.235-1.096-.018-1.33,.483-.651,1.394-.37,2.713-.336,2.859,.087,.37,.376,.659,.745,.745,.07,.016,.41,.09,.899,.09,.53,0,1.235-.086,1.96-.425,.501-.234,.717-.829,.484-1.33-.234-.501-.829-.717-1.33-.484-.29,.135-.581,.197-.831,.222,.024-.251,.087-.541,.222-.831,.234-.501,.018-1.096-.483-1.33Z"/>
  <path d="M7.337,15.408c.137,.064,.281,.094,.423,.094,.377,0,.737-.213,.907-.577,.651-1.394,.37-2.713,.336-2.859-.087-.37-.376-.659-.745-.745-.146-.034-1.465-.316-2.859,.336-.5,.234-.717,.829-.483,1.33,.234,.501,.83,.716,1.33,.483,.29-.135,.581-.197,.831-.222-.025,.25-.087,.541-.223,.831-.234,.5-.017,1.096,.484,1.33Z"/>
</svg>
