<?xml version="1.0" encoding="UTF-8"?>
<svg xmlns="http://www.w3.org/2000/svg" id="Layer_1" data-name="Layer 1" viewBox="0 0 24 24">
  <path d="M16.022,14.161c-.246-.159-.641-.402-1.352-.142-1.19,.435-1.908,.596-2.655,.646-.779-.049-1.632-.254-2.686-.646-.459-.17-.951-.118-1.353,.143-.378,.245-.61,.635-.638,1.07-.048,.738,.3,1.141,.512,1.316,1.301,1.073,2.734,1.645,4.15,1.654,1.412-.009,2.846-.582,4.146-1.654,.212-.175,.56-.578,.512-1.316-.027-.436-.26-.826-.638-1.071Z"/>
  <path d="M17.874,8.057l-.405-.059c-.174-.025-.325-.135-.403-.292l-.18-.365c-.314-.644-1.359-.646-1.678-.001l-.181,.366c-.078,.158-.229,.267-.402,.292l-.404,.059c-.354,.051-.644,.295-.755,.638-.109,.339-.02,.706,.236,.957l.293,.285c.126,.123,.184,.3,.153,.475l-.067,.4c-.048,.272,.026,.549,.203,.759,.278,.332,.771,.429,1.152,.228l.363-.19c.15-.08,.342-.08,.496,0l.362,.191c.138,.072,.284,.108,.434,.108,.276,0,.538-.123,.717-.335,.179-.209,.253-.487,.206-.76l-.069-.402c-.03-.174,.027-.351,.153-.474l.294-.286c.257-.25,.347-.618,.235-.959-.111-.34-.4-.583-.754-.635Z"/>
  <path d="M7.706,11.608c.15-.08,.342-.08,.496,0l.359,.189c.138,.073,.284,.11,.437,.11,.276,0,.538-.123,.719-.337,.176-.21,.25-.486,.203-.757l-.068-.402c-.03-.174,.027-.351,.153-.474l.295-.287c.254-.25,.344-.616,.234-.958-.112-.34-.401-.583-.756-.635l-.403-.06c-.174-.025-.325-.135-.403-.292l-.18-.365c-.313-.644-1.358-.646-1.678-.001l-.181,.366c-.078,.158-.229,.268-.403,.293l-.404,.059c-.354,.052-.643,.295-.754,.635-.111,.341-.021,.709,.236,.96l.293,.285c.126,.124,.184,.3,.153,.474l-.068,.401c-.048,.274,.027,.551,.204,.759,.276,.331,.758,.434,1.152,.228l.363-.19Z"/>
  <path d="M11.994,1C4.929,1.044,1,4.841,1,11.982c0,7.018,3.933,10.977,11.006,11.018,7.162-.042,10.861-3.737,10.994-11.017-.122-7.037-4.026-10.938-11.006-10.983Zm.012,20c-6.026-.035-8.888-2.895-9.006-9,.113-6.019,3.059-8.963,8.994-9,5.873,.038,8.903,3.072,9.006,8.981-.112,6.117-2.974,8.983-8.994,9.019Z"/>
</svg>
