<?xml version="1.0" encoding="UTF-8"?>
<svg xmlns="http://www.w3.org/2000/svg" id="Layer_1" data-name="Layer 1" viewBox="0 0 24 24">
  <path d="M16.022,14.161c-.246-.159-.641-.402-1.352-.142-1.19,.435-1.908,.596-2.655,.646-.779-.049-1.632-.254-2.686-.646-.459-.17-.951-.118-1.353,.143-.378,.245-.61,.635-.638,1.07-.048,.738,.3,1.141,.512,1.316,1.301,1.073,2.734,1.645,4.15,1.654,1.412-.009,2.846-.582,4.146-1.654,.212-.175,.56-.578,.512-1.316-.027-.436-.26-.826-.638-1.071Z"/>
  <path d="M9.844,11.209c.635-.559,.961-1.162,.969-1.791,.007-.621-.311-1.139-.586-1.394-.562-.521-1.466-.524-1.953,.008l-.169,.184-.169-.185c-.486-.531-1.392-.528-1.953-.007-.285,.264-.609,.8-.584,1.441,.026,.675,.417,1.316,1.161,1.905,.167,.132,.852,.626,1.545,.626,.815,0,1.528-.601,1.739-.787Z"/>
  <path d="M18.016,8.024c-.562-.521-1.466-.524-1.953,.008l-.169,.184-.169-.185c-.486-.531-1.392-.528-1.953-.007-.285,.264-.609,.8-.584,1.441,.026,.675,.417,1.316,1.161,1.905,.167,.132,.852,.626,1.545,.626,.815,0,1.528-.601,1.739-.787,.635-.559,.961-1.162,.969-1.791,.007-.621-.311-1.139-.586-1.394Z"/>
  <path d="M11.994,1C4.929,1.044,1,4.841,1,11.982c0,7.018,3.933,10.977,11.006,11.018,7.162-.042,10.861-3.737,10.994-11.017-.122-7.037-4.026-10.938-11.006-10.983Zm.012,20c-6.026-.035-8.888-2.895-9.006-9,.113-6.019,3.059-8.963,8.994-9,5.873,.038,8.903,3.072,9.006,8.981-.112,6.117-2.974,8.983-8.994,9.019Z"/>
</svg>
