<?xml version="1.0" encoding="UTF-8"?>
<svg xmlns="http://www.w3.org/2000/svg" id="Layer_1" data-name="Layer 1" viewBox="0 0 24 24">
  <path d="M15.391,7.795c-1.237,.007-1.99,.712-2.015,1.927,.023,1.181,.775,1.891,2.013,1.898h.012c1.236-.008,1.988-.713,2.013-1.927-.023-1.164-.794-1.892-2.022-1.899Z"/>
  <path d="M15.53,13.365c-.018,.003-1.755,.352-3.53,.352-1.757,0-3.514-.349-3.532-.352-.542-.11-1.069,.242-1.177,.783-.109,.542,.241,1.068,.782,1.178,.029,.006,.304,.06,.736,.127-.015,.151-.025,.308-.028,.471,.036,2.077,1.207,3.276,3.225,3.289,2.004-.013,3.175-1.211,3.212-3.323-.002-.15-.011-.295-.026-.436,.434-.067,.707-.122,.736-.128,.541-.11,.891-.638,.78-1.179-.109-.542-.637-.892-1.179-.781Zm-2.312,2.523c-.02,1.113-.428,1.319-1.212,1.324-.797-.005-1.206-.211-1.225-1.289,.002-.088,.006-.171,.014-.25,.388,.026,.794,.043,1.205,.043s.819-.016,1.206-.042c.007,.069,.011,.14,.012,.214Z"/>
  <path d="M9.624,10.708c.552,0,1-.448,1-1s-.448-1-1-1h-2.037c-.552,0-1,.448-1,1s.448,1,1,1h2.037Z"/>
  <path d="M11.994,1C4.929,1.044,1,4.841,1,11.982c0,7.018,3.933,10.977,11.006,11.018,7.162-.042,10.861-3.737,10.994-11.017-.122-7.037-4.026-10.938-11.006-10.983Zm.012,20c-6.026-.035-8.888-2.895-9.006-9,.113-6.019,3.059-8.963,8.994-9,5.873,.038,8.903,3.072,9.006,8.981-.112,6.117-2.974,8.983-8.994,9.019Z"/>
</svg>
