<svg id="Layer_1" viewBox="0 0 24 24" xmlns="http://www.w3.org/2000/svg" data-name="Layer 1"><path d="m18.015 9.224c-.042-.009-1.029-.224-2.015-.224s-1.973.214-2.015.224c-.381.083-.678.381-.762.762-.009.042-.224 1.029-.224 2.015s.214 1.973.224 2.015c.083.381.381.678.762.762.042.009 1.029.224 2.015.224s1.973-.214 2.015-.224c.381-.083.678-.381.762-.762.009-.042.224-1.029.224-2.015s-.214-1.973-.224-2.015c-.083-.381-.381-.678-.762-.762zm-1.083 3.708c-.553.073-1.312.073-1.864 0-.037-.276-.068-.609-.068-.932s.031-.656.068-.932c.553-.073 1.312-.073 1.864 0 .037.276.068.609.068.932s-.031.656-.068.932zm1.083 4.292c-.042-.009-1.029-.224-2.015-.224s-1.973.214-2.015.224c-.381.083-.678.381-.762.762-.009.042-.224 1.029-.224 2.015s.214 1.973.224 2.015c.083.381.381.678.762.762.042.009 1.029.224 2.015.224s1.973-.214 2.015-.224c.381-.083.678-.381.762-.762.009-.042.224-1.029.224-2.015s-.214-1.973-.224-2.015c-.083-.381-.381-.678-.762-.762zm-1.083 3.708c-.553.073-1.312.073-1.864 0-.037-.276-.068-.609-.068-.932s.031-.656.068-.932c.553-.073 1.312-.073 1.864 0 .037.276.068.609.068.932s-.031.656-.068.932zm-2.947-14.156c.042.009 1.029.224 2.015.224s1.973-.214 2.015-.224c.381-.083.678-.381.762-.762.009-.042.224-1.029.224-2.015s-.214-1.973-.224-2.015c-.083-.381-.381-.678-.762-.762-.042-.009-1.029-.224-2.015-.224s-1.973.214-2.015.224c-.381.083-.678.381-.762.762-.009.042-.224 1.029-.224 2.015s.214 1.973.224 2.015c.083.381.381.678.762.762zm1.083-3.708c.553-.073 1.312-.073 1.864 0 .037.276.068.609.068.932s-.031.656-.068.932c-.553.073-1.312.073-1.864 0-.037-.276-.068-.609-.068-.932s.031-.656.068-.932zm-5.053 6.156c-.042-.009-1.029-.224-2.015-.224s-1.973.214-2.015.224c-.381.083-.678.381-.762.762-.009.042-.224 1.029-.224 2.015s.214 1.973.224 2.015c.083.381.381.678.762.762.042.009 1.029.224 2.015.224s1.973-.214 2.015-.224c.381-.083.678-.381.762-.762.009-.042.224-1.029.224-2.015s-.214-1.973-.224-2.015c-.083-.381-.381-.678-.762-.762zm-1.083 3.708c-.553.073-1.312.073-1.864 0-.037-.276-.068-.609-.068-.932s.031-.656.068-.932c.553-.073 1.312-.073 1.864 0 .037.276.068.609.068.932s-.031.656-.068.932zm1.083 4.292c-.042-.009-1.029-.224-2.015-.224s-1.973.214-2.015.224c-.381.083-.678.381-.762.762-.009.042-.224 1.029-.224 2.015s.214 1.973.224 2.015c.083.381.381.678.762.762.042.009 1.029.224 2.015.224s1.973-.214 2.015-.224c.381-.083.678-.381.762-.762.009-.042.224-1.029.224-2.015s-.214-1.973-.224-2.015c-.083-.381-.381-.678-.762-.762zm-1.083 3.708c-.553.073-1.312.073-1.864 0-.037-.276-.068-.609-.068-.932s.031-.656.068-.932c.553-.073 1.312-.073 1.864 0 .037.276.068.609.068.932s-.031.656-.068.932zm1.083-19.708c-.042-.009-1.029-.224-2.015-.224s-1.973.214-2.015.224c-.381.083-.678.381-.762.762-.009.042-.224 1.029-.224 2.015s.214 1.973.224 2.015c.083.381.381.678.762.762.042.009 1.029.224 2.015.224s1.973-.214 2.015-.224c.381-.083.678-.381.762-.762.009-.042.224-1.029.224-2.015s-.214-1.973-.224-2.015c-.083-.381-.381-.678-.762-.762zm-1.083 3.708c-.553.073-1.312.073-1.864 0-.037-.276-.068-.609-.068-.932s.031-.656.068-.932c.553-.073 1.312-.073 1.864 0 .037.276.068.609.068.932s-.031.656-.068.932z"/></svg>