<svg id="Layer_1" viewBox="0 0 24 24" xmlns="http://www.w3.org/2000/svg" data-name="Layer 1"><path d="m11 14.001v4c0 .553-.448 1-1 1s-1-.447-1-1v-4c0-.553.448-1 1-1s1 .447 1 1zm3 5c.552 0 1-.447 1-1v-4c0-.553-.448-1-1-1s-1 .447-1 1v4c0 .553.448 1 1 1zm4-1c.552 0 1-.447 1-1v-3c0-.553-.448-1-1-1s-1 .447-1 1v3c0 .553.448 1 1 1zm-12-5c-.552 0-1 .447-1 1v3c0 .553.448 1 1 1s1-.447 1-1v-3c0-.553-.448-1-1-1zm17-2v2c0 10-4.854 10-11 10s-11 0-11-10v-2c0-.477.336-.887.804-.98.019-.004.09-.018.185-.036.01-.432.03-.799.065-1.099.115-1.19.49-2.031.853-2.845.339-.76.66-1.491.766-2.574-.479.082-.963-.178-1.121-.654-.172-.523.109-1.087.632-1.261.068-.022 1.685-.552 4.316-.552s4.249.529 4.316.552c.524.174.807.74.632 1.265-.16.483-.677.783-1.157.649.107 1.083.427 1.814.766 2.574.137.307.271.625.397.957 2.168-2.556 4.635-4.608 5.814-5.443 1.003-.71 2.318-.742 3.349-.084 1.138.729 1.649 2.131 1.244 3.41-.372 1.173-1.042 2.904-2.173 4.873.885.142 1.441.252 1.508.265.467.094.804.504.804.98zm-9.621-1.974c1.88.062 3.68.235 5.163.422 1.297-2.102 2.029-3.962 2.413-5.172.132-.418-.038-.878-.415-1.12-.344-.218-.781-.206-1.116.032-.54.382-1.64 1.249-2.894 2.426.322.208.663.362.815.414.521.178.802.744.626 1.267-.176.526-.754.803-1.262.629-.118-.039-.899-.319-1.614-.874-.586.617-1.165 1.277-1.716 1.977zm-9.376.622c1.718-.257 4.248-.562 6.905-.631-.098-.847-.365-1.461-.677-2.16-.426-.955-.9-2.038-.967-3.76-.506-.055-1.091-.096-1.764-.096-.69 0-1.287.043-1.801.1-.067 1.72-.54 2.801-.966 3.756-.325.728-.605 1.355-.69 2.24-.018.156-.029.349-.039.552zm16.997 2.188c-1.594-.273-5.319-.835-8.997-.835-.001 0-.003 0-.004 0h-.022s-.002 0-.003 0c-3.671.003-7.383.562-8.974.834v1.165c0 8 2.82 8 9 8s9 0 9-8v-1.165z"/></svg>