<svg id="Layer_1" viewBox="0 0 24 24" xmlns="http://www.w3.org/2000/svg" data-name="Layer 1"><path d="m18 11h-5.49c.046-2.419.252-4.461.462-5.965 3.1.169 4.787 1.176 5.528 3.295.183.521.753.797 1.274.614s.796-.753.614-1.274c-1.255-3.588-4.39-4.454-7.087-4.629.098-.506.167-.789.169-.799.133-.536-.193-1.079-.729-1.212-.538-.138-1.078.191-1.212.728-.013.053-.122.495-.263 1.263-5.778.209-8.267 2.924-8.267 8.98s2.489 8.771 8.267 8.98c.142.768.25 1.209.263 1.263.132.54.69.863 1.212.728.536-.133.862-.676.729-1.212-.003-.01-.071-.291-.169-.796 3.484-.206 7.09-1.427 7.692-6.852.066-2.013-.965-3.126-2.994-3.11zm-13 1c0-4.8 1.585-6.72 5.951-6.969-.235 1.756-.451 4.136-.451 6.969s.217 5.213.451 6.969c-4.367-.249-5.951-2.169-5.951-6.969zm7.973 6.975c-.21-1.505-.417-3.551-.463-5.975h5.49c.86 0 .995.116 1 .945-.396 3.415-2.065 4.84-6.027 5.03z"/></svg>