<svg id="Layer_1" viewBox="0 0 24 24" xmlns="http://www.w3.org/2000/svg" data-name="Layer 1"><path d="m14 12c.014 2.893-.603 6.354-.657 6.252-.137.539-.699.855-1.219.716-.534-.139-.854-.685-.717-1.219.005-.019.436-1.734.559-4.373-.761-.163-2.031-.376-3.466-.376-1.443 0-2.707.212-3.466.375.123 2.639.554 4.355.559 4.374.138.534-.183 1.08-.717 1.219-.52.139-1.082-.177-1.219-.716-.028.23-.689-3.459-.657-6.252 0-3.686.631-6.148.657-6.252.139-.534.686-.853 1.219-.716.534.139.854.685.717 1.219-.005.021-.51 2.051-.579 5.089.87-.167 2.097-.34 3.486-.34s2.617.173 3.486.34c-.069-3.038-.574-5.068-.579-5.089-.138-.534.183-1.08.717-1.219.533-.136 1.08.182 1.219.716.026.104.657 2.566.657 6.252zm6.625-6.781c-.238-.189-.547-.262-.845-.194-.938.211-3.18 1.001-3.759 3.771-.113.541.233 1.07.773 1.184.546.113 1.07-.233 1.184-.773.17-.811.574-1.336 1.021-1.677v10.472c0 .553.447 1 1 1s1-.447 1-1v-12.002c0-.304-.138-.591-.375-.781z"/></svg>