<svg id="Layer_1" viewBox="0 0 24 24" xmlns="http://www.w3.org/2000/svg" data-name="Layer 1"><path d="m22.86 11.991c-.075-.128-1.888-3.167-4.624-5.887-.012-.012-.024-.023-.036-.034-4.748-4.268-7.847-5.015-7.976-5.045-.336-.079-.686.023-.929.266-1.287 1.28-3.225 3.887-3.306 3.997-.264.354-.263.84 0 1.193.079.105 1.41 1.885 3.129 3.864-1.23 1.009-3.645 3.034-5.278 4.687-1.722 1.745-4.324 4.382-1.815 6.922.685.694 1.454 1.045 2.288 1.045 1.733 0 3.246-1.532 4.581-2.884 1.636-1.657 3.64-4.11 4.634-5.353 1.866 1.582 3.351 2.529 3.435 2.582.16.102.347.155.535.155.041 0 .082-.002.122-.007.085-.011 2.097-.273 3.561-1.729 1.417-1.412 1.762-2.893 1.796-3.057.052-.245.01-.5-.118-.715zm-12.574-8.842c.989.383 3.341 1.503 6.558 4.391.506.503.98 1.022 1.414 1.53-.166.533-.566 1.536-1.408 2.374-.87.865-1.934 1.266-2.457 1.421-.496-.433-1.011-.908-1.525-1.419-1.956-1.943-3.948-4.441-4.819-5.565.539-.705 1.465-1.885 2.237-2.732zm-2.813 15.562c-.953.966-2.866 3.236-4.022 1.839-.809-.977-.519-1.748 1.815-4.112 1.581-1.602 4.016-3.638 5.194-4.604.329.352.664.698.999 1.031.194.192.387.38.579.562-.946 1.184-2.971 3.67-4.565 5.284zm12.299-4.365c-.681.677-1.582.976-2.062 1.094-.324-.22-.87-.603-1.544-1.121.659-.314 1.414-.779 2.095-1.457.653-.65 1.109-1.363 1.424-1.996.563.761.983 1.396 1.224 1.773-.152.39-.483 1.057-1.137 1.708z"/></svg>