<svg id="Layer_1" viewBox="0 0 24 24" xmlns="http://www.w3.org/2000/svg" data-name="Layer 1"><path d="m19.353 10.477c-.038-.062-.952-1.532-3.366-3.747-3.347-3.111-6.026-4.126-6.139-4.168-.307-.114-.649-.071-.918.116-1.766 1.226-3.231 3.711-3.293 3.816-.208.356-.176.804.08 1.127.061.076 1.05 1.318 2.409 2.783-1.13.907-3.164 2.58-4.559 3.957-1.203 1.188-2.566 2.534-2.566 4.107 0 .766.321 1.471.953 2.095.695.687 1.395.957 2.076.957 1.588 0 3.075-1.468 4.17-2.55 1.459-1.44 3.245-3.571 4.129-4.649 1.291 1.021 2.116 1.511 2.165 1.54.155.091.331.138.508.138.087 0 .175-.011.261-.035.071-.019 1.748-.482 2.914-1.684 1.233-1.27 1.319-3.053 1.325-3.252.006-.194-.045-.386-.147-.552zm-12.559 7.071c-2.144 2.117-2.712 2.2-3.435 1.593-1.082-.907.781-2.535 1.613-3.356 1.378-1.361 3.489-3.086 4.553-3.937.267.263.54.523.816.776.155.142.307.279.455.411-.856 1.044-2.615 3.143-4.002 4.513zm9.946-4.66c-.5.516-1.183.842-1.607 1.009-.598-.398-1.858-1.297-3.44-2.748-1.638-1.503-3.215-3.33-3.96-4.225.448-.666 1.162-1.612 1.912-2.267.861.417 2.759 1.471 4.984 3.54.002.001.003.003.005.004 1.613 1.48 2.486 2.582 2.834 3.06-.064.4-.242 1.128-.727 1.626z"/><path d="m22 12h-1c-.552 0-1 .448-1 1s.448 1 1 1h1c.552 0 1-.448 1-1s-.448-1-1-1z"/><path d="m20.707 15.293c-.391-.391-1.023-.391-1.414 0s-.391 1.023 0 1.414l1 1c.195.195.451.293.707.293s.512-.098.707-.293c.391-.391.391-1.023 0-1.414z"/><path d="m17 16.5c-.552 0-1 .448-1 1v1c0 .552.448 1 1 1s1-.448 1-1v-1c0-.552-.448-1-1-1z"/></svg>