<svg id="Layer_1" viewBox="0 0 24 24" xmlns="http://www.w3.org/2000/svg" data-name="Layer 1"><path d="m21.447 10.605c-2.865-1.433-6.03-2.264-9.649-2.533-.319-2.866-.874-4.81-.898-4.896-.409-1.558-2.165-2.536-3.704-2.061-1.589.452-2.516 2.113-2.066 3.704.003.011.128.417.283 1.181-.14 0-.233 0-.252 0-1.24 0-2.099.201-2.157.718-.063.563 1.024 1.282 1.024 1.282s-1.086.719-1.024 1.282c.058.53.928.718 2.157.718h.789c.014.201.025.455.035.663-.527.218-1.348.607-2.28 1.229-1.976 1.317-1.879 2.862-1.441 3.947.058.135 1.464 3.34 5.228 6.462.128.106.281.179.444.211.101.02 2.502.489 5.565.489s5.124-.444 5.209-.463c.272-.06.507-.23.647-.471 1.853-3.162 2.643-6.322 2.643-10.566 0-.379-.214-.725-.553-.895zm-13.703-7.566c.514-.159 1.096.167 1.233.689.004.014.255.845.509 2.275-.663-.001-1.379-.002-2.037-.003-.207-1.101-.393-1.715-.395-1.725-.15-.531.159-1.085.69-1.236zm10.112 17.623c-.717.121-2.295.338-4.356.338-2.316 0-4.266-.293-4.932-.407-3.221-2.742-4.456-5.519-4.459-5.524-.22-.546-.171-.93.705-1.514.434-.289.837-.518 1.184-.696 0 1.049.003 2.143.003 2.143 0 .551.448.999 1 .999s1-.448 1-1c0 0 0 0 0-.001s-.006-3.66-.003-4.033c-.011-.314-.028-.619-.047-.92 1.122-.001 2.331-.003 3.137-.006 3.351.19 6.279.868 8.907 2.086-.091 4.167-1.093 6.668-2.137 8.537z"/></svg>