<svg id="Layer_1" viewBox="0 0 24 24" xmlns="http://www.w3.org/2000/svg" data-name="Layer 1"><path d="m20.274 4.631c-.114-.009-.228-.006-.341-.001.002-.009.005-.021.007-.03.329-1.622-.721-3.21-2.34-3.538-.784-.163-1.586-.007-2.255.436-.669.441-1.125 1.117-1.293 1.945-.005.026-.343 2.083-1.185 4.34-1.216-2.298-1.928-4.444-2.027-4.749-.533-1.564-2.24-2.407-3.802-1.874-.758.255-1.372.791-1.727 1.509-.247.498-.339 1.044-.29 1.592-.24.003-.484.029-.727.093-1.6.423-2.558 2.067-2.136 3.666.224.849.702 1.836 1.344 3.029-.322.049-.641.147-.942.305-1.124.586-1.742 1.863-1.489 3.173.049.188 1.248 4.633 5.318 7.767.122.094.264.158.414.188.106.021 2.644.52 6.696.52 4.007 0 5.203-.437 5.402-.524.192-.084.354-.228.461-.409 1.568-2.726 3.453-12.95 3.67-14.212.127-1.649-1.11-3.095-2.759-3.224zm-2.46 16.082c-.521.108-1.768.287-4.314.287-3.17 0-5.39-.325-6.079-.44-3.35-2.688-4.397-6.476-4.4-6.476-.074-.383.117-.777.465-.959.379-.197.8-.149 1.118.127.014.013 1.443 1.293 2.516 3.275.262.484.868.665 1.355.402.486-.263.667-.869.403-1.355-.852-1.574-1.871-2.736-2.464-3.346-.949-1.814-2.101-3.723-2.323-4.719-.141-.533.179-1.082.71-1.222.349-.092.665.012.889.274.503 1.339 1.331 3.17 2.626 5.014.319.454.947.559 1.393.243.452-.317.561-.941.244-1.394-1.824-2.618-2.581-5.002-2.902-6.105-.182-.506.111-1.105.626-1.266.523-.177 1.09.104 1.266.616.124.384 1.269 3.833 3.213 6.869.424.625 1.381.573 1.737-.092 1.551-3.103 2.11-6.546 2.125-6.647.099-.529.654-.9 1.182-.778.539.109.889.639.779 1.179-.481 2.039-1.227 4.286-2.086 6.423-.209.512.037 1.095.549 1.303.498.207 1.096-.032 1.303-.549.614-1.508 1.159-3.093 1.566-4.428.207-.222.502-.347.806-.324.536.042.941.501.923 1.033-.539 2.963-2.088 10.611-3.227 13.055z"/></svg>