<svg id="Layer_1" viewBox="0 0 24 24" xmlns="http://www.w3.org/2000/svg" data-name="Layer 1"><path d="m19.363 1.934c-.148-.253-.399-.428-.688-.479-.104-.019-2.591-.455-5.675-.455s-5.156.508-5.242.53c-.134.033-.259.094-.368.178-4.038 3.109-5.247 6.551-5.272 6.628-.551 1.298.124 2.994 1.474 3.703.71.373 1.719.674 2.412.856-.091 3.437-.871 6.305-.869 6.287-.449 1.59.478 3.251 2.064 3.702 1.532.478 3.297-.502 3.704-2.054.006-.021.576-1.991.9-4.902 3.62-.27 6.785-1.102 9.649-2.534.339-.169.553-.516.553-.895 0-4.244-.79-7.404-2.643-10.566zm-8.519 12.049c-.499.025-.903.414-.947.912-.273 3.122-.906 5.352-.915 5.38-.137.52-.718.843-1.233.686-.529-.15-.839-.705-.691-1.229.009-.028.814-2.898.947-6.744-.004-.328.002-3.986.002-3.987h-.006s0 0 0-.001c0-.552-.448-1-1-1s-1 .448-1 1c0 .01.005.019.006.029 0 .145-.001.943-.002 1.79-.529-.155-1.1-.349-1.482-.55-.426-.224-.709-.804-.537-1.215.01-.03 1.059-2.943 4.453-5.627.557-.116 2.258-.427 4.563-.427 2.156 0 4.038.232 4.87.353 1.041 1.868 2.038 4.366 2.129 8.522-2.693 1.248-5.696 1.938-9.155 2.108z"/></svg>