<svg id="Layer_1" viewBox="0 0 24 24" xmlns="http://www.w3.org/2000/svg" data-name="Layer 1"><path d="m22.48 7.804c-.03-.15-.094-.292-.188-.414-3.11-4.039-6.551-5.248-6.628-5.271-1.302-.552-2.995.123-3.703 1.474-.373.708-.674 1.718-.856 2.411-3.394-.091-6.222-.847-6.286-.869-1.59-.448-3.251.478-3.703 2.064-.476 1.541.501 3.296 2.061 3.707.091.026 2.066.582 4.895.897.27 3.621 1.102 6.786 2.534 9.65.169.339.516.553.895.553 4.244 0 7.404-.791 10.566-2.643.241-.141.412-.376.471-.648.019-.086.463-2.142.463-5.215s-.498-5.59-.52-5.696zm-1.818 10.059c-1.869 1.043-4.37 2.045-8.537 2.137-1.248-2.694-1.938-5.696-2.108-9.156-.025-.499-.414-.903-.912-.947-3.093-.27-5.288-.888-5.379-.914-.52-.138-.844-.719-.686-1.234.148-.536.723-.84 1.242-.687.12.033 2.983.813 6.729.942.328-.006 3.987.002 3.988.002v-.006s0 0 .001 0c.552 0 1-.448 1-1s-.448-1-1-1c-.01 0-.019.005-.029.006-.145 0-.943-.002-1.79-.002.155-.529.349-1.099.55-1.481.224-.426.807-.71 1.215-.538.03.01 2.935 1.055 5.614 4.438.117.667.439 2.726.439 5.078 0 2.062-.217 3.644-.338 4.362z"/></svg>