<svg id="Layer_1" viewBox="0 0 24 24" xmlns="http://www.w3.org/2000/svg" data-name="Layer 1"><path d="m20.5 1.729c-.526-.603-1.108-.729-1.504-.729-2.123 0-2.743 2.03-2.933 5.199-.502-.284-.999-.351-1.343-.356-.6.008-1.419.209-2.058 1.076-.643-.867-1.469-1.069-2.083-1.076-.384.005-.788.078-1.174.269-.174-3.111-.77-5.113-2.893-5.113-.394 0-.975.125-1.508.724-1.768 1.982-1.83 8.195-1.43 12.214-1.337 1.325-2.269 3.393-.906 5.37 1.762 2.554 4.631 3.692 9.303 3.692 5.843 0 8.912-2.554 9.66-8.039.543-3.992.717-11.114-1.132-13.232zm-5.779 6.114c1.13.014 1.242 2.406 1.25 3.156-.021 2.019-.486 3.229-1.226 3.237-.917-.011-1.072-2.013-1.083-3.188.014-1.543.305-3.195 1.059-3.205zm-4.142 0c.779.01 1.07 1.662 1.083 3.188-.011 1.192-.165 3.194-1.059 3.206-1.006-.012-1.109-2.468-1.117-3.237.009-.953.137-3.144 1.093-3.156zm-4.066-4.843c.944 0 .958 3.957.97 7.137 0 0 .019 1.504.04 1.792-.575-.052-1.266.068-2.067.518-.335-4.976.366-9.051 1.057-9.447zm13.137 11.691c-.61 4.481-2.835 6.309-7.678 6.309-5.057 0-6.77-1.497-7.656-2.828-1.042-1.564.974-3.094 1.001-3.117 1.238-1.072 2.023-1.403 2.556-.867.527.552-.323 1.744-1.129 2.646-.368.412-.333 1.044.079 1.412.19.17.429.254.666.254.274 0 .548-.113.745-.333.665-.744 1.148-1.44 1.449-2.088.306.11.619.155.921.158.872-.011 1.56-.349 2.061-1.013.504.663 1.198 1.002 2.081 1.013.955-.011 3.183-.543 3.226-5.228l.002-.462c.016-3.363.034-7.547.957-7.562.843.498 1.531 5.749.72 11.707z"/></svg>