<svg id="Layer_1" viewBox="0 0 24 24" xmlns="http://www.w3.org/2000/svg" data-name="Layer 1"><path d="m22.188 7.819c-.401-1.138-1.485-1.912-2.684-1.848-1.049.026-1.912.528-2.441 1.381-.028-.027-.055-.049-.083-.078-1.666-1.696-2.884-3.384-3.33-4.031-.896-1.304-2.69-1.634-3.997-.735-.337.233-.606.527-.808.856-.835-.447-1.869-.48-2.754.013-.671.371-1.156.982-1.367 1.719-.158.554-.147 1.13.025 1.665-.303.075-.598.187-.868.36-.645.412-1.091 1.053-1.256 1.803-.16.729-.031 1.474.356 2.109-.464.153-.893.41-1.235.781-.929 1.006-.989 2.563-.143 3.704 1.058 1.426 2.29 2.688 3.361 3.759 3.723 3.724 6.854 3.724 8.034 3.724 5.7 0 9.999-4.084 9.999-9.5 0-3.614-.641-5.298-.811-5.681zm-9.188 13.181c-.952 0-3.482 0-6.62-3.138-1.021-1.021-2.192-2.22-3.169-3.537-.274-.369-.271-.855.006-1.155.497-.463 1.001-.354 1.357.062.684.805 1.438 1.727 2.367 2.701.379.403 1.012.421 1.414.043s.422-1.011.043-1.414c-1.816-1.931-3.129-3.659-3.701-4.551-.26-.388-.135-.963.264-1.207.369-.248.905-.15 1.16.216.792 1.125 1.969 2.67 3.469 4.264.379.403 1.012.42 1.414.042s.421-1.011.042-1.414c-1.721-1.81-3.43-4.14-4.321-5.605-.236-.406-.078-.965.339-1.185.421-.233.953-.082 1.182.33.972 1.545 2.174 3.222 4.022 5.228.376.403 1.008.426 1.414.049.403-.376.426-1.009.049-1.413-1.444-1.548-2.56-3.081-3.183-3.993-.239-.391-.14-.907.242-1.171.396-.273.941-.173 1.214.224.476.69 1.774 2.491 3.55 4.298.348.354.701.646.966.849-.108 1.622-.024 3.428-.02 3.522.026.552.499.969 1.047.951.552-.026.978-.495.951-1.047 0-.026-.122-2.638.109-4.208.163-.515.465-.761.946-.773.292-.006.646.205.754.532.068.218.677 1.384.69 4.998 0 4.276-3.438 7.5-7.999 7.5zm-7.541 1.281c-.153.534-.725.835-1.241.678-1.592-.466-2.69-1.562-3.176-3.17-.16-.529.14-1.086.668-1.247.53-.158 1.087.139 1.247.668.292.969.872 1.551 1.824 1.83.53.155.833.71.678 1.241zm9.584-20.57c.159-.528.716-.827 1.246-.668 1.404.424 2.396 1.285 2.949 2.56.219.507-.014 1.096-.521 1.315-.495.219-1.095-.008-1.315-.52-.315-.73-.854-1.188-1.691-1.44-.528-.16-.828-.718-.668-1.247z"/></svg>