<svg id="Layer_1" viewBox="0 0 24 24" xmlns="http://www.w3.org/2000/svg" data-name="Layer 1"><path d="m22.958 12.503c-.133-.791-.565-1.482-1.218-1.946-1.294-.963-3.275-.631-4.184.703-.996 1.398-2.055 2.545-3.172 3.439-.226-1.002-.981-1.841-1.989-2.145-.076-.023-1.874-.555-4.395-.555-2.985 0-5.582.497-5.69.518-.381.074-.686.362-.78.739-.021.087-.53 2.144-.53 4.243s.508 4.156.53 4.243c.094.375.395.662.774.738.106.021 2.632.52 5.696.52 5.679 0 10.539-2.779 14.443-8.26.465-.652.648-1.447.515-2.237zm-2.144 1.077c-3.508 4.923-7.819 7.42-12.814 7.42-1.983 0-3.758-.229-4.666-.371-.139-.71-.334-1.926-.334-3.129s.196-2.414.334-3.127c.921-.142 2.72-.373 4.666-.373 2.21 0 3.805.466 3.819.47.374.113.635.464.635.856 0 .405-.213.74-.575.909-.952.418-1.948.677-2.969.769-.55.05-.956.536-.906 1.086s.537.952 1.086.906c3.838-.347 7.234-2.559 10.096-6.576.304-.446.962-.557 1.395-.234.444.303.554.963.234 1.394zm-14.814-5.58c0 1.429.571 2 2 2s2-.571 2-2c1.402-.202 2-.94 2-3 0-2.857-1.143-4-4-4s-4 1.143-4 4c0 2.06.598 2.798 2 3zm4-4c.552 0 1 .448 1 1s-.448 1-1 1-1-.448-1-1 .448-1 1-1zm-4 0c.552 0 1 .448 1 1s-.448 1-1 1-1-.448-1-1 .448-1 1-1z"/></svg>