<svg id="Layer_1" viewBox="0 0 24 24" xmlns="http://www.w3.org/2000/svg" data-name="Layer 1"><path d="m22.48 7.838c-.03-.15-.095-.292-.188-.414-3.109-4.038-6.551-5.247-6.628-5.27-1.299-.553-2.994.122-3.704 1.473-.372.708-.673 1.717-.854 2.411-3.435-.092-6.306-.869-6.286-.869-1.593-.448-3.253.478-3.702 2.064-.222.769-.129 1.579.26 2.279.382.688 1.005 1.189 1.755 1.415-.751.227-1.373.728-1.755 1.414-.389.7-.481 1.509-.261 2.275.45 1.59 2.113 2.515 3.702 2.067.018-.005 1.569-.434 3.858-.692.437 1.973 1.07 3.778 1.929 5.495.169.339.516.553.894.553 4.244 0 7.403-.79 10.566-2.643.24-.141.411-.376.471-.648.019-.086.463-2.141.463-5.215s-.498-5.59-.52-5.696zm-1.818 10.058c-1.869 1.043-4.37 2.045-8.537 2.137-.761-1.642-1.307-3.386-1.665-5.308-.089-.477-.506-.817-.982-.817-2.893.219-5.249.857-5.203.852-.525.154-1.085-.158-1.235-.691-.159-.513.167-1.095.686-1.231.092-.026 2.288-.644 5.38-.914.517-.045.913-.478.913-.996s-.396-.951-.913-.996c-3.137-.274-5.353-.907-5.379-.915-.521-.137-.846-.718-.686-1.235.15-.529.706-.838 1.228-.689.027.008 2.896.813 6.742.946.327-.005 3.987.002 3.987.002s.001 0 .002 0c.552 0 1-.448 1-1s-.447-.998-.998-1-.885-.002-1.82-.003c.155-.529.349-1.099.549-1.481.225-.428.805-.71 1.216-.538.029.01 2.934 1.055 5.614 4.437.117.667.439 2.725.439 5.078 0 2.062-.218 3.643-.338 4.362z"/></svg>