<svg id="Layer_1" viewBox="0 0 24 24" xmlns="http://www.w3.org/2000/svg" data-name="Layer 1"><path d="m22.5 6.431v-.931c0-1.654-1.346-3-3-3-.532 0-1.032.14-1.465.384-.532-.831-1.472-1.384-2.56-1.384-.759 0-1.452.286-1.979.756-.533-.47-1.239-.756-2.021-.756-1.055 0-1.983.552-2.511 1.383-.433-.243-.932-.383-1.464-.383-1.654 0-3 1.346-3 3v3.431l-2.626 2.909c-.857.975-.933 1.917-.845 2.536.29 2.04 2.679 3.563 4.26 4.571.292.187.55.35.746.489.729.519 1.041 1.136 1.041 2.064 0 .552.448 1 1 1s1-.448 1-1c0-1.586-.616-2.794-1.882-3.694-.218-.155-.504-.338-.829-.545-1.117-.712-3.195-2.038-3.355-3.167-.027-.191-.019-.496.358-.924l2.904-3.219c.417-.414 1.094-.415 1.511 0 .2.198.31.462.31.741s-.11.542-.304.734l-1.391 1.357c-.395.386-.403 1.019-.017 1.415.387.396 1.019.402 1.415.017l1.396-1.364c.581-.576.9-1.343.9-2.159 0-.327-.052-.646-.151-.949.029-.04.057-.082.083-.123.43.241.924.379 1.451.379h.051c.757 0 1.449-.285 1.975-.752.526.468 1.217.752 1.975.752h.051c.761 0 1.456-.288 1.983-.759.53.472 1.228.759 1.992.759.491 0 .955-.12 1.365-.33.077.781.135 1.542.135 2.048 0 4.373-1.157 5.861-1.512 6.213-1.005.998-1.473 2.132-1.472 3.57 0 .552.448.999 1 .999.552 0 .999-.449.999-1.001 0-.905.254-1.528.88-2.149.785-.779 2.104-2.807 2.104-7.632 0-1.496-.431-4.767-.5-5.287zm-16 1.266v-2.197c0-.551.449-1 1-1s1 .449 1 1v2.5.017c-.613-.333-1.319-.441-1.999-.321zm5.025.303h-.051c-.538 0-.975-.437-.975-.975v-2.551c0-.538.437-.975 1.025-.975.538 0 .975.437.975.975v2.551c0 .538-.437.975-.975.975zm4.975-.975c0 .538-.438.975-.975.975h-.051c-.537 0-.975-.437-.975-.975v-2.551c0-.538.438-.975 1.025-.975.537 0 .975.437.975.975v2.551zm3 .975c-.552 0-1-.449-1-1v-1.5c0-.551.448-1 1-1s1 .449 1 1v1.5c0 .551-.448 1-1 1z"/></svg>