<svg id="Layer_1" viewBox="0 0 24 24" xmlns="http://www.w3.org/2000/svg" data-name="Layer 1"><path d="m9.904 6.596c.686.687 1.521 1.224 1.557 1.247.328.21.75.21 1.078 0 .035-.022.871-.56 1.557-1.247.686-.686 1.224-1.521 1.246-1.556.211-.329.211-.75 0-1.079-.022-.035-.56-.87-1.246-1.556-.686-.687-1.521-1.224-1.557-1.247-.328-.21-.75-.21-1.078 0-.035.022-.871.56-1.557 1.247-.686.686-1.224 1.521-1.246 1.556-.211.329-.211.75 0 1.079.022.035.561.87 1.246 1.556zm1.414-2.777c.221-.22.468-.426.682-.59.44.324.948.832 1.272 1.272-.325.44-.832.948-1.272 1.272-.44-.324-.948-.832-1.272-1.272.165-.214.371-.461.591-.682zm11.681 8.234c-.059 4.008-1.215 7.856-3.173 10.56-.326.45-.953.545-1.396.224-.447-.324-.547-.949-.223-1.396 1.722-2.378 2.739-5.81 2.792-9.416.023-1.657-.189-3.434-.632-5.281-.114-.525-.684-.877-1.204-.74-.528.115-.877.684-.74 1.205.755 3.155.754 5.978.025 8.434-.165.607-.406 1.205-.669 1.772-.24.497-.834.708-1.336.464-.497-.24-.705-.838-.465-1.335.21-.434.376-.893.522-1.365.09-.368-.015-.731-.309-.987-.296-.258-.733-.292-1.063-.083-.009.005-.937.602-2.061 1.718.927 1.386 1.942 3.268 2.874 5.804.19.519-.075 1.093-.594 1.284-.505.189-1.094-.07-1.283-.594-2.331-6.349-5.154-8.189-5.183-8.207-.335-.211-.771-.18-1.068.079-.312.273-.447.788-.321 1.189.303 1.047.753 2.054 1.368 3.08.284.474.131 1.088-.343 1.372-.474.285-1.089.131-1.372-.343-1.428-2.391-2.095-4.705-2.14-7.5-.021-1.488.172-3.096.574-4.781.137-.522-.212-1.091-.738-1.206-.533-.127-1.077.203-1.206.74-.438 1.831-.651 3.588-.633 5.221.052 3.589 1.095 7.133 2.791 9.476.324.447.225 1.072-.223 1.396-.443.321-1.071.227-1.396-.224-1.958-2.703-3.114-6.575-3.172-10.623-.021-1.8.211-3.721.688-5.712.386-1.609 2.004-2.604 3.617-2.219 1.577.344 2.626 2.055 2.218 3.617-.364 1.522-.539 2.964-.52 4.286.002.126.011.247.016.371.903-.488 2.027-.477 2.919.084.059.036.838.529 1.916 1.797 1.198-1.153 2.159-1.767 2.207-1.797.905-.57 2.011-.584 2.917-.088.061-1.432-.102-2.984-.502-4.654-.409-1.562.641-3.273 2.22-3.616 1.559-.409 3.273.644 3.615 2.22.481 2.008.712 3.952.687 5.775z"/></svg>