<svg id="Layer_1" viewBox="0 0 24 24" xmlns="http://www.w3.org/2000/svg" data-name="Layer 1"><path d="m17 4.5c0-.828.672-1.5 1.5-1.5s1.5.672 1.5 1.5-.672 1.5-1.5 1.5-1.5-.672-1.5-1.5zm5.495 12.787c-.802 1.081-1.734 2.037-2.545 2.847-2.866 2.866-5.563 2.866-6.45 2.866-4.486 0-7.5-2.813-7.5-7 0-2.674.662-4.25.689-4.315.325-1.003 1.349-1.707 2.474-1.685.626.016 1.18.215 1.625.566 1.131-1.186 1.954-2.323 2.265-2.775.751-1.092 2.252-1.368 3.344-.616.217.15.392.335.543.535.659-.277 1.436-.271 2.111.105.559.31.965.822 1.142 1.439.108.378.111.766.033 1.141.17.06.336.135.494.236.539.345.912.88 1.05 1.508.113.514.049 1.035-.165 1.504.283.132.545.31.764.547.778.842.83 2.144.124 3.096zm-1.594-1.739c-.217-.216-.47-.171-.633.025-.526.611-1.088 1.309-1.794 2.048-.379.403-1.012.421-1.414.043s-.422-1.011-.043-1.414c1.35-1.436 2.324-2.716 2.748-3.377.114-.254.088-.375-.122-.558-.177-.114-.406-.068-.533.093-.601.855-1.49 2.024-2.623 3.227-.379.403-1.012.421-1.414.042-.402-.378-.421-1.011-.042-1.414 1.282-1.347 2.548-3.074 3.208-4.162.093-.254.061-.373-.16-.54-.197-.11-.443-.038-.553.156-.747 1.179-1.662 2.458-3.048 3.963-.377.404-1.01.426-1.413.049-.404-.376-.426-1.009-.049-1.413 1.066-1.143 1.899-2.288 2.365-2.971.098-.179.052-.407-.12-.526-.184-.126-.436-.08-.562.104-.333.49-1.563 2.177-2.877 3.434.14.977.171 2.059.175 2.634.003.552-.441 1.003-.994 1.006-.524.002-1.002-.441-1.006-.994-.003-.533-.029-1.543-.158-2.411-.13-.408-.351-.586-.728-.596-.289.007-.477.155-.555.391-.034.089-.559 1.38-.559 3.609 0 3.038 2.159 5 5.5 5 .682 0 2.756 0 5.036-2.28.795-.795 1.632-1.653 2.353-2.625.132-.178.137-.413.013-.548zm-13.89-5.865c.963-.981 1.308-1.51 1.673-2.071.134-.177.307-.582.55-.605.163-.08.507.186.475.354.062.549.559.947 1.105.882.549-.062.944-.557.882-1.105-.078-.692-.451-1.316-1.024-1.713-1.049-.756-2.633-.463-3.344.616-.535.779-.674 1.12-1.537 2.027-.449-.354-1.006-.552-1.627-.567-1.15-.022-2.149.681-2.474 1.685-.028.065-.689 1.641-.689 4.315 0 2.085.838 3.932 2.359 5.201.422.352 1.053.298 1.409-.127.354-.424.296-1.055-.127-1.409-1.073-.895-1.641-2.162-1.641-3.665 0-2.229.525-3.52.559-3.609.078-.236.277-.392.555-.391.405.01.563.232.656.424.13.271.376.469.669.539.292.071.601.004.84-.179.478-.366.635-.502.732-.602zm5.25-5.714c.342.612.988 1.031 1.739 1.031 1.105 0 2-.895 2-2s-.895-2-2-2c-.755 0-1.404.423-1.745 1.041-.55-.633-1.351-1.041-2.255-1.041-1.57 0-2.843 1.21-2.974 2.746.71-.469 1.559-.746 2.474-.746 1.047 0 2.001.366 2.761.969z"/></svg>