<svg id="Layer_1" viewBox="0 0 24 24" xmlns="http://www.w3.org/2000/svg" data-name="Layer 1"><path d="m13.54 23c-3.064 0-5.59-.498-5.696-.52-.15-.03-.292-.094-.414-.188-4.039-3.11-5.248-6.551-5.297-6.696-.526-1.23.149-2.926 1.5-3.635.771-.405 1.897-.727 2.586-.901.089-.783.225-1.613.43-2.338.121-.426.508-.722.951-.728.865-.012 1.523-.04 2.438-.031.038-2.106-.146-3.547-.148-3.564-.22-1.635.933-3.149 2.569-3.372.788-.109 1.579.097 2.217.581.639.485 1.05 1.189 1.159 1.984.013.091.286 2.109.189 5.023 2.011.457 3.986 1.133 5.522 2.017.31.178.501.509.501.867 0 4.244-.791 7.404-2.643 10.566-.141.241-.376.412-.648.471-.086.019-2.142.463-5.215.463zm-5.078-2.439c.667.117 2.726.439 5.078.439 2.063 0 3.644-.217 4.362-.338 1.046-1.875 2.051-4.384 2.138-8.573-1.45-.755-3.33-1.321-5.241-1.685-.492-.094-.839-.538-.811-1.039.178-3.179-.132-5.478-.136-5.5-.062-.534-.591-.94-1.123-.855-.548.074-.932.58-.858 1.126.002.02.271 2.054.131 4.899-.027.548-.49.975-1.04.95-.942-.037-1.715-.02-2.559-.004-.354 1.782-.36 3.97-.36 3.995v1.023c0 .552-.448 1-1 1s-1-.448-1-1c.004-.695-.012-.963.018-1.824-.534.156-1.112.352-1.5.555-.426.224-.71.804-.563 1.15.035.093 1.08 2.999 4.462 5.679z"/></svg>