<svg id="Layer_1" viewBox="0 0 24 24" xmlns="http://www.w3.org/2000/svg" data-name="Layer 1"><path d="m22.687 6.547c-.25-1.636-1.791-2.76-3.417-2.513-.347.053-.672.173-.972.335 0-.004-.002-.009-.002-.012-.172-.782-.639-1.451-1.315-1.884-.675-.432-1.478-.575-2.257-.404-.402.088-.773.256-1.098.488-.269-.492-.666-.902-1.168-1.181-.7-.388-1.51-.481-2.276-.261-1.015.289-1.755 1.073-2.044 2.013-.432-.125-.893-.165-1.365-.079-.788.145-1.473.588-1.927 1.249-.455.66-.625 1.457-.479 2.245.247 1.337.52 2.772.604 4.652-.775-.281-1.643-.242-2.409.157-1.123.586-1.741 1.864-1.489 3.173.049.188 1.248 4.632 5.318 7.767.122.094.263.158.414.188.106.021 2.644.52 6.696.52s6.129-.444 6.215-.463c.272-.06.507-.23.648-.471 1.67-2.851 2.637-5.412 2.637-10.066 0-1.644-.024-3.556-.313-5.453zm-3.82 14.11c-.764.12-2.562.343-5.366.343-3.171 0-5.39-.325-6.079-.44-3.35-2.688-4.397-6.475-4.4-6.475-.074-.383.118-.778.465-.959.379-.198.8-.149 1.118.126.014.013 1.443 1.293 2.516 3.276.262.486.868.666 1.355.403.486-.263.666-.87.403-1.355-.616-1.139-1.324-2.067-1.894-2.725.008-.28.015-.561.015-.85-.01-2.429-.385-4.274-.668-5.819-.1-.542.26-1.064.801-1.164.549-.101 1.067.26 1.166.802.392 1.304.565 2.97.684 5.216.019.552.467.979 1.034.965.552-.019.984-.482.965-1.034-.128-3.701-.908-6.563-.943-6.69-.15-.531.159-1.085.69-1.236.514-.159 1.096.167 1.233.688.009.031.898 3.165 1.023 7.303.016.542.46.97.999.97h.031c.552-.017.986-.478.97-1.03-.067-2.219-.338-4.15-.594-5.537-.103-.591.091-1.281.761-1.41.519-.126 1.086.239 1.19.763.243 1.111.558 3.414.643 6.244.016.553.482.987 1.03.969.552-.017.986-.478.97-1.03-.043-1.401-.139-2.668-.256-3.754-.088-.55.266-1.13.842-1.204.544-.082 1.056.293 1.14.838.268 1.758.29 3.508.29 5.15 0 4.006-.748 6.208-2.134 8.657zm-3.866-5.657c0 .552-.448 1-1 1s-1-.448-1-1 .448-1 1-1 1 .448 1 1zm4 0c0 .552-.448 1-1 1s-1-.448-1-1 .448-1 1-1 1 .448 1 1zm-2 3c0 .552-.448 1-1 1s-1-.448-1-1 .448-1 1-1 1 .448 1 1zm-4 0c0 .552-.448 1-1 1s-1-.448-1-1 .448-1 1-1 1 .448 1 1z"/></svg>