<svg id="Layer_1" viewBox="0 0 24 24" xmlns="http://www.w3.org/2000/svg" data-name="Layer 1"><path d="m22.959 12.503c-.133-.79-.565-1.481-1.219-1.946-.652-.466-1.449-.65-2.237-.516-.79.133-1.48.565-1.946 1.219-.996 1.397-2.055 2.545-3.172 3.439-.227-1.003-.982-1.842-1.99-2.146-.075-.022-1.873-.554-4.395-.554-2.984 0-5.581.497-5.69.519-.382.074-.686.362-.779.739-.022.086-.53 2.144-.53 4.242s.508 4.156.53 4.242c.094.375.395.663.773.738.106.021 2.633.52 5.696.52 5.68 0 10.539-2.779 14.443-8.26.465-.652.647-1.447.516-2.237zm-2.145 1.077c-3.508 4.924-7.819 7.42-12.814 7.42-1.983 0-3.758-.229-4.665-.371-.14-.711-.335-1.926-.335-3.129s.195-2.414.335-3.127c.921-.142 2.72-.373 4.665-.373 2.21 0 3.805.465 3.818.47.374.112.636.464.636.855.004.456-.288.82-.712.969-.913.385-1.858.622-2.832.71-.55.05-.956.536-.906 1.086s.543.965 1.086.906c3.838-.347 7.078-2.676 10.096-6.576.404-.522.965-.556 1.395-.234.445.304.555.963.234 1.395zm-15.814-8.58c0-.553.447-1 1-1h2v-2c0-.553.447-1 1-1s1 .447 1 1v2h2c.553 0 1 .447 1 1s-.447 1-1 1h-2v2c0 .553-.447 1-1 1s-1-.447-1-1v-2h-2c-.553 0-1-.447-1-1z"/></svg>