<svg id="Layer_1" viewBox="0 0 24 24" xmlns="http://www.w3.org/2000/svg" data-name="Layer 1"><path d="m20.943 8.714c-.673-.572-1.562-.82-2.44-.674-.453.074-.865.267-1.224.531-.551-.65-1.362-1.072-2.279-1.072-.646 0-1.242.21-1.732.559-.551-.642-1.358-1.059-2.268-1.059-.113 0-.22.021-.33.033-.326-2.328-.762-3.846-.765-3.857-.411-1.558-2.163-2.536-3.704-2.061-1.589.452-2.516 2.113-2.066 3.704.003.011.127.416.282 1.18-.139 0-.232 0-.251 0-1.24 0-2.099.201-2.157.718-.063.563 1.024 1.282 1.024 1.282s-1.086.719-1.024 1.282c.058.53.928.718 2.157.718h.787c.016.227.029.506.039.741-.444.253-.922.553-1.425.914-1.441.96-1.935 2.555-1.279 4.183-.023.016 1.706 3.71 5.39 6.571.255.138 1.354.589 4.819.591h.004.02.004c3.534-.002 6.039-.436 6.145-.455.289-.051.541-.226.689-.479 1.942-3.21 2.708-6.933 2.643-11.066 0-.881-.385-1.714-1.057-2.286zm-2.119 1.3c.593-.118 1.19.38 1.176.986.003.33-.003.762-.017 1.084-.045.51-.461.916-.983.916-.552 0-1-.449-1-1v-.893c0-.537.362-1.017.824-1.093zm-3.824-.514c.552 0 1 .449 1 1v1.5c0 .551-.448 1-1 1s-1-.449-1-1v-1.5c0-.551.448-1 1-1zm-3 .5v2c0 .551-.448 1-1 1-.01 0-.02-.004-.031-.004.106-.617.024-1.264-.272-1.855-.175-.349-.416-.642-.697-.884v-.257c0-.551.448-1 1-1s1 .449 1 1zm-5.941-5.725c-.149-.531.16-1.085.691-1.236.517-.158 1.095.167 1.233.692.003.012.254.852.507 2.272-.663-.001-1.378-.002-2.035-.003-.207-1.1-.393-1.715-.396-1.725zm11.808 16.37c-.856.12-2.849.354-5.356.355-2.579 0-3.607-.268-3.832-.334-3.284-2.765-4.541-5.591-4.544-5.596-.364-.905.094-1.452.57-1.771 1.655-1.188 3.027-1.662 3.303-1.75.376-.046.734.153.902.487.192.384.135.805-.152 1.125-.005.006-.511.562-1.229.968-.48.271-.65.882-.378 1.363s.883.65 1.362.378c.648-.366 1.152-.799 1.448-1.082.334.125.681.212 1.041.212.771 0 1.468-.301 2-.78.532.48 1.229.78 2 .78s1.468-.301 2-.78c.532.48 1.229.78 2 .78.267 0 .522-.046.769-.112-.365 2.567-1.118 4.348-1.903 5.757z"/></svg>