<svg id="Layer_1" viewBox="0 0 24 24" xmlns="http://www.w3.org/2000/svg" data-name="Layer 1"><path d="m22.977 15.675c-.105-.479-.546-.78-1.012-.766.024-.703.035-1.48.035-1.909 0-5.73-2.001-8.723-6.459-9.667-.085-.666-.15-1.022-.159-1.064-.058-.306-.254-.567-.532-.707-.114-.058-1.161-.562-2.851-.562s-2.736.504-2.851.562c-.278.14-.474.401-.532.707-.008.042-.073.398-.158 1.064-4.458.944-6.459 3.938-6.459 9.667 0 .429.011 1.206.035 1.91-.471-.014-.907.286-1.012.765-.119.539.223 1.072.762 1.19.035.008.212.046.488.101.51 3.089 3.012 5.518 6.137 5.838 1.286.13 2.493.196 3.589.196s2.304-.066 3.59-.196c3.124-.32 5.627-2.748 6.137-5.838.276-.055.453-.093.488-.101.539-.118.88-.651.762-1.19zm-14.735-10.228c-.129 1.586-.242 3.767-.242 6.553l.005 1.009c.005.55.452.991 1 .991h.009c.552-.005.996-.457.991-1.009l-.005-.991c0-4.697.334-7.65.497-8.807.338-.093.853-.193 1.503-.193s1.167.101 1.504.193c.162 1.155.496 4.108.496 8.807l-.005.991c-.005.552.438 1.004.991 1.009h.009c.548 0 .995-.441 1-.991l.005-1.009c0-2.785-.113-4.967-.242-6.553 2.994.874 4.242 3.133 4.242 7.553 0 .521-.017 1.531-.05 2.257-1.885.319-4.957.743-7.95.743s-6.065-.425-7.949-.743c-.031-.696-.051-1.674-.051-2.257 0-4.42 1.248-6.679 4.242-7.553zm7.146 15.366c-1.219.124-2.358.187-3.388.187s-2.168-.062-3.387-.187c-1.984-.203-3.62-1.604-4.212-3.47 1.964.31 4.785.656 7.599.656s5.635-.346 7.599-.656c-.592 1.866-2.228 3.267-4.211 3.47z"/></svg>