<svg id="Layer_1" viewBox="0 0 24 24" xmlns="http://www.w3.org/2000/svg" data-name="Layer 1"><path d="m20.915 3.08c-1.42-1.42-2.706-2.082-4.045-2.082-1.329 0-2.604.653-4.01 2.048-2.403-1.272-4.105-1.93-4.242-1.982-.276-.106-.585-.083-.842.06-.088.048-2.154 1.205-3.799 2.851-1.646 1.646-2.803 3.713-2.851 3.8-.144.258-.165.566-.061.842.029.076.692 1.789 1.987 4.236-1.399 1.407-2.053 2.684-2.053 4.014 0 1.34.661 2.626 2.082 4.046.949.949 2.323 2.088 4.034 2.088.428 0 .878-.071 1.347-.235 1.38-.448 4.416-2.544 8.089-6.217 3.674-3.674 5.77-6.71 6.211-8.069.823-2.363-.659-4.214-1.846-5.4zm-1.524 6.635c-1.428 1.086-2.904 1.443-5.311 1.519.928-1.024 1.869-2.162 2.815-3.394.829.575 1.668 1.201 2.497 1.875zm-2.521-6.717c.765 0 1.625.489 2.632 1.496 1.654 1.654 1.622 2.611 1.365 3.349-.027.083-.081.209-.161.368-2.049-1.674-4.142-3.057-6-4.139.807-.706 1.523-1.073 2.164-1.073zm-11.479 2.391c1.041-1.04 2.316-1.884 2.954-2.277 1.033.434 3.761 1.653 6.879 3.621-1.305 1.69-2.627 3.226-3.869 4.475-.96-.101-1.949-.19-2.894-.21-1.349-.006-2.623.227-3.749.719-.805-1.537-1.341-2.757-1.598-3.373.392-.636 1.232-1.91 2.278-2.955zm2.433 15.483c-.718.249-1.676.282-3.329-1.371-1.007-1.007-1.496-1.867-1.496-2.632s.489-1.625 1.496-2.632c.936-.936 2.324-1.248 3.965-1.24 1.397.035 2.864.229 4.308.257 1.801 0 3.241-.093 4.513-.389-.619.697-1.327 1.453-2.144 2.271-4.063 4.063-6.692 5.534-7.313 5.736z"/></svg>