<?xml version="1.0" encoding="UTF-8"?>
<svg xmlns="http://www.w3.org/2000/svg" id="Layer_1" data-name="Layer 1" viewBox="0 0 24 24">
  <path d="M20.838,8.517c-.079-.781-.334-1.839-.446-2.204-1.043-3.398-4.224-5.285-8.968-5.313C4.918,1.039,1.119,4.763,1,11.253c.07,4.044,2.155,6.206,3.716,7.48,.522,.427,.848,.971,.917,1.534,.134,1.099,.303,1.557,.352,1.671,.128,.302,.396,.522,.718,.589,.093,.019,2.313,.472,4.445,.472,.509,0,1.071-.027,1.668-.081,.55-.05,.956-.536,.906-1.086-.049-.549-.524-.942-1.086-.906-.538,.049-1.039,.073-1.489,.073-1.293,0-2.665-.193-3.431-.321-.031-.168-.065-.384-.098-.654-.131-1.077-.712-2.086-1.637-2.841-1.359-1.109-2.927-2.79-2.981-5.93,.01-.562,.051-1.086,.119-1.577l8.135,4.068,2.851,5.702c.169,.339,.516,.553,.895,.553,2.971,0,8-1.053,8-5,0-3.52-1.518-5.712-2.162-6.483Zm-8.498,3.535L3.602,7.683c1.373-3.751,4.836-4.665,7.821-4.683,2.192,.013,6.023,.537,7.057,3.901,.127,.413,.328,1.365,.372,1.859-.202,.471-.925,1.915-2.495,2.752-1.743,.931-3.607,.625-4.018,.541Zm3.263,5.918l-1.901-3.802c1.02-.014,2.319-.209,3.598-.892,1.282-.685,2.144-1.645,2.692-2.458,.487,.893,1.007,2.288,1.007,4.182,0,2.347-3.874,2.86-5.397,2.97Z"/>
</svg>
