<?xml version="1.0" encoding="UTF-8"?>
<svg xmlns="http://www.w3.org/2000/svg" id="Layer_1" data-name="Layer 1" viewBox="0 0 24 24">
  <path d="M21.954,10.933c-.534-.767-1.198-1.721-1.198-2.395,0-.677-.188-1.651-.363-2.226-1.044-3.398-4.225-5.285-8.969-5.313C4.918,1.039,1.119,4.763,1,11.253c.07,4.043,2.155,6.206,3.717,7.48,.522,.427,.848,.972,.916,1.533,.134,1.099,.304,1.559,.353,1.673,.128,.302,.396,.521,.718,.588,.094,.019,2.313,.472,4.444,.472,2.09,0,4.297-.453,4.39-.473,.183-.038,.352-.126,.487-.255,.239-.228,.524-.721,.669-1.783,1.832-.079,4.698-.563,4.698-3.553v-1.622c.512-.344,1.223-.923,1.507-1.633,.354-.883-.248-1.747-.944-2.747Zm-2.033,2.937c-.326,.174-.529,.513-.529,.882v2.184c0,.625,0,1.568-3.617,1.568-.536,0-.977,.422-.999,.958-.025,.593-.09,.973-.146,1.201-.732,.126-2.154,.338-3.482,.338-1.293,0-2.665-.193-3.431-.321-.031-.168-.065-.384-.099-.654-.131-1.076-.712-2.085-1.637-2.841-1.359-1.109-2.927-2.79-2.981-5.93C3.125,4.473,7.656,3.022,11.424,3c2.678,.016,6.075,.705,7.057,3.9,.13,.424,.275,1.202,.275,1.639,0,1.301,.863,2.541,1.557,3.537,.215,.308,.521,.748,.643,.998-.199,.249-.661,.595-1.034,.796Z"/>
  <path d="M16,10h-1.102c-.073-.364-.185-.698-.332-1.002,.797-.035,1.434-.693,1.434-1.498,0-.827-.673-1.5-1.5-1.5-.803,0-1.461,.634-1.498,1.428-.303-.148-.638-.259-1.002-.331v-1.098c0-.552-.447-1-1-1s-1,.448-1,1v1.092c-.365,.069-.7,.176-1.003,.32-.046-.786-.7-1.412-1.497-1.412-.827,0-1.5,.673-1.5,1.5,0,.8,.63,1.456,1.42,1.498-.143,.303-.251,.637-.321,1.002h-1.099c-.553,0-1,.448-1,1s.447,1,1,1h1.096c.068,.366,.172,.701,.311,1.003-.784,.048-1.408,.701-1.408,1.497,0,.827,.673,1.5,1.5,1.5,.793,0,1.445-.619,1.496-1.4,.302,.14,.637,.243,1.004,.31v1.09c0,.552,.447,1,1,1s1-.448,1-1v-1.089c.366-.067,.701-.17,1.004-.311,.052,.78,.703,1.399,1.496,1.399,.827,0,1.5-.673,1.5-1.5,0-.798-.626-1.452-1.413-1.497,.139-.302,.243-.636,.312-1.003h1.101c.553,0,1-.448,1-1s-.447-1-1-1Zm-4.994,3c-1.411-.008-1.976-.569-2.006-2,.03-1.43,.595-1.991,1.993-2,1.383,.009,1.982,.612,2.007,1.981-.027,1.463-.57,2.01-1.994,2.019Z"/>
</svg>
