<?xml version="1.0" encoding="UTF-8"?>
<svg xmlns="http://www.w3.org/2000/svg" id="Layer_1" data-name="Layer 1" viewBox="0 0 24 24">
  <path d="M13.181,5.099c-.393,.002-.756,.048-1.088,.137-.507-.298-1.127-.452-1.855-.457-1.613,.01-2.719,.768-3.127,2.106-1.327,.4-2.087,1.509-2.115,3.161,.015,.796,.195,1.462,.541,1.988-.035,.221-.055,.458-.06,.715,.038,2.093,1.251,3.301,3.338,3.313,.505-.003,.931-.076,1.292-.196v2.282c0,.552,.447,1,1,1s1-.448,1-1v-3.457c1.683-.276,2.683-1.433,2.802-3.296,.776-.389,1.578-1.211,1.61-2.946v-.037c-.037-2.061-1.28-3.3-3.338-3.314Zm.508,4.617c-.512,.104-.856,.584-.792,1.103,.014,.109,.021,.223,.022,.308-.021,1.197-.445,1.624-1.607,1.63-.088,0-.173-.004-.257-.01-.454-.038-.873,.243-1.02,.674-.076,.222-.218,.636-1.221,.642-.982-.006-1.319-.347-1.338-1.313,.005-.257,.037-.481,.095-.666,.115-.363,.014-.759-.261-1.023-.2-.192-.307-.545-.315-1.014,.018-1.017,.4-1.251,1.057-1.314,.474-.045,.85-.418,.898-.891,.07-.667,.306-1.055,1.287-1.062,.316,.002,.746,.056,.994,.297,.305,.296,.764,.368,1.144,.178,.201-.101,.477-.153,.805-.155,.953,.006,1.317,.368,1.339,1.332-.023,1.034-.423,1.202-.83,1.285Z"/>
  <path d="M21.954,10.933c-.534-.767-1.198-1.721-1.198-2.395,0-.677-.188-1.651-.363-2.226-1.044-3.398-4.225-5.285-8.969-5.313C4.918,1.039,1.119,4.763,1,11.253c.07,4.043,2.155,6.206,3.717,7.48,.522,.427,.848,.972,.916,1.533,.134,1.099,.304,1.559,.353,1.673,.128,.302,.396,.521,.718,.588,.094,.019,2.313,.472,4.444,.472,2.09,0,4.297-.453,4.39-.473,.183-.038,.352-.126,.487-.255,.239-.228,.524-.721,.669-1.783,1.832-.079,4.698-.563,4.698-3.553v-1.622c.512-.344,1.223-.923,1.507-1.633,.354-.883-.248-1.747-.944-2.747Zm-2.033,2.937c-.326,.174-.529,.513-.529,.882v2.184c0,.625,0,1.568-3.617,1.568-.536,0-.977,.422-.999,.958-.025,.593-.09,.973-.146,1.201-.732,.126-2.154,.338-3.482,.338-1.293,0-2.665-.193-3.431-.321-.031-.168-.065-.384-.099-.654-.131-1.076-.712-2.085-1.637-2.841-1.359-1.109-2.927-2.79-2.981-5.93C3.125,4.473,7.656,3.022,11.424,3c2.678,.016,6.075,.705,7.057,3.9,.13,.424,.275,1.202,.275,1.639,0,1.301,.863,2.541,1.557,3.537,.215,.308,.521,.748,.643,.998-.199,.249-.661,.595-1.034,.796Z"/>
</svg>
