<svg id="Layer_1" viewBox="0 0 24 24" xmlns="http://www.w3.org/2000/svg" data-name="Layer 1"><path d="m22.974 13.271c-.703-2.985-1.878-5.547-3.809-8.306-1.938-2.914-4.714-3.98-8.665-3.965-6.659 0-9.5 2.841-9.5 9.5 0 3.302.759 4.894 2.16 6.675.542.688.84 1.557.84 2.447v1.378c0 .352.185.677.485.857.078.047 1.945 1.143 5.515 1.143s5.437-1.096 5.515-1.143c.301-.181.485-.506.485-.857v-1.063c2.039-.177 3.258-.577 3.316-.597.337-.112.59-.396.662-.743.019-.088.397-1.917.57-3.83 1.038-.138 1.656-.287 1.688-.295.533-.131.862-.666.736-1.201zm-11.974-4.271c1.589 0 2 .411 2 2s-.411 2-2 2-2-.411-2-2 .411-2 2-2zm8.512 3.874c-.491.049-.873.45-.899.943-.073 1.401-.326 2.945-.477 3.771-.613.144-1.716.35-3.179.413-.535.023-.957.464-.957.999v1.357c-.666.256-2.005.643-4 .643s-3.337-.388-4-.642v-.736c0-1.337-.45-2.646-1.268-3.684-1.174-1.492-1.732-2.688-1.732-5.438 0-5.364 1.852-7.368 7-7.488v4.062c-2.013.304-3 1.594-3 3.926 0 2.691 1.309 4 4 4s4-1.309 4-4c0-2.332-.987-3.622-3-3.926v-4.015c2.665.207 4.123 1.046 5.526 3.052 1.578 2.254 2.576 4.28 3.237 6.604-.343.054-.765.11-1.252.159z"/></svg>