<svg id="Layer_1" viewBox="0 0 24 24" xmlns="http://www.w3.org/2000/svg" data-name="Layer 1"><path d="m13 7c-.782 0-1.477.267-2 .718-.523-.451-1.218-.718-2-.718-1.654 0-3 1.417-3 3.16 0 3.956 4.42 5.88 4.609 5.96.25.106.532.106.782 0 .188-.08 4.609-2.004 4.609-5.96 0-1.743-1.346-3.16-3-3.16zm-2 7.084c-.894-.483-3-1.843-3-3.924 0-.64.449-1.16 1-1.16.461 0 1 .252 1 .964 0 .552.448 1 1 1s1-.448 1-1c0-.711.539-.964 1-.964.551 0 1 .521 1 1.16 0 2.081-2.107 3.441-3 3.924zm11.974-.813c-.703-2.986-1.877-5.548-3.808-8.306-2.023-2.891-4.372-3.965-8.666-3.965-6.659 0-9.5 2.841-9.5 9.5 0 3.301.759 4.893 2.161 6.675.541.688.839 1.558.839 2.447v1.378c0 .351.184.677.485.857.078.047 1.945 1.143 5.515 1.143s5.437-1.096 5.515-1.143c.301-.181.485-.506.485-.857v-1.063c2.039-.178 3.258-.577 3.316-.597.337-.112.59-.396.663-.744.018-.088.397-1.916.57-3.83 1.038-.138 1.656-.287 1.688-.295.534-.13.862-.666.737-1.201zm-3.462-.397c-.491.049-.874.45-.899.943-.073 1.402-.326 2.945-.476 3.771-.614.144-1.716.35-3.18.413-.535.023-.957.463-.957.999v1.358c-.666.255-2.004.642-4 .642s-3.337-.388-4-.642v-.736c0-1.336-.45-2.644-1.267-3.684-1.174-1.493-1.733-2.688-1.733-5.438 0-5.538 1.962-7.5 7.5-7.5 3.67 0 5.378.756 7.027 3.112 1.578 2.253 2.576 4.28 3.237 6.603-.343.054-.765.11-1.252.159z"/></svg>