<?xml version="1.0" encoding="UTF-8"?>
<svg xmlns="http://www.w3.org/2000/svg" id="Layer_1" data-name="Layer 1" viewBox="0 0 24 24">
  <path d="M22.18,10.128c-1.474-.268-2.491-.211-3.026,.171-.264,.189-.42,.497-.417,.822,0,.017,.006,1.719-.595,3.498-.264,.78-.809,1.552-1.347,2.181-.154-1.577-.362-3.618-.499-4.578-.867-6.091-3.47-7.885-3.765-8.069-.324-.204-.738-.204-1.062,0-.294,.185-2.898,1.979-3.765,8.069-.104,.737-.333,2.252-.499,3.348-.509-.297-1.089-.757-1.464-1.43-.364-.654-.486-2.197-.478-3.016,.003-.34-.166-.659-.45-.847-.534-.351-1.539-.402-2.985-.15-.544,.095-.908,.612-.813,1.156,.094,.543,.61,.907,1.156,.814,.372-.064,.789-.107,1.117-.12,.053,.894,.215,2.253,.707,3.135,1.215,2.182,3.654,2.829,3.757,2.856,.275,.07,1.068,.031,1.237-.818,0,0,.52-3.413,.696-4.647,.501-3.524,1.639-5.334,2.314-6.131,.681,.802,1.816,2.612,2.316,6.132,.228,1.599,.681,6.539,.689,6.588,.195,1.137,1.288,.985,1.629,.682,.102-.091,2.604-2.15,3.403-4.515,.433-1.28,.598-2.505,.662-3.29,.327,.014,.749,.059,1.123,.127,.547,.098,1.064-.261,1.163-.805,.099-.543-.26-1.063-.803-1.163Z"/>
</svg>
