<svg id="Layer_1" viewBox="0 0 24 24" xmlns="http://www.w3.org/2000/svg" data-name="Layer 1"><path d="m17 1c-1.819 0-3.53.809-4.996 1.859-1.71-1.229-3.392-1.859-5.004-1.859-4.149 0-6 1.851-6 6 0 6.594 3.37 9.92 4.81 11.34l.929.935c.997 1.015 2.028 2.064 3.222 2.996.547.428 1.197.635 1.844.635 1.22.03 2.487-.844 2.841-2.064 1.316.946 3.299.574 4.181-.777.542-.79.68-1.82.334-2.717.484-.203.926-.521 1.26-.974.978-1.335.688-3.216-.646-4.192-1.263-.924-2.811-2.025-4.32-3.659.263-.272.528-.551.802-.867.361-.417.316-1.049-.102-1.41-.417-.361-1.049-.316-1.41.102-2.332 2.693-4.255 3.514-4.332 3.548-.387.188-.808.126-1.123-.162-.273-.251-.361-.651-.225-.991.435-.628 4.096-5.74 7.936-5.74 3.028 0 4 .972 4 4 0 1.143-.155 1.991-.475 2.593-.259.488-.072 1.094.415 1.353s1.093.072 1.353-.415c.476-.898.707-2.053.707-3.53 0-4.149-1.851-6-6-6zm-9.645 6.696c-.646 1.14-.38 2.627.581 3.508.576.529 1.312.801 2.04.801.429 0 .854-.094 1.245-.284.066-.027 1.194-.508 2.772-1.832 1.641 1.774 3.324 2.971 4.598 3.905.439.307.542.971.216 1.396-.342.469-.982.529-1.44.198-.741-.576-1.789-1.445-2.99-2.606-.397-.383-1.03-.373-1.414.023-.384.397-.373 1.03.023 1.414 1.288 1.246 2.674 2.422 3.926 3.328.451.294.574.953.26 1.391-.291.448-.953.57-1.389.261-.894-.61-2.624-2-4.56-3.909-.392-.388-1.026-.384-1.414.01s-.384 1.026.01 1.414c.935.936 1.823 1.7 2.603 2.404.435.341.512.971.171 1.405-.339.435-.971.511-1.402.172-1.09-.852-2.075-1.854-3.027-2.822l-.95-.956c-1.367-1.35-4.214-4.158-4.214-9.916 0-3.028.972-4 4-4 1.053 0 2.19.411 3.385 1.184-1.783 1.659-2.938 3.374-3.03 3.512z"/></svg>