<svg id="Layer_1" viewBox="0 0 24 24" xmlns="http://www.w3.org/2000/svg" data-name="Layer 1"><path d="m12 20.983c-1.398 0-2.773-.359-3.976-1.04-1.221-.69-2.232-1.396-3.094-2.16-2.574-2.285-3.896-4.754-3.93-7.34.134-4.374 2.904-7.416 6.737-7.44 1.464.06 2.667.624 3.626 1.679l1.403 1.675c.15.18.233.407.233.642v12.983c0 .552-.448 1-1 1zm-4.297-15.98c-2.693.019-4.603 2.212-4.703 5.459.027 1.956 1.123 3.931 3.257 5.826.754.668 1.654 1.295 2.751 1.915.615.348 1.291.584 1.992.699v-11.539l-1.143-1.366c-.575-.632-1.268-.958-2.154-.994z"/></svg>