<?xml version="1.0" encoding="UTF-8"?>
<svg xmlns="http://www.w3.org/2000/svg" id="Layer_1" data-name="Layer 1" viewBox="0 0 24 24">
  <path d="M20.597,4.76h0c-1.217-1.125-2.819-1.738-4.382-1.669-1.421,.059-2.731,.666-3.69,1.711l-.525,.571-.525-.571c-.959-1.045-2.27-1.652-3.69-1.711-1.561-.066-3.166,.544-4.382,1.669-1.169,1.082-2.499,3.275-2.396,5.895,.107,2.745,1.691,5.345,4.708,7.726,.674,.533,3.276,2.533,6.287,2.533,3.266,0,6.208-2.427,7.065-3.181,2.577-2.263,3.901-4.709,3.934-7.271,.033-2.537-1.273-4.656-2.402-5.701Zm-5.603,13.364c-1.875,1.049-4.113,1.049-5.976,.008-.413-.239-5.817-3.201-6.015-7.557-.094-2.073,1.029-3.75,1.756-4.347,2.623-2.154,4.636-.734,5.241-.075l.712,.776-.728,1.009c-.765,1.061-.77,2.489-.013,3.556l.359,.505c.262,.369,.26,.862-.005,1.229l-1.2,1.657c-.324,.447-.224,1.073,.224,1.396,.177,.129,.382,.19,.585,.19,.31,0,.615-.144,.811-.413l1.201-1.658c.768-1.062,.773-2.492,.015-3.56l-.358-.505c-.262-.368-.26-.861,.004-1.228l1.177-1.632,1.214-1.323c.605-.659,2.661-2.058,5.241,.075,.699,.578,1.823,2.196,1.76,4.206-.132,4.209-4.904,7.074-6.005,7.689Z"/>
</svg>
