<svg id="Layer_1" viewBox="0 0 24 24" xmlns="http://www.w3.org/2000/svg" data-name="Layer 1"><path d="m23.502 11.685c-1.267-3.816-3.061-7.026-5.485-9.814-.145-.167-.341-.281-.558-.324-.112-.022-2.76-.546-5.459-.546s-5.348.523-5.459.546c-.217.043-.413.157-.558.324-2.425 2.787-4.219 5.997-5.485 9.814-.068.205-.068.426 0 .631 1.267 3.816 3.061 7.026 5.485 9.814.145.167.341.281.558.324.112.022 2.76.546 5.459.546s5.348-.523 5.459-.546c.217-.043.413-.157.558-.324 2.424-2.788 4.218-5.998 5.485-9.814.068-.205.068-.426 0-.631zm-6.768 8.869c-.772.135-2.769.446-4.734.446s-3.962-.312-4.734-.446c-2.068-2.446-3.63-5.25-4.764-8.554 1.134-3.304 2.695-6.107 4.764-8.554.772-.135 2.769-.446 4.734-.446s3.962.312 4.734.446c2.068 2.446 3.63 5.25 4.764 8.554-1.134 3.304-2.695 6.107-4.764 8.554z"/></svg>