<svg id="Layer_1" viewBox="0 0 24 24" xmlns="http://www.w3.org/2000/svg" data-name="Layer 1"><path d="m11.669 7.808c.014.069.331 1.724.331 4.192.018 1.977-.321 4.287-.331 4.192-.093.477-.511.808-.98.808-.62.006-1.108-.581-.983-1.19.002-.013.194-1.042.265-2.639-.411-.086-.946-.17-1.471-.17s-1.06.084-1.471.17c.072 1.598.263 2.627.265 2.639.105.542-.249 1.066-.791 1.171-.528.107-1.069-.244-1.172-.789-.013.064-.347-2.192-.331-4.192 0-2.468.317-4.123.331-4.192.106-.542.63-.898 1.172-.789.542.105.896.63.791 1.171-.003.014-.221 1.169-.279 2.947.446-.077.963-.137 1.485-.137s1.039.061 1.485.137c-.058-1.778-.277-2.933-.279-2.947-.105-.542.249-1.066.791-1.171.541-.109 1.066.247 1.172.789zm7.331 4.192c0 2.146-.399 5-3.857 5h-1.143c-.553 0-1-.448-1-1v-8c0-.552.447-1 1-1h1.143c3.458 0 3.857 2.854 3.857 5zm-2 0c0-3-1.087-3-2-3v6c.913 0 2 0 2-3zm6 0c0 4.341-.742 7.325-.773 7.45-.091.359-.373.639-.732.727-.138.033-3.443.823-9.494.823s-9.356-.79-9.494-.823c-.359-.088-.641-.367-.732-.727-.032-.125-.774-3.109-.774-7.45s.743-7.326.774-7.45c.091-.359.373-.639.732-.727.138-.033 3.443-.823 9.494-.823s9.356.79 9.494.823c.359.088.642.368.732.727.031.125.773 3.109.773 7.45zm-2 0c0-2.979-.377-5.307-.583-6.355-1.183-.216-4.073-.645-8.417-.645s-7.234.428-8.417.645c-.206 1.048-.583 3.376-.583 6.355s.377 5.308.583 6.355c1.183.216 4.073.645 8.417.645s7.234-.428 8.417-.645c.206-1.048.583-3.376.583-6.355z"/></svg>