<svg id="Layer_1" viewBox="0 0 24 24" xmlns="http://www.w3.org/2000/svg" data-name="Layer 1"><path d="m22.158 1.906c-1.023-1.017-4.254-2.625-12.157 4.35-4.607 4.066-5.891 5.436-6.818 8.037-.477 1.336-.755 4.755-.84 5.953l-1.049 1.046c-.391.39-.392 1.023-.002 1.415.196.196.452.294.708.294s.511-.097.706-.292l1.039-1.036c1.24-.055 4.77-.253 6.117-.773 2.567-.989 3.757-2.241 7.903-6.87 5.68-6.345 6.005-10.411 4.393-12.124zm-17.261 13.722 3.589 3.577c-1.019.204-2.696.352-4.089.432.104-1.249.28-2.947.5-4.009zm11.379-2.932c-3.055 3.413-4.363 4.835-5.78 5.687l-4.813-4.797c.787-1.397 2.159-2.756 5.642-5.831 4.263-3.763 6.956-4.772 8.362-4.772.512 0 .854.134 1.038.317.527.56.84 3.486-4.449 9.395z"/></svg>