<svg id="Layer_1" viewBox="0 0 24 24" xmlns="http://www.w3.org/2000/svg" data-name="Layer 1"><path d="m23 10c0-1.35-.329-2.339-1.004-3.003 0-1.657-.383-2.875-1.159-3.698.097-.217.163-.469.163-.799 0-1.037-.463-1.5-1.5-1.5-.87 0-1.315.349-1.443 1.066-.333-.039-.68-.066-1.057-.066s-.724.027-1.057.066c-.128-.717-.573-1.066-1.443-1.066-1.037 0-1.5.463-1.5 1.5 0 .33.065.582.163.799-.42.445-.717 1.015-.907 1.701h-2.756c-5.187 0-7.5 2.313-7.5 7.5 0 .936.07 2.037.366 3.104-.883 1.023-1.275 1.976-1.294 2.021-.206.512.041 1.095.554 1.302.499.206 1.095-.036 1.302-.553.002-.005.135-.316.411-.742.326.436.715.84 1.216 1.178.2 2.072.453 2.929.483 3.026.03.094.073.183.128.265.113.165.754.986 2.386.897 1.601-.083 2.191-.929 2.293-1.098.058-.096.1-.2.123-.31.041-.197.101-.939.152-1.682.863.098 1.896.098 2.76 0 .052.742.111 1.485.152 1.682.023.109.065.214.123.31.102.169.692 1.017 2.293 1.098 1.552.078 2.381-.734 2.386-.897.055-.081.098-.169.127-.262.026-.083.239-.795.429-2.482 2.348-.951 3.497-2.98 3.602-6.326 0-.003-.001-.005-.001-.007.675-.663 1.01-1.667 1.01-3.024zm-3.004-3.004.002.479c0 .335.17.647.45.832.15.099.552.363.552 1.694 0 1.589-.411 2-2 2h-4c-1.589 0-2-.411-2-2 0-1.327.401-1.591.553-1.691.279-.185.448-.496.449-.831l.002-.482c0-2.296.7-2.996 2.996-2.996s2.996.7 2.996 2.996zm-2.822 10.67c-.391.116-.671.458-.709.864-.12 1.267-.26 2.037-.342 2.417-.107.035-.293.068-.571.055-.295-.016-.484-.074-.59-.114-.03-.331-.081-.974-.156-2.18-.018-.284-.155-.547-.379-.724-.224-.175-.512-.248-.793-.199-.012.002-1.235.216-2.134.216s-2.122-.213-2.134-.216c-.28-.048-.569.024-.793.199-.224.176-.361.439-.379.724-.075 1.205-.126 1.847-.154 2.171-.114.051-.303.108-.592.123-.278.013-.463-.02-.57-.055-.091-.422-.251-1.313-.377-2.813-.028-.337-.226-.637-.523-.797-.921-.494-1.978-1.489-1.978-4.836 0-4.112 1.388-5.5 5.5-5.5h2.504c-.675.665-1.004 1.653-1.004 3 0 2.691 1.309 4 4 4h4c.328 0 .633-.021.92-.06-.309 2.614-1.49 3.35-2.746 3.725zm-2.174-8.666c.552 0 1 .448 1 1s-.448 1-1 1-1-.448-1-1 .448-1 1-1zm3 1c0-.552.448-1 1-1s1 .448 1 1-.448 1-1 1-1-.448-1-1z"/></svg>