<svg id="Layer_1" viewBox="0 0 24 24" xmlns="http://www.w3.org/2000/svg"><path d="m10.764 7.836c.002-.014.236-1.452.236-3.336 0-.164-.002-.323-.005-.479-.011-.552.427-1.009.979-1.021.575.002 1.009.427 1.021.979.003.17.005.343.005.521 0 2.06-.253 3.6-.264 3.664-.088.548-.618.914-1.15.822-.545-.091-.913-.605-.823-1.15zm-3.172 1.15c.532.092 1.062-.275 1.15-.822.011-.064.264-1.604.264-3.664 0-1.074-.071-2.007-.13-2.6-.055-.549-.54-.937-1.095-.896-.549.055-.95.545-.896 1.095.055.548.12 1.408.12 2.4 0 1.884-.234 3.322-.236 3.336-.09.545.278 1.06.823 1.15zm14.851 5.755c-3.904 5.48-8.764 8.26-14.443 8.26-3.064 0-5.59-.498-5.696-.52-.379-.075-.68-.363-.774-.738-.021-.086-.53-2.144-.53-4.242s.508-4.156.53-4.242c.094-.377.398-.665.78-.739.109-.021 2.706-.519 5.69-.519 2.521 0 4.319.531 4.395.554 1.008.304 1.764 1.143 1.99 2.145 1.118-.894 2.177-2.041 3.172-3.438.909-1.334 2.889-1.666 4.184-.703 1.333.908 1.666 2.89.703 4.184zm-1.862-2.554c-.432-.323-1.091-.21-1.395.234-2.861 4.016-6.258 6.229-10.095 6.576-.553.059-1.036-.356-1.086-.906s.356-1.036.906-1.086c.98-.089 1.931-.328 2.849-.718.417-.146.701-.508.695-.961 0-.392-.261-.743-.635-.855-.014-.005-1.609-.47-3.819-.47-1.946 0-3.744.231-4.666.373-.139.713-.334 1.93-.334 3.127s.196 2.418.334 3.129c.908.142 2.682.371 4.666.371 4.996 0 9.307-2.496 12.814-7.42.321-.432.21-1.091-.234-1.395zm-16.989-3.201c.532.092 1.062-.275 1.15-.822.009-.054.221-1.347.258-3.144.011-.553-.427-1.009-.979-1.021-.547-.017-1.009.428-1.021.979-.033 1.643-.229 2.845-.231 2.856-.09.545.278 1.06.823 1.15z"/></svg>