<svg id="Layer_1" viewBox="0 0 24 24" xmlns="http://www.w3.org/2000/svg" data-name="Layer 1"><path d="m19.021 2.703c-.087-.279-.292-.507-.562-.622-.103-.044-2.566-1.081-6.46-1.081s-6.357 1.037-6.46 1.081c-.27.115-.475.343-.562.622-.04.128-.979 3.215-.979 9.297s.938 9.169.979 9.297c.087.279.292.507.562.622.103.044 2.566 1.081 6.46 1.081s6.357-1.037 6.46-1.081c.27-.115.475-.343.562-.622.04-.128.979-3.215.979-9.297s-.938-9.169-.979-9.297zm-1.791 17.535c-.809.264-2.677.762-5.23.762s-4.424-.498-5.23-.762c-.243-1.037-.77-3.8-.77-8.238s.527-7.203.77-8.238c.809-.264 2.677-.762 5.23-.762s4.422.498 5.23.762c.243 1.037.77 3.8.77 8.238s-.527 7.203-.77 8.238zm-3.23-2.238c0 .553-.447 1-1 1h-2c-.553 0-1-.447-1-1s.447-1 1-1h2c.553 0 1 .447 1 1zm1.714-7.113c.283.34.237.844-.102 1.127-.338.281-.842.239-1.127-.102-.736-.883-1.549-1.312-2.485-1.312-.845 0-1.712.463-2.508 1.338-.3.327-.805.351-1.13.054-.327-.297-.351-.803-.054-1.13 1.107-1.218 2.384-1.861 3.691-1.861 1.42 0 2.67.635 3.714 1.887zm-1.848 1.645c.312.313.312.819 0 1.132-.313.311-.82.311-1.132 0-.604-.605-.863-.605-1.467 0-.312.312-.819.312-1.132 0-.312-.312-.312-.818 0-1.132 1.252-1.254 2.48-1.254 3.732 0zm-1.866 3.719c-.552 0-1-.448-1-1s.448-1 1-1 1 .448 1 1-.448 1-1 1zm3.576-9.926c.184.479.41 1.286.424 2.676-.004.247-.026.462-.049.677-.87-.846-1.873-1.376-2.958-1.578.019-.208-.009-.445-.031-.628-.03-.227-.206-.404-.434-.434-.155-.02-.343-.038-.529-.038s-.373.017-.529.038c-.227.03-.404.206-.434.434-.022.185-.05.425-.03.635-1.047.21-2.049.745-2.957 1.595-.023-.222-.046-.445-.05-.701.014-1.39.24-2.197.424-2.676.083-.216.222-.402.404-.544.744-.585 2.481-1.78 3.172-1.78s2.428 1.195 3.172 1.78c.182.143.321.329.404.544z"/></svg>