<svg id="Layer_1" viewBox="0 0 24 24" xmlns="http://www.w3.org/2000/svg" data-name="Layer 1"><path d="m23 12c0 2.5-1.073 5.197-3.271 8.208.804.155 1.773.425 2.719.898.494.247.694.848.447 1.342-.248.499-.858.691-1.342.447-1.769-.884-3.686-.894-3.705-.894-.387 0-.738-.223-.904-.572-.165-.349-.114-.763.131-1.062 2.642-3.223 3.926-5.959 3.926-8.367 0-1.688-.162-3.069-.497-4.222-.042-.147-.051-.303-.023-.454.29-1.625.419-2.799.476-3.51-1.526-.277-4.993-.814-8.955-.814-6.563 0-9.002 2.439-9.002 9 0 2.407 1.284 5.144 3.926 8.367.245.299.296.712.131 1.062-.166.35-.518.572-.904.572-.018 0-1.953.018-3.705.894-.494.248-1.095.047-1.342-.447s-.047-1.095.447-1.342c.945-.473 1.915-.743 2.719-.898-2.198-3.011-3.271-5.708-3.271-8.208-.001-7.71 3.289-11 10.999-11 5.546 0 10.029.982 10.217 1.024.458.102.783.507.783.976 0 .063-.006 1.547-.512 4.45.344 1.286.512 2.777.512 4.55zm-4 0c0 4.717-6.121 9.582-6.382 9.786-.182.143-.4.214-.618.214s-.437-.071-.618-.214c-.261-.205-6.382-5.069-6.382-9.786 0-4.841 2.159-7 7-7s7 2.159 7 7zm-2 0c0-3.738-1.262-5-5-5s-5 1.262-5 5c0 2.763 3.188 6.118 4.999 7.699 1.812-1.583 5.001-4.942 5.001-7.699z"/></svg>