<svg id="Layer_1" viewBox="0 0 24 24" xmlns="http://www.w3.org/2000/svg" data-name="Layer 1"><path d="m15 12.999c-.552 0-1-.448-1-1s.448-1 1-1 1 .448 1 1-.448 1-1 1zm7.894 3.553c-.062-.125-1.564-3.111-4.062-6.607-2.098-3.146-4.221-4.689-5.453-5.387l.631-2.472c.14-.549-.306-1.097-.868-1.027-.845.105-3.01 1.136-4.203 3.075-2.515.439-7.139 2.276-7.909 9.799-.012.18-.282 4.446 1.021 8.381.172.53.753.809 1.264.635.524-.173.809-.739.635-1.263-1.176-3.555-.926-7.579-.926-7.584.856-8.38 7.14-8.124 7.477-8.102h1.31c.566.248 2.961 1.458 5.377 5.081 1.932 2.705 3.267 5.129 3.735 6.012-.311.909-.689 1.558-.931 1.917-.589-.023-1.655-.183-2.122-1.004-1.048-1.845-3.301-2.401-5.289-2.892l-.338-.084c-.606-.167-1.26.339-1.242.97 0 3.265 2.079 6.422 2.168 6.555.306.458.926.584 1.387.277.46-.306.584-.927.277-1.387-.016-.023-1.28-1.942-1.699-4.126 1.279.35 2.507.811 2.998 1.675 1.308 2.302 4.345 2.014 4.472 2 .249-.026.479-.144.646-.331.044-.049 1.079-1.234 1.711-3.381.071-.243.049-.503-.064-.729z"/></svg>