<svg id="Layer_1" viewBox="0 0 24 24" xmlns="http://www.w3.org/2000/svg" data-name="Layer 1"><path d="m10.5 5c0 .794-.206 1-1 1h-1c-.794 0-1-.206-1-1s.206-1 1-1h1c.794 0 1 .206 1 1zm5.42 14.003c-.562-.042-1.031.371-1.073.921-.055.716-.119 1.376-.186 1.965-.062.549.334 1.043.883 1.105.54.062 1.046-.332 1.105-.883.068-.61.135-1.294.191-2.035.042-.551-.37-1.031-.921-1.073zm7.08-2.003c0 1.429-.571 2-2 2s-2-.571-2-2h-1c-4.837 0-9.755.971-9.804.98-.528.11-1.071-.239-1.177-.784-.108-.542.243-1.068.784-1.177.166-.034 3.347-.66 7.183-.914-.063-3.343-.452-6.144-.643-7.32-.228-.062-.521-.136-.855-.214-.056 2.13-.396 4.122-.411 4.194-.08.359-.352.646-.706.746-.07.02-1.653.487-3.371.487s-3.301-.468-3.371-.487c-.354-.1-.626-.387-.706-.746-.015-.072-.355-2.062-.411-4.192-.329.077-.63.151-.855.212-.208 1.279-.657 4.478-.657 8.214 0 1.904.114 3.886.34 5.889.062.549-.334 1.043-.883 1.105-.539.062-1.046-.331-1.105-.883-.233-2.076-.352-4.132-.352-6.111 0-5.038.765-9.023.797-9.191.069-.357.328-.648.675-.761.035-.011.858-.274 2.08-.533.108-1.754.359-3.221.372-3.282.08-.359.352-.646.706-.746.07-.02 1.653-.487 3.371-.487s3.301.468 3.371.487c.354.1.626.387.706.746.013.061.264 1.528.372 3.282 1.219.259 2.042.521 2.079.533.348.111.606.403.676.762.03.156.697 3.641.786 8.204.336-.008.672-.013 1.01-.013h2.991s.006 0 .009 0c1.429 0 2 .571 2 2zm-11.5-12c0-1.346-.654-2-2-2h-1c-1.346 0-2 .654-2 2s.654 2 2 2v3.5c0 .137.056.268.155.362.093.089.217.138.345.138.256 0 .941.04 1.671-.21.262-.089.394-.382.299-.641s-.373-.37-.641-.299c-.422.112-.829.09-.829.09v-2.94c1.346 0 2-.654 2-2z"/></svg>