<svg id="Layer_1" viewBox="0 0 24 24" xmlns="http://www.w3.org/2000/svg" data-name="Layer 1"><path d="m16.033 12c1.505-1.277 2.94-3.183 3.933-6.884.055-.205.043-.423-.034-.621-.056-.143-1.434-3.495-7.932-3.495s-7.876 3.352-7.932 3.495c-.077.198-.089.416-.034.621.992 3.701 2.427 5.606 3.933 6.884-1.504 1.276-2.939 3.182-3.933 6.884-.055.206-.043.423.034.622.056.143 1.434 3.495 7.932 3.495s7.876-3.352 7.932-3.495c.077-.198.089-.416.034-.622-.994-3.703-2.428-5.608-3.933-6.884zm-4.033 9c-4.074 0-5.512-1.418-5.926-1.988.997-3.464 2.369-4.99 4.111-6.188.271-.187.434-.495.434-.824s-.162-.638-.433-.824c-1.743-1.2-3.116-2.726-4.111-6.184.426-.586 1.87-1.992 5.925-1.992s5.512 1.419 5.926 1.988c-.995 3.462-2.368 4.988-4.112 6.188-.271.187-.433.495-.433.824s.162.637.434.824c1.742 1.197 3.114 2.722 4.11 6.184-.426.587-1.87 1.992-5.925 1.992zm.57-11.393c-.171.119-.371.178-.57.178s-.398-.06-.57-.178c-.993-.688-1.879-1.38-2.679-2.883-.144-.271-.156-.593-.032-.874.124-.28.37-.489.667-.565.741-.19 1.621-.286 2.614-.286s1.873.096 2.614.286c.297.076.542.285.667.565.124.281.112.603-.032.874-.8 1.503-1.687 2.195-2.679 2.883z"/></svg>