<svg id="Layer_1" viewBox="0 0 24 24" xmlns="http://www.w3.org/2000/svg" data-name="Layer 1"><path d="m21.497 6.575c-.069-.148-.175-.278-.307-.376-.058-.044-.122-.091-.19-.142v-3.057c0-.552-.447-1-1-1s-1 .448-1 1v1.622c-2.312-1.603-5.518-3.622-7-3.622-2.08 0-7.561 3.979-9.19 5.199-.132.098-.237.228-.307.376-.062.131-1.503 3.261-1.503 8.425 0 2.133.484 6.9.505 7.102.053.51.482.898.995.898h6c.297 0 .578-.132.769-.36.19-.228.269-.529.215-.821l-.074-.382c-.153-.771-.409-2.061-.409-3.437 0-1.519.199-2.908.328-3.647.559-.15 1.526-.353 2.672-.353 1.138 0 2.109.204 2.672.354.129.741.328 2.13.328 3.646 0 1.378-.256 2.667-.409 3.438l-.074.381c-.054.292.024.593.215.821.189.229.472.36.769.36h6c.513 0 .942-.388.995-.898.021-.202.505-4.977.505-7.102 0-5.164-1.441-8.294-1.503-8.425zm-.904 14.425h-3.883c.145-.813.29-1.864.29-3 0-2.46-.465-4.556-.484-4.644-.073-.328-.308-.598-.622-.716-.069-.026-1.72-.64-3.894-.64-2.193 0-3.828.615-3.896.641-.313.12-.546.388-.619.714-.02.088-.484 2.179-.484 4.645 0 1.135.146 2.186.29 3h-3.884c-.142-1.502-.407-4.505-.407-6 0-3.955.928-6.614 1.224-7.361 3.052-2.262 6.826-4.639 7.776-4.639s4.725 2.377 7.776 4.639c.297.75 1.224 3.408 1.224 7.361 0 1.489-.266 4.496-.407 6z"/></svg>