<svg id="Layer_1" viewBox="0 0 24 24" xmlns="http://www.w3.org/2000/svg" data-name="Layer 1"><path d="m12 7.02c-2.322 0-3.5 1.178-3.5 3.5s1.178 3.5 3.5 3.5 3.5-1.178 3.5-3.5-1.178-3.5-3.5-3.5zm0 5c-1.233 0-1.5-.267-1.5-1.5s.267-1.5 1.5-1.5 1.5.267 1.5 1.5-.267 1.5-1.5 1.5zm9.044-4.816c-.047-.135-.122-.257-.22-.36-.265-.278-.54-.551-.824-.819v-2.025c0-.553-.447-1-1-1s-1 .447-1 1v.35c-1.63-1.223-3.497-2.315-5.587-3.261-.263-.119-.562-.119-.825 0-3.423 1.55-6.253 3.486-8.412 5.755-.098.104-.173.227-.22.36-.039.112-.956 2.793-.956 7.046 0 4.181.497 6.827.518 6.937.069.359.328.652.675.765.133.042 3.313 1.048 8.807 1.048s8.675-1.006 8.806-1.048c.348-.112.607-.405.676-.765.021-.11.518-2.757.518-6.937 0-4.253-.917-6.933-.956-7.046zm-13.091 13.588c.052-2.837 1.044-3.772 3.989-3.772s3.941.938 3.99 3.785c-1.118.114-2.431.195-3.932.195-1.555 0-2.905-.088-4.047-.208zm11.661-.589c-.383.093-.963.218-1.701.34-.147-3.798-1.992-5.523-5.971-5.523s-5.817 1.719-5.97 5.503c-.681-.116-1.224-.232-1.587-.32-.141-.984-.386-3.107-.386-5.953 0-3.265.59-5.534.784-6.193 1.873-1.921 4.298-3.586 7.216-4.955 2.918 1.369 5.343 3.034 7.216 4.955.194.658.784 2.928.784 6.193 0 2.846-.245 4.969-.386 5.953z"/></svg>