<svg id="Layer_1" viewBox="0 0 24 24" xmlns="http://www.w3.org/2000/svg" data-name="Layer 1"><path d="m10 16.012c-.006.548-.453.988-1 .988h-.012c-3.553-.042-5.396-.676-6.617-1.097-.31-.106-.548-.358-.637-.674-.313-1.108-.705-2.496-.735-4.464.033-3.349.729-4.914 1.064-5.666.056-.126.137-.239.239-.332.401-.367 4.718-3.767 6.697-3.767.493 0 1.394.154 3.529 1.484.469.292.612.909.32 1.377-.292.469-.909.612-1.377.32-1.875-1.167-2.448-1.181-2.471-1.181-.819 0-3.994 2.082-5.195 3.109-.298.694-.778 2.016-.805 4.65.022 1.45.275 2.535.518 3.42 1.126.371 2.697.787 5.494.82.552.006.995.459.988 1.012zm7.001-11.012c1.123-.007 1.973-.491 2.001-2-.026-1.484-.874-1.993-2.001-2-1.123.007-1.976.547-2.001 2 .028 1.513.874 1.993 2.001 2zm-8.944 4.076c-.311-.041-.686-.076-1.057-.076s-.746.035-1.057.076c-.454.059-.808.413-.867.867-.041.311-.076.686-.076 1.057s.035.746.076 1.057c.059.454.413.808.867.867.311.041.686.076 1.057.076s.746-.035 1.057-.076c.454-.059.808-.413.867-.867.041-.311.076-.686.076-1.057s-.035-.746-.076-1.057c-.059-.454-.413-.808-.867-.867zm14.943 3.924c0 .552-.448 1-1 1s-1-.448-1-1c-.022-1.675-.26-2.769-.983-3.628v3.505c0 1.375-.939 2.572-2.284 2.912-1.451.367-2.658.853-3.432 1.379-1.124 2.317-1.302 4.87-1.303 4.896-.035.552-.518.97-1.062.934-.551-.036-.969-.51-.934-1.061.008-.127.212-3.142 1.625-5.894.069-.133.167-.25.286-.34.328-.248.697-.469 1.083-.669v-3.239c-.465.4-.959.768-1.504 1.077-.472.269-1.089.107-1.363-.378-.271-.48-.103-1.091.378-1.363 1.023-.578 1.861-1.372 2.511-2.346.113-1.496 1.304-2.698 2.82-2.775 2.061-.11 3.749.715 4.972 2.406.8 1.107 1.189 2.607 1.189 4.586zm-4.983-4.906c-.339-.074-.696-.107-1.079-.088-.527.027-.942.468-.942 1.005v5.205c.44-.143.867-.27 1.247-.366.456-.116.774-.516.774-.973zm1.944 9.588c-.176-.524-.741-.805-1.266-.63-.524.176-.806.743-.63 1.266.837 2.497 2.097 4.207 2.15 4.279.331.445.96.533 1.399.206.443-.33.535-.956.206-1.399-.011-.015-1.122-1.523-1.859-3.721z"/></svg>