<svg id="Layer_1" viewBox="0 0 24 24" xmlns="http://www.w3.org/2000/svg" data-name="Layer 1"><path d="m22.738 17.325c-.189-.207-.458-.325-.738-.325h-.138c.087-.757.138-1.67.138-2.559 0-2.52-.587-4.13-.612-4.197-.103-.276-.322-.494-.6-.593-.074-.026-1.854-.651-5.288-.651s-5.214.625-5.288.651c-.277.1-.497.317-.6.593-.025.067-.612 1.678-.612 4.197 0 .889.052 1.801.138 2.559h-.138c-.571-.012-1.059.522-.996 1.089.188 2.094.596 3.367.613 3.42.091.281.302.507.576.618.088.036 2.205.873 6.307.873s6.219-.837 6.307-.873c.273-.11.484-.336.576-.617.017-.053.426-1.326.613-3.42.025-.28-.068-.557-.258-.764zm-11.738-2.884c0-1.398.208-2.463.352-3.034.671-.158 2.06-.408 4.148-.408s3.479.25 4.148.407c.145.572.352 1.637.352 3.034 0 .984-.067 1.903-.154 2.559h-2.286c-.506 0-.933.378-.993.881-.002.017-.004.032-.006.048-.256.038-.61.071-1.062.071s-.807-.034-1.062-.071c-.002-.015-.004-.031-.006-.048-.061-.502-.487-.881-.993-.881h-2.286c-.086-.656-.153-1.574-.153-2.559zm9.608 5.973c-.76.212-2.471.585-5.108.585s-4.351-.374-5.108-.585c-.078-.324-.179-.804-.268-1.415h2.505c.099.336.309.582.631.705.081.03.839.295 2.239.295s2.157-.266 2.239-.296c.322-.122.531-.368.631-.704h2.506c-.089.611-.19 1.091-.268 1.415zm-13.612-4.352c-.046.52-.483.911-.995.911-2.277-.173-3.925-.635-3.898-.634-.352-.105-.618-.396-.693-.755-.017-.081-.41-2.017-.41-5.084 0-3.138.574-4.77.598-4.838.051-.143.134-.271.243-.377 1.624-1.584 3.905-2.999 6.779-4.206.248-.104.526-.104.774 0 1.765.741 3.303 1.561 4.606 2.45v-.528c0-.552.447-1 1-1s1 .448 1 1v2.126c.056.053.118.105.173.158.396.386.403 1.019.018 1.414s-1.02.404-1.414.018c-1.372-1.338-3.312-2.558-5.77-3.628-2.35 1.023-4.226 2.184-5.586 3.453-.128.479-.421 1.808-.421 3.959 0 1.876.159 3.306.268 4.066.566.122 1.525.295 2.821.411.55.049.957.535.907 1.085z"/></svg>