<svg id="Layer_1" viewBox="0 0 24 24" xmlns="http://www.w3.org/2000/svg" data-name="Layer 1"><path d="m14.983 3c.026-1.484.874-1.993 2.001-2 1.123.007 1.976.547 2.001 2-.028 1.513-.874 1.993-2.001 2-1.123-.007-1.973-.491-2.001-2zm8.015 18.937c.035.551-.383 1.025-.934 1.061-.544.037-1.027-.382-1.062-.934-.001-.026-.18-2.579-1.303-4.896-.774-.526-1.981-1.012-3.432-1.379-1.345-.34-2.284-1.537-2.284-2.912v-3.486c-.736.83-.955 1.95-.983 3.609 0 .552-.448 1-1 1s-1-.448-1-1c0-1.979.389-3.479 1.189-4.586 1.222-1.69 2.94-2.504 4.97-2.406 1.518.078 2.709 1.279 2.822 2.776.65.974 1.488 1.768 2.511 2.346.481.272.65.882.378 1.363-.274.485-.891.647-1.363.378-.546-.309-1.04-.677-1.504-1.077v3.239c.386.201.755.421 1.083.669.12.091.217.207.286.34 1.414 2.752 1.618 5.767 1.625 5.894zm-6.241-8.086c.379.096.806.222 1.247.366v-5.205c0-.537-.415-.979-.944-1.006-.362-.019-.745.013-1.077.085v4.787c0 .458.318.857.774.973zm-1.452 3.201c-.521-.174-1.09.106-1.266.63-.731 2.181-1.849 3.708-1.86 3.723-.328.444-.234 1.07.209 1.398.439.326 1.066.239 1.397-.206.053-.072 1.312-1.782 2.15-4.279.175-.523-.106-1.09-.63-1.266zm-6.293-2.052c-2.797-.033-4.367-.449-5.494-.82-.243-.885-.496-1.971-.518-3.42.026-2.634.506-3.957.805-4.65 1.202-1.028 4.376-3.109 5.195-3.109.023 0 .597.014 2.471 1.181.469.292 1.086.149 1.377-.32.292-.469.149-1.085-.32-1.377-2.135-1.33-3.036-1.484-3.529-1.484-1.979 0-6.295 3.4-6.697 3.767-.102.093-.184.206-.239.332-.334.752-1.031 2.317-1.064 5.666.03 1.968.422 3.355.735 4.464.089.316.327.568.637.674 1.22.42 3.063 1.055 6.617 1.097h.012c.546 0 .993-.44 1-.988.006-.552-.436-1.005-.988-1.012zm-.955-5.924c-.311-.041-.686-.076-1.057-.076s-.746.035-1.057.076c-.454.059-.808.413-.867.867-.041.311-.076.686-.076 1.057s.035.746.076 1.057c.059.454.413.808.867.867.311.041.686.076 1.057.076s.746-.035 1.057-.076c.454-.059.808-.413.867-.867.041-.311.076-.686.076-1.057s-.035-.746-.076-1.057c-.059-.454-.413-.808-.867-.867z"/></svg>