<svg id="Layer_1" viewBox="0 0 24 24" xmlns="http://www.w3.org/2000/svg" data-name="Layer 1"><path d="m6.868 13.132c.391.391.391 1.023 0 1.414l-1.818 1.818c-.391.391-1.023.391-1.414 0s-.391-1.023 0-1.414l1.196-1.196c-.44-.724-.694-1.631-.787-2.753h-2.045c-.552 0-1-.448-1-1s.448-1 1-1h2.06c.095-1.104.337-2.031.77-2.756l-1.194-1.194c-.391-.391-.391-1.023 0-1.414s1.023-.391 1.414 0l1.194 1.194c.725-.432 1.652-.675 2.756-.77v-2.06c0-.552.448-1 1-1s1 .448 1 1v2.045c1.122.093 2.03.347 2.754.788l1.196-1.196c.391-.391 1.023-.391 1.414 0s.391 1.024 0 1.414l-1.818 1.818c-.391.391-1.023.391-1.414 0-.584-.584-1.609-.868-3.132-.868-3.028 0-4 .972-4 4 0 1.523.284 2.547.868 3.132zm16.132 4.358c-.025 1.726-.363 2.924-.61 3.799-.089.316-.352.657-.662.763-1.054.363-2.646.911-5.716.948-3.093-.037-4.686-.585-5.74-.948-.31-.106-.548-.358-.637-.674-.271-.958-.609-2.158-.635-3.863.029-2.907.634-4.265.924-4.917.056-.126.138-.239.239-.332.036-.033 3.958-3.267 5.836-3.267s5.801 3.234 5.837 3.267c.102.093.183.206.238.332.291.652.896 2.01.925 4.892zm-2-.005c-.021-2.171-.412-3.283-.664-3.875-1.004-.847-3.651-2.585-4.336-2.61-.685.025-3.332 1.763-4.335 2.61-.252.592-.643 1.707-.665 3.899.018 1.182.219 2.082.418 2.819.952.309 2.277.644 4.593.671 2.296-.027 3.618-.363 4.568-.671.209-.778.402-1.667.42-2.844zm-3.943-2.409c-.311-.041-.686-.076-1.057-.076s-.746.035-1.057.076c-.454.059-.808.413-.867.867-.041.311-.076.686-.076 1.057s.035.746.076 1.057c.059.454.413.808.867.867.311.041.686.076 1.057.076s.746-.035 1.057-.076c.454-.059.808-.413.867-.867.041-.311.076-.686.076-1.057s-.035-.746-.076-1.057c-.059-.454-.413-.808-.867-.867z"/></svg>