<svg id="Layer_1" viewBox="0 0 24 24" xmlns="http://www.w3.org/2000/svg" data-name="Layer 1"><path d="m9.463 14.691c-.028-.008-.688-.191-1.463-.191s-1.435.183-1.463.191c-.165.046-.294.173-.343.337-.008.026-.194.651-.194 1.472 0 .828.186 1.448.194 1.474.049.163.179.289.343.335.028.008.688.191 1.463.191s1.435-.183 1.463-.191c.165-.046.294-.173.343-.337.008-.026.194-.651.194-1.472 0-.828-.186-1.448-.194-1.474-.049-.163-.179-.289-.343-.335z"/><path d="m22.289 2.949c-.063-.309-.27-.569-.555-.704-.108-.051-2.687-1.245-5.734-1.245s-5.625 1.194-5.734 1.245c-.264.124-.461.357-.539.639-.021.076-.521 1.894-.723 4.022-.052.55.352 1.038.901 1.09.552.046 1.038-.353 1.09-.901.127-1.341.39-2.573.542-3.214.776-.3 2.525-.88 4.462-.88 1.896 0 3.623.561 4.421.865.183 1.123.579 4.027.579 8.135 0 3.829-.41 6.961-.591 8.154-.745.304-2.301.846-3.909.846-.553 0-1 .448-1 1s.447 1 1 1c2.704 0 5.152-1.204 5.256-1.255.282-.141.481-.406.538-.717.028-.159.706-3.954.706-9.028 0-5.538-.682-8.911-.711-9.051z"/><path d="m13.754 12.199c-1.597-1.195-4.468-3.199-5.754-3.199s-4.157 2.004-5.754 3.199c-.111.083-.204.189-.272.31-.1.177-.974 1.82-.974 4.991 0 1.94.625 3.836.651 3.917.09.271.292.49.555.603.094.04 2.329.981 5.794.981s5.701-.94 5.794-.98c.263-.113.465-.333.556-.604.026-.08.65-1.977.65-3.916 0-3.171-.874-4.814-.974-4.991-.068-.121-.161-.227-.272-.31zm-1.17 8.132c-.735.237-2.376.669-4.583.669s-3.851-.433-4.583-.669c-.163-.604-.417-1.724-.417-2.831 0-2.122.457-3.413.641-3.846 1.705-1.257 3.812-2.589 4.337-2.655.567.066 2.676 1.398 4.38 2.655.187.44.642 1.73.642 3.846 0 1.1-.254 2.225-.417 2.831z"/><path d="m17.5 11h1c.553 0 1-.448 1-1s-.447-1-1-1h-1c-.553 0-1 .448-1 1s.447 1 1 1z"/><path d="m14.5 5h-1c-.552 0-1 .448-1 1s.448 1 1 1h1c.553 0 1-.448 1-1s-.447-1-1-1z"/><path d="m17.5 7h1c.553 0 1-.448 1-1s-.447-1-1-1h-1c-.553 0-1 .448-1 1s.447 1 1 1z"/><path d="m17.5 15h1c.553 0 1-.448 1-1s-.447-1-1-1h-1c-.553 0-1 .448-1 1s.447 1 1 1z"/><path d="m17.5 19h1c.553 0 1-.448 1-1s-.447-1-1-1h-1c-.553 0-1 .448-1 1s.447 1 1 1z"/></svg>