<svg id="Layer_1" viewBox="0 0 24 24" xmlns="http://www.w3.org/2000/svg" data-name="Layer 1"><path d="m16.589 10.244c-.033-.006-.661-.109-1.646-.187-.077-.984-.181-1.613-.187-1.646-.042-.252-.179-.479-.383-.634-.105-.08-1.066-.777-2.373-.777-1.317 0-2.272.701-2.377.781-.202.154-.338.38-.379.63-.006.033-.109.661-.187 1.646-.984.078-1.612.181-1.646.187-.253.042-.48.179-.634.384-.08.105-.777 1.067-.777 2.373 0 1.317.701 2.272.781 2.377.154.202.38.338.63.379.033.006.661.109 1.646.187.078.984.181 1.612.187 1.646.042.253.179.48.384.634.105.08 1.067.777 2.373.777 1.316 0 2.272-.701 2.377-.781.201-.154.337-.379.379-.63.006-.033.109-.661.187-1.646.984-.078 1.613-.181 1.646-.187.252-.042.479-.179.634-.384.08-.105.777-1.067.777-2.373 0-1.317-.7-2.272-.78-2.377-.154-.202-.38-.338-.631-.379zm-.785 3.603c-.406.05-1.057.117-1.851.154-.516.024-.928.437-.952.953-.037.795-.104 1.445-.155 1.851-.212.096-.513.196-.846.196s-.633-.1-.847-.196c-.05-.406-.117-1.057-.154-1.85-.024-.516-.437-.929-.953-.953-.795-.037-1.446-.104-1.851-.154-.096-.212-.195-.512-.195-.847 0-.333.1-.633.196-.847.406-.05 1.057-.117 1.85-.154.516-.024.929-.437.953-.953.037-.795.104-1.446.154-1.851.212-.096.512-.195.847-.195.333 0 .633.1.846.196.05.406.118 1.057.155 1.85.024.516.437.929.952.953.796.037 1.446.104 1.852.154.097.212.195.512.195.847 0 .333-.1.633-.196.847z"/><path d="m21.463 6.509c-.068-.121-.161-.227-.272-.31-1.63-1.22-7.11-5.199-9.19-5.199s-7.562 3.979-9.192 5.199c-.111.083-.204.189-.272.31-.063.111-1.537 2.788-1.537 7.991 0 3.126 1.008 6.188 1.051 6.316.09.271.292.49.555.603.151.065 3.753 1.581 9.394 1.581s9.243-1.516 9.394-1.581c.263-.112.465-.332.555-.603.043-.129 1.052-3.19 1.052-6.316 0-5.203-1.475-7.879-1.537-7.991zm-9.463 14.491c-4.144 0-7.127-.892-8.186-1.262-.262-.915-.814-3.096-.814-5.238 0-3.928.916-6.227 1.198-6.841 3.056-2.268 6.849-4.659 7.802-4.659s4.746 2.391 7.802 4.658c.285.622 1.198 2.919 1.198 6.842 0 2.143-.553 4.325-.814 5.239-1.053.37-4.019 1.261-8.186 1.261z"/></svg>