<svg id="Layer_1" viewBox="0 0 24 24" xmlns="http://www.w3.org/2000/svg" data-name="Layer 1"><path d="m22.998 12.053c-.058 4.005-1.214 7.854-3.173 10.559-.326.45-.953.545-1.396.224-.447-.324-.547-.949-.223-1.396 1.723-2.379 2.74-5.811 2.792-9.415.024-1.654-.188-3.431-.632-5.282-.113-.525-.684-.876-1.204-.74-.537.128-.868.669-.74 1.206.757 3.161.754 5.989.021 8.448-.166.602-.402 1.194-.664 1.757-.239.497-.835.708-1.336.465-.497-.241-.705-.839-.465-1.336.209-.432.374-.889.519-1.357.093-.371-.011-.736-.306-.993-.296-.258-.733-.293-1.062-.084-.01.006-.938.603-2.062 1.718.927 1.386 1.942 3.268 2.873 5.804.19.519-.075 1.093-.594 1.284-.505.189-1.093-.07-1.283-.594-2.331-6.349-5.154-8.189-5.182-8.207-.339-.212-.775-.179-1.069.08-.313.273-.448.788-.32 1.19.303 1.047.752 2.054 1.367 3.078.284.474.131 1.088-.343 1.372-.474.285-1.088.131-1.372-.343-.68-1.133-1.18-2.249-1.529-3.403-.391-1.289-.588-2.626-.61-4.097-.021-1.491.172-3.099.575-4.781.128-.536-.204-1.077-.74-1.205-.52-.138-1.091.215-1.205.739-.438 1.832-.651 3.588-.633 5.221.051 3.589 1.095 7.133 2.792 9.476.324.447.224 1.072-.224 1.396-.443.322-1.071.226-1.396-.224-1.958-2.703-3.114-6.576-3.172-10.624-.02-1.8.212-3.721.688-5.712.343-1.576 2.056-2.627 3.617-2.218.629.15 1.159.494 1.554.948.201-.019.412-.031.641-.031.385 0 .725.029 1.032.083-.012.139-.032.271-.032.417 0 .968.269 1.752.743 2.339-.52.096-1.083.161-1.743.161-.014 0-.026-.001-.04-.001-.316 1.409-.475 2.751-.457 3.987.002.126.011.247.016.371.903-.488 2.027-.477 2.919.084.059.036.839.53 1.917 1.797 1.198-1.153 2.159-1.768 2.206-1.797.89-.56 2.013-.571 2.917-.084.057-1.346-.091-2.802-.44-4.358-.013 0-.025.001-.039.001-.66 0-1.222-.065-1.743-.161.474-.587.743-1.37.743-2.339 0-.147-.021-.279-.032-.417.307-.053.647-.083 1.032-.083.23 0 .44.013.64.033.396-.455.926-.799 1.556-.95 1.559-.408 3.273.643 3.615 2.219.482 2.013.713 3.957.687 5.776zm-10.998-5.079c1.071 0 1.5-.429 1.5-1.5s-.429-1.5-1.5-1.5-1.5.429-1.5 1.5.429 1.5 1.5 1.5zm4.5-3c1.071 0 1.5-.429 1.5-1.5s-.429-1.5-1.5-1.5-1.5.429-1.5 1.5.429 1.5 1.5 1.5zm-9 0c1.071 0 1.5-.429 1.5-1.5s-.429-1.5-1.5-1.5-1.5.429-1.5 1.5.429 1.5 1.5 1.5zm2.147 6.719c.655.188 1.432.281 2.353.281s1.698-.093 2.353-.281c.461-.132.746-.604.615-1.047-.348-1.173-1.269-1.672-2.968-1.672s-2.62.499-2.968 1.672c-.131.442.154.915.615 1.047z"/></svg>