<svg id="Layer_1" viewBox="0 0 24 24" xmlns="http://www.w3.org/2000/svg" data-name="Layer 1"><path d="m22.998 11.078c-.058 4.007-1.214 7.855-3.172 10.56-.326.45-.954.545-1.396.224-.447-.324-.547-.949-.224-1.396 1.723-2.379 2.741-5.811 2.792-9.415.024-1.655-.188-3.432-.631-5.283-.113-.524-.687-.876-1.205-.739-.537.128-.868.669-.74 1.206.756 3.159.753 5.987.022 8.445-.166.603-.403 1.197-.666 1.761-.242.498-.841.704-1.336.465-.497-.241-.705-.839-.465-1.336.21-.433.375-.892.52-1.362.091-.369-.014-.733-.308-.989-.295-.257-.731-.292-1.063-.084-.009.006-.936.603-2.061 1.718.927 1.386 1.942 3.268 2.873 5.804.19.519-.076 1.093-.594 1.284-.505.189-1.093-.07-1.284-.594-2.33-6.349-5.153-8.189-5.181-8.207-.338-.213-.774-.179-1.069.08-.313.273-.448.788-.32 1.19.303 1.047.752 2.054 1.367 3.078.284.474.131 1.088-.343 1.372-.474.285-1.088.131-1.372-.343-.68-1.133-1.18-2.249-1.529-3.403-.391-1.289-.588-2.626-.61-4.097-.021-1.491.172-3.099.575-4.781.128-.536-.204-1.077-.74-1.205-.519-.137-1.092.215-1.205.739-.438 1.832-.651 3.588-.633 5.221.051 3.589 1.095 7.133 2.792 9.476.324.447.224 1.072-.224 1.396-.443.322-1.071.226-1.396-.224-1.958-2.703-3.114-6.576-3.172-10.624-.02-1.8.212-3.721.688-5.712.343-1.576 2.057-2.628 3.617-2.218 1.607.384 2.603 2.006 2.219 3.615-.364 1.521-.54 2.963-.52 4.287.002.126.011.247.016.372.903-.488 2.027-.478 2.919.084.059.036.839.529 1.917 1.797 1.198-1.153 2.158-1.768 2.205-1.797.89-.56 2.014-.571 2.917-.085.061-1.433-.102-2.986-.501-4.657-.408-1.562.641-3.273 2.219-3.616 1.561-.409 3.272.644 3.616 2.219.481 2.012.712 3.956.686 5.776zm-10.998-6.078c1.071 0 1.5-.429 1.5-1.5s-.429-1.5-1.5-1.5-1.5.429-1.5 1.5.429 1.5 1.5 1.5zm-2.353 3.719c.655.188 1.432.281 2.353.281s1.698-.093 2.353-.281c.461-.132.746-.604.615-1.047-.348-1.173-1.269-1.672-2.968-1.672s-2.62.499-2.968 1.672c-.131.442.154.915.615 1.047z"/></svg>