<svg id="Layer_1" viewBox="0 0 24 24" xmlns="http://www.w3.org/2000/svg" data-name="Layer 1"><path d="m22.192 2.073c-1.648-.322-5.941-1.072-10.192-1.072s-8.544.749-10.192 1.072c-.479.094-.82.52-.808 1.009.133 4.83.784 8.876 2.05 12.73.123.376.456.644.85.684.386.035.772-.156.969-.498.265-.464.52-1.023.765-1.676.467 2.789 1.134 5.6 1.917 7.99.132.402.503.678.926.688h.024c.414 0 .786-.255.935-.643 1.114-2.919 2.043-6.019 2.773-9.257.412 1.133.875 2.245 1.389 3.327.162.344.506.565.887.572.394-.002.73-.204.905-.542.511-.991.966-2.02 1.363-3.082.44 1.882 1.041 3.859 1.809 5.967.148.406.547.698.974.656.433-.015.807-.306.927-.722 1.655-5.745 2.558-11.507 2.539-16.227-.002-.477-.34-.886-.808-.978zm-2.805 13.423c-.703-2.355-1.163-4.537-1.394-6.607-.055-.486-.453-.861-.942-.888-.481-.028-.924.308-1.028.785-.363 1.659-.864 3.26-1.496 4.78-.627-1.56-1.148-3.17-1.557-4.808-.115-.458-.524-.783-1.009-.757-.473.018-.868.364-.947.831-.589 3.449-1.4 6.764-2.419 9.894-.807-3.177-1.393-6.714-1.598-9.793-.034-.502-.435-.9-.936-.932-.021 0-.042-.002-.062-.002-.476 0-.891.338-.981.812-.264 1.375-.552 2.585-.856 3.603-.635-2.622-1.002-5.405-1.132-8.536 1.943-.349 5.48-.879 8.97-.879s7.054.535 8.993.883c-.065 3.475-.623 7.488-1.605 11.613z"/></svg>