<svg id="Layer_1" viewBox="0 0 24 24" xmlns="http://www.w3.org/2000/svg" data-name="Layer 1"><path d="m12 2c-7.402 0-11 3.925-11 12 0 3.036 1.007 6.421 2.293 7.707.188.188.442.293.707.293h4c.552 0 1-.448 1-1v-1.059c0-5.188 1.084-5.441 3-5.441s3 .253 3 5.441v1.059c0 .552.448 1 1 1h4c.265 0 .52-.105.707-.293 1.286-1.286 2.293-4.671 2.293-7.707 0-8.075-3.598-12-11-12zm5 8h3.611c.262 1.152.389 2.481.389 4h-4zm2.936-2h-6.936v-3.973c3.489.194 5.738 1.448 6.936 3.973zm-8.936-3.973v3.973h-6.936c1.198-2.524 3.447-3.778 6.936-3.973zm-7.611 5.973h3.611v4h-4c0-1.519.127-2.848.389-4zm3.611 10h-2.529c-.493-.723-1.059-2.212-1.322-4h4.198c-.26 1.087-.347 2.409-.347 3.941zm5-7.5c-1.299 0-2.274.264-3 .768v-3.268h6v3.268c-.726-.505-1.701-.768-3-.768zm7.529 7.5h-2.529v-.059c0-1.532-.087-2.854-.347-3.941h4.198c-.263 1.788-.829 3.277-1.322 4z"/></svg>