<svg id="Layer_1" viewBox="0 0 24 24" xmlns="http://www.w3.org/2000/svg" data-name="Layer 1"><path d="m17.493 21.605c.063.549-.33 1.044-.879 1.108-1.659.19-3.211.287-4.614.287-4.501 0-9.024-.981-9.215-1.023-.381-.083-.679-.381-.762-.762-.042-.19-1.023-4.713-1.023-9.214 0-1.405.097-2.958.288-4.615.062-.547.557-.937 1.107-.879.549.063.942.56.879 1.108-.182 1.581-.274 3.056-.274 4.385 0 1.425.11 2.862.253 4.158 1.498-1.585 3.054-2.708 4.221-3.428.472-.292 1.086-.144 1.377.326.289.47.144 1.086-.326 1.376-1.349.832-3.268 2.263-4.911 4.384.088.542.171 1 .235 1.334 1.386.265 4.824.849 8.15.849 1.327 0 2.803-.092 4.386-.274.551-.064 1.044.331 1.107.879zm5.214-.312c.391.391.391 1.023 0 1.414s-1.023.391-1.414 0l-20-20c-.391-.391-.391-1.023 0-1.414s1.023-.391 1.414 0l.619.619c1.355-.266 5.021-.912 8.674-.912 4.501 0 9.024.981 9.215 1.023.381.083.679.381.762.762.042.19 1.023 4.713 1.023 9.214 0 3.653-.646 7.319-.912 8.674l.619.619zm-17.657-17.657 15.313 15.313c.282-1.704.636-4.357.636-6.95 0-3.327-.585-6.765-.85-8.151-1.386-.265-4.824-.849-8.15-.849-2.592 0-5.246.354-6.95.636zm9.95 3.864c0 1.071.429 1.5 1.5 1.5s1.5-.429 1.5-1.5c0-1.071-.429-1.5-1.5-1.5s-1.5.429-1.5 1.5z"/></svg>