<?xml version="1.0" encoding="UTF-8"?>
<svg xmlns="http://www.w3.org/2000/svg" id="Layer_1" data-name="Layer 1" viewBox="0 0 24 24">
  <path d="M21.709,10.773c-.83-.947-1.965-1.754-3.289-2.38,.068-.526,.116-1.085,.116-1.801,0-3.207-1.587-4.94-2.946-5.45-1.287-.483-2.729,.382-3.59,1.06-.86-.679-2.298-1.546-3.591-1.059-1.358,.512-2.945,2.246-2.945,5.449,0,.721,.048,1.279,.116,1.802-1.323,.626-2.459,1.432-3.288,2.38-.33,.377-.329,.94,0,1.317,2.06,2.354,5.689,3.758,9.708,3.758s7.648-1.405,9.708-3.758c.33-.377,.331-.94,0-1.317ZM9.114,3.014c.348-.138,1.412,.465,2.181,1.227,.39,.386,1.02,.388,1.411,0,.674-.671,1.799-1.372,2.181-1.226,.821,.308,1.649,1.533,1.649,3.577,0,.703-.051,1.23-.126,1.756-2.56,1.179-6.266,1.178-8.821,0-.074-.521-.125-1.046-.125-1.755,0-2.042,.829-3.268,1.65-3.577Zm2.886,10.834c-2.986,0-5.774-.91-7.534-2.417,.606-.518,1.349-.969,2.185-1.341,1.574,.753,3.403,1.166,5.349,1.166s3.775-.414,5.349-1.166c.836,.372,1.58,.823,2.185,1.34-1.76,1.507-4.548,2.417-7.534,2.417Z"/>
  <path d="M15.7,16.363c-1.478,0-2.718,.979-3.145,2.318h-1.111c-.427-1.339-1.667-2.318-3.145-2.318-1.827,0-3.314,1.489-3.314,3.318s1.487,3.318,3.314,3.318c1.478,0,2.718-.979,3.145-2.318h1.111c.427,1.339,1.667,2.318,3.145,2.318,1.827,0,3.314-1.489,3.314-3.318s-1.487-3.318-3.314-3.318Zm-7.4,4.637c-.725,0-1.314-.591-1.314-1.318s.59-1.318,1.314-1.318,1.315,.591,1.315,1.318-.59,1.318-1.315,1.318Zm7.4,0c-.726,0-1.315-.591-1.315-1.318s.59-1.318,1.315-1.318,1.314,.591,1.314,1.318-.59,1.318-1.314,1.318Z"/>
</svg>
