<svg id="Layer_1" viewBox="0 0 24 24" xmlns="http://www.w3.org/2000/svg" data-name="Layer 1"><path d="m20 7c0 .553-.448 1-1 1h-2c0 5.554-4.463 6.764-8.463 6.97 3.04 1.996 5.428 4.11 7.248 6.409.343.434.27 1.062-.164 1.405-.429.341-1.06.272-1.405-.163-2.224-2.811-5.397-5.345-9.703-7.748-.398-.222-.596-.686-.48-1.126.115-.44.513-.747.967-.747h.003l2.002.006c7.026 0 7.995-2.406 7.995-5.006h-10c-.552 0-1-.447-1-1s.448-1 1-1h9.684c-.651-1.698-2.547-2.982-7.687-3h-1.997c-.552 0-1-.447-1-1s.448-1 1-1h14c.552 0 1 .447 1 1s-.448 1-1 1h-4.093c.867.719 1.528 1.691 1.857 3h2.236c.552 0 1 .447 1 1z"/></svg>