<svg id="Layer_1" viewBox="0 0 24 24" xmlns="http://www.w3.org/2000/svg" data-name="Layer 1"><path d="m9.29 8.363c-.38-.461-1.162-.461-1.542 0-.146.176-.909 1.156-1.665 3.168-.795 2.115-.814 3.34-.814 3.473.002.549.446.988.995.991h.005c.546 0 .992-.442 1-.99 0 0 0-.004 0-.005h2.501c0 .551.445.998.996 1h.003c.551 0 .998-.445 1-.996 0-.133-.019-1.357-.814-3.473-.756-2.012-1.52-2.992-1.665-3.168zm-1.335 3.871c.194-.516.387-.951.564-1.308.177.356.37.792.564 1.308.104.277.188.528.263.766h-1.653c.075-.238.159-.489.263-.766zm14.247-6.606c-.103-.317-.355-.563-.676-.655-.139-.04-3.455-.973-9.526-.973s-9.388.933-9.526.973c-.321.092-.574.338-.676.655-.032.101-.798 2.526-.798 6.372s.766 6.271.798 6.372c.102.317.355.563.676.655.138.04 3.455.973 9.526.973s9.388-.933 9.526-.973c.32-.092.573-.338.676-.655.032-.101.798-2.526.798-6.372s-.766-6.271-.798-6.372zm-1.765 11.605c-1.135.248-4.034.767-8.438.767s-7.303-.519-8.438-.767c-.205-.858-.562-2.718-.562-5.233s.357-4.375.562-5.233c1.134-.248 4.034-.767 8.438-.767s7.303.519 8.438.767c.205.858.562 2.718.562 5.233s-.357 4.375-.562 5.233z"/></svg>