<svg id="Layer_1" viewBox="0 0 24 24" xmlns="http://www.w3.org/2000/svg" data-name="Layer 1"><path d="m6.163 12.547c-.302-.462-.172-1.082.29-1.384s1.082-.173 1.384.29c.898 1.374 1.962 2.563 3.163 3.566v-13.019c0-.552.448-1 1-1s1 .448 1 1v13.018c1.201-1.003 2.265-2.192 3.163-3.566.303-.462.921-.591 1.384-.29.462.302.592.922.29 1.384-1.421 2.173-3.204 3.955-5.298 5.295-.165.105-.352.158-.539.158s-.375-.053-.539-.158c-2.094-1.34-3.877-3.122-5.298-5.295zm15.837 2.453c-.073 0-1.81.013-3.618 1.154-.267.168-.438.452-.463.767-.116 1.463-.333 2.782-.47 3.527-1.062.196-3.291.552-5.449.552s-4.387-.356-5.449-.552c-.137-.745-.354-2.064-.47-3.527-.025-.314-.197-.598-.463-.767-1.808-1.141-3.545-1.154-3.618-1.154-.55 0-.993.444-.997.993-.003.55.44 1 .99 1.007.011 0 1.004.021 2.14.607.205 2.14.573 3.831.59 3.907.083.381.381.679.762.762.134.03 3.331.724 6.514.724s6.38-.694 6.514-.724c.381-.083.679-.381.762-.762.017-.076.385-1.767.59-3.907 1.136-.587 2.128-.607 2.134-.607.552 0 1-.448 1-1s-.448-1-1-1z"/></svg>