<svg id="Layer_1" viewBox="0 0 24 24" xmlns="http://www.w3.org/2000/svg" data-name="Layer 1"><path d="m12 1c-5.72 0-9 3.098-9 8.5 0 4.836 2.557 6.881 4.7 7.745.188.076.315.259.322.466.035.976.111 1.869.227 2.657.191 1.3 1.196 2.316 2.5 2.529.412.068.833.103 1.251.103.405 0 .814-.032 1.217-.097 1.308-.208 2.314-1.222 2.503-2.521.124-.856.206-1.755.241-2.673.008-.202.133-.381.318-.455 2.154-.862 4.721-2.907 4.721-7.754 0-5.402-3.28-8.5-9-8.5zm1.741 19.095c-.062.429-.399.764-.837.834-.608.095-1.229.096-1.831-.005-.441-.072-.781-.412-.845-.847-.058-.393-.102-.824-.138-1.277.561.108 1.229.2 1.911.2.672 0 1.331-.089 1.888-.195-.038.439-.086.871-.147 1.29zm1.794-4.698c-.603.243-1.056.717-1.32 1.287-.512.132-1.371.315-2.215.315-.854 0-1.722-.187-2.232-.32-.264-.57-.715-1.045-1.318-1.289-2.289-.923-3.45-2.904-3.45-5.891 0-4.313 2.355-6.5 7-6.5s7 2.187 7 6.5c0 2.993-1.166 4.977-3.465 5.897zm1.228-8.647c-.185-.321-.521-.5-.867-.5-.169 0-.341.043-.499.134l-.811.468c-.397-.384-.931-.631-1.586-.754v-1.098c0-.553-.448-1-1-1s-1 .447-1 1v1.098c-.655.123-1.189.371-1.586.754l-.811-.468c-.158-.091-.33-.134-.499-.134-.346 0-.682.179-.867.5-.276.479-.112 1.09.366 1.366l.956.552c-.038.259-.059.536-.059.832s.02.573.059.832l-.956.552c-.478.276-.642.888-.366 1.366.185.321.521.5.867.5.169 0 .341-.043.499-.134l.811-.468c.397.384.931.631 1.586.754v1.098c0 .553.448 1 1 1s1-.447 1-1v-1.098c.655-.123 1.189-.371 1.586-.754l.811.468c.158.091.33.134.499.134.346 0 .682-.179.867-.5.276-.479.112-1.09-.366-1.366l-.956-.552c.038-.259.059-.536.059-.832s-.02-.573-.059-.832l.956-.552c.478-.276.642-.888.366-1.366zm-4.763 4.25c-1.233 0-1.5-.267-1.5-1.5s.267-1.5 1.5-1.5 1.5.267 1.5 1.5-.267 1.5-1.5 1.5z"/></svg>