<svg id="Layer_1" viewBox="0 0 24 24" xmlns="http://www.w3.org/2000/svg" data-name="Layer 1"><path d="m23 10.5c0 1.551-.169 2.766-.53 3.823-.18.523-.75.799-1.27.623-.523-.179-.802-.747-.623-1.27.288-.843.423-1.853.423-3.177 0-5.538-1.963-7.5-7.5-7.5-3.67 0-5.378.756-7.027 3.112-1.578 2.253-2.576 4.28-3.237 6.603.343.054.765.11 1.252.159.491.049.874.45.899.943.073 1.404.326 2.946.476 3.77.613.144 1.716.35 3.18.413.535.023.957.464.957.999v1.358c.663.254 2.002.642 4 .642 1.729 0 2.959-.287 3.685-.528.524-.171 1.089.11 1.264.635.174.523-.11 1.09-.635 1.264-.866.287-2.317.63-4.314.63-3.569 0-5.437-1.096-5.515-1.143-.301-.181-.485-.506-.485-.857v-1.063c-2.039-.177-3.258-.577-3.316-.597-.337-.112-.59-.396-.663-.743-.018-.088-.397-1.917-.57-3.83-1.038-.138-1.656-.287-1.688-.295-.534-.13-.862-.666-.737-1.201.703-2.985 1.877-5.547 3.808-8.305 2.023-2.891 4.372-3.965 8.665-3.965 6.659 0 9.5 2.841 9.5 9.5zm-2.293 6.793c.391.391.391 1.023 0 1.414-.195.195-.451.293-.707.293s-.512-.098-.707-.293l-3.335-3.335c-.764.416-1.74.628-2.958.628-3.411 0-5-1.589-5-5s1.589-5 5-5 5 1.589 5 5c0 1.218-.212 2.194-.628 2.958zm-4.707-6.293c0-2.299-.701-3-3-3s-3 .701-3 3 .701 3 3 3 3-.701 3-3z"/></svg>