<?xml version="1.0" encoding="UTF-8"?>
<svg xmlns="http://www.w3.org/2000/svg" id="Layer_1" data-name="Layer 1" viewBox="0 0 24 24">
  <g>
    <path d="m12.006,23c-7.245,0-11.006-4.186-11.006-11.018C1,4.841,4.929,1.044,11.994,1c6.98.045,10.884,3.946,11.006,10.983-.133,7.28-3.832,10.975-10.994,11.017ZM3,12c.118,6.105,2.979,8.965,9.006,9,6.021-.036,8.882-2.901,8.994-9.019-.103-5.909-3.133-8.943-9.006-8.981-5.935.037-8.88,2.981-8.994,9Z"/>
    <path d="m12,15c-.552,0-1-.448-1-1v-1.411c0-.55.444-.997.994-1,1.489-.009,2.08-.603,2.107-2.12-.025-1.439-.656-2.073-2.108-2.083-1.458.009-2.068.624-2.095,2.119-.01.553-.504.977-1.018.982-.552-.01-.992-.466-.982-1.018.046-2.579,1.539-4.067,4.095-4.084,2.533.017,4.064,1.544,4.108,4.084-.042,2.292-1.133,3.687-3.102,4.033v.496c0,.552-.448,1-1,1Z"/>
  </g>
  <circle cx="12" cy="18" r="1"/>
</svg>
