<svg id="Layer_1" viewBox="0 0 24 24" xmlns="http://www.w3.org/2000/svg" data-name="Layer 1"><path d="m23 19c0 .552-.448 1-1 1h-3.667c-2.015 1.508-4.099 3-6.333 3-2.125 0-4.578-1.767-5.903-3h-4.097c-.552 0-1-.448-1-1s.448-1 1-1h4.5c.265 0 .52.105.707.293 1.047 1.046 3.273 2.707 4.793 2.707 1.244 0 2.617-.794 3.997-1.768-1.429-.731-2.519-1.616-3.085-2.137-.774.46-1.571.779-2.271.878-.72.108-1.438-.1-1.95-.623-.741-.741-.906-1.858-.41-2.781.011-.026.655-1.325 1.789-2.563-.022 0-.047-.006-.069-.006-.84 0-2.208.456-3.53.897-.147.052-.313.107-.47.103h-4.001c-.552 0-1-.448-1-1s.448-1 1-1h3.837c1.542-.514 2.998-1 4.163-1 .641 0 1.324.185 1.998.519.668-.33 1.362-.519 2.002-.519 1.165 0 2.621.486 4.163 1h3.837c.552 0 1 .448 1 1s-.448 1-1 1h-4c-.157.005-.323-.051-.47-.103-1.322-.441-2.689-.897-3.53-.897-.668 0-1.562.444-2.223 1.105-1.075 1.075-1.711 2.362-1.717 2.375-.078.147-.084.327.044.456.041.04.084.083.255.056.692-.098 1.906-.672 2.934-1.7.391-.391 1.023-.391 1.414 0s.391 1.023 0 1.414c-.053.053-.112.103-.167.155.717.617 2.018 1.583 3.642 2.138h3.818c.552 0 1 .448 1 1zm-10-14.5c0-1.062.349-2.153.456-2.461.11-.319.376-.567.704-.649.064-.016 1.579-.39 3.34-.39s3.276.374 3.34.39c.328.082.593.326.703.646.108.312.457 1.403.457 2.465s-.349 2.153-.456 2.461c-.11.319-.376.567-.704.649-.064.016-1.579.39-3.34.39-.145 0-.443-.023-.7-.046-.457.391-1.249.971-1.925.971-.19.001-.375-.049-.533-.154-.534-.349-1.342-2.23-1.342-4.271zm2 0c0 .831.17 1.551.345 2.062.126-.098.263-.215.401-.353.213-.214.51-.32.813-.288.005 0 .71.079.941.079.927 0 1.783-.122 2.311-.218.105-.409.189-.88.189-1.282s-.085-.875-.189-1.282c-.528-.096-1.383-.218-2.311-.218s-1.783.122-2.311.218c-.105.409-.189.88-.189 1.282zm-12.543 2.465c-.108-.312-.457-1.403-.457-2.465s.349-2.153.456-2.461c.11-.319.376-.567.704-.649.064-.016 1.579-.39 3.34-.39s3.276.374 3.34.39c.328.082.593.326.703.646.108.312.457 1.403.457 2.465 0 2.041-.808 3.921-1.342 4.271-.158.105-.343.155-.533.154-.676 0-1.468-.58-1.925-.971-.256.023-.555.046-.7.046-1.761 0-3.276-.374-3.34-.39-.328-.082-.593-.326-.703-.646zm1.543-2.465c0 .403.085.875.189 1.282.528.096 1.383.218 2.311.218.232 0 .941-.078.941-.078.299-.034.599.072.813.287.138.138.274.255.401.353.175-.511.345-1.231.345-2.062 0-.403-.085-.875-.189-1.282-.528-.096-1.383-.218-2.311-.218s-1.783.122-2.311.218c-.105.409-.189.88-.189 1.282z"/></svg>