<svg id="Layer_1" viewBox="0 0 24 24" xmlns="http://www.w3.org/2000/svg" data-name="Layer 1"><path d="m13.5 21.985c.007.552-.436 1.005-.988 1.012-.254.003-.769.003-1.023 0-.553-.007-.995-.459-.988-1.012s.422-1.017 1.012-.988c.243.003.734.003.977 0 .506-.021 1.005.436 1.012.988zm-8.506-8.985c1.827.012 2.975 1.155 3.007 2.982-.035 1.919-1.127 3.006-2.995 3.018-1.881-.011-2.973-1.098-3.007-2.982v-.036c.033-1.856 1.152-2.971 2.995-2.982zm0 2c-.739.004-.977.239-.994 1 .018.771.246.996 1.007 1 .764-.005.98-.224.995-1.019-.013-.72-.268-.977-1.008-.981zm1.72 5.089c-1.13-.118-2.299-.118-3.427 0-.921.096-1.73.632-2.165 1.435-.264.485-.083 1.092.402 1.355.485.265 1.093.083 1.355-.402.12-.222.351-.371.614-.398.992-.103 2.021-.103 3.013 0 .739.161 1.049 1.367 1.971.801.485-.263.666-.87.402-1.355-.435-.803-1.245-1.339-2.166-1.435zm15.287-4.106c-.034 1.919-1.126 3.006-2.995 3.018-1.88-.011-2.972-1.097-3.007-2.981v-.036c.033-1.856 1.152-2.971 2.995-2.982 1.827.012 2.975 1.155 3.007 2.982zm-2 0c-.013-.72-.268-.977-1.008-.982-.739.004-.977.239-.994 1 .019.771.246.996 1.007 1 .765-.005.98-.224.995-1.018zm2.878 5.542c-.435-.802-1.244-1.339-2.165-1.435-1.131-.118-2.297-.118-3.428 0-.921.096-1.73.632-2.165 1.435-.264.485-.083 1.092.402 1.355.484.265 1.093.083 1.355-.402.12-.222.351-.371.614-.398.994-.104 2.02-.104 3.014 0 .264.027.494.176.614.398.264.49.88.663 1.355.402.485-.263.666-.87.402-1.355zm-21.814-10.588c.225-3.562.942-6.105.973-6.212.096-.332.355-.592.688-.687.069-.02.878-.245 2.274-.48v-1.558c0-.552.447-1 1-1s1 .448 1 1v1.278c1.388-.158 3.069-.278 5-.278s3.612.12 5 .278v-1.278c0-.552.447-1 1-1s1 .448 1 1v1.558c1.396.236 2.206.461 2.274.48.332.095.592.354.688.687.03.106.748 2.649.973 6.212.035.551-.384 1.026-.935 1.061-.545.037-1.029-.382-1.062-.935-.024-.384-.056-.75-.091-1.107-.661-.17-3.983-.956-8.847-.956s-8.186.786-8.847.956c-.035.357-.067.724-.091 1.107-.035.551-.516.969-1.062.935-.551-.035-.97-.51-.935-1.061zm2.757-5.11c-.104.443-.253 1.137-.396 2.01 1.448-.314 4.473-.837 8.573-.837s7.125.523 8.573.837c-.142-.873-.291-1.567-.396-2.01-1.167-.265-4.125-.827-8.178-.827s-7.011.562-8.178.827z"/></svg>