<svg id="Layer_1" viewBox="0 0 24 24" xmlns="http://www.w3.org/2000/svg" data-name="Layer 1"><path d="m6.5 10v4c0 .552-.447 1-1 1s-1-.448-1-1v-4c0-.552.447-1 1-1s1 .448 1 1zm5.5 5c-1.99 0-3-1.009-3-3s1.01-3 3-3 3 1.009 3 3-1.01 3-3 3zm0-2c.879 0 1-.122 1-1s-.121-1-1-1-1 .122-1 1 .121 1 1 1zm6.972 5.972c-1.385 1.384-3.6 2.028-6.972 2.028s-5.587-.645-6.972-2.028c-.391-.391-1.023-.391-1.414 0s-.391 1.024 0 1.414c1.784 1.784 4.448 2.614 8.386 2.614s6.602-.831 8.386-2.614c.391-.39.391-1.023 0-1.414s-1.023-.391-1.414 0zm-6.972.028c2.475 0 4.164-.536 5.314-1.686.391-.391.391-1.024 0-1.415s-1.023-.39-1.414 0c-.74.741-2.017 1.101-3.9 1.101s-3.16-.36-3.9-1.101c-.391-.39-1.023-.39-1.414 0s-.391 1.024 0 1.415c1.15 1.15 2.84 1.686 5.314 1.686zm-6.972-13.972c1.385-1.384 3.6-2.028 6.972-2.028s5.587.645 6.972 2.028c.391.391 1.023.391 1.414 0s.391-1.024 0-1.414c-1.784-1.784-4.448-2.614-8.386-2.614s-6.602.831-8.386 2.614c-.391.39-.391 1.023 0 1.414s1.023.391 1.414 0zm12.286 3.072c.391-.391.391-1.024 0-1.415-1.15-1.15-2.84-1.686-5.314-1.686s-4.164.536-5.314 1.686c-.391.391-.391 1.024 0 1.415s1.023.39 1.414 0c.74-.741 2.017-1.101 3.9-1.101s3.16.36 3.9 1.101c.391.39 1.024.39 1.414 0zm3.757 1.198c-.124-.049-.809-.298-2.071-.298s-1.947.249-2.071.298c-.507.203-.749.771-.556 1.281.193.509.769.768 1.282.582.002 0 .118-.041.345-.082v2.92c0 .552.447 1 1 1s1-.448 1-1v-2.921c.418.07.38.138.7.148.396 0 .772-.238.929-.629.205-.513-.045-1.095-.558-1.3z"/></svg>