<svg id="Layer_1" viewBox="0 0 24 24" xmlns="http://www.w3.org/2000/svg" data-name="Layer 1"><path d="m18.278 1.305c-2.326-.734-5.284.06-6.278.371-.992-.309-3.949-1.097-6.278-.365-3.941 1.244-4.449 4.374-4.167 5.854.065.345.307.63.636.752.09.033 1.336.481 2.975.547-.658 2.756.824 4.669 1.846 5.363.168.114.365.173.562.173.143 0 .286-.03.42-.093.095-.044 1.502-.708 2.808-2.023.11.715.198 1.472.198 2.103 0 3.022-1.968 5.476-2.55 6.134-3.749.271-5.666.897-5.767.931-.523.175-.805.739-.631 1.263.173.522.738.807 1.263.635.029-.01 2.96-.951 8.686-.951s8.657.941 8.686.951c.104.034.21.051.314.051.418 0 .809-.265.949-.684.175-.523-.108-1.09-.632-1.265-.076-.025-1.184-.387-3.331-.68-.041-1.39-.223-4.58-1.019-7.625-.491-1.878-1.253-3.613-2.008-5.042 1.163.577 2.388.761 3.477.761 1.833 0 3.275-.521 3.373-.556.329-.122.571-.407.636-.752.282-1.48-.227-4.61-4.167-5.854zm-11.954 1.914c1.365-.432 3.159-.13 4.281.146-.427.777-1.167 1.841-2.252 2.449-1.728.967-3.83.649-4.851.402.061-.822.515-2.271 2.822-2.998zm1.393 8.56c-.482-.559-1.095-1.699-.409-3.477.675-.139 1.362-.373 2.022-.742.67-.375 1.235-.857 1.705-1.367.05.59.024 1.229-.153 1.852-.543 1.914-2.263 3.183-3.165 3.733zm8.258 8.376c-1.142-.094-2.467-.156-3.976-.156-.326 0-.644.003-.953.009.912-1.383 1.953-3.51 1.953-6.019 0-1.357-.326-3.083-.52-4.114l-.051-.273c.148-.318.276-.654.377-1.008.044-.154.08-.308.112-.462.778 1.397 1.607 3.18 2.115 5.123.69 2.641.887 5.479.943 6.901zm-.329-14.346c-1.091-.61-1.829-1.669-2.254-2.444 1.121-.277 2.917-.583 4.283-.15 2.311.729 2.763 2.18 2.823 2.998-1.023.247-3.125.563-4.853-.403z"/></svg>