<svg id="Layer_1" viewBox="0 0 24 24" xmlns="http://www.w3.org/2000/svg" data-name="Layer 1"><path d="m22.707 21.293-4.539-4.539c1.195-1.57 1.832-3.675 1.832-6.254 0-6.037-3.462-9.5-9.5-9.5s-9.5 3.463-9.5 9.5 3.462 9.5 9.5 9.5c2.579 0 4.684-.637 6.254-1.832l4.539 4.539c.391.391 1.023.391 1.414 0s.391-1.023 0-1.414zm-12.207-3.293c-4.977 0-7.5-2.523-7.5-7.5s2.523-7.5 7.5-7.5 7.5 2.523 7.5 7.5-2.523 7.5-7.5 7.5zm1-3.5c0 .552-.448 1-1 1s-1-.448-1-1 .448-1 1-1 1 .448 1 1zm2-6c0 1.474-.562 2.417-1.669 2.805-.178.062-.311.162-.334.207 0 .552-.446.994-.998.994s-.998-.453-.998-1.006c0-.925.64-1.723 1.67-2.083.131-.046.33-.115.33-.917 0-.879-.122-1-1-1s-1 .121-1 1c0 .553-.448 1-1 1s-1-.447-1-1c0-1.99 1.009-3 3-3s3 1.01 3 3z"/></svg>