<svg id="Layer_1" viewBox="0 0 24 24" xmlns="http://www.w3.org/2000/svg" data-name="Layer 1"><path d="m22.738 16.337c-.19-.214-.462-.337-.749-.337h-.283c.189-1.264.294-2.833.294-4.5 0-4.127-.92-6.729-.959-6.839-.186-.519-.757-.788-1.277-.602-.519.186-.79.758-.605 1.277.008.023.841 2.412.841 6.163 0 1.693-.118 3.302-.32 4.5h-4.739c-.506 0-.933.379-.993.882-.021.176-.046.33-.071.462-.392.074-1.019.156-1.876.156s-1.486-.082-1.876-.156c-.025-.132-.05-.286-.071-.462-.06-.503-.487-.882-.993-.882h-4.741c-.202-1.198-.32-2.807-.32-4.5 0-3.751.833-6.14.841-6.161.187-.52-.083-1.093-.602-1.279-.521-.19-1.093.083-1.28.602-.039.109-.959 2.712-.959 6.839 0 1.667.105 3.236.294 4.5h-.283c-.287 0-.559.123-.749.337-.189.215-.278.5-.244.784.309 2.522.838 4.02.86 4.082.1.278.317.498.594.601.132.049 3.3 1.196 9.528 1.196s9.396-1.147 9.528-1.196c.277-.103.494-.322.594-.601.022-.062.551-1.56.86-4.082.035-.284-.054-.569-.244-.784zm-2.358 3.73c-1.039.29-3.85.933-8.38.933s-7.343-.643-8.38-.933c-.119-.425-.296-1.13-.454-2.067h5.052c.068.294.127.469.138.499.099.281.317.503.597.605.109.041 1.124.396 3.047.396s2.938-.354 3.047-.396c.279-.103.498-.324.597-.605.011-.03.07-.205.138-.499h5.052c-.158.938-.335 1.643-.454 2.067zm-13.576-10.067c.277.483.896.639 1.366.366l.758-.438c.492.529 1.178.863 2.072.998v1.074c0 .553.448 1 1 1s1-.447 1-1v-1.074c.894-.135 1.58-.469 2.072-.998l.758.438c.469.273 1.089.117 1.366-.366.276-.478.113-1.09-.366-1.366l-.927-.535c.058-.339.097-.699.097-1.099s-.038-.76-.097-1.099l.927-.535c.479-.276.642-.889.366-1.366-.277-.483-.896-.639-1.366-.366l-.758.438c-.492-.529-1.178-.863-2.072-.998v-1.074c0-.553-.448-1-1-1s-1 .447-1 1v1.074c-.894.135-1.58.469-2.072.998l-.758-.438c-.469-.273-1.089-.117-1.366.366-.276.478-.113 1.09.366 1.366l.927.535c-.058.339-.097.699-.097 1.099s.038.76.097 1.099l-.927.535c-.479.276-.642.889-.366 1.366zm5.196-5c1.589 0 2 .411 2 2s-.411 2-2 2-2-.411-2-2 .411-2 2-2z"/></svg>