<svg id="Layer_1" viewBox="0 0 24 24" xmlns="http://www.w3.org/2000/svg" data-name="Layer 1"><path d="m14.768 1.791c-.109-.032-2.708-.791-5.268-.791s-5.158.759-5.268.791c-.383.113-.662.442-.709.838-.003.027-.019.162-.042.371h-.731c-.552 0-1 .448-1 1s.448 1 1 1h.543c-.047.584-.096 1.257-.14 2h-.903c-.552 0-1 .448-1 1s.448 1 1 1h.808c-.024.641-.042 1.309-.051 2h-1.007c-.552 0-1 .448-1 1s.448 1 1 1h1.007c.009.691.027 1.359.051 2h-.808c-.552 0-1 .448-1 1s.448 1 1 1h.903c.044.743.093 1.416.14 2h-.543c-.552 0-1 .448-1 1s.448 1 1 1h.731c.023.209.039.343.042.371.048.396.327.726.709.838.109.032 2.708.791 5.268.791s5.158-.759 5.268-.791c.383-.113.662-.442.709-.838.021-.176.523-4.368.523-9.371s-.501-9.194-.523-9.371c-.048-.396-.327-.726-.709-.838zm-1.204 18.666c-.871.209-2.503.543-4.064.543s-3.194-.334-4.064-.543c-.141-1.381-.436-4.72-.436-8.457s.295-7.074.436-8.457c.871-.209 2.503-.543 4.064-.543s3.194.334 4.064.543c.141 1.381.436 4.72.436 8.457s-.295 7.074-.436 8.457zm9.145-18.097c-.023-.367-.246-.692-.58-.846-.115-.052-1.147-.514-2.129-.514-1.005 0-2 .496-2.11.553-.312.16-.517.472-.541.821-.003.051-.349 5.144-.349 9.626 0 4.944.306 8.072.319 8.202.019.188.09.367.206.516.767.985 1.727 1.948 1.768 1.989.188.188.442.293.707.293s.52-.105.707-.293c.041-.041 1.001-1.003 1.768-1.989.116-.149.188-.328.206-.516.013-.13.319-3.258.319-8.202 0-4.974-.288-9.594-.291-9.64zm-1.992 17.355c-.239.294-.492.582-.717.83-.225-.248-.478-.536-.717-.83-.075-.874-.283-3.659-.283-7.715 0-3.499.214-7.384.304-8.868.451-.145.972-.14 1.446.002.078 1.432.25 5.042.25 8.866 0 4.056-.208 6.841-.283 7.715zm-8.717-12.715c0 .552-.448 1-1 1h-3c-.552 0-1-.448-1-1s.448-1 1-1h3c.552 0 1 .448 1 1z"/></svg>