<svg id="Layer_1" viewBox="0 0 24 24" xmlns="http://www.w3.org/2000/svg" data-name="Layer 1"><path d="m22.316 16.051c-.084-.028-1.438-.464-4.316-.765v-1.286c0-.552-.447-1-1-1s-1 .448-1 1v1.121c-.897-.056-1.893-.097-3-.112v-6.083c2.013-.304 3-1.594 3-3.926 0-2.691-1.309-4-4-4s-4 1.309-4 4c0 2.332.987 3.622 3 3.926v6.083c-6.369.089-9.194 1.002-9.316 1.042-.408.136-.684.518-.684.949v4c0 .431.275.812.684.949.129.043 3.235 1.051 10.316 1.051s10.187-1.008 10.316-1.051c.408-.136.684-.518.684-.949v-4c0-.431-.275-.812-.684-.949zm-12.316-11.051c0-1.589.411-2 2-2s2 .411 2 2-.411 2-2 2-2-.411-2-2zm11 15.226c-1.224.274-4.119.774-9 .774s-7.778-.5-9-.774v-2.452c1.224-.274 4.119-.774 9-.774s7.778.5 9 .774z"/></svg>