<svg id="Layer_1" viewBox="0 0 24 24" xmlns="http://www.w3.org/2000/svg" data-name="Layer 1"><path d="m19.998 21.936c-.009-.14-.245-3.479-2.403-7.315-.794-1.412-1.95-2.62-3.036-3.599.833-.685 1.986-1.787 2.75-3.145 1.49-2.648 1.653-4.968 1.66-5.065.035-.551-.383-1.027-.934-1.062-.548-.037-1.026.383-1.062.934 0 .02-.138 1.958-1.407 4.213-.831 1.477-2.313 2.636-2.888 3.051-.589-.007-1.771-.019-2.145.007-2.05.142-3.545.436-4.515.69.142-5.254 1.07-8.315 1.08-8.348.163-.527-.132-1.087-.659-1.251-.526-.165-1.087.129-1.251.656-.048.155-1.189 3.882-1.189 10.293 0 7.971 1.139 10.255 1.269 10.489.181.327.517.529.864.508.964-.057 1.139-.972.896-1.458-.01-.02-.96-2.001-1.024-8.808.75-.231 2.289-.613 4.667-.777.248-.017 1.18-.012 1.905-.003 1.186 1.004 2.465 2.214 3.276 3.655 1.923 3.417 2.148 6.434 2.15 6.462.034.529.523.993 1.062.934.583-.064.969-.511.934-1.062z"/></svg>