<svg id="Layer_1" viewBox="0 0 24 24" xmlns="http://www.w3.org/2000/svg" data-name="Layer 1"><path d="m22 7.217v9.565c-.018.267-.115.508-.294.708-2.814 2.856-6.005 4.701-9.486 5.485-.145.032-.295.032-.439 0-3.481-.784-6.672-2.629-9.486-5.485-.179-.2-.276-.441-.294-.708v-9.565c-.015-.398.26-.707.542-.944 2.752-2.716 5.857-4.487 9.237-5.249.145-.032.295-.032.439 0 3.483.785 6.677 2.632 9.493 5.491.185.187.288.439.288.702zm-17.316-.216c2.232 2.001 4.687 3.339 7.316 3.972 2.626-.633 5.081-1.974 7.314-3.975-2.231-2-4.683-3.338-7.314-3.972-2.632.634-5.085 1.973-7.316 3.974zm15.316 9.355v-2.825c-.513.492-1.355.747-1.826.052-.311-.457-.194-1.079.262-1.39.513-.35 1.031-.745 1.564-1.175v-1.967c-2.38 1.974-4.99 3.296-7.78 3.924-.145.032-.295.032-.439 0-2.794-.63-5.402-1.956-7.78-3.93v1.974c.533.43 1.051.825 1.564 1.175.456.312.573.934.262 1.39-.314.459-.939.571-1.39.262-.145-.099-.291-.211-.436-.315v2.825c2.41 2.36 5.096 3.918 8 4.617 2.904-.699 5.59-2.256 8-4.617zm-5.698.06c.74-.234 1.428-.495 2.105-.796.504-.225.731-.816.506-1.321s-.817-.731-1.321-.506c-.607.271-1.227.505-1.895.717-.526.167-.818.729-.651 1.255.166.531.743.818 1.255.651zm-3.349-.651c.167-.526-.125-1.088-.651-1.255-.668-.212-1.288-.446-1.895-.717-.505-.224-1.096.002-1.321.506s.002 1.096.506 1.321c.677.301 1.365.562 2.105.796.512.168 1.09-.12 1.255-.651z"/></svg>