<svg id="Layer_1" viewBox="0 0 24 24" xmlns="http://www.w3.org/2000/svg" data-name="Layer 1"><path d="m22.819 4.069c-.384-.547-.827-1.074-1.317-1.565-.493-.493-1.023-.938-1.574-1.324-.318-.222-.734-.24-1.07-.048-.687.394-3.184 1.898-6.913 4.871-3.791.016-5.627 1.617-5.891 5.106-3.358 3.166-4.792 5.047-4.853 5.126-.208.276-.259.641-.133.964.025.065.638 1.611 2.381 3.352 1.743 1.742 3.288 2.355 3.353 2.38.322.125.688.076.966-.135.08-.06 1.954-1.497 5.116-4.851 3.495-.262 5.098-2.099 5.113-5.893 2.98-3.734 4.481-6.233 4.871-6.912.193-.337.174-.755-.049-1.072zm-15.786 16.749c-.492-.278-1.295-.806-2.17-1.681-.876-.875-1.404-1.679-1.682-2.169.486-.579 1.455-1.677 2.978-3.184.408 2.34 1.713 3.646 4.052 4.056-1.504 1.522-2.6 2.491-3.178 2.979zm4.967-4.818c-3.028 0-4-.972-4-4s.972-4 4-4 4 .972 4 4-.972 4-4 4zm5.628-6.729c-.477-1.474-1.427-2.423-2.901-2.9 2.145-1.627 3.739-2.663 4.564-3.169.274.222.541.461.797.716.253.254.491.518.711.791-.523.854-1.549 2.429-3.171 4.562zm-2.628 2.729c0 .552-.447 1-1 1h-1v1c0 .552-.448 1-1 1s-1-.448-1-1v-1h-1c-.552 0-1-.448-1-1s.448-1 1-1h1v-1c0-.552.448-1 1-1s1 .448 1 1v1h1c.553 0 1 .448 1 1z"/></svg>