<svg id="Layer_1" viewBox="0 0 24 24" xmlns="http://www.w3.org/2000/svg" data-name="Layer 1"><path d="m11 10v-4c0-.552.448-1 1-1s1 .448 1 1v4c0 .552-.448 1-1 1s-1-.448-1-1zm-7 6h-2c-.552 0-1 .448-1 1s.448 1 1 1h2c.552 0 1-.448 1-1s-.448-1-1-1zm18 0h-2c-.553 0-1 .448-1 1s.447 1 1 1h2c.553 0 1-.448 1-1s-.447-1-1-1zm-1.293-7.707c-.391-.391-1.023-.391-1.414 0l-2.5 2.5c-.391.391-.391 1.023 0 1.414s1.023.391 1.414 0l2.5-2.5c.391-.391.391-1.023 0-1.414zm-13.5 2.5-2.5-2.5c-.391-.391-1.023-.391-1.414 0s-.391 1.023 0 1.414l2.5 2.5c.391.391 1.023.391 1.414 0s.391-1.023 0-1.414zm4.793 4.21c-2.77 0-4.482 1.116-4.553 1.164-.458.304-.582.918-.281 1.378.3.459.919.587 1.381.292.013-.008 1.32-.833 3.453-.833s3.439.825 3.446.83c.171.113.362.167.553.167.324 0 .642-.157.834-.447.306-.46.181-1.081-.279-1.386-.072-.047-1.783-1.164-4.554-1.164z"/></svg>