<?xml version="1.0" encoding="UTF-8"?>
<svg xmlns="http://www.w3.org/2000/svg" id="Layer_1" data-name="Layer 1" viewBox="0 0 24 24">
  <path d="M21.785,6.16c-.119-.313-.387-.547-.713-.621-.159-.036-3.697-.831-8.072-.942V2.259c0-.553-.448-1-1-1s-1,.447-1,1v2.338c-4.366,.111-7.911,.906-8.071,.941-.329,.075-.598,.31-.715,.625-.05,.133-1.214,3.293-1.214,7.5,0,4.241,1.166,7.372,1.215,7.503,.119,.313,.387,.547,.714,.622,.171,.038,4.249,.953,9.071,.953s8.899-.915,9.071-.953c.329-.075,.598-.31,.715-.625,.05-.133,1.214-3.294,1.214-7.5,0-4.242-1.166-7.372-1.215-7.503Zm-1.705,13.789c-1.252,.242-4.492,.792-8.08,.792s-6.833-.55-8.082-.792c-.305-1-.918-3.373-.918-6.286,0-2.893,.615-5.279,.92-6.286,1.252-.242,4.492-.793,8.08-.793s6.833,.551,8.082,.793c.305,.999,.918,3.372,.918,6.286,0,2.892-.615,5.279-.92,6.286Z"/>
  <path d="M6.486,9.088h-.383c-.552,0-1,.447-1,1s.448,1,1,1h.383c.552,0,1-.447,1-1s-.448-1-1-1Z"/>
  <path d="M10.202,11.088h.383c.552,0,1-.447,1-1s-.448-1-1-1h-.383c-.552,0-1,.447-1,1s.448,1,1,1Z"/>
  <path d="M17.897,9.088h-3.596c-.552,0-1,.447-1,1s.448,1,1,1h3.596c.552,0,1-.447,1-1s-.448-1-1-1Z"/>
  <path d="M6.486,12.663h-.383c-.552,0-1,.447-1,1s.448,1,1,1h.383c.552,0,1-.447,1-1s-.448-1-1-1Z"/>
  <path d="M10.202,14.663h.383c.552,0,1-.447,1-1s-.448-1-1-1h-.383c-.552,0-1,.447-1,1s.448,1,1,1Z"/>
  <path d="M17.897,12.663h-3.596c-.552,0-1,.447-1,1s.448,1,1,1h3.596c.552,0,1-.447,1-1s-.448-1-1-1Z"/>
  <path d="M6.486,16.237h-.383c-.552,0-1,.447-1,1s.448,1,1,1h.383c.552,0,1-.447,1-1s-.448-1-1-1Z"/>
  <path d="M17.897,16.237h-.383c-.552,0-1,.447-1,1s.448,1,1,1h.383c.552,0,1-.447,1-1s-.448-1-1-1Z"/>
  <path d="M14.348,16.237h-4.695c-.552,0-1,.447-1,1s.448,1,1,1h4.695c.552,0,1-.447,1-1s-.448-1-1-1Z"/>
</svg>
