<?xml version="1.0" encoding="UTF-8"?>
<svg xmlns="http://www.w3.org/2000/svg" id="Layer_1" data-name="Layer 1" viewBox="0 0 24 24">
  <path d="M8.734,6.601c-1.395,0-2.487,1.455-2.487,3.312,0,.552,.448,1,1,1s1-.448,1-1c0-.837,.374-1.284,.482-1.312,.119,.028,.492,.475,.492,1.312,0,.552,.448,1,1,1s1-.448,1-1c0-1.857-1.092-3.312-2.487-3.312Z"/>
  <path d="M15.266,6.601c-1.395,0-2.487,1.455-2.487,3.312,0,.552,.448,1,1,1s1-.448,1-1c0-.837,.373-1.284,.482-1.312,.119,.028,.492,.475,.492,1.312,0,.552,.448,1,1,1s1-.448,1-1c0-1.857-1.093-3.312-2.487-3.312Z"/>
  <path d="M13.101,11.641c-.509,.008-.959,.11-1.339,.304-.492,.251-.688,.853-.437,1.345,.25,.491,.851,.688,1.345,.437,.073-.037,.212-.082,.429-.086,.611,.011,.643,.155,.646,.56-.002,.415-.035,.56-.639,.572-.554-.002-.979,.439-.989,.982-.01,.552,.43,1.008,.982,1.018,.611,.011,.644,.155,.646,.56-.002,.417-.035,.562-.611,.573-.275-.004-.416-.056-.476-.086-.492-.249-1.094-.054-1.345,.438-.25,.492-.054,1.094,.438,1.345,.379,.192,.833,.294,1.383,.303,1.625-.029,2.601-.986,2.61-2.572-.004-.637-.166-1.173-.466-1.587,.3-.383,.462-.896,.466-1.545-.01-1.575-.985-2.532-2.644-2.561Z"/>
  <path d="M11.994,1C4.929,1.044,1,4.841,1,11.982c0,7.018,3.933,10.977,11.006,11.018,7.162-.042,10.861-3.737,10.994-11.017-.122-7.037-4.026-10.938-11.006-10.983Zm.012,20c-6.026-.035-8.888-2.895-9.006-9,.113-6.019,3.059-8.963,8.994-9,5.873,.038,8.903,3.072,9.006,8.981-.112,6.117-2.974,8.983-8.994,9.019Z"/>
</svg>
