<?xml version="1.0" encoding="UTF-8"?>
<svg xmlns="http://www.w3.org/2000/svg" id="Layer_1" data-name="Layer 1" viewBox="0 0 24 24">
  <path d="M14.371,20.6c-.77,.141-1.624,.214-2.529,.22-5.922-.035-8.732-2.843-8.842-8.802,.105-5.91,2.998-8.8,8.83-8.837,5.556,.036,8.524,2.801,8.821,8.218,.011,.202,.018,.408,.021,.619,.01,.552,.451,.971,1.018,.982,.552-.01,.992-.465,.982-1.018-.004-.236-.013-.466-.025-.693-.354-6.476-4.19-10.066-10.817-10.109C4.87,1.224,1.125,4.959,1,12.019c.129,7.025,3.874,10.76,10.842,10.801,1.033-.006,2.005-.091,2.889-.252,.543-.1,.903-.62,.804-1.164-.099-.542-.618-.897-1.163-.804Z"/>
  <path d="M22.113,15.162c-.471-.436-1.074-.676-1.715-.647-.405,.016-.788,.142-1.116,.362-.328-.22-.711-.346-1.116-.362-.643-.032-1.244,.211-1.715,.647-.452,.418-.922,1.207-.885,2.165,.026,.667,.317,1.667,1.556,2.645,.208,.165,1.107,.847,2.161,.847,1.148,0,2.127-.807,2.4-1.047,1.073-.943,1.309-1.889,1.316-2.516,.012-.928-.45-1.69-.887-2.093Z"/>
  <path d="M15.236,11.227c1.236-.008,1.988-.713,2.013-1.927-.023-1.164-.794-1.892-2.022-1.899-1.237,.007-1.99,.712-2.015,1.927,.023,1.181,.775,1.891,2.013,1.898h.012Z"/>
  <path d="M10.46,9.314c0-.552-.448-1-1-1h-2.037c-.552,0-1,.448-1,1s.448,1,1,1h2.037c.552,0,1-.448,1-1Z"/>
  <path d="M11.929,11.641c-.509,.008-.959,.11-1.339,.304-.492,.251-.688,.853-.437,1.345,.25,.491,.851,.688,1.345,.437,.073-.037,.212-.082,.429-.086,.611,.011,.643,.155,.646,.56-.002,.415-.035,.56-.639,.572-.554-.002-.979,.439-.989,.982-.01,.552,.43,1.008,.982,1.018,.611,.011,.644,.155,.646,.56-.002,.417-.035,.562-.611,.573-.275-.004-.416-.056-.476-.086-.492-.249-1.094-.054-1.345,.438-.25,.492-.054,1.094,.438,1.345,.379,.192,.833,.294,1.383,.303,1.625-.029,2.601-.986,2.61-2.572-.004-.637-.166-1.173-.466-1.587,.3-.383,.462-.896,.466-1.545-.01-1.575-.985-2.532-2.644-2.561Z"/>
</svg>
