<svg id="Layer_1" viewBox="0 0 24 24" xmlns="http://www.w3.org/2000/svg" data-name="Layer 1"><path d="m21.661 7.66c.901-.9 1.339-1.771 1.339-2.66s-.438-1.76-1.339-2.66c-1.79-1.791-3.531-1.791-5.321 0-1.395 1.394-13.543 13.45-13.597 13.509-1.189 1.386-1.743 3.341-1.743 6.151.018.679.566 1.063 1.248 1.007 1.388 0 6.868-.444 13.498-6.847l.547.547c.391.391 1.023.391 1.414 0s.391-1.023 0-1.414c-1.4-1.4-1.4-2.211.009-3.62 0 0 2.552-2.62 3.944-4.013zm-18.629 13.292c.111-1.722.508-2.963 1.174-3.742 0 0 3.081-3.058 6.318-6.272l3.803 3.803c-5.128 4.937-9.455 5.997-11.295 6.211zm13.261-10.685c-.75.75-1.209 1.457-1.445 2.167l-2.906-2.906c2.705-2.686 5.22-5.185 5.811-5.775.501-.501.874-.751 1.247-.751s.746.25 1.247.751.753.919.753 1.246-.253.746-.753 1.246c-1.396 1.396-3.954 4.021-3.954 4.021z"/></svg>