<svg id="Layer_1" viewBox="0 0 24 24" xmlns="http://www.w3.org/2000/svg" data-name="Layer 1"><path d="m22.977 9.003c.174-2.019-.631-3.983-2.328-5.68-3.228-3.228-7.39-3.078-10.863.393-1.265 1.264-1.587 2.648-1.612 3.666-2.623 1.066-2.955 3.586-2.96 5.459-.004 1.576.262 2.777.83 3.698l-4.751 4.751c-.391.391-.391 1.023 0 1.414.195.195.451.293.707.293s.512-.098.707-.293l4.757-4.757c.926.562 2.132.837 3.656.837h.038c2.87-.008 4.67-.979 5.474-2.959 1.015-.028 2.395-.353 3.653-1.612 1.605-1.604 2.536-3.406 2.691-5.209zm-6.93 4.795c-.511-.064-.978.257-1.101.75-.287 1.156-.945 2.227-3.794 2.235h-.033c-1.456 0-2.454-.29-3.049-.884-.589-.589-.861-1.559-.856-3.053.008-2.669.902-3.443 2.242-3.784.492-.125.812-.599.745-1.102-.099-.737-.006-1.826.999-2.831.966-.965 2.52-2.145 4.344-2.145 1.149 0 2.406.468 3.69 1.752 1.284 1.285 1.873 2.662 1.749 4.094-.114 1.328-.845 2.7-2.112 3.967-1.001 1.002-2.088 1.096-2.824 1z"/></svg>