<svg id="Layer_1" viewBox="0 0 24 24" xmlns="http://www.w3.org/2000/svg" data-name="Layer 1"><path d="m22.894 21.064c-.247-.494-.848-.692-1.342-.447-.725.362-1.331.381-1.606.39-.383.024-.609-.026-.754-.091-3.096-12.437-10.533-18.9-10.804-19.127-.598-.583-1.406-.839-2.479-.781-.308.01-1.245.041-2.356.597-.494.247-.694.848-.447 1.342.248.495.848.694 1.342.447.72-.36 1.307-.38 1.606-.39.607-.028.828.109.988.262.03.026 1.288 1.129 2.953 3.232-1.704 1.288-7.633 6.354-8.984 15.358-.082.546.295 1.056.841 1.138.535.082 1.058-.291 1.138-.841 1.228-8.192 6.744-12.926 8.206-14.051 2.188 3.104 4.708 7.671 6.139 13.636.044.184.14.351.274.482.576.591 1.504.849 2.475.782.308-.01 1.245-.039 2.363-.598.494-.247.694-.848.447-1.342z"/></svg>