<svg id="Layer_1" viewBox="0 0 24 24" xmlns="http://www.w3.org/2000/svg" data-name="Layer 1"><path d="m16.407 7.026c-.481-4.157-2.875-6.026-7.657-6.026-5.36 0-7.75 2.391-7.75 7.75 0 5.717.497 13.241.502 13.316.035.552.519.969 1.064.932.551-.037.968-.514.931-1.064-.005-.075-.498-7.532-.498-13.183 0-4.245 1.505-5.75 5.75-5.75 3.67 0 5.245 1.085 5.642 4.043-4.406.322-6.392 2.657-6.392 7.457 0 .477.336.887.804.98.083.017 1.636.32 4.22.455.117 1.46.847 2.065 2.476 2.065s2.359-.605 2.476-2.065c2.585-.135 4.138-.438 4.22-.455.467-.094.804-.504.804-.98 0-4.873-2.043-7.209-6.593-7.474zm-.907 6.974c-2.529 0-4.454-.207-5.477-.35.192-3.456 1.663-4.65 5.477-4.65s5.285 1.194 5.477 4.65c-1.024.143-2.948.35-5.477.35z"/></svg>