<svg id="Layer_1" viewBox="0 0 24 24" xmlns="http://www.w3.org/2000/svg" data-name="Layer 1"><path d="m22.622 5.578c-1.538-1.226-2.974-2.2-4.83-3.331-1.658-1.005-3.711-.917-5.229.225-.121.091-.233.187-.349.281-.718-.712-2.045-1.754-3.715-1.754-1.053 0-3.5.39-3.5 4v15.608c-1.717.078-2.885.333-3.241.421-.535.133-.862.675-.729 1.211.134.537.675.862 1.212.73.365-.091 1.719-.387 3.759-.387s3.394.296 3.759.387c.522.133 1.08-.189 1.212-.73.133-.536-.194-1.078-.729-1.211-.356-.088-1.525-.343-3.241-.421v-15.607c0-2 .976-2 1.5-2 .975 0 1.835.697 2.31 1.172-.111.134-.233.251-.339.392-1.141 1.518-1.229 3.569-.224 5.228 1.134 1.858 2.103 3.292 3.331 4.83.264.334.713.461 1.107.324.56-.192 1.743-.678 3.105-1.636 1.135.986 2.09.908 3.259-.26 1.168-1.169 1.246-2.124.26-3.259.958-1.361 1.444-2.545 1.637-3.105.137-.4.007-.844-.324-1.107zm-8.273 6.77c-.772-1.043-1.578-2.252-2.392-3.593-.578-.955-.534-2.128.112-2.988.503-.667 1.028-1.192 1.696-1.697.459-.345 1.005-.518 1.561-.518.487 0 .982.134 1.429.405 1.543.941 2.796 1.776 4.042 2.732-.384.871-1.137 2.233-2.506 3.602s-2.731 2.123-3.602 2.506c-.115-.149-.229-.299-.341-.449z"/></svg>