<svg id="Layer_1" viewBox="0 0 24 24" xmlns="http://www.w3.org/2000/svg" data-name="Layer 1"><path d="m20 17h-.317c.148-.85.317-2.214.317-4 0-.643-.019-1.318-.074-2h.074c.552 0 1-.448 1-1s-.448-1-1-1h-.361c-.638-2.953-2.334-5.608-6.639-5.96v-1.04c0-.552-.448-1-1-1s-1 .448-1 1v1.038c-4.33.34-6.029 2.923-6.658 5.962h-.342c-.552 0-1 .448-1 1s.448 1 1 1h.07c-.051.669-.07 1.341-.07 2 0 1.773.205 3.136.388 4h-.388c-.552 0-1 .448-1 1s.448 1 1 1h16c.552 0 1-.448 1-1s-.448-1-1-1zm-2-4c0 1.94-.217 3.326-.352 4h-1.648v-6h1.919c.055.613.081 1.279.081 2zm-4-2v6h-4v-6zm-2-6c3.122 0 4.866 1.174 5.593 4h-11.186c.726-2.826 2.47-4 5.593-4zm-6 8c0-.721.026-1.387.081-2h1.919v6h-1.558c-.163-.644-.442-2.034-.442-4z"/><path d="m20 21h-16c-.552 0-1 .448-1 1s.448 1 1 1h16c.552 0 1-.448 1-1s-.448-1-1-1z"/></svg>