<svg id="Layer_1" viewBox="0 0 24 24" xmlns="http://www.w3.org/2000/svg" data-name="Layer 1"><path d="m5.93 12.181c2.515 1.507 5.583 2.69 5.712 2.739.231.089.486.089.717 0 .129-.049 3.196-1.232 5.712-2.739 2.53-1.518 4.529-3.379 4.613-3.457.202-.189.316-.453.316-.73s-.114-.541-.316-.73c-.084-.079-2.083-1.94-4.614-3.458-2.515-1.507-5.582-2.689-5.711-2.739-.23-.089-.486-.089-.717 0-.129.049-3.197 1.232-5.712 2.739-2.53 1.518-4.529 3.379-4.613 3.458-.202.189-.316.454-.316.73s.114.541.316.73c.084.079 2.083 1.94 4.613 3.457zm6.07.73c-.648-.262-2.084-.865-3.553-1.622l3.553-2.129 3.553 2.129c-1.469.757-2.905 1.36-3.553 1.622zm5.54-2.763-3.595-2.155 3.594-2.154c1.197.763 2.254 1.583 2.939 2.155-.685.572-1.742 1.392-2.939 2.154zm-5.54-7.072c.648.263 2.085.866 3.552 1.622l-3.552 2.129-3.553-2.129c1.468-.756 2.905-1.359 3.553-1.622zm-5.54 2.763 3.595 2.155-3.594 2.154c-1.197-.763-2.254-1.583-2.939-2.155.684-.571 1.739-1.39 2.939-2.154zm16.328 6.546c.34.435.263 1.063-.173 1.403-.083.065-2.083 1.62-4.612 2.884-2.51 1.254-5.569 2.239-5.698 2.28-.198.063-.412.063-.609 0-.129-.042-3.189-1.026-5.698-2.28-2.529-1.265-4.529-2.819-4.612-2.884-.436-.34-.513-.968-.173-1.403.339-.435.967-.514 1.403-.173.02.015 1.933 1.5 4.276 2.671 1.93.965 4.281 1.786 5.108 2.063.827-.278 3.182-1.1 5.108-2.063 2.344-1.171 4.257-2.657 4.276-2.671.435-.341 1.063-.262 1.403.173zm.03 4.54c.317.452.208 1.075-.243 1.393-.084.059-2.083 1.457-4.609 2.594-2.506 1.127-5.56 2.012-5.689 2.049-.18.052-.373.052-.553 0-.129-.037-3.185-.921-5.689-2.049-2.526-1.138-4.525-2.535-4.609-2.594-.451-.317-.561-.94-.243-1.393.316-.451.941-.561 1.394-.244.019.013 1.934 1.351 4.279 2.406 1.956.88 4.344 1.627 5.145 1.869.802-.242 3.192-.99 5.145-1.869 2.346-1.056 4.261-2.393 4.279-2.406.452-.317 1.076-.208 1.394.244z"/></svg>