<svg id="Layer_1" viewBox="0 0 24 24" xmlns="http://www.w3.org/2000/svg" data-name="Layer 1"><path d="m21.142 21.072c-.164-.023-4.066-.572-9.142-.572-5.906 0-8-2.094-8-8 0-4.608 1.281-6.676 5-7.292v5.792c0 .553.447 1 1 1s1-.447 1-1v-5.98c.321-.012.652-.02 1-.02s.679.008 1 .02v5.98c0 .553.447 1 1 1s1-.447 1-1v-5.789c3.762.635 5 2.801 5 7.789 0 .553.447 1 1 1s1-.447 1-1c0-6.182-1.961-9.062-7-9.797v-1.203c0-.553-.447-1-1-1s-1 .447-1 1v1.025c-.326-.012-.653-.025-1-.025s-.674.012-1 .024v-1.024c0-.553-.447-1-1-1s-1 .447-1 1v1.203c-4.98.723-7 3.511-7 9.297 0 4.047 1.004 6.747 3.196 8.313-1.397.128-2.262.249-2.338.26-.547.078-.927.585-.849 1.132.078.545.582.924 1.132.849.038-.006 3.934-.553 8.858-.553 5.036.002 8.843.558 9.001.562.49 0 .918-.36.989-.858.078-.547-.302-1.054-.849-1.132z"/></svg>