<svg id="Layer_1" viewBox="0 0 24 24" xmlns="http://www.w3.org/2000/svg" data-name="Layer 1"><path d="m14.944 15.975c-.632.043-2.285.02-2.944.025-1.43 0-2.585-.167-3.539-.488-.084-.955-.288-2.375-.786-3.113-.456-.676-1.123-1.362-2.577-1.394-.058-.47-.098-.964-.098-1.506 0-4.617 2.028-6.5 7-6.5h2c4.972 0 7 1.883 7 6.5 0 1.221-.149 2.268-.444 3.111-.182.521.094 1.092.615 1.274.508.181 1.093-.089 1.274-.615.374-1.071.555-2.305.555-3.771 0-5.72-2.944-8.5-9-8.5h-2c-6.056.002-9 2.782-9 8.502 0 .699.059 1.339.145 1.948-.759.475-1.145 1.326-1.145 2.552 0 .539.085 1 .243 1.402-.8 1.146-1.243 2.375-1.243 3.598 0 2.935 2.392 4 4 4 .549 0 .992-.443.996-.992s-.439-.999-.989-1.008c-.471-.007-2.007-.173-2.007-2 0-.719.221-1.44.657-2.152.971.427 2.249.51 3.103.51.394-.003.677-.012.838-.031 1.21.445 2.647.673 4.403.673.729-.005 2.354.018 3.056-.028.551-.031.973-.503.942-1.055-.031-.551-.502-.962-1.055-.942zm-10.715-1.092c-.057-.057-.229-.229-.229-.882 0-.878.122-1 1-1 .639 0 .781.168 1.017.518.167.247.322 1.023.415 1.833-.973-.032-1.928-.194-2.203-.469zm18.016 5.619-1.356.387-.387 1.356c-.288 1.007-1.715 1.007-2.003 0l-.387-1.356-1.356-.387c-1.007-.288-1.007-1.715 0-2.003l1.356-.387.387-1.356c.288-1.007 1.715-1.007 2.003 0l.387 1.356 1.356.387c1.007.288 1.007 1.715 0 2.003zm-5.892-11.36c.863.247.863 1.47 0 1.717l-1.162.332-.332 1.162c-.247.863-1.47.863-1.717 0l-.332-1.162-1.162-.332c-.863-.247-.863-1.47 0-1.717l1.162-.332.332-1.162c.247-.863 1.47-.863 1.717 0l.332 1.162z"/></svg>