<svg id="Layer_1" viewBox="0 0 24 24" xmlns="http://www.w3.org/2000/svg" data-name="Layer 1"><path d="m5.255 15.307c3.258 2.067 6.299 3.098 6.427 3.141.104.035.211.052.318.052s.215-.017.318-.052c.128-.043 3.169-1.074 6.426-3.141 1.237-.784 2.794-1.96 2.859-2.01.44-.333.527-.96.194-1.401-.335-.441-.96-.529-1.401-.194-.016.012-1.556 1.175-2.724 1.916-2.457 1.559-4.834 2.507-5.673 2.819-.838-.311-3.208-1.255-5.674-2.819-1.166-.739-2.707-1.904-2.723-1.916-.442-.335-1.067-.247-1.401.194-.333.44-.246 1.068.194 1.401.065.05 1.622 1.226 2.858 2.01z"/><path d="m12.37 21.071c-.03-.012-3.094-1.24-6.057-3.056-1.306-.801-2.714-1.815-2.729-1.826-.447-.322-1.072-.223-1.396.226-.323.448-.223 1.073.226 1.396.06.043 1.481 1.068 2.854 1.909 3.107 1.905 6.229 3.157 6.361 3.209.121.048.247.071.37.071.397 0 .772-.239.929-.63.205-.513-.046-1.095-.559-1.299z"/><path d="m6.304 11.588c2.844 1.985 5.284 2.791 5.387 2.825.101.033.205.049.31.049s.209-.016.31-.049c.103-.034 2.543-.839 5.387-2.824 2.58-1.8 3.936-3.079 3.992-3.132.199-.189.312-.451.312-.726s-.113-.537-.312-.726c-.057-.054-1.412-1.332-3.992-3.132-2.844-1.984-5.284-2.79-5.387-2.824-.201-.065-.418-.065-.619 0-.103.034-2.543.839-5.387 2.824-2.58 1.8-3.936 3.078-3.992 3.132-.198.189-.312.451-.312.726s.112.537.312.726c.057.054 1.412 1.332 3.992 3.132zm1.145-6.075c2.024-1.413 3.846-2.18 4.552-2.45.706.27 2.527 1.037 4.552 2.449 1.312.916 2.294 1.692 2.926 2.218-.632.526-1.615 1.303-2.926 2.218-2.025 1.414-3.848 2.181-4.553 2.45-.703-.268-2.515-1.029-4.551-2.451-1.312-.915-2.294-1.691-2.926-2.217.632-.525 1.614-1.302 2.926-2.217z"/><path d="m21 19h-5c-.553 0-1 .448-1 1s.447 1 1 1h5c.553 0 1-.448 1-1s-.447-1-1-1z"/></svg>