<svg id="Layer_1" viewBox="0 0 24 24" xmlns="http://www.w3.org/2000/svg" data-name="Layer 1"><path d="m22.248 1.752c-1.606-1.605-11.943-.709-16.487 3.331-2.463 2.189-3.691 4.31-3.755 6.484-.059 1.99.877 4.019 2.834 6.178l-3.548 3.548c-.391.391-.391 1.024 0 1.414s1.024.391 1.414 0l3.547-3.547c2.169 1.953 4.127 2.882 6.178 2.834 2.174-.063 4.295-1.292 6.484-3.755 4.039-4.544 4.936-14.882 3.331-16.487zm-4.826 15.158c-1.803 2.029-3.454 3.038-5.047 3.084-1.628.053-3.409-.913-5.433-2.936-2.023-2.023-2.983-3.8-2.936-5.433.047-1.593 1.056-3.244 3.084-5.047 3.037-2.7 8.756-3.593 11.842-3.593.887 0 1.557.074 1.882.2.565 1.457.083 9.814-3.393 13.724zm-3.42-8.912c-.782 0-1.477.27-2 .727-.523-.457-1.218-.727-2-.727-1.655 0-3 1.418-3 3.161 0 3.914 4.367 6.142 4.553 6.235.141.07.294.105.447.105s.307-.035.447-.105c.186-.093 4.553-2.322 4.553-6.235 0-1.743-1.346-3.161-3-3.161zm-1.998 7.346c-.932-.587-3.002-2.123-3.002-4.186 0-.64.449-1.16 1-1.16.498 0 1 .309 1 1 0 .552.448 1 1 1s1-.448 1-1c0-.691.503-1 1-1 .551 0 1 .521 1 1.16 0 2.078-2.064 3.602-2.999 4.186z"/></svg>