<svg id="Layer_1" viewBox="0 0 24 24" xmlns="http://www.w3.org/2000/svg" data-name="Layer 1"><path d="m21.488 6.8c.989-1.342 1.497-2.949 1.512-4.792-.001-.549-.427-1.012-1.008-1.008-1.843.015-3.45.522-4.792 1.512-.48-.576-1.061-1.044-1.736-1.397-.329-.172-.727-.147-1.033.064-1.164.806-2.187 2.018-3.095 3.67-.27-.681-.613-1.337-1.012-1.916-.228-.331-.631-.491-1.027-.412-.815.169-1.445.347-2.05.673-.448-.374-.964-.726-1.561-1.064-.468-.279-1.124-.09-1.373.395-.377.699-.668 1.393-.881 2.103-.616.115-1.213.273-1.7.409-.464.13-.77.572-.727 1.052.211 2.376.795 4.469 1.739 6.233-.791.839-1.36 1.805-1.697 2.88-.133.424.03.884.399 1.131 1.137.758 2.224 1.246 3.314 1.495l-3.466 3.466c-.391.391-.391 1.023 0 1.414s1.023.391 1.414 0l3.466-3.466c.248 1.09.736 2.177 1.495 3.314.246.372.715.532 1.131.399 1.075-.337 2.041-.906 2.88-1.697 1.764.943 3.856 1.527 6.233 1.739.478.04.922-.264 1.052-.728.136-.488.293-1.086.409-1.699.71-.213 1.404-.504 2.103-.882.485-.249.673-.905.395-1.373-.338-.597-.69-1.113-1.064-1.561.327-.605.504-1.235.673-2.05.082-.394-.08-.799-.412-1.027-.579-.398-1.235-.742-1.916-1.012 1.653-.908 2.864-1.931 3.67-3.095.212-.306.237-.704.064-1.033-.354-.675-.821-1.256-1.397-1.736zm-1.961 1.081c.514.275.928.624 1.254 1.055-1.034 1.174-2.757 2.225-5.137 3.129-.451.171-.715.641-.628 1.115.087.475.501.819.983.819 1.014 0 2.296.378 3.363.971-.155.567-.324.907-.612 1.283-.309.403-.266.975.1 1.328.241.232.472.5.697.809-.422.17-.844.303-1.285.404-.41.094-.717.435-.769.852-.051.414-.142.852-.242 1.265-2.046-.271-3.761-.851-5.224-1.761-.413-.258-.96-.18-1.283.193-.545.627-1.149 1.097-1.833 1.423-.665-1.166-.944-2.234-.916-3.349l3.711-3.711c.391-.391.391-1.023 0-1.414s-1.023-.391-1.414 0l-3.712 3.712c-1.114.029-2.182-.252-3.348-.917.326-.684.795-1.288 1.423-1.833.371-.322.453-.866.193-1.283-.91-1.462-1.489-3.178-1.761-5.224.411-.1.849-.19 1.265-.241.417-.052.758-.359.852-.769.102-.441.234-.863.404-1.285.308.225.576.456.809.697.354.366.924.409 1.328.1.376-.288.716-.457 1.283-.612.593 1.066.971 2.349.971 3.363 0 .482.345.896.819.983.474.088.944-.177 1.115-.628.905-2.379 1.956-4.103 3.129-5.137.431.326.779.74 1.055 1.254.149.279.422.47.735.517.315.046.629-.058.853-.282.874-.874 1.948-1.416 3.204-1.618-.202 1.255-.744 2.33-1.618 3.204-.224.224-.329.54-.282.853s.238.586.517.735z"/></svg>