<svg id="Layer_1" viewBox="0 0 24 24" xmlns="http://www.w3.org/2000/svg" data-name="Layer 1"><path d="m9 11c.552 0 1 .448 1 1s-.448 1-1 1-1-.448-1-1 .448-1 1-1zm13.707 1.292c-.749-.978-1.622-1.853-2.607-2.592-.441-.332-1.067-.241-1.399.2-.332.442-.242 1.069.2 1.4.291.219.566.456.835.7h-3.735c-.553 0-1 .448-1 1s.447 1 1 1h3.735c-.268.244-.544.482-.835.7-.442.331-.532.958-.2 1.4.332.444.962.53 1.399.2.985-.739 1.858-1.615 2.607-2.592.174-.188.287-.445.292-.702 0-.26-.117-.523-.292-.713zm-5.89 4.799c-.268 2.916-.735 4.513-.755 4.58-.1.333-.364.591-.7.681 0 0-2.374.648-6.156.648-3.363 0-6.37-.452-6.509-.471-.41-.057-.742-.359-.837-.762-.035-.149-.859-3.721-.859-9.768s.833-9.139.868-9.267c.092-.331.348-.592.677-.69.142-.042 3.514-1.042 6.954-1.042.812 0 1.693.057 2.621.17.502.061.879.487.879.993v.989c1.483.278 2.503.651 2.554.669.296.11.522.354.611.657.018.062.444 1.545.681 4.44.045.55-.365 1.033-.916 1.078-.543.047-1.035-.364-1.078-.916-.142-1.742-.355-2.928-.488-3.545-.323-.097-.801-.224-1.363-.343v15.573c.523-.074.967-.154 1.28-.218.148-.66.384-1.896.544-3.639.051-.549.533-.952 1.088-.904.55.05.954.537.904 1.087zm-5.817-14.026c-.525-.043-1.027-.065-1.5-.065-2.365 0-4.77.539-5.826.808-.224 1.095-.674 3.841-.674 8.192s.443 7.361.673 8.635c1.14.131 3.497.365 5.827.365.473 0 .975-.014 1.5-.043z"/></svg>