<svg id="Layer_1" viewBox="0 0 24 24" xmlns="http://www.w3.org/2000/svg" data-name="Layer 1"><path d="m23 12.022c0 5.058-.932 9.061-.971 9.229-.085.359-.36.643-.717.737-.12.031-2.972.778-6.249.982-.021 0-.042.002-.063.002-.524 0-.964-.408-.997-.937-.034-.552.385-1.026.936-1.06 2.227-.139 4.292-.556 5.269-.777.251-1.275.793-4.458.793-8.175s-.541-6.9-.793-8.175c-1.185-.269-3.966-.824-6.707-.824s-5.522.556-6.707.824c-.205 1.041-.604 3.351-.743 6.178-.027.552-.485.975-1.048.95-.551-.027-.977-.496-.95-1.048.199-4.047.89-7.01.919-7.134.084-.359.36-.643.717-.737.159-.042 3.948-1.033 7.811-1.033s7.652.991 7.811 1.033c.357.095.633.378.717.737.04.168.971 4.171.971 9.229zm-7 6.954c-1.991 0-3-1.01-3-3s1.009-3 3-3 3 1.01 3 3-1.009 3-3 3zm0-2c.878 0 1-.121 1-1s-.122-1-1-1-1 .121-1 1 .122 1 1 1zm-5.999-8.999h7c.552 0 1-.447 1-1s-.448-1-1-1h-7c-.552 0-1 .447-1 1s.448 1 1 1zm0 4h3c.552 0 1-.447 1-1s-.448-1-1-1h-3c-.552 0-1 .447-1 1s.448 1 1 1zm1.989 10.141c-.076.55-.596.928-1.131.849-1.564-.225-3.03-.338-4.358-.338s-2.794.113-4.358.338c-.542.081-1.053-.301-1.131-.849-.093-.612.399-1.142 1.007-1.149.079-1.731.398-2.815.413-2.867.1-.333.366-.591.702-.68.051-.013.957-.25 2.099-.372-.396-.713-.732-1.488-.732-2.073 0-1.429.571-2 2-2s2 .571 2 2c0 .585-.336 1.36-.732 2.073 1.142.123 2.049.359 2.099.372.336.089.603.347.702.68.015.052.334 1.136.413 2.867.608.008 1.1.538 1.007 1.149zm-5.489-1.49c.779 0 1.607.044 2.463.115-.044-.639-.119-1.163-.186-1.518-.551-.11-1.422-.25-2.277-.25s-1.726.14-2.277.25c-.067.354-.142.879-.186 1.518.856-.072 1.684-.115 2.463-.115z"/></svg>