<svg id="Layer_1" viewBox="0 0 24 24" xmlns="http://www.w3.org/2000/svg" data-name="Layer 1"><path d="m20.972 22.179c-.11.458-.52.766-.971.766-1.61-.307-4.143-.898-8.001-.889-3.644 0-6.43.539-7.766.861-.537.127-1.077-.201-1.206-.738s.201-1.077.738-1.207c1.423-.342 4.384-.916 8.234-.916s6.811.574 8.234.916c.537.13.868.67.738 1.207zm-.891-6.176c-6.964-.567-12.58-4.797-14.585-6.503 2.005-1.706 7.621-5.936 14.585-6.503.551-.045.96-.528.916-1.078-.045-.551-.53-.956-1.078-.916-9.456.771-16.336 7.501-16.624 7.787-.189.188-.295.443-.295.71s.106.521.295.71c.288.286 7.168 7.016 16.624 7.787.543.045 1.035-.363 1.078-.916.045-.55-.365-1.033-.916-1.078z"/></svg>