<?xml version="1.0" encoding="UTF-8"?>
<svg xmlns="http://www.w3.org/2000/svg" id="Layer_1" data-name="Layer 1" viewBox="0 0 24 24">
  <path d="M19.695,16.105c-.19-.242-.48-.384-.788-.384h-2.496c.016-3.165-.016-7.381-.239-10.342-.142-1.873-1.43-3.468-3.204-3.969-2.441-.691-6.068-.443-8.165,.191-.528,.16-.827,.719-.667,1.247s.719,.827,1.247,.667c1.79-.542,5.047-.744,7.042-.182,.97,.274,1.674,1.156,1.753,2.195,.215,2.867,.246,7.049,.231,10.191h-2.49c-.308,0-.598,.142-.788,.384s-.257,.559-.183,.856c.957,3.855,3.897,5.864,3.926,5.883,.107,.067,.223,.112,.342,.135,.065,.014,.133,.021,.2,.021,.186,0,.37-.052,.532-.153,.618-.39,3.097-2.527,3.93-5.885,.074-.298,.007-.614-.183-.856Z"/>
</svg>
