<?xml version="1.0" encoding="UTF-8"?>
<svg xmlns="http://www.w3.org/2000/svg" id="Layer_1" data-name="Layer 1" viewBox="0 0 24 24">
  <path d="M20.603,6.906C18.45,2.5,15.585,1.21,15.265,1.077c-.238-.099-.51-.104-.753-.007-.127,.05-3.131,1.282-5.355,5.836-.242,.496-.037,1.095,.46,1.337,.494,.243,1.096,.038,1.337-.46,.966-1.976,2.082-3.207,2.936-3.935,.038,2.042,.153,9.924-.194,14.516-.082,1.083-.821,2.003-1.838,2.288-2.06,.58-5.423,.372-7.272-.186-.528-.16-1.087,.139-1.246,.668-.16,.529,.14,1.087,.668,1.246,1.251,.378,3.03,.621,4.794,.621,1.276,0,2.545-.128,3.598-.424,1.822-.513,3.146-2.145,3.291-4.062,.355-4.699,.241-12.49,.201-14.649,.851,.73,1.958,1.957,2.916,3.917,.174,.355,.529,.562,.899,.562,.147,0,.297-.032,.438-.102,.497-.242,.702-.841,.46-1.337Z"/>
</svg>
