<svg id="Layer_1" viewBox="0 0 24 24" xmlns="http://www.w3.org/2000/svg" data-name="Layer 1"><path d="m8.5 2.767c0-.976.784-1.767 1.75-1.767s1.75.66 1.75 1.636c0-.976.784-1.636 1.75-1.636s1.75.791 1.75 1.767c0 1.932-1.75 3.38-2.775 4.025-.44.277-1.01.277-1.45 0-1.025-.645-2.775-2.093-2.775-4.025zm3.5 5.233c1.99 0 3 1.01 3 3s-1.01 3-3 3-3-1.01-3-3 1.009-3 3-3zm0 2c-.878 0-1 .121-1 1s.122 1 1 1 1-.121 1-1-.122-1-1-1zm10.447-.895c-.494-.245-1.094-.047-1.342.447-1.558 3.115-4.796 5.175-5.742 5.728-.652-.095-2.095-.281-3.364-.281s-2.711.186-3.364.281c-.946-.553-4.184-2.613-5.742-5.728-.248-.493-.846-.692-1.342-.447-.494.247-.694.848-.447 1.342 1.68 3.359 4.884 5.569 6.243 6.396-.136.914-.348 2.585-.348 4.195 0 .174.003.822.008.991.016.542.46.971.999.971h.03c.552-.017.986-.478.97-1.029-.005-.159-.007-.769-.007-.933 0-1.424.189-2.961.316-3.832.687-.09 1.756-.206 2.684-.206s1.996.116 2.684.206c.127.871.316 2.408.316 3.832 0 .165-.003.778-.007.938-.013.552.424 1.01.977 1.023.526 0 1.01-.425 1.023-.977.004-.168.007-.812.007-.985 0-1.61-.212-3.281-.348-4.195 1.359-.827 4.563-3.037 6.243-6.396.247-.494.047-1.095-.447-1.342z"/></svg>