<svg id="Layer_1" viewBox="0 0 24 24" xmlns="http://www.w3.org/2000/svg" data-name="Layer 1"><path d="m22.688 12.832c-.558-1.37-1.254-2.192-2.19-2.587-.714-.302-1.511-.325-2.455-.073l-.807-1.842c3.059-.944 4.887-2.914 5.73-6.072.142-.533-.175-1.082-.708-1.224-.535-.144-1.082.174-1.224.708-.997 3.734-3.614 5.258-9.034 5.258s-8.037-1.523-9.034-5.258c-.143-.533-.689-.854-1.224-.708-.534.142-.851.69-.708 1.224.843 3.16 2.673 5.13 5.734 6.074l-.793 1.839c-.942-.25-1.737-.226-2.45.075-.937.395-1.633 1.217-2.19 2.587-.997 2.449.565 6.993.746 7.503.096.269.301.483.564.591s.56.097.816-.026c.36-.176 2.797-1.396 4.453-3.008.811 2.313 3.088 4.539 3.398 4.833.193.184.441.275.689.275s.497-.092.689-.275c.31-.295 2.597-2.531 3.403-4.85 1.655 1.62 4.109 2.848 4.47 3.024.257.124.553.134.816.026.263-.107.468-.322.564-.591.181-.51 1.743-5.054.746-7.503zm-6.495-1.897c-.77.449-1.294.996-1.596 1.637-.448-.252-.977-.423-1.598-.507v-3.086c.799-.03 1.551-.095 2.249-.2l.944 2.156zm-5.194-1.956v3.086c-.613.083-1.136.252-1.58.499-.303-.639-.826-1.185-1.596-1.632l.929-2.152c.698.105 1.449.17 2.247.2zm-7.384 9.572c-.473-1.687-.86-3.905-.428-4.965.34-.835.705-1.325 1.114-1.498.614-.204 1.091-.033 1.851.248 1.654.674 1.923 1.312 1.25 2.966-.431 1.059-2.265 2.374-3.787 3.249zm8.388 2.01c-.986-1.095-2.377-2.918-2.377-4.186 0-1.864.511-2.375 2.375-2.375s2.375.511 2.375 2.375c0 1.18-1.264 2.96-2.373 4.186zm8.405-2.01c-1.522-.875-3.355-2.19-3.787-3.249-.673-1.654-.405-2.292 1.25-2.966.836-.34 1.441-.42 1.851-.248.41.173.774.663 1.114 1.498.432 1.06.044 3.278-.428 4.965z"/></svg>