<svg id="Layer_1" viewBox="0 0 24 24" xmlns="http://www.w3.org/2000/svg" data-name="Layer 1"><path d="m11.962 6c0 .552-.447 1-1 1-.879 0-1 .122-1 1 0 .552-.447 1-1 1s-1-.448-1-1c0-1.991 1.01-3 3-3 .553 0 1 .448 1 1zm11.038 13.456c0 1.53-.537 2.46-.599 2.562-.152.252-.409.424-.7.47-.133.021-3.333.512-9.701.512s-9.568-.491-9.701-.512c-.291-.046-.548-.218-.7-.47-.062-.102-.599-1.032-.599-2.518.01-1.698 1.315-3.06 3-3.182v-7.28c0-5.532 2.468-7.999 8-7.999s8 2.467 8 8v7.28c1.685.122 2.991 1.484 3 3.138zm-17-3.288c1.534-.093 3.527-.168 6-.168s4.466.075 6 .168v-7.13c0-4.43-1.57-6-6-6s-6 1.57-6 6zm15 3.332c-.004-.619-.495-1.126-1.118-1.185-1.543-.144-4.163-.315-7.882-.315s-6.339.171-7.883.315c-.622.059-1.113.565-1.117 1.154 0 .475.077.853.155 1.113 1.152.135 4.119.417 8.845.417s7.694-.282 8.846-.417c.078-.257.154-.626.154-1.083z"/></svg>