<svg id="Layer_1" viewBox="0 0 24 24" xmlns="http://www.w3.org/2000/svg" data-name="Layer 1"><path d="m20.051 2.913c-.08-.328-.32-.594-.639-.706-.14-.049-3.474-1.207-7.412-1.207s-7.271 1.158-7.411 1.207c-.32.112-.561.379-.641.708-.039.16-.948 3.981-.948 9.084 0 5.146.91 8.929.949 9.087.08.328.32.594.639.706.14.049 3.474 1.207 7.412 1.207s7.271-1.158 7.411-1.207c.32-.112.561-.379.641-.708.039-.16.948-3.981.948-9.084 0-5.146-.91-8.929-.949-9.087zm-1.827 17.157c-1.042.305-3.508.93-6.224.93s-5.185-.625-6.225-.93c-.242-1.199-.775-4.271-.775-8.07 0-3.771.534-6.863.776-8.07 1.042-.305 3.508-.93 6.224-.93s5.185.625 6.225.93c.242 1.199.775 4.271.775 8.07 0 3.771-.534 6.863-.776 8.07z"/><path d="m15.375 5.399c-2.349-.53-4.396-.531-6.749 0-.412.093-.72.434-.772.852-.165 1.319-.361 3.388-.361 5.749 0 1.898.121 3.832.359 5.748.052.419.361.76.772.853 1.175.265 2.311.399 3.376.399s2.198-.134 3.373-.399c.411-.093.72-.434.772-.852.165-1.322.362-3.392.362-5.749 0-1.901-.121-3.836-.359-5.749-.052-.418-.361-.759-.772-.852zm-3.375 10.164c-.833 0-1.641-.079-2.376-.194-.061-.792-.1-1.583-.118-2.37h4.989c-.021.852-.065 1.651-.12 2.37-.735.115-1.542.194-2.374.194zm2.246-8.353c.109 1.012.215 2.319.249 3.789h-4.99c.035-1.467.141-2.775.251-3.789 1.566-.281 2.925-.28 4.489 0z"/></svg>