<svg id="Layer_1" viewBox="0 0 24 24" xmlns="http://www.w3.org/2000/svg" data-name="Layer 1"><path d="m20.052 2.913c-.08-.328-.321-.594-.64-.706-.14-.049-3.474-1.207-7.412-1.207s-7.271 1.158-7.411 1.207c-.32.112-.562.379-.641.708-.039.16-.948 3.981-.948 9.084 0 5.146.91 8.929.948 9.087.08.328.321.594.64.706.14.049 3.474 1.207 7.412 1.207s7.271-1.158 7.411-1.207c.32-.112.562-.379.641-.708.039-.16.948-3.981.948-9.084 0-5.146-.91-8.929-.948-9.087zm-1.827 17.157c-1.039.306-3.497.93-6.225.93s-5.186-.625-6.226-.93c-.242-1.199-.774-4.271-.774-8.07 0-3.771.534-6.864.775-8.07 1.039-.306 3.497-.93 6.225-.93s5.186.625 6.226.93c.242 1.199.774 4.271.774 8.07 0 3.771-.534 6.864-.775 8.07z"/><path d="m15.375 5.399c-2.35-.53-4.4-.53-6.748 0-.41.093-.719.433-.771.852-.165 1.319-.362 3.388-.362 5.749 0 1.901.121 3.836.359 5.749.052.418.361.759.772.852 1.175.265 2.311.399 3.375.399s2.198-.134 3.373-.399c.411-.093.721-.434.772-.852.24-1.924.361-3.858.361-5.749 0-1.901-.121-3.835-.359-5.749-.052-.418-.361-.759-.772-.852zm-5.75 3.231c.735-.115 1.543-.194 2.375-.194s1.641.079 2.376.194c.06.792.1 1.588.119 2.37h-4.989c.02-.852.065-1.651.12-2.37zm.13 8.159c-.109-1.012-.215-2.319-.25-3.789h4.99c-.035 1.464-.141 2.774-.251 3.789-1.566.28-2.927.28-4.489 0z"/></svg>