<svg id="Layer_1" viewBox="0 0 24 24" xmlns="http://www.w3.org/2000/svg" data-name="Layer 1"><path d="m22.443 14.399c-.331.936-.81 1.765-1.604 2.774-.542.689-.84 1.558-.84 2.448v1.378c0 .352-.185.677-.485.857-.078.047-1.945 1.143-5.515 1.143s-5.437-1.096-5.515-1.143c-.301-.181-.485-.506-.485-.857v-1.063c-2.039-.177-3.258-.577-3.316-.597-.337-.112-.59-.396-.662-.743-.019-.088-.397-1.917-.57-3.83-1.038-.138-1.656-.287-1.688-.295-.533-.131-.862-.666-.736-1.201.703-2.985 1.877-5.546 3.809-8.305 1.589-2.271 3.389-3.405 6.019-3.796.549-.08 1.055.296 1.136.842s-.296 1.055-.843 1.136c-2.087.31-3.396 1.141-4.673 2.964-1.578 2.254-2.576 4.28-3.237 6.603.343.054.765.11 1.252.159.491.049.873.45.899.943.073 1.401.326 2.945.477 3.771.612.144 1.715.35 3.179.413.535.023.957.464.957.999v1.358c.663.254 2.002.642 4 .642s3.334-.387 4-.643v-.735c0-1.337.45-2.646 1.268-3.684.65-.828 1.036-1.487 1.289-2.205.185-.521.755-.791 1.276-.61.521.185.794.756.61 1.276zm-9.443-8.649c0-2.974 1.869-4.75 5-4.75s5 1.776 5 4.75c0 2.047-.896 3.561-2.526 4.279-.021.419-.061.833-.119 1.233-.127.869-.797 1.545-1.667 1.684-.204.032-.435.054-.687.054-.261 0-.497-.023-.706-.058-.867-.142-1.536-.819-1.664-1.685-.055-.371-.092-.785-.112-1.233-1.625-.719-2.518-2.231-2.518-4.275zm2 0c0 1.287.462 2.099 1.412 2.482.225.091.423.225.588.391v-1.388c-.229-.131-.456-.307-.678-.528-.391-.391-.391-1.023 0-1.414s1.023-.391 1.414 0c.15.15.241.205.277.223.009-.018.1-.073.25-.223.391-.391 1.023-.391 1.414 0s.391 1.023 0 1.414c-.222.222-.448.398-.678.528v1.382c.164-.163.36-.294.582-.383.954-.382 1.418-1.195 1.418-2.484 0-1.181-.311-2.75-3-2.75s-3 1.569-3 2.75z"/></svg>