<svg id="Layer_1" viewBox="0 0 24 24" xmlns="http://www.w3.org/2000/svg" data-name="Layer 1"><path d="m12 4c-4.957 0-7.8 2.688-7.8 7.375 0 4.14 2.167 5.92 4.017 6.689.118.045.255.146.252.296.029.833.095 1.598.194 2.275.172 1.169 1.077 2.084 2.25 2.277.359.059.725.088 1.086.088.354 0 .709-.028 1.059-.083 1.177-.188 2.082-1.1 2.252-2.271.106-.731.176-1.5.207-2.288.003-.129.101-.229.213-.27 1.865-.759 4.069-2.538 4.069-6.714 0-4.687-2.843-7.375-7.8-7.375zm1.332 16.358c-.044.299-.28.534-.588.583-.496.078-1.008.078-1.508-.003-.311-.051-.549-.29-.594-.594-.066-.454-.11-.971-.142-1.515.475.1.984.171 1.5.171.511 0 1.015-.069 1.484-.167-.034.522-.081 1.036-.152 1.525zm1.617-4.109c-.112.051-.85.418-1.949.645v-4.029c.566-.213 1.134-.584 1.707-1.157.391-.391.391-1.023 0-1.414s-1.023-.391-1.414 0c-1.033 1.033-1.553 1.033-2.586 0-.391-.391-1.023-.391-1.414 0s-.391 1.023 0 1.414c.573.573 1.141.944 1.707 1.157v4.029c-1.102-.226-1.858-.603-1.961-.65-1.883-.76-2.838-2.397-2.838-4.869 0-3.566 1.951-5.375 5.8-5.375s5.8 1.809 5.8 5.375c0 2.476-.959 4.116-2.851 4.874zm7.258-10.542-.5.5c-.391.391-1.023.391-1.414 0s-.391-1.023 0-1.414l.5-.5c.391-.391 1.023-.391 1.414 0s.391 1.023 0 1.414zm-5.418-3.448.298-.667c.225-.503.813-.73 1.321-.505.504.225.73.816.505 1.321l-.298.667c-.226.51-.828.729-1.321.505-.504-.225-.73-.816-.505-1.321zm-13.082 2.534c.391.391.391 1.023 0 1.414s-1.023.391-1.414 0l-.5-.5c-.391-.391-.391-1.023 0-1.414s1.023-.391 1.414 0zm1.379-2.386c-.225-.504.002-1.096.506-1.321.502-.225 1.095.001 1.321.506l.297.667c.225.504-.002 1.096-.506 1.321-.493.223-1.095.003-1.321-.506z"/></svg>