<svg id="Layer_1" viewBox="0 0 24 24" xmlns="http://www.w3.org/2000/svg" data-name="Layer 1"><path d="m4.382 13.222c-.956-.771-1.382-1.717-1.382-3.068 0-2.548.715-5.154 6.018-5.154s6.018 2.605 6.018 5.154c0 1.354-.426 2.3-1.38 3.066-.431.345-.5.975-.154 1.406.197.246.488.374.78.374.22 0 .441-.072.625-.22 1.432-1.149 2.128-2.662 2.128-4.626 0-4.747-2.697-7.154-8.018-7.154s-8.017 2.407-8.017 7.154c0 1.958.696 3.47 2.126 4.625.43.347 1.059.28 1.406-.15s.279-1.06-.15-1.406z"/><path d="m20.874 9.222c-.43-.348-1.059-.279-1.406.15-.347.43-.279 1.06.15 1.406.956.771 1.382 1.717 1.382 3.068 0 2.548-.715 5.154-6.018 5.154s-6.018-2.605-6.018-5.154c0-1.354.426-2.3 1.38-3.066.431-.345.5-.975.154-1.406-.346-.432-.976-.5-1.406-.154-1.432 1.149-2.128 2.662-2.128 4.626 0 4.747 2.697 7.154 8.018 7.154s8.018-2.407 8.018-7.154c0-1.958-.696-3.47-2.126-4.625z"/></svg>