<svg id="Layer_1" viewBox="0 0 24 24" xmlns="http://www.w3.org/2000/svg" data-name="Layer 1"><path d="m11.656 18.207c-1.851 1.854-3.436 2.793-4.711 2.793-.865 0-1.692-.424-2.603-1.336-1.483-1.485-2.592-3.275 1.455-7.328 1.843-1.845 3.429-2.781 4.713-2.781.872 0 1.698.421 2.601 1.324.39.392 1.023.391 1.414 0 .391-.39.391-1.023 0-1.414-2.97-2.975-6.157-2.536-10.144 1.457-3.955 3.962-4.417 7.188-1.454 10.155 1.292 1.294 2.606 1.923 4.018 1.923 1.851 0 3.855-1.105 6.126-3.38.39-.391.39-1.024 0-1.414-.392-.391-1.024-.391-1.414 0z"/><path d="m21.072 2.911c-1.284-1.286-2.598-1.911-4.016-1.911-1.861 0-3.865 1.102-6.128 3.368-.39.391-.39 1.024 0 1.414.391.389 1.023.39 1.414 0 1.843-1.845 3.429-2.781 4.713-2.781.872 0 1.698.421 2.601 1.324 1.483 1.485 2.593 3.274-1.455 7.328-1.851 1.853-3.436 2.792-4.711 2.792-.865 0-1.692-.424-2.603-1.336-.391-.391-1.023-.391-1.414 0-.391.39-.391 1.023 0 1.414 1.292 1.294 2.606 1.923 4.018 1.923 1.851 0 3.855-1.105 6.126-3.379 3.955-3.961 4.417-7.187 1.455-10.154z"/></svg>