<svg id="Layer_1" enable-background="new 0 0 24 24" viewBox="0 0 24 24" xmlns="http://www.w3.org/2000/svg"><g><circle cx="2.5" cy="4" r="1.5"/><path d="m8.051 6.625c.14.104.306.168.48.188.946.106 3.082.187 4.969.187l.001.002c2.541 0 5.383-.393 5.503-.41.412-.058.745-.364.837-.77.171.05.172-3.689 0-3.64-.091-.407-.425-.713-.837-.771-.12-.017-2.963-.41-5.503-.41-1.892 0-4.029.081-4.97.187-.174.02-.339.084-.48.188-.04.029-.995.738-1.882 2.07-.224.336-.224.773 0 1.109.887 1.331 1.842 2.04 1.882 2.07zm.993-3.479c.899-.076 2.668-.146 4.456-.146 1.643 0 3.474.181 4.474.297.034.378.034 1.028 0 1.406-.999.115-2.831.297-4.474.297-1.784 0-3.554-.07-4.456-.146h.001c-.185-.165-.482-.452-.806-.854.324-.404.621-.691.805-.854z"/><path d="m17.905 18.26c-.061-.432-.396-.774-.826-.845-.102-.018-2.519-.414-4.578-.414-2.037 0-3.112.09-3.97.187-.174.02-.339.084-.48.188-.04.029-.995.738-1.882 2.07-.224.336-.224.773 0 1.109.887 1.331 1.842 2.04 1.882 2.07.14.104.306.168.48.188.862.097 1.939.187 3.969.187l.001.001c2.059 0 4.476-.397 4.578-.414.43-.071.764-.413.826-.844.099.175.099-3.657 0-3.483zm-1.922 2.465c-.849.114-2.259.275-3.483.275-1.704 0-2.691-.066-3.452-.143-.185-.164-.484-.452-.81-.857.327-.406.626-.694.81-.857.758-.078 1.743-.143 3.452-.143 1.224 0 2.634.16 3.483.274.022.394.022 1.058 0 1.451z"/><path d="m22.695 10.035c-.135-.344-.449-.585-.816-.627-.143-.017-3.549-.407-6.878-.407-1.903 0-5.558.084-6.47.187-.174.02-.339.084-.48.188-.04.029-.995.738-1.882 2.07-.224.336-.224.773 0 1.109.887 1.331 1.842 2.04 1.882 2.07.14.104.306.168.48.188.916.103 4.57.187 6.469.187l.001.001c3.329 0 6.735-.39 6.879-.407.366-.042.68-.283.815-.626.33.001.332-3.933 0-3.933zm-1.741 2.644c-1.163.113-3.611.321-5.954.321-1.779 0-4.83-.072-5.959-.15-.185-.165-.481-.451-.802-.85.322-.4.617-.686.801-.85 1.127-.078 4.177-.15 5.96-.15 2.343 0 4.79.208 5.954.321.059.356.059 1.003 0 1.358z"/><circle cx="2.5" cy="12" r="1.5"/><circle cx="2.5" cy="20" r="1.5"/></g></svg>