<svg id="Layer_1" viewBox="0 0 24 24" xmlns="http://www.w3.org/2000/svg" data-name="Layer 1"><path d="m22 1c-1.421 0-2.705.155-3.816.46-1.285.353-2.184 1.54-2.184 2.889v8.487c-.871-.556-2.025-.836-3.5-.836-3.752 0-5.5 1.748-5.5 5.5s1.748 5.5 5.5 5.5 5.5-1.748 5.5-5.5v-13.151c0-.45.293-.845.713-.96.938-.258 2.045-.389 3.287-.389.553 0 1-.448 1-1s-.447-1-1-1zm-9.5 20c-2.649 0-3.5-.851-3.5-3.5s.851-3.5 3.5-3.5 3.5.851 3.5 3.5-.851 3.5-3.5 3.5zm-5.501-8.976c.029.552-.394 1.023-.945 1.053-2.477.134-3.845.401-3.858.404-.528.108-1.07-.241-1.176-.786-.107-.542.243-1.067.784-1.176.061-.012 1.504-.296 4.143-.439.518-.032 1.022.392 1.053.944zm-5.979-9.329c-.107-.541.243-1.067.784-1.175.106-.021 2.649-.52 7.196-.52 1.052 0 2.079.027 3.055.08.551.03.974.501.943 1.053-.029.552-.514.973-1.053.944-.938-.051-1.93-.077-2.945-.077-4.326 0-6.78.476-6.805.481-.528.108-1.07-.241-1.176-.786zm0 5c-.107-.541.243-1.067.784-1.175.106-.021 2.649-.52 7.196-.52 1.052 0 2.079.027 3.055.08.551.03.974.501.943 1.053-.029.552-.514.972-1.053.944-.938-.051-1.93-.077-2.945-.077-4.326 0-6.78.476-6.805.481-.528.108-1.07-.241-1.176-.786z"/></svg>