<svg id="Layer_1" viewBox="0 0 24 24" xmlns="http://www.w3.org/2000/svg" data-name="Layer 1"><path d="m23 12c0 3.846-.766 6.271-.798 6.372-.103.317-.355.563-.676.655-.139.04-3.455.973-9.526.973s-9.388-.933-9.526-.973c-.32-.092-.574-.338-.676-.655-.011-.033-.266-.834-.483-2.216-.087-.546.285-1.058.831-1.144.545-.089 1.058.286 1.144.831.095.594.194 1.063.272 1.39 1.134.248 4.034.767 8.438.767s7.303-.519 8.437-.767c.205-.858.563-2.718.563-5.233s-.357-4.375-.563-5.234c-1.135-.248-4.034-.766-8.437-.766-4.426 0-7.31.517-8.438.765-.079.327-.179.797-.273 1.392-.085.546-.597.917-1.144.832-.546-.086-.918-.599-.831-1.144.218-1.382.473-2.183.483-2.216.102-.318.355-.563.676-.655.139-.04 3.455-.972 9.526-.972s9.388.932 9.526.972c.32.092.573.337.676.655.032.102.798 2.527.798 6.373zm-3.988-2.479c.414-.021.732-.374.711-.788s-.404-.722-.787-.71c-1.005.052-1.893.279-1.93.289-.294.076-.513.321-.556.622-.008.059-.2 1.447-.2 3.099s.192 3.04.2 3.099c.043.301.262.546.556.622.037.009.925.236 1.929.288.41.023.768-.295.788-.71.021-.414-.297-.767-.71-.788-.427-.022-.835-.083-1.137-.138-.041-.394-.09-.984-.113-1.655h.852c.414 0 .75-.336.75-.75s-.336-.75-.75-.75h-.848c.024-.644.071-1.21.11-1.591.302-.056.71-.116 1.136-.138zm-12.874-1.491c-.417-.061-.792.22-.853.63-.011.068-.252 1.693-.252 3.349s.242 3.214.252 3.28c.045.284.248.519.523.602.065.02.526.151 1.231.151.244 0 .517-.016.812-.057.41-.058.696-.437.64-.847-.058-.41-.432-.695-.847-.64-.381.054-.706.048-.948.027-.068-.573-.163-1.537-.163-2.517 0-1.541.232-3.11.234-3.126.062-.41-.221-.792-.63-.853zm3.765-.022c-.413-.058-.791.224-.852.633-.01.069-.249 1.714-.249 3.359s.239 3.29.249 3.359c.055.372.375.641.741.641.453.004.812-.411.743-.859-.003-.016-.233-1.608-.233-3.141s.23-3.125.233-3.141c.06-.41-.224-.791-.633-.851zm3.597 8.002c.282 0 .541-.159.669-.411.057-.111.565-1.149 1.062-3.303.517-2.236.52-3.504.52-3.558 0-.414-.337-.747-.75-.747s-.749.335-.75.749c0 .012-.008 1.171-.48 3.218-.092.396-.183.749-.27 1.06-.087-.312-.178-.665-.27-1.061-.473-2.047-.48-3.206-.48-3.218 0-.414-.336-.749-.75-.749s-.749.333-.75.747c0 .053.003 1.321.52 3.557.496 2.154 1.005 3.192 1.062 3.303.128.252.387.411.669.411zm-11-2.51c1.071 0 1.5-.429 1.5-1.5s-.429-1.5-1.5-1.5-1.5.429-1.5 1.5.429 1.5 1.5 1.5z"/></svg>