<svg id="Layer_1" viewBox="0 0 24 24" xmlns="http://www.w3.org/2000/svg" data-name="Layer 1"><path d="m22.99 15.007c0 3.842-.765 6.266-.797 6.367-.102.317-.355.563-.676.655-.138.04-3.452.972-9.518.972s-9.38-.932-9.518-.972c-.321-.092-.574-.338-.676-.655-.032-.1-.797-2.524-.797-6.367s.765-6.266.797-6.367c.102-.317.356-.563.676-.655.034-.01.847-.241 2.372-.475.536-.084 1.056.29 1.139.835.084.545-.29 1.056-.836 1.14-.698.107-1.23.213-1.587.292-.205.858-.563 2.716-.563 5.23s.357 4.371.562 5.229c1.133.248 4.031.766 8.43.766s7.297-.518 8.43-.766c.205-.858.562-2.715.562-5.229s-.358-4.372-.563-5.23c-.342-.075-.844-.176-1.498-.277-.545-.085-.918-.596-.833-1.142s.597-.917 1.142-.833c1.465.228 2.246.451 2.278.461.32.092.573.338.675.655.032.1.797 2.524.797 6.367zm-3.979-2.476c.414-.017.735-.365.719-.779-.017-.413-.365-.744-.779-.718-1.225.05-2.305.27-2.351.28-.301.062-.533.301-.586.604-.01.059-.254 1.457-.254 3.121s.243 3.063.254 3.121c.054.302.286.542.587.604.045.01 1.125.229 2.349.28.41.019.763-.303.78-.717s-.304-.763-.718-.78c-.616-.025-1.2-.1-1.597-.162-.05-.39-.111-.969-.14-1.629h.848c.414 0 .749-.336.749-.749s-.336-.749-.749-.749h-.844c.03-.633.088-1.189.136-1.565.397-.061.981-.137 1.596-.162zm-13.882-1.489c-.408-.063-.791.22-.852.629-.01.068-.251 1.691-.251 3.346s.242 3.211.252 3.276c.044.284.248.518.522.601.065.02.525.151 1.231.151.243 0 .515-.016.81-.057.41-.058.696-.436.639-.846-.058-.411-.441-.696-.845-.639-.38.054-.706.048-.947.027-.069-.573-.163-1.535-.163-2.514 0-1.54.232-3.108.235-3.123.061-.409-.221-.79-.63-.852zm3.764-.024c-.416-.057-.79.222-.851.632-.01.069-.249 1.712-.249 3.356s.24 3.287.249 3.356c.059.412.45.693.851.632.409-.06.692-.441.632-.851-.002-.016-.234-1.607-.234-3.138s.231-3.122.234-3.138c.06-.41-.223-.79-.632-.851zm4.574.732c0 .012-.008 1.17-.48 3.215-.091.395-.182.748-.269 1.06-.087-.311-.178-.664-.269-1.06-.472-2.045-.481-3.203-.481-3.215 0-.414-.336-.748-.749-.748s-.748.334-.749.746c0 .054.003 1.32.519 3.555.497 2.153 1.005 3.189 1.061 3.3.127.252.385.41.666.411h.002c.281 0 .538-.157.666-.407.056-.109.561-1.128 1.064-3.304.515-2.234.518-3.502.518-3.555 0-.413-.336-.746-.749-.746s-.748.336-.749.748zm-6.896-5.814c3.905-3.903 6.672-3.903 10.577 0 .39.39 1.023.39 1.413 0s.39-1.023 0-1.413c-4.698-4.697-8.706-4.697-13.403 0-.39.39-.39 1.023 0 1.413s1.023.39 1.413 0zm9.465 2.645c.39-.39.39-1.023 0-1.413-1.468-1.468-2.795-2.152-4.177-2.152s-2.709.684-4.177 2.152c-.39.39-.39 1.023 0 1.413s1.023.39 1.413 0c1.054-1.054 1.959-1.567 2.764-1.567s1.71.513 2.764 1.567c.39.39 1.023.39 1.413 0z"/></svg>