<svg id="Layer_1" viewBox="0 0 24 24" xmlns="http://www.w3.org/2000/svg" data-name="Layer 1"><path d="m22.958 12.503c-.133-.791-.565-1.482-1.219-1.946-1.295-.966-3.274-.63-4.183.703-.995 1.397-2.054 2.544-3.17 3.437-.188-.861-.772-1.566-1.571-1.952.473-.428.844-.983 1.036-1.744.333-1.317.104-2.76-.645-4.061-.755-1.312-1.879-2.205-3.248-2.637.294-.346.604-.771.91-1.306.261-.456.124-1.037-.313-1.328-.103-.068-1.046-.668-2.555-.668s-2.452.6-2.555.668c-.437.291-.574.872-.313 1.328.306.535.616.96.91 1.306-1.369.432-2.494 1.325-3.248 2.637-.748 1.302-.978 2.745-.645 4.061.147.583.405 1.039.723 1.42-.331.053-.533.092-.562.097-.382.074-.686.362-.779.739-.022.087-.53 2.143-.53 4.243s.508 4.156.53 4.243c.094.375.395.662.773.738.106.021 2.633.52 5.696.52 5.679 0 10.539-2.779 14.443-8.259.465-.652.647-1.447.516-2.237zm-18.431-4.567c.728-1.266 1.929-1.935 3.473-1.935s2.745.669 3.473 1.936c.488.849.645 1.764.439 2.575-.141.557-.375 1.489-3.912 1.489s-3.771-.932-3.912-1.489c-.205-.811-.049-1.726.439-2.575zm16.287 5.644c-3.508 4.923-7.819 7.42-12.814 7.42-1.983 0-3.758-.229-4.665-.371-.14-.71-.335-1.926-.335-3.129s.195-2.414.335-3.127c.921-.142 2.72-.373 4.665-.373 2.21 0 3.805.466 3.818.47.374.113.636.464.636.856.005.457-.23.761-.703.965-.913.393-1.864.625-2.841.713-.55.05-.956.536-.906 1.086s.543.953 1.086.906c3.838-.347 7.234-2.559 10.095-6.575.303-.446.965-.556 1.394-.234.445.302.555.963.234 1.394z"/></svg>