<svg id="Layer_1" viewBox="0 0 24 24" xmlns="http://www.w3.org/2000/svg" data-name="Layer 1"><path d="m23 5c0-1.609-.699-3.312-.729-3.384-.2-.479-.731-.724-1.229-.567-.495.159-.786.672-.669 1.179s.313 2.113-.301 2.816c-.087.101-.331.381-1.055.389-.014-.118-.019-.261-.019-.433 0-.679.045-1.269.119-1.579.129-.537-.202-1.077-.739-1.206-.536-.128-1.077.203-1.206.739-.144.6-.174 1.443-.174 2.046 0 1.59.655 2.543 1.929 2.866-.168.872-.685 1.134-1.929 1.134h-1.103c-.294-3.232-1.18-6.406-3.346-7.835-.334-.221-.768-.221-1.102 0-2.165 1.429-3.051 4.603-3.346 7.835h-1.103c-1.244 0-1.761-.261-1.929-1.134 1.274-.324 1.929-1.277 1.929-2.866 0-.604-.03-1.448-.174-2.047-.129-.537-.667-.865-1.207-.738-.537.13-.867.67-.738 1.207.074.309.119.898.119 1.578 0 .172-.004.314-.019.433-.724-.008-.968-.288-1.055-.389-.614-.703-.417-2.31-.301-2.813.12-.508-.169-1.021-.666-1.182s-1.032.087-1.231.567c-.03.072-.729 1.774-.729 3.384 0 1.643.699 2.606 2.058 2.897.275 2.084 1.57 3.103 3.942 3.103h.99c-.017.686-.013 1.358.004 2-2.687.002-3.995 1.31-3.995 4 0 .553.448 1 1 1s1-.447 1-1c-.024-1.634.499-2.026 2.096-2 .067.92.151 1.701.221 2.271-1.513 1.29-2.314 2.924-2.315 4.731 0 .265.105.52.293.707s.442.293.707.293c2.654 0 4.158-.334 4.998-.758.679.451 3.3.811 5.001.755.552 0 1-.447 1-.999 0-1.802-.803-3.435-2.32-4.73.07-.57.154-1.351.221-2.27 1.598-.026 2.121.365 2.097 2 0 .553.447 1 1 1s1-.447 1-1c0-2.69-1.307-3.998-3.995-4 .018-.642.021-1.314.004-2h.991c2.372 0 3.667-1.02 3.942-3.104 1.359-.29 2.058-1.254 2.058-2.896zm-11-1.699c1.11 1.173 1.65 3.34 1.873 5.699h-3.746c.223-2.359.763-4.526 1.873-5.699zm.791 17.088c-.374-.484-1.208-.484-1.583 0-.121.082-.819.482-3.069.588.199-.721.614-1.383 1.241-1.977h5.24c.64.602 1.053 1.255 1.249 1.975-2.256-.104-2.957-.504-3.078-.586zm.908-3.389h-3.399c-.071-.584-.137-1.261-.19-2h3.779c-.053.739-.119 1.416-.19 2zm.289-4h-3.976c-.018-.654-.019-1.324-.002-2h3.98c.017.676.016 1.346-.002 2z"/></svg>