<svg id="Layer_1" viewBox="0 0 24 24" xmlns="http://www.w3.org/2000/svg" data-name="Layer 1"><path d="m22 11h-1.028c-.375-6.516-4.452-7.801-7.972-7.976v-1.024c0-.552-.448-1-1-1s-1 .448-1 1v1.029c-5.057.297-7.674 2.914-7.971 7.971h-1.029c-.552 0-1 .448-1 1s.448 1 1 1h1.028c.375 6.516 4.452 7.801 7.972 7.976v1.024c0 .552.448 1 1 1s1-.448 1-1v-1.024c3.52-.176 7.597-1.46 7.972-7.976h1.028c.552 0 1-.448 1-1s-.448-1-1-1zm-10 8c-4.202 0-7-1.19-7-7 0-4.972 2.028-7 7-7 4.202 0 7 1.19 7 7s-2.798 7-7 7z"/><path d="m12 7c-3.318 0-5 1.682-5 5 0 3.364 1.636 5 5 5s5-1.636 5-5-1.636-5-5-5zm0 8c-1.946 0-3-.478-3-3 0-2.215.785-3 3-3 1.946 0 3 .478 3 3 0 2.536-1.01 3-3 3z"/></svg>