<svg id="Layer_1" viewBox="0 0 24 24" xmlns="http://www.w3.org/2000/svg" data-name="Layer 1"><path d="m11 12v-6c0-.552.448-1 1-1s1 .448 1 1v6c0 .553-.448 1-1 1s-1-.447-1-1zm1 3c-.552 0-1 .448-1 1s.448 1 1 1 1-.448 1-1-.448-1-1-1zm9.5-4.53c-.104 6.246-8.82 12.295-8.909 12.355-.17.116-.368.175-.565.175-.195 0-.389-.057-.558-.17-.918-.614-8.968-6.181-8.968-12.33 0-4.708 4.697-9.414 9.482-9.5h.032c4.731.066 9.341 4.668 9.486 9.47zm-2 .014c-.113-3.697-3.824-7.421-7.498-7.483-3.648.077-7.502 3.926-7.502 7.5 0 4.447 5.671 8.931 7.518 10.272 2.492-1.865 7.416-6.352 7.482-10.289z"/></svg>