<svg id="Layer_1" viewBox="0 0 24 24" xmlns="http://www.w3.org/2000/svg" data-name="Layer 1"><path d="m10 13.5c.553 0 1 .447 1 1v2c0 .553-.447 1-1 1s-1-.447-1-1v-2c0-.553.447-1 1-1zm13-7.5c0 .553-.447 1-1 1s-1-.447-1-1c0-2.299-.701-3-3-3s-3 .701-3 3v2.358c1.614.252 2.48.546 2.54.567.277.1.496.317.599.594.035.096.861 2.376.861 5.98s-.826 5.885-.861 5.98c-.103.276-.321.494-.599.594-.105.038-2.622.926-7.54.926s-7.435-.888-7.54-.926c-.277-.1-.496-.317-.599-.594-.035-.096-.861-2.376-.861-5.98s.826-5.885.861-5.98c.103-.276.321-.494.599-.594.105-.038 2.622-.926 7.54-.926 1.132 0 2.122.05 3 .123v-2.123c0-3.411 1.589-5 5-5s5 1.589 5 5zm-6.598 4.674c-.881-.229-3.027-.674-6.402-.674s-5.52.444-6.402.674c-.215.779-.598 2.497-.598 4.826s.383 4.047.598 4.826c.881.229 3.027.674 6.402.674s5.52-.444 6.402-.675c.215-.777.598-2.495.598-4.825s-.383-4.047-.598-4.826z"/></svg>