<svg id="Layer_1" viewBox="0 0 24 24" xmlns="http://www.w3.org/2000/svg" data-name="Layer 1"><path d="m22.707 21.264-3.031-3.031c1.481-1.413 2.584-3.38 3.28-5.863.05-.178.049-.366 0-.544-1.632-5.724-5.417-8.775-10.964-8.826-2.308.019-4.316.547-5.986 1.562l-3.299-3.298c-.391-.391-1.023-.391-1.414 0s-.391 1.023 0 1.414l20 20c.391.391 1.023.391 1.414 0s.391-1.023 0-1.414zm-10.716-16.264c4.595.042 7.528 2.366 8.961 7.102-.611 2.048-1.497 3.597-2.691 4.716l-1.875-1.875c.409-.752.606-1.706.606-2.942 0-3.411-1.589-5-5-5-1.22 0-2.181.208-2.935.614l-1.573-1.573c1.275-.667 2.781-1.026 4.506-1.041zm-1.401 4.146c.382-.096.844-.146 1.402-.146 2.299 0 3 .701 3 3 0 .557-.048 1.022-.144 1.404zm4.386 10.147c.391.391.391 1.023 0 1.414s-1.023.391-1.414 0l-11.269-11.269c-.391-.391-.391-1.023 0-1.414s1.023-.391 1.414 0zm-7.23-1.539c.391.391.391 1.023 0 1.414s-1.023.391-1.414 0l-4.962-4.961c-.391-.391-.391-1.023 0-1.414s1.023-.391 1.414 0z"/></svg>