<svg id="Layer_1" viewBox="0 0 24 24" xmlns="http://www.w3.org/2000/svg" data-name="Layer 1"><path d="m23 15.366c0 6.346-2.573 7.518-7.979 7.634-.55.012-1.01-.426-1.021-.979-.012-.552.426-1.01.979-1.021 4.55-.098 6.021-.556 6.021-5.634 0-3.187-.698-8.813-5.375-10.706-.512-.207-.759-.79-.552-1.302.208-.512.789-.76 1.302-.552 4.272 1.728 6.625 6.188 6.625 12.56zm-13.979 5.634c-4.55-.098-6.021-.556-6.021-5.634 0-3.187.698-8.813 5.375-10.706.512-.207.759-.79.552-1.302s-.788-.76-1.302-.552c-4.272 1.728-6.625 6.189-6.625 12.56s2.573 7.518 7.979 7.634h.022c.542 0 .988-.434 1-.979.012-.552-.426-1.01-.979-1.021zm3.979-3.074v1.074c0 .553-.448 1-1 1s-1-.447-1-1v-1.074c-.375-.057-.704-.158-1.008-.284-.039.962-.472 1.358-1.492 1.358-1.071 0-1.5-.429-1.5-1.5 0-1.02.396-1.453 1.358-1.492-.126-.304-.227-.633-.284-1.008h-1.074c-.552 0-1-.447-1-1s.448-1 1-1h1.074c.057-.375.158-.704.284-1.008-.962-.039-1.358-.472-1.358-1.492 0-1.071.429-1.5 1.5-1.5 1.02 0 1.453.396 1.492 1.358.304-.126.633-.227 1.008-.284v-1.074c0-.553.448-1 1-1s1 .447 1 1v1.074c.375.057.704.158 1.008.284.039-.962.472-1.358 1.492-1.358 1.071 0 1.5.429 1.5 1.5 0 1.02-.396 1.453-1.358 1.492.126.304.227.633.284 1.008h1.074c.552 0 1 .447 1 1s-.448 1-1 1h-1.074c-.057.375-.158.704-.284 1.008.962.039 1.358.472 1.358 1.492 0 1.071-.429 1.5-1.5 1.5-1.02 0-1.453-.396-1.492-1.358-.304.126-.633.227-1.008.284zm-1-1.926c1.589 0 2-.411 2-2s-.411-2-2-2-2 .411-2 2 .411 2 2 2zm0-9c.552 0 1-.447 1-1v-4c0-.553-.448-1-1-1s-1 .447-1 1v4c0 .553.448 1 1 1z"/></svg>