<svg id="Layer_1" viewBox="0 0 24 24" xmlns="http://www.w3.org/2000/svg" data-name="Layer 1"><path d="m23 15.35c0 6.347-2.573 7.519-7.979 7.635h-.021c-.377 0-.723-.212-.893-.55-1.094-2.172-1.107-5.303-1.107-5.435 0-.552.447-.999.999-1 .552 0 .999.447 1 .999 0 .025.012 2.251.648 3.968 4.026-.139 5.352-.797 5.352-5.617 0-3.186-.698-8.812-5.375-10.705-.512-.207-.759-.79-.552-1.302.207-.511.788-.761 1.302-.552 4.272 1.728 6.625 6.188 6.625 12.559zm-12.999.65c-.552 0-.999.447-1 .999 0 .025-.012 2.251-.648 3.968-4.026-.139-5.352-.797-5.352-5.617 0-3.186.698-8.812 5.375-10.705.512-.207.759-.79.552-1.302-.208-.511-.789-.76-1.302-.552-4.273 1.728-6.626 6.188-6.626 12.559s2.573 7.519 7.979 7.635h.021c.377 0 .723-.212.893-.55 1.094-2.172 1.107-5.303 1.107-5.435 0-.552-.447-.999-.999-1zm6.999-1c.552 0 1-.447 1-1s-.448-1-1-1c-3.028 0-4-.972-4-4v-7c0-.553-.448-1-1-1s-1 .447-1 1v7c0 3.028-.972 4-4 4-.552 0-1 .447-1 1s.448 1 1 1c2.435 0 4.058-.658 5-2.023.942 1.365 2.565 2.023 5 2.023z"/></svg>