<svg id="Layer_1" viewBox="0 0 24 24" xmlns="http://www.w3.org/2000/svg" data-name="Layer 1"><path d="m20.464 1.877c-.048-.391-.321-.716-.697-.833-.377-.114-.785 0-1.046.295l-6.721 7.634-6.721-7.634c-.261-.296-.672-.409-1.046-.295-.377.117-.649.443-.697.833-.022.178-.536 4.428-.536 10.122 0 5.786.9 10.033.938 10.21.101.469.563.886 1.188.767.542-.103.883-.648.767-1.188-.009-.042-.894-4.214-.894-9.79 0-3.11.161-5.816.304-7.605l5.945 6.752c.381.432 1.121.432 1.502 0l5.946-6.754c.143 1.78.303 4.476.303 7.607 0 5.515-.885 9.75-.895 9.792-.114.54.23 1.071.771 1.186.548.114 1.071-.23 1.187-.77.038-.18.938-4.471.938-10.208s-.514-9.947-.536-10.123z"/></svg>