<svg id="Layer_1" viewBox="0 0 24 24" xmlns="http://www.w3.org/2000/svg" data-name="Layer 1"><path d="m22.706 9.906c.341-.341.393-.878.117-1.274-.119-.172-.59-.618-1.824-1.069-.163-.418-.38-.811-.629-1.179 1.417-1.678 1.788-3.295 1.806-3.372.113-.511-.187-1.023-.688-1.174-.185-.055-.377-.055-.551-.007-.335.086-1.802.52-3.329 1.814-.384-.253-.766-.454-1.148-.603-.449-1.185-.835-1.635-.953-1.752-.341-.341-.988-.45-1.468.058-.191.202-.513.685-.889 1.691-.384.149-.769.351-1.154.605-1.705-1.427-3.298-1.804-3.373-1.821-.507-.117-1.022.18-1.178.678-.056.181-.059.366-.016.538.08.341.486 1.823 1.81 3.356-.256.385-.459.768-.609 1.15-1.173.447-1.62.83-1.736.947-.341.341-.393 1.007.058 1.468.192.196.675.506 1.659.877.247.637.644 1.274 1.203 1.934l-8.521 8.522c-.391.391-.391 1.024 0 1.414.195.195.451.293.707.293s.512-.098.707-.293l8.524-8.525c.639.533 1.275.923 1.909 1.172.449 1.186.836 1.636.953 1.753.193.193.449.293.707.293.197 0 .596-.121.761-.351.161-.226.513-.685.889-1.691.38-.148.761-.347 1.143-.597 1.696 1.455 3.331 1.805 3.407 1.819.596.108 1.042-.274 1.164-.714.158-.574-.523-2.319-1.811-3.852.266-.399.469-.786.619-1.161 1.172-.446 1.618-.829 1.735-.946zm-5.013 2.185c-2.419 2.418-3.953 1.832-5.786 0-1.029-1.029-1.538-1.887-1.6-2.7-.071-.929.452-1.939 1.6-3.087 1.116-1.117 2.058-1.582 2.923-1.582 1.003 0 1.905.624 2.863 1.582 1.832 1.833 2.419 3.367 0 5.786z"/><path d="m13.599 7.998c-.663.663-.663 1.737 0 2.4s1.737.663 2.4 0 .663-1.737 0-2.4-1.737-.663-2.4 0z"/></svg>