<svg id="Layer_1" viewBox="0 0 24 24" xmlns="http://www.w3.org/2000/svg" data-name="Layer 1"><path d="m22.219 3.685c-.076-.434-.154-.879-.233-1.35-.053-.315-.253-.587-.539-.73-.124-.062-1.26-.605-2.947-.605s-2.823.543-2.947.605c-.393.196-.611.626-.539 1.059.238 1.427.986 7.168.986 9.335 0 3.028-.972 4-4 4s-4-.972-4-4c0-2.167.749-7.909.986-9.335.072-.433-.146-.863-.539-1.059-.124-.062-1.26-.605-2.947-.605s-2.823.543-2.947.605c-.286.143-.486.415-.539.73-.079.47-.157.916-.233 1.35-.419 2.381-.781 4.437-.781 8.315 0 7.71 3.29 11 11 11s11-3.29 11-11c0-3.878-.362-5.934-.781-8.315zm-3.719-.685c.686 0 1.249.125 1.61.233.172.996.349 1.957.495 2.954-.434-.103-.975-.187-1.606-.187-.576 0-1.082.07-1.496.16-.138-1.149-.279-2.219-.39-2.988.353-.089.829-.171 1.386-.171zm-14.61.233c.363-.109.925-.233 1.61-.233.557 0 1.033.082 1.386.171-.111.77-.253 1.839-.39 2.988-.414-.09-.92-.16-1.496-.16-.631 0-1.172.084-1.606.187.146-.996.323-1.957.495-2.954zm8.11 17.767c-6.561 0-9-2.439-9-9 0-1.434.053-2.605.14-3.639.071-.007.734-.358 1.86-.361.52 0 .956.081 1.271.165-.156 1.504-.271 2.937-.271 3.835 0 4.149 1.851 6 6 6s6-1.851 6-6c0-.899-.115-2.331-.271-3.835.315-.084.752-.165 1.271-.165 1.116.002 1.755.342 1.86.36.087 1.035.14 2.206.14 3.64 0 6.561-2.439 9-9 9z"/></svg>