<svg id="Layer_1" viewBox="0 0 24 24" xmlns="http://www.w3.org/2000/svg" data-name="Layer 1"><path d="m14.673 13.875c-.47-.47-.995-.865-1.561-1.176-.407-.225-.921-.138-1.231.215-1.171 1.328-2.999 3.34-3.373 3.714-.447.447-.633.493-1.126 0-.419-.419-.475-.562 0-1.086.355-.392 2.387-2.201 3.714-3.373.351-.309.44-.821.215-1.231-.213-.389-.59-.973-1.177-1.562-.486-.485-1.032-.892-1.622-1.209-.336-.181-.743-.154-1.053.066-1.451 1.03-2.337 1.572-4.102 3.331-3.143 3.142-3.143 5.946 0 9.09 1.557 1.557 3.061 2.335 4.565 2.335s3.008-.778 4.565-2.335c1.759-1.765 2.301-2.651 3.331-4.102.221-.309.246-.717.067-1.051-.314-.589-.722-1.135-1.211-1.625zm-6.61-3.621.014-.01c.382.269.77.64 1.049 1.003-.43.384-.898.805-1.343 1.207-.327-.432-.717-.826-1.148-1.155.48-.38.93-.696 1.428-1.045zm-3.292 8.986c-2.341-2.342-2.341-3.922 0-6.263.12-.12.231-.227.343-.335.408.273.886.733 1.19 1.167-.143.134-.265.25-.334.319-.648.648-.963 1.288-.963 1.957s.314 1.309.963 1.956c1.294 1.296 2.656 1.296 3.953 0 .069-.069.186-.192.321-.337.416.294.866.753 1.16 1.197-.107.111-.212.22-.331.338-2.356 2.356-3.945 2.356-6.302 0zm9.026-3.291c-.348.498-.665.948-1.045 1.428-.329-.431-.724-.821-1.155-1.148.402-.445.823-.913 1.207-1.343.351.266.769.71 1.003 1.05zm5.205-10.44c0 1.071-.428 1.499-1.499 1.499s-1.499-.428-1.499-1.499.428-1.499 1.499-1.499 1.499.428 1.499 1.499zm-1.5-4.498c-3.75 0-5.498 1.747-5.498 5.498s1.747 5.498 5.498 5.498 5.498-1.747 5.498-5.498-1.747-5.498-5.498-5.498zm2.878 8.057c-.543-.73-1.466-1.06-2.877-1.06s-2.335.329-2.877 1.06c-.434-.55-.621-1.364-.621-2.559 0-2.648.85-3.499 3.499-3.499s3.499.85 3.499 3.499c0 1.196-.187 2.009-.621 2.559z"/></svg>