<svg id="Layer_1" viewBox="0 0 24 24" xmlns="http://www.w3.org/2000/svg" data-name="Layer 1"><path d="m22.948 3.684c-.028-.086-.301-.86-1.036-1.596s-1.51-1.008-1.596-1.037c-.312-.104-.655-.049-.916.149-.093.069-2.134 1.662-2.357 4.343l-1.804 1.804c-1.925-.281-8.847-1.027-12.139 2.157-1.26 1.339-2.021 3.299-2.095 5.388-.004.036-.006.072-.006.108 0 2.841.609 4.773 1.918 6.082s3.239 1.917 6.078 1.917h.021c2.198-.036 4.207-.805 5.512-2.11 3.28-3.28 2.506-9.86 2.122-12.125l1.807-1.807c2.68-.223 4.274-2.264 4.343-2.357.197-.263.253-.605.148-.917zm-9.834 15.792c-.941.941-2.446 1.497-4.131 1.524-4.393-.003-5.966-1.557-5.983-5.924 0-.016.002-.032.003-.048.043-1.635.61-3.148 1.521-4.119 1.945-1.882 6.129-1.991 8.912-1.759l-3.068 3.068c-.389-.141-.842-.216-1.369-.216-1.99 0-3 1.009-3 3s1.01 3 3 3 3-1.009 3-3c0-.527-.076-.981-.217-1.37l3.082-3.082c.259 2.522.34 6.836-1.751 8.926zm-3.114-4.475c0 .878-.121 1-1 1s-1-.122-1-1 .121-1 1-1 1 .122 1 1z"/></svg>