<svg id="Layer_1" viewBox="0 0 24 24" xmlns="http://www.w3.org/2000/svg" data-name="Layer 1"><path d="m16.458 8.111c-.489-.253-1.094-.061-1.347.431-1.279 2.481-3.101 3.763-3.977 4.268-.611-.527-1.66-1.486-2.328-2.4-.326-.445-.95-.543-1.397-.217-.446.326-.543.951-.217 1.397 1.142 1.562 3.103 3.127 3.185 3.193.18.143.4.217.622.217.126 0 .253-.024.374-.072.139-.056 3.427-1.417 5.515-5.47.253-.491.061-1.094-.431-1.347z"/><path d="m12 1c-5.327 0-10 4.673-10 10 0 6.514 9.126 11.658 9.514 11.874.151.084.318.126.486.126s.334-.042.486-.126c.388-.216 9.514-5.36 9.514-11.874 0-5.327-4.673-10-10-10zm0 19.837c-1.803-1.108-8-5.252-8-9.837s4.224-8 8-8 8 3.421 8 8-6.197 8.729-8 9.837z"/></svg>