<svg id="Layer_1" viewBox="0 0 24 24" xmlns="http://www.w3.org/2000/svg" data-name="Layer 1"><path d="m15.6 12.2c-.441-.332-1.068-.241-1.399.2-.548.73-1.374 1.6-2.2 1.6s-1.652-.87-2.2-1.6c-.331-.441-.959-.533-1.399-.2-.442.331-.532.958-.2 1.4 1.194 1.592 2.473 2.4 3.8 2.4s2.605-.808 3.8-2.4c.332-.442.242-1.069-.2-1.4z"/><circle cx="9" cy="8.999" r="1"/><circle cx="15" cy="8.999" r="1"/><path d="m12 1c-5.327 0-10 4.673-10 10 0 6.514 9.126 11.658 9.514 11.874.151.084.318.126.486.126s.334-.042.486-.126c.388-.216 9.514-5.36 9.514-11.874 0-5.327-4.673-10-10-10zm0 19.837c-1.803-1.108-8-5.252-8-9.837s4.224-8 8-8 8 3.421 8 8-6.197 8.729-8 9.837z"/></svg>