<svg id="Layer_1" viewBox="0 0 24 24" xmlns="http://www.w3.org/2000/svg" data-name="Layer 1"><path d="m14.006 6c-.84 0-1.633.336-2.217.931l-3.166 3.082c-.905.921-1.447 2.132-1.526 3.411l-.094 1.515c-.018.287.094.561.292.77.305.323.75.292.771.29l1.488-.096c1.267-.082 2.465-.636 3.358-1.544l3.166-3.082c1.205-1.226 1.23-3.194.058-4.388-.563-.573-1.319-.889-2.128-.889zm.66 3.859-3.166 3.081c-.563.573-1.301.917-2.076.966l-.356.023.024-.382c.05-.798.39-1.556.941-2.117l3.166-3.081c.221-.225.944-.612 1.509-.059.421.413.387 1.131-.042 1.568z"/><path d="m12 1c-5.327 0-10 4.673-10 10 0 6.514 9.126 11.658 9.514 11.874.151.084.318.126.486.126s.334-.042.486-.126c.388-.216 9.514-5.36 9.514-11.874 0-5.327-4.673-10-10-10zm0 19.837c-1.803-1.108-8-5.252-8-9.837s4.224-8 8-8 8 3.421 8 8-6.197 8.729-8 9.837z"/></svg>