<svg id="Layer_1" viewBox="0 0 24 24" xmlns="http://www.w3.org/2000/svg" data-name="Layer 1"><path d="m11.993 6c-2.456.016-3.949 1.504-3.993 3.982-.01.552.43 1.008.982 1.018.55.006 1.008-.43 1.018-.982.024-1.405.625-2.009 1.993-2.018 1.364.009 1.983.631 2.007 1.982-.025 1.425-.569 1.958-2.006 1.967-.55.003-.994.45-.994 1v1.051c0 .552.447 1 1 1s1-.448 1-1v-.138c1.905-.341 2.96-1.681 3-3.879-.043-2.478-1.535-3.967-4.007-3.983z"/><circle cx="12" cy="17" r="1"/><path d="m12 1c-5.327 0-10 4.673-10 10 0 6.514 9.126 11.658 9.514 11.874.151.084.318.126.486.126s.334-.042.486-.126c.388-.216 9.514-5.36 9.514-11.874 0-5.327-4.673-10-10-10zm0 19.837c-1.803-1.108-8-5.252-8-9.837s4.224-8 8-8 8 3.421 8 8-6.197 8.729-8 9.837z"/></svg>