<svg id="Layer_1" viewBox="0 0 24 24" xmlns="http://www.w3.org/2000/svg" data-name="Layer 1"><path d="m22.707 21.293-3.668-3.668c1.965-2.234 2.961-4.461 2.961-6.625 0-5.257-4.667-9.93-10.013-10-2.413.032-4.883 1.071-6.759 2.815l-2.521-2.522c-.391-.391-1.023-.391-1.414 0s-.391 1.023 0 1.414l20 20c.195.195.451.293.707.293s.512-.098.707-.293c.391-.391.391-1.023 0-1.414zm-10.72-18.293c3.79.05 8.013 3.348 8.013 8 0 1.636-.8 3.385-2.379 5.207l-10.977-10.977c1.509-1.382 3.464-2.205 5.344-2.23z"/><path d="m14.304 19.272c-.492.45-1.56 1.124-2.278 1.554-.679-.44-1.857-1.213-2.435-1.648-1.681-1.266-5.591-4.598-5.591-8.179 0-.572.075-1.2.211-1.768.129-.537-.203-1.077-.74-1.206-.534-.125-1.076.203-1.205.74-.171.716-.266 1.509-.266 2.234 0 4.32 4.002 7.979 6.388 9.776.896.674 2.985 2.01 3.074 2.066.164.104.351.157.538.157.17 0 .341-.043.494-.13.227-.129 2.241-1.282 3.159-2.121.407-.373.436-1.005.063-1.413s-1.005-.436-1.413-.063z"/></svg>