<svg id="Layer_1" viewBox="0 0 24 24" xmlns="http://www.w3.org/2000/svg" data-name="Layer 1"><path d="m22.8 11.4c-.908-1.212-1.984-2.289-3.199-3.2-.442-.333-1.069-.242-1.4.2-.331.441-.242 1.068.199 1.4.49.368.946.774 1.382 1.2h-2.782v-2c0-.552-.447-1-1-1s-1 .448-1 1v2h-2.06c-.295-3.432-2.148-5-5.94-5-4.149 0-6 1.851-6 6s1.851 6 6 6c3.792 0 5.645-1.568 5.94-5h2.06v2c0 .552.447 1 1 1s1-.448 1-1v-2h2.782c-.436.426-.892.833-1.382 1.2-.441.332-.53.958-.199 1.4.334.444.962.529 1.4.2 1.215-.912 2.291-1.988 3.199-3.2.267-.355.267-.844 0-1.199zm-15.8 4.6c-3.028 0-4-.972-4-4s.972-4 4-4 4 .972 4 4-.972 4-4 4z"/></svg>