<svg id="Layer_1" viewBox="0 0 24 24" xmlns="http://www.w3.org/2000/svg" data-name="Layer 1"><path d="m13 11.06v-2.06h2c.553 0 1-.448 1-1s-.447-1-1-1h-2v-2.782c.427.436.833.893 1.2 1.382.332.445.962.53 1.399.201.442-.332.532-.958.2-1.4-.908-1.212-1.984-2.289-3.199-3.2-.355-.267-.846-.267-1.201 0-1.215.912-2.291 1.988-3.199 3.2-.332.442-.242 1.068.2 1.4s1.068.242 1.399-.201c.367-.489.773-.945 1.2-1.382v2.782h-2c-.553 0-1 .448-1 1s.447 1 1 1h2v2.06c-3.432.295-5 2.148-5 5.94 0 4.149 1.851 6 6 6s6-1.851 6-6c0-3.792-1.568-5.645-5-5.94zm-1 9.94c-3.028 0-4-.972-4-4s.972-4 4-4 4 .972 4 4-.972 4-4 4z"/></svg>