<?xml version="1.0" encoding="UTF-8"?>
<svg xmlns="http://www.w3.org/2000/svg" id="Layer_1" data-name="Layer 1" viewBox="0 0 24 24">
  <path d="M22.634,6.571c-.1-.302-.335-.538-.637-.638-.085-.028-1.666-.539-3.558-.32,.221-1.875-.284-3.447-.312-3.532-.1-.301-.336-.538-.638-.637-.108-.036-2.708-.871-5.251,.086-.517,.195-.778,.771-.583,1.289,.193,.517,.771,.777,1.288,.583,.726-.273,1.477-.344,2.125-.328l-3.669,3.636c-2.748-2.182-5.583-1.966-8.251,.656-2.873,2.891-2.872,5.986,.029,8.979,.86,.826,1.754,1.406,2.661,1.741,.343,.914,.955,1.831,1.845,2.748,1.444,1.388,2.985,2.082,4.52,2.082s3.062-.695,4.479-2.085c2.59-2.608,2.809-5.491,.64-8.218l3.676-3.642c.015,.644-.057,1.39-.333,2.109-.198,.516,.06,1.094,.575,1.292,.118,.045,.239,.067,.358,.067,.401,0,.781-.245,.934-.642,.969-2.524,.139-5.117,.103-5.226Zm-3.057,.991l-3.672,3.638c-.645-.511-1.298-.891-1.951-1.137-.246-.653-.625-1.302-1.136-1.941l3.675-3.641c.016,.646-.055,1.394-.331,2.113-.141,.368-.054,.784,.225,1.063,.276,.279,.69,.369,1.062,.231,.727-.274,1.48-.344,2.13-.327Zm-15.018,1.224c1.052-1.034,2.054-1.55,3.065-1.55s2.035,.52,3.124,1.56c2.082,2.153,2.085,4.047,.018,6.129-2.059,2.019-4.088,2.011-6.178,.005-2.123-2.191-2.13-4.03-.029-6.143Zm10.713,10.626c-2.059,2.02-4.088,2.011-6.178,.005-.333-.344-.615-.685-.844-1.02,1.347-.147,2.68-.831,3.927-2.055,1.235-1.244,1.931-2.551,2.088-3.871,.326,.221,.653,.488,.977,.799,2.096,2.159,2.102,4.056,.03,6.142Z"/>
</svg>
