<svg id="Layer_1" viewBox="0 0 24 24" xmlns="http://www.w3.org/2000/svg" data-name="Layer 1"><path d="m13.795 14.284c2.714 0 5.615-1.612 5.615-6.135 0-4.412-3.097-6.648-9.205-6.648-2.517-.001-9.205-.001-9.205 6.647 0 4.523 2.901 6.135 5.615 6.135 1.552 0 2.84-.713 3.59-1.251.75.538 2.038 1.251 3.59 1.251zm-7.18-2c-1.649 0-3.615-.717-3.615-4.135 0-3.345 2.02-4.648 7.205-4.648 6.386 0 7.205 2.484 7.205 4.648 0 3.418-1.966 4.135-3.615 4.135-1.595 0-2.873-1.238-2.882-1.247-.194-.195-.45-.292-.706-.292s-.51.097-.706.289c-.013.013-1.29 1.25-2.885 1.25z"/><path d="m22 1.5c-.552 0-1 .448-1 1v13.352c0 2.52-2.257 4.648-4.928 4.648-2.638 0-4.867-2.129-4.867-4.648 0-.552-.448-1-1-1s-1 .448-1 1c0 3.666 3.081 6.648 6.867 6.648 3.755 0 6.928-3.044 6.928-6.648v-13.352c0-.552-.448-1-1-1z"/></svg>