<svg id="Layer_1" viewBox="0 0 24 24" xmlns="http://www.w3.org/2000/svg" data-name="Layer 1"><path d="m15.274 8.726c-.725-.725-.988-1.637-.587-2.038s1.313-.138 2.038.587.988 1.637.587 2.038-1.313.138-2.038-.587zm5.937 4.486c-2.91 2.744-5.877 4.728-9.337 4.788-1.299 0-2.466-.353-3.437-1.021l-3.213 3.213c.462.256.778.742.778 1.307 0 .828-.672 1.5-1.5 1.5s-1.5-.672-1.5-1.5c0-.237.06-.459.158-.658-.199.098-.421.158-.658.158-.828 0-1.5-.672-1.5-1.5s.672-1.5 1.5-1.5c.565 0 1.052.316 1.307.778l3.211-3.211c-.974-1.415-1.267-3.253-.805-5.292.494-2.413 2.349-5.209 4.572-7.487 3.504-3.508 6.742-1.173 9.169 1.254 1.803 1.802 2.751 3.315 2.985 4.761.25 1.552-.316 2.993-1.731 4.409zm-6.71-10.217c-.821 0-1.514.444-2.23 1.145-.156.205-.356.376-.523.568-.773.956-.8 1.654-.717 2.17.161.997.954 2.196 2.425 3.667 2.839 2.839 4.339 2.921 5.796 1.746.207-.179.391-.394.61-.562 1.154-1.184 1.202-2.014 1.106-2.605-.161-.997-.954-2.197-2.425-3.667-1.759-1.759-3.004-2.461-4.043-2.461zm1.49 11.743c-1.461-.495-2.796-1.627-3.949-2.78-1.473-1.473-2.367-2.751-2.776-3.958-.524.925-.901 1.837-1.1 2.717-.394 1.74-.072 3.237.905 4.215l.016.016c.978.963 2.466 1.278 4.196.886.876-.199 1.786-.574 2.708-1.095z"/></svg>