<svg id="Layer_1" viewBox="0 0 24 24" xmlns="http://www.w3.org/2000/svg" data-name="Layer 1"><path d="m6.001 16.998c1.991 0 3-1.01 3-3s-1.009-3-3-3-3 1.01-3 3 1.009 3 3 3zm0-3.999c.878 0 1 .121 1 1s-.122 1-1 1-1-.121-1-1 .122-1 1-1zm4.991 8.876c.068.548-.321 1.048-.869 1.115-.537.071-1.05-.319-1.115-.869-.171-1.377-.701-2.123-3.007-2.123s-2.837.746-3.007 2.123c-.068.548-.563.949-1.115.869-.548-.067-.937-.567-.869-1.115.323-2.608 1.956-3.877 4.992-3.877s4.668 1.268 4.992 3.877zm4.008-7.876c0 1.99 1.009 3 3 3s3-1.01 3-3-1.009-3-3-3-3 1.01-3 3zm2.999-1c.878 0 1 .121 1 1s-.122 1-1 1-1-.121-1-1 .122-1 1-1zm4.992 8.876c.068.548-.321 1.048-.869 1.115-.537.071-1.05-.319-1.115-.869-.171-1.377-.701-2.123-3.007-2.123s-2.837.746-3.007 2.123c-.067.548-.565.949-1.115.869-.548-.067-.937-.567-.869-1.115.323-2.608 1.956-3.877 4.992-3.877s4.668 1.268 4.992 3.877zm-7.22-12.306c.334-.079.604-.324.715-.649.053-.154.514-1.558.514-3.421 0-1.918-.494-3.364-.515-3.424-.111-.322-.379-.564-.709-.644-.182-.044-1.834-.431-3.775-.431s-3.593.387-3.775.431c-.331.08-.598.322-.709.644-.021.061-.515 1.507-.515 3.424 0 1.862.461 3.266.514 3.421.111.325.383.57.717.65.159.037.937.215 1.992.329.439.412 1.218 1.101 1.779 1.099.562.002 1.326-.684 1.772-1.099 1.057-.115 1.835-.293 1.996-.331zm-3.191-1.295c-.171.191-.39.381-.58.53-.188-.148-.406-.338-.579-.531-.169-.189-.405-.307-.658-.329-.61-.054-1.132-.135-1.504-.202-.116-.494-.259-1.294-.259-2.242 0-.942.144-1.747.26-2.242.603-.109 1.623-.258 2.739-.258s2.136.148 2.739.258c.116.495.26 1.3.26 2.242 0 .948-.143 1.748-.259 2.242-.371.067-.893.148-1.503.202-.253.022-.488.141-.658.33z"/></svg>