<svg id="Layer_1" viewBox="0 0 24 24" xmlns="http://www.w3.org/2000/svg" data-name="Layer 1"><path d="m8 17c-.349 0-.682-.005-1-.015v-5.002c-.031-1.828-1.179-2.971-3.006-2.982-1.842.011-2.961 1.126-2.995 3v3.62c0 1.357.9 2.546 2.189 2.89 1.089.291 2.444.449 4.125.482.616 1.712.687 3.038.688 3.052.024.551.496.979 1.042.954.552-.023.98-.49.956-1.042-.003-.081-.096-2-1.077-4.343-.156-.372-.519-.614-.922-.614zm-3-.17c-.479-.065-.91-.149-1.296-.252-.415-.11-.704-.504-.704-.958v-3.602c.013-.775.248-1.014.994-1.018.74.005.994.262 1.007 1v4.83zm1.052 5.265c-.05.551-.549.954-1.091.9-1.858-.177-3.287-.765-3.347-.79-.509-.212-.75-.796-.539-1.306.21-.509.796-.752 1.305-.542.012.005 1.226.499 2.771.646.55.053.953.541.9 1.091zm-4.052-16.095c.026-1.484.874-1.993 2.001-2 1.123.007 1.976.547 2.001 2-.028 1.513-.874 1.993-2.001 2-1.123-.007-1.973-.491-2.001-2zm17.994 3c-1.815.012-2.962 1.155-2.995 3v4.985c-.317.01-.65.015-.999.015-.403 0-.767.242-.922.614-.98 2.343-1.073 4.263-1.077 4.343-.024.551.403 1.016.954 1.041.546.026 1.019-.401 1.044-.952 0-.015.071-1.34.688-3.052 1.682-.033 3.036-.192 4.126-.482 1.288-.344 2.188-1.533 2.188-2.89v-3.639c-.033-1.856-1.152-2.971-3.006-2.982zm1.006 6.621c0 .453-.29.847-.704.958-.386.103-.817.187-1.296.252v-4.812c.012-.756.266-1.013.994-1.018.758.004.993.243 1.007 1v3.621zm1.922 5.279c.211.51-.029 1.094-.539 1.306-.06.025-1.489.613-3.347.79-.541.054-1.041-.349-1.091-.9-.052-.55.351-1.038.9-1.091 1.545-.147 2.758-.641 2.771-.646.51-.211 1.094.033 1.305.542zm-4.924-14.9c.025-1.453.878-1.993 2.001-2 1.127.007 1.974.516 2.001 2-.028 1.509-.878 1.993-2.001 2-1.127-.007-1.973-.487-2.001-2zm-8.875 2.03c.038.009.815.184 1.631.27.316.301.747.7 1.246.7.501 0 .916-.381 1.25-.7.814-.086 1.589-.261 1.627-.27.336-.077.608-.32.722-.646.041-.118.401-1.195.401-2.703 0-1.53-.384-2.654-.4-2.701-.11-.317-.372-.557-.696-.641-.013-.003-1.344-.34-2.903-.34s-2.89.336-2.903.34c-.325.083-.586.324-.696.641-.016.047-.4 1.171-.4 2.701 0 1.508.36 2.585.401 2.703.114.325.386.569.722.646zm1.033-4.866c.447-.077 1.116-.164 1.844-.164s1.396.087 1.843.164c.077.369.157.902.157 1.518 0 .622-.079 1.15-.154 1.514-.326.057-.742.119-1.123.142-.284.017-.547.155-.723.377-.176-.222-.439-.36-.723-.377-.381-.023-.797-.085-1.123-.142-.075-.364-.154-.892-.154-1.514 0-.615.081-1.149.156-1.518zm3.844 11.064c-.539-.042-.594-.232-2-.25-1.05 0-1.689.196-1.696.198-.522.164-1.086-.126-1.253-.649s.116-1.083.639-1.254c.092-.03.941-.294 2.311-.294s2.224.271 2.316.301c.524.175.807.741.632 1.265-.14.419-.53.684-.949.684z"/></svg>