<svg id="Layer_1" viewBox="0 0 24 24" xmlns="http://www.w3.org/2000/svg" data-name="Layer 1"><path d="m11.663 16.016c-.543.099-.904.619-.806 1.162.095.522.143 1.135.143 1.822v3c0 .552.448 1 1 1s1-.448 1-1v-3c0-.817-.057-1.53-.175-2.178-.098-.543-.622-.906-1.162-.806z"/><path d="m21.913 3.552c-.104-1.097-.381-1.857-.408-1.922-.138-.349-.46-.592-.834-.628-.424-.043-.83.197-1.008.581-.109.216-.306.463-.898.463-.786.028-1.619 0-2.244.179-.817.233-1.416.966-1.488 1.824-.069.518.012 1.417-.033 1.951 0 1.653.837 3.251 1.337 4.059-.333.607-.955 1.685-1.755 2.816-1.288-.288-4.202-.875-6.582-.875-4.841 0-7 2.159-7 7v3c0 .552.448 1 1 1s1-.448 1-1v-3c0-3.738 1.262-5 5-5 2.839 0 6.719.96 6.758.97.389.098.801-.048 1.042-.37 1.537-2.049 2.552-4.068 2.595-4.153.168-.337.132-.743-.093-1.046-.008-.01-.454-.625-.822-1.456.375.037.809.055 1.315.055.651 0 .814.314.876.433.18.376.588.608 1 .565.374-.036.696-.279.834-.628.026-.061.304-.827.408-1.922.75-.113 1.087-.539 1.087-1.448s-.337-1.335-1.087-1.448zm-1.977 2.64c-.347-.126-.731-.192-1.141-.192-.997 0-1.488-.081-1.769-.218-.016-.188-.025-.503-.026-.779 0-.281.01-.597.07-.854.351-.101 1.044-.102 1.691-.102.425.005.821-.065 1.179-.2.035.331.058.715.06 1.15-.001.456-.027.854-.064 1.195z"/><path d="m7.5 10c3.07 0 4.5-1.43 4.5-4.5s-1.43-4.5-4.5-4.5-4.5 1.43-4.5 4.5 1.43 4.5 4.5 4.5zm0-7c1.939 0 2.5.561 2.5 2.5s-.561 2.5-2.5 2.5-2.5-.561-2.5-2.5.561-2.5 2.5-2.5z"/></svg>