<?xml version="1.0" encoding="UTF-8"?>
<svg xmlns="http://www.w3.org/2000/svg" id="Layer_1" data-name="Layer 1" viewBox="0 0 24 24">
  <path d="M15.395,15.485h-6.789c-.553,0-1,.448-1,1s.447,1,1,1h6.789c.553,0,1-.448,1-1s-.447-1-1-1Z"/>
  <path d="M8.611,12.265c1.236-.008,1.988-.713,2.013-1.927-.023-1.164-.794-1.892-2.022-1.899-1.237,.007-1.99,.712-2.015,1.927,.023,1.181,.775,1.891,2.013,1.898h.012Z"/>
  <path d="M15.391,8.439c-1.237,.007-1.99,.712-2.015,1.927,.023,1.181,.775,1.891,2.013,1.898h.012c1.236-.008,1.988-.713,2.013-1.927-.023-1.164-.794-1.892-2.022-1.899Z"/>
  <path d="M11.994,1C4.929,1.044,1,4.841,1,11.982c0,7.018,3.933,10.977,11.006,11.018,7.162-.042,10.861-3.737,10.994-11.017-.122-7.037-4.026-10.938-11.006-10.983Zm.012,20c-6.026-.035-8.888-2.895-9.006-9,.113-6.019,3.059-8.963,8.994-9,5.873,.038,8.903,3.072,9.006,8.981-.112,6.117-2.974,8.983-8.994,9.019Z"/>
</svg>
