<svg id="Layer_1" viewBox="0 0 24 24" xmlns="http://www.w3.org/2000/svg" data-name="Layer 1"><path d="m11 12v-4c0-.553.448-1 1-1s1 .447 1 1v4c0 .553-.448 1-1 1s-1-.447-1-1zm5 1c.552 0 1-.447 1-1v-4c0-.553-.448-1-1-1s-1 .447-1 1v4c0 .553.448 1 1 1zm-8 0c.552 0 1-.447 1-1v-4c0-.553-.448-1-1-1s-1 .447-1 1v4c0 .553.448 1 1 1zm14.994-.535c-.069 4.127-1.017 6.71-1.057 6.818-.104.276-.324.494-.602.593-.129.046-3.233 1.124-9.335 1.124s-9.206-1.078-9.335-1.124c-.278-.099-.499-.316-.602-.593-.04-.108-.987-2.691-1.057-6.818-.008-.48.327-.899.798-.996.692-.143 1.195-.761 1.195-1.469 0-.62-.396-1.183-.984-1.4-.453-.167-.721-.633-.639-1.108.298-1.724.67-2.731.686-2.773.103-.277.323-.494.602-.594.129-.046 3.233-1.124 9.335-1.124s9.206 1.078 9.335 1.124c.279.1.499.316.602.594.016.042.387 1.05.686 2.773.082.476-.186.941-.639 1.108-.588.218-.984.78-.984 1.4 0 .708.503 1.326 1.195 1.469.471.097.806.516.798.996zm-17.994-2.465c0 1.357-.792 2.573-1.972 3.148.03.673.086 1.288.154 1.852h17.636c.068-.564.124-1.179.154-1.852-1.18-.575-1.972-1.791-1.972-3.148 0-1.158.585-2.23 1.517-2.874-.112-.537-.224-.96-.309-1.251-1.027-.274-3.78-.875-8.208-.875s-7.179.6-8.208.875c-.085.291-.197.714-.309 1.251.932.644 1.517 1.716 1.517 2.874zm10 7v1.902c.745-.05 1.401-.118 2-.192v-1.71zm-8 0v1.71c.599.074 1.255.142 2 .192v-1.902zm-3.208 1.125c.275.074.685.171 1.208.274v-1.399h-1.487c.102.475.202.859.279 1.125zm8.208.875c.35 0 .671-.01 1-.017v-1.983h-2v1.983c.329.007.65.017 1 .017zm8.208-.875c.077-.265.177-.65.279-1.125h-1.487v1.399c.522-.103.932-.2 1.208-.274z"/></svg>