<svg id="Layer_1" viewBox="0 0 24 24" xmlns="http://www.w3.org/2000/svg" data-name="Layer 1"><path d="m17 11c0 .553-.447 1-1 1h-8c-.553 0-1-.447-1-1s.447-1 1-1h8c.553 0 1 .447 1 1zm-1-5h-8c-.553 0-1 .447-1 1s.447 1 1 1h8c.553 0 1-.447 1-1s-.447-1-1-1zm5 6c0 5.052-.875 9.049-.912 9.217-.08.359-.352.646-.706.746-.15.042-3.73 1.037-7.382 1.037s-7.231-.995-7.382-1.037c-.354-.1-.626-.387-.706-.746-.037-.168-.912-4.165-.912-9.217s.875-9.049.912-9.217c.08-.359.352-.646.706-.746.15-.042 3.73-1.037 7.382-1.037s7.231.995 7.382 1.037c.354.1.626.387.706.746.037.168.912 4.165.912 9.217zm-2 0c0-3.722-.511-6.909-.747-8.187-1.128-.271-3.711-.813-6.253-.813s-5.125.543-6.253.813c-.236 1.277-.747 4.465-.747 8.187s.511 6.909.747 8.187c1.128.271 3.711.813 6.253.813s5.125-.543 6.253-.813c.236-1.277.747-4.465.747-8.187zm-8 2h-3c-.553 0-1 .447-1 1s.447 1 1 1h3c.553 0 1-.447 1-1s-.447-1-1-1z"/></svg>