<svg id="Layer_1" viewBox="0 0 24 24" xmlns="http://www.w3.org/2000/svg" data-name="Layer 1"><path d="m11 11c0 .552-.448 1-1 1h-4c-.552 0-1-.448-1-1s.448-1 1-1h4c.552 0 1 .448 1 1zm-5-5c-.552 0-1 .448-1 1s.448 1 1 1h8c.552 0 1-.448 1-1s-.448-1-1-1zm3.048 14.976c-2.212-.107-4.313-.553-5.301-.79-.237-1.277-.747-4.464-.747-8.187s.51-6.909.747-8.187c1.128-.271 3.71-.813 6.253-.813s5.125.543 6.253.813c.148.796.402 2.334.572 4.273.048.55.533.961 1.083.909.55-.048.958-.533.909-1.083-.262-3.004-.711-5.044-.73-5.13-.08-.359-.351-.646-.706-.746-.15-.042-3.73-1.037-7.382-1.037s-7.23.997-7.381 1.039c-.355.1-.626.387-.706.746-.038.167-.913 4.165-.913 9.217s.875 9.049.913 9.217c.08.359.351.646.706.746.124.035 3.065.853 6.333 1.011.546.028 1.022-.398 1.047-.951.026-.552-.399-1.021-.951-1.047zm-1.048-4.976c.552 0 1-.448 1-1s-.448-1-1-1h-2c-.552 0-1 .448-1 1s.448 1 1 1zm15 1c0 4.149-1.851 6-6 6s-6-1.851-6-6 1.851-6 6-6 6 1.851 6 6zm-2 0c0-3.028-.972-4-4-4s-4 .972-4 4 .972 4 4 4 4-.972 4-4zm-2.767-1.511c-.525.627-1.106 1.208-1.733 1.735-.276-.232-.544-.475-.8-.726-.394-.386-1.026-.38-1.415.014-.386.395-.38 1.028.014 1.414.501.491 1.04.954 1.601 1.375.178.133.389.2.6.2s.422-.067.6-.2c.982-.737 1.88-1.587 2.667-2.527.354-.423.299-1.054-.125-1.409-.424-.354-1.055-.3-1.409.125z"/></svg>