<svg id="Layer_1" viewBox="0 0 24 24" xmlns="http://www.w3.org/2000/svg" data-name="Layer 1"><path d="m22 10h-.024c-.143-3.535-.962-6.089-1.063-6.392-.108-.324-.374-.57-.706-.653-.155-.039-3.87-.955-8.207-.955s-8.051.916-8.208.955c-.33.083-.596.328-.705.65-.041.12-.914 2.755-1.064 6.395-.56-.013-1.025.439-1.024 1 0 .559.46 1.011 1.019 1 .14 3.833 1.067 6.474 1.077 6.502.115.322.386.562.719.638.119.027 2.792.632 5.338.833.813.87 2.177 2.033 2.926 2.023.608-.046 2-1.174 2.767-2.023 2.546-.201 5.22-.806 5.339-.833.335-.077.607-.32.721-.645.042-.118.938-2.727 1.075-6.496.559.011 1.02-.441 1.019-1 0-.552-.447-1-1-1zm-2.819 7.31c-.971.199-3.042.587-4.889.698-.297.018-.57.167-.746.405-.394.535-1.099 1.103-1.546 1.422-.447-.319-1.152-.887-1.546-1.422-.176-.239-.449-.388-.746-.405-1.843-.111-3.916-.5-4.889-.698-.277-.983-.82-3.286-.82-6.264 0-2.931.546-5.272.825-6.274 1.153-.247 3.978-.771 7.175-.771s6.02.523 7.174.771c.278 1.01.826 3.365.826 6.275 0 2.986-.54 5.278-.819 6.264zm-2.537-10.825c-.088-.02-2.186-.484-4.644-.484s-4.557.465-4.645.484c-.328.074-.597.308-.715.623-.065.173-.64 1.755-.64 3.893s.574 3.72.64 3.893c.119.315.388.549.716.623.088.02 2.186.484 4.644.484s4.556-.464 4.644-.484c.329-.074.598-.308.717-.623.065-.173.64-1.755.64-3.893s-.574-3.72-.64-3.893c-.119-.315-.388-.549-.717-.623zm-.996 7.188c-.739.129-2.126.328-3.647.328s-2.908-.199-3.647-.328c-.15-.559-.353-1.527-.353-2.672s.203-2.113.353-2.672c.736-.129 2.12-.328 3.647-.328s2.908.199 3.647.328c.149.559.353 1.527.353 2.672s-.203 2.113-.353 2.672zm-4.647-2.672c0 .552-.448 1-1 1s-1-.448-1-1 .448-1 1-1 1 .448 1 1zm4 0c0 .552-.448 1-1 1s-1-.448-1-1 .448-1 1-1 1 .448 1 1z"/></svg>