<svg id="Layer_1" viewBox="0 0 24 24" xmlns="http://www.w3.org/2000/svg" data-name="Layer 1"><path d="m16.382 17.198c.329-.083.593-.327.702-.647.093-.274.916-3.641.916-7.051s-.823-6.776-.916-7.051c-.109-.32-.374-.564-.702-.647-.129-.032-3.217-.802-6.882-.802s-6.752.77-6.882.802c-.329.083-.593.327-.702.647-.093.274-.916 3.641-.916 7.051 0 4.985 1.675 9.884 2.356 10.336.207.138.27.149.532.149 1.055 0 2.751-1.245 3.723-2.124.562.056 1.474.139 1.889.139 3.665 0 6.752-.77 6.882-.802zm-9.02-1.372c-.298-.034-.599.073-.812.287-.812.812-1.588 1.323-2.115 1.61-.512-1.393-1.435-4.528-1.435-8.224 0-2.443.465-4.859.69-5.889 1.027-.213 3.29-.611 5.81-.611s4.781.398 5.809.611c.231 1.051.691 3.456.691 5.889s-.465 4.859-.69 5.889c-1.027.213-3.29.611-5.81.611-.363 0-1.504-.106-2.138-.174zm15.532-2.326c-.113 4.854-1.704 8.915-2.345 9.336-.157.105-.331.151-.533.15-.89 0-2.184-.889-2.846-1.393-1.963.27-3.878.406-5.698.406-.42 0-1.285-.063-2.568-.188-.55-.054-.952-.542-.898-1.092s.54-.948 1.092-.898c1.6.155 2.175.179 2.375.179 1.855 0 3.819-.15 5.836-.446.282-.038.562.037.781.217.534.439 1.031.756 1.406.961.469-1.167 1.317-3.744 1.399-7.255 0-2.627-.23-4.468-.374-5.356-.194-.041-.429-.087-.699-.136-.543-.099-.904-.619-.806-1.163.098-.542.619-.901 1.162-.806.905.164 1.453.305 1.453.305.362.092.644.38.728.744.021.095.535 2.368.535 6.436zm-13.394 1c-.552 0-1-.448-1-1s.448-1 1-1 1 .448 1 1-.448 1-1 1zm-1-7c0 .553-.448 1-1 1s-1-.447-1-1c0-1.99 1.009-3 3-3s3 1.01 3 3c0 1.474-.562 2.417-1.669 2.805-.178.062-.311.162-.334.207 0 .552-.446.994-.998.994s-.998-.453-.998-1.006c0-.925.64-1.723 1.67-2.083.131-.046.33-.115.33-.917 0-.879-.122-1-1-1s-1 .121-1 1z"/></svg>