<svg id="Layer_1" viewBox="0 0 24 24" xmlns="http://www.w3.org/2000/svg" data-name="Layer 1"><path d="m21.796 2.707c-.109-.321-.374-.565-.704-.648-.172-.043-4.278-1.058-9.093-1.058s-8.919 1.014-9.092 1.057c-.33.083-.595.327-.704.648-.049.145-1.204 3.597-1.204 8.233 0 4.796 1.162 8.108 1.211 8.247.115.322.386.563.72.639.132.03 3.125.707 5.958.926.912.991 2.431 2.253 3.194 2.245.61-.048 2.169-1.277 3.029-2.245 2.833-.219 5.826-.896 5.958-.926.333-.076.605-.317.72-.639.049-.139 1.211-3.451 1.211-8.247 0-4.636-1.154-8.088-1.204-8.233zm-1.73 15.289c-1.053.217-3.416.665-5.513.791-.296.018-.569.167-.746.405-.459.624-1.306 1.297-1.807 1.649-.501-.352-1.348-1.025-1.807-1.649-.176-.239-.449-.388-.746-.405-2.098-.126-4.46-.574-5.513-.791-.305-1.062-.934-3.669-.934-7.056 0-3.301.638-5.98.941-7.067 1.242-.269 4.431-.873 8.059-.873s6.817.604 8.059.873c.303 1.087.941 3.766.941 7.067 0 3.387-.629 5.994-.934 7.056zm-9.24-10.06c.007.032.174.798.174 1.564v2.58c0 .839 0 3.393-2.822 3.904-.531.1-1.066-.259-1.162-.806-.099-.543.262-1.063.806-1.162.69-.073 1.228-.5 1.178-2.038-.162.013-.33.022-.5.022-.767 0-1.532-.167-1.564-.174-.381-.084-.678-.381-.762-.762-.007-.032-.174-.798-.174-1.564s.167-1.532.174-1.564c.084-.381.381-.678.762-.762.032-.007.798-.174 1.564-.174s1.532.167 1.564.174c.381.084.678.381.762.762zm7 0c.007.032.174.798.174 1.564v2.58c0 .839 0 3.393-2.822 3.904-.531.1-1.066-.259-1.162-.806-.099-.543.262-1.063.806-1.162.69-.073 1.228-.5 1.178-2.038-.162.013-.33.022-.5.022-.767 0-1.532-.167-1.564-.174-.381-.084-.678-.381-.762-.762-.007-.032-.174-.798-.174-1.564s.167-1.532.174-1.564c.084-.381.381-.678.762-.762.032-.007.798-.174 1.564-.174s1.532.167 1.564.174c.381.084.678.381.762.762z"/></svg>