<svg id="Layer_1" viewBox="0 0 24 24" xmlns="http://www.w3.org/2000/svg" data-name="Layer 1"><path d="m15.128 12.872c0 1.376-.896 2.534-2.128 2.952v.176c0 .553-.448 1-1 1s-1-.447-1-1v-.162c-.962-.312-1.763-1.052-2.097-2.008-.182-.521.093-1.092.614-1.274.523-.181 1.092.094 1.274.614.166.474.691.83 1.222.83.615 0 1.115-.506 1.115-1.128.004-.695-.62-1.203-1.296-1.124-1.516-.09-2.704-1.352-2.704-2.871 0-1.231.782-2.276 1.872-2.686v-.191c0-.553.448-1 1-1s1 .447 1 1v.185c.786.291 1.428.913 1.717 1.733.184.521-.089 1.092-.61 1.276-.519.18-1.091-.089-1.276-.61-.124-.35-.456-.584-.827-.584-.483 0-.877.394-.877.877-.001.455.365.862.822.868 1.777 0 3.178 1.403 3.178 3.127zm7.872-1.933c0 4.245-.91 7.327-1.153 8.076-.048.461-.511.654-1.062.833-1.573.511-4.546.803-5.668.898-.86.97-2.509 2.207-3.12 2.253-.677-.048-2.25-1.283-3.111-2.253-1.122-.096-4.096-.388-5.668-.898-.551-.18-1.015-.373-1.062-.833-.244-.749-1.153-3.831-1.153-8.076-.003-4.635 1.151-8.087 1.201-8.232.109-.322.374-.566.704-.648.172-.044 4.278-1.059 9.093-1.059s8.92 1.015 9.093 1.059c.33.082.595.326.704.648.049.145 1.204 3.597 1.204 8.232zm-2 0c0-3.302-.638-5.98-.941-7.066-1.242-.27-4.431-.873-8.059-.873s-6.817.604-8.059.873c-.303 1.086-.941 3.765-.941 7.066 0 3.396.633 6.008.937 7.064 1.04.213 3.446.658 5.511.782.296.018.569.166.746.405.459.625 1.306 1.297 1.807 1.649.501-.353 1.348-1.024 1.807-1.649.176-.239.449-.388.746-.405 2.064-.124 4.471-.569 5.511-.782.303-1.057.937-3.668.937-7.064z"/></svg>