<svg id="Layer_1" viewBox="0 0 24 24" xmlns="http://www.w3.org/2000/svg" data-name="Layer 1"><path d="m6 7c.553 0 1 .447 1 1v2c0 .553-.447 1-1 1s-1-.447-1-1v-2c0-.553.447-1 1-1zm3 1v2c0 .553.447 1 1 1s1-.447 1-1v-2c0-.553-.447-1-1-1s-1 .447-1 1zm4 0v2c0 .553.447 1 1 1s1-.447 1-1v-2c0-.553-.447-1-1-1s-1 .447-1 1zm5-1c-.553 0-1 .447-1 1v1c0 .553.447 1 1 1s1-.447 1-1v-1c0-.553-.447-1-1-1zm-2.232 13.623c-1.061.254-2.293.377-3.768.377-6.561 0-9-2.439-9-9s2.439-9 9-9c5.645 0 8.112 1.726 8.804 6.154.085.545.589.916 1.143.834.546-.085.919-.597.834-1.143-.848-5.426-4.172-7.846-10.78-7.846-7.711.001-11.001 3.291-11.001 11.001s3.29 11 11 11c1.634 0 3.018-.142 4.232-.432.537-.129.868-.668.74-1.205s-.669-.866-1.205-.74zm6.232-4.623h-3.894c.426-1.979 1.979-3.188 1.993-3.2.442-.331.532-.958.2-1.399-.331-.443-.958-.532-1.399-.2-.119.089-2.9 2.216-2.9 5.8 0 .553.447 1 1 1h3.894c-.424 1.971-1.965 3.178-1.997 3.202-.438.332-.527.957-.196 1.397.332.445.962.53 1.399.2.119-.089 2.9-2.216 2.9-5.8 0-.553-.447-1-1-1z"/></svg>