<svg id="Layer_1" viewBox="0 0 24 24" xmlns="http://www.w3.org/2000/svg" data-name="Layer 1"><path d="m22 13h-1.021c.012-.332.021-.666.021-1s-.009-.668-.021-1h1.021c.553 0 1-.448 1-1s-.447-1-1-1h-1.156c-.07-.723-.155-1.403-.242-2h.898c.553 0 1-.448 1-1s-.447-1-1-1h-1.238c-.047-.24-.079-.387-.085-.415-.083-.381-.381-.679-.763-.762-.028-.006-.175-.038-.414-.085v-1.238c0-.552-.447-1-1-1s-1 .448-1 1v.898c-.597-.087-1.277-.172-2-.242v-1.156c0-.552-.447-1-1-1s-1 .448-1 1v1.021c-.332-.012-.666-.021-1-.021s-.668.009-1 .021v-1.021c0-.552-.448-1-1-1s-1 .448-1 1v1.156c-.723.07-1.403.155-2 .242v-.898c0-.552-.448-1-1-1s-1 .448-1 1v1.238c-.24.047-.387.079-.415.085-.381.083-.679.381-.762.762-.006.028-.038.175-.085.415h-1.238c-.552 0-1 .448-1 1s.448 1 1 1h.898c-.087.597-.172 1.277-.242 2h-1.156c-.552 0-1 .448-1 1s.448 1 1 1h1.021c-.012.332-.021.666-.021 1s.009.668.021 1h-1.021c-.552 0-1 .448-1 1s.448 1 1 1h1.156c.07.723.155 1.403.242 2h-.898c-.552 0-1 .448-1 1s.448 1 1 1h1.238c.047.24.079.387.085.415.083.381.381.679.762.762.028.006.175.038.415.085v1.238c0 .552.448 1 1 1s1-.448 1-1v-.898c.597.087 1.277.172 2 .242v1.156c0 .552.448 1 1 1s1-.448 1-1v-1.021c.332.012.666.021 1 .021s.668-.009 1-.021v1.021c0 .552.447 1 1 1s1-.448 1-1v-1.156c.723-.07 1.403-.155 2-.242v.898c0 .552.447 1 1 1s1-.448 1-1v-1.238c.239-.047.386-.079.414-.085.382-.083.68-.381.763-.762.006-.028.038-.175.085-.415h1.238c.553 0 1-.448 1-1s-.447-1-1-1h-.898c.087-.597.172-1.277.242-2h1.156c.553 0 1-.448 1-1s-.447-1-1-1zm-3.65 5.35c-1.177.22-3.806.65-6.35.65s-5.172-.431-6.35-.65c-.22-1.177-.65-3.806-.65-6.35s.431-5.172.65-6.35c1.177-.22 3.806-.65 6.35-.65s5.173.431 6.35.65c.22 1.177.65 3.806.65 6.35s-.431 5.172-.65 6.35zm-1.524-10.428c.115 1.474.174 2.846.174 4.078s-.059 2.604-.174 4.078c-.041.552-.532.963-1.075.919-.551-.043-.962-.524-.919-1.075.111-1.422.168-2.741.168-3.922s-.057-2.5-.168-3.922c-.043-.551.368-1.032.919-1.075.548-.038 1.032.369 1.075.919zm-5.503-.49c-.374-.541-1.272-.541-1.646 0-.095.138-.957 1.429-1.798 4.113-.874 2.788-.879 4.391-.879 4.458.001.55.448.994.999.995h.001c.55 0 .997-.446 1-.996 0-.007.005-.354.103-1.001h2.793c.099.647.104.993.104.998-.001.552.445 1.001.998 1.002h.002c.551 0 .999-.446 1-.998 0-.067-.006-1.669-.879-4.457-.841-2.685-1.703-3.975-1.798-4.113zm-1.787 5.568c.073-.269.156-.555.251-.857.249-.792.494-1.441.713-1.958.219.518.464 1.167.713 1.958.095.302.177.588.251.857h-1.927z"/></svg>