<svg id="Layer_1" viewBox="0 0 24 24" xmlns="http://www.w3.org/2000/svg" data-name="Layer 1"><path d="m19.304 21.047c-.526-.168-1.314-.382-2.304-.575v-2.678c2.732-.56 4-2.394 4-5.794 0-1.958-.349-4.582-3.138-5.579-.129-1.201-.711-1.959-1.742-2.262.048-.238.036-.485-.088-.698-.03-.052-.236-.386-.656-.809.371-.446.298-1.122-.177-1.463-.472-.345-1.137-.202-1.444.29-.532-.267-.914-.358-.972-.371-.314-.067-.64.021-.878.235-.061.056-1.52 1.382-3.739 4.451-2.22 3.069-3.022 4.87-3.056 4.945-.128.292-.11.629.051.905.044.077.464.771 1.418 1.461s1.745.871 1.832.89c.31.066.639-.021.876-.235.061-.054 1.507-1.371 3.707-4.407.48.354 1.125.542 1.953.542 1.351 0 2.23-.484 2.653-1.42.88.466 1.399 1.404 1.399 3.523 0 3.028-.972 4-4 4h-10.999c-.552 0-1 .447-1 1s.448 1 1 1h3v2.472c-.989.193-1.778.407-2.304.575s-.817.73-.649 1.257c.166.531.744.816 1.256.649 1.116-.356 3.47-.953 6.696-.953s5.581.597 6.696.953c.525.167 1.089-.124 1.257-.649.167-.526-.123-1.089-.649-1.257zm-7.896-12.907c-1.403 1.939-2.481 3.14-3.039 3.719-.174-.085-.386-.205-.617-.372s-.411-.33-.546-.468c.376-.711 1.178-2.111 2.581-4.051 1.402-1.938 2.481-3.14 3.039-3.72.174.086.386.206.617.373s.412.33.547.469c-.003.007-.009.016-.012.023-1.305.298-1.976 1.24-1.976 2.836 0 .121.015.226.023.339-.213.258-.393.558-.616.852zm3.541-.242c-.842 0-.948-.106-.948-.949s.106-.948.948-.948.949.106.949.948-.106.949-.949.949zm-5.948 12.273v-2.17h6v2.17c-.904-.101-1.901-.17-3-.17s-2.096.069-3 .17z"/></svg>