<svg id="Layer_1" viewBox="0 0 24 24" xmlns="http://www.w3.org/2000/svg" data-name="Layer 1"><path d="m22.707 21.293-2.019-2.019c1.239-1.739 1.968-4.098 2.213-7.195.043-.551-.368-1.032-.918-1.076-.551-.04-1.032.368-1.076.918-.202 2.556-.748 4.498-1.658 5.914l-1.52-1.52c.862-1.365 1.271-3.238 1.271-5.817 0-3.648-.726-8.498-7-8.498-2.771 0-4.667.931-5.783 2.802l-3.51-3.509c-.391-.391-1.023-.391-1.414 0s-.391 1.023 0 1.414l20 20c.391.391 1.023.391 1.414 0s.391-1.023 0-1.414zm-10.707-17.293c2.252 0 3.875.587 4.59 3h-1.59c-.552 0-1 .447-1 1s.448 1 1 1h1.937c.038.461.063.952.063 1.498 0 1.895-.245 3.328-.74 4.347l-6.386-6.386c.074-.139.126-.291.126-.46 0-.553-.448-1-1-1h-.586l-.724-.724c.718-1.582 2.037-2.276 4.31-2.276zm4.954 17.157c.167.527-.125 1.089-.652 1.255-1.249.396-2.656.587-4.304.587h-.006c-6.845 0-10.308-3.47-10.896-10.92-.043-.551.368-1.032.918-1.076.555-.04 1.032.368 1.076.918.509 6.449 3.09 9.08 8.909 9.08 1.421-.002 2.667-.169 3.701-.495.524-.168 1.088.125 1.255.651zm-7.954-7.157h-1.583c.734 2.418 2.389 3 4.582 3 .314 0 .616-.015.902-.043.549-.049 1.04.348 1.093.897.054.549-.347 1.039-.897 1.093-.348.034-.714.052-1.099.052h-.003c-4.645 0-6.866-2.534-6.99-7.977-.013-.552.424-1.01.977-1.022.529-.003 1.01.425 1.022.978.008.363.029.7.057 1.022h1.938c.552 0 1 .447 1 1s-.448 1-1 1z"/></svg>