<svg id="Layer_1" viewBox="0 0 24 24" xmlns="http://www.w3.org/2000/svg" data-name="Layer 1"><path d="m19.401 11.062c-.168-1.738-.745-2.792-1.255-3.722-.543-.99-1.053-1.943-1.131-3.843.37-.006.722-.216.889-.573.234-.5.02-1.095-.48-1.33-.212-.099-1.468-.595-5.425-.595s-5.213.496-5.425.595c-.489.229-.695.801-.479 1.297.157.363.512.58.889.593-.076 1.908-.587 2.863-1.131 3.855-.51.93-1.087 1.983-1.253 3.704-.331 2.884.267 9.829.292 10.123.026.302.188.577.441.745.272.182 1.874 1.088 6.666 1.088s6.394-.906 6.666-1.088c.253-.168.415-.443.441-.745.025-.294.623-7.239.294-10.105zm-12.898 1.938h6.497v3h-6.436c-.044-1.032-.071-2.08-.062-3zm10.66 7.403c-.67.226-2.217.597-5.163.597s-4.507-.374-5.163-.595c-.042-.538-.106-1.403-.167-2.405h7.33c.553 0 1-.448 1-1v-5c0-.552-.447-1-1-1h-7.37c.156-1.163.533-1.889.977-2.698.641-1.171 1.364-2.502 1.388-5.17.706-.073 1.683-.132 3.005-.132s2.3.059 3.004.132c.024 2.668.747 3.999 1.388 5.17.478.871.89 1.623 1.021 2.971.255 2.222-.112 7.382-.25 9.13z"/></svg>