<svg id="Layer_1" viewBox="0 0 24 24" xmlns="http://www.w3.org/2000/svg" data-name="Layer 1"><path d="m22.869 17.468c-.868 1.292-2.033 2.381-3.268 3.332-.438.33-1.067.245-1.4-.2-.331-.441-.242-1.068.199-1.4.49-.368.946-.774 1.382-1.2h-.782c-.299.005-3 .166-3 4 0 .552-.447 1-1 1s-1-.448-1-1c0-4.746 3.271-6 5-6h.782c-.436-.426-.892-.833-1.382-1.2-.441-.332-.53-.958-.199-1.4s.957-.532 1.4-.2c1.215.912 2.291 1.988 3.199 3.2.209.314.281.734.069 1.067zm-7.869-7.468c-1.589 0-2 .411-2 2v6c0 3.411-1.589 5-5 5-3.292 0-4.887-1.479-4.994-4.649-2.006-1.134-2.006-3.516-2.006-4.351 0-1.699.395-2.944 1.212-3.768-.137-.506-.212-1.074-.212-1.732 0-2.515 1.011-3.949 3.083-4.362.316-1.68 1.563-3.138 3.917-3.138 1.284 0 2.307.528 3 1.46.693-.932 1.716-1.46 3-1.46 2.362 0 3.609 1.469 3.921 3.139 2.069.414 3.079 1.848 3.079 4.361 0 1.025-.163 1.851-.499 2.523-.246.495-.849.695-1.342.448-.494-.247-.694-.847-.447-1.341.193-.388.288-.921.288-1.629 0-1.992-.666-2.385-2.065-2.475-.571-.033-1.001-.556-.93-1.122-.005-.65-.265-1.903-2.005-1.903s-2 1.879-2 3v2.354c.554-.227 1.21-.354 2-.354.553 0 1 .448 1 1s-.447 1-1 1zm-4 8v-1.354c-.554.227-1.21.354-2 .354-.552 0-1-.448-1-1s.448-1 1-1c1.589 0 2-.411 2-2v-7c0-1.121-.26-3-2-3s-2 1.253-2 2c0 .527-.408.992-.935 1.025-1.399.089-2.065.482-2.065 2.475 0 .273.019.516.049.742.571-.152 1.21-.242 1.951-.242.552 0 1 .448 1 1s-.448 1-1 1c-2.299 0-3 .701-3 3 0 2.122.694 2.542 1.345 2.768.478.161.735.657.661 1.145-.005 2.386.696 3.087 2.995 3.087s3-.701 3-3z"/></svg>