<svg id="Layer_1" viewBox="0 0 24 24" xmlns="http://www.w3.org/2000/svg" data-name="Layer 1"><path d="m14.82 8.13c-2 .16-4.24 2.04-5.55 3.6-1.83 2.18-1.67 4.13.48 5.98h.01c1.01.86 2.16 1.27 3.07 1.27 1-.08 1.91-.64 2.85-1.77 1.67-1.99 3.22-5.56 1.94-7.69 1.86-2.41 3.6-4.73 5.18-6.95.32-.45.22-1.07-.23-1.4-.45-.32-1.07-.22-1.4.23-1.57 2.19-3.28 4.48-5.11 6.86-.39-.13-.81-.18-1.26-.15zm-4.02 4.88c1.02-1.22 2.57-2.49 3.77-2.81-1.35 1.71-2.76 3.47-4.23 5.25-.57-.76-.41-1.41.46-2.44zm3.36 2.93c-.57.68-1.05 1.02-1.48 1.06-.24.02-.52-.07-.83-.24 1.48-1.8 2.9-3.56 4.26-5.28-.02 1.32-.95 3.27-1.95 4.46zm8.84-3.71v3.27c0 4.14-3.36 7.5-7.5 7.5h-7c-4.14 0-7.5-3.36-7.5-7.5v-3.27c0-.42.27-.8.67-.94.04-.01.58-.2 1.57-.42-.13-.5-.24-1.15-.24-1.86 0-1.76.67-2.86 2.01-3.29.1-2.13 1.27-3.21 3.49-3.21.14 0 .28 0 .42.01.53-1 1.56-1.51 3.08-1.51s2.56.51 3.08 1.51c.23-.02.49-.02.76 0 .04 0 .03 0-.01.01.46-.08.94.17 1.11.63.19.52-.07 1.09-.58 1.29-.27.1-.53.08-.73.05-.39-.04-.69.01-.94.08-.27.07-.55.03-.79-.11-.24-.15-.4-.38-.45-.66-.08-.42-.16-.82-1.43-.82s-1.35.4-1.43.82c-.1.56-.71.93-1.25.77-.22-.06-.5-.09-.82-.09-1.23 0-1.5.27-1.5 1.5 0 .15.01.29.02.43.06.54-.37 1.06-.91 1.09-.78.07-1.12.23-1.12 1.48 0 .59.11 1.12.21 1.5.51-.08 1.06-.16 1.68-.23.55-.06 1.04.33 1.1.88s-.34 1.04-.88 1.1c-1.96.22-3.35.53-4.11.72v2.52c0 3.03 2.47 5.5 5.5 5.5h7c3.03 0 5.5-2.47 5.5-5.5v-2.52c-.07-.02-.15-.04-.24-.06-.54-.13-.86-.68-.73-1.21.13-.54.68-.86 1.21-.73.72.18 1.09.31 1.09.31.4.14.67.52.67.94z"/></svg>