<svg id="Layer_1" viewBox="0 0 24 24" xmlns="http://www.w3.org/2000/svg" data-name="Layer 1"><path d="m13 17h-2c-.553 0-1 .448-1 1s.447 1 1 1h2c.553 0 1-.448 1-1s-.447-1-1-1z"/><path d="m19.172 2.941c-.069-.325-.296-.594-.604-.718-.124-.05-3.078-1.223-6.567-1.223-3.427 0-6.435 1.17-6.562 1.22-.312.123-.542.396-.611.725-.034.161-.827 3.999-.827 9.055s.793 8.894.827 9.055c.069.332.302.605.618.727.129.05 3.19 1.218 6.555 1.218 3.482 0 6.442-1.172 6.567-1.222.309-.125.536-.395.605-.721.033-.16.827-3.968.827-9.057 0-5.132-.794-8.901-.828-9.059zm-1.854 17.159c-.928.307-3.02.9-5.317.9-2.227 0-4.366-.598-5.318-.906-.213-1.216-.682-4.324-.682-8.094s.47-6.882.683-8.098c.939-.307 3.054-.902 5.317-.902 2.303 0 4.393.593 5.318.9.213 1.2.682 4.284.682 8.1 0 3.788-.47 6.892-.683 8.1z"/></svg>