<svg id="Layer_1" viewBox="0 0 24 24" xmlns="http://www.w3.org/2000/svg" data-name="Layer 1"><path d="m14 18c0 .552-.447 1-1 1h-2c-.553 0-1-.448-1-1s.447-1 1-1h2c.553 0 1 .448 1 1zm5-7c-.553 0-1 .448-1 1 0 4.439-.527 7.203-.77 8.239-.809.263-2.677.761-5.23.761-3.421 0-5.61-.894-5.674-.92-.505-.215-1.095.018-1.312.526-.218.508.018 1.096.525 1.313.103.044 2.566 1.081 6.46 1.081s6.357-1.037 6.46-1.081c.27-.115.475-.342.562-.622.04-.128.979-3.215.979-9.297 0-.552-.447-1-1-1zm-13.974-1.001c.545.032 1.025-.389 1.055-.941.156-2.736.504-4.511.688-5.295.809-.264 2.677-.762 5.231-.762 1.313 0 2.59.128 3.794.381.538.113 1.071-.232 1.185-.773s-.232-1.071-.772-1.184c-1.34-.282-2.755-.424-4.206-.424-3.894 0-6.357 1.037-6.46 1.081-.27.115-.475.342-.562.622-.026.086-.661 2.164-.894 6.24-.032.551.39 1.024.941 1.056zm17.774-4.599c-.768-1.024-1.677-1.932-2.7-2.7-.441-.332-1.067-.241-1.399.2-.332.442-.242 1.069.2 1.4.291.219.566.456.835.7h-2.735c-.553 0-1 .448-1 1s.447 1 1 1h2.735c-.268.244-.544.482-.835.7-.442.331-.532.958-.2 1.4.196.262.496.4.801.4.209 0 .419-.065.599-.2 1.023-.768 1.933-1.676 2.7-2.7.267-.355.267-.845 0-1.2zm-17.7 11.3c-.291-.219-.566-.456-.835-.7h2.735c.553 0 1-.448 1-1s-.447-1-1-1h-2.735c.268-.244.544-.482.835-.7.442-.331.532-.958.2-1.4-.331-.441-.959-.533-1.399-.2-1.023.768-1.933 1.676-2.7 2.7-.267.355-.267.845 0 1.2.768 1.024 1.677 1.932 2.7 2.7.18.135.39.2.599.2.305 0 .604-.138.801-.4.332-.442.242-1.069-.2-1.4zm6.956-7.448c-.365.055-.696-.24-.694-.617 0-.35.285-.635.635-.635.246 0 .401.132.472.211.369.413 1.002.447 1.412.08.412-.368.447-1 .08-1.412-.267-.298-.598-.523-.96-.672v-.206c0-.552-.447-1-1-1s-1 .448-1 1v.198c-.96.394-1.639 1.336-1.639 2.436 0 1.453 1.182 2.634 2.635 2.634.429.01.763.427.763.854 0 .483-.393.876-.876.876-.371 0-.704-.235-.828-.584-.183-.52-.757-.793-1.275-.609-.521.184-.794.755-.609 1.276.304.859.992 1.507 1.83 1.778v.139c0 .552.447 1 1 1s1-.448 1-1v-.226c1.033-.437 1.759-1.461 1.759-2.65 0-1.52-1.188-2.781-2.703-2.872z"/></svg>