<svg id="Layer_1" viewBox="0 0 24 24" xmlns="http://www.w3.org/2000/svg" data-name="Layer 1"><path d="m21 20c-.447-.008-2.847-.982-5.5-1-3.434.013-4.45 1.014-8 1-3.199 0-5.356-1.061-5.447-1.105-.261-.131-.452-.369-.522-.652-.022-.087-.53-2.167-.53-6.243 0-4.115 1.009-7.188 1.052-7.316.174-.523.74-.806 1.264-.632.029.009 2.882.949 5.185.949 3.434-.013 4.45-1.014 8-1 3.199 0 5.356 1.061 5.447 1.105.261.131.452.369.522.652.022.087.53 2.167.53 6.243 0 4.115-1.009 7.188-1.052 7.316-.14.419-.529.684-.948.684zm-17.623-2.716c.695.261 2.188.716 4.123.716 3.434-.013 4.45-1.014 8-1 1.74 0 3.665.441 4.808.752.281-1.148.692-3.255.692-5.752 0-2.723-.24-4.493-.377-5.284-.695-.261-2.188-.716-4.123-.716-3.434.013-4.45 1.014-8 1-1.74 0-3.665-.441-4.808-.752-.281 1.148-.692 3.255-.692 5.752 0 2.723.24 4.493.377 5.284zm2.623-9.284c-.552 0-1 .448-1 1s.448 1 1 1 1-.448 1-1-.448-1-1-1zm11 1c0 .552.448 1 1 1s1-.448 1-1-.448-1-1-1-1 .448-1 1zm-11 5c-.552 0-1 .448-1 1s.448 1 1 1 1-.448 1-1-.448-1-1-1zm11 1c0 .552.448 1 1 1s1-.448 1-1-.448-1-1-1-1 .448-1 1zm-5 1c-2.691 0-4-1.309-4-4s1.309-4 4-4 4 1.309 4 4-1.309 4-4 4zm0-6c-1.589 0-2 .411-2 2s.411 2 2 2 2-.411 2-2-.411-2-2-2z"/></svg>