<svg id="Layer_1" viewBox="0 0 24 24" xmlns="http://www.w3.org/2000/svg" data-name="Layer 1"><path d="m8 12c0 2.691 1.309 4 4 4s4-1.309 4-4-1.309-4-4-4-4 1.309-4 4zm6 0c0 1.589-.411 2-2 2s-2-.411-2-2 .411-2 2-2 2 .411 2 2zm4 2c.552 0 1 .448 1 1s-.448 1-1 1-1-.448-1-1 .448-1 1-1zm-12-6c.552 0 1 .448 1 1s-.448 1-1 1-1-.448-1-1 .448-1 1-1zm-4.982 5.035c-.012-.333-.018-.678-.018-1.035 0-3.975.764-6.447.796-6.55.106-.338.384-.594.729-.674.138-.031 3.431-.775 9.475-.775h7.782c-.436-.427-.892-.833-1.382-1.2-.442-.332-.532-.958-.201-1.4.332-.441.958-.532 1.4-.201 1.214.91 2.291 1.987 3.201 3.201.266.355.266.844 0 1.199-.91 1.214-1.987 2.291-3.201 3.201-.18.135-.39.2-.599.2-.304 0-.604-.138-.801-.4-.331-.442-.241-1.068.201-1.4.49-.367.946-.773 1.382-1.2h-7.782c-4.372 0-7.271.409-8.441.613-.206.892-.559 2.797-.559 5.387 0 .333.006.655.017.965.019.552-.413 1.015-.964 1.035-.012 0-.024 0-.036 0-.536 0-.98-.425-.999-.965zm21.982-1.035c0 3.975-.764 6.447-.796 6.55-.106.338-.384.594-.729.674-.138.031-3.431.775-9.475.775h-7.782c.436.427.892.833 1.382 1.2.442.332.532.958.201 1.4-.197.262-.497.4-.801.4-.208 0-.419-.065-.599-.2-1.214-.91-2.291-1.987-3.201-3.201-.266-.355-.266-.844 0-1.199.91-1.214 1.987-2.291 3.201-3.201.443-.331 1.069-.24 1.4.201.331.442.241 1.068-.201 1.4-.49.367-.946.773-1.382 1.2h7.782c4.372 0 7.271-.409 8.441-.613.206-.892.559-2.797.559-5.387 0-.333-.006-.655-.017-.965-.019-.552.413-1.015.964-1.035.57-.014 1.016.413 1.035.964.012.333.018.678.018 1.035z"/></svg>