<svg id="Layer_1" viewBox="0 0 24 24" xmlns="http://www.w3.org/2000/svg" data-name="Layer 1"><path d="m6.423 14.315c.111.027 2.764.67 7.611.67s7.5-.643 7.611-.67c.344-.085.617-.346.717-.686.026-.089.638-2.211.638-5.617s-.612-5.529-.638-5.617c-.1-.34-.373-.601-.717-.686-.111-.027-2.764-.67-7.611-.67s-7.5.643-7.611.67c-.338.084-.609.338-.712.671-.026.085-.643 2.106-.643 5.633 0 3.406.612 5.529.638 5.617.1.34.373.601.717.686zm1.055-10.788c.992-.178 3.236-.496 6.556-.496s5.556.318 6.55.495c.165.792.423 2.37.423 4.486s-.258 3.694-.423 4.486c-.995.178-3.237.495-6.55.495s-5.556-.318-6.55-.495c-.165-.792-.423-2.37-.423-4.486 0-2.173.254-3.716.418-4.485zm7.469 16.454c-.013.542-.456.972-.995.972-.008 0-.017 0-.025 0-.344-.008-.682-.018-1.011-.032-.55-.021-.978-.484-.956-1.034s.488-.993 1.034-.956c.32.012.647.022.982.031.55.013.985.47.971 1.02zm-4.987-.242c-.059.549-.565.942-1.101.879-2.809-.316-4.684-.767-5.553-1.007-.305-.085-.552-.309-.664-.605-.385-1.007-1.641-4.722-1.641-10.227 0-.778.025-1.558.073-2.318.035-.55.52-.968 1.058-.931.549.035.966.509.931 1.058-.046.718-.069 1.455-.069 2.191 0 4.519.915 7.774 1.341 9.041.94.234 2.529.568 4.748.817.547.061.94.555.879 1.101zm4.074-8.739c1.983 0 2.989-1.005 2.989-2.989s-1.005-2.989-2.989-2.989-2.989 1.005-2.989 2.989 1.005 2.989 2.989 2.989zm0-3.985c.875 0 .996.121.996.996s-.121.996-.996.996-.996-.121-.996-.996.121-.996.996-.996zm-5.977-1.992c0-.55.446-.996.996-.996s.996.446.996.996-.446.996-.996.996-.996-.446-.996-.996zm0 5.977c0-.55.446-.996.996-.996s.996.446.996.996-.446.996-.996.996-.996-.446-.996-.996zm9.962-5.977c0-.55.446-.996.996-.996s.996.446.996.996-.446.996-.996.996-.996-.446-.996-.996zm0 5.977c0-.55.446-.996.996-.996s.996.446.996.996-.446.996-.996.996-.996-.446-.996-.996zm4.699 8.376c.265.354.265.841 0 1.195-.623.832-1.361 1.569-2.192 2.192-.179.134-.389.199-.596.199-.303 0-.602-.138-.798-.399-.33-.44-.24-1.064.2-1.395.083-.062.159-.134.24-.199h-1.635c-.55 0-.996-.446-.996-.996s.446-.996.996-.996h1.635c-.081-.065-.157-.137-.24-.199-.44-.33-.53-.954-.2-1.395.331-.44.954-.529 1.395-.2.832.623 1.569 1.361 2.192 2.192z"/></svg>