<svg id="Layer_1" viewBox="0 0 24 24" xmlns="http://www.w3.org/2000/svg" data-name="Layer 1"><path d="m21.786 20.023c-.019.004-.834.18-2.087.381.199-1.943.302-3.417.302-4.378-.028-3.215-.263-4.996-.542-6 .62-.488 1.052-1.162 1.292-2.042.083.005.16.015.25.015 1.383 0 2-.617 2-2s-.617-2-2-2c-.089 0-.167.01-.25.015-.557-2.037-2.094-3.015-4.75-3.015s-4.194.978-4.75 3.015c-.083-.005-.16-.015-.25-.015-1.383 0-2 .617-2 2s.617 2 2 2c.089 0 .167-.01.25-.015.142.519.353.964.625 1.345-4.983.995-7.562 4.313-7.843 10.086-.696-.599-1.031-1.384-1.031-2.416v-10.999c0-2.299.701-3 3-3 .552 0 1-.448 1-1s-.448-1-1-1c-3.413 0-5.002 1.589-5.002 5v11c0 1.842.777 4.263 4.48 5.337 2.223.645 4.918.663 7.126.663 4.198.088 9.565-.987 9.608-1.023.54-.118.881-.651.762-1.19-.119-.54-.655-.881-1.191-.763zm-4.128.669c-.933.113-1.962.21-3.015.264.167-1.465.231-2.274.28-3.456 0-1.233.266-1.5 1.5-1.5s1.5.267 1.5 1.5c0 .892-.149 1.926-.265 3.192zm-1.658-17.692c2.299 0 3 .701 3 3s-.701 3-3 3-3-.701-3-3 .701-3 3-3zm-9.998 17.404c.026-6.16 2.441-8.962 8.022-9.354l2-.05s.004-.001.007-.001c.584-.002 1.096-.067 1.574-.164.126.666.282 1.779.355 3.391-.439-.149-.951-.225-1.537-.225-2.28 0-3.457 1.135-3.499 3.373-.045 1.215-.115 2.019-.298 3.627-2.083-.002-4.626-.014-6.587-.584-.013-.004-.023-.008-.036-.012z"/></svg>