<svg id="Layer_1" viewBox="0 0 24 24" xmlns="http://www.w3.org/2000/svg" data-name="Layer 1"><path d="m6 19h12c.553 0 1-.448 1-1s-.447-1-1-1h-.693c.305-1.297.693-3.448.693-6 0-3.199-1.061-5.357-1.105-5.447-.031-.062-.067-.12-.11-.173-3.469-4.38-4.391-4.38-4.785-4.38s-1.316 0-4.784 4.379c-.043.054-.079.112-.11.173-.045.09-1.105 2.248-1.105 5.447 0 2.552.388 4.703.693 6h-.693c-.553 0-1 .448-1 1s.447 1 1 1zm7-2v-10h2.331c.265.734.669 2.154.669 4 0 2.689-.478 4.926-.755 6zm-1-13.9c.408.312 1.118 1.05 1.864 1.9h-3.728c.745-.85 1.455-1.588 1.864-1.9zm-4 7.9c0-1.829.407-3.261.672-4h2.328v10h-2.246c-.277-1.07-.754-3.298-.754-6z"/><path d="m20 21h-16c-.553 0-1 .448-1 1s.447 1 1 1h16c.553 0 1-.448 1-1s-.447-1-1-1z"/></svg>