<svg id="Layer_1" viewBox="0 0 24 24" xmlns="http://www.w3.org/2000/svg" data-name="Layer 1"><path d="m19.5 15c-2.322 0-3.5 1.178-3.5 3.5s1.178 3.5 3.5 3.5 3.5-1.178 3.5-3.5-1.178-3.5-3.5-3.5zm0 5c-1.233 0-1.5-.267-1.5-1.5s.267-1.5 1.5-1.5 1.5.267 1.5 1.5-.267 1.5-1.5 1.5zm2.5-7c.552 0 1-.447 1-1s-.448-1-1-1h-2.04c-.081-1.151-.315-2.61-.763-4.089.232.057.494.089.803.089 0 0 1 0 1-1v-2c0-1-1-1-1-1-1.132 0-1.719.367-1.917 1.226-.326-.595-.684-1.17-1.118-1.681-.119-.141-.275-.245-.45-.303-.117-.038-1.188-.372-2.744-.188-.684.079-1.393.265-2.106.552-.513.206-.761.789-.555 1.301.206.514.789.759 1.301.555.548-.221 1.083-.362 1.591-.421.74-.085 1.325-.013 1.637.045 1.581 2.041 2.174 5.071 2.319 6.996-3.29.359-5.144 1.95-5.74 4.919h-1.325c-.702-5.169-3.08-7.601-3.186-7.707-.188-.188-.442-.293-.707-.293h-.5c-3.752 0-5.5 1.748-5.5 5.5v3.5c0 .553.448 1 1 1h1v.5c0 2.322 1.178 3.5 3.5 3.5s3.5-1.178 3.5-3.5v-.5h3.076c.51 0 .938-.384.994-.891.33-2.995 1.802-4.109 5.43-4.109h2.5zm-19 .5c0-2.649.851-3.5 3.5-3.5h.038c.543.701 1.826 2.657 2.334 6h-5.872zm3.5 6.5c-1.233 0-1.5-.267-1.5-1.5v-.5h3v.5c0 1.233-.267 1.5-1.5 1.5z"/></svg>