<svg id="Layer_1" viewBox="0 0 24 24" xmlns="http://www.w3.org/2000/svg" data-name="Layer 1"><path d="m22.193 21.019c-.053-.01-.416-.081-1.005-.18 1.217-.963 1.812-2.535 1.812-4.838 0-4.149-1.851-6-6-6-2.747 0-3.792-.817-3.965-3.227.365-.136.707-.339 1.002-.612.196-.181.249-.469.13-.709-.119-.238-.379-.37-.643-.324-1.086.218-2.134-.664-2.122-1.769 0-.501.208-.97.584-1.32.196-.181.248-.469.129-.709-.119-.238-.378-.366-.644-.323-1.433.257-2.473 1.499-2.473 2.952 0 1.29.821 2.383 1.965 2.807-.171 2.413-1.216 3.232-3.965 3.232-4.149 0-6 1.851-6 6 0 2.303.595 3.875 1.812 4.838-.59.099-.952.17-1.006.18-.542.107-.894.634-.787 1.175.107.542.632.894 1.175.788.05-.01 5.028-.981 9.806-.981s9.757.972 9.807.981c.529.107 1.069-.242 1.175-.788.106-.541-.246-1.067-.788-1.175zm-15.193-1.019c-3.028 0-4-.972-4-4s.972-4 4-4c2.435 0 4.058-.658 5-2.023.942 1.365 2.565 2.023 5 2.023 3.028 0 4 .972 4 4s-.972 4-4 4z"/></svg>