<svg id="Layer_1" viewBox="0 0 24 24" xmlns="http://www.w3.org/2000/svg" data-name="Layer 1"><path d="m22.883 20.753c-.311-1.437-1.328-5.334-4.058-10.454-3.252-6.099-5.839-8.731-6.123-9.011-.389-.384-1.015-.384-1.403 0-.284.28-2.872 2.912-6.123 9.012-2.73 5.12-3.747 9.017-4.058 10.454-.126.531.25 1.1.788 1.193 1.638.316 5.9 1.053 10.095 1.053s8.457-.737 10.095-1.053c.538-.093.913-.662.788-1.193zm-10.883-17.264c.883 1.042 2.523 3.19 4.473 6.684-.334 1.202-.963 2.334-1.471 3.107-.409-.581-.764-1.168-1.062-1.756-.174-.343-.536-.534-.914-.548-.385.008-.73.236-.889.587-.483 1.065-1.041 2.023-1.69 2.902-.796-.911-2.051-2.483-2.955-4.229 1.966-3.531 3.62-5.7 4.508-6.747zm0 17.511c-3.329 0-6.719-.487-8.685-.828.427-1.612 1.325-4.378 3.065-7.84 1.501 2.447 3.322 4.285 3.413 4.376.391.408 1.104.382 1.464-.054.685-.794 1.303-1.666 1.847-2.605.347.521.73 1.036 1.148 1.541.374.476 1.158.48 1.536.006.06-.071 1.108-1.338 1.93-3.072 1.678 3.374 2.548 6.065 2.966 7.648-1.966.341-5.356.828-8.685.828z"/></svg>