<svg id="Layer_1" viewBox="0 0 24 24" xmlns="http://www.w3.org/2000/svg" data-name="Layer 1"><path d="m7 3c0-1.429.571-2 2-2s2 .571 2 2-.571 2-2 2-2-.571-2-2zm3 5c0 1.429.571 2 2 2s2-.571 2-2-.571-2-2-2-2 .571-2 2zm-4 2c1.429 0 2-.571 2-2s-.571-2-2-2-2 .571-2 2 .571 2 2 2zm16.443 4.74c-3.904 5.48-8.764 8.26-14.443 8.26-3.064 0-5.59-.498-5.696-.52-.379-.075-.68-.363-.774-.738-.021-.086-.53-2.144-.53-4.242s.508-4.156.53-4.242c.094-.377.398-.665.78-.739.109-.021 2.706-.519 5.69-.519 2.521 0 4.319.531 4.395.554 1.009.304 1.764 1.143 1.99 2.146 1.117-.895 2.176-2.042 3.172-3.439.91-1.333 2.888-1.668 4.184-.703 1.334.908 1.666 2.889.703 4.184zm-1.863-2.555c-.429-.322-1.092-.211-1.395.234-2.861 4.017-6.258 6.229-10.096 6.576-.542.062-1.036-.356-1.086-.906-.049-.55.356-1.036.906-1.086 1-.09 1.973-.338 2.906-.742.399-.157.638-.507.638-.937 0-.392-.261-.743-.635-.855-.014-.005-1.609-.47-3.819-.47-1.946 0-3.744.231-4.666.373-.139.713-.334 1.93-.334 3.127s.196 2.418.334 3.129c.908.142 2.682.371 4.666.371 4.996 0 9.307-2.496 12.814-7.42.321-.432.211-1.091-.234-1.395z"/></svg>