<svg id="Layer_1" viewBox="0 0 24 24" xmlns="http://www.w3.org/2000/svg" data-name="Layer 1"><path d="m22.219 11.448c-3.299-.741-5.242-.728-7.527 1.321-1.961-1.104-3.842-1.017-5.817.264-.131-1.04-.343-1.94-.526-2.721-.32-1.361-.489-2.165-.249-2.822.368-.022.852-.08 1.35-.22.88-.245 1.3-1.015 1.464-1.665.245-.161.626-.347.755-.627.48-.881.492-1.912.03-2.69-.286-.48-1.015-1.287-2.748-1.287h-.005c-2.353.127-4.218.992-5.544 2.573-2.167 2.582-2.843 6.943-2.067 13.332.425 3.494 3.495 6.129 7.142 6.129 4.275.02 8.874.054 10.995-1.102 2.224-1.082 3.301-3.109 3.496-6.673.063-.065.022-2.699.033-2.837 0-.468-.325-.873-.781-.976zm-1.219 2.552c0 4.364-1.155 5.527-2.403 6.135-1.78.941-5.902.908-10.12.9-2.637 0-4.853-1.879-5.156-4.37-.696-5.729-.153-9.7 1.613-11.805.97-1.156 2.318-1.765 4.066-1.86.498 0 .864.115.979.31.073.123.078.314.019.509l-.532.337c-.269.17-.441.47-.464.787-.011.156-.078.37-.091.402-.667.187-1.354.156-1.358.156-.346-.023-.673.142-.871.424-1.065 1.514-.702 3.059-.281 4.846.281 1.193.599 2.545.599 4.229 0 .398.236.759.602.917.366.157.79.086 1.081-.186 2.48-2.316 4.154-2.316 6.635 0 .403.376 1.037.355 1.414-.049s.355-1.037-.048-1.414c-.11-.102-.219-.2-.327-.296 1.26-1.026 2.35-1.184 4.645-.738v.766z"/></svg>