<svg id="Layer_1" viewBox="0 0 24 24" xmlns="http://www.w3.org/2000/svg" data-name="Layer 1"><path d="m22.28 12.665c-.056-.016-.891-.253-2.186-.439.017-.599-.413-1.491-.431-1.528-.138-.269-.39-.46-.685-.521-.034-.008-.854-.176-1.977-.176s-1.929.169-1.962.177c-.293.062-.542.253-.679.52-.028.062-.441.909-.431 1.526-1.308.187-2.152.426-2.208.443-.53.154-.834.709-.68 1.238.131.453.556.721 1.005.701-.029.606-.045 1.259-.045 1.967 0 3.184.514 5.098.536 5.178.087.319.327.575.64.683.068.022 1.683.568 3.825.568s3.757-.546 3.825-.568c.313-.107.553-.363.64-.683.022-.08.536-1.994.536-5.178 0-.702-.016-1.351-.044-1.953.015 0 .029.006.044.006.434 0 .833-.284.96-.722.154-.529-.15-1.084-.68-1.238zm-2.628 8.019c-.561.136-1.523.316-2.652.316s-2.091-.182-2.651-.316c-.138-.727-.349-2.157-.349-4.112 0-.866.023-1.651.067-2.346.798-.12 1.802-.226 2.933-.226s2.134.105 2.933.226c.045.695.067 1.48.067 2.346 0 1.955-.211 3.387-.348 4.112zm-9.654-.687c-.034.529-.474.936-.997.936-3.235-.191-6.231-.836-6.315-.856-.381-.084-.679-.381-.762-.762-.038-.172-.923-4.253-.923-8.314s.884-8.144.922-8.315c.083-.381.381-.678.762-.762.171-.038 4.252-.924 8.314-.924s8.143.886 8.314.924c.381.084.679.381.762.762.019.085.458 2.102.725 4.713.057.549-.343 1.04-.893 1.097-.555.041-1.041-.345-1.097-.894-.169-1.648-.414-3.071-.562-3.852-1.284-.243-4.316-.75-7.25-.75s-5.966.507-7.25.75c-.243 1.284-.75 4.316-.75 7.25s.507 5.966.75 7.25c1.002.189 3.066.541 5.314.685.551.035.969.511.934 1.062zm-2.895-10.774c-.065.65-.103 1.242-.103 1.777 0 1.398.213 2.842.354 3.646.434.076 1.053.174 1.75.247.549.057.948.549.891 1.099-.054.514-.488.896-.994.896-1.338-.113-2.735-.414-2.715-.41-.381-.083-.679-.381-.762-.762-.021-.098-.523-2.41-.523-4.715 0-.686.045-1.427.138-2.267 0-.002.001-.003.002-.005 0 0 0-.002 0-.003.152-1.359.374-2.394.383-2.437.083-.383.381-.682.763-.766.036-.008.9-.196 2.091-.345.433-.05.85.179 1.032.575s.086.864-.237 1.157c-.61.555-1.307 1.337-2.069 2.312zm3.882 1.335c-.184.325-.522.507-.871.507-.167 0-.336-.042-.492-.13-.48-.272-.649-.883-.376-1.363.909-1.603 2.593-3.292 3.773-4.183.209-.158.469-.229.732-.193 1.123.146 1.928.32 1.962.327.381.084.68.382.764.764 0 0 .14.636.275 1.571.079.546-.3 1.054-.847 1.132-.54.093-1.054-.3-1.133-.847-.043-.301-.087-.568-.126-.788-.208-.036-.459-.078-.74-.119-1.011.832-2.258 2.153-2.921 3.322z"/></svg>