<svg id="Layer_1" viewBox="0 0 24 24" xmlns="http://www.w3.org/2000/svg" data-name="Layer 1"><path d="m11 20.017c-.019.54-.462.966-.999.966-.012 0-.023 0-.035 0-3.704-.127-7.136-.873-7.28-.905-.381-.084-.679-.381-.762-.762-.038-.172-.923-4.253-.923-8.314s.884-8.145.922-8.316c.083-.381.381-.678.762-.762.171-.038 4.252-.924 8.314-.924s8.143.886 8.314.924c.381.084.678.381.762.762.032.145.778 3.576.905 7.28.02.552-.413 1.015-.965 1.033-.555.058-1.015-.413-1.033-.965-.091-2.609-.517-5.14-.733-6.284-1.284-.243-4.315-.75-7.25-.75s-5.966.507-7.25.75c-.243 1.284-.75 4.316-.75 7.25s.507 5.966.75 7.25c1.144.217 3.674.643 6.285.733.552.019.984.481.965 1.033zm11.708 2.69c-.391.391-1.023.391-1.414 0l-2.304-2.304c-.681.382-1.512.597-2.489.597-2.817 0-4.5-1.683-4.5-4.5s1.683-4.5 4.5-4.5 4.5 1.683 4.5 4.5c0 .977-.215 1.808-.597 2.489l2.304 2.304c.391.391.391 1.023 0 1.414zm-6.207-3.707c1.706 0 2.5-.794 2.5-2.5s-.794-2.5-2.5-2.5-2.5.794-2.5 2.5.794 2.5 2.5 2.5zm-7.329-12.089c.323-.293.419-.761.237-1.157s-.6-.625-1.032-.575c-1.191.148-2.055.337-2.091.345-.382.084-.68.383-.763.766-.009.043-.231 1.077-.383 2.437v.003c0 .002-.001.003-.002.005-.093.84-.138 1.581-.138 2.267 0 2.305.502 4.617.523 4.715.083.381.381.679.762.762.016.002 1.352.293 2.715.41.506 0 .94-.382.994-.896.058-.55-.341-1.042-.891-1.099-.696-.073-1.316-.171-1.75-.247-.142-.804-.354-2.247-.354-3.646 0-.535.038-1.127.103-1.777.762-.975 1.459-1.757 2.069-2.312zm3.705 4.778c-.117-.539-.646-.878-1.188-.767-.1.021-.418.077-.688.077 0-.191.034-.421.062-.574.679-1.135 1.871-2.39 2.844-3.19.28.041.531.083.739.119.077.434.174 1.053.247 1.75.058.548.529.95 1.099.89.549-.057.947-.549.89-1.099-.151-1.447-.394-2.562-.404-2.609-.084-.382-.382-.68-.764-.764-.034-.007-.84-.182-1.963-.327-.259-.034-.523.036-.731.193-1.18.892-2.864 2.58-3.773 4.183-.047.083-.082.172-.104.265-.015.062-.142.62-.142 1.164 0 .537.111 1.058.124 1.115.083.381.381.679.763.762.057.013.576.123 1.113.123s1.056-.11 1.113-.123c.539-.117.88-.649.763-1.188z"/></svg>