<svg id="Layer_1" viewBox="0 0 24 24" xmlns="http://www.w3.org/2000/svg" data-name="Layer 1"><path d="m23 17.113c0 1.29-.635 2.526-1.998 3.889s-2.599 1.998-3.889 1.998-2.526-.635-3.889-1.998c-.264-.299-1.035-1.002-1.725-1.002-.324 0-.435.053-.451.062.003.004-.049.114-.049.438s.052.435.062.451c0 .006.109.049.438.049.552 0 1 .447 1 1s-.448 1-1 1c-1.612 0-2.5-.888-2.5-2.5s.888-2.5 2.5-2.5c1.73 0 3.046 1.476 3.19 1.644.898.895 1.708 1.356 2.423 1.356s1.525-.462 2.475-1.412 1.412-1.76 1.412-2.475-.461-1.524-1.412-2.475c-1.133-1.133-3.099-2.789-3.119-2.806-.059-.05-.111-.105-.157-.167-.135-.182-3.312-4.496-3.312-9.666 0-.553.448-1 1-1s1 .447 1 1c0 4.125 2.434 7.783 2.854 8.384.422.358 2.089 1.781 3.148 2.841 1.363 1.362 1.998 2.599 1.998 3.889zm-16.5-3.113c.552 0 1-.447 1-1s-.448-1-1-1c-3.752 0-5.5 1.748-5.5 5.5s1.748 5.5 5.5 5.5c.552 0 1-.447 1-1s-.448-1-1-1c-2.649 0-3.5-.851-3.5-3.5s.851-3.5 3.5-3.5z"/></svg>