<svg id="Layer_1" viewBox="0 0 24 24" xmlns="http://www.w3.org/2000/svg" data-name="Layer 1"><path d="m22.707 21.293-4.539-4.539c1.195-1.57 1.832-3.675 1.832-6.254 0-6.037-3.462-9.5-9.5-9.5s-9.5 3.463-9.5 9.5 3.462 9.5 9.5 9.5c2.579 0 4.684-.637 6.254-1.832l4.539 4.539c.195.195.451.293.707.293s.512-.098.707-.293c.391-.391.391-1.023 0-1.414zm-12.207-3.293c-4.977 0-7.5-2.523-7.5-7.5s2.523-7.5 7.5-7.5 7.5 2.523 7.5 7.5-2.523 7.5-7.5 7.5zm3.207-9.293-1.793 1.793 1.793 1.793c.391.391.391 1.023 0 1.414-.195.195-.451.293-.707.293s-.512-.098-.707-.293l-1.793-1.793-1.793 1.793c-.195.195-.451.293-.707.293s-.512-.098-.707-.293c-.391-.391-.391-1.023 0-1.414l1.793-1.793-1.793-1.793c-.391-.391-.391-1.023 0-1.414s1.023-.391 1.414 0l1.793 1.793 1.793-1.793c.391-.391 1.023-.391 1.414 0s.391 1.023 0 1.414z"/></svg>