<svg id="Layer_1" viewBox="0 0 24 24" xmlns="http://www.w3.org/2000/svg" data-name="Layer 1"><path d="m19.884 2.438c-.104-.316-.358-.561-.68-.651-.114-.032-2.85-.787-7.204-.787s-7.09.755-7.204.787c-.321.09-.576.334-.68.651-.046.139-1.116 3.472-1.116 9.562s1.07 9.423 1.116 9.562c.104.316.358.561.68.651.114.032 2.85.787 7.204.787s7.09-.755 7.204-.787c.321-.09.576-.334.68-.651.046-.139 1.116-3.472 1.116-9.562s-1.07-9.423-1.116-9.562zm-6.65 9.562 5.164-7.151c.281 1.501.602 3.914.602 7.151s-.321 5.65-.602 7.151l-5.165-7.151zm3.76-8.621-4.993 6.913-4.995-6.915c1.156-.185 2.862-.377 4.994-.377s3.833.193 4.993.379zm-11.392 15.772c-.281-1.501-.602-3.914-.602-7.151s.321-5.65.602-7.151l5.165 7.151-5.164 7.151zm1.405 1.47 4.993-6.913 4.994 6.915c-1.156.185-2.862.377-4.994.377s-3.833-.193-4.993-.379z"/></svg>