<svg id="Layer_1" viewBox="0 0 24 24" xmlns="http://www.w3.org/2000/svg" data-name="Layer 1"><path d="m21.977 2.786c-.083-.381-.381-.679-.762-.762-.19-.042-4.713-1.023-9.214-1.023s-9.025.98-9.215 1.022c-.381.083-.679.381-.762.762-.042.19-1.023 4.713-1.023 9.214s.981 9.024 1.023 9.214c.083.381.381.679.762.762.19.042 4.713 1.023 9.214 1.023 1.348 0 2.838-.09 4.428-.267.226-.025.436-.126.597-.287l5.422-5.422c.161-.161.262-.371.287-.597.177-1.59.267-3.08.267-4.428 0-4.501-.981-9.024-1.023-9.214zm-18.128 17.365c-.265-1.386-.849-4.824-.849-8.151s.584-6.765.849-8.151c1.386-.265 4.824-.849 8.151-.849s6.765.584 8.151.849c.265 1.386.849 4.824.849 8.151 0 .932-.059 1.956-.149 3.023-2.659-.117-4.971.281-5.08.299-.399.07-.716.374-.803.77-.016.072-.356 1.702-.295 4.788-.937.072-1.844.121-2.673.121-3.327 0-6.765-.584-8.151-.849zm12.812-.169c.007-1.283.088-2.219.158-2.79.64-.079 1.661-.176 2.82-.188z"/></svg>