<svg id="Layer_1" viewBox="0 0 24 24" xmlns="http://www.w3.org/2000/svg" data-name="Layer 1"><path d="m21.977 2.786c-.083-.381-.381-.679-.762-.762-.19-.042-4.714-1.023-9.215-1.023s-9.024.98-9.214 1.022c-.381.083-.679.381-.762.762-.042.19-1.023 4.713-1.023 9.214s.981 9.024 1.023 9.214c.083.381.381.679.762.762.19.042 4.713 1.023 9.214 1.023 1.348 0 2.837-.09 4.428-.267.226-.025.437-.126.597-.287l5.423-5.422c.16-.161.262-.371.287-.597.176-1.587.266-3.077.266-4.428 0-4.501-.981-9.024-1.023-9.214zm-18.128 17.365c-.265-1.386-.849-4.824-.849-8.151s.584-6.765.849-8.151c1.386-.265 4.824-.849 8.151-.849s6.765.584 8.15.849c.265 1.386.85 4.824.85 8.151 0 .933-.058 1.958-.149 3.023-2.658-.116-4.972.28-5.08.299-.399.07-.717.374-.804.77-.016.072-.357 1.701-.295 4.788-.938.072-1.844.121-2.673.121-3.327 0-6.765-.584-8.151-.849zm12.812-.169c.007-1.283.088-2.219.158-2.79.639-.079 1.661-.177 2.822-.189l-2.979 2.979zm-8.661-13.482c0 1.071-.429 1.5-1.5 1.5s-1.5-.429-1.5-1.5.429-1.5 1.5-1.5 1.5.429 1.5 1.5zm0 5.5c0 1.071-.429 1.5-1.5 1.5s-1.5-.429-1.5-1.5.429-1.5 1.5-1.5 1.5.429 1.5 1.5zm0 5.5c0 1.071-.429 1.5-1.5 1.5s-1.5-.429-1.5-1.5.429-1.5 1.5-1.5 1.5.429 1.5 1.5z"/></svg>