<svg id="Layer_1" viewBox="0 0 24 24" xmlns="http://www.w3.org/2000/svg" data-name="Layer 1"><path d="m14.971 6.994c.528-.035 1.011.424 1.023.976.008.349.008.698 0 1.047-.013.544-.458.977-1 .977-.008 0-.016 0-.023 0-.552-.013-.989-.471-.977-1.023.008-.318.008-.636 0-.953-.013-.552.425-1.01.977-1.023zm-5.944 8.993c.552-.014.988-.474.974-1.026-.015-.543-.459-.974-.999-.974-.01 0-.019 0-.027 0-.316.008-.631.008-.947 0-.009 0-.018 0-.027 0-.54 0-.984.431-.999.974-.015.552.422 1.012.974 1.026.351.009.702.009 1.053 0zm3.973-.394c.714-.075 1.619-.291 1.564-.272.381-.083.679-.381.763-.761 0 0 .121-.547.26-1.407.088-.545-.283-1.059-.828-1.146-.546-.088-1.059.283-1.146.828-.04.25-.079.472-.113.658-.186.034-.407.073-.658.113-.545.089-.915.603-.827 1.147.08.491.504.84.986.84zm-10.971-5.593c.552-.013.989-.471.977-1.023-.008-.318-.008-.636 0-.953.013-.552-.425-1.01-.977-1.023-.546-.037-1.011.424-1.023.976-.008.349-.008.698 0 1.047.013.544.458.977 1 .977h.023zm5.97-6.994h.027c.316-.008.631-.008.947 0h.027c.54 0 .984-.431.999-.974.015-.552-.422-1.012-.974-1.026-.352-.01-.701-.01-1.053 0-.552.014-.988.474-.974 1.026.015.543.459.974.999.974zm-3.839 10.605c-.251-.041-.473-.079-.658-.113-.034-.186-.073-.408-.113-.658-.088-.545-.603-.918-1.146-.828-.545.088-.916.601-.828 1.146.139.859.26 1.407.26 1.407.084.38.382.677.763.761 0 0 .546.121 1.403.26.533.089 1.061-.279 1.147-.827.088-.545-.282-1.059-.827-1.147zm8.68-10.223c.251.041.473.079.658.113.034.186.073.408.113.658.085.548.613.917 1.146.828.545-.088.916-.601.828-1.146-.139-.859-.26-1.407-.26-1.407-.084-.38-.382-.677-.763-.761 0 0-.546-.121-1.403-.26-.549-.09-1.059.283-1.147.827-.088.545.282 1.059.827 1.147zm-9-1.974c-.857.139-1.403.26-1.403.26-.381.083-.679.381-.763.761 0 0-.121.548-.26 1.407-.088.545.283 1.059.828 1.146.533.089 1.061-.28 1.146-.828.04-.25.079-.472.113-.658.186-.034.407-.073.658-.113.545-.089.915-.603.827-1.147-.089-.545-.606-.917-1.147-.827zm18.486 8.022c-.084-.381-.381-.679-.762-.762-.042-.009-1.031-.225-2.434-.411-.539-.069-1.05.312-1.122.86s.312 1.05.86 1.123c.659.087 1.227.183 1.628.256.184 1.001.503 3.033.503 4.999s-.319 3.997-.502 4.998c-1.002.183-3.032.502-4.998.502s-3.996-.319-4.998-.502c-.073-.402-.169-.97-.257-1.629-.072-.548-.573-.93-1.123-.86-.547.073-.933.575-.859 1.123.186 1.402.402 2.392.411 2.433.083.381.381.679.762.762.126.028 3.102.673 6.064.673s5.938-.646 6.064-.673c.381-.083.678-.381.762-.762.027-.125.674-3.102.674-6.064s-.646-5.939-.674-6.064z"/></svg>