<svg id="Layer_1" viewBox="0 0 24 24" xmlns="http://www.w3.org/2000/svg" data-name="Layer 1"><path d="m21.592 17.318c.207-1.481.408-3.403.408-5.318s-.203-3.852-.407-5.319c.928-.437 1.407-1.326 1.407-2.681 0-1.991-1.009-3-3-3-1.356 0-2.245.48-2.682 1.408-1.481-.207-3.403-.408-5.318-.408s-3.852.203-5.319.407c-.437-.928-1.326-1.407-2.681-1.407-1.991 0-3 1.009-3 3 0 1.356.48 2.245 1.408 2.682-.207 1.481-.408 3.403-.408 5.318s.203 3.852.407 5.319c-.928.437-1.407 1.326-1.407 2.681 0 1.991 1.009 3 3 3 1.356 0 2.245-.48 2.681-1.407 1.466.205 3.399.407 5.319.407s3.852-.203 5.319-.407c.437.928 1.326 1.407 2.681 1.407 1.991 0 3-1.009 3-3 0-1.356-.48-2.245-1.408-2.682zm-1.592-14.318c.878 0 1 .122 1 1s-.122 1-1 1-1-.122-1-1 .122-1 1-1zm-16 0c.878 0 1 .122 1 1s-.122 1-1 1-1-.122-1-1 .122-1 1-1zm0 18c-.878 0-1-.122-1-1s.122-1 1-1 1 .122 1 1-.122 1-1 1zm2.974-1.386c-.12-1.6-.988-2.468-2.588-2.588-.194-1.395-.386-3.224-.386-5.026s.19-3.617.386-5.026c1.6-.12 2.468-.988 2.588-2.588 1.395-.194 3.224-.386 5.026-.386s3.617.19 5.026.386c.12 1.6.988 2.468 2.588 2.588.194 1.395.386 3.224.386 5.026s-.19 3.617-.386 5.026c-1.6.12-2.468.988-2.588 2.588-1.395.194-3.224.386-5.026.386s-3.631-.192-5.026-.386zm13.026 1.386c-.878 0-1-.122-1-1s.122-1 1-1 1 .122 1 1-.122 1-1 1zm-6.35-8.888c.036-.109.35-1.093.35-2.112s-.314-2.003-.35-2.112c-.118-.36-.43-.622-.805-.677-.059-.009-1.455-.211-2.845-.211s-2.787.202-2.845.211c-.375.055-.687.317-.805.677-.036.109-.35 1.093-.35 2.112s.314 2.003.35 2.112c.118.36.43.622.805.677.059.009 1.455.211 2.845.211s2.787-.202 2.845-.211c.375-.055.687-.317.805-.677zm-1.749-1.223c-.992.104-2.81.104-3.802 0-.053-.263-.099-.582-.099-.889s.046-.626.099-.889c.992-.104 2.81-.104 3.802 0 .053.263.099.582.099.889s-.046.626-.099.889zm4.944 5.9c-.059.009-1.455.211-2.845.211s-2.787-.202-2.845-.211c-.546-.08-.924-.587-.844-1.134.08-.546.586-.926 1.134-.845.013.001 1.315.189 2.556.189.693 0 1.405-.059 1.901-.111.053-.263.099-.582.099-.889 0-.71-.248-1.481-.25-1.489-.17-.524.116-1.089.64-1.26.525-.17 1.088.113 1.26.637.036.109.35 1.093.35 2.112s-.314 2.003-.35 2.112c-.118.36-.43.622-.805.677z"/></svg>