<svg id="Layer_1" viewBox="0 0 24 24" xmlns="http://www.w3.org/2000/svg" data-name="Layer 1"><path d="m22.47 7.758c-.044-.176-.135-.337-.263-.465l-5.5-5.5c-.128-.128-.289-.219-.465-.263-.086-.022-2.144-.53-4.242-.53s-4.156.508-4.242.53c-.176.044-.337.135-.465.263l-5.5 5.5c-.128.128-.219.289-.263.465-.022.086-.53 2.144-.53 4.242s.508 4.156.53 4.242c.044.176.135.337.263.465l5.5 5.5c.128.128.289.219.465.263.086.022 2.144.53 4.242.53s4.156-.508 4.242-.53c.176-.044.337-.135.465-.263l5.5-5.5c.128-.128.219-.289.263-.465.022-.086.53-2.144.53-4.242s-.508-4.156-.53-4.242zm-1.881 7.738-5.093 5.094c-.582.126-2.048.41-3.496.41s-2.913-.284-3.496-.411l-5.094-5.093c-.126-.582-.41-2.048-.41-3.496s.284-2.913.411-3.496l5.093-5.094c.582-.126 2.048-.41 3.496-.41s2.913.284 3.496.411l5.094 5.093c.126.582.41 2.048.41 3.496s-.284 2.913-.411 3.496zm-3.589-3.496c0 .553-.447 1-1 1h-8c-.553 0-1-.447-1-1s.447-1 1-1h8c.553 0 1 .447 1 1zm-6-4c0-.552.448-1 1-1s1 .448 1 1-.448 1-1 1-1-.448-1-1zm2 8c0 .552-.448 1-1 1s-1-.448-1-1 .448-1 1-1 1 .448 1 1z"/></svg>