<svg id="Layer_1" viewBox="0 0 24 24" xmlns="http://www.w3.org/2000/svg" data-name="Layer 1"><path d="m22.47 7.758c-.044-.176-.135-.337-.263-.465l-5.5-5.5c-.128-.128-.289-.219-.464-.263-.087-.022-2.144-.53-4.243-.53s-4.156.508-4.243.53c-.176.044-.336.135-.464.263l-5.5 5.5c-.128.128-.219.289-.263.465-.021.086-.53 2.144-.53 4.242s.508 4.156.53 4.242c.044.176.135.337.263.465l5.5 5.5c.128.128.289.219.464.263.087.022 2.144.53 4.243.53s4.156-.508 4.243-.53c.176-.044.336-.135.464-.263l5.5-5.5c.128-.128.219-.289.263-.465.021-.086.53-2.144.53-4.242s-.508-4.156-.53-4.242zm-1.881 7.738-5.093 5.094c-.582.126-2.047.41-3.496.41s-2.913-.284-3.497-.411l-5.093-5.093c-.126-.582-.41-2.048-.41-3.496s.284-2.913.411-3.496l5.093-5.094c.582-.126 2.047-.41 3.496-.41s2.913.284 3.497.411l5.093 5.093c.126.582.41 2.048.41 3.496s-.284 2.913-.411 3.496zm-4.882-5.789-2.293 2.293 2.293 2.293c.391.391.391 1.023 0 1.414s-1.023.391-1.414 0l-2.293-2.293-2.293 2.293c-.391.391-1.023.391-1.414 0s-.391-1.023 0-1.414l2.293-2.293-2.293-2.293c-.391-.391-.391-1.023 0-1.414s1.023-.391 1.414 0l2.293 2.293 2.293-2.293c.391-.391 1.023-.391 1.414 0s.391 1.023 0 1.414z"/></svg>