<svg id="Layer_1" viewBox="0 0 24 24" xmlns="http://www.w3.org/2000/svg" data-name="Layer 1"><path d="m17.305 9.538c-1.312 2.053-3.18 4.626-6.001 6.319-.324.194-.73.19-1.05-.013-1.52-.962-2.661-1.994-3.595-3.248-.329-.442-.237-1.069.206-1.399.442-.33 1.069-.236 1.399.206.673.904 1.487 1.679 2.535 2.404 2.161-1.46 3.645-3.508 4.819-5.346.299-.466.917-.603 1.381-.305.466.298.602.916.305 1.381zm5.695 2.462c0 2.099-.508 4.156-.53 4.242-.044.176-.135.337-.263.465l-5.5 5.5c-.128.128-.289.219-.465.263-.086.022-2.144.53-4.242.53s-4.156-.508-4.242-.53c-.176-.044-.337-.135-.465-.263l-5.5-5.5c-.128-.128-.219-.289-.263-.465-.022-.086-.53-2.144-.53-4.242s.508-4.156.53-4.242c.044-.176.135-.337.263-.465l5.5-5.5c.128-.128.289-.219.465-.263.086-.022 2.144-.53 4.242-.53s4.156.508 4.242.53c.176.044.337.135.465.263l5.5 5.5c.128.128.219.289.263.465.022.086.53 2.144.53 4.242zm-2 0c0-1.448-.284-2.914-.41-3.496l-5.094-5.093c-.583-.127-2.054-.411-3.496-.411s-2.914.284-3.496.41l-5.093 5.094c-.127.583-.411 2.054-.411 3.496s.284 2.914.41 3.496l5.094 5.093c.583.127 2.054.411 3.496.411s2.914-.284 3.496-.41l5.093-5.094c.127-.583.411-2.054.411-3.496z"/></svg>