<svg id="Layer_1" viewBox="0 0 24 24" xmlns="http://www.w3.org/2000/svg" data-name="Layer 1"><path d="m21.297 6.111c-.494-.184-1.079-.115-1.614.039.315-.552.607-.947.801-1.182.648-.055 1.366-.22 1.815-.669.577-.577.698-1.609.701-2.355.002-.521-.422-.946-.944-.944-.746.003-1.778.124-2.355.701-.467.467-.633 1.226-.682 1.895-.262.308-.676.846-1.095 1.585-.083-.55-.253-1.107-.625-1.48-.577-.577-1.609-.698-2.355-.701-.521-.002-.946.422-.944.944.003.746.124 1.779.701 2.355.594.594 1.651.698 2.4.693-.277.792-.492 1.694-.569 2.698-.436-.255-.881-.385-1.617-.556-.27-1.411-1.24-2.134-2.914-2.134-1.65 0-2.616.705-2.901 2.077-1.133-.828-2.354-1.484-3.704-1.981-.328-.121-.697-.061-.971.158-.273.219-.413.565-.366.913.009.069.023.141.033.211-.677-.172-1.337-.289-1.963-.37-.313-.04-.618.067-.837.286-.219.221-.323.53-.282.838.283 2.081.497 4.935 3.679 8.295-.572.11-1.167.224-1.666.319-1.713.326-1.853.354-1.997.998-.023.363-.123 2.724 2.554 4.15.304.151.664.139.956-.034 1.34-.791 2.21-1.874 2.749-2.755.714.496 1.638.895 2.817.895 3.389 0 4.9-1.542 4.9-5v-4.102c.68-.165 1.108-.292 1.518-.53.085 2.551.514 3.887.534 3.948.172.526.751.802 1.259.632.523-.172.809-.736.64-1.26-.005-.014-.45-1.427-.45-4.188 0-.765.116-1.458.279-2.094.309.49.718.955 1.235 1.148.764.285 1.754-.033 2.434-.341.475-.215.685-.777.466-1.25-.313-.677-.852-1.566-1.616-1.851zm-17.292 14.703c-.43-.33-.676-.725-.816-1.064.693-.131 1.466-.279 2.225-.426-.331.49-.791 1.03-1.408 1.49zm8.995-4.814c0 2.383-.597 3-2.9 3-1.891 0-2.806-1.733-2.84-1.802-.06-.118-.141-.224-.241-.31-2.824-2.447-3.554-4.903-3.845-6.675 1.912.417 3.308 1.182 4.619 2.493.188.188.441.293.707.293 1.005 0 2.5-.799 2.5-3 0-.878.121-1 1-1s1 .122 1 1v6z"/></svg>