<svg id="Layer_1" viewBox="0 0 24 24" xmlns="http://www.w3.org/2000/svg" data-name="Layer 1"><path d="m21.949 22.316c-.14.419-.53.684-.949.684-.696-.078-1.361-.479-6.075-.842-.521-.039-.925-.474-.925-.997v-2.393c0-.487.351-.903.831-.985 3.72-.639 5.169-2.681 5.169-7.283 0-5.537-2.093-7.5-8-7.5s-8 1.963-8 7.5c0 4.603 1.449 6.645 5.169 7.283.48.082.831.498.831.985v2.393c0 .52-.398.952-.916.996-3.851.326-5.823.809-5.843.813-.541.128-1.078-.193-1.211-.729-.133-.535.192-1.077.727-1.211.078-.02 1.815-.447 5.243-.782v-.666c-4.088-.999-6-3.907-6-9.082 0-6.659 2.991-9.5 10-9.5s10 2.841 10 9.5c0 5.175-1.912 8.083-6 9.082v.657c3.865.34 5.255.792 5.316.812.524.174.807.74.632 1.265z"/></svg>