<svg id="Layer_1" viewBox="0 0 24 24" xmlns="http://www.w3.org/2000/svg" data-name="Layer 1"><path d="m16 5.502v-.259c0-.379-.214-.725-.553-.895-.081-.04-.605-.283-1.556-.449.073-.252.109-.549.109-.9 0-1.429-.571-2-2-2s-2 .571-2 2c0 .351.036.648.109.9-.951.166-1.475.409-1.556.449-.339.17-.553.516-.553.895v.259c-3.464 1.038-5 3.737-5 8.498 0 6.309 2.691 9 9 9s9-2.691 9-9c0-4.761-1.536-7.46-5-8.498zm-4 1.498c4.602 0 6.554 1.459 6.928 5.426-.144-.095-.275-.204-.426-.292-.292-.17-.648-.18-.949-.029-.877.438-1.719 1.163-2.553 2.199-.834-1.036-1.676-1.761-2.553-2.199-.281-.141-.613-.141-.895 0-.877.438-1.719 1.163-2.553 2.199-.834-1.036-1.676-1.761-2.553-2.199-.302-.15-.658-.141-.949.029-.151.088-.282.197-.426.292.373-3.967 2.326-5.426 6.928-5.426zm0 14c-4.812 0-6.729-1.591-6.971-5.98.308-.314.632-.6.989-.847.696.483 1.417 1.282 2.15 2.382.371.557 1.293.557 1.664 0 .739-1.108 1.466-1.911 2.168-2.395.702.483 1.429 1.286 2.168 2.395.186.278.498.445.832.445s.646-.167.832-.445c.733-1.1 1.455-1.898 2.15-2.382.357.247.681.533.989.847-.242 4.389-2.16 5.98-6.971 5.98z"/></svg>