<svg id="Layer_1" viewBox="0 0 24 24" xmlns="http://www.w3.org/2000/svg" data-name="Layer 1"><path d="m22.611 7.981c-.091-.453-.222-.901-.362-1.311-.183-.521-.751-.794-1.274-.614-.521.182-.796.752-.614 1.274.399.874.399 2.464-.139 2.963-.421.469-1.281.707-2.555.707h-3.651c.658-.664.984-1.66.984-3 0-1.686-.269-3.039-.814-4.097.556-.182.814-.633.814-1.403 0-1.037-.463-1.5-1.5-1.5-.77 0-1.221.258-1.403.814-1.057-.546-2.411-.814-4.097-.814s-3.039.269-4.097.814c-.182-.556-.633-.814-1.403-.814-1.037 0-1.5.463-1.5 1.5 0 .77.258 1.221.814 1.403-.546 1.057-.814 2.411-.814 4.097 0 .506.062.946.155 1.355-.105.883-.147 1.711-.155 2.645 0 7.71 3.29 11 11 11h1.931c1.143 0 3.055 0 3.055-2 0-.426-.194-.812-.42-1.259-.252-.499-.565-1.12-.565-1.741 0-.553-.447-1-1-1s-1 .447-1 1c0 1.098.469 2.026.779 2.642.048.095.105.209.149.304-.425.088-2.371.045-2.929.055-5.002 0-7.603-1.425-8.559-5.007 1.111.676 2.616 1.007 4.559 1.007.552 0 1-.447 1-1s-.448-1-1-1c-2.018 0-3.357-.386-4.095-1.179-.457-.491-.714-1.209-.807-2.131.533.201 1.16.31 1.902.31 1.339 0 2.336-.324 3-.981.664.657 1.661.981 3 .981.169 0 .317-.021.475-.031.345.738.525 1.726.525 3.031 0 .553.448 1 1 1s1-.447 1-1c0-.74-.066-1.391-.166-2h3.833c1.418 0 2.516-.252 3.326-.767-.035 3.628-.857 5.936-2.591 7.23-.443.331-.534.957-.204 1.399.332.446.962.532 1.399.204 2.321-1.732 3.402-4.613 3.402-9.066 0-1.534-.132-2.856-.389-4.019zm-13.339 1.431c.138-.234.228-.519.228-.912 0-1.037-.463-1.5-1.5-1.5s-1.5.463-1.5 1.5c0 .392.09.678.228.912-.276.438-.796.588-1.728.588-1.589 0-2-.411-2-2 0-3.738 1.262-5 5-5s5 1.262 5 5c0 1.589-.411 2-2 2-.933 0-1.452-.15-1.728-.588zm-3.272-2.412c0 .552-.448 1-1 1s-1-.448-1-1 .448-1 1-1 1 .448 1 1zm6 0c0 .552-.448 1-1 1s-1-.448-1-1 .448-1 1-1 1 .448 1 1z"/></svg>