<svg id="Layer_1" viewBox="0 0 24 24" xmlns="http://www.w3.org/2000/svg" data-name="Layer 1"><path d="m19.875 2.665c-.099-.278-.315-.498-.591-.602-.116-.043-2.887-1.063-7.284-1.063s-7.168 1.02-7.284 1.063c-.276.104-.492.324-.591.602-.046.129-1.125 3.232-1.125 9.335s1.079 9.206 1.125 9.335c.099.278.315.498.591.602.116.043 2.887 1.063 7.284 1.063s7.168-1.02 7.284-1.063c.276-.104.492-.324.591-.602.046-.129 1.125-3.232 1.125-9.335s-1.079-9.206-1.125-9.335zm-7.875.335c3.025 0 5.22.528 6.125.792.18.671.495 2.087.694 4.208h-13.637c.199-2.123.514-3.539.693-4.208.906-.263 3.101-.792 6.125-.792zm6.125 17.208c-.906.263-3.101.792-6.125.792s-5.219-.528-6.125-.792c-.275-1.029-.875-3.782-.875-8.208 0-.716.02-1.372.047-2h13.905c.027.628.047 1.284.047 2 0 4.428-.601 7.182-.875 8.208zm-7.125-14.208c0-.552.448-1 1-1s1 .448 1 1-.448 1-1 1-1-.448-1-1zm4 0c0-.552.448-1 1-1s1 .448 1 1-.448 1-1 1-1-.448-1-1zm-8 0c0-.552.448-1 1-1s1 .448 1 1-.448 1-1 1-1-.448-1-1zm8.988 6h-7.977c-.545-.011-1.023.478-1 1.022.04 1.763.18 3.394.417 4.846.068.422.398.754.82.825 1.202.203 2.463.306 3.751.306s2.552-.103 3.752-.307c.422-.071.751-.403.82-.826.236-1.456.375-3.086.415-4.845.024-.545-.454-1.034-1-1.022zm-1.283 4.829c-1.747.228-3.657.228-5.409 0-.118-.881-.201-1.828-.249-2.829h5.906c-.048 1-.131 1.946-.249 2.829z"/></svg>