<svg id="Layer_1" viewBox="0 0 24 24" xmlns="http://www.w3.org/2000/svg" data-name="Layer 1"><path d="m9.997 21.95c-.043.553-.536.961-1.079.915-3.312-.274-6.019-.863-6.132-.889-.381-.084-.679-.381-.762-.762-.042-.19-1.023-4.714-1.023-9.215s.98-9.023 1.022-9.213c.083-.381.381-.679.762-.762.19-.042 4.713-1.023 9.214-1.023s9.024.981 9.214 1.023c.381.083.679.381.762.762.042.19 1.023 4.713 1.023 9.214 0 .552-.448 1-1 1s-1-.448-1-1c0-3.327-.584-6.765-.849-8.151-1.386-.265-4.824-.849-8.151-.849s-6.765.584-8.151.849c-.265 1.386-.849 4.824-.849 8.151s.584 6.765.85 8.151c.978.187 2.978.534 5.233.72.55.046.959.529.914 1.079zm-2.997-5.95c-.552 0-1 .448-1 1s.448 1 1 1 1-.448 1-1-.448-1-1-1zm4-10c-.552 0-1 .448-1 1s.448 1 1 1h6c.552 0 1-.448 1-1s-.448-1-1-1zm-4 0c-.552 0-1 .448-1 1s.448 1 1 1 1-.448 1-1-.448-1-1-1zm8 7c.552 0 1-.448 1-1s-.448-1-1-1h-4c-.552 0-1 .448-1 1s.448 1 1 1zm-8-2c-.552 0-1 .448-1 1s.448 1 1 1 1-.448 1-1-.448-1-1-1zm10 6c-1.071 0-1.5.429-1.5 1.5s.429 1.5 1.5 1.5 1.5-.429 1.5-1.5-.429-1.5-1.5-1.5zm5.935 1.225c.07.206.07.43.001.637-.908 2.725-2.905 4.117-5.934 4.139h-.015c-3.039-.021-5.041-1.425-5.949-4.171-.068-.205-.068-.426 0-.63.917-2.761 2.917-4.174 5.943-4.199 2.975.025 5.027 1.486 5.953 4.225zm-2.012.322c-.686-1.719-1.947-2.53-3.941-2.547-2.028.017-3.258.796-3.932 2.515.666 1.699 1.896 2.469 3.945 2.485 2.039-.017 3.264-.776 3.928-2.453z"/></svg>