<svg id="Layer_1" viewBox="0 0 24 24" xmlns="http://www.w3.org/2000/svg" data-name="Layer 1"><path d="m9.608 1.001s-2.333-.007-3.217.131c-.44.068-.781.42-.838.861-.022.177-.553 4.404-.553 10.066 0 5.755.929 9.98.968 10.157.104.466.586.887 1.194.758.54-.114.878-.655.758-1.194-.008-.035-.651-2.97-.857-7.178.873.066 1.73.077 2.545.077 4.032 0 9.392-.709 9.392-6.84 0-6.06-5.02-6.838-9.392-6.838zm0 11.68c-.839 0-1.725-.012-2.605-.088 0-4.263.295-8.087.447-9.562.536-.034 2.158-.029 2.158-.029 5.319 0 7.392 1.357 7.392 4.84 0 2.905-1.257 4.84-7.392 4.84z"/></svg>