<svg id="Layer_1" viewBox="0 0 24 24" xmlns="http://www.w3.org/2000/svg" data-name="Layer 1"><path d="m21.937 4.716c-.104-.276-.324-.492-.602-.591-.129-.046-3.232-1.125-9.335-1.125s-9.206 1.079-9.335 1.125c-.278.099-.498.315-.602.591-.043.116-1.063 2.887-1.063 7.284s1.02 7.168 1.063 7.284c.104.276.324.492.602.591.129.046 3.232 1.125 9.335 1.125s9.206-1.079 9.335-1.125c.278-.099.498-.315.602-.591.043-.116 1.063-2.887 1.063-7.284s-1.02-7.168-1.063-7.284zm-9.937 14.284c-4.428 0-7.182-.601-8.208-.875-.263-.906-.792-3.101-.792-6.125s.528-5.22.792-6.125c1.029-.275 3.782-.875 8.208-.875s7.182.601 8.208.875c.263.906.792 3.101.792 6.125s-.528 5.219-.792 6.125c-1.029.275-3.782.875-8.208.875zm1.5-3c0 .552-.448 1-1 1h-1c-.552 0-1-.448-1-1s.448-1 1-1h1c.552 0 1 .448 1 1zm5.5 0c0 .552-.448 1-1 1h-1c-.552 0-1-.448-1-1s.448-1 1-1h1c.552 0 1 .448 1 1zm-11 0c0 .552-.448 1-1 1h-1c-.552 0-1-.448-1-1s.448-1 1-1h1c.552 0 1 .448 1 1zm10-9h-12c-.552 0-1 .448-1 1v4c0 .552.448 1 1 1h12c.552 0 1-.448 1-1v-4c0-.552-.448-1-1-1zm-1 4h-10v-2h10z"/></svg>