<svg id="Layer_1" viewBox="0 0 24 24" xmlns="http://www.w3.org/2000/svg" data-name="Layer 1"><path d="m22.162 7.257c-.132-.293-.396-.505-.711-.569-.024-.005-.153-.031-.376-.069-1.347-3.133-4.236-4.619-9.076-4.619s-7.747 1.476-9.093 4.622c-.209.036-.333.061-.357.065-.314.064-.579.276-.711.569-.034.075-.838 1.895-.838 4.743s.804 4.668.838 4.743c.132.293.396.505.711.569.024.005.153.031.376.069 1.347 3.133 4.236 4.619 9.076 4.619s7.729-1.486 9.076-4.619c.222-.038.351-.064.376-.069.314-.064.579-.276.711-.569.034-.075.838-1.895.838-4.743s-.804-4.668-.838-4.743zm-10.162-3.257c3.338 0 5.412.713 6.611 2.301-1.578-.156-3.789-.301-6.611-.301s-5.033.144-6.61.301c1.194-1.588 3.252-2.301 6.61-2.301zm3.596 11.005c.105.429-.155.862-.584.968-.417.109-.863-.15-.969-.581-.014-.057-.343-1.397-.343-3.392s.329-3.335.343-3.392c.107-.427.542-.688.969-.581.429.105.689.539.584.968-.003.013-.296 1.222-.296 3.005s.293 2.992.296 3.005zm-2.532.197c0 .441-.358.798-.8.798h-.002c-.441 0-.799-.36-.798-.802 0-.003-.005-.219-.05-.605h-1.878c-.045.387-.05.604-.05.608-.002.44-.359.798-.8.798-.44 0-.798-.356-.799-.797 0-.053.004-1.323.625-3.543.581-2.07 1.168-3.092 1.279-3.275.145-.237.401-.383.68-.384h.004c.276 0 .533.143.68.378.067.108.68 1.128 1.284 3.281.621 2.22.625 3.49.625 3.543zm-9.101.776c-.42.097-.86-.17-.955-.604-.013-.056-.308-1.388-.308-3.373 0-1.736.226-2.973.291-3.293.044-.375.348-.676.736-.702.123-.01.702-.002.702-.002.826.003 3.332.013 3.332 2.642 0 1.044-.441 2.795-3.396 2.795h-.008c.078.976.209 1.574.211 1.583.097.431-.175.858-.605.955zm8.037 4.022c-3.338 0-5.412-.713-6.611-2.301 1.578.156 3.789.301 6.611.301s5.034-.144 6.611-.301c-1.2 1.588-3.274 2.301-6.611 2.301zm6.621-4c-.591 0-1.237-.134-1.31-.149-.308-.065-.549-.306-.615-.613-.011-.051-.266-1.255-.266-3.237s.255-3.2.266-3.252c.067-.315.318-.561.636-.619.028-.006.698-.129 1.289-.129 2.778 0 2.778 2.906 2.778 4s0 4-2.778 4zm-7.723-3.909c.092.328.164.623.229.902h-1.302c.064-.28.137-.574.229-.902.145-.515.288-.956.423-1.328.134.371.277.812.422 1.328zm-6.533-.251c-.022 0-.044 0-.064 0 .009-.954.091-1.733.162-2.236 1.699.014 1.699.49 1.699 1.042 0 .476 0 1.195-1.797 1.195zm15.435.16c0 2.4-.626 2.4-1.179 2.4-.145 0-.301-.013-.445-.03-.065-.492-.146-1.309-.146-2.37s.079-1.877.145-2.375c.146-.015.302-.025.446-.025.553 0 1.179 0 1.179 2.4z"/></svg>