<svg id="Layer_1" viewBox="0 0 24 24" xmlns="http://www.w3.org/2000/svg" data-name="Layer 1"><path d="m1.205 6.291c-.165-.216-.235-.491-.193-.761.028-.184.314-1.833 1.5-3.019s2.835-1.471 3.02-1.5c.268-.042.544.028.761.194.059.045 1.472 1.127 3.64 3.016.416.363.46.994.097 1.411-.363.418-.995.459-1.411.097-1.48-1.29-2.617-2.208-3.17-2.645-.407.121-1.052.373-1.521.842s-.72 1.112-.842 1.521c.432.545 1.33 1.658 2.592 3.108.362.417.318 1.048-.099 1.411-.415.362-1.047.32-1.411-.098-1.854-2.132-2.916-3.519-2.961-3.577zm21.287 10.773c-.35-.425-1.319-1.587-2.768-3.195-.371-.411-1.005-.443-1.412-.074-.411.37-.443 1.002-.074 1.413 1.241 1.377 2.136 2.437 2.541 2.923.119 1.053.174 2.106.199 2.848-.741-.025-1.795-.081-2.849-.2-.43-.356-1.477-1.238-2.883-2.504-.41-.37-1.043-.335-1.412.074-.369.411-.336 1.043.074 1.412 3.122 2.811 3.383 2.967 3.746 2.976 2.122.261 4.254.264 4.345.264.553 0 1-.448 1-1 0-.091-.003-2.261-.271-4.404-.025-.204-.111-.387-.237-.532zm-10.539.981c-.158 1.022-.761 2.048-1.818 3.105-1.562 1.561-4.352 1.857-6.243 1.857-.982 0-1.722-.08-1.922-.104-.458-.055-.818-.416-.874-.874-.07-.586-.619-5.793 1.754-8.165 1.085-1.085 2.086-1.672 3.109-1.823.836-.891 1.683-1.768 2.522-2.607.912-.913 1.867-1.834 2.838-2.737 1.628-1.508 3.307-2.971 5.133-4.471 1.485-1.213 3.147-2.045 5.256.065 2.163 2.164 1.241 3.878.054 5.27-.964 1.174-2.527 3.022-4.432 5.082-1.015 1.088-1.918 2.028-2.766 2.875-.913.912-1.789 1.754-2.611 2.525zm-3.64-5.577c.593.307 1.193.769 1.822 1.398.618.618 1.081 1.225 1.392 1.827.527-.506 1.066-1.031 1.623-1.587.831-.831 1.719-1.753 2.714-2.821 1.869-2.021 3.405-3.838 4.364-5.005 1.096-1.285.981-1.656.065-2.572-.908-.91-1.255-1.01-2.574.067-1.794 1.474-3.442 2.91-5.039 4.39-.952.886-1.89 1.79-2.785 2.686-.555.555-1.078 1.093-1.582 1.618zm.408 2.812c-1.724-1.724-2.735-1.721-4.457 0-1.202 1.202-1.33 4.039-1.247 5.704 1.665.083 4.502-.046 5.704-1.247 1.707-1.708 1.707-2.75 0-4.457z"/></svg>