<svg id="Layer_1" viewBox="0 0 24 24" xmlns="http://www.w3.org/2000/svg" data-name="Layer 1"><path d="m20.603 5.202c-.173-.131-.385-.202-.603-.202h-2.057c-.196-1.739-.835-2.952-.866-3.012-.147-.275-.415-.466-.723-.516-.12-.02-2.977-.473-6.354-.473s-6.233.453-6.353.473c-.311.05-.579.242-.726.52-.038.071-.921 1.768-.921 4.007 0 2.259.886 3.941.923 4.012.147.275.415.466.723.516.12.02 2.977.473 6.354.473s6.233-.453 6.353-.473c.311-.05.579-.242.726-.52.032-.06.667-1.28.863-3.007h1.565c.194.363.492 1.179.492 2.755 0 1.595-.305 2.406-.48 2.745h-9.519c-.552 0-1 .448-1 1v1.637c-1.328.404-2 1.698-2 3.863 0 2.654 1.009 4 3 4s3-1.346 3-4c0-2.165-.672-3.459-2-3.863v-.637h9c.215 0 .425-.069.597-.198.234-.175 1.403-1.213 1.403-4.547s-1.164-4.377-1.397-4.553zm-5.101 3.426c-.966.127-3.125.372-5.502.372s-4.54-.244-5.503-.372c-.204-.529-.497-1.489-.497-2.628 0-1.131.294-2.095.498-2.628.966-.127 3.125-.372 5.502-.372s4.54.244 5.503.372c.204.529.497 1.489.497 2.628 0 1.131-.294 2.095-.498 2.628zm-5.502 12.372c-.469 0-1 0-1-2s.555-2 1-2c.469 0 1 0 1 2s-.531 2-1 2z"/></svg>