<svg id="Layer_1" viewBox="0 0 24 24" xmlns="http://www.w3.org/2000/svg" data-name="Layer 1"><path d="m22.998 13.938c.034.551-.385 1.026-.936 1.061-.545.036-1.028-.383-1.061-.936-.037-.592-.167-1.214-.278-1.66-1.337-.114-4.466-.351-7.724-.394v1.991c0 .552-.447 1-1 1s-1-.448-1-1v-1.991c-3.268.043-6.403.281-7.733.395-.116.443-.249 1.062-.268 1.628-.017.552-.429.981-1.031.968-.552-.018-.984-.479-.967-1.031.042-1.334.533-2.767.554-2.827.128-.369.459-.63.848-.668.048-.005 4.86-.474 9.598-.474s9.55.469 9.598.474c.396.039.73.308.854.685.019.058.463 1.434.547 2.779z"/></svg>