<svg id="Layer_1" viewBox="0 0 24 24" xmlns="http://www.w3.org/2000/svg" data-name="Layer 1"><path d="m22.998 12.003c.095-7.762-3.586-11.046-10.997-10.998-7.249-.084-11.14 3.21-10.997 10.994 0 .139.029.272.081.392v.002c.065.152 1.621 3.636 6.946 6.243-.016.261-.028.544-.028.861 0 1.493.248 2.448.258 2.488.091.344.358.614.702.708.045.013 1.127.304 3.039.304s2.994-.291 3.039-.304c.344-.094.611-.364.702-.708.011-.04.258-.995.258-2.488 0-.314-.012-.598-.03-.861 5.326-2.607 6.882-6.092 6.947-6.244.032-.124.061-.263.08-.39zm-2.383-3.757c-.531-.164-1.153-.245-1.865-.245-.958 0-1.736.16-2.366.457-.155-2.046-.504-3.87-1.223-5.203 3.065.56 4.761 2.11 5.455 4.992zm-8.614 7.752c-.172 0-.329.005-.487.009-1.39-1.881-1.905-3.687-2.009-4.106.018-1.335.397-1.901 2.496-1.901s2.478.567 2.496 1.904c-.104.428-.61 2.217-2.006 4.104-.159-.004-.317-.009-.49-.009zm.001-12.947c1.082.217 2.031 1.312 2.367 5.351-.645-.258-1.421-.401-2.368-.401s-1.723.144-2.368.402c.336-4.042 1.286-5.135 2.369-5.351zm-3.16.202c-.718 1.334-1.068 3.157-1.223 5.203-.631-.296-1.409-.457-2.366-.457-.713 0-1.334.082-1.865.245.694-2.882 2.39-4.432 5.455-4.992zm-5.833 8.52c.033-1.235.414-1.776 2.244-1.773 1.937 0 2.25.59 2.25 2 .061.403.32 1.886 1.742 4.239-.395.08-.535.125-.774.386-3.657-1.911-5.116-4.218-5.461-4.851zm10.905 9.101c-.426.061-1.071.123-1.913.123s-1.487-.062-1.913-.123c-.045-.339-.087-.807-.087-1.377 0-.58.041-1.045.084-1.376.426-.061 1.072-.124 1.916-.124s1.487.062 1.913.123c.045.339.087.807.087 1.377s-.042 1.038-.087 1.377zm1.62-4.249c-.239-.262-.38-.307-.775-.387 1.414-2.354 1.691-3.83 1.742-4.239 0-1.41.312-2 2.25-2 1.827 0 2.204.534 2.242 1.776-.351.641-1.807 2.942-5.458 4.849z"/></svg>