<svg id="Layer_1" viewBox="0 0 24 24" xmlns="http://www.w3.org/2000/svg" data-name="Layer 1"><path d="m12 1c-7.402 0-11 3.598-11 11 0 9.859 6.278 11 11 11 5.122 0 11-1.25 11-11s-5.878-11-11-11zm0 20c-5.402 0-9-1.53-9-9 0-6.309 2.691-9 9-9 5.402 0 9 1.53 9 9s-3.598 9-9 9z"/><path d="m10.605 5.001s-1.394-.004-1.946.084c-.439.071-.779.423-.833.864-.014.107-.326 2.666-.326 6.086 0 3.494.55 6.068.574 6.176.102.469.516.788.976.788.07 0 .141-.008.212-.022.54-.117.882-.649.766-1.189-.004-.019-.33-1.551-.468-3.798.357.016.707.019 1.044.019 1.458 0 5.895 0 5.895-4.504s-4.437-4.504-5.895-4.504zm0 7.008c-.399 0-.76-.005-1.105-.024.002-2.161.136-3.987.227-4.982.194-.004.878-.002.878-.002 3.258 0 3.895.918 3.895 2.504s-.637 2.504-3.895 2.504z"/></svg>