<svg id="Layer_1" viewBox="0 0 24 24" xmlns="http://www.w3.org/2000/svg" data-name="Layer 1"><path d="m21.812 2.88c-.093-.329-.347-.588-.674-.687-.161-.049-4.007-1.193-9.139-1.193-5.174 0-8.981 1.146-9.141 1.194-.326.1-.578.358-.671.686-.048.172-1.188 4.272-1.188 9.121s1.14 8.947 1.188 9.12c.093.329.347.588.674.687.161.049 4.007 1.193 9.139 1.193 5.175 0 8.982-1.146 9.142-1.194.326-.1.578-.357.671-.685.048-.173 1.188-4.273 1.188-9.121s-1.14-8.948-1.188-9.12zm-1.788 1.084c.298 1.244.976 4.467.976 8.036 0 2.743-.399 5.276-.719 6.867l-5.678-5.679c1.247-.741 1.897-1.991 1.897-3.684 0-4.504-4.438-4.504-5.896-4.504 0 0-1.394-.004-1.945.084-.438.071-.778.422-.833.864-.002.015-.02.16-.046.416l-2.664-2.664c1.529-.316 3.989-.702 6.884-.702 3.753 0 6.828.665 8.024.964zm-6.919 7.727-3.475-3.475c.033-.48.067-.89.096-1.213.194-.004.878-.002.878-.002 3.258 0 3.896.918 3.896 2.504 0 1.198-.397 1.838-1.394 2.187zm-9.129 8.344c-.299-1.242-.976-4.458-.976-8.035 0-2.744.399-5.276.719-6.868l15.165 15.166c-1.529.316-3.989.702-6.884.702-3.753 0-6.829-.665-8.024-.965z"/><path d="m9.516 12.999c-.017-.552-.468-.989-1.03-.969-.552.017-.986.478-.97 1.03.09 2.971.539 5.065.558 5.153.103.468.517.787.977.787.07 0 .142-.008.213-.023.539-.116.882-.648.766-1.188-.005-.02-.43-2.015-.513-4.789z"/></svg>