<svg id="Layer_1" viewBox="0 0 24 24" xmlns="http://www.w3.org/2000/svg" data-name="Layer 1"><path d="m12 1c-7.402 0-11 3.598-11 11 0 9.859 6.278 11 11 11 5.121 0 11-1.25 11-11s-5.879-11-11-11zm9 11c0 2.814-.511 4.786-1.436 6.15l-4.961-4.961c1.246-.74 1.897-1.991 1.897-3.684 0-4.504-4.437-4.504-5.895-4.504 0 0-1.394-.004-1.946.084-.439.071-.779.423-.834.865-.002.015-.019.16-.046.415l-1.876-1.876c1.442-1.015 3.451-1.489 6.097-1.489 5.402 0 9 1.53 9 9zm-7.894-.308-3.475-3.475c.033-.48.067-.89.096-1.214.194-.004.878-.002.878-.002 3.257 0 3.895.918 3.895 2.504 0 1.199-.397 1.838-1.394 2.187zm-10.106.308c0-2.646.474-4.655 1.489-6.097l13.676 13.676c-1.549 1.093-3.664 1.421-6.165 1.421-5.402 0-9-1.53-9-9z"/><path d="m9.515 12.996c-.017-.552-.495-.998-1.03-.969-.552.017-.986.478-.969 1.03.09 2.972.539 5.067.558 5.155.102.469.516.788.976.788.07 0 .141-.008.212-.023.54-.116.882-.648.766-1.188-.004-.02-.43-2.017-.514-4.792z"/></svg>