<svg id="Layer_1" viewBox="0 0 24 24" xmlns="http://www.w3.org/2000/svg" data-name="Layer 1"><path d="m14.824 5.103c.273-.397.225-.934-.117-1.274-1.929-1.93-3.658-2.828-5.439-2.828s-3.51.898-5.439 2.828c-1.93 1.929-2.828 3.658-2.828 5.439s.898 3.51 2.828 5.439c.346.345.89.39 1.285.108 3.915-2.775 7.182-6.043 9.71-9.713zm-10.166 7.573c-2.373-2.657-2.178-4.672.584-7.434 1.486-1.486 2.756-2.229 4.025-2.229 1.093 0 2.186.551 3.416 1.651-2.164 2.978-4.858 5.667-8.026 8.012zm18.049-3.961c-1.265 1.265-2.486 1.896-3.707 1.896s-2.442-.632-3.707-1.896c-.391-.39-.391-1.023 0-1.414s1.023-.391 1.414 0c1.757 1.757 2.829 1.757 4.586 0 .391-.391 1.023-.391 1.414 0s.391 1.024 0 1.414zm-6 6.578c1.296 1.296 1.9 2.474 1.9 3.707s-.604 2.411-1.9 3.707c-.391.391-1.023.391-1.414 0s-.391-1.023 0-1.414c.884-.885 1.314-1.635 1.314-2.293s-.43-1.408-1.314-2.293c-.391-.391-.391-1.023 0-1.414s1.023-.391 1.414 0zm-6.96-.875c1.955 2.734 1.622 5.438-1.016 8.265-.377.404-1.011.424-1.413.049-.404-.377-.426-1.01-.049-1.414 1.992-2.134 2.238-3.795.851-5.735-.321-.45-.217-1.074.232-1.396.449-.321 1.074-.217 1.395.231zm-5.747 5.582c0 .552-.448 1-1 1s-1-.448-1-1 .448-1 1-1 1 .448 1 1zm19 2c0 .552-.448 1-1 1s-1-.448-1-1 .448-1 1-1 1 .448 1 1zm-9-9c0 .552-.448 1-1 1s-1-.448-1-1 .448-1 1-1 1 .448 1 1zm9 1c0 .552-.448 1-1 1s-1-.448-1-1 .448-1 1-1 1 .448 1 1zm-1-11c0 .552-.448 1-1 1s-1-.448-1-1 .448-1 1-1 1 .448 1 1z"/></svg>