<svg id="Layer_1" viewBox="0 0 24 24" xmlns="http://www.w3.org/2000/svg" data-name="Layer 1"><path d="m14.186 7.293c.885-.885 1.314-1.635 1.314-2.293s-.43-1.408-1.314-2.293c-.391-.39-.391-1.023 0-1.414s1.023-.391 1.414 0c1.297 1.296 1.9 2.474 1.9 3.707s-.604 2.411-1.9 3.707c-.391.391-1.023.391-1.414 0s-.391-1.024 0-1.414zm7.107 4.414c.391.391 1.023.391 1.414 0s.391-1.023 0-1.414c-1.822-1.821-3.592-1.821-5.414 0-.391.391-.391 1.023 0 1.414s1.023.391 1.414 0c1.033-1.033 1.553-1.033 2.586 0zm-3.808 6.167c-4.466 2.481-9.912 4.298-15.336 5.115-.311.046-.632-.056-.856-.282-.225-.225-.329-.542-.282-.856.818-5.425 2.634-10.872 5.115-15.336.267-.479.873-.655 1.354-.391 4.458 2.441 7.956 5.939 10.396 10.396.265.482.09 1.088-.392 1.354zm-1.864-1.269c-2.05-3.415-4.811-6.176-8.227-8.227-.333.641-.646 1.306-.95 1.982 1.989 1.321 3.779 2.876 5.304 4.658.359.42.31 1.051-.109 1.41-.418.357-1.05.312-1.41-.109-1.324-1.547-2.867-2.908-4.575-4.082-1.067 2.712-1.902 5.615-2.437 8.546 4.377-.799 8.704-2.255 12.405-4.178zm-12.621-12.605c0 .552-.448 1-1 1s-1-.448-1-1 .448-1 1-1 1 .448 1 1zm7-2c0 .552-.448 1-1 1s-1-.448-1-1 .448-1 1-1 1 .448 1 1zm12 1c0 .552-.448 1-1 1s-1-.448-1-1 .448-1 1-1 1 .448 1 1zm-4 19c0 .552-.448 1-1 1s-1-.448-1-1 .448-1 1-1 1 .448 1 1zm5-5c0 .552-.448 1-1 1s-1-.448-1-1 .448-1 1-1 1 .448 1 1z"/></svg>