<svg id="Layer_1" viewBox="0 0 24 24" xmlns="http://www.w3.org/2000/svg" data-name="Layer 1"><path d="m20.934 2.905c-.083-.33-.329-.595-.651-.703-.146-.049-3.635-1.202-8.283-1.202-4.688 0-8.141 1.154-8.286 1.203-.32.109-.564.373-.647.701-.043.172-1.066 4.261-1.066 9.096s1.022 8.923 1.066 9.095c.083.33.329.595.651.703.146.049 3.635 1.202 8.283 1.202 4.688 0 8.141-1.154 8.286-1.203.32-.109.564-.373.647-.701.043-.172 1.066-4.261 1.066-9.096s-1.022-8.923-1.066-9.095zm-1.814 17.153c-1.093.303-3.792.941-7.12.941-3.302 0-6.019-.64-7.12-.943-.27-1.25-.88-4.479-.88-8.057s.611-6.812.88-8.059c1.093-.303 3.792-.941 7.12-.941 3.302 0 6.019.64 7.12.943.27 1.25.88 4.479.88 8.057s-.611 6.812-.88 8.059z"/><path d="m12 4c-3.309 0-6 2.691-6 6s2.691 6 6 6 6-2.691 6-6-2.691-6-6-6zm3.873 5h-.916c-.06-.712-.185-1.409-.367-2.046.618.526 1.075 1.237 1.284 2.046zm-4.823 2h1.899c-.158 1.547-.651 2.581-.95 2.919-.299-.338-.792-1.372-.95-2.919zm0-2c.158-1.547.651-2.581.95-2.919.299.338.792 1.372.95 2.919h-1.899zm-1.64-2.046c-.183.637-.307 1.334-.367 2.046h-.916c.209-.809.666-1.52 1.284-2.046zm-1.284 4.046h.916c.06.712.185 1.409.367 2.046-.618-.526-1.075-1.237-1.284-2.046zm6.463 2.046c.183-.637.307-1.334.367-2.046h.916c-.209.809-.666 1.52-1.284 2.046z"/><path d="m16 17h-8c-.552 0-1 .447-1 1s.448 1 1 1h8c.552 0 1-.447 1-1s-.448-1-1-1z"/></svg>