<svg id="Layer_1" viewBox="0 0 24 24" xmlns="http://www.w3.org/2000/svg" data-name="Layer 1"><path d="m5.011 2.534c-.08-.547.299-1.055.845-1.134 1.251-.183 3.333-.4 6.145-.4s4.894.218 6.145.4c.546.079.925.587.845 1.134-.072.497-.5.855-.988.855-.048 0-.097-.003-.146-.011-1.186-.173-3.163-.379-5.855-.379s-4.67.206-5.855.379c-.546.089-1.054-.299-1.134-.845zm3.989 9.466c0-1.99 1.01-3 3-3s3 1.01 3 3-1.01 3-3 3-3-1.01-3-3zm2 0c0 .879.121 1 1 1s1-.121 1-1-.121-1-1-1-1 .121-1 1zm-4-2c.552 0 1-.448 1-1s-.448-1-1-1-1 .448-1 1 .448 1 1 1zm10 0c.552 0 1-.448 1-1s-.448-1-1-1-1 .448-1 1 .448 1 1 1zm6 4.583c0 4.104-1.029 6.694-1.073 6.803-.11.272-.335.482-.613.574-.129.043-3.223 1.04-9.313 1.04s-9.185-.997-9.313-1.04c-.278-.092-.503-.302-.613-.574-.044-.108-1.073-2.699-1.073-6.803 0-1.356.114-2.692.34-3.969.042-.212.151-.397.296-.552.501-.475 1.03-.938 1.562-1.393.183-1.46.43-2.271.446-2.323.104-.334.375-.59.715-.674.111-.027 2.775-.672 7.641-.672s7.529.645 7.641.672c.345.085.619.348.72.689.016.054.252.882.433 2.296.559.477 1.09.95 1.571 1.405.145.155.254.34.296.552.226 1.276.34 2.612.34 3.969zm-17.581-7.085c-.159.749-.402 2.237-.416 4.319 2.822 2.335 5.823 4.275 6.997 5.009 1.174-.734 4.176-2.674 6.997-5.009-.015-2.03-.261-3.548-.422-4.32-.998-.179-3.249-.497-6.575-.497s-5.585.319-6.581.498zm14.807 12.688c.263-.849.774-2.854.774-5.604 0-.599-.024-1.191-.072-1.775-3.859 3.317-8.209 5.928-8.415 6.051-.316.189-.709.189-1.025 0-.206-.123-4.556-2.733-8.415-6.051-.048.584-.072 1.177-.072 1.775 0 2.749.511 4.753.774 5.604 1.033.256 3.792.813 8.226.813s7.191-.558 8.226-.813z"/></svg>