<svg id="Layer_1" viewBox="0 0 24 24" xmlns="http://www.w3.org/2000/svg" data-name="Layer 1"><path d="m13.955 20.956c-.617.027-1.271.044-1.955.044-4.053 0-7.01-.562-8.178-.827-.267-1.134-.822-3.893-.822-7.173 0-1.085.061-2.113.152-3.045.679-.174 4.003-.955 8.848-.955 5.451 0 9.474.962 9.514.972.318.076.655-.005.901-.225.245-.219.367-.543.327-.869-.302-2.461-.762-4.085-.78-4.153-.096-.332-.355-.591-.688-.687-.069-.019-.878-.245-2.274-.48v-1.558c0-.553-.447-1-1-1s-1 .447-1 1v1.278c-1.388-.158-3.069-.278-5-.278s-3.612.12-5 .278v-1.278c0-.553-.447-1-1-1s-1 .447-1 1v1.558c-1.396.236-2.206.461-2.274.48-.332.096-.592.355-.688.688-.042.148-1.038 3.688-1.038 8.274s.996 8.126 1.038 8.274c.096.332.355.592.688.688.148.042 3.698 1.038 9.274 1.038.716 0 1.398-.017 2.045-.046.552-.024.979-.492.954-1.044s-.495-.994-1.044-.954zm-10.133-15.129c1.168-.265 4.125-.827 8.178-.827s7.011.562 8.178.827c.101.427.243 1.084.38 1.91-1.697-.305-4.776-.737-8.558-.737-4.091 0-7.12.521-8.572.836.143-.874.291-1.565.395-2.009zm17.178 15.957v.216c0 .553-.447 1-1 1s-1-.447-1-1v-.13c-1.018-.286-1.876-1.042-2.226-2.04-.182-.521.093-1.092.614-1.274.523-.18 1.092.093 1.274.614.165.474.69.83 1.222.83.615 0 1.115-.506 1.115-1.128.005-.694-.62-1.203-1.296-1.124-1.517-.09-2.704-1.352-2.704-2.871 0-1.231.782-2.276 1.872-2.686v-.191c0-.553.447-1 1-1s1 .447 1 1v.185c.785.291 1.427.912 1.717 1.732.185.521-.088 1.093-.608 1.276-.522.185-1.093-.088-1.276-.608-.124-.35-.456-.585-.827-.585-.483 0-.877.394-.877.877-.001.454.365.861.821.868 1.777 0 3.179 1.403 3.179 3.127 0 1.329-.833 2.459-2 2.912z"/></svg>