<svg id="Layer_1" viewBox="0 0 24 24" xmlns="http://www.w3.org/2000/svg" data-name="Layer 1"><path d="m12 1c-7.71 0-11 3.29-11 11s3.29 11 11 11 11-3.29 11-11-3.29-11-11-11zm9 11c0 1.778-.187 3.243-.578 4.449-2.82-4.062-6.13-6.277-7.422-7.036v-6.388c5.805.249 8 2.762 8 8.975zm-10-8.975v6.387c-1.294.758-4.608 2.968-7.428 7.019-.388-1.203-.572-2.662-.572-4.431 0-6.214 2.195-8.727 8-8.975zm-6.375 15.457c2.147-3.414 4.773-5.581 6.375-6.684v9.178c-3.059-.131-5.115-.894-6.375-2.494zm8.375 2.494v-9.175c1.599 1.106 4.219 3.276 6.364 6.693-1.26 1.591-3.313 2.35-6.364 2.481z"/></svg>