<svg id="Layer_1" viewBox="0 0 24 24" xmlns="http://www.w3.org/2000/svg" data-name="Layer 1"><path d="m22.242 21.03c-.069-.017-.796-.194-2.038-.397.247-1.298.795-4.631.795-8.633 0-5.052-.875-9.049-.913-9.217-.08-.359-.351-.646-.705-.746-.151-.042-3.73-1.037-7.382-1.037s-7.231.995-7.382 1.037c-.355.1-.626.387-.706.746-.038.168-.913 4.165-.913 9.217 0 4.003.548 7.335.795 8.633-1.241.202-1.968.379-2.038.397-.536.134-.861.676-.728 1.212.134.534.676.856 1.212.728.039-.01 3.969-.971 9.758-.971s9.719.961 9.758.971c.522.133 1.08-.189 1.212-.728.133-.536-.192-1.078-.728-1.212zm-16.462-.673c-.218-1.141-.779-4.454-.779-8.358 0-3.722.51-6.909.747-8.186 1.128-.271 3.71-.813 6.253-.813s5.125.543 6.253.813c.237 1.275.747 4.455.747 8.186 0 3.904-.562 7.217-.78 8.358-1.663-.195-3.771-.358-6.22-.358s-4.557.162-6.22.358zm3.22-14.357c0 .552-.448 1-1 1s-1-.448-1-1 .448-1 1-1 1 .448 1 1zm8 0c0 .552-.448 1-1 1s-1-.448-1-1 .448-1 1-1 1 .448 1 1z"/></svg>