<svg id="Layer_1" viewBox="0 0 24 24" xmlns="http://www.w3.org/2000/svg" data-name="Layer 1"><path d="m22.712 7.652c-.387-.394-1.021-.398-1.414-.011-.87.856-1.756 1.69-2.644 2.508l-4.748-4.748c.834-.906 1.686-1.811 2.562-2.7.388-.394.383-1.026-.01-1.415-.393-.387-1.027-.382-1.414.01-1.135 1.152-2.241 2.329-3.302 3.503-4.357.299-4.693.629-4.94.875-6.165 6.167-5.744 15.275-5.731 15.359.157 1.005.937 1.786 1.936 1.942.123.02.354.034.675.034 2.378 0 9.697-.775 14.688-5.767.264-.264.743-.748 1.008-5.042 1.115-1.011 2.231-2.059 3.324-3.134.394-.387.398-1.021.011-1.414zm-18.202 13.307 4.158-4.158c.38.131.823.199 1.331.199 1.991 0 3-1.009 3-3s-1.009-3-3-3-3 1.009-3 3c0 .545.083 1.01.234 1.408l-4.141 4.141c.164-2.476.986-8.217 4.993-12.326.436-.109 1.851-.303 4.349-.462l4.894 4.894c.042 1.828-.324 4.177-.444 4.244-4.131 4.075-9.917 4.899-12.376 5.062zm4.49-6.959c0-.878.122-1 1-1s1 .122 1 1-.122 1-1 1-1-.122-1-1z"/></svg>