<svg id="Layer_1" viewBox="0 0 24 24" xmlns="http://www.w3.org/2000/svg" data-name="Layer 1"><path d="m17.153 6.875c-1.171-1.163-3.071-1.168-4.238-.009l-5.411 5.411c-.871.864-1.381 2.019-1.435 3.25l-.063 1.429c-.038.569.474 1.081 1.042 1.043l1.439-.062c1.235-.054 2.394-.559 3.265-1.422l5.394-5.396c1.13-1.005 1.125-3.23.008-4.245zm-1.4 2.809-5.412 5.414c-.515.51-1.204.809-1.94.841l-.348.015.015-.339c.032-.728.332-1.409.848-1.921l5.412-5.412c.392-.39 1.061-.367 1.438.033.306.278.315 1.084-.013 1.368zm-3.753-8.684c-7.71 0-11 3.29-11 11s3.29 11 11 11 11-3.29 11-11-3.29-11-11-11zm0 20c-6.561 0-9-2.439-9-9s2.439-9 9-9 9 2.439 9 9-2.439 9-9 9z"/></svg>