<svg id="Layer_1" viewBox="0 0 24 24" xmlns="http://www.w3.org/2000/svg" data-name="Layer 1"><path d="m22.837 5.909c.134-.205.188-.452.152-.693-.026-.178-.289-1.766-1.396-2.886-1.127-1.104-2.687-1.304-2.86-1.323-.229-.025-.46.029-.652.154-.12.078-3.002 1.965-8.796 7.739-6.178 6.198-7.661 8.425-7.721 8.517-.088.135-.143.289-.159.449l-.4 4.035c-.029.297.075.591.285.803.188.19.445.296.71.296.03 0 4.087-.369 4.087-.369.167-.016.326-.072.465-.165.093-.062 2.334-1.584 8.507-7.778 5.791-5.772 7.699-8.66 7.777-8.78zm-3.987-2.847c.358.09.927.287 1.333.685.393.397.628.992.745 1.401-.286.392-.866 1.148-1.778 2.224-.237-.5-.571-1.034-1.044-1.498-.471-.462-1.013-.787-1.52-1.018 1.115-.941 1.872-1.511 2.264-1.794zm-13.218 17.603-2.517.229.254-2.567c.466-.632 2.282-2.947 7.331-8.013 1.615-1.61 2.995-2.906 4.149-3.943.432.1 1.271.356 1.856.931.574.563.835 1.361.94 1.787-1.05 1.162-2.361 2.552-3.999 4.185-5.001 5.018-7.365 6.902-8.014 7.391z"/><path d="m4.42 10.333c.197.213.465.32.733.32.244 0 .487-.088.68-.267.405-.375.429-1.008.054-1.413-1.056-1.14-2.191-2.33-2.773-2.937.162-.489.491-1.264 1.075-1.848.596-.595 1.385-.924 1.873-1.083.436.389 1.208 1.083 2.212 2.014l-.87.87c-.391.391-.391 1.023 0 1.414s1.023.391 1.414 0l1.603-1.603c.191-.191.297-.453.293-.724s-.119-.528-.316-.713c-2.048-1.918-3.404-3.105-3.418-3.117-.231-.202-.543-.288-.845-.229-.081.015-1.994.392-3.359 1.757-1.363 1.362-1.742 3.277-1.757 3.358-.061.319.037.648.263.882 0 0 1.649 1.709 3.14 3.318z"/><path d="m19.636 13.604c-.186-.198-.443-.312-.714-.316-.271-.016-.532.101-.724.293l-1.602 1.602c-.391.391-.391 1.024 0 1.414.391.391 1.023.391 1.414 0l.869-.869c.928 1.002 1.624 1.775 2.014 2.211-.159.488-.488 1.279-1.082 1.873-.586.586-1.36.914-1.85 1.075-.533-.509-1.562-1.487-2.932-2.77-.404-.377-1.037-.356-1.413.046-.378.403-.357 1.036.046 1.414 2.042 1.913 3.321 3.142 3.323 3.145.188.181.438.279.693.279.062 0 .125-.006.187-.018.081-.015 1.993-.392 3.359-1.757 1.362-1.362 1.741-3.277 1.757-3.358.058-.303-.027-.615-.23-.847-.012-.014-1.205-1.375-3.116-3.417z"/></svg>