<svg id="Layer_1" viewBox="0 0 24 24" xmlns="http://www.w3.org/2000/svg" data-name="Layer 1"><path d="m21.151 13.866c-1.132-1.132-2.173-1.723-3.242-1.841 2.983-3.254 4.786-5.604 4.885-5.734.166-.216.235-.491.194-.761-.029-.184-.314-1.833-1.5-3.019s-2.834-1.471-3.019-1.5c-.271-.042-.544.027-.761.194-.13.099-2.475 1.898-5.724 4.876-1.441-1.313-2.951-2.634-4.439-3.856-1.483-1.212-3.146-2.042-5.254.067-2.164 2.164-1.242 3.878-.065 5.256 1.21 1.473 2.523 2.975 3.828 4.409-1.977 2.094-4.486 4.849-4.767 5.641l-.018-.002c-.268 2.143-.271 4.312-.271 4.404 0 .552.448 1 1 1 .091 0 2.261-.003 4.404-.271l-.002-.018c.79-.28 3.535-2.778 5.626-4.753.13 1.052.723 2.078 1.838 3.193 1.561 1.562 4.351 1.857 6.243 1.857.982 0 1.722-.08 1.922-.104.458-.055.819-.416.874-.874.07-.586.619-5.793-1.753-8.165zm-2.598-10.781c.409.121 1.052.373 1.521.841s.721 1.113.841 1.521c-.333.42-.944 1.178-1.788 2.172-.228-.535-.567-1.14-1.087-1.66s-1.124-.859-1.66-1.087c.994-.844 1.752-1.455 2.172-1.788zm-14.792 3.18c-1.084-1.27-.97-1.641-.054-2.558.909-.908 1.255-1.011 2.572.065 1.419 1.166 2.858 2.425 4.239 3.679-.658.625-1.339 1.285-2.039 1.985-.017.017-.428.435-1.04 1.07-1.252-1.378-2.509-2.818-3.679-4.242zm2.109 14.514c-1.053.119-2.107.174-2.848.2.025-.741.081-1.795.2-2.848.684-.822 3.253-3.86 6.673-7.28 1.6-1.597 3.138-3.037 4.729-4.448.102.064 1.188.173 2.004.971.797.816.909 1.906.969 2.005-1.234 1.391-2.727 3.008-4.446 4.727-3.42 3.42-6.458 5.989-7.28 6.673zm15.114.205c-1.67.084-4.502-.045-5.704-1.247-.861-.861-1.28-1.59-1.28-2.229s.418-1.367 1.28-2.229 1.59-1.28 2.229-1.28 1.367.418 2.229 1.28c1.202 1.202 1.33 4.038 1.247 5.704z"/></svg>