<svg id="Layer_1" viewBox="0 0 24 24" xmlns="http://www.w3.org/2000/svg" data-name="Layer 1"><path d="m6.261 7h.012c1.895-.011 2.958-1.068 2.994-3.012-.033-1.858-1.151-2.976-3.003-2.988-1.87.011-2.962 1.096-2.997 3.013.036 1.915 1.1 2.976 2.995 2.987z"/><path d="m9.525 8.579c-.056-.023-1.384-.577-3.259-.577-1.892 0-3.208.555-3.263.579-.283.121-.494.366-.573.663-.018.066-.43 1.65-.43 3.756s.413 3.689.43 3.756c.079.298.292.543.575.665.019.008.195.082.495.173v4.406c0 .552.448 1 1 1s1-.448 1-1v-4.031c.243.019.499.031.766.031.256 0 .501-.01.734-.028v4.028c0 .552.448 1 1 1s1-.448 1-1v-4.395c.323-.098.511-.178.531-.186.289-.125.502-.377.576-.683.016-.066.393-1.64.393-3.736s-.376-3.67-.393-3.736c-.075-.308-.291-.562-.582-.685zm-5.271 7.152c-.107-.569-.254-1.562-.254-2.731s.146-2.162.254-2.731c.435-.12 1.144-.267 2.012-.267.856 0 1.564.146 2.002.265.099.575.232 1.567.232 2.733s-.134 2.16-.232 2.735c-.435.12-1.14.265-2.001.265s-1.576-.149-2.012-.269z"/><path d="m17.761 7h.012c1.895-.011 2.958-1.068 2.994-3.012-.033-1.858-1.151-2.976-3.003-2.988-1.87.011-2.962 1.096-2.997 3.013.036 1.915 1.1 2.976 2.995 2.987z"/><path d="m21.607 9.264c-.075-.308-.291-.562-.582-.685-.056-.023-1.384-.577-3.259-.577-1.892 0-3.208.555-3.263.579-.283.121-.494.366-.573.663-.018.066-.43 1.65-.43 3.756s.413 3.689.43 3.756c.079.298.292.543.575.665.019.008.195.082.495.173v4.406c0 .552.448 1 1 1s1-.448 1-1v-4.031c.243.019.499.031.766.031.256 0 .501-.01.734-.028v4.028c0 .552.448 1 1 1s1-.448 1-1v-4.395c.323-.098.511-.178.531-.186.289-.125.502-.377.576-.683.016-.066.393-1.64.393-3.736s-.376-3.67-.393-3.736zm-5.854 6.467c-.107-.569-.254-1.562-.254-2.731s.146-2.162.254-2.731c.435-.12 1.144-.267 2.012-.267.856 0 1.564.146 2.002.265.099.575.232 1.567.232 2.733s-.134 2.16-.232 2.735c-.435.12-1.14.265-2.001.265s-1.576-.149-2.012-.269z"/></svg>