<svg id="Layer_1" viewBox="0 0 24 24" xmlns="http://www.w3.org/2000/svg" data-name="Layer 1"><path d="m3.275 17.039c-.532-.151-1.084.156-1.236.687l-1 3.5c-.152.531.156 1.084.687 1.236.092.026.185.039.275.039.435 0 .835-.287.961-.726l1-3.5c.152-.531-.156-1.084-.687-1.236z"/><circle cx="6.5" cy="3.5" r="2"/><path d="m22.998 13.945c-.019-.352-.207-3.483-.888-5.035-.649-1.479-2.175-2.374-3.793-2.245l-1.093.092c-.286.024-.549.17-.72.401-.022.03-.077.121-.085.136-.247.479-.784 1.337-1.361 1.961-.13-.207-.334-.363-.575-.431-.047-.013-1.169-.325-2.483-.325s-2.436.312-2.483.325c-.241.068-.444.223-.575.429-.535-.577-1.057-1.37-1.363-1.959-.005-.01-.059-.101-.085-.136-.171-.231-.433-.377-.72-.401l-1.093-.092c-1.619-.136-3.144.767-3.792 2.245-.681 1.551-.869 4.683-.888 5.035-.024.452.257.864.688 1.005 3.084 1.008 4.777 4.152 5.333 6.758.1.47.515.792.977.792.069 0 .139-.007.209-.022.54-.115.885-.646.77-1.187-.488-2.286-1.524-4.293-2.926-5.795l1.122-5.226c.389.464.843.913 1.339 1.235-.008.159-.013.325-.013.495 0 1.405.318 2.46.331 2.505.1.325.358.578.686.67.047.013 1.169.325 2.483.325s2.436-.312 2.482-.325c.329-.093.588-.346.687-.673.014-.044.331-1.109.331-2.502 0-.171-.005-.336-.013-.495.496-.322.95-.771 1.339-1.235l1.122 5.226c-1.402 1.502-2.439 3.51-2.927 5.796-.114.54.229 1.071.771 1.187.07.015.14.022.209.022.462 0 .877-.322.978-.792.555-2.606 2.247-5.75 5.332-6.758.431-.141.713-.553.688-1.005zm-18.676.081c-.406-.268-.831-.5-1.271-.694.097-1.099.31-2.799.669-3.618.3-.685 1.001-1.104 1.754-1.059l-1.153 5.371zm9.055-.655c-.718.128-2.039.128-2.755 0-.061-.344-.122-.824-.122-1.372 0-.544.062-1.026.123-1.371.719-.127 2.04-.127 2.755 0 .061.344.122.824.122 1.372 0 .544-.062 1.026-.123 1.371zm6.302.655-1.153-5.37c.734-.04 1.453.375 1.754 1.059.358.817.572 2.518.669 3.618-.439.193-.863.425-1.27.693z"/><path d="m22.962 21.225-1-3.5c-.152-.531-.71-.836-1.236-.687-.531.152-.839.705-.688 1.236l1 3.5c.126.439.526.726.961.726.092 0 .184-.013.275-.039.531-.152.839-.705.688-1.236z"/><circle cx="17.5" cy="3.5" r="2"/></svg>