<svg id="Layer_1" viewBox="0 0 24 24" xmlns="http://www.w3.org/2000/svg" data-name="Layer 1"><path d="m20.863 18.198c.442.331.534.957.203 1.399-1.732 2.321-4.613 3.402-9.066 3.402s-7.334-1.081-9.066-3.402c-.331-.442-.239-1.068.203-1.399.444-.329 1.07-.239 1.399.204 1.323 1.772 3.694 2.598 7.464 2.598s6.141-.825 7.464-2.598c.33-.443.957-.534 1.399-.204zm-16.327-12.6c1.323-1.772 3.694-2.598 7.464-2.598s6.141.825 7.464 2.598c.196.264.497.402.802.402.208 0 .417-.064.597-.198.442-.331.534-.957.203-1.399-1.732-2.321-4.613-3.402-9.066-3.402s-7.334 1.08-9.066 3.401c-.331.442-.239 1.068.203 1.399.444.331 1.07.239 1.399-.204zm12.632 8.848c-.306.46-.182 1.08.277 1.387.454.304 1.078.186 1.387-.277l4-6c.306-.46.182-1.08-.277-1.387-.46-.307-1.08-.183-1.387.277zm.832-4.445c.552 0 1-.448 1-1s-.448-1-1-1-1 .448-1 1 .448 1 1 1zm4 4c-.552 0-1 .448-1 1s.448 1 1 1 1-.448 1-1-.448-1-1-1zm-8.3-6c2.7 0 2.7 2.906 2.7 4s0 4-2.7 4-2.7-2.906-2.7-4 0-4 2.7-4zm0 1.6c-.49 0-1.101 0-1.101 2.4s.61 2.4 1.101 2.4 1.1 0 1.1-2.4-.61-2.4-1.1-2.4zm-6.2-1.6c2.7 0 2.7 2.906 2.7 4s0 4-2.7 4-2.7-2.906-2.7-4 0-4 2.7-4zm0 1.6c-.49 0-1.1 0-1.1 2.4s.61 2.4 1.1 2.4 1.1 0 1.1-2.4-.61-2.4-1.1-2.4zm-3.5 5.601v-6.4c0-.243-.11-.473-.3-.625-.19-.151-.438-.211-.675-.155-1.042.234-1.793.988-2.008 2.018-.09.432.187.855.62.946.292.062.58-.045.764-.254v4.471c0 .441.358.8.8.8s.8-.358.8-.8z"/></svg>