<svg id="Layer_1" viewBox="0 0 24 24" xmlns="http://www.w3.org/2000/svg" data-name="Layer 1"><path d="m20.863 18.199c.442.33.534.957.203 1.399-1.732 2.321-4.613 3.402-9.066 3.402-7.71 0-11-3.29-11-11s3.29-11 11-11c4.454 0 7.334 1.081 9.066 3.402.331.443.239 1.069-.203 1.399-.442.332-1.069.24-1.399-.203-1.323-1.772-3.694-2.598-7.464-2.598-6.561 0-9 2.439-9 9s2.439 9 9 9c3.77 0 6.141-.826 7.464-2.598.33-.442.957-.534 1.399-.203zm-3.695-3.753c-.306.459-.182 1.081.277 1.387.454.304 1.078.186 1.387-.277l4-6c.306-.459.182-1.081-.277-1.387-.46-.308-1.08-.183-1.387.277zm.832-4.445c.552 0 1-.448 1-1s-.448-1-1-1-1 .448-1 1 .448 1 1 1zm4 4c-.552 0-1 .448-1 1s.448 1 1 1 1-.448 1-1-.448-1-1-1zm-8.5-6c2.7 0 2.7 2.906 2.7 4s0 4-2.7 4-2.7-2.906-2.7-4 0-4 2.7-4zm0 1.6c-.49 0-1.1 0-1.1 2.4s.61 2.4 1.1 2.4 1.1 0 1.1-2.4-.61-2.4-1.1-2.4zm-7.401 1.111c.336-.097.716-.151 1.151-.151 1.891 0 2.85.915 2.85 2.72s-.958 2.72-2.85 2.72-2.85-.915-2.85-2.72v-1.28c0-1.094 0-4 2.85-4 1.086 0 1.826.368 1.907.411.392.204.544.687.34 1.079-.203.39-.683.542-1.073.344-.024-.012-.494-.233-1.174-.233-.452 0-.946.012-1.151 1.111zm-.099 2.569c0 .868.164 1.121 1.25 1.121s1.25-.252 1.25-1.121-.164-1.12-1.25-1.12-1.25.252-1.25 1.12z"/></svg>