<svg id="Layer_1" viewBox="0 0 24 24" xmlns="http://www.w3.org/2000/svg" data-name="Layer 1"><path d="m20.862 18.199c.443.33.534.957.204 1.399-1.732 2.321-4.613 3.402-9.066 3.402-7.71 0-11-3.29-11-11s3.29-11 11-11c4.453 0 7.334 1.081 9.066 3.402.33.443.239 1.069-.204 1.399-.44.332-1.069.24-1.399-.203-1.322-1.772-3.694-2.598-7.463-2.598-6.561 0-9 2.439-9 9s2.439 9 9 9c3.769 0 6.141-.826 7.463-2.598.33-.442.959-.534 1.399-.203zm-3.694-3.753c-.307.459-.183 1.081.277 1.387.454.304 1.079.186 1.387-.277l4-6c.307-.459.183-1.081-.277-1.387-.462-.308-1.081-.182-1.387.277zm.832-4.445c.552 0 1-.448 1-1s-.448-1-1-1-1 .448-1 1 .448 1 1 1zm4 4c-.552 0-1 .448-1 1s.448 1 1 1 1-.448 1-1-.448-1-1-1zm-8.7-6c2.7 0 2.7 2.906 2.7 4s0 4-2.7 4-2.7-2.906-2.7-4 0-4 2.7-4zm0 1.6c-.49 0-1.1 0-1.1 2.4s.61 2.4 1.1 2.4 1.101 0 1.101-2.4-.61-2.4-1.101-2.4zm-6.6 4.835c-.51 0-.995-.078-1.442-.23-.422-.145-.874.081-1.016.499-.143.418.081.873.499 1.016.614.209 1.273.315 1.958.315.792 0 3.2 0 3.2-2.567 0-1.047-.366-1.673-.891-2.044.191-.345.291-.767.291-1.258 0-1.437-.875-2.166-2.6-2.166-.813 0-1.389.258-1.729.474-.373.237-.483.731-.246 1.104s.73.482 1.104.246c.132-.084.42-.225.871-.225 1 0 1 .189 1 .566 0 .457-.061.735-.9.735-.442 0-.8.358-.8.8s.358.8.8.8c1.5 0 1.5.344 1.5.967 0 .541 0 .967-1.6.967z"/></svg>