<svg id="Layer_1" viewBox="0 0 24 24" xmlns="http://www.w3.org/2000/svg" data-name="Layer 1"><path d="m20.862 18.199c.443.33.534.957.204 1.399-1.732 2.321-4.613 3.402-9.066 3.402-7.71 0-11-3.29-11-11s3.29-11 11-11c4.453 0 7.334 1.081 9.066 3.402.33.443.239 1.069-.204 1.399-.439.331-1.068.24-1.399-.203-1.322-1.772-3.694-2.598-7.463-2.598-6.561 0-9 2.439-9 9s2.439 9 9 9c3.769 0 6.141-.826 7.463-2.598.331-.443.96-.535 1.399-.203zm-3.694-3.753c-.307.459-.183 1.081.277 1.387.454.304 1.079.186 1.387-.277l4-6c.307-.459.183-1.081-.277-1.387-.462-.308-1.081-.183-1.387.277zm.832-4.445c.552 0 1-.448 1-1s-.448-1-1-1-1 .448-1 1 .448 1 1 1zm4 4c-.552 0-1 .448-1 1s.448 1 1 1 1-.448 1-1-.448-1-1-1zm-8.5-6c2.7 0 2.7 2.906 2.7 4s0 4-2.7 4-2.7-2.906-2.7-4 0-4 2.7-4zm0 1.6c-.49 0-1.101 0-1.101 2.4s.61 2.4 1.101 2.4 1.101 0 1.101-2.4-.61-2.4-1.101-2.4zm-8.589 1.586c-.167-.301-.261-.665-.261-1.106 0-1.38.824-2.08 2.449-2.08s2.45.7 2.45 2.08c0 .441-.094.804-.261 1.106.539.45.811 1.142.811 2.094 0 1.831-.981 2.72-3 2.72s-2.999-.89-2.999-2.72c0-.952.272-1.644.811-2.094zm3.589 2.094c0-.796-.127-1.12-1.4-1.12s-1.399.324-1.399 1.12.127 1.121 1.399 1.121 1.4-.324 1.4-1.121zm-1.4-2.72c.851 0 .851-.131.851-.48s0-.48-.851-.48-.85.131-.85.48 0 .48.85.48z"/></svg>