<svg id="Layer_1" viewBox="0 0 24 24" xmlns="http://www.w3.org/2000/svg" data-name="Layer 1"><path d="m20.862 18.199c.443.33.534.957.204 1.399-1.732 2.321-4.613 3.402-9.066 3.402-7.71 0-11-3.29-11-11s3.29-11 11-11c4.453 0 7.334 1.081 9.066 3.402.33.443.239 1.069-.204 1.399-.439.332-1.068.24-1.399-.203-1.322-1.772-3.694-2.598-7.463-2.598-6.561 0-9 2.439-9 9s2.439 9 9 9c3.769 0 6.141-.826 7.463-2.598.331-.442.96-.534 1.399-.203zm-3.694-3.753c-.307.459-.183 1.081.277 1.387.454.304 1.079.186 1.387-.277l4-6c.307-.459.183-1.081-.277-1.387-.462-.308-1.081-.182-1.387.277zm.832-4.445c.552 0 1-.448 1-1s-.448-1-1-1-1 .448-1 1 .448 1 1 1zm4 4c-.552 0-1 .448-1 1s.448 1 1 1 1-.448 1-1-.448-1-1-1zm-14.034 1.955c.406.145.873-.069 1.02-.49.025-.071.614-1.768.614-3.465 0-1.639-.317-3.284-.331-3.354-.085-.434-.506-.716-.938-.632-.434.084-.716.505-.632.938.002.011.148.781.236 1.748 0 .868-.172 1.033-1.067 1.033s-1.067-.166-1.067-1.021c.017-.699.202-1.764.204-1.775.076-.435-.215-.85-.65-.926-.425-.07-.85.214-.926.65-.009.048-.208 1.193-.228 2.032 0 1.751.897 2.639 2.667 2.639.387 0 .724-.05 1.027-.135-.152.955-.415 1.727-.419 1.737-.146.417.074.874.49 1.02zm5.334-7.955c2.7 0 2.7 2.906 2.7 4s0 4-2.7 4-2.699-2.906-2.699-4 0-4 2.699-4zm0 1.6c-.49 0-1.1 0-1.1 2.4s.609 2.4 1.1 2.4 1.101 0 1.101-2.4-.61-2.4-1.101-2.4z"/></svg>