<svg id="Layer_1" viewBox="0 0 24 24" xmlns="http://www.w3.org/2000/svg" data-name="Layer 1"><path d="m20.863 18.199c.442.33.534.957.203 1.399-1.732 2.321-4.613 3.402-9.066 3.402-7.71 0-11-3.29-11-11s3.29-11 11-11c4.454 0 7.334 1.081 9.066 3.402.331.443.239 1.069-.203 1.399-.442.333-1.069.239-1.399-.203-1.323-1.772-3.694-2.598-7.464-2.598-6.561 0-9 2.439-9 9s2.439 9 9 9c3.77 0 6.141-.826 7.464-2.598.33-.442.957-.534 1.399-.203zm-3.695-3.753c-.306.459-.182 1.081.277 1.387.454.304 1.078.186 1.387-.277l4-6c.306-.459.182-1.081-.277-1.387-.46-.308-1.081-.182-1.387.277zm.832-4.445c.552 0 1-.448 1-1s-.448-1-1-1-1 .448-1 1 .448 1 1 1zm4 4c-.552 0-1 .448-1 1s.448 1 1 1 1-.448 1-1-.448-1-1-1zm-14.6-6.001c-1.912 0-2.438.917-2.524 1.101-.188.4-.039.917.362 1.105.4.188.853.056 1.04-.344.002-.003.236-.262 1.123-.262 1 0 1 .181 1 .48-.004.53-1.333 2.616-3.405 4.299-.243.198-.314.525-.235.829s.363.539.671.593c.781.136 1.137.198 1.966.2.726.002 1.246-.054 1.922-.156.437-.066.737-.474.671-.911s-.47-.738-.911-.671c-.627.096-1.097.144-1.742.138 1.438-1.467 2.662-3.231 2.662-4.32 0-1.38-.875-2.08-2.6-2.08zm5.9 6.4c-.686 0-1.227-.139-1.56-.255-.416-.144-.873.075-1.019.492s.074.873.492 1.019c.654.229 1.356.344 2.087.344 2.017 0 3.039-.908 3.039-2.7 0-1.25-.527-2.74-3.039-2.74-.25 0-.51.011-.768.025-.046-.312-.071-.642-.084-.927.235-.032.527-.058.852-.058.814 0 1.444.063 1.83.116.432.062.841-.247.901-.684s-.246-.841-.684-.901c-.435-.06-1.143-.13-2.047-.13-1.06 0-1.848.221-1.881.231-.336.096-.571.399-.58.749-.001.065-.037 1.607.293 2.68.109.352.446.597.81.563.443-.025.916-.064 1.358-.064 1.342 0 1.439.431 1.439 1.14 0 .682-.07 1.101-1.439 1.101z"/></svg>