<svg id="Layer_1" viewBox="0 0 24 24" xmlns="http://www.w3.org/2000/svg" data-name="Layer 1"><path d="m20.862 18.199c.443.33.534.957.204 1.399-1.732 2.321-4.613 3.402-9.066 3.402-7.71 0-11-3.29-11-11s3.29-11 11-11c4.453 0 7.334 1.081 9.066 3.402.33.443.239 1.069-.204 1.399-.44.332-1.069.24-1.399-.203-1.322-1.772-3.694-2.598-7.463-2.598-6.561 0-9 2.439-9 9s2.439 9 9 9c3.769 0 6.141-.826 7.463-2.598.33-.442.959-.534 1.399-.203zm-3.694-3.753c-.307.459-.183 1.081.277 1.387.454.304 1.079.186 1.387-.277l4-6c.307-.459.183-1.081-.277-1.387-.461-.308-1.081-.182-1.387.277zm.832-4.445c.552 0 1-.448 1-1s-.448-1-1-1-1 .448-1 1 .448 1 1 1zm4 4c-.552 0-1 .448-1 1s.448 1 1 1 1-.448 1-1-.448-1-1-1zm-8.7-6c2.7 0 2.7 2.906 2.7 4s0 4-2.7 4-2.699-2.906-2.699-4 0-4 2.699-4zm0 1.6c-.49 0-1.1 0-1.1 2.4s.609 2.4 1.1 2.4 1.101 0 1.101-2.4-.61-2.4-1.101-2.4zm-6.338 4.801c-.55 0-1.075-.086-1.56-.255-.414-.144-.873.074-1.019.492-.146.417.074.873.491 1.019.654.229 1.356.344 2.087.344 2.016 0 3.038-.908 3.038-2.7 0-1.25-.527-2.74-3.038-2.74-.25 0-.511.011-.769.025-.046-.312-.071-.642-.084-.927.235-.032.527-.058.853-.058.812 0 1.443.063 1.83.116.439.062.842-.247.901-.684.06-.438-.247-.841-.685-.901-.437-.06-1.145-.13-2.047-.13-1.06 0-1.849.221-1.882.23-.336.096-.571.399-.58.75-.002.065-.036 1.608.294 2.681.107.351.443.591.81.563.443-.025.916-.064 1.358-.064 1.342 0 1.438.431 1.438 1.14 0 .682-.069 1.101-1.438 1.101z"/></svg>