<svg id="Layer_1" viewBox="0 0 24 24" xmlns="http://www.w3.org/2000/svg" data-name="Layer 1"><path d="m14.994 6.507c0-3.752-1.748-5.5-5.5-5.5s-5.5 1.747-5.5 5.5 1.748 5.5 5.5 5.5 5.5-1.748 5.5-5.5zm-5.5 3.5c-2.649 0-3.5-.851-3.5-3.5s.851-3.5 3.5-3.5 3.5.851 3.5 3.5-.851 3.5-3.5 3.5zm-.498 4.972c.051.55-.354 1.037-.904 1.087-3.605.331-4.985 1.948-5.092 5.967-.014.543-.459.974-.999.974-.009 0-.018 0-.027 0-.552-.015-.988-.474-.973-1.026.132-4.974 2.327-7.486 6.908-7.906.56-.054 1.037.354 1.087.904zm13.409-1.023c-.11-.348-.436-.602-.831-.65-.103-.012-2.533-.3-4.575-.3s-4.472.288-4.575.3c-.395.047-.72.302-.831.65-.024.077-.595 1.902-.595 4.051s.57 3.974.595 4.05c.11.348.436.602.831.65.103.012 2.533.3 4.575.3s4.472-.288 4.575-.3c.395-.048.72-.302.831-.65.024-.077.595-1.902.595-4.05s-.57-3.974-.595-4.051zm-7.785 5.82c.469 0 .627-.146.728-.304.187-.295.576-.382.871-.194.294.187.381.577.194.871-.375.59-.978.889-1.792.889-2.251 0-2.251-2.281-2.251-3.031s0-3.031 2.251-3.031c.814 0 1.417.299 1.792.889.187.294.101.684-.194.871-.292.188-.684.101-.871-.194-.101-.158-.258-.304-.728-.304-.464 0-.989 0-.989 1.769s.525 1.769.989 1.769zm5.413 1.069c-.116.182-.317.292-.533.292s-.417-.11-.533-.292c-.057-.089-1.386-2.213-1.538-5.105-.018-.348.25-.645.598-.663.352-.003.645.25.663.598.073 1.399.467 2.612.81 3.423.343-.812.737-2.024.81-3.423.018-.349.304-.615.663-.598.348.019.616.315.598.663-.151 2.892-1.481 5.017-1.538 5.105z"/></svg>