<svg id="Layer_1" viewBox="0 0 24 24" xmlns="http://www.w3.org/2000/svg" data-name="Layer 1"><path d="m10 3c0-1.429.571-2 2-2s2 .571 2 2-.571 2-2 2-2-.571-2-2zm7 14.521c-.017.716-.006.69-.002 1.045-.029.442-.346.813-.779.91-.043.01-.534.117-1.219.232v2.293c0 .552-.448 1-1 1s-1-.448-1-1v-2.045c-.337.026-.674.045-1 .045s-.663-.019-1-.045v2.045c0 .552-.448 1-1 1s-1-.448-1-1v-2.293c-.684-.115-1.176-.222-1.219-.232-.433-.097-.75-.467-.779-.91.004-.354.015-.33-.002-1.045-.061-2.883.701-7.692 1.893-9.982.779-1.539 2.532-1.539 3.107-1.539s2.329 0 3.112 1.548c1.187 2.281 1.949 7.09 1.888 9.973zm-3.667-9.06c-.073-.145-.234-.461-1.333-.461s-1.26.316-1.328.452c-1.01 1.943-1.727 6.445-1.672 9.027.001.069.002.136.004.2.772.139 1.979.321 2.996.321s2.225-.182 2.996-.321c.001-.064.002-.131.004-.2.055-2.583-.662-7.084-1.667-9.018z"/></svg>