<svg id="Layer_1" viewBox="0 0 24 24" xmlns="http://www.w3.org/2000/svg" data-name="Layer 1"><path d="m2 3c.026-1.484.873-1.993 2-2 1.123.007 1.975.547 2 2-.028 1.513-.873 1.993-2 2-1.122-.007-1.972-.491-2-2zm1.1 14.003c-.562-.056-1.034.363-1.079.913-.171 2.037-.883 3.6-.908 3.656-.235.499-.022 1.095.477 1.331.489.233 1.095.028 1.332-.477.036-.077.888-1.903 1.092-4.344.047-.55-.362-1.033-.913-1.079zm19.293 2.416c-.076.032-1.872.793-3.786 1.135-.934.167-1.884.233-2.624.258.126 1.519-.809 2.225-1.983 2.187-1.123-.007-1.973-.491-2.001-2 .021-1.152.539-1.712 1.295-1.91-.454-1.203-1.151-3.227-1.585-5.316-.053-.257-.101-.516-.147-.773h-2.546c-.173 0-.342-.044-.492-.129-.53-.299-1.036-.733-1.505-1.23v3.389c.387.2.754.425 1.083.674.12.09.218.207.286.34 1.413 2.753 1.618 5.766 1.626 5.893.035.551-.383 1.025-.934 1.06-.544.037-1.027-.381-1.062-.933-.002-.026-.181-2.578-1.304-4.896-.775-.526-1.981-1.012-3.431-1.378-1.345-.341-2.284-1.538-2.284-2.912v-3.872c0-1.518 1-2.997 3.173-2.997 1.123 0 2.059.729 2.526 1.674.617 1.186 1.602 2.649 2.602 3.318h1.972c-.249-2.15-.272-3.889-.272-3.99-.005-.552.437-1.004.99-1.01h.01c.548 0 .994.441 1 .99 0 .033.041 3.351.668 6.376.461 2.226 1.268 4.434 1.668 5.458.687-.005 1.831-.045 2.919-.24 1.684-.301 3.337-.999 3.353-1.006.507-.217 1.095.021 1.311.528.216.508-.02 1.095-.527 1.311zm-17.373-10.408c0-.537-.413-1.006-.943-1.006-.633 0-1.073.424-1.077 1v3.872c0 .457.318.858.774.973.38.097.805.215 1.246.358z"/></svg>