<svg id="Layer_1" viewBox="0 0 24 24" xmlns="http://www.w3.org/2000/svg" data-name="Layer 1"><path d="m21.895 3.553c-.119-.237-.327-.417-.578-.501-.129-.043-3.225-1.051-9.316-1.051-.889 0-1.757.027-2.6.07-.115-.241-.322-.432-.583-.519-.067-.022-1.673-.551-3.316-.551s-3.249.529-3.316.551c-.359.12-.62.432-.674.807-.021.146-.51 3.64-.51 9.642s.489 9.496.51 9.642c.054.375.314.688.674.807.067.022 1.673.551 3.316.551.776 0 1.539-.119 2.14-.245 1.373.275 2.843.2 4.36.245 6.092 0 9.188-1.008 9.316-1.051.299-.1.533-.334.632-.632.043-.129 1.052-3.224 1.052-9.316 0-6.061-.992-8.221-1.105-8.447zm-18.482 17.164c-.139-1.259-.413-4.318-.413-8.717s.274-7.458.413-8.717c.521-.128 1.312-.283 2.087-.283s1.566.155 2.087.283c.139 1.259.413 4.318.413 8.717s-.274 7.458-.413 8.717c-.521.128-1.312.283-2.087.283s-1.566-.155-2.087-.283zm16.774-.53c-1.062.263-3.807.813-8.188.813-.831 0-1.635-.026-2.423-.066.146-1.315.423-4.411.423-8.934 0-3.628-.179-6.331-.324-7.941.756-.036 1.53-.059 2.324-.059 4.457 0 7.221.57 8.239.826.121.388.3 1.094.454 2.174h-7.693c-.553 0-1 .448-1 1s.447 1 1 1h7.899c.061.86.101 1.846.101 3 0 4.382-.551 7.128-.812 8.187zm-5.188-8.187c0 .552-.447 1-1 1h-1c-.553 0-1-.448-1-1s.447-1 1-1h1c.553 0 1 .448 1 1zm4 0c0 .552-.447 1-1 1h-1c-.553 0-1-.448-1-1s.447-1 1-1h1c.553 0 1 .448 1 1zm-4 3c0 .552-.447 1-1 1h-1c-.553 0-1-.448-1-1s.447-1 1-1h1c.553 0 1 .448 1 1zm4 0c0 .552-.447 1-1 1h-1c-.553 0-1-.448-1-1s.447-1 1-1h1c.553 0 1 .448 1 1zm-4 3c0 .552-.447 1-1 1h-1c-.553 0-1-.448-1-1s.447-1 1-1h1c.553 0 1 .448 1 1zm4 0c0 .552-.447 1-1 1h-1c-.553 0-1-.448-1-1s.447-1 1-1h1c.553 0 1 .448 1 1z"/></svg>