<svg id="Layer_1" viewBox="0 0 24 24" xmlns="http://www.w3.org/2000/svg" data-name="Layer 1"><path d="m21.895 3.553c-.119-.237-.327-.417-.578-.501-.129-.043-3.225-1.051-9.316-1.051-.889 0-1.757.027-2.6.07-.115-.241-.322-.432-.583-.519-.067-.022-1.673-.551-3.316-.551s-3.249.529-3.316.551c-.359.12-.62.432-.674.807-.021.146-.51 3.64-.51 9.642s.489 9.496.51 9.642c.054.375.314.688.674.807.067.022 1.673.552 3.316.552.776 0 1.538-.119 2.139-.246.088.035.176.072.276.081 1.288.109 2.662.165 4.085.165 6.092 0 9.188-1.009 9.316-1.052.299-.099.533-.333.632-.632.043-.129 1.052-3.225 1.052-9.316 0-6.061-.992-8.221-1.105-8.447zm-18.482 17.164c-.139-1.259-.413-4.318-.413-8.717s.274-7.458.413-8.717c.521-.128 1.312-.283 2.087-.283s1.566.155 2.087.283c.139 1.259.413 4.318.413 8.717s-.274 7.458-.413 8.717c-.521.128-1.312.283-2.087.283s-1.566-.155-2.087-.283zm16.775-.53c-1.062.263-3.807.813-8.188.813-.832 0-1.636-.026-2.423-.065.146-1.315.423-4.411.423-8.935 0-3.628-.179-6.331-.324-7.941.756-.036 1.53-.059 2.324-.059 4.457 0 7.221.57 8.239.826.253.812.761 2.965.761 7.174 0 4.383-.551 7.128-.812 8.187zm-2.098-13.861c-.124-.033-1.25-.326-2.59-.326s-2.466.293-2.59.326c-.255.069-.463.278-.551.556-.014.046-.359 1.142-.359 2.618 0 1.431.321 2.497.357 2.614.11.347.369.543.705.598.377-1.236.938-1.712 2.438-1.712s2.053.498 2.434 1.713c.339-.055.599-.249.71-.599.036-.117.357-1.183.357-2.614 0-1.476-.344-2.572-.359-2.618-.089-.278-.296-.487-.551-.556zm-2.591 3.674c-.842-.005-1.48-.369-1.501-1.5.02-1.113.655-1.495 1.501-1.5.842.005 1.482.41 1.501 1.5-.021 1.134-.655 1.495-1.501 1.5zm-.5 7.999c0 .552-.448 1-1 1s-1-.448-1-1 .448-1 1-1 1 .448 1 1zm3.002 0c0 .552-.448 1-1 1s-1-.448-1-1 .448-1 1-1 1 .448 1 1zm-5.003-3c0-.552.448-1 1-1s1 .448 1 1-.448 1-1 1-1-.448-1-1zm3.001 0c0-.552.448-1 1-1s1 .448 1 1-.448 1-1 1-1-.448-1-1z"/></svg>