<svg id="Layer_1" viewBox="0 0 24 24" xmlns="http://www.w3.org/2000/svg" data-name="Layer 1"><path d="m18.25 12.5c-1.432-.005-2.785.659-3.698 1.757-.631-.259-1.966-1.085-2.845-1.964s-1.705-2.213-1.964-2.845c1.098-.913 1.762-2.267 1.757-3.698 0-2.619-2.131-4.75-4.75-4.75-2.826 0-5.75 2.431-5.75 6.5 0 2.373 2.127 7.041 5.293 10.207s7.834 5.293 10.207 5.293c4.068 0 6.5-2.923 6.5-5.75 0-2.619-2.131-4.75-4.75-4.75zm-1.75 8.5c-1.706 0-5.877-1.791-8.793-4.707s-4.707-7.087-4.707-8.793c0-3.278 2.3-4.5 3.75-4.5 1.517 0 2.75 1.233 2.75 2.75.021 1.064-.601 1.86-1.418 2.495-.257.223-.405.547-.418.915-.044 1.233 1.662 3.58 2.629 4.547s3.287 2.649 4.547 2.629c.368-.013.693-.162.916-.418.634-.815 1.431-1.439 2.494-1.417 1.517 0 2.75 1.233 2.75 2.75 0 1.45-1.222 3.75-4.5 3.75zm-1.5-16c0-.552.447-1 1-1h2v-2c0-.552.447-1 1-1s1 .448 1 1v2h2c.553 0 1 .448 1 1s-.447 1-1 1h-2v2c0 .552-.447 1-1 1s-1-.448-1-1v-2h-2c-.553 0-1-.448-1-1z"/></svg>