<svg id="Layer_1" viewBox="0 0 24 24" xmlns="http://www.w3.org/2000/svg" data-name="Layer 1"><path d="m18 14c-.553 0-1 .448-1 1 0 .729-.034 1.394-.086 2.001h-1.972c.034-.619.058-1.272.058-2.001 0-.552-.447-1-1-1s-1 .448-1 1c0 3.022-.361 5-.574 5.908-.764.055-1.579.093-2.426.093-.826 0-1.628-.034-2.375-.086-.231-.881-.625-2.705-.625-4.914 0-3.092.784-5.518.793-5.542.104-.319.042-.671-.167-.934s-.54-.407-.871-.375c-2.327.206-3.972.548-4.041.563-.326.069-.597.295-.722.605-.04.101-.992 2.5-.992 5.684 0 3.209.953 5.587.994 5.687.125.308.395.533.719.602.138.029 3.415.711 7.287.711s7.148-.682 7.286-.711c.328-.069.6-.297.723-.608.041-.102.991-2.537.991-6.681 0-.552-.447-1-1-1zm-14.324-2.434c.418-.073 1.053-.176 1.836-.273-.103.472-.207 1.061-.296 1.708h-1.903c.123-.603.259-1.1.364-1.435zm-.676 4.435c0-.346.017-.677.039-1h1.994c-.016.328-.033.654-.033 1s.017.673.033 1h-1.994c-.023-.323-.039-.654-.039-1zm.675 4.434c-.105-.334-.241-.83-.365-1.434h1.905c.091.651.197 1.239.301 1.708-.787-.098-1.424-.201-1.842-.274zm12.639.001c-.413.072-1.037.172-1.801.268.089-.459.18-1.021.261-1.703h1.875c-.116.623-.24 1.108-.335 1.436z"/><path d="m22.248 2.231c-.115-.316-.383-.552-.71-.629-.104-.024-2.597-.602-5.538-.602s-5.433.578-5.538.602c-.328.077-.597.315-.712.633-.03.084-.75 2.099-.75 4.765 0 2.69.721 4.686.752 4.769.115.316.383.552.71.629.104.024 2.597.602 5.538.602s5.433-.577 5.538-.602c.328-.077.597-.315.712-.633.03-.084.75-2.099.75-4.766 0-2.689-.721-4.685-.752-4.769zm-11.248 4.769c0-1.558.287-2.873.474-3.563.858-.161 2.608-.437 4.526-.437 1.362 0 2.63.138 3.563.276l-2.913 4.006-1.778-.711c-.369-.147-.795-.062-1.078.222l-2.583 2.583c-.115-.659-.21-1.469-.21-2.376zm9.525 3.564c-.855.161-2.601.436-4.525.436-1.257 0-2.434-.118-3.342-.244l2.083-2.083 1.888.755c.42.169.909.03 1.18-.34l3.031-4.168c.092.6.16 1.305.16 2.079 0 1.558-.287 2.874-.475 3.564z"/><circle cx="13.5" cy="5" r="1"/></svg>