<svg id="Layer_1" viewBox="0 0 24 24" xmlns="http://www.w3.org/2000/svg" data-name="Layer 1"><circle cx="13.5" cy="5" r="1"/><path d="m19 11.5c-2.832 0-4.075 1.161-4.207 1.293-.188.188-.293.442-.293.707v4.551c-.162-.033-.329-.051-.5-.051-1.379 0-2.5 1.122-2.5 2.5s1.121 2.5 2.5 2.5 2.5-1.122 2.5-2.5v-6.481c.395-.215 1.187-.519 2.5-.519 1.024 0 1.671.284 2 .484v4.066c-.162-.032-.329-.05-.5-.05-1.379 0-2.5 1.122-2.5 2.5s1.121 2.5 2.5 2.5 2.5-1.136 2.5-2.533v-6.967c0-.25-.094-.491-.263-.676-.125-.136-1.285-1.324-3.737-1.324z"/><path d="m9.5 21c-.604 0-1.21-.024-1.798-.062-.253-.859-.702-2.701-.702-4.938 0-3.077.929-5.627.937-5.652.117-.316.066-.671-.134-.942-.201-.271-.528-.427-.861-.404-2.753.159-4.396.721-4.465.744-.287.1-.514.325-.615.612-.035.1-.862 2.482-.862 5.642 0 3.188.828 5.547.864 5.646.117.329.397.573.74.644.141.029 3.497.711 6.896.711.553 0 1-.448 1-1s-.447-1-1-1zm-6.5-5c0-.346.014-.677.034-1h2.005c-.018.329-.039.656-.039 1 0 .347.019.672.037 1h-2.004c-.019-.322-.033-.653-.033-1zm.585 4.438c-.093-.34-.211-.835-.318-1.438h1.97c.102.661.221 1.258.338 1.733-.835-.104-1.533-.216-1.99-.296zm1.662-7.438h-1.976c.113-.636.239-1.156.333-1.499.419-.107 1.106-.257 2.018-.372-.129.515-.263 1.159-.375 1.871z"/><path d="m16.684 9.949c.377.125.795.016 1.06-.28l3.225-3.583c.021.292.032.599.032.914 0 1.202-.138 2.196-.253 2.818-.101.543.258 1.065.801 1.166.542.097 1.064-.258 1.166-.801.131-.705.286-1.829.286-3.182 0-2.667-.72-4.681-.75-4.766-.115-.318-.383-.556-.712-.633-.104-.024-2.597-.602-5.538-.602s-5.433.577-5.538.602c-.328.077-.597.315-.712.633-.03.084-.75 2.099-.75 4.766 0 1.782.278 3.379.539 4.278.095.327.35.583.675.68.094.028.19.042.286.042.235 0 .467-.083.65-.241l3.07-2.631 2.463.821zm-3.334-2.708-2.207 1.891c-.08-.587-.143-1.31-.143-2.132 0-1.558.287-2.874.475-3.564.855-.161 2.601-.436 4.525-.436s3.669.275 4.525.436c.011.038.021.077.031.118l-3.861 4.291-2.379-.793c-.332-.111-.7-.039-.967.189z"/></svg>