<svg id="Layer_1" viewBox="0 0 24 24" xmlns="http://www.w3.org/2000/svg" data-name="Layer 1"><path d="m18.195 8.062c-.836-.167-1.224-.521-1.339-1.225-.663-4.037-3.085-5.838-7.856-5.838-5.533.001-8 2.469-8 8.001v2c0 7.033.738 10.296.77 10.431.085.368.37.656.737.746.138.033 3.443.823 9.494.823s9.356-.79 9.494-.823c.359-.088.641-.367.732-.727.032-.125.774-3.109.774-7.45 0-3.538-1.392-5.259-4.805-5.938zm-15.195.938c0-4.43 1.57-6 6-6 4.33 0 5.46 1.593 5.882 4.162.176 1.075.827 2.444 2.922 2.861 2.479.493 3.195 1.386 3.195 3.977 0 .237-.006.462-.011.69-1.323-.244-4.377-.69-8.989-.69-4.541 0-7.566.433-8.922.679-.047-1.084-.078-2.301-.078-3.679v-2zm9 12c-4.32 0-7.203-.424-8.397-.642-.11-.665-.277-1.891-.408-3.666.375-.072.98-.175 1.805-.282v1.589c0 .553.448 1 1 1s1-.447 1-1v-1.799c.607-.051 1.271-.097 2-.131v1.93c0 .553.448 1 1 1s1-.447 1-1v-1.992c.325-.005.657-.008 1-.008s.675.003 1 .008v1.992c0 .553.448 1 1 1s1-.447 1-1v-1.93c.729.034 1.393.08 2 .131v1.799c0 .553.448 1 1 1s1-.447 1-1v-1.589c.888.114 1.528.227 1.894.298-.127 1.66-.339 2.945-.477 3.646-1.183.216-4.073.645-8.417.645z"/></svg>