<svg id="Layer_1" viewBox="0 0 24 24" xmlns="http://www.w3.org/2000/svg" data-name="Layer 1"><path d="m13.432 16.384c-.065-.016-1.629-.384-2.932-.384s-2.866.369-2.932.384c-.354.084-.634.354-.731.703-.014.049-.337 1.218-.337 2.413s.323 2.363.337 2.413c.098.35.378.619.731.703.066.016 1.629.384 2.932.384s2.866-.369 2.932-.384c.354-.084.634-.354.731-.703.014-.049.337-1.218.337-2.413s-.323-2.363-.337-2.413c-.098-.35-.378-.619-.731-.703zm-2.432 3.616h-1c-.552 0-1-.448-1-1s.448-1 1-1h1c.552 0 1 .448 1 1s-.448 1-1 1zm11.116-9.993c-.576-.067-1.676-.266-2.178-.511-.429-.208-.947-.085-1.236.295-1.462 1.933-3.408 3.014-5.695 3.208-.761-.004-.989-.229-1.007-.965.001-.747.236-1.043 1.007-1.035 1.814-.012 2.962-1.155 2.994-3.018-.032-1.828-1.18-2.971-3.007-2.982-1.842.011-2.961 1.126-2.995 3l.002 3.974c-.006.767-.223 1.032-.995 1.026-.767-.004-.993-.233-1.007-1l-.006-.871c-.027-2.602-.05-4.85 1.962-6.672 1.045-.946 2.375-1.422 4.065-1.457s3.248-.02 7.869.494c.542.066 1.044-.334 1.104-.883.061-.549-.335-1.043-.884-1.104-4.733-.526-6.419-.54-8.131-.506h-2.877c-6.113 0-8.468 1.69-8.697 1.869-1.481 1.094-1.729 2.655-.641 4.203.293.386.633.699 1 .935-.138.248-.22.413-.231.437-.923 1.594-.529 3.124 1.085 4.111.541.304 1.104.453 1.652.453.288 0 .568-.056.841-.137.313 1.351 1.323 2.121 2.896 2.13.828-.005 1.503-.221 2.001-.625.51.403 1.208.618 2.076.622 2.677-.223 4.993-1.399 6.742-3.415.902.271 1.916.395 2.06.412.559.07 1.044-.329 1.108-.877.063-.548-.329-1.045-.877-1.109zm-18.738-4.114c-.445-.635-.396-.965.222-1.422.014-.01.97-.686 3.287-1.118-1.31.944-2.313 2.044-3.024 2.985-.173-.105-.34-.254-.485-.445zm1.252 4.938c-.662-.405-.748-.728-.33-1.456.012-.026.725-1.48 2.135-2.966-.426 1.416-.456 2.884-.447 4.273-.39.377-.852.434-1.359.149zm7.369-2.812c.014-.775.249-1.014.995-1.018.74.005.995.262 1.007.982-.013.756-.267 1.013-1.006 1.018-.36.002-.693.046-.996.131z"/></svg>