<svg id="Layer_1" viewBox="0 0 24 24" xmlns="http://www.w3.org/2000/svg" data-name="Layer 1"><path d="m16 13c-.552 0-1-.448-1-1s.448-1 1-1 1 .448 1 1-.448 1-1 1zm6.8-1.436c-.117-.438-.497-.726-.95-.749-.016-.13-.031-.266-.048-.391-.297-2.216-1.766-4.018-3.732-4.774.036-.818.011-1.474-.079-1.871-.101-.441-.483-.761-.936-.779-.494-.018-2.349.558-3.431 2.516-.344.62.09 1.423.797 1.48.546.042 1.504.214 2.079.287 1.714.214 3.079 1.614 3.318 3.408.033.242.064.493.093.753.117 1.032.117 2.078 0 3.112-.028.258-.06.508-.093.752-.231 1.732-1.501 3.086-3.157 3.369-.48.082-.832.498-.832.985 0 .544-.063.936-.121 1.18-.269.075-.683.156-1.209.156-.549 0-.976-.089-1.256-.171-.025-.162-.05-.427-.05-.839.023-.553-.496-.997-1.014-1l-.61.01c-.919 0-1.827-.027-2.699-.08-.549-.044-1.076.437-1.061.998 0 .455-.028.742-.055.913-.267.078-.698.169-1.256.169-.507 0-.909-.075-1.177-.146-.063-.353-.152-1.029-.221-2.26-.015-.278-.146-.537-.361-.715-.87-.719-1.438-1.655-1.561-2.572-.033-.241-.064-.491-.093-.752-.117-1.031-.117-2.078 0-3.112.028-.257.06-.508.093-.753.083-.623.308-1.223.65-1.735.336-.477.146-1.196-.379-1.448-.279-.141-.452-.718-.452-1.506 0-.552-.447-1-1-1s-1 .448-1 1c0 1.277.32 2.094.73 2.617-.268.568-.448 1.18-.532 1.805-.035.259-.068.527-.099.799-.133 1.181-.133 2.378 0 3.556.03.275.063.543.099.799.174 1.298.854 2.544 1.933 3.55.167 2.566.438 2.924.572 3.101.092.121.21.22.346.288.099.05 1.005.486 2.451.486s2.353-.437 2.363-.447c.572-.223.805-.853.895-1.587.49.019.987.029 1.487.033.085.696.297 1.316.804 1.515.099.05 1.005.486 2.451.486s2.353-.437 2.451-.486c.184-.093.335-.241.432-.423.061-.114.314-.643.41-1.636 1.931-.619 3.392-2.225 3.88-4.25.562-.027.971-.237 1.127-.77.021-.077.2-.788.2-1.936s-.18-1.859-.2-1.936zm-17.8-5.564h2v2c0 .552.447 1 1 1s1-.448 1-1v-2h2c.553 0 1-.448 1-1s-.447-1-1-1h-2v-2c0-.552-.447-1-1-1s-1 .448-1 1v2h-2c-.553 0-1 .448-1 1s.447 1 1 1z"/></svg>