<svg id="Layer_1" viewBox="0 0 24 24" xmlns="http://www.w3.org/2000/svg" data-name="Layer 1"><path d="m11 12c0-.552.448-1 1-1s1 .448 1 1-.448 1-1 1-1-.448-1-1zm11.969 2.029c-.108 3.708-.472 7.219-.476 7.253-.046.449-.389.811-.834.884-.21.034-5.187.833-9.66.833s-9.451-.8-9.66-.833c-.446-.073-.788-.435-.834-.884-.003-.035-.366-3.546-.475-7.253-.007-.256.083-.505.254-.696 1.654-1.85 3.616-3.503 5.84-4.921-.045-1.133-.088-2.339-.124-3.575-.007-.255.083-.504.254-.695 1.938-2.169 4.304-3.046 4.404-3.082.221-.08.463-.08.684 0 .1.037 2.465.913 4.404 3.082.17.191.261.44.254.695-.036 1.236-.079 2.441-.125 3.575 2.224 1.418 4.187 3.071 5.84 4.921.171.191.262.44.255.696zm-15.957-3.126c.129 4.376.265 8.303.32 9.857.537.049 1.096.092 1.667.13v-2.89c0-1.991 1.009-3 3-3s3 1.009 3 3v2.89c.572-.037 1.131-.081 1.668-.13.055-1.555.19-5.482.319-9.857-.535-.381-1.085-.748-1.656-1.098-.31-.189-.493-.532-.478-.895.048-1.167.095-2.424.135-3.721-1.133-1.16-2.395-1.829-2.988-2.104-.592.274-1.855.943-2.988 2.104.04 1.296.086 2.553.135 3.721.015.363-.167.706-.478.895-.571.349-1.122.717-1.657 1.098zm-3.591 9.403c.463.066 1.129.154 1.902.245-.053-1.508-.158-4.574-.266-8.101-.711.614-1.393 1.25-2.015 1.923.084 2.459.274 4.775.379 5.933zm8.579.694c.33 0 .665-.008 1-.016v-2.984c0-.878-.121-1-1-1s-1 .122-1 1v2.984c.335.009.67.016 1 .016zm8.957-6.627c-.622-.674-1.304-1.309-2.015-1.923-.108 3.527-.213 6.593-.266 8.101.773-.091 1.44-.179 1.903-.245.104-1.157.294-3.473.378-5.933z"/></svg>