<svg id="Layer_1" viewBox="0 0 24 24" xmlns="http://www.w3.org/2000/svg" data-name="Layer 1"><path d="m19.137 12.235c1.37-4.341 1.837-8.445 1.856-8.625.032-.283-.059-.565-.249-.777-.189-.212-.46-.333-.745-.333h-2.3c-1.374 0-2.67.677-3.467 1.81-2.589 3.684-4.146 5.118-4.63 5.52-1.758-.21-3.636-.33-5.603-.33-2.716 0-3 0-3 1.003 0 .565.491 1.027 1.038 1 .183-.002 1.616 0 1.962-.002 9.87 0 15.577 2.868 16.829 4-1.251 1.132-6.958 4-16.829 4-.348 0-1.78 0-1.962-.002-.547-.016-1.038.435-1.038 1 0 1.003.284 1.003 3 1.003 10.841 0 19-3.64 19-6 0-.985-1.42-2.192-3.863-3.265zm-3.268-6.775c.423-.602 1.107-.96 1.831-.96h1.153c-.224 1.471-.712 4.208-1.586 7.011-1.493-.51-3.232-.963-5.164-1.309.88-.931 2.133-2.419 3.765-4.742z"/><path d="m12 16.5c.552 0 1-.448 1-1s-.448-1-1-1h-3.5c-.552 0-1 .448-1 1s.448 1 1 1z"/></svg>