<svg id="Layer_1" viewBox="0 0 24 24" xmlns="http://www.w3.org/2000/svg" data-name="Layer 1"><path d="m22.783 16.501c-.613-1.199-2.263-1.425-3.631-1.486-2.757-.13-4.668.55-6.152 2.195v-2.246c4.136-.291 6-2.47 6-6.963 0-4.841-2.159-7-7-7s-7 2.158-7 6.999c0 4.493 1.864 6.672 6 6.963v2.273c-1.487-1.663-3.401-2.346-6.177-2.221-1.368.062-3.017.287-3.63 1.486-.573 1.122.102 2.383.661 3.234 1.487 2.268 3.406 3.265 6.344 3.265 1.229.049 3.093-.379 3.791-.603.697.224 2.563.652 3.791.603 2.938 0 4.857-.998 6.344-3.265.559-.852 1.234-2.112.661-3.234zm-5.783-8.501c0 3.38-1.039 4.732-4 4.96v-.686c1.033-.437 1.759-1.461 1.759-2.65 0-1.52-1.188-2.781-2.703-2.872-.365.054-.696-.24-.694-.617 0-.35.285-.635.635-.635.246 0 .401.132.472.211.37.413 1.002.447 1.412.08.412-.368.447-1 .08-1.412-.267-.298-.598-.523-.96-.672v-.667c2.961.229 4 1.58 4 4.96zm-10 0c0-3.38 1.039-4.732 4-4.96v.659c-.96.394-1.639 1.336-1.639 2.436 0 1.453 1.182 2.634 2.635 2.634.429.01.763.427.763.854 0 .483-.393.876-.876.876-.371 0-.704-.235-.828-.584-.183-.52-.757-.794-1.275-.609-.521.184-.794.755-.609 1.276.304.859.992 1.507 1.83 1.778v.599c-2.961-.229-4-1.58-4-4.96zm1.739 12.987c-2.595.111-4.015-.52-5.215-2.35-.599-.912-.55-1.221-.555-1.221.011-.014.295-.33 1.943-.404 2.6-.112 4.015.521 5.215 2.35.266.404.473.887.62 1.298-.578.143-1.335.297-2.009.327zm11.711-2.349c-1.199 1.828-2.608 2.466-5.215 2.349-.673-.03-1.43-.185-2.009-.327.148-.411.355-.894.621-1.299 1.199-1.83 2.619-2.465 5.215-2.349 1.643.074 1.93.389 1.936.389.002.012.055.318-.548 1.237z"/></svg>