<svg id="Layer_1" viewBox="0 0 24 24" xmlns="http://www.w3.org/2000/svg" data-name="Layer 1"><path d="m22.332 9.731c-1.086-1.085-2.964-.753-4.283-.41-3.016.787-4.88 2.276-5.991 4.803-1.111-2.527-2.975-4.016-5.991-4.803-1.318-.343-3.197-.675-4.283.41-1.086 1.086-.754 2.964-.41 4.283.963 3.691 2.948 5.676 6.64 6.64 1.033.269 2.194.335 3.026.343v1.042c0 .552.447 1 1 1s1-.448 1-1v-1.041c.834-.006 2.016-.07 3.063-.344 3.691-.963 5.677-2.949 6.64-6.64.344-1.318.676-3.197-.41-4.283zm-19.023 3.778c-.487-1.868-.179-2.296-.111-2.363.531-.318 1.358-.123 2.363.111 3.012.786 4.423 2.197 5.209 5.208.17.653.25 1.38.287 2.001-.01.19-.017.366-.021.531-.712-.008-1.692-.064-2.518-.28-3.013-.786-4.424-2.197-5.209-5.209zm17.498 0c-.785 3.012-2.196 4.423-5.208 5.209-.828.216-1.807.272-2.519.28-.004-.165-.011-.34-.021-.531.037-.621.117-1.348.287-2.001.786-3.011 2.197-4.423 5.209-5.208 1.003-.234 1.835-.429 2.363-.111.067.067.376.495-.111 2.363zm-12.349-7.473c-.442-.332-.532-.958-.2-1.4.908-1.212 1.984-2.289 3.199-3.2.355-.267.846-.267 1.201 0 1.215.912 2.291 1.988 3.199 3.2.332.442.242 1.068-.2 1.4-.437.329-1.067.244-1.399-.201-.367-.489-.773-.945-1.2-1.382v4.547c0 .552-.447 1-1 1s-1-.448-1-1v-4.547c-.427.436-.833.893-1.2 1.382-.331.442-.957.533-1.399.201z"/></svg>