<svg id="Layer_1" viewBox="0 0 24 24" xmlns="http://www.w3.org/2000/svg" data-name="Layer 1"><path d="m16.104 15.991c3.967-.136 6.896-1.806 6.896-3.991s-2.929-3.855-6.896-3.991c-.23-.339-.466-.711-.71-1.097-.29-.457-.594-.938-.92-1.412h1.525v.5c0 .552.447 1 1 1s1-.448 1-1v-3c0-.552-.447-1-1-1s-1 .448-1 1v.5h-3.167c-.923-.883-2.008-1.5-3.333-1.5-.511 0-.957.271-1.226.744-.116.204-.197.461-.248.756h-1.026c-.553 0-1 .448-1 1s.447 1 1 1h1.012c.106 1.023.342 2.115.609 3h-2.209c-1.157-1.054-2.882-1.689-4.033-1.444-.649.137-1.133.548-1.327 1.126-.034.103-.052.21-.052.318v7c0 .107.018.213.051.314.192.581.677.992 1.329 1.13 1.165.244 2.885-.391 4.034-1.444h2.204c-.27.883-.512 1.975-.619 3h-1c-.553 0-1 .448-1 1s.447 1 1 1h1.02c.053.293.136.55.254.757.27.472.716.743 1.226.743 1.326 0 2.411-.617 3.334-1.5h3.166v.5c0 .552.447 1 1 1s1-.448 1-1v-3c0-.552-.447-1-1-1s-1 .448-1 1v.5h-1.524c.326-.474.63-.955.92-1.413.243-.385.479-.757.709-1.096zm-1.329-1.584c-.354.48-.702 1.029-1.07 1.611-1.075 1.699-2.282 3.605-3.76 3.933-.112-1.119.435-3.994.995-4.941.184-.309.187-.692.009-1.004-.179-.312-.51-.505-.869-.505h-4.08c-.283 0-.553.12-.742.33-.677.749-1.743 1.136-2.258 1.171v-6c.513.037 1.579.427 2.262 1.174.189.208.457.326.738.326h4.08c.359 0 .691-.193.869-.506s.174-.697-.01-1.006c-.545-.915-1.096-3.818-.991-4.938 1.477.33 2.682 2.234 3.757 3.932.368.582.716 1.131 1.07 1.611.188.256.487.407.805.407 3.559 0 5.42 1.302 5.42 2s-1.861 2-5.42 2c-.317 0-.616.151-.805.407z"/></svg>