<svg id="Layer_1" viewBox="0 0 24 24" xmlns="http://www.w3.org/2000/svg" data-name="Layer 1"><path d="m21.964 2.028c-2.215-2.218-5.286-.436-7.447 1.162-.769-.122-1.601-.19-2.517-.19-6.225 0-9 2.775-9 9 0 .916.068 1.749.19 2.518-1.593 2.158-3.374 5.221-1.154 7.438.709.709 1.521 1.036 2.435 1.036 1.425 0 3.095-.802 4.989-2.186.775.125 1.615.194 2.541.194 6.225 0 9-2.775 9-9 0-.924-.069-1.763-.194-2.538.529-.718.966-1.383 1.294-1.989 1.237-2.285 1.191-4.117-.137-5.445zm-9.964 2.972c3.977 0 5.973 1.093 6.684 3.948-1.12 1.42-2.653 3.103-4.639 5.089s-3.672 3.525-5.093 4.648c-2.859-.71-3.952-2.706-3.952-6.685 0-5.168 1.832-7 7-7zm-8.55 15.542c-.303-.303-1.027-1.041.469-3.527.653 1.399 1.665 2.411 3.064 3.065-1.69 1.02-2.838 1.157-3.533.462zm15.55-8.542c0 5.168-1.832 7-7 7-.102 0-.195-.005-.294-.007 1.181-1.029 2.432-2.22 3.753-3.542 1.393-1.393 2.558-2.63 3.534-3.748.001.101.007.194.007.297zm1.342-5.479c-.078.144-.175.299-.267.452-.654-1.394-1.665-2.404-3.062-3.055 2.495-1.504 3.235-.778 3.537-.476.283.283.947.947-.208 3.079z"/></svg>