<svg id="Layer_1" viewBox="0 0 24 24" xmlns="http://www.w3.org/2000/svg" data-name="Layer 1"><path d="m5.04 17.126c.037-.494.109-1.129.248-1.732 6.228-.884 13.635-.895 13.712-.895.477 0 .887-.337.98-.804.021-.106.52-2.644.52-6.696v-2.735c.244.268.482.544.7.835.196.263.497.4.801.4.208 0 .419-.065.599-.2.442-.331.531-.958.2-1.399-.768-1.023-1.676-1.933-2.7-2.7-.355-.268-.845-.268-1.2 0-1.024.768-1.932 1.677-2.7 2.7-.332.441-.242 1.068.2 1.399.444.331 1.069.243 1.4-.2.219-.291.456-.566.7-.835v2.735c0 2.554-.211 4.49-.353 5.507-2.247.029-8.467.185-13.799 1.005-.371.057-.678.316-.797.672-.33.992-.461 2.146-.514 2.925-1.345.296-2.037 1.258-2.037 2.892 0 1.99 1.009 3 3 3s3-1.01 3-3c0-1.602-.666-2.558-1.96-2.874zm-1.04 3.874c-.878 0-1-.121-1-1s.122-1 1-1 1 .121 1 1-.122 1-1 1zm18.707.293c.391.391.391 1.023 0 1.414-.195.195-.451.293-.707.293s-.512-.098-.707-.293l-1.293-1.293-1.293 1.293c-.195.195-.451.293-.707.293s-.512-.098-.707-.293c-.391-.391-.391-1.023 0-1.414l1.293-1.293-1.293-1.293c-.391-.391-.391-1.023 0-1.414s1.023-.391 1.414 0l1.293 1.293 1.293-1.293c.391-.391 1.023-.391 1.414 0s.391 1.023 0 1.414l-1.293 1.293zm-21.414-16 1.293-1.293-1.293-1.293c-.391-.391-.391-1.023 0-1.414s1.023-.391 1.414 0l1.293 1.293 1.293-1.293c.391-.391 1.023-.391 1.414 0s.391 1.023 0 1.414l-1.293 1.293 1.293 1.293c.391.391.391 1.023 0 1.414-.195.195-.451.293-.707.293s-.512-.098-.707-.293l-1.293-1.293-1.293 1.293c-.195.195-.451.293-.707.293s-.512-.098-.707-.293c-.391-.391-.391-1.023 0-1.414zm8 4 1.293-1.293-1.293-1.293c-.391-.391-.391-1.023 0-1.414s1.023-.391 1.414 0l1.293 1.293 1.293-1.293c.391-.391 1.023-.391 1.414 0s.391 1.023 0 1.414l-1.293 1.293 1.293 1.293c.391.391.391 1.023 0 1.414-.195.195-.451.293-.707.293s-.512-.098-.707-.293l-1.293-1.293-1.293 1.293c-.195.195-.451.293-.707.293s-.512-.098-.707-.293c-.391-.391-.391-1.023 0-1.414z"/></svg>