<svg id="Layer_1" viewBox="0 0 24 24" xmlns="http://www.w3.org/2000/svg" data-name="Layer 1"><path d="m14.996 21.824c.05.55-.355 1.037-.905 1.087-.651.059-1.354.089-2.091.089-7.71 0-11-3.29-11-11 0-7.147 2.91-10.525 9.435-10.952.556-.041 1.027.381 1.063.933.036.551-.382 1.027-.933 1.063-5.515.36-7.565 2.788-7.565 8.956 0 6.561 2.439 9 9 9 .676 0 1.318-.027 1.909-.082.55-.043 1.037.355 1.087.905zm-4.818-14.681c.543-.098.904-.619.806-1.162s-.619-.905-1.162-.806c-4.322.783-4.822 4.27-4.822 6.825 0 4.841 2.159 7 7 7 .817 0 1.53-.057 2.178-.175.543-.099.904-.619.806-1.162s-.619-.904-1.162-.806c-.522.095-1.135.143-1.822.143-3.738 0-5-1.262-5-5 0-3.554 1.271-4.512 3.178-4.857zm12.822-.143c0-2.583-.572-5.116-.596-5.223-.123-.538-.661-.873-1.197-.752-.539.123-.875.659-.753 1.197.005.024.546 2.426.546 4.778 0 1.918-.503 2.715-2 2.929v-7.929c0-.552-.448-1-1-1s-1 .448-1 1v7.929c-1.497-.214-2-1.011-2-2.929 0-2.352.541-4.753.546-4.778.123-.538-.214-1.074-.753-1.197-.538-.121-1.074.214-1.197.752-.024.106-.596 2.64-.596 5.223 0 3.054 1.285 4.637 4 4.937v10.063c0 .552.448 1 1 1s1-.448 1-1v-10.063c2.715-.3 4-1.883 4-4.937z"/></svg>