<svg id="Layer_1" viewBox="0 0 24 24" xmlns="http://www.w3.org/2000/svg" data-name="Layer 1"><path d="m16.632 4.072c-.512.203-.763.784-.562 1.297.009.023.93 2.414.93 6.631s-.92 6.608-.929 6.628c-.205.513.053 1.372.928 1.372.397 0 .772-.238.929-.629.043-.109 1.071-2.732 1.071-7.372s-1.028-7.262-1.071-7.372c-.205-.512-.783-.76-1.297-.557z"/><path d="m21.929 4.628c-.205-.512-.783-.76-1.297-.557-.512.203-.763.784-.562 1.297.009.023.93 2.414.93 6.631s-.92 6.608-.929 6.628c-.205.513.053 1.372.928 1.372.397 0 .772-.238.929-.629.043-.109 1.071-2.732 1.071-7.372s-1.028-7.262-1.071-7.372z"/><path d="m15.261 11.397c-.703-.999-4.54-6.074-10.994-7.861-.417-.115-.86.049-1.1.41-.088.133-2.167 3.315-2.167 8.054s2.08 7.923 2.169 8.056c.188.282.503.444.831.444.086 0 .173-.011.259-.034 6.842-1.833 10.864-7.657 11.032-7.904.24-.353.229-.819-.026-1.161l-.003-.004zm-10.784 6.918c-.533-1.042-1.477-3.315-1.477-6.315 0-2.965.946-5.255 1.479-6.31 4.592 1.52 7.593 4.849 8.735 6.306-1.084 1.361-4.201 4.84-8.737 6.319z"/></svg>