<svg id="Layer_1" viewBox="0 0 24 24" xmlns="http://www.w3.org/2000/svg" data-name="Layer 1"><path d="m12 1c-7.71 0-11 3.29-11 11 0 6.974 2.683 10.361 8.697 10.984.102.01.204.016.306.016.734 0 1.45-.273 2.002-.771.632-.57.995-1.385.995-2.234v-2.018c2.723-.305 4.001-1.907 4.001-4.975 0-.107-.002-.353-.006-.622h.006c.484 0 .909-.352.987-.845.085-.545-.288-1.057-.833-1.143-.705-.111-1.426-.198-2.155-.261v-3.131c0-.552-.447-1-1-1s-1 .448-1 1v3.016c-.666-.019-1.334-.019-2 0v-3.016c0-.552-.448-1-1-1s-1 .448-1 1v3.131c-.729.064-1.45.151-2.155.261-.546.085-.919.597-.833 1.143.076.485.491.834.962.845-.004.258-.006.492-.006.597 0 3.079 1.288 4.682 4.032 4.978v2.04c0 .288-.119.554-.334.749-.211.19-.479.283-.762.25-4.968-.514-6.904-3.036-6.904-8.994 0-6.561 2.439-9 9-9s9 2.439 9 9c0 5.238-1.516 7.736-5.232 8.623-.537.128-.868.668-.74 1.205s.671.868 1.205.74c4.681-1.117 6.768-4.376 6.768-10.568 0-7.71-3.29-11-11-11zm-3.032 11.978c0-.135.003-.505.009-.836 1.979-.185 4.036-.186 6.014-.003.006.341.009.727.009.863 0 2.232-.692 2.998-3.01 2.998-2.234-.022-3.023-.739-3.023-3.022z"/></svg>