<svg id="Layer_1" viewBox="0 0 24 24" xmlns="http://www.w3.org/2000/svg" data-name="Layer 1"><path d="m9 14v8c0 .553-.448 1-1 1s-1-.447-1-1v-7.039c-3.469-.289-5.031-2.17-5.031-5.992 0-.079.004-.837.013-1.514-.477-.008-.894-.356-.97-.845-.085-.546.288-1.058.833-1.143.707-.111 1.427-.201 2.155-.272v-3.195c0-.552.448-1 1-1s1 .448 1 1v3.05c1.329-.064 2.671-.064 4 0v-3.05c0-.552.448-1 1-1s1 .448 1 1v3.196c.728.071 1.448.162 2.155.272.545.085.918.597.833 1.143-.076.488-.493.837-.97.844.009.677.013 1.435.013 1.514 0 .552-.448 1-1 1s-1-.448-1-1c0-.282-.007-1.148-.017-1.762-2.634-.273-5.392-.273-8.027 0-.01.614-.017 1.481-.017 1.762 0 3.051.979 4.031 4.031 4.031.552 0 1 .447 1 1zm10.642 1.364c-.423-.355-1.055-.299-1.409.124-.526.629-1.107 1.21-1.733 1.735-.276-.231-.543-.475-.801-.727-.395-.386-1.027-.38-1.414.016-.387.395-.38 1.027.015 1.414.503.492 1.041.954 1.6 1.373.178.134.389.2.6.2s.422-.066.6-.2c.98-.734 1.878-1.585 2.667-2.526.354-.424.299-1.055-.125-1.409zm3.358 1.636c0 4.149-1.851 6-6 6s-6-1.851-6-6 1.851-6 6-6 6 1.851 6 6zm-2 0c0-3.028-.972-4-4-4s-4 .972-4 4 .972 4 4 4 4-.972 4-4z"/></svg>