<svg id="Layer_1" viewBox="0 0 24 24" xmlns="http://www.w3.org/2000/svg" data-name="Layer 1"><path d="m22.155 7.772c-1.681-.263-3.407-.457-5.155-.585v-5.187c0-.553-.447-1-1-1s-1 .447-1 1v5.075c-1.995-.087-4.005-.087-6 0v-5.075c0-.553-.447-1-1-1s-1 .447-1 1v5.188c-1.748.128-3.475.321-5.155.585-.545.086-.918.598-.833 1.144.086.545.588.918 1.144.833.285-.045.577-.077.864-.117-.013.552-.019 1.127-.019 1.368 0 5.881 2.482 8.68 8.006 8.971 0 .01-.006.019-.006.029v2c0 .553.447 1 1 1s1-.447 1-1v-2c0-.01-.005-.019-.006-.029 5.524-.291 8.006-3.09 8.006-8.971 0-.241-.007-.816-.019-1.368.287.041.58.073.864.117.534.086 1.06-.284 1.144-.833.085-.546-.288-1.058-.833-1.144zm-3.155 3.228c0 5.168-1.832 7-7 7s-7-1.832-7-7c0-.355.011-1.063.027-1.622 4.572-.491 9.375-.491 13.947 0 .016.559.027 1.266.027 1.622z"/></svg>