<svg id="Layer_1" viewBox="0 0 24 24" xmlns="http://www.w3.org/2000/svg" data-name="Layer 1"><path d="m9 14v8c0 .552-.448 1-1 1s-1-.448-1-1v-7.04c-3.469-.289-5.031-2.17-5.031-5.991 0-.079.004-.837.013-1.513-.476-.007-.894-.357-.97-.845-.085-.546.288-1.058.833-1.143.707-.111 1.427-.201 2.155-.272v-3.196c0-.552.448-1 1-1s1 .448 1 1v3.05c1.329-.064 2.671-.064 4 0v-3.05c0-.552.448-1 1-1s1 .448 1 1v3.196c.728.071 1.447.162 2.154.272.546.085.919.597.834 1.143-.076.488-.493.837-.971.844.009.655.014 1.387.014 1.514 0 .552-.447 1-1 1s-1-.448-1-1c0-.273-.008-1.144-.018-1.762-2.635-.273-5.393-.273-8.027 0-.01.614-.017 1.481-.017 1.762 0 3.051.979 4.031 4.031 4.031.552 0 1 .448 1 1zm14 3c0 4.149-1.851 6-6 6s-6-1.851-6-6 1.851-6 6-6 6 1.851 6 6zm-2 0c0-3.028-.972-4-4-4s-4 .972-4 4 .972 4 4 4 4-.972 4-4zm-4-3c-.553 0-1 .448-1 1v1c0 .552.447 1 1 1s1-.448 1-1v-1c0-.552-.447-1-1-1zm0 4c-.552 0-1 .448-1 1s.448 1 1 1 1-.448 1-1-.448-1-1-1z"/></svg>