<svg id="Layer_1" viewBox="0 0 24 24" xmlns="http://www.w3.org/2000/svg" data-name="Layer 1"><path d="m9 14v8c0 .552-.448 1-1 1s-1-.448-1-1v-7.04c-3.469-.289-5.031-2.17-5.031-5.991 0-.079.004-.836.013-1.513-.478-.007-.894-.357-.97-.845-.085-.546.288-1.058.833-1.143.707-.111 1.427-.201 2.155-.272v-3.196c0-.552.448-1 1-1s1 .448 1 1v3.05c1.329-.064 2.671-.064 4 0v-3.05c0-.552.448-1 1-1s1 .448 1 1v3.196c.728.071 1.448.162 2.155.272.545.085.918.597.833 1.143-.076.488-.493.837-.97.844.009.677.013 1.435.013 1.514 0 .552-.448 1-1 1s-1-.448-1-1c0-.282-.007-1.148-.017-1.762-2.634-.273-5.392-.273-8.027 0-.01.614-.017 1.481-.017 1.762 0 3.051.979 4.031 4.031 4.031.552 0 1 .448 1 1zm14 3c0 4.149-1.851 6-6 6s-6-1.851-6-6 1.851-6 6-6 6 1.851 6 6zm-7.75 3.838c.654-.659 1.564-1.792 2.007-2.838h-1.757c-.552 0-1-.448-1-1 0-1.611.825-3.011 1.591-3.965-2.317.198-3.091 1.263-3.091 3.965 0 2.344.583 3.455 2.25 3.838zm5.75-3.838c0-2.344-.583-3.456-2.25-3.838-.14.178-1.501 1.153-2.081 2.838h1.832c.552 0 1 .448 1 1 0 1.43-.931 2.945-1.723 3.975 2.42-.169 3.223-1.223 3.223-3.975z"/></svg>