<svg id="Layer_1" viewBox="0 0 24 24" xmlns="http://www.w3.org/2000/svg" data-name="Layer 1"><path d="m19.978 22.208c-.113.543-.66.886-1.186.77-.022-.005-2.315-.478-6.792-.478s-6.77.473-6.792.478c-.534.11-1.07-.23-1.186-.77-.114-.54.229-1.07.768-1.186.1-.021 2.491-.522 7.21-.522s7.11.501 7.21.522c.539.116.882.646.768 1.186zm-14.77-11.73c.021-.005 1.99-.402 5.792-.465v5.987c0 .552.447 1 1 1s1-.448 1-1v-5.987c3.802.064 5.771.461 5.792.465.526.116 1.072-.227 1.186-.77.114-.54-.229-1.07-.768-1.186-.092-.019-2.17-.444-6.21-.509v-6.013c0-.552-.447-1-1-1s-1 .448-1 1v6.013c-4.04.065-6.118.49-6.21.509-.539.116-.882.646-.768 1.186.115.54.651.881 1.186.77z"/></svg>