<svg id="Layer_1" viewBox="0 0 24 24" xmlns="http://www.w3.org/2000/svg" data-name="Layer 1"><path d="m16 11c.553 0 1 .447 1 1s-.447 1-1 1h-3v3c0 .553-.447 1-1 1s-1-.447-1-1v-3h-3c-.553 0-1-.447-1-1s.447-1 1-1h3v-3c0-.553.447-1 1-1s1 .447 1 1v3zm6.949 1.314c-1.202 3.632-2.905 6.687-5.206 9.341-.146.167-.342.281-.56.325-.105.021-2.62.52-5.184.52s-5.078-.498-5.184-.52c-.218-.044-.414-.158-.56-.325-2.301-2.654-4.004-5.709-5.206-9.341-.067-.204-.067-.425 0-.629 1.202-3.632 2.905-6.687 5.206-9.341.146-.167.342-.281.56-.325.105-.021 2.62-.52 5.184-.52s5.078.498 5.184.52c.218.044.414.158.56.325 2.301 2.654 4.004 5.709 5.206 9.341.067.204.067.425 0 .629zm-2.005-.314c-1.069-3.118-2.54-5.769-4.486-8.08-.743-.13-2.615-.42-4.458-.42s-3.716.29-4.458.419c-1.946 2.312-3.417 4.963-4.486 8.081 1.069 3.118 2.54 5.769 4.486 8.08.743.13 2.615.42 4.458.42s3.716-.29 4.458-.419c1.946-2.312 3.417-4.963 4.486-8.081z"/></svg>