<svg id="Layer_1" viewBox="0 0 24 24" xmlns="http://www.w3.org/2000/svg"><path d="m6.372 5.001c-.16 0-.418-.007-.57 0-.292.016-.522.239-.559.52-.056.251-.242 1.18-.242 2.478 0 1.496.247 2.502.258 2.544.079.324.414.516.727.437.321-.08.517-.405.438-.727-.002-.006-.109-.451-.174-1.175 2.252.049 2.861-1.124 2.83-2.096 0-1.972-1.964-1.979-2.707-1.982zm1.506 1.982c-.041.478-.231.968-1.677.895.007-.718.076-1.303.135-1.677 1.469-.013 1.568.394 1.542.782zm5.744-1.487c.007.042.178 1.028.178 2.504s-.171 2.462-.178 2.504c-.045.256-.249.453-.506.49-.253.037-.509-.096-.623-.329l-1.393-2.828c-.018 1.219.151 2.5.159 2.46.057.326-.162.637-.488.694-.324.055-.637-.161-.694-.487-.007-.041-.178-1.028-.178-2.503s.17-2.462.178-2.503c.045-.256.249-.454.506-.49.265-.041.509.096.623.329l1.393 2.829c.018-1.213-.152-2.507-.159-2.46-.057-.326.161-.637.487-.694.327-.053.637.16.694.487zm5.436 2.692c.114.124.171.29.157.458-.133 1.562-.871 2.354-2.194 2.354-2.22 0-2.22-2.258-2.22-3s0-3 2.22-3c.974 0 1.635.427 1.964 1.269.121.309-.031.657-.34.777-.307.123-.656-.031-.777-.34-.125-.32-.305-.506-.847-.506-.455 0-1.02 0-1.02 1.8s.565 1.8 1.02 1.8c.387 0 .709-.054.883-.602l-.4.002h-.002c-.33 0-.599-.267-.6-.598s.266-.601.598-.603l1.117-.005c.168 0 .329.07.443.193zm2.919-5.402c-.083-.381-.381-.679-.762-.762-.19-.042-4.713-1.023-9.214-1.023s-9.025.98-9.215 1.022c-.381.083-.679.381-.762.762-.042.19-1.023 4.713-1.023 9.214s.981 9.024 1.023 9.214c.083.381.381.679.762.762.19.042 4.713 1.023 9.214 1.023 1.348 0 2.838-.09 4.428-.267.226-.025.436-.126.597-.287l5.422-5.422c.161-.161.262-.371.287-.597.177-1.59.267-3.08.267-4.428 0-4.501-.981-9.024-1.023-9.214zm-5.316 17.196c.007-1.283.088-2.219.158-2.79.639-.079 1.661-.176 2.82-.188zm4.19-4.959c-2.659-.117-4.972.28-5.08.299-.399.07-.716.374-.803.77-.016.072-.356 1.702-.295 4.788-.937.072-1.844.121-2.673.121-3.327 0-6.765-.584-8.151-.849-.265-1.386-.849-4.824-.849-8.151s.584-6.765.849-8.151c1.386-.265 4.824-.849 8.151-.849s6.765.584 8.151.849c.265 1.386.849 4.824.849 8.151 0 .932-.059 1.956-.149 3.023z"/></svg>