<svg id="Layer_1" viewBox="0 0 24 24" xmlns="http://www.w3.org/2000/svg" data-name="Layer 1"><path d="m22.78 17.916c-.1-.414-.451-.72-.876-.761-.064-.006-1.601-.155-2.904-.155-.879 0-1.948.067-2.578.112-.133-1.214-.393-2.101-.409-2.151-.147-.467-.521-.695-1.014-.734v-6.285c.804-.542 2.634-1.974 3.895-4.495.247-.494.047-1.095-.447-1.342-.494-.248-1.094-.047-1.342.447-1.026 2.053-2.527 3.249-3.169 3.694-.464-.106-1.217-.247-1.937-.247s-1.472.141-1.936.246c-.645-.446-2.145-1.642-3.17-3.693-.248-.495-.847-.695-1.342-.447s-.694.848-.447 1.342c1.26 2.52 3.09 3.953 3.895 4.495v6.286c-.492.04-.867.268-1.014.734-.011.035-.144.497-.269 1.191-.547-.066-1.417-.153-2.217-.153-1.676 0-3.426.369-3.499.384-.401.085-.71.407-.778.812-.009.054-.223 1.33-.223 2.354 0 .954.088 1.86.229 2.367.109.395.449.682.857.725.137.015 3.435.358 9.913.358s9.812-.346 9.951-.36c.374-.04.694-.286.828-.638.184-.478.221-1.146.221-2.002 0-1.155-.211-2.046-.22-2.084zm-9.78-9.818v1.902h-2v-1.902c.31-.054.665-.098 1-.098s.69.045 1 .098zm-2 3.902h2v2.03c-.32-.017-.654-.03-1-.03s-.68.012-1 .03zm-8 7.55c0-.429.049-.935.098-1.333.604-.098 1.527-.217 2.402-.217.713 0 1.519.083 2.01.144-.003.11-.01.218-.01.331 0 .966.067 1.844.131 2.467-2.201-.062-3.74-.158-4.578-.223-.03-.311-.053-.708-.053-1.168zm6.647 1.432c-.064-.567-.147-1.497-.147-2.508 0-.924.141-1.782.255-2.33 1.094-.132 3.396-.132 4.49 0 .114.548.255 1.405.255 2.33 0 1.011-.083 1.941-.147 2.508-.737.011-1.509.018-2.353.018s-1.617-.008-2.353-.018zm11.338-.267c-.844.065-2.398.163-4.615.225.049-.482.101-1.114.121-1.827.587-.043 1.664-.113 2.51-.113.66 0 1.405.043 1.947.083.029.259.053.574.053.917 0 .302-.006.535-.016.715zm-10.985-17.715c0-1.429.571-2 2-2s2 .571 2 2-.571 2-2 2-2-.571-2-2z"/></svg>