<svg id="Layer_1" viewBox="0 0 24 24" xmlns="http://www.w3.org/2000/svg" data-name="Layer 1"><path d="m21.312 5.47c-.084-.358-.36-.642-.716-.736 0 0-.076-.02-.201-.05-.187-1.141-.35-1.845-.366-1.913-.084-.359-.36-.642-.717-.737-.159-.042-3.948-1.033-7.812-1.033s-7.652.99-7.812 1.032c-.357.095-.633.378-.717.737-.04.168-.971 4.172-.971 9.23s.932 9.062.971 9.23c.084.359.36.642.717.737.159.042 3.948 1.033 7.812 1.033s7.652-.991 7.812-1.033c.357-.095.633-.378.717-.737.016-.068.179-.773.366-1.913.125-.03.201-.05.201-.05.356-.095.632-.378.716-.736.028-.119.688-2.955.688-6.53s-.66-6.411-.688-6.53zm-9.812 15.53c-2.741 0-5.522-.556-6.707-.825-.251-1.275-.793-4.458-.793-8.175s.542-6.9.793-8.175c1.185-.269 3.966-.825 6.707-.825s5.522.556 6.707.825c.466 2.52.77 4.877.793 8.175-.023 3.298-.327 5.656-.793 8.175-1.185.269-3.966.825-6.707.825zm5.5-3c0 .552-.448 1-1 1h-1c-.552 0-1-.448-1-1s.448-1 1-1h1c.552 0 1 .448 1 1zm0-4c0 .552-.448 1-1 1h-1c-.552 0-1-.448-1-1s.448-1 1-1h1c.552 0 1 .448 1 1zm-4 4c0 .552-.448 1-1 1h-1c-.552 0-1-.448-1-1s.448-1 1-1h1c.552 0 1 .448 1 1zm0-4c0 .552-.448 1-1 1h-1c-.552 0-1-.448-1-1s.448-1 1-1h1c.552 0 1 .448 1 1zm-4 4c0 .552-.448 1-1 1h-1c-.552 0-1-.448-1-1s.448-1 1-1h1c.552 0 1 .448 1 1zm0-4c0 .552-.448 1-1 1h-1c-.552 0-1-.448-1-1s.448-1 1-1h1c.552 0 1 .448 1 1zm7-9h-9c-.552 0-1 .448-1 1v4c0 .552.448 1 1 1h9c.552 0 1-.448 1-1v-4c0-.552-.448-1-1-1zm-1 4h-7v-2h7z"/></svg>