<svg id="Layer_1" viewBox="0 0 24 24" xmlns="http://www.w3.org/2000/svg" data-name="Layer 1"><path d="m12.646 8.684c-.105-.028-2.6-.684-5.146-.684s-5.041.656-5.146.684c-.357.095-.632.378-.717.737-.026.111-.638 2.751-.638 6.079s.612 5.968.638 6.079c.084.359.36.643.717.737.105.028 2.6.684 5.146.684s5.041-.656 5.146-.684c.357-.095.632-.378.717-.737.026-.111.638-2.751.638-6.079s-.612-5.968-.638-6.079c-.084-.359-.36-.643-.717-.737zm-1.109 11.839c-.841.182-2.452.477-4.036.477s-3.195-.295-4.037-.477c-.171-.924-.463-2.822-.463-5.023s.292-4.097.464-5.023c.841-.182 2.452-.477 4.036-.477s3.195.295 4.037.477c.171.924.463 2.822.463 5.023s-.292 4.097-.464 5.023zm-.536-3.523c0 .552-.448 1-1 1h-1c-.552 0-1-.448-1-1s.448-1 1-1h1c.552 0 1 .448 1 1zm-4 0c0 .552-.448 1-1 1h-1c-.552 0-1-.448-1-1s.448-1 1-1h1c.552 0 1 .448 1 1zm4-4c0 .552-.448 1-1 1h-5.001c-.552 0-1-.448-1-1s.448-1 1-1h5c.552 0 1 .448 1 1zm12-5.5c0 2.256-.252 6.906-.266 7.082-.01.199-.079.39-.198.549-.234.312-.479.597-.73.848-.553.552-1.03.846-1.083.878-.315.19-.709.192-1.026.003-.004.014-.764-.502-1.21-.993-.447.491-1.206 1.007-1.21.993-.16.095-.336.14-.509.14-.341 0-.674-.175-.861-.49-.282-.475-.125-1.088.35-1.37 0 0 .338-.208.717-.586.408-.408.69-.809.693-.813.187-.268.494-.427.82-.427.326 0 .633.159.82.426-.043-.036.58.751.896 1.004.195-.176.374-.365.551-.581.056-1.06.247-4.895.247-6.769 0-3.283-1.17-4.395-4.5-4.395-3.143 0-4.009 1.08-4.343 2.702-.112.541-.642.889-1.181.778-.541-.111-.889-.64-.778-1.181.199-.964.547-1.715.994-2.298h-1.692c-3.143 0-4.009 1.08-4.343 2.702-.109.545-.654.89-1.181.778-.541-.111-.889-.64-.778-1.181.792-3.853 3.975-4.299 6.3-4.299h7c4.495 0 6.5 2.005 6.5 6.5z"/></svg>