<svg id="Layer_1" viewBox="0 0 24 24" xmlns="http://www.w3.org/2000/svg" data-name="Layer 1"><path d="m22.194 21.047c-.069-.014-.66-.129-1.59-.276.151-1.301.396-3.988.396-7.771 0-5.385-.504-7.632-.525-7.725-.063-.271-.236-.505-.479-.643-.139-.08-3.231-1.826-6.996-2.49v-.142c0-.552-.448-1-1-1s-1 .448-1 1v.142c-3.765.664-6.857 2.41-6.996 2.49-.242.138-.416.372-.479.643-.021.093-.525 2.34-.525 7.725 0 3.783.245 6.47.396 7.771-.93.147-1.521.262-1.59.276-.542.107-.894.633-.787 1.175.107.541.631.897 1.175.787.05-.01 5.028-.981 9.806-.981s9.756.971 9.806.981c.528.108 1.07-.242 1.175-.787.107-.542-.246-1.068-.787-1.175zm-10.194-17.039c2.281.305 4.393 1.123 5.69 1.711-1.291.133-3.27.281-5.69.281s-4.396-.148-5.69-.281c1.298-.588 3.409-1.406 5.69-1.711zm-6.622 16.481c-.144-1.264-.378-3.878-.378-7.489 0-2.449.108-4.21.221-5.39 1.222.152 3.632.39 6.779.39s5.557-.238 6.779-.39c.113 1.18.221 2.941.221 5.39 0 3.611-.235 6.225-.378 7.489-1.865-.238-4.243-.461-6.622-.461s-4.757.223-6.622.461zm1.622-8.489v-1c0-.552.448-1 1-1s1 .448 1 1v1c0 .552-.448 1-1 1s-1-.448-1-1zm6-1v1c0 .552-.448 1-1 1s-1-.448-1-1v-1c0-.552.448-1 1-1s1 .448 1 1zm4 0v1c0 .552-.448 1-1 1s-1-.448-1-1v-1c0-.552.448-1 1-1s1 .448 1 1zm-6.124 3.886c.013.057.124.577.124 1.114s-.111 1.057-.124 1.114c-.083.381-.381.679-.762.762-.057.013-.577.124-1.114.124s-1.057-.111-1.114-.124c-.381-.083-.679-.381-.762-.762-.013-.057-.124-.577-.124-1.114s.111-1.057.124-1.114c.083-.381.381-.679.762-.762.057-.013.577-.124 1.114-.124s1.057.111 1.114.124c.381.083.679.381.762.762z"/></svg>