<svg id="Layer_1" viewBox="0 0 24 24" xmlns="http://www.w3.org/2000/svg" data-name="Layer 1"><path d="m21.977 2.786c-.083-.381-.381-.679-.762-.762-.19-.042-4.713-1.023-9.214-1.023s-9.025.98-9.215 1.022c-.381.083-.679.381-.762.762-.042.19-1.023 4.713-1.023 9.214s.981 9.024 1.023 9.214c.083.381.381.679.762.762.19.042 4.713 1.023 9.214 1.023s9.024-.981 9.214-1.023c.381-.083.679-.381.762-.762.042-.19 1.023-4.713 1.023-9.214s-.981-9.024-1.023-9.214zm-1.826 17.365c-1.386.265-4.824.849-8.151.849s-6.765-.584-8.151-.849c-.265-1.386-.849-4.824-.849-8.151s.584-6.765.849-8.151c1.386-.265 4.824-.849 8.151-.849s6.765.584 8.151.849c.265 1.386.849 4.824.849 8.151s-.584 6.765-.849 8.151zm-15.151-10.151c0-.552.448-1 1-1h9c.552 0 1 .448 1 1s-.448 1-1 1h-9c-.552 0-1-.448-1-1zm14 4c0 .552-.448 1-1 1h-12c-.552 0-1-.448-1-1s.448-1 1-1h12c.552 0 1 .448 1 1zm-8 4c0 .552-.448 1-1 1h-3.5c-.552 0-1-.448-1-1s.448-1 1-1h3.5c.552 0 1 .448 1 1zm-5.5-12c0-.552.448-1 1-1h5.5c.552 0 1 .448 1 1s-.448 1-1 1h-5.5c-.552 0-1-.448-1-1z"/></svg>