<svg id="Layer_1" viewBox="0 0 24 24" xmlns="http://www.w3.org/2000/svg" data-name="Layer 1"><path d="m12.76 23c-1.712-.003-3.185-.226-5.047-.738-1.416-.394-2.719-1.156-3.769-2.206s-1.812-2.354-2.206-3.769c-.4-1.442-.631-2.739-.705-3.965-.218-3.66.645-6.514 2.563-8.483 3.598-3.385 7.381-3.754 10.152-1.022 1.332 1.332 1.996 4.522.017 6.502l-.446.436c-.392.423-.337.544.022.904.454.454.541.502.995.049.063-.07.419-.41.497-.473.891-.862 2.094-1.295 3.393-1.218 1.145.067 2.256.535 2.971 1.25 2.727 2.763 2.35 6.539-1.003 10.105-1.799 1.754-4.289 2.628-7.433 2.628zm-3.21-19.995c-1.795 0-3.496 1.267-4.552 2.26-1.478 1.52-2.151 3.863-1.968 6.938.066 1.083.273 2.245.636 3.55.301 1.083.887 2.083 1.694 2.89.806.807 1.805 1.392 2.889 1.692 1.307.363 2.469.571 3.551.637 3.069.181 5.417-.49 6.968-2 1.477-1.571 3.616-4.655 1.011-7.295-.705-.706-2.497-1.062-3.58.021-.031.031-.493.476-.493.476-1.221 1.188-2.557 1.119-3.777-.101-.624-.623-.927-1.241-.927-1.891s.303-1.267.927-1.89l.456-.419c1.083-1.085.587-3.006-.045-3.638-.904-.893-1.859-1.231-2.788-1.231z"/></svg>