<svg id="Layer_1" viewBox="0 0 24 24" xmlns="http://www.w3.org/2000/svg" data-name="Layer 1"><path d="m16.051 4.001c.026-1.484.873-1.993 2-2 1.123.007 1.975.547 2 2-.028 1.513-.873 1.993-2 2-1.122-.007-1.972-.491-2-2zm6.944 8.021c-.052.551-.553.953-1.094.897-.642-.063-1.999-.272-2.666-.455-.21-.058-.396-.182-.528-.355-.011-.014-.085-.112-.199-.269-.695 1.458-1.782 2.879-2.401 3.63 1.574.841 2.571 1.78 2.627 1.834.194.187.306.444.308.714.015 1.992-.761 3.761-1.095 4.429-.248.499-.858.691-1.342.447-.494-.247-.694-.848-.447-1.342.191-.382.773-1.651.87-3.082-.568-.464-1.845-1.4-3.473-1.934-1.435-.47-2.016-1.311-2.25-1.934-.328-.872-.197-1.877.368-2.831.621-1.057 1.167-1.673 1.752-2.663-.709.048-1.177.1-1.444.136-1.251 1.33-1.557 2.138-1.565 2.158-.223.505-.813.734-1.318.512s-.735-.812-.514-1.317c.042-.097.559-1.389 2.217-3.006.137-.134.31-.226.498-.264.055-.011 1.379-.274 4.968-.329 1.031-.047 2.061.614 2.532 1.53.429.849.991 1.668 1.288 2.082.609.13 1.551.271 2.011.316.549.054.951.543.896 1.093zm-6.162-2.82c-.148-.131-.35-.223-.536-.202-.2.003-.381.008-.566.012-.813 1.745-1.459 2.311-2.337 3.78-.145.244-.365.713-.217 1.107.146.386.624.614 1.001.737.003.001.006.002.009.003.28-.318 2.322-2.682 2.865-4.541.101-.345.018-.689-.219-.897zm-6.729 8.377c-.383.192-1.32.42-3.604.42h-.825c-.498 0-.92.366-.99.859-.272 1.917-.663 2.139-.685 2.141-.301 0-1-.877-1-9 0-7.664.687-8.847 1.018-9 .295.153.982 1.336.982 9 0 1.095-.012 2.083-.038 2.971-.016.552.418 1.013.971 1.028.538.035 1.012-.418 1.028-.971.026-.905.039-1.912.039-3.029 0-7.453-.449-11-3-11s-3 3.549-3 11.002c0 7.757.417 11 3 11 1.669 0 2.27-1.745 2.522-3 1.503 0 3.362-.075 4.476-.631.494-.247.694-.848.447-1.342-.248-.494-.846-.694-1.342-.447z"/></svg>