<svg id="Layer_1" viewBox="0 0 24 24" xmlns="http://www.w3.org/2000/svg" data-name="Layer 1"><path d="m22.896 20.556c-.009-.018-.896-1.854-.896-4.556 0-4.83-.483-10.328-6.26-14.443-.652-.466-1.448-.645-2.237-.516-.57.096-1.084.352-1.503.73-.419-.378-.934-.634-1.503-.73-.789-.127-1.585.051-2.237.516-5.778 4.115-6.261 9.613-6.261 14.443 0 2.688-.878 4.519-.896 4.556-.245.493-.045 1.092.448 1.339.484.244 1.093.052 1.342-.447.045-.091 1.105-2.248 1.105-5.447 0-5.527.906-9.599 5.42-12.814.219-.155.483-.214.746-.172.531.078.921.625.82 1.152-.044.263-.188.493-.406.648-4.235 3.018-4.58 6.852-4.58 11.186 0 .553.447 1 1 1s1-.447 1-1c0-1.657.074-3.052.307-4.269.152-.417.47-.715.929-.732.431-.023.769.297.917.664.009.019.847 1.912.847 4.337 0 3.491-1.643 5.227-1.707 5.293-.391.391-.391 1.023 0 1.414.195.195.451.293.707.293s.512-.098.707-.293c.05-.05.698-.735 1.293-2.008.595 1.273 1.243 1.958 1.293 2.008.194.194.448.292.703.292.253 0 .507-.097.703-.289.391-.386.396-1.018.014-1.411-.07-.072-1.713-1.808-1.713-5.299 0-2.425.838-4.318.863-4.375.133-.328.447-.653.903-.626.451.017.777.32.927.731.233 1.217.307 2.613.307 4.27 0 .553.447 1 1 1s1-.447 1-1c0-4.335-.345-8.169-4.58-11.186-.449-.32-.555-.945-.234-1.395.155-.218.386-.362.648-.406.263-.04.528.018.746.172 4.514 3.216 5.42 7.287 5.42 12.814 0 3.199 1.061 5.356 1.105 5.447.248.498.855.689 1.338.447.493-.245.695-.844.452-1.339zm-8.189-11.549c-1.182.019-2.241.734-2.681 1.83-.002.005-.018.041-.026.06-.001-.003-.008-.018-.008-.019-.456-1.134-1.53-1.85-2.699-1.87.559-.944 1.342-1.777 2.447-2.564.095-.068.175-.15.26-.227.085.077.165.159.26.227 1.105.787 1.888 1.62 2.447 2.564z"/></svg>