<svg id="Layer_1" viewBox="0 0 24 24" xmlns="http://www.w3.org/2000/svg" data-name="Layer 1"><path d="m8 14c0-.552.448-1 1-1h2v-2c0-.552.448-1 1-1s1 .448 1 1v2h2c.552 0 1 .448 1 1s-.448 1-1 1h-2v2c0 .552-.448 1-1 1s-1-.448-1-1v-2h-2c-.552 0-1-.448-1-1zm15-7c0 .552-.448 1-1 1h-1.148c.089 1.286.148 2.615.148 4 0 6.06-.854 9.367-.89 9.505-.091.345-.358.615-.701.709-.117.032-2.906.786-7.409.786s-7.292-.754-7.409-.786c-.343-.095-.61-.365-.701-.709-.037-.138-.89-3.445-.89-9.505 0-1.385.059-2.714.148-4h-1.148c-.552 0-1-.448-1-1 0-.914.125-1.968.37-3.135.256-1.215 1.253-2.154 2.481-2.335 1.635-.242 4.377-.53 8.148-.53s6.513.289 8.149.53c1.228.181 2.225 1.12 2.481 2.335.246 1.167.37 2.221.37 3.135zm-4.152 1h-13.696c-.093 1.281-.152 2.611-.152 4 0 4.363.466 7.254.698 8.417.997.207 3.233.583 6.302.583s5.306-.376 6.302-.583c.231-1.164.698-4.054.698-8.417 0-1.389-.059-2.719-.152-4zm2.098-2c-.064-.641-.175-1.255-.273-1.723-.084-.4-.412-.709-.816-.769-1.569-.232-4.207-.509-7.856-.509s-6.287.277-7.856.509c-.405.06-.733.369-.817.769-.098.467-.209 1.082-.273 1.723z"/></svg>