<svg id="Layer_1" viewBox="0 0 24 24" xmlns="http://www.w3.org/2000/svg" data-name="Layer 1"><path d="m7.992 2.217c.068.548-.32 1.048-.868 1.116-1.413.177-2.592.385-3.275.516-.1.518-.244 1.321-.384 2.294-.076.549-.598.927-1.133.847-.546-.079-.926-.586-.847-1.133.26-1.801.526-3.021.538-3.071.083-.381.381-.679.762-.762.07-.016 1.754-.383 4.09-.675.543-.072 1.048.32 1.116.868zm-.868 18.45c-1.413-.177-2.592-.385-3.275-.516-.1-.518-.244-1.321-.384-2.294-.079-.546-.585-.919-1.133-.847-.546.079-.926.586-.847 1.133.26 1.801.526 3.021.538 3.071.083.381.381.679.762.762.071.016 1.754.382 4.09.674.537.071 1.05-.318 1.116-.868.068-.548-.32-1.048-.868-1.116zm14.543-3.657c-.549-.074-1.054.3-1.133.847-.14.973-.284 1.776-.384 2.294-.683.131-1.862.339-3.275.516-.548.068-.937.568-.868 1.116.066.55.579.939 1.116.868 2.336-.292 4.02-.659 4.09-.674.381-.083.679-.381.762-.762.011-.051.277-1.27.538-3.071.079-.547-.3-1.054-.847-1.133zm-4.791-13.677c1.413.177 2.592.385 3.275.516.1.518.244 1.321.384 2.294.076.549.598.927 1.133.847.546-.079.926-.586.847-1.133-.26-1.801-.526-3.021-.538-3.071-.083-.381-.381-.679-.762-.762-.07-.016-1.754-.383-4.09-.675-.545-.072-1.048.32-1.116.868s.32 1.048.868 1.116zm-2.1 6.652c.009.042.224 1.029.224 2.015s-.214 1.973-.224 2.015c-.083.381-.381.678-.762.762-.042.009-1.029.224-2.015.224s-1.973-.214-2.015-.224c-.381-.083-.678-.381-.762-.762-.009-.042-.224-1.029-.224-2.015s.214-1.973.224-2.015c.083-.381.381-.678.762-.762.042-.009 1.029-.224 2.015-.224s1.973.214 2.015.224c.381.083.678.381.762.762zm-1.776 2.015c0-.323-.031-.656-.068-.932-.553-.073-1.312-.073-1.864 0-.037.276-.068.609-.068.932s.031.656.068.932c.553.073 1.312.073 1.864 0 .037-.276.068-.609.068-.932zm10 0c0 .986-.214 1.973-.224 2.015-.083.381-.381.678-.762.762-.042.009-1.029.224-2.015.224s-1.973-.214-2.015-.224c-.381-.083-.678-.381-.762-.762-.009-.042-.224-1.029-.224-2.015s.214-1.973.224-2.015c.083-.381.381-.678.762-.762.042-.009 1.029-.224 2.015-.224s1.973.214 2.015.224c.381.083.678.381.762.762.009.042.224 1.029.224 2.015zm-2 0c0-.323-.031-.656-.068-.932-.553-.073-1.312-.073-1.864 0-.037.276-.068.609-.068.932s.031.656.068.932c.553.073 1.312.073 1.864 0 .037-.276.068-.609.068-.932zm-19.776 2.015c-.009-.042-.224-1.029-.224-2.015s.214-1.973.224-2.015c.083-.381.381-.678.762-.762.042-.009 1.029-.224 2.015-.224s1.973.214 2.015.224c.381.083.678.381.762.762.009.042.224 1.029.224 2.015s-.214 1.973-.224 2.015c-.083.381-.381.678-.762.762-.042.009-1.029.224-2.015.224s-1.973-.214-2.015-.224c-.381-.083-.678-.381-.762-.762zm1.776-2.015c0 .323.031.656.068.932.553.073 1.312.073 1.864 0 .037-.276.068-.609.068-.932s-.031-.656-.068-.932c-.553-.073-1.312-.073-1.864 0-.037.276-.068.609-.068.932z"/></svg>