<svg id="Layer_1" viewBox="0 0 24 24" xmlns="http://www.w3.org/2000/svg" data-name="Layer 1"><path d="m17.359 21.115c.212.502-.009 1.078-.507 1.299-.135.06-1.418.586-4.853.586s-4.718-.526-4.853-.586c-.246-.109-.438-.314-.532-.567-.012-.034-.169-.468-.321-1.164-2.328-.279-3.537-.644-3.591-.66-.279-.087-.507-.292-.622-.561-.044-.103-1.081-2.567-1.081-6.461 0-2.333.372-4.153.684-5.269.148-.533.7-.84 1.232-.694.531.148.842.7.693 1.232-.278.996-.609 2.625-.609 4.731 0 2.555.498 4.423.762 5.232.441.103 1.199.258 2.259.402-.011-.206-.021-.415-.021-.634 0-2.099.269-3.197.28-3.243.111-.445.511-.757.97-.757h2.75c.553 0 1 .448 1 1s-.447 1-1 1h-1.897c-.053.46-.103 1.128-.103 2 0 1.163.208 2.147.354 2.694.542.123 1.679.306 3.646.306 2.969 0 4.048-.417 4.058-.421.507-.202 1.089.034 1.302.536zm5.348.178c.391.391.391 1.023 0 1.414s-1.023.391-1.414 0l-20-20c-.391-.391-.391-1.023 0-1.414s1.023-.391 1.414 0l3.361 3.361c.144-1.499.478-2.423.496-2.471.104-.276.324-.492.602-.591.068-.024 1.698-.591 4.835-.591s4.767.567 4.835.591c.277.099.498.315.602.591.02.055.458 1.258.545 3.167 2.132.271 3.24.605 3.315.629.279.087.507.292.622.561.044.103 1.081 2.567 1.081 6.461s-1.037 6.358-1.081 6.461c-.102.237-.299.41-.533.511l1.321 1.321zm-14.678-16.144c1.258-.097 2.584-.149 3.971-.149 1.508 0 2.83.058 3.97.145-.055-.788-.176-1.404-.272-1.793-.622-.141-1.86-.352-3.698-.352s-3.075.211-3.698.353c-.096.389-.217 1.006-.272 1.797zm12.971 7.851c0-2.554-.498-4.422-.762-5.231-1.035-.242-3.799-.769-8.238-.769-1.207 0-2.363.043-3.467.119l11.219 11.219c.187-.038.355-.075.486-.106.263-.807.762-2.676.762-5.232zm-4-3h-2c-.553 0-1 .448-1 1s.447 1 1 1h2c.553 0 1-.448 1-1s-.447-1-1-1z"/></svg>