<svg id="Layer_1" viewBox="0 0 24 24" xmlns="http://www.w3.org/2000/svg" data-name="Layer 1"><path d="m22.999 12c0 7.709-3.29 10.999-10.999 10.999-4.345 0-7.25-1.084-8.984-3.338.003.734.042 1.467.147 2.196.078.547-.302 1.053-.849 1.132-.535.079-1.055-.299-1.132-.849-.243-1.696-.243-3.416 0-5.111.063-.439.409-.785.849-.849 1.694-.242 3.415-.242 5.111 0 .547.079.927.585.849 1.132-.079.547-.584.928-1.132.849-.849-.122-1.705-.15-2.56-.134 1.299 2.062 3.683 2.972 7.701 2.972 6.56 0 8.999-2.439 8.999-8.999 0-.553.447-1 1-1s1 .447 1 1zm-20.998 1c.553 0 1-.447 1-1 0-6.56 2.439-8.999 8.999-8.999 4.016 0 6.401.911 7.7 2.972-.854.015-1.709-.012-2.559-.135-.543-.073-1.053.302-1.132.849-.078.547.302 1.053.849 1.132.848.121 1.702.182 2.555.182s1.708-.061 2.555-.182c.439-.063.785-.409.849-.849.243-1.695.243-3.415 0-5.111-.079-.547-.59-.93-1.132-.849-.547.079-.927.585-.849 1.132.105.728.144 1.462.147 2.195-1.734-2.253-4.64-3.337-8.984-3.337-7.708.001-10.998 3.291-10.998 11 0 .553.447 1 1 1zm14.829-2.634-.927.535c.058.339.096.699.096 1.099s-.038.76-.096 1.099l.927.535c.478.276.642.888.366 1.366-.277.482-.896.64-1.366.366l-.758-.437c-.492.529-1.178.863-2.072.998v1.074c0 .552-.448 1-1 1s-1-.448-1-1v-1.074c-.893-.135-1.58-.469-2.072-.998l-.758.437c-.469.274-1.088.117-1.366-.366-.276-.478-.113-1.09.366-1.366l.927-.535c-.058-.339-.096-.699-.096-1.099s.038-.76.096-1.099l-.927-.535c-.478-.276-.642-.888-.366-1.366.277-.482.896-.64 1.366-.366l.758.437c.492-.529 1.178-.863 2.072-.998v-1.074c0-.552.448-1 1-1s1 .448 1 1v1.074c.893.135 1.58.469 2.072.998l.758-.437c.469-.274 1.088-.117 1.366.366.276.478.113 1.09-.366 1.366zm-2.83 1.634c0-1.589-.411-2-2-2s-2 .411-2 2 .411 2 2 2 2-.411 2-2z"/></svg>