<svg id="Layer_1" viewBox="0 0 24 24" xmlns="http://www.w3.org/2000/svg" data-name="Layer 1"><path d="m7 5c0-.552.448-1 1-1h3.086c.531-1.27 1.544-2.359 2.41-2.864.238-.14.525-.175.789-.095.266.079.485.264.609.511l2.439 4.879c.574-.562 1.039-1.209 1.275-1.802.151-.38.52-.629.929-.629h2.462c.553 0 1 .448 1 1s-.447 1-1 1h-1.831c-.663 1.21-1.735 2.229-2.603 2.824-.238.164-.539.216-.816.144-.28-.072-.515-.262-.645-.521l-2.427-4.854c-.392.454-.757 1.042-.9 1.639-.107.45-.51.768-.973.768h-3.806c-.552 0-1-.448-1-1zm16 11v6c0 .552-.447 1-1 1s-1-.448-1-1v-.596c-1.325.201-4.5.596-9 .596s-7.675-.395-9-.596v.596c0 .552-.448 1-1 1s-1-.448-1-1v-13c0-.552.448-1 1-1s1 .448 1 1v5.596c.488-.074 1.23-.174 2.196-.271-.13-.378-.196-.819-.196-1.325 0-1.991 1.009-3 3-3 1.131 0 1.934.337 2.426.984.793-.942 1.92-1.542 3.396-1.809.541-.105 1.063.263 1.162.806.098.543-.263 1.064-.807 1.162-1.748.317-2.642 1.156-2.995 2.863.269-.003.538-.006.817-.006 4.396 0 7.53.377 8.908.582-.225-1.728-.849-2.413-1.347-2.77-.449-.322-.552-.947-.229-1.396.321-.449.945-.551 1.396-.229 1.551 1.114 2.273 2.961 2.273 5.813zm-16-3c0 .878.122 1 1 1s1-.122 1-1-.122-1-1-1-1 .122-1 1zm14 6.378v-2.757c-.978-.158-4.248-.622-9-.622s-8.022.463-9 .622v2.757c.978.158 4.248.622 9 .622s8.022-.464 9-.622z"/></svg>