<svg id="Layer_1" viewBox="0 0 24 24" xmlns="http://www.w3.org/2000/svg" data-name="Layer 1"><path d="m23 11.995c-.01-1.71-.887-2.738-2.602-3.049-.109-.208-.23-.416-.365-.625 1.057-1.468.966-2.839-.271-4.076-1.24-1.24-2.609-1.332-4.066-.271-.21-.132-.419-.252-.624-.357-.311-1.711-1.373-2.616-3.072-2.616s-2.762.904-3.069 2.611c-.208.109-.417.229-.618.361-1.466-1.06-2.836-.968-4.075.272-1.236 1.236-1.327 2.608-.273 4.074-.132.211-.253.419-.357.624-1.72.314-2.597 1.342-2.606 3.052v.011c.01 1.71.887 2.738 2.602 3.049.109.208.23.416.365.625-1.057 1.468-.966 2.839.271 4.076s2.609 1.333 4.066.271c.21.132.419.252.624.357.311 1.711 1.373 2.616 3.072 2.616s2.762-.904 3.069-2.611c.208-.109.417-.229.618-.361 1.466 1.061 2.835.967 4.075-.272 1.236-1.236 1.327-2.608.273-4.074.132-.211.253-.419.357-.624 1.72-.314 2.597-1.342 2.606-3.063zm-2.966 1.095c-.607.111-1.12.488-1.405 1.032-.088.167-.186.334-.287.498-.436.69-.408 1.564.068 2.228.513.712.434.998-.062 1.494-.506.505-.776.581-1.489.066-.661-.479-1.535-.508-2.226-.075-.165.104-.329.199-.492.284-.54.283-.928.81-1.037 1.41-.151.838-.45.973-1.104.973s-.953-.135-1.104-.973c-.109-.6-.497-1.127-1.037-1.41-.163-.085-.327-.181-.492-.284-.325-.204-.692-.306-1.058-.306-.41 0-.818.127-1.168.38-.712.515-.982.441-1.489-.066-.495-.496-.574-.781-.061-1.494.476-.664.503-1.538.07-2.223-.104-.169-.202-.336-.289-.501-.286-.546-.799-.923-1.406-1.033-.819-.15-.961-.405-.966-1.091.005-.686.146-.94.966-1.09.607-.111 1.12-.488 1.405-1.032.088-.167.186-.334.287-.498.436-.69.408-1.564-.068-2.228-.513-.712-.434-.998.062-1.494.506-.505.775-.583 1.489-.066.661.479 1.536.508 2.226.075.165-.104.329-.199.492-.284.54-.283.928-.81 1.037-1.41.151-.838.45-.973 1.104-.973s.953.135 1.104.973c.109.6.497 1.127 1.037 1.41.163.085.327.181.492.284.689.433 1.564.403 2.226-.075.713-.514.983-.441 1.489.066.495.496.574.781.061 1.494-.476.664-.503 1.538-.07 2.223.104.169.202.336.289.501.286.546.799.923 1.406 1.033.822.151.962.406.966 1.085-.004.69-.144.945-.966 1.096zm-4.234-2.69c.332.442.242 1.068-.2 1.4-.437.329-1.067.244-1.399-.201-.367-.489-.773-.945-1.2-1.382v5.782c0 .552-.447 1-1 1s-1-.448-1-1v-5.782c-.427.436-.833.892-1.2 1.382-.33.442-.957.532-1.399.201s-.532-.958-.2-1.4c.909-1.213 1.985-2.29 3.2-3.2.355-.267.844-.267 1.199 0 1.215.911 2.291 1.987 3.2 3.2z"/></svg>