<svg id="Layer_1" viewBox="0 0 24 24" xmlns="http://www.w3.org/2000/svg" data-name="Layer 1"><path d="m12 11c.553 0 1 .448 1 1v2h2c.553 0 1 .448 1 1s-.447 1-1 1h-2v2c0 .552-.447 1-1 1s-1-.448-1-1v-2h-2c-.553 0-1-.448-1-1s.447-1 1-1h2v-2c0-.552.447-1 1-1zm9.929-7.628c-.205.513-.792.761-1.3.557-.021-.009-2.266-.866-5.802-.919.116.858.254 2.313.281 4.337 3.353.847 4.892 3.296 4.892 7.653 0 3.547-.494 6.374-.516 6.492-.067.38-.347.687-.719.789-.106.03-2.656.719-6.766.719s-6.659-.689-6.766-.719c-.372-.102-.651-.409-.719-.789-.021-.119-.516-2.945-.516-6.492 0-4.357 1.539-6.806 4.892-7.653.045-3.438.421-5.213.438-5.29.089-.4.413-.706.817-.771.072-.012 1.803-.286 4.354-.286 4.145 0 6.762 1.028 6.871 1.071.513.206.763.787.558 1.3zm-9.929 5.628c-4.43 0-6 1.57-6 6 0 2.395.243 4.48.385 5.493.947.19 2.93.507 5.615.507s4.668-.317 5.615-.507c.142-1.012.385-3.098.385-5.493 0-4.43-1.57-6-6-6zm1.104-1.961c-.04-1.976-.191-3.308-.293-3.993-.673.035-1.242.083-1.642.126-.101.723-.239 2.018-.276 3.868.355-.024.722-.039 1.107-.039s.75.015 1.104.039z"/></svg>