<svg id="Layer_1" viewBox="0 0 24 24" xmlns="http://www.w3.org/2000/svg" data-name="Layer 1"><path d="m22.287 8.397c-.089-.279-.295-.506-.566-.619-.076-.032-1.885-.778-4.721-.778-1.841 0-3.238.313-4.02.542-.023-1.504-.067-2.932-.131-4.283.478.078.796.152.911.18.522.133 1.08-.189 1.212-.729.133-.536-.193-1.078-.729-1.212-.47-.116-2.202-.498-4.741-.498s-4.271.382-4.741.498c-.536.134-.862.676-.729 1.212s.675.856 1.212.729c.115-.029.432-.102.911-.18-.099 2.083-.152 4.351-.152 6.781 0 .673.005 1.333.012 1.983-.951.016-1.866.044-2.746.082.076-.454.145-.752.173-.864.134-.536-.193-1.078-.729-1.212-.539-.13-1.079.192-1.212.729-.117.47-.499 2.2-.499 4.741s.381 4.271.499 4.741c.131.541.69.862 1.212.729.536-.134.862-.676.729-1.212-.028-.111-.097-.407-.172-.859 1.493.065 3.078.1 4.739.1 1.098 0 2.168-.019 3.212-.048.203 1.708.478 2.593.496 2.65.089.279.295.506.566.619.076.032 1.885.778 4.721.778s4.645-.746 4.721-.778c.271-.113.477-.34.566-.619.029-.092.713-2.297.713-6.603s-.684-6.511-.713-6.603zm-19.287 7.103c0-.501.019-.958.045-1.384.955-.045 1.959-.076 3.004-.094.026 1.028.064 2.01.111 2.962-1.08-.017-2.12-.05-3.115-.096-.026-.427-.045-.886-.045-1.388zm5.164 1.499c-.107-2.129-.164-4.456-.164-6.959 0-2.521.057-4.863.165-6.998.413-.025.853-.042 1.335-.042s.922.018 1.335.042c.108 2.135.165 4.477.165 6.998 0 1.08-.01 2.084-.028 3.043l.028 1.932s0 0 0 .001c0 .711.024 1.344.055 1.94-.941.025-1.904.041-2.892.042zm8.836 4.001c-1.641 0-2.875-.288-3.498-.473-.18-.811-.502-2.663-.502-5.527s.323-4.719.502-5.527c.623-.185 1.857-.473 3.498-.473s2.876.288 3.498.472c.106.479.261 1.33.371 2.528h-4.868c-.552 0-1 .447-1 1s.448 1 1 1h4.986c.009.319.014.651.014 1s-.005.681-.014 1h-4.986c-.552 0-1 .447-1 1s.448 1 1 1h4.868c-.11 1.199-.265 2.05-.37 2.527-.623.185-1.857.473-3.498.473z"/></svg>