<svg id="Layer_1" viewBox="0 0 24 24" xmlns="http://www.w3.org/2000/svg" data-name="Layer 1"><path d="m22.91 8.783c-.032-.071-.713-1.528-2.323-3.377.448-.314.799-.564.877-.63.648-.562.718-1.544.156-2.192-.638-.745-1.676-.741-2.295-.146-.013.012-.328.446-.719.985-1.855-1.618-3.318-2.302-3.389-2.334-.301-.139-.648-.115-.932.055-.119.071-2.955 1.806-7.145 5.996-.923.922-1.719 1.774-2.412 2.551-.237-.324-.428-.583-.487-.654-.556-.641-1.559-.768-2.269-.058-.612.588-.631 1.561-.043 2.173.014.014.458.33.977.696-1.176 1.481-1.721 2.37-1.761 2.436-.171.282-.191.631-.055.932.038.084.967 2.095 3.283 4.411 2.316 2.315 4.326 3.244 4.411 3.282.3.137.648.116.932-.055.065-.039.943-.578 2.403-1.735.404.527.721.939.733.951.612.588 1.584.569 2.172-.043.702-.675.583-1.713-.058-2.269-.06-.051-.321-.238-.665-.481.779-.695 1.633-1.494 2.559-2.419.92-.92 1.715-1.77 2.407-2.545.325.427.57.746.581.756.614.59 1.484.599 2.276-.145.558-.643.488-1.617-.155-2.175-.079-.066-.423-.313-.858-.62 1.165-1.469 1.706-2.352 1.746-2.417.171-.282.191-.631.055-.932zm-8.053-5.622c.662.381 1.944 1.213 3.356 2.625 1.413 1.413 2.244 2.695 2.625 3.356-.596.869-2.1 2.907-4.705 5.597l-6.873-6.874c.676-.655 1.308-1.239 1.892-1.756.392.53.691.933.702.944.612.588 1.493.648 2.269-.144.556-.641.487-1.612-.154-2.168-.062-.052-.309-.23-.632-.459.661-.516 1.181-.89 1.519-1.122zm-5.714 17.678c-.491-.283-1.324-.815-2.298-1.647.315-.216.57-.394.645-.457.646-.56.672-1.585.113-2.231-.592-.616-1.626-.69-2.242-.098-.013.012-.253.339-.553.748-.832-.974-1.364-1.807-1.647-2.297.594-.867 2.092-2.898 4.686-5.578l2.436 2.436c-.486.356-.865.635-.877.646-.589.613-.519 1.639.094 2.228.643.557 1.666.534 2.223-.109.062-.074.284-.375.564-.761l2.433 2.433c-2.68 2.594-4.71 4.091-5.577 4.686z"/></svg>