<svg id="Layer_1" viewBox="0 0 24 24" xmlns="http://www.w3.org/2000/svg" data-name="Layer 1"><path d="m1.349 6.875c.292-2.336.659-4.02.675-4.09.083-.381.381-.679.762-.762.07-.016 1.754-.383 4.09-.675.544-.069 1.048.32 1.116.868s-.32 1.048-.868 1.116c-1.413.177-2.592.385-3.275.516-.131.683-.339 1.862-.516 3.274-.066.55-.579.939-1.116.868-.548-.068-.937-.568-.868-1.116zm5.775 13.792c-1.413-.177-2.592-.385-3.275-.516-.131-.683-.339-1.863-.516-3.275-.069-.548-.572-.942-1.116-.868-.548.068-.937.568-.868 1.116.292 2.336.659 4.02.675 4.09.083.381.381.679.762.762.071.016 1.754.382 4.09.674.537.071 1.05-.318 1.116-.868.068-.548-.32-1.048-.868-1.116zm14.659-4.659c-.552-.069-1.048.321-1.116.868-.177 1.412-.386 2.592-.516 3.275-.684.131-1.863.339-3.275.516-.548.068-.937.568-.868 1.116.066.55.579.939 1.116.868 2.336-.292 4.02-.659 4.09-.674.382-.083.68-.381.763-.762.016-.071.383-1.754.675-4.09.068-.548-.32-1.048-.868-1.116zm-4.907-12.675c1.413.177 2.593.385 3.275.516.13.681.338 1.859.516 3.274.066.55.579.939 1.116.868.548-.068.937-.568.868-1.116-.292-2.336-.659-4.02-.675-4.09-.083-.381-.381-.679-.762-.762-.071-.016-1.755-.383-4.091-.675-.55-.073-1.048.32-1.116.868s.32 1.048.868 1.116zm5.124 7.667h-20c-.552 0-1 .448-1 1s.448 1 1 1h20c.553 0 1-.448 1-1s-.447-1-1-1z"/></svg>