<svg id="Layer_1" viewBox="0 0 24 24" xmlns="http://www.w3.org/2000/svg" data-name="Layer 1"><path d="m1.008 6.712c.302-2.411.68-4.148.696-4.221.086-.393.393-.7.787-.787.073-.016 1.81-.395 4.221-.696.561-.072 1.081.33 1.152.896.071.565-.331 1.081-.896 1.152-1.458.182-2.675.398-3.38.533-.135.704-.35 1.922-.533 3.379-.069.568-.598.969-1.152.896-.566-.071-.967-.587-.896-1.152zm5.96 14.232c-1.458-.182-2.675-.397-3.38-.532-.135-.704-.35-1.922-.533-3.38-.071-.566-.591-.972-1.152-.896-.566.071-.967.587-.896 1.152.302 2.411.68 4.148.696 4.221.086.393.394.7.787.787.073.016 1.81.395 4.221.696.554.073 1.084-.328 1.152-.896.071-.565-.331-1.081-.896-1.152zm15.128-4.808c-.561-.076-1.081.33-1.152.896-.182 1.457-.398 2.675-.533 3.38-.704.135-1.922.35-3.38.532-.565.071-.966.587-.896 1.152.068.568.598.969 1.152.896 2.411-.301 4.148-.68 4.221-.696.393-.086.7-.394.787-.787.016-.073.395-1.81.696-4.221.071-.565-.33-1.081-.896-1.152zm-5.064-13.08c1.458.182 2.675.398 3.38.533.135.703.35 1.918.533 3.379.069.568.598.969 1.152.896.566-.071.967-.587.896-1.152-.302-2.411-.68-4.148-.696-4.221-.086-.393-.393-.7-.787-.787-.073-.016-1.81-.395-4.221-.696-.561-.072-1.082.33-1.152.896-.071.565.331 1.081.896 1.152zm-6.295 2.737c.01.043.231 1.062.231 2.079s-.221 2.036-.231 2.079c-.086.393-.393.7-.786.786-.043.01-1.062.231-2.079.231s-2.036-.221-2.079-.231c-.393-.086-.7-.393-.786-.786-.01-.043-.231-1.062-.231-2.079s.221-2.036.231-2.079c.086-.393.393-.7.786-.786.043-.01 1.062-.231 2.079-.231s2.036.221 2.079.231c.393.086.7.393.786.786zm-1.833 2.079c0-.334-.032-.677-.07-.962-.57-.076-1.353-.076-1.924 0-.038.285-.07.628-.07.962s.032.677.07.962c.57.076 1.353.076 1.924 0 .038-.285.07-.628.07-.962zm1.833 6.177c.01.043.231 1.062.231 2.079s-.221 2.036-.231 2.079c-.086.393-.393.7-.786.786-.043.01-1.062.231-2.079.231s-2.036-.221-2.079-.231c-.393-.086-.7-.393-.786-.786-.01-.043-.231-1.062-.231-2.079s.221-2.036.231-2.079c.086-.393.393-.7.786-.786.043-.01 1.062-.231 2.079-.231s2.036.221 2.079.231c.393.086.7.393.786.786zm-1.833 2.079c0-.334-.032-.677-.07-.962-.57-.076-1.353-.076-1.924 0-.038.285-.07.628-.07.962s.032.677.07.962c.57.076 1.353.076 1.924 0 .038-.285.07-.628.07-.962zm9.303-5.391c-.043.01-1.062.231-2.079.231s-2.036-.221-2.079-.231c-.393-.086-.7-.393-.786-.786-.01-.043-.231-1.062-.231-2.079s.221-2.036.231-2.079c.086-.393.393-.7.786-.786.043-.01 1.062-.231 2.079-.231s2.036.221 2.079.231c.393.086.7.393.786.786.01.043.231 1.062.231 2.079s-.221 2.036-.231 2.079c-.086.393-.393.7-.786.786zm-1.047-2.865c0-.334-.032-.677-.07-.962-.57-.076-1.353-.076-1.924 0-.038.285-.07.628-.07.962s.032.677.07.962c.57.076 1.353.076 1.924 0 .038-.285.07-.628.07-.962zm-3.096 5.16c-.57 0-1.032.462-1.032 1.032s.462 1.032 1.032 1.032 1.032-.462 1.032-1.032-.462-1.032-1.032-1.032zm4.128 0c-.57 0-1.032.462-1.032 1.032s.462 1.032 1.032 1.032 1.032-.462 1.032-1.032-.462-1.032-1.032-1.032zm-4.128 4.128c-.57 0-1.032.462-1.032 1.032s.462 1.032 1.032 1.032 1.032-.462 1.032-1.032-.462-1.032-1.032-1.032z"/></svg>