<svg id="Layer_1" viewBox="0 0 24 24" xmlns="http://www.w3.org/2000/svg" data-name="Layer 1"><path d="m10 3c0-1.429.571-2 2-2s2 .571 2 2-.571 2-2 2-2-.571-2-2zm10 2c1.429 0 2-.571 2-2s-.571-2-2-2-2 .571-2 2 .571 2 2 2zm-16 0c1.429 0 2-.571 2-2s-.571-2-2-2-2 .571-2 2 .571 2 2 2zm10.771 2.207c.009.081.229 2.012.229 4.293s-.219 4.212-.229 4.293c-.045.388-.311.714-.682.836-.073.024-.515.165-1.065.266.042 1.009.155 2.794.465 4.963.078.547-.302 1.053-.848 1.131-.535.08-1.056-.299-1.131-.848-.333-2.331-.447-4.197-.487-5.239-.572-.101-1.038-.249-1.113-.274-.371-.122-.637-.448-.682-.836-.009-.081-.229-2.012-.229-4.293s.219-4.212.229-4.293c.045-.388.311-.714.682-.836.116-.038 1.157-.371 2.09-.371s1.974.333 2.09.371c.371.122.637.448.682.836zm-3.771 4.293c0 1.385.087 2.652.15 3.391.55.119 1.149.119 1.699 0 .063-.74.151-2.009.151-3.391s-.087-2.652-.15-3.391c-.55-.119-1.149-.119-1.699 0-.063.74-.151 2.009-.151 3.391zm12 0c0 2.281-.219 4.212-.229 4.293-.045.388-.311.714-.682.836-.073.024-.515.165-1.065.266.042 1.009.155 2.794.465 4.963.078.547-.302 1.053-.848 1.131-.535.08-1.056-.299-1.131-.848-.333-2.331-.447-4.197-.487-5.239-.572-.101-1.038-.249-1.113-.274-.371-.122-.637-.448-.682-.836-.009-.081-.229-2.012-.229-4.293s.219-4.212.229-4.293c.045-.388.311-.714.682-.836.116-.038 1.157-.371 2.09-.371s1.974.333 2.09.371c.371.122.637.448.682.836.009.081.229 2.012.229 4.293zm-4 0c0 1.385.087 2.652.15 3.391.55.119 1.149.119 1.699 0 .063-.74.151-2.009.151-3.391s-.087-2.652-.15-3.391c-.55-.119-1.149-.119-1.699 0-.063.74-.151 2.009-.151 3.391zm-12.229-4.293c.009.081.229 2.012.229 4.293s-.219 4.212-.229 4.293c-.045.388-.311.714-.682.836-.073.024-.515.165-1.065.266.042 1.009.155 2.794.465 4.963.078.547-.302 1.053-.848 1.131-.535.08-1.056-.299-1.131-.848-.333-2.331-.447-4.197-.487-5.239-.572-.101-1.038-.249-1.113-.274-.371-.122-.637-.448-.682-.836-.009-.081-.229-2.012-.229-4.293s.219-4.212.229-4.293c.045-.388.311-.714.682-.836.116-.038 1.157-.371 2.09-.371s1.974.333 2.09.371c.371.122.637.448.682.836zm-3.771 4.293c0 1.385.087 2.652.15 3.391.55.119 1.149.119 1.699 0 .063-.74.151-2.009.151-3.391s-.087-2.652-.15-3.391c-.55-.119-1.149-.119-1.699 0-.063.74-.151 2.009-.151 3.391z"/></svg>