<svg id="Layer_1" viewBox="0 0 24 24" xmlns="http://www.w3.org/2000/svg" data-name="Layer 1"><path d="m7.5 3c0-1.429.571-2 2-2s2 .571 2 2-.571 2-2 2-2-.571-2-2zm6.092 4.124c.017.083.408 2.053.408 4.376s-.392 4.293-.408 4.376c-.081.399-.396.71-.796.785-.03.006-.344.063-.796.129v5.21c0 .552-.448 1-1 1s-1-.448-1-1v-5.012c-.168.007-.336.012-.5.012s-.332-.005-.5-.012v5.012c0 .552-.448 1-1 1s-1-.448-1-1v-5.21c-.452-.066-.766-.123-.796-.129-.4-.075-.715-.386-.796-.785-.017-.083-.408-2.053-.408-4.376s.392-4.293.408-4.376c.081-.399.396-.71.796-.785.074-.014 1.82-.338 3.296-.338s3.222.325 3.296.338c.4.075.715.386.796.785zm-1.592 4.376c0-1.343-.147-2.579-.256-3.307-.595-.087-1.479-.193-2.244-.193s-1.649.106-2.244.193c-.108.728-.256 1.963-.256 3.307s.147 2.579.256 3.307c.595.087 1.479.193 2.244.193s1.649-.106 2.244-.193c.108-.728.256-1.963.256-3.307zm10.965 10.763c-.121.445-.524.737-.964.738-.504-.036-.898-.278-3-.294-1.686 0-2.743.261-2.754.263-.535.135-1.079-.189-1.214-.724-.136-.534.185-1.077.719-1.214.042-.011.882-.218 2.249-.295v-10.77c-1.172-.074-1.891-.252-1.928-.261-.345-.088-.617-.354-.713-.696-.015-.052-.359-1.296-.359-3.509s.344-3.458.359-3.509c.097-.342.369-.608.713-.696.047-.012 1.164-.294 2.928-.294 1.827 0 2.897.286 2.941.298.339.092.604.355.7.693.015.052.359 1.296.359 3.509s-.344 3.458-.359 3.509c-.097.342-.369.608-.713.696-.037.01-.755.187-1.928.261v10.768c1.408.077 2.222.289 2.263.3.533.145.847.694.702 1.228zm-5.796-14.386c.422.061 1.05.124 1.832.124s1.41-.063 1.832-.124c.078-.498.168-1.301.168-2.376s-.09-1.881-.169-2.38c-.412-.059-1.033-.12-1.831-.12-.781 0-1.41.063-1.832.124-.078.498-.168 1.301-.168 2.376s.09 1.878.168 2.376zm-12.169-2.877c.335 0 .619-.035.864-.101-.231-.542-.364-1.17-.364-1.899s.133-1.357.364-1.899c-.245-.067-.529-.101-.864-.101-1.429 0-2 .571-2 2s.571 2 2 2zm-1 13c-.552 0-1 .448-1 1v3c0 .552.448 1 1 1s1-.448 1-1v-3c0-.552-.448-1-1-1zm-.581-2.545c-.004-.019-.419-1.855-.419-3.955s.415-3.937.419-3.955c.123-.538-.213-1.074-.751-1.198-.535-.124-1.074.212-1.198.75-.019.083-.47 2.066-.47 4.403s.451 4.32.47 4.403c.122.541.674.875 1.198.75.538-.124.874-.66.751-1.198z"/></svg>