<svg id="Layer_1" viewBox="0 0 24 24" xmlns="http://www.w3.org/2000/svg" data-name="Layer 1"><path d="m16.5 3c0-1.429.571-2 2-2s2 .571 2 2-.571 2-2 2-2-.571-2-2zm6.5 8.5c0 2.323-.392 4.293-.408 4.376-.081.399-.396.71-.796.785-.03.006-.344.063-.796.129v5.21c0 .552-.447 1-1 1s-1-.448-1-1v-5.012c-.168.007-.336.012-.5.012s-.332-.005-.5-.012v5.012c0 .552-.447 1-1 1s-1-.448-1-1v-5.21c-.452-.066-.766-.123-.796-.129-.4-.075-.715-.386-.796-.785-.017-.083-.408-2.053-.408-4.376s.392-4.293.408-4.376c.081-.399.396-.71.796-.785.073-.014 1.819-.338 3.296-.338s3.223.325 3.296.338c.4.075.715.386.796.785.017.083.408 2.053.408 4.376zm-2 0c0-1.344-.147-2.579-.256-3.307-.595-.087-1.479-.193-2.244-.193s-1.649.106-2.244.193c-.108.728-.256 1.963-.256 3.307s.147 2.579.256 3.307c.595.087 1.479.193 2.244.193s1.649-.106 2.244-.193c.108-.728.256-1.963.256-3.307zm-8.894 2.827c-.311-.033-.617-.072-.878-.107-.1-.682-.229-1.797-.229-3.006 0-1.981.345-4.025.348-4.045.093-.544-.272-1.061-.817-1.154-.542-.088-1.061.274-1.153.817-.016.09-.377 2.227-.377 4.382 0 2.171.366 4.013.382 4.09.083.41.412.726.826.79 0 0 .332.052.792.113v4.792c0 .552.447 1 1 1s1-.448 1-1v-5.679c0-.511-.386-.94-.894-.994zm-4.772-.557c-.004-.013-.334-1.35-.334-3.289s.327-3.196.33-3.207c.144-.533-.174-1.082-.707-1.225-.532-.142-1.081.174-1.225.707-.017.061-.398 1.511-.398 3.725s.379 3.718.396 3.781c.134.539.693.857 1.214.722.535-.136.858-.679.725-1.214zm.666 2.229c-.553 0-1 .448-1 1v3c0 .552.447 1 1 1s1-.448 1-1v-3c0-.552-.447-1-1-1zm1-11c.335 0 .619-.035.864-.101-.231-.542-.364-1.17-.364-1.899s.133-1.357.364-1.899c-.245-.067-.529-.101-.864-.101-1.429 0-2 .571-2 2s.571 2 2 2zm-5.723 7.554c-.003-.006-.277-.638-.277-2.452 0-1.513.346-2.829.349-2.842.142-.533-.175-1.081-.708-1.224-.526-.141-1.08.173-1.224.706-.017.063-.417 1.573-.417 3.36 0 2.297.391 3.173.51 3.388.263.473.848.623 1.313.386.478-.24.673-.833.454-1.322zm.723 2.447c-.553 0-1 .448-1 1v2.715c0 .552.447 1 1 1s1-.448 1-1v-2.715c0-.552-.447-1-1-1zm.5-10c.335 0 .619-.035.864-.101-.231-.542-.364-1.17-.364-1.899s.133-1.357.364-1.899c-.245-.067-.529-.101-.864-.101-1.429 0-2 .571-2 2s.571 2 2 2zm10-2c0-.65.098-1.226.282-1.728-.312-.185-.732-.272-1.282-.272-1.429 0-2 .571-2 2s.571 2 2 2c.55 0 .97-.087 1.282-.272-.184-.502-.282-1.078-.282-1.728z"/></svg>