<svg id="Layer_1" viewBox="0 0 24 24" xmlns="http://www.w3.org/2000/svg" data-name="Layer 1"><path d="m21.786 20.023c-.013.003-.401.086-1.036.202.165-1.636.25-2.887.25-3.714 0-2.472-.222-4.091-.386-4.953 1.335-.439 2.386-1.313 2.386-3.058 0-2.349-2.076-4.215-4.107-5.011-.091-.039-1.51-.635-3.397-1.06-2.498-.679-6.035-1.428-9.496-1.428-.417 0-.792.26-.937.651-.146.392-.033.833.283 1.105.198.171.423.348.642.524-.571.267-1.115.575-1.596.943-.25.191-.395.488-.392.802s.152.608.404.795c2.242 1.662 5.709 2.064 7.609 2.155.026.442.102.834.202 1.204-5.426.763-8.271 4.007-8.664 9.865-.169-.027-.35-.044-.551-.044-1.383 0-2 .617-2 2s.617 2 2 2c.718 0 1.226-.171 1.552-.524 2.201.503 5.742.524 8.022.524 4.174.095 9.609-.987 9.641-1.023.54-.118.881-.651.762-1.191s-.655-.883-1.191-.762zm-14.753-15.031c1.554-.68 3.469-.992 4.967-.992 1.058 0 2.14.171 3.096.39 1.557.428 2.514.772 3.04.95 1.423.558 2.864 1.823 2.864 3.16 0 1.093-1.22 1.5-4.5 1.5-1.691 0-2.369-.517-2.482-2h.944c.552 0 1-.448 1-1s-.448-1-1-1h-1.961c-1.775 0-4.155-.278-5.967-1.008zm5.771 16.008c-1.88 0-5.193 0-7.305-.368-.051-6.162 2.311-9.135 7.868-9.563.744.614 1.783.932 3.132.932.614 0 1.371-.003 2.148-.072.148.773.352 2.255.352 4.583 0 .847-.1 2.208-.295 4.043-.532.075-1.108.149-1.72.215-.075-3.242-1.657-4.769-4.985-4.769-.552 0-1 .448-1 1s.448 1 1 1c2.275 0 2.983.692 2.997 2.935-.723.044-1.461.069-2.192.065z"/></svg>