<svg id="Layer_1" viewBox="0 0 24 24" xmlns="http://www.w3.org/2000/svg" data-name="Layer 1"><path d="m21.815 20.017c-.282.053-.555.103-.825.151-.04-1.817-.201-3.319-.339-4.307-.077-.547-.588-.933-1.129-.852-.547.076-.928.582-.852 1.129.137.982.297 2.507.323 4.353-.66.094-1.316.174-2.003.24-.033-1.606-.161-2.957-.271-3.854-.067-.548-.567-.935-1.115-.871-.548.068-.938.567-.871 1.115.107.866.226 2.195.254 3.758-1.625.09-3.515.126-5.989.119-1.404 0-2.521-.158-3.392-.514.327-.88.628-2.396.866-4.067.79-2.728 2.726-4.068 6.22-4.329.885.646 2.019 1.308 3.455 1.846.226.085.476.085.702 0 4.278-1.604 5.938-4.308 6.006-4.422.093-.156.143-.333.143-.515 0-5.458-.794-8-2.5-8-.332 0-.642.165-.828.439-.258.382-.412.732-.512 1.098-.7-.243-1.615-.466-2.66-.466s-1.96.223-2.66.466c-.1-.365-.254-.716-.512-1.098-.186-.274-.497-.439-.828-.439-1.706 0-2.5 2.542-2.5 8 0 .181.049.359.143.515.023.038.223.361.63.83-1.563.319-2.843.902-3.851 1.75.05-.776.079-1.496.079-2.095-.007-2.109-.092-5.039-.281-6.926-.125-1.057-.938-1.891-1.977-2.027-.442-.058-1.042-.058-1.484 0-1.039.136-1.852.97-1.978 2.027-.189 1.893-.274 4.812-.281 6.925v5c0 5.533 2.467 8 7.997 8 5.546.032 8.975-.201 13.188-1.017.543-.102.9-.625.798-1.167s-.622-.9-1.167-.798zm-2.341-15.167c.41.243.933.17 1.262-.174.113.707.205 1.705.243 3.052-.773-.51-2.218-.729-2.979-.729-1.071 0-1.5.429-1.5 1.5s.429 1.5 1.5 1.5c.525 0 1.375-.104 2.106-.335-.742.696-1.912 1.572-3.606 2.261-1.694-.689-2.865-1.565-3.607-2.261.731.231 1.582.335 2.107.335 1.071 0 1.5-.429 1.5-1.5s-.429-1.5-1.5-1.5c-.762 0-2.206.218-2.979.729.038-1.347.131-2.345.243-3.052.345.326.839.401 1.258.176.013-.008 1.312-.783 2.978-.783s2.965.775 2.975.78zm-14.485 3.96c-.291.097-.651.19-.99.19s-.698-.093-.99-.19c.01-.647.027-1.296.048-1.916.295.062.613.106.941.106s.646-.044.941-.106c.022.62.038 1.269.048 1.916zm-1.99 2.071c.311.069.65.119 1 .119.344 0 .677-.049.983-.115-.02.627-.06 1.286-.115 1.956-.219.078-.525.159-.868.159s-.707-.095-1-.193zm.267-7.571c.017-.143.125-.262.251-.279.143-.019.304-.031.481-.031s.338.012.482.031c.126.017.234.136.251.278.035.299.076.857.116 1.548-.262.078-.567.143-.849.143s-.586-.065-.849-.143c.039-.691.08-1.249.116-1.548zm-.267 11.69v-.119c.311.069.65.119 1 .119.231 0 .448-.023.654-.055-.209 1.726-.481 3.305-.718 4.232-.656-.948-.936-2.308-.936-4.177z"/></svg>