<svg id="Layer_1" viewBox="0 0 24 24" xmlns="http://www.w3.org/2000/svg" data-name="Layer 1"><path d="m23 12c0 7.71-3.29 11-11 11s-11-3.29-11-11 3.29-11 11-11c3.926 0 6.587.833 8.377 2.624.188.188.293.442.293.707s-.105.52-.293.707l-6.139 6.138c-.188.188-.441.293-.707.293s-.521-.105-.708-.293c-.111-.111-.411-.175-.823-.175-.879 0-1 .122-1 1s.121 1 1 1c.357 0 .562-.045.67-.083.524-.182 1.092.093 1.273.613.183.521-.092 1.092-.613 1.274-.375.131-.811.195-1.33.195-1.99 0-3-1.009-3-3s1.01-3 3-3c.529 0 .984.071 1.372.214l1.682-1.682c-.744-.352-1.746-.532-3.054-.532-1.299 0-2.294.157-3.046.513.026.149.042.31.046.486-.026 1.43-.787 1.931-1.822 1.988-.12.573-.178 1.237-.178 2.013 0 3.085.863 4.48 3.264 4.875.336-.622.967-.87 1.736-.875.761.005 1.39.263 1.729.876 2.406-.393 3.271-1.789 3.271-4.876 0-.161-.003-.317-.008-.47-.017-.552.418-1.013.97-1.029.562-.006 1.014.417 1.03.97.005.172.008.349.008.53 0 4.17-1.607 6.345-5.145 6.87-.287.829-.985 1.123-1.856 1.128-.867-.005-1.566-.302-1.855-1.128-3.538-.524-5.145-2.7-5.145-6.87 0-1.05.108-1.966.317-2.769-.19-.301-.307-.7-.316-1.232.026-1.483.873-1.992 2-1.999.173.001.336.02.495.048 1.107-.705 2.594-1.048 4.505-1.048 1.969 0 3.429.344 4.527 1.06l1.662-1.662c-1.394-.95-3.395-1.398-6.188-1.398-6.562-.001-9.001 2.438-9.001 8.999s2.439 9 9 9 9-2.439 9-9c0-1.475-.123-2.707-.377-3.768-.128-.537.203-1.077.74-1.205.538-.125 1.077.204 1.205.74.29 1.214.432 2.599.432 4.232z"/></svg>