<svg id="Layer_1" viewBox="0 0 24 24" xmlns="http://www.w3.org/2000/svg" data-name="Layer 1"><path d="m22 11.999h-7.118c-.133-.572-.388-1.022-.768-1.348l3.617-5.849c.144-.232.186-.512.117-.776-.067-.264-.241-.489-.479-.622-3.275-1.838-7.465-1.838-10.74 0-.237.133-.41.357-.479.621-.068.263-.026.543.116.775l3.607 5.859c-.374.325-.626.773-.757 1.338-1.955 0-5.791 0-7.119.002-.552 0-.999.448-.999 1 0 3.793 1.924 7.271 5.147 9.303.161.101.346.154.533.154.356.002.699-.198.871-.51.442-.785 3.104-5.208 3.582-6.033.267.051.55.086.867.086.33 0 .623-.038.899-.093l3.558 6.057c.175.303.513.496.862.494.188 0 .372-.053.533-.154 3.224-2.032 5.147-5.51 5.147-9.305 0-.552-.447-1-1-1zm-13.451-7.308c2.181-.908 4.718-.908 6.9 0l-3.29 5.32c-.111-.013-.223-.011-.335.001l-3.276-5.321zm-2.185 15.315c-1.863-1.494-3.048-3.643-3.31-6.008h6.062c.073.316.175.605.325.847-.477.825-2.681 4.49-3.077 5.161zm4.636-7.006c0-.878.121-1 1-1s1 .122 1 1-.121 1-1 1-1-.122-1-1zm6.63 7.011-3.051-5.193c.141-.235.235-.516.305-.82 1.556 0 4.332 0 6.062.001-.262 2.368-1.448 4.518-3.315 6.012z"/></svg>