<svg id="Layer_1" viewBox="0 0 24 24" xmlns="http://www.w3.org/2000/svg" data-name="Layer 1"><path d="m20.974 9.916c.007-.141.026-.268.026-.416v-2c0-.277-.025-.526-.049-.777.683-.202 1.177-.456 1.564-.689.301-.181.484-.506.484-.856s-.184-.676-.484-.857c-.435-.262-1.851-.779-3.391-1.082.127-.194.377-.238.875-.238.553 0 1-.448 1-1s-.447-1-1-1c-1.621 0-2.58.681-2.884 2.006-.406.006-.825.006-1.231 0-.304-1.324-1.263-2.006-2.884-2.006-.553 0-1 .448-1 1s.447 1 1 1c.498 0 .748.045.875.238-1.54.303-2.956.82-3.391 1.082-.301.181-.484.506-.484.857s.184.676.484.856c.387.233.882.487 1.564.689-.023.251-.049.499-.049.777v2c0 3.07 1.43 4.5 4.5 4.5 2.092 0 3.404-.682 4.04-2.075.242.198.46.609.46 1.624 0 1.589-.536 1.787-1.293 1.894-.567.067-.978.664-.835 1.218.081.349.128.655.128.84 0 1.233-.267 1.5-1.5 1.5-1.336 0-1.441-.415-1.504-1.092-.05-.532-.514-.944-1.042-.907-.534.024-.954.465-.954.999 0 1.711-.499 2-2 2-.817 0-1.315-.12-1.566-.38-.324-.335-.372-1.049-.355-1.589.018-.54-.397-.996-.938-1.029-.531-.024-1.008.368-1.058.906-.059.64-.207 1.092-1.583 1.092-1.233 0-1.5-.267-1.5-1.5 0-.297.027-.551.085-.776.162-.582-.296-1.216-.9-1.243-.823-.057-1.185-.214-1.185-1.48 0-1.242.341-1.402 1.118-1.471.547-.049.948-.585.903-1.132-.01-.127-.021-.254-.021-.396 0-1.589.411-2 2-2h2c.553 0 1-.448 1-1s-.447-1-1-1h-2c-2.596 0-3.905 1.217-3.995 3.719-1.331.429-2.005 1.529-2.005 3.281s.673 2.856 2.004 3.285c-.079 1.759.606 3.08 1.996 3.501v.214c0 1.271.729 2 2 2s1.993-.724 1.999-1.986c.848.874 2.049.986 3.001.986.62 0 2.032 0 3.001-.983.007 1.261.733 1.983 1.999 1.983s2-.729 2-2v-.214c1.327-.435 2-1.533 2-3.286 0-.104-.006-.215-.017-.334 1.34-.534 2.017-1.746 2.017-3.617 0-.714-.016-2.837-2.026-3.633zm-1.974-.416c0 1.939-.561 2.5-2.5 2.5s-2.5-.561-2.5-2.5v-2c0-1.939.561-2.5 2.5-2.5s2.5.561 2.5 2.5z"/></svg>