<svg id="Layer_1" viewBox="0 0 24 24" xmlns="http://www.w3.org/2000/svg" data-name="Layer 1"><path d="m22.521 16.779c-.142-.295-.42-.502-.744-.553-.059-.01-1.443-.227-2.777-.227-.847 0-1.871.087-2.517.153-.077-2.187-.432-3.921-.449-4.002-.078-.378-.367-.677-.742-.768-.064-.016-1.592-.383-3.292-.383s-3.228.367-3.292.383c-.375.091-.664.39-.742.768-.012.055-.177.867-.308 2.055-.562-.094-1.389-.206-2.158-.206-1.672 0-3.287.328-3.355.342-.338.069-.616.308-.736.631-.041.112-.408 1.165-.408 3.527.013 1.855.207 2.342.404 3.188.08.411.408.729.822.796.13.021 3.268.516 9.773.516s9.688-.498 9.82-.52c.391-.062.707-.349.809-.73.182-.646.36-1.054.371-2.25 0-1.68-.429-2.619-.479-2.721zm-19.521 1.721c0-1.103.088-1.855.166-2.306.568-.087 1.453-.194 2.334-.194.722 0 1.544.126 2.015.211-.008.247-.015.496-.015.752 0 1.621.179 3.08.315 3.958-2.279-.09-3.824-.234-4.62-.327-.098-.426-.195-1.03-.195-2.094zm6.852 2.478c-.12-.702-.352-2.275-.352-4.015 0-1.552.185-2.974.31-3.762.534-.092 1.346-.201 2.19-.201s1.656.109 2.19.201c.125.788.31 2.21.31 3.762 0 1.74-.231 3.313-.352 4.015-.675.013-1.38.022-2.148.022s-1.474-.009-2.148-.022zm11.03-.391c-.795.092-2.37.241-4.697.333.101-.652.223-1.631.281-2.755.565-.06 1.675-.165 2.535-.165.671 0 1.376.065 1.859.121.071.314.141.776.141 1.379 0 .493-.051.818-.118 1.087zm-3.795-8.058c.148-.532.699-.84 1.231-.696.398.111.824.167 1.266.167 1.4 0 1.4-.267 1.4-.635s0-.635-1.4-.635c-.553 0-1-.447-1-1s.447-1 1-1c.586 0 .755-.098.776-.112-.002-.004.024-.074.024-.253 0-.188-.029-.256-.034-.265-.008 0-.174-.101-.767-.101-.541 0-.808.222-.818.231-.409.35-1.036.326-1.4-.067-.364-.395-.368-.991.012-1.371.081-.081.832-.793 2.207-.793 2.314 0 2.801 1.286 2.801 2.365 0 .352-.052.726-.201 1.069.532.439.801 1.084.801 1.931 0 1.748-1.145 2.635-3.4 2.635-.623 0-1.229-.081-1.801-.239-.532-.148-.844-.699-.696-1.231zm-12.285-6.359c0-.107-.216-.17-.802-.17-.655 0-.919.137-.985.18-.28.396-.815.536-1.262.314-.494-.247-.694-.848-.447-1.342.136-.271.729-1.152 2.694-1.152 2.314 0 2.8 1.196 2.8 2.2 0 1.066-1.138 2.554-2.377 3.794.482-.014.964-.055 1.437-.122.548-.083 1.053.303 1.131.85.077.547-.303 1.053-.85 1.131-.691.098-1.397.147-2.101.147-1.032-.137-2.564.209-3.01-.959-.097-.388.046-.796.364-1.038 2.064-1.572 3.334-3.356 3.407-3.833zm4.22-2.375c.296-1.413 1.327-2.449 2.76-2.771.293-.068.606.005.844.195.237.189.375.477.375.78v6c0 .553-.447 1-1 1s-1-.447-1-1v-3.886c-.084.578-.624.991-1.205.864-.54-.113-.887-.643-.773-1.184z"/></svg>