<svg id="Layer_1" viewBox="0 0 24 24" xmlns="http://www.w3.org/2000/svg" data-name="Layer 1"><path d="m22.611 15.949c-.104-.379-.42-.661-.808-.723-.058-.01-1.443-.227-2.777-.227-.857 0-1.894.089-2.538.155-.068-2.668-.43-4.798-.447-4.896-.065-.376-.337-.682-.703-.789-.065-.02-1.614-.47-3.338-.47s-3.273.45-3.338.47c-.365.107-.638.413-.703.789-.01.057-.138.811-.256 1.956-.561-.095-1.421-.215-2.216-.215-1.672 0-3.287.328-3.355.342-.403.083-.714.403-.784.81-.014.082-.348 2.039-.348 4.349 0 1.906.282 3.563.404 4.188.08.412.408.729.822.797.13.021 3.269.516 9.774.516s9.688-.498 9.82-.52c.39-.062.707-.349.808-.729.139-.521.372-1.571.372-2.751 0-1.616-.373-2.993-.389-3.051zm-19.611 1.551c0-1.345.126-2.581.219-3.315.569-.085 1.421-.185 2.268-.185.746 0 1.599.135 2.06.219-.029.564-.048 1.162-.048 1.781 0 2.062.201 3.907.337 4.921-2.244-.088-3.779-.229-4.591-.322-.111-.73-.246-1.867-.246-3.1zm6.865 3.478c-.12-.833-.365-2.798-.365-4.978 0-2.004.207-3.829.334-4.758.525-.11 1.33-.242 2.166-.242s1.641.132 2.166.242c.127.929.334 2.754.334 4.758 0 2.18-.245 4.146-.365 4.978-.671.013-1.371.022-2.135.022s-1.464-.009-2.135-.022zm10.977-.388c-.81.093-2.378.24-4.679.33.11-.819.261-2.177.316-3.755.562-.06 1.682-.166 2.547-.166.641 0 1.313.06 1.794.114.086.47.18 1.153.18 1.886 0 .595-.074 1.152-.158 1.591zm-17.842-15.09c0-1.071.429-1.5 1.5-1.5s1.5.429 1.5 1.5-.429 1.5-1.5 1.5-1.5-.429-1.5-1.5zm-.973 3.393c.29-.977 1.473-1.393 2.473-1.393s2.184.416 2.473 1.393c.109.369-.129.762-.513.872-.546.157-1.193.234-1.961.234s-1.415-.078-1.961-.234c-.384-.11-.622-.504-.513-.872zm15.973-.393c0-1.071.429-1.5 1.5-1.5s1.5.429 1.5 1.5-.429 1.5-1.5 1.5-1.5-.429-1.5-1.5zm-.973 3.393c.29-.977 1.473-1.393 2.473-1.393s2.184.416 2.473 1.393c.109.369-.129.762-.513.872-.546.157-1.193.234-1.961.234s-1.415-.078-1.961-.234c-.384-.11-.622-.504-.513-.872zm-6.527-9.393c0-1.071.429-1.5 1.5-1.5s1.5.429 1.5 1.5-.429 1.5-1.5 1.5-1.5-.429-1.5-1.5zm-.973 3.393c.29-.977 1.473-1.393 2.473-1.393s2.184.416 2.473 1.393c.109.369-.129.762-.513.872-.546.157-1.193.234-1.961.234s-1.415-.078-1.961-.234c-.384-.11-.622-.504-.513-.872z"/></svg>