<svg id="Layer_1" viewBox="0 0 24 24" xmlns="http://www.w3.org/2000/svg" data-name="Layer 1"><path d="m8.818 4.115c-.184-.164-.256-.42-.183-.656s.276-.407.521-.438c.569-.073 1.075-.128 1.55-.163.21-.506.441-1.011.694-1.512.107-.212.325-.363.562-.345.237-.017.454.133.562.345.252.502.484 1.006.694 1.512.475.035.981.09 1.55.163.245.031.448.203.521.438s0 .492-.183.656c-.378.335-.741.659-1.107.97.16.556.293 1.112.399 1.667.044.232-.044.469-.23.614-.187.145-.437.175-.652.075-.568-.263-1.078-.537-1.553-.826-.475.289-.985.563-1.553.826-.215.1-.465.071-.652-.075-.186-.145-.274-.382-.23-.614.106-.555.239-1.111.399-1.667-.366-.311-.73-.635-1.107-.97zm14.182 14.885c0 1.175-.232 2.228-.371 2.75-.102.382-.418.668-.809.73-.132.021-3.315.52-9.82.52s-9.644-.495-9.774-.516c-.414-.067-.742-.385-.822-.797-.122-.624-.404-2.281-.404-4.188 0-2.31.334-4.267.348-4.349.07-.406.381-.727.784-.81.068-.014 1.683-.342 3.355-.342.794 0 1.654.12 2.216.215.118-1.145.246-1.899.256-1.956.065-.376.337-.682.703-.789.065-.02 1.614-.47 3.338-.47s3.273.45 3.338.47c.365.107.639.413.703.789.017.098.379 2.228.447 4.896.644-.065 1.68-.155 2.537-.155 1.334 0 2.72.217 2.778.227.388.061.704.344.809.723.016.058.388 1.435.388 3.051zm-15.163 1.921c-.136-1.015-.337-2.859-.337-4.921 0-.619.019-1.217.048-1.781-.462-.084-1.315-.219-2.06-.219-.847 0-1.699.1-2.268.185-.093.734-.219 1.971-.219 3.315 0 1.232.134 2.369.246 3.1.813.093 2.348.234 4.591.322zm6.663-4.921c0-2.004-.207-3.829-.334-4.758-.525-.11-1.33-.242-2.166-.242s-1.641.132-2.166.242c-.127.929-.334 2.754-.334 4.758 0 2.18.245 4.146.365 4.978.671.013 1.371.022 2.135.022s1.464-.009 2.135-.022c.12-.833.365-2.798.365-4.978zm6.5 3c0-.737-.094-1.418-.179-1.886-.481-.055-1.154-.114-1.796-.114-.865 0-1.984.107-2.546.166-.055 1.578-.206 2.936-.316 3.755 2.3-.09 3.869-.237 4.679-.33.084-.439.158-.998.158-1.591z"/></svg>