<svg id="Layer_1" viewBox="0 0 24 24" xmlns="http://www.w3.org/2000/svg" data-name="Layer 1"><path d="m15.009 10.692c-.029-3.241-3.209-3.188-4.633-3.189-.406.013-.764.271-.905.651-.048.129-.471 1.339-.471 3.845 0 2.324.259 3.642.27 3.696.105.545.647.892 1.175.784.541-.107.893-.633.786-1.174 0-.007-.089-.466-.156-1.313.297-.01.638-.035.99-.091.076.045.685.447.955 1.794.106.545.648.894 1.177.785.541-.108.893-.635.784-1.176-.204-1.023-.574-1.727-.945-2.221.572-.489.974-1.236.974-2.39zm-4.009 1.299c0-1.141.099-1.958.19-2.473 1.818.099 1.818.58 1.818 1.174 0 .6 0 1.218-2.009 1.299zm-2.991-1.299c-.029-3.241-3.209-3.188-4.633-3.189-.406.013-.764.271-.905.651-.048.129-.471 1.339-.471 3.845 0 2.482.264 3.672.274 3.721.12.541.669.874 1.192.753.538-.12.877-.653.76-1.191-.002-.007-.091-.426-.157-1.29 1.456-.048 3.939-.42 3.939-3.3zm-4.009 1.299c0-1.141.099-1.958.19-2.473 1.818.099 1.818.58 1.818 1.174 0 .6 0 1.218-2.009 1.299zm15-4.492c-1.99 0-3 1.009-3 3v3c0 1.991 1.01 3 3 3s3-1.009 3-3v-3c0-1.991-1.01-3-3-3zm1 6c0 .878-.121 1-1 1s-1-.122-1-1v-3c0-.878.121-1 1-1s1 .122 1 1zm-18.979-7.7c.268-1.304.545-2.051.557-2.083.109-.291.347-.515.644-.605.148-.045 3.699-1.111 9.779-1.111s9.631 1.065 9.779 1.111c.297.091.534.314.644.605.012.031.289.779.557 2.083.134.611-.357 1.208-.98 1.201-.465 0-.882-.326-.979-.799-.115-.562-.231-1.003-.319-1.307-1.141-.275-4.205-.895-8.701-.895s-7.562.619-8.701.895c-.088.303-.204.745-.319 1.307-.11.541-.636.893-1.181.778-.541-.111-.89-.64-.778-1.181zm21.959 12.402c-.268 1.304-.545 2.051-.557 2.083-.109.291-.347.515-.644.605-.148.045-3.699 1.111-9.779 1.111s-9.631-1.065-9.779-1.111c-.297-.091-.534-.314-.644-.605-.012-.031-.289-.779-.557-2.083-.111-.541.237-1.07.778-1.181.545-.114 1.07.237 1.181.778.115.562.231 1.003.319 1.307 1.141.275 4.205.895 8.701.895s7.562-.619 8.701-.895c.088-.303.204-.745.319-1.307.11-.541.636-.893 1.181-.778.541.111.89.64.778 1.181z"/></svg>