<svg id="Layer_1" viewBox="0 0 24 24" xmlns="http://www.w3.org/2000/svg" data-name="Layer 1"><path d="m10 21.98c-.02.55-.5.98-1.05.95-4.12-.2-6.35-.74-6.44-.76-.32-.08-.58-.31-.7-.62-.03-.09-.81-2.21-.81-5.55s.78-5.46.81-5.55c.12-.31.38-.54.7-.62.14-.03 3.44-.83 9.49-.83.55 0 1 .45 1 1s-.45 1-1 1c-4.42 0-7.33.45-8.47.66-.2.75-.53 2.28-.53 4.34s.33 3.59.53 4.34c.87.16 2.74.46 5.52.59.55.03.98.5.95 1.05zm-4.87-14.57c1.42-.19 3.76-.41 6.87-.41s5.45.22 6.87.41c.54.07 1.05-.31 1.12-.86s-.31-1.05-.86-1.12c-1.48-.19-3.91-.42-7.13-.42s-5.65.23-7.13.42c-.55.07-.93.57-.86 1.12s.57.93 1.12.86zm1.95-4.21c3.09-.26 6.74-.26 9.83 0h.09c.51 0 .95-.39 1-.92.05-.55-.36-1.03-.91-1.08-3.2-.27-6.97-.27-10.17 0-.55.05-.96.53-.91 1.08s.51.96 1.08.91zm15.92 13.8c0 4.15-1.85 6-6 6s-6-1.85-6-6 1.85-6 6-6 6 1.85 6 6zm-2 0c0-3.03-.97-4-4-4s-4 .97-4 4 .97 4 4 4 4-.97 4-4zm-2-1h-1v-1c0-.55-.45-1-1-1s-1 .45-1 1v1h-1c-.55 0-1 .45-1 1s.45 1 1 1h1v1c0 .55.45 1 1 1s1-.45 1-1v-1h1c.55 0 1-.45 1-1s-.45-1-1-1z"/></svg>