<?xml version="1.0" encoding="UTF-8"?>
<svg xmlns="http://www.w3.org/2000/svg" id="Layer_1" data-name="Layer 1" viewBox="0 0 24 24">
  <path d="M11.382,3.623l.08-.068c.264-.224,.663-.224,.93,.004,1.636,1.395,3.352,3.425,4.921,5.81-.172-.083-.354-.181-.543-.297-.473-.289-1.087-.142-1.375,.329-.289,.471-.142,1.086,.329,1.375,1.419,.872,2.597,1.028,3.259,1.028,.268,0,.452-.025,.533-.04,.255-.045,.484-.187,.637-.396,.103-.142,1-1.452,.739-3.872-.06-.549-.566-.949-1.101-.887-.549,.059-.946,.552-.887,1.101,.018,.172,.029,.335,.033,.489-1.661-2.511-3.489-4.663-5.247-6.162-1.006-.857-2.521-.86-3.527-.003l-.082,.07c-.419,.359-.468,.991-.108,1.41,.359,.419,.991,.467,1.41,.108Z"/>
  <path d="M22.845,15.805c-.192-.512-.757-.769-1.272-.583-.515,.185-.783,.754-.606,1.271,.075,.22,.005,.414-.044,.511-.095,.188-.263,.333-.461,.396-2.439,.771-4.968,.983-7.247,1.031,.145-.086,.303-.171,.475-.254,.498-.239,.708-.836,.469-1.334s-.836-.708-1.334-.469c-2.107,1.011-2.776,2.386-2.888,2.651-.101,.237-.106,.505-.015,.746,.062,.164,.669,1.633,2.836,2.732,.145,.074,.3,.108,.452,.108,.365,0,.716-.2,.893-.548,.25-.492,.053-1.094-.439-1.344-.186-.094-.354-.191-.507-.288,2.452-.047,5.202-.27,7.909-1.127,.708-.224,1.308-.734,1.644-1.401,.329-.651,.382-1.383,.136-2.1Z"/>
  <path d="M7.115,6.268c-.168-.048-1.71-.423-3.876,.685-.492,.251-.686,.854-.435,1.346,.251,.491,.853,.687,1.346,.435,.201-.103,.392-.187,.573-.257-1.462,2.242-2.718,4.656-3.545,6.845-.266,.704-.236,1.466,.083,2.146,.323,.688,.9,1.204,1.624,1.454,.393,.134,.786,.261,1.181,.377,.094,.028,.189,.041,.283,.041,.432,0,.83-.282,.958-.717,.156-.53-.146-1.086-.676-1.242-.367-.108-.733-.226-1.097-.351-.207-.071-.372-.218-.463-.413-.087-.187-.096-.396-.022-.589,.748-1.979,1.872-4.16,3.188-6.21-.016,.14-.037,.286-.066,.44-.102,.543,.256,1.065,.799,1.167,.062,.012,.124,.017,.185,.017,.472,0,.892-.335,.982-.816,.442-2.365-.34-3.756-.431-3.907-.132-.22-.344-.382-.592-.45Z"/>
</svg>
