<svg id="Layer_1" viewBox="0 0 24 24" xmlns="http://www.w3.org/2000/svg" data-name="Layer 1"><path d="m2.499 9c.026-1.484.874-1.993 2.001-2 1.123.007 1.976.547 2.001 2-.028 1.513-.874 1.993-2.001 2-1.123-.007-1.973-.491-2.001-2zm3.469 3.092c-.965-.121-1.973-.121-2.933 0-.844.105-1.571.665-1.946 1.497-.227.504-.002 1.096.501 1.323.508.227 1.097.002 1.323-.501.086-.191.225-.316.372-.335.797-.102 1.633-.102 2.434 0 .146.019.284.144.37.335.228.509.83.724 1.323.501.503-.228.728-.819.501-1.323-.375-.832-1.102-1.392-1.944-1.497zm13.533-7.092c1.127-.007 1.973-.487 2.001-2-.025-1.453-.878-1.993-2.001-2-1.127.007-1.974.516-2.001 2 .028 1.508.878 1.993 2.001 2zm-2.913 3.911c.504.228 1.096.004 1.323-.499.087-.192.226-.317.373-.336.797-.102 1.633-.102 2.434 0 .146.019.284.144.37.335.228.509.83.724 1.323.501.503-.228.728-.819.501-1.323-.375-.832-1.102-1.392-1.944-1.497-.965-.121-1.973-.121-2.933 0-.842.104-1.569.664-1.945 1.496-.228.503-.004 1.096.499 1.323zm2.913 6.089c-1.127.007-1.974.516-2.001 2 .028 1.508.878 1.993 2.001 2 1.127-.007 1.973-.487 2.001-2-.025-1.453-.878-1.993-2.001-2zm1.466 5.091c-.965-.121-1.973-.121-2.933 0-.842.104-1.569.664-1.945 1.496-.228.503-.004 1.096.499 1.323.504.229 1.096.003 1.323-.499.087-.192.226-.317.373-.336.797-.102 1.633-.102 2.434 0 .146.019.284.144.37.335.228.509.83.724 1.323.501.503-.228.728-.819.501-1.323-.375-.832-1.102-1.392-1.944-1.497zm-5.368-8.291c.442-.331.532-.958.2-1.399-.332-.443-.959-.531-1.399-.2-1.076.807-2.037 1.751-2.877 2.8h-1.523c-.553 0-1 .447-1 1s.447 1 1 1h1.523c.84 1.048 1.801 1.993 2.877 2.8.437.329 1.067.245 1.399-.2.332-.441.242-1.068-.2-1.399-.856-.644-1.636-1.381-2.323-2.2.687-.819 1.467-1.557 2.323-2.2z"/></svg>