<svg id="Layer_1" viewBox="0 0 24 24" xmlns="http://www.w3.org/2000/svg" data-name="Layer 1"><path d="m17 16c2.691 0 4-1.309 4-4s-1.309-4-4-4-4 1.309-4 4 1.309 4 4 4zm0-6c1.589 0 2 .411 2 2s-.411 2-2 2-2-.411-2-2 .411-2 2-2zm-7.2 8.4c.118.18.191.389.194.6.011.214-.085.418-.194.6-.91 1.213-1.986 2.29-3.2 3.2-.438.33-1.067.244-1.4-.2-.332-.442-.242-1.069.2-1.4.49-.367.946-.773 1.382-1.2h-1.782c-1.608 0-4-1.065-4-4 0-.552.448-1 1-1s1 .448 1 1c0 1.827 1.537 1.993 2.007 2h1.775c-.436-.427-.892-.833-1.382-1.2-.442-.331-.531-.958-.2-1.4.332-.441.958-.532 1.4-.2 1.213.91 2.29 1.986 3.2 3.2zm-3.8-11.4c1.991 0 3-1.009 3-3s-1.009-3-3-3-3 1.009-3 3 1.009 3 3 3zm0-4c.878 0 1 .122 1 1s-.122 1-1 1-1-.122-1-1 .122-1 1-1zm16.995 18.907c.051.55-.353 1.037-.903 1.088-.541.053-1.039-.352-1.088-.903-.182-1.958-.895-3.092-4.004-3.092s-3.822 1.134-4.004 3.092c-.051.55-.537.952-1.088.903-.55-.051-.955-.538-.903-1.088.311-3.348 2.216-4.908 5.996-4.908s5.685 1.56 5.996 4.908zm-12.003-10.03c.068.548-.321 1.047-.869 1.115-.537.07-1.05-.319-1.115-.869-.171-1.377-.701-2.123-3.008-2.123s-2.837.746-3.008 2.123c-.067.548-.565.94-1.115.869-.548-.068-.937-.567-.869-1.115.323-2.609 1.956-3.877 4.992-3.877s4.669 1.268 4.992 3.877z"/></svg>