<svg id="Layer_1" viewBox="0 0 24 24" xmlns="http://www.w3.org/2000/svg" data-name="Layer 1"><path d="m22.958 12.503c-.133-.79-.565-1.481-1.218-1.946-1.294-.963-3.275-.631-4.183.703-.996 1.397-2.055 2.545-3.172 3.439-.226-1.003-.981-1.842-1.99-2.145-.075-.022-1.873-.554-4.394-.554-2.985 0-5.581.497-5.69.519-.381.074-.686.362-.78.739-.021.086-.53 2.143-.53 4.242s.508 4.156.53 4.242c.094.375.395.663.774.738.106.021 2.632.52 5.696.52 5.679 0 10.539-2.779 14.443-8.26.465-.652.648-1.447.515-2.237zm-2.144 1.077c-3.508 4.924-7.819 7.42-12.814 7.42-1.983 0-3.758-.229-4.665-.371-.139-.711-.334-1.926-.334-3.129s.196-2.414.334-3.126c.923-.143 2.725-.374 4.665-.374 2.21 0 3.805.465 3.819.47.374.112.635.464.635.855.004.456-.29.784-.711.969-.914.385-1.858.622-2.832.71-.55.05-.956.536-.906 1.086s.537.968 1.086.906c3.838-.347 7.234-2.559 10.095-6.576.304-.445.961-.555 1.395-.234.444.304.554.963.234 1.394zm-15.314-11.58c0-.553.448-1 1-1s1 .447 1 1c0 .879.122 1 1 1s1-.121 1-1c0-.553.448-1 1-1s1 .447 1 1c0 1.99-1.009 3-3 3s-3-1.01-3-3zm-2.973 6.564c-.019-.119-.454-2.974-.52-6.545-.01-.553.429-1.008.981-1.019.536 0 1.008.43 1.019.981.044 2.428.272 4.549.403 5.592.887.167 2.521.427 4.089.427s3.202-.26 4.089-.427c.131-1.043.359-3.164.403-5.592.01-.552.481-.971 1.019-.981.552.011.992.466.981 1.019-.066 3.571-.501 6.426-.52 6.545-.062.404-.364.729-.762.822-.108.024-2.681.614-5.21.614s-5.102-.59-5.21-.614c-.398-.093-.7-.418-.762-.822z"/></svg>