<svg id="Layer_1" viewBox="0 0 24 24" xmlns="http://www.w3.org/2000/svg" data-name="Layer 1"><path d="m11.337 15.749c.189.167.426.251.663.251s.474-.084.663-.251c.546-.484 5.337-4.841 5.337-8.749 0-4.149-1.851-6-6-6s-6 1.851-6 6c0 3.908 4.791 8.265 5.337 8.749zm.663-12.749c3.028 0 4 .972 4 4 0 2.19-2.477 5.111-4 6.625-1.523-1.514-4-4.435-4-6.625 0-3.028.972-4 4-4zm0 6c-1.429 0-2-.571-2-2s.571-2 2-2 2 .571 2 2-.571 2-2 2zm9.983 1.819c-.073-.396-.376-.71-.769-.796 0 0-.381-.084-1.033-.204-.544-.104-1.064.259-1.165.802-.1.544.259 1.065.802 1.165.113.021.217.04.312.059.06.367.14.872.227 1.472-3.481 2.777-7.191 4.682-8.397 5.269-2.196-1.605-5.091-3.943-7.784-6.798.002 0 .003 0 .005-.001.543-.1.902-.621.802-1.165-.101-.543-.623-.907-1.165-.802-.652.12-1.033.204-1.033.204-.393.086-.696.4-.769.796-.042.226-1.017 5.586-1.017 10.069 0 .47.327.876.786.977.211.047 5.225 1.135 10.214 1.135s10.003-1.088 10.214-1.135c.459-.101.786-.507.786-.977 0-4.483-.975-9.844-1.017-10.069zm-18.437 3.198c3.052 3.086 6.201 5.491 8.336 6.981-3.6-.013-7.29-.628-8.871-.926.055-2.102.303-4.343.535-6.054zm11.74 6.831c-.269-.167-.773-.484-1.47-.955 1.56-.808 4.178-2.282 6.837-4.277.159 1.397.297 2.96.336 4.455-1.111.21-3.272.573-5.703.777z"/></svg>