<svg id="Layer_1" viewBox="0 0 24 24" xmlns="http://www.w3.org/2000/svg" data-name="Layer 1"><path d="m16.337 15.749c.189.167.426.251.663.251s.474-.084.663-.251c.546-.484 5.337-4.841 5.337-8.749 0-4.149-1.851-6-6-6s-6 1.851-6 6c0 3.908 4.791 8.265 5.337 8.749zm.663-12.749c3.028 0 4 .972 4 4 0 2.19-2.477 5.111-4 6.625-1.523-1.514-4-4.435-4-6.625 0-3.028.972-4 4-4zm0 6c-1.429 0-2-.571-2-2s.571-2 2-2 2 .571 2 2-.571 2-2 2zm4.878 6.006c-.552-.067-1.042.341-1.099.89-.193 1.843-.469 3.421-.628 4.255-.657.125-1.783.322-3.131.495-3.314-2.076-7.067-6.383-8.016-7.505.019-1.347.144-6.342.979-10.825.057-.307-.032-.622-.241-.854s-.513-.354-.825-.327c-3.312.274-6.019.863-6.132.889-.381.084-.679.381-.762.762-.042.19-1.023 4.714-1.023 9.215s.981 9.024 1.023 9.215c.083.381.381.679.762.762.19.042 4.713 1.023 9.214 1.023s9.024-.981 9.214-1.023c.381-.083.679-.381.762-.762.02-.092.495-2.271.792-5.11.058-.55-.341-1.042-.891-1.099zm-18.878-3.006c0-3.327.584-6.765.85-8.151.787-.15 2.234-.404 3.944-.595-.652 4.164-.769 8.336-.789 9.75-.651.489-2.096 1.531-3.822 2.501-.108-1.117-.182-2.317-.182-3.505zm.849 8.15c-.105-.554-.263-1.436-.413-2.507 1.89-.992 3.504-2.11 4.412-2.775 1.109 1.285 3.553 3.987 6.154 6.064-.661.04-1.332.068-2.002.068-3.327 0-6.765-.585-8.151-.85z"/></svg>