<svg id="Layer_1" viewBox="0 0 24 24" xmlns="http://www.w3.org/2000/svg" data-name="Layer 1"><path d="m14.3 7.927c-.395-.387-.401-1.02-.015-1.414s1.02-.401 1.414-.016c.257.252.525.495.801.727.626-.525 1.207-1.106 1.733-1.735.354-.423.985-.479 1.409-.124.423.354.479.985.125 1.409-.789.941-1.687 1.792-2.667 2.526-.355.267-.844.267-1.2 0-.559-.419-1.097-.881-1.6-1.373zm-3.3-.927c0-4.149 1.851-6 6-6s6 1.851 6 6-1.851 6-6 6-6-1.851-6-6zm2 0c0 3.028.972 4 4 4s4-.972 4-4-.972-4-4-4-4 .972-4 4zm10.025 11.865c-.002 1.128-.356 2.014-1.105 2.675-1.338 1.037-3.603 1.46-7.817 1.46-2.892 0-6.728-.417-8.779-1.347-.779-.479-1.268-1.147-1.568-2.189-.451-1.58-.021-4.646.395-7.61.17-1.503.435-2.694.64-4.107-1.519.119-2.521.244-2.533.246-.522.061-1.007-.285-1.107-.802-.075-.386-.15-1.262-.15-2.19.006-1.198.39-2.071 1.295-2.595 1.48-.928 4.399-1.256 6.669-1.359.541-.039 1.019.401 1.044.954.025.552-.402 1.019-.954 1.044-.952.043-1.769.118-2.482.209.278.466.427 1.051.427 1.747.001 2.743-.585 4.645-.869 7.131-.332 2.368-.787 5.611-.452 6.787.26.921.633 1.082 1.321 1.082.695 0 1-.112 1-1.192-.006-.623-.117-1.17-.194-1.66-.045-.308.054-.619.27-.843.217-.223.523-.335.833-.298 1.922.218 4.194.494 6.767.494.318 0 .632-.005.942-.014.013-.201.017-.385.036-.595.048-.55.52-.969 1.083-.909.55.048.957.532.909 1.083-.009.108-.01.202-.018.308 1.293-.105 2.387-.254 3.078-.363.532-.08 1.035.271 1.137.799.086.446.185 1.082.185 2.055zm-18.025-13.865c0-.794-.206-1-1-1-.39 0-.675.07-.803.199s-.198.412-.197.798c0 .324.01.631.025.898.503-.051 1.172-.112 1.959-.17.01-.236.015-.478.015-.726zm16.025 13.865c0-.277-.01-.521-.024-.731-1.378.181-3.358.377-5.507.366-2.003 0-3.949-.185-5.527-.359.02.217.033.443.033.667 0 .808-.159 1.416-.412 1.872 1.489.212 3.126.32 4.515.32 3.576 0 5.602-.312 6.55-1.008.226-.23.373-.521.373-1.127z"/></svg>