<svg id="Layer_1" viewBox="0 0 24 24" xmlns="http://www.w3.org/2000/svg" data-name="Layer 1"><path d="m5.992 8.007c.551 0 .998.447.998.998s-.447.998-.998.998-.998-.447-.998-.998.447-.998.998-.998zm17.008 8.487c0 2.78-.482 5.142-.502 5.242-.075.364-.347.656-.704.758-.07.02-1.742.49-3.786.49s-3.71-.46-3.78-.48c-.36-.1-.634-.394-.709-.76-.02-.1-.503-2.478-.503-5.258s.403-4.798.419-4.882c.039-.193.135-.369.273-.508 1.192-1.192 2.562-2.151 3.282-2.625.08-3.82-1.06-5.544-5.008-5.455-2.847 0-4.024.818-4.557 2.125 2.409.419 3.558 1.984 3.558 4.864 0 .848 0 3.262-2.055 4.381.156 3.068-.052 5.575-.061 5.688-.269 2.41-1.783 2.91-3.005 2.91-2.088 0-2.688-1.267-2.823-2.329-.039-.312.07-.624.295-.842.292-.283.492-.498.599-.642-.131-.185-.381-.464-.607-.669-.207-.188-.326-.455-.327-.735-.001-.279.115-.548.319-.738.214-.198.448-.458.587-.645-.144-.19-.381-.454-.601-.667-.202-.194-.313-.465-.306-.745.005-.215.014-.415.024-.607-2.021-1.128-2.021-3.518-2.021-4.359 0-3.177 1.401-4.752 4.351-4.952 1.039-3.597 4.242-4.036 6.63-4.036 5.043-.069 7.118 2.51 7.004 7.427.71.464 2.109 1.438 3.322 2.65.139.139.234.316.273.509.017.085.418 2.112.418 4.89zm-17.008-9.485c-2.295 0-2.995.7-2.995 2.995 0 2.146.714 2.561 1.383 2.782.439.145.721.572.682 1.033-.021.254-.039.507-.053.781.983 1.04.983 1.577.983 1.764 0 .415-.208.882-.621 1.395.349.435.621.926.621 1.404 0 .616-.368 1.146-.848 1.658.1.115.297.166.718.166.622 0 .906-.105 1.018-1.11 0-.001.234-2.842.014-6.064-.031-.458.254-.878.691-1.019.678-.217 1.402-.63 1.402-2.79 0-2.295-.7-2.995-2.995-2.995zm15.011 9.485c0-1.981-.223-3.571-.328-4.203-.963-.918-2.046-1.686-2.668-2.1-.622.414-1.704 1.181-2.668 2.1-.103.629-.328 2.214-.328 4.194 0 1.762.215 3.381.352 4.231.593.118 1.565.27 2.643.27 1.086 0 2.055-.155 2.644-.275.137-.845.351-2.456.351-4.218z"/></svg>