<svg id="Layer_1" viewBox="0 0 24 24" xmlns="http://www.w3.org/2000/svg" data-name="Layer 1"><path d="m22.014 18.005c-.53.016-1.006.434-1.014.985l-.014 1.011c0 .551-.448.999-.999.999-.537.011-1.01-.463-.999-1 .005-2.555.007-7.468.012-10 0-6.309-2.691-9-9-9s-9 2.691-9 9c-.074 3.125.476 12.298.503 12.084.042.521.476.921.997.921h3c.459 0 .859-.312.97-.758.04-.159.308-1.246.45-2.242h2.165c.142 1 .415 2.088.455 2.247.113.443.512.753.969.753h3c.46 0 .862-.314.971-.762.039-.159.301-1.246.445-2.238h2.061c-.024 1.609 1.385 3.029 3 2.995 1.654 0 2.999-1.346 2.999-2.984l.014-.996c.008-.553-.434-1.007-.986-1.015zm-12.014-15.005c5.168 0 7 1.832 7 6.999l-.002 2.001h-13.979c-.012-.668-.02-1.338-.02-2 0-5.168 1.832-7 7-7zm4.02 15.005c-.544 0-.989.436-1 .98-.009.493-.167 1.353-.309 2.02h-1.408c-.144-.662-.303-1.515-.303-2 0-.553-.448-1-1-1h-3.99c-.548 0-.995.441-1 .99-.005.489-.163 1.346-.306 2.01h-1.274c-.094-1.352-.264-4.039-.36-7.005h13.925l-.005 4.005h-2.971zm-5.019-10.005c0-.552.448-1 1-1s1 .448 1 1-.448 1-1 1-1-.448-1-1zm-4 0c0-.552.448-1 1-1s1 .448 1 1-.448 1-1 1-1-.448-1-1zm8 0c0-.552.448-1 1-1s1 .448 1 1-.448 1-1 1-1-.448-1-1z"/></svg>