<?xml version="1.0" encoding="UTF-8"?>
<svg xmlns="http://www.w3.org/2000/svg" id="Layer_1" data-name="Layer 1" viewBox="0 0 24 24">
  <path d="M22.688,8.728c-.884-2.017-2.398-4.736-4.592-6.234-1.196-.817-2.804-.812-4,.013-.425,.293-.841,.642-1.246,1.044-.026-.107-.053-.215-.081-.322-.091-.352-.365-.625-.716-.717-3.221-.838-6.487-.838-9.708,0-.351,.092-.625,.365-.716,.717-.837,3.226-.837,6.496,0,9.722,.091,.352,.365,.625,.716,.717,1.23,.32,2.476,.52,3.714,.596-.305,1.602-.191,3.215,.344,4.81,.398,1.189,1.345,2.138,2.532,2.536,1.014,.341,2.036,.512,3.057,.512s2.042-.171,3.056-.512c1.188-.398,2.134-1.346,2.533-2.536,.541-1.617,.651-3.251,.331-4.875,.835-.093,1.658-.25,2.457-.47,.99-.271,1.817-.969,2.267-1.913,.465-.975,.483-2.1,.051-3.087ZM3.427,4.307c2.507-.566,5.04-.566,7.547,0,.42,1.87,.529,3.757,.325,5.625-.789,.06-1.578,.221-2.362,.484-.957,.323-1.757,1.001-2.24,1.874-1.086-.034-2.182-.174-3.269-.419-.564-2.512-.564-5.052,0-7.563Zm12.259,14.13c-.201,.599-.676,1.075-1.273,1.275-1.628,.55-3.211,.549-4.839,0-.597-.2-1.072-.677-1.272-1.274-.547-1.633-.547-3.219,0-4.851,.2-.598,.676-1.075,1.273-1.275,.814-.273,1.617-.41,2.419-.41s1.605,.137,2.419,.41c.597,.2,1.073,.678,1.273,1.275,.546,1.632,.546,3.218,0,4.85Zm5.146-7.483c-.203,.426-.555,.727-.992,.847-.832,.228-1.695,.379-2.572,.45-.485-.855-1.276-1.518-2.219-1.835-.58-.195-1.163-.334-1.747-.417,.132-1.3,.128-2.606-.011-3.91,.622-.825,1.274-1.477,1.939-1.936,.521-.358,1.219-.361,1.737-.007,1.802,1.23,3.109,3.607,3.888,5.385,.199,.454,.19,.973-.024,1.423Z"/>
</svg>
