<svg id="Layer_1" viewBox="0 0 24 24" xmlns="http://www.w3.org/2000/svg" data-name="Layer 1"><path d="m3.5 3c0-1.429.571-2 2-2s2 .571 2 2-.571 2-2 2-2-.571-2-2zm6.092 4.124c.017.082.408 2.053.408 4.376s-.392 4.294-.408 4.376c-.081.399-.396.71-.796.785-.03.006-.344.063-.796.129v5.21c0 .553-.447 1-1 1s-1-.447-1-1v-5.012c-.338.016-.662.016-1 0v5.012c0 .553-.447 1-1 1s-1-.447-1-1v-5.21c-.452-.066-.766-.123-.796-.129-.4-.075-.715-.386-.796-.785-.017-.082-.408-2.053-.408-4.376s.392-4.294.408-4.376c.081-.399.396-.71.796-.785.073-.015 1.819-.339 3.296-.339s3.223.324 3.296.339c.4.075.715.386.796.785zm-1.592 4.376c0-1.344-.147-2.579-.256-3.307-.595-.087-1.479-.193-2.244-.193s-1.649.106-2.244.193c-.108.728-.256 1.963-.256 3.307s.147 2.579.256 3.307c.595.087 1.479.193 2.244.193s1.649-.106 2.244-.193c.108-.728.256-1.963.256-3.307zm10.5-6.5c1.429 0 2-.571 2-2s-.571-2-2-2-2 .571-2 2 .571 2 2 2zm4.504 12.493c-.011.546-.011.769-.008.86.064.492-.263.971-.744 1.09-.042.011-.55.139-1.249.267v2.265c0 .553-.447 1-1 1s-1-.447-1-1v-2.017c-.339.022-.661.022-1 0v2.017c0 .553-.447 1-1 1s-1-.447-1-1v-2.265c-.699-.128-1.207-.256-1.248-.267-.482-.119-.806-.595-.745-1.086.003-.091.003-.313-.007-.864-.053-2.869.61-7.654 1.647-9.933.465-1.049 1.426-1.586 2.853-1.586s2.389.537 2.857 1.595c1.033 2.27 1.696 7.055 1.644 9.924zm-3.468-9.104c-.075-.171-.184-.414-1.033-.414s-.957.243-1.028.405c-.914 2.034-1.544 6.628-1.468 9.294.666.135 1.658.301 2.496.301s1.83-.166 2.497-.301c.076-2.664-.554-7.261-1.464-9.285zm-7.536-7.389c-.553 0-1 .447-1 1v20c0 .553.447 1 1 1s1-.447 1-1v-20c0-.553-.447-1-1-1z"/></svg>