<svg id="Layer_1" viewBox="0 0 24 24" xmlns="http://www.w3.org/2000/svg" data-name="Layer 1"><path d="m23 12c0 7.71-3.29 11-11 11-4.347 0-7.242-1.082-8.975-3.329.019.397.046.793.102 1.188.078.547-.302 1.054-.848 1.132-.535.079-1.056-.299-1.131-.849-.197-1.376-.197-2.771 0-4.146.062-.439.408-.785.848-.849 1.376-.198 2.772-.196 4.146 0 .547.079.927.585.848 1.132s-.592.926-1.131.849c-.525-.075-1.054-.109-1.583-.118 1.293 2.082 3.673 2.99 7.725 2.99 6.561 0 9-2.439 9-9 0-.553.447-1 1-1s1 .447 1 1zm-21 1c.552 0 1-.447 1-1 0-6.561 2.439-9 9-9 4.052 0 6.432.908 7.725 2.99-.529-.009-1.057-.042-1.583-.118-.543-.074-1.052.302-1.132.849-.078.547.302 1.053.849 1.132.688.099 1.381.147 2.073.147s1.385-.049 2.072-.147c.439-.063.785-.409.849-.849.197-1.375.197-2.77 0-4.146-.08-.547-.584-.93-1.132-.849-.547.079-.927.585-.849 1.132.056.395.084.791.103 1.188-1.733-2.248-4.628-3.33-8.975-3.33-7.71.001-11 3.291-11 11.001 0 .553.448 1 1 1zm15.017-4.683c.021.075.483 1.86.483 3.683s-.463 3.607-.483 3.683c-.092.352-.368.626-.721.716-.097.024-2.393.602-4.296.602s-4.199-.577-4.296-.602c-.353-.09-.629-.364-.721-.716-.02-.075-.483-1.86-.483-3.683s.463-3.607.483-3.683c.092-.352.369-.626.721-.716.097-.024 2.393-.602 4.296-.602s4.199.577 4.296.602c.353.09.629.364.721.716zm-1.517 3.683c0-.983-.165-1.985-.287-2.594-.755-.16-2.095-.406-3.213-.406s-2.458.246-3.212.406c-.123.608-.288 1.61-.288 2.594s.165 1.985.288 2.594c.754.16 2.094.406 3.212.406s2.458-.246 3.213-.406c.122-.608.287-1.61.287-2.594zm-2.5-2h-2c-.552 0-1 .447-1 1s.448 1 1 1h2c.553 0 1-.447 1-1s-.447-1-1-1z"/></svg>