<svg id="Layer_1" viewBox="0 0 24 24" xmlns="http://www.w3.org/2000/svg" data-name="Layer 1"><path d="m22.561 16.106c-.217-.696-.823-1.207-1.549-1.302-.569-.072-1.094-.133-1.59-.179-.23-.527-.482-1.063-.753-1.603-.33-.649-.939-1.052-1.669-1.024-.68-.01-1.338.375-1.672 1.03-.269.535-.52 1.069-.75 1.597-.496.046-1.021.106-1.592.179-.725.095-1.332.606-1.546 1.302-.219.7-.005 1.467.543 1.952.362.322.715.636 1.065.941-.156.596-.291 1.19-.402 1.774-.132.692.13 1.393.688 1.828.559.435 1.303.517 1.938.221.605-.28 1.176-.574 1.729-.89.553.315 1.122.608 1.725.888.639.3 1.384.216 1.944-.221.555-.434.816-1.134.685-1.825-.111-.585-.246-1.18-.402-1.775.351-.306.703-.619 1.063-.939.55-.487.764-1.254.546-1.954zm-3.389 1.787c-.299.254-.422.659-.313 1.037.188.66.351 1.321.481 1.971-.641-.306-1.238-.628-1.82-.981-.16-.097-.34-.146-.52-.146s-.359.049-.52.146c-.581.354-1.178.675-1.82.981.131-.649.293-1.311.481-1.971.108-.378-.015-.783-.313-1.037-.432-.367-.86-.746-1.303-1.14.655-.08 1.249-.143 1.811-.185.376-.027.705-.266.85-.614.244-.588.518-1.192.814-1.796.298.606.571 1.209.814 1.796.145.349.474.587.85.614.562.042 1.156.104 1.811.185-.441.393-.871.772-1.303 1.14zm-9.679-5.893c3.752 0 5.5-1.748 5.5-5.5s-1.748-5.5-5.5-5.5-5.5 1.748-5.5 5.5 1.748 5.5 5.5 5.5zm0-9c2.649 0 3.5.851 3.5 3.5s-.851 3.5-3.5 3.5-3.5-.851-3.5-3.5.851-3.5 3.5-3.5zm.507 11.979c.014.552-.422 1.012-.974 1.026-4.28.112-5.913 1.744-6.026 6.021-.015.543-.46.974-.999.974h-.027c-.552-.015-.988-.475-.974-1.026.143-5.369 2.602-7.826 7.974-7.968h.027c.54 0 .984.431.999.974z"/></svg>