<svg id="Layer_1" viewBox="0 0 24 24" xmlns="http://www.w3.org/2000/svg" data-name="Layer 1"><path d="m22.45 16.106c-1.794-.903-3.533-1.889-5.112-2.851 1.147-1.506 1.662-3.131 1.662-5.256 0-4.841-2.159-7-7-7s-7 2.159-7 7c0 2.124.515 3.749 1.661 5.255-1.725 1.05-3.441 2.011-5.111 2.852-.402.202-.619.648-.531 1.09.563 2.815 2.813 5.136 4.664 5.752.285.096.598.058.854-.104 1.84-1.171 3.67-2.56 5.454-4.115 1.543 1.347 3.383 2.786 5.472 4.115.255.162.569.2.854.104 1.851-.616 4.101-2.937 4.664-5.752.088-.441-.129-.887-.531-1.09zm-8.745-5.2c.62-.479 1.107-.887 1.384-1.17.664-.678 1.494-1.736 1.791-3.434.079.5.12 1.06.12 1.697-.014 2.225-.654 3.286-1.364 4.189-.694-.446-1.343-.878-1.931-1.283zm-1.705-7.906c1.121 0 3 .26 3 2s-.677 2.661-1.34 3.337c-.217.222-.772.689-1.66 1.352-.816-.608-1.4-1.086-1.661-1.352-.662-.676-1.339-1.602-1.339-3.337s1.879-2 3-2zm-6.095 17.871c-.96-.514-2.177-1.753-2.729-3.35 1.574-.816 3.182-1.74 4.795-2.73.628.693 1.481 1.586 2.532 2.582-1.51 1.304-3.05 2.483-4.598 3.498zm12.19 0c-4.999-3.281-8.755-7.42-9.804-8.774-.638-.823-1.291-1.954-1.291-4.097 0-.625.035-1.182.112-1.674.298 1.691 1.137 2.735 1.799 3.411 1.161 1.185 6.186 4.814 11.913 7.785-.551 1.597-1.769 2.836-2.729 3.35z"/></svg>