<svg id="Layer_1" viewBox="0 0 24 24" xmlns="http://www.w3.org/2000/svg" data-name="Layer 1"><path d="m13 22c-.422.004-.82-.281-.949-.685-.022-.066-.5-1.526-.803-4.369-.708.035-1.377.054-1.998.054-3.255 0-6.744-.489-6.89-.51-.338-.048-.629-.266-.77-.576-.061-.133-.59-1.37-.59-3.914s.529-3.781.59-3.914c.141-.311.432-.528.77-.576.146-.021 3.635-.51 6.89-.51.621 0 1.29.019 1.998.054.303-2.844.781-4.303.803-4.369.098-.295.327-.527.62-.629.292-.101.617-.062.876.107 3.818 2.498 6.945 5.626 9.295 9.298.21.329.21.75 0 1.078-2.351 3.673-5.479 6.801-9.295 9.298-.165.107-.355.163-.548.163zm-.846-7.11c.516 0 .953.396.996.918.127 1.549.316 2.734.479 3.549 2.868-2.065 5.276-4.533 7.176-7.356-1.898-2.823-4.307-5.291-7.176-7.356-.162.814-.352 1.999-.479 3.549-.045.545-.529.941-1.066.916-1.028-.072-1.981-.108-2.833-.108-2.325 0-4.847.271-5.987.41-.118.488-.263 1.343-.263 2.59s.145 2.099.263 2.59c1.141.14 3.663.41 5.987.41.852 0 1.805-.036 2.833-.108.023 0 .047-.002.07-.002z"/></svg>