<svg id="Layer_1" viewBox="0 0 24 24" xmlns="http://www.w3.org/2000/svg" data-name="Layer 1"><path d="m22 21h-.266c.105-1.064.266-3.024.266-5 0-.911-.043-1.916-.122-2.98.073-.308.122-.64.122-1.02 0-1.011-.263-1.767-.781-2.268-.643-1.011-1.28-1.942-1.895-2.764-1.249-1.621-2.461-3.105-3.465-4.067-.33-1.256-1.281-1.902-2.86-1.902-1.991 0-3 1.009-3 3 0 .527.076.98.217 1.369l-3.302 3.302c-1.496-1.068-2.968-.86-4.475.647-1.278 1.278-1.423 2.458-1.435 2.588-.051.539.338 1.005.875 1.071.542.068 1.032-.322 1.113-.857.004-.025.104-.63.861-1.388.973-.972 1.441-.972 2.414 0 .486.486.732.892.732 1.207s-.247.721-.732 1.207c-.736.736-1.329.851-1.385.86-.538.063-.929.545-.878 1.087.05.552.548.955 1.089.902.13-.012 1.31-.157 2.588-1.435 1.507-1.507 1.715-2.978.647-4.475l3.302-3.302c.595 1.017 1.896 2.956 3.007 4.397.449.609 1.434 1.775 1.478 1.81.004.018-.115 1.808-.115 3.009 0 1.993.18 3.949.296 5h-.296c-.552 0-1 .448-1 1s.448 1 1 1h6c.552 0 1-.448 1-1s-.448-1-1-1zm-9-16c-.878 0-1-.122-1-1s.122-1 1-1 1 .122 1 1-.122 1-1 1zm3.409 5.21c-.112-.148-.488-.657-.605-.815-.68-.908-1.248-1.776-1.722-2.531.744-.191 1.272-.602 1.581-1.231.656.754 1.376 1.617 2.06 2.532.205.274.416.578.627.878-.912.121-1.56.511-1.941 1.166zm3.314 10.79h-1.414c-.106-.929-.309-2.971-.309-5 0-.416.008-.773.018-1.113.298.067.618.113.982.113.361 0 .679-.045.975-.111.013.38.025.759.025 1.111 0 2.005-.179 4.039-.277 5zm-.723-8c-.878 0-1-.122-1-1s.122-1 1-1 1 .122 1 1-.122 1-1 1z"/></svg>