<svg id="Layer_1" viewBox="0 0 24 24" xmlns="http://www.w3.org/2000/svg" data-name="Layer 1"><path d="m17.985 10.857c.159.095.336.143.515.143s.356-.047.515-.143c.408-.245 3.985-2.475 3.985-5.357 0-2.439-2.061-4.5-4.5-4.5s-4.5 2.061-4.5 4.5c0 2.883 3.578 5.113 3.985 5.357zm.515-7.857c1.183 0 2.5 1.027 2.5 2.5 0 1.231-1.53 2.597-2.501 3.299-.97-.699-2.499-2.061-2.499-3.299 0-1.473 1.317-2.5 2.5-2.5z"/><path d="m5.5 13c-2.439 0-4.5 2.061-4.5 4.5 0 2.883 3.578 5.113 3.985 5.357.159.095.336.143.515.143s.356-.047.515-.143c.408-.245 3.985-2.475 3.985-5.357 0-2.439-2.061-4.5-4.5-4.5zm-.001 7.799c-.97-.699-2.499-2.061-2.499-3.299 0-1.473 1.317-2.5 2.5-2.5s2.5 1.027 2.5 2.5c0 1.231-1.53 2.597-2.501 3.299z"/><path d="m18.5 14h-4.5c-.551 0-1-.449-1-1s.449-1 1-1 1-.448 1-1-.448-1-1-1c-1.654 0-3 1.346-3 3s1.346 3 3 3h4.5c1.378 0 2.5 1.122 2.5 2.5s-1.122 2.5-2.5 2.5h-7.5c-.552 0-1 .448-1 1s.448 1 1 1h7.5c2.481 0 4.5-2.019 4.5-4.5s-2.019-4.5-4.5-4.5z"/></svg>