<svg id="Layer_1" viewBox="0 0 24 24" xmlns="http://www.w3.org/2000/svg" data-name="Layer 1"><path d="m17 3h-.597c-1.072-.981-2.753-2-4.403-2s-3.331 1.019-4.404 2h-.596c-1.67 0-4 1.522-4 4 0 10.414.973 11.387 1.293 11.707 2.363 2.363 7.157 4.156 7.36 4.231.112.042.229.062.347.062s.235-.021.347-.062c.203-.075 4.996-1.868 7.36-4.231.32-.32 1.293-1.293 1.293-11.707 0-2.478-2.33-4-4-4zm-10 2h1c.269 0 .527-.108.715-.301.8-.818 2.169-1.699 3.285-1.699s2.485.881 3.285 1.699c.188.192.445.301.715.301h1c.705 0 2 .759 2 2 0 .482-.003.958-.008 1.425-1.517-.62-4.052-1.425-6.992-1.425s-5.49.814-6.992 1.426c-.005-.467-.008-.944-.008-1.426 0-1.241 1.295-2 2-2zm5 15.927c-1.105-.44-4.561-1.901-6.241-3.573-.328-.542-.595-3.234-.704-6.767 1.103-.517 3.769-1.587 6.946-1.587s5.808 1.051 6.947 1.588c-.107 3.53-.365 6.21-.654 6.705-1.721 1.72-5.188 3.192-6.293 3.634z"/></svg>