<svg id="Layer_1" viewBox="0 0 24 24" xmlns="http://www.w3.org/2000/svg" data-name="Layer 1"><path d="m21.977 2.785c-.083-.381-.381-.679-.762-.762-.19-.042-4.714-1.023-9.215-1.023s-9.024.981-9.215 1.023c-.381.083-.679.381-.762.762-.042.19-1.023 4.714-1.023 9.215s.981 9.024 1.023 9.215c.083.381.381.679.762.762.19.042 4.714 1.023 9.215 1.023s9.024-.981 9.215-1.023c.381-.083.679-.381.762-.762.042-.19 1.023-4.714 1.023-9.215s-.981-9.024-1.023-9.215zm-9.977 18.215c-3.326 0-6.765-.585-8.15-.85-.265-1.386-.85-4.824-.85-8.15s.585-6.765.85-8.15c1.386-.265 4.824-.85 8.15-.85s6.765.585 8.15.85c.265 1.386.85 4.824.85 8.15s-.585 6.765-.85 8.15c-1.386.265-4.824.85-8.15.85zm1-4c0 .553-.447 1-1 1s-1-.447-1-1c0-3.028-.972-4-4-4-.553 0-1-.447-1-1s.447-1 1-1c4.149 0 6 1.851 6 6zm5 0c0 .553-.447 1-1 1s-1-.447-1-1c0-6.561-2.439-9-9-9-.553 0-1-.447-1-1s.447-1 1-1c7.71 0 11 3.29 11 11zm-10 0c0 .552-.448 1-1 1s-1-.448-1-1 .448-1 1-1 1 .448 1 1z"/></svg>