<svg id="Layer_1" viewBox="0 0 24 24" xmlns="http://www.w3.org/2000/svg" data-name="Layer 1"><path d="m21.826 7.937c-.158-.232-.407-.387-.685-.426-.146-.021-3.634-.51-9.142-.51s-8.996.489-9.142.51c-.279.04-.529.196-.688.431-.048.071-1.171 1.763-1.171 4.059 0 2.316 1.126 3.993 1.174 4.063.158.232.407.387.685.426.146.021 3.634.51 9.142.51s8.996-.489 9.142-.51c.279-.04.529-.196.688-.431.048-.071 1.171-1.763 1.171-4.059 0-2.316-1.126-3.993-1.174-4.063zm-1.45 6.634c-.313.036-.786.086-1.376.138v-1.708c0-.552-.447-1-1-1s-1 .448-1 1v1.853c-.609.036-1.271.069-2 .095v-1.948c0-.552-.447-1-1-1s-1 .448-1 1v1.991c-.329.004-.654.009-1 .009s-.671-.005-1-.009v-1.991c0-.552-.447-1-1-1s-1 .448-1 1v1.948c-.73-.025-1.391-.058-2-.095v-1.853c0-.552-.447-1-1-1s-1 .448-1 1v1.708c-.591-.052-1.065-.102-1.378-.138-.245-.492-.622-1.433-.622-2.57 0-1.129.379-2.075.624-2.57 1.131-.131 4.174-.43 8.376-.43s7.249.299 8.378.43c.245.492.622 1.433.622 2.57 0 1.129-.379 2.075-.624 2.57z"/></svg>