<svg id="Layer_1" viewBox="0 0 24 24" xmlns="http://www.w3.org/2000/svg" data-name="Layer 1"><path d="m16.976 2.283c-.082-.37-.366-.662-.733-.753-.087-.021-2.144-.53-4.243-.53s-4.156.508-4.243.53c-.367.092-.651.383-.733.753-.042.188-1.024 4.665-1.024 9.717s.982 9.529 1.024 9.717c.082.37.366.662.733.753.087.021 2.144.53 4.243.53s4.156-.508 4.243-.53c.367-.092.651-.383.733-.753.042-.188 1.024-4.665 1.024-9.717s-.982-9.529-1.024-9.717zm-.995 10.717h-2.982c-.552 0-1 .448-1 1s.448 1 1 1h2.883c-.051.704-.115 1.374-.187 2h-2.697c-.552 0-1 .448-1 1s.448 1 1 1h2.431c-.106.691-.207 1.269-.282 1.662-.708.139-1.935.338-3.149.338s-2.439-.2-3.149-.339c-.263-1.386-.851-4.899-.851-8.661s.588-7.276.851-8.662c.708-.139 1.935-.338 3.149-.338s2.439.2 3.149.339c.075.393.176.97.281 1.661h-2.43c-.552 0-1 .448-1 1s.448 1 1 1h2.697c.071.626.135 1.296.187 2h-2.883c-.552 0-1 .448-1 1s.448 1 1 1h2.982c.009.332.018.663.018 1s-.01.668-.018 1z"/></svg>