<svg id="Layer_1" viewBox="0 0 24 24" xmlns="http://www.w3.org/2000/svg" data-name="Layer 1"><path d="m21.848 13.969c-.159-.254-.425-.424-.723-.461-.164-.021-4.077-.508-9.125-.508-.341 0-.677.002-1.006.006.004-.329.006-.665.006-1.006 0-5.09-.487-8.964-.508-9.126-.038-.297-.207-.562-.46-.721-.075-.047-1.862-1.153-4.031-1.153s-3.957 1.105-4.032 1.152c-.254.159-.424.424-.461.722-.021.164-.508 4.078-.508 9.125 0 5.083.501 9.568.506 9.612.053.464.418.83.882.881.045.005 4.571.506 9.611.506 5.09 0 8.964-.487 9.127-.508.297-.038.561-.207.72-.46.048-.075 1.153-1.862 1.153-4.031s-1.105-3.956-1.152-4.031zm-1.482 6.597c-1.209.13-4.451.434-8.365.434-3.686 0-7.09-.274-8.587-.414-.14-1.49-.413-4.875-.413-8.586 0-3.884.304-7.148.435-8.365.525-.251 1.502-.635 2.565-.635s2.042.384 2.566.634c.035.321.081.784.131 1.366h-1.697c-.552 0-1 .448-1 1s.448 1 1 1h1.844c.038.614.072 1.285.099 2h-1.943c-.552 0-1 .448-1 1s.448 1 1 1h1.993c.004.328.007.661.007 1s-.002.673-.006 1h-1.994c-.552 0-1 .448-1 1s.448 1 1 1h2v2c0 .552.448 1 1 1s1-.448 1-1v-1.994c.327-.004.66-.006 1-.006s.672.002 1 .007v1.993c0 .552.447 1 1 1s1-.448 1-1v-1.942c.714.027 1.385.061 2 .099v1.843c0 .552.447 1 1 1s1-.448 1-1v-1.696c.58.05 1.044.096 1.365.131.251.525.635 1.502.635 2.565s-.384 2.042-.635 2.566z"/></svg>