<?xml version="1.0" encoding="UTF-8"?>
<svg xmlns="http://www.w3.org/2000/svg" id="Layer_1" data-name="Layer 1" viewBox="0 0 24 24">
  <path d="M17.263,14.277c-1.599-.847-3.105-1.07-4.478-.662-.53,.157-.831,.714-.674,1.243,.157,.529,.708,.832,1.244,.674,.851-.254,1.853-.082,2.973,.512,.148,.079,.309,.116,.467,.116,.358,0,.705-.193,.885-.532,.259-.488,.072-1.093-.416-1.352Z"/>
  <path d="M9.101,12.713c-.31-.171-.685-.166-.988,.012-.383,.225-2.296,1.429-2.324,3.182,.044,1.47,1.359,2.777,2.843,2.798,1.456-.021,2.814-1.328,2.814-2.799,0-1.869-2.108-3.063-2.345-3.193Z"/>
  <path d="M11.994,1C4.929,1.044,1,4.841,1,11.982c0,7.018,3.933,10.977,11.006,11.018,7.162-.042,10.861-3.737,10.994-11.017-.122-7.037-4.026-10.938-11.006-10.983Zm.012,20c-6.026-.035-8.888-2.895-9.006-9,.113-6.019,3.059-8.963,8.994-9,5.873,.038,8.903,3.072,9.006,8.981-.112,6.117-2.974,8.983-8.994,9.019Z"/>
  <circle cx="8.617" cy="10.31" r="1.002"/>
  <circle cx="15.38" cy="10.31" r="1.002"/>
</svg>
