<svg id="Layer_1" viewBox="0 0 24 24" xmlns="http://www.w3.org/2000/svg" data-name="Layer 1"><path d="m2.94 11.83c2.143-.325 4.159-.611 6.066-.725.525-.035.933-.472.933-.998v-6.107c.025-.787-.95-1.29-1.578-.815-2.623 1.859-4.743 4.272-6.302 7.171-.369.635.152 1.498.881 1.473zm4.999-5.761v3.112c-.986.083-1.993.195-3.035.338.875-1.282 1.89-2.435 3.035-3.45zm14.072 7.99c-1.37-.268-4.588-.832-8.072-1.006v-2.002c2.875.136 5.86.53 7.823.881.758.166 1.425-.688 1.092-1.387-1.756-3.999-4.941-7.174-9.468-9.439-.635-.34-1.468.173-1.447.894v10.999c-4.197 0-8.442.741-10.073 1.059-.514.101-.863.581-.801 1.1.651 5.421 4.005 7.839 10.873 7.839s10.223-2.418 10.874-7.839c.062-.519-.287-1-.802-1.1zm-8.072-10.377c2.708 1.598 4.786 3.597 6.205 5.966-1.837-.263-4.053-.502-6.205-.6zm-2 17.317c-6.181 0-8.119-2.024-8.743-5.153 1.945-.344 5.369-.847 8.743-.847s6.798.503 8.742.847c-.624 3.129-2.561 5.153-8.742 5.153z"/></svg>