<svg id="Layer_1" viewBox="0 0 24 24" xmlns="http://www.w3.org/2000/svg" data-name="Layer 1"><path d="m22.999 12c0 .553-.448 1-1 1s-1-.447-1-1c0-6.547-2.434-8.98-8.98-8.98-.552 0-1-.447-1-1s.448-1 1-1c7.697 0 10.98 3.284 10.98 10.98zm-10.98-7.02c-.552 0-1 .447-1 1s.448 1 1 1c3.752 0 5.019 1.267 5.019 5.02 0 .553.448 1 1 1s1-.447 1-1c0-4.854-2.165-7.02-7.019-7.02zm6.207 13.039c.391.391.391 1.023 0 1.414-2.39 2.391-4.605 3.585-6.82 3.585s-4.43-1.194-6.82-3.585c-4.78-4.781-4.78-8.86 0-13.64.391-.391 1.023-.391 1.414 0l5.415 5.415.915-.915c.391-.391 1.023-.391 1.414 0s.391 1.023 0 1.414l-.915.915 5.396 5.396zm-2.138.69-10.779-10.778c-3.285 3.62-3.055 6.342.691 10.088 3.746 3.745 6.468 3.976 10.088.69z"/></svg>