<svg id="Layer_1" viewBox="0 0 24 24" xmlns="http://www.w3.org/2000/svg" data-name="Layer 1"><path d="m22.94 16.66c-.048-.134-1.147-3.118-3.705-6.145 1.036-1.177 1.896-2.202 2.511-2.951 1.188-1.392 2.109-3.106-.054-5.27-2.109-2.108-3.771-1.278-5.256-.066-1.013.832-1.999 1.677-2.965 2.525-3.022-2.55-5.999-3.646-6.133-3.694-.203-.074-.428-.08-.637-.015-.176.055-1.132.406-2.692 1.966-1.536 1.537-1.86 2.441-1.924 2.682-.055.212-.039.437.045.639.046.11.96 2.264 2.859 4.776-1.207.265-2.425 1.026-3.698 2.298-.387.372-.387 1.042 0 1.414l3.231 3.231-1.237 1.237c-.391.391-.391 1.023 0 1.414s1.023.391 1.414 0l1.237-1.237 3.243 3.243c.372.387 1.042.387 1.414 0 1.272-1.273 2.033-2.491 2.298-3.697 2.512 1.898 4.666 2.812 4.776 2.858.202.084.427.1.639.045.24-.063 1.145-.388 2.682-1.924 1.56-1.561 1.911-2.517 1.966-2.692.064-.208.06-.432-.015-.637zm-12.374-11.601c.456.313.924.658 1.399 1.047-.217.198-.447.395-.661.593-.365.34-.725.685-1.086 1.029l-1.161-1.161 1.508-1.509zm-3.526-1.965c.375.16 1.011.455 1.781.882l-1.177 1.178-1.441-1.441c.364-.305.653-.508.837-.618zm1.746 6.03c-.532.519-1.063 1.065-1.563 1.579-.366-.444-.695-.878-.998-1.303l1.419-1.419 1.142 1.142zm-4.627-3.169c.112-.186.316-.473.624-.835l1.447 1.447-1.126 1.126c-.447-.748-.766-1.366-.945-1.738zm5.701 14.603-6.418-6.418c2.034-1.71 3.571-1.486 5.738.68 2.166 2.167 2.393 3.703.68 5.738zm2.193-5.392c-.375-.578-.861-1.163-1.458-1.761-.602-.602-1.192-1.091-1.775-1.467 1.233-1.285 2.529-2.546 3.846-3.773 1.59-1.473 3.285-2.949 5.039-4.389 1.318-1.077 1.666-.977 2.574-.067.916.916 1.03 1.287-.065 2.572-.959 1.167-2.495 2.982-4.365 5.004-1.382 1.482-2.472 2.608-3.796 3.881zm2.546 2.609c-.43-.307-.87-.641-1.32-1.013.518-.501 1.063-1.023 1.584-1.561l1.155 1.155zm3.286-5.751c.392.478.741.95 1.056 1.41l-1.508 1.508-1.176-1.176c.524-.548 1.104-1.161 1.629-1.742zm.163 7.818c-.372-.179-.992-.498-1.741-.946l1.126-1.126 1.447 1.447c-.366.312-.652.515-.832.625zm2.24-2.046-1.441-1.44 1.176-1.176c.426.768.721 1.403.882 1.779-.113.188-.316.477-.618.837z"/></svg>