<svg id="Layer_1" viewBox="0 0 24 24" xmlns="http://www.w3.org/2000/svg"><path d="m21 13c0 .553.448 1 1 1s1-.447 1-1c0-4.587-.996-8.126-1.039-8.274-.095-.332-.354-.592-.687-.688-.069-.019-.878-.245-2.275-.48v-1.558c0-.553-.448-1-1-1s-1 .447-1 1v1.278c-1.388-.158-3.069-.278-5-.278s-3.612.12-5 .278v-1.278c0-.553-.448-1-1-1s-1 .447-1 1v1.558c-1.397.236-2.206.461-2.275.48-.332.096-.592.355-.687.688-.042.148-1.039 3.688-1.039 8.274s.996 8.126 1.039 8.274c.095.332.355.592.687.688 0 0 .373.106 1.069.253.527.115 1.073-.229 1.184-.773.114-.54-.232-1.07-.773-1.184-.144-.03-.271-.059-.383-.084-.267-1.133-.823-3.893-.823-7.174 0-1.089.064-2.112.156-3.045.668-.171 3.987-.955 8.844-.955s8.176.783 8.844.955c.092.934.156 1.956.156 3.045zm-9-6c-4.099 0-7.122.523-8.571.836.142-.871.289-1.567.393-2.009 1.167-.265 4.125-.827 8.178-.827s7.01.562 8.178.827c.104.442.251 1.138.393 2.009-1.449-.314-4.472-.836-8.571-.836zm-.3 13.454c0 1.404-1.142 2.546-2.545 2.546-1.077 0-2.042-.682-2.401-1.697-.147-.416.071-.873.488-1.021.416-.147.874.071 1.021.487.133.377.492.631.892.631.521 0 .945-.425.945-.946s-.424-.945-.945-.945c-1.243 0-2.254-1.011-2.254-2.254s1.011-2.255 2.254-2.255c.896 0 1.708.531 2.066 1.353.177.405-.008.877-.414 1.054-.404.175-.876-.008-1.053-.413-.104-.239-.339-.394-.6-.394-.361 0-.655.294-.655.655s.294.654.655.654c1.403 0 2.545 1.142 2.545 2.545zm11.055-4.091c-.125.313-.425.503-.743.503-.447-.04-.3-.131-1.2-.226v5.56c0 .441-.358.8-.8.8s-.8-.358-.8-.8v-5.56c-.594.061-.907.171-.912.172-.414.152-.873-.051-1.03-.459-.158-.409.038-.867.445-1.03.083-.033.852-.323 2.297-.323s2.214.29 2.297.323c.411.164.61.63.446 1.04zm-7.077-1.017c-.149-.217-.396-.346-.659-.346-.233.015-.512.13-.661.349-.125.184-.784 1.206-1.436 3.287-.699 2.231-.704 3.514-.703 3.566 0 .44.358.796.798.796h.001c.44 0 .797-.356.8-.797 0-.006.009-.403.138-1.121h2.124c.129.718.138 1.114.138 1.118-.001.441.355.801.797.802h.002c.441 0 .799-.356.8-.798 0-.053-.004-1.335-.703-3.566-.672-2.145-1.361-3.179-1.438-3.29zm-1.336 4.134c.183-.664.474-1.457.678-1.932.202.472.494 1.268.677 1.932z"/></svg>