<svg id="Layer_1" viewBox="0 0 24 24" xmlns="http://www.w3.org/2000/svg" data-name="Layer 1"><path d="m6.99 6c-1.704.005-3.214.2-4.327.409.141-.947.476-2.034.837-2.598.244-.381.808-.362 1.012.042l.55 1.147c0-1.273.345-2.697 1.401-3.741.277-.274.705-.335 1.055-.163l.486.238c1.164.695 3.008 2.347 3.353 5.079-1.118-.211-2.642-.408-4.368-.414zm16.01-4c0 .553-.448 1-1 1-.649 0-1.461.07-2.414.21-.566.07-.954.677-.809 1.226.448 1.879.946 4.651.999 7.334.146 7.333-4.059 11.23-10.315 11.23h-.461c-3.533 0-6-2.673-6-6.5 0-4.033-1.75-6.2-1.767-6.222-.433-.496-.22-1.342.397-1.57.229-.092 2.422-.698 5.366-.708 2.951.01 5.144.616 5.373.708.616.223.831 1.067.407 1.559-.203.316-1.297 2.318-1.782 4.638-.106.506.022 1.029.353 1.437.34.419.845.659 1.384.659.045 0 4.527-.139 5.05-5.067 0-.65-.047-1.358-.115-2.09l-.754.196c-.521.139-1.082-.177-1.22-.716-.139-.534.181-1.08.716-1.22l1.001-.26c-.075-.469-.157-.945-.256-1.437l-1.062.1c-.541.055-1.04-.35-1.09-.901-.052-.55.352-1.037.901-1.089l.867-.082c-.16-1.523 1.002-3.012 2.526-3.203 1.048-.153 1.958-.231 2.703-.231.552 0 1 .447 1 1zm-7 16.103c-1.058.542-2.385.897-3.268.897-1.144 0-2.215-.51-2.937-1.398-.712-.876-.988-2.009-.759-3.107.303-1.447.9-3.04 1.45-4.179-.826-.149-2.047-.311-3.491-.315-1.39.005-2.575.155-3.403.302.637 1.232 1.406 3.317 1.406 6.198 0 2.691 1.607 4.5 4 4.5h.461c2.385 0 4.799-.562 6.539-2.897z"/></svg>