<svg id="Layer_1" viewBox="0 0 24 24" xmlns="http://www.w3.org/2000/svg" data-name="Layer 1"><path d="m23 22c0 .552-.447 1-1 1h-1c-.553 0-1-.448-1-1s.447-1 1-1h1c.553 0 1 .448 1 1zm-9.007-7.152c-.266 6.438-7.915 8.152-11.993 8.152-.346 0-.667-.179-.85-.473-.182-.294-.199-.662-.045-.972 3.24-6.518 8.196-11.467 11.157-14.423 3.059-3.132 6.685-6.01 6.612-5.926.217-.166.493-.235.761-.194.137.021 1.358.232 2.24 1.115.881.881 1.093 2.103 1.114 2.239.042.27-.028.544-.193.761-.091.119-2.263 2.949-5.658 6.344-1.938 1.938-2.813 2.965-3.144 3.376zm-1.998-.275c-.055-.248-.257-1.017-.773-1.532-.369-.369-.866-.576-1.213-.685-2.109 2.329-4.41 5.192-6.279 8.515 2.847-.347 8.207-1.625 8.265-6.298zm1.338-2.022c.538-.596 1.3-1.404 2.39-2.494 2.593-2.592 4.48-4.884 5.183-5.763-.089-.244-.233-.54-.446-.753-.215-.215-.512-.358-.752-.446-.821.64-3.601 2.979-6.033 5.452-.652.651-1.405 1.404-2.214 2.248.395.199.81.465 1.176.832.289.289.515.608.697.924zm4.667 8.449h-1c-.553 0-1 .448-1 1s.447 1 1 1h1c.553 0 1-.448 1-1s-.447-1-1-1zm-4 0h-1c-.552 0-1 .448-1 1s.448 1 1 1h1c.553 0 1-.448 1-1s-.447-1-1-1z"/></svg>