<svg id="Layer_1" viewBox="0 0 24 24" xmlns="http://www.w3.org/2000/svg" data-name="Layer 1"><path d="m22.464 14.303c-.061-.07-.091-.153-.141-.232-4.092-5.056-10.274-9.431-16.964-12.004-.516-.199-1.095.059-1.293.574s.06 1.094.574 1.292c5.463 2.101 10.553 5.459 14.341 9.392-1.617-.168-3.936-.325-6.981-.325-6.398 0-9.627.694-9.761.724-.313.069-.575.285-.703.58-.055.127-.536 1.294-.536 3.197s.481 3.07.536 3.197c.128.295.39.511.703.58.134.03 3.362.724 9.761.724s9.627-.694 9.761-.724c.313-.069.575-.285.703-.58.055-.127.536-1.294.536-3.197s-.481-3.07-.536-3.197zm-1.689 5.12c-1.154.189-4.098.577-8.775.577s-7.621-.388-8.775-.577c-.104-.413-.225-1.074-.225-1.923s.121-1.512.225-1.923c1.154-.189 4.098-.577 8.775-.577s7.621.388 8.775.577c.104.413.225 1.074.225 1.923s-.12 1.511-.225 1.923zm-14.775-1.923c0 .552-.448 1-1 1s-1-.448-1-1 .448-1 1-1 1 .448 1 1zm3 0c0 .552-.448 1-1 1s-1-.448-1-1 .448-1 1-1 1 .448 1 1z"/></svg>