<svg id="Layer_1" viewBox="0 0 24 24" xmlns="http://www.w3.org/2000/svg" data-name="Layer 1"><path d="m9.535 2.26c-.142-.532.174-1.081.706-1.225.525-.141 1.079.169 1.225.701.014.053.242.933.396 2.6-.586-.105-1.268-.195-2.036-.257-.131-1.187-.288-1.809-.291-1.82zm4.705-1.224c-.532.144-.848.692-.706 1.225.003.012.224.886.36 2.56.176.056.311.102.358.119.803.302 1.424.929 1.734 1.721-.069-3.192-.501-4.85-.521-4.924-.146-.532-.697-.842-1.225-.701zm-8.48 3.078c.679-.067 1.422-.114 2.24-.114.268 0 .515.013.769.022-.14-1.216-.309-1.872-.321-1.916-.217-.796-1.032-1.262-1.834-1.051-.798.213-1.271 1.035-1.062 1.833.002.008.107.423.209 1.226zm8.383 3.301c.035.099.857 2.466.857 7.085s-.823 6.986-.857 7.085c-.099.278-.315.498-.591.602-.088.033-2.208.813-5.551.813s-5.463-.78-5.551-.813c-.276-.104-.492-.324-.591-.602-.035-.099-.857-2.466-.857-7.085s.823-6.986.857-7.085c.099-.278.315-.498.591-.602.088-.033 2.208-.813 5.551-.813s5.463.78 5.551.813c.276.104.492.324.591.602zm-1.143 7.085c0-3.115-.399-5.11-.612-5.955-.73-.201-2.287-.545-4.388-.545s-3.657.344-4.388.545c-.213.843-.612 2.838-.612 5.955s.398 5.11.612 5.955c.731.202 2.289.545 4.388.545s3.657-.344 4.388-.545c.213-.843.612-2.838.612-5.955zm-2.203-3.521c.135 1.08.203 2.265.203 3.521s-.068 2.435-.202 3.52c-.057.458-.418.817-.876.871-.556.065-1.238.098-1.921.098s-1.365-.032-1.922-.098c-.458-.053-.819-.412-.876-.869-.135-1.079-.203-2.264-.203-3.521 0-1.251.068-2.435.202-3.52.057-.458.419-.817.877-.871 1.111-.129 2.727-.129 3.841 0 .458.053.82.412.877.869zm-1.797 3.521c0-.866-.034-1.692-.102-2.467-.579-.028-1.218-.028-1.796 0-.068.777-.102 1.603-.102 2.466s.034 1.693.102 2.467c.578.028 1.217.028 1.796 0 .068-.777.102-1.604.102-2.467zm8.24-13.464c-.532.144-.848.692-.706 1.225.004.018.465 1.786.465 5.24s-.461 5.222-.465 5.237c-.145.533.169 1.083.702 1.228.519.146 1.084-.164 1.228-.702.022-.08.535-2.006.535-5.763s-.513-5.683-.535-5.763c-.145-.532-.69-.843-1.225-.701zm5.253 1.069c-.217-.797-1.034-1.264-1.834-1.051-.797.213-1.271 1.035-1.062 1.833.004.015.403 1.571.403 4.612s-.399 4.597-.402 4.605c-.218.799.253 1.624 1.053 1.842.778.219 1.626-.247 1.842-1.053.021-.076.507-1.9.507-5.395s-.487-5.319-.507-5.395z"/></svg>