<svg id="Layer_1" viewBox="0 0 24 24" xmlns="http://www.w3.org/2000/svg" data-name="Layer 1"><path d="m15.999 3c0-.553.448-1 1-1h5c.552 0 1 .447 1 1s-.448 1-1 1h-5c-.552 0-1-.447-1-1zm-1.427-.912c.018.073.427 1.329.427 4.412 0 2.955-.376 4.413-.539 4.688-.159.27-.435.449-.746.485-.077.009-1.355.156-2.953.25l-.357 1.165c-.102.31-.203.611-.304.912h.898c.552 0 1 .447 1 1s-.448 1-1 1h-1.588c-.739 2.082-1.429 3.833-1.977 4.996-.591 1.252-1.817 2.004-3.125 2.004-.322 0-.648-.045-.972-.14-1.649-.57-2.606-2.275-2.271-3.98.277-1.408 1.201-4.67 2.247-7.953-1.342-.875-2.235-2.371-2.3-4.03-.009-.231-.009-.564 0-.796.086-2.186 1.604-4.094 3.701-4.663.782-.303 2.012-.437 3.79-.438 2.477.01 5.101.313 5.212.326.417.049.759.353.856.762zm-5.923 9.91c-1.351.023-2.731-.088-3.481-.302-.991 3.126-1.882 6.271-2.138 7.569-.146.744.239 1.455.917 1.689.644.192 1.367-.148 1.68-.812.356-.757 1.351-3.019 2.874-7.658l.149-.486zm4.35-5.498c0-1.751-.142-2.536-.251-3.264-.944-.09-2.653-.229-4.253-.236-1.945-.014-2.797.195-3.218.358-1.457.565-2.213 1.49-2.266 2.822-.007.186-.007.452 0 .638.053 1.332.984 2.493 2.266 2.823.524.188 1.032.342 3.217.358 1.646-.008 3.406-.155 4.333-.245.076-.446.172-1.794.172-3.255zm9 2.5h-5c-.552 0-1 .447-1 1s.448 1 1 1h5c.552 0 1-.447 1-1s-.448-1-1-1zm-.5 4h-4c-.829 0-1.5.672-1.5 1.5s.671 1.5 1.5 1.5h4c.829 0 1.5-.672 1.5-1.5s-.671-1.5-1.5-1.5zm.5 7h-5c-.552 0-1 .447-1 1s.448 1 1 1h5c.552 0 1-.447 1-1s-.448-1-1-1zm-.5-15h-4c-.829 0-1.5.672-1.5 1.5s.671 1.5 1.5 1.5h4c.829 0 1.5-.672 1.5-1.5s-.671-1.5-1.5-1.5zm.5 12h-5c-.552 0-1 .447-1 1s.448 1 1 1h5c.552 0 1-.447 1-1s-.448-1-1-1z"/></svg>