<svg id="Layer_1" viewBox="0 0 24 24" xmlns="http://www.w3.org/2000/svg" data-name="Layer 1"><path d="m19 18c0 .828-.672 1.5-1.5 1.5s-1.5-.672-1.5-1.5.672-1.5 1.5-1.5 1.5.672 1.5 1.5zm-9.097-10.2c.055 1.593.097 3.768.097 5.2 0 3.497-.26 6.428-.373 7.525-.02.2-.1.389-.229.542-.59.701-1.179 1.268-1.798 1.732-.178.133-.389.2-.6.2s-.422-.066-.6-.2c-.62-.464-1.208-1.031-1.798-1.732-.129-.154-.209-.343-.229-.542-.112-1.098-.373-4.028-.373-7.525 0-1.432.042-3.607.097-5.2-1.115-.957-2.054-2.114-2.897-3.199-.13-.173-.2-.384-.2-.6v-1.156c0-.394.23-.75.589-.912.084-.038 2.109-.933 5.411-.933s5.326.895 5.411.933c.359.161.589.518.589.912v1.156c0 .216-.07.427-.2.6-.843 1.085-1.782 2.242-2.897 3.199zm-2.02 9.298-1.586 1.665c-.02.021.006.954.034 1.248.223.252.445.48.668.687.223-.207.445-.435.668-.687.056-.586.143-1.618.214-2.913zm.117-4.098c0-.454-.005-.997-.013-1.573l-1.983 1.983c.006.953.03 1.862.065 2.693l1.922-1.988c.006-.365.01-.736.01-1.115zm-.071-4.343c-.007-.227-.013-.447-.02-.657h-1.817c-.026.774-.048 1.674-.065 2.559zm3.071-4.995v-.113c-.735-.224-2.128-.55-4-.55s-3.263.326-4 .55v.113c.618.797 1.313 1.581 2.076 2.337h3.849c.762-.756 1.458-1.54 2.076-2.337zm11.943 14.628c-.518 1.602-1.356 2.991-2.494 4.127-.123.123-.276.212-.443.258-.798.217-1.653.326-2.51.326s-1.712-.109-2.51-.326c-.167-.046-.32-.134-.443-.257-1.137-1.135-1.976-2.524-2.495-4.128-.063-.195-.064-.406-.004-.602.458-1.489 1.293-2.877 2.482-4.124.137-.144.312-.243.506-.286 1.658-.369 3.27-.369 4.928 0 .193.043.37.143.507.287 1.188 1.248 2.022 2.635 2.481 4.123.061.196.059.407-.005.602zm-2.006-.313c-.354-.993-.928-1.935-1.712-2.809-1.174-.226-2.287-.226-3.459 0-.784.873-1.358 1.815-1.712 2.809.393 1.083.968 2.034 1.716 2.833 1.098.253 2.354.253 3.451 0 .748-.8 1.324-1.751 1.716-2.833z"/></svg>