<svg id="Layer_1" viewBox="0 0 24 24" xmlns="http://www.w3.org/2000/svg" data-name="Layer 1"><path d="m17.411 1.933c-.084-.038-2.109-.933-5.411-.933s-5.326.895-5.411.933c-.359.161-.589.518-.589.912v1.156c0 .216.07.427.2.6.843 1.085 1.782 2.243 2.897 3.199-.055 1.593-.097 3.768-.097 5.2 0 3.497.26 6.428.373 7.525.02.2.1.389.229.542.59.701 1.179 1.268 1.798 1.732.178.133.389.2.6.2s.422-.066.6-.2c.62-.464 1.208-1.031 1.798-1.732.129-.154.209-.343.229-.542.112-1.098.373-4.028.373-7.525 0-1.432-.042-3.607-.097-5.2 1.115-.957 2.054-2.114 2.897-3.199.13-.173.2-.384.2-.6v-1.156c0-.394-.23-.75-.589-.912zm-4.742 18.078c-.223.252-.445.48-.668.687-.223-.207-.445-.435-.668-.687-.025-.261-.075-.746-.112-1.199l1.664-1.714c-.071 1.295-.159 2.327-.214 2.913zm.322-5.89-1.922 1.982c-.035-.831-.059-1.74-.065-2.693l1.983-1.983c.008.576.013 1.119.013 1.573 0 .381-.004.755-.01 1.121zm-1.964-3.562c.016-.885.039-1.785.065-2.559h1.817c.007.211.014.43.02.657zm4.973-6.896c-.618.797-1.313 1.581-2.076 2.337h-3.849c-.762-.756-1.458-1.54-2.076-2.337v-.113c.737-.224 2.129-.55 4-.55s3.265.326 4 .55v.113z"/></svg>