<svg id="Layer_1" viewBox="0 0 24 24" xmlns="http://www.w3.org/2000/svg" data-name="Layer 1"><path d="m17.5 22.999c-1.123 0-2.213-.545-3.334-1.665-2.231-2.231-2.231-4.31 0-6.541l6.248-6.365c.781-.781.781-1.074.007-1.849-.759-.759-1.085-.757-1.842 0 0 0-10.581 10.721-11.744 11.884-1.567 1.568-3.103 1.568-4.67 0-1.549-1.55-1.549-3.12 0-4.67 1.158-1.159 8.464-8.096 8.774-8.391.755-.756.755-1.049-.019-1.823-.758-.758-1.085-.757-1.842 0-.013.013-3.753 3.622-6.388 6.144-.399.382-1.032.368-1.414-.031-.382-.398-.368-1.032.031-1.414 2.633-2.52 6.371-6.126 6.371-6.126 1.542-1.542 3.088-1.557 4.657.013 1.549 1.55 1.549 3.12 0 4.67-.094.09-7.616 7.231-8.756 8.372-.774.774-.774 1.067 0 1.842.758.758 1.084.758 1.842 0 1.162-1.162 11.739-11.879 11.739-11.879 1.577-1.577 3.106-1.574 4.675-.005 1.549 1.55 1.549 3.12 0 4.67l-6.248 6.365c-1.446 1.447-1.446 2.279-.007 3.72.727.726 1.354 1.079 1.92 1.079 2.042 0 3.778-1.691 3.795-1.708.391-.389 1.023-.386 1.413.005.388.392.388 1.021-.001 1.411-.094.094-2.326 2.292-5.207 2.292z"/></svg>