<svg id="Layer_1" viewBox="0 0 24 24" xmlns="http://www.w3.org/2000/svg" data-name="Layer 1"><path d="m12.005 9.601-.062 1.354c-.013.27.085.534.271.731s.443.311.714.315l1.487.02c1.231-.055 2.385-.563 3.248-1.432l4.46-4.468c1.169-1.17 1.169-3.072 0-4.241-.566-.567-1.319-.879-2.121-.879-.802 0-1.555.313-2.122.88l-4.453 4.46c-.861.868-1.365 2.026-1.419 3.26zm1.998.089c.032-.737.331-1.427.839-1.938l4.451-4.458c.188-.189.439-.293.707-.293s.518.104.707.293c.39.39.39 1.023 0 1.414l-4.462 4.47c-.51.513-1.191.813-1.86.844l-.396-.006.015-.325zm8.837 7.119c-.104-.528-.604-.881-1.137-.797-.682.107-1.757.253-3.031.358.048-.623.124-1.349.239-2.243.069-.548-.317-1.049-.865-1.119-.545-.074-1.049.317-1.119.865-.134 1.051-.221 1.897-.268 2.612-.323.01-.651.015-.983.015-2.367-.006-4.716-.257-6.416-.454-.407-.074-.881-.081-1.184.258-.29.284-.325.706-.231 1.082.058.347.155.926.155 1.421 0 1.08-.305 1.192-1 1.192-.688 0-1.061-.162-1.32-1.082-.336-1.174.119-4.414.45-6.779.284-2.49.871-4.393.87-7.139 0-.692-.148-1.274-.423-1.738 1.169-.157 2.504-.262 3.764-.262 1.423.006 2.6.042 3.561.137.542.062 1.04-.347 1.094-.896.055-.55-.347-1.039-.896-1.094-.991-.098-2.169-.146-3.592-.146-1.409 0-7.139.239-8.573 1.649-.639.547-.933 1.317-.934 2.351 0 .921.075 1.797.149 2.188.099.519.591.866 1.107.805.013-.001 1.015-.127 2.533-.247-.201 1.38-.483 2.702-.641 4.115-.415 2.962-.845 6.025-.394 7.603.299 1.042.789 1.711 1.568 2.189 2.051.93 5.887 1.347 8.778 1.347 4.215 0 6.479-.423 7.817-1.459.749-.662 1.103-1.546 1.105-2.675 0-1.103-.135-1.795-.186-2.056zm-17.856-11.084c-.787.058-1.455.12-1.959.17-.015-.268-.025-.575-.025-.898 0-.385.068-.668.197-.797.128-.128.413-.199.803-.199.794 0 1 .206 1 1 0 .249-.005.49-.016.725zm15.668 14.267c-.947.697-2.974 1.008-6.55 1.008-1.389 0-3.025-.108-4.515-.32.253-.456.412-1.064.412-1.872 0-.224-.013-.45-.033-.667 1.579.175 3.524.36 5.527.36 2.161.014 4.131-.185 5.507-.366.015.21.024.453.024.731 0 .607-.147.897-.373 1.126z"/></svg>