<svg id="Layer_1" viewBox="0 0 24 24" xmlns="http://www.w3.org/2000/svg" data-name="Layer 1"><path d="m15.085 9.484c-.076-.024-.593-.174-1.538-.267-.472-.597-.807-.9-.897-.977-.373-.321-.928-.321-1.301 0-.09.077-.425.379-.897.977-.944.092-1.462.243-1.538.267-.492.156-.785.662-.675 1.167.016.073.134.557.502 1.349-.368.792-.486 1.276-.502 1.349-.11.505.183 1.01.675 1.167.076.024.593.174 1.538.267.472.597.807.9.897.977.187.161.419.241.65.241s.464-.08.65-.241c.09-.077.425-.38.897-.977.944-.092 1.462-.243 1.538-.267.492-.156.785-.662.675-1.167-.016-.073-.134-.557-.502-1.349.368-.792.486-1.276.502-1.349.11-.505-.183-1.01-.675-1.167zm-2.284 2.865c-.111.181-.214.334-.317.487-.321.008-.647.008-.968 0-.103-.153-.206-.305-.316-.486-.076-.125-.136-.234-.201-.35.066-.115.125-.224.201-.349.111-.181.214-.334.317-.487.321-.008.647-.008.968 0 .103.153.206.305.317.487.076.125.136.234.201.349-.066.115-.125.224-.201.349zm9.689-10.255c-.057-.411-.361-.744-.766-.837-.186-.043-1.141-.257-1.725-.257s-1.539.214-1.725.257c-.404.093-.709.426-.766.837-.007.049-.064.47-.137 1.219-1.684-.204-3.483-.313-5.373-.313s-3.689.109-5.373.313c-.073-.749-.13-1.17-.137-1.219-.057-.411-.361-.744-.766-.837-.186-.043-1.141-.257-1.725-.257s-1.539.214-1.725.257c-.404.093-.709.426-.766.837-.021.15-.51 3.754-.51 9.906s.488 9.756.51 9.906c.057.411.361.744.766.837.186.043 1.141.257 1.725.257s1.539-.214 1.725-.257c.404-.093.709-.426.766-.837.007-.049.064-.47.137-1.219 1.684.204 3.483.313 5.373.313s3.689-.109 5.373-.313c.073.749.13 1.17.137 1.219.057.411.361.744.766.837.186.043 1.141.257 1.725.257s1.539-.214 1.725-.257c.404-.093.709-.426.766-.837.021-.15.51-3.754.51-9.906s-.488-9.756-.51-9.906zm-17.899 18.836c-.477.08-.711.08-1.182 0-.14-1.323-.409-4.46-.409-8.931s.27-7.607.409-8.93c.476-.08.711-.08 1.182 0 .14 1.323.409 4.46.409 8.931s-.27 7.607-.409 8.93zm7.409-1.93c-1.84 0-3.584-.108-5.211-.308.111-1.656.211-3.91.211-6.692s-.1-5.036-.211-6.692c1.627-.201 3.371-.308 5.211-.308s3.584.108 5.211.308c-.111 1.656-.211 3.91-.211 6.692s.1 5.036.211 6.692c-1.627.201-3.371.308-5.211.308zm8.591 1.93c-.477.08-.711.08-1.182 0-.14-1.323-.409-4.46-.409-8.931s.27-7.607.409-8.93c.477-.08.711-.08 1.182 0 .14 1.323.409 4.46.409 8.931s-.27 7.607-.409 8.93z"/></svg>