<svg id="Layer_1" viewBox="0 0 24 24" xmlns="http://www.w3.org/2000/svg" data-name="Layer 1"><path d="m22.709 1.928c-.161-.231-.413-.384-.693-.42-3.908-.502-7.371-.508-7.517-.508-8.937 0-12.974 3.57-13.497 11.938-.031.49.299.93.777 1.038.48.107.965-.147 1.148-.603 1.474-3.666 4.833-5.373 10.572-5.373.029 0 2.601.005 5.728.317-.514 1.592-1.148 3.367-1.895 5.179-2.257-.022-4.073-.462-4.092-.467-.537-.13-1.078.194-1.211.729-.134.535.192 1.077.727 1.211.075.019 1.625.399 3.715.503-.947 2.074-2.039 4.132-3.297 5.961-.312.455-.197 1.077.258 1.391.449.31 1.076.2 1.391-.258 4.856-7.063 7.381-16.974 8.04-19.843.063-.275.007-.563-.154-.796zm-2.879 4.44c-3.401-.363-6.204-.368-6.33-.368-4.325 0-7.565.939-9.785 2.854 1.354-4.198 4.611-5.854 10.785-5.854.031 0 2.836.005 6.153.361-.191.763-.465 1.795-.823 3.007z"/></svg>