<svg id="Layer_1" viewBox="0 0 24 24" xmlns="http://www.w3.org/2000/svg" data-name="Layer 1"><path d="m12 23c-.188 0-.375-.053-.539-.157-.059-.038-1.401-.9-3.039-2.205-2.08-.235-3.64-.574-3.708-.59-.381-.083-.679-.381-.762-.763-.015-.068-.354-1.627-.59-3.707-1.305-1.638-2.167-2.98-2.205-3.039-.21-.329-.21-.75 0-1.078.038-.059.9-1.401 2.205-3.039.235-2.08.575-3.64.59-3.708.083-.381.381-.679.762-.762.068-.015 1.628-.354 3.708-.59 1.637-1.305 2.979-2.167 3.039-2.205.328-.21.75-.21 1.078 0 .059.038 1.401.9 3.039 2.205 2.08.235 3.64.575 3.708.59.381.083.679.381.762.762.015.068.354 1.628.59 3.708 1.305 1.637 2.167 2.979 2.205 3.039.21.329.21.75 0 1.078-.038.059-.9 1.401-2.205 3.039-.235 2.08-.575 3.639-.59 3.707-.083.382-.381.68-.762.763-.068.016-1.628.354-3.708.59-1.637 1.305-2.98 2.167-3.039 2.205-.165.104-.352.157-.539.157zm-6.221-4.779c.673.126 1.821.32 3.147.461.191.02.374.096.523.217 1.039.841 1.986 1.513 2.55 1.899.565-.388 1.514-1.062 2.55-1.899.15-.121.332-.197.523-.217 1.326-.141 2.474-.335 3.147-.461.126-.674.32-1.82.46-3.146.021-.191.096-.373.217-.523.838-1.036 1.512-1.985 1.899-2.551-.387-.565-1.061-1.514-1.899-2.55-.122-.15-.197-.332-.217-.524-.14-1.326-.334-2.473-.46-3.146-.673-.126-1.821-.32-3.146-.46-.192-.021-.374-.096-.524-.217-1.039-.84-1.986-1.513-2.55-1.899-.565.387-1.514 1.061-2.55 1.899-.15.122-.332.197-.524.217-1.326.14-2.473.334-3.146.46-.126.673-.32 1.821-.46 3.146-.021.192-.096.374-.217.524-.84 1.039-1.513 1.986-1.899 2.55.387.565 1.061 1.514 1.899 2.551.122.15.197.332.217.523.14 1.326.334 2.473.46 3.146z"/></svg>