<svg id="Layer_1" viewBox="0 0 24 24" xmlns="http://www.w3.org/2000/svg" data-name="Layer 1"><path d="m13 8v5c0 .552-.447 1-1 1s-1-.448-1-1v-5c0-.552.447-1 1-1s1 .448 1 1zm-1 7c-.553 0-1 .447-1 1s.447 1 1 1 1-.447 1-1-.447-1-1-1zm10.842-2.46c-.034.054-.826 1.284-2.036 2.823-.238 2.251-.612 3.976-.629 4.051-.083.381-.381.68-.763.763-.075.016-1.801.391-4.052.629-1.539 1.21-2.769 2.001-2.822 2.036-.33.211-.75.211-1.08 0-.054-.035-1.283-.826-2.822-2.036-2.251-.238-3.977-.613-4.052-.629-.382-.083-.68-.382-.763-.763-.017-.076-.391-1.8-.629-4.051-1.21-1.539-2.002-2.769-2.036-2.823-.211-.329-.211-.75 0-1.079.034-.054.826-1.284 2.036-2.823.238-2.251.612-3.976.629-4.051.083-.381.381-.68.763-.763.075-.016 1.801-.391 4.052-.629 1.539-1.21 2.769-2.001 2.822-2.036.33-.211.75-.211 1.08 0 .054.035 1.283.826 2.822 2.036 2.251.238 3.977.613 4.052.629.382.083.68.382.763.763.017.076.391 1.8.629 4.051 1.21 1.539 2.002 2.769 2.036 2.823.211.329.211.75 0 1.079zm-2.045-.54c-.362-.528-.976-1.392-1.737-2.347-.121-.151-.195-.333-.214-.526-.145-1.467-.36-2.749-.496-3.476-.729-.136-2.01-.353-3.477-.497-.192-.019-.375-.093-.526-.213-.955-.762-1.818-1.375-2.347-1.737-.528.362-1.392.975-2.347 1.737-.151.121-.334.194-.526.213-1.467.145-2.748.361-3.477.497-.136.728-.352 2.009-.496 3.476-.019.192-.093.375-.214.526-.762.956-1.375 1.819-1.737 2.347.362.528.976 1.392 1.737 2.347.121.151.195.333.214.526.145 1.467.36 2.749.496 3.476.729.136 2.01.353 3.477.497.192.019.375.093.526.213.955.762 1.818 1.375 2.347 1.737.528-.362 1.392-.975 2.347-1.737.151-.121.334-.194.526-.213 1.467-.145 2.748-.361 3.477-.497.136-.728.352-2.009.496-3.476.019-.192.093-.375.214-.526.762-.956 1.375-1.819 1.737-2.347z"/></svg>