<svg id="Layer_1" viewBox="0 0 24 24" xmlns="http://www.w3.org/2000/svg" data-name="Layer 1"><path d="m13 16c0 .552-.448 1-1 1s-1-.448-1-1 .448-1 1-1 1 .448 1 1zm-1-9c-1.99 0-3 1.009-3 3 0 .552.447 1 1 1s1-.448 1-1c0-.878.121-1 1-1s1 .122 1 1c0 .801-.198.871-.33.917-1.03.361-1.67 1.159-1.67 2.083 0 .553.445 1.006.998 1.006s.998-.442.998-.994c.023-.045.156-.145.334-.207 1.108-.388 1.67-1.331 1.67-2.805 0-1.991-1.01-3-3-3zm10.843 5.539c-.038.059-.9 1.402-2.205 3.04-.235 2.08-.574 3.639-.59 3.707-.083.382-.381.68-.763.763-.068.016-1.627.354-3.707.59-1.638 1.305-2.98 2.167-3.039 2.205-.164.104-.352.157-.539.157s-.375-.053-.539-.157c-.059-.038-1.401-.9-3.039-2.205-2.08-.235-3.639-.574-3.707-.59-.382-.083-.68-.381-.763-.763-.016-.068-.354-1.627-.59-3.707-1.305-1.638-2.167-2.98-2.205-3.04-.21-.328-.21-.749 0-1.078.038-.059.9-1.401 2.205-3.039.235-2.08.574-3.64.59-3.708.083-.381.381-.679.763-.762.068-.015 1.627-.354 3.708-.59 1.637-1.305 2.979-2.167 3.038-2.205.328-.21.75-.21 1.078 0 .059.038 1.4.899 3.037 2.204 1.944.206 2.055.228 3.709.591.382.083.68.381.763.762.016.068.354 1.628.59 3.708 1.305 1.637 2.167 2.98 2.205 3.039.21.329.21.75 0 1.078zm-2.046-.539c-.387-.565-1.061-1.514-1.898-2.55-.121-.15-.197-.332-.217-.523-.142-1.334-.338-2.488-.464-3.16-1.051-.226-1.323-.254-3.145-.447-.191-.021-.373-.096-.523-.217-1.036-.838-1.984-1.512-2.55-1.899-.565.387-1.514 1.061-2.55 1.899-.15.122-.332.197-.523.217-1.326.14-2.474.334-3.147.46-.126.673-.32 1.821-.461 3.147-.02.191-.096.374-.217.523-.841 1.039-1.513 1.986-1.899 2.55.388.565 1.061 1.514 1.899 2.551.121.15.197.332.217.523.141 1.326.335 2.473.461 3.146.674.126 1.82.32 3.146.461.191.02.373.096.523.217 1.037.839 1.985 1.512 2.551 1.899.565-.388 1.514-1.061 2.551-1.899.15-.121.332-.197.523-.217 1.326-.141 2.473-.335 3.146-.461.126-.674.32-1.82.461-3.146.02-.191.096-.373.217-.523.838-1.036 1.512-1.985 1.898-2.551z"/></svg>