<svg id="Layer_1" viewBox="0 0 24 24" xmlns="http://www.w3.org/2000/svg" data-name="Layer 1"><path d="m22.707 21.293-4.539-4.539c1.195-1.57 1.832-3.675 1.832-6.254 0-6.037-3.463-9.5-9.5-9.5s-9.5 3.463-9.5 9.5 3.463 9.5 9.5 9.5c2.579 0 4.684-.637 6.254-1.832l4.539 4.539c.391.391 1.023.391 1.414 0s.391-1.023 0-1.414zm-12.207-3.293c-4.977 0-7.5-2.523-7.5-7.5s2.523-7.5 7.5-7.5 7.5 2.523 7.5 7.5-2.523 7.5-7.5 7.5zm3.128-5.628c0 1.376-.896 2.534-2.128 2.952v.176c0 .553-.447 1-1 1s-1-.447-1-1v-.162c-.962-.312-1.763-1.052-2.098-2.008-.182-.521.093-1.092.614-1.274.524-.181 1.092.094 1.274.614.165.474.69.83 1.222.83.615 0 1.115-.506 1.115-1.128s-.506-1.128-1.128-1.128l-.056.005c-.038.002-.077 0-.113 0-1.516-.09-2.703-1.352-2.703-2.871 0-1.231.782-2.276 1.872-2.686v-.191c0-.553.447-1 1-1s1 .447 1 1v.185c.785.291 1.427.912 1.717 1.732.185.521-.088 1.093-.608 1.276-.523.185-1.093-.088-1.276-.608-.124-.35-.456-.585-.827-.585-.483 0-.877.394-.877.877 0 .447.338.821.776.871l.042-.003h.003c1.777 0 3.179 1.403 3.179 3.127z"/></svg>