<svg id="Layer_1" viewBox="0 0 24 24" xmlns="http://www.w3.org/2000/svg" data-name="Layer 1"><path d="m16.374 5.876c.005.043.133 1.074.133 2.124 0 .553-.448 1-1 1s-1-.447-1-1c0-.922-.116-1.867-.117-1.876-.068-.548.321-1.048.869-1.116.542-.062 1.047.32 1.116.868zm-4.909 5.214c.145-.533-.169-1.083-.703-1.228-.712-.194-1.198-.591-1.255-1.888.002-.914.116-1.841.117-1.85.068-.548-.321-1.048-.869-1.116-.545-.064-1.048.32-1.116.868-.005.042-.13 1.052-.132 2.089-.069 1.635-.495 2.035-2.167 2.035-1.919 0-2.269-.63-2.327-2.003-.004-1.687.798-3.433 1.168-4.147.953-.246 3.706-.85 7.825-.85s6.873.604 7.825.85c.371.714 1.173 2.452 1.169 4.109-.013.308-.047.58-.102.809-.128.537.203 1.076.74 1.205.54.13 1.077-.203 1.206-.74.086-.358.136-.749.155-1.229.007-2.747-1.568-5.405-1.636-5.518-.125-.207-.32-.362-.55-.438-.133-.042-3.313-1.048-8.807-1.048s-8.673 1.006-8.806 1.048c-.23.075-.426.23-.55.438-.067.112-1.643 2.771-1.635 5.556.055 1.345.446 2.339 1.177 2.995-.12 1.046-.185 2.125-.185 3.214 0 4.181.497 6.827.518 6.938.069.359.328.652.675.765.085.027 2.121.673 5.727.938.544.043 1.032-.373 1.071-.924.04-.551-.374-1.03-.924-1.07-2.273-.167-3.88-.496-4.681-.691-.141-.985-.386-3.107-.386-5.954 0-.798.046-1.585.116-2.36.375.066.773.11 1.217.11 1.499 0 2.563-.358 3.242-1.121.427.424.979.729 1.656.913.532.147 1.082-.17 1.227-.702zm11.535 5.91c0 4.149-1.851 6-6 6s-6-1.851-6-6 1.851-6 6-6 6 1.851 6 6zm-2 0c0-3.028-.972-4-4-4s-4 .972-4 4 .972 4 4 4 4-.972 4-4zm-2.767-1.512c-.526.629-1.107 1.21-1.733 1.735-.276-.231-.543-.475-.801-.727-.395-.385-1.027-.379-1.414.016s-.38 1.027.015 1.414c.503.492 1.041.954 1.6 1.373.178.134.389.2.6.2s.422-.066.6-.2c.98-.734 1.878-1.585 2.667-2.526.354-.424.299-1.055-.125-1.409-.423-.355-1.055-.299-1.409.124z"/></svg>