<svg id="Layer_1" viewBox="0 0 24 24" xmlns="http://www.w3.org/2000/svg" data-name="Layer 1"><path d="m9.437 20.893c-2.48-.203-4.539-.644-5.474-.868-.3-1.184-.963-4.23-.963-8.024 0-3.752.665-6.829.965-8.025 1.242-.298 4.458-.975 8.035-.975s6.796.678 8.037.976c.209.824.593 2.547.807 4.779.052.549.529.951 1.09.9.55-.053.953-.541.9-1.091-.322-3.371-.999-5.613-1.028-5.707-.1-.325-.357-.578-.685-.67-.173-.049-4.273-1.188-9.121-1.188s-8.947 1.139-9.12 1.188c-.329.093-.588.347-.687.674-.049.161-1.193 4.007-1.193 9.139 0 5.175 1.146 8.982 1.194 9.142.1.325.357.578.685.67.113.032 2.802.781 6.396 1.074.027.002.986.05 1.078-.916.052-.55-.365-1.033-.916-1.078z"/><path d="m18.492 9.078c-1.914-1.23-2.321-.678-2.33-.673-1.626.919-2.644 2.206-2.997 3.714-.16-.082-.344-.118-.528-.107-.29.021-.557.168-.73.402-.982 1.326-1.518 2.968-1.548 4.797.096 3.041 3.042 5.746 6.333 5.789 3.264-.043 6.21-2.749 6.306-5.793.122-4.585-2.791-7.027-4.505-8.129zm-1.801 11.922c-.536-.007-1.272-.841-1.291-1.415.009-.487.636-1.337 1.286-2.021.624.644 1.239 1.463 1.267 1.998-.037.619-.76 1.431-1.262 1.438zm4.307-3.852c-.026.836-.428 1.657-1.047 2.325-.09-1.865-2.209-3.702-2.638-4.055-.374-.309-.917-.304-1.285.012-.424.362-2.505 2.228-2.623 4.051-.62-.661-1.021-1.47-1.047-2.285.016-.939.201-1.799.552-2.569l.544.546c.315.315.797.387 1.187.173.39-.212.594-.656.5-1.089-.04-.183-.143-.809-.097-1.268.102-1.021.674-1.892 1.705-2.594 1.148.553 4.362 2.485 4.249 6.753z"/><circle cx="6" cy="6.006" r=".997"/><circle cx="10" cy="6.006" r=".997"/></svg>