<svg id="Layer_1" viewBox="0 0 24 24" xmlns="http://www.w3.org/2000/svg" data-name="Layer 1"><path d="m21.977 2.786c-.083-.381-.381-.679-.762-.762-.19-.042-4.713-1.023-9.214-1.023s-9.025.98-9.215 1.022c-.381.083-.679.381-.762.762-.042.19-1.023 4.713-1.023 9.214s.981 9.024 1.023 9.214c.083.381.381.679.762.762.19.042 4.713 1.023 9.214 1.023s9.024-.981 9.214-1.023c.381-.083.679-.381.762-.762.042-.19 1.023-4.713 1.023-9.214s-.981-9.024-1.023-9.214zm-9.977 18.214c-3.327 0-6.765-.584-8.151-.849-.265-1.386-.849-4.824-.849-8.151s.584-6.765.849-8.151c1.386-.265 4.824-.849 8.151-.849s6.765.584 8.151.849c.265 1.386.849 4.824.849 8.151s-.584 6.765-.849 8.151c-1.386.265-4.824.849-8.151.849zm3-10c1.907 0 3-1.093 3-3s-1.093-3-3-3-3 1.093-3 3c0 .157.019.299.033.444-.687.388-1.347.793-1.981 1.212-.504-.422-1.19-.656-2.052-.656-1.907 0-3 1.093-3 3s1.093 3 3 3c.863 0 1.549-.235 2.052-.656.634.419 1.294.824 1.981 1.212-.015.146-.033.288-.033.444 0 1.907 1.093 3 3 3s3-1.093 3-3-1.093-3-3-3c-.911 0-1.63.256-2.139.725-.661-.379-1.296-.771-1.902-1.179.022-.176.041-.354.041-.546s-.019-.371-.041-.546c.606-.407 1.24-.8 1.902-1.179.509.469 1.228.725 2.139.725zm0-4c.794 0 1 .206 1 1s-.206 1-1 1-1-.206-1-1 .206-1 1-1zm-7 6c-.794 0-1-.206-1-1s.206-1 1-1 1 .206 1 1-.206 1-1 1zm7 2c.794 0 1 .206 1 1s-.206 1-1 1-1-.206-1-1 .206-1 1-1z"/></svg>