<svg id="Layer_1" viewBox="0 0 24 24" xmlns="http://www.w3.org/2000/svg" data-name="Layer 1"><path d="m17 10h-1.074c-.057-.375-.158-.704-.284-1.008.962-.039 1.358-.472 1.358-1.492 0-1.071-.429-1.5-1.5-1.5-1.02 0-1.453.396-1.492 1.358-.304-.126-.633-.227-1.008-.284v-1.074c0-.552-.447-1-1-1s-1 .448-1 1v1.074c-.375.057-.704.158-1.008.284-.039-.962-.472-1.358-1.492-1.358-1.071 0-1.5.429-1.5 1.5 0 1.02.396 1.453 1.358 1.492-.126.304-.227.633-.284 1.008h-1.074c-.553 0-1 .448-1 1s.447 1 1 1h1.074c.057.375.158.704.284 1.008-.962.039-1.358.472-1.358 1.492 0 1.071.429 1.5 1.5 1.5 1.02 0 1.453-.396 1.492-1.358.304.126.633.227 1.008.284v1.074c0 .552.447 1 1 1s1-.448 1-1v-1.074c.375-.057.704-.158 1.008-.284.039.962.472 1.358 1.492 1.358 1.071 0 1.5-.429 1.5-1.5 0-1.02-.396-1.453-1.358-1.492.126-.304.227-.633.284-1.008h1.074c.553 0 1-.448 1-1s-.447-1-1-1zm-5 3c-1.589 0-2-.411-2-2s.411-2 2-2 2 .411 2 2-.411 2-2 2zm8.953-9.502c-.058-.278-.23-.519-.476-.663-.129-.075-3.203-1.835-8.39-1.835-4.996-.09-8.563 1.778-8.571 1.835-.245.144-.418.384-.476.662-.535 2.6-2.097 12.772.038 15.037 2.351 2.495 7.993 4.234 8.629 4.424.187.055.391.057.578 0 .636-.19 6.278-1.929 8.63-4.424 2.133-2.263.571-12.437.037-15.037zm-1.493 13.666c-1.548 1.642-5.401 3.146-7.463 3.792-2.062-.646-5.915-2.15-7.464-3.792-.797-.846-.766-6.954.372-12.79.907-.417 3.383-1.374 7.018-1.374 3.597-.015 6.281.955 7.166 1.373 1.136 5.837 1.168 11.944.371 12.79z"/></svg>