<svg id="Layer_1" viewBox="0 0 24 24" xmlns="http://www.w3.org/2000/svg" data-name="Layer 1"><path d="m20.949 3.497c-.057-.278-.23-.519-.475-.662-.129-.076-3.201-1.835-8.383-1.835-5.091 0-8.557 1.778-8.565 1.835-.245.143-.418.384-.475.662-.534 2.6-2.094 12.773.038 15.037 2.346 2.493 7.986 4.234 8.621 4.424.188.055.392.057.58 0 .635-.19 6.274-1.931 8.622-4.424 2.131-2.264.571-12.437.037-15.037zm-1.494 13.666c-1.544 1.641-5.395 3.146-7.455 3.792-2.06-.647-5.911-2.151-7.456-3.792-.796-.846-.764-6.953.371-12.79.853-.417 3.585-1.373 7.167-1.373 3.626 0 6.099.957 7.003 1.373 1.135 5.837 1.167 11.944.37 12.79zm-7.455-10.163c-1.991 0-3 1.009-3 3 0 1.619.679 2.578 2 2.883v2.117c0 .552.448 1 1 1s1-.448 1-1v-2.117c1.321-.306 2-1.264 2-2.883 0-1.991-1.009-3-3-3zm0 4c-.878 0-1-.122-1-1s.122-1 1-1 1 .122 1 1-.122 1-1 1z"/></svg>