<svg id="Layer_1" viewBox="0 0 24 24" xmlns="http://www.w3.org/2000/svg" data-name="Layer 1"><path d="m16 12c0 .552-.447 1-1 1h-6c-.552 0-1-.448-1-1s.448-1 1-1h6c.553 0 1 .448 1 1zm4.913 6.533c-2.35 2.494-7.988 4.234-8.623 4.425-.188.057-.392.055-.58 0-.635-.19-6.275-1.932-8.621-4.424-2.132-2.263-.572-12.437-.038-15.037.057-.278.23-.519.475-.662.009-.057 3.474-1.835 8.565-1.835 5.183 0 8.255 1.759 8.384 1.835.245.143.418.384.475.662.534 2.6 2.093 12.772-.036 15.036zm-1.828-14.161c-.903-.416-3.377-1.373-7.003-1.373-3.582 0-6.312.955-7.167 1.373-1.135 5.837-1.167 11.944-.371 12.79 1.545 1.641 5.396 3.146 7.456 3.792 2.06-.647 5.91-2.151 7.454-3.792.797-.845.766-6.953-.369-12.79z"/></svg>