<svg id="Layer_1" viewBox="0 0 24 24" xmlns="http://www.w3.org/2000/svg" data-name="Layer 1"><path d="m20.949 3.497c-.057-.278-.229-.519-.475-.662-.129-.076-3.201-1.835-8.384-1.835-5.09 0-8.556 1.778-8.565 1.835-.245.143-.418.384-.475.662-.534 2.601-2.093 12.774.038 15.037 2.347 2.493 7.986 4.234 8.621 4.424.187.055.394.057.58 0 .635-.19 6.273-1.931 8.623-4.425 2.129-2.264.57-12.436.036-15.036zm-1.495 13.666c-1.544 1.641-5.395 3.146-7.454 3.792-2.06-.647-5.91-2.151-7.456-3.792-.796-.846-.764-6.953.371-12.791.852-.417 3.585-1.373 7.167-1.373 3.626 0 6.1.957 7.003 1.373 1.135 5.837 1.166 11.945.369 12.79zm-3.747-7.956-2.293 2.293 2.293 2.293c.391.391.391 1.023 0 1.414s-1.023.391-1.414 0l-2.293-2.293-2.293 2.293c-.391.391-1.023.391-1.414 0s-.391-1.023 0-1.414l2.293-2.293-2.293-2.293c-.391-.391-.391-1.023 0-1.414s1.023-.391 1.414 0l2.293 2.293 2.293-2.293c.391-.391 1.023-.391 1.414 0s.391 1.023 0 1.414z"/></svg>