<svg id="Layer_1" viewBox="0 0 24 24" xmlns="http://www.w3.org/2000/svg" data-name="Layer 1"><path d="m16.418 20.32c.219.507-.015 1.096-.521 1.314-1.671.72-3.079 1.166-3.606 1.324-.188.056-.393.055-.58 0-.635-.19-6.274-1.931-8.621-4.424-1.083-1.15-1.367-4.391-.842-9.633.055-.549.544-.953 1.095-.896.55.055.95.545.896 1.095-.514 5.13-.099 7.633.307 8.063 1.546 1.641 5.396 3.145 7.456 3.792.585-.184 1.764-.579 3.104-1.157.508-.219 1.096.015 1.314.522zm6.289 2.387c-.391.391-1.023.391-1.414 0l-20-20c-.391-.391-.391-1.023 0-1.414s1.023-.391 1.414 0l1.297 1.297c1-.501 3.996-1.59 8.087-1.59 5.183 0 8.255 1.759 8.384 1.835.245.143.418.384.475.662.534 2.6 2.093 12.772-.036 15.036-.148.156-.32.312-.498.468l2.292 2.292c.391.391.391 1.023 0 1.414zm-3.622-18.334c-.909-.419-3.405-1.339-7.081-1.373-2.974-.019-5.3.651-6.475 1.115l13.472 13.472c.171-.144.323-.285.453-.424.797-.846.766-6.953-.369-12.791z"/></svg>