<svg id="Layer_1" viewBox="0 0 24 24" xmlns="http://www.w3.org/2000/svg" data-name="Layer 1"><path d="m20.947 3.499c-.058-.278-.23-.519-.475-.662-.129-.075-3.2-1.834-8.381-1.834-4.991-.09-8.555 1.778-8.563 1.834-.245.143-.418.384-.475.662-.535 2.6-2.095 12.771.038 15.035 2.348 2.495 7.985 4.233 8.62 4.423.187.055.391.056.578 0 .635-.19 6.272-1.928 8.622-4.423 2.131-2.265.571-12.436.036-15.035zm-16.032.877c.826-.38 2.966-1.2 6.086-1.343l-.003 17.586c-2.131-.752-5.131-2.05-6.454-3.454-.797-.847-.765-6.953.371-12.788zm14.541 12.788c-1.323 1.405-4.328 2.705-6.459 3.456l.003-17.586c3.14.15 5.261.962 6.086 1.341 1.136 5.835 1.167 11.942.371 12.788z"/></svg>