<svg id="Layer_1" viewBox="0 0 24 24" xmlns="http://www.w3.org/2000/svg" data-name="Layer 1"><path d="m6.293 7.707c-.188-.188-.293-.442-.293-.707v-2c0-.552.447-1 1-1s1 .448 1 1v1.586l.707.707c.391.391.391 1.023 0 1.414s-1.023.391-1.414 0zm-5.293-.707c0-4.149 1.851-6 6-6s6 1.851 6 6-1.851 6-6 6-6-1.851-6-6zm2 0c0 3.028.972 4 4 4s4-.972 4-4-.972-4-4-4-4 .972-4 4zm20 7c0 2.038-.398 3.881-.529 4.486-.086.399-.425.794-.827.863-.218.038-.78.128-1.644.229v.422c0 1.654-1.346 3-3 3s-3-1.346-3-3v-.024c-.632.015-1.299.024-2 .024s-1.367-.009-2-.025v.025c0 1.654-1.346 3-3 3s-3-1.346-3-3v-.426c-.653-.077-1.122-.146-1.382-.188-.409-.066-.735-.377-.819-.784-.08-.383-.356-1.768-.562-3.484-.065-.548.326-1.046.875-1.111.551-.061 1.046.327 1.111.875.128 1.076.285 2.012.399 2.63 1.379.185 4.264.488 8.377.488 1.207 0 2.301-.028 3.296-.07.118-.572.704-3.555.704-6.43 0-3.155-.955-6.702-.965-6.737-.145-.533.169-1.082.702-1.228.531-.144 1.083.169 1.228.702.028.102.464 1.726.761 3.797 2.058.121 3.846.489 3.929.506.373.079.669.362.764.731.023.093.581 2.298.581 4.729zm-15 5.901c-.734-.037-1.401-.082-2-.13v.229c0 .551.448 1 1 1 .593.003 1.046-.515 1-1.099zm9.945-9.85c.034.481.055.967.055 1.449 0 .504-.018 1.006-.045 1.5h3.011c-.07-1.07-.232-2.028-.349-2.619-.607-.104-1.591-.25-2.671-.33zm.055 9.722c-.599.048-1.269.092-2 .128-.046.584.408 1.101 1 1.098.552 0 1-.449 1-1v-.227zm2.966-4.773h-3.184c-.137 1.19-.308 2.197-.425 2.814 1.504-.109 2.619-.242 3.279-.333.121-.625.265-1.504.33-2.48z"/></svg>