<svg id="Layer_1" viewBox="0 0 24 24" xmlns="http://www.w3.org/2000/svg" data-name="Layer 1"><path d="m22.419 8.271c-.095-.369-.391-.652-.764-.731-.082-.017-1.836-.379-3.869-.503-.222-1.942-.538-3.408-.559-3.501-.083-.381-.381-.679-.762-.762-.059-.013-1.454-.317-3.347-.542-.545-.059-1.046.327-1.111.875s.327 1.046.875 1.111c1.051.125 1.951.277 2.516.382.208 1.121.602 3.549.602 5.899 0 2.875-.587 5.858-.704 6.43-.995.042-2.089.07-3.296.07-4.112 0-6.998-.303-8.377-.488-.079-.425-.176-.994-.271-1.654-.079-.547-.59-.922-1.132-.848-.547.079-.926.585-.848 1.132.172 1.202.355 2.121.425 2.46.084.406.411.718.82.784.26.042.729.111 1.382.188v.426c0 1.654 1.346 3 3 3s3-1.346 3-3v-.025c.633.015 1.298.025 2 .025s1.368-.009 2-.024v.024c0 1.654 1.346 3 3 3s3-1.346 3-3v-.422c.863-.101 1.425-.191 1.644-.229.402-.069.741-.464.827-.863.131-.605.529-2.448.529-4.486 0-2.432-.558-4.637-.581-4.729zm-14.419 10.729c0 .551-.449 1-1 1s-1-.449-1-1v-.23c.599.048 1.266.093 2 .13v.099zm12.616-9.619c.118.59.279 1.549.349 2.619h-3.011c.028-.494.045-.996.045-1.5 0-.486-.016-.971-.042-1.448 1.075.08 2.054.226 2.659.329zm-2.616 9.619c0 .551-.448 1-1 1-.592.003-1.046-.514-1-1.098.731-.037 1.401-.081 2-.128v.227zm-.643-2.186c.116-.617.288-1.624.425-2.814h3.184c-.065.976-.209 1.856-.33 2.48-.659.091-1.775.224-3.279.333zm-16.357-13.814c0-.552.448-1 1-1h7c.552 0 1 .448 1 1s-.448 1-1 1h-7c-.552 0-1-.448-1-1zm0 4c0-.552.448-1 1-1h5c.552 0 1 .448 1 1s-.448 1-1 1h-5c-.552 0-1-.448-1-1zm1 5c-.552 0-1-.448-1-1s.448-1 1-1h3c.552 0 1 .448 1 1s-.448 1-1 1z"/></svg>