<svg id="Layer_1" viewBox="0 0 24 24" xmlns="http://www.w3.org/2000/svg" data-name="Layer 1"><path d="m22.5 6.59c-.316-2.713-2.413-4.864-5.097-5.232-3.464-.475-7.343-.475-10.807 0-2.684.368-4.78 2.519-5.096 5.233-.332 2.848-.5 6.07-.5 9.576 0 .801.009 1.589.025 2.354.006.255.108.498.287.68 1.305 1.327 3.157 1.426 4.166 1.363.103.638.185.982.195 1.019.083.337.335.605.665.712.089.028 2.231.704 5.663.704s5.573-.676 5.663-.704c.33-.106.582-.375.665-.712.009-.038.091-.381.195-1.02 1.307.051 2.849-.083 4.166-1.363.179-.182.281-.425.287-.68.016-.766.025-1.554.025-2.354 0-3.506-.168-6.729-.5-9.577zm-8.503-3.524c-.013 1.529-.433 1.934-1.997 1.934s-1.985-.404-1.997-1.934c1.327-.066 2.668-.066 3.995 0zm6.987 14.971c-.697.501-1.62.562-2.211.539.124-1.28.227-2.965.227-5.076 0-1.949-.091-4.042-.244-5.598-.054-.549-.532-.943-1.093-.897-.55.054-.952.543-.897 1.093.146 1.495.234 3.515.234 5.402 0 3.674-.324 6.024-.501 7.034-.786.18-2.37.466-4.499.466s-3.713-.286-4.499-.466c-.177-1.01-.501-3.359-.501-7.034 0-1.888.088-3.907.234-5.402.054-.55-.348-1.039-.897-1.093-.549-.045-1.039.348-1.093.897-.153 1.556-.244 3.648-.244 5.598 0 2.111.102 3.796.227 5.076-.59.024-1.513-.038-2.211-.539-.01-.612-.016-1.236-.016-1.87 0-3.43.164-6.573.486-9.345.211-1.808 1.602-3.239 3.382-3.482.372-.051.765-.076 1.146-.115.076 2.532 1.374 3.775 3.985 3.775s3.91-1.244 3.985-3.775c.382.04.774.064 1.146.115 1.781.243 3.171 1.675 3.382 3.481.322 2.772.486 5.916.486 9.346 0 .634-.006 1.258-.016 1.87z"/></svg>