<svg id="Layer_1" viewBox="0 0 24 24" xmlns="http://www.w3.org/2000/svg" data-name="Layer 1"><path d="m22.577 6.302c-.039-.286-.199-.541-.439-.7-1.036-.686-2.17-1.248-2.565-1.437-1.921-1.884-3.426-2.587-3.664-2.69-.517-.158-1.928-.439-3.908-.476-1.98.037-3.383.316-3.908.476-.238.103-1.743.806-3.664 2.69-.395.189-1.529.751-2.565 1.438-.24.159-.4.414-.438.699-.281 2.064-.424 3.982-.424 5.698 0 4.501.981 9.024 1.023 9.214.083.381.381.679.762.762.051.011 1.27.277 3.071.538.535.081 1.056-.297 1.133-.847.079-.547-.3-1.054-.847-1.133-.973-.14-1.776-.284-2.293-.383-.265-1.386-.85-4.824-.85-8.151 0-1.5.116-3.171.345-4.972.442-.273.883-.515 1.248-.707 1.182 2.018 2.557 3.63 4.096 4.813-1.179 3.735-1.653 6.562-1.677 6.704-.041.247.013.5.15.709 1.153 1.763 2.599 3.208 4.298 4.295.165.105.352.158.539.158s.375-.053.539-.158c1.698-1.086 3.144-2.531 4.298-4.295.136-.208.189-.46.15-.706-.023-.142-.487-2.976-1.666-6.717 1.534-1.182 2.906-2.791 4.085-4.804.365.192.807.434 1.249.707.229 1.807.345 3.477.345 4.972 0 3.327-.585 6.766-.85 8.151-.518.099-1.321.243-2.293.383-.547.079-.926.586-.847 1.133.076.549.597.927 1.132.847 1.802-.26 3.021-.526 3.072-.538.381-.083.679-.381.762-.762.042-.19 1.023-4.713 1.023-9.214 0-1.709-.143-3.626-.423-5.698zm-8.604-3.157c-.458.754-1.152 1.758-1.973 2.543-.821-.785-1.515-1.789-1.972-2.543 1.157-.153 2.787-.153 3.945 0zm-7.725 2.045c.733-.672 1.368-1.13 1.83-1.426.557.993 1.474 2.338 2.547 3.371-.369.483-.864 1.153-1.359 1.887-1.109-.992-2.12-2.275-3.017-3.833zm5.752 15.602c-1.127-.812-2.115-1.822-2.944-3.014.209-1.104.907-4.451 2.29-8.246.231-.327.456-.636.654-.9.207.276.443.6.685.943 1.372 3.777 2.056 7.103 2.259 8.201-.829 1.192-1.816 2.204-2.944 3.015zm2.735-11.77c-.495-.734-.99-1.404-1.359-1.887 1.073-1.033 1.989-2.378 2.547-3.371.462.295 1.096.753 1.83 1.426-.897 1.557-1.908 2.84-3.018 3.833z"/></svg>