<svg id="Layer_1" viewBox="0 0 24 24" xmlns="http://www.w3.org/2000/svg" data-name="Layer 1"><path d="m11 13v5c0 .553-.448 1-1 1s-1-.447-1-1v-5c0-.553.448-1 1-1s1 .447 1 1zm-5-1c-.552 0-1 .447-1 1v4c0 .553.448 1 1 1s1-.447 1-1v-4c0-.553-.448-1-1-1zm8 7c.552 0 1-.447 1-1v-5c0-.553-.448-1-1-1s-1 .447-1 1v5c0 .553.448 1 1 1zm4-1c.552 0 1-.447 1-1v-4c0-.553-.448-1-1-1s-1 .447-1 1v4c0 .553.448 1 1 1zm5-8v3c0 10-4.854 10-11 10s-11 0-11-10v-3c0-.477.336-.887.804-.98.103-.021 1.354-.268 3.196-.513v-.506c0-3.859 3.14-7 7-7s7 3.141 7 7v.506c1.842.246 3.094.493 3.196.513.467.094.804.504.804.98zm-16-1.727c1.529-.155 3.256-.273 5-.273s3.471.118 5 .273v-.273c0-2.757-2.243-5-5-5s-5 2.243-5 5zm14 2.562c-1.594-.273-5.32-.835-9-.835s-7.406.562-9 .835v2.165c0 8 2.82 8 9 8s9 0 9-8z"/></svg>