<?xml version="1.0" encoding="UTF-8"?>
<svg xmlns="http://www.w3.org/2000/svg" id="Layer_1" data-name="Layer 1" viewBox="0 0 24 24">
  <path d="M15.803,7.572h4.141c-.399,.342-.926,.708-1.615,1.047-.495,.244-.699,.844-.455,1.339,.175,.354,.529,.559,.898,.558,.148,0,.299-.033,.441-.103,2.838-1.398,3.636-3.268,3.718-3.477,.092-.235,.091-.496,0-.73-.082-.208-.88-2.069-3.717-3.468-.496-.242-1.095-.041-1.339,.455-.245,.496-.041,1.095,.454,1.339,.685,.338,1.21,.701,1.608,1.04h-4.134c-2.02,0-4.568,.929-5.243,5.357-.014,.09-.062,.331-.062,.331-.646,2.925-1.657,5.632-4.665,5.632-2.072,0-3.06-1.007-3.092-1.04-.371-.41-1.004-.44-1.413-.07-.409,.371-.44,1.003-.069,1.413,.063,.069,1.572,1.697,4.574,1.697,5.029,0,6.143-5.046,6.618-7.202,0,0,.062-.314,.085-.46,.276-1.809,.88-3.658,3.267-3.658Z"/>
  <path d="M1.323,8.203c.191,.178,.435,.266,.679,.266,.267,0,.532-.105,.73-.312,.041-.043,1.028-1.05,3.101-1.05,.87,0,1.596,.215,2.216,.657,.45,.32,1.075,.214,1.395-.235,.32-.45,.215-1.074-.234-1.395-.958-.681-2.094-1.027-3.376-1.027-3.002,0-4.511,1.628-4.574,1.697-.367,.405-.336,1.025,.064,1.398Z"/>
  <path d="M19.214,13.587c-.496-.244-1.094-.041-1.34,.455-.244,.495-.04,1.095,.455,1.339,.689,.339,1.216,.706,1.615,1.047h-4.141c-.548,0-1.029-.099-1.432-.295-.496-.242-1.096-.034-1.337,.462-.241,.497-.035,1.095,.462,1.337,.677,.329,1.453,.496,2.307,.496h4.134c-.398,.34-.923,.703-1.608,1.04-.495,.244-.699,.844-.454,1.339,.174,.353,.528,.558,.897,.558,.148,0,.299-.033,.441-.103,2.837-1.399,3.635-3.26,3.717-3.468,.092-.234,.093-.495,0-.73-.082-.209-.88-2.079-3.718-3.477Z"/>
</svg>
