<?xml version="1.0" encoding="UTF-8"?>
<svg xmlns="http://www.w3.org/2000/svg" id="Layer_1" data-name="Layer 1" viewBox="0 0 24 24">
  <path d="M14.673,6.281c-.115-.125-1.171-1.224-2.667-1.224-1.508,0-2.557,1.103-2.671,1.229-.107,.117-.184,.258-.226,.411-.059,.216-.352,1.581-.352,7.2,0,5.744,.299,7.027,.359,7.227,.044,.145,.12,.277,.222,.389,.115,.125,1.171,1.224,2.667,1.224,1.508,0,2.557-1.103,2.671-1.229,.102-.112,.178-.247,.22-.392,.058-.198,.347-1.474,.347-7.219s-.304-7.059-.339-7.191c-.042-.158-.121-.304-.232-.424Z"/>
  <path d="M6.917,10.074c-.115-.125-1.171-1.224-2.667-1.224-1.508,0-2.557,1.103-2.671,1.229-.113,.124-.193,.274-.232,.438-.035,.145-.345,1.529-.345,5.277s.31,5.129,.345,5.275c.04,.166,.122,.318,.237,.443s1.171,1.224,2.667,1.224c1.508,0,2.557-1.103,2.671-1.229s.195-.279,.234-.445c.034-.146,.333-1.526,.333-5.27s-.298-5.122-.332-5.268c-.04-.168-.122-.324-.239-.451Z"/>
  <path d="M22.658,2.899c-.042-.153-.121-.294-.229-.411-.115-.125-1.171-1.224-2.667-1.224-1.508,0-2.557,1.103-2.671,1.229-.103,.112-.178,.247-.221,.394-.06,.204-.357,1.604-.357,9.114,0,7.364,.275,8.846,.36,9.124,.044,.144,.12,.277,.222,.388,.115,.125,1.171,1.224,2.667,1.224,1.508,0,2.557-1.103,2.671-1.229,.102-.112,.178-.247,.22-.392,.167-.572,.347-3.267,.347-9.115,0-7.483-.285-8.894-.342-9.101Zm-1.893,17.427c-.217,.17-.595,.41-1.003,.41-.386,0-.767-.226-1.002-.408-.079-.642-.247-2.675-.247-8.328,0-5.684,.171-7.714,.245-8.325,.217-.17,.596-.411,1.004-.411,.384,0,.763,.223,.999,.405,.077,.658,.24,2.711,.24,8.331,0,5.697-.165,7.719-.235,8.326Z"/>
</svg>
