<svg id="Layer_1" viewBox="0 0 24 24" xmlns="http://www.w3.org/2000/svg" data-name="Layer 1"><path d="m8.579 14.014c-.071-.335-.31-.611-.632-.73-.079-.029-.801-.284-1.947-.284s-1.862.249-1.94.277c-.325.118-.566.396-.638.733-.017.082-.421 2.017-.421 3.99s.385 3.887.401 3.968c.069.338.307.617.629.737.081.03.821.295 1.969.295 1.121 0 1.871-.225 1.953-.251.354-.111.618-.41.685-.775.015-.081.362-2.015.362-3.974 0-1.973-.404-3.904-.421-3.986zm-1.806 6.937c-.42.055-1.114.056-1.52-.005-.106-.679-.253-1.818-.253-2.946s.154-2.27.265-2.951c.396-.055 1.076-.055 1.469 0 .111.68.266 1.823.266 2.95 0 1.119-.13 2.258-.227 2.951z"/></svg>