<svg id="Layer_1" viewBox="0 0 24 24" xmlns="http://www.w3.org/2000/svg" data-name="Layer 1"><path d="m3.544 8.836c.183-.521-.091-1.092-.612-1.275-.523-.184-1.092.091-1.275.612-1.552 4.421-.336 9.156 3.253 12.667.194.19.815.535 1.414-.016.407-.374.379-1.028-.016-1.414-3.02-2.953-4.053-6.906-2.765-10.574z"/><path d="m7.188 11.821c.02-.552-.411-1.016-.963-1.036-.56-.008-1.015.411-1.036.963-.076 2.096.823 4.17 2.533 5.842.195.19.781.562 1.414-.016.408-.372.379-1.028-.016-1.414-1.321-1.291-1.989-2.792-1.932-4.339z"/><path d="m20.855 18.728c1.392-2.041 2.145-4.358 2.145-6.728 0-3.234-1.389-6.373-3.911-8.84-.394-.387-1.027-.378-1.414.016-.386.395-.379 1.028.016 1.414 2.134 2.087 3.31 4.719 3.31 7.41 0 1.871-.58 3.709-1.644 5.36l-1.67-1.524c.738-1.195 1.129-2.492 1.129-3.836 0-2.034-.878-3.967-2.537-5.59-.394-.386-1.027-.378-1.414.016-.387.395-.379 1.028.016 1.414 1.266 1.238 1.936 2.677 1.936 4.16 0 .843-.224 1.669-.642 2.455l-2.026-1.849c.039-.189.066-.387.066-.606 0-1.418-.807-2.232-2.213-2.232-.307 0-.576.05-.822.127l-8.367-7.634c-.408-.372-1.041-.342-1.413.064-.372.408-.343 1.041.064 1.413l19.724 18.001c.191.175.838.541 1.412-.064.381-.401.344-1.041-.064-1.413l-1.68-1.533z"/></svg>