<?xml version="1.0" encoding="UTF-8"?>
<svg xmlns="http://www.w3.org/2000/svg" id="Layer_1" data-name="Layer 1" viewBox="0 0 24 24">
  <path d="M14.673,6.281c-.115-.125-1.171-1.224-2.667-1.224-1.509,0-2.557,1.103-2.672,1.228-.106,.118-.185,.259-.226,.412-.059,.216-.352,1.58-.352,7.199,0,5.744,.299,7.027,.359,7.226,.043,.145,.119,.278,.222,.389,.115,.125,1.171,1.224,2.668,1.224,1.508,0,2.556-1.103,2.671-1.228,.103-.113,.178-.247,.221-.393,.058-.198,.346-1.474,.346-7.218s-.304-7.059-.338-7.191c-.042-.158-.121-.304-.232-.424Zm-1.659,14.041c-.216,.17-.597,.414-1.008,.414-.39,0-.774-.23-1.01-.414-.079-.569-.239-2.238-.239-6.426,0-4.154,.163-5.853,.241-6.427,.217-.17,.597-.413,1.008-.413,.387,0,.768,.226,1.003,.409,.078,.596,.234,2.301,.234,6.43,0,4.211-.156,5.876-.229,6.425Z"/>
  <path d="M6.917,10.074c-.116-.125-1.173-1.224-2.668-1.224-1.509,0-2.557,1.103-2.672,1.228-.113,.124-.193,.275-.232,.438-.035,.146-.345,1.529-.345,5.277s.309,5.129,.344,5.275c.04,.166,.122,.318,.237,.444,.116,.125,1.173,1.224,2.668,1.224,1.509,0,2.557-1.103,2.672-1.228,.114-.126,.195-.28,.234-.446,.034-.145,.332-1.526,.332-5.269s-.298-5.122-.332-5.268c-.039-.169-.121-.324-.238-.452Z"/>
  <path d="M22.658,2.9c-.042-.153-.121-.294-.229-.412-.115-.125-1.171-1.224-2.668-1.224-1.509,0-2.557,1.103-2.671,1.229-.103,.112-.178,.247-.221,.393-.06,.205-.357,1.604-.357,9.114,0,7.365,.276,8.846,.36,9.125,.044,.144,.119,.276,.222,.387,.115,.125,1.171,1.224,2.667,1.224,1.509,0,2.557-1.103,2.672-1.228,.103-.113,.178-.247,.221-.393,.167-.572,.346-3.267,.346-9.115,0-7.483-.284-8.894-.342-9.1Zm-1.893,17.426c-.217,.17-.596,.41-1.004,.41-.386,0-.767-.226-1.002-.408-.079-.642-.247-2.674-.247-8.328,0-5.69,.172-7.719,.245-8.327,.235-.184,.614-.409,1.004-.409,.384,0,.763,.223,.999,.405,.077,.658,.239,2.711,.239,8.331,0,5.696-.164,7.719-.234,8.326Z"/>
</svg>
