<svg id="Layer_1" viewBox="0 0 24 24" xmlns="http://www.w3.org/2000/svg" data-name="Layer 1"><path d="m12.59 10.193c-.044-.311-.231-.583-.505-.735-.085-.047-.862-.458-2.085-.458s-1.993.402-2.078.448c-.278.151-.468.425-.513.739-.011.077-.178 1.282-.295 2.898-.302-.048-.677-.085-1.114-.085-1.143 0-1.862.249-1.94.277-.325.118-.566.396-.638.733-.017.082-.421 2.017-.421 3.99s.385 3.887.401 3.968c.069.338.307.617.629.737.081.03.821.295 1.969.295 1.383-.049 1.753-.159 2.161-.349.341.142.981.349 1.839.349 1.189 0 1.992-.361 2.08-.403.312-.146.525-.443.567-.785.015-.119.354-2.949.354-5.812s-.393-5.689-.41-5.807zm-5.817 10.758c-.419.055-1.114.056-1.52-.005-.106-.679-.253-1.818-.253-2.946s.154-2.27.265-2.951c.396-.055 1.076-.055 1.469 0 .111.68.266 1.823.266 2.95 0 1.119-.13 2.258-.227 2.951zm3.958-.022c-.391.078-1.058.079-1.43-.007-.108-.962-.3-2.949-.3-4.922s.201-3.96.314-4.93c.362-.078 1.011-.077 1.371.001.113.966.314 2.958.314 4.928 0 1.953-.17 3.939-.27 4.929z"/></svg>