<svg id="Layer_1" viewBox="0 0 24 24" xmlns="http://www.w3.org/2000/svg" data-name="Layer 1"><path d="m22.728 21.316-1.954-1.951c.106-1.725.226-4.341.226-7.366 0-5.484-.401-9.716-.405-9.758-.031-.326-.22-.615-.504-.775-.085-.048-.864-.467-2.091-.467s-2.006.419-2.091.467c-.284.16-.473.45-.504.775-.002.021-.105 1.106-.206 2.876-.32-.065-.722-.118-1.199-.118-1.181 0-1.929.322-2.01.358-.321.145-.543.447-.583.797-.009.076-.168 1.474-.285 3.577l-8.431-8.415c-.389-.391-1.023-.391-1.414 0-.39.391-.39 1.024.002 1.414l20.036 20.001c.39.391 1.024.39 1.414 0 .39-.391.39-1.024-.002-1.414zm-5.386-18.248c.354-.076.965-.075 1.316 0 .108 1.361.342 4.777.342 8.933 0 2.072-.058 3.944-.128 5.468l-1.81-1.807c-.038-1.223-.062-2.454-.062-3.661 0-4.155.233-7.571.342-8.932zm-4.016 3.985c.367-.06.982-.06 1.348 0 .108 1.144.305 3.641.323 6.546l-1.956-1.952c.066-2.037.203-3.715.285-4.594zm2.441 12.951c-.571-.057-1.063.377-1.093.942-.367.06-.983.06-1.349 0-.075-.791-.193-2.226-.265-3.987-.022-.569-.523-.959-1.075-.959-.541 0-.985.431-1 .974-.041 1.612-.173 3.129-.256 3.955-.39.078-1.057.079-1.431-.007-.108-.962-.3-2.946-.3-4.922 0-.885.04-1.869.12-2.925.042-.551-.371-1.031-.922-1.072-.551-.049-1.03.371-1.072.922-.004.055-.005.105-.009.161-.302-.048-.678-.085-1.117-.085-1.143 0-1.862.249-1.94.277-.325.118-.566.395-.638.733-.017.082-.422 2.017-.422 3.99s.386 3.887.402 3.968c.068.338.306.616.629.737.081.03.821.295 1.969.295 1.384-.049 1.753-.159 2.161-.349.341.142.981.349 1.839.349 1.007 0 1.731-.257 1.985-.362.002 0 .004.003.006.003.081.037.829.358 2.01.358s1.929-.322 2.01-.358c.321-.145.543-.447.583-.797 0 0 .031-.269.077-.751.051-.55-.353-1.037-.902-1.089zm-8.994.947c-.42.055-1.114.055-1.521-.005-.106-.677-.253-1.814-.253-2.946 0-1.126.154-2.27.266-2.951.396-.055 1.075-.054 1.469 0 .111.68.266 1.823.266 2.95 0 1.119-.13 2.258-.227 2.951z"/></svg>