<svg id="Layer_1" viewBox="0 0 24 24" xmlns="http://www.w3.org/2000/svg" data-name="Layer 1"><path d="m19.102 9.926c-.361-.418-.315-1.049.103-1.411s1.049-.315 1.411.103c.979 1.134 1.696 2.486 2.13 4.018.15.531-.159 1.084-.69 1.235-.517.151-1.086-.154-1.235-.69-.354-1.249-.932-2.344-1.719-3.255zm3.605 12.781c-.391.391-1.023.391-1.414 0l-20-20c-.391-.391-.391-1.023 0-1.414s1.023-.391 1.414 0l.938.938c.528-.153 1.139-.23 1.855-.23 3.07 0 4.5 1.43 4.5 4.5 0 .608-.045 1.269-.124 1.962l9.888 9.888c.549-.492.981-1.202 1.287-2.12.174-.524.742-.81 1.265-.633.524.175.808.741.633 1.265-.406 1.218-1.008 2.178-1.779 2.895l1.537 1.537c.391.391.391 1.023 0 1.414zm-17.29-18.704 2.58 2.58c0-.027.003-.057.003-.083 0-1.939-.561-2.5-2.5-2.5-.029 0-.054.002-.083.003zm9.083 14.997c-1.553 0-2.249-2.02-2.525-3.224-.104-.455-.509-.776-.975-.776s-.87.322-.975.776c-.429 1.868-1.281 3.224-2.025 3.224-.474 0-1.002-.416-1.533-1.113.987-1.338 1.839-3.041 2.481-5.087.166-.527-.127-1.088-.654-1.254-.526-.165-1.088.127-1.254.654-.463 1.475-1.04 2.754-1.691 3.802-1.205-2.47-2.217-6.037-2.339-9.043-.023-.552-.502-.99-1.04-.958-.552.022-.981.488-.958 1.04.107 2.621 1.165 7.453 2.986 10.687-.698.685-1.442 1.134-2.203 1.294-.541.113-.887.644-.773 1.184.111.544.657.888 1.184.773 1.039-.218 2.026-.763 2.932-1.582.842.988 1.8 1.604 2.863 1.604 1.193 0 2.248-.783 3.023-2.18.849 1.41 2.048 2.18 3.477 2.18.552 0 1-.448 1-1s-.448-1-1-1z"/></svg>