<svg id="Layer_1" viewBox="0 0 24 24" xmlns="http://www.w3.org/2000/svg" data-name="Layer 1"><path d="m21.733 5.617c-.028-.221-.131-.427-.29-.583l-3.646-3.59c-.157-.155-.361-.253-.58-.28-.765-.093-2.147-.163-3.217-.163-3.572 0-6.307.808-6.421.842-.304.091-.546.321-.653.619-.038.104-.926 2.622-.926 7.54s.888 7.435.926 7.54c.107.298.35.527.653.619.114.034 2.849.842 6.421.842s6.307-.808 6.421-.842c.304-.091.546-.321.653-.619.038-.104.926-2.622.926-7.54 0-1.555-.09-3.03-.267-4.383zm-2.4 10.758c-.908.218-2.93.625-5.333.625s-4.424-.407-5.333-.625c-.231-.899-.667-3.036-.667-6.375s.437-5.479.667-6.375c.908-.218 2.93-.625 5.333-.625.842 0 1.921.048 2.644.114l3.149 3.101c.138 1.175.207 2.447.207 3.786 0 3.341-.437 5.479-.667 6.375zm-3.335 5.499c.035.551-.384 1.026-.935 1.061-.653.041-1.345.065-2.075.065-4.929 0-8.261-1.126-9.164-1.472-.297-.113-.522-.361-.607-.667-.365-1.32-1.217-5.021-1.217-10.861 0-1.389.049-2.759.146-4.074.041-.55.524-.971 1.07-.923.551.041.965.52.924 1.071-.093 1.266-.141 2.587-.141 3.926 0 4.971.632 8.281 1.014 9.829 1.163.385 4.024 1.171 7.975 1.171.686 0 1.336-.022 1.948-.061.54-.045 1.026.383 1.062.935zm1.643-12.879c.033.09.286.829.346 2.005h-2.987v-2.963c1.271.09 1.96.326 2.048.358.276.103.493.322.593.599zm-3.641 2.005h-3.987c.06-1.176.313-1.915.346-2.005.1-.277.316-.497.593-.599.109-.04 1.124-.396 3.048-.396zm-3.987 1h2.987v2.963c-1.271-.09-1.96-.326-2.048-.358-.276-.103-.493-.322-.593-.599-.033-.09-.286-.829-.346-2.005zm3.987 0h3.987c-.06 1.176-.313 1.915-.346 2.005-.1.277-.316.497-.593.599-.109.04-1.124.396-3.048.396z"/></svg>