<svg id="Layer_1" viewBox="0 0 24 24" xmlns="http://www.w3.org/2000/svg" data-name="Layer 1"><path d="m7.193 16h4.807v3c-1.306 0-2.438-.107-3.351-.243-.66-.098-1.176-.604-1.274-1.264-.065-.441-.128-.939-.183-1.493zm2.807-4.936c-.6.038-1.164.091-1.684.153-.754.09-1.318.742-1.305 1.501.007.447.022.886.04 1.282h2.949zm5.695.153c-1.065-.128-2.304-.217-3.69-.217-.002 0-.003 0-.005 0v3h4.959c.018-.398.033-.837.04-1.284.012-.758-.552-1.408-1.305-1.499zm-1.695 7.696c.493-.042.952-.096 1.362-.157.66-.098 1.176-.604 1.274-1.264.065-.44.128-.938.182-1.492h-2.818zm7-6.913c0 6.103-1.078 9.206-1.124 9.335-.099.277-.315.498-.591.602-.116.043-2.887 1.063-7.285 1.063s-7.169-1.021-7.285-1.063c-.276-.104-.492-.324-.591-.602-.046-.129-1.124-3.232-1.124-9.335s1.078-9.206 1.124-9.335c.099-.277.315-.498.591-.602.116-.043 2.887-1.063 7.285-1.063 1.118 0 2.234.068 3.317.202.221.027.427.128.584.285l4.489 4.488c.157.156.257.36.285.58.216 1.684.325 3.516.325 5.444zm-2 0c0-1.716-.09-3.347-.268-4.854l-3.999-3.999c-.896-.098-1.813-.147-2.733-.147-3.024 0-5.219.528-6.125.792-.274 1.026-.875 3.78-.875 8.208s.6 7.18.875 8.209c.905.263 3.1.791 6.125.791s5.219-.528 6.125-.792c.274-1.026.875-3.78.875-8.208z"/></svg>