<svg id="Layer_1" viewBox="0 0 24 24" xmlns="http://www.w3.org/2000/svg" data-name="Layer 1"><path d="m20.197 16.349-.519-3.932c-.933-5.531-1.698-8.417-7.678-8.417s-6.74 2.901-7.684 8.497l-.51 3.851c-1.571.211-2.794 1.564-2.806 3.152 0 1.486.538 2.417.6 2.519.152.252.409.423.7.469.133.021 3.332.512 9.701.512s9.567-.491 9.701-.512c.291-.046.547-.217.7-.469.062-.102.6-1.032.6-2.526-.012-1.58-1.234-2.931-2.803-3.144zm-8.197-10.349c4.202 0 4.754 1.106 5.701 6.714l.457 3.464c-1.554-.098-3.597-.178-6.158-.178s-4.601.08-6.154.178l.448-3.383c.958-5.682 1.512-6.795 5.707-6.795zm8.846 14.583c-1.151.136-4.117.417-8.846.417s-7.695-.282-8.846-.417c-.078-.256-.154-.623-.154-1.076.004-.6.506-1.134 1.117-1.192 1.543-.144 4.164-.315 7.883-.315s6.339.171 7.882.315c.612.058 1.113.592 1.118 1.185 0 .458-.077.827-.154 1.083zm-.553-14.376c-.391-.391-.391-1.023 0-1.414l.5-.5c.391-.391 1.023-.391 1.414 0s.391 1.023 0 1.414l-.5.5c-.391.391-1.023.391-1.414 0zm-3.504-3.947.297-.667c.226-.505.817-.73 1.321-.506.504.225.731.816.506 1.321l-.297.667c-.225.51-.828.729-1.321.506-.504-.225-.731-.816-.506-1.321zm-14.996 3.447c-.391-.391-.391-1.023 0-1.414s1.023-.391 1.414 0l.5.5c.391.391.391 1.023 0 1.414s-1.023.391-1.414 0zm3.293-3.3c-.225-.504.002-1.096.506-1.321s1.095.001 1.321.506l.297.667c.225.504-.002 1.096-.506 1.321-.493.223-1.095.003-1.321-.506zm3.624 8.377c.317-1.433.553-1.908.723-2.162.118-.176.289-.311.489-.383.43-.156 1.148-.239 2.078-.239.552 0 1 .448 1 1s-.448 1-1 1c-.479 0-.812.025-1.032.052-.073.221-.176.583-.306 1.165-.117.543-.667.88-1.192.76-.539-.12-.879-.654-.76-1.193z"/></svg>