<svg id="Layer_1" viewBox="0 0 24 24" xmlns="http://www.w3.org/2000/svg" data-name="Layer 1"><path d="m14.5 10.021c-.103 2.385-1.014 4.138-1.052 4.212-.08.15-.231.251-.401.265-.169.015-.336-.059-.439-.196-.019-.023-.3-.4-.597-1.084-.297.684-.578 1.061-.597 1.084-.104.137-.268.212-.439.196-.17-.014-.322-.113-.401-.265-.039-.074-.95-1.827-1.053-4.212-.012-.276.202-.509.478-.521.278-.014.509.202.521.478.051 1.172.322 2.187.561 2.871.155-.353.32-.809.443-1.358.051-.229.254-.391.488-.391s.437.163.488.391c.123.549.288 1.005.443 1.357.238-.684.509-1.699.56-2.87.012-.276.259-.49.521-.478.276.012.49.245.478.521zm-5.979-.521c-.267-.012-.509.202-.521.478-.051 1.171-.322 2.187-.56 2.87-.155-.353-.32-.809-.443-1.357-.051-.229-.254-.391-.488-.391s-.437.163-.488.391c-.123.549-.288 1.005-.443 1.358-.238-.684-.51-1.699-.561-2.871-.012-.276-.248-.492-.521-.478-.276.012-.49.245-.478.521.103 2.385 1.014 4.138 1.053 4.212.08.151.231.251.401.265.171.016.336-.06.439-.196.019-.023.3-.4.597-1.084.297.684.578 1.061.597 1.084.103.137.27.211.439.196.17-.014.322-.114.401-.265.039-.074.949-1.827 1.052-4.212.012-.276-.202-.509-.478-.521zm10.981 0c-.274-.012-.508.202-.521.478-.051 1.172-.322 2.187-.561 2.871-.155-.353-.32-.809-.443-1.358-.051-.229-.254-.391-.488-.391s-.437.163-.488.391c-.123.549-.288 1.005-.443 1.357-.238-.684-.509-1.699-.56-2.87-.012-.276-.236-.492-.521-.478-.276.012-.49.245-.478.521.103 2.385 1.014 4.138 1.052 4.212.08.15.231.251.401.265.169.015.336-.059.439-.196.019-.023.3-.4.597-1.084.297.684.578 1.061.597 1.084.104.137.271.21.439.196.17-.014.322-.113.401-.265.039-.074.95-1.827 1.053-4.212.012-.276-.202-.509-.478-.521zm3.498 2.5c0 7.71-3.29 11-11 11s-11-3.29-11-11 3.29-11 11-11 11 3.29 11 11zm-7.431-8.66c.383.717.68 1.616.907 2.66h3.232c-.87-1.379-2.217-2.234-4.139-2.66zm-6.005 2.66h4.871c-.753-2.815-1.701-2.968-2.436-3-.692 0-1.762.297-2.436 3zm-5.272 0h3.232c.227-1.044.524-1.943.907-2.66-1.922.426-3.269 1.281-4.139 2.66zm4.139 14.66c-.383-.717-.68-1.616-.907-2.66h-3.232c.87 1.379 2.217 2.234 4.139 2.66zm6.005-2.66h-4.872c.753 2.815 1.701 2.968 2.436 3 .788 0 1.762-.297 2.436-3zm5.272 0h-3.232c-.227 1.044-.524 1.943-.907 2.66 1.922-.426 3.269-1.281 4.139-2.66zm.85-2c.299-1.117.442-2.438.442-4s-.143-2.883-.442-4h-17.116c-.299 1.117-.442 2.438-.442 4s.143 2.883.442 4h17.115z"/></svg>