<svg id="Layer_1" viewBox="0 0 24 24" xmlns="http://www.w3.org/2000/svg" data-name="Layer 1"><circle cx="7.5" cy="14" r="1.5"/><path d="m22 16c-.552 0-1 .448-1 1v1.649c-.551.573-2.762 2.351-9 2.351-7.01 0-9.472-1.35-9.485-1.357-.474-.284-1.088-.131-1.372.343s-.131 1.088.343 1.372c.28.168 2.956 1.643 10.515 1.643 8.577 0 10.655-3.138 10.864-3.496.089-.153.136-.327.136-.504v-2c0-.552-.448-1-1-1z"/><path d="m2.4 17.8c.232.174 2.473 1.7 9.6 1.7 5.748 0 7.523-1.609 7.707-1.793.188-.188.293-.442.293-.707v-3c0-2.277-1.184-4.033-3.017-4.473-.034-.008-.067-.014-.101-.019l-2.818-.375.433-6.062c.025-.359-.144-.704-.443-.903-.179-.12-1.845-1.168-5.055-1.168s-4.875 1.048-5.055 1.168c-.247.165-.408.43-.439.726l-1.5 14c-.038.351.112.695.394.906zm3.037-14.157c.57-.248 1.763-.643 3.563-.643 1.696 0 2.852.351 3.455.596l-.1 1.404h-3.355c-.552 0-1 .448-1 1s.448 1 1 1h3.212l-.143 2h-4.069c-.552 0-1 .448-1 1s.448 1 1 1h4.934l3.627.483c1.061.286 1.439 1.528 1.439 2.517v2.471c-.646.349-2.373 1.029-6 1.029-4.697 0-7.018-.697-7.933-1.076z"/></svg>