<svg id="Layer_1" viewBox="0 0 24 24" xmlns="http://www.w3.org/2000/svg" data-name="Layer 1"><path d="m3.5 3c0-1.429.571-2 2-2s2 .571 2 2-.571 2-2 2-2-.571-2-2zm6.091 4.124c.017.083.409 2.053.409 4.376s-.392 4.294-.409 4.376c-.081.399-.396.71-.796.785-.03.006-.344.063-.795.128v5.21c0 .552-.448 1-1 1s-1-.448-1-1v-5.012c-.168.007-.336.012-.5.012s-.332-.005-.5-.012v5.012c0 .552-.448 1-1 1s-1-.448-1-1v-5.21c-.452-.066-.766-.123-.796-.129-.4-.075-.715-.386-.796-.785-.017-.083-.408-2.053-.408-4.376s.392-4.293.408-4.376c.081-.399.396-.71.796-.785.074-.014 1.82-.338 3.296-.338s3.222.325 3.295.338c.4.075.715.386.796.785zm-1.591 4.376c0-1.343-.147-2.579-.256-3.307-.594-.087-1.479-.193-2.244-.193s-1.649.106-2.244.193c-.108.728-.256 1.963-.256 3.307s.147 2.579.256 3.307c.595.087 1.479.193 2.244.193s1.649-.106 2.244-.193c.109-.728.256-1.963.256-3.307zm14.145-.29c-.06-.008-1.461-.21-2.645-.21s-2.585.202-2.645.21c-.546.08-.925.587-.845 1.134.079.546.584.921 1.133.846.014-.002 1.319-.19 2.356-.19s2.343.188 2.356.19c.535.081 1.056-.297 1.133-.846.08-.547-.299-1.054-.845-1.134zm-9.145-.21c-.552 0-1 .448-1 1s.448 1 1 1 1-.448 1-1-.448-1-1-1zm9.145 7.21c-.06-.008-1.461-.21-2.645-.21s-2.585.202-2.645.21c-.546.08-.925.587-.845 1.134.079.546.584.923 1.133.846.014-.002 1.319-.19 2.356-.19s2.343.188 2.356.19c.535.081 1.056-.297 1.133-.846.08-.547-.299-1.054-.845-1.134zm-9.145-.21c-.552 0-1 .448-1 1s.448 1 1 1 1-.448 1-1-.448-1-1-1zm4.144-11.81c.014-.002 1.319-.19 2.356-.19s2.343.188 2.356.19c.535.081 1.056-.297 1.133-.846.08-.547-.299-1.054-.845-1.134-.06-.008-1.461-.21-2.645-.21s-2.585.202-2.645.21c-.546.08-.925.587-.845 1.134.079.546.584.924 1.133.846zm-4.144-2.19c-.552 0-1 .448-1 1s.448 1 1 1 1-.448 1-1-.448-1-1-1z"/></svg>