<svg id="Layer_1" viewBox="0 0 24 24" xmlns="http://www.w3.org/2000/svg" data-name="Layer 1"><path d="m22.294 10.979c-.023-.006-.5-.123-1.347-.277-.12-2.937-.219-4.549 1.654-5.902.353-.266.489-.731.337-1.146-.153-.415-.543-.685-1.001-.652-4.249.266-7.459 2.998-8.54 6.965-.78-.018-1.593-.021-2.38-.007.08-4.23.567-5.172 3.528-7.096.384-.249.549-.727.402-1.16s-.569-.707-1.026-.675c-6.855.543-10.182 3.481-10.804 9.68-.822.15-1.284.264-1.307.27-.536.134-.861.676-.728 1.212.131.54.69.863 1.212.729.004 0 .255-.063.712-.153 0 .08-.006.154-.006.234 0 2.691 1.309 4 4 4s4-1.309 4-4c0-.353 0-.704 0-1.034.679-.013 1.36-.012 2.043 0-.029.339-.044.683-.044 1.034 0 2.691 1.309 4 4 4s4-1.309 4-4c0-.089-.003-.167-.004-.254.52.101.809.172.813.173.522.134 1.08-.189 1.212-.729.134-.536-.191-1.078-.728-1.212zm-13.294 2.021c0 1.589-.411 2-2 2s-2-.411-2-2c0-5.391 1.57-8.201 5.574-9.381-1.584 1.953-1.582 4.547-1.574 9.381zm8 2c-1.589 0-2-.411-2-2 0-3.422 1.716-6.158 4.399-7.358-.592 1.411-.531 3.008-.458 4.935.028.732.059 1.535.059 2.424 0 1.589-.411 2-2 2zm-10.75 4c0 .552-.448 1-1 1s-1-.448-1-1 .448-1 1-1 1 .448 1 1zm-3.25 3c0 .552-.448 1-1 1s-1-.448-1-1 .448-1 1-1 1 .448 1 1zm6.5 0c0 .552-.448 1-1 1s-1-.448-1-1 .448-1 1-1 1 .448 1 1zm7 0c0 .552-.448 1-1 1s-1-.448-1-1 .448-1 1-1 1 .448 1 1zm-3.5-3c0 .552-.448 1-1 1s-1-.448-1-1 .448-1 1-1 1 .448 1 1zm6.75 0c0 .552-.448 1-1 1s-1-.448-1-1 .448-1 1-1 1 .448 1 1zm3.25 3c0 .552-.448 1-1 1s-1-.448-1-1 .448-1 1-1 1 .448 1 1z"/></svg>