<svg id="Layer_1" viewBox="0 0 24 24" xmlns="http://www.w3.org/2000/svg" data-name="Layer 1"><path d="m22.612 15.406c-1.02.789-2.501.788-3.52 0-.687-.531-1.694-.531-2.382 0-.51.395-1.134.592-1.759.592s-1.25-.197-1.76-.592c-.687-.531-1.695-.531-2.382 0-1.02.789-2.499.789-3.52 0-.687-.531-1.695-.531-2.382 0-1.02.789-2.499.789-3.52 0-.437-.339-.517-.967-.178-1.403.337-.438.966-.516 1.403-.179.3.232.771.232 1.071 0 1.395-1.078 3.437-1.078 4.83 0 .3.232.771.232 1.071 0 1.395-1.078 3.437-1.078 4.831 0 .3.232.771.232 1.071 0 1.395-1.078 3.437-1.078 4.83 0 .3.232.771.232 1.071 0 .435-.337 1.064-.259 1.403.179.338.437.258 1.064-.178 1.403zm-17.362 2.594c-.552 0-1 .448-1 1s.448 1 1 1 1-.448 1-1-.448-1-1-1zm-3.25 3c-.552 0-1 .448-1 1s.448 1 1 1 1-.448 1-1-.448-1-1-1zm6.5 0c-.552 0-1 .448-1 1s.448 1 1 1 1-.448 1-1-.448-1-1-1zm7 0c-.552 0-1 .448-1 1s.448 1 1 1 1-.448 1-1-.448-1-1-1zm-3.5-3c-.552 0-1 .448-1 1s.448 1 1 1 1-.448 1-1-.448-1-1-1zm6.75 0c-.552 0-1 .448-1 1s.448 1 1 1 1-.448 1-1-.448-1-1-1zm3.25 3c-.552 0-1 .448-1 1s.448 1 1 1 1-.448 1-1-.448-1-1-1zm-19.758-9.03c.039-.01 3.969-.97 9.758-.97s9.719.96 9.758.97c.522.134 1.08-.189 1.212-.729.133-.536-.192-1.078-.728-1.212-.168-.042-4.189-1.03-10.243-1.03s-10.074.988-10.243 1.03c-.536.134-.861.676-.728 1.212.133.535.676.859 1.212.729zm15.159-4.17c.182.108.384.203.6.2.216.003.418-.092.6-.2 1.024-.768 1.933-1.676 2.701-2.701.331-.442.241-1.068-.201-1.4-.441-.331-1.068-.241-1.4.201-.218.291-.455.566-.7.835v-2.735c0-.552-.448-1-1-1s-1 .448-1 1v2.735c-.244-.268-.481-.544-.7-.835-.331-.441-.957-.532-1.4-.201-.442.332-.532.958-.201 1.4.768 1.024 1.676 1.933 2.701 2.701zm-12 0c.182.108.384.203.6.2.216.003.418-.092.6-.2 1.024-.768 1.933-1.676 2.701-2.701.331-.442.241-1.068-.201-1.4-.441-.331-1.068-.241-1.4.201-.218.291-.455.566-.7.835v-2.735c0-.552-.448-1-1-1s-1 .448-1 1v2.735c-.244-.268-.481-.544-.7-.835-.332-.441-.958-.532-1.4-.201-.442.332-.532.958-.201 1.4.768 1.024 1.676 1.933 2.701 2.701z"/></svg>