<svg id="Layer_1" viewBox="0 0 24 24" xmlns="http://www.w3.org/2000/svg" data-name="Layer 1"><path d="m22.612 10.407c-1.02.788-2.5.788-3.52 0-.688-.532-1.697-.532-2.381 0-.511.395-1.137.592-1.762.592s-1.25-.197-1.76-.591c-.686-.533-1.696-.532-2.38 0-1.021.79-2.502.79-3.521 0-.686-.533-1.694-.532-2.382 0-1.02.788-2.5.788-3.52 0-.437-.338-.517-.966-.179-1.403s.967-.516 1.403-.179c.299.232.771.232 1.07 0 1.396-1.08 3.438-1.079 4.832 0 .299.232.77.23 1.07 0 1.393-1.078 3.437-1.079 4.831 0 .3.232.771.23 1.07 0 1.392-1.078 3.436-1.08 4.831 0 .299.232.771.232 1.07 0 .438-.337 1.064-.258 1.403.179.338.437.258 1.065-.179 1.403zm-17.362 2.593c-.552 0-1 .448-1 1s.448 1 1 1 1-.448 1-1-.448-1-1-1zm-3.25 3c-.552 0-1 .448-1 1s.448 1 1 1 1-.448 1-1-.448-1-1-1zm6.5 0c-.552 0-1 .448-1 1s.448 1 1 1 1-.448 1-1-.448-1-1-1zm7 0c-.552 0-1 .448-1 1s.448 1 1 1 1-.448 1-1-.448-1-1-1zm-3.5-3c-.552 0-1 .448-1 1s.448 1 1 1 1-.448 1-1-.448-1-1-1zm6.75 0c-.552 0-1 .448-1 1s.448 1 1 1 1-.448 1-1-.448-1-1-1zm-13.5 6c-.552 0-1 .448-1 1s.448 1 1 1 1-.448 1-1-.448-1-1-1zm6.75 0c-.552 0-1 .448-1 1s.448 1 1 1 1-.448 1-1-.448-1-1-1zm6.75 0c-.552 0-1 .448-1 1s.448 1 1 1 1-.448 1-1-.448-1-1-1zm3.25-3c-.552 0-1 .448-1 1s.448 1 1 1 1-.448 1-1-.448-1-1-1zm-19.758-10.03c.039-.01 3.969-.97 9.758-.97s9.719.96 9.758.97c.522.134 1.08-.189 1.212-.729.134-.536-.191-1.078-.728-1.212-.168-.042-4.188-1.03-10.242-1.03s-10.074.989-10.242 1.031c-.536.134-.861.676-.728 1.212s.677.86 1.212.729z"/></svg>