<svg id="Layer_1" viewBox="0 0 24 24" xmlns="http://www.w3.org/2000/svg" data-name="Layer 1"><path d="m3 22c0 .552-.448 1-1 1s-1-.448-1-1 .448-1 1-1 1 .448 1 1zm2.25-4c-.552 0-1 .448-1 1s.448 1 1 1 1-.448 1-1-.448-1-1-1zm-3.25-6c.466-.036 1.369-.353 4.115-.667.548-.063.942-.56.879-1.108-.064-.549-.565-.94-1.108-.879-2.551.294-4.064.669-4.128.685-.536.134-.861.676-.727 1.212.113.455.521.758.97.758zm6-5c0-2.5 2.972-5.401 3.311-5.724.386-.368.993-.368 1.379 0 .339.323 3.311 3.225 3.311 5.724 0 2.691-1.309 4-4 4s-4-1.309-4-4zm2 0c0 1.589.411 2 2 2s2-.411 2-2c0-.991-1.048-2.487-2-3.557-.952 1.07-2 2.566-2 3.557zm7.886 4.333c2.408.277 3.858.634 3.872.638.522.134 1.08-.189 1.212-.729.134-.536-.191-1.078-.728-1.212-.062-.016-1.576-.39-4.128-.685-.551-.061-1.044.331-1.107.879-.063.549.33 1.045.879 1.108zm4.905 2.67c-.338-.438-.965-.516-1.403-.179-.301.232-.771.232-1.071 0-1.396-1.078-3.438-1.077-4.83 0-.3.231-.771.233-1.071 0-1.392-1.077-3.435-1.078-4.831 0-.3.232-.771.232-1.071 0-1.394-1.078-3.436-1.078-4.83 0-.3.232-.771.232-1.071 0-.437-.337-1.065-.259-1.403.179-.338.437-.258 1.064.178 1.403 1.021.789 2.5.789 3.52 0 .687-.531 1.695-.531 2.382 0 1.021.789 2.5.789 3.52 0 .688-.531 1.696-.531 2.382 0 .51.395 1.135.592 1.76.592s1.251-.197 1.761-.592c.686-.531 1.696-.531 2.382 0 1.02.789 2.5.789 3.52 0 .437-.339.517-.967.179-1.403zm-14.291 6.997c-.552 0-1 .448-1 1s.448 1 1 1 1-.448 1-1-.448-1-1-1zm13.5 0c-.552 0-1 .448-1 1s.448 1 1 1 1-.448 1-1-.448-1-1-1zm-3.25-3c-.552 0-1 .448-1 1s.448 1 1 1 1-.448 1-1-.448-1-1-1zm-6.75 0c-.552 0-1 .448-1 1s.448 1 1 1 1-.448 1-1-.448-1-1-1zm3.5 3c-.552 0-1 .448-1 1s.448 1 1 1 1-.448 1-1-.448-1-1-1z"/></svg>