<svg id="Layer_1" viewBox="0 0 24 24" xmlns="http://www.w3.org/2000/svg" data-name="Layer 1"><path d="m12 1c-7.009 0-10 2.99-10 10 0 4.729 1.423 6.955 5.017 7.674.185 3.616 1.922 4.326 4.983 4.326s4.799-.71 4.983-4.326c3.594-.719 5.017-2.944 5.017-7.674 0-7.01-2.991-10-10-10zm3.875 15.828c-.579.068-.937.611-.875 1.172 0 2.881-.622 3-3 3s-3-.119-3-3c.062-.561-.296-1.104-.875-1.172-2.853-.359-4.125-1.286-4.125-5.828 0-5.906 2.093-8 8-8s8 2.094 8 8c0 4.542-1.272 5.469-4.125 5.828zm-2.352-.093c.104.497-.182.992-.663 1.152-.101.034-.387.112-.861.112s-.76-.078-.861-.112c-.481-.16-.766-.655-.663-1.152.021-.104.098-.39.335-.799.229-.396.437-.605.515-.677.382-.346.964-.346 1.346 0 .078.071.285.28.515.677.238.409.314.695.335.799zm-3.524-4.734c-.028 1.513-.873 1.993-2 2-1.123-.007-1.972-.491-2-2 .026-1.484.873-1.993 2-2 1.123.007 1.975.547 2 2zm8-.002c-.028 1.513-.873 1.993-2 2-1.122-.007-1.972-.491-2-2 .026-1.484.873-1.993 2-2 1.123.007 1.975.547 2 2z"/></svg>