<svg id="Layer_1" viewBox="0 0 24 24" xmlns="http://www.w3.org/2000/svg" data-name="Layer 1"><path d="m22 13h-1.021c.012-.332.021-.666.021-1s-.009-.668-.021-1h1.021c.553 0 1-.448 1-1s-.447-1-1-1h-1.156c-.07-.723-.155-1.403-.242-2h.898c.553 0 1-.448 1-1s-.447-1-1-1h-1.238c-.047-.24-.079-.387-.085-.415-.083-.381-.381-.679-.763-.762-.028-.006-.175-.038-.414-.085v-1.238c0-.552-.447-1-1-1s-1 .448-1 1v.898c-.597-.087-1.277-.172-2-.242v-1.156c0-.552-.447-1-1-1s-1 .448-1 1v1.021c-.332-.012-.666-.021-1-.021s-.668.009-1 .021v-1.021c0-.552-.447-1-1-1s-1 .448-1 1v1.156c-.723.07-1.403.155-2 .242v-.898c0-.552-.447-1-1-1s-1 .448-1 1v1.238c-.239.047-.386.079-.414.085-.382.083-.68.381-.763.762-.006.028-.038.175-.085.415h-1.238c-.553 0-1 .448-1 1s.447 1 1 1h.898c-.087.597-.172 1.277-.242 2h-1.156c-.553 0-1 .448-1 1s.447 1 1 1h1.021c-.012.332-.021.666-.021 1s.009.668.021 1h-1.021c-.553 0-1 .448-1 1s.447 1 1 1h1.156c.07.723.155 1.403.242 2h-.898c-.553 0-1 .448-1 1s.447 1 1 1h1.238c.047.24.079.387.085.415.083.381.381.679.763.762.028.006.175.038.414.085v1.238c0 .552.447 1 1 1s1-.448 1-1v-.898c.597.087 1.277.172 2 .242v1.156c0 .552.447 1 1 1s1-.448 1-1v-1.021c.332.012.666.021 1 .021s.668-.009 1-.021v1.021c0 .552.447 1 1 1s1-.448 1-1v-1.156c.723-.07 1.403-.155 2-.242v.898c0 .552.447 1 1 1s1-.448 1-1v-1.238c.239-.047.386-.079.414-.085.382-.083.68-.381.763-.762.006-.028.038-.175.085-.415h1.238c.553 0 1-.448 1-1s-.447-1-1-1h-.898c.087-.597.172-1.277.242-2h1.156c.553 0 1-.448 1-1s-.447-1-1-1zm-16.35 5.35c-.22-1.177-.65-3.806-.65-6.35s.431-5.172.65-6.35c1.177-.22 3.806-.65 6.35-.65s5.173.431 6.35.65c.22 1.177.65 3.806.65 6.35s-.431 5.172-.65 6.35c-1.177.22-3.806.65-6.35.65s-5.173-.431-6.35-.65zm10.465-9.085c-.024-.022-2.706-2.264-4.115-2.264s-4.091 2.242-4.115 2.264c-.103.093-.184.207-.24.333-.203.457-.625 1.407-.645 3.418.019 1.179.26 2.036.436 2.66.089.316.327.568.638.675.724.249 1.816.625 3.938.649 2.099-.024 3.191-.401 3.915-.649.311-.107.564-.417.653-.732.16-.567.401-1.425.42-2.628-.02-1.986-.441-2.937-.645-3.393-.057-.126-.138-.24-.24-.333zm-1.338 5.359c-.6.182-1.426.361-2.766.377-1.358-.016-2.189-.195-2.79-.377-.111-.438-.212-.961-.222-1.613.013-1.308.229-2.009.387-2.399.631-.514 2.124-1.5 2.613-1.606.489.106 1.983 1.092 2.614 1.606.157.39.373 1.087.386 2.375-.01.659-.107 1.181-.223 1.638zm-1.334-2.916c.031.233.057.514.057.793s-.026.56-.057.793c-.044.341-.31.606-.651.651-.233.03-.514.057-.793.057s-.56-.026-.793-.057c-.341-.044-.606-.31-.651-.651-.031-.233-.057-.515-.057-.793s.026-.56.057-.793c.044-.341.31-.606.651-.651.233-.03.514-.057.793-.057s.56.026.793.057c.341.045.606.31.651.651z"/></svg>