<svg id="Layer_1" viewBox="0 0 24 24" xmlns="http://www.w3.org/2000/svg" data-name="Layer 1"><path d="m23 14.75c0 1.422-.466 2.762-1.346 3.875-.341.433-.969.508-1.405.164-.433-.343-.506-.972-.163-1.405.598-.755.914-1.666.914-2.633 0-1.643-.932-3.108-2.432-3.824-.348-.166-.569-.517-.569-.902 0-3.884-3.14-7.024-6.999-7.024s-7 3.14-7 7c0 1.15.286 2.293.828 3.303.132.246.155.536.064.799s-.288.477-.544.589c-.819.359-1.349 1.167-1.349 2.058 0 .64.273 1.251.751 1.678.412.368.447 1 .08 1.412-.37.412-1.002.446-1.412.079-.902-.806-1.419-1.961-1.419-3.169 0-1.336.629-2.573 1.66-3.366-.434-1.071-.66-2.224-.66-3.384.001-4.962 4.038-9 9.001-9 4.767 0 8.681 3.726 8.981 8.418 1.877 1.129 3.019 3.12 3.019 5.332zm-5.785-.653c.247.554.762 1.708.785 4.144-.021 1.464-.318 2.516-.515 3.212-.089.315-.348.642-.658.749-.888.306-2.23.768-4.815.799-2.608-.031-3.951-.493-4.839-.799-.311-.106-.549-.359-.638-.675-.217-.77-.514-1.822-.535-3.261.023-2.461.538-3.614.785-4.168.056-.125.137-.238.238-.331.03-.028 3.358-2.766 4.977-2.766s4.946 2.738 4.977 2.766c.102.093.183.206.238.331zm-4.215 6.503c0-.552-.448-1-1-1s-1 .448-1 1 .448 1 1 1 1-.448 1-1zm.866-3.069c-1.254-1.253-2.479-1.253-3.732 0-.312.312-.312.819 0 1.131s.819.312 1.132 0c.604-.604.863-.604 1.467 0 .312.312.82.313 1.132 0 .312-.312.312-.819 0-1.131zm1.848-1.644c-1.044-1.252-2.293-1.887-3.714-1.887-1.308 0-2.584.644-3.691 1.861-.297.327-.273.833.054 1.13.325.296.83.274 1.13-.054.796-.875 1.663-1.338 2.508-1.338.937 0 1.749.429 2.485 1.312.285.341.788.383 1.127.103.339-.283.385-.788.102-1.127z"/></svg>