<svg id="Layer_1" viewBox="0 0 24 24" xmlns="http://www.w3.org/2000/svg" data-name="Layer 1"><path d="m9 7c-5.533 0-8 2.468-8 8s2.467 8 8 8 8-2.468 8-8-2.467-8-8-8zm0 14c-4.43 0-6-1.57-6-6s1.57-6 6-6 6 1.57 6 6-1.57 6-6 6zm1.5-8c0-.552.448-1 1-1s1 .448 1 1-.448 1-1 1-1-.448-1-1zm-5 0c0-.552.448-1 1-1s1 .448 1 1-.448 1-1 1-1-.448-1-1zm7.201 3.287c.394.388.399 1.021.012 1.414-.86.874-2.074 1.299-3.713 1.299s-2.853-.425-3.713-1.299c-.387-.394-.382-1.026.012-1.414.395-.387 1.027-.383 1.414.012.471.479 1.197.701 2.287.701s1.816-.223 2.287-.701c.388-.395 1.021-.398 1.414-.012zm10.299-11.287c0 .553-.448 1-1 1h-2v2c0 .553-.448 1-1 1s-1-.447-1-1v-2h-2c-.552 0-1-.447-1-1s.448-1 1-1h2v-2c0-.553.448-1 1-1s1 .447 1 1v2h2c.552 0 1 .447 1 1z"/></svg>