<svg id="Layer_1" viewBox="0 0 24 24" xmlns="http://www.w3.org/2000/svg" data-name="Layer 1"><path d="m22.001 8.005c-.323 0-.655-.031-.931-.068-.037-.276-.068-.608-.068-.931 0-.552-.447-.999-.999-.999s-.999.447-.999.999c0 .597.079 1.191.143 1.578-.201.3-.655.867-1.44 1.393-.1-1.543-.521-2.664-1.286-3.477.038-.311.062-.637.062-.991 0-3.067-1.428-4.495-4.495-4.495s-4.495 1.428-4.495 4.495c0 .354.024.681.062.991-.766.814-1.187 1.935-1.287 3.479-.76-.507-1.21-1.053-1.421-1.362.065-.386.148-.998.148-1.611 0-.552-.447-.999-.999-.999s-.999.447-.999.999c0 .323-.031.655-.068.931-.276.037-.608.068-.931.068-.552 0-.999.447-.999.999s.447.999.999.999c.476 0 .95-.05 1.319-.103.423.577 1.191 1.418 2.435 2.102-.509 1.027-.758 2.327-.758 3.994 0 4.836 2.156 6.992 6.992 6.992s6.992-2.156 6.992-6.992c0-1.667-.248-2.967-.758-3.994 1.246-.685 2.014-1.528 2.437-2.105.373.054.857.106 1.342.106.552 0 .999-.447.999-.999s-.447-.999-.999-.999zm-10.013-4.995c1.937 0 2.497.56 2.497 2.497s-.56 2.497-2.497 2.497-2.497-.56-2.497-2.497.56-2.497 2.497-2.497zm0 6.992c1.606 0 2.751-.402 3.489-1.216.234.64.306 1.842.223 2.708-.165 2.242-1.146 3.003-3.712 3.003s-3.547-.761-3.712-3.003c-.082-.866-.01-2.067.223-2.708.738.813 1.883 1.216 3.489 1.216zm0 10.988c-3.734 0-4.994-1.26-4.994-4.994 0-.599.05-1.113.123-1.591.896 1.406 2.492 2.09 4.871 2.09s3.976-.684 4.871-2.09c.073.477.123.992.123 1.591 0 3.734-1.26 4.994-4.994 4.994z"/></svg>