<svg id="Layer_1" viewBox="0 0 24 24" xmlns="http://www.w3.org/2000/svg" data-name="Layer 1"><path d="m20.973 12.947c.018.338.027.688.027 1.053 0 6.309-2.691 9-9 9s-9-2.691-9-9c0-.376.009-.738.028-1.086.03-.552.499-1.007 1.053-.943.551.029.974.501.944 1.053-.017.312-.025.638-.025.977 0 5.168 1.832 7 7 7s7-1.832 7-7c0-.327-.008-.643-.024-.947-.029-.551.394-1.022.945-1.052.554-.028 1.022.394 1.052.946zm-10.973 1.053c0-.552-.448-1-1-1s-1 .448-1 1 .448 1 1 1 1-.448 1-1zm6 0c0-.552-.448-1-1-1s-1 .448-1 1 .448 1 1 1 1-.448 1-1zm-3.567 5.792c.443-.542 1.067-1.523 1.067-2.292 0-1.071-.429-1.5-1.5-1.5s-1.5.429-1.5 1.5c0 .786.62 1.759 1.063 2.295.227.275.645.273.87-.003zm9.854-9.834c-.142.042-3.551 1.042-10.287 1.042s-10.146-1-10.287-1.042c-.528-.158-.828-.715-.67-1.243s.716-.828 1.243-.673c.015.004.783.224 2.272.452.266-3.929.893-6.169.922-6.268.099-.347.376-.612.726-.697.089-.021 2.217-.528 5.795-.528s5.707.507 5.795.528c.35.085.627.351.726.697.029.1.656 2.339.922 6.268 1.489-.228 2.256-.448 2.272-.452.527-.157 1.085.145 1.243.673s-.142 1.085-.67 1.243zm-4.834-1.216c-.173-2.638-.518-4.501-.713-5.384-.82-.14-2.469-.358-4.739-.358s-3.919.219-4.739.358c-.195.883-.541 2.746-.713 5.384 1.453.146 3.266.258 5.453.258s4-.112 5.453-.258z"/></svg>