<svg id="Layer_1" viewBox="0 0 24 24" xmlns="http://www.w3.org/2000/svg" data-name="Layer 1"><path d="m19.843 9.364c.094-.411.157-.854.157-1.364 0-2.691-1.309-4-4-4s-4 1.309-4 4v.009c-2.166.019-4.328.348-4.465.372-4.052.863-6.535 1.668-6.535 7.119s2.483 6.256 6.581 7.128c.092.015 2.284.372 4.419.372s4.327-.357 4.465-.381c4.052-.863 6.535-1.668 6.535-7.119 0-3.324-.908-5.113-3.157-6.136zm-3.843-3.364c1.589 0 2 .411 2 2s-.411 2-2 2-2-.411-2-2 .411-2 2-2zm.095 14.654c-.021.003-2.128.346-4.095.346-1.952 0-4.042-.337-4.049-.337-3.843-.818-4.951-1.229-4.951-5.163s1.108-4.345 4.905-5.154c.021-.003 2.128-.346 4.095-.346.12 0 .239.007.358.009.549 1.326 1.745 1.991 3.642 1.991 1.265 0 2.213-.301 2.874-.886 1.459.596 2.126 1.511 2.126 4.386 0 3.934-1.108 4.345-4.905 5.154zm-4.096-7.676c.023.552-.404 1.018-.957 1.042-1.449.062-2.71.272-4.011.675-.018.196-.031.46-.031.806 0 .348.014.613.031.81.437.141.826.25 1.198.338.538.127.871.666.744 1.203-.126.541-.68.871-1.203.743-.594-.14-1.215-.325-1.955-.583-.306-.106-.542-.355-.632-.667-.12-.417-.184-1.054-.184-1.844s.063-1.428.184-1.844c.09-.312.326-.561.633-.667 1.674-.582 3.308-.889 5.142-.967.511-.008 1.019.405 1.041.957zm-3.999-5.978c1.99 0 3-1.009 3-3s-1.01-3-3-3-3 1.009-3 3 1.01 3 3 3zm0-4c.879 0 1 .122 1 1s-.121 1-1 1-1-.122-1-1 .121-1 1-1zm12-.5c0-1.071.429-1.5 1.5-1.5s1.5.429 1.5 1.5-.429 1.5-1.5 1.5-1.5-.429-1.5-1.5z"/></svg>