<svg id="Layer_1" viewBox="0 0 24 24" xmlns="http://www.w3.org/2000/svg" data-name="Layer 1"><path d="m22.354 2.338c-.082-.368-.364-.657-.729-.749-.086-.022-2.137-.527-4.716-.527-1.192 0-2.26.109-3.085.227-.948-.208-1.954-.203-2.881-.227-2.579 0-4.629.505-4.716.527-.392.098-.686.423-.743.823-.425 2.973-.494 6.928-.505 8.193-.397.415-1.149 1.188-1.662 1.651-1.116 1.007-2.317 2.99-2.317 4.964 0 3.901 1.817 5.717 5.717 5.717 1.11 0 2.066-.195 2.921-.569.822.367 1.819.569 3.045.569 1.763 0 3.103-.437 4.345-1.418.962-.759 5.847-5.468 5.847-9.52 0-.28.02-.638.043-1.066.098-1.828.261-4.887-.564-8.596zm-1.811 1.056c.136.699.23 1.367.301 2.01-.839-.155-2.273-.364-3.935-.364-1.556 0-2.911.183-3.767.334.05-.674.111-1.35.187-1.991.751-.138 2.076-.332 3.58-.332 1.541 0 2.893.204 3.634.343zm-9.179-.316c-.077.637-.14 1.303-.191 1.968-1.529-.039-3.132.174-3.996.327.05-.674.111-1.35.187-1.991.822-.151 2.327-.327 4-.305zm-8.375 14.142c0-1.45 1.019-2.908 1.66-3.488.782-.705 1.995-1.991 2.046-2.045.174-.184.271-.428.271-.682 0-.028.002-1.609.091-3.585.636-.132 2.294-.413 3.992-.389-.076 1.568-.098 2.926-.104 3.574-.397.415-1.149 1.188-1.662 1.651-1.116 1.007-2.317 2.99-2.317 4.964 0 1.529.29 2.728.865 3.632-.343.06-.707.096-1.113.096-2.823 0-3.729-.906-3.729-3.729zm17.943-6.392c-.025.471-.046.865-.046 1.172 0 2.912-4.054 7.141-5.09 7.959-.62.49-1.475.99-3.113.99-2.823 0-3.729-.906-3.729-3.729 0-1.45 1.019-2.908 1.66-3.488.782-.705 1.995-1.991 2.046-2.045.174-.184.271-.428.271-.682 0-.028.002-1.609.091-3.585.652-.133 2.148-.392 3.886-.392 1.963 0 3.605.328 4.082.434.044 1.357-.014 2.508-.059 3.366z"/></svg>