<svg id="Layer_1" viewBox="0 0 24 24" xmlns="http://www.w3.org/2000/svg" data-name="Layer 1"><path d="m22 11c0-4.571-.893-8.191-.931-8.343-.083-.332-.329-.598-.653-.706-.116-.039-2.917-.951-8.416-.951s-8.3.913-8.417.951c-.324.108-.571.375-.654.706-.038.152-.93 3.772-.93 8.343-.552 0-1 .448-1 1 0 4.896 1.003 8.162 1.045 8.298.096.307.333.549.638.65.047.016.489.159 1.316.334v.718c0 .552.448 1 1 1s1-.448 1-1v-.376c1.495.204 3.489.376 6 .376s4.505-.172 6-.376v.376c0 .552.447 1 1 1s1-.448 1-1v-.718c.828-.175 1.27-.318 1.316-.334.305-.102.542-.344.638-.65.043-.137 1.046-3.402 1.046-8.298 0-.552-.447-1-1-1zm-17.255-7.293c1.007-.242 3.438-.707 7.255-.707s6.25.465 7.254.707c.241 1.163.746 3.993.746 7.293v.007c-1.391.035-2.59 1.024-2.864 2.386-.115.573-.217 1.169-.303 1.779-3.12-.228-6.546-.227-9.667 0-.085-.611-.187-1.207-.302-1.779-.275-1.362-1.473-2.351-2.864-2.386v-.007c0-3.3.504-6.13.745-7.293zm15.439 15.481c-1.062.263-3.807.812-8.184.812s-7.123-.55-8.184-.812c-.239-.96-.711-3.197-.801-6.188h.911c.475 0 .886.332.978.788.164.812.297 1.676.396 2.568.06.54.54.928 1.083.885 3.585-.32 7.65-.32 11.234 0 .556.043 1.023-.346 1.083-.886.099-.89.231-1.753.396-2.567.092-.457.503-.788.978-.788h.911c-.091 2.991-.562 5.228-.802 6.188z"/></svg>