<svg id="Layer_1" viewBox="0 0 24 24" xmlns="http://www.w3.org/2000/svg" data-name="Layer 1"><path d="m21.939 13h-.236c-.153-2.042-.685-3.502-.671-3.46-.107-.278-.333-.495-.616-.589-.116-.039-2.917-.951-8.416-.951s-8.3.913-8.416.951c-.283.094-.509.311-.616.589.017-.058-.521 1.429-.671 3.46h-.236c-.275 0-.538.113-.728.314-.188.2-.287.469-.271.744.218 3.744.951 6.139.982 6.239.096.307.333.55.639.652.047.016.489.158 1.316.334v.718c0 .552.447 1 1 1s1-.448 1-1v-.376c1.495.204 3.489.376 6 .376s4.505-.172 6-.376v.376c0 .552.447 1 1 1s1-.448 1-1v-.718c.828-.175 1.27-.318 1.316-.334.306-.102.543-.345.639-.652.031-.1.765-2.495.982-6.239.017-.275-.082-.544-.27-.744-.189-.201-.452-.314-.728-.314zm-9.939-3c3.878 0 6.325.48 7.301.718.112.434.273 1.189.411 2.298-1.404.08-2.565 1.106-2.791 2.512-.032.199-.062.411-.094.643-3.115-.228-6.539-.228-9.654 0-.031-.232-.062-.444-.094-.643-.226-1.407-1.387-2.433-2.791-2.513.139-1.109.3-1.865.411-2.297.977-.239 3.424-.718 7.301-.718zm8.183 9.188c-1.063.263-3.808.812-8.183.812s-7.122-.549-8.183-.812c-.182-.733-.499-2.208-.679-4.188h.978c.494 0 .91.355.989.846.067.416.127.893.195 1.509.061.541.528.932 1.083.886 3.584-.32 7.65-.32 11.234 0 .548.047 1.023-.346 1.083-.886.068-.616.128-1.093.195-1.509.079-.49.495-.846.989-.846h.978c-.18 1.98-.497 3.455-.679 4.188zm-18.983-14.588c-.267-.355-.267-.844 0-1.2.624-.834 1.364-1.574 2.2-2.2.441-.333 1.068-.242 1.399.2.332.442.242 1.069-.2 1.4-.084.063-.16.135-.241.2h15.282c-.081-.066-.157-.137-.241-.2-.442-.331-.532-.958-.2-1.4.331-.44.958-.531 1.399-.2.836.626 1.576 1.366 2.2 2.2.267.355.267.844 0 1.2-.625.834-1.365 1.574-2.2 2.2-.437.33-1.067.244-1.399-.2-.332-.442-.242-1.069.2-1.4.084-.063.16-.135.241-.2h-15.281c.081.066.157.137.241.2.442.331.532.958.2 1.4-.332.444-.962.53-1.399.2-.835-.625-1.575-1.366-2.2-2.2z"/></svg>