<svg id="Layer_1" viewBox="0 0 24 24" xmlns="http://www.w3.org/2000/svg" data-name="Layer 1"><path d="m22.01 8.567c-.083-.41-.413-.726-.827-.79-1.17-.182-3.052-.441-5.19-.609.023-.436-.025-.886-.09-1.267l.927-.535c.478-.276.642-.888.366-1.366s-.887-.643-1.366-.366l-.758.438c-.492-.529-1.178-.863-2.072-.997v-1.074c0-.553-.448-1-1-1s-1 .447-1 1v1.074c-.893.135-1.58.468-2.072.997l-.758-.438c-.48-.276-1.091-.111-1.366.366-.276.479-.112 1.09.366 1.366l.927.535c-.065.381-.113.831-.09 1.267-2.138.168-4.02.427-5.19.609-.414.064-.744.38-.827.79-.165.819-.99 5.079-.99 8.507 0 .482.345.896.82.983.196.036 4.558.824 9.179.93v2.012s-2.999 0-2.999 0c-.552 0-1 .447-1 1s.448 1 1 1h8c.552 0 1-.447 1-1s-.448-1-1-1h-3v-2.012c4.621-.106 8.984-.894 9.18-.93.475-.087.82-.501.82-.983 0-3.428-.825-7.688-.99-8.507zm-1.442 3.433h-4.298c-.067-.909-.148-1.848-.245-2.821 1.614.132 3.076.314 4.156.47.106.569.249 1.401.386 2.351zm-8.568 5c-.834 0-1.672-.03-2.49-.075.009-.921.041-1.897.095-2.925h4.79c.054 1.028.086 2.004.095 2.925-.818.045-1.656.075-2.49.075zm-2.265-5c.071-.95.157-1.929.261-2.95.662-.03 1.333-.05 2.004-.05s1.342.02 2.004.05c.105 1.022.19 2.001.261 2.95h-4.531zm.265-5c0-1.589.411-2 2-2s2 .411 2 2c0 .018-.002.032-.002.049-.661-.029-1.328-.049-1.998-.049s-1.337.021-1.998.049c0-.017-.002-.032-.002-.049zm-2.026 2.179c-.097.973-.178 1.912-.245 2.821h-4.297c.138-.95.281-1.782.386-2.351 1.08-.156 2.542-.338 4.156-.47zm-4.792 4.821h4.421c-.05.972-.08 1.899-.091 2.779-1.913-.172-3.56-.403-4.496-.55.027-.735.089-1.491.166-2.229zm13.306 2.78c-.011-.881-.041-1.807-.091-2.78h4.421c.077.739.138 1.495.166 2.229-.935.147-2.582.379-4.496.55z"/></svg>