<svg id="Layer_1" viewBox="0 0 24 24" xmlns="http://www.w3.org/2000/svg" data-name="Layer 1"><path d="m22.613 8.83c-.599-4.359-2.017-6.656-2.176-6.903-.158-.244-.414-.408-.701-.448-1.647-.231-4.544-.479-7.735-.479s-6.088.247-7.735.479c-.288.04-.543.204-.701.448-.16.247-1.577 2.544-2.176 6.903-.596 4.332-.332 7.149-.32 7.268.04.403.318.742.706.859.134.041 3.197.941 9.227 1.034v2.617c-1.715.078-2.884.333-3.241.421-.536.133-.863.676-.73 1.212.132.536.678.856 1.211.729.367-.091 1.721-.388 3.759-.388 2.312.002 3.272.322 4.001.417.449 0 .857-.304.97-.759.133-.536-.194-1.079-.73-1.212-.356-.088-1.526-.343-3.241-.421v-2.617c6.03-.093 9.093-.993 9.227-1.034.388-.117.667-.456.706-.859.012-.118.276-2.936-.32-7.268zm-2.104-.492c-.904-.086-2.345-.197-4.346-.268-.191-2.334-.416-4.043-.554-4.965 1.32.075 2.482.181 3.368.29.452.865 1.127 2.589 1.533 4.942zm-6.937-5.316c.11.698.361 2.454.575 4.996-.671-.011-1.385-.018-2.147-.018s-1.476.007-2.147.018c.215-2.542.466-4.298.575-4.996.513-.013 1.036-.022 1.572-.022s1.059.009 1.572.022zm-1.572 12.978c-.901 0-1.72-.023-2.496-.056.012-2.192.091-4.185.201-5.922.713-.013 1.475-.022 2.295-.022s1.582.008 2.295.022c.11 1.737.189 3.73.201 5.922-.776.033-1.595.056-2.496.056zm-6.977-12.604c.885-.109 2.048-.215 3.368-.29-.138.922-.363 2.631-.554 4.965-2.001.071-3.442.181-4.346.268.405-2.353 1.08-4.077 1.533-4.942zm-1.807 6.981c.753-.08 2.253-.213 4.479-.298-.103 1.695-.177 3.624-.19 5.748-2.19-.177-3.693-.448-4.487-.622-.033-.891-.038-2.594.198-4.828zm17.766 4.828c-.794.173-2.297.445-4.487.622-.013-2.124-.087-4.053-.19-5.748 2.226.085 3.726.218 4.479.298.236 2.234.23 3.937.198 4.828z"/></svg>