<svg id="Layer_1" viewBox="0 0 24 24" xmlns="http://www.w3.org/2000/svg" data-name="Layer 1"><path d="m10.8 5.4c.332.442.242 1.069-.2 1.4-.438.33-1.067.244-1.4-.2-.655-.874-1.407-1.663-2.2-2.41v17.81c0 .552-.448 1-1 1s-1-.448-1-1v-17.81c-.793.746-1.545 1.536-2.2 2.41-.33.441-.956.533-1.4.2-.442-.331-.531-.958-.2-1.4 1.195-1.592 2.608-3.005 4.2-4.2.355-.267.845-.267 1.2 0 1.592 1.194 3.005 2.607 4.2 4.2zm8.2 17.6c-1.425 0-2.854-.31-2.915-.323-.381-.083-.679-.381-.762-.762-.013-.06-.323-1.489-.323-2.915s.31-2.854.323-2.915c.083-.381.381-.679.762-.762.06-.013 1.489-.323 2.915-.323s2.854.31 2.915.323c.381.083.679.381.762.762.013.06.323 1.489.323 2.915s-.31 2.854-.323 2.915c-.083.381-.381.679-.762.762-.06.013-1.489.323-2.915.323zm-1.84-2.16c.965.151 2.715.151 3.68 0 .076-.482.16-1.171.16-1.84s-.084-1.357-.16-1.84c-.965-.151-2.715-.151-3.68 0-.076.482-.16 1.171-.16 1.84s.084 1.357.16 1.84zm.84-9.84c-1.865 0-3.736-.406-3.814-.423-.381-.083-.679-.381-.762-.762-.018-.079-.423-1.95-.423-3.814s.406-3.736.423-3.814c.083-.381.381-.679.762-.762.079-.018 1.95-.423 3.814-.423s3.736.406 3.814.423c.381.083.679.381.762.762.018.079.423 1.95.423 3.814s-.406 3.736-.423 3.814c-.083.381-.381.679-.762.762-.079.018-1.95.423-3.814.423zm-2.744-2.256c.654.11 1.715.256 2.744.256s2.089-.146 2.744-.256c.11-.654.256-1.715.256-2.744s-.146-2.089-.256-2.744c-.654-.11-1.715-.256-2.744-.256s-2.089.146-2.744.256c-.11.654-.256 1.715-.256 2.744s.146 2.089.256 2.744z"/></svg>