<svg id="Layer_1" viewBox="0 0 24 24" xmlns="http://www.w3.org/2000/svg" data-name="Layer 1"><path d="m6.947 1.105c-.281-.141-.613-.141-.895 0-.094.047-2.316 1.187-3.947 4.447-.247.494-.047 1.095.447 1.342.495.246 1.094.046 1.342-.447.514-1.03 1.091-1.79 1.605-2.343v17.896c0 .552.447 1 1 1s1-.448 1-1v-17.895c.514.553 1.091 1.313 1.605 2.342.176.351.528.553.896.553.15 0 .303-.034.446-.105.494-.247.694-.848.447-1.342-1.631-3.261-3.854-4.4-3.947-4.447z"/><path d="m12.415 8.729c.072.052 1.794 1.271 4.59 1.271 2.767 0 4.479-1.121 4.55-1.168.352-.234.518-.665.415-1.075-.995-3.98-3.798-6.149-4.376-6.562-.339-.25-.8-.261-1.148-.027-.136.09-3.332 2.262-4.414 6.503-.102.398.051.818.384 1.058zm4.582-5.448c.764.68 2.084 2.088 2.807 4.197-.587.237-1.552.521-2.799.521-1.263 0-2.233-.316-2.813-.573.724-2.081 2.053-3.48 2.806-4.146z"/><path d="m21.497 14.171c-.099-.327-.357-.581-.687-.674-.072-.02-1.794-.497-3.811-.497s-3.739.477-3.811.498c-.328.092-.586.345-.686.67-.021.067-.504 1.673-.504 3.832 0 2.14.482 3.761.503 3.829.099.327.357.581.687.674.072.02 1.794.497 3.811.497s3.739-.477 3.811-.498c.328-.092.586-.345.686-.67.021-.067.504-1.673.504-3.832 0-2.14-.482-3.761-.503-3.829zm-1.781 6.537c-.596.124-1.607.292-2.716.292-1.101 0-2.117-.169-2.716-.293-.122-.572-.284-1.55-.284-2.707s.162-2.135.284-2.708c.596-.124 1.607-.292 2.716-.292 1.101 0 2.117.169 2.716.293.122.572.284 1.55.284 2.707s-.162 2.135-.284 2.708z"/></svg>