<svg id="Layer_1" viewBox="0 0 24 24" xmlns="http://www.w3.org/2000/svg" data-name="Layer 1"><path d="m11 6.857v1.143c0 .552.448 1 1 1s1-.448 1-1v-1.143c1.25-.35 2-1.372 2-2.857 0-1.851-1.149-3-3-3s-3 1.149-3 3c0 1.486.75 2.508 2 2.857zm1-3.857c.738 0 1 .262 1 1s-.262 1-1 1-1-.262-1-1 .262-1 1-1zm8-1c-1.851 0-3 1.149-3 3 0 .682.158 1.267.448 1.736l-1.248 1.664c-.332.442-.242 1.069.2 1.4.18.135.391.2.599.2.304 0 .604-.138.801-.4l1.289-1.719c.283.07.581.119.911.119 1.851 0 3-1.149 3-3s-1.149-3-3-3zm0 4c-.738 0-1-.262-1-1s.262-1 1-1 1 .262 1 1-.262 1-1 1zm-12.999 4c.208 0 .419-.065.599-.2.442-.331.531-.958.2-1.4l-1.248-1.664c.29-.469.448-1.054.448-1.736 0-1.851-1.149-3-3-3s-3 1.149-3 3 1.149 3 3 3c.33 0 .628-.049.911-.119l1.289 1.719c.196.262.497.4.801.4zm-4.001-5c0-.738.262-1 1-1s1 .262 1 1-.262 1-1 1-1-.262-1-1zm14.634 11.916c-.23.036-.479.073-.745.109v-.025c0-2.335.466-4.239.47-4.258.064-.259.022-.533-.116-.761s-.363-.392-.622-.453c-.09-.021-2.235-.527-4.176-.527s-4.086.506-4.176.527c-.363.086-.647.368-.738.73-.021.087-.53 2.149-.53 4.743 0 1.548 0 2.771.24 3.61.238.824.839 1.513 1.653 1.774 1.559.568 3.929.615 4.659.615 2.44 0 3.724-.258 4.545-.896.62-.44.902-1.379.902-2.065 0-1.447-.221-2.304-.247-2.397-.134-.492-.616-.806-1.12-.726zm-7.39.431c-.222.257-.298.61-.204.936.002.008.229.794.229 1.775 0 .144 0 .442-.509.442-.341.022-.5-.139-.597-.439-.164-.571-.164-1.725-.164-3.061 0-1.551.205-2.911.345-3.656.725-.14 1.975-.344 3.1-.344.967 0 2.028.151 2.767.283-.155.874-.343 2.421-.322 3.919-.182.006-.367.01-.553.01-1.738 0-3.183-.2-3.197-.202-.336-.045-.672.081-.895.337zm6.635 3.172c-.458.328-1.517.481-3.327.481-.49 0-.976-.018-1.437-.052.1-.272.153-.571.153-.89 0-.332-.02-.645-.049-.929.585.044 1.319.083 2.117.083.951 0 1.844-.08 2.618-.178.026.276.045.614.045 1.005 0 .188-.073.396-.121.48z"/></svg>