<svg id="Layer_1" viewBox="0 0 24 24" xmlns="http://www.w3.org/2000/svg" data-name="Layer 1"><path d="m21 17c-1.446 0-1.912-.351-1.985-1.609.58-.522.985-1.144.985-1.891s-.405-1.369-.985-1.891c.073-1.258.539-1.609 1.985-1.609.553 0 1-.448 1-1s-.447-1-1-1c-2.097 0-3.343.806-3.797 2.43-.784-.415-1.606-.738-2.364-.971.551-.742 1.016-1.48 1.383-2.076.091-.148.177-.287.259-.417.167.017.334.035.519.035 1.99 0 3-1.009 3-3s-1.01-3-3-3-3 1.009-3 3c0 .92.225 1.62.654 2.118-.575.927-1.19 1.94-2.039 2.917-.409-.029-.82-.029-1.229 0-.849-.977-1.464-1.99-2.039-2.917.428-.498.654-1.198.654-2.118 0-1.991-1.01-3-3-3s-3 1.009-3 3 1.01 3 3 3c.184 0 .351-.018.519-.035.082.13.167.269.259.417.367.596.833 1.334 1.383 2.076-.758.233-1.58.557-2.364.971-.453-1.624-1.7-2.43-3.797-2.43-.553 0-1 .448-1 1s.447 1 1 1c1.446 0 1.912.351 1.985 1.609-.58.522-.985 1.144-.985 1.891s.405 1.369.985 1.891c-.073 1.258-.54 1.609-1.985 1.609-.553 0-1 .448-1 1s.447 1 1 1c2.097 0 3.343-.806 3.797-2.43.734.389 1.505.693 2.217.923-.12 2.622-1.15 3.507-4.014 3.507-.553 0-1 .448-1 1s.447 1 1 1c3.827 0 5.691-1.588 5.979-5.063.341.039.681.07 1.021.07.351 0 .703-.03 1.057-.073.277 3.504 2.14 5.104 5.982 5.104.553 0 1-.448 1-1s-.447-1-1-1c-2.882 0-3.907-.896-4.016-3.557.701-.229 1.459-.528 2.181-.911.453 1.624 1.7 2.43 3.797 2.43.553 0 1-.448 1-1s-.447-1-1-1zm-4-14c.879 0 1 .122 1 1s-.121 1-1 1-1-.122-1-1 .121-1 1-1zm-11 1c0-.878.121-1 1-1s1 .122 1 1-.121 1-1 1-1-.122-1-1zm1.89 10.885c-1.801-.9-1.889-1.38-1.89-1.384 0-.005.089-.485 1.89-1.386 1.479-.74 2.795-1.109 4.11-1.109s2.632.37 4.11 1.109c1.801.9 1.89 1.381 1.89 1.384 0 .004-.089.485-1.89 1.385-2.957 1.479-5.264 1.479-8.221 0z"/></svg>