<svg id="Layer_1" viewBox="0 0 24 24" xmlns="http://www.w3.org/2000/svg" data-name="Layer 1"><path d="m12.464 15.002s-.601-.006-.726.002c-.483.026-.867.393-.932.856-.076.344-.306 1.519-.306 3.14 0 1.9.316 3.187.33 3.24.132.54.689.86 1.21.728.535-.133.862-.675.73-1.21-.002-.007-.106-.439-.185-1.16 3.049-.068 3.511-1.817 3.511-2.868 0-2.714-2.73-2.725-3.633-2.728zm.042 3.597c.017-.646.074-1.192.13-1.595 1.462.028 1.462.353 1.462.726 0 .339 0 .848-1.592.869zm6.765-2.356c-.003.012-.271 1.121-.271 2.758s.268 2.746.271 2.758c.131.535-.195 1.077-.73 1.21-.521.132-1.078-.188-1.21-.728-.013-.054-.33-1.34-.33-3.24s.316-3.187.33-3.24c.151-.531.651-.856 1.281-.695.499.127.76.693.66 1.178zm-9.673-.24c0 .986-.382 2.24-1.174 3.139.431.585.916 1.464 1.154 2.661.108.542-.243 1.068-.785 1.177-.528.11-1.071-.24-1.176-.784-.193-.966-.591-1.612-.901-1.995-.207.051-.428.08-.658.09.079.899.211 1.46.213 1.468.131.535-.195 1.077-.73 1.21-.521.132-1.078-.188-1.21-.728-.013-.054-.33-1.34-.33-3.24 0-1.622.23-2.798.306-3.14.068-.485.483-.858.987-.858h.007c.308 0 .599.142.788.385.189.242.257.559.182.857-.002.008-.192.805-.251 2.036 1.096-.103 1.578-1.53 1.578-2.279 0-.553.448-1 1-1s1 .447 1 1zm13.403-4.002c0 1.217-.078 2.284-.238 3.261-.087.548-.615.916-1.148.826-.545-.09-.915-.604-.825-1.148.14-.857.211-1.847.211-2.938 0-6.561-2.439-9-9-9s-9.001 2.437-9.001 8.998c0 1.053.066 2.01.197 2.846.085.546-.289 1.058-.834 1.143-.547.081-1.057-.288-1.143-.834-.146-.938-.22-1.999-.22-3.154 0-7.711 3.29-11.001 11-11.001s11 3.29 11 11zm-17 1c-.552 0-1-.447-1-1 0-4.841 2.159-7 7-7 .376 0 .734.013 1.074.038.551.041.964.521.923 1.071-.041.551-.527.96-1.071.923-.293-.021-.602-.032-.926-.032-3.738 0-5 1.262-5 5 0 .553-.448 1-1 1zm6 1c-1.429 0-2-.571-2-2s.571-2 2-2c.201 0 .38.014.548.038l3.245-3.245c.391-.391 1.023-.391 1.414 0s.391 1.023 0 1.414l-3.245 3.245c.023.168.038.347.038.548 0 1.429-.571 2-2 2z"/></svg>