<svg id="Layer_1" viewBox="0 0 24 24" xmlns="http://www.w3.org/2000/svg" data-name="Layer 1"><path d="m13.905 19.17c.061.238.095.509.095.83 0 1.429-.571 2-2 2s-2-.571-2-2 .571-2 2-2c.094 0 .174.009.26.014.919-1.104 2.371-2.637 4.185-3.846.461-.307 1.081-.182 1.387.277.307.459.183 1.081-.277 1.387-1.541 1.028-2.814 2.352-3.649 3.338zm7.095-7.865v-4.947c.066.081.137.157.2.241.332.445.961.53 1.399.201.442-.332.532-.958.2-1.4-.624-.834-1.364-1.574-2.2-2.2-.355-.267-.844-.267-1.199 0-.836.626-1.576 1.366-2.2 2.2-.332.442-.242 1.068.2 1.4.441.332 1.069.241 1.399-.201.063-.084.135-.16.2-.241v3.176c-1.522-.92-3.51-1.406-6-1.507v-3.669c.066.081.137.157.2.241.332.445.961.53 1.399.201.442-.332.532-.958.2-1.4-.625-.835-1.365-1.575-2.2-2.201-.355-.267-.844-.267-1.199 0-.835.625-1.575 1.366-2.201 2.201-.331.442-.241 1.068.201 1.4s1.069.241 1.4-.201c.063-.084.134-.159.2-.241v3.669c-2.49.101-4.478.587-6 1.507v-3.176c.065.081.137.157.2.241.333.444.962.53 1.4.201.442-.332.532-.958.201-1.4-.625-.835-1.366-1.575-2.201-2.201-.355-.267-.844-.267-1.199 0-.835.625-1.575 1.366-2.201 2.201-.331.442-.241 1.068.201 1.4s1.068.241 1.4-.201c.063-.084.134-.159.2-.241v4.946c-1.364 1.777-2 4.309-2 7.695 0 .853.051 1.692.156 2.565.047.394.323.723.704.838 1.949.589 4.052.597 4.14.597.552 0 1-.447 1-1s-.447-1-1-1c-.017 0-1.452-.005-2.929-.344-.048-.557-.072-1.103-.072-1.656 0-6.56 2.439-9 9-9s9 2.439 9 9c0 .571-.021 1.117-.066 1.654-1.474.338-2.919.346-2.936.346-.552.001-.998.45-.998 1.001 0 .552.448.999 1 .999.089 0 2.196-.008 4.148-.6.38-.115.656-.444.703-.839.1-.834.147-1.672.147-2.561 0-3.386-.636-5.918-2-7.695z"/></svg>