<svg id="Layer_1" viewBox="0 0 24 24" xmlns="http://www.w3.org/2000/svg" data-name="Layer 1"><path d="m23.502 11.685c-1.267-3.816-3.061-7.026-5.485-9.814-.145-.167-.341-.281-.558-.324-.112-.022-2.76-.546-5.459-.546s-5.348.523-5.459.546c-.217.043-.413.157-.558.324-2.425 2.787-4.219 5.997-5.485 9.814-.068.205-.068.426 0 .631 1.267 3.816 3.061 7.026 5.485 9.814.145.167.341.281.558.324.112.022 2.76.546 5.459.546s5.348-.523 5.459-.546c.217-.043.413-.157.558-.324 2.424-2.788 4.218-5.998 5.485-9.814.068-.205.068-.426 0-.631zm-16.949 7.937c-1.512-1.97-2.727-4.171-3.675-6.661h2.089c.66 1.779 1.547 3.377 2.646 4.772zm8.745-11.495c.61.866 1.129 1.807 1.565 2.834h-3.156zm-3.298 1.79-1.584-2.822c.48-.053 1.031-.095 1.584-.095s1.104.043 1.584.095zm-1.708 1.044h-3.155c.436-1.027.954-1.968 1.565-2.834l1.591 2.834zm-2.653-4.727c-1.095 1.383-1.98 2.966-2.643 4.727h-2.088c.949-2.472 2.163-4.659 3.671-6.617l1.061 1.89zm-.533 6.727h3.185l-1.615 2.878c-.615-.877-1.133-1.835-1.57-2.878zm4.894 1.042 1.626 2.896c-.49.055-1.056.1-1.625.1s-1.136-.045-1.626-.1l1.626-2.896zm1.708-1.042h3.186c-.437 1.043-.955 2.001-1.57 2.878l-1.615-2.878zm2.679 4.772c1.099-1.395 1.987-2.994 2.647-4.772h2.089c-.949 2.49-2.164 4.691-3.676 6.662l-1.06-1.889zm2.617-6.772c-.662-1.761-1.547-3.345-2.643-4.727l1.061-1.89c1.508 1.958 2.721 4.145 3.671 6.617zm-3.283-7.673-1.081 1.926c-.642-.096-1.632-.214-2.64-.214s-1.998.118-2.64.214l-1.081-1.926c.975-.137 2.351-.288 3.721-.288s2.746.151 3.721.288zm-7.483 17.417 1.081-1.926c.64.097 1.653.22 2.681.22s2.041-.123 2.681-.22l1.081 1.926c-.977.139-2.373.294-3.762.294s-2.785-.155-3.762-.294z"/></svg>