<svg id="Layer_1" viewBox="0 0 24 24" xmlns="http://www.w3.org/2000/svg" data-name="Layer 1"><path d="m11.995 6.493c.049-1.7-.249-4.225-.253-4.201-.048-.369-.296-.681-.645-.809-.053-.021-1.321-.483-2.597-.483s-2.543.463-2.597.483c-.338.15-.572.446-.645.809-.007.013-.3 2.474-.253 4.201-2.742.924-4.005 3.182-4.005 7.007v7.958c0 .489.354.906.835.986.136.022 3.37.556 6.665.556s6.528-.533 6.664-.556c.482-.08.836-.497.836-.986v-7.958c0-3.825-1.264-6.083-4.005-7.007zm-4.825-3.304c.366-.093.857-.189 1.33-.189s.964.096 1.33.188c.069.673.16 1.786.167 2.891-.472-.049-.966-.08-1.497-.08s-1.026.031-1.498.08c.007-1.106.1-2.218.168-2.891zm6.83 17.405c-1.155.156-3.34.406-5.5.406s-4.345-.25-5.5-.406v-7.094c0-4.112 1.388-5.5 5.5-5.5s5.5 1.388 5.5 5.5zm-5.5-9.594c-2.322 0-3.5 1.178-3.5 3.5s1.178 3.5 3.5 3.5 3.5-1.178 3.5-3.5-1.178-3.5-3.5-3.5zm0 5c-1.233 0-1.5-.267-1.5-1.5s.267-1.5 1.5-1.5 1.5.267 1.5 1.5-.267 1.5-1.5 1.5zm8.285-10.04-.277-.968-.968-.277c-.72-.206-.72-1.225 0-1.431l.968-.277.277-.968c.206-.719 1.225-.719 1.431 0l.277.968.968.277c.72.206.72 1.225 0 1.431l-.968.277-.277.968c-.206.72-1.225.72-1.431 0zm5.675 4.255-.968.277-.277.968c-.206.72-1.225.72-1.431 0l-.277-.968-.968-.277c-.72-.206-.72-1.225 0-1.431l.968-.277.277-.968c.206-.719 1.225-.719 1.431 0l.277.968.968.277c.72.206.72 1.225 0 1.431z"/></svg>