<svg id="Layer_1" viewBox="0 0 24 24" xmlns="http://www.w3.org/2000/svg" data-name="Layer 1"><path d="m21.977 2.786c-.083-.381-.381-.679-.762-.762-.19-.042-4.714-1.023-9.215-1.023s-9.024.98-9.214 1.022c-.381.083-.679.381-.762.762-.042.19-1.023 4.713-1.023 9.214s.981 9.024 1.023 9.214c.083.381.381.679.762.762.19.042 4.713 1.023 9.214 1.023s9.024-.981 9.215-1.023c.381-.083.679-.381.762-.762.042-.19 1.023-4.713 1.023-9.214s-.981-9.024-1.023-9.214zm-1.827 17.365c-1.386.265-4.824.849-8.15.849s-6.765-.584-8.151-.849c-.265-1.386-.849-4.824-.849-8.151s.584-6.765.849-8.151c1.386-.265 4.824-.849 8.151-.849s6.765.584 8.15.849c.265 1.386.85 4.824.85 8.151s-.585 6.765-.85 8.151zm-4.15-10.271c0-3.861-3.913-3.875-5.39-3.88-.546.002-.737-.019-1.177.002-.489.027-.874.403-.931.876-.11.49-.501 2.414-.501 5.122 0 3.088.508 5.156.53 5.242.132.54.69.863 1.211.728.536-.133.862-.676.729-1.211-.003-.015-.26-1.07-.393-2.766.125.005.263.007.422.007.726 0 1.351-.062 1.905-.166.315.366 1.258 1.576 1.615 3.362.106.545.649.894 1.177.784.541-.108.893-.635.784-1.177-.334-1.673-1.068-2.938-1.613-3.699 1.278-.825 1.632-2.089 1.632-3.225zm-6 2.108c0-1.768.184-3.179.321-3.989h.287c3.392.012 3.392 1.004 3.392 1.88 0 .741 0 2.12-3.5 2.12-.206 0-.361-.004-.5-.012z"/></svg>