<svg id="Layer_1" viewBox="0 0 24 24" xmlns="http://www.w3.org/2000/svg" data-name="Layer 1"><path d="m21.806 2.858c-.1-.325-.357-.578-.685-.67-.173-.049-4.273-1.188-9.121-1.188s-8.947 1.139-9.12 1.188c-.329.093-.588.347-.687.674-.049.161-1.193 4.007-1.193 9.139 0 5.175 1.146 8.982 1.194 9.142.1.325.357.578.685.67.173.049 4.273 1.188 9.121 1.188s8.947-1.139 9.12-1.188c.329-.093.588-.347.687-.674.049-.161 1.193-4.007 1.193-9.139 0-5.175-1.146-8.982-1.194-9.142zm-1.771 17.167c-1.242.298-4.458.975-8.035.975s-6.797-.678-8.037-.976c-.301-1.185-.963-4.23-.963-8.024 0-3.752.665-6.829.965-8.025 1.242-.298 4.458-.975 8.035-.975s6.797.678 8.037.976c.301 1.185.963 4.23.963 8.024 0 3.752-.665 6.829-.965 8.025z"/><path d="m15.5 11h-2.5v-2.5c0-.552-.447-1-1-1s-1 .448-1 1v2.5h-2.5c-.553 0-1 .448-1 1s.447 1 1 1h2.5v2.5c0 .552.447 1 1 1s1-.448 1-1v-2.5h2.5c.553 0 1-.448 1-1s-.447-1-1-1z"/></svg>