<svg id="Layer_1" viewBox="0 0 24 24" xmlns="http://www.w3.org/2000/svg" data-name="Layer 1"><path d="m12.791 6.388c-.379-.49-1.203-.49-1.582 0-.131.169-1.318 1.755-2.486 5.086-1.215 3.463-1.224 5.446-1.223 5.529.002.551.448.994.999.995h.001c.55 0 .997-.446 1-.996 0-.011.01-.712.289-2.001h4.423c.278 1.289.289 1.989.289 1.997-.002.552.444 1.001.997 1.003h.003c.551 0 .998-.446 1-.997 0-.083-.008-2.065-1.223-5.529-1.168-3.331-2.355-4.917-2.486-5.086zm-2.464 6.612c.087-.278.176-.559.283-.864.502-1.431.998-2.496 1.39-3.231.392.736.888 1.8 1.39 3.231.107.305.196.586.283.864zm11.65-10.214c-.083-.381-.381-.679-.762-.762-.19-.042-4.713-1.023-9.214-1.023s-9.025.98-9.215 1.022c-.381.083-.679.381-.762.762-.042.19-1.023 4.713-1.023 9.214s.981 9.024 1.023 9.214c.083.381.381.679.762.762.19.042 4.713 1.023 9.214 1.023s9.024-.981 9.214-1.023c.381-.083.679-.381.762-.762.042-.19 1.023-4.713 1.023-9.214s-.981-9.024-1.023-9.214zm-9.977 18.214c-3.327 0-6.765-.584-8.151-.849-.265-1.386-.849-4.824-.849-8.151s.584-6.765.849-8.151c1.386-.265 4.824-.849 8.151-.849s6.765.584 8.151.849c.265 1.386.849 4.824.849 8.151s-.584 6.765-.849 8.151c-1.386.265-4.824.849-8.151.849z"/></svg>