<svg id="Layer_1" viewBox="0 0 24 24" xmlns="http://www.w3.org/2000/svg" data-name="Layer 1"><path d="m15.484 10.771c.314-.426.516-.997.516-1.771 0-3-3.011-3-4-3s-4 0-4 3c0 .773.202 1.345.516 1.771-.886.571-1.516 1.549-1.516 3.229 0 3.585 2.854 4 5 4s5-.415 5-4c0-1.68-.63-2.658-1.516-3.229zm-5.484-1.771c0-.514 0-1 2-1s2 .486 2 1 0 1-2 1-2-.486-2-1zm2 7c-2.785 0-3-.829-3-2s.215-2 3-2 3 .829 3 2-.215 2-3 2zm9.977-13.214c-.083-.381-.381-.679-.762-.762-.19-.042-4.714-1.023-9.215-1.023s-9.024.98-9.215 1.022c-.381.083-.679.381-.762.762-.042.19-1.023 4.713-1.023 9.214s.981 9.024 1.023 9.215c.083.381.381.679.762.762.19.042 4.714 1.023 9.215 1.023s9.024-.981 9.215-1.023c.381-.083.679-.381.762-.762.042-.19 1.023-4.714 1.023-9.215s-.981-9.024-1.023-9.214zm-1.826 17.365c-1.386.265-4.824.85-8.15.85s-6.765-.585-8.15-.85c-.265-1.386-.85-4.824-.85-8.15s.585-6.765.85-8.151c1.386-.265 4.824-.849 8.15-.849s6.765.584 8.15.849c.265 1.386.85 4.824.85 8.151s-.585 6.765-.85 8.15z"/></svg>