<svg id="Layer_1" viewBox="0 0 24 24" xmlns="http://www.w3.org/2000/svg" data-name="Layer 1"><path d="m15.181 11.104c.378-.504.569-1.143.569-1.917 0-3.171-3.423-3.182-4.715-3.186h-2.534s0-.001 0-.001c-.459 0-.859.312-.97.757-.021.086-.53 2.155-.53 5.242s.508 5.156.53 5.242c.111.445.511.757.97.757h2.865c1.541-.004 5.635-.017 5.635-3.776 0-1.692-.796-2.615-1.819-3.119zm-5.86-3.104h1.711c2.717.009 2.717.662 2.717 1.187 0 .491 0 1.312-2.562 1.312h-2.144c.062-1.071.181-1.932.277-2.499zm2.042 8h-2.042c-.125-.735-.287-1.962-.316-3.5.22.001 2.333-.002 2.495 0 3.5 0 3.5.916 3.5 1.724 0 .745 0 1.766-3.636 1.777zm10.614-13.214c-.083-.381-.381-.679-.762-.762-.19-.042-4.713-1.023-9.214-1.023s-9.025.98-9.215 1.022c-.381.083-.679.381-.762.762-.042.19-1.023 4.713-1.023 9.214s.981 9.024 1.023 9.214c.083.381.381.679.762.762.19.042 4.713 1.023 9.214 1.023s9.024-.981 9.214-1.023c.381-.083.679-.381.762-.762.042-.19 1.023-4.713 1.023-9.214s-.981-9.024-1.023-9.214zm-9.977 18.214c-3.327 0-6.765-.584-8.151-.849-.265-1.386-.849-4.824-.849-8.151s.584-6.765.849-8.151c1.386-.265 4.824-.849 8.151-.849s6.765.584 8.151.849c.265 1.386.849 4.824.849 8.151s-.584 6.765-.849 8.151c-1.386.265-4.824.849-8.151.849z"/></svg>