<svg id="Layer_1" viewBox="0 0 24 24" xmlns="http://www.w3.org/2000/svg" data-name="Layer 1"><path d="m12 6c-1.109 0-2.563.18-2.624.188-.401.05-.733.337-.84.728-.022.08-.536 1.986-.536 5.085s.515 4.984.537 5.063c.106.382.429.666.822.722.062.009 1.523.215 2.641.215 4.481 0 5-3.424 5-6s-.519-6-5-6zm0 10c-.535 0-1.189-.058-1.674-.111-.137-.739-.326-2.088-.326-3.889s.188-3.156.326-3.903c.485-.046 1.139-.097 1.674-.097 1.989 0 3 .619 3 4s-1.011 4-3 4zm9.977-13.214c-.083-.381-.381-.679-.762-.762-.19-.042-4.714-1.023-9.215-1.023s-9.024.98-9.215 1.022c-.381.083-.679.381-.762.762-.042.19-1.023 4.713-1.023 9.214s.981 9.024 1.023 9.214c.083.381.381.679.762.762.19.042 4.714 1.023 9.215 1.023s9.024-.981 9.215-1.023c.381-.083.679-.381.762-.762.042-.19 1.023-4.713 1.023-9.214s-.981-9.024-1.023-9.214zm-9.977 18.214c-3.326 0-6.765-.584-8.15-.849-.265-1.386-.85-4.824-.85-8.151s.585-6.765.85-8.151c1.386-.265 4.824-.849 8.15-.849s6.765.584 8.15.849c.265 1.386.85 4.824.85 8.151s-.585 6.765-.85 8.151c-1.386.265-4.824.849-8.15.849z"/></svg>