<svg id="Layer_1" viewBox="0 0 24 24" xmlns="http://www.w3.org/2000/svg" data-name="Layer 1"><path d="m9 12c0 3.381 1.01 4 3 4 .866 0 1.497-.146 1.929-.446.455-.315 1.077-.204 1.393.25.315.453.203 1.077-.25 1.392-.778.542-1.783.805-3.071.805-4.482 0-5-3.424-5-6s.518-6 5-6c1.288 0 2.293.263 3.071.805.453.315.565.938.25 1.392s-.938.565-1.393.25c-.432-.3-1.062-.446-1.929-.446-1.99 0-3 .619-3 4zm14 0c0 4.501-.981 9.024-1.023 9.214-.083.381-.381.679-.762.762-.19.042-4.714 1.023-9.215 1.023s-9.024-.981-9.214-1.023c-.381-.083-.679-.381-.762-.762-.042-.19-1.023-4.713-1.023-9.214s.98-9.024 1.022-9.214c.083-.381.381-.679.762-.762.19-.042 4.713-1.023 9.214-1.023s9.024.981 9.215 1.023c.381.083.679.381.762.762.042.19 1.023 4.713 1.023 9.214zm-2.85 8.151c.265-1.386.85-4.824.85-8.151s-.585-6.765-.85-8.151c-1.386-.265-4.824-.849-8.15-.849s-6.765.584-8.151.849c-.265 1.386-.849 4.824-.849 8.151s.584 6.765.849 8.151c1.386.265 4.824.849 8.151.849s6.765-.584 8.15-.849z"/></svg>