<svg id="Layer_1" viewBox="0 0 24 24" xmlns="http://www.w3.org/2000/svg" data-name="Layer 1"><path d="m12 6c-4.481 0-5 3.424-5 6s.519 6 5 6 5-3.424 5-6-.519-6-5-6zm0 10c-1.989 0-3-.618-3-4s1.011-4 3-4 3 .618 3 4-1.011 4-3 4zm9.977-13.215c-.083-.381-.381-.679-.762-.762-.19-.042-4.714-1.023-9.215-1.023s-9.024.981-9.215 1.023c-.381.083-.679.381-.762.762-.042.19-1.023 4.714-1.023 9.215s.981 9.024 1.023 9.215c.083.381.381.679.762.762.19.042 4.714 1.023 9.215 1.023s9.024-.981 9.215-1.023c.381-.083.679-.381.762-.762.042-.19 1.023-4.714 1.023-9.215s-.981-9.024-1.023-9.215zm-9.977 18.215c-3.326 0-6.765-.585-8.15-.85-.265-1.386-.85-4.824-.85-8.15s.585-6.765.85-8.15c1.386-.265 4.824-.85 8.15-.85s6.765.585 8.15.85c.265 1.386.85 4.824.85 8.15s-.585 6.765-.85 8.15c-1.386.265-4.824.85-8.15.85z"/></svg>