<svg id="Layer_1" viewBox="0 0 24 24" xmlns="http://www.w3.org/2000/svg" data-name="Layer 1"><path d="m21.977 2.785c-.083-.381-.381-.679-.762-.762-.19-.042-4.714-1.023-9.215-1.023s-9.024.981-9.215 1.023c-.381.083-.679.381-.762.762-.042.19-1.023 4.714-1.023 9.215s.981 9.024 1.023 9.215c.083.381.381.679.762.762.19.042 4.714 1.023 9.215 1.023s9.024-.981 9.215-1.023c.381-.083.679-.381.762-.762.042-.19 1.023-4.714 1.023-9.215s-.981-9.024-1.023-9.215zm-9.977 18.215c-3.326 0-6.765-.585-8.15-.85-.265-1.386-.85-4.824-.85-8.15s.585-6.765.85-8.15c1.386-.265 4.824-.85 8.15-.85s6.765.585 8.15.85c.265 1.386.85 4.824.85 8.15s-.585 6.765-.85 8.15c-1.386.265-4.824.85-8.15.85zm-1.174-12.064c.007.032.174.798.174 1.564v2.579c0 .84 0 3.395-2.822 3.905-.531.099-1.066-.26-1.162-.807-.098-.543.263-1.063.807-1.162.689-.073 1.227-.498 1.178-2.037-.162.013-.33.022-.5.022-.767 0-1.532-.167-1.564-.174-.381-.084-.678-.381-.762-.762-.007-.032-.174-.798-.174-1.564s.167-1.532.174-1.564c.084-.381.381-.678.762-.762.032-.007.798-.174 1.564-.174s1.532.167 1.564.174c.381.084.678.381.762.762zm7 0c.007.032.174.798.174 1.564v2.579c0 .84 0 3.395-2.822 3.905-.531.099-1.066-.26-1.162-.807-.098-.543.263-1.063.807-1.162.689-.073 1.227-.498 1.178-2.037-.162.013-.33.022-.5.022-.767 0-1.532-.167-1.564-.174-.381-.084-.678-.381-.762-.762-.007-.032-.174-.798-.174-1.564s.167-1.532.174-1.564c.084-.381.381-.678.762-.762.032-.007.798-.174 1.564-.174s1.532.167 1.564.174c.381.084.678.381.762.762z"/></svg>