<svg id="Layer_1" viewBox="0 0 24 24" xmlns="http://www.w3.org/2000/svg" data-name="Layer 1"><path d="m13.824 12.19c.738.879 1.711 2.391 2.156 4.614.108.542-.243 1.068-.784 1.177-.528.11-1.071-.239-1.177-.784-.413-2.066-1.356-3.339-1.938-3.961-.482.164-1.005.265-1.581.265-.174 0-.319-.003-.452-.008.116 1.978.419 3.251.423 3.267.133.535-.193 1.078-.729 1.211-.522.135-1.079-.188-1.211-.728-.021-.086-.53-2.154-.53-5.242 0-2.709.391-4.634.502-5.123.06-.494.476-.877.987-.877.635-.023 1.15.629.981 1.241-.004.018-.408 1.713-.46 4.247.138.007.287.012.49.012 2.473 0 3.5-2.931 3.5-4.5 0-.553.448-1 1-1s1 .447 1 1c0 1.662-.705 3.826-2.176 5.19zm9.176-.19c0 4.501-.981 9.024-1.023 9.215-.083.381-.381.679-.762.762-.19.042-4.713 1.023-9.214 1.023s-9.024-.981-9.214-1.023c-.381-.083-.679-.381-.762-.762-.042-.19-1.023-4.714-1.023-9.215s.979-9.024 1.021-9.215c.083-.381.381-.679.762-.762.19-.042 4.713-1.023 9.214-1.023s9.024.981 9.214 1.023c.381.083.679.381.762.762.042.19 1.023 4.714 1.023 9.215zm-2.849 8.15c.265-1.386.849-4.824.849-8.15s-.584-6.765-.849-8.15c-1.386-.265-4.824-.85-8.151-.85s-6.765.585-8.151.85c-.265 1.386-.849 4.824-.849 8.15s.584 6.765.849 8.15c1.386.265 4.824.85 8.151.85s6.765-.585 8.151-.85z"/></svg>