<svg id="Layer_1" viewBox="0 0 24 24" xmlns="http://www.w3.org/2000/svg" data-name="Layer 1"><path d="m21.977 2.785c-.083-.381-.381-.679-.762-.762-.19-.042-4.713-1.023-9.214-1.023s-9.025.981-9.215 1.023c-.381.083-.679.381-.762.762-.042.19-1.023 4.714-1.023 9.215s.981 9.024 1.023 9.215c.083.381.381.679.762.762.19.042 4.713 1.023 9.214 1.023s9.024-.981 9.214-1.023c.381-.083.679-.381.762-.762.042-.19 1.023-4.714 1.023-9.215s-.981-9.024-1.023-9.215zm-1.826 17.365c-1.386.265-4.824.85-8.151.85s-6.765-.585-8.151-.85c-.265-1.386-.849-4.824-.849-8.15s.584-6.765.849-8.15c1.386-.265 4.824-.85 8.151-.85s6.765.585 8.151.85c.265 1.386.849 4.824.849 8.15s-.584 6.765-.849 8.15zm-3.861-12.036-6.018 7.736c.525.083 1.133.149 1.729.149 1.562 0 3.212-.458 3.229-.463.531-.148 1.084.16 1.233.692.149.531-.16 1.083-.691 1.232-.078.022-1.926.538-3.771.538s-3.694-.516-3.771-.538c-.32-.09-.575-.334-.679-.649-.104-.316-.043-.664.161-.927l6.018-7.736c-.525-.083-1.133-.149-1.729-.149-1.562 0-3.212.458-3.229.463-.531.149-1.083-.16-1.233-.692-.149-.531.16-1.083.691-1.232.078-.022 1.926-.538 3.771-.538s3.694.516 3.771.538c.32.09.575.334.679.649.104.316.043.664-.161.927z"/></svg>