<svg id="Layer_1" viewBox="0 0 24 24" xmlns="http://www.w3.org/2000/svg" data-name="Layer 1"><path d="m21.977 2.786c-.083-.381-.381-.679-.762-.762-.19-.042-4.714-1.023-9.215-1.023s-9.024.98-9.215 1.022c-.381.083-.679.381-.762.762-.042.19-1.023 4.713-1.023 9.214s.981 9.024 1.023 9.214c.083.381.381.679.762.762.19.042 4.714 1.023 9.215 1.023s9.024-.981 9.215-1.023c.381-.083.679-.381.762-.762.042-.19 1.023-4.713 1.023-9.214s-.981-9.024-1.023-9.214zm-1.826 17.365c-1.386.265-4.824.849-8.15.849s-6.765-.584-8.15-.849c-.265-1.386-.85-4.824-.85-8.151s.585-6.765.85-8.151c1.386-.265 4.824-.849 8.15-.849s6.765.584 8.15.849c.265 1.386.85 4.824.85 8.151s-.585 6.765-.85 8.151zm-9.151-11.151v9c0 .552-.447 1-1 1s-1-.448-1-1v-9c0-.552.447-1 1-1s1 .448 1 1zm4-3v12c0 .552-.447 1-1 1s-1-.448-1-1v-12c0-.552.447-1 1-1s1 .448 1 1zm4 9v2.5c0 .552-.447 1-1 1s-1-.448-1-1v-2.5c0-.552.447-1 1-1s1 .448 1 1zm-12-3v5.5c0 .552-.447 1-1 1s-1-.448-1-1v-5.5c0-.552.447-1 1-1s1 .448 1 1z"/></svg>