<svg id="Layer_1" viewBox="0 0 24 24" xmlns="http://www.w3.org/2000/svg" data-name="Layer 1"><path d="m21.977 2.786c-.083-.381-.381-.679-.762-.762-.19-.042-4.713-1.023-9.214-1.023s-9.025.98-9.215 1.022c-.381.083-.679.381-.762.762-.042.19-1.023 4.713-1.023 9.214s.981 9.024 1.023 9.214c.083.381.381.679.762.762.19.042 4.713 1.023 9.214 1.023s9.024-.981 9.214-1.023c.381-.083.679-.381.762-.762.042-.19 1.023-4.713 1.023-9.214s-.981-9.024-1.023-9.214zm-9.977 18.214c-3.327 0-6.765-.584-8.151-.849-.265-1.386-.849-4.824-.849-8.151s.584-6.765.849-8.151c1.386-.265 4.824-.849 8.151-.849s6.765.584 8.151.849c.265 1.386.849 4.824.849 8.151s-.584 6.765-.849 8.151c-1.386.265-4.824.849-8.151.849zm6.57-14.809c.571 2.597.572 5.293.002 8.014-.111.544-.657.887-1.184.774-.541-.113-.887-.643-.774-1.184.374-1.786.461-3.555.289-5.285l-10.196 10.197c-.195.195-.451.293-.707.293s-.512-.098-.707-.293c-.391-.391-.391-1.023 0-1.414l10.197-10.197c-1.73-.172-3.498-.085-5.285.289-.541.112-1.07-.233-1.184-.774-.113-.541.233-1.071.774-1.184 2.722-.569 5.417-.569 8.014.002.381.083.678.381.762.762z"/></svg>