<svg id="Layer_1" viewBox="0 0 24 24" xmlns="http://www.w3.org/2000/svg" data-name="Layer 1"><path d="m16.983 16.468c.1.543-.259 1.064-.802 1.165-.67.124-1.849.361-3.432.367-1.872 0-3.534-.385-3.604-.401-.389-.092-.687-.406-.756-.8-.016-.09-.39-2.24-.39-4.799 0-2.545.37-5.043.386-5.148.082-.547.593-.916 1.137-.841.546.082.923.591.841 1.138-.003.024-.364 2.46-.364 4.852 0 1.563.153 2.98.259 3.777.593.101 1.518.223 2.491.223 1.402-.006 2.447-.22 3.068-.334.545-.106 1.065.259 1.165.802zm6.017-4.468c0 4.501-.981 9.024-1.023 9.215-.083.381-.381.679-.762.762-.19.042-4.713 1.023-9.214 1.023s-9.024-.981-9.214-1.023c-.381-.083-.679-.381-.762-.762-.042-.19-1.023-4.714-1.023-9.215s.979-9.024 1.021-9.215c.083-.381.381-.679.762-.762.19-.042 4.713-1.023 9.214-1.023s9.024.981 9.214 1.023c.381.083.679.381.762.762.042.19 1.023 4.714 1.023 9.215zm-2.849 8.15c.265-1.386.849-4.824.849-8.15s-.584-6.765-.849-8.15c-1.386-.265-4.824-.85-8.151-.85s-6.765.585-8.151.85c-.265 1.386-.849 4.824-.849 8.15s.584 6.765.849 8.15c1.386.265 4.824.85 8.151.85s6.765-.585 8.151-.85z"/></svg>