<?xml version="1.0" encoding="UTF-8"?>
<svg xmlns="http://www.w3.org/2000/svg" id="Layer_1" data-name="Layer 1" viewBox="0 0 24 24">
  <path d="M21.806,2.858c-.1-.325-.357-.578-.685-.67-.173-.049-4.273-1.188-9.121-1.188S3.053,2.139,2.88,2.188c-.329,.093-.588,.347-.687,.674-.049,.161-1.193,4.007-1.193,9.139,0,5.175,1.146,8.982,1.194,9.142,.1,.325,.357,.578,.685,.67,.173,.049,4.273,1.188,9.121,1.188s8.947-1.139,9.12-1.188c.329-.093,.588-.347,.687-.674,.049-.161,1.193-4.007,1.193-9.139,0-5.175-1.146-8.982-1.194-9.142Zm-1.771,17.167c-1.242,.298-4.458,.975-8.035,.975s-6.797-.678-8.037-.976c-.301-1.185-.963-4.23-.963-8.024,0-3.752,.665-6.829,.965-8.025,1.242-.298,4.458-.975,8.035-.975s6.797,.678,8.037,.976c.301,1.185,.963,4.23,.963,8.024,0,3.752-.665,6.829-.965,8.025Z"/>
  <path d="M10.206,14.688c-1.44-.902-2.4-2.049-2.867-2.69,.464-.639,1.416-1.777,2.867-2.687,.469-.293,.61-.91,.317-1.378-.293-.469-.913-.609-1.378-.317-2.557,1.601-3.822,3.797-3.875,3.89-.175,.306-.175,.681,0,.987,.053,.093,1.318,2.29,3.875,3.89,.164,.103,.878,.403,1.378-.317,.315-.454,.151-1.085-.317-1.378Z"/>
  <path d="M14.859,7.616c-.465-.292-1.085-.152-1.378,.317-.293,.468-.151,1.085,.317,1.378,1.451,.909,2.403,2.047,2.867,2.687-.467,.642-1.427,1.788-2.867,2.69-.469,.293-.632,.924-.317,1.378,.5,.72,1.214,.42,1.378,.317,2.557-1.601,3.822-3.797,3.875-3.89,.175-.306,.175-.681,0-.987-.053-.093-1.318-2.29-3.875-3.89Z"/>
</svg>
