<svg id="Layer_1" viewBox="0 0 24 24" xmlns="http://www.w3.org/2000/svg" data-name="Layer 1"><path d="m21.958 7.246c-.05-.167-.144-.319-.271-.439-2.388-2.26-5.52-4.189-9.31-5.733-.242-.099-.513-.099-.755 0-3.79 1.544-6.922 3.473-9.31 5.733-.127.12-.22.271-.271.439-.042.142-1.042 3.522-1.042 7.754 0 4.181.55 7.069.574 7.19.105.542.627.897 1.172.791.542-.104.896-.629.792-1.171-.002-.011-.095-.504-.202-1.351 1.298-.127 5.04-.459 8.665-.459s7.367.332 8.665.459c-.107.847-.2 1.339-.202 1.351-.104.542.25 1.067.792 1.171.529.107 1.069-.246 1.172-.791.023-.121.574-3.009.574-7.19 0-4.231-1-7.612-1.042-7.754zm-9.958-4.164c2.191.92 4.128 1.975 5.803 3.149-1.603-.117-3.705-.231-5.802-.231-2.097 0-4.2.114-5.803.231 1.675-1.174 3.612-2.229 5.803-3.149zm1 14.926v-3.693c.12-.15.296-.334.49-.444.481-.271.652-.881.381-1.362s-.881-.651-1.362-.381c-.826.465-1.318 1.274-1.372 1.364-.09.154-.138.329-.138.507v4.008c-3.417.051-6.66.341-7.866.461-.077-.995-.134-2.167-.134-3.469 0-2.91.52-5.429.794-6.553.34-.035 1.139-.112 2.206-.194v.75c0 .552.447 1 .999 1 .552 0 1-.447 1-1v-.883c.942-.052 1.963-.094 3-.112v.993c0 .552.447 1 .999 1 .552 0 1-.447 1-1v-.994c1.038.018 2.059.059 3.001.112v.882c-.001.552.447 1 .999 1 .552 0 1-.447 1-1v-.751c1.067.081 1.867.159 2.207.194.273 1.124.794 3.643.794 6.553 0 1.302-.057 2.474-.134 3.469-1.206-.119-4.449-.41-7.866-.461z"/></svg>