<svg id="Layer_1" viewBox="0 0 24 24" xmlns="http://www.w3.org/2000/svg" data-name="Layer 1"><path d="m22.193 21.019c-.125-.025-1.946-.379-4.443-.663-1.243-2.066-2.843-3.851-4.75-5.33v-8.784c1.03-.638 2.219-1.252 3.537-1.737.36.349.871.492 1.463.495 1.127-.007 1.972-.487 2-1.999-.025-1.453-.877-1.992-2-1.999-1.005.006-1.783.417-1.959 1.557-5.252 1.865-8.633 5.602-8.788 5.776-.367.413-.33 1.045.083 1.412.412.366 1.044.331 1.412-.083.017-.02.836-.923 2.252-2.029v7.391c-1.908 1.478-3.508 3.263-4.75 5.33-2.497.284-4.319.638-4.444.663-.542.107-.894.633-.787 1.175s.632.892 1.175.788c.05-.01 5.028-.981 9.806-.981s9.757.972 9.807.981c.528.107 1.069-.243 1.175-.788.106-.542-.246-1.068-.788-1.175zm-10.193-1.019c-1.085 0-2.167.048-3.205.121.912-1.257 1.982-2.384 3.205-3.362 1.222.978 2.292 2.105 3.205 3.362-1.037-.073-2.12-.121-3.205-.121z"/></svg>