<svg id="Layer_1" viewBox="0 0 24 24" xmlns="http://www.w3.org/2000/svg" data-name="Layer 1"><path d="m21.977 2.786c-.083-.381-.381-.679-.762-.762-.19-.042-4.713-1.023-9.214-1.023s-9.025.98-9.215 1.022c-.381.083-.679.381-.762.762-.042.19-1.023 4.713-1.023 9.214 0 4.997.984 9.254 1.026 9.433.075.319.3.581.604.702.089.035 2.225.865 6.369.865.604.015 1.105-.583.984-1.175-.043-.244-.892-4.757-4.138-7.278 4.738-1.335 6.019-5.599 6.139-11.547h.014s.01 0 .014 0c.121 5.948 1.401 10.213 6.139 11.547-3.246 2.521-4.095 7.034-4.138 7.278-.12.592.38 1.189.984 1.175 4.144 0 6.28-.83 6.369-.865.304-.121.53-.383.604-.702.042-.179 1.026-4.437 1.026-9.433 0-4.501-.981-9.024-1.023-9.214zm-14.284 18.183c-1.908-.092-3.191-.369-3.836-.543-.18-.896-.523-2.803-.716-5.14 2.71 1.066 4.014 4.008 4.552 5.684zm-4.678-7.993c-.009-.322-.015-.647-.015-.976 0-3.327.584-6.765.849-8.151.485-.093 1.233-.225 2.128-.357-.075 1.771-.357 3.1-.86 4.033-.262.486-.081 1.093.405 1.355.477.26 1.091.086 1.355-.405.693-1.283 1.048-2.965 1.11-5.238.639-.069 1.308-.126 1.996-.168-.164 7.035-2.018 9.672-6.968 9.907zm11.002-9.907c.688.042 1.357.099 1.996.168.062 2.274.417 3.955 1.11 5.238.264.491.878.664 1.355.405.486-.262.667-.869.405-1.355-.503-.933-.785-2.261-.86-4.033.896.132 1.643.264 2.128.357.265 1.386.849 4.824.849 8.151 0 .329-.007.653-.015.976-4.95-.235-6.804-2.872-6.968-9.907zm6.126 17.357c-.647.175-1.932.452-3.84.543.534-1.674 1.833-4.618 4.557-5.685-.193 2.337-.537 4.245-.716 5.141z"/></svg>