<svg id="Layer_1" viewBox="0 0 24 24" xmlns="http://www.w3.org/2000/svg" data-name="Layer 1"><path d="m2.236 22.999c-.45 0-.858-.306-.97-.762-.011-.045-.267-1.111-.267-2.619s.257-2.56.268-2.603c.089-.356.366-.636.723-.728.046-.012 1.138-.287 2.656-.287.518 0 1.008.031 1.43.073-.043-.43-.076-.931-.076-1.455 0-1.51.257-2.56.268-2.603.089-.356.366-.636.723-.728.046-.012 1.138-.287 2.656-.287.518 0 1.001.026 1.414.061-.034-.413-.061-.896-.061-1.414 0-1.519.275-2.61.287-2.656.092-.356.371-.634.728-.723.044-.011 1.094-.268 2.603-.268.524 0 1.025.033 1.455.076-.042-.422-.073-.912-.073-1.43 0-1.519.275-2.61.287-2.656.092-.356.371-.634.728-.723.044-.011 1.094-.268 2.603-.268s2.574.256 2.619.267c.536.131.865.672.734 1.209s-.676.863-1.209.734c-.006-.002-.892-.21-2.144-.21-.613 0-1.134.05-1.507.102-.056.382-.111.92-.111 1.545 0 1.279.23 2.391.233 2.401.163.678-.499 1.349-1.181 1.187-.011-.002-1.156-.234-2.435-.234-.613 0-1.134.05-1.507.102-.056.382-.111.92-.111 1.545 0 1.296.189 2.373.191 2.384.137.66-.499 1.301-1.161 1.161-.011-.002-1.088-.191-2.384-.191-.625 0-1.162.056-1.545.111-.052.372-.102.894-.102 1.507 0 1.278.232 2.424.234 2.435.16.68-.508 1.344-1.187 1.181-.011-.003-1.122-.233-2.401-.233-.625 0-1.162.056-1.545.111-.052.372-.102.894-.102 1.507 0 1.253.208 2.139.21 2.147.158.618-.338 1.242-.974 1.233z"/></svg>