<?xml version="1.0" encoding="UTF-8"?>
<svg xmlns="http://www.w3.org/2000/svg" id="Layer_1" data-name="Layer 1" viewBox="0 0 24 24">
  <path d="M12,22.938c-.161,0-.321-.039-.467-.116-.063-.034-1.52-.812-3.077-2.309-2.037-.036-3.724-.502-3.797-.523-.328-.092-.586-.344-.687-.669-.021-.068-.497-1.642-.533-3.793-1.412-1.455-2.273-2.97-2.311-3.036-.168-.298-.172-.661-.011-.963,.034-.063,.816-1.51,2.322-3.056,.038-2.024,.506-3.699,.527-3.772,.093-.327,.346-.585,.671-.684,.069-.021,1.652-.495,3.818-.529,1.465-1.405,2.99-2.261,3.057-2.298,.296-.165,.654-.168,.954-.011,.063,.034,1.52,.812,3.077,2.309,2.037,.036,3.724,.502,3.797,.523,.328,.092,.586,.344,.687,.669,.021,.068,.497,1.642,.533,3.793,1.412,1.455,2.273,2.97,2.311,3.036,.168,.298,.172,.661,.011,.963-.034,.063-.816,1.51-2.322,3.056-.038,2.023-.506,3.699-.527,3.772-.093,.327-.346,.585-.671,.684-.069,.021-1.652,.495-3.818,.529-1.465,1.405-2.99,2.261-3.057,2.298-.151,.084-.318,.126-.486,.126Zm-6.25-4.744c.636,.133,1.748,.322,2.957,.322,.314,0,.752,.18,.976,.401,.9,.895,1.787,1.519,2.31,1.853,.544-.352,1.465-1,2.321-1.851,.227-.223,.664-.403,.979-.403,1.27,0,2.339-.181,2.947-.312,.134-.631,.323-1.733,.323-2.931,0-.319,.184-.76,.411-.983,.899-.893,1.52-1.763,1.854-2.281-.354-.541-1.005-1.452-1.857-2.298-.23-.23-.408-.66-.408-.981,0-1.257-.181-2.317-.313-2.921-.636-.133-1.748-.322-2.957-.322-.314,0-.752-.18-.976-.401-.9-.895-1.787-1.519-2.31-1.853-.544,.352-1.465,1-2.321,1.851-.227,.223-.664,.403-.979,.403-1.27,0-2.339,.181-2.947,.312-.134,.631-.323,1.733-.323,2.931,0,.319-.184,.76-.411,.983-.899,.893-1.52,1.763-1.854,2.281,.354,.541,1.005,1.452,1.857,2.298,.23,.23,.408,.66,.408,.981,0,1.257,.181,2.317,.313,2.921Z"/>
</svg>
