<svg id="Layer_1" viewBox="0 0 24 24" xmlns="http://www.w3.org/2000/svg" data-name="Layer 1"><path d="m22.516 11.144c-1.254-.755-2.771-1.578-4.79-2.281 1.565-2.116 3.075-4.262 3.093-4.287.279-.397.232-.938-.111-1.282s-.885-.391-1.282-.111c-.025.018-2.171 1.528-4.287 3.093-.704-2.019-1.527-3.536-2.281-4.79-.361-.602-1.352-.602-1.713 0-.756 1.254-1.578 2.772-2.282 4.79-2.116-1.565-4.262-3.075-4.287-3.093-.398-.279-.939-.231-1.282.111-.344.344-.391.885-.111 1.282.017.025 1.527 2.171 3.092 4.287-2.02.704-3.537 1.527-4.791 2.282-.3.181-.484.506-.484.856s.184.676.484.856c1.254.755 2.77 1.578 4.791 2.282-1.565 2.116-3.075 4.262-3.092 4.287-.28.397-.233.938.111 1.282.345.345.886.39 1.282.111.025-.018 2.171-1.528 4.287-3.093.703 2.019 1.526 3.536 2.282 4.79.181.301.506.484.856.484s.676-.184.856-.484c.755-1.254 1.578-2.771 2.281-4.79 2.116 1.565 4.262 3.075 4.287 3.093.396.278.938.233 1.282-.111s.391-.885.111-1.282c-.018-.025-1.528-2.171-3.093-4.287 2.019-.704 3.536-1.527 4.79-2.281.301-.181.484-.506.484-.856s-.184-.676-.484-.856zm-7.83 2.801c-.367.087-.654.374-.741.741-.533 2.242-1.222 3.901-1.944 5.284-.723-1.384-1.411-3.043-1.943-5.284-.087-.367-.375-.654-.742-.741-2.227-.529-3.914-1.233-5.28-1.944 1.366-.711 3.053-1.415 5.28-1.944.367-.087.654-.374.742-.741.532-2.241 1.221-3.9 1.943-5.284.722 1.383 1.411 3.042 1.944 5.284.087.367.374.654.741.741 2.242.533 3.901 1.222 5.284 1.944-1.383.723-3.042 1.411-5.284 1.944z"/></svg>