<svg id="Layer_1" viewBox="0 0 24 24" xmlns="http://www.w3.org/2000/svg" data-name="Layer 1"><path d="m17.048 20.224c-5.204-.25-7.048-2.402-7.048-8.224s1.844-7.974 7.048-8.224c.474-.022.866-.375.94-.844.074-.468-.191-.924-.635-1.091-1.544-.582-3.195-.842-5.353-.842-7.71.001-11 3.291-11 11.001s3.29 11 11 11c2.157 0 3.808-.26 5.353-.842.444-.167.709-.623.635-1.091-.074-.469-.466-.821-.94-.844zm-14.048-8.224c0-6.53 2.417-8.978 8.909-9-2.699 1.493-3.909 4.387-3.909 9s1.209 7.507 3.909 9c-6.492-.022-8.909-2.47-8.909-9zm19.958-1.18c-.109-.351-.411-.607-.776-.653-.848-.109-1.603-.19-2.311-.243-.312-.754-.658-1.506-1.034-2.254-.152-.299-.451-.516-.782-.516-.018 0-.037 0-.056.002-.019-.001-.037-.002-.055-.002-.331 0-.63.217-.782.516-.376.748-.721 1.5-1.034 2.254-.708.052-1.462.134-2.311.243-.365.046-.668.302-.776.653-.109.351-.001.733.273.977.563.5 1.105.982 1.65 1.446-.238.829-.437 1.658-.594 2.485-.066.345.066.699.343.915.279.217.654.26.972.111.847-.392 1.607-.8 2.314-1.231.708.43 1.468.839 2.314 1.231.318.149.693.106.972-.111.277-.217.409-.57.343-.915-.157-.827-.356-1.656-.594-2.485.546-.464 1.088-.946 1.65-1.446.275-.244.382-.626.273-.977zm-3.846 2.975c.007.026.015.051.022.077-.032-.019-.063-.038-.095-.057-.319-.194-.679-.291-1.039-.291s-.72.097-1.039.291c-.032.019-.063.038-.095.057.007-.026.015-.051.022-.077.193-.672.02-1.388-.441-1.896.681-.109 1.263-.564 1.53-1.209.008-.019.016-.038.023-.057.008.019.016.038.023.057.267.645.849 1.1 1.53 1.209-.462.508-.634 1.225-.441 1.896z"/></svg>