<svg id="Layer_1" viewBox="0 0 24 24" xmlns="http://www.w3.org/2000/svg" data-name="Layer 1"><path d="m12 1c-1.422 0-2.604.84-3.013 2.138-.303.954-.602 2.166-.898 3.131-.147.477-.544.777-1.073.727-.912-.016-1.886-.041-2.852-.072-1.274-.05-2.417.675-2.89 1.782-.598 1.398-.186 3.022 1.009 3.955.805.617 1.609 1.226 2.415 1.826.334.249.479.491.341 1.1l-.838 3.396c-.413 1.37-.072 2.641.91 3.395.537.417 1.185.624 1.85.624.709 0 1.466-.241 2.08-.722l2.267-2c.201-.153.441-.233.692-.233.552 0 1-.447 1-1v-17.047c0-.552-.448-1-1-1zm-1 17.211c-.33.113-.649.286-.957.521l-2.281 2.01c-.481.324-1.048.347-1.429.053-.395-.304-.336-.838-.203-1.282l.856-3.465c.301-1.334-.066-2.398-1.092-3.163-.797-.595-1.595-1.198-2.386-1.805-.481-.375-.64-1.013-.395-1.586.151-.356.556-.586.987-.57.975.031 1.959.057 2.812.069 1.388.121 2.661-.756 3.087-2.132.297-.961.592-2.164.895-3.12.027-.085.062-.165.105-.236v14.707z"/></svg>