<svg id="Layer_1" viewBox="0 0 24 24" xmlns="http://www.w3.org/2000/svg" data-name="Layer 1"><path d="m10.002 20.999v-2.501c.405-.001.77-.247.923-.623.153-.377.063-.808-.228-1.093-1.123-1.096-2.535-1.982-4.317-2.71-.241-.1-.513-.1-.756 0-1.785.728-3.198 1.615-4.32 2.71-.291.284-.381.716-.228 1.093s.519.623.926.623v2.5h-.003c-.553 0-1 .447-1 1s.447 1 1 1h7.999c.553 0 1-.447 1-1s-.446-.998-.997-.999zm-2 0h-1v-2.5h1zm-3.999-2.5h1v2.5h-1zm9.995-10.498c-.553 0-1 .447-1 1s.447 1 1 1h7.999c.553 0 1-.447 1-1s-.446-.998-.997-.999v-2.5c.405-.001.769-.247.922-.622.153-.377.063-.808-.228-1.093-1.123-1.096-2.535-1.982-4.317-2.71-.241-.1-.513-.1-.756 0-1.785.728-3.198 1.615-4.32 2.71-.291.284-.381.716-.228 1.093s.519.623.926.623v2.499h-.003zm5.003 0v-2.499h1v2.499zm-3-2.5h1v2.499h-1zm6.706 17.205c-.391.391-1.023.391-1.414 0l-1.749-1.748c-1.193.09-2.37.013-3.504-.236-.381-.083-.679-.381-.762-.762-.249-1.135-.328-2.311-.236-3.504l-7.829-7.83c-.216-.216-.321-.518-.286-.822.105-.914.094-1.816-.037-2.69-.873-.131-1.777-.142-2.69-.037-.302.04-.606-.07-.822-.286l-2.082-2.083c-.391-.391-.391-1.023 0-1.414s1.023-.391 1.414 0l1.749 1.748c1.192-.091 2.371-.012 3.504.236.381.083.679.381.762.762.249 1.135.328 2.311.236 3.504l7.829 7.83c.216.216.321.518.286.822-.105.914-.094 1.816.037 2.69.874.132 1.778.143 2.69.037.303-.037.606.071.822.286l2.082 2.082c.391.391.391 1.023 0 1.414z"/></svg>