<svg id="Layer_1" viewBox="0 0 24 24" xmlns="http://www.w3.org/2000/svg" data-name="Layer 1"><path d="m20.96 1.721c-.154-.529-.706-.836-1.237-.681-.529.153-.836.707-.684 1.237.01.032.907 3.248.927 9.519-.031-.148-.083-.291-.181-.416-.227-.287-2.354-2.894-7.246-6.154-5.111-3.407-8.21-4.168-8.34-4.199-.521-.127-1.043.181-1.192.694-.041.142-1.007 3.547-1.007 10.279s.966 10.137 1.007 10.279c.147.516.686.818 1.192.694.129-.03 3.229-.792 8.34-4.198 4.893-3.26 7.02-5.868 7.246-6.154.098-.125.15-.268.181-.416-.02 6.271-.917 9.487-.927 9.519-.152.53.154 1.084.684 1.237.516.153 1.085-.147 1.237-.681.042-.142 1.008-3.547 1.008-10.279s-.966-10.137-1.008-10.279zm-9.53 15.389c-3.164 2.108-5.503 3.14-6.728 3.598-.275-1.424-.702-4.339-.702-8.708s.427-7.284.702-8.708c1.226.458 3.564 1.49 6.728 3.598 3.382 2.254 5.361 4.169 6.24 5.11-.879.941-2.857 2.856-6.24 5.11z"/></svg>