<svg id="Layer_1" viewBox="0 0 24 24" xmlns="http://www.w3.org/2000/svg" data-name="Layer 1"><path d="m22.303 1.713c-.092-.029-2.305-.713-7.303-.713s-7.211.684-7.303.713c-.415.132-.697.518-.697.953v3.667c0 .436.282.821.697.953.039.012.46.141 1.303.286v2.173l-4.308 1.398c-3.309.86-3.692 3.716-3.692 5.79 0 4.195 1.871 6.066 6.066 6.066 1.027 0 1.897-.115 2.65-.351l8.04-2.429c2.908-1.001 3.244-3.707 3.244-5.654v-6.992c.843-.145 1.264-.274 1.303-.286.415-.132.697-.518.697-.953v-3.667c0-.436-.282-.821-.697-.953zm-3.303 12.853c0 2.734-.911 3.424-1.858 3.751l-8.012 2.42c-.566.176-1.242.262-2.064.262-3.078 0-4.066-.988-4.066-4.066 0-2.725.877-3.512 2.252-3.871l5.057-1.639c.412-.134.691-.518.691-.951v-2.643c1.057.098 2.38.17 4 .17s2.943-.072 4-.17v6.736zm2-9.026c-.95.184-2.895.46-6 .46s-5.051-.276-6-.46v-2.08c.951-.184 2.895-.46 6-.46s5.051.276 6 .46z"/></svg>