<svg id="Layer_1" viewBox="0 0 24 24" xmlns="http://www.w3.org/2000/svg" data-name="Layer 1"><path d="m15.813 3h-5.812c-.379 0-.642-.018-.914-.045-1.067-.116-1.086-.466-1.086-.955 0-.552-.448-1-1-1s-1 .448-1 1c0 2.29 1.692 2.831 2.98 2.959.484.068 1.02.302 1.02 1.041v5.695c0 4.079-1.464 5.026-2.659 5.37-2.895.294-4.375 1.854-4.341 4.935 0 .553.448 1 1 1s1-.447 1-1c-.042-2.076.732-2.774 2.599-2.951 1.57 1.976 4.32 2.951 8.401 2.951 6.274 0 7-5.422 7-9.5 0-6.393-2.351-9.5-7.188-9.5zm5.137 8.058c-1.006.166-1.874.691-2.61 1.14-.676.412-1.313.802-1.839.802s-1.164-.39-1.839-.802c-.749-.457-1.634-.992-2.661-1.149v-5.049c0-.357-.064-.689-.168-1h3.98c2.482 0 4.788.783 5.137 6.058zm-4.95 8.942c-3.11 0-5.238-.601-6.486-1.813 1.825-1.319 2.312-3.525 2.438-5.107.545.145 1.094.477 1.666.826.882.538 1.793 1.095 2.881 1.095s2-.557 2.881-1.095c.551-.336 1.081-.657 1.606-.81-.128 5.699-2.087 6.905-4.988 6.905zm-12.852-4.517c-.403.01-.75-.38-.689-.782l.541-2.702h-1.304c-.45.012-.805-.462-.666-.891.046-.155.777-3.76 3.56-4.593.46-.155.963.272.887.753l-.478 2.732h1.304c.45-.012.805.462.666.891.01.101-1.03 4.07-3.821 4.592z"/></svg>