<svg id="Layer_1" viewBox="0 0 24 24" xmlns="http://www.w3.org/2000/svg" data-name="Layer 1"><path d="m5.04 13.285.968-.277.277-.968c.206-.719 1.225-.719 1.431 0l.277.968.968.277c.72.206.72 1.225 0 1.431l-.968.277-.277.968c-.206.72-1.225.72-1.431 0l-.277-.968-.968-.277c-.72-.206-.72-1.225 0-1.431zm12.952.723-.277-.968c-.206-.719-1.225-.719-1.431 0l-.277.968-.968.277c-.72.206-.72 1.225 0 1.431l.968.277.277.968c.206.72 1.225.72 1.431 0l.277-.968.968-.277c.72-.206.72-1.225 0-1.431zm-11.992-5.008c.553 0 1-.447 1-1 0-3.738 1.262-5 5-5s5 1.262 5 5c0 .553.447 1 1 1s1-.447 1-1c0-4.841-2.159-7-7-7s-7 2.159-7 7c0 .553.447 1 1 1zm6-4c-1.99 0-3 1.01-3 3 0 .553.447 1 1 1s1-.447 1-1c0-.879.121-1 1-1s1 .121 1 1c0 .553.447 1 1 1s1-.447 1-1c0-1.99-1.01-3-3-3zm10.492-.123c-.067-.549-.578-.946-1.115-.869-.549.068-.938.567-.869 1.115.005.04.492 3.992.492 6.877 0 2.048-.17 4.333-.313 5.89-.059.643-.521 1.174-1.151 1.321l-6.535 1.528v-9.739c0-.553-.447-1-1-1s-1 .447-1 1v9.739l-6.535-1.528c-.63-.147-1.093-.679-1.151-1.322-.144-1.556-.313-3.841-.313-5.889 0-2.883.487-6.837.492-6.877.068-.548-.32-1.047-.869-1.115-.554-.064-1.048.32-1.115.869-.021.166-.508 4.115-.508 7.123 0 2.124.175 4.475.321 6.071.137 1.503 1.217 2.743 2.688 3.087l7.763 1.815c.15.035.305.035.455 0l7.763-1.815c1.472-.344 2.552-1.584 2.688-3.086.146-1.598.321-3.948.321-6.072 0-3.008-.487-6.957-.508-7.123z"/></svg>