<svg id="Layer_1" viewBox="0 0 24 24" xmlns="http://www.w3.org/2000/svg" data-name="Layer 1"><path d="m4.116 11.89c-.07.778-.116 1.565-.116 2.36 0 2.819.24 4.928.382 5.925 1.043.225 3.241.648 5.691.828.551.04.965.52.924 1.07-.038.551-.526.967-1.07.924-3.571-.262-6.544-.996-6.669-1.026-.378-.095-.667-.4-.74-.783-.021-.11-.518-2.757-.518-6.938 0-1.084.065-2.164.184-3.214-.731-.657-1.121-1.65-1.177-2.995-.009-2.785 1.567-5.444 1.635-5.556.124-.208.32-.363.551-.437.132-.043 3.312-1.048 8.807-1.048s8.675 1.005 8.807 1.048c.23.074.427.229.551.437.067.112 1.644 2.771 1.636 5.518-.045 1.124-.297 1.96-.77 2.595-.331.443-.959.534-1.399.203-.443-.33-.534-.957-.204-1.399.222-.296.347-.782.374-1.442.004-1.657-.799-3.396-1.169-4.11-.952-.246-3.706-.85-7.825-.85s-6.873.603-7.825.85c-.37.715-1.173 2.461-1.168 4.147.058 1.373.407 2.003 2.326 2.003 1.672 0 2.099-.4 2.167-2.035.003-1.038.127-2.046.132-2.089.068-.548.567-.939 1.116-.868.548.068.937.568.868 1.116 0 .01-.115.937-.117 1.851.057 1.313.477 2.025 2.5 2.025s2.442-.712 2.5-2.025c-.002-.914-.116-1.841-.117-1.851-.068-.548.32-1.047.868-1.116.553-.071 1.048.32 1.116.868.004.014.141 1.162.132 2.165-.108 2.627-1.622 3.959-4.499 3.959-1.528 0-2.672-.376-3.425-1.122-.678.763-1.742 1.122-3.242 1.122-.445 0-.842-.045-1.217-.11zm16.885 3.093c-.035 1.92-1.127 3.006-2.995 3.018-1.881-.012-2.973-1.099-3.007-2.981.014-1.866 1.139-3.011 2.995-3.019 1.827.012 2.975 1.155 3.007 2.982zm-2 0c-.013-.72-.268-.977-1.008-.981-.739.004-.977.239-.994 1 .018.771.246.995 1.007 1 .764-.005.98-.224.995-1.019zm3.939 6.679c-.496-1.373-1.483-2.301-2.639-2.481-1.518-.236-3.086-.236-4.604 0-1.156.181-2.143 1.108-2.639 2.481-.188.52.081 1.093.601 1.28.519.189 1.092-.08 1.28-.601.24-.666.649-1.12 1.066-1.185 1.314-.207 2.673-.207 3.985 0 .418.064.827.519 1.067 1.185.187.524.775.787 1.28.601.52-.188.788-.761.601-1.28z"/></svg>