<svg id="Layer_1" viewBox="0 0 24 24" xmlns="http://www.w3.org/2000/svg" data-name="Layer 1"><path d="m13.46 12.785c.72.206.72 1.225 0 1.431l-.968.277-.277.968c-.206.72-1.225.72-1.431 0l-.277-.968-.968-.277c-.72-.206-.72-1.225 0-1.431l.968-.277.277-.968c.206-.719 1.225-.719 1.431 0l.277.968zm-11.92-5.57.968.277.277.968c.206.72 1.225.72 1.431 0l.277-.968.968-.277c.72-.206.72-1.225 0-1.431l-.968-.277-.277-.968c-.206-.719-1.225-.719-1.431 0l-.277.968-.968.277c-.72.206-.72 1.225 0 1.431zm17-3 .968.277.277.968c.206.72 1.225.72 1.431 0l.277-.968.968-.277c.72-.206.72-1.225 0-1.431l-.968-.277-.277-.968c-.206-.719-1.225-.719-1.431 0l-.277.968-.968.277c-.72.206-.72 1.225 0 1.431zm-1.277 13.785c2.753 0 4.171.827 4.209.85.467.288 1.078.15 1.373-.314.295-.467.157-1.085-.31-1.38-.075-.047-1.863-1.155-5.272-1.155-2.464 0-4.271 1.615-5.263 2.795-.992-1.18-2.799-2.795-5.263-2.795-3.409 0-5.197 1.108-5.272 1.155-.463.293-.6.903-.311 1.369s.903.609 1.373.325c.014-.008 1.433-.85 4.21-.85 2.602 0 4.337 2.899 4.391 2.989-4.492-.104-8.887-.962-8.934-.971-.54-.106-1.068.246-1.175.788-.107.541.246 1.067.787 1.175.21.041 5.215 1.019 10.194 1.019s9.983-.978 10.194-1.019c.542-.107.894-.634.787-1.175-.107-.542-.63-.892-1.175-.788-.047.009-4.442.867-8.934.971.065-.109 1.797-2.989 4.391-2.989zm-8.334-12.787c-.312.504-.628 1.053-.971 1.679-.148.269-.124.599.059.845.184.246.494.361.794.296.614-.134 1.206-.263 1.787-.404.443.568.904 1.11 1.385 1.622.201.214.504.299.787.218s.496-.312.552-.602c.068-.345.123-.678.17-1.005l7.953 5.301c.454.304 1.078.186 1.387-.277.306-.46.182-1.08-.277-1.387l-7.9-5.267c.309-.151.622-.313.943-.491.258-.142.412-.416.402-.711-.01-.294-.184-.556-.45-.682-.636-.3-1.293-.573-1.97-.82-.045-.596-.104-1.199-.165-1.825-.03-.305-.235-.566-.525-.665s-.612-.02-.822.203c-.491.519-.916.988-1.299 1.441-.663-.16-1.34-.296-2.03-.41-.292-.047-.603.061-.759.312-.191.226-.199.555-.064.818.32.621.658 1.224 1.014 1.806z"/></svg>