<svg id="Layer_1" viewBox="0 0 24 24" xmlns="http://www.w3.org/2000/svg" data-name="Layer 1"><path d="m17.494 21.639c.062.549-.331 1.044-.88 1.107-1.469.168-3.021.253-4.614.253-5.494 0-8.674-1.005-8.807-1.048-.348-.112-.606-.405-.675-.764-.021-.11-.518-2.758-.518-6.938 0-1.088.065-2.166.185-3.212-.709-.636-1.097-1.59-1.171-2.873-.039-.428.015-.857.07-1.306.079-.547.591-.921 1.131-.849.547.078.927.584.849 1.131-.037.282-.07.551-.058.818.058 1.411.408 2.041 2.328 2.041.204 0 .395-.008.572-.024.556-.056 1.038.352 1.09.901.052.55-.352 1.038-.901 1.09-.236.022-.489.033-.761.033-.445 0-.842-.045-1.218-.111-.069.775-.116 1.562-.116 2.361 0 2.846.245 4.968.386 5.953 1.109.27 3.766.797 7.614.797 1.517 0 2.993-.081 4.386-.241.545-.06 1.044.331 1.107.88zm5.213 1.068c-.391.391-1.023.391-1.414 0l-20-20c-.391-.391-.391-1.023 0-1.414s1.023-.391 1.414 0l.693.693c.795-.226 3.82-.986 8.599-.986 5.494 0 8.674 1.005 8.807 1.048.23.074.426.229.55.437.067.112 1.643 2.771 1.636 5.518 0 .007-.004.013-.004.019 0 .007.003.012.003.019-.055 1.345-.446 2.339-1.177 2.995.12 1.046.185 2.125.185 3.214 0 2.718-.209 4.785-.368 5.968l1.075 1.075c.391.391.391 1.023 0 1.414zm-2.823-10.818c-.375.066-.773.111-1.218.111-1.5 0-2.563-.358-3.242-1.122-.52.515-1.239.842-2.131 1.002l6.525 6.525c.097-1.078.182-2.485.182-4.154 0-.798-.046-1.585-.115-2.361zm-14.824-8.243 2.539 2.539c.018-.177.032-.295.034-.309.068-.548.572-.94 1.116-.868.548.068.937.568.869 1.116 0 .01-.117.954-.117 1.876 0 .025-.013.047-.014.071l1.887 1.887c.198.021.395.042.628.042 2.023 0 2.442-.712 2.5-2.026-.002-.914-.116-1.841-.117-1.851-.068-.548.321-1.047.869-1.116.542-.068 1.047.32 1.116.868.005.043.13 1.051.132 2.089.069 1.635.495 2.035 2.167 2.035 1.908 0 2.265-.624 2.326-2.018 0-1.682-.798-3.419-1.167-4.132-.953-.247-3.707-.85-7.825-.85-3.214 0-5.596.367-6.94.646z"/></svg>