<svg id="Layer_1" viewBox="0 0 24 24" xmlns="http://www.w3.org/2000/svg" data-name="Layer 1"><path d="m4.726 19.751c-.216-.831-.606-2.588-.728-4.805-.029-.552-.513-.971-1.053-.944-.551.03-.974.501-.943 1.053.184 3.378.935 5.734.967 5.833.103.318.358.564.68.655.14.039 3.446.958 7.352.958.553 0 1-.448 1-1s-.447-1-1-1c-2.742 0-5.222-.502-6.274-.749z"/><path d="m5.25 13c1.085 0 2.104-.409 2.875-1.118.771.709 1.79 1.118 2.875 1.118.444 0 .885-.069 1.307-.205.525-.169.814-.732.646-1.258-.169-.525-.734-.816-1.259-.645-1.015.327-2.183-.142-2.685-1.092-.346-.655-1.422-.655-1.768 0-.392.741-1.154 1.201-1.991 1.201-1.262 0-2.25-1.098-2.25-2.5 0-1.688.804-3.434 1.175-4.15.51-.133 1.508-.369 2.825-.558v2.208c0 .552.447 1 1 1s1-.448 1-1v-2.427c.631-.046 1.302-.074 2-.074s1.369.028 2 .074v2.426c0 .552.447 1 1 1s1-.448 1-1v-2.209c1.322.19 2.322.427 2.83.56.324.61.978 1.961 1.182 3.299.083.546.589.919 1.139.838.546-.083.921-.593.838-1.139-.332-2.183-1.578-4.276-1.631-4.364-.126-.21-.326-.367-.561-.44-.137-.043-3.406-1.045-7.797-1.045s-7.659 1.002-7.797 1.045c-.234.073-.435.23-.561.44-.067.112-1.643 2.769-1.643 5.515 0 2.523 1.867 4.5 4.25 4.5z"/><path d="m18 9.25c-1.93 0-3.5 1.57-3.5 3.5v1.119c-.165.035-.263.058-.279.062-.329.081-.596.324-.706.645-.021.061-.515 1.513-.515 3.423 0 1.927.495 3.367.516 3.427.111.319.377.561.705.641.071.018 1.774.432 3.779.432s3.707-.414 3.779-.432c.329-.081.596-.324.706-.645.021-.061.515-1.513.515-3.423 0-1.927-.495-3.367-.516-3.427-.111-.319-.377-.561-.705-.641-.016-.004-.114-.028-.279-.063v-1.119c0-1.93-1.57-3.5-3.5-3.5zm-1.5 3.5c0-.827.673-1.5 1.5-1.5s1.5.673 1.5 1.5v.822c-.463-.043-.971-.072-1.5-.072s-1.037.029-1.5.072zm4.238 7.492c-.603.11-1.623.258-2.738.258s-2.136-.149-2.739-.259c-.116-.496-.261-1.299-.261-2.241 0-.936.145-1.744.262-2.242.603-.11 1.623-.258 2.738-.258s2.136.149 2.739.259c.116.496.261 1.299.261 2.241 0 .936-.145 1.744-.262 2.242z"/><circle cx="18" cy="18" r="1"/></svg>