<svg id="Layer_1" viewBox="0 0 24 24" xmlns="http://www.w3.org/2000/svg" data-name="Layer 1"><path d="m13.54 2.785.968-.277.277-.968c.206-.719 1.225-.719 1.431 0l.277.968.968.277c.72.206.72 1.225 0 1.431l-.968.277-.277.968c-.206.72-1.225.72-1.431 0l-.277-.968-.968-.277c-.72-.206-.72-1.225 0-1.431zm-7 3.43.968.277.277.968c.206.72 1.225.72 1.431 0l.277-.968.968-.277c.72-.206.72-1.225 0-1.431l-.968-.277-.277-.968c-.206-.719-1.225-.719-1.431 0l-.277.968-.968.277c-.72.206-.72 1.225 0 1.431zm4 7 .968.277.277.968c.206.72 1.225.72 1.431 0l.277-.968.968-.277c.72-.206.72-1.225 0-1.431l-.968-.277-.277-.968c-.206-.719-1.225-.719-1.431 0l-.277.968-.968.277c-.72.206-.72 1.225 0 1.431zm-9.417-9.361c-.09.69-.203 1.549.18 2.491.372.915 1.031 1.495 1.612 2.007.476.419.887.781 1.082 1.259.139.344.131.736.12 1.232-.021.949-.048 2.248 1.084 3.757.333.445.962.529 1.4.2.442-.331.531-.958.2-1.399-.718-.957-.702-1.679-.684-2.515.013-.61.028-1.302-.267-2.028-.372-.915-1.031-1.495-1.612-2.007-.476-.419-.887-.781-1.082-1.259-.184-.453-.125-.905-.049-1.479.09-.689.203-1.549-.18-2.49-.208-.511-.79-.758-1.303-.55-.512.208-.758.792-.55 1.304.184.452.125.904.049 1.477zm16.761 7.032c.018.836.034 1.558-.684 2.515-.332.441-.242 1.068.2 1.399.438.329 1.067.245 1.4-.2 1.132-1.509 1.104-2.808 1.084-3.757-.011-.496-.019-.889.12-1.231.195-.479.605-.841 1.082-1.26.581-.512 1.24-1.092 1.612-2.008.383-.941.27-1.8.18-2.49-.075-.572-.134-1.024.049-1.477.208-.512-.038-1.096-.55-1.304-.511-.208-1.095.039-1.303.55-.383.941-.27 1.801-.18 2.49.075.573.134 1.025-.049 1.478-.195.479-.605.841-1.082 1.26-.581.512-1.24 1.092-1.612 2.008-.295.726-.28 1.417-.267 2.027zm-.621 7.114c2.753 0 4.171.827 4.209.85.466.288 1.079.15 1.373-.314.295-.467.157-1.085-.31-1.38-.075-.047-1.863-1.155-5.272-1.155-2.464 0-4.271 1.615-5.263 2.795-.992-1.18-2.799-2.795-5.263-2.795-3.409 0-5.197 1.108-5.272 1.155-.463.293-.6.903-.311 1.369.288.466.904.609 1.373.325.014-.008 1.433-.85 4.21-.85 2.602 0 4.337 2.899 4.391 2.989-4.492-.104-8.887-.962-8.934-.971-.542-.106-1.067.246-1.175.788-.107.541.246 1.067.787 1.175.21.041 5.215 1.019 10.194 1.019s9.983-.978 10.194-1.019c.542-.107.894-.634.787-1.175-.107-.542-.631-.892-1.175-.788-.047.009-4.442.867-8.934.971.065-.109 1.797-2.989 4.391-2.989z"/></svg>