<svg id="Layer_1" viewBox="0 0 24 24" xmlns="http://www.w3.org/2000/svg" data-name="Layer 1"><path d="m20.549 4.164c-2.504-1.645-5.332-2.706-8.405-3.154-.096-.014-.192-.014-.288 0-3.073.448-5.901 1.509-8.405 3.154-.282.185-.451.499-.451.836s.169.651.451.836c1.148.754 2.368 1.379 3.645 1.885-.057.391-.096.805-.096 1.279 0 3.411 1.589 5 5 5s5-1.589 5-5c0-.473-.038-.887-.096-1.279.718-.285 1.417-.609 2.096-.973v3.252c0 .552.448 1 1 1s1-.448 1-1v-5c0-.5-.281-.712-.451-.836zm-5.549 4.836c0 2.299-.701 3-3 3s-3-.701-3-3c0-.223.011-.428.026-.624.918.263 1.86.472 2.83.613.096.014.193.014.288 0 .97-.141 1.912-.351 2.83-.613.016.196.026.401.026.624zm-3-2.011c-2.165-.331-4.19-.999-6.044-1.989 1.854-.99 3.879-1.658 6.044-1.989 2.165.331 4.19.999 6.044 1.989-1.854.99-3.879 1.658-6.044 1.989zm7.887 14.866c.08.546-.298 1.054-.844 1.134-.535.082-1.057-.295-1.134-.844-.365-2.488-1.509-4.145-5.909-4.145s-5.544 1.657-5.909 4.145c-.08.546-.588.923-1.134.844-.546-.08-.924-.588-.844-1.134.585-3.995 3.091-5.855 7.887-5.855s7.302 1.86 7.887 5.855z"/></svg>