<svg id="Layer_1" viewBox="0 0 24 24" xmlns="http://www.w3.org/2000/svg" data-name="Layer 1"><path d="m16.997 21.993c0 .552-.447.999-.999.999s-.999-.447-.999-.999.447-.999.999-.999.999.447.999.999zm3.997-11.992c0 .552.447.999.999.999s.999-.447.999-.999-.447-.999-.999-.999-.999.447-.999.999zm-10.993 10.993c-.552 0-.999.447-.999.999s.447.999.999.999.999-.447.999-.999-.447-.999-.999-.999zm11.992 0c-.552 0-.999.447-.999.999s.447.999.999.999.999-.447.999-.999-.447-.999-.999-.999zm.015-5.981c-.552 0-.999.447-.999.999s.447.999.999.999.999-.447.999-.999-.447-.999-.999-.999zm-3.013 2.983c-.552 0-.999.447-.999.999s.447.999.999.999.999-.447.999-.999-.447-.999-.999-.999zm-5.996 0c-.552 0-.999.447-.999.999s.447.999.999.999.999-.447.999-.999-.447-.999-.999-.999zm2.998-2.998c-.552 0-.999.447-.999.999s.447.999.999.999.999-.447.999-.999-.447-.999-.999-.999zm2.998-2.998c-.552 0-.999.447-.999.999s.447.999.999.999.999-.447.999-.999-.447-.999-.999-.999zm2.136-4.176c.477-.277.639-.889.361-1.366-.277-.478-.889-.64-1.366-.362l-2.235 1.299c-.367-.545-.81-.964-1.297-1.292l1.302-2.234c.277-.477.116-1.089-.36-1.366s-1.087-.117-1.367.36l-1.425 2.445c-.586-.15-1.177-.232-1.745-.269v-3.033c0-.552-.447-.999-.999-.999s-.999.447-.999.999v3.035c-.635.045-1.213.137-1.742.273l-1.429-2.45c-.278-.477-.89-.637-1.367-.36-.476.278-.637.89-.36 1.366l1.306 2.241c-.518.346-.949.776-1.295 1.294l-2.238-1.307c-.478-.278-1.089-.117-1.367.359-.278.477-.118 1.089.358 1.367l2.449 1.431c-.136.53-.229 1.11-.274 1.747h-3.035c-.552 0-.999.447-.999.999s.447.999.999.999h3.033c.036.559.116 1.138.261 1.714l-2.455 1.417c-.478.276-.642.887-.366 1.365.278.482.896.639 1.365.366l2.243-1.295c.33.497.753.951 1.308 1.325l-1.3 2.235c-.277.477-.116 1.089.361 1.366.468.275 1.088.12 1.366-.361l1.822-3.133c.31-.505.062-1.223-.492-1.43-1.064-.426-2.151-1.302-2.151-4.569 0-3.736 1.261-4.997 4.997-4.997 3.267 0 4.143 1.087 4.568 2.15.207.555.926.803 1.431.492l3.133-1.822z"/></svg>