<svg id="Layer_1" viewBox="0 0 24 24" xmlns="http://www.w3.org/2000/svg" data-name="Layer 1"><path d="m22.517 14.317c-.092-.352-.369-.626-.721-.716-.097-.024-2.393-.602-4.296-.602s-4.199.577-4.296.602c-.353.09-.629.364-.721.716-.02.075-.483 1.86-.483 3.683s.463 3.607.483 3.683c.092.352.369.626.721.716.097.024 2.393.602 4.296.602s4.199-.577 4.296-.602c.353-.09.629-.364.721-.716.02-.075.483-1.86.483-3.683s-.463-3.607-.483-3.683zm-1.805 6.276c-.754.16-2.094.406-3.212.406s-2.458-.246-3.212-.406c-.123-.608-.288-1.61-.288-2.594s.165-1.985.288-2.594c.754-.16 2.094-.406 3.212-.406s2.458.246 3.212.406c.123.608.288 1.61.288 2.594s-.165 1.985-.288 2.594zm-1.212-3.594c0 .553-.448 1-1 1h-2c-.552 0-1-.447-1-1s.448-1 1-1h2c.552 0 1 .447 1 1zm-10-5c3.752 0 5.5-1.748 5.5-5.5s-1.748-5.499-5.5-5.499-5.5 1.748-5.5 5.5 1.748 5.5 5.5 5.5zm0-9c2.649 0 3.5.851 3.5 3.5s-.851 3.5-3.5 3.5-3.5-.851-3.5-3.5.851-3.5 3.5-3.5zm.6 14.253c.442.331.532.958.201 1.399-.331.442-.957.532-1.4.2-1.008-.755-1.904-1.797-2.713-2.72-2.242.671-3.194 2.717-3.188 5.888-.012.545-.457.979-1 .979h-.021c-.552-.012-.99-.469-.979-1.021.008-4.402 1.709-7.16 5.293-7.952.358-.087.733.033.978.308.884.995 1.848 2.184 2.829 2.918z"/></svg>