<?xml version="1.0" encoding="UTF-8"?>
<svg xmlns="http://www.w3.org/2000/svg" id="Layer_1" data-name="Layer 1" viewBox="0 0 24 24">
  <path d="M11.996,12.2c-1.97,.012-3.121,1.156-3.157,3.175,.037,2.019,1.158,3.137,3.156,3.148h.012c1.997-.012,3.118-1.127,3.156-3.176-.034-1.959-1.213-3.135-3.166-3.147Z"/>
  <path d="M11.994,1C4.929,1.044,1,4.841,1,11.982c0,7.018,3.933,10.977,11.006,11.018,7.162-.042,10.861-3.737,10.994-11.017-.122-7.037-4.026-10.938-11.006-10.983Zm.012,20c-6.026-.035-8.888-2.895-9.006-9,.113-6.019,3.059-8.963,8.994-9,5.873,.038,8.903,3.072,9.006,8.981-.112,6.117-2.974,8.983-8.994,9.019Z"/>
  <circle cx="8.12" cy="10.316" r="1"/>
  <circle cx="15.88" cy="10.316" r="1"/>
</svg>
