<svg id="Layer_1" viewBox="0 0 24 24" xmlns="http://www.w3.org/2000/svg" data-name="Layer 1"><path d="m4.5 10c-.552 0-1-.448-1-1v-4.735c-.244.268-.481.544-.7.835-.332.442-.958.532-1.4.201-.442-.332-.532-.958-.201-1.4.768-1.024 1.676-1.933 2.701-2.701.362-.253.837-.253 1.199 0 1.024.768 1.933 1.676 2.701 2.701.331.442.241 1.068-.201 1.4-.438.329-1.067.244-1.4-.201-.218-.291-.455-.566-.7-.835v4.735c0 .552-.448 1-1 1zm18.558 2.576c0 4.847-1.09 7.089-2.244 9.463-.133.272-.382.47-.677.537-.083.02-2.06.462-5.137.462-3.941 0-5.141-.471-5.415-.615-.051-.026-.099-.058-.144-.093-4.07-3.134-5.269-7.579-5.318-7.767-.252-1.309.366-2.586 1.489-3.173 1.102-.576 2.42-.42 3.362.394.026.023.279.25.65.648.102-1.048.118-1.94.118-2.395-.008-2.23-.355-3.931-.635-5.457-.3-1.626.78-3.193 2.407-3.493 1.528-.28 3.027.717 3.474 2.32.39 1.399.602 3.125.67 5.519 2.974.446 5.344 1.417 7.053 2.892.22.19.347.466.347.757zm-2.004.474c-1.537-1.17-3.769-1.944-6.488-2.249-.501-.056-.882-.476-.889-.979-.038-2.673-.228-4.486-.615-5.877-.141-.508-.573-1.007-1.186-.889-.541.1-.901.622-.801 1.164.283 1.543.658 3.391.668 5.819 0 .817-.048 2.941-.495 5.002-.084.39-.392.691-.783.769-.392.084-.791-.084-1.017-.412-.898-1.301-1.786-2.103-1.795-2.11-.313-.271-.735-.32-1.115-.123-.347.182-.538.576-.464.96t0 0s1.068 3.854 4.487 6.545c.222.069 1.343.371 4.439.371 2.009 0 3.519-.205 4.233-.325.995-2.063 1.762-3.887 1.82-7.663z"/></svg>