<svg id="Layer_1" viewBox="0 0 24 24" xmlns="http://www.w3.org/2000/svg" data-name="Layer 1"><path d="m22.653 11.819c-1.709-1.475-4.079-2.445-7.054-2.892-.067-2.39-.278-4.115-.669-5.519-.445-1.603-1.933-2.6-3.475-2.32-1.626.3-2.706 1.867-2.406 3.493.278 1.526.627 3.228.635 5.457 0 .455-.016 1.348-.118 2.395-.371-.399-.624-.625-.65-.648-.94-.815-2.261-.969-3.361-.394-1.123.586-1.741 1.864-1.489 3.173.05.188 1.249 4.633 5.318 7.767.045.035.094.066.144.093.274.145 1.474.615 5.415.615 3.077 0 5.054-.442 5.137-.462.295-.067.544-.265.677-.537 1.154-2.374 2.244-4.616 2.244-9.463 0-.291-.127-.567-.347-.757zm-3.478 8.894c-.715.12-2.225.325-4.233.325-3.096 0-4.217-.302-4.438-.371-3.419-2.691-4.485-6.544-4.488-6.544-.073-.384.118-.778.465-.96.379-.197.803-.147 1.114.123.01.008.897.81 1.795 2.11.227.328.627.494 1.018.412.391-.077.698-.379.783-.769.446-2.059.494-4.184.494-5.002-.01-2.429-.385-4.274-.668-5.819-.1-.542.26-1.064.801-1.164.587-.114 1.04.366 1.186.889.389 1.396.578 3.208.615 5.877.007.504.388.924.889.98 2.721.305 4.952 1.079 6.489 2.249-.059 3.776-.825 5.6-1.82 7.663zm-14.675-10.713c-.26-.004-.519-.12-.708-.294-.977-.749-1.853-1.62-2.591-2.605-.332-.442-.242-1.069.2-1.4.44-.333 1.068-.242 1.399.2.218.291.456.566.7.835v-4.736c0-.552.447-1 1-1s1 .448 1 1v4.735c.244-.268.482-.544.7-.835.331-.442.959-.532 1.399-.2.442.331.532.958.2 1.4-.739.985-1.615 1.857-2.591 2.605-.19.174-.449.291-.708.294z"/></svg>