<svg id="Layer_1" viewBox="0 0 24 24" xmlns="http://www.w3.org/2000/svg" data-name="Layer 1"><path d="m10.342 21.061c-.006-.002-.256-.103-.537-.293.629-.628.991-1.158 1.027-1.212.306-.459.182-1.077-.276-1.384s-1.079-.187-1.387.272c-.004.005-.092.132-.245.32-.294-1.446-1.425-2.21-2.295-2.786.216-.268.371-.588.371-.978 0-1.429-.571-2-2-2s-2 .571-2 2c0 .39.154.71.371.978-1.008.667-2.371 1.582-2.371 3.522 0 1.597.694 3.5 4 3.5 1.237 0 2.313-.417 3.197-.958.492.443 1.041.747 1.468.899.504.185 1.085-.079 1.272-.6.188-.517-.079-1.09-.594-1.281zm-7.342-1.561c0-.839.541-1.237 1.497-1.869.168-.111.336-.227.503-.346.167.118.336.234.503.346.956.632 1.497 1.03 1.497 1.869 0 .308.052.588.125.855-.611.369-1.33.645-2.125.645-1.856 0-2-.622-2-1.5zm-1.978-13.994c-.114-.541.232-1.071.772-1.185.156-.033 1.572-.321 3.205-.321s3.049.288 3.205.321c.541.113.886.644.772 1.185-.112.544-.658.887-1.185.772-.102-.021-.828-.169-1.793-.24v3.962c0 .553-.448 1-1 1s-1-.447-1-1v-3.962c-.965.071-1.691.219-1.793.24-.544.116-1.07-.232-1.185-.772zm0-3c-.114-.541.232-1.071.772-1.185.156-.033 1.572-.321 3.205-.321s3.049.288 3.205.321c.541.113.886.644.772 1.185-.112.544-.658.887-1.185.772-.135-.028-1.362-.278-2.793-.278s-2.658.25-2.793.278c-.544.115-1.07-.232-1.185-.772zm12.978 11.994c0-1.071.429-1.5 1.5-1.5s1.5.429 1.5 1.5-.429 1.5-1.5 1.5-1.5-.429-1.5-1.5zm9 7c0 1.071-.429 1.5-1.5 1.5s-1.5-.429-1.5-1.5.429-1.5 1.5-1.5 1.5.429 1.5 1.5zm-.248-6.842-7 8c-.365.418-.997.457-1.411.095-.416-.364-.458-.996-.094-1.411l7-8c.364-.416.995-.458 1.411-.095.416.364.458.996.094 1.411zm.248-6.658c0 1.429-.571 2-2 2s-2-.571-2-2 .571-2 2-2v-2.82c-.299-.095-.664-.18-1-.18-1.845 0-2.713.903-3 1.29v5.21c0 .808-.738 1.518-2 1.5-1.429 0-2-.571-2-2s.571-2 2-2v-3c0-.155.036-.309.105-.447.052-.104 1.317-2.553 4.895-2.553 1.201 0 2.323.544 2.447.605.339.17.553.516.553.895z"/></svg>