<svg id="Layer_1" viewBox="0 0 24 24" xmlns="http://www.w3.org/2000/svg" data-name="Layer 1"><path d="m22.454 5.864c-.067-.363-.329-.66-.682-.771-.118-.038-.571-.173-1.341-.336-.108-.576-.216-1.066-.307-1.429-.095-.381-.404-.67-.79-.74-.635-.116-1.315-.212-2.021-.295.021.076.349 1.121.562 2.046-.58-.072-1.221-.138-1.928-.192-.124-.453-.246-.906-.354-1.364-.11-.462-.53-.784-1.005-.769-.652.021-1.46 0-2.207-.007l.643 2.004c-.333-.006-.673-.01-1.025-.01-.335 0-.662.003-.979.009l-.515-1.31c-.156-.399-.524-.661-.979-.634-4.449.218-6.741.953-6.837.984-.308.101-.548.343-.644.652-.043.136-1.046 3.401-1.046 8.298s1.003 8.162 1.046 8.298c.096.308.333.549.638.65.129.043 3.225 1.052 9.316 1.052s9.187-1.009 9.316-1.052c.305-.102.542-.343.638-.65.043-.136 1.046-3.401 1.046-8.298 0-2.629-.297-4.787-.546-6.136zm-13.545-1.76.505 1.285c.154.394.552.644.96.635.517-.016 1.059-.024 1.626-.024 4.556 0 7.437.562 8.594.844.091.566.18 1.249.252 2.004-1.408-.328-4.349-.848-8.846-.848s-7.437.52-8.846.848c.183-1.898.484-3.321.661-4.033.791-.192 2.501-.541 5.094-.71zm11.275 15.084c-1.062.264-3.807.812-8.184.812s-7.123-.55-8.184-.812c-.265-1.063-.816-3.697-.816-7.188 0-.363.009-.711.02-1.055.773-.214 3.786-.945 8.98-.945s8.2.729 8.976.944c.011.346.024.689.024 1.056 0 3.49-.552 6.124-.816 7.188z"/></svg>