<svg id="Layer_1" viewBox="0 0 24 24" xmlns="http://www.w3.org/2000/svg" data-name="Layer 1"><path d="m21.97 3.758c-.082-.332-.329-.599-.653-.706-.129-.043-3.225-1.052-9.316-1.052s-9.189 1.009-9.317 1.052c-.324.107-.571.374-.654.706-.042.168-1.03 4.166-1.03 8.242s.988 8.074 1.03 8.242c.083.332.33.599.654.706.129.043 3.224 1.052 9.316 1.052s9.188-1.009 9.316-1.052c.324-.107.571-.374.653-.706.042-.168 1.03-4.166 1.03-8.242s-.988-8.074-1.03-8.242zm-1.812 1.048c.234 1.081.714 3.57.819 6.194h-12.977v-6.831c1.133-.1 2.461-.169 4-.169 4.344 0 7.079.541 8.158.806zm-17.158 7.194c0-2.966.578-5.976.842-7.194.441-.108 1.171-.261 2.158-.405v15.2c-.988-.144-1.719-.298-2.159-.406-.264-1.218-.841-4.222-.841-7.194zm9 8c-1.54 0-2.867-.07-4-.169v-6.831h12.977c-.105 2.62-.585 5.113-.819 6.194-1.081.265-3.816.806-8.158.806z"/></svg>