<svg id="Layer_1" viewBox="0 0 24 24" xmlns="http://www.w3.org/2000/svg" data-name="Layer 1"><path d="m20.931 9.446c-.028-.559-.515-.98-1.071-.946-.054-.65-.12-1.234-.191-1.755l.544-.545c.229-.229.333-.555.278-.873-.29-1.722-.603-2.621-.616-2.659-.098-.279-.315-.5-.592-.604-.038-.014-.944-.351-2.51-.64-.324-.057-.656.043-.889.276l-.544.544c-.94-.138-2.052-.245-3.341-.245s-2.402.106-3.341.245l-.544-.544c-.232-.233-.566-.332-.889-.276-1.566.289-2.473.626-2.51.64-.277.104-.494.326-.592.605-.013.037-.326.938-.616 2.658-.054.318.05.645.278.873l.544.545c-.071.521-.137 1.105-.191 1.755-.556-.034-1.043.388-1.071.946-.046.867-.069 1.702-.069 2.554s.022 1.687.069 2.554c.028.559.515.98 1.071.946.054.65.12 1.234.191 1.755l-.544.545c-.229.229-.333.555-.278.873.29 1.721.603 2.621.616 2.658.098.279.315.501.592.605.038.014.944.351 2.51.64.32.059.656-.043.889-.276l.544-.544c.94.138 2.052.245 3.341.245s2.402-.106 3.341-.245l.545.545c.233.234.568.336.889.276 1.565-.289 2.472-.626 2.51-.64.277-.104.494-.326.592-.605.013-.037.326-.937.616-2.657.054-.319-.05-.646-.279-.874l-.544-.544c.071-.522.137-1.105.191-1.755.556.034 1.043-.388 1.071-.946.046-.867.069-1.702.069-2.554s-.022-1.687-.069-2.554zm-14.182 9.867c-.245-.961-.749-3.412-.749-7.313s.504-6.354.749-7.312c.82-.24 2.693-.688 5.251-.688s4.433.448 5.251.687c.245.961.749 3.412.749 7.313s-.504 6.354-.749 7.312c-.82.24-2.693.688-5.251.688s-4.432-.447-5.251-.687z"/></svg>