<svg id="Layer_1" viewBox="0 0 24 24" xmlns="http://www.w3.org/2000/svg" data-name="Layer 1"><path d="m19.876 2.665c-.099-.277-.315-.498-.591-.602-.116-.043-2.888-1.063-7.285-1.063s-7.168 1.021-7.284 1.063c-.276.104-.492.323-.591.602-.046.129-1.125 3.232-1.125 9.335s1.079 9.206 1.125 9.335c.099.278.315.498.591.602.116.043 2.887 1.063 7.284 1.063s7.169-1.021 7.285-1.063c.275-.104.492-.324.591-.602.046-.129 1.124-3.232 1.124-9.335s-1.078-9.206-1.124-9.335zm-1.751 17.543c-.906.264-3.101.792-6.125.792s-5.219-.528-6.125-.792c-.275-1.028-.875-3.781-.875-8.208s.601-7.182.875-8.208c.906-.264 3.101-.792 6.125-.792s5.221.528 6.125.791c.275 1.029.875 3.782.875 8.209s-.601 7.182-.875 8.208zm-4.125-2.208c0 .553-.447 1-1 1h-2c-.552 0-1-.447-1-1s.448-1 1-1h2c.553 0 1 .447 1 1z"/></svg>