<svg id="Layer_1" viewBox="0 0 24 24" xmlns="http://www.w3.org/2000/svg" data-name="Layer 1"><path d="m22.11 11.006c-.021-.002-.998-.109-2.579-.224-.688-1.906-1.495-3.438-2.133-4.497 1.17.108 1.96.205 1.978.208.042.005.084.008.125.008.497 0 .928-.37.991-.876.068-.548-.32-1.048-.868-1.116-.166-.021-4.103-.508-7.624-.508s-7.458.487-7.624.508c-.548.068-.937.568-.868 1.116s.565.941 1.116.868c.017-.002.807-.1 1.978-.208-.638 1.059-1.445 2.591-2.133 4.497-1.581.115-2.558.222-2.579.224-.549.061-.944.555-.884 1.104.062.549.567.947 1.104.883.017-.002.649-.071 1.713-.157-.49 1.828-.823 3.902-.823 6.163 0 .552.447 1 1 1s1-.448 1-1c0-2.339.401-4.474.957-6.313 1.679-.101 3.781-.187 6.043-.187s4.364.087 6.043.187c.556 1.839.957 3.974.957 6.313 0 .552.447 1 1 1s1-.448 1-1c0-2.261-.334-4.336-.823-6.163 1.064.086 1.696.155 1.713.157.037.004.074.006.111.006.503 0 .937-.378.993-.89.061-.549-.335-1.043-.884-1.104zm-10.11-.506c-1.943 0-3.77.063-5.323.144.954-2.363 2.037-3.984 2.442-4.551.938-.055 1.931-.093 2.88-.093s1.942.038 2.88.093c.405.566 1.488 2.187 2.442 4.551-1.553-.081-3.38-.144-5.323-.144z"/></svg>