<svg id="Layer_1" viewBox="0 0 24 24" xmlns="http://www.w3.org/2000/svg" data-name="Layer 1"><path d="m14.975 19.387c.065.211 0 .44-.164.586-.338.3-.663.589-.99.867.143.497.262.995.357 1.491.04.207-.04.419-.206.549-.167.13-.391.156-.583.067-.508-.235-.964-.48-1.389-.739-.424.258-.881.503-1.389.739-.192.09-.416.063-.583-.067-.166-.13-.245-.342-.206-.549.094-.496.214-.993.357-1.491-.327-.278-.653-.568-.99-.867-.165-.146-.229-.376-.164-.586s.247-.364.466-.392c.509-.066.962-.114 1.386-.146.188-.453.395-.904.62-1.352.096-.19.291-.324.502-.309.212-.016.406.119.502.309.226.449.433.9.62 1.352.425.031.877.08 1.386.146.219.028.401.181.466.392zm8-3.187c-.065-.211-.247-.364-.466-.392-.509-.066-.962-.114-1.386-.146-.188-.453-.395-.904-.62-1.352-.096-.19-.291-.324-.502-.309-.212-.016-.406.119-.502.309-.226.449-.433.9-.62 1.352-.425.031-.877.08-1.386.146-.219.028-.401.181-.466.392s0 .44.164.586c.338.3.663.589.99.867-.143.497-.262.995-.357 1.491-.04.207.04.419.206.549.167.13.391.156.583.067.508-.235.964-.48 1.389-.739.424.258.881.503 1.389.739.192.09.416.063.583-.067.166-.13.245-.342.206-.549-.094-.496-.214-.993-.357-1.491.327-.278.653-.568.99-.867.165-.146.229-.376.164-.586zm-16.466-.205c-.509-.066-.962-.114-1.386-.146-.188-.453-.395-.904-.62-1.352-.096-.19-.291-.324-.502-.309-.212-.016-.406.119-.502.309-.226.449-.433.9-.62 1.352-.425.031-.877.08-1.386.146-.219.028-.401.181-.466.392s0 .44.164.586c.338.3.663.589.99.867-.143.497-.262.995-.357 1.491-.04.207.04.419.206.549.167.13.391.156.583.067.508-.235.964-.48 1.389-.739.424.258.881.503 1.389.739.192.09.416.063.583-.067.166-.13.245-.342.206-.549-.094-.496-.214-.993-.357-1.491.327-.278.653-.568.99-.867.165-.146.229-.376.164-.586s-.247-.364-.466-.392zm1.99-11.477v-.036c.039-2.199 1.313-3.468 3.495-3.482 2.163.014 3.47 1.316 3.507 3.483-.04 2.235-1.313 3.504-3.495 3.517-2.193-.013-3.467-1.282-3.507-3.482zm2-.018c.024 1.101.42 1.494 1.507 1.5 1.095-.006 1.475-.39 1.495-1.518-.019-1.049-.441-1.475-1.508-1.482-1.061.007-1.47.414-1.494 1.5zm7.442 8.177c-.803-2.352-2.911-3.658-5.947-3.677-3.915.023-5.396 2.017-5.948 3.686-.174.524.11 1.09.635 1.264.523.171 1.091-.11 1.264-.635.512-1.544 1.84-2.301 4.05-2.314 2.199.014 3.525.773 4.055 2.323.177.527.761.8 1.27.623.522-.179.802-.747.623-1.27z"/></svg>