<svg id="Layer_1" viewBox="0 0 24 24" xmlns="http://www.w3.org/2000/svg" data-name="Layer 1"><path d="m12 8.986c-1.987 0-2.995 1.008-2.995 2.995s1.008 2.995 2.995 2.995 2.995-1.008 2.995-2.995-1.008-2.995-2.995-2.995zm0 3.993c-.877 0-.998-.121-.998-.998s.121-.998.998-.998.998.121.998.998-.121.998-.998.998zm10.876-1.55c-1.677 3.353-4.876 5.56-6.232 6.385.136.912.348 2.581.348 4.188 0 .552-.446.998-.998.998s-.998-.446-.998-.998c0-1.421-.189-2.956-.316-3.825-.686-.09-1.756-.206-2.679-.206s-1.993.116-2.679.206c-.127.87-.316 2.404-.316 3.825 0 .552-.446.998-.998.998s-.998-.446-.998-.998c0-1.607.212-3.276.348-4.188-1.356-.825-4.556-3.032-6.232-6.385-.247-.493-.047-1.093.446-1.339s1.092-.046 1.339.446c1.555 3.11 4.788 5.166 5.732 5.718.651-.095 2.092-.281 3.358-.281s2.707.186 3.358.281c.944-.552 4.177-2.609 5.732-5.718.248-.493.847-.692 1.339-.446.493.247.693.846.446 1.339zm-14.255-7.08c-.198-.176-.276-.452-.197-.705s.297-.438.56-.471c.612-.079 1.156-.137 1.667-.175.225-.544.475-1.086.746-1.626.115-.228.349-.39.604-.371.255-.019.489.143.604.371.271.539.52 1.082.746 1.626.511.038 1.055.096 1.667.175.263.033.482.218.56.471s0 .529-.197.705c-.406.361-.797.708-1.19 1.043.172.598.315 1.196.429 1.792.048.249-.048.504-.247.66-.201.156-.47.188-.701.08-.611-.283-1.159-.577-1.669-.888-.51.31-1.059.605-1.669.888-.231.108-.5.076-.701-.08-.2-.156-.295-.411-.247-.66.114-.596.257-1.194.429-1.792-.394-.335-.784-.682-1.19-1.043z"/></svg>