<svg id="Layer_1" viewBox="0 0 24 24" xmlns="http://www.w3.org/2000/svg" data-name="Layer 1"><path d="m4.97 2.242c-.01.039-.97 3.969-.97 9.758s.96 9.719.97 9.758c.133.536-.193 1.078-.729 1.212-.522.134-1.08-.188-1.212-.728-.042-.168-1.03-4.189-1.03-10.243s.989-10.073 1.031-10.242c.134-.535.675-.861 1.212-.728.536.134.862.676.729 1.212zm5.082 9.758c0-5.789.96-9.719.97-9.758.133-.536-.193-1.078-.729-1.212-.536-.133-1.078.192-1.212.728-.042.168-1.03 4.189-1.03 10.243s.988 10.074 1.03 10.243c.132.54.69.861 1.212.728.536-.134.862-.676.729-1.212-.01-.039-.97-3.969-.97-9.758z"/></svg>