<svg id="Layer_1" viewBox="0 0 24 24" xmlns="http://www.w3.org/2000/svg" data-name="Layer 1"><path d="m22.999 14.472c-.057-2.029-1.23-4.452-6.503-4.472-.97.004-1.79.097-2.496.249v-4.749s0-.002 0-.002c0-.008 0-.017 0-.025-.057-2.029-1.23-4.452-6.503-4.472-5.501.023-6.434 2.765-6.493 4.485 0 .005-.003.01-.003.015v12.029c.059 2.029 1.233 4.451 6.503 4.471 1.508-.005 2.712-.203 3.689-.588.945.916 2.571 1.578 5.31 1.588 5.263-.019 6.437-2.442 6.496-4.5v-4s0-.002 0-.002c0-.008 0-.017 0-.025zm-2 .028c-.021.708-.131 2.484-4.496 2.5-4.407-.016-4.482-1.756-4.504-2.46v-.016c.047-1.663 1.563-2.512 4.496-2.524 4.369.017 4.484 1.852 4.503 2.5zm-8.999-5.015c-.022.759-.097 2.499-4.496 2.515-4.407-.016-4.482-1.756-4.504-2.515v-.463c.987.585 2.422.971 4.503.978 2.077-.008 3.51-.393 4.496-.977v.462zm-9 3.537c.987.585 2.423.971 4.504.978 1.003-.004 1.855-.096 2.581-.255-.048.259-.074.508-.082.739 0 .005-.003.01-.003.015v1.207c-.673.188-1.506.289-2.496.293-4.407-.016-4.482-1.756-4.504-2.515v-.463zm4.496-10.022c4.369.017 4.484 1.852 4.503 2.499-.021.708-.131 2.484-4.496 2.5-4.407-.016-4.482-1.756-4.504-2.46v-.016c.047-1.663 1.563-2.512 4.496-2.524zm.008 17c-4.432-.017-4.483-1.777-4.504-2.5v-.479c.987.585 2.423.971 4.504.978.949-.004 1.767-.089 2.496-.24v.769c.011.369.06.75.162 1.128-.699.22-1.585.339-2.658.343zm9 1c-4.432-.017-4.483-1.777-4.504-2.5v-.478c.987.585 2.422.971 4.503.978 2.078-.008 3.511-.393 4.497-.977v.448c-.02.687-.073 2.513-4.496 2.529zm-1.504-18.5c0-1.071.429-1.5 1.5-1.5s1.5.429 1.5 1.5-.429 1.5-1.5 1.5-1.5-.429-1.5-1.5zm6.5 3.5c1.071 0 1.5.429 1.5 1.5s-.429 1.5-1.5 1.5-1.5-.429-1.5-1.5.429-1.5 1.5-1.5zm-5.332 1.446 4-6c.306-.459.926-.584 1.387-.277.459.306.583.927.277 1.387l-4 6c-.308.463-.933.581-1.387.277-.459-.306-.583-.927-.277-1.387z"/></svg>