<svg id="Layer_1" viewBox="0 0 24 24" xmlns="http://www.w3.org/2000/svg" data-name="Layer 1"><path d="m22.793 8.135c-.287-2.899-.788-5.224-.816-5.35-.083-.381-.381-.679-.762-.762-.19-.042-4.713-1.023-9.214-1.023s-9.025.981-9.215 1.023c-.381.083-.679.381-.762.762-.213.523-1.156 7.016-1.023 9.215-.136 2.171.815 8.726 1.023 9.215.083.381.381.679.762.762.19.042 4.713 1.023 9.214 1.023s9.024-.981 9.214-1.023c.381-.083.679-.381.762-.762.213-.523 1.156-7.016 1.023-9.215 0-1.324-.086-2.648-.207-3.865zm-2.007.052c.055.577.105 1.148.142 1.733-.657-.126-1.682-.306-2.927-.476v-.522c0-1.184.239-1.423 1.423-1.423.88 0 1.237.134 1.363.687zm-16.937-4.337c1.386-.265 4.824-.85 8.151-.85s6.765.585 8.151.85c.079.416.188 1.031.3 1.758-.316-.064-.651-.107-1.028-.107-.903 0-1.621.19-2.168.552-.581-.691-1.492-1.052-2.755-1.052-1.09 0-1.918.27-2.5.785-.582-.515-1.41-.785-2.5-.785-1.263 0-2.175.361-2.755 1.052-.547-.362-1.265-.552-2.168-.552-.378 0-.713.044-1.028.107.112-.726.221-1.342.3-1.758zm12.151 4.65v.711c-.955-.094-1.969-.166-3-.195v-.516c0-1.233.267-1.5 1.5-1.5s1.5.267 1.5 1.5zm-5 0v.516c-1.031.03-2.045.102-3 .195v-.711c0-1.233.267-1.5 1.5-1.5s1.5.267 1.5 1.5zm-7.846.423c.007-.247.039-.494.061-.736.126-.553.483-.687 1.363-.687 1.184 0 1.423.239 1.423 1.423v.522c-1.246.169-2.27.35-2.927.476.026-.338.035-.671.081-.998zm.061 6.89c-.055-.577-.105-1.148-.142-1.733.657.126 1.682.306 2.927.476v.522c0 1.184-.239 1.423-1.423 1.423-.88 0-1.237-.134-1.363-.687zm16.937 4.338c-1.386.265-4.824.85-8.151.85s-6.765-.585-8.151-.85c-.079-.416-.188-1.031-.3-1.758.316.064.651.107 1.028.107.903 0 1.621-.19 2.168-.552.581.691 1.492 1.052 2.755 1.052 1.09 0 1.918-.27 2.5-.785.582.515 1.41.785 2.5.785 1.263 0 2.175-.361 2.755-1.052.547.362 1.265.552 2.168.552.378 0 .713-.044 1.028-.107-.112.726-.221 1.342-.3 1.758zm-12.151-4.65v-.711c.955.094 1.969.166 3 .195v.516c0 1.233-.267 1.5-1.5 1.5s-1.5-.267-1.5-1.5zm5 0v-.516c1.031-.03 2.045-.102 3-.195v.711c0 1.233-.267 1.5-1.5 1.5s-1.5-.267-1.5-1.5zm7.846-.423c-.007.247-.039.494-.061.736-.126.553-.483.687-1.363.687-1.184 0-1.423-.239-1.423-1.423v-.522c1.246-.169 2.27-.35 2.927-.476-.026.338-.035.671-.081.998zm-8.846-2.077c-3.893 0-7.922-.783-9-1 1.078-.217 5.107-1 9-1s7.921.783 9 1c-1.079.217-5.107 1-9 1z"/></svg>