<svg id="Layer_1" viewBox="0 0 24 24" xmlns="http://www.w3.org/2000/svg" data-name="Layer 1"><path d="m2.052 3.313c-.173-.523.109-1.088.632-1.262.129-.043 3.224-1.052 9.316-1.052s9.188 1.009 9.316 1.052c.524.174.807.74.632 1.265-.174.529-.755.806-1.265.632-.026-.009-2.958-.948-8.684-.948s-8.656.939-8.685.949c-.526.172-1.089-.113-1.262-.636zm19.265 2.738c-.129-.043-3.224-1.052-9.316-1.052s-9.189 1.01-9.317 1.053c-.523.174-.805.738-.632 1.262.173.522.736.808 1.262.636.027-.009 2.62-.839 7.686-.939v14.99c0 .553.448 1 1 1s1-.447 1-1v-14.991c5.066.1 7.659.93 7.684.938.51.174 1.092-.103 1.265-.632.175-.524-.108-1.091-.632-1.265z"/></svg>