<svg id="Layer_1" viewBox="0 0 24 24" xmlns="http://www.w3.org/2000/svg" data-name="Layer 1"><path d="m22.97 20.741c-.131.54-.689.862-1.211.729-.019-.005-1.935-.471-4.759-.471s-4.74.466-4.759.471c-.537.128-1.079-.193-1.211-.729-.133-.535.192-1.077.727-1.211.087-.022 2.155-.53 5.243-.53s5.156.508 5.243.53c.535.134.86.676.727 1.211zm-20.423-17.578c-.462-.302-1.081-.173-1.384.29-.302.462-.173 1.082.29 1.384 2.98 1.949 5.45 4.356 7.35 7.163-1.9 2.807-4.37 5.214-7.35 7.163-.462.302-.592.922-.29 1.384.304.467.928.59 1.384.29 3.407-2.229 6.198-5.021 8.295-8.298.21-.329.21-.749 0-1.078-2.096-3.277-4.887-6.069-8.295-8.298z"/></svg>