<svg id="Layer_1" viewBox="0 0 24 24" xmlns="http://www.w3.org/2000/svg" data-name="Layer 1"><path d="m11 3.015v18.985c0 .552-.448 1-1 1s-1-.448-1-1v-18.985c-2.938.07-4.86.43-5.721.635-.119.573-.279 1.501-.279 2.351 0 .552-.448 1-1 1s-1-.448-1-1c0-1.612.454-3.343.473-3.416.086-.326.331-.586.65-.693.109-.036 2.733-.891 7.877-.891s7.768.855 7.877.891c.319.106.564.367.65.693.019.073.473 1.804.473 3.416 0 .552-.448 1-1 1s-1-.448-1-1c0-.85-.16-1.778-.279-2.351-.859-.204-2.782-.565-5.721-.635zm11.76 10.206c-.071-.351-.325-.636-.664-.75-.058-.019-1.444-.471-4.096-.471s-4.039.452-4.096.471c-.339.113-.593.399-.664.75-.04.197-.24 1.208-.24 1.779 0 .552.448 1 1 1s1-.448 1-1c0-.158.039-.457.087-.76.411-.078 1.052-.171 1.913-.215v7.863c0 .552.448 1 1 1s1-.448 1-1v-7.863c.861.044 1.502.136 1.913.215.049.303.087.601.087.76 0 .552.448 1 1 1s1-.448 1-1c0-.572-.2-1.583-.24-1.779z"/></svg>