<svg id="Layer_1" viewBox="0 0 24 24" xmlns="http://www.w3.org/2000/svg" data-name="Layer 1"><path d="m12 20c-6.071 0-9.388-.933-9.526-.973-.321-.092-.574-.338-.676-.655-.032-.101-.798-2.526-.798-6.372s.766-6.271.798-6.372c.102-.317.355-.563.676-.655.138-.04 3.455-.973 9.526-.973.552 0 1 .447 1 1s-.448 1-1 1c-4.403 0-7.303.519-8.438.767-.205.858-.562 2.718-.562 5.233s.357 4.375.562 5.233c1.134.248 4.034.767 8.438.767.552 0 1 .447 1 1s-.448 1-1 1zm10.202-14.372c-.102-.316-.356-.562-.676-.655 0 0-.455-.133-1.34-.3-.552-.103-1.066.253-1.169.796s.254 1.066.796 1.169c.247.047.455.09.624.127.204.858.563 2.719.563 5.235s-.358 4.377-.563 5.235c-.169.037-.377.08-.624.127-.542.103-.898.626-.796 1.169.1.546.639.9 1.169.796.885-.167 1.34-.3 1.34-.3.319-.093.574-.339.676-.655.032-.101.798-2.526.798-6.372s-.766-6.271-.798-6.372zm-14.202 10.372c.552 0 1-.447 1-1v-4.943c.715.078.586.136 1 .166.418 0 .809-.265.948-.684.175-.523-.107-1.09-.631-1.265-.084-.028-.863-.274-2.317-.274s-2.233.246-2.317.274c-.52.174-.797.731-.63 1.253s.727.806 1.253.647c.003-.001.253-.067.693-.118v4.943c0 .553.448 1 1 1zm11 5c-1.589 0-2-.411-2-2v-14c0-1.589.411-2 2-2 .553 0 1-.447 1-1s-.447-1-1-1c-1.34 0-2.336.325-3 .984-.664-.658-1.66-.984-3-.984-.552 0-1 .447-1 1s.448 1 1 1c1.589 0 2 .411 2 2v14c0 1.589-.411 2-2 2-.552 0-1 .447-1 1s.448 1 1 1c1.34 0 2.336-.325 3-.984.664.658 1.66.984 3 .984.553 0 1-.447 1-1s-.447-1-1-1z"/></svg>