<svg id="Layer_1" viewBox="0 0 24 24" xmlns="http://www.w3.org/2000/svg" data-name="Layer 1"><path d="m4.024 4.851c.087-1.207.381-2.325.393-2.372.086-.326.331-.586.65-.693.097-.032 2.411-.786 6.932-.786s6.835.754 6.932.786c.319.106.563.367.65.692.013.047.306 1.166.393 2.373.04.551-.374 1.03-.926 1.069-.543.029-1.029-.375-1.068-.926-.039-.539-.13-1.069-.206-1.448-.766-.176-2.366-.466-4.774-.532v11.986c0 .552-.448 1-1 1s-1-.448-1-1v-11.986c-2.408.066-4.008.356-4.774.533-.077.379-.167.909-.206 1.448-.038.526-.477.928-.997.928-.578.003-1.043-.496-.999-1.072zm18.775 13.55c-.908-1.212-1.984-2.289-3.199-3.2-.443-.332-1.069-.242-1.4.2s-.242 1.068.199 1.4c.49.368.946.774 1.382 1.2h-15.563c.436-.427.892-.833 1.382-1.2.442-.331.531-.958.2-1.4-.331-.441-.957-.532-1.4-.2-1.213.91-2.29 1.986-3.2 3.2-.267.355-.267.845 0 1.2.91 1.213 1.986 2.29 3.2 3.2.438.33 1.067.244 1.4-.2.332-.442.242-1.069-.2-1.4-.49-.367-.946-.773-1.382-1.2h15.564c-.436.426-.892.833-1.382 1.2-.441.332-.53.958-.199 1.4.334.444.962.529 1.4.2 1.215-.912 2.291-1.988 3.199-3.2.267-.355.267-.844 0-1.199z"/></svg>