<svg id="Layer_1" viewBox="0 0 24 24" xmlns="http://www.w3.org/2000/svg" data-name="Layer 1"><path d="m22.707 21.293-9.707-9.707v-7.572c3.524.07 5.863.49 6.957.743-.077.875-.291 2.383-.886 3.871-.205.513.044 1.095.557 1.3.5.204 1.095-.04 1.3-.557 1.059-2.648 1.071-5.262 1.071-5.372 0-.431-.275-.812-.684-.949-.129-.043-3.224-1.051-9.316-1.051-3.848 0-6.496.409-7.889.696l-1.404-1.404c-.391-.391-1.023-.391-1.414 0s-.391 1.023 0 1.414l20.001 20.002c.195.195.451.293.707.293s.512-.098.707-.293c.391-.391.391-1.023 0-1.414zm-11.707-17.279v5.572l-5.163-5.164c1.243-.188 2.966-.365 5.163-.409zm2 12.986v4c0 .552-.448 1-1 1s-1-.448-1-1v-4c0-.552.448-1 1-1s1 .448 1 1zm-8.072-8.372c.206.513-.044 1.095-.557 1.3-.5.205-1.095-.039-1.3-.557-.146-.363-.271-.725-.379-1.081-.16-.528.138-1.087.667-1.248.526-.161 1.086.137 1.248.667.092.303.199.611.322.919z"/></svg>