<svg id="Layer_1" viewBox="0 0 24 24" xmlns="http://www.w3.org/2000/svg" data-name="Layer 1"><path d="m22.077 3.293c-.2-.237-1.136-1.173-1.372-1.371-1.344-1.127-3.307-1.225-4.776-.242-1.278.854-5.251 4.553-6.339 5.642-2.405 2.415-4.145 4.379-4.311 4.572-1.046 1.207-2.46 2.858-2.294 7.706l-1.693 1.693c-.391.391-.391 1.023 0 1.414s1.023.391 1.414 0l1.696-1.696c.26.009.526.021.768.021 4.263 0 5.793-1.323 6.936-2.312.208-.179 2.14-1.891 4.573-4.311 1.089-1.091 4.789-5.065 5.641-6.34.983-1.471.883-3.435-.243-4.777zm-1.42 3.666c-.682 1.02-4.078 4.722-5.392 6.037-2.378 2.365-4.283 4.056-4.467 4.212-.967.837-2.158 1.865-5.829 1.823-.027-2.437.416-3.777.961-4.687l1.363 1.363c.391.391 1.023.391 1.414 0s.391-1.023 0-1.414l-1.527-1.527c.316-.35.847-.934 1.521-1.651l1.592 1.592c.391.391 1.023.391 1.414 0s.391-1.023 0-1.414l-1.623-1.623c.298-.306.604-.618.921-.934.181-.181.409-.403.667-.65l1.622 1.622c.391.391 1.023.391 1.414 0s.391-1.023 0-1.414l-1.576-1.576c.547-.505 1.12-1.024 1.665-1.507l1.498 1.498c.391.391 1.023.391 1.414 0s.391-1.023 0-1.414l-1.392-1.392c.3-.247.554-.444.726-.559.737-.49 1.714-.445 2.379.113.159.134.99.965 1.125 1.124.558.665.604 1.644.112 2.38z"/></svg>