<svg id="Layer_1" viewBox="0 0 24 24" xmlns="http://www.w3.org/2000/svg"><path d="m22.516 14.277c-.094-.346-.365-.615-.712-.706-.032-.008-.336-.087-.804-.182v-.389c0-.553-.447-1-1-1-.586-.003-1.04.502-1 1.082-.482-.049-.99-.082-1.5-.082s-1.018.033-1.5.082c.04-.58-.414-1.085-1-1.082-.553 0-1 .447-1 1v.389c-.468.095-.771.174-.804.182-.335.087-.6.342-.702.673-.02.065-.494 1.631-.494 3.858 0 2.25.488 3.639.509 3.696.111.311.368.547.688.63.089.023 2.199.571 4.304.571s4.215-.548 4.304-.571c.335-.087.6-.342.702-.673.02-.065.494-1.629.494-3.653 0-2.007-.465-3.752-.484-3.825zm-1.787 6.348c-.713.149-1.992.375-3.229.375-1.244 0-2.531-.229-3.242-.378-.113-.508-.258-1.378-.258-2.52 0-.398.021-.76.049-1.103h6.895c.032.352.056.718.056 1.103 0 1.056-.153 1.973-.271 2.522zm-10.735-.617c-.055.551-.559.95-1.099.89-5.46-.573-7.896-3.625-7.896-9.897.001-7.011 2.991-10.001 10.001-10.001 6.272 0 9.324 2.436 9.897 7.896.058.55-.341 1.041-.89 1.099-.559.061-1.041-.342-1.099-.89-.462-4.393-2.679-6.104-7.909-6.104-5.905-.001-7.999 2.093-7.999 7.999 0 5.23 1.712 7.447 6.104 7.909.549.058.947.549.89 1.099zm2.006-9.008c0 .553-.447 1-1 1h-3c-.553 0-1-.447-1-1s.447-1 1-1h2v-3c0-.553.447-1 1-1s1 .447 1 1z"/></svg>