<svg id="Layer_1" viewBox="0 0 24 24" xmlns="http://www.w3.org/2000/svg" data-name="Layer 1"><path d="m22.999 17.643c0-2.628-2.616-2.637-3.606-2.64-.212 0-.557-.01-.76 0-.39.022-.697.32-.745.696-.075.34-.322 1.575-.322 3.298 0 1.994.33 3.334.344 3.39.106.431.552.689.969.581.427-.106.688-.54.583-.968-.002-.008-.146-.6-.232-1.564 3 .063 3.811-1.497 3.77-2.793zm-3.834 1.192c.01-.956.101-1.735.181-2.234 1.958-.019 2.089.525 2.054 1.041.109.479-.308 1.292-2.235 1.193zm-5.417-2.475c-.126.313-.426.503-.743.503-.448-.04-.3-.131-1.199-.226v5.556c0 .441-.358.799-.799.799s-.799-.358-.799-.799v-5.556c-.594.061-.907.171-.911.172-.413.152-.872-.051-1.03-.459-.158-.409.038-.867.445-1.03.083-.033.851-.323 2.295-.323s2.212.29 2.295.323c.41.164.61.629.446 1.039zm6.24-12.355c0-1.989-1.009-2.998-2.998-2.998s-2.998 1.009-2.998 2.998 1.009 2.998 2.998 2.998 2.998-1.009 2.998-2.998zm-2.998.999c-.878 0-.999-.121-.999-.999s.121-.999.999-.999.999.121.999.999-.121.999-.999.999zm-4.025 5.132c.128-1.528-.525-3.191-.512-3.159-.12-.296-.375-.511-.683-.589.145-.392.223-.849.223-1.383 0-1.989-1.009-2.998-2.998-2.998s-2.998 1.009-2.998 2.998c0 .411.054.77.14 1.098-1.066.106-1.83.262-1.877.272-.322.067-.589.288-.716.59.008-.023-.65 1.608-.516 3.179-1.079.828-1.813 2.08-1.932 3.504-.063.76-.096 1.551-.096 2.349 0 3.387.572 5.608.596 5.7.093.354.372.629.728.716.077.02 1.923.466 4.663.561.548.021 1.015-.412 1.034-.963.019-.552-.413-1.015-.964-1.034-1.64-.058-2.94-.252-3.654-.383-.157-.828-.404-2.467-.404-4.599 0-.743.03-1.478.089-2.183.117-1.395 1.217-2.524 2.617-2.684 1.515-.172 3.068-.172 4.581 0 .912.105 1.711.613 2.193 1.394.289.468.905.616 1.375.327.47-.29.616-.906.327-1.375-.325-.527-.74-.976-1.215-1.34zm-3.97-6.131c.878 0 .999.121.999.999s-.122.999-.999.999-.999-.121-.999-.999.122-.999.999-.999zm1.518 5.14c-1.664-.191-3.37-.191-5.035 0-.148.017-.288.059-.432.088.046-.4.117-.748.184-1.002.613-.097 1.659-.229 2.766-.229s2.148.133 2.762.229c.067.254.138.598.185.987-.142-.029-.284-.057-.429-.074zm5.95 6.85c-.003.012-.297 1.221-.297 3.002s.294 2.991.297 3.003c.105.428-.155.862-.583.968-.417.108-.864-.15-.969-.581-.014-.057-.344-1.397-.344-3.39s.33-3.333.344-3.389c.107-.427.535-.691.969-.581.427.106.688.54.583.968z"/></svg>