<svg id="Layer_1" viewBox="0 0 24 24" xmlns="http://www.w3.org/2000/svg" data-name="Layer 1"><path d="m18 22c0 .553-.447 1-1 1h-5c-2.691 0-4-1.309-4-4v-3h-2.5c-3.487 0-3.878-2.215-4.292-4.56-.014-.1-.208-1.539-.208-2.94 0-.545.029-1.1.066-1.577.042-.551.526-.953 1.074-.92.551.043.962.523.92 1.074-.033.431-.061.931-.061 1.423 0 1.263.182 2.618.184 2.632.454 2.569.693 2.868 2.316 2.868h4.5c.552 0 1 .447 1 1s-.448 1-1 1v3c0 1.589.411 2 2 2h5c.553 0 1 .447 1 1zm-2.5-15c-.552 0-1 .672-1 1.5s.448 1.5 1 1.5 1-.672 1-1.5-.448-1.5-1-1.5zm7.207 15.707c-.391.391-1.023.391-1.414 0l-20-20c-.391-.391-.391-1.023 0-1.414s1.023-.391 1.414 0l.317.317c.619-.409 1.406-.61 2.476-.61h10c3.488 0 3.878 2.215 4.291 4.56.028.129.192 2.744.207 2.871.002.038.002 7.673.002 10.155l2.707 2.707c.391.391.391 1.023 0 1.414zm-10.834-19.707h-6.373c-.404 0-.723.038-.979.107l6.515 6.515c-.021-.359-.036-.741-.036-1.122 0-1.401.194-2.841.203-2.901.164-.934.327-1.84.67-2.599zm5.939 8.145.185-2.645-.185-2.645c-.453-2.561-.699-2.855-2.312-2.855-1.623 0-1.862.299-2.322 2.907s-.179 1.342-.179 2.593c.04 2.042.167 2.353.31 3.396l2.118 2.118c1.657-.034 1.93-.247 2.384-2.87zm.188 4.239c-.235.156-.504.286-.816.386l.816.816z"/></svg>