<svg id="Layer_1" viewBox="0 0 24 24" xmlns="http://www.w3.org/2000/svg" data-name="Layer 1"><path d="m15.5 7c.552 0 1 .672 1 1.5s-.448 1.5-1 1.5-1-.672-1-1.5.448-1.5 1-1.5zm7.5 15c0 .553-.448 1-1 1h-10c-2.691 0-4-1.309-4-4v-3h-2.5c-3.487 0-3.878-2.215-4.292-4.56-.014-.1-.208-1.539-.208-2.94s.194-2.841.203-2.901c.419-2.384.81-4.599 4.297-4.599h10c3.487 0 3.878 2.215 4.292 4.56.025.129.192 2.744.206 2.871.003.046.002 10.569.002 10.569 0 1.589.411 2 2 2 .552 0 1 .447 1 1zm-7.5-19c-1.623 0-1.862.299-2.322 2.907 0 0-.178 1.342-.178 2.593 0 1.263.182 2.618.184 2.632.454 2.569.693 2.868 2.316 2.868 1.612 0 1.858-.295 2.312-2.855l.185-2.645-.185-2.645c-.454-2.561-.7-2.855-2.312-2.855zm-10 11h6.37c-.34-.752-.5-1.645-.662-2.56-.014-.1-.208-1.539-.208-2.94s.194-2.841.203-2.901c.164-.934.327-1.84.67-2.599h-6.373c-1.623 0-1.862.299-2.322 2.907 0 0-.178 1.342-.178 2.593 0 1.263.182 2.618.184 2.632.454 2.569.693 2.868 2.316 2.868zm12.834 7c-.223-.551-.334-1.217-.334-2v-3.617c-.584.387-1.382.617-2.5.617h-5.5v3c0 1.589.411 2 2 2z"/></svg>