<svg id="Layer_1" viewBox="0 0 24 24" xmlns="http://www.w3.org/2000/svg" data-name="Layer 1"><path d="m22.194 21.047c-.059-.012-.498-.097-1.194-.212v-10.835c0-6.309-2.691-9-9-9s-9 2.691-9 9v10.835c-.696.115-1.135.2-1.194.212-.542.107-.894.633-.787 1.175.107.541.629.899 1.175.787.05-.01 5.028-.981 9.806-.981 5.057.018 9.594.975 10.001 1 .468 0 .886-.33.98-.806.107-.542-.246-1.068-.787-1.175zm-17.194-.509v-10.538c0-5.168 1.832-7 7-7s7 1.832 7 7v10.537c-1.914-.255-4.458-.51-7-.51s-5.086.255-7 .51zm10.991-10.205c-.068.502-.497.867-.99.867-.044 0-.089-.003-.135-.009-.616-.083-1.24-.129-1.867-.157v4.966c0 .552-.448 1-1 1s-1-.448-1-1v-4.966c-.626.029-1.251.074-1.867.157-.554.066-1.051-.311-1.125-.858-.073-.547.311-1.051.858-1.125.704-.095 1.418-.145 2.133-.175v-2.034c0-.552.448-1 1-1s1 .448 1 1v2.034c.715.03 1.429.08 2.133.175.547.074.931.577.858 1.125z"/></svg>