<svg id="Layer_1" viewBox="0 0 24 24" xmlns="http://www.w3.org/2000/svg" data-name="Layer 1"><path d="m22.193 21.019c-.058-.012-.497-.097-1.193-.212v-10.807c0-6.309-2.691-9-9-9s-9 2.691-9 9v10.807c-.696.115-1.135.2-1.194.212-.542.107-.894.633-.787 1.175.107.541.632.898 1.175.787.05-.01 5.028-.981 9.806-.981 5.057.018 9.595.975 10.001 1 .468 0 .886-.33.98-.806.106-.542-.246-1.068-.788-1.175zm-17.193-.509v-10.51c0-5.168 1.832-7 7-7s7 1.832 7 7v10.51c-1.914-.255-4.458-.51-7-.51s-5.086.255-7 .51z"/></svg>