<svg id="Layer_1" viewBox="0 0 24 24" xmlns="http://www.w3.org/2000/svg" data-name="Layer 1"><path d="m21.055 7.332c.163-.108.29-.262.366-.442.05-.117 1.217-2.884 1.562-4.704.073-.387-.087-.781-.41-1.007-.325-.226-.749-.24-1.087-.037-2.17 1.302-5.007 1.857-9.485 1.857s-7.316-.555-9.486-1.856c-.338-.203-.763-.188-1.087.037-.323.226-.483.62-.41 1.007.345 1.819 1.512 4.586 1.562 4.704.093.219.261.398.474.504.301.15.62.287.95.416.007 1.222.055 2.557.127 3.911-.848.166-1.344.3-1.397.315-.532.147-.843.698-.695 1.23.146.531.695.842 1.229.697.011-.003.358-.097.986-.225.289 4.251.727 8.134.755 8.375.06.551.567.944 1.106.88.549-.062.942-.558.88-1.107-.007-.059-.466-4.131-.758-8.487 1.486-.211 3.459-.4 5.764-.4s4.278.189 5.764.4c-.292 4.356-.751 8.428-.758 8.487-.062.549.331 1.044.88 1.107.539.064 1.047-.33 1.106-.88.028-.241.466-4.124.755-8.375.914.177.827.227 1.252.262.438 0 .841-.291.963-.733.147-.532-.163-1.083-.695-1.23-.054-.015-.549-.149-1.397-.315.071-1.331.118-2.642.126-3.847.391-.159.75-.337 1.058-.543zm-9.055-2.332c3.616 0 6.282-.354 8.439-1.152-.278.813-.576 1.567-.738 1.966-1.36.736-4.256 1.186-7.701 1.186-3.29 0-5.886-.417-7.723-1.238-.165-.41-.45-1.135-.717-1.914 2.157.798 4.823 1.152 8.439 1.152zm-5.991 3.418c1.436.331 3.094.517 4.991.565v2.029c-1.914.042-3.566.202-4.883.382-.053-1.025-.092-2.031-.108-2.976zm11.874 2.976c-1.317-.181-2.969-.34-4.883-.382v-2.025c1.363-.036 3.262-.159 4.99-.523-.016.931-.055 1.922-.107 2.93z"/></svg>