<svg id="Layer_1" viewBox="0 0 24 24" xmlns="http://www.w3.org/2000/svg" data-name="Layer 1"><path d="m22.263 7.035c-.174-.047-3.358-.907-6.885-1.319-.079-.997-.169-1.618-.176-1.664-.031-.216-.133-.416-.289-.568-.082-.081-.711-.663-1.912-.892v-.592c0-.552-.447-1-1-1s-1 .448-1 1v.592c-1.201.229-1.83.812-1.912.892-.156.153-.258.354-.289.57-.007.046-.096.669-.176 1.662-3.528.412-6.712 1.272-6.886 1.319-.436.119-.737.514-.737.965 0 5.784 2.129 8.511 2.219 8.625.097.121.221.218.36.283.104.048 1.969.898 4.932 1.336.053 1.794.276 3.364.286 3.438.042.287.205.541.447.698.16.104 1.047.62 2.755.62s2.595-.517 2.755-.62c.243-.157.406-.412.447-.699.01-.075.233-1.655.286-3.438 2.958-.438 4.827-1.287 4.932-1.335.141-.065.264-.162.361-.283.09-.113 2.219-2.84 2.219-8.625 0-.451-.302-.846-.737-.965zm-1.277 1.74c-.047 1.262-.207 2.334-.412 3.225h-5.207c.07-.841.133-1.951.133-3.2 0-.365-.005-.717-.015-1.054 2.288.29 4.415.766 5.5 1.029zm-10.346 3.225c-.071-.803-.139-1.914-.139-3.2 0-.436.008-.855.022-1.249.5-.032.995-.05 1.478-.05s.978.018 1.478.051c.014.394.022.812.022 1.249 0 1.271-.069 2.388-.14 3.2h-2.721zm.085-7.231c.242-.122.661-.269 1.275-.269s1.038.149 1.276.268c.023.197.05.458.078.772-.456-.025-.909-.039-1.354-.039s-.898.014-1.354.039c.028-.312.055-.573.078-.77zm-2.21 2.977c-.009.337-.015.689-.015 1.054 0 1.262.063 2.367.132 3.2h-5.205c-.205-.891-.365-1.964-.412-3.226 1.084-.263 3.211-.739 5.5-1.029zm4.777 13.093c-.28.08-.709.162-1.292.162s-1.015-.083-1.292-.161c-.062-.543-.149-1.424-.188-2.385.475.029.969.046 1.48.046s1.004-.017 1.48-.046c-.039.957-.126 1.84-.188 2.385zm-1.292-4.338c-3.755 0-6.536-.987-7.343-1.308-.134-.213-.359-.608-.601-1.192h15.888c-.243.586-.469.981-.602 1.192-.803.321-3.571 1.308-7.343 1.308z"/></svg>