<svg id="Layer_1" viewBox="0 0 24 24" xmlns="http://www.w3.org/2000/svg" data-name="Layer 1"><path d="m22.999 17.964c.021.552-.411 1.016-.963 1.036-.013 0-.024 0-.037 0-.535 0-.979-.424-.998-.964-.14-3.848-.924-7.13-1.561-9.217-.487 1.367-1.059 3.234-1.457 5.365-.089.473-.502.816-.983.816s-.895-.343-.983-.816c-.398-2.13-.969-3.996-1.456-5.362-.638 2.091-1.422 5.377-1.562 9.214-.021.552-.497.984-1.035.963-.552-.02-.983-.484-.963-1.036.254-7.011 2.489-12.152 2.584-12.368.157-.356.508-.589.897-.596.377 0 .747.214.918.564.047.098.829 1.727 1.6 4.257.771-2.53 1.553-4.16 1.6-4.257.17-.35.532-.567.918-.564.39.007.74.24.897.596.095.216 2.33 5.356 2.584 12.368zm-12.683-12.468c-.061-.02-1.52-.496-4.316-.496s-4.256.476-4.316.496c-.521.174-.803.736-.632 1.259.172.523.731.806 1.26.64.01-.003.921-.285 2.688-.369v10.975c0 .552.447 1 1 1s1-.448 1-1v-10.976c2.207.12 2.389.361 3 .419.419 0 .809-.265.948-.684.175-.524-.108-1.09-.632-1.265z"/></svg>