<svg id="Layer_1" viewBox="0 0 24 24" xmlns="http://www.w3.org/2000/svg" data-name="Layer 1"><path d="m19.176 2.957c-.063-.323-.282-.594-.585-.725-.117-.051-2.897-1.232-6.591-1.232-3.726 0-6.479 1.184-6.595 1.234-.3.131-.518.4-.581.723-.033.171-.824 4.235-.824 9.043s.791 8.871.824 9.043c.063.323.282.594.585.725.117.051 2.897 1.232 6.591 1.232 3.726 0 6.479-1.184 6.595-1.234.3-.131.518-.4.581-.723.033-.171.824-4.235.824-9.043s-.791-8.871-.824-9.043zm-1.866 17.158c-.881.305-2.874.885-5.31.885-2.417 0-4.423-.581-5.31-.887-.21-1.251-.69-4.506-.69-8.113s.48-6.867.69-8.115c.881-.305 2.874-.885 5.31-.885 2.417 0 4.423.581 5.31.887.21 1.251.69 4.506.69 8.113s-.48 6.867-.69 8.115z"/><path d="m15 7c0-1.654-1.346-3-3-3s-3 1.346-3 3c0 1.043.535 1.962 1.344 2.5-.809.538-1.344 1.457-1.344 2.5s.535 1.962 1.344 2.5c-.809.538-1.344 1.457-1.344 2.5 0 1.654 1.346 3 3 3s3-1.346 3-3c0-1.043-.535-1.962-1.344-2.5.809-.538 1.344-1.457 1.344-2.5s-.535-1.962-1.344-2.5c.809-.538 1.344-1.457 1.344-2.5zm-3-1c.552 0 1 .448 1 1s-.448 1-1 1-1-.448-1-1 .448-1 1-1zm0 12c-.552 0-1-.448-1-1s.448-1 1-1 1 .448 1 1-.448 1-1 1z"/></svg>