<svg id="Layer_1" viewBox="0 0 24 24" xmlns="http://www.w3.org/2000/svg" data-name="Layer 1"><path d="m17.854 8.565c-.115-.043-2.847-1.065-5.854-1.065s-5.738 1.021-5.854 1.064c-.307.116-.537.375-.616.693-.022.087-.53 2.149-.53 4.743 0 3.412.504 5.632.525 5.725.075.326.309.592.62.71.04.015.388.145.951.31l-.449.733c-.289.471-.141 1.086.33 1.375.163.1.344.147.521.147.337 0 .665-.17.854-.478l.792-1.293c.861.155 1.843.271 2.856.271s1.994-.116 2.856-.272l.792 1.294c.188.308.517.478.854.478.178 0 .358-.047.521-.147.471-.289.619-.904.33-1.375l-.449-.733c.562-.164.91-.294.95-.309.313-.119.547-.386.621-.713.021-.094.525-2.34.525-5.723 0-2.593-.508-4.656-.53-4.743-.079-.318-.31-.577-.615-.692zm-.854 5.435v.074c-.632.107-2.173.339-4 .407v-4.939c1.545.125 2.929.502 3.642.724.139.722.358 2.119.358 3.734zm-9.641-3.733c.713-.223 2.098-.599 3.641-.724v4.939c-1.83-.068-3.369-.3-4-.407 0-.025 0-.049 0-.074 0-1.606.221-3.008.359-3.733zm.013 8.471c-.091-.533-.222-1.44-.302-2.626.369.057.856.125 1.43.189v.699c0 .552.447 1 1 1s1-.448 1-1v-.538c.479.024.982.038 1.5.038s1.021-.015 1.5-.039v.539c0 .552.447 1 1 1s1-.448 1-1v-.7c.573-.063 1.06-.131 1.429-.188-.08 1.18-.211 2.09-.302 2.626-.87.271-2.714.762-4.627.762s-3.76-.492-4.628-.762z"/><path d="m12 1c-6.065 0-11 4.935-11 11v10c0 .552.447 1 1 1s1-.448 1-1v-10c0-4.962 4.037-9 9-9s9 4.038 9 9v10c0 .552.447 1 1 1s1-.448 1-1v-10c0-6.065-4.935-11-11-11z"/></svg>