<svg id="Layer_1" viewBox="0 0 24 24" xmlns="http://www.w3.org/2000/svg" data-name="Layer 1"><path d="m22.672 8.804c-.216-1.262-1.219-2.244-2.493-2.443-1.043-.165-2.614-.362-4.179-.362s-3.136.197-4.178.361c-1.275.2-2.278 1.183-2.494 2.443-.149.869-.328 2.216-.328 3.695 0 2.768.608 5.063.634 5.16.097.36.387.637.751.717.031.007.256.055.614.122v.502c0 .553.448 1 1 1s1-.447 1-1v-.197c.904.109 1.952.197 3 .197s2.096-.087 3-.197v.197c0 .553.448 1 1 1s1-.447 1-1v-.502c.358-.066.583-.115.614-.122.365-.08.654-.356.751-.717.026-.097.634-2.393.634-5.16 0-1.479-.178-2.826-.328-3.694zm-1.97.339c.101.588.216 1.416.269 2.352-.824-.152-2.338-.394-3.971-.471v-2.996c1.088.057 2.121.191 2.868.309.428.066.763.391.834.807zm-8.569-.808c.746-.118 1.779-.251 2.867-.308v2.996c-1.633.078-3.146.32-3.971.471.053-.935.168-1.764.269-2.353.071-.415.406-.739.835-.807zm-.704 8.206c-.133-.637-.323-1.733-.396-3.011.202-.04.538-.103.968-.173v.641c0 .553.448 1 1 1s1-.447 1-1v-.898c.64-.06 1.323-.102 2-.102s1.359.042 2 .102v.898c0 .553.448 1 1 1s1-.447 1-1v-.641c.429.07.765.132.967.172-.074 1.275-.264 2.373-.396 3.012-.93.169-2.776.456-4.571.456s-3.64-.288-4.571-.457zm10.564 5.04c.065.548-.327 1.045-.875 1.11-.106.013-2.618.307-5.118.307s-5.012-.294-5.118-.307c-.548-.065-.94-.562-.875-1.11.065-.549.559-.941 1.111-.876.024.003 2.504.293 4.882.293s4.858-.29 4.882-.293c.551-.066 1.045.327 1.111.876zm-14.797-4.563c-.095-.02-2.111-.419-4.02-.504-.102-1.366-.177-2.92-.177-4.516 0-3.324.616-6.729.894-8.097.48-.093 1.212-.225 2.106-.359v.844c-.014.586.551 1.081 1.129.991 1.756-.228 3.4-.355 4.887-.379.546-.009.984-.454.984-1v-1.996c.006-.55-.46-1.005-1.016-1-4.553.074-8.96 1.031-9.146 1.072-.376.082-.672.374-.759.749-.044.188-1.079 4.667-1.079 9.175 0 5.021.7 9.482.73 9.67.062.393.352.71.736.811.082.021 2.025.52 4.534.52.552 0 1-.447 1-1v-4c0-.477-.336-.887-.804-.98zm-1.196 3.951c-1.004-.057-1.85-.188-2.391-.29-.067-.494-.161-1.237-.254-2.152.975.059 1.975.201 2.646.311v2.132z"/></svg>