<svg id="Layer_1" viewBox="0 0 24 24" xmlns="http://www.w3.org/2000/svg" data-name="Layer 1"><path d="m19.156 5.588c-.094-.327-.347-.584-.673-.683-.111-.033-2.492-.742-5.483-.882v-1.01c2.93.078 5.31.468 5.336.473.056.009.11.014.165.014.48 0 .904-.347.985-.836.091-.544-.277-1.06-.822-1.15-.126-.021-3.122-.514-6.664-.514s-6.538.493-6.664.514c-.545.091-.913.606-.822 1.15.091.545.606.911 1.15.822.026-.004 2.406-.394 5.336-.473v1.01c-2.986.14-5.372.848-5.482.881-.327.099-.582.357-.675.686-.034.122-.843 3.033-.843 6.909 0 3.909.81 6.791.844 6.912.094.327.347.584.673.683.041.012.394.117.974.252l-.79 1.053c-.332.442-.242 1.069.2 1.4.18.135.39.2.599.2.305 0 .604-.138.801-.4l1.384-1.845c.977.139 2.114.245 3.316.245s2.338-.106 3.316-.245l1.384 1.846c.196.262.496.4.801.4.209 0 .419-.065.599-.2.442-.331.532-.958.2-1.4l-.79-1.054c.579-.134.932-.239.973-.252.327-.099.582-.357.675-.686.034-.122.843-3.033.843-6.909 0-3.909-.81-6.791-.844-6.912zm-6.156 7.888v-3.953c2.234.103 4.156.516 4.902.696.06.702.098 1.468.098 2.281 0 .083 0 .165-.001.247-.607.154-2.612.619-4.999.729zm-6.999-.729c0-.082-.001-.164-.001-.247 0-.803.038-1.563.098-2.262.655-.166 2.59-.608 4.902-.715v3.953c-2.383-.11-4.391-.576-4.999-.729zm5.999-6.747c2.313 0 4.412.442 5.365.677.077.339.178.828.276 1.433-1.229-.258-3.329-.61-5.641-.61-2.346 0-4.444.364-5.642.623.099-.61.2-1.104.277-1.446.955-.235 3.056-.677 5.364-.677zm-5.365 12.323c-.151-.668-.395-1.913-.533-3.495.472.106 1.123.237 1.898.355v.817c0 .552.447 1 1 1s1-.448 1-1v-.583c.635.051 1.307.083 2 .083s1.365-.032 2-.083v.583c0 .552.447 1 1 1s1-.448 1-1v-.818c.774-.118 1.425-.249 1.897-.355-.138 1.576-.382 2.824-.533 3.496-.955.235-3.056.677-5.364.677s-4.412-.442-5.365-.677z"/></svg>