<svg id="Layer_1" viewBox="0 0 24 24" xmlns="http://www.w3.org/2000/svg" data-name="Layer 1"><path d="m13.001 8.108c0 .714-.286 1-1 1s-1-.286-1-1 .286-1 1-1 1 .286 1 1zm9.624 5.779c-.18.145-.401.22-.625.22 0 4.38-.914 7.138-.953 7.253-.095.279-.308.503-.582.61-.062.024-1.525.589-4.35.912-.573.08-1.128-.413-1.114-.993v-1.783c0-2.299-.701-3-3-3s-3 .701-3 3v1.783c.013.579-.539 1.075-1.114.993-2.825-.323-4.29-.888-4.351-.912-.275-.107-.488-.331-.583-.611-.039-.115-.952-2.872-.952-7.252 0-.003 0-.006 0-.01-.591.022-1.09-.556-.989-1.138.423-2.817 2.07-4.755 2.14-4.837.121-.14.279-.244.456-.3.114-.036 1.087-.327 3.425-.526.216-2.528 1.5-3.859 3.966-4.13v-1.057c0-.553.448-1 1-1s1 .447 1 1v1.057c2.466.271 3.751 1.602 3.966 4.13 2.34.199 3.311.49 3.425.526.177.056.335.16.456.3.069.082 1.718 2.02 2.14 4.837.053.353-.086.706-.364.929zm-2.625.22c0-.154-.005-.298-.007-.448-1.473-.258-4.023-.552-7.992-.552s-6.517.294-7.992.552c-.002.15-.007.294-.007.448 0 3.03.476 5.232.714 6.146.441.129 1.206.322 2.285.492v-.639c0-3.411 1.589-4.999 4.999-4.999s4.999 1.589 4.999 4.999v.639c1.079-.17 1.843-.363 2.285-.492.239-.914.715-3.116.715-6.146zm.617-2.368c-.364-.984-.848-1.723-1.105-2.079-.482-.106-1.606-.311-3.583-.437-.578-.034-1.004-.564-.929-1.136 0-2.278-.701-2.979-3-2.979s-3 .701-3 3c.067.564-.36 1.082-.929 1.115-1.976.127-3.1.331-3.582.437-.257.354-.741 1.094-1.105 2.079 1.572-.296 4.308-.632 8.616-.632s7.044.336 8.616.632z"/></svg>