<svg id="Layer_1" viewBox="0 0 24 24" xmlns="http://www.w3.org/2000/svg" data-name="Layer 1"><path d="m22.352 16.858-1.162.332-.332 1.162c-.247.863-1.47.863-1.717 0l-.332-1.162-1.162-.332c-.863-.247-.863-1.47 0-1.717l1.162-.332.332-1.162c.247-.863 1.47-.863 1.717 0l.332 1.162 1.162.332c.863.247.863 1.47 0 1.717zm-18.137-11.398.277-.968.968-.277c.72-.206.72-1.225 0-1.431l-.968-.277-.277-.968c-.206-.719-1.225-.719-1.431 0l-.277.968-.968.277c-.72.206-.72 1.225 0 1.431l.968.277.277.968c.206.72 1.225.72 1.431 0zm14.924 15.549c-.147-.021-3.652-.51-7.14-.51s-6.992.489-7.14.51c-.547.077-.928.583-.851 1.13s.581.927 1.13.851c.035-.005 3.518-.49 6.86-.49s6.825.485 6.86.49c.535.079 1.055-.302 1.13-.851.077-.547-.304-1.053-.851-1.13zm-3-9.714c-.085-.012-2.117-.296-4.14-.296s-4.054.284-4.14.296c-.546.077-.927.583-.85 1.13.078.548.585.932 1.13.851.02-.003 1.982-.276 3.86-.276s3.841.273 3.86.276c.535.079 1.055-.301 1.13-.851.077-.547-.304-1.053-.851-1.13zm-9.141-2.938c.195-.002 2.491-.355 5.001-.357 2.366 0 4.836.344 4.86.348.549.078 1.053-.305 1.13-.851.077-.547-.304-1.053-.851-1.13-.106-.015-2.63-.367-5.14-.367s-5.034.353-5.14.367c-.547.077-.928.583-.851 1.13.071.5.499.86.989.86zm3.14-5.225c.009 0 .959-.133 1.861-.133s1.852.132 1.861.133c.535.079 1.054-.302 1.129-.852.076-.546-.304-1.052-.851-1.129-.044-.006-1.094-.152-2.14-.152s-2.095.146-2.14.152c-.546.077-.927.583-.851 1.129.077.547.584.929 1.129.852z"/></svg>