<svg id="Layer_1" viewBox="0 0 24 24" xmlns="http://www.w3.org/2000/svg" data-name="Layer 1"><path d="m22.352 4.858-1.162.332-.332 1.162c-.247.863-1.47.863-1.717 0l-.332-1.162-1.162-.332c-.863-.247-.863-1.47 0-1.717l1.162-.332.332-1.162c.247-.863 1.47-.863 1.717 0l.332 1.162 1.162.332c.863.247.863 1.47 0 1.717zm-18.137 2.602.277-.968.968-.277c.72-.206.72-1.225 0-1.431l-.968-.277-.277-.968c-.206-.719-1.225-.719-1.431 0l-.277.968-.968.277c-.72.206-.72 1.225 0 1.431l.968.277.277.968c.206.72 1.225.72 1.431 0zm15.775 14.679c-.07.5-.499.86-.989.86-.196-.007-3.521-.495-7.001-.5-3.343 0-6.825.485-6.86.49-.547.081-1.053-.304-1.13-.851s.304-1.053.851-1.13c.104-.015 1.88-.262 4.14-.406v-4.958c-.328-.118-.581-.391-.648-.74-.015-.074-.352-1.833-.352-3.905 0-.444.017-.868.042-1.27-1.273 1.352-2.182 2.782-2.195 2.803-.297.471-.919.605-1.379.313-.468-.294-.608-.911-.314-1.378.085-.136 2.117-3.341 4.625-5.014.118-.058.233-.129.371-.151.093-.018 1.582-.303 2.851-.303s2.758.285 2.851.303c.137.021.252.093.371.151 2.508 1.673 4.54 4.878 4.625 5.014.294.467.153 1.084-.314 1.378-.46.292-1.082.157-1.379-.313-.013-.021-.922-1.451-2.195-2.803.024.402.042.826.042 1.27 0 2.072-.337 3.831-.352 3.905-.067.35-.32.622-.648.74v4.958c2.26.145 4.036.391 4.14.406.547.077.928.583.851 1.13zm-7.99-14.139c-.603 0-1.294.082-1.793.154-.092.652-.207 1.705-.207 2.846s.115 2.195.206 2.846c.499.073 1.191.154 1.794.154s1.294-.082 1.793-.154c.092-.652.207-1.705.207-2.846s-.115-2.195-.206-2.846c-.499-.073-1.191-.154-1.794-.154zm0 12.5c.334 0 .668.006 1 .014v-4.562c-.33.029-.672.048-1 .048s-.67-.019-1-.048v4.562c.332-.008.666-.014 1-.014zm0-15.499c1.127-.007 1.972-.487 2-2-.025-1.453-.877-1.993-2-2-1.127.007-1.974.516-2 2 .028 1.509.877 1.993 2 2z"/></svg>