<svg id="Layer_1" viewBox="0 0 24 24" xmlns="http://www.w3.org/2000/svg" data-name="Layer 1"><path d="m15 13c0 2.966-2.302 4.726-2.4 4.8-.438.329-1.067.245-1.4-.2-.331-.44-.243-1.064.196-1.396.03-.023 1.076-.851 1.462-2.203h-2.858c-.552 0-1-.447-1-1 0-2.966 2.302-4.726 2.4-4.8.443-.331 1.069-.242 1.4.2.332.441.242 1.068-.2 1.399-.01.008-1.069.837-1.458 2.2h2.858c.553 0 1 .447 1 1zm6.963 9.266c-.146.531-.696.844-1.229.697-.035-.01-3.553-.964-8.733-.964s-8.698.954-8.733.964c-.518.147-1.085-.16-1.23-.697-.147-.532.164-1.082.696-1.23.04-.011.322-.087.808-.193-.166-1.019-.54-3.665-.54-6.843.085-3.521.253-5.466.453-7.084-.117.029-.182.046-.187.048-.53.146-1.082-.164-1.23-.697-.147-.532.164-1.082.696-1.23.045-.012.405-.11 1.022-.239.065-.427.131-.965.198-1.439.061-.435.399-.779.833-.848.274-.044.706-.11 1.214-.182v-.329c0-.553.448-1 1-1 .586-.003 1.04.503 1 1.084.318-.032.633-.061.931-.082.561-.044 1.081.432 1.069.998v1.045c.635-.028 1.302-.045 2-.045s1.365.016 2 .045v-1.045c-.012-.569.505-1.037 1.068-.998.298.021.614.05.932.082-.041-.581.413-1.087 1-1.084.553 0 1 .447 1 1v.329c.508.071.94.138 1.214.182.435.068.772.413.834.848.066.473.133 1.012.198 1.439.617.129.977.227 1.022.239.532.148.843.698.695 1.23-.145.537-.712.844-1.229.697-.005-.001-.07-.019-.187-.048.2 1.616.369 3.555.453 7.059 0 3.197-.374 5.847-.54 6.867.485.106.768.182.807.193.532.148.843.698.695 1.23zm-9.963-2.266c2.663 0 4.887.235 6.492.482.156-.978.508-3.51.508-6.482-.094-3.912-.288-5.789-.524-7.492-1.539-.249-3.778-.508-6.476-.508s-4.937.259-6.476.508c-.236 1.705-.43 3.585-.525 7.516 0 2.953.353 5.48.509 6.457 1.605-.246 3.829-.482 6.491-.482z"/></svg>