<svg id="Layer_1" viewBox="0 0 24 24" xmlns="http://www.w3.org/2000/svg" data-name="Layer 1"><path d="m22.352 4.858-1.162.332-.332 1.162c-.247.863-1.47.863-1.717 0l-.332-1.162-1.162-.332c-.863-.247-.863-1.47 0-1.717l1.162-.332.332-1.162c.247-.863 1.47-.863 1.717 0l.332 1.162 1.162.332c.863.247.863 1.47 0 1.717zm-18.137 13.602.277-.968.968-.277c.72-.206.72-1.225 0-1.431l-.968-.277-.277-.968c-.206-.719-1.225-.719-1.431 0l-.277.968-.968.277c-.72.206-.72 1.225 0 1.431l.968.277.277.968c.206.72 1.225.72 1.431 0zm14.924 2.549c-.147-.021-3.652-.51-7.14-.51s-6.992.489-7.14.51c-.547.077-.928.583-.851 1.13s.583.934 1.13.851c.035-.005 3.518-.49 6.86-.49s6.825.485 6.86.49c.535.079 1.055-.302 1.13-.851.077-.547-.304-1.053-.851-1.13zm-11-7.733c.02-.003 1.982-.276 3.86-.276s3.841.273 3.86.276c.535.079 1.055-.301 1.13-.851.077-.547-.304-1.053-.851-1.13-.085-.012-2.117-.296-4.14-.296s-4.055.284-4.14.296c-.547.077-.928.583-.851 1.13s.583.929 1.13.851zm1.999-10.144c.01 0 .96-.133 1.861-.133 1.073.005 1.775.138 2.001.143.49 0 .919-.361.989-.861.076-.547-.304-1.052-.851-1.129-.044-.006-1.095-.152-2.14-.152s-2.096.146-2.14.152c-.547.077-.927.582-.851 1.129.077.547.585.932 1.129.852z"/></svg>