<svg id="Layer_1" viewBox="0 0 24 24" xmlns="http://www.w3.org/2000/svg" data-name="Layer 1"><path d="m3.141 6.352-.332-1.162-1.162-.332c-.863-.247-.863-1.47 0-1.717l1.162-.332.332-1.162c.247-.863 1.47-.863 1.717 0l.332 1.162 1.162.332c.863.247.863 1.47 0 1.717l-1.162.332-.332 1.162c-.247.863-1.47.863-1.717 0zm19.319 9.432-.968-.277-.277-.968c-.206-.719-1.225-.719-1.431 0l-.277.968-.968.277c-.72.206-.72 1.225 0 1.431l.968.277.277.968c.206.72 1.225.72 1.431 0l.277-.968.968-.277c.72-.206.72-1.225 0-1.431zm-3.321 5.225c-.147-.021-3.652-.51-7.14-.51s-6.992.489-7.14.51c-.547.077-.928.583-.851 1.13s.579.929 1.13.851c.035-.005 3.518-.49 6.86-.49s6.826.485 6.86.49c.536.079 1.055-.302 1.13-.851.077-.547-.304-1.053-.851-1.13zm-2.149-8.584c.077-.547-.304-1.053-.85-1.13-.086-.012-2.118-.296-4.14-.296s-4.054.284-4.14.296c-.546.077-.927.583-.85 1.13.078.547.581.928 1.13.851.02-.003 1.982-.276 3.86-.276s3.841.273 3.86.276c.535.079 1.055-.302 1.13-.851zm-10.13-6.058c-.547.077-.928.583-.851 1.13.078.547.581.928 1.13.851.025-.004 2.494-.348 4.86-.348s4.835.344 4.86.348c.536.079 1.055-.301 1.13-.851.077-.547-.304-1.053-.851-1.13-.106-.015-2.629-.367-5.14-.367s-5.034.353-5.14.367zm8.263 9.856c-.065-.009-1.606-.224-3.14-.224s-3.075.215-3.14.224c-.546.077-.927.583-.851 1.13.077.546.587.926 1.129.851.015-.002 1.471-.204 2.861-.204s2.846.202 2.861.204c.535.079 1.055-.302 1.129-.851.077-.547-.304-1.053-.851-1.13zm-3.123-11.223c1.127-.007 1.972-.487 2-2-.025-1.453-.877-1.993-2-2-1.127.007-1.973.516-2 2 .028 1.509.877 1.993 2 2z"/></svg>