<svg id="Layer_1" viewBox="0 0 24 24" xmlns="http://www.w3.org/2000/svg" data-name="Layer 1"><path d="m14.219 5.601c-.267-.356-.267-.845 0-1.201.911-1.214 1.988-2.29 3.2-3.199.443-.33 1.07-.241 1.4.2.332.441.242 1.068-.2 1.399-.494.371-.962.774-1.402 1.205 2.702.051 4.461.471 4.539.49.337.082.607.332.714.662.018.054.434 1.354.529 3.804.022.552-.408 1.017-.96 1.038-.013 0-.026 0-.04 0-.534 0-.978-.422-.999-.961-.05-1.273-.193-2.184-.301-2.715-.675-.117-1.899-.286-3.472-.318.437.428.902.827 1.392 1.194.442.331.531.958.2 1.399-.196.263-.497.4-.801.4-.208 0-.419-.065-.599-.2-1.212-.909-2.289-1.985-3.2-3.199zm-7.619 9.599c-.442-.331-1.068-.241-1.4.2-.331.441-.241 1.068.201 1.399.49.367.955.766 1.392 1.194-1.579-.033-2.807-.203-3.481-.319-.113-.528-.262-1.438-.312-2.714-.021-.553-.497-.989-1.038-.96-.552.021-.982.486-.96 1.038.096 2.458.534 3.764.553 3.817.111.323.378.567.71.648.078.019 1.837.439 4.539.49-.44.432-.908.835-1.403 1.205-.442.331-.532.958-.201 1.399.197.263.497.4.801.4.208 0 .419-.065.599-.2 1.212-.908 2.289-1.984 3.2-3.199.267-.356.267-.845 0-1.201-.912-1.215-1.988-2.291-3.2-3.199zm5.4-8.7c0 3.752-1.748 5.5-5.5 5.5s-5.5-1.748-5.5-5.5 1.748-5.5 5.5-5.5 5.5 1.748 5.5 5.5zm-2 0c0-2.649-.851-3.5-3.5-3.5s-3.5.851-3.5 3.5.851 3.5 3.5 3.5 3.5-.851 3.5-3.5zm13 11c0 2.085-.454 4.177-.474 4.265-.083.381-.381.678-.762.762-.088.02-2.18.474-4.264.474s-4.176-.454-4.264-.474c-.381-.084-.679-.381-.762-.762-.02-.088-.474-2.18-.474-4.265s.454-4.177.474-4.265c.083-.381.381-.678.762-.762.088-.02 2.18-.474 4.264-.474s4.176.454 4.264.474c.381.084.679.381.762.762.02.088.474 2.18.474 4.265zm-2 0c0-1.212-.179-2.464-.305-3.194-.731-.127-1.982-.306-3.195-.306s-2.463.179-3.195.306c-.126.73-.305 1.982-.305 3.194s.179 2.464.305 3.194c.731.127 1.982.306 3.195.306s2.463-.179 3.195-.306c.126-.73.305-1.982.305-3.194z"/></svg>