<svg id="Layer_1" viewBox="0 0 24 24" xmlns="http://www.w3.org/2000/svg" data-name="Layer 1"><path d="m10 18c-.553 0-1-.448-1-1v-3.758l2 2v1.758c0 .552-.447 1-1 1zm5.844 2.707c-1.232.195-2.525.293-3.844.293-3.025 0-5.221-.528-6.125-.792-.275-1.029-.875-3.782-.875-8.208 0-1.086.021-2.072.057-2.959.022-.552-.406-1.018-.958-1.04-.513-.004-1.017.405-1.04.958-.038.911-.059 1.925-.059 3.041 0 6.102 1.078 9.206 1.124 9.335.099.278.315.498.591.602.116.043 2.887 1.063 7.285 1.063 1.422 0 2.82-.107 4.156-.318.545-.086.918-.598.831-1.144-.085-.545-.597-.916-1.144-.832zm6.863 2c-.391.391-1.023.391-1.414 0l-20-20c-.391-.391-.391-1.023 0-1.414s1.023-.391 1.414 0l2.565 2.565c.545-.139 1.168-.278 1.857-.404.306-1.133.637-1.635.738-1.767.145-.189.352-.32.584-.37.061-.013 1.498-.317 3.549-.317s3.52.303 3.581.315c.235.049.445.181.591.373.101.132.432.635.738 1.771 2.648.489 4.37 1.199 4.479 1.245.508.214.746.799.533 1.308-.188.444-.687.717-1.138.57.142 1.505.216 3.347.216 5.419 0 3.193-.302 5.553-.568 7.018l2.275 2.275c.391.391.391 1.023 0 1.414zm-3.707-10.707c0-3.004-.155-4.929-.299-6.078-1.533-.422-3.87-.904-6.57-.919-1.905-.015-3.781.232-5.189.525l6.058 6.058v-2.586c0-.552.447-1 1-1s1 .448 1 1v4.586l3.68 3.68c.174-1.335.32-3.09.32-5.266z"/></svg>