<svg id="Layer_1" viewBox="0 0 24 24" xmlns="http://www.w3.org/2000/svg" data-name="Layer 1"><path d="m16 17c0 .552-.447 1-1 1s-1-.448-1-1c0-3.955-2.878-4-3-4h-.782c.436.426.892.833 1.382 1.2.441.332.53.958.199 1.4-.334.444-.962.529-1.4.2-1.215-.912-2.291-1.988-3.199-3.2-.107-.18-.201-.38-.199-.594-.006-.217.09-.422.199-.605.908-1.212 1.984-2.289 3.199-3.2.443-.332 1.069-.242 1.4.2.331.441.242 1.068-.199 1.4-.49.368-.946.774-1.382 1.2h.782c1.729 0 5 1.254 5 6zm5.922-10.988c-.188.444-.686.717-1.137.57.141 1.503.215 3.345.215 5.418 0 6.102-1.078 9.206-1.124 9.335-.099.278-.315.498-.591.602-.116.043-2.888 1.063-7.285 1.063s-7.169-1.02-7.285-1.063c-.275-.104-.492-.324-.591-.602-.046-.129-1.124-3.233-1.124-9.335 0-2.074.074-3.916.215-5.419-.462.103-.946-.116-1.137-.569-.213-.509.025-1.094.533-1.308.109-.046 1.848-.763 4.518-1.252.306-1.131.636-1.632.737-1.764.145-.189.353-.321.585-.371.061-.013 1.499-.317 3.549-.317s3.52.303 3.581.315c.235.049.444.181.59.371.101.132.433.636.739 1.772 2.648.489 4.37 1.199 4.479 1.245.508.214.746.799.533 1.308zm-2.922 5.988c0-2.435-.104-4.522-.299-6.078-1.533-.422-3.87-.904-6.57-.919-2.682-.026-5.287.484-6.832.919-.195 1.556-.299 3.643-.299 6.078 0 4.427.6 7.18.875 8.208.904.263 3.101.792 6.125.792s5.219-.528 6.125-.792c.274-1.027.875-3.78.875-8.208z"/></svg>