<svg id="Layer_1" viewBox="0 0 24 24" xmlns="http://www.w3.org/2000/svg" data-name="Layer 1"><path d="m16 13c0 .552-.447 1-1 1h-2v2c0 .552-.448 1-1 1s-1-.448-1-1v-2h-2c-.552 0-1-.448-1-1s.448-1 1-1h2v-2c0-.552.448-1 1-1s1 .448 1 1v2h2c.553 0 1 .448 1 1zm5.922-6.988c-.169.397-.591.667-1.002.597-.075 1.449-.198 2.953-.406 4.528-.85 6.431-2.303 9.898-2.586 10.527-.112.25-.321.442-.579.533-.532.188-2.491.803-5.349.803s-4.816-.614-5.349-.803c-.257-.091-.466-.283-.578-.532-.283-.627-1.735-4.079-2.586-10.529-.208-1.572-.331-3.077-.406-4.529-.419.034-.831-.188-1.002-.596-.214-.509.024-1.094.533-1.308.108-.046 1.847-.763 4.518-1.252.306-1.131.637-1.633.737-1.765.145-.189.352-.32.584-.37.061-.013 1.499-.317 3.549-.317s3.52.303 3.581.315c.235.049.445.181.591.373.101.132.432.635.738 1.771 2.648.489 4.37 1.199 4.479 1.245.508.214.746.799.533 1.308zm-3.391 4.863c.225-1.708.358-3.338.42-4.882-1.522-.437-3.965-.974-6.821-.991-2.826-.029-5.557.542-7.083.991.063 1.547.196 3.177.421 4.881.701 5.306 1.797 8.426 2.257 9.567.743.217 2.233.558 4.274.558s3.531-.34 4.274-.558c.461-1.145 1.559-4.275 2.258-9.567z"/></svg>