<svg id="Layer_1" viewBox="0 0 24 24" xmlns="http://www.w3.org/2000/svg" data-name="Layer 1"><path d="m16 13c0 .552-.447 1-1 1h-2v2c0 .552-.448 1-1 1s-1-.448-1-1v-2h-2c-.552 0-1-.448-1-1s.448-1 1-1h2v-2c0-.552.448-1 1-1s1 .448 1 1v2h2c.553 0 1 .448 1 1zm5.922-6.988c-.188.444-.687.717-1.138.57.142 1.505.216 3.347.216 5.419 0 6.103-1.079 9.206-1.125 9.335-.099.277-.315.498-.591.601-.116.043-2.887 1.063-7.285 1.063s-7.168-1.02-7.284-1.063c-.276-.104-.492-.324-.591-.602-.046-.129-1.125-3.232-1.125-9.335 0-2.072.074-3.914.215-5.418-.463.103-.947-.117-1.137-.57-.214-.509.024-1.094.533-1.308.108-.046 1.847-.763 4.518-1.252.306-1.131.637-1.633.737-1.765.145-.189.352-.32.584-.37.061-.013 1.499-.317 3.549-.317s3.52.303 3.581.315c.235.049.445.181.591.373.101.132.432.635.738 1.771 2.648.489 4.37 1.199 4.479 1.245.508.214.746.799.533 1.308zm-2.922 5.988c0-3.004-.155-4.929-.299-6.078-1.533-.422-3.87-.904-6.571-.919-2.682-.026-5.287.484-6.832.92-.144 1.148-.299 3.072-.299 6.078 0 4.427.6 7.18.875 8.208.904.263 3.1.792 6.125.792s5.219-.528 6.125-.792c.275-1.027.876-3.78.876-8.208z"/></svg>