<svg id="Layer_1" viewBox="0 0 24 24" xmlns="http://www.w3.org/2000/svg" data-name="Layer 1"><path d="m17 11c-4.149 0-6 1.851-6 6s1.851 6 6 6 6-1.851 6-6-1.851-6-6-6zm0 10c-3.028 0-4-.972-4-4s.972-4 4-4 4 .972 4 4-.972 4-4 4zm1.707-3.707c.391.391.391 1.023 0 1.414s-1.023.391-1.414 0l-1-1c-.188-.188-.293-.442-.293-.707v-2c0-.552.448-1 1-1s1 .448 1 1v1.586zm-8.713 4.816c-.058.551-.564.947-1.103.885-1.688-.185-2.829-.544-3.241-.689-.257-.091-.466-.283-.578-.532-.171-.38-1.697-3.902-2.586-10.636-.208-1.572-.331-3.077-.406-4.529-.419.034-.83-.188-1.002-.596-.214-.509.024-1.094.533-1.308.108-.046 1.847-.763 4.518-1.252.306-1.131.637-1.633.737-1.765.145-.189.352-.32.584-.37.061-.013 1.499-.317 3.549-.317s3.52.303 3.582.315c.235.049.444.181.59.372.101.132.433.636.739 1.772 2.648.489 4.37 1.199 4.478 1.245.509.214.747.8.533 1.309-.167.392-.579.657-.986.6-.024.466-.055.951-.096 1.468-.042.551-.534.963-1.077.917-.55-.044-.961-.526-.917-1.077.056-.693.089-1.325.114-1.924-1.521-.438-3.968-.977-6.83-.993-2.827-.029-5.557.542-7.083.991.063 1.547.196 3.177.421 4.881.708 5.361 1.838 8.595 2.262 9.675.479.139 1.298.338 2.379.456.549.06.945.554.885 1.103z"/></svg>