<svg id="Layer_1" viewBox="0 0 24 24" xmlns="http://www.w3.org/2000/svg" data-name="Layer 1"><path d="m21.5 12c0-1.871-1.291-3.446-3.029-3.881.02-.206.029-.412.029-.619 0-3.584-2.916-6.5-6.5-6.5s-6.5 2.916-6.5 6.5c0 .207.01.414.029.619-1.738.435-3.029 2.01-3.029 3.881 0 2.399 1.506 5.238 8.5 5.483v4.517c0 .552.448 1 1 1s1-.448 1-1v-4.517c6.994-.245 8.5-3.084 8.5-5.483zm-8.5 3.483v-1.398c.642-.414 1.801-1.254 2.776-2.455.348-.429.283-1.059-.146-1.407s-1.058-.282-1.407.146c-.39.481-.823.895-1.224 1.232v-2.101c0-.552-.448-1-1-1s-1 .448-1 1v2.087c-.405-.333-.837-.741-1.224-1.218-.348-.428-.977-.494-1.407-.146-.429.348-.494.978-.146 1.407.946 1.165 2.098 1.99 2.776 2.419v1.433c-4.314-.152-6.5-1.322-6.5-3.483 0-1.103.897-2 2-2h.207c.313 0 .608-.147.797-.396.189-.25.25-.574.165-.875-.112-.398-.169-.811-.169-1.228 0-2.481 2.019-4.5 4.5-4.5s4.5 2.019 4.5 4.5c0 .417-.057.83-.169 1.228-.085.302-.024.625.165.875s.484.396.797.396h.207c1.103 0 2 .897 2 2 0 2.161-2.186 3.331-6.5 3.483z"/></svg>