<svg id="Layer_1" viewBox="0 0 24 24" xmlns="http://www.w3.org/2000/svg" data-name="Layer 1"><path d="m22.311 21.861c-.143.047-3.562 1.139-10.311 1.139s-10.168-1.092-10.311-1.139c-.485-.158-.773-.657-.668-1.157.031-.144.785-3.597 4.176-9.321 2.714-4.583 4.958-6.987 5.803-7.814v-1.569c0-.553.448-1 1-1s1 .447 1 1v1.569c.4.392 1.11 1.133 2.047 2.307.345.432.274 1.061-.157 1.405-.433.345-1.061.273-1.405-.157-.613-.768-1.117-1.332-1.484-1.719-.955 1.008-2.848 3.225-5.083 6.997-2.214 3.737-3.247 6.46-3.676 7.794 1.388.307 4.321.804 8.758.804s7.369-.496 8.758-.804c-.385-1.2-1.261-3.528-3.048-6.706-.271-.481-.1-1.091.382-1.362.481-.271 1.092-.1 1.362.382 2.841 5.054 3.498 8.069 3.524 8.194.105.5-.183.999-.668 1.157zm-8.721-9.742 6.583-9.681c.311-.456.934-.575 1.39-.265.456.311.575.933.265 1.39l-6.508 9.571c.444.574.681 1.355.681 2.367 0 2.322-1.178 3.5-3.5 3.5s-3.5-1.178-3.5-3.5 1.178-3.5 3.5-3.5c.402 0 .757.048 1.09.119zm.41 3.381c0-1.321-.407-1.502-1.5-1.5-1.233 0-1.5.267-1.5 1.5s.267 1.5 1.5 1.5 1.5-.267 1.5-1.5z"/></svg>