<svg id="Layer_1" viewBox="0 0 24 24" xmlns="http://www.w3.org/2000/svg" data-name="Layer 1"><path d="m10.118 7.214c-.363-.285-.873-.285-1.236 0-.397.312-2.382 1.964-2.382 3.786 0 1.991 1.01 3 3 3s3-1.009 3-3c0-1.822-1.984-3.474-2.382-3.786zm-.618 4.786c-.879 0-1-.122-1-1 0-.452.485-1.116 1-1.648.521.541 1 1.209 1 1.648 0 .878-.121 1-1 1zm12.919-3.729c-.095-.369-.391-.652-.764-.731-.083-.017-1.835-.38-3.869-.504-.222-1.943-.539-3.407-.56-3.5-.083-.381-.381-.679-.762-.762-.145-.032-3.562-.773-6.965-.773s-6.82.742-6.965.773c-.381.083-.679.381-.762.762-.032.144-.773 3.562-.773 6.964 0 3.113.665 6.463.799 7.103.084.406.41.717.819.783.26.042.729.111 1.382.188v.426c0 1.654 1.346 3 3 3s3-1.346 3-3v-.025c.633.015 1.298.025 2 .025s1.368-.009 2-.024v.024c0 1.654 1.346 3 3 3s3-1.346 3-3v-.422c.863-.101 1.425-.191 1.644-.229.402-.069.741-.464.827-.863.131-.605.529-2.448.529-4.486 0-2.432-.558-4.637-.581-4.729zm-4.46.781c1.075.08 2.053.227 2.657.33.118.59.279 1.549.349 2.619h-3.013c.028-.494.048-.996.048-1.5 0-.486-.015-.972-.041-1.449zm-10.959 10.948c-.659.006-1.081-.606-1-1.229.599.048 1.266.093 2 .13 0 .74-.448 1.099-1 1.099zm5-3c-4.113 0-6.998-.303-8.377-.488-.228-1.228-.623-3.7-.623-6.012 0-2.351.394-4.779.602-5.899 1.119-.208 3.543-.601 5.898-.601s4.778.393 5.899.601c.208 1.121.601 3.548.601 5.899 0 2.864-.584 5.843-.705 6.432-.991.042-2.093.068-3.295.068zm6 2c0 .551-.448 1-1 1-.592.003-1.046-.514-1-1.098.731-.037 1.401-.081 2-.128v.227zm2.636-2.52c-.66.091-1.772.225-3.278.334.116-.617.287-1.627.424-2.814h3.185c-.065.976-.209 1.856-.33 2.48z"/></svg>