<svg id="Layer_1" viewBox="0 0 24 24" xmlns="http://www.w3.org/2000/svg" data-name="Layer 1"><path d="m18.781 5.875c-.137-.171-.326-.292-.538-.346-2.096-.524-4.156-.53-4.243-.53-.552 0-1 .448-1 1v3.407c-3.306-4.875-7.178-8.028-7.372-8.184-.301-.242-.711-.29-1.06-.124-.347.167-.568.517-.568.902v4c0 .878-.122 1-1 1-.287 0-.512-.028-.67-.083-.521-.182-1.091.093-1.274.614s.092 1.092.614 1.274c.376.131.811.195 1.33.195 1.991 0 3-1.009 3-3v-1.754c1.638 1.574 4.211 4.32 6.285 7.756-.096 0-.188-.002-.285-.002-6.022 0-9.499.631-9.644.658-.256.047-.483.192-.633.405-.074.104-.723 1.072-.723 2.938s.649 2.833.723 2.938c.15.212.377.357.633.405.056.01.624.113 1.644.233v.424c0 1.654 1.346 3 3 3s3-1.346 3-3v-.024c.632.015 1.297.024 2 .024s1.368-.009 2-.024v.024c0 1.654 1.346 3 3 3s3-1.346 3-3v-.424c1.02-.121 1.587-.223 1.644-.233.256-.047.483-.192.633-.405.074-.104.723-1.072.723-2.938 0-3.333-2.187-7.584-4.219-10.125zm-3.781 1.171c.645.048 1.528.146 2.429.346 1.072 1.401 2.119 3.244 2.801 5.06-1.122-.139-2.889-.311-5.23-.397zm-7 12.954c0 .551-.449 1-1 1s-1-.449-1-1v-.229c.6.048 1.263.094 2 .131zm10 0c0 .551-.449 1-1 1-.591.003-1.046-.514-1-1.098.737-.037 1.4-.083 2-.131zm2.785-2.546c-1.145.167-4.233.546-8.785.546s-7.638-.378-8.784-.546c-.101-.293-.216-.775-.216-1.454s.116-1.165.215-1.454c1.145-.167 4.233-.546 8.785-.546 4.629 0 7.737.39 8.834.554.097.502.166.993.166 1.446 0 .682-.116 1.165-.215 1.454z"/></svg>