<svg id="Layer_1" viewBox="0 0 24 24" xmlns="http://www.w3.org/2000/svg" data-name="Layer 1"><path d="m23 12s-.001-.004-.001-.006c-.006-1.719-.233-3.692-.424-5.055-.187-1.33-1.245-2.381-2.574-2.556-1.151-.151-2.852-.341-4.416-.384-.634-.023-1.105.548-1.017 1.146.188 1.272.432 4.582.432 6.353 0 2.3-.357 4.383-.581 5.464-.752.022-1.56.036-2.419.036-5.546 0-9.669-.652-9.842-.68-.589-.11-1.171.391-1.158.987v1.692c0 1.654 1.346 3 3 3 .771 0 1.468-.301 2-.78.532.48 1.229.78 2 .78 1.654 0 3-1.346 3-3v-.009c1.321.046 2.793-.045 4-.02v.029c0 1.654 1.346 3 3 3s3-1.346 3-3v-.552c.341-.048.566-.085.645-.099.404-.07.725-.38.809-.781.054-.234.561-2.836.546-5.568zm-19 8c-.552 0-1-.448-1-1v-.545c.518.065 1.193.142 2 .218v.327c0 .552-.448 1-1 1zm5-1c0 .552-.448 1-1 1-.626.005-1.067-.562-1-1.168.623.041 1.297.076 2 .105zm11.62-2.517c-.784.108-2.194.275-4.142.39.18-.949.389-2.315.478-3.873h4.024c-.058 1.462-.234 2.737-.359 3.483zm-.88-10.117c.44.059.792.408.854.852.145 1.038.309 2.44.374 3.782h-3.974c-.027-1.463-.163-3.496-.306-4.944 1.122.075 2.231.203 3.052.311zm-.74 12.634c0 .552-.448 1-1 1-.621.004-1-.5-1-1.158.749-.049 1.421-.104 2-.16v.317z"/></svg>