<svg id="Layer_1" viewBox="0 0 24 24" xmlns="http://www.w3.org/2000/svg" data-name="Layer 1"><path d="m9.941 17.702c-.186.525-.773.788-1.279.604-1.66-.597-3.145-1.439-4.077-2.306h-2.585c-.553 0-1-.447-1-1s.447-1 1-1h3c.282 0 .551.119.74.328.657.724 2.069 1.546 3.598 2.095.52.187.79.76.604 1.279zm13.059-.202c0 3.752-1.748 5.5-5.5 5.5s-5.5-1.748-5.5-5.5 1.748-5.5 5.5-5.5 5.5 1.748 5.5 5.5zm-2 0c0-2.649-.851-3.5-3.5-3.5s-3.5.851-3.5 3.5.851 3.5 3.5 3.5 3.5-.851 3.5-3.5zm-2.767-1.247c-.339.405-.71.784-1.108 1.133-.146-.127-.287-.259-.425-.394-.394-.388-1.028-.381-1.414.014-.387.395-.381 1.027.014 1.414.385.378.797.731 1.226 1.053.178.133.389.199.6.199s.422-.066.6-.2c.752-.563 1.439-1.215 2.042-1.934.354-.424.299-1.055-.124-1.409-.424-.355-1.054-.298-1.409.124zm-3.604-5.862c.445.319 1.072.22 1.396-.231.321-.449.218-1.074-.231-1.396-.131-.094-.392-.306-.674-.542.205-.173.396-.339.553-.481.408-.371.438-1.004.067-1.413-.371-.408-1.002-.438-1.413-.067-.955.868-2.796 2.31-3.97 2.741-.217.039-.598.018-1.016-.4-.243-.243-.342-.513-.342-.923.01-.12.192-.551.734-1.162.624-.794 1.042-1.243 1.789-1.921 1.244-1.129 2.271-1.603 3.467-1.595 1.252.013 3.065.949 5.39 2.785.177.139.396.215.62.215h1c.553 0 1-.447 1-1s-.447-1-1-1h-.655c-2.622-2.028-4.641-2.983-6.335-3h-.057c-1.158 0-2.141.339-2.962.79-.95-.52-1.917-.79-2.943-.79h-.058c-1.694.017-3.713.972-6.335 3h-.655c-.553 0-1 .447-1 1s.447 1 1 1h1c.225 0 .443-.076.62-.215 2.324-1.836 4.138-2.772 5.39-2.785.384-.004.755.054 1.121.159-.8.73-1.287 1.254-1.929 2.073-.448.504-1.201 1.49-1.201 2.438-.083 1.795 1.516 3.355 3.194 3.347 1.242-.039 2.191-.811 3.311-1.541.382.325.869.732 1.124.914z"/></svg>