<svg id="Layer_1" viewBox="0 0 24 24" xmlns="http://www.w3.org/2000/svg" data-name="Layer 1"><path d="m21 2c0-.552.448-1 1-1s1 .448 1 1-.448 1-1 1-1-.448-1-1zm-3 1c.552 0 1-.448 1-1s-.448-1-1-1-1 .448-1 1 .448 1 1 1zm-4 0c.552 0 1-.448 1-1s-.448-1-1-1-1 .448-1 1 .448 1 1 1zm8 2c-.552 0-1 .448-1 1s.448 1 1 1 1-.448 1-1-.448-1-1-1zm1 12.25c0 2.827-2.432 5.75-6.5 5.75-2.373 0-7.041-2.127-10.207-5.293s-5.293-7.834-5.293-10.207c0-4.069 2.924-6.5 5.75-6.5 2.619 0 4.75 2.131 4.75 4.75 0 1.318-.555 2.588-1.521 3.484-.071.066-.15.138-.235.214.259.631 1.085 1.966 1.964 2.845s2.214 1.705 2.845 1.964c.076-.085.148-.164.214-.236.897-.967 2.167-1.521 3.484-1.521 2.619 0 4.75 2.131 4.75 4.75zm-2 0c0-1.517-1.233-2.75-2.75-2.75-.774 0-1.49.312-2.017.88-.139.15-.305.338-.478.537-.223.257-.548.406-.916.418-1.26.04-3.58-1.662-4.547-2.629s-2.673-3.314-2.629-4.547c.013-.368.161-.692.418-.915.2-.173.386-.337.534-.475.571-.529.884-1.245.884-2.02 0-1.517-1.233-2.75-2.75-2.75-1.45 0-3.75 1.222-3.75 4.5 0 1.706 1.791 5.876 4.707 8.793s7.087 4.707 8.793 4.707c3.278 0 4.5-2.3 4.5-3.75zm-7-10.25h4c.553 0 1-.448 1-1s-.447-1-1-1h-4c-.553 0-1 .448-1 1s.447 1 1 1z"/></svg>