<svg id="Layer_1" viewBox="0 0 24 24" xmlns="http://www.w3.org/2000/svg" data-name="Layer 1"><path d="m9.704 1.045c-.015.005-1.506.455-3.704.455s-3.689-.45-3.702-.454c-.529-.168-1.088.127-1.253.656-.165.526.129 1.088.656 1.252.016.005.126.038.298.082v8.964c0 3.957.228 6.714.418 8.329.161 1.359 1.203 2.431 2.537 2.604.344.044.696.066 1.045.066s.701-.022 1.047-.067c1.332-.173 2.374-1.244 2.535-2.604.19-1.615.418-4.372.418-8.329v-8.963c.172-.044.282-.077.298-.082.526-.164.819-.723.656-1.25-.163-.526-.725-.821-1.25-.659zm-2.108 19.05c-.052.441-.392.801-.805.854-.471.061-1.112.06-1.579 0-.416-.055-.755-.414-.807-.855-.185-1.562-.404-4.235-.404-8.095v-2h4v2c0 3.859-.22 6.532-.404 8.095zm.404-12.095h-4v-4.614c.584.066 1.25.114 2 .114s1.416-.049 2-.114zm14.954-6.296c-.163-.525-.722-.823-1.25-.659-.015.005-1.506.455-3.704.455s-3.689-.45-3.701-.454c-.531-.167-1.088.128-1.253.655s.129 1.089.655 1.253c.016.005.126.038.299.082v8.964c0 3.957.228 6.714.418 8.329.16 1.359 1.203 2.431 2.536 2.604.345.044.696.066 1.046.066s.701-.022 1.047-.067c1.332-.173 2.375-1.244 2.535-2.604.19-1.615.418-4.372.418-8.329v-8.963c.173-.044.283-.077.299-.082.525-.164.818-.724.655-1.25zm-4.164 19.245c-.471.061-1.11.06-1.579 0-.415-.055-.755-.414-.807-.855-.168-1.422-.363-3.775-.397-7.095h3.986c-.034 3.319-.229 5.673-.397 7.095-.052.441-.392.801-.806.854zm1.21-9.949h-4v-7.614c.584.066 1.25.114 2 .114s1.416-.049 2-.114z"/></svg>