<svg id="Layer_1" viewBox="0 0 24 24" xmlns="http://www.w3.org/2000/svg"><path d="m20.984 12.032c.018.552.466.99 1.032.967.552-.018.985-.479.967-1.032-.131-4.084-.985-7.116-1.022-7.243-.095-.332-.354-.592-.687-.687-.069-.02-.878-.245-2.275-.481v-1.558c0-.552-.448-1-1-1s-1 .448-1 1v1.278c-1.388-.158-3.069-.278-5-.278s-3.612.12-5 .278v-1.278c0-.552-.448-1-1-1s-1 .448-1 1v1.558c-1.397.236-2.206.461-2.275.481-.332.095-.592.354-.687.687-.042.148-1.039 3.688-1.039 8.275s.996 8.126 1.039 8.274c.095.333.355.593.687.688.031.009.779.22 2.104.45.532.095 1.064-.267 1.156-.814.094-.544-.27-1.062-.814-1.156-.573-.1-1.028-.195-1.348-.268-.267-1.134-.823-3.893-.823-7.174 0-1.089.064-2.112.156-3.045.664-.171 3.964-.955 8.844-.955s8.191.787 8.848.956c.064.65.113 1.345.136 2.076zm-8.984-5.032c-4.099 0-7.122.523-8.571.837.142-.872.29-1.567.393-2.009 1.167-.265 4.125-.827 8.178-.827s7.01.562 8.178.827c.104.442.251 1.141.393 2.009-1.449-.314-4.473-.836-8.571-.836zm-.257 9.363c-.125.313-.425.503-.743.503-.447-.04-.3-.131-1.2-.226v5.56c0 .441-.358.8-.8.8s-.8-.358-.8-.8v-5.56c-.594.061-.907.171-.912.172-.41.152-.872-.051-1.03-.459-.158-.409.038-.867.445-1.03.083-.033.851-.323 2.297-.323s2.214.29 2.297.323c.411.164.61.63.446 1.04zm11.257 5.837c0 .441-.358.8-.8.8-1.501 0-2.803-.267-2.857-.278-.32-.066-.567-.32-.625-.643-.01-.057-.251-1.422-.251-3.068s.24-3.03.25-3.088c.057-.322.305-.578.625-.645.055-.012 1.356-.278 2.857-.278.442 0 .8.358.8.8s-.358.8-.8.8c-.78 0-1.512.084-1.986.153-.047.375-.102.916-.13 1.526.359-.031.79-.061 1.248-.073.433-.006.81.336.822.778.012.441-.336.81-.778.821-.477.013-.928.046-1.283.079.029.542.077 1.023.12 1.362.474.069 1.206.153 1.987.153.442 0 .8.358.8.8zm-5.573-6.484c.007.067.173 1.661.173 3.284 0 1.094 0 4-2.6 4s-2.6-2.906-2.6-4c0-1.623.166-3.217.173-3.284.046-.439.438-.763.879-.712.439.047.758.44.712.88-.001.016-.164 1.58-.164 3.116 0 2.4.578 2.4 1 2.4s1 0 1-2.4c0-1.536-.163-3.101-.164-3.116-.046-.439.272-.833.712-.88.435-.052.833.272.879.712z"/></svg>