<svg id="Layer_1" viewBox="0 0 24 24" xmlns="http://www.w3.org/2000/svg" data-name="Layer 1"><path d="m21.937 6.715c-.104-.275-.324-.492-.602-.591-.108-.038-2.304-.796-6.585-1.044.712-.708 1.394-1.535 2.071-2.508.315-.454.204-1.077-.25-1.393-.453-.314-1.076-.203-1.392.25-1.026 1.475-2.053 2.542-3.179 3.348-1.126-.806-2.153-1.872-3.179-3.348-.315-.453-.938-.564-1.392-.25-.454.315-.565.938-.25 1.393.677.974 1.359 1.801 2.071 2.508-4.281.248-6.477 1.006-6.585 1.044-.278.099-.498.315-.602.591-.043.116-1.063 2.888-1.063 7.285s1.02 7.169 1.063 7.285c.104.275.324.492.602.591.129.046 3.233 1.124 9.335 1.124s9.206-1.078 9.335-1.124c.278-.099.498-.315.602-.591.043-.116 1.063-2.888 1.063-7.285s-1.02-7.169-1.063-7.285zm-9.937 14.285c-4.428 0-7.182-.601-8.208-.875-.263-.906-.792-3.101-.792-6.125s.528-5.221.792-6.125c1.029-.275 3.782-.875 8.208-.875s7.182.601 8.208.875c.263.906.792 3.101.792 6.125s-.528 5.219-.792 6.125c-1.029.275-3.782.875-8.208.875zm2.04-11.558c-1.212-.294-2.573-.442-4.045-.442s-2.838.149-4.047.443c-.408.1-.71.443-.757.86-.133 1.187-.201 2.43-.201 3.696s.068 2.513.202 3.698c.047.417.35.761.758.859 1.212.294 2.573.442 4.045.442s2.837-.149 4.046-.443c.408-.1.71-.442.757-.86.133-1.187.201-2.43.201-3.696s-.068-2.513-.202-3.698c-.047-.417-.35-.761-.758-.859zm-1.157 7.316c-.718.13-1.687.242-2.888.242s-2.168-.112-2.887-.242c-.078-.893-.118-1.817-.118-2.758s.039-1.863.117-2.758c.717-.13 1.687-.242 2.888-.242s2.168.112 2.887.242c.078.893.118 1.817.118 2.758s-.04 1.863-.117 2.758zm6.117-5.758c0 .552-.448 1-1 1s-1-.448-1-1 .448-1 1-1 1 .448 1 1zm0 3c0 .552-.448 1-1 1s-1-.448-1-1 .448-1 1-1 1 .448 1 1zm0 3c0 .552-.448 1-1 1s-1-.448-1-1 .448-1 1-1 1 .448 1 1z"/></svg>