<svg id="Layer_1" viewBox="0 0 24 24" xmlns="http://www.w3.org/2000/svg" data-name="Layer 1"><path d="m22.949 21.684c.174.523-.108 1.09-.632 1.265-.51.174-1.091-.103-1.266-.632-.009-.028-.987-2.918-2.883-5.762-.306-.46-.182-1.08.277-1.387s1.08-.183 1.387.277c2.051 3.076 3.074 6.11 3.117 6.238zm-18.781-6.239c-2.051 3.076-3.074 6.11-3.117 6.238-.174.523.108 1.09.632 1.265.51.174 1.091-.103 1.266-.632.009-.028.987-2.918 2.883-5.762.306-.46.182-1.08-.277-1.387-.46-.307-1.081-.183-1.387.277zm7.832-1.445c-6.603 0-11-.787-11-4.626 0-2.961 2.789-3.885 5.193-4.268.548-2.776 2.417-4.106 5.807-4.106s5.259 1.331 5.807 4.106c2.404.383 5.193 1.306 5.193 4.268 0 3.839-4.397 4.626-11 4.626zm-3.981-7.623c.574.255 1.785.623 3.981.623s3.407-.368 3.981-.623c-.136-2.541-1.17-3.377-3.981-3.377s-3.845.836-3.981 3.377zm12.981 2.997c0-.545-.011-1.62-3.054-2.209-.052.23-.159.444-.351.587-.504.375-2.057 1.248-5.595 1.248s-5.091-.873-5.595-1.248c-.193-.144-.299-.358-.351-.587-3.043.589-3.054 1.664-3.054 2.209 0 1.299 1.069 2.626 9 2.626s9-1.327 9-2.626z"/></svg>