<svg id="Layer_1" viewBox="0 0 24 24" xmlns="http://www.w3.org/2000/svg" data-name="Layer 1"><path d="m13 15c0 .552-.448 1-1 1s-1-.448-1-1 .448-1 1-1 1 .448 1 1zm-7-2c-.552 0-1 .448-1 1s.448 1 1 1 1-.448 1-1-.448-1-1-1zm12 0c-.552 0-1 .448-1 1s.448 1 1 1 1-.448 1-1-.448-1-1-1zm5 1c0 4.397-5.287 5-11 5s-11-.603-11-4.971c0-3.127 2.669-4.149 5.033-4.58.168-3.745 2.015-5.449 5.967-5.449s5.798 1.704 5.967 5.449c2.364.431 5.033 1.45 5.033 4.551zm-15-3.653c.5.239 1.694.653 4 .653 2.29 0 3.483-.408 4-.658v-.342c0-3.028-.972-4-4-4s-4 .972-4 4zm13 3.683c0-1.029-.419-2.021-3.199-2.574-.386.478-1.526 1.475-5.801 1.545-4.273-.068-5.417-1.068-5.801-1.545-2.78.553-3.199 1.542-3.199 2.545 0 1.572 1.09 3 9 3s9-1.428 9-2.971z"/></svg>