<svg id="Layer_1" viewBox="0 0 24 24" xmlns="http://www.w3.org/2000/svg" data-name="Layer 1"><path d="m21.707 20.793c-.081-.081-.833-.793-2.207-.793-.63 0-1.249.218-1.743.614l-.265.211c-.281.226-.703.226-.986 0l-.263-.21c-.989-.792-2.499-.792-3.486 0l-.265.211c-.281.226-.703.226-.986 0l-.263-.21c-.344-.275-.751-.455-1.177-.539l2.55-7.676c3.051.842 6.986 1.273 7.169 1.293.036.004.072.006.108.006.426 0 .812-.272.949-.685 1.822-5.484-.208-9.512-5.716-11.342-1.341-.445-2.526-.671-3.522-.671-3.808 0-6.447 2.132-7.844 6.338-.149.447.035.937.439 1.176.159.094 3.569 2.103 6.518 3.255l-2.931 8.822c-.01.008-.02.015-.03.023l-.265.211c-.281.226-.703.226-.986 0l-.263-.21c-.495-.396-1.114-.614-1.744-.614-1.375 0-2.126.712-2.207.793-.38.379-.375.977-.011 1.371.363.395.991.416 1.399.067.011-.009.278-.231.819-.231.177 0 .352.062.494.175l.263.21c.989.792 2.499.792 3.486 0l.265-.211c.281-.226.703-.226.986 0l.263.21c.989.792 2.499.792 3.486 0l.265-.211c.281-.226.703-.226.986 0l.263.21c.495.396 1.114.614 1.744.614s1.249-.218 1.743-.614l.265-.211c.141-.113.315-.175.493-.175.523 0 .79.208.793.208.391.391 1.023.391 1.414 0s.391-1.023 0-1.414zm-10.102-17.793c.77 0 1.77.197 2.892.57 4.203 1.396 5.74 4.029 4.681 8.034-1.497-.194-4.71-.668-6.888-1.392-2.176-.723-5.036-2.267-6.352-3.007 1.15-2.864 2.967-4.205 5.667-4.205z"/></svg>