<svg id="Layer_1" viewBox="0 0 24 24" xmlns="http://www.w3.org/2000/svg" data-name="Layer 1"><path d="m22.443 4.33c-.044-.257-.188-.487-.399-.641-.152-.109-3.792-2.689-10.044-2.689-6.182 0-9.804 2.518-10.032 2.681-.221.162-.35.4-.414.662-.253 1.474-.555 3.995-.555 7.658 0 2.341.122 4.479.362 6.354.052.409.351.744.751.844 1.106.274 2.291.479 3.51.641.21 1.202.397 1.874.415 1.936.091.317.332.57.645.674.068.022 1.696.552 5.316.552s5.249-.529 5.316-.552c.312-.104.555-.356.646-.674.018-.062.204-.735.415-1.936 1.22-.162 2.405-.367 3.509-.641.4-.1.699-.435.752-.844.24-1.872.362-4.01.362-6.354 0-3.667-.303-6.194-.557-7.67zm-8.915-1.267c-.413 1.202-.895 2.316-1.422 3.333-.487-.766-1.136-1.933-1.641-3.331.492-.038.999-.064 1.535-.064.532 0 1.039.025 1.528.063zm-10.263 14.35c-.176-1.623-.265-3.439-.265-5.413 0-3.197.235-5.462.458-6.899.678-.405 2.395-1.295 4.986-1.776.817 2.467 2.061 4.33 2.555 5.007-1.447 2.287-2.976 3.927-3.981 4.884-.009-.396-.019-.793-.019-1.214 0-1.325.058-2.899.145-3.915.046-.551-.362-1.034-.912-1.081-.558-.062-1.034.36-1.081.911-.09 1.067-.151 2.709-.151 4.085 0 2.309.144 4.251.325 5.784-.705-.106-1.398-.224-2.061-.371zm8.735 3.587c-2.146 0-3.5-.195-4.172-.328-.175-.786-.477-2.4-.664-4.672h2.616c-.302.49-.578 1.068-.75 1.758-.134.535.192 1.078.728 1.212.522.135 1.081-.187 1.213-.728.215-.86.663-1.49 1.03-1.893.367.404.815 1.033 1.03 1.893.131.541.69.863 1.212.728.536-.134.862-.677.728-1.212-.172-.69-.448-1.267-.75-1.758h2.617c-.187 2.272-.489 3.885-.664 4.671-.675.134-2.029.329-4.173.329zm8.735-3.587c-.662.146-1.355.265-2.061.37.181-1.532.325-3.475.325-5.784 0-1.38-.061-3.021-.151-4.085-.047-.55-.525-.967-1.081-.911-.55.047-.958.53-.911 1.081.086 1.013.144 2.586.144 3.915 0 .707-.018 1.365-.043 2h-7.875c1.933-1.976 4.801-5.563 6.464-10.666 2.575.483 4.315 1.367 4.997 1.77.223 1.44.457 3.712.457 6.896 0 1.975-.089 3.792-.265 5.413z"/></svg>