<svg id="Layer_1" viewBox="0 0 24 24" xmlns="http://www.w3.org/2000/svg" data-name="Layer 1"><path d="m17.707 8.293c.391.391.391 1.023 0 1.414-1.052 1.052-2.491 1.665-3.46 1.984.036.236.06.506.06.809 0 .641-.107 1.247-.205 1.665.529.661 1.47 2 1.867 3.592.135.536-.191 1.079-.728 1.213-.522.134-1.08-.188-1.212-.728-.428-1.71-1.814-3.229-1.827-3.243h-.407c-.012.013-1.399 1.533-1.826 3.243-.131.54-.69.862-1.212.728-.536-.134-.862-.677-.728-1.213.395-1.58 1.322-2.909 1.854-3.576-.11-.422-.229-1.029-.229-1.682 0-.307.027-.579.068-.819-.968-.322-2.388-.932-3.43-1.974-.391-.391-.391-1.023 0-1.414s1.023-.391 1.414 0c1.007 1.007 2.712 1.553 3.398 1.707h1.784c.425-.1 2.286-.59 3.403-1.707.391-.391 1.023-.391 1.414 0zm-5.707.707c1.127-.007 1.973-.487 2.001-2-.025-1.453-.878-1.993-2.001-2-1.127.007-1.974.516-2.001 2 .028 1.509.878 1.993 2.001 2zm11 3c0 7.71-3.29 11-11 11s-11-3.29-11-11 3.29-11 11-11 11 3.29 11 11zm-2 0c0-6.561-2.439-9-9-9s-9 2.439-9 9 2.439 9 9 9 9-2.439 9-9z"/></svg>