<svg id="Layer_1" viewBox="0 0 24 24" xmlns="http://www.w3.org/2000/svg" data-name="Layer 1"><path d="m16.035 22c-.227 0-.451-.077-.632-.225-.16-.13-3.927-3.209-6.221-5.504-.438-.437-.9-.925-1.381-1.458-2.234 1.803-3.608 2.5-3.672 2.531-.56.3-1.313-.063-1.426-.689-.938-4.48-.937-8.917.002-13.187.084-.381.381-.678.762-.762 4.272-.939 8.71-.938 13.188-.002 1.853 1.227.267 1.948-1.842 5.098.533.482 1.021.944 1.457 1.381 2.296 2.295 5.374 6.061 5.504 6.22.226.276.287.65.162.983-.052.137-.554 1.39-2.357 3.193s-3.056 2.306-3.192 2.357c-.114.043-.233.064-.352.064zm-8.127-9.573c.279 0 .557.116.754.343.686.786 1.336 1.488 1.935 2.086 1.737 1.738 4.444 4.021 5.562 4.949.432-.266 1.134-.768 2.006-1.64s1.373-1.573 1.64-2.007c-.929-1.118-3.21-3.824-4.948-5.562-.597-.597-1.298-1.247-2.087-1.934-.412-.359-.459-.983-.105-1.401 1.011-1.191 1.718-2.167 2.18-2.861-3.499-.57-6.96-.528-10.315.128-.656 3.352-.699 6.812-.128 10.315.693-.462 1.67-1.169 2.861-2.18.188-.159.417-.237.646-.237z"/></svg>