<svg id="Layer_1" viewBox="0 0 24 24" xmlns="http://www.w3.org/2000/svg" data-name="Layer 1"><path d="m22.937 14.059c-.22 3.749-.93 7.019-.96 7.156-.083.381-.381.679-.762.762-.19.042-4.713 1.023-9.214 1.023s-9.024-.981-9.214-1.023c-.381-.083-.679-.381-.762-.762-.042-.19-1.023-4.713-1.023-9.214s.979-9.025 1.021-9.215c.083-.381.381-.679.762-.762.137-.03 3.407-.741 7.156-.96.563-.04 1.025.389 1.057.939.033.551-.388 1.024-.939 1.057-2.644.155-5.092.577-6.209.79-.265 1.386-.849 4.824-.849 8.151s.584 6.765.849 8.151c1.386.265 4.824.849 8.151.849s6.765-.584 8.151-.849c.213-1.117.635-3.566.79-6.209.032-.552.5-.988 1.057-.939.551.032.972.505.939 1.057zm-8.732-10.674c1.786-.375 3.555-.461 5.285-.289l-10.197 10.197c-.391.391-.391 1.023 0 1.414.195.195.451.293.707.293s.512-.098.707-.293l10.197-10.197c.172 1.73.085 3.499-.289 5.285-.113.541.233 1.071.774 1.184.527.113 1.073-.23 1.184-.774.569-2.721.568-5.417-.002-8.014-.083-.381-.381-.678-.762-.762-2.597-.571-5.292-.572-8.014-.002-.541.113-.887.643-.774 1.184.114.54.641.884 1.184.774z"/></svg>