<?xml version="1.0" encoding="UTF-8"?>
<svg xmlns="http://www.w3.org/2000/svg" id="Layer_1" data-name="Layer 1" viewBox="0 0 24 24">
  <path d="M5.305,9.413c.49,.255,1.094,.062,1.348-.429,1.471-2.845,3.185-4.436,4.349-5.265v13.674c0,.552,.448,1,1,1s1-.448,1-1V3.733c1.169,.839,2.892,2.438,4.347,5.251,.178,.344,.527,.541,.889,.541,.154,0,.312-.036,.458-.112,.49-.253,.683-.857,.429-1.348C16.377,2.754,12.768,1.226,12.366,1.069c-.229-.088-.484-.09-.715-.005-.16,.06-3.942,1.524-6.775,7.002-.254,.491-.062,1.094,.429,1.348Z"/>
  <path d="M21.367,15.757c-.545-.068-1.05,.314-1.122,.862-.151,1.151-.369,2.316-.651,3.472-5.043,1.205-10.146,1.205-15.188,0-.282-1.155-.5-2.32-.651-3.472-.072-.548-.583-.93-1.122-.862-.548,.072-.934,.574-.862,1.122,.187,1.425,.471,2.869,.845,4.292,.092,.351,.367,.624,.718,.714,2.875,.74,5.77,1.11,8.666,1.11s5.791-.37,8.666-1.11c.352-.09,.626-.364,.718-.714,.374-1.423,.658-2.867,.845-4.292,.072-.547-.314-1.05-.862-1.122Z"/>
</svg>
