<svg id="Layer_1" viewBox="0 0 24 24" xmlns="http://www.w3.org/2000/svg" data-name="Layer 1"><path d="m19.888 21.853c.08.547-.298 1.055-.844 1.135-.535.082-1.057-.295-1.135-.844-.365-2.488-1.51-4.145-5.909-4.145s-5.544 1.657-5.909 4.144c-.08.547-.586.934-1.134.845-.546-.08-.924-.588-.844-1.134.585-3.995 3.091-5.855 7.887-5.855s7.302 1.86 7.888 5.854zm2.479-14.924c-.141.056-2.413.939-5.397 1.534.01.18.03.345.03.536 0 3.411-1.589 5-5 5s-5-1.589-5-5c0-.192.021-.356.03-.536-2.985-.595-5.256-1.478-5.398-1.534-.513-.203-.765-.784-.562-1.297s.783-.765 1.297-.563c.031.013 2.048.796 4.72 1.361.369-2.166 1.838-5.431 2.969-5.431.524 0 1.151.094 1.944.677.792-.583 1.42-.677 1.944-.677 1.13 0 2.6 3.266 2.968 5.432 2.674-.565 4.689-1.35 4.72-1.362.512-.202 1.094.049 1.297.562.203.514-.049 1.095-.562 1.298zm-13.32-.154c.963.135 1.962.224 2.953.224s1.991-.088 2.953-.223c-.199-1.515-1.002-3.004-1.436-3.688-.196.088-.456.265-.81.619-.391.391-1.023.391-1.414 0-.354-.354-.613-.53-.81-.619-.435.683-1.238 2.172-1.436 3.688zm5.942 2.017c-.972.127-1.979.207-2.988.207s-2.017-.081-2.989-.207c-.002.072-.011.133-.011.207 0 2.299.701 3 3 3s3-.701 3-3c0-.075-.01-.135-.011-.207z"/></svg>