<svg id="Layer_1" viewBox="0 0 24 24" xmlns="http://www.w3.org/2000/svg" data-name="Layer 1"><path d="m14 7c1.991 0 3-1.009 3-3s-1.009-3-3-3-3 1.009-3 3 1.009 3 3 3zm0-4c.878 0 1 .122 1 1s-.122 1-1 1-1-.122-1-1 .122-1 1-1zm-4 5c-1.991 0-3 1.009-3 3s1.009 3 3 3 3-1.009 3-3-1.009-3-3-3zm0 4c-.878 0-1-.122-1-1s.122-1 1-1 1 .122 1 1-.122 1-1 1zm-4.879-1.952c-1.375.168-2.121.688-2.121 2.952 0 .552-.448 1-1 1s-1-.448-1-1c0-3.003 1.269-4.618 3.879-4.937.545-.067 1.046.323 1.114.872.067.548-.323 1.047-.872 1.114zm5.879 5.952c0 .552-.448 1-1 1-2.299 0-3 .701-3 3 0 .552-.448 1-1 1s-1-.448-1-1c0-3.411 1.589-5 5-5 .552 0 1 .448 1 1zm-5-9c1.991 0 3-1.009 3-3s-1.009-3-3-3-3 1.009-3 3 1.009 3 3 3zm0-4c.878 0 1 .122 1 1s-.122 1-1 1-1-.122-1-1 .122-1 1-1zm16.83 15.634-.927-.535c.058-.339.096-.699.096-1.099s-.038-.76-.096-1.099l.927-.535c.479-.276.642-.888.366-1.366-.277-.482-.897-.64-1.366-.366l-.758.437c-.492-.529-1.179-.863-2.072-.998v-1.074c0-.552-.448-1-1-1s-1 .448-1 1v1.074c-.893.135-1.58.469-2.072.998l-.758-.437c-.469-.274-1.089-.117-1.366.366-.276.478-.113 1.09.366 1.366l.927.535c-.058.339-.096.699-.096 1.099s.038.76.096 1.099l-.927.535c-.479.276-.642.888-.366 1.366.277.482.897.64 1.366.366l.758-.437c.492.529 1.179.863 2.072.998v1.074c0 .552.448 1 1 1s1-.448 1-1v-1.074c.893-.135 1.58-.469 2.072-.998l.758.437c.469.274 1.089.117 1.366-.366.276-.478.113-1.09-.366-1.366zm-4.83.366c-1.589 0-2-.411-2-2s.411-2 2-2 2 .411 2 2-.411 2-2 2z"/></svg>