<svg id="Layer_1" viewBox="0 0 24 24" xmlns="http://www.w3.org/2000/svg" data-name="Layer 1"><path d="m12 12.999c2.091 0 4.964-.391 5.77-3.768.128-.537-.203-1.077-.741-1.205-.53-.125-1.077.203-1.205.741-.32 1.34-1.093 2.232-3.825 2.232-3.028 0-4-.972-4-4 0-.001 0-.003 0-.004 7.228-.042 11.992-.975 12.195-1.016.541-.108.893-.635.784-1.177-.108-.541-.631-.891-1.177-.784-.019.004-.79.154-2.147.336-.934-2.99-3.643-3.355-5.656-3.355-4.149 0-6 1.85-6 6s1.85 6 6 6zm0-9.999c2.254 0 3.175.598 3.61 1.595-1.928.197-4.445.372-7.37.398.439-1.464 1.546-1.994 3.761-1.994zm8.998 18.946c.029.552-.394 1.022-.946 1.052-.546.029-1.023-.394-1.051-.946-.14-2.654-.89-4.3-2.52-5.194-.52.669-1.076 1.352-1.474 1.796-.412.46-1.119.46-1.531 0-.516-.575-1.006-1.205-1.485-1.851-.479.646-.969 1.275-1.485 1.851-.412.46-1.119.46-1.531 0-.398-.444-.947-1.126-1.462-1.794-1.627.895-2.375 2.54-2.515 5.191-.029.552-.501.983-1.051.946-.552-.029-.975-.5-.946-1.052.291-5.496 3.066-7.947 8.998-7.947s8.707 2.451 8.998 7.947z"/></svg>