<svg id="Layer_1" viewBox="0 0 24 24" xmlns="http://www.w3.org/2000/svg" data-name="Layer 1"><path d="m15.999 8.644c-.03.545-.157 1.308-.602 1.753s-1.209.572-1.753.602c-.364.02-.663-.279-.643-.643.03-.545.157-1.308.602-1.753s1.209-.572 1.753-.602c.364-.02.663.279.643.643zm-7.358-.632c-.362-.02-.66.278-.641.641.03.543.156 1.304.6 1.747s1.204.57 1.747.6c.362.02.66-.278.641-.641-.03-.543-.156-1.304-.6-1.747s-1.204-.57-1.747-.6zm12.358 13.989c0 .553-.448 1-1 1s-1-.447-1-1c0-3.152-.693-4.994-2.279-5.994-1.912 2.191-3.979 3.693-4.14 3.807-.174.124-.377.187-.581.187s-.407-.062-.581-.187c-.16-.114-2.228-1.617-4.14-3.807-1.586 1-2.279 2.842-2.279 5.994 0 .553-.448 1-1 1s-1-.447-1-1c0-3.743.976-6.182 3.037-7.573-1.153-1.639-2.037-3.512-2.037-5.427.001-5.533 2.468-8.001 8.001-8.001s8 2.468 8 8c0 1.916-.885 3.788-2.037 5.428 2.062 1.391 3.037 3.83 3.037 7.572zm-3-13c0-4.43-1.57-6-6-6s-6 1.57-6 6c0 3.631 4.391 7.459 6 8.74 1.609-1.281 6-5.109 6-8.74z"/></svg>