<svg id="Layer_1" viewBox="0 0 24 24" xmlns="http://www.w3.org/2000/svg" data-name="Layer 1"><path d="m6 7c1.991 0 3-1.01 3-3s-1.009-3-3-3-3 1.01-3 3 1.009 3 3 3zm0-4c.878 0 1 .121 1 1s-.122 1-1 1-1-.121-1-1 .122-1 1-1zm10 4c1.991 0 3-1.01 3-3s-1.009-3-3-3-3 1.01-3 3 1.009 3 3 3zm0-4c.878 0 1 .121 1 1s-.122 1-1 1-1-.121-1-1 .122-1 1-1zm-8 8c0 1.99 1.009 3 3 3s3-1.01 3-3-1.009-3-3-3-3 1.01-3 3zm3-1c.878 0 1 .121 1 1s-.122 1-1 1-1-.121-1-1 .122-1 1-1zm12 7.997c.001.553-.445 1.002-.998 1.003h-3.002l.008 2.999c.001.553-.445 1.002-.998 1.003h-.002c-.551 0-.999-.446-1-.997l-.008-3-2.998.015h-.002c-.551 0-.999-.446-1-.997-.001-.553.445-1.002.998-1.003l3.002-.015-.008-3c-.001-.553.445-1.002.998-1.003h.002c.551 0 .999.446 1 .997l.008 3.001h3c.551 0 .999.446 1 .997zm-17-7.997c-2.299 0-3 .701-3 3 0 .553-.448 1-1 1s-1-.447-1-1c0-3.411 1.589-5 5-5 .552 0 1 .447 1 1s-.448 1-1 1zm6 6c0 .553-.448 1-1 1-2.299 0-3 .701-3 3 0 .553-.448 1-1 1s-1-.447-1-1c0-3.411 1.589-5 5-5 .552 0 1 .447 1 1zm4.278-8c.923 0 3.733 0 4.666 2.67.183.521-.092 1.092-.614 1.274-.508.18-1.092-.088-1.274-.614-.096-.686-1.113-1.454-3.056-1.33-.552 0-1-.447-1-1s.448-1 1-1z"/></svg>