<svg id="Layer_1" viewBox="0 0 24 24" xmlns="http://www.w3.org/2000/svg" data-name="Layer 1"><path d="m21.977 2.786c-.083-.381-.381-.679-.762-.762-.19-.042-4.714-1.023-9.215-1.023s-9.024.98-9.215 1.022c-.381.083-.679.381-.762.762-.042.19-1.023 4.713-1.023 9.214s.981 9.024 1.023 9.214c.083.381.381.679.762.762.19.042 4.714 1.023 9.215 1.023s9.024-.981 9.215-1.023c.381-.083.679-.381.762-.762.042-.19 1.023-4.713 1.023-9.214s-.981-9.024-1.023-9.214zm-9.977 18.214c-3.326 0-6.765-.584-8.15-.849-.265-1.386-.85-4.824-.85-8.151s.585-6.765.85-8.151c1.386-.265 4.824-.849 8.15-.849s6.765.584 8.15.849c.265 1.386.85 4.824.85 8.151s-.585 6.765-.85 8.151c-1.386.265-4.824.849-8.15.849zm1.712-13.118c.012.1.288 2.456.288 4.368 0 2.039-.415 4.75-4 4.75s-4-2.711-4-4.75c0-1.912.276-4.268.288-4.368.065-.548.556-.935 1.11-.875.549.065.94.562.876 1.111-.003.023-.274 2.34-.274 4.132 0 2.559.792 2.75 2 2.75s2-.191 2-2.75c0-1.795-.271-4.109-.274-4.132-.064-.548.327-1.046.876-1.111.534-.061 1.045.327 1.11.875zm3.961-.056c.014.076.327 1.877.327 4.018 0 2.128-.31 4.216-.322 4.304-.079.548-.603.924-1.138.84-.546-.082-.922-.591-.841-1.137.003-.02.301-2.034.301-4.008 0-1.958-.293-3.654-.297-3.671-.095-.544.269-1.062.812-1.158.543-.098 1.062.267 1.157.811z"/></svg>