<svg id="Layer_1" viewBox="0 0 24 24" xmlns="http://www.w3.org/2000/svg" data-name="Layer 1"><path d="m9.403 11.88c3.711 0 5.44-1.729 5.44-5.44s-1.728-5.44-5.44-5.44-5.439 1.729-5.439 5.44 1.728 5.44 5.44 5.44zm0-8.902c2.62 0 3.462.841 3.462 3.462s-.841 3.462-3.462 3.462-3.462-.841-3.462-3.462.841-3.462 3.462-3.462zm.501 11.849c.014.546-.417 1.001-.963 1.015-4.233.111-5.848 1.725-5.961 5.955-.014.537-.454.963-.988.963h-.027c-.546-.014-.977-.469-.963-1.015.141-5.31 2.573-7.741 7.886-7.881.569-.012 1 .417 1.015.963zm12.999 2.409c-.062-.131-.654-1.333-2.404-3.083-1.74-1.74-2.658-2.144-2.825-2.208-.113-.042-.232-.065-.353-.065-2.076 0-4.11.502-4.196.524-.354.088-.631.365-.72.72-.021.085-.524 2.12-.524 4.196 0 .119.022.238.064.349.063.166.463 1.083 2.204 2.823 1.748 1.748 2.958 2.35 3.09 2.413.29.137.63.127.91-.032.056-.032 1.388-.788 2.662-2.062 1.276-1.276 2.028-2.617 2.06-2.673.155-.278.166-.614.03-.902zm-3.489 2.176c-.651.65-1.329 1.147-1.765 1.44-.441-.291-1.182-.84-2.101-1.759-1.083-1.083-1.533-1.751-1.686-2.005.023-1.125.206-2.238.335-2.893.652-.128 1.76-.311 2.888-.334.273.162.942.617 2.015 1.69.919.92 1.465 1.656 1.751 2.091-.29.438-.786 1.118-1.438 1.77zm-2.092-3.081c0 .546-.443.989-.989.989s-.989-.443-.989-.989.443-.989.989-.989.989.443.989.989z"/></svg>