<svg id="Layer_1" viewBox="0 0 24 24" xmlns="http://www.w3.org/2000/svg" data-name="Layer 1"><path d="m22.707 21.293-2.186-2.186c-.704-2.408-2.219-3.924-4.628-4.628l-1.722-1.722c2.613-.601 3.829-2.429 3.829-5.757 0-4.149-1.851-6-6-6-3.328 0-5.156 1.216-5.757 3.829l-3.536-3.536c-.391-.391-1.023-.391-1.414 0s-.391 1.023 0 1.414l20 20c.391.391 1.023.391 1.414 0s.391-1.023 0-1.414zm-10.707-18.293c3.028 0 4 .972 4 4 0 2.884-.904 3.892-3.604 3.982l-4.378-4.378c.09-2.7 1.098-3.604 3.982-3.604zm-1.007 11.99c.067.548-.323 1.047-.872 1.114-3.463.423-4.893 2.091-5.097 5.949-.028.553-.505.977-1.051.946-.552-.029-.975-.5-.946-1.051.254-4.801 2.432-7.289 6.852-7.829.542-.069 1.047.323 1.114.872z"/></svg>