<svg id="Layer_1" viewBox="0 0 24 24" xmlns="http://www.w3.org/2000/svg" data-name="Layer 1"><path d="m13 5.01c5.236.1 8.721.951 8.758.961.607.168 1.259-.34 1.242-.971v-2.5c0-.553-.447-1-1-1s-1 .447-1 1v1.27c-.516-.096-1.2-.206-2-.314v-1.457c0-.553-.447-1-1-1s-1 .447-1 1v1.231c-1.175-.109-2.517-.191-4-.218v-1.014c0-.553-.447-1-1-1s-1 .447-1 1v1.014c-1.483.027-2.825.109-4 .218v-1.231c0-.553-.447-1-1-1s-1 .447-1 1v1.457c-.8.108-1.483.218-2 .314v-1.27c0-.553-.447-1-1-1s-1 .447-1 1v2.5c-.015.631.631 1.136 1.242.971.037-.009 3.521-.86 8.758-.961v4.003c-1.483.027-2.825.109-4 .218v-1.231c0-.553-.447-1-1-1s-1 .447-1 1v1.457c-.8.108-1.483.218-2 .314v-1.27c0-.553-.447-1-1-1s-1 .447-1 1v2.5c-.015.631.631 1.136 1.242.971.021-.005 1.207-.294 3.213-.554 1.605 2.083 3.467 3.949 5.544 5.561v5.023c0 .553.447 1 1 1s1-.447 1-1v-5.023c2.077-1.612 3.939-3.477 5.544-5.561 2.007.261 3.192.549 3.213.554.607.168 1.259-.34 1.242-.971v-2.5c0-.553-.447-1-1-1s-1 .447-1 1v1.27c-.516-.096-1.2-.206-2-.314v-1.457c0-.553-.447-1-1-1s-1 .447-1 1v1.231c-1.175-.109-2.517-.191-4-.218v-4.003zm-5.183 6.159c.965-.078 2.029-.137 3.183-.159v3.382c-1.142-.991-2.208-2.065-3.183-3.223zm8.366 0c-.974 1.157-2.04 2.231-3.183 3.223v-3.382c1.153.022 2.217.081 3.183.159z"/></svg>