<svg id="Layer_1" viewBox="0 0 24 24" xmlns="http://www.w3.org/2000/svg" data-name="Layer 1"><path d="m18.682 17.268c.402.376.426 1.009.05 1.413-.197.212-.465.319-.732.319-.243 0-.486-.088-.679-.266-.032-.03-.58-.548-1.32-1.48-.74.932-1.288 1.45-1.32 1.48-.192.178-.436.266-.679.266-.268 0-.535-.107-.732-.319-.376-.404-.353-1.036.05-1.413.008-.007.65-.618 1.468-1.719-1.13-1.768-1.643-3.145-1.666-3.205-.189-.519.077-1.091.595-1.281.522-.189 1.094.076 1.283.593.004.011.324.859 1.001 2.039.677-1.181.997-2.029 1.001-2.039.19-.517.764-.781 1.283-.593.518.19.784.763.595 1.281-.023.06-.536 1.437-1.666 3.205.818 1.101 1.46 1.712 1.468 1.719zm-8.091-6.252c-.544.097-.906.616-.81 1.16.002.012.219 1.252.219 2.7 0 2.022-.57 2.125-1.5 2.125s-1.5-.103-1.5-2.125c0-1.447.217-2.688.219-2.7.097-.544-.266-1.063-.81-1.16-.543-.094-1.063.265-1.159.809-.011.057-.25 1.418-.25 3.051 0 1.02 0 4.125 3.5 4.125s3.5-3.105 3.5-4.125c0-1.632-.239-2.994-.25-3.051-.096-.543-.616-.899-1.159-.809zm12.409.984c0 4.076-.988 8.074-1.03 8.243-.082.332-.329.598-.653.706-.129.043-3.225 1.051-9.316 1.051s-9.188-1.008-9.316-1.051c-.324-.108-.571-.375-.653-.706-.042-.168-1.03-4.167-1.03-8.243s.986-8.074 1.028-8.243c.082-.332.329-.598.653-.706.129-.043 3.225-1.051 9.316-1.051s9.187 1.008 9.316 1.051c.324.108.571.375.653.706.042.168 1.03 4.167 1.03 8.243zm-19.158-7.194c-.14.648-.368 1.809-.552 3.194h17.42c-.184-1.386-.412-2.546-.552-3.194-1.079-.265-3.814-.806-8.158-.806s-7.077.541-8.158.806zm16.316 14.388c.264-1.219.842-4.228.842-7.194 0-.673-.032-1.345-.081-2h-17.837c-.049.655-.082 1.328-.082 2 0 2.973.578 5.977.842 7.194 1.079.265 3.814.806 8.158.806s7.077-.541 8.158-.806zm-11.158-12.194c.553 0 1-.447 1-1s-.447-1-1-1-1 .447-1 1 .447 1 1 1zm-3 0c.553 0 1-.447 1-1s-.447-1-1-1-1 .447-1 1 .447 1 1 1z"/></svg>