<svg id="Layer_1" viewBox="0 0 24 24" xmlns="http://www.w3.org/2000/svg" data-name="Layer 1"><path d="m20.99 1.972c-.016-.552-.471-.99-1.028-.971-.553.016-.987.476-.972 1.028.002.062.162 6.165-.973 9.663-1.732 5.343-4.807 8.145-6.02 9.084-1.215-.934-4.272-3.711-6.015-9.084-1.134-3.494-.975-9.602-.973-9.663.016-.552-.419-1.012-.971-1.028-.559-.018-1.012.419-1.028.971-.008.264-.171 6.513 1.07 10.337 2.427 7.482 7.202 10.427 7.404 10.548.159.096.337.144.516.144s.357-.048.516-.144c.202-.121 4.979-3.065 7.404-10.548 1.24-3.824 1.077-10.073 1.07-10.337z"/></svg>