<svg id="Layer_1" viewBox="0 0 24 24" xmlns="http://www.w3.org/2000/svg" data-name="Layer 1"><path d="m21.212 4.619c.488-.401 1.093-1.062 1.671-2.151.259-.488.073-1.094-.415-1.353-.487-.258-1.094-.073-1.353.415-.499.941-.986 1.402-1.26 1.61-1.784-1.457-4.362-2.141-7.856-2.141s-6.071.684-7.855 2.14c-.285-.215-.768-.678-1.262-1.609-.26-.489-.865-.674-1.353-.415s-.674.864-.415 1.353c.578 1.089 1.184 1.75 1.671 2.151-1.212 1.758-1.788 4.184-1.788 7.381 0 7.71 3.29 11 11 11s11-3.29 11-11c0-3.197-.576-5.623-1.788-7.381zm-6.637-1.455c.074.636.198 1.832.293 3.424-.752-.386-1.694-.588-2.868-.588s-2.116.203-2.868.588c.095-1.593.218-2.788.293-3.424.779-.106 1.63-.164 2.575-.164s1.796.057 2.575.164zm.425 7.836c0 2.299-.701 3-3 3s-3-.701-3-3 .701-3 3-3 3 .701 3 3zm-3 10c-6.561 0-9-2.439-9-9 0-4.687 1.256-7.262 4.359-8.356-.151 1.465-.359 4.079-.359 7.356 0 3.411 1.589 5 5 5s5-1.589 5-5c0-3.276-.209-5.891-.359-7.356 3.104 1.093 4.359 3.669 4.359 8.356 0 6.561-2.439 9-9 9z"/></svg>