<svg id="Layer_1" viewBox="0 0 24 24" xmlns="http://www.w3.org/2000/svg" data-name="Layer 1"><path d="m23 12c0 5.396-.666 9.955-.694 10.146-.074.497-.5.854-.988.854-.604.005-1.084-.549-.991-1.146.007-.046.673-4.611.673-9.854s-.666-9.808-.673-9.854c-.081-.546.296-1.055.843-1.136.546-.075 1.055.296 1.136.843.028.191.694 4.75.694 10.146zm-20.17-10.989c-.543-.075-1.054.296-1.136.843-.028.191-.694 4.75-.694 10.146s.666 9.955.694 10.146c.074.497.5.854.988.854.604.005 1.085-.549.991-1.146-.007-.046-.673-4.604-.673-9.854s.666-9.808.673-9.854c.081-.546-.296-1.055-.843-1.136zm12.877 7.282c-.391-.391-1.023-.391-1.414 0l-2.293 2.293-2.293-2.293c-.391-.391-1.023-.391-1.414 0s-.391 1.023 0 1.414l2.293 2.293-2.293 2.293c-.391.391-.391 1.023 0 1.414s1.023.391 1.414 0l2.293-2.293 2.293 2.293c.391.391 1.023.391 1.414 0s.391-1.023 0-1.414l-2.293-2.293 2.293-2.293c.391-.391.391-1.023 0-1.414z"/></svg>