<svg id="Layer_1" viewBox="0 0 24 24" xmlns="http://www.w3.org/2000/svg" data-name="Layer 1"><path d="m22.015 17.224c-.042-.009-1.028-.224-2.015-.224-.219 0-.436.012-.645.028-1.165-1.736-2.195-2.895-3.111-3.92l-.284-.32c.024-.251.04-.519.04-.789s-.017-.538-.04-.789l.284-.32c.916-1.025 1.946-2.184 3.111-3.92.209.017.426.028.645.028.986 0 1.973-.215 2.015-.224.381-.084.678-.381.762-.762.009-.042.224-1.028.224-2.015s-.215-1.973-.224-2.015c-.084-.381-.381-.678-.762-.762-.042-.009-1.028-.224-2.015-.224s-1.973.215-2.015.224c-.381.084-.678.381-.762.762-.003.016-.036.166-.075.399-1.46-.198-3.31-.384-5.148-.384-1.848 0-3.704.188-5.148.385-.039-.233-.072-.383-.075-.399-.084-.381-.381-.678-.762-.762-.042-.009-1.028-.224-2.015-.224s-1.973.215-2.015.224c-.381.084-.678.381-.762.762-.009.042-.224 1.028-.224 2.015s.215 1.973.224 2.015c.084.381.381.678.762.762.016.003.166.036.399.075-.198 1.46-.384 3.31-.384 5.148 0 1.848.188 3.704.385 5.148-.233.039-.383.072-.399.075-.381.084-.678.381-.762.762-.009.042-.224 1.028-.224 2.015s.215 1.973.224 2.015c.084.381.381.678.762.762.042.009 1.028.224 2.015.224s1.973-.215 2.015-.224c.381-.084.678-.381.762-.762.003-.016.036-.166.075-.399 1.444.196 3.301.385 5.148.385s3.704-.188 5.148-.385c.039.233.072.383.075.399.084.381.381.678.762.762.042.009 1.028.224 2.015.224s1.973-.215 2.015-.224c.381-.084.678-.381.762-.762.009-.042.224-1.028.224-2.015s-.215-1.973-.224-2.015c-.084-.381-.381-.678-.762-.762zm-2.947-14.156c.555-.072 1.311-.072 1.865 0 .036.277.067.609.067.933s-.031.655-.067.933c-.555.072-1.311.072-1.865 0-.036-.277-.067-.609-.067-.933s.031-.655.067-.933zm-16.001-.001c.555-.072 1.311-.072 1.865 0 .036.277.067.609.067.933s-.031.655-.067.933c-.555.072-1.311.072-1.865 0-.036-.277-.067-.609-.067-.933s.031-.655.067-.933zm1.865 17.865c-.555.072-1.311.072-1.865 0-.036-.277-.067-.609-.067-.933s.031-.655.067-.933c.555-.072 1.311-.072 1.865 0 .036.277.067.609.067.933s-.031.655-.067.933zm2.057-1.317c-.043-.844-.206-1.594-.213-1.631-.084-.381-.381-.678-.762-.762-.036-.008-.787-.171-1.631-.213-.193-1.393-.384-3.214-.384-5.01s.188-3.601.384-5.01c.843-.043 1.594-.206 1.63-.213.381-.084.678-.381.762-.762.008-.036.171-.787.213-1.631 1.393-.193 3.214-.384 5.01-.384s3.601.188 5.01.384c.043.843.206 1.594.213 1.63.026.119.079.224.142.323-.844 1.201-1.618 2.102-2.324 2.897-.01-.002-.018-.008-.027-.01-.042-.009-1.028-.224-2.015-.224s-1.973.215-2.015.224c-.381.084-.678.381-.762.762-.009.042-.224 1.028-.224 2.015s.215 1.973.224 2.015c.084.381.381.678.762.762.042.009 1.028.224 2.015.224s1.973-.215 2.015-.224c.01-.002.018-.008.027-.01.706.794 1.48 1.695 2.324 2.897-.063.098-.116.204-.142.323-.008.036-.171.787-.213 1.631-1.393.193-3.214.384-5.01.384s-3.618-.19-5.01-.384zm7.01-7.616c0 .323-.031.655-.067.933-.555.072-1.311.072-1.865 0-.036-.277-.067-.609-.067-.933s.031-.655.067-.933c.555-.072 1.311-.072 1.865 0 .036.277.067.609.067.933zm6.933 8.933c-.555.072-1.311.072-1.865 0-.036-.277-.067-.609-.067-.933s.031-.655.067-.933c.555-.072 1.311-.072 1.865 0 .036.277.067.609.067.933s-.031.655-.067.933z"/></svg>