<?xml version="1.0" encoding="UTF-8"?>
<svg xmlns="http://www.w3.org/2000/svg" id="Layer_1" data-name="Layer 1" viewBox="0 0 24 24">
  <path d="M22.987,7.907c-.027-4.437-2.438-6.825-7.01-6.907-1.547,.026-2.863,.354-3.923,.956-1.066-.605-2.423-.927-4.066-.956C3.584,1.075,1.042,3.593,1.013,7.919c.026,4.039,2.138,6.439,6.005,6.847l-.007,4.117h-1.452c-.552,0-1,.447-1,1s.448,1,1,1h1.448l-.002,1.115c0,.553,.446,1.001,.999,1.002h.001c.551,0,.999-.446,1-.998l.002-1.119h1.444c.552,0,1-.447,1-1s-.448-1-1-1h-1.441l.007-4.115c1.165-.12,2.171-.416,3.005-.885,.833,.467,1.83,.766,2.983,.885l-.007,4.114h-1.451c-.552,0-1,.447-1,1s.448,1,1,1h1.448l-.002,1.115c0,.553,.446,1.001,.999,1.002h.001c.552,0,.999-.446,1-.998l.002-1.119h1.444c.552,0,1-.447,1-1s-.448-1-1-1h-1.441l.007-4.115c3.894-.397,5.956-2.748,5.98-6.861Zm-2,0c-.02,3.335-1.56,4.853-4.993,4.919-3.385-.064-4.972-1.628-4.992-4.906,.021-3.254,1.66-4.863,4.974-4.92,3.445,.062,4.991,1.579,5.011,4.907Zm-17.974,.013c.021-3.254,1.66-4.863,4.975-4.92,.931,.017,1.733,.147,2.399,.386-.893,1.142-1.372,2.669-1.385,4.533,.012,1.876,.474,3.398,1.35,4.531-.657,.233-1.439,.36-2.329,.376-3.397-.06-4.989-1.623-5.01-4.906Z"/>
</svg>
