<svg id="Layer_1" viewBox="0 0 24 24" xmlns="http://www.w3.org/2000/svg" data-name="Layer 1"><path d="m20 8.588v-5.712c0-.456-.309-.854-.751-.969-1.318-.339-4.014-.907-7.249-.907s-5.937.566-7.249.904c-.442.114-.751.513-.751.969v5.715c-.771.801-2 2.256-2 3.412 0 4.824 1.022 8.923 1.065 9.095.084.33.329.595.651.703.146.049 3.635 1.202 8.283 1.202 4.687 0 8.142-1.154 8.286-1.203.321-.109.564-.373.648-.701.043-.172 1.065-4.261 1.065-9.096 0-1.155-1.229-2.611-2-3.412zm-5.185-5.439c-.709 2.411-2.009 4.309-2.817 5.326-.806-1.013-2.104-2.906-2.814-5.327.862-.089 1.81-.147 2.816-.147s1.952.059 2.815.149zm-10.815 8.86c.034-.363.845-1.457 1.699-2.294.192-.188.301-.446.301-.715v-5.338c.346-.077.744-.158 1.185-.236.967 3.548 3.043 6.106 3.815 6.967v10.587c-2.844-.109-5.132-.652-6.12-.924-.27-1.25-.88-4.478-.88-8.048zm15.12 8.05c-.982.272-3.258.814-6.12.922v-10.587c.772-.861 2.848-3.418 3.815-6.965.441.078.839.159 1.185.236v5.335c0 .269.108.526.301.715.854.837 1.664 1.931 1.699 2.285 0 3.585-.611 6.812-.88 8.059z"/><path d="m17.071 11.179c-.344-.238-.799-.238-1.143 0-.111.078-1.104.814-1.415 2.654-.049.29.032.588.223.812.189.225.47.354.764.354h2c.294 0 .574-.13.764-.354.19-.225.271-.522.223-.812-.312-1.84-1.304-2.576-1.415-2.654z"/><rect height="4" rx="1" width="4" x="5.5" y="11"/><circle cx="7.798" cy="18" r="2"/></svg>