<svg id="Layer_1" viewBox="0 0 24 24" xmlns="http://www.w3.org/2000/svg" data-name="Layer 1"><path d="m20 8.588v-5.712c0-.456-.309-.854-.751-.969-1.318-.339-4.014-.907-7.249-.907s-5.938.566-7.25.904c-.442.114-.75.513-.75.969v5.715c-.771.801-2 2.256-2 3.412 0 4.824 1.022 8.923 1.065 9.095.083.33.329.595.651.703.146.049 3.635 1.202 8.283 1.202 4.688 0 8.142-1.154 8.286-1.203.321-.109.564-.373.648-.701.043-.172 1.065-4.261 1.065-9.096 0-1.155-1.229-2.611-2-3.412zm-5.185-5.439c-.709 2.411-2.009 4.309-2.817 5.326-.807-1.013-2.104-2.906-2.814-5.327.862-.089 1.809-.147 2.816-.147s1.952.059 2.815.149zm-10.463 13.851h2.648c.552 0 1-.447 1-1s-.448-1-1-1h-2.868c-.08-.941-.132-1.952-.132-2.991.035-.363.845-1.457 1.7-2.294.192-.188.301-.446.301-.715v-5.338c.346-.077.744-.158 1.185-.236.967 3.548 3.043 6.106 3.815 6.967v10.587c-2.844-.109-5.132-.652-6.12-.924-.131-.611-.344-1.693-.528-3.057zm8.648 3.981v-10.587c.772-.861 2.848-3.418 3.815-6.965.441.078.839.159 1.185.236v5.335c0 .269.108.526.301.715.854.837 1.664 1.931 1.699 2.285 0 1.044-.052 2.057-.132 3h-2.868c-.553 0-1 .447-1 1s.447 1 1 1h2.648c-.184 1.366-.397 2.449-.528 3.059-.982.272-3.258.814-6.12.922z"/></svg>