<svg id="Layer_1" viewBox="0 0 24 24" xmlns="http://www.w3.org/2000/svg" data-name="Layer 1"><path d="m22.492 6.13c-.312-.178-.697-.171-1.007.013-1.085.651-1.976 1.313-2.77 2.027-.24-1.571-.548-2.5-.569-2.561-.096-.279-.31-.501-.584-.608-.105-.041-2.632-1.001-7.562-1.001s-7.457.96-7.562 1.001c-.274.107-.488.329-.584.608-.034.102-.854 2.536-.854 6.391s.819 6.29.854 6.391c.096.279.31.501.584.608.105.041 2.632 1.001 7.562 1.001s7.457-.96 7.562-1.001c.274-.107.488-.329.584-.608.021-.061.327-.986.567-2.549.916.86 1.873 1.569 2.839 2.052.634.341 1.469-.174 1.447-.895v-9.999c0-.36-.193-.693-.508-.87zm-6.104 11.146c-.877.246-3.018.725-6.388.725s-5.514-.479-6.388-.725c-.215-.829-.612-2.71-.612-5.275s.397-4.447.612-5.275c.876-.246 3.018-.725 6.388-.725s5.514.479 6.388.725c.215.829.612 2.71.612 5.275s-.397 4.446-.612 5.275zm4.612-2.085c-.697-.533-1.381-1.198-2.031-1.962.018-.393.031-.799.031-1.229 0-.437-.013-.849-.032-1.248.598-.695 1.247-1.306 2.032-1.89v6.328zm-8.293-6.897c.391.391.391 1.023 0 1.414l-4.27 4.269c.809.007 1.617-.023 2.421-.138.545-.08 1.054.302 1.132.849.078.546-.302 1.053-.849 1.131-1.697.242-3.416.242-5.111 0-.439-.062-.785-.408-.849-.848-.243-1.697-.243-3.417 0-5.113.079-.546.589-.92 1.132-.848.547.078.927.585.849 1.132-.116.803-.147 1.612-.139 2.42l4.27-4.27c.391-.391 1.023-.391 1.414 0z"/></svg>