<svg id="Layer_1" viewBox="0 0 24 24" xmlns="http://www.w3.org/2000/svg" data-name="Layer 1"><path d="m22.493 6.13c-.313-.178-.698-.174-1.007.013-1.084.651-1.976 1.312-2.77 2.027-.24-1.571-.548-2.499-.57-2.561-.095-.279-.309-.501-.583-.608-.105-.041-2.632-1.001-7.562-1.001s-7.458.96-7.562 1.001c-.274.107-.488.329-.583.608-.035.102-.854 2.536-.854 6.391s.819 6.289.854 6.391c.095.278.309.501.583.607.105.041 2.632 1.002 7.562 1.002s7.458-.961 7.562-1.002c.275-.106.488-.329.583-.607.021-.061.328-.985.567-2.548.916.86 1.874 1.569 2.839 2.052.634.341 1.469-.174 1.447-.895v-10c0-.36-.194-.693-.507-.87zm-6.105 11.145c-.876.246-3.018.726-6.388.726s-5.514-.479-6.388-.725c-.214-.829-.612-2.71-.612-5.275s.398-4.447.612-5.275c.876-.246 3.018-.725 6.388-.725s5.513.479 6.388.725c.215.829.612 2.71.612 5.275s-.397 4.446-.612 5.274zm4.612-2.084c-.697-.533-1.381-1.197-2.031-1.962.018-.393.031-.799.031-1.229 0-.437-.013-.849-.032-1.248.598-.696 1.247-1.306 2.032-1.89v6.328zm-6.182-6.16c.242 1.696.242 3.415 0 5.111-.075.549-.596.928-1.131.849-.547-.078-.927-.585-.849-1.132.115-.803.146-1.612.138-2.421l-4.27 4.27c-.391.391-1.023.391-1.414 0s-.391-1.023 0-1.414l4.27-4.27c-.809-.008-1.618.023-2.422.138-.539.081-1.053-.301-1.131-.849-.078-.546.302-1.053.849-1.131 1.696-.242 3.416-.242 5.111 0 .44.062.786.408.849.849z"/></svg>