<svg id="Layer_1" viewBox="0 0 24 24" xmlns="http://www.w3.org/2000/svg" data-name="Layer 1"><path d="m22.707 2.707c.391-.391.391-1.023 0-1.414s-1.023-.391-1.414 0l-4.415 4.415c-2.89-2.48-5.533-2.265-8.467.654-.328.327-.389.836-.147 1.231.304.496.468.995-.604 2.067-1.161 1.162-1.73.999-2.642.157-.397-.367-1.014-.352-1.392.034-3.291 3.351-3.483 6.369-.574 9.683l-.759.759c-.391.391-.391 1.023 0 1.414s1.023.391 1.414 0l.758-.758c1.554 1.364 3.043 2.048 4.532 2.048 1.687 0 3.373-.875 5.153-2.623.386-.378.4-.995.034-1.392-.842-.912-1.006-1.48.156-2.642 1.072-1.073 1.57-.909 2.067-.604.396.242.904.181 1.231-.147 2.92-2.934 3.134-5.577.654-8.467zm-6.008 10.965c-1.876-.644-3.274.756-3.772 1.255-1.559 1.559-1.835 3.079-.832 4.625-2.463 2.117-4.354 1.892-6.946-.7-2.591-2.591-2.819-4.482-.7-6.946 1.546 1.004 3.067.727 4.625-.832.498-.498 1.896-1.896 1.255-3.772 1.871-1.663 3.297-1.718 5.134-.178l-5.169 5.169c-.391.391-.391 1.023 0 1.414s1.023.391 1.414 0l5.169-5.169c1.541 1.837 1.485 3.264-.178 5.134zm.301-11.672c0-.552.448-1 1-1s1 .448 1 1-.448 1-1 1-1-.448-1-1zm6.015 4c0 .561-.454 1.015-1.015 1.015s-1.015-.454-1.015-1.015.454-1.015 1.015-1.015 1.015.455 1.015 1.015zm-13.308 10.293c.391.391.391 1.023 0 1.414s-1.023.391-1.414 0l-2-2c-.391-.391-.391-1.023 0-1.414s1.023-.391 1.414 0z"/></svg>