<svg id="Layer_1" viewBox="0 0 24 24" xmlns="http://www.w3.org/2000/svg" data-name="Layer 1"><path d="m13.4 17.936c-.426.043-.896.064-1.4.064-4.43 0-6-1.57-6-6 0-.504.021-.975.064-1.4.041-.413-.177-.809-.548-.994-1.177-.589-3.28-.605-3.517-.605-.553 0-1 .447-1 1s.447 1 1 1c.442 0 1.339.053 2.018.201-.012.258-.018.524-.018.799 0 .271.011.528.023.784-.64.154-1.506.215-2.024.216-.552 0-.999.448-.999 1.001 0 .552.448.999 1 .999.162 0 1.232-.013 2.261-.226.096.45.225.862.375 1.251-1.742.123-2.636 1.114-2.636 2.975 0 1.99 1.01 3 3 3 1.861 0 2.853-.894 2.975-2.636.389.15.801.279 1.251.375-.214 1.029-.226 2.099-.226 2.261 0 .552.447.999.999 1 .552 0 .999-.447 1-.999 0-.517.063-1.384.216-2.024.256.012.513.023.784.023.274 0 .542-.006.8-.018.142.646.199 1.5.2 2.019 0 .552.448.999 1 .999.552 0 .999-.448.999-1 0-.236-.017-2.34-.605-3.517-.186-.371-.586-.586-.994-.548zm-8.4 2.064c-.879 0-1-.121-1-1s.121-1 1-1 1 .121 1 1-.121 1-1 1zm17.729 1.293-.94-.94c.138-.384.212-.829.212-1.353 0-1.855-.888-2.846-2.618-2.974.148-.386.272-.8.366-1.25 1.026.212 2.091.225 2.252.225.552 0 .999-.447 1-.999 0-.553-.447-1-.999-1.001-.517 0-1.383-.062-2.022-.216.011-.255.021-.512.021-.784s-.011-.528-.023-.784c.64-.154 1.506-.215 2.024-.216.552 0 .999-.448.999-1.001 0-.552-.448-.999-1-.999-.162 0-1.232.013-2.261.226-.096-.45-.225-.862-.375-1.251 1.742-.123 2.636-1.114 2.636-2.975 0-1.99-1.01-3-3-3-1.861 0-2.853.894-2.975 2.636-.389-.15-.801-.279-1.251-.375.214-1.029.226-2.099.226-2.261 0-.552-.447-.999-.999-1-.552 0-.999.447-1 .999 0 .517-.063 1.384-.216 2.024-.256-.012-.513-.023-.784-.023s-.529.01-.784.021c-.153-.639-.215-1.505-.216-2.022 0-.552-.448-.999-1-.999-.552 0-.999.448-.999 1 0 .161.013 1.226.225 2.252-.451.094-.864.218-1.25.366-.128-1.73-1.12-2.618-2.974-2.618-.523 0-.969.073-1.353.212l-.919-.919c-.391-.391-1.023-.391-1.414 0s-.391 1.023 0 1.414l19.996 19.999c.391.391 1.023.391 1.414 0s.391-1.023 0-1.414zm-3.729-17.293c.879 0 1 .121 1 1s-.121 1-1 1-1-.121-1-1 .121-1 1-1zm-1 8c0 1.665-.241 2.929-.728 3.837l-2.411-2.411c.182.048.391.074.638.074 1.071 0 1.5-.429 1.5-1.5s-.429-1.5-1.5-1.5-1.5.429-1.5 1.5c0 .247.026.457.074.638l-2.713-2.713c.182.048.391.074.638.074 1.071 0 1.5-.429 1.5-1.5s-.429-1.5-1.5-1.5-1.5.429-1.5 1.5c0 .247.026.457.074.638l-2.411-2.411c.908-.487 2.172-.728 3.837-.728 4.43 0 6 1.57 6 6zm-9.513 1.513c-1.071 0-1.5-.429-1.5-1.5 0-.271.028-.501.086-.693l2.106 2.106c-.192.058-.422.086-.693.086zm3.5 3.5c-1.071 0-1.5-.429-1.5-1.5 0-.271.028-.501.086-.693l2.106 2.106c-.192.058-.422.086-.693.086z"/></svg>