<svg id="Layer_1" viewBox="0 0 24 24" xmlns="http://www.w3.org/2000/svg" data-name="Layer 1"><path d="m13.5 8.5c0 1.071-.429 1.5-1.5 1.5s-1.5-.429-1.5-1.5.429-1.5 1.5-1.5 1.5.429 1.5 1.5zm-1.5 5.5c-1.071 0-1.5.429-1.5 1.5s.429 1.5 1.5 1.5 1.5-.429 1.5-1.5-.429-1.5-1.5-1.5zm-3.5-3.5c-1.071 0-1.5.429-1.5 1.5s.429 1.5 1.5 1.5 1.5-.429 1.5-1.5-.429-1.5-1.5-1.5zm7 0c-1.071 0-1.5.429-1.5 1.5s.429 1.5 1.5 1.5 1.5-.429 1.5-1.5-.429-1.5-1.5-1.5zm7.5 3.501c0 .552-.448.999-1 .999-.162 0-1.232-.013-2.261-.226-.096.45-.225.862-.375 1.251 1.742.123 2.636 1.114 2.636 2.975 0 1.99-1.01 3-3 3-1.861 0-2.853-.894-2.975-2.636-.389.15-.801.279-1.251.375.214 1.029.226 2.099.226 2.261 0 .552-.447.999-.999 1-.552 0-.999-.447-1-.999 0-.517-.063-1.384-.216-2.024-.256.012-.513.023-.784.023s-.528-.011-.784-.023c-.154.64-.215 1.506-.216 2.024 0 .552-.448.999-1 .999-.552 0-.999-.448-.999-1 0-.162.013-1.232.226-2.261-.45-.096-.862-.225-1.251-.375-.123 1.742-1.114 2.636-2.975 2.636-1.99 0-3-1.01-3-3 0-1.861.894-2.853 2.636-2.975-.15-.389-.279-.801-.375-1.251-1.029.214-2.099.226-2.261.226-.552 0-.999-.447-1-.999 0-.553.447-1 .999-1.001.517 0 1.384-.063 2.024-.216-.012-.256-.023-.513-.023-.784s.011-.528.023-.784c-.64-.154-1.506-.215-2.024-.216-.552 0-.999-.448-.999-1.001 0-.552.448-.999 1-.999.162 0 1.232.013 2.261.226.096-.45.225-.862.375-1.251-1.742-.123-2.636-1.114-2.636-2.975 0-1.99 1.01-3 3-3 1.861 0 2.853.894 2.975 2.636.389-.15.801-.279 1.251-.375-.214-1.029-.226-2.099-.226-2.261 0-.552.447-.999.999-1 .552 0 .999.447 1 .999 0 .517.063 1.384.216 2.024.256-.012.513-.023.784-.023s.528.011.784.023c.154-.64.215-1.506.216-2.024 0-.552.448-.999 1-.999.552 0 .999.448.999 1 0 .162-.013 1.232-.226 2.261.45.096.862.225 1.251.375.123-1.742 1.114-2.636 2.975-2.636 1.99 0 3 1.01 3 3 0 1.861-.894 2.853-2.636 2.975.15.389.279.801.375 1.251 1.029-.214 2.099-.226 2.261-.226.552 0 .999.447 1 .999 0 .553-.447 1-.999 1.001-.517 0-1.384.063-2.024.216.012.256.023.513.023.784s-.011.528-.023.784c.64.154 1.506.215 2.024.216.552 0 .999.448.999 1.001zm-5-9.001c0 .879.121 1 1 1s1-.121 1-1-.121-1-1-1-1 .121-1 1zm-13 1c.879 0 1-.121 1-1s-.121-1-1-1-1 .121-1 1 .121 1 1 1zm1 13c0-.879-.121-1-1-1s-1 .121-1 1 .121 1 1 1 1-.121 1-1zm6-1c4.43 0 6-1.57 6-6s-1.57-6-6-6-6 1.57-6 6 1.57 6 6 6zm7 0c-.879 0-1 .121-1 1s.121 1 1 1 1-.121 1-1-.121-1-1-1z"/></svg>