<svg id="Layer_1" viewBox="0 0 24 24" xmlns="http://www.w3.org/2000/svg" data-name="Layer 1"><path d="m12 10.5c0-1.02-.396-1.453-1.358-1.492.126-.304.227-.633.284-1.008h1.074c.552 0 1-.447 1-1s-.448-1-1-1h-1.074c-.057-.375-.158-.704-.284-1.008.962-.039 1.358-.472 1.358-1.492 0-1.071-.429-1.5-1.5-1.5-1.02 0-1.453.396-1.492 1.358-.304-.126-.633-.227-1.008-.284v-1.074c0-.553-.448-1-1-1s-1 .447-1 1v1.074c-.375.057-.704.158-1.008.284-.039-.962-.472-1.358-1.492-1.358-1.071 0-1.5.429-1.5 1.5 0 1.02.396 1.453 1.358 1.492-.126.304-.227.633-.284 1.008h-1.074c-.552 0-1 .447-1 1s.448 1 1 1h1.074c.057.375.158.704.284 1.008-.962.039-1.358.472-1.358 1.492 0 1.071.429 1.5 1.5 1.5 1.02 0 1.453-.396 1.492-1.358.304.126.633.227 1.008.284v1.074c0 .553.448 1 1 1s1-.447 1-1v-1.074c.375-.057.704-.158 1.008-.284.039.962.472 1.358 1.492 1.358 1.071 0 1.5-.429 1.5-1.5zm-5-1.5c-1.589 0-2-.411-2-2s.411-2 2-2 2 .411 2 2-.411 2-2 2zm15 7h-1.074c-.057-.375-.158-.704-.284-1.008.962-.039 1.358-.472 1.358-1.492 0-1.071-.429-1.5-1.5-1.5-1.02 0-1.453.396-1.492 1.358-.304-.126-.633-.227-1.008-.284v-1.074c0-.553-.448-1-1-1s-1 .447-1 1v1.074c-.375.057-.704.158-1.008.284-.039-.962-.472-1.358-1.492-1.358-1.071 0-1.5.429-1.5 1.5 0 1.02.396 1.453 1.358 1.492-.126.304-.227.633-.284 1.008h-1.074c-.552 0-1 .447-1 1s.448 1 1 1h1.074c.057.375.158.704.284 1.008-.962.039-1.358.472-1.358 1.492 0 1.071.429 1.5 1.5 1.5 1.02 0 1.453-.396 1.492-1.358.304.126.633.227 1.008.284v1.074c0 .553.448 1 1 1s1-.447 1-1v-1.074c.375-.057.704-.158 1.008-.284.039.962.472 1.358 1.492 1.358 1.071 0 1.5-.429 1.5-1.5 0-1.02-.396-1.453-1.358-1.492.126-.304.227-.633.284-1.008h1.074c.552 0 1-.447 1-1s-.448-1-1-1zm-5 3c-1.589 0-2-.411-2-2s.411-2 2-2 2 .411 2 2-.411 2-2 2z"/></svg>