<svg id="Layer_1" viewBox="0 0 24 24" xmlns="http://www.w3.org/2000/svg" data-name="Layer 1"><path d="m13 6c0 .55-.45 1-1 1h-1c-.55 0-1-.45-1-1s.45-1 1-1h1c.55 0 1 .45 1 1zm0 4c0-.55-.45-1-1-1h-1c-.55 0-1 .45-1 1s.45 1 1 1h1c.55 0 1-.45 1-1zm-1.12 10.8c-1.09.13-2.06.2-2.88.2-1.94 0-4.24-.37-5.35-.57-.21-1.38-.65-4.73-.65-8.43s.44-7.05.65-8.43c1.11-.2 3.41-.57 5.35-.57s4.24.37 5.35.57c.13.87.36 2.5.5 4.51.04.55.53.97 1.07.92.55-.04.96-.52.92-1.07-.23-3.1-.62-5.3-.64-5.39-.07-.4-.38-.72-.78-.8-.14-.03-3.56-.74-6.43-.74s-6.28.71-6.43.74c-.4.08-.71.4-.78.8-.03.18-.79 4.43-.79 9.46s.76 9.29.79 9.46c.07.4.38.72.78.8.14.03 3.56.74 6.43.74.9 0 1.95-.07 3.12-.21.55-.07.94-.56.88-1.11s-.56-.95-1.11-.88zm-4.88-7.8h-1c-.55 0-1 .45-1 1s.45 1 1 1h1c.55 0 1-.45 1-1s-.45-1-1-1zm0 4h-1c-.55 0-1 .45-1 1s.45 1 1 1h1c.55 0 1-.45 1-1s-.45-1-1-1zm11-2c-.55 0-1 .45-1 1s.45 1 1 1 1-.45 1-1-.45-1-1-1zm5 1c0 3.25-3.93 6.43-4.38 6.79-.18.14-.4.21-.62.21s-.44-.07-.62-.21c-.45-.35-4.38-3.54-4.38-6.79 0-3.41 1.59-5 5-5s5 1.59 5 5zm-2 0c0-2.3-.7-3-3-3s-3 .7-3 3c0 1.6 1.84 3.62 3 4.69 1.19-1.08 3-3.07 3-4.69zm-14-11h-1c-.55 0-1 .45-1 1s.45 1 1 1h1c.55 0 1-.45 1-1s-.45-1-1-1zm0 4h-1c-.55 0-1 .45-1 1s.45 1 1 1h1c.55 0 1-.45 1-1s-.45-1-1-1zm4 4c-.55 0-1 .45-1 1s.45 1 1 1 1-.45 1-1-.45-1-1-1zm0 4c-.55 0-1 .45-1 1s.45 1 1 1 1-.45 1-1-.45-1-1-1z"/></svg>