<svg id="Layer_1" viewBox="0 0 24 24" xmlns="http://www.w3.org/2000/svg" data-name="Layer 1"><path d="m21.666 17.352c.122-1.177.334-3.485.334-5.352 0-6.103-1.078-9.206-1.124-9.335-.105-.295-.342-.524-.641-.618-.135-.043-3.364-1.047-7.735-1.047-1.483 0-3.312.118-4.446.287-.303.045-.568.227-.72.492-1.112 1.941-2.544 4.658-3.755 8.462-2.55 8.012-2.579 11.61-2.579 11.759 0 .551.446.997.997.998h.003c.55 0 .997-.445 1-.995 0-.034.051-3.46 2.438-11.003h14.545c.007.329.017.65.017 1 0 1.695-.192 3.847-.311 5.021-1.777.106-2.689 1.099-2.689 2.979 0 1.99 1.009 3 3 3s3-1.01 3-3c0-1.32-.454-2.199-1.334-2.648zm-15.541-8.352c.892-2.407 1.839-4.266 2.7-5.797 1.041-.121 2.495-.203 3.675-.203 3.089 0 5.603.551 6.631.815.208.784.591 2.519.771 5.185zm13.875 12c-.878 0-1-.121-1-1s.122-1 1-1 1 .121 1 1-.122 1-1 1z"/></svg>