<svg id="Layer_1" viewBox="0 0 24 24" xmlns="http://www.w3.org/2000/svg" data-name="Layer 1"><path d="m15.921 7.199c-.071-.009-1.773-.199-3.921-.199s-3.849.19-3.92.199c-.422.048-.768.357-.862.771-.009.039-.217.968-.217 2.029s.208 1.99.217 2.029c.095.417.444.728.869.772.076.009 1.884.198 3.914.198s3.838-.189 3.913-.198c.426-.045.774-.355.869-.772.01-.039.218-.968.218-2.029s-.208-1.99-.218-2.029c-.094-.414-.439-.724-.861-.771zm-.976 3.681c-1.393.107-4.499.107-5.891 0-.03-.257-.054-.562-.054-.88s.024-.625.055-.882c.675-.054 1.744-.118 2.945-.118s2.271.064 2.945.118c.03.257.055.563.055.882s-.024.623-.055.88zm5.173-6.446c-.111-.258-.326-.457-.591-.549-.104-.036-2.616-.885-7.527-.885-.355 0-.67.013-1 .021v-1.021c0-.553-.448-1-1-1s-1 .447-1 1v1.118c-.769.061-1.427.14-2 .226v-1.344c0-.553-.448-1-1-1s-1 .447-1 1v1.732c-.325.084-.501.144-.527.153-.266.092-.48.291-.591.549-.036.083-.882 2.081-.882 5.566s.845 5.494.881 5.578c.113.265.334.467.607.557.014.004.238.077.65.179.23 3.049.668 4.931.688 5.016.071.303.279.555.562.683.09.04 2.235.988 5.611.988s5.521-.948 5.61-.988c.284-.128.492-.38.563-.683.02-.085.458-1.967.688-5.016.412-.102.637-.175.65-.179.272-.09.493-.292.606-.557.036-.084.881-2.095.881-5.578s-.846-5.483-.882-5.566zm-1.69 9.928c-.185.046-.422.101-.71.158-.445.09-.773.468-.801.921-.141 2.352-.429 4.098-.584 4.915-.724.238-2.261.645-4.333.645s-3.61-.406-4.333-.645c-.156-.817-.443-2.563-.584-4.915-.027-.453-.356-.831-.801-.921-.288-.058-.526-.112-.71-.159-.211-.693-.573-2.198-.573-4.36s.362-3.662.572-4.349c.876-.22 3.03-.651 6.428-.651s5.554.432 6.428.651c.21.688.572 2.187.572 4.349s-.362 3.669-.572 4.361zm-7.428 1.639c0 .552-.448 1-1 1s-1-.448-1-1 .448-1 1-1 1 .448 1 1zm4 0c0 .552-.448 1-1 1s-1-.448-1-1 .448-1 1-1 1 .448 1 1z"/></svg>