<svg id="Layer_1" viewBox="0 0 24 24" xmlns="http://www.w3.org/2000/svg" data-name="Layer 1"><path d="m19.876 2.665c-.099-.278-.315-.498-.591-.602-.116-.043-2.888-1.063-7.285-1.063s-7.168 1.02-7.284 1.063c-.276.104-.492.324-.591.602-.046.129-1.125 3.232-1.125 9.335s1.079 9.206 1.125 9.335c.099.278.315.498.591.602.116.043 2.887 1.063 7.284 1.063s7.169-1.02 7.285-1.063c.275-.104.492-.324.591-.602.046-.129 1.124-3.233 1.124-9.335s-1.078-9.206-1.124-9.335zm-1.751 17.543c-.906.263-3.101.792-6.125.792s-5.219-.528-6.125-.792c-.275-1.029-.875-3.782-.875-8.208s.601-7.182.875-8.208c.906-.263 3.101-.792 6.125-.792s5.221.528 6.125.792c.275 1.029.875 3.782.875 8.208s-.601 7.182-.875 8.208zm-11.125-14.208c0-.552.448-1 1-1s1 .448 1 1-.448 1-1 1-1-.448-1-1zm3 0c0-.552.448-1 1-1s1 .448 1 1-.448 1-1 1-1-.448-1-1zm6.954 7.27c-.226-2.894-1.804-4.27-4.954-4.27-3.411 0-5 1.589-5 5 .026.25 0 .487.046.731.226 2.894 1.804 4.269 4.954 4.269 3.411 0 5-1.589 5-5-.025-.25 0-.486-.046-.73zm-4.954-2.27c1.978 0 2.769.526 2.953 2.136-.256.208-.675.448-1.172.335-.324-.071-1.486-.427-1.489-.428-.211-.064-1.28-.388-1.639-.467-.551-.122-1.059-.079-1.517.046.293-1.21 1.114-1.623 2.865-1.623zm0 6c-1.977 0-2.768-.526-2.952-2.133.257-.207.678-.447 1.172-.338.324.071 1.485.427 1.488.428.506.138 1.695.569 2.324.543.294 0 .571-.046.832-.118-.294 1.206-1.115 1.618-2.864 1.618z"/></svg>