<svg id="Layer_1" viewBox="0 0 24 24" xmlns="http://www.w3.org/2000/svg" data-name="Layer 1"><path d="m19.211 4.323c-.098-.337-.364-.599-.703-.689-.025-.007-.198-.051-.505-.114l-.003-1.522c0-.552-.448-.998-1-.998h-.002c-.553 0-.999.45-.998 1.002l.002 1.213c-1.04-.118-2.374-.215-4.002-.215-1.605 0-2.945.101-3.998.221l-.002-1.223c0-.552-.448-.998-1-.998h-.002c-.553 0-.999.45-.998 1.002l.003 1.52c-.301.06-.472.102-.497.108-.345.087-.618.351-.717.692-.032.112-.789 2.792-.789 7.677s.757 7.565.789 7.678c.099.342.372.605.717.692.025.006.195.048.491.107l.003 1.525c0 .552.448.998 1 .998h.002c.553 0 .999-.449.998-1.002l-.002-1.22c1.053.121 2.395.222 4.002.222s2.945-.101 3.998-.221l.002 1.223c0 .552.448.998 1 .998h.002c.553 0 .999-.449.998-1.002l-.003-1.52c.301-.059.472-.102.497-.108.345-.087.618-.351.717-.692.032-.112.789-2.793.789-7.678s-.757-7.565-.789-7.677zm-1.788 14.228c-.907.167-2.823.449-5.423.449s-4.516-.282-5.423-.449c-.206-.989-.577-3.231-.577-6.551s.371-5.562.577-6.55c.907-.167 2.823-.45 5.423-.45 2.671 0 4.541.278 5.422.445.205.986.578 3.23.578 6.555s-.371 5.562-.577 6.551zm-2.716-5.258c.391.391.391 1.023 0 1.414s-1.023.391-1.414 0l-2-2c-.188-.188-.293-.442-.293-.707v-4c0-.552.447-1 1-1s1 .448 1 1v3.586z"/></svg>