<svg id="Layer_1" viewBox="0 0 24 24" xmlns="http://www.w3.org/2000/svg" data-name="Layer 1"><path d="m21 12c0-3.716-.943-6.168-3-7.563v-2.437c0-.553-.448-1-1-1s-1 .447-1 1v1.502c-1.126-.337-2.453-.502-4-.502s-2.874.164-4 .502v-1.502c0-.553-.448-1-1-1s-1 .447-1 1v2.437c-2.057 1.395-3 3.847-3 7.563s.943 6.168 3 7.563v2.437c0 .553.448 1 1 1s1-.447 1-1v-1.502c1.126.337 2.453.502 4 .502s2.874-.164 4-.502v1.502c0 .553.448 1 1 1s1-.447 1-1v-2.437c2.057-1.395 3-3.847 3-7.563zm-16 0c0-5.168 1.832-7 7-7s7 1.832 7 7-1.832 7-7 7-7-1.832-7-7zm9.707 1.293c.391.391.391 1.023 0 1.414s-1.023.391-1.414 0l-2-2c-.188-.188-.293-.441-.293-.707v-4c0-.553.448-1 1-1s1 .447 1 1v3.586z"/></svg>