<svg id="Layer_1" viewBox="0 0 24 24" xmlns="http://www.w3.org/2000/svg" data-name="Layer 1"><path d="m23 20.022c-.021.891-.4 2.963-3.496 2.978-1.047-.005-1.889-.275-2.489-.758-.521.436-1.31.753-2.51.758-1.193-.006-1.981-.316-2.504-.746-.521.43-1.307.74-2.497.746-1.047-.005-1.889-.275-2.488-.758-.521.436-1.31.753-2.511.758-2.159-.011-3.466-1.124-3.506-2.979-.012-.552.427-1.01.979-1.021.562-.005 1.01.427 1.021.979.008.354.021 1.015 1.506 1.021 1.413-.007 1.483-.567 1.494-.97.004-.561.461-1.027 1.025-1.03.547.034.973.486.977 1.034.011.364.092.959 1.503.966 1.474-.007 1.487-.618 1.496-1.022.034-.541.478-.972 1.022-.978.528.035.942.45.977.978.01.429.022 1.016 1.506 1.022 1.409-.007 1.482-.522 1.494-.963-.003-.562.462-1.037 1.026-1.037.551.034.979.494.976 1.045.013.365.106.948 1.503.955 1.474-.007 1.487-.618 1.496-1.022.013-.544.458-.978 1-.978h.022c.552.013.989.471.978 1.022zm-18-4.022v-11c0-2.691 1.309-4 4-4 .553 0 1 .447 1 1s-.447 1-1 1c-1.589 0-2 .411-2 2v1.381c1.051-.179 2.722-.381 5-.381s3.949.202 5 .381v-1.381c0-2.691 1.309-4 4-4 .553 0 1 .447 1 1s-.447 1-1 1c-1.589 0-2 .411-2 2v11c0 .553-.447 1-1 1s-1-.447-1-1v-1.588c-.889-.169-2.579-.412-5-.412s-4.111.243-5 .412v1.588c0 .553-.447 1-1 1s-1-.447-1-1zm2-7.588v3.968c1.051-.179 2.722-.381 5-.381s3.949.202 5 .381v-3.968c-.889-.169-2.579-.412-5-.412s-4.111.243-5 .412z"/></svg>