<svg id="Layer_1" viewBox="0 0 24 24" xmlns="http://www.w3.org/2000/svg" data-name="Layer 1"><path d="m21.97 2.758c-.082-.332-.329-.599-.653-.706-.129-.043-3.225-1.052-9.316-1.052s-9.189 1.009-9.317 1.052c-.324.107-.571.374-.653.706-.042.168-1.03 4.166-1.03 8.242s.988 8.074 1.03 8.242c.082.332.329.599.653.706.03.011.753.249 2.144.494.542.089 1.062-.269 1.158-.812.095-.544-.269-1.062-.812-1.158-.577-.101-1.021-.2-1.331-.276-.264-1.217-.842-4.222-.842-7.195 0-.672.033-1.345.082-2h17.837c.049.655.081 1.327.081 2 0 2.967-.578 5.978-.842 7.195-.31.076-.754.176-1.331.276-.544.096-.907.614-.812 1.158.094.547.627.908 1.158.812 1.391-.245 2.113-.483 2.144-.494.324-.107.571-.374.653-.706.042-.168 1.03-4.166 1.03-8.242s-.988-8.074-1.03-8.242zm-18.68 4.242c.184-1.385.411-2.546.552-3.194 1.081-.265 3.816-.806 8.158-.806s7.079.541 8.158.806c.14.648.368 1.809.552 3.194zm3.71-2c0 .553-.447 1-1 1s-1-.447-1-1 .447-1 1-1 1 .447 1 1zm3 0c0 .553-.447 1-1 1s-1-.447-1-1 .447-1 1-1 1 .447 1 1zm2 10c-.438 0-.832.061-1.205.15l-.328-.328c-.391-.391-1.023-.391-1.414 0l-1.23 1.23c-.391.391-.391 1.023 0 1.414l.328.328c-.089.373-.15.768-.15 1.205 0 2.505 1.495 4 4 4s4-1.495 4-4-1.495-4-4-4zm0 6c-1.383 0-2-.617-2-2 0-.582.117-1.021.346-1.343l.311-.311c.322-.23.761-.346 1.343-.346 1.383 0 2 .617 2 2s-.617 2-2 2zm4.785-6.54-.277-.968-.968-.277c-.72-.206-.72-1.225 0-1.431l.968-.277.277-.968c.206-.719 1.225-.719 1.431 0l.277.968.968.277c.72.206.72 1.225 0 1.431l-.968.277-.277.968c-.206.72-1.225.72-1.431 0zm-9.684.557c-.54.028-1.013-.381-1.047-.928-.009-.133-.059-1.322.776-2.212.376-.399 1.07-.877 2.247-.877 2.161 0 3.912.025 3.912.025.552.008.993.462.985 1.015-.008.552-.456.964-1.015.985-.003 0-1.739-.025-3.883-.025-.366 0-.629.081-.783.239-.213.222-.248.606-.243.735.019.547-.404 1.015-.95 1.042z"/></svg>