<svg id="Layer_1" viewBox="0 0 24 24" xmlns="http://www.w3.org/2000/svg" data-name="Layer 1"><path d="m12 6c-2.691 0-4 1.309-4 4s1.309 4 4 4 4-1.309 4-4-1.309-4-4-4zm0 6c-1.589 0-2-.411-2-2s.411-2 2-2 2 .411 2 2-.411 2-2 2zm9-2c0-6.309-2.691-9-9-9s-9 2.691-9 9c0 4.758 1.533 7.456 4.992 8.496-.58.717-.911 1.685-.978 2.951-.024.448.254.857.68 1 .067.022 1.673.552 4.306.552s4.239-.53 4.306-.552c.425-.143.704-.552.68-1-.067-1.266-.398-2.234-.978-2.951 3.459-1.04 4.992-3.738 4.992-8.496zm-6.104 10.738c-.63.124-1.623.262-2.896.262s-2.266-.139-2.896-.262c.228-1.154.908-1.738 2.896-1.738s2.668.584 2.896 1.738zm-2.896-3.738c-5.168 0-7-1.832-7-7s1.832-7 7-7 7 1.832 7 7-1.832 7-7 7z"/></svg>