<svg id="Layer_1" viewBox="0 0 24 24" xmlns="http://www.w3.org/2000/svg"><path d="m3 13c0-1.089.064-2.112.156-3.045.664-.171 3.964-.955 8.844-.955s8.188.786 8.848.956c.064.658.114 1.361.138 2.101.017.552.48.967 1.03.968.552-.018.985-.479.969-1.031-.129-4.098-.986-7.142-1.022-7.27-.096-.332-.354-.592-.688-.687-.069-.02-.878-.245-2.274-.48v-1.558c0-.552-.447-1-1-1s-1 .448-1 1v1.278c-1.388-.158-3.069-.278-5-.278s-3.612.12-5 .278v-1.278c0-.552-.448-1-1-1s-1 .448-1 1v1.558c-1.397.236-2.206.461-2.275.481-.332.095-.592.354-.687.687-.042.148-1.039 3.688-1.039 8.275s.996 8.126 1.039 8.274c.15.536.719.839 1.235.687.531-.15.839-.704.688-1.235-.01-.033-.962-3.433-.962-7.726zm9-8c4.053 0 7.011.562 8.178.827.104.442.251 1.141.393 2.009-1.449-.314-4.472-.837-8.57-.837s-7.122.523-8.571.837c.142-.872.29-1.567.393-2.009 1.167-.265 4.125-.827 8.178-.827zm.099 10.83c-.141 3.794-1.393 6.585-1.446 6.701-.128.284-.416.47-.728.469-.269 0-.521-.135-.669-.361-.023-.035-.342-.53-.706-1.431-.363.9-.683 1.396-.706 1.431-.159.244-.431.379-.73.359-.291-.022-.546-.201-.667-.467-.053-.116-1.305-2.907-1.446-6.701-.017-.441.328-.813.77-.83.439 0 .812.328.829.77.063 1.697.375 3.189.678 4.273.175-.509.35-1.123.487-1.834.073-.377.402-.648.786-.648s.713.271.786.648c.137.711.312 1.325.487 1.834.303-1.084.614-2.576.678-4.273.017-.441.391-.765.829-.77.441.017.786.388.77.83zm2.515.912c-.047.375-.102.915-.13 1.526.359-.031.789-.06 1.247-.073.489 0 .81.336.822.777s-.336.81-.777.822c-.478.013-.928.047-1.284.08.029.543.077 1.024.12 1.363.474.069 1.206.152 1.986.152.441 0 .8.358.8.8s-.358.8-.8.8c-1.5 0-2.801-.266-2.855-.277-.32-.066-.567-.32-.625-.642-.011-.058-.252-1.422-.252-3.069s.241-3.03.251-3.088c.058-.323.305-.578.625-.645.055-.012 1.355-.278 2.856-.278.441 0 .8.358.8.8s-.358.8-.8.8c-.779 0-1.511.084-1.985.153zm5.472-1.742c-.623 0-1.329.122-1.359.127-.317.056-.571.296-.643.611-.012.051-.284 1.275-.284 3.262s.273 3.197.285 3.248c.07.307.314.543.623.604.03.007.746.147 1.378.147 2.914 0 2.914-2.906 2.914-4s0-4-2.914-4zm0 6.4c-.173 0-.361-.016-.531-.035-.07-.49-.155-1.305-.155-2.365s.085-1.874.154-2.37c.175-.017.363-.03.532-.03.616 0 1.314 0 1.314 2.4s-.698 2.4-1.314 2.4z"/></svg>