<svg id="Layer_1" viewBox="0 0 24 24" xmlns="http://www.w3.org/2000/svg" data-name="Layer 1"><path d="m22.71 7.68c-2.991-3.018-6.795-4.68-10.71-4.68s-7.719 1.662-10.71 4.68c-.389.392-.386 1.025.006 1.414.392.388 1.025.386 1.414-.006 2.613-2.636 5.913-4.088 9.29-4.088s6.677 1.452 9.29 4.088c.195.197.829.556 1.414.006.402-.378.395-1.022.006-1.414z"/><path d="m12 9.818c-2.437 0-4.757 1.041-6.71 3.011-.389.393-.386 1.025.006 1.415.393.388 1.024.385 1.415-.006 1.569-1.583 3.398-2.419 5.29-2.419s3.721.836 5.29 2.419c.196.197.823.57 1.415.006.4-.381.395-1.022.006-1.415-1.953-1.97-4.273-3.011-6.71-3.011z"/><circle cx="12" cy="18.497" r="2.5"/></svg>