<svg id="Layer_1" viewBox="0 0 24 24" xmlns="http://www.w3.org/2000/svg" data-name="Layer 1"><path d="m7.684 3.68c-2.364.759-4.516 2.105-6.394 4-.389.392-.394 1.033.006 1.414.574.547 1.219.191 1.414-.006 1.65-1.665 3.529-2.843 5.585-3.503.526-.169.815-.732.646-1.258-.17-.526-.732-.814-1.258-.646z"/><path d="m22.703 7.68c-1.878-1.895-4.029-3.24-6.394-4-.525-.167-1.088.12-1.258.646-.169.526.12 1.089.646 1.258 2.056.66 3.935 1.839 5.585 3.503.195.197.84.553 1.414.006.4-.381.395-1.022.006-1.414z"/><path d="m7.478 11.103c-.771.459-1.507 1.04-2.188 1.727-.389.392-.388 1.026.006 1.414.561.553 1.219.191 1.414-.006.562-.567 1.165-1.043 1.791-1.416.475-.283.63-.896.348-1.371-.283-.475-.896-.63-1.371-.348z"/><path d="m16.525 11.103c-.475-.282-1.088-.126-1.371.348-.282.474-.127 1.088.348 1.371.626.373 1.229.849 1.791 1.416.195.197.853.558 1.414.006.394-.388.395-1.022.006-1.414-.681-.687-1.417-1.268-2.188-1.727z"/><circle cx="12" cy="18.497" r="2.5"/><path d="m12 14c.553 0 1-.448 1-1v-9c0-.552-.447-1-1-1s-1 .448-1 1v9c0 .552.447 1 1 1z"/></svg>