<svg id="Layer_1" viewBox="0 0 24 24" xmlns="http://www.w3.org/2000/svg" data-name="Layer 1"><path d="m15.625 8.777c-.092-.032-2.308-.777-6.625-.777s-6.533.745-6.625.777c-.322.11-.566.378-.646.71-.03.122-.729 3.039-.729 6.013s.699 5.891.729 6.013c.08.332.324.6.646.71.092.032 2.308.777 6.625.777s6.533-.745 6.625-.777c.322-.11.566-.378.646-.71.03-.122.729-3.039.729-6.013s-.698-5.891-.729-6.013c-.08-.332-.324-.6-.646-.71zm-6.625 1.223c2.792 0 4.618.332 5.451.528.073.36.169.87.259 1.472h-11.421c.091-.602.186-1.112.259-1.472.835-.196 2.661-.528 5.451-.528zm5.451 10.472c-.835.196-2.661.528-5.451.528s-4.618-.332-5.451-.528c-.194-.958-.549-2.98-.549-4.972 0-.504.023-1.01.06-1.5h11.88c.037.49.06.996.06 1.5 0 1.991-.354 4.014-.549 4.972zm8.549-11.972c0 2.974-.698 5.891-.729 6.013-.08.331-.323.599-.646.71.05-.017-.894.293-1.627.367-.472 0-.892-.335-.981-.815-.103-.542.255-1.065.798-1.167.253-.048.465-.094.636-.135.194-.957.549-2.98.549-4.973s-.354-4.014-.549-4.972c-.833-.196-2.659-.528-5.451-.528s-4.617.332-5.452.528c-.079.389-.185.952-.281 1.616-.08.546-.595.928-1.134.845-.546-.079-.925-.587-.845-1.134.2-1.371.431-2.328.44-2.368.08-.332.324-.6.646-.71.092-.032 2.308-.777 6.625-.777s6.533.745 6.625.777c.322.11.566.378.646.71.03.122.729 3.039.729 6.013z"/></svg>