<svg id="Layer_1" viewBox="0 0 24 24" xmlns="http://www.w3.org/2000/svg" data-name="Layer 1"><path d="m21.823 15.275c-1.344-1.951-3.272-4.002-5.734-6.099-.911-3.091-2-5.68-3.237-7.699-.363-.594-1.342-.594-1.705 0-1.237 2.02-2.326 4.608-3.237 7.699-2.461 2.097-4.39 4.147-5.734 6.099-.432.587-.023 1.494.703 1.561 2.269.274 5.01.182 8.12-.235v4.007c-1.715.078-2.884.333-3.241.421-.536.133-.863.676-.73 1.212s.68.858 1.211.729c.367-.091 1.721-.388 3.759-.388 2.312.002 3.272.322 4.001.417.449 0 .857-.304.97-.759.133-.536-.194-1.079-.73-1.212-.356-.088-1.526-.343-3.241-.421v-3.997c1.883.254 3.632.388 5.216.388 1.036 0 2.006-.055 2.904-.163.726-.066 1.135-.973.703-1.561zm-9.668-.802c-.103-.016-.207-.016-.31 0-2.609.41-4.935.579-6.941.512 1.186-1.439 2.702-2.938 4.527-4.475.152-.127.262-.297.317-.487.661-2.292 1.416-4.288 2.252-5.958.837 1.67 1.592 3.666 2.252 5.958.055.19.165.36.317.487 1.825 1.536 3.341 3.035 4.527 4.475-2.008.066-4.333-.103-6.941-.512zm.845-2.473c0 .552-.448 1-1 1s-1-.448-1-1 .448-1 1-1 1 .448 1 1z"/></svg>