<svg id="Layer_1" viewBox="0 0 24 24" xmlns="http://www.w3.org/2000/svg" data-name="Layer 1"><path d="m21.97 3.758c-.083-.332-.33-.599-.654-.706-.129-.043-3.224-1.052-9.316-1.052s-9.188 1.009-9.316 1.052c-.324.107-.571.374-.654.706-.042.168-1.03 4.166-1.03 8.242s.988 8.074 1.03 8.242c.083.332.33.599.654.706.129.043 3.224 1.052 9.316 1.052s9.188-1.009 9.316-1.052c.324-.107.571-.374.654-.706.042-.168 1.03-4.166 1.03-8.242s-.988-8.074-1.03-8.242zm-9.97.242c4.344 0 7.08.541 8.159.806.105.484.259 1.259.407 2.194h-17.131c.148-.935.302-1.71.407-2.194 1.081-.265 3.816-.806 8.158-.806zm0 16c-4.344 0-7.08-.541-8.159-.806-.264-1.218-.841-4.222-.841-7.194 0-1.021.071-2.043.172-3h17.657c.1.956.171 1.977.171 3 0 2.966-.578 5.976-.842 7.194-1.081.265-3.816.806-8.158.806z"/></svg>