<svg id="Layer_1" viewBox="0 0 24 24" xmlns="http://www.w3.org/2000/svg" data-name="Layer 1"><path d="m16 21h-3v-5.035c4.406-.321 6-2.924 6-9.465 0-1.151-.061-2.204-.18-3.128-.033-.252-.161-.483-.357-.645-.086-.071-2.154-1.727-6.463-1.727s-6.373 1.657-6.459 1.728c-.195.161-.322.39-.355.641-.123.93-.186 1.983-.186 3.131 0 6.541 1.594 9.144 6 9.465v5.035h-3c-.553 0-1 .448-1 1s.447 1 1 1h8c.553 0 1-.448 1-1s-.447-1-1-1zm-9-14.5c0-.877.039-1.689.115-2.42.545-.311 1.813-.893 3.873-1.044l-1.836 2.933c-.193.309-.203.697-.027 1.015.177.318.512.516.875.516h2.276l-1.145 2.004c-.274.479-.107 1.09.372 1.364.156.089.327.132.495.132.348 0 .685-.181.869-.504l2-3.5c.177-.31.176-.69-.003-.998-.18-.308-.509-.498-.865-.498h-2.194l1.525-2.436c1.877.184 3.044.722 3.558 1.015.074.729.111 1.542.111 2.421 0 6.995-1.889 7.5-5 7.5s-5-.505-5-7.5z"/></svg>