<svg id="Layer_1" viewBox="0 0 24 24" xmlns="http://www.w3.org/2000/svg" data-name="Layer 1"><path d="m19.804 15.052c.117-1.082.196-2.12.196-3.052 0-.839-.057-1.762-.153-2.729.392-.296.869-.684 1.304-1.119.93-.93 1.66-2.064 1.691-2.112.21-.328.21-.75 0-1.078-.031-.048-.761-1.183-1.691-2.112-.93-.931-2.064-1.66-2.112-1.69-.328-.211-.75-.211-1.078 0-.048.03-1.182.76-2.112 1.69-.435.435-.823.912-1.119 1.304-.97-.096-1.894-.153-2.729-.153-.937 0-1.96.061-3.053.18-.254-2.133-1.547-3.18-3.947-3.18-2.691 0-4 1.309-4 4 0 2.405 1.053 3.698 3.196 3.948-.117 1.082-.196 2.12-.196 3.052 0 .926.078 1.957.194 3.032-1.113.078-2.06.28-2.109.291-.381.083-.679.381-.762.763-.013.06-.323 1.489-.323 2.914s.31 2.854.323 2.914c.083.382.381.68.762.763.06.014 1.489.323 2.915.323s2.854-.31 2.915-.323c.381-.083.679-.381.762-.763.013-.06.323-1.489.323-2.914s-.31-2.854-.323-2.914c-.083-.382-.381-.68-.762-.763-.043-.01-.777-.167-1.706-.258-.127-1.097-.208-2.139-.208-3.065 0-.942.083-2.004.215-3.123 1.49-.292 2.371-1.173 2.663-2.663 1.121-.131 2.183-.214 3.123-.214.676 0 1.426.046 2.207.115.18.272.835 1.23 1.641 2.036.807.807 1.765 1.461 2.036 1.641.069.779.115 1.529.115 2.208 0 .942-.083 2.004-.215 3.123-1.862.365-2.785 1.634-2.785 3.877 0 2.691 1.309 4 4 4s4-1.309 4-4c0-2.405-1.053-3.698-3.196-3.948zm-12.804 3.948c0 .668-.084 1.357-.16 1.84-.966.152-2.714.152-3.68 0-.076-.482-.16-1.172-.16-1.84s.084-1.357.16-1.84c.966-.152 2.714-.152 3.68 0 .076.482.16 1.172.16 1.84zm-2-12c-1.589 0-2-.411-2-2s.411-2 2-2 2 .411 2 2-.411 2-2 2zm11.218-1.5c.261-.354.634-.827 1.044-1.237s.883-.783 1.237-1.044c.354.261.827.634 1.237 1.044s.783.883 1.044 1.237c-.261.354-.634.827-1.044 1.237s-.883.783-1.237 1.044c-.354-.261-.827-.634-1.237-1.044s-.783-.883-1.044-1.237zm2.782 15.5c-1.589 0-2-.411-2-2s.411-2 2-2 2 .411 2 2-.411 2-2 2z"/></svg>