<svg id="Layer_1" viewBox="0 0 24 24" xmlns="http://www.w3.org/2000/svg" data-name="Layer 1"><path d="m14.014 1.224c-.042-.009-1.028-.224-2.015-.224s-1.973.214-2.015.224c-.381.083-.678.381-.762.762-.009.042-.224 1.029-.224 2.015s.215 1.973.224 2.015c.084.381.381.678.762.762.042.009 1.028.224 2.015.224s1.973-.214 2.015-.224c.381-.083.678-.381.762-.762.009-.042.224-1.029.224-2.015s-.215-1.973-.224-2.015c-.084-.381-.381-.678-.762-.762zm-1.082 3.708c-.555.073-1.311.073-1.865 0-.036-.276-.067-.609-.067-.932s.031-.656.067-.932c.555-.073 1.311-.073 1.865 0 .036.276.067.609.067.932s-.031.656-.067.932zm1.082 4.292c-.042-.009-1.028-.224-2.015-.224s-1.973.214-2.015.224c-.381.083-.678.381-.762.762-.009.042-.224 1.029-.224 2.015s.215 1.973.224 2.015c.084.381.381.678.762.762.042.009 1.028.224 2.015.224s1.973-.215 2.015-.224c.381-.084.678-.381.762-.762.009-.042.224-1.029.224-2.015s-.215-1.973-.224-2.015c-.084-.381-.381-.678-.762-.762zm-1.082 3.708c-.555.074-1.311.074-1.865 0-.036-.276-.067-.609-.067-.932s.031-.656.067-.932c.555-.073 1.311-.073 1.865 0 .036.276.067.609.067.932s-.031.656-.067.932zm1.082 4.292c-.042-.009-1.028-.224-2.015-.224s-1.973.215-2.015.224c-.381.084-.678.381-.762.762-.009.042-.224 1.028-.224 2.015s.215 1.973.224 2.015c.084.381.381.678.762.762.042.009 1.028.224 2.015.224s1.973-.215 2.015-.224c.381-.084.678-.381.762-.762.009-.042.224-1.028.224-2.015s-.215-1.973-.224-2.015c-.084-.381-.381-.678-.762-.762zm-1.082 3.708c-.555.072-1.311.072-1.865 0-.036-.277-.067-.609-.067-.933s.031-.655.067-.933c.555-.072 1.311-.072 1.865 0 .036.277.067.609.067.933s-.031.655-.067.933zm9.934-11.504c-.186.321-.521.5-.867.5-.17 0-.341-.043-.499-.134l-.433-.25c-.492.529-1.172.87-2.067 1.005v.688c0 .552-.447 1-1 1s-1-.448-1-1v-1.619c0-.552.447-1 1-1 1.589 0 2-.411 2-2s-.411-2-2-2c-.553 0-1-.448-1-1v-1.619c0-.552.447-1 1-1s1 .448 1 1v.688c.895.134 1.575.476 2.068 1.005l.432-.25c.477-.278 1.089-.113 1.366.365.276.479.112 1.09-.366 1.366l-.598.345c.058.339.098.698.098 1.098s-.04.759-.098 1.098l.598.345c.478.276.643.887.366 1.366zm-15.066 9.972c.267.355.267.844 0 1.199-.625.835-1.365 1.575-2.2 2.2-.18.135-.39.2-.599.2-.305 0-.604-.138-.801-.4-.332-.441-.242-1.068.2-1.399.118-.088.226-.188.34-.282-1.577-.149-2.506-.453-2.556-.47-.251-.083-.459-.264-.578-.501-.062-.124-.605-1.288-.605-3.947s.544-3.823.605-3.947c.119-.237.327-.417.578-.501.067-.022 1.679-.551 3.816-.551.553 0 1 .448 1 1s-.447 1-1 1c-1.177 0-2.173.19-2.725.324-.116.447-.275 1.31-.275 2.676 0 1.356.157 2.216.275 2.671.284.064.7.143 1.22.208-.033-.025-.062-.054-.095-.079-.442-.331-.532-.958-.2-1.399.332-.442.958-.53 1.399-.2.835.625 1.575 1.365 2.2 2.2z"/></svg>