<svg id="Layer_1" viewBox="0 0 24 24" xmlns="http://www.w3.org/2000/svg" data-name="Layer 1"><path d="m6.015 17.224c-.042-.009-1.028-.224-2.015-.224s-1.973.215-2.015.224c-.381.084-.678.381-.762.762-.009.042-.224 1.028-.224 2.015s.215 1.973.224 2.015c.084.381.381.678.762.762.042.009 1.028.224 2.015.224s1.973-.215 2.015-.224c.381-.084.678-.381.762-.762.009-.042.224-1.028.224-2.015s-.215-1.973-.224-2.015c-.084-.381-.381-.678-.762-.762zm-1.082 3.709c-.555.072-1.311.072-1.865 0-.036-.277-.067-.609-.067-.933s.031-.655.067-.933c.555-.072 1.311-.072 1.865 0 .036.277.067.609.067.933s-.031.655-.067.933zm9.082-3.709c-.042-.009-1.028-.224-2.015-.224s-1.973.215-2.015.224c-.381.084-.678.381-.762.762-.009.042-.224 1.028-.224 2.015s.215 1.973.224 2.015c.084.381.381.678.762.762.042.009 1.028.224 2.015.224s1.973-.215 2.015-.224c.381-.084.678-.381.762-.762.009-.042.224-1.028.224-2.015s-.215-1.973-.224-2.015c-.084-.381-.381-.678-.762-.762zm-1.082 3.709c-.555.072-1.311.072-1.865 0-.036-.277-.067-.609-.067-.933s.031-.655.067-.933c.555-.072 1.311-.072 1.865 0 .036.277.067.609.067.933s-.031.655-.067.933zm9.843-2.948c-.084-.381-.381-.678-.762-.762-.042-.009-1.028-.224-2.015-.224s-1.973.215-2.015.224c-.381.084-.678.381-.762.762-.009.042-.224 1.028-.224 2.015s.215 1.973.224 2.015c.084.381.381.678.762.762.042.009 1.028.224 2.015.224s1.973-.215 2.015-.224c.381-.084.678-.381.762-.762.009-.042.224-1.028.224-2.015s-.215-1.973-.224-2.015zm-1.843 2.948c-.555.072-1.311.072-1.865 0-.036-.277-.067-.609-.067-.933s.031-.655.067-.933c.555-.072 1.311-.072 1.865 0 .036.277.067.609.067.933s-.031.655-.067.933zm-10.933-13.933c0-1.589.411-2 2-2s2 .411 2 2-.411 2-2 2-2-.411-2-2zm3-3.926v-1.074c0-.552-.447-1-1-1s-1 .448-1 1v1.088c-.894.135-1.58.469-2.072.998l-.758-.437c-.157-.091-.329-.134-.499-.134-.346 0-.682.179-.867.5-.276.478-.112 1.09.366 1.366l.927.535c-.058.339-.096.699-.096 1.099v-.014c0 .4.038.76.096 1.099l-.927.535c-.479.276-.643.888-.366 1.366.186.321.521.5.867.5.17 0 .342-.043.499-.134l.758-.437c.492.529 1.179.863 2.072.998v1.088c-3.449.086-6.647.574-6.794.597-.377.059-.688.328-.802.692 0 0-.182.583-.381 1.479-.119.539.221 1.073.76 1.193.537.117 1.074-.22 1.193-.76.061-.276.12-.519.172-.719 1.087-.144 3.422-.42 5.852-.484v.986c0 .553.447 1 1 1s1-.447 1-1v-.986c2.427.064 4.764.34 5.852.484.052.2.111.442.172.719.118.543.668.879 1.193.76.539-.12.879-.654.76-1.193-.199-.896-.381-1.479-.381-1.479-.113-.365-.425-.634-.802-.692-.147-.023-3.345-.511-6.794-.597v-1.088c.894-.135 1.58-.469 2.072-.998l.758.437c.157.091.329.134.499.134.346 0 .682-.179.867-.5.276-.478.112-1.09-.366-1.366l-.927-.535c.058-.339.096-.699.096-1.099v.014c0-.4-.038-.76-.096-1.099l.927-.535c.479-.276.643-.888.366-1.366-.186-.321-.521-.5-.867-.5-.17 0-.342.043-.499.134l-.758.437c-.492-.529-1.179-.863-2.072-.998z"/></svg>