<svg id="Layer_1" viewBox="0 0 24 24" xmlns="http://www.w3.org/2000/svg" data-name="Layer 1"><path d="m23 8c0 3.064-.512 4.069-.668 4.305-.154.231-.398.389-.673.433-.044.007-.752.118-1.659.194v1.069c0 .379-.214.725-.553.895-.337.168-.744.134-1.047-.095-.835-.625-1.575-1.365-2.2-2.2-.267-.355-.267-.844 0-1.199.625-.835 1.365-1.575 2.2-2.2.303-.228.709-.263 1.047-.095.339.17.553.516.553.895v.922c.285-.026.552-.054.765-.081.098-.435.235-1.31.235-2.842 0-1.498-.131-2.357-.235-2.803-.687-.081-1.838-.197-2.765-.197-.553 0-1-.447-1-1s.447-1 1-1c1.553 0 3.556.28 3.64.292.275.039.522.19.681.419.204.293.68 1.298.68 4.289zm-17.4 9.2c-.303-.229-.709-.263-1.047-.095-.339.17-.553.516-.553.895v.923c-.283-.026-.548-.054-.759-.08-.106-.452-.241-1.325-.241-2.843s.134-2.375.229-2.802c.686-.081 1.841-.198 2.771-.198.553 0 1-.447 1-1s-.447-1-1-1c-1.553 0-3.556.28-3.64.292-.275.039-.522.19-.681.419-.204.293-.68 1.298-.68 4.289 0 3.064.512 4.069.668 4.305.154.231.398.389.673.433.044.007.752.118 1.659.194v1.069c0 .379.214.725.553.895.337.168.744.134 1.047-.095.835-.625 1.575-1.365 2.2-2.2.267-.355.267-.844 0-1.199-.625-.835-1.365-1.575-2.2-2.2zm9.789-13.193c.21.329.21.75 0 1.078-.022.036-.569.885-1.267 1.582-.382.382-.806.715-1.121.946v2.004c1.32.306 2 1.264 2 2.883s-.68 2.577-2 2.883v1.679c.562.064.987.156 1.015.161.381.084.678.381.762.762.009.042.224 1.028.224 2.015s-.215 1.973-.224 2.015c-.084.381-.381.678-.762.762-.042.009-1.028.224-2.015.224s-1.973-.215-2.015-.224c-.381-.084-.678-.381-.762-.762-.009-.042-.224-1.028-.224-2.015s.215-1.973.224-2.015c.084-.381.381-.678.762-.762.027-.006.452-.097 1.015-.161v-1.679c-1.32-.306-2-1.264-2-2.883s.68-2.577 2-2.883v-2.004c-.315-.23-.739-.563-1.121-.946-.697-.697-1.244-1.546-1.267-1.582-.211-.328-.211-.749 0-1.078.023-.036.57-.886 1.268-1.583s1.546-1.243 1.582-1.267c.328-.209.75-.209 1.078 0 .036.023.886.57 1.583 1.268s1.243 1.546 1.267 1.582zm-2.389 15.993c0-.323-.031-.655-.067-.933-.555-.072-1.311-.072-1.865 0-.036.277-.067.609-.067.933s.031.655.067.933c.555.072 1.311.072 1.865 0 .036-.277.067-.609.067-.933zm0-7.5c0-.879-.121-1-1-1s-1 .121-1 1 .121 1 1 1 1-.121 1-1zm.318-7.954c-.17-.222-.382-.479-.611-.706-.229-.229-.485-.442-.707-.612-.221.169-.479.382-.706.611-.229.229-.442.485-.612.707.17.221.383.479.611.707s.485.441.707.611c.222-.17.479-.383.707-.611s.441-.486.611-.707z"/></svg>