<svg id="Layer_1" viewBox="0 0 24 24" xmlns="http://www.w3.org/2000/svg" data-name="Layer 1"><path d="m22.067 5.537c-.307-.516-1.073-.63-1.513-.217-1.038.923-1.928 1.668-2.544 2.174-.896.73-1.013.619-1.564.066-.576-.576-.662-.711.065-1.563.466-.567 1.224-1.471 2.183-2.549.409-.438.302-1.202-.212-1.51-3.468-2.196-6.182-.135-7.922 1.604-1.596 1.596-3.472 4.021-2.052 7.101-.38.365-.771.747-1.175 1.149-.734.734-1.435 1.471-2.059 2.142-1.422 1.537-2.584 2.911-3.296 3.778-.902 1.058-1.711 2.498.054 4.262.756.757 1.45 1.039 2.087 1.039.807 0 1.523-.453 2.159-.974 1.36-1.117 2.609-2.206 3.822-3.329.668-.623 1.379-1.305 2.113-2.038.406-.406.79-.801 1.158-1.184 3.064 1.391 5.479-.478 7.068-2.067 1.732-1.731 3.785-4.433 1.627-7.885zm-3.042 6.47c-2.39 2.39-3.863 2.281-5.338 1.389-.403-.245-.921-.173-1.245.168-.51.54-1.054 1.104-1.643 1.694-.716.716-1.41 1.382-2.06 1.987-1.181 1.094-2.401 2.157-3.728 3.247-.898.732-1.013.62-1.565.067-.576-.576-.662-.711.066-1.563.707-.861 1.841-2.202 3.229-3.702.607-.652 1.291-1.371 2.007-2.088.587-.587 1.15-1.128 1.688-1.637.344-.325.413-.846.166-1.249-.91-1.485-1.025-2.966 1.373-5.364 1.437-1.437 2.549-1.973 3.532-1.973.284 0 .558.045.825.126-.573.663-1.035 1.216-1.353 1.603-.902 1.058-1.711 2.498.054 4.262 1.715 1.716 3.108.995 4.245.067 0 0 .001 0 .002-.002.551-.453 1.082-.899 1.604-1.35.342 1.179-.023 2.482-1.857 4.317z"/></svg>