<svg id="Layer_1" viewBox="0 0 24 24" xmlns="http://www.w3.org/2000/svg" data-name="Layer 1"><path d="m13.603 10.883c-.108-.14-.215-.279-.323-.417 3.862-4.718 7.328-7.67 7.366-7.703.422-.357.475-.988.118-1.409s-.987-.476-1.409-.118c-.159.134-3.499 2.977-7.354 7.637-3.856-4.66-7.197-7.502-7.355-7.637-.422-.357-1.052-.303-1.409.118-.356.421-.304 1.053.118 1.409.038.033 3.497 2.976 7.366 7.702-.107.138-.215.276-.323.417-4.424 5.76-7.233 10.566-7.262 10.614-.277.478-.111 1.08.361 1.367.606.369 1.182-.042 1.367-.361.027-.047 2.773-4.742 7.119-10.402.006-.007.011-.014.017-.021.006.007.011.014.017.021 4.341 5.652 7.092 10.355 7.119 10.402.186.319.733.714 1.367.361.483-.268.639-.89.361-1.367-.028-.048-2.838-4.854-7.262-10.614z"/></svg>