<svg id="Layer_1" viewBox="0 0 24 24" xmlns="http://www.w3.org/2000/svg" data-name="Layer 1"><path d="m12.327 23c-5.29 0-8.739-2.271-8.883-2.367-.25-.168-.411-.438-.439-.738-.028-.299.08-.596.295-.807l15.07-14.804c-1.125-.549-3.168-1.284-6.043-1.284-3.939 0-6.572 1.713-6.598 1.73-.458.304-1.08.181-1.385-.278-.306-.458-.184-1.077.273-1.384.125-.085 3.133-2.068 7.71-2.068 5.304 0 8.172 2.205 8.291 2.299.226.178.365.443.381.73s-.093.567-.298.77l-15.03 14.763c1.297.599 3.65 1.438 6.656 1.438 4.12 0 7.064-2 7.094-2.02.454-.314 1.077-.201 1.391.252s.204 1.074-.248 1.39c-.139.097-3.463 2.378-8.236 2.378z"/></svg>