<svg id="Layer_1" viewBox="0 0 24 24" xmlns="http://www.w3.org/2000/svg"><path d="m21.977 2.786c-.083-.381-.381-.679-.762-.762-.19-.042-4.713-1.023-9.214-1.023s-9.025.98-9.215 1.022c-.381.083-.679.381-.762.762-.042.19-1.023 4.713-1.023 9.214s.981 9.024 1.023 9.214c.083.381.381.679.762.762.19.042 4.713 1.023 9.214 1.023 1.348 0 2.838-.09 4.428-.267.226-.025.436-.126.597-.287l5.422-5.422c.161-.161.262-.371.287-.597.177-1.59.267-3.08.267-4.428 0-4.501-.981-9.024-1.023-9.214zm-18.128 17.365c-.265-1.386-.849-4.824-.849-8.151s.584-6.765.849-8.151c1.386-.265 4.824-.849 8.151-.849s6.765.584 8.151.849c.265 1.386.849 4.824.849 8.151 0 .932-.059 1.956-.149 3.023-2.658-.117-4.972.28-5.08.299-.399.07-.716.374-.803.77-.016.072-.356 1.702-.295 4.788-.937.072-1.844.121-2.673.121-3.327 0-6.765-.584-8.151-.849zm12.812-.169c.007-1.283.088-2.219.158-2.79.639-.079 1.661-.176 2.82-.188zm-3.513-10.903c2.252.049 2.861-1.124 2.83-2.096 0-1.972-1.964-1.979-2.706-1.982-.16 0-.42-.007-.571 0-.292.016-.522.239-.559.52-.056.251-.242 1.18-.242 2.478 0 1.496.247 2.502.258 2.544.079.324.414.516.727.437.321-.08.517-.405.438-.727-.002-.006-.109-.451-.174-1.175zm.088-2.878c1.468-.013 1.564.393 1.542.782-.028.497-.231.968-1.677.895.007-.718.076-1.303.135-1.677zm-2.413-.456c-.002.009-.223.917-.223 2.255s.22 2.246.223 2.255c.079.321-.117.646-.438.727-.313.08-.647-.113-.727-.437-.011-.042-.258-1.049-.258-2.545s.248-2.503.258-2.545c.081-.321.41-.513.727-.437.321.08.517.405.438.727zm-2.27.401-2.217 3.716c.113.022.239.038.377.041.563.022.941-.206.945-.208.286-.164.652-.067.818.217s.075.647-.207.816c-.034.035-.764.406-1.579.376-.897-.016-1.498-.388-1.563-.43-.271-.175-.355-.534-.189-.812l2.217-3.716c-.113-.022-.239-.038-.377-.041-.557-.03-.942.207-.946.208-.287.163-.653.066-.818-.217-.166-.284-.075-.647.207-.815.066-.041.657-.373 1.578-.376.898.016 1.499.388 1.564.43.271.175.355.534.189.812z"/></svg>