<?xml version="1.0" encoding="UTF-8"?>
<svg xmlns="http://www.w3.org/2000/svg" id="Layer_1" data-name="Layer 1" viewBox="0 0 24 24">
  <path d="M12.785,9.567h-1.202v-1.202c0-.552-.448-1-1-1s-1,.448-1,1v1.202h-1.202c-.552,0-1,.448-1,1s.448,1,1,1h1.202v1.202c0,.552,.448,1,1,1s1-.448,1-1v-1.202h1.202c.552,0,1-.448,1-1s-.448-1-1-1Z"/>
  <path d="M22.706,21.25l-4.399-4.374c1.181-1.561,1.81-3.679,1.859-6.329-.105-6.095-3.507-9.473-9.588-9.513C4.424,1.073,1.001,4.645,1.001,10.546c0,6.195,3.426,9.512,9.589,9.548,2.629-.016,4.739-.626,6.303-1.805l4.403,4.379c.518,.492,1.131,.291,1.414-.004,.383-.398,.388-1.025-.004-1.414Zm-12.116-3.156c-5.077-.03-7.489-2.422-7.589-7.53,.097-5.035,2.579-7.499,7.576-7.53,4.949,.032,7.503,2.571,7.589,7.512-.094,5.12-2.505,7.518-7.576,7.548Z"/>
</svg>
