<svg id="Layer_1" viewBox="0 0 24 24" xmlns="http://www.w3.org/2000/svg" data-name="Layer 1"><path d="m15 3v-1c0-1.103-.897-2-2-2h-2c-1.103 0-2 .897-2 2v1h-9v2h9v.914l2 2v2.086h2v-2.086l2-2v-.914h9v-2zm-1 9c-1.654 0-3 1.346-3 3 0 .67.229 1.283.601 1.783 0 0 0 0-.001 0-.92.911-2.41 2.073-3.306 2.073-.857 0-1.131-.67-1.682-1.39l-.013-.018s-.003.007-.01.02c-1.586 3.277.15 6.531 3.79 6.531h3.968c1.662 0 3.661-1.143 3.661-3.6 0-1.289-1.021-2.772-1.693-3.514 0 0 0 0-.001 0 .055-.068.117-.129.167-.202l2.519-.945v-1.125l-2.276-.853c-.473-1.036-1.513-1.76-2.724-1.76z"/></svg>