<svg id="Layer_1" viewBox="0 0 24 24" xmlns="http://www.w3.org/2000/svg" data-name="Layer 1"><path d="m24 9.5c0 .668-.26 1.296-.732 1.768s-1.1.732-1.768.732-1.296-.26-1.768-.732l-7.725-7.732v-3.536h3.536l7.725 7.733c.472.472.732 1.099.732 1.767zm-10.995 14.5 4.995-2.776v-5.985l-4.995 2.858zm-.005-12.672v-2.328c0-1.654-1.346-3-3-3h-6c-1.103 0-2-.897-2-2s.897-2 2-2h6v-2h-6c-2.206 0-4 1.794-4 4s1.794 4 4 4h6c.551 0 1 .449 1 1v2.329l-3.921 2.22 4.927 2.816 4.925-2.815-3.932-2.222zm-6.995 9.805 4.995 2.858v-5.895l-4.995-2.858z"/></svg>