<svg id="Layer_1" viewBox="0 0 24 24" xmlns="http://www.w3.org/2000/svg" data-name="Layer 1"><path d="m16 15h-8v-5h8zm5-15h-18c-1.654 0-3 1.346-3 3v21h24v-21c0-1.654-1.346-3-3-3zm-17.5 22c-.828 0-1.5-.672-1.5-1.5s.672-1.5 1.5-1.5 1.5.672 1.5 1.5-.672 1.5-1.5 1.5zm4 0c-.828 0-1.5-.672-1.5-1.5s.672-1.5 1.5-1.5 1.5.672 1.5 1.5-.672 1.5-1.5 1.5zm13 0c-.828 0-1.5-.672-1.5-1.5s.672-1.5 1.5-1.5 1.5.672 1.5 1.5-.672 1.5-1.5 1.5zm1.5-5h-20v-14c0-.551.449-1 1-1h6v1.914l2 2v2.086h2v-2.086l2-2v-1.914h6c.551 0 1 .449 1 1z"/></svg>