<svg id="Layer_1" viewBox="0 0 24 24" xmlns="http://www.w3.org/2000/svg" data-name="Layer 1"><path d="m8.986 9.705.638 3.295h-1.262zm6.764 3.995v-3.402c0-.386-.314-.7-.7-.7h-.7v4.802h.7c.386 0 .7-.314.7-.7zm8.25-5.428v7.456c0 .8-.312 1.554-.878 2.121l-1.947 1.946-3.082-3.088c-.482.493-1.081.859-1.753 1.074l3.421 3.427-1.913 1.912c-.567.566-1.32.879-2.121.879h-7.456c-.801 0-1.554-.312-2.121-.879l-5.271-5.27c-.567-.569-.879-1.323-.879-2.122v-7.456c0-.801.312-1.554.879-2.121l1.927-1.927 3.343 3.349c.37-.577.905-1.026 1.534-1.293l-3.463-3.47 1.931-1.931c.567-.567 1.32-.879 2.121-.879h7.456c.801 0 1.554.312 2.121.879l5.272 5.272c.567.567.879 1.32.879 2.121zm-12.25 7.728-1.397-6.807c-.127-.656-.643-1.209-1.346-1.192-.718 0-1.214.529-1.353 1.078-.008.03-1.404 6.921-1.404 6.921h1.469l.275-1.474h2.006l.262 1.474zm5.6-5.7c0-1.27-1.03-2.3-2.3-2.3h-2.3v8h2.309c1.265 0 2.291-1.029 2.291-2.293z"/></svg>