<svg id="Layer_1" viewBox="0 0 24 24" xmlns="http://www.w3.org/2000/svg" data-name="Layer 1"><path d="m14.631 3c-.558 0-1.105.123-1.631.351v-3.351h-2v4.827c-1.542 1.669-3.077 4.558-3 8.673 0 2.082.587 3.996 1.565 5.499-1.92.047-3.557-2.543-3.565-5.499 0-3.779 1.164-7.171 3-9.465v-1.025c-4.444.244-8 4.855-8 10.49 0 5.79 3.754 10.5 8.369 10.5.903 0 1.786-.177 2.631-.527.846.35 1.729.527 2.632.527 4.614 0 8.369-4.71 8.369-10.5s-3.755-10.5-8.37-10.5zm.869 16c-.828 0-1.5-.672-1.5-1.5s.672-1.5 1.5-1.5 1.5.672 1.5 1.5-.672 1.5-1.5 1.5zm2-4c-.828 0-1.5-.672-1.5-1.5s.672-1.5 1.5-1.5 1.5.672 1.5 1.5-.672 1.5-1.5 1.5z"/></svg>