<svg id="Layer_1" viewBox="0 0 24 24" xmlns="http://www.w3.org/2000/svg" data-name="Layer 1"><path d="m3 8h-3v-1c0-5.537 4.252-7 6.5-7h.384c1.245 1.133 2.654 2.342 4.116 3.056v4.594c-1.26 1.608-3.248 3.421-6 4.06v-9.436c-.663.224-1.413.632-2 1.377zm2 8.35c1.862 1.795 3.84 3.057 6 3.806v-9.535c-1.773 1.677-3.807 2.739-6 3.148v2.58zm14-2.58c-2.193-.409-4.227-1.471-6-3.148v9.535c2.16-.75 4.138-2.011 6-3.806v-2.58zm-1.5-13.77h-.384c-1.245 1.133-2.654 2.342-4.116 3.056v4.594c1.26 1.608 3.248 3.421 6 4.06v-9.436c.663.224 1.413.632 2 1.377v4.349h3v-1c0-5.537-4.252-7-6.5-7zm-5.5 22.531c-3.02-.72-5.689-2.191-8.166-4.517-.809 1.216-1.834 3.284-1.834 5.985h20c0-2.703-1.026-4.771-1.835-5.987-2.467 2.304-5.186 3.809-8.165 4.518z"/></svg>