<svg id="Layer_1" viewBox="0 0 24 24" xmlns="http://www.w3.org/2000/svg" data-name="Layer 1"><path d="m4.305 5.357c-.704-1.271-1.177-2.46-1.157-3.771l1.453-1.513c2.399-.457 5.549 1.517 7.189 2.635 1.612 1.099 3.331 1.786 5.052 2.025-.081.075-.161.152-.24.231-2.459 2.174-5.53 1.46-5.601 1.444-1.407-.397-4.118-1.052-6.697-1.051zm18.695.143v-2.5h-2v3.673c-.697.644-1.537 1.635-2.143 3.041-2.857 5.714-8.571 6.286-8.571 6.286-4.532.453-8.907 1.717-10.286 3.429v1.714c1.571 1.678 6.778 2.857 11.429 2.857 4.571 0 12.571-2.286 12.571-14.857 0-2.443-1-3.643-1-3.643zm-17.909 9.354c2.088-.51 4.044-.75 4.995-.845.177-.02 4.649-.58 6.958-5.144.789-1.805 1.889-3.047 2.784-3.833-.598.322-1.241.769-1.852 1.385-3.278 2.947-7.368 1.953-7.519 1.915-3.208-.906-7.201-1.563-9.603-.188l-.768 1.953c.683 1.878 2.72 3.453 5.005 4.758z"/></svg>