<svg id="Layer_1" viewBox="0 0 24 24" xmlns="http://www.w3.org/2000/svg" data-name="Layer 1"><path d="m14.793 4.707-2-2 1.414-1.414 2 2zm8.414-2-1.414-1.414-2 2 1.414 1.414zm-4.207-2.707h-2v3h2zm-14.793 3.293-2-2-1.414 1.414 2 2zm7-.586-1.414-1.414-2 2 1.414 1.414zm-4.207-2.707h-2v3h2zm15 9h-2v-2c0-1.105-.895-2-2-2s-2 .895-2 2v2h-5.28l-8.707 8.707v-2.828l5.987-5.987v-1.892c0-1.105-.895-2-2-2s-2 .895-2 2v2h-2c-1.105 0-2 .895-2 2v13h2l.013-4h3.086l11-11h2.828l-11 11h5.379l8.707-8.707v2.828l-5.879 5.879h5.866v4h2v-13c0-1.105-.895-2-2-2z"/></svg>