<svg id="Layer_1" viewBox="0 0 24 24" xmlns="http://www.w3.org/2000/svg" data-name="Layer 1"><path d="m18 0c-3.308 0-6 2.692-6 6s2.692 6 6 6 6-2.692 6-6-2.692-6-6-6zm1 10h-2v-2h2zm0-3h-2v-5h2zm-9 9.093.957.898-.957.875zm.955-5.085-.955.89v-1.764zm9.032 2.734c.002.087.013.171.013.259 0 5.523-4.477 10-10 10s-10-4.478-10-10.001 4.477-10 10-10c.087 0 .172.011.259.013-.3 1.124-.341 2.405-.103 3.552l-.618-.565h-1.537v4.474l-1.973-1.851-1.369 1.459 3.1 2.907-3.139 2.927 1.363 1.463 2.018-1.881v4.502h1.537l4.363-3.991-3.215-3.016 2.087-1.946c1.403 1.214 3.227 1.953 5.228 1.953.687 0 1.351-.096 1.987-.259z"/></svg>