<svg id="Layer_1" viewBox="0 0 24 24" xmlns="http://www.w3.org/2000/svg" data-name="Layer 1"><path d="m11 4.863c0-1.935-1.381-3.589-3.227-3.923l-4.237-.89c-.881-.162-1.774.077-2.458.648-.685.572-1.078 1.411-1.078 2.303v18.999l11 2zm-4 14.069-5-1.144v-2.033l5 1.144zm2-3.636-7-1.508v-2.033l7 1.508zm0-4-7-1.508v-2.033l7 1.508zm0-4-7-1.508v-2.033l7 1.508zm15 3.704c0-1.568-.752-3.04-2-3.979v-.021c0-1.897-1.327-3.489-3.102-3.898-.409-1.774-2.002-3.102-3.898-3.102h-.022c-1.093.003-1.978.891-1.978 1.984v18.962c0 1.368.916 2.598 2.248 2.91.402.094.821.144 1.252.144 2.422 0 4.515-1.556 5.233-3.835 1.408-.921 2.267-2.479 2.267-4.165 0-.886-.235-1.737-.686-2.5.45-.763.686-1.614.686-2.5z"/></svg>