<svg id="Layer_1" viewBox="0 0 24 24" xmlns="http://www.w3.org/2000/svg" data-name="Layer 1"><path d="m16.615 11.835c-1.163 1.39-2.83 2.165-4.616 2.165-1.784 0-3.451-.774-4.615-2.165-.943-1.126-1.384-2.591-1.384-4.06v-3.775s4 0 4 0v4c0 1.105.895 2 2 2 1.104 0 2-.895 2-1.999v-4h4.001v3.774c-.002 1.469-.443 2.934-1.385 4.06zm1.385-11.835v2.001h-4v-2.001zm-8 0v2.001h-4v-2.001zm12.922 5.697c-.686-.572-1.579-.808-2.516-.636l-.407.099v2.615c0 2.021-.658 3.918-1.85 5.343-1.315 1.571-3.153 2.562-5.148 2.813v5.854l-1 .182-1-.182v-5.853c-1.995-.25-3.834-1.241-5.149-2.814-1.194-1.425-1.851-3.323-1.85-5.344v-2.612s-.464-.113-.464-.113c-.881-.162-1.774.077-2.458.648-.686.572-1.078 1.411-1.078 2.303v13.817l12 2.182 12-2.182v-13.816c0-.892-.393-1.731-1.078-2.303z"/></svg>