<svg id="Layer_1" viewBox="0 0 24 24" xmlns="http://www.w3.org/2000/svg" data-name="Layer 1"><path d="m18 12c-3.314 0-6 2.686-6 6s2.686 6 6 6 6-2.686 6-6-2.686-6-6-6zm.5 9.5h-.5v-2h.5c.552 0 1-.448 1-1s-.448-1-1-1h-1.5v1.881l-2.276-2.276c-.299-.299-.299-.784 0-1.084l2.276-2.276v1.754h1.5c1.654 0 3 1.346 3 3s-1.346 3-3 3zm-9.5 2-9-6.213v-10.614l9 5.145c-.001 1.702 0 7.869 0 11.682zm-7.869-18.484 8.859-5.016 8.881 5.018-8.868 5.068zm9.87 9.107c0-.986 0-1.798 0-2.304l8.998-5.143v3.581c-.64-.165-1.308-.262-2-.262-3.013 0-5.634 1.667-6.999 4.128z"/></svg>