<svg id="Layer_1" viewBox="0 0 24 24" xmlns="http://www.w3.org/2000/svg" data-name="Layer 1"><path d="m24 3v3.988c0 1.103-.897 2-2 2l-3.997.012-.003-2h2.664c-1.766-3.075-5.027-5-8.664-5-.687 0-1.371.07-2.037.208l-.404-1.959c.798-.165 1.619-.249 2.441-.249 4.108 0 7.81 2.042 9.998 5.359l.002-2.359zm-19.472 2.354-1.492-1.331c-.728.815-1.34 1.727-1.82 2.708l1.797.879c.399-.817.91-1.576 1.516-2.256zm-2.162 3.952-1.926-.537c-.292 1.048-.44 2.135-.44 3.232h2c0-.915.123-1.822.366-2.695zm5.837-6.56-.76-1.851c-1.009.415-1.958.966-2.82 1.639l1.23 1.576c.719-.561 1.509-1.02 2.35-1.365zm11.269 15.901 1.492 1.331c.728-.815 1.34-1.727 1.82-2.708l-1.797-.879c-.399.817-.91 1.576-1.516 2.256zm2.162-3.952 1.926.537c.292-1.048.44-2.135.44-3.232h-2c0 .915-.123 1.822-.366 2.695zm-5.837 6.56.76 1.851c1.009-.415 1.958-.966 2.82-1.639l-1.23-1.576c-.719.561-1.509 1.02-2.35 1.365zm-3.797.746c-3.637 0-6.898-1.925-8.664-5h2.664l-.003-2-3.997.012c-1.103 0-2 .897-2 2v3.988h2l.002-2.359c2.189 3.317 5.89 5.359 9.998 5.359.822 0 1.644-.083 2.441-.249l-.404-1.959c-.666.138-1.351.208-2.037.208zm-3.928-13.779 3.93 2.246 3.927-2.245-3.935-2.223-3.923 2.221zm8.928 6.503v-4.809l-4 2.286v4.744zm-10-.083 4 2.286v-4.729l-4-2.286z"/></svg>