<svg id="Layer_1" viewBox="0 0 24 24" xmlns="http://www.w3.org/2000/svg" data-name="Layer 1"><path d="m11 14.498-2.5-1.429v-3.002l2.5 1.429zm2-3v3.025l2.5-1.388v-3.066zm-.998-1.733 2.411-1.378-2.417-1.366-2.409 1.364zm9.998-4.281v6.451c0 7.434-7.047 10.848-9.207 11.717l-.836.336-.805-.402c-2.147-1.074-9.152-5.086-9.152-11.65v-6.452c0-1.292.825-2.435 2.055-2.842l7.945-2.635 7.945 2.634c1.229.407 2.055 1.549 2.055 2.842zm-4.5 2.35-5.506-3.111-5.494 3.111v6.395l5.493 3.141 5.507-3.058v-6.479z"/></svg>