<svg id="Layer_1" viewBox="0 0 24 24" xmlns="http://www.w3.org/2000/svg" data-name="Layer 1"><path d="m10.216 20.846-2.212-1.231v-.615h2.899l.784-3h.648l.784 3h2.883v.611l-2.197 1.273.884 2.686-.504.349-2.173-1.68-2.183 1.687-.48-.362.869-2.717h-.002zm-3.529-2.277-.884-2.686 2.197-1.273v-.611h-2.883l-.784-3h-.648l-.784 3h-2.899v.615l2.212 1.231-.869 2.717.48.362 2.183-1.687 2.173 1.68.504-.349h.002zm17.313-4.569h-2.883l-.784-3h-.648l-.784 3h-2.899v.615l2.212 1.231-.869 2.717.48.362 2.183-1.687 2.173 1.68.504-.349-.884-2.686 2.197-1.273v-.611h.002zm-6.005-3.537-4.995 2.776v-5.904l4.995-2.858v5.985zm-1.068-7.675-4.925 2.815-4.928-2.817 4.921-2.786 4.932 2.787zm-10.927 1.688 4.995 2.858v5.895l-4.995-2.858v-5.896z"/></svg>