<svg id="Layer_1" viewBox="0 0 24 24" xmlns="http://www.w3.org/2000/svg" data-name="Layer 1"><path d="m22 17.5v2c0 .275-.225.5-.5.5h-.5v-3h.5c.275 0 .5.225.5.5zm-4 0v1h-1v-1c0-.276.224-.5.5-.5s.5.224.5.5zm-4 0v2c0 .276-.224.5-.5.5s-.5-.224-.5-.5v-2c0-.276.224-.5.5-.5s.5.224.5.5zm-7-.5h-.5v1h.5c.275 0 .5-.224.5-.5s-.225-.5-.5-.5zm14.698-3.91c-1.107.578-2.363.91-3.698.91-1.404 0-2.723-.364-3.87-1h-11.13c-1.654 0-3 1.346-3 3v8h24v-8c0-1.413-.985-2.594-2.302-2.91zm-17.198 6.41c0 .828-.672 1.5-1.5 1.5s-1.5-.672-1.5-1.5v-3.5h1v3.5c0 .276.224.5.5.5s.5-.224.5-.5v-3.5h1zm2.5-.5h-.5v2h-1v-5h1.5c.827 0 1.5.673 1.5 1.5s-.673 1.5-1.5 1.5zm4.205 2h-2v-5h1v4h1zm3.795-1.5c0 .828-.672 1.5-1.5 1.5s-1.5-.672-1.5-1.5v-2c0-.828.672-1.5 1.5-1.5s1.5.672 1.5 1.5zm4 1.5h-1v-1.5h-1v1.5h-1v-3.5c0-.828.672-1.5 1.5-1.5s1.5.672 1.5 1.5zm4-1.5c0 .827-.673 1.5-1.5 1.5h-1.5v-5h1.5c.827 0 1.5.673 1.5 1.5zm-5-19.5c-3.314 0-6 2.686-6 6s2.686 6 6 6 6-2.686 6-6-2.686-6-6-6zm3 10h-6v-2h6zm-2-6v3h-2v-3h-2l2.529-2.471c.26-.26.683-.26.943 0l2.529 2.471h-2z"/></svg>