<svg id="Layer_1" viewBox="0 0 24 24" xmlns="http://www.w3.org/2000/svg" data-name="Layer 1"><path d="m18 0c-3.314 0-6 2.686-6 6s2.686 6 6 6 6-2.686 6-6-2.686-6-6-6zm2.121 9.536-2.121-2.121-2.121 2.121-1.414-1.414 2.121-2.121-2.121-2.121 1.414-1.414 2.121 2.121 2.121-2.121 1.414 1.414-2.121 2.121 2.121 2.121zm-12.621 7.964v1h-1v-1c0-.276.224-.5.5-.5s.5.224.5.5zm14.198-4.41c-1.107.578-2.363.91-3.698.91-1.404 0-2.723-.364-3.87-1h-11.13c-1.654 0-3 1.346-3 3v8h24v-8c0-1.413-.985-2.594-2.302-2.91zm-18.698 6.91c.276 0 .5-.224.5-.5h1c0 .828-.672 1.5-1.5 1.5s-1.5-.672-1.5-1.5v-2c0-.828.672-1.5 1.5-1.5s1.5.672 1.5 1.5h-1c0-.276-.224-.5-.5-.5s-.5.224-.5.5v2c0 .276.224.5.5.5zm5.5 1h-1v-1.5h-1v1.5h-1v-3.5c0-.828.672-1.5 1.5-1.5s1.5.672 1.5 1.5zm4 0h-1v-3.5c0-.276-.224-.5-.5-.5s-.5.224-.5.5v3.5h-1v-5h1v.092c.157-.056.324-.092.5-.092.828 0 1.5.672 1.5 1.5zm2.5-1c.276 0 .5-.224.5-.5h1c0 .828-.672 1.5-1.5 1.5s-1.5-.672-1.5-1.5v-2c0-.828.672-1.5 1.5-1.5s1.5.672 1.5 1.5h-1c0-.276-.224-.5-.5-.5s-.5.224-.5.5v2c0 .276.224.5.5.5zm4.5-3h-1v1h1v1h-1v1h1v1h-2v-5h2zm3 4h-2v-5h1v4h1z"/></svg>