<svg id="Layer_1" viewBox="0 0 24 24" xmlns="http://www.w3.org/2000/svg" data-name="Layer 1"><path d="m14.5 17.5v1h-1v-1c0-.276.224-.5.5-.5s.5.224.5.5zm7.198-4.41c-1.107.578-2.363.91-3.698.91-1.404 0-2.723-.364-3.87-1h-11.13c-1.654 0-3 1.346-3 3v8h24v-8c0-1.413-.985-2.594-2.302-2.91zm-15.698 6.91c.276 0 .5-.224.5-.5h1c0 .828-.672 1.5-1.5 1.5s-1.5-.672-1.5-1.5v-2c0-.828.672-1.5 1.5-1.5s1.5.672 1.5 1.5h-1c0-.276-.224-.5-.5-.5s-.5.224-.5.5v2c0 .276.224.5.5.5zm5.5 1h-1v-2h-1v2h-1v-5h1v2h1v-2h1zm4 0h-1v-1.5h-1v1.5h-1v-3.5c0-.828.672-1.5 1.5-1.5s1.5.672 1.5 1.5zm4-4h-1v4h-1v-4h-1v-1h3zm-1.5-17c-3.314 0-6 2.686-6 6s2.686 6 6 6 6-2.686 6-6-2.686-6-6-6zm2.999 8.749c0 .44-.362.751-.752.751-.135 0-.274-.037-.402-.119l-1.694-1.381h-3.15v-3.801c0-.663.537-1.2 1.2-1.2h3.6c.66.001 1.2.542 1.2 1.201v4.548z"/></svg>