<svg id="Layer_1" viewBox="0 0 24 24" xmlns="http://www.w3.org/2000/svg" data-name="Layer 1"><path d="m20.5 7c1.93 0 3.5-1.57 3.5-3.5s-1.57-3.5-3.5-3.5-3.5 1.57-3.5 3.5 1.57 3.5 3.5 3.5zm-4.408 12 1.908 1.269v.727h-10.697l-3.964 2.644c-.359.239-.762.36-1.19.36-.348 0-.696-.085-1.015-.256-.699-.375-1.134-1.101-1.134-1.894v-14.854c0-1.654 1.346-2.996 3-2.996h1v15zm7.908-11.261v10.111c0 .793-.435 1.519-1.134 1.894-.318.171-.667.255-1.015.255-.416 0-.831-.121-1.191-.36l-3.963-2.643h-10.697v-14c0-1.654 1.346-2.996 3-2.996h7.264c-.789.952-1.264 2.17-1.264 3.5 0 3.033 2.467 5.5 5.5 5.5 1.329 0 2.548-.474 3.5-1.261z"/></svg>