<svg id="Layer_1" viewBox="0 0 24 24" xmlns="http://www.w3.org/2000/svg" data-name="Layer 1"><path d="m13.93 17.505c-.47.258-.93 1.126-.93 1.752v.743h-2v-.743c0-1.191.734-2.828 1.964-3.504.762-.421 1.156-1.254 1.003-2.124-.138-.787-.81-1.458-1.596-1.597-.608-.106-1.195.047-1.656.435-.454.382-.715.94-.715 1.533h-2c0-1.185.521-2.302 1.429-3.064.907-.762 2.102-1.08 3.288-.873 1.613.283 2.938 1.607 3.221 3.22.298 1.697-.509 3.394-2.008 4.222zm-2.93 6.495h2v-2h-2zm.148-18 6-6h-3.422l-6 6zm12.851 0v-3c0-.238-.029-.47-.081-.692l-3.692 3.692zm-6.601 0 5.4-5.4c-.501-.377-1.124-.6-1.798-.6h-1.023l-6 6zm-17.398 2v14h9v-2.743c0-1.011.328-2.21.968-3.257h-3.968v-2c0-1.777.781-3.453 2.143-4.596 1.358-1.142 3.15-1.619 4.919-1.311 2.428.426 4.42 2.418 4.846 4.845.435 2.474-.703 4.947-2.84 6.22-.032.057-.064.132-.072.175l.005 2.668h9v-14.001zm3-8c-1.654 0-3 1.346-3 3v1.667l4.667-4.667zm1.899 6 5.999-6h-3.403l-5.999 6z"/></svg>