<?xml version="1.0" encoding="UTF-8"?>
<svg xmlns="http://www.w3.org/2000/svg" id="Layer_1" data-name="Layer 1" viewBox="0 0 24 24">
  <path d="M16,14v-1c0-2.206-1.794-4-4-4s-4,1.794-4,4v1h-2v7c0,1.654,1.346,3,3,3h6c1.654,0,3-1.346,3-3v-7h-2Zm-3,6h-2v-2h2v2Zm1-6h-4v-1c0-1.103,.897-2,2-2s2,.897,2,2v1Zm10-1.5c0,2.872-1.624,5.369-4,6.628v-7.128h-2.09c-.477-2.837-2.938-5-5.91-5s-5.433,2.163-5.91,5h-2.09v7.889c-2.279-.511-4-2.733-4-5.389,0-1.722,.811-3.334,2.157-4.367-.104-.536-.157-1.083-.157-1.633C2,3.813,5.813,0,10.5,0c3.453,0,6.537,2.079,7.848,5.23,3.308,.833,5.652,3.803,5.652,7.27Z"/>
</svg>
