<?xml version="1.0" encoding="UTF-8"?>
<svg xmlns="http://www.w3.org/2000/svg" id="Layer_1" data-name="Layer 1" viewBox="0 0 24 24">
  <path d="M18,18c0-3.314-2.686-6-6-6s-6,2.686-6,6,2.686,6,6,6,6-2.686,6-6Zm-2.569,0l-2.688,2.687c-.417,.417-1.093,.417-1.51,0l-2.687-2.687h2.454v-3h2v3h2.431Zm8.569-5.5c0,2.909-1.668,5.431-4.096,6.674,.057-.384,.096-.774,.096-1.174,0-4.418-3.582-8-8-8s-8,3.582-8,8c0,.667,.091,1.311,.244,1.93-2.399-.403-4.244-2.681-4.244-5.43,0-1.722,.811-3.335,2.157-4.367-.104-.536-.157-1.082-.157-1.633C2,3.813,5.813,0,10.5,0c3.453,0,6.538,2.079,7.848,5.23,3.308,.833,5.652,3.803,5.652,7.27Z"/>
</svg>
