<?xml version="1.0" encoding="UTF-8"?>
<svg xmlns="http://www.w3.org/2000/svg" id="Layer_1" data-name="Layer 1" viewBox="0 0 24 24">
  <path d="M17,13.5v.295c0,1.061-1.912,2.205-5,2.205s-5-1.145-5-2.205v-.295c0-1.495,2.009-2.5,5-2.5s5,1.005,5,2.5Zm1.348-8.27C17.037,2.079,13.953,0,10.5,0,5.813,0,2,3.813,2,8.5c0,.55,.053,1.097,.157,1.633-1.347,1.033-2.157,2.645-2.157,4.367,0,3.033,2.243,5.5,5,5.5v-6.5c0-2.076,1.833-4.5,7-4.5s7,2.424,7,4.5v6.062c2.908-1.033,5-3.804,5-7.062,0-3.467-2.344-6.437-5.652-7.27Zm-6.348,14.77c3.248,0,5-1.03,5-2v-1.149c-1.232,.726-2.963,1.149-5,1.149s-3.768-.423-5-1.149v1.149c0,.97,1.752,2,5,2Zm0,2c-2.074,0-3.786-.376-5-1.04v.634c0,1.11,1.31,2.407,5,2.407s5-1.296,5-2.407v-.634c-1.214,.665-2.926,1.04-5,1.04Z"/>
</svg>
