<svg id="Layer_1" viewBox="0 0 24 24" xmlns="http://www.w3.org/2000/svg" data-name="Layer 1"><path d="m23.587 13.474-.452 1.394-4.667-4.491-2.218 2.218-2.828-2.828 2.163-2.163-2.142-2.062c-.615-.631-.593-1.623.029-2.232l1.901-1.854c.603-.593 1.644-.584 2.236.021l3.47 2.958c3.565 3.643 3.098 7.224 2.509 9.04zm-13.019-7.956c.594-.61.571-1.601-.052-2.21l-1.896-1.85c-.602-.595-1.703-.531-2.178-.036l-3.587 3.069c-3.503 3.583-3.037 7.163-2.448 8.978l.452 1.393 4.675-4.5 12.631 12.631 2.828-2.828-12.577-12.577 2.151-2.07zm-7.598 14.699 2.828 2.828 4.795-4.795-2.828-2.828z"/></svg>