<svg id="Layer_1" viewBox="0 0 24 24" xmlns="http://www.w3.org/2000/svg" data-name="Layer 1"><path d="m4.684 3.948-3-1 .633-1.896 3 1zm.633 4-.633-1.896-3 1 .633 1.896zm16.999-5-.633-1.896-3 1 .633 1.896zm-18.816 12.052c1.105 0 2-.895 2-2s-.895-2-2-2-2 .895-2 2 .895 2 2 2zm17 0c1.105 0 2-.895 2-2s-.895-2-2-2-2 .895-2 2 .895 2 2 2zm1.816-7.948-3-1-.633 1.896 3 1zm-11.394-6.939c-1.956.408-3.507 2.033-3.846 4.001-.343 1.997.506 3.815 1.944 4.886h1.979v-2.277c-.595-.346-1-.984-1-1.723h4c0 .738-.405 1.376-1 1.723v2.277h1.98c1.222-.91 2.02-2.358 2.02-4 .001-3.113-2.845-5.562-6.077-4.887zm1.078 14.887c-1.105 0-2 .895-2 2s.895 2 2 2 2-.895 2-2-.895-2-2-2zm-7 1h-3c-1.103 0-2 .897-2 2v2h7v-2c0-1.103-.897-2-2-2zm17 0h-3c-1.103 0-2 .897-2 2v2h7v-2c0-1.103-.897-2-2-2zm-8.5 4h-3c-1.103 0-2 .897-2 2v2h7v-2c0-1.103-.897-2-2-2zm-3.5-7h4v-2h-4z"/></svg>