<svg id="Layer_1" viewBox="0 0 24 24" xmlns="http://www.w3.org/2000/svg" data-name="Layer 1"><path d="m23 13.723v4.277h-5.528c-1.239 3.49-4.563 6-8.472 6-2.122 0-4.071-.742-5.611-1.975l3.592-3.592c.595.351 1.28.567 2.019.567 1.858 0 3.411-1.28 3.858-3h8.142v-2.277c-.595-.346-1-.984-1-1.723 0-1.105.895-2 2-2s2 .895 2 2c0 .738-.405 1.376-1 1.723zm-10.142.277h5.083c-.386-3.47-2.754-6.343-5.941-7.474v-3.526h2.277c.346.595.984 1 1.723 1 1.105 0 2-.895 2-2s-.895-2-2-2c-.738 0-1.376.405-1.723 1h-4.277v10.142c1.399.364 2.494 1.459 2.858 2.858zm-7.858 1c0-1.858 1.28-3.411 3-3.858v-10.142h-4.277c-.346-.595-.984-1-1.723-1-1.105 0-2 .895-2 2s.895 2 2 2c.738 0 1.376-.405 1.723-1h2.277v3.528c-3.49 1.239-6 4.563-6 8.472 0 2.122.742 4.071 1.975 5.611l3.592-3.592c-.351-.595-.567-1.28-.567-2.019z"/></svg>