<svg id="Layer_1" viewBox="0 0 24 24" xmlns="http://www.w3.org/2000/svg" data-name="Layer 1"><path d="m13 22v-2.051c5.046-.504 9-4.773 9-9.949 0-5.514-4.486-10-10-10s-10 4.486-10 10c0 5.176 3.954 9.446 9 9.949v2.051h-11v2h24v-2zm-1-19.324c.517.768 1.195 1.932 1.717 3.324h-3.435c.522-1.391 1.2-2.556 1.717-3.324zm3.335 6.443c.013 0 .509.218 1.055.42 1.013.374 1.267 1.107 1.167 1.669-.133.746-.844 1.287-1.691 1.287-.685 0-1.328-.276-1.765-.758l.767-.696c.237.261.61.418.998.418.371 0 .633-.22.671-.432.051-.286-.374-.466-.506-.515-.623-.23-1.185-.481-1.185-.481-.497-.316-.716-.803-.644-1.309.078-.538.471-.976 1.027-1.144 1.092-.329 1.948.481 1.986.512l-.618.728c-.021-.017-.524-.41-1.069-.248-.243.073-.291.234-.3.299-.006.049-.01.17.108.25zm-3.399-.619c-.276 0-.5.224-.5.5v3.5h-1v-5h1v.092c.157-.056.324-.092.5-.092.828 0 1.5.672 1.5 1.5v3.5h-1v-3.5c0-.276-.224-.5-.5-.5zm-2.436.5v2c0 .827-.673 1.5-1.5 1.5h-1.5v-5h1.5c.827 0 1.5.673 1.5 1.5zm4.217 5c-.522 1.391-1.2 2.556-1.717 3.324-.517-.768-1.196-1.933-1.717-3.324h3.435zm.41 3.704c.587-.964 1.24-2.223 1.714-3.704h3.076c-1.04 1.791-2.751 3.14-4.79 3.704zm4.79-11.704h-3.076c-.474-1.481-1.127-2.74-1.714-3.704 2.039.564 3.75 1.913 4.789 3.704zm-9.045-3.704c-.587.964-1.24 2.223-1.714 3.704h-3.076c1.04-1.791 2.751-3.14 4.79-3.704zm-4.79 11.704h3.076c.474 1.481 1.128 2.74 1.714 3.704-2.039-.564-3.75-1.913-4.79-3.704zm2.918-5.5c.275 0 .5.225.5.5v2c0 .275-.225.5-.5.5h-.5v-3z"/></svg>