<svg id="Layer_1" viewBox="0 0 24 24" xmlns="http://www.w3.org/2000/svg" data-name="Layer 1"><path d="m22.751 11.568-11.183 11.183c-.985-1.33-1.568-2.973-1.568-4.751 0-4.411 3.589-8 8-8 1.778 0 3.421.583 4.751 1.568zm-13.606 1.791c.945-1.795 2.419-3.269 4.214-4.214.426-.992.642-2.048.642-3.145 0-1.778-.583-3.422-1.568-4.751l-11.184 11.183c1.329.984 2.973 1.568 4.751 1.568 1.096 0 2.152-.215 3.145-.641zm-2.67 4.167c.411.41.99.563 1.526.432.003-.76.091-1.5.256-2.211-.718.166-1.456.25-2.209.254-.127.534.022 1.12.427 1.526zm11.051-11.051c-.413-.413-.992-.562-1.526-.431-.003.755-.088 1.494-.254 2.213.71-.164 1.449-.252 2.208-.256.127-.534-.022-1.12-.427-1.526zm-9.333 13.483c-.191.031-.383.047-.575.047-.933 0-1.856-.363-2.558-1.065-.851-.851-1.2-2.019-1.019-3.133-1.493-.298-2.867-.929-4.041-1.812v7.005c0 1.654 1.346 3 3 3h7.005c-.884-1.174-1.515-2.549-1.812-4.042zm7.614-15.917c1.114-.181 2.282.168 3.134 1.02.851.851 1.2 2.019 1.019 3.133 1.493.298 2.867.929 4.041 1.812v-7.006c0-1.654-1.346-3-3-3h-7.005c.883 1.174 1.514 2.548 1.812 4.041z"/></svg>