<svg id="Layer_1" viewBox="0 0 24 24" xmlns="http://www.w3.org/2000/svg" data-name="Layer 1"><path d="m24 4v8.721c-.572-.65-1.246-1.205-2-1.642v-6.376l-8.362 3.006c-.538.194-1.104.291-1.67.291s-1.132-.097-1.671-.291l-10.297-3.709 10.296-3.709c.546-.196 1.13-.291 1.704-.291.5 0 1.107.099 1.639.291zm0 14c0 3.314-2.686 6-6 6s-6-2.686-6-6 2.686-6 6-6 6 2.686 6 6zm-2.7 1.626c0-1.033-.734-1.929-1.747-2.131l-2.792-.559c-.267-.054-.461-.291-.461-.562 0-.316.257-.574.573-.574h2.127c.316 0 .585.211.671.5h1.62c-.102-1.175-1.09-2.1-2.291-2.1h-.2v-1.2h-1.6v1.2h-.327c-1.198 0-2.173.975-2.173 2.173 0 1.033.734 1.929 1.747 2.131l2.791.559c.268.054.462.291.462.563 0 .316-.258.574-.574.574h-2.126c-.316 0-.585-.211-.671-.5h-1.62c.102 1.175 1.09 2.1 2.291 2.1h.2v1.2h1.6v-1.2h.326c1.199 0 2.174-.975 2.174-2.173zm-19.3.374c-1.105 0-2 .895-2 2s.895 2 2 2h10.721c-1.183-1.042-2.053-2.426-2.458-4zm-2-4c0 1.105.895 2 2 2h8c0-1.459.397-2.822 1.079-4h-9.079c-1.105 0-2 .895-2 2zm18-6c.339 0 .672.028 1 .069v-2.162l-4.686 1.685c-.752.271-1.542.409-2.347.409s-1.595-.138-2.348-.409l-4.619-1.661v4.07h7.721c1.409-1.241 3.254-2 5.279-2z"/></svg>