<svg id="Layer_1" viewBox="0 0 24 24" xmlns="http://www.w3.org/2000/svg" data-name="Layer 1"><path d="m17 16.796 7 2.499v4.705h-9.935l-3.411-2.786c-.771-.643-.875-1.789-.233-2.56s1.789-.875 2.56-.233l1.019.87v-5.791c0-.911.852-1.632 1.792-1.479.737.12 1.208.812 1.208 1.56zm-9-11.655v-5.082c-4.17.461-7.477 3.771-7.939 7.941h5.08c.363-1.401 1.458-2.496 2.859-2.859zm15 5.136v-4.277h-5.522c-1.13-3.191-4.002-5.557-7.478-5.941v5.082c1.722.446 3 1.997 3 3.859 0 .338-.055.686-.133 1h3.247c.648.106 1.225.444 1.691.861.126-.601.195-1.223.195-1.861 0-.339-.024-.671-.061-1h3.061v2.277c-.595.346-1 .984-1 1.723 0 1.105.895 2 2 2s2-.895 2-2c0-.738-.405-1.376-1-1.723zm-15 2.581c-1.397-.365-2.496-1.458-2.859-2.859h-5.081c.385 3.474 2.75 6.344 5.94 7.472v3.528h-2.277c-.346-.595-.984-1-1.723-1-1.105 0-2 .895-2 2s.895 2 2 2c.738 0 1.376-.405 1.723-1h4.277v-10.14z"/></svg>