<svg id="Layer_1" viewBox="0 0 24 24" xmlns="http://www.w3.org/2000/svg" data-name="Layer 1"><path d="m16 5c0 2.209-1.791 4-4 4s-4-1.791-4-4c0-1.15.667-2.04 1.33-2.725 0 0 .454 1.725.858 1.725.842 0 .598-2.598 1.812-4 1.263 1.263 4 2.684 4 5zm-3.057.723-.943-.943-.943.943c-.521.521-.521 1.365 0 1.886s1.365.521 1.886 0 .521-1.365 0-1.886zm-6.943 3.277v2h3v-.812c-.548-.318-1.039-.72-1.46-1.188zm9 1.188v.812h3v-2h-1.54c-.421.468-.912.87-1.46 1.188zm1.612-8.745h-.036c.797.949 1.424 2.111 1.424 3.557 0 .702-.128 1.373-.35 2h2.35v6h-7v-2.09c-.326.055-.659.09-1 .09s-.674-.035-1-.09v2.09h-7v-6h2.35c-.223-.627-.35-1.298-.35-2 0-1.61.79-2.836 1.388-3.557l-7.388 2.873v19.684h4v-8h7v8h2v-8h7v8h4v-19.684l-7.388-2.873zm1.388 16.557h-3v6h3zm-9 0h-3v6h3z"/></svg>