<svg id="Layer_1" viewBox="0 0 24 24" xmlns="http://www.w3.org/2000/svg" data-name="Layer 1"><path d="m18 0c-3.308 0-6 2.692-6 6s2.692 6 6 6 6-2.692 6-6-2.692-6-6-6zm1 10h-2v-2h2zm0-3h-2v-5h2zm-6.878 14.121c-1.134 1.134-3.11 1.133-4.243 0-.567-.567-.879-1.32-.879-2.122s.312-1.555.878-2.122c.38-.38 1.122-1.04 2.122-1.886.744.631 1.65 1.416 2.122 1.886.566.567.878 1.32.878 2.122s-.312 1.555-.878 2.121zm7.87-7.381c.001.055.009.107.009.162 0 5.071-3.798 9.263-8.697 9.905.834-.225 1.605-.644 2.233-1.271.944-.945 1.464-2.201 1.464-3.536s-.52-2.591-1.464-3.536c-.642-.642-1.928-1.739-2.895-2.546l-.641-.536-.641.536c-.968.809-2.255 1.907-2.895 2.546-.944.945-1.464 2.201-1.464 3.536s.52 2.591 1.464 3.536c.627.627 1.399 1.046 2.232 1.271-4.899-.642-8.697-4.834-8.697-9.905 0-2.536 1.192-4.89 3.544-6.995l1.277-1.143.367 1.674c.118.537.348 1.44.557 2.011.952-4.105 2.983-7.229 3.072-7.365l.712-1.084.867.964c.134.149.294.302.456.456-.541 1.078-.853 2.292-.853 3.58 0 4.418 3.582 8 8 8 .689 0 1.354-.096 1.991-.26z"/></svg>