<svg id="Layer_1" viewBox="0 0 24 24" xmlns="http://www.w3.org/2000/svg" data-name="Layer 1"><path d="m9.112 8.408h-.996v-1.592h.996c.44 0 .796.356.796.796s-.356.796-.796.796zm7.288-.807c0-.442-.358-.8-.8-.8h-1.001v1.599h1.001c.442 0 .8-.358.8-.8zm-6.818-3.213c0-.44-.356-.796-.796-.796h-.671v1.592h.671c.44 0 .796-.356.796-.796zm-7.582 7.612v-9c0-1.654 1.346-3 3-3h14c1.654 0 3 1.346 3 3v9zm11-2h2.601c1.325 0 2.399-1.074 2.399-2.399v-.022c0-1.334-1.081-2.418-2.416-2.418h-.985v-2.161h-1.6v7zm-6.476 0h2.588c1.319 0 2.388-1.069 2.388-2.388 0-.715-.32-1.349-.818-1.786.305-.401.493-.895.493-1.438 0-1.319-1.069-2.388-2.388-2.388h-2.263zm15.476 4v10h-20v-10zm-4 2h-12v2h12zm-4 4h-8v2h8z"/></svg>