<svg id="Layer_1" viewBox="0 0 24 24" xmlns="http://www.w3.org/2000/svg" data-name="Layer 1"><path d="m24 5.286-.827.827c-.571.572-1.332.887-2.143.887-.01 0-.02-.003-.03-.003v.003h-3.333l-1.735 4.163c1.196.395 2.068 1.51 2.068 2.837v4h-18v-4c0-1.654 1.346-3 3-3h10.833l2.5-6h1.856c-.118-.327-.189-.672-.189-1.029 0-.81.316-1.572.887-2.143l.826-.829zm-14.985-2.001c-.561-.804-1.48-1.285-2.461-1.285h-3.554v7h10zm-6.957 16.715c-.034.162-.058.328-.058.5 0 1.381 1.119 2.5 2.5 2.5s2.5-1.119 2.5-2.5c0-.172-.024-.338-.058-.5zm9 0c-.034.162-.058.328-.058.5 0 1.381 1.119 2.5 2.5 2.5s2.5-1.119 2.5-2.5c0-.172-.024-.338-.058-.5h-4.885z"/></svg>