<svg id="Layer_1" viewBox="0 0 24 24" xmlns="http://www.w3.org/2000/svg" data-name="Layer 1"><path d="m23 9v6c0 1.654-1.346 3-3 3h-7v4h5v2h-12v-2h5v-4h-7c-1.654 0-3-1.346-3-3v-6h2v6c0 .552.448 1 1 1h1.373c.068-.254.142-.55.214-.878.746-.266 3.384-1.122 6.413-1.122s5.667.856 6.413 1.122c.072.329.146.625.214.878h1.373c.552 0 1-.448 1-1v-6zm-16.984 2.363c0 .533-.031 1.049-.079 1.543 1.335-.393 3.559-.906 6.063-.906s4.728.514 6.063.906c-.048-.494-.079-1.01-.079-1.543 0-2.104.489-3.659.782-4.402.389-.994.288-2.064-.27-2.862-.31-.443-.727-.794-1.208-1.017-.568-.261-1.066-.75-1.331-1.308-.51-1.078-1.671-1.774-2.957-1.774h-2.002c-1.286 0-2.447.696-2.957 1.773-.265.559-.763 1.048-1.333 1.31-.479.222-.896.572-1.206 1.016-.558.798-.658 1.868-.269 2.864.292.741.781 2.297.781 4.4z"/></svg>