<svg id="Layer_1" viewBox="0 0 24 24" xmlns="http://www.w3.org/2000/svg" data-name="Layer 1"><path d="m13.414 15.585c.378.378.586.88.586 1.415s-.208 1.036-.586 1.414c-.755.756-2.072.756-2.828 0-.78-.78-.779-2.049-.008-2.821l1.422-1.391zm6.586-4.585v13h-16v-13c0-1.654 1.346-3 3-3h1v-3h1.758l.934-5h2.615l.934 5h1.758v3h1c1.654 0 3 1.346 3 3zm-4 6c0-1.068-.416-1.877-1.18-2.64l-2.82-2.955-2.829 2.767c-1.56 1.56-1.56 4.098 0 5.657.755.756 1.76 1.172 2.829 1.172s2.073-.416 2.829-1.172c.755-.755 1.171-1.76 1.171-2.828z"/></svg>