<svg id="Layer_1" viewBox="0 0 24 24" xmlns="http://www.w3.org/2000/svg" data-name="Layer 1"><path d="m4 20h18v4h-18c-1.105 0-2-.895-2-2s.895-2 2-2zm18-18v16h-18c-.738-.001-1.451.271-2 .765v-15.765c0-1.657 1.343-3 3-3h15c1.105 0 2 .895 2 2zm-9 11.998h-2v2h2zm2.938-8.717c-.283-1.613-1.608-2.937-3.221-3.22-1.181-.205-2.379.111-3.287.873-.908.763-1.429 1.879-1.429 3.064h2c0-.592.261-1.151.715-1.533.46-.387 1.048-.54 1.655-.435.787.138 1.458.81 1.596 1.597.153.87-.241 1.703-1.003 2.124-1.229.677-1.964 2.313-1.964 3.504v.743h2v-.743c0-.626.46-1.494.93-1.752 1.499-.828 2.306-2.524 2.008-4.222z"/></svg>