<svg id="Layer_1" viewBox="0 0 24 24" xmlns="http://www.w3.org/2000/svg" data-name="Layer 1"><path d="m10.297 3.259-3.667-2.87c-.664-.519-1.596-.519-2.26 0l-3.666 2.87c-.444.347-.704.88-.704 1.444v6.297h11v-6.297c0-.564-.259-1.096-.703-1.444zm-3.297 4.741h-3v-3h3zm15.5 8h-1v-.5c0-.828-.672-1.5-1.5-1.5h-3c-.828 0-1.5.672-1.5 1.5v.5h-1c-.828 0-1.5.672-1.5 1.5v6.5h11v-6.5c0-.828-.672-1.5-1.5-1.5zm-5.5 4v-2h3v2zm-7.414-7-6.745 6.745c-1.567-1.852-2.583-4.184-2.796-6.745zm1.414 10.955c-2.561-.212-4.893-1.229-6.745-2.796l8.745-8.745v-12.364c6.158.509 11 5.66 11 11.95 0 .768-.079 1.517-.217 2.245-.189-.075-.386-.134-.589-.175-.548-1.219-1.773-2.069-3.194-2.069h-3c-1.42 0-2.646.851-3.194 2.069-1.599.322-2.806 1.738-2.806 3.431v6.455zm-1.414-10.955-6.745 6.745c-1.567-1.852-2.583-4.184-2.796-6.745z"/></svg>