<svg id="Layer_1" viewBox="0 0 24 24" xmlns="http://www.w3.org/2000/svg" data-name="Layer 1"><path d="m19.01 5h-14.058v-5h14.058zm-7.01 9.203-1.422 1.391c-.37.37-.578.872-.578 1.406s.208 1.036.586 1.414c.755.756 2.072.756 2.828 0 .378-.378.586-.88.586-1.414s-.208-1.036-.586-1.414zm12-2.203v12h-24v-12c0-1.654 1.346-3 3-3h3.952l.048-2h10.01l-.01 2h4c1.654 0 3 1.346 3 3zm-8 5c0-1.068-.416-2.073-1.18-2.836l-2.82-2.759-2.828 2.767c-.755.755-1.172 1.76-1.172 2.828s.417 2.073 1.171 2.828c.755.756 1.76 1.172 2.829 1.172s2.072-.416 2.828-1.172c.756-.755 1.172-1.76 1.172-2.828z"/></svg>