<svg id="Layer_1" viewBox="0 0 24 24" xmlns="http://www.w3.org/2000/svg" data-name="Layer 1"><path d="m16 0c-4.411 0-8 3.589-8 8 0 1.846.634 3.542 1.688 4.898l-3.265 3.265-2.312-2.312-1.414 1.414 2.312 2.312-1.259 1.259-2.312-2.312-1.414 1.414 2.312 2.312-2.336 2.346 1.404 1.404 9.699-9.688c1.355 1.054 3.052 1.688 4.898 1.688 4.411 0 8-3.589 8-8s-3.59-8-8.001-8zm0 4c1.105 0 2 .895 2 2s-.895 2-2 2-2-.895-2-2 .895-2 2-2zm4 8.46c-.578.519-1.254.926-2 1.19v-2.15c0-.276-.224-.5-.5-.5h-3c-.276 0-.5.224-.5.5v2.15c-.746-.265-1.422-.672-2-1.19v-.96c0-1.378 1.122-2.5 2.5-2.5h3c1.378 0 2.5 1.122 2.5 2.5z"/></svg>