<svg id="Layer_1" viewBox="0 0 24 24" xmlns="http://www.w3.org/2000/svg" data-name="Layer 1"><path d="m18 10.877v-4.188c0-3.259-4.954-6.076-5.518-6.386l-.482-.265-.482.265c-.564.311-5.518 3.127-5.518 6.386v4.188c1.845 1.671 3.395 2.765 5.993 3.69 2.54-.864 4.144-2.006 6.007-3.69zm-9-3.877h6v1.5l-3 1.5-3-1.5zm15 14h-1v3h-3v-6.55s-.712-.45-2-.45v7h-5v-4h-2v4h-5v-7c-1.212 0-2 .45-2 .45v6.55h-3v-3h-1v-1c0-4.746 4.098-6 6-6h.884c1.524 1.386 3.34 2.942 5.116 3.481 1.775-.539 3.592-2.096 5.116-3.481h.884c1.902 0 6 1.254 6 6z"/></svg>