<svg id="Layer_1" viewBox="0 0 24 24" xmlns="http://www.w3.org/2000/svg" data-name="Layer 1"><path d="m24 20v1c0 1.657-1.343 3-3 3h-18c-1.657 0-3-1.343-3-3v-1h8.145l.846 1h6.023l.846-1zm-6.562-12.11 2.528-2.527 2.528 2.527 1.414-1.414-2.528-2.527 2.528-2.527-1.415-1.415-2.528 2.527-2.527-2.527-1.414 1.414 2.528 2.527-2.528 2.527 1.414 1.414zm-8.356 10.11h-7.082v-12h10.72l4.718 4.718 2.528-2.527 2.034 2.034v7.775h-7.068l-.846 1h-4.157l-.846-1zm-5.082-3h7v-1.643l3 2.143v-7l-3 2.143v-1.643h-7zm2-2h3v-2h-3z"/></svg>