<svg id="Layer_1" viewBox="0 0 24 24" xmlns="http://www.w3.org/2000/svg" data-name="Layer 1"><path d="m6 11h3v2h-3zm11.438-3.117 2.528-2.527 2.528 2.527 1.414-1.414-2.528-2.527 2.528-2.527-1.414-1.414-2.528 2.527-2.528-2.527-1.414 1.414 2.528 2.527-2.528 2.527zm-1.578 12.117-.846 1h-6.023l-.846-1h-8.145v.993c0 1.657 1.343 3 3 3h18c1.657 0 3-1.343 3-3v-.993zm-6.777-2.007h-7.083v-11.993h10.72l4.718 4.711 2.528-2.527 2.034 2.034v7.775h-7.068l-.846 1h-4.157zm-1.082-2.993 3 2v-3.5c.828 0 1.5-.672 1.5-1.5s-.672-1.5-1.5-1.5v-3.5l-3 2h-2c-1.105 0-2 .895-2 2v2c0 1.105.895 2 2 2z"/></svg>