<svg id="Layer_1" viewBox="0 0 24 24" xmlns="http://www.w3.org/2000/svg" data-name="Layer 1"><path d="m21 10h-1v1.604c.039 1.202-.649 2.37-1.797 2.985-.518.277-1.077.414-1.629.414-.669 0-1.328-.201-1.893-.599-.518-.343-1.557-1.041-2.103-1.404h-8.578v-3h-1c-1.654 0-3 1.346-3 3v11h24v-11c0-1.654-1.346-3-3-3zm-10 11c-1.302 0-2.402-.839-2.816-2h-5.184v-2h5.184c.414-1.161 1.514-2 2.816-2 1.654 0 3 1.346 3 3s-1.346 3-3 3zm10-2h-5v-2h5zm-9-1c0 .551-.448 1-1 1s-1-.449-1-1 .448-1 1-1 1 .449 1 1zm.059-15.1c-.038 0-.071.026-.079.063l-.811 3.437h1.757l-.787-3.437c-.009-.037-.041-.063-.079-.063zm5.941-.9v9.604c.034 1.081-1.289 1.79-2.171 1.162-.091-.055-2.564-1.721-2.656-1.766h-7.173v-9c0-1.105.895-2 2-2h8c1.105 0 2 .895 2 2zm-2.927 7.5-1.559-6.804c-.267-1.569-2.627-1.535-2.898-.049l-1.616 6.853h1.437l.401-1.7h2.409l.389 1.7z"/></svg>