<svg id="Layer_1" viewBox="0 0 24 24" xmlns="http://www.w3.org/2000/svg" data-name="Layer 1"><path d="m19.07 2.929c-1.889-1.889-4.399-2.929-7.07-2.929s-5.182 1.04-7.071 2.929c-3.899 3.899-3.899 10.243.008 14.15l7.063 6.907 7.071-6.915c1.89-1.889 2.93-4.4 2.93-7.071s-1.04-5.183-2.93-7.071zm-4.07 11.071c-1.381 0-2.5-1.119-2.5-2.5 0-.293.06-.569.152-.83l-1.196.399c.025.141.044.284.044.432 0 1.381-1.119 2.5-2.5 2.5s-2.5-1.119-2.5-2.5 1.119-2.5 2.5-2.5c.121 0 .237.019.354.036l-.188-1.036h-1.166v-2h2.834l.364 2h2.149l-.182-1h-1.165v-2h2.835l.182 1h.983v2h-.62l.195 1.073c1.102.261 1.925 1.245 1.925 2.427 0 1.381-1.119 2.5-2.5 2.5z"/></svg>