<svg id="Layer_1" viewBox="0 0 24 24" xmlns="http://www.w3.org/2000/svg" data-name="Layer 1"><path d="m19.071 2.929c-1.889-1.889-4.4-2.929-7.071-2.929s-5.183 1.041-7.071 2.929c-3.899 3.899-3.899 10.243.008 14.149l7.063 6.909 7.071-6.917c3.899-3.899 3.899-10.243 0-14.142zm-4.071 11.071c-1.381 0-2.5-1.119-2.5-2.5 0-.684.276-1.303.721-1.754l-.149-.373-1.848 1.008c.171.338.276.715.276 1.119 0 1.381-1.119 2.5-2.5 2.5s-2.5-1.119-2.5-2.5 1.119-2.5 2.5-2.5c.167 0 .545.018.545.018l-.611-1.018h-.934v-2h2.066l1.236 2.06 1.022-.557-.324-.81v-1.692h4v2h-1.723l.803 2.008c1.343.043 2.42 1.139 2.42 2.492 0 1.381-1.119 2.5-2.5 2.5z"/></svg>