<svg id="Layer_1" viewBox="0 0 24 24" xmlns="http://www.w3.org/2000/svg" data-name="Layer 1"><path d="m6 15.723v1.277h4v-1c0-2.209 1.791-4 4-4h6v-4h-3v-1c0-3.86-3.14-7-7-7s-7 3.14-7 7v1h-3v13c0 1.657 1.343 3 3 3h7.556c-.345-.591-.556-1.268-.556-2v-3h-6v-3.277c-.595-.346-1-.984-1-1.723 0-1.105.895-2 2-2s2 .895 2 2c0 .738-.405 1.376-1 1.723zm-1-7.723v-1c0-2.757 2.243-5 5-5s5 2.243 5 5v1zm11.764 10.057.53 1.404h-1.065zm5.236-4.057h-8c-1.105 0-2 .895-2 2v6c0 1.105.895 2 2 2h8c1.105 0 2-.895 2-2v-6c0-1.105-.895-2-2-2zm-3.75 8-.5-1.326h-1.983l-.5 1.324h-1.303l2.285-5.998h1.033l2.265 6zm3.25 0h-1.237v-6h1.237z"/></svg>