<svg id="Layer_1" viewBox="0 0 24 24" xmlns="http://www.w3.org/2000/svg" data-name="Layer 1"><path d="m15.997 7.863c-.052-3.063-.566-5.934-.589-6.06l-.414-1.803-3.034 1.743c-1.025-.474-2.195-.743-3.461-.743s-2.432.269-3.456.743l-3.03-1.743-.414 1.803c-.023.127-.537 3.003-.589 6.068-.01.087-.006.578-.006.674 0 3.559 2.878 6.455 6.417 6.455h2.167c3.539 0 6.417-2.896 6.417-6.455 0-.106.004-.586-.007-.682zm-7.493 2.137c-.966 0-1.5-.771-1.5-1.208s.534-.792 1.5-.792 1.5.354 1.5.792-.534 1.208-1.5 1.208zm15.496-4v2.974c0 5.037-2.667 8.518-7 11.026v4h-17v-4c0-1.926.916-3.638 2.331-4.737 1.415 1.085 3.176 1.737 5.09 1.737h1.08c-.828 0-1.5.672-1.5 1.5s.672 1.5 1.5 1.5 1.5-.672 1.5-1.5-.672-1.5-1.5-1.5h1.087c2.585 0 4.9-1.179 6.445-3.027 3.336-.272 5.968-3.069 5.968-6.473v-1.5h2z"/></svg>