<svg id="Layer_1" viewBox="0 0 24 24" xmlns="http://www.w3.org/2000/svg" data-name="Layer 1"><path d="m3.293 7.584-3.271-2.303 1.152-1.635 3.271 2.303zm4.604-3.932-1.68-3.63-1.814.84 1.681 3.63 1.814-.84zm12.457 19.18-2.303-3.271-1.635 1.151 2.303 3.271zm3.625-5.042-3.63-1.681-.84 1.814 3.63 1.681zm-14.312-.338-.982.915c-.843.842-2.213.842-3.056 0-.842-.843-.842-2.213 0-3.056l.982-.915-3.505-3.505-1.025.959c-2.775 2.774-2.775 7.29 0 10.064 1.344 1.345 3.132 2.085 5.033 2.085s3.688-.74 5.033-2.085l1.025-.959-3.504-3.504zm4.919 2.091 1.761-1.76-3.504-3.504-1.762 1.76 3.504 3.504zm-6.561-6.561 1.761-1.76-3.505-3.504-1.761 1.76 3.504 3.504zm12.931.189.959-1.025c1.345-1.344 2.085-3.131 2.085-5.033s-.74-3.688-2.085-5.033c-2.774-2.775-7.29-2.775-10.064 0l-.959 1.025 3.505 3.505.915-.982c.843-.842 2.213-.842 3.056 0 .842.843.842 2.213 0 3.056l-.915.982 3.504 3.504zm-4.917-2.09-1.76 1.762 3.504 3.504 1.76-1.761-3.504-3.504zm-6.561-6.56-1.76 1.761 3.504 3.505 1.76-1.761-3.504-3.504z"/></svg>