<svg id="Layer_1" viewBox="0 0 24 24" xmlns="http://www.w3.org/2000/svg" data-name="Layer 1"><path d="m24 13v9h-7.872l-2.454 1.689c-.723.463-1.672-.057-1.672-.915l-.002-9.771c-.001-1.1.899-2.001 1.999-2.001l8-.002c1.105 0 2.001.895 2.001 2zm-5 6h-2v2h2zm1.934-4.635c-.228-1.093-1.067-1.981-2.14-2.263-.915-.241-1.868-.05-2.61.522-.741.572-1.184 1.47-1.184 2.402h2c0-.317.151-.623.405-.819.146-.112.457-.283.881-.171.334.087.618.39.689.736.109.524-.178.937-.511 1.112-.4.211-1.465.772-1.465 2.116h2c0-.061 0-.137.397-.346 1.197-.631 1.814-1.953 1.537-3.289zm-14.934-14.365c-3.309 0-6 2.691-6 6h12c0-3.309-2.691-6-6-6zm0 14c3.309 0 6-2.691 6-6h-12c0 3.309 2.691 6 6 6zm0 2c-1.061 0-2.073-.212-3-.589v5.589c0 1.654 1.346 3 3 3s3-1.346 3-3v-5.589c-.927.377-1.939.589-3 .589z"/></svg>