<svg id="Layer_1" viewBox="0 0 24 24" xmlns="http://www.w3.org/2000/svg" data-name="Layer 1"><path d="m10 9c-5.607 0-10 4.33-10 9.857 0 5.048 4.612 5.111 6.829 5.143h6.86c1.726-.054 6.311-.196 6.311-5.143 0-5.527-4.393-9.857-10-9.857zm6.038 10.677-.803.171c-.392.078-.922.13-1.577.151h-6.727c-.905-.011-1.601-.064-2.083-.158l-.81-.156v-.825c0-3.285 2.636-5.859 6-5.859s6 2.573 6 5.857zm-2.1-1.691c-.097.006-.201.011-.314.015h-6.68c-.316-.004-.582-.014-.805-.026.404-1.724 1.972-2.974 3.899-2.974s3.498 1.253 3.9 2.985zm10.062-8.128c0 2.673-1.339 3.943-2.843 4.554-1.746-4.385-6.028-7.412-11.157-7.412-2.162 0-4.173.538-5.908 1.489.657-4.857 4.773-8.489 9.908-8.489 5.607 0 10 4.33 10 9.857z"/></svg>