<svg id="Layer_1" viewBox="0 0 24 24" xmlns="http://www.w3.org/2000/svg" data-name="Layer 1"><path d="m18 0c-3.314 0-6 2.686-6 6s2.686 6 6 6 6-2.686 6-6-2.686-6-6-6zm1.126 9.8h-.326v1.2h-1.6v-1.2h-.2c-1.201 0-2.189-.925-2.291-2.1h1.62c.086.289.354.5.671.5h2.126c.316 0 .574-.257.574-.574 0-.272-.194-.509-.462-.563l-2.791-.559c-1.013-.203-1.747-1.099-1.747-2.131 0-1.199.975-2.173 2.173-2.173h.327v-1.2h1.6v1.2h.2c1.201 0 2.189.925 2.291 2.1h-1.62c-.086-.289-.354-.5-.671-.5h-2.127c-.316 0-.573.257-.573.574 0 .272.194.509.461.562l2.792.559c1.013.202 1.747 1.099 1.747 2.131 0 1.199-.975 2.173-2.174 2.173zm-8.306 6.434-2.135 2.133c-.843.842-2.213.842-3.056 0-.842-.843-.842-2.213 0-3.056l2.135-2.133-3.505-3.505-2.178 2.177c-2.775 2.774-2.775 7.29 0 10.064 1.344 1.345 3.132 2.085 5.033 2.085s3.688-.74 5.033-2.085l2.178-2.177-3.504-3.504zm4.919 2.091 1.761-1.76-3.504-3.504-1.762 1.76 3.504 3.504zm-6.561-6.561 1.761-1.76-3.505-3.504-1.761 1.76 3.504 3.504z"/></svg>