<?xml version="1.0" encoding="UTF-8"?>
<svg xmlns="http://www.w3.org/2000/svg" id="Layer_1" data-name="Layer 1" viewBox="0 0 24 24">
  <path d="M6,6C2.686,6,0,8.686,0,12s2.686,6,6,6,6-2.686,6-6-2.686-6-6-6Zm1.149,9.8h-.326v1.128c-.261,.043-.526,.072-.8,.072s-.539-.03-.8-.073v-1.127h-.2c-1.201,0-2.189-.925-2.291-2.1h1.62c.086,.289,.354,.5,.671,.5h2.126c.316,0,.574-.257,.574-.574,0-.272-.194-.509-.462-.563l-2.791-.559c-1.013-.203-1.747-1.099-1.747-2.131,0-1.199,.975-2.173,2.173-2.173h.327v-1.2h1.6v1.2h.2c1.201,0,2.189,.925,2.291,2.1h-1.62c-.086-.289-.354-.5-.671-.5h-2.127c-.316,0-.573,.257-.573,.574,0,.272,.194,.509,.461,.562l2.792,.559c1.013,.202,1.747,1.099,1.747,2.131,0,1.199-.975,2.173-2.174,2.173ZM22.119,5c-.196-.804-.615-1.518-1.196-2.071l.868-1.507-1.732-.998-.873,1.515c-.379-.111-.771-.189-1.185-.189s-.807,.078-1.185,.189l-.873-1.515-1.732,.998,.868,1.507c-.581,.553-1,1.267-1.196,2.071h-1.881v2h1.881c.196,.804,.615,1.518,1.196,2.071l-.868,1.507,1.732,.998,.873-1.515c.379,.111,.771,.189,1.185,.189s.807-.078,1.185-.189l.873,1.515,1.732-.998-.868-1.507c.581-.553,1-1.267,1.196-2.071h1.881v-2h-1.881Zm-5.619,1c0-.827,.673-1.5,1.5-1.5s1.5,.673,1.5,1.5-.673,1.5-1.5,1.5-1.5-.673-1.5-1.5Zm4.423,8.929l.868-1.507-1.732-.998-.873,1.515c-.379-.111-.771-.189-1.185-.189s-.807,.078-1.185,.189l-.873-1.515-1.732,.998,.868,1.507c-.581,.553-1,1.267-1.196,2.071h-1.881v2h1.881c.196,.804,.615,1.518,1.196,2.071l-.868,1.507,1.732,.998,.873-1.515c.379,.111,.771,.189,1.185,.189s.807-.078,1.185-.189l.873,1.515,1.732-.998-.868-1.507c.581-.553,1-1.267,1.196-2.071h1.881v-2h-1.881c-.196-.804-.615-1.518-1.196-2.071Zm-4.423,3.071c0-.827,.673-1.5,1.5-1.5s1.5,.673,1.5,1.5-.673,1.5-1.5,1.5-1.5-.673-1.5-1.5Z"/>
</svg>
