<svg id="Layer_1" viewBox="0 0 24 24" xmlns="http://www.w3.org/2000/svg" data-name="Layer 1"><path d="m22 14v-1c0-2.206-1.794-4-4-4s-4 1.794-4 4v1h-2v7c0 1.654 1.346 3 3 3h6c1.654 0 3-1.208 3-3v-7zm-3 6h-2v-2h2zm1-6h-4v-1c0-1.103.897-2 2-2s2 .897 2 2zm-6-6c0 1.103-.897 2-2 2s-2-.897-2-2 .897-2 2-2 2 .897 2 2zm7.011-8h-18.011c-1.654 0-3 1.346-3 3v13h10v-4.556c-1.19-.694-2-1.97-2-3.444 0-2.206 1.794-4 4-4 1.997 0 3.642 1.475 3.938 3.391.643-.244 1.333-.391 2.061-.391 2.968 0 5.439 2.166 5.916 5l.083.615v-9.615h.001c0-1.651-1.341-2.994-2.99-3zm-16.511 13c-.828 0-1.5-.672-1.5-1.5s.672-1.5 1.5-1.5 1.5.672 1.5 1.5-.672 1.5-1.5 1.5zm0-7c-.828 0-1.5-.672-1.5-1.5s.672-1.5 1.5-1.5 1.5.672 1.5 1.5-.672 1.5-1.5 1.5zm15 0c-.828 0-1.5-.672-1.5-1.5s.672-1.5 1.5-1.5 1.5.672 1.5 1.5-.672 1.5-1.5 1.5z"/></svg>