<svg id="Layer_1" viewBox="0 0 24 24" xmlns="http://www.w3.org/2000/svg" data-name="Layer 1"><path d="m4.329 8.328c.04 1.482 1.171 2.672 1.171 2.672s1.131-1.19 1.171-2.672c1.076 1.019 2.718 1.061 2.718 1.061s-.042-1.641-1.061-2.718c1.482-.04 2.672-1.171 2.672-1.171s-1.19-1.131-2.672-1.172c1.019-1.076 1.061-2.718 1.061-2.718s-1.641.042-2.718 1.061c-.04-1.482-1.171-2.672-1.171-2.672s-1.131 1.19-1.171 2.672c-1.076-1.019-2.718-1.06-2.718-1.06s.042 1.642 1.061 2.718c-1.482.04-2.672 1.171-2.672 1.171s1.19 1.131 2.672 1.171c-1.019 1.076-1.061 2.718-1.061 2.718s1.641-.042 2.718-1.061zm.422-3.576.75-1.752.759 1.741 1.741.759-1.751.751-.749 1.749-.757-1.743-1.743-.757zm19.25 4.391c0 2.091-1.832 3.857-4 3.857h-.393c.368.785.481 1.655.326 2.529-.358 2.012-2.169 3.471-4.306 3.471h-3.627v3h5v2h-12.001v-2h5v-3h-3.627c-2.137 0-3.947-1.459-4.306-3.471-.166-.934-.025-1.864.405-2.69.189-.363.416-1.62.422-1.621.016-.004.791.942 1.002 1.167l1.603 1.518 1.449-1.524c.084-.088.493-.534.892-1.226.771.208 1.375.233 1.497.237l2.103.053-.036-1.442h7.606c.012.354.036.689.069 1h.92c1.065 0 2-.868 2-1.857 0-.758-.673-1.143-2-1.143h-8.999c.692-.398 1.289-.966 1.378-1.05l1.525-1.45-1.525-1.45c-.062-.059-.614-.596-1.177-1.05h9.154l-.4 1.295c-.11.357-.293.995-.47 1.705h.515c2.468 0 4 1.205 4 3.143z"/></svg>