<?xml version="1.0" encoding="UTF-8"?>
<svg xmlns="http://www.w3.org/2000/svg" id="Layer_1" data-name="Layer 1" viewBox="0 0 24 24">
  <path d="M8.5,21h2.5v1h-1v2h4v-2h-1v-1h2.5v-3.5c0-.828-.672-1.5-1.5-1.5h-4c-.828,0-1.5,.672-1.5,1.5v3.5Zm15.5,0v-3.5c0-.828-.672-1.5-1.5-1.5h-4c-.828,0-1.5,.672-1.5,1.5v3.5h2.5v1h-1v2h4v-2h-1v-1h2.5ZM0,21H2.5v1H1.5v2H5.5v-2h-1v-1h2.5v-3.5c0-.828-.672-1.5-1.5-1.5H1.5c-.828,0-1.5,.672-1.5,1.5v3.5Zm5-7.5h6v1.5h2v-1.5h6v1.5h2v-3.5H13v-1.5h1.65c1.93,0,3.5-1.57,3.5-3.5,0-1.45-.912-2.729-2.22-3.246-.351-1.851-1.979-3.254-3.931-3.254-2.206,0-4,1.794-4,4v.171c-1.164,.413-2,1.525-2,2.829,0,1.654,1.346,3,3,3h2v1.5H3v3.5h2v-1.5Z"/>
</svg>
