<svg id="Layer_1" viewBox="0 0 24 24" xmlns="http://www.w3.org/2000/svg" data-name="Layer 1"><path d="m14.967 4.1c.496-.179.994-.43 1.395-.809 1.294-1.223 1.131-3.285 1.131-3.285s-2.18-.153-3.474 1.07c-.72.681-1.021 1.657-1.153 2.397-.181-1.156-.553-2.303-1.14-3.424l-1.771.928c.521.996.849 2.009.979 3.023h-.844c-2.902 0-5.091 2.253-5.091 5.24 0 3.283 2.188 5.76 5.091 5.76.653 0 1.304-.136 1.909-.396.605.261 1.256.396 1.909.396 2.902 0 5.091-2.477 5.091-5.76 0-2.659-1.643-4.68-4.033-5.14zm9.033 3.884v13.834l-12 2.182-12-2.182v-13.834c0-.892.393-1.731 1.078-2.303.684-.571 1.577-.81 2.458-.648l.668.162c-.751 1.151-1.205 2.53-1.205 4.046 0 4.424 3.049 7.76 7.091 7.76.306 0 .609-.024.909-.065v4.85l1 .182 1-.182v-4.85c.3.041.603.065.909.065 4.042 0 7.091-3.336 7.091-7.76 0-1.527-.417-2.914-1.146-4.061l.553-.135c.937-.171 1.83.064 2.516.636s1.078 1.411 1.078 2.303z"/></svg>