<svg id="Layer_1" viewBox="0 0 24 24" xmlns="http://www.w3.org/2000/svg" data-name="Layer 1"><path d="m17 13.66c0 5.158-3.806 10.34-8.5 10.34s-8.5-5.182-8.5-10.34c0-3.173 1.52-6.356 3.644-7.66 1.284 6.916 4.856 10.921 4.856 10.921s3.572-4.005 4.856-10.921c2.183 1.534 3.644 4.487 3.644 7.66zm-8.505-.234c.883-1.5 1.96-3.739 2.639-6.587-.797-.546-1.694-.839-2.634-.839s-1.838.293-2.635.839c.68 2.865 1.75 5.095 2.63 6.586zm6.011-9.062c.651.457 1.243 1.003 1.769 1.62.679-1.369 1.372-3.1 1.859-5.145-.797-.546-1.694-.839-2.634-.839s-1.838.293-2.635.839c.262 1.104.582 2.113.927 3.023zm5.85-4.364c-.62 3.34-1.773 6-2.801 7.859.926 1.713 1.445 3.723 1.445 5.8 0 1.244-.176 2.459-.499 3.611 3.213-1.603 5.499-5.614 5.499-9.611 0-3.173-1.461-6.126-3.644-7.66zm-8.804 4.763.149-.804c-.417-1.185-.787-2.508-1.057-3.959-1.302.799-2.376 2.304-3.014 4.08 1.329-.175 2.699.053 3.921.684z"/></svg>