<svg id="Layer_1" viewBox="0 0 24 24" xmlns="http://www.w3.org/2000/svg" data-name="Layer 1"><path d="m21.333 10.632c-2.423-2.342-5.853-2.632-7.889-2.633-.53-.909-1.401-1.586-2.443-1.857v-1.854l-2.44-2.44-6.448-1.793-.322.322 4.943 4.943-1.414 1.414-4.943-4.943-.322.322 1.793 6.447 2.44 2.44h1.854c.271 1.042.948 1.912 1.857 2.443 0 2.036.29 5.468 2.632 7.89 1.71 1.77 4.19 2.667 7.369 2.667v-2c-2.616 0-4.612-.692-5.931-2.057-1.642-1.698-2.001-4.185-2.058-5.944 2.197-.006 3.983-1.791 3.989-3.989 1.76.058 4.245.418 5.944 2.06 1.365 1.32 2.057 3.314 2.057 5.93h2c0-3.178-.897-5.657-2.667-7.368zm-11.333.868c-.827 0-1.5-.673-1.5-1.5s.673-1.5 1.5-1.5 1.5.673 1.5 1.5-.673 1.5-1.5 1.5z"/></svg>