<svg id="Layer_1" viewBox="0 0 24 24" xmlns="http://www.w3.org/2000/svg" data-name="Layer 1"><path d="m16.002 8.5c-.513 0-1.025-.195-1.416-.586l-3.284-3.197 1.396-1.434 3.293 3.207 6.307-6.202 1.404 1.424-6.293 6.207c-.387.387-.896.581-1.407.581zm3.998-.328v11.828h-2v4h-18v-21c0-1.654 1.346-3 3-3h10.148l-3.932 4h-5.216v4h7.808l1.364 1.328c.755.756 1.761 1.172 2.83 1.172s2.069-.414 2.812-1.157l1.187-1.17zm-14 9.828h-2v2h2zm0-4h-2v2h2zm0-4h-2v2h2zm4 8h-2v2h2zm0-4h-2v2h2zm0-4h-2v2h2zm4 8h-2v2h2zm0-4h-2v2h2zm0-4h-2v2h2z"/></svg>