<?xml version="1.0" encoding="UTF-8"?>
<svg xmlns="http://www.w3.org/2000/svg" id="Layer_1" data-name="Layer 1" viewBox="0 0 24 24">
  <path d="M3.5,10v4h-1v-4h1m.5-2H2c-.827,0-1.5,.673-1.5,1.5v5c0,.827,.673,1.5,1.5,1.5h2c.827,0,1.5-.673,1.5-1.5v-5c0-.827-.673-1.5-1.5-1.5h0Zm5.5,2v4h-1v-4h1m.5-2h-2c-.827,0-1.5,.673-1.5,1.5v5c0,.827,.673,1.5,1.5,1.5h2c.827,0,1.5-.673,1.5-1.5v-5c0-.827-.673-1.5-1.5-1.5h0Zm5.5,2v4h-1v-4h1m.5-2h-2c-.827,0-1.5,.673-1.5,1.5v5c0,.827,.673,1.5,1.5,1.5h2c.827,0,1.5-.673,1.5-1.5v-5c0-.827-.673-1.5-1.5-1.5h0Zm5.5,2v4h-1v-4h1m.5-2h-2c-.827,0-1.5,.673-1.5,1.5v5c0,.827,.673,1.5,1.5,1.5h2c.827,0,1.5-.673,1.5-1.5v-5c0-.827-.673-1.5-1.5-1.5h0Z"/>
</svg>
