<svg id="Layer_1" viewBox="0 0 24 24" xmlns="http://www.w3.org/2000/svg" data-name="Layer 1"><path d="m23.002 23.748c-.566.322-1.271.333-1.854.035l-3.155-1.354-3.175 1.37c-.298.163-.589.202-.864.202-.761 0-1.394-.493-1.687-.972-.348-.628-.345-1.359-.014-1.945l5.748-10.105 5.749 10.105c.528.94.193 2.136-.747 2.665zm-10.728-6.748h-1.235v2.171l-.529.931c-.667 1.184-.673 2.608.016 3.899h-10.526l3.765-21.518c.251-1.436 1.498-2.483 2.955-2.483h10.641c1.457 0 2.703 1.046 2.955 2.481l2.199 12.388-3.339-5.869h-2.352zm-1.235-10h2v-4h-2zm0 7h2v-4h-2z"/></svg>