<svg id="Layer_1" viewBox="0 0 24 24" xmlns="http://www.w3.org/2000/svg" data-name="Layer 1"><path d="m22.32 1.682c-1.083-1.084-2.524-1.682-4.056-1.682h-.001c-1.532 0-2.973.597-4.056 1.68l-3.013 3.013 3.351 3.351 3.249-3.251 1.414 1.414-3.249 3.251 1.901 1.901c-4.402 4.309-8.198 7.375-10.866 9.077-.035-1.899-1.586-3.436-3.494-3.436-.539 0-1.044.133-1.5.351v-17.351h-2v20.5c0 1.93 1.57 3.5 3.5 3.5.255 0 .502-.031.742-.083 4.323-.824 12.099-8.201 15.359-11.462l2.718-2.657c2.238-2.237 2.238-5.878.002-8.116zm-18.82 20.318c-.828 0-1.5-.672-1.5-1.5s.672-1.5 1.5-1.5 1.5.672 1.5 1.5-.672 1.5-1.5 1.5z"/></svg>