<svg id="Layer_1" viewBox="0 0 24 24" xmlns="http://www.w3.org/2000/svg" data-name="Layer 1"><path d="m22.108 15.427-13.794-14.523c-1.211-1.202-3.179-1.203-4.4.013l-2.914 3v4.083h3v3h3v3h3v3h3.141l-1.044 1.044c-.717.718-.729 1.897-.027 2.628l2.325 2.424c.604.602 1.398.901 2.193.901s1.591-.301 2.196-.903l3.306-3.308c.587-.584.91-1.362.91-2.189s-.323-1.605-.892-2.17zm-1.432 2.944-3.305 3.307c-.431.431-1.135.429-1.551.017l-2.226-2.321 4.872-4.876 2.21 2.326c.208.207.322.481.322.773s-.114.566-.323.774z"/></svg>