<svg id="Layer_1" viewBox="0 0 24 24" xmlns="http://www.w3.org/2000/svg" data-name="Layer 1"><path d="m24 1.995v-2h-24v2h4.999l4.94 2.741-8.457 4.691 8.456 4.69-5.197 2.883h-4.741v2h24v-2h-4.742l-5.197-2.883 8.456-4.69-8.456-4.691 4.94-2.741zm-8.864 15.005h-6.272l3.136-1.739zm3.258-7.573-6.395 3.547-6.395-3.547 6.395-3.548zm-6.394-5.835-2.879-1.597h5.759l-2.879 1.597zm-4.058 17.408c.034.162.058.328.058.5 0 1.381-1.119 2.5-2.5 2.5s-2.5-1.119-2.5-2.5c0-.172.024-.338.058-.5zm13 0c.034.162.058.328.058.5 0 1.381-1.119 2.5-2.5 2.5s-2.5-1.119-2.5-2.5c0-.172.024-.338.058-.5h4.885z"/></svg>