<svg id="Layer_1" viewBox="0 0 24 24" xmlns="http://www.w3.org/2000/svg" data-name="Layer 1"><path d="m16.878 10.426-6.453 6.453c-6.279-1.456-9.654-5.71-9.804-5.902l-.542-.697 10.2-10.201.697.542c.193.15 4.446 3.525 5.902 9.804zm7.122 9.612c0 1.059-.413 2.054-1.161 2.802-.748.749-1.743 1.161-2.802 1.161s-2.054-.412-2.802-1.161c-.867-.867-3.376-3.732-4.695-5.248l4.998-4.998c1.531 1.297 4.429 3.77 5.301 4.642.749.748 1.161 1.744 1.161 2.802zm-2.5-.037c0-.828-.672-1.5-1.5-1.5s-1.5.672-1.5 1.5.672 1.5 1.5 1.5 1.5-.672 1.5-1.5z"/></svg>