<svg id="Layer_1" viewBox="0 0 24 24" xmlns="http://www.w3.org/2000/svg" data-name="Layer 1"><path d="m6.166 6.892.643 3.108h-1.634l.664-3.104c.029-.149.09-.296.171-.296s.129.137.156.291zm6.435 2.947h-1.001v1.599h1.001c.442 0 .8-.358.8-.8s-.358-.8-.8-.8zm.473-2.44c0-.442-.358-.8-.8-.8h-.674v1.599h.674c.442 0 .8-.358.8-.8zm-.073 10.601v2h2c1.654 0 3 1.346 3 3v1h-2v-1c0-.551-.448-1-1-1h-6c-.551 0-1 .449-1 1v1h-2v-1c0-1.654 1.346-3 3-3h2v-2h-11.001v-15c0-1.654 1.346-3 3-3h18c1.654 0 3 1.346 3 3v15h-11zm3-7.5c0 1.381 1.119 2.5 2.5 2.5s2.5-1.119 2.5-2.5h-1.6c0 .496-.404.9-.9.9s-.9-.404-.9-.9v-3c0-.496.404-.9.9-.9s.9.404.9.9h1.6c0-1.381-1.119-2.5-2.5-2.5s-2.5 1.119-2.5 2.5zm-7 2.499-1.296-6.373c-.186-.929-.741-1.627-1.697-1.627s-1.523.726-1.686 1.581l-1.321 6.418h1.533l.299-1.4h2.302l.285 1.4h1.58zm6-2.36c0-.718-.322-1.355-.822-1.795.306-.403.495-.9.495-1.445 0-1.325-1.074-2.399-2.399-2.399h-2.274v8.038h2.601c1.325 0 2.399-1.074 2.399-2.399z"/></svg>