<svg id="Layer_1" viewBox="0 0 24 24" xmlns="http://www.w3.org/2000/svg" data-name="Layer 1"><path d="m8 11.003c0 2.214-.35 4.431-1.001 6.384l-1.701 4.613h-3.662l1.821-5.768c.183-.579.507-1.616.747-2.761l-4.204 1.529s1-2 1-4-1-4-1-4l4.203 1.528c-.239-1.145-.563-2.182-.747-2.761l-1.82-5.767h3.773l1.559 4.669c.685 2.052 1.032 4.183 1.032 6.333zm16-1.235v2.465c-.235.446-1.614 3.398-5.579 6.471-.31.235-.633.454-.961.665-.126.596-.284 1.186-.48 1.755-.592 1.721-2.226 2.877-4.067 2.877h-1.228l2.201-5.954c.729-2.183 1.114-4.62 1.114-7.046 0-2.366-.382-4.71-1.135-6.966l-1.154-3.458c2.096.544 4.049 1.459 5.71 2.72 3.967 3.075 5.341 6.021 5.579 6.471zm-4-.268c0-.828-.672-1.5-1.5-1.5s-1.5.672-1.5 1.5.672 1.5 1.5 1.5 1.5-.672 1.5-1.5zm-7 1.5c0-2.15-.347-4.281-1.032-6.333l-1.508-4.517c-.733-.091-1.474-.15-2.224-.15h-.719l1.347 4.037c.753 2.256 1.135 4.601 1.135 6.966 0 2.426-.385 4.863-1.114 7.046l-1.456 3.951h.807c.709 0 1.412-.042 2.106-.124l1.656-4.492c.652-1.952 1.001-4.17 1.001-6.384z"/></svg>