<svg id="Layer_1" viewBox="0 0 24 24" xmlns="http://www.w3.org/2000/svg" data-name="Layer 1"><path d="m18 0c-3.308 0-6 2.692-6 6s2.692 6 6 6 6-2.692 6-6-2.692-6-6-6zm1 10h-2v-2h2zm0-3h-2v-5h2zm-2.979 6.743v2.257c0 4.418-3.582 8-8 8-.003 0-.007 0-.01 0s-.007 0-.01 0c-4.419 0-8.001-3.582-8.001-8v-5c0-1.105.895-2 2-2h8.587c.945 2.333 2.958 4.112 5.434 4.743zm-6.021-7.743c0-.339.028-.672.069-1h-1.09v-2h1.607c.471-1.162 1.208-2.185 2.134-3h-10.741v7h8.09c-.041-.328-.069-.661-.069-1zm-3.021-1h-2v-2h2z"/></svg>