<svg id="Layer_1" viewBox="0 0 24 24" xmlns="http://www.w3.org/2000/svg" data-name="Layer 1"><path d="m23.414 16.963-8.069-14.086c-.751-1.21-1.939-1.877-3.345-1.877s-2.63.685-3.386 1.908l-8.01 14.026c-.768 1.24-.805 2.743-.098 4.022.72 1.299 1.981 2.044 3.462 2.044h16.064c1.459 0 2.754-.765 3.463-2.047.705-1.275.668-2.778-.081-3.99zm-12.114-1.263c0 1.269-1.031 2.3-2.3 2.3s-2.3-1.031-2.3-2.3v-5.7h1.6v5.7c0 .386.314.7.7.7s.7-.314.7-.7v-5.7h1.6zm5.255.838c-.12.668-.62 1.462-1.555 1.462s-1.442-.837-1.546-1.416l-1.211-6.583s1.629 0 1.629 0v.007s1.128 6.138 1.128 6.138l1.111-6.111-.008-.034h1.64s-1.188 6.538-1.188 6.538z"/></svg>