<svg id="Layer_1" viewBox="0 0 24 24" xmlns="http://www.w3.org/2000/svg" data-name="Layer 1"><path d="m16 5.082-.904-1.019-1.096.199c-.641-.166-1.308-.263-2-.263s-1.359.097-2 .263l-1.085-.263-.915 1.082c-2.387 1.386-4 3.964-4 6.918v1l-.84 5 .84 3.702c.323.066 7.872 1.298 7.872 1.298s7.804-.721 8.128-.787l1.032-4.468-1.032-4.745v-1c0-2.953-1.613-5.532-4-6.918z" opacity=".5"/><path d="m12 14c-4.411 0-8 3.589-8 8l-.41 1 .41 1h16l.378-1-.378-1c0-4.411-3.589-8-8-8z"/><path d="m10 4c0-1.103.897-2 2-2s2 .897 2 2v.263c.71.184 1.381.46 2 .819v-1.082c0-2.206-1.794-4-4-4s-4 1.794-4 4v1.082c.619-.36 1.29-.635 2-.819z"/><path d="m0 13v6c0 2.414 1.721 4.535 4 5v-11z"/><path d="m20 13v11c2.279-.465 4-2.586 4-5v-6z"/><path d="m9 10h6v2h-6z"/></svg>