<svg id="Layer_1" viewBox="0 0 24 24" xmlns="http://www.w3.org/2000/svg" data-name="Layer 1"><path d="m18 3v1h6v2h-6v2h6v2h-6v2h6v2h-6v2h6v2h-6v6h-2v-21c0-1.654 1.346-3 3-3h5v2h-5c-.552 0-1 .448-1 1z"/><path d="m10.689 16.07-2.601-6.069 1.65-3.849c.838-1.955 1.263-4.025 1.263-6.151h-2c0 1.854-.37 3.659-1.101 5.364l-.899 2.099-.899-2.099c-.73-1.705-1.101-3.511-1.101-5.364h-2.001c0 2.126.425 4.196 1.263 6.151l1.65 3.849-2.601 6.069c-1.877.328-3.311 1.96-3.311 3.93 0 2.206 1.794 4 4 4 1.201 0 2.266-.542 3-1.382.734.84 1.799 1.382 3 1.382 2.206 0 4-1.794 4-4 0-1.97-1.434-3.602-3.311-3.93zm-6.689 5.93c-1.103 0-2-.897-2-2s.897-2 2-2 2 .897 2 2-.897 2-2 2zm1.402-5.733 1.598-3.729 1.598 3.729c-.624.235-1.167.622-1.598 1.115-.431-.494-.974-.88-1.598-1.115zm4.598 5.733c-1.103 0-2-.897-2-2s.897-2 2-2 2 .897 2 2-.897 2-2 2z" opacity=".5"/></svg>