<svg id="Layer_1" viewBox="0 0 24 24" xmlns="http://www.w3.org/2000/svg" data-name="Layer 1"><path d="m17.339 7.518c-.658-3.719-3.831-6.518-7.57-6.518-4.247 0-7.702 3.565-7.702 7.948 0 1.354.338 2.683.967 3.855-1.8.854-3.035 2.734-3.035 4.846 0 2.95 2.331 5.351 5.197 5.351h11.275c4.151 0 7.528-3.484 7.528-7.767 0-3.98-2.917-7.27-6.661-7.715z" opacity=".5"/><path d="m10.865 20c-.768 0-1.536-.292-2.121-.876l-3.385-3.385 1.414-1.414 3.385 3.385c.39.39 1.025.39 1.415 0l5.654-5.653 1.414 1.414-5.654 5.654c-.585.584-1.353.877-2.122.877z"/></svg>