<svg id="Layer_1" viewBox="0 0 24 24" xmlns="http://www.w3.org/2000/svg" data-name="Layer 1"><g opacity=".5"><path d="m7.622 4.064-4.357 5.197 2.94 12.739h11.591l2.94-12.739-4.986-5.239z"/></g><path d="m18.975 3c.635-.838 1.026-1.87 1.026-3h-2c0 1.654-1.346 3-3 3h-6c-1.654 0-3-1.346-3-3h-2c0 1.13.391 2.162 1.026 3h-5.027v1c0 2.446 2.337 6 6 6 .364 0 .709.075 1.032.194-.021.099-.032.201-.032.306 0 .828.672 1.5 1.5 1.5.105 0 .207-.011.306-.031.119.323.194.667.194 1.031v5c-1.654 0-3 1.346-3 3s1.346 3 3 3h6c1.654 0 3-1.346 3-3s-1.346-3-3-3v-5c0-.364.075-.709.194-1.032.099.021.201.032.306.032.828 0 1.5-.672 1.5-1.5 0-.105-.011-.207-.032-.306.323-.119.667-.194 1.031-.194 3.663 0 6-3.554 6-6v-1h-5.025zm-.975 5c-2.757 0-5 2.243-5 5v5h-2v-5c0-2.757-2.243-5-5-5-.192 0-.376-.02-.557-.05.525-.877 1.389-2.017 2.696-2.95h7.343c1.327.947 2.211 2.103 2.735 2.986-.072.005-.143.014-.217.014z"/></svg>