<svg id="Layer_1" viewBox="0 0 24 24" xmlns="http://www.w3.org/2000/svg" data-name="Layer 1"><path d="m21.582 17.096h-19.198c-.706 0-1.286.525-1.384 1.205v5.199h22v-5h-.015c0-.774-.629-1.404-1.404-1.404z" opacity=".5"/><path d="m21.582 15.116c.291 0 .569.048.839.118.356-.491.579-1.083.579-1.734v-3c0-.103-.019-.2-.029-.3-.138-.63-.699-1.103-1.37-1.103h-19.198c-.736 0-1.334.57-1.392 1.292-.001.038-.011.074-.011.112v3c0 .648.221 1.236.573 1.726.261-.065.53-.109.811-.109h19.198z" opacity=".5"/><path d="m21.601 7.116c.444 0 .866.091 1.255.247.085-.274.143-.561.143-.864v-4.286c0-.946-.767-1.713-1.713-1.713h-18.573c-.946 0-1.713.767-1.713 1.713v4.287c0 .303.058.59.144.865.39-.157.814-.249 1.259-.249z" opacity=".5"/><g><path d="m5 9.096h2v2.404h-2z"/><path d="m9 9.096h2v2.404h-2z"/><path d="m5 17.096h2v2.404h-2z"/><path d="m9 17.096h2v2.404h-2z"/><path d="m5 .5h2v2.404h-2z"/><path d="m9 .5h2v2.404h-2z"/></g></svg>