<svg id="Layer_1" viewBox="0 0 24 24" xmlns="http://www.w3.org/2000/svg" data-name="Layer 1"><path d="m11.934 7.102-9.909 9.909c-.661.661-1.025 1.54-1.025 2.475 0 .589.16 1.149.432 1.654l-1.432 1.432 1.414 1.414 1.432-1.432c.504.273 1.064.432 1.654.432.935 0 1.814-.364 2.475-1.025l9.909-9.909z" opacity=".5"/><path d="m23.115.872c-1.143-1.143-3.134-1.144-4.275 0l-3.408 3.407c-1.336 1.337-3.461 1.367-4.837.071l-1.393 1.435 9 9 1.435-1.393c-1.297-1.376-1.266-3.5.071-4.837l3.407-3.407c.571-.571.886-1.331.886-2.138s-.314-1.567-.885-2.138z"/></svg>