<svg id="Layer_1" viewBox="0 0 24 24" xmlns="http://www.w3.org/2000/svg" data-name="Layer 1"><path d="m6.486 22.143-1.029-1.715c3.543-2.127 3.543-6.697 3.543-9.428 0-1.654 1.346-3 3-3s3 1.346 3 3h-2c0-.552-.449-1-1-1s-1 .448-1 1c0 2.947 0 8.434-4.514 11.143zm8.41-8.059-1.993-.168c-.316 3.729-1.524 6.615-3.592 8.58l1.378 1.449c2.434-2.312 3.849-5.63 4.207-9.861zm2.745 6.255-1.881-.678c-.422 1.17-.96 2.259-1.598 3.235l1.674 1.094c.724-1.106 1.33-2.335 1.805-3.651zm1.358-9.339c0-3.859-3.141-7-7-7-1.984 0-3.885.851-5.213 2.333l1.489 1.334c.95-1.06 2.307-1.667 3.724-1.667 2.757 0 5 2.243 5 5 0 1.285 0 3.436-.462 5.809l1.963.383c.499-2.562.499-4.834.499-6.191zm-12 0c0-.281.023-.562.069-.833l-1.972-.334c-.065.382-.098.774-.098 1.167 0 4.645-1.346 7-4 7v2c3.869 0 6-3.196 6-9zm16 0c0-1.679-.37-3.292-1.101-4.794l-1.799.875c.597 1.227.899 2.546.899 3.919 0 2.141 0 7.152-2.274 11.921l1.805.861c2.47-5.177 2.47-10.507 2.47-12.782zm-20 0c.001-4.963 4.039-9 9.001-9 1.963 0 3.83.624 5.398 1.804l1.203-1.598c-1.918-1.443-4.201-2.206-6.602-2.206-6.064 0-10.999 4.935-10.999 11v3h2v-3z" opacity=".5"/></svg>