<svg id="Layer_1" viewBox="0 0 24 24" xmlns="http://www.w3.org/2000/svg" data-name="Layer 1"><g opacity=".5"><path d="m13.023 1.145-.61-1.097c-.919-.118-1.895.165-2.569.851-1.901 1.939-3.844 4.299-3.844 7.092 0 2.968 2.165 5.439 4.999 5.916l1.001 1.201 1.001-1.201c2.834-.478 4.999-2.949 4.999-5.916 0-2.773-1.916-5.119-3.803-7.05-.014-.014-1.174.204-1.174.204z"/></g><path d="m12 8.992c0-2.434 1.069-5.771 2.196-8.049-.013-.014-.027-.029-.04-.042-.476-.486-1.092-.769-1.743-.852-1.203 2.435-2.413 6.085-2.413 8.943z"/><path d="m22.865 13.992c-5.165 0-8.173 2.467-9.865 4.784v-4.874c-.326.055-.659.09-1 .09s-.674-.035-1-.09v4.874c-1.692-2.318-4.7-4.784-9.865-4.784h-1.133l.141 1.124c.788 6.305 6.719 8.438 10.613 8.809l.763.041c.321.017.642.017.963 0l.763-.041c3.895-.371 9.825-2.503 10.613-8.809l.141-1.124h-1.133z"/></svg>