<svg id="Layer_1" viewBox="0 0 24 24" xmlns="http://www.w3.org/2000/svg" data-name="Layer 1"><path d="m14.12 1.627c-.649-.418-1.384-.627-2.12-.627s-1.471.209-2.12.627l-9.88 6.373.542.349s3.458 2.23 3.458 2.23l.766 1.665-.766.715v7.455l.293.293c.094.094 2.354 2.293 7.707 2.293s7.613-2.199 7.707-2.293l.293-.293v-7.455l-.809-.619.809-1.761 3.458-2.23s.542-.349.542-.349z" opacity=".5"/><g><path d="m4 10.58v2.379l5.338 3.443c.809.521 1.735.782 2.662.782s1.854-.261 2.662-.782l5.338-3.443v-2.379l-6.422 4.142c-.973.628-2.184.628-3.156 0"/><path d="m22 8h2v12h-2z"/></g></svg>