<svg id="Layer_1" viewBox="0 0 24 24" xmlns="http://www.w3.org/2000/svg" data-name="Layer 1"><path d="m22.707 2.707-1.414-1.414-2 2-.187 1.792 1.601-.378z" opacity=".5"/><path d="m8.242 14.343-.093 1.414h1.508l6.101-6.1-.12-1.414h-1.295z" opacity=".5"/><path d="m1.293 21.293 1.414 1.414 2-2-.111-1.324-1.303-.09z" opacity=".5"/><path d="m23.121 7.122-2.414-2.415-1.414-1.414-2.414-2.414c-1.171-1.17-3.074-1.169-4.243 0l-2.828 2.828 4.536 4.536 1.414 1.414 4.535 4.535 2.828-2.829c.566-.566.879-1.32.879-2.121s-.312-1.555-.879-2.121z"/><path d="m9.657 15.757-1.414-1.414-4.536-4.535-2.828 2.828c-.566.567-.879 1.32-.879 2.122s.312 1.555.879 2.121l2.414 2.414 1.414 1.414 2.414 2.414c.585.585 1.354.877 2.121.877s1.537-.292 2.122-.877l2.828-2.828-4.536-4.536z"/></svg>