<svg id="Layer_1" viewBox="0 0 24 24" xmlns="http://www.w3.org/2000/svg" data-name="Layer 1"><g opacity=".5"><path d="m17.354 3.854c-2.102 0-3.619 1.368-4.5 2.47-.88-1.102-2.398-2.47-4.5-2.47-.882 0-1.717.226-2.456.627-.279.151-1.743-.252-1.743-.252s.414 1.246.179 1.519c-.917 1.064-1.479 2.49-1.479 4.056 0 5.404 8.458 11.547 9.422 12.229l.578.409.578-.409c.401-.284 2.099-1.513 3.946-3.241.261-.245 1.282-.228 1.282-.228s-.071-.96.138-1.181c2.123-2.244 4.056-4.996 4.056-7.579 0-3.281-2.468-5.95-5.5-5.95z"/></g><path d="m21.854 17.854v2.586l-3.06-3.06c-.471.498-.947.969-1.418 1.41l3.065 3.065h-2.586v2h4c1.103 0 2-.897 2-2v-4h-2z"/><path d="m5.9 4.486-4.339-4.34-1.415 1.415 4.191 4.19c.445-.516.973-.946 1.563-1.265z"/></svg>