<svg id="Layer_1" viewBox="0 0 24 24" xmlns="http://www.w3.org/2000/svg" data-name="Layer 1"><path d="m13 0c-6.065 0-11 4.037-11 9 0 1.065.25 2.11.692 3.099-.44.534-.692 1.19-.692 1.891 0 .417.089.818.25 1.189-.996.993-2.25 2.669-2.25 4.822 0 2.935 2.393 4 4 4l.008-2c-.472-.008-2.008-.174-2.008-2 0-1.475.943-2.694 1.684-3.426.923.342 2.264.435 3.43.435.299 0 .577-.007.842-.016 1.549.654 3.285 1.007 5.044 1.007 6.065 0 11-4.037 11-9s-4.935-9.001-11-9.001zm-8.71 14.688c-.188-.187-.29-.435-.29-.698s.103-.512.29-.698c.187-.188.435-.291.698-.291s.512.103.699.291c.268.267.673.969 1.049 1.707-1.188-.026-2.199-.148-2.447-.311zm8.71 1.312c-1.359 0-2.693-.254-3.907-.712-.358-.797-1.24-2.663-1.989-3.412-.702-.702-1.729-.967-2.677-.796-.27-.672-.426-1.371-.426-2.08 0-3.859 4.037-7 9-7s9 3.141 9 7-4.037 7-9 7z" opacity=".5"/></svg>