<svg id="Layer_1" viewBox="0 0 24 24" xmlns="http://www.w3.org/2000/svg" data-name="Layer 1"><path d="m13 4h-2v-4h2zm0 16h-2v4h2zm-9-9h-4v2h4zm20 0h-4v2h4zm-1.125 6.165-3.458-2.01-1.006 1.729 3.458 2.01zm-3.984-15.039-1.729-1.004-2.01 3.459 1.729 1.004zm3.992 4.696-1.008-1.729-3.455 2.014 1.008 1.729zm-3.965 15.042-2.014-3.456-1.729 1.008 2.014 3.456zm-13.313-4.98-1.004-1.729-3.459 2.01 1.004 1.729zm3.26-12.303-2.011-3.459-1.729 1.004 2.01 3.459 1.729-1.004zm-3.268 2.526-3.456-2.014-1.008 1.729 3.456 2.014zm3.244 12.309-1.729-1.008-2.015 3.456 1.729 1.008z" opacity=".5"/></svg>