<svg id="Layer_1" viewBox="0 0 24 24" xmlns="http://www.w3.org/2000/svg" data-name="Layer 1"><g opacity=".5"><path d="m19.968 9.117c-.724-4.183-4.319-7.659-8.628-7.659-4.099 0-7.707 2.905-8.586 6.943l-.637 3.599c.236 0 .473.001.709.002.133.72.351 1.435.634 2.114.695 1.872 2.317 3.772 4.367 4.864v3.563h7.028v-3.555c1.865-.99 3.724-3.185 4.507-4.891 1.6-.106 2.521-.908 2.521-2.535 0-1.259-.79-1.975-1.915-2.444z"/></g><g><circle cx="13.749" cy="11.5" r="1.5"/><path d="m21.1 8.274c-.824-4.761-4.946-8.274-9.851-8.274-4.666 0-8.773 3.308-9.774 7.903l-.725 4.097c.269 0 .538.001.807.002.152.82.4 1.634.721 2.406.791 2.131 2.637 4.294 4.97 5.536v4.056h8.001v-4.047c2.123-1.127 3.841-3.019 4.732-4.961 1.821-.12 3.268-1.641 3.268-3.492 0-1.434-.869-2.692-2.149-3.226zm-1.351 4.726c-.087 0-.17-.014-.252-.027l-.835-.147-.282.799c-.916 2.597-4.001 5.377-7.131 5.377-2.447 0-4.874-1.714-6.252-3.709-.667-.977-1.154-2.18-1.414-3.406.583-.075 1.162-.179 1.73-.333.402-.109.8-.236 1.193-.375.181-.064.868-.273.927-.382-.113.211-.183.448-.183.704 0 .828.672 1.5 1.5 1.5 1.21 0 1.937-1.432 1.187-2.399-.245-.315-.652-.552-1.053-.588.02-.012.037-.026.07-.046 2.253-1.286 4.638-3.385 6.41-6.815 2.086 1.251 3.568 3.416 3.841 5.997l.078.744.737.134c.713.13 1.23.749 1.23 1.472 0 .827-.673 1.5-1.5 1.5z"/></g></svg>