<svg id="Layer_1" viewBox="0 0 24 24" xmlns="http://www.w3.org/2000/svg" data-name="Layer 1"><path d="m23.457 7.957-1.414-1.414-4.859 4.859c-.933-.699-2.044-1.17-3.254-1.332-.162-1.21-.633-2.32-1.332-3.254l4.859-4.859-1.414-1.414-4.859 4.859c-1.169-.876-2.615-1.402-4.184-1.402-3.86 0-7 3.14-7 7 0 3.544 2.649 6.473 6.069 6.931.458 3.42 3.387 6.069 6.931 6.069 3.86 0 7-3.14 7-7 0-1.57-.526-3.015-1.402-4.184zm-21.457 3.043c0-2.757 2.243-5 5-5s5 2.243 5 5-2.243 5-5 5-5-2.243-5-5zm11 11c-2.447 0-4.48-1.769-4.908-4.094 2.985-.471 5.344-2.829 5.815-5.815 2.324.429 4.094 2.462 4.094 4.908 0 2.757-2.243 5-5 5z" opacity=".5"/><path d="m18 6h-2v-4h-4v-2h4c1.103 0 2 .897 2 2z"/><path d="m24 12h-2v-4h-4v-2h4c1.103 0 2 .897 2 2z"/></svg>