<svg id="Layer_1" viewBox="0 0 24 24" xmlns="http://www.w3.org/2000/svg" data-name="Layer 1"><path d="m13.793 6.793-1.793 1.793-1.793-1.793-1.414 1.414 1.793 1.793-1.793 1.793 1.414 1.414 1.793-1.793 1.793 1.793 1.414-1.414-1.793-1.793 1.793-1.793z" opacity=".5"/><path d="m23.207 8.207-1.414-1.414-1.793 1.793-1.793-1.793-1.414 1.414 1.793 1.793-1.793 1.793 1.414 1.414 1.793-1.793 1.793 1.793 1.414-1.414-1.793-1.793z" opacity=".5"/><path d="m5.793 6.793-1.793 1.793-1.793-1.793-1.414 1.414 1.793 1.793-1.793 1.793 1.414 1.414 1.793-1.793 1.793 1.793 1.414-1.414-1.793-1.793 1.793-1.793z" opacity=".5"/><path d="m17 16h6v2h-6z"/><path d="m1 16h6v2h-6z"/><path d="m9 16h6v2h-6z"/></svg>