<svg id="Layer_1" viewBox="0 0 24 24" xmlns="http://www.w3.org/2000/svg" data-name="Layer 1"><path d="m17.5 24c-.804 0-1.578-.22-2.397-.453-1.806-.686-4.399-.686-6.205 0-3.305 1.18-6.024.021-5.897-3.178 0-4.728 4.458-9.369 9-9.369s9 4.641 9 9.369c0 1.657-.607 3.631-3.5 3.631z" opacity=".5"/><path d="m21.844 5.014c-1.364-.163-2.6 1.129-2.814 3.46-.433 5.508 4.307 6.225 4.94.59.213-2.331-.763-3.887-2.127-4.049z"/><path d="m.029 9.063c.635 5.639 5.374 4.914 4.94-.59-.213-2.331-1.449-3.623-2.814-3.46-1.363.164-2.339 1.719-2.126 4.05z"/><path d="m5.977 4.063c.635 5.639 5.374 4.914 4.94-.59-.213-2.331-1.449-3.622-2.813-3.459s-2.34 1.718-2.127 4.049z"/><path d="m15.844.014c-1.364-.163-2.6 1.129-2.814 3.46-.433 5.508 4.307 6.225 4.94.59.214-2.332-.762-3.887-2.126-4.05z"/></svg>