<svg id="Layer_1" viewBox="0 0 24 24" xmlns="http://www.w3.org/2000/svg" data-name="Layer 1"><path d="m14 24c-1.604 0-3.11-.624-4.242-1.758-2.328-2.233-2.328-6.252 0-8.484l4.242-4.497 4.263 4.518c2.305 2.211 2.301 6.249-.021 8.464-1.132 1.134-2.639 1.758-4.242 1.758zm-9-12c-1.335 0-2.591-.521-3.535-1.465-1.94-1.859-1.94-5.211 0-7.07l3.535-3.458 3.527 3.45c1.949 1.867 1.95 5.213.008 7.078-.943.944-2.199 1.465-3.535 1.465zm15-2c-1.068 0-2.072-.416-2.828-1.172-1.552-1.488-1.552-4.168 0-5.656l2.81-3.123 2.878 3.156c1.515 1.453 1.509 4.163-.032 5.623-.756.756-1.76 1.172-2.828 1.172z" opacity=".5"/></svg>