<svg id="Layer_1" viewBox="0 0 24 24" xmlns="http://www.w3.org/2000/svg" data-name="Layer 1"><path d="m23.472 16.194-1.642-2.485-1.668 1.103 1.642 2.485c.336.509.15.976.056 1.153-.205.381-.591.608-1.032.608h-7.949l1.478-1.475-1.412-1.416-2.523 2.517c-.783.748-.778 2.101.011 2.843l2.519 2.473 1.4-1.427-1.543-1.516h8.019c1.172 0 2.242-.636 2.793-1.66.554-1.028.498-2.226-.148-3.204z" opacity=".5"/><path d="m11.76 3.013c.409.016.771.185.994.522l4.273 6.467-2.214-.437-.387 1.962 3.62.714c.523.104 1.064-.004 1.511-.308.445-.302.744-.76.843-1.288l.684-3.664-1.967-.367-.425 2.279-4.269-6.46c-.597-.904-1.615-1.436-2.69-1.42-1.087.015-2.077.574-2.646 1.489l-1.235 1.966 1.693 1.064 1.238-1.971c.213-.343.569-.543.977-.548z" opacity=".5"/><path d="m6.457 10.453.43 2.31 1.967-.366-.684-3.665c-.099-.529-.398-.987-.845-1.289-.445-.302-.979-.412-1.508-.306l-3.621.713.387 1.962 2.184-.431-4.289 6.829c-.608.98-.638 2.164-.079 3.168.565 1.016 1.602 1.622 2.772 1.622h3.831v-2h-3.831c-.435 0-.817-.222-1.024-.594-.097-.173-.286-.631.027-1.137l4.282-6.817z" opacity=".5"/></svg>