<svg id="Layer_1" viewBox="0 0 24 24" xmlns="http://www.w3.org/2000/svg" data-name="Layer 1"><path d="m19 14c-.855 0-1.648.235-2.352.615l-3.346-4.015 7.467-8.96-1.537-1.28-7.231 8.678-7.233-8.678-1.536 1.28 7.466 8.96-3.346 4.015c-.704-.38-1.498-.615-2.352-.615-2.757 0-5 2.243-5 5s2.243 5 5 5 5-2.243 5-5c0-1.178-.427-2.249-1.112-3.104l3.111-3.734 3.112 3.734c-.685.856-1.111 1.926-1.111 3.104 0 2.757 2.243 5 5 5s5-2.243 5-5-2.243-5-5-5zm-14 8c-1.654 0-3-1.346-3-3s1.346-3 3-3 3 1.346 3 3-1.346 3-3 3zm14 0c-1.654 0-3-1.346-3-3s1.346-3 3-3 3 1.346 3 3-1.346 3-3 3z" opacity=".5"/></svg>