<svg id="Layer_1" viewBox="0 0 24 24" xmlns="http://www.w3.org/2000/svg" data-name="Layer 1"><g opacity=".5"><path d="m19.945 2.608-7.945-2.635-7.945 2.635c-1.229.407-2.055 1.549-2.055 2.842v6.525c0 6.563 7.005 10.576 9.152 11.65l.805.402.836-.336c2.16-.869 9.207-4.281 9.207-11.716v-6.525c0-1.293-.826-2.436-2.055-2.842z"/></g><path d="m13 14.983h-2v-.743c0-1.191.734-2.828 1.964-3.504.763-.42 1.156-1.254 1.003-2.124-.138-.787-.81-1.458-1.596-1.597-.609-.105-1.195.047-1.656.435-.454.382-.715.94-.715 1.533h-2c0-1.185.521-2.302 1.429-3.064.907-.762 2.102-1.08 3.288-.873 1.613.283 2.938 1.607 3.221 3.22.298 1.698-.509 3.395-2.008 4.222-.47.258-.93 1.126-.93 1.752z"/><path d="m11 16.983h2v2h-2z"/></svg>