<svg id="Layer_1" viewBox="0 0 24 24" xmlns="http://www.w3.org/2000/svg" data-name="Layer 1"><path d="m21 6c-1.654 0-3 1.346-3 3 0 1.302.839 2.402 2 2.816l1 .985 1-.985c1.161-.414 2-1.514 2-2.816 0-1.654-1.346-3-3-3z" opacity=".5"/><path d="m21 12c-.352 0-.686-.072-1-.184v4.184c0 3.309-2.691 6-6 6s-6-2.691-6-6v-.08c3.386-.488 6-3.401 6-6.92v-6c0-1.654-1.346-3-3-3h-3v2h3c.552 0 1 .449 1 1v6c0 2.757-2.243 5-5 5s-5-2.243-5-5v-6c0-.551.448-1 1-1h3v-2h-3c-1.654 0-3 1.346-3 3v6c0 3.519 2.614 6.432 6 6.92v.08c0 4.411 3.589 8 8 8s8-3.589 8-8v-4.184c-.314.112-.648.184-1 .184z"/></svg>