<svg id="Layer_1" viewBox="0 0 24 24" xmlns="http://www.w3.org/2000/svg" data-name="Layer 1"><g opacity=".5"><path d="m11 0h2v6h-2z"/></g><g opacity=".5"><path d="m11 18h2v6h-2z"/></g><g opacity=".5"><path d="m0 11h6v2h-6z"/></g><g opacity=".5"><path d="m18 11h6v2h-6z"/></g><g opacity=".5"><path d="m16.743 6.479h6.047v2h-6.047z" transform="matrix(.864 -.503 .503 .864 -1.08 10.956)"/></g><g opacity=".5"><path d="m1.235 15.514h6.02v2h-6.02z" transform="matrix(.864 -.503 .503 .864 -7.73 4.376)"/></g><g opacity=".5"><path d="m15.527 16.705h2v6.075h-2z" transform="matrix(.864 -.503 .503 .864 -7.684 10.983)"/></g><g opacity=".5"><path d="m6.495 1.218h2v5.986h-2z" transform="matrix(.864 -.503 .503 .864 -1.101 4.339)"/></g><g opacity=".5"><path d="m18.771 13.504h2v6.02h-2z" transform="matrix(.503 -.864 .864 .503 -4.447 25.295)"/></g><g opacity=".5"><path d="m3.25 4.456h2v6.047h-2z" transform="matrix(.503 -.864 .864 .503 -4.352 7.389)"/></g><g opacity=".5"><path d="m4.46 18.756h6.043v2h-6.043z" transform="matrix(.503 -.864 .864 .503 -13.357 16.286)"/></g><g opacity=".5"><path d="m13.503 3.226h6.019v2h-6.019z" transform="matrix(.503 -.864 .864 .503 4.555 16.373)"/></g><circle cx="12" cy="12" r="7"/></svg>