<svg id="Layer_1" viewBox="0 0 24 24" xmlns="http://www.w3.org/2000/svg" data-name="Layer 1"><g opacity=".5"><path d="m19.117 8.046-.844-.844.062-1.384-1.477-.032-.913-.913c-1.17-1.17-3.073-1.171-4.243 0l-8.706 8.709v6l-1.352 2.594 2.767-1.179h6l8.707-8.707c1.17-1.169 1.17-3.073 0-4.243z"/></g><path d="m2.996 19.582-2.957 2.957 1.414 1.414 2.957-2.957h-1.414z"/><path d="m18.211.047-1.43 1.398 2.256 2.305-2.179 2.038 1.416 1.415 2.162-2.023 2.095 2.14 1.43-1.398z"/><path d="m4.736 11.946h2v5.331h-2z" transform="matrix(.707 -.707 .707 .707 -8.652 8.336)"/><path d="m7.736 8.946h2v5.331h-2z" transform="matrix(.707 -.707 .707 .707 -5.652 9.578)"/><path d="m10.736 5.946h2v5.331h-2z" transform="matrix(.707 -.707 .707 .707 -2.652 10.821)"/></svg>