<svg id="Layer_1" viewBox="0 0 24 24" xmlns="http://www.w3.org/2000/svg" data-name="Layer 1"><path d="m24 24h-6v-2h4v-4h2z" opacity=".5"/><path d="m24 6h-2v-3c0-.551-.448-1-1-1h-3v-2h3c1.654 0 3 1.346 3 3z" opacity=".5"/><path d="m22 9h2v6h-2z" opacity=".5"/><path d="m6 24h-6v-6h2v4h4z" opacity=".5"/><path d="m2 6h-2v-3c0-1.654 1.346-3 3-3h3v2h-3c-.552 0-1 .449-1 1z" opacity=".5"/><path d="m0 9h2v6h-2z" opacity=".5"/><path d="m9 0h6v2h-6z" opacity=".5"/><path d="m9 22h6.068v2h-6.068z" opacity=".5"/></svg>