<svg id="Layer_1" viewBox="0 0 24 24" xmlns="http://www.w3.org/2000/svg" data-name="Layer 1"><path d="m6 16.92v2.08h-3v2h3v3h2v-3h3v-2h-3v-2.079c-.329.049-.662.079-1 .079-.34 0-.672-.033-1-.08z"/><path d="m22 0h-4v2h4v4h2v-4c0-1.103-.897-2-2-2z"/><path d="m23.457 1.957-1.414-1.414-1.457 1.457-2.402 2.402c-1.169-.876-2.615-1.402-4.184-1.402-1.279 0-2.476.351-3.509.953-1.062-.614-2.254-.953-3.491-.953-3.859 0-7 3.14-7 7 0 3.519 2.614 6.432 6 6.92.328.047 1 .907 1 .907s.671-.857 1-.907c.877-.131 1.719-.427 2.491-.873 1.033.602 2.229.953 3.509.953 3.859 0 7-3.14 7-7 0-1.57-.526-3.015-1.402-4.184l2.402-2.402zm-14.669 12.699c-.568.218-1.169.344-1.788.344-2.757 0-5-2.243-5-5s2.243-5 5-5c.619 0 1.22.125 1.788.344-1.108 1.239-1.788 2.868-1.788 4.656s.68 3.418 1.788 4.656zm5.212.344c-2.757 0-5-2.243-5-5s2.243-5 5-5 5 2.243 5 5-2.243 5-5 5z" opacity=".5"/></svg>