<svg id="Layer_1" viewBox="0 0 24 24" xmlns="http://www.w3.org/2000/svg" data-name="Layer 1"><path d="m24 15c-.168 5.288-7.833 5.284-8 0h2c.047 2.629 3.953 2.628 4 0 0-1.102-.897-2-2-2h-10v-2h7c1.654 0 3-1.346 3-3-.104-3.956-5.897-3.955-6 0v1h-2v-1c0-2.757 2.243-5 5-5 4.109-.089 6.54 5 3.886 8.107 1.779.405 3.114 1.993 3.114 3.893zm-16-4h-8v2h8zm3-7c-.168-5.288-7.833-5.284-8 0h2c.047-2.629 3.953-2.628 4 0 0 1.102-.897 2-2 2h-7v2h7c2.206 0 4-1.794 4-4zm0 12h-11v2h11c2.629.047 2.628 3.953 0 4-1.103 0-2-.897-2-2h-2c0 2.206 1.794 4 4 4 5.287-.168 5.285-7.833 0-8z" opacity=".5"/></svg>