<svg id="Layer_1" viewBox="0 0 24 24" xmlns="http://www.w3.org/2000/svg" data-name="Layer 1"><g opacity=".5"><path d="m23.223.779c-.583-.583-1.381-.851-2.206-.73-3.129.456-7.228 1.755-11.037 4.11l-.839 1.487-1.16-.129c-.958.715-1.882 1.505-2.747 2.373-1.533 1.537-2.352 3.665-2.247 5.837.077 1.593.621 3.075 1.563 4.307l1.327.274.082 1.149c1.341 1.046 2.963 1.559 4.605 1.559 2.135 0 4.3-.867 5.913-2.553 1.596-1.668 2.914-3.533 3.98-5.441l-.529-.945 1.549-1.049c1.348-2.891 2.143-5.757 2.475-8.066.116-.809-.149-1.604-.729-2.183z"/></g><path d="m14.392 11.022 3.543-3.543-1.414-1.414-6.543 6.543v-8.452s-1.282.798-2 1.357v9.095l-3.422 3.422-4.535 4.535 1.414 1.414 4.534-4.534 6.423-6.423h8.064c.372-.665.705-1.322 1.017-1.99z"/></svg>