<svg id="Layer_1" viewBox="0 0 24 24" xmlns="http://www.w3.org/2000/svg" data-name="Layer 1"><path d="m24 2v3h-9v1.121l-1.5 1.5v2.379h-3v-2.379l-1.5-1.5v-1.121h-9v-3h9.051c.232-1.14 1.242-2 2.449-2h1c1.208 0 2.217.86 2.449 2zm-5 15h1v3h-1v4h-14v-4h-1v-3h1v-1c0-1.654 1.346-3 3-3h2.5v-1h3v1h2.5c1.654 0 3 1.346 3 3zm-3-1h-8.002v5h8.002zm-6 4c.828 0 1.5-.672 1.5-1.5s-.672-1.5-1.5-1.5-1.5.672-1.5 1.5.672 1.5 1.5 1.5zm4 0c.828 0 1.5-.672 1.5-1.5s-.672-1.5-1.5-1.5-1.5.672-1.5 1.5.672 1.5 1.5 1.5z"/></svg>