<svg id="Layer_1" viewBox="0 0 24 24" xmlns="http://www.w3.org/2000/svg" data-name="Layer 1"><path d="m24 2v3h-9v1.121l-1.5 1.5v2.379h-3v-2.379l-1.5-1.5v-1.121h-9v-3h9.051c.232-1.14 1.242-2 2.449-2h1c1.207 0 2.217.86 2.449 2zm-1.311 14.289c.444 1.113.409 2.378-.099 3.561-.961 2.238-3.275 2.943-3.536 3.017-2.588.792-4.557 1.134-6.545 1.134-4.427-.042-7.317-1.727-9.33-2.792-.469-.704-2.057-2.799-2.179-8.208v-4h8v5.418c1.553.365 3.188.909 4.616 1.386.58.192 1.208.402 1.684.544l2.028-2.022 1.318.565 1.051-1.181.993.427c.861.369 1.608 1.174 1.999 2.152zm-16.689.711c-.551 0-1 .448-1 1s.449 1 1 1 1-.448 1-1-.449-1-1-1zm-2-4c0 .54.034 1.037.08 1.513.573-.317 1.221-.513 1.92-.513v-2h-2zm15.999 4.883-.55.617-1.439-.618-1.708 1.703c-1.273-.138-1.708-.297-3.634-.936-.817-.272-1.752-.582-2.69-.86.101 1.009-.301 1.996-.895 2.728 1.028.286 2.168.482 3.418.483h.008c1.674 0 3.38-.303 5.702-1.013.032-.01 1.217-.376 1.623-1.321.13-.302.171-.564.166-.783z"/></svg>