<svg id="Layer_1" viewBox="0 0 24 24" xmlns="http://www.w3.org/2000/svg" data-name="Layer 1"><path d="m13.5 9.5c0-1.93-1.57-3.5-3.5-3.5h-5.5c-.827 0-1.5-.673-1.5-1.5s.673-1.5 1.5-1.5h5.5v-3h-5.5c-2.481 0-4.5 2.019-4.5 4.5s2.019 4.5 4.5 4.5h5.5c.276 0 .5.224.5.5v1.508l-4.5 2.548v6.977l5.99 3.424 6.01-3.337v-7.064l-4.5-2.542v-1.512zm-1.499 6.277-1.91-1.091 1.904-1.078 1.912 1.08zm-3.001.588 2 1.142v2.427l-2-1.143v-2.427zm4 3.599v-2.454l2-1.143v2.487l-2 1.111zm10.415-8.55c-.781.781-2.047.781-2.828 0l-8.58-8.586v-2.828h2.828l8.578 8.586c.781.781.781 2.047 0 2.828z"/></svg>