<svg id="Layer_1" viewBox="0 0 24 24" xmlns="http://www.w3.org/2000/svg" data-name="Layer 1"><path d="m16.013 7.451-1.339.773c-.352-.288-.742-.523-1.174-.687v-1.537h-3v1.537c-.432.164-.823.4-1.174.687l-1.339-.773-1.5 2.598 1.332.769c-.036.223-.069.448-.069.682s.033.459.069.682l-1.332.769 1.5 2.598 1.339-.773c.352.288.743.523 1.174.687v1.537h3v-1.537c.432-.164.823-.4 1.174-.687l1.339.773 1.5-2.598-1.332-.769c.036-.223.069-.448.069-.682s-.033-.459-.069-.682l1.332-.769zm-4.013 5.549c-.827 0-1.5-.673-1.5-1.5s.673-1.5 1.5-1.5 1.5.673 1.5 1.5-.673 1.5-1.5 1.5zm-4 6h3v4h-5.511c-.456.604-1.173 1-1.989 1-1.381 0-2.5-1.119-2.5-2.5s1.119-2.5 2.5-2.5c.815 0 1.532.396 1.989 1h2.511zm-8-5c0-1.758.738-3.417 2.011-4.592-.008-.139-.011-.274-.011-.408 0-4.962 4.038-9 9-9 3.366 0 6.425 1.872 7.97 4.821 3.035 1.205 5.03 4.11 5.03 7.429 0 1.927-.685 3.697-1.825 5.08-.519-.209-1.082-.33-1.675-.33h-2.5c1.763-.774 3-2.705 3-4.75 0-2.219-1.426-4.141-3.549-4.784l-.666-.202-.276-.639c-.951-2.202-3.113-3.625-5.509-3.625-3.309 0-6 2.691-6 6-.012.441.138 1.303.203 1.783l-.775.526c-.894.607-1.428 1.613-1.428 2.69 0 1.351.829 2.51 2.005 3h-1.505c-.848 0-1.632.248-2.309.656-.746-1.029-1.191-2.29-1.191-3.656zm23 7.5c0 1.381-1.119 2.5-2.5 2.5-.815 0-1.532-.396-1.989-1h-5.511v-4h3v1h2.511c.456-.604 1.173-1 1.989-1 1.381 0 2.5 1.119 2.5 2.5z"/></svg>