<svg id="Layer_1" viewBox="0 0 24 24" xmlns="http://www.w3.org/2000/svg" data-name="Layer 1"><path d="m9.388 19 .662 3h-8.05c-1.103 0-2-.878-2-1.98v-5c0-1.103.897-2 2-2l1-.004 3-1.516v-1.5h-3v-10h6v3h-3v4h3v8.995l-4 .005v3.02zm14.612-2v5c0 1.103-.897 2-2 2h-9.46l-1.54-7.14v-1.86h4v-3.02h-4v-9.98h4.7v1.18h-.327c-1.198 0-2.173.975-2.173 2.173 0 1.033.734 1.929 1.747 2.131l2.791.559c.268.054.462.291.462.563 0 .316-.258.574-.574.574h-2.126c-.316 0-.585-.211-.671-.5h-1.62c.102 1.175 1.09 2.1 2.291 2.1h.2v1.2h1.6v-1.2h.326c1.199 0 2.174-.975 2.174-2.173 0-1.033-.734-1.929-1.747-2.131l-2.792-.559c-.267-.054-.461-.291-.461-.562 0-.316.257-.574.573-.574h2.127c.316 0 .585.211.671.5h1.62c-.102-1.175-1.09-2.1-2.291-2.1h-.2v-1.18h4.7v9.999l-4-.017v1.017l3 2h1c1.103 0 2 .897 2 2zm-5 1h-4.712l.663 3h4.05v-3z"/></svg>