<svg id="Layer_1" viewBox="0 0 24 24" xmlns="http://www.w3.org/2000/svg" data-name="Layer 1"><path d="m21.103 15.309 2.889-10.309h-17.327l-.28-1.963c-.231-1.731-1.723-3.037-3.469-3.037h-2.902v3h2.903c.249 0 .463.187.497.447l2.784 19.553h2.344l5.078-6.001 1.964.328c-.361.647-.584 1.381-.584 2.173 0 2.481 2.019 4.5 4.5 4.5s4.5-2.019 4.5-4.5c0-1.915-1.207-3.543-2.897-4.191zm-12.54 3.022-.319-2.24c.049.01 1.931.334 1.931.334l-1.612 1.905zm.319-5.163c-.645-.108-1.135-.612-1.233-1.256l-.557-3.911h12.943l-1.881 6.714-9.271-1.547zm10.617 7.833c-.828 0-1.5-.672-1.5-1.5s.672-1.5 1.5-1.5 1.5.672 1.5 1.5-.672 1.5-1.5 1.5z"/></svg>