<svg id="Layer_1" viewBox="0 0 24 24" xmlns="http://www.w3.org/2000/svg" data-name="Layer 1"><path d="m18.971 13.935c.011.188.029.374.029.565 0 5.238-4.262 9.5-9.5 9.5s-9.5-4.262-9.5-9.5 4.262-9.5 9.5-9.5c.191 0 .377.018.565.029-.039.319-.065.642-.065.971 0 .71.102 1.395.275 2.051-.255-.03-.512-.051-.775-.051-3.584 0-6.5 2.916-6.5 6.5s2.916 6.5 6.5 6.5 6.5-2.916 6.5-6.5c0-.263-.02-.521-.051-.775.656.174 1.341.275 2.051.275.329 0 .652-.026.971-.065zm5.029-7.935c0 3.314-2.686 6-6 6s-6-2.686-6-6 2.686-6 6-6 6 2.686 6 6zm-5 2h-2v2h2zm0-6h-2v5h2zm-9.501 7h-1v3.284l-1.438-1.345-1.328 1.494 2.268 2.083-2.251 2.082 1.336 1.488 1.414-1.329v3.243h1l4-3-3-2.5 3-2.5-4-3z"/></svg>