<svg id="Layer_1" viewBox="0 0 24 24" xmlns="http://www.w3.org/2000/svg" data-name="Layer 1"><path d="m11 10.163v-1.163h2v1.163c1.441.434 2.5 1.757 2.5 3.337 0 1.93-1.57 3.5-3.5 3.5s-3.5-1.57-3.5-3.5c0-1.58 1.059-2.903 2.5-3.337zm3-3.163v-2c-1.654 0-3 1.346-3 3h2c0-.551.449-1 1-1zm1-1 1.333.667.667 1.333.667-1.333 1.333-.667-1.333-.667-.667-1.333-.667 1.333zm8.03 3.588c-.029-.034-3.078-3.115-3.078-3.115-.172 1.079-.913 1.96-1.911 2.331 0 0 2.822 2.81 2.834 2.821 0 0 .125.236.125.373s-.05.261-.146.356l-8.5 8.499c-.161.16-.551.159-.71 0l-8.498-8.499c-.095-.095-.146-.218-.146-.355s.05-.26.146-.355l8.499-8.501c.056-.056.188-.143.354-.143h4.481l-1.956-1.956s0-.001 0-.001c-.674-.673-1.599-1.009-2.524-1.009v-.004c-.943.037-1.937.36-2.571 1.087l-8.404 8.404c-.661.66-1.025 1.54-1.025 2.478s.364 1.816 1.024 2.477l8.498 8.499c.64.64 1.542 1.007 2.477 1.007s1.838-.368 2.477-1.008l8.499-8.497c.661-.66 1.025-1.541 1.025-2.479 0-.908-.348-1.758-.97-2.41z"/></svg>