<svg id="Layer_1" viewBox="0 0 24 24" xmlns="http://www.w3.org/2000/svg" data-name="Layer 1"><path d="m24 11.045c0-1.12-.369-2.635-2-3.857.082-1.938-1.228-3.537-3.179-4.027-.512-1.85-1.821-3.162-3.957-3.162-1.402 0-2.639.677-3.438 1.708-.453-.28-.959-.486-1.51-.586l-5.897-1.071c-.278-.051-.557-.05-.833-.05-.686 0-1.399.317-1.96.786-.78.65-1.226 1.604-1.226 2.617v18.416l11.591 2.181h1.909v-.737c.799.459 1.735.737 2.795.737 2.445 0 4.656-1.657 5.481-4.023 1.421-.977 2.223-2.461 2.223-4.158 0-.839-.197-1.647-.577-2.387.38-.739.577-1.548.577-2.386zm-21-7.642c0-.307.18-.462.482-.402l5.898 1.072c.648.118 1.12.683 1.12 1.342v15.306l-7.5-1.396zm17.474 10.972c.24.297.526.788.526 1.443 0 .805-.407 1.43-1.208 1.859l-.6.321-.153.663c-.303 1.312-1.508 2.338-2.743 2.338-1.907 0-2.795-1.79-2.795-3v-13.635c0-.752.612-1.364 1.364-1.364.738 0 1.136.773 1.136 1.5v1.5h1.5c.519 0 1.5.209 1.5 1v1.877l.765.43c1.095.615 1.235 1.252 1.235 1.738 0 .655-.286 1.146-.526 1.443l-.762.943.762.943zm-15.474-4.379 3.5.636v3.049l-3.5-.636zm0 4.7 3.5.636v3.049l-3.5-.636zm0-9.5 3.5.636v3.049l-3.5-.636z"/></svg>