<svg id="Layer_1" viewBox="0 0 24 24" xmlns="http://www.w3.org/2000/svg" data-name="Layer 1"><path d="m6.75 8.5h-1.75v-2.5h1.75v-2.75c0-1.792 1.458-3.25 3.25-3.25h1v2.5h-1c-.414 0-.75.337-.75.75v2.75h1.75v2.5h-1.75v5.5h-2.5zm8.045 5.5.981-1.604.981 1.604h2.931l-2.446-4 2.446-4h-2.931l-.981 1.604-.981-1.604h-2.931l2.446 4-2.446 4zm7.981-8.207c-.512-.428-1.13-.672-1.775-.75v14.258l-7.5 1.364v-4.665h-3v4.665l-7.5-1.364v-14.257c-.645.078-1.264.321-1.775.749-.778.649-1.225 1.603-1.225 2.616v13.396l12 2.182 12-2.182v-13.396c0-1.014-.446-1.967-1.225-2.616z"/></svg>