<svg id="Layer_1" viewBox="0 0 24 24" xmlns="http://www.w3.org/2000/svg" data-name="Layer 1"><path d="m16.939 4.939 2.5-2.5-2.439-2.439h5.83c.633 0 1.146.513 1.146 1.146v5.83l-2.416-2.416-2.5 2.5zm-12.011 11.989-2.512 2.512-2.416-2.416v5.83c0 .633.513 1.146 1.146 1.146h5.83l-2.439-2.439 2.512-2.512zm.012-9.867 2.121-2.121-2.512-2.512 2.415-2.416h-5.83c-.633 0-1.146.513-1.146 1.146v5.83l2.439-2.439 2.512 2.512zm16.614 12.386-2.49-2.504-2.127 2.115 2.496 2.51-2.421 2.421h5.83c.633 0 1.146-.513 1.146-1.146v-5.83zm-3.554-3.575-6.011 3.337-5.989-3.425v-6.976l5.994-3.394 6.006 3.393zm-7.908-5.934 1.91 1.091 1.906-1.089-1.911-1.08-1.904 1.078zm-1.092 4.105 2 1.144v-2.427l-2-1.143zm6 .062v-2.487l-2 1.143v2.454z"/></svg>