<svg id="Layer_1" viewBox="0 0 24 24" xmlns="http://www.w3.org/2000/svg" data-name="Layer 1"><path d="m5.599 5.673-2.135-2.107c.578-.586 1.825-1.615 2.999-2.214l1.383 2.662c-.653.322-1.605.985-2.247 1.659zm1.401 9.219 4 2.286v-4.729l-4-2.286zm10 .083v-4.809l-4 2.286v4.744zm-8.928-6.503 3.93 2.246 3.927-2.245-3.935-2.223-3.923 2.221zm8.077 11.516 1.385 2.662c1.108-.577 2.118-1.321 2.999-2.213l-2.133-2.109c-.662.669-1.419 1.228-2.251 1.66zm5.267-15.392c-2.262-2.894-5.77-4.603-9.416-4.596-.666 0-1.336.056-1.992.165l.494 2.959c.493-.082.997-.124 1.498-.124 2.856.009 5.596 1.387 7.284 3.728l-2.26 2.26h5.83c.633 0 1.146-.513 1.146-1.146v-5.83zm-1.379 11.462s2.676 1.356 2.676 1.356c.566-1.118.951-2.312 1.145-3.55l-2.965-.463c-.145.927-.433 1.821-.855 2.657zm-6.539 4.818c-.493.082-.997.124-1.498.124-2.856-.009-5.596-1.387-7.284-3.728l2.26-2.26h-5.83c-.633 0-1.146.513-1.146 1.146v5.83l2.584-2.584c2.263 2.894 5.77 4.602 9.416 4.596.666 0 1.336-.056 1.992-.165zm-9.535-12.934-2.678-1.352c-.565 1.119-.949 2.313-1.143 3.549l2.965.463c.145-.926.433-1.821.855-2.66z"/></svg>