<svg id="Layer_1" viewBox="0 0 24 24" xmlns="http://www.w3.org/2000/svg" data-name="Layer 1"><path d="m15.929 8.474-3.927 2.245-3.93-2.246 3.923-2.221 3.935 2.223zm-8.929 6.418 4 2.286v-4.729l-4-2.286zm6 2.303 4-2.221v-4.809l-4 2.286zm11-5.196c0 6.617-5.383 12-12 12s-12-5.382-12-11.999 5.383-12 12-12 12 5.383 12 12zm-3.135 1.5h-1.865v-3h1.865c-.635-3.76-3.604-6.73-7.365-7.365v1.865h-3v-1.865c-3.761.635-6.73 3.604-7.365 7.365h1.865v3h-1.865c.635 3.76 3.604 6.73 7.365 7.365v-1.865h3v1.865c3.761-.635 6.73-3.604 7.365-7.365z"/></svg>