<svg id="Layer_1" viewBox="0 0 24 24" xmlns="http://www.w3.org/2000/svg" data-name="Layer 1"><path d="m18 10.475v-7.064l-6.006-3.394-5.994 3.395v6.976l5.99 3.424zm-5-.655v-2.453l2-1.144v2.486zm-1.003-6.356 1.911 1.08-1.906 1.089-1.909-1.091zm-2.996 2.757 2 1.143v2.425l-2-1.143v-2.426zm4.119 12.779h2.883v.611l-2.197 1.273.884 2.686-.504.349-2.173-1.68-2.183 1.687-.48-.362.869-2.717h-.002s-2.212-1.232-2.212-1.232v-.615h2.899l.784-3h.648zm-8.003-5h2.883v.611l-2.197 1.273.884 2.686h-.002s-.504.348-.504.348l-2.173-1.68-2.183 1.687-.48-.362.869-2.717-2.212-1.231v-.615h2.899l.784-3h.648zm18.883 0h-.002s.002 0 .002 0zm-.002.61-2.197 1.273.884 2.686-.504.349-2.173-1.68-2.183 1.687-.48-.362.869-2.717-2.212-1.231v-.615h2.899l.784-3h.648l.784 3h2.881z"/></svg>