<svg id="Layer_1" viewBox="0 0 24 24" xmlns="http://www.w3.org/2000/svg" data-name="Layer 1"><path d="m18 9.058v.942c1.062 0 2.073.211 3 .587v-4.641l-10.511-5.938-10.489 5.939v12.028l10.49 5.996 1.422-.789c-1.19-1.396-1.912-3.204-1.912-5.182.02-2.366.99-4.545 2.762-5.948zm-7.509-5.604 5.666 3.202-5.654 3.232-5.66-3.235 5.648-3.199zm-7.491 5.601 6.001 3.43c0 .005-.002.01-.002.016v7.164l-5.999-3.428v-7.181zm15 2.945c-3.314 0-6 2.686-6 6s2.686 6 6 6 6-2.686 6-6-2.686-6-6-6zm.5 10h-1.5v-2h1.5c.827 0 1.5-.673 1.5-1.5s-.673-1.5-1.5-1.5h-1.5v2l-2.423-2.423c-.319-.319-.319-.835 0-1.154l2.423-2.423v2h1.5c1.93 0 3.5 1.57 3.5 3.5s-1.57 3.5-3.5 3.5z"/></svg>