<svg id="Layer_1" viewBox="0 0 24 24" xmlns="http://www.w3.org/2000/svg" data-name="Layer 1"><path d="m23.028 6.404-3.528 2.016-3.528-2.016 3.528-2.205zm-2.528 3.748v4.168l3.5-2.188v-3.98zm-5.5 1.98 3.5 2.188v-4.168l-3.5-2zm-2 1.18 3 1.876v3.813h-3c0-2.355-1.851-4-4.5-4h-.873l2.145 5.132c.379.854.302 1.833-.208 2.616-.509.784-1.372 1.252-2.306 1.252h-1.398l-4.055-9.458c-1.071-.599-1.805-1.731-1.805-3.043v-4c0-1.93 1.57-3.5 3.5-3.5h5c2.649 0 4.5-1.645 4.5-4h3v3.799l-3 1.875zm-4.5-1.311c.517 0 1.018.046 1.5.13v-5.261c-.482.084-.983.13-1.5.13h-5c-.276 0-.5.224-.5.5v4c0 .276.224.5.5.5h5z"/></svg>