<svg id="Layer_1" viewBox="0 0 24 24" xmlns="http://www.w3.org/2000/svg" data-name="Layer 1"><path d="m19.679 2.59-7.679-2.546-7.679 2.546c-1.389.46-2.321 1.75-2.321 3.211v6.162c0 6.518 6.852 10.45 8.951 11.5l.984.492 1.021-.411c2.122-.853 9.044-4.21 9.044-11.581v-6.161c0-1.461-.933-2.751-2.321-3.211zm-.679 9.374c0 5.259-5.031 7.896-6.932 8.702-1.927-.998-7.068-4.098-7.068-8.702v-6.162c0-.167.104-.311.265-.364l6.735-2.233 6.735 2.233c.161.053.265.196.265.364zm-3.065-4.241-3.927 2.245-3.93-2.246 3.923-2.221 3.935 2.223zm-8.929 1.689 4 2.286v4.729l-4-2.286zm6 2.289 4-2.286v4.809l-4 2.221z"/></svg>