<svg id="Layer_1" viewBox="0 0 24 24" xmlns="http://www.w3.org/2000/svg" data-name="Layer 1"><path d="m24 0v12c0 6.617-5.383 12-12 12s-12-5.383-12-12v-12h7.936l-2.936 1.663v4.336h-2v6.001c0 4.963 4.038 9 9 9s9-4.037 9-9v-6.002h-2v-4.336l-2.94-1.662zm-18 11.999c0 1.687.716 3.305 1.965 4.44 1.248 1.135 2.932 1.695 4.62 1.532 3.037-.29 5.416-2.998 5.416-6.166v-1.35l-3.031 1.683c-.148 1.49-1.261 2.714-2.671 2.848-.858.083-1.684-.189-2.316-.765-.602-.547-.947-1.318-.973-2.128l-3.01-1.72zm9.929-9.776-3.934-2.223-3.923 2.221 3.93 2.246 3.927-2.245zm-4.929 3.976-4-2.287v4.729l4 2.286zm2 4.746 4-2.221v-4.809l-4 2.286z"/></svg>