<svg id="Layer_1" viewBox="0 0 24 24" xmlns="http://www.w3.org/2000/svg" data-name="Layer 1"><path d="m17.988 2.287c-1.91-1.706-4.471-2.515-7.037-2.228-4.052.458-7.366 3.724-7.883 7.766-.359 2.83.859 6.01 3.106 8.102 1.173 1.092 1.825 2.466 1.825 3.87v4.204h7.994v-4.048c0-1.422.83-3.223 1.933-4.188 1.949-1.709 3.067-4.175 3.067-6.764 0-2.56-1.096-5.007-3.006-6.713zm-4.994 18.713h-2v-1.204c0-.267-.016-.533-.044-.796h2.112c-.042.32-.068.639-.068.952zm2.955-7.492c-.765.67-1.411 1.54-1.909 2.492h-4.047c-.451-.819-1.041-1.587-1.774-2.269-1.239-1.153-2.448-3.375-2.174-5.526.343-2.688 2.548-4.86 5.243-5.165 1.743-.2 3.41.33 4.701 1.484 1.274 1.138 2.005 2.77 2.005 4.476 0 1.725-.745 3.368-2.045 4.508zm-.774-7.288-3.174 1.814-3.176-1.815 3.17-1.795 3.18 1.797zm-7.175 1.745 3 1.715v3.693l-3-1.715zm5 1.717 3-1.715v3.757l-3 1.665v-3.708z"/></svg>