<svg id="Layer_1" viewBox="0 0 24 24" xmlns="http://www.w3.org/2000/svg" data-name="Layer 1"><path d="m6 3c0 1.654-1.346 3-3 3s-3-1.346-3-3 1.346-3 3-3 3 1.346 3 3zm5 3c1.654 0 3-1.346 3-3s-1.346-3-3-3-3 1.346-3 3 1.346 3 3 3zm-8 2c-1.654 0-3 1.346-3 3s1.346 3 3 3 3-1.346 3-3-1.346-3-3-3zm0 8c-1.654 0-3 1.346-3 3s1.346 3 3 3 3-1.346 3-3-1.346-3-3-3zm12.5-.061v-4.359c0-.747-.536-1.44-1.273-1.56-.94-.153-1.739.568-1.739 1.479v7.289l-1.205-.815c-.866-.722-2.153-.604-2.874.261-.722.866-.605 2.153.261 2.874l3.831 2.891h3v-4.88l5.5 1.942v2.938h3v-5.062l-8.5-2.999zm-5.013-1.991v-2.448c0-1.032.449-2.005 1.232-2.671.216-.183.453-.33.701-.454-.425-.231-.904-.374-1.421-.374-1.654 0-3 1.346-3 3 0 1.479 1.078 2.703 2.487 2.948z"/></svg>