<svg id="Layer_1" viewBox="0 0 24 24" xmlns="http://www.w3.org/2000/svg" data-name="Layer 1"><path d="m3 17.5v2c0 .275-.225.5-.5.5h-.5v-3h.5c.275 0 .5.225.5.5zm12 0v1h-1v-1c0-.276.224-.5.5-.5s.5.224.5.5zm-8 0v2c0 .276-.224.5-.5.5s-.5-.224-.5-.5v-2c0-.276.224-.5.5-.5s.5.224.5.5zm14.698-4.41c-1.107.578-2.363.91-3.698.91-1.404 0-2.723-.364-3.87-1h-11.13c-1.654 0-3 1.346-3 3v8h24v-8c0-1.413-.985-2.594-2.302-2.91zm-17.698 6.41c0 .827-.673 1.5-1.5 1.5h-1.5v-5h1.5c.827 0 1.5.673 1.5 1.5zm4 0c0 .828-.672 1.5-1.5 1.5s-1.5-.672-1.5-1.5v-2c0-.828.672-1.5 1.5-1.5s1.5.672 1.5 1.5zm4 1.5h-1v-3.5c0-.276-.224-.5-.5-.5s-.5.224-.5.5v3.5h-1v-5h1v.092c.157-.056.324-.092.5-.092.828 0 1.5.672 1.5 1.5zm4 0h-1v-1.5h-1v1.5h-1v-3.5c0-.828.672-1.5 1.5-1.5s1.5.672 1.5 1.5zm4-4h-1v4h-1v-4h-1v-1h3zm3 0h-1v1h1v1h-1v1h1v1h-2v-5h2zm-5-17c-3.314 0-6 2.686-6 6s2.686 6 6 6 6-2.686 6-6-2.686-6-6-6zm-3.5 4.75c0-.69.56-1.25 1.25-1.25s1.25.56 1.25 1.25-.56 1.25-1.25 1.25-1.25-.56-1.25-1.25zm3.5 4.75c-1.304 0-2.403-.837-2.816-2h5.633c-.413 1.163-1.512 2-2.816 2zm2.25-3.5c-.69 0-1.25-.56-1.25-1.25s.56-1.25 1.25-1.25 1.25.56 1.25 1.25-.56 1.25-1.25 1.25z"/></svg>