<svg id="Layer_1" viewBox="0 0 24 24" xmlns="http://www.w3.org/2000/svg" data-name="Layer 1"><path d="m8.5 19.5c0 .276-.224.5-.5.5h-.5v-1h.5c.276 0 .5.224.5.5zm3.5-13.5c0-3.314 2.686-6 6-6s6 2.686 6 6-2.686 6-6 6-6-2.686-6-6zm3.5-1h-1l.352 3.166c.084.76.727 1.334 1.491 1.334h3.189c.742 0 1.373-.543 1.483-1.277l.485-3.223h-1v-.5c0-1.381-1.119-2.5-2.5-2.5s-2.5 1.119-2.5 2.5zm3.3-.5c0-.441-.359-.8-.8-.8s-.8.359-.8.8v.5h1.6zm5.2 11.5v8h-24v-8c0-1.654 1.346-3 3-3h11.13c1.147.636 2.466 1 3.87 1 1.335 0 2.591-.332 3.698-.91 1.317.316 2.302 1.497 2.302 2.91zm-14.887 2.5c.24-.265.387-.615.387-1 0-.828-.672-1.5-1.5-1.5h-1.5v5h1.5c.828 0 1.5-.672 1.5-1.5 0-.385-.148-.735-.387-1zm4.387-2.5h-1v3.5c0 .276-.224.5-.5.5s-.5-.224-.5-.5v-3.5h-1v3.5c0 .828.672 1.5 1.5 1.5s1.5-.672 1.5-1.5zm4.096 0h-1.039l-.557 1.979-.557-1.979h-1.039l1.096 3.887v1.113h1v-1.113zm-9.596 1h-.5v1h.5c.276 0 .5-.224.5-.5s-.224-.5-.5-.5z"/></svg>