<svg id="Layer_1" viewBox="0 0 24 24" xmlns="http://www.w3.org/2000/svg" data-name="Layer 1"><path d="m14 17.5v1h-1v-1c0-.276.224-.5.5-.5s.5.224.5.5zm-7.5-.5h-.5v1h.5c.275 0 .5-.224.5-.5s-.225-.5-.5-.5zm15.198-3.91c-1.107.578-2.363.91-3.698.91-1.404 0-2.723-.364-3.87-1h-11.13c-1.654 0-3 1.346-3 3v8h24v-8c0-1.413-.985-2.594-2.302-2.91zm-15.198 5.91h-.5v2h-1v-5h1.5c.827 0 1.5.673 1.5 1.5s-.673 1.5-1.5 1.5zm4.5 2h-2v-5h1v4h1zm4 0h-1v-1.5h-1v1.5h-1v-3.5c0-.828.672-1.5 1.5-1.5s1.5.672 1.5 1.5zm2.904-1.113v1.113h-1v-1.113l-1.096-3.887h1.039l.557 1.979.557-1.979h1.039zm-5.904-13.887c0-3.314 2.686-6 6-6s6 2.686 6 6-2.686 6-6 6-6-2.686-6-6zm4 3.056 5.5-3.056-5.5-3.056v6.111z"/></svg>