<svg id="Layer_1" viewBox="0 0 24 24" xmlns="http://www.w3.org/2000/svg" data-name="Layer 1"><path d="m21.806 15.072-2.296 2.304-2.14-2.147 2.729-2.729-10.539-10.543c-1.365-1.362-3.584-1.359-4.947.003l-3.113-1.96-1.5 1.5 1.962 3.109c-.661.662-1.025 1.542-1.025 2.477 0 .936.365 1.814 1.026 2.475l6.415 6.418h-4.378v3h5.378l-2.886 2.886 2.121 2.121 6.635-6.635 2.137 2.144c.567.568 1.321.881 2.124.881h.001c.803 0 1.558-.313 2.124-.883l2.295-2.303-2.125-2.117zm-13.006-2.917-4.716-4.717c-.21-.231-.228-.467 0-.708l2.649-2.649c.194-.194.512-.196.706-.002l4.718 4.72-3.357 3.357zm3.7 3.701-1.579-1.579 3.357-3.357 1.579 1.58z"/></svg>