<svg id="Layer_1" viewBox="0 0 24 24" xmlns="http://www.w3.org/2000/svg" data-name="Layer 1"><path d="m21 18h3v6h-7.059c-1.508 0-2.843-.961-3.32-2.393l-1.283-3.848-5.414 3.044-1.032-1.893-2.571 1.404-2.527-4.658 2.505-1.367-3.284-2.348 10.004-5.563c.05 1.076.311 2.094.745 3.017l-5.095 2.833 2.435 4.469 6.316-3.55c1.078.541 2.291.853 3.58.853.41 0 .809-.041 1.202-.1l-4.2 2.362 1.465 4.397c.068.204.259.342.475.342h4.059v-3zm-9-12c0-3.314 2.686-6 6-6s6 2.686 6 6-2.686 6-6 6-6-2.686-6-6zm5 1h2v-5h-2zm0 3h2v-2h-2z"/></svg>