<svg id="Layer_1" viewBox="0 0 24 24" xmlns="http://www.w3.org/2000/svg" data-name="Layer 1"><path d="m15.748 14.655-.041.075.903.501-.824 1.51-.903-.5-.408.747-2.257-1.279-.308.924c-.272.817-1.034 1.367-1.897 1.367h-3.013v-2h3.013l.432-1.297-1.811-1.026c-.589-.322-.809-1.07-.484-1.665l.746-1.367c.323-.592 1.07-.813 1.663-.492l6.44 3.608-1.251.895zm7.699 6.118c-.775 1.394-2.188 2.226-3.781 2.226h-15.332c-1.593 0-3.006-.831-3.78-2.224-.773-1.393-.733-3.03.107-4.382l7.635-13.306c.833-1.343 2.173-2.087 3.704-2.087s2.835.725 3.654 2.042l7.711 13.396c.813 1.311.853 2.947.082 4.337zm-2.655-2.797-7.71-13.393c-.243-.389-.585-.583-1.082-.583s-.869.205-1.131.625l-7.635 13.309c-.287.465-.299.953-.059 1.386.247.445.648.681 1.159.681h15.333c.496 0 .918-.249 1.16-.684.239-.43.226-.919-.034-1.339z"/></svg>