<?xml version="1.0" encoding="UTF-8"?>
<svg xmlns="http://www.w3.org/2000/svg" id="Layer_1" data-name="Layer 1" viewBox="0 0 24 24">
  <path d="M3.911,8.001L1.79,5.88,7.249,.422l2.512,2.542,1.602-1.601-1.362-1.362h4c.552,0,1,.448,1,1V5l-1.516-1.516-3.736,3.736-2.512-2.543-3.325,3.325Zm18.822,4.011c-.767-.698-1.76-1.057-2.796-1.008-1.037,.048-1.992,.498-2.69,1.265l-2.447,2.689c-.647-.589-1.499-.958-2.441-.958H3.5c-1.93,0-3.5,1.57-3.5,3.5v6.5s2.999,0,2.999,0v-6.5c0-.276,.225-.5,.501-.5H12.358c.354,0,.642,.288,.642,.642,0,.317-.237,.591-.551,.636l-5.161,.737,.424,2.97,5.161-.737c1.612-.231,2.855-1.523,3.08-3.1l3.511-3.859c.159-.174,.376-.276,.612-.288,.234-.015,.461,.07,.636,.229,.356,.325,.385,.881,.054,1.252l-7.447,8.518h3.985l5.71-6.532c1.411-1.581,1.284-4.028-.282-5.455Zm-20.732-.013h3v-3H2v3Zm5,0h3v-4h-3v4Zm8,0V7h-3v5h3Z"/>
</svg>
