<?xml version="1.0" encoding="UTF-8"?>
<svg xmlns="http://www.w3.org/2000/svg" id="Layer_1" data-name="Layer 1" viewBox="0 0 24 24">
  <path d="M12,11c-3.59,0-6.5,2.91-6.5,6.5s2.91,6.5,6.5,6.5,6.5-2.91,6.5-6.5-2.91-6.5-6.5-6.5Zm1.5,6v4h-3v-4h-3l3.793-3.707c.39-.39,1.024-.39,1.414,0l3.793,3.707h-3Zm10.5-4.705c0,2.744-1.446,5.151-3.611,6.516,.067-.428,.111-.864,.111-1.311,0-.868-.132-1.704-.373-2.493,.545-.768,.873-1.7,.873-2.712,0-2.216-1.581-4.147-3.76-4.594l-.815-.167-.29-.781c-.833-2.244-2.997-3.753-5.385-3.753-3.171,0-5.75,2.579-5.75,5.75,0,.43,.056,.88,.164,1.337l.253,1.062-.933,.567c-.888,.539-1.484,1.539-1.484,2.487,0,.734,.24,1.397,.625,1.896-.076,.456-.125,.922-.125,1.4,0,.784,.115,1.539,.313,2.26-2.201-.709-3.813-2.93-3.813-5.556,0-1.646,.787-3.287,2.065-4.417-.044-.35-.065-.696-.065-1.037C2,3.925,5.925,0,10.75,0c3.366,0,6.439,1.967,7.883,4.968,3.153,1.006,5.367,3.968,5.367,7.327Z"/>
</svg>
