<?xml version="1.0" encoding="UTF-8"?>
<svg xmlns="http://www.w3.org/2000/svg" id="Layer_1" data-name="Layer 1" viewBox="0 0 24 24">
  <path d="M24,12.295c0,3.104-1.849,5.779-4.5,6.998v-3.573c.918-.859,1.5-2.071,1.5-3.425,0-2.216-1.581-4.148-3.76-4.595l-.815-.167-.29-.78c-.833-2.245-2.997-3.753-5.385-3.753-3.17,0-5.75,2.58-5.75,5.75,0,.437,.054,.874,.164,1.337l.253,1.062-.932,.567c-.888,.541-1.484,1.541-1.484,2.489,0,1.193,.626,2.206,1.5,2.607v3.113c-2.544-.431-4.5-2.828-4.5-5.72,0-1.645,.787-3.287,2.065-4.417-.043-.349-.065-.696-.065-1.038C2,3.925,5.925,0,10.75,0c3.366,0,6.439,1.967,7.883,4.968,3.154,1.005,5.367,3.967,5.367,7.327Zm-7.5,2.705h1v6c0,1.654-1.346,3-3,3h-5c-1.654,0-3-1.346-3-3v-6h1v-1.5c0-2.481,2.019-4.5,4.5-4.5s4.5,2.019,4.5,4.5v1.5Zm-3,3h-3v3h3v-3Zm0-4.5c0-.827-.673-1.5-1.5-1.5s-1.5,.673-1.5,1.5v1.5h3v-1.5Z"/>
</svg>
