<svg id="Layer_1" viewBox="0 0 24 24" xmlns="http://www.w3.org/2000/svg" data-name="Layer 1"><path d="m23.467 2.004c-.645-1.095-1.726-1.813-2.964-1.971-1.238-.159-2.453.259-3.332 1.14l-.41.41 2.121 2.121.411-.411c.498-.43 1.127-.447 1.591.233.44.6-.091 1.473-.833 1.473-2.161 0-4.258 1.087-5.913 2.742l-2.888 2.888-1.767-1.768-8.317 8.313c-1.55 1.489-1.551 4.169 0 5.656 1.559 1.56 4.096 1.56 5.655 0l8.317-8.312-1.767-1.767 2.888-2.888c1.13-1.13 2.533-1.793 3.948-1.867 1.346-.07 2.565-.816 3.261-1.997.714-1.214.714-2.782 0-3.995zm-18.766 18.705c-.391.391-1.026.388-1.414 0-.189-.188-.292-.439-.292-.707s.104-.519.292-.707l6.196-6.191 1.414 1.414z"/></svg>