<svg id="Layer_1" viewBox="0 0 24 24" xmlns="http://www.w3.org/2000/svg" data-name="Layer 1"><path d="m8.465 15.414 2.121 2.121-5.525 5.525-2.121-2.121zm1.42-10.467c.579-.592.568-1.542-.024-2.121l-1.43-1.398c-.592-.579-1.542-.568-2.121.024l-4.03 3.642c-4.194 4.29-1.318 8.501-1.318 8.501l4.323-4.189 13.655 13.655 2.121-2.121-13.622-13.622zm11.835.147-4.03-3.643c-.579-.592-1.529-.603-2.121-.024l-1.43 1.398c-.592.579-.603 1.529-.024 2.121l2.446 2.371-3.147 3.147 2.121 2.121 3.18-3.18 4.323 4.189s2.876-4.21-1.318-8.501z"/></svg>