<svg id="Layer_1" viewBox="0 0 24 24" xmlns="http://www.w3.org/2000/svg" data-name="Layer 1"><path d="m16 16.475c0-.828.672-1.5 1.5-1.5s1.5.672 1.5 1.5-.672 1.5-1.5 1.5-1.5-.672-1.5-1.5zm2-7.5h6v15h-20c-2.206 0-4-1.794-4-4v-12c0-2.205 1.794-4 4-4h3v3h-3c-.552 0-1 .449-1 1s.448 1 1 1h5v-4.462c-.604-.456-1-1.173-1-1.989 0-1.38 1.119-2.499 2.5-2.499s2.5 1.119 2.5 2.5c0 .815-.396 1.532-1 1.989v4.462h3v-7.015l4.527.044c.457-.592 1.166-.98 1.973-.98 1.381 0 2.5 1.119 2.5 2.5s-1.119 2.5-2.5 2.5c-.824 0-1.55-.404-2.005-1.02l-1.495-.015zm3 3h-17c-.345 0-.681-.044-1-.126v8.126c0 .551.448 1 1 1h17z"/></svg>