<svg id="Layer_1" viewBox="0 0 24 24" xmlns="http://www.w3.org/2000/svg" data-name="Layer 1"><path d="m24 1.566-5.431-1.566-2.018 2.112-1.889-1.889s-12.64 12.562-12.758 12.681c-1.231 1.23-1.904 2.876-1.904 4.596 0 2.5 1.12 4.26 2.986 5.474 1.056.69 2.283 1.026 3.514 1.026 1.306 0 2.604-.382 3.708-1.158 1.398-.982 2.345-2.434 2.665-4.086.417-2.147 1.264-3.872 2.518-5.125l6.339-6.34-1.674-1.675c1.49-1.504 3.945-4.05 3.945-4.05zm-10.73 9.943c-1.685 1.684-2.809 3.93-3.342 6.675-.122.627-.471 1.519-1.444 2.204-1.127.792-2.712.824-3.854.076-.928-.607-1.499-1.53-1.61-2.601-.108-1.055.258-2.089 1.009-2.839.139-.139 7.774-7.728 10.629-10.564l2.831 2.832-4.218 4.218zm-5.831 1.93 2.121 2.121-2.5 2.5-2.121-2.121z"/></svg>