<?xml version="1.0" encoding="UTF-8"?>
<svg xmlns="http://www.w3.org/2000/svg" id="Layer_1" data-name="Layer 1" viewBox="0 0 24 24">
  <path d="M8.5,21c-3.464,0-5.343-1.106-5.5-1.5v-1.499c1.554,.659,3.53,.999,5.5,.999,.213,0,.424-.019,.636-.027-.084-.479-.136-.969-.136-1.473,0-.522,.054-1.03,.144-1.525-.214,.009-.416,.025-.644,.025-3.464,0-5.343-1.106-5.5-1.5v-1.499c1.554,.659,3.53,.999,5.5,.999,.43,0,.859-.02,1.285-.052,.685-1.485,1.794-2.725,3.16-3.596-.925,.375-2.424,.648-4.445,.648-3.464,0-5.343-1.106-5.5-1.5v-1.499c1.554,.659,3.53,.999,5.5,.999s3.947-.341,5.501-1h0l.003,1.777c.923-.419,1.929-.689,2.995-.751V4.5C17,1.546,12.724,0,8.5,0S0,1.546,0,4.5v15c0,2.954,4.276,4.5,8.5,4.5,1.086,0,2.173-.104,3.192-.306-.822-.771-1.491-1.701-1.956-2.744-.387,.032-.798,.05-1.236,.05Zm0-18c3.42,0,5.287,1.076,5.486,1.482-.224,.456-2.086,1.518-5.486,1.518-3.419,0-5.286-1.075-5.485-1.482,.223-.456,2.085-1.518,5.485-1.518Zm9,8c-3.59,0-6.5,2.91-6.5,6.5s2.91,6.5,6.5,6.5,6.5-2.91,6.5-6.5-2.91-6.5-6.5-6.5Zm2.5,9h-5.5c-.828,0-1.5-.672-1.5-1.5s.672-1.5,1.5-1.5c.009,0,.017,.002,.025,.003-.008-.084-.025-.166-.025-.253,0-1.519,1.231-2.75,2.75-2.75,1.261,0,2.313,.854,2.637,2.011,.038-.002,.074-.011,.113-.011,1.105,0,2,.895,2,2s-.895,2-2,2Z"/>
</svg>
