<svg id="Layer_1" viewBox="0 0 24 24" xmlns="http://www.w3.org/2000/svg" data-name="Layer 1"><path d="m24 11.5c0-3.032-2.468-5.5-5.5-5.5h-1.5v-.5c0-1.93-1.57-3.5-3.5-3.5h-2.181c.441.927.681 1.944.681 3h1.5c.275 0 .5.225.5.5v12.5h-11v-5.165s-2.973-2.916-3-2.944v11.109h3.05c-.033.162-.05.329-.05.5 0 1.381 1.119 2.5 2.5 2.5s2.5-1.119 2.5-2.5c0-.171-.018-.338-.05-.5h8.101c-.033.162-.05.329-.05.5 0 1.381 1.119 2.5 2.5 2.5s2.5-1.119 2.5-2.5c0-.171-.018-.338-.05-.5h3.05v-9.5zm-5.5-2.5c1.379 0 2.5 1.121 2.5 2.5v2.5h-4v-5zm-13.5 2.994 3.535-3.458c.944-.944 1.465-2.2 1.465-3.536s-.521-2.591-1.465-3.535-2.2-1.465-3.535-1.465-2.593.521-3.535 1.465c-.944.943-1.465 2.199-1.465 3.535s.521 2.592 1.477 3.547zm-1.413-8.409c.377-.377.879-.585 1.413-.585s1.036.208 1.414.586.586.88.586 1.414-.208 1.036-.574 1.402l-1.426 1.395-1.414-1.384c-.378-.377-.586-.879-.586-1.413s.208-1.036.587-1.415z"/></svg>