<svg id="Layer_1" viewBox="0 0 24 24" xmlns="http://www.w3.org/2000/svg" data-name="Layer 1"><path d="m2.999 13.5v10.5s-2.999 0-2.999 0v-11.862l6.999-6.281v4.009zm14.501-7.5v3h1.5v-3zm-8.5-6v10.112c.894-.658 1.934-1.023 3-1.086v-3.026h-1v-.753c0-.602.328-1.155.856-1.443l3.857-2.104c.493-.269 1.08-.269 1.573 0l3.857 2.104c.528.287.856.84.856 1.442v.753h-1v3h1v2h-5.365c.718.847 1.166 1.879 1.292 3h6.073v-13.999zm6.699 16h8.301v2.991c0 1.657-1.343 3-3 3h-9.73l-.28.365.01 1.626-3 .018v-2.656l4.778-6.238c.294-.448.283-.586-.026-.962-.244-.205-.604-.202-.842.008l-3.915 3.47-1.99-2.245 3.916-3.471c1.349-1.195 3.4-1.216 4.773-.049.741.629 1.192 1.51 1.271 2.48.047.575-.056 1.144-.266 1.663zm-.701 1.998.002 2.002h3v-2zm-.998-11.998v3h1.5v-3z"/></svg>