<svg id="Layer_1" viewBox="0 0 24 24" xmlns="http://www.w3.org/2000/svg" data-name="Layer 1"><path d="m20.5 0h-17c-1.93 0-3.5 1.57-3.5 3.5v20.5h24v-20.5c0-1.93-1.57-3.5-3.5-3.5zm.5 3.5v.954c-.525.58-1.798 1.821-4 3.071v-4.525h3.5c.275 0 .5.225.5.5zm-11 6.646v-7.146h4v5.94c-1.169.457-2.505.868-4 1.206zm-6.5-7.146h3.5v7.686c-1.234.16-2.579.249-4 .284v-7.47c0-.275.225-.5.5-.5zm-.5 18v-7.016c9.31-.204 14.998-3.211 18-5.506v12.522zm5-3.5c0 .828-.672 1.5-1.5 1.5s-1.5-.672-1.5-1.5.672-1.5 1.5-1.5 1.5.672 1.5 1.5zm5.5 0c0 .828-.672 1.5-1.5 1.5s-1.5-.672-1.5-1.5.672-1.5 1.5-1.5 1.5.672 1.5 1.5zm5.5 0c0 .828-.672 1.5-1.5 1.5s-1.5-.672-1.5-1.5.672-1.5 1.5-1.5 1.5.672 1.5 1.5z"/></svg>