<svg id="Layer_1" viewBox="0 0 24 24" xmlns="http://www.w3.org/2000/svg" data-name="Layer 1"><path d="m10.262 16c-.165.64-.262 1.308-.262 2 0 .339.028.672.069 1h-8.569c-.828 0-1.5-.672-1.5-1.5s.672-1.5 1.5-1.5zm.325 5h-9.087c-.828 0-1.5.672-1.5 1.5s.672 1.5 1.5 1.5h11.221c-.926-.815-1.663-1.838-2.134-3zm13.413-3c0 3.314-2.686 6-6 6s-6-2.686-6-6 2.686-6 6-6 6 2.686 6 6zm-2.7 1.626c0-1.033-.734-1.929-1.747-2.131l-2.792-.559c-.267-.054-.461-.291-.461-.562 0-.316.257-.574.573-.574h2.127c.316 0 .585.211.671.5h1.62c-.102-1.175-1.09-2.1-2.291-2.1h-.2v-1.2h-1.6v1.2h-.327c-1.198 0-2.173.975-2.173 2.173 0 1.033.734 1.929 1.747 2.131l2.791.559c.268.054.462.291.462.563 0 .316-.258.574-.574.574h-2.126c-.316 0-.585-.211-.671-.5h-1.62c.102 1.175 1.09 2.1 2.291 2.1h.2v1.2h1.6v-1.2h.326c1.199 0 2.174-.975 2.174-2.173zm2.7-14.127v7.221c-.815-.926-1.838-1.663-3-2.134v-3.606l-2 1.02v2.069c-.328-.041-.661-.069-1-.069-.692 0-1.36.097-2 .262v-.732l-1.92.979c-.642.327-1.376.491-2.112.491s-1.47-.164-2.112-.491l-1.856-.946v4.437h-3v-5.967l-4.969-2.533 9.825-5.01c.638-.325 1.412-.489 2.144-.49.738-.002 1.433.161 2.077.489l9.923 5.011zm-6.7 0-4.583-2.337c-.427-.217-1.072-.217-1.5 0l-4.582 2.336 4.583 2.337c.428.218 1.071.218 1.497 0l4.584-2.337z"/></svg>