<svg id="Layer_1" viewBox="0 0 24 24" xmlns="http://www.w3.org/2000/svg" data-name="Layer 1"><path d="m1.115 9.471c-.699-.981-1.115-2.177-1.115-3.471 0-2.967 2.167-5.431 5-5.91v3.094c-1.161.414-2 1.514-2 2.816 0 .462.113.894.301 1.285zm7.701-2.471c-.414 1.161-1.514 2-2.816 2-.462 0-.894-.113-1.285-.301l-2.186 2.186c.981.699 2.177 1.115 3.471 1.115 2.967 0 5.431-2.167 5.91-5zm15.184 8v-.5c0-1.58-1.059-2.903-2.5-3.337v-1.163h-3v1.163c-1.441.434-2.5 1.757-2.5 3.337 0 1.528.917 2.882 2.336 3.45l2.214.886c.273.109.45.37.45.665 0 .276-.225.5-.5.5h-1c-.275 0-.5-.224-.5-.5v-.5h-3v.5c0 1.58 1.059 2.903 2.5 3.337v1.163h3v-1.163c1.441-.434 2.5-1.757 2.5-3.337 0-1.528-.917-2.882-2.336-3.45l-2.214-.886c-.273-.109-.45-.37-.45-.665 0-.276.225-.5.5-.5h1c.275 0 .5.224.5.5v.5zm-6-11h-3v7.348c.717-1.021 1.5-1.925 3-2.579zm-9.178 1h3.087c-.424-2.506-2.402-4.486-4.909-4.91v3.094c.847.302 1.519.971 1.822 1.816zm-8.822 19h3v-7h-3zm23-24h-3v8h3zm-13 12.921v11.079h3v-14.13c-.704 1.27-1.745 2.324-3 3.051zm-5 1.01v10.069h3v-10.262c-.64.165-1.308.262-2 .262-.339 0-.672-.028-1-.069z"/></svg>