<svg id="Layer_1" viewBox="0 0 24 24" xmlns="http://www.w3.org/2000/svg" data-name="Layer 1"><path d="m13 9c0-2.206-1.794-4-4-4s-4 1.794-4 4 1.794 4 4 4 4-1.794 4-4zm-4 1c-.551 0-1-.448-1-1s.449-1 1-1 1 .448 1 1-.449 1-1 1zm8 6.492 7 2.447v5.062h-3v-2.938l-4-1.389v4.328h-2.935l-3.411-2.786c-.771-.643-.875-1.789-.233-2.56s1.789-.875 2.56-.233l1.019.87v-6.791c0-.911.852-1.632 1.792-1.479.737.12 1.208.812 1.208 1.56v3.911zm-7-13.401v-3.03c3.096.345 5.72 2.265 7.054 4.939h5.946v4.511c.604.456 1 1.173 1 1.989 0 1.381-1.119 2.5-2.5 2.5s-2.5-1.119-2.5-2.5c0-.815.396-1.532 1-1.989v-1.511h-5.09c-.423-2.507-2.404-4.485-4.91-4.909zm-6.909 4.909h-3.03c.463-4.164 3.775-7.478 7.939-7.941v3.031c-2.507.423-4.485 2.404-4.909 4.91zm4.909 6.91v8.09h-3.511c-.456.604-1.173 1-1.989 1-1.381 0-2.5-1.119-2.5-2.5s1.119-2.5 2.5-2.5c.815 0 1.532.396 1.989 1h.511v-2.946c-2.674-1.334-4.595-3.958-4.939-7.054h3.03c.424 2.506 2.402 4.486 4.909 4.91z"/></svg>