<svg id="Layer_1" viewBox="0 0 24 24" xmlns="http://www.w3.org/2000/svg" data-name="Layer 1"><path d="m13 10.911c1.379-.229 2.598-.92 3.497-1.911h2.503v3h-6zm-5-5.911c0-1.15.667-2.04 1.33-2.725 0 0 .454 1.725.858 1.725.842 0 .598-2.598 1.812-4 1.263 1.263 4 2.684 4 5 0 2.209-1.791 4-4 4s-4-1.791-4-4zm3.057 2.609c.521.521 1.365.521 1.886 0s.521-1.365 0-1.886l-.943-.943-.943.943c-.521.521-.521 1.365 0 1.886zm-6.057 4.391h6v-1.089c-1.379-.229-2.598-.92-3.497-1.911h-2.503zm11.74-10.369c.719.913 1.26 2.02 1.26 3.369 0 .115-.011.227-.017.341l3.017 1.183v14.477h-2v-7h-14v7h-2v-14.478l3.017-1.183c-.006-.113-.017-.226-.017-.341 0-1.477.663-2.621 1.234-3.358l-7.234 2.836v19.523h8v-7h2.5v7h3v-7h2.5v7h8v-19.523l-7.26-2.845z"/></svg>