<svg id="Layer_1" viewBox="0 0 24 24" xmlns="http://www.w3.org/2000/svg" data-name="Layer 1"><path d="m12.726 24h-8.409l-3.08-13h-1.237v-3h1.202c.655-3.216 2.861-5.871 5.798-7.159v-.841h8v.843c2.936 1.288 5.143 3.941 5.798 7.157h-3.093c-.457-1.527-1.43-2.825-2.705-3.721v.721h-8v-.735c-1.28.895-2.244 2.205-2.702 3.735h12.683l-2.935 3h-9.763l.48 2h7.352c-.677.763-1.388 1.762-1.788 3h-4.844l1.2 5h3.906c.472 1.162 1.21 2.184 2.137 3zm11.274-6c0 3.314-2.686 6-6 6s-6-2.686-6-6c0-1.725 1-3.06 1.995-4.087 0 0 .681 2.087 1.287 2.087 1.263 0 .897-3.898 2.718-6 1.895 1.895 6 4.526 6 8zm-4.586.585-1.415-1.415-1.415 1.415c-.781.781-.781 2.048 0 2.829s2.048.781 2.829 0 .781-2.048 0-2.829z"/></svg>