<svg id="Layer_1" viewBox="0 0 24 24" xmlns="http://www.w3.org/2000/svg" data-name="Layer 1"><path d="m18 10c-1.821 2.103-1.455 6-2.718 6-.606 0-1.287-2.087-1.287-2.087-.995 1.027-1.995 2.361-1.995 4.087 0 3.314 2.686 6 6 6s6-2.686 6-6c0-3.474-4.105-6.105-6-8zm1.414 11.414c-.781.781-2.048.781-2.829 0-.781-.782-.781-2.048 0-2.829l1.415-1.415 1.415 1.415c.781.782.781 2.048 0 2.829zm4.586-17.914v9.491c-.922-1.145-2.021-2.131-3-2.982v-6.509c0-.276-.224-.5-.5-.5h-7v8.56c-1.227 1.253-2.559 2.487-3.174 4.44h-2.326v-3h2.5v-10h-7c-.276 0-.5.224-.5.5v17.5h7.607c.472 1.158 1.194 2.186 2.119 3h-12.726v-20.5c0-1.93 1.57-3.5 3.5-3.5h17c1.93 0 3.5 1.57 3.5 3.5zm-15.5 7.5h-3.5v-6h3.5zm8.482-3-1.482 1.515v-4.515h3.5v3z"/></svg>