<svg id="Layer_1" viewBox="0 0 24 24" xmlns="http://www.w3.org/2000/svg" data-name="Layer 1"><path d="m7 18v-3h10v3zm15-14.5v20.5h-20v-20.5c0-1.933 1.567-3.5 3.5-3.5h13c1.933 0 3.5 1.567 3.5 3.5zm-8.5 6.5h2.601c1.325 0 2.399-1.074 2.399-2.399v-.022c0-1.334-1.081-2.418-2.416-2.418h-.985v-2.161h-1.6v7zm-7 0h2.601c1.325 0 2.399-1.074 2.399-2.399 0-.718-.322-1.355-.822-1.795.306-.403.495-.9.495-1.445 0-1.325-1.074-2.399-2.399-2.399h-2.274zm12.5 2h-14v9h14zm-2.1-4.399c0-.442-.358-.8-.8-.8h-1.001v1.599h1.001c.442 0 .8-.358.8-.8zm-7.327-3.24c0-.442-.358-.8-.8-.8h-.674v1.599h.674c.442 0 .8-.358.8-.8zm.327 3.24c0-.442-.358-.8-.8-.8h-1.001v1.599h1.001c.442 0 .8-.358.8-.8z"/></svg>