<?xml version="1.0" encoding="UTF-8"?>
<svg xmlns="http://www.w3.org/2000/svg" id="Layer_1" data-name="Layer 1" viewBox="0 0 24 24">
  <path d="M23,7.5v2.091l-7,7.5v6.918l-8-4.103v-2.815L1,9.591v-2.091c0-1.93,1.57-3.5,3.5-3.5h1.474v3h-1.474c-.276,0-.5,.224-.5,.5v.909l7,7.5v2.165l2,1.026v-3.191l7-7.5v-.909c0-.276-.224-.5-.5-.5h-1.5v-3h1.5c1.93,0,3.5,1.57,3.5,3.5Zm-7,1.5h-4.027c.018-.143,.027-.288,.027-.435v-.565h2v-3h-2v-1.51c0-.276,.224-.5,.5-.5s.5,.224,.5,.5v.51h3v-.51C16,1.561,14.43-.01,12.5-.01s-3.5,1.57-3.5,3.5v1.51h-1v3h1v.565c0,.24-.195,.435-.435,.435h-.565v3h8v-3Z"/>
</svg>
