<svg id="Layer_1" viewBox="0 0 24 24" xmlns="http://www.w3.org/2000/svg" data-name="Layer 1"><path d="m17.434 4.241-1.936-1.077v-.538h2.537l.686-2.626h.567l.686 2.626h2.523v.535l-1.923 1.114.774 2.351-.442.305-1.902-1.47-1.911 1.477-.42-.317s.761-2.379.761-2.379zm-8.227 4.378s.42.318.42.318l1.911-1.477 1.902 1.47.442-.305-.774-2.351 1.923-1.114v-.535h-2.523l-.686-2.626h-.567l-.686 2.626h-2.537v.538l1.936 1.077-.761 2.378zm-7.532 2s.42.318.42.318l1.911-1.477 1.902 1.47.442-.305-.774-2.351 1.923-1.114v-.535h-2.523l-.686-2.626h-.567l-.686 2.626h-2.537v.538l1.936 1.077-.761 2.378zm20.853 6.686h-.001c-.249-.67-.84-1.127-1.527-1.251v-1.054h-3v1h-2v-1h-3v1.054c-.687.125-1.278.581-1.527 1.251-1.116 3.009-1.473 4.74-1.473 5.456 0 .683.556 1.238 1.238 1.238 1 0 2.693-1.593 3.59-2.999h4.344c.897 1.406 2.59 2.999 3.59 2.999.683 0 1.237-.556 1.237-1.238 0-.761-.357-2.447-1.472-5.456zm-12.93-.696c-.729 1.965-1.598 4.627-1.598 6.151 0 .439.09.857.249 1.239h-8.249v-8.5c0-1.93 1.57-3.5 3.5-3.5h3.851c.564-1.178 1.758-2 3.149-2h3.838c.562-1.182 1.769-2 3.162-2h3c1.93 0 3.5 1.57 3.5 3.5v1.5h-3v-1.5c0-.276-.225-.5-.5-.5h-3c-.275 0-.5.224-.5.5v1.5h-6.5c-.276 0-.5.224-.5.5v2.339c-.159.242-.3.495-.402.771zm-2.598-1.609h-3.5c-.276 0-.5.224-.5.5v5.5h4z"/></svg>