<svg id="Layer_1" viewBox="0 0 24 24" xmlns="http://www.w3.org/2000/svg" data-name="Layer 1"><path d="m21 9v5.5c0 .275-.225.5-.5.5h-1.887c-.242-.917-.545-2.383-.545-4 0-1.829.424-3.179.677-3.822.429-1.094.312-2.279-.311-3.171-.344-.493-.809-.883-1.343-1.128-.395-.182-.754-.534-.937-.92-.564-1.19-1.835-1.959-3.237-1.959h-1.836c-1.402 0-2.673.769-3.237 1.96-.183.385-.542.737-.936.919-.535.245-1 .635-1.343 1.127-.624.893-.74 2.078-.311 3.173.252.643.676 1.992.676 3.821 0 1.617-.303 3.083-.545 4h-1.887c-.275 0-.5-.225-.5-.5v-5.5h-2.998v5.5c0 1.93 1.57 3.5 3.5 3.5h7v3h-4.5v3h12v-3h-4.5v-3h7c1.93 0 3.5-1.57 3.5-3.5v-5.5zm-12.974-3.276c.038-.056.083-.095.134-.118 1.038-.478 1.911-1.338 2.396-2.361.065-.139.292-.244.526-.244h1.836c.234 0 .461.105.526.243.484 1.024 1.357 1.885 2.396 2.362.05.023.095.062.134.119.03.044.044.188-.021.356-.331.84-.885 2.595-.885 4.919 0 .833.066 1.628.164 2.353-.913-.192-2.03-.353-3.232-.353s-2.319.161-3.232.353c.098-.725.164-1.52.164-2.353 0-2.324-.554-4.079-.884-4.918-.066-.17-.053-.313-.021-.358z"/></svg>