<svg id="Layer_1" viewBox="0 0 24 24" xmlns="http://www.w3.org/2000/svg" data-name="Layer 1"><path d="m18 0c-3.314 0-6 2.686-6 6s2.686 6 6 6 6-2.686 6-6-2.686-6-6-6zm1 10h-2v-2h2zm0-3h-2v-5h2zm0 14h-5.5v-8.39c-.989-.676-1.815-1.569-2.417-2.61h-8.083v-1.5c0-.276.224-.5.5-.5h6.762c-.165-.64-.262-1.308-.262-2 0-1.486.412-2.872 1.118-4.065-.443-.58-.965-1.133-1.543-1.49-.481-.297-1.024-.446-1.576-.445-1.028-.003-2.019.542-2.553 1.422-.421.682-.551 1.487-.366 2.267.118.499.367.941.702 1.311h-2.282c-1.93 0-3.5 1.57-3.5 3.5v4.5h2v11h20v-11.088c-.904.524-1.915.883-3 1.019zm-14-8h5.5v8h-5.5z"/></svg>