<svg id="Layer_1" viewBox="0 0 24 24" xmlns="http://www.w3.org/2000/svg" data-name="Layer 1"><path d="m17.25 6c-3.911 0-6.75 1.682-6.75 4v1.618c-.733-.274-1.576-.464-2.5-.555v-4.574c1.187-.047 2.813-.296 3.753-1.236 1.603-1.602 1.203-5.209 1.203-5.209s-3.606-.401-5.209 1.202c-1.081 1.081-1.25 3.071-1.246 4.253h-.002c.004-1.182-.164-3.172-1.246-4.253-1.602-1.602-5.209-1.202-5.209-1.202s-.4 3.607 1.203 5.209c.94.94 2.567 1.189 3.753 1.236v4.635c-2.978.423-5 1.921-5 3.875v5.25c0 2.208 2.775 3.75 6.75 3.75 2.213 0 4.053-.479 5.25-1.284 1.197.805 3.037 1.284 5.25 1.284 3.975 0 6.75-1.542 6.75-3.75v-10.25c0-2.318-2.839-4-6.75-4zm-3.75 7.382c1.053.394 2.329.618 3.75.618s2.697-.224 3.75-.618v1.547c-.188.321-1.515 1.071-3.75 1.071s-3.562-.75-3.75-1.071zm3.75-4.382c2.08 0 3.378.651 3.701 1-.323.349-1.621 1-3.701 1s-3.378-.651-3.701-1c.323-.349 1.621-1 3.701-1zm-10.5 5c2.08 0 3.378.651 3.701 1-.323.349-1.621 1-3.701 1s-3.378-.651-3.701-1c.323-.349 1.621-1 3.701-1zm-3.75 6.095v-1.713c1.053.394 2.329.618 3.75.618s2.697-.224 3.75-.618v1.713c-.298.285-1.544.905-3.75.905s-3.452-.62-3.75-.905zm14.25.905c-2.206 0-3.452-.62-3.75-.905v-1.713c1.053.394 2.329.618 3.75.618s2.697-.224 3.75-.618v1.713c-.298.285-1.544.905-3.75.905z"/></svg>