<svg id="Layer_1" viewBox="0 0 24 24" xmlns="http://www.w3.org/2000/svg" data-name="Layer 1"><path d="m20.5 0h-15.5c-2.206 0-4 1.794-4 4v16c0 2.206 1.794 4 4 4h18v-21.5c0-1.378-1.121-2.5-2.5-2.5zm-15.5 21c-.551 0-1-.449-1-1s.449-1 1-1h3.5v-3h-3.5c-.347 0-.678.058-1 .142v-12.142c0-.551.449-1 1-1h15v13h-4.5v3h4.5v2zm8.929-8.495c-.168.101-.429.589-.429.876v.619h-3v-.619c0-1.375.852-2.881 1.98-3.503.291-.16.596-.536.502-1.071-.067-.382-.406-.722-.788-.789-.417-.078-.703.104-.837.216-.227.191-.357.47-.357.767h-3c0-1.185.521-2.302 1.428-3.064s2.102-1.081 3.284-.874c1.615.283 2.941 1.609 3.225 3.225.298 1.697-.51 3.392-2.009 4.218zm-3.429 3.495h3v3h-3z"/></svg>