<svg id="Layer_1" viewBox="0 0 24 24" xmlns="http://www.w3.org/2000/svg" data-name="Layer 1"><path d="m14.266 18h4.307c-2.4 2.489-4.427 4.092-6.573 5.578-.096-.068-.929-.656-1-.709v-3.784c.34.279.676.547 1 .794.734-.559 1.501-1.195 2.266-1.88zm-.766-10v-.25c0-2.068 1.683-3.75 3.75-3.75 1.742 0 3.198 1.28 3.617 3h3.056c-.47-3.387-3.279-6-6.673-6-2.118 0-4.012.98-5.25 2.512-.777-.961-1.813-1.704-3-2.125v3.383c.905.685 1.5 1.76 1.5 2.981v.25h3zm-6.5 9h-3v2h-2v3h2v2h3v-2h2v-3h-2zm17-6h-2v-2h-3v2h-2v3h2v2h3v-2h2zm-22-4h3v-2h2v-3h-2v-2h-3v2h-2v3h2zm4.721 8c-1.766-1.991-3.198-4.124-3.597-6h-3.047c.28 2.045 1.377 4.108 2.775 6h3.87z"/></svg>