<svg id="Layer_1" viewBox="0 0 24 24" xmlns="http://www.w3.org/2000/svg" data-name="Layer 1"><path d="m23 19.511v-4.511h-5v-1.384c0-1.078-.688-2.031-1.713-2.371l-4.287-1.421-4.288 1.421c-1.023.34-1.712 1.293-1.712 2.371v1.384h-5v4.511c-.604.456-1 1.173-1 1.989 0 1.381 1.119 2.5 2.5 2.5s2.5-1.119 2.5-2.5c0-.815-.396-1.532-1-1.989v-1.511h2.124c.655 3.174 3.924 5.058 5.005 5.598l.805.402.837-.336c1.115-.449 4.513-2.106 5.125-5.664h2.104v1.511c-.604.456-1 1.173-1 1.989 0 1.381 1.119 2.5 2.5 2.5s2.5-1.119 2.5-2.5c0-.815-.396-1.532-1-1.989zm-9.874.789h-.326v1.2h-1.6v-1.2h-.2c-1.201 0-2.189-.925-2.291-2.1h1.62c.086.289.354.5.671.5h2.126c.316 0 .574-.257.574-.574 0-.272-.194-.509-.462-.563l-2.791-.559c-1.013-.203-1.747-1.099-1.747-2.131 0-1.199.975-2.173 2.173-2.173h.327v-1.2h1.6v1.2h.2c1.201 0 2.189.925 2.291 2.1h-1.62c-.086-.289-.354-.5-.671-.5h-2.127c-.316 0-.573.257-.573.574 0 .272.194.509.461.562l2.792.559c1.013.202 1.747 1.099 1.747 2.131 0 1.199-.975 2.173-2.174 2.173zm-13.126-7.3.027-1.578c.283-5.38 4.765-9.677 10.473-10.327v-1.095h3v1.095c5.708.65 10.19 4.947 10.473 10.327l.027 1.578h-4.049c-.167-1.209-.809-2.287-1.773-3h2.536c-.716-2.524-2.786-4.549-5.478-5.465.67 1.264 1.308 2.876 1.599 4.784l-3.319-1.1c-.405-1.367-.994-2.483-1.51-3.274-.516.793-1.105 1.91-1.512 3.271l-3.327 1.102c.291-1.909.929-3.52 1.599-4.784-2.692.917-4.763 2.941-5.478 5.465h2.535c-.964.713-1.606 1.791-1.773 3h-4.05z"/></svg>