<svg id="Layer_1" viewBox="0 0 24 24" xmlns="http://www.w3.org/2000/svg" data-name="Layer 1"><path d="m21.87 23.997 2.121-2.121-5.949-5.949c1.225-1.659 1.958-3.702 1.958-5.918 0-5.512-4.484-9.998-9.997-10s-.003 0-.003 0c-5.512.001-9.997 4.487-9.997 10s4.484 9.998 9.997 10 .003 0 .003 0c2.216 0 4.259-.735 5.918-1.96l5.949 5.949zm-11.868-6.988c-3.859 0-6.999-3.141-6.999-7s3.14-6.999 6.998-7c3.859 0 6.999 3.141 6.999 7s-3.14 6.999-6.998 7zm3.498-10.009h-1v-.5c0-.828-.672-1.5-1.5-1.5h-2c-.828 0-1.5.672-1.5 1.5v.5h-1c-.828 0-1.5.672-1.5 1.5v5.5h10v-5.5c0-.828-.672-1.5-1.5-1.5zm-2 4h-3v-2h3z"/></svg>