<svg id="Layer_1" viewBox="0 0 24 24" xmlns="http://www.w3.org/2000/svg" data-name="Layer 1"><path d="m16 0c-4.411 0-8 3.589-8 8 0 1.665.512 3.211 1.386 4.493l-1.719 1.719-2.243-2.243-2.121 2.121 2.243 2.243-1.175 1.175-2.243-2.243-2.121 2.121 2.243 2.243-2.25 2.25 2.115 2.121 9.391-9.386c1.282.874 2.828 1.386 4.493 1.386 4.411 0 8-3.589 8-8s-3.588-8-7.999-8zm2.998 11.976c-.013-1.094-.901-1.976-1.998-1.976h-2c-1.096 0-1.985.883-1.998 1.976-1.208-.914-2.002-2.348-2.002-3.976 0-2.757 2.243-5 5-5s5 2.243 5 5c0 1.628-.794 3.063-2.002 3.976zm-.998-4.976c0 1.105-.895 2-2 2s-2-.895-2-2 .895-2 2-2 2 .895 2 2z"/></svg>