<svg id="Layer_1" viewBox="0 0 24 24" xmlns="http://www.w3.org/2000/svg" data-name="Layer 1"><path d="m12 9.194-2-1v-1.2h4v1.2zm-.365 4.755c-2.008-.485-3.948-1.55-5.635-2.907v-4.371c0-3.21 4.396-5.789 5.277-6.274l.723-.397.723.397c.881.484 5.277 3.064 5.277 6.273v4.371c-1.794 1.449-3.841 2.525-6 2.999l-.365-.092zm-2.635-4.424c.96.644 1.949 1.111 3 1.416 1.051-.305 2.04-.771 3-1.416v-2.854c0-.808-1.465-2.214-3-3.21-1.535.996-3 2.402-3 3.21zm8.5 4.469h-.577c-1.459 1.394-3.146 2.473-4.923 2.965-1.777-.492-3.465-1.571-4.923-2.965h-.577c-2.613 0-6.5 1.731-6.5 6.5v1.5h3v2h3v-6.95c1.393 1.16 2.904 2.009 4.5 2.566v4.384h3v-4.384c1.596-.557 3.107-1.406 4.5-2.566v6.95h3v-2h3v-1.5c0-4.769-3.887-6.5-6.5-6.5z"/></svg>