<svg id="Layer_1" viewBox="0 0 24 24" xmlns="http://www.w3.org/2000/svg" data-name="Layer 1"><path d="m22.882 15.219c-.576-2.523-3.308-5.5-7.164-7.868 2.063-.51 3.566-.424 4.082-.009.002-.001 1.927 1.654 2.708 2.515.67-1.536.662-2.941-.093-4.062-2.005-2.978-7.722-1.926-12.687.714.649-2.197 1.591-3.456 2.233-3.502 1.148-.439 2.299-.822 3.421-1.059-.959-1.254-2.116-1.948-3.384-1.948-3.741 0-5.785 5.447-5.981 11.103-1.134-1.165-1.803-2.233-1.976-2.99-.062-.151-.03-.537 0-.636.197-1.191.48-2.342.844-3.418-1.499.167-2.638.745-3.304 1.735-.391.581-.789 1.569-.466 2.986.575 2.522 3.306 5.498 7.159 7.866-2.16.532-3.706.413-4.143-.055-.002.002-.005.003-.007.005-.999-.788-1.881-1.608-2.644-2.442-.665 1.533-.651 2.935.101 4.051.851 1.263 2.368 1.802 4.212 1.802 2.507 0 5.615-1 8.475-2.522-.636 2.154-1.554 3.407-2.195 3.5-1.163.484-2.308.873-3.403 1.137.948 1.207 2.083 1.877 3.326 1.877 3.742 0 5.785-5.447 5.981-11.103 1.135 1.165 1.804 2.233 1.976 2.99.025.109.043.237.037.358-.19 1.205-.523 2.615-.882 3.701 1.501-.167 2.637-.75 3.304-1.74.391-.581.789-1.57.466-2.986zm-9.882.781h-2v-2h2zm.396-3.346c-.397.209-.397.285-.397.346h-2c0-1.344 1.065-1.905 1.465-2.116.333-.175.62-.588.511-1.112-.071-.346-.355-.649-.689-.736-.424-.112-.735.059-.881.171-.254.196-.405.502-.405.819h-2c0-.932.443-1.83 1.184-2.402.742-.572 1.695-.763 2.61-.522 1.073.282 1.912 1.17 2.14 2.263.277 1.336-.34 2.658-1.537 3.289z"/></svg>