<svg id="Layer_1" viewBox="0 0 24 24" xmlns="http://www.w3.org/2000/svg" data-name="Layer 1"><path d="m2 6.001c-.138 0-.268.027-.402.041 2.073-3.604 5.954-6.042 10.402-6.042 1.345 0 2.634.232 3.842.642-1.105.713-1.842 1.949-1.842 3.359l.002 4.589c-.511-1.829-1.324-3.399-1.999-4.487-.732 1.183-1.631 2.929-2.127 4.955-.299-1.226-1.155-2.234-2.293-2.727.379-1.022.814-1.949 1.247-2.742-1.356.513-2.541 1.356-3.495 2.413h-3.335zm15.091 4.86c.196 0 .397-.054.583-.173l2.454-1.687h3.872v-5.001c0-1.105-.896-2-2-2h-4.001c-1.1 0-2 .9-1.999 2l.002 5.772c0 .638.524 1.088 1.089 1.088zm-10.766 5.828c.186.119.387.173.583.173.566 0 1.089-.45 1.089-1.088l.002-5.772c0-1.1-.899-2-1.999-2.001h-3.999s0 0 0 0c-1.104 0-2 .895-2 2v5l3.872-.003 2.454 1.69zm17.624-5.688c.027.331.051.662.051 1 0 6.617-5.383 12-12 12-4.831 0-8.994-2.876-10.895-7h2.146c.595.366 2.128 1.601 2.81 1.74.808.712 1.743 1.285 2.769 1.673-.287-.526-.57-1.126-.843-1.757 1.171-.439 2.01-1.561 2.011-2.883v-.365c.511 1.831 1.323 3.402 1.999 4.49.844-1.364 1.912-3.472 2.326-5.898h-4.324v-3h4.262c.476 1.093 1.565 1.86 2.831 1.86 1.214.113 2.703-1.264 3.655-1.86h3.203zm-3.181 3h-3.414c-.346 2.531-1.278 4.754-2.184 6.413 2.792-1.056 4.924-3.456 5.598-6.413z"/></svg>