<svg id="Layer_1" viewBox="0 0 24 24" xmlns="http://www.w3.org/2000/svg" data-name="Layer 1"><path d="m13 12.18v5.82h-10v-15h9v-.997c0-.733.212-1.411.558-2.003h-12.558v21c0 1.657 1.343 3 3 3h10c1.657 0 3-1.343 3-3v-8.134c-.299.095-.602.144-.908.144-.809 0-1.541-.32-2.092-.83zm-3.001 9.828h-4v-2h4zm-1.999-12.008c-1.104 0-2-.896-2-2s.896-2 2-2 2 .895 2 2-.895 2-2 2zm3 4h-6v-1c0-1.105.895-2 2-2h2c1.105 0 2 .895 2 2zm12.999-12c0-1.105-.896-2-2-2l-6 .002c-1.1 0-1.999.901-1.999 2.001l.002 7.919c0 .638.523 1.088 1.089 1.088.196 0 .397-.054.583-.173l2.454-1.837h5.872v-7zm-2.999 4h-4v-3h4z"/></svg>