<svg id="Layer_1" viewBox="0 0 24 24" xmlns="http://www.w3.org/2000/svg" data-name="Layer 1"><path d="m24 19v2c0 1.657-1.343 3-3 3h-18c-1.657 0-3-1.343-3-3v-2h2v-13h9.431l3.069 3h-9.5v10h3.308l.923 1h5.538l.923-1h3.308v-9.137l.5-.5 2.5 2.5v7.137zm-6.853-10.052 2.353-2.353 2.353 2.353 2.121-2.121-2.353-2.353 2.353-2.353-2.121-2.121-2.353 2.353-2.353-2.353-2.121 2.121 2.353 2.353-2.353 2.353zm-6.811 3.052h-1.836c-.828 0-1.5.672-1.5 1.5v2c0 .828.672 1.5 1.5 1.5h1.836l2.664 2v-3c.829 0 1.5-.671 1.5-1.5s-.671-1.5-1.5-1.5v-3z"/></svg>