<svg id="Layer_1" viewBox="0 0 24 24" xmlns="http://www.w3.org/2000/svg" data-name="Layer 1"><path d="m19.071 2.936c-1.888-1.889-4.399-2.929-7.071-2.929s-5.183 1.04-7.071 2.929c-3.899 3.898-3.899 10.243.012 14.153l7.06 6.905 7.071-6.917c3.899-3.898 3.899-10.243 0-14.142zm-2.109 12.009-4.962 4.853-4.95-4.841c-2.729-2.729-2.729-7.17 0-9.899 1.322-1.322 3.08-2.05 4.95-2.05s3.628.728 4.95 2.05c2.729 2.729 2.729 7.17.012 9.888zm-.962-7.444v.5h-8v-.5c0-1.379 1.122-2.5 2.5-2.5h3c1.379 0 2.5 1.121 2.5 2.5zm-8 2.5h8v3h-1.225l1.225 2h-2.256l-1.225-2h-1.038l-1.225 2h-2.256l1.225-2h-1.225z"/></svg>