<svg id="Layer_1" viewBox="0 0 24 24" xmlns="http://www.w3.org/2000/svg" data-name="Layer 1"><path d="m19.071 2.936c-1.889-1.89-4.4-2.93-7.071-2.93s-5.182 1.04-7.071 2.93c-1.889 1.889-2.929 4.4-2.929 7.071s1.04 5.182 2.941 7.083l7.059 6.905 7.071-6.917c3.899-3.899 3.899-10.243 0-14.142zm-2.109 12.009-4.962 4.853-4.95-4.841c-1.322-1.322-2.05-3.08-2.05-4.95s.728-3.627 2.05-4.95 3.08-2.05 4.95-2.05 3.627.728 4.95 2.05c2.729 2.729 2.729 7.17.012 9.888zm-.814-6.944h-8.296l.707-1.979c.219-.612.799-1.021 1.449-1.021h3.985c.65 0 1.23.409 1.449 1.021l.707 1.979zm.651 2c.129.563.201 1.138.201 1.717v1.283h-1v2h-2.5v-2h-3v2h-2.5v-2h-1v-1.283c0-.579.072-1.154.201-1.717z"/></svg>