<svg id="Layer_1" viewBox="0 0 24 24" xmlns="http://www.w3.org/2000/svg" data-name="Layer 1"><path d="m19.071 2.936c-1.888-1.889-4.399-2.929-7.071-2.929s-5.183 1.04-7.071 2.929c-1.889 1.889-2.929 4.399-2.929 7.071s1.04 5.182 2.941 7.082l7.059 6.905 7.071-6.917c1.889-1.889 2.929-4.399 2.929-7.07s-1.04-5.183-2.929-7.071zm-2.109 12.009-4.961 4.853-4.95-4.841c-1.322-1.322-2.05-3.08-2.05-4.949s.728-3.628 2.051-4.95c1.321-1.322 3.079-2.05 4.95-2.05s3.627.728 4.949 2.05c1.322 1.322 2.05 3.08 2.05 4.95s-.728 3.627-2.039 4.938zm-4.462-9.945h-3.5v10h2v-3h1.5c1.93 0 3.5-1.57 3.5-3.5s-1.57-3.5-3.5-3.5zm0 5h-1.5v-3h1.5c.827 0 1.5.673 1.5 1.5s-.673 1.5-1.5 1.5z"/></svg>