<svg id="Layer_1" viewBox="0 0 24 24" xmlns="http://www.w3.org/2000/svg" data-name="Layer 1"><path d="m19.071 2.936c-1.889-1.889-4.4-2.93-7.071-2.93s-5.182 1.04-7.071 2.93c-1.889 1.889-2.929 4.4-2.929 7.071s1.04 5.182 2.941 7.083l7.059 6.905 7.071-6.917c1.889-1.889 2.929-4.4 2.929-7.071s-1.04-5.182-2.929-7.071zm-2.109 12.009-4.961 4.853-4.95-4.841c-1.322-1.322-2.05-3.08-2.05-4.95s.728-3.627 2.05-4.95 3.08-2.05 4.95-2.05 3.627.728 4.949 2.05 2.05 3.08 2.05 4.95-.728 3.627-2.039 4.938zm.539-3.444c0 1.381-1.119 2.5-2.5 2.5s-2.5-1.119-2.5-2.5c0-.684.276-1.303.721-1.754l-.149-.373-1.848 1.008c.171.338.276.715.276 1.119 0 1.381-1.119 2.5-2.5 2.5s-2.5-1.119-2.5-2.5 1.119-2.5 2.5-2.5c.167 0 .545.018.545.018l-.611-1.018h-.934v-2h2.066l1.236 2.06 1.022-.557-.324-.81v-1.692h4v2h-1.723l.803 2.008c1.343.043 2.42 1.139 2.42 2.492z"/></svg>