<svg id="Layer_1" viewBox="0 0 24 24" xmlns="http://www.w3.org/2000/svg" data-name="Layer 1"><path d="m19.071 2.936c-1.888-1.889-4.399-2.929-7.071-2.929s-5.183 1.04-7.071 2.929c-1.889 1.889-2.929 4.399-2.929 7.071s1.04 5.182 2.941 7.082l7.059 6.905 7.071-6.917c3.899-3.898 3.899-10.243 0-14.142zm-2.109 12.009-4.962 4.853-4.95-4.841c-1.322-1.322-2.05-3.08-2.05-4.949s.728-3.628 2.051-4.95c1.321-1.322 3.079-2.05 4.95-2.05s3.627.728 4.95 2.05c2.729 2.729 2.729 7.17.012 9.888zm.538-3.444c0 1.381-1.119 2.5-2.5 2.5s-2.5-1.119-2.5-2.5c0-.293.06-.569.152-.83l-1.196.399c.025.141.044.284.044.432 0 1.381-1.119 2.5-2.5 2.5s-2.5-1.119-2.5-2.5 1.119-2.5 2.5-2.5c.121 0 .237.019.354.036l-.188-1.036h-1.166v-2h2.834l.364 2h2.149l-.182-1h-1.165v-2h2.835l.182 1h.983v2h-.62l.195 1.073c1.102.261 1.925 1.245 1.925 2.427z"/></svg>