<svg id="Layer_1" viewBox="0 0 24 24" xmlns="http://www.w3.org/2000/svg" data-name="Layer 1"><path d="m12.993 5c.65 0 1.23.409 1.449 1.021l.707 1.979h-8.297l.707-1.979c.219-.612.799-1.021 1.449-1.021zm-6.993 6.717v1.283h1v2h2.5v-2h3v2h2.5v-2h1v-1.283c0-.579-.072-1.154-.201-1.717h-9.598c-.129.563-.201 1.138-.201 1.717zm14.5-11.717v2h-2v-2h-2.5v4.5c0 1.209.859 2.218 2 2.45v3.057c0 1.87-.729 3.627-2.038 4.938l-4.962 4.853-4.95-4.841c-2.729-2.729-2.729-7.17 0-9.899 1.322-1.323 3.081-2.051 4.95-2.051 1.058 0 2.073.251 3 .695v-3.22c-.959-.303-1.965-.476-3-.476-2.671 0-5.182 1.04-7.071 2.93-3.9 3.898-3.9 10.242.011 14.153l7.06 6.905 7.071-6.917c1.889-1.889 2.929-4.4 2.929-7.071v-3.057c1.141-.232 2-1.24 2-2.45v-4.499z"/></svg>