<svg id="Layer_1" viewBox="0 0 24 24" xmlns="http://www.w3.org/2000/svg" data-name="Layer 1"><path d="m11.49 16.898 2.828 2.83-2.193 2.192c-1.341 1.341-3.125 2.08-5.022 2.08s-3.681-.739-5.022-2.081c-1.341-1.34-2.08-3.124-2.08-5.021s.739-3.682 2.081-5.022l2.191-2.192 2.829 2.828-2.192 2.193c-1.204 1.153-1.204 3.233 0 4.386 1.173 1.174 3.216 1.173 4.388 0l2.194-2.193zm-1.123-7.652-2.829-2.828-1.868 1.868 2.829 2.828zm12.885-4.63c-1.068-1.068-2.887-.982-4.062.193 1.175-1.175 1.262-2.993.193-4.062-1.068-1.068-2.887-.982-4.062.193-2.228 2.228-.967 8.703-.967 8.703s6.475 1.261 8.703-.967c1.175-1.175 1.262-2.993.193-4.062zm-10.365 10.885 2.829 2.83 1.868-1.868-2.828-2.83z"/></svg>