<svg id="Layer_1" viewBox="0 0 24 24" xmlns="http://www.w3.org/2000/svg" data-name="Layer 1"><path d="m8.5 15c1.105 0 2 .895 2 2s-.895 2-2 2-2-.895-2-2 .895-2 2-2zm.004-7c-.966 0-1.5.354-1.5.792s.534 1.208 1.5 1.208 1.5-.771 1.5-1.208-.534-.792-1.5-.792zm15.496-3v2.474c0 5.119-2.66 9.8-7 12.428v4.099h-3v-5.883l.805-.421c1.661-.869 3.027-2.115 4.065-3.584-1.174.563-2.484.887-3.871.887h-8.499c-1.93 0-3.5 1.57-3.5 3.5v5.5h-3v-5.5c0-2.255 1.156-4.245 2.905-5.411-1.174-1.177-1.902-2.799-1.902-4.589 0-.099-.003-.537.006-.628.216-4.831.457-5.378 1.003-7.872l3.03 1.743c1.024-.474 2.192-.743 3.456-.743s2.436.269 3.461.743l3.034-1.743c.545 2.488.786 3.042 1.003 7.863.01.095.006.534.007.637 0 1.289-.382 2.488-1.032 3.5h.028c3.309 0 6-2.691 6-6v-1h3zm-10.996 3c0-2.355-1.852-4-4.504-4s-4.496 1.645-4.496 4v.5c0 1.93 1.57 3.5 3.5 3.5h2c1.93 0 3.5-1.57 3.5-3.5z"/></svg>