<svg id="Layer_1" viewBox="0 0 24 24" xmlns="http://www.w3.org/2000/svg" data-name="Layer 1"><path d="m12 8v-2c0-3.309-2.691-6-6-6s-6 2.691-6 6v2c0 1.771.776 3.36 2 4.46v7.54c0 2.206 1.794 4 4 4s4-1.794 4-4v-7.54c1.224-1.099 2-2.688 2-4.46zm-6 3c-1.483 0-2.71-1.084-2.949-2.5h5.899c-.24 1.416-1.466 2.5-2.949 2.5zm0-8c1.483 0 2.71 1.084 2.949 2.5h-5.898c.24-1.416 1.466-2.5 2.949-2.5zm1 17c0 .552-.449 1-1 1s-1-.448-1-1v-6.09c.326.055.659.09 1 .09s.674-.035 1-.09zm14.999-9-8 .002c-1.1 0-2 .901-1.999 2.001l.002 9.771c0 .858.949 1.378 1.672.915l2.454-1.689h7.872v-9c0-1.105-.896-2-2.001-2zm-2.999 10h-2v-2h2zm.396-3.346c-.397.209-.397.285-.397.346h-2c0-1.344 1.065-1.905 1.465-2.116.333-.175.62-.588.511-1.112-.071-.346-.355-.649-.689-.736-.424-.112-.735.059-.881.171-.254.196-.405.502-.405.819h-2c0-.932.443-1.83 1.184-2.402.742-.572 1.695-.763 2.61-.522 1.073.282 1.912 1.17 2.14 2.263h-.001c.277 1.336-.34 2.658-1.537 3.289z"/></svg>