<svg id="Layer_1" viewBox="0 0 24 24" xmlns="http://www.w3.org/2000/svg" data-name="Layer 1"><path d="m8.499 11.114-2.829-2.828 1.868-1.868 2.829 2.828zm.797 7.977c-1.172 1.172-3.215 1.173-4.388 0-1.203-1.153-1.203-3.233 0-4.386l2.192-2.193-2.829-2.828-2.191 2.192c-1.342 1.341-2.081 3.124-2.081 5.022s.739 3.682 2.08 5.021c1.342 1.342 3.125 2.081 5.022 2.081s3.681-.739 5.022-2.08l2.193-2.192-2.828-2.83-2.194 2.193zm3.591-3.59 2.829 2.83 1.868-1.868-2.828-2.83zm11.113-9.001c0 3.59-2.91 6.5-6.5 6.5s-6.5-2.91-6.5-6.5 2.91-6.5 6.5-6.5 6.5 2.91 6.5 6.5zm-3.2 1.626c0-1.033-.734-1.929-1.747-2.131l-2.792-.559c-.267-.054-.461-.291-.461-.562 0-.316.257-.574.573-.574h2.127c.316 0 .585.211.671.5h1.62c-.102-1.175-1.09-2.1-2.291-2.1h-.2v-1.2h-1.6v1.2h-.327c-1.198 0-2.173.975-2.173 2.173 0 1.033.734 1.929 1.747 2.131l2.791.559c.268.054.462.291.462.563 0 .316-.258.574-.574.574h-2.126c-.316 0-.585-.211-.671-.5h-1.62c.102 1.175 1.09 2.1 2.291 2.1h.2v1.2h1.6v-1.2h.326c1.199 0 2.174-.975 2.174-2.173z"/></svg>