<svg id="Layer_1" viewBox="0 0 24 24" xmlns="http://www.w3.org/2000/svg" data-name="Layer 1"><path d="m21 19.5c0 .827-.673 1.5-1.5 1.5s-1.5-.673-1.5-1.5c0-.902.455-1.871.987-3.096.792-1.827 1.919-4.377 2.09-7.994 1.364-1.138 1.615-1.446 1.751-1.582 1.552-1.488 1.552-4.169 0-5.657-1.559-1.56-4.098-1.559-5.656 0-.076.076-.234.255-.448.502-1.499-.668-4.532-1.674-9.224-1.674-3.146.001-7.244 1.002-7.417 1.044l.718 2.914c.039-.01 3.921-.957 6.699-.957 3.439 0 5.809.595 7.195 1.093-5.057 6.131-12.634 15.394-14.669 17.988l1.913 1.913c1.406-1.144 6.418-5.211 12.819-10.451.664-1.567 1.067-3.2 1.185-4.853-1.054.867-3.522 2.89-3.522 2.89 3.556-4.344 6.474-7.88 6.872-8.287.391-.39 1.023-.39 1.414 0 .388.37.388 1.042 0 1.412-.048.047-.312.29-1.669 1.423l.003.003-1.042.868v.5c0 3.559-.956 5.764-1.801 7.71-.616 1.422-1.199 2.765-1.199 4.29 0 2.481 2.019 4.5 4.5 4.5s4.5-2.019 4.5-4.5h-3z"/></svg>