<?xml version="1.0" encoding="UTF-8"?>
<svg xmlns="http://www.w3.org/2000/svg" id="Layer_1" data-name="Layer 1" viewBox="0 0 24 24">
  <path d="M21,8.75c0-2.594-1.892-4.755-4.367-5.176-.787-2.104-2.812-3.574-5.133-3.574-2.951,0-5.366,2.335-5.494,5.255-1.749,.617-3.006,2.287-3.006,4.245,0,2.481,2.019,4.5,4.5,4.5H15.75c2.895,0,5.25-2.355,5.25-5.25Zm-5.25,2.25H7.5c-.827,0-1.5-.673-1.5-1.5s.673-1.5,1.5-1.5h1.5v-2.5c0-1.378,1.121-2.5,2.5-2.5,1.245,0,2.304,.941,2.461,2.188l.166,1.312h1.623c1.24,0,2.25,1.009,2.25,2.25s-1.01,2.25-2.25,2.25ZM1.5,16H5.5c.828,0,1.5,.672,1.5,1.5v3.5h-2.5v1h1v2H1.5v-2h1v-1H0v-3.5c0-.828,.672-1.5,1.5-1.5Zm8.5,0h4c.828,0,1.5,.672,1.5,1.5v3.5h-2.5v1h1v2h-4v-2h1v-1h-2.5v-3.5c0-.828,.672-1.5,1.5-1.5Zm11.5,5v1h1v2h-4v-2h1v-1h-2.5v-3.5c0-.828,.672-1.5,1.5-1.5h4c.828,0,1.5,.672,1.5,1.5v3.5h-2.5Z"/>
</svg>
