<svg id="Layer_1" viewBox="0 0 24 24" xmlns="http://www.w3.org/2000/svg" data-name="Layer 1"><path d="m16.495 9-.226-1.206c1.586-.532 2.731-2.032 2.731-3.794 0-2.206-1.794-4-4-4h-6c-2.206 0-4 1.794-4 4 0 1.762 1.146 3.262 2.731 3.794l-.226 1.206h-7.505v11.5c0 1.93 1.57 3.5 3.5 3.5h17c1.93 0 3.5-1.57 3.5-3.5v-11.5zm-7.495-4c-.551 0-1-.449-1-1s.449-1 1-1h6c.552 0 1 .449 1 1s-.448 1-1 1h-2.308l.75 4h-2.885l.75-4h-2.308zm5.005 7 1.687 9h-7.385l1.688-9zm-11.005 8.5v-8.5h3.943l-1.688 9h-1.755c-.276 0-.5-.224-.5-.5zm18 0c0 .276-.225.5-.5.5h-1.755l-1.688-9h3.943z"/></svg>