<svg id="Layer_1" viewBox="0 0 24 24" xmlns="http://www.w3.org/2000/svg" data-name="Layer 1"><path d="m10.25 15c.596 0 1.189-.106 1.75-.312.561.205 1.154.312 1.75.312 2.993 0 5.25-2.464 5.25-5.73 0-2.451-1.514-4.387-3.693-5.025.562-.179 1.143-.452 1.599-.883 1.293-1.223 1.131-3.285 1.131-3.285s-2.18-.153-3.474 1.07c-.789.747-1.081 1.855-1.19 2.609-.184-1.235-.579-2.459-1.204-3.654l-2.658 1.391c.434.829.712 1.669.86 2.508-3.033-.065-5.378 2.22-5.372 5.27 0 3.267 2.257 5.73 5.25 5.73zm0-8h3.5c1.12 0 2.25.702 2.25 2.27 0 1.607-.925 2.73-2.25 2.73-.599.038-1.243-.391-1.75-.669-.509.279-1.149.707-1.75.669-1.325 0-2.25-1.123-2.25-2.73 0-1.567 1.13-2.27 2.25-2.27zm13.75 1.352v13.524l-12 2.182-12-2.182v-13.524c0-1.014.446-1.967 1.225-2.616.778-.651 1.799-.918 2.795-.737l.296.054c-.619.883-1.04 1.916-1.216 3.043-.049.056-.099.133-.099.257v11.021l7.5 1.364v-3.736h3v3.736l7.5-1.364v-11.022c0-.124-.05-.201-.099-.257-.176-1.127-.598-2.16-1.216-3.043l.296-.054c.998-.18 2.017.087 2.795.737.778.649 1.225 1.603 1.225 2.616z"/></svg>