<svg id="Layer_1" viewBox="0 0 24 24" xmlns="http://www.w3.org/2000/svg" data-name="Layer 1"><path d="m23.992 3.978v9c0 .738-.404 1.376-1 1.722l.015 6.899-2.379 2.379h-4.242l3.621-3.621-.009-2.988-3.317 3.292-2.113-2.129 3.318-3.294c.102-.167.141-.362.11-.559-.024-.158-.105-.383-.35-.556-.314-.224-.815-.145-1.14.18l-3.769 3.769c-.472.473-.732 1.101-.732 1.768v4.138h-3v-4.138c0-1.468.572-2.85 1.611-3.889l3.373-3.374v-8.599c0-1.105.895-2 2-2h3v9.471c.133.072.268.139.394.229.855.608 1.415 1.51 1.575 2.539.028.182.028.363.03.544v-12.783h1c1.105 0 2 .895 2 2zm-20.984 6.747v-5.437c0-.071.044-.131.113-.154l5.887-1.952 2.984.99v-.194c0-1.012.39-1.926 1.011-2.631l-3.995-1.325-6.83 2.265c-1.298.43-2.17 1.636-2.17 3.001v5.437c0 5.046 4.544 8.349 7 9.766v-.652c0-.897.165-1.767.465-2.585-1.961-1.309-4.465-3.56-4.465-6.53z"/></svg>