<svg id="Layer_1" viewBox="0 0 24 24" xmlns="http://www.w3.org/2000/svg" data-name="Layer 1"><path d="m24 19h-3v1.5c0 1.93-1.57 3.5-3.5 3.5h-2.5v-3h2.5c.276 0 .5-.224.5-.5v-1.5h-3l3.793-3.707c.39-.391 1.024-.391 1.414 0zm-21-12.5c0-.276.224-.5.5-.5h1.5v3l3.707-3.793c.391-.39.391-1.024 0-1.414l-3.707-3.793v3h-1.5c-1.93 0-3.5 1.57-3.5 3.5v2.5h3zm8.946 9.799-1.529.883c.049.266.083.538.083.818s-.033.552-.083.818l1.529.883-1.5 2.598-1.542-.89c-.413.352-.884.629-1.404.815v1.776h-3v-1.776c-.52-.186-.991-.463-1.404-.815l-1.542.89-1.5-2.598 1.529-.883c-.049-.266-.083-.538-.083-.818s.034-.552.083-.818l-1.529-.883 1.5-2.599 1.542.89c.412-.352.883-.629 1.404-.815v-1.776h3v1.776c.52.186.991.463 1.404.815l1.542-.89zm-4.446 1.701c0-.827-.673-1.5-1.5-1.5s-1.5.673-1.5 1.5.673 1.5 1.5 1.5 1.5-.673 1.5-1.5zm9.5-4c-3.866 0-7-3.134-7-7s3.134-7 7-7 7 3.134 7 7-3.134 7-7 7zm-1-2.5v1h2v-1h.376c1.447 0 2.624-1.177 2.624-2.624 0-1.288-.923-2.377-2.193-2.588l-3.286-.548c-.302-.05-.521-.309-.521-.616 0-.344.28-.624.624-.624h2.376c.552 0 1 .449 1 1h2c0-1.654-1.346-3-3-3v-1h-2v1h-.376c-1.447 0-2.624 1.177-2.624 2.624 0 1.288.922 2.377 2.192 2.588l3.286.548c.302.05.521.309.521.616 0 .344-.28.624-.624.624h-2.376c-.551 0-1-.449-1-1h-2c0 1.654 1.346 3 3 3z"/></svg>