<svg id="Layer_1" viewBox="0 0 24 24" xmlns="http://www.w3.org/2000/svg" data-name="Layer 1"><path d="m17 2.5c0-1.381 1.119-2.5 2.5-2.5s2.5 1.119 2.5 2.5-1.119 2.5-2.5 2.5-2.5-1.119-2.5-2.5zm4.5 3.5h-4c-1.379 0-2.5 1.122-2.5 2.5v3.5h.696c1.063-1.205 2.542-1.92 4.147-1.994 1.523-.067 3.002.453 4.157 1.469v-2.975c0-1.378-1.121-2.5-2.5-2.5zm-1.564 6.004c-1.036.048-1.991.498-2.69 1.265l-2.446 2.688c-.647-.589-1.499-.958-2.441-.958h-8.859c-1.93 0-3.5 1.57-3.5 3.5v5.5h3v-5.5c0-.276.225-.5.5-.5h8.857c.354 0 .643.288.643.642 0 .317-.237.591-.551.636l-5.161.737.424 2.97 5.162-.737c1.612-.231 2.855-1.524 3.079-3.101l3.511-3.858c.312-.358.902-.386 1.248-.059.356.325.385.881.064 1.241h.001c-.003.005-.008.008-.011.012l-6.573 7.518h3.985s4.913-5.635 4.945-5.681c1.28-1.582 1.129-3.921-.39-5.306-.768-.699-1.765-1.058-2.797-1.008zm-19.936-6.004c0-3.314 2.686-6 6-6s6 2.686 6 6-2.686 6-6 6-6-2.686-6-6zm2.7-1.626c0 1.033.734 1.929 1.747 2.131l2.791.559c.268.054.462.291.462.563 0 .316-.258.574-.574.574h-2.126c-.316 0-.585-.211-.671-.5h-1.62c.102 1.175 1.09 2.1 2.291 2.1h.2v1.2h1.6v-1.2h.326c1.199 0 2.174-.975 2.174-2.173 0-1.033-.734-1.929-1.747-2.131l-2.792-.559c-.267-.054-.461-.291-.461-.562 0-.316.257-.574.573-.574h2.127c.316 0 .585.211.671.5h1.62c-.102-1.175-1.09-2.1-2.291-2.1h-.2v-1.202h-1.6v1.2h-.327c-1.198 0-2.173.975-2.173 2.173z"/></svg>