<svg id="Layer_1" viewBox="0 0 24 24" xmlns="http://www.w3.org/2000/svg" data-name="Layer 1"><path d="m21.305 9.637c-2.51-2.427-6.039-2.677-8.046-2.666-.639-.501-1.411-.826-2.259-.921v-1.763l-2.44-2.44-6.447-1.792-.322.322 3.743 3.743 1.463.407 1.003 1.003v1.232c-.489.328-.91.749-1.238 1.238h-1.232l-1.003-1.003-.407-1.463-3.743-3.743-.322.322 1.793 6.447 2.44 2.44h1.763c.095.848.42 1.62.92 2.259-.013 2.007.239 5.536 2.666 8.047 1.729 1.788 4.206 2.695 7.363 2.695v-3c-2.312 0-4.064-.599-5.206-1.78-1.142-1.182-1.573-2.831-1.732-4.264.146.014.287.044.437.044 2.481 0 4.5-2.019 4.5-4.5 0-.15-.03-.291-.044-.437 1.433.159 3.083.589 4.264 1.732 1.181 1.142 1.78 2.893 1.78 5.206h3c0-3.157-.907-5.634-2.695-7.363zm-10.805 2.363c-.827 0-1.5-.673-1.5-1.5s.673-1.5 1.5-1.5 1.5.673 1.5 1.5-.673 1.5-1.5 1.5z"/></svg>