<svg id="Layer_1" viewBox="0 0 24 24" xmlns="http://www.w3.org/2000/svg" data-name="Layer 1"><path d="m8 14h-3v-3h3zm5-3h-3v3h3zm-8 8h3v-3h-3zm8-3h-3v3h3zm-4.974-11h-3.026v4h7.121l-4.094-4zm7.976 6c-.343 0-.676-.048-1.002-.122v10.122h-12v-17.5c0-.275.224-.5.5-.5h6.695l2.94-3h-9.635c-1.93 0-3.5 1.57-3.5 3.5v20.5h18v-4h2v-11.125l-.835.824c-.835.835-1.961 1.301-3.162 1.301zm-5.048-5.926 3.279 3.193c.488.488 1.13.732 1.77.732s1.275-.242 1.758-.725l6.24-6.135-2.126-2.136-5.877 5.796-2.952-2.874-2.093 2.148z"/></svg>