<svg id="Layer_1" viewBox="0 0 24 24" xmlns="http://www.w3.org/2000/svg" data-name="Layer 1"><path d="m4.976 9.161-2.998 2.998c-.037-.231 0-6.15-.013-6.381 0-1.465.936-2.761 2.329-3.224l7.708-2.554 5.828 1.932c-1.357.546-2.618 1.203-3.75 1.929l-2.078-.689-6.759 2.241c-.159.053-.267.2-.267.366v3.383zm14.052 2.343v.459c0 3.689-2.466 6.089-4.603 7.478l-3.863 3.863c.283.152 1.085.548 1.376.696l1.024-.414c2.129-.857 9.077-4.226 9.077-11.624v-5.723c-.817 2-1.885 3.77-3.011 5.264zm-7.868 8.364-1.471-1.471 5.222-5.222c2.801-2.777 5.155-6.311 6.101-10.182-3.881.931-7.409 3.289-10.191 6.092l-5.222 5.221-1.465-1.465-2.129 2.129 2.448 2.448-2.448 2.448 2.129 2.129 2.448-2.448 2.448 2.448 2.129-2.129z"/></svg>