<svg id="Layer_1" viewBox="0 0 24 24" xmlns="http://www.w3.org/2000/svg" data-name="Layer 1"><path d="m22.168 1.833c-1.178-1.179-2.744-1.828-4.411-1.829-1.666 0-3.233.649-4.411 1.827l-3.973 3.972 6.662 6.661c-3.383 3.276-6.077 5.452-8.111 6.79-.351-1.85-1.974-3.254-3.925-3.254-.347 0-.678.058-1 .142v-16.142h-2.999v20c0 2.206 1.794 4 4 4 3.16 0 8.365-3.603 15.438-10.676l2.729-2.667c2.433-2.432 2.434-6.391.002-8.824zm-19.168 18.167c0-.551.449-1 1-1s1 .449 1 1-.449 1-1 1-1-.449-1-1zm17.047-11.468-1.855 1.846-1.224-1.224 2.003-2.003-2.121-2.121-2.003 2.003-1.229-1.23 1.851-1.851c.611-.611 1.424-.948 2.289-.948s1.678.337 2.29.949c1.263 1.264 1.262 3.319.001 4.579z"/></svg>