<svg id="Layer_1" viewBox="0 0 24 24" xmlns="http://www.w3.org/2000/svg" data-name="Layer 1"><path d="m9.389 8c.494.522 1.377 1.578 1.978 3h3.187c-.691-2.31-2.029-4.027-2.86-4.929l1.822-6.071h-12.032l1.82 6.065c-1.173 1.259-3.304 4.106-3.304 7.941v6.51c.008 1.921 1.569 3.483 3.491 3.483h7.77c-.687-.831-1.135-1.866-1.238-3h-6.532c-.274 0-.499-.223-.5-.497l-.031-6.503c0-2.925 1.844-5.165 2.646-6h3.784zm.095-5-.6 2h-2.768l-.6-2zm2.516 10v7.5c0 1.93 1.57 3.5 3.5 3.5h5c1.93 0 3.5-1.57 3.5-3.5v-7.5zm9 7.5c0 .275-.224.5-.5.5h-5c-.276 0-.5-.225-.5-.5v-4.5h6z"/></svg>