<svg id="Layer_1" viewBox="0 0 24 24" xmlns="http://www.w3.org/2000/svg" data-name="Layer 1"><path d="m0 3h1v16.5c0 2.481 2.019 4.5 4.5 4.5s4.5-2.019 4.5-4.5v-16.5h1v-3h-11zm5.5 18c-.827 0-1.5-.673-1.5-1.5v-8.5h3v8.5c0 .827-.673 1.5-1.5 1.5zm1.5-13h-3v-5h3zm6.55 2.295 1.543-.889c.413.353.885.631 1.407.817v1.776h3v-1.776c.522-.186.994-.464 1.407-.817l1.543.889 1.498-2.6-1.53-.882c.049-.265.082-.535.082-.814s-.034-.549-.082-.814l1.53-.882-1.498-2.6-1.543.889c-.413-.353-.885-.631-1.407-.817v-1.775h-3v1.776c-.522.186-.994.464-1.407.817l-1.543-.889-1.498 2.6 1.53.882c-.049.265-.082.535-.082.814s.034.549.082.814l-1.53.882 1.498 2.6zm4.45-5.795c.827 0 1.5.673 1.5 1.5s-.673 1.5-1.5 1.5-1.5-.673-1.5-1.5.673-1.5 1.5-1.5zm4 9.5h-8c-1.105 0-2 .895-2 2v6c0 1.105.895 2 2 2h8c1.105 0 2-.895 2-2v-6c0-1.105-.895-2-2-2zm-3.75 8-.5-1.326h-1.983l-.5 1.324h-1.303l2.285-5.998h1.033l2.265 6zm3.25 0h-1.237v-6h1.237zm-4.736-3.943.53 1.404h-1.065z"/></svg>