<svg id="Layer_1" viewBox="0 0 24 24" xmlns="http://www.w3.org/2000/svg" data-name="Layer 1"><path d="m22.736 16.637c-.984-.984-4.259-3.764-5.208-4.567l-.046-.298c-1.078-7.009-5.858-10.798-6.061-10.956l-1.045-.813-10.373 10.373.813 1.045c.157.203 3.946 4.983 10.955 6.062l.298.046c.803.949 3.583 4.224 4.567 5.208.814.814 1.897 1.264 3.05 1.264s2.235-.449 3.05-1.264 1.264-1.897 1.264-3.05-.449-2.235-1.264-3.05zm-11.243-2.251c-3.621-.746-6.146-2.683-7.4-3.857l6.436-6.436c1.176 1.256 3.111 3.78 3.857 7.4zm9.122 6.229c-.512.512-1.346.512-1.857 0-.774-.774-3.017-3.392-4.319-4.933l1.244-1.244c1.54 1.302 4.158 3.545 4.933 4.319.512.512.512 1.346 0 1.857z"/></svg>