<svg id="Layer_1" viewBox="0 0 24 24" xmlns="http://www.w3.org/2000/svg" data-name="Layer 1"><path d="m15.535 0-.45.545c-.763.924-1.887 1.455-3.085 1.455s-2.322-.53-3.085-1.455l-.45-.545h-8.465v24h8.464l.449-.545c.764-.925 1.889-1.455 3.087-1.455s2.323.53 3.087 1.455l.449.545h8.464v-24zm5.465 14h-11c-1.103 0-2-.897-2-2s.897-2 2-2h11zm-11-7c-2.757 0-5 2.243-5 5s2.243 5 5 5h11v4h-4.101c-1.303-1.279-3.052-2-4.899-2s-3.597.721-4.899 2h-4.101v-18h4.101c1.303 1.279 3.051 2 4.899 2s3.597-.721 4.899-2h4.101v4zm3 5c0-.828.672-1.5 1.5-1.5s1.5.672 1.5 1.5-.672 1.5-1.5 1.5-1.5-.672-1.5-1.5z"/></svg>