<svg id="Layer_1" viewBox="0 0 24 24" xmlns="http://www.w3.org/2000/svg" data-name="Layer 1"><path d="m6.507 5.001c-.86 0-1.523.726-1.686 1.581l-1.321 6.418h1.533l.299-1.4h2.302l.285 1.4h1.58l-1.296-6.373c-.131-.668-.608-1.627-1.697-1.627zm-.832 5 .664-3.104c.029-.149.055-.296.171-.296s.131.145.166.306l.633 3.093h-1.634zm8.998-2.602c0-1.325-1.074-2.399-2.399-2.399h-2.274v8.038h2.601c1.325 0 2.399-1.074 2.399-2.399 0-.718-.322-1.355-.822-1.795.306-.403.495-.9.495-1.445zm-3.073-.8h.674c.442 0 .8.358.8.8s-.358.8-.8.8h-.674v-1.599zm1.001 4.839h-1.001v-1.599h1.001c.442 0 .8.358.8.8s-.358.8-.8.8zm4.499-3.939v3c0 .496.404.9.9.9s.9-.404.9-.9h1.6c0 1.381-1.119 2.5-2.5 2.5s-2.5-1.119-2.5-2.5v-3c0-1.381 1.119-2.5 2.5-2.5s2.5 1.119 2.5 2.5h-1.6c0-.496-.404-.9-.9-.9s-.9.404-.9.9zm6.9 10.5v-14.499c0-1.93-1.57-3.5-3.5-3.5h-17c-1.93 0-3.5 1.57-3.5 3.5v14.5h10.5v2h-1c-1.93 0-3.5 1.57-3.5 3.5v.5h3v-.5c0-.276.224-.5.5-.5h5c.275 0 .5.224.5.5v.5h3v-.5c0-1.93-1.57-3.5-3.5-3.5h-1v-2h10.5zm-21-2.999v-11.5c0-.276.224-.5.5-.5h17c.275 0 .5.224.5.5v11.5z"/></svg>