<svg id="Layer_1" viewBox="0 0 24 24" xmlns="http://www.w3.org/2000/svg" data-name="Layer 1"><path d="m14 12h-10v-1c0-1.105.895-2 2-2v-2h2v2h2v-2h2v2c1.105 0 2 .895 2 2zm-10 5h10v-3h-10zm19.611-8.655c-.336.416-.838.655-1.376.655h-1.519c-.123.844-.843 1.494-1.722 1.494s-1.598-.65-1.722-1.494h-1.509c-.536 0-1.036-.237-1.373-.651-.334-.411-.463-.944-.355-1.463.134-.633.446-2.101.701-3.265.496-2.267 2.089-3.621 4.262-3.621 2.186 0 3.779 1.356 4.264 3.63l.697 3.248c.111.519-.016 1.054-.35 1.467zm-6.318-2.345h3.411l-.374-1.744c-.236-1.106-.805-1.256-1.33-1.256-.343 0-1.056 0-1.332 1.263-.121.552-.254 1.172-.376 1.737zm-1.273 5c-.338.008-.694-.012-1.02-.085v7.585c0 .275-.224.5-.5.5h-11c-.276 0-.5-.225-.5-.5v-13c0-.275.224-.5.5-.5h8.894c.126-.586.265-1.233.391-1.807.093-.423.226-.816.376-1.193h-8.161v-2h-3v2.351c-1.178.564-2 1.758-2 3.149v13c0 1.391.822 2.585 2 3.149v2.351h3v-2h8v2h3v-2.351c1.178-.564 2-1.758 2-3.149v-6.157c-.801-.222-1.49-.698-1.98-1.343z"/></svg>