<svg id="Layer_1" viewBox="0 0 24 24" xmlns="http://www.w3.org/2000/svg" data-name="Layer 1"><path d="m10.869 9.986c-.023-.02.021.021 0 0zm1.07 11.014h-8.439c-.276 0-.5-.225-.5-.5v-5.272c0-2.003.78-3.886 2.197-5.303l1.803-1.803v-5.122h2v5.121l1.869 1.865c.341.303.637.644.891 1.014h3.357c-.501-1.138-1.207-2.188-2.099-3.102-.001-.001-1.018-1.019-1.018-1.019v-3.879h1v-3h-10v3h1v3.879l-.924.924c-1.983 1.983-3.076 4.62-3.076 7.424v5.272c0 1.93 1.57 3.5 3.5 3.5h9.481c-.509-.676-.852-1.488-.964-2.378l-.078-.622zm12.038-8-1.047 8.373c-.187 1.497-1.467 2.627-2.977 2.627h-2.975c-1.509 0-2.789-1.129-2.977-2.627l-1.046-8.373zm-3.398 3h-4.225l.625 5.001s2.975 0 2.975 0l.625-5zm-12.579-3c-1.657 0-3 1.343-3 3s1.343 3 3 3 3-1.343 3-3-1.343-3-3-3z"/></svg>