<svg id="Layer_1" viewBox="0 0 24 24" xmlns="http://www.w3.org/2000/svg" data-name="Layer 1"><path d="m20.5 0h-17c-1.93 0-3.5 1.57-3.5 3.5v20.5h24v-20.5c0-1.93-1.57-3.5-3.5-3.5zm.5 3.5v7h-7.5v-7.5h7c.275 0 .5.225.5.5zm-17.5-.5h7v7.5h-7.5v-7c0-.275.225-.5.5-.5zm-.5 10.5h7.5v7.5h-7.5zm10.5 7.5v-7.5h7.5v7.5zm-7.667-13.333-1.833-.917 1.833-.917.917-1.833.917 1.833 1.833.917-1.833.917-.917 1.833zm8.667-.917 1.833-.917.917-1.833.917 1.833 1.833.917-1.833.917-.917 1.833-.917-1.833zm-5 10.5-1.833.917-.917 1.833-.917-1.833-1.833-.917 1.833-.917.917-1.833.917 1.833zm8.667-.917 1.833.917-1.833.917-.917 1.833-.917-1.833-1.833-.917 1.833-.917.917-1.833z"/></svg>