<svg id="Layer_1" viewBox="0 0 24 24" xmlns="http://www.w3.org/2000/svg" data-name="Layer 1"><path d="m16 12h-2l2.95-2.883c.304-.304.796-.304 1.1 0l2.95 2.883h-2v3h-3zm-8-3h-3v3h-2l2.95 2.883c.304.304.796.304 1.1 0l2.95-2.883h-2zm-1.5 15h3v-1.6h-1.4v-1.551h1.4v-1.6h-1.4v-1.65h1.4v-1.6h-3v8zm5.6-8h-1.6v8h3.5v-1.6h-1.9zm4.5 0h-1.6v8h3v-1.6h-1.4zm-.6-9.6h-1.4v-6.4h-1.6v8h3zm-12 12.85h-1.4v-3.25h-1.6v8h1.6v-3.15h1.4v3.15h1.6v-8h-1.6zm-.4-14.4h1.4v3.15h1.6v-8h-1.6v3.25h-1.4v-3.25h-1.6v8h1.6zm19.4 13.45v3.4c0 1.269-1.031 2.3-2.3 2.3s-2.3-1.031-2.3-2.3v-3.4c0-1.269 1.031-2.3 2.3-2.3s2.3 1.031 2.3 2.3zm-1.6 0c0-.386-.314-.7-.7-.7s-.7.314-.7.7v3.4c0 .386.314.7.7.7s.7-.314.7-.7zm-13.9-12.6v-3.4c0-1.269 1.031-2.3 2.3-2.3s2.3 1.031 2.3 2.3v3.4c0 1.269-1.031 2.3-2.3 2.3s-2.3-1.031-2.3-2.3zm1.6 0c0 .386.314.7.7.7s.7-.314.7-.7v-3.4c0-.386-.314-.7-.7-.7s-.7.314-.7.7zm9.604 2.299h-1.704l1.211-6.418c.103-.58.404-1.079.821-1.356.226-.15.474-.225.724-.225.215 0 .432.056.637.168.454.246.798.791.918 1.459l1.188 6.373h-1.698l-.174-.999h-1.747l-.176.999zm.457-2.599h1.186l-.591-3.383z"/></svg>