<svg id="Layer_1" viewBox="0 0 24 24" xmlns="http://www.w3.org/2000/svg" data-name="Layer 1"><path d="m12.5 11c0 2.829 0 8.689-4.757 11.544l-1.544-2.572c3.301-1.981 3.301-6.347 3.301-8.972zm-4.5-.027c0-.206.021-.409.061-.606l-2.938-.603c-.081.395-.122.801-.122 1.208 0 2.514-.07 4.203-1.007 4.765-.245.147-.616.235-.993.235v3c.535 0 1.577-.086 2.537-.663 2.463-1.478 2.463-4.591 2.463-7.337zm11.5-4.973c0-.828-.672-1.5-1.5-1.5s-1.5.672-1.5 1.5.672 1.5 1.5 1.5 1.5-.672 1.5-1.5zm-3 7h3v-4h-3zm1.5-13c-3.309 0-6 2.692-6 6 0 2.215 1.21 4.149 3 5.188v-5.188c0-1.654 1.346-3 3-3s3 1.346 3 3v5.188c1.79-1.039 3-2.973 3-5.188 0-3.308-2.691-6-6-6zm-4 15c0 3.433-2.708 7.058-2.735 7.094l1.196.906 1.194.908c.137-.18 3.345-4.454 3.345-8.908zm2.892 7.061 2.708 1.292c1.409-2.954 1.987-5.94 2.227-8.353h-3.02c-.232 2.103-.749 4.618-1.915 7.061zm-10.156-15.31 2.132 2.11c.394-.398.882-.662 1.412-.792-.177-.661-.28-1.352-.28-2.069 0-.321.024-.636.061-.948-1.256.196-2.413.778-3.325 1.699zm-3.736 4.222c0-4.273 3.37-7.763 7.589-7.979.453-1.115 1.152-2.1 2.027-2.898-.531-.078-1.07-.123-1.616-.123-6.065 0-11 4.934-11 11v3h3z"/></svg>