<svg id="Layer_1" viewBox="0 0 24 24" xmlns="http://www.w3.org/2000/svg" data-name="Layer 1"><path d="m22 16v-13h-20v13h-2v2c0 1.657 1.343 3 3 3h18c1.657 0 3-1.343 3-3v-2zm-7.231 1h-5.538l-.923-1h-3.308v-10h14v10h-3.308zm.231-5h3v2h-3zm3-4v2h-3v-2zm-5.036.134-1.028.594c-.275-.235-.589-.419-.936-.543v-1.184h-2v1.184c-.347.124-.661.309-.936.543l-1.028-.594-1 1.732 1.019.589c-.033.177-.055.359-.055.545s.022.368.055.545l-1.019.589 1 1.732 1.028-.594c.275.235.589.419.936.543v1.184h2v-1.184c.347-.124.661-.309.936-.543l1.028.594 1-1.732-1.019-.589c.033-.177.055-.359.055-.545s-.022-.368-.055-.545l1.019-.589zm-2.964 3.866c-.552 0-1-.448-1-1s.448-1 1-1 1 .448 1 1-.448 1-1 1z"/></svg>