<svg id="Layer_1" viewBox="0 0 24 24" xmlns="http://www.w3.org/2000/svg" data-name="Layer 1"><path d="m7.448 10.933-1.387 1.441 1.651 1.766h.001c.454.478 1.215.481 1.674.007l2.613-2.698v4.551h-7v-7h6.633l-3.075 3.128zm12.052-.433 4.5 3.5v8c0 1.105-.895 2-2 2h-5c-1.105 0-2-.895-2-2v-8zm0 3.5c-.828.022-1.482.712-1.459 1.539.022.828.712 1.482 1.539 1.459.828-.022 1.482-.712 1.459-1.539-.022-.828-.712-1.482-1.539-1.459zm4.5-10.5v7.966l-3-2.333v-2.133h-18v12h10v3h-13v-18.5c0-1.93 1.57-3.5 3.5-3.5h17c1.93 0 3.5 1.57 3.5 3.5zm-18 0c0-.828-.672-1.5-1.5-1.5s-1.5.672-1.5 1.5.672 1.5 1.5 1.5 1.5-.672 1.5-1.5zm5 0c0-.828-.672-1.5-1.5-1.5s-1.5.672-1.5 1.5.672 1.5 1.5 1.5 1.5-.672 1.5-1.5z"/></svg>