<svg id="Layer_1" viewBox="0 0 24 24" xmlns="http://www.w3.org/2000/svg" data-name="Layer 1"><path d="m9.338 19.774 1.65 1.323-.903.903h-3.086v-3.086l1.084-1.084c.203.732.62 1.416 1.254 1.944zm1.018-4.12c-.643.771-.538 1.917.233 2.56l3.411 2.734v3.052h3v-5.266l-4.084-3.312c-.771-.643-1.917-.538-2.56.233zm-6.186-4.654-.926 3h-3.244l4-12c.673-1.531 1.642-2 3-2s2.327.469 3 2l2.772 8.315-2.41 2.41-.532-1.724h-5.66zm.926-3h3.807l-1.458-4.723c-.085-.173-.27-.275-.445-.277-.175.002-.36.104-.445.277l-1.458 4.723zm15.802 2.806c.222-.743.049-1.58-.538-2.167-.852-.852-2.234-.852-3.086 0l-4.507 4.507c.504.138.988.375 1.416.729l2.224 1.803 2.353-2.353 2.239 1.175v9.5h3v-11.623z"/></svg>