<svg id="Layer_1" viewBox="0 0 24 24" xmlns="http://www.w3.org/2000/svg" data-name="Layer 1"><path d="m10 16h4v3h-4zm9-12.303-1.954 7.327c.889 2.531 1.954 5.977 1.954 7.976 0 5-5.086 5-7 5s-7 0-7-5c0-1.999 1.065-5.445 1.954-7.976l-1.954-7.327c-.145-2.604 3.428-3.681 7-3.697 3.572.016 7.145 1.093 7 3.697zm-10.889.024.874 3.279h1.514v-2h3v2h1.514l.874-3.279c-.514-.286-1.807-.721-3.889-.721s-3.375.435-3.889.721zm7.889 15.279c0-1.961-1.585-6.532-2.524-9h-2.951c-.939 2.468-2.524 7.039-2.524 9 0 1.171.287 2 4 2s4-.829 4-2z"/></svg>