<svg id="Layer_1" viewBox="0 0 24 24" xmlns="http://www.w3.org/2000/svg" data-name="Layer 1"><path d="m22.669 15.646c.014.069.331 1.715.331 3.354 0 1.697-.591 3.395-.615 3.466-.146.42-.614.634-1.02.489-.417-.146-.636-.603-.49-1.02.003-.01.268-.782.42-1.737-.303.085-.64.135-1.027.135-1.77 0-2.667-.888-2.667-2.639.02-.839.219-1.984.228-2.032.077-.436.498-.72.926-.65.436.077.727.491.65.926-.002.011-.188 1.076-.204 1.775 0 .855.17 1.021 1.067 1.021s1.066-.166 1.066-1.04c-.088-.963-.233-1.73-.235-1.741-.084-.433.198-.854.632-.938.432-.083.854.198.938.632zm-13.539-.631c-.434.084-.716.505-.632.938.002.011.148.781.236 1.748 0 .868-.172 1.033-1.067 1.033s-1.067-.166-1.067-1.021c.017-.699.202-1.764.204-1.775.076-.435-.215-.85-.65-.926-.426-.07-.85.214-.926.65-.009.048-.208 1.193-.228 2.032 0 1.751.897 2.639 2.667 2.639.387 0 .724-.05 1.027-.135-.152.955-.415 1.727-.419 1.737-.146.417.074.874.49 1.02.406.145.873-.069 1.02-.49.025-.071.614-1.768.614-3.465 0-1.639-.317-3.284-.331-3.354-.084-.434-.508-.714-.938-.632zm7.67 3.985c0 1.094 0 4-2.7 4s-2.699-2.906-2.699-4 0-4 2.699-4 2.7 2.906 2.7 4zm-1.6 0c0-2.4-.61-2.4-1.101-2.4s-1.1 0-1.1 2.4.609 2.4 1.1 2.4 1.101 0 1.101-2.4zm7.643-11h-21.686c.28-2.844.842-5.117.873-5.243.083-.332.33-.598.654-.706.129-.043 3.224-1.051 9.316-1.051s9.187 1.008 9.316 1.051c.324.108.571.375.653.706.031.126.593 2.398.873 5.243zm-15.843-3.5c0-.83-.67-1.5-1.5-1.5s-1.5.67-1.5 1.5.67 1.5 1.5 1.5 1.5-.671 1.5-1.5zm4 0c0-.83-.67-1.5-1.5-1.5s-1.5.67-1.5 1.5.67 1.5 1.5 1.5 1.5-.671 1.5-1.5zm5.709 9.272c.618-.575 1.481-.88 2.367-.734.439.077.819.27 1.155.513.323-.238.697-.417 1.116-.499.548-.105 1.085-.039 1.565.152.054-.717.088-1.459.088-2.203 0-.335-.009-.668-.021-1h-21.958c-.012.332-.021.665-.021 1 0 4.076.988 8.074 1.03 8.242.083.332.33.599.654.706.039.013.35.113.923.247-.385-.695-.607-1.529-.607-2.501.024-1.07.258-2.377.26-2.39.261-1.491 1.711-2.513 3.217-2.266.439.077.818.27 1.155.512.323-.238.697-.417 1.116-.499.985-.188 1.94.165 2.576.842.975-.752 2.094-.894 2.776-.894.644 0 1.676.128 2.61.772z"/></svg>