<svg id="Layer_1" viewBox="0 0 24 24" xmlns="http://www.w3.org/2000/svg" data-name="Layer 1"><path d="m17.902 1.804c-.118-.033-2.925-.804-5.902-.804-3.571 0-6.019 1.094-6.121 1.14-.752.342-1.083 1.226-.744 1.979s1.226 1.089 1.98.754c.02-.009 2-.874 4.885-.874 1.338 0 2.666.188 3.631.369-.538 1.822-1.579 5.026-3.004 7.915-3.019 6.125-5.231 8.044-5.242 8.053-.642.523-.754 1.482-.214 2.11.823.957 1.832.442 2.11.215.27-.22 2.729-2.341 6.037-9.052 2.271-4.606 3.582-9.778 3.637-9.996.198-.789-.27-1.592-1.053-1.811z"/></svg>