<svg id="Layer_1" viewBox="0 0 24 24" xmlns="http://www.w3.org/2000/svg" data-name="Layer 1"><path d="m20.992 21.346c-1.281-12.423-7.61-19.554-7.879-19.852-.568-.629-1.657-.629-2.226 0-.269.298-6.599 7.429-7.879 19.852-.085.824.514 1.561 1.338 1.646.821.086 1.561-.514 1.646-1.338.132-1.278.323-2.497.558-3.654h10.899c.235 1.157.427 2.376.559 3.654.08.772.765 1.445 1.646 1.338.823-.099 1.423-.822 1.338-1.646zm-13.7-6.346c1.398-4.795 3.451-8.228 4.708-10.033 1.258 1.807 3.31 5.239 4.708 10.033z"/></svg>