<svg id="Layer_1" viewBox="0 0 24 24" xmlns="http://www.w3.org/2000/svg" data-name="Layer 1"><path d="m11.738 15.031c0 1.646-.511 1.77-1.289 1.77-.133 0-.261-.008-.374-.02-.035-.378-.075-.979-.075-1.75s.04-1.371.075-1.753c.113-.01.241-.017.374-.017.778 0 1.289.123 1.289 1.77zm-6.378.792h1.138c-.161-.702-.37-1.319-.569-1.79-.199.471-.408 1.089-.569 1.79zm9.64-.946c0 .888.239 1.724.658 2.443-.83.788-1.172 2.021-.771 3.171.051.145.123.279.186.417-.922.057-1.946.091-3.073.091-6.092 0-9.188-1.009-9.316-1.052-.324-.107-.571-.374-.654-.706-.042-.168-1.03-4.166-1.03-8.242 0-.335.009-.668.021-1h16.631c-.234.259-.427.554-.56.883-1.262.882-2.093 2.341-2.093 3.994zm-7.001 2.518c-.15-2.893-1.481-5.017-1.538-5.106-.23-.363-.834-.364-1.064 0-.057.089-1.387 2.213-1.537 5.105-.019.349.249.646.597.663.352.03.645-.248.663-.597.007-.13.029-.249.041-.376h1.539c.012.127.034.246.04.376.018.337.296.598.629.598.36.002.651-.303.631-.664zm5.001-2.364c0-1.302-.265-3.031-2.551-3.031-.564 0-1.048.095-1.068.099-.26.052-.46.261-.501.523-.006.037-.142.938-.142 2.409s.137 2.362.143 2.399c.04.256.231.461.484.518.021.005.512.114 1.084.114 2.286 0 2.551-1.729 2.551-3.031zm9.843-7.031h-21.686c.28-2.844.842-5.117.873-5.243.083-.332.33-.598.654-.706.129-.043 3.224-1.051 9.316-1.051s9.187 1.008 9.316 1.051c.324.108.571.375.653.706.031.126.593 2.398.873 5.243zm-15.843-3.5c0-.83-.67-1.5-1.5-1.5s-1.5.67-1.5 1.5.67 1.5 1.5 1.5 1.5-.671 1.5-1.5zm4 0c0-.83-.67-1.5-1.5-1.5s-1.5.67-1.5 1.5.67 1.5 1.5 1.5 1.5-.671 1.5-1.5zm12 14.372c0-1.724-1.401-3.127-3.179-3.127-.456-.007-.823-.414-.821-.868 0-.483.394-.877.877-.877.371 0 .703.235.827.585.184.52.755.794 1.276.608.521-.184.793-.755.608-1.276-.29-.819-.932-1.44-1.717-1.732v-.185c0-.553-.447-1-1-1s-1 .447-1 1v.191c-1.09.41-1.872 1.455-1.872 2.686 0 1.52 1.185 2.871 2.704 2.871.732 0 1.301.43 1.296 1.124 0 .622-.5 1.128-1.115 1.128-.531 0-1.057-.356-1.222-.83-.183-.521-.75-.795-1.274-.614-.521.183-.796.753-.614 1.274.349.998 1.208 1.754 2.226 2.04v.13c0 .553.447 1 1 1s1-.447 1-1v-.216c1.167-.452 2-1.583 2-2.912z"/></svg>