<svg id="Layer_1" viewBox="0 0 24 24" xmlns="http://www.w3.org/2000/svg" data-name="Layer 1"><path d="m23 18c0 .83-.67 1.5-1.5 1.5h-2v2c0 .83-.67 1.5-1.5 1.5s-1.5-.67-1.5-1.5v-2h-2c-.83 0-1.5-.67-1.5-1.5s.67-1.5 1.5-1.5h2v-2c0-.83.67-1.5 1.5-1.5s1.5.67 1.5 1.5v2h2c.83 0 1.5.67 1.5 1.5zm-15.7-7.89s-3.09 1.65-6.14 4.74c-.1-1.07-.17-2.21-.17-3.36.01-4.27.94-8.57.98-8.75.08-.38.38-.68.76-.76.18-.04 4.48-.97 8.76-.97s8.58.93 8.76.97c.38.08.68.38.76.76.04.18.97 4.48.97 8.76 0 1.03-.06 2.06-.14 3.04-.12-.01-.23-.04-.36-.04 0-1.93-1.57-3.5-3.5-3.5-1.51 0-2.79.97-3.28 2.32-2.7-1.73-5.62-2.98-6.68-3.28-.25-.07-.51-.04-.74.08zm4.7-3.11c0 1.99 1.01 3 3 3s3-1.01 3-3-1.01-3-3-3-3 1.01-3 3zm3 1c.88 0 1-.12 1-1s-.12-1-1-1-1 .12-1 1 .12 1 1 1zm-4 10c0-1.48.93-2.75 2.24-3.26-2.09-1.3-4.27-2.27-5.36-2.66-1.3.76-4.05 2.66-6.4 5.39.24 1.6.47 2.7.49 2.79.08.38.38.68.76.76.18.04 4.48.97 8.76.97 1.03 0 2.06-.06 3.04-.14-.01-.12-.04-.23-.04-.36-1.93 0-3.5-1.57-3.5-3.5z"/></svg>