<svg id="Layer_1" viewBox="0 0 24 24" xmlns="http://www.w3.org/2000/svg" data-name="Layer 1"><path d="m14 11c0 1.458-.542 2-2 2s-2-.542-2-2 .542-2 2-2 2 .542 2 2zm4.825 10.822c.053.291-.026.591-.216.818s-.471.359-.768.359h-11.682c-.296 0-.578-.132-.768-.359s-.269-.527-.216-.818c.783-4.322 4.27-4.822 6.825-4.822s6.042.5 6.825 4.822zm.821-13.62c-.089-.169-.188-.34-.294-.513 1.168-1.675.489-2.956-.294-3.74-.786-.785-2.068-1.468-3.74-.297-.169-.104-.333-.193-.454-.216-.29-1.594-1.28-2.437-2.864-2.437s-2.574.843-2.812 2.362c-.168.089-.337.186-.506.29-1.671-1.172-2.955-.487-3.74.297-.783.784-1.463 2.065-.294 3.74-.105.172-.197.338-.22.461-1.602.293-2.418 1.25-2.428 2.844v.012c.009 1.594.826 2.551 2.354 2.792.089.169.188.34.294.513-1.078 1.546-.58 2.751.118 3.545 1.485-1.884 3.89-2.855 7.234-2.855-2.58 0-4-1.421-4-4s1.42-4 4-4 4 1.421 4 4-1.42 4-4 4c3.344 0 5.749.971 7.234 2.855.698-.794 1.197-1.999.118-3.545.105-.172.197-.338.22-.461 1.602-.293 2.418-1.25 2.428-2.855-.009-1.594-.826-2.551-2.354-2.792z"/></svg>