<svg id="Layer_1" viewBox="0 0 24 24" xmlns="http://www.w3.org/2000/svg" data-name="Layer 1"><path d="m16 3c0-1.429.571-2 2-2s2 .571 2 2-.571 2-2 2-2-.571-2-2zm-4.5 4c1.429 0 2-.571 2-2s-.571-2-2-2-2 .571-2 2 .571 2 2 2zm-6.5 6c0-1.148.119-2.201.246-2.998-.026 0-.053-.002-.079-.002-1.311 0-2.918.253-2.983.264-.4.065-.721.366-.812.762-.015.065-.371 1.632-.371 3.475s.356 3.409.371 3.475c.076.331.318.587.629.703v2.823c0 .828.671 1.5 1.5 1.5s1.5-.672 1.5-1.5v-2.502c.455.01.98-.022 1.429-.059-.423-.385-.738-.891-.889-1.473-.055-.21-.54-2.146-.54-4.465zm17.53-5.903c-.091-.396-.412-.696-.812-.762-.083-.014-2.055-.335-3.718-.335s-3.635.321-3.718.335c-.4.065-.721.366-.812.762-.019.083-.47 2.066-.47 4.403s.451 4.32.47 4.403c.091.396.412.696.812.762.014.002.102.016.218.034v4.801c0 .828.671 1.5 1.5 1.5s1.5-.672 1.5-1.5v-4.511c.338.014.662.014 1 0v4.511c0 .828.671 1.5 1.5 1.5s1.5-.672 1.5-1.5v-4.801c.116-.018.203-.031.218-.034.4-.065.721-.366.812-.762.019-.083.47-2.066.47-4.403s-.451-4.32-.47-4.403zm-11.009 9.257c-.054-.235-.521-2.344-.521-4.854 0-1.363.138-2.596.272-3.486-1.471.057-2.901.272-2.973.283-.398.058-.722.349-.823.738-.02.075-.477 1.861-.477 3.965s.457 3.89.477 3.965c.074.285.269.516.523.642v3.893c0 .828.671 1.5 1.5 1.5s1.5-.672 1.5-1.5v-3.529c.518.028 1.021.038 1.539.017-.498-.41-.865-.974-1.018-1.635zm-6.521-11.354c-1.429 0-2 .571-2 2s.571 2 2 2 2-.571 2-2-.571-2-2-2z"/></svg>