<svg id="Layer_1" viewBox="0 0 24 24" xmlns="http://www.w3.org/2000/svg" data-name="Layer 1"><ellipse cx="8.186" cy="14.874" rx="1.925" ry="1.33"/><path d="m8.186 7.164c-5.304 0-7.186 4.128-7.186 7.662 0 3.515.726 6.107.757 6.215.071.25.243.459.474.575.113.057 2.789 1.384 5.955 1.384s5.842-1.326 5.955-1.383c.232-.116.404-.326.475-.578.031-.11.756-2.728.756-6.213 0-3.534-1.882-7.662-7.186-7.662zm0 11.04c-2.604 0-3.925-1.121-3.925-3.33s1.321-3.33 3.925-3.33 3.925 1.121 3.925 3.33-1.321 3.33-3.925 3.33z"/><path d="m12.105 5.912c.414-.115.718-.498.718-.952 0-.546-.438-.988-.979-.988h-.436c-.098-1.655-1.462-2.972-3.126-2.972-1.727 0-3.132 1.419-3.132 3.162v1.429c.905-.275 1.916-.427 3.036-.427 1.499 0 2.802.271 3.919.748z"/><circle cx="14.96" cy="6.505" r="1.5"/><circle cx="18.15" cy="4.53" r="1.5"/><circle cx="21.5" cy="2.55" r="1.5"/><circle cx="21.5" cy="6.5" r="1.5"/><circle cx="21.5" cy="10.46" r="1.5"/><circle cx="18.15" cy="8.48" r="1.5"/></svg>