<svg id="Layer_1" viewBox="0 0 24 24" xmlns="http://www.w3.org/2000/svg" data-name="Layer 1"><path d="m12 22c-3.914 0-7.122-.832-7.256-.868-.637-.149-.955-.953-.593-1.497 1.877-2.999 4.263-5.441 7.293-7.466.336-.225.775-.225 1.111 0 3.027 2.022 5.412 4.465 7.291 7.466.362.544.044 1.348-.593 1.497-.135.035-3.339.868-7.253.868zm10.202-18.372c-.102-.317-.355-.563-.676-.655-.138-.04-3.455-.973-9.526-.973s-9.388.933-9.526.973c-.321.092-.574.338-.676.655-.032.101-.798 2.526-.798 6.372s.766 6.271.798 6.372c.102.317.355.563.676.655.039.011.342.095.88.208 1.879-2.641 4.172-4.854 6.979-6.73 1.012-.675 2.32-.676 3.334 0 2.804 1.874 5.097 4.088 6.976 6.73.54-.113.843-.197.882-.209.321-.092.574-.338.676-.655.032-.101.798-2.526.798-6.372s-.766-6.271-.798-6.372z"/></svg>