<?xml version="1.0" encoding="UTF-8"?>
<svg xmlns="http://www.w3.org/2000/svg" id="Layer_1" data-name="Layer 1" viewBox="0 0 24 24">
  <path d="M19.695,17.727c.493-1.15,.758-2.522,.788-4.111-.085-4.865-2.546-7.773-6.983-8.319V2.923c0-.829-.671-1.5-1.5-1.5s-1.5,.671-1.5,1.5v2.372c-4.504,.547-6.983,3.511-6.983,8.32,0,1.582,.262,2.96,.77,4.12-1.761,.79-2.078,2.582-2.078,3.766,0,.829,.671,1.5,1.5,1.5s1.5-.671,1.5-1.5c0-1.032,.151-1.153,1.058-1.163,1.41,1.118,3.34,1.712,5.738,1.726,2.421-.014,4.345-.598,5.744-1.726,.891,.011,1.041,.138,1.041,1.163,0,.829,.671,1.5,1.5,1.5s1.5-.671,1.5-1.5c0-1.187-.318-2.988-2.095-3.774Zm-4.715-3.528h-1.961v1.802c0,.563-.457,1.02-1.02,1.02s-1.02-.457-1.02-1.02v-1.802h-1.961c-.563,0-1.02-.457-1.02-1.02s.457-1.02,1.02-1.02h1.961v-2.139c0-.563,.457-1.02,1.02-1.02s1.02,.457,1.02,1.02v2.139h1.961c.563,0,1.02,.457,1.02,1.02s-.457,1.02-1.02,1.02Z"/>
  <path d="M3.801,6.517c.715-1.246,1.828-2.116,3.307-2.587,.79-.251,1.226-1.095,.974-1.884s-1.095-1.228-1.884-.974c-2.185,.695-3.913,2.062-4.999,3.951-.413,.718-.173,1.65,.554,2.048,.939,.514,1.771-.071,2.048-.554Z"/>
  <path d="M22.8,5.023c-1.085-1.89-2.814-3.256-4.999-3.951-.79-.253-1.633,.185-1.884,.974s.185,1.633,.974,1.884c1.479,.471,2.592,1.341,3.307,2.587,.277,.483,1.109,1.068,2.048,.554,.727-.398,.966-1.33,.554-2.048Z"/>
</svg>
