<?xml version="1.0" encoding="UTF-8"?>
<svg xmlns="http://www.w3.org/2000/svg" id="Layer_1" data-name="Layer 1" viewBox="0 0 24 24">
  <path d="m3.807,6.321c.623-1.106,1.59-1.878,2.874-2.295.788-.256,1.219-1.102.963-1.89-.256-.788-1.104-1.216-1.89-.963-1.994.648-3.571,1.919-4.561,3.677-.406.722-.151,1.636.571,2.043.232.131.485.193.734.193.524,0,1.033-.275,1.309-.765Z"/>
  <path d="m22.807,4.85c-.99-1.758-2.567-3.029-4.561-3.677-.786-.253-1.634.175-1.89.963-.256.788.175,1.634.963,1.89,1.284.417,2.25,1.189,2.874,2.295.275.489.785.765,1.309.765.249,0,.502-.062.734-.193.722-.407.978-1.321.571-2.043Z"/>
  <path d="m19.421,18.304c.723-1.295,1.117-2.917,1.153-4.87-.086-4.934-2.579-7.878-7.074-8.427v-2.486c0-.829-.671-1.5-1.5-1.5s-1.5.671-1.5,1.5v2.481c-4.546.529-7.073,3.557-7.073,8.431,0,1.927.398,3.559,1.152,4.87l-2.139,2.134c-.586.585-.587,1.535-.002,2.122.293.293.678.44,1.062.44s.767-.146,1.06-.438l2.055-2.05c1.382.95,3.187,1.465,5.392,1.478,2.225-.013,4.026-.51,5.4-1.457l2.035,2.03c.293.292.676.438,1.06.438s.769-.147,1.062-.44c.585-.586.584-1.537-.002-2.122l-2.139-2.134Zm-5.228-2.605c-.199.201-.46.301-.721.301-.257,0-.515-.097-.713-.292l-1.472-1.454c-.192-.19-.3-.448-.3-.719v-3.682c0-.56.454-1.013,1.014-1.013s1.014.454,1.014,1.013v3.257l1.17,1.155c.399.393.403,1.035.009,1.433Z"/>
</svg>
