<svg id="Layer_1" viewBox="0 0 24 24" xmlns="http://www.w3.org/2000/svg" data-name="Layer 1"><path d="m14.491 21.518c.001.486.104.949.285 1.37-.901.068-1.838.112-2.776.112-4.501 0-9.024-.981-9.214-1.023-.381-.083-.679-.381-.762-.762-.042-.19-1.023-4.714-1.023-9.215s.98-9.024 1.022-9.215c.083-.381.381-.679.762-.762.19-.042 4.713-1.023 9.214-1.023s9.024.981 9.215 1.023c.381.083.679.381.762.762.042.19 1.023 4.714 1.023 9.215 0 .944-.045 1.886-.113 2.792-.428-.186-.899-.292-1.396-.292h-.018s0 0 0 0c-.004-1.573-1.059-2.89-2.498-3.326-.241-4.26-2.42-6.174-6.976-6.174-4.841 0-7 2.159-7 7 0 4.547 1.906 6.728 6.15 6.975.419 1.459 1.751 2.537 3.341 2.541zm-2.491-14.517c3.445 0 4.784 1.077 4.973 4.17-.552.165-1.063.45-1.481.871-.659.662-1.021 1.542-1.019 2.477v.002c-.928.007-1.799.371-2.455 1.03-.402.404-.678.894-.843 1.424-3.097-.188-4.175-1.527-4.175-4.973 0-3.738 1.262-5 5-5zm0 4c-.552 0-1 .448-1 1s.448 1 1 1 1-.448 1-1-.448-1-1-1zm9.5 5.5h-.004l-2.017.005-.005-2c-.002-.827-.673-1.496-1.5-1.496h-.004c-.828.002-1.498.676-1.496 1.504l.005 2-1.983.005c-.828.002-1.498.676-1.496 1.504.002.827.673 1.496 1.5 1.496h.004l1.982-.005.005 2c.002.827.673 1.496 1.5 1.496h.004c.828-.002 1.498-.676 1.496-1.504l-.005-2 2.018-.005c.828-.002 1.498-.676 1.496-1.504-.002-.827-.673-1.496-1.5-1.496z"/></svg>