<?xml version="1.0" encoding="UTF-8"?>
<svg xmlns="http://www.w3.org/2000/svg" id="Layer_1" data-name="Layer 1" viewBox="0 0 24 24">
  <path d="M21.533,16.294c-.218-.413-.539-.746-.921-.969,.88-.579,1.199-1.691,.742-2.597h0c-.492-.975-1.251-1.816-1.971-2.426,.2-.065,.36-.119,.395-.133,1.22-.487,1.906-1.782,1.595-3.011-.317-1.261-1.464-2.015-2.782-1.836-1.172,.16-3.592,.91-4.856,1.318,.079-.263,.195-.528,.359-.7l.78-.815c.837-.874,.949-2.227,.261-3.147-.431-.576-1.082-.932-1.788-.975-.706-.045-1.371,.221-1.852,.723l-1.444,1.511c-.793,.755-1.228,1.871-1.464,2.809-.543-1.038-1.721-1.592-2.788-1.293-.677,.189-1.232,.66-1.523,1.292-.294,.64-.291,1.375,.017,2.034,.809,1.577,1.229,2.395,1.447,2.819l-3.043,1.543c-.12,.061-.211,.168-.251,.297-.028,.09-.68,2.25,.188,5.208,.917,3.13,3.2,4.578,3.297,4.638,.116,.072,.257,.093,.388,.06l2.971-.761,4.912,.992c.411,.083,.822,.124,1.229,.124,2.242,0,4.34-1.227,5.457-3.287l.654-1.207c.367-.677,.364-1.504-.008-2.213Zm-4.252,.322s-.888,1.362-2.195,1.264c-.741-.056-2.565-.317-2.351-2.512,.193-1.982,1.833-2.044,2.288-2.044,.718,0,1.425,.31,1.89,.891,.504,.632,1.023,1.025,1.521,1.241-.309,.257-.663,.636-1.153,1.16Z"/>
</svg>
