<svg id="Layer_1" viewBox="0 0 24 24" xmlns="http://www.w3.org/2000/svg" data-name="Layer 1"><path d="m22.99 11.519c0 8.053-3.287 11.49-10.99 11.49s-10.99-3.436-10.99-11.49c0-.451.203-.878.553-1.163s.81-.397 1.251-.304c.018.003.758.157 1.925.34.818.129 1.376.896 1.248 1.713-.129.818-.9 1.371-1.713 1.248-.069-.011-.137-.022-.203-.032.347 4.467 2.153 6.309 6.43 6.632v-5.913c-.358-.014-.719-.029-1.091-.052-.826-.051-1.455-.762-1.404-1.587s.758-1.446 1.587-1.404c.312.019.609.031.907.043v-2.206c-1.668-.437-2.498-1.685-2.498-3.809 0-2.689 1.307-3.996 3.996-3.996s3.996 1.307 3.996 3.996c0 2.124-.83 3.373-2.498 3.809v2.206c.298-.012.595-.024.907-.043.84-.053 1.537.579 1.587 1.404.051.826-.578 1.537-1.404 1.587-.372.023-.733.038-1.091.052v5.913c4.278-.323 6.083-2.165 6.43-6.632-.065.01-.134.021-.203.032-.812.128-1.584-.431-1.712-1.248-.129-.818.43-1.585 1.248-1.713 1.167-.183 1.906-.337 1.925-.34.44-.094.901.019 1.251.304.35.284.553.711.553 1.163z"/></svg>