<?xml version="1.0" encoding="UTF-8"?>
<svg xmlns="http://www.w3.org/2000/svg" id="Layer_1" data-name="Layer 1" viewBox="0 0 24 24">
  <path d="M22.065,6.46c-.707-2.091-2.386-3.758-4.492-4.459-3.697-1.232-7.449-1.232-11.146,0-2.106,.701-3.785,2.368-4.492,4.459-1.243,3.676-1.243,7.404,0,11.08,.707,2.091,2.386,3.758,4.492,4.459,1.849,.616,3.711,.924,5.573,.924s3.725-.308,5.573-.924c2.106-.701,3.785-2.368,4.492-4.459,1.243-3.676,1.243-7.404,0-11.08Zm-5.414,4.624c-1.32,4.056-4.348,4.639-4.477,4.661-.058,.011-.116,.016-.175,.016s-.117-.005-.175-.016c-.129-.022-3.156-.605-4.477-4.661-.171-.525,.116-1.09,.642-1.261,.522-.172,1.09,.117,1.261,.642,.773,2.377,2.247,3.083,2.751,3.26,.507-.176,1.971-.874,2.747-3.26,.171-.524,.736-.812,1.261-.642,.525,.171,.812,.735,.642,1.261Z"/>
</svg>
