<svg id="Layer_1" viewBox="0 0 24 24" xmlns="http://www.w3.org/2000/svg" data-name="Layer 1"><path d="m21.821 21.965c-.192.042-4.767 1.035-9.321 1.035s-9.129-.993-9.321-1.035c-.572-.125-1.019-.572-1.144-1.144-.043-.193-1.035-4.767-1.035-9.322s.992-9.128 1.035-9.321c.177-.809.979-1.32 1.786-1.143.879.194 1.367 1.087 1.11 1.946.808.067 1.611.17 2.397.347.809.181 1.316.983 1.136 1.792-.179.813-1.005 1.319-1.792 1.135-.734-.164-1.487-.251-2.244-.301-.222 1.587-.428 3.585-.428 5.546 0 3.044.497 6.189.777 7.722 1.533.281 4.679.778 7.723.778 1.961 0 3.959-.207 5.546-.428-.05-.757-.136-1.51-.301-2.243-.181-.809.327-1.611 1.136-1.792.811-.18 1.611.328 1.792 1.136.176.786.278 1.588.346 2.396.86-.254 1.754.232 1.946 1.111.178.809-.334 1.609-1.144 1.787zm-11.07-14.119c.467.269.925.568 1.361.888.661.486 1.604.35 2.097-.322.49-.668.347-1.606-.321-2.097-.525-.385-1.077-.745-1.639-1.069-.718-.413-1.636-.169-2.049.551-.413.718-.167 1.635.551 2.049zm5.445 5.477c.412.727 1.339.968 2.046.562.72-.41.972-1.326.562-2.046-.34-.597-.717-1.178-1.119-1.726-.491-.669-1.43-.811-2.097-.321-.668.49-.812 1.429-.321 2.097.334.455.646.938.93 1.435z"/></svg>