<?xml version="1.0" encoding="UTF-8"?>
<svg xmlns="http://www.w3.org/2000/svg" id="Layer_1" data-name="Layer 1" viewBox="0 0 24 24">
  <path d="M6.46,1.935c-2.091,.707-3.758,2.386-4.459,4.492-1.232,3.697-1.232,7.449,0,11.146,.701,2.106,2.368,3.785,4.459,4.492,3.676,1.243,7.404,1.243,11.08,0,2.091-.707,3.758-2.386,4.459-4.492,.616-1.849,.924-3.711,.924-5.573s-.308-3.725-.924-5.573c-.701-2.106-2.368-3.785-4.459-4.492-3.676-1.243-7.404-1.243-11.08,0Zm4.624,5.414c4.056,1.32,4.639,4.348,4.661,4.477,.011,.058,.016,.116,.016,.175s-.005,.117-.016,.175c-.022,.129-.605,3.156-4.661,4.477-.525,.171-1.09-.116-1.261-.642-.172-.522,.117-1.09,.642-1.261,2.377-.773,3.083-2.247,3.26-2.751-.176-.507-.874-1.971-3.26-2.747-.524-.171-.812-.736-.642-1.261,.171-.525,.735-.812,1.261-.642Z"/>
</svg>
