<?xml version="1.0" encoding="UTF-8"?>
<svg xmlns="http://www.w3.org/2000/svg" id="Layer_1" data-name="Layer 1" viewBox="0 0 24 24">
  <path d="M21.858,3.279c-.138-.526-.55-.937-1.077-1.072C14.955,.703,9.045,.703,3.218,2.207c-.527,.136-.938,.546-1.077,1.072-1.516,5.786-1.516,11.655,0,17.441,.138,.526,.55,.937,1.077,1.072,2.914,.752,5.848,1.127,8.782,1.127s5.868-.375,8.782-1.127c.527-.136,.938-.546,1.077-1.072,1.516-5.786,1.516-11.655,0-17.441Zm-5.208,7.433c-1.319,4.056-4.347,4.639-4.476,4.661-.058,.011-.117,.016-.175,.016s-.117-.005-.175-.016c-.128-.022-3.156-.605-4.476-4.661-.171-.525,.116-1.09,.641-1.261,.526-.168,1.09,.117,1.26,.642,.773,2.377,2.247,3.083,2.751,3.26,.507-.176,1.971-.874,2.748-3.26,.171-.524,.735-.81,1.26-.642,.525,.171,.812,.735,.641,1.261Z"/>
</svg>
