<?xml version="1.0" encoding="UTF-8"?>
<svg xmlns="http://www.w3.org/2000/svg" id="Layer_1" data-name="Layer 1" viewBox="0 0 24 24">
  <path d="M3.28,2.142c-.526,.138-.937,.55-1.072,1.077-1.504,5.827-1.504,11.736,0,17.563,.136,.527,.546,.938,1.072,1.077,5.786,1.516,11.655,1.516,17.441,0,.526-.138,.937-.55,1.072-1.077,.752-2.914,1.127-5.848,1.127-8.782s-.375-5.868-1.127-8.782c-.136-.527-.546-.938-1.072-1.077C14.935,.625,9.066,.625,3.28,2.142Zm7.433,5.208c4.056,1.319,4.639,4.347,4.661,4.476,.011,.058,.016,.117,.016,.175s-.005,.117-.016,.175c-.022,.128-.605,3.156-4.661,4.476-.525,.171-1.09-.116-1.261-.641-.168-.526,.117-1.09,.642-1.26,2.377-.773,3.083-2.247,3.26-2.751-.176-.507-.874-1.971-3.26-2.748-.524-.171-.81-.735-.642-1.26,.171-.525,.735-.812,1.261-.641Z"/>
</svg>
