<?xml version="1.0" encoding="UTF-8"?>
<svg xmlns="http://www.w3.org/2000/svg" id="Layer_1" data-name="Layer 1" viewBox="0 0 24 24">
  <path d="M12.001,18.591c-.206,0-.403-.042-.583-.117-.604-.245-6.104-2.661-10.257-10.889-.374-.739-.077-1.642,.663-2.015,.738-.373,1.642-.077,2.015,.663,3.011,5.964,6.774,8.439,8.162,9.191,1.38-.749,5.147-3.224,8.161-9.191,.374-.74,1.277-1.035,2.015-.663,.74,.373,1.036,1.275,.663,2.015-4.115,8.152-9.552,10.599-10.24,10.881-.184,.081-.386,.125-.598,.125Z"/>
</svg>
