<?xml version="1.0" encoding="UTF-8"?>
<svg xmlns="http://www.w3.org/2000/svg" id="Layer_1" data-name="Layer 1" viewBox="0 0 24 24">
  <path d="M16.006,11.802c-.758-.341-1.644,0-1.981,.757-.496,1.108-1.4,1.909-2.024,2.361-.626-.454-1.529-1.253-2.024-2.361-.338-.757-1.226-1.097-1.981-.757-.756,.338-1.095,1.225-.757,1.981,1.249,2.793,3.972,4.19,4.087,4.248,.212,.107,.443,.16,.675,.16s.462-.053,.675-.16c.115-.058,2.84-1.455,4.088-4.248,.338-.756,0-1.644-.757-1.981Z"/>
  <path d="M11.175,12.082c.25,.165,.537,.247,.824,.247s.574-.082,.824-.247c.088-.058,2.179-1.455,3.389-4.162,.338-.756,0-1.644-.757-1.981-.758-.34-1.644,0-1.981,.757-.424,.948-1.004,1.672-1.476,2.157-.47-.483-1.047-1.206-1.473-2.157-.338-.756-1.226-1.096-1.981-.757-.756,.338-1.095,1.225-.757,1.981,1.21,2.707,3.3,4.103,3.388,4.162Z"/>
</svg>
