<?xml version="1.0" encoding="UTF-8"?>
<svg xmlns="http://www.w3.org/2000/svg" id="Layer_1" data-name="Layer 1" viewBox="0 0 24 24">
  <path d="M11.819,1.168C4.755,1.212,.826,5.195,.826,12.15s3.933,10.977,11.006,11.018c7.162-.042,10.861-3.737,10.994-11.017-.122-7.037-4.026-10.938-11.006-10.983ZM6.239,9.424c.004-.55,.45-.994,1-.994h.006c1.875,.012,3.014,1.146,3.048,3.035,.01,.552-.43,1.018-.982,1.018-.383,0-.984-.258-1.018-.982-.037-.805-.271-1.066-1.06-1.071-.553-.003-.998-.454-.994-1.006Zm10.844,8.477c-.595,.578-1.22,.201-1.415,.009-2.473-2.442-4.806-2.44-7.345,.008-.397,.383-1.03,.373-1.414-.025-.384-.397-.372-1.03,.025-1.414,3.303-3.188,6.903-3.187,10.14,.008,.393,.388,.405,1.029,.009,1.414Zm-.316-7.47c-.788,.005-1.022,.266-1.06,1.071-.034,.724-.634,.982-1.018,.982-.553,0-.992-.466-.982-1.018,.034-1.889,1.173-3.023,3.048-3.035h.006c.55,0,.996,.443,1,.994,.004,.552-.441,1.003-.994,1.006Z"/>
</svg>
