<svg id="Layer_1" viewBox="0 0 24 24" xmlns="http://www.w3.org/2000/svg" data-name="Layer 1"><path d="m18.077 13.115c-.073-.03-1.351-.545-3.374-.835 1.069-1.745 2.298-4.198 2.298-6.28 0-3.318-1.682-5-5-5s-5 1.682-5 5c0 2.083 1.228 4.536 2.298 6.28-2.023.29-3.302.805-3.374.835-.763.318-1.122 1.191-.808 1.955s1.189 1.127 1.956.816c.016-.006 1.354-.531 3.429-.726v6.34c0 .829.671 1.5 1.5 1.5s1.5-.671 1.5-1.5v-6.34c2.8.287 2.993.735 4 .84.587 0 1.145-.348 1.385-.924.318-.765-.043-1.643-.808-1.961zm-6.077-9.115c1.664 0 2 .336 2 2 0 1.314-.987 3.321-2 4.945-1.013-1.624-2-3.63-2-4.945 0-1.664.336-2 2-2z"/></svg>