<svg id="Layer_1" viewBox="0 0 24 24" xmlns="http://www.w3.org/2000/svg" data-name="Layer 1"><path d="m21.797 2.707c-.109-.322-.375-.566-.705-.648-.173-.043-4.287-1.058-9.092-1.058s-8.92 1.014-9.093 1.057c-.33.083-.595.327-.704.648-.049.145-1.204 3.597-1.204 8.233 0 4.796 1.162 8.108 1.211 8.247.115.322.386.563.72.639.132.03 3.125.707 5.958.926.912.991 2.431 2.245 3.194 2.245.687 0 2.168-1.277 3.029-2.245 2.833-.219 5.826-.896 5.959-.926.335-.077.607-.32.722-.645.049-.141 1.208-3.51 1.208-8.241 0-4.636-1.154-8.088-1.203-8.233zm-7.297 13.293c-.553 0-1.001-.449-1-1.002 0-.005-.005-.351-.103-.998h-2.793c-.099.647-.103.995-.103 1.001-.003.551-.451.997-1.001.996-.551 0-.997-.444-.999-.995 0-.067.005-1.67.879-4.458.841-2.685 1.703-3.975 1.798-4.113.374-.541 1.272-.541 1.646 0 .095.138.957 1.429 1.798 4.113.873 2.788.879 4.39.879 4.457 0 .552-.449.998-1 .998zm-1.787-4.857c.095.302.177.588.251.857h-1.927c.073-.269.156-.555.251-.857.249-.792.494-1.441.713-1.958.219.518.464 1.167.713 1.958z"/></svg>