<svg id="Layer_1" viewBox="0 0 24 24" xmlns="http://www.w3.org/2000/svg" data-name="Layer 1"><path d="m20.306 5.081c-.806-.081-1.578-.136-2.306-.162v-.708c0-1.507-1.126-2.787-2.618-2.977-1.214-.155-2.353-.234-3.382-.234s-2.167.079-3.381.234c-1.493.189-2.619 1.47-2.619 2.977v4.308c-.723.027-1.495.081-2.306.162-1.536.155-2.694 1.438-2.694 2.985v9.334c0 .409.249.776.628.929.109.044 2.767 1.071 10.372 1.071s10.262-1.027 10.372-1.071c.379-.152.628-.52.628-.929v-12.934c0-1.548-1.159-2.831-2.694-2.985zm-13.306 13.919h-1c-.552 0-1-.447-1-1s.448-1 1-1h1c.552 0 1 .447 1 1s-.448 1-1 1zm0-4h-1c-.552 0-1-.447-1-1s.448-1 1-1h1c.552 0 1 .447 1 1s-.448 1-1 1zm5.5 4h-1c-.552 0-1-.447-1-1s.448-1 1-1h1c.552 0 1 .447 1 1s-.448 1-1 1zm0-4h-1c-.552 0-1-.447-1-1s.448-1 1-1h1c.552 0 1 .447 1 1s-.448 1-1 1zm0-4h-1c-.552 0-1-.447-1-1s.448-1 1-1h1c.552 0 1 .447 1 1s-.448 1-1 1zm0-4h-1c-.552 0-1-.447-1-1s.448-1 1-1h1c.552 0 1 .447 1 1s-.448 1-1 1zm5.5 12h-1c-.552 0-1-.447-1-1s.448-1 1-1h1c.552 0 1 .447 1 1s-.448 1-1 1zm0-4h-1c-.552 0-1-.447-1-1s.448-1 1-1h1c.552 0 1 .447 1 1s-.448 1-1 1zm0-4h-1c-.552 0-1-.447-1-1s.448-1 1-1h1c.552 0 1 .447 1 1s-.448 1-1 1z"/></svg>