<svg id="Layer_1" viewBox="0 0 24 24" xmlns="http://www.w3.org/2000/svg" data-name="Layer 1"><path d="m2.836 6.469c2.089-.408 5.604-.969 9.164-.969s7.075.56 9.163.969l.806-3.226c.066-.266.021-.546-.125-.777s-.381-.392-.648-.446c-.208-.042-5.144-1.02-9.196-1.02s-8.988.978-9.196 1.02c-.268.054-.502.215-.649.446-.146.231-.191.512-.125.777z"/><path d="m21.5 20h-.07c.275-1.569.57-3.773.57-6 0-2.44-1-5.5-1-5.5s-4.5-1-9-1-9 1-9 1-1 3.06-1 5.5c0 2.227.295 4.431.569 6h-.069c-.829 0-1.5.671-1.5 1.5s.671 1.5 1.5 1.5h5.5c.552 0 1-.448 1-1v-8c0-1.654 1.346-3 3-3s3 1.346 3 3v8c0 .552.447 1 1 1h5.5c.828 0 1.5-.671 1.5-1.5s-.672-1.5-1.5-1.5z"/></svg>