<?xml version="1.0" encoding="UTF-8"?>
<svg xmlns="http://www.w3.org/2000/svg" id="Layer_1" data-name="Layer 1" viewBox="0 0 24 24">
  <path d="M19.523,12.822c-.737-.372-1.641-.077-2.015,.663-1.314,2.603-2.825,4.257-4.01,5.26V2.5c0-.829-.671-1.5-1.5-1.5s-1.5,.671-1.5,1.5V18.742c-1.185-1.004-2.695-2.657-4.008-5.257-.374-.739-1.277-1.035-2.015-.663-.739,.373-1.036,1.275-.663,2.015,3.082,6.104,7.172,7.874,7.629,8.055,.178,.071,.368,.107,.557,.107,.182,0,.364-.033,.536-.099,.181-.069,4.475-1.771,7.651-8.063,.373-.74,.077-1.642-.663-2.015Z"/>
</svg>
