<svg id="Layer_1" viewBox="0 0 24 24" xmlns="http://www.w3.org/2000/svg" data-name="Layer 1"><path d="m5 19c0 1.429-.571 2-2 2s-2-.571-2-2 .571-2 2-2 2 .571 2 2zm16-2c-1.429 0-2 .571-2 2s.571 2 2 2 2-.571 2-2-.571-2-2-2zm0-10c1.429 0 2-.571 2-2s-.571-2-2-2-2 .571-2 2 .571 2 2 2zm-7.4 8.2c-.303-.229-.708-.264-1.047-.095-.339.17-.553.516-.553.895v1.5h-3.5c-.829 0-1.5.672-1.5 1.5s.671 1.5 1.5 1.5h3.5v1.5c0 .379.214.725.553.895.337.168.743.134 1.047-.095 1.213-.909 2.29-1.985 3.2-3.2.267-.355.267-.844 0-1.199-.911-1.215-1.987-2.291-3.2-3.2zm5.858-1.079c.344.762 1.25 1.084 1.986.744.754-.343 1.087-1.232.744-1.986-1.082-2.379-3.671-2.379-4.521-2.379l-11.667-.002c-1.664 0-2-.337-2-2s.336-2 2-2h6v1.502c0 .379.214.725.553.895.337.168.743.134 1.047-.095 1.213-.909 2.29-1.985 3.2-3.2.267-.355.267-.844 0-1.199-.911-1.215-1.987-2.291-3.2-3.2-.303-.229-.708-.264-1.047-.095-.339.17-.553.516-.553.895v1.5h-6c-3.318-.001-5 1.681-5 4.999s1.682 5 5 5l11.667.002c1.509 0 1.7.42 1.792.621z"/></svg>