<svg id="Layer_1" viewBox="0 0 24 24" xmlns="http://www.w3.org/2000/svg" data-name="Layer 1"><path d="m13.021 9.354c.013-.063.334-1.563 1.738-3.982 1.311-2.26 2.369-3.279 2.568-3.46.382-.35.966-.35 1.348 0 .199.181 1.257 1.2 2.568 3.46 1.404 2.419 1.725 3.919 1.738 3.982.103.496-.183.99-.664 1.15-.061.021-1.52.496-4.316.496s-4.255-.476-4.316-.496c-.481-.16-.766-.654-.664-1.15zm9.556 4.833c-.075-.345-.326-.623-.66-.734-.139-.047-1.426-.452-3.917-.452s-3.778.405-3.917.452c-.334.111-.585.39-.66.734-.018.078-.423 1.949-.423 3.813s.406 3.735.423 3.813c.075.345.326.623.66.734.139.047 1.426.452 3.917.452s3.778-.405 3.917-.452c.334-.111.585-.39.66-.734.018-.078.423-1.949.423-3.813s-.406-3.735-.423-3.813zm-12.176 2.613c-.662-.496-1.603-.362-2.1.3-.25.334-.526.645-.8.957v-15.557c0-.828-.671-1.5-1.5-1.5s-1.5.672-1.5 1.5v15.557c-.275-.312-.55-.624-.8-.957-.497-.662-1.437-.795-2.1-.3-.663.498-.796 1.438-.299 2.101 1.082 1.441 2.36 2.72 3.8 3.8.533.4 1.267.4 1.8 0 1.44-1.08 2.718-2.358 3.8-3.8.497-.663.363-1.603-.299-2.101z"/></svg>