<svg id="Layer_1" viewBox="0 0 24 24" xmlns="http://www.w3.org/2000/svg" data-name="Layer 1"><path d="m15.323 7.914c-.014-.06-.323-1.489-.323-2.914s.31-2.854.323-2.914c.075-.345.326-.624.661-.735.107-.035 1.108-.351 3.016-.351s2.908.315 3.016.351c.335.111.586.391.661.735.014.06.323 1.489.323 2.914s-.31 2.854-.323 2.914c-.075.345-.326.624-.661.735-.107.035-1.108.351-3.016.351s-2.908-.315-3.016-.351c-.335-.111-.586-.391-.661-.735zm6.593 5.538c-.139-.047-1.425-.452-3.916-.452s-3.777.405-3.916.452c-.334.111-.585.39-.66.733-.018.079-.424 1.95-.424 3.814s.406 3.735.424 3.814c.075.344.326.622.66.733.139.047 1.425.452 3.916.452s3.777-.405 3.916-.452c.334-.111.585-.39.66-.733.018-.079.424-1.95.424-3.814s-.406-3.735-.424-3.814c-.075-.344-.326-.622-.66-.733zm-11.516 3.348c-.663-.495-1.603-.362-2.101.3-.25.333-.525.645-.8.957v-15.557c0-.828-.672-1.5-1.5-1.5s-1.5.672-1.5 1.5v15.556c-.275-.312-.55-.623-.8-.957-.497-.662-1.438-.795-2.101-.3-.662.498-.797 1.438-.3 2.101 1.081 1.44 2.359 2.719 3.8 3.8.534.4 1.267.4 1.801 0 1.44-1.081 2.719-2.359 3.8-3.8.497-.663.362-1.603-.3-2.101z"/></svg>