<?xml version="1.0" encoding="UTF-8"?>
<svg xmlns="http://www.w3.org/2000/svg" id="Layer_1" data-name="Layer 1" viewBox="0 0 24 24">
  <path d="M21.806,2.858c-.1-.325-.358-.578-.686-.67-.172-.049-4.272-1.188-9.121-1.188S3.052,2.139,2.88,2.188c-.329,.093-.588,.347-.687,.674-.049,.161-1.193,4.007-1.193,9.139,0,5.175,1.146,8.982,1.194,9.142,.1,.325,.358,.578,.686,.67,.172,.049,4.272,1.188,9.121,1.188s8.948-1.139,9.12-1.188c.329-.093,.588-.347,.687-.674,.049-.161,1.193-4.007,1.193-9.139,0-5.175-1.146-8.982-1.194-9.142Zm-5.722,9.28c-.776,3.206-2.982,5.225-3.425,5.604-.025,.022-.586,.532-1.287,.036-.113-.08-2.667-2.151-3.47-5.579-.1-.426,.089-.867,.466-1.089,.059-.035,1.214-.708,2.626-.961v-3.154c0-.552,.448-1,1-1s1,.448,1,1v3.143c1.396,.231,2.543,.857,2.602,.89,.394,.218,.594,.672,.488,1.11Z"/>
</svg>
