<svg id="Layer_1" viewBox="0 0 24 24" xmlns="http://www.w3.org/2000/svg" data-name="Layer 1"><path d="m18.755 7.179c.454.693.259 1.623-.434 2.076-.684.45-1.62.264-2.077-.434-.799-1.222-1.723-2.301-2.745-3.251v10.929c0 .828-.671 1.5-1.5 1.5s-1.5-.672-1.5-1.5v-10.928c-1.022.95-1.946 2.029-2.745 3.251-.453.693-1.382.889-2.077.434-.693-.453-.888-1.383-.434-2.076 1.595-2.438 3.596-4.438 5.947-5.942.493-.314 1.124-.314 1.617 0 2.351 1.504 4.352 3.504 5.947 5.942zm-6.755 12.821c-.828 0-1.5.672-1.5 1.5s.672 1.5 1.5 1.5 1.5-.672 1.5-1.5-.672-1.5-1.5-1.5zm5 0c-.828 0-1.5.672-1.5 1.5s.672 1.5 1.5 1.5 1.5-.672 1.5-1.5-.672-1.5-1.5-1.5zm4.5 0c-.828 0-1.5.672-1.5 1.5s.672 1.5 1.5 1.5 1.5-.672 1.5-1.5-.672-1.5-1.5-1.5zm-14.5 0c-.828 0-1.5.672-1.5 1.5s.672 1.5 1.5 1.5 1.5-.672 1.5-1.5-.672-1.5-1.5-1.5zm-4.5 0c-.828 0-1.5.672-1.5 1.5s.672 1.5 1.5 1.5 1.5-.672 1.5-1.5-.672-1.5-1.5-1.5z"/></svg>