<svg id="Layer_1" viewBox="0 0 24 24" xmlns="http://www.w3.org/2000/svg" data-name="Layer 1"><path d="m23 12c0 4.644-1 8.825-1.042 9-.121.5-.489.903-.977 1.068-.033.016-2.137.683-5.483.932-.77 0-1.425-.59-1.492-1.371-.071-.825.54-1.553 1.365-1.623 1.811-.156 3.099-.398 3.854-.571.278-1.404.774-4.344.774-7.435s-.496-6.03-.774-7.435c-.754-.173-2.044-.415-3.854-.571-.825-.07-1.437-.798-1.365-1.623.071-.824.794-1.433 1.623-1.365 3.474.299 5.277.9 5.353.926.487.165.855.568.977 1.068.042.175 1.042 4.356 1.042 9zm-6.236.809c.315-.493.315-1.124 0-1.617-1.505-2.351-3.504-4.352-5.942-5.946-.693-.454-1.623-.259-2.076.434-.454.693-.26 1.623.434 2.076 1.221.799 2.3 1.723 3.25 2.745h-9.93c-.828 0-1.5.672-1.5 1.5s.672 1.5 1.5 1.5h9.929c-.95 1.022-2.029 1.946-3.25 2.745-.693.453-.888 1.383-.434 2.076.456.699 1.393.884 2.076.434 2.438-1.595 4.438-3.596 5.942-5.946z"/></svg>