<?xml version="1.0" encoding="UTF-8"?>
<svg xmlns="http://www.w3.org/2000/svg" id="Layer_1" data-name="Layer 1" viewBox="0 0 24 24">
  <path d="M21.5,3.579c-.829,0-1.5,.671-1.5,1.5v2.667c-1.254-1.308-3.055-2.771-5.593-4.056-.738-.374-1.642-.078-2.016,.661s-.078,1.642,.661,2.016c2.685,1.359,4.376,2.921,5.392,4.135H2.5c-.829,0-1.5,.671-1.5,1.5s.671,1.5,1.5,1.5h15.938c-1.018,1.215-2.709,2.778-5.386,4.133-.739,.374-1.035,1.276-.661,2.016,.264,.522,.792,.823,1.339,.823,.228,0,.459-.052,.676-.162,2.541-1.286,4.341-2.743,5.593-4.048v2.659c0,.829,.671,1.5,1.5,1.5s1.5-.671,1.5-1.5V5.079c0-.829-.671-1.5-1.5-1.5Z"/>
</svg>
