<svg id="Layer_1" viewBox="0 0 24 24" xmlns="http://www.w3.org/2000/svg" data-name="Layer 1"><path d="m15.323 7.914c-.014-.06-.323-1.489-.323-2.914s.31-2.854.323-2.914c.075-.345.326-.624.661-.735.107-.035 1.108-.351 3.016-.351s2.908.315 3.016.351c.335.111.586.391.661.735.014.06.323 1.489.323 2.914s-.31 2.854-.323 2.914c-.075.345-.326.624-.661.735-.107.035-1.108.351-3.016.351s-2.908-.315-3.016-.351c-.335-.111-.586-.391-.661-.735zm6.593 5.538c-.139-.047-1.425-.452-3.916-.452s-3.777.405-3.916.452c-.334.111-.585.39-.66.733-.018.079-.424 1.95-.424 3.814s.406 3.735.424 3.814c.075.344.326.622.66.733.139.047 1.425.452 3.916.452s3.777-.405 3.916-.452c.334-.111.585-.39.66-.733.018-.079.424-1.95.424-3.814s-.406-3.735-.424-3.814c-.075-.344-.326-.622-.66-.733zm-15.016-12.152c-.533-.4-1.267-.4-1.8 0-1.44 1.08-2.718 2.358-3.8 3.8-.497.663-.363 1.603.299 2.101.663.496 1.603.362 2.1-.3.25-.334.526-.645.8-.957v15.557c0 .828.671 1.5 1.5 1.5s1.5-.672 1.5-1.5v-15.558c.275.312.55.624.8.957.5.667 1.444.793 2.1.3.663-.498.796-1.438.299-2.101-1.082-1.441-2.36-2.72-3.8-3.8z"/></svg>