<?xml version="1.0" encoding="UTF-8"?>
<svg xmlns="http://www.w3.org/2000/svg" id="Layer_1" data-name="Layer 1" viewBox="0 0 24 24">
  <path d="M21.5,10.499H5.559c1.017-1.213,2.707-2.776,5.389-4.133,.738-.374,1.035-1.276,.66-2.016-.373-.739-1.274-1.036-2.016-.661-2.541,1.286-4.34,2.743-5.593,4.048v-2.659c0-.829-.672-1.5-1.5-1.5s-1.5,.671-1.5,1.5v13.843c0,.829,.672,1.5,1.5,1.5s1.5-.671,1.5-1.5v-2.667c1.254,1.308,3.055,2.772,5.593,4.056,.218,.11,.449,.162,.677,.162,.548,0,1.075-.301,1.339-.823,.375-.739,.078-1.642-.66-2.016-2.686-1.359-4.376-2.92-5.392-4.135h15.944c.828,0,1.5-.671,1.5-1.5s-.672-1.5-1.5-1.5Z"/>
</svg>
