<svg id="Layer_1" viewBox="0 0 24 24" xmlns="http://www.w3.org/2000/svg" data-name="Layer 1"><path d="m16.2 6.601c-.228-.304-.264-.709-.095-1.048s.516-.553.895-.553h1v-2.5c0-.828.672-1.5 1.5-1.5s1.5.672 1.5 1.5v2.5h1c.379 0 .726.214.895.553s.133.744-.095 1.048c-.768 1.023-1.676 1.932-2.699 2.699-.178.134-.39.2-.601.2s-.423-.066-.601-.2c-1.023-.768-1.932-1.676-2.699-2.699zm-12.301 2.699c.178.134.39.2.601.2s.423-.066.601-.2c1.023-.768 1.932-1.676 2.699-2.699.228-.304.264-.709.095-1.048s-.516-.553-.895-.553h-1v-2.5c0-.828-.672-1.5-1.5-1.5s-1.5.672-1.5 1.5v2.5h-1c-.379 0-.726.214-.895.553s-.133.744.095 1.048c.768 1.023 1.676 1.932 2.699 2.699zm8.101 1.7c1.429 0 2-.571 2-2s-.571-2-2-2-2 .571-2 2 .571 2 2 2zm-7 3c-1.429 0-2 .571-2 2s.571 2 2 2 2-.571 2-2-.571-2-2-2zm12 2c0 1.429.571 2 2 2s2-.571 2-2-.571-2-2-2-2 .571-2 2zm-12 3c-.855 0-3.46 0-3.983 2.817-.054.292.024.594.215.822.189.229.472.36.769.36h6c.297 0 .579-.132.769-.36.19-.229.269-.53.215-.822-.523-2.817-3.128-2.817-3.983-2.817zm14 0c-.855 0-3.46 0-3.983 2.817-.054.292.024.594.215.822.189.229.472.36.769.36h6c.297 0 .579-.132.769-.36.19-.229.269-.53.215-.822-.523-2.817-3.128-2.817-3.983-2.817zm-3.017-4.183c-.523-2.817-3.128-2.817-3.983-2.817s-3.46 0-3.983 2.817c-.054.292.024.594.215.822.189.229.472.36.769.36h6c.297 0 .579-.132.769-.36.19-.229.269-.53.215-.822z"/></svg>