<svg id="Layer_1" viewBox="0 0 24 24" xmlns="http://www.w3.org/2000/svg" data-name="Layer 1"><path d="m13.936 16.923c0 .41 0 .97-2.167.978h-1.172c-.069-.443-.15-1.107-.175-1.921h1.434c2.08 0 2.08.479 2.08.943zm-.8-3.223c0-.25 0-.594-1.579-.599h-.96c-.051.319-.106.755-.143 1.279h1.201c1.48 0 1.48-.409 1.48-.68zm6.364 1.8c0 5.187-2.313 7.5-7.5 7.5s-7.5-2.313-7.5-7.5c0-4.654 1.87-6.988 6-7.42v-2.063h-1.518c-.379 0-.726-.214-.895-.553s-.133-.745.095-1.047c.917-1.221 1.999-2.304 3.218-3.217.355-.267.844-.267 1.199 0 1.219.914 2.301 1.996 3.218 3.217.228.303.264.708.095 1.047s-.516.553-.895.553h-1.518v2.063c4.13.432 6 2.766 6 7.42zm-3.965 1.423c0-1.084-.469-1.707-1.092-2.063.22-.366.292-.776.292-1.16 0-1.596-1.266-2.028-2.26-2.148v-.252c0-.442-.358-.8-.8-.8s-.8.358-.8.8v.201h-.939s0 0 0 0c-.367 0-.687.25-.776.605-.014.056-.344 1.399-.344 3.395s.33 3.338.344 3.394c.09.356.409.605.776.605h.94v.201c0 .442.358.8.8.8s.8-.358.8-.8v-.218c1.23-.073 3.06-.461 3.06-2.559z"/></svg>