<?xml version="1.0" encoding="UTF-8"?>
<svg xmlns="http://www.w3.org/2000/svg" id="Layer_1" data-name="Layer 1" viewBox="0 0 24 24">
  <path d="M13.815,4.631c-.345,0-.673,.009-.991,.025-.363,.703-.935,1.259-1.638,1.58l5.104,5.104c.675,.674,1.052,1.608,1.033,2.562-.019,.942-.405,1.809-1.09,2.442-.689,.637-1.519,.975-2.397,.975-1.36,0-2.254-.788-2.495-1.029l-5.106-5.106c-.096,.215-.212,.421-.35,.613-.318,.443-.731,.794-1.205,1.037-.018,.325-.047,.637-.047,.981,0,8.14,4.908,9.184,9.184,9.184,3.942,0,9.184-.952,9.184-9.184,0-8.14-4.908-9.184-9.184-9.184Z"/>
  <path d="M3.998,6.119L12.754,14.876c.293,.293,1.223,.831,2.121,0,.608-.562,.586-1.536,0-2.121L6.12,3.999c.867-.015,1.932,.095,3.151,.484,.789,.25,1.632-.185,1.884-.974,.251-.789-.185-1.633-.974-1.884-4.467-1.424-7.62,.031-7.751,.094-.313,.148-.564,.4-.713,.713-.062,.132-1.517,3.284-.094,7.751,.203,.638,.794,1.056,1.429,1.045,1.222-.021,1.681-1.167,1.43-1.956-.388-1.22-.498-2.286-.484-3.152Z"/>
</svg>
