<?xml version="1.0" encoding="UTF-8"?>
<svg xmlns="http://www.w3.org/2000/svg" id="Layer_1" data-name="Layer 1" viewBox="0 0 24 24">
  <path d="M21.941,6.453c-.102-.146-.228-.274-.373-.376-.147-.103-3.656-2.488-8.864,.199-.736,.379-1.025,1.284-.646,2.021,.38,.737,1.286,1.027,2.021,.646,1.515-.782,2.771-.97,3.727-.933l-4.988,4.599c-.25,.233-.581,.345-.908,.339-.332-.014-.64-.159-.866-.409-.771-.849-1.824-1.343-2.965-1.391-1.138-.045-2.236,.358-3.077,1.142-.042,.039-.081,.08-.117,.123l-3.518,4.114c-.539,.629-.492,1.61,.165,2.115,.943,.724,1.818,.182,2.114-.166l3.452-4.037c.241-.202,.526-.302,.854-.293,.333,.014,.642,.159,.868,.409,.77,.849,1.821,1.343,2.963,1.391,1.139,.057,2.238-.357,3.073-1.136l5.129-4.73c.064,.985-.098,2.305-.917,3.918-.375,.739-.082,1.645,.658,2.017,.971,.487,1.753-.137,2.018-.658,2.657-5.234,.299-8.755,.197-8.902Z"/>
</svg>
