<svg id="Layer_1" viewBox="0 0 24 24" xmlns="http://www.w3.org/2000/svg" data-name="Layer 1"><path d="m22.7 16.4c-.938 1.251-2.049 2.361-3.3 3.3-.534.4-1.267.4-1.801 0-1.251-.938-2.361-2.049-3.3-3.3-.497-.663-.362-1.604.3-2.101.665-.495 1.604-.362 2.101.3.094.125.201.239.299.361-.002-3.025-.242-5.933-.385-7.394-.784-.188-2.155-.439-4.209-.569-.827-.053-1.455-.766-1.402-1.592s.752-1.457 1.592-1.402c4.013.255 5.786.942 5.975 1.02.503.206.854.669.92 1.208.02.172.508 4.262.51 8.731.098-.122.206-.236.3-.362.498-.662 1.438-.795 2.101-.3.662.497.797 1.438.3 2.101zm-11.105.603c-2.054-.13-3.425-.382-4.209-.569-.143-1.461-.383-4.369-.385-7.394.098.122.206.235.299.361.5.666 1.443.793 2.101.3.662-.497.797-1.438.3-2.101-.938-1.251-2.049-2.361-3.3-3.3-.533-.4-1.268-.4-1.801 0-1.251.938-2.361 2.049-3.3 3.3-.497.663-.362 1.604.3 2.101.664.496 1.604.363 2.101-.3.094-.126.202-.24.3-.362.003 4.468.49 8.558.51 8.731.065.539.417 1.002.92 1.208.082.056 2.207.815 6.07 1.022.785 0 1.445-.61 1.496-1.405.053-.826-.575-1.539-1.402-1.592z"/></svg>