<?xml version="1.0" encoding="UTF-8"?>
<svg xmlns="http://www.w3.org/2000/svg" id="Layer_1" data-name="Layer 1" viewBox="0 0 24 24">
  <path d="M22.735,7.47c-.06-.503-.487-.881-.993-.881h-1.002c.35,.79,.412,1.691,.143,2.514-.292,.892-.912,1.611-1.748,2.026-.509,.252-1.042,.38-1.584,.38-.742,0-1.461-.247-2.051-.675v5.625c0,1.93-1.57,3.5-3.5,3.5s-3.5-1.57-3.5-3.5v-5.616c-.585,.425-1.3,.665-2.055,.665-.558,0-1.116-.136-1.612-.395-.829-.429-1.442-1.157-1.725-2.048-.258-.815-.198-1.672,.141-2.448h-.993c-.506,.002-.932,.381-.992,.883-.175,1.468-.264,2.941-.264,4.376,0,5.236,1.145,9.087,1.193,9.249,.099,.326,.356,.579,.683,.672,.172,.049,4.274,1.204,9.124,1.204s8.951-1.154,9.124-1.203c.329-.094,.586-.349,.684-.676,.049-.163,1.192-4.054,1.192-9.246,0-1.45-.089-2.932-.265-4.405Z"/>
  <path d="M5.754,9.337c.737,.383,1.642,.095,2.022-.641,.852-1.644,1.858-2.754,2.724-3.494v11.256c0,.829,.671,1.5,1.5,1.5s1.5-.671,1.5-1.5V5.203c.867,.741,1.872,1.851,2.724,3.494,.267,.515,1.069,1.114,2.022,.641,.742-.368,1.022-1.287,.641-2.022C16.399,2.517,12.66,1.143,12.502,1.086c-.325-.115-.68-.115-1.005,0-.158,.056-3.897,1.43-6.385,6.229-.381,.735-.094,1.641,.641,2.022Z"/>
</svg>
