<svg id="Layer_1" viewBox="0 0 24 24" xmlns="http://www.w3.org/2000/svg" data-name="Layer 1"><path d="m21.562 4.559-14.35 14.404c1.636.086 3.302-.037 4.98-.388.804-.176 1.606.349 1.775 1.16.17.812-.35 1.606-1.16 1.775-1.555.325-3.103.488-4.632.488s-3.052-.164-4.541-.491c-.571-.125-1.018-.571-1.143-1.143-.653-2.973-.654-6.059-.003-9.173.169-.812.964-1.334 1.775-1.16.811.169 1.33.964 1.16 1.775-.359 1.715-.483 3.417-.386 5.087l14.4-14.452c.585-.586 1.534-.59 2.121-.004.587.585.589 1.534.004 2.121z"/></svg>