<?xml version="1.0" encoding="UTF-8"?>
<svg xmlns="http://www.w3.org/2000/svg" id="Layer_1" data-name="Layer 1" viewBox="0 0 24 24">
  <path d="M22.769,11.197c-.378-.599-2.033-2.449-4.59-3.081-.449-.111-.923-.009-1.285,.275-.363,.284-.575,.72-.575,1.181v.929h-2.818v-2.773h.947c.462,0,.898-.213,1.183-.577,.284-.365,.385-.839,.272-1.288-.656-2.614-2.524-4.133-3.001-4.485-.013-.01-.026-.02-.04-.03-.044-.031-.068-.047-.071-.049-.169-.104-.352-.171-.536-.202-.359-.062-.729,.006-1.044,.202-.023,.014-2.362,1.573-3.112,4.563-.112,.448-.012,.923,.272,1.288,.284,.364,.721,.577,1.183,.577h.947v2.773h-2.818v-.928c0-.461-.212-.897-.575-1.181-.363-.284-.836-.385-1.285-.275-2.557,.632-4.212,2.482-4.59,3.081-.104,.164-.171,.342-.205,.523-.07,.368,0,.756,.205,1.083,.378,.599,2.033,2.449,4.59,3.081,.119,.029,.24,.044,.36,.044,.332,0,.658-.11,.925-.319,.363-.284,.575-.72,.575-1.181v-.929h2.818v2.773h-.947c-.462,0-.898,.213-1.183,.577-.284,.365-.385,.839-.272,1.288,.656,2.614,2.524,4.133,3.001,4.485,.013,.01,.026,.02,.04,.03,.044,.031,.068,.047,.071,.049,.169,.104,.352,.171,.536,.202,.085,.015,.171,.022,.256,.022,.273,0,.547-.075,.788-.224,.023-.014,2.362-1.573,3.112-4.563,.112-.448,.012-.923-.272-1.288-.284-.364-.721-.577-1.183-.577h-.947v-2.773h2.818v.928c0,.461,.212,.897,.575,1.181,.267,.208,.593,.319,.925,.319,.12,0,.241-.015,.36-.044,2.557-.632,4.212-2.482,4.59-3.081,.104-.164,.171-.342,.205-.523,.07-.368,0-.756-.205-1.083Z"/>
</svg>
