<?xml version="1.0" encoding="UTF-8"?>
<svg xmlns="http://www.w3.org/2000/svg" id="Layer_1" data-name="Layer 1" viewBox="0 0 24 24">
  <path d="M20.187,9.163C17.105,3.059,13.014,1.289,12.558,1.107c-.35-.14-.742-.144-1.093-.008-.181,.069-4.475,1.771-7.651,8.063-.374,.74-.077,1.642,.663,2.015,.739,.373,1.642,.077,2.015-.663,1.314-2.603,2.825-4.257,4.01-5.26V21.5c0,.829,.671,1.5,1.5,1.5s1.5-.671,1.5-1.5V5.258c1.185,1.004,2.695,2.657,4.008,5.257,.264,.522,.792,.824,1.34,.824,.228,0,.458-.052,.675-.162,.74-.373,1.036-1.275,.663-2.015Z"/>
</svg>
