<?xml version="1.0" encoding="UTF-8"?>
<svg xmlns="http://www.w3.org/2000/svg" id="Layer_1" data-name="Layer 1" viewBox="0 0 24 24">
  <path d="M22.246,7.479c-.898-2.647-3.028-4.758-5.695-5.645-2.984-.992-6.109-.992-9.094,0-2.671,.888-4.801,3-5.697,5.647-1.016,2.998-1.016,6.038,0,9.036,.897,2.649,3.027,4.761,5.697,5.648,1.492,.496,3.022,.748,4.547,.748s3.054-.251,4.545-.747c.786-.261,1.212-1.11,.951-1.896-.263-.785-1.112-1.213-1.896-.95-2.374,.789-4.829,.787-7.201,0-1.783-.593-3.204-2-3.801-3.764-.799-2.359-.799-4.751,0-7.111,.597-1.763,2.018-3.17,3.802-3.763,2.372-.788,4.829-.789,7.2,0,1.782,.593,3.203,1.999,3.802,3.762,.687,2.026,.778,4.092,.274,6.146-.175,.201-.43,.317-.707,.317-.46,0-.844-.329-.916-.759,.411-1.726,.326-3.466-.257-5.187-.433-1.275-1.458-2.292-2.741-2.719-2.026-.674-4.083-.674-6.11,0-1.285,.427-2.31,1.443-2.742,2.72-.683,2.017-.683,4.062,0,6.078,.432,1.276,1.457,2.293,2.742,2.72,1.013,.337,2.034,.505,3.055,.505s2.042-.168,3.055-.505c.508-.169,.976-.431,1.383-.765,.679,.57,1.561,.912,2.531,.912,1.381,0,2.676-.734,3.381-1.915,.07-.118,.125-.246,.16-.379,.729-2.716,.64-5.452-.268-8.132Zm-7.288,6.597c-.132,.391-.449,.704-.847,.836-1.418,.471-2.797,.472-4.216,0-.397-.132-.714-.444-.846-.835-.474-1.398-.474-2.756,0-4.154,.132-.391,.449-.703,.846-.835,.709-.236,1.409-.354,2.108-.354s1.399,.118,2.108,.354c.397,.132,.715,.445,.847,.835,.473,1.397,.473,2.757,0,4.153Z"/>
</svg>
