<?xml version="1.0" encoding="UTF-8"?>
<svg xmlns="http://www.w3.org/2000/svg" id="Layer_1" data-name="Layer 1" viewBox="0 0 24 24">
  <path d="M19.765,5.974c-.177-.359-.411-.672-.69-.932,.406-.265,.809-.655,1.159-1.23,.431-.708,.206-1.631-.501-2.062-.481-.292-1.062-.282-1.521-.023-.265-.424-.744-.701-1.297-.728-.555,.006-1.037,.313-1.292,.765-.468-.241-1.048-.229-1.516,.081-.69,.457-.88,1.388-.423,2.079,.316,.478,.667,.821,1.02,1.067-.35,.311-.634,.703-.825,1.158-.722,1.717-2.185,4.556-3.959,4.556-.036,0-.073,0-.109-.004-4.572-.3-6.503,2.505-6.821,5.229-.283,2.412,.779,5.351,3.788,6.476,1.072,.401,2.195,.593,3.322,.593,3.564,0,7.169-1.924,9.361-5.238,1.998-3.021,2.129-8.089,.303-11.788Zm-2.782,2.822h-.011c-.548,0-.994-.44-1-.989l-.024-2.28c.344,.073,.648,.085,.873,.085,.062,0,.119,0,.169-.002,.214-.003,.557-.008,.958-.097l.024,2.273c.006,.553-.438,1.005-.989,1.011Z"/>
</svg>
