<svg id="Layer_1" viewBox="0 0 24 24" xmlns="http://www.w3.org/2000/svg" data-name="Layer 1"><g><path d="m10.5 14v7.5c0 .829.672 1.5 1.5 1.5s1.5-.671 1.5-1.5v-7.5z"/><path d="m8.25 2.138c-.467-.56-.948-1.138-1.75-1.138-2.646 0-5.5 3.059-5.5 8 0 5.008 2.797 8 5.5 8 .802 0 1.283-.578 1.75-1.138.506-.607 1.104-1.522 2.25-1.862v-10c-1.146-.34-1.744-1.255-2.25-1.862z"/></g><path d="m17.5 1c-.802 0-1.283.578-1.75 1.138-.506.607-1.104 1.522-2.25 1.862v10c1.146.34 1.744 1.255 2.25 1.862.467.56.948 1.138 1.75 1.138 2.703 0 5.5-2.992 5.5-8 0-4.941-2.854-8-5.5-8z"/><path d="m13.5 2.5c0-.829-.672-1.5-1.5-1.5s-1.5.671-1.5 1.5v1.5h3z"/></svg>