<svg id="Layer_1" viewBox="0 0 24 24" xmlns="http://www.w3.org/2000/svg" data-name="Layer 1"><path d="m23 6.336c0 2.937-.901 5.384-2.605 7.078-1.683 1.673-4.095 2.556-6.979 2.556-.579.039-1.085-.415-1.082-1 0-.777-.045-1.451-.13-2.052l-8.643 8.643c-.586.586-1.535.586-2.121 0-.586-.585-.586-1.536 0-2.121l9.655-9.655c-.477-.707-1.985-2.82-1.962-2.91-.087-.151-.132-.323-.132-.497 0-.166.039-1.661 1.376-2.999s2.833-1.376 2.999-1.376c.174 0 .346.046.498.132.097-.018 2.197 1.47 2.889 1.983l.678-.678c.586-.586 1.535-.586 2.121 0 .48.479.545 1.193.239 1.761.632.088 1.35.136 2.2.136.552 0 1 .448 1 1z"/></svg>