<svg id="Layer_1" viewBox="0 0 24 24" xmlns="http://www.w3.org/2000/svg" data-name="Layer 1"><path d="m22 8h-1.163c-.218-.682-.656-1.373-1.305-2.118l1.175-1.175c.391-.391.391-1.023 0-1.414s-1.023-.391-1.414 0l-1.174 1.174c-.745-.649-1.435-1.086-2.119-1.302v-1.165c0-.552-.447-1-1-1s-1 .448-1 1v1.138c-.663.181-1.366.546-2.146 1.09l-.522-.783c-.307-.459-.927-.584-1.387-.277-.459.306-.583.927-.277 1.387l.616.924c-.636.546-1.228 1.082-1.782 1.609l-.795-.795c-.391-.391-1.023-.391-1.414 0s-.391 1.023 0 1.414l.787.787c-.526.553-1.059 1.148-1.607 1.786l-.918-.612c-.46-.307-1.08-.183-1.387.277-.306.459-.182 1.081.277 1.387l.783.522c-.544.78-.91 1.483-1.091 2.146h-1.137c-.552 0-1 .448-1 1s.448 1 1 1h1.165c.217.683.654 1.373 1.303 2.119l-1.174 1.174c-.391.391-.391 1.023 0 1.414s1.023.391 1.414 0l1.175-1.175c.745.649 1.435 1.084 2.118 1.302v1.166c0 .552.448 1 1 1s1-.448 1-1v-1.128c.665-.18 1.371-.546 2.152-1.091l.516.774c.309.463.933.581 1.387.277.46-.306.584-.927.277-1.387l-.611-.917c.586-.507 1.177-1.049 1.772-1.622l.8.8c.391.391 1.023.391 1.414 0s.391-1.023 0-1.414l-.8-.8c.569-.591 1.111-1.182 1.622-1.772l.917.611c.454.304 1.079.186 1.387-.277.307-.459.183-1.081-.277-1.387l-.773-.516c.545-.782.91-1.487 1.089-2.152h1.129c.553 0 1-.448 1-1s-.447-1-1-1zm-13.5 9c-1.071 0-1.5-.429-1.5-1.5s.429-1.5 1.5-1.5 1.5.429 1.5 1.5-.429 1.5-1.5 1.5zm1.5-4c-.552 0-1-.448-1-1s.448-1 1-1 1 .448 1 1-.448 1-1 1zm4 0c-.552 0-1-.448-1-1s.448-1 1-1 1 .448 1 1-.448 1-1 1zm1.5-3c-1.071 0-1.5-.429-1.5-1.5s.429-1.5 1.5-1.5 1.5.429 1.5 1.5-.429 1.5-1.5 1.5z"/></svg>