<svg id="Layer_1" viewBox="0 0 24 24" xmlns="http://www.w3.org/2000/svg" data-name="Layer 1"><path d="m22.99 19.993c0 2.141-.856 2.997-2.997 2.997s-2.997-.856-2.997-2.997.856-2.997 2.997-2.997 2.997.856 2.997 2.997zm-10.99-2.997c-2.141 0-2.997.856-2.997 2.997s.856 2.997 2.997 2.997 2.997-.856 2.997-2.997-.856-2.997-2.997-2.997zm-7.993 0c-2.141 0-2.997.856-2.997 2.997s.856 2.997 2.997 2.997 2.997-.856 2.997-2.997-.856-2.997-2.997-2.997zm14.987-4.996c0-2.141-.856-2.997-2.997-2.997s-2.997.856-2.997 2.997.856 2.997 2.997 2.997 2.997-.856 2.997-2.997zm-7.993 0c0-2.141-.856-2.997-2.997-2.997s-2.997.856-2.997 2.997.856 2.997 2.997 2.997 2.997-.856 2.997-2.997zm.999-4.996c2.141 0 2.997-.856 2.997-2.997s-.856-2.997-2.997-2.997-2.997.856-2.997 2.997.856 2.997 2.997 2.997z"/></svg>