<svg id="Layer_1" viewBox="0 0 24 24" xmlns="http://www.w3.org/2000/svg" data-name="Layer 1"><path d="m17.777 14.852c-.088.567-.715.827-1.211.539-.618-.358-1.207-.391-1.796-.391-.686 0-1.787.35-2.769 1.5-.996 1.166-1.873 1.512-2.77 1.5-.762-.01-1.525-.475-2.351-1.343-.257-.27-.425-.626-.49-.993-.441-2.474-.473-4.613-.187-6.542.08-.539.695-.842 1.158-.555.645.399 1.257.434 1.87.434.686 0 1.787-.35 2.769-1.5.996-1.166 1.873-1.512 2.77-1.5.768.01 1.536.482 2.369 1.363.244.258.41.59.482.938.448 2.179.497 4.362.156 6.551zm-13.552-6.022c.138-.928.73-1.719 1.584-2.115.381-.177.788-.249 1.191-.245v-.469c0-.431-.275-.812-.684-.948-1.542-.515-4.016-1.012-4.12-1.032-.436-.09-.894.131-1.093.538-.201.406-.048.844.238 1.194.915 1.12 1.658 1.812 2.537 2.665-1.052.808-1.627 1.033-2.537 1.83-.251.219-.376.549-.334.88.043.331.247.618.545.767.063.031 1.122.548 2.504.86-.066-1.358-.019-2.663.167-3.925zm15.897 6.753c1.052-.808 1.627-1.033 2.537-1.83.251-.219.376-.549.334-.88-.043-.331-.247-.618-.545-.767-.063-.031-1.106-.539-2.472-.852.048 1.302-.019 2.607-.221 3.908-.141.905-.717 1.68-1.54 2.073-.384.183-.799.262-1.213.263v.503c0 .431.275.812.684.948 1.542.515 4.016 1.012 4.12 1.032.436.09.894-.131 1.093-.538.201-.406.048-.844-.238-1.194-.915-1.12-1.658-1.812-2.537-2.665z"/></svg>