<svg id="Layer_1" viewBox="0 0 24 24" xmlns="http://www.w3.org/2000/svg" data-name="Layer 1"><path d="m17.681 12.045c-3.789 0-10.102-.158-15.35-1.06-.313-.054-.583-.253-.725-.538-.062-.124-.605-1.288-.605-3.947s.543-3.823.605-3.947c.145-.29.422-.492.743-.541.268-.042 6.718-1.012 19.152-1.012.431 0 .812.275.948.684.022.068.552 1.685.552 4.316 0 2.662-1.027 5.262-1.071 5.372-.147.368-.498.614-.895.628-.147.005-1.424.046-3.354.046zm-10.396 9.025c-.286-.221-.721-.711-.721-.711.854-.292 1.095-.501 1.745-.881-1.854-1.187-3.35-2.374-4.536-3.458-.751 2.56-.773 3.91-.773 3.98.027.19.081.381.168.555.05.074 1.241 1.828 3.589 2.415.522.135 1.081-.187 1.213-.728.134-.535-.261-.857-.685-1.172zm-3.494-7.839c1.245 1.319 3.082 2.965 5.671 4.613.163.104.35.156.537.156.465.007.896-.346.98-.804.209-1.044.333-2.238.408-3.299-2.481-.118-5.1-.322-7.596-.666z"/></svg>