<?xml version="1.0" encoding="UTF-8"?>
<svg xmlns="http://www.w3.org/2000/svg" id="Layer_1" data-name="Layer 1" viewBox="0 0 24 24">
  <path d="M7.838,2.01c-2.771,.316-4.721,.824-4.802,.846-.492,.13-.886,.5-1.044,.985-.026,.081-.648,2.006-.982,4.911-.095,.823,.496,1.567,1.319,1.662,.058,.007,.115,.01,.173,.01,.752,0,1.4-.564,1.488-1.329,.177-1.542,.445-2.778,.634-3.527,.772-.165,2.033-.403,3.554-.577,.823-.094,1.414-.837,1.32-1.66s-.834-1.417-1.66-1.32Z"/>
  <path d="M15.822,4.991c1.519,.173,2.779,.412,3.553,.576,.187,.749,.454,1.982,.633,3.528,.089,.765,.737,1.328,1.488,1.328,.058,0,.116-.003,.175-.01,.822-.096,1.412-.84,1.317-1.663-.335-2.889-.953-4.824-.979-4.905-.157-.487-.552-.86-1.047-.99-.081-.021-2.032-.529-4.801-.845-.825-.103-1.566,.497-1.66,1.32-.094,.823,.497,1.567,1.32,1.661Z"/>
  <path d="M8.178,19.009c-1.519-.173-2.779-.412-3.553-.576-.188-.749-.454-1.982-.633-3.528-.096-.823-.844-1.405-1.663-1.318-.822,.096-1.412,.84-1.317,1.663,.335,2.889,.953,4.824,.979,4.905,.157,.487,.552,.86,1.047,.99,.081,.021,2.032,.529,4.801,.845,.058,.007,.115,.01,.172,.01,.752,0,1.401-.564,1.488-1.33,.094-.823-.497-1.567-1.32-1.661Z"/>
  <path d="M21.671,13.587c-.81-.097-1.566,.496-1.661,1.319-.177,1.542-.445,2.778-.634,3.527-.772,.165-2.033,.403-3.554,.577-.823,.094-1.414,.837-1.32,1.66,.087,.766,.736,1.33,1.488,1.33,.057,0,.114-.003,.172-.01,2.771-.316,4.721-.824,4.802-.846,.492-.13,.886-.5,1.044-.985,.026-.081,.648-2.006,.982-4.911,.095-.823-.496-1.567-1.319-1.662Z"/>
  <path d="M8.758,15.302v-6.672c0-.829-.672-1.5-1.5-1.5s-1.5,.671-1.5,1.5v6.672c0,.829,.672,1.5,1.5,1.5s1.5-.671,1.5-1.5Z"/>
  <path d="M11.242,6.826c-.828,0-1.5,.671-1.5,1.5v7.196c0,.829,.672,1.5,1.5,1.5s1.5-.671,1.5-1.5v-7.196c0-.829-.672-1.5-1.5-1.5Z"/>
  <path d="M16.238,6.326h0c1.104,0,2,.896,2,2v7.35c0,1.103-.896,1.999-1.999,1.999h0c-1.104,0-2-.896-2-2v-7.35c0-1.103,.896-1.999,1.999-1.999Z"/>
</svg>
