<?xml version="1.0" encoding="UTF-8"?>
<svg xmlns="http://www.w3.org/2000/svg" id="Layer_1" data-name="Layer 1" viewBox="0 0 24 24">
  <path d="M18,2c-.553,0-1,.448-1,1V21c0,.552,.447,1,1,1s1-.448,1-1V3c0-.552-.447-1-1-1Z"/>
  <path d="M21.5,2.904c-.828,0-1.5,.671-1.5,1.5v15.217c0,.829,.672,1.5,1.5,1.5s1.5-.671,1.5-1.5V4.404c0-.829-.672-1.5-1.5-1.5Z"/>
  <path d="M7,2.5c-.828,0-1.5,.671-1.5,1.5V20c0,.829,.672,1.5,1.5,1.5s1.5-.671,1.5-1.5V4c0-.829-.672-1.5-1.5-1.5Z"/>
  <path d="M13,1c-1.104,0-2,.896-2,2V21c0,1.104,.896,2,2,2s2-.896,2-2V3c0-1.104-.896-2-2-2Z"/>
  <path d="M2.5,3.223c-.828,0-1.5,.671-1.5,1.5v14.554c0,.829,.672,1.5,1.5,1.5s1.5-.671,1.5-1.5V4.723c0-.829-.672-1.5-1.5-1.5Z"/>
</svg>
