<?xml version="1.0" encoding="UTF-8"?>
<svg xmlns="http://www.w3.org/2000/svg" id="Layer_1" data-name="Layer 1" viewBox="0 0 24 24">
  <path d="M16.323,17.09c-1.042,1.044-1.888,2.685-.001,4.574,.755,.756,1.5,1.125,2.275,1.125,.789,0,1.54-.369,2.296-1.126,1.042-1.043,1.887-2.684,0-4.574-1.522-1.525-3.071-1.501-4.571,.001Z"/>
  <path d="M21.583,2.402l-.003-.003c-1.619-1.62-4.166-1.861-6.059-.573l-.037,.025c-3.377,2.297-6.098,5.46-7.87,9.145l-.365,.76,5.006,5.009,.707-.34c3.715-1.784,6.897-4.537,9.201-7.959,1.277-1.895,1.032-4.446-.581-6.064Z"/>
  <path d="M3.149,16.011c-.555-.258-1.235-.159-1.692,.299-.586,.585-.587,1.535-.002,2.121l4.124,4.131c.293,.293,.677,.44,1.062,.44s.767-.146,1.06-.438c.456-.455,.558-1.13,.305-1.684,1.066-.776,1.995-1.733,2.74-2.828l-4.778-4.781c-1.088,.744-2.043,1.673-2.818,2.74Z"/>
</svg>
