<?xml version="1.0" encoding="UTF-8"?>
<svg xmlns="http://www.w3.org/2000/svg" id="Layer_1" data-name="Layer 1" viewBox="0 0 24 24">
  <path d="M21.49,5.145c-.52,.395-1.056,.87-1.63,1.444-.511,.511-.972,1.018-1.37,1.527l1.304,.489c.517,.194,.778,.771,.585,1.288-.15,.401-.602,.81-1.288,.585l-1.678-.629c-.603,1.338-.677,2.735,.023,4.294l1.654-.62c.517-.191,1.094,.068,1.288,.585,.193,.517-.068,1.093-.585,1.288l-1.298,.487c.378,.496,.83,1.009,1.363,1.543,.554,.553,1.101,1.032,1.631,1.43,.94-1.607,1.51-3.818,1.51-6.854s-.57-5.249-1.51-6.855Z"/>
  <path d="M18.445,18.839c-.768-.768-1.389-1.512-1.883-2.232l-1.435,.538c-.616,.24-1.138-.184-1.288-.585-.193-.517,.068-1.093,.585-1.288l1.151-.432c-.923-2.143-.733-4.043-.024-5.69l-1.127-.423c-.517-.194-.778-.771-.585-1.288,.193-.518,.771-.776,1.288-.585l1.421,.533c.574-.82,1.242-1.559,1.896-2.214,.634-.634,1.234-1.164,1.822-1.613-2.182-2.155-5.348-2.562-8.267-2.562S5.915,1.406,3.733,3.562c.588,.448,1.188,.979,1.822,1.612,.655,.655,1.323,1.394,1.897,2.214l1.421-.533c.517-.19,1.095,.068,1.288,.585,.193,.517-.068,1.093-.585,1.288l-1.127,.423c.709,1.647,.898,3.547-.024,5.69l1.151,.432c.517,.194,.778,.771,.585,1.288-.15,.401-.673,.83-1.288,.585l-1.435-.538c-.494,.72-1.115,1.464-1.883,2.231-.612,.612-1.223,1.148-1.822,1.599,2.182,2.156,5.348,2.562,8.268,2.562s6.085-.406,8.268-2.562c-.599-.451-1.21-.987-1.822-1.599Z"/>
  <path d="M4.141,17.424c.533-.533,.985-1.046,1.363-1.542l-1.298-.487c-.517-.194-.778-.771-.585-1.288,.194-.518,.771-.777,1.288-.585l1.654,.62c.701-1.559,.627-2.956,.024-4.294l-1.678,.629c-.604,.221-1.138-.184-1.288-.585-.193-.517,.068-1.093,.585-1.288l1.305-.489c-.397-.509-.859-1.016-1.37-1.527-.574-.573-1.11-1.049-1.63-1.444-.94,1.607-1.51,3.819-1.51,6.855s.57,5.248,1.51,6.854c.53-.398,1.077-.877,1.631-1.431Z"/>
</svg>
