<?xml version="1.0" encoding="UTF-8"?>
<svg xmlns="http://www.w3.org/2000/svg" id="Layer_1" data-name="Layer 1" viewBox="0 0 24 24">
  <path d="M17.418,11.521c-.089-.03-2.21-.726-5.418-.726s-5.327,.696-5.416,.725c-.703,.234-1.129,.946-1.003,1.676l1.558,8.56c.141,.815,.919,1.367,1.73,1.22,.815-.141,1.361-.915,1.22-1.73l-.054-.315c.652,.036,1.31,.057,1.902,.057,.629,0,1.335-.023,2.027-.061l-.055,.32c-.14,.815,.406,1.589,1.22,1.73,.087,.015,.173,.022,.257,.022,.714,0,1.347-.514,1.474-1.243l1.559-8.56c.126-.729-.299-1.441-1.001-1.675Zm-2.929,6.37c-.837,.063-1.772,.103-2.552,.103-.753,0-1.62-.037-2.426-.098l-.74-3.823c.781-.142,1.892-.283,3.228-.283s2.449,.141,3.228,.283l-.74,3.819Z"/>
  <path d="M21.384,2.434c-.127-.306-.396-.529-.719-.597-.163-.034-4.057-.837-8.664-.837S3.499,1.803,3.335,1.837c-.325,.068-.595,.293-.721,.6-.048,.118-1.174,2.924-1.174,6.653,0,3.76,1.127,6.539,1.175,6.656,.126,.306,.395,.529,.719,.597,.041,.009,.322,.066,.791,.148l-.51-2.955c-.297-1.715,.687-3.359,2.339-3.909,.262-.086,2.609-.828,6.046-.828,3.478,0,5.799,.744,6.052,.829,1.647,.55,2.629,2.194,2.334,3.907l-.511,2.955c.468-.081,.748-.139,.789-.147,.326-.068,.596-.293,.72-.6,.048-.117,1.175-2.924,1.175-6.653,0-3.761-1.128-6.54-1.176-6.656Zm-4.028,4.937c-.552,0-.998-.447-.998-.998,0-.596-.041-.957-.108-1.338-1.469-.16-2.925-.245-4.25-.245-1.346,0-2.771,.082-4.248,.244-.068,.384-.11,.744-.11,1.339,0,.551-.447,.998-.998,.998s-.998-.447-.998-.998c0-.985,.103-1.511,.223-2.12l.06-.31c.08-.425,.426-.751,.856-.805,1.815-.228,3.57-.344,5.215-.344s3.402,.116,5.218,.345c.43,.054,.776,.379,.856,.805l.058,.299c.119,.61,.222,1.137,.222,2.13,0,.551-.446,.998-.998,.998Z"/>
</svg>
