<svg id="Layer_1" viewBox="0 0 24 24" xmlns="http://www.w3.org/2000/svg" data-name="Layer 1"><path d="m22.274 9.038c-.068-.019-.851-.236-2.296-.467-.225-4.211-3.712-7.571-7.978-7.571s-7.753 3.36-7.978 7.571c-1.445.231-2.229.448-2.297.467-.434.124-.731.523-.725.975.011.39.158 9.894 3.86 11.908.104.044 2.601 1.079 7.14 1.079s7.036-1.035 7.14-1.079c3.701-2.013 3.85-11.518 3.86-11.908.006-.451-.291-.851-.726-.975zm-10.274-5.038c2.484 0 4.535 1.826 4.919 4.204-1.385-.119-3.023-.204-4.919-.204s-3.534.084-4.919.204c.385-2.377 2.435-4.204 4.919-4.204z"/></svg>