<svg id="Layer_1" viewBox="0 0 24 24" xmlns="http://www.w3.org/2000/svg" data-name="Layer 1"><path d="m22.722 11.308c-.188-.196-.449-.308-.722-.308h-17.988c.04-1.633.26-3.72 1.515-5.81.334-.092.888-.17 1.547-.157-.039.199-.074.398-.074.6 0 1.032.496 2.009 1.561 3.073.391.391 1.023.391 1.414 0l4.732-4.732c.387-.372.387-1.042 0-1.414-1.942-1.941-3.833-2.035-5.768-.332-.662-.147-1.312-.229-1.939-.229-1.779 0-2.96.523-3.089.583-.251.116-.464.299-.617.528-2.294 3.434-2.294 6.849-2.294 8.89.135 3.52 1.111 6.083 3 7.707v1.793c0 .829.672 1.5 1.5 1.5.899.005 1.5-.5 1.5-1.668 1.404.445 3.06.668 5 .668s3.596-.223 5-.668c0 1.168.602 1.673 1.5 1.668.828 0 1.5-.671 1.5-1.5v-1.788c1.884-1.626 2.852-4.145 2.999-7.671.012-.272-.089-.537-.277-.734z"/></svg>