<svg id="Layer_1" viewBox="0 0 24 24" xmlns="http://www.w3.org/2000/svg" data-name="Layer 1"><path d="m22.314 8.581c-.141-.302-.423-.515-.752-.566 0 0-.316-.05-.806-.114-.309-1.488-.674-2.418-.691-2.463-.123-.31-.392-.538-.718-.608-.156-.034-3.868-.828-8.257-.828s-8.101.794-8.257.828c-.327.071-.597.301-.719.612-.046.116-1.115 2.883-1.115 6.56 0 3.708 1.071 6.449 1.116 6.563.123.31.393.538.718.608.156.034 3.867.828 8.257.828s8.1-.794 8.256-.828c.328-.071.598-.301.72-.612.018-.045.381-.979.688-2.46.491-.064.809-.114.809-.114.33-.052.613-.266.753-.57.028-.061.685-1.51.685-3.416 0-1.921-.658-3.359-.686-3.419zm-7.673 3.451c0 .058-.051 1.426-.643 2.872-.653 1.596-1.592 2.6-1.632 2.642-.196.208-.758.598-1.413.041-.419-.357-.42-1.01-.043-1.411.016-.017.734-.801 1.236-2.029.165-.403.275-.802.35-1.146h-3.958c-.271 0-.53-.11-.718-.304s-.29-.457-.281-.728c0-.058.051-1.426.643-2.872.647-1.582 1.521-2.577 1.559-2.619.366-.414.998-.451 1.411-.084.414.366.451.998.085 1.412-.005.005-.692.799-1.203 2.049-.165.403-.275.802-.35 1.146h3.958c.271 0 .53.11.718.304s.29.457.281.728z"/></svg>