<svg id="Layer_1" viewBox="0 0 24 24" xmlns="http://www.w3.org/2000/svg" data-name="Layer 1"><path d="m7.116 10.234c-.077.594-.116 1.186-.116 1.766s.038 1.17.114 1.766c1.383.155 2.717.234 3.977.234.336 0 .68.008 1.023.016.305.007.602.014.886.015v-4.062c-.284 0-.582.008-.887.015-1.63.037-3.247.053-4.997.25z"/><path d="m22.315 8.581c-.129-.278-.378-.481-.676-.552-.041-.01-.336-.078-.888-.157-.304-1.457-.661-2.371-.686-2.436-.123-.31-.393-.538-.718-.608-.156-.034-3.867-.828-8.257-.828s-8.101.794-8.257.828c-.327.071-.597.301-.719.612-.046.116-1.115 2.883-1.115 6.56 0 3.708 1.071 6.449 1.116 6.563.123.31.393.538.718.608.156.034 3.867.828 8.257.828s8.101-.794 8.257-.828c.327-.071.597-.301.719-.612.026-.066.38-.982.683-2.433.553-.079.848-.146.89-.156.3-.071.55-.276.679-.556.027-.061.683-1.51.683-3.415 0-1.921-.656-3.359-.685-3.419zm-7.315 6.419c0 .521-.4.955-.92.997-.321.026-.661.034-1.006.034-.334 0-.673-.008-1.007-.016-.327-.007-.656-.015-.977-.015-1.57 0-3.246-.115-4.979-.341-.432-.057-.778-.387-.854-.816-.171-.956-.257-1.912-.257-2.843s.088-1.892.26-2.846c.078-.428.424-.757.854-.813 1.733-.226 3.408-.341 4.977-.341.32 0 .648-.008.976-.015.68-.016 1.38-.032 2.014.019.52.042.92.475.92.997v6z"/></svg>