<svg id="Layer_1" viewBox="0 0 24 24" xmlns="http://www.w3.org/2000/svg" data-name="Layer 1"><path d="m21.781 7.719c-.153-.029-3.831-.719-9.781-.719-3.586 0-6.339.25-8 .456v-4.956c0-.828-.672-1.5-1.5-1.5s-1.5.672-1.5 1.5v19c0 .828.672 1.5 1.5 1.5.776 0 1.407-.591 1.484-1.346 1.741.162 4.487.346 8.016.346s6.275-.184 8.016-.346c.078.755.709 1.346 1.484 1.346.828 0 1.5-.672 1.5-1.5v-12.308c0-.72-.512-1.338-1.219-1.474zm-17.781 10.626v-7.863c1.494-.197 4.289-.482 8-.482s6.504.284 8 .481v2.3c-1.044-.517-2.36-.781-4-.781-2.603 0-4.419.665-5.556 2.008-.49-.663-1.3-1.008-2.444-1.008-2.08-.035-3.129 1.213-2.983 3.251 1.748-.133 4.109-.251 6.983-.251 3.471 0 6.2.174 8 .337v2.008c-1.741-.162-4.482-.345-8-.345s-6.259.183-8 .345zm1.022-13.013c-.183-2.053.864-3.377 2.978-3.332 1.145 0 1.954.345 2.444 1.008 1.137-1.343 2.953-2.008 5.556-2.008 4.095 0 6.264 1.553 6.838 4.959-.218-.09-.445-.16-.682-.205-.161-.03-4.018-.754-10.156-.754-2.88 0-5.248.159-6.978.332z"/></svg>