<svg id="Layer_1" viewBox="0 0 24 24" xmlns="http://www.w3.org/2000/svg" data-name="Layer 1"><path d="m22.182 13.406c-.149-.227-.384-.383-.651-.433-.18-.034-4.462-.825-9.531-.825s-9.35.791-9.53.825c-.269.05-.505.208-.654.438-.083.128-.815 1.297-.815 2.877 0 1.594.734 2.755.818 2.882.174.265.463.431.78.449.008 0 .148.008.402.02v.874c0 .829.671 1.5 1.5 1.5s1.5-.671 1.5-1.5v-.755c1.651.053 3.76.1 6 .1s4.347-.048 6-.1v.755c0 .829.671 1.5 1.5 1.5s1.5-.671 1.5-1.5v-.874c.253-.012.394-.02.401-.02.318-.018.609-.186.783-.453.083-.128.815-1.297.815-2.878 0-1.594-.734-2.755-.818-2.882z"/><path d="m2.102 11.007c.1-.019 1.399-.258 3.378-.48-.041-.282-.062-.585-.062-.912 0-2.532 1.275-3.816 3.789-3.816 1.229 0 2.161.308 2.793.917.633-.609 1.565-.917 2.793-.917 2.514 0 3.789 1.284 3.789 3.816 0 .326-.021.629-.063.911 1.982.222 3.281.462 3.38.481.21.039.415.102.61.185.002-.121.003-.241.003-.361 0-4.623-1.142-7.15-1.191-7.255-.125-.272-.366-.474-.657-.549-.164-.042-4.061-1.04-8.669-1.04s-8.503.997-8.667 1.039c-.293.076-.537.281-.661.557-.048.107-1.179 2.667-1.179 7.248 0 .12 0 .24.003.361.195-.083.4-.145.611-.185z"/><path d="m13.004 9.616c0 .198.01.379.03.543 1.24.025 2.419.091 3.49.177.039-.207.058-.448.058-.72 0-1.563-.527-1.816-1.789-1.816s-1.789.252-1.789 1.816z"/><path d="m7.417 9.616c0 .272.019.513.056.72 1.072-.086 2.251-.152 3.491-.177.021-.164.031-.346.031-.543 0-1.563-.527-1.816-1.789-1.816s-1.789.252-1.789 1.816z"/></svg>