<?xml version="1.0" encoding="UTF-8"?>
<svg xmlns="http://www.w3.org/2000/svg" id="Layer_1" data-name="Layer 1" viewBox="0 0 24 24">
  <path d="M22.147,11.807c-.187-.03-4.635-.721-9.901-.721-3.394,0-6.456,.289-8.25,.501V5.493c0-.828-.671-1.498-1.498-1.498s-1.498,.671-1.498,1.498v13.013c0,.828,.671,1.498,1.498,1.498s1.498-.671,1.498-1.498v-.26c1.791,.212,4.85,.501,8.25,.501,3.142,0,6-.247,7.829-.453v.121c0,.807,.654,1.46,1.462,1.46s1.462-.654,1.462-1.46v-5.612c0-.497-.362-.919-.853-.997Z"/>
  <path d="M12.246,9.088c5.696-.03,10.513,.805,10.655,.85-.641-4.588-4.201-5.137-6.873-5.138-1.171-.005-3.963-.004-5.625,1.922-.474-.502-1.22-.84-2.368-.84-2.588,0-3.132,1.716-3.132,3.157,0,.143,.005,.289,.018,.436,1.867-.191,4.475-.371,7.325-.386Z"/>
</svg>
