<svg id="Layer_1" viewBox="0 0 24 24" xmlns="http://www.w3.org/2000/svg" data-name="Layer 1"><path d="m8 2.5c0-.828.671-1.5 1.5-1.5.497 0 1.784.131 2.5 1.347.716-1.216 2.003-1.347 2.5-1.347.828 0 1.5.672 1.5 1.5 0 .815-.651 1.479-1.462 1.5-.005.028-.01.072-.015.109.313.478.477 1.105.477 1.891 0 1.99-1.01 3-3 3s-3-1.01-3-3c0-.786.164-1.412.476-1.891-.005-.037-.009-.082-.015-.109-.811-.021-1.462-.685-1.462-1.5zm3.744 8.479c-2.163-.079-3.723-1.12-4.385-2.874-3.641.199-6.359.93-6.359 4.394 0 2.322 1.178 3.5 3.5 3.5 4.341 0 6.545-1.458 7.244-5.021zm4.897-2.874c-.662 1.753-2.221 2.794-4.385 2.874.699 3.563 2.903 5.021 7.244 5.021 2.322 0 3.5-1.178 3.5-3.5 0-3.464-2.718-4.195-6.359-4.394zm-4.641 7.126c-.927 1.119-2.193 1.883-3.799 2.322 1.082.205 2.396.447 3.799.447s2.718-.241 3.799-.447c-1.606-.439-2.872-1.203-3.799-2.322zm-2.692 4.57c.958 1.687 1.865 2.77 1.932 2.849.19.222.467.35.759.35s.569-.128.759-.35c.067-.078.975-1.162 1.933-2.849-.851.115-1.759.198-2.692.198s-1.841-.083-2.692-.198z"/></svg>