<?xml version="1.0" encoding="UTF-8"?>
<svg xmlns="http://www.w3.org/2000/svg" id="Layer_1" data-name="Layer 1" viewBox="0 0 24 24">
  <path d="M19.862,6.838c-2.595,0-3.14,1.705-3.14,3.135,0,1.401,.523,3.066,2.986,3.132-.727,3.568-2.814,5.796-6.232,6.641-.507,.124-1.02,.029-1.444-.272-.287-.203-.503-.483-.624-.8,2.425-.221,4.991-1.081,6.301-3.927-1.884-.704-2.988-2.403-2.988-4.773s1.104-4.07,2.989-4.774c-1.607-3.494-5.105-3.997-7.915-3.997C6.02,1.202,.999,2.111,.999,9.971c0,6.88,3.847,8.435,7.339,8.715,.172,1.299,.881,2.472,1.962,3.237,.812,.574,1.774,.874,2.75,.874,.382,0,.767-.046,1.145-.14,5.623-1.388,8.802-5.82,8.802-12.492,0-1.666-.541-3.328-3.136-3.328Zm-10.063,1.632c.828,0,1.5,.672,1.5,1.5s-.672,1.5-1.5,1.5-1.5-.672-1.5-1.5,.672-1.5,1.5-1.5Z"/>
</svg>
