<svg id="Layer_1" viewBox="0 0 24 24" xmlns="http://www.w3.org/2000/svg" data-name="Layer 1"><path d="m11.639 8.999c-.211-.051-.415-.131-.592-.273-.233-.191-1.074-.813-2.1-2.401-.897-1.388-1.314-2.31-1.447-2.825-.116-.436 2.332-2.434 3.226-2.5 0 0-.226 1-.226 2h3c0-1-.227-2-.227-2 .896.066 3.342 2.068 3.227 2.5-.134.519-.55 1.437-1.448 2.825-1.029 1.596-1.871 2.216-2.106 2.408-.172.139-.375.218-.585.268 0 0 1.14-2.5 1.14-4h-3c0 1.5 1.139 3.999 1.139 3.999zm3.366 14.001h-9.463c-.64 0-1.236-.318-1.602-.843-1.984-2.848-2.94-6.799-2.94-10.657 0-1.883.282-3.835.847-5.815.169-.595.56-1.089 1.101-1.39.619-.345 1.348-.391 2.017-.116 1.089.448 1.634 1.722 1.317 2.857-.368 1.318-.626 2.807-.544 4.423-.633.846-.88 1.925-.656 3 .277.967.823 1.864 1.49 2.915.265.436.571.879.942 1.315.35.37.93.421 1.34.102.436-.339.514-.967.175-1.403-.905-1.164-1.641-2.422-1.99-3.338-.125-.599.04-1.191.49-1.616.507-.479 1.282-.571 1.885-.224.005.005 1.436.676 2.918 2.458 1.489 1.791 2.811 4.744 3.58 7.1.199.61-.266 1.233-.908 1.233zm-1.134-9.612c.707.85 1.332 1.852 1.868 2.855.522-.797.945-1.575 1.181-2.194.125-.599-.04-1.191-.49-1.616-.507-.479-1.282-.571-1.885-.224-.003.003-.45.22-1.093.706.139.152.279.304.419.473zm8.241-7.703c-.169-.595-.56-1.089-1.101-1.39-.619-.345-1.348-.391-2.017-.116-1.089.448-1.634 1.722-1.317 2.857.368 1.318.626 2.807.544 4.423.633.846.88 1.925.656 3-.277.967-.823 1.864-1.49 2.915-.19.312-.412.628-.652.942.544 1.253.912 2.319 1.079 2.833.199.609.173 1.258-.029 1.853h.633c.64 0 1.236-.318 1.602-.843 1.984-2.848 2.94-6.799 2.94-10.657 0-1.883-.282-3.835-.847-5.815z"/></svg>