<svg id="Layer_1" viewBox="0 0 24 24" xmlns="http://www.w3.org/2000/svg" data-name="Layer 1"><path d="m22.647 12.778c-3.342 5.629-8.217 9.247-14.648 9.221-3.064 0-5.59-.498-5.696-.52-.379-.075-.68-.363-.774-.738-.021-.086-.53-2.144-.53-4.242s.508-4.156.53-4.242c.094-.377.398-.665.78-.739.109-.021 2.206-.519 5.19-.519 2.5 0 4.271.532 4.279.532.719.216 1.221.893 1.221 1.645 0 .788-.457 1.458-1.217 1.759-.908.386-2.297.917-3.879 1.069-.55.053-.953.541-.9 1.091.05.518.485.904.995.904 1.975-.103 3.538-.786 4.543-1.215 1.058-.418 1.842-1.255 2.214-2.276 1.395-1.134 2.564-2.557 3.595-4.288.707-1.185 2.244-1.574 3.427-.869.574.341.98.886 1.145 1.533s.067 1.32-.274 1.894zm-17.647-10.778c-1.071 0-1.5.429-1.5 1.5s.429 1.5 1.5 1.5 1.5-.429 1.5-1.5-.429-1.5-1.5-1.5zm6 5c-1.071 0-1.5.429-1.5 1.5s.429 1.5 1.5 1.5 1.5-.429 1.5-1.5-.429-1.5-1.5-1.5zm-3.214 2.271 3-5c.426-.71.196-1.632-.514-2.058-.711-.428-1.631-.195-2.058.515l-3 5c-.426.71-.196 1.632.514 2.058.242.146.508.214.771.214.51 0 1.006-.26 1.288-.729z"/></svg>