<svg id="Layer_1" viewBox="0 0 24 24" xmlns="http://www.w3.org/2000/svg" data-name="Layer 1"><path d="m6 18h14.627c-.206 1.812-.424 3.075-.441 3.173-.067.381-.348.689-.721.792-.154.042-3.816 1.036-7.465 1.036-1.465 0-3.103-.159-4.868-.472-1.601-.284-2.87-1.386-3.417-2.857.556-1.573 2.103-1.668 2.285-1.672zm15-6c0 1.373-.074 2.747-.176 4h-14.824c-.701 0-1.796.258-2.733.979-.144-1.47-.267-3.226-.267-4.979 0-2.482.245-4.983.451-6.646.238-1.929 1.658-3.454 3.549-3.848 0 0 2-.506 5-.506 3.648 0 7.311.993 7.465 1.036.373.103.653.411.721.792.033.189.814 4.693.814 9.173zm-6.006-4.792c.058-.549-.341-1.041-.891-1.099-.363-.038-.735-.039-1.104-.057v-1.052c0-.552-.448-1-1-1s-1 .448-1 1v1.052c-.369.018-.741.019-1.104.057-.549.057-.948.549-.891 1.099.057.549.542.937 1.099.891.295-.031.597-.03.896-.046v3.948c0 .552.448 1 1 1s1-.448 1-1v-3.948c.335.013.67.025 1.001.051.506 0 .939-.382.993-.896z"/></svg>