<?xml version="1.0" encoding="UTF-8"?>
<svg xmlns="http://www.w3.org/2000/svg" id="Layer_1" data-name="Layer 1" viewBox="0 0 24 24">
  <ellipse cx="5.105" cy="18.572" rx="4.105" ry="4.135"/>
  <ellipse cx="18.895" cy="18.572" rx="4.105" ry="4.135"/>
  <ellipse cx="16.053" cy="3.986" rx="2.682" ry="2.693"/>
  <path d="M10.878,11.338c.237-.458,.588-.845,1.012-1.123l.673-.229,3.121,3.03c.597,.578,1.544,.563,2.121-.031s.563-1.544-.031-2.121l-3.78-3.67c-.144-.14-.316-.25-.503-.323l-3.606-1.4c-.23-.089-.477-.12-.724-.091-2.45,.297-4.483,2.12-5.06,4.538-.174,.729,.217,1.475,.916,1.746l3.266,1.268,1.426,1.619c.516,.545,.8,1.262,.8,2.017v2.005c0,.829,.672,1.5,1.5,1.5s1.5-.671,1.5-1.5v-2.005c0-1.524-.575-2.972-1.583-4.038l-1.049-1.191Z"/>
</svg>
