<svg id="Layer_1" viewBox="0 0 24 24" xmlns="http://www.w3.org/2000/svg" data-name="Layer 1"><path d="m14 15c0 1.589-.411 2-2 2s-2-.411-2-2 .411-2 2-2 2 .411 2 2zm1-9h1.5v2.5c0 .829.672 1.5 1.5 1.5s1.5-.671 1.5-1.5v-2.5h1.5c.379 0 .725-.214.895-.553.169-.339.133-.744-.095-1.047-.908-1.212-1.984-2.289-3.199-3.2-.355-.267-.846-.267-1.201 0-1.215.912-2.291 1.988-3.199 3.2-.228.303-.264.708-.095 1.047.17.339.516.553.895.553zm8 9c0 3.189-.744 6.433-.776 6.57-.092.398-.417.7-.821.762-.177.027-4.384.668-9.402.668s-9.226-.641-9.402-.668c-.404-.062-.729-.364-.821-.762-.032-.137-.776-3.381-.776-6.57s.744-6.433.776-6.57c.092-.398.417-.7.821-.762.177-.027 4.384-.668 9.402-.668.864 0 1.701.02 2.5.052v1.448c0 1.597 1.081 2.932 2.546 3.351.159.658.747 1.149 1.454 1.149.865.005 1.586-.759 1.487-1.625.912-.632 1.513-1.684 1.513-2.875v-.801c.356.094.64.368.724.732.032.137.776 3.381.776 6.57zm-16 3.5c0-.828-.672-1.5-1.5-1.5s-1.5.672-1.5 1.5.672 1.5 1.5 1.5 1.5-.672 1.5-1.5zm0-7c0-.828-.672-1.5-1.5-1.5s-1.5.672-1.5 1.5.672 1.5 1.5 1.5 1.5-.672 1.5-1.5zm9 3.5c0-2.691-1.309-4-4-4s-4 1.309-4 4 1.309 4 4 4 4-1.309 4-4zm4 3.5c0-.828-.672-1.5-1.5-1.5s-1.5.672-1.5 1.5.672 1.5 1.5 1.5 1.5-.672 1.5-1.5z"/></svg>