<svg id="Layer_1" viewBox="0 0 24 24" xmlns="http://www.w3.org/2000/svg" data-name="Layer 1"><path d="m22.196 12.02c-.208-.042-5.155-1.02-10.196-1.02s-9.988.978-10.196 1.02c-.467.093-.804.504-.804.98 0 10 4.854 10 11 10s11 0 11-10c0-.477-.337-.887-.804-.98zm-15.196 5.98c0 .552-.447 1-1 1s-1-.448-1-1v-3c0-.552.447-1 1-1s1 .448 1 1zm4 1c0 .552-.447 1-1 1s-1-.448-1-1v-4c0-.552.447-1 1-1s1 .448 1 1zm4 0c0 .552-.447 1-1 1s-1-.448-1-1v-4c0-.552.447-1 1-1s1 .448 1 1zm4-1c0 .552-.447 1-1 1s-1-.448-1-1v-3c0-.552.447-1 1-1s1 .448 1 1zm-13.451-13.755c.098-1.544.276-2.264.299-2.353.073-.27.274-.486.538-.578.092-.032.917-.314 1.613-.314s1.521.282 1.613.314c.264.092.466.309.538.578.023.089.202.808.299 2.352-.746-.159-1.56-.244-2.45-.244s-1.704.087-2.451.245zm8 0c.098-1.544.276-2.264.299-2.353.073-.27.274-.486.538-.578.092-.032.917-.314 1.613-.314s1.521.282 1.613.314c.264.092.466.309.538.578.023.089.202.808.299 2.352-.746-.159-1.56-.244-2.45-.244s-1.704.087-2.451.245zm-11.323 5.664c.582-2.668 2.412-3.909 5.774-3.909 2.926 0 4.718.986 5.512 3.029-.501-.017-1.005-.029-1.512-.029-4.079 0-8.1.617-9.774.909zm13.436-.761c-.315-1.203-.847-2.205-1.595-2.992.585-.114 1.212-.192 1.933-.192 3.331 0 5.19 1.28 5.777 3.946-1.162-.202-3.452-.56-6.115-.762z"/></svg>