<svg id="Layer_1" viewBox="0 0 24 24" xmlns="http://www.w3.org/2000/svg" data-name="Layer 1"><path d="m17 11c-4.149 0-6 1.851-6 6s1.851 6 6 6 6-1.851 6-6-1.851-6-6-6zm2.767 5.773c-.79.941-1.687 1.792-2.667 2.526-.178.134-.389.2-.6.2s-.423-.066-.601-.2c-.559-.42-1.097-.882-1.599-1.373-.396-.387-.401-1.02-.016-1.414.388-.395 1.021-.401 1.414-.016.258.252.525.495.801.727.626-.525 1.207-1.107 1.733-1.735.355-.421.985-.479 1.409-.124.423.355.479.985.124 1.409zm-14.767-15.773c-2.654 0-4 1.683-4 5s1.346 5 4 5 4-1.683 4-5-1.346-5-4-5zm0 7c-.624 0-1 0-1-2s.376-2 1-2 1 0 1 2-.376 2-1 2zm6.032-3.807c.336-1.61 1.51-2.791 3.139-3.157.446-.101.911.009 1.267.293s.562.715.562 1.171v5c0 .828-.672 1.5-1.5 1.5s-1.5-.672-1.5-1.5v-1.586c-.25.09-.526.113-.807.055-.811-.17-1.331-.965-1.162-1.775zm-4.595 9.136c.356.284.563.715.563 1.171v7c0 .828-.671 1.5-1.5 1.5s-1.5-.672-1.5-1.5v-3.586c-.25.09-.527.112-.807.055-.811-.17-1.331-.965-1.162-1.775.336-1.61 1.51-2.791 3.139-3.157.446-.1.911.009 1.266.293z"/></svg>