<svg id="Layer_1" viewBox="0 0 24 24" xmlns="http://www.w3.org/2000/svg" data-name="Layer 1"><path d="m8 1c-2.654 0-4 1.683-4 5s1.346 5 4 5 4-1.683 4-5-1.346-5-4-5zm0 7c-.624 0-1 0-1-2s.376-2 1-2 1 0 1 2-.376 2-1 2zm8 5c-2.654 0-4 1.683-4 5s1.346 5 4 5 4-1.683 4-5-1.346-5-4-5zm0 7c-.624 0-1 0-1-2s.376-2 1-2 1 0 1 2-.376 2-1 2zm-7.563-6.671c.356.284.563.715.563 1.171v7c0 .828-.671 1.5-1.5 1.5s-1.5-.672-1.5-1.5v-3.586c-.25.09-.527.112-.807.055-.811-.17-1.331-.965-1.162-1.775.336-1.61 1.51-2.791 3.139-3.157.446-.1.91.009 1.266.293zm5.595-9.136c.336-1.61 1.51-2.791 3.139-3.157.445-.101.91.008 1.266.293.356.284.563.715.563 1.171v7c0 .828-.671 1.5-1.5 1.5s-1.5-.672-1.5-1.5v-3.586c-.25.09-.527.113-.807.055-.811-.17-1.331-.965-1.162-1.775z"/></svg>