<svg id="Layer_1" viewBox="0 0 24 24" xmlns="http://www.w3.org/2000/svg" data-name="Layer 1"><path d="m8.438 13.329c.355.284.562.715.562 1.171v7c0 .828-.672 1.5-1.5 1.5s-1.5-.672-1.5-1.5v-3.586c-.252.09-.529.113-.808.054-.811-.169-1.33-.964-1.16-1.775.337-1.61 1.51-2.79 3.139-3.156.445-.101.911.009 1.267.293zm6.755-7.361c.279.06.557.036.808-.054v3.586c0 .828.672 1.5 1.5 1.5s1.5-.672 1.5-1.5v-7c0-.456-.207-.887-.563-1.171-.355-.284-.819-.394-1.267-.293-1.629.366-2.802 1.546-3.139 3.156-.17.812.35 1.606 1.16 1.775zm.499 14.015c-.3-.039-.465-.061-.599-.764-.156-.814-.949-1.344-1.755-1.192-.813.155-1.348.941-1.192 1.755.448 2.347 1.968 3.022 3.163 3.176.806.11 1.577-.471 1.679-1.296.106-.821-.475-1.573-1.296-1.679zm6.869 2.578c-.586.586-1.535.586-2.121 0l-19.001-19c-.586-.586-.586-1.535 0-2.121s1.535-.586 2.121 0l1.184 1.184c.802-1.292 2.121-1.624 3.255-1.624 2.654 0 4 1.683 4 5 0 .949-.083 2.204-.653 3.226l3.837 3.837c.256-.04.526-.063.816-.063 2.618 0 3.957 1.644 3.993 4.872l2.567 2.567c.586.586.586 1.535 0 2.121zm-15.494-17.615 1.893 1.893c.024-.229.04-.5.04-.839 0-2-.376-2-1-2-.57 0-.806.013-.933.946z"/></svg>