<svg id="Layer_1" viewBox="0 0 24 24" xmlns="http://www.w3.org/2000/svg" data-name="Layer 1"><circle cx="6" cy="18" r="5"/><circle cx="18" cy="18" r="5"/><path d="m20.107 6.836c-1.844-.837-4.747-1.836-8.107-1.836-3.383 0-6.28.997-8.115 1.833-1.752.799-2.885 2.578-2.885 4.531v1.792c1.282-1.321 3.064-2.156 5-2.156s3.718.835 5 2.157v-2.157c0-.552.448-1 1-1s1 .448 1 1v2.157c1.282-1.322 3.064-2.157 5-2.157s3.718.835 5 2.156v-1.784c0-1.956-1.135-3.736-2.893-4.535z"/><path d="m7.244 1c-1.789 0-3.244 1.468-3.244 3.271v.337c1.634-.658 3.795-1.313 6.275-1.531-.476-1.215-1.655-2.077-3.031-2.077z"/><path d="m20 4.271c0-1.804-1.455-3.271-3.244-3.271-1.376 0-2.556.863-3.032 2.078 2.471.221 4.636.878 6.275 1.538v-.344z"/></svg>