<svg id="Layer_1" viewBox="0 0 24 24" xmlns="http://www.w3.org/2000/svg" data-name="Layer 1"><path d="m23 18.583c0 2.283-1.379 3.16-2.536 3.493-.062.021-2.852.924-7.702.924-2.788 0-5.157-.217-6.653-.4-1.929-.234-3.525-1.49-4.164-3.277-.151-.423-.26-.89-.346-1.379h-.003c-.223-1.394-.595-4.34-.595-6.943 0-1.66.134-3.385.399-5.128.354-2.874 1.32-3.956 3.972-4.428.049-.012 2.162-.476 6.631-.444 4.499 0 9.022.981 9.213 1.023.381.083.679.381.762.762.042.19 1.023 3.713 1.023 8.214 0 1-.077 1.732-.077 1.732-.051.544-.596.957-1.132.873-.043-.006-4.434-.598-8.793-.605-4.288.005-5.947.252-5.972.256-1.801.322-2.526 1.444-2.526 3.244 0 .16.181 1.567.27 1.814.25.698.918 1.212 1.701 1.308 1.158.141 3.515.378 6.291.378 4.321 0 6.797-.783 6.821-.791.285-.083.417-.215.417-.389 0-.239-.247-.34-.783-.442-.008-.001-2.97-.377-6.402-.377-1.386 0-2.785.073-4.158.217-.812.091-1.562-.511-1.648-1.335s.512-1.562 1.336-1.648c1.477-.155 2.98-.233 4.471-.233 3.653 0 6.713.393 6.841.41 2.237.37 3.345 1.435 3.345 3.173z"/></svg>