<svg id="Layer_1" viewBox="0 0 24 24" xmlns="http://www.w3.org/2000/svg" data-name="Layer 1"><path d="m7.79 15c.046.409.09.82.141 1.224 1.157-.112 3.99-.224 6.102-.224s3.923.112 5.076.224c.231-1.794.384-3.417.516-4.863.106-1.161.205-2.232.331-3.236.108-.863.611-1.682 1.144-2.549.252-.41.498-.813.701-1.214.254-.498.266-1.076.031-1.587-.231-.506-.673-.872-1.21-1.004-2.431-.593-4.144-.737-5.566-.771-1.305-.031-2.719 0-4.03.093-3.596.25-5.012.755-6.229 1.14-3.027 1.027-2.861 3.531-2.74 5.36.027.779.131 1.678.222 2.436.226 2.099.535 4.972 4.221 4.972h1.29zm-2.528-5.292c-.085-.719-.184-1.572-.211-2.313-.135-2.034-.006-2.078.68-2.311.429-.137.748-.247 1.357-.403.013.399.029.839.048 1.32h2.864c.553 0 1 .447 1 1s-.447 1-1 1h-2.771c.034.639.072 1.306.118 2h2.653c.553 0 1 .447 1 1s-.447 1-1 1h-3.5c-.936 0-.992 0-1.238-2.292zm16.738 10.789c0 1.022-.304 1.658-.338 1.728-.104.207-.309.356-.554.403-.08.015-3.82.372-7.608.372s-7.528-.357-7.608-.372c-.245-.047-.45-.196-.554-.403-.035-.07-.338-.706-.338-1.724.007-1.173.816-2.145 1.882-2.266.941-.107 4.36-.234 6.618-.234s5.676.128 6.619.234c1.066.121 1.875 1.093 1.881 2.262z"/></svg>