<svg id="Layer_1" viewBox="0 0 24 24" xmlns="http://www.w3.org/2000/svg" data-name="Layer 1"><path d="m21.835 17.129c.243-1.714.367-3.438.367-5.129 0-4.989-1.062-8.674-1.107-8.829-.144-.49-.526-.874-1.017-1.018-.16-.047-3.976-1.154-8.477-1.154s-8.316 1.107-8.476 1.154c-.492.145-.876.53-1.019 1.022-.045.156-1.106 3.878-1.106 8.824 0 4.989 1.062 8.674 1.107 8.829.144.49.526.874 1.016 1.018.161.047 3.976 1.154 8.478 1.154.722 0 1.472-.029 2.23-.086.826-.062 1.445-.783 1.383-1.608-.062-.827-.773-1.448-1.609-1.383-.683.051-1.357.078-2.003.078-2.898 0-5.536-.522-6.817-.824-.289-1.27-.784-3.925-.784-7.176 0-.085 0-.169.001-.253h11.956c.553 0 1-.448 1-1v-2.465h-12.696c-.016 0-.032 0-.049-.001.084-.746.185-1.419.285-1.999h12.459v-1.763c.586.108 1.082.216 1.46.305.288 1.27.784 3.925.784 7.176 0 1.556-.114 3.144-.34 4.725-1.091.449-1.862 1.524-1.862 2.775 0 1.654 1.346 3 3 3s3-1.346 3-3c0-.963-.457-1.822-1.165-2.371z"/></svg>