<svg id="Layer_1" viewBox="0 0 24 24" xmlns="http://www.w3.org/2000/svg"><path d="m17 11c-4.037 0-6 1.962-6 6s1.963 6 6 6 6-1.962 6-6-1.963-6-6-6zm0 3c.312 0 .59.012.843.036l-3.808 3.807c-.024-.254-.036-.532-.036-.843 0-2.383.617-3 3-3zm0 6c-.312 0-.59-.012-.843-.036l3.808-3.807c.024.254.036.532.036.843 0 2.383-.617 3-3 3zm-7.062.547c-.233.801-1.092 1.247-1.865 1.011-4.245-1.26-6.476-4.409-7.021-9.911-.082-.824.52-1.559 1.345-1.641.823-.073 1.559.52 1.641 1.345.528 5.324 2.662 6.669 4.89 7.331.794.236 1.247 1.07 1.011 1.865zm-4.413-10.547c-.016-.34-.025-.676-.025-1s.009-.66.025-1h3.475c.552 0 1-.448 1-1s-.448-1-1-1h-3.243c.52-2.617 2.034-5 6.243-5s5.723 2.383 6.242 5h-3.242c-.553 0-1 .448-1 1s.447 1 1 1h3.475c.017.374.028.736.024 1.096-.477-.059-.973-.096-1.499-.096-4.974 0-7.785 2.648-7.981 7.461-2.005-.847-2.89-2.592-3.261-4.461h3.242c.552 0 1-.448 1-1s-.448-1-1-1z"/></svg>