<svg id="Layer_1" viewBox="0 0 24 24" xmlns="http://www.w3.org/2000/svg" data-name="Layer 1"><path d="m8.996 7.489h6.008v3.503h-6.008z"/><path d="m17.007 10.991h5.993c-.036-1.28-.138-2.461-.268-3.503h-5.726v3.503z"/><path d="m10.999 12.993h-9.999c.036 1.28.138 2.461.268 3.503h9.731z"/><path d="m23 12.993h-9.999v3.503h9.728c.131-1.044.233-2.225.27-3.503z"/><path d="m1 10.991h5.993v-3.503h-5.723c-.131 1.044-.233 2.225-.27 3.503z"/><path d="m13.001 5.487h9.425c-.29-1.591-.583-2.565-.607-2.644-.1-.325-.358-.578-.685-.67-.161-.045-3.728-1.035-8.133-1.173z"/><path d="m17.03 18.497-.019 4.135c2.382-.338 4.014-.79 4.122-.82.33-.093.589-.347.687-.674.024-.08.315-1.056.604-2.641h-5.393z"/><path d="m15.027 18.497h-6.031v4.367c.945.084 1.957.137 3.004.137s2.06-.053 3.007-.137l.02-4.366z"/><path d="m10.999 5.487v-4.487c-4.397.138-7.97 1.127-8.131 1.172-.33.093-.589.347-.687.674-.024.08-.315 1.056-.604 2.641z"/><path d="m6.993 18.497h-5.419c.29 1.591.583 2.565.607 2.644.1.325.358.578.685.67.108.03 1.739.484 4.126.821v-4.136z"/></svg>