<svg id="Layer_1" viewBox="0 0 24 24" xmlns="http://www.w3.org/2000/svg" data-name="Layer 1"><path d="m22.561 22.561c-.586.586-1.535.586-2.121 0l-19.001-19c-.586-.586-.586-1.535 0-2.121s1.535-.586 2.121 0l4.502 4.502c1.944-2.511 4.175-4.16 6.651-4.9.663-.223 1.386.392 1.278 1.082l-.859 6.876h3.867c.648-.017 1.16.668.959 1.285-.035.114-.765 2.532-2.322 5.231l4.924 4.924c.586.586.586 1.535 0 2.121zm-18.52-8.847c-.201.617.311 1.302.959 1.285h3.867l-.859 6.876c-.108.69.615 1.305 1.278 1.082 1.935-.579 3.717-1.723 5.334-3.388l-9.231-9.231c-.891 1.865-1.321 3.29-1.347 3.376z"/></svg>