<svg id="Layer_1" viewBox="0 0 24 24" xmlns="http://www.w3.org/2000/svg" data-name="Layer 1"><path d="m21.904 16.816c-1.018-2.708-2.051-4.033-2.248-4.271-.57-.689-1.742-.689-2.312 0-.197.238-1.23 1.563-2.248 4.271-1.07 2.849-1.097 4.51-1.096 4.689.003.822.667 1.481 1.49 1.487h.01c.818 0 1.486-.663 1.5-1.482 0-.005.006-.183.052-.51h2.897c.045.321.051.495.051.495-.003.828.667 1.502 1.495 1.505h.005c.826 0 1.497-.668 1.5-1.495 0-.18-.025-1.841-1.096-4.688zm-4.045 1.184c.2-.561.44-1.115.641-1.548.201.432.441.987.641 1.548zm-1.901-7.713c-.701 2.51-3.456 10.663-10.171 12.671-.663.222-1.387-.391-1.279-1.082l.859-6.876h-3.367c-.65.017-1.161-.67-.958-1.287.701-2.51 3.456-10.663 10.171-12.671.664-.222 1.386.391 1.279 1.082l-.859 6.876h3.367c.65-.017 1.161.671.958 1.287z"/></svg>