<svg id="Layer_1" viewBox="0 0 24 24" xmlns="http://www.w3.org/2000/svg" data-name="Layer 1"><path d="m6 9.145c.378 0 .725-.214.894-.552.13-.26.238-.516.332-.768.083-.218.235-.371.449-.452.256-.096.513-.204.772-.334.338-.169.552-.516.552-.894s-.214-.725-.552-.894c-.26-.13-.516-.238-.768-.332-.218-.083-.371-.235-.452-.451-.096-.255-.203-.511-.333-.771-.339-.677-1.449-.677-1.788 0-.13.26-.238.516-.333.768-.083.218-.235.371-.449.452-.256.096-.513.204-.772.334-.338.169-.552.516-.552.894s.214.725.552.894c.26.13.516.238.768.332.218.083.371.235.452.449.096.256.204.513.334.772.169.338.516.552.894.552z"/><path d="m10.663 4.846c.909-.447 3.462-.846 4.837-.846 1.865 0 2.537 1.398 2.614 1.573.239.577.797.927 1.387.927.186 0 .374-.035.557-.108.769-.308 1.143-1.181.835-1.95-.511-1.279-2.223-3.443-5.393-3.443-1.561 0-4.653.411-6.163 1.154-.743.366-1.049 1.265-.683 2.008.366.744 1.266 1.048 2.008.683z"/><path d="m20.125 12.257.129-.129c.033-.034.064-.069.092-.106.417-.555.719-1.901-.797-3.427-1.519-1.531-2.872-1.223-3.433-.801-.037.028-.072.059-.104.091l-.131.131c-2.76-1.629-5.367-.996-8.354 1.99-3.285 3.284-3.166 6.734.354 10.253 1.683 1.683 3.287 2.573 4.903 2.72.156.014.312.021.467.021 1.656 0 3.296-.801 4.882-2.387 2.996-2.996 3.631-5.605 1.992-8.355z"/></svg>