<svg id="Layer_1" viewBox="0 0 24 24" xmlns="http://www.w3.org/2000/svg" data-name="Layer 1"><path d="m14.4 11.779c0 .512 0 1.213-2.709 1.221h-1.464c-.088-.554-.188-1.384-.218-2.4h1.791c2.6 0 2.6.599 2.6 1.179zm-1-4.029c0-.313 0-.742-1.975-.749h-1.198c-.063.399-.133.944-.179 1.599h1.501c1.85 0 1.85-.512 1.85-.85zm7.6 2.25c0 6.309-2.691 9-9 9s-9-2.691-9-9 2.691-9 9-9 9 2.691 9 9zm-4.6 1.779c0-1.355-.586-2.133-1.365-2.579.274-.458.365-.971.365-1.45 0-2.736-2.987-2.746-3.973-2.749h-2.026s-.001-.001-.001-.001c-.459 0-.859.312-.97.757-.018.07-.43 1.749-.43 4.243s.412 4.172.43 4.243c.111.445.511.757.97.757h2.293c1.288-.004 4.707-.014 4.707-3.221zm-13.718 5.179c-1.319 1.33-2.016 2.465-1.523 3.084.544.683 2.512.282 2.512.282s-.399 1.966.282 2.512c.641.514 1.793-.229 3.132-1.568.052-.052.343-.345.753-.759-2.307-.606-4.022-1.784-5.155-3.551zm13.481 3.551c.409.413.7.706.753.759 1.339 1.339 2.491 2.082 3.132 1.568.681-.546.282-2.512.282-2.512s1.967.401 2.512-.282c.494-.619-.203-1.755-1.523-3.085-1.134 1.767-2.849 2.945-5.155 3.551z"/></svg>