<svg id="Layer_1" viewBox="0 0 24 24" xmlns="http://www.w3.org/2000/svg" data-name="Layer 1"><path d="m8.209 13.912c-.114-1.164-.209-2.54-.209-3.912 0-1.993.2-4.005.368-5.342.209-1.668 1.474-2.985 3.147-3.277 1.447-.252 2.788-.38 3.985-.38 2.987 0 5.985.8 6.111.834.374.101.656.409.724.79.027.153.666 3.773.666 7.376 0 1.026-.053 2.051-.127 3h-12.216c-.627 0-1.624.235-2.447.912zm2.447 1.088c-.293-.077-1.641.329-1.849 1.68.544 1.001 1.518 1.733 2.708 1.941 1.447.252 2.788.38 3.985.38 2.987 0 5.985-.8 6.111-.834.374-.101.656-.409.724-.79.014-.076.179-1.012.341-2.376h-12.019zm.515 5.59c-1.189-.208-2.252-.77-3.085-1.59h-4.43c-.293-.077-1.641.329-1.849 1.68.544 1.001 1.518 1.733 2.708 1.941 1.447.252 2.788.38 3.985.38 2.987 0 5.985-.8 6.111-.834.374-.101.656-.409.724-.79.005-.027.029-.163.064-.381-1.286-.007-2.704-.139-4.227-.405zm-4.337-3.59c-.235-.735-.476-1.673-.616-2.893-.145-1.483-.218-2.865-.218-4.107 0-1.763.147-3.519.297-4.863-.577.062-1.164.136-1.783.243-1.673.292-2.938 1.609-3.147 3.277-.168 1.337-.368 3.349-.368 5.342 0 1.372.095 2.748.209 3.912.823-.677 1.82-.912 2.447-.912h3.178z"/></svg>