<?xml version="1.0" encoding="UTF-8"?>
<svg xmlns="http://www.w3.org/2000/svg" id="Layer_1" data-name="Layer 1" viewBox="0 0 24 24">
  <path d="M22.371,3.915c-.063-.323-.28-.594-.582-.725-.096-.042-2.394-1.03-5.094-1.03-.637,0-1.25,.095-1.819,.245-1.119,.293-1.876,1.34-1.876,2.497v14.151c0,.552-.448,1-1,1s-1-.448-1-1V4.901c0-1.157-.756-2.204-1.876-2.497-.569-.149-1.182-.245-1.819-.245-2.7,0-4.998,.988-5.094,1.03-.302,.131-.519,.402-.582,.725-.026,.132-.629,3.277-.629,7.476,0,2.388,.195,4.427,.359,5.717,.181,1.42,1.237,2.59,2.629,2.912l7.787,1.796c.043,.01,.147,.025,.225,.025,.095,0,.206-.021,.225-.025l7.787-1.796c1.392-.321,2.448-1.491,2.629-2.911,.164-1.29,.359-3.329,.359-5.717,0-4.199-.603-7.344-.629-7.476Z"/>
</svg>
