<?xml version="1.0" encoding="UTF-8"?>
<svg xmlns="http://www.w3.org/2000/svg" id="Layer_1" data-name="Layer 1" viewBox="0 0 24 24">
  <path d="M6.832,16.076V1.572c-.14,.03-.274,.059-.401,.088-1.65,.376-2.896,1.756-3.174,3.515-.256,1.618-.561,4.167-.561,7.119,0,1.934,.13,3.687,.287,5.097,.894-.819,2.06-1.314,3.326-1.314h.522Z"/>
  <path d="M20.322,2.954c-.08-.333-.326-.604-.649-.716-.146-.051-3.642-1.238-7.673-1.238-1.125,0-2.204,.093-3.168,.224v14.852h12.313c.095-1.143,.159-2.418,.159-3.783,0-5.093-.881-8.917-.981-9.339Z"/>
  <path d="M3.483,20.115c.574,1.411,1.849,2.428,3.364,2.593,1.778,.194,3.513,.292,5.153,.292,3.989,0,7.379-.588,7.521-.613,.392-.069,.705-.362,.799-.748,.023-.095,.346-1.438,.615-3.563H6.31c-1.262,0-2.361,.839-2.826,2.039Z"/>
</svg>
