<svg id="Layer_1" viewBox="0 0 24 24" xmlns="http://www.w3.org/2000/svg" data-name="Layer 1"><path d="m9 16h11.824c.103-1.253.176-2.627.176-4 0-4.48-.781-8.983-.814-9.173-.067-.381-.348-.689-.721-.792-.154-.042-3.816-1.036-7.465-1.036-.932 0-1.94.071-3 .199v14.801zm5.213-11.637c.379-.484 1.195-.484 1.574 0 .159.203.994 1.333 1.821 3.643.871 2.433.892 3.825.892 3.976-.002.551-.449.997-1 .997h-.003c-.553-.001-.999-.451-.997-1.003 0-.003-.01-.355-.132-.997h-2.736c-.122.643-.132.998-.132 1.004-.006.548-.452.993-1 .993h-.004c-.55-.002-.994-.444-.996-.994 0-.151.021-1.543.892-3.976.827-2.31 1.662-3.44 1.821-3.643zm-.039 4.616c.034-.101.062-.194.1-.299.253-.706.503-1.281.726-1.736.223.455.473 1.03.726 1.736.038.106.066.198.1.299h-1.651zm6.453 9.021c-.206 1.812-.424 3.075-.441 3.173-.067.381-.348.689-.721.792-.154.042-3.816 1.036-7.465 1.036-1.465 0-3.103-.159-4.868-.472-1.601-.284-2.87-1.386-3.417-2.857.556-1.573 2.103-1.668 2.285-1.672zm-17.36-1.021c-.144-1.47-.267-3.226-.267-4.979 0-2.482.245-4.983.451-6.646.238-1.929 1.658-3.454 3.549-3.848v14.494h-1c-.701 0-1.796.258-2.733.979z"/></svg>