<svg id="Layer_1" viewBox="0 0 24 24" xmlns="http://www.w3.org/2000/svg" data-name="Layer 1"><path d="m10.999 6c.018-.761.255-.996.995-1 .74.005.994.262 1.007.981-.015.795-.231 1.014-.995 1.019-.761-.004-.989-.229-1.007-1zm-7.284 13.672c.547 1.47 1.815 2.573 3.417 2.857 1.766.313 3.403.472 4.868.472 3.648 0 7.311-.993 7.465-1.036.373-.103.653-.411.721-.792.017-.098.235-1.36.441-3.173h-14.627c-.182.003-1.729.099-2.285 1.672zm17.285-7.672c0 1.373-.074 2.747-.176 4h-14.824c-.701 0-1.796.258-2.733.979-.144-1.47-.267-3.226-.267-4.979 0-2.482.245-4.983.451-6.646.238-1.929 1.658-3.454 3.549-3.848 0 0 2-.506 5-.506 3.648 0 7.311.993 7.465 1.036.373.103.653.411.721.792.033.189.814 4.693.814 9.173zm-12.001-5.982c.035 1.884 1.126 2.971 3.007 2.981 1.868-.011 2.96-1.098 2.995-3.018-.032-1.828-1.18-2.971-3.007-2.982-1.842.011-2.961 1.126-2.995 2.982zm7.941 6.642c-.496-1.373-1.482-2.3-2.639-2.481-1.517-.238-3.086-.239-4.604 0-1.156.181-2.142 1.108-2.638 2.481-.188.52.081 1.093.601 1.28.506.187 1.093-.076 1.28-.601.241-.666.649-1.12 1.067-1.185 1.314-.205 2.672-.205 3.985 0 .418.065.827.52 1.067 1.185.188.521.763.788 1.28.601.52-.188.788-.761.601-1.28z"/></svg>