<svg id="Layer_1" viewBox="0 0 24 24" xmlns="http://www.w3.org/2000/svg" data-name="Layer 1"><path d="m20.285 19.672c-.547 1.47-1.815 2.573-3.417 2.857-1.766.313-3.403.472-4.868.472-3.648 0-7.311-.993-7.465-1.036-.373-.103-.653-.411-.721-.792-.017-.098-.235-1.36-.441-3.173h14.627c.182.003 1.729.099 2.285 1.672zm-7.465-12.629c-.256-.01-.526-.017-.82-.017s-.564.007-.82.017c-.17.247-.346.512-.533.817-.138.226-.26.437-.372.64.113.203.235.414.372.639.187.305.363.57.533.817.256.01.526.017.82.017s.564-.007.82-.017c.17-.247.346-.512.533-.817.138-.225.26-.437.372-.64-.113-.203-.235-.414-.372-.64-.187-.305-.363-.57-.533-.817zm8.18 4.957c0 1.753-.123 3.51-.267 4.979-.937-.721-2.031-.979-2.733-.979h-14.824c-.103-1.253-.176-2.627-.176-4 0-4.48.781-8.983.814-9.173.067-.381.348-.689.721-.792.154-.042 3.816-1.036 7.465-1.036 3 0 5 .506 5 .506 1.89.394 3.311 1.92 3.549 3.848.206 1.662.451 4.164.451 6.646zm-5.024-3.5c.528-1.103.691-1.771.713-1.87.11-.505-.183-1.01-.675-1.167-.041-.013-.765-.232-2.129-.355-.678-.873-1.158-1.303-1.232-1.367-.375-.321-.928-.321-1.303 0-.075.064-.555.494-1.232 1.367-1.364.123-2.089.343-2.129.355-.493.156-.785.662-.675 1.167.021.098.185.766.713 1.87-.528 1.103-.691 1.771-.713 1.87-.11.505.183 1.01.675 1.167.041.013.765.232 2.129.355.678.873 1.158 1.303 1.232 1.367.188.161.419.241.651.241s.464-.081.651-.241c.075-.064.555-.494 1.232-1.367 1.364-.123 2.089-.343 2.129-.355.493-.156.785-.662.675-1.167-.021-.098-.185-.766-.713-1.87z"/></svg>