<svg id="Layer_1" viewBox="0 0 24 24" xmlns="http://www.w3.org/2000/svg" data-name="Layer 1"><path d="m6 18h14.627c-.206 1.812-.424 3.075-.441 3.173-.067.381-.348.689-.721.792-.154.042-3.816 1.036-7.465 1.036-1.465 0-3.103-.159-4.868-.472-1.601-.284-2.87-1.386-3.417-2.857.556-1.573 2.103-1.668 2.285-1.672zm15-6c0 1.373-.074 2.747-.176 4h-14.824c-.701 0-1.796.258-2.733.979-.144-1.47-.267-3.226-.267-4.979 0-2.482.245-4.983.451-6.646.238-1.929 1.658-3.454 3.549-3.848 0 0 2-.506 5-.506 3.648 0 7.311.993 7.465 1.036.373.103.653.411.721.792.033.189.814 4.693.814 9.173zm-5-3c0-.552-.448-1-1-1h-2v-2c0-.552-.448-1-1-1s-1 .448-1 1v2h-2c-.552 0-1 .448-1 1s.448 1 1 1h2v2c0 .552.448 1 1 1s1-.448 1-1v-2h2c.552 0 1-.448 1-1z"/></svg>