<svg id="Layer_1" viewBox="0 0 24 24" xmlns="http://www.w3.org/2000/svg" data-name="Layer 1"><path d="m11 7c-4.479 0-7.87.526-9.715.899.268-1.946.632-3.2.656-3.282.097-.328.355-.584.684-.679.059-.017.722-.202 1.875-.404v-1.035c0-.828.671-1.5 1.5-1.5s1.5.672 1.5 1.5v.649c1.032-.089 2.204-.149 3.5-.149s2.468.06 3.5.149v-.649c0-.828.671-1.5 1.499-1.5.828 0 1.5.671 1.5 1.5v1.035c1.153.202 1.816.387 1.875.404.329.095.587.351.684.679.024.082.388 1.336.656 3.282-1.846-.373-5.236-.899-9.715-.899zm12 13.13c0-.379-.16-.8-.5-.967-1.962-.963-4.634-1.781-6.963-2.122l-.033-4.412c-.009-1.262-.914-2.354-2.105-2.538-.734-.115-1.472.096-2.028.576s-.871 1.176-.866 1.91l.039 7.526c-.812-1.125-1.674-2.101-2.393-2.712-.645-.392-1.402-.444-2.082-.096-.766.393-1.193 1.258-1.038 2.102.003.006.123 1.377.89 3.093.158.353.518.572.904.572h15.177c.521-.004.951-.406.99-.925.05-.662.007-1.286.007-2.006zm-5.496-7.516.021 2.761c1.059.233 2.137.54 3.166.894.17-1.188.309-2.646.309-4.269 0-.704-.028-1.374-.071-2.009-.928-.206-2.638-.532-4.938-.753.917.843 1.504 2.053 1.513 3.376zm-12.347 2.899c1.055-.54 2.269-.592 3.363-.164l-.014-2.763c-.004-1.383.623-2.767 1.763-3.575-4.467.062-7.766.661-9.199.979-.043.634-.071 1.305-.071 2.009 0 4.146.902 7.252.941 7.383.097.328.355.584.684.679.029.008.206.057.503.127-.036-.203-.061-.377-.076-.504-.276-1.684.582-3.39 2.105-4.171z"/></svg>