<?xml version="1.0" encoding="UTF-8"?>
<svg xmlns="http://www.w3.org/2000/svg" id="Layer_1" data-name="Layer 1" viewBox="0 0 24 24">
  <g>
    <path d="M6.31,16.076h.522V1.572c-.14,.03-.274,.059-.401,.088-1.65,.376-2.896,1.756-3.174,3.515-.256,1.618-.561,4.167-.561,7.119,0,1.934,.13,3.687,.287,5.097,.894-.819,2.06-1.314,3.326-1.314Z"/>
    <path d="M6.31,18.076c-1.262,0-2.361,.839-2.826,2.039,.574,1.411,1.849,2.428,3.364,2.593,1.778,.194,3.513,.292,5.153,.292,3.989,0,7.379-.588,7.521-.613,.392-.069,.705-.362,.799-.748,.023-.095,.346-1.438,.615-3.563H6.31Z"/>
  </g>
  <path d="M20.322,2.954c-.08-.333-.326-.604-.649-.716-.146-.051-3.642-1.238-7.673-1.238-1.125,0-2.204,.093-3.168,.224v14.852h12.313c.095-1.143,.159-2.418,.159-3.783,0-5.093-.881-8.917-.981-9.339Zm-1.445,6.28c-.041,.081-1.009,1.982-2.955,2.847-.132,.059-.899,.32-1.32-.507-.25-.492,.002-1.096,.507-1.32,.282-.126,.536-.289,.76-.467h-3.718c-.552,0-1-.448-1-1s.448-1,1-1h3.706c-.226-.179-.481-.343-.764-.471-.504-.226-.729-.818-.502-1.322,.226-.504,.818-.73,1.322-.502,1.944,.873,2.92,2.762,2.961,2.842,.144,.283,.145,.617,.003,.9Z"/>
</svg>
