<svg id="Layer_1" viewBox="0 0 24 24" xmlns="http://www.w3.org/2000/svg" data-name="Layer 1"><path d="m23 17c0 4.149-1.851 6-6 6s-6-1.851-6-6 1.851-6 6-6 6 1.851 6 6zm-2.675-.525c-.546-.73-1.194-1.378-1.925-1.925-.544-.439-1.423.002-1.4.7v.75h-2c-.553 0-1 .448-1 1s.447 1 1 1h2s0 .75 0 .75c-.023.699.853 1.138 1.4.7.731-.548 1.379-1.195 1.925-1.925.233-.311.233-.738 0-1.049zm-3.325-7.475c.677 0 1.311.048 1.905.14-.209-3.362-.693-6.165-.719-6.313-.067-.381-.348-.689-.721-.792-.154-.042-3.816-1.036-7.465-1.036-.932 0-1.94.071-3 .199v14.801h2.038c.339-4.584 3.074-7 7.962-7zm-12 7v-14.494c-1.89.394-3.311 1.92-3.549 3.848-.206 1.662-.451 4.164-.451 6.646 0 1.753.123 3.51.267 4.979.937-.721 2.031-.979 2.733-.979zm4.038 2h-5.038c-.182.003-1.729.099-2.285 1.672.547 1.47 1.815 2.573 3.417 2.857 1.766.313 3.403.472 4.868.472.351 0 .7-.012 1.048-.028-1.175-1.169-1.852-2.835-2.01-4.972z"/></svg>