<svg id="Layer_1" viewBox="0 0 24 24" xmlns="http://www.w3.org/2000/svg" data-name="Layer 1"><path d="m23 12.026c0 4.324-.942 8.665-.982 8.848-.125.572-.572 1.019-1.144 1.144-.183.04-4.525.982-8.848.982s-8.665-.942-8.848-.982c-.809-.178-1.32-.977-1.143-1.786.177-.81.973-1.329 1.786-1.144.042.009 4.215.912 8.205.912 2.843 0 5.78-.459 7.248-.726.267-1.468.726-4.404.726-7.248 0-3.99-.903-8.164-.913-8.205-.177-.809.335-1.609 1.144-1.786.81-.178 1.609.334 1.787 1.143.04.183.982 4.525.982 8.848zm-11-8.026c.828 0 1.5-.672 1.5-1.5s-.672-1.5-1.5-1.5-1.5.672-1.5 1.5.672 1.5 1.5 1.5zm-8.5 1c.828 0 1.5-.672 1.5-1.5s-.672-1.5-1.5-1.5-1.5.672-1.5 1.5.672 1.5 1.5 1.5zm-1 8.5c.828 0 1.5-.672 1.5-1.5s-.672-1.5-1.5-1.5-1.5.672-1.5 1.5.672 1.5 1.5 1.5zm5.25-9.25c.828 0 1.5-.672 1.5-1.5s-.672-1.5-1.5-1.5-1.5.672-1.5 1.5.672 1.5 1.5 1.5zm8.5 0c.828 0 1.5-.672 1.5-1.5s-.672-1.5-1.5-1.5-1.5.672-1.5 1.5.672 1.5 1.5 1.5zm-12 12c0-.828-.672-1.5-1.5-1.5s-1.5.672-1.5 1.5.672 1.5 1.5 1.5 1.5-.672 1.5-1.5zm-1.5-7c.828 0 1.5-.672 1.5-1.5s-.672-1.5-1.5-1.5-1.5.672-1.5 1.5.672 1.5 1.5 1.5z"/></svg>