<svg id="Layer_1" viewBox="0 0 24 24" xmlns="http://www.w3.org/2000/svg" data-name="Layer 1"><path d="m4.912 20.179c.178.809-.335 1.609-1.144 1.786-.788.179-1.612-.328-1.786-1.143-.04-.183-.982-4.525-.982-8.848s.942-8.665.982-8.849c.125-.571.571-1.018 1.144-1.144.183-.04 4.523-.982 8.848-.982s8.665.942 8.848.982c.81.178 1.321.978 1.144 1.787s-.976 1.318-1.786 1.144c-.042-.009-4.215-.913-8.205-.913-2.844 0-5.78.458-7.248.726-.267 1.468-.726 4.405-.726 7.248 0 3.99.903 8.164.912 8.205zm7.088-.179c-.828 0-1.5.672-1.5 1.5s.672 1.5 1.5 1.5 1.5-.672 1.5-1.5-.672-1.5-1.5-1.5zm8.5-1c-.828 0-1.5.672-1.5 1.5s.672 1.5 1.5 1.5 1.5-.672 1.5-1.5-.672-1.5-1.5-1.5zm1-8.5c-.828 0-1.5.672-1.5 1.5s.672 1.5 1.5 1.5 1.5-.672 1.5-1.5-.672-1.5-1.5-1.5zm-5.25 9.25c-.828 0-1.5.672-1.5 1.5s.672 1.5 1.5 1.5 1.5-.672 1.5-1.5-.672-1.5-1.5-1.5zm-8.5 0c-.828 0-1.5.672-1.5 1.5s.672 1.5 1.5 1.5 1.5-.672 1.5-1.5-.672-1.5-1.5-1.5zm12-12c0 .828.672 1.5 1.5 1.5s1.5-.672 1.5-1.5-.672-1.5-1.5-1.5-1.5.672-1.5 1.5zm1.5 7c-.828 0-1.5.672-1.5 1.5s.672 1.5 1.5 1.5 1.5-.672 1.5-1.5-.672-1.5-1.5-1.5z"/></svg>