<svg id="Layer_1" viewBox="0 0 24 24" xmlns="http://www.w3.org/2000/svg" data-name="Layer 1"><path d="m18.993 5.711c-.095-2.131-1.27-3.211-3.493-3.211-.145 0-.284.004-.418.013-.526-1.005-1.559-1.513-3.082-1.513s-2.556.508-3.082 1.513c-.134-.009-.273-.013-.418-.013-2.224 0-3.398 1.08-3.493 3.211-1.333.427-2.007 1.529-2.007 3.289 0 .3.024.582.057.853 1.823-.395 4.819-.853 8.943-.853s7.12.458 8.944.853c.032-.27.056-.553.056-.853 0-1.76-.674-2.862-2.007-3.289zm-9.493 1.289c-.828 0-1.5-.672-1.5-1.5s.672-1.5 1.5-1.5 1.5.672 1.5 1.5-.672 1.5-1.5 1.5zm5 1c-.828 0-1.5-.672-1.5-1.5s.672-1.5 1.5-1.5 1.5.672 1.5 1.5-.672 1.5-1.5 1.5zm1 15h-7c-4.136 0-7.5-3.364-7.5-7.5v-2.27c0-.425.268-.803.668-.943.149-.053 3.737-1.287 10.332-1.287s10.183 1.234 10.332 1.287c.4.141.668.519.668.943v2.27c0 4.136-3.364 7.5-7.5 7.5z"/></svg>