<svg id="Layer_1" viewBox="0 0 24 24" xmlns="http://www.w3.org/2000/svg" data-name="Layer 1"><path d="m22.332 12.287c-.142-.05-3.379-1.16-9.332-1.275v-2.009c2.781 0 5.562.162 8.324.486.807.101 1.572-.488 1.665-1.313.098-.823-.491-1.568-1.313-1.665-2.879-.339-5.777-.508-8.676-.508v-1.668c2.894-.216 5.752-.25 8.517-.25.828 0 1.5-.672 1.5-1.5s-.672-1.5-1.5-1.5c-5.519 0-11.404.119-17.349 1.541-.806.193-1.303 1.002-1.11 1.808.165.688.779 1.151 1.458 1.151.16.003.325-.034.484-.07v.927c-.225.024-.451.043-.676.07-.822.097-1.411.842-1.313 1.665.097.822.838 1.42 1.665 1.313.108-.013.216-.021.324-.033v2.069c-2.111.343-3.249.733-3.332.762-.4.141-.668.519-.668.943v2.27c0 4.136 3.364 7.5 7.5 7.5h7c4.136 0 7.5-3.364 7.5-7.5v-2.27c0-.425-.268-.803-.668-.943zm-12.332-1.245c-.711.028-1.377.07-2 .122v-1.978c.666-.047 1.333-.084 2-.112v1.969zm0-4.972c-.667.027-1.334.062-2 .107v-1.252c.667-.11 1.334-.207 2-.29z"/></svg>