<?xml version="1.0" encoding="UTF-8"?>
<svg xmlns="http://www.w3.org/2000/svg" id="Layer_1" data-name="Layer 1" viewBox="0 0 24 24">
  <path d="M12,1C6.878,1,1,2.25,1,12s5.878,11,11,11,11-1.25,11-11S17.122,1,12,1ZM6.213,12.298c-.82,0-1.484-.664-1.484-1.484s.664-1.484,1.484-1.484,1.484,.664,1.484,1.484-.664,1.484-1.484,1.484Zm2.634-3.906c-.82,0-1.484-.664-1.484-1.484s.664-1.484,1.484-1.484,1.484,.664,1.484,1.484-.664,1.484-1.484,1.484Zm2.634,3.906c-.82,0-1.484-.664-1.484-1.484s.664-1.484,1.484-1.484,1.484,.664,1.484,1.484-.664,1.484-1.484,1.484Z"/>
</svg>
