<svg id="Layer_1" viewBox="0 0 24 24" xmlns="http://www.w3.org/2000/svg" data-name="Layer 1"><path d="m23 13.23v2.27c0 4.136-3.364 7.5-7.5 7.5h-7c-4.136 0-7.5-3.364-7.5-7.5v-2.27c0-.425.268-.803.668-.943.149-.053 3.737-1.287 10.332-1.287s10.183 1.234 10.332 1.287c.4.141.668.519.668.943zm-18.502-3.73c5.584-.639 11.242-.675 16.826-.011.819.108 1.568-.491 1.665-1.313.098-.823-.491-1.568-1.313-1.665-5.758-.678-11.595-.678-17.351 0-.823.097-1.411.842-1.314 1.665.09.763.738 1.324 1.488 1.324zm.017-3.916c5.731-1.299 11.551-1.543 17.002-1.5.828 0 1.5-.672 1.5-1.5s-.672-1.5-1.5-1.5c-5.519 0-11.404.119-17.35 1.541-.806.193-1.302 1.002-1.11 1.808.165.688.78 1.151 1.458 1.151z"/></svg>