<?xml version="1.0" encoding="UTF-8"?>
<svg xmlns="http://www.w3.org/2000/svg" id="Layer_1" data-name="Layer 1" viewBox="0 0 24 24">
  <path d="M4.082,7.669c.911,.801,2.065,1.237,3.295,1.237,1.221,0,2.368-.431,3.276-1.221,.017-.359,.1-.702,.25-1.008,.382-.78,.496-1.651,.326-2.521-.305-1.57-1.567-2.813-3.141-3.093-1.159-.207-2.336,.104-3.229,.852-.897,.751-1.412,1.854-1.412,3.025,0,.558,.115,1.099,.341,1.607,.164,.368,.262,.747,.293,1.122Z"/>
  <path d="M13.328,7.669c.911,.801,2.065,1.237,3.295,1.237,1.221,0,2.368-.431,3.276-1.221,.017-.359,.1-.702,.25-1.008,.382-.78,.496-1.651,.326-2.521-.305-1.57-1.567-2.813-3.141-3.093-1.159-.207-2.336,.104-3.229,.852-.897,.751-1.412,1.854-1.412,3.025,0,.558,.115,1.099,.341,1.607,.164,.368,.262,.747,.293,1.122Z"/>
  <path d="M21.571,11.78l-.021-.045c-.299-.658-.685-1.333-1.062-1.988-1.134,.755-2.465,1.16-3.866,1.16s-2.731-.405-3.866-1.16c-.256,.445-.516,.9-.757,1.366-.236-.457-.499-.916-.758-1.366-1.134,.755-2.465,1.16-3.866,1.16s-2.731-.405-3.866-1.16c-.377,.655-.764,1.332-1.083,2.033-1.344,2.938-.415,6.226,.561,9.078,.047,.138,.124,.264,.225,.369,1.098,1.144,2.577,1.773,4.163,1.773s3.064-.63,4.162-1.773c.101-.105,.178-.231,.225-.369,.079-.232,.158-.466,.236-.703,.078,.237,.156,.472,.236,.703,.047,.138,.124,.264,.225,.369,1.098,1.144,2.577,1.773,4.163,1.773s3.064-.63,4.162-1.773c.101-.105,.178-.231,.225-.369,.976-2.852,1.905-6.141,.561-9.078Z"/>
</svg>
