<svg id="Layer_1" viewBox="0 0 24 24" xmlns="http://www.w3.org/2000/svg" data-name="Layer 1"><path d="m21.812 2.88c-.093-.329-.347-.588-.674-.687-.161-.049-4.007-1.193-9.139-1.193-5.174 0-8.981 1.146-9.141 1.194-.326.1-.578.358-.671.686-.048.172-1.188 4.272-1.188 9.121s1.14 8.948 1.188 9.12c.093.329.347.588.674.687.161.049 4.007 1.193 9.139 1.193 5.175 0 8.982-1.146 9.142-1.194.326-.1.578-.358.671-.686.048-.172 1.188-4.272 1.188-9.121s-1.14-8.948-1.188-9.12zm-4.812 8.12c0 2.414-1.721 4.435-4 4.899v1.101h1c.553 0 1 .448 1 1s-.447 1-1 1h-4c-.553 0-1-.448-1-1s.447-1 1-1h1v-1.101c-2.279-.465-4-2.485-4-4.899v-5c0-.552.447-1 1-1h3.509l-1.856 2.97c-.193.308-.203.697-.027 1.015.177.318.512.515.875.515h1.382l-.776 1.553c-.247.494-.047 1.095.447 1.342.144.072.296.105.446.105.367 0 .72-.202.896-.553l1.5-3c.155-.31.139-.678-.044-.973-.183-.294-.504-.474-.851-.474h-1.195s1.555-2.49 1.561-2.5h2.135c.553 0 1 .448 1 1v5z"/></svg>