<svg id="Layer_1" viewBox="0 0 24 24" xmlns="http://www.w3.org/2000/svg" data-name="Layer 1"><path d="m14.499 14.821c0 1.71-1.673 2.988-2.498 3.514-.824-.528-2.502-1.814-2.502-3.514 0-.491.337-.89.75-.89.342 0 .75.098.75.562 0 .552.447 1 1 1s1-.448 1-1c0-.465.408-.562.75-.562.413 0 .75.399.75.89zm7.861-10.928c-.077-.346-.331-.625-.667-.734-.145-.047-3.605-1.151-9.694-1.151s-9.549 1.104-9.693 1.15c-.336.109-.59.389-.667.734-.02.088-.48 1.178-.638 4.401-.017.336.138.657.409.856.271.198.625.246.939.13.353-.132 3.622-1.286 9.65-1.286s9.297 1.154 9.65 1.286c.113.042.231.062.35.062.552.013 1.039-.495.999-1.049-.157-3.222-.618-4.313-.638-4.401zm-.366 7.426c.056 4.461-.915 8.831-.943 8.856-.089.279-.296.506-.565.619-.111.047-2.488 1.199-8.487 1.199s-8.375-1.152-8.486-1.199c-.27-.113-.477-.34-.565-.619-.024.008-.996-4.383-.943-8.833.351 0 .705-.063 1.046-.189.119-.044 2.949-1.159 8.949-1.159 6.5 0 8.831 1.115 8.955 1.161.335.125.688.164 1.04.164zm-5.495 3.502c0-1.594-1.233-2.89-2.75-2.89-.683 0-1.284.198-1.75.54-.466-.342-1.067-.54-1.75-.54-1.516 0-2.75 1.296-2.75 2.89 0 3.5 3.887 5.483 4.052 5.566.141.07.294.105.447.105s.307-.035.447-.105c.165-.083 4.052-2.067 4.052-5.566z"/></svg>