<?xml version="1.0" encoding="UTF-8"?>
<svg xmlns="http://www.w3.org/2000/svg" id="Layer_1" data-name="Layer 1" viewBox="0 0 24 24">
  <path d="M7.602,4.278c-.008-.329-.013-.658-.013-.983,0-.401,.008-1.257,.023-2.009-2.711,.341-4.616,.869-4.732,.901-.329,.093-.588,.347-.687,.674-.023,.075-.285,.955-.557,2.393,1.246-.286,3.381-.713,5.966-.976Z"/>
  <path d="M16.411,3.295c0,.324-.005,.654-.013,.983,2.589,.263,4.723,.691,5.969,.977-.274-1.445-.538-2.322-.561-2.397-.1-.325-.357-.578-.685-.67-.117-.033-2.02-.562-4.733-.903,.015,.753,.023,1.609,.023,2.01Z"/>
  <path d="M9.589,3.295c0,2.098,.212,4.447,.322,5.521,.481,.163,1.257,.37,2.089,.37s1.606-.207,2.089-.37c.109-1.079,.322-3.438,.322-5.521,0-.483-.011-1.455-.028-2.208-.763-.055-1.562-.087-2.384-.087s-1.62,.033-2.383,.088c-.017,.752-.028,1.724-.028,2.207Z"/>
  <path d="M16.307,6.279c-.115,1.815-.284,3.273-.295,3.365-.04,.343-.254,.641-.566,.788-.065,.031-1.62,.754-3.445,.754s-3.381-.724-3.446-.755c-.312-.147-.525-.444-.566-.787-.011-.091-.181-1.544-.295-3.364-3.111,.326-5.563,.904-6.395,1.115-.171,1.334-.297,2.898-.297,4.605,0,5.175,1.146,8.982,1.194,9.142,.1,.325,.358,.578,.686,.67,.172,.049,4.272,1.188,9.121,1.188s8.947-1.139,9.12-1.188c.329-.093,.588-.347,.687-.674,.049-.161,1.193-4.007,1.193-9.139,0-1.712-.125-3.275-.295-4.605-.83-.211-3.281-.791-6.398-1.116Zm2.071,12.883h-3.234c-.553,0-1-.448-1-1s.447-1,1-1h3.234c.553,0,1,.448,1,1s-.447,1-1,1Z"/>
</svg>
