<svg id="Layer_1" viewBox="0 0 24 24" xmlns="http://www.w3.org/2000/svg" data-name="Layer 1"><path d="m21.812 2.88c-.093-.329-.347-.588-.674-.687-.161-.049-4.007-1.193-9.139-1.193-5.174 0-8.981 1.146-9.141 1.194-.325.1-.578.358-.67.686-.049.172-1.188 4.272-1.188 9.121s1.139 8.948 1.188 9.12c.093.329.347.588.674.687.161.049 4.007 1.193 9.139 1.193 5.175 0 8.982-1.146 9.142-1.194.325-.1.578-.358.67-.686.049-.172 1.188-4.272 1.188-9.121s-1.139-8.948-1.188-9.12zm-4.812 16.12h-8c-.552 0-1-.448-1-1s.448-1 1-1h8c.552 0 1 .448 1 1s-.448 1-1 1zm2.445-7.104c-.143.071-.295.104-.444.104-.368 0-.722-.204-.896-.555-.345-.695-.738-1.207-1.104-1.579v4.134c0 .552-.448 1-1 1s-1-.448-1-1v-4.135c-.366.372-.759.884-1.104 1.579-.337.68-1.454.68-1.791 0-.345-.695-.738-1.207-1.104-1.579v4.134c0 .552-.448 1-1 1s-1-.448-1-1v-4.135c-.366.372-.759.884-1.104 1.579-.245.494-.842.698-1.34.451-.495-.245-.696-.845-.451-1.34 1.386-2.792 3.508-3.481 3.597-3.51.194-.061.402-.061.597 0 .072.022 1.445.469 2.702 2.078 1.256-1.609 2.63-2.056 2.702-2.078.194-.061.402-.061.597 0 .089.028 2.211.718 3.597 3.51.246.495.044 1.095-.451 1.34z"/></svg>