<?xml version="1.0" encoding="UTF-8"?>
<svg xmlns="http://www.w3.org/2000/svg" id="Layer_1" data-name="Layer 1" viewBox="0 0 24 24">
  <path d="M22.99,8.549l-.631-4.818c-.05-.381-.354-.693-.762-.782-.184-.04-4.546-.976-9.6-.976S2.587,2.909,2.403,2.949c-.407,.089-.711,.4-.762,.781l-.637,4.774c-.05,.888,.802,1.093,1.2,1.007,1.433-.309,5.272-.931,9.793-.931,2.183,0,5.654,.167,9.791,.976,.806,.158,1.272-.506,1.201-1.005Z"/>
  <path d="M11.998,10.739c-4.562,0-8.466,.602-10.113,.938-.001,.108-.002,.215-.002,.322,0,4.688,1.049,8.139,1.094,8.284,.1,.325,.358,.577,.687,.668,.157,.044,3.905,1.075,8.336,1.075s8.178-1.031,8.336-1.075c.328-.091,.588-.345,.688-.671,.045-.146,1.093-3.633,1.093-8.281,0-.09-.001-.181-.002-.271-4.27-.818-7.851-.99-10.115-.99Zm1.916,4.828h-3.831c-.553,0-1-.448-1-1s.447-1,1-1h3.831c.553,0,1,.448,1,1s-.447,1-1,1Z"/>
</svg>
