<svg id="Layer_1" viewBox="0 0 24 24" xmlns="http://www.w3.org/2000/svg" data-name="Layer 1"><path d="m13.502 23c-1.78-.19-3.628-.657-3.537-.64-.552-.146-.974-.594-1.086-1.154-.026-.131-.607-3.047-.862-6.366-.703-.602-1.301-1.283-1.78-2.031-.315-.493-.315-1.125 0-1.618.48-.749 1.077-1.43 1.78-2.032.255-3.317.838-6.225.863-6.355.111-.55.521-.992 1.06-1.146.056-.016 1.363-.384 3.366-.646.817-.109 1.574.472 1.682 1.293s-.472 1.574-1.293 1.682c-.838.109-1.538.24-2.045.347-.207 1.201-.545 3.403-.685 5.679-.027.442-.249.85-.605 1.114-.36.267-.687.559-.973.873.286.314.612.606.974.874.356.264.577.671.604 1.113.14 2.27.476 4.471.683 5.679.508.103 1.209.231 2.059.349.821.114 1.394.872 1.279 1.692-.104.75-.747 1.293-1.483 1.293z"/></svg>