<svg id="Layer_1" viewBox="0 0 24 24" xmlns="http://www.w3.org/2000/svg" data-name="Layer 1"><path d="m16 12c0 4.485-.994 8.989-1.036 9.179-.127.57-.575 1.016-1.147 1.139-.071.016-1.775.381-4.133.672-.807.102-1.575-.48-1.673-1.306-.101-.822.483-1.571 1.306-1.673 1.191-.146 2.215-.315 2.909-.44.281-1.512.774-4.59.774-7.57s-.493-6.059-.774-7.57c-.694-.125-1.718-.294-2.909-.441-.822-.101-1.406-.85-1.306-1.672.102-.823.853-1.404 1.673-1.306 2.357.29 4.062.656 4.133.671.572.124 1.021.568 1.147 1.14.042.189 1.036 4.693 1.036 9.178z"/></svg>