<svg id="Layer_1" viewBox="0 0 24 24" xmlns="http://www.w3.org/2000/svg" data-name="Layer 1"><path d="m23 12c0 4.485-.994 8.989-1.036 9.179-.127.57-.575 1.016-1.147 1.139-.071.016-1.776.381-4.133.672-.807.102-1.574-.48-1.672-1.306-.101-.822.483-1.571 1.306-1.673 1.191-.146 2.214-.315 2.909-.44.281-1.512.774-4.59.774-7.57s-.493-6.059-.774-7.57c-.695-.125-1.718-.294-2.909-.44-.822-.102-1.407-.851-1.306-1.673s.847-1.396 1.672-1.306c2.357.291 4.062.656 4.133.672.572.123 1.02.568 1.147 1.139.042.189 1.036 4.693 1.036 9.179zm-15.317-8.011c.822-.102 1.407-.851 1.306-1.673-.102-.822-.852-1.397-1.672-1.306-2.357.291-4.062.656-4.133.672-.572.123-1.02.568-1.147 1.139-.042.189-1.036 4.693-1.036 9.179s.994 8.989 1.036 9.179c.127.57.575 1.016 1.147 1.139.071.016 1.776.381 4.133.672.807.102 1.574-.48 1.672-1.306.101-.822-.483-1.571-1.306-1.673-1.191-.146-2.214-.315-2.909-.44-.281-1.512-.774-4.59-.774-7.57s.493-6.059.774-7.57c.695-.125 1.718-.294 2.909-.44z"/></svg>