<svg id="Layer_1" viewBox="0 0 24 24" xmlns="http://www.w3.org/2000/svg" data-name="Layer 1"><path d="m10.498 23c-.737 0-1.38-.543-1.483-1.293-.114-.821.458-1.578 1.279-1.692.85-.118 1.551-.246 2.059-.349.207-1.208.543-3.409.683-5.679.027-.442.248-.85.604-1.113.361-.268.688-.56.974-.874-.286-.314-.612-.606-.973-.873-.356-.264-.578-.671-.605-1.114-.14-2.276-.478-4.478-.685-5.679-.507-.107-1.207-.237-2.045-.347-.821-.107-1.4-.86-1.293-1.682.107-.821.86-1.401 1.682-1.293 2.003.262 3.311.63 3.366.646.539.154.948.596 1.06 1.146.025.13.608 3.038.863 6.355.703.602 1.3 1.283 1.78 2.032.315.493.315 1.125 0 1.618-.479.749-1.077 1.43-1.78 2.031-.255 3.319-.836 6.235-.862 6.366-.112.56-.534 1.007-1.086 1.154.091-.018-1.757.45-3.537.64z"/></svg>