<?xml version="1.0" encoding="UTF-8"?>
<svg xmlns="http://www.w3.org/2000/svg" id="Layer_1" data-name="Layer 1" viewBox="0 0 24 24">
  <path d="M11,6.015c-.048-2.274-1.519-3.005-3.463-3.015-1.933,.01-3.388,.722-3.461,2.953-1.177,.336-1.963,1.171-1.998,2.831,.01,.484,.089,.9,.228,1.255-.79,.614-1.274,1.593-1.305,3.069,.037,1.881,.88,2.988,2.174,3.531-.057,.276-.091,.579-.098,.911,.05,2.506,1.738,3.436,3.962,3.449,2.232-.012,3.91-.89,3.962-3.449V6.015Z"/>
  <path d="M13,6.015c.048-2.274,1.519-3.005,3.463-3.015,1.933,.01,3.388,.722,3.461,2.953,1.177,.336,1.963,1.171,1.998,2.831-.01,.484-.089,.9-.228,1.255,.79,.614,1.274,1.593,1.305,3.069-.037,1.881-.88,2.988-2.174,3.531,.057,.276,.091,.579,.098,.911-.05,2.506-1.738,3.436-3.962,3.449-2.232-.012-3.91-.89-3.962-3.449V6.015Z"/>
</svg>
