<?xml version="1.0" encoding="UTF-8"?>
<svg xmlns="http://www.w3.org/2000/svg" id="Layer_1" data-name="Layer 1" viewBox="0 0 24 24">
  <path d="M9.222,15.841c-.274,.305-.671,.497-1.113,.497-.826,0-1.496-.67-1.496-1.496s.67-1.497,1.496-1.497c.442,0,.839,.192,1.113,.496h1.778v-3.646h-1.778c-.274,.305-.671,.496-1.113,.496-.826,0-1.496-.67-1.496-1.497s.67-1.497,1.496-1.497c.442,0,.839,.192,1.113,.497h1.778v-2.179c-.048-2.274-1.519-3.005-3.463-3.015-1.933,.01-3.388,.722-3.461,2.953-1.177,.336-1.963,1.171-1.998,2.831,.01,.484,.089,.9,.228,1.255-.79,.614-1.274,1.593-1.305,3.069,.037,1.881,.88,2.988,2.174,3.531-.057,.276-.091,.579-.098,.911,.05,2.506,1.738,3.436,3.962,3.449,2.232-.012,3.91-.89,3.962-3.449v-1.71h-1.778Z"/>
  <path d="M23,13.108c-.031-1.476-.515-2.455-1.305-3.069,.139-.355,.218-.772,.228-1.255-.035-1.66-.821-2.495-1.998-2.831-.073-2.231-1.528-2.943-3.461-2.953-1.944,.01-3.416,.741-3.463,3.015v5.929c.783-.026,1.558-.098,2.08-.154,.075-.337,.153-.8,.174-1.33-.301-.274-.491-.669-.491-1.108,0-.827,.67-1.497,1.497-1.497s1.497,.67,1.497,1.497c0,.444-.194,.843-.501,1.117-.048,1.452-.433,2.528-.451,2.576-.126,.349-.436,.599-.803,.649-.068,.009-1.508,.206-3.002,.251v3.606c.052,2.559,1.73,3.437,3.962,3.449,2.224-.013,3.912-.943,3.962-3.449-.007-.332-.04-.635-.098-.911,1.294-.544,2.136-1.65,2.174-3.531Z"/>
</svg>
