<svg id="Layer_1" viewBox="0 0 24 24" xmlns="http://www.w3.org/2000/svg" data-name="Layer 1"><path d="m22.876 12.94c-.062-.112-1.543-2.774-4.91-6.142-3.368-3.368-5.593-4.604-5.686-4.655-.147-.081-.312-.123-.48-.123-2.735 0-5.433.456-6.904.754l-1.335-1.335c-.586-.586-1.535-.586-2.121 0-.586.585-.586 1.536 0 2.121l1.342 1.342c-.298 1.475-.75 4.162-.75 6.886 0 .167.042.332.122.479.051.093 1.277 2.309 4.646 5.677s6.048 4.868 6.16 4.93c.303.168.672.166.975-.003.106-.06 2.621-1.487 5.041-3.908 2.422-2.421 3.84-4.949 3.899-5.055.167-.301.168-.667.002-.968zm-14.876-2.94c-1.429 0-2-.571-2-2 0-.201.014-.38.038-.548l-.745-.745c-.391-.391-.391-1.023 0-1.414s1.023-.391 1.414 0l.745.745c.168-.023.347-.038.548-.038 1.429 0 2 .571 2 2s-.571 2-2 2zm11.795 4.099c-.55.72-2.13 2.386-2.726 2.979-.59.588-2.349 2.273-3.069 2.824-.258.198-.595.256-.903.161-.248-.077-.812-.354-1.811-1.35-.778-.79-1.327-1.623-1.333-1.798-.101-.313-.041-.655.159-.915.554-.72 2.229-2.491 2.818-3.078.595-.594 2.262-2.173 2.983-2.719.271-.205.626-.257.943-.144.227.082.752.364 1.734 1.344.987.984 1.272 1.527 1.354 1.762.11.317.054.668-.149.935zm-2.034-.653c-.358.435-1.728 1.842-2.103 2.216-.377.375-1.883 1.855-2.324 2.217-.334-.255-.949-.912-1.197-1.21.363-.439 1.83-1.956 2.206-2.33.374-.373 1.78-1.74 2.214-2.096.295.238.97.911 1.204 1.204z"/></svg>