<?xml version="1.0" encoding="UTF-8"?>
<svg xmlns="http://www.w3.org/2000/svg" id="Layer_1" data-name="Layer 1" viewBox="0 0 24 24">
  <path d="M20.604,3.42c-1.47-1.457-6.888-5.6-14.898,2.348C2.583,8.866,1,11.96,1,14.963c0,2.122,.831,4.115,2.34,5.612,.8,.794,2.771,2.385,5.695,2.385,2.444,0,5.556-1.112,9.203-4.732,3.16-3.136,4.762-6.225,4.762-9.181,0-2.096-.852-4.094-2.396-5.627Zm-10.316,13.852c-.195,.196-.452,.295-.709,.295-.255,0-.51-.097-.705-.291-.399-.396-1.266-.995-2.616-.53-.519,.175-1.09-.1-1.27-.623-.179-.522,.101-1.091,.623-1.27,1.729-.591,3.433-.227,4.673,1.005,.392,.389,.394,1.021,.004,1.414Zm4.216-4.186c-.195,.197-.453,.296-.71,.296-.255,0-.509-.097-.704-.29-.487-.483-1.339-.971-2.616-.531-.524,.176-1.091-.101-1.271-.622-.179-.522,.1-1.091,.622-1.271,1.732-.593,3.434-.226,4.673,1.004,.393,.389,.395,1.022,.006,1.414Zm4.295-4.266c-.195,.197-.453,.296-.71,.296-.255,0-.509-.097-.704-.29-.488-.483-1.334-.968-2.618-.531-.519,.176-1.092-.1-1.27-.623-.179-.522,.101-1.091,.623-1.27,1.729-.591,3.433-.226,4.673,1.004,.393,.389,.395,1.022,.006,1.414Z"/>
</svg>
