<svg id="Layer_1" viewBox="0 0 24 24" xmlns="http://www.w3.org/2000/svg" data-name="Layer 1"><path d="m8.43 21.999c-2.837-.006-4.185-.357-4.633-.51-.315-.107-.557-.364-.644-.686-.347-1.281-1.154-4.605-1.154-7.804 0-1.169.082-2.759.245-4.029-.647-.48-1.217-1.325-1.245-2.811.029-1.727.825-2.998 2.131-3.45 0 0 1.869-.711 4.869-.711s4.868.712 4.868.712c1.282.41 2.103 1.694 2.132 3.412-.027 1.504-.59 2.354-1.229 2.836.152 1.23.229 2.825.229 4.04 0 4.187-.996 7.41-1.11 7.764-.071.223-.232.394-.426.518-1.324.649-2.678.711-4.034.717zm14.57-15.518c-.03-1.718-.85-3.001-2.135-3.413-.09-.035-1.862-1.069-5.74-1.327 1.15.99 1.843 2.525 1.875 4.347v.036s0 .036 0 .036c-.03 1.629-.536 2.757-1.138 3.527.092.988.139 2.337.139 3.314 0 4.495-1.082 7.992-1.205 8.375-.06.187-.137.365-.23.533l.009.023c4.11-.224 5.682-.941 5.873-1.037.237-.119.417-.327.501-.578.043-.129 1.051-3.202 1.051-7.316 0-1.169-.082-2.4-.244-3.67.647-.482 1.217-1.334 1.244-2.849z"/></svg>