<svg id="Layer_1" viewBox="0 0 24 24" xmlns="http://www.w3.org/2000/svg" data-name="Layer 1"><path d="m12 5c-.829 0-1.5-.671-1.5-1.5v-1c0-.829.671-1.5 1.5-1.5s1.5.671 1.5 1.5v1c0 .829-.671 1.5-1.5 1.5zm1.5 16.5v-1c0-.829-.671-1.5-1.5-1.5s-1.5.671-1.5 1.5v1c0 .829.671 1.5 1.5 1.5s1.5-.671 1.5-1.5zm9.5-9.5c0-.829-.671-1.5-1.5-1.5h-1c-.829 0-1.5.671-1.5 1.5s.671 1.5 1.5 1.5h1c.829 0 1.5-.671 1.5-1.5zm-18 0c0-.829-.671-1.5-1.5-1.5h-1c-.829 0-1.5.671-1.5 1.5s.671 1.5 1.5 1.5h1c.829 0 1.5-.671 1.5-1.5zm14.071-4.95.707-.707c.586-.585.586-1.536 0-2.121-.586-.586-1.535-.586-2.121 0l-.707.707c-.586.585-.586 1.536 0 2.121.586.586 1.535.586 2.121 0zm-12.728 12.728.707-.707c.586-.585.586-1.536 0-2.121-.586-.586-1.535-.586-2.121 0l-.707.707c-.586.585-.586 1.536 0 2.121.586.586 1.535.586 2.121 0zm13.435 0c.586-.585.586-1.536 0-2.121l-.707-.707c-.586-.586-1.535-.586-2.121 0-.586.585-.586 1.536 0 2.121l.707.707c.586.586 1.535.586 2.121 0zm-12.728-12.728c.586-.585.586-1.536 0-2.121l-.707-.707c-.586-.586-1.535-.586-2.121 0-.586.585-.586 1.536 0 2.121l.707.707c.586.586 1.535.586 2.121 0zm9.95 4.95c0-3.411-1.589-5-5-5s-5 1.589-5 5 1.589 5 5 5 5-1.589 5-5z"/></svg>