<?xml version="1.0" encoding="UTF-8"?>
<svg xmlns="http://www.w3.org/2000/svg" id="Layer_1" data-name="Layer 1" viewBox="0 0 24 24">
  <path d="M15.176,17.993c-.734,.37-1.518,.623-2.332,.753v1.5c0,.553-.448,1-1,1s-1-.447-1-1v-1.432c-1.445-.13-2.818-.647-3.988-1.499-.014,.002-.028,.003-.043,.005-.105,.01-.211,.017-.318,.022l1.156,3.865c.037,.123,.097,.238,.177,.338,.119,.149,1.244,1.457,4.013,1.457,2.549,0,3.817-1.247,3.953-1.389,.109-.114,.19-.254,.236-.405l.839-2.796c-.58-.068-1.149-.209-1.692-.418Z"/>
  <path d="M20.881,7.612c.081-.363,.121-.734,.121-1.109,0-2.826-2.291-5.125-5.106-5.125-.981,0-1.927,.279-2.738,.799-1.019-.855-2.34-1.283-3.691-1.154-2.135,.199-3.839,1.718-4.382,3.683,.467,1.194,1.341,2.169,2.481,2.758,.491,.254,.683,.857,.429,1.348-.178,.344-.527,.541-.889,.541-.154,0-.312-.036-.458-.111-1.288-.666-2.331-1.687-3.019-2.938-1.524,.945-2.472,2.702-2.295,4.61,.12,1.299,.736,2.474,1.736,3.308,1,.835,2.268,1.229,3.563,1.107,.268-.024,.532-.071,.789-.14,1.117,1.062,2.595,1.659,4.15,1.659,1.269,0,2.486-.395,3.504-1.125,.781,.479,1.685,.737,2.613,.737,2.757,0,5-2.243,5-5,0-1.492-.677-2.905-1.808-3.847Z"/>
</svg>
