<svg id="Layer_1" viewBox="0 0 24 24" xmlns="http://www.w3.org/2000/svg" data-name="Layer 1"><path d="m15.939 8.061c-.586-.585-.586-1.536 0-2.121l1.133-1.133c-.043-.25-.072-.514-.072-.807 0-1.991 1.01-3 3-3s3 1.009 3 3-1.01 3-3 3c-.292 0-.557-.029-.807-.072l-1.133 1.133c-.586.586-1.535.586-2.121 0zm-9.011-3.254c.043-.25.072-.514.072-.807 0-1.991-1.01-3-3-3s-3 1.009-3 3 1.01 3 3 3c.292 0 .557-.029.807-.072l1.133 1.133c.586.586 1.535.586 2.121 0 .586-.585.586-1.536 0-2.121zm13.072 12.193c-.292 0-.557.029-.807.072l-1.133-1.133c-.586-.586-1.535-.586-2.121 0-.586.585-.586 1.536 0 2.121l1.133 1.133c-.043.25-.072.514-.072.807 0 1.991 1.01 3 3 3s3-1.009 3-3-1.01-3-3-3zm-14.061-1.061-1.133 1.133c-.25-.043-.515-.072-.807-.072-1.99 0-3 1.009-3 3s1.01 3 3 3 3-1.009 3-3c0-.292-.029-.557-.072-.807l1.133-1.133c.586-.585.586-1.536 0-2.121-.586-.586-1.535-.586-2.121 0zm6.023-5.168c-.456-.008-.823-.414-.821-.869 0-.483.394-.876.877-.876.371 0 .703.235.827.584.184.52.758.795 1.275.609.521-.184.794-.755.609-1.276-.29-.82-.932-1.441-1.717-1.732v-.185c0-.552-.447-1-1-1s-1 .448-1 1v.191c-1.09.409-1.872 1.454-1.872 2.685-.006 1.567 1.296 2.868 2.872 2.868.622 0 1.128.506 1.128 1.128s-.5 1.128-1.115 1.128c-.531 0-1.057-.357-1.222-.83-.183-.521-.752-.795-1.274-.614-.521.182-.796.752-.614 1.274.333.952 1.129 1.689 2.085 2.003v.167c0 .552.447 1 1 1s1-.448 1-1v-.172c1.239-.414 2.141-1.575 2.141-2.956 0-1.724-1.401-3.126-3.179-3.126z"/></svg>