<?xml version="1.0" encoding="UTF-8"?>
<svg xmlns="http://www.w3.org/2000/svg" id="Layer_1" data-name="Layer 1" viewBox="0 0 24 24">
  <path d="M14.662,3.085c-.116-.05-2.885-1.23-6.155-1.23S2.47,3.034,2.354,3.084c-.303,.13-.521,.402-.586,.725-.031,.159-.768,3.952-.768,9.021,0,4.032,.469,7.272,.67,8.479,.08,.482,.498,.835,.986,.835H14.356c.489,0,.906-.354,.986-.836,.202-1.214,.671-4.471,.671-8.478,0-5.113-.736-8.866-.768-9.023-.063-.322-.282-.592-.584-.723Zm-7.938,15.739h-.997c-.553,0-1-.448-1-1s.447-1,1-1h.997c.553,0,1,.448,1,1s-.447,1-1,1Zm0-3.575h-.997c-.553,0-1-.448-1-1s.447-1,1-1h.997c.553,0,1,.448,1,1s-.447,1-1,1Zm0-3.574h-.997c-.553,0-1-.448-1-1s.447-1,1-1h.997c.553,0,1,.448,1,1s-.447,1-1,1Zm0-3.575h-.997c-.553,0-1-.448-1-1s.447-1,1-1h.997c.553,0,1,.448,1,1s-.447,1-1,1Zm4.562,10.724h-.996c-.553,0-1-.448-1-1s.447-1,1-1h.996c.553,0,1,.448,1,1s-.447,1-1,1Zm0-3.575h-.996c-.553,0-1-.448-1-1s.447-1,1-1h.996c.553,0,1,.448,1,1s-.447,1-1,1Zm0-3.574h-.996c-.553,0-1-.448-1-1s.447-1,1-1h.996c.553,0,1,.448,1,1s-.447,1-1,1Zm0-3.575h-.996c-.553,0-1-.448-1-1s.447-1,1-1h.996c.553,0,1,.448,1,1s-.447,1-1,1Z"/>
  <path d="M22.466,10.33c-.067-.325-.292-.594-.599-.72-.077-.032-1.848-.75-3.999-.819,.086,1.209,.146,2.573,.146,4.04,0,4.164-.488,7.545-.698,8.807-.029,.175-.073,.345-.13,.507h4.457c.495,0,.915-.362,.989-.852,.168-1.119,.368-2.895,.368-4.997,0-3.375-.512-5.862-.534-5.966Zm-2.501,9.426c-.843,0-1.526-.683-1.526-1.526s.683-1.526,1.526-1.526,1.526,.683,1.526,1.526-.683,1.526-1.526,1.526Zm.128-5.146c-.843,0-1.526-.683-1.526-1.526s.683-1.526,1.526-1.526,1.526,.683,1.526,1.526-.683,1.526-1.526,1.526Z"/>
</svg>
