<svg id="Layer_1" viewBox="0 0 24 24" xmlns="http://www.w3.org/2000/svg" data-name="Layer 1"><path d="m5.037 9.259c-2.461-1.312-3.555-2.36-3.749-2.557-.384-.39-.384-1.016 0-1.405.194-.197 1.288-1.245 3.749-2.557 2.615-1.394 4.226-1.71 4.293-1.723.478-.088.96.18 1.127.642.017.049.352 1.018.486 2.841h2.995c.32-.344.825-.5 1.563-.5h4.5c1.429 0 2 .571 2 2s-.571 2-2 2h-4.5c-.737 0-1.243-.156-1.563-.5h-2.995c-.134 1.823-.468 2.792-.486 2.841-.166.464-.655.734-1.127.642-.067-.013-1.678-.329-4.293-1.723zm-3.168 9.094c-.19.224-.272.52-.226.809.205 1.249.379 2.051.379 2.051.083.382.382.681.763.764.116.026 1.855.402 4.215.691v-4.668h-4.369c-.293 0-.572.129-.762.353zm20.131-7.353h-8c-.553 0-1 .448-1 1v4h9.78c.128-1.253.22-2.627.22-4 0-.552-.447-1-1-1zm-5 11.668c2.36-.289 4.098-.665 4.215-.691.381-.083.679-.381.762-.762.022-.099.298-1.379.559-3.214h-5.535v4.668zm-8 .203c.969.078 1.984.13 3 .13s2.031-.052 3-.13v-4.87h-6z"/></svg>