<svg id="Layer_1" viewBox="0 0 24 24" xmlns="http://www.w3.org/2000/svg" data-name="Layer 1"><path d="m5.23 9.154c-.009-.06-.23-1.501-.23-3.654s.222-3.594.23-3.654c.069-.439.419-.78.86-.837.443-.055.866.185 1.044.591l1.354 3.095c-.042-1.536-.193-2.529-.195-2.54-.084-.546.289-1.057.835-1.142.548-.079 1.057.289 1.142.833.009.06.23 1.501.23 3.654s-.222 3.594-.23 3.654c-.069.439-.419.78-.86.837-.434.058-.868-.183-1.044-.591l-1.354-3.095c.042 1.536.193 2.529.195 2.54.084.546-.289 1.057-.835 1.142-.546.084-1.056-.289-1.142-.833zm17.77-4.821v2.333c0 2.212-.925 3.333-2.75 3.333s-2.75-1.122-2.75-3.333v-2.333c0-2.212.925-3.333 2.75-3.333s2.75 1.122 2.75 3.333zm-2 0c0-1.333-.267-1.333-.75-1.333s-.75 0-.75 1.333v2.333c0 1.333.267 1.333.75 1.333s.75 0 .75-1.333zm-5 .667h-1c-.553 0-1 .448-1 1 0 .546.438.991.982 1-.078 1-.41 1-.732 1-.483 0-.75 0-.75-1.333v-2.333c0-1.333.267-1.333.75-1.333.521 0 .565.128.632.323.18.522.751.799 1.27.623.522-.179.802-.747.623-1.27-.262-.764-.912-1.676-2.524-1.676-1.825 0-2.75 1.122-2.75 3.333v2.333c0 2.212.925 3.333 2.75 3.333 1.255 0 2.75-.607 2.75-3.5v-.5c0-.552-.447-1-1-1zm.992 6.171c.004.274.008.55.008.829 0 5.032-.761 9.286-.793 9.464-.073.4-.382.717-.78.8-.144.03-3.557.735-6.427.735s-6.283-.706-6.427-.735c-.398-.083-.707-.4-.78-.8-.032-.179-.793-4.432-.793-9.464s.761-9.286.793-9.464c.073-.4.382-.717.78-.8.036-.008.281-.058.671-.129-.052.36-.244 1.829-.244 3.894 0 2.146.209 3.661.255 3.966.257 1.631 1.804 2.753 3.425 2.498.39-.061.75-.194 1.069-.384.454.27.981.42 1.532.42.787.006 1.573-.333 2.111-.88.841.617 1.864.88 2.857.88.95 0 1.924-.253 2.742-.829zm-8.992 7.829c0-.552-.447-1-1-1h-1c-.553 0-1 .448-1 1s.447 1 1 1h1c.553 0 1-.448 1-1zm0-4c0-.552-.447-1-1-1h-1c-.553 0-1 .448-1 1s.447 1 1 1h1c.553 0 1-.448 1-1zm5 4c0-.552-.447-1-1-1h-1c-.553 0-1 .448-1 1s.447 1 1 1h1c.553 0 1-.448 1-1zm0-4c0-.552-.447-1-1-1h-1c-.553 0-1 .448-1 1s.447 1 1 1h1c.553 0 1-.448 1-1z"/></svg>