<svg id="Layer_1" viewBox="0 0 24 24" xmlns="http://www.w3.org/2000/svg" data-name="Layer 1"><path d="m9.722 9.94c2.484 0 4.925-.31 5.967-.461-.165 3.753-2.011 5.461-5.967 5.461s-5.802-1.707-5.967-5.461c1.042.151 3.484.461 5.967.461zm-5.746-2.479c.118.02 2.905.479 5.747.479s5.628-.459 5.746-.479c.817-.136 1.369-.908 1.233-1.726-.11-.661-.637-1.143-1.268-1.232-.593-2.165-2.119-3.28-4.711-3.503v2.94c0 .552-.448 1-1 1-.552 0-1-.448-1-1v-2.94c-2.593.223-4.119 1.339-4.711 3.505-.629.091-1.158.571-1.268 1.231-.136.817.416 1.59 1.233 1.726zm18.456 12.653c-.028-.005-.704-.114-1.932-.114s-1.903.109-1.932.114c-.162.026-.301.132-.371.281-.02.043-.197.441-.197 1.104 0 .64.174 1.05.193 1.095.068.154.209.264.375.291.028.005.704.114 1.932.114s1.903-.109 1.932-.114c.166-.027.307-.137.375-.291.02-.045.193-.455.193-1.095s-.174-1.05-.193-1.095c-.068-.154-.209-.264-.375-.291zm-6 0c-.028-.005-.704-.114-1.932-.114s-1.903.109-1.932.114c-.163.026-.302.132-.372.282-.02.043-.197.44-.197 1.104 0 .64.173 1.05.192 1.095.068.154.209.264.376.291.028.005.704.114 1.932.114s1.903-.109 1.932-.114c.166-.027.307-.137.375-.291.02-.045.193-.455.193-1.095s-.174-1.05-.193-1.095c-.068-.154-.209-.264-.375-.291zm3.375-1.52c.02-.045.193-.455.193-1.095s-.174-1.05-.193-1.095c-.068-.154-.209-.264-.375-.291-.028-.005-.704-.114-1.932-.114s-1.903.109-1.932.114c-.162.026-.301.132-.371.281-.02.043-.197.441-.197 1.104 0 .64.174 1.05.193 1.095.068.154.209.264.375.291.028.005.704.114 1.932.114s1.903-.109 1.932-.114c.166-.027.307-.137.375-.291zm-1.238-3.709c.028.005.704.114 1.932.114s1.903-.109 1.932-.114c.166-.027.307-.137.375-.291.02-.045.193-.455.193-1.095s-.174-1.05-.193-1.095c-.068-.154-.209-.264-.375-.291-.028-.005-.704-.114-1.932-.114s-1.903.109-1.932.114c-.162.026-.301.132-.371.281-.02.043-.197.441-.197 1.104 0 .64.174 1.05.193 1.095.068.154.209.264.375.291zm3.902 1.143c-.585.034-.899.086-.899.086-.163.026-.304.132-.374.281-.02.043-.197.441-.197 1.104 0 .64.174 1.05.193 1.095.068.154.211.265.378.291 0 0 .314.052.899.086.278.023.536-.22.529-.499v-1.945c.006-.279-.251-.522-.529-.499zm-9.437 2.025c-.018-.174-.034-.354-.034-.553 0-.478.062-.88.138-1.201-.995-.24-2.13-.359-3.416-.359-5.083 0-7.847 1.839-8.7 5.789-.063.295.01.604.199.839.19.235.476.372.778.372h8.205c-.103-.349-.204-.829-.204-1.44 0-1.015.269-1.7.384-1.948.349-.75 1.046-1.279 1.864-1.412.037-.006.311-.049.786-.086z"/></svg>