<svg id="Layer_1" viewBox="0 0 24 24" xmlns="http://www.w3.org/2000/svg" data-name="Layer 1"><path d="m17.027 4.852c.055-1.501.208-1.745.577-2.113.637-.637.607-.62.719-.732 1.016-1.016 1.889-1.21 2.375-.819.517.414.214 1.905.214 1.905s1.492-.304 1.905.214c.379.475.201 1.351-.823 2.375-.112.112-.094.081-.73.717-.428.428-.613.552-2.128.587l-4.575 4.575c-.586.586-1.535.586-2.121 0-.586-.585-.586-1.536 0-2.121l4.588-4.588zm5.92 5.547c-.055-.828-.762-1.453-1.598-1.396-.826.056-1.451.771-1.395 1.598.029.444.045.91.045 1.399 0 5.981-2.019 8-8 8s-8-2.019-8-8 2.02-8 8.001-8c.487 0 .952.015 1.396.046.836.051 1.543-.566 1.601-1.392.058-.827-.565-1.543-1.392-1.601-.51-.035-1.044-.053-1.604-.053-7.608 0-11.001 3.393-11.001 11s3.393 11 11 11 11-3.393 11-11c0-.559-.018-1.093-.053-1.601zm-12.18-1.304c.815-.148 1.356-.928 1.208-1.744-.148-.815-.928-1.355-1.744-1.208-4.232.767-4.232 4.598-4.232 5.857 0 4.038 1.962 6 6 6 1.259 0 5.091 0 5.856-4.233.147-.815-.394-1.596-1.209-1.743-.809-.143-1.595.393-1.742 1.209-.182 1.001-.511 1.767-2.905 1.767s-3-.617-3-3 .766-2.724 1.768-2.905z"/></svg>