<svg id="Layer_1" viewBox="0 0 24 24" xmlns="http://www.w3.org/2000/svg" data-name="Layer 1"><path d="m7.934 22.951c-1.834-.098-3.316-.326-4.322-.525-.298-.059-.553-.25-.693-.52-2.416-4.656-1.933-9.79-1.912-10.006.04-.392.304-.724.677-.849.128-.043 3.189-1.052 8.064-1.052h.005c-2.119 1.129-3.589 3.318-3.722 5.823-.065 1.196-.03 2.349.142 3.63.18 1.364.826 2.578 1.762 3.498zm15.04-6.951c-.086-2.377-1.869-4.392-4.196-4.756-2.067-.324-4.488-.324-6.556 0-2.327.364-4.109 2.378-4.196 4.756zm-3.157 2-1.984 1.677c-.583.437-1.387.43-1.963-.017l-2.103-1.659h-5.73c.026.383.064.78.119 1.191.221 1.672 1.459 3.03 3.083 3.382 2.587.568 5.937.568 8.524 0 1.623-.352 2.861-1.71 3.082-3.382.054-.411.093-.808.119-1.191h-3.146zm-14.961-9.667c.873-.123 1.882-.227 3.011-.284-.62-2.969-1.43-4.998-1.475-5.11-.311-.768-1.182-1.14-1.951-.829-.768.309-1.14 1.183-.832 1.951.009.023.69 1.743 1.247 4.272zm-3.347.682c.556-.158 1.575-.412 2.981-.627-.58-1.527-1.141-2.548-1.178-2.615-.401-.725-1.312-.987-2.037-.584-.724.4-.987 1.312-.587 2.037.007.013.386.718.821 1.789zm6.637-.978c.512-.022 1.044-.036 1.603-.036.487 0 .951.012 1.403.029-.179-3.43-.659-5.724-.684-5.842-.173-.81-.964-1.327-1.778-1.154-.81.172-1.328.968-1.156 1.778.005.026.438 2.115.613 5.225zm9.826.974c.434-1.044.832-1.77.84-1.783.401-.724.14-1.637-.584-2.038-.722-.402-1.636-.142-2.039.581-.04.073-.626 1.137-1.199 2.615 1.4.213 2.42.466 2.982.625zm-3.289-.672c.547-2.537 1.207-4.275 1.216-4.299.297-.772-.087-1.641-.859-1.938-.772-.301-1.64.085-1.939.857-.044.112-.82 2.143-1.426 5.092 1.128.059 2.137.164 3.008.288z"/></svg>