<svg id="Layer_1" viewBox="0 0 24 24" xmlns="http://www.w3.org/2000/svg" data-name="Layer 1"><path d="m1 9c0-.575.016-.428.042-.927.179-3.367 2.701-6.187 5.999-6.703 3.129-.49 6.79-.49 9.919 0 3.297.517 5.82 3.336 5.998 6.704.027.499.042.352.042.927 0 .552-.448 1-1 1h-20c-.552 0-1-.448-1-1zm21 8h-20c-.634-.016-1.142.641-.968 1.25.541 2.09 2.194 3.662 4.315 4.105 4.021.859 9.285.859 13.306 0 2.122-.443 3.775-2.016 4.315-4.105.174-.609-.334-1.266-.968-1.25zm-.5-5h-19c-.829 0-1.5.671-1.5 1.5s.671 1.5 1.5 1.5h19c.829 0 1.5-.672 1.5-1.5s-.671-1.5-1.5-1.5z"/></svg>