<svg id="Layer_1" viewBox="0 0 24 24" xmlns="http://www.w3.org/2000/svg" data-name="Layer 1"><path d="m9.267 12.5h-8.151c-.045.475-.096.975-.116 1.5h6.174c-.064.634-.12 1.323-.15 2h-6.024c.02.464.074.976.109 1.5h5.899c.016.569.054 1.272.104 2h-5.848c.117 1.382.232 2.506.242 2.602.052.511.482.898.995.898h6.823c-.121-1.337-.323-4.521-.323-6 0-1.54.157-3.386.267-4.5z"/><path d="m16.826 14h6.174c-.019-.525-.071-1.025-.116-1.5h-8.152c.111 1.115.268 2.963.268 4.5 0 1.482-.202 4.664-.323 6h6.823c.513 0 .942-.389.995-.898.01-.096.124-1.22.241-2.602h-5.848c.05-.728.089-1.431.105-2h5.898c.036-.525.09-1.036.11-1.5h-6.024c-.03-.677-.086-1.366-.15-2z"/><path d="m21.497 6.575s-.002-.004-.003-.006c.004-.044.006-.088.006-.132v-3.437c0-.828-.672-1.5-1.5-1.5s-1.5.672-1.5 1.5v1.278c-2.254-1.533-5.123-3.278-6.5-3.278-2.08 0-7.561 3.979-9.191 5.199-.131.099-.236.228-.306.376-.041.087-.686 1.489-1.118 3.925h21.23c-.432-2.436-1.077-3.838-1.118-3.925zm-9.497.925c-.828 0-1.5-.672-1.5-1.5s.672-1.5 1.5-1.5 1.5.672 1.5 1.5-.672 1.5-1.5 1.5z"/></svg>