<svg id="Layer_1" viewBox="0 0 24 24" xmlns="http://www.w3.org/2000/svg" data-name="Layer 1"><path d="m21.256 10c-1.429 0-2 .571-2 2 0 0-.026.808-.256 2l-2.023.205c.014-.649.023-1.521.023-2.205 0-1.919-.064-3.949-.189-6.024-.189-3.72-1.403-4.976-4.811-4.976s-4.622 1.256-4.81 4.966c-.06.982-.102 2.218-.135 3.239l-2.055-.205c-.231-1.192-.256-2-.256-2 0-1.429-.571-2-2-2s-2 .571-2 2c0 0 0 2.3.882 4.693.087.236.259.428.481.544.495.257 2.825.666 4.893.763.01.18-.026 1.075.029 1.232.097 3.984.417 7.258.421 7.29.039.381.292.706.652.837.086.031 2.142.641 3.898.641s3.812-.61 3.898-.641c.359-.131.613-.456.652-.837.004-.023.152-1.626.264-3.522 2.041-.126 4.502-.562 5.058-.805.243-.106.434-.313.524-.563.86-2.372.86-4.632.86-4.632 0-1.429-.571-2-2-2zm-9.256 11c-.828 0-1.5-.672-1.5-1.5s.672-1.5 1.5-1.5 1.5.672 1.5 1.5-.672 1.5-1.5 1.5zm0-5c-.828 0-1.5-.672-1.5-1.5s.672-1.5 1.5-1.5 1.5.672 1.5 1.5-.672 1.5-1.5 1.5zm0-5c-.828 0-1.5-.672-1.5-1.5s.672-1.5 1.5-1.5 1.5.672 1.5 1.5-.672 1.5-1.5 1.5zm0-5c-.828 0-1.5-.672-1.5-1.5s.672-1.5 1.5-1.5 1.5.672 1.5 1.5-.672 1.5-1.5 1.5z"/></svg>