<svg id="Layer_1" viewBox="0 0 24 24" xmlns="http://www.w3.org/2000/svg" data-name="Layer 1"><path d="m10.743 16.363c-.164.415-.64.608-1.04.446 0 0-.312-.108-.903-.169v5.56c0 .441-.358.8-.8.8s-.8-.358-.8-.8v-5.56c-.594.061-.907.171-.912.172-.41.151-.872-.051-1.03-.459-.158-.409.038-.867.445-1.03.083-.033.851-.323 2.297-.323s2.214.29 2.297.323c.411.164.61.63.446 1.04zm12.122 5.312c-.008-.008-.638-.744-1.417-2.072 1.045-1.965 1.509-3.511 1.528-3.576.125-.424-.116-.868-.54-.994-.419-.122-.868.115-.995.539-.003.012-.295.965-.911 2.282-.617-1.318-.908-2.271-.912-2.282-.126-.424-.573-.662-.995-.539-.423.126-.665.57-.54.994.02.064.483 1.61 1.529 3.575-.779 1.328-1.409 2.063-1.417 2.072-.29.333-.255.838.078 1.128.332.289.835.258 1.127-.076.028-.031.496-.577 1.129-1.561.633.984 1.101 1.529 1.128 1.561.291.334.796.365 1.127.076.333-.29.367-.795.078-1.128zm-6.641-3.061c.772 2.241.777 3.534.777 3.588 0 .441-.359.798-.8.798h-.002c-.442 0-.799-.36-.797-.802 0-.004-.008-.425-.169-1.198h-2.463c-.161.774-.168 1.196-.169 1.202-.003.44-.362.797-.802.796-.44 0-.797-.355-.798-.796 0-.054.005-1.347.777-3.588.725-2.103 1.448-3.115 1.585-3.297.302-.4.974-.4 1.275 0 .138.182.861 1.194 1.585 3.297zm-1.427.786c-.227-.731-.566-1.539-.796-2.005-.229.465-.569 1.274-.796 2.005h1.591zm-.796-12.4h-7.001v2h7v-2zm-8.801 15.2c0 .104.02.202.031.303-1.464-.254-2.462-.516-2.542-.537-.357-.095-.633-.378-.717-.737-.04-.168-.971-4.172-.971-9.23s.931-9.061.97-9.229c.084-.359.36-.642.717-.737.159-.042 3.948-1.033 7.812-1.033s7.652.991 7.812 1.033c.357.095.633.378.717.737.04.168.971 4.172.971 9.23 0 .423-.009.835-.021 1.242-.586-.258-1.263-.319-1.925-.126-.712.212-1.272.687-1.617 1.286-.084-.125-.156-.228-.202-.289-.499-.662-1.293-1.066-2.141-1.095-.852-.031-1.683.345-2.218.978-.244-.221-.522-.405-.837-.531-.28-.111-1.304-.466-3.039-.466-1.745 0-2.771.358-3.041.467-1.414.566-2.117 2.185-1.566 3.609.321.83 1.007 1.422 1.807 1.664v3.46zm-.2-12.2c0 .552.448 1 1 1h9c.552 0 1-.448 1-1v-4c0-.552-.448-1-1-1h-9c-.552 0-1 .448-1 1z"/></svg>