<svg id="Layer_1" viewBox="0 0 24 24" xmlns="http://www.w3.org/2000/svg" data-name="Layer 1"><path d="m22.9 10.456c-1.03-.321-5.078-1.456-10.9-1.456s-9.871 1.135-10.9 1.456c-.061.797-.1 1.649-.1 2.544 0 4.587.996 8.126 1.039 8.275.095.332.354.592.687.687.148.042 3.699 1.039 9.275 1.039s9.126-.996 9.275-1.039c.332-.095.592-.354.687-.687.042-.148 1.039-3.688 1.039-8.275 0-.894-.039-1.746-.1-2.544zm-7.1 7.143c-.91 1.214-1.986 2.29-3.2 3.2-.355.267-.844.267-1.199 0-1.214-.91-2.29-1.986-3.2-3.2-.332-.441-.242-1.068.2-1.399.44-.331 1.067-.243 1.399.2.368.489.774.945 1.2 1.381v-5.782c0-.553.447-1 1-1s1 .447 1 1v5.782c.427-.436.833-.892 1.2-1.381.331-.442.959-.53 1.399-.2.442.331.532.958.2 1.399zm-3.8-10.6c-5.111 0-8.874.818-10.668 1.305.294-2.112.681-3.489.707-3.58.095-.332.354-.592.687-.687.06-.017.688-.192 1.775-.393v-1.146c0-.828.672-1.5 1.5-1.5s1.5.672 1.5 1.5v.724c1.286-.13 2.797-.224 4.5-.224s3.214.093 4.5.224v-.724c0-.828.672-1.5 1.5-1.5s1.5.672 1.5 1.5v1.146c1.086.201 1.715.375 1.775.392.332.095.592.354.687.687.026.091.413 1.469.707 3.58-1.794-.488-5.558-1.305-10.668-1.305z"/></svg>