<svg id="Layer_1" viewBox="0 0 24 24" xmlns="http://www.w3.org/2000/svg" data-name="Layer 1"><path d="m1.139 10h3.861v3h-4c0-1.068.055-2.075.139-3zm9.861 5h-4v3h4zm12-2c0-1.068-.055-2.075-.139-3h-3.861v3zm-18 2h-3.936c.068 1.112.183 2.126.313 3h3.624v-3zm6-2v-3h-4v3zm6 0v-3h-4v3zm-12 7h-3.266c.161.761.29 1.223.305 1.274.095.332.354.592.687.688.069.019.878.245 2.275.48v-2.442zm17.936-5h-3.936v3h3.624c.13-.874.245-1.888.313-3zm-.313-7c-.287-1.937-.637-3.188-.662-3.274-.095-.332-.354-.592-.687-.688-.069-.019-.878-.245-2.275-.48v-1.058c0-.829-.672-1.5-1.5-1.5s-1.5.671-1.5 1.5v.677c-1.173-.105-2.512-.177-4-.177s-2.827.072-4 .177v-.677c0-.829-.672-1.5-1.5-1.5s-1.5.671-1.5 1.5v1.058c-1.397.236-2.206.461-2.275.48-.332.096-.592.355-.687.688-.025.087-.375 1.338-.662 3.274h21.249zm-3.624 12v2.442c1.397-.236 2.206-.461 2.275-.48.332-.096.592-.355.687-.688.015-.051.143-.513.305-1.274h-3.266zm-6-5v3h4v-3zm-2 7.989v-2.989h-3.999v2.722c1.143.13 2.482.235 4 .267zm6-2.989h-4v2.989c1.518-.033 2.857-.137 4-.267z"/></svg>