<?xml version="1.0" encoding="UTF-8"?>
<svg xmlns="http://www.w3.org/2000/svg" id="Layer_1" data-name="Layer 1" viewBox="0 0 24 24">
  <path d="M11.377,6.791c4.491,0,8.471,.768,10.071,1.123-.327-2.208-.796-3.621-.818-3.688-.108-.321-.372-.566-.7-.65-.051-.013-.462-.117-1.142-.254v-.822c0-.829-.671-1.5-1.5-1.5s-1.5,.671-1.5,1.5v.34c-1.296-.158-2.808-.278-4.407-.278s-3.11,.121-4.407,.279v-.341c0-.829-.671-1.5-1.5-1.5s-1.5,.671-1.5,1.5v.822c-.68,.137-1.091,.241-1.142,.254-.33,.084-.594,.331-.701,.654-.03,.09-.491,1.5-.815,3.674,1.554-.344,5.536-1.113,10.061-1.113Z"/>
  <path d="M9.61,20.432c.076-1.737,.794-3.37,2.022-4.6l4.857-4.722c.885-.885,2.17-1.404,3.505-1.404,.093,0,.186,.003,.279,.008-1.828-.366-5.216-.922-8.897-.922-5.44,0-10.282,1.219-10.297,1.222-.05,.66-.079,1.359-.079,2.089,0,4.455,1.085,7.738,1.131,7.876,.108,.321,.372,.566,.7,.65,.091,.023,2.266,.576,5.273,.856,.02,.002,.858,.003,1.459,.004l.046-1.056Z"/>
  <path d="M22.121,12.554c-1.135-1.135-3.123-1.125-4.238-.01l-4.836,4.702c-.874,.875-1.385,2.038-1.439,3.273l-.063,1.437c.05,1.098,1.028,1.043,1.043,1.043l1.435-.063c1.235-.054,2.397-.565,3.262-1.43l4.836-4.702c1.171-1.171,1.171-3.078,0-4.25Z"/>
</svg>
