<svg id="Layer_1" viewBox="0 0 24 24" xmlns="http://www.w3.org/2000/svg" data-name="Layer 1"><path d="m12 7c-5.111 0-8.874.818-10.668 1.305.294-2.112.681-3.489.707-3.58.095-.332.354-.592.687-.687.06-.017.688-.192 1.775-.393v-1.146c0-.829.671-1.5 1.5-1.5s1.5.671 1.5 1.5v.724c1.286-.13 2.797-.224 4.5-.224s3.214.093 4.5.224v-.724c0-.829.671-1.5 1.5-1.5s1.5.671 1.5 1.5v1.146c1.086.201 1.715.375 1.775.392.332.095.592.354.687.687.026.091.413 1.469.707 3.58-1.794-.488-5.558-1.305-10.668-1.305zm11 6c0 4.587-.996 8.126-1.039 8.275-.095.332-.354.592-.687.687-.148.042-3.699 1.039-9.275 1.039s-9.126-.996-9.275-1.039c-.332-.095-.592-.354-.687-.687-.042-.148-1.039-3.688-1.039-8.275 0-.894.039-1.746.1-2.544 1.03-.321 5.078-1.456 10.9-1.456s9.871 1.135 10.9 1.456c.061.797.1 1.649.1 2.544zm-7.163 1.839c-.084-.272-.318-.469-.601-.505-.657-.085-1.24-.147-1.788-.188-.242-.584-.509-1.166-.8-1.744-.124-.244-.375-.418-.648-.398-.273-.02-.524.154-.648.398-.291.579-.558 1.161-.8 1.744-.548.041-1.132.103-1.788.188-.282.036-.517.234-.601.505-.084.272 0 .567.212.756.435.387.855.76 1.277 1.119-.184.641-.338 1.283-.46 1.923-.051.267.051.541.265.708.215.168.504.202.752.086.655-.304 1.244-.619 1.791-.953.548.333 1.136.649 1.791.953.247.116.537.082.752-.086.214-.168.316-.441.265-.708-.122-.64-.276-1.281-.46-1.923.422-.359.842-.732 1.277-1.119.213-.189.296-.485.212-.756z"/></svg>