<?xml version="1.0" encoding="UTF-8"?>
<svg xmlns="http://www.w3.org/2000/svg" id="Layer_1" data-name="Layer 1" viewBox="0 0 24 24">
  <path d="M22.714,8.668c-.3-2.26-.732-3.855-.76-3.943-.105-.336-.381-.592-.725-.673-.066-.016-.704-.164-1.729-.344v-1.208c0-.829-.672-1.5-1.5-1.5s-1.5,.671-1.5,1.5v.783c-1.348-.147-2.891-.257-4.5-.257s-3.151,.11-4.5,.257v-.783c0-.829-.671-1.5-1.5-1.5s-1.5,.671-1.5,1.5v1.208c-1.025,.179-1.663,.327-1.729,.343-.345,.081-.621,.338-.726,.676-.028,.089-.457,1.691-.756,3.939,1.417-.411,5.688-1.44,10.648-1.44s9.364,1.029,10.778,1.44Z"/>
  <path d="M22.936,10.771c-1.64-.458-6.039-1.544-10.936-1.544s-9.295,1.085-10.935,1.544c-.041,.649-.065,1.338-.065,2.06,0,4.702,.995,8.292,1.037,8.442,.099,.35,.379,.618,.733,.702,.178,.042,4.403,1.026,9.23,1.026s9.052-.984,9.229-1.026c.354-.083,.637-.354,.734-.704,.042-.152,1.036-3.777,1.036-8.44,0-.723-.024-1.411-.064-2.059Zm-9.936,8.229H7c-.552,0-1-.448-1-1s.448-1,1-1h6c.552,0,1,.448,1,1s-.448,1-1,1Zm4-4H7c-.552,0-1-.448-1-1s.448-1,1-1h10c.552,0,1,.448,1,1s-.448,1-1,1Z"/>
</svg>
