<svg id="Layer_1" viewBox="0 0 24 24" xmlns="http://www.w3.org/2000/svg"><path d="m12 7c-5.111 0-8.874.818-10.668 1.305.294-2.112.681-3.489.707-3.58.095-.332.354-.592.687-.687.06-.017.688-.192 1.775-.393v-1.146c0-.829.672-1.5 1.5-1.5s1.5.671 1.5 1.5v.724c1.286-.13 2.797-.224 4.5-.224s3.214.093 4.5.224v-.724c0-.829.672-1.5 1.5-1.5s1.5.671 1.5 1.5v1c0 .049-.01.096-.014.143 1.096.202 1.729.378 1.789.395.332.095.592.354.687.687.026.091.413 1.469.707 3.58-1.794-.488-5.558-1.305-10.668-1.305zm-2.664 11.834c-.759-1.492-.171-3.301 1.302-4.052.419-.215.874-.322 1.329-.325.391-.449.793-.88 1.202-1.289.409-.41.841-.812 1.291-1.203.003-.454.108-.91.323-1.33.347-.679.923-1.159 1.583-1.417-1.306-.131-2.766-.218-4.367-.218-5.822 0-9.871 1.135-10.9 1.456-.061.797-.1 1.649-.1 2.544 0 4.587.996 8.126 1.039 8.275.095.332.354.592.687.687.148.042 3.699 1.039 9.275 1.039.221 0 .434-.004.649-.007-.292-.239-.586-.494-.867-.775-1.364-1.363-2.277-3.058-2.446-3.383zm13.225 1.605-2.01-2.01c.346-.393.646-.758.887-1.065.298.208.688.241 1.016.071.492-.251.688-.852.438-1.344-.035-.067-.854-1.662-2.088-2.896s-2.828-2.053-2.896-2.087c-.492-.25-1.093-.055-1.344.437-.197.386-.112.835.169 1.134-.577.454-1.351 1.105-2.15 1.904s-1.45 1.573-1.904 2.15c-.299-.281-.746-.368-1.133-.169-.492.251-.688.852-.438 1.344.035.067.854 1.662 2.088 2.896s2.828 2.053 2.896 2.087c.482.248 1.091.06 1.344-.437.172-.337.122-.72-.077-1.013.308-.242.675-.544 1.07-.892l2.01 2.01c.586.586 1.535.586 2.121 0 .586-.585.586-1.536 0-2.121z"/></svg>