<?xml version="1.0" encoding="UTF-8"?>
<svg xmlns="http://www.w3.org/2000/svg" id="Layer_1" data-name="Layer 1" viewBox="0 0 24 24">
  <path d="M22.737,6.635c-.212-1.397-.478-2.252-.496-2.31-.107-.337-.385-.594-.733-.675-.039-.009-.347-.08-.855-.175v-.974c0-.829-.679-1.5-1.518-1.5s-1.518,.671-1.518,1.5v.55c-.851-.08-1.789-.135-2.762-.135s-1.91,.055-2.762,.135v-.551c0-.829-.679-1.5-1.518-1.5s-1.518,.671-1.518,1.5v.974c-.507,.095-.816,.166-.855,.175-.349,.082-.628,.34-.734,.679-.018,.059-.282,.917-.493,2.307,1.7-.417,4.637-.992,7.879-.992s6.182,.576,7.881,.992Z"/>
  <path d="M22.959,8.76c-1.37-.374-4.54-1.117-8.103-1.117s-6.731,.743-8.102,1.117c-.026,.441-.042,.907-.042,1.393,0,3.371,.72,5.951,.75,6.059,.099,.35,.383,.62,.741,.704,.128,.03,3.175,.734,6.652,.734s6.524-.705,6.652-.734c.359-.084,.644-.354,.742-.706,.031-.109,.75-2.714,.75-6.056,0-.487-.015-.953-.041-1.393Z"/>
  <path d="M20.211,19.405s-3.121,.595-5.62,.595c-3.774,0-7.167-.838-7.852-1.017l-1.267-.321-.415-1.219c-.108-.318-1.059-3.225-1.059-7.212,0-.925,.053-1.873,.159-2.818,.092-.823-.501-1.565-1.325-1.657-.819-.094-1.565,.501-1.657,1.325-.118,1.055-.177,2.115-.177,3.15,0,4.471,1.094,7.813,1.218,8.179l.676,1.99c.164,.481,.56,.846,1.052,.971l2.076,.526c.989,.259,4.531,1.104,8.569,1.104,2.951,0,6.113-.636,6.113-.636,.817-.136,1.369-.909,1.233-1.726-.136-.818-.91-1.375-1.726-1.233Z"/>
</svg>
