<?xml version="1.0" encoding="UTF-8"?>
<svg xmlns="http://www.w3.org/2000/svg" id="Layer_1" data-name="Layer 1" viewBox="0 0 24 24">
  <path d="M18.516,3.982c-.548-1.236-1.229-2.014-1.267-2.058-.106-.121-.241-.213-.392-.271-.07-.026-1.75-.653-4.857-.653s-4.785,.626-4.855,.653c-.153,.058-.289,.153-.397,.275-.039,.044-.713,.823-1.259,2.052,1.708-.234,4.008-.461,6.512-.461s4.807,.229,6.516,.463Z"/>
  <path d="M12,11.42c-1.882,0-2.837,.439-2.837,2.838s.955,2.84,2.837,2.84,2.837-.439,2.837-2.84-.955-2.838-2.837-2.838Z"/>
  <path d="M21.725,7.044c-.122-.311-.391-.54-.716-.611-.171-.038-4.219-.914-9.009-.914s-8.837,.876-9.008,.914c-.327,.072-.597,.303-.719,.615-.049,.127-1.211,3.168-1.211,7.211,0,4.079,1.163,7.09,1.213,7.216,.122,.311,.391,.54,.716,.611,.171,.037,4.219,.914,9.009,.914s8.837-.876,9.008-.914c.327-.071,.597-.303,.719-.615,.049-.127,1.211-3.168,1.211-7.212,0-4.078-1.163-7.089-1.213-7.215Zm-9.725,12.055c-3.255,0-4.837-1.583-4.837-4.84s1.582-4.838,4.837-4.838,4.837,1.583,4.837,4.838-1.582,4.84-4.837,4.84Z"/>
</svg>
