<svg id="Layer_1" viewBox="0 0 24 24" xmlns="http://www.w3.org/2000/svg" data-name="Layer 1"><path d="m22.98 15c-.136 3.812-1.004 6.178-1.044 6.284-.104.276-.323.492-.602.591-.129.046-3.232 1.125-9.335 1.125s-9.206-1.079-9.335-1.125c-.278-.099-.498-.315-.602-.591-.04-.107-.908-2.472-1.044-6.284h6.045c.3 2.715 1.883 4 4.937 4s4.637-1.285 4.937-4zm-15.918-2h-6.042c.136-3.812 1.004-6.178 1.044-6.284.104-.276.324-.492.602-.591.337-.123.806-.243 1.335-.357v-.268c0-.829.671-1.5 1.5-1.5.756 0 1.374.56 1.479 1.287 1.188-.144 2.368-.239 3.25-.252.525-1.74 1.242-2.956 1.276-3.014.11-.185.276-.329.475-.411.06-.025 1.495-.61 4.021-.61s3.961.585 4.021.61c.156.065.293.168.398.3.094.118.938 1.228 1.638 3.829.557 2.07.855 4.52.917 7.26h-6.037c-.3-2.715-1.883-4-4.937-4s-4.637 1.285-4.937 4zm5.938-9c0 .552.448 1 1 1h4c.552 0 1-.448 1-1s-.448-1-1-1h-4c-.552 0-1 .448-1 1zm-4 10c0 2.299.701 3 3 3s3-.701 3-3-.701-3-3-3-3 .701-3 3z"/></svg>