<svg id="Layer_1" viewBox="0 0 24 24" xmlns="http://www.w3.org/2000/svg" data-name="Layer 1"><path d="m21.967 7.106c-.096-.364-.389-.644-.756-.723-.168-.036-4.162-.884-9.211-.884s-9.043.848-9.211.884c-.367.079-.66.358-.756.723-.042.159-1.033 3.951-1.033 7.144s.991 6.984 1.033 7.144c.096.364.389.644.756.723.168.036 4.162.884 9.211.884s9.043-.848 9.211-.884c.367-.079.66-.358.756-.723.042-.159 1.033-3.951 1.033-7.144s-.991-6.984-1.033-7.144zm-5.301 9.724c-.934 2.67-3.743 2.67-4.666 2.67-1.041 0-1.867-.156-2.557-.443l-.651.651c-.55.584-1.609.228-1.697-.565-.127-.895-.127-1.803 0-2.697.063-.439.409-.785.849-.849.895-.127 1.803-.127 2.697 0 .375.054.688.314.807.674.155.435-.042.884-.384 1.167.281.038.585.064.936.064 2.134 0 2.553-.687 2.777-1.33.183-.521.753-.795 1.274-.614.521.183.796.753.614 1.274zm.238-4.274c-.063.439-.409.785-.849.849-.447.063-.898.096-1.349.096s-.901-.032-1.349-.096c-.375-.054-.688-.314-.807-.674-.155-.436.043-.885.386-1.168-.27-.037-.572-.062-.938-.062-2.134 0-2.553.687-2.777 1.33-.182.527-.767.794-1.274.614-.521-.183-.796-.753-.614-1.274.934-2.67 3.743-2.67 4.666-2.67 1.018 0 1.865.149 2.563.437l.644-.644c.549-.584 1.609-.228 1.697.565.127.895.127 1.803 0 2.697zm-11.234-8.655c.501-1.182 1.007-1.951 1.038-1.996.148-.221.378-.372.638-.423.102-.02 2.503-.482 4.654-.482s4.553.463 4.654.482c.26.051.489.202.638.423.031.045.537.814 1.038 1.996-1.688-.209-3.892-.401-6.33-.401s-4.642.192-6.33.401z"/></svg>