<?xml version="1.0" encoding="UTF-8"?>
<svg xmlns="http://www.w3.org/2000/svg" id="Layer_1" data-name="Layer 1" viewBox="0 0 24 24">
  <path d="M21.078,2.97c-2.343-2.331-5.231-1.879-5.353-1.859-.204,.034-.392,.131-.539,.276-.687,.681-.982,1.733-1.011,2.79-2.128-.598-5.37-.816-8.146,1.912-2.776,2.728-2.545,5.958-1.93,8.084-1.051,.033-2.097,.325-2.772,.994-.152,.151-.252,.347-.285,.559-.019,.121-.434,3.005,1.88,5.305,1.664,1.655,3.601,1.907,4.629,1.907,.42,0,.688-.042,.724-.048,.204-.034,.392-.131,.539-.276,.687-.681,.982-1.732,1.011-2.789,2.129,.597,5.372,.816,8.147-1.913,2.817-2.768,2.591-5.977,1.968-8.086,1.039-.04,2.069-.333,2.735-.993,.152-.15,.251-.346,.284-.558,.019-.121,.434-3.005-1.88-5.305Zm-5.91,12.724c-.797,.783-1.664,1.148-2.729,1.148-1.054,0-2.04-.373-2.534-.596-.504-.228-.728-.819-.501-1.323,.227-.504,.821-.725,1.322-.501,.28,.127,1.007,.42,1.712,.42,.534,0,.906-.161,1.326-.574,.394-.388,1.028-.382,1.414,.012,.387,.394,.382,1.027-.012,1.414Z"/>
</svg>
