<?xml version="1.0" encoding="UTF-8"?>
<svg xmlns="http://www.w3.org/2000/svg" id="Layer_1" data-name="Layer 1" viewBox="0 0 24 24">
  <path d="M22.983,9.651c-.049-.639-.201-1.27-.462-1.905-.098,.32-.221,.654-.374,1.002-.947,2.164-2.689,4.162-3.983,5.456-3.275,3.276-4.794,2.806-7.987-.388l-.016-.016c-1.457-1.458-2.497-2.594-2.623-3.908-.133-1.38,.762-2.579,2.25-4.068,3.275-3.276,4.793-2.806,7.987,.389,.303,.304,.383,.766,.198,1.153-.042,.086-1.042,2.131-3.428,3.142-.514,.217-1.107-.023-1.325-.537-.217-.515,.023-1.108,.537-1.326,.984-.417,1.639-1.09,2.011-1.573-2.102-2.047-2.469-1.899-4.551,.184-1.216,1.216-1.714,1.947-1.667,2.442,.062,.641,.999,1.629,2.04,2.671l.016,.016c2.63,2.63,2.869,2.648,5.129,.388,1.655-1.656,2.92-3.374,3.56-4.836,.622-1.421,.579-2.398,.351-3.051-.232-.262-.481-.526-.75-.795-2.59-2.59-6.659-5.41-12.068,0-2.241,2.242-3.251,4.372-3.086,6.513,.114,1.48,.778,2.92,2.07,4.458L1.439,20.437c-.586,.586-.586,1.536,0,2.121,.293,.293,.677,.439,1.061,.439s.768-.146,1.061-.439l5.372-5.374c1.337,1.124,2.969,2.068,4.882,2.068,1.785,0,3.816-.822,6.082-3.089,2.241-2.242,3.25-4.372,3.086-6.513Z"/>
</svg>
