<svg id="Layer_1" viewBox="0 0 24 24" xmlns="http://www.w3.org/2000/svg" data-name="Layer 1"><path d="m6 4c0-.827.67-1.869 1.234-2.6.386-.501 1.145-.501 1.531 0 .564.731 1.234 1.774 1.234 2.6 0 1.429-.571 2-2 2s-2-.571-2-2zm12.5 10c-1.251 0-2.215.256-2.947.782-.673.483-.826 1.42-.344 2.093.483.672 1.422.828 2.094.343.113-.082.42-.218 1.197-.218 1.317 0 1.5.182 1.5 1.5s-.183 1.5-1.5 1.5h-5.736c.115-1.338.236-3.161.236-5 0-3.533-.437-6.521-.455-6.646-.059-.398-.352-.723-.742-.822-.084-.022-2.097-.531-3.803-.531s-3.719.509-3.803.531c-.39.1-.683.424-.742.822-.019.125-.455 3.113-.455 6.646 0 1.839.12 3.662.236 5h-.736c-.829 0-1.5.671-1.5 1.5s.671 1.5 1.5 1.5h16c2.986 0 4.5-1.514 4.5-4.5s-1.514-4.5-4.5-4.5z"/></svg>