<svg id="Layer_1" viewBox="0 0 24 24" xmlns="http://www.w3.org/2000/svg" data-name="Layer 1"><path d="m8.208 15.206c1.783-1.782 4.494-2.616 6.093-2.974.413.827.724 1.679.965 2.522-1.685.387-3.562 1.128-4.972 2.537s-2.154 3.297-2.541 4.985c-.844-.239-1.696-.556-2.524-.968.355-1.596 1.187-4.31 2.979-6.103zm-1.414-1.414c1.897-1.896 4.539-2.869 6.395-3.351-.619-.829-1.354-1.6-2.267-2.25-.209-.148-.465-.209-.719-.175-.133.019-3.272.485-5.99 3.206-2.719 2.721-3.185 5.863-3.203 5.995-.035.253.027.511.176.719.651.914 1.419 1.658 2.249 2.277.48-1.857 1.454-4.516 3.359-6.42zm4.914 4.914c-1.095 1.095-1.683 2.617-2 4.012 1.744.316 4.154.346 5.335.203.463-.053.828-.418.881-.882.021-.191.26-2.514-.214-5.331-1.392.318-2.91.906-4.002 1.998zm4.3-14.063c2.682 0 5.238 1.181 6.891 2.152.149-1.023.174-2.089-.012-3.194-.043-.252-.181-.477-.384-.632-.107-.081-2.657-1.971-6.502-1.969-3.846.001-6.398 1.894-6.504 1.974-.204.154-.342.38-.384.633-.186 1.106-.169 2.176-.019 3.2 1.653-.974 4.221-2.165 6.915-2.165zm0 2c-1.07 0-2.129.243-3.107.583.868.739 1.606 1.554 2.208 2.425.296-.035.595-.059.898-.059 1.994 0 3.845.804 5.31 1.721.427-.767.809-1.589 1.102-2.466-1.384-.878-3.89-2.205-6.411-2.206zm1.626 9.388c.707-.68 1.682-1.708 2.617-3.021-1.153-.724-2.561-1.349-4.028-1.406.704 1.478 1.149 3.001 1.412 4.427z"/></svg>