<svg id="Layer_1" viewBox="0 0 24 24" xmlns="http://www.w3.org/2000/svg" data-name="Layer 1"><path d="m13.997 12.468c-.015 2.407-.135 3.909-.14 3.975-.19 3.393-1.093 6.557-6.357 6.557s-6.167-3.164-6.359-6.583c-.004-.041-.123-1.542-.138-3.948 1.161.19 3.641.532 6.497.532s5.336-.341 6.497-.532zm-6.497-1.468c2.984 0 5.597-.405 6.483-.558-.036-1.759-.121-2.824-.124-2.858-.192-3.419-1.095-6.583-6.359-6.583s-6.167 3.163-6.357 6.556c-.005.055-.09 1.124-.126 2.885.886.154 3.499.558 6.483.558zm8.355-3.529s.07.865.112 2.315c1.285-.948 2.242-1.769 2.667-2.145-.955-1.478-1.586-2.339-1.607-2.367-.681-.977-1.423-1.877-2.285-2.527.937 1.78 1.057 3.731 1.113 4.724zm5.822 5.344c-.03-.059-.717-1.4-1.968-3.456-.691.6-2.016 1.697-3.711 2.859-.008 2.646-.143 4.32-.149 4.391-.066 1.194-.229 3.873-1.937 5.886 1.487.766 3.33.76 5.797-.762 4.48-2.764 3.587-5.931 1.967-8.918z"/></svg>