<svg id="Layer_1" viewBox="0 0 24 24" xmlns="http://www.w3.org/2000/svg" data-name="Layer 1"><path d="m23 17c0 2.62-1.38 4-4 4h-3.5c-.83 0-1.5-.67-1.5-1.5s.67-1.5 1.5-1.5h3.5c.95 0 1-.05 1-1s-.05-1-1-1h-5c-2.62 0-4-1.38-4-4s1.38-4 4-4c.83 0 1.5.67 1.5 1.5s-.67 1.5-1.5 1.5c-.95 0-1 .05-1 1s.05 1 1 1h5c2.62 0 4 1.38 4 4zm-5.59-8.03c.21.63.79 1.02 1.42 1.02.15 0 .31-.02.46-.07.78-.25 1.21-1.09.97-1.88 0 0-.14-.47-.22-1.38.22-.11.45-.23.7-.38 1.29-.75 1.89-1.37 1.99-1.49.34-.38.35-.95 0-1.33-.06-.07-.65-.71-2-1.5-1.02-.59-1.75-.84-2.09-.94-.29-.08-.64-.06-.87.15-.35.32-.94 2.35-.78 3.81-.13 1.71.37 4.12.4 3.99zm-6.43 8.75c-.64-.59-1.38-.7-1.75-.72-.21-.83-.5-1.7-.9-2.3-.11-.17-.28-.3-.47-.38-.14-.05-.92-.32-2.55-.32s-2.55.31-2.65.34c-.25.09-.46.28-.57.53-.04.1-1.09 2.46-1.09 6.13 0 .55.45 1 1 1h.05c.13.7.57 1 1.45 1s1.32-.3 1.45-1h1.55c.54 0 1.05-.03 1.53-.06.11.75.56 1.06 1.47 1.06 1.06 0 1.49-.42 1.5-1.47.13-.03.23-.05.24-.06.44-.11.76-.51.76-.97 0-1.22-.34-2.16-1.02-2.78z"/></svg>