<?xml version="1.0" encoding="UTF-8"?>
<svg xmlns="http://www.w3.org/2000/svg" id="Layer_1" data-name="Layer 1" viewBox="0 0 24 24">
  <g>
    <path d="M1.998,9.11c0,.472,.015,.925,.04,1.356H7.059c.311-.963,.603-1.577,.669-1.708,.319-.645,.857-1.153,1.518-1.434,.163-.069,1.225-.5,2.894-.764H2.123c-.074,.804-.125,1.675-.125,2.55Z"/>
    <path d="M6.542,12.466H2.238c.198,1.39,.45,2.27,.467,2.33,.083,.285,.288,.516,.556,.635l-.002,1.011c-.001,.828,.669,1.501,1.498,1.502h.002c.827,0,1.499-.67,1.5-1.498,0,0,.003-1.928,.004-1.928,.055-.736,.155-1.425,.279-2.053Z"/>
    <path d="M15.233,4.56c-.162-1.087-.317-1.801-.324-1.833-.071-.325-.299-.593-.608-.716-.104-.041-2.58-1.01-5.502-1.01S3.402,1.969,3.297,2.01c-.31,.123-.539,.392-.609,.718-.013,.061-.165,.771-.323,1.832H15.233Z"/>
  </g>
  <g>
    <path d="M18.288,16.142v1.077c0,.552-.448,1-1,1s-1-.448-1-1v-1.248c-.483-.026-.98-.041-1.485-.041s-1.002,.015-1.485,.041v1.248c0,.552-.448,1-1,1s-1-.448-1-1v-1.076c-1.676,.196-3.016,.479-3.673,.632-.023,.278-.041,.625-.041,1.009,0,.944,.112,1.652,.117,1.682,.068,.422,.396,.754,.818,.827,.014,.002,.068,.012,.158,.026v.292c0,1.318,1.067,2.39,2.378,2.39,1.26,0,2.294-.99,2.373-2.236,.438,.016,.892,.025,1.356,.025s.918-.009,1.356-.025c.079,1.247,1.113,2.236,2.372,2.236,1.311,0,2.378-1.072,2.378-2.39v-.292c.089-.014,.143-.023,.158-.026,.423-.072,.752-.406,.819-.83,.005-.03,.116-.744,.116-1.68,0-.386-.019-.733-.041-1.009-.657-.153-1.996-.436-3.673-.632Z"/>
    <path d="M14.803,13.93c2.648,0,5.046,.369,6.54,.664-.224-2.851-1.214-4.861-1.261-4.955-.106-.212-.284-.38-.502-.473-.078-.033-1.943-.814-4.776-.814s-4.697,.78-4.775,.813c-.22,.093-.399,.263-.505,.477-.047,.096-1.034,2.121-1.259,4.952,1.496-.295,3.896-.664,6.54-.664Z"/>
  </g>
</svg>
