<?xml version="1.0" encoding="UTF-8"?>
<svg xmlns="http://www.w3.org/2000/svg" id="Layer_1" data-name="Layer 1" viewBox="0 0 24 24">
  <g>
    <path d="M15.419,12.133c2.837,.578,5.333,1.496,6.88,2.14,.318-2.999-.28-5.291-.31-5.402-.063-.237-.209-.445-.412-.583-.077-.053-1.93-1.306-4.993-1.93-3.075-.626-5.26-.194-5.351-.176-.239,.049-.454,.182-.605,.374-.07,.09-1.51,1.95-2.385,4.856,1.673,.011,4.33,.142,7.177,.722Z"/>
    <path d="M18.686,15.134l-.32,1.542c-.102,.486-.53,.821-1.008,.821-.069,0-.14-.007-.21-.022-.557-.115-.914-.66-.8-1.217l.354-1.709c-.547-.144-1.115-.279-1.695-.397-.577-.118-1.147-.215-1.703-.296l-.356,1.716c-.101,.487-.529,.821-1.007,.821-.069,0-.139-.007-.21-.022-.557-.115-.915-.66-.8-1.217l.318-1.537c-1.837-.16-3.34-.154-4.111-.134-.101,.315-.254,.837-.381,1.465-.205,1.011-.24,1.806-.241,1.839-.019,.441,.245,.845,.657,1.004,.018,.007,.098,.038,.232,.087l-.078,.383c-.282,1.389,.614,2.757,2,3.03,.88,.173,1.499-.094,1.922-.375,.548-.363,.928-.91,1.079-1.547,.497,.121,1.016,.239,1.548,.347,.533,.109,1.057,.204,1.562,.287-.227,1.359,.657,2.684,2.017,2.944,.854,.163,1.503-.095,1.928-.378,.569-.379,.957-.958,1.094-1.631l.077-.382c.141,.007,.225,.009,.245,.01,.01,0,.021,0,.032,0,.428,0,.814-.266,.964-.668,.011-.031,.287-.77,.493-1.79,.126-.624,.188-1.165,.217-1.497-.702-.319-2.079-.91-3.823-1.479Z"/>
  </g>
  <path d="M5.324,12.432c.176-.47,.464-.884,.829-1.211,.947-3.424,2.645-5.669,2.849-5.932,.457-.581,1.101-.979,1.818-1.125,.052-.01,.132-.025,.237-.042,.003-.133-.599-1.777-.599-1.777-.303-.787-1.014-1.302-1.857-1.342-.834-.039-1.598,.404-1.975,1.159l-.661,1.327c-.063,.126-.201,.195-.337,.174l-1.461-.23c-.833-.132-1.631,.228-2.087,.936-.457,.71-.452,1.588,.013,2.293l.815,1.236c.079,.12,.072,.275-.018,.386l-.93,1.153c-.53,.657-.619,1.531-.231,2.281,.366,.709,1.069,1.135,1.855,1.135,.044,0,1.61-.094,1.61-.094,.006,0,.118-.294,.13-.325Z"/>
</svg>
