<?xml version="1.0" encoding="UTF-8"?>
<svg xmlns="http://www.w3.org/2000/svg" id="Layer_1" data-name="Layer 1" viewBox="0 0 24 24">
  <path d="M21.93,10.787c-.275-4.635-1.922-7.93-1.998-8.08-.107-.211-.286-.377-.505-.469-.12-.05-3.003-1.238-7.428-1.238s-7.305,1.187-7.426,1.237c-.22,.092-.4,.26-.508,.474-.076,.152-1.72,3.475-1.996,8.076,2.303-.442,5.934-.982,9.93-.982s7.63,.539,9.93,.981Z"/>
  <path d="M22.811,13.013c-1.954-.427-6.164-1.207-10.811-1.207s-8.855,.781-10.811,1.208c-.052,.406-.144,1.269-.144,2.319,0,1.449,.172,2.525,.18,2.57,.068,.423,.398,.755,.82,.826,.043,.007,.308,.052,.755,.115v.96c0,1.763,1.441,3.197,3.213,3.197s3.213-1.434,3.213-3.197v-.364c.884,.04,1.816,.065,2.775,.065s1.89-.025,2.774-.065v.364c0,1.763,1.441,3.197,3.214,3.197s3.213-1.434,3.213-3.197v-.96c.446-.064,.711-.108,.754-.115,.423-.071,.754-.405,.821-.828,.008-.045,.179-1.132,.179-2.568,0-1.057-.091-1.915-.144-2.319Zm-14.802,3.612c-.838,0-1.517-.679-1.517-1.517s.679-1.517,1.517-1.517,1.517,.679,1.517,1.517-.679,1.517-1.517,1.517Zm7.981,0c-.838,0-1.517-.679-1.517-1.517s.679-1.517,1.517-1.517,1.517,.679,1.517,1.517-.679,1.517-1.517,1.517Z"/>
</svg>
