<?xml version="1.0" encoding="UTF-8"?>
<svg xmlns="http://www.w3.org/2000/svg" id="Layer_1" data-name="Layer 1" viewBox="0 0 24 24">
  <path d="M6.417,16.228c-1.67,0-3.029,1.357-3.029,3.024s1.359,3.024,3.029,3.024,3.03-1.357,3.03-3.024-1.359-3.024-3.03-3.024Z"/>
  <path d="M12.467,7.567v12.962h3.687V7.537c-.343-.121-.94-.265-1.844-.265-.828,0-1.453,.157-1.843,.295Z"/>
  <rect x="4.426" y="7.883" width="2.127" height="3.02"/>
  <path d="M22,17.567h-2.05c.311-1.363,.722-3.682,.722-6.438,0-4.38-1.021-7.608-1.064-7.744-.104-.324-.365-.572-.693-.66-.152-.041-3.785-1.001-8.078-1.001S2.911,2.684,2.758,2.725c-.329,.088-.591,.338-.694,.663-.043,.137-1.063,3.397-1.063,7.741,0,2.724,.395,5.003,.704,6.369,.714-1.908,2.557-3.27,4.713-3.27,1.659,0,3.133,.807,4.05,2.048V6.927c0-.339,.172-.656,.457-.84,.13-.083,1.321-.815,3.386-.815,2.292,0,3.301,.735,3.479,.883,.23,.19,.364,.473,.364,.772v12.641h3.847c.553,0,1-.448,1-1s-.447-1-1-1Zm-13.447-5.665c0,.552-.447,1-1,1H3.426c-.553,0-1-.448-1-1V6.883c0-.552,.447-1,1-1H7.553c.553,0,1,.448,1,1v5.02Z"/>
</svg>
