<svg id="Layer_1" viewBox="0 0 24 24" xmlns="http://www.w3.org/2000/svg" data-name="Layer 1"><path d="m20.052 2.913c-.08-.328-.321-.594-.64-.706-.14-.049-3.474-1.207-7.412-1.207s-7.271 1.158-7.411 1.207c-.32.112-.562.379-.641.708-.039.16-.948 3.981-.948 9.084 0 5.146.91 8.929.948 9.087.08.328.321.594.64.706.14.049 3.474 1.207 7.412 1.207s7.271-1.158 7.411-1.207c.32-.112.562-.379.641-.708.039-.16.948-3.981.948-9.084 0-5.146-.91-8.929-.948-9.087zm-5.003 10.578c-.558.507-1.259.729-1.925.669.023.139.049.252.078.34h.085c.553 0 1 .448 1 1s-.447 1-1 1h-2.572c-.553 0-1-.448-1-1s.447-1 1-1h.074c.03-.086.057-.198.081-.334-.064.005-.129.008-.194.008-.602 0-1.221-.226-1.724-.682-.468-.426-.951-1.231-.951-2.213 0-1.943 2.063-3.159 2.474-3.384.955-.525 2.098-.525 3.053 0 .014.008 2.472 1.202 2.472 3.31 0 1.014-.464 1.846-.949 2.287z"/></svg>