<?xml version="1.0" encoding="UTF-8"?>
<svg xmlns="http://www.w3.org/2000/svg" id="Layer_1" data-name="Layer 1" viewBox="0 0 24 24">
  <path d="M6.313,1.952c-2.044,.688-3.674,2.317-4.361,4.361-1.266,3.773-1.266,7.601,0,11.373h0c.687,2.045,2.317,3.675,4.361,4.361,3.773,1.266,7.6,1.266,11.374,0,2.044-.686,3.674-2.315,4.361-4.361,.633-1.887,.949-3.786,.949-5.686s-.316-3.8-.949-5.687c-.687-2.044-2.317-3.675-4.361-4.361-3.773-1.266-7.6-1.266-11.374,0Zm5.483,5.36c2.761,1.622,4.358,4.039,4.424,4.141,.108,.167,.163,.356,.163,.547s-.055,.38-.163,.547c-.066,.102-1.663,2.519-4.424,4.141-.725,.425-1.606,.457-2.358,.083-.749-.372-1.255-1.089-1.354-1.918-.224-1.895-.224-3.813,0-5.707,.099-.829,.604-1.546,1.354-1.917,.752-.374,1.634-.343,2.358,.083Z"/>
</svg>
