<?xml version="1.0" encoding="UTF-8"?>
<svg xmlns="http://www.w3.org/2000/svg" id="Layer_1" data-name="Layer 1" viewBox="0 0 24 24">
  <path d="M2.898,2.183c-.351,.091-.625,.365-.716,.716-1.57,6.039-1.57,12.164,0,18.203,.091,.351,.365,.625,.716,.716,6.039,1.57,12.164,1.57,18.203,0,.351-.091,.625-.365,.716-.716,.785-3.02,1.178-6.061,1.178-9.102s-.393-6.082-1.178-9.102c-.091-.351-.365-.625-.716-.716C15.062,.612,8.938,.612,2.898,2.183ZM11.647,7.312c2.761,1.622,4.357,4.039,4.424,4.141,.108,.166,.163,.356,.163,.547s-.055,.381-.163,.547c-.066,.102-1.663,2.519-4.424,4.141-.725,.426-1.607,.457-2.359,.083-.749-.371-1.254-1.089-1.353-1.917-.225-1.895-.225-3.814,0-5.707,.099-.828,.604-1.546,1.353-1.917,.752-.374,1.635-.343,2.359,.083Z"/>
</svg>
