<?xml version="1.0" encoding="UTF-8"?>
<svg xmlns="http://www.w3.org/2000/svg" id="Layer_1" data-name="Layer 1" viewBox="0 0 24 24">
  <path d="M22.048,6.313c-.688-2.044-2.317-3.674-4.361-4.361-3.773-1.266-7.601-1.266-11.373,0h0c-2.044,.687-3.674,2.317-4.36,4.361-1.266,3.773-1.266,7.6,0,11.374,.686,2.044,2.315,3.674,4.361,4.361,1.887,.633,3.786,.949,5.686,.949s3.8-.316,5.687-.949c2.044-.687,3.675-2.317,4.361-4.361,1.266-3.773,1.266-7.6,0-11.374Zm-5.36,5.483c-1.622,2.761-4.039,4.358-4.141,4.424-.167,.108-.356,.163-.547,.163s-.38-.055-.547-.163c-.102-.066-2.519-1.663-4.141-4.424-.425-.725-.457-1.606-.083-2.358,.372-.749,1.089-1.255,1.918-1.354,1.895-.224,3.813-.224,5.707,0,.829,.099,1.546,.604,1.917,1.354,.374,.752,.343,1.634-.083,2.358Z"/>
</svg>
