<?xml version="1.0" encoding="UTF-8"?>
<svg xmlns="http://www.w3.org/2000/svg" id="Layer_1" data-name="Layer 1" viewBox="0 0 24 24">
  <path d="M10.265,8.644c-.048,.097-1.044,2.139-1.283,4.999,1.562-.301,3.996-.663,6.669-.663s5.109,.362,6.67,.663c-.238-2.881-1.237-4.907-1.285-5.003-.106-.212-.285-.379-.503-.472-.08-.034-1.984-.829-4.881-.829s-4.8,.795-4.88,.829c-.22,.093-.399,.263-.506,.477Z"/>
  <path d="M22.949,15.82c-.744-.168-2.094-.441-3.753-.63v.909c0,.552-.448,1-1,1s-1-.448-1-1v-1.077c-.503-.027-1.02-.042-1.545-.042s-1.042,.015-1.545,.042v1.077c0,.552-.448,1-1,1s-1-.448-1-1v-.908c-1.657,.189-3.008,.461-3.753,.629-.027,.298-.051,.692-.051,1.134,0,.963,.114,1.685,.119,1.715,.067,.423,.396,.756,.819,.828,.016,.003,.078,.013,.181,.029v.316c0,1.334,1.082,2.42,2.412,2.42,1.285,0,2.337-1.014,2.407-2.286,.456,.017,.928,.027,1.411,.027s.956-.01,1.412-.027c.07,1.272,1.123,2.286,2.407,2.286,1.33,0,2.411-1.086,2.411-2.42v-.316c.103-.016,.166-.027,.181-.029,.423-.072,.753-.406,.82-.83,.005-.031,.118-.759,.118-1.713,0-.445-.024-.837-.051-1.135Z"/>
  <path d="M9.991,6.326c.21-.088,1.862-.754,4.369-.939,.076-.2,.089-.426,.021-.647-.319-1.039-.635-1.674-.648-1.701-.106-.212-.285-.379-.503-.472-.08-.034-1.984-.83-4.881-.83s-4.8,.795-4.88,.829c-.22,.093-.399,.263-.506,.477-.051,.102-1.157,2.37-1.315,5.48,1.332-.181,2.915-.323,4.591-.323,.688,0,1.36,.024,2.006,.065,.112-.267,.195-.44,.226-.504,.323-.648,.861-1.155,1.52-1.434Z"/>
  <path d="M1.02,10.64c-.012,.215-.02,.455-.02,.712,0,.963,.114,1.685,.119,1.715,.067,.422,.396,.755,.818,.828,.012,.002,.075,.013,.182,.029v.317c0,1.334,1.082,2.42,2.411,2.42,.723,0,1.372-.322,1.815-.829,.039-.513,.092-.853,.101-.909,.073-.464,.258-.903,.531-1.28l.021-.251c.107-1.206,.331-2.281,.574-3.161-.435-.02-.88-.032-1.332-.032-1.958,0-3.802,.213-5.219,.441Z"/>
</svg>
