<svg id="Layer_1" viewBox="0 0 24 24" xmlns="http://www.w3.org/2000/svg" data-name="Layer 1"><path d="m13 21.498c0 .829-.671 1.5-1.5 1.5s-1.5-.671-1.5-1.5.671-1.5 1.5-1.5 1.5.671 1.5 1.5zm5.501-1.498c-.828 0-1.499.671-1.499 1.499s.671 1.499 1.499 1.499 1.499-.671 1.499-1.499-.671-1.499-1.499-1.499zm-16.001-11h1c.828 0 1.5-.672 1.5-1.5s-.672-1.5-1.5-1.5h-1c-.828 0-1.5.672-1.5 1.5s.672 1.5 1.5 1.5zm0 4h1.5c.828 0 1.5-.672 1.5-1.5s-.672-1.5-1.5-1.5h-1.5c-.828 0-1.5.672-1.5 1.5s.672 1.5 1.5 1.5zm2 1h-2c-.828 0-1.5.672-1.5 1.5s.672 1.5 1.5 1.5h2c.828 0 1.5-.672 1.5-1.5s-.672-1.5-1.5-1.5zm16.682-.532c.327-.062.628-.339.761-.645.449-1.041.662-1.597.979-3.915.204-1.987-.024-3.2-.246-4.374l-.026-.138c-.078-.42-.415-.743-.837-.805-1.547-.228-3.884-.57-6.818-.592-2.654.018-4.786.246-6.677.461-.149-.444-.314-.846-.504-1.188-.144-.259-.36-.469-.622-.604-.958-.495-2.851-.631-3.62-.666-.854-.026-1.53.602-1.567 1.429-.038.828.602 1.529 1.429 1.567.699.032 1.49.126 1.979.225.437 1.176.76 3.259 1.074 5.282.464 2.988.943 6.078 1.967 8.134.203.409.582.703 1.029.799 1.242.279 3.34.606 5.54.562 2.368-.035 4.895-.394 5.737-.522.81-.141 1.357-.907 1.226-1.719s-.918-1.363-1.732-1.238c-.495.075-3.077.45-5.271.479-1.689.031-3.059-.15-4.124-.347-.212-.56-.396-1.221-.563-1.931 1.253.134 2.998.278 4.708.278 2.943 0 4.851-.284 6.182-.532z"/></svg>