<svg id="Layer_1" viewBox="0 0 24 24" xmlns="http://www.w3.org/2000/svg" data-name="Layer 1"><path d="m11.998 21.499c0 .828-.671 1.499-1.499 1.499s-1.499-.671-1.499-1.499.671-1.499 1.499-1.499 1.499.671 1.499 1.499zm5.502-1.501c-.829 0-1.5.671-1.5 1.5s.671 1.5 1.5 1.5 1.5-.671 1.5-1.5-.671-1.5-1.5-1.5zm-3.5-15.498c0-.519.077-1.02.211-1.496-2.492-.007-5.471.204-7.663.416-.154-.489-.329-.924-.535-1.294-.144-.259-.36-.47-.623-.605-1.063-.549-2.609-.53-2.91-.517-.828.027-1.477.721-1.449 1.549s.717 1.491 1.549 1.449c.302-.008.71.018 1.027.072.422 1.173.712 3.274.992 5.315.419 3.04.852 6.183 1.882 8.254.203.409.582.703 1.029.799 1.299.277 3.654.558 6.004.558 2.364-.022 4.71-.221 6.275-.528.812-.16 1.342-.948 1.182-1.762s-.946-1.346-1.762-1.182c-1.076.212-3.146.447-5.71.472-1.699 0-3.429-.166-4.615-.354-.21-.568-.388-1.242-.546-1.968 1.48.165 3.457.305 5.669.322 2.638-.021 5.584-.24 7.165-.534.327-.062.626-.335.759-.641.454-1.049.668-1.61.989-3.949.003-.027.004-.051.006-.079-.94.751-2.13 1.203-3.427 1.203-3.038 0-5.5-2.462-5.5-5.5zm3.5 1.5h4c.828 0 1.5-.672 1.5-1.5s-.672-1.5-1.5-1.5h-4c-.828 0-1.5.672-1.5 1.5s.672 1.5 1.5 1.5z"/></svg>