<svg id="Layer_1" viewBox="0 0 24 24" xmlns="http://www.w3.org/2000/svg" data-name="Layer 1"><path d="m22.484 11.571c-.076-.418-.408-.742-.828-.809-.197-.031-4.871-.763-9.656-.763-1.196 0-2.386.046-3.5.115v-3.159c2.234-.121 3.671-.467 3.743-.486.445-.111.757-.511.757-.97v-2.999c0-.459-.312-.858-.757-.97-.087-.022-2.155-.53-5.243-.53s-5.156.508-5.243.53c-.445.111-.757.511-.757.97v3c0 .459.312.858.757.97.072.019 1.509.365 3.743.486v3.409c-1.817.188-3.057.382-3.156.398-.42.066-.751.391-.828.809-.021.116-.516 2.862-.516 4.929 0 .163.004.331.01.5h21.98c.006-.169.01-.337.01-.5 0-2.066-.495-4.812-.516-4.929zm-17.984 3.929c-.828 0-1.5-.672-1.5-1.5s.672-1.5 1.5-1.5 1.5.672 1.5 1.5-.672 1.5-1.5 1.5zm5 0c-.828 0-1.5-.672-1.5-1.5s.672-1.5 1.5-1.5 1.5.672 1.5 1.5-.672 1.5-1.5 1.5zm5 0c-.828 0-1.5-.672-1.5-1.5s.672-1.5 1.5-1.5 1.5.672 1.5 1.5-.672 1.5-1.5 1.5zm5 0c-.828 0-1.5-.672-1.5-1.5s.672-1.5 1.5-1.5 1.5.672 1.5 1.5-.672 1.5-1.5 1.5zm-18.335 3.5h21.67c-.146 1.291-.338 2.357-.351 2.429-.076.418-.408.742-.828.809-.197.031-4.871.763-9.656.763s-9.459-.731-9.656-.763c-.42-.066-.751-.391-.828-.809-.013-.071-.205-1.138-.351-2.429z"/></svg>