<svg id="Layer_1" viewBox="0 0 24 24" xmlns="http://www.w3.org/2000/svg" data-name="Layer 1"><path d="m6.999 10c.018-.762.255-.995.995-1 .739.005.994.261 1.007.981-.015.795-.231 1.014-.995 1.019-.761-.005-.989-.229-1.007-1zm6.15-1h-2.304c.089.302.149.625.156.982-.007.375-.066.708-.151 1.018h2.295c-.082-.3-.139-.621-.146-.981v-.036c.006-.359.065-.681.15-.982zm3.19 9.209c-2.695-.274-5.937-.276-8.635-.004l-1 2.489c1.402.173 3.161.306 5.295.306 2.25 0 4.088-.147 5.524-.334zm-.346-9.209c-.74.005-.978.238-.995 1 .018.771.246.995 1.007 1 .764-.005.98-.224.995-1.019-.013-.721-.268-.977-1.007-.981zm7.006 3c0 4.397-1.021 7.169-1.063 7.285-.104.275-.324.492-.602.591-.054.019-.643.222-1.755.45l-1.68-3.484c-.148-.308-.443-.519-.782-.559-3.168-.375-7.068-.375-10.236 0-.363.043-.674.281-.81.62l-1.395 3.474c-1.279-.248-1.953-.48-2.012-.501-.277-.099-.498-.315-.602-.591-.043-.116-1.063-2.888-1.063-7.285s1.021-7.169 1.063-7.285c.104-.275.324-.492.602-.591.129-.046 3.232-1.124 9.335-1.124s9.206 1.078 9.335 1.124c.277.099.498.315.602.591.043.116 1.063 2.888 1.063 7.285zm-3.999-2.018c-.032-1.825-1.176-2.966-2.997-2.982-.002 0-.003 0-.004 0h-7.999s-.001 0-.002 0-.003 0-.004 0c-1.843.011-2.962 1.126-2.995 2.982v.036c.034 1.879 1.123 2.965 2.997 2.981h.004 8s.001 0 .002 0h.004c1.868-.012 2.96-1.098 2.995-3.018z"/></svg>