<svg id="Layer_1" viewBox="0 0 24 24" xmlns="http://www.w3.org/2000/svg" data-name="Layer 1"><path d="m9.627 2.136c.016.069.373 1.719.373 3.364s-.357 3.295-.373 3.364c-.083.381-.381.679-.762.762-.07.016-1.72.374-3.365.374s-3.295-.358-3.365-.374c-.381-.083-.679-.381-.762-.762-.016-.069-.373-1.719-.373-3.364s.357-3.295.373-3.364c.083-.381.381-.679.762-.762.07-.016 1.72-.374 3.365-.374s3.295.358 3.365.374c.381.083.679.381.762.762zm3.508 7.49c.07.016 1.72.374 3.365.374s3.295-.358 3.365-.374c.381-.083.679-.381.762-.762.016-.069.373-1.719.373-3.364s-.357-3.295-.373-3.364c-.083-.381-.381-.679-.762-.762-.07-.016-1.72-.374-3.365-.374s-3.295.358-3.365.374c-.381.083-.679.381-.762.762-.016.069-.373 1.719-.373 3.364s.357 3.295.373 3.364c.083.381.381.679.762.762zm-4.271 2.747c-.069-.016-1.719-.373-3.364-.373s-3.295.357-3.364.373c-.382.083-.68.381-.763.763-.016.069-.373 1.719-.373 3.364s.357 3.295.373 3.364c.083.382.381.68.763.763.069.016 1.719.373 3.364.373s3.295-.357 3.364-.373c.382-.083.68-.381.763-.763.016-.069.373-1.719.373-3.364s-.357-3.295-.373-3.364c-.083-.381-.381-.679-.763-.763zm13.697 8.066-1.926-1.926c.234-.584.366-1.253.366-2.013 0-2.817-1.683-4.5-4.5-4.5s-4.5 1.683-4.5 4.5 1.683 4.5 4.5 4.5c.76 0 1.429-.132 2.013-.366l1.926 1.926c.586.586 1.535.586 2.121 0s.586-1.535 0-2.121z"/></svg>