<svg id="Layer_1" viewBox="0 0 24 24" xmlns="http://www.w3.org/2000/svg" data-name="Layer 1"><path d="m22.561 3.561c.586-.585.586-1.536 0-2.121-.586-.586-1.535-.586-2.121 0l-3.899 3.899c-1.471-.905-3.43-1.338-6.041-1.338-.804 0-1.557.042-2.238.125-.457.056-.816.416-.872.872-.415 3.415-1.978 4.978-5.393 5.393-.457.056-.816.416-.872.872-.083.681-.125 1.435-.125 2.238 0 2.537.452 4.514 1.369 6.01l-.93.93c-.586.585-.586 1.536 0 2.121.586.586 1.535.586 2.121 0l.929-.929c1.492.915 3.471 1.368 6.011 1.368.804 0 1.557-.042 2.238-.125.457-.056.816-.416.872-.872.415-3.415 1.978-4.978 5.393-5.393.457-.056.816-.416.872-.872.083-.681.125-1.435.125-2.238 0-2.611-.433-4.569-1.338-6.041l3.899-3.899zm-14.854 14.146-1.5 1.5c-.391.391-1.023.391-1.414 0s-.391-1.023 0-1.414l1.5-1.5c.391-.391 1.023-.391 1.414 0s.391 1.023 0 1.414zm8-8-4 4c-.391.391-1.023.391-1.414 0s-.391-1.023 0-1.414l4-4c.391-.391 1.023-.391 1.414 0s.391 1.023 0 1.414zm7.293-2.207c0 .828-.672 1.5-1.5 1.5s-1.5-.672-1.5-1.5.672-1.5 1.5-1.5 1.5.672 1.5 1.5zm-8-5c0-.828.672-1.5 1.5-1.5s1.5.672 1.5 1.5-.672 1.5-1.5 1.5-1.5-.672-1.5-1.5z"/></svg>