<svg id="Layer_1" viewBox="0 0 24 24" xmlns="http://www.w3.org/2000/svg" data-name="Layer 1"><path d="m18.926 13.533c.239-1.076.361-2.297.361-3.738-.001-6.341-2.316-9.295-7.287-9.295-4.903 0-7.286 3.04-7.286 9.294 0 1.447.118 2.672.353 3.748-1.263 1.107-1.833 2.506-2.053 3.789-.05.291.031.588.221.813.19.226.47.355.765.355h.5v3.5c0 .829.671 1.5 1.5 1.5s1.5-.671 1.5-1.5v-3.5h9v3.5c0 .829.671 1.5 1.5 1.5s1.5-.671 1.5-1.5v-3.5h.5c.294 0 .574-.13.764-.355s.271-.522.222-.812c-.219-1.287-.789-2.691-2.06-3.8zm-9.926-1.764c-.406.078-.793.168-1.148.277-.089-.669-.138-1.416-.138-2.251 0-2.894.503-4.465 1.286-5.315zm4-.238c-.323-.017-.651-.031-1-.031s-.677.013-1 .031v-7.978c.324-.039.659-.053 1-.053s.676.014 1 .053v7.977zm3.144.512c-.354-.108-.74-.197-1.144-.275v-7.288c.783.85 1.286 2.421 1.286 5.315 0 .834-.051 1.58-.142 2.249z"/></svg>