<svg id="Layer_1" viewBox="0 0 24 24" xmlns="http://www.w3.org/2000/svg" data-name="Layer 1"><path d="m7 15c-2.691 0-4-1.309-4-4s1.309-4 4-4 4 1.309 4 4-1.309 4-4 4zm0 1c-4.149 0-6 1.851-6 6 0 .553.448 1 1 1h10c.552 0 1-.447 1-1 0-4.149-1.851-6-6-6zm15.15-13.499c-.098-.3-.332-.535-.629-.636-.104-.035-2.613-.865-7.521-.865s-7.417.83-7.521.865c-.298.101-.531.336-.629.636-.022.067-.354 1.1-.597 2.7.542-.118 1.113-.201 1.747-.201 3.813 0 6 2.187 6 6 0 1.712-.448 3.09-1.279 4.096.432.252.826.544 1.174.881.361.01.713.023 1.105.023 4.908 0 7.417-.83 7.521-.865.298-.101.531-.336.629-.636.035-.105.85-2.628.85-5.999s-.815-5.894-.85-5.999zm-3.017 11.248c-.6.091-1.275.176-2.024.247-.551.054-1.052-.344-1.103-.888-.053-.543.356-1.026.913-1.078.707-.067 1.342-.147 1.908-.233.554-.087 1.07.285 1.155.824.084.539-.295 1.044-.848 1.128z"/></svg>