<svg id="Layer_1" viewBox="0 0 24 24" xmlns="http://www.w3.org/2000/svg" data-name="Layer 1"><path d="m23 12c0 1.786-.714 2.5-2.5 2.5-1.155 0-1.856-.305-2.211-1h-2.476c-.104.397-.251.75-.449 1.052l1.544 2.471c1.479.11 2.092.839 2.092 2.477 0 1.786-.714 2.5-2.5 2.5s-2.5-.714-2.5-2.5c0-.478.056-.874.165-1.205l-1.463-2.341c-.226.023-.452.046-.702.046s-.476-.023-.702-.046l-1.463 2.341c.109.331.165.727.165 1.205 0 1.786-.714 2.5-2.5 2.5s-2.5-.714-2.5-2.5c0-1.639.613-2.367 2.092-2.477l1.544-2.471c-.198-.301-.345-.654-.449-1.052h-2.476c-.355.695-1.056 1-2.211 1-1.786 0-2.5-.714-2.5-2.5s.714-2.5 2.5-2.5c1.155 0 1.856.305 2.212 1h2.476c.104-.397.251-.75.449-1.052l-1.544-2.471c-1.479-.11-2.092-.839-2.092-2.477 0-1.786.714-2.5 2.5-2.5s2.5.714 2.5 2.5c0 .478-.056.874-.165 1.205l1.463 2.341c.226-.023.452-.046.702-.046s.476.023.702.046l1.463-2.341c-.109-.331-.165-.727-.165-1.205 0-1.786.714-2.5 2.5-2.5s2.5.714 2.5 2.5c0 1.639-.613 2.367-2.092 2.477l-1.544 2.471c.198.301.345.654.449 1.052h2.476c.355-.695 1.056-1 2.211-1 1.786 0 2.5.714 2.5 2.5z"/></svg>