<svg id="Layer_1" viewBox="0 0 24 24" xmlns="http://www.w3.org/2000/svg" data-name="Layer 1"><path d="m13.399 11.571c.516.89.852 1.616 1.071 2.155-.034.041-.07.079-.101.122-.575.08-1.359.152-2.369.152s-1.795-.072-2.369-.152c-.03-.043-.067-.081-.1-.121.218-.54.554-1.266 1.07-2.156.386-.665.738-1.191 1.042-1.607.116.021.235.036.357.036s.241-.015.357-.036c.303.416.656.943 1.042 1.607zm10.104.744c-1.266 3.816-3.06 7.027-5.485 9.815-.145.167-.341.281-.558.324-.112.022-2.76.546-5.459.546s-5.348-.523-5.459-.546c-.217-.043-.413-.157-.558-.324-2.426-2.788-4.22-5.999-5.486-9.815-.068-.205-.068-.425 0-.63 1.266-3.816 3.06-7.027 5.484-9.815.145-.167.341-.281.558-.324.112-.022 2.76-.546 5.459-.546s5.348.523 5.459.546c.217.043.413.157.558.324 2.425 2.788 4.219 5.999 5.485 9.815.068.205.068.425 0 .63zm-5.502 2.685c0-.986-.716-1.801-1.655-1.965-.253-.633-.632-1.461-1.217-2.467-.459-.791-.883-1.418-1.248-1.91.073-.207.12-.426.12-.658 0-1.105-.895-2-2-2s-2 .895-2 2c0 .232.047.451.12.658-.365.491-.789 1.119-1.248 1.91-.584 1.007-.964 1.834-1.217 2.467-.939.164-1.655.979-1.655 1.965 0 1.105.895 2 2 2 .787 0 1.46-.458 1.787-1.119.602.067 1.331.119 2.213.119s1.611-.051 2.213-.119c.327.66 1 1.119 1.787 1.119 1.105 0 2-.895 2-2z"/></svg>