<svg id="Layer_1" viewBox="0 0 24 24" xmlns="http://www.w3.org/2000/svg" data-name="Layer 1"><path d="m22.896 20.032c.259.785-.164 1.63-.947 1.891-.132.044-3.302 1.077-9.475 1.077s-9.342-1.033-9.474-1.077c-.501-.167-.878-.585-.991-1.101-.042-.193-1.035-4.767-1.035-9.322s.992-9.129 1.034-9.322c.177-.809.977-1.324 1.787-1.143.809.177 1.321.977 1.144 1.786-.01.044-.965 4.458-.965 8.679 0 3.087.511 6.277.79 7.786 1.22.272 3.802.714 7.71.714 5.624 0 8.502-.916 8.53-.925.784-.256 1.634.171 1.892.957zm-13.891-2.032c1.869-.011 2.96-1.098 2.995-3.018-.032-1.828-1.179-2.971-3.007-2.982-1.842.011-2.961 1.126-2.995 2.982v.036c.034 1.884 1.126 2.971 3.006 2.982zm1-9c1.869-.011 2.96-1.098 2.995-3.018-.032-1.828-1.179-2.971-3.007-2.982-1.842.011-2.961 1.126-2.995 2.982v.036c.034 1.884 1.126 2.971 3.006 2.982zm9.5-1c2.182-.013 3.455-1.282 3.495-3.517-.037-2.167-1.344-3.469-3.507-3.483-2.182.014-3.456 1.283-3.495 3.482v.036c.04 2.2 1.313 3.469 3.507 3.482zm-1 9c2.182-.013 3.455-1.282 3.495-3.517-.037-2.167-1.344-3.469-3.507-3.483-2.182.014-3.456 1.283-3.495 3.482v.036c.04 2.2 1.313 3.469 3.507 3.482z"/></svg>