<svg id="Layer_1" viewBox="0 0 24 24" xmlns="http://www.w3.org/2000/svg" data-name="Layer 1"><path d="m7 15c-2.691 0-4-1.309-4-4s1.309-4 4-4 4 1.309 4 4-1.309 4-4 4zm5 8h-10c-.552 0-1-.447-1-1 0-4.149 1.851-6 6-6s6 1.851 6 6c0 .553-.448 1-1 1zm10.15-20.499c-.098-.3-.332-.535-.629-.636-.104-.035-2.613-.865-7.521-.865s-7.417.83-7.521.865c-.298.101-.531.336-.629.636-.022.067-.354 1.1-.597 2.7.542-.118 1.113-.201 1.747-.201 3.25 0 5.304 1.6 5.844 4.431l1.156 1.156 2.529-2.53c-.129.013-.259.018-.388.036-.541.077-1.052-.303-1.131-.85-.078-.547.303-1.053.85-1.131 1.054-.15 2.125-.15 3.178 0 .44.062.787.408.849.849.151 1.056.151 2.125 0 3.181-.071.499-.499.858-.988.858-.603.006-1.082-.545-.991-1.142.018-.129.023-.258.036-.387l-3.236 3.237c-.372.387-1.042.387-1.414 0l-.399-.399c-.175 1.115-.589 2.038-1.199 2.77.443.255.844.554 1.199.898.361.01.713.023 1.105.023 4.908 0 7.417-.83 7.521-.865.298-.101.531-.336.629-.636.035-.105.85-2.628.85-5.999s-.815-5.894-.85-5.999z"/></svg>