<svg id="Layer_1" viewBox="0 0 24 24" xmlns="http://www.w3.org/2000/svg" data-name="Layer 1"><path d="m21.925 17c-.717 0-1.351-.515-1.477-1.245-.017-.1-.422-2.497-.422-6.755s.405-6.655.422-6.755c.141-.815.915-1.361 1.731-1.223.816.14 1.364.915 1.226 1.73-.004.022-.379 2.275-.379 6.247s.375 6.225.379 6.247c.163.905-.562 1.76-1.48 1.752zm-4.971-6.031c.811-.157 1.34-.944 1.188-1.755 0-.006-.115-.623-.115-1.714 0-1.065.108-1.678.115-1.712.158-.811-.369-1.597-1.179-1.759-.813-.157-1.603.365-1.765 1.178-.018.088-.172.9-.172 2.293s.154 2.206.172 2.293c.157.815.966 1.335 1.756 1.175zm-9 6c.811-.157 1.34-.944 1.188-1.755 0-.006-.115-.623-.115-1.714 0-1.065.108-1.678.115-1.712.158-.811-.369-1.597-1.179-1.759-.813-.157-1.603.365-1.765 1.178-.018.088-.172.9-.172 2.293s.154 2.206.172 2.293c.157.815.966 1.335 1.756 1.175zm4.5-3c.811-.157 1.34-.944 1.188-1.755 0-.006-.115-.623-.115-1.714 0-1.065.108-1.678.115-1.712.158-.811-.369-1.597-1.179-1.759-.813-.157-1.603.365-1.765 1.178-.018.088-.172.9-.172 2.293s.154 2.206.172 2.293c.157.815.966 1.335 1.756 1.175zm9.521 7.954c.783-.261 1.206-1.106.947-1.891-.258-.785-1.106-1.213-1.892-.957-.028.009-2.906.925-8.53.925-3.908 0-6.491-.442-7.711-.714-.278-1.509-.789-4.699-.789-7.786 0-4.221.955-8.635.965-8.679.178-.809-.335-1.609-1.144-1.786-.808-.176-1.609.334-1.786 1.143-.043.193-1.035 4.767-1.035 9.322s.992 9.129 1.035 9.322c.113.516.489.934.99 1.101.132.044 3.302 1.077 9.475 1.077s9.343-1.033 9.475-1.077z"/></svg>