<?xml version="1.0" encoding="UTF-8"?>
<svg xmlns="http://www.w3.org/2000/svg" id="Layer_1" data-name="Layer 1" viewBox="0 0 24 24">
  <path d="M22.953,19.846c-.206-.802-1.021-1.285-1.825-1.081-5.386,1.38-10.844,1.449-16.233,.21-1.253-5.299-1.181-10.663,.215-15.955,.212-.801-.267-1.622-1.067-1.833-.801-.212-1.621,.267-1.833,1.067-1.605,6.087-1.605,12.26,0,18.346,.139,.526,.551,.935,1.078,1.07,3.083,.79,6.188,1.185,9.293,1.185s6.209-.395,9.292-1.185c.803-.206,1.286-1.023,1.081-1.826Z"/>
  <path d="M6.891,15.22c.38,0,.761-.144,1.053-.432l2.357-2.322c.037-.038,.106-.037,.145,0l1.137,1.12c1.201,1.183,3.156,1.183,4.355,0l2.237-2.204c-.106,.705,.304,1.405,1.003,1.642,.159,.054,.321,.08,.48,.08,.626,0,1.209-.395,1.421-1.02,.964-2.849,.279-4.729,.132-5.078-.149-.354-.43-.638-.781-.792-.212-.092-2.146-.873-5.122,.119-.786,.262-1.211,1.111-.949,1.897,.243,.732,.994,1.15,1.732,.994l-2.258,2.225c-.037,.038-.108,.035-.146,0l-1.136-1.119c-1.201-1.185-3.157-1.184-4.356,0l-2.356,2.322c-.59,.581-.598,1.531-.016,2.121,.293,.298,.681,.447,1.068,.447Z"/>
</svg>
