<svg id="Layer_1" viewBox="0 0 24 24" xmlns="http://www.w3.org/2000/svg" data-name="Layer 1"><path d="m5.526 10c-.452 0-.88-.204-1.165-.555-.809-.994-1.898-1.958-2.854-2.844-.607-.563-.644-1.512-.081-2.12.565-.609 1.513-.642 2.12-.081.633.586 1.265 1.156 1.908 1.798 1.84-2.184 3.478-3.578 5.779-4.979.519-.314 1.177-.287 1.666.07 1.624 1.188 2.504 1.961 3.598 3.047 1.685-1.679 3.117-2.543 4.328-3.169.739-.38 1.642-.091 2.021.645s.091 1.641-.645 2.021c-1.277.659-2.712 1.558-4.547 3.655-.549.648-1.614.691-2.201.061-1.392-1.423-2.139-2.172-3.511-3.227-1.965 1.307-3.375 2.696-5.23 5.096-.284.367-.723.583-1.187.583zm16.755 12.97c.812-.161 1.34-.95 1.181-1.762-.005-.022-.436-2.261-.436-6.208s.431-6.186.436-6.208c.16-.812-.366-1.6-1.178-1.762s-1.602.364-1.765 1.177c-.021.101-.493 2.516-.493 6.794s.473 6.693.493 6.794c.158.816.97 1.339 1.762 1.176zm-9.501-.039c.812-.161 1.339-.95 1.18-1.762-.005-.022-.434-2.247-.434-6.169 0-2.483.167-4.276.307-5.344.107-.821-.471-1.574-1.292-1.682-.817-.107-1.575.471-1.683 1.292-.151 1.156-.332 3.088-.332 5.733 0 4.253.471 6.656.491 6.756.159.817.971 1.339 1.763 1.176zm4.713.039c.812-.161 1.339-.95 1.18-1.762-.005-.021-.422-2.188-.422-6.008 0-.903.023-1.784.069-2.618.045-.827-.589-1.534-1.416-1.58-.827-.067-1.534.589-1.58 1.416-.049.888-.073 1.824-.073 2.782 0 4.151.46 6.496.479 6.594.159.816.971 1.339 1.763 1.176zm-14.175 0c.812-.161 1.339-.95 1.18-1.762-.005-.021-.422-2.188-.422-6.008 0-.903.023-1.784.069-2.618.045-.827-.589-1.534-1.416-1.58-.827-.067-1.535.589-1.58 1.416-.049.888-.073 1.824-.073 2.782 0 4.151.46 6.496.479 6.594.159.816.971 1.339 1.763 1.176zm4.808 0c.812-.161 1.339-.95 1.18-1.762-.005-.024-.472-2.443-.472-6.708 0-.829-.672-1.5-1.5-1.5s-1.5.671-1.5 1.5c0 4.596.508 7.186.529 7.294.159.817.971 1.339 1.763 1.176z"/></svg>