<?xml version="1.0" encoding="UTF-8"?>
<svg xmlns="http://www.w3.org/2000/svg" id="Layer_1" data-name="Layer 1" viewBox="0 0 24 24">
  <path d="M21.999,2.032c-.552,0-1,.448-1,1v.818h-2.103v-.818c0-.552-.448-1-1-1s-1,.448-1,1v3.909c0,.952,.662,1.752,1.551,1.965,0,.054,0,.107,0,.161,0,3.172-.284,5.838-.463,7.205-.649,.124-1.579,.269-2.616,.325,.104-1.172,.186-2.546,.203-4.051h-2.77c-.552,0-1-.448-1-1s.448-1,1-1h2.752c-.118-4.136-.695-7.048-.722-7.183-.077-.381-.368-.684-.746-.775-.109-.026-2.719-.648-5.799-.648s-5.688,.622-5.798,.648c-.379,.091-.67,.395-.747,.777-.027,.137-.603,3.074-.721,7.181H3.771c.552,0,1,.448,1,1s-.448,1-1,1H1.002c.049,4.618,.711,7.956,.74,8.101,.077,.382,.37,.685,.749,.775,.109,.026,2.717,.638,5.795,.638s5.685-.612,5.795-.638c.38-.09,.673-.395,.75-.778,.009-.046,.081-.411,.176-1.031,2.535-.071,4.614-.63,4.707-.656,.562-.153,.984-.618,1.083-1.191,.026-.154,.65-3.816,.65-8.701,0-.054,0-.107,0-.16,.889-.212,1.552-1.012,1.552-1.965V3.032c0-.552-.448-1-1-1ZM10.48,11.014c-.002,.081-.032,.812-.331,1.601-.333,.879-.811,1.423-.864,1.482-.197,.219-.47,.33-.743,.33-.239,0-.478-.085-.669-.257-.408-.368-.442-.996-.078-1.406,.013-.015,.261-.309,.454-.78h-1.158c-.271,0-.529-.109-.718-.304-.188-.194-.29-.456-.282-.726,.002-.081,.032-.812,.331-1.601,.333-.88,.811-1.424,.864-1.483,.369-.411,1.001-.443,1.413-.073,.41,.37,.442,1.002,.073,1.413,0,0-.252,.295-.448,.773h1.158c.271,0,.529,.109,.718,.304,.188,.194,.29,.456,.282,.726Z"/>
</svg>
