<svg id="Layer_1" viewBox="0 0 24 24" xmlns="http://www.w3.org/2000/svg" data-name="Layer 1"><path d="m23 14.5c0 4.016-.392 7.234-.408 7.369-.044.355-.273.66-.604.799-.08.034-.819.332-1.988.332s-1.908-.298-1.988-.332c-.33-.139-.56-.443-.604-.799-.017-.135-.408-3.354-.408-7.369s.392-7.234.408-7.369c.044-.355.273-.66.604-.799.08-.034.819-.332 1.988-.332s1.908.298 1.988.332c.33.139.56.443.604.799.017.135.408 3.354.408 7.369zm-8.909-13.033c-.085-.048-.864-.467-2.091-.467s-2.006.419-2.091.467c-.285.16-.474.45-.505.775-.004.042-.404 4.273-.404 9.758s.4 9.716.404 9.758c.031.325.22.615.505.775.085.048.864.467 2.091.467s2.006-.419 2.091-.467c.284-.16.473-.45.504-.775.004-.042.405-4.273.405-9.758s-.401-9.716-.405-9.758c-.031-.325-.22-.615-.504-.775zm-8.108 10.858c-.08-.033-.818-.325-1.983-.325s-1.898.287-1.978.319c-.314.128-.542.407-.605.741-.017.091-.417 2.244-.417 4.439s.381 4.328.397 4.418c.06.333.285.613.597.744.083.035.838.338 2.006.338 1.138 0 1.903-.258 1.986-.287.345-.122.596-.423.655-.784.015-.091.359-2.246.359-4.429 0-2.195-.4-4.346-.417-4.436-.062-.332-.288-.609-.6-.739z"/></svg>