<svg id="Layer_1" viewBox="0 0 24 24" xmlns="http://www.w3.org/2000/svg" data-name="Layer 1"><path d="m23 5.5c0 1.767-.392 3.053-.511 3.406-.11.322-.377.572-.708.654-.182.045-1.83.44-3.781.44-.197 0-.563-.03-.862-.058-.492.409-1.382 1.052-2.117 1.052-.2 0-.391-.05-.555-.16-.598-.394-1.466-2.668-1.466-5.335 0-1.767.392-3.053.511-3.406.11-.322.377-.572.708-.654.182-.045 1.83-.44 3.781-.44s3.6.396 3.781.44c.332.083.598.33.708.654.12.353.511 1.639.511 3.406zm-6.038 10.43c.024.342.038.699.038 1.07 0 .702-.05 1.42-.147 2.136-.072.562-.597.92-1.147.864-.203 1.047-.439 1.72-.456 1.768-.116.318-.385.556-.714.632-.267.062-2.686.601-5.535.601s-5.268-.539-5.535-.601c-.33-.076-.598-.313-.714-.632-.017-.047-.253-.721-.456-1.768-.55.056-1.075-.302-1.147-.864-.098-.716-.147-1.434-.147-2.136 0-.371.014-.729.038-1.07.036-.563.538-.973 1.095-.93.209-1.619.596-2.706.618-2.768.116-.317.383-.554.71-.631.086-.02 1.797-.41 4.039-.549v-.553c0-.829.671-1.5 1.5-1.5s1.5.671 1.5 1.5v.553c2.242.139 3.953.529 4.039.549.328.077.595.314.71.631.022.061.409 1.149.618 2.768.557-.043 1.059.367 1.095.93zm-8.962 1.07c0-.828-.672-1.5-1.5-1.5s-1.5.672-1.5 1.5.672 1.5 1.5 1.5 1.5-.672 1.5-1.5zm5 0c0-.828-.672-1.5-1.5-1.5s-1.5.672-1.5 1.5.672 1.5 1.5 1.5 1.5-.672 1.5-1.5z"/></svg>