<svg id="Layer_1" viewBox="0 0 24 24" xmlns="http://www.w3.org/2000/svg" data-name="Layer 1"><path d="m22.7 19.4c-.938 1.251-2.049 2.361-3.3 3.3-.267.2-.584.3-.9.3s-.634-.1-.9-.3c-1.251-.938-2.361-2.049-3.3-3.3-.497-.663-.362-1.604.3-2.101.665-.495 1.604-.362 2.101.3.094.125.202.239.3.361v-15.46c0-.828.672-1.5 1.5-1.5s1.5.672 1.5 1.5v15.461c.098-.122.206-.236.3-.361.498-.662 1.437-.795 2.101-.3.662.497.797 1.437.3 2.101zm-7.7-4.344c-.562.08-1.114.282-1.602.644-1.325.995-1.736 2.756-1.093 4.212-.571.053-1.165.088-1.805.088-6.659 0-9.5-2.841-9.5-9.5s2.841-9.5 9.5-9.5c1.819 0 3.343.22 4.612.664-.067.269-.112.546-.112.836zm-9-4.556c0-3.246 1.019-4.379 4.037-4.492.552-.021.982-.484.962-1.036s-.494-1.004-1.036-.962c-4.068.151-5.963 2.214-5.963 6.49s1.895 6.339 5.963 6.49c.548.023 1.017-.41 1.036-.962.021-.552-.41-1.016-.962-1.036-3.019-.113-4.037-1.246-4.037-4.492z"/></svg>