<svg id="Layer_1" viewBox="0 0 24 24" xmlns="http://www.w3.org/2000/svg" data-name="Layer 1"><path d="m17.093 10.883c.312-.774.938-1.382 1.719-1.68-.314-3.023-.914-4.584-.948-4.67-.108-.274-.332-.487-.611-.581-.056-.019-1.261-.418-3.312-.693-.545-1.519-1.842-2.259-3.94-2.259s-3.396.741-3.94 2.259c-2.051.275-3.256.675-3.312.693-.279.094-.503.307-.612.581-.046.117-1.136 2.939-1.136 8.467s1.09 8.35 1.136 8.467c.104.265.316.472.583.57.106.04 2.655.963 7.281.963 2.838 0 4.89-.347 6.08-.625-.523-.533-.942-1.167-1.193-1.884-.402-1.149-.061-2.383.771-3.172-.06-.102-.109-.211-.159-.319h-3.498c-.553 0-1-.447-1-1s.447-1 1-1h3s.005.002.008.002c-.067-1.685.798-3.22 2.084-4.119zm-7.326 4.391c-.79.942-1.688 1.793-2.667 2.526-.355.267-.844.267-1.2 0-.559-.419-1.097-.881-1.6-1.373-.395-.387-.401-1.02-.015-1.414.387-.396 1.02-.401 1.414-.016.257.252.525.495.801.727.625-.525 1.207-1.106 1.734-1.735.354-.423.985-.479 1.409-.124.423.355.479.985.124 1.409zm0-5c-.79.942-1.688 1.793-2.667 2.526-.355.267-.844.267-1.2 0-.559-.419-1.097-.881-1.6-1.373-.395-.387-.401-1.02-.015-1.414.387-.395 1.02-.4 1.414-.016.257.252.525.495.801.727.625-.525 1.207-1.106 1.734-1.735.354-.423.985-.479 1.409-.124.423.355.479.985.124 1.409zm5.233 1.727h-3c-.553 0-1-.447-1-1s.447-1 1-1h3c.553 0 1 .447 1 1s-.447 1-1 1zm6 9.784v.216c0 .553-.448 1-1 1s-1-.447-1-1v-.13c-1.018-.286-1.876-1.042-2.226-2.04-.183-.521.092-1.092.613-1.274.523-.181 1.093.093 1.274.614.166.473.691.83 1.223.83.615 0 1.115-.506 1.115-1.128.004-.695-.62-1.202-1.296-1.124-1.516-.09-2.704-1.352-2.704-2.871 0-1.231.782-2.276 1.872-2.686v-.191c0-.552.448-1 1-1s1 .448 1 1v.185c.786.291 1.428.913 1.717 1.733.184.521-.089 1.092-.61 1.276-.52.181-1.092-.089-1.276-.61-.124-.35-.456-.584-.827-.584-.483 0-.876.394-.876.877-.001.455.365.862.821.868 1.777 0 3.179 1.403 3.179 3.127 0 1.329-.833 2.459-2 2.912z"/></svg>