<svg id="Layer_1" viewBox="0 0 24 24" xmlns="http://www.w3.org/2000/svg" data-name="Layer 1"><path d="m23 13c0 4.59-1 8.13-1.04 8.27-.09.33-.35.59-.69.69-.15.04-3.7 1.04-9.27 1.04s-9.13-1-9.27-1.04c-.33-.09-.59-.35-.69-.69-.03-.1-.5-1.77-.8-4.27h7.49c-.27.24-.54.48-.83.7-.44.33-.53.96-.2 1.4.2.26.5.4.8.4.21 0 .42-.07.6-.2 1.02-.77 1.93-1.68 2.7-2.7.27-.36.27-.84 0-1.2-.77-1.02-1.68-1.93-2.7-2.7-.44-.33-1.07-.24-1.4.2s-.24 1.07.2 1.4c.29.22.57.46.83.7h-7.67c-.04-.64-.06-1.31-.06-2 0-.89.04-1.75.1-2.54 1.03-.32 5.08-1.46 10.9-1.46s9.87 1.13 10.9 1.46c.06.8.1 1.65.1 2.54zm-.33-4.69c-.29-2.11-.68-3.49-.71-3.58-.09-.33-.35-.59-.69-.69-.06-.02-.69-.19-1.77-.39v-1.15c0-.83-.67-1.5-1.5-1.5s-1.5.67-1.5 1.5v.72c-1.29-.13-2.8-.22-4.5-.22s-3.21.09-4.5.22v-.72c0-.83-.67-1.5-1.5-1.5s-1.5.67-1.5 1.5v1.15c-1.09.2-1.71.38-1.77.39-.33.09-.59.35-.69.69-.03.09-.41 1.47-.71 3.58 1.79-.49 5.56-1.31 10.67-1.31s8.87.82 10.67 1.31z"/></svg>