<?xml version="1.0" encoding="UTF-8"?>
<svg xmlns="http://www.w3.org/2000/svg" id="Layer_1" data-name="Layer 1" viewBox="0 0 24 24">
  <path d="M21.841,3.218c-.15-.488-.538-.866-1.03-1.003-.166-.046-4.132-1.139-8.811-1.139S3.357,2.168,3.19,2.214c-.494,.138-.883,.518-1.032,1.008-.047,.155-1.158,3.858-1.158,8.778,0,4.962,1.112,8.629,1.159,8.782,.15,.488,.538,.866,1.03,1.003,.167,.046,4.131,1.139,8.811,1.139s8.643-1.093,8.81-1.139c.494-.138,.883-.518,1.032-1.008,.048-.155,1.158-3.858,1.158-8.778,0-4.962-1.112-8.629-1.159-8.782Zm-2.659,15.878c-1.333,.3-4.123,.829-7.182,.829s-5.853-.53-7.183-.829c-.301-1.263-.817-3.899-.817-7.096,0-3.173,.518-5.824,.818-7.096,1.333-.3,4.123-.829,7.182-.829s5.854,.53,7.184,.829c.3,1.263,.816,3.899,.816,7.096,0,3.173-.518,5.824-.818,7.096Z"/>
  <path d="M16.693,8.008c-.732-.379-1.641-.096-2.022,.64-1.183,2.276-2.666,3.602-3.513,4.228-.628-.446-1.439-1.106-1.953-1.804-.492-.667-1.431-.809-2.098-.317-.667,.492-.809,1.431-.317,2.098,1.296,1.758,3.519,3.054,3.612,3.108,.232,.134,.491,.201,.75,.201,.23,0,.46-.053,.672-.159,.133-.066,3.279-1.68,5.508-5.972,.382-.735,.096-1.641-.64-2.022Z"/>
</svg>
