<svg id="Layer_1" viewBox="0 0 24 24" xmlns="http://www.w3.org/2000/svg" data-name="Layer 1"><path d="m1 9c0-.575.016-.428.042-.927.178-3.367 2.701-6.187 5.998-6.703 3.129-.49 6.79-.49 9.919 0 3.297.517 5.82 3.336 5.998 6.704.027.499.042.352.042.927 0 .552-.448 1-1 1h-19.999c-.552 0-1-.448-1-1zm20.5 3h-19c-.829 0-1.5.671-1.5 1.5s.671 1.5 1.5 1.5h6.103c1.21 1.165 2.526 2.196 3.453 2.871.581.423 1.262.634 1.944.634s1.363-.211 1.944-.634c.927-.675 2.242-1.705 3.453-2.871h2.103c.829 0 1.5-.671 1.5-1.5s-.671-1.5-1.5-1.5zm.5 5h-1.808c-1.112 1.008-2.24 1.883-3.07 2.487-.916.666-1.995 1.018-3.122 1.018s-2.206-.352-3.121-1.017c-.83-.604-1.959-1.479-3.071-2.488h-5.808c-.635-.016-1.142.64-.968 1.25.541 2.089 2.194 3.662 4.315 4.106 2.042.427 4.28.644 6.653.644s4.611-.217 6.653-.644c2.122-.444 3.775-2.017 4.315-4.106.174-.61-.334-1.267-.968-1.25z"/></svg>