<?xml version="1.0" encoding="UTF-8"?>
<svg xmlns="http://www.w3.org/2000/svg" id="Layer_1" data-name="Layer 1" viewBox="0 0 24 24">
  <path d="M12.046,7.239c3.72,0,7.077,.345,9.113,.612-2.039-2.014-5.797-4.976-10.785-5.7-2.161-.311-4.005,.112-5.479,1.264-1.279,1-2.248,2.549-2.869,4.561,1.83-.266,5.684-.737,10.02-.737Z"/>
  <path d="M21.985,16.068c-.514-.054-.901-.486-.901-1.005,0-.541,.423-.984,.962-1.009,.276-.013,.536-.14,.716-.351,.18-.211,.264-.487,.231-.763-.134-1.159-.382-2.152-.614-2.894-1.363-.213-5.595-.808-10.333-.808s-8.964,.594-10.33,.808c-.341,1.088-.716,2.716-.716,4.605,0,3.408,1.205,5.931,1.256,6.036,.14,.288,.41,.492,.725,.548,.13,.023,3.227,.566,7.217,.71,.301,.008,.584-.112,.782-.334s.287-.521,.243-.815c-.006-.042-.01-.084-.01-.128,0-.435,.354-.788,.788-.788s.787,.354,.787,.788c0,.045-.004,.089-.01,.132-.044,.293,.045,.592,.243,.813,.189,.213,.462,.334,.746,.334,.012,0,.022,0,.034,0,4.028-.138,7.18-.689,7.312-.712,.317-.056,.589-.262,.728-.553,.027-.057,.674-1.419,1.027-3.449,.047-.272-.021-.553-.188-.774s-.418-.363-.693-.392Zm-14.294-.371c-.828,0-1.5-.672-1.5-1.5s.672-1.5,1.5-1.5,1.5,.672,1.5,1.5-.672,1.5-1.5,1.5Zm7.318,1.031c-.828,0-1.5-.672-1.5-1.5s.672-1.5,1.5-1.5,1.5,.672,1.5,1.5-.672,1.5-1.5,1.5Z"/>
</svg>
