<?xml version="1.0" encoding="UTF-8"?>
<svg xmlns="http://www.w3.org/2000/svg" id="Layer_1" data-name="Layer 1" viewBox="0 0 24 24">
  <path d="M21.35,20.007h-.408c.175-1.197,.368-3.029,.368-5.28,0-2.351-.178-4.103-.329-5.17h.569c.474,0,.88-.338,.967-.804,.012-.066,.298-1.625,.298-3.322,0-1.175-.19-2.343-.559-3.406-.085-.285-.297-.519-.58-.632-.104-.041-1.045-.401-2.177-.401s-2.073,.36-2.177,.401c-.259,.103-.463,.311-.56,.572-.038,.104-.197,.578-.266,1.516-.457,.008-1.033,.008-1.492,0-.069-.947-.229-1.419-.268-1.522-.098-.259-.3-.464-.558-.566-.103-.041-1.044-.401-2.177-.401s-2.074,.361-2.178,.401c-.257,.102-.459,.308-.557,.566-.039,.103-.199,.575-.267,1.521-.459,.008-1.035,.008-1.493,0-.069-.937-.227-1.411-.265-1.515-.097-.262-.3-.47-.56-.573-.104-.041-1.047-.401-2.177-.401s-2.074,.361-2.178,.401c-.286,.113-.499,.352-.582,.641h0c-.363,1.039-.555,2.214-.555,3.396,0,1.697,.286,3.257,.298,3.322,.087,.466,.493,.804,.967,.804h.569c-.152,1.067-.33,2.819-.33,5.17,0,2.251,.193,4.083,.368,5.28h-.408c-.829,0-1.5,.671-1.5,1.5s.671,1.5,1.5,1.5H21.35c.828,0,1.5-.671,1.5-1.5s-.672-1.5-1.5-1.5Zm-12.534-7.259c0-1.748,1.428-3.169,3.185-3.169s3.184,1.422,3.184,3.169v2.839c0,.458-.316,.855-.762,.958-.792,.182-1.607,.274-2.422,.274s-1.63-.092-2.423-.274c-.446-.103-.762-.5-.762-.958v-2.839Z"/>
</svg>
