<?xml version="1.0" encoding="UTF-8"?>
<svg xmlns="http://www.w3.org/2000/svg" id="Layer_1" data-name="Layer 1" viewBox="0 0 24 24">
  <path d="M19.343,20h-1.508c2.534-2.683,2.638-6.764,.292-10.53-.845,1.997-2.249,3.721-4.058,4.955-.172,.118-.369,.174-.562,.174-.32,0-.634-.153-.827-.437-.311-.457-.193-1.079,.263-1.39,1.825-1.244,3.148-3.093,3.741-5.219-.895-.988-1.871-1.776-2.659-2.336,.485-.628,.482-1.414,.481-1.69-.008-2.191-1.575-2.524-2.508-2.527h-.016c-.792,0-1.413,.218-1.843,.649-.648,.649-.645,1.572-.644,1.875,.003,.769,.198,1.309,.49,1.686-.974,.692-2.239,1.733-3.281,3.071-3.173,4.072-3.342,8.751-.538,11.719h-1.509c-.829,0-1.5,.671-1.5,1.5s.671,1.5,1.5,1.5h14.687c.829,0,1.5-.671,1.5-1.5s-.671-1.5-1.5-1.5Z"/>
</svg>
