<?xml version="1.0" encoding="UTF-8"?>
<svg xmlns="http://www.w3.org/2000/svg" id="Layer_1" data-name="Layer 1" viewBox="0 0 24 24">
  <path d="M21.763,6.493c-.133-.299-.404-.515-.726-.576-.069-.013-.767-.145-1.888-.297v-.867h.414c.828,0,1.5-.671,1.5-1.5s-.672-1.5-1.5-1.5h-3.829c-.828,0-1.5,.671-1.5,1.5s.672,1.5,1.5,1.5h.415v.541c-1.251-.102-2.666-.176-4.149-.176-.007,0-.014,0-.021,0v-.706c0-.499-.367-.921-.861-.99-2.299-.323-4.605-.202-6.923,.373-.445,.111-.758,.511-.758,.97v1.069c-.278,.047-.443,.078-.475,.084-.319,.061-.59,.274-.724,.572-.051,.112-1.238,2.795-1.238,6.423,0,3.597,1.187,6.306,1.236,6.419,.134,.299,.404,.515,.727,.576,.031,.006,.188,.036,.452,.08v.76c0,.829,.672,1.5,1.5,1.5s1.5-.671,1.5-1.5v-.353c1.551,.167,3.499,.312,5.585,.312s4.036-.145,5.585-.311v.352c0,.829,.672,1.5,1.5,1.5s1.5-.671,1.5-1.5v-.76c.265-.045,.422-.075,.453-.08,.32-.061,.59-.274,.724-.572,.05-.112,1.238-2.795,1.238-6.423,0-3.597-1.186-6.306-1.237-6.419ZM7.755,16.175c-.392,.001-.739-.027-1.046-.084l1.696-1.696c.586-.586,.586-1.536,0-2.121-.586-.586-1.535-.586-2.121,0l-1.677,1.678c-.053-.316-.074-.66-.073-1.027,.007-1.951,.666-3.265,3.245-3.275,2.586-.01,3.228,1.293,3.221,3.251-.007,1.951-.666,3.265-3.245,3.275Zm5.424-1.763h2.055c.828,0,1.5-.671,1.5-1.5s-.672-1.5-1.5-1.5h-2.034c.347-1.088,1.21-1.756,3.046-1.763,2.586-.01,3.228,1.293,3.221,3.251-.007,1.951-.666,3.265-3.245,3.275-1.855,.007-2.71-.662-3.042-1.763Z"/>
</svg>
