<?xml version="1.0" encoding="UTF-8"?>
<svg xmlns="http://www.w3.org/2000/svg" id="Layer_1" data-name="Layer 1" viewBox="0 0 24 24">
  <path d="M21.762,6.489c-.134-.297-.404-.511-.724-.572-.032-.006-.197-.037-.475-.084v-1.069c0-.459-.378-.876-.824-.987-2.253-.558-4.562-.676-6.856-.356-.494,.069-.861,.492-.861,.99v.706c-.007,0-.014,0-.021,0-1.484,0-2.898,.073-4.149,.176v-.541h.415c.829,0,1.5-.671,1.5-1.5s-.671-1.5-1.5-1.5h-3.83c-.829,0-1.5,.671-1.5,1.5s.671,1.5,1.5,1.5h.415v.867c-1.121,.153-1.82,.284-1.888,.297-.322,.062-.593,.277-.726,.576-.051,.113-1.237,2.822-1.237,6.419,0,3.628,1.188,6.311,1.238,6.423,.134,.297,.404,.511,.724,.572,.031,.006,.188,.036,.453,.08v.76c0,.829,.671,1.5,1.5,1.5s1.5-.671,1.5-1.5v-.352c1.549,.167,3.497,.311,5.585,.311s4.034-.145,5.585-.312v.353c0,.829,.672,1.5,1.5,1.5s1.5-.671,1.5-1.5v-.76c.264-.045,.421-.074,.452-.08,.322-.062,.593-.277,.727-.576,.05-.113,1.236-2.822,1.236-6.419,0-3.628-1.188-6.311-1.238-6.423ZM7.779,16.175c-2.579-.01-3.238-1.324-3.245-3.275-.007-1.958,.635-3.26,3.221-3.251,1.836,.007,2.699,.675,3.046,1.763h-2.034c-.829,0-1.5,.671-1.5,1.5s.671,1.5,1.5,1.5h2.054c-.332,1.101-1.187,1.77-3.042,1.763Zm5.221-3.275c-.007-1.958,.635-3.26,3.221-3.251,2.579,.01,3.238,1.324,3.245,3.275,.001,.367-.02,.71-.073,1.027l-1.677-1.678c-.586-.586-1.535-.586-2.121,0-.586,.585-.586,1.535,0,2.121l1.696,1.696c-.307,.057-.654,.085-1.046,.084-2.579-.01-3.238-1.324-3.245-3.275Z"/>
</svg>
