<?xml version="1.0" encoding="UTF-8"?>
<svg xmlns="http://www.w3.org/2000/svg" id="Layer_1" data-name="Layer 1" viewBox="0 0 24 24">
  <path d="M20.693,17.801c-.149-.227-.385-.383-.651-.434-5.262-.986-10.822-.986-16.084,0-.269,.05-.505,.208-.654,.438-.048,.074-1.182,1.845-1.182,4.195,0,.552,.447,1,1,1H20.878c.553,0,1-.448,1-1,0-2.37-1.137-4.125-1.185-4.199Z"/>
  <path d="M20.912,1.791c-.17-.231-.431-.377-.717-.403-.029-.003-1.968-.175-4.393-.289V3.743c0,.552-.447,1-1,1s-1-.448-1-1V1.025c-.601-.016-1.208-.025-1.803-.025s-1.201,.009-1.803,.025V3.743c0,.552-.447,1-1,1s-1-.448-1-1V1.099c-2.423,.114-4.364,.286-4.393,.289-.288,.026-.55,.174-.72,.408-.046,.062-1.116,1.556-1.116,3.542,0,2.002,1.074,3.484,1.119,3.546,.186,.252,.477,.402,.789,.407,0,0,.169,.002,.393,.007-.1,1.094-.15,2.184-.15,3.25,0,.984,.043,1.907,.107,2.74,2.54-.438,5.153-.66,7.774-.66s5.233,.222,7.773,.66c.064-.833,.107-1.758,.107-2.74,0-1.07-.05-2.159-.148-3.25,.222-.005,.39-.007,.392-.007,.313-.005,.606-.158,.791-.412,.046-.062,1.116-1.556,1.116-3.542,0-2.002-1.074-3.484-1.119-3.546Zm-6.793,9.968c-1.394,.322-2.844,.322-4.239,0v-2.731c0-1.162,.949-2.104,2.119-2.104s2.119,.942,2.119,2.104v2.731Z"/>
</svg>
