<?xml version="1.0" encoding="UTF-8"?>
<svg xmlns="http://www.w3.org/2000/svg" id="Layer_1" data-name="Layer 1" viewBox="0 0 24 24">
  <path d="M19.792,20H4.208c-.828,0-1.5,.671-1.5,1.5s.672,1.5,1.5,1.5h15.584c.828,0,1.5-.671,1.5-1.5s-.672-1.5-1.5-1.5Z"/>
  <path d="M20.655,18.064c.679-2.241,1.39-5.08,1.39-7.143,0-.396-.234-.755-.597-.915-3.372-1.485-5.753-2.366-7.948-2.644v-1.188h.886c.828,0,1.5-.671,1.5-1.5s-.672-1.5-1.5-1.5h-.886v-.674c0-.829-.672-1.5-1.5-1.5s-1.5,.671-1.5,1.5v.674h-.886c-.828,0-1.5,.671-1.5,1.5s.672,1.5,1.5,1.5h.886v1.188c-2.195,.278-4.576,1.16-7.948,2.644-.362,.16-.597,.519-.597,.915,0,2.076,.709,4.907,1.387,7.143H20.655Z"/>
</svg>
