<?xml version="1.0" encoding="UTF-8"?>
<svg xmlns="http://www.w3.org/2000/svg" id="Layer_1" data-name="Layer 1" viewBox="0 0 24 24">
  <path d="M17.95,19.996c-.22-1.131-.612-2.087-.634-2.132-.14-.279-.402-.477-.709-.534-3.53-.666-5.684-.666-9.214,0-.308,.058-.571,.257-.71,.537-.023,.046-.412,1.003-.632,2.129-.719,.111-1.269,.733-1.269,1.482,0,.828,.671,1.5,1.5,1.5h11.438c.829,0,1.5-.672,1.5-1.5,0-.749-.55-1.371-1.268-1.482Z"/>
  <path d="M8.865,9.277h6.271c.829,0,1.5-.672,1.5-1.5,0-.763-.571-1.393-1.309-1.487,.34-1.161,.039-2.534-.913-3.765-.166-.213-.348-.438-.529-.657-.936-1.129-2.834-1.129-3.77,0-.182,.219-.363,.444-.53,.658-.952,1.231-1.252,2.603-.912,3.764-.738,.094-1.309,.724-1.309,1.487,0,.828,.671,1.5,1.5,1.5Z"/>
  <path d="M15.685,11.245h-7.37l-.074,.643c-.14,1.21-.368,2.295-.68,3.379,1.705-.3,3.093-.435,4.439-.435s2.733,.135,4.439,.436c-.312-1.084-.54-2.169-.68-3.379l-.074-.643Z"/>
</svg>
