<?xml version="1.0" encoding="UTF-8"?>
<svg xmlns="http://www.w3.org/2000/svg" id="Layer_1" data-name="Layer 1" viewBox="0 0 24 24">
  <path d="M22.161,9.941c-.738-.364-1.641-.059-2.008,.686-2.289,4.659-6.511,7.56-8.154,8.558-1.645-.999-5.863-3.899-8.152-8.558-.367-.745-1.269-1.05-2.008-.686-.744,.366-1.051,1.265-.686,2.008,3.323,6.762,9.888,10.158,10.166,10.3,.214,.108,.446,.163,.68,.163s.466-.055,.68-.163c.278-.141,6.845-3.537,10.168-10.3,.365-.743,.059-1.642-.686-2.008Z"/>
  <path d="M11.229,13.999c.237,.142,.504,.213,.771,.213s.533-.071,.771-.213c.235-.142,5.823-3.538,9.122-10.25,.365-.743,.059-1.642-.686-2.008-.738-.363-1.641-.059-2.008,.686-2.212,4.502-5.674,7.363-7.201,8.474-1.526-1.104-4.972-3.949-7.195-8.474-.367-.744-1.269-1.05-2.008-.686-.744,.366-1.051,1.265-.686,2.008,3.299,6.712,8.884,10.108,9.12,10.25Z"/>
</svg>
