<svg id="Layer_1" viewBox="0 0 24 24" xmlns="http://www.w3.org/2000/svg" data-name="Layer 1"><path d="m10.371 7.768c.109.024 1.099.235 2.12.235s2.011-.211 2.12-.235c.571-.125 1.017-.571 1.142-1.142.024-.109.235-1.099.235-2.12s-.211-2.011-.235-2.12c-.125-.571-.571-1.017-1.142-1.142-.109-.024-1.099-.235-2.12-.235s-2.011.211-2.12.235c-.571.125-1.017.571-1.142 1.142-.024.109-.235 1.099-.235 2.12s.211 2.011.235 2.12c.125.571.571 1.017 1.142 1.142zm1.16-4.222c.627-.053 1.292-.053 1.919 0 .026.313.043.639.043.96s-.017.646-.043.96c-.627.053-1.292.053-1.919 0-.026-.313-.043-.639-.043-.96s.017-.646.043-.96zm11.445 18.521c-.039.519-.469.92-.989.924h-15.165c-.386 0-.746-.219-.904-.572-.767-1.714-.886-3.084-.89-3.09-.155-.844.271-1.709 1.037-2.101.679-.348 1.436-.296 2.081.096.718.611 1.574 1.586 2.385 2.71l-.039-7.52c-.005-.733.316-1.429.871-1.908.556-.48 1.293-.69 2.026-.576 1.19.185 2.089 1.208 2.099 2.469v4.496c2.327.341 5.034 1.138 6.995 2.1.34.167.499.588.499.966 0 .72.043 1.343-.007 2.005zm-21.703-15.099c-.011-.051-.273-1.257-.273-2.462s.262-2.412.273-2.462c.083-.381.381-.678.762-.762.051-.011 1.257-.273 2.462-.273s2.412.262 2.462.273c.381.083.678.381.762.762.011.051.273 1.257.273 2.462s-.262 2.412-.273 2.462c-.083.381-.381.678-.762.762-.051.011-1.257.273-2.462.273s-2.412-.262-2.462-.273c-.381-.083-.678-.381-.762-.762zm5.687 8.756c-.051.011-1.257.273-2.462.273s-2.412-.262-2.462-.273c-.381-.083-.678-.381-.762-.762-.011-.051-.273-1.257-.273-2.462s.262-2.412.273-2.462c.083-.381.381-.678.762-.762.051-.011 1.257-.273 2.462-.273s2.412.262 2.462.273c.381.083.678.381.762.762.011.051.273 1.257.273 2.462s-.262 2.412-.273 2.462c-.083.381-.381.678-.762.762z"/></svg>