<svg id="Layer_1" viewBox="0 0 24 24" xmlns="http://www.w3.org/2000/svg" data-name="Layer 1"><path d="m12 1c-7.71 0-11 3.29-11 11s3.29 11 11 11 11-3.29 11-11-3.29-11-11-11zm-2 6c0-1.429.571-2 2-2 1.248 0 1.842.437 1.972 1.5h-.972c-.553 0-1 .447-1 1s.447 1 1 1h1v1h-1c-.553 0-1 .447-1 1s.447 1 1 1h.972c-.13 1.063-.724 1.5-1.972 1.5-1.429 0-2-.571-2-2zm3 9.94v1.06c0 .553-.447 1-1 1s-1-.447-1-1v-1.06c-3.432-.295-5-2.148-5-5.94 0-.553.447-1 1-1s1 .447 1 1c0 3.028.972 4 4 4s4-.972 4-4c0-.553.447-1 1-1s1 .447 1 1c0 3.792-1.568 5.645-5 5.94z"/></svg>