<svg id="Layer_1" viewBox="0 0 24 24" xmlns="http://www.w3.org/2000/svg" data-name="Layer 1"><path d="m12 1c-7.71 0-11 3.29-11 11s3.29 11 11 11 11-3.29 11-11-3.29-11-11-11zm-1.5 13c-.16 0-.298-.002-.422-.007.133 1.695.389 2.751.393 2.766.133.535-.193 1.078-.729 1.211-.521.135-1.079-.188-1.211-.728-.021-.086-.53-2.154-.53-5.242 0-2.708.391-4.632.501-5.122.057-.473.442-.849.931-.876.443-.021.627 0 1.177-.002 1.478.005 5.39.019 5.39 3.88 0 1.88-.954 4.12-5.5 4.12zm0-2c-.206 0-.361-.004-.5-.012 0-1.768.184-3.179.321-3.989h.287c3.392.012 3.392 1.004 3.392 1.88 0 .741 0 2.12-3.5 2.12z"/></svg>