<svg id="Layer_1" viewBox="0 0 24 24" xmlns="http://www.w3.org/2000/svg" data-name="Layer 1"><path d="m17.718 15c-.279 0-.558-.078-.803-.233-1.085-.688-1.941-1.463-2.618-2.37-.495-.665-.357-1.604.307-2.099.665-.496 1.604-.358 2.1.306.289.388.624.737 1.027 1.065.854-.683 1.639-1.62 2.506-2.976.446-.699 1.376-.901 2.071-.456.698.446.902 1.374.456 2.071-.924 1.446-2.245 3.262-4.274 4.479-.237.143-.505.214-.771.214zm0 2c.129 0 .256-.012.384-.026-1.262 2.75-3.89 4.026-8.101 4.026-6.225 0-9-2.775-9-9-.001-6.309 2.69-9 8.999-9 4.665 0 7.348 1.477 8.431 4.795-.242.37-.477.708-.703 1.002-.488-.404-1.079-.668-1.722-.762-.928-.135-1.848.099-2.597.657-.75.559-1.237 1.375-1.373 2.3-.135.925.099 1.848.657 2.599.826 1.106 1.856 2.043 3.151 2.863.562.355 1.209.544 1.873.544zm-6.218-.5c0-.828-.672-1.5-1.5-1.5s-1.5.672-1.5 1.5.672 1.5 1.5 1.5 1.5-.672 1.5-1.5zm-.5-8.5c0-.552-.447-1-1-1s-1 .448-1 1v5c0 .553.447 1 1 1s1-.447 1-1z"/></svg>