<svg id="Layer_1" viewBox="0 0 24 24" xmlns="http://www.w3.org/2000/svg" data-name="Layer 1"><path d="m12 1c-7.71 0-11 3.29-11 11s3.29 11 11 11 11-3.29 11-11-3.29-11-11-11zm5.999 6.043c-.257 5.908-2.52 10.243-2.615 10.425-.159.302-.462.501-.802.529-.337.027-.671-.119-.877-.391-.051-.066-.893-1.188-1.705-3.222-.812 2.034-1.654 3.155-1.705 3.222-.206.271-.54.419-.877.391-.34-.028-.642-.228-.802-.529-.096-.182-2.358-4.517-2.615-10.425-.024-.552.404-1.018.956-1.042.543-.027 1.019.404 1.042.956.144 3.312.99 6.128 1.634 7.832.465-.95 1.009-2.304 1.392-4.008.103-.457.508-.781.976-.781s.873.324.976.781c.383 1.704.927 3.057 1.392 4.008.644-1.704 1.489-4.52 1.634-7.832.024-.552.506-.981 1.042-.956.552.024.98.49.956 1.042z"/></svg>