<svg id="Layer_1" viewBox="0 0 24 24" xmlns="http://www.w3.org/2000/svg" data-name="Layer 1"><path d="m12 1c-7.71 0-11 3.29-11 11s3.29 11 11 11 11-3.29 11-11-3.29-11-11-11zm4.47 5.757c.022.087.53 2.155.53 5.243s-.508 5.156-.53 5.243c-.095.38-.402.669-.788.741-.379.071-.777-.088-1.001-.41l-5.569-7.957c-.064.682-.111 1.487-.111 2.383 0 2.824.466 4.74.471 4.759.132.536-.194 1.078-.729 1.211-.536.136-1.077-.192-1.211-.727-.022-.087-.53-2.155-.53-5.243s.508-5.156.53-5.243c.095-.38.402-.669.788-.741.383-.073.776.088 1.001.41l5.569 7.957c.064-.682.111-1.487.111-2.383 0-2.824-.466-4.74-.471-4.759-.132-.536.194-1.078.729-1.211.533-.137 1.077.192 1.211.727z"/></svg>