<svg id="Layer_1" viewBox="0 0 24 24" xmlns="http://www.w3.org/2000/svg" data-name="Layer 1"><path d="m11.798 1c-4.722 0-11 1.14-11 11 0 9.75 5.879 11 11 11s11.404-.974 11.404-10.723-6.283-11.277-11.404-11.277zm3.455 16.391c-.122.062-1.257.609-3.455.609-2.688 0-3.698-1.262-3.804-1.406-.152-.206-.22-.461-.188-.715.021-.18.263-1.804 1.911-3.296.702-.635 1.427-1.023 2.066-1.365 1.15-.616 1.515-.852 1.515-1.718 0-.883-.573-1.5-1.394-1.5-.564 0-1.32.165-1.712.948-.248.494-.846.695-1.343.446-.493-.248-.693-.848-.446-1.342.653-1.304 1.93-2.052 3.501-2.052 1.935 0 3.394 1.505 3.394 3.5 0 2.105-1.426 2.868-2.571 3.481-.564.302-1.148.614-1.668 1.085-.637.576-.96 1.165-1.12 1.566.325.167.91.367 1.859.367 1.705 0 2.549-.393 2.558-.396.49-.237 1.091-.034 1.333.457.242.49.052 1.081-.436 1.33z"/></svg>