<svg id="Layer_1" viewBox="0 0 24 24" xmlns="http://www.w3.org/2000/svg" data-name="Layer 1"><path d="m12 1c-7.71 0-11 3.29-11 11s3.29 11 11 11 11-3.29 11-11-3.29-11-11-11zm0 17c-1.117 0-2.579-.206-2.641-.215-.394-.056-.716-.339-.822-.722-.022-.079-.537-1.962-.537-5.063s.514-5.005.536-5.085c.106-.391.438-.678.84-.728.062-.008 1.515-.188 2.624-.188 4.481 0 5 3.424 5 6s-.519 6-5 6zm0-2c-.535 0-1.189-.058-1.674-.111-.137-.739-.326-2.088-.326-3.889s.188-3.156.326-3.903c.485-.046 1.139-.097 1.674-.097 1.989 0 3 .619 3 4s-1.011 4-3 4z"/></svg>