<svg id="Layer_1" viewBox="0 0 24 24" xmlns="http://www.w3.org/2000/svg" data-name="Layer 1"><path d="m12 12.5c-1.607 0-2 .33-2 1.68 0 1.429.43 1.82 2 1.82 1.552 0 2-.408 2-1.82 0-1.382-.355-1.68-2-1.68z"/><ellipse cx="12" cy="9.25" rx="1.319" ry="1.25"/><path d="m12 1c-4.722 0-11 1.14-11 11 0 9.75 5.879 11 11 11s11-1.25 11-11-5.879-11-11-11zm0 17c-2.654 0-4-1.285-4-3.82 0-1.525.517-2.418 1.193-2.941-.337-.516-.513-1.182-.513-1.989 0-1.214.432-3.25 3.319-3.25s3.319 2.036 3.319 3.25c0 .574-.097 1.332-.504 1.971.674.52 1.185 1.416 1.185 2.959 0 2.535-1.346 3.82-4 3.82z"/></svg>