<svg id="Layer_1" viewBox="0 0 24 24" xmlns="http://www.w3.org/2000/svg" data-name="Layer 1"><path d="m12 1c-7.71 0-11 3.29-11 11s3.29 11 11 11 11-3.29 11-11-3.29-11-11-11zm5.469 14.803c-.093.365-.384.647-.752.729-.086.019-2.137.468-4.717.468s-4.631-.449-4.717-.468c-.368-.082-.659-.363-.752-.729-.022-.084-.531-2.097-.531-3.803s.509-3.719.531-3.803c.093-.365.384-.647.752-.729.047-.01.705-.151 1.706-.276.348-1.011.632-1.497.668-1.556.146-.241.387-.41.664-.463.037-.007.898-.173 1.679-.173s1.643.166 1.679.173c.277.054.518.222.664.463.035.059.32.545.668 1.556 1.001.125 1.659.265 1.706.276.368.082.659.363.752.729.022.084.531 2.097.531 3.803s-.509 3.719-.531 3.803zm-5.469-6.803c-1.555 0-2.919.182-3.67.307-.138.667-.33 1.76-.33 2.693s.192 2.026.33 2.693c.751.125 2.115.307 3.67.307s2.919-.182 3.67-.307c.138-.667.33-1.76.33-2.693s-.192-2.026-.33-2.693c-.751-.125-2.115-.307-3.67-.307zm0 4.5c-1.071 0-1.5-.429-1.5-1.5s.429-1.5 1.5-1.5 1.5.429 1.5 1.5-.429 1.5-1.5 1.5z"/><path d="m12 1c-7.71 0-11 3.29-11 11s3.29 11 11 11 11-3.29 11-11-3.29-11-11-11zm5.469 14.803c-.093.365-.384.647-.752.729-.086.019-2.137.468-4.717.468s-4.631-.449-4.717-.468c-.368-.082-.659-.363-.752-.729-.022-.084-.531-2.097-.531-3.803s.509-3.719.531-3.803c.093-.365.384-.647.752-.729.047-.01.705-.151 1.706-.276.348-1.011.632-1.497.668-1.556.146-.241.387-.41.664-.463.037-.007.898-.173 1.679-.173s1.643.166 1.679.173c.277.054.518.222.664.463.035.059.32.545.668 1.556 1.001.125 1.659.265 1.706.276.368.082.659.363.752.729.022.084.531 2.097.531 3.803s-.509 3.719-.531 3.803zm-5.469-6.803c-1.555 0-2.919.182-3.67.307-.138.667-.33 1.76-.33 2.693s.192 2.026.33 2.693c.751.125 2.115.307 3.67.307s2.919-.182 3.67-.307c.138-.667.33-1.76.33-2.693s-.192-2.026-.33-2.693c-.751-.125-2.115-.307-3.67-.307zm0 4.5c-1.071 0-1.5-.429-1.5-1.5s.429-1.5 1.5-1.5 1.5.429 1.5 1.5-.429 1.5-1.5 1.5z"/></svg>