<svg id="Layer_1" viewBox="0 0 24 24" xmlns="http://www.w3.org/2000/svg" data-name="Layer 1"><path d="m12 1c-4.722 0-11 1.14-11 11 0 9.75 5.878 11 11 11s11-1.25 11-11-5.878-11-11-11zm-.011 17c-1.833 0-3.738-.39-3.969-3.286-.043-.55.367-1.032.918-1.076.559-.039 1.032.367 1.076.918.091 1.153.333 1.444 1.975 1.444 1.59 0 1.994-.193 1.994-1.964 0-1.671-.544-2.208-2.239-2.208-.541 0-1.385.15-1.662.22-.507.127-1.216-.245-1.214-.977.004-2.163.388-3.748.405-3.814.067-.272.247-.504.493-.638.086-.047 2.154-1.141 5-.302.53.156.833.712.676 1.242-.155.531-.712.834-1.242.676-1.409-.415-2.521-.196-3.085-.014-.067.377-.154.956-.205 1.662.278-.033.568-.056.833-.056 2.812 0 4.239 1.416 4.239 4.208 0 3.493-2.019 3.964-3.994 3.964z"/></svg>