<svg id="Layer_1" viewBox="0 0 24 24" xmlns="http://www.w3.org/2000/svg" data-name="Layer 1"><path d="m11.281 9.625c-1.129 1.412-1.543 2.833-1.694 3.658.462.108 1.126.218 1.914.218.551 0 1.054-.027 1.5-.068v-5.154c-.511.223-1.141.625-1.719 1.347z"/><path d="m12 1c-4.722 0-11 1.14-11 11 0 9.75 5.878 11 11 11s11-1.25 11-11-5.878-11-11-11zm3.805 13.952c-.028.009-.311.098-.805.202v1.846c0 .552-.448 1-1 1s-1-.448-1-1v-1.561c-.456.037-.958.061-1.5.061-1.961 0-3.324-.552-3.381-.575-.375-.154-.619-.52-.619-.925 0-.116.025-2.882 2.219-5.625 1.831-2.29 4.158-2.373 4.256-2.375.269-.019.53.095.723.284.193.188.302.446.302.716v6.101c.126-.032.194-.053.197-.054.528-.164 1.088.126 1.254.651.167.525-.122 1.086-.646 1.254z"/></svg>