<svg id="Layer_1" viewBox="0 0 24 24" xmlns="http://www.w3.org/2000/svg" data-name="Layer 1"><path d="m11.993 11.793c1.546 0 2.018-.443 2.018-1.896 0-1.489-.434-1.897-2.018-1.897-1.565 0-2.017.425-2.017 1.897s.452 1.896 2.017 1.896z"/><path d="m12 23c4.722 0 11-1.14 11-11 0-9.75-5.878-11-11-11s-11 1.25-11 11 5.879 11 11 11zm-.007-17c2.649 0 3.999 1.295 4.017 3.848.02.264 0 2.157 0 2.157 0 3.886-1.797 5.847-5.494 5.995-.544.021-1.017-.407-1.039-.959s.407-1.017.959-1.039c1.814-.073 3.06-.559 3.447-2.511-.508.193-1.13.304-1.89.304-2.666 0-4.017-1.311-4.017-3.896s1.352-3.897 4.017-3.897z"/></svg>