<svg id="Layer_1" viewBox="0 0 24 24" xmlns="http://www.w3.org/2000/svg" data-name="Layer 1"><path d="m12 1c-7.71 0-11 3.29-11 11s3.29 11 11 11 11-3.29 11-11-3.29-11-11-11zm3.98 15.804c.108.542-.243 1.068-.784 1.177-.528.11-1.071-.239-1.177-.784-.357-1.786-1.3-2.997-1.615-3.362-.554.104-1.179.166-1.905.166-.16 0-.298-.002-.422-.007.133 1.695.389 2.751.393 2.766.133.535-.193 1.078-.729 1.211-.521.135-1.079-.188-1.211-.728-.021-.086-.53-2.154-.53-5.242 0-2.708.391-4.632.501-5.122.057-.473.442-.849.931-.876.44-.021.631 0 1.177-.002 1.478.005 5.39.019 5.39 3.88 0 1.135-.355 2.399-1.632 3.225.545.761 1.278 2.026 1.613 3.699zm-5.98-4.815c0-1.768.184-3.179.321-3.989h.287c3.392.012 3.392 1.004 3.392 1.88 0 .741 0 2.12-3.5 2.12-.206 0-.361-.004-.5-.012z"/></svg>