<svg id="Layer_1" viewBox="0 0 24 24" xmlns="http://www.w3.org/2000/svg" data-name="Layer 1"><path d="m12 1c-7.71 0-11 3.29-11 11s3.29 11 11 11 11-3.29 11-11-3.29-11-11-11zm4 13.5c0 2.206-1.794 4-4 4-1.691 0-3.208-1.071-3.771-2.667-.185-.521.088-1.092.609-1.275.519-.186 1.093.088 1.275.609.282.797 1.041 1.333 1.887 1.333 1.103 0 2-.897 2-2s-.897-2-2-2c-1.93 0-3.5-1.57-3.5-3.5s1.57-3.5 3.5-3.5c1.392 0 2.651.824 3.208 2.1.222.506-.01 1.096-.516 1.316-.506.227-1.096-.01-1.316-.516-.239-.547-.779-.9-1.376-.9-.827 0-1.5.673-1.5 1.5s.673 1.5 1.5 1.5c2.206 0 4 1.794 4 4z"/></svg>