<svg id="Layer_1" viewBox="0 0 24 24" xmlns="http://www.w3.org/2000/svg" data-name="Layer 1"><path d="m12 1c-4.722 0-11 1.14-11 11 0 9.75 5.879 11 11 11s11-1.25 11-11-5.879-11-11-11zm3.968 6.646c-.03.116-.751 2.861-2.001 5.308-1.825 3.572-3.198 4.714-3.349 4.832-.183.145-.86.486-1.404-.167-.353-.424-.267-1.063.168-1.404.002-.002 1.185-1.001 2.804-4.171.709-1.388 1.243-2.915 1.55-3.889-.492-.081-1.112-.154-1.735-.154-1.54 0-2.588.44-2.599.445-.507.223-1.095-.008-1.317-.515-.222-.505.009-1.095.515-1.317.057-.025 1.422-.613 3.401-.613 1.645 0 3.194.411 3.26.429.53.143.847.686.708 1.217z"/></svg>