<svg id="Layer_1" viewBox="0 0 24 24" xmlns="http://www.w3.org/2000/svg" data-name="Layer 1"><path d="m12 1c-7.71 0-11 3.29-11 11s3.29 11 11 11 11-3.29 11-11-3.29-11-11-11zm2.853 7.166c-.74-.11-1.448-.166-2.103-.166-.973 0-1.898.123-2.49.222-.086.647-.202 1.705-.243 2.91 1.024-.091 2.568-.177 4.063-.058.55.044.961.526.917 1.077-.044.55-.511.957-1.077.917-1.451-.115-2.974-.017-3.893.071.081 1.968.334 3.693.337 3.713.082.546-.294 1.055-.841 1.137-.534.084-1.057-.292-1.137-.84-.016-.105-.386-2.603-.386-5.148s.375-4.708.39-4.799c.069-.394.367-.708.756-.8.07-.016 1.731-.401 3.604-.401.753 0 1.56.063 2.397.188.546.082.923.59.842 1.136-.082.547-.595.923-1.136.842z"/></svg>