<svg id="Layer_1" viewBox="0 0 24 24" xmlns="http://www.w3.org/2000/svg" data-name="Layer 1"><path d="m11.167 7 4.842-4.842c1.22.101 2.223.239 3.022.375l-4.466 4.466h-3.398zm-2.828 0 4.982-4.982c-.425-.011-.861-.018-1.321-.018-.794 0-1.534.018-2.226.048l-4.953 4.952zm-1.633-4.712c-2.595.302-3.938.736-4.022.764-.324.107-.571.374-.654.706-.024.094-.345 1.397-.623 3.242h.586l4.712-4.712zm15.888 4.712c-.278-1.845-.6-3.148-.623-3.242-.081-.326-.321-.587-.637-.698l-3.94 3.94h5.201zm-11.594 8.501c0 .407.05.793.114 1.121.677-.331 1.288-.704 1.842-1.121-.554-.419-1.165-.791-1.841-1.123-.065.328-.115.715-.115 1.123zm12-3.501c0 4.076-.988 8.074-1.03 8.242-.082.332-.329.599-.653.706-.129.043-3.225 1.052-9.316 1.052s-9.188-1.009-9.316-1.052c-.324-.107-.571-.374-.654-.706-.042-.168-1.03-4.166-1.03-8.242 0-1.025.063-2.045.157-3h21.685c.094.955.157 1.975.157 3zm-7.5 3.501c0-.273-.112-.536-.311-.725-1.188-1.129-2.61-2.014-4.351-2.706-.506-.2-1.084.042-1.293.547-.022.054-.546 1.334-.546 2.884s.523 2.828.546 2.883c.21.509.798.745 1.293.546 1.741-.692 3.164-1.577 4.35-2.704.199-.188.312-.45.312-.725z"/></svg>