<svg id="Layer_1" viewBox="0 0 24 24" xmlns="http://www.w3.org/2000/svg" data-name="Layer 1"><path d="m11.008 10.192c0 1.115-1.138 1.241-2.008 1.299 0-1.141.099-1.958.191-2.473 1.817.099 1.817.58 1.817 1.174zm9.992 2.808c0 5.527-1.09 8.35-1.136 8.467-.104.265-.316.472-.583.571-.106.039-2.654.962-7.28.962s-7.174-.923-7.28-.962c-.267-.099-.479-.306-.583-.571-.046-.117-1.136-2.94-1.136-8.467s1.09-8.35 1.136-8.467c.108-.274.333-.487.612-.581.056-.019 1.261-.417 3.311-.692.544-1.519 1.841-2.259 3.94-2.259s3.396.741 3.94 2.259c2.05.275 3.255.674 3.311.692.28.094.504.306.612.581.046.118 1.137 2.941 1.137 8.468zm-4.403 4.198c-.01-.007-.784-.595-1.78-1.656 1.364-1.727 1.99-3.067 2.017-3.126.229-.501.008-1.093-.493-1.323-.503-.23-1.094-.01-1.326.49-.006.012-.481 1.031-1.516 2.4-.526-.696-.899-1.291-1.148-1.719.397-.48.656-1.145.656-2.071 0-3.176-3.157-3.188-4.505-3.192-.448-.024-.878.226-1.033.655-.048.129-.471 1.339-.471 3.845 0 2.324.258 3.642.27 3.696.106.544.647.892 1.175.784.541-.107.893-.633.787-1.174-.001-.007-.089-.466-.157-1.313.455-.015 1.01-.062 1.557-.208.327.562.837 1.353 1.551 2.257-.996 1.061-1.77 1.649-1.78 1.656-.442.33-.534.956-.205 1.399.331.445.959.533 1.397.207.044-.033.849-.636 1.904-1.741 1.056 1.105 1.86 1.708 1.904 1.741.438.327 1.066.238 1.397-.207.329-.443.237-1.069-.205-1.399z"/></svg>