<svg id="Layer_1" viewBox="0 0 24 24" xmlns="http://www.w3.org/2000/svg" data-name="Layer 1"><path d="m20.905 6.335c-.324-1.933-1.983-3.335-3.945-3.335h-.01s-.093 0-.219.002c-.436-.929-1.318-1.625-2.361-1.798-1.638-.271-3.108-.271-4.74 0-1.041.172-1.923.868-2.36 1.795h-.228c-1.962 0-3.622 1.403-3.945 3.336-.272 1.626-.597 4.102-.597 6.664 0 4.831 1.526 8.218 1.591 8.36.116.252.331.445.595.533.136.045 3.386 1.107 7.314 1.107s7.177-1.062 7.313-1.106c.266-.088.482-.283.598-.538.064-.143 1.589-3.566 1.589-8.356 0-2.58-.323-5.048-.595-6.665zm-13.905 12.163c-.827 0-1.498-.671-1.498-1.498s.671-1.498 1.498-1.498 1.498.671 1.498 1.498-.671 1.498-1.498 1.498zm0-4c-.827 0-1.498-.671-1.498-1.498s.671-1.498 1.498-1.498 1.498.671 1.498 1.498-.671 1.498-1.498 1.498zm0-4c-.827 0-1.498-.671-1.498-1.498s.671-1.498 1.498-1.498 1.498.671 1.498 1.498-.671 1.498-1.498 1.498zm10 7.502h-5c-.552 0-1-.448-1-1s.448-1 1-1h5c.553 0 1 .448 1 1s-.447 1-1 1zm0-4h-5c-.552 0-1-.448-1-1s.448-1 1-1h5c.553 0 1 .448 1 1s-.447 1-1 1zm0-4h-5c-.552 0-1-.448-1-1s.448-1 1-1h5c.553 0 1 .448 1 1s-.447 1-1 1z"/></svg>