<svg id="Layer_1" viewBox="0 0 24 24" xmlns="http://www.w3.org/2000/svg" data-name="Layer 1"><path d="m12 1c-6.309 0-9 2.691-9 9s2.691 9 9 9 9-2.691 9-9-2.691-9-9-9zm1 9c0 .266-.105.52-.293.707l-2 2c-.391.391-1.023.391-1.414 0s-.391-1.023 0-1.414l1.707-1.707v-3.586c0-.553.448-1 1-1s1 .447 1 1zm7.492 8.03c-.195 1.773-.375 3.006-.392 3.117-.058.39-.339.709-.719.816-.15.042-3.73 1.037-7.382 1.037s-7.231-.995-7.382-1.037c-.379-.107-.661-.427-.719-.816-.016-.111-.197-1.343-.392-3.117 1.82 1.983 4.635 2.97 8.492 2.97s6.672-.987 8.492-2.97z"/></svg>