<svg id="Layer_1" viewBox="0 0 24 24" xmlns="http://www.w3.org/2000/svg" data-name="Layer 1"><path d="m11.207 16.16 4.68 4.68c-1.123.096-2.414.16-3.887.16-6.103 0-9.206-1.079-9.335-1.125-.278-.099-.498-.315-.602-.591-.043-.116-1.063-2.887-1.063-7.284 0-2.342.289-4.217.567-5.481l3.576 3.576c-.139.741-.142 1.449-.142 1.905 0 1.368 0 5 3.75 5 1.005 0 1.85-.328 2.457-.84zm10.52 3.446c.087-.094.163-.199.209-.322.043-.116 1.063-2.887 1.063-7.284s-1.021-7.168-1.063-7.284c-.104-.276-.323-.492-.602-.591-.129-.046-3.232-1.125-9.335-1.125-2.748 0-4.882.219-6.415.463l-2.023-2.024c-.586-.586-1.535-.586-2.121 0-.586.585-.586 1.536 0 2.121l4.564 4.564c.554-.657 1.408-1.124 2.747-1.124 1.005 0 1.788.25 2.396.762.422.356.475.988.118 1.41-.355.42-.987.475-1.409.118-.231-.195-.593-.29-1.104-.29-.488 0-.984.001-1.323.548l4.823 4.823c-.246-.901-.25-1.82-.25-2.371 0-1.368 0-5 3.75-5 1.005 0 1.788.25 2.396.762.422.356.475.988.118 1.41-.355.42-.987.475-1.409.118-.231-.195-.593-.29-1.104-.29-.86 0-1.75 0-1.75 3s.89 3 1.75 3c.512 0 .873-.095 1.104-.29.423-.358 1.054-.303 1.409.118.356.422.304 1.053-.118 1.41-.607.513-1.391.762-2.396.762-.363 0-.681-.043-.977-.106l5.666 5.666c.586.586 1.535.586 2.121 0 .586-.585.586-1.536 0-2.121l-.833-.833zm-11.938-4.864-2.788-2.788v.047c0 3 .89 3 1.75 3 .474 0 .807-.091 1.039-.258z"/></svg>