<svg id="Layer_1" viewBox="0 0 24 24" xmlns="http://www.w3.org/2000/svg" data-name="Layer 1"><path d="m14.999 11.107c-.104-.062-.203-.121-.306-.182 1.545-1.409 2.307-3.034 2.307-4.925 0-3.317-1.682-5-5-5-3.14 0-4.816 1.496-4.985 4.447-.047.826.585 1.535 1.412 1.583.83.015 1.536-.585 1.583-1.413.067-1.174.256-1.617 1.99-1.617 1.664 0 2 .337 2 2 0 2.487-2.913 4.098-4.999 5.107-4.115 2.443-8.001 4.749-8.001 7.543 0 2.283 1.081 3.576 3.183 3.839 2.317.339 4.947.511 7.817.511s5.5-.172 7.787-.507c2.132-.267 3.213-1.56 3.213-3.843 0-2.794-3.886-5.101-8.001-7.543zm4.384 8.414c-1.494.219-3.988.479-7.383.479s-5.889-.261-7.414-.483c-.368-.046-.586-.284-.586-.866.021-1.098 4.418-3.708 6.532-4.963.5-.297.994-.59 1.468-.877.474.287.968.58 1.468.877 2.114 1.255 6.512 3.865 6.532 4.963 0 .584-.213.819-.617.87z"/></svg>