<svg id="Layer_1" viewBox="0 0 24 24" xmlns="http://www.w3.org/2000/svg" data-name="Layer 1"><path d="m14 14c0 1.589-.411 2-2 2s-2-.411-2-2 .411-2 2-2 2 .411 2 2zm9 1.75c0 3.446-2.804 6.25-6.25 6.25h-11.5c-2.343 0-4.25-1.906-4.25-4.25 0-1.336.629-2.573 1.661-3.366-.434-1.071-.661-2.225-.661-3.384 0-4.963 4.038-9 9-9 4.767 0 8.68 3.726 8.981 8.418 1.876 1.129 3.019 3.12 3.019 5.332zm-7.096-2.849.927-.535c.479-.276.643-.889.366-1.366-.278-.483-.896-.639-1.366-.366l-.758.438c-.492-.529-1.178-.863-2.072-.998v-1.074c0-.553-.447-1-1-1s-1 .447-1 1v1.074c-.893.135-1.58.469-2.072.998l-.758-.438c-.47-.273-1.088-.117-1.366.366-.276.478-.112 1.09.366 1.366l.927.535c-.058.339-.096.699-.096 1.099s.038.76.096 1.099l-.927.535c-.479.276-.643.889-.366 1.366.278.483.897.639 1.366.366l.758-.438c.492.529 1.178.863 2.072.998v1.074c0 .553.447 1 1 1s1-.447 1-1v-1.074c.893-.135 1.58-.469 2.072-.998l.758.438c.47.273 1.088.117 1.366-.366.276-.478.112-1.09-.366-1.366l-.927-.535c.058-.339.096-.699.096-1.099s-.038-.76-.096-1.099z"/></svg>