<?xml version="1.0" encoding="UTF-8"?>
<svg xmlns="http://www.w3.org/2000/svg" id="Layer_1" data-name="Layer 1" viewBox="0 0 24 24">
  <path d="M5.524,17.864c0-1.936,.978-3.716,2.534-4.77,.194-1.479,.836-2.818,1.783-3.879,.059-.364,.144-.749,.255-1.154,.532-1.942,1.315-3.133,2.394-3.643,.394-.186,.622-.606,.564-1.038-.059-.432-.39-.776-.819-.851C7.334,1.668,2.654,4.638,1.342,9.427c-.999,3.646,.25,7.55,3.184,9.948,.18,.147,.404,.226,.633,.226,.073,0,.146-.008,.219-.024,.131-.029,.253-.084,.359-.16-.139-.494-.213-1.015-.213-1.552Z"/>
  <path d="M18.867,21.619h-7.588c-2.071,0-3.755-1.684-3.755-3.754,0-1.621,1.028-3.01,2.48-3.533-.005-.096-.008-.191-.008-.287,0-2.897,2.358-5.255,5.256-5.255,2.78,0,5.063,2.17,5.244,4.905,1.488,.641,2.501,2.125,2.501,3.795,0,2.277-1.853,4.129-4.13,4.129Z"/>
</svg>
