<?xml version="1.0" encoding="UTF-8"?>
<svg xmlns="http://www.w3.org/2000/svg" id="Layer_1" data-name="Layer 1" viewBox="0 0 24 24">
  <path d="M19.713,15.406c-.195-2.395-2.174-4.283-4.579-4.283-2.533,0-4.594,2.096-4.594,4.671,0,.053,0,.106,.002,.16-1.229,.5-2.09,1.72-2.09,3.137,0,1.862,1.492,3.377,3.327,3.377h6.409c2.009,0,3.644-1.66,3.644-3.701,0-1.462-.854-2.767-2.118-3.361Z"/>
  <path d="M19.303,8.816c-.089-4.032-3.336-7.284-7.316-7.284-4.035,0-7.317,3.344-7.317,7.454,0,.271,.014,.54,.042,.807-2.151,.612-3.712,2.621-3.712,4.986s1.565,4.419,3.806,5.012c.084,.022,.17,.033,.256,.033,.088,0,.177-.012,.263-.035l1.142-.311c-.009-.128-.014-.257-.014-.387,0-1.747,.82-3.338,2.167-4.334,.494-3.188,3.227-5.634,6.515-5.634,3.044,0,5.673,2.147,6.397,5.054,.355,.265,.676,.57,.958,.906,.31-.174,.511-.504,.511-.872,0-2.429-1.512-4.576-3.697-5.395Z"/>
</svg>
