<svg id="Layer_1" viewBox="0 0 24 24" xmlns="http://www.w3.org/2000/svg" data-name="Layer 1"><path d="m19.981 10.418c-.301-4.692-4.214-8.418-8.981-8.418-4.962 0-9 4.037-9 9 0 1.159.227 2.312.661 3.384-1.032.793-1.661 2.03-1.661 3.366 0 2.344 1.907 4.25 4.25 4.25h11.5c3.446 0 6.25-2.804 6.25-6.25 0-2.212-1.142-4.203-3.019-5.332zm-7.981 8.583c-3.411 0-5-1.589-5-5 0-.553.448-1 1-1s1 .447 1 1c0 2.299.701 3 3 3s3-.701 3-3-.701-3-3-3v1c0 .379-.214.725-.553.895-.338.168-.743.134-1.047-.095-.834-.625-1.574-1.365-2.2-2.2-.267-.355-.267-.844 0-1.199.626-.836 1.366-1.576 2.2-2.2.303-.229.708-.264 1.047-.095.339.17.553.516.553.895v1c3.411 0 5 1.589 5 5s-1.589 5-5 5z"/></svg>