<svg id="Layer_1" viewBox="0 0 24 24" xmlns="http://www.w3.org/2000/svg" data-name="Layer 1"><path d="m19.75 10.667c-.046-4.786-3.953-8.667-8.75-8.667-4.825 0-8.75 3.925-8.75 8.75 0 .874.128 1.73.38 2.556-1.032.94-1.63 2.272-1.63 3.694 0 2.758 2.243 5.001 5 5.001h11c3.309 0 6-2.692 6-6.001 0-2.255-1.28-4.315-3.25-5.333zm-9.211 5.492c.466.298.601.916.303 1.381-.19.299-.514.461-.843.461-.185 0-.371-.051-.538-.158-1.126-.721-2.041-1.636-2.799-2.796-.217-.333-.216-.762 0-1.094.757-1.159 1.672-2.073 2.798-2.794.465-.299 1.083-.163 1.381.303.298.465.163 1.083-.303 1.382-.699.448-1.297.994-1.812 1.657.517.665 1.113 1.211 1.812 1.659zm6.798-1.111c-.758 1.161-1.674 2.076-2.798 2.796-.167.107-.354.158-.538.158-.329 0-.652-.162-.843-.461-.298-.465-.163-1.083.303-1.381.698-.447 1.296-.994 1.812-1.659-.517-.663-1.113-1.209-1.812-1.657-.466-.298-.601-.917-.303-1.382.297-.465.915-.601 1.381-.303 1.126.721 2.041 1.635 2.798 2.794.218.332.218.762 0 1.094z"/></svg>