<svg id="Layer_1" viewBox="0 0 24 24" xmlns="http://www.w3.org/2000/svg" data-name="Layer 1"><path d="m19.981 10.418c-.301-4.692-4.214-8.418-8.981-8.418-4.962 0-9 4.037-9 9 0 1.159.227 2.312.661 3.384-1.032.793-1.661 2.03-1.661 3.366 0 2.344 1.907 4.25 4.25 4.25h11.5c3.446 0 6.25-2.804 6.25-6.25 0-2.212-1.142-4.203-3.019-5.332zm-9.781 1.182c-.063-.084-.135-.16-.2-.241v6.641c0 .553-.447 1-1 1s-1-.447-1-1v-6.641c-.066.081-.137.157-.2.241-.33.443-.957.532-1.399.2-.442-.331-.532-.958-.2-1.399.625-.835 1.365-1.575 2.2-2.2.355-.267.844-.267 1.199 0 .835.625 1.575 1.365 2.2 2.2.332.441.242 1.068-.2 1.399-.437.329-1.067.245-1.399-.2zm6.6 5c-.625.835-1.365 1.575-2.2 2.2-.355.267-.844.267-1.199 0-.835-.625-1.575-1.365-2.2-2.2-.332-.441-.242-1.068.2-1.399.44-.332 1.068-.243 1.399.2.063.084.135.16.2.241v-6.641c0-.552.447-1 1-1s1 .448 1 1v6.641c.066-.081.137-.157.2-.241.332-.442.958-.531 1.399-.2.442.331.532.958.2 1.399z"/></svg>