<?xml version="1.0" encoding="UTF-8"?>
<svg xmlns="http://www.w3.org/2000/svg" id="Layer_1" data-name="Layer 1" viewBox="0 0 24 24">
  <path d="M7.001,21.994c-.532-.149-.822-.724-.659-1.251l1.074-3.463c.164-.527,.725-.824,1.251-.659,.527,.164,.822,.724,.659,1.251l-1.074,3.463c-.133,.429-.623,.834-1.251,.659Z"/>
  <path d="M10.942,21.994c-.532-.149-.822-.724-.659-1.251l1.074-3.463c.164-.527,.725-.824,1.251-.659,.527,.164,.822,.724,.659,1.251l-1.074,3.463c-.133,.429-.623,.834-1.251,.659Z"/>
  <path d="M14.882,21.994c-.532-.149-.822-.724-.659-1.251l1.074-3.463c.164-.527,.725-.824,1.251-.659,.527,.164,.822,.724,.659,1.251l-1.074,3.463c-.133,.429-.623,.834-1.251,.659Z"/>
  <path d="M19.302,9.028c-.104-3.913-3.345-7.064-7.315-7.064-4.035,0-7.317,3.256-7.317,7.257,0,.252,.013,.504,.039,.754-2.15,.599-3.708,2.558-3.708,4.863,0,.206,.012,.409,.037,.607,.235,1.937,1.713,3.483,3.629,3.952l.841-2.712c.392-1.264,1.543-2.112,2.864-2.112,.304,0,.606,.046,.897,.138,.407,.126,.768,.334,1.072,.598,.532-.464,1.224-.736,1.971-.736,.304,0,.606,.046,.896,.138,.408,.126,.768,.334,1.072,.598,.531-.464,1.223-.736,1.97-.736,.304,0,.604,.046,.896,.137,.764,.236,1.391,.758,1.764,1.467s.447,1.522,.21,2.288l-.331,1.067c.915-.145,1.746-.532,2.396-1.128,1.155-1.057,1.817-2.558,1.817-4.117,0-2.368-1.513-4.461-3.698-5.259Zm-4.686,.858c.49,.255,.68,.859,.425,1.349-.178,.342-.526,.538-.888,.538-.155,0-.313-.036-.461-.113l-.692-.361v.781c0,.552-.448,1-1,1s-1-.448-1-1v-.781l-.692,.361c-.147,.077-.306,.113-.461,.113-.361,0-.709-.196-.888-.538-.255-.49-.065-1.094,.425-1.349l.452-.235-.452-.235c-.49-.255-.68-.859-.425-1.349,.255-.489,.858-.681,1.349-.425l.692,.361v-.781c0-.552,.448-1,1-1s1,.448,1,1v.781l.692-.361c.49-.257,1.094-.064,1.349,.425,.255,.49,.065,1.094-.425,1.349l-.452,.235,.452,.235Z"/>
</svg>
