<?xml version="1.0" encoding="UTF-8"?>
<svg xmlns="http://www.w3.org/2000/svg" id="Layer_1" data-name="Layer 1" viewBox="0 0 24 24">
  <path d="M15.844,16.622c-.35-.244-.816-.238-1.162,.014-.226,.165-2.205,1.665-2.205,3.446,0,1.542,1.254,2.795,2.796,2.795s2.796-1.254,2.796-2.795c0-1.858-1.997-3.302-2.225-3.46Z"/>
  <path d="M19.302,8.187c-.104-3.913-3.345-7.064-7.314-7.064-4.035,0-7.318,3.256-7.318,7.257,0,.252,.013,.504,.039,.754-2.149,.599-3.708,2.558-3.708,4.863,0,1.992,1.186,3.804,3.02,4.615,.044,.02,.09,.036,.136,.049,.598-1.893,2.225-3.219,2.8-3.639,.521-.379,1.133-.578,1.772-.578,.616,0,1.209,.186,1.714,.538,.236,.164,.908,.661,1.564,1.425,.587-.683,1.189-1.162,1.495-1.385,.521-.379,1.133-.578,1.772-.578,.616,0,1.209,.186,1.714,.538,.418,.291,2.203,1.627,2.848,3.638,.02-.008,.04-.017,.059-.027,1.857-.93,3.105-2.998,3.105-5.146,0-2.368-1.513-4.461-3.698-5.259Zm-7.302,5.827c-1.542,0-2.796-1.254-2.796-2.795,0-1.782,1.979-3.281,2.205-3.446,.346-.251,.812-.257,1.162-.014,.228,.158,2.225,1.602,2.225,3.46,0,1.542-1.254,2.795-2.796,2.795Z"/>
  <path d="M9.299,16.622c-.35-.244-.816-.238-1.162,.014-.226,.165-2.205,1.665-2.205,3.446,0,1.542,1.254,2.795,2.796,2.795s2.796-1.254,2.796-2.795c0-1.858-1.997-3.302-2.225-3.46Z"/>
</svg>
