<?xml version="1.0" encoding="UTF-8"?>
<svg xmlns="http://www.w3.org/2000/svg" id="Layer_1" data-name="Layer 1" viewBox="0 0 24 24">
  <path d="M20.21,8.654c-1.014-.753-2.174-1.08-3.338-.956,.044-.113,.084-.224,.118-.334,.435-1.413,.17-2.877-.749-4.121-1.006-1.363-2.671-2.243-4.241-2.243s-3.234,.881-4.241,2.243c-.919,1.244-1.184,2.708-.749,4.121,.034,.11,.073,.221,.118,.334-1.165-.125-2.324,.203-3.338,.956-1.344,.999-2.213,2.635-2.213,4.167s.869,3.168,2.213,4.167c.874,.649,1.855,.982,2.856,.982,.447,0,.898-.066,1.344-.201,.84-.254,1.64-.803,2.341-1.433-.15,1.702-.472,3.098-1.505,3.731h-1.236c-.81,0-1.467,.656-1.467,1.467s.657,1.467,1.467,1.467h8.819c.81,0,1.467-.656,1.467-1.467s-.657-1.467-1.467-1.467h-1.302c-1.031-.634-1.352-2.057-1.506-3.792,.716,.655,1.541,1.232,2.408,1.494,.447,.135,.898,.201,1.344,.201,1,0,1.982-.333,2.856-.982,1.344-.999,2.213-2.635,2.213-4.167s-.869-3.168-2.213-4.167Z"/>
</svg>
