<?xml version="1.0" encoding="UTF-8"?>
<svg xmlns="http://www.w3.org/2000/svg" id="Layer_1" data-name="Layer 1" viewBox="0 0 24 24">
  <path d="M22.133,2.394c-.167-.057-4.171-1.394-10.134-1.394S2.032,2.337,1.865,2.395c-.492,.167-.773,.684-.647,1.188,.201,.805,.458,1.554,.758,2.252H13.947c.553,0,1,.447,1,1s-.447,1-1,1H3.033c2.273,3.579,5.664,5.401,7.467,6.165,0,.002,0,.004,0,.006v5.994h-2.915c-.829,0-1.5,.672-1.5,1.5s.671,1.5,1.5,1.5h8.829c.828,0,1.5-.672,1.5-1.5s-.672-1.5-1.5-1.5h-2.914v-5.994s0-.004,0-.007c2.42-1.025,7.699-3.949,9.284-10.42,.123-.504-.159-1.019-.65-1.186Z"/>
</svg>
