<?xml version="1.0" encoding="UTF-8"?>
<svg xmlns="http://www.w3.org/2000/svg" id="Layer_1" data-name="Layer 1" viewBox="0 0 24 24">
  <path d="M13.242,5.984c.083-.225,.083-.472,0-.696-.071-.19-.762-1.897-3.218-3.175-.31-.161-.682-.148-.98,.032-.298,.182-.481,.505-.481,.855v1.234c-2.069,.198-3.602,.629-3.681,.651-.493,.141-.88,.523-1.027,1.014-.03,.102-.747,2.538-.747,5.755,0,.775,.041,1.562,.122,2.349-1.419,.579-2.197,1.897-2.232,3.849,.044,2.581,1.585,4.131,4.134,4.148,2.573-.017,4.075-1.528,4.121-4.147,0,0,.197-3.441-3.031-4.081-.076-.711-.115-1.421-.115-2.118,0-1.731,.243-3.212,.425-4.079,.507-.107,1.214-.235,2.029-.325v1.022c0,.907,.944,1.148,1.461,.887,2.472-1.244,3.147-2.985,3.218-3.175Z"/>
  <path d="M18.865,2c-2.609,0-4.073,1.488-4.122,4.182,.038,2.183,1.146,3.629,3.03,4.033,.077,.715,.116,1.43,.116,2.131,0,1.731-.243,3.212-.425,4.079-.507,.107-1.214,.235-2.029,.325v-1.022c0-.35-.183-.673-.481-.855-.299-.18-.67-.193-.98-.032-2.456,1.277-3.147,2.985-3.218,3.175-.083,.225-.083,.472,0,.696,.071,.19,.769,1.884,3.218,3.175,.543,.286,1.461,.006,1.461-.887v-1.234c2.069-.198,3.603-.63,3.681-.652,.493-.141,.88-.522,1.027-1.014,.03-.102,.747-2.538,.747-5.755,0-.781-.042-1.575-.125-2.368,1.407-.59,2.199-1.904,2.233-3.795,0,0,.24-4.182-4.133-4.182Z"/>
</svg>
