<?xml version="1.0" encoding="UTF-8"?>
<svg xmlns="http://www.w3.org/2000/svg" id="Layer_1" data-name="Layer 1" viewBox="0 0 24 24">
  <path d="M21.968,11.634c-.072-.024-1.618-.526-3.942-.946-.497-3.017-2.596-4.669-6.034-4.688-3.408,.02-5.502,1.658-6.011,4.688-2.325,.42-3.873,.922-3.947,.946-.787,.258-1.229,1.109-.959,1.891,.453,1.311,1.736,1.011,1.891,.96,.015-.005,1.239-.399,3.103-.762,.647,2.689,2.769,4.256,5.941,4.276,3.21-.02,5.299-1.555,5.93-4.276,1.861,.362,3.08,.756,3.094,.761,.155,.05,1.432,.339,1.892-.959,.276-.781-.171-1.633-.957-1.892Z"/>
</svg>
