<?xml version="1.0" encoding="UTF-8"?>
<svg xmlns="http://www.w3.org/2000/svg" id="Layer_1" data-name="Layer 1" viewBox="0 0 24 24">
  <path d="M22.999,4.427c-.041-2.153-1.305-3.395-3.481-3.407-2.165,.013-3.43,1.255-3.47,3.443,.027,1.537,.716,2.635,1.91,3.124-.095,1.445-.331,2.588-.509,3.283-.688,.14-1.765,.33-3.03,.451-.858,.082-1.687,.351-2.419,.776-.732-.425-1.562-.694-2.42-.775-1.267-.121-2.343-.311-3.031-.451-.177-.689-.411-1.821-.506-3.263,2.066-.805,1.907-3.181,1.907-3.181-.041-2.153-1.305-3.395-3.481-3.407-2.165,.013-3.43,1.255-3.47,3.443,.028,1.591,.766,2.713,2.039,3.174,.176,3.007,.886,4.939,.918,5.024,.17,.457,.553,.802,1.025,.926,.075,.019,1.859,.482,4.312,.716,.431,.041,.844,.176,1.206,.388v1.732c-1.244,.467-1.947,1.568-1.977,3.191,.038,2.121,1.334,3.408,3.482,3.408,3.699,0,3.469-3.444,3.469-3.444-.03-1.593-.731-2.686-1.974-3.153v-1.734c.362-.212,.775-.347,1.206-.388,2.449-.234,4.236-.696,4.311-.715,.475-.124,.859-.471,1.028-.931,.031-.085,.736-2.025,.914-5,2.204-.753,2.039-3.228,2.039-3.228Z"/>
</svg>
