<?xml version="1.0" encoding="UTF-8"?>
<svg xmlns="http://www.w3.org/2000/svg" id="Layer_1" data-name="Layer 1" viewBox="0 0 24 24">
  <path d="M5.829,6.593c1.217-.281,3.247-.602,6.171-.602,2.288,0,4.028,.197,5.261,.417l.311-1.772c.824,.785,1.306,1.88,1.306,3.06,0,.552,.447,1,1,1s1-.448,1-1c0-2.356-1.304-4.484-3.403-5.554,0,0-2.193-1.143-6.194-1.143-3.857,0-6.459,.972-6.568,1.013-.267,.102-.477,.312-.579,.578-.102,.266-.085,.563,.047,.816l1.649,3.186Z"/>
  <path d="M21.065,13.829c-.532-2.312-1.417-3.907-2.249-4.971-.006-.002-2.184-.867-6.816-.867s-6.816,.867-6.823,.869c-.646,.831-1.33,1.991-1.852,3.567H13.206c.553,0,1,.448,1,1s-.447,1-1,1H2.813c-.592,3.339,.204,6.671,.24,6.819,.09,.366,.377,.65,.743,.736,.177,.042,4.375,1.018,8.203,1.018s8.026-.976,8.203-1.018c.366-.086,.653-.371,.743-.736,.038-.157,.931-3.891,.119-7.417Z"/>
</svg>
