<svg id="Layer_1" viewBox="0 0 24 24" xmlns="http://www.w3.org/2000/svg" data-name="Layer 1"><path d="m20.979 8.796c-.574-2.759-1.438-4.996-2.641-6.842-.153-.234-.397-.395-.674-.44-.126-.021-3.11-.514-5.664-.514s-5.538.492-5.664.514c-.276.046-.521.206-.674.44-1.202 1.846-2.066 4.083-2.641 6.842-.022.104-.027.211-.015.316.526 4.651 1.381 8.918 2.537 12.682.108.351.399.614.76.687.106.021 2.633.52 5.696.52s5.59-.498 5.696-.52c.36-.072.651-.336.76-.687 1.156-3.764 2.011-8.03 2.537-12.682.013-.105.008-.212-.015-.316zm-5.978 2.404c-.665-.069-1.331-.143-2.001-.166v4.966c0 .553-.447 1-1 1s-1-.447-1-1v-4.966c-.625.029-1.249.075-1.867.157-.553.072-1.051-.312-1.124-.858-.073-.548.312-1.051.858-1.124.706-.095 1.419-.145 2.133-.175v-2.034c0-.553.447-1 1-1s1 .447 1 1v2.034c.714.03 1.426.08 2.133.175.547.073.932.576.858 1.124-.067.502-.497.867-.99.867z"/></svg>