<svg id="Layer_1" viewBox="0 0 24 24" xmlns="http://www.w3.org/2000/svg" data-name="Layer 1"><path d="m2.953 18.591c-1.481-1.869-2.12-3.722-1.915-5.628.246-2.296 1.664-4.667 4.46-7.464s5.169-4.215 7.464-4.461c2.198-.239 4.331.647 6.497 2.664-.218 1.153-1.435 5.367-7.758 7.344-5.814 1.817-7.961 5.371-8.748 7.545zm18.094-13.182c-.787 2.174-2.934 5.728-8.748 7.545-6.329 1.978-7.542 6.199-7.758 7.346 1.935 1.803 3.842 2.699 5.795 2.699 2.846-.088 5.051-1.464 8.167-4.499 2.797-2.797 4.214-5.168 4.46-7.464.205-1.906-.434-3.759-1.915-5.628z"/></svg>