<svg id="Layer_1" viewBox="0 0 24 24" xmlns="http://www.w3.org/2000/svg" data-name="Layer 1"><path d="m7 21.746c-2.79-.302-4.23-.768-4.316-.797-.324-.108-.571-.375-.654-.706-.042-.168-1.03-4.167-1.03-8.243s.988-8.074 1.03-8.243c.083-.332.33-.598.654-.706.087-.029 1.526-.495 4.316-.797zm8-19.658c-.904-.054-1.901-.088-3-.088s-2.096.034-3 .088v19.824c.904.054 1.901.088 3 .088s2.096-.034 3-.088zm6.97 1.67c-.083-.332-.33-.598-.654-.706-.087-.029-1.526-.495-4.316-.797v19.491c2.79-.302 4.23-.768 4.316-.797.324-.108.571-.375.654-.706.042-.168 1.03-4.167 1.03-8.243s-.988-8.074-1.03-8.243z"/></svg>