<?xml version="1.0" encoding="UTF-8"?>
<svg xmlns="http://www.w3.org/2000/svg" id="Layer_1" data-name="Layer 1" viewBox="0 0 24 24">
  <path d="M22.608,10.498c-.224-.185-1.007-.43-2.234-.33,2.033-3.515,2.117-7.48,2.12-7.685,.004-.27-.102-.529-.292-.72s-.465-.283-.72-.294c-.204,.002-4.153,.075-7.672,2.121,.1-1.215-.138-2.002-.317-2.228-.232-.292-.606-.43-.978-.358C7.476,2.006,4.647,5.845,2.957,8.139,.104,12.01,.438,16.876,3.797,20.236c4.883,4.883,10.286,2.109,12.041,.81,2.288-1.694,6.117-4.53,7.116-9.581,.071-.361-.062-.732-.347-.966Zm-10.044,6.931c-.999,.967-2.035,1.449-3.061,1.449-1.014,0-2.019-.472-2.968-1.412-1.891-1.919-1.883-4.133,.029-6.045,1.902-1.902,4.12-1.876,6.004-.012,1.865,1.895,1.86,4.085-.005,6.02Z"/>
  <path d="M7.968,12.845c-1.126,1.178-1.13,2.078-.017,3.208,1.122,1.11,2.021,1.099,3.197-.038,1.069-1.11,1.078-2.104,.003-3.195-1.101-1.091-2.026-1.089-3.184,.024Z"/>
</svg>
