<svg id="Layer_1" viewBox="0 0 24 24" xmlns="http://www.w3.org/2000/svg" data-name="Layer 1"><path d="m18.5 14h-1.5v-4h1.5c2.986 0 4.5-1.514 4.5-4.5s-1.514-4.5-4.5-4.5-4.5 1.514-4.5 4.5v1.5h-4v-1.5c0-2.986-1.514-4.5-4.5-4.5s-4.5 1.514-4.5 4.5 1.514 4.5 4.5 4.5h1.5v4h-1.5c-2.986 0-4.5 1.514-4.5 4.5s1.514 4.5 4.5 4.5 4.5-1.514 4.5-4.5v-1.5h4v1.5c0 2.986 1.514 4.5 4.5 4.5s4.5-1.514 4.5-4.5-1.514-4.5-4.5-4.5zm-1.5-8.5c0-1.317.183-1.5 1.5-1.5s1.5.183 1.5 1.5-.183 1.5-1.5 1.5h-1.5zm-11.5 1.5c-1.317 0-1.5-.183-1.5-1.5s.183-1.5 1.5-1.5 1.5.183 1.5 1.5v1.5zm1.5 11.5c0 1.317-.183 1.5-1.5 1.5s-1.5-.183-1.5-1.5.183-1.5 1.5-1.5h1.5zm3-8.5h4v4h-4zm8.5 10c-1.317 0-1.5-.183-1.5-1.5v-1.5h1.5c1.317 0 1.5.183 1.5 1.5s-.183 1.5-1.5 1.5z"/></svg>