<svg id="Layer_1" viewBox="0 0 24 24" xmlns="http://www.w3.org/2000/svg" data-name="Layer 1"><path d="m12 1c-5.121 0-11 1.25-11 11s5.879 11 11 11c3.763 0 7.026-.643 9.102-1.183.351-.091.625-.365.716-.716.785-3.02 1.183-6.082 1.183-9.101-.001-9.75-5.88-11-11.001-11zm4.846 10.465-4.832 4.708c-.863.866-2.025 1.379-3.26 1.433l-1.435.063c-.015 0-1 .045-1.043-1.043l.063-1.439c.053-1.236.563-2.4 1.438-3.276l4.832-4.707c1.113-1.117 3.104-1.128 4.236.011 1.169 1.172 1.169 3.079 0 4.251z"/><path d="m14.016 8.625-4.832 4.708c-.511.511-.814 1.204-.846 1.94l-.016.35.344-.015c.733-.032 1.422-.336 1.941-.857l4.832-4.708c.383-.383.404-1.046-.01-1.417-.611-.549-1.225-.19-1.414 0z"/></svg>