<svg id="Layer_1" viewBox="0 0 24 24" xmlns="http://www.w3.org/2000/svg" data-name="Layer 1"><path d="m12 1c-5.121 0-11 1.25-11 11s5.879 11 11 11c3.763 0 7.026-.643 9.102-1.183.351-.091.625-.365.716-.716.785-3.02 1.183-6.082 1.183-9.101-.001-9.75-5.88-11-11.001-11zm4.621 10.152c-.548.065-1.047-.323-1.113-.872-.071-.581-.162-1.064-.237-1.404-.51-.11-1.328-.258-2.271-.326v6.876c.725-.085 1.245-.227 1.253-.229.527-.148 1.084.16 1.233.692s-.16 1.083-.692 1.233c-.053.015-1.316.365-2.794.365s-2.741-.351-2.795-.366c-.53-.149-.84-.701-.69-1.231.147-.532.698-.841 1.231-.694.008.002.532.143 1.254.228v-6.875c-.941.068-1.76.216-2.271.326-.073.341-.165.825-.236 1.405-.062.507-.529.933-1.113.871-.55-.058-.938-.566-.871-1.114.164-1.342.425-2.238.437-2.275.097-.33.357-.587.688-.68.083-.023 2.055-.57 4.366-.57s4.285.547 4.368.57c.33.093.589.349.687.677.012.037.274.929.438 2.278.067.548-.323 1.047-.871 1.114z"/></svg>