<svg id="Layer_1" viewBox="0 0 24 24" xmlns="http://www.w3.org/2000/svg" data-name="Layer 1"><path d="m14.726 8.276c.348.274.368 1.104.027 1.408l-3.412 3.414c-.515.51-1.204.809-1.94.841l-.348.015.015-.339c.032-.728.332-1.409.848-1.921l3.412-3.412c.378-.375 1.013-.371 1.398-.006zm8.274 2.663c0 4.731-1.159 8.1-1.208 8.241-.114.325-.387.568-.722.645-.133.03-3.126.707-5.959.926-.86.968-2.42 2.197-3.029 2.245-.761.008-2.282-1.254-3.192-2.245-2.834-.219-5.826-.896-5.959-.926-.333-.076-.604-.317-.719-.639-.05-.139-1.212-3.452-1.212-8.247 0-4.635 1.154-8.087 1.203-8.232.109-.322.375-.566.705-.648.173-.043 4.287-1.058 9.092-1.058s8.919 1.015 9.092 1.058c.33.083.596.327.705.648.049.145 1.203 3.597 1.203 8.233zm-6.847-4.064c-1.171-1.163-3.071-1.168-4.238-.009l-3.411 3.411c-.871.864-1.381 2.019-1.435 3.25l-.063 1.429c-.038.569.474 1.081 1.042 1.043l1.439-.062c1.235-.054 2.394-.559 3.265-1.422l3.394-3.396c1.13-1.005 1.125-3.23.008-4.245z"/></svg>