<svg id="Layer_1" viewBox="0 0 24 24" xmlns="http://www.w3.org/2000/svg" data-name="Layer 1"><path d="m12 1c-5.122 0-11 1.25-11 11s5.878 11 11 11c3.763 0 7.026-.643 9.102-1.183.351-.091.625-.365.716-.716.785-3.02 1.183-6.082 1.183-9.101-.001-9.75-5.88-11-11.001-11zm4.699 11.94c-1.729 3.324-4.349 4.003-4.46 4.031-.079.019-.159.029-.239.029s-.161-.01-.239-.029c-.111-.027-2.731-.707-4.46-4.031-.255-.49-.064-1.094.426-1.349.491-.256 1.094-.064 1.349.426.605 1.163 1.324 1.894 1.925 2.344v-6.361c0-.552.448-1 1-1s1 .448 1 1v6.362c.6-.45 1.32-1.18 1.926-2.344.254-.49.857-.682 1.349-.426.489.255.68.859.425 1.349z"/></svg>