<?xml version="1.0" encoding="UTF-8"?>
<svg xmlns="http://www.w3.org/2000/svg" id="Layer_1" data-name="Layer 1" viewBox="0 0 24 24">
  <path d="M21.795,2.883c-.11-.32-.375-.562-.703-.644-.172-.043-4.259-1.047-9.092-1.047C7.254,1.192,3.088,2.196,2.913,2.238c-.332,.082-.6,.327-.71,.651-.049,.145-1.203,3.605-1.203,8.151s1.154,8.006,1.203,8.151c.11,.326,.38,.572,.715,.652,.109,.026,2.649,.628,5.954,.907,1.32,1.184,2.582,1.897,2.639,1.929,.151,.085,.32,.128,.489,.128,.162,0,.324-.04,.473-.119,.054-.029,1.274-.689,2.652-1.933,3.372-.277,5.858-.888,5.966-.915,.33-.082,.596-.326,.705-.647,.049-.144,1.204-3.579,1.204-8.153,0-4.614-1.156-8.015-1.205-8.157ZM7.437,5.846h3.096c.553,0,1,.448,1,1s-.447,1-1,1h-3.096c-.553,0-1-.448-1-1s.447-1,1-1Zm9.127,10.042H7.437c-.553,0-1-.448-1-1s.447-1,1-1h9.127c.553,0,1,.448,1,1s-.447,1-1,1Zm1-4.021H6.437c-.553,0-1-.448-1-1s.447-1,1-1h11.127c.553,0,1,.448,1,1s-.447,1-1,1Z"/>
</svg>
