<?xml version="1.0" encoding="UTF-8"?>
<svg xmlns="http://www.w3.org/2000/svg" id="Layer_1" data-name="Layer 1" viewBox="0 0 24 24">
  <path d="M3.015,7.795c-.258-.26-.638-.358-.992-.255-.353,.104-.62,.393-.696,.752-.197,.931-.307,1.959-.326,3.093,.123,6.832,3.698,10.464,10.347,10.503h3.234c.403,0,.768-.243,.923-.615s.071-.802-.213-1.089L3.015,7.795Z"/>
  <path d="M22.565,20.444l-1.146-1.157v-7.783c-.115-6.73-3.787-10.461-10.354-10.504-2.5,.016-4.574,.548-6.197,1.578l-1.086-1.097c-.583-.588-1.532-.593-2.121-.01-.589,.583-.593,1.533-.01,2.122L20.435,22.556c.293,.296,1.174,.857,2.121,.01,.618-.552,.593-1.533,.01-2.122Z"/>
</svg>
