<svg id="Layer_1" viewBox="0 0 24 24" xmlns="http://www.w3.org/2000/svg" data-name="Layer 1"><path d="m12 1c-5.122 0-11 1.25-11 11s5.878 11 11 11c3.763 0 7.026-.643 9.102-1.183.351-.091.625-.365.716-.716.785-3.02 1.183-6.082 1.183-9.101-.001-9.75-5.88-11-11.001-11zm-5.036 5.508c.823 0 1.49.667 1.49 1.49s-.667 1.49-1.49 1.49-1.49-.667-1.49-1.49.667-1.49 1.49-1.49zm11.845 4.093c-.795.86-2.002 2.175-2.401 2.581-.655.669-1.533 1.033-2.463.997-.948-.027-1.856-.459-2.492-1.186-.29-.332-.713-.529-1.132-.529-.253.019-.579.065-.846.375-.594.69-2.109 2.917-2.644 3.716-.192.289-.774.664-1.387.276-.467-.295-.583-.927-.276-1.387.081-.122 1.997-2.988 2.791-3.911.591-.686 1.425-1.066 2.349-1.07h.013c1.002 0 1.963.441 2.637 1.212.271.309.651.492 1.044.503.376.02.717-.13.979-.397.445-.455 1.525-1.632 2.362-2.538.374-.406 1.005-.43 1.411-.055.405.374.431 1.007.056 1.412z"/></svg>