<?xml version="1.0" encoding="UTF-8"?>
<svg xmlns="http://www.w3.org/2000/svg" id="Layer_1" data-name="Layer 1" viewBox="0 0 24 24">
  <path d="M12.006,1s-.007,0-.013,0C4.946,1.044,1.154,4.842,1.027,12.018c.13,7.144,3.923,10.941,10.973,10.982h9.973c.552,0,1-.448,1-1V11.983c-.122-7.037-4.016-10.938-10.967-10.983Zm-.006,18.03c-.828,0-1.5-.672-1.5-1.5s.672-1.5,1.5-1.5,1.5,.672,1.5,1.5-.672,1.5-1.5,1.5Zm1-6.19v.541c0,.552-.448,1-1,1s-1-.448-1-1v-1.451c0-.55,.444-.997,.994-1,1.398-.008,1.928-.548,1.954-1.993-.023-1.352-.608-1.947-1.955-1.956-1.369,.008-1.917,.567-1.942,1.992-.01,.546-.456,.982-1,.982h-.018c-.552-.01-.992-.465-.982-1.018,.044-2.5,1.481-3.941,3.942-3.957,2.438,.016,3.912,1.495,3.955,3.957-.04,2.208-1.077,3.556-2.948,3.902Z"/>
</svg>
