<?xml version="1.0" encoding="UTF-8"?>
<svg xmlns="http://www.w3.org/2000/svg" id="Layer_1" data-name="Layer 1" viewBox="0 0 24 24">
  <path d="M12.006,1s-.008,0-.013,0C4.946,1.044,1.154,4.842,1.027,12.018c.13,7.144,3.923,10.941,10.973,10.982h9.973c.552,0,1-.448,1-1V11.983c-.122-7.037-4.016-10.938-10.967-10.983Zm-.636,12.492c-.171,1.572-1.365,2.801-2.902,2.989-.041,.005-.959,.089-1.114-.872-.088-.545,.323-1.047,.872-1.114,.61-.075,1.086-.577,1.156-1.221,.002-.019,.004-.038,.006-.057-.203,.015-.427,.024-.677,.024-1.449,0-2.083-.31-2.288-.443-.096-.062-.18-.14-.25-.23-.273-.357-.406-1.057-.406-2.139,0-1.279,.181-1.863,.332-2.128,.121-.211,.314-.371,.544-.45,2.113-.724,3.729-.087,3.905-.012,.299,.126,.519,.391,.587,.708,.013,.06,.319,1.488,.319,3.412,0,.503-.028,1.019-.084,1.532Zm6.779,0c-.171,1.572-1.365,2.801-2.902,2.989-.041,.005-.959,.089-1.114-.872-.088-.545,.323-1.047,.872-1.114,.61-.075,1.086-.577,1.156-1.221,.002-.019,.004-.038,.006-.057-.203,.015-.427,.024-.677,.024-1.449,0-2.083-.31-2.288-.443-.096-.062-.18-.14-.25-.23-.273-.357-.406-1.057-.406-2.139,0-1.279,.181-1.863,.332-2.128,.121-.211,.314-.371,.544-.45,2.113-.724,3.729-.087,3.905-.012,.299,.126,.519,.391,.587,.708,.013,.06,.319,1.488,.319,3.412,0,.503-.028,1.019-.084,1.532Z"/>
</svg>
