<svg id="Layer_1" viewBox="0 0 24 24" xmlns="http://www.w3.org/2000/svg" data-name="Layer 1"><path d="m9.351 1c-3.585 0-8.351.866-8.351 8.354 0 2.243.295 4.517.878 6.759.091.351.365.625.716.716 1.541.401 3.964.878 6.757.878 3.584 0 8.35-.866 8.35-8.354s-4.766-8.353-8.35-8.353zm-.003 13.866c-.823 0-1.49-.667-1.49-1.49s.667-1.49 1.49-1.49 1.49.667 1.49 1.49-.667 1.49-1.49 1.49zm.978-4.918c-.102.445-.499.776-.975.776-.553 0-1-.448-1-1v-.662c0-.55.444-.997.994-1 .84-.005 1.101-.269 1.116-1.129-.014-.792-.307-1.087-1.117-1.092-.817.005-1.089.28-1.104 1.129-.01.546-.456.982-1 .982h-.019c-.552-.01-.991-.466-.981-1.018.035-1.924 1.195-3.08 3.104-3.093 1.924.013 3.084 1.169 3.117 3.094-.029 1.63-.795 2.681-2.136 3.014z"/><path d="m21.427 8.843c-.37-.455-1.147-.923-1.81-1.162.056.563.084 1.124.084 1.673 0 3.021-.735 6.414-3.504 8.466.08.088.235.239.465.384.208.131.417.219.58.275.338-.203.876-.562 1.272-.987.449-.484.602-1.059.604-1.065.137-.531.676-.858 1.211-.725.532.133.859.665.732 1.199-.026.108-.277 1.085-1.081 1.951-.862.93-2.096 1.563-2.148 1.59-.141.072-.297.109-.454.109-.055 0-.111-.004-.166-.014-.083-.014-.838-.151-1.615-.641-.538-.339-.969-.827-1.169-1.079-1.346.562-3.014.889-5.076.889-.588 0-1.155-.024-1.708-.059.308.693.719 1.369 1.195 1.779 1.308 1.127 3.199 1.573 5.812 1.573 2.796 0 5.218-.478 6.757-.878.351-.091.625-.365.716-.716.583-2.242.878-4.516.878-6.759 0-2.538-.482-4.463-1.573-5.804z"/></svg>