<svg id="Layer_1" viewBox="0 0 24 24" xmlns="http://www.w3.org/2000/svg" data-name="Layer 1"><path d="m21.796 2.707c-.109-.321-.374-.565-.704-.648-.172-.043-4.278-1.058-9.093-1.058s-8.919 1.014-9.092 1.057c-.33.083-.595.327-.704.648-.049.145-1.204 3.597-1.204 8.233 0 4.796 1.162 8.108 1.211 8.247.115.322.386.563.72.639.132.03 3.125.707 5.958.926.912.991 2.431 2.253 3.194 2.245.61-.048 2.169-1.277 3.029-2.245 2.833-.219 5.826-.896 5.958-.926.333-.076.605-.317.72-.639.049-.139 1.211-3.451 1.211-8.247 0-4.636-1.154-8.088-1.204-8.233zm-4.281 5.832c-1.312 2.053-3.181 4.627-6.001 6.319-.324.194-.73.19-1.05-.013-1.519-.962-2.661-1.994-3.594-3.248-.33-.443-.238-1.069.205-1.399.443-.331 1.069-.239 1.399.205.674.905 1.489 1.679 2.536 2.405 2.16-1.459 3.644-3.507 4.819-5.346.297-.465.916-.601 1.381-.304.465.298.602.916.304 1.381z"/></svg>