<svg id="Layer_1" viewBox="0 0 24 24" xmlns="http://www.w3.org/2000/svg" data-name="Layer 1"><path d="m12 1c-5.121 0-11 1.25-11 11s5.879 11 11 11c3.763 0 7.026-.643 9.102-1.183.351-.091.625-.365.716-.716.785-3.02 1.183-6.082 1.183-9.101-.001-9.75-5.88-11-11.001-11zm3.685 13.96c-.134.426-.528.699-.953.699-.1 0-.201-.015-.301-.047-.527-.167-.819-.728-.652-1.255.392-1.243.399-2.27.292-3.015l-4.364 4.364c-.195.195-.451.293-.707.293s-.512-.098-.707-.293c-.391-.391-.391-1.023 0-1.414l4.368-4.368c-.742-.106-1.768-.098-3.019.297-.523.168-1.089-.126-1.254-.652-.167-.527.125-1.088.652-1.255 3.574-1.129 5.907.246 6.004.304.139.084.255.2.338.339.06.098 1.432 2.431.303 6.003z"/></svg>