<svg id="Layer_1" viewBox="0 0 24 24" xmlns="http://www.w3.org/2000/svg" data-name="Layer 1"><path d="m21.937 2.716c-.104-.276-.324-.492-.602-.591-.129-.046-3.232-1.125-9.335-1.125s-9.206 1.079-9.335 1.125c-.278.099-.498.315-.602.591-.043.116-1.063 2.887-1.063 7.284s1.02 7.168 1.063 7.284c.104.276.324.492.602.591.129.046 3.232 1.125 9.335 1.125s9.206-1.079 9.335-1.125c.278-.099.498-.315.602-.591.043-.116 1.063-2.887 1.063-7.284s-1.02-7.168-1.063-7.284zm-15.437 12.784c-.828 0-1.5-.672-1.5-1.5s.672-1.5 1.5-1.5 1.5.672 1.5 1.5-.672 1.5-1.5 1.5zm11.671-.5h-7.171c-.552 0-1-.448-1-1s.448-1 1-1h7.171c.552 0 1 .448 1 1s-.448 1-1 1zm1-4h-14.342c-.552 0-1-.448-1-1 0-1.288.103-2.549.306-3.751.071-.422.403-.752.825-.82 1.747-.285 4.893-.429 7.04-.429s5.292.144 7.039.427c.422.069.754.398.826.82.204 1.2.307 2.462.307 3.752 0 .552-.448 1-1 1zm-1.171-3.704c.072.556.122 1.125.148 1.704h-12.296c.026-.578.076-1.147.148-1.704 1.142-.152 3.938-.296 6-.296s4.857.144 6 .296zm2.5 12.769c-.105 1.046-.364 1.688-.401 1.772-.127.295-.389.51-.703.579-.108.024-2.256.583-7.397.583s-7.288-.56-7.397-.583c-.313-.069-.575-.284-.703-.579-.037-.084-.296-.726-.401-1.772 1.469.371 3.985.935 8.5.935s7.031-.564 8.5-.935z"/></svg>