<svg id="Layer_1" viewBox="0 0 24 24" xmlns="http://www.w3.org/2000/svg" data-name="Layer 1"><path d="m11.517 13.173c.169-.836.685-1.561 1.416-1.992.198-.118 2.075-1.181 5.029-1.181.324 0 .628.017.924.039-.279-3.574-.986-5.412-1.024-5.506-.108-.274-.332-.487-.611-.581-.056-.019-1.261-.418-3.311-.693-.545-1.519-1.842-2.259-3.94-2.259s-3.396.741-3.94 2.259c-2.051.275-3.256.675-3.311.693-.279.094-.503.307-.612.581-.046.117-1.136 2.939-1.136 8.467s1.09 8.349 1.136 8.467c.104.265.316.472.583.57.106.04 2.655.963 7.281.963 1.107 0 2.091-.054 2.955-.135-.285-.216-.557-.442-.789-.692-1.754-1.885-1.16-6.448-.649-9.001zm-3.517 4.827h-3c-.553 0-1-.447-1-1s.447-1 1-1h3c.553 0 1 .447 1 1s-.447 1-1 1zm0-4h-3c-.553 0-1-.447-1-1s.447-1 1-1h3c.553 0 1 .447 1 1s-.447 1-1 1zm-3-4c-.552 0-1-.448-1-1s.448-1 1-1h6c.552 0 1 .448 1 1s-.448 1-1 1zm17.369 10.812c-1.143 1.228-3.781 2.055-4.078 2.144-.189.057-.395.057-.584 0-.297-.09-2.935-.916-4.077-2.144-1.318-1.417-.165-7.188-.153-7.247.056-.277.227-.518.471-.661.062-.037 1.556-.904 4.014-.904 2.36-.043 4.08.875 4.088.904.244.144.415.384.471.661.012.059 1.165 5.829-.152 7.247z"/></svg>