<svg id="Layer_1" viewBox="0 0 24 24" xmlns="http://www.w3.org/2000/svg" data-name="Layer 1"><path d="m19.863 4.533c-.108-.274-.332-.487-.611-.581-.056-.019-1.261-.418-3.312-.693-.545-1.519-1.842-2.259-3.94-2.259s-3.396.741-3.94 2.259c-2.051.275-3.256.675-3.312.693-.279.094-.503.307-.612.581-.046.117-1.136 2.939-1.136 8.467s1.09 8.35 1.136 8.467c.104.265.316.472.583.57.106.04 2.655.963 7.281.963s7.175-.923 7.28-.963c.267-.099.479-.306.583-.57.047-.117 1.137-2.939 1.137-8.467s-1.09-8.35-1.137-8.467zm-8.096 10.74c-.79.942-1.688 1.793-2.667 2.526-.355.267-.844.267-1.2 0-.559-.419-1.097-.881-1.6-1.373-.395-.387-.401-1.02-.015-1.414.387-.396 1.02-.401 1.414-.016.257.252.525.495.801.727.625-.525 1.207-1.106 1.734-1.735.354-.423.985-.479 1.409-.124.423.355.479.985.124 1.409zm0-5c-.79.942-1.688 1.793-2.667 2.526-.355.267-.844.267-1.2 0-.559-.419-1.097-.881-1.6-1.373-.395-.387-.401-1.02-.015-1.414.387-.395 1.02-.4 1.414-.016.257.252.525.495.801.727.625-.525 1.207-1.106 1.734-1.735.354-.423.985-.479 1.409-.124.423.355.479.985.124 1.409zm5.233 6.727h-3c-.553 0-1-.447-1-1s.447-1 1-1h3c.553 0 1 .447 1 1s-.447 1-1 1zm0-5h-3c-.553 0-1-.447-1-1s.447-1 1-1h3c.553 0 1 .447 1 1s-.447 1-1 1z"/></svg>