<svg id="Layer_1" viewBox="0 0 24 24" xmlns="http://www.w3.org/2000/svg" data-name="Layer 1"><path d="m22.561 6.44c.586.586.586 1.535 0 2.121-.293.293-.677.439-1.061.439s-.768-.146-1.061-.439l-.939-.939-.939.939c-.293.293-.677.439-1.061.439s-.768-.146-1.061-.439c-.586-.586-.586-1.535 0-2.121l.939-.939-.939-.939c-.586-.586-.586-1.535 0-2.121s1.535-.586 2.121 0l.939.939.939-.939c.586-.586 1.535-.586 2.121 0s.586 1.535 0 2.121l-.939.939.939.939zm-19.085 2.26c.267.2.583.3.899.3s.633-.1.9-.3c1.242-.932 2.377-2.008 3.375-3.199.532-.635.448-1.581-.187-2.113s-1.581-.448-2.113.187c-.602.72-1.264 1.39-1.975 2.002-.284-.244-.559-.497-.825-.759-.592-.579-1.541-.57-2.121.021-.58.592-.571 1.541.021 2.122.634.622 1.316 1.207 2.026 1.739zm17.78 4.004c-.048-.086-1.825-.776-3.864-.881-.456-.353-1.016-.755-1.634-1.125-.76-.456-1.601-.86-2.258-1.153v-7.045c0-.828-.671-1.5-1.5-1.5s-1.5.672-1.5 1.5v7.045c-.657.293-1.498.697-2.258 1.153-.618.37-1.178.772-1.634 1.125-2.052.108-3.797.79-3.864.881-.334.195-.58.512-.687.884-.043.151-1.058 3.75-1.058 7.912 0 .828.671 1.5 1.5 1.5s1.5-.672 1.5-1.5c0-2.683.483-5.159.758-6.349.319-.082.801-.183 1.464-.28.502.409 1.212.947 2.019 1.43 1.499.899 3.323 1.603 3.4 1.632.116.044.237.066.358.066s.243-.022.358-.066c.077-.029 1.9-.732 3.4-1.632.807-.484 1.518-1.022 2.019-1.43.668.098 1.15.198 1.464.278.274 1.188.758 3.666.758 6.35 0 .828.671 1.5 1.5 1.5s1.5-.672 1.5-1.5c0-4.162-1.015-7.761-1.058-7.912-.106-.372-.353-.688-.687-.884z"/></svg>