<svg id="Layer_1" viewBox="0 0 24 24" xmlns="http://www.w3.org/2000/svg" data-name="Layer 1"><path d="m6 19.5c0 .828-.672 1.5-1.5 1.5s-1.5-.672-1.5-1.5.672-1.5 1.5-1.5 1.5.672 1.5 1.5zm14-8c0 .828.672 1.5 1.5 1.5s1.5-.672 1.5-1.5-.672-1.5-1.5-1.5-1.5.672-1.5 1.5zm-9.5 8.5c-.828 0-1.5.672-1.5 1.5s.672 1.5 1.5 1.5 1.5-.672 1.5-1.5-.672-1.5-1.5-1.5zm-8-16c.828 0 1.5-.672 1.5-1.5s-.672-1.5-1.5-1.5-1.5.672-1.5 1.5.672 1.5 1.5 1.5zm4 4c.828 0 1.5-.672 1.5-1.5s-.672-1.5-1.5-1.5-1.5.672-1.5 1.5.672 1.5 1.5 1.5zm13.495 9c-.488.003-.922.088-1.302.24-1.237-.778-2.903-2.11-3.821-3.326.071-.287.122-.591.128-.932-.022-1.247-.573-2.164-1.495-2.632.028-.853.29-2.531.578-3.512.731-.22 1.266-.675 1.582-1.339h1.663c.455.955 1.37 1.493 2.677 1.5 1.869-.011 2.961-1.098 2.995-3.018-.032-1.828-1.18-2.971-3.007-2.982-1.275.008-2.192.555-2.655 1.5h-1.69c-.471-.937-1.396-1.492-2.655-1.5-1.843.011-2.962 1.126-2.995 2.982v.036c.02 1.095.407 1.911 1.089 2.413-.324 1.278-.559 2.92-.583 3.9-.518.253-.913.648-1.167 1.169h-2.688c-.471-.937-1.396-1.492-2.655-1.5-1.843.011-2.962 1.126-2.995 2.982v.036c.034 1.883 1.126 2.97 3.007 2.981 1.293-.008 2.203-.542 2.66-1.5h2.662c.455.954 1.37 1.492 2.677 1.5.229-.001.447-.02.652-.053 1.214 1.514 3.026 2.935 4.366 3.785-.008.096-.027.188-.024.287.035 1.884 1.127 2.97 3.007 2.981 1.869-.012 2.961-1.099 2.995-3.018-.032-1.828-1.18-2.972-3.007-2.982z"/></svg>