<svg id="Layer_1" viewBox="0 0 24 24" xmlns="http://www.w3.org/2000/svg" data-name="Layer 1"><path d="m19.28 14.381c-1.478-.163-3.941-.357-7.28-.357s-5.801.194-7.28.357c-2.109.233-3.708 1.989-3.719 4.085-.048 2.136 1.569 3.966 3.719 4.2 1.478.163 3.941.357 7.28.357s5.801-.194 7.28-.357c2.15-.234 3.767-2.064 3.719-4.2-.012-2.096-1.61-3.852-3.719-4.085zm-13.779 5.642c-.828 0-1.5-.672-1.5-1.5s.672-1.5 1.5-1.5 1.5.672 1.5 1.5-.672 1.5-1.5 1.5zm6.499 0c-.828 0-1.5-.672-1.5-1.5s.672-1.5 1.5-1.5 1.5.672 1.5 1.5-.672 1.5-1.5 1.5zm6.499 0c-.828 0-1.5-.672-1.5-1.5s.672-1.5 1.5-1.5 1.5.672 1.5 1.5-.672 1.5-1.5 1.5z"/></svg>