<svg id="Layer_1" viewBox="0 0 24 24" xmlns="http://www.w3.org/2000/svg" data-name="Layer 1"><path d="m19.28 14.357c-1.479-.163-3.941-.357-7.28-.357s-5.802.194-7.28.357c-2.109.233-3.708 1.989-3.72 4.085-.048 2.136 1.569 3.966 3.72 4.201 1.479.163 3.941.357 7.28.357s5.802-.194 7.28-.357c2.151-.234 3.767-2.064 3.72-4.201-.012-2.096-1.61-3.853-3.72-4.085zm-13.78 5.643c-.828 0-1.5-.672-1.5-1.5s.672-1.5 1.5-1.5 1.5.672 1.5 1.5-.672 1.5-1.5 1.5zm6.5 0c-.828 0-1.5-.672-1.5-1.5s.672-1.5 1.5-1.5 1.5.672 1.5 1.5-.672 1.5-1.5 1.5zm6.5 0c-.828 0-1.5-.672-1.5-1.5s.672-1.5 1.5-1.5 1.5.672 1.5 1.5-.672 1.5-1.5 1.5zm-7.279-15.732c-.045-.444-.199-2.065-.297-3.245.345-.012.694-.024 1.076-.024.391 0 .75.011 1.103.024-.123 1.299-.238 2.412-.324 3.243-.042.409-.373.73-.804.733-.382-.002-.713-.324-.755-.732zm-5.783 7.417c-.028-.075-.688-1.869-.688-4.685s.66-4.609.688-4.685c.104-.276.324-.492.602-.591.057-.02 1.039-.351 2.889-.558.104 1.255.268 2.962.302 3.305.147 1.433 1.322 2.521 2.806 2.529 1.411-.008 2.586-1.096 2.733-2.53.11-1.079.235-2.3.328-3.301 1.833.207 2.805.535 2.862.555.277.099.498.315.602.591.028.075.688 1.869.688 4.685s-.66 4.609-.688 4.685c-.104.276-.324.492-.602.591-.083.029-2.082.724-5.96.724s-5.877-.695-5.96-.724c-.277-.099-.498-.315-.602-.591z"/></svg>