<svg id="Layer_1" viewBox="0 0 24 24" xmlns="http://www.w3.org/2000/svg" data-name="Layer 1"><path d="m21.028 8.353c-.099-.042-.14-.111-.122-.208.062-.345.094-.729.094-1.142 0-1.094-.408-2.106-1.152-2.85-.743-.744-1.756-1.153-2.85-1.153-.416 0-.801.032-1.142.094-.096.017-.167-.023-.208-.123-.823-1.972-2.949-1.972-3.647-1.972s-2.824 0-3.646 1.97c-.042.1-.112.142-.207.125-.343-.063-.728-.095-1.144-.095-1.094 0-2.106.409-2.85 1.153s-1.153 1.756-1.152 2.85c0 .413.031.797.095 1.143.017.096-.024.166-.123.207-1.972.825-1.972 2.949-1.972 3.647s0 2.823 1.972 3.647c.099.042.14.111.122.208-.062.345-.094.729-.094 1.142 0 1.094.408 2.106 1.152 2.85.743.744 1.756 1.153 2.85 1.153.416 0 .801-.032 1.142-.094.096-.015.167.023.208.123.823 1.972 2.949 1.972 3.647 1.972s2.824 0 3.646-1.97c.043-.1.116-.141.207-.125.343.063.728.095 1.144.095 1.094 0 2.106-.409 2.85-1.153s1.153-1.756 1.152-2.85c0-.413-.031-.797-.095-1.143-.017-.096.024-.166.123-.207 1.972-.825 1.972-2.949 1.972-3.647s0-2.823-1.972-3.647zm-14.528 6.647c-.828 0-1.5-.672-1.5-1.5s.672-1.5 1.5-1.5 1.5.672 1.5 1.5-.672 1.5-1.5 1.5zm.5-7c0-.828.672-1.5 1.5-1.5s1.5.672 1.5 1.5-.672 1.5-1.5 1.5-1.5-.672-1.5-1.5zm3.5 11c-.828 0-1.5-.672-1.5-1.5s.672-1.5 1.5-1.5 1.5.672 1.5 1.5-.672 1.5-1.5 1.5zm2-6c-.828 0-1.5-.672-1.5-1.5s.672-1.5 1.5-1.5 1.5.672 1.5 1.5-.672 1.5-1.5 1.5zm3.5 4c-.828 0-1.5-.672-1.5-1.5s.672-1.5 1.5-1.5 1.5.672 1.5 1.5-.672 1.5-1.5 1.5z"/></svg>