<?xml version="1.0" encoding="UTF-8"?>
<svg xmlns="http://www.w3.org/2000/svg" id="Layer_1" data-name="Layer 1" viewBox="0 0 24 24">
  <circle cx="20.27" cy="7.73" r="1.5"/>
  <circle cx="17.269" cy="3.5" r="1.5"/>
  <path d="M21.98,10.979c-5.608-.249-8.004-2.928-8.009-8.961,0-.536-.423-.976-.959-.998-.331-.014-.668-.021-1.013-.021C6.908,1,1.063,2.25,1.063,12c0,7.505,3.475,11,10.937,11,5.092,0,10.937-1.25,10.937-11.021,0-.535-.421-.976-.956-.999Zm-14.61,6.764c-.829,0-1.5-.672-1.5-1.5s.672-1.5,1.5-1.5,1.5,.672,1.5,1.5-.672,1.5-1.5,1.5Zm.702-5.508c-.828,0-1.5-.672-1.5-1.5s.672-1.5,1.5-1.5,1.5,.672,1.5,1.5-.672,1.5-1.5,1.5Zm4.62,4.65c-.828,0-1.5-.672-1.5-1.5s.672-1.5,1.5-1.5,1.5,.672,1.5,1.5-.672,1.5-1.5,1.5Z"/>
</svg>
