<?xml version="1.0" encoding="UTF-8"?>
<svg xmlns="http://www.w3.org/2000/svg" id="Layer_1" data-name="Layer 1" viewBox="0 0 24 24">
  <path d="M16.152,17.739c.32-.103,.565-.363,.651-.688,.034-.127,.821-3.162,.821-7.206,0-.678-.023-1.365-.067-2.055-3.053-.374-5.141-1.122-5.23-1.153-.293-.107-.519-.346-.609-.644-.024-.081-.583-1.969-.92-4.965-.341-.018-.677-.027-1.006-.027-3.371,0-6.24,.913-6.361,.952-.32,.103-.566,.362-.651,.688-.034,.127-.82,3.162-.82,7.206,0,4.079,.787,7.083,.821,7.208,.086,.324,.331,.582,.65,.685,.12,.039,2.982,.952,6.362,.952s6.24-.913,6.36-.952Z"/>
  <path d="M17.116,5.738L12.838,1.465c.213,1.621,.482,2.837,.64,3.47,.661,.201,1.964,.555,3.639,.803Z"/>
  <path d="M21.924,7.284c-.065-.826-.784-1.442-1.613-1.377-.826,.065-1.442,.787-1.377,1.613,.071,.901,.107,1.798,.107,2.667,0,3.163-.411,7.131-.63,9.028-1.828,.277-5.549,.785-8.211,.785-.823,0-1.68-.05-2.547-.148-.815-.094-1.566,.499-1.659,1.322-.093,.823,.499,1.566,1.322,1.659,.979,.11,1.949,.167,2.884,.167,3.894,0,9.576-.961,9.815-1.002,.648-.11,1.149-.63,1.235-1.282,.032-.245,.791-6.034,.791-10.529,0-.947-.039-1.924-.117-2.903Z"/>
</svg>
