<svg id="Layer_1" viewBox="0 0 24 24" xmlns="http://www.w3.org/2000/svg" data-name="Layer 1"><path d="m23.013 18c.002.828-.668 1.502-1.496 1.504l-2.018.005.005 2c.002.828-.668 1.502-1.496 1.504h-.004c-.827 0-1.498-.669-1.5-1.496l-.005-2-1.982.005h-.004c-.827 0-1.498-.669-1.5-1.496-.002-.828.668-1.502 1.496-1.504l1.983-.005-.005-2c-.002-.828.668-1.502 1.496-1.504h.004c.827 0 1.498.669 1.5 1.496l.005 2 2.017-.005h.004c.827 0 1.498.669 1.5 1.496zm-8.509 3.521c-.669-.002-1.288-.202-1.82-.53-.23.002-.448.01-.684.01-1.327 0-2.562-.038-3.691-.1.526 1.402 1.74 2.1 3.691 2.1 1.105 0 1.965-.232 2.606-.681-.061-.257-.102-.522-.103-.797zm-3.338-2.533c-4.672-.059-8.044-.586-9.317-.822-.449-.084-.785-.462-.815-.918-.078-1.193-.061-3.117.466-5.498.677-3.057 1.854-5.058 2.329-5.777.153-.232.397-.39.672-.436.643-.106 1.49-.219 2.512-.315-.11-1.875.946-3.631 2.294-3.889.684-.141 1.617-.333 2.693-.333s2.01.192 2.692.333c1.373.26 2.439 2.081 2.29 3.889 1.023.096 1.873.21 2.517.316.275.045.52.204.673.436.475.72 1.651 2.723 2.328 5.776.252 1.141.386 2.173.45 3.073-.442-.201-.929-.319-1.446-.319h-.018s0 0 0 0c-.005-1.925-1.574-3.491-3.509-3.491-.935.002-1.812.369-2.473 1.032-.659.663-1.021 1.542-1.019 2.477v.002c-.928.007-1.799.371-2.455 1.03-.659.662-1.021 1.542-1.019 2.477 0 .335.064.652.153.958zm-1.166-14.023c0 .396.101.678.181.823.572.126.842.211 1.819.212.978-.001 1.247-.086 1.82-.212.08-.142.179-.412.18-.753 0-.391-.098-.671-.178-.817-.534-.107-1.164-.217-1.822-.217s-1.287.11-1.823.217c-.079.144-.176.411-.177.748z"/></svg>