<svg id="Layer_1" viewBox="0 0 24 24" xmlns="http://www.w3.org/2000/svg" data-name="Layer 1"><path d="m15.691 20.9c-.526 1.402-1.74 2.1-3.691 2.1s-3.164-.697-3.691-2.1c1.128.061 2.363.1 3.691.1s2.562-.038 3.691-.1zm7.275-3.651c-.03.455-.366.833-.815.917-1.348.251-5.034.834-10.15.834s-8.803-.583-10.151-.834c-.449-.084-.785-.462-.815-.918-.078-1.193-.061-3.117.466-5.498.677-3.057 1.854-5.058 2.329-5.777.153-.232.397-.39.672-.436.643-.106 1.49-.219 2.512-.315-.11-1.874.944-3.631 2.294-3.889.683-.141 1.617-.333 2.693-.333s2.01.192 2.692.333c1.373.26 2.439 2.081 2.29 3.889 1.023.096 1.873.21 2.517.316.275.045.52.204.673.436.475.72 1.651 2.723 2.328 5.776.527 2.385.544 4.307.466 5.499zm-12.966-12.284c0 .396.1.679.18.823.559.124.839.21 1.82.212.977-.001 1.247-.086 1.82-.212.08-.142.179-.412.18-.753 0-.391-.098-.671-.178-.817-.534-.107-1.164-.217-1.822-.217s-1.288.11-1.823.217c-.08.143-.176.411-.177.748z"/></svg>