<svg id="Layer_1" viewBox="0 0 24 24" xmlns="http://www.w3.org/2000/svg" data-name="Layer 1"><path d="m22.989 19.318c.101.822-.485 1.57-1.308 1.671-.807.102-1.574-.481-1.671-1.308-.124-1.016-.365-1.682-2.511-1.682h-.361c.575.874.861 2.027.861 3.5 0 .828-.672 1.5-1.5 1.5s-1.5-.672-1.5-1.5c0-.553-.053-.998-.152-1.349-.806.53-1.751.849-2.848.849s-2.042-.319-2.848-.849c-.099.351-.152.796-.152 1.349 0 .828-.672 1.5-1.5 1.5s-1.5-.672-1.5-1.5c0-1.473.286-2.626.861-3.5h-.361c-2.146 0-2.387.666-2.511 1.682-.097.826-.864 1.41-1.671 1.308-.822-.101-1.408-.849-1.308-1.671.328-2.682 1.984-4.11 4.893-4.284-3.269-.201-4.904-2.054-4.904-5.535 0-1.209.518-2.797.577-2.975.005-.015.013-.027.019-.042-.925-1.216-.784-2.445.429-3.657 1.105-1.105 2.599-1.726 2.661-1.751.479-.197 1.032.006 1.27.469.237.462.081 1.028-.359 1.304-.389.247-1.519 1.146-1.573 1.995-.009.127-.031.479.453.98.083-.068.176-.155.283-.263.285-.286.565-.65.831-1.084.29-.472.906-.616 1.376-.329.471.289.618.905.329 1.376-.349.566-.726 1.055-1.122 1.451-.631.631-1.266.958-1.902 1.011-.137.502-.272 1.121-.272 1.515 0 1.638.32 2.252 1.502 2.431.008-1.897.356-3.089 1.124-3.855.708-.706 1.161-.953 2.374-1.037-.021-.566.433-1.04 1-1.039.552 0 .998.446.999.997.594.003 1.407.002 2.001 0 .001-.552.448-.998 1-.998.568-.001 1.022.474 1 1.041 1.211.085 1.666.33 2.374 1.035.769.766 1.116 1.958 1.124 3.855 1.182-.18 1.502-.793 1.502-2.431 0-.393-.135-1.013-.272-1.515-.636-.052-1.27-.379-1.902-1.011-.396-.396-.773-.885-1.122-1.451-.289-.471-.142-1.087.329-1.376.468-.287 1.086-.143 1.376.329.266.434.546.798.831 1.084.107.107.2.194.283.263.486-.503.462-.855.453-.983-.054-.796-1.083-1.686-1.573-1.992-.44-.275-.597-.842-.359-1.304.237-.463.789-.666 1.27-.469.062.025 1.556.646 2.661 1.751 1.213 1.213 1.355 2.441.429 3.657.005.015.014.027.019.042.06.178.577 1.766.577 2.975 0 3.481-1.635 5.333-4.904 5.535 2.909.174 4.565 1.601 4.893 4.284z"/></svg>