<?xml version="1.0" encoding="UTF-8"?>
<svg xmlns="http://www.w3.org/2000/svg" id="Layer_1" data-name="Layer 1" viewBox="0 0 24 24">
  <path d="M22.854,9.297H1.146c-.323,3.028-.101,6.143,.668,9.049,.288,1.088,1.198,1.925,2.319,2.131,2.537,.464,5.202,.696,7.867,.696s5.331-.232,7.867-.696t0,0c1.12-.206,2.03-1.042,2.318-2.13,.768-2.906,.99-6.022,.668-9.049Zm-15.224,7.492c-1.374,0-2.491-1.117-2.491-2.491s1.117-2.491,2.491-2.491,2.491,1.117,2.491,2.491-1.117,2.491-2.491,2.491Zm10.231-1.424h-3.313c-.552,0-1-.448-1-1s.448-1,1-1h3.313c.552,0,1,.448,1,1s-.448,1-1,1Z"/>
  <path d="M22.186,5.654c-.288-1.088-1.198-1.925-2.319-2.131-5.072-.927-10.66-.928-15.735,0-1.12,.206-2.03,1.042-2.318,2.13-.143,.541-.267,1.089-.372,1.643H22.558c-.105-.554-.229-1.102-.372-1.643Z"/>
</svg>
