<svg id="Layer_1" viewBox="0 0 24 24" xmlns="http://www.w3.org/2000/svg" data-name="Layer 1"><path d="m14.137 10.644c0-2.629-2.618-2.639-3.608-2.642-.214 0-.56-.011-.762 0-.389.022-.696.319-.744.694-.075.335-.323 1.574-.323 3.302 0 1.994.33 3.335.344 3.392.105.432.552.689.968.582.429-.106.69-.54.584-.969-.002-.008-.146-.601-.232-1.565.449.005.886-.033 1.248-.096.233.287.74 1.001.941 2.011.085.436.519.716.941.628.434-.087.714-.508.628-.941-.202-1.009-.625-1.788-.971-2.298.757-.56.986-1.365.986-2.098zm-3.836 1.194c.01-.957.102-1.737.181-2.236 1.96-.018 2.091.526 2.056 1.042.109.479-.309 1.293-2.237 1.193zm9.979-3.365c.052.117 1.28 2.905 1.419 6.697.016.441-.329.812-.77.829-.438.017-.813-.328-.829-.77-.062-1.672-.359-3.146-.652-4.226-.166.499-.332 1.097-.462 1.786-.072.378-.402.651-.786.651s-.714-.273-.786-.651c-.13-.689-.295-1.287-.462-1.786-.293 1.08-.591 2.554-.652 4.226-.016.442-.392.803-.829.77-.441-.016-.786-.387-.77-.829.139-3.792 1.367-6.58 1.419-6.697.12-.269.377-.449.67-.472.297-.022.575.118.733.365.022.035.327.515.677 1.391.35-.875.654-1.356.677-1.391.159-.247.433-.386.733-.365.293.022.55.203.67.472zm-15.98 3.527c0 2.4.592 2.4 1.067 2.4.508 0 .711-.151.873-.647.136-.42.586-.652 1.008-.514.42.136.65.587.514 1.008-.372 1.147-1.2 1.753-2.394 1.753-2.666 0-2.666-2.906-2.666-4s0-4 2.666-4c1.194 0 2.022.606 2.394 1.753.137.42-.094.872-.514 1.008-.422.137-.873-.095-1.008-.514-.161-.496-.365-.647-.873-.647-.475 0-1.067 0-1.067 2.4zm17.552-5.995c-.063.439-.409.785-.849.848-.687.099-1.38.147-2.072.147s-1.385-.049-2.073-.147c-.375-.053-.687-.314-.807-.673s-.026-.756.241-1.023l.376-.376c-1.234-.514-2.791-.78-4.669-.78-4.553 0-6.022 1.347-6.731 2.36-.292.416-.757.64-1.23.64-.297 0-.597-.088-.859-.271-.679-.475-.844-1.411-.369-2.089 1.738-2.483 4.658-3.64 9.189-3.64 2.807 0 5.115.524 6.904 1.544l1.251-1.251c.268-.267.664-.362 1.023-.242.358.12.62.432.674.807.197 1.375.197 2.77 0 4.146zm-.663 13.355c-1.738 2.483-4.658 3.64-9.188 3.64-2.806 0-5.115-.525-6.904-1.544l-1.251 1.251c-.268.267-.664.362-1.023.242-.358-.12-.62-.432-.674-.807-.197-1.375-.197-2.77 0-4.146.063-.439.409-.785.849-.848.687-.099 1.38-.147 2.072-.147s1.385.049 2.073.147c.375.053.687.314.807.673s.026.756-.241 1.023l-.376.376c1.234.514 2.791.78 4.669.78 4.552 0 6.022-1.347 6.731-2.36.474-.678 1.41-.844 2.089-.368.679.475.844 1.41.368 2.089z"/></svg>