<svg id="Layer_1" viewBox="0 0 24 24" xmlns="http://www.w3.org/2000/svg" data-name="Layer 1"><path d="m22.561 22.561c-.586.586-1.535.586-2.121 0l-3.5-3.5c-.586-.585-.586-1.536 0-2.121.586-.586 1.535-.586 2.121 0l3.5 3.5c.586.585.586 1.536 0 2.121zm-5.129-8.662c-1.191 1.191-2.888 2.612-4.036 3.379-1.391.932-3.212.954-4.616.064l-5.219 5.219c-.586.586-1.535.586-2.121 0-.586-.585-.586-1.536 0-2.121l5.216-5.216c-.36-.573-.568-1.217-.625-1.878-1.032-1.078-1.883-2.091-2.456-2.809-.485.509-1.264.614-1.862.241-.705-.435-.924-1.358-.49-2.063.063-.103 1.579-2.55 3.259-4.23s4.128-3.198 4.231-3.262c.706-.435 1.628-.216 2.063.49.377.611.261 1.386-.235 1.865.406.325.906.737 1.46 1.221.554-.484 1.052-.897 1.458-1.221-.497-.479-.613-1.254-.236-1.865.435-.706 1.358-.924 2.063-.49.103.063 2.55 1.579 4.23 3.259s3.196 4.127 3.259 4.23c.435.705.215 1.629-.49 2.063-.597.373-1.377.268-1.862-.24-.671.841-1.72 2.089-2.994 3.363zm-.035-7.295c-.419-.419-.907-.83-1.388-1.208-.568.428-2.262 1.757-3.836 3.346.622.5 1.176.986 1.639 1.448s.948 1.017 1.448 1.639c1.59-1.574 2.918-3.268 3.346-3.836-.378-.482-.789-.969-1.208-1.388zm-10.793 0c-.419.419-.83.907-1.208 1.389.28.37.881 1.143 1.702 2.08.727-.995 1.764-2.222 2.711-3.202-.804-.693-1.476-1.218-1.816-1.475-.482.378-.97.789-1.389 1.209zm5.125 8.18c.364-.243.812-.58 1.284-.961-.465-.585-.914-1.104-1.323-1.512s-.927-.858-1.512-1.323c-.381.472-.718.92-.961 1.284-.309.462-.282 1.073.065 1.487.126.145.816.834.966.966.407.341 1.018.368 1.481.06z"/></svg>