<?xml version="1.0" encoding="UTF-8"?>
<svg xmlns="http://www.w3.org/2000/svg" id="Layer_1" data-name="Layer 1" viewBox="0 0 24 24">
  <path d="M2.235,20.887c.149,.274,.417,.463,.724,.511,.171,.027,4.233,.66,9.041,.66s8.869-.633,9.04-.66c.31-.049,.579-.24,.728-.516,.046-.086,1.013-1.911,1.231-4.458H1c.217,2.565,1.188,4.377,1.235,4.463Z"/>
  <path d="M18.374,7.096c-.102-.591-.179-.932-.185-.959-.076-.328-.311-.597-.626-.715-.105-.039-2.608-.964-5.563-.964-1.511,0-2.922,.249-3.953,.497l.152-.88,.619-.183c1.575-.465,3.259-.523,4.863-.167,.543,.124,1.073-.221,1.193-.76,.119-.539-.221-1.073-.76-1.192-1.938-.431-3.964-.36-5.863,.201l-1.215,.358c-.365,.107-.637,.413-.702,.789,0,0-.609,3.387-.709,3.975,1.686-.164,3.94-.323,6.374-.323s4.688,.158,6.374,.323Z"/>
  <path d="M21.765,9.953c-.149-.274-.417-.463-.724-.511-.171-.027-4.233-.66-9.041-.66s-8.869,.633-9.04,.66c-.31,.049-.579,.24-.728,.516-.046,.086-1.013,1.911-1.231,4.459H23c-.217-2.566-1.188-4.378-1.235-4.463Z"/>
</svg>
