<svg id="Layer_1" viewBox="0 0 24 24" xmlns="http://www.w3.org/2000/svg" data-name="Layer 1"><path d="m23 9.5c0 4.145-1.028 6.762-1.071 6.871-.109.273-.333.484-.612.577-.118.039-2.721.883-7.817 1.028v2.023h2.001c.828 0 1.5.672 1.5 1.5s-.672 1.5-1.5 1.5h-7c-.828 0-1.5-.672-1.5-1.5s.672-1.5 1.5-1.5h2v-2.024c-5.095-.146-7.698-.989-7.816-1.028-.279-.093-.503-.304-.612-.577-.043-.109-1.071-2.727-1.071-6.871s1.026-6.761 1.069-6.87c.109-.273.333-.484.612-.577.129-.043 3.224-1.052 9.316-1.052 1.963 0 3.609.105 4.951.249-.975.848-1.977 1.817-2.917 2.729-1.441-.01-2.818.643-4.115 1.941-2.254 2.254-1.976 6.212-1.837 7.37.165 1.379 1.244 2.458 2.633 2.624.27.03.825.082 1.528.082 1.785 0 4.245-.333 5.831-1.919 1.285-1.284 1.933-2.658 1.929-4.097.941-.977 1.988-2.068 2.859-3.059.083.774.138 1.635.138 2.58zm-11.667-2.167c-1.692 1.692-1.313 5.312-1.265 5.719.055.458.416.819.874.874.137.016.635.069 1.301.069 1.318 0 3.294-.21 4.418-1.334.903-.902 1.342-1.774 1.342-2.664s-.438-1.762-1.342-2.664c-1.805-1.807-3.523-1.809-5.328 0zm6.743-1.413c.577.576 1.019 1.173 1.338 1.785 1.1-1.088 2.28-2.495 2.904-3.396.878-1.029.941-1.694 0-2.634-.941-.941-1.587-.856-2.634 0-.896.624-2.305 1.799-3.39 2.903.609.321 1.205.764 1.783 1.343z"/></svg>