<svg id="Layer_1" viewBox="0 0 24 24" xmlns="http://www.w3.org/2000/svg" data-name="Layer 1"><path d="m4.012 6.314c.254-2.035.576-3.509.589-3.57.126-.572.573-1.019 1.145-1.144.062-.014 1.534-.334 3.568-.589.828-.097 1.573.48 1.675 1.302.103.822-.48 1.572-1.302 1.675-.939.117-1.755.251-2.341.356-.105.586-.24 1.403-.357 2.341-.099.826-.868 1.408-1.674 1.303-.822-.103-1.405-.853-1.302-1.674zm17.674 6.697c-.831-.105-1.572.479-1.674 1.303-.117.938-.251 1.755-.357 2.341-.586.105-1.402.239-2.341.356-.822.103-1.405.853-1.302 1.675.099.826.869 1.408 1.675 1.302 2.034-.255 3.507-.575 3.568-.589.572-.125 1.019-.571 1.145-1.144.013-.062.335-1.535.589-3.57.103-.821-.48-1.571-1.302-1.674zm-4.373-9.023c.939.117 1.755.251 2.341.356.105.586.24 1.403.357 2.341.099.826.868 1.408 1.674 1.303.822-.103 1.405-.853 1.302-1.674-.254-2.035-.576-3.509-.589-3.57-.126-.572-.573-1.019-1.145-1.144-.062-.014-1.534-.334-3.568-.589-.822-.098-1.572.48-1.675 1.302s.48 1.572 1.302 1.675zm1.119 9.444s0 0 0 0c.34-.648.271-1.44-.175-2.017-.351-.454-.679-.867-.997-1.251.211-.541.412-1.098.599-1.663.228-.693.049-1.434-.454-1.907-.473-.503-1.214-.682-1.91-.453-.565.187-1.121.387-1.66.598-.384-.318-.797-.646-1.251-.997-.577-.446-1.369-.516-2.017-.175-.646.342-1.037 1.034-.994 1.767.028.478.056.954.088 1.418-.535.312-1.051.638-1.541.971-.583.396-.891 1.076-.806 1.777.093.807.704 1.429 1.477 1.61l-7.35 7.328c-.586.585-.588 1.534-.003 2.121s1.535.589 2.122.004l7.343-7.319c.187.761.813 1.35 1.6 1.44.689.088 1.382-.221 1.776-.806.335-.492.661-1.009.971-1.541.464.033.936.061 1.42.089.727.041 1.422-.349 1.763-.993z"/></svg>