<svg id="Layer_1" viewBox="0 0 24 24" xmlns="http://www.w3.org/2000/svg" data-name="Layer 1"><path d="m4.155 7.992c-.93.034-1.831-.08-2.508-.273-.461-.132-.746-.604-.615-1.047.348-1.173 1.269-1.672 2.968-1.672 1.004 0 1.73.18 2.233.564-1.203.59-1.795 1.548-2.078 2.427zm12.813-1.32c-.348-1.173-1.269-1.672-2.968-1.672-1.004 0-1.73.18-2.233.564 1.202.59 1.794 1.547 2.078 2.427.93.034 1.831-.08 2.508-.272.461-.132.746-.604.615-1.047zm-9.468-2.172c0 1.071.429 1.5 1.5 1.5s1.5-.429 1.5-1.5-.429-1.5-1.5-1.5-1.5.429-1.5 1.5zm5-2c0 1.071.429 1.5 1.5 1.5s1.5-.429 1.5-1.5-.429-1.5-1.5-1.5-1.5.429-1.5 1.5zm-10 0c0 1.071.429 1.5 1.5 1.5s1.5-.429 1.5-1.5-.429-1.5-1.5-1.5-1.5.429-1.5 1.5zm6.5 4.5c-1.699 0-2.62.499-2.968 1.672-.131.442.154.915.615 1.047.655.188 1.432.281 2.353.281s1.698-.093 2.353-.281c.461-.132.746-.604.615-1.047-.348-1.173-1.269-1.672-2.968-1.672zm13.922 4.886c-.164-.647-.57-1.192-1.145-1.533-1.183-.705-2.72-.315-3.427.869-1.031 1.731-2.2 3.154-3.595 4.288-.372 1.02-1.156 1.857-2.214 2.276-1.006.429-2.568 1.112-4.543 1.215-.509 0-.945-.387-.995-.904-.053-.55.35-1.038.9-1.091 1.582-.152 2.971-.684 3.879-1.069.76-.301 1.217-.971 1.217-1.759 0-.752-.502-1.429-1.221-1.645-.008 0-1.779-.532-4.279-.532-2.985 0-5.082.497-5.19.519-.381.074-.686.362-.78.739-.021.086-.53 2.144-.53 4.242s.508 4.156.53 4.242c.094.375.395.663.774.738.106.021 2.632.52 5.696.52 6.432.026 11.307-3.592 14.648-9.221.342-.573.439-1.246.274-1.894z"/></svg>