<svg id="Layer_1" viewBox="0 0 24 24" xmlns="http://www.w3.org/2000/svg" data-name="Layer 1"><path d="m23 11.994c-.01-1.709-.886-2.736-2.603-3.051-.109-.207-.23-.416-.364-.624 1.057-1.467.966-2.838-.271-4.075-1.237-1.239-2.61-1.333-4.067-.272-.209-.131-.417-.251-.623-.356-.311-1.711-1.373-2.615-3.072-2.615s-2.762.904-3.074 2.613c-.205.108-.413.228-.614.358-1.467-1.06-2.838-.969-4.076.273-1.235 1.236-1.326 2.607-.27 4.069-.132.211-.253.42-.361.628-1.719.315-2.596 1.343-2.605 3.052v.012c.01 1.709.886 2.736 2.603 3.053.11.207.231.416.363.622-1.056 1.467-.965 2.838.27 4.075 1.239 1.239 2.609 1.332 4.069.272.208.131.416.25.622.356.311 1.711 1.374 2.615 3.073 2.615s2.762-.904 3.071-2.612c.207-.108.415-.229.616-.359 1.466 1.059 2.838.966 4.075-.272 1.236-1.237 1.327-2.608.273-4.073.131-.21.252-.419.358-.625 1.72-.315 2.596-1.343 2.605-3.063zm-14-4.994c0-.553.448-1 1-1s1 .447 1 1v2c0 .553-.448 1-1 1s-1-.447-1-1zm2 8.311v1.689c0 .552-.447 1-.999 1-.552 0-1-.447-1-1v-1.69c-.591-.256-.983-.8-1.002-1.81.026-1.484.874-1.993 2.001-2 1.123.007 1.976.547 2.001 2-.019 1.013-.409 1.556-1 1.811zm4 1.689c0 .553-.447 1-1 1s-1-.447-1-1v-2c0-.553.447-1 1-1s1 .447 1 1zm-.999-4.5c-1.123-.007-1.976-.547-2.001-2 .019-1.013.409-1.556 1-1.811v-1.689c0-.552.447-1 1-1s1 .447 1 1v1.69c.591.256.983.8 1.002 1.81-.026 1.484-.874 1.993-2.001 2z"/></svg>