<svg id="Layer_1" viewBox="0 0 24 24" xmlns="http://www.w3.org/2000/svg" data-name="Layer 1"><path d="m10.214 1c-.556 0-3.828.044-4.951.238-.562.097-1.02.503-1.183 1.048-.044.147-1.08 3.682-1.08 9.714 0 7.377.994 9.622 1.193 9.996.219.412.616.699 1.077.776 1.112.186 4.387.228 4.943.228 4.63 0 10.786-1.14 10.786-11s-6.155-11-10.785-11zm0 19c-.865 0-2.495-.039-3.57-.105-.256-1.065-.644-3.418-.644-7.895 0-3.806.444-6.542.728-7.895 1.079-.066 2.666-.105 3.486-.105 4.807 0 7.786 1.338 7.786 8s-2.979 8-7.786 8z"/></svg>