<svg id="Layer_1" viewBox="0 0 24 24" xmlns="http://www.w3.org/2000/svg" data-name="Layer 1"><path d="m22.843 11.461c-2.013-3.146-4.612-5.905-7.726-8.201-.158-.116-.348-.185-.543-.194-.79-.039-1.642-.065-2.574-.065-6.092 0-9.188 1.009-9.316 1.052-.299.099-.533.333-.632.632-.043.129-1.052 3.201-1.052 7.316s1.009 7.188 1.052 7.316c.099.299.333.533.632.632.129.043 3.225 1.052 9.316 1.052.933 0 1.784-.026 2.574-.065.195-.01.385-.078.543-.194 3.113-2.296 5.713-5.056 7.726-8.201.21-.329.21-.749 0-1.078zm-9.636 2.332c.391.391.391 1.023 0 1.414s-1.023.391-1.414 0l-1.793-1.793-1.793 1.793c-.391.391-1.023.391-1.414 0s-.391-1.023 0-1.414l1.793-1.793-1.793-1.793c-.391-.391-.391-1.023 0-1.414s1.023-.391 1.414 0l1.793 1.793 1.793-1.793c.391-.391 1.023-.391 1.414 0s.391 1.023 0 1.414l-1.793 1.793z"/></svg>