<?xml version="1.0" encoding="UTF-8"?>
<svg xmlns="http://www.w3.org/2000/svg" id="Layer_1" data-name="Layer 1" viewBox="0 0 24 24">
  <path d="m22.034,5.095c-.099-.327-.356-.581-.686-.674-.13-.037-3.232-.898-7.367-.898-4.169,0-7.514.949-7.58.985-.171.095-1.095.661-2.458,2.485-1.854,2.483-2.809,4.497-2.849,4.581-.127.27-.127.581,0,.851.04.084.994,2.098,2.849,4.581,1.362,1.825,2.286,2.39,2.458,2.485.066.037,3.411.985,7.58.985,4.135,0,7.237-.861,7.367-.898.329-.093.587-.347.686-.674.04-.131.966-3.244.966-6.905s-.926-6.774-.966-6.905Zm-5.192,8.756c.391.391.391,1.023,0,1.414-.195.195-.451.293-.707.293s-.512-.098-.707-.293l-1.852-1.852-1.852,1.852c-.195.195-.451.293-.707.293s-.512-.098-.707-.293c-.391-.391-.391-1.023,0-1.414l1.852-1.852-1.852-1.852c-.391-.391-.391-1.023,0-1.414s1.023-.391,1.414,0l1.852,1.852,1.852-1.852c.391-.391,1.023-.391,1.414,0s.391,1.023,0,1.414l-1.852,1.852,1.852,1.852Z"/>
</svg>
