<svg id="Layer_1" viewBox="0 0 24 24" xmlns="http://www.w3.org/2000/svg" data-name="Layer 1"><path d="m2.563 13.257c.174-1.06.321-1.729.321-1.729.126-.571.572-1.019 1.144-1.144.143-.031 3.129-.679 6.471-.846v-.039c0-.828.671-1.5 1.5-1.5s1.5.672 1.5 1.5v.039c3.342.167 6.329.814 6.472.846.572.125 1.019.572 1.145 1.145 0 0 .146.668.32 1.727.136.817-.418 1.589-1.235 1.724-.799.138-1.593-.414-1.724-1.235-.038-.226-.073-.432-.106-.614-1.071-.192-2.914-.475-4.871-.583v.953c0 .828-.671 1.5-1.5 1.5s-1.5-.672-1.5-1.5v-.953c-1.957.108-3.8.391-4.871.583-.033.183-.069.389-.106.613-.134.818-.908 1.37-1.724 1.237-.817-.135-1.371-.906-1.236-1.724zm11.502 3.954c-.039-.009-.969-.211-2.065-.211s-2.026.202-2.065.211c-.4.088-.706.412-.772.816-.006.041-.163 1.015-.163 1.973s.156 1.932.163 1.973c.066.404.372.729.772.816.039.009.969.211 2.065.211s2.026-.202 2.065-.211c.399-.088.705-.411.771-.815.007-.041.163-1.015.163-1.974s-.156-1.933-.163-1.974c-.066-.404-.372-.728-.771-.815zm-8 0c-.039-.009-.969-.211-2.065-.211s-2.026.202-2.065.211c-.4.088-.706.412-.772.816-.006.041-.163 1.015-.163 1.973s.156 1.932.163 1.973c.066.404.372.729.772.816.039.009.969.211 2.065.211s2.026-.202 2.065-.211c.4-.088.706-.412.772-.816.006-.041.163-1.015.163-1.973s-.156-1.932-.163-1.973c-.066-.404-.372-.729-.772-.816zm16.772.815c-.066-.404-.372-.728-.771-.815-.039-.009-.969-.211-2.065-.211s-2.026.202-2.065.211c-.399.088-.705.411-.771.815-.007.041-.163 1.015-.163 1.974s.156 1.933.163 1.974c.066.404.372.728.771.815.039.009.969.211 2.065.211s2.026-.202 2.065-.211c.399-.088.705-.411.771-.815.007-.041.163-1.015.163-1.974s-.156-1.933-.163-1.974zm-12.902-11.237c.039.009.969.211 2.065.211s2.026-.202 2.065-.211c.399-.088.705-.411.771-.815.007-.041.163-1.015.163-1.974s-.156-1.933-.163-1.974c-.066-.404-.372-.728-.771-.815-.039-.009-.969-.211-2.065-.211s-2.026.202-2.065.211c-.4.088-.706.412-.772.816-.006.041-.163 1.015-.163 1.973s.156 1.932.163 1.973c.066.404.372.729.772.816z"/></svg>