<svg id="Layer_1" viewBox="0 0 24 24" xmlns="http://www.w3.org/2000/svg" data-name="Layer 1"><path d="m23 12c0-.65-.416-1.198-.994-1.406-.144-2.089-.627-3.771-1.466-5.08.422-.586.396-1.396-.131-1.923-.528-.528-1.339-.554-1.925-.13-1.309-.837-2.991-1.318-5.079-1.461-.207-.58-.756-.997-1.407-.997-.651 0-1.199.418-1.407.998-2.087.144-3.767.627-5.074 1.465-.587-.426-1.399-.4-1.927.129-.529.529-.554 1.343-.127 1.929-.836 1.308-1.317 2.988-1.46 5.074-.582.207-1.001.757-1.001 1.41 0 .652.42 1.2 1.001 1.407.144 2.086.626 3.766 1.463 5.073-.423.586-.397 1.397.131 1.924.528.529 1.34.582 1.924.131 1.308.837 2.989 1.319 5.076 1.463.207.58.756.997 1.407.997.651 0 1.199-.418 1.406-.997 2.088-.143 3.77-.626 5.078-1.464.584.449 1.393.394 1.92-.134.526-.526.553-1.334.134-1.92.839-1.31 1.321-2.992 1.465-5.082.578-.208.993-.756.993-1.406zm-10.997-2c1.667 0 2.003.337 2.003 2.003s-.337 2.003-2.003 2.003-2.003-.337-2.003-2.003.337-2.003 2.003-2.003zm2.442-2.566c-.29-.118-.606-.21-.946-.278v-2.142c1.092.091 1.997.294 2.735.631l-1.789 1.79zm-3.946-.277c-.341.069-.657.162-.948.281l-1.789-1.79c.738-.339 1.643-.544 2.736-.635v2.143zm-3.065 2.405c-.117.288-.209.602-.277.939l-2.144.002c.091-1.091.294-1.994.631-2.731l1.789 1.79zm-.278 3.939c.068.341.162.658.281.95l-1.79 1.79c-.338-.738-.542-1.643-.633-2.737zm2.402 3.07c.29.118.604.211.943.279v2.143c-1.091-.091-1.995-.295-2.732-.633l1.79-1.79zm3.943.28c.341-.068.658-.161.95-.28l1.789 1.79c-.738.338-1.644.542-2.738.633v-2.142zm3.07-2.401c.119-.292.212-.609.28-.95h2.143c-.091 1.095-.295 2.001-.633 2.74zm.279-3.95c-.069-.341-.162-.657-.281-.948l1.789-1.79c.339.738.544 1.643.635 2.738h-2.144z"/></svg>