<?xml version="1.0" encoding="UTF-8"?>
<svg xmlns="http://www.w3.org/2000/svg" id="Layer_1" data-name="Layer 1" viewBox="0 0 24 24">
  <path d="M22.578,2.909c-.15-.488-.539-.865-1.03-1.002-.06-.017-1.476-.407-3.132-.407s-3.072,.39-3.132,.407c-.494,.137-.883,.517-1.032,1.007-.026,.087-.179,.605-.292,1.388-.569-.082-1.253-.148-1.979-.148-.709,0-1.378,.063-1.94,.143-.114-.786-.267-1.301-.294-1.387-.15-.488-.539-.865-1.03-1.002-.06-.017-1.476-.407-3.133-.407s-3.072,.39-3.131,.407c-.494,.137-.883,.517-1.032,1.007-.043,.141-.42,1.427-.42,3.142,0,1.73,.378,3.006,.422,3.146,.15,.488,.539,.865,1.03,1.002,.06,.017,1.476,.407,3.132,.407,.67,0,1.301-.064,1.819-.141,.305,.669,.747,1.555,1.322,2.492,.715,1.164,1.439,2.104,1.912,2.679-.109,.564-.221,1.37-.221,2.305,0,1.73,.378,3.006,.421,3.146,.15,.488,.539,.866,1.03,1.003,.06,.017,1.477,.407,3.133,.407s3.072-.39,3.132-.407c.494-.137,.883-.517,1.033-1.007,.043-.141,.419-1.427,.419-3.141,0-1.73-.378-3.006-.421-3.146-.15-.488-.539-.866-1.03-1.003-.06-.017-1.477-.407-3.133-.407-.828,0-1.597,.098-2.167,.198-.403-.5-.98-1.265-1.552-2.197-.692-1.126-1.165-2.179-1.395-2.733,.073-.327,.158-.785,.215-1.334,.498-.086,1.169-.17,1.88-.17,.731,0,1.417,.089,1.918,.176,.111,1.055,.323,1.769,.354,1.872,.15,.488,.539,.865,1.03,1.002,.06,.017,1.476,.407,3.133,.407s3.072-.39,3.131-.407c.494-.137,.883-.517,1.032-1.007,.043-.141,.42-1.427,.42-3.142,0-1.73-.378-3.006-.422-3.146Z"/>
</svg>
