<svg id="Layer_1" viewBox="0 0 24 24" xmlns="http://www.w3.org/2000/svg" data-name="Layer 1"><path d="m9 15h-2v-5h2zm0-11.907c-.731.047-1.396.108-2 .177v4.729h2zm8 6.907h-2v5h2zm0-6.729c-.604-.07-1.269-.131-2-.177v4.907h2zm-4-.26c-.325-.006-.656-.011-1-.011s-.675.004-1 .011v11.989h2zm0 17.978c5.439-.108 8.213-1.07 8.335-1.113.278-.099.498-.315.602-.591.023-.062.322-.879.596-2.285h-9.533zm8.937-16.274c-.104-.275-.324-.492-.602-.591-.063-.022-.844-.292-2.335-.562v11.438h3.837c.098-.886.163-1.891.163-3 0-4.397-1.02-7.169-1.063-7.285zm-16.937-1.153c-1.491.27-2.272.539-2.335.562-.278.099-.498.315-.602.591-.043.116-1.063 2.888-1.063 7.285 0 1.109.065 2.114.163 3h3.837zm-2.937 15.723c.104.275.324.492.602.591.122.043 2.896 1.005 8.335 1.113v-3.989h-9.533c.275 1.406.573 2.223.596 2.285z"/></svg>