<svg id="Layer_1" viewBox="0 0 24 24" xmlns="http://www.w3.org/2000/svg" data-name="Layer 1"><path d="m1.063 10.016c-.064-4.032.426-7.511.447-7.657.056-.39.334-.71.712-.819.076-.021 1.905-.539 5.31-.539s5.182.521 5.256.542c.373.112.647.431.703.816.002.014.009.068.019.142h.959c3.107 0 4.388.409 4.613.491.468.17.82.562.941 1.045.015.057.285 1.178.396 2.964h1.049c.8-.026 1.3.977.8 1.601-.768 1.023-1.676 1.932-2.699 2.699-.356.267-.845.267-1.201 0-1.023-.768-1.932-1.676-2.699-2.699-.5-.624 0-1.627.8-1.601h.945c-.038-.528-.089-.984-.14-1.338-.573-.08-1.484-.162-2.806-.162h-.652c.099 1.278.183 2.839.183 4.5 0 .553-.447 1-1 1h-10.936c-.546 0-.991-.438-1-.984zm21.872 4.043c-.22 3.748-.928 7.018-.958 7.155-.076.344-.327.623-.661.734-.129.043-3.224 1.052-9.316 1.052s-9.187-1.009-9.316-1.052c-.334-.111-.585-.39-.66-.734-.03-.138-.739-3.407-.959-7.155-.045-.558.438-1.071.998-1.059h19.874c.559-.012 1.043.501.998 1.059zm-19.093 6.051 5.11-5.11h-2.828l-2.681 2.681c.145 1.031.295 1.881.399 2.429zm12.11-5.11h-2.828l-5.768 5.768c.771.081 1.65.147 2.64.188l5.955-5.955zm4.91 0h-.994l-5.96 5.96c1.169-.045 2.187-.128 3.055-.227l3.678-3.678c.083-.643.161-1.332.222-2.056z"/></svg>