<svg id="Layer_1" viewBox="0 0 24 24" xmlns="http://www.w3.org/2000/svg" data-name="Layer 1"><path d="m22.703 13.313c.188.201.287.47.271.745-.22 3.748-.929 7.018-.959 7.155-.075.345-.326.623-.66.734-.129.043-3.225 1.052-9.316 1.052s-9.188-1.009-9.316-1.052c-.334-.111-.585-.391-.661-.734-.03-.138-.738-3.407-.958-7.155-.045-.557.439-1.071.998-1.059h4.072c-.335.941-.185 1.985.426 2.801 1.025 1.366 2.236 2.577 3.597 3.597 1.03.797 2.573.797 3.602.002 1.365-1.023 2.577-2.235 3.599-3.599.611-.813.762-1.856.427-2.801h4.151c.275 0 .539.113.728.313zm-21.329-2.626c-.189-.201-.287-.47-.271-.745.22-3.748.928-7.018.958-7.155.076-.344.327-.623.661-.734.129-.043 3.224-1.052 9.316-1.052s9.187 1.009 9.316 1.052c.334.111.585.39.66.734.03.138.739 3.407.959 7.155.045.558-.438 1.071-.998 1.059h-8.475v2h1.5c.798-.026 1.3.977.8 1.6-.91 1.214-1.986 2.29-3.2 3.2-.356.267-.844.267-1.2 0-1.212-.908-2.289-1.984-3.2-3.199-.5-.624 0-1.626.8-1.601h1.5v-2h-8.398c-.275 0-.539-.113-.728-.313zm18.822-6.797-5.11 5.11h2.828l2.681-2.681c-.145-1.031-.295-1.881-.399-2.429zm-12.11 5.11h2.828l5.768-5.768c-.771-.081-1.65-.147-2.64-.188l-5.955 5.955zm-4.91 0h.994l5.961-5.96c-1.169.045-2.187.128-3.055.227l-3.678 3.678c-.083.643-.161 1.332-.222 2.056z"/></svg>