<?xml version="1.0" encoding="UTF-8"?>
<svg xmlns="http://www.w3.org/2000/svg" id="Layer_1" data-name="Layer 1" viewBox="0 0 24 24">
  <path d="M8.946,7.32l-.136,.623c-.069,.315-.108,.675-.117,1.041h6.613c-.009-.366-.048-.726-.117-1.041l-.136-.623c-.475-2.169-1.032-4.172-1.657-5.953-.467-.015-.934-.024-1.401-.026-.463,.002-.927,.011-1.392,.026-.626,1.782-1.183,3.784-1.658,5.953Z"/>
  <path d="M17.029,6.888l.136,.622c.101,.458,.155,.964,.165,1.474h5.67c-.082-.281-.205-.553-.369-.807l-.319-.495c-1.172-1.818-2.554-3.501-4.105-5l-.31-.301c-.513-.496-1.181-.802-1.881-.862-.147-.013-.295-.024-.443-.035,.544,1.652,1.033,3.466,1.456,5.403Z"/>
  <path d="M15.04,11.007h-6.08l.015,.066c.848,3.716,1.788,7.978,2.799,11.417,.066,.225,.386,.225,.452,0,1.011-3.439,1.951-7.701,2.799-11.417l.015-.067Z"/>
  <path d="M7.004,11.524l-.118-.517H1.1c.08,.198,.18,.389,.303,.571l.368,.549c2.359,3.505,5.016,6.847,7.896,9.933l.154,.165c-1.018-3.372-1.964-6.962-2.817-10.701Z"/>
  <path d="M6.67,8.984c.01-.51,.064-1.016,.165-1.474l.136-.623c.423-1.937,.912-3.75,1.457-5.403-.148,.011-.296,.023-.443,.036-.7,.06-1.369,.366-1.881,.862l-.31,.299c-1.552,1.5-2.933,3.183-4.105,5.001l-.319,.495c-.164,.254-.286,.526-.369,.807H6.67Z"/>
  <path d="M17.114,11.007l-.118,.517c-.853,3.738-2.662,10.535-2.662,10.535,2.879-3.085,5.535-6.427,7.895-9.933l.368-.548c.122-.182,.223-.373,.303-.571h-5.786Z"/>
</svg>
