<svg id="Layer_1" viewBox="0 0 24 24" xmlns="http://www.w3.org/2000/svg" data-name="Layer 1"><path d="m20 13c1.429 0 2-.571 2-2 .019-1.474-.658-2.037-2.104-2-.022-.34-.046-.675-.072-1 1.457 0 2.207-.491 2.176-2 0-1.429-.571-2-2-2h-.631c-.099-.685-.174-1.117-.184-1.173-.067-.381-.348-.689-.721-.792-.154-.042-3.816-1.036-7.465-1.036-1.177 0-2.191.078-3 .173v14.827h11.822c-.058.713-.125 1.389-.195 2h.373c1.429 0 2-.571 2-2 .009-1.449-.612-2-2.049-2 .015-.329.016-.666.024-1h.024zm-15 3c-.701 0-1.796.258-2.733.979-.144-1.47-.267-3.226-.267-4.979 0-2.482.245-4.983.451-6.646.238-1.929 1.658-3.454 3.549-3.848v14.494zm0 2h14.627c-.206 1.812-.424 3.075-.441 3.173-.067.381-.348.689-.721.792-.154.042-3.816 1.036-7.465 1.036-1.465 0-3.103-.159-4.868-.472-1.601-.284-2.87-1.386-3.417-2.857.556-1.573 2.103-1.668 2.285-1.672z"/></svg>