<svg id="Layer_1" viewBox="0 0 24 24" xmlns="http://www.w3.org/2000/svg" data-name="Layer 1"><path d="m13.001 18.013c.004 1.573 0 2.7 0 2.826 0 1.23-.188 2.101-.718 2.159-.564.062-1.283-1.024-1.283-1.024s-.719 1.088-1.283 1.024c-.517-.058-.718-.918-.718-2.159 0-.127.009-1.253.013-2.826h3.99zm-6.005-2.002v-14.504c-1.892.394-3.314 1.921-3.551 3.851-.206 1.663-.452 4.167-.452 6.65 0 1.754.123 3.513.267 4.983.938-.722 2.033-.98 2.735-.98zm13.196-13.182c-.067-.381-.348-.689-.721-.792-.154-.043-3.819-1.036-7.47-1.036-1.177 0-2.193.078-3.002.173v14.838h11.832c.103-1.254.177-2.629.177-4.003 0-4.483-.782-8.99-.815-9.18zm-13.196 18.009.011-2.825h-1.012c-.182.003-1.73.099-2.286 1.673.551 1.485 1.846 2.6 3.467 2.866-.108-.481-.179-1.034-.179-1.714zm8.006-2.825c.004 1.319 0 2.326 0 2.692.01.819-.082 1.598-.243 2.147 2.544-.284 4.596-.84 4.71-.872.373-.103.654-.411.721-.792.017-.098.235-1.361.442-3.175h-5.631z"/></svg>