<?xml version="1.0" encoding="UTF-8"?>
<svg xmlns="http://www.w3.org/2000/svg" id="Layer_1" data-name="Layer 1" viewBox="0 0 24 24">
  <path d="M23,12.213c-.468-1.049-2.075-4.403-4.497-6.837-1.866-1.874-3.838-3.266-4.982-4.007l3.416,9.106,6.063,1.737Z"/>
  <path d="M10.571,1.351c-1.118,.713-3.037,2.064-4.989,4.025C2.849,8.123,1.323,11.613,1,12.4l6.144-1.913L10.571,1.351Z"/>
  <polygon points="12.043 3.239 9.101 11.082 12.043 14.038 14.985 11.082 12.043 3.239"/>
  <path d="M13.063,15.905v6.744c.988-.598,3.192-2.047,5.44-4.305,1.96-1.969,3.278-3.41,3.951-4.164l-5.97-1.711-3.421,3.437Z"/>
  <path d="M1.748,14.303c.729,.81,2.056,2.253,3.835,4.04,2.147,2.157,4.436,3.676,5.44,4.297v-6.735l-3.411-3.427-5.864,1.825Z"/>
</svg>
