<?xml version="1.0" encoding="UTF-8"?>
<svg xmlns="http://www.w3.org/2000/svg" id="Layer_1" data-name="Layer 1" viewBox="0 0 24 24">
  <path d="M22.246,10c-.1-.325-.357-.578-.685-.671-.109-.031-2.694-.751-5.746-.751s-5.635,.721-5.744,.751c-.329,.093-.588,.347-.687,.674-.03,.102-.753,2.54-.753,5.777,0,3.266,.724,5.679,.754,5.781,.1,.325,.357,.578,.685,.671,.109,.031,2.694,.751,5.745,.751s5.636-.721,5.745-.751c.329-.093,.588-.347,.687-.674,.03-.102,.753-2.54,.753-5.777,0-3.265-.724-5.679-.754-5.78Zm-8.724,4.971c-.82,0-1.484-.664-1.484-1.484s.664-1.484,1.484-1.484,1.484,.664,1.484,1.484-.664,1.484-1.484,1.484Zm4.587,4.587c-.82,0-1.484-.664-1.484-1.484s.664-1.484,1.484-1.484,1.484,.664,1.484,1.484-.664,1.484-1.484,1.484Z"/>
  <path d="M14.82,4.687c-2.303-2.31-4.518-3.503-4.61-3.553-.301-.16-.662-.156-.961,.011-.098,.055-2.434,1.378-4.59,3.542-2.152,2.159-3.477,4.505-3.532,4.604-.166,.297-.17,.659-.009,.959,.05,.094,1.258,2.331,3.541,4.621,.689,.691,1.369,1.282,1.988,1.772-.01-.281-.015-.569-.015-.864,0-3.43,.75-6.057,.836-6.346,.299-.995,1.068-1.751,2.061-2.03,.302-.085,3.033-.827,6.287-.827,.235,0,.468,.004,.697,.011-.475-.597-1.039-1.247-1.692-1.901ZM5.052,10.01c-.82,0-1.484-.664-1.484-1.484s.664-1.484,1.484-1.484,1.484,.664,1.484,1.484-.664,1.484-1.484,1.484Zm3.58-3.58c-.82,0-1.484-.664-1.484-1.484s.664-1.484,1.484-1.484,1.484,.664,1.484,1.484-.664,1.484-1.484,1.484Z"/>
</svg>
