<?xml version="1.0" encoding="UTF-8"?>
<svg xmlns="http://www.w3.org/2000/svg" id="Layer_1" data-name="Layer 1" viewBox="0 0 24 24">
  <path d="M9.9,17.813l-.159-.163c-1.871-1.916-3.447-4.071-4.703-6.424-1.06,1.943-1.922,3.931-2.545,5.894l3.97,.425c1.142,.13,2.288,.219,3.436,.267Z"/>
  <path d="M1.365,7.537c-.385,2.363-.462,4.744-.232,7.115,.673-1.75,1.512-3.501,2.493-5.208l-2.261-1.907Z"/>
  <path d="M7.139,7.817c3.213-.557,6.47-.556,9.682,.004-.623-.899-1.288-1.784-1.992-2.646l-2.84-3.617-2.88,3.644c-.695,.846-1.353,1.721-1.97,2.615Z"/>
  <path d="M16.506,9.901c-3.01-.53-6.062-.53-9.073,0l-.654,.115c1.181,2.264,2.679,4.332,4.467,6.164l.744,.762,.716-.737c1.788-1.842,3.284-3.919,4.458-6.188l-.659-.116Z"/>
  <path d="M14.216,17.672l-.134,.137c1.116-.049,2.229-.137,3.338-.263l4.095-.429c-.619-1.946-1.497-3.945-2.593-5.921-1.252,2.37-2.831,4.542-4.707,6.476Z"/>
  <path d="M3.544,19.349c2.255,1.665,4.736,2.971,7.397,3.892v-3.29c-1.573-.031-3.145-.136-4.708-.313l-2.689-.288Z"/>
  <path d="M22.631,7.513l-2.295,1.892c.927,1.584,1.806,3.334,2.534,5.216,.227-2.368,.148-4.747-.239-7.108Z"/>
  <path d="M13.046,19.949v3.296c2.67-.922,5.157-2.231,7.417-3.901l-2.813,.295c-1.527,.173-3.064,.277-4.604,.311Z"/>
  <path d="M7.471,3.881l2.071-2.62c-2.615,1.064-5.038,2.515-7.225,4.326l2.418,2.04c.836-1.292,1.751-2.547,2.736-3.746Z"/>
  <path d="M19.217,7.601l2.455-2.023c-2.196-1.817-4.63-3.27-7.253-4.333l2.052,2.614c.854,1.046,1.803,2.305,2.746,3.742Z"/>
</svg>
