<?xml version="1.0" encoding="UTF-8"?>
<svg xmlns="http://www.w3.org/2000/svg" id="Layer_1" data-name="Layer 1" viewBox="0 0 24 24">
  <path d="M2.135,11.839c2.842,1.099,5.812,1.758,8.844,1.966V1.014c-.315,.127-.608,.316-.854,.566C7.881,3.87,3.984,8.128,2.135,11.839Z"/>
  <path d="M13.874,1.58c-.246-.251-.538-.439-.854-.567V13.804c3.032-.208,6.002-.867,8.844-1.966-1.849-3.711-5.745-7.969-7.99-10.258Z"/>
  <path d="M10.639,22.835c.11,.069,.224,.128,.341,.179v-7.164c-2.959-.19-5.863-.782-8.659-1.767,1.268,1.696,5.239,6.82,8.318,8.752Z"/>
  <path d="M13.021,23.014c.117-.051,.231-.11,.341-.179,3.079-1.932,7.05-7.056,8.318-8.752-2.796,.985-5.7,1.578-8.659,1.767v7.164Z"/>
</svg>
