<svg id="Layer_1" viewBox="0 0 24 24" xmlns="http://www.w3.org/2000/svg" data-name="Layer 1"><path d="m21.937 4.715c-.104-.275-.324-.492-.602-.591-.129-.046-3.233-1.124-9.335-1.124s-9.206 1.078-9.335 1.124c-.278.099-.498.315-.602.591-.043.116-1.063 2.888-1.063 7.285s1.02 7.169 1.063 7.285c.104.275.324.492.602.591.129.046 3.233 1.124 9.335 1.124s9.206-1.078 9.335-1.124c.278-.099.498-.315.602-.591.043-.116 1.063-2.888 1.063-7.285s-1.02-7.169-1.063-7.285zm-11.937 13.285h-4c-.552 0-1-.447-1-1s.448-1 1-1h4c.552 0 1 .447 1 1s-.448 1-1 1zm-5-5.5c0-.828.672-1.5 1.5-1.5s1.5.672 1.5 1.5-.672 1.5-1.5 1.5-1.5-.672-1.5-1.5zm6.5 1.5c-.828 0-1.5-.672-1.5-1.5s.672-1.5 1.5-1.5 1.5.672 1.5 1.5-.672 1.5-1.5 1.5zm-5.5-5c-.552 0-1-.447-1-1v-1c0-.553.448-1 1-1h8c.552 0 1 .447 1 1v1c0 .553-.448 1-1 1zm12 3.5c0 .828-.672 1.5-1.5 1.5s-1.5-.672-1.5-1.5.672-1.5 1.5-1.5 1.5.672 1.5 1.5zm0 5.5h-4c-.552 0-1-.447-1-1s.448-1 1-1h4c.552 0 1 .447 1 1s-.448 1-1 1z"/></svg>