<svg id="Layer_1" viewBox="0 0 24 24" xmlns="http://www.w3.org/2000/svg" data-name="Layer 1"><path d="m20 12.828v8.672c0 .829-.672 1.5-1.5 1.5s-1.5-.671-1.5-1.5v-8.672c-2.026-.461-3-1.967-3-4.828 0-3.136 1.391-7 4.5-7s4.5 3.864 4.5 7c0 2.861-.974 4.367-3 4.828zm-5 1.404v5.893c-1.313.591-2.966.875-5 .875-6.309 0-9-2.691-9-9s2.691-9 9-9c1.076 0 2.039.085 2.909.246-.601 1.438-.909 3.099-.909 4.754 0 3.518 1.309 5.339 3 6.232zm-4-6.232c0-.552-.448-1-1-1s-1 .448-1 1v3.586l-1.707 1.707c-.391.391-.391 1.023 0 1.414s1.023.391 1.414 0l2-2c.188-.188.293-.442.293-.707z"/></svg>