<?xml version="1.0" encoding="UTF-8"?>
<svg xmlns="http://www.w3.org/2000/svg" id="Layer_1" data-name="Layer 1" viewBox="0 0 24 24">
  <path d="M19.172,11.124c.471,0,.915,.039,1.331,.115-.003-.687-.025-1.349-.061-1.979-.217-3.745-.931-6.326-.961-6.434-.095-.338-.354-.604-.69-.707-.149-.045-3.691-1.119-7.878-1.119S3.186,2.073,3.037,2.119c-.337,.103-.598,.371-.692,.71-.041,.151-1.022,3.744-1.022,8.536,0,4.832,.98,8.389,1.023,8.538,.095,.338,.354,.604,.69,.707,.149,.045,3.692,1.119,7.878,1.119,1.511,0,3.001-.191,3.063-.199,.237-.031,.445-.14,.6-.297v-1.399c-.024-.036-.09-.145-.09-.145-.509-.849-.767-1.892-.767-3.116,0-3.413,2.038-5.45,5.451-5.45Zm-8.515,5.519h-2.659c-.557,0-1.008-.451-1.008-1.008s.451-1.008,1.008-1.008h2.659c.557,0,1.008,.451,1.008,1.008s-.451,1.008-1.008,1.008Zm2.936-4.431H7.998c-.557,0-1.008-.451-1.008-1.008s.451-1.008,1.008-1.008h5.596c.557,0,1.008,.451,1.008,1.008s-.451,1.008-1.008,1.008Zm0-4.381H7.998c-.557,0-1.008-.451-1.008-1.008s.451-1.008,1.008-1.008h5.596c.557,0,1.008,.451,1.008,1.008s-.451,1.008-1.008,1.008Z"/>
  <path d="M22.676,16.413c0-2.325-1.179-3.504-3.504-3.504s-3.505,1.179-3.505,3.504c0,1.17,.299,2.049,.892,2.635v2.796c0,.492,.299,.918,.761,1.086,.466,.168,.966,.033,1.282-.347l.45-.542c.084-.099,.159-.094,.239,0l.452,.543c.225,.271,.547,.417,.881,.417,.133,0,.267-.023,.398-.071,.463-.167,.762-.594,.762-1.086v-2.82c.696-.701,.892-1.705,.892-2.611Z"/>
</svg>
