<svg id="Layer_1" viewBox="0 0 24 24" xmlns="http://www.w3.org/2000/svg" data-name="Layer 1"><path d="m22.832 16.055c-1.085 1.628-2.244 2.489-2.293 2.525-.141.104-.306.168-.479.188-.925.105-4.13.193-6.568.222l.008 2.505c.002.829-.667 1.502-1.495 1.505h-.005c-.826 0-1.498-.668-1.5-1.495l-.008-2.514c-3.818-.042-8.05-.221-8.098-.223-.384-.016-.726-.252-.877-.605-.021-.049-.517-1.224-.517-2.663 0-1.428.45-2.448.502-2.559.153-.333.477-.556.843-.58.048-.003 4.319-.281 8.155-.347v-2.024c-2.436-.029-5.636-.118-6.56-.222-.173-.02-.339-.084-.479-.188-.049-.036-1.207-.897-2.292-2.525-.224-.336-.224-.773 0-1.109 1.085-1.628 2.244-2.489 2.292-2.525.141-.104.307-.168.48-.188.925-.104 4.121-.193 6.556-.222l.004-.521c.006-.825.677-1.489 1.5-1.489h.011c.829.006 1.495.683 1.489 1.511l-.004.503c3.837.065 8.111.344 8.159.347.366.024.689.247.843.58.052.111.502 1.131.502 2.559 0 1.438-.496 2.613-.517 2.663-.151.354-.493.589-.877.605-.048.002-4.287.181-8.106.223v2.019c2.435.029 5.634.117 6.559.222.174.02.339.084.48.188.049.036 1.208.897 2.293 2.525.224.336.224.773 0 1.109z"/></svg>