<svg id="Layer_1" viewBox="0 0 24 24" xmlns="http://www.w3.org/2000/svg" data-name="Layer 1"><path d="m21.977 2.785c-.083-.381-.381-.679-.762-.762-.19-.042-4.713-1.023-9.214-1.023s-9.025.981-9.215 1.023c-.381.083-.679.381-.762.762-.042.19-1.023 4.714-1.023 9.215s.981 9.024 1.023 9.215c.083.381.381.679.762.762.19.042 4.713 1.023 9.214 1.023s9.024-.981 9.214-1.023c.381-.083.679-.381.762-.762.042-.19 1.023-4.714 1.023-9.215s-.981-9.024-1.023-9.215zm-9.977 16.215c-4.841 0-7-2.159-7-7s2.159-7 7-7 7 2.159 7 7-2.159 7-7 7zm0-12c-3.738 0-5 1.262-5 5s1.262 5 5 5 5-1.262 5-5-1.262-5-5-5zm0 6.5c-.828 0-1.5-.672-1.5-1.5s.672-1.5 1.5-1.5 1.5.672 1.5 1.5-.672 1.5-1.5 1.5z"/></svg>