<?xml version="1.0" encoding="UTF-8"?>
<svg xmlns="http://www.w3.org/2000/svg" id="Layer_1" data-name="Layer 1" viewBox="0 0 24 24">
  <circle cx="12" cy="14.163" r="2.276"/>
  <path d="M16.032,4.313V1.245c-1.206-.14-2.588-.245-4.032-.245-1.436,0-2.808,.1-4.032,.243v3.085c.532,.204,1.743,.533,4.032,.533,2.237,0,3.464-.329,4.032-.548Z"/>
  <path d="M22.42,5.553c-.036-.2-.133-.385-.277-.529l-3.14-3.141c-.144-.145-.329-.241-.53-.277-.14-.025-.288-.051-.441-.077v3.396c0,.302-.137,.588-.372,.778-.239,.193-1.638,1.158-5.66,1.158-4.124,0-5.462-.985-5.689-1.183-.218-.19-.343-.465-.343-.754V1.528c-1.811,.305-2.997,.634-3.088,.659-.329,.093-.588,.347-.687,.674-.049,.161-1.193,4.007-1.193,9.139,0,5.175,1.146,8.982,1.194,9.142,.1,.326,.358,.578,.686,.671,.172,.048,4.272,1.188,9.121,1.188s8.948-1.14,9.12-1.188c.329-.093,.588-.347,.687-.674,.049-.161,1.193-4.007,1.193-9.139,0-2.146-.195-4.314-.58-6.447Zm-10.42,12.887c-2.837,0-4.276-1.438-4.276-4.276s1.438-4.276,4.276-4.276,4.276,1.438,4.276,4.276-1.438,4.276-4.276,4.276Z"/>
</svg>
