<svg id="Layer_1" viewBox="0 0 24 24" xmlns="http://www.w3.org/2000/svg" data-name="Layer 1"><path d="m21.929 2.628c-.109-.273-.333-.484-.612-.577-.129-.043-3.225-1.051-9.316-1.051s-9.189 1.008-9.317 1.051c-.279.093-.503.304-.612.577-.044.109-1.071 2.727-1.071 6.872s1.027 6.762 1.071 6.872c.109.273.333.484.612.577.118.039 2.721.882 7.817 1.028v2.023s-1.999 0-1.999 0c-.828 0-1.5.671-1.5 1.5s.672 1.5 1.5 1.5h7c.828 0 1.5-.671 1.5-1.5s-.672-1.5-1.5-1.5h-2v-2.023c5.094-.145 7.698-.989 7.816-1.028.279-.093.503-.304.612-.577.044-.109 1.071-2.727 1.071-6.872s-1.027-6.762-1.071-6.872zm-6.928 7.872h-2v2c0 .552-.447 1-1 1s-1-.448-1-1v-2h-2c-.553 0-1-.448-1-1s.447-1 1-1h2v-2c0-.552.447-1 1-1s1 .448 1 1v2h2c.553 0 1 .448 1 1s-.447 1-1 1z"/></svg>