<?xml version="1.0" encoding="UTF-8"?>
<svg xmlns="http://www.w3.org/2000/svg" id="Layer_1" data-name="Layer 1" viewBox="0 0 24 24">
  <path d="M21.797,2.601c-.126-.33-.419-.577-.78-.659-.17-.039-4.224-.942-9.017-.942S3.154,1.904,2.983,1.942c-.362,.082-.656,.331-.781,.662-.049,.13-1.202,3.241-1.202,7.378,0,4.172,1.155,7.252,1.203,7.382,.126,.33,.419,.577,.78,.659,.152,.034,3.406,.76,7.517,.914v1.021c-.858-.047-1.728-.134-2.633-.261-.828-.119-1.578,.457-1.694,1.277-.115,.82,.456,1.579,1.276,1.694,1.574,.221,3.105,.333,4.551,.333s2.978-.112,4.551-.333c.82-.115,1.392-.874,1.276-1.694s-.863-1.387-1.694-1.276c-.904,.127-1.775,.214-2.633,.261v-1.021c4.103-.154,7.364-.879,7.517-.913,.362-.082,.656-.331,.781-.662,.049-.13,1.202-3.241,1.202-7.378,0-4.172-1.155-7.252-1.203-7.382ZM10.338,12.541c.468,.293,.588,.969,.316,1.378-.501,.757-1.214,.42-1.379,.317-2.424-1.519-3.625-3.604-3.676-3.691-.173-.306-.173-.681,0-.987,.051-.088,1.252-2.173,3.676-3.691,.467-.293,1.084-.151,1.379,.317,.293,.468,.151,1.085-.316,1.378-1.327,.831-2.219,1.882-2.665,2.49,.445,.607,1.337,1.659,2.665,2.49Zm8.062-1.996c-.051,.088-1.252,2.173-3.676,3.691-.165,.103-.878,.44-1.379-.317-.271-.41-.151-1.085,.316-1.378,1.328-.831,2.22-1.883,2.665-2.49-.446-.608-1.338-1.659-2.665-2.49-.468-.293-.609-.91-.316-1.378,.295-.468,.912-.61,1.379-.317,2.424,1.519,3.625,3.604,3.676,3.691,.173,.306,.173,.681,0,.987Z"/>
</svg>
