<svg id="Layer_1" viewBox="0 0 24 24" xmlns="http://www.w3.org/2000/svg" data-name="Layer 1"><path d="m19.469 8.197c.022.084.531 2.097.531 3.803s-.509 3.719-.531 3.803c-.1.39-.424.683-.822.742-.125.019-3.113.455-6.646.455s-6.521-.437-6.646-.455c-.398-.059-.723-.352-.822-.742-.022-.084-.531-2.097-.531-3.803s.509-3.719.531-3.803c.1-.39.424-.683.822-.742.125-.019 3.113-.455 6.646-.455s6.521.437 6.646.455c.398.059.723.352.822.742zm-16.971-2.548c.467-.022 4.229-.635 9.502-.649 4.936 0 9.237.627 9.28.633.816.115 1.582-.445 1.703-1.265s-.444-1.582-1.264-1.703c-.184-.027-4.554-.666-9.72-.666s-9.535.639-9.719.667c-.819.122-1.385.884-1.264 1.704.11.745.751 1.28 1.482 1.28zm20.485 13.981c-.121-.82-.887-1.383-1.703-1.264-.043.006-4.333.633-9.28.633s-9.238-.627-9.281-.633c-.821-.121-1.582.445-1.703 1.265s.445 1.582 1.264 1.703c.184.027 4.553.666 9.72.666s9.536-.638 9.72-.666c.819-.122 1.386-.884 1.264-1.704z"/></svg>