<svg id="Layer_1" viewBox="0 0 24 24" xmlns="http://www.w3.org/2000/svg" data-name="Layer 1"><path d="m12 13.5c-3.726 0-5.901 1.312-6 8.022-.013.821-.682 1.478-1.5 1.478h-.022c-.828-.012-1.489-.694-1.478-1.522.075-5.111 1.166-10.978 9-10.978 3.726 0 5.901-1.312 6-8.022.013-.821.682-1.478 1.5-1.478h.022c.828.012 1.489.694 1.478 1.522-.075 5.111-1.166 10.978-9 10.978zm-6.454-3.5c.613.015 1.229-.432 1.411-1h6.543c.828 0 1.5-.671 1.5-1.5s-.672-1.5-1.5-1.5h-7.169c-.121-.6-.213-1.259-.268-2h8.437c.828 0 1.5-.671 1.5-1.5s-.672-1.5-1.5-1.5h-10c-.813-.016-1.529.708-1.5 1.522.041 2.802.428 4.962 1.182 6.604.253.55.796.875 1.364.875zm12.283 4.136c-.384.176-.656.495-.786.863h-6.543c-.828 0-1.5.671-1.5 1.5s.672 1.5 1.5 1.5h7.169c.121.6.213 1.259.268 2h-8.437c-.828 0-1.5.671-1.5 1.5s.672 1.5 1.5 1.5h10c.813.016 1.529-.708 1.5-1.522-.041-2.802-.428-4.962-1.182-6.604-.346-.752-1.232-1.081-1.989-.737z"/></svg>