<svg id="Layer_1" viewBox="0 0 24 24" xmlns="http://www.w3.org/2000/svg" data-name="Layer 1"><path d="m21.883 8.964c-.612.037-1.217.061-1.795.061-2.923 0-5.258-.402-5.381-.424-.399-.07-.716-.374-.804-.771-.021-.097-.505-2.392-.376-6.784-.523-.028-1.035-.047-1.527-.047-2.401 0-5.187.34-8.197 1.008-.399.089-.719.407-.804.806-.661 3.093-.999 6.215-.999 9.185s.338 6.092 1 9.185c.085.399.405.718.804.806 3.01.668 5.796 1.008 8.196 1.008s5.186-.34 8.196-1.008c.399-.088.719-.407.804-.806.661-3.093.999-6.216.999-9.185 0-.968-.046-2.005-.117-3.036zm-17.231 8.338c.084 1.047.242 1.696.244 1.705.105.429-.155.862-.583.969-.417.109-.863-.15-.97-.581-.014-.056-.344-1.396-.344-3.392 0-1.725.244-2.961.322-3.3.098-.423.257-.647.74-.696.025-.003.768 0 .768 0 .784 0 3.17 0 3.17 2.697 0 2.6-2.556 2.599-3.348 2.599zm7.704 2.695c-.437.023-.817-.318-.837-.761-.009-.185-.036-.355-.052-.535h-1.816c-.016.18-.043.35-.052.535-.021.442-.427.798-.837.761-.441-.021-.782-.396-.761-.837.183-3.829 1.799-6.643 1.867-6.761.144-.245.407-.396.691-.396s.548.151.691.397c.068.117 1.684 2.931 1.866 6.76.021.441-.319.816-.761.837zm3.032-.934c.072.436-.223.848-.658.92-.426.073-.849-.22-.92-.657-.009-.052-.21-1.283-.21-3.323s.201-3.287.21-3.339c.071-.436.479-.731.918-.659.436.071.731.482.66.918 0 .012-.188 1.185-.188 3.08s.187 3.049.188 3.061zm2.636.935c-.663 0-1.217-.143-1.278-.158-.312-.084-.544-.348-.587-.668-.007-.049-.159-1.223-.159-3.172s.152-3.136.159-3.186c.043-.331.287-.6.611-.676.061-.014.604-.136 1.254-.136 2.976 0 2.976 2.904 2.976 3.997s0 3.998-2.976 3.998zm-2.276-13.265c-.122-.895-.293-2.691-.232-5.326.137.082.268.174.383.287 1.191 1.167 4.157 4.074 5.347 5.255.015.015.027.033.042.049-2.329.099-4.478-.124-5.54-.265zm-9.348 7.97c-.019.698-.352 1.087-1.798.997.017-.893.104-1.621.179-2.095 1.57 0 1.638.437 1.619 1.098zm13 1.297c0 2.398-.699 2.398-1.376 2.398-.117 0-.231-.007-.336-.018-.041-.506-.089-1.324-.089-2.381 0-1.05.048-1.871.088-2.383.105-.009.22-.015.337-.015.677 0 1.376 0 1.376 2.397zm-8.841-1.265c.24.632.487 1.448.676 2.366h-1.353c.19-.919.437-1.734.677-2.366z"/></svg>