<svg id="Layer_1" viewBox="0 0 24 24" xmlns="http://www.w3.org/2000/svg" data-name="Layer 1"><path d="m14.748 6.733c-.122-.895-.293-2.691-.232-5.326.137.082.268.174.383.287 1.191 1.167 4.157 4.074 5.347 5.255.015.015.027.033.042.049-2.329.099-4.478-.124-5.54-.265zm8.252 10.267c0 4.149-1.851 6-6 6s-6-1.851-6-6 1.851-6 6-6 6 1.851 6 6zm-4.586 0 .707-.707c.391-.391.391-1.023 0-1.414s-1.023-.391-1.414 0l-.707.707-.707-.707c-.391-.391-1.023-.391-1.414 0s-.391 1.023 0 1.414l.707.707-.707.707c-.391.391-.391 1.023 0 1.414s1.023.391 1.414 0l.707-.707.707.707c.391.391 1.023.391 1.414 0s.391-1.023 0-1.414zm-1.414-8c-1.832-.125-3.203-.383-3.293-.398-.399-.07-.716-.374-.804-.771-.021-.097-.505-2.392-.376-6.784-.523-.028-1.035-.047-1.527-.047-2.401 0-5.187.34-8.197 1.008-.399.089-.719.407-.804.806-.661 3.093-.999 6.215-.999 9.185s.338 6.092 1 9.185c.085.399.405.718.804.806 3.048.672 5.829 1.018 8.273 1.005-1.37-1.346-2.077-3.357-2.077-5.997 0-5.233 2.767-8 8-8z"/></svg>