<svg id="Layer_1" viewBox="0 0 24 24" xmlns="http://www.w3.org/2000/svg" data-name="Layer 1"><path d="m12 9.677c1.182 1.253 3.285 2.827 6.6 3.272-.194.772-.42 1.429-.589 1.869-.024 3.095-.388 6.996-.404 7.093-.031.189-.13.361-.278.482-.075.062-.77.607-1.934.607-1.206 0-1.832-.591-1.899-.658-.129-.129-.21-.299-.228-.48 0-.011-.249-2.265-.463-4.335-.002 0-.004.001-.006.002-.292-.688-.798-2.15-.798-3.433v-4.419zm10.707-3.384c-.894-.894-2.039-1.17-2.696-1.255-.362-.412-1.039-1.05-2.011-1.534v-1.67c0-.566-.568-.988-1.095-.781-.902.354-2.229 1.425-2.71 3.431-.659.768-1.101 1.437-1.446 2.173-4.653-2.582-5.951-4.91-5.966-4.935-.426-.705-1.348-.933-2.055-.51-.709.425-.94 1.349-.514 2.059.067.111 1.154 2.16 4.992 4.729h-.706c-1.655-.11-3.094.307-4.2 1.111-.388-.487-.352-1.135-.318-1.38.126-.812-.425-1.576-1.237-1.71-.816-.138-1.59.417-1.725 1.235-.174 1.054-.005 2.988 1.423 4.261-.351.878-.516 1.882-.443 2.984 0 3.138.39 7.31.406 7.411.031.189.13.361.278.482.075.062.77.607 1.934.607 1.206 0 1.832-.591 1.899-.658.129-.129.21-.299.228-.48 0-.011.249-2.264.463-4.334.634.241 1.53.473 2.792.473.294 0 .565-.015.821-.037-.326-.837-.821-2.35-.821-3.867v-6.096h1.5c.5 0 .933-.605 1.043-.884 0 0 0-.001.001-.002 0 .001-.001.003-.002.004.104.191 1.881 3.339 6.509 3.879 1.704-.088 2.799-.559 2.854-.583.212-.094.385-.259.489-.467.062-.124.605-1.26.605-2.947 0-.265-.105-.52-.293-.707z"/></svg>