<svg id="Layer_1" viewBox="0 0 24 24" xmlns="http://www.w3.org/2000/svg" data-name="Layer 1"><path d="m22 19.201v.799c0 1.654-1.346 3-3 3s-3-1.346-3-3v-.046c-.629.028-1.294.046-2 .046-.684 0-1.352-.024-2-.061v.061c0 1.654-1.346 3-3 3s-3-1.346-3-3v-.852c-.51-.106-.82-.182-.864-.193-.537-.134-.957-.554-1.091-1.091-.043-.17-1.045-4.227-1.045-8.364 0-2.257.153-4.196.293-5.5h-.793c-.828 0-1.5-.671-1.5-1.5s.672-1.5 1.5-1.5h2.5c.44 0 .859.194 1.144.53s.408.781.336 1.216c-.005.029-.479 2.939-.479 6.754 0 2.677.477 5.381.756 6.739 1.387.28 4.214.761 7.244.761 4.247 0 7.13-.659 7.158-.666.8-.189 1.612.312 1.802 1.119.176.751-.249 1.495-.96 1.748zm-12.908-4.457c.097.01 2.395.256 5.908.256s5.812-.246 5.908-.256c.442-.048.8-.383.877-.821.009-.05.215-1.238.215-2.423s-.206-2.373-.215-2.423c-.077-.438-.435-.773-.877-.821-.097-.01-2.395-.256-5.908-.256s-5.812.246-5.908.256c-.442.048-.8.383-.877.821-.009.05-.215 1.238-.215 2.423s.206 2.373.215 2.423c.077.438.435.773.877.821zm7.893-7.968c.042.009 1.028.224 2.015.224s1.973-.214 2.015-.224c.381-.083.678-.381.762-.762.009-.042.224-1.029.224-2.015s-.215-1.973-.224-2.015c-.084-.381-.381-.678-.762-.762-.042-.009-1.028-.224-2.015-.224s-1.973.214-2.015.224c-.381.083-.678.381-.762.762-.009.042-.224 1.029-.224 2.015s.215 1.973.224 2.015c.084.381.381.678.762.762zm-7.908.009c.05.009 1.238.215 2.423.215s2.373-.207 2.423-.215c.381-.067.689-.347.792-.72.011-.042.285-1.053.285-2.064s-.274-2.022-.285-2.064c-.103-.373-.411-.653-.792-.72-.05-.009-1.238-.215-2.423-.215s-2.373.207-2.423.215c-.381.067-.689.347-.792.72-.011.042-.285 1.053-.285 2.064s.274 2.022.285 2.064c.103.373.411.653.792.72z"/></svg>