<?xml version="1.0" encoding="UTF-8"?>
<svg xmlns="http://www.w3.org/2000/svg" id="Layer_1" data-name="Layer 1" viewBox="0 0 24 24">
  <path d="M17.97,15.532c-.054-2.959-2.726-5.389-5.959-5.417-.708-.005-1.369-.281-1.816-.756-.364-.388-.55-.875-.522-1.365,.074-1.27,1.187-2.43,2.321-2.435,.92,.004,1.872,.784,2.213,1.814,.26,.786,1.107,1.209,1.896,.952,.786-.261,1.212-1.109,.952-1.896-.578-1.745-1.94-3.089-3.554-3.621v-.307c0-.829-.671-1.5-1.5-1.5s-1.5,.671-1.5,1.5v.308c-2.059,.687-3.687,2.707-3.823,5.014-.074,1.323,.399,2.598,1.331,3.59,1.006,1.071,2.458,1.692,3.979,1.703,1.593,.014,2.959,1.145,2.983,2.464,.009,.636-.312,1.349-.858,1.907-.588,.601-1.363,.949-2.1,.956-.762-.006-1.537-.354-2.125-.956-.546-.558-.867-1.271-.858-1.907,.011-.828-.651-1.509-1.48-1.52-.855-.047-1.509,.651-1.52,1.48-.019,1.438,.605,2.912,1.714,4.045,.772,.789,1.729,1.354,2.756,1.641v.275c0,.829,.671,1.5,1.5,1.5s1.5-.671,1.5-1.5v-.273c1.022-.287,1.982-.852,2.756-1.643,1.108-1.133,1.733-2.607,1.713-4.052Z"/>
</svg>
