<svg id="Layer_1" viewBox="0 0 24 24" xmlns="http://www.w3.org/2000/svg" data-name="Layer 1"><path d="m21 6.473c-.009-3.733-1.757-5.473-5.5-5.473-2.253 0-5.226.179-7.063.673-2.655-.774-4.971-.734-6.503-.631-.35.023-.662.229-.822.54s-.146.685.038.983c.7 1.135 1.384 2.07 2.165 2.953-.883 1.628-1.313 3.759-1.313 6.481 0 3.288 1.247 5.373 1.902 6.242-1.793.461-2.697 1.635-2.899 3.767-.053.557.426 1.042.983.987 3.273-.324 3.902-2.178 4.013-2.853.111.675.741 2.53 4.013 2.853.557.055 1.036-.429.983-.987-.236-2.48-1.413-3.671-3.847-3.939.397-2.939 1.595-4.669 3.985-5.488.665 1.092 1.693 1.806 2.303 2.244.291.197.663.228.981.081.318-.146.537-.449.575-.798.064-.571.108-1.25.017-2.1.163-.003.32-.01.489-.01 4.145 0 6.762-1.027 6.872-1.071.379-.152.628-.52.628-.929v-.698c0-1.24-.848-2.394-2-2.829zm-4.5 2.527c-.828 0-1.5-.672-1.5-1.5s.672-1.5 1.5-1.5 1.5.672 1.5 1.5-.672 1.5-1.5 1.5z"/></svg>