<svg id="Layer_1" viewBox="0 0 24 24" xmlns="http://www.w3.org/2000/svg" data-name="Layer 1"><path d="m12 23c-.188 0-.375-.053-.539-.157-3.673-2.351-6.801-5.479-9.298-9.295-.362-.524-.088-1.311.521-1.497.066-.021 1.526-.499 4.369-.803-.035-.709-.054-1.378-.054-1.998 0-3.256.489-6.743.51-6.891.048-.338.266-.628.576-.77.133-.061 1.37-.59 3.914-.59s3.781.529 3.914.59c.311.142.528.432.576.77.021.147.51 3.635.51 6.891 0 .62-.019 1.289-.054 1.998 2.843.304 4.303.781 4.369.803.61.186.884.973.521 1.497-2.498 3.818-5.626 6.945-9.298 9.295-.164.104-.352.157-.539.157z"/></svg>