<?xml version="1.0" encoding="UTF-8"?>
<svg xmlns="http://www.w3.org/2000/svg" id="Layer_1" data-name="Layer 1" viewBox="0 0 24 24">
  <path d="M22.575,1.658c-.577-.593-1.527-.606-2.121-.029l-3.14,3.053c-1.182-.728-2.364-1.038-2.43-1.055-.42-.106-.865,.069-1.096,.438-2.047,3.274-1.521,6.649-1.494,6.791,.107,.573,.574,.791,.866,.829,2.1,.271,4.79-.128,6.916-1.457,.384-.24,.569-.699,.443-1.134-.018-.063-.347-1.174-1.07-2.304l3.097-3.011c.594-.577,.607-1.527,.029-2.121Z"/>
  <path d="M1.424,22.341c.577,.593,1.527,.606,2.121,.029l3.14-3.053c1.182,.728,2.364,1.038,2.43,1.055,.42,.106,.865-.069,1.096-.438,2.047-3.274,1.521-6.649,1.494-6.791-.107-.573-.574-.791-.866-.829-2.1-.271-4.79,.128-6.916,1.457-.384,.24-.569,.699-.443,1.134,.018,.063,.347,1.174,1.07,2.304l-3.097,3.011c-.594,.577-.607,1.527-.029,2.121Z"/>
</svg>
