<svg id="Layer_1" viewBox="0 0 24 24" xmlns="http://www.w3.org/2000/svg" data-name="Layer 1"><path d="m8.04 17.743c.01.797.287 1.55.75 2.161l-.594.698c-.824.834-1.862 1.292-2.972 1.342l-1.286.057c-.511.034-.972-.426-.939-.938l.055-1.294c.049-1.114.504-2.156 1.278-2.936l12.029-14.025c1.003-1.066 2.853-1.062 3.85-.041 1.047 1.053 1.051 2.763.011 3.812l-5.625 6.533c-2.208.252-3.389.665-4.327 1.108-1.381.63-2.251 1.996-2.23 3.523zm-6.637-4.174c-.71.987-.46 2.432.589 3.068.248-.413.527-.808.867-1.159l8.231-9.592c-3.654 1.215-6.902 3.774-9.687 7.683zm21.405-7.638c-.2.728-.556 1.42-1.11 1.998l-4.34 5.04c.553 0 1.068.446 1.068.999s-.447 1-1 1c-3.401 0-5.117.539-6.117.97-.758.295-1.292.943-1.27 1.777.005.788.579 1.429 1.327 1.619.01.004 2.094.655 4.657.655 2.796 0 6.172-.509 6.172-.509.467-.093.804-.504.804-.98v-12c0-.213-.076-.405-.192-.569z"/></svg>