<?xml version="1.0" encoding="UTF-8"?>
<svg xmlns="http://www.w3.org/2000/svg" id="Layer_1" data-name="Layer 1" viewBox="0 0 24 24">
  <path d="M9.269,14.75c-.497,.119-1.011,.181-1.533,.181-1.756,0-3.416-.696-4.672-1.958l-.938-.943c-.942,1.699-1.281,3.696-.913,5.655l.411,2.189c.247,1.312,1.25,2.32,2.556,2.567l2.177,.412c.518,.099,1.039,.147,1.557,.147,1.428,0,2.828-.368,4.068-1.061l-.938-.942c-1.683-1.692-2.274-4.071-1.774-6.246Z"/>
  <path d="M22.49,1.436c-.588-.583-1.537-.581-2.121,.006l-4.783,4.811c-1.397-1.143-3.008-2.042-4.769-2.63-.358-.118-.754-.027-1.02,.241,0,0-6.42,6.459-6.49,6.535l1.166,1.172c.881,.885,2.04,1.372,3.264,1.372s2.393-.49,3.278-1.38c.002-.002,.004-.003,.005-.005,.008-.008,.016-.017,.024-.025l2.212-2.223c.387-.389,1.015-.391,1.404-.004,.389,.387,.391,1.016,.004,1.405l-2.212,2.224c-1.826,1.835-1.826,4.822,0,6.658l1.154,1.159c.077-.072,6.506-6.532,6.506-6.532,.263-.264,.356-.653,.241-1.007-.578-1.782-1.482-3.418-2.645-4.84l4.789-4.817c.584-.587,.582-1.537-.006-2.122Z"/>
</svg>
