<svg id="Layer_1" viewBox="0 0 24 24" xmlns="http://www.w3.org/2000/svg" data-name="Layer 1"><path d="m14.354 16.475c-1.258-1.257-3.449-1.257-4.707 0l-2.086 2.086c-.586.586-1.535.586-2.121 0-.586-.585-.586-1.536 0-2.121l2.086-2.086c.628-.629.975-1.464.975-2.354s-.346-1.725-.975-2.354l-2.086-2.086c-.586-.585-.586-1.536 0-2.121.586-.586 1.535-.586 2.121 0l2.086 2.086c1.258 1.257 3.449 1.257 4.707 0l2.086-2.086c.586-.586 1.535-.586 2.121 0 .586.585.586 1.536 0 2.121l-2.086 2.086c-.628.629-.975 1.464-.975 2.354s.346 1.725.975 2.354l2.086 2.086c.586.585.586 1.536 0 2.121-.586.586-1.535.586-2.121 0zm-8.354-5.475c.017 0 .031-.003.048-.003l-2.023-2.023c-.661-.66-1.025-1.54-1.025-2.475s.364-1.814 1.026-2.476c1.363-1.363 3.584-1.365 4.949 0l2.023 2.023c0-.017.003-.031.003-.048 0-3.458-1.542-5-5-5s-5.001 1.544-5.001 5.002 1.542 5 5 5zm9.025-6.975c.66-.661 1.54-1.025 2.475-1.025s1.814.364 2.476 1.026c1.363 1.363 1.365 3.584 0 4.949l-2.023 2.023c.017 0 .031.003.048.003 3.458 0 5-1.542 5-5s-1.542-5-5-5-5 1.542-5 5c0 .017.003.031.003.048l2.023-2.023zm2.975 8.975c-.017 0-.031.003-.048.003l2.023 2.023c.661.66 1.025 1.54 1.025 2.475s-.364 1.814-1.026 2.476c-1.363 1.363-3.584 1.365-4.949 0l-2.023-2.023c0 .017-.003.031-.003.048 0 3.458 1.542 5 5 5s5-1.542 5-5-1.542-5-5-5zm-9.025 6.975c-.66.661-1.54 1.025-2.475 1.025s-1.814-.364-2.476-1.026c-1.363-1.363-1.365-3.584 0-4.949l2.023-2.023c-.017 0-.031-.003-.048-.003-3.458 0-5 1.542-5 5s1.542 5 5 5 5-1.542 5-5c0-.017-.003-.031-.003-.048l-2.023 2.023z"/></svg>