<svg id="Layer_1" viewBox="0 0 24 24" xmlns="http://www.w3.org/2000/svg" data-name="Layer 1"><path d="m22.982 15.355c-.192 6.714-5.639 7.645-10.982 7.645s-10.79-.931-10.982-7.645c3.04 3.642 8.685 3.645 10.982 3.645s7.942-.003 10.982-3.645zm-5.644-11.232c-1.491 3.134-1.909 4.124-1.333 5.4 1.227 1.906 4.716 1.49 4.75 1.486.574-.033 1.418-.126 2.101-.274.085-.537.144-1.104.144-1.736 0-4.103-1.89-6.133-4.537-7.118l-1.125 2.241zm-8.945-1.06c1.679 3.399 2.062 3.944 3.607 3.944s1.929-.545 3.607-3.944c.229-.462.624-1.265.863-1.719-1.418-.262-2.947-.344-4.471-.344-1.503 0-3.011.079-4.413.333l.805 1.73zm12.549 9.936c-.033.005-.438.058-1.041.058-1.512 0-4.278-.327-5.63-2.534-.314-.599-.463-1.227-.499-1.814-.499.196-1.073.299-1.772.299s-1.272-.103-1.772-.299c-.035.587-.185 1.216-.499 1.814-1.346 2.197-4.095 2.531-5.641 2.531-1.24-.049-1-.018-2.307-.198 1.71 3.557 5.994 4.144 10.218 4.144s8.493-.585 10.209-4.125c-.637.085-1.156.118-1.267.123zm-14.28-8.876c-.286-.598-.786-1.659-1.055-2.266-2.684.976-4.607 3.004-4.607 7.143 0 .595.053 1.131.129 1.642 1.135.354 1.939.342 2.116.368.033.002 3.514.436 4.75-1.486.576-1.276.158-2.266-1.333-5.4z"/></svg>