<svg id="Layer_1" viewBox="0 0 24 24" xmlns="http://www.w3.org/2000/svg" data-name="Layer 1"><path d="m11.444 16.92c-.245.497-.846.695-1.329.456-.999-.486-1.879-1.555-1.453-2.755.346-.845.561-1.161.896-1.957-.036-.005-.264-.196-.451-.291-.49-.249-.691-.847-.447-1.339s.834-.697 1.33-.456c.998.486 1.878 1.556 1.452 2.756-.345.845-.561 1.162-.896 1.957.036.005.264.195.451.29.49.249.692.847.447 1.339zm3.5-1.338c-.187-.095-.414-.286-.451-.289.336-.796.551-1.112.897-1.959.425-1.2-.455-2.269-1.452-2.755-.493-.24-1.085-.036-1.33.456s-.043 1.09.446 1.339c.188.095.415.286.452.29-.336.796-.551 1.112-.897 1.959-.425 1.2.455 2.269 1.453 2.755.483.239 1.084.041 1.329-.456.244-.492.043-1.09-.447-1.338zm6.056-3.582c0 6.102-1.078 9.206-1.124 9.335-.099.278-.315.498-.591.602-.116.043-2.888 1.063-7.285 1.063s-7.168-1.02-7.284-1.063c-.276-.104-.492-.324-.591-.602-.046-.129-1.125-3.232-1.125-9.335s1.079-9.206 1.125-9.335c.099-.278.315-.498.591-.602.116-.043 2.887-1.063 7.284-1.063s7.169 1.02 7.285 1.063c.275.104.492.324.591.602.046.129 1.124 3.233 1.124 9.335zm-11-6.5c0 .828.672 1.5 1.5 1.5s1.5-.672 1.5-1.5-.672-1.5-1.5-1.5-1.5.672-1.5 1.5zm-2.5 1.5c.828 0 1.5-.672 1.5-1.5s-.672-1.5-1.5-1.5-1.5.672-1.5 1.5.672 1.5 1.5 1.5zm9.5 7c0-3.411-1.589-5-5-5s-5 1.589-5 5 1.589 5 5 5 5-1.589 5-5z"/></svg>