<svg id="Layer_1" viewBox="0 0 24 24" xmlns="http://www.w3.org/2000/svg" data-name="Layer 1"><path d="m16 6.873c-.914.059-1.914.101-3 .117v-5.98c1.102.019 2.1.068 3 .135zm2-.167c2.749-.286 4.415-.698 4.974-.854-.067-1.814-.239-2.88-.251-2.951-.062-.367-.321-.669-.674-.785-.087-.029-1.434-.461-4.049-.779v5.368zm-10-5.561v5.728c.914.059 1.914.101 3 .117v-5.98c-1.102.019-2.1.068-3 .135zm4 7.855c-5.817 0-9.471-.71-10.996-1.085.01.707.04 1.478.095 2.306.28 4.18 1.261 5.995 1.303 6.113.09.254.279.461.523.574.242.112 2.551 1.092 9.074 1.092s8.832-.98 9.074-1.092c.244-.113.433-.32.522-.574.042-.118 1.024-1.933 1.305-6.113.055-.828.084-1.599.095-2.306-1.525.375-5.178 1.085-10.996 1.085zm-6-2.294v-5.368c-2.615.318-3.961.75-4.048.779-.354.116-.613.418-.674.785-.012.071-.184 1.137-.251 2.951.559.155 2.225.567 4.974.853zm-2 12.607v.687c0 1.654 1.346 3 3 3s3-1.346 3-3v-.034c-2.818-.093-4.74-.373-6-.654zm10 .653v.034c0 1.654 1.346 3 3 3s3-1.346 3-3v-.688c-1.26.281-3.183.561-6 .654z"/></svg>