<svg id="Layer_1" viewBox="0 0 24 24" xmlns="http://www.w3.org/2000/svg"><path d="m17 6c-4.149 0-6 1.851-6 6s1.851 6 6 6 6-1.851 6-6-1.851-6-6-6zm1.707 7.707c-.391.391-1.023.391-1.414 0l-1-1c-.188-.188-.293-.442-.293-.707v-2c0-.552.447-1 1-1s1 .448 1 1v1.586l.707.707c.391.391.391 1.023 0 1.414zm-9.708 1.474c.946.654 1.763 1.531 2.383 2.558-.778.175-1.499.276-2.367.262-.888.021-1.618-.086-2.4-.262.621-1.026 1.437-1.904 2.383-2.557zm7.671 4.799c-.626.956-2.565 3.02-7.67 3.02-6.498 0-7.876-3.352-7.932-3.495-.077-.198-.089-.416-.034-.621.992-3.701 2.427-5.606 3.933-6.884-1.504-1.276-2.939-3.182-3.933-6.884-.055-.206-.043-.423.034-.622.056-.143 1.434-3.495 7.932-3.495 5.09 0 7.033 2.052 7.665 3.011-5.012.119-7.665 2.87-7.665 7.989 0 .35.027.677.052 1.004-.189-.023-.383.033-.553.128-1.854 1.074-3.368 2.803-4.263 4.868-.116.267-.109.57.017.832s.36.456.64.531c1.436.388 2.558.657 4.124.636 1.547 0 2.741-.229 4.179-.682.989.402 2.145.629 3.475.662z"/></svg>