<svg id="Layer_1" viewBox="0 0 24 24" xmlns="http://www.w3.org/2000/svg" data-name="Layer 1"><path d="m9.561 14.439c-.586-.586-1.535-.586-2.121 0l-6.001 6c-.586.585-.586 1.536 0 2.121.586.586 1.535.586 2.121 0l6-6c.586-.585.586-1.536 0-2.121z"/><path d="m12.505 11.084c-.782.274-1.194 1.129-.921 1.911.273.79 1.149 1.193 1.911.921 1.545-.541 2.505-2.041 2.505-3.916 0-2.617-1.383-4-4-4s-4 1.383-4 4v.5c0 .829.672 1.5 1.5 1.5s1.5-.671 1.5-1.5v-.5c0-.953.047-1 1-1s1 .047 1 1c0 .562-.189.977-.495 1.084z"/><path d="m22.561 1.439c-.586-.586-1.535-.586-2.121 0l-1.67 1.67c-1.473-1.431-3.7-2.109-6.77-2.109-6.225 0-9 2.776-9 9 0 .829.672 1.5 1.5 1.5s1.5-.671 1.5-1.5c0-4.598 1.402-6 6-6s6 1.402 6 6c0 3.272-1.097 4.346-2.757 5.971-.781.712-1.57 1.696-2.052 2.438-.837 1.208-1.148 1.59-2.142 1.59-.349 0-.651-.06-.873-.172-.738-.373-1.643-.077-2.016.663s-.077 1.642.662 2.015c.649.328 1.398.494 2.227.494 2.612 0 3.719-1.599 4.608-2.883.453-.695 1.048-1.42 1.685-2.002 1.798-1.761 3.657-3.582 3.657-8.115 0-1.666-.206-3.077-.617-4.262l2.177-2.177c.586-.585.586-1.536 0-2.121z"/></svg>