<svg id="Layer_1" viewBox="0 0 24 24" xmlns="http://www.w3.org/2000/svg" data-name="Layer 1"><path d="m22.3 15.999c.468.58.697 1.156.697 1.749 0 .736-.352 1.447-1.078 2.171-.284.285-.656.521-.964.69-.209 1.565-1.221 2.387-2.956 2.387-1.17 0-2.093-.437-2.599-1.232-.682-1.147-1.399-3.421-1.399-5.766 0-2.27.979-4.935 1.317-5.598.156-.336.399-.593.682-.81v-1.589c0-3.102-.897-3.999-3.999-3.999s-3.999.897-3.999 3.999v1.595c.288.222.535.487.698.837.322.631 1.301 3.296 1.301 5.566 0 2.345-.717 4.618-1.384 5.739-.521.821-1.444 1.258-2.615 1.258-1.736 0-2.747-.822-2.956-2.388-.308-.168-.679-.404-.964-.689-.725-.724-1.077-1.435-1.077-2.171 0-.593.228-1.169.696-1.749-.468-.58-.696-1.156-.696-1.749 0-.736.352-1.447 1.077-2.172.285-.285.657-.521.964-.689.165-1.233.835-1.997 1.957-2.269v-1.118c0-4.774 2.223-6.997 6.997-6.997s6.997 2.223 6.997 6.997v1.118c1.122.272 1.792 1.036 1.957 2.269.308.168.679.404.964.689.725.725 1.078 1.436 1.078 2.172 0 .593-.228 1.17-.697 1.749z"/></svg>