<svg id="Layer_1" viewBox="0 0 24 24" xmlns="http://www.w3.org/2000/svg" data-name="Layer 1"><path d="m12 1c-7.71 0-11 3.29-11 11s3.29 11 11 11 11-3.29 11-11-3.29-11-11-11zm5.385 9h-1.885l.993.993c.325.325.507.765.507 1.224v.86c0 .615-.256 1.615-1.205 3.333-.826 1.496-1.769 2.615-2.795 2.615-.615 0-1.18-1.026-1.41-1.872-.231-.846-.451-1.598-.451-1.598-.082-.327-.375-.556-.712-.556h-1.427c-1.105 0-2-.895-2-2v-.538c0-1.051.59-1.744 1.333-2.333.744-.59 1.641-1.128 2.974-1.128h1.865c.457 0 .827-.37.827-.827v-.831c0-.219-.087-.43-.242-.585l-.801-.801c-.268-.268-.685-.32-1.01-.124 0 0-.716.347-1.536.758-.82.41-1.603.41-1.603.41-.446 0-.808-.362-.808-.808v-.826c0-.233-.101-.454-.276-.608l-.938-.888c1.33-.596 3.041-.871 5.214-.871 5.205 0 7.809 1.545 8.666 5.456-1.195 1.035-2.23 1.544-3.281 1.544z"/></svg>