<?xml version="1.0" encoding="UTF-8"?>
<svg xmlns="http://www.w3.org/2000/svg" id="Layer_1" data-name="Layer 1" viewBox="0 0 24 24">
  <path d="M17.229,17.781c-3.884,0-5.772-1.891-5.772-5.781s1.888-5.781,5.772-5.781,5.771,1.891,5.771,5.781-1.888,5.781-5.771,5.781Z"/>
  <path d="M9.458,12c0-2.892,.917-5.034,2.653-6.331v-1.799c0-.828-.671-1.499-1.499-1.499s-1.499,.671-1.499,1.499v1.217c-.977,.122-1.821,.371-2.535,.749l-.643-.644c-.586-.586-1.534-.587-2.12-.002-.586,.585-.586,1.534-.002,2.12l.646,.647c-.378,.716-.627,1.563-.749,2.544h-1.212c-.828,0-1.499,.671-1.499,1.499s.671,1.499,1.499,1.499h1.212c.122,.981,.371,1.828,.749,2.544l-.646,.647c-.585,.586-.584,1.535,.002,2.12,.293,.292,.675,.438,1.059,.438s.768-.147,1.061-.44l.642-.644c.714,.378,1.558,.627,2.535,.749v1.217c0,.828,.671,1.499,1.499,1.499s1.499-.671,1.499-1.499v-1.799c-1.736-1.297-2.653-3.439-2.653-6.331Z"/>
</svg>
