<?xml version="1.0" encoding="UTF-8"?>
<svg xmlns="http://www.w3.org/2000/svg" id="Layer_1" data-name="Layer 1" viewBox="0 0 24 24">
  <path d="M18.312,4.814c-1.906-2.382-4.333-3.844-6.313-3.814-4.129,.061-9.539,6.363-9.627,13.012,.131,5.46,3.916,8.988,9.642,8.988s9.482-3.528,9.614-8.988c0-.013,0-.025,0-.038-.047-3.292-1.225-6.545-3.316-9.16Zm-4.079,3.671c-.841,0-1.522-.682-1.522-1.522s.682-1.522,1.522-1.522,1.522,.682,1.522,1.522-.682,1.522-1.522,1.522Zm2.61,4.244c-.841,0-1.522-.681-1.522-1.522s.681-1.522,1.522-1.522,1.522,.681,1.522,1.522-.681,1.522-1.522,1.522Z"/>
</svg>
