<svg id="Layer_1" viewBox="0 0 24 24" xmlns="http://www.w3.org/2000/svg" data-name="Layer 1"><path d="m23 19.5c0 2.257-1.243 3.5-3.5 3.5s-3.5-1.243-3.5-3.5v-.504l-1.086-.002c-.197 1.941-.384 2.904-.414 3-.05.177-.471 1.005-2.128 1.005-1.791.102-2.443-1.216-2.317-1.386 0-.019-.094-.843-.182-2.298-.867.201-1.893.198-2.76-.002-.089 1.455-.07 2.276-.071 2.278-.05.325-.271 1.239-2.26 1.401-1.67.09-2.074-.639-2.188-1.002-.041-.131-.459-1.522-.657-4.685-.334-1.288-.937-6.142-.937-7.312 0-3.381 1.103-5.454 3.399-6.392-.259.857-.399 1.82-.399 2.899 0 4.665 2.484 7.318 7 7.5.552 0 1-.448 1-1s-.448-1-1-1c-3.392-.159-5-1.926-5-5.5 0-1.444.265-2.585.798-3.45.977-1.606 2.918-2.053 4.702-2.05 2.491-.071 4.595 1 5.249 3.369-.793-.222-1.697-.347-2.73-.366-.575.009-1.008.43-1.019.981-.01.552.43 1.008.981 1.019 3.705.069 5.019 1.455 5.019 5.297v8.2c0 .244.023.386.042.458.072.018.214.042.458.042s.386-.023.458-.042c.019-.073.042-.215.042-.458 0-.829.672-1.5 1.5-1.5s1.5.671 1.5 1.5z"/></svg>