<svg id="Layer_1" viewBox="0 0 24 24" xmlns="http://www.w3.org/2000/svg" data-name="Layer 1"><path d="m10.651 22.612c.053.138.129.261.2.388h-8.844c-.27 0-.528-.109-.717-.303-.188-.193-.29-.455-.283-.724.149-5.514 2.766-7.973 8.486-7.973.466 0 .904.023 1.329.056-.379.776-.743 1.735-.823 4.444 0 2.3.542 3.827.651 4.112zm-1.157-10.612c3.752 0 5.5-1.748 5.5-5.5s-1.748-5.5-5.5-5.5-5.5 1.748-5.5 5.5 1.748 5.5 5.5 5.5zm13.469 5.588c-.113-1.498-.462-2.435-.48-2.481-.106-.275-.328-.489-.606-.585-.04-.014-.682-.227-1.891-.377-.034-.715-.163-1.188-.18-1.245-.086-.28-.29-.508-.559-.624-.107-.046-.693-.277-1.747-.277s-1.64.231-1.747.277c-.269.116-.473.344-.559.624-.017.056-.146.53-.18 1.245-1.209.15-1.851.363-1.891.377-.278.096-.5.31-.606.585-.018.046-.367.983-.48 2.481.998-.252 2.816-.588 5.463-.588s4.465.335 5.463.588zm-5.463 2.412c-.544 0-.982-.436-.995-.977-2.473.09-3.961.482-4.446.635.13 1.353.442 2.192.458 2.235.106.275.328.489.606.585.062.021 1.541.522 4.376.522s4.315-.5 4.376-.522c.278-.096.5-.31.606-.585.017-.043.328-.883.458-2.235-.481-.151-1.97-.544-4.446-.634-.013.541-.451.977-.995.977z"/></svg>