<svg id="Layer_1" viewBox="0 0 24 24" xmlns="http://www.w3.org/2000/svg"><path d="m22.492 3.877c-.036-.289-.195-.548-.438-.709-.179-.119-1.845-1.168-5.055-1.168-1.652 0-3.023.41-4 .827v16.173c0 .553-.448 1-1 1s-1-.447-1-1v-16.173c-.977-.417-2.348-.827-4-.827-3.21 0-4.875 1.049-5.055 1.168-.242.161-.402.42-.438.709-.021.166-.508 4.115-.508 7.123 0 2.114.175 4.469.321 6.071.137 1.503 1.217 2.743 2.688 3.087l7.763 1.815c.15.035.305.035.455 0l7.763-1.815c1.471-.344 2.552-1.584 2.688-3.087.147-1.603.322-3.957.322-6.071 0-3.008-.487-6.957-.508-7.123zm-17.492 3.123c0-.553.447-1 1-1s1 .447 1 1v5c0 .553-.447 1-1 1s-1-.447-1-1zm1 10.5c-.828 0-1.5-.672-1.5-1.5s.672-1.5 1.5-1.5 1.5.672 1.5 1.5-.672 1.5-1.5 1.5z"/></svg>