<svg id="Layer_1" viewBox="0 0 24 24" xmlns="http://www.w3.org/2000/svg" data-name="Layer 1"><path d="m22.561 1.439c-.586-.586-1.535-.586-2.121 0l-2.035 2.035c-1.578-.993-3.693-1.475-6.404-1.475-6.917.001-10.001 3.085-10.001 10.001 0 2.711.482 4.826 1.475 6.404l-2.035 2.035c-.586.586-.586 1.535 0 2.121s1.535.586 2.121 0l2.035-2.035c1.578.993 3.693 1.475 6.404 1.475 6.916 0 10-3.084 10-10 0-2.711-.482-4.826-1.475-6.404l2.035-2.035c.586-.585.586-1.536 0-2.121zm-17.561 10.561c0-5.233 1.767-7 7-7 1.779 0 3.149.211 4.193.686l-10.507 10.507c-.475-1.044-.686-2.414-.686-4.193zm14 0c0 5.233-1.767 7-7 7-1.779 0-3.149-.211-4.193-.686l10.507-10.507c.475 1.044.686 2.414.686 4.193z"/></svg>