<svg id="Layer_1" viewBox="0 0 24 24" xmlns="http://www.w3.org/2000/svg" data-name="Layer 1"><path d="m23 14.5c0 1.252-.102 2.487-.303 3.669-.072.422-.403.752-.826.82-.701.113-1.229.233-1.573.321-.092.337-.214.843-.324 1.487-.071.422-.403.751-.825.82-1.101.179-2.348.382-4.649.382-2.026 0-3.168-.149-4.451-.346-.173-.026-.337-.098-.474-.208-1.305-1.044-2.201-1.894-3.2-3.392-.083-.124-.137-.267-.158-.414-.121-.857-.18-1.745-.2-2.641h-1.958c.093 1.186.268 1.956.314 2.139.199.805-.291 1.618-1.095 1.817-.783.199-1.621-.284-1.817-1.095-.108-.436-.46-2.038-.46-4.361s.353-3.926.46-4.361c.199-.804 1.008-1.296 1.817-1.095.804.199 1.294 1.013 1.095 1.817-.045.182-.221.953-.314 2.139h2.094c.062-.555.131-1.108.235-1.641.083-.426.43-.749.86-.801.541-.066.941-.13 1.19-.173.259-.293.735-.865 1.243-1.644.158-.241.413-.403.699-.443.749-.105 1.523-.211 2.62-.264v-1.976c-1.185.093-1.956.268-2.139.314-.808.2-1.618-.291-1.817-1.095-.199-.805.291-1.618 1.095-1.817.437-.108 2.04-.461 4.361-.461s3.925.353 4.361.461c.804.199 1.294 1.013 1.095 1.817-.169.683-.782 1.139-1.455 1.139-.687-.058-.946-.241-2.501-.358v1.974c1.396.065 2.316.213 3.149.349.422.069.754.398.825.82.109.645.232 1.15.324 1.487.344.088.872.208 1.573.321.422.068.754.398.826.82.201 1.182.303 2.417.303 3.669z"/></svg>