<svg id="Layer_1" viewBox="0 0 24 24" xmlns="http://www.w3.org/2000/svg" data-name="Layer 1"><path d="m22.42 4.611c.25 1.068.58 2.937.58 5.389 0 3.855-.819 6.29-.854 6.391-.096.279-.31.501-.584.608-.105.041-2.632 1.001-7.562 1.001s-7.458-.96-7.563-1.001c-.274-.107-.488-.329-.583-.608-.035-.102-.854-2.536-.854-6.391 0-2.452.33-4.321.58-5.389.012.012.025.026.037.038 3.451 3.405 7.67 6.083 7.848 6.196.326.206.742.206 1.068 0 .178-.113 4.397-2.792 7.848-6.196.012-.012.025-.026.038-.039zm-15.397-1.385c2.596 2.562 5.742 4.753 6.977 5.579 1.235-.825 4.382-3.017 6.978-5.579.102-.1.207-.213.31-.318-.755-.245-3.171-.908-7.287-.908s-6.531.663-7.287.908c.103.104.208.217.31.318zm6.977 16.774c-5.227 0-7.992-1.021-8.291-1.138-.824-.321-1.462-.986-1.748-1.824-.037-.106-.961-2.826-.961-7.038 0-1.216.078-2.302.189-3.242-.638.162-.996.29-1.036.304-.319.118-.556.391-.629.723-.021.097-.523 2.417-.523 6.215 0 3.855.819 6.29.854 6.391.095.279.309.501.583.608.105.041 2.632 1.001 7.563 1.001 4.836 0 7.568-.496 7.682-.517.409-.076.729-.396.803-.806.007-.039.069-.392.147-.98-1.236.172-2.776.302-4.632.302z"/></svg>