<svg id="Layer_1" viewBox="0 0 24 24" xmlns="http://www.w3.org/2000/svg" data-name="Layer 1"><path d="m1.05 9.88c-.21-.801.268-1.62 1.068-1.831.163-.043 4.055-1.049 9.882-1.049s9.719 1.006 9.882 1.049c.801.211 1.278 1.03 1.068 1.831-.207.807-1.051 1.281-1.83 1.071-.037-.01-3.709-.951-9.12-.951s-9.083.941-9.12.951c-.796.206-1.62-.27-1.83-1.071zm20.832 4.17c-.163-.043-4.055-1.05-9.882-1.05s-9.719 1.007-9.882 1.05c-.801.21-1.278 1.029-1.068 1.83.21.802 1.034 1.28 1.83 1.071.037-.01 3.709-.951 9.12-.951s9.083.941 9.12.951c.779.21 1.623-.264 1.83-1.071.21-.801-.268-1.62-1.068-1.83z"/></svg>