<?xml version="1.0" encoding="UTF-8"?>
<svg xmlns="http://www.w3.org/2000/svg" id="Layer_1" data-name="Layer 1" viewBox="0 0 24 24">
  <path d="M19.668,17.096c-1.893,1.828-3.749,2.832-5.34,2.903-1.624,.053-3.63-.918-5.226-2.572-.496-.514-.933-1.067-1.301-1.635h5.047c.828,0,1.5-.671,1.5-1.5s-.672-1.5-1.5-1.5H6.564c-.044-.257-.071-.51-.077-.755,.007-.271,.035-.548,.085-.829h6.277c.828,0,1.5-.671,1.5-1.5s-.672-1.5-1.5-1.5H7.803c.367-.57,.803-1.121,1.299-1.635,1.595-1.652,3.572-2.624,5.196-2.572,1.62,.072,3.477,1.076,5.369,2.904,.596,.576,1.545,.559,2.121-.036,.575-.596,.559-1.545-.037-2.121-2.461-2.378-4.924-3.638-7.35-3.745-2.534-.056-5.258,1.208-7.458,3.487-1.077,1.115-1.94,2.392-2.535,3.718h-1.119c-.828,0-1.5,.671-1.5,1.5s.672,1.5,1.5,1.5h.259c-.034,.278-.055,.555-.062,.829,.006,.249,.025,.501,.055,.755h-.253c-.828,0-1.5,.671-1.5,1.5s.672,1.5,1.5,1.5h1.115c.595,1.32,1.46,2.6,2.54,3.719,2.147,2.224,4.788,3.488,7.301,3.488,.062,0,.124,0,.187-.002,2.396-.106,4.859-1.365,7.32-3.744,.596-.576,.612-1.525,.037-2.121-.576-.594-1.525-.611-2.121-.036Z"/>
</svg>
