<svg id="Layer_1" viewBox="0 0 24 24" xmlns="http://www.w3.org/2000/svg" data-name="Layer 1"><path d="m4.001 7.146c0-.012-.001-.023-.001-.035 0-3.219.679-5.199.707-5.273.107-.274.33-.487.608-.582.056-.019.803-.256 2.185-.256 1.359 0 2.709.519 2.783.541.247.073.457.239.585.463.065.114 1.24 2.199 2.032 5.224-1.161-.119-2.794-.228-4.9-.228-1.606 0-2.94.064-3.999.146zm10.999 12.354c0 2-1.276 2.795-2.829 3.149-1.542.351-2.671.351-4.171.351-1.5 0-2.628 0-4.171-.351-1.554-.354-2.829-1.149-2.829-3.149s1.32-2.833 2.829-3.149c1.567-.327 2.671-.351 4.171-.351 1.5 0 2.604.024 4.171.351 1.509.315 2.829 1.149 2.829 3.149zm-9 0c0-.828-.672-1.5-1.5-1.5s-1.5.672-1.5 1.5.672 1.5 1.5 1.5 1.5-.672 1.5-1.5zm6.5 0c0-.828-.672-1.5-1.5-1.5s-1.5.672-1.5 1.5.672 1.5 1.5 1.5 1.5-.672 1.5-1.5zm9.469-16.307c-.101-.48-.429-.88-.88-1.073-.453-.194-.968-.153-1.384.108-.159.099-3.813 2.424-6.726 7.019-1.114-.124-2.767-.247-4.979-.247-3.082 0-5.097.239-6.047.387-.415.064-.726.338-.805.693-.076.342-.148.824-.148 1.42s.072 1.079.148 1.42c.079.355.39.628.805.693.95.147 2.966.387 6.047.387s5.097-.239 6.047-.387c.415-.064.726-.338.805-.693.072-.324.136-.782.143-1.336 1.442-2.219 3.173-4.312 4.475-5.381.24 1.534.378 2.903.454 4.062-3.386 2.243-3.893 5.443-3.914 5.592-.041.287.045.578.234.797.19.219.466.345.756.345 2.142 0 5.12-1.011 5.246-1.054.404-.139.676-.519.676-.946.019-.191.442-5.116-.953-11.807z"/></svg>