<svg id="Layer_1" viewBox="0 0 24 24" xmlns="http://www.w3.org/2000/svg" data-name="Layer 1"><path d="m14.097 10.9c-.069-.443-.15-1.107-.175-1.92h1.434c2.08 0 2.08.479 2.08.943 0 .41 0 .97-2.167.978h-1.172zm2.539-4.2c0-.25 0-.594-1.579-.599h-.96c-.051.319-.106.755-.143 1.279h1.201c1.48 0 1.48-.409 1.48-.68zm-8.636 1.8c0-5.187 2.313-7.5 7.5-7.5s7.5 2.313 7.5 7.5-2.313 7.5-7.5 7.5-7.5-2.313-7.5-7.5zm4.315 0c0 1.996.33 3.338.344 3.394.09.356.409.605.776.605h.94v.201c0 .442.358.8.8.8s.8-.358.8-.8v-.218c1.23-.073 3.06-.461 3.06-2.559 0-1.084-.469-1.707-1.092-2.063.22-.366.292-.776.292-1.16 0-1.596-1.266-2.028-2.26-2.148v-.252c0-.442-.358-.8-.8-.8s-.8.358-.8.8v.201h-.939s0 0 0 0c-.367 0-.687.25-.776.605-.014.056-.344 1.399-.344 3.395zm-8.915-1.7c.176.132.388.2.6.2.536.01 1.011-.461 1-1v-.5h1c.828 0 1.5-.671 1.5-1.5s-.672-1.5-1.5-1.5h-1v-.5c0-.379-.214-.725-.553-.895-.338-.168-.744-.132-1.047.095-.835.625-1.575 1.366-2.2 2.2-.267.355-.267.845 0 1.2.625.834 1.365 1.574 2.2 2.2zm17.2 10.4c-.303-.228-.709-.265-1.047-.095-.339.169-.553.516-.553.895v.5h-1c-.828 0-1.5.671-1.5 1.5s.672 1.5 1.5 1.5h1v.5c-.011.539.464 1.01 1 1 .212 0 .424-.068.6-.2.836-.626 1.576-1.366 2.2-2.2.267-.355.267-.844 0-1.199-.624-.834-1.364-1.574-2.2-2.2zm-14.6-8.7c0-.094.008-.181.009-.274-3.44.69-5.009 3.009-5.009 7.274 0 5.187 2.313 7.5 7.5 7.5 4.265 0 6.584-1.569 7.274-5.009-.093.001-.18.009-.274.009-6.304 0-9.5-3.196-9.5-9.5z"/></svg>