<?xml version="1.0" encoding="UTF-8"?>
<svg xmlns="http://www.w3.org/2000/svg" id="Layer_1" data-name="Layer 1" viewBox="0 0 24 24">
  <path d="M20.331,14.1c-.78,.278-1.188,1.137-.909,1.917,.221,.62,.365,1.183,.454,1.685l-5.746-5.701,5.746-5.7c-.089,.502-.233,1.065-.454,1.684-.278,.78,.129,1.639,.909,1.917,.167,.06,.337,.087,.504,.087,.616,0,1.194-.383,1.413-.996,1.339-3.755,.625-6.588-.034-7.204-.13-.121-.279-.219-.443-.287-.271-.114-2.762-1.075-6.728,.319-.781,.274-1.192,1.131-.918,1.912s1.134,1.193,1.912,.918c.624-.219,1.191-.362,1.697-.451l-5.734,5.688L6.271,4.202c.506,.088,1.072,.23,1.692,.448,.781,.275,1.638-.137,1.912-.918s-.137-1.638-.918-1.912C5.156,.486,2.711,1.31,2.26,1.487c-.372,.147-.672,.438-.829,.807-.115,.271-1.085,2.754,.321,6.697,.219,.613,.797,.996,1.413,.996,.167,0,.337-.027,.504-.087,.78-.278,1.188-1.137,.909-1.917-.221-.62-.365-1.183-.454-1.685l5.746,5.701-5.746,5.7c.089-.502,.233-1.064,.454-1.684,.278-.78-.129-1.639-.909-1.917-.783-.279-1.639,.13-1.917,.909-1.339,3.755-.625,6.588,.034,7.204,.13,.121,.279,.219,.443,.287,.159,.067,1.091,.428,2.641,.428,1.079,0,2.459-.175,4.087-.747,.781-.274,1.192-1.131,.918-1.912s-1.131-1.192-1.912-.918c-.624,.219-1.191,.362-1.697,.451l5.734-5.688,5.73,5.686c-.506-.088-1.072-.23-1.693-.448-.778-.274-1.638,.137-1.912,.918s.137,1.638,.918,1.912c1.629,.572,3.008,.748,4.089,.748,1.441,0,2.351-.313,2.608-.415,.372-.147,.672-.438,.829-.807,.115-.271,1.085-2.754-.321-6.697-.278-.779-1.133-1.189-1.917-.909Z"/>
</svg>
