<svg id="Layer_1" viewBox="0 0 24 24" xmlns="http://www.w3.org/2000/svg" data-name="Layer 1"><path d="m8.76 8.124c0-.428-.334-.844-.764-.854-1.453 0-2.634-1.182-2.634-2.634 0-1.1.679-2.042 1.639-2.436v-.198c0-.552.448-1 1-1s1 .448 1 1v.207c.362.15.692.373.959.671.368.412.333 1.044-.078 1.412-.413.368-1.045.333-1.412-.078-.071-.079-.227-.212-.473-.212-.35 0-.634.285-.634.635-.001.377.329.671.694.617 1.516.09 2.703 1.351 2.703 2.871 0 1.19-.727 2.213-1.759 2.65v.226c0 .552-.448 1-1 1s-1-.448-1-1v-.139c-.838-.271-1.527-.919-1.83-1.779-.184-.521.089-1.092.61-1.276.523-.184 1.092.089 1.276.61.124.349.456.584.827.584.483 0 .876-.393.876-.876zm4.741-1.624h2.5v1.5c0 .379.214.725.553.894.338.169.744.133 1.048-.095 1.215-.912 2.291-1.988 3.199-3.2.267-.355.267-.844 0-1.199-.908-1.212-1.984-2.288-3.199-3.2-.303-.227-.708-.265-1.048-.095s-.553.516-.553.894v1.5h-2.5c-.829 0-1.5.671-1.5 1.5s.671 1.5 1.5 1.5zm9.421 5.386c-.164-.647-.57-1.192-1.144-1.533-1.183-.705-2.72-.315-3.427.869-1.03 1.731-2.199 3.153-3.595 4.288-.372 1.02-1.156 1.857-2.214 2.275-1.006.429-2.568 1.112-4.543 1.215-.509 0-.945-.387-.995-.904-.053-.55.35-1.038.9-1.091 1.581-.152 2.971-.684 3.879-1.069.76-.301 1.217-.971 1.217-1.759 0-.752-.502-1.429-1.221-1.644-.008 0-1.779-.532-4.279-.532-2.985 0-5.081.497-5.19.519-.381.074-.686.362-.78.739-.021.086-.53 2.143-.53 4.242s.508 4.156.53 4.242c.094.375.395.663.774.738.106.021 2.632.52 5.696.52 6.431.026 11.306-3.592 14.648-9.22.342-.573.439-1.246.274-1.893z"/></svg>