<svg id="Layer_1" viewBox="0 0 24 24" xmlns="http://www.w3.org/2000/svg" data-name="Layer 1"><path d="m22.204 8.45c-.106-.339-.384-.595-.729-.675-.126-.029-2.892-.65-7.975-.758v-1.517h1c.379 0 .725-.214.895-.553.169-.339.133-.744-.095-1.047-.769-1.025-1.677-1.933-2.7-2.7-.355-.267-.844-.267-1.199 0-1.024.768-1.933 1.676-2.701 2.701-.227.303-.264.708-.094 1.047s.516.553.895.553h1v1.517c-5.083.108-7.849.729-7.975.758-.345.08-.623.336-.729.675-.032.103-.796 2.576-.796 6.55s.764 6.447.796 6.55c.106.339.384.595.729.675.138.031 3.431.775 9.475.775s9.337-.744 9.475-.775c.345-.08.623-.336.729-.675.032-.103.796-2.576.796-6.55s-.764-6.447-.796-6.55zm-16.704 11.55c-.828 0-1.5-.672-1.5-1.5s.672-1.5 1.5-1.5 1.5.672 1.5 1.5-.672 1.5-1.5 1.5zm0-7c-.828 0-1.5-.672-1.5-1.5s.672-1.5 1.5-1.5 1.5.672 1.5 1.5-.672 1.5-1.5 1.5zm6.5 6c-2.691 0-4-1.309-4-4s1.309-4 4-4 4 1.309 4 4-1.309 4-4 4zm6.5 1c-.828 0-1.5-.672-1.5-1.5s.672-1.5 1.5-1.5 1.5.672 1.5 1.5-.672 1.5-1.5 1.5zm0-7c-.828 0-1.5-.672-1.5-1.5s.672-1.5 1.5-1.5 1.5.672 1.5 1.5-.672 1.5-1.5 1.5zm-4.5 2c0 1.589-.411 2-2 2s-2-.411-2-2 .411-2 2-2 2 .411 2 2z"/></svg>