<?xml version="1.0" encoding="UTF-8"?>
<svg xmlns="http://www.w3.org/2000/svg" id="Layer_1" data-name="Layer 1" viewBox="0 0 24 24">
  <path d="M8.67,9.732c-2.778,2.815-4.463,4.815-5.404,6.022-.805,1.033-.996,2.374-.592,3.515l-1.166,1.175c-.583,.588-.58,1.538,.008,2.121,.292,.291,.674,.436,1.057,.436,.386,0,.771-.148,1.064-.443l1.185-1.194c.363,.119,.744,.179,1.128,.179,.796,0,1.602-.258,2.271-.779,1.208-.941,3.211-2.629,6.037-5.418-.942-.552-2.041-1.345-3.156-2.468-1.105-1.112-1.886-2.206-2.432-3.146Z"/>
  <path d="M22.115,2.479c-.099-.128-.202-.245-.305-.349-.103-.103-.219-.206-.347-.308-1.638-1.288-4.066-1.036-5.519,.562l-1.379,1.469c-1.076-.275-2.876-.255-4.871,1.753-.237,.239-.335,.584-.257,.912,.023,.099,.596,2.445,3.085,4.952,2.489,2.508,4.821,3.086,4.919,3.11,.075,.018,.151,.027,.226,.027,.257,0,.506-.102,.691-.288,2.015-2.03,2.027-3.836,1.747-4.914l1.439-1.368c1.596-1.471,1.847-3.912,.571-5.556Z"/>
</svg>
