<svg id="Layer_1" viewBox="0 0 24 24" xmlns="http://www.w3.org/2000/svg" data-name="Layer 1"><path d="m17.63 1.107c-.815-.071-1.619-.107-2.39-.107-4.33 0-8.018 1.111-8.172 1.158-.49.149-.87.539-1.007 1.033-.043.156-1.06 3.871-1.06 8.809s1.098 9.648 1.145 9.845c.163.69.876 1.314 1.804 1.114.81-.175 1.305-.998 1.115-1.804-.01-.04-.846-3.63-1.029-7.655h8.344c.829 0 1.5-.671 1.5-1.5s-.671-1.5-1.5-1.5h-8.346c.114-2.539.489-4.606.723-5.688 1.239-.302 3.743-.812 6.482-.812.685 0 1.401.032 2.13.095.819.073 1.552-.539 1.624-1.364s-.539-1.553-1.364-1.624z"/></svg>