<svg id="Layer_1" viewBox="0 0 24 24" xmlns="http://www.w3.org/2000/svg" data-name="Layer 1"><path d="m23 1.982c-.006-.333-.178-.642-.457-.822-.279-.182-.633-.211-.937-.079l-2.947 1.262c-1.684-.908-3.88-1.343-6.66-1.343s-4.976.435-6.66 1.343l-2.945-1.262c-.304-.132-.657-.103-.937.079-.279.181-.451.489-.457.822-.002.102-.033 2.444.65 5.001-.439 1.402-.651 3.067-.651 5.016 0 7.71 3.29 11 11 11s11-3.29 11-11c0-1.948-.212-3.613-.65-5.015.684-2.558.652-4.901.65-5.003zm-16.751 5.358c.363-.415.997-.456 1.411-.091.042.036 1.032.908 1.754 1.63.919.918.686 2.143 0 2.828-.391.391-1.023.391-1.414 0s-.391-1.023 0-1.414c-.676-.676-1.65-1.533-1.66-1.542-.415-.364-.455-.996-.091-1.411zm10.275 8.448c-1.045.815-2.525 1.212-4.524 1.212s-3.479-.396-4.524-1.212c-.436-.339-.513-.968-.173-1.403.339-.436.967-.514 1.403-.173.68.53 1.758.788 3.294.788s2.614-.258 3.294-.788c.436-.341 1.063-.263 1.403.173s.263 1.064-.173 1.403zm1.133-7.131-1.636 1.636c.391.391.391 1.023 0 1.414s-1.023.391-1.414 0c-.686-.686-.919-1.91 0-2.828l1.636-1.636c.391-.391 1.023-.391 1.414 0s.391 1.023 0 1.414z"/></svg>