<svg id="Layer_1" viewBox="0 0 24 24" xmlns="http://www.w3.org/2000/svg" data-name="Layer 1"><path d="m12 1c-7.71 0-11 3.29-11 11s3.29 11 11 11 11-3.29 11-11-3.29-11-11-11zm-6 9c0-.553.447-1 1-1 .879 0 1-.121 1-1 0-.553.447-1 1-1s1 .447 1 1c0 1.99-1.01 3-3 3-.553 0-1-.447-1-1zm10.882 6.972c-.207.39-.667.592-1.093.506-.401-.08-2.468-.478-3.789-.478-1.313 0-3.384.397-3.785.477-3.456-.876 1.441-4.955 3.784-4.477 2.255.003 4.336 1.342 4.949 3.184.087.261.063.546-.066.788zm.118-5.972c-1.99 0-3-1.01-3-3 0-.553.447-1 1-1s1 .447 1 1c0 .879.121 1 1 1 .553 0 1 .447 1 1s-.447 1-1 1z"/></svg>