<svg id="Layer_1" viewBox="0 0 24 24" xmlns="http://www.w3.org/2000/svg" data-name="Layer 1"><path d="m12 1c-7.71 0-11 3.29-11 11s3.29 11 11 11 11-3.29 11-11-3.29-11-11-11zm1.293 7.293c.633-.633 1.378-1.192 2.217-1.664.481-.272 1.091-.101 1.362.381s.1 1.091-.381 1.361c-.343.193-.666.403-.966.629.3.226.623.436.966.629.481.271.652.88.381 1.361-.272.485-.89.65-1.362.381-.838-.472-1.584-1.031-2.217-1.664-.391-.391-.391-1.023 0-1.414zm-5.783.078c-.481-.271-.652-.88-.381-1.361.27-.481.88-.654 1.362-.381.838.472 1.584 1.031 2.217 1.664.391.391.391 1.023 0 1.414-.633.633-1.378 1.192-2.217 1.664-.472.269-1.09.104-1.362-.381-.271-.481-.1-1.091.381-1.361.343-.193.666-.403.966-.629-.3-.226-.623-.436-.966-.629zm11.17 7.381c-.863.757-1.461 1.353-1.88 1.875-.373.488-1.169.493-1.549.012-.393-.474-.805-.912-1.23-1.311-.533.496-.935.918-1.241 1.299-.37.484-1.194.508-1.549.011-.393-.474-.804-.912-1.229-1.31-.532.496-.935.917-1.242 1.299-.369.485-1.196.508-1.549.011-.584-.705-1.211-1.332-1.862-1.862-.428-.35-.492-.979-.143-1.407.35-.427.979-.492 1.407-.144.472.386.931.812 1.373 1.275.372-.38.812-.791 1.336-1.252.355-.312.946-.322 1.312-.023.472.386.931.812 1.373 1.275.372-.379.811-.791 1.336-1.252.355-.312.945-.321 1.312-.022.472.385.931.812 1.372 1.274.372-.38.812-.791 1.336-1.252.416-.363 1.048-.322 1.411.093.364.415.323 1.047-.092 1.411z"/></svg>