<svg id="Layer_1" viewBox="0 0 24 24" xmlns="http://www.w3.org/2000/svg" data-name="Layer 1"><path d="m11 21c-.878 0-1-.121-1-1v-1.12c.562-.078 1.277-.19 2-.338v1.458c0 .879-.122 1-1 1zm3.5-14c-1.233 0-1.5.267-1.5 1.5s.267 1.5 1.5 1.5 1.5-.267 1.5-1.5-.267-1.5-1.5-1.5zm8.5 5c0 7.71-3.29 11-11 11-.245 0-.472-.013-.708-.02 1.79-.1 2.708-1.094 2.708-2.98v-.289c.288-.079.572-.171.851-.274 2.326-.87 3.6-2.489 4.131-5.247.091-.471-.166-.939-.61-1.118-.378-.148-.816-.053-1.1.243-.672.705-2.207 2.071-3.695 2.717-1.008.437-3.147.797-4.673.973-.497.051-.915.492-.904.996v2c0 1.686.732 2.66 2.163 2.921-6.391-.513-9.163-3.858-9.163-10.921 0-7.711 3.29-11.001 11-11.001s11 3.29 11 11zm-14 0c0-1.429-.571-2-2-2s-2 .571-2 2 .571 2 2 2 2-.571 2-2zm9-3.5c0-2.322-1.178-3.5-3.5-3.5s-3.5 1.178-3.5 3.5 1.178 3.5 3.5 3.5 3.5-1.178 3.5-3.5z"/></svg>