<svg id="Layer_1" viewBox="0 0 24 24" xmlns="http://www.w3.org/2000/svg" data-name="Layer 1"><path d="m5 14c0 1.429-.571 2-2 2s-2-.571-2-2c0-1.048.827-2.237 1.417-2.952.302-.366.86-.364 1.161.003.591.723 1.422 1.923 1.422 2.948zm18-2c0 7.71-3.29 11-11 11-5.333 0-8.548-1.577-10.026-5.099.321.06.659.099 1.026.099 2.542 0 4-1.458 4-4 0-1.271-.63-2.688-1.873-4.214-.523-.641-1.297-1.009-2.122-1.011-.7.006-1.358.276-1.867.746.682-5.937 4.038-8.521 10.862-8.521 7.71 0 11 3.29 11 11zm-14-5c0-.553-.447-1-1-1s-1 .447-1 1c0 .879-.121 1-1 1-.553 0-1 .447-1 1s.447 1 1 1c1.99 0 3-1.01 3-3zm-1 4.5c0 .828.672 1.5 1.5 1.5s1.5-.672 1.5-1.5-.672-1.5-1.5-1.5-1.5.672-1.5 1.5zm7.991 5.399c-.289-2.054-1.497-2.899-3.991-2.899s-3.702.845-3.991 2.899c-.083.586.41 1.101 1.011 1.101h5.96c.601 0 1.093-.515 1.011-1.101zm.009-5.399c0-.828-.672-1.5-1.5-1.5s-1.5.672-1.5 1.5.672 1.5 1.5 1.5 1.5-.672 1.5-1.5zm3-2.5c0-.553-.447-1-1-1-.879 0-1-.121-1-1 0-.553-.447-1-1-1s-1 .447-1 1c0 1.99 1.01 3 3 3 .553 0 1-.447 1-1z"/></svg>