<svg id="Layer_1" viewBox="0 0 24 24" xmlns="http://www.w3.org/2000/svg" data-name="Layer 1"><path d="m22.001 7.97c-.547 0-.99.41-.998.955 0 .008 0 .015-.002.023-.052.289-.684 1.009-3.001 1.009h-1.919c-.606 0-1.081-.43-1.081-.978 0-.54.438-.979.979-.979h2.021c1.99 0 3-1.009 3-3s-1.01-3-3-3c-.432 0-.813.047-1.15.143-.572-.76-1.525-1.143-2.85-1.143-.812 0-1.474.139-2 .423-.526-.284-1.188-.423-2-.423-1.324 0-2.277.383-2.85 1.143-.337-.096-.719-.143-1.15-.143-1.99 0-3 1.009-3 3s1.01 3 3 3h2.021c.54 0 .979.439.979.979 0 .548-.475.978-1.081.978h-1.919c-2.336 0-2.92-.522-3.015-.63-.083-.469-.492-.826-.985-.826-.553 0-1 .448-1 1v2.5c0 7.71 3.29 11 11 11s11-3.29 11-11v-3c0-.552-.446-1.03-.999-1.03zm-15.001 5.53c0-.828.672-1.5 1.5-1.5s1.5.672 1.5 1.5-.672 1.5-1.5 1.5-1.5-.672-1.5-1.5zm7.235 5.5h-4.47c-.451 0-.82-.386-.758-.826.217-1.54 1.122-2.174 2.993-2.174s2.776.634 2.993 2.174c.062.44-.307.826-.758.826zm1.265-4c-.828 0-1.5-.672-1.5-1.5s.672-1.5 1.5-1.5 1.5.672 1.5 1.5-.672 1.5-1.5 1.5z"/></svg>