<svg id="Layer_1" viewBox="0 0 24 24" xmlns="http://www.w3.org/2000/svg" data-name="Layer 1"><path d="m23 1.982c.008-.688-.771-1.193-1.394-.901l-2.947 1.262c-1.684-.908-3.88-1.343-6.66-1.343s-4.976.435-6.66 1.343l-2.945-1.262c-.623-.291-1.402.213-1.394.901-.002.102-.033 2.444.65 5.001-.439 1.402-.651 3.067-.651 5.016 0 7.71 3.29 11 11 11s11-3.29 11-11c0-1.948-.212-3.613-.65-5.015.683-2.558.652-4.901.65-5.003zm-16.751 5.358c.365-.414.996-.456 1.411-.091.042.036 1.033.908 1.754 1.63.918.918.686 2.143 0 2.828-.391.391-1.023.391-1.414 0s-.391-1.023 0-1.414c-.675-.676-1.65-1.533-1.66-1.542-.415-.364-.456-.996-.091-1.411zm10.449 9.275c-.342.438-.972.511-1.404.173-.68-.53-1.758-.788-3.294-.788s-2.614.258-3.294.788c-.435.34-1.063.264-1.404-.173-.339-.436-.262-1.064.173-1.403 1.06-.827 2.498-1.212 4.525-1.212s3.465.385 4.525 1.212c.436.339.513.968.173 1.403zm.959-7.958-1.636 1.636c.391.391.391 1.023 0 1.414s-1.024.391-1.415 0c-.081-.08-.355-.379-.507-.832-.237-.71-.052-1.438.507-1.996l1.636-1.636c.391-.391 1.023-.391 1.414 0s.391 1.023 0 1.414z"/></svg>