<svg id="Layer_1" viewBox="0 0 24 24" xmlns="http://www.w3.org/2000/svg" data-name="Layer 1"><path d="m9 12c0 .878-.122 1-1 1s-1-.122-1-1 .122-1 1-1 1 .122 1 1zm7-1c-.878 0-1 .122-1 1s.122 1 1 1 1-.122 1-1-.122-1-1-1zm7 1c0 7.71-3.29 11-11 11s-11-3.29-11-11 3.29-11 11-11 11 3.29 11 11zm-17.568-3.587c.511.171 1.09-.112 1.26-.643.271-.835.426-.912 1.26-.643.528.173 1.09-.117 1.26-.643.17-.525-.117-1.089-.643-1.26-1.896-.615-3.165.035-3.779 1.928-.17.525.117 1.089.643 1.26zm2.568 6.587c1.991 0 3-1.01 3-3s-1.009-3-3-3-3 1.009-3 3 1.009 3 3 3zm6.993 3.174c-.217-1.54-1.122-2.174-2.993-2.174s-2.776.634-2.993 2.174c-.062.44.307.826.758.826h4.47c.451 0 .82-.386.758-.826zm4.007-6.174c0-1.991-1.009-3-3-3s-3 1.009-3 3 1.009 3 3 3 3-1.01 3-3zm.211-4.847c-.615-1.893-1.887-2.542-3.779-1.928-.525.17-.813.734-.643 1.26.171.525.733.815 1.26.643.836-.27.989-.193 1.26.643.169.53.748.813 1.26.643.525-.17.813-.734.643-1.26z"/></svg>