<svg id="Layer_1" viewBox="0 0 24 24" xmlns="http://www.w3.org/2000/svg" data-name="Layer 1"><path d="m12 8c-6.232 0-11-.258-11-3.5s4.768-3.5 11-3.5 11 .258 11 3.5-4.768 3.5-11 3.5zm-7.339-3.5c.962.244 3.005.5 7.339.5s6.377-.256 7.339-.5c-.962-.244-3.005-.5-7.339-.5s-6.377.256-7.339.5zm18.045 3.989c-1.191.691-2.76 1.058-4.465 1.261.504.501.758 1.252.758 2.25 0 .553-.448 1-1 1s-1-.447-1-1c0-.879-.122-1-1-1s-1 .121-1 1c0 .553-.448 1-1 1s-1-.447-1-1c0-.853.197-1.515.565-2.005-.529.004-1.053.005-1.565.005s-1.037-.001-1.565-.005c.369.49.565 1.152.565 2.005 0 .553-.448 1-1 1s-1-.447-1-1c0-.879-.122-1-1-1s-1 .121-1 1c0 .553-.448 1-1 1s-1-.447-1-1c0-.998.254-1.749.758-2.25-1.705-.203-3.274-.57-4.465-1.261-.192 1.052-.293 2.214-.293 3.511 0 7.71 3.29 11 11 11s11-3.29 11-11c0-1.297-.102-2.459-.293-3.511zm-6.182 8.299c-1.06.827-2.498 1.212-4.525 1.212s-3.465-.385-4.525-1.212c-.436-.339-.513-.968-.173-1.403.34-.436.97-.512 1.404-.173.68.53 1.758.788 3.294.788s2.614-.258 3.294-.788c.435-.34 1.064-.264 1.404.173.339.436.262 1.064-.173 1.403z"/></svg>