<svg id="Layer_1" viewBox="0 0 24 24" xmlns="http://www.w3.org/2000/svg" data-name="Layer 1"><path d="m12 1c-7.71 0-11 3.29-11 11s3.29 11 11 11 11-3.29 11-11-3.29-11-11-11zm3.5 7c.828 0 1.5.672 1.5 1.5s-.672 1.5-1.5 1.5-1.5-.672-1.5-1.5.672-1.5 1.5-1.5zm-7 0c.828 0 1.5.672 1.5 1.5s-.672 1.5-1.5 1.5-1.5-.672-1.5-1.5.672-1.5 1.5-1.5zm7.5 8h-4.09c-1.537 0-2.614.258-3.294.788-.432.338-1.062.265-1.404-.173-.339-.436-.262-1.064.173-1.403 1.06-.827 2.498-1.212 4.525-1.212h4.09c.552 0 1 .447 1 1s-.448 1-1 1z"/></svg>