<svg id="Layer_1" viewBox="0 0 24 24" xmlns="http://www.w3.org/2000/svg" data-name="Layer 1"><path d="m12 1c-7.71 0-11 3.29-11 11s3.29 11 11 11 11-3.29 11-11-3.29-11-11-11zm-5 10h-1c-.552 0-1-.447-1-1s.448-1 1-1h1c1.299 0 2 1.03 2 2 0 .553-.448 1-1 1s-1-.447-1-1zm8.701 6.713c-.393.387-1.027.382-1.414-.012-.471-.479-1.197-.701-2.287-.701s-1.816.223-2.287.701c-.387.395-1.02.399-1.414.012-.394-.388-.399-1.021-.012-1.414.86-.874 2.074-1.299 3.713-1.299s2.853.425 3.713 1.299c.387.394.382 1.026-.012 1.414zm.299-5.713c-.552 0-1-.447-1-1h-1c-.552 0-1-.447-1-1s.448-1 1-1h1c1.299 0 2 1.03 2 2 0 .553-.448 1-1 1z"/></svg>