<svg id="Layer_1" viewBox="0 0 24 24" xmlns="http://www.w3.org/2000/svg" data-name="Layer 1"><path d="m7 23h-4c-.553 0-1-.448-1-1 0-1.312-.54-3.712-.692-4.328-.615-1.124-.276-2.547.802-3.258 1.109-.731 2.563-.455 3.387.646.333.444 1.998 2.833 2.496 6.816.086.578-.409 1.137-.992 1.124zm9.01-1.124c.498-3.984 2.163-6.373 2.496-6.816.823-1.101 2.277-1.377 3.387-.646 1.078.711 1.417 2.135.802 3.258-.152.616-.692 3.016-.692 4.328 0 .552-.447 1-1 1h-4c-.584.013-1.079-.546-.992-1.124zm-1.982-.266c.55-4.364 2.342-7.035 2.879-7.75 1.459-1.953 4.068-2.434 6.072-1.123.007-.245.021-.482.021-.736 0-7.71-3.29-11-11-11s-11 3.289-11 10.999c0 .255.013.492.021.738 2.003-1.312 4.614-.832 6.077 1.124.536.714 2.332 3.392 2.879 7.766.055.429.013.86-.113 1.266.674.065 1.378.106 2.137.106s1.465-.042 2.14-.107c-.13-.412-.172-.849-.112-1.283zm-4.416-12.175c-.422.485-1.692 1.759-2.182 2.181-.575.525-1.459.516-2.011-.037-.543-.53-.562-1.438-.032-2.013.42-.485 1.694-1.76 2.181-2.182.574-.525 1.479-.506 2.018.042.537.526.555 1.433.026 2.008zm4.388 7.565c0 1.429-.571 2-2 2s-2-.571-2-2v-2c0-1.429.571-2 2-2s2 .571 2 2zm.429-9.588c.523-.532 1.428-.553 2.004-.026.488.421 1.761 1.693 2.184 2.183.527.577.513 1.461-.034 2.009-.539.549-1.447.556-2.014.035-.248-.225-.671-.616-1.118-1.063-.447-.448-.839-.87-1.066-1.122-.525-.57-.507-1.478.045-2.017z"/></svg>