<svg id="Layer_1" viewBox="0 0 24 24" xmlns="http://www.w3.org/2000/svg" data-name="Layer 1"><path d="m12 1c-7.71 0-11 3.29-11 11s3.29 11 11 11c1.511 0 2.847-.131 4.027-.393l-.018-5.111c-.582.204-1.245.338-1.977.418v3.086c0 .553-.448 1-1 1s-1-.447-1-1v-3.025c-2.02-.061-3.558-.488-4.647-1.337-.436-.34-.514-.969-.174-1.404.34-.436.969-.51 1.403-.174.811.632 2.082.939 3.885.939s3.075-.308 3.885-.939c.618-.515 1.637-.021 1.615.784l.032 6.125c3.43-1.502 4.968-4.703 4.968-9.97 0-7.71-3.29-11-11-11zm-1.02 8.309c-.109.541-.635.893-1.178.782-.6-.122-1.038-.121-1.301.002-.143.065-.354.216-.568.768-.198.52-.791.77-1.293.572-.515-.199-.771-.777-.572-1.293.356-.923.877-1.531 1.593-1.862.676-.313 1.482-.361 2.538-.147.542.109.892.638.782 1.179zm6.38 2.124c-.502.198-1.095-.052-1.293-.572-.213-.552-.425-.702-.566-.767-.267-.125-.705-.126-1.303-.003-.543.11-1.069-.241-1.178-.782-.11-.541.24-1.069.782-1.179 1.055-.213 1.861-.167 2.54.148.714.33 1.235.938 1.591 1.861.199.516-.057 1.094-.572 1.293z"/></svg>