<svg id="Layer_1" viewBox="0 0 24 24" xmlns="http://www.w3.org/2000/svg" data-name="Layer 1"><path d="m12 1c-7.71 0-11 3.29-11 11s3.29 11 11 11 11-3.29 11-11-3.29-11-11-11zm-6 6c0-.552.448-1 1-1h2c.552 0 1 .448 1 1s-.448 1-1 1h-2c-.552 0-1-.448-1-1zm4 4.5c0 .828-.672 1.5-1.5 1.5s-1.5-.672-1.5-1.5.672-1.5 1.5-1.5 1.5.672 1.5 1.5zm6 5.5h-8c-.552 0-1-.448-1-1s.448-1 1-1h8c.552 0 1 .448 1 1s-.448 1-1 1zm-2-5.5c0-.828.672-1.5 1.5-1.5s1.5.672 1.5 1.5-.672 1.5-1.5 1.5-1.5-.672-1.5-1.5zm3.411-3.689c-.228.503-.819.727-1.323.5-.555-.25-.795-.32-1.037-.312-.364.019-.756.146-1.157.949-.248.499-.858.691-1.342.447-.494-.247-.694-.848-.447-1.342.649-1.298 1.606-1.988 2.844-2.051.726-.041 1.324.198 1.962.486.503.227.727.819.5 1.323z"/></svg>