<svg id="Layer_1" viewBox="0 0 24 24" xmlns="http://www.w3.org/2000/svg" data-name="Layer 1"><path d="m12 1c-7.71 0-11 3.29-11 11 0 .301.014.583.024.87.431-.239.901-.365 1.371-.37.231-.413.562-.767.971-1.03 1.3-.846 3.033-.519 3.948.713.152.171.553.618 1.054 1.172.402-.218.86-.342 1.348-.354.882-.031 1.728.384 2.288 1.055.565-.683 1.405-1.097 2.279-1.055.488.012.946.136 1.349.354.486-.538.878-.976 1.04-1.157.864-1.234 2.636-1.586 3.966-.725.408.263.738.616.969 1.031.47.004.938.13 1.369.367.01-.287.024-.57.024-.871 0-7.71-3.29-11-11-11zm-6 7c-.552 0-1-.447-1-1 0-1.99 1.009-3 3-3s3 1.01 3 3c0 .553-.448 1-1 1s-1-.447-1-1c0-.879-.122-1-1-1s-1 .121-1 1c0 .553-.448 1-1 1zm10.525 2.788c-1.06.827-2.498 1.212-4.525 1.212s-3.465-.385-4.525-1.212c-.436-.339-.513-.968-.173-1.403.341-.436.969-.512 1.404-.173.68.53 1.758.788 3.294.788s2.614-.258 3.294-.788c.435-.34 1.064-.263 1.404.173.339.436.262 1.064-.173 1.403zm1.475-2.788c-.552 0-1-.447-1-1 0-.879-.122-1-1-1s-1 .121-1 1c0 .553-.448 1-1 1s-1-.447-1-1c0-1.99 1.009-3 3-3s3 1.01 3 3c0 .553-.448 1-1 1zm-7.37 7.61c-.119-.362-.464-.62-.865-.61-.387.01-.787.21-.95.777-.043.277-.064.614-.074.941-1.325-1.414-2.99-3.282-2.997-3.292-.281-.433-.861-.557-1.295-.276-.434.28-.558.859-.278 1.293.032.049.7 1.005 1.773 2.11l-.597.597c-1.119-1.16-2.136-2.24-2.142-2.249-.295-.424-.878-.53-1.303-.236-.425.293-.531.876-.237 1.301.03.044 1.119 1.365 2.299 2.566l-.558.558c-.433-.429-.716-.773-.716-.773-.343-.466-1.035-.523-1.449-.074-.31.336-.309.848-.037 1.215.497.669 1.069 1.26 1.633 1.824 1.689 1.689 3.085 1.715 3.663 1.715 2.5 0 4.499-1.75 4.499-4.25 0-1.905-.37-3.14-.37-3.14zm2.37 3.14c0 2.5 1.999 4.25 4.499 4.25.578 0 1.974-.026 3.663-1.715.564-.564 1.136-1.154 1.633-1.824.272-.367.273-.879-.037-1.215-.414-.449-1.107-.392-1.449.074 0 0-.284.343-.716.773l-.558-.558c1.181-1.202 2.269-2.522 2.299-2.566.294-.425.188-1.008-.237-1.301-.425-.294-1.008-.189-1.303.236-.007.009-1.023 1.089-2.142 2.249l-.597-.597c1.073-1.105 1.742-2.061 1.773-2.11.281-.434.157-1.013-.278-1.293-.434-.281-1.013-.157-1.295.276-.007.01-1.672 1.878-2.997 3.292-.01-.328-.03-.664-.074-.941-.163-.567-.563-.767-.95-.777-.401-.01-.746.247-.865.61 0 0-.37 1.235-.37 3.14z"/></svg>