<svg id="Layer_1" viewBox="0 0 24 24" xmlns="http://www.w3.org/2000/svg" data-name="Layer 1"><path d="m14.5 9c-.846 0-1.665-.209-1.755-.233-.691-.16-.983-1.076-.513-1.607l1.773-2.128c-.411.048-.748.135-.752.136-.537.141-1.081-.181-1.22-.714-.14-.533.178-1.079.712-1.22.09-.024.909-.233 1.755-.233s1.665.209 1.755.233c.691.16.983 1.076.513 1.607l-1.773 2.128c.411-.048.748-.135.752-.136.537-.141 1.081.181 1.22.714.14.533-.178 1.079-.712 1.22-.09.024-.909.233-1.755.233zm7.755-2.233c.534-.141.852-.687.712-1.22-.14-.534-.684-.853-1.22-.714-.004 0-.341.088-.752.136l1.773-2.128c.47-.531.178-1.447-.513-1.607-.09-.024-.909-.233-1.755-.233s-1.665.209-1.755.233c-.534.141-.852.687-.712 1.22.14.534.683.854 1.22.714.004 0 .341-.088.752-.136l-1.773 2.128c-.47.531-.178 1.447.513 1.607.09.024.909.233 1.755.233s1.665-.209 1.755-.233zm.488 1.94c.166.996.257 2.084.257 3.294 0 7.71-3.29 11-11 11s-11-3.291-11-11.001 3.29-11 11-11c.551 0 1.074.022 1.581.056-.679.076-1.214.209-1.345.244-1.597.421-2.555 2.063-2.137 3.66.1.382.271.734.501 1.042-.583.777-.755 1.779-.457 2.711.314.983 1.097 1.726 2.091 1.987.189.05 1.188.3 2.267.3s2.078-.25 2.265-.299c.983-.259 1.721-.983 2.048-1.872.432.083 1.043.172 1.688.172 1.052 0 2.02-.236 2.243-.294zm-14.743 6.294c.89 0 1.767-.415 2.682-1.269.404-.376.426-1.009.049-1.413-.376-.404-1.01-.426-1.413-.049-1.055.983-1.581.983-2.636 0-.403-.377-1.036-.355-1.413.049s-.355 1.037.049 1.413c.915.854 1.792 1.269 2.682 1.269zm6 3c0-1.429-.571-2-2-2s-2 .571-2 2 .571 2 2 2 2-.571 2-2zm4.731-5.682c-.377-.404-1.01-.426-1.413-.049-1.055.983-1.581.983-2.636 0-.403-.377-1.037-.355-1.413.049-.377.404-.355 1.037.049 1.413.915.854 1.792 1.269 2.682 1.269s1.767-.415 2.682-1.269c.404-.376.426-1.009.049-1.413z"/></svg>