<svg id="Layer_1" viewBox="0 0 24 24" xmlns="http://www.w3.org/2000/svg" data-name="Layer 1"><path d="m12 1c-7.71 0-11 3.29-11 11s3.29 11 11 11 11-3.29 11-11-3.29-11-11-11zm-7 7c0-.552.447-1 1-1 .879 0 1-.122 1-1 0-.552.447-1 1-1s1 .448 1 1c0 1.991-1.01 3-3 3-.553 0-1-.448-1-1zm2.129 6.99c-.271-.481-.101-1.091.381-1.362.343-.193.665-.403.966-.628-.301-.226-.623-.436-.966-.628-.481-.271-.652-.88-.381-1.362.269-.481.879-.654 1.361-.381.838.471 1.584 1.031 2.217 1.665.391.391.391 1.023 0 1.414-.633.633-1.379 1.193-2.217 1.665-.473.268-1.089.104-1.361-.381zm8.609 3.701c-.393.387-1.027.382-1.414-.012-.471-.478-1.197-.701-2.287-.701s-1.816.223-2.287.701c-.387.394-1.021.398-1.414.012-.394-.387-.399-1.021-.012-1.414.859-.874 2.074-1.298 3.713-1.298s2.854.425 3.713 1.298c.388.394.382 1.027-.012 1.414zm.752-5.063c.481.271.652.88.381 1.362-.271.486-.889.649-1.361.381-.838-.471-1.584-1.031-2.217-1.665-.391-.391-.391-1.023 0-1.414.633-.633 1.379-1.193 2.217-1.665.481-.271 1.091-.1 1.361.381.271.481.101 1.091-.381 1.362-.343.193-.665.403-.966.628.301.226.623.436.966.628zm1.51-4.628c-1.99 0-3-1.009-3-3 0-.552.447-1 1-1s1 .448 1 1c0 .878.121 1 1 1 .553 0 1 .448 1 1s-.447 1-1 1z"/></svg>