<svg id="Layer_1" viewBox="0 0 24 24" xmlns="http://www.w3.org/2000/svg" data-name="Layer 1"><path d="m12 1c-7.71 0-11 3.29-11 11s3.29 11 11 11 11-3.29 11-11-3.29-11-11-11zm-7.211 6.153c.614-1.893 1.884-2.543 3.779-1.928.525.17.813.734.643 1.26-.17.525-.732.815-1.26.643-.834-.271-.988-.193-1.26.643-.169.53-.748.813-1.26.643-.525-.17-.813-.734-.643-1.26zm.48 3.165c.376-.404 1.01-.425 1.413-.049 1.055.983 1.581.983 2.636 0 .403-.377 1.037-.355 1.413.049.377.404.355 1.037-.049 1.413-.915.854-1.792 1.269-2.682 1.269s-1.767-.415-2.682-1.269c-.404-.376-.426-1.009-.049-1.413zm11.256 6.471c-1.059.826-2.497 1.211-4.525 1.211s-3.466-.385-4.525-1.211c-.436-.34-.513-.968-.173-1.404.341-.435.969-.513 1.404-.173.68.53 1.757.788 3.294.788s2.615-.258 3.294-.788c.435-.34 1.064-.262 1.404.173.339.436.262 1.064-.173 1.404zm2.157-5.058c-.915.854-1.792 1.269-2.682 1.269s-1.767-.415-2.682-1.269c-.404-.376-.426-1.009-.049-1.413s1.009-.425 1.413-.049c1.055.983 1.581.983 2.636 0 .404-.377 1.036-.355 1.413.049s.355 1.037-.049 1.413zm-.114-3.318c-.511.171-1.09-.112-1.26-.643-.271-.836-.425-.913-1.26-.643-.526.172-1.089-.117-1.26-.643s.117-1.089.643-1.26c1.893-.616 3.165.035 3.779 1.928.17.525-.117 1.089-.643 1.26z"/></svg>