<svg id="Layer_1" viewBox="0 0 24 24" xmlns="http://www.w3.org/2000/svg" data-name="Layer 1"><path d="m2.356 9c-.187 0-.37-.059-.522-.17-.293-.212-.454-.329-.745-2.922-.229-2.032.049-3.561.139-3.981.074-.344.348-.627.692-.698.427-.092 1.956-.368 3.988-.141 2.592.291 2.71.452 2.922.745.127.174.186.389.166.604-.019.207-.248 2.082-2.362 4.196-2.195 2.163-3.946 2.334-4.278 2.366zm17.644 9h-5c0 1.271-.729 2-2 2h-2c-.552 0-1-.448-1-1s.448-1 1-1h2c-.552 0-1-.448-1-1s.448-1 1-1h-2c-.552 0-1-.448-1-1s.448-1 1-1h2c1.271 0 2 .729 2 2h5c.878 0 1-.122 1-1s-.122-1-1-1c-.581 0-.768.115-.822.165-.406.374-1.039.35-1.413-.056-.375-.406-.35-1.038.056-1.413.507-.469 1.22-.696 2.179-.696 1.648 0 2.613.703 2.9 2.071.061-.655.1-1.337.1-2.071 0-7.71-3.29-11-11-11-.458 0-.899.013-1.326.037.251.487.365 1.035.313 1.587-.042.456-.382 2.868-2.939 5.425-.48.48-.948.86-1.406 1.196.012.01.028.014.04.025 1.055.983 1.581.983 2.636 0 .403-.377 1.037-.355 1.413.049.377.404.355 1.037-.049 1.413-.915.854-1.792 1.269-2.682 1.269s-1.767-.415-2.682-1.269c-.15-.14-.23-.319-.273-.506-1.226.598-2.158.738-2.423.762-.546.048-1.104-.056-1.585-.307-.023.425-.037.863-.037 1.32 0 7.71 3.29 11 11 11 5.671 0 8.943-1.788 10.281-5.798-.501.528-1.26.798-2.281.798zm-6.731-8.682c.377-.404 1.009-.425 1.413-.049 1.055.983 1.581.983 2.636 0 .404-.377 1.036-.355 1.413.049s.355 1.037-.049 1.413c-.915.854-1.792 1.269-2.682 1.269s-1.767-.415-2.682-1.269c-.404-.376-.426-1.009-.049-1.413z"/></svg>