<svg id="Layer_1" viewBox="0 0 24 24" xmlns="http://www.w3.org/2000/svg" data-name="Layer 1"><path d="m12 1c-7.71 0-11 3.29-11 11s3.29 11 11 11 11-3.29 11-11-3.29-11-11-11zm-5 7c0 .553-.448 1-1 1s-1-.447-1-1c0-1.99 1.009-3 3-3 .552 0 1 .447 1 1s-.448 1-1 1c-.878 0-1 .121-1 1zm2.5 1c.828 0 1.5.672 1.5 1.5s-.672 1.5-1.5 1.5-1.5-.672-1.5-1.5.672-1.5 1.5-1.5zm5.48 9h-5.96c-.601 0-1.093-.515-1.011-1.101.289-2.054 1.497-2.899 3.991-2.899s3.702.845 3.991 2.899c.083.586-.41 1.101-1.011 1.101zm-.48-6c-.828 0-1.5-.672-1.5-1.5s.672-1.5 1.5-1.5 1.5.672 1.5 1.5-.672 1.5-1.5 1.5zm3.5-3c-.552 0-1-.447-1-1 0-.879-.122-1-1-1-.552 0-1-.447-1-1s.448-1 1-1c1.991 0 3 1.01 3 3 0 .553-.448 1-1 1z"/></svg>