<svg id="Layer_1" viewBox="0 0 24 24" xmlns="http://www.w3.org/2000/svg" data-name="Layer 1"><path d="m9 14.473c-.009-.31.123-.451.249-.52 1.221-.11 2.136-.495 2.751-1.18.616.766 1.685 1.007 2.876 1.247.173.198.185.891-.168 1.153-.503.518-1.503.826-2.676.826-1.789 0-3.008-.614-3.033-1.527zm-.5-9.473c1.613 0 2.762.406 3.5 1.227.738-.82 1.887-1.227 3.5-1.227 2.51 0 3.906.974 4.339 3h2.776c-1.065-4.86-4.404-7-10.614-7s-9.55 2.14-10.615 7h2.776c.432-2.026 1.829-3 4.339-3zm0 7c-1.939 0-2.5-.561-2.5-2.5s.561-2.5 2.5-2.5 2.5.561 2.5 2.5-.561 2.5-2.5 2.5zm1-2.5c0-.552-.448-1-1-1s-1 .448-1 1 .448 1 1 1 1-.448 1-1zm6 2.5c-1.939 0-2.5-.561-2.5-2.5s.561-2.5 2.5-2.5 2.5.561 2.5 2.5-.561 2.5-2.5 2.5zm0-1.5c.552 0 1-.448 1-1s-.448-1-1-1-1 .448-1 1 .448 1 1 1zm7.406-.5h-2.937c-.128 2.214-1.11 3.468-3.038 3.854.038.186.063.392.069.619.005.197-.011.39-.047.58l1.114.793c.45.32.555.944.234 1.395-.323.453-.949.552-1.395.234l-1.005-.716c-.333.29-.725.531-1.172.721l.41 1.196c.179.522-.1 1.091-.622 1.271-.509.177-1.092-.094-1.271-.622l-.473-1.38c-.246.022-.484.056-.743.056-.289 0-.546-.029-.808-.053l-.472 1.377c-.178.528-.761.799-1.27.622-.522-.18-.801-.748-.622-1.271l.409-1.193c-.463-.198-.854-.441-1.171-.724l-1.005.716c-.445.318-1.073.219-1.395-.234-.32-.45-.215-1.074.234-1.395l1.139-.811c-.034-.169-.066-.338-.071-.507-.007-.247.023-.466.068-.674-1.928-.386-2.909-1.64-3.037-3.854h-2.935c-.056.634-.094 1.292-.094 2 0 7.71 3.29 11 11 11s11-3.29 11-11c0-.708-.038-1.366-.094-2z"/></svg>