<svg id="Layer_1" viewBox="0 0 24 24" xmlns="http://www.w3.org/2000/svg" data-name="Layer 1"><path d="m12 1c-7.71 0-11 3.29-11 11s3.29 11 11 11 11-3.29 11-11-3.29-11-11-11zm-3.5 16c-.828 0-1.5-.672-1.5-1.5s.672-1.5 1.5-1.5 1.5.672 1.5 1.5-.672 1.5-1.5 1.5zm7 0c-.828 0-1.5-.672-1.5-1.5s.672-1.5 1.5-1.5 1.5.672 1.5 1.5-.672 1.5-1.5 1.5zm1.198-7.385c-.342.438-.972.511-1.404.173-.68-.53-1.758-.788-3.294-.788s-2.614.258-3.294.788c-.435.339-1.063.264-1.404-.173-.339-.436-.262-1.064.173-1.403 1.06-.827 2.498-1.212 4.525-1.212s3.465.385 4.525 1.212c.436.339.513.968.173 1.403z"/></svg>