<svg id="Layer_1" viewBox="0 0 24 24" xmlns="http://www.w3.org/2000/svg" data-name="Layer 1"><path d="m16.261 17.457c.419.693-.209 1.176-.498 1.351-.547.328-.875.244-1.214-.315l-.96-1.59c.758-.102 1.418-.281 1.988-.543l.684 1.098zm6.739-5.457c0 7.71-3.29 11-11 11s-11-3.29-11-11 3.29-11 11-11 11 3.29 11 11zm-16-2c0-.879.122-1 1-1s1 .121 1 1c0 .553.448 1 1 1s1-.447 1-1c0-1.99-1.009-3-3-3s-3 1.01-3 3c0 .553.448 1 1 1s1-.447 1-1zm10.966 6.412-1.208-1.94c-.293-.496-1.019-.627-1.464-.26-.68.53-1.758.788-3.294.788s-2.614-.258-3.294-.788c-.435-.34-1.063-.263-1.404.173-.339.436-.262 1.064.173 1.403.934.729 2.161 1.114 3.826 1.195l1.537 2.544c.925 1.538 2.521 1.874 3.96.991 1.573-.951 2.057-2.635 1.168-4.106zm1.034-6.412c0-1.99-1.01-3-3-3s-3 1.01-3 3c0 .553.447 1 1 1s1-.447 1-1c0-.879.121-1 1-1s1 .121 1 1c0 .553.447 1 1 1s1-.447 1-1z"/></svg>