<svg id="Layer_1" viewBox="0 0 24 24" xmlns="http://www.w3.org/2000/svg" data-name="Layer 1"><path d="m18 13c0 .552-.448 1-1 1s-1-.448-1-1 .448-1 1-1 1 .448 1 1zm5-1c0 7.71-3.29 11-11 11s-11-3.29-11-11 3.29-11 11-11 11 3.29 11 11zm-17.765-4.414c.855.393 1.547.547 2.351.284.679-.24 1.219-.796 1.65-1.698.238-.498.027-1.095-.472-1.333-.496-.239-1.095-.027-1.333.472-.256.535-.443.649-.512.674-.068.024-.287.053-.822-.203-.498-.237-1.096-.027-1.333.471-.238.499-.027 1.095.471 1.333zm2.765 7.414c1.99 0 3-1.009 3-3s-1.01-3-3-3c-.352 0-.663.043-.954.106.558.219.954.759.954 1.394 0 .828-.672 1.5-1.5 1.5-.635 0-1.175-.396-1.394-.954-.063.291-.106.601-.106.954 0 1.991 1.01 3 3 3zm7.713 2.298c-.858-.874-2.073-1.298-3.713-1.298s-2.854.425-3.713 1.298c-.387.394-.382 1.027.012 1.414.393.387 1.027.382 1.414-.012.47-.478 1.197-.701 2.287-.701s1.817.223 2.287.701c.386.394 1.019.398 1.414.012.394-.387.399-1.021.012-1.415zm3.287-5.298c0-1.991-1.01-3-3-3-.352 0-.663.043-.954.106.558.219.954.759.954 1.394 0 .828-.672 1.5-1.5 1.5-.635 0-1.175-.396-1.394-.954-.063.291-.106.601-.106.954 0 1.991 1.01 3 3 3s3-1.009 3-3zm.235-5.747c-.238-.499-.837-.711-1.333-.471-.537.255-.755.225-.821.203-.069-.024-.256-.139-.512-.674-.236-.497-.834-.711-1.333-.472-.498.238-.71.834-.472 1.333.431.902.97 1.458 1.649 1.698.803.263 1.495.109 2.35-.284.499-.238.71-.835.472-1.333zm-10.235 7.747c.552 0 1-.448 1-1s-.448-1-1-1-1 .448-1 1 .448 1 1 1z"/></svg>