<svg id="Layer_1" viewBox="0 0 24 24" xmlns="http://www.w3.org/2000/svg" data-name="Layer 1"><path d="m8 18.75c0 2.5 1.999 4.25 4.499 4.25.578 0 1.974-.026 3.663-1.715.564-.564 1.136-1.154 1.633-1.824.272-.367.273-.879-.037-1.215-.414-.449-1.107-.392-1.449.074 0 0-.284.343-.716.773l-.558-.558c1.181-1.202 2.269-2.522 2.299-2.566.294-.425.188-1.008-.237-1.301-.425-.294-1.008-.189-1.303.236-.007.009-1.023 1.089-2.142 2.249l-.597-.597c1.073-1.105 1.742-2.061 1.773-2.11.281-.434.157-1.013-.278-1.293-.434-.281-1.013-.157-1.295.276-.007.01-1.672 1.878-2.997 3.292-.01-.328-.03-.664-.074-.941-.163-.567-.563-.767-.95-.777-.401-.01-.746.247-.865.61 0 0-.37 1.235-.37 3.14zm4-17.75c-7.71 0-11 3.29-11 11 0 5.841 1.893 9.141 6.161 10.399-.734-1.014-1.161-2.264-1.161-3.649 0-2.137.408-3.559.454-3.714.24-.783.798-1.406 1.501-1.745-.003-.1-.016-.186-.016-.29s0 0 0-.001c0-2.856 1.161-3.999 4.061-3.999 2.418 0 3.613.811 3.949 2.73.259.223.491.473.656.769.585.008 1.149.188 1.628.52.646.445 1.079 1.116 1.22 1.887.121.659.016 1.325-.296 1.907 1.016 1.022 1.12 2.662.245 3.838-.288.388-.594.748-.899 1.083 3.094-1.586 4.497-4.72 4.497-9.735 0-7.71-3.29-11-11-11zm-2.197 6.09c-.6-.12-1.038-.121-1.304.002-.141.065-.354.216-.566.767-.197.52-.791.771-1.292.573-.516-.199-.772-.777-.573-1.293.354-.92.875-1.53 1.591-1.862.679-.315 1.486-.361 2.539-.149.542.109.893.637.783 1.178-.109.541-.64.89-1.178.783zm7.557 1.343c-.501.198-1.095-.053-1.292-.573-.213-.551-.426-.702-.567-.768-.265-.122-.701-.124-1.303-.001-.539.107-1.068-.242-1.178-.783-.109-.542.241-1.069.783-1.178 1.052-.211 1.86-.165 2.538.148.717.333 1.237.942 1.592 1.863.199.516-.058 1.094-.573 1.293z"/></svg>