<svg id="Layer_1" viewBox="0 0 24 24" xmlns="http://www.w3.org/2000/svg" data-name="Layer 1"><path d="m11 16h2v1c0 .878-.121 1-1 1s-1-.122-1-1zm5-8c-.879 0-1 .122-1 1s.121 1 1 1 1-.122 1-1-.121-1-1-1zm7 4c0 7.71-3.29 11-11 11s-11-3.29-11-11 3.29-11 11-11 11 3.29 11 11zm-16-1.001h2c.553 0 1-.448 1-1s-.447-1-1-1h-2c-.553 0-1 .448-1 1s.447 1 1 1zm10 4.001c0-.552-.447-1-1-1h-8c-.553 0-1 .448-1 1s.447 1 1 1h1v1c0 1.991 1.01 3 3 3s3-1.009 3-3v-1h1c.553 0 1-.448 1-1zm2-6c0-1.991-1.01-3-3-3s-3 1.009-3 3 1.01 3 3 3 3-1.009 3-3z"/></svg>