<svg id="Layer_1" viewBox="0 0 24 24" xmlns="http://www.w3.org/2000/svg" data-name="Layer 1"><path d="m15.012 2.314c.103-.822.854-1.401 1.674-1.302 2.527.316 4.352.714 4.428.731.571.125 1.018.572 1.143 1.143.017.077.415 1.901.731 4.428.103.822-.48 1.572-1.302 1.674-.806.106-1.575-.477-1.674-1.302-.166-1.324-.357-2.455-.496-3.202-.747-.138-1.878-.33-3.202-.496-.822-.103-1.405-.853-1.302-1.674zm-12.698 6.674c.806.106 1.575-.477 1.674-1.302.166-1.324.357-2.455.496-3.202.747-.138 1.878-.33 3.202-.496.822-.103 1.405-.853 1.302-1.674-.103-.822-.854-1.407-1.674-1.302-2.527.316-4.352.714-4.428.731-.571.125-1.018.572-1.143 1.143-.017.077-.415 1.901-.731 4.428-.103.822.48 1.572 1.302 1.674zm19.372 6.023c-.819-.098-1.571.48-1.674 1.302-.166 1.324-.357 2.455-.496 3.202-.747.138-1.878.33-3.202.496-.822.103-1.405.853-1.302 1.674.099.825.868 1.408 1.674 1.302 2.527-.316 4.352-.714 4.428-.731.571-.125 1.018-.572 1.143-1.143.017-.077.415-1.901.731-4.428.103-.822-.48-1.572-1.302-1.674zm-9.686 3.988c-4.841 0-7-2.159-7-7s2.159-7 7-7 7 2.159 7 7-2.159 7-7 7zm-2.5-7c.828 0 1.5-.672 1.5-1.5s-.672-1.5-1.5-1.5-1.5.672-1.5 1.5.672 1.5 1.5 1.5zm5.201 1.621c-.392-.386-1.026-.382-1.414.012-.089.091-.362.368-1.287.368s-1.198-.277-1.287-.368c-.387-.394-1.021-.398-1.414-.012-.394.388-.399 1.021-.012 1.414.639.649 1.526.965 2.713.965s2.074-.316 2.713-.965c.387-.394.382-1.026-.012-1.414zm1.299-3.121c0-.828-.672-1.5-1.5-1.5s-1.5.672-1.5 1.5.672 1.5 1.5 1.5 1.5-.672 1.5-1.5zm-8.314 9.513c-1.324-.166-2.455-.357-3.202-.496-.138-.747-.33-1.878-.496-3.202-.103-.822-.858-1.404-1.674-1.302-.822.103-1.405.853-1.302 1.674.316 2.527.714 4.352.731 4.428.125.571.572 1.018 1.143 1.143.077.017 1.901.415 4.428.731.806.106 1.575-.477 1.674-1.302.103-.822-.48-1.572-1.302-1.674z"/></svg>