<svg id="Layer_1" viewBox="0 0 24 24" xmlns="http://www.w3.org/2000/svg" data-name="Layer 1"><path d="m22.954 10.531c-.093.353-.332.714-.722 1.104l-.092.092-.933-.933c-.391-.391-1.023-.391-1.414 0s-.391 1.023 0 1.414l.933.933-1.086 1.086-.933-.933c-.391-.391-1.023-.391-1.414 0s-.391 1.023 0 1.414l.933.933-.726.726c-.583.464-.628.633-1.5.633-.329 0-.502-.058-.709-.212-.68-.53-1.758-.788-3.294-.788s-2.614.258-3.294.788c-.435.34-1.064.264-1.404-.173-.339-.436-.262-1.064.173-1.403 1.06-.827 2.498-1.212 4.525-1.212.794 0 1.475.078 2.101.199 2.004-1.983 5.269-5.431 5.269-5.431 1.024-1.024 1.843-1.024 2.867 0 .316.316.523.612.644.902-.644-6.04-3.997-8.669-10.876-8.669-7.712-.001-11.002 3.289-11.002 10.999s3.29 11 11 11 11-3.29 11-11c0-.51-.017-.998-.046-1.469zm-7.458-2.531c.828 0 1.5.672 1.5 1.5s-.672 1.5-1.5 1.5-1.5-.672-1.5-1.5.672-1.5 1.5-1.5zm-7 0c.828 0 1.5.672 1.5 1.5s-.672 1.5-1.5 1.5-1.5-.672-1.5-1.5.672-1.5 1.5-1.5z"/></svg>