<svg id="Layer_1" viewBox="0 0 24 24" xmlns="http://www.w3.org/2000/svg" data-name="Layer 1"><path d="m1.612 7.306c1.294-4.275 4.677-6.306 10.388-6.306s9.094 2.031 10.388 6.306c-.16-.047-2.09-.295-4.388-.306-2.246 0-4.087.309-4.165.321-.47.08-.818.48-.832.957 0 .03-.008.348.004.801-.293-.047-.622-.079-1.007-.079s-.714.032-1.007.079c.012-.452.005-.77.004-.801-.014-.477-.362-.877-.832-.957-.077-.013-1.918-.321-4.165-.321-2.298.011-4.227.259-4.388.306zm13.399 1.874c.028.847.126 1.821.443 2.688.654.07 1.521.132 2.546.132 1.333 0 2.607-.108 3.359-.187.176-.819.178-1.792 0-2.627-.752-.078-2.026-.187-3.359-.187-1.195 0-2.281.097-2.989.18zm-12.37.007c-.177.807-.177 1.819 0 2.626.752.079 2.026.188 3.359.188 1.052 0 1.933-.066 2.546-.132.317-.867.415-1.843.443-2.688-.708-.083-1.794-.18-2.989-.18-1.333 0-2.607.108-3.359.187zm20.318 4.155c-.406 6.58-3.917 9.658-10.959 9.658s-10.554-3.078-10.96-9.659c.157.195.376.336.634.371.084.012 2.094.288 4.325.288 1.582 0 2.816-.14 3.412-.224.357-.05.66-.288.792-.624.289-.75.472-1.307.586-1.964.181-.076.555-.188 1.211-.188s1.032.113 1.211.189c.114.657.296 1.214.585 1.963.133.336.436.575.793.624.735.103 1.924.224 3.41.224 2.231 0 4.24-.275 4.325-.287.258-.036.478-.176.635-.371zm-5.359 2.858c-.443-.331-1.069-.242-1.4.2-1.2 1.6-3.302 1.6-4.2 1.6-.552 0-1 .447-1 1s.448 1 1 1c1.094 0 4 0 5.8-2.4.332-.441.242-1.068-.2-1.399z"/></svg>