<svg id="Layer_1" viewBox="0 0 24 24" xmlns="http://www.w3.org/2000/svg" data-name="Layer 1"><path d="m12 1c-7.71 0-11 3.29-11 11 0 6.381 2.262 9.727 7.409 10.693-.033-.099-.067-.198-.089-.301-.032-.144-.32-1.486-.32-2.892s.288-2.748.321-2.896c.246-1.124 1.129-2.014 2.253-2.274.394-2.036.776-3.517.792-3.582.139-.534.681-.857 1.219-.716.534.139.855.685.717 1.219-.004.014-.299 1.159-.631 2.781.269-.019.546-.033.829-.033 1.406 0 2.748.288 2.896.321 1.135.249 2.032 1.146 2.283 2.284.005.021.037.169.079.405.871-.061 1.738.246 2.362.87.23.23.402.494.541.769.904-1.682 1.338-3.875 1.338-6.648 0-7.71-3.29-11-11-11zm-2.58 11.208c-.217.513-.816.743-1.312.529-.451-.192-.862-.432-1.223-.713-.436-.339-.514-.968-.174-1.403.339-.436.969-.513 1.403-.174.224.175.485.326.777.45.508.216.745.804.529 1.312zm-.888-4.212c-.827 0-1.498-.671-1.498-1.498s.67-1.498 1.498-1.498 1.498.67 1.498 1.498-.67 1.498-1.498 1.498zm5.498-1.485c0-.82.665-1.485 1.485-1.485s1.485.665 1.485 1.485-.665 1.485-1.485 1.485-1.485-.665-1.485-1.485zm3.084 5.513c-.362.282-.773.521-1.223.713-.496.214-1.096-.015-1.312-.529-.217-.508.021-1.096.528-1.312.295-.125.549-.272.777-.45.438-.339 1.065-.26 1.403.175.339.436.261 1.064-.175 1.403zm2.593 8.684c-1.586 1.586-3.5 2.293-6.207 2.293-1.206 0-2.414-.262-2.464-.273-.381-.083-.679-.381-.762-.762-.011-.051-.273-1.258-.273-2.464s.262-2.414.273-2.464c.083-.381.381-.679.762-.762.051-.011 1.258-.273 2.464-.273s2.414.262 2.465.273c.381.083.678.381.762.762.095.424.229 1.334.256 1.907.029.57-.396 1.039-.999 1.058-.528 0-.967-.414-.997-.942-.012-.214-.032-.423-.055-.616-.033-.274-.275-.476-.556-.438-.273.032-.47.28-.438.555.021.174.039.364.051.557.061 1.057.938 1.885 1.995 1.885.572 0 1.115-.241 1.494-.67.178-.2.312-.429.397-.675.141-.116.284-.228.418-.362.391-.391 1.023-.391 1.414 0s.391 1.023 0 1.414z"/></svg>