<svg id="Layer_1" viewBox="0 0 24 24" xmlns="http://www.w3.org/2000/svg" data-name="Layer 1"><path d="m15.643 11.033c.015.065.357 1.628.357 3.467s-.343 3.401-.357 3.467c-.026.119-.079.225-.143.323v3.21c0 .828-.671 1.5-1.5 1.5s-1.5-.672-1.5-1.5v-2.512c-.168.007-.336.012-.5.012s-.332-.005-.5-.012v2.512c0 .828-.671 1.5-1.5 1.5s-1.5-.672-1.5-1.5v-3.21c-.064-.098-.116-.205-.143-.323-.015-.065-.357-1.628-.357-3.467s.343-3.401.357-3.467c.088-.396.408-.701.808-.769.063-.011 1.564-.265 2.834-.265s2.771.254 2.834.265c.4.067.72.372.808.769zm-3.643-2.033c1.429 0 2-.571 2-2s-.571-2-2-2-2 .571-2 2 .571 2 2 2zm-6-4c1.429 0 2-.571 2-2s-.571-2-2-2-2 .571-2 2 .571 2 2 2zm12 0c1.429 0 2-.571 2-2s-.571-2-2-2-2 .571-2 2 .571 2 2 2zm-10 2c0-.31.023-.602.066-.879-.639-.066-1.376-.121-2.066-.121-1.663 0-3.635.321-3.718.334-.4.066-.721.367-.812.762-.019.083-.47 2.066-.47 4.403s.451 4.32.47 4.403c.091.395.412.696.812.762.014.002.102.016.218.034v4.801c0 .828.671 1.5 1.5 1.5s1.5-.672 1.5-1.5v-4.511c.226.007.447.015.671.007-.09-.684-.171-1.554-.171-2.496 0-2.067.389-3.83.406-3.903.217-.979.901-1.758 1.806-2.121-.131-.443-.212-.928-.212-1.475zm13.109.548c-.784-1.548-2.537-1.548-3.112-1.548-.377 0-1.256.009-2.039.441.017.184.042.362.042.559 0 .547-.081 1.032-.212 1.475.904.363 1.589 1.142 1.807 2.126.016.069.405 1.832.405 3.899s-.389 3.83-.406 3.903c-.133.601-.441 1.128-.868 1.531.599.055 1.178.085 1.77.051v1.515c0 .828.671 1.5 1.5 1.5s1.5-.672 1.5-1.5v-1.881c.408-.076.688-.137.719-.144.433-.097.75-.467.779-.91-.004-.354-.015-.329.002-1.045.061-2.883-.701-7.692-1.888-9.973z"/></svg>