<svg id="Layer_1" viewBox="0 0 24 24" xmlns="http://www.w3.org/2000/svg" data-name="Layer 1"><path d="m15.558 11.033c.015.065.357 1.628.357 3.467s-.343 3.401-.357 3.467c-.026.119-.079.225-.143.323v3.21c0 .829-.671 1.5-1.5 1.5s-1.5-.671-1.5-1.5v-2.512c-.168.007-.336.012-.5.012s-.332-.005-.5-.012v2.512c0 .829-.671 1.5-1.5 1.5s-1.5-.671-1.5-1.5v-3.21c-.064-.098-.116-.205-.143-.323-.015-.065-.357-1.628-.357-3.467s.343-3.401.357-3.467c.088-.396.408-.701.808-.769.063-.011 1.564-.265 2.834-.265s2.771.254 2.834.265c.4.067.72.372.808.769zm-3.643-2.033c1.429 0 2-.571 2-2s-.571-2-2-2-2 .571-2 2 .571 2 2 2zm-6-4c1.429 0 2-.571 2-2s-.571-2-2-2-2 .571-2 2 .571 2 2 2zm2 2c0-.31.023-.602.066-.879-.639-.066-1.376-.121-2.066-.121-1.663 0-3.635.321-3.718.334-.4.066-.721.367-.812.762-.019.083-.47 2.066-.47 4.403s.451 4.32.47 4.403c.091.395.412.696.812.762.014.002.102.016.218.034v4.801c0 .829.671 1.5 1.5 1.5s1.5-.671 1.5-1.5v-4.511c.227.007.447.015.671.007-.09-.684-.171-1.554-.171-2.496 0-2.067.389-3.83.406-3.903.217-.979.901-1.758 1.806-2.121-.131-.443-.212-.928-.212-1.475zm10.17-2c1.429 0 2-.571 2-2s-.571-2-2-2-2 .571-2 2 .571 2 2 2zm4.53 2.097c-.091-.395-.412-.696-.812-.762-.083-.014-2.055-.334-3.718-.334-.69 0-1.426.056-2.066.121.043.277.066.569.066.879 0 .547-.081 1.032-.212 1.475.905.364 1.589 1.142 1.806 2.121.017.073.406 1.836.406 3.903 0 .943-.081 1.812-.171 2.496.224.008.444 0 .671-.007v4.511c0 .829.671 1.5 1.5 1.5s1.5-.671 1.5-1.5v-4.801c.116-.018.203-.031.218-.034.4-.066.721-.367.812-.762.019-.083.47-2.066.47-4.403s-.451-4.32-.47-4.403z"/></svg>