<svg id="Layer_1" viewBox="0 0 24 24" xmlns="http://www.w3.org/2000/svg" data-name="Layer 1"><path d="m5.844 16.216c-.964-.837-1.62-1.979-1.985-3.449.186.009.362.035.554.035 1.772 0 3.743-.398 5.397-1.004-.864 1.51-2.182 3.314-3.966 4.419zm12.635-.29c.927-.94 1.517-2.218 1.806-3.844-1.526-.818-3.524-1.218-5.225-1.409 1.307 1.373 2.608 3.234 3.419 5.253zm-2.631-14.41c-1.514 2.13-2.473 5.03-2.757 7.005 1.961.073 4.95.378 7.395 1.447.004-.157.014-.307.014-.468 0-4.39-1.463-6.962-4.652-7.984zm-5.21 7.727c-.989-1.56-2.475-4.267-2.829-7.599-2.945 1.096-4.309 3.63-4.309 7.856 0 .444.02.863.05 1.27 2.289.253 5.438-.573 7.088-1.526zm3.098-8.149c-.546-.058-1.119-.094-1.736-.094-.806 0-1.545.054-2.231.155.179 2.141.921 4.033 1.668 5.474.444-1.769 1.221-3.794 2.298-5.534zm2.123 18.95c-.494-.133-1.161-.327-2.359-.461v-1.652c1.279-.117 2.373-.388 3.289-.825-.937-2.664-2.912-4.992-4.32-6.111-.716 1.59-2.26 4.44-4.731 6.336.799.306 1.723.5 2.762.596v1.657c-1.2.134-1.864.328-2.359.461-.805.198-1.296 1.011-1.097 1.816.199.804 1.018 1.296 1.815 1.096.672-.173 1.485-.441 3.141-.456 1.935.002 2.452.37 3.501.5.674 0 1.286-.458 1.455-1.141.199-.805-.292-1.618-1.097-1.816z"/></svg>