<svg id="Layer_1" viewBox="0 0 24 24" xmlns="http://www.w3.org/2000/svg" data-name="Layer 1"><path d="m10.202 7.831c-.447-1.753-.177-3.675 1.049-5.014 1.384-1.509 2.768-1.817 4.286-1.817 2.311 0 3.482 1.178 3.482 3.5s-1.172 3.5-3.482 3.5c-.338 0-.879.191-1.341.536-.601-.338-1.329-.531-2.183-.536-.622.004-1.18.097-1.667.274-.074-.219-.133-.399-.144-.444zm5.524 2.516c.177.487.271 1.044.274 1.667-.005.854-.198 1.582-.536 2.183.345.461.536 1.002.536 1.341 0 2.311 1.178 3.482 3.5 3.482s3.5-1.172 3.5-3.482c0-1.518-.308-2.902-1.817-4.286-1.338-1.227-3.261-1.496-5.014-1.049-.045.011-.224.071-.444.144zm-2.073 5.379c-.487.177-1.044.271-1.667.274-.854-.005-1.582-.198-2.183-.536-.461.345-1.002.536-1.341.536-2.311 0-3.482 1.178-3.482 3.5s1.172 3.5 3.482 3.5c1.518 0 2.902-.308 4.286-1.817 1.227-1.338 1.496-3.261 1.049-5.014-.011-.045-.071-.224-.144-.444zm-5.379-2.073c-.177-.487-.271-1.044-.274-1.667.005-.854.198-1.582.536-2.183-.345-.461-.536-1.002-.536-1.341 0-2.311-1.178-3.482-3.5-3.482s-3.5 1.172-3.5 3.482c0 1.518.308 2.902 1.817 4.286 1.338 1.227 3.261 1.496 5.014 1.049.045-.011.224-.071.444-.144zm5.726-1.662c-.021-1.239-.768-1.983-2.003-1.991-1.247.008-1.974.734-1.997 1.991v.018c.023 1.276.733 1.983 2.003 1.991 1.264-.007 1.973-.714 1.997-2.009z"/></svg>