<svg id="Layer_1" viewBox="0 0 24 24" xmlns="http://www.w3.org/2000/svg" data-name="Layer 1"><path d="m22.783 17.355c-.075.095-.731.951-2.193 1.734-1.562.817-2.319.89-2.579.91-.266 0-.522-.106-.711-.296-.055-.056-1.512-1.286-2.796-2.825-1.349.081-2.557.121-4.056.121-5.73 0-8.408-.187-8.52-.195-.523-.038-.929-.473-.929-.998v-4.5c0-.508.381-.936.886-.994.078-.009 1.396-.156 4.104-.245.019-.559.436-.977.973-1.003.494-.02 1.011-.035 1.537-.045v-1.628c-1.774-.123-3.221-.407-3.297-.423-.812-.164-1.336-.954-1.173-1.766s.954-1.341 1.766-1.175c.021.004 2.121.421 4.204.421 1.931 0 4.201-.42 4.225-.425.809-.151 1.598.385 1.75 1.199s-.385 1.598-1.199 1.75c-.08.015-1.58.29-3.275.414v1.62c.542.007 1.066.017 1.55.034.545.019.975.47.966 1.016v.026c3.194.157 4.797.487 5.036.535.255.052.483.201.63.417 2.626 3.839 3.264 5.355 3.29 5.46.074.3.004.618-.188.86z"/></svg>