<svg id="Layer_1" viewBox="0 0 24 24" xmlns="http://www.w3.org/2000/svg" data-name="Layer 1"><path d="m19.876 2.686c-.099-.278-.315-.498-.591-.602-.116-.043-2.888-1.063-7.285-1.063s-7.169 1.02-7.285 1.063c-.275.104-.492.324-.591.602-.046.129-1.124 3.233-1.124 9.335 0 1.799.095 4.4.283 7.732.011.197.08.386.198.543.349.466.717.893 1.092 1.268.832.833 1.56 1.274 1.59 1.292.315.19.71.191 1.025.003.032-.019.792-.474 1.629-1.311.204-.205.392-.407.559-.596.166.189.354.391.559.595.837.837 1.597 1.292 1.629 1.311.316.188.711.187 1.025-.003.03-.019.758-.46 1.59-1.292.209-.209.401-.42.572-.62.167.194.354.399.56.604.837.837 1.597 1.292 1.629 1.311.157.093.333.14.51.14.179 0 .357-.048.516-.143.03-.019.758-.46 1.59-1.292.436-.435.759-.836.954-1.097.118-.158.188-.347.198-.544.134-2.37.293-5.664.293-7.903 0-6.102-1.078-9.206-1.124-9.335zm-11.543 3.946c-.716-.061-1.623.004-2.162.089-.048.376-.104.922-.132 1.539.376-.033.83-.06 1.316-.06.441 0 .8.358.8.8s-.358.8-.8.8c-.49 0-.951.032-1.31.067.058 1.19.206 2.202.208 2.215.065.437-.235.844-.672.91-.428.068-.846-.233-.91-.672-.011-.067-.249-1.678-.249-3.319 0-1.651.242-3.041.252-3.099.056-.315.294-.566.605-.64.045-.011 1.126-.261 2.343-.261.298 0 .585.015.849.038.44.038.767.425.729.866s-.431.764-.865.728zm4.321 1.568c.441 0 .8.358.8.8s-.358.8-.8.8h-1.312c.029.602.084 1.133.131 1.498.318.051.803.103 1.448.103.256 0 .501-.014.728-.034.436-.034.829.285.869.725s-.285.829-.725.869c-.271.024-.565.04-.872.04-1.526 0-2.327-.252-2.413-.281-.278-.093-.483-.331-.535-.62-.01-.058-.252-1.448-.252-3.099s.242-3.041.252-3.099c.052-.289.257-.527.535-.62.086-.029.887-.281 2.413-.281.307 0 .601.016.872.04.439.04.765.429.725.869s-.436.757-.869.725c-.227-.021-.472-.034-.728-.034-.645 0-1.129.052-1.448.104-.047.364-.101.896-.131 1.497h1.312zm5.3 0c.441 0 .8.358.8.8s-.358.8-.8.8h-1.312c.029.602.084 1.133.131 1.498.318.051.803.103 1.448.103.256 0 .502-.014.728-.034.435-.034.829.285.869.725s-.285.829-.725.869c-.271.024-.565.04-.872.04-1.526 0-2.327-.252-2.413-.281-.278-.093-.483-.331-.535-.62-.01-.058-.252-1.448-.252-3.099s.242-3.041.252-3.099c.052-.289.257-.527.535-.62.086-.029.887-.281 2.413-.281.307 0 .602.016.872.04.439.04.765.429.725.869s-.437.756-.869.725c-.226-.021-.472-.034-.728-.034-.645 0-1.129.052-1.448.104-.047.364-.101.896-.131 1.497h1.312z"/></svg>