<svg id="Layer_1" viewBox="0 0 24 24" xmlns="http://www.w3.org/2000/svg" data-name="Layer 1"><path d="m12.261 13.983c-.09.003-.168.017-.261.017-2.691 0-4-1.309-4-4s1.309-4 4-4 4 1.309 4 4c0 .795-.129 1.455-.359 2.011.906.025 1.648.284 2.206.738.383-.3.823-.525 1.309-.646.908-.226 1.848-.085 2.647.397.394.236.73.542.998.9.113-.955.2-2.086.2-3.4 0-3.974-.764-6.447-.796-6.55-.106-.339-.384-.595-.729-.675-.138-.031-3.431-.775-9.475-.775s-9.338.744-9.476.775c-.345.08-.623.336-.729.675-.032.103-.796 2.576-.796 6.55s.764 6.447.796 6.55c.106.339.384.595.729.675.138.031 3.431.775 9.475.775.297 0 .582-.003.866-.007-.557-.598-.866-1.44-.866-2.493 0-.569.092-1.075.261-1.517zm6.239-8.983c.828 0 1.5.672 1.5 1.5s-.672 1.5-1.5 1.5-1.5-.672-1.5-1.5.672-1.5 1.5-1.5zm-13 10c-.828 0-1.5-.672-1.5-1.5s.672-1.5 1.5-1.5 1.5.672 1.5 1.5-.672 1.5-1.5 1.5zm0-7c-.828 0-1.5-.672-1.5-1.5s.672-1.5 1.5-1.5 1.5.672 1.5 1.5-.672 1.5-1.5 1.5zm8.5 2c0 1.589-.411 2-2 2s-2-.411-2-2 .411-2 2-2 2 .411 2 2zm1.5 7c-1.071 0-1.5-.429-1.5-1.5s.429-1.5 1.5-1.5 1.5.429 1.5 1.5-.429 1.5-1.5 1.5zm7.5 3.5c0 1.071-.429 1.5-1.5 1.5s-1.5-.429-1.5-1.5.429-1.5 1.5-1.5 1.5.429 1.5 1.5zm-1.714-4.228-3 5c-.281.468-.778.728-1.287.728-.263 0-.529-.069-.771-.214-.711-.426-.941-1.348-.515-2.058l3-5c.427-.71 1.35-.94 2.058-.514.711.426.941 1.348.515 2.058z"/></svg>