<svg id="Layer_1" viewBox="0 0 24 24" xmlns="http://www.w3.org/2000/svg" data-name="Layer 1"><path d="m22.162 2.256c-.132-.293-.396-.505-.711-.569-.137-.028-3.419-.687-9.451-.687s-9.314.659-9.451.687c-.315.064-.58.276-.711.569-.034.076-.838 1.896-.838 4.744s.804 4.668.838 4.744c.132.293.396.505.711.569.098.02 1.804.36 4.959.554l-.002-.342c-.01-1.317.559-2.571 1.559-3.434.358-.309.767-.532 1.192-.712.057-.246.106-.492.176-.738-.281-.239-.561-.488-.852-.746-.142-.126-.197-.323-.141-.504s.212-.313.401-.337c.438-.056.827-.098 1.193-.125.161-.389.34-.777.534-1.163.083-.163.25-.279.432-.266.182-.013.349.102.432.266.194.386.372.774.534 1.163.365.027.755.069 1.193.125.188.024.345.156.401.337s0 .378-.141.504c-.29.258-.57.507-.852.746.069.242.117.484.173.725 1.614.696 2.751 2.331 2.764 4.186l.002.313c3.146-.194 4.848-.533 4.945-.553.314-.064.579-.276.711-.569.034-.076.838-1.896.838-4.744s-.804-4.668-.838-4.744zm-14.244 4.639c-.29.258-.57.507-.852.746.123.428.225.855.307 1.282.034.178-.034.361-.177.472-.144.112-.336.134-.501.057-.437-.202-.829-.413-1.194-.635-.365.222-.758.433-1.194.635-.165.077-.358.055-.501-.057s-.211-.294-.177-.472c.081-.427.184-.855.307-1.282-.281-.239-.561-.488-.852-.746-.142-.126-.197-.323-.141-.504s.212-.313.401-.337c.438-.056.827-.098 1.193-.125.161-.389.34-.777.534-1.163.083-.163.25-.279.432-.266.182-.013.349.102.432.266.194.386.372.774.534 1.163.365.027.755.069 1.193.125.188.024.345.156.401.337s0 .378-.141.504zm13 0c-.29.258-.57.507-.852.746.123.428.225.856.307 1.282.034.178-.034.361-.177.472-.144.112-.336.135-.501.057-.437-.202-.829-.413-1.194-.635-.365.222-.758.433-1.194.635-.165.077-.358.055-.501-.057s-.211-.294-.177-.472c.081-.427.184-.854.307-1.282-.282-.239-.561-.488-.852-.746-.142-.126-.197-.323-.141-.504s.212-.313.401-.337c.438-.056.827-.098 1.193-.125.161-.389.34-.777.534-1.163.083-.163.25-.279.432-.266.182-.013.349.102.432.266.194.386.372.774.534 1.163.365.027.755.069 1.193.125.188.024.345.156.401.337s0 .378-.141.504zm1.082 13.069c-.005.765.045 1.417-.007 2.111-.039.519-.47.921-.99.925h-15.177c-.385 0-.745-.217-.902-.568-.769-1.717-.889-3.091-.892-3.097-.155-.845.272-1.71 1.038-2.102.68-.349 1.437-.296 2.082.096.719.611 1.582 1.587 2.393 2.712l-.034-7.528c-.006-1.386 1.115-2.512 2.501-2.512 1.376 0 2.494 1.112 2.501 2.488l.024 4.492c2.324.341 4.989 1.156 6.95 2.116.328.16.515.504.513.869z"/></svg>