<svg id="Layer_1" viewBox="0 0 24 24" xmlns="http://www.w3.org/2000/svg" data-name="Layer 1"><path d="m22.032 4.407c-.13-.301-.401-.52-.724-.583-.041-.008-4.476-.824-9.309-.824s-9.305.816-9.347.824c-.323.063-.594.282-.725.583-.116.267-.929 3.024-.929 6.593s.812 6.326.929 6.593c.131.302.401.52.725.583.023.004 2.672.473 5.984.702.737.587 2.585 2.119 3.371 2.122.787-.003 2.638-1.536 3.373-2.124 3.28-.229 5.9-.695 5.924-.7.324-.062.596-.281.727-.583.127-.292.968-3.043.968-6.593s-.841-6.3-.968-6.593zm-14.114 6.488c-.29.258-.57.507-.852.746.123.428.225.855.307 1.282.034.178-.034.361-.177.472-.144.112-.336.135-.501.057-.437-.202-.829-.413-1.194-.635-.365.222-.757.433-1.194.635-.165.077-.358.054-.501-.057-.143-.112-.211-.294-.177-.472.081-.427.184-.855.307-1.282-.282-.239-.561-.488-.852-.746-.142-.126-.197-.323-.141-.504s.212-.313.401-.337c.438-.056.827-.098 1.192-.125.161-.389.34-.777.534-1.163.083-.163.25-.279.432-.266.182-.013.35.102.432.266.194.386.372.774.534 1.163.365.027.755.069 1.192.125.188.024.345.156.401.337s0 .378-.141.504zm6.5 0c-.29.258-.57.507-.852.746.123.428.225.855.307 1.282.034.178-.034.361-.177.472-.144.112-.336.135-.501.057-.437-.202-.829-.413-1.194-.635-.365.222-.757.433-1.194.635-.165.077-.358.054-.501-.057-.143-.112-.211-.294-.177-.472.081-.427.184-.855.307-1.282-.282-.239-.561-.488-.852-.746-.142-.126-.197-.323-.141-.504s.212-.313.401-.337c.438-.056.827-.098 1.192-.125.161-.389.34-.777.534-1.163.083-.163.25-.279.432-.266.182-.013.35.102.432.266.194.386.372.774.534 1.163.365.027.755.069 1.192.125.188.024.345.156.401.337s0 .378-.141.504zm6.5 0c-.29.258-.57.507-.852.746.123.428.225.856.307 1.282.034.178-.034.361-.177.472-.144.112-.336.135-.501.057-.437-.202-.829-.413-1.194-.635-.365.222-.757.433-1.194.635-.165.077-.358.054-.501-.057-.143-.112-.211-.294-.177-.472.081-.427.184-.855.307-1.282-.282-.239-.561-.488-.852-.746-.142-.126-.197-.323-.141-.504s.212-.313.401-.337c.438-.056.827-.098 1.192-.125.161-.389.34-.777.534-1.163.083-.163.25-.279.432-.266.182-.013.35.102.432.266.194.386.372.774.534 1.163.365.027.755.069 1.192.125.188.024.345.156.401.337s0 .378-.141.504z"/></svg>