<svg id="Layer_1" viewBox="0 0 24 24" xmlns="http://www.w3.org/2000/svg" data-name="Layer 1"><path d="m21.086 2.057c-.156-.257-.421-.43-.719-.472-.425-.06-4.285-.584-8.867-.584-4.46 0-8.133.486-8.832.585-.297.042-.56.215-.716.472-.202.333-.953 2.414-.953 4.943 0 .773.074 1.495.177 2.147.436-.845 1.275-1.409 2.211-1.543.715-.101 4.513-.604 9.111-.604 5.106.046 8.531.473 9.477.689.011-.226.023-.453.023-.689 0-2.578-.721-4.625-.914-4.943zm-9.086 3.943h-7c-.552 0-1-.448-1-1s.448-1 1-1h7c.552 0 1 .448 1 1s-.448 1-1 1zm6 0h-2c-.552 0-1-.448-1-1s.448-1 1-1h2c.552 0 1 .448 1 1s-.448 1-1 1zm4.086 4.057c-.156-.257-.421-.43-.719-.472-.425-.06-4.285-.584-8.867-.584-4.46 0-8.133.486-8.832.585-.297.042-.56.215-.716.472-.202.333-.953 2.414-.953 4.943s.751 4.611.953 4.943c.156.257.444.434.741.476.588.082 2.67.355 5.489.496.738.586 2.554 2.082 3.326 2.085.771-.002 2.59-1.501 3.328-2.086 2.83-.142 4.923-.414 5.531-.499.298-.041.562-.214.719-.472.193-.318.914-2.366.914-4.943s-.721-4.625-.914-4.943zm-13.668 4.838c-.29.258-.57.507-.852.746.123.428.225.855.307 1.282.034.178-.034.361-.177.472-.144.112-.336.134-.501.057-.437-.202-.829-.413-1.194-.635-.365.222-.758.433-1.194.635-.165.077-.358.055-.501-.057s-.211-.294-.177-.472c.081-.427.184-.855.307-1.282-.281-.239-.561-.488-.852-.746-.142-.126-.197-.323-.141-.504s.212-.313.401-.337c.438-.056.827-.098 1.193-.125.161-.389.34-.777.534-1.163.083-.163.25-.279.432-.266.182-.013.349.102.432.266.194.386.372.774.534 1.163.365.027.755.069 1.193.125.188.024.345.156.401.337s0 .378-.141.504zm6.5 0c-.29.258-.57.507-.852.746.123.428.225.855.307 1.282.034.178-.034.361-.177.472-.144.112-.336.134-.501.057-.437-.202-.829-.413-1.194-.635-.365.222-.758.433-1.194.635-.165.077-.358.055-.501-.057s-.211-.294-.177-.472c.081-.427.184-.855.307-1.282-.281-.239-.561-.488-.852-.746-.142-.126-.197-.323-.141-.504s.212-.313.401-.337c.438-.056.827-.098 1.193-.125.161-.389.34-.777.534-1.163.083-.163.25-.279.432-.266.182-.013.349.102.432.266.194.386.372.774.534 1.163.365.027.755.069 1.193.125.188.024.345.156.401.337s0 .378-.141.504zm6.5 0c-.29.258-.57.507-.852.746.123.428.225.856.307 1.282.034.178-.034.361-.177.472-.144.112-.336.135-.501.057-.437-.202-.829-.413-1.194-.635-.365.222-.758.433-1.194.635-.165.077-.358.055-.501-.057s-.211-.294-.177-.472c.081-.427.184-.854.307-1.282-.282-.239-.561-.488-.852-.746-.142-.126-.197-.323-.141-.504s.212-.313.401-.337c.438-.056.827-.098 1.193-.125.161-.389.34-.777.534-1.163.083-.163.25-.279.432-.266.182-.013.349.102.432.266.194.386.372.774.534 1.163.365.027.755.069 1.193.125.188.024.345.156.401.337s0 .378-.141.504z"/></svg>