<svg id="Layer_1" viewBox="0 0 24 24" xmlns="http://www.w3.org/2000/svg" data-name="Layer 1"><path d="m15.143 4.115c-.378.335-.741.659-1.107.97.16.556.293 1.112.399 1.667.044.232-.044.469-.23.614-.187.145-.437.175-.652.075-.568-.263-1.078-.537-1.553-.826-.475.289-.985.563-1.553.826-.215.1-.465.071-.652-.075-.186-.145-.274-.382-.23-.614.106-.555.239-1.111.399-1.667-.366-.311-.73-.635-1.107-.97-.184-.164-.256-.42-.183-.656s.276-.407.521-.438c.569-.073 1.075-.128 1.55-.163.21-.506.441-1.011.694-1.512.107-.212.325-.363.562-.345.237-.017.454.133.562.345.252.502.484 1.006.694 1.512.475.035.981.09 1.55.163.245.031.448.203.521.438s0 .492-.183.656zm7.683 2.345c-.073-.235-.276-.407-.521-.438-.569-.073-1.075-.128-1.55-.163-.21-.506-.441-1.011-.694-1.512-.107-.212-.325-.363-.562-.345-.237-.017-.454.133-.562.345-.252.502-.484 1.006-.694 1.512-.475.035-.981.09-1.55.163-.245.031-.448.203-.521.438s0 .492.183.656c.378.335.741.659 1.107.97-.16.556-.293 1.112-.399 1.667-.044.232.044.469.23.614.187.145.437.175.652.075.568-.263 1.078-.537 1.553-.826.475.289.985.563 1.553.826.215.1.465.071.652-.075.186-.145.274-.382.23-.614-.106-.555-.239-1.111-.399-1.667.366-.311.73-.635 1.107-.97.184-.164.256-.42.183-.656zm-14.999 0c-.073-.235-.276-.407-.521-.438-.569-.073-1.075-.128-1.55-.163-.21-.506-.441-1.011-.694-1.512-.107-.212-.325-.363-.562-.345-.237-.017-.454.133-.562.345-.252.502-.484 1.006-.694 1.512-.475.035-.981.09-1.55.163-.245.031-.448.203-.521.438s0 .492.183.656c.378.335.741.659 1.107.97-.16.556-.293 1.112-.399 1.667-.044.232.044.469.23.614.187.145.437.175.652.075.568-.263 1.078-.537 1.553-.826.475.289.985.563 1.553.826.215.1.465.071.652-.075.186-.145.274-.382.23-.614-.106-.555-.239-1.111-.399-1.667.366-.311.73-.635 1.107-.97.184-.164.256-.42.183-.656zm.173 6.59c-.546.045-1.355.126-2.159.255-.484.078-.841.496-.841.987v5.708c0 .466.322.871.776.975.756.174 1.615.259 2.223.3v-8.225zm10.976.304c-.005-.405-.253-.767-.629-.917-1.014-.405-3.584-.436-4.347-.436-.348 0-.678.024-1.011.042.344-.81.48-1.404.48-1.404.121-.577-.117-1.137-.597-1.453-.497-.328-1.134-.275-1.569.088 0 0-.636.635-1.303 1.731v10.928c1.842.652 4.233 1.068 6.414 1.068.358 0 .688-.191.867-.501 1.235-2.15 1.597-4.669 1.681-6.383.056-.781.015-2.761.015-2.761z"/></svg>