<?xml version="1.0" encoding="UTF-8"?>
<svg xmlns="http://www.w3.org/2000/svg" id="Layer_1" data-name="Layer 1" viewBox="0 0 24 24">
  <path d="M16.744,15.875c2.54-.4,6.256-1.583,6.256-3.875s-3.716-3.475-6.256-3.875c-.675-1.219-1.417-2.257-2.431-3.118h1.603c.553,0,1-.448,1-1s-.447-1-1-1c0,0-5.673,.002-5.676,.002-.307,.016-.597,.173-.776,.438-.057,.084-1.301,1.954-1.894,5.422h-.614c-.767-1.073-1.725-1.735-3.108-2.169-.36-.112-.754-.014-1.018,.258-.074,.077-1.83,1.922-1.83,5.042,0,3.162,1.763,4.975,1.838,5.051,.263,.265,.653,.361,1.009,.25,1.385-.434,2.343-1.096,3.109-2.169h.614c.593,3.468,1.837,5.338,1.894,5.422,.18,.266,.472,.423,.78,.438,.014,0,5.672,.001,5.672,.001,.553,0,1-.448,1-1s-.447-1-1-1h-1.602c1.013-.861,1.756-1.899,2.43-3.118Z"/>
</svg>
