<svg id="Layer_1" viewBox="0 0 24 24" xmlns="http://www.w3.org/2000/svg" data-name="Layer 1"><path d="m8.017 12.507c0-1.14.099-1.958.191-2.473 1.817.099 1.817.58 1.817 1.174 0 .6 0 1.218-2.008 1.299zm13.271-5.508c-.015-.016-.026-.034-.042-.049-1.191-1.181-4.156-4.088-5.347-5.255-.115-.112-.246-.205-.383-.287-.061 2.634.109 4.431.232 5.326 1.062.141 3.211.365 5.54.265zm.712 5.001c0 2.97-.338 6.092-.999 9.185-.085.399-.406.718-.804.806-3.01.668-5.796 1.008-8.196 1.008s-5.186-.34-8.196-1.008c-.399-.088-.719-.407-.804-.806-.661-3.093-1-6.216-1-9.185s.338-6.092.999-9.185c.085-.399.405-.718.804-.806 3.01-.668 5.796-1.008 8.197-1.008.492 0 1.004.018 1.527.047-.129 4.393.355 6.688.376 6.784.087.396.404.7.804.771.124.021 2.458.424 5.381.424.578 0 1.183-.024 1.795-.061.071 1.03.117 2.068.117 3.036zm-6.387 6.214c-.009-.008-.783-.595-1.779-1.656 1.363-1.728 1.99-3.068 2.016-3.127.229-.502.009-1.094-.492-1.324-.501-.229-1.096-.011-1.326.491-.005.011-.481 1.03-1.516 2.4-.525-.696-.899-1.291-1.148-1.72.397-.48.656-1.144.656-2.071 0-3.177-3.157-3.188-4.505-3.192-.448-.023-.878.225-1.033.654-.048.13-.471 1.34-.471 3.846 0 2.323.258 3.642.27 3.696.106.543.647.893 1.175.783.541-.106.893-.633.787-1.174-.001-.007-.089-.466-.156-1.313.455-.015 1.009-.062 1.557-.207.327.562.837 1.353 1.551 2.258-.996 1.061-1.77 1.648-1.779 1.656-.442.33-.534.956-.205 1.398.332.445.959.533 1.397.206.044-.033.848-.636 1.904-1.74 1.056 1.104 1.86 1.707 1.904 1.74.439.327 1.066.239 1.397-.206.329-.442.237-1.068-.205-1.398z"/></svg>