<?xml version="1.0" encoding="UTF-8"?>
<svg xmlns="http://www.w3.org/2000/svg" id="Layer_1" data-name="Layer 1" viewBox="0 0 24 24">
  <path d="M15.298,6.619c1.188,.146,3.715,.379,6.255,.141-.059-.13-.145-.246-.254-.341L15.647,1.49c-.2-.178-.498-.234-.517-.238-.124,2.663,.043,4.467,.168,5.367Z"/>
  <path d="M21.861,8.74c-.903,.09-1.8,.124-2.642,.124-2.682,0-4.828-.348-4.948-.368-.399-.066-.719-.365-.811-.758-.023-.098-.539-2.362-.322-6.714-.324-.016-.663-.023-1.018-.023C7.73,1,4.001,1.774,3.845,1.807c-.369,.078-.662,.354-.761,.718-.044,.164-1.084,4.068-1.084,9.281,0,5.257,1.041,9.123,1.085,9.285,.09,.328,.34,.588,.665,.69,.158,.05,3.922,1.219,8.37,1.219s8.211-1.169,8.37-1.219c.346-.109,.606-.396,.679-.75,.034-.163,.832-4.041,.832-9.225,0-1.1-.046-2.115-.139-3.067Zm-11.015,9.817c-.491,.726-1.213,.42-1.378,.317-2.23-1.396-3.336-3.316-3.382-3.397-.174-.306-.174-.681,0-.987,.046-.081,1.152-2.001,3.382-3.397,.468-.293,1.085-.151,1.378,.317,.293,.468,.151,1.085-.317,1.378-1.162,.727-1.954,1.642-2.368,2.196,.414,.553,1.206,1.468,2.368,2.196,.468,.293,.626,.921,.317,1.378Zm7.069-3.081c-.046,.081-1.152,2.001-3.382,3.397-.165,.103-.887,.409-1.378-.317-.309-.458-.151-1.085,.317-1.378,1.162-.728,1.954-1.643,2.368-2.196-.414-.554-1.206-1.469-2.368-2.196-.468-.293-.61-.91-.317-1.378,.293-.468,.91-.61,1.378-.317,2.23,1.396,3.336,3.316,3.382,3.397,.174,.306,.174,.681,0,.987Z"/>
</svg>
