<svg id="Layer_1" viewBox="0 0 24 24" xmlns="http://www.w3.org/2000/svg" data-name="Layer 1"><path d="m15.748 6.733c-.122-.895-.293-2.691-.232-5.326.137.082.268.174.383.287 1.191 1.167 4.157 4.074 5.347 5.255.015.015.027.033.042.049-2.329.099-4.478-.124-5.54-.265zm6.252 5.267c0 2.97-.338 6.092-.999 9.185-.085.399-.406.718-.804.806-3.01.668-5.796 1.008-8.196 1.008s-5.186-.34-8.196-1.008c-.399-.088-.719-.407-.804-.806-.661-3.093-1-6.216-1-9.185s.338-6.092.999-9.185c.085-.399.405-.718.804-.806 1.103-.245 2.162-.43 3.197-.586v.578c0 .552.448 1 1 1s1-.448 1-1v-.829c1.047-.103 2.061-.171 3-.171.492 0 1.004.018 1.527.047-.129 4.393.355 6.688.376 6.784.087.396.404.7.804.771.124.021 2.458.424 5.381.424.578 0 1.183-.024 1.795-.061.071 1.03.117 2.068.117 3.036zm-15-6c0 .553.448 1 1 1s1-.447 1-1v-1c0-.553-.448-1-1-1s-1 .447-1 1zm0 4c0 .553.448 1 1 1s1-.447 1-1v-1c0-.553-.448-1-1-1s-1 .447-1 1zm3 6c0-1.429-1-4-2-4s-2 2.571-2 4 .571 2 2 2 2-.571 2-2z"/></svg>