<svg id="Layer_1" viewBox="0 0 24 24" xmlns="http://www.w3.org/2000/svg" data-name="Layer 1"><path d="m17 11c-4.149 0-6 1.851-6 6s1.851 6 6 6 6-1.851 6-6-1.851-6-6-6zm1 8c0 .552-.447 1-1 1s-1-.448-1-1v-1c0-.552.447-1 1-1s1 .448 1 1zm-1-3c-.552 0-1-.448-1-1s.448-1 1-1 1 .448 1 1-.448 1-1 1zm-1.252-9.267c-.122-.895-.293-2.691-.232-5.326.137.082.268.174.383.287 1.191 1.167 4.157 4.074 5.347 5.255.015.015.027.033.042.049-2.329.099-4.478-.124-5.54-.265zm-6.748 10.267c0 2.62.694 4.622 2.043 5.967-2.177-.076-4.614-.393-7.239-.976-.399-.088-.719-.407-.804-.806-.661-3.093-1-6.216-1-9.185s.338-6.092.999-9.185c.085-.399.405-.718.804-.806 3.01-.668 5.796-1.008 8.197-1.008.492 0 1.004.018 1.527.047-.129 4.393.355 6.688.376 6.784.087.396.404.7.804.771.092.016 1.512.284 3.432.421-.338-.015-.713-.023-1.138-.023-5.233 0-8 2.767-8 8z"/></svg>