<svg id="Layer_1" viewBox="0 0 24 24" xmlns="http://www.w3.org/2000/svg" data-name="Layer 1"><path d="m14 21c1.216 0 2.302-.078 3.242-.189-.162.638-.29.996-.304 1.036-.118.319-.391.556-.723.629-.097.021-2.417.523-6.215.523-3.855 0-6.29-.819-6.391-.854-.279-.095-.501-.309-.608-.583-.041-.105-1.001-2.632-1.001-7.562 0-4.836.496-7.568.517-7.682.076-.409.396-.729.806-.803.039-.007.392-.069.98-.147-.172 1.236-.302 2.776-.302 4.632 0 5.227 1.021 7.992 1.138 8.291.321.824.986 1.462 1.824 1.748.106.037 2.826.961 7.038.961zm3.183-15.219c.896.114 2.55.272 4.333.198-.058-.088-.102-.184-.174-.263-1.116-1.218-2.744-2.984-3.653-3.97-.189-.205-.418-.359-.668-.467-.068 2.186.06 3.702.162 4.502zm4.755 2.176c.038.626.063 1.3.063 2.042 0 4.931-.96 7.458-1.001 7.562-.107.274-.329.488-.608.583-.102.035-2.536.854-6.391.854s-6.29-.819-6.391-.854c-.279-.095-.501-.309-.608-.583-.041-.105-1.001-2.632-1.001-7.562s.96-7.457 1.001-7.562c.107-.274.329-.488.608-.584.102-.034 2.536-.854 6.391-.854.36 0 .696.012 1.028.025-.135 3.795.288 5.773.306 5.857.087.396.404.699.804.77.102.018 2.024.35 4.432.35.441 0 .902-.017 1.368-.043zm-4.937 5.042c0-.553-.447-1-1-1h-1v-1c0-.553-.447-1-1-1s-1 .447-1 1v1h-1c-.553 0-1 .447-1 1s.447 1 1 1h1v1c0 .553.447 1 1 1s1-.447 1-1v-1h1c.553 0 1-.447 1-1z"/></svg>