<svg id="Layer_1" viewBox="0 0 24 24" xmlns="http://www.w3.org/2000/svg" data-name="Layer 1"><path d="m22.081 11.852c-1.059-1.117-3.168-1.128-4.223-.013l-5.42 5.418c-.861.868-1.365 2.026-1.419 3.263l-.062 1.438c-.037.569.475 1.08 1.043 1.042l1.429-.063c1.232-.055 2.386-.564 3.247-1.432l5.417-5.417c1.157-1.165 1.152-3.065-.011-4.236zm-7.333-5.118c-.122-.895-.293-2.691-.232-5.326 1.489 1.234 4.358 4.239 5.772 5.591-2.329.099-4.478-.124-5.54-.265zm5.252 2.279c-.015 0-.03-.004-.045-.004h-.002c-1.379 0-2.672.531-3.509 1.416l-5.426 5.424c-1.212 1.222-1.921 2.85-1.998 4.586l-.059 1.392c-.025.379.036.754.154 1.11-1.934-.128-4.06-.443-6.312-.943-.399-.088-.719-.407-.804-.806-.661-3.093-1-6.216-1-9.185s.338-6.092.999-9.185c.085-.399.405-.718.804-.806 3.01-.668 5.796-1.008 8.197-1.008.492 0 1.004.018 1.527.047-.129 4.393.355 6.688.376 6.784.087.396.404.7.804.771.124.021 2.458.424 5.381.424.294 0 .607-.02.912-.031v.018z"/></svg>