<svg id="Layer_1" viewBox="0 0 24 24" xmlns="http://www.w3.org/2000/svg" data-name="Layer 1"><path d="m14.246 6.619c1.184.146 3.7.379 6.23.141-.059-.13-5.883-5.27-5.883-5.27-.199-.178-.496-.234-.515-.238-.123 2.663.043 4.467.167 5.367z"/><path d="m15.369 21.222c-.229-.378-.379-.79-.443-1.215 0 0-.402-.006-.52-.018-1.872-.064-3.376-1.608-3.376-3.498 0-1.93 1.568-3.5 3.496-3.5h.418c.054-.383.171-.763.358-1.125.606-1.167 1.796-1.89 3.105-1.89.558 0 1.115.137 1.611.395.306.159.593.325.863.495-.023-.746-.055-1.692-.097-2.125-.9.09-1.793.124-2.632.124-2.672 0-4.809-.348-4.929-.368-.397-.066-.717-.365-.808-.758-.023-.098-.537-2.362-.321-6.714-.323-.016-.66-.023-1.014-.023-4.372-.002-8.087.772-8.243.805-.367.078-.659.354-.758.718-.044.164-1.08 4.262-1.08 9.475 0 5.257 1.037 8.929 1.081 9.091.09.328.339.588.662.69.158.05 3.906 1.219 8.337 1.219 2.079 0 4.01-.258 5.49-.537-.472-.298-.882-.717-1.201-1.241z"/><path d="m22.902 15.955c-.089-.233-.95-2.321-3.806-3.811-.732-.38-1.635-.097-2.018.639-.381.735-.095 1.641.637 2.023.116.06.226.122.332.184h-3.522c-.826 0-1.496.671-1.496 1.5s.67 1.5 1.496 1.5h3.496c-.098.057-.2.113-.307.169-.732.382-1.066 1.316-.637 2.023.704 1.159 1.796.754 2.018.639 2.854-1.489 3.716-3.56 3.804-3.792.133-.346.133-.729.002-1.075z"/></svg>