<svg id="Layer_1" viewBox="0 0 24 24" xmlns="http://www.w3.org/2000/svg" data-name="Layer 1"><path d="m4.012 18.472c4.055-4.195 8.109-5.886 9.665-6.418.248-.086.523-.068.762.048.808.395 4.153 2.388 7.187 5.355.239-1.847.374-3.68.374-5.456 0-.968-.046-2.005-.117-3.036-.612.037-1.217.061-1.795.061-2.923 0-5.258-.402-5.381-.424-.399-.07-.716-.374-.804-.771-.021-.097-.505-2.392-.376-6.784-.523-.028-1.035-.047-1.527-.047-2.401 0-5.187.34-8.197 1.008-.399.089-.719.407-.804.806-.661 3.093-.999 6.215-.999 9.185 0 2.548.264 5.207.752 7.865.421-.49.842-.96 1.26-1.393zm3.488-9.472c1.071 0 1.5.429 1.5 1.5s-.429 1.5-1.5 1.5-1.5-.429-1.5-1.5.429-1.5 1.5-1.5zm8.248-2.267c-.122-.895-.293-2.691-.232-5.326.137.082.268.174.383.287 1.212 1.195 4.186 4.089 5.389 5.304-2.329.099-4.478-.124-5.54-.265zm5.488 13.195c-.078.419-.146.838-.235 1.257-.085.399-.406.718-.804.806-3.01.668-5.796 1.008-8.196 1.008-2.423-.019-5.355-.318-8.357-1.069.605-.744 1.21-1.451 1.807-2.069 3.48-3.602 7.002-5.211 8.471-5.77 1.219.691 4.593 2.852 7.315 5.837z"/></svg>