<svg id="Layer_1" viewBox="0 0 24 24" xmlns="http://www.w3.org/2000/svg" data-name="Layer 1"><path d="m15.748 6.733c-.122-.895-.293-2.691-.232-5.326 1.49 1.234 4.358 4.238 5.772 5.591-2.329.099-4.478-.124-5.54-.265zm6.252 5.267c0 2.97-.338 6.092-.999 9.185-.085.399-.406.718-.804.806-3.01.668-5.796 1.008-8.196 1.008s-5.186-.34-8.196-1.008c-.399-.088-.719-.407-.804-.806-.661-3.093-1-6.216-1-9.185s.338-6.092.999-9.185c.085-.399.405-.718.804-.806 3.01-.668 5.796-1.008 8.197-1.008.492 0 1.004.018 1.527.047-.129 4.393.355 6.688.376 6.784.087.396.404.7.804.771.124.021 2.458.424 5.381.424.578 0 1.183-.024 1.795-.061.071 1.03.117 2.068.117 3.036zm-6.425 3.2c-.443-.332-1.068-.242-1.4.2-.367.489-.774.945-1.2 1.381v-4.781c0-.552-.447-1-1-1s-1 .448-1 1v4.782c-.427-.436-.833-.892-1.2-1.382-.331-.442-.958-.532-1.399-.201-.442.332-.532.958-.2 1.4.909 1.213 1.986 2.291 3.2 3.201.356.267.845.266 1.2 0 1.212-.91 2.289-1.986 3.199-3.2.331-.441.242-1.068-.199-1.4z"/></svg>