<svg id="Layer_1" viewBox="0 0 24 24" xmlns="http://www.w3.org/2000/svg" data-name="Layer 1"><path d="m22.561 20.439-1.113-1.113c.274-1.981.552-4.648.552-7.327 0-3.323-.411-7.463-.935-9.424-.096-.357-.38-.633-.741-.717-.151-.035-3.763-.859-8.325-.859-4.116 0-7.371.649-8.078.801l-.361-.361c-.586-.586-1.535-.586-2.121 0s-.586 1.535 0 2.121l19 19.001c.586.586 1.535.586 2.121 0s.586-1.535 0-2.121zm-4.71-4.71c.011-.293.022-.562.033-.73h2.005c-.048.693-.107 1.363-.174 2h-.594zm2.149-3.73c0 .334-.006.667-.014 1h-2.012c.008-.332.026-.681.026-1 0-.334-.006-.668-.014-1h2c.008.335.014.669.014 1zm-.101-3h-2.003c-.046-.692-.104-1.362-.168-2h2.011c.064.639.118 1.309.161 2zm-.628-5.314c.077.372.152.824.224 1.314h-2.002c-.082-.617-.165-1.167-.24-1.638.866.116 1.563.237 2.018.324zm-3.285 7.314c.008.332.014.666.014 1 0 .319-.018.668-.026 1h-.852l-2-2h2.865zm-9.986 1c0 .335.008.668.016 1h-2.003c-.006-.3-.012-.601-.012-.897 0-.731.069-1.857.187-2.966l-1.909-1.909c-.028.221-.056.438-.082.685-.155 1.484-.196 2.896-.196 4.189 0 3.323.411 7.463.935 9.424.096.357.38.633.741.717.151.035 3.763.859 8.325.859 1.946-.057 3.642 0 5.654-.499l-11.612-11.609c-.027.369-.044.713-.044 1.007zm.764 8.744c-.875-.117-1.576-.239-2.035-.327-.082-.398-.163-.884-.24-1.417h2.018c.088.661.177 1.253.257 1.744zm-.492-3.744h-2.022c-.062-.64-.115-1.311-.156-2h2.013c.046.691.101 1.364.165 2z"/></svg>