<svg id="Layer_1" viewBox="0 0 24 24" xmlns="http://www.w3.org/2000/svg" data-name="Layer 1"><path d="m13.976 14.995c-.029.956-1.04 1.98-1.974 2.005-.927-.028-1.977-1.073-1.977-1.975 0-.909 1.034-2.029 1.969-2.775.858.719 1.967 1.886 1.982 2.745zm7.524-1.511c-.146 4.849-4.755 9.516-9.486 9.516-4.514 0-9.513-4.781-9.513-9.5-.001-6.149 8.049-11.715 8.967-12.33.34-.229.785-.227 1.123.005.088.061 8.805 6.109 8.909 12.308zm-5.525 1.525c-.041-2.45-3.056-4.596-3.399-4.832-.336-.233-.781-.236-1.122-.009-.573.382-3.429 2.41-3.429 4.857 0 1.97 1.96 3.938 3.957 3.975h.032c2.011-.027 3.899-1.908 3.961-3.991z"/></svg>