<svg id="Layer_1" viewBox="0 0 24 24" xmlns="http://www.w3.org/2000/svg" data-name="Layer 1"><path d="m12.543 14.117c-.36-.19-.817-.152-1.099.142-.684.711-.957 1.827-.962 2.718l-.633-.82c-.238-.245-.643-.223-.844.054-.567.783-.98 1.776-.98 3.189 0 1.87 1.912 3.554 3.974 3.601 2.045-.046 4.026-1.731 4.026-3.626-.161-3.283-1.748-4.339-3.483-5.257zm.285 6.893c-.599.653-1.078.653-1.676 0-.299-.327-.449-.62-.449-.914 0-1.053 1.282-2.096 1.282-2.096s1.292 1.042 1.292 2.096c0 .294-.15.588-.449.914zm-11.311-15c-.305-.945-.608-1.921-.513-2.987.039-.435.355-.794.781-.888.211-.047 5.226-1.135 10.215-1.135s10.004 1.088 10.215 1.135c.426.094.742.453.781.888.091 1.027-.042 2.043-.247 3.025l-21.232-.037zm21.483 6.99c0 3.1-.466 5.984-.771 7.541.349.086.648.344.741.718.134.535-.191 1.077-.728 1.211-.071.019-1.504.37-3.471.489-.61.037-1.11-.482-1.048-1.09.149-1.474.277-3.214.277-4.74 0-2.477-.304-4.436-.502-5.449-1.103-.247-3.337-.68-5.498-.68s-4.396.432-5.498.68c-.198 1.013-.502 2.973-.502 5.449 0 1.527.128 3.266.277 4.74.062.608-.438 1.127-1.048 1.09-1.967-.119-3.4-.47-3.471-.489-.536-.134-.861-.676-.728-1.211.093-.374.391-.633.741-.719-.305-1.558-.771-4.441-.771-7.54 0-1.247.294-2.907.554-4.371.039-.22.071-.413.107-.619l20.972.037c.175 1.537.368 3.546.368 4.953z"/></svg>