<svg id="Layer_1" viewBox="0 0 24 24" xmlns="http://www.w3.org/2000/svg" data-name="Layer 1"><path d="m18.775 20.018c-.034-.006-.302-.053-.765-.115v-4.881h.501c1.062 0 1.494-.421 1.502-1.47.007-.841-.661-1.535-1.502-1.535h-.501v-1.751c-1.508-.129-3.577-.253-6.01-.253s-4.502.123-6.01.253v1.751h-.501c-.841 0-1.509.694-1.502 1.535.009 1.049.44 1.47 1.502 1.47h.501v4.881c-.462.062-.731.109-.765.115-.816.146-1.36.925-1.214 1.741.145.817.921 1.365 1.741 1.217.025-.004 2.541-.441 6.248-.441s6.223.437 6.248.441c.798.148 1.6-.395 1.741-1.217.145-.816-.398-1.595-1.214-1.741zm-6.775-8c1.073 0 1.502.429 1.502 1.502s-.429 1.502-1.502 1.502-1.502-.429-1.502-1.502.429-1.502 1.502-1.502zm0-4.007c-2.384 0-4.431.116-5.964.242.197-3.1 1.603-4.742 4.461-5.144v-.607c0-.829.672-1.502 1.502-1.502s1.502.673 1.502 1.502v.607c2.858.401 4.265 2.044 4.461 5.144-1.532-.126-3.58-.242-5.964-.242z"/></svg>