<svg id="Layer_1" viewBox="0 0 24 24" xmlns="http://www.w3.org/2000/svg" data-name="Layer 1"><path d="m22 16.538c0 .39-.227.744-.581.908-.803.37-1.611.556-2.419.556s-1.616-.186-2.418-.556c-.354-.164-.581-.519-.581-.908 0-2.787.877-5.49 1.5-7.063v-.976c-.008-.576-.215-3.5-3.5-3.5h-4.5v2.211c2.345.653 4.194 2.775 4.383 5.292.022.301.117.957.117 1.72 0 4.751-.676 7.174-.705 7.274-.08.279-.276.51-.539.632-.077.035-1.901.871-4.756.871s-4.68-.836-4.756-.871c-.263-.122-.459-.353-.539-.632-.02-.069-.343-1.263-.544-3.529 1.18.452 3.208 1.032 5.839 1.032.706 0 1.418-.043 2.118-.127.548-.066.939-.564.873-1.113-.065-.549-.561-.937-1.113-.873-.62.075-1.252.113-1.878.113-3.518 0-5.787-1.175-5.974-1.276-.015-.474-.026-.968-.026-1.501-.004-1.146.043-.865.117-1.72.189-2.516 2.038-4.638 4.383-5.292v-2.026c-.715.154-1.484.42-1.939.875-.586.586-1.535.586-2.121 0s-.586-1.535 0-2.121c1.172-1.172 2.892-1.636 4.115-1.819.169-.643.749-1.12 1.445-1.12.652 0 1.201.419 1.408 1h4.592c4.769 0 6.5 3.887 6.5 6.5v.976c.623 1.573 1.5 4.276 1.5 7.063z"/></svg>