<svg id="Layer_1" viewBox="0 0 24 24" xmlns="http://www.w3.org/2000/svg" data-name="Layer 1"><path d="m9.6 8.991c.848 0 1.66.151 2.4.442.741-.291 1.553-.442 2.4-.442 1.683 0 3.234.702 4.365 1.847.143-.295.235-.724.235-1.346 0-3.593-1.932-5.741-3.554-6.911-.925-.667-3.032-1.782-3.769-1.538-2.45.817-2.217 2.743-2.092 3.777.107.886.095 1.156-.192 1.372-.56.42-1.607-.811-1.615-.82-.198-.251-.501-.385-.826-.379-.32.013-.615.179-.792.447-.047.071-1.16 1.777-1.16 4.052 0 .617.076 1.065.204 1.378 1.133-1.164 2.698-1.878 4.396-1.878z"/><path d="m18.559 14.721c-.285-2.105-2.041-3.73-4.158-3.73-.908 0-1.732.238-2.4.685-.668-.446-1.492-.685-2.4-.685-2.118 0-3.875 1.625-4.16 3.73-1.467.697-2.44 2.222-2.44 3.936 0 2.39 1.884 4.333 4.2 4.333h9.6c2.316 0 4.2-1.944 4.2-4.333 0-1.714-.974-3.24-2.441-3.937z"/></svg>