<svg id="Layer_1" viewBox="0 0 24 24" xmlns="http://www.w3.org/2000/svg" data-name="Layer 1"><path d="m10.474 13.533c-1.185-1.185-2.047-2.331-2.612-3.48-.376.392-.752.786-1.124 1.186-1.522 1.642-2.993 3.331-4.498 5.163-1.219 1.491-2.054 3.164.068 5.285.956.955 1.824 1.312 2.615 1.312 1.01 0 1.894-.583 2.672-1.247 1.195-.982 3.054-2.554 5.128-4.472.433-.403.829-.78 1.222-1.156-1.155-.568-2.306-1.429-3.47-2.593zm-1.853 3.266-1.006 1.006c-.393.393-1.029.393-1.422 0s-.393-1.029 0-1.422l1.006-1.006c.393-.393 1.029-.393 1.422 0s.393 1.029 0 1.422zm8.61-1.724c-1.79 0-3.58-.945-5.471-2.838-1.941-1.941-2.845-3.679-2.845-5.471s.904-3.531 2.845-5.471c.393-.393 1.029-.393 1.422 0l9.52 9.52c.39.375.39 1.048 0 1.422-1.892 1.892-3.682 2.838-5.471 2.838z"/></svg>