<svg id="Layer_1" viewBox="0 0 24 24" xmlns="http://www.w3.org/2000/svg" data-name="Layer 1"><path d="m21.942 21.321c-.033.454-.369.828-.816.91-1.56.287-4.821.769-9.132.769s-7.572-.481-9.132-.769c-.447-.082-.783-.456-.816-.91-.006-.073-.116-1.778.359-4.321h14.554c.553 0 1-.448 1-1s-.447-1-1-1h-14.052c.849-2.385 2.853-4.401 6.121-6.126-.021-.715-.034-1.439-.034-2.033 0-.95.042-1.918.103-2.89-.653-.162-1.139-.748-1.139-1.451 0-.829.672-1.5 1.5-1.5h5c.828 0 1.5.671 1.5 1.5 0 .678-.453 1.244-1.07 1.43.062.979.105 1.954.105 2.911 0 .593-.013 1.318-.034 2.033 3.612 1.907 5.695 4.165 6.362 6.889.568 1.849.717 5.918.62 5.559z"/></svg>