<svg id="Layer_1" viewBox="0 0 24 24" xmlns="http://www.w3.org/2000/svg" data-name="Layer 1"><path d="m3.392 11.293c.018.013 1.798 1.32 3.973 2.351 1.696.804 3.754 1.498 4.636 1.783.882-.285 2.939-.979 4.636-1.783 2.175-1.031 3.955-2.338 3.973-2.351.667-.492 1.605-.351 2.098.315.492.666.352 1.604-.314 2.097-.081.061-2.022 1.489-4.472 2.65-2.418 1.146-5.361 2.042-5.485 2.08-.283.086-.587.086-.87 0-.124-.038-3.066-.934-5.485-2.08-2.45-1.161-4.391-2.589-4.472-2.65-.666-.492-.806-1.431-.314-2.097.493-.667 1.432-.807 2.098-.315zm17.285 4.953c-.018.011-1.8 1.175-3.98 2.093-1.732.729-3.839 1.357-4.696 1.603-.857-.245-2.963-.873-4.696-1.603-2.18-.918-3.963-2.082-3.98-2.093-.692-.454-1.623-.261-2.077.43-.455.692-.263 1.621.429 2.076.081.054 2.02 1.322 4.464 2.352 2.412 1.016 5.346 1.811 5.47 1.844.256.069.525.069.78 0 .124-.033 3.058-.828 5.47-1.844 2.445-1.029 4.383-2.298 4.464-2.352.692-.455.884-1.384.429-2.076-.455-.691-1.383-.884-2.077-.43zm-3.409-13.084c-2.328-1.182-4.819-2.065-4.935-2.106-.215-.075-.449-.075-.664 0 .01-.023-4.055 1.481-6.195 2.794l5.336 3.276zm-12.412 7.62 4.042-2.482-5.306-3.257c-1.307.901-2.189 1.652-2.244 1.699-.221.19-.348.467-.348.758s.127.568.348.758c.071.061 1.526 1.3 3.508 2.524zm7.476 3.161c.006.023 4.313-1.594 6.379-2.901l-5.229-3.21-6.626 4.068c2.292 1.151 4.697 2.003 4.812 2.043.215.075.449.075.664 0zm8.246-4.101c1.216-.85 2.021-1.538 2.074-1.584.221-.19.348-.467.348-.758s-.127-.568-.348-.758c-.07-.06-1.473-1.253-3.396-2.453l-3.862 2.371 5.184 3.183z"/></svg>