<svg id="Layer_1" viewBox="0 0 24 24" xmlns="http://www.w3.org/2000/svg" data-name="Layer 1"><path d="m9 17c0 1.542.247 2.865.72 3.971-3.598-.15-6.88-.86-7.034-.894-.381-.083-.678-.381-.762-.762-.038-.171-.924-4.252-.924-8.314s.886-8.144.924-8.315c.084-.381.381-.679.762-.762.079-.017.978-.212 2.314-.418v4.494c0 .552.447 1 1 1h8c.553 0 1-.448 1-1v-4.724c.148.049.287.119.398.23l5.096 5.096c.162.162.263.374.287.601.094.88.147 1.71.18 2.513-1.104-.47-2.423-.716-3.961-.716-1.978 0-3.602.396-4.859 1.17-.34-.099-.715-.161-1.151-.161-1.984 0-2.99 1.006-2.99 2.99 0 1.191.372 2.019 1.092 2.498-.056.478-.092.974-.092 1.502zm-2-12h6v-3.93c-.695-.043-1.367-.07-2-.07-1.384 0-2.767.104-4 .241zm16 12c0 4.149-1.851 6-6 6s-6-1.851-6-6 1.851-6 6-6 6 1.851 6 6zm-2.675-.525c-.546-.73-1.194-1.378-1.925-1.925-.544-.439-1.423.002-1.4.7v.75h-2c-.553 0-1 .448-1 1s.447 1 1 1h2s0 .75 0 .75c-.023.699.853 1.138 1.4.7.731-.548 1.379-1.195 1.925-1.925.233-.311.233-.738 0-1.049z"/></svg>