<svg id="Layer_1" viewBox="0 0 24 24" xmlns="http://www.w3.org/2000/svg" data-name="Layer 1"><path d="m11.227 3.765c-.099-.652-.226-1.66-.239-2.547 1.068-.123 2.281-.218 3.495-.218.782 0 1.62.043 2.499.12-.004.909-.139 1.97-.242 2.645-.664.102-1.726.235-2.757.235s-2.093-.133-2.757-.235zm3.256 6.235c-1.233 0-1.5.267-1.5 1.5s.267 1.5 1.5 1.5 1.5-.267 1.5-1.5-.267-1.5-1.5-1.5zm8.5-.5c0 3.403-.742 6.821-.773 6.964-.083.381-.381.679-.762.762-.144.032-3.562.773-6.964.773s-6.821-.742-6.964-.773c-.381-.083-.679-.381-.762-.762-.032-.144-.773-3.562-.773-6.964s.742-6.821.773-6.964c.083-.381.381-.679.762-.762.056-.012.616-.133 1.475-.276.052 1.553.365 3.24.38 3.317.075.4.386.714.785.795.079.016 1.955.39 3.825.39s3.746-.375 3.825-.39c.399-.081.709-.395.785-.795.015-.08.348-1.874.384-3.467.274.02.547.103.742.306l2.611 2.611c.152.152.251.35.283.563.247 1.701.372 3.272.372 4.671zm-5 2c0-2.322-1.178-3.5-3.5-3.5s-3.5 1.178-3.5 3.5 1.178 3.5 3.5 3.5 3.5-1.178 3.5-3.5zm-.651 8.325c-1.148.116-2.23.175-3.215.175-3.531 0-7.077-.744-7.467-.828l-1.48-.325-.324-1.478c-.085-.393-.829-3.938-.829-7.47 0-.714.031-1.483.093-2.285.063-.826-.555-1.547-1.381-1.61-.825-.061-1.547.555-1.61 1.381-.067.878-.102 1.725-.102 2.515 0 3.843.804 7.678.897 8.111l.531 2.417c.125.571.572 1.018 1.144 1.144l2.425.532c.425.092 4.26.896 8.103.896 1.086 0 2.27-.064 3.518-.191.824-.083 1.424-.819 1.341-1.644-.083-.824-.822-1.428-1.644-1.341z"/></svg>