<svg id="Layer_1" viewBox="0 0 24 24" xmlns="http://www.w3.org/2000/svg" data-name="Layer 1"><path d="m4.849 6.085c-.186-.518.134-1.132.665-1.276.189-.056 1.442-.406 2.786-.496 1.159.699 2 1.559 2.434 3.216-1.866-.494-3.477-.398-5.135.324-.459-.917-.732-1.714-.75-1.768zm7.854 1.093c1.27-1.192 1.614-2.361 1.667-3.748-.688-1.097-1.518-1.981-1.649-2.118-.378-.391-1.064-.391-1.441 0-.113.118-.747.794-1.36 1.679 1.455 1.039 2.338 2.368 2.783 4.187zm5.655.762c.486-.953.774-1.799.793-1.855.186-.519-.134-1.131-.666-1.276-.16-.047-1.095-.31-2.194-.443-.222 1.687-.922 3.043-2.203 4.254 1.77.392 3.005.034 4.27-.68zm.044 2.211c-.981.427-1.943.641-2.952.641-.697 0-1.42-.114-2.182-.316.434 1.654 1.273 2.513 2.429 3.211 1.342-.092 2.602-.438 2.79-.493.531-.145.851-.757.666-1.276-.018-.054-.291-.851-.75-1.767zm-12.888 3.044c.161.047 1.095.308 2.194.441.222-1.686.923-3.042 2.204-4.252-1.769-.392-3.004-.034-4.27.68-.486.953-.774 1.799-.793 1.855-.186.519.134 1.131.665 1.277zm16.684 6.518c-1.536 2.487-3.448 3.419-6.693 3.264-1.58-.076-3.443-.714-3.517-.74-.075.026-1.938.664-3.517.74-3.245.155-5.157-.777-6.693-3.264-1.536-2.487-.852-3.544 2.393-3.699 2.998-.144 4.854.659 6.331 2.74v-2.966c-.275-.344-.584-.76-.87-1.216.052-1.386.397-2.556 1.666-3.748.445 1.818 1.329 3.147 2.783 4.187-.2.289-.396.542-.582.775v2.932c1.473-2.055 3.325-2.847 6.306-2.704 3.245.155 3.929 1.212 2.393 3.699zm-10.198 2.397c-.01 0-.019-.003-.028-.003.006.026.012.048.016.066.004-.017.009-.038.015-.063 0 0-.002 0-.003 0z"/></svg>