<?xml version="1.0" encoding="UTF-8"?>
<svg xmlns="http://www.w3.org/2000/svg" id="Layer_1" data-name="Layer 1" viewBox="0 0 24 24">
  <path d="M11.994,1C4.819,1,1,5.106,1,12.019c0,6.859,3.851,10.981,11.006,10.981s10.861-3.737,10.994-11.017c-.122-7.037-4.026-10.983-11.006-10.983ZM6.587,10.365c.022-1.277,.775-2.023,2.014-2.031,1.231,.009,2.001,.777,2.023,2.006-.023,1.276-.775,2.022-2.012,2.031h-.014c-1.236-.009-1.988-.758-2.011-2.005Zm8.808,7.121h-6.79c-.552,0-1-.448-1-1s.448-1,1-1h6.79c.553,0,1,.448,1,1s-.447,1-1,1Zm.007-5.115h-.014c-1.235-.009-1.987-.758-2.012-2.005,.022-1.278,.775-2.024,2.015-2.032,1.231,.009,2.002,.778,2.022,2.006-.022,1.276-.774,2.021-2.012,2.03Z"/>
</svg>
