<svg id="Layer_1" viewBox="0 0 24 24" xmlns="http://www.w3.org/2000/svg" data-name="Layer 1"><path d="m22.802 3.911c-.016.021-1.324 1.807-1.697 3.663-.504-.717-1.197-1.59-2.142-2.535-.929-.93-1.79-1.616-2.501-2.119 2.079-.337 3.527-1.642 3.544-1.657.282-.259.689-.334 1.044-.193.055.001.675.335 1.1.767.537.531.745 1.016.781 1.108.128.322.078.688-.128.965zm-5.254 2.542c1.607 1.607 2.416 2.986 2.683 3.488-.854 1.2-2.638 3.497-5.715 6.574-4.537 4.537-7.389 6.271-7.508 6.342-.28.168-.626.189-.923.055-.055-.024-1.35-.614-2.867-2.13-1.518-1.517-2.106-2.813-2.131-2.867-.133-.298-.112-.643.056-.923.071-.119 1.805-2.97 6.342-7.507 3.078-3.078 5.377-4.863 6.576-5.716.499.263 1.864 1.061 3.487 2.684zm-8.548 10.047c0-.828-.672-1.5-1.5-1.5s-1.5.672-1.5 1.5.672 1.5 1.5 1.5 1.5-.672 1.5-1.5zm3-3c0-.828-.672-1.5-1.5-1.5s-1.5.672-1.5 1.5.672 1.5 1.5 1.5 1.5-.672 1.5-1.5zm3-3c0-.828-.672-1.5-1.5-1.5s-1.5.672-1.5 1.5.672 1.5 1.5 1.5 1.5-.672 1.5-1.5z"/></svg>