<svg id="Layer_1" viewBox="0 0 24 24" xmlns="http://www.w3.org/2000/svg" data-name="Layer 1"><path d="m16 8c0 1.429-.571 2-2 2h-4c-1.429 0-2-.571-2-2s.571-2 2-2h4c1.429 0 2 .571 2 2zm5.707 4.881c-.724-.724-2.324-1.971-4.019-3.093-.551 1.421-1.825 2.211-3.689 2.211h-.598c1.087 2.299 2.575 4.803 3.48 5.707 1.724 1.724 3.102 1.724 4.826 0 1.723-1.724 1.723-3.102 0-4.826zm-19.414 4.826c1.724 1.724 3.102 1.724 4.826 0 .905-.905 2.393-3.408 3.48-5.707h-.598c-1.864 0-3.138-.791-3.689-2.211-1.695 1.121-3.294 2.368-4.019 3.093-1.723 1.724-1.723 3.102 0 4.826zm12.198.215c-.841-1.17-1.748-2.755-2.491-4.234-.743 1.48-1.65 3.064-2.491 4.234 1.699.092 3.282.092 4.982 0zm-2.491 2.078c-.919 0-1.903-.039-2.914-.099.665 1.488 1.585 3.099 2.909 3.099s2.244-1.611 2.909-3.099c-1.007.06-1.988.099-2.904.099zm-2-16h4c.163 0 .316.014.469.026.018-.166.031-.337.031-.526 0-1.752-.748-2.5-2.5-2.5s-2.5.748-2.5 2.5c0 .191.013.364.031.532.155-.012.305-.032.469-.032z"/></svg>