<svg id="Layer_1" viewBox="0 0 24 24" xmlns="http://www.w3.org/2000/svg" data-name="Layer 1"><path d="m12.593 12.649c4.43-4.446 5.791-8.295 4.047-11.443-.559-.137-1.134-.206-1.724-.206-2.829 0-5.88 1.622-9.067 4.82-4.52 4.537-5.347 8.157-4.612 10.911 3.13 1.707 6.951.338 11.356-4.082z"/><path d="m20.484 3.479c-.408-.409-.83-.768-1.266-1.077.773 3.493-.972 7.403-5.213 11.66-4.049 4.063-7.398 5.373-10.03 5.373-.528 0-1.027-.053-1.497-.146.318.439.67.844 1.038 1.213 1.651 1.657 3.526 2.498 5.572 2.498 2.814 0 5.863-1.628 9.062-4.839 7.011-7.036 5.138-11.868 2.333-14.682z"/></svg>