<?xml version="1.0" encoding="UTF-8"?>
<svg xmlns="http://www.w3.org/2000/svg" id="Layer_1" data-name="Layer 1" viewBox="0 0 24 24">
  <path d="M16.827,16.625h-.542c-.552,0-1,.448-1,1s.448,1,1,1h.542c.552,0,1-.448,1-1s-.448-1-1-1Z"/>
  <path d="M7.173,18.625h5.761c.552,0,1-.448,1-1s-.448-1-1-1H7.173c-.552,0-1,.448-1,1s.448,1,1,1Z"/>
  <path d="M7.715,20.625h-.542c-.552,0-1,.448-1,1s.448,1,1,1h.542c.552,0,1-.448,1-1s-.448-1-1-1Z"/>
  <path d="M16.827,20.625h-5.761c-.552,0-1,.448-1,1s.448,1,1,1h5.761c.552,0,1-.448,1-1s-.448-1-1-1Z"/>
  <path d="M7.173,14.625h.542c.552,0,1-.448,1-1s-.448-1-1-1h-.542c-.552,0-1,.448-1,1s.448,1,1,1Z"/>
  <path d="M16.827,12.625h-5.761c-.552,0-1,.448-1,1s.448,1,1,1h5.761c.552,0,1-.448,1-1s-.448-1-1-1Z"/>
  <path d="M19.302,8.438c-.104-3.913-3.345-7.064-7.315-7.064-4.035,0-7.318,3.256-7.318,7.257,0,.252,.013,.504,.04,.754-2.15,.599-3.708,2.564-3.708,4.916,.021,1.97,1.412,3.636,3.29,4.156-.076-.264-.117-.543-.117-.832,0-.768,.29-1.469,.766-2-.476-.531-.766-1.232-.766-2,0-1.654,1.346-3,3-3h.542c.62,0,1.197,.189,1.676,.513,.479-.323,1.055-.513,1.676-.513h5.761c1.654,0,3,1.346,3,3,0,.768-.29,1.469-.766,2,.476,.531,.766,1.232,.766,2,0,.28-.039,.552-.111,.809,1.398-.415,2.546-1.478,2.987-2.865,.197-.622,.297-1.252,.297-1.873,0-2.368-1.512-4.461-3.698-5.259Z"/>
</svg>
