<svg id="Layer_1" viewBox="0 0 24 24" xmlns="http://www.w3.org/2000/svg" data-name="Layer 1"><path d="m12 7c-5.677 0-9.286.684-10.876 1.071.273-3.273.909-5.4.943-5.512.071-.235.227-.436.437-.562.14-.085 1.435-.831 3.96-.971 1.532-.086 2.658.048 3.34.174.34.062.623.296.749.618l.468 1.19c.317-.006.645-.009.979-.009 6.145 0 9.42.98 9.772 1.093.353.111.614.408.682.771.148.804.313 1.9.422 3.207-1.59-.387-5.2-1.071-10.876-1.071zm0 9.565v-2.065c0-.538.127-1.077.367-1.56.733-1.465 2.454-3.105 5.079-3.697-1.519-.143-3.331-.243-5.445-.243-6.476 0-10.138.925-10.989 1.167-.006.273-.011.549-.011.833 0 4.896 1.003 8.162 1.046 8.298.096.308.333.549.638.65.114.038 2.561.832 7.35 1.014-.01-.155-.033-.299-.033-.462 0-1.907.703-3.238 2-3.935zm10.171-4.907c-.135-.067-1.354-.658-2.671-.658-3.1 0-4.816 1.778-5.342 2.829-.104.208-.158.438-.158.671v3.528c-1.415.133-2 .867-2 2.472 0 1.786.714 2.5 2.5 2.5s2.5-.714 2.5-2.5v-5.538c.308-.355 1.045-.962 2.5-.962.161 0 .334.024.5.061v2.967c-1.415.133-2 .867-2 2.472 0 1.786.714 2.5 2.5 2.5s2.5-.714 2.5-2.5v-6.5c0-.568-.321-1.087-.829-1.342z"/></svg>