<svg id="Layer_1" viewBox="0 0 24 24" xmlns="http://www.w3.org/2000/svg" data-name="Layer 1"><path d="m1.124 9.072c.273-3.273.909-5.401.943-5.512.072-.234.228-.435.437-.562.14-.085 1.435-.832 3.96-.971 1.527-.082 2.659.049 3.339.174.34.062.624.296.75.618l.468 1.19c.318-.005.644-.008.979-.008 6.144 0 9.42.981 9.773 1.093.353.111.615.408.682.772.148.803.312 1.9.422 3.206-1.59-.387-5.2-1.072-10.876-1.072s-9.286.685-10.876 1.072zm21.865 2.097c.006.272.011.548.011.831 0 4.896-1.003 8.162-1.045 8.298-.096.307-.333.549-.638.65-.129.043-3.224 1.051-9.316 1.051s-9.188-1.008-9.316-1.051c-.305-.102-.542-.344-.638-.65-.042-.137-1.045-3.402-1.045-8.298 0-.283.004-.559.011-.831.859-.243 4.553-1.169 10.989-1.169s10.128.925 10.989 1.169zm-9.575 4.831 1.293-1.293c.391-.391.391-1.023 0-1.414s-1.023-.391-1.414 0l-1.293 1.293-1.293-1.293c-.391-.391-1.023-.391-1.414 0s-.391 1.023 0 1.414l1.293 1.293-1.293 1.293c-.391.391-.391 1.023 0 1.414.959 1.005 2.067-.754 2.707-1.293l1.293 1.293c.391.391 1.023.391 1.414 0s.391-1.023 0-1.414z"/></svg>