<svg id="Layer_1" viewBox="0 0 24 24" xmlns="http://www.w3.org/2000/svg" data-name="Layer 1"><path d="m22.14 17.984-.669-.393c.018-.188.029-.384.029-.592s-.011-.403-.029-.592l.669-.393c.714-.419.954-1.339.534-2.053-.419-.714-1.339-.954-2.053-.534l-.469.275c-.323-.233-.71-.404-1.153-.52v-.684c0-.828-.672-1.5-1.5-1.5s-1.5.672-1.5 1.5v.684c-.443.116-.83.286-1.153.52l-.469-.275c-.714-.419-1.634-.18-2.053.534s-.18 1.634.534 2.053l.669.393c-.018.188-.029.384-.029.592s.011.403.029.592l-.669.393c-.714.419-.954 1.339-.534 2.053.419.714 1.339.954 2.053.534l.469-.275c.323.233.71.404 1.153.52v.684c0 .828.672 1.5 1.5 1.5s1.5-.672 1.5-1.5v-.684c.443-.116.83-.286 1.153-.52l.469.275c.714.419 1.634.18 2.053-.534s.18-1.634-.534-2.053zm-4.64.516c-1.192 0-1.5-.308-1.5-1.5s.308-1.5 1.5-1.5 1.5.308 1.5 1.5-.308 1.5-1.5 1.5zm-5.5-11.5c-5.677 0-9.286.684-10.876 1.071.273-3.273.909-5.4.943-5.512.071-.235.227-.436.437-.562.14-.085 1.435-.831 3.96-.971 1.532-.086 2.658.048 3.34.174.34.062.623.296.749.618l.468 1.19c.317-.006.645-.009.979-.009 6.145 0 9.42.98 9.772 1.093.353.111.614.408.682.771.148.804.313 1.9.422 3.207-1.59-.387-5.2-1.071-10.876-1.071zm0 2c3.024 0 5.434.205 7.238.447-.666.03-1.265.053-1.737.053-5.117 0-7.5 2.384-7.5 7.5 0 1.588.23 2.911.7 3.983-5.229-.128-7.897-.995-8.016-1.034-.305-.102-.542-.343-.638-.65-.043-.136-1.046-3.401-1.046-8.298 0-.283.004-.56.011-.833.851-.243 4.514-1.167 10.989-1.167z"/></svg>