<svg id="Layer_1" viewBox="0 0 24 24" xmlns="http://www.w3.org/2000/svg" data-name="Layer 1"><path d="m1.813 13.551c-.033-.088-.813-2.208-.813-5.551s.78-5.463.813-5.551c.116-.309.377-.541.697-.62.138-.034 3.438-.829 9.489-.829s9.352.795 9.489.829c.32.079.581.311.697.62.033.088.813 2.208.813 5.551s-.78 5.463-.813 5.551c-.116.309-.377.541-.697.62-.138.034-3.438.829-9.489.829s-9.352-.795-9.489-.829c-.32-.079-.581-.311-.697-.62zm12.201 3.672c-.042-.009-1.028-.224-2.015-.224s-1.973.214-2.015.224c-.381.083-.678.381-.762.762-.009.042-.224 1.029-.224 2.015s.215 1.973.224 2.015c.084.381.381.678.762.762.042.009 1.028.224 2.015.224s1.973-.214 2.015-.224c.381-.083.678-.381.762-.762.009-.042.224-1.029.224-2.015s-.215-1.973-.224-2.015c-.084-.381-.381-.678-.762-.762zm8 0c-.042-.009-1.028-.224-2.015-.224s-1.973.214-2.015.224c-.381.083-.678.381-.762.762-.009.042-.224 1.029-.224 2.015s.215 1.973.224 2.015c.084.381.381.678.762.762.042.009 1.028.224 2.015.224s1.973-.214 2.015-.224c.381-.083.678-.381.762-.762.009-.042.224-1.029.224-2.015s-.215-1.973-.224-2.015c-.084-.381-.381-.678-.762-.762zm-16 0c-.042-.009-1.028-.224-2.015-.224s-1.973.214-2.015.224c-.381.083-.678.381-.762.762-.009.042-.224 1.029-.224 2.015s.215 1.973.224 2.015c.084.381.381.678.762.762.042.009 1.028.224 2.015.224s1.973-.214 2.015-.224c.381-.083.678-.381.762-.762.009-.042.224-1.029.224-2.015s-.215-1.973-.224-2.015c-.084-.381-.381-.678-.762-.762z"/></svg>