<?xml version="1.0" encoding="UTF-8"?>
<svg xmlns="http://www.w3.org/2000/svg" id="Layer_1" data-name="Layer 1" viewBox="0 0 24 24">
  <polygon points="13.001 13.001 13.001 16.394 16.394 13.001 13.001 13.001"/>
  <polygon points="10.999 10.999 10.999 8.151 8.15 10.999 10.999 10.999"/>
  <path d="M21.819,2.846c-.1-.327-.358-.579-.686-.672-.16-.045-3.725-1.035-8.131-1.173V10.999h9.999c-.132-4.665-1.136-8.003-1.181-8.152Z"/>
  <polygon points="5.318 10.999 10.999 5.319 10.999 2.818 2.818 10.999 5.318 10.999"/>
  <path d="M2.181,21.153c.1,.327,.358,.579,.686,.672,.16,.045,3.725,1.035,8.131,1.173V13.001H1c.132,4.665,1.136,8.003,1.181,8.152Z"/>
  <path d="M21.132,21.825c.33-.093,.589-.347,.687-.675,.04-.132,.816-2.741,1.096-6.506l-8.263,8.262c3.609-.286,6.339-1.042,6.479-1.081Z"/>
  <polygon points="19.226 13.001 13.001 19.226 13.001 21.726 21.726 13.001 19.226 13.001"/>
  <path d="M2.868,2.175c-.33,.093-.589,.347-.687,.675-.042,.139-.898,3.013-1.135,7.089L9.933,1.052c-3.895,.244-6.917,1.082-7.065,1.123Z"/>
</svg>
