<?xml version="1.0" encoding="UTF-8"?>
<svg xmlns="http://www.w3.org/2000/svg" id="Layer_1" data-name="Layer 1" viewBox="0 0 24 24">
  <path d="M21.615,7.06c-.07-.149-.177-.278-.31-.376-3.502-2.593-7.96-5.684-9.306-5.684-1.363,0-5.813,3.091-9.307,5.685-.135,.099-.241,.23-.312,.382-.05,.108-1.226,2.703-1.226,8,0,1.86,.146,5.211,.355,7.046,.058,.505,.484,.887,.993,.887h3.52c.293,0,.571-.128,.761-.352,.19-.223,.273-.518,.227-.807-.131-.815-.272-2.559-.272-3.956,0-2.154,.356-4.125,.556-5.061,.887-.199,2.709-.544,4.705-.544s3.821,.345,4.706,.544c.199,.93,.555,2.89,.555,5.061,0,1.392-.143,3.137-.274,3.956-.047,.289,.036,.584,.226,.808,.19,.223,.469,.352,.762,.352h3.519c.508,0,.936-.381,.993-.886,.205-1.784,.358-5.192,.358-7.047,0-5.345-1.179-7.9-1.229-8.007Z"/>
  <rect x="8.457" y="14.107" width="7.086" height="3.51" rx="1" ry="1"/>
</svg>
