<?xml version="1.0" encoding="UTF-8"?>
<svg xmlns="http://www.w3.org/2000/svg" id="Layer_1" data-name="Layer 1" viewBox="0 0 24 24">
  <path d="M8.694,6.353c.352,0,.678,.027,.98,.078l1.053-1.148c.373-.408,1.008-.435,1.413-.062,.407,.374,.435,1.006,.062,1.413l-.671,.732c.565,.619,.85,1.518,.851,2.697h3.973c-.148-4.233-.728-7.181-.756-7.322-.076-.378-.364-.679-.738-.77-.117-.028-2.891-.695-6.166-.695S2.646,1.944,2.529,1.972c-.376,.091-.664,.393-.74,.772-.028,.143-.606,3.116-.755,7.32h3.971c.001-2.462,1.242-3.711,3.688-3.711Z"/>
  <path d="M7.006,10.064h3.376c0-1.453-.443-1.711-1.687-1.711s-1.688,.258-1.688,1.711Z"/>
  <path d="M22.494,3.074c-.624-.552-1.571-.491-2.117,.129l-2.395,2.707c-.243,.274-.377,.628-.377,.994v1.945c0,3.562-.286,6.534-.451,7.953-.262,.067-.593,.135-.989,.187,.125-1.403,.222-3.081,.224-4.926H1c.006,5.22,.758,9.045,.79,9.206,.076,.379,.366,.681,.742,.771,.116,.028,2.889,.683,6.162,.683s6.045-.655,6.161-.683c.377-.09,.668-.393,.744-.773,.01-.053,.095-.489,.206-1.228,2.058-.146,3.241-.705,3.387-.778,.438-.218,.743-.637,.815-1.122,.024-.163,.598-4.071,.598-9.29v-1.377l2.018-2.281c.55-.621,.491-1.568-.129-2.117Z"/>
</svg>
