<svg id="Layer_1" viewBox="0 0 24 24" xmlns="http://www.w3.org/2000/svg" data-name="Layer 1"><path d="m17 11c-4.149 0-6 1.851-6 6s1.851 6 6 6 6-1.851 6-6-1.851-6-6-6zm2 7h-1v1c0 .553-.447 1-1 1s-1-.447-1-1v-1h-1c-.553 0-1-.447-1-1s.447-1 1-1h1v-1c0-.553.447-1 1-1s1 .447 1 1v1h1c.553 0 1 .447 1 1s-.447 1-1 1zm1.964-8.283c-1.105-.471-2.425-.717-3.964-.717-1.658 0-3.067.28-4.22.826-.16-.328-.416-.55-.78-.679v-3.147c0-.553-.447-1-1-1s-1 .447-1 1v3.147c-.698.247-1 .825-1 1.853 0 .938.253 1.5.826 1.78-.546 1.153-.826 2.562-.826 4.22 0 .341.013.67.036.99h-1.037l-1.688 1.769c-.305.263-.739.315-1.096.137-2.876-1.426-4.216-4.256-4.216-8.905.001-7.011 2.991-10.001 10.001-10.001 6.57 0 9.608 2.627 9.964 8.727z"/></svg>