<svg id="Layer_1" viewBox="0 0 24 24" xmlns="http://www.w3.org/2000/svg" data-name="Layer 1"><path d="m5.466 10.206c.191.082.39.121.586.121.141 0 .28-.021.413-.059.595-1.215 1.591-2.911 3.055-4.375 1.436-1.436 3.073-2.416 4.315-3.028.077-.305.059-.636-.072-.949-.323-.764-1.205-1.122-1.965-.798-.095.04-2.345 1.003-4.234 2.893-1.885 1.885-2.852 4.137-2.892 4.232-.322.762.033 1.639.794 1.963z"/><path d="m19.674 8.556c-.585-.67-1.271-1.414-2.043-2.187s-1.519-1.46-2.187-2.044c-.99.429-2.923 1.397-4.51 2.982-1.607 1.607-2.578 3.562-3.014 4.585-.007.017-.015.033-.023.049.297.341.62.702.967 1.074l-7.425 7.425c-.586.585-.586 1.536 0 2.121.293.293.677.439 1.061.439s.768-.146 1.061-.439l7.425-7.425c.373.347.732.67 1.073.967.016-.008.033-.016.05-.023 1.02-.435 2.973-1.404 4.584-3.015 1.584-1.585 2.557-3.531 2.981-4.509z"/><path d="m22.087 10.241c-.313-.134-.648-.152-.956-.073-.611 1.239-1.593 2.879-3.025 4.311-1.468 1.467-3.163 2.463-4.377 3.057-.091.318-.078.667.06.995.242.573.798.917 1.382.917.195 0 .393-.038.583-.119.095-.04 2.345-1.003 4.234-2.893 1.885-1.885 2.852-4.137 2.892-4.232.322-.762-.033-1.639-.794-1.963z"/></svg>