<svg id="Layer_1" viewBox="0 0 24 24" xmlns="http://www.w3.org/2000/svg" data-name="Layer 1"><path d="m17 15c1.318 0 1.5.182 1.5 1.5s-.182 1.5-1.5 1.5-1.5-.182-1.5-1.5.182-1.5 1.5-1.5zm-14.5-7.5c0 .296.027.566.056.833l-.637.368c-.717.415-.963 1.332-.548 2.049.417.724 1.345.959 2.049.548l.437-.252c.44.368.988.626 1.643.778v.676c0 .829.671 1.5 1.5 1.5s1.5-.671 1.5-1.5v-.676c.654-.151 1.203-.41 1.643-.778l.437.252c.705.411 1.632.176 2.049-.548.415-.717.169-1.635-.548-2.049l-.637-.368c.03-.267.056-.537.056-.833s-.027-.566-.056-.833l.637-.368c.717-.415.963-1.332.548-2.049-.417-.724-1.345-.959-2.049-.548l-.437.252c-.44-.368-.988-.626-1.643-.778v-.676c0-.829-.671-1.5-1.5-1.5s-1.5.671-1.5 1.5v.676c-.654.151-1.203.41-1.643.778l-.437-.252c-.705-.411-1.633-.175-2.049.548-.415.717-.169 1.635.548 2.049l.637.368c-.03.267-.056.537-.056.833zm3 0c0-1.318.182-1.5 1.5-1.5s1.5.182 1.5 1.5-.182 1.5-1.5 1.5-1.5-.182-1.5-1.5zm7 9c0 .296.027.566.056.833l-.637.368c-.717.415-.963 1.332-.548 2.049.417.724 1.345.959 2.049.548l.437-.252c.44.368.988.626 1.643.778v.676c0 .829.671 1.5 1.5 1.5s1.5-.671 1.5-1.5v-.676c.654-.151 1.203-.41 1.643-.778l.437.252c.705.411 1.632.176 2.049-.548.415-.717.169-1.635-.548-2.049l-.637-.368c.03-.267.056-.537.056-.833s-.027-.566-.056-.833l.637-.368c.717-.415.963-1.332.548-2.049-.417-.724-1.345-.959-2.049-.548l-.437.252c-.44-.368-.988-.626-1.643-.778v-.676c0-.829-.671-1.5-1.5-1.5s-1.5.671-1.5 1.5v.676c-.654.151-1.203.41-1.643.778l-.437-.252c-.705-.411-1.633-.175-2.049.548-.415.717-.169 1.635.548 2.049l.637.368c-.03.267-.056.537-.056.833z"/></svg>