<svg id="Layer_1" viewBox="0 0 24 24" xmlns="http://www.w3.org/2000/svg" data-name="Layer 1"><path d="m20.92 17.392c-.171.403-.577.625-.991.595-.141 1.964-.444 3.197-.458 3.257-.071.282-.262.521-.523.651-.09.045-2.265 1.105-6.947 1.105s-6.857-1.061-6.947-1.105c-.261-.131-.452-.369-.523-.651-.015-.059-.317-1.293-.458-3.256-.414.03-.819-.191-.991-.594-.217-.508.02-1.096.527-1.312.077-.033 1.607-.67 3.926-1.125.523-.103 1.06.102 1.387.524.981 1.268 2.005 2.462 3.08 3.521 1.075-1.059 2.099-2.253 3.08-3.521.326-.422.863-.626 1.387-.524 2.319.455 3.849 1.092 3.926 1.125.507.217.743.804.527 1.312zm-8.92-8.392c-2.087 0-3.808-.223-5-.442v.442c0 3.411 1.589 5 5 5s5-1.589 5-5v-.442c-1.192.219-2.913.442-5 .442zm6.895-4.053c-.044.088-.357.673-1.107 1.396-.854.213-2.973.656-5.788.656s-4.918-.44-5.778-.654c-.756-.725-1.072-1.31-1.116-1.399-.174-.349-.13-.768.114-1.072 2.274-2.843 6.598-2.875 6.781-2.875s4.507.032 6.781 2.875c.244.305.288.724.114 1.072zm-4.912-1.419c-.043-.14-.165-.243-.311-.261-.339-.044-.641-.076-.924-.097-.125-.302-.263-.603-.414-.902-.064-.126-.194-.216-.335-.206-.141-.01-.271.079-.335.206-.15.299-.289.6-.414.902-.283.021-.585.053-.924.097-.146.019-.267.121-.311.261-.043.14 0 .293.109.391.225.2.442.393.66.578-.095.331-.175.663-.238.994-.026.138.026.279.137.366s.261.104.389.044c.339-.157.643-.32.926-.492.283.172.587.335.926.492.128.06.277.042.389-.044.111-.087.164-.228.137-.366-.063-.331-.143-.662-.238-.994.218-.186.435-.378.66-.578.11-.098.153-.25.109-.391z"/></svg>