<svg id="Layer_1" viewBox="0 0 24 24" xmlns="http://www.w3.org/2000/svg" data-name="Layer 1"><path d="m22.226 4.55c-.091-.359-.373-.639-.732-.727-.138-.033-3.443-.823-9.494-.823s-9.356.79-9.494.823c-.359.088-.641.367-.732.727-.032.125-.774 3.109-.774 7.45s.743 7.326.774 7.45c.091.359.373.639.732.727.138.033 3.443.823 9.494.823s9.356-.79 9.494-.823c.359-.088.641-.367.732-.727.032-.125.774-3.109.774-7.45s-.743-7.326-.774-7.45zm-15.226 10.45c.878 0 1-.122 1-1-.552 0-1-.448-1-1s.448-1 1-1h1c.552 0 1 .448 1 1v1c0 1.991-1.009 3-3 3s-3-1.009-3-3v-4c0-1.991 1.009-3 3-3s3 1.009 3 3c0 .552-.448 1-1 1s-1-.448-1-1c0-.878-.122-1-1-1s-1 .122-1 1v4c0 .878.122 1 1 1zm5.459 1.989c-.534.084-1.058-.292-1.137-.84-.013-.088-.323-2.176-.323-4.304 0-2.141.313-3.942.327-4.018.096-.543.618-.906 1.158-.811.543.096.907.614.812 1.158-.003.017-.296 1.712-.296 3.671 0 1.974.297 3.988.3 4.008.082.546-.294 1.055-.841 1.137zm6.409-7.902c-1.056-.14-2.046-.071-2.718.03-.058.478-.122 1.171-.142 1.936.585-.051 1.403-.069 2.038-.034.552.026.978.494.952 1.046s-.495.971-1.046.952c-.59-.034-1.379-.012-1.905.039.074 1.417.208 2.829.21 2.849.052.55-.351 1.038-.9 1.091-.541.054-1.04-.349-1.091-.9-.011-.114-.267-2.818-.267-4.595 0-1.817.267-3.347.278-3.411.07-.394.367-.708.756-.8.05-.012 1.246-.289 2.591-.289.476 0 .983.035 1.506.104.547.072.933.575.86 1.123-.072.548-.574.934-1.123.86z"/></svg>