<svg id="Layer_1" viewBox="0 0 24 24" xmlns="http://www.w3.org/2000/svg" data-name="Layer 1"><path d="m22.75 18c-.307 2.086-.791 3.322-.821 3.396-.109.273-.333.484-.612.577-.129.043-3.225 1.052-9.316 1.052s-9.188-1.009-9.316-1.052c-.279-.093-.503-.304-.612-.577-.03-.074-.514-1.311-.821-3.396zm.25-3.5c0 .505-.031 1.003-.062 1.5h-21.876c-.03-.497-.062-.995-.062-1.5 0-2.406.347-4.745 1.024-6.803.102-.31.348-.551.661-.642 2.005-.589 4.497-.898 7.26-1.005-.466.01-.864.017-1.013.017-1.696 0-2.896-1.791-2.259-3.532.353-.966 1.299-1.536 2.328-1.535 1.38 0 2.448.872 2.755 2.487.081.426.173 1 .248 1.495.071-.494.158-1.069.239-1.495.308-1.615 1.375-2.487 2.755-2.487 1.029 0 1.974.569 2.328 1.535.637 1.741-.563 3.532-2.259 3.532-.151 0-.553-.007-1.022-.017 2.767.106 5.263.415 7.27 1.005.313.092.559.333.661.642.677 2.057 1.024 4.396 1.024 6.802zm-6.007-4.368c.064-.549-.329-1.046-.877-1.109-3.101-.362-3.116-2.333-3.116-2.996-.946-.026-1.049-.026-2 0 0 .663-.015 2.634-3.116 2.996-.548.063-.941.561-.877 1.109.06.509.491.884.992.884 1.757-.156 3.17-.875 4.001-1.936.831 1.06 2.243 1.78 4.001 1.936.501 0 .933-.375.992-.884z"/></svg>