<?xml version="1.0" encoding="UTF-8"?>
<svg xmlns="http://www.w3.org/2000/svg" id="Layer_1" data-name="Layer 1" viewBox="0 0 24 24">
  <path d="M22.906,10.585c-.096-1.648-.238-3.082-.423-4.261-.334-2.129-1.978-3.802-4.091-4.163-.683-.117-1.372-.176-2.047-.176-.828,0-1.5,.671-1.5,1.5s.672,1.5,1.5,1.5c.507,0,1.025,.045,1.542,.133,.842,.144,1.497,.815,1.632,1.67,.17,1.084,.302,2.42,.393,3.972,.027,.468,.047,.925,.061,1.366-.6-.181-1.292-.27-2.078-.27-2.646,0-4.229,1.016-4.793,3.093-.354-.098-.724-.149-1.102-.149s-.747,.051-1.102,.149c-.564-2.077-2.147-3.093-4.793-3.093-.786,0-1.478,.09-2.078,.27,.013-.441,.033-.899,.061-1.366,.091-1.55,.223-2.887,.393-3.972,.134-.855,.79-1.527,1.631-1.67,.518-.088,1.037-.133,1.542-.133,.829,0,1.5-.671,1.5-1.5s-.671-1.5-1.5-1.5c-.674,0-1.363,.059-2.047,.176-2.113,.36-3.756,2.033-4.09,4.163-.185,1.181-.327,2.615-.424,4.261-.17,2.909-.06,5.396-.015,6.193,0,.052-.001,.105-.001,.158,0,3.418,1.645,5.079,5.029,5.079,2.903,0,4.526-1.223,4.929-3.728,.061-.045,.119-.096,.174-.151,.425-.431,1.159-.431,1.584,0,.055,.056,.113,.106,.174,.152,.403,2.505,2.026,3.728,4.928,3.728,3.384,0,5.029-1.661,5.029-5.079,0-.055,0-.11-.001-.164,.045-.803,.155-3.284-.016-6.187Z"/>
</svg>
