<?xml version="1.0" encoding="UTF-8"?>
<svg xmlns="http://www.w3.org/2000/svg" id="Layer_1" data-name="Layer 1" viewBox="0 0 24 24">
  <path d="M12,3.993c.552,0,1-.448,1-1v-.993c0-.552-.448-1-1-1s-1,.448-1,1v.993c0,.552,.448,1,1,1Z"/>
  <path d="M15.559,4.147c.259,0,.519-.1,.714-.3l.688-.702c.386-.395,.38-1.027-.015-1.414-.393-.386-1.027-.38-1.414,.015l-.688,.702c-.386,.395-.38,1.027,.015,1.414,.194,.19,.447,.286,.7,.286Z"/>
  <path d="M7.727,3.847c.196,.2,.455,.3,.714,.3,.252,0,.505-.095,.7-.286,.395-.387,.401-1.02,.015-1.414l-.688-.702c-.387-.396-1.021-.401-1.414-.015-.395,.387-.401,1.02-.015,1.414l.688,.702Z"/>
  <path d="M22.032,20.527c-.12-.82-.879-1.39-1.7-1.269l-1.106,.161-.256-1.886c1.541-.801,2.568-2.452,2.54-4.318l-.048-1.28h-7.165l-.712,3.045c-.107,.412-.247,.806-.415,1.178,.684,.949,1.69,1.595,2.832,1.81l.255,1.882-1.134,.165c-.82,.119-1.388,.88-1.269,1.7,.108,.747,.75,1.284,1.482,1.284,.072,0,.145-.005,.218-.016l5.208-.757c.82-.119,1.388-.88,1.269-1.7Z"/>
  <path d="M14.989,8.978l-.213,.912h6.611l-.106-2.853c-.011-.295-.149-.571-.379-.757-.16-.13-1.659-1.248-5.083-.753-.69,.1-1.287,.242-1.802,.407,.241,.241,.4,.444,.492,.574,.507,.715,.682,1.616,.481,2.469Z"/>
  <path d="M8.182,5.528c-3.42-.493-4.922,.624-5.083,.753-.23,.186-.368,.462-.379,.757l-.106,2.853H12.674l.323-1.38c.067-.284,.008-.584-.161-.823-.12-.17-1.268-1.668-4.654-2.16Z"/>
  <path d="M2.489,13.238c-.028,1.848,.999,3.496,2.54,4.296l-.256,1.886-1.106-.161c-.824-.121-1.581,.449-1.7,1.269s.449,1.581,1.269,1.7l5.208,.757c.073,.011,.146,.016,.218,.016,.733,0,1.374-.538,1.482-1.284,.119-.82-.449-1.581-1.269-1.7l-1.134-.165,.255-1.883c1.707-.323,3.114-1.61,3.594-3.453l.604-2.58H2.538l-.048,1.303Z"/>
</svg>
