<?xml version="1.0" encoding="UTF-8"?>
<svg xmlns="http://www.w3.org/2000/svg" id="Layer_1" data-name="Layer 1" viewBox="0 0 24 24">
  <path d="M21.466,1.015c-.823-.11-1.578,.457-1.694,1.276l-1.295,9.218c-4.351-1.811-9.092-2.762-13.882-2.762-.449,0-.875,.201-1.16,.55-2.921,3.564-2.921,9.589,0,13.153,.285,.349,.711,.55,1.16,.55H12.692c4.683,0,8.492-3.747,8.492-8.354v-.848l1.558-11.089c.115-.82-.456-1.579-1.276-1.694ZM11.908,18.708c-.065,.504-.495,.872-.991,.872-.042,0-.085-.003-.129-.008l-4.487-.577c-.548-.071-.935-.572-.864-1.12,.071-.546,.558-.927,1.12-.864l4.487,.577c.548,.071,.935,.572,.864,1.12Zm3.63-3.67c-.065,.504-.495,.872-.991,.872-.042,0-.085-.003-.129-.008l-7.646-.983c-.548-.071-.935-.572-.864-1.12,.071-.547,.562-.924,1.12-.864l7.646,.983c.548,.07,.935,.572,.864,1.12Z"/>
</svg>
