<svg id="Layer_1" viewBox="0 0 24 24" xmlns="http://www.w3.org/2000/svg" data-name="Layer 1"><path d="m5.03 8.511c.13-3.443.652-6.532.677-6.68.093-.543.612-.911 1.153-.817.545.093.911.61.817 1.154-.002.013-.082.487-.185 1.246.436-.073.977-.155 1.581-.227l.123-1.283c.053-.55.544-.955 1.091-.9.55.053.952.542.899 1.091l-.089.925c.298-.013.6-.021.902-.021.295 0 .589.008.881.02l-.104-.906c-.063-.548.33-1.044.879-1.108.554-.058 1.045.331 1.107.879l.15 1.3c.596.07 1.131.151 1.566.224-.108-.751-.191-1.219-.193-1.233-.098-.543.264-1.063.807-1.161.552-.104 1.063.263 1.162.806.026.148.575 3.23.714 6.669-1.321-.172-3.088-.36-4.968-.444.018-1.437-.551-2.055-2-2.047-1.452-.01-2.02.616-2 2.054-1.898.091-3.668.285-4.97.457zm6.97 4.489c1.444-.007 2.014.602 2 2.037 2.759.097 5.185.37 6.856.605-.142-1.583-.359-3.238-.508-4.222-.066-.436-.413-.774-.85-.836-1.664-.237-4.579-.583-7.422-.583-2.933 0-5.946.369-7.58.606-.437.063-.78.402-.845.838-.147.987-.357 2.64-.499 4.196 1.671-.235 4.094-.507 6.849-.604-.014-1.435.556-2.044 2-2.037m0 7c1.429 0 2 .571 2 2v.943c3.992-.207 7.984-.632 8.179-.667.499-.091.851-.54.819-1.045-.057-.923-.144-1.969-.241-2.581-.067-.423-.396-.75-.819-.82-1.673-.275-5.593-.83-9.938-.83s-8.265.555-9.938.83c-.423.069-.752.397-.819.82-.097.612-.184 1.657-.241 2.581-.031.506.32.955.819 1.045.195.036 4.187.46 8.179.667v-.943c0-1.429.571-2 2-2"/></svg>