<svg id="Layer_1" viewBox="0 0 24 24" xmlns="http://www.w3.org/2000/svg" data-name="Layer 1"><path d="m22.992 2.294c-.062.506-.494.876-.991.876-.003 0-.005 0-.008 0 .003 1.133.007 2.546.007 2.653 0 1.383-.463 2.109-1.059 2.175-.634.07-1.442-1.151-1.442-1.151s-.809 1.223-1.442 1.151c-.581-.065-1.057-.783-1.057-2.177 0-.107.004-1.531.007-2.666-.502.002-.937-.352-.999-.86-.068-.548.32-1.047.868-1.116 1.896-.236 3.352-.236 5.248 0 .548.068.937.568.868 1.116zm-13.492 7.706c3.07 0 4.5-1.43 4.5-4.5s-1.43-4.5-4.5-4.5-4.5 1.43-4.5 4.5 1.43 4.5 4.5 4.5zm7.196 8.479c-.149-.02-3.682-.479-7.196-.479s-7.047.46-7.196.479c-.821.108-1.398.862-1.291 1.683.108.822.875 1.399 1.683 1.291.006 0 .118-.015.305-.037-.043.857.64 1.586 1.5 1.583.828 0 1.5-.671 1.5-1.5v-.364c1.072-.076 2.295-.136 3.5-.136s2.428.06 3.5.136v.364c0 .829.672 1.5 1.5 1.5.86.003 1.543-.727 1.5-1.583.323.036.293.045.502.05.741 0 1.386-.549 1.485-1.304.107-.821-.47-1.575-1.291-1.683zm-6.197-5.162c.292.774.531 1.642.745 2.716 2.661.096 4.995.372 5.596.448-.48-3.133-2.17-4.854-5.302-5.334-.292.885-.625 1.582-1.038 2.169zm-1.997 0c-.413-.587-.747-1.284-1.038-2.169-3.132.48-4.822 2.201-5.302 5.333.607-.076 2.938-.352 5.596-.448.214-1.074.452-1.942.745-2.716z"/></svg>