<svg id="Layer_1" viewBox="0 0 24 24" xmlns="http://www.w3.org/2000/svg" data-name="Layer 1"><path d="m21.663 19.984c-.039-.004-.284-.031-.682-.068v-6.575c.713-.104 1.148-.183 1.203-.193.355-.065.648-.317.765-.66.117-.342.04-.721-.201-.99-2.566-2.868-5.801-5.216-9.861-7.176 1.341-.413 2.016-1.316 2.052-1.365.083-.115.083-.27 0-.385-.046-.065-1.155-1.572-3.415-1.572-.278 0-.387.166-.421.237-.14.294-.135 2.765.005 3.057.003.006.012.016.016.023-4.065 1.961-7.304 4.31-9.871 7.181-.241.27-.318.648-.201.99.117.343.41.595.765.66.055.01.482.087 1.184.19v6.579c-.389.037-.628.062-.667.067-.824.091-1.417.832-1.326 1.655.087.827.846 1.42 1.655 1.327.042-.005 4.292-.467 9.338-.467s9.291.462 9.333.467c.822.087 1.565-.504 1.655-1.326.091-.823-.502-1.564-1.326-1.656zm-3.683-.297c-.611-.037-1.284-.072-2-.102v-5.72c.713-.047 1.381-.103 2-.163zm-11.98-5.987c.619.06 1.286.116 2 .164v5.722c-.716.03-1.39.065-2 .102zm5 5.806v-5.515c.329.006.663.009 1 .009.331 0 .658-.003.981-.009v5.514c-.323-.003-.649-.005-.98-.005-.338 0-.671.002-1 .006z"/></svg>