<svg id="Layer_1" viewBox="0 0 24 24" xmlns="http://www.w3.org/2000/svg" data-name="Layer 1"><path d="m21.821 21.965c-.192.043-4.767 1.035-9.321 1.035s-9.129-.992-9.322-1.035c-.571-.125-1.018-.571-1.144-1.144-.042-.192-1.035-4.767-1.035-9.321s.994-9.129 1.036-9.321c.177-.81.976-1.318 1.787-1.144.809.177 1.321.977 1.144 1.786-.009.042-.901 4.173-.96 8.263 2.552-4.537 7.422-5.895 13.98-6.064-.13-.105-.252-.22-.386-.321-.662-.497-.797-1.438-.3-2.101.499-.662 1.438-.796 2.101-.3 1.251.938 2.361 2.049 3.3 3.3.399.534.399 1.267 0 1.801-.938 1.251-2.049 2.361-3.3 3.3-.271.202-.586.3-.899.3-.456 0-.906-.207-1.201-.6-.497-.663-.362-1.604.3-2.101.115-.086.218-.185.33-.274-9.453.256-12.517 2.986-12.893 11.242 1.605.285 4.571.732 7.464.732 4.221 0 8.635-.955 8.679-.965.81-.182 1.608.334 1.786 1.144s-.334 1.608-1.144 1.786z"/></svg>