<?xml version="1.0" encoding="UTF-8"?>
<svg xmlns="http://www.w3.org/2000/svg" id="Layer_1" data-name="Layer 1" viewBox="0 0 24 24">
  <ellipse cx="12" cy="20.098" rx="2.645" ry="2.652"/>
  <path d="M15.134,11.49c-1.582,0-2.645,.522-2.645,2.652,0,2.068,1.058,2.652,2.645,2.652s2.645-.536,2.645-2.652-1.058-2.652-2.645-2.652Z"/>
  <path d="M11.511,14.142c0-2.122-1.058-2.652-2.645-2.652s-2.645,.522-2.645,2.652c0,2.068,1.058,2.652,2.645,2.652s2.645-.536,2.645-2.652Z"/>
  <path d="M18.268,5.535c-1.582,0-2.645,.522-2.645,2.652,0,2.068,1.058,2.652,2.645,2.652s2.645-.536,2.645-2.652-1.058-2.652-2.645-2.652Z"/>
  <path d="M8.378,8.187c0-2.122-1.058-2.652-2.645-2.652s-2.645,.522-2.645,2.652c0,2.068,1.058,2.652,2.645,2.652s2.645-.536,2.645-2.652Z"/>
  <path d="M9.247,4.817c.527,0,.991,.431,1.172,1.02-.668,.349-1.064,1.05-1.064,2.35,0,2.068,1.058,2.652,2.645,2.652s2.645-.536,2.645-2.652c0-1.348-.427-2.053-1.145-2.389v-1.559c0-.27,.221-.489,.492-.489,.211,0,.338,.127,.383,.182,.525,.64,1.47,.733,2.111,.209,.641-.525,.734-1.471,.208-2.111-.667-.813-1.652-1.279-2.703-1.279-1.198,0-2.257,.606-2.886,1.527-.562-.294-1.193-.459-1.859-.459-.829,0-1.5,.672-1.5,1.5s.671,1.5,1.5,1.5Z"/>
</svg>
