<svg id="Layer_1" viewBox="0 0 24 24" xmlns="http://www.w3.org/2000/svg" data-name="Layer 1"><path d="m18.497 23c-2.483 0-4.503-2.02-4.503-4.503 0-2.879 3.458-5.926 3.852-6.264.375-.322.927-.322 1.303 0 .394.338 3.852 3.385 3.852 6.264 0 2.483-2.02 4.503-4.503 4.503zm-2.502-21.797c-.949-.097-1.967-.172-3.002-.203v9.991h3.002zm4.455 9.51c.088.075.197.172.314.278h2.219c-.125-4.151-.968-8.044-1.007-8.221-.084-.382-.381-.679-.763-.763-.099-.022-1.38-.299-3.217-.559v8.581c.852-.145 1.752.081 2.454.684zm-12.462.278h3.002v-9.991c-1.035.031-2.053.106-3.002.203zm-5.981 10.222c.084.382.381.679.763.763.099.022 1.38.299 3.217.559v-9.543h-4.987c.125 4.151.968 8.044 1.007 8.221zm5.981 1.567c.949.097 1.967.172 3.002.203v-9.991h-3.002zm-5.981-20.01c-.039.176-.882 4.07-1.007 8.221h4.987v-9.543c-1.836.26-3.118.537-3.217.559-.382.084-.679.381-.763.763z"/></svg>