<svg id="Layer_1" viewBox="0 0 24 24" xmlns="http://www.w3.org/2000/svg" data-name="Layer 1"><path d="m7.994 1.203c.95-.097 1.969-.172 3.005-.203v9.998h-3.005zm3.004 21.797v-9.998h-3.005v9.795c.95.097 1.969.172 3.005.203zm7.011-12.002h4.991c-.125-4.154-.969-8.05-1.008-8.227-.084-.382-.381-.68-.763-.763-.099-.022-1.381-.299-3.219-.56v9.55zm-2.003 2.004h-3.005v9.998c1.036-.031 2.055-.106 3.005-.203zm-10.015 0h-4.991c.125 4.154.969 8.05 1.008 8.227.084.382.381.68.763.763.099.022 1.381.299 3.219.56v-9.55zm12.018 0v9.55c1.838-.261 3.12-.538 3.219-.56.382-.084.68-.381.763-.763.039-.177.883-4.073 1.008-8.227h-4.991zm-12.018-2.004v-9.549c-1.838.261-3.12.538-3.219.56-.382.084-.68.381-.763.763-.039.177-.883 4.073-1.008 8.227h4.991zm7.011-9.998v9.998h3.005v-9.795c-.95-.097-1.969-.172-3.005-.203z"/></svg>