<?xml version="1.0" encoding="UTF-8"?>
<svg xmlns="http://www.w3.org/2000/svg" id="Layer_1" data-name="Layer 1" viewBox="0 0 24 24">
  <path d="M12,4.243c.553,0,1-.447,1-1v-1.243c0-.553-.447-1-1-1s-1,.447-1,1v1.243c0,.553,.447,1,1,1Z"/>
  <path d="M16.313,4.554c.553,0,1-.447,1-1v-1.243c0-.553-.447-1-1-1s-1,.447-1,1v1.243c0,.553,.447,1,1,1Z"/>
  <path d="M7.687,4.554c.553,0,1-.447,1-1v-1.243c0-.553-.447-1-1-1s-1,.447-1,1v1.243c0,.553,.447,1,1,1Z"/>
  <path d="M21.008,6.471c-.165-.046-4.093-1.121-9.008-1.121S3.157,6.425,2.992,6.471c-.433,.12-.732,.515-.732,.964v3.604c0,3.012,2.01,4.996,4.576,5.882-1.069,1.083-2.098,2.446-2.694,4.058-.287,.777,.11,1.641,.887,1.928,.172,.063,.348,.093,.521,.093,.609,0,1.183-.374,1.407-.979,.697-1.886,2.31-3.393,3.544-4.326v3.805c0,.828,.672,1.5,1.5,1.5s1.5-.672,1.5-1.5v-3.806c1.234,.934,2.848,2.442,3.544,4.326,.224,.606,.798,.98,1.407,.98,.173,0,.349-.029,.52-.093,.777-.287,1.175-1.15,.888-1.927-.595-1.612-1.625-2.976-2.694-4.059,2.565-.886,4.576-2.87,4.576-5.882v-3.604c0-.449-.3-.844-.732-.964Z"/>
</svg>
