<?xml version="1.0" encoding="UTF-8"?>
<svg xmlns="http://www.w3.org/2000/svg" id="Layer_1" data-name="Layer 1" viewBox="0 0 24 24">
  <path d="M11.994,1C4.819,1,1,5.106,1,12.019c0,6.859,3.851,10.981,11.006,10.981s10.861-3.737,10.994-11.017c-.122-7.037-4.026-10.983-11.006-10.983ZM6.19,11.571c-.177-.208-.252-.485-.204-.759l.068-.401c.03-.173-.027-.35-.153-.474l-.293-.285c-.258-.251-.348-.619-.236-.96,.111-.34,.4-.583,.754-.635l.404-.059c.175-.025,.325-.135,.403-.293l.181-.366c.319-.645,1.364-.642,1.678,.001l.18,.365c.078,.157,.229,.267,.403,.292l.403,.06c.354,.051,.644,.294,.756,.635,.109,.342,.02,.708-.234,.958l-.295,.287c-.126,.123-.184,.3-.153,.474l.068,.402c.047,.271-.027,.547-.203,.757-.181,.215-.442,.337-.719,.337-.152,0-.299-.037-.437-.11l-.359-.189c-.154-.08-.346-.08-.496,0l-.363,.19c-.395,.206-.876,.103-1.152-.228Zm9.958,5.977c-1.301,1.073-2.734,1.645-4.146,1.654-1.416-.009-2.85-.582-4.15-1.654-.212-.175-.56-.578-.512-1.316,.027-.435,.26-.825,.638-1.07,.401-.26,.894-.312,1.353-.143,1.054,.391,1.906,.596,2.686,.646,.747-.049,1.465-.211,2.655-.646,.711-.26,1.105-.017,1.352,.142,.378,.245,.61,.635,.638,1.071,.048,.738-.3,1.141-.512,1.316Zm2.244-7.897l-.294,.286c-.126,.123-.184,.3-.153,.474l.069,.402c.047,.273-.027,.55-.206,.76-.179,.213-.44,.335-.717,.335-.149,0-.296-.037-.434-.108l-.362-.191c-.154-.08-.346-.08-.496,0l-.363,.19c-.382,.201-.874,.104-1.152-.228-.177-.21-.251-.487-.203-.759l.067-.4c.03-.174-.027-.352-.153-.475l-.293-.285c-.256-.251-.346-.618-.236-.957,.111-.343,.401-.586,.755-.638l.404-.059c.174-.025,.324-.134,.402-.292l.181-.366c.318-.645,1.363-.642,1.678,.001l.18,.365c.078,.157,.229,.267,.403,.292l.405,.059c.354,.052,.643,.295,.754,.635,.111,.341,.021,.709-.235,.959Z"/>
</svg>
