<?xml version="1.0" encoding="UTF-8"?>
<svg xmlns="http://www.w3.org/2000/svg" id="Layer_1" data-name="Layer 1" viewBox="0 0 24 24">
  <path d="M11.994,1C4.819,1,1,5.106,1,12.019c0,6.859,3.851,10.981,11.006,10.981s10.861-3.737,10.994-11.017c-.122-7.037-4.026-10.983-11.006-10.983Zm3.386,6.889c.828,0,1.5,.672,1.5,1.5s-.672,1.5-1.5,1.5-1.5-.672-1.5-1.5,.672-1.5,1.5-1.5Zm-6.76,0c.828,0,1.5,.672,1.5,1.5s-.672,1.5-1.5,1.5-1.5-.672-1.5-1.5,.672-1.5,1.5-1.5Zm7.851,7.59c-.036,.007-.403,.081-.976,.167,.026,.2,.042,.409,.046,.625-.041,2.323-1.329,3.643-3.534,3.657-2.218-.013-3.506-1.333-3.547-3.623,.004-.232,.019-.451,.046-.66-.571-.085-.938-.158-.974-.165-.541-.109-.891-.636-.782-1.178,.108-.541,.633-.894,1.177-.783,.02,.004,2.046,.406,4.074,.406,2.049,0,4.052-.402,4.072-.406,.538-.109,1.069,.239,1.179,.781,.11,.541-.239,1.069-.78,1.179Z"/>
  <path d="M12,15.925c-.516,0-1.026-.023-1.508-.058-.019,.134-.03,.28-.032,.437,.024,1.345,.585,1.619,1.546,1.624,.949-.006,1.511-.279,1.535-1.658-.002-.141-.013-.275-.032-.402-.481,.035-.991,.057-1.508,.057Z"/>
</svg>
