<?xml version="1.0" encoding="UTF-8"?>
<svg xmlns="http://www.w3.org/2000/svg" id="Layer_1" data-name="Layer 1" viewBox="0 0 24 24">
  <g>
    <path d="M21.447,15.126c-.435,0-.846-.155-1.128-.424-.579-.61-.452-1.921-.281-2.594,.054-.013,.561-.156,1.154-.156,.623,0,1.092,.15,1.393,.446,.555,.601,.554,1.72-.002,2.303-.265,.262-.688,.425-1.135,.425Z"/>
    <path d="M2.526,15.124c-.435,0-.841-.154-1.112-.423-.547-.572-.558-1.702-.002-2.303,.301-.295,.769-.445,1.392-.445,.592,0,1.101,.143,1.158,.159,.169,.67,.304,1.97-.286,2.591-.266,.255-.699,.422-1.15,.422Z"/>
  </g>
  <path d="M18.866,16.078c-1.391-1.469-.939-3.787-.768-4.462l.293-1.152,1.152-.293c.364-.096,.936-.211,1.591-.218-.761-4.662-3.938-7.217-9.127-7.251-5.261,.033-8.465,2.529-9.152,7.251,.758,.007,1.401,.164,1.646,.232l1.119,.313,.283,1.127c.169,.675,.613,2.992-.776,4.455-.406,.389-.876,.671-1.382,.844,1.411,2.818,4.236,4.351,8.272,4.374,4.125-.024,6.89-1.482,8.27-4.355-.508-.164-.972-.434-1.349-.793l-.072-.072ZM6.864,10.902c0-1.688,1.007-3.01,2.294-3.01s2.293,1.322,2.293,3.01c0,.552-.447,.999-.999,.999s-.999-.448-.999-.999c0-.518-.18-.861-.294-.981-.115,.119-.295,.463-.295,.981,0,.552-.447,.999-.999,.999s-.999-.448-.999-.999Zm8.744,6.032c-1.132,.933-2.379,1.431-3.608,1.439-1.232-.008-2.479-.506-3.611-1.439-.184-.152-.487-.503-.445-1.145,.024-.378,.226-.718,.555-.931,.349-.227,.777-.272,1.177-.124,.917,.34,1.659,.519,2.337,.562,.65-.043,1.275-.184,2.31-.562,.618-.226,.962-.015,1.176,.124,.329,.213,.531,.553,.555,.932,.042,.642-.261,.993-.445,1.145Zm.526-5.033c-.552,0-.999-.448-.999-.999,0-.518-.18-.862-.295-.981-.114,.12-.294,.463-.294,.981,0,.552-.447,.999-.999,.999s-.999-.448-.999-.999c0-1.688,1.007-3.01,2.293-3.01s2.294,1.322,2.294,3.01c0,.552-.447,.999-.999,.999Z"/>
</svg>
