<?xml version="1.0" encoding="UTF-8"?>
<svg xmlns="http://www.w3.org/2000/svg" id="Layer_1" data-name="Layer 1" viewBox="0 0 24 24">
  <path d="M11.994,1C4.819,1,1,5.106,1,12.019c0,6.859,3.851,10.981,11.006,10.981s10.861-3.737,10.994-11.017c-.122-7.037-4.026-10.983-11.006-10.983Zm-3.374,7.003c.828,0,1.5,.672,1.5,1.5s-.672,1.5-1.5,1.5-1.5-.672-1.5-1.5,.672-1.5,1.5-1.5Zm7.529,8.885c-1.301,1.073-2.734,1.645-4.146,1.654-1.416-.009-2.85-.582-4.15-1.654-.212-.175-.56-.578-.512-1.316,.027-.435,.26-.825,.638-1.07,.401-.26,.894-.312,1.353-.143,1.054,.391,1.906,.596,2.686,.646,.747-.049,1.465-.211,2.655-.646,.711-.26,1.105-.017,1.352,.142,.378,.245,.61,.635,.638,1.071,.048,.738-.3,1.141-.512,1.316Zm-.769-5.885c-.828,0-1.5-.672-1.5-1.5s.672-1.5,1.5-1.5,1.5,.672,1.5,1.5-.672,1.5-1.5,1.5Z"/>
</svg>
