<?xml version="1.0" encoding="UTF-8"?>
<svg xmlns="http://www.w3.org/2000/svg" id="Layer_1" data-name="Layer 1" viewBox="0 0 24 24">
  <path d="M19.619,9.929h-.055c-2.766-.038-5.174-2.41-5.256-5.18,.02-1.257,.51-2.323,1.134-3.175-1.047-.256-2.197-.391-3.449-.399C5.042,1.218,1.175,4.955,1.175,11.982c0,6.906,3.87,10.802,10.831,10.843,7.048-.041,10.688-3.677,10.819-10.842-.019-1.087-.13-2.097-.329-3.029-.843,.595-1.843,.961-2.877,.976Zm-13.372,2.836c0-1.857,1.093-3.312,2.487-3.312s2.487,1.455,2.487,3.312c0,.552-.447,1-1,1s-1-.448-1-1c0-.837-.373-1.285-.492-1.312-.109,.027-.482,.475-.482,1.312,0,.552-.447,1-1,1s-1-.448-1-1Zm9.901,5.783c-1.301,1.073-2.734,1.645-4.146,1.654-1.416-.009-2.85-.582-4.15-1.654-.212-.175-.56-.578-.512-1.316,.027-.435,.26-.825,.638-1.07,.401-.26,.894-.312,1.353-.143,1.054,.391,1.906,.596,2.686,.646,.747-.049,1.465-.211,2.655-.646,.711-.26,1.105-.017,1.352,.142,.378,.245,.61,.635,.638,1.071,.048,.738-.3,1.141-.512,1.316Zm.604-4.783c-.553,0-1-.448-1-1,0-.837-.373-1.285-.492-1.312-.109,.027-.482,.475-.482,1.312,0,.552-.447,1-1,1s-1-.448-1-1c0-1.857,1.093-3.312,2.487-3.312s2.487,1.455,2.487,3.312c0,.552-.447,1-1,1Z"/>
  <path d="M19.579,8.09c1.65-.023,3.248-1.596,3.248-3.231,0-2.055-2.498-3.579-2.778-3.734-.309-.17-.686-.165-.988,.012-.278,.163-2.723,1.651-2.757,3.722,.05,1.668,1.598,3.208,3.275,3.231Z"/>
</svg>
