<?xml version="1.0" encoding="UTF-8"?>
<svg xmlns="http://www.w3.org/2000/svg" id="Layer_1" data-name="Layer 1" viewBox="0 0 24 24">
  <path d="M12,16.336c-.41,0-.817-.016-1.205-.043-.007,.079-.012,.162-.014,.25,.019,1.078,.427,1.284,1.225,1.289,.784-.005,1.193-.211,1.212-1.324-.001-.073-.006-.144-.012-.214-.387,.026-.794,.042-1.206,.042Z"/>
  <path d="M11.994,1C4.819,1,1,5.106,1,12.019c0,6.859,3.851,10.981,11.006,10.981s10.861-3.737,10.994-11.017c-.122-7.037-4.026-10.983-11.006-10.983ZM6.308,9.708c0-.552,.448-1,1-1h2.037c.552,0,1,.448,1,1s-.448,1-1,1h-2.037c-.552,0-1-.448-1-1Zm9.621,6.237c-.029,.006-.303,.061-.736,.128,.015,.141,.024,.287,.026,.436-.037,2.112-1.208,3.31-3.212,3.323-2.018-.013-3.188-1.211-3.225-3.289,.003-.164,.012-.321,.028-.471-.432-.067-.707-.121-.736-.127-.541-.109-.891-.636-.782-1.178,.108-.541,.635-.894,1.177-.783,.018,.003,1.775,.352,3.532,.352,1.775,0,3.513-.348,3.53-.352,.542-.111,1.069,.239,1.179,.781,.11,.541-.239,1.069-.78,1.179Zm-.155-4.324h-.012c-1.237-.008-1.989-.717-2.013-1.898,.024-1.215,.777-1.92,2.015-1.927,1.229,.007,1.999,.735,2.022,1.899-.024,1.214-.776,1.919-2.013,1.927Z"/>
</svg>
