<svg id="Layer_1" viewBox="0 0 24 24" xmlns="http://www.w3.org/2000/svg" data-name="Layer 1"><path d="m21.5 11c-.66-.031-3.602-.988-9.5-1-5.411 0-9.083.941-9.12.951-.796.21-1.62-.27-1.83-1.071s.268-1.62 1.068-1.83c.163-.043 4.055-1.05 9.882-1.05s9.719 1.007 9.882 1.05c.801.21 1.278 1.029 1.068 1.83-.177.674-.785 1.12-1.45 1.12zm1.45 4.88c.21-.801-.268-1.62-1.068-1.83-.163-.043-4.055-1.05-9.882-1.05s-9.719 1.007-9.882 1.05c-.801.21-1.278 1.029-1.068 1.83.21.802 1.034 1.278 1.83 1.071.037-.01 3.709-.951 9.12-.951s9.083.941 9.12.951c.779.21 1.623-.264 1.83-1.071z"/></svg>