<svg id="Layer_1" viewBox="0 0 24 24" xmlns="http://www.w3.org/2000/svg" data-name="Layer 1"><path d="m12 11c-.986 0-1.973-.215-2.015-.224-.381-.084-.678-.381-.762-.762-.009-.042-.224-1.028-.224-2.015s.214-1.973.224-2.015c.083-.381.381-.678.762-.762.042-.009 1.029-.224 2.015-.224s1.973.215 2.015.224c.381.084.678.381.762.762.009.042.224 1.028.224 2.015s-.215 1.973-.224 2.015c-.084.381-.381.678-.762.762-.042.009-1.029.224-2.015.224zm8 0c-.986 0-1.973-.215-2.015-.224-.381-.084-.678-.381-.762-.762-.009-.042-.224-1.028-.224-2.015s.215-1.973.224-2.015c.084-.381.381-.678.762-.762.042-.009 1.028-.224 2.015-.224s1.973.215 2.015.224c.381.084.678.381.762.762.009.042.224 1.028.224 2.015s-.215 1.973-.224 2.015c-.084.381-.381.678-.762.762-.042.009-1.028.224-2.015.224zm-16 0c-.986 0-1.973-.215-2.015-.224-.381-.084-.678-.381-.762-.762-.009-.042-.224-1.028-.224-2.015s.214-1.973.224-2.015c.083-.381.381-.678.762-.762.042-.009 1.029-.224 2.015-.224s1.973.215 2.015.224c.381.084.678.381.762.762.009.042.224 1.028.224 2.015s-.214 1.973-.224 2.015c-.083.381-.381.678-.762.762-.042.009-1.029.224-2.015.224zm8 8c-.986 0-1.973-.215-2.015-.224-.381-.084-.678-.381-.762-.762-.009-.042-.224-1.028-.224-2.015s.214-1.973.224-2.015c.083-.381.381-.678.762-.762.042-.009 1.029-.224 2.015-.224s1.973.215 2.015.224c.381.084.678.381.762.762.009.042.224 1.028.224 2.015s-.215 1.973-.224 2.015c-.084.381-.381.678-.762.762-.042.009-1.029.224-2.015.224zm8 0c-.986 0-1.973-.215-2.015-.224-.381-.084-.678-.381-.762-.762-.009-.042-.224-1.028-.224-2.015s.215-1.973.224-2.015c.084-.381.381-.678.762-.762.042-.009 1.028-.224 2.015-.224s1.973.215 2.015.224c.381.084.678.381.762.762.009.042.224 1.028.224 2.015s-.215 1.973-.224 2.015c-.084.381-.381.678-.762.762-.042.009-1.028.224-2.015.224zm-16 0c-.986 0-1.973-.215-2.015-.224-.381-.084-.678-.381-.762-.762-.009-.042-.224-1.028-.224-2.015s.214-1.973.224-2.015c.083-.381.381-.678.762-.762.042-.009 1.029-.224 2.015-.224s1.973.215 2.015.224c.381.084.678.381.762.762.009.042.224 1.028.224 2.015s-.214 1.973-.224 2.015c-.083.381-.381.678-.762.762-.042.009-1.029.224-2.015.224z"/></svg>