<svg id="Layer_1" viewBox="0 0 24 24" xmlns="http://www.w3.org/2000/svg" data-name="Layer 1"><path d="m22.196 11.021c-.208-.042-5.155-1.02-10.196-1.02s-9.988.978-10.196 1.02c-.467.094-.804.504-.804.98v1c0 10 4.854 10 11 10s11 0 11-10v-1c0-.477-.336-.887-.804-.98zm-15.196 5.98c0 .553-.448 1-1 1s-1-.447-1-1v-3c0-.553.448-1 1-1s1 .447 1 1zm4 1c0 .553-.448 1-1 1s-1-.447-1-1v-4c0-.553.448-1 1-1s1 .447 1 1zm4 0c0 .553-.448 1-1 1s-1-.447-1-1v-4c0-.553.448-1 1-1s1 .447 1 1zm4-1c0 .553-.448 1-1 1s-1-.447-1-1v-3c0-.553.448-1 1-1s1 .447 1 1zm-7-9c-4.22 0-8.36.657-9.951.94.002-.018.003-.038.005-.055.115-1.19.49-2.031.853-2.845.239-.534.467-1.055.62-1.69-.432-.147-.795-.482-.947-.947-.256-.784.165-1.627.947-1.888.158-.053 1.611-.515 3.974-.515s3.816.462 3.974.515c.786.262 1.211 1.111.949 1.897-.159.476-.534.818-.981.956.153.627.379 1.143.615 1.672.266.596.536 1.209.709 1.969-.255-.005-.51-.009-.767-.009zm2.837.091c-.179-.951-.57-2.055-.89-2.724.338-.348.676-.687 1.006-1.003 1.121 1.014 2.536 1.52 2.731 1.584.509.174 1.089-.102 1.263-.63.176-.523-.106-1.09-.628-1.267-.36-.122-1.215-.495-1.881-1.039.736-.633 1.382-1.14 1.831-1.458 1.003-.71 2.318-.742 3.349-.084 1.138.729 1.649 2.131 1.244 3.41-.311.982-.834 2.357-1.657 3.932-1.42-.233-3.762-.564-6.367-.722z"/></svg>