<svg id="Layer_1" viewBox="0 0 24 24" xmlns="http://www.w3.org/2000/svg" data-name="Layer 1"><path d="m16.16 8.542c-.185-.285-.211-.644-.072-.954.376-.833 1.104-1.393 1.946-1.498.965-.121 1.967-.121 2.932 0 .843.105 1.57.665 1.946 1.498.139.31.112.668-.072.954s-.5.458-.84.458h-5c-.34 0-.655-.172-.84-.458zm1.34 8.458c.028 1.509.878 1.993 2.001 2 1.127-.007 1.973-.487 2.001-2-.025-1.453-.878-1.993-2.001-2-1.127.007-1.974.516-2.001 2zm-13-12c1.127-.007 1.973-.487 2.001-2-.025-1.453-.878-1.993-2.001-2-1.127.007-1.974.516-2.001 2 .028 1.509.878 1.993 2.001 2zm15.001 0c1.127-.007 1.973-.487 2.001-2-.025-1.453-.878-1.993-2.001-2-1.127.007-1.974.516-2.001 2 .028 1.509.878 1.993 2.001 2zm1.467 15.092c-.965-.121-1.973-.121-2.934 0-.844.105-1.571.665-1.946 1.497-.139.31-.112.669.072.954s.5.457.84.457h5c.34 0 .655-.172.84-.457s.211-.645.072-.954c-.375-.832-1.103-1.392-1.944-1.497zm-18.968-11.092h5c.34 0 .655-.172.84-.458s.211-.644.072-.954c-.376-.833-1.104-1.392-1.946-1.498-.965-.121-1.967-.121-2.932 0-.841.105-1.568.664-1.945 1.496-.14.31-.113.669.07.955.185.286.501.458.841.458zm14.925 2.256c-.005-.404-.253-.766-.629-.916-.789-.315-2.723-.34-3.296-.34-.094 0-.18.004-.271.005.177-.46.249-.776.249-.776.089-.425-.086-.837-.439-1.069-.365-.241-.834-.202-1.154.065 0 0-.798.779-1.402 2.092-.655.175-1.028.114-2.141.307-.484.078-.841.497-.841.987v3.917c0 .466.322.87.776.975.462.106.888.167 1.224.203v-3.206c0-.552.448-1 1-1s1 .448 1 1v3.898c1.175.38 2.49.602 3.833.602.357 0 .688-.191.867-.501.771-1.342 1.188-2.829 1.272-4.53.035-.51-.046-1.534-.048-1.713zm-10.957 8.836c-.965-.121-1.973-.121-2.934 0-.842.104-1.569.664-1.945 1.496-.14.31-.113.669.071.954s.5.458.84.458h5c.34 0 .655-.172.84-.457s.211-.645.072-.954c-.375-.832-1.103-1.392-1.944-1.497zm-3.468-3.092c.028 1.509.878 1.993 2.001 2 1.127-.007 1.973-.487 2.001-2-.025-1.453-.878-1.993-2.001-2-1.127.007-1.974.516-2.001 2z"/></svg>