<svg id="Layer_1" viewBox="0 0 24 24" xmlns="http://www.w3.org/2000/svg" data-name="Layer 1"><path d="m23 18.872c0 1.329-.833 2.459-2 2.912v.216c0 .552-.447 1-1 1s-1-.448-1-1v-.13c-1.018-.286-1.876-1.042-2.226-2.04-.182-.521.093-1.092.614-1.274.523-.181 1.092.093 1.274.614.165.473.69.83 1.222.83.615 0 1.115-.506 1.115-1.128.004-.694-.62-1.201-1.296-1.124-1.517-.09-2.704-1.352-2.704-2.872 0-1.231.782-2.276 1.872-2.685v-.191c0-.552.447-1 1-1s1 .448 1 1v.185c.785.291 1.427.913 1.717 1.732.185.521-.088 1.092-.609 1.276-.517.187-1.092-.089-1.275-.609-.124-.35-.456-.584-.827-.584-.483 0-.877.393-.877.876-.001.457.367.863.825.869 1.772 0 3.175 1.403 3.175 3.126zm-18.958-1.529c-.086-.824-.836-1.42-1.648-1.335-.824.086-1.422.825-1.336 1.648.209 1.99.483 3.454.628 4.149.166.817.984 1.334 1.774 1.163.812-.169 1.332-.963 1.163-1.774-.134-.64-.386-1.992-.581-3.851zm4.379-2.913c-.038-.827-.746-1.457-1.567-1.429-.828.039-1.468.741-1.429 1.568.168 3.626.657 6.269.86 7.237.166.817.985 1.333 1.775 1.161.811-.17 1.33-.964 1.16-1.775-.188-.897-.641-3.353-.8-6.763zm4.635 0c-.038-.827-.716-1.457-1.568-1.429-.827.039-1.467.741-1.428 1.568.169 3.627.658 6.27.861 7.237.166.817.985 1.333 1.775 1.161.811-.17 1.33-.964 1.16-1.775-.188-.897-.641-3.353-.801-6.763zm6.542-8.246 1.523 1.523c.268.269.668.361 1.023.242.359-.12.62-.432.674-.807.243-1.696.243-3.416 0-5.112-.063-.439-.409-.785-.849-.848-1.694-.242-3.413-.242-5.111 0-.375.053-.688.314-.807.673-.12.359-.026.756.241 1.023l1.181 1.182c-1.169 1.122-2.338 2.337-3.501 3.663-1.199-1.25-2.378-2.206-3.693-3.005-.486-.294-1.094-.291-1.572.009-2.451 1.527-5.63 4.66-7.376 6.833-.52.646-.416 1.59.229 2.109.641.516 1.587.419 2.108-.23 1.422-1.769 3.855-4.195 5.845-5.638 1.137.803 2.194 1.809 3.34 3.166.285.338.704.533 1.146.533h.005c.443-.001.863-.199 1.147-.54 1.477-1.772 2.965-3.359 4.446-4.776z"/></svg>