<svg id="Layer_1" viewBox="0 0 24 24" xmlns="http://www.w3.org/2000/svg" data-name="Layer 1"><path d="m17.813 2.243c-.109-.321-.374-.565-.703-.647-.097-.024-2.402-.596-5.111-.596s-5.014.571-5.111.596c-.329.082-.593.326-.703.647-.028.082-.687 2.043-.687 4.674 0 2.76.688 4.675.695 4.693.117.319.386.557.717.632.072.017 1.632.37 3.171.506.523.537 1.36 1.251 1.92 1.252.565-.002 1.376-.707 1.916-1.252 1.539-.136 3.099-.489 3.17-.506.331-.075.6-.312.717-.632.007-.019.695-1.934.695-4.693 0-2.631-.658-4.592-.687-4.674zm-4.813 7.757c0 .553-.448 1-1 1s-1-.447-1-1v-2c0-.553.448-1 1-1s1 .447 1 1zm-1-4c-.828 0-1.5-.672-1.5-1.5s.672-1.5 1.5-1.5 1.5.672 1.5 1.5-.672 1.5-1.5 1.5zm11 6c0 2.114-.175 4.469-.322 6.071-.136 1.503-1.217 2.743-2.688 3.087l-7.763 1.815c-.15.035-.305.035-.455 0l-7.763-1.815c-1.471-.344-2.552-1.584-2.688-3.087-.146-1.603-.321-3.957-.321-6.071 0-3.008.487-6.957.508-7.123.036-.289.195-.548.438-.709.106-.07.744-.463 1.899-.775-.179.926-.345 2.138-.345 3.524 0 3.128.785 5.294.816 5.38.351.96 1.155 1.669 2.145 1.894.06.015 1.297.299 2.729.474.527.47 1.156.91 1.811 1.147v4.189c0 .553.448 1 1 1s1-.447 1-1v-4.187c.661-.24 1.287-.683 1.81-1.149 1.431-.175 2.668-.459 2.722-.472.996-.227 1.8-.936 2.149-1.891.034-.091.818-2.257.818-5.385 0-1.384-.165-2.598-.344-3.523 1.154.311 1.793.704 1.899.774.242.161.402.42.438.709.021.166.508 4.115.508 7.123z"/></svg>