<svg id="Layer_1" viewBox="0 0 24 24" xmlns="http://www.w3.org/2000/svg" data-name="Layer 1"><path d="m21.977 2.786c-.083-.381-.381-.679-.762-.762-.19-.042-4.713-1.023-9.214-1.023s-9.025.98-9.215 1.022c-.381.083-.679.381-.762.762-.042.19-1.023 4.713-1.023 9.214s.981 9.024 1.023 9.214c.083.381.381.679.762.762.19.042 4.713 1.023 9.214 1.023s9.024-.981 9.214-1.023c.381-.083.679-.381.762-.762.042-.19 1.023-4.713 1.023-9.214s-.981-9.024-1.023-9.214zm-5.506 14.457c-.131.539-.69.862-1.211.728-.536-.133-.862-.675-.73-1.211.004-.016.327-1.367.434-3.454-.726-.135-1.85-.305-2.963-.305s-2.239.169-2.963.304c.107 2.088.429 3.439.434 3.455.132.536-.194 1.078-.73 1.211-.521.134-1.08-.188-1.211-.728-.021-.086-.529-2.155-.529-5.242s.508-5.156.529-5.242c.134-.535.673-.863 1.211-.728.536.133.862.675.73 1.211-.004.017-.387 1.618-.456 4.035.8-.136 1.883-.276 2.986-.276s2.186.14 2.986.276c-.069-2.417-.451-4.018-.456-4.035-.132-.536.194-1.078.73-1.211.537-.138 1.077.191 1.211.728.021.086.529 2.155.529 5.242s-.508 5.156-.529 5.242z"/></svg>