<svg id="Layer_1" viewBox="0 0 24 24" xmlns="http://www.w3.org/2000/svg" data-name="Layer 1"><path d="m12 12c.062 2.353-.598 6.101-.62 5.878-.206.809-1.049 1.282-1.83 1.074-.802-.209-1.282-1.028-1.074-1.83.004-.014.329-1.331.464-3.391-.59-.118-1.416-.231-2.44-.231s-1.849.113-2.44.231c.135 2.06.46 3.378.464 3.394.205.802-.276 1.619-1.078 1.826-.779.207-1.621-.266-1.826-1.073-.027.163-.67-3.405-.62-5.878 0-3.452.596-5.78.62-5.878.209-.802 1.023-1.278 1.83-1.074.801.209 1.281 1.026 1.074 1.827-.004.017-.375 1.511-.489 3.813.679-.106 1.502-.188 2.465-.188s1.785.082 2.465.188c-.114-2.302-.485-3.796-.489-3.813-.205-.802.276-1.619 1.078-1.826.795-.207 1.618.272 1.826 1.073.024.098.62 2.426.62 5.878zm10.979 4.939c-.141-.816-.92-1.358-1.732-1.225-1.123.193-2.135.282-3.252.285 2.202-2.402 4.006-5.409 4.006-7.667 0-1.521-.752-3.333-4.333-3.333-3.171 0-3.948 1.644-4.071 1.974-.291.775.102 1.64.878 1.931.693.264 1.463-.028 1.823-.65.099-.064.462-.254 1.37-.254 1.022 0 1.315.146 1.315.146.121 1.822-2.288 5.426-5.392 7.854-.477.363-.691.976-.546 1.557.146.582.623 1.021 1.215 1.117 1.345.219 2.577.328 3.793.328s2.421-.11 3.701-.33c.816-.141 1.365-.916 1.225-1.732z"/></svg>