<?xml version="1.0" encoding="UTF-8"?>
<svg xmlns="http://www.w3.org/2000/svg" id="Layer_1" data-name="Layer 1" viewBox="0 0 24 24">
  <path d="M6.879,17.276c0-3.282,1.305-7.151,7.269-7.666l.29-3.752c.037-.471-.264-.901-.718-1.03-.087-.024-1.817-.507-4.087-.674v-1.654c0-.829-.672-1.5-1.5-1.5s-1.5,.671-1.5,1.5v1.654c-2.266,.168-3.998,.649-4.085,.674-.455,.128-.756,.559-.719,1.03l1.202,15.533c.026,.332,.217,.629,.507,.79,.151,.084,1.564,.818,4.596,.818,.335,0,.651-.009,.947-.026-1.818-1.664-2.202-4.014-2.202-5.698ZM3.87,6.549c.911-.194,2.512-.47,4.264-.47s3.351,.276,4.263,.47l-.107,1.375H3.977l-.106-1.375Z"/>
  <path d="M8.964,16.033h13.155c-.573-3.986-3.968-4.481-6.578-4.481s-6.004,.495-6.578,4.481Z"/>
  <path d="M19.075,18.033l-.891,.896c-.349,.35-.812,.542-1.305,.542s-.956-.192-1.304-.542h0s-.891-.896-.891-.896h-5.773c.425,4.967,5.059,4.967,6.631,4.967,2.712,0,6.272-.534,6.632-4.967h-3.098Z"/>
</svg>
