<?xml version="1.0" encoding="UTF-8"?>
<svg xmlns="http://www.w3.org/2000/svg" id="Layer_1" data-name="Layer 1" viewBox="0 0 24 24">
  <path d="M13.021,18.088c-.834,1.549-2.475,2.581-4.342,2.581s-3.508-1.032-4.342-2.581h-.511c-.366,0-.723-.041-1.066-.118,1.611,4.133,5.934,4.666,9.24,4.666,3.595,0,7.726-.583,9.264-4.671-.35,.081-.715,.123-1.09,.123h-7.153Z"/>
  <path d="M20.174,10.485H3.826c-1.559,0-2.826,1.257-2.826,2.802s1.268,2.801,2.826,2.801h1.945c.16,1.45,1.403,2.581,2.907,2.581s2.747-1.131,2.907-2.581h8.588c1.559,0,2.826-1.257,2.826-2.801s-1.268-2.802-2.826-2.802Z"/>
  <path d="M20.174,8.485c.409,0,.806,.051,1.185,.147-1.278-4.469-4.803-7.266-9.359-7.266S3.918,4.163,2.641,8.631c.379-.096,.777-.147,1.185-.147H20.174ZM11.872,2.406c.828,0,1.5,.672,1.5,1.5s-.672,1.5-1.5,1.5-1.5-.672-1.5-1.5,.672-1.5,1.5-1.5Zm-3.964,1.979c.828,0,1.5,.672,1.5,1.5s-.672,1.5-1.5,1.5-1.5-.672-1.5-1.5,.672-1.5,1.5-1.5Z"/>
</svg>
