<svg id="Layer_1" viewBox="0 0 24 24" xmlns="http://www.w3.org/2000/svg" data-name="Layer 1"><path d="m19.353 10.467c-.038-.062-.952-1.532-3.366-3.747-3.347-3.111-6.026-4.126-6.139-4.168-.307-.114-.649-.071-.918.116-1.766 1.226-3.231 3.711-3.293 3.816-.208.356-.176.804.08 1.127.091.114 2.252 2.826 4.624 5.001 2.385 2.188 4.081 3.196 4.152 3.238.155.091.331.138.508.138.087 0 .175-.011.261-.035.071-.019 1.748-.482 2.914-1.684 1.233-1.27 1.319-3.053 1.325-3.252.006-.194-.045-.386-.147-.552z"/><g><path d="m22 13.99h-1c-.552 0-1-.448-1-1s.448-1 1-1h1c.552 0 1 .448 1 1s-.448 1-1 1z"/><g><path d="m21 17.99c-.256 0-.512-.098-.707-.293l-1-1c-.391-.391-.391-1.023 0-1.414s1.023-.391 1.414 0l1 1c.391.391.391 1.023 0 1.414-.195.195-.451.293-.707.293z"/><path d="m17 19.49c-.552 0-1-.448-1-1v-1c0-.552.448-1 1-1s1 .448 1 1v1c0 .552-.448 1-1 1z"/></g></g><path d="m8.988 14.087c-.864-.792-1.692-1.642-2.413-2.422-1 .836-2.13 1.82-3.008 2.687-1.203 1.188-2.566 2.534-2.566 4.107 0 .766.321 1.471.953 2.095.695.687 1.395.957 2.076.957 1.588 0 3.075-1.468 4.17-2.55.921-.909 1.973-2.094 2.845-3.115-.606-.48-1.3-1.065-2.056-1.758z"/></svg>