<svg id="Layer_1" viewBox="0 0 24 24" xmlns="http://www.w3.org/2000/svg" data-name="Layer 1"><path d="m13.5 15.974c0 .828-.672 1.5-1.5 1.5s-1.5-.672-1.5-1.5.672-1.5 1.5-1.5 1.5.672 1.5 1.5zm9.492-3.096c.035.284-.054.569-.243.784-.19.214-.463.337-.749.337-1.364 0-2 .597-2 1 0 5.533-2.468 8-8 8s-8-2.467-8-8c0-.403-.636-1-2-1-.286 0-.559-.123-.749-.337-.189-.215-.278-.5-.243-.784.24-1.964 1.224-3.167 2.992-3.643v-4.235c0-1.215 1.083-2.176 2.336-1.973.983.16 1.664 1.083 1.664 2.08v4.893c0 .552.448 1 1 1s1-.448 1-1v-7c0-1.215 1.083-2.176 2.336-1.973.983.16 1.664 1.083 1.664 2.08v6.893c0 .552.448 1 1 1s1-.448 1-1v-5c0-1.215 1.083-2.176 2.336-1.973.983.16 1.664 1.083 1.664 2.08v4.129c1.768.476 2.753 1.679 2.992 3.643zm-7.451 1.851c-.701-.855-1.843-1.755-3.541-1.755s-2.84.9-3.541 1.755c-.596.727-.596 1.763 0 2.489.701.855 1.842 1.755 3.542 1.755s2.84-.9 3.541-1.755c.596-.727.596-1.763 0-2.49z"/></svg>