<svg id="Layer_1" viewBox="0 0 24 24" xmlns="http://www.w3.org/2000/svg" data-name="Layer 1"><path d="m14.448 2.184c-.113-.34-.4-.594-.752-.664-.106-.021-2.621-.52-4.696-.52s-4.59.498-4.696.52c-.352.07-.639.324-.752.664-.022.067-.551 1.673-.551 3.316s.529 3.249.551 3.316c.114.34.401.594.752.664.106.021 2.621.52 4.696.52s4.59-.498 4.696-.52c.352-.07.639-.324.752-.664.022-.067.552-1.673.552-3.316s-.529-3.249-.552-3.316zm-4.448 3.816h-2c-.552 0-1-.447-1-1s.448-1 1-1h2c.552 0 1 .447 1 1s-.448 1-1 1zm12.648 7.779c-1.723 2.892-3.745 5.108-6.045 6.645-2.511 1.738-5.511 2.583-8.603 2.576-3.064 0-5.59-.498-5.696-.52-.379-.075-.68-.363-.774-.738-.021-.086-.53-2.144-.53-4.242s.508-4.156.53-4.242c.094-.377.398-.665.78-.739.109-.021 2.206-.519 5.19-.519 2.5 0 4.271.532 4.279.532.719.216 1.221.893 1.221 1.645 0 .788-.457 1.458-1.217 1.759-.908.386-2.297.917-3.879 1.069-.55.053-.953.541-.9 1.091.05.518.485.904.995.904 1.975-.103 3.538-.786 4.543-1.215 1.058-.418 1.842-1.255 2.214-2.276 1.395-1.134 2.564-2.557 3.595-4.288.707-1.185 2.244-1.574 3.427-.869 1.169.662 1.582 2.288.87 3.427z"/></svg>