<svg id="Layer_1" viewBox="0 0 24 24" xmlns="http://www.w3.org/2000/svg" data-name="Layer 1"><path d="m9.5 1c-5.872 0-8.5 2.009-8.5 4 0 1.729 1.362 2.637 4.048 2.698.423.006 2.39-.198 2.952-.198 3.168 0 3.881.711 3.892.914-.183.329-1.724.852-4.119.946-.81.089-3.272.359-3.272 2.64 0 1.912 2.783 2.479 4.876 2.74 1.173.146 2.333.209 3.124.236v5.02c0 .155.036.307.105.446.052.104 1.321 2.558 5.385 2.558h.011c4.236-.005 4.938-2.678 4.965-2.792.019-.078.028-.157.028-.237l.005-8.956c0-6.833-4.29-10.016-13.5-10.016z"/></svg>