<svg id="Layer_1" viewBox="0 0 24 24" xmlns="http://www.w3.org/2000/svg" data-name="Layer 1"><path d="m22.756 5.356c-.093-.821-.835-1.411-1.659-1.319-.822.093-1.413.836-1.321 1.659.004.027.218 1.303.218 4.303v1.252c0 .413-.335.748-.748.748s-.748-.335-.748-.748v-1.753c0-3.745-.563-6.443-.608-6.556-.308-.768-1.174-1.141-1.945-.835-.768.305-1.144 1.176-.842 1.945.009.023.395 2.308.395 5.446v1.753c0 .413-.335.748-.748.748h-.004c-.413 0-.748-.335-.748-.748v-2.753c0-3.745-.749-6.169-.773-6.289-.161-.811-.943-1.338-1.758-1.179-.811.158-1.341.945-1.186 1.757.004.024.717 2.573.717 5.711v2.753c0 .413-.335.748-.748.748h-.004c-.413 0-.748-.335-.748-.748v-1.252c0-3.745-.487-5.559-.5-5.68-.088-.823-.821-1.416-1.646-1.33-.822.085-1.42.822-1.337 1.644.002.024.484 2.228.484 5.366 0 1.709.078 2.363 0 3.795-1.269-1.334-2.238-2.3-2.238-2.3-.641-.555-1.512-.646-2.244-.263-.759.396-1.137 1.234-.984 2.033 0 0 1.379 4.45 6.02 8.822.296.279.678.457 1.081.517.982.147 3.052.394 5.864.394 2.623 0 4.596-.404 5.644-.682.53-.141.986-.485 1.234-.974 1.535-3.021 2.082-6.606 2.116-10.342.049-2.169-.181-5.809-.237-5.644z"/></svg>