<svg id="Layer_1" viewBox="0 0 24 24" xmlns="http://www.w3.org/2000/svg" data-name="Layer 1"><path d="m22.759 5.357c-.093-.822-.836-1.411-1.659-1.319-.822.093-1.414.836-1.321 1.659.004.027.218 1.304.218 4.304v1.252c0 .413-.335.748-.748.748s-.748-.335-.748-.748v-1.753c0-3.746-.563-6.444-.608-6.557-.308-.768-1.174-1.141-1.945-.835-.769.305-1.145 1.176-.842 1.945.009.023.395 2.309.395 5.447v1.753c0 .413-.335.748-.748.748h-.004c-.413 0-.748-.335-.748-.748v-2.753c0-3.746-.75-6.17-.773-6.289-.161-.812-.944-1.338-1.758-1.179-.812.158-1.342.945-1.186 1.757.004.024.717 2.573.717 5.711v2.753c0 .413-.335.748-.748.748h-.004c-.413 0-.748-.335-.748-.748v-1.252c0-3.746-.487-5.559-.5-5.68-.088-.823-.821-1.416-1.646-1.331-.822.085-1.42.822-1.337 1.645.002.024.484 2.228.484 5.366 0 1.709.078 2.364 0 3.796-1.269-1.334-2.239-2.3-2.239-2.3-.641-.555-1.512-.646-2.244-.263-.759.396-1.137 1.234-.984 2.034 0 0 1.379 4.451 6.021 8.823.297.279.679.457 1.081.517.982.147 3.053.394 5.865.394 2.623 0 4.597-.404 5.645-.682.53-.141.986-.485 1.234-.974 1.535-3.021 2.082-6.607 2.117-10.343.049-2.17-.181-5.81-.237-5.644zm-8.138 14.953c-.377.254-.866.254-1.243 0-.879-.591-2.379-1.919-2.379-3.69 0-.895.672-1.62 1.5-1.62s1.5.605 1.5 1.5c0-.895.672-1.5 1.5-1.5s1.5.725 1.5 1.62c0 1.771-1.5 3.098-2.379 3.69z"/></svg>