<svg id="Layer_1" viewBox="0 0 24 24" xmlns="http://www.w3.org/2000/svg"><path d="m6.5 6.437c0-3.395 1.448-5.134 4.5-5.437v1.136c-.96.394-1.639 1.336-1.639 2.436 0 1.453 1.182 2.635 2.634 2.635.429.01.764.426.764.854 0 .483-.393.877-.876.877-.371 0-.704-.234-.827-.584-.184-.521-.755-.789-1.276-.61-.521.185-.794.756-.61 1.276.304.86.992 1.508 1.83 1.779v1.077c-3.052-.303-4.5-2.042-4.5-5.437zm5.556-1.248c1.516.09 2.704 1.352 2.704 2.871 0 1.19-.727 2.214-1.759 2.651v1.163c3.052-.303 4.5-2.042 4.5-5.437s-1.448-5.134-4.5-5.437v1.144c.362.15.693.374.959.672.368.411.333 1.044-.079 1.412-.413.367-1.045.333-1.412-.08-.122-.136-.29-.211-.473-.211-.35 0-.634.285-.634.635-.002.376.329.674.694.617zm-3.597 8.152c-.24.329-.339.519-.339.519-.276.57-.16 1.276.331 1.726.479.441 1.159.537 1.739.253 0 0 .841-.348 2.041-1.376.206-.164.409-.341.607-.519-.278.02-.544.056-.838.056-1.361 0-2.531-.24-3.541-.659zm2.555 4.32c-1.283.616-2.872.372-3.915-.602-1.138-1.044-1.451-2.68-.764-4.1.04-.079.175-.326.436-.695-.629-.54-1.14-1.201-1.508-1.993-1.96.05-3.135.233-3.191.242-.431.069-.767.411-.83.842-.01.067-.242 1.667-.242 3.145s.232 3.044.242 3.11c.059.393.345.714.729.817 1.572.423 3.269.534 4.067.562 3.061 3.417 5.654 3.968 5.766 3.991.146.029.295.026.439-.01 2.474-.619 4.083-1.927 5.035-2.98-1.224-1.74-2.505-3.145-3.557-4.173-1.343 1.189-2.392 1.706-2.707 1.844zm11.743-6.317c-.067-.427-.402-.762-.829-.831-.056-.009-1.232-.192-3.191-.242-.819 1.763-2.303 2.921-4.362 3.406 1.244 1.135 2.961 2.904 4.592 5.241.772-.07 1.8-.197 2.998-.437.41-.082.726-.411.792-.824.01-.063.243-1.558.243-3.156s-.233-3.093-.243-3.156z"/></svg>