<svg id="Layer_1" viewBox="0 0 24 24" xmlns="http://www.w3.org/2000/svg" data-name="Layer 1"><path d="m16.5 14c-.828 0-1.5-.672-1.5-1.5v-3c0-.828.672-1.5 1.5-1.5.828 0 1.5.672 1.5 1.5v3c0 .828-.672 1.5-1.5 1.5zm-5.5-4.5v3c0 .828.672 1.5 1.5 1.5.828 0 1.5-.672 1.5-1.5v-3c0-.828-.672-1.5-1.5-1.5-.828 0-1.5.672-1.5 1.5m12 .499c0 .35.009.666 0 1.001-.034 3.717-.576 7.286-2.094 10.297-.258.513-.746.866-1.305.998-1.175.278-3.411.703-6.102.703-2.895 0-5.007-.262-5.953-.407-.358-.055-.697-.199-.972-.435-3.579-3.073-5.54-8.891-5.54-8.891-.153-.799.225-1.638.984-2.034.732-.382 1.603-.292 2.244.263 0 0 .749.669 1.599 1.799.078-1.432.139-3.085.139-4.794 0-3.138-.387-5.424-.395-5.447-.303-.77.073-1.641.842-1.945.771-.306 1.638.067 1.945.835.045.113.608 2.812.608 6.557v3.809c0 1.914 1.453 3.616 3.366 3.689.796.03 1.532-.211 2.134-.633.568.398 1.256.635 2 .635 1.93 0 3.5-1.57 3.5-3.5 0 0-.01-3.071-.011-3.108-.102-2.936-.404-5.394-.413-5.42-.26-.786.166-1.635.951-1.896.787-.26 1.635.164 1.896.949.044.132.577 3.273.577 6.974z"/></svg>