<svg id="Layer_1" viewBox="0 0 24 24" xmlns="http://www.w3.org/2000/svg" data-name="Layer 1"><path d="m15.025 3.579c0 1.762-1.482 3.028-2.365 3.626-.388.262-.894.262-1.282 0-.883-.598-2.365-1.863-2.365-3.626 0-.896.673-1.623 1.503-1.623s1.503.606 1.503 1.503c0-.896.673-1.503 1.503-1.503s1.503.727 1.503 1.623zm.006 18.465h-9.481c-.641 0-1.238-.318-1.604-.844-1.987-2.853-2.946-6.812-2.946-10.677 0-1.887.282-3.842.848-5.826.169-.596.561-1.091 1.103-1.393.62-.346 1.351-.392 2.02-.116 1.091.449 1.637 1.725 1.32 2.862-.369 1.32-.628 2.813-.545 4.431-.634.847-.882 1.929-.657 3.005.278.969.824 1.868 1.493 2.92.266.437.572.881.944 1.318.35.371.932.422 1.343.102.437-.34.515-.969.175-1.406-.906-1.166-1.644-2.426-1.994-3.344-.125-.6.04-1.193.49-1.619.508-.48 1.285-.572 1.889-.224.005.005 1.439.677 2.923 2.462 1.492 1.794 2.816 4.753 3.587 7.113.2.611-.266 1.235-.909 1.235zm-1.137-9.63c.708.852 1.334 1.855 1.871 2.861.523-.799.947-1.578 1.183-2.199.125-.6-.04-1.193-.49-1.619-.508-.48-1.285-.572-1.889-.224-.003.003-.45.22-1.095.707.139.153.279.305.42.474zm8.258-7.717c-.169-.596-.561-1.091-1.103-1.393-.62-.346-1.351-.392-2.02-.116-1.091.449-1.637 1.725-1.32 2.862.369 1.32.628 2.813.545 4.431.634.847.882 1.929.657 3.005-.278.969-.824 1.868-1.493 2.92-.19.313-.412.629-.653.944.545 1.256.913 2.324 1.081 2.838.199.61.174 1.26-.029 1.856h.634c.641 0 1.238-.318 1.604-.844 1.987-2.853 2.946-6.812 2.946-10.677 0-1.887-.282-3.842-.848-5.826z"/></svg>