<svg id="Layer_1" viewBox="0 0 24 24" xmlns="http://www.w3.org/2000/svg" data-name="Layer 1"><path d="m22.498 3.954c-3.686-2.121-8.028-2.742-11.026-2.89-1.733-.121-2.865-.022-2.912-.018-.375.034-.699.275-.839.625-.468 1.505-.778 4.611-.721 6.064v2.265c0 .552-.447 1-1 1s-1-.448-1-1v-2.265c0-.188.004-1.015.064-2.034-.549.231-1.367.624-2.304 1.248-2.039 1.358-1.94 2.951-1.49 4.068.064.151 1.597 3.651 5.739 6.976.021.694.087 2.103.291 4.108.053.51.482.898.995.898h10.435c.513 0 .941-.387.995-.897.225-2.169.266-4.13.272-4.833 1.182-2.092 3.002-6.312 3.002-12.45 0-.358-.191-.688-.502-.867z"/></svg>