<svg id="Layer_1" viewBox="0 0 24 24" xmlns="http://www.w3.org/2000/svg" data-name="Layer 1"><path d="m12 23c5.976 0 8.8-2.314 9.554-7.737 1.007-7.25.149-14.083-.987-14.256-1.377-.209-1.415 4.7-1.436 9.245l-.004.556v.004c-.048 5.274-2.385 6.088-3.773 6.104-1.105-.013-1.956-.468-2.552-1.357-.593.89-1.437 1.344-2.529 1.357-.401-.005-.82-.072-1.225-.243-.352.806-.959 1.68-1.818 2.622-.385.422-1.043.457-1.472.081s-.466-1.022-.083-1.442c1.514-1.66 1.979-2.811 1.382-3.424-.74-.731-1.889-.386-3.395 1.036-.658.546-2.469 2.252-1.252 3.979 1.138 1.618 3.3 3.476 9.589 3.476z"/><path d="m3.794 12.841c1.158-.704 2.13-.838 2.903-.715-.036-.405-.066-2.356-.066-2.356-.016-4.308-.032-8.761-1.374-8.763-.452 0-2.087 3.395-1.463 11.834z"/><path d="m17.042 10.802c-.012-1.197-.204-3.955-1.714-3.973-1.306.017-1.475 2.824-1.485 4.03.017 1.813.292 3.999 1.512 4.013 1.483-.017 1.676-2.845 1.688-4.07z"/><path d="m10.272 14.872c1.194-.014 1.47-2.2 1.487-4.031-.011-1.188-.18-3.995-1.512-4.012-1.29.016-1.512 2.492-1.526 3.973.016 1.518.237 4.055 1.551 4.07z"/></svg>