<svg id="Layer_1" viewBox="0 0 24 24" xmlns="http://www.w3.org/2000/svg" data-name="Layer 1"><path d="m19.357 1.934c-.141-.241-.376-.412-.648-.471-.086-.019-2.142-.463-5.215-.463s-5.59.498-5.696.52c-.15.03-.292.094-.414.188-4.039 3.109-5.248 6.551-5.297 6.696-.524 1.232.149 2.927 1.5 3.635.71.373 1.717.674 2.411.856 0-.448.001-1.899.002-2.898 0-.552.449-.998 1.001-.997.552 0 .999.448.998 1 .005 1.9.009 2.785-.005 4-.127 3.655-.915 6.423-.924 6.453-.3 1.062.316 2.167 1.377 2.469 1.061.304 2.167-.312 2.469-1.373.033-.115.692-2.653.995-5.641 3.572-.28 6.708-1.099 9.54-2.516.335-.168.548-.524.548-.898 0-4.241-.791-7.399-2.643-10.56z"/></svg>