<svg id="Layer_1" viewBox="0 0 24 24" xmlns="http://www.w3.org/2000/svg" data-name="Layer 1"><path d="m21.389 10.743c-1.691-.846-3.454-1.452-5.389-1.883-.002-.487-.008-1.037-.006-1.222.029-2.617-.209-4.809-.224-4.916-.153-1.093-1.162-1.856-2.255-1.702-1.093.152-1.857 1.161-1.707 2.254.004.026.224 2.17.091 4.957-.956-.082-1.861-.15-2.617-.207-.772-.058-1.429.572-1.382 1.345.069 1.677.086 2.382.098 4.632 0 .552-.446.999-.998 1-.552 0-1.001-.445-1.001-.997 0-.999-.002-2.449-.002-2.898-.694.182-1.701.483-2.411.856-1.35.708-2.024 2.403-1.5 3.635.049.145 1.258 3.586 5.297 6.696.122.094.263.158.414.188.106.021 2.632.52 5.696.52s5.128-.444 5.215-.463c.272-.06.507-.23.648-.471 1.851-3.159 2.585-6.178 2.586-10.416 0-.378-.215-.738-.554-.907z"/></svg>