<svg id="Layer_1" viewBox="0 0 24 24" xmlns="http://www.w3.org/2000/svg" data-name="Layer 1"><path d="m22.48 7.798c-.03-.15-.094-.292-.188-.414-3.11-4.039-6.551-5.248-6.696-5.297-1.232-.524-2.927.149-3.635 1.5-.373.71-.674 1.717-.856 2.411.448 0 1.899.001 2.898.002.552 0 .998.449.997 1.001 0 .552-.448.999-1 .998-1.9.005-2.785.009-4-.005-3.655-.127-6.423-.915-6.453-.924-1.062-.3-2.167.316-2.469 1.377-.304 1.061.312 2.167 1.373 2.469.115.033 2.653.692 5.641.994.279 3.573 1.099 6.708 2.516 9.54.168.335.524.548.898.548 4.241 0 7.399-.791 10.56-2.643.241-.141.412-.376.471-.648.019-.086.463-2.142.463-5.215s-.498-5.59-.52-5.696z"/></svg>