<svg id="Layer_1" viewBox="0 0 24 24" xmlns="http://www.w3.org/2000/svg" data-name="Layer 1"><path d="m21.456 18.056c-.878 2.571-3.134 4.468-5.866 4.748-1.286.13-2.494.196-3.59.196s-2.304-.066-3.589-.196c-2.747-.281-5.012-2.194-5.871-4.749 1.857.346 5.626.945 9.46.945s7.601-.599 9.456-.944zm1.521-3.381c-.103-.471-.53-.77-.986-.766.006-.355.01-.681.01-.908 0-5.26-1.686-8.214-5.411-9.394.2 2.094.401 5.222.411 9.412 0 .552-.445 1.001-.998 1.002h-.002c-.552 0-.999-.446-1-.998-.013-5.565-.377-9.256-.604-11.021-.055-.427-.373-.762-.795-.847-.43-.086-.97-.154-1.6-.154s-1.17.068-1.6.154c-.422.084-.741.42-.795.847-.227 1.766-.591 5.457-.604 11.021-.001.552-.449.998-1 .998h-.002c-.552 0-.999-.45-.998-1.002.01-4.189.211-7.318.411-9.412-3.725 1.18-5.411 4.134-5.411 9.394 0 .228.003.554.01.91-.461-.002-.883.295-.986.765-.119.539.223 1.072.762 1.19.211.047 5.225 1.135 10.214 1.135s10.004-1.088 10.215-1.135c.539-.118.88-.651.762-1.19z"/></svg>