<svg id="Layer_1" viewBox="0 0 24 24" xmlns="http://www.w3.org/2000/svg" data-name="Layer 1"><path d="m23 7.25c0 11.04-4.71 15.75-15.75 15.75-1.887 0-3.527-.131-5.018-.401-.814-.148-1.356-.928-1.208-1.744.147-.815.924-1.353 1.743-1.208 1.273.231 2.755.348 4.405.352-.495-.602-1.018-1.278-1.535-2.02 6.284-.133 9.945-2.248 11.48-6.64.182-.521-.093-1.092-.614-1.274-.522-.182-1.092.093-1.274.614-1.301 3.725-4.358 5.313-10.222 5.313h-.631c-1.285-2.234-2.309-4.819-2.376-7.466-.01-.4.22-.768.583-.935.058-.026 1.324-.596 4.024-.983.388-2.701.957-3.967.983-4.024.167-.364.546-.599.935-.583 4.454.113 8.79 2.983 11.473 5.179-.003-1.653-.121-3.138-.351-4.412-.148-.815.394-1.596 1.208-1.744.814-.146 1.596.394 1.743 1.208.271 1.49.401 3.131.401 5.018z"/></svg>