<?xml version="1.0" encoding="UTF-8"?>
<svg xmlns="http://www.w3.org/2000/svg" id="Layer_1" data-name="Layer 1" viewBox="0 0 24 24">
  <path d="M4.001,12.667c-.102,.975-.152,1.95-.152,2.91,0,.014,0,.027,0,.041H20.151c0-.014,0-.027,0-.041,0-.963-.051-1.939-.15-2.911,1.455-.768,2.386-2.273,2.386-3.964,0-2.476-2.022-4.49-4.508-4.49-.261,0-.518,.022-.771,.065-.893-1.971-2.867-3.277-5.108-3.277s-4.216,1.306-5.108,3.277c-.253-.043-.51-.065-.771-.065-2.485,0-4.508,2.014-4.508,4.49,0,1.693,.932,3.198,2.388,3.965Z"/>
  <path d="M3.932,17.617c.22,2.6,.803,3.881,.833,3.946,.121,.26,.349,.456,.624,.537,.125,.037,3.1,.9,6.611,.9s6.485-.863,6.61-.9c.278-.082,.508-.28,.628-.543,.03-.066,.609-1.36,.829-3.939H3.932Z"/>
</svg>
