<svg id="Layer_1" viewBox="0 0 24 24" xmlns="http://www.w3.org/2000/svg" data-name="Layer 1"><path d="m14 3c0 1.429-.571 2-2 2s-2-.571-2-2c0-1.429.571-2 2-2s2 .571 2 2zm6.068 14.324c-1.586-.148-4.272-.324-8.068-.324s-6.482.176-8.069.324c-1.659.156-2.919 1.502-2.931 3.176 0 .419.044.825.134 1.242s.436.731.858.782c1.199.143 4.575.477 10.008.477s8.809-.333 10.008-.477c.423-.051.769-.365.858-.782s.134-.823.134-1.242c-.012-1.63-1.271-3.02-2.932-3.176zm-4.821-11.742c-.672.912-1.769 1.418-3.247 1.418-1.462 0-2.551-.496-3.224-1.39-2.724 2.193-6.574 6-6.757 10.199.532-.247 1.108-.419 1.725-.477 1.63-.152 4.384-.333 8.256-.333s6.626.181 8.254.333c.619.058 1.198.231 1.732.479-.109-4.327-3.922-8.036-6.738-10.23z"/></svg>