<svg id="Layer_1" viewBox="0 0 24 24" xmlns="http://www.w3.org/2000/svg" data-name="Layer 1"><path d="m2.158 16c.286 3.451.862 5.22.894 5.316.107.324.374.571.706.653.168.042 4.166 1.03 8.242 1.03s8.074-.988 8.242-1.03c.332-.082.599-.329.706-.653.032-.097.609-1.865.894-5.316zm11.342 4.994c-.83 0-1.5-.67-1.5-1.5s.67-1.5 1.5-1.5 1.5.67 1.5 1.5-.67 1.5-1.5 1.5zm3.997.006c-.832 0-1.503-.671-1.503-1.503s.671-1.503 1.503-1.503 1.503.671 1.503 1.503-.671 1.503-1.503 1.503zm-15.458-7c-.024-.628-.039-1.291-.039-2 0-6.092 1.009-9.188 1.052-9.316.107-.324.374-.571.706-.653.168-.042 4.166-1.03 8.242-1.03s8.074.988 8.242 1.03c.332.082.599.329.706.653.043.129 1.052 3.225 1.052 9.316 0 .709-.015 1.372-.039 2z"/></svg>