<?xml version="1.0" encoding="UTF-8"?>
<svg xmlns="http://www.w3.org/2000/svg" id="Layer_1" data-name="Layer 1" viewBox="0 0 24 24">
  <path d="M14.356,14.027l4.25,7.473c1.51-1.113,4.394-3.613,4.394-6.467,0-2.017-.067-3.812-.139-5.163-.94,.914-2.317,2.016-4.28,3.119-1.489,.836-3.056,1.055-4.225,1.038Z"/>
  <path d="M12.843,11.86c.432,.1,2.675,.536,4.695-.6,1.905-1.07,3.177-2.122,3.991-2.936-.1-.754-.332-1.676-.439-2.011-1.081-3.398-4.376-5.285-9.291-5.313-4.907,.028-8.328,2.01-9.873,5.591l10.917,5.269Z"/>
  <path d="M11.724,13.556L1.309,8.529c-.186,.844-.29,1.753-.309,2.724,.073,4.044,2.232,6.206,3.85,7.48,.541,.427,.879,.971,.95,1.534,.139,1.099,.314,1.557,.364,1.671,.133,.302,.411,.522,.744,.589,.097,.019,2.396,.472,4.605,.472,2.417,0,4.341-.462,4.422-.482,.266-.065,.491-.228,.631-.45l-4.841-8.512Z"/>
</svg>
