<?xml version="1.0" encoding="UTF-8"?>
<svg xmlns="http://www.w3.org/2000/svg" id="Layer_1" data-name="Layer 1" viewBox="0 0 24 24">
  <path d="M21.703,8.22c-1.011-.078-3.081-.22-4.707-.22-1.466,0-3.001,.149-3.864,.249-.067,.426-.136,1.038-.136,1.751,0,.738,.07,1.395,.139,1.859,.882,.058,2.402,.141,3.861,.141,1.624,0,3.693-.142,4.705-.22,.136-.413,.295-1.05,.295-1.78,0-.735-.158-1.37-.293-1.78Z"/>
  <path d="M16.996,14c-2.313,0-4.687-.194-4.787-.203-.431-.036-.79-.344-.89-.764-.01-.044-.205-.869-.287-2.034H2.004c.115,3.261,1.165,5.724,3.126,7.326,.356,.291,.798,.783,.883,1.477,.127,1.042,.279,1.926,.279,1.926,.068,.399,.372,.718,.767,.807,.085,.019,2.099,.464,4.012,.464,1.934,0,3.609-.457,3.679-.476,.295-.082,.537-.294,.656-.577,.036-.084,.296-.735,.434-1.924,2.624-.195,4.199-1.26,4.923-3.309,.039-.109,.058-.223,.057-.338l-.013-2.526c-1.103,.073-2.565,.15-3.812,.15Z"/>
  <path d="M11.326,7.087c.104-.386,.428-.674,.824-.73,.101-.015,2.509-.357,4.847-.357,1.155,0,2.492,.066,3.558,.134-.052-.123-1.512-5.134-8.878-5.134C6.041,1,2.764,3.781,2.113,9H11.034c.084-1.126,.282-1.873,.292-1.913Z"/>
</svg>
