<?xml version="1.0" encoding="UTF-8"?>
<svg xmlns="http://www.w3.org/2000/svg" id="Layer_1" data-name="Layer 1" viewBox="0 0 24 24">
  <path d="M14.954,9.66c0-.466-.128-1.134-.247-1.525-.715-2.327-2.862-3.619-6.058-3.638-2.303,.014-4.158,.759-5.375,2.129-.59-.356-1.367-.269-1.861,.251-.571,.601-.547,1.55,.053,2.121l10.612,10.089c.291,.276,1.255,.823,2.121-.053,.509-.515,.543-1.315,.147-1.888,.666-.359,1.19-.977,1.19-2.048v-.838c.37-.249,.8-.623,.991-1.102,.305-.761-.21-1.428-.755-2.134-.286-.37-.817-1.059-.817-1.364Z"/>
  <path d="M4.15,16.454c.148,.136,.423,.396,.468,.766,.089,.727,.204,1.055,.25,1.163,.124,.293,.384,.506,.693,.57,.061,.013,1.514,.309,2.912,.309,.225,0,.436-.079,.604-.214L1.673,12.009c.401,1.623,.234,2.386,2.476,4.445Z"/>
  <path d="M21.5,14.153c.828,0,1.499-.671,1.499-1.499s-.671-1.499-1.499-1.499-1.499,.671-1.499,1.499,.671,1.499,1.499,1.499Z"/>
  <path d="M21.5,16.511c-.828,0-1.499,.671-1.499,1.499s.671,1.499,1.499,1.499,1.499-.671,1.499-1.499-.671-1.499-1.499-1.499Z"/>
  <path d="M18.19,13.804c-.828,0-1.499,.671-1.499,1.499s.671,1.499,1.499,1.499,1.499-.671,1.499-1.499-.671-1.499-1.499-1.499Z"/>
</svg>
