<svg id="Layer_1" viewBox="0 0 24 24" xmlns="http://www.w3.org/2000/svg" data-name="Layer 1"><path d="m22.441 20.803c.226.796-.232 1.624-1.027 1.852-.123.036-1.237.346-2.414.346-.81.034-2.38-.309-2.414-.346-.796-.229-1.256-1.06-1.027-1.855.236-.824 1.115-1.273 1.919-1.011.187-1.261.426-3.357.498-6.121-1.254-.277-3.462-.667-5.977-.667s-4.723.39-5.977.667c.073 2.765.311 4.86.498 6.121.805-.262 1.684.187 1.919 1.011.229.796-.231 1.627-1.027 1.855-.034.036-1.604.38-2.414.346-1.177 0-2.291-.31-2.414-.346-.795-.228-1.253-1.056-1.027-1.852.236-.828 1.112-1.283 1.931-1.012-.23-1.673-.49-4.325-.49-7.791s.26-6.118.49-7.791c-.177.049-.318.079-.491.078-.651 0-1.252-.428-1.44-1.086-.229-.796.231-1.627 1.027-1.855.123-.036 1.237-.346 2.414-.346.788-.036 2.387.308 2.414.346.795.228 1.253 1.056 1.027 1.852-.234.823-1.104 1.278-1.919 1.015-.193 1.302-.441 3.491-.505 6.389 1.447-.287 3.577-.601 5.983-.601s4.536.314 5.983.601c-.064-2.898-.311-5.087-.505-6.389-.816.263-1.685-.192-1.919-1.015-.226-.796.232-1.624 1.027-1.852.027-.037 1.626-.382 2.414-.346 1.177 0 2.291.31 2.414.346.796.229 1.256 1.06 1.027 1.855-.188.658-.789 1.086-1.44 1.086-.172 0-.314-.029-.491-.078.23 1.673.49 4.325.49 7.791s-.26 6.118-.49 7.791c.82-.271 1.695.183 1.931 1.012z"/></svg>