<?xml version="1.0" encoding="UTF-8"?>
<svg xmlns="http://www.w3.org/2000/svg" id="Layer_1" data-name="Layer 1" viewBox="0 0 24 24">
  <path d="M10.993,9c-1.398,.009-1.963,.57-1.993,2,.03,1.431,.595,1.992,2.006,2,1.424-.008,1.967-.555,1.994-2.019-.024-1.369-.624-1.973-2.007-1.981Z"/>
  <path d="M21.952,10.933c-.534-.767-1.198-1.721-1.198-2.395,0-.677-.188-1.651-.363-2.226-1.044-3.398-4.225-5.285-8.969-5.313C4.916,1.039,1.117,4.763,.999,11.253c.07,4.043,2.155,6.206,3.716,7.48,.522,.427,.848,.972,.917,1.533,.134,1.099,.303,1.559,.352,1.673,.128,.302,.396,.521,.718,.588,.093,.019,2.313,.472,4.445,.472,2.089,0,4.296-.453,4.389-.473,.183-.038,.352-.126,.487-.255,.239-.228,.524-.721,.669-1.783,1.832-.079,4.698-.563,4.698-3.553v-1.622c.512-.344,1.223-.923,1.507-1.633,.354-.883-.248-1.747-.944-2.747Zm-5.952,1.067h-1.101c-.069,.366-.174,.701-.312,1.003,.787,.045,1.413,.699,1.413,1.497,0,.827-.673,1.5-1.5,1.5-.793,0-1.444-.619-1.496-1.399-.302,.141-.637,.244-1.004,.311v1.089c0,.552-.447,1-1,1s-1-.448-1-1v-1.09c-.366-.067-.702-.17-1.004-.31-.052,.781-.703,1.4-1.496,1.4-.827,0-1.5-.673-1.5-1.5,0-.796,.623-1.449,1.408-1.497-.139-.302-.243-.637-.311-1.003h-1.096c-.553,0-1-.448-1-1s.447-1,1-1h1.099c.071-.365,.178-.7,.321-1.002-.79-.042-1.42-.697-1.42-1.498,0-.827,.673-1.5,1.5-1.5,.798,0,1.451,.626,1.497,1.412,.303-.144,.638-.251,1.003-.32v-1.092c0-.552,.447-1,1-1s1,.448,1,1v1.098c.364,.072,.699,.183,1.002,.331,.038-.794,.695-1.428,1.498-1.428,.827,0,1.5,.673,1.5,1.5,0,.805-.637,1.464-1.434,1.498,.147,.303,.259,.638,.332,1.002h1.102c.553,0,1,.448,1,1s-.447,1-1,1Z"/>
</svg>
