<svg id="Layer_1" viewBox="0 0 24 24" xmlns="http://www.w3.org/2000/svg" data-name="Layer 1"><path d="m15.935 3.001c-1.501.061-2.779.648-3.853 1.809l-.303.365-.415-.495c-.959-1.055-2.163-1.62-3.626-1.679-3.833.025-6.604 3.066-6.737 7.44.034 2.586 1.356 5.055 3.93 7.34.861.763 1.873 1.469 3.094 2.16 1.204.691 2.544 1.01 3.893 1.06 1.422-.018 2.835-.354 4.065-1.042 1.202-.665 2.202-1.349 3.06-2.093 2.592-2.254 3.924-4.714 3.958-7.379-.138-4.382-3.014-7.46-7.064-7.484zm1.139 12.599c-.696.604-1.528 1.17-2.545 1.733-.764.423-1.637.648-2.529.661v-8.392s2.335-2.814 2.335-2.814c.48-.518 1.011-.761 1.65-.789 2.316.015 3.929 1.855 4.014 4.513-.023 1.707-1.008 3.418-2.926 5.087z"/></svg>