<?xml version="1.0" encoding="UTF-8"?>
<svg xmlns="http://www.w3.org/2000/svg" id="Layer_1" data-name="Layer 1" viewBox="0 0 24 24">
  <path d="M22,18.453c-.552,0-1,.448-1,1,0,.655-.535,1.188-1.193,1.188h-.455v-2.208c0-.042-.003-.084-.008-.125,1.097-.694,1.978-1.801,2.379-3.554-.963,.037-2.516,.057-2.942,.057-3.129,0-5.781-.735-5.892-.766-.328-.092-.586-.345-.686-.67-.032-.104-.774-2.567-.774-5.9,0-.128,.002-1.012,.005-1.783l2-.13c-.003,.789-.005,1.779-.005,1.913,0,2.154,.347,3.93,.547,4.778,.889,.201,2.753,.558,4.805,.558,.599,0,2.428-.03,3.173-.069,.002-.085,.003-.171,.003-.259,0-6.229-4.359-6.95-7.638-6.95-.276,0-.571,.006-.878,.017v-1.193h5.026c.552,0,1-.448,1-1s-.448-1-1-1h-5.026c-.002-.551-.449-.997-1-.997s-.998,.446-1,.997H6.416c-.552,0-1,.448-1,1s.448,1,1,1h5.026l-.013,1.316c-3.051,.249-6.622,.769-8.428,1.048v-1.176c0-.552-.448-1-1-1s-1,.448-1,1v3.622c0,.286,.123,.559,.337,.749,.378,.335,3.484,3.066,5.451,4.165,.348,2.42,1.522,3.761,2.976,4.496v2.065H5.75c-.552,0-1,.448-1,1s.448,1,1,1h14.058c1.761,0,3.193-1.43,3.193-3.188,0-.552-.448-1-1-1Zm-10.236,.774c.867,.162,1.748,.206,2.555,.206,.964,0,2.021-.062,3.033-.309v1.517h-5.588v-1.414Z"/>
</svg>
