<svg id="Layer_1" viewBox="0 0 24 24" xmlns="http://www.w3.org/2000/svg" data-name="Layer 1"><path d="m16.32 11.896c-.652-.357-2.016-.896-4.32-.896s-3.663.536-4.32.897c.998 2.423 3.728 2.996 4.317 3.092.612-.102 3.33-.683 4.323-3.094z"/><path d="m20.357 5.485c-.073-.122-.171-.227-.289-.308-1.417-.98-6.185-4.178-8.069-4.178s-6.651 3.199-8.068 4.179c-.117.081-.215.186-.289.308-.067.112-1.643 2.792-1.643 7.515 0 4.188 1.061 6.357 1.105 6.447.091.183.236.333.416.431.519.283 4.676 2.618 7.479 3.122v-6.179c-1.538-.389-4.598-1.589-5.47-5.078-.085-.341.015-.701.263-.95.184-.184 1.917-1.793 6.207-1.793s6.023 1.609 6.207 1.793c.249.249.348.609.263.95-.783 3.133-3.5 4.588-5.47 5.083v6.175c2.803-.504 6.96-2.839 7.479-3.122.179-.098.324-.248.416-.431.045-.09 1.105-2.259 1.105-6.447 0-4.723-1.576-7.403-1.643-7.515z"/></svg>