<svg id="Layer_1" viewBox="0 0 24 24" xmlns="http://www.w3.org/2000/svg" data-name="Layer 1"><path d="m20.857 6.485c-1.545-2.576-3.085-4.127-3.15-4.192-.128-.128-.289-.219-.464-.263-.087-.021-2.155-.53-5.243-.53s-5.156.508-5.243.53c-.176.044-.336.135-.464.263-.065.065-1.605 1.617-3.15 4.192-1.571 2.619-2.102 5.209-2.123 5.318-.026.13-.026.263 0 .393.021.109.552 2.7 2.123 5.318 1.545 2.576 3.085 4.127 3.15 4.192.128.128.289.219.464.263.087.021 2.155.53 5.243.53s5.156-.508 5.243-.53c.176-.044.336-.135.464-.263.065-.065 1.605-1.617 3.15-4.192 1.571-2.619 2.102-5.209 2.123-5.318.026-.13.026-.263 0-.393-.021-.109-.552-2.7-2.123-5.318zm-8.857.015c.828 0 1.5.672 1.5 1.5s-.672 1.5-1.5 1.5-1.5-.672-1.5-1.5.672-1.5 1.5-1.5zm0 11c-.828 0-1.5-.672-1.5-1.5s.672-1.5 1.5-1.5 1.5.672 1.5 1.5-.672 1.5-1.5 1.5zm4.5-4.5h-9c-.553 0-1-.448-1-1s.447-1 1-1h9c.553 0 1 .448 1 1s-.447 1-1 1z"/></svg>