<svg id="Layer_1" viewBox="0 0 24 24" xmlns="http://www.w3.org/2000/svg" data-name="Layer 1"><path d="m4.189 17.932-.629.629c-.586.586-1.535.586-2.121 0-.586-.585-.586-1.536 0-2.121l.644-.644c-.161-1.908.033-3.949.721-5.797.666.786 2.02 2.35 3.433 3.764 1.415 1.414 2.979 2.769 3.765 3.434-1.735.742-3.842.954-5.814.736zm7.5-1.932c.893-.712 1.099-.776 2.541-2.317 2.935-3.137 4.603-6.607 4.672-6.753.103-.216.125-.462.062-.693-.021-.078-.538-1.93-1.905-3.297s-3.219-1.883-3.297-1.905c-.231-.063-.476-.041-.693.062-.146.069-3.616 1.738-6.753 4.672-1.542 1.442-1.605 1.648-2.317 2.541.353.425 1.988 2.372 3.653 4.037 1.667 1.667 3.612 3.299 4.037 3.653zm9.81 4h-15.999c-.829 0-1.5.671-1.5 1.5s.671 1.5 1.5 1.5h16c.829 0 1.5-.671 1.5-1.5s-.671-1.5-1.5-1.5z"/></svg>