<svg id="Layer_1" viewBox="0 0 24 24" xmlns="http://www.w3.org/2000/svg" data-name="Layer 1"><path d="m3.287 14.023c-.035.091-.07.18-.103.274-.402 1.126-.662 3.73-.785 5.238-.045.035-.099.051-.14.093l-.815.811c-.587.584-.59 1.533-.006 2.12.293.295.678.442 1.063.442.382 0 .765-.145 1.058-.436l.815-.811c.034-.034.047-.079.077-.115 1.554-.087 4.269-.296 5.413-.737.078-.03.151-.061.227-.092z"/><path d="m22.159 1.917c-1.023-1.017-4.254-2.624-12.157 4.348-3.192 2.816-4.787 4.338-5.775 5.872l7.72 7.7c1.482-.999 2.936-2.583 5.82-5.802 5.68-6.342 6.005-10.406 4.393-12.118z"/></svg>