<?xml version="1.0" encoding="UTF-8"?>
<svg xmlns="http://www.w3.org/2000/svg" id="Layer_1" data-name="Layer 1" viewBox="0 0 24 24">
  <path d="M13.374,6.036c2.179,0,2.504-1.578,2.504-2.519s-.325-2.518-2.504-2.518-2.504,1.577-2.504,2.518,.325,2.519,2.504,2.519Z"/>
  <path d="M6.286,8.845c-1.132,1.28-1.662,2.482-1.574,3.571,.064,.786,.454,1.495,1.129,2.047,.403,.331,.885,.57,1.409,.706-.058-.177-.099-.36-.123-.547-.283-2.357-.049-4.756,.673-7.002-.567,.321-1.08,.732-1.515,1.224Z"/>
  <path d="M10.776,18.1l-2.211,3.36c-.302,.458-.175,1.075,.284,1.377,.168,.112,.358,.164,.545,.164,.323,0,.64-.157,.831-.448l2.318-3.522c-.612-.091-1.18-.369-1.632-.806-.045-.043-.09-.084-.135-.124Z"/>
  <path d="M18.297,8.479c-.552,0-1,.447-1,1v.949c-.732-.488-1.307-1.189-1.642-2.025l-.388-.967c-.15-.372-.499-.605-.876-.625-1.191-.194-2.402-.194-3.66,.018-.347,.057-.638,.293-.765,.621-.849,2.191-1.149,4.584-.869,6.924,.042,.337,.26,.638,.566,.783l.86,.408c.977,.442,1.681,1.153,1.706,1.177,1.312,1.247,2.063,3.002,2.063,4.816v.321c0,.553,.448,1,1,1s1-.447,1-1v-.321c0-2.111-.784-4.162-2.172-5.732,.16-.511,.276-1.022,.361-1.577l.437-3.272c.645,.739,1.456,1.325,2.378,1.706v9.197c0,.553,.448,1,1,1s1-.447,1-1V9.479c0-.553-.448-1-1-1Z"/>
</svg>
