<svg id="Layer_1" viewBox="0 0 24 24" xmlns="http://www.w3.org/2000/svg" data-name="Layer 1"><path d="m19 16c.995 0 1.873-.156 2.636-.444-.508 1.875-1.565 3.12-3.247 3.801-.189 1.688-.402 2.399-.429 2.482-.029.093-.072.182-.127.262-.107.157-.692.903-2.152.903-.075 0-.153-.002-.233-.006-1.601-.083-2.191-.929-2.293-1.098-.058-.096-.1-.2-.123-.31-.041-.197-.101-.939-.152-1.682-.863.098-1.896.098-2.76 0-.052.742-.111 1.485-.152 1.682-.023.109-.065.214-.123.31-.102.169-.692 1.014-2.293 1.098-1.632.089-2.272-.732-2.386-.897-.055-.082-.098-.17-.128-.265-.03-.097-.283-.954-.483-3.026-.277-.187-.523-.394-.744-.614-.265.497-.769.804-1.311.804-.187 0-.377-.035-.561-.109-.769-.311-1.14-1.185-.829-1.953.044-.111.389-.919 1.127-1.853-.188-.9-.236-1.801-.236-2.586 0-5.187 2.313-7.5 7.5-7.5h.703c-.082.399-.147.811-.176 1.254-.683.977-1.027 2.233-1.027 3.746 0 3.813 2.187 6 6 6h4zm4-6c0 2.691-1.309 4-4 4h-4c-2.691 0-4-1.309-4-4 0-1.347.329-2.335 1.004-3v-.005c0-1.656.383-2.873 1.159-3.696-.097-.217-.163-.469-.163-.799 0-1.037.463-1.5 1.5-1.5.87 0 1.315.349 1.443 1.066.333-.039.68-.066 1.057-.066s.724.027 1.057.066c.128-.717.573-1.066 1.443-1.066 1.037 0 1.5.463 1.5 1.5 0 .33-.065.582-.163.799.776.823 1.159 2.041 1.159 3.696.675.666 1.004 1.655 1.004 3.004zm-7 .5c0-.828-.672-1.5-1.5-1.5s-1.5.672-1.5 1.5.672 1.5 1.5 1.5 1.5-.672 1.5-1.5zm5 0c0-.828-.672-1.5-1.5-1.5s-1.5.672-1.5 1.5.672 1.5 1.5 1.5 1.5-.672 1.5-1.5z"/></svg>