<?xml version="1.0" encoding="UTF-8"?>
<svg xmlns="http://www.w3.org/2000/svg" id="Layer_1" data-name="Layer 1" viewBox="0 0 24 24">
  <path d="M22.829,14.067c-2.066,2.076-5.468,3.044-10.702,3.044h-.093c-2.307-.005-7.991-.018-11.034-3.301v1.97c.042,4.736,3.445,6.856,11.034,6.873h.093c4.666,0,7.618-.78,9.285-2.455,1.08-1.085,1.6-2.528,1.588-4.427v-1.882c-.056,.06-.113,.12-.171,.178Z"/>
  <path d="M11.965,1.347h-.093c-4.665,0-7.617,.78-9.284,2.454-1.081,1.085-1.6,2.528-1.588,4.413,.03,4.753,3.434,6.881,11.035,6.897h.093c4.666,0,7.618-.78,9.285-2.455,1.08-1.085,1.6-2.528,1.588-4.412-.03-4.753-3.434-6.881-11.035-6.897Z"/>
</svg>
