<svg id="Layer_1" viewBox="0 0 24 24" xmlns="http://www.w3.org/2000/svg" data-name="Layer 1"><path d="m14.23 9.749c-.653-.256-1.204-.695-1.596-1.25.17.493.353 1.254.366 2.501-.01.656-.096 1.195-.198 1.641-.109.481-.465.866-.94.998-.648.18-1.529.345-2.862.36-1.333-.016-2.214-.181-2.862-.36-.476-.132-.831-.517-.94-.998-.101-.446-.188-.985-.198-1.641.014-1.39.24-2.197.424-2.676.083-.216.222-.402.404-.544.744-.585 2.481-1.78 3.172-1.78s2.428 1.195 3.172 1.78c.053.042.094.094.139.143-.196-.436-.311-.915-.311-1.422 0-.744.238-1.432.635-2-.398-.568-.635-1.256-.635-2 0-.44.091-.857.239-1.245-.921-.145-1.997-.255-3.239-.255-3.894 0-6.357 1.037-6.46 1.081-.27.115-.475.343-.562.622-.04.128-.979 3.215-.979 9.297s.938 9.169.979 9.297c.087.279.292.507.562.622.103.044 2.566 1.081 6.46 1.081s6.357-1.037 6.46-1.081c.27-.115.475-.343.562-.622.04-.128.979-3.215.979-9.297 0-.013 0-.026 0-.039-1.27-.183-2.323-1.047-2.769-2.212zm-4.23 10.251h-2c-.553 0-1-.447-1-1s.447-1 1-1h2c.553 0 1 .447 1 1s-.447 1-1 1zm-.038-10.029c.02.155.038.343.038.529s-.017.373-.038.529c-.03.227-.206.404-.434.434-.155.02-.343.038-.529.038s-.373-.017-.529-.038c-.227-.03-.404-.206-.434-.434-.02-.156-.038-.343-.038-.529s.017-.373.038-.529c.03-.227.206-.404.434-.434.155-.02.343-.038.529-.038s.373.017.529.038c.227.03.404.206.434.434zm7.538.029c-.828 0-1.5-.672-1.5-1.5 0-.244-.023-.386-.042-.458-.072-.019-.214-.042-.458-.042-.828 0-1.5-.672-1.5-1.5s.672-1.5 1.5-1.5c2.257 0 3.5 1.243 3.5 3.5 0 .828-.672 1.5-1.5 1.5zm4 0c-.828 0-1.5-.672-1.5-1.5 0-3.448-1.052-4.5-4.5-4.5-.828 0-1.5-.672-1.5-1.5s.672-1.5 1.5-1.5c5.117 0 7.5 2.383 7.5 7.5 0 .828-.672 1.5-1.5 1.5z"/></svg>