<svg id="Layer_1" viewBox="0 0 24 24" xmlns="http://www.w3.org/2000/svg" data-name="Layer 1"><path d="m10 17.906c-.165-.026-.32-.056-.456-.089-.003.564-.009 1.22-.016 1.314-.117 1.457-.358 2.647-.367 2.697-.036.177-.126.338-.257.461-.077.073-.788.71-1.976.71-1.173 0-1.908-.621-1.988-.692-.172-.153-.277-.367-.292-.596-.004-.056.035-1.581.453-2.968-.052-.318-.298-1.256-.435-1.706-.198-.65-.407-1.36-.523-2.069-.087.44-.142.931-.142 1.532 0 .827-.673 1.5-1.5 1.5s-1.5-.673-1.5-1.5c0-3.712 1.393-5.251 2.985-6.303 0 0 1.158-.88 4.015-1.13v2.933c0 1.566.708 2.55 2 2.873v3.033zm12.974-9.386c-.028-.067-.693-1.66-2.186-3.194-.522-.564-1.136-1.108-1.739-1.508v-1.984c0-.566-.568-.988-1.095-.781-.687.269-1.617.957-2.233 2.157-1.972.688-3.192 2.69-3.721 5.961l-2-.14v2.968c0 .832.168 1 1 1s1-.168 1-1v-2.821l.957.123c.596.076 1.043.584 1.043 1.185v1.513c0 1.566-.708 2.55-2 2.873v3.036c.224-.033.453-.071.675-.114.119 1.744-.017 3.476-.018 3.489-.009.145.017.29.076.422.072.162.502.98 1.916 1.234.234.042.446.06.64.06 1.001 0 1.482-.477 1.581-.589.064-.072.116-.154.154-.242.077-.182.752-2.693.877-6.977.197-.549.986-2.682 1.226-4.576.923.615 2.445.366 2.78.308.333-.057.615-.279.749-.59.031-.071.302-.271.391-1.351.013-.158-.012-.316-.072-.463z"/></svg>