<svg id="Layer_1" viewBox="0 0 24 24" xmlns="http://www.w3.org/2000/svg" data-name="Layer 1"><path d="m23 15.389c-.002.072-.051 1.776-.233 3.126-.182 1.342-.656 3.421-.677 3.509-.078.343-.332.62-.667.728-.078.025-.784.247-1.423.247s-1.345-.222-1.423-.247c-.335-.108-.589-.385-.667-.728-.021-.088-.495-2.167-.677-3.509-.183-1.35-.231-3.054-.233-3.126-.011-.397.215-.763.574-.932.057-.027.39-.173.925-.293v-3.164c0-5.233-1.829-7-7.25-7s-7.25 1.767-7.25 7 1.829 7 7.25 7c.937 0 1.782-.06 2.511-.178.816-.127 1.587.423 1.72 1.242.133.817-.423 1.588-1.241 1.72-.898.145-1.877.216-2.989.216-7.089 0-10.25-3.084-10.25-10s3.161-10 10.25-10 10.25 3.084 10.25 10v3.164c.536.12.869.266.926.293.359.169.585.535.574.932zm-12-9.389c3.317 0 5 1.682 5 5s-1.683 5-5 5-5-1.682-5-5 1.683-5 5-5zm0 3c-1.663 0-2 .336-2 2s.337 2 2 2 2-.336 2-2-.337-2-2-2z"/></svg>