<svg id="Layer_1" viewBox="0 0 24 24" xmlns="http://www.w3.org/2000/svg" data-name="Layer 1"><path d="m15.265 9.987c.297.339.713.513 1.131.513.35 0 .701-.122.986-.37.623-.545.688-1.493.143-2.117-.033-.038-.033-.065 0-.102.639-.73.977-1.578.977-2.45s-.338-1.719-.977-2.449c-.545-.622-1.493-.688-2.116-.141-.624.545-.688 1.493-.142 2.117.106.122.234.304.234.474s-.128.352-.235.475c-1.024 1.173-1.024 2.877 0 4.05z"/><path d="m20.896 11.039c.35 0 .701-.122.986-.37.623-.545.688-1.493.143-2.117-.033-.037-.032-.066 0-.102.639-.73.977-1.577.977-2.45 0-.829-.672-1.5-1.5-1.5s-1.5.671-1.5 1.5c0 .17-.127.352-.235.475-1.024 1.174-1.024 2.877 0 4.05.297.339.713.513 1.131.513z"/><path d="m22 12h-8.382l-.618-1.236c-.852-1.705-2.566-2.764-4.472-2.764h-.528c-2.399 0-4.433 1.71-4.9 4h-1.1c-.552 0-1 .448-1 1 0 4.85 1.002 8.156 1.044 8.294.103.333.372.589.71.675.053.013.498.124 1.245.268v-7.238c0-.552.448-1 1-1s1 .448 1 1v7.57c.739.104 1.58.204 2.5.281v-7.851c0-.552.448-1 1-1s1 .448 1 1v7.972c.487.018.988.028 1.5.028s1.014-.01 1.5-.028v-7.972c0-.552.447-1 1-1s1 .448 1 1v7.853c.921-.077 1.763-.176 2.5-.28v-7.573c0-.552.447-1 1-1s1 .448 1 1v7.24c.75-.145 1.194-.257 1.247-.271.338-.086.605-.341.708-.673.043-.138 1.045-3.434 1.045-8.295 0-.552-.447-1-1-1z"/><circle cx="7" cy="4" r="3"/></svg>