<svg id="Layer_1" viewBox="0 0 24 24" xmlns="http://www.w3.org/2000/svg" data-name="Layer 1"><path d="m12.016 6c.868-.015 1.588.086 2.367.262-.621 1.026-1.437 1.904-2.383 2.558-.946-.653-1.763-1.531-2.383-2.557.782-.176 1.512-.284 2.4-.262zm7.95 12.884c.055.206.043.423-.034.622-.056.143-1.434 3.495-7.932 3.495s-7.876-3.352-7.932-3.495c-.077-.198-.089-.416-.034-.622.994-3.703 2.428-5.608 3.933-6.884-1.505-1.277-2.94-3.183-3.933-6.884-.055-.205-.043-.423.034-.621.056-.143 1.434-3.495 7.932-3.495s7.876 3.352 7.932 3.495c.077.198.089.416.034.621-.992 3.701-2.427 5.606-3.933 6.884 1.504 1.276 2.939 3.182 3.933 6.884zm-3.202-12.884c.116-.266.109-.57-.017-.832s-.359-.456-.64-.532c-1.436-.388-2.564-.652-4.091-.636-1.566-.021-2.688.249-4.124.636-.28.076-.514.27-.64.531s-.132.565-.017.832c.896 2.065 2.41 3.794 4.263 4.868.31.18.693.18 1.003 0 1.852-1.074 3.366-2.803 4.262-4.868z"/></svg>