<svg id="Layer_1" viewBox="0 0 24 24" xmlns="http://www.w3.org/2000/svg" data-name="Layer 1"><path d="m21.864 13.955c-.807.202-1.618-.289-1.819-1.091-.284-1.136-.623-1.975-1.045-2.587v3.1c0 1.43-.905 2.672-2.421 3.321-.448.189-.958.389-1.158.593-.065.052-.14.111-.228.18-.514 1.102-.906 2.53-1.166 4.252-.12.824-.906 1.385-1.708 1.259-.819-.124-1.383-.888-1.259-1.708.124-.819.5-3.312 1.604-5.461.102-.197.246-.37.422-.505.362-.275.614-.496.913-.699v-2.327c-.206.15-.424.302-.668.465-.68.456-1.618.279-2.08-.416-.459-.689-.273-1.621.416-2.08 1.291-.86 1.62-1.181 2.49-2.923.51-.808 1.242-1.328 2.342-1.329 4.921 0 6.076 4.619 6.455 6.136.201.804-.288 1.618-1.091 1.819zm-2.093 4.925c-.343-.755-1.23-1.087-1.986-.747-.754.342-1.088 1.231-.747 1.986.442.975.9 1.736 1.207 2.203.457.698 1.394.882 2.077.432.693-.455.886-1.384.432-2.077-.249-.378-.62-.997-.983-1.797zm-3.755-13.88c1.123-.007 1.973-.491 2.001-2-.026-1.484-.874-1.993-2.001-2-1.123.007-1.976.547-2.001 2 .028 1.513.874 1.993 2.001 2zm-4.971 9.663c-.051.081-.115.153-.158.238-.169.33-.321.665-.461 1.001-.576.052-1.202.09-1.914.098-3.353-.039-5.081-.634-6.225-1.028-.291-.1-.514-.336-.597-.632-.293-1.039-.661-2.34-.689-4.185.031-3.139.684-4.607.997-5.312.052-.118.129-.224.224-.311.376-.344 4.423-3.532 6.278-3.532.897 0 2.304.746 3.563 1.554-.017.16-.044.314-.047.483.02 1.077.345 1.961.898 2.629-.208.23-.399.479-.545.77-.708 1.418-.792 1.474-1.81 2.153-1.606 1.07-2.042 3.247-.971 4.854.365.548.877.955 1.457 1.221zm-4.045-4.663c0-.371-.035-.746-.076-1.057-.059-.454-.413-.808-.867-.867-.311-.041-.686-.076-1.057-.076s-.746.035-1.057.076c-.454.059-.808.413-.867.867-.041.311-.076.686-.076 1.057s.035.746.076 1.057c.059.454.413.808.867.867.311.041.686.076 1.057.076s.746-.035 1.057-.076c.454-.059.808-.413.867-.867.041-.311.076-.686.076-1.057z"/></svg>