<svg id="Layer_1" viewBox="0 0 24 24" xmlns="http://www.w3.org/2000/svg" data-name="Layer 1"><path d="m22.939 21.276c.124.819-.44 1.583-1.259 1.708-.802.126-1.587-.436-1.708-1.259-.26-1.722-.652-3.15-1.166-4.252-.088-.069-.163-.128-.228-.18-.197-.203-.713-.406-1.158-.594-1.515-.649-2.42-1.891-2.42-3.321v-3.095c-.424.611-.762 1.449-1.045 2.581-.201.803-1.017 1.293-1.819 1.091-.804-.201-1.292-1.015-1.091-1.819.379-1.518 1.534-6.136 6.455-6.136 1.1 0 1.831.521 2.342 1.329.871 1.742 1.2 2.062 2.49 2.923.689.459.875 1.391.416 2.08-.462.695-1.4.872-2.08.416-.244-.163-.462-.315-.668-.465v2.327c.3.204.55.424.913.699.176.135.32.308.422.505 1.104 2.15 1.48 4.643 1.604 5.461zm-6.725-3.142c-.757-.341-1.644-.008-1.986.747-.363.8-.734 1.418-.983 1.797-.454.693-.261 1.623.432 2.077.683.45 1.62.266 2.077-.432.306-.467.764-1.228 1.207-2.203.342-.754.008-1.644-.747-1.986zm1.77-13.134c1.127-.007 1.973-.487 2.001-2-.025-1.453-.878-1.993-2.001-2-1.127.007-1.974.516-2.001 2 .028 1.509.878 1.993 2.001 2zm-6.614 10.795c-.8.111-1.731.191-2.859.205-3.353-.039-5.081-.634-6.225-1.028-.291-.1-.514-.336-.597-.632-.293-1.039-.661-2.34-.689-4.185.031-3.139.684-4.607.997-5.312.052-.118.129-.224.224-.311.376-.344 4.423-3.532 6.278-3.532 1.462 0 4.277 1.974 5.59 2.98.045.224.105.438.18.641-2.104.881-4.126 2.874-5.164 7.03-.227.907-.087 1.849.394 2.65.429.716 1.092 1.229 1.871 1.495zm-4.37-5.795c0-.371-.035-.746-.076-1.057-.059-.454-.413-.808-.867-.867-.311-.041-.686-.076-1.057-.076s-.746.035-1.057.076c-.454.059-.808.413-.867.867-.041.311-.076.686-.076 1.057s.035.746.076 1.057c.059.454.413.808.867.867.311.041.686.076 1.057.076s.746-.035 1.057-.076c.454-.059.808-.413.867-.867.041-.311.076-.686.076-1.057z"/></svg>