<svg id="Layer_1" viewBox="0 0 24 24" xmlns="http://www.w3.org/2000/svg" data-name="Layer 1"><path d="m21.497 6.575c-.003-.007-.007-.014-.011-.021.009-.065.014-.131.014-.199v-3.355c0-.829-.671-1.5-1.5-1.5s-1.5.671-1.5 1.5v1.278c-2.254-1.533-5.123-3.278-6.5-3.278-2.08 0-7.561 3.979-9.191 5.199-.131.098-.236.228-.306.376-.062.131-1.503 3.261-1.503 8.425 0 2.129.439 6.891.458 7.092.047.514.479.908.996.908h6.046l1-4.5h-2.5c-.276 0-.5-.224-.5-.5 0-.084.085-8.446 7.429-9.495.159-.025.317.032.428.146.112.114.162.274.136.432l-.903 5.418h3.41c.153 0 .297.07.392.189s.129.276.095.425l-1.855 7.885h5.915c.517 0 .948-.394.996-.908.019-.202.458-4.972.458-7.092 0-5.164-1.441-8.294-1.503-8.425z"/></svg>