<svg id="Layer_1" viewBox="0 0 24 24" xmlns="http://www.w3.org/2000/svg" data-name="Layer 1"><path d="m21.463 6.509c-.068-.121-.161-.227-.272-.31-1.63-1.22-7.111-5.199-9.191-5.199s-7.561 3.979-9.191 5.199c-.111.083-.204.189-.272.31-.063.111-1.537 2.788-1.537 7.991 0 3.126 1.008 6.188 1.051 6.316.09.271.292.49.555.603.151.065 3.753 1.581 9.394 1.581 1.012 0 1.958-.049 2.83-.129l-5.636-5.688c-.387-.391-.386-1.022.003-1.411l2.802-2.802-2.215-2.271c-.386-.396-.378-1.029.018-1.414.395-.386 1.028-.377 1.414.018l2.904 2.979c.382.392.378 1.018-.009 1.405l-2.796 2.796 5.998 6.053c2.505-.451 3.985-1.074 4.081-1.116.262-.112.464-.332.555-.603.043-.129 1.051-3.19 1.051-6.316 0-5.203-1.474-7.879-1.537-7.991z"/></svg>