<svg id="Layer_1" viewBox="0 0 24 24" xmlns="http://www.w3.org/2000/svg" data-name="Layer 1"><path d="m21.494 6.567c.004-.043.006-.087.006-.131v-3.436c0-.829-.671-1.5-1.5-1.5s-1.5.671-1.5 1.5v1.278c-2.254-1.533-5.123-3.278-6.5-3.278-2.08 0-7.561 3.979-9.191 5.199-.111.083-.204.189-.272.31-.063.111-1.537 2.788-1.537 7.991 0 3.126 1.008 6.188 1.051 6.316.09.271.292.49.555.603.151.065 3.753 1.581 9.394 1.581s9.243-1.516 9.394-1.581c.262-.112.464-.332.555-.603.043-.129 1.051-3.19 1.051-6.316 0-4.853-1.283-7.508-1.506-7.933zm-5.882 9.878c-.099.327-.357.581-.687.673-.056.016-1.378.382-2.925.382s-2.871-.367-2.926-.383c-.328-.092-.586-.345-.686-.67-.016-.052-.389-1.292-.389-2.947 0-1.642.372-2.892.388-2.944.099-.327.357-.581.687-.673.056-.016 1.378-.382 2.925-.382s2.871.367 2.926.383c.328.092.586.345.686.67.016.052.389 1.292.389 2.947 0 1.642-.372 2.892-.388 2.944z"/><path d="m12 11.5c-.712 0-1.378.098-1.824.183-.083.429-.176 1.076-.176 1.817 0 .746.092 1.39.175 1.817.445.085 1.11.183 1.825.183s1.378-.098 1.824-.183c.083-.429.176-1.076.176-1.817 0-.746-.092-1.39-.175-1.817-.445-.085-1.11-.183-1.825-.183z"/></svg>