<?xml version="1.0" encoding="UTF-8"?>
<svg xmlns="http://www.w3.org/2000/svg" id="Layer_1" data-name="Layer 1" viewBox="0 0 24 24">
  <path d="M21.5,18.954c-.474,0-.922-.208-1.262-.584-.57-.629-1.656-.629-2.227,0-.68,.754-1.844,.754-2.523,0-.57-.629-1.656-.629-2.227,0-.68,.754-1.844,.754-2.523,0-.57-.629-1.656-.629-2.227,0-.68,.754-1.844,.754-2.523,0-.57-.629-1.656-.629-2.227,0-.34,.377-.788,.584-1.262,.584-.828,0-1.5,.671-1.5,1.5s.672,1.5,1.5,1.5c.837,0,1.656-.233,2.375-.66,1.437,.854,3.312,.854,4.75,0,1.437,.854,3.312,.854,4.75,0,1.437,.854,3.312,.854,4.75,0,.719,.427,1.538,.66,2.375,.66,.828,0,1.5-.671,1.5-1.5s-.672-1.5-1.5-1.5Z"/>
  <path d="M4.875,15.897c.892,0,1.741,.328,2.375,.908,.422-.386,.938-.658,1.497-.799v-2.144c0-1.785,1.459-3.237,3.253-3.237s3.253,1.452,3.253,3.237v2.144c.56,.141,1.076,.414,1.497,.799,.637-.582,1.485-.908,2.375-.908,.239,0,.475,.024,.705,.069,.194-1.286,.293-2.58,.293-3.852,0-3.786-.885-5.625-.922-5.702-.073-.149-.183-.277-.318-.374-.106-.075-.21-.149-.313-.222V3.765c0-.829-.672-1.5-1.5-1.5s-1.5,.671-1.5,1.5v.027c-1.822-1.16-3.018-1.745-3.569-1.745-.846,0-3.162,1.344-6.884,3.994-.137,.097-.247,.228-.32,.379-.037,.078-.919,1.943-.919,5.696,0,1.276,.098,2.57,.291,3.852,.23-.046,.467-.07,.707-.07Z"/>
  <path d="M10.747,13.862v2.214c.466,.153,.894,.4,1.253,.729,.36-.329,.788-.576,1.253-.729v-2.214c0-.682-.562-1.237-1.253-1.237s-1.253,.555-1.253,1.237Z"/>
</svg>
