<svg id="Layer_1" viewBox="0 0 24 24" xmlns="http://www.w3.org/2000/svg" data-name="Layer 1"><path d="m21.463 6.509c-.068-.121-.161-.227-.272-.31-1.63-1.22-7.11-5.199-9.19-5.199s-7.562 3.979-9.192 5.199c-.111.083-.204.189-.272.31-.063.111-1.537 2.788-1.537 7.991 0 3.126 1.008 6.188 1.051 6.316.09.271.292.49.555.603.151.065 3.753 1.581 9.394 1.581s9.243-1.516 9.394-1.581c.263-.112.465-.332.555-.603.043-.129 1.052-3.19 1.052-6.316 0-5.203-1.475-7.879-1.537-7.991zm-4.24 8.863c-.154.205-.382.342-.634.384-.033.006-.662.108-1.646.187-.077.985-.181 1.613-.187 1.646-.042.25-.178.476-.379.63-.104.08-1.061.781-2.377.781-1.306 0-2.267-.698-2.373-.777-.205-.154-.342-.381-.384-.634-.006-.033-.108-.662-.187-1.646-.985-.078-1.613-.181-1.646-.187-.25-.042-.476-.177-.63-.379-.08-.104-.781-1.06-.781-2.377 0-1.306.698-2.267.777-2.373.154-.205.381-.342.634-.384.033-.006.662-.108 1.646-.187.078-.985.181-1.613.187-1.646.042-.25.177-.476.379-.63.104-.08 1.06-.781 2.377-.781 1.307 0 2.268.698 2.373.777.204.155.341.381.383.634.006.033.109.662.187 1.646.985.078 1.613.181 1.646.187.251.042.477.177.631.379.08.104.78 1.06.78 2.377 0 1.306-.697 2.267-.777 2.373z"/><path d="m13.953 11.999c-.516-.024-.928-.437-.952-.953-.037-.793-.104-1.444-.155-1.85-.213-.096-.514-.196-.846-.196-.334 0-.634.099-.847.195-.05.405-.117 1.056-.154 1.851-.024.516-.437.929-.953.953-.793.037-1.444.104-1.85.154-.096.213-.196.514-.196.847 0 .334.099.634.195.847.405.05 1.056.117 1.851.154.516.024.929.437.953.953.037.793.104 1.444.154 1.85.213.096.514.196.847.196s.634-.1.846-.196c.05-.405.118-1.056.155-1.851.024-.516.437-.929.952-.953.794-.037 1.444-.104 1.851-.154.097-.213.196-.514.196-.847 0-.334-.099-.634-.195-.847-.405-.05-1.056-.117-1.852-.154z"/></svg>