<svg id="Layer_1" viewBox="0 0 24 24" xmlns="http://www.w3.org/2000/svg" data-name="Layer 1"><path d="m13.646 7.623c-2.383 1.066-4.803 3.141-4.831 3.167-.307.28-.548.615-.718.995-.144.323-.351.803-.547 1.488-.129.452-.253.994-.351 1.649l-1.639 1.639c-.586.586-1.535.586-2.121 0-.586-.585-.586-1.536 0-2.121l1.164-1.164c-.235-.513-.394-1.109-.492-1.776h-1.611c-.829 0-1.5-.671-1.5-1.5s.671-1.5 1.5-1.5h1.599c.093-.677.275-1.253.509-1.771l-1.168-1.168c-.586-.585-.586-1.536 0-2.121.586-.586 1.535-.586 2.121 0l1.168 1.168c.518-.235 1.094-.416 1.771-.509v-1.599c0-.829.671-1.5 1.5-1.5s1.5.671 1.5 1.5v1.611c.667.098 1.262.258 1.774.493l1.165-1.165c.586-.586 1.535-.586 2.121 0 .586.585.586 1.536 0 2.121l-1.584 1.584c-.431.108-.88.277-1.331.478zm9.354 9.867c-.025 1.726-.363 2.924-.61 3.799-.089.316-.352.657-.662.763-1.054.363-2.646.911-5.716.948-3.093-.037-4.686-.585-5.74-.948-.31-.106-.548-.358-.637-.674-.271-.958-.609-2.158-.635-3.863.029-2.907.634-4.265.924-4.917.056-.126.138-.239.239-.332.036-.033 3.958-3.267 5.836-3.267s5.801 3.234 5.837 3.267c.102.093.183.206.238.332.291.652.896 2.01.925 4.892zm-5-.49c0-.371-.035-.746-.076-1.057-.059-.454-.413-.808-.867-.867-.311-.041-.686-.076-1.057-.076s-.746.035-1.057.076c-.454.059-.808.413-.867.867-.041.311-.076.686-.076 1.057s.035.746.076 1.057c.059.454.413.808.867.867.311.041.686.076 1.057.076s.746-.035 1.057-.076c.454-.059.808-.413.867-.867.041-.311.076-.686.076-1.057z"/></svg>