<svg id="Layer_1" viewBox="0 0 24 24" xmlns="http://www.w3.org/2000/svg" data-name="Layer 1"><path d="m14.754 12.199c-1.597-1.195-4.468-3.199-5.754-3.199s-4.157 2.004-5.754 3.199c-.111.083-.204.189-.272.31-.1.177-.974 1.82-.974 4.991 0 1.939.624 3.836.65 3.916.091.271.293.491.556.604.093.04 2.329.98 5.794.98s5.701-.94 5.794-.98c.263-.113.465-.333.556-.604.026-.08.65-1.977.65-3.916 0-3.171-.874-4.814-.974-4.991-.068-.121-.161-.227-.272-.31zm-3.948 5.773c-.049.164-.179.291-.343.337-.028.008-.689.191-1.463.191s-1.435-.183-1.463-.191c-.164-.046-.293-.173-.343-.335-.008-.026-.194-.646-.194-1.474 0-.821.186-1.446.194-1.472.049-.164.179-.291.343-.337.028-.008.689-.191 1.463-.191s1.435.183 1.463.191c.164.046.293.173.343.335.008.026.194.646.194 1.474 0 .821-.186 1.446-.194 1.472z"/><path d="m21 1c-.553 0-1 .448-1 1v1h-1v-1c0-.552-.447-1-1-1s-1 .448-1 1v1h-1v-1c0-.552-.447-1-1-1s-1 .448-1 1v1h-1v-1c0-.552-.447-1-1-1s-1 .448-1 1v4 .027c.01 1.392 1.24 2.473 2.632 2.473h5.735c1.392 0 2.622-1.081 2.632-2.473 0-.009 0-.018 0-.027v-4c0-.552-.447-1-1-1z"/><path d="m15.82 10.5c.044.033.087.065.132.098.337.252.61.564.815.928.207.366 1.232 2.369 1.232 5.974 0 2.212-.675 4.313-.752 4.545-.118.352-.297.673-.526.953l.858-.002c1.601-.128 2.723-.542 2.77-.56.341-.127.586-.429.64-.789.021-.139.511-3.455.511-7.148 0-1.339-.101-2.797-.212-4h-5.468z"/></svg>