<svg id="Layer_1" viewBox="0 0 24 24" xmlns="http://www.w3.org/2000/svg" data-name="Layer 1"><path d="m10.5 5.5c0-1.071.429-1.5 1.5-1.5s1.5.429 1.5 1.5-.429 1.5-1.5 1.5-1.5-.429-1.5-1.5zm6-1.5c1.071 0 1.5-.429 1.5-1.5s-.429-1.5-1.5-1.5-1.5.429-1.5 1.5.429 1.5 1.5 1.5zm-9 0c1.071 0 1.5-.429 1.5-1.5s-.429-1.5-1.5-1.5-1.5.429-1.5 1.5.429 1.5 1.5 1.5zm2.147 6.719c.655.188 1.432.281 2.353.281s1.698-.093 2.353-.281c.461-.132.746-.604.615-1.047-.348-1.173-1.269-1.672-2.968-1.672s-2.62.499-2.968 1.672c-.131.442.154.915.615 1.047zm2.686 3.948c-1.482-1.782-2.913-2.453-2.918-2.458-.603-.347-1.379-.255-1.885.224-.45.425-.615 1.017-.49 1.616.349.916 1.085 2.174 1.99 3.338.339.436.261 1.064-.175 1.403-.41.319-.991.268-1.34-.102-.371-.436-.677-.879-.942-1.315-.667-1.05-1.213-1.948-1.49-2.915-.224-1.075.023-2.154.656-3-.065-1.273.085-2.464.331-3.558.437.061.904.1 1.431.1.66 0 1.222-.065 1.743-.161-.474-.587-.743-1.37-.743-2.339 0-.147.021-.279.032-.417-.307-.053-.647-.083-1.032-.083-.568 0-1.042.062-1.444.18-.241-.438-.609-.803-1.091-1.001-.668-.275-1.398-.229-2.017.116-.541.301-.933.795-1.101 1.39-.565 1.98-.847 3.932-.847 5.815 0 3.858.957 7.81 2.94 10.657.366.525.961.843 1.602.843h9.463c.642 0 1.107-.623.908-1.233-.769-2.356-2.091-5.309-3.58-7.1zm1.119-1.752c.139.152.279.304.419.473.707.85 1.332 1.852 1.868 2.855.522-.797.945-1.575 1.181-2.194.125-.599-.04-1.191-.49-1.616-.507-.479-1.282-.571-1.885-.224-.003.003-.45.22-1.093.706zm8.661-7.23c-.169-.595-.56-1.089-1.101-1.39-.619-.345-1.348-.391-2.017-.116-.479.197-.844.558-1.086.992-.395-.112-.857-.171-1.409-.171-.385 0-.725.029-1.032.083.012.139.032.271.032.417 0 .968-.269 1.752-.743 2.339.52.096 1.083.161 1.743.161.51 0 .967-.035 1.393-.093.244 1.092.393 2.281.329 3.551.633.846.88 1.925.656 3-.277.967-.823 1.864-1.49 2.915-.19.312-.412.628-.652.942.544 1.253.912 2.319 1.079 2.833.199.609.173 1.258-.029 1.853h.633c.64 0 1.236-.318 1.602-.843 1.984-2.848 2.94-6.799 2.94-10.657 0-1.883-.282-3.835-.847-5.815z"/></svg>