<svg id="Layer_1" viewBox="0 0 24 24" xmlns="http://www.w3.org/2000/svg" data-name="Layer 1"><path d="m12 1.5c1.071 0 1.5.429 1.5 1.5s-.429 1.5-1.5 1.5-1.5-.429-1.5-1.5.429-1.5 1.5-1.5zm0 4c-1.699 0-2.62.499-2.968 1.672-.131.442.154.915.615 1.047.655.188 1.432.281 2.353.281s1.698-.093 2.353-.281c.461-.132.746-.604.615-1.047-.348-1.173-1.269-1.672-2.968-1.672zm3.913 15.767c-.769-2.356-2.091-5.309-3.58-7.1-1.482-1.782-2.913-2.453-2.918-2.458-.603-.347-1.379-.255-1.885.224-.45.425-.615 1.017-.49 1.616.349.916 1.085 2.174 1.99 3.338.339.436.261 1.064-.175 1.403-.41.319-.991.268-1.34-.102-.371-.436-.677-.879-.942-1.315-.667-1.05-1.213-1.948-1.49-2.915-.224-1.075.023-2.154.656-3-.082-1.615.176-3.105.544-4.423.317-1.135-.228-2.409-1.317-2.857-.668-.275-1.398-.229-2.017.116-.541.301-.933.795-1.101 1.39-.565 1.98-.847 3.932-.847 5.815 0 3.858.957 7.81 2.94 10.657.366.525.961.843 1.602.843h9.463c.642 0 1.107-.623.908-1.233zm-2.461-8.852c.643-.486 1.09-.703 1.093-.706.603-.347 1.379-.255 1.885.224.45.425.615 1.017.49 1.616-.236.619-.659 1.397-1.181 2.194-.536-1.003-1.161-2.005-1.868-2.855-.14-.169-.28-.32-.419-.473zm9.508-1.415c0 3.858-.957 7.81-2.94 10.657-.366.525-.961.843-1.602.843h-.633c.203-.595.228-1.244.029-1.853-.168-.514-.536-1.58-1.079-2.833.241-.314.462-.63.652-.942.667-1.05 1.213-1.948 1.49-2.915.224-1.075-.023-2.154-.656-3 .082-1.615-.176-3.105-.544-4.423-.317-1.135.228-2.409 1.317-2.857.668-.275 1.398-.229 2.017.116.541.301.933.795 1.101 1.39.565 1.98.847 3.932.847 5.815z"/></svg>