<svg id="Layer_1" viewBox="0 0 24 24" xmlns="http://www.w3.org/2000/svg" data-name="Layer 1"><path d="m16.87 20.167c-.338-.756-1.225-1.097-1.98-.759-.009.004-.578.249-1.39.423v-15.662c.802.172 1.369.414 1.393.424.755.334 1.64-.004 1.977-.76.338-.756 0-1.644-.757-1.981-.078-.035-1.933-.852-4.112-.852s-4.032.817-4.11.852c-.757.337-1.102 1.227-.76 1.981.481 1.059 1.551.951 1.98.759.009-.004.578-.249 1.39-.423v15.662c-.802-.172-1.369-.414-1.393-.424-.755-.334-1.64.005-1.977.76-.338.756 0 1.644.757 1.981.078.035 1.933.852 4.112.852s4.032-.817 4.11-.852c.757-.337 1.097-1.224.76-1.981z"/></svg>