<svg id="Layer_1" viewBox="0 0 24 24" xmlns="http://www.w3.org/2000/svg" data-name="Layer 1"><path d="m19.996 20.246c.061.826-.56 1.545-1.386 1.606-1.327.098-2.709.147-4.11.147-5.902 0-9.655-.864-10.995-1.235-.459-.127-.831-.465-1-.91-.353-.924-1.504-4.328-1.504-9.343 0-.741.024-1.444.066-2.106.053-.826.766-1.446 1.592-1.402.827.052 1.455.765 1.402 1.592-.038.603-.06 1.242-.06 1.917 0 3.613.667 6.288 1.062 7.554 1.619.379 4.789.935 9.438.935 1.327 0 2.636-.047 3.89-.14.826-.066 1.545.56 1.606 1.386zm-5.502-13.246c-.74.004-.977.239-.995 1 .018.771.246.996 1.007 1 .764-.005.98-.224.995-1.019-.013-.72-.267-.977-1.007-.981zm8.506 2.506c0 3.651-.574 5.924-.599 6.02-.095.367-.364.653-.709.751-.055.016-.859.218-2.213.404-.107-3.137-1.729-4.68-4.979-4.68s-4.875 1.546-4.98 4.689c-1.331-.185-2.158-.397-2.213-.413-.345-.097-.615-.383-.709-.751-.025-.095-.599-2.368-.599-6.02 0-3.78.578-5.945.603-6.035.098-.36.366-.639.705-.735.104-.03 2.615-.724 7.192-.724s7.088.694 7.192.724c.345.097.614.383.709.751.024.095.599 2.368.599 6.019zm-5.499-1.524c-.032-1.828-1.179-2.971-3.007-2.982-1.842.011-2.961 1.126-2.995 2.982v.037c.035 1.884 1.126 2.971 3.007 2.981 1.869-.011 2.96-1.098 2.995-3.018zm-.006 8.912c-.026-2.155-.79-2.894-2.995-2.894s-2.969.739-2.995 2.894c.871.064 1.869.106 2.995.106s2.124-.043 2.995-.106z"/></svg>