<svg id="Layer_1" viewBox="0 0 24 24" xmlns="http://www.w3.org/2000/svg" data-name="Layer 1"><path d="m12 23c-6.109 0-9.218-1.125-9.348-1.174-.26-.096-.468-.296-.575-.551-.044-.105-1.077-2.627-1.077-7.275 0-.552.447-1 1-1h5c.524 0 .96.405.997.929.059.822.158 1.368.236 1.696.628.147 1.899.375 3.767.375s3.139-.228 3.768-.375c.077-.324.176-.871.235-1.696.037-.523.473-.929.997-.929h5c.553 0 1 .448 1 1 0 4.647-1.033 7.17-1.077 7.275-.107.255-.315.455-.575.551-.13.048-3.238 1.174-9.348 1.174zm0-12c-6.109 0-9.218-1.125-9.348-1.174-.26-.096-.468-.296-.575-.551-.044-.105-1.077-2.627-1.077-7.275 0-.552.447-1 1-1h5c.524 0 .96.405.997.929.059.822.158 1.368.236 1.696.628.147 1.899.375 3.767.375s3.139-.228 3.768-.375c.077-.324.176-.871.235-1.696.037-.523.473-.929.997-.929h5c.553 0 1 .448 1 1 0 4.647-1.033 7.17-1.077 7.275-.107.255-.315.455-.575.551-.13.048-3.238 1.174-9.348 1.174z"/></svg>