<svg id="Layer_1" viewBox="0 0 24 24" xmlns="http://www.w3.org/2000/svg" data-name="Layer 1"><path d="m20 7.5c0 .828-.671 1.5-1.5 1.5h-1.55c-.4 4.189-3.35 5.514-6.775 5.877 2.426 1.975 4.225 4.079 5.501 5.692.514.649.404 1.593-.246 2.107-.645.511-1.591.407-2.107-.246-2.789-3.523-5.427-5.874-8.555-7.621-.596-.333-.892-1.026-.72-1.688s.769-1.122 1.452-1.122h2c5.131 0 6.232-1.201 6.448-3h-8.448c-.829 0-1.5-.672-1.5-1.5s.671-1.5 1.5-1.5h8.184c-.561-1.219-2.089-1.986-6.189-2h-1.995c-.829 0-1.5-.672-1.5-1.5s.671-1.5 1.5-1.5h13c.829 0 1.5.672 1.5 1.5s-.671 1.5-1.5 1.5h-2.533c.367.561.654 1.216.828 2h1.705c.829 0 1.5.672 1.5 1.5z"/></svg>