<svg id="Layer_1" viewBox="0 0 24 24" xmlns="http://www.w3.org/2000/svg" data-name="Layer 1"><path d="m22.488 6.845c-.084-.651-.857-1.049-1.436-.74-.107.054-2.262 1.145-5.053 3.589v-2.695c.021-.701-.775-1.218-1.406-.914-.105.047-2.028.916-4.603 2.886.004.343.01.686.01 1.028 0 2.076-.069 4.448-.206 7.053-.028.552-.505.977-1.052.946-.552-.029-.975-.5-.946-1.051.136-2.569.204-4.907.204-6.947 0-2.099-.075-4.239-.16-6.042.664-.154 1.16-.747 1.16-1.458 0-.829-.672-1.5-1.5-1.5h-5c-.828 0-1.5.671-1.5 1.5 0 .712.497 1.305 1.162 1.458-.104 2.204-.162 4.243-.162 6.042 0 5.48.499 11.21.504 11.268.039.449.375.816.819.896.189.034 4.694.836 9.177.836s8.987-.802 9.177-.836c.433-.078.763-.428.816-.864.015-.123.366-3.055.477-6.8 0-4.526-.462-7.529-.481-7.655zm-7.545 10.448c-.044.341-.31.606-.651.651-.233.03-.514.057-.793.057s-.56-.026-.793-.057c-.341-.044-.606-.31-.651-.651-.031-.233-.057-.515-.057-.793s.026-.56.057-.793c.044-.341.31-.606.651-.651.233-.03.514-.057.793-.057s.56.026.793.057c.341.045.606.31.651.651.031.233.057.514.057.793s-.026.56-.057.793zm5 0c-.044.341-.31.606-.651.651-.233.03-.514.057-.793.057s-.56-.026-.793-.057c-.341-.044-.606-.31-.651-.651-.031-.233-.057-.515-.057-.793s.026-.56.057-.793c.044-.341.31-.606.651-.651.233-.03.514-.057.793-.057s.56.026.793.057c.341.045.606.31.651.651.031.233.057.514.057.793s-.026.56-.057.793z"/></svg>