<svg id="Layer_1" viewBox="0 0 24 24" xmlns="http://www.w3.org/2000/svg" data-name="Layer 1"><path d="m21.832 7.445c-.159-.238-.412-.397-.695-.436-.287-.041-.57.045-.788.231l-2.371 2.032-.53-1.589c-.102-.305-.344-.542-.65-.638-.306-.094-.641-.039-.898.155l-2.89 2.167-.561-1.684c-.102-.305-.344-.542-.65-.638-.307-.094-.641-.039-.898.155l-2.698 2.023-1.217-6.897c-.036-.202-.133-.388-.278-.533-.081-.081-.833-.793-2.207-.793s-2.126.712-2.207.793c-.128.128-.219.289-.263.464-.042.168-1.03 4.184-1.03 9.743 0 5.175 1.146 8.982 1.194 9.142.1.325.358.578.686.67.172.049 4.272 1.188 9.121 1.188s8.948-1.139 9.12-1.188c.296-.083.538-.299.655-.583.05-.122 1.225-3.049 1.225-8.229 0-3.696-1.048-5.375-1.168-5.555zm-11.977 10.159c-.037.123-.134.218-.257.253-.021.006-.517.143-1.097.143s-1.076-.137-1.097-.143c-.123-.035-.22-.13-.257-.252-.006-.019-.146-.484-.146-1.105 0-.616.139-1.084.145-1.104.037-.123.134-.218.257-.253.021-.006.517-.143 1.097-.143s1.076.137 1.097.143c.123.035.22.13.257.252.006.019.146.484.146 1.105 0 .616-.139 1.084-.145 1.104zm4.5 0c-.037.123-.134.218-.257.253-.021.006-.517.143-1.097.143s-1.076-.137-1.097-.143c-.123-.035-.22-.13-.257-.252-.006-.019-.146-.484-.146-1.105 0-.616.139-1.084.145-1.104.037-.123.134-.218.257-.253.021-.006.517-.143 1.097-.143s1.076.137 1.097.143c.123.035.22.13.257.252.006.019.146.484.146 1.105 0 .616-.139 1.084-.145 1.104zm4.5 0c-.037.123-.134.218-.257.253-.021.006-.517.143-1.097.143s-1.076-.137-1.097-.143c-.123-.035-.22-.13-.257-.252-.006-.019-.146-.484-.146-1.105 0-.616.139-1.084.145-1.104.037-.123.134-.218.257-.253.021-.006.517-.143 1.097-.143s1.076.137 1.097.143c.123.035.22.13.257.252.006.019.146.484.146 1.105 0 .616-.139 1.084-.145 1.104z"/></svg>