<?xml version="1.0" encoding="UTF-8"?>
<svg xmlns="http://www.w3.org/2000/svg" id="Layer_1" data-name="Layer 1" viewBox="0 0 24 24">
  <path d="M20.985,8.017c-2.67-2.613-5.378-2.614-8.048,0-.32,.314-.637,.706-.928,1.11-.285-.389-.604-.775-.947-1.111t0,0c-2.671-2.614-5.379-2.612-8.046,0-.865,.847-2.016,2.179-2.016,3.966,0,1.364,.659,2.673,2.015,4,1.335,1.307,2.679,1.96,4.023,1.96s2.689-.653,4.024-1.96c.32-.314,.637-.706,.928-1.11,.285,.389,.604,.775,.947,1.111t0,0c1.335,1.307,2.68,1.96,4.023,1.96s2.688-.654,4.022-1.96c.865-.847,2.016-2.179,2.016-3.966,0-1.364-.659-2.673-2.015-4Zm-12.021,5.823c-1.358,1.328-2.193,1.623-3.85,0-.509-.498-1.114-1.224-1.114-1.856,0-.493,.364-1.089,1.114-1.823,.712-.697,1.279-1.109,1.898-1.109,.561,0,1.163,.338,1.951,1.11,.497,.487,.989,1.244,1.325,1.825-.393,.664-.914,1.451-1.325,1.854Zm9.922,0c-1.356,1.329-2.191,1.624-3.85,0-.497-.487-.989-1.244-1.325-1.825,.393-.664,.914-1.451,1.325-1.854,1.357-1.329,2.193-1.624,3.85,0,.509,.498,1.114,1.224,1.114,1.856,0,.493-.364,1.089-1.114,1.823Z"/>
</svg>
