<svg id="Layer_1" viewBox="0 0 24 24" xmlns="http://www.w3.org/2000/svg" data-name="Layer 1"><path d="m18.419 22c-3.146 0-7.176-.303-8.293-.624-.288-.082-.527-.296-.651-.583-.049-.111-.475-1.14-.475-2.793s.426-2.681.475-2.793c.134-.308.399-.531.712-.599.335-.207 6.4-.711 8.232-.608.659 0 2.49-.009 3.068.006 0 0-.117.691-.251 1.298-.415 2.149-.86 4.139-1.325 5.911-.12.459-.514.778-.964.781l-.529.003zm-15.919-10c-.828 0-1.5.672-1.5 1.5s.672 1.5 1.5 1.5 1.5-.672 1.5-1.5-.672-1.5-1.5-1.5zm0 4c-.828 0-1.5.672-1.5 1.5s.672 1.5 1.5 1.5 1.5-.672 1.5-1.5-.672-1.5-1.5-1.5zm4-2c-.828 0-1.5.672-1.5 1.5s.672 1.5 1.5 1.5 1.5-.672 1.5-1.5-.672-1.5-1.5-1.5zm0 4c-.828 0-1.5.672-1.5 1.5s.672 1.5 1.5 1.5 1.5-.672 1.5-1.5-.672-1.5-1.5-1.5zm-4 2c-.828 0-1.5.672-1.5 1.5s.672 1.5 1.5 1.5 1.5-.672 1.5-1.5-.672-1.5-1.5-1.5zm11.884-7.882c2.463-.148 4.744-.147 7.325-.05 1.206-5.864 1.288-8.935 1.291-9.066.006-.28-.119-.545-.337-.72-.097-.078-.996-.77-2.616-1.113-1.622-.343-2.723-.07-2.844-.039-.27.072-.491.266-.598.523-.052.125-1.284 3.12-2.592 9.319-.087.412-.166.805-.242 1.189.202-.015.395-.03.613-.044z"/></svg>