<svg id="Layer_1" viewBox="0 0 24 24" xmlns="http://www.w3.org/2000/svg" data-name="Layer 1"><path d="m22.202 5.628c-.103-.317-.355-.563-.676-.655-.139-.04-3.455-.973-9.526-.973s-9.388.933-9.526.973c-.321.092-.574.338-.676.655-.032.101-.798 2.526-.798 6.372s.766 6.271.798 6.372c.102.317.355.563.676.655.138.04 3.455.973 9.526.973s9.388-.933 9.526-.973c.32-.092.573-.338.676-.655.032-.101.798-2.526.798-6.372s-.766-6.271-.798-6.372zm-11.452 10.372h-.003c-.551-.002-.996-.449-.996-1h-2.501s0 .005 0 .005c-.008.548-.454.99-1 .99h-.005c-.549-.003-.993-.442-.995-.991 0-.133.019-1.357.814-3.473.756-2.012 1.52-2.992 1.665-3.168.38-.461 1.162-.461 1.542 0 .146.176.909 1.156 1.665 3.168.795 2.115.814 3.34.814 3.473-.002.551-.449.996-1 .996zm-1.686-3.766c.104.277.188.528.263.766h-1.653c.075-.238.159-.489.263-.766.194-.516.387-.951.564-1.308.177.356.37.792.564 1.308z"/></svg>