<svg id="Layer_1" viewBox="0 0 24 24" xmlns="http://www.w3.org/2000/svg" data-name="Layer 1"><path d="m13.2 15.6c-.228-.303-.264-.708-.095-1.047.17-.339.516-.553.895-.553h.509c.089-6.815 1.991-10.677 6.32-12.842.742-.369 1.643-.069 2.013.671.37.741.07 1.642-.671 2.013-3.265 1.632-4.59 4.507-4.664 10.158h.493c.379 0 .725.214.895.553.169.339.133.744-.095 1.047-.624.834-1.364 1.574-2.2 2.2-.178.133-.389.2-.6.2s-.422-.067-.6-.2c-.835-.625-1.575-1.366-2.2-2.2zm-11.371-11.758c3.265 1.632 4.59 4.507 4.664 10.158h-.493c-.379 0-.725.214-.895.553-.169.339-.133.744.095 1.047.624.834 1.364 1.574 2.2 2.2.178.133.389.2.6.2s.422-.067.6-.2c.836-.626 1.576-1.366 2.2-2.2.228-.303.264-.708.095-1.047-.17-.339-.516-.553-.895-.553h-.509c-.089-6.815-1.991-10.677-6.32-12.842-.741-.369-1.642-.069-2.013.671-.37.741-.07 1.642.671 2.013zm19.795 9.163c-.837-.075-1.55.545-1.619 1.372-.166 2.009-.461 3.815-.653 4.86-1.44.28-4.354.763-7.352.763s-5.911-.483-7.352-.763c-.192-1.045-.487-2.851-.653-4.86-.069-.827-.812-1.444-1.619-1.372-.825.068-1.439.793-1.371 1.619.276 3.345.873 6.083.898 6.198.123.562.557 1.003 1.116 1.137.178.042 4.412 1.041 8.98 1.041s8.803-.999 8.98-1.041c.56-.134.993-.575 1.116-1.137.025-.115.622-2.853.898-6.198.068-.826-.546-1.55-1.371-1.619z"/></svg>