<svg id="Layer_1" viewBox="0 0 24 24" xmlns="http://www.w3.org/2000/svg" data-name="Layer 1"><path d="m17.756 11.179c.453.693.259 1.623-.435 2.076-.254.166-.538.245-.82.245-.489 0-.969-.239-1.257-.679-.519-.794-1.106-1.511-1.744-2.163v10.842c0 .829-.672 1.5-1.5 1.5s-1.5-.671-1.5-1.5v-10.842c-.638.652-1.225 1.368-1.744 2.163-.454.694-1.383.887-2.077.435-.693-.453-.888-1.383-.435-2.076 1.326-2.028 2.99-3.691 4.947-4.943.494-.315 1.123-.315 1.617 0 1.957 1.252 3.621 2.915 4.947 4.943zm4.263-7.985c-.12-.573-.562-1.023-1.131-1.155-.184-.042-4.544-1.039-8.888-1.039s-8.704.996-8.888 1.039c-.569.132-1.011.583-1.131 1.155-.04.192-.981 4.759-.981 9.306s.941 9.114.981 9.306c.167.817.984 1.334 1.775 1.162.811-.169 1.331-.963 1.162-1.774-.01-.044-.919-4.453-.919-8.694 0-3.049.473-6.198.74-7.734 1.468-.281 4.41-.766 7.26-.766s5.793.485 7.261.766c.267 1.534.739 4.678.739 7.734 0 4.229-.909 8.65-.919 8.694-.168.811.352 1.605 1.163 1.774.805.166 1.605-.351 1.774-1.162.04-.192.981-4.759.981-9.306s-.941-9.114-.981-9.306z"/></svg>