<svg id="Layer_1" viewBox="0 0 24 24" xmlns="http://www.w3.org/2000/svg" data-name="Layer 1"><path d="m17.372 13.958c.416-.764.628-1.74.628-2.958 0-3.411-1.589-5-5-5s-5 1.589-5 5 1.589 5 5 5c1.218 0 2.194-.212 2.958-.628l4.058 4.058c-.025.085-.014 1.446-.016 1.57 0 .351-.184.677-.485.857-.078.047-1.945 1.143-5.515 1.143s-5.437-1.096-5.515-1.143c-.301-.181-.485-.506-.485-.857v-1.063c-2.039-.178-3.258-.577-3.316-.597-.337-.112-.59-.396-.663-.744-.018-.088-.397-1.916-.57-3.83-1.038-.138-1.656-.287-1.688-.295-.534-.13-.862-.666-.737-1.201.703-2.986 1.877-5.548 3.808-8.306 2.023-2.891 4.372-3.965 8.665-3.965 6.659 0 9.5 2.841 9.5 9.5.009 3.402-.814 4.94-2.26 6.826l-3.368-3.368zm-7.372-2.958c0 2.299.701 3 3 3s3-.701 3-3-.701-3-3-3-3 .701-3 3z"/></svg>