<svg id="Layer_1" viewBox="0 0 24 24" xmlns="http://www.w3.org/2000/svg" data-name="Layer 1"><path d="m9.238 23c-3.121 0-4.025-1.791-4.235-3.293-.114-.82.458-1.578 1.279-1.692s1.578.458 1.693 1.278c.065.471.098.707 1.263.707 1.038 0 1.262-.224 1.262-1.262l-.011-13.476c.017-2.713 1.57-4.263 4.262-4.263 3.121 0 4.025 1.791 4.235 3.293.114.821-.458 1.579-1.279 1.693-.827.109-1.579-.459-1.693-1.279-.065-.471-.098-.707-1.263-.707-1.043 0-1.255.214-1.262 1.271l.011 13.466c0 2.709-1.553 4.263-4.262 4.263z"/></svg>