<svg id="Layer_1" viewBox="0 0 24 24" xmlns="http://www.w3.org/2000/svg" data-name="Layer 1"><path d="m5 9c0-2.691 1.309-4 4-4s4 1.309 4 4-1.309 4-4 4-4-1.309-4-4zm17.544-6.964c-.111-.321-.377-.565-.707-.647-.161-.04-1.628-.389-3.337-.389s-3.176.349-3.337.389c-.329.082-.597.328-.707.648-.076.221-.456 1.4-.456 2.963 0 2.503.792 4.483 1.339 4.844.159.106.344.157.536.156.677 0 1.469-.656 1.925-1.046.257.023.555.046.7.046 1.709 0 3.176-.349 3.337-.389.329-.082.597-.328.707-.648.076-.221.456-1.4.456-2.963s-.38-2.742-.456-2.964zm-13.544 12.964c-.263 0-.489.029-.734.044-3.211-.45-4.266-2.109-4.266-6.044v-2.5c0-.829-.671-1.5-1.5-1.5s-1.5.671-1.5 1.5v2.5c0 3.817 1.01 6.327 3.213 7.745-.808.978-1.213 2.367-1.213 4.255v1c0 .552.448 1 1 1h10c.553 0 1-.448 1-1v-1c0-4.149-1.851-6-6-6z"/></svg>