<svg id="Layer_1" viewBox="0 0 24 24" xmlns="http://www.w3.org/2000/svg" data-name="Layer 1"><path d="m22 4.5c0 1.062-.349 2.153-.456 2.461-.11.319-.376.567-.704.649-.064.016-1.579.39-3.34.39-.145 0-.443-.023-.7-.046-.457.391-1.249.971-1.925.971-.19.001-.375-.049-.533-.154-.534-.349-1.342-2.23-1.342-4.271 0-1.062.349-2.153.456-2.461.11-.319.376-.567.704-.649.064-.016 1.579-.39 3.34-.39s3.276.374 3.34.39c.328.082.593.326.703.646.108.312.457 1.403.457 2.465zm-12.16-3.11c-.064-.016-1.579-.39-3.34-.39s-3.276.374-3.34.39c-.328.082-.594.33-.704.649-.107.309-.456 1.399-.456 2.461s.349 2.153.457 2.465c.11.32.375.563.703.646.064.016 1.579.39 3.34.39.145 0 .443-.023.7-.046.457.391 1.249.971 1.925.971.19.001.375-.049.533-.154.534-.349 1.342-2.23 1.342-4.271 0-1.062-.349-2.153-.457-2.465-.11-.32-.375-.563-.703-.646zm4.147 8.61c-.784.003-1.513.44-1.989 1.063-1.364 1.799-1.74 2.89-1.843 3.083-.271.503-.177 1.137.228 1.541.179.18.458.377 1.027.294 1.097-.156 2.54-.825 3.861-1.789.446-.326 1.071-.228 1.397.218s.228 1.072-.218 1.397c-.381.278-.771.532-1.162.764 1.074.935 2.749 2.238 4.835 3.429h1.877c.552 0 1-.448 1-1v-7c-.014-.538-.452-.99-1-1h-3.837c-1.542-.514-2.998-1-4.163-1-.004 0-.009 0-.013 0zm-.66 7.506c-.763.278-1.423.488-2.168.494-.849 0-1.598-.306-2.191-.898-1.009-1.009-1.253-2.583-.604-3.849.122-.296.69-1.593 1.914-3.233-1.34-.098-2.76.439-4.441.981h-3.837c-.552 0-1 .448-1 1v7c0 .552.448 1 1 1h4.097c1.325 1.233 3.778 3 5.903 3 1.89 0 3.671-1.069 5.394-2.311-1.844-1.216-3.238-2.412-4.067-3.184z"/></svg>