<svg id="Layer_1" viewBox="0 0 24 24" xmlns="http://www.w3.org/2000/svg" data-name="Layer 1"><path d="m13 14.716v-4.716c0-.552-.447-1-1-1s-1 .448-1 1v5c0 .178.047.352.137.505 1.106 1.889 3.474 3.872 6.283 6.116-1.289.931-3.077 1.379-5.42 1.379-5.532 0-8-2.468-8-8 0-5.002 2.026-7.491 6.5-7.924v-.958c-.522.469-1.317.52-1.9.082-.662-.497-.797-1.437-.3-2.1.797-1.062 1.739-2.004 2.8-2.8.264-.181.573-.296.9-.3.327.004.636.119.9.3 1.061.796 2.003 1.738 2.8 2.8.497.663.362 1.603-.3 2.1-.575.433-1.372.391-1.9-.09v.967c4.474.433 6.5 2.922 6.5 7.924 0 2.191-.394 3.893-1.205 5.16-2.501-1.996-4.774-3.876-5.795-5.444z"/></svg>