<svg id="Layer_1" viewBox="0 0 24 24" xmlns="http://www.w3.org/2000/svg" data-name="Layer 1"><path d="m8.879 21.523c.168.31.161.685-.02.988s-.507.488-.859.488h-6c-.353 0-.679-.186-.859-.488-.181-.303-.188-.679-.02-.988.435-.802 1.244-1.339 2.165-1.435 1.129-.117 2.298-.118 3.427 0 .921.096 1.731.632 2.166 1.435zm13.789-13.218c-.294-2.112-.681-3.489-.707-3.58-.095-.332-.354-.592-.687-.687-.06-.017-.689-.192-1.775-.392v-1.146c0-.829-.672-1.5-1.5-1.5s-1.5.671-1.5 1.5v.724c-1.286-.13-2.797-.224-4.5-.224s-3.214.093-4.5.224v-.724c0-.829-.672-1.5-1.5-1.5s-1.5.671-1.5 1.5v1.146c-1.087.201-1.715.375-1.775.393-.332.095-.592.354-.687.687-.026.091-.413 1.469-.707 3.58 1.794-.488 5.558-1.305 10.668-1.305s8.874.818 10.668 1.305zm-15.167 8.18c-.027-1.523-.983-2.476-2.506-2.485-1.536.009-2.468.938-2.496 2.485v.03c.028 1.57.938 2.476 2.506 2.485 1.557-.009 2.467-.915 2.496-2.515zm8.997 0v.03c.029 1.57.939 2.476 2.506 2.485 1.558-.009 2.467-.915 2.496-2.515-.027-1.523-.983-2.476-2.506-2.485-1.536.009-2.468.938-2.496 2.485zm4.215 3.604c-1.131-.118-2.297-.118-3.428 0-.921.096-1.73.632-2.165 1.435-.168.31-.161.685.02.988s.507.488.859.488h6c.353 0 .679-.186.859-.488.181-.303.188-.679.02-.988-.435-.802-1.244-1.339-2.165-1.435zm-6.215-3.536c-.009-2.676 1.812-4.544 4.484-4.553 1.826.012 3.259.914 3.988 2.332.018-.433.03-.876.03-1.332 0-.894-.039-1.746-.1-2.544-1.03-.321-5.078-1.456-10.9-1.456s-9.871 1.135-10.9 1.456c-.061.797-.1 1.649-.1 2.544 0 .444.012.875.029 1.298.719-1.41 2.128-2.286 3.955-2.298 2.623.017 4.471 1.846 4.518 4.449-.016.888-.233 1.664-.587 2.326.714.432 1.316 1.043 1.724 1.796.404.745.451 1.624.177 2.412.385.01.778.017 1.185.017s.799-.007 1.184-.016c-.273-.789-.227-1.667.178-2.414s1.001-1.354 1.709-1.786c-.345-.64-.557-1.385-.573-2.231z"/></svg>