<svg id="Layer_1" viewBox="0 0 24 24" xmlns="http://www.w3.org/2000/svg" data-name="Layer 1"><path d="m21.439 21.105c-.131-.065-3.279-1.607-9.439-1.607s-9.308 1.542-9.439 1.607c-.414.208-.632.673-.525 1.125.106.451.509.77.972.77h17.983c.463 0 .866-.318.972-.77.107-.452-.111-.917-.525-1.125z"/><path d="m18.272 1.303c-2.324-.734-5.279.06-6.272.371-.991-.309-3.945-1.097-6.272-.365-3.937 1.244-4.445 4.373-4.163 5.854.065.345.307.63.636.752.098.035 1.539.556 3.37.556 1.178 0 2.517-.216 3.763-.913 1.216-.681 2.087-1.717 2.668-2.625.582.905 1.452 1.938 2.666 2.618 1.246.698 2.585.914 3.763.914 1.831 0 3.272-.521 3.37-.556.329-.122.57-.407.636-.752.281-1.48-.226-4.61-4.164-5.854z"/><path d="m10.142 17.544c.589-.03 1.208-.046 1.858-.046 2.34 0 4.286.212 5.836.491-.137-1.516-.393-3.406-.873-5.244-.23-.879-.519-1.726-.839-2.526-.55-.123-1.079-.292-1.583-.506-.776 2.155-2.277 3.69-3.551 4.671-.067 1.177-.419 2.256-.847 3.161z"/><path d="m10.309 9.303c-1.384.775-2.979 1.168-4.739 1.168-.176 0-.349-.004-.519-.012.213 1.683 1.214 2.855 1.966 3.366.168.114.364.173.561.173.142 0 .286-.03.42-.093.154-.071 3.733-1.762 4.775-5.207-.274-.205-.531-.421-.771-.645-.49.46-1.052.89-1.693 1.249z"/></svg>