<svg id="Layer_1" viewBox="0 0 24 24" xmlns="http://www.w3.org/2000/svg" data-name="Layer 1"><path d="m6.826 10.037c.419.714 1.339.954 2.053.534l.469-.275c.323.233.71.404 1.153.52v.684c0 .828.672 1.5 1.5 1.5s1.5-.672 1.5-1.5v-.684c.443-.116.83-.286 1.153-.52l.469.275c.714.419 1.634.18 2.053-.534s.18-1.634-.534-2.053l-.669-.393c.018-.188.029-.384.029-.592s-.011-.403-.029-.592l.669-.393c.714-.419.954-1.339.534-2.053-.419-.714-1.339-.954-2.053-.534l-.469.275c-.323-.233-.71-.404-1.153-.52v-.684c0-.828-.672-1.5-1.5-1.5s-1.5.672-1.5 1.5v.684c-.443.116-.83.286-1.153.52l-.469-.275c-.714-.419-1.634-.18-2.053.534s-.18 1.634.534 2.053l.669.393c-.018.188-.029.384-.029.592s.011.403.029.592l-.669.393c-.714.419-.954 1.339-.534 2.053zm5.174-4.537c1.192 0 1.5.308 1.5 1.5s-.308 1.5-1.5 1.5-1.5-.308-1.5-1.5.308-1.5 1.5-1.5zm11 4c0 4.145-1.028 6.762-1.071 6.871-.109.273-.333.484-.612.577-.118.039-2.725.884-7.83 1.029v2.023h2.001c.829 0 1.5.672 1.5 1.5s-.671 1.5-1.5 1.5h-7c-.829 0-1.5-.672-1.5-1.5s.671-1.5 1.5-1.5h2v-2.024c-5.087-.147-7.686-.989-7.803-1.028-.279-.093-.503-.304-.612-.577-.043-.109-1.071-2.727-1.071-6.871s1.028-6.762 1.071-6.871c.109-.273.333-.484.612-.577.08-.027 1.304-.425 3.676-.724-1.457 1.449-2.36 3.455-2.36 5.672 0 4.418 3.582 8 8 8s8-3.582 8-8c0-2.217-.903-4.223-2.36-5.672 2.372.299 3.596.697 3.676.724.279.093.503.304.612.577.043.109 1.071 2.727 1.071 6.871z"/></svg>