<svg id="Layer_1" viewBox="0 0 24 24" xmlns="http://www.w3.org/2000/svg" data-name="Layer 1"><path d="m16.913 2.171c-.181-.808-.98-1.316-1.792-1.135-.808.181-1.316.983-1.135 1.792.012.053 1.186 5.39.992 13.4-.034 1.402-.267 2.702-.581 3.233-.141.24-.316.538-2.456.538-2.125 0-2.282-.276-2.42-.52-.353-.618-.52-2.285-.521-3.217-.001-.827-.672-1.498-1.5-1.498h-.001c-.828 0-1.499.671-1.499 1.5 0 .517.044 3.175.915 4.702 1.071 1.877 2.989 2.033 5.027 2.033 1.95 0 3.946-.156 5.041-2.015.8-1.357.966-3.517.995-4.683.203-8.376-1.012-13.899-1.064-14.13z"/></svg>