<?xml version="1.0" encoding="UTF-8"?>
<svg xmlns="http://www.w3.org/2000/svg" id="Layer_1" data-name="Layer 1" viewBox="0 0 24 24">
  <path d="M15.357,13.438c-1.061,.634-2.193,.925-3.356,.958-1.694,.048-3.356-.958-3.356-.958,0,0-1.696,1.024-3.353,.957-.463-.019-.921-.052-1.367-.153v2.433c0,3.123,2.229,5.739,5.3,6.22,.439,.07,1.604,.104,2.77,.104s2.327-.034,2.766-.104c3.072-.481,5.302-3.098,5.302-6.221v-2.425c-.437,.096-.886,.151-1.341,.146-1.968-.019-3.34-.959-3.363-.959Z"/>
  <path d="M21.389,9.735c-.01-1.478-.823-2.836-2.084-3.57v-2.157c0-.242-.088-.476-.247-.658-.084-.096-2.11-2.35-7.038-2.35h-.028c-4.919,.009-6.971,2.247-7.056,2.343-.164,.184-.255,.422-.254,.668l.003,.923c1.747-.452,3.897-.827,6.324-.879,.079-.002,.921-.006,1.632-.009,.552-.002,1.001,.443,1.004,.994,.003,.553-.443,1.004-.995,1.006-.696,.003-1.512,.007-1.591,.009-3.224,.069-5.919,.75-7.742,1.375-.458,.682-.717,1.5-.712,2.36l.008,1.133c.002,.342,.18,.659,.469,.841,1.343,.839,3.075,.842,4.418,0,.698-.438,1.598-.437,2.296,0,1.343,.841,3.076,.84,4.419-.002,.695-.435,1.595-.438,2.304,.007,.67,.418,1.438,.626,2.204,.626s1.535-.208,2.205-.626c.295-.184,.473-.508,.471-.855l-.008-1.18Z"/>
</svg>
