<svg id="Layer_1" viewBox="0 0 24 24" xmlns="http://www.w3.org/2000/svg" data-name="Layer 1"><path d="m22.43 17.041-5.742 5.742c-.091-2.738.081-4.595.203-5.511 1.069-.14 3.234-.357 5.539-.232zm.57-5.041c0 .949-.06 1.987-.148 3.062-3.597-.241-6.859.318-7.003.343-.399.07-.716.374-.804.77-.021.095-.503 2.359-.355 6.709-.94.069-1.85.116-2.69.116-4.501 0-9.024-.981-9.214-1.023-.381-.083-.679-.381-.762-.762-.042-.19-1.023-4.713-1.023-9.214s.98-9.025 1.022-9.215c.083-.381.381-.679.762-.762.19-.042 4.713-1.023 9.214-1.023s9.024.981 9.214 1.023c.381.083.679.381.762.762.042.19 1.023 4.713 1.023 9.214zm-15.692-3.754c0-1.219-.15-2.646-.157-2.707-.037-.347-.341-.598-.694-.561-.347.037-.598.348-.561.694.001.014.15 1.42.15 2.573 0 1.529-.425 1.529-.801 1.529-.48 0-.604-.154-.701-.499-.094-.336-.44-.532-.778-.438-.335.094-.532.442-.438.778.181.648.661 1.421 1.917 1.421 2.062 0 2.062-2.101 2.062-2.791zm4.763 2.145c-.151-2.892-1.481-5.017-1.538-5.105-.231-.364-.834-.364-1.065 0-.057.089-1.386 2.213-1.538 5.105-.018.348.25.645.598.663.342.006.645-.25.663-.598.073-1.399.467-2.612.81-3.423.343.812.737 2.024.81 3.423.018.337.296.598.63.598h.033c.348-.019.616-.315.598-.663zm4.25-4.734c.018-.348-.25-.645-.598-.663-.353-.019-.645.249-.663.598-.073 1.399-.467 2.612-.81 3.423-.343-.812-.737-2.024-.81-3.423-.018-.348-.305-.603-.663-.598-.348.019-.616.315-.598.663.151 2.893 1.481 5.017 1.538 5.105.116.182.317.292.533.292s.417-.11.533-.292c.057-.089 1.386-2.213 1.538-5.105zm4.212 4.734c-.151-2.892-1.481-5.017-1.538-5.105-.231-.364-.834-.364-1.065 0-.057.089-1.386 2.213-1.538 5.105-.018.348.25.645.598.663.331.006.645-.25.663-.598.073-1.399.467-2.612.81-3.423.343.812.737 2.024.81 3.423.018.337.296.598.63.598h.033c.348-.019.616-.315.598-.663z"/></svg>