<svg id="Layer_1" viewBox="0 0 24 24" xmlns="http://www.w3.org/2000/svg" data-name="Layer 1"><path d="m15.378 4.518c-.061-.385-.34-.699-.716-.805-.041-.012-.461-.126-1.162-.259v-1.204c0-.552-.448-1-1-1s-1 .448-1 1v.914c-.601-.065-1.267-.115-2-.141v-1.023c0-.552-.448-1-1-1s-1 .448-1 1v1.023c-.733.026-1.399.077-2 .141v-.914c0-.552-.448-1-1-1s-1 .448-1 1v1.204c-.701.133-1.121.247-1.162.259-.375.106-.655.42-.716.805-.025.159-.622 3.955-.622 8.482s.597 8.323.622 8.482c.061.385.34.699.716.805.103.029 2.565.712 6.162.712s6.059-.683 6.162-.712c.375-.106.655-.42.716-.805.025-.159.622-3.955.622-8.482s-.597-8.323-.622-8.482zm-6.378 13.482h-3c-.552 0-1-.448-1-1s.448-1 1-1h3c.552 0 1 .448 1 1s-.448 1-1 1zm2-4h-5c-.552 0-1-.448-1-1s.448-1 1-1h5c.552 0 1 .448 1 1s-.448 1-1 1zm0-4h-5c-.552 0-1-.448-1-1s.448-1 1-1h5c.552 0 1 .448 1 1s-.448 1-1 1zm9.5 13c-.256 0-.512-.098-.707-.293-.031-.031-.762-.764-1.346-1.515-.126-.163-.2-.362-.21-.568-.01-.2-.237-4.935-.237-8.625 0-5 .258-9.646.261-9.709.015-.36.222-.685.542-.849.144-.074.902-.442 1.697-.442.79 0 1.611.367 1.702.409.343.158.567.495.582.872.002.06.217 4.719.217 9.719 0 3.689-.227 8.425-.237 8.625-.01.206-.083.405-.21.568-.584.751-1.315 1.484-1.346 1.515-.195.195-.451.293-.707.293z"/></svg>