<svg id="Layer_1" viewBox="0 0 24 24" xmlns="http://www.w3.org/2000/svg" data-name="Layer 1"><path d="m20.5 23c-.256 0-.512-.098-.707-.293-.031-.031-.762-.764-1.346-1.515-.126-.163-.2-.362-.21-.568-.01-.2-.237-4.935-.237-8.625 0-5 .258-9.646.261-9.709.015-.36.222-.685.542-.849.144-.074.902-.442 1.697-.442.79 0 1.611.367 1.702.409.343.158.567.495.582.872.002.06.217 4.719.217 9.719 0 3.689-.227 8.425-.237 8.625-.01.206-.083.405-.21.568-.584.751-1.315 1.484-1.346 1.515-.195.195-.451.293-.707.293zm-5.023-20.371c-.048-.396-.327-.726-.709-.838-.109-.032-2.708-.791-5.268-.791s-5.158.759-5.268.791c-.383.113-.662.442-.709.838-.003.027-.019.162-.042.371h-.731c-.552 0-1 .448-1 1s.448 1 1 1h.543c-.047.584-.096 1.257-.14 2h-.903c-.552 0-1 .448-1 1s.448 1 1 1h.808c-.024.641-.042 1.309-.051 2h-1.007c-.552 0-1 .448-1 1s.448 1 1 1h1.007c.009.691.027 1.359.051 2h-.808c-.552 0-1 .448-1 1s.448 1 1 1h.903c.044.743.093 1.416.14 2h-.543c-.552 0-1 .448-1 1s.448 1 1 1h.731c.023.209.039.343.042.371.048.396.327.726.709.838.109.032 2.708.791 5.268.791s5.158-.759 5.268-.791c.383-.113.662-.442.709-.838.021-.176.523-4.368.523-9.371s-.501-9.194-.523-9.371zm-3.477 5.371h-5c-.552 0-1-.448-1-1s.448-1 1-1h5c.552 0 1 .448 1 1s-.448 1-1 1z"/></svg>