<svg id="Layer_1" viewBox="0 0 24 24" xmlns="http://www.w3.org/2000/svg" data-name="Layer 1"><path d="m23 17v4c0 .431-.275.812-.684.949-.129.043-3.235 1.051-10.316 1.051s-10.188-1.008-10.316-1.051c-.408-.136-.684-.518-.684-.949v-4c0-.431.275-.812.684-.949.119-.04 2.799-.906 8.816-1.034v-6.205c-1.67-.437-2.5-1.687-2.5-3.813 0-2.691 1.309-4 4-4s4 1.309 4 4c0 2.126-.83 3.376-2.5 3.813v6.205c.712.015 1.381.04 2 .073v-.59c0-.829.672-1.5 1.5-1.5s1.5.671 1.5 1.5v.841c2.537.297 3.738.684 3.816.711.408.136.684.518.684.949z"/></svg>