<svg id="Layer_1" viewBox="0 0 24 24" xmlns="http://www.w3.org/2000/svg" data-name="Layer 1"><path d="m19.907 10.788c-.08-.092-.235-.256-.445-.454.352-.615.538-1.391.538-2.334 0-2.617-1.383-4-4-4-.381 0-.729.038-1.057.096-.024-.365-.053-.73-.089-1.096h.146c.552 0 1-.447 1-1s-.448-1-1-1h-6c-.552 0-1 .447-1 1s.448 1 1 1h.146c-.087.869-.146 1.735-.146 2.584 0 .621.025 1.508.071 2.287-2.959.769-4.619 2.506-4.979 2.917-.314.288-.69.916-.909 2.212h12.817c.552 0 1 .447 1 1s-.448 1-1 1h-12.987c-.175 2.683.823 6.495.832 6.364.09.29.309.523.592.634.105.041 2.632 1.002 7.563 1.002s7.458-.961 7.562-1.002c.284-.11.502-.344.592-.634.035-.111.845-2.748.845-5.864s-.621-4.279-1.093-4.712zm-3.907-3.788c.953 0 1 .047 1 1 0 .283-.008.478-.038.624-.572-.279-1.226-.534-1.961-.73.005-.842.086-.894.999-.894z"/></svg>