<svg id="Layer_1" viewBox="0 0 24 24" xmlns="http://www.w3.org/2000/svg" data-name="Layer 1"><path d="m19.997 21.406c-.009-.138-.235-3.424-2.297-7.173-.667-1.214-1.586-2.266-2.495-3.149.742-.681 1.613-1.625 2.229-2.744 1.44-2.62 1.6-4.939 1.606-5.037.051-.824-.573-1.531-1.396-1.586-.827-.062-1.538.569-1.597 1.392-.001.018-.14 1.783-1.241 3.785-.656 1.193-1.797 2.164-2.369 2.604-.616-.007-1.509-.014-1.84.011-1.486.105-2.665.295-3.555.49.187-4.442.942-7.016.956-7.063.24-.792-.206-1.629-.998-1.87-.795-.244-1.631.204-1.873.997-.046.151-1.127 3.765-1.127 9.934 0 7.543 1.035 9.835 1.242 10.218.268.495 1.057 1.075 1.982.606.723-.366 1.019-1.257.678-1.992-.008-.018-.805-1.806-.894-7.732.75-.204 2.008-.469 3.801-.596.168-.011.827-.011 1.502-.004.976.858 2.082 1.949 2.759 3.182 1.722 3.129 1.93 5.892 1.932 5.915.05.795.727 1.447 1.591 1.403.827-.042 1.455-.764 1.403-1.591z"/></svg>