<svg id="Layer_1" viewBox="0 0 24 24" xmlns="http://www.w3.org/2000/svg" data-name="Layer 1"><path d="m11.881 18.992c-2.56 2.618-4.042 3.752-4.113 3.805-.278.211-.644.26-.966.135-.065-.025-1.61-.638-3.353-2.38-1.743-1.741-2.355-3.287-2.381-3.352-.125-.323-.075-.688.133-.964.054-.071 1.19-1.565 3.806-4.125.039 4.525 2.351 6.839 6.873 6.881zm5.119-6.992c0 3.571-1.429 5-5 5s-5-1.429-5-5 1.429-5 5-5 5 1.429 5 5zm-2 0c0-.552-.447-1-1-1h-1v-1c0-.552-.448-1-1-1s-1 .448-1 1v1h-1c-.552 0-1 .448-1 1s.448 1 1 1h1v1c0 .552.448 1 1 1s1-.448 1-1v-1h1c.553 0 1-.448 1-1zm7.819-7.931c-.384-.547-.827-1.074-1.317-1.565-.493-.493-1.023-.938-1.574-1.324-.318-.222-.734-.24-1.07-.048-.611.35-2.649 1.573-5.731 3.944 3.516.335 5.461 2.279 5.798 5.794 2.367-3.076 3.597-5.125 3.944-5.729.193-.337.174-.755-.049-1.072z"/></svg>