<svg id="Layer_1" viewBox="0 0 24 24" xmlns="http://www.w3.org/2000/svg" data-name="Layer 1"><path d="m4.001 11c.226 0 .455-.051.67-.159.741-.371 1.041-1.271.671-2.013-.085-.17-.152-.388-.203-.62.394-.066.886-.14 1.457-.214.096.492.26 1.053.556 1.661.363.753 1.277 1.052 2.005.692.745-.362 1.055-1.26.692-2.005-.115-.236-.192-.452-.248-.648 1.304-.097 2.82-.167 4.542-.186.421 2.307 1.87 3.491 4.357 3.491 2.986 0 4.5-1.682 4.5-5s-1.514-5-4.5-5c-2.493 0-3.944 1.189-4.361 3.507-7.039.072-10.839.997-11.003 1.038-.668.167-1.136.767-1.136 1.455 0 .19.019 1.891.658 3.171.263.525.792.83 1.343.83zm14.499-7c.999 0 1.5 0 1.5 2s-.501 2-1.5 2-1.5 0-1.5-2 .501-2 1.5-2zm.829 9.158c-.741.371-1.041 1.271-.671 2.013.085.17.152.388.203.62-.394.066-.886.14-1.457.214-.096-.492-.26-1.053-.556-1.661-.362-.745-1.264-1.054-2.005-.692-.745.363-1.055 1.261-.692 2.005.115.236.192.452.248.648-1.304.097-2.82.167-4.542.186-.421-2.307-1.871-3.491-4.357-3.491-2.986 0-4.5 1.682-4.5 5s1.514 5 4.5 5c2.493 0 3.944-1.189 4.361-3.507 7.04-.072 10.839-.997 11.003-1.038.667-.167 1.136-.767 1.136-1.455 0-.19-.019-1.891-.658-3.171-.37-.741-1.271-1.039-2.013-.671zm-13.829 6.842c-.999 0-1.5 0-1.5-2s.501-2 1.5-2 1.5 0 1.5 2-.501 2-1.5 2z"/></svg>