<svg id="Layer_1" viewBox="0 0 24 24" xmlns="http://www.w3.org/2000/svg" data-name="Layer 1"><path d="m21.937 2.572c-.104-.253-.324-.451-.602-.542-.129-.042-3.232-1.03-9.335-1.03s-9.206.988-9.335 1.03c-.278.091-.498.289-.602.542-.043.106-1.063 2.647-1.063 6.678s1.02 6.571 1.063 6.677c.104.253.324.451.602.542.082.027 1.363.433 3.84.728.226-.376.522-.718.894-.997 1.422-1.064 3.392-.884 4.601.351 1.209-1.233 3.181-1.412 4.599-.351.372.279.669.621.895.998 2.478-.294 3.759-.701 3.841-.728.278-.091.498-.289.602-.542.043-.106 1.063-2.646 1.063-6.677s-1.021-6.572-1.063-6.678zm-11.937 1.428h.5c.552 0 1 .448 1 1s-.448 1-1 1h-.5c-.552 0-1-.448-1-1s.448-1 1-1zm0 4h.5c.552 0 1 .448 1 1s-.448 1-1 1h-.5c-.552 0-1-.448-1-1s.448-1 1-1zm-3.5 6h-.5c-.552 0-1-.448-1-1s.448-1 1-1h.5c.552 0 1 .448 1 1s-.448 1-1 1zm0-4h-.5c-.552 0-1-.448-1-1s.448-1 1-1h.5c.552 0 1 .448 1 1s-.448 1-1 1zm0-4h-.5c-.552 0-1-.448-1-1s.448-1 1-1h.5c.552 0 1 .448 1 1s-.448 1-1 1zm7.5 8h-4c-.552 0-1-.448-1-1s.448-1 1-1h4c.553 0 1 .448 1 1s-.447 1-1 1zm4 0h-.5c-.553 0-1-.448-1-1s.447-1 1-1h.5c.553 0 1 .448 1 1s-.447 1-1 1zm0-4h-4c-.553 0-1-.448-1-1s.447-1 1-1h4c.553 0 1 .448 1 1s-.447 1-1 1zm0-4h-4c-.553 0-1-.448-1-1s.447-1 1-1h4c.553 0 1 .448 1 1s-.447 1-1 1zm-2.3 13.9c-.798 1.063-1.739 2.005-2.8 2.8-.267.2-.583.3-.9.3s-.633-.1-.9-.3c-1.062-.796-2.004-1.738-2.8-2.8-.497-.663-.362-1.603.3-2.1.663-.496 1.604-.362 2.1.3.39.521.825 1.005 1.3 1.447.474-.442.909-.926 1.3-1.447.498-.663 1.438-.796 2.101-.3.662.497.797 1.437.3 2.1z"/></svg>