<svg id="Layer_1" viewBox="0 0 24 24" xmlns="http://www.w3.org/2000/svg" data-name="Layer 1"><path d="m12 11c-.829 0-1.5-.671-1.5-1.5v-4c0-.829.671-1.5 1.5-1.5s1.5.671 1.5 1.5v4c0 .829-.671 1.5-1.5 1.5zm-7 5.5c0-.829-.671-1.5-1.5-1.5h-1c-.829 0-1.5.671-1.5 1.5s.671 1.5 1.5 1.5h1c.829 0 1.5-.671 1.5-1.5zm18 0c0-.829-.672-1.5-1.5-1.5h-1c-.828 0-1.5.671-1.5 1.5s.672 1.5 1.5 1.5h1c.828 0 1.5-.671 1.5-1.5zm-3.439-4.939 1.5-1.5c.586-.585.586-1.536 0-2.121-.586-.586-1.535-.586-2.121 0l-1.5 1.5c-.586.585-.586 1.536 0 2.121.586.586 1.535.586 2.121 0zm-13 0c.586-.585.586-1.536 0-2.121l-1.5-1.5c-.586-.586-1.535-.586-2.121 0-.586.585-.586 1.536 0 2.121l1.5 1.5c.586.586 1.535.586 2.121 0zm10.133 5.849c.502-.659.375-1.6-.284-2.103-.176-.134-1.791-1.307-4.409-1.307s-4.233 1.173-4.409 1.307c-.652.498-.776 1.42-.288 2.08.488.658 1.423.799 2.09.319.04-.029 1-.705 2.607-.705s2.566.676 2.591.693c.653.499 1.598.378 2.103-.284z"/></svg>