<svg id="Layer_1" viewBox="0 0 24 24" xmlns="http://www.w3.org/2000/svg" data-name="Layer 1"><path d="m5.9 10.7c-.521.39-1.005.825-1.447 1.3.442.475.927.91 1.447 1.3.662.497.797 1.438.3 2.1-.5.667-1.443.794-2.101.3-1.061-.796-2.003-1.738-2.8-2.8-.399-.533-.399-1.267 0-1.8.797-1.062 1.739-2.004 2.8-2.8.665-.496 1.604-.363 2.101.3s.362 1.603-.3 2.1zm14.1-2.7c0 .552.447 1 1 1h2v2h-2c-.553 0-1 .448-1 1s.447 1 1 1h2v2h-6c-.553 0-1 .448-1 1s.447 1 1 1h6v2.905c0 .527-.409.964-.935.998-.986.064-2.018.097-3.065.097-6.103 0-9.206-1.079-9.335-1.125-.278-.099-.498-.315-.602-.591-.043-.116-1.063-2.887-1.063-7.284s1.021-7.169 1.063-7.284c.104-.276.323-.492.602-.591.129-.046 3.232-1.125 9.335-1.125 1.048 0 2.079.033 3.065.097.525.034.935.471.935.998v2.905h-2c-.553 0-1 .448-1 1zm-5.5 8c0-.552-.447-1-1-1h-.5c-.553 0-1 .448-1 1s.447 1 1 1h.5c.553 0 1-.448 1-1zm0-4c0-.552-.447-1-1-1h-.5c-.553 0-1 .448-1 1s.447 1 1 1h.5c.553 0 1-.448 1-1zm0-4c0-.552-.447-1-1-1h-.5c-.553 0-1 .448-1 1s.447 1 1 1h.5c.553 0 1-.448 1-1zm4 4c0-.552-.447-1-1-1h-.5c-.553 0-1 .448-1 1s.447 1 1 1h.5c.553 0 1-.448 1-1zm0-4c0-.552-.447-1-1-1h-.5c-.553 0-1 .448-1 1s.447 1 1 1h.5c.553 0 1-.448 1-1z"/></svg>