<?xml version="1.0" encoding="UTF-8"?>
<svg xmlns="http://www.w3.org/2000/svg" id="Layer_1" data-name="Layer 1" viewBox="0 0 24 24">
  <path d="M11.994,1C4.819,1,1,5.106,1,12.019c0,6.859,3.851,10.981,11.006,10.981s10.861-3.737,10.994-11.017c-.122-7.037-4.026-10.983-11.006-10.983Zm-1.772,9.913c-.552,0-1-.448-1-1,0-.837-.373-1.284-.492-1.312-.109,.028-.482,.475-.482,1.312,0,.552-.448,1-1,1s-1-.448-1-1c0-1.857,1.093-3.312,2.487-3.312s2.487,1.455,2.487,3.312c0,.552-.448,1-1,1Zm5.523,6.78c-.01,1.586-.985,2.543-2.61,2.572-.55-.009-1.004-.111-1.383-.303-.492-.25-.688-.853-.438-1.345,.25-.492,.853-.688,1.345-.438,.06,.03,.201,.082,.476,.086,.577-.011,.609-.155,.611-.573-.002-.405-.035-.549-.646-.56-.552-.01-.992-.466-.982-1.018,.01-.543,.435-.984,.989-.982,.604-.012,.636-.157,.639-.572-.002-.405-.035-.549-.646-.56-.217,.004-.356,.049-.429,.086-.494,.251-1.095,.054-1.345-.437-.25-.492-.055-1.094,.437-1.345,.38-.193,.831-.295,1.339-.304,1.658,.028,2.634,.985,2.644,2.561-.004,.649-.165,1.162-.466,1.545,.299,.414,.462,.95,.466,1.587Zm1.008-6.78c-.552,0-1-.448-1-1,0-.837-.374-1.284-.492-1.312-.109,.028-.482,.475-.482,1.312,0,.552-.448,1-1,1s-1-.448-1-1c0-1.857,1.092-3.312,2.487-3.312s2.487,1.455,2.487,3.312c0,.552-.448,1-1,1Z"/>
</svg>
