<svg id="Layer_1" viewBox="0 0 24 24" xmlns="http://www.w3.org/2000/svg" data-name="Layer 1"><path d="m20.964 6.722c.05-.393.067-.815.034-1.291-.215-3.105-1.561-4.431-4.498-4.431-1.745 0-2.95.507-3.791 1.596-.738.955-1.395 1.404-4.209 1.404-5.187 0-7.5 2.313-7.5 7.5 0 3.841 1.273 6.102 4.037 7.019.205.349.748 1.404.975 3.171.102.826.873 1.405 1.679 1.298.821-.105 1.402-.857 1.297-1.679-.116-.906-.303-1.665-.506-2.31h.018c.619 0 1.197-.033 1.738-.098.252.529.604 1.458.775 2.788.102.826.873 1.405 1.679 1.298.821-.105 1.402-.857 1.297-1.679-.18-1.401-.521-2.478-.846-3.255 1.893-1.016 2.826-2.856 2.826-5.555 0-1.71.828-2.046 2.198-2.604.099-.039.268-.108.36-.156.618 1.208 1.814 3.744 2.503 6.502.118.478.574.799 1.058.754.49-.043.876-.437.91-.928.221-3.223-1.772-8.65-2.034-9.347zm-4.464.278c-.828 0-1.5-.672-1.5-1.5s.672-1.5 1.5-1.5 1.5.672 1.5 1.5-.672 1.5-1.5 1.5z"/></svg>