<svg id="Layer_1" viewBox="0 0 24 24" xmlns="http://www.w3.org/2000/svg" data-name="Layer 1"><path d="m23 14.5c0 .477-.336.887-.804.98-.083.017-1.636.32-4.22.455-.117 1.46-.847 2.065-2.476 2.065s-2.359-.605-2.476-2.065c-2.585-.135-4.138-.438-4.22-.455-.467-.094-.804-.504-.804-.98 0-4.602 1.826-6.938 5.86-7.407-.398-2.309-1.723-3.093-4.86-3.093-3.832 0-5 1.147-5 4.912 0 5.348.473 12.416.478 12.486.056.827-.569 1.542-1.396 1.598-.816.06-1.544-.567-1.598-1.395-.005-.072-.485-7.239-.485-12.689.001-5.398 2.543-7.912 8.001-7.912 4.82 0 7.347 1.939 7.885 6.069 4.21.4 6.115 2.734 6.115 7.431z"/></svg>