<svg id="Layer_1" viewBox="0 0 24 24" xmlns="http://www.w3.org/2000/svg" data-name="Layer 1"><path d="m21.943 10.626c.092.5-.206.989-.692 1.137-1.085.331-3.856 1.048-7.751 1.204v6.727c1.234.095 2.077.28 2.36.35.804.199 1.295 1.012 1.096 1.816-.169.683-.781 1.14-1.455 1.14-.77-.068-1.333-.356-3.501-.364-1.756 0-2.923.267-3.14.32-.806.201-1.617-.292-1.816-1.096-.199-.805.292-1.617 1.096-1.816.284-.07 1.126-.256 2.36-.35v-6.727c-3.896-.156-6.667-.873-7.751-1.204-.486-.147-.784-.637-.692-1.137.336-2.756 2.713-8.4 2.742-8.276.125-.26.355-.453.633-.53.12-.033 2.973-.819 6.569-.819s6.449.786 6.569.819c.277.077.508.271.633.53.045-.079 2.395 5.489 2.742 8.276z"/></svg>