<svg id="Layer_1" viewBox="0 0 24 24" xmlns="http://www.w3.org/2000/svg" data-name="Layer 1"><path d="m22.946 6.686c-.192.56-.678 1.744-1.637 3.105.986 1.135.908 2.09-.26 3.259-1.169 1.168-2.124 1.246-3.259.26-1.362.958-2.545 1.444-3.105 1.636-.395.137-.844.009-1.107-.324-.282-.355-.563-.716-.836-1.082-.81-1.093-1.649-2.354-2.495-3.748-.921-1.52-.913-3.364-.03-4.831-.624-.459-1.485-.961-2.217-.961-.491 0-1 0-1 1.5v14.089c1.288.16 2.007.487 2.171.569.741.371 1.041 1.271.671 2.013-.263.525-.793.83-1.343.83-1.063-.11-.72-.458-2.999-.5-1.555 0-2.347.351-2.354.354-.744.335-1.635.022-1.986-.715s-.061-1.615.67-1.98c.164-.082.883-.409 2.171-.569v-14.091c0-2.818 1.495-4.5 4-4.5 1.733 0 3.316 1.005 4.242 1.732.107-.087.21-.175.322-.259 1.518-1.142 3.57-1.23 5.229-.225 1.393.844 2.652 1.684 3.747 2.495.366.272.728.554 1.083.836.331.264.461.707.324 1.107z"/></svg>