<svg id="Layer_1" viewBox="0 0 24 24" xmlns="http://www.w3.org/2000/svg" data-name="Layer 1"><path d="m22.288 12.645c-1.221.367-4.368 1.166-8.788 1.322v3.112c3.011.364 3.488 1.918 3.5 2.909 0 1.255-.456 2.044-.508 2.13-.138.227-.36.39-.618.453-.071.018-1.777.429-3.874.429s-3.802-.411-3.874-.429c-.258-.063-.48-.226-.618-.453-.052-.086-.509-.875-.509-2.119.012-.999.55-2.555 3.5-2.92v-3.113c-4.42-.157-7.567-.955-8.788-1.322-.489-.147-.789-.639-.695-1.141.096-.517.201-1.039.326-1.556.816-3.374 2.29-6.601 2.648-7.361.129-.679.834-.799 2.861-1.142 1.196-.203 3.06-.444 5.147-.444 3.995 0 7.164.86 7.297.896.277.077.508.269.634.527.073.151 1.812 3.747 2.726 7.524.125.517.229 1.038.326 1.555.095.502-.205.995-.694 1.142z"/></svg>