<svg id="Layer_1" viewBox="0 0 24 24" xmlns="http://www.w3.org/2000/svg" data-name="Layer 1"><path d="m12.001 1.006c-4.149 0-6 1.851-6 6 0 3.908 4.791 8.265 5.337 8.749.189.167.426.251.663.251s.474-.084.663-.251c.546-.484 5.337-4.841 5.337-8.749 0-4.149-1.851-6-6-6zm0 8c-1.429 0-2-.571-2-2s.571-2 2-2 2 .571 2 2-.571 2-2 2zm10.625 7.777c-.355.327-2.231 2.012-4.556 3.404-2.515 1.507-5.582 2.69-5.711 2.74-.115.044-.237.066-.358.066s-.243-.022-.358-.066c-.129-.05-3.196-1.233-5.711-2.74-2.287-1.37-4.138-3.022-4.537-3.387-.205-.156-.344-.39-.382-.652v-.007c-.054-.367.102-.728.392-.944.397-.362 2.089-1.86 4.207-3.176 1.557 2.614 3.772 4.673 4.406 5.235.549.484 1.254.751 1.985.751s1.437-.267 1.99-.754c.631-.56 2.845-2.618 4.401-5.232 2.134 1.326 3.836 2.838 4.215 3.185.205.156.345.39.382.652.051.354-.092.706-.364.925z"/></svg>