<?xml version="1.0" encoding="UTF-8"?>
<svg xmlns="http://www.w3.org/2000/svg" id="Layer_1" data-name="Layer 1" viewBox="0 0 24 24">
  <path d="M7.864,12.975c1.331,0,2.484,.855,2.871,2.128-.022,.01,.24,.17,1.266,.17s1.288-.16,1.299-.167c.354-1.276,1.507-2.132,2.838-2.132,0,0,5.954,.001,5.999,.003,.015-.374,.023-.746,.023-1.116,0-4.46-1.059-7.748-1.104-7.886-.105-.322-.367-.57-.695-.656-.158-.042-3.916-1.017-8.359-1.017S3.8,3.278,3.642,3.32c-.33,.086-.593,.335-.697,.66-.045,.139-1.103,3.459-1.103,7.882,0,.37,.008,.742,.022,1.116,.045-.002,5.999-.003,5.999-.003Z"/>
  <path d="M22.746,15.309c-.189-.212-.461-.334-.746-.334h-5.863c-.44,0-.829,.288-.957,.709-.343,1.129-1.264,1.589-3.18,1.589s-2.837-.46-3.18-1.589c-.128-.421-.517-.709-.957-.709H2c-.285,0-.556,.122-.746,.333-.189,.212-.279,.496-.248,.779,.303,2.682,.842,3.898,.864,3.991,.093,.378,.396,.668,.777,.743,.182,.036,4.486,.876,9.354,.876s9.17-.84,9.351-.876c.383-.075,.687-.366,.778-.745,.022-.093,.561-1.322,.863-3.988,.032-.283-.058-.567-.247-.779Z"/>
</svg>
