<?xml version="1.0" encoding="UTF-8"?>
<svg xmlns="http://www.w3.org/2000/svg" id="Layer_1" data-name="Layer 1" viewBox="0 0 24 24">
  <path d="M12,1C9.139,1,1.537,1,1.537,9.037c0,1.959,.456,3.571,1.357,4.82-.768,.793-1.357,1.99-1.357,3.794,0,2.029,.763,4.599,4.396,5.321,.099,.02,.197,.029,.294,.029,.701,0,1.328-.494,1.47-1.208,.162-.812-.366-1.602-1.179-1.764-1.481-.294-1.981-.895-1.981-2.379,0-.875,.193-1.385,.516-1.716,.414,.792,1.115,1.376,1.975,1.643,.339,.105,.695,.15,1.054,.15,.971,0,1.966-.326,2.722-.654,.564,0,1.195,0,1.195,0,2.861,0,10.463,0,10.463-8.036S14.861,1,12,1Zm-.071,13.072c-.564-1.024-1.548-2.412-2.894-2.829-1.327-.413-2.725,.039-3.571,1.033-.506-.612-.926-1.587-.926-3.24,0-3.109,1.249-5.037,7.463-5.037s7.463,1.847,7.463,5.037c0,3.098-1.38,5.021-7.534,5.036Z"/>
</svg>
