<svg id="Layer_1" viewBox="0 0 24 24" xmlns="http://www.w3.org/2000/svg" data-name="Layer 1"><path d="m15 16.5c0 .829-.671 1.5-1.5 1.5h-1.533c-1.868 0-3.388-.256-4.648-.782-.131-.055-.246-.131-.352-.215-.777.035-1.573.007-2.393-.158-.375.627-.574 1.26-.574 1.886 0 1.076.949 1.257 1.515 1.269.822.018 1.485.694 1.477 1.516-.009.822-.669 1.484-1.492 1.484-1.809 0-4.5-1.137-4.5-4.269 0-1.27.427-2.544 1.2-3.721-.116-.34-.182-.715-.182-1.132 0-1.095.409-1.917 1.136-2.397-.092-.619-.154-1.271-.154-1.981 0-5.72 2.933-8.5 8.967-8.5h2.066c6.034 0 8.967 2.78 8.967 8.5 0 1.318-.152 2.446-.465 3.447-.245.798-1.11 1.232-1.879.984-.791-.247-1.231-1.088-.984-1.879.218-.698.328-1.557.328-2.553 0-4.009-1.617-5.5-5.967-5.5h-2.066c-4.35 0-5.967 1.491-5.967 5.5 0 .632.055 1.196.143 1.712.678.261 1.082.716 1.344 1.092.358.513.657 1.406.855 2.106.044.014.089.022.132.04.875.365 2.05.55 3.493.55h1.533c.829 0 1.5.671 1.5 1.5zm7.245 1.998-1.356-.387-.387-1.356c-.288-1.007-1.715-1.007-2.003 0l-.387 1.356-1.356.387c-1.007.288-1.007 1.715 0 2.003l1.356.387.387 1.356c.288 1.007 1.715 1.007 2.003 0l.387-1.356 1.356-.387c1.007-.288 1.007-1.715 0-2.003zm-5.892-9.357-1.162-.332-.332-1.162c-.247-.863-1.47-.863-1.717 0l-.332 1.162-1.162.332c-.863.247-.863 1.47 0 1.717l1.162.332.332 1.162c.247.863 1.47.863 1.717 0l.332-1.162 1.162-.332c.863-.247.863-1.47 0-1.717z"/></svg>