<?xml version="1.0" encoding="UTF-8"?>
<svg xmlns="http://www.w3.org/2000/svg" id="Layer_1" data-name="Layer 1" viewBox="0 0 24 24">
  <path d="M11.994,1C4.819,1,1,5.106,1,12.019c0,6.859,3.851,10.981,11.006,10.981s10.861-3.737,10.994-11.017c-.122-7.037-4.026-10.983-11.006-10.983ZM6.087,9.708c0-.552,.448-1,1-1h2.037c.552,0,1,.448,1,1s-.448,1-1,1h-2.037c-.552,0-1-.448-1-1Zm10.473,5.205c-.037,1.033-.518,2.035-1.428,2.977-1.024,.988-2.088,1.48-3.143,1.48-1.051,0-2.093-.489-3.08-1.464-.95-.962-1.442-1.97-1.47-3.004-.008-.29,.111-.569,.325-.765,.213-.196,.499-.289,.791-.255,1.236,.145,2.395,.219,3.444,.219,1.058,0,2.217-.073,3.443-.217,.294-.034,.581,.061,.794,.258,.214,.198,.332,.479,.322,.771Zm-.659-3.292h-.013c-1.236-.008-1.989-.717-2.012-1.898,.024-1.215,.777-1.92,2.015-1.927,1.229,.007,1.999,.735,2.022,1.899-.024,1.214-.776,1.919-2.012,1.927Z"/>
</svg>
