<svg id="Layer_1" viewBox="0 0 24 24" xmlns="http://www.w3.org/2000/svg" data-name="Layer 1"><path d="m19 15c1.429 0 2 .571 2 2s-.571 2-2 2-2-.571-2-2 .571-2 2-2zm-7-10c1.429 0 2-.571 2-2s-.571-2-2-2-2 .571-2 2 .571 2 2 2zm10.862 16.493c-.463-.787-1.312-1.312-2.271-1.404-1.207-.117-2.473-.117-3.682 0-.524.05-1.017.23-1.43.512-.438-.283-.957-.463-1.512-.513-1.293-.117-2.646-.117-3.936 0-.554.05-1.074.229-1.511.513-.414-.281-.905-.462-1.43-.512-1.209-.117-2.476-.117-3.681 0-.961.092-1.811.617-2.272 1.405-.181.31-.183.692-.005 1.003.178.312.509.503.868.503h20c.358 0 .689-.192.868-.503.178-.312.176-.694-.006-1.004zm-17.862-2.493c1.429 0 2-.571 2-2s-.571-2-2-2-2 .571-2 2 .571 2 2 2zm5-2c0 1.429.571 2 2 2s2-.571 2-2-.571-2-2-2-2 .571-2 2zm-2-7.963v5.068c.198.207.36.449.5.711.625-1.167 1.819-1.817 3.5-1.817s2.875.649 3.5 1.817c.14-.262.302-.503.5-.711v-5.069c.624-.385 2.868-1.919 4.342-4.866.37-.741.07-1.642-.671-2.013-.74-.369-1.642-.07-2.013.671-.916 1.832-2.229 2.945-2.879 3.416-.67-.103-1.782-.245-2.779-.245s-2.108.143-2.778.245c-.653-.474-1.965-1.587-2.88-3.416-.372-.741-1.272-1.04-2.013-.671-.741.371-1.041 1.271-.671 2.013 1.474 2.948 3.719 4.482 4.342 4.866z"/></svg>