<svg id="Layer_1" viewBox="0 0 24 24" xmlns="http://www.w3.org/2000/svg" data-name="Layer 1"><path d="m11.961 8c-1.362 0-2.359-.153-2.967-.285-.418-.091-.733-.429-.786-.853-.079-.633-.248-2.366-.247-3.701 0-1.24 0-2.157.718-2.157.641 0 1.462 1.382 1.872 2.1.342-1.033.93-2.103 1.43-2.103s1.107 1.09 1.43 2.103c.41-.718 1.231-2.1 1.872-2.1.718 0 .718.918.718 2.157.001 1.335-.168 3.069-.247 3.701-.053.424-.368.763-.786.853-.602.133-1.659.29-3.007.285zm-9.898 13.285c.104.275.324.492.602.591.097.034 1.872.651 5.335.956v-2.832h-6.313c.195.788.36 1.24.377 1.285zm4.127-14.25c-.042-.408-.076-1.013-.105-1.646-2.198.314-3.342.708-3.419.735-.278.099-.498.315-.602.591-.017.045-.182.497-.377 1.285h4.772c-.139-.298-.234-.622-.269-.965zm15.747-.32c-.104-.275-.324-.492-.602-.591-.077-.027-1.208-.417-3.382-.73-.03.734-.07 1.371-.113 1.713-.039.315-.127.615-.257.893h4.73c-.195-.788-.36-1.24-.377-1.285zm-11.937 6.285h12.98c-.041-1.136-.145-2.143-.275-3h-12.705zm-8.705 5h6.705v-3h-6.98c.041 1.136.145 2.143.275 3zm8.705 0h12.705c.13-.857.234-1.864.275-3h-12.98zm0 4.958c.628.026 1.292.042 2 .042 6.102 0 9.206-1.078 9.335-1.124.278-.099.498-.315.602-.591.017-.045.182-.497.377-1.285h-12.313v2.958zm-8.98-9.958h6.98v-3h-6.705c-.13.857-.234 1.864-.275 3z"/></svg>