<svg id="Layer_1" viewBox="0 0 24 24" xmlns="http://www.w3.org/2000/svg" data-name="Layer 1"><path d="m23 20.136v1.864c0 .553-.448 1-1 1h-12.991c-.302 0-.587-.137-.777-.371s-.264-.542-.201-.838c.137-.643.239-1.196.24-1.202.074-.405.39-.724.794-.802.043-.008.343-.065.845-.143-.044-.383-.193-1.385-.65-2.5-.969-.138-2.06-.15-3.26-.148v4.504c0 .828-.671 1.5-1.5 1.5s-1.5-.672-1.5-1.5v-4.669c-.531-.09-.863-.183-.889-.191-.372-.107-.648-.421-.709-.803-.017-.103-.401-2.534-.401-4.837 0-2.358.408-3.857.425-3.92.102-.368.404-.646.779-.716.074-.015 1.82-.339 3.296-.339.919 0 1.943.126 2.603.224.798-.336 2.619-1.258 4.245-3.21.531-.637 1.476-.723 2.113-.192.636.53.722 1.477.192 2.112-2.189 2.626-4.662 3.779-5.663 4.166-.029 2.268-.116 3.884-.201 4.961.627.051 1.243.124 1.836.257.434.098.802.383 1.005.778.891 1.737 1.172 3.427 1.257 4.148 1.503-.148 3.348-.27 5.368-.27 1.229 0 2.512.047 3.816.139.523.036.93.472.93.997zm-5.352-15.277 1.162.332.332 1.162c.247.863 1.47.863 1.717 0l.332-1.162 1.162-.332c.863-.247.863-1.47 0-1.717l-1.162-.332-.332-1.162c-.247-.863-1.47-.863-1.717 0l-.332 1.162-1.162.332c-.863.247-.863 1.47 0 1.717zm-12.148.141c1.429 0 2-.571 2-2s-.571-2-2-2-2 .571-2 2 .571 2 2 2zm6.302 4.672c-.733.386-1.016 1.292-.63 2.025.387.74 1.307 1.012 2.026.631 1.182-.621 2.923-1.808 4.505-3.933.495-.664.357-1.604-.308-2.099-.663-.494-1.604-.357-2.099.308-1.311 1.761-2.752 2.678-3.495 3.067z"/></svg>