<svg id="Layer_1" viewBox="0 0 24 24" xmlns="http://www.w3.org/2000/svg" data-name="Layer 1"><path d="m15.002 11.158c0 2.078-2.064 3.602-2.999 4.186-.932-.587-3.002-2.123-3.002-4.186 0-.64.449-1.16 1-1.16.498 0 1 .309 1 1 0 .552.448 1 1 1s1-.448 1-1c0-.691.503-1 1-1 .551 0 1 .521 1 1.16zm3.915 7.081c-2.189 2.463-4.309 3.755-6.484 3.755-1.893 0-3.774-.778-5.801-2.504l-3.071 3.071c-.586.586-1.535.586-2.121 0s-.586-1.536 0-2.121l3.07-3.07c-1.731-2.019-2.559-3.928-2.503-5.802.063-2.174 1.292-4.295 3.755-6.484 4.543-4.04 14.88-4.936 16.486-3.332 1.605 1.605.708 11.943-3.331 16.487zm-1.914-7.081c0-1.743-1.346-3.161-3-3.161-.782 0-1.477.27-2 .727-.523-.457-1.218-.727-2-.727-1.655 0-3 1.418-3 3.161 0 3.914 4.367 6.142 4.553 6.235.141.07.294.105.447.105s.307-.035.447-.105c.186-.093 4.553-2.322 4.553-6.235z"/></svg>