<svg id="Layer_1" viewBox="0 0 24 24" xmlns="http://www.w3.org/2000/svg" data-name="Layer 1"><path d="m21.48 6.865c.988-1.341 1.495-2.947 1.51-4.788-.001-.548-.426-1.011-1.007-1.007-1.841.015-3.447.522-4.788 1.51-.48-.576-1.06-1.043-1.734-1.396-.329-.172-.726-.147-1.032.064-1.163.805-2.186 2.016-3.092 3.667-.27-.68-.613-1.336-1.011-1.914-.227-.331-.631-.491-1.026-.411-.814.169-1.444.346-2.048.673-.448-.374-.964-.725-1.56-1.063-.468-.279-1.123-.09-1.372.394-.377.699-.668 1.391-.881 2.101-.616.115-1.212.273-1.699.408-.463.13-.769.571-.726 1.051.211 2.374.795 4.465 1.737 6.227-.79.838-1.359 1.803-1.695 2.877-.133.423.03.883.399 1.13.946.631 1.857 1.058 2.764 1.334l-2.77 2.77c-.585.585-.585 1.534 0 2.119s1.534.585 2.119 0l2.77-2.77c.276.907.703 1.818 1.334 2.764.246.372.714.531 1.13.399 1.074-.337 2.039-.905 2.877-1.695 1.763.943 3.853 1.526 6.227 1.737.478.04.921-.264 1.051-.727.136-.487.293-1.085.408-1.698.71-.213 1.403-.504 2.101-.881.484-.249.673-.904.394-1.372-.338-.596-.689-1.112-1.063-1.56.326-.604.503-1.234.673-2.048.082-.394-.08-.798-.411-1.026-.578-.398-1.234-.741-1.914-1.011 1.651-.907 2.862-1.929 3.667-3.092.212-.305.237-.703.064-1.032-.353-.675-.821-1.255-1.396-1.734zm-7.774 4.902-4.996 4.996c-.39.39-1.023.39-1.413 0s-.39-1.023 0-1.413l4.996-4.996c.39-.39 1.023-.39 1.413 0s.39 1.023 0 1.413z"/></svg>