<svg id="Layer_1" viewBox="0 0 24 24" xmlns="http://www.w3.org/2000/svg" data-name="Layer 1"><path d="m11.985 21.689c-.106.748-.749 1.288-1.483 1.288-1.411-.167-2.81-.326-4.002-.31-1.142 0-2.417.099-3.789.295-.821.107-1.58-.454-1.696-1.273-.107-.752.366-1.447 1.076-1.649.121-1.179.327-1.896.339-1.938.1-.333.366-.591.702-.68.051-.013.957-.25 2.099-.372-.396-.713-.732-1.488-.732-2.073 0-1.429.571-2 2-2s2 .571 2 2c0 .585-.336 1.36-.732 2.073 1.142.123 2.049.359 2.099.372.336.089.603.347.702.68.012.042.218.759.339 1.938.711.202 1.184.897 1.076 1.649zm5.015-6.712c-.878 0-1 .121-1 1s.122 1 1 1 1-.121 1-1-.122-1-1-1zm6-2.978c-.003 5.049-.932 9.041-.971 9.208-.084.359-.36.643-.717.737-.157.041-3.852 1.006-7.663 1.031.15-.313.266-.645.317-1.003.176-1.231-.32-2.4-1.203-3.154-.121-.736-.25-1.199-.276-1.289-.288-.965-1.064-1.722-2.04-2.011.027-.182.055-.365.055-.541 0-2.542-1.458-4-4-4-1.016 0-1.85.243-2.496.685.043-4.885.929-8.705.967-8.869.084-.359.36-.643.717-.737.159-.042 3.948-1.033 7.812-1.033s7.652.991 7.812 1.033c.357.095.633.378.717.737.04.167.968 4.159.971 9.205zm-15-6.022c0 .553.448 1 1 1h9c.552 0 1-.447 1-1s-.448-1-1-1h-9c-.552 0-1 .447-1 1zm6 5c.552 0 1-.447 1-1s-.448-1-1-1h-5c-.552 0-1 .447-1 1s.448 1 1 1zm6 5c0-1.99-1.009-3-3-3s-3 1.01-3 3 1.009 3 3 3 3-1.01 3-3z"/></svg>