<?xml version="1.0" encoding="UTF-8"?>
<svg xmlns="http://www.w3.org/2000/svg" id="Layer_1" data-name="Layer 1" viewBox="0 0 24 24">
  <path d="M22.195,6.692c.975-1.398,.844-3.349-.394-4.598-1.202-1.214-3.223-1.37-4.585-.397C11.964,.232,7.374,1.121,4.274,4.213,1.136,7.345,.252,11.981,1.776,17.29c-.978,1.398-.848,3.352,.391,4.603,1.202,1.213,3.222,1.37,4.583,.398,1.67,.469,3.271,.701,4.779,.701,3.247,0,6.055-1.076,8.164-3.18,3.186-3.178,4.07-7.83,2.503-13.12Zm-8.771,7.589c-.828,0-1.5-.672-1.5-1.5s.672-1.5,1.5-1.5,1.5,.672,1.5,1.5-.672,1.5-1.5,1.5Zm3.283,3.707c-.828,0-1.5-.672-1.5-1.5s.672-1.5,1.5-1.5,1.5,.672,1.5,1.5-.672,1.5-1.5,1.5Zm1.492-4.672c-.828,0-1.5-.672-1.5-1.5s.672-1.5,1.5-1.5,1.5,.672,1.5,1.5-.672,1.5-1.5,1.5Z"/>
</svg>
