<svg id="Layer_1" viewBox="0 0 24 24" xmlns="http://www.w3.org/2000/svg" data-name="Layer 1"><path d="m20.941 21.917c-.19.656-.79 1.083-1.44 1.083-1.688-.322-3.799-1.016-7.5-1-3.332 0-5.868.59-7.083.941-.798.229-1.627-.229-1.857-1.024-.23-.796.229-1.628 1.024-1.858 1.368-.396 4.215-1.059 7.917-1.059s6.549.663 7.917 1.059c.796.23 1.254 1.062 1.024 1.858zm-1.562-3.922c.814.07 1.553-.546 1.617-1.374.067-.825-.548-1.549-1.374-1.616-5.843-.475-10.662-3.768-12.831-5.505 2.17-1.737 6.988-5.03 12.831-5.505.826-.067 1.44-.791 1.374-1.616-.067-.826-.79-1.434-1.617-1.374-9.066.736-15.657 7.155-15.933 7.428-.285.282-.446.666-.446 1.067s.161.785.446 1.067c.276.272 6.868 6.691 15.933 7.428z"/></svg>