<?xml version="1.0" encoding="UTF-8"?>
<svg xmlns="http://www.w3.org/2000/svg" id="Layer_1" data-name="Layer 1" viewBox="0 0 24 24">
  <path d="M8.616,5.447c-.53-.406-1.265-.412-1.803-.018-.347,.255-3.453,2.749-5.764,11.552-.21,.801,.269,1.622,1.07,1.832,.803,.212,1.622-.269,1.832-1.07,.214-.813,.433-1.565,.656-2.259h6.191c.223,.694,.442,1.445,.656,2.259,.177,.674,.784,1.12,1.45,1.12,.126,0,.254-.016,.382-.05,.801-.21,1.28-1.03,1.07-1.832-2.279-8.684-5.392-11.269-5.739-11.535Zm-2.895,7.038c.746-1.73,1.453-2.881,1.981-3.605,.529,.725,1.236,1.876,1.982,3.605h-3.962Z"/>
  <path d="M21.5,10.878c-.302,0-.583,.089-.818,.243-.459-.154-1.006-.243-1.658-.243-3.458,0-3.975,2.501-3.975,3.992s.517,3.993,3.975,3.993c.652,0,1.199-.089,1.658-.243,.235,.153,.516,.243,.818,.243,.828,0,1.5-.671,1.5-1.5v-4.985c0-.829-.672-1.5-1.5-1.5Zm-2.476,5.492c-1.329,0-1.499-.055-1.499-1.5,0-1.5,.2-1.5,1.499-1.5,1.331,0,1.501,.055,1.501,1.5,0,1.5-.2,1.5-1.501,1.5Z"/>
</svg>
