<?xml version="1.0" encoding="UTF-8"?>
<svg xmlns="http://www.w3.org/2000/svg" id="Layer_1" data-name="Layer 1" viewBox="0 0 24 24">
  <path d="M19.921,15.072c-.745-.359-1.643-.049-2.003,.698-.535,1.108-1.113,1.951-1.651,2.586,.04-2.997,.07-8.824-.212-12.586-.153-2.051-1.558-3.798-3.494-4.348-2.477-.704-6.148-.455-8.268,.19-.792,.242-1.238,1.08-.996,1.873,.242,.792,1.079,1.24,1.873,.996,1.637-.5,4.739-.697,6.571-.174,.731,.207,1.263,.885,1.323,1.686,.273,3.65,.24,9.514,.201,12.435-.555-.643-1.156-1.508-1.712-2.658-.361-.746-1.258-1.06-2.003-.698-.746,.36-1.058,1.257-.698,2.003,2.121,4.389,4.988,5.678,5.308,5.811,.184,.076,.38,.114,.576,.114,.189,0,.378-.036,.557-.107,.319-.128,3.181-1.377,5.327-5.817,.36-.746,.048-1.643-.698-2.003Z"/>
</svg>
