<svg id="Layer_1" viewBox="0 0 24 24" xmlns="http://www.w3.org/2000/svg" data-name="Layer 1"><path d="m12 18c-2.116-.014-4.202-.718-4.298-.754-2.145-.865-4.702-2.911-4.702-7.746 0-.508.038-.988.096-1.455l9.899 9.899c-.33.032-.663.056-.994.056zm0 2c-1.454 0-2.911-.3-3.855-.543.031.312.062.626.104.911.191 1.3 1.196 2.317 2.501 2.531.413.067.833.102 1.25.102.409 0 .819-.033 1.217-.096 1.227-.196 2.179-1.103 2.449-2.288l-.915-.915c-.822.162-1.782.299-2.751.299zm10.561.439-4.321-4.321c1.497-1.202 2.761-3.219 2.761-6.618 0-5.402-3.28-8.5-9-8.5-2.863 0-5.096.795-6.629 2.25l-1.81-1.81c-.586-.586-1.535-.586-2.121 0-.586.585-.586 1.536 0 2.121l18.998 19c.586.586 1.535.586 2.121 0 .586-.585.586-1.536 0-2.121z"/></svg>