<svg id="Layer_1" viewBox="0 0 24 24" xmlns="http://www.w3.org/2000/svg" data-name="Layer 1"><path d="m16.332 2.555.298-.667c.339-.756 1.225-1.096 1.981-.758s1.096 1.225.759 1.981l-.298.667c-.339.763-1.243 1.093-1.981.758-.757-.338-1.096-1.225-.759-1.981zm3.607 4.505c.586.586 1.535.586 2.121 0l.5-.5c.586-.585.586-1.536 0-2.121-.586-.586-1.535-.586-2.121 0l-.5.5c-.586.585-.586 1.536 0 2.121zm.129 11.264c-1.586-.148-4.272-.324-8.068-.324s-6.482.176-8.069.324c-1.659.156-2.919 1.502-2.931 3.176 0 .344.038.936 1.051 1.09 1.736.183 4.446.41 9.949.41s8.277-.201 10.013-.385c.936-.141.987-.772.987-1.115-.012-1.63-1.271-3.02-2.932-3.176zm-18.129-11.263c.586.586 1.535.586 2.121 0 .586-.585.586-1.536 0-2.121l-.5-.5c-.586-.586-1.535-.586-2.121 0-.586.585-.586 1.536 0 2.121zm2.988-3.282c.339.764 1.243 1.093 1.981.758.757-.338 1.096-1.225.759-1.981l-.298-.667c-.339-.756-1.226-1.096-1.981-.758-.757.338-1.096 1.225-.759 1.981zm7.072 1.221c5.532 0 8 2.467 8 8v3.311c-1.653-.147-4.312-.311-8-.311s-6.346.164-8 .311v-3.311c0-5.533 2.468-8 8-8zm-4.038 6.961c0 .552.447 1 1 1s1-.448 1-1c0-.878.121-1 1-1 .553 0 1-.448 1-1s-.447-1-1-1c-1.99 0-3 1.009-3 3z"/></svg>