<svg id="Layer_1" viewBox="0 0 24 24" xmlns="http://www.w3.org/2000/svg" data-name="Layer 1"><path d="m14.245 7.211c-1.562-.28-2.923-.28-4.489 0-.109 1.015-.216 2.325-.251 3.789h4.99c-.035-1.47-.14-2.778-.25-3.789z"/><path d="m3.948 21.087c.08.328.321.594.64.706.14.049 3.474 1.207 7.412 1.207s7.271-1.158 7.411-1.207c.32-.112.562-.379.641-.708.039-.16.948-3.981.948-9.084 0-5.146-.91-8.929-.948-9.087-.08-.328-.321-.594-.64-.706-.14-.049-3.474-1.207-7.412-1.207s-7.271 1.158-7.411 1.207c-.32.112-.562.379-.641.708-.039.16-.948 3.981-.948 9.084 0 5.146.91 8.929.948 9.087zm3.906-14.836c.052-.418.361-.759.772-.852 1.175-.265 2.31-.399 3.373-.399s2.2.134 3.375.399c.411.093.721.434.772.852.238 1.913.359 3.847.359 5.749 0 2.361-.197 4.43-.362 5.749-.053.418-.361.759-.771.852-2.348.53-4.398.53-6.748 0-.411-.093-.721-.434-.772-.852-.238-1.914-.359-3.848-.359-5.749 0-1.891.121-3.825.361-5.749z"/><path d="m9.624 15.37c.735.115 1.543.194 2.376.194s1.64-.079 2.375-.194c.055-.719.1-1.518.12-2.37h-4.989c.019.782.058 1.578.119 2.37z"/></svg>