<svg id="Layer_1" viewBox="0 0 24 24" xmlns="http://www.w3.org/2000/svg" data-name="Layer 1"><path d="m22.561 6.561-.5.5c-.586.586-1.535.586-2.121 0-.586-.585-.586-1.536 0-2.121l.5-.5c.586-.586 1.535-.586 2.121 0 .586.585.586 1.536 0 2.121zm-5.47-2.024c.739.336 1.642.006 1.981-.758l.298-.667c.337-.757-.002-1.644-.759-1.981-.755-.339-1.643.002-1.981.758l-.298.667c-.337.757.002 1.644.759 1.981zm-13.03.402-.5-.5c-.586-.586-1.535-.586-2.121 0-.586.585-.586 1.536 0 2.121l.5.5c.586.586 1.535.586 2.121 0 .586-.585.586-1.536 0-2.121zm.866-1.161c.338.764 1.242 1.094 1.981.759.756-.337 1.097-1.224.759-1.981l-.297-.667c-.337-.757-1.222-1.096-1.981-.759-.756.337-1.097 1.224-.759 1.981zm7.073 1.222c-4.767 0-7.5 2.585-7.5 7.094 0 2.764 1.079 4.811 3.037 5.976.863.324 2.134.724 3.463.872v-5.078c-.566-.213-1.134-.584-1.707-1.157-.391-.391-.391-1.023 0-1.414s1.023-.391 1.414 0c1.033 1.033 1.553 1.033 2.586 0 .391-.391 1.023-.391 1.414 0s.391 1.023 0 1.414c-.573.573-1.141.944-1.707 1.157v5.079c1.322-.145 2.583-.539 3.442-.86 1.971-1.162 3.058-3.213 3.058-5.989 0-4.508-2.733-7.094-7.5-7.094zm-2.861 15.645c.029.181.06.362.092.578.127.859.78 1.535 1.635 1.681.633.122 1.592.125 2.231.006.854-.141 1.518-.817 1.642-1.673.031-.216.063-.401.093-.582-.88.201-1.85.345-2.826.345-.989 0-1.974-.148-2.867-.355z"/></svg>