<svg id="Layer_1" viewBox="0 0 24 24" xmlns="http://www.w3.org/2000/svg" data-name="Layer 1"><path d="m4.961 12.076c-.678-.225-.961-.494-.961-1.576 0-.829-.671-1.5-1.5-1.5s-1.5.671-1.5 1.5c0 2.271 1.015 3.76 3.017 4.424.157.052 1.366.353 1.896-.952.312-.767-.166-1.635-.952-1.896z"/><path d="m12.745 18.02c-1.427-.236-2.489-1.309-2.771-2.799-.154-.814-.935-1.352-1.752-1.195-.814.154-1.349.938-1.195 1.752.515 2.719 2.567 4.761 5.229 5.201.083.014 1.423.164 1.725-1.235.175-.81-.418-1.589-1.235-1.725z"/><path d="m22.561 20.439-1.403-1.403c1.224-1.196 1.843-2.925 1.843-5.165 0-1.281-.302-2.362-.899-3.214-.476-.677-1.409-.844-2.089-.368-.678.476-.843 1.411-.368 2.089.233.332.356.848.356 1.492 0 1.659-.419 2.53-.961 3.046l-3.199-3.199c.773-.876 1.193-2.108 1.193-3.59 0-3.252-1.396-7.128-8.049-7.128-1.316 0-2.442.144-3.426.437l-1.998-1.998c-.586-.586-1.535-.586-2.121 0-.586.585-.586 1.536 0 2.121l18.999 19.002c.293.293 1.231.822 2.121 0 .608-.562.586-1.536 0-2.121zm-8.862-8.861-5.551-5.551c.266-.017.545-.026.837-.026 4.437 0 5.049 1.984 5.049 4.128 0 .63-.112 1.114-.334 1.449z"/></svg>