<svg id="Layer_1" viewBox="0 0 24 24" xmlns="http://www.w3.org/2000/svg" data-name="Layer 1"><path d="m13.5 7c-1.892 0-4.028-.081-4.97-.187-.174-.02-.339-.084-.48-.188-.04-.029-.995-.739-1.882-2.07-.224-.336-.224-.773 0-1.109.887-1.332 1.842-2.041 1.882-2.07.141-.104.306-.168.48-.188.941-.106 3.078-.187 4.97-.187 2.54 0 5.383.393 5.503.41.412.058.746.364.837.771.016.072.16.74.16 1.82s-.144 1.748-.16 1.82c-.092.406-.425.713-.837.771-.12.017-2.963.41-5.503.41zm0 0c-1.892 0-4.028-.081-4.97-.187-.174-.02-.339-.084-.48-.188-.04-.029-.995-.739-1.882-2.07-.224-.336-.224-.773 0-1.109.887-1.332 1.842-2.041 1.882-2.07.141-.104.306-.168.48-.188.941-.106 3.078-.187 4.97-.187 2.54 0 5.383.393 5.503.41.412.058.746.364.837.771.016.072.16.74.16 1.82s-.144 1.748-.16 1.82c-.092.406-.425.713-.837.771-.12.017-2.963.41-5.503.41zm-11-4.5c-1.071 0-1.5.429-1.5 1.5s.429 1.5 1.5 1.5 1.5-.429 1.5-1.5-.429-1.5-1.5-1.5zm10 20.5c-2.037 0-3.112-.09-3.97-.187-.174-.02-.339-.084-.48-.188-.04-.029-.995-.739-1.882-2.07-.224-.336-.224-.773 0-1.109.887-1.332 1.842-2.041 1.882-2.07.141-.104.306-.168.48-.188.858-.097 1.933-.187 3.97-.187 2.059 0 4.476.396 4.578.414.43.071.765.413.826.845.004.027.096.683.096 1.742s-.092 1.714-.096 1.742c-.062.432-.396.773-.826.845-.102.017-2.519.414-4.578.414zm2.5-8c-1.903 0-5.558-.084-6.47-.187-.174-.02-.339-.084-.48-.188-.04-.029-.995-.739-1.882-2.07-.224-.336-.224-.773 0-1.109.887-1.332 1.842-2.041 1.882-2.07.141-.104.306-.168.48-.188.912-.103 4.567-.187 6.47-.187 3.329 0 6.735.39 6.878.407.367.042.681.283.816.627.031.079.306.81.306 1.966s-.274 1.887-.306 1.966c-.135.344-.449.584-.816.627-.143.017-3.55.407-6.878.407zm-12.5-4.5c-1.071 0-1.5.429-1.5 1.5s.429 1.5 1.5 1.5 1.5-.429 1.5-1.5-.429-1.5-1.5-1.5zm0 8c-1.071 0-1.5.429-1.5 1.5s.429 1.5 1.5 1.5 1.5-.429 1.5-1.5-.429-1.5-1.5-1.5z"/></svg>