<svg id="Layer_1" viewBox="0 0 24 24" xmlns="http://www.w3.org/2000/svg" data-name="Layer 1"><path d="m15.887 7.309c.586.586.586 1.534 0 2.12s-1.534.586-2.12 0c-1.437-1.437-2.097-1.437-3.534 0-.586.586-1.534.586-2.12 0s-.586-1.534 0-2.12c2.616-2.616 5.158-2.616 7.773 0zm-8.48-.708c3.434-3.433 5.752-3.433 9.187 0 .585.586 1.535.586 2.12 0 .586-.586.586-1.534 0-2.12-4.644-4.641-8.784-4.641-13.427 0-.586.586-.586 1.534 0 2.12s1.534.586 2.12 0zm15.586 9.403c0 3.341-.78 5.459-.813 5.548-.116.308-.377.541-.697.619-.137.034-3.435.829-9.483.829s-9.346-.794-9.483-.829c-.321-.078-.581-.31-.697-.619-.033-.089-.813-2.208-.813-5.548s.78-5.459.813-5.548c.116-.308.377-.541.697-.619.079-.02 1.211-.291 3.308-.518.157.557.438 1.085.875 1.522 1.321 1.321 3.625 1.321 4.946 0 .146-.146.263-.254.354-.333.091.079.207.186.354.333.661.661 1.539 1.025 2.473 1.025s1.812-.364 2.473-1.025c.437-.437.719-.966.875-1.522 2.096.227 3.229.498 3.307.518.321.078.581.31.697.619.033.089.813 2.208.813 5.548zm-15.533 3.127c-.058-.411-.441-.696-.846-.639-.38.054-.707.048-.948.027-.069-.573-.163-1.535-.163-2.515 0-1.54.232-3.108.235-3.124.061-.409-.221-.791-.63-.852-.408-.063-.792.22-.852.629-.01.068-.251 1.691-.251 3.347s.242 3.212.252 3.277c.044.284.248.518.523.601.065.02.526.151 1.231.151.243 0 .515-.016.811-.057.41-.058.696-.436.639-.846zm1.812-3.136c0-1.531.231-3.123.234-3.139.06-.41-.223-.791-.632-.851-.416-.057-.791.223-.851.632-.01.069-.249 1.713-.249 3.357s.24 3.288.249 3.357c.059.412.45.693.851.632.409-.061.692-.441.632-.851-.002-.016-.234-1.607-.234-3.139zm5.675-3.26c0-.413-.336-.747-.75-.747s-.749.336-.75.749c0 .012-.008 1.17-.48 3.216-.091.395-.182.749-.269 1.06-.087-.311-.178-.665-.269-1.06-.472-2.046-.481-3.204-.481-3.216 0-.414-.336-.749-.75-.749s-.749.334-.75.747c0 .054.003 1.32.519 3.555.497 2.154 1.005 3.189 1.061 3.301.127.252.385.41.667.411h.002c.281 0 .538-.157.667-.407.056-.109.561-1.128 1.064-3.305.515-2.235.518-3.503.518-3.555zm2.314 2.51c.03-.633.088-1.19.136-1.565.397-.061.981-.137 1.597-.162.414-.017.735-.365.719-.779-.017-.413-.365-.745-.779-.718-1.225.05-2.306.27-2.351.28-.301.062-.533.302-.587.604-.01.059-.254 1.457-.254 3.122s.244 3.064.254 3.122c.054.303.286.543.587.604.045.01 1.125.229 2.35.28.41.019.764-.304.78-.717.017-.414-.304-.763-.718-.78-.616-.025-1.2-.101-1.598-.162-.05-.39-.111-.97-.14-1.63h.848c.414 0 .75-.336.75-.75s-.336-.75-.75-.75h-.844z"/></svg>