<svg id="Layer_1" viewBox="0 0 24 24" xmlns="http://www.w3.org/2000/svg" data-name="Layer 1"><path d="m3.106 9.036c-.255-.984-.033-2.023.488-2.904.58-.98 1.466-1.692 2.645-1.985-.343-.332-.739-.804-1.129-1.485-.217-.38-.103-.864.261-1.107.085-.057.872-.557 2.129-.557s2.043.5 2.129.557c.365.243.478.727.261 1.107-.389.681-.785 1.153-1.129 1.485 1.179.293 2.065 1.004 2.645 1.985.52.88.743 1.919.488 2.904-.331 1.275-1.37 1.964-4.394 1.964s-4.063-.689-4.394-1.964zm19.817 2.85c-.164-.647-.57-1.192-1.145-1.533-1.183-.705-2.72-.315-3.427.869-1.031 1.731-2.2 3.154-3.595 4.288-.372 1.02-1.156 1.857-2.214 2.276-1.006.429-2.568 1.112-4.543 1.215-.509 0-.945-.387-.995-.904-.053-.55.35-1.038.9-1.091 1.582-.152 2.971-.684 3.879-1.069.76-.301 1.217-.971 1.217-1.759 0-.752-.502-1.429-1.221-1.645-.008 0-1.779-.532-4.279-.532-2.985 0-5.082.497-5.19.519-.381.074-.686.362-.78.739-.021.086-.53 2.144-.53 4.242s.508 4.156.53 4.242c.094.375.395.663.774.738.106.021 2.632.52 5.696.52 6.432.026 11.307-3.592 14.648-9.221.342-.573.439-1.246.274-1.894z"/></svg>