<svg id="Layer_1" viewBox="0 0 24 24" xmlns="http://www.w3.org/2000/svg" data-name="Layer 1"><path d="m9.528 20.802c-.333-.553-.502-1.173-.501-1.802 0-.283.012-3.755.005-4-.046-1.577.993-3.032 2.565-3.468.431-1.553 1.85-2.579 3.403-2.567.119 0 1.323.008 2.622.016-.2-.125-.885-.33-2.622-.622v-2.358c0-3.317-1.682-5-5-5s-5 1.683-5 5v2.358c-1.614.252-2.48.546-2.54.567-.277.1-.497.317-.599.594-.035.096-.862 2.376-.862 5.98s.827 5.885.862 5.98c.102.276.321.494.599.594.104.038 2.622.926 7.54.926.65 0 1.253-.017 1.819-.044-.091-.188-.166-.383-.223-.59-.863-.237-1.6-.786-2.067-1.564zm-1.528-14.802c0-1.663.336-2 2-2s2 .337 2 2v2.056c-.62-.033-1.276-.056-2-.056s-1.38.023-2 .056zm13.002 11.574c.005-.207.012-.408.012-.626s-.007-.419-.012-.625c.209.046.309.074.499.074.672 0 1.284-.454 1.454-1.136.201-.804-.287-1.618-1.091-1.819-.036-.009-.45-.108-1.13-.214-.106-.679-.204-1.093-.214-1.129-.2-.803-1.012-1.29-1.815-1.091-.865.214-1.328 1.108-1.066 1.952-.207-.005-.408-.013-.626-.013s-.419.007-.625.013c.263-.844-.198-1.737-1.062-1.953-.807-.2-1.619.287-1.819 1.091-.009.036-.107.45-.214 1.13-.679.106-1.094.205-1.13.214-.802.201-1.289 1.013-1.09 1.815.214.864 1.102 1.329 1.952 1.066-.005.206-.012.407-.012.625s.007.419.013.626c-.845-.264-1.737.199-1.953 1.063-.201.804.288 1.618 1.092 1.818.036.009.45.107 1.128.213.106.68.205 1.094.214 1.13.197.808 1.034 1.291 1.815 1.09.865-.214 1.328-1.108 1.066-1.953.206.005.408.012.625.012s.419-.007.626-.012c-.263.844.198 1.738 1.063 1.954.782.202 1.621-.282 1.818-1.092.009-.035.107-.45.214-1.129.679-.106 1.093-.204 1.129-.214.802-.2 1.29-1.012 1.091-1.815-.198-.802-.955-1.14-1.953-1.066zm-3.01.352c-.31.014-.634.023-.977.023s-.667-.009-.977-.023c-.014-.31-.023-.634-.023-.977s.009-.667.023-.977c.31-.014.634-.023.977-.023s.667.009.977.023c.014.31.023.633.023.977s-.009.667-.023.977z"/></svg>