<?xml version="1.0" encoding="UTF-8"?>
<svg xmlns="http://www.w3.org/2000/svg" id="Layer_1" data-name="Layer 1" viewBox="0 0 24 24">
  <path d="M7.914,11.262h-1.684v.902c0,.546,.443,.989,.989,.989h1.684v-.902c0-.546-.443-.989-.989-.989Z"/>
  <path d="M15.097,12.251v.902h1.684c.546,0,.989-.443,.989-.989v-.902h-1.684c-.546,0-.989,.443-.989,.989Z"/>
  <path d="M11.991,1c-3.403-.004-5.9,.804-7.627,2.522-1.939,1.931-2.84,4.941-2.834,9.477,.005,3.664,.508,7.66,4.204,9.525,1.562,.79,3.493,.438,4.815-.89,.58-.58,1.06-.862,1.464-.862h.002c.411,0,.902,.286,1.522,.91,.832,.862,1.935,1.32,3.036,1.32,.593,0,1.186-.133,1.736-.405,3.674-1.817,4.164-5.814,4.159-9.483-.008-5.609-1.205-12.056-10.479-12.114Zm-1.088,13.153c0,.553-.447,1-1,1h-2.684c-1.648,0-2.989-1.341-2.989-2.989v-3.655c0-.553,.447-1,1-1s1,.447,1,1v.753h1.684c1.648,0,2.989,1.341,2.989,2.989v1.902Zm8.866-1.989c0,1.648-1.341,2.989-2.989,2.989h-2.684c-.553,0-1-.447-1-1v-1.902c0-1.648,1.341-2.989,2.989-2.989h1.684v-.753c0-.553,.447-1,1-1s1,.447,1,1v3.655Z"/>
</svg>
