<svg id="Layer_1" viewBox="0 0 24 24" xmlns="http://www.w3.org/2000/svg" data-name="Layer 1"><path d="m10.962 17.917c-.079 1.117-.321 3.048-1.069 4.532-.173.345-.53.558-.915.55-5.406-.116-7.979-1.288-7.979-7.635.001-6.412 2.352-10.896 6.619-12.626.63-.266 1.392-.513 2.146-.695.605-.167 1.253.345 1.236.972v7.06c-.375.057-.704.158-1.008.284-.039-.962-.472-1.358-1.492-1.358-1.071 0-1.5.429-1.5 1.5 0 1.02.396 1.453 1.358 1.492-.126.304-.227.633-.284 1.008h-1.074c-.552 0-1 .447-1 1s.448 1 1 1h1.074c.057.375.158.704.284 1.008-.962.039-1.358.472-1.358 1.492 0 1.071.429 1.5 1.5 1.5 1.02 0 1.453-.396 1.492-1.358.293.121.611.218.97.275zm5.42-15.178c-.63-.266-1.392-.513-2.146-.695-.605-.167-1.253.345-1.236.972v7.058c.375.057.704.158 1.008.284.039-.962.472-1.358 1.492-1.358 1.071 0 1.5.429 1.5 1.5 0 1.02-.396 1.453-1.358 1.492.126.304.227.633.284 1.008h1.074c.552 0 1 .447 1 1s-.448 1-1 1h-1.074c-.057.375-.158.704-.284 1.008.962.039 1.358.472 1.358 1.492 0 1.071-.429 1.5-1.5 1.5-1.02 0-1.453-.396-1.492-1.358-.293.121-.611.218-.97.275.079 1.117.321 3.048 1.069 4.533.173.345.53.558.915.55 5.406-.116 7.979-1.288 7.979-7.635 0-6.412-2.351-10.896-6.618-12.626zm-4.382 9.214c-1.563 0-1.968.421-1.968 2.046s.404 2.046 1.968 2.046 1.968-.421 1.968-2.046-.404-2.046-1.968-2.046z"/></svg>