<svg id="Layer_1" viewBox="0 0 24 24" xmlns="http://www.w3.org/2000/svg" data-name="Layer 1"><path d="m22.707 9.908c.341-.341.391-.876.117-1.273-.051-.074-.109-.139-.175-.195-.205-.18-.672-.504-1.65-.874-.163-.418-.38-.811-.629-1.178 1.417-1.678 1.789-3.295 1.806-3.371.113-.511-.188-1.023-.688-1.174-.185-.055-.377-.055-.551-.007-.335.086-1.802.52-3.329 1.813-.384-.253-.766-.454-1.148-.603-.449-1.185-.835-1.635-.953-1.752-.341-.341-.877-.39-1.273-.117-.073.051-.139.11-.194.175-.183.209-.513.685-.889 1.691-.384.149-.769.351-1.154.605-1.705-1.427-3.298-1.804-3.373-1.821-.507-.117-1.022.18-1.178.678-.056.181-.059.366-.016.538.08.341.486 1.822 1.81 3.356-.256.385-.459.768-.609 1.15-1.173.447-1.62.83-1.736.947-.341.341-.39.876-.117 1.273.051.074.11.139.175.194.206.181.675.506 1.66.877.198.51.491 1.02.888 1.542l-8.062 8.057c-.586.585-.586 1.536 0 2.121.293.293.677.439 1.061.439s.768-.146 1.061-.439l8.065-8.065c.506.376 1.01.663 1.513.86.449 1.185.836 1.635.953 1.752.193.193.449.293.707.293.197 0 .395-.058.566-.176.074-.05.139-.109.194-.175.183-.209.513-.685.889-1.69.38-.148.761-.347 1.143-.597 1.696 1.455 3.331 1.802 3.408 1.819.067.014.135.02.201.02.441 0 .842-.293.963-.734.05-.181.047-.365 0-.535-.087-.333-.522-1.784-1.81-3.317.266-.399.469-.786.619-1.16 1.172-.446 1.618-.829 1.735-.946zm-7.898.784c-.828 0-1.5-.672-1.5-1.5s.672-1.5 1.5-1.5 1.5.672 1.5 1.5-.672 1.5-1.5 1.5z"/></svg>