<svg id="Layer_1" viewBox="0 0 24 24" xmlns="http://www.w3.org/2000/svg" data-name="Layer 1"><path d="m7.399 10.652c-.476-.477-.981-.913-1.511-1.308.498-.371 1.062-.759 1.572-1.12.318-.224.732-.239 1.075-.055.401.216.793.484 1.154.788.535.451.559 1.268.038 1.736-.413.371-.851.766-1.279 1.154-.328-.413-.671-.818-1.048-1.195zm3.432 6.371c-.457.5-.806.877-.93 1.001-.648.648-1.288.963-1.957.963s-1.326-.306-1.973-.954c-.648-.647-.963-1.287-.963-1.956s.314-1.309.963-1.957c.124-.124.501-.473 1.001-.93-.303-.391-.63-.768-.986-1.123-.527-.527-1.098-.991-1.699-1.399-.288.263-.593.552-.929.888-3.144 3.141-3.144 5.944-.001 9.089 3.144 3.143 5.965 3.134 9.107-.009.336-.336.625-.641.888-.929-.408-.601-.872-1.172-1.399-1.699-.355-.355-.732-.682-1.123-.986zm5.019-1.564c-.216-.401-.484-.793-.788-1.154-.451-.535-1.268-.559-1.736-.038-.371.413-.766.851-1.154 1.279.413.328.818.671 1.195 1.048.477.476.913.981 1.308 1.511.371-.498.759-1.062 1.12-1.572.224-.318.239-.732.055-1.075zm1.652-14.457c-3.75 0-5.498 1.747-5.498 5.498s1.747 5.498 5.498 5.498 5.498-1.747 5.498-5.498-1.747-5.498-5.498-5.498zm0 1.999c1.071 0 1.499.428 1.499 1.499s-.428 1.499-1.499 1.499-1.499-.428-1.499-1.499.428-1.499 1.499-1.499zm0 6.998c-1.768 0-2.723-.395-3.17-1.435.467-1.09 1.466-1.564 3.17-1.564s2.703.474 3.17 1.564c-.447 1.04-1.402 1.435-3.17 1.435z"/></svg>