<svg id="Layer_1" viewBox="0 0 24 24" xmlns="http://www.w3.org/2000/svg" data-name="Layer 1"><path d="m23 14.912c0 .139-.005 3.44-.49 6.802-.108.748-.75 1.286-1.483 1.286-.904.007-1.624-.819-1.487-1.714.454-3.143.46-6.343.46-6.374 0-5.387-1.685-7.518-6.5-7.857v14.444c0 .828-.671 1.5-1.5 1.5s-1.5-.672-1.5-1.5v-14.443c-4.815.339-6.5 2.47-6.5 7.857 0 .031.006 3.231.46 6.374.118.819-.451 1.58-1.271 1.698-.823.119-1.581-.45-1.699-1.271-.485-3.361-.49-6.663-.49-6.802 0-7.03 2.948-10.428 9.5-10.861v-1.551c0-.828.671-1.5 1.5-1.5s1.5.672 1.5 1.5v1.551c6.552.433 9.5 3.831 9.5 10.861z"/></svg>