<svg id="Layer_1" viewBox="0 0 24 24" xmlns="http://www.w3.org/2000/svg" data-name="Layer 1"><path d="m12 1c-7.71 0-11 3.29-11 11s3.29 11 11 11 11-3.29 11-11-3.29-11-11-11zm0 2c.716 0 1.375.035 1.995.095-.027 1.354-.6 1.905-1.995 1.905s-1.968-.55-1.995-1.905c.62-.06 1.279-.095 1.995-.095zm-5.5 4h11c.553 0 1 .447 1 1s-.447 1-1 1h-11c-.552 0-1-.447-1-1s.448-1 1-1zm5.5 14c-.716 0-1.375-.035-1.995-.095.027-1.354.6-1.905 1.995-1.905s1.968.55 1.995 1.905c-.62.06-1.279.095-1.995.095zm5.5-4h-11c-.552 0-1-.447-1-1s.448-1 1-1h11c.553 0 1 .447 1 1s-.447 1-1 1zm.5-4h-12c-.552 0-1-.447-1-1s.448-1 1-1h12c.553 0 1 .447 1 1s-.447 1-1 1z"/></svg>