<?xml version="1.0" encoding="UTF-8"?>
<svg xmlns="http://www.w3.org/2000/svg" id="Layer_1" data-name="Layer 1" viewBox="0 0 24 24">
  <path d="M11.986,1.002C7.159,1.068,2.309,5.81,2.309,10.457c0,6.416,8.773,12.146,9.145,12.382,.472,.301,.942,.104,1.112-.012,.368-.252,9.021-6.25,9.126-12.418-.146-4.77-4.85-9.341-9.705-9.407Zm2.443,10.61c.391,.391,.391,1.023,0,1.414-.195,.195-.451,.293-.707,.293s-.512-.098-.707-.293l-1.016-1.016-1.016,1.016c-.195,.195-.451,.293-.707,.293s-.512-.098-.707-.293c-.391-.391-.391-1.023,0-1.414l1.016-1.016-1.016-1.016c-.391-.391-.391-1.023,0-1.414s1.023-.391,1.414,0l1.016,1.016,1.016-1.016c.391-.391,1.023-.391,1.414,0s.391,1.023,0,1.414l-1.016,1.016,1.016,1.016Z"/>
</svg>
