<?xml version="1.0" encoding="UTF-8"?>
<svg xmlns="http://www.w3.org/2000/svg" id="Layer_1" data-name="Layer 1" viewBox="0 0 24 24">
  <path d="M19.93,11.623c-.053-.121-.253-.457-.366-.543-1.701,3.248-5.028,5.693-5.857,6.266-.504,.348-1.094,.532-1.707,.532-.59,0-1.162-.172-1.653-.497-.561-.369-4.663-3.17-6.261-7.015-.05,.076-.091,.159-.119,.247-.03,.092-.729,2.301-.729,5.77,0,2.966,.732,4.688,.763,4.76,.053,.122,.13,.232,.226,.324,.164,.157,1.706,1.532,5.392,1.532,2.421,0,3.912-.589,4.699-1.042,.509,.317,1.276,.708,2.165,.872,1.248,.23,2.63,.014,2.688,.004,.365-.059,.669-.314,.788-.665,.033-.096,.802-2.389,.802-5.789,0-2.821-.797-4.681-.832-4.759Z"/>
  <circle cx="12" cy="7.52" r="1.441"/>
  <path d="M11.45,15.713c.265,.186,.701,.25,1.119-.012,.622-.391,5.909-4.201,5.978-8.298-.101-3.306-3.214-6.357-6.56-6.403-3.318,.045-6.533,3.191-6.533,6.451,0,4.315,5.76,8.096,5.997,8.262Zm.55-11.634c1.897,0,3.441,1.543,3.441,3.441s-1.543,3.441-3.441,3.441-3.441-1.543-3.441-3.441,1.543-3.441,3.441-3.441Z"/>
</svg>
