<svg id="Layer_1" viewBox="0 0 24 24" xmlns="http://www.w3.org/2000/svg" data-name="Layer 1"><path d="m12 1c-5.327 0-10 4.673-10 10 0 6.514 9.126 11.658 9.514 11.874.151.084.318.126.486.126s.334-.042.486-.126c.388-.216 9.514-5.36 9.514-11.874 0-5.327-4.673-10-10-10zm-4.5 8c0-.828.672-1.5 1.5-1.5s1.5.672 1.5 1.5-.672 1.5-1.5 1.5-1.5-.672-1.5-1.5zm8.3 4.6c-1.194 1.592-2.473 2.4-3.8 2.4s-2.605-.808-3.8-2.4c-.332-.442-.242-1.069.2-1.4.44-.333 1.068-.241 1.399.2.548.73 1.374 1.6 2.2 1.6s1.652-.87 2.2-1.6c.331-.44.958-.531 1.399-.2.442.331.532.958.2 1.4zm-.8-3.1c-.828 0-1.5-.672-1.5-1.5s.672-1.5 1.5-1.5 1.5.672 1.5 1.5-.672 1.5-1.5 1.5z"/></svg>