<?xml version="1.0" encoding="UTF-8"?>
<svg xmlns="http://www.w3.org/2000/svg" id="Layer_1" data-name="Layer 1" viewBox="0 0 24 24">
  <path d="M11.986,1.002C7.159,1.068,2.309,5.81,2.309,10.457c0,6.416,8.773,12.146,9.145,12.382,.472,.301,.942,.104,1.112-.012,.368-.252,9.021-6.25,9.126-12.418-.146-4.77-4.85-9.341-9.705-9.407Zm2.45,10.594h-1.437v1.436c0,.552-.447,1-1,1s-1-.448-1-1v-1.436h-1.437c-.553,0-1-.448-1-1s.447-1,1-1h1.437v-1.436c0-.552,.447-1,1-1s1,.448,1,1v1.436h1.437c.553,0,1,.448,1,1s-.447,1-1,1Z"/>
</svg>
