<svg id="Layer_1" viewBox="0 0 24 24" xmlns="http://www.w3.org/2000/svg" data-name="Layer 1"><path d="m13.199 8.349-3.166 3.081c-.551.562-.891 1.319-.941 2.117l-.024.382.356-.023c.775-.05 1.512-.393 2.076-.966l3.166-3.081c.417-.425.581-1.248.127-1.651-.594-.528-1.353-.104-1.594.142z"/><path d="m12 1c-5.327 0-10 4.673-10 10 0 6.514 9.126 11.658 9.514 11.874.151.084.318.126.486.126s.334-.042.486-.126c.388-.216 9.514-5.36 9.514-11.874 0-5.327-4.673-10-10-10zm4.076 10.276-3.166 3.082c-.893.909-2.091 1.463-3.358 1.544l-1.488.096c-.021.001-.042.002-.064.002-.264 0-.518-.104-.707-.292-.203-.203-.31-.483-.292-.77l.094-1.515c.08-1.278.622-2.49 1.526-3.411l3.166-3.082c.601-.611 1.455-.973 2.328-.977.795.01 1.547.294 2.091.838 1.189 1.189 1.131 3.2-.131 4.484z"/></svg>