<svg id="Layer_1" viewBox="0 0 24 24" xmlns="http://www.w3.org/2000/svg" data-name="Layer 1"><path d="m22.561 20.439-3.196-3.196c1.749-2.106 2.635-4.203 2.635-6.243 0-5.257-4.667-9.93-10.013-10-2.255.03-4.561.94-6.384 2.482l-2.042-2.043c-.586-.586-1.535-.586-2.121 0-.586.585-.586 1.536 0 2.121l18.999 19.001c.293.293.677.439 1.061.439s.768-.146 1.061-.439c.586-.585.586-1.536 0-2.121z"/><path d="m2.919 7.876c-.276.216-.555.569-.702 1.11-.177.654-.216 1.359-.216 2.014 0 4.32 4.002 7.979 6.388 9.776.896.674 2.985 2.01 3.074 2.066.164.104.351.157.538.157.17 0 .339-.046.494-.13.35-.191 2.071-1.299 3.287-2.132z"/></svg>