<svg id="Layer_1" viewBox="0 0 24 24" xmlns="http://www.w3.org/2000/svg" data-name="Layer 1"><path d="m12 1c-5.327 0-10 4.673-10 10 0 6.514 9.126 11.658 9.514 11.874.151.084.318.126.486.126s.334-.042.486-.126c.388-.216 9.514-5.36 9.514-11.874 0-5.327-4.673-10-10-10zm0 18c-.828 0-1.5-.672-1.5-1.5s.672-1.5 1.5-1.5 1.5.672 1.5 1.5-.672 1.5-1.5 1.5zm1-6.638v1.138c0 .552-.447 1-1 1s-1-.448-1-1v-2.051c0-.55.444-.997.994-1 1.437-.008 1.98-.542 2.006-1.967-.023-1.351-.643-1.973-2.007-1.982-1.368.009-1.969.612-1.993 2.018-.01.552-.468.988-1.018.982-.553-.01-.992-.465-.982-1.018.044-2.478 1.537-3.966 3.993-3.982 2.472.016 3.964 1.505 4.007 3.983-.04 2.198-1.095 3.539-3 3.879z"/></svg>