<svg id="Layer_1" viewBox="0 0 24 24" xmlns="http://www.w3.org/2000/svg" data-name="Layer 1"><path d="m12 1c-5.327 0-10 4.673-10 10 0 6.514 9.126 11.658 9.514 11.874.151.084.318.126.486.126s.334-.042.486-.126c.388-.216 9.514-5.36 9.514-11.874 0-5.327-4.673-10-10-10zm4.889 8.458c-2.088 4.053-5.376 5.414-5.515 5.47-.121.048-.248.072-.374.072-.222 0-.442-.074-.622-.217-.083-.066-2.043-1.63-3.185-3.193-.326-.446-.229-1.072.217-1.397.448-.327 1.071-.229 1.397.217.668.914 1.716 1.873 2.328 2.4.875-.505 2.697-1.786 3.977-4.268.253-.491.857-.684 1.347-.431.491.253.684.856.431 1.347z"/></svg>