<svg id="Layer_1" viewBox="0 0 24 24" xmlns="http://www.w3.org/2000/svg" data-name="Layer 1"><path d="m21.97 2.757c-.082-.332-.329-.598-.653-.706-.129-.043-3.225-1.051-9.316-1.051s-9.189 1.008-9.317 1.051c-.324.108-.571.375-.654.706-.031.126-.593 2.398-.873 5.243h21.686c-.28-2.844-.842-5.117-.873-5.243zm-16.47 3.243c-.83 0-1.5-.671-1.5-1.5s.67-1.5 1.5-1.5 1.5.67 1.5 1.5-.67 1.5-1.5 1.5zm4 0c-.83 0-1.5-.671-1.5-1.5s.67-1.5 1.5-1.5 1.5.67 1.5 1.5-.67 1.5-1.5 1.5zm12.775 9.539c-.028-.008-.295-.081-.775-.171v-.867c0-2.481-2.019-4.5-4.5-4.5s-4.5 2.019-4.5 4.5v.867c-.48.09-.747.163-.775.171-.434.124-.731.523-.725.975.01.767.159 4.653 2.104 5.84.425.243 1.383.613 3.896.646 2.515-.034 3.481-.442 3.896-.646 1.945-1.188 2.094-5.074 2.104-5.84.006-.451-.292-.851-.725-.975zm-6.775-.499v-.54c0-.827.673-1.5 1.5-1.5s1.5.673 1.5 1.5v.54c-.464-.023-.955-.04-1.5-.04s-1.036.017-1.5.04zm-3.179-5.04c-.993 1.033-1.65 2.389-1.79 3.896-.937.53-1.545 1.533-1.531 2.644.013.98.133 2.759.734 4.41-4.593-.202-6.939-.965-7.051-1.002-.324-.107-.571-.374-.654-.706-.042-.168-1.03-4.166-1.03-8.242 0-.335.009-.668.021-1z"/></svg>