<svg id="Layer_1" viewBox="0 0 24 24" xmlns="http://www.w3.org/2000/svg" data-name="Layer 1"><path d="m22.954 6.753c-.188 1.37-.321 1.72-.584 2.325-.159.386-.547.617-.95.654-.692.131-1.407.268-2.92.268-1.812 0-3.027-.258-3.078-.269-.393-.085-.695-.396-.771-.79-.173-.931-.369-2.002-.478-2.831-.124-.846-.229-1.564-.394-2.107-.078-.004-.159-.006-.234-.004-.805.001-1.517-.628-1.542-1.456-.024-.826.621-1.516 1.447-1.543.307-.012 1.335-.011 2.104.387.264.136.48.346.624.604.188.338.323.704.442 1.083.523-.041 1.106-.071 1.873-.076 1.676.015 2.445.148 3.465.295.423.062.76.386.839.806.139.74.277 1.48.157 2.652zm-4.954 5.747c0-.829-.671-1.5-1.5-1.5s-1.5.671-1.5 1.5.671 1.5 1.5 1.5 1.5-.671 1.5-1.5zm4 0c0-.829-.671-1.5-1.5-1.5s-1.5.671-1.5 1.5.671 1.5 1.5 1.5 1.5-.671 1.5-1.5zm-3.499 2.865c-.568.398-1.256.635-2 .635-1.93 0-3.5-1.57-3.5-3.5 0-.616.174-1.186.454-1.689-.384-.406-.657-.917-.768-1.49-.243-1.252-.433-2.475-.6-3.636-1.191-.541-2.042-1.718-2.082-3.082-.017-.564.115-1.095.34-1.575-4.992.158-7.544.985-7.661 1.023-.279.093-.503.304-.612.577-.043.109-1.071 2.871-1.071 7.371s1.028 7.262 1.071 7.371c.109.273.333.484.612.577.118.039 2.721.883 7.815 1.028v1.024s-1.999 0-1.999 0c-.829 0-1.5.671-1.5 1.5s.671 1.5 1.5 1.5h7c.828 0 1.5-.671 1.5-1.5s-.672-1.5-1.5-1.5h-2v-1.023c5.096-.145 7.7-.989 7.817-1.028.279-.093.503-.304.612-.577.021-.054.281-.752.539-1.98-.561.383-1.238.609-1.968.609-.744 0-1.432-.238-2-.635z"/></svg>