<?xml version="1.0" encoding="UTF-8"?>
<svg xmlns="http://www.w3.org/2000/svg" id="Layer_1" data-name="Layer 1" viewBox="0 0 24 24">
  <path d="M22.511,2.501c-.15-.449-.504-.801-.953-.949-.142-.046-3.487-1.122-6.768,.113-.775,.292-1.166,1.158-.874,1.933,.292,.775,1.155,1.167,1.933,.875,.669-.253,1.357-.363,1.995-.392l-4.403,4.365c-3.275-2.469-6.644-2.149-9.818,.973-3.497,3.521-3.494,7.292,.033,10.932,1.786,1.716,3.65,2.575,5.507,2.575s3.701-.858,5.45-2.576c3.089-3.113,3.406-6.547,.953-9.789l4.42-4.383c-.029,.633-.139,1.316-.393,1.979-.297,.773,.09,1.641,.863,1.938,.177,.068,.358,.1,.537,.1,.603,0,1.172-.367,1.4-.963,1.251-3.261,.163-6.591,.116-6.731Z"/>
</svg>
