<svg id="Layer_1" viewBox="0 0 24 24" xmlns="http://www.w3.org/2000/svg" data-name="Layer 1"><path d="m13.5 14c2.659 0 5.5-1.514 5.5-5.762 0-4.14-3.028-6.238-9-6.238-2.461 0-9 0-9 6.238 0 4.248 2.841 5.762 5.5 5.762 1.512 0 2.768-.664 3.5-1.164.732.5 1.988 1.164 3.5 1.164z"/><path d="m21.5 1.5c-.829 0-1.5.671-1.5 1.5v12.352c0 2.365-1.935 4.148-4.5 4.148-1.825 0-4-.607-4-3.5 0-.829-.671-1.5-1.5-1.5s-1.5.671-1.5 1.5c0 3.949 2.748 6.5 7 6.5 4.206 0 7.5-3.14 7.5-7.148v-12.352c0-.829-.671-1.5-1.5-1.5z"/></svg>