<svg id="Layer_1" viewBox="0 0 24 24" xmlns="http://www.w3.org/2000/svg" data-name="Layer 1"><path d="m12 6c-3.648 0-8.5.881-8.5 8.5s4.852 8.5 8.5 8.5 8.5-.881 8.5-8.5-4.852-8.5-8.5-8.5zm2.815 8.398-.413.418c-.344.35-.501.852-.42 1.345l.096.59c.032.19-.015.372-.131.516-.118.146-.295.234-.474.234-.098 0-.194-.026-.285-.076l-.509-.279c-.208-.114-.443-.175-.679-.175s-.471.061-.679.175l-.509.278c-.092.05-.187.076-.285.076-.179 0-.355-.087-.474-.234-.117-.143-.164-.326-.132-.516l.098-.59c.081-.492-.076-.995-.419-1.344l-.414-.419c-.171-.173-.229-.418-.154-.654s.259-.398.494-.434l.57-.087c.475-.072.885-.382 1.099-.83l.255-.538c.106-.223.313-.356.551-.356s.445.133.549.356l.255.537c.215.449.625.759 1.1.83l.567.087c.238.036.423.198.497.434.073.236.015.481-.154.654z"/><path d="m10.906 4.032c-1.308-1.639-2.39-2.692-2.443-2.744-.165-.16-.38-.258-.608-.278-.084-.007-2.123-.17-3.896 1.274-2.104 1.714-1.971 3.347-1.948 3.528.014.116.048.229.102.333.024.048.398.776 1.03 1.813 1.36-2.105 3.742-3.685 7.764-3.926z"/><path d="m20.041 2.283c-1.772-1.444-3.813-1.281-3.896-1.273-.229.02-.443.119-.608.278-.053.052-1.135 1.105-2.444 2.744 4.022.241 6.404 1.82 7.765 3.926.632-1.037 1.005-1.766 1.03-1.813.054-.104.088-.217.102-.333.022-.181.155-1.813-1.948-3.528z"/></svg>