<svg id="Layer_1" viewBox="0 0 24 24" xmlns="http://www.w3.org/2000/svg" data-name="Layer 1"><path d="m6 17c1.991 0 3-1.01 3-3s-1.009-3-3-3-3 1.01-3 3 1.009 3 3 3zm0 1c-3.036 0-4.669 1.269-4.992 3.877-.036.284.053.57.243.785s.463.338.75.338h8c.287 0 .56-.123.75-.338.189-.215.278-.501.243-.785-.323-2.608-1.956-3.877-4.992-3.877zm9-4c0 1.99 1.009 3 3 3s3-1.01 3-3-1.009-3-3-3-3 1.01-3 3zm3 4c-3.036 0-4.669 1.269-4.992 3.877-.036.284.053.57.243.785s.463.338.75.338h8c.287 0 .56-.123.75-.338.189-.215.278-.501.243-.785-.323-2.608-1.956-3.877-4.992-3.877zm-4.225-8.099c-.447.415-1.21 1.1-1.772 1.099-.56.002-1.34-.687-1.779-1.1-1.056-.114-1.834-.292-1.993-.329-.334-.08-.606-.325-.717-.65-.053-.154-.514-1.559-.514-3.421 0-1.918.494-3.364.515-3.425.111-.322.379-.564.709-.645.182-.044 1.834-.431 3.775-.431s3.593.387 3.775.431c.331.08.598.322.709.645.021.061.515 1.507.515 3.425 0 1.862-.461 3.267-.514 3.421-.111.325-.381.57-.715.649-.161.038-.939.216-1.996.331z"/></svg>