<svg id="Layer_1" viewBox="0 0 24 24" xmlns="http://www.w3.org/2000/svg" data-name="Layer 1"><path d="m3 5.5c0-3.07 1.43-4.5 4.5-4.5s4.5 1.43 4.5 4.5-1.43 4.5-4.5 4.5-4.5-1.43-4.5-4.5zm18.913-1.988c-.132-1.141-.372-1.79-.408-1.882-.138-.349-.46-.592-.834-.628-.424-.043-.83.197-1.008.581-.109.216-.306.463-.898.463-.786.028-1.619 0-2.244.179-.817.233-1.416.966-1.488 1.824-.019.226-.032.605-.033.949-.002 0 0 .449 0 1.002 0 1.374.577 2.7 1.059 3.575-.096.121-.18.254-.237.407-.005.016-.499 1.336-1.473 2.83-1.433-.308-4.117-.812-6.35-.812-4.841 0-7 2.159-7 7v2.5c0 .459.312.859.757.97.087.021 2.155.53 5.243.53s5.156-.508 5.243-.53c.445-.111.757-.511.757-.97v-2.5c0-1.338-.202-2.513-.598-3.515 1.277.234 2.215.466 2.234.47.576.146 1.201-.07 1.563-.555 1.614-2.152 2.407-4.295 2.439-4.385.194-.531.064-1.095-.282-1.493-.087-.22-.438-.589-.878-1.577.375.037.809.055 1.315.055.651 0 .814.314.876.433.18.376.588.608 1 .565.374-.036.696-.279.834-.628.036-.092.276-.74.408-1.882.91-.058 1.287-.494 1.287-1.488s-.377-1.43-1.287-1.488z"/></svg>