<?xml version="1.0" encoding="UTF-8"?>
<svg xmlns="http://www.w3.org/2000/svg" id="Layer_1" data-name="Layer 1" viewBox="0 0 24 24">
  <path d="M11.994,1C4.819,1,1,5.106,1,12.019c0,6.859,3.851,10.981,11.006,10.981s10.861-3.737,10.994-11.017c-.122-7.037-4.026-10.983-11.006-10.983ZM6.587,10.102c.024-1.215,.777-1.92,2.015-1.927,1.229,.007,1.999,.735,2.022,1.899-.024,1.214-.776,1.919-2.013,1.927h-.012c-1.237-.008-1.989-.717-2.013-1.898Zm8.808,7.065h-6.789c-.553,0-1-.448-1-1s.447-1,1-1h6.789c.553,0,1,.448,1,1s-.447,1-1,1Zm.006-5.166h-.012c-1.237-.008-1.989-.717-2.013-1.898,.024-1.215,.777-1.92,2.015-1.927,1.229,.007,1.999,.735,2.022,1.899-.024,1.214-.776,1.919-2.013,1.927Z"/>
</svg>
