<svg id="Layer_1" viewBox="0 0 24 24" xmlns="http://www.w3.org/2000/svg" data-name="Layer 1"><path d="m22.204 5.45c-.106-.339-.384-.595-.729-.675-.137-.031-3.431-.775-9.475-.775s-9.338.744-9.475.775c-.346.08-.623.336-.729.675-.032.103-.796 2.576-.796 6.55s.764 6.447.796 6.55c.106.339.384.595.729.675.137.031 3.431.775 9.475.775s9.338-.744 9.475-.775c.346-.08.623-.336.729-.675.032-.103.796-2.576.796-6.55s-.764-6.447-.796-6.55zm-11.425 6.408c-.394.35-.773.687-1.155 1.012.167.58.306 1.16.416 1.739.046.242-.046.489-.24.641-.195.152-.456.182-.68.078-.593-.275-1.125-.56-1.62-.862-.495.301-1.027.587-1.62.862-.224.105-.485.074-.68-.078-.194-.152-.286-.399-.24-.641.11-.579.25-1.159.416-1.739-.382-.325-.761-.662-1.155-1.012-.192-.171-.267-.438-.191-.684s.288-.425.543-.457c.594-.076 1.122-.133 1.617-.17.219-.528.461-1.054.724-1.578.112-.221.339-.378.586-.36.247-.018.474.139.586.36.263.523.505 1.05.724 1.578.496.037 1.024.094 1.617.17.255.032.467.211.543.457s0 .513-.191.684zm8.221 3.142h-5c-.553 0-1-.447-1-1s.447-1 1-1h5c.553 0 1 .447 1 1s-.447 1-1 1zm0-4h-5c-.553 0-1-.447-1-1s.447-1 1-1h5c.553 0 1 .447 1 1s-.447 1-1 1z"/></svg>