<svg id="Layer_1" viewBox="0 0 24 24" xmlns="http://www.w3.org/2000/svg" data-name="Layer 1"><path d="m21.5 10.5c0-.618 0-2.499-1.783-3.247.056-.303.083-.63.083-1 0-.971-.363-1.868-1.023-2.529-.66-.66-1.558-1.023-2.525-1.023h-.003c-.371 0-.698.027-1.009.067-.74-1.768-2.621-1.768-3.239-1.768s-2.5 0-3.247 1.783c-.302-.056-.63-.083-1-.083h-.002c-.969 0-1.866.363-2.526 1.022-.661.661-1.024 1.56-1.024 2.529 0 .366.027.692.067 1.009-1.767.74-1.767 2.621-1.767 3.239s0 2.499 1.782 3.251c-.055.305-.082.631-.082.997 0 .97.363 1.868 1.024 2.529.66.659 1.557 1.022 2.525 1.022h.002c.371 0 .699-.027 1.009-.067.739 1.768 2.621 1.768 3.239 1.768s2.499 0 3.247-1.783c.303.056.63.083 1 .083h.003c.969 0 1.866-.363 2.526-1.023.66-.661 1.024-1.559 1.023-2.528 0-.371-.027-.698-.067-1.009 1.768-.74 1.768-2.621 1.768-3.239zm-9.5-4.5c1.429 0 2 .571 2 2s-.571 2-2 2-2-.571-2-2 .571-2 2-2zm3.095 7.838c-.456.299-1.08.174-1.384-.292-.097-.149-.356-.546-1.711-.546s-1.614.397-1.712.547c-.302.463-.921.593-1.384.29-.462-.302-.592-.922-.29-1.384.639-.978 1.747-1.453 3.386-1.453s2.748.476 3.387 1.454c.302.462.171 1.082-.292 1.384zm-7.221 6.637c-.436.438-.746.75-.789.793-1.339 1.339-2.491 2.082-3.132 1.568-.681-.546-.282-2.512-.282-2.512s-1.967.401-2.512-.282c-.491-.615.196-1.742 1.5-3.061.272.633.655 1.214 1.151 1.711 1.027 1.026 2.409 1.596 3.896 1.607.051.06.111.117.167.175zm13.467-3.493c1.304 1.319 1.991 2.446 1.5 3.061-.544.683-2.512.282-2.512.282s.399 1.966-.282 2.512c-.641.514-1.793-.229-3.132-1.568-.044-.044-.355-.357-.791-.795.055-.058.114-.114.165-.173 1.488-.01 2.872-.581 3.901-1.61.495-.496.878-1.077 1.149-1.708z"/></svg>