<svg id="Layer_1" viewBox="0 0 24 24" xmlns="http://www.w3.org/2000/svg" data-name="Layer 1"><path d="m7 20.729v-3.729h2v3.907c-.731-.047-1.396-.108-2-.177zm10 0v-3.729h-2v3.907c.731-.047 1.396-.108 2-.177zm-15.833-5.729c-.084-.761-.145-1.607-.161-2.535-.008-.48.327-.899.798-.996.692-.143 1.195-.761 1.195-1.469 0-.62-.396-1.183-.984-1.4-.453-.167-.721-.633-.639-1.108.298-1.724.67-2.731.686-2.773.103-.277.323-.494.602-.594.129-.046 3.233-1.124 9.335-1.124s9.206 1.078 9.335 1.124c.279.1.499.316.602.594.016.042.387 1.05.686 2.773.082.476-.186.941-.639 1.108-.588.218-.984.78-.984 1.4 0 .708.503 1.326 1.195 1.469.471.097.806.516.798.996-.016.928-.077 1.774-.161 2.535zm13.833-3c0 .553.448 1 1 1s1-.447 1-1v-5c0-.553-.448-1-1-1s-1 .447-1 1zm-4 0c0 .553.448 1 1 1s1-.447 1-1v-5c0-.553-.448-1-1-1s-1 .447-1 1zm-4 0c0 .553.448 1 1 1s1-.447 1-1v-5c0-.553-.448-1-1-1s-1 .447-1 1zm12 5v3.438c1.491-.27 2.272-.539 2.335-.562.278-.099.499-.316.602-.593.022-.06.32-.875.594-2.283zm-14 0h-3.531c.274 1.408.572 2.223.594 2.283.104.276.324.494.602.593.063.022.844.292 2.335.562zm8 0h-2v3.989c.325.006.656.011 1 .011s.675-.004 1-.011z"/></svg>