<?xml version="1.0" encoding="UTF-8"?>
<svg xmlns="http://www.w3.org/2000/svg" id="Layer_1" data-name="Layer 1" viewBox="0 0 24 24">
  <path d="M21.796,2.706c-.109-.321-.374-.564-.702-.646-.172-.043-4.26-1.059-9.094-1.059S3.079,2.017,2.907,2.06c-.33,.083-.595,.328-.704,.649-.049,.146-1.203,3.612-1.203,8.232,0,4.659,1.155,8.092,1.204,8.235,.109,.321,.374,.564,.702,.646,.109,.027,2.609,.65,6.006,.928,.112,.125,.229,.251,.353,.375,1.048,1.061,2.193,1.716,2.242,1.744,.153,.087,.565,.235,.97,.009,.046-.026,1.146-.627,2.258-1.752,.125-.126,.243-.252,.355-.376,3.391-.278,5.895-.9,6.003-.928,.33-.083,.596-.328,.704-.649,.049-.146,1.203-3.613,1.203-8.232,0-4.659-1.155-8.091-1.204-8.235ZM10.517,14.626c-.549,.747-1.213,.42-1.378,.317-2.563-1.605-3.833-3.809-3.886-3.901-.174-.306-.174-.681,0-.987,.053-.093,1.322-2.295,3.886-3.901,.468-.293,1.085-.151,1.378,.317,.293,.468,.151,1.085-.317,1.378-1.458,.913-2.414,2.056-2.878,2.697,.468,.644,1.431,1.795,2.878,2.702,.468,.293,.644,.933,.317,1.378Zm8.238-3.584c-.053,.093-1.322,2.296-3.886,3.901-.165,.103-.83,.43-1.378-.317-.327-.445-.151-1.085,.317-1.378,1.448-.907,2.411-2.058,2.878-2.702-.464-.641-1.42-1.784-2.878-2.697-.468-.293-.61-.91-.317-1.378,.293-.468,.911-.61,1.378-.317,2.563,1.605,3.833,3.808,3.886,3.901,.174,.306,.174,.681,0,.987Z"/>
</svg>
