<svg id="Layer_1" viewBox="0 0 24 24" xmlns="http://www.w3.org/2000/svg" data-name="Layer 1"><path d="m21.797 2.707c-.109-.322-.375-.566-.705-.648-.173-.043-4.287-1.058-9.092-1.058s-8.919 1.014-9.092 1.057c-.33.083-.596.327-.705.648-.049.145-1.203 3.597-1.203 8.233 0 4.731 1.159 8.1 1.208 8.241.114.325.387.568.722.645.133.03 3.126.707 5.959.926.96 1.022 2.418 2.286 3.193 2.245.609-.048 2.169-1.277 3.029-2.245 2.833-.219 5.826-.896 5.959-.926.335-.077.607-.32.722-.645.049-.141 1.208-3.51 1.208-8.241 0-4.636-1.154-8.088-1.203-8.233zm-4.819 4.904c-.115.544-.662.884-1.188.767-.015-.003-1.228-.258-2.789-.346v6.968c0 .552-.447 1-1 1s-1-.448-1-1v-6.968c-1.561.088-2.774.342-2.789.346-.537.115-1.071-.226-1.188-.767-.116-.54.227-1.072.767-1.188.08-.017 1.982-.422 4.211-.422s4.131.405 4.211.422c.54.117.883.649.767 1.188z"/></svg>