<svg id="Layer_1" viewBox="0 0 24 24" xmlns="http://www.w3.org/2000/svg" data-name="Layer 1"><path d="m2.348 19.437c1.247-1.327 3.333-3.171 4.81-4.627 3.803-3.709 7.102-5.924 10.087-6.772.247-.07.512-.043.738.077 1.823.957 3.497 2.124 5.007 3.467.005-.212.01-.424.01-.642 0-4.636-1.154-8.088-1.203-8.233-.109-.322-.375-.566-.705-.648-.173-.043-4.287-1.058-9.092-1.058s-8.919 1.014-9.092 1.057c-.33.083-.596.327-.705.648-.049.145-1.203 3.597-1.203 8.233.063 5.126 1.079 7.983 1.348 8.497zm5.152-13.437c1.071 0 1.5.429 1.5 1.5s-.429 1.5-1.5 1.5-1.5-.429-1.5-1.5.429-1.5 1.5-1.5zm15.322 8.159c-.327 2.974-.994 4.915-1.03 5.021-.114.325-.387.568-.722.645-.133.03-3.126.707-5.959.926-.86.968-2.42 2.197-3.029 2.245-.761.008-2.283-1.254-3.192-2.245-1.611-.125-3.272-.397-4.431-.615 1.242-1.222 2.792-2.617 4.097-3.897 3.39-3.306 6.292-5.326 8.856-6.163 2.001 1.095 3.807 2.458 5.374 4.057.011.011.025.014.036.025z"/></svg>