<svg id="Layer_1" viewBox="0 0 24 24" xmlns="http://www.w3.org/2000/svg" data-name="Layer 1"><path d="m21.797 2.707c-.109-.322-.375-.566-.705-.648-.173-.043-4.287-1.058-9.092-1.058s-8.919 1.014-9.092 1.057c-.33.083-.596.327-.705.648-.049.145-1.203 3.597-1.203 8.233 0 4.795 1.162 8.108 1.212 8.247.114.322.386.563.719.639.133.03 3.125.707 5.959.926.91.991 2.431 2.253 3.192 2.245.609-.048 2.169-1.277 3.029-2.245 2.833-.219 5.826-.896 5.959-.926.335-.077.607-.32.722-.645.049-.141 1.208-3.51 1.208-8.241 0-4.636-1.154-8.088-1.203-8.233zm-9.797 15.293c-.828 0-1.5-.672-1.5-1.5s.672-1.5 1.5-1.5 1.5.672 1.5 1.5-.672 1.5-1.5 1.5zm1.58-6.23s-.58.263-.58.73c0 .552-.447 1-1 1s-1-.448-1-1c0-1.427 1.147-2.348 1.92-2.618.23-.081.58-.203.58-1.382 0-1.233-.267-1.5-1.5-1.5s-1.5.267-1.5 1.5c0 .552-.447 1-1 1s-1-.448-1-1c0-2.322 1.178-3.5 3.5-3.5s3.5 1.178 3.5 3.5c0 .643 0 2.599-1.92 3.27z"/></svg>