<svg id="Layer_1" viewBox="0 0 24 24" xmlns="http://www.w3.org/2000/svg" data-name="Layer 1"><path d="m21.797 2.707c-.109-.322-.375-.566-.705-.648-.173-.043-4.287-1.058-9.092-1.058s-8.92 1.014-9.093 1.057c-.33.083-.595.327-.704.648-.049.145-1.204 3.597-1.204 8.233 0 4.796 1.162 8.108 1.211 8.247.115.322.386.563.72.639.132.03 3.125.707 5.958.926.959 1.023 2.418 2.286 3.194 2.245.609-.048 2.168-1.277 3.029-2.245 2.833-.219 5.826-.896 5.959-.926.335-.077.607-.32.722-.645.049-.141 1.208-3.51 1.208-8.241 0-4.636-1.154-8.088-1.203-8.233zm-15.571 11.324c-.816 0-1.548-.517-1.821-1.287-.116-.329.056-.689.384-.805.327-.117.689.056.805.384.095.267.348.446.631.446.369 0 .669-.3.669-.669s-.3-.669-.669-.669c-.955 0-1.731-.776-1.731-1.73s.776-1.731 1.731-1.731c.688 0 1.311.407 1.586 1.038.14.319-.006.691-.325.831-.319.139-.691-.006-.831-.325-.075-.171-.244-.282-.43-.282-.259 0-.469.21-.469.469s.21.469.469.469c1.064 0 1.931.866 1.931 1.931s-.866 1.931-1.931 1.931zm8.202 0c-.009 0-.019 0-.027 0-.336 0-.615-.265-.631-.604-.059-1.364-.37-2.551-.65-3.368-.178.412-.363.935-.503 1.559-.065.288-.32.493-.616.493s-.551-.205-.616-.493c-.14-.623-.326-1.146-.503-1.559-.28.817-.591 2.003-.65 3.368-.015.348-.317.622-.658.603-.348-.015-.618-.31-.603-.658.125-2.869 1.226-4.979 1.272-5.067.101-.19.292-.316.506-.334.215-.02.423.075.554.247.021.028.348.462.698 1.25.351-.788.677-1.222.698-1.25.131-.172.337-.265.554-.247.215.018.405.144.506.333.047.088 1.148 2.199 1.273 5.068.015.348-.255.643-.604.658zm3.272 0c-.817 0-1.549-.517-1.821-1.287-.116-.329.056-.689.384-.805.33-.117.688.056.806.384.095.267.349.446.632.446.369 0 .669-.3.669-.669s-.3-.669-.669-.669c-.955 0-1.731-.776-1.731-1.73s.776-1.731 1.731-1.731c.689 0 1.312.408 1.586 1.039.14.32-.007.691-.326.831-.32.139-.692-.007-.83-.327-.074-.17-.243-.281-.43-.281-.259 0-.47.21-.47.469s.211.469.47.469c1.064 0 1.931.866 1.931 1.931s-.866 1.931-1.931 1.931z"/></svg>