<svg id="Layer_1" viewBox="0 0 24 24" xmlns="http://www.w3.org/2000/svg" data-name="Layer 1"><path d="m22.894 13.5c-.113 4.854-1.704 8.915-2.345 9.336-.158.104-.331.151-.533.15-.891 0-2.184-.889-2.846-1.393-1.963.27-3.878.406-5.698.406-.945 0-2.404-.143-3.55-.251-.368-.035-.665-.302-.735-.665-.018-.095-.039-.202-.06-.315.414-.273.803-.561 1.143-.838.552.046.964.069 1.23.069 3.79 0 7.008-.772 7.376-.863.983-.251 1.768-.973 2.097-1.929.122-.353 1.027-3.972 1.027-7.708 0-1.238-.1-2.46-.238-3.557 1.039.197 1.754.352 1.836.37.378.082.674.376.761.752.021.095.534 2.369.534 6.436zm-15.283 4.361c-.972.879-2.668 2.124-3.723 2.124-.204 0-.375-.045-.532-.149-.683-.448-2.356-5.351-2.356-10.336 0-3.41.823-6.776.916-7.051.109-.32.374-.564.702-.647.129-.032 3.217-.802 6.882-.802s6.753.77 6.883.802c.326.083.59.325.699.644.09.26.918 3.678.918 7.055s-.828 6.795-.918 7.055c-.109.318-.373.561-.699.644-.13.032-3.208.802-6.883.802-.416 0-1.327-.083-1.889-.139zm.889-4v.139c0 .553.448 1 1 1s1-.447 1-1v-.226c1.033-.437 1.759-1.461 1.759-2.651 0-1.52-1.188-2.781-2.704-2.871-.365.057-.696-.241-.694-.617 0-.35.285-.635.634-.635.183 0 .351.075.473.211.368.413 1 .446 1.412.08.412-.368.447-1.001.079-1.412-.267-.298-.597-.522-.959-.672v-.207c0-.553-.448-1-1-1s-1 .447-1 1v.198c-.96.394-1.639 1.336-1.639 2.436 0 1.453 1.182 2.635 2.634 2.635.429.01.764.426.764.854 0 .483-.394.877-.877.877-.371 0-.703-.234-.827-.584-.184-.521-.754-.791-1.276-.61-.521.185-.794.756-.61 1.276.304.86.992 1.508 1.83 1.779z"/></svg>