<?xml version="1.0" encoding="UTF-8"?>
<svg xmlns="http://www.w3.org/2000/svg" id="Layer_1" data-name="Layer 1" viewBox="0 0 24 24">
  <path d="M9.929,12.276c-.386,0-.834,.369-1.142,.679-.967,.972-.84,1.445,0,2.29,.454,.457,.821,.678,1.121,.678,.386,0,.834-.369,1.142-.678,.967-.973,.84-1.445,0-2.29-.454-.457-.821-.679-1.121-.679Z"/>
  <path d="M22.811,10.454c-.194-.321-.562-.508-.929-.479l-2.926,.215c.929-2.542,1.903-5.724,1.952-5.885,.108-.355,.012-.74-.251-1.001-.264-.262-.65-.358-1.003-.246-.159,.05-3.31,1.033-5.842,1.963l.215-2.949c.027-.376-.158-.735-.481-.93-.323-.193-.728-.19-1.047,.01-1.341,.841-8.083,5.091-9.123,6.136-3.816,3.836-2.465,9.209,.842,12.534,1.979,1.99,4.613,3.177,7.046,3.177,2.04,0,3.92-.806,5.437-2.331,1.039-1.045,5.267-7.821,6.104-9.169,.198-.319,.2-.724,.006-1.045Zm-10.342,6.201c-.849,.854-1.686,1.268-2.56,1.268-1.145,0-1.998-.724-2.539-1.268-1.687-1.696-1.687-3.416,0-5.111,.849-.853,1.687-1.268,2.56-1.268,1.145,0,1.998,.724,2.539,1.269,1.687,1.695,1.687,3.414,0,5.11Z"/>
</svg>
