<svg id="Layer_1" viewBox="0 0 24 24" xmlns="http://www.w3.org/2000/svg" data-name="Layer 1"><path d="m11.213 12.143c.095.302.177.588.251.857h-1.927c.073-.269.156-.555.251-.857.249-.792.494-1.441.713-1.958.219.518.464 1.167.713 1.958zm9.744 1.357c-.027.514-.067 1.016-.113 1.5h.656c.828 0 1.5.671 1.5 1.5s-.672 1.5-1.5 1.5h-1.055c-.14.827-.255 1.358-.268 1.415-.083.381-.381.679-.763.762-.056.012-.587.128-1.414.268v1.056c0 .829-.672 1.5-1.5 1.5s-1.5-.671-1.5-1.5v-.656c-.484.047-.986.086-1.5.113v.543c0 .829-.671 1.5-1.5 1.5s-1.5-.671-1.5-1.5v-.543c-.514-.027-1.016-.067-1.5-.113v.656c0 .829-.671 1.5-1.5 1.5s-1.5-.671-1.5-1.5v-1.056c-.827-.14-1.358-.255-1.415-.268-.381-.083-.679-.381-.762-.762-.012-.056-.128-.588-.268-1.415h-1.056c-.829 0-1.5-.671-1.5-1.5s.671-1.5 1.5-1.5h.656c-.047-.484-.086-.986-.113-1.5h-.543c-.829 0-1.5-.671-1.5-1.5s.671-1.5 1.5-1.5h.543c.027-.514.067-1.016.113-1.5h-.656c-.829 0-1.5-.671-1.5-1.5s.671-1.5 1.5-1.5h1.056c.14-.827.255-1.358.268-1.415.083-.381.381-.679.762-.762.056-.012.588-.128 1.415-.268v-1.056c0-.829.671-1.5 1.5-1.5s1.5.671 1.5 1.5v.656c.484-.047.986-.086 1.5-.113v-.543c0-.829.671-1.5 1.5-1.5s1.5.671 1.5 1.5v.543c.514.027 1.016.067 1.5.113v-.656c0-.829.672-1.5 1.5-1.5s1.5.671 1.5 1.5v1.056c.827.14 1.358.255 1.414.268.382.083.68.381.763.762.013.056.128.588.268 1.415h1.055c.828 0 1.5.671 1.5 1.5s-.672 1.5-1.5 1.5h-.656c.047.484.086.986.113 1.5h.543c.828 0 1.5.671 1.5 1.5s-.672 1.5-1.5 1.5zm-6.957 2.502c0-.067-.006-1.669-.879-4.457-.841-2.685-1.703-3.975-1.798-4.113-.374-.541-1.272-.541-1.646 0-.095.138-.957 1.429-1.798 4.113-.874 2.788-.879 4.391-.879 4.458.001.55.448.994.999.995h.001c.55 0 .997-.446 1-.996 0-.007.005-.354.103-1.001h2.793c.099.647.104.993.104.998-.001.552.445 1.001.998 1.002h.002c.551 0 .999-.446 1-.998zm3-4.002c0-1.232-.059-2.604-.174-4.078-.043-.55-.527-.957-1.075-.919-.551.043-.962.524-.919 1.075.111 1.422.168 2.741.168 3.922s-.057 2.5-.168 3.922c-.043.551.368 1.032.919 1.075.543.044 1.034-.367 1.075-.919.115-1.474.174-2.846.174-4.078z"/></svg>