<svg id="Layer_1" viewBox="0 0 24 24" xmlns="http://www.w3.org/2000/svg" data-name="Layer 1"><path d="m5.127 4.491c.189-1.435.512-2.3.532-2.351.125-.325.41-.561.753-.624.115-.021 2.854-.516 5.58-.516s5.465.495 5.58.516c.372.068.675.341.78.704.017.059.289 1.017.473 2.266-1.541-.224-4.188-.542-6.833-.542-2.663 0-5.329.322-6.865.546zm6.865 1.454c-2.991 0-6.074.441-7.283.635-1.89 1.747-2.914 3.501-3.365 4.421h12.052c.502-.887 1.638-2.731 3.429-4.753-1.401-.159-3.133-.302-4.834-.302zm7.283.635c-.006 0-.012-.002-.019-.003-2.44 2.494-3.877 4.963-4.263 5.671.028 4.309.769 8.693 1.117 10.521 2.8-.293 4.967-.763 5.097-.792.381-.083.679-.381.762-.762.042-.19 1.023-4.713 1.023-9.214 0-.118-.021-.234-.062-.345-.042-.113-.984-2.606-3.656-5.076zm-6.27 6.421h-11.997c.125 4.148.968 8.038 1.007 8.214.083.381.381.679.762.762.19.042 4.714 1.023 9.215 1.023.71 0 1.418-.026 2.111-.068-.356-1.894-1.003-5.842-1.098-9.932z"/></svg>