<svg id="Layer_1" viewBox="0 0 24 24" xmlns="http://www.w3.org/2000/svg" data-name="Layer 1"><path d="m4 8.5c0-1.786.714-2.5 2.5-2.5s2.5.714 2.5 2.5-.714 2.5-2.5 2.5-2.5-.714-2.5-2.5zm13.5 1.5c1.786 0 2.5-.714 2.5-2.5s-.714-2.5-2.5-2.5-2.5.714-2.5 2.5.714 2.5 2.5 2.5zm1.059 1.918c-.331.053-.683.082-1.059.082-1.798 0-3.272-.714-4-1.872v-1.066c0-5.349-3.028-8.062-9-8.062-.828 0-1.5.672-1.5 1.5s.672 1.5 1.5 1.5c4.996 0 6 1.938 6 5.062.024.498-.015 1.905-.186 2.144-.721 1.167-2.01 1.793-3.814 1.793-.907 0-1.671-.174-2.314-.477-3.229 2.51-3.186 5.923-3.186 5.977 0 3.07 1.43 4.5 4.5 4.5s4.5-1.43 4.5-4.5c0-.025 0-.051-.003-.076-.117-1.554-.174-5.229 1.775-6.385 1.981 1.157 2.347 4.832 2.231 6.385-.002.025-.003.051-.003.076 0 3.07 1.43 4.5 4.5 4.5s4.5-1.43 4.5-4.5c0-.059-.194-4.058-4.441-6.582z"/></svg>