<svg id="Layer_1" viewBox="0 0 24 24" xmlns="http://www.w3.org/2000/svg" data-name="Layer 1"><path d="m14.59 10.01s.03 0 .04 0c-1.19 1.57-3.19 4.06-4.25 5.37-.62-.84-.46-1.57.46-2.7 1.03-1.26 2.59-2.58 3.75-2.67zm-.28 5.86c.95-1.17 1.77-3.01 1.68-4.35-1.26 1.65-3.13 3.97-4.11 5.19.34.2.64.3.9.29.44-.04.95-.42 1.53-1.13zm3.42-5.7c1.4-1.86 3.49-4.7 4.99-6.8.48-.67.33-1.61-.35-2.09-.67-.48-1.61-.33-2.09.35-1.48 2.07-3.54 4.88-4.92 6.71.97.32 1.86.95 2.37 1.84zm-9.14-.98c2.1-.08 2.94-.13 3.25-.15.27-.19.57-.35.86-.5 1.52-2.03 3.69-4.95 4.26-5.73-.44-.15-.95-.23-1.54-.23-.14 0-.28 0-.42.01-.53-1-1.56-1.51-3.08-1.51s-2.56.51-3.08 1.51c-.13 0-.27-.01-.42-.01-2.22 0-3.4 1.08-3.49 3.21-1.33.43-2.01 1.53-2.01 3.29 0 .3.02.58.06.85 1.29-.28 3.17-.58 5.62-.74zm13.67 3.17s-.15-.05-.36-.11c-.91-.23-2.25-.53-3.89-.78.09 1.96-.97 4.2-2.15 5.66-.97 1.19-1.9 1.78-2.92 1.86-1.09.08-2.04-.38-3.16-1.35-2.2-1.95-2.36-3.93-.49-6.23.07-.08.16-.19.26-.31-.69.05-1.57.12-2.64.23-3.38.36-5.21.99-5.32 1.03-.4.14-.67.52-.67.94v2.27c0 4.14 3.36 7.5 7.5 7.5h7c4.14 0 7.5-3.36 7.5-7.5v-2.27c0-.42-.27-.8-.67-.94z"/></svg>