<svg id="Layer_1" viewBox="0 0 24 24" xmlns="http://www.w3.org/2000/svg" data-name="Layer 1"><path d="m19.173 2.579c-.07-.326-.296-.597-.604-.721-.078-.031-1.275-.508-3.019-.858-.092 1.054-.233 1.672-.24 1.702-.075.318-.299.58-.601.702-.052.021-1.276.507-2.708.507-1.383 0-2.643-.482-2.696-.502-.308-.12-.538-.385-.613-.708-.007-.03-.148-.651-.24-1.696-1.728.349-2.933.819-3.012.85-.313.123-.543.397-.612.728-.034.161-.827 4.302-.827 9.377s.793 8.926.827 9.088c.069.333.302.608.618.73.129.05 3.19 1.222 6.555 1.222 3.482 0 6.443-1.177 6.567-1.227.31-.125.537-.396.606-.724.034-.16.827-3.983.827-9.09 0-5.151-.793-9.223-.827-9.381zm-6.173 17.421h-2c-.552 0-1-.448-1-1s.448-1 1-1h2c.552 0 1 .448 1 1s-.448 1-1 1z"/></svg>