<svg id="Layer_1" viewBox="0 0 24 24" xmlns="http://www.w3.org/2000/svg"><path d="m12 7c-5.111 0-8.874.818-10.668 1.305.294-2.112.681-3.489.707-3.58.095-.332.354-.592.687-.687.06-.017.688-.192 1.775-.393v-1.146c0-.829.671-1.5 1.5-1.5s1.5.671 1.5 1.5v.724c1.286-.13 2.797-.224 4.5-.224s3.214.093 4.5.224v-.724c0-.829.671-1.5 1.5-1.5s1.5.671 1.5 1.5v1.146c1.086.201 1.715.375 1.775.392.332.095.592.354.687.687.026.091.413 1.469.707 3.58-1.794-.488-5.558-1.305-10.668-1.305zm-3.314 8.002c-.292-.016-.571.116-.73.359-.023.035-.342.53-.706 1.431-.363-.9-.683-1.396-.706-1.431-.159-.243-.43-.374-.73-.359-.291.022-.546.201-.667.467-.053.116-1.305 2.907-1.446 6.701-.017.441.328.813.77.83.444 0 .813-.328.829-.77.063-1.697.375-3.189.678-4.272.175.508.35 1.122.487 1.833.073.377.402.648.786.648s.713-.271.786-.648c.137-.711.312-1.325.487-1.833.303 1.083.614 2.575.678 4.272.016.431.371.77.799.77h.03c.441-.017.786-.389.77-.83-.142-3.794-1.393-6.585-1.446-6.701-.121-.266-.376-.444-.667-.467zm8.214 3.998c0 1.094 0 4-2.75 4s-2.75-2.906-2.75-4 0-4 2.75-4 2.75 2.906 2.75 4zm-1.6 0c0-2.4-.638-2.4-1.15-2.4s-1.15 0-1.15 2.4.638 2.4 1.15 2.4 1.15 0 1.15-2.4zm7.463-3.339c-.077-.435-.498-.722-.926-.649-.435.076-.726.491-.65.926 0-.098.246 1.688.212 3.281l-1.857-3.772c-.153-.311-.489-.492-.831-.438-.342.049-.615.312-.675.653-.01.056-.236 1.372-.236 3.339s.227 3.283.236 3.339c.077.434.489.727.926.649.435-.076.726-.49.65-.926 0 .099-.245-1.686-.212-3.28l1.856 3.771c.152.312.494.487.831.438.343-.049.615-.312.675-.653.009-.056.237-1.372.237-3.339s-.228-3.283-.237-3.339zm-5.913-1.844c.418-.416.965-.701 1.58-.789.703-.113 1.407.061 1.976.453.317-.216.685-.369 1.087-.439.527-.09 1.042-.018 1.505.166.012-.945-.032-1.897-.097-2.751-1.03-.321-5.078-1.456-10.9-1.456s-9.871 1.135-10.9 1.456c-.061.797-.1 1.649-.1 2.544 0 3.341.527 6.119.831 7.443.389-3.347 1.446-5.694 1.498-5.807.419-.923 1.313-1.549 2.332-1.628.588-.026 1.13.098 1.592.356.461-.26.992-.388 1.541-.359.903.07 1.664.545 2.138 1.25 1.065-1.072 2.43-1.255 3.219-1.255.665 0 1.74.134 2.7.817z"/></svg>