<svg id="Layer_1" viewBox="0 0 24 24" xmlns="http://www.w3.org/2000/svg" data-name="Layer 1"><path d="m14 12c0 1.589-.411 2-2 2s-2-.411-2-2 .411-2 2-2 2 .411 2 2zm9 0c0 4.115-1.009 7.188-1.052 7.316-.14.419-.529.684-.948.684-.104 0-.211-.017-.315-.051-.029-.009-2.882-.949-5.185-.949-1.641 0-2.681.231-3.783.476-1.159.258-2.357.524-4.217.524-3.199 0-5.356-1.061-5.447-1.105-.261-.131-.452-.369-.522-.652-.022-.087-.53-2.167-.53-6.243 0-4.115 1.009-7.188 1.052-7.316.174-.523.74-.806 1.264-.632.029.009 2.882.949 5.185.949 1.641 0 2.681-.231 3.783-.476 1.159-.258 2.357-.524 4.217-.524 3.199 0 5.356 1.061 5.447 1.105.261.131.452.369.522.652.022.087.53 2.167.53 6.243zm-16 3.5c0-.828-.672-1.5-1.5-1.5s-1.5.672-1.5 1.5.672 1.5 1.5 1.5 1.5-.672 1.5-1.5zm0-7c0-.828-.672-1.5-1.5-1.5s-1.5.672-1.5 1.5.672 1.5 1.5 1.5 1.5-.672 1.5-1.5zm9 3.5c0-2.691-1.309-4-4-4s-4 1.309-4 4 1.309 4 4 4 4-1.309 4-4zm4 3.5c0-.828-.672-1.5-1.5-1.5s-1.5.672-1.5 1.5.672 1.5 1.5 1.5 1.5-.672 1.5-1.5zm0-7c0-.828-.672-1.5-1.5-1.5s-1.5.672-1.5 1.5.672 1.5 1.5 1.5 1.5-.672 1.5-1.5z"/></svg>