<svg id="Layer_1" viewBox="0 0 24 24" xmlns="http://www.w3.org/2000/svg" data-name="Layer 1"><path d="m14.759 13.623c0-1.519-1.185-2.871-2.703-2.871-.363 0-.696-.241-.694-.617 0-.35.285-.635.634-.635.183 0 .351.075.473.211.367.413.999.447 1.412.08.412-.368.447-1.001.079-1.412-.267-.298-.597-.522-.959-.672v-1.144c3.052.303 4.5 2.042 4.5 5.437s-1.448 5.134-4.5 5.437v-1.163c1.033-.437 1.759-1.461 1.759-2.651zm-4.979-.317c.52-.179 1.092.089 1.276.61.124.35.456.584.827.584.483 0 .876-.394.876-.877 0-.427-.334-.844-.764-.853-1.453 0-2.634-1.182-2.634-2.635 0-1.1.679-2.043 1.639-2.436v-1.136c-3.052.303-4.5 2.042-4.5 5.437s1.448 5.134 4.5 5.437v-1.076c-.838-.271-1.526-.919-1.83-1.779-.184-.52.089-1.092.61-1.276zm-7.306-.307c.824.019 1.514-.64 1.531-1.468.114-5.56 2.207-7.531 7.995-7.531 2.615 0 4.603.506 5.954 1.494l-.662.662c-.268.268-.361.664-.241 1.023.119.359.432.62.807.673.688.099 1.381.147 2.073.147s1.385-.049 2.072-.147c.439-.062.785-.408.849-.848.197-1.376.197-2.771 0-4.146-.054-.375-.315-.687-.674-.807-.359-.121-.756-.025-1.023.242l-1.052 1.052c-1.889-1.557-4.602-2.345-8.103-2.345-7.454 0-10.844 3.229-10.995 10.469-.017.829.641 1.514 1.469 1.531zm19.052-1.998c-.826-.038-1.514.64-1.531 1.468-.114 5.56-2.207 7.531-7.995 7.531-2.615 0-4.603-.506-5.954-1.494l.662-.662c.268-.268.361-.664.241-1.023-.119-.359-.432-.62-.807-.673-1.377-.197-2.77-.197-4.145 0-.439.062-.785.408-.849.848-.197 1.376-.197 2.771 0 4.146.063.484.504.865.99.858.261 0 .517-.103.707-.293l1.052-1.052c1.889 1.557 4.602 2.345 8.103 2.345 7.454 0 10.844-3.228 10.995-10.468.017-.829-.641-1.514-1.469-1.531z"/></svg>