<svg id="Layer_1" viewBox="0 0 24 24" xmlns="http://www.w3.org/2000/svg" data-name="Layer 1"><path d="m22.47 5.757c-.07-.283-.262-.521-.522-.652-.091-.045-2.248-1.105-5.447-1.105-1.859 0-3.058.266-4.217.524-1.103.245-2.143.476-3.783.476-2.303 0-5.155-.939-5.185-.949-.524-.173-1.089.109-1.264.632-.043.129-1.052 3.202-1.052 7.316 0 4.076.508 6.156.53 6.243.07.283.262.521.522.652.091.045 2.248 1.105 5.447 1.105 1.859 0 3.058-.266 4.217-.524 1.103-.245 2.143-.476 3.783-.476 2.303 0 5.155.939 5.185.949.104.035.211.051.315.051.419 0 .809-.265.948-.684.043-.129 1.052-3.202 1.052-7.316 0-4.076-.508-6.156-.53-6.243zm-16.97 11.243c-.828 0-1.5-.672-1.5-1.5s.672-1.5 1.5-1.5 1.5.672 1.5 1.5-.672 1.5-1.5 1.5zm0-7c-.828 0-1.5-.672-1.5-1.5s.672-1.5 1.5-1.5 1.5.672 1.5 1.5-.672 1.5-1.5 1.5zm7.5 5c0 .552-.447 1-1 1s-1-.448-1-1v-3.886c-.008.029-.015.06-.021.09-.113.54-.641.885-1.184.774-.54-.113-.887-.643-.773-1.184.295-1.414 1.327-2.449 2.76-2.771.293-.068.606.005.844.195s.375.477.375.781v6zm5.5 2c-.828 0-1.5-.672-1.5-1.5s.672-1.5 1.5-1.5 1.5.672 1.5 1.5-.672 1.5-1.5 1.5zm0-7c-.828 0-1.5-.672-1.5-1.5s.672-1.5 1.5-1.5 1.5.672 1.5 1.5-.672 1.5-1.5 1.5z"/></svg>