<svg id="Layer_1" viewBox="0 0 24 24" xmlns="http://www.w3.org/2000/svg" data-name="Layer 1"><path d="m20 20h-16c-.828 0-1.5.671-1.5 1.5s.672 1.5 1.5 1.5h16c.828 0 1.5-.671 1.5-1.5s-.672-1.5-1.5-1.5z"/><path d="m12 1c-.382 0-1.262 0-4.481 4h8.963c-3.22-4-4.1-4-4.482-4z"/><path d="m5 18.5h14c.553 0 1-.448 1-1s-.447-1-1-1h-1.5c.247-1.285.5-3.522.5-5.5 0-1.663-.286-3.044-.568-4h-4.432v8.5c0 .552-.447 1-1 1s-1-.448-1-1v-8.5h-4.432c-.281.956-.568 2.337-.568 4 0 1.978.253 4.215.5 5.5h-1.5c-.553 0-1 .448-1 1s.447 1 1 1z"/></svg>