<svg id="Layer_1" viewBox="0 0 24 24" xmlns="http://www.w3.org/2000/svg" data-name="Layer 1"><path d="m1.096 8c.431-2.275 2.194-3.713 2.279-3.781.365-.292.884-.292 1.249 0 .085.068 1.848 1.506 2.279 3.781zm5.896 2h-5.984c.061 4.505.49 11.486.494 11.562.029.467.377.851.838.926.085.014 1.508.24 3.834.383.236-2.152.758-7.482.818-12.87zm14.829 2c.749-.911 1.179-1.935 1.179-2.909 0-3.106-2.407-4.525-4.165-5.562-.902-.532-1.835-1.082-1.835-1.529 0-.552-.448-1-1-1s-1 .448-1 1c0 .448-.933.998-1.835 1.529-1.758 1.037-4.165 2.456-4.165 5.562 0 .973.43 1.998 1.179 2.909zm-12.949 2c-.181 3.855-.511 7.256-.696 8.959.576.017 2.824.027 2.824.027s1 .014 1-.986v-2.5c0-1.071.429-1.5 1.5-1.5s1.5.429 1.5 1.5v2.5c0 .552.448 1 1 1s1-.448 1-1v-2.5c0-1.071.429-1.5 1.5-1.5s1.5.429 1.5 1.5v2.411c0 .465.432.811.887.712.48-.104.839-.186.839-.186.418-.097.729-.451.771-.879.003-.034.305-3.191.439-6.557.013-.323.065-1-.935-1h-13.129z"/></svg>