<?xml version="1.0" encoding="UTF-8"?>
<svg xmlns="http://www.w3.org/2000/svg" id="Layer_1" data-name="Layer 1" viewBox="0 0 24 24">
  <path d="M16.354,8.624c2.751,0,3.329-1.816,3.329-3.34s-.578-3.34-3.329-3.34-3.329,1.816-3.329,3.34,.578,3.34,3.329,3.34Z"/>
  <path d="M22.977,20.073c-1.254-5.719-5.243-9.065-5.412-9.205-.37-.306-.904-.305-1.274,0-.169,.14-4.152,3.486-5.406,9.205-.112,.508,.185,1.017,.682,1.17,1.754,.541,3.559,.812,5.364,.812s3.609-.271,5.364-.812c.497-.153,.794-.662,.682-1.17Z"/>
  <path d="M8.932,19.644c.916-4.18,3.099-7.192,4.596-8.856-1.554-1.989-3.611-3.876-3.673-3.926-.37-.295-.895-.289-1.26,.011-.236,.196-5.812,4.879-7.571,12.899-.112,.508,.185,1.017,.682,1.17,2.062,.636,4.188,1.01,6.32,1.112,.016,0,.032,0,.049,0,.422,0,.863-.222,1.039-.582-.244-.561-.321-1.198-.181-1.83Z"/>
</svg>
