<?xml version="1.0" encoding="UTF-8"?>
<svg xmlns="http://www.w3.org/2000/svg" id="Layer_1" data-name="Layer 1" viewBox="0 0 24 24">
  <path d="M19.32,5.874c-.077-.334-.319-.606-.642-.72-.108-.038-2.321-.809-5.178-1.031v-1.623c0-.829-.671-1.5-1.5-1.5s-1.5,.671-1.5,1.5v1.623c-2.852,.223-5.067,.992-5.175,1.03-.321,.113-.563,.382-.641,.714-.035,.147-.852,3.674-.838,9.194,.01,4.377,3.669,7.939,8.156,7.939s8.154-3.548,8.154-7.91c0-5.494-.801-9.067-.835-9.216Zm-6.32,4.962c0,.552-.448,1-1,1s-1-.448-1-1v-2.113c0-.552,.448-1,1-1s1,.448,1,1v2.113Z"/>
</svg>
