<svg id="Layer_1" viewBox="0 0 24 24" xmlns="http://www.w3.org/2000/svg" data-name="Layer 1"><path d="m21 17.5c0 .829-.672 1.5-1.5 1.5h-10.335c-2.42 0-4.122.131-5.157.247-.013.156-.013.349 0 .506 1.035.116 2.737.247 5.157.247h5.333c.828 0 1.5.671 1.5 1.5s-.672 1.5-1.5 1.5h-5.333c-2.679 0-4.552-.155-5.65-.284-1.285-.152-2.299-1.143-2.465-2.409-.067-.47-.068-1.142 0-1.61.166-1.27 1.18-2.261 2.465-2.413.16-.019.341-.038.534-.057.233-3.552 1.469-5.877 3.857-7.118.65 1.104 1.632 1.938 2.918 2.428.882 1.759 2.75 3.463 6.677 3.463h.35c.036.308.065.65.091 1h1.559c.828 0 1.5.671 1.5 1.5zm-1.186-14.195c.122.624.186 1.315.186 2.085 0 .238-.005.465-.016.685-.029.585-.573 1.007-1.152.917-.513-.08-.868-.537-.844-1.055.008-.175.012-.358.012-.546 0-2.89-1.312-4.396-4.5-4.39-3.07 0-4.5 1.43-4.5 4.5 0 2.43 1.113 3.921 3.314 4.397.651 2.105 2.334 3.103 5.186 3.103h2.513c1.65 0 2.987-1.337 2.987-2.987v-1.513c0-2.867-1.031-4.554-3.186-5.195z"/></svg>