<svg id="Layer_1" viewBox="0 0 24 24" xmlns="http://www.w3.org/2000/svg" data-name="Layer 1"><path d="m12 11c-2.299 0-3 .701-3 3s.701 3 3 3 3-.701 3-3-.701-3-3-3zm0 4.5c-1.071 0-1.5-.429-1.5-1.5s.429-1.5 1.5-1.5 1.5.429 1.5 1.5-.429 1.5-1.5 1.5zm8.091-12.989c-.083-.398-.399-.707-.8-.78-.163-.03-4.038-.73-7.291-.73s-7.128.7-7.291.73c-.4.073-.717.382-.8.78-.037.18-.909 4.444-.909 9.489s.872 9.31.909 9.489c.083.398.399.707.8.78.163.03 4.038.73 7.291.73s7.128-.7 7.291-.73c.4-.073.717-.382.8-.78.037-.18.909-4.444.909-9.489s-.872-9.31-.909-9.489zm-12.205 2.76c1.562-.181 2.947-.271 4.114-.271s2.552.091 4.114.271c.549.062.942.559.879 1.107-.061.55-.569.945-1.107.879-1.487-.171-2.795-.258-3.886-.258s-2.398.087-3.886.258c-.554.071-1.044-.33-1.107-.879s.33-1.045.879-1.107zm4.114 13.729c-3.411 0-5-1.589-5-5s1.589-5 5-5 5 1.589 5 5-1.589 5-5 5z"/></svg>