<?xml version="1.0" encoding="UTF-8"?>
<svg xmlns="http://www.w3.org/2000/svg" id="Layer_1" data-name="Layer 1" viewBox="0 0 24 24">
  <path d="M19.076,8.285l.183-1.145c.084-.528-.262-1.029-.786-1.137-.141-.029-3.495-.708-7.442-.708s-7.301,.679-7.442,.708c-.524,.107-.871,.608-.786,1.137l1.637,10.264c.055,.347,.288,.639,.613,.771,.077,.03,1.931,.76,5.979,.76s5.901-.729,5.978-.76c.325-.132,.558-.424,.613-.771l.088-.552c.138,0,.309-.003,.525-.006l.171-.002c2.35,0,4.262-1.932,4.262-4.307,0-2.144-1.526-3.926-3.591-4.253Zm-.67,5.559l-.214,.003s-.002,0-.003,0l.415-2.6c.603,.099,1.064,.649,1.064,1.29,0,.721-.566,1.307-1.262,1.307Z"/>
  <path d="M19.229,20H2.833c-.829,0-1.5,.672-1.5,1.5s.671,1.5,1.5,1.5H19.229c.829,0,1.5-.672,1.5-1.5s-.671-1.5-1.5-1.5Z"/>
  <path d="M11.031,4.176c.552,0,1-.447,1-1v-1.176c0-.553-.448-1-1-1s-1,.447-1,1v1.176c0,.553,.448,1,1,1Z"/>
  <path d="M15.077,4.469c.552,0,1-.447,1-1v-1.175c0-.553-.448-1-1-1s-1,.447-1,1v1.175c0,.553,.448,1,1,1Z"/>
  <path d="M6.984,4.469c.552,0,1-.447,1-1v-1.175c0-.553-.448-1-1-1s-1,.447-1,1v1.175c0,.553,.448,1,1,1Z"/>
</svg>
