<?xml version="1.0" encoding="UTF-8"?>
<svg xmlns="http://www.w3.org/2000/svg" id="Layer_1" data-name="Layer 1" viewBox="0 0 24 24">
  <path d="M19.358,5.123l.233-1.858c.065-.52-.281-1.001-.794-1.105-.147-.029-3.638-.724-7.748-.724s-7.601,.694-7.748,.724c-.513,.104-.859,.585-.794,1.105l1.706,13.611c.045,.362,.285,.671,.624,.805,.08,.032,2.003,.774,6.212,.774s6.133-.743,6.212-.774c.339-.134,.579-.443,.624-.805l.289-2.309c.01,0,.019,0,.029,0,2.645,0,4.796-2.149,4.796-4.792,0-2.247-1.522-4.137-3.642-4.653Zm-.803,6.41l.423-3.377c.61,.288,1.022,.905,1.022,1.62,0,.868-.622,1.594-1.445,1.757Z"/>
  <path d="M19.598,19.563H2.5c-.829,0-1.5,.671-1.5,1.5s.671,1.5,1.5,1.5H19.598c.829,0,1.5-.671,1.5-1.5s-.671-1.5-1.5-1.5Z"/>
</svg>
