<?xml version="1.0" encoding="UTF-8"?>
<svg xmlns="http://www.w3.org/2000/svg" id="Layer_1" data-name="Layer 1" viewBox="0 0 24 24">
  <path d="M9.871,4.242c.553,0,1-.448,1-1v-1.242c0-.552-.447-1-1-1s-1,.448-1,1v1.242c0,.552,.447,1,1,1Z"/>
  <path d="M14.135,4.863c.553,0,1-.448,1-1v-1.242c0-.552-.447-1-1-1s-1,.448-1,1v1.242c0,.552,.447,1,1,1Z"/>
  <path d="M5.608,4.863c.553,0,1-.448,1-1v-1.242c0-.552-.447-1-1-1s-1,.448-1,1v1.242c0,.552,.447,1,1,1Z"/>
  <path d="M18.633,8.895h-.725v-.668c0-.35-.183-.674-.481-.855-.12-.073-2.993-1.784-7.556-1.784s-7.435,1.711-7.555,1.784c-.299,.181-.481,.505-.481,.855v8.471c0,3.111,2.221,5.719,5.28,6.2,.438,.069,1.597,.103,2.756,.103s2.318-.034,2.756-.103c2.899-.456,5.045-2.82,5.263-5.713h.743c1.947,0,3.532-1.54,3.532-3.432v-1.425c0-1.892-1.585-3.432-3.532-3.432Zm.532,4.857c0,.234-.244,.432-.532,.432h-.725v-2.289h.725c.288,0,.532,.198,.532,.432v1.425Z"/>
</svg>
