<?xml version="1.0" encoding="UTF-8"?>
<svg xmlns="http://www.w3.org/2000/svg" id="Layer_1" data-name="Layer 1" viewBox="0 0 24 24">
  <path d="M19.433,8.18h-.508v-1.562c.583-.066,1.099-.471,1.274-1.071,.231-.795-.226-1.628-1.021-1.859-.144-.042-3.583-1.025-8.616-1.025-5.172,0-8.382,.993-8.516,1.035-.79,.249-1.229,1.092-.979,1.882,.17,.539,.615,.913,1.132,1.019v1.88H12.994c.545,0,.987,.441,.987,.986s-.441,.986-.987,.986H2.197v6.577c0,1.814,1.16,3.403,2.887,3.953,.743,.237,3.109,.355,5.477,.355s4.735-.118,5.478-.355c1.726-.551,2.886-2.139,2.886-3.953v-.146h.508c1.967,0,3.567-1.607,3.567-3.582v-1.536c0-1.975-1.601-3.582-3.567-3.582Zm.567,5.118c0,.321-.255,.582-.567,.582h-.508v-2.7h.508c.312,0,.567,.261,.567,.582v1.536Z"/>
</svg>
