<?xml version="1.0" encoding="UTF-8"?>
<svg xmlns="http://www.w3.org/2000/svg" id="Layer_1" data-name="Layer 1" viewBox="0 0 24 24">
  <path d="M22.571,15.857c.16-1.417,.29-4.164,.29-6.122,0-4.828-.803-6.537-.964-6.831-.144-.261-.361-.474-.625-.61-.131-.067-3.243-1.653-6.864-1.218-4.447,.533-6.888,3.536-6.989,3.664-.115,.145-.203,.31-.259,.485-.034,.111-.848,2.761-.848,7.583,0,.532,.009,1.069,.027,1.605-.295-.039-.609-.058-.944-.058-2.825,0-4.258,1.455-4.258,4.323,0,2.909,1.393,4.322,4.258,4.322,2.824,0,4.257-1.454,4.257-4.322,0-.419-.029-.806-.087-1.163-.165-1.494-.253-3.12-.253-4.706,0-.926,.032-1.761,.083-2.502,.944-.818,2.703-2.009,5.191-2.307,2.212-.265,4.226,.34,5.261,.742,.008,.312,.013,.643,.013,.994,0,.81-.024,1.78-.064,2.722-.435-.101-.923-.151-1.462-.151-2.824,0-4.257,1.455-4.257,4.323,0,2.909,1.393,4.322,4.258,4.322,2.824,0,4.257-1.454,4.257-4.322,0-.247-.024-.751-.022-.772Z"/>
</svg>
