<?xml version="1.0" encoding="UTF-8"?>
<svg xmlns="http://www.w3.org/2000/svg" id="Layer_1" data-name="Layer 1" viewBox="0 0 24 24">
  <path d="M4.602,9.054c1.698,.159,3.415,.264,5.1,.313l.569,.016c.353,.01,.675,.205,.847,.513l.277,.497c.256,.444,.951,.452,1.211,0l.28-.485c.166-.287,.464-.474,.795-.498l.574-.042c1.729-.051,3.446-.156,5.147-.315,.704-.069,1.408,.071,2.028,.383,.137-1.948-.01-3.91-.435-5.756-.289-1.253-1.324-2.203-2.576-2.362-4.259-.546-8.578-.545-12.835,0-1.252,.16-2.287,1.109-2.577,2.363-.425,1.844-.572,3.805-.435,5.752,.612-.309,1.311-.447,2.031-.379Z"/>
  <path d="M21.85,14.884c.123-.432,.228-.877,.313-1.323,.129-.666-.061-1.338-.519-1.844-.468-.515-1.167-.779-1.856-.719-1.726,.162-3.721,.269-5.446,.319-.173,.005-.346,.125-.433,.275-.399,.692-1.112,1.104-1.908,1.104s-1.509-.413-1.925-1.133c-.087-.148-.245-.241-.417-.247-1.725-.05-3.678-.157-5.403-.319-.691-.062-1.389,.203-1.857,.719-.458,.505-.648,1.178-.52,1.844,.086,.445,.19,.891,.313,1.322,.246,.864,.98,1.483,1.871,1.578,2.076,.22,4.297,.351,6.439,.393-.002,.028-.003,.056-.003,.085v1.339c-.217,.159-.409,.352-.567,.57H3.596c-.829,0-1.5,.671-1.5,1.5s.671,1.5,1.5,1.5h6.337c.464,.642,1.217,1.061,2.067,1.061s1.602-.419,2.067-1.061h6.337c.829,0,1.5-.671,1.5-1.5s-.671-1.5-1.5-1.5h-6.337c-.158-.219-.349-.411-.567-.57v-1.339c0-.028,0-.057-.003-.085,2.153-.042,4.404-.173,6.481-.393,.891-.094,1.625-.714,1.871-1.577Z"/>
</svg>
