<svg id="Layer_1" viewBox="0 0 24 24" xmlns="http://www.w3.org/2000/svg" data-name="Layer 1"><path d="m12.216 10.972c-.429-.16-.677.034-1.216.028 0-.191.034-.421.062-.574.68-1.136 1.871-2.391 2.844-3.19.281.041.532.083.74.119.018.104.038.219.058.342-1.254.668-2.121 1.797-2.487 3.276zm-2.33 1.905c-.382-.083-.68-.381-.763-.762-.143-.14-.123-2.155.018-2.279.022-.093.057-.182.104-.265.91-1.604 2.594-3.292 3.773-4.183.209-.158.47-.228.732-.193 1.123.146 1.928.32 1.962.327.382.084.68.382.764.763.007.033.072.338.152.797.32-.044.644-.082.99-.082 1.416 0 2.451.361 3.226.844-.255-2.791-.74-5.032-.768-5.158-.083-.381-.381-.678-.762-.762-.171-.038-4.252-.924-8.314-.924s-8.143.886-8.314.924c-.381.084-.679.381-.762.762-.038.172-.923 4.253-.923 8.314s.885 8.143.923 8.314c.083.381.381.678.762.762.161.036 3.759.817 7.555.914-.224-1.125-.324-2.774-.144-4.015-1.97-.1-3.727-.48-3.812-.499-.381-.083-.679-.381-.762-.762-.021-.098-.523-2.41-.523-4.715-.077-.915.403-4.417.522-4.711.083-.383.381-.682.763-.766.036-.008.9-.196 2.091-.345.432-.05.85.179 1.032.575s.086.864-.237 1.157c-.61.555-1.307 1.337-2.069 2.312-.065.65-.103 1.242-.103 1.777 0 1.398.213 2.842.354 3.646.7.123 1.883.3 3.1.344.056-.231.099-.383.114-.434.194-.674.62-1.227 1.176-1.614-.397.117-1.725.007-1.858-.065zm13.113 5.623c0 1.678-.47 3.32-.49 3.39-.095.33-.354.588-.684.683-.061.018-1.518.428-4.327.428s-4.266-.41-4.327-.428c-.33-.095-.588-.353-.684-.683-.02-.069-.49-1.712-.49-3.39s.47-3.32.49-3.39c.095-.33.354-.588.684-.683.027-.008.347-.094.924-.187-.131-.473-.094-1.148-.098-1.623 0-2.333 1.285-3.618 3.619-3.618 1.576 0 2.659.562 3.22 1.671.374.739.078 1.642-.662 2.016-.732.369-1.628.082-2.007-.646.035-.034-1.163-.054-1.129.028-.047.391-.111 1.447.088 1.938.126-.002.24-.007.372-.007 2.809 0 4.266.41 4.327.428.33.095.588.353.684.683.02.069.49 1.712.49 3.39zm-4.5-.5c0-.553-.448-1-1-1s-1 .447-1 1v1c0 .553.448 1 1 1s1-.447 1-1z"/></svg>