<svg id="Layer_1" viewBox="0 0 24 24" xmlns="http://www.w3.org/2000/svg" data-name="Layer 1"><path d="m13.906 7.235c.281.041.532.083.74.119.04.23.086.516.132.835-.099.018-.157.031-.157.031-.883.188-1.627.758-2.037 1.554-.06.115-.172.35-.299.703-.89.194-.995.215-1.272.327.012-.138.03-.275.049-.379.679-1.135 1.871-2.39 2.844-3.19zm-7.621 9.241c-.381-.083-.679-.381-.762-.762-.021-.098-.523-2.41-.523-4.715-.077-.915.403-4.417.522-4.711.083-.383.381-.682.763-.766.036-.008.9-.196 2.091-.345.433-.05.85.179 1.032.575s.086.864-.237 1.157c-.61.555-1.307 1.337-2.069 2.312-.065.65-.103 1.242-.103 1.777 0 1.398.213 2.842.354 3.646.478.084 1.184.193 1.97.268-.072-.149-.158-.29-.205-.454-.203-.697-.126-1.405.144-2.025-.062-.097-.114-.202-.139-.319-.143-.14-.123-2.155.018-2.279.022-.093.057-.182.104-.265.909-1.603 2.593-3.292 3.773-4.183.209-.158.469-.229.732-.193 1.123.146 1.928.32 1.962.327.382.084.68.382.764.763.011.052.159.744.295 1.719 1.195-.051 2.751.223 2.652.221.581.121 1.104.435 1.516.871-.199-3.345-.83-6.267-.862-6.411-.083-.381-.381-.678-.762-.762-.171-.038-4.252-.924-8.314-.924s-8.144.888-8.315.926c-.381.084-.679.381-.762.762-.038.172-.923 4.253-.923 8.314s.885 8.143.923 8.314c.083.381.381.678.762.762.162.036 3.823.829 7.657.915-.152-.911-.312-2.276-.334-4.022-1.933-.107-3.639-.474-3.722-.493zm15.994-3.812c-.056-.016-.891-.253-2.186-.439.017-.599-.413-1.491-.431-1.528-.138-.269-.39-.46-.685-.521-.034-.008-.854-.176-1.977-.176s-1.929.169-1.962.177c-.293.062-.542.253-.679.52-.028.062-.441.909-.431 1.526-1.308.187-2.152.426-2.208.443-.53.154-.834.709-.68 1.238.131.453.556.721 1.005.701-.029.606-.045 1.259-.045 1.967 0 3.184.514 5.098.536 5.178.087.319.327.575.64.683.068.022 1.683.568 3.825.568s3.757-.546 3.825-.568c.313-.107.553-.363.64-.683.022-.08.536-1.994.536-5.178 0-.702-.016-1.351-.044-1.953.015 0 .029.006.044.006.434 0 .833-.284.96-.722.154-.529-.15-1.084-.68-1.238z"/></svg>