<svg id="Layer_1" viewBox="0 0 24 24" xmlns="http://www.w3.org/2000/svg" data-name="Layer 1"><path d="m9.172 6.911c.323-.293.419-.761.237-1.157-.183-.396-.596-.625-1.033-.575-1.19.148-2.055.337-2.091.345-.382.084-.68.383-.763.766-.12.299-.599 3.783-.522 4.711 0 2.305.502 4.617.523 4.715.083.381.381.679.762.762.086.019 1.88.408 3.877.502-.657 1.024-1.043 2.21-1.097 3.455l-.021.502c-3.322-.202-6.213-.828-6.357-.86-.381-.084-.678-.381-.762-.762-.038-.172-.924-4.253-.924-8.314s.885-8.144.923-8.315c.084-.381.381-.678.762-.762.172-.038 4.253-.924 8.314-.924s8.143.886 8.314.924c.381.084.678.381.762.762.032.145.669 3.088.865 6.448-1.386-.241-2.863.068-3.97.899-.105-1.944-.476-3.664-.495-3.747-.084-.381-.382-.679-.764-.763-.034-.007-.84-.182-1.963-.327-.259-.034-.523.036-.731.193-1.181.892-2.864 2.58-3.773 4.183-.047.083-.082.172-.104.265-.141.125-.161 2.14-.019 2.278.083.382.381.68.763.763.119.132 2.11.132 2.229 0 .538-.117.879-.648.763-1.188-.117-.539-.642-.878-1.188-.767-.1.021-.418.077-.688.077 0-.191.034-.421.062-.574.68-1.135 1.871-2.39 2.845-3.19.28.041.531.083.739.119.142.804.354 2.247.354 3.646 0 .314-.012.63-.03.941l-3.03 3.029c-.311.018-.626.03-.94.03-1.398 0-2.842-.213-3.646-.354-.142-.804-.354-2.247-.354-3.646 0-.534.039-1.137.103-1.778.771-.987 1.452-1.751 2.069-2.311zm12.953 4.94c-.015-.015-.029-.029-.046-.043-1.081-1.042-3.137-1.021-4.178.029l-5.419 5.418c-.86.868-1.365 2.026-1.42 3.264l-.062 1.438c-.037.569.475 1.08 1.043 1.042l1.43-.062c1.232-.056 2.387-.564 3.246-1.432l5.417-5.418c1.156-1.165 1.151-3.065-.012-4.235z"/></svg>