<svg id="Layer_1" viewBox="0 0 24 24" xmlns="http://www.w3.org/2000/svg" data-name="Layer 1"><path d="m12.528 11.145c-.228-.188-.526-.286-.84-.222-.1.021-.418.077-.688.077 0-.191.034-.421.062-.574.679-1.135 1.871-2.39 2.844-3.19.28.041.531.083.739.119.113.639.269 1.684.328 2.788-.93.176-1.75.518-2.446 1.002zm-6.242 5.332c-.381-.083-.679-.381-.762-.762-.021-.098-.523-2.41-.523-4.715-.077-.915.403-4.417.522-4.711.083-.383.381-.682.763-.766.036-.008.9-.196 2.091-.345.432-.05.85.179 1.032.575s.086.864-.237 1.157c-.61.555-1.307 1.337-2.069 2.312-.065.65-.103 1.242-.103 1.777 0 1.398.213 2.842.354 3.646.64.113 1.684.269 2.788.328.138-.73.38-1.392.711-1.981-.481-.017-.915-.105-.967-.117-.382-.083-.68-.381-.763-.762-.143-.14-.123-2.155.018-2.279.022-.093.057-.182.104-.265.909-1.603 2.593-3.291 3.773-4.183.208-.157.473-.228.731-.193 1.123.146 1.929.32 1.963.327.382.084.68.382.764.763.018.084.388 1.796.494 3.734 1.633.087 3.003.629 4.023 1.537.004-.185.007-.371.007-.556 0-4.062-.886-8.143-.924-8.314-.084-.381-.381-.678-.762-.762-.172-.038-4.253-.924-8.314-.924s-8.143.888-8.314.926c-.381.084-.679.381-.762.762-.038.172-.923 4.253-.923 8.314s.885 8.143.923 8.314c.083.381.381.678.762.762.171.038 4.252.924 8.314.924.185 0 .371-.004.556-.007-.908-1.02-1.449-2.389-1.537-4.023-1.938-.106-3.65-.475-3.734-.494zm16.275 3.963-1.926-1.926c.234-.584.366-1.253.366-2.013 0-2.817-1.683-4.5-4.5-4.5s-4.5 1.683-4.5 4.5 1.683 4.5 4.5 4.5c.76 0 1.429-.132 2.013-.366l1.926 1.926c.586.586 1.535.586 2.121 0s.586-1.535 0-2.121z"/></svg>