<?xml version="1.0" encoding="UTF-8"?>
<svg xmlns="http://www.w3.org/2000/svg" id="Layer_1" data-name="Layer 1" viewBox="0 0 24 24">
  <path d="M4.124,5.459c.047,0,.094-.002,.141-.007l15.748-1.459c.824-.076,1.432-.807,1.354-1.632-.076-.825-.819-1.446-1.632-1.354L3.987,2.466c-.824,.076-1.432,.807-1.354,1.632,.071,.777,.726,1.361,1.491,1.361Z"/>
  <path d="M19.829,6.73H4.171c-.828,0-1.5,.672-1.5,1.5,0,.618,.375,1.149,.909,1.379,.009,.711,.206,1.419,.59,2.053,.201,.333,.201,.764,0,1.097-.787,1.298-.787,2.911,0,4.21,.202,.334,.202,.765-.005,1.106-.784,1.296-.784,2.905,0,4.201,.281,.466,.777,.724,1.284,.724,.265,0,.532-.069,.775-.217,.709-.429,.936-1.351,.507-2.06-.201-.333-.201-.763,.006-1.104,.784-1.296,.784-2.906-.004-4.208-.201-.333-.201-.764,0-1.097,.787-1.298,.787-2.911,0-4.209-.07-.116-.116-.244-.137-.375h1.326c.029,.669,.224,1.333,.586,1.932,.202,.333,.201,.764,0,1.097-.787,1.298-.788,2.909,0,4.212,.201,.332,.201,.763-.005,1.104-.784,1.296-.784,2.905,0,4.201,.281,.466,.777,.724,1.284,.724,.265,0,.532-.069,.775-.217,.709-.429,.936-1.351,.507-2.06-.201-.333-.201-.763,.005-1.104,.785-1.297,.784-2.908-.003-4.206-.202-.334-.202-.766,0-1.099,.787-1.298,.787-2.911,0-4.208-.07-.116-.116-.244-.137-.376h1.326c.029,.669,.224,1.333,.586,1.932,.201,.333,.201,.764,0,1.097-.787,1.298-.787,2.911,.002,4.212,.201,.332,.201,.763-.005,1.104-.785,1.296-.785,2.907,0,4.203,.282,.466,.777,.723,1.284,.723,.266,0,.533-.07,.776-.217,.709-.43,.935-1.353,.506-2.061-.202-.332-.202-.762,.005-1.104,.785-1.297,.784-2.908-.004-4.208-.201-.333-.201-.764,0-1.097,.787-1.298,.787-2.911,0-4.208-.07-.116-.116-.244-.137-.376h4.55c.828,0,1.5-.672,1.5-1.5s-.672-1.5-1.5-1.5Z"/>
</svg>
