<svg id="Layer_1" viewBox="0 0 24 24" xmlns="http://www.w3.org/2000/svg" data-name="Layer 1"><path d="m4 17.5c0 2.147.636 2.382 1.685 2.512.822.102 1.406.851 1.304 1.673-.098.826-.867 1.409-1.673 1.304-2.863-.354-4.315-2.201-4.315-5.488s1.452-5.134 4.315-5.488c.82-.103 1.571.481 1.673 1.304.102.822-.482 1.571-1.304 1.673-1.048.13-1.685.364-1.685 2.512zm19-.584c0-1.351-.667-2.674-2.039-4.045-.988-.988-2.526-2.304-2.963-2.675-.473-.61-2.999-4.044-2.999-7.696 0-.828-.671-1.5-1.5-1.5s-1.5.672-1.5 1.5c0 5.073 3.604 9.512 3.758 9.698.232.272 1.835 1.545 3.083 2.794.77.77 1.16 1.417 1.16 1.924s-.39 1.155-1.16 1.925-1.417 1.159-1.924 1.159c-.449 0-1.446-.214-2.33-.472-.367-.391-1.566-1.528-3.086-1.528-1.612 0-2.5.888-2.5 2.5s.888 2.5 2.5 2.5h5.5s-.003-.004-.004-.005c1.322-.026 2.621-.689 3.966-2.033 1.372-1.371 2.039-2.694 2.039-4.046z"/></svg>