<svg id="Layer_1" viewBox="0 0 24 24" xmlns="http://www.w3.org/2000/svg" data-name="Layer 1"><path d="m21.97 3.757c-.082-.332-.329-.598-.653-.706-.129-.043-3.225-1.051-9.316-1.051s-9.189 1.008-9.317 1.051c-.324.108-.571.375-.654.706-.031.126-.593 2.398-.873 5.243h21.686c-.28-2.844-.842-5.117-.873-5.243zm-16.47 3.243c-.83 0-1.5-.671-1.5-1.5s.67-1.5 1.5-1.5 1.5.67 1.5 1.5-.67 1.5-1.5 1.5zm4 0c-.83 0-1.5-.671-1.5-1.5s.67-1.5 1.5-1.5 1.5.67 1.5 1.5-.67 1.5-1.5 1.5zm13.479 4h-21.958c-.012.332-.021.665-.021 1 0 4.076.988 8.074 1.03 8.242.083.332.33.599.654.706.129.043 3.224 1.052 9.316 1.052s9.187-1.009 9.316-1.052c.324-.107.571-.374.653-.706.042-.168 1.03-4.166 1.03-8.242 0-.335-.009-.668-.021-1zm-15.686 5.707c-.391-.391-.391-1.023 0-1.414l.293-.293-.293-.293c-.391-.391-.391-1.023 0-1.414s1.023-.391 1.414 0l.293.293.293-.293c.391-.391 1.023-.391 1.414 0s.391 1.023 0 1.414l-.293.293.293.293c.391.391.391 1.023 0 1.414-.195.195-.451.293-.707.293s-.512-.098-.707-.293l-.293-.293-.293.293c-.195.195-.451.293-.707.293s-.512-.098-.707-.293zm8.155 2.887c-.14.419-.529.684-.948.684-.587-.053-.671-.26-2.5-.278-1.445 0-2.185.227-2.192.229-.523.167-1.086-.123-1.255-.645s.11-1.082.631-1.255c.101-.034 1.039-.329 2.816-.329s2.716.295 2.816.329c.523.175.807.741.632 1.265zm1.259-4.301c.391.391.391 1.023 0 1.414-.195.195-.451.293-.707.293s-.512-.098-.707-.293l-.293-.293-.293.293c-.195.195-.451.293-.707.293s-.512-.098-.707-.293c-.391-.391-.391-1.023 0-1.414l.293-.293-.293-.293c-.391-.391-.391-1.023 0-1.414s1.023-.391 1.414 0l.293.293.293-.293c.391-.391 1.023-.391 1.414 0s.391 1.023 0 1.414l-.293.293z"/></svg>