<svg id="Layer_1" viewBox="0 0 24 24" xmlns="http://www.w3.org/2000/svg" data-name="Layer 1"><path d="m22.95 15.88c-.207.807-1.051 1.281-1.83 1.071-.037-.01-3.709-.951-9.12-.951-.08 0-.156.002-.236.003l-2.908 6.14c-.355.756-1.266 1.064-1.998.713-.748-.354-1.067-1.249-.713-1.998l2.234-4.716c-3.363.263-5.47.802-5.499.81-.798.208-1.619-.27-1.83-1.071-.21-.801.268-1.62 1.068-1.83.142-.037 3.113-.805 7.726-1.003l1.44-3.039c-5.014.077-8.369.934-8.404.944-.798.208-1.619-.27-1.83-1.071-.21-.801.268-1.62 1.068-1.83.163-.043 4.055-1.05 9.882-1.05.24 0 .472.004.705.007l2.44-5.152c.354-.748 1.246-1.069 1.998-.713.748.354 1.067 1.249.713 1.998l-1.901 4.014c3.575.284 5.805.861 5.928.894.801.21 1.278 1.029 1.068 1.83-.177.674-.785 1.12-1.45 1.12-.126 0-.253-.016-.38-.049-.031-.008-2.58-.659-6.547-.878l-1.394 2.942c5.166.121 8.551.995 8.703 1.035.801.21 1.278 1.029 1.068 1.83z"/></svg>