<svg id="Layer_1" viewBox="0 0 24 24" xmlns="http://www.w3.org/2000/svg" data-name="Layer 1"><path d="m22.43 17.041-5.742 5.742c-.091-2.738.081-4.595.203-5.511 1.069-.14 3.234-.357 5.539-.232zm-7.385-.866c.087-.396.404-.7.804-.77.144-.025 3.406-.584 7.003-.343.088-1.074.148-2.113.148-3.062 0-4.501-.981-9.024-1.023-9.214-.083-.381-.381-.679-.762-.762-.19-.042-4.713-1.023-9.214-1.023s-9.025.98-9.215 1.022c-.381.083-.679.381-.762.762-.042.19-1.023 4.713-1.023 9.214s.981 9.024 1.023 9.214c.083.381.381.679.762.762.19.042 4.713 1.023 9.214 1.023.84 0 1.75-.047 2.69-.116-.147-4.35.335-6.614.355-6.709z"/></svg>