<svg id="Layer_1" viewBox="0 0 24 24" xmlns="http://www.w3.org/2000/svg" data-name="Layer 1"><path d="m6.999 14.307c-.033.807-.698 1.439-1.498 1.439-1.418-.039-2.797-.413-2.815-.423-.555-.159-.969-.622-1.065-1.191 0 0-.106-.626-.23-1.393-.133-.818.423-1.588 1.24-1.72.826-.129 1.589.422 1.721 1.241.021.127.041.25.061.367.33.054.728.103 1.15.12.827.034 1.471.732 1.438 1.56zm5.261-9.957c.123.02.242.04.355.058.06.355.114.769.133 1.162.037.804.7 1.43 1.497 1.43.023 0 .047 0 .07-.001.828-.039 1.468-.741 1.429-1.568-.06-1.288-.394-2.638-.408-2.695-.144-.577-.615-1.014-1.202-1.115 0 0-.627-.107-1.394-.231-.825-.135-1.589.422-1.721 1.241-.133.818.423 1.588 1.24 1.72zm-9.63 1.63c.8.135 1.592-.418 1.721-1.241l.055-.334.335-.055c.817-.132 1.373-.902 1.24-1.72-.132-.818-.895-1.372-1.721-1.241l-1.406.23c-.634.105-1.131.603-1.235 1.236l-.229 1.405c-.133.818.423 1.588 1.24 1.72zm6.377 10.013h.024c2.782-.069 5.422-.642 5.532-.666.382-.083.68-.381.763-.762.024-.111.598-2.75.667-5.533.027-.546-.478-1.07-1.024-1.024-2.782.069-5.422.642-5.532.666-.382.083-.68.381-.763.762-.024.111-.598 2.75-.667 5.533-.024.546.454 1.036 1 1.025zm10.582-4.621c.02.117.04.24.061.367.129.823.921 1.376 1.721 1.241.817-.132 1.373-.902 1.24-1.72-.124-.766-.23-1.393-.23-1.393-.097-.569-.511-1.032-1.065-1.191-.052-.015-1.275-.361-2.753-.421-.857-.048-1.526.609-1.561 1.438-.033.828.61 1.526 1.438 1.56.423.018.82.066 1.15.12zm-7.849 8.277c-.123-.02-.242-.04-.355-.058-.06-.355-.114-.769-.133-1.162-.038-.827-.756-1.471-1.567-1.429-.828.039-1.468.741-1.429 1.568.06 1.288.394 2.638.408 2.695.144.577.615 1.014 1.202 1.115 0 0 .627.107 1.394.231.8.135 1.592-.418 1.721-1.241.133-.818-.423-1.588-1.24-1.72zm9.63-1.63c-.825-.133-1.589.422-1.721 1.241l-.055.334-.335.055c-.817.132-1.373.902-1.24 1.72.129.823.921 1.376 1.721 1.241l1.406-.23c.634-.105 1.131-.603 1.235-1.236l.229-1.405c.133-.818-.423-1.588-1.24-1.72zm-5.851 1.98h-.01c-.828 0-1.495.671-1.495 1.5s.677 1.5 1.505 1.5 1.5-.671 1.5-1.5-.671-1.5-1.5-1.5zm4.92-5.56c-.279.28-.439.66-.439 1.06s.16.78.439 1.06c.28.28.66.44 1.061.44.39 0 .78-.16 1.06-.44s.44-.67.44-1.06-.16-.78-.44-1.06c-.56-.56-1.56-.56-2.12 0zm-10.419-11.939c0-.829-.671-1.5-1.5-1.5h-.01c-.828 0-1.495.671-1.495 1.5s.677 1.5 1.505 1.5 1.5-.671 1.5-1.5zm-7.52 7.5c.828 0 1.5-.672 1.5-1.5s-.672-1.5-1.5-1.5-1.5.672-1.5 1.5.672 1.5 1.5 1.5z"/></svg>