<svg id="Layer_1" viewBox="0 0 24 24" xmlns="http://www.w3.org/2000/svg" data-name="Layer 1"><path d="m11 2.063v5.937c0 .552-.448 1-1 1h-7.773c-.576.013-1.067-.532-.995-1.104.297-2.84.771-5.019.791-5.11.084-.381.382-.679.763-.763.138-.03 3.407-.738 7.155-.958.552-.052 1.072.442 1.059.998zm3 10.937h8c.553 0 1-.448 1-1 0-4.501-.981-9.024-1.023-9.214-.084-.381-.382-.679-.763-.763-.138-.03-3.407-.738-7.155-.958-.551-.048-1.073.44-1.059.998v9.937c0 .552.447 1 1 1zm7.773 2h-7.773c-.553 0-1 .448-1 1v5.937c-.011.537.463 1.011 1 1 .02 0 .039 0 .059-.002 3.748-.219 7.018-.928 7.155-.958.382-.083.68-.381.763-.763.021-.092.494-2.271.791-5.11.074-.572-.418-1.117-.994-1.104zm-11.773-4h-8c-.552 0-1 .448-1 1 0 4.501.981 9.024 1.023 9.214.083.381.381.679.763.763.138.03 3.407.738 7.155.958.02.001.039.002.059.002.536.011 1.011-.463 1-1v-9.937c0-.552-.448-1-1-1z"/></svg>