<svg id="Layer_1" viewBox="0 0 24 24" xmlns="http://www.w3.org/2000/svg" data-name="Layer 1"><path d="m15.5 23c-2.963 0-5.939-.646-6.064-.673-.381-.083-.679-.381-.762-.762-.026-.118-.604-2.779-.667-5.57-2.791-.064-5.452-.641-5.57-.667-.381-.083-.679-.381-.762-.762-.028-.125-.673-3.102-.673-6.064s.644-5.941.671-6.066c.083-.381.381-.679.762-.762.125-.028 3.102-.673 6.064-.673s5.939.646 6.064.673c.381.083.679.381.762.762.026.118.604 2.779.667 5.57 2.791.064 5.452.641 5.57.667.381.083.679.381.762.762.028.125.673 3.102.673 6.064s-.646 5.939-.673 6.064c-.083.381-.381.679-.762.762-.125.028-3.102.673-6.064.673z"/></svg>