<svg id="Layer_1" viewBox="0 0 24 24" xmlns="http://www.w3.org/2000/svg" data-name="Layer 1"><path d="m22.47 7.758c-.044-.176-.135-.337-.263-.465l-5.5-5.5c-.128-.128-.289-.219-.465-.263-.086-.022-2.144-.53-4.242-.53s-4.156.508-4.242.53c-.176.044-.337.135-.465.263l-5.5 5.5c-.128.128-.219.289-.263.465-.022.086-.53 2.144-.53 4.242s.508 4.156.53 4.242c.044.176.135.337.263.465l5.5 5.5c.128.128.289.219.465.263.086.022 2.144.53 4.242.53s4.156-.508 4.242-.53c.176-.044.337-.135.465-.263l5.5-5.5c.128-.128.219-.289.263-.465.022-.086.53-2.144.53-4.242s-.508-4.156-.53-4.242zm-10.47-1.758c.828 0 1.5.672 1.5 1.5s-.672 1.5-1.5 1.5-1.5-.672-1.5-1.5.672-1.5 1.5-1.5zm0 12c-.828 0-1.5-.672-1.5-1.5s.672-1.5 1.5-1.5 1.5.672 1.5 1.5-.672 1.5-1.5 1.5zm4-5h-8c-.553 0-1-.447-1-1s.447-1 1-1h8c.553 0 1 .447 1 1s-.447 1-1 1z"/></svg>