<svg id="Layer_1" viewBox="0 0 24 24" xmlns="http://www.w3.org/2000/svg" data-name="Layer 1"><path d="m22.47 7.758c-.044-.176-.135-.337-.263-.465l-5.5-5.5c-.128-.128-.289-.219-.465-.263-.086-.022-2.144-.53-4.242-.53s-4.156.508-4.242.53c-.176.044-.337.135-.465.263l-5.5 5.5c-.128.128-.219.289-.263.465-.022.086-.53 2.144-.53 4.242s.508 4.156.53 4.242c.044.176.135.337.263.465l5.5 5.5c.128.128.289.219.465.263.086.022 2.144.53 4.242.53s4.156-.508 4.242-.53c.176-.044.337-.135.465-.263l5.5-5.5c.128-.128.219-.289.263-.465.022-.086.53-2.144.53-4.242s-.508-4.156-.53-4.242zm-5.165 1.78c-1.312 2.053-3.18 4.626-6.001 6.319-.324.194-.73.19-1.05-.013-1.52-.962-2.661-1.994-3.595-3.248-.329-.442-.237-1.069.206-1.399.442-.33 1.069-.236 1.399.206.673.904 1.487 1.679 2.535 2.404 2.161-1.46 3.645-3.508 4.819-5.346.299-.466.917-.603 1.381-.305.466.298.602.916.305 1.381z"/></svg>