<svg id="Layer_1" viewBox="0 0 24 24" xmlns="http://www.w3.org/2000/svg" data-name="Layer 1"><path d="m22.48 7.764c-.019-.063-.044-.125-.076-.183-.042-.078-1.034-1.911-2.078-2.955-1.986-1.986-3.83-2.989-3.98-3.066-.131-.058-1.366-.56-4.346-.56s-4.215.502-4.419.596c-.078.042-1.921 1.045-3.907 3.031-1.044 1.044-2.037 2.877-2.078 2.955-.032.059-.057.12-.076.183-.021.069-.52 1.735-.52 4.236s.498 4.167.52 4.236c.019.063.044.125.076.183.042.078 1.034 1.911 2.078 2.955 1.986 1.986 3.83 2.989 3.98 3.066.131.058 1.366.56 4.346.56s4.215-.502 4.419-.596c.078-.042 1.921-1.045 3.907-3.031 1.044-1.044 2.037-2.877 2.078-2.955.032-.059.057-.12.076-.183.021-.069.52-1.735.52-4.236s-.498-4.167-.52-4.236z"/></svg>