<svg id="Layer_1" viewBox="0 0 24 24" xmlns="http://www.w3.org/2000/svg" data-name="Layer 1"><path d="m22.47 7.758c-.044-.176-.135-.337-.263-.465l-5.5-5.5c-.128-.128-.289-.219-.464-.263-.087-.022-2.144-.53-4.243-.53s-4.156.508-4.243.53c-.176.044-.336.135-.464.263l-5.5 5.5c-.128.128-.219.289-.263.465-.021.086-.53 2.144-.53 4.242s.508 4.156.53 4.242c.044.176.135.337.263.465l5.5 5.5c.128.128.289.219.464.263.087.022 2.144.53 4.243.53s4.156-.508 4.243-.53c.176-.044.336-.135.464-.263l5.5-5.5c.128-.128.219-.289.263-.465.021-.086.53-2.144.53-4.242s-.508-4.156-.53-4.242zm-6.47 5.242h-3v3c0 .553-.448 1-1 1s-1-.447-1-1v-3h-3c-.552 0-1-.447-1-1s.448-1 1-1h3v-3c0-.553.448-1 1-1s1 .447 1 1v3h3c.552 0 1 .447 1 1s-.448 1-1 1z"/></svg>