<svg id="Layer_1" viewBox="0 0 24 24" xmlns="http://www.w3.org/2000/svg" data-name="Layer 1"><path d="m16 10.525c0 .282-.166.537-.423.652-.272.121-1.015.385-1.577.503v4.319c0 3.458-.613 5-4.001 5-1.302 0-2.201-.481-2.939-1.05-.581 1.057-1.413 2.253-2.526 2.91-.292.174-.653.186-.956.034-2.549-1.274-2.578-2.824-2.578-2.932.005-.788.682-1.02 1.336-1.039.434-.042 1.828-.248 2.866-.378-3.535-3.177-3.931-5.35-4.193-7.386-.041-.308.063-.618.282-.838.219-.219.523-.326.837-.286 1.922.248 4.137.867 6.296 2.685.174-.413.421-.715.455-1.247-1.41-.874-3.158-1.677-4.196-2.023-.523-.175-.807-.741-.632-1.265.174-.523.737-.809 1.265-.632.917.306 2.342.93 3.701 1.684.09-1.477.918-2.235 2.482-2.235 1.608 0 2.441.798 2.49 2.358.569.134 1.332.401 1.586.514.257.115.423.37.423.652zm5.297-4.414c-.457-.171-.992-.123-1.494.007.169-.435.342-.815.51-1.132.689-.039 1.496-.198 1.985-.687.577-.577.698-1.609.701-2.355.002-.521-.422-.946-.944-.944-.746.003-1.778.124-2.355.701-.545.545-.675 1.478-.691 2.21-.336.336-.713.754-1.088 1.25-.085-.544-.255-1.092-.623-1.459-.577-.577-1.609-.698-2.355-.701-.521-.002-.946.422-.944.944.003.746.124 1.779.701 2.355.521.521 1.397.663 2.112.689-.476 1.011-.813 2.185-.813 3.507 0 3.152.573 4.334.632 4.512.258.789 1.124 1.202 1.885.946.784-.255 1.214-1.1.965-1.885-.005-.014-.597-1.511-.597-3.588 0-1.077.225-1.62.225-1.62.254.304.554.563.904.693.764.285 1.754-.033 2.434-.341.475-.215.685-.777.466-1.25-.313-.677-.852-1.566-1.616-1.851z"/></svg>