<svg id="Layer_1" viewBox="0 0 24 24" xmlns="http://www.w3.org/2000/svg" data-name="Layer 1"><path d="m17.174 8.963c-.419-.714-1.339-.954-2.053-.534l-.469.275c-.323-.233-.71-.404-1.153-.52v-.684c0-.828-.672-1.5-1.5-1.5s-1.5.672-1.5 1.5v.684c-.443.116-.83.286-1.153.52l-.469-.275c-.714-.419-1.634-.18-2.053.534s-.18 1.634.534 2.053l.669.393c-.018.188-.029.384-.029.592s.011.403.029.592l-.669.393c-.714.419-.954 1.339-.534 2.053.419.714 1.339.954 2.053.534l.469-.275c.323.233.71.404 1.153.52v.684c0 .828.672 1.5 1.5 1.5s1.5-.672 1.5-1.5v-.684c.443-.116.83-.286 1.153-.52l.469.275c.714.419 1.634.18 2.053-.534s.18-1.634-.534-2.053l-.669-.393c.018-.188.029-.384.029-.592s-.011-.403-.029-.592l.669-.393c.714-.419.954-1.339.534-2.053zm-5.174 4.537c-1.192 0-1.5-.308-1.5-1.5s.308-1.5 1.5-1.5 1.5.308 1.5 1.5-.308 1.5-1.5 1.5zm10.995-.969c-.149 7.24-3.541 10.469-10.995 10.469-3.493 0-5.997-.69-7.774-2.136l-1.338 1.338c-.273.273-.678.367-1.04.246-.365-.122-.63-.44-.685-.822-.217-1.526-.217-3.074 0-4.599.064-.447.415-.799.863-.863.763-.109 1.532-.164 2.3-.164s1.538.055 2.301.164c.381.054.699.32.82.685.122.365.027.768-.245 1.04l-.833.833c1.231.863 3.048 1.279 5.63 1.279 5.788 0 7.88-1.971 7.996-7.531.016-.828.706-1.487 1.531-1.468.828.017 1.485.702 1.468 1.531zm-21.99-1.062c.15-7.24 3.541-10.469 10.995-10.469 3.482 0 6.002.691 7.776 2.134l1.336-1.336c.273-.273.678-.367 1.041-.246.365.122.63.44.685.822.217 1.526.217 3.074 0 4.6-.064.447-.415.799-.863.863-.763.109-1.532.164-2.3.164s-1.538-.055-2.301-.164c-.381-.054-.699-.32-.82-.685-.122-.365-.027-.768.245-1.04l.841-.841c-.984-.685-2.638-1.27-5.639-1.27-5.788 0-7.88 1.971-7.996 7.531-.017.817-.685 1.469-1.499 1.469-.839 0-1.518-.691-1.5-1.531z"/></svg>