<svg id="Layer_1" viewBox="0 0 24 24" xmlns="http://www.w3.org/2000/svg" data-name="Layer 1"><path d="m3.008 14.295c-.001-.1-.008-.193-.008-.295 0-4.761 1.536-7.46 5-8.498v-.259c0-.379.214-.725.553-.895.081-.04.605-.283 1.556-.449-.073-.252-.109-.549-.109-.9 0-1.429.571-2 2-2s2 .571 2 2c0 .351-.036.648-.109.9.951.166 1.475.409 1.556.449.339.17.553.516.553.895v.259c3.464 1.038 5 3.737 5 8.498 0 .102-.007.195-.008.295-.831-1.031-1.671-1.752-2.545-2.19-.281-.141-.613-.141-.895 0-.877.438-1.719 1.163-2.553 2.199-.834-1.036-1.676-1.761-2.553-2.199-.281-.141-.613-.141-.895 0-.877.438-1.719 1.163-2.553 2.199-.834-1.036-1.676-1.761-2.553-2.199-.29-.116-.604-.116-.895 0-.874.437-1.713 1.159-2.545 2.19zm17.16 2.26c-.793-1.071-1.466-1.911-2.168-2.395-.702.483-1.429 1.286-2.168 2.395-.371.557-1.293.557-1.664 0-.739-1.108-1.466-1.911-2.168-2.395-.702.483-1.429 1.286-2.168 2.395-.371.557-1.293.557-1.664 0-.74-1.11-1.466-1.894-2.168-2.377-.702.482-1.4 1.286-2.168 2.377-.239.339-.401.563-.509.708.871 3.978 3.595 5.738 8.677 5.738 5.113 0 7.84-1.78 8.693-5.809-.176-.195-.364-.418-.525-.636z"/></svg>