<svg id="Layer_1" viewBox="0 0 24 24" xmlns="http://www.w3.org/2000/svg" data-name="Layer 1"><path d="m20.832 8c-.305-3.463-.922-5.238-.956-5.335-.099-.278-.315-.498-.591-.602-.116-.043-2.887-1.063-7.284-1.063s-7.168 1.02-7.284 1.063c-.276.104-.492.324-.591.602-.034.097-.651 1.872-.956 5.335h17.664zm-4.332-5c.828 0 1.5.672 1.5 1.5s-.672 1.5-1.5 1.5-1.5-.672-1.5-1.5.672-1.5 1.5-1.5zm-4.5 0c.828 0 1.5.672 1.5 1.5s-.672 1.5-1.5 1.5-1.5-.672-1.5-1.5.672-1.5 1.5-1.5zm-4.5 0c.828 0 1.5.672 1.5 1.5s-.672 1.5-1.5 1.5-1.5-.672-1.5-1.5.672-1.5 1.5-1.5zm1.547 12h5.906c-.048 1-.131 1.946-.249 2.829-1.747.228-3.657.228-5.409 0-.118-.881-.201-1.828-.249-2.829zm-6.005-5c-.026.628-.042 1.292-.042 2 0 6.103 1.079 9.206 1.125 9.335.099.278.315.498.591.602.116.043 2.887 1.063 7.284 1.063s7.168-1.02 7.284-1.063c.276-.104.492-.324.591-.602.046-.129 1.125-3.232 1.125-9.335 0-.708-.016-1.372-.042-2zm13.531 8.868c-.069.422-.398.754-.82.826-1.2.204-2.462.307-3.752.307s-2.549-.103-3.751-.306c-.422-.071-.752-.403-.82-.825-.237-1.453-.377-3.083-.417-4.846-.024-.545.454-1.034 1-1.022h7.977c.545-.011 1.023.477 1 1.022-.04 1.759-.179 3.389-.415 4.845z"/></svg>