<svg id="Layer_1" viewBox="0 0 24 24" xmlns="http://www.w3.org/2000/svg" data-name="Layer 1"><path d="m7 9h10v2h-10zm16 3c0 4.397-1.02 7.168-1.063 7.284-.104.276-.324.492-.602.591-.129.046-3.232 1.125-9.335 1.125s-9.206-1.079-9.335-1.125c-.278-.099-.498-.315-.602-.591-.043-.116-1.063-2.887-1.063-7.284s1.02-7.168 1.063-7.284c.104-.276.324-.492.602-.591.129-.046 3.232-1.125 9.335-1.125s9.206 1.079 9.335 1.125c.278.099.498.315.602.591.043.116 1.063 2.887 1.063 7.284zm-15 4c0-.552-.448-1-1-1h-1c-.552 0-1 .448-1 1s.448 1 1 1h1c.552 0 1-.448 1-1zm5.5 0c0-.552-.448-1-1-1h-1c-.552 0-1 .448-1 1s.448 1 1 1h1c.552 0 1-.448 1-1zm5.5 0c0-.552-.448-1-1-1h-1c-.552 0-1 .448-1 1s.448 1 1 1h1c.552 0 1-.448 1-1zm0-8c0-.552-.448-1-1-1h-12c-.552 0-1 .448-1 1v4c0 .552.448 1 1 1h12c.552 0 1-.448 1-1z"/></svg>