<svg id="Layer_1" viewBox="0 0 24 24" xmlns="http://www.w3.org/2000/svg" data-name="Layer 1"><path d="m21.544 6.765c-.059-.13-.145-.246-.254-.341l-5.646-4.928c-.2-.178-.497-.234-.516-.238-.124 2.663.043 4.466.168 5.365 1.187.146 3.711.378 6.249.141z"/><path d="m18 12.503h3.997c.002-.165.003-.332.003-.5 0-1.1-.056-2.308-.148-3.259-.902.09-1.798.124-2.64.124-2.68 0-4.823-.348-4.943-.368-.398-.066-.719-.365-.811-.758-.023-.098-.674-2.385-.458-6.735-.324-.016-.645 0-1 0-4.385 0-7.991.774-8.147.807-.368.078-.661.354-.76.718-.044.164-1.093 4.261-1.093 9.472 0 .168.001.335.003.5h3.997c.552 0 1 .448 1 1s-.448 1-1 1h-3.921c.245 3.888.978 6.454 1.015 6.589.09.328.34.588.664.69.158.05 3.799 1.219 8.242 1.219s8.322-1.169 8.48-1.218c.346-.109.605-.395.679-.75.028-.135.589-2.697.779-6.529h-3.938c-.552 0-1-.448-1-1s.448-1 1-1zm-4 1.999h-4c-.552 0-1-.448-1-1s.448-1 1-1h4c.552 0 1 .448 1 1s-.448 1-1 1z"/></svg>