<svg id="Layer_1" viewBox="0 0 24 24" xmlns="http://www.w3.org/2000/svg" data-name="Layer 1"><path d="m3.892 23.008c-.982 0-1.722-.08-1.922-.104-.458-.055-.818-.416-.874-.874-.07-.586-.619-5.793 1.754-8.165s0 0 0 0c1.272-1.273 2.43-1.866 3.643-1.866s2.369.593 3.643 1.866c2.485 2.485 2.485 4.8 0 7.285-1.562 1.561-4.352 1.857-6.243 1.857zm17.815-20.715c-2.108-2.111-3.771-1.279-5.256-.065-1.826 1.5-3.505 2.963-5.133 4.471-.971.903-1.926 1.825-2.838 2.737-.233.233-.467.475-.701.713 1.285.301 2.528 1.062 3.769 2.302 1.222 1.221 1.991 2.486 2.297 3.773.239-.235.473-.46.717-.704.848-.848 1.751-1.787 2.766-2.875 1.904-2.06 3.468-3.908 4.432-5.082 1.188-1.392 2.109-3.106-.054-5.27zm.992 15.297c-.218-.613-1.773-2.405-3.382-4.155-1.11 1.22-2.358 2.516-3.339 3.498-.389.388-1.817 1.777-2.227 2.181-.039.129-.076.258-.123.386 1.686 1.543 3.37 2.993 3.96 3.202l-.002.018c2.143.268 4.312.271 4.404.271.552 0 1-.448 1-1 0-.091-.003-2.261-.271-4.404l-.018.002zm-18.119-7.256c.1-.035.2-.06.301-.089l2.184-2.221c1.107-1.101 2.262-2.23 3.445-3.286-.402-.355-.808-.712-1.229-1.077-1.765-1.513-2.912-2.394-3.001-2.462-.216-.167-.49-.235-.761-.194-.184.029-1.833.314-3.019 1.5s-1.471 2.834-1.5 3.019c-.042.27.028.544.194.761.757.999 2.01 2.49 3.387 4.051z"/></svg>