<?xml version="1.0" encoding="UTF-8"?>
<svg xmlns="http://www.w3.org/2000/svg" id="Layer_1" data-name="Layer 1" viewBox="0 0 24 24">
  <path d="M12,1C6.879,1,1,2.25,1,12s5.879,11,11,11c.432,0,.854-.01,1.266-.032,1.523-.081,2.714-1.369,2.711-2.931v-.02c0-2.833,1.185-3.371,3.371-3.371,.188,0,.372,.005,.551,.016,1.522,.102,2.853-1.067,3.004-2.585,.064-.648,.098-1.347,.098-2.077C23,2.25,17.121,1,12,1ZM5.085,9.84c0-.828,.672-1.5,1.5-1.5s1.5,.672,1.5,1.5-.672,1.5-1.5,1.5-1.5-.672-1.5-1.5Zm2.489,7.34c-.828,0-1.5-.672-1.5-1.5s.672-1.5,1.5-1.5,1.5,.672,1.5,1.5-.672,1.5-1.5,1.5Zm3.766-9.383c-.828,0-1.5-.672-1.5-1.5s.672-1.5,1.5-1.5,1.5,.672,1.5,1.5-.672,1.5-1.5,1.5Zm5.617,2.457c-.828,0-1.5-.672-1.5-1.5s.672-1.5,1.5-1.5,1.5,.672,1.5,1.5-.672,1.5-1.5,1.5Z"/>
</svg>
