<svg id="Layer_1" viewBox="0 0 24 24" xmlns="http://www.w3.org/2000/svg" data-name="Layer 1"><path d="m22.465 17.526c.018.063.449 1.557.532 2.88.052.827-.577 1.539-1.403 1.591-.818.054-1.541-.575-1.591-1.403-.025-.409-.101-.859-.181-1.248-1.328-.108-3.75-.276-6.322-.328v1.483c0 .829-.671 1.5-1.5 1.5s-1.5-.671-1.5-1.5v-1.483c-2.58.052-5.009.222-6.334.329-.083.394-.155.833-.167 1.202-.026.828-.736 1.458-1.547 1.451-.828-.026-1.478-.719-1.451-1.547.042-1.303.49-2.785.541-2.95.179-.577.686-.99 1.286-1.049.188-.019 4.645-.453 9.172-.453s8.984.434 9.172.453c.61.06 1.122.485 1.293 1.074zm-6.38-3.849c.06.013 1.489.323 2.915.323s2.854-.31 2.915-.323c.381-.083.679-.381.762-.762.013-.06.323-1.489.323-2.915s-.31-2.854-.323-2.915c-.083-.381-.381-.679-.762-.762-.06-.013-1.489-.323-2.915-.323s-2.854.31-2.915.323c-.381.083-.679.381-.762.762-.013.06-.323 1.489-.323 2.915s.31 2.854.323 2.915c.083.381.381.679.762.762zm-13.799-.2c.097.021 2.41.523 4.714.523s4.617-.502 4.714-.523c.381-.083.679-.381.762-.762.021-.097.523-2.41.523-4.714s-.502-4.617-.523-4.714c-.083-.381-.381-.679-.762-.762-.097-.021-2.41-.523-4.714-.523s-4.617.502-4.714.523c-.381.083-.679.381-.762.762-.021.097-.523 2.41-.523 4.714s.502 4.617.523 4.714c.083.381.381.679.762.762z"/></svg>