<?xml version="1.0" encoding="UTF-8"?>
<svg xmlns="http://www.w3.org/2000/svg" id="Layer_1" data-name="Layer 1" viewBox="0 0 24 24">
  <path d="M19.862,4.151c-2.618-2.614-6.731-5.46-12.197,0-2.083,2.079-3.095,4.08-3.095,6.114,0,1.218,.374,2.429,1.134,3.659-.651,.426-1.335,.994-2.044,1.699-1.768,1.756-2.663,3.355-2.661,4.752,0,.734,.264,1.398,.741,1.869,.327,.322,.94,.754,1.883,.754,1.11,0,2.677-.599,4.769-2.678,.698-.694,1.263-1.364,1.69-2.001,1.069,.668,2.282,1.133,3.634,1.133,1.804,0,3.856-.83,6.146-3.116,2.112-2.109,3.138-4.112,3.138-6.125,0-1.996-.997-3.922-3.138-6.062Zm-2.827,9.356c-.894,.892-2.192,1.955-3.303,1.955-.864,0-1.924-.64-3.241-1.956-1.293-1.291-1.921-2.352-1.921-3.241,0-.906,.646-2.011,1.921-3.284,1.628-1.626,2.696-1.967,3.305-1.967,.842,0,1.931,.662,3.238,1.967,.391,.391,.391,1.023,0,1.415-.391,.39-1.024,.39-1.414,0-1.241-1.239-1.808-1.375-1.853-1.384,.002,.009-.615,.136-1.864,1.384-1.069,1.067-1.328,1.725-1.334,1.87,.009,.142,.267,.758,1.334,1.825,1.293,1.291,1.839,1.37,1.845,1.371,.124-.015,.794-.295,1.873-1.372,.392-.39,1.024-.39,1.415,.002,.39,.391,.389,1.023-.001,1.414Z"/>
</svg>
