<svg id="Layer_1" viewBox="0 0 24 24" xmlns="http://www.w3.org/2000/svg" data-name="Layer 1"><path d="m16.143 1.422c1.532 1.927 2.523 4.913 2.783 8.608.933.09 1.314.475 1.468.973-.622.741-.886 2.379-4.928 4.817 1.021-2.358 1.533-4.766 1.533-5.32v-.5c-.391-5.163-2.272-8.65-5-9-2.728.35-4.609 3.837-5 9v.5c0 .554.512 2.962 1.533 5.32-4.026-2.432-4.295-4.046-4.926-4.822.156-.495.536-.878 1.466-.968.26-3.695 1.251-6.681 2.783-8.608-4.754 1.1-6.855 4.43-6.855 10.578 0 .197.038.398.121.591.067.156 1.634 3.677 6.89 6.351-.007.175-.011.361-.011.558 0 1.493.248 2.448.258 2.488.091.344.358.614.702.708.045.013 1.127.304 3.04.304s2.995-.291 3.04-.304c.344-.094.611-.364.702-.708.011-.04.258-.995.258-2.488 0-.196-.005-.381-.012-.557 5.257-2.674 6.824-6.196 6.891-6.352.083-.193.12-.394.12-.591h.001c0-6.148-2.101-9.478-6.857-10.578zm-2.141 9.009c-.045.471-.768 3.408-2.002 5.569-1.222-2.14-1.944-5.04-2.001-5.554 0-.009-.003-.017-.003-.026.379-.291.991-.431 2.004-.418 1.012-.012 1.624.128 2.004.418 0 .004-.001.008-.001.011z"/></svg>