<svg id="Layer_1" viewBox="0 0 24 24" xmlns="http://www.w3.org/2000/svg" data-name="Layer 1"><path d="m10.605 7.001s-.683-.002-.878.002c-.091.995-.225 2.821-.227 4.982.345.019.706.024 1.105.024 3.258 0 3.895-.918 3.895-2.504s-.637-2.504-3.895-2.504z"/><path d="m21.812 2.88c-.093-.329-.347-.588-.674-.687-.161-.049-4.007-1.193-9.139-1.193-5.174 0-8.981 1.146-9.141 1.194-.325.1-.578.358-.67.686-.049.172-1.188 4.272-1.188 9.121s1.139 8.947 1.188 9.12c.093.329.347.588.674.687.161.049 4.007 1.193 9.139 1.193 5.175 0 8.982-1.146 9.142-1.194.325-.1.578-.357.67-.685.049-.173 1.188-4.273 1.188-9.121s-1.139-8.948-1.188-9.12zm-11.207 11.129c-.337 0-.688-.003-1.044-.019.138 2.247.463 3.779.468 3.798.116.54-.227 1.072-.766 1.189-.071.015-.143.022-.212.022-.46 0-.875-.319-.976-.788-.023-.107-.574-2.682-.574-6.176 0-3.42.312-5.979.326-6.086.055-.441.394-.793.833-.864.552-.088 1.946-.084 1.946-.084 1.458 0 5.895 0 5.895 4.504s-4.437 4.504-5.895 4.504z"/></svg>