<svg id="Layer_1" viewBox="0 0 24 24" xmlns="http://www.w3.org/2000/svg" data-name="Layer 1"><path d="m10.605 7.001s-.684-.002-.878.002c-.091.995-.225 2.821-.227 4.982.345.019.706.024 1.105.024 3.258 0 3.895-.918 3.895-2.504s-.637-2.504-3.895-2.504z"/><path d="m12 1c-7.402 0-11 3.598-11 11 0 9.859 6.278 11 11 11 5.122 0 11-1.25 11-11s-5.878-11-11-11zm-1.395 13.009c-.337 0-.688-.003-1.044-.019.138 2.247.463 3.779.468 3.798.116.54-.227 1.072-.766 1.189-.071.015-.143.022-.212.022-.46 0-.875-.319-.976-.788-.023-.107-.574-2.682-.574-6.176 0-3.42.312-5.979.326-6.086.055-.441.394-.793.833-.864.552-.088 1.946-.084 1.946-.084 1.458 0 5.895 0 5.895 4.504s-4.437 4.504-5.895 4.504z"/></svg>