<svg id="Layer_1" viewBox="0 0 24 24" xmlns="http://www.w3.org/2000/svg" data-name="Layer 1"><path d="m5.113 14.815c-.396.282-.94.237-1.285-.108-1.93-1.929-2.828-3.658-2.828-5.439s.898-3.51 2.828-5.439c1.929-1.93 3.658-2.828 5.439-2.828s3.51.898 5.439 2.828c.341.341.39.877.117 1.274-2.528 3.67-5.795 6.938-9.71 9.713zm13.885-3.704c1.19 0 2.38-.524 3.563-1.572.62-.549.677-1.497.128-2.117s-1.497-.677-2.117-.128c-1.221 1.081-1.882 1.092-3.082.055-.626-.542-1.574-.474-2.116.153-.542.626-.474 1.574.153 2.116 1.151.996 2.311 1.494 3.471 1.494zm-3.451 4.307c-.631.536-.708 1.482-.171 2.114.988 1.162.98 1.802-.035 2.977-.542.627-.473 1.574.154 2.116.624.54 1.572.475 2.116-.153 1.975-2.284 1.992-4.6.052-6.883-.537-.631-1.483-.707-2.115-.171zm-6.922-1.058c-.723.405-.979 1.319-.574 2.042.568 1.012.864 2.218-.797 4.18-.535.632-.457 1.578.176 2.113.629.534 1.577.459 2.114-.176 2.147-2.535 2.525-5.088 1.123-7.586-.407-.723-1.321-.981-2.042-.573zm11.375-9.361c.845-.005 1.479-.365 1.5-1.499-.019-1.09-.658-1.494-1.5-1.499-.845.005-1.48.387-1.5 1.499.021 1.131.658 1.494 1.5 1.499zm-6.5 6.502c-.845.005-1.48.387-1.5 1.499.021 1.131.658 1.494 1.5 1.499.845-.005 1.479-.365 1.5-1.499-.019-1.09-.658-1.494-1.5-1.499zm8 1.499c-.845.005-1.48.387-1.5 1.499.021 1.131.658 1.494 1.5 1.499.845-.005 1.479-.365 1.5-1.499-.019-1.09-.658-1.494-1.5-1.499zm-18 5c-.845.005-1.48.387-1.5 1.499.021 1.131.658 1.494 1.5 1.499.845-.005 1.479-.365 1.5-1.499-.019-1.09-.658-1.494-1.5-1.499zm18 2.001c-.845.005-1.48.387-1.5 1.499.021 1.131.658 1.494 1.5 1.499.845-.005 1.479-.365 1.5-1.499-.019-1.09-.658-1.494-1.5-1.499z"/></svg>