<svg id="Layer_1" viewBox="0 0 24 24" xmlns="http://www.w3.org/2000/svg" data-name="Layer 1"><path d="m21.937 2.62c-.104-.261-.323-.465-.602-.558-.129-.043-3.232-1.062-9.335-1.062s-9.206 1.019-9.335 1.062c-.278.094-.498.298-.602.558-.043.109-1.063 2.726-1.063 6.88s1.02 6.771 1.063 6.88c.104.26.324.465.602.558.118.04 2.729.891 7.834 1.038v2.024s-1.999 0-1.999 0c-.829 0-1.5.672-1.5 1.5s.671 1.5 1.5 1.5h7c.828 0 1.5-.672 1.5-1.5s-.672-1.5-1.5-1.5h-2v-2.024c5.106-.147 7.718-.998 7.835-1.038.277-.093.498-.298.602-.558.043-.11 1.063-2.727 1.063-6.88s-1.021-6.77-1.063-6.88zm-14.23 8.173c.391.391.391 1.023 0 1.414s-1.023.391-1.414 0l-1.293-1.293-1.293 1.293c-.391.391-1.023.391-1.414 0s-.391-1.023 0-1.414l1.293-1.293-1.293-1.293c-.391-.391-.391-1.023 0-1.414s1.023-.391 1.414 0l1.293 1.293 1.293-1.293c.391-.391 1.023-.391 1.414 0s.391 1.023 0 1.414l-1.293 1.293zm7 0c.391.391.391 1.023 0 1.414s-1.023.391-1.414 0l-1.293-1.293-1.293 1.293c-.391.391-1.023.391-1.414 0s-.391-1.023 0-1.414l1.293-1.293-1.293-1.293c-.391-.391-.391-1.023 0-1.414s1.023-.391 1.414 0l1.293 1.293 1.293-1.293c.391-.391 1.023-.391 1.414 0s.391 1.023 0 1.414l-1.293 1.293zm7 1.414c-.391.391-1.023.391-1.414 0l-1.293-1.293-1.293 1.293c-.391.391-1.023.391-1.414 0s-.391-1.023 0-1.414l1.293-1.293-1.293-1.293c-.391-.391-.391-1.023 0-1.414s1.023-.391 1.414 0l1.293 1.293 1.293-1.293c.391-.391 1.023-.391 1.414 0s.391 1.023 0 1.414l-1.293 1.293 1.293 1.293c.391.391.391 1.023 0 1.414z"/></svg>