<svg id="Layer_1" viewBox="0 0 24 24" xmlns="http://www.w3.org/2000/svg" data-name="Layer 1"><path d="m12 23c-5.481 0-8.267-.804-8.383-.838-.279-.082-.509-.282-.628-.547-.041-.09-.989-2.229-.989-5.593 0-2.775.632-4.691.903-5.387.123-.314.396-.545.727-.614.33-.07.672.032.911.271.569.568 1.132 1.09 1.672 1.551 2.141 1.828 4.733 3.396 5.787 4.007 1.054-.61 3.646-2.179 5.787-4.007.54-.461 1.103-.982 1.672-1.551.238-.238.58-.341.911-.271.33.069.604.3.727.614.271.695.903 2.611.903 5.387 0 3.364-.948 5.503-.989 5.593-.119.265-.349.465-.628.547-.116.034-2.901.838-8.383.838zm8.59-20.989c-.125-.367-.451-.629-.836-.672-.125-.014-4.239-.339-7.754-.339s-7.654.325-7.779.339c-.385.043-.711.305-.836.672-.022.065-.385 1.639-.385 2.989s.362 2.924.385 2.989c.125.367.451.629.836.672.089.01 2.78.176 4.91.272 1.241 1.103 2.208 1.821 2.276 1.872.177.13.385.195.594.195s.417-.065.594-.195c.068-.05 1.035-.769 2.276-1.872 2.13-.096 4.796-.262 4.884-.272.385-.043.711-.305.836-.672.022-.065.41-1.639.41-2.989s-.388-2.924-.41-2.989zm-11.824 3.624c.312.312.312.818 0 1.131-.156.156-.361.234-.566.234s-.41-.078-.566-.234l-.634-.634-.634.634c-.156.156-.361.234-.566.234s-.41-.078-.566-.234c-.312-.312-.312-.818 0-1.131l.635-.635-.635-.635c-.312-.312-.312-.818 0-1.131.312-.312.819-.312 1.132 0l.634.634.634-.634c.312-.312.819-.312 1.132 0 .312.312.312.818 0 1.131l-.635.635zm5 0c.312.312.312.818 0 1.131-.156.156-.361.234-.566.234s-.41-.078-.566-.234l-.634-.634-.634.634c-.156.156-.361.234-.566.234s-.41-.078-.566-.234c-.312-.312-.312-.818 0-1.131l.635-.635-.635-.635c-.312-.312-.312-.818 0-1.131.312-.312.819-.312 1.132 0l.634.634.634-.634c.312-.312.819-.312 1.132 0 .312.312.312.818 0 1.131l-.635.635zm5 0c.312.312.312.818 0 1.131-.156.156-.361.234-.566.234s-.41-.078-.566-.234l-.634-.634-.634.634c-.156.156-.361.234-.566.234s-.41-.078-.566-.234c-.312-.312-.312-.818 0-1.131l.635-.635-.635-.635c-.312-.312-.312-.818 0-1.131.312-.312.819-.312 1.132 0l.634.634.634-.634c.312-.312.819-.312 1.132 0 .312.312.312.818 0 1.131l-.635.635z"/></svg>