<svg id="Layer_1" viewBox="0 0 24 24" xmlns="http://www.w3.org/2000/svg" data-name="Layer 1"><path d="m22.59 6.011c-.125-.367-.451-.629-.836-.672-.125-.014-4.239-.339-7.754-.339s-7.654.325-7.779.339c-.385.043-.711.305-.836.672-.022.065-.385 1.639-.385 2.989s.362 2.924.385 2.989c.125.367.451.629.836.672.125.014 4.265.339 7.779.339s7.629-.325 7.754-.339c.385-.043.711-.305.836-.672.022-.065.41-1.639.41-2.989s-.388-2.924-.41-2.989zm-11.824 3.624c.312.312.312.818 0 1.131-.156.156-.361.234-.566.234s-.41-.078-.566-.234l-.634-.634-.634.634c-.156.156-.361.234-.566.234s-.41-.078-.566-.234c-.312-.312-.312-.818 0-1.131l.635-.635-.635-.635c-.312-.312-.312-.818 0-1.131.312-.312.819-.312 1.132 0l.634.634.634-.634c.312-.312.819-.312 1.132 0 .312.312.312.818 0 1.131l-.635.635zm5 0c.312.312.312.818 0 1.131-.156.156-.361.234-.566.234s-.41-.078-.566-.234l-.634-.634-.634.634c-.156.156-.361.234-.566.234s-.41-.078-.566-.234c-.312-.312-.312-.818 0-1.131l.635-.635-.635-.635c-.312-.312-.312-.818 0-1.131.312-.312.819-.312 1.132 0l.634.634.634-.634c.312-.312.819-.312 1.132 0 .312.312.312.818 0 1.131l-.635.635zm5 0c.312.312.312.818 0 1.131-.156.156-.361.234-.566.234s-.41-.078-.566-.234l-.634-.634-.634.634c-.156.156-.361.234-.566.234s-.41-.078-.566-.234c-.312-.312-.312-.818 0-1.131l.635-.635-.635-.635c-.312-.312-.312-.818 0-1.131.312-.312.819-.312 1.132 0l.634.634.634-.634c.312-.312.819-.312 1.132 0 .312.312.312.818 0 1.131l-.635.635zm-6.766 5.365c-3.575 0-7.737-.322-7.997-.351-1.155-.129-2.139-.92-2.512-2.016-.082-.239-.492-2.031-.492-3.634s.41-3.395.493-3.639c.371-1.091 1.355-1.882 2.505-2.01.265-.029 4.426-.352 8.001-.352.692 0 1.407.012 2.112.032-.05-.193-.084-.307-.091-.329-.087-.279-.292-.507-.561-.622-.103-.044-2.566-1.081-6.46-1.081s-6.356 1.039-6.459 1.083c-.269.115-.474.343-.561.622-.04.128-.978 3.215-.978 9.297s.938 9.169.978 9.297c.087.279.292.507.561.622.103.044 2.567 1.081 6.461 1.081s6.357-1.037 6.46-1.081c.269-.115.474-.343.561-.622.033-.105.674-2.22.9-6.356-.959.035-1.961.059-2.921.059zm-4 5h-2c-.552 0-1-.447-1-1s.448-1 1-1h2c.552 0 1 .447 1 1s-.448 1-1 1z"/></svg>