<svg id="Layer_1" viewBox="0 0 24 24" xmlns="http://www.w3.org/2000/svg" data-name="Layer 1"><path d="m5.525 7.013v-1.013c0-.814.179-1.454.516-1.937-.162-1.162.274-2.103.339-2.234.371-.74 1.272-1.039 2.013-.671.703.351 1.002 1.178.717 1.895 1.583.192 2.39 1.177 2.39 2.947v1.013c0 1.982-1.005 2.987-2.987 2.987s-2.987-1.005-2.987-2.987zm.462 4.468c-.002-1.382-.664-2.225-1.877-2.429.285-.716-.015-1.542-.717-1.893-.74-.368-1.642-.07-2.013.671-.074.149-.637 1.349-.238 2.732-.081.28-.13.588-.13.938l.013 1.013c0 1.604.884 2.487 2.487 2.487s2.487-.883 2.487-2.5l-.013-1.02zm6.013.519c-4.149 0-6 1.851-6 6 0 4.633 2.601 5.001 6 5.001s6-.368 6-5.001c0-4.149-1.851-6-6-6zm3.51-2c1.982 0 2.987-1.005 2.987-2.987v-1.013c0-.814-.179-1.454-.516-1.937.162-1.162-.274-2.103-.339-2.234-.37-.74-1.27-1.039-2.013-.671-.703.351-1.001 1.178-.716 1.895-1.584.192-2.391 1.177-2.391 2.947v1.013c0 1.982 1.005 2.987 2.987 2.987zm7.132-2.171c-.37-.741-1.27-1.039-2.013-.671-.702.351-1.001 1.177-.716 1.893-1.213.204-1.876 1.047-1.878 2.429l-.013 1.02c0 1.616.884 2.5 2.487 2.5s2.487-.883 2.487-2.487l.013-1.013c0-.35-.049-.658-.13-.938.4-1.384-.164-2.583-.238-2.733z"/></svg>