<svg id="Layer_1" viewBox="0 0 24 24" xmlns="http://www.w3.org/2000/svg" data-name="Layer 1"><path d="m13 11c0 .879-.121 1-1 1s-1-.121-1-1 .121-1 1-1 1 .121 1 1zm-9.943-.686c.147-2.479.566-3.898.587-3.968.104-.334.375-.59.715-.674.111-.027 2.775-.672 7.641-.672s7.529.645 7.641.672c.345.085.619.348.72.689.021.073.433 1.543.582 3.953-3.512 3.045-7.539 5.638-8.942 6.512-1.403-.874-5.431-3.467-8.943-6.512zm12.943-1.814c0 .828.672 1.5 1.5 1.5s1.5-.672 1.5-1.5-.672-1.5-1.5-1.5-1.5.672-1.5 1.5zm-7 2.5c0 1.99 1.01 3 3 3s3-1.01 3-3-1.01-3-3-3-3 1.01-3 3zm-4-2.5c0 .828.672 1.5 1.5 1.5s1.5-.672 1.5-1.5-.672-1.5-1.5-1.5-1.5.672-1.5 1.5zm7.513 10.358c-.316.189-.71.189-1.025 0-.246-.147-5.713-3.428-10.247-7.479-.146 1.044-.24 2.113-.24 3.203 0 4.104 1.029 6.694 1.073 6.803.11.272.335.482.613.574.129.043 3.223 1.04 9.313 1.04s9.185-.997 9.313-1.04c.278-.092.503-.302.613-.574.044-.108 1.073-2.699 1.073-6.803 0-1.091-.094-2.159-.24-3.203-4.534 4.051-10.001 7.332-10.247 7.479zm-.513-15.858c3.628 0 6.097.344 7.299.562-.134-.875-.276-1.381-.287-1.42-.084-.287-.315-.507-.604-.578-.093-.023-2.328-.563-6.408-.563s-6.315.541-6.408.563c-.285.07-.512.285-.6.565-.012.038-.158.539-.295 1.434 1.202-.218 3.672-.563 7.303-.563z"/></svg>