<?xml version="1.0" encoding="UTF-8"?>
<svg xmlns="http://www.w3.org/2000/svg" id="Layer_1" data-name="Layer 1" viewBox="0 0 24 24">
  <path d="M8.52,4c1.356,.127,2.459,1.09,2.784,2.388,.051,.949,.317,1.706,.483,1.873,.349,.35,3.422,1.175,5.271-.676,1.846-1.849,1.037-4.945,.681-5.303-.339-.341-3.25-1.132-5.12,.535-.993-1.004-2.328-1.664-3.82-1.803-.818-.088-1.556,.528-1.633,1.354-.077,.824,.53,1.556,1.354,1.632Z"/>
  <path d="M20.574,6.741c-.175-.164-.357-.316-.545-.457-.253,.969-.737,1.922-1.543,2.728-1.148,1.149-2.713,1.757-4.524,1.757-.055,0-.203-.001-.41-.014,.184,2.14-.647,4.335-2.421,5.81-.188,.157-.417,.234-.645,.234-.289,0-.577-.124-.777-.364-.357-.429-.298-1.066,.131-1.422,1.408-1.171,1.971-2.988,1.614-4.664-.417-.157-.808-.372-1.101-.667-.482-.484-.928-1.586-1.052-2.897-.144-.417-.517-.718-.968-.761-.726-.067-1.381-.35-1.908-.781-1.136,.227-2.191,.742-2.999,1.496-1.124,1.051-2.425,3.184-2.391,5.737,.034,2.577,1.352,5.039,3.917,7.316,2.396,2.127,4.767,3.206,7.048,3.206s4.652-1.079,7.048-3.206c2.566-2.277,3.884-4.74,3.918-7.316,.034-2.552-1.268-4.685-2.391-5.737Z"/>
</svg>
