<svg id="Layer_1" viewBox="0 0 24 24" xmlns="http://www.w3.org/2000/svg" data-name="Layer 1"><path d="m21.863 20.044c-.057-.015-.59-.144-1.501-.305.269-1.631.637-4.459.637-7.74 0-5.052-.875-9.049-.913-9.216-.08-.359-.351-.646-.706-.746-.15-.042-3.73-1.037-7.382-1.037s-7.231.995-7.382 1.037c-.355.1-.626.387-.706.746-.038.168-.913 4.165-.913 9.216 0 3.281.368 6.109.637 7.74-.911.161-1.444.29-1.501.305-.803.201-1.291 1.014-1.091 1.817s1.016 1.295 1.817 1.093c.037-.009 3.716-.905 9.137-.905s9.101.896 9.137.905c.782.202 1.62-.284 1.817-1.093.2-.804-.288-1.616-1.091-1.817zm-5.363-16.044c.828 0 1.5.671 1.5 1.5s-.671 1.5-1.5 1.5-1.5-.672-1.5-1.5.672-1.5 1.5-1.5zm-9 0c.828 0 1.5.671 1.5 1.5s-.671 1.5-1.5 1.5-1.5-.672-1.5-1.5.672-1.5 1.5-1.5z"/></svg>