<svg id="Layer_1" viewBox="0 0 24 24" xmlns="http://www.w3.org/2000/svg" data-name="Layer 1"><path d="m15.766 8.316c.306.278.315 1.084-.013 1.368l-5.412 5.414c-.515.51-1.204.809-1.94.841l-.348.015.015-.339c.032-.728.332-1.409.848-1.921l5.412-5.412c.392-.39 1.061-.367 1.438.033zm7.234 3.684c0 7.71-3.29 11-11 11s-11-3.29-11-11 3.29-11 11-11 11 3.29 11 11zm-5-3.003c0-.835-.309-1.601-.847-2.122-1.171-1.163-3.071-1.168-4.238-.009l-5.411 5.411c-.871.864-1.381 2.019-1.435 3.25l-.063 1.429c-.038.569.474 1.081 1.042 1.043l1.439-.062c1.235-.054 2.394-.559 3.265-1.422l5.394-5.396c.544-.512.855-1.286.854-2.123z"/></svg>