<svg id="Layer_1" viewBox="0 0 24 24" xmlns="http://www.w3.org/2000/svg" data-name="Layer 1"><path d="m10 15c-.878 0-1-.122-1-1s.122-1 1-1 1 .122 1 1-.122 1-1 1zm5.075-13.692c-.835.859-2.126 2.184-2.582 2.68l7.568 7.568c.483-.445 1.792-1.716 2.638-2.534.4-.387.408-1.025.017-1.422l-6.211-6.298c-.394-.399-1.039-.397-1.43.006zm-4.507 3.583c-3.238.273-3.542.563-3.765.785-6.166 6.165-5.745 15.273-5.732 15.357.023.148.063.289.112.426l6.051-6.051c-.151-.398-.234-.862-.234-1.408 0-1.991 1.009-3 3-3s3 1.009 3 3-1.009 3-3 3c-.509 0-.951-.068-1.331-.199l-6.069 6.069c.131.046.266.083.407.105 3.056.09 9.889-.505 15.363-5.733.232-.232.63-.636.903-3.647z"/></svg>