<svg id="Layer_1" viewBox="0 0 24 24" xmlns="http://www.w3.org/2000/svg" data-name="Layer 1"><path d="m15.766 8.316c.306.278.315 1.084-.013 1.368l-5.412 5.413c-.514.51-1.204.809-1.941.842l-.348.015.015-.339c.032-.729.332-1.41.847-1.921l5.412-5.411c.392-.39 1.063-.37 1.439.033zm7.234 3.684c0 4.501-.981 9.024-1.023 9.215-.083.381-.381.679-.762.762-.19.042-4.714 1.023-9.215 1.023s-9.024-.981-9.214-1.023c-.381-.083-.679-.381-.762-.762-.042-.19-1.023-4.714-1.023-9.215s.98-9.024 1.022-9.215c.083-.381.381-.679.762-.762.19-.042 4.713-1.023 9.214-1.023s9.024.981 9.215 1.023c.381.083.679.381.762.762.042.19 1.023 4.714 1.023 9.215zm-5-3.006c-.001-.835-.309-1.598-.847-2.119-1.171-1.162-3.07-1.168-4.238-.009l-5.412 5.411c-.87.863-1.379 2.018-1.434 3.25l-.063 1.429c-.012.28.093.553.292.751.188.188.443.293.708.293.067 0 1.42-.061 1.482-.062 1.236-.055 2.395-.56 3.265-1.423l5.394-5.396c.545-.513.855-1.287.854-2.125z"/></svg>