<svg id="Layer_1" viewBox="0 0 24 24" xmlns="http://www.w3.org/2000/svg" data-name="Layer 1"><path d="m6.401 22.711.002.018c-2.143.268-4.312.271-4.404.271-.552 0-1-.448-1-1 0-.091.003-2.261.271-4.404l.018.002c.468-1.318 7.121-8.093 7.191-8.162 1.608-1.608 3.124-3.022 4.449-4.209.69.155 2.561.677 3.864 1.98s1.825 3.176 1.98 3.864c-1.187 1.325-2.602 2.842-4.209 4.449-.069.07-6.844 6.723-8.162 7.191zm13.931-13.419c1.513-1.765 2.394-2.912 2.462-3.001.166-.216.235-.491.194-.761-.029-.184-.314-1.833-1.5-3.019s-2.834-1.471-3.019-1.5c-.271-.042-.544.027-.761.194-.089.068-1.236.95-3.001 2.462 1.057.379 2.405 1.031 3.499 2.125s1.746 2.443 2.125 3.499zm.988 5.404c-.656-.656-1.279-1.107-1.896-1.38-1.131 1.236-2.282 2.454-3.446 3.618-.026.026-1.161 1.163-2.633 2.555.276.596.718 1.197 1.351 1.831 1.419 1.42 3.956 1.689 5.676 1.689.893 0 1.566-.072 1.748-.095.416-.05.744-.378.794-.794.064-.533.562-5.267-1.594-7.423zm-16.616-4.244c1.303-1.372 2.34-2.408 2.367-2.434 1.102-1.102 2.257-2.195 3.429-3.272-.98-.862-1.971-1.714-2.953-2.52-1.483-1.212-3.146-2.042-5.254.067-2.164 2.164-1.242 3.878-.065 5.256.791.963 1.628 1.938 2.476 2.903z"/></svg>