<svg id="Layer_1" viewBox="0 0 24 24" xmlns="http://www.w3.org/2000/svg" data-name="Layer 1"><path d="m9.992 20.148c-.078.826-.83 1.43-1.641 1.344-2.246-.223-4.005-.605-4.079-.622-.571-.125-1.018-.571-1.143-1.143-.017-.074-.399-1.833-.622-4.079-.082-.824.52-1.56 1.344-1.641.831-.091 1.56.521 1.641 1.344.11 1.108.264 2.093.384 2.772.681.12 1.668.273 2.772.384.824.081 1.426.816 1.344 1.641zm5.36-14.656c1.104.11 2.092.264 2.772.384.12.68.273 1.664.384 2.772.076.773.729 1.352 1.49 1.352.881.005 1.587-.771 1.494-1.648-.223-2.246-.605-4.005-.622-4.079-.125-.571-.571-1.018-1.143-1.143-.074-.017-1.833-.399-4.079-.622-.822-.096-1.56.52-1.641 1.344-.082.824.52 1.56 1.344 1.641zm-3.352 1.008c0 3.752-1.748 5.5-5.5 5.5s-5.5-1.748-5.5-5.5 1.748-5.5 5.5-5.5 5.5 1.748 5.5 5.5zm-7-2c0 1.071.429 1.5 1.5 1.5s1.5-.429 1.5-1.5-.429-1.5-1.5-1.5-1.5.429-1.5 1.5zm4.671 4.065c-.467-1.09-1.467-1.565-3.171-1.565s-2.704.474-3.171 1.565c.447 1.04 1.402 1.435 3.171 1.435s2.724-.395 3.171-1.435zm13.329 8.935c0 3.752-1.748 5.5-5.5 5.5s-5.5-1.748-5.5-5.5 1.748-5.5 5.5-5.5 5.5 1.748 5.5 5.5zm-7-2c0 1.071.429 1.5 1.5 1.5s1.5-.429 1.5-1.5-.429-1.5-1.5-1.5-1.5.429-1.5 1.5zm4.671 4.065c-.467-1.09-1.467-1.565-3.171-1.565s-2.704.474-3.171 1.565c.447 1.04 1.402 1.435 3.171 1.435s2.724-.395 3.171-1.435z"/></svg>