<?xml version="1.0" encoding="UTF-8"?>
<svg xmlns="http://www.w3.org/2000/svg" id="Layer_1" data-name="Layer 1" viewBox="0 0 24 24">
  <path d="M6.062,7.6c2.041-.011,3.234-1.207,3.271-3.316-.035-2.043-1.257-3.27-3.283-3.284-2.012,.013-3.271,1.317-3.271,3.283,0,2.064,1.23,3.306,3.282,3.317Z"/>
  <path d="M16.537,7.6c2.041-.011,3.234-1.207,3.271-3.316-.035-2.043-1.257-3.27-3.283-3.284-2.012,.013-3.271,1.317-3.271,3.283,0,2.064,1.23,3.306,3.282,3.317Z"/>
  <path d="M9.191,8.915c-.056-.021-1.387-.494-3.134-.494-1.762,0-3.082,.476-3.137,.495-.316,.116-.553,.383-.63,.711-.016,.067-.39,1.68-.39,3.576s.374,3.508,.39,3.576c.023,.097,.06,.188,.108,.272v4.449c0,.828,.671,1.5,1.5,1.5s1.5-.672,1.5-1.5v-3.536c.212,.014,.432,.022,.66,.022s.448-.008,.66-.022v3.536c0,.828,.671,1.5,1.5,1.5s1.5-.672,1.5-1.5v-4.449c.048-.084,.085-.175,.108-.271,.016-.067,.39-1.68,.39-3.576s-.374-3.508-.39-3.576c-.077-.329-.315-.597-.634-.712Z"/>
  <path d="M22.072,18.308l-2.077-8.685c-.07-.292-.267-.537-.537-.668-.112-.055-1.154-.534-2.926-.534-1.798,0-2.795,.491-2.902,.547-.258,.134-.444,.373-.512,.655l-2.072,8.685c-.065,.272-.013,.561,.144,.792,.157,.232,.404,.389,.682,.43,.044,.006,.45,.066,1.028,.14v1.831c0,.828,.672,1.5,1.5,1.5s1.5-.672,1.5-1.5v-1.542c.224,.011,.437,.017,.633,.017,.211,0,.443-.007,.687-.019v1.544c0,.828,.672,1.5,1.5,1.5s1.5-.672,1.5-1.5v-1.832c.577-.073,.982-.132,1.026-.139,.277-.041,.525-.196,.683-.429s.21-.521,.145-.793Z"/>
</svg>
