<svg id="Layer_1" viewBox="0 0 24 24" xmlns="http://www.w3.org/2000/svg" data-name="Layer 1"><path d="m3.275 17.038c-.532-.151-1.084.156-1.236.687l-1 3.5c-.152.531.156 1.084.687 1.236.092.026.185.039.275.039.435 0 .835-.287.961-.726l1-3.5c.152-.531-.156-1.084-.687-1.236z"/><circle cx="6.5" cy="3.5" r="2"/><path d="m22.551 14.834c.294-.194.467-.531.447-.889-.019-.352-.207-3.483-.888-5.035-.649-1.479-2.175-2.374-3.793-2.245l-1.093.092c-.286.024-.549.17-.72.401-.022.03-.869 1.473-1.446 2.097-.13-.207-.334-.363-.575-.431-.047-.013-1.169-.325-2.483-.325s-2.436.312-2.483.325c-.241.068-.444.223-.575.429-.535-.577-1.422-2.06-1.448-2.095-.171-.231-.433-.377-.72-.401l-1.093-.092c-1.619-.136-3.144.767-3.792 2.245-.681 1.551-.869 4.683-.888 5.035-.02.358.155.696.45.89.039.03 1.901.94 1.901.94 2.044 1.402 3.224 3.841 3.67 5.934.1.47.515.792.977.792.069 0 .139-.007.209-.022.54-.115.885-.646.77-1.187-.488-2.286-1.524-4.293-2.926-5.795l1.122-5.227c.389.464.843.913 1.339 1.235-.008.159-.013.325-.013.495 0 1.405.318 2.46.331 2.505.1.325.358.578.686.67.047.013 1.169.325 2.483.325s2.436-.312 2.482-.325c.329-.093.588-.346.687-.673.014-.044.331-1.109.331-2.502 0-.171-.005-.336-.013-.495.496-.323.95-.771 1.339-1.235l1.122 5.226c-1.403 1.502-2.44 3.51-2.927 5.796-.114.54.229 1.071.771 1.187.07.015.14.022.209.022.462 0 .877-.322.978-.792.445-2.092 1.624-4.531 3.668-5.933 0 0 1.865-.911 1.904-.942z"/><path d="m22.962 21.225-1-3.5c-.152-.531-.71-.836-1.236-.687-.531.152-.839.705-.688 1.236l1 3.5c.126.439.526.726.961.726.092 0 .184-.013.275-.039.531-.152.839-.705.688-1.236z"/><circle cx="17.5" cy="3.5" r="2"/></svg>