<?xml version="1.0" encoding="UTF-8"?>
<svg xmlns="http://www.w3.org/2000/svg" id="Layer_1" data-name="Layer 1" viewBox="0 0 24 24">
  <path d="M22.33,7.86c-.539-1.483-1.646-2.637-3.051-3.193,.204-1.15-.098-2.414-.908-3.226-.58-.582-1.505-.574-2.092-.003-.589,.571-.595,1.524-.032,2.121,.135,.143,.135,.664,0,.807-.02,.02-.04,.041-.058,.062-1.808,.402-3.273,1.727-3.878,3.453,1.352,1.299,3.121,2.013,4.999,2.013,1.888,0,3.665-.721,5.02-2.034Z"/>
  <path d="M22.702,10.153c-1.56,1.131-3.429,1.742-5.392,1.742-1.922,0-3.755-.585-5.295-1.671,.001,.11,.003,.22,.004,.331,.024,1.617,.051,3.448-.739,3.653-.936,.252-2.471-1.029-3.591-1.958-1.255-1.042-2.25-1.866-3.286-1.701-1.061,.167-2.091,1.152-1.804,3.419,.488,3.851,4.291,9.034,10.011,9.033,.306,0,.617-.015,.933-.045,5.987-.578,9.383-5.349,9.158-12.801Z"/>
  <path d="M8.479,8.152c.098,0,.208,.1,.21,.226,.002,.154-.144,.325-.212,.338-.551,.006-.994,.458-.988,1.01,.005,.549,.452,.99,1,.99h.01c.551-.005,1.082-.241,1.495-.662,.45-.459,.704-1.079,.696-1.704-.02-1.201-1.002-2.188-2.191-2.198-.006-.003-.042-.032-.039-.092,.006-.123,.081-.23,.034-.236,.552-.002,.998-.452,.996-1.004-.002-.551-.45-.996-1-.996h-.004c-1.055,.005-1.962,.962-2.022,2.137-.028,.575,.181,1.143,.571,1.556,.383,.405,.896,.63,1.446,.635Z"/>
  <path d="M3.305,7.485c-.551,.006-.994,.458-.988,1.01,.005,.549,.452,.99,1,.99h.01c.551-.005,1.082-.24,1.495-.662,.45-.459,.704-1.079,.696-1.703-.019-1.202-1.001-2.188-2.191-2.199-.006-.003-.041-.031-.038-.093,.006-.122,.081-.229,.033-.235,.552-.002,.998-.452,.996-1.004-.002-.551-.45-.996-1-.996h-.004c-1.056,.005-1.962,.962-2.022,2.136-.028,.575,.18,1.143,.571,1.556,.382,.405,.896,.631,1.446,.635,.098,0,.208,.099,.21,.226,.002,.154-.144,.325-.212,.338Z"/>
</svg>
