<svg id="Layer_1" viewBox="0 0 24 24" xmlns="http://www.w3.org/2000/svg" data-name="Layer 1"><path d="m22.859 9.488c-.004.083-3.996 5.993-4.027 6.067-.193.289-.51.445-.833.445-.19 0-.383-.055-.554-.168-.459-.307-.583-.927-.277-1.387l4-6c.323-.501 1.101-.618 1.505-.159-.996-5.063-4.342-7.287-10.673-7.287-6.913.001-10.264 2.657-10.884 8.763.285-.881.967-1.53 1.909-1.742.237-.056.485.004.675.155.189.152.3.382.3.625v6.4c0 .441-.358.8-.8.8s-.8-.358-.8-.8v-4.471c-.185.209-.472.316-.764.254-.288-.061-.496-.274-.583-.534-.033.497-.053 1.011-.053 1.551 0 7.71 3.29 11 11 11 6.323 0 9.669-2.218 10.67-7.268-.178.163-.41.268-.67.268-.552 0-1-.448-1-1s.448-1 1-1c.374 0 .687.214.859.518.092-.782.141-1.617.141-2.518s-.049-1.732-.141-2.512zm-15.359 6.512c-2.7 0-2.7-2.906-2.7-4s0-4 2.7-4 2.7 2.906 2.7 4 0 4-2.7 4zm6.2 0c-2.7 0-2.7-2.906-2.7-4s0-4 2.7-4 2.7 2.906 2.7 4 0 4-2.7 4zm4.3-8c.552 0 1 .448 1 1s-.448 1-1 1-1-.448-1-1 .448-1 1-1zm-9.4 4c0 2.4-.61 2.4-1.1 2.4s-1.1 0-1.1-2.4.61-2.4 1.1-2.4 1.1 0 1.1 2.4zm6.2 0c0 2.4-.61 2.4-1.1 2.4s-1.101 0-1.101-2.4.61-2.4 1.101-2.4 1.1 0 1.1 2.4z"/></svg>