<svg id="Layer_1" viewBox="0 0 24 24" xmlns="http://www.w3.org/2000/svg" data-name="Layer 1"><path d="m12.4 12c0 2.4-.61 2.4-1.101 2.4s-1.1 0-1.1-2.4.61-2.4 1.1-2.4 1.101 0 1.101 2.4zm10.6 0c0 7.71-3.29 11-11 11s-11-3.29-11-11 3.29-11 11-11 11 3.29 11 11zm-17.662 2.4c1.438-1.467 2.662-3.231 2.662-4.32 0-1.38-.875-2.08-2.6-2.08-1.912 0-2.438.917-2.524 1.101-.188.4-.039.917.362 1.105.4.188.854.056 1.04-.344.002-.003.236-.262 1.123-.262 1 0 1 .181 1 .48-.004.53-1.333 2.616-3.405 4.299-.243.198-.313.526-.234.829s.364.539.672.592c.78.136 1.136.198 1.964.2.726.002 1.246-.054 1.922-.156.437-.066.737-.474.671-.911s-.47-.738-.911-.671c-.628.096-1.097.144-1.742.138zm8.662-2.4c0-1.094 0-4-2.7-4s-2.7 2.906-2.7 4 0 4 2.7 4 2.7-2.906 2.7-4zm1-3c0 .552.448 1 1 1s1-.448 1-1-.448-1-1-1-1 .448-1 1zm1.832 6.555 4-6c.306-.459.182-1.081-.277-1.387-.46-.308-1.08-.182-1.387.277l-4 6c-.306.459-.182 1.081.277 1.387.17.114.363.168.554.168.323 0 .64-.156.833-.445zm4.168-.555c0-.552-.448-1-1-1s-1 .448-1 1 .448 1 1 1 1-.448 1-1z"/></svg>