<svg id="Layer_1" viewBox="0 0 24 24" xmlns="http://www.w3.org/2000/svg" data-name="Layer 1"><path d="m7 13.28c0 .868-.164 1.121-1.25 1.121s-1.25-.252-1.25-1.121.164-1.12 1.25-1.12 1.25.252 1.25 1.12zm5-3.68c-.49 0-1.1 0-1.1 2.4s.61 2.4 1.1 2.4 1.1 0 1.1-2.4-.61-2.4-1.1-2.4zm11 2.4c0 7.71-3.29 11-11 11s-11-3.29-11-11 3.29-11 11-11 11 3.29 11 11zm-14.4 1.28c0-1.805-.958-2.72-2.85-2.72-.435 0-.815.054-1.151.151.205-1.099.699-1.111 1.151-1.111.681 0 1.15.222 1.174.233.39.198.87.046 1.073-.344.204-.392.052-.875-.34-1.079-.081-.042-.821-.411-1.907-.411-2.85 0-2.85 2.906-2.85 4v1.28c0 1.805.958 2.72 2.85 2.72s2.85-.915 2.85-2.72zm6.1-1.28c0-1.094 0-4-2.7-4s-2.7 2.906-2.7 4 0 4 2.7 4 2.7-2.906 2.7-4zm.8-3c0 .552.448 1 1 1s1-.448 1-1-.448-1-1-1-1 .448-1 1zm1.832 6.555 4-6c.306-.459.182-1.081-.277-1.387-.46-.308-1.08-.183-1.387.277l-4 6c-.306.459-.182 1.081.277 1.387.17.114.363.168.554.168.323 0 .64-.156.833-.445zm4.168-.555c0-.552-.448-1-1-1s-1 .448-1 1 .448 1 1 1 1-.448 1-1z"/></svg>