<svg id="Layer_1" viewBox="0 0 24 24" xmlns="http://www.w3.org/2000/svg" data-name="Layer 1"><path d="m12 1c-7.71 0-11 3.29-11 11s3.29 11 11 11 11-3.29 11-11-3.29-11-11-11zm-4.419 13.262c.441-.067.844.235.911.671.066.437-.234.845-.671.911-.676.103-1.195.158-1.922.156-.829-.002-1.186-.064-1.966-.2-.309-.054-.592-.289-.671-.593-.079-.303-.008-.631.235-.829 2.072-1.683 3.4-3.769 3.405-4.299 0-.299 0-.48-1-.48-.886 0-1.121.259-1.123.262-.187.4-.64.532-1.04.344s-.549-.705-.362-1.105c.086-.184.612-1.101 2.524-1.101 1.726 0 2.6.7 2.6 2.08 0 1.089-1.223 2.853-2.662 4.32.622 0 1.137-.046 1.742-.138zm4.219 1.738c-.73 0-1.433-.116-2.087-.344-.417-.146-.637-.602-.492-1.019.146-.417.603-.635 1.019-.492.333.117.874.255 1.56.255 1.369 0 1.439-.418 1.439-1.101 0-.709-.097-1.14-1.439-1.14-.442 0-.915.039-1.358.064-.364.033-.701-.211-.81-.563-.33-1.073-.295-2.615-.293-2.68.009-.35.244-.653.58-.749.033-.01.821-.231 1.881-.231.904 0 1.612.071 2.047.13.438.06.744.463.684.901s-.469.746-.901.684c-.386-.053-1.016-.116-1.83-.116-.325 0-.617.026-.852.058.013.285.038.615.084.927.257-.014.518-.025.768-.025 2.512 0 3.039 1.49 3.039 2.74 0 1.792-1.022 2.7-3.039 2.7zm4.7-8c.552 0 1 .448 1 1s-.448 1-1 1-1-.448-1-1 .448-1 1-1zm0 8c-.19 0-.383-.054-.554-.168-.459-.306-.583-.927-.277-1.387l4-6c.306-.459.926-.585 1.387-.277.459.306.583.927.277 1.387l-4 6c-.193.289-.51.445-.833.445zm4.001 0c-.552 0-1-.448-1-1s.448-1 1-1 1 .448 1 1-.448 1-1 1z"/></svg>