<svg id="Layer_1" viewBox="0 0 24 24" xmlns="http://www.w3.org/2000/svg" data-name="Layer 1"><path d="m12 1c-7.71 0-11 3.29-11 11s3.29 11 11 11 11-3.29 11-11-3.29-11-11-11zm-6.8 15.034c-.686 0-1.345-.106-1.958-.315-.418-.143-.642-.597-.499-1.016.142-.418.594-.644 1.016-.499.447.152.932.23 1.442.23 1.6 0 1.6-.427 1.6-.967 0-.624 0-.967-1.5-.967-.442 0-.8-.358-.8-.8s.358-.8.8-.8c.84 0 .9-.278.9-.735 0-.376 0-.566-1-.566-.451 0-.739.141-.871.225-.374.236-.867.126-1.104-.246-.237-.373-.127-.867.246-1.104.34-.216.916-.474 1.729-.474 1.725 0 2.6.729 2.6 2.166 0 .491-.1.913-.291 1.258.525.371.891.997.891 2.044 0 2.567-2.408 2.567-3.2 2.567zm6.6-.034c-2.7 0-2.7-2.906-2.7-4s0-4 2.7-4 2.7 2.906 2.7 4 0 4-2.7 4zm4.7-8c.552 0 1 .448 1 1s-.448 1-1 1-1-.448-1-1 .448-1 1-1zm0 8c-.19 0-.383-.054-.554-.168-.46-.306-.584-.927-.277-1.387l4-6c.306-.459.925-.585 1.387-.277.46.306.584.927.277 1.387l-4 6c-.192.289-.51.445-.833.445zm4.001 0c-.552 0-1-.448-1-1s.448-1 1-1 1 .448 1 1-.448 1-1 1zm-7.6-4c0 2.4-.61 2.4-1.101 2.4s-1.1 0-1.1-2.4.61-2.4 1.1-2.4 1.101 0 1.101 2.4z"/></svg>