<svg id="Layer_1" viewBox="0 0 24 24" xmlns="http://www.w3.org/2000/svg" data-name="Layer 1"><path d="m13.101 12c0 2.4-.61 2.4-1.101 2.4s-1.101 0-1.101-2.4.61-2.4 1.101-2.4 1.101 0 1.101 2.4zm-7.551-2.4c-1.086 0-1.25.252-1.25 1.121s.164 1.12 1.25 1.12 1.25-.252 1.25-1.12-.164-1.121-1.25-1.121zm17.45 2.4c0 7.71-3.29 11-11 11s-11-3.29-11-11 3.29-11 11-11 11 3.29 11 11zm-14.601-1.28c0-1.805-.959-2.72-2.85-2.72s-2.85.915-2.85 2.72.959 2.72 2.85 2.72c.435 0 .815-.054 1.151-.151-.205 1.099-.699 1.111-1.151 1.111-.681 0-1.15-.222-1.174-.233-.391-.199-.87-.045-1.073.343-.204.392-.052.875.341 1.079.08.042.82.411 1.906.411 2.85 0 2.85-2.906 2.85-4zm6.301 1.28c0-1.094 0-4-2.7-4s-2.7 2.906-2.7 4 0 4 2.7 4 2.7-2.906 2.7-4zm.8-3c0 .552.448 1 1 1s1-.448 1-1-.448-1-1-1-1 .448-1 1zm1.832 6.555 4-6c.307-.459.183-1.081-.277-1.387-.461-.308-1.081-.183-1.387.277l-4 6c-.307.459-.183 1.081.277 1.387.171.114.363.168.554.168.323 0 .641-.156.833-.445zm4.168-.555c0-.552-.448-1-1-1s-1 .448-1 1 .448 1 1 1 1-.448 1-1z"/></svg>