<svg id="Layer_1" viewBox="0 0 24 24" xmlns="http://www.w3.org/2000/svg" data-name="Layer 1"><path d="m7.5 3.501c.033-1.854 1.092-2.49 2.5-2.499 1.403.009 2.469.683 2.5 2.499-.035 1.89-1.092 2.491-2.5 2.499-1.403-.008-2.466-.614-2.5-2.499zm7 15.499c-.032-.017-.046 0-.069 0-4.642 0-7.485-.538-8.741-.85-.25-1.378-.69-4.397-.69-8.562 0-.714.012-1.391.033-2.03.028-.827-.621-1.521-1.449-1.549-.834-.051-1.522.62-1.549 1.449-.022.671-.035 1.381-.035 2.13 0 6.141.903 9.944.942 10.103.117.482.464.876.928 1.051.137.052 3.417 1.259 10.561 1.259.859-.008 1.57-.65 1.569-1.502 0-.827-.672-1.498-1.5-1.498zm7.483 2.276c-.021-.142-.542-3.493-2.384-6.779-.286-.51-.841-.821-1.423-.762-.033.002-3.233.246-4.958.257-.11-1.193-.205-2.746-.227-4.316-.021-1.476-1.235-2.676-2.707-2.676h-.571c-1.468-.031-2.765 1.273-2.712 2.741.021 1.396.099 2.92.222 4.293.125 1.411 1.229 2.554 2.624 2.718 1.03.135 2.005.208 3.251.241 1.221 0 3.151-.117 4.318-.196 1.218 2.514 1.597 4.902 1.6 4.927.12.823.906 1.385 1.707 1.26.819-.124 1.383-.888 1.26-1.707z"/></svg>