<svg id="Layer_1" viewBox="0 0 24 24" xmlns="http://www.w3.org/2000/svg" data-name="Layer 1"><path d="m11 3.498c.033-1.855 1.092-2.491 2.5-2.5 1.403.009 2.469.683 2.5 2.5-.035 1.891-1.092 2.492-2.5 2.5-1.403-.008-2.466-.614-2.5-2.5zm8.18 5.736c-.732-.382-1.641-.097-2.022.638-.224.428-.855 1.172-1.777 1.755-.688-.847-1.757-2.258-2.761-3.928-.16-.372-.401-.712-.717-.99-.521-.46-1.161-.703-1.842-.703-.998-.023-2.301.349-3.035 2.125-.329.794-.744 1.78-1.165 2.778-.603 1.43-1.224 2.343-1.61 3.302-.355.88-.342 1.792.039 2.565.325.66.898 1.174 1.633 1.504 1.45.607 3.122 1.032 4.206 1.656-2.407.114-4.558.065-4.591.064-.848-.024-1.517.635-1.537 1.462-.021.828.634 1.516 1.462 1.537.067.001.577.014 1.354.014 1.902 0 5.406-.071 7.954-.538.555-.102 1.007-.507 1.167-1.048.161-.542.005-1.127-.405-1.516-.099-.093-2.054-1.918-5.71-3.401.633-1.231 1.392-2.874 2.049-4.526 1.097 1.5 1.963 2.463 2.018 2.523.29.32.696.492 1.11.492.188 0 .377-.035.559-.108 2.065-.828 3.628-2.423 4.259-3.635.383-.735.098-1.641-.638-2.023z"/></svg>