<svg id="Layer_1" viewBox="0 0 24 24" xmlns="http://www.w3.org/2000/svg" data-name="Layer 1"><path d="m5 3c0-1.429.571-2 2-2s2 .571 2 2-.571 2-2 2-2-.571-2-2zm16.641-1.005c-.1-.277-.316-.497-.593-.599-.109-.04-1.124-.396-3.048-.396s-2.938.355-3.048.396c-.276.103-.493.322-.593.599-.037.102-.359 1.04-.359 2.505s.322 2.403.359 2.505c.1.277.316.497.593.599.076.028.598.206 1.548.313v2.039c-.3.023-.642.041-1.01.043-.636-.003-1.287-.041-1.864-.133-1.666-1.32-2.923-2.942-2.937-2.959-.212-.276-.515-.471-.854-.548.115.008-1.835-.354-3.092-.354-1.236 0-3.501.326-3.461.329-.4.066-.721.367-.812.762-.019.083-.47 2.066-.47 4.403s.451 4.32.47 4.403c.091.395.412.696.812.762.014.002.102.016.218.034v4.801c0 .829.672 1.5 1.5 1.5s1.5-.671 1.5-1.5v-4.511c.168.006.336.011.5.011s.332-.003.5-.009v4.509c0 .829.672 1.5 1.5 1.5s1.5-.671 1.5-1.5v-10.38c.48.453 1.019.922 1.6 1.358.18.134.387.227.605.271.835.167 1.742.252 2.699.252 1.449.012 2.908-.247 2.891-.252.7-.14 1.205-.756 1.205-1.471v-3.36c.949-.107 1.472-.285 1.548-.313.276-.103.493-.322.593-.599.037-.102.359-1.04.359-2.505s-.322-2.403-.359-2.505z"/></svg>