<svg id="Layer_1" viewBox="0 0 24 24" xmlns="http://www.w3.org/2000/svg" data-name="Layer 1"><path d="m9 3c0-1.429.571-2 2-2s2 .571 2 2-.571 2-2 2-2-.571-2-2zm5.883 6.576c-.243-.826-.503-1.508-.774-2.027-.784-1.548-2.537-1.548-3.112-1.548s-2.329 0-3.108 1.539c-.359.69-.678 1.611-.948 2.637 1.346 1.339 3.281 1.849 3.304 1.854.535.137.859.68.724 1.214-.133.539-.69.859-1.211.726-.097-.024-1.74-.451-3.296-1.587-.323 1.826-.494 3.716-.464 5.138.017.716.006.691.002 1.045.029.442.346.813.779.91.043.01.536.117 1.222.232v1.792c0 .829.671 1.5 1.5 1.5s1.5-.671 1.5-1.5v-1.5c.357 0 .675-.014 1-.026v1.526c0 .829.671 1.5 1.5 1.5s1.5-.671 1.5-1.5v-1.782c.241-.033.479-.067.68-.096.223-.033.42-.062.595-.084.386-.049.709-.319.827-.69.335-1.059.898-3.033.898-4.347 0-2.096-1.233-4.014-3.117-4.924z"/></svg>