<svg id="Layer_1" viewBox="0 0 24 24" xmlns="http://www.w3.org/2000/svg" data-name="Layer 1"><path d="m4.992 3c.026-1.484.874-1.993 2.001-2 1.123.007 1.976.547 2.001 2-.028 1.513-.874 1.993-2.001 2-1.123-.007-1.973-.491-2.001-2zm1 14c-.829 0-1.5.672-1.5 1.5 0 .813-.241 2.04-.403 2.47-.292.775.098 1.641.873 1.934.755.29 1.641-.09 1.934-.873.288-.763.597-2.363.597-3.53 0-.828-.671-1.5-1.5-1.5zm13.742-9.982c-.083-.381-.381-.678-.762-.762-.051-.012-1.262-.274-2.472-.274s-2.421.263-2.472.274c-.381.084-.679.381-.762.762-.011.052-.274 1.263-.274 2.473 0 .171.006.341.015.509h-1.107c-1.192-.677-2.582-1.949-3.543-3.15-.459-.517-1.12-.85-1.863-.85-1.379 0-2.502 1.122-2.502 2.502v4.375c0 1.149.66 2.166 1.635 2.664 1.12.549 2.341.895 3.166 1.556 1.031 2.185 1.201 4.479 1.203 4.504.053.827.778 1.452 1.594 1.396.827-.054 1.453-.768 1.399-1.595-.008-.127-.219-3.143-1.679-5.985-.103-.2-.25-.374-.429-.51-.586-.444-1.199-.822-1.872-1.16l-.005-2.098c.772.578 1.438.98 1.751 1.157.225.128.479.194.738.194h5s.001 0 .002 0h.007c1.209 0 2.421-.263 2.472-.274.381-.084.679-.381.762-.762.011-.052.274-1.263.274-2.473s-.263-2.421-.274-2.473z"/></svg>