<svg id="Layer_1" viewBox="0 0 24 24" xmlns="http://www.w3.org/2000/svg" data-name="Layer 1"><path d="m15.642 11.918c.015.058.357 1.447.357 3.081s-.343 3.023-.357 3.081c-.026.103-.08.193-.143.278v3.14c0 .829-.671 1.5-1.5 1.5s-1.5-.671-1.5-1.5v-2.51c-.168.007-.336.011-.5.011s-.332-.004-.5-.011v2.51c0 .829-.671 1.5-1.5 1.5s-1.5-.671-1.5-1.5v-3.14c-.062-.085-.117-.175-.143-.278-.015-.058-.357-1.447-.357-3.081s.343-3.023.357-3.081c.088-.353.408-.623.808-.684.063-.01 1.564-.235 2.834-.235s2.771.225 2.834.235c.4.061.72.331.808.684zm6.324-4.071c-.07-.201-.183-.385-.33-.54-2.316-2.436-5.35-4.513-9.018-6.174-.394-.178-.844-.178-1.237 0-3.667 1.661-6.701 3.738-9.018 6.174-.147.155-.259.339-.33.54-.042.121-1.034 3.019-1.034 7.583 0 2.784.207 4.943.38 6.264.108.821.86 1.401 1.683 1.292.821-.108 1.4-.861 1.292-1.683-.162-1.232-.354-3.252-.354-5.874 0-3.239.559-5.529.779-6.305 1.887-1.914 4.312-3.583 7.221-4.971 2.909 1.388 5.334 3.057 7.221 4.971.221.781.779 3.069.779 6.305 0 2.622-.193 4.641-.354 5.874-.108.822.471 1.575 1.292 1.683.805.11 1.578-.467 1.683-1.292.173-1.321.38-3.48.38-6.264 0-4.564-.992-7.462-1.034-7.583zm-7.966.153c-.025-1.453-.878-1.993-2.001-2-1.127.007-1.974.516-2.001 2 .028 1.508.878 1.993 2.001 2 1.127-.007 1.973-.487 2.001-2z"/></svg>