<svg id="Layer_1" viewBox="0 0 24 24" xmlns="http://www.w3.org/2000/svg" data-name="Layer 1"><path d="m2.001 2.999c.026-1.484.873-1.993 2-2 1.123.007 1.975.547 2 2-.028 1.513-.873 1.993-2 2-1.122-.007-1.972-.491-2-2zm.999 14c-.828 0-1.5.672-1.5 1.5 0 .815-.24 2.04-.402 2.469-.294.774.097 1.641.871 1.934.754.292 1.642-.089 1.934-.871.289-.762.598-2.362.598-3.531 0-.828-.672-1.5-1.5-1.5zm19.917 1.011c-.271-.783-1.13-1.199-1.908-.926-.436.15-1.55.52-2.506.691-.87.155-1.778.208-2.446.225-.422-1.142-1.027-2.933-1.399-4.734-.364-1.756-.527-3.608-.601-4.853-.048-.835-.755-1.471-1.609-1.409-.835.061-1.43.849-1.379 1.685.024.389.057.834.099 1.309h-2.259c-1.057-.647-2.438-1.716-3.285-2.882-.614-.751-1.489-1.275-2.567-1.079-1.216.215-2.057 1.351-2.057 2.586v4.251c-.009 1.33.877 2.395 2.032 2.877 1.139.385 1.986.795 2.768 1.343 1.024 2.168 1.199 4.442 1.203 4.503.052.827.778 1.453 1.595 1.397.827-.054 1.453-.768 1.399-1.595-.009-.127-.22-3.141-1.679-5.983-.102-.199-.251-.377-.43-.513-.586-.444-1.198-.822-1.871-1.159l-.005-2.099c.772.578 1.438.981 1.75 1.157.225.127.479.194.738.194h3.054c.051.292.105.585.165.877.419 2.022 1.083 3.985 1.543 5.222-.739.206-1.243.767-1.263 1.903.028 1.509.878 1.993 2.001 2 1.125-.007 1.967-.49 1.997-1.998.793-.016 1.922-.077 3.033-.275 1.124-.201 2.337-.594 2.96-.811.783-.271 1.197-1.126.926-1.908z"/></svg>