<svg id="Layer_1" viewBox="0 0 24 24" xmlns="http://www.w3.org/2000/svg" data-name="Layer 1"><path d="m21.278 22.782c-.697.426-1.628.211-2.061-.504-1.41-2.325-2.25-4.663-2.612-7.297-1.317-.694-2.27-1.443-3.313-2.904-.406-.569-.835-1.011-1.292-1.342v3.836c.647.321 1.21.666 1.957 1.239.177.135.32.308.422.505 1.056 2.055 1.458 3.991 1.604 4.962.143.898-.578 1.732-1.485 1.723-.729 0-1.369-.533-1.481-1.277-.111-.742-.407-2.176-1.156-3.736-.766-.558-1.281-.792-2.439-1.288-1.516-.65-2.421-1.892-2.421-3.321v-2.303c-.887.787-1.565 1.911-2.158 3.097-.37.741-1.271 1.041-2.013.671-.741-.371-1.041-1.271-.671-2.013.797-1.594 2.915-5.829 7.56-5.829 2.411 0 4.436 1.122 6.016 3.333.854 1.195 1.505 1.645 2.91 2.312.476.226.798.685.85 1.209.249 2.552.955 4.67 2.289 6.868.43.708.204 1.631-.504 2.061zm-10.778-16.784c1.408-.008 2.465-.609 2.5-2.499-.031-1.816-1.097-2.49-2.5-2.499-1.408.009-2.467.645-2.5 2.499.034 1.885 1.097 2.491 2.5 2.499zm-2.285 12.136c-.756-.343-1.643-.009-1.986.746-.364.802-.735 1.42-.982 1.797-.455.693-.262 1.623.431 2.077.684.45 1.619.267 2.077-.432.306-.465.763-1.226 1.207-2.203.342-.754.009-1.644-.746-1.986z"/></svg>