<svg id="Layer_1" viewBox="0 0 24 24" xmlns="http://www.w3.org/2000/svg" data-name="Layer 1"><path d="m23 17.25c0 2.827-2.432 5.75-6.5 5.75-2.373 0-7.041-2.127-10.207-5.293s-5.293-7.834-5.293-10.207c0-4.069 2.924-6.5 5.75-6.5 2.619 0 4.75 2.131 4.75 4.75.005 1.432-.659 2.785-1.757 3.698.259.632 1.085 1.966 1.964 2.845s2.214 1.705 2.845 1.964c.913-1.098 2.267-1.762 3.698-1.757 2.619 0 4.75 2.131 4.75 4.75zm-7.5-10.25h1.5v1.5c0 .829.672 1.5 1.5 1.5s1.5-.671 1.5-1.5v-1.5h1.5c.828 0 1.5-.671 1.5-1.5s-.672-1.5-1.5-1.5h-1.5v-1.5c0-.829-.672-1.5-1.5-1.5s-1.5.671-1.5 1.5v1.5h-1.5c-.828 0-1.5.671-1.5 1.5s.672 1.5 1.5 1.5z"/></svg>