<?xml version="1.0" encoding="UTF-8"?>
<svg xmlns="http://www.w3.org/2000/svg" id="Layer_1" data-name="Layer 1" viewBox="0 0 24 24">
  <path d="M21.495,2.324c-.391-.391-1.023-.391-1.414,0L10.925,11.479c-.471-.632-.918-1.372-1.139-1.977l.168-.17c1.259-1.274,1.708-3.132,1.174-4.85-.467-1.499-1.631-2.676-3.114-3.149-1.694-.542-3.524-.096-4.788,1.161-.373,.326-2.765,2.575-2.116,6.073,.615,3.114,2.666,6.32,4.399,8.329l-3.188,3.188c-.391,.391-.391,1.023,0,1.414,.195,.195,.451,.293,.707,.293s.512-.098,.707-.293L21.495,3.738c.391-.391,.391-1.023,0-1.414Z"/>
  <path d="M22.771,15.935c-.479-1.47-1.669-2.622-3.182-3.083-1.728-.528-3.596-.082-4.879,1.158l-.186,.179c-.327-.068-.671,.032-.912,.272l-4.237,4.238c-.215,.215-.32,.515-.287,.817,.034,.302,.202,.572,.458,.734,2.029,1.288,4.134,2.188,5.939,2.536,.414,.075,.81,.108,1.188,.108,2.829,0,4.628-1.874,4.919-2.2,1.276-1.254,1.728-3.074,1.178-4.759Z"/>
</svg>
