<svg id="Layer_1" viewBox="0 0 24 24" xmlns="http://www.w3.org/2000/svg" data-name="Layer 1"><path d="m22.425 2.794-4.619 6.298c-.271.369-.759.507-1.178.337l-1.888-.755-3.822 3.822c.864.17 2.842.505 5.081.505 2.936 0 5.433-.577 5.538-.602.328-.077.597-.315.712-.633.03-.084.75-2.099.75-4.766 0-1.88-.352-3.421-.575-4.206z"/><path d="m17 15c.019.315 0 2 0 2h-2v-2c-2.93-.097-4.951-.643-5.048-.667-.988-.249-1.777-.979-2.104-1.951-.063-.187-.483-1.487-.706-3.254-2.448.201-4.483.569-4.57.59-.329.08-.596.32-.709.64-.035.1-.862 2.482-.862 5.642 0 3.188.828 5.547.864 5.646.113.318.379.557.707.636.104.025 3.429.718 7.429.718s7.325-.693 7.429-.718c.328-.079.594-.318.707-.636.036-.099.864-2.458.864-5.646 0-.401-.014-.788-.037-1.161-.606.064-1.237.135-1.963.161zm-14 0h2v2h-2zm.59 5.454c-.093-.34-.214-.842-.322-1.454h1.799c.078.632.174 1.215.277 1.741-.738-.099-1.351-.207-1.754-.287zm1.493-7.454h-1.812c.108-.609.228-1.112.321-1.455.408-.08 1.03-.19 1.778-.29-.107.531-.205 1.117-.287 1.744zm11.327 7.454c-.403.08-1.016.188-1.754.287.103-.526.199-1.109.277-1.741h1.799c-.108.612-.229 1.114-.322 1.454z"/><path d="m13.793 6.793c.283-.284.709-.369 1.078-.222l1.781.712 4.261-5.81c-.935-.177-2.809-.473-4.913-.473-2.936 0-5.433.578-5.538.602-.328.077-.597.315-.712.633-.03.084-.75 2.099-.75 4.765 0 1.765.31 3.231.532 4.054zm-.293-3.793c.828 0 1.5.672 1.5 1.5s-.672 1.5-1.5 1.5-1.5-.672-1.5-1.5.672-1.5 1.5-1.5z"/></svg>