<?xml version="1.0" encoding="UTF-8"?>
<svg xmlns="http://www.w3.org/2000/svg" id="Layer_1" data-name="Layer 1" viewBox="0 0 24 24">
  <path d="M20.57,2.975c-1.373-1.356-2.851-1.983-4.481-1.974-1.273,.022-2.62,.463-4.089,1.351-1.469-.889-2.815-1.329-4.088-1.351-1.636-.026-3.108,.617-4.482,1.974-2.882,2.845-2.426,6.02-.711,9.025-1.714,3.005-2.171,6.18,.711,9.025,1.345,1.328,2.778,1.975,4.378,1.975,.035,0,.069,0,.104,0,1.273-.022,2.619-.463,4.088-1.351,1.469,.889,2.816,1.329,4.089,1.351,.034,0,.069,0,.104,0,1.6,0,3.033-.647,4.378-1.975,2.883-2.845,2.426-6.019,.712-9.025,1.715-3.006,2.172-6.18-.712-9.025Zm-4.43,1.025c.017,0,.032,0,.048,0,.795,0,1.499,.344,2.274,1.11,.681,.672,1.728,1.706,.843,4.058-.651-.802-1.348-1.577-2.045-2.316h0c-.906-.959-1.767-1.794-2.59-2.511,.534-.219,1.025-.334,1.47-.341Zm-4.141,13.983c-.942-.755-1.97-1.721-3.08-2.896-1.097-1.162-1.951-2.184-2.608-3.087,.657-.903,1.511-1.926,2.608-3.087,1.11-1.175,2.138-2.141,3.08-2.897,.942,.755,1.969,1.721,3.079,2.896h0c1.097,1.162,1.952,2.184,2.609,3.087-.657,.903-1.512,1.925-2.609,3.087h0c-1.11,1.175-2.137,2.141-3.079,2.897ZM5.537,5.11c.776-.766,1.479-1.11,2.274-1.11,.016,0,.032,0,.048,0,.445,.008,.936,.122,1.47,.341-.823,.717-1.684,1.552-2.59,2.511-.697,.738-1.394,1.514-2.045,2.315-.885-2.353,.161-3.386,.842-4.058Zm2.323,14.89c-.811,.031-1.531-.329-2.323-1.109-.681-.672-1.727-1.706-.842-4.058,.65,.802,1.348,1.577,2.045,2.315,.906,.959,1.767,1.794,2.59,2.511-.534,.219-1.024,.333-1.47,.341Zm10.604-1.109c-.792,.781-1.517,1.123-2.322,1.109-.445-.008-.936-.122-1.47-.341,.823-.716,1.684-1.552,2.59-2.511,.697-.738,1.394-1.514,2.045-2.316,.885,2.352-.162,3.386-.843,4.058Z"/>
  <circle cx="12" cy="12" r="1.5"/>
</svg>
