<svg id="Layer_1" viewBox="0 0 24 24" xmlns="http://www.w3.org/2000/svg" data-name="Layer 1"><path d="m22.971 3.794c-.163.812-.953 1.34-1.765 1.177-1.014-.203-2.121-.361-3.236-.488.019.707.033 1.557.03 2.523-.007 1.773-.071 3.498-.189 5.126-.116 1.59-.362 3.162-.579 4.548-.096.609-.186 1.183-.255 1.703-.084.633-.019 1.145.177 1.368.17.195.527.24.766.248.886.009 1.05-.069 1.063-.633.079-.825.804-1.433 1.636-1.35.825.079 1.429.812 1.35 1.636-.145 1.508-.936 3.302-3.87 3.344-1.611.059-2.714-.68-3.204-1.269-.552-.63-1.154-1.791-.894-3.741.072-.541.166-1.136.265-1.77.208-1.33.444-2.836.551-4.302.114-1.56.174-3.216.181-4.92.004-1.091-.015-2.049-.038-2.783-2.242-.155-4.169-.196-5.006-.207.027.824.049 1.837.044 3.002-.007 1.773-.07 3.498-.189 5.126-.331 4.381-.982 7.716-1.336 9.64-.147.819-.952 1.356-1.748 1.203-.815-.151-1.353-.933-1.203-1.748.346-1.876.975-5.099 1.294-9.313.114-1.56.174-3.216.181-4.92.004-1.054-.014-1.971-.038-2.738-1.978.501-2.779 1.794-2.936 4.336-.048.828-.772 1.458-1.589 1.405-.827-.051-1.456-.763-1.405-1.589.315-5.054 3.006-7.408 8.471-7.408.292 0 7.207.012 12.294 1.029.812.162 1.339.953 1.177 1.765z"/></svg>