<svg id="Layer_1" viewBox="0 0 24 24" xmlns="http://www.w3.org/2000/svg" data-name="Layer 1"><path d="m19 16.346c2.076.219 3.493.534 3.883.626-.21 2.678-.634 4.384-.657 4.478-.091.359-.373.639-.732.727-.138.033-3.443.823-9.494.823s-9.356-.79-9.494-.823c-.367-.09-.651-.378-.737-.746-.021-.089-.346-1.539-.567-4.513.111-.005 1.295-.31 3.797-.571v1.654c0 .553.448 1 1 1s1-.447 1-1v-1.828c.62-.044 1.287-.081 2-.11v1.938c0 .553.448 1 1 1s1-.447 1-1v-1.992c.328-.004.657-.008 1-.008s.672.004 1 .008v1.992c0 .553.448 1 1 1s1-.447 1-1v-1.938c.713.029 1.38.066 2 .11v1.828c0 .553.448 1 1 1s1-.447 1-1v-1.654zm-.805-8.284c-.836-.167-1.224-.521-1.339-1.225-.663-4.037-3.085-5.838-7.856-5.838-5.533.001-8 2.469-8 8.001v2c0 1.466.033 2.758.084 3.902 1.067-.224 4.799-.902 10.916-.902 6.247 0 10.015.709 10.988.917.007-.299.012-.603.012-.917 0-3.538-1.392-5.259-4.805-5.938z"/></svg>