<svg id="Layer_1" viewBox="0 0 24 24" xmlns="http://www.w3.org/2000/svg" data-name="Layer 1"><path d="m19 14.346c2.075.219 3.493.534 3.883.626-.21 2.678-.633 4.384-.656 4.478-.091.359-.373.639-.732.727-.138.033-3.443.823-9.494.823s-9.356-.79-9.494-.823c-.359-.088-.641-.367-.732-.727-.024-.094-.447-1.8-.657-4.478.39-.092 1.808-.407 3.883-.626v1.654c0 .553.448 1 1 1s1-.447 1-1v-1.828c.62-.044 1.287-.081 2-.11v1.938c0 .553.448 1 1 1s1-.447 1-1v-1.992c.328-.004.657-.008 1-.008s.672.004 1 .008v1.992c0 .553.447 1 1 1s1-.447 1-1v-1.938c.713.029 1.38.066 2 .11v1.828c0 .553.447 1 1 1s1-.447 1-1v-1.654zm3.227-9.796c-.091-.359-.373-.639-.732-.727-.138-.033-3.443-.823-9.494-.823s-9.357.79-9.495.823c-.359.088-.641.367-.732.727-.032.125-.774 3.109-.774 7.45 0 .314.005.618.012.917.973-.208 4.741-.917 10.988-.917s10.015.709 10.988.917c.007-.299.012-.603.012-.917 0-4.341-.742-7.325-.773-7.45z"/></svg>