<?xml version="1.0" encoding="UTF-8"?>
<svg xmlns="http://www.w3.org/2000/svg" id="Layer_1" data-name="Layer 1" viewBox="0 0 24 24">
  <path d="M22.377,9.223c-.069-.028-.808-.324-2.125-.655-.003-.034-.006-.068-.009-.102-.436-4.252-3.979-7.458-8.243-7.458-4.315,0-7.87,3.327-8.252,7.559-1.317,.331-2.057,.627-2.126,.655-.388,.158-.636,.541-.622,.959,.058,1.726,.526,10.403,4.087,11.839,2.236,.9,5.856,.971,6.912,.971s4.677-.07,6.912-.971c3.561-1.436,4.029-10.113,4.087-11.839,.015-.418-.234-.802-.622-.959ZM12,4.009c2.442,0,4.514,1.651,5.113,3.953-1.446-.204-3.162-.35-5.113-.35s-3.665,.145-5.11,.349c.6-2.273,2.663-3.953,5.11-3.953Zm7.552,8.193c-1.289,2.908-4.487,4.558-4.622,4.626-.143,.072-.298,.108-.453,.108s-.311-.036-.453-.108c-.148-.076-3.668-1.893-4.806-5.084-.186-.521,.086-1.093,.606-1.278,.52-.184,1.092,.086,1.278,.606,.616,1.728,2.358,3.088,3.37,3.713,.812-.503,2.504-1.707,3.252-3.394,.224-.504,.812-.732,1.319-.509,.505,.224,.732,.814,.509,1.319Z"/>
</svg>
