<svg id="Layer_1" viewBox="0 0 24 24" xmlns="http://www.w3.org/2000/svg" data-name="Layer 1"><path d="m21.97 3.757c-.082-.332-.329-.598-.653-.706-.129-.043-3.225-1.051-9.316-1.051s-9.189 1.008-9.317 1.051c-.324.108-.571.375-.654.706-.042.168-1.03 4.167-1.03 8.243s.988 8.074 1.03 8.243c.083.332.33.598.654.706.129.043 3.224 1.051 9.316 1.051s9.188-1.008 9.316-1.051c.324-.108.571-.375.653-.706.042-.168 1.03-4.167 1.03-8.243s-.988-8.074-1.03-8.243zm-9.97 2.243c2.691 0 4 1.309 4 4s-1.309 4-4 4-4-1.309-4-4 1.309-4 4-4zm4.982 13.733c-.397.054-.781-.156-.981-.503-.433-.747-.987-.958-1.471-1.034-1.669-.261-3.395-.26-5.058 0-.485.076-1.04.287-1.472 1.033-.2.346-.585.557-.981.503-.705-.08-1.106-.856-.753-1.471.793-1.385 1.941-1.891 2.897-2.04 1.865-.293 3.803-.294 5.676 0 .957.149 2.104.657 2.897 2.041.353.615-.049 1.391-.753 1.471zm-6.982-9.733c0-1.589.411-2 2-2s2 .411 2 2-.411 2-2 2-2-.411-2-2z"/></svg>