<svg id="Layer_1" viewBox="0 0 24 24" xmlns="http://www.w3.org/2000/svg" data-name="Layer 1"><path d="m12 3.014c-7.005 0-9.993 2.989-9.993 9.993s2.988 9.993 9.993 9.993 9.993-2.988 9.993-9.993-2.988-9.993-9.993-9.993zm-5.996 6.496c0-.828.671-1.499 1.499-1.499s1.499.671 1.499 1.499-.671 1.499-1.499 1.499-1.499-.671-1.499-1.499zm5.996 9.493c-2.503 0-3.997-1.308-3.997-3.498s1.494-3.498 3.997-3.498 3.997 1.308 3.997 3.498-1.494 3.498-3.997 3.498zm4.497-7.994c-.828 0-1.499-.671-1.499-1.499s.671-1.499 1.499-1.499 1.499.671 1.499 1.499-.671 1.499-1.499 1.499zm-2.498 4.496c0 .524 0 1.499-1.999 1.499s-1.999-.975-1.999-1.499 0-1.499 1.999-1.499 1.999.975 1.999 1.499zm3.136-13.79c.343-.109.696-.212 1.068-.296 2.232-.509 3.553-.421 3.799-.399.448.041.813.378.891.821.043.242.24 1.559-.077 3.817-.035.245-.079.481-.125.713-1.118-2.288-2.961-3.837-5.556-4.656zm-15.951 3.942c-.317-2.257-.12-3.575-.077-3.817.078-.443.443-.779.891-.821.245-.022 1.567-.109 3.799.399.372.085.726.188 1.068.296-2.595.818-4.438 2.367-5.556 4.656-.046-.233-.091-.468-.125-.713z"/></svg>