<svg id="Layer_1" viewBox="0 0 24 24" xmlns="http://www.w3.org/2000/svg" data-name="Layer 1"><path d="m5 5c0-.829.672-1.5 1.5-1.5h1v-1c0-.829.672-1.5 1.5-1.5s1.5.671 1.5 1.5v1h1c.828 0 1.5.671 1.5 1.5s-.672 1.5-1.5 1.5h-1v1c0 .829-.672 1.5-1.5 1.5s-1.5-.671-1.5-1.5v-1h-1c-.828 0-1.5-.671-1.5-1.5zm18 8.5c0 1.147-.18 1.858-.2 1.936-.156.533-.565.743-1.127.77-.486 2.017-1.938 3.614-3.857 4.239-.064 1.035-.329 1.587-.388 1.698-.097.182-.247.329-.432.423-.088.044-.896.435-2.177.435s-2.089-.39-2.177-.435c-.53-.207-.721-.87-.784-1.576-.157.006-.341.01-.568.01-.532-.003-1.061-.015-1.58-.035-.232.004-.437.003-.635.002-.066.744-.274 1.41-.873 1.643.002.005-.798.391-2.062.391s-2.064-.386-2.151-.43c-.136-.069-.255-.168-.347-.29-.128-.169-.447-1.097-.606-3.258-1.019-.988-1.67-2.191-1.839-3.447-.035-.256-.068-.523-.099-.799-.133-1.178-.133-2.375 0-3.556.03-.272.063-.54.099-.799.064-.477.199-.925.365-1.357-.365-.677-.564-1.541-.564-2.565 0-.829.672-1.5 1.5-1.5s1.5.671 1.5 1.5c0 .553.087.886.158 1.06.413.379.906.67 1.467.816.392 1.505 1.75 2.624 3.376 2.624s2.984-1.12 3.376-2.624c1.505-.392 2.624-1.75 2.624-3.376 0-.359-.07-.699-.171-1.026.934-.733 1.894-.988 2.227-.973.452.018.835.337.936.779.09.397.115 1.053.079 1.871 1.965.756 3.434 2.558 3.732 4.773.017.125.032.26.048.391.453.023.833.311.95.749.021.077.2.789.2 1.936zm-5-2c0-.828-.672-1.5-1.5-1.5s-1.5.672-1.5 1.5.672 1.5 1.5 1.5 1.5-.672 1.5-1.5z"/></svg>