<svg id="Layer_1" viewBox="0 0 24 24" xmlns="http://www.w3.org/2000/svg" data-name="Layer 1"><path d="m17 11c-4.038 0-6 1.962-6 6s1.962 6 6 6 6-1.962 6-6-1.963-6-6-6zm0 3c.312 0 .59.012.843.036l-3.808 3.807c-.024-.254-.036-.532-.036-.843 0-2.383.617-3 3-3zm0 6c-.312 0-.59-.012-.843-.036l3.808-3.807c.024.254.036.532.036.843 0 2.383-.617 3-3 3zm-9.5-9c-2.984 0-5.597-.405-6.483-.558.036-1.76.122-2.829.126-2.885.19-3.393 1.093-6.557 6.357-6.557s6.167 3.164 6.359 6.583c.002.027.055.695.095 1.829-1.009.299-1.873.762-2.582 1.381-1.109.113-2.445.207-3.872.207zm1.5 6c0 2.299.568 4.134 1.649 5.466-.822.34-1.852.534-3.149.534-5.264 0-6.167-3.164-6.359-6.583-.004-.041-.123-1.542-.138-3.948 1.161.19 3.641.532 6.497.532.801 0 1.567-.029 2.288-.071-.518 1.13-.788 2.491-.788 4.071z"/></svg>