<?xml version="1.0" encoding="UTF-8"?>
<svg xmlns="http://www.w3.org/2000/svg" id="Layer_1" data-name="Layer 1" viewBox="0 0 24 24">
  <path d="M8.257,13.379c.733-.963,1.369-1.599,2.337-2.339-.918-1.143-2.156-2.391-3.298-3.329-.853,.516-1.605,1.276-2.151,2.386,.833,1.241,1.929,2.282,3.112,3.282Z"/>
  <path d="M6.914,14.863c-.891-.755-1.74-1.538-2.495-2.422-.121,.708-.186,1.5-.186,2.389,0,1.063,.095,2.019,.286,2.872,.654-.902,1.483-1.941,2.394-2.839Z"/>
  <path d="M10.586,18.614c-.951-.728-1.581-1.355-2.299-2.294-1.056,1.049-2.097,2.424-2.898,3.641,.455,.761,1.047,1.377,1.775,1.851,1.12-.859,2.437-2.021,3.423-3.197Z"/>
  <path d="M13.418,18.615c1.005,1.211,2.323,2.382,3.429,3.23,.749-.477,1.35-1.106,1.807-1.89-.782-1.176-1.843-2.565-2.932-3.638-.72,.941-1.351,1.569-2.304,2.298Z"/>
  <path d="M19.585,12.468c-.757,.866-1.617,1.652-2.491,2.393,.858,.84,1.687,1.838,2.405,2.814,.179-.844,.267-1.791,.267-2.845,0-.877-.064-1.661-.181-2.362Z"/>
  <path d="M12.002,20.036c-.815,.951-1.793,1.871-2.742,2.66,.813,.202,1.726,.304,2.74,.304s1.925-.096,2.734-.288c-.928-.78-1.909-1.709-2.732-2.675Z"/>
  <path d="M13.411,11.04c.969,.741,1.605,1.376,2.338,2.34,1.171-.989,2.303-2.05,3.125-3.244-.545-1.128-1.302-1.898-2.162-2.42-1.149,.934-2.377,2.171-3.301,3.324Z"/>
  <path d="M12.003,12.482c-1.017,.755-1.583,1.325-2.334,2.348,.751,1.022,1.317,1.593,2.334,2.348,1.017-.755,1.583-1.325,2.334-2.348-.751-1.022-1.317-1.593-2.334-2.348Z"/>
  <path d="M8.674,5.618c.737,0,1.583,.301,1.782,1.117-.346,.037-.695,.09-1.041,.164,.92,.834,1.833,1.786,2.587,2.702,.757-.923,1.667-1.87,2.589-2.701-.348-.075-.699-.128-1.047-.165,.2-.817,1.045-1.117,1.782-1.117,.828,0,1.5-.672,1.5-1.5s-.672-1.5-1.5-1.5c-.653,0-1.268,.109-1.826,.31v-.428c0-.828-.672-1.5-1.5-1.5s-1.5,.672-1.5,1.5v.428c-.558-.201-1.173-.31-1.826-.31-.828,0-1.5,.672-1.5,1.5s.672,1.5,1.5,1.5Z"/>
</svg>
