<svg id="Layer_1" viewBox="0 0 24 24" xmlns="http://www.w3.org/2000/svg" data-name="Layer 1"><path d="m23 2.5c0 .828-.672 1.5-1.5 1.5-.319 0-.561.038-.745.083-1.025 4.633-4.853 18.917-12.755 18.917h-1c-4.149 0-6-1.851-6-6 0-1.716.314-3.66.934-5.78.087-.296.305-.535.591-.649.147-.059 1.515-.57 4.13-.57 2.649 0 4.132.54 4.194.562.296.11.522.354.611.657.225.771.416 1.807.564 2.68 2.766-2.875 5.794-8.862 6.524-11.554l.01.003c.124-.447.448-.832.915-1.008.604-.227 1.286-.342 2.027-.342.828 0 1.5.672 1.5 1.5z"/></svg>