<svg id="Layer_1" viewBox="0 0 24 24" xmlns="http://www.w3.org/2000/svg" data-name="Layer 1"><path d="m4.593 22.481c-1.296-.161-2.169-.3-2.253-.314-.446-.073-.788-.435-.834-.884-.003-.035-.366-3.546-.474-7.254-.007-.256.083-.505.254-.696.843-.943 1.769-1.834 2.767-2.671.182 5.453.448 10.219.541 11.818zm2.531-14.068c-.045-1.133-.088-2.338-.124-3.574-.008-.256.083-.505.254-.696 1.939-2.169 4.304-3.045 4.404-3.082.221-.08.463-.08.684 0 .1.036 2.466.913 4.404 3.082.17.191.261.44.254.695-.036 1.236-.079 2.441-.125 3.575.384.245.75.506 1.119.765-.193 6.493-.533 12.34-.604 13.527-.751.074-1.557.141-2.39.193v-3.897c0-1.991-1.01-3-3-3s-3 1.009-3 3v3.897c-.833-.052-1.639-.12-2.39-.193-.071-1.187-.41-7.033-.604-13.527.368-.259.734-.52 1.119-.765zm3.375 3.088c0 .828.672 1.5 1.5 1.5s1.5-.672 1.5-1.5-.672-1.5-1.5-1.5-1.5.672-1.5 1.5zm12.215 1.833c-.843-.944-1.769-1.835-2.767-2.671-.182 5.453-.448 10.219-.542 11.818 1.296-.161 2.169-.3 2.253-.314.446-.073.788-.435.835-.884.003-.035.365-3.546.475-7.254.007-.256-.084-.505-.255-.696zm-9.715 5.667c0-.878-.122-1-1-1s-1 .122-1 1v3.986c.335.008.669.014 1 .014s.665-.006 1-.014z"/></svg>