<?xml version="1.0" encoding="UTF-8"?>
<svg xmlns="http://www.w3.org/2000/svg" id="Layer_1" data-name="Layer 1" viewBox="0 0 24 24">
  <path d="M16.599,8.234c-1.391-1.765-4.44-5.061-7.807-5.061-.493,0-.927,.249-1.161,.666-.566,1.007,.355,3.17,1.216,4.791-.831,.094-1.643,.223-2.146,.308-1.201-1.033-3.159-1.885-4.404-1.619-.594,.127-1.038,.503-1.22,1.034-.089,.259-.318,.928,.91,3.647-1.226,2.716-.999,3.384-.911,3.643,.182,.534,.63,.915,1.232,1.043,1.258,.268,3.198-.568,4.38-1.587,.501,.079,1.312,.199,2.141,.287-.854,1.618-1.765,3.773-1.2,4.774,.235,.416,.669,.665,1.162,.665,3.367,0,6.417-3.296,7.807-5.061,5.276-.512,6.401-2.319,6.401-3.766s-1.125-3.253-6.401-3.766Z"/>
</svg>
