<svg id="Layer_1" viewBox="0 0 24 24" xmlns="http://www.w3.org/2000/svg" data-name="Layer 1"><path d="m22.958 19.147c-.194-.805-1.005-1.299-1.811-1.105-.039.01-4.036.958-9.147.958s-9.107-.948-9.146-.958c-.814-.193-1.616.301-1.811 1.104-.195.805.298 1.615 1.103 1.812.176.042 4.353 1.042 9.854 1.042s9.678-1 9.854-1.042c.805-.195 1.299-1.005 1.104-1.811z"/><path d="m2.536 9.886c.229.12 5.651 2.953 8.811 4.11 3.801 1.394 6.069 2.188 6.743 2.361.303.078.603.116.895.116 1.288 0 2.414-.729 2.85-1.932.521-1.437-.214-3.073-1.709-3.807-2.305-1.131-4.465-2.062-6.604-2.846-2.31-.845-4.49-1.48-5.686-1.81l-.071-.23c-.36-1.16-1.217-2.157-2.35-2.735l-1.959-1.004c-.31-.16-.681-.146-.978.036s-.479.505-.479.854v6c0 .372.207.713.536.886z"/><path d="m14.208 6.012c.768.281 1.537.581 2.314.9-1.109-1.954-2.76-3.964-5.1-4.821-.485-.176-.987-.091-1.349.233-.334.298-.627.744-.528 2.163 1.228.36 2.909.883 4.662 1.525z"/></svg>