<svg id="Layer_1" viewBox="0 0 24 24" xmlns="http://www.w3.org/2000/svg" data-name="Layer 1"><path d="m23 3c0 1.429-.571 2-2 2s-2-.571-2-2 .571-2 2-2 2 .571 2 2zm-3 10.5c0 6.659-2.841 9.5-9.5 9.5s-9.5-2.841-9.5-9.5 2.841-9.5 9.5-9.5 9.5 2.841 9.5 9.5zm-5.441-.47s-.567-.588-1.469-1.068c-.987-.526-2.401-.962-3.09-.962h-1.11c-.25 0-.489-.099-.666-.276l-.558-.558c-.368-.368-.368-.964 0-1.332l.354-.354c.287-.287.725-.358 1.087-.176l.786.393c.363.181.801.11 1.087-.176.306-.306.364-.78.142-1.151l-.819-1.365c-4.157.037-6.245 1.234-6.98 4.294l.382.39c.189.198.451.311.725.311h2.181c.25 0 .489.099.666.276l.448.448c.177.177.276.416.276.666v.781c0 .53.211 1.039.586 1.414l1.138 1.138c.177.177.276.416.276.666v1.482c0 .623.505 1.128 1.128 1.128h.491c.413 0 .701-.18.99-.588 1.199-1.306 2.003-2.687 2.349-4.13.128-.59-.051-.949-.4-1.253z"/></svg>