<svg id="Layer_1" viewBox="0 0 24 24" xmlns="http://www.w3.org/2000/svg" data-name="Layer 1"><path d="m22.958 19.647c-.195-.805-1.009-1.298-1.81-1.105-.04.01-4.035.958-9.147.958s-9.107-.948-9.146-.958c-.807-.19-1.616.301-1.811 1.104-.195.805.299 1.615 1.103 1.812.175.042 4.353 1.042 9.854 1.042s9.678-1 9.854-1.042c.805-.195 1.298-1.005 1.104-1.811z"/><path d="m7.371 7.772c.91-.854 2.093-1.925 3.38-2.99.742-.614 1.507-1.216 2.299-1.811-2.221-.21-4.812.047-6.82 1.709-.389.321-.572.781-.5 1.26.068.461.293 1.007 1.641 1.833z"/><path d="m1.893 13.61 4.829 3.686c.179.136.393.205.607.205.177 0 .355-.047.514-.143.172-.104 4.268-2.565 8.041-5.521 2.396-1.876 4.953-4.128 5.547-4.729 1.185-1.199 1.41-2.972.546-4.31-.415-.644-1.048-1.082-1.782-1.237-.787-.166-1.611.002-2.326.471-2.152 1.414-4.063 2.817-5.843 4.29-1.896 1.568-3.559 3.148-4.474 4.046l-.149-.051c-1.167-.394-2.469-.222-3.575.478l-1.861 1.174c-.277.175-.451.474-.465.801s.132.642.392.84z"/></svg>