<svg id="Layer_1" viewBox="0 0 24 24" xmlns="http://www.w3.org/2000/svg" data-name="Layer 1"><path d="m2.397 7.311 11.417 11.417c-1.433 1.231-3.179 2.272-5.022 2.272-.493 0-.927-.249-1.162-.665-.565-1.001.346-3.329 1.2-4.947-.829-.088-1.64-.208-2.141-.287-1.182 1.019-3.122 1.855-4.38 1.587-.602-.128-1.05-.509-1.232-1.043-.088-.259-.315-.927.911-3.643-1.228-2.719-.999-3.388-.91-3.647.187-.552.694-.971 1.319-1.044zm15.346 8.311c4.291-.648 5.257-2.287 5.257-3.622 0-1.447-1.125-3.253-6.401-3.766v.002c-1.39-1.765-4.439-5.236-7.806-5.236-.493 0-.927.249-1.161.666-.236.42-.205 1.075-.036 1.809l-4.035-4.036c-.586-.586-1.535-.586-2.121 0s-.586 1.535 0 2.121l18.999 19.001c.586.586 1.535.586 2.121 0s.586-1.535 0-2.121l-4.817-4.817z"/></svg>