<svg id="Layer_1" viewBox="0 0 24 24" xmlns="http://www.w3.org/2000/svg" data-name="Layer 1"><path d="m1.215 3.639c-.612-2.347.081-3.04 2.426-2.428s3.527 1.795 4.139 4.142c.138.528.198 1.104.224 1.586.026-.482.086-1.058.224-1.586.612-2.346 1.794-3.53 4.139-4.142s3.038.081 2.426 2.428c-.612 2.346-1.794 3.53-4.139 4.142-.372.097-.776.15-1.157.181 0 .009.003.014.003.023v1.516c0 .828-.671 1.5-1.5 1.5s-1.5-.672-1.5-1.5v-1.516c0-.009.003-.014.003-.023-.378-.031-.779-.084-1.149-.181-2.345-.612-3.527-1.795-4.139-4.142zm21.708 8.246c-.164-.647-.57-1.192-1.145-1.533-1.183-.705-2.72-.315-3.427.869-1.031 1.731-2.2 3.154-3.595 4.288-.372 1.02-1.156 1.857-2.214 2.276-1.006.429-2.568 1.112-4.543 1.215-.509 0-.945-.387-.995-.904-.053-.55.35-1.038.9-1.091 1.582-.152 2.971-.684 3.879-1.069.76-.301 1.217-.971 1.217-1.759 0-.752-.502-1.429-1.221-1.645-.008 0-1.779-.532-4.279-.532-2.985 0-5.082.497-5.19.519-.381.074-.686.362-.78.739-.021.086-.53 2.144-.53 4.242s.508 4.156.53 4.242c.094.375.395.663.774.738.106.021 2.632.52 5.696.52 6.432.026 11.307-3.592 14.648-9.221.342-.573.439-1.246.274-1.894z"/></svg>