<svg id="Layer_1" viewBox="0 0 24 24" xmlns="http://www.w3.org/2000/svg" data-name="Layer 1"><path d="m16.104 15.991c3.967-.136 6.896-1.806 6.896-3.991s-2.929-3.855-6.896-3.991c-.23-.339-.466-.711-.71-1.097-.29-.457-.594-.938-.92-1.412h1.525c0 .829.672 1.5 1.5 1.5s1.5-.671 1.5-1.5v-3c0-.829-.672-1.5-1.5-1.5s-1.5.671-1.5 1.5h-4.521c-.596-.314-1.251-.5-1.979-.5-.415 0-.788.179-1.057.5h-1.443c-.828 0-1.5.671-1.5 1.5s.672 1.5 1.5 1.5h1.012c.106 1.023.342 2.115.609 3h-2.209c-1.157-1.054-2.882-1.689-4.033-1.444-.649.137-1.133.548-1.327 1.126-.034.103-.052.21-.052.318v7c0 .107.018.213.051.314.192.581.677.992 1.329 1.13 1.165.244 2.885-.391 4.034-1.444h2.204c-.27.883-.512 1.975-.619 3h-1c-.828 0-1.5.671-1.5 1.5s.672 1.5 1.5 1.5h1.443c.27.321.642.5 1.057.5.728 0 1.383-.186 1.979-.5h4.521c0 .829.672 1.5 1.5 1.5s1.5-.671 1.5-1.5v-3c0-.829-.672-1.5-1.5-1.5s-1.5.671-1.5 1.5h-1.524c.326-.474.63-.955.92-1.413.243-.385.479-.757.709-1.096z"/></svg>