<svg id="Layer_1" viewBox="0 0 24 24" xmlns="http://www.w3.org/2000/svg" data-name="Layer 1"><path d="m9.5 13.588v7.912c0 .829-.671 1.5-1.5 1.5s-1.5-.671-1.5-1.5v-6.12c-2.988-.511-4.5-2.661-4.5-6.411 0-.008.009-.297.021-.632-.512-.174-.914-.617-1.003-1.188-.128-.818.432-1.585 1.25-1.713.57-.089 1.148-.164 1.731-.226v-2.71c0-.829.671-1.5 1.5-1.5s1.5.671 1.5 1.5v2.515c.666-.017 1.334-.017 2 0v-2.515c0-.829.671-1.5 1.5-1.5s1.5.671 1.5 1.5v2.71c.584.062 1.162.137 1.731.226.819.128 1.378.895 1.25 1.713-.088.56-.474.999-.972 1.179-.003.339-.01.633-.01.641 0 .137-.002.272-.006.405-2.254.63-3.767 2.051-4.494 4.214zm13.5 3.412c0 4.149-1.851 6-6 6s-6-1.851-6-6 1.851-6 6-6 6 1.851 6 6zm-3.5 0c0-.553-.447-1-1-1h-1.83c.24-.73.694-1.38 1.096-1.854.357-.421.306-1.052-.116-1.409-.421-.357-1.052-.305-1.409.116-.794.936-1.74 2.415-1.74 4.146 0 .553.447 1 1 1h1.83c-.24.73-.694 1.38-1.096 1.854-.357.421-.306 1.052.116 1.409.419.356 1.051.306 1.409-.116.794-.936 1.74-2.415 1.74-4.146z"/></svg>