<svg id="Layer_1" viewBox="0 0 24 24" xmlns="http://www.w3.org/2000/svg" data-name="Layer 1"><path d="m22.561 3.561-1.543 1.544c.666.915.983 1.793.983 2.698 0 1.273-.626 2.492-1.969 3.834-.042.042-.111.11-.192.188.245.486.215 1.089-.127 1.559-.294.403-.75.616-1.213.616-.307 0-.616-.094-.883-.288-1.368-.998-2.694-2.137-3.942-3.385-1.25-1.25-2.389-2.576-3.386-3.943-.488-.669-.342-1.607.328-2.096.477-.349 1.093-.374 1.584-.115.076-.079.146-.151.201-.205 1.343-1.343 2.561-1.968 3.834-1.968.899 0 1.77.312 2.677.967l1.527-1.528c.586-.586 1.535-.585 2.121 0 .586.586.586 1.536 0 2.122zm-9.892 9.378-1.551 1.552c-.259-.276-.522-.549-.791-.818s-.541-.532-.817-.791l1.552-1.552c.586-.586.586-1.536 0-2.122-.586-.585-1.535-.585-2.121 0l-1.714 1.715c-.279-.218-.559-.43-.842-.636-.67-.488-1.606-.342-2.096.328-.343.47-.372 1.072-.127 1.558-.082.079-.15.146-.192.188-1.343 1.343-1.969 2.561-1.969 3.834 0 .906.317 1.784.983 2.698l-1.543 1.544c-.586.586-.586 1.536 0 2.122.293.292.677.439 1.061.439s.768-.146 1.061-.439l1.527-1.528c.907.655 1.778.967 2.677.967 1.273 0 2.491-.625 3.834-1.968.054-.054.124-.126.201-.205.217.114.458.174.701.174.307 0 .616-.094.883-.288.67-.488.816-1.427.328-2.096-.206-.282-.418-.563-.636-.841l1.714-1.714c.586-.586.586-1.536 0-2.122-.586-.585-1.535-.585-2.121 0z"/></svg>