<svg id="Layer_1" viewBox="0 0 24 24" xmlns="http://www.w3.org/2000/svg" data-name="Layer 1"><path d="m23 12c0 3.622-.627 8.636-6.047 10.353-.15.048-.304.07-.453.07-.637 0-1.228-.408-1.43-1.047-.25-.79.187-1.633.977-1.883 2.053-.65 3.953-2.009 3.953-7.493 0-5.981-2.019-8-8-8s-8 2.019-8 8c0 5.372 1.644 7.54 6.065 7.998.271.004.397-.121.435-.402v-1.712c-2.324-.418-3.458-1.921-3.528-4.635-.489-.184-.867-.622-.954-1.175-.128-.819.431-1.586 1.25-1.714.242-.038.487-.073.732-.104v-2.756c0-.829.671-1.5 1.5-1.5s1.5.671 1.5 1.5v2.517c.666-.021 1.334-.021 2 0v-2.517c0-.829.672-1.5 1.5-1.5s1.5.671 1.5 1.5v2.756c.246.032.49.067.732.105.818.128 1.378.896 1.249 1.714-.088.564-.481 1.005-.984 1.183-.065 2.713-1.189 4.219-3.498 4.646v1.692c0 .962-.41 1.884-1.126 2.529-.626.565-1.439.875-2.272.875-.114 0-.229-.006-.344-.018-5.975-.619-8.757-4.108-8.757-10.982 0-7.607 3.393-11 11-11s11 3.393 11 11z"/></svg>