<svg id="Layer_1" viewBox="0 0 24 24" xmlns="http://www.w3.org/2000/svg" data-name="Layer 1"><path d="m22.949 11.686c-1.202-3.632-2.905-6.687-5.206-9.341-.146-.167-.342-.281-.56-.325-.105-.021-2.62-.52-5.184-.52s-5.078.498-5.184.52c-.218.044-.414.158-.56.325-2.299 2.654-4.002 5.709-5.204 9.341-.067.204-.067.425 0 .629 1.202 3.632 2.905 6.687 5.206 9.341.146.167.342.281.56.325.105.021 2.62.52 5.184.52s5.078-.498 5.184-.52c.218-.044.414-.158.56-.325 2.301-2.654 4.004-5.709 5.206-9.341.067-.204.067-.425 0-.629zm-6.949 1.314h-3v3c0 .553-.447 1-1 1s-1-.447-1-1v-3h-3c-.553 0-1-.447-1-1s.447-1 1-1h3v-3c0-.553.447-1 1-1s1 .447 1 1v3h3c.553 0 1 .447 1 1s-.447 1-1 1z"/></svg>