<svg id="Layer_1" viewBox="0 0 24 24" xmlns="http://www.w3.org/2000/svg" data-name="Layer 1"><path d="m23 11.982c0 3.256-.5 7.821-4.819 9.873-.75.355-1.644.037-1.998-.711-.355-.748-.037-1.643.711-1.999 1.536-.729 3.106-2.151 3.106-7.163 0-5.981-2.019-8-8-8s-8 2.019-8 8c0 5.03 1.585 6.451 3.136 7.177.75.351 1.074 1.244.723 1.994-.352.758-1.261 1.071-1.994.723-4.361-2.041-4.865-6.624-4.865-9.894 0-7.607 3.393-11 11-11s11 3.393 11 11zm-5.292 2.428c.196-.69.292-1.479.292-2.41 0-4.038-1.963-6-6-6s-6 1.962-6 6c0 .932.096 1.72.292 2.41.227.796 1.056 1.258 1.853 1.033.797-.227 1.259-1.056 1.032-1.853-.117-.414-.177-.949-.177-1.59 0-2.383.617-3 3-3s3 .617 3 3c0 .641-.06 1.176-.177 1.59-.227.797.235 1.626 1.032 1.853.775.227 1.629-.229 1.853-1.033zm-5.708.59c-.882 0-1.548.241-1.979.717-.412.455-.581 1.083-.502 1.885.018.107.232 3.342.259 3.454.381 1.691 1.556 1.944 2.221 1.944s1.839-.253 2.222-1.943c.025-.101.243-3.369.26-3.471.077-.785-.091-1.414-.504-1.869-.431-.476-1.097-.717-1.979-.717zm1.5-3c0-1.071-.429-1.5-1.5-1.5s-1.5.429-1.5 1.5.429 1.5 1.5 1.5 1.5-.429 1.5-1.5z"/></svg>