<svg id="Layer_1" viewBox="0 0 24 24" xmlns="http://www.w3.org/2000/svg" data-name="Layer 1"><path d="m22.217 11.024c-.188-.042-4.671-1.024-10.217-1.024-2.249 0-4.316.162-6 .357v-3.14c.466-.33 1.302-.843 2.555-1.323.503.706 1.329 1.099 2.438 1.106h.012c1.869-.011 2.961-1.098 2.995-3.018-.032-1.828-1.179-2.971-3.005-2.982-1.419.009-2.403.677-2.798 1.845-3.13 1.057-4.591 2.428-4.758 2.594-.281.281-.439.663-.439 1.061v4.289c-.723.127-1.161.223-1.217.235-.539.12-.879.654-.76 1.193.12.54.656.88 1.193.759.011-.002.293-.064.792-.155.09 5.1.989 8.313 1.029 8.454.091.317.333.569.646.674.129.043 3.201 1.051 7.316 1.051s7.187-1.008 7.316-1.051c.312-.104.555-.356.646-.674.04-.141.939-3.354 1.029-8.454.499.091.781.153.792.155.525.121 1.076-.217 1.193-.759.119-.539-.221-1.073-.76-1.193zm-7.073 5.091c-.378.335-.741.659-1.107.97.16.556.293 1.112.399 1.667.109.485-.438.914-.882.689-.568-.263-1.078-.537-1.553-.826-.475.289-.985.563-1.553.826-.444.225-.991-.204-.882-.689.106-.555.239-1.111.399-1.667-.366-.311-.73-.635-1.107-.97-.403-.335-.184-1.045.337-1.094.569-.073 1.075-.128 1.55-.163.21-.506.441-1.011.694-1.512.212-.462.912-.462 1.124 0 .252.502.484 1.006.694 1.512.475.035.981.09 1.55.163.522.049.74.759.337 1.094z"/></svg>