<svg id="Layer_1" viewBox="0 0 24 24" xmlns="http://www.w3.org/2000/svg" data-name="Layer 1"><path d="m5.714 4.772c-.427-.71-.196-1.632.515-2.058.708-.426 1.632-.196 2.058.514.824 1.374 1.613 2.366 2.11 2.938.92-.173 2.287-.173 3.207 0 .497-.571 1.286-1.563 2.11-2.938.427-.71 1.35-.94 2.058-.514.711.426.941 1.348.515 2.058-1.721 2.803-2.989 4.031-3.286 4.229v4.317c-.563-.184-1.009-.221-2.5-.31v-1.509h-1v1.509c-1.493.089-1.934.126-2.5.31v-4.304c-.297-.226-1.561-1.427-3.286-4.242zm.885 12.273c-.357-.026-.734-.045-1.098-.045-1.676 0-3.426.369-3.499.384-.401.085-.71.407-.778.812-.009.054-.223.78-.223 1.804 0 .954.088 1.41.229 1.917.109.395.449.682.857.725.092.01 1.631.169 4.61.272-.099-1.025-.197-2.412-.197-3.914 0-.683.039-1.34.098-1.955zm5.401-12.045c1.429 0 2-.571 2-2s-.571-2-2-2-2 .571-2 2 .571 2 2 2zm10.78 13.916c-.1-.414-.451-.72-.876-.761-.064-.006-1.601-.155-2.904-.155-.484 0-1.028.021-1.525.047.015.312.025.629.025.953 0 1.502-.097 2.889-.196 3.914 2.996-.103 4.554-.264 4.648-.274.374-.04.694-.286.828-.638.184-.478.221-.646.221-1.502 0-1.155-.211-1.546-.22-1.584zm-8.43-3.725c-.046-.008-1.138-.191-2.351-.191s-2.305.184-2.351.191c-.375.064-.682.335-.79.7-.176.434-.401 2.311-.359 3.109 0 1.543.111 2.974.214 3.969.986.019 2.081.031 3.286.031s2.3-.012 3.286-.032c.102-.994.214-2.426.214-3.968.042-.79-.184-2.685-.359-3.109-.108-.364-.415-.636-.79-.7z"/></svg>