<svg id="Layer_1" viewBox="0 0 24 24" xmlns="http://www.w3.org/2000/svg" data-name="Layer 1"><path d="m7.5 6c-1.714 0-3.377.262-4.457.478.297-3.774 2.32-5.478 6.457-5.478h4.598c-1.257 1.227-1.929 3.038-2.068 5.493-1.077-.219-2.771-.493-4.529-.493zm5.862 3.421c.026.111.638 2.751.638 6.079s-.612 5.968-.638 6.079c-.084.359-.36.643-.717.737-.105.028-2.6.684-5.146.684s-5.041-.656-5.146-.684c-.357-.095-.632-.378-.717-.737-.026-.111-.638-2.751-.638-6.079s.612-5.968.638-6.079c.084-.359.36-.643.717-.737.105-.028 2.6-.684 5.146-.684s5.041.656 5.146.684c.357.095.632.378.717.737zm-6.362 7.579c0-.552-.448-1-1-1h-1c-.552 0-1 .448-1 1s.448 1 1 1h1c.552 0 1-.448 1-1zm4 0c0-.552-.448-1-1-1h-1c-.552 0-1 .448-1 1s.448 1 1 1h1c.552 0 1-.448 1-1zm0-5c0-.552-.448-1-1-1h-5c-.552 0-1 .448-1 1v1c0 .552.448 1 1 1h5c.552 0 1-.448 1-1zm9.619-10.068c-1.342-.822-3.096-.861-4.438-.039-1.483.908-2.114 2.573-2.167 5.253.638.414 1.114 1.052 1.295 1.817v.003c.071.302.691 3.056.691 6.534 0 .37-.008.73-.021 1.082.176.257.471.426.786.418.178 0 .354-.047.51-.14.004.014.764-.502 1.21-.993.446.491 1.206 1.007 1.21.993.317.188.711.187 1.026-.003.207-.058 1.493-1.191 1.813-1.726.12-.161.189-.354.199-.554.002-.047.213-4.704.257-6.948.005-.042.008-.084.008-.128 0-2.757-.758-4.575-2.381-5.568z"/></svg>