<svg id="Layer_1" viewBox="0 0 24 24" xmlns="http://www.w3.org/2000/svg" data-name="Layer 1"><path d="m22.621 5.703c-.537.632-1.481.71-2.114.175-2.975-2.52-5.091-2.506-8.085.061-.283.243-.63.361-.976.361-.422 0-.843-.178-1.139-.523-.539-.629-.467-1.576.162-2.115 4.09-3.508 7.896-3.529 11.978-.073.632.536.71 1.482.175 2.114zm-6.121 3.297c-.828 0-1.5.672-1.5 1.5s.672 1.5 1.5 1.5 1.5-.672 1.5-1.5-.672-1.5-1.5-1.5zm4.428.932c.044.649.072 1.342.072 2.068 0 3.575-.66 6.411-.688 6.53-.118.456-.445.7-.917.787-.187 1.141-.35 1.845-.366 1.913-.084.359-.36.642-.717.737-.159.042-3.948 1.033-7.812 1.033s-7.652-.991-7.812-1.033c-.357-.095-.633-.378-.717-.737-.04-.168-.971-4.172-.971-9.23s.932-9.062.971-9.23c.794-1.401 3.996-1.449 8.693-1.768-.5.34-.999.713-1.497 1.14-.86.737-1.26 1.805-1.201 2.857h-1.965c-.552 0-1 .448-1 1v4c0 .552.448 1 1 1h7.051c.113.778.47 1.475 1.008 2-.572-.03-1.06.425-1.058 1 0 .552.448 1 1 1h1c.56.004 1.049-.488.99-1.052.168.025.336.052.51.052 1.893 0 3.432-1.514 3.489-3.394.346-.167.66-.397.939-.674zm-12.928 8.068c0-.552-.448-1-1-1h-1c-.552 0-1 .448-1 1s.448 1 1 1h1c.552 0 1-.448 1-1zm0-4c0-.552-.448-1-1-1h-1c-.552 0-1 .448-1 1s.448 1 1 1h1c.552 0 1-.448 1-1zm4 4c0-.552-.448-1-1-1h-1c-.552 0-1 .448-1 1s.448 1 1 1h1c.552 0 1-.448 1-1zm0-4c0-.552-.448-1-1-1h-1c-.552 0-1 .448-1 1s.448 1 1 1h1c.552 0 1-.448 1-1zm4 4c0-.552-.448-1-1-1h-1c-.552 0-1 .448-1 1s.448 1 1 1h1c.552 0 1-.448 1-1zm3.68-9.855c.489-.668.345-1.607-.323-2.096-1.919-1.405-3.862-1.388-5.786.051-.663.497-.798 1.437-.302 2.1.295.394.746.601 1.202.601.312 0 .629-.097.898-.299.874-.657 1.352-.664 2.214-.032.669.489 1.606.345 2.097-.324zm-12.68-1.145v2h4.321c-.113-.24-.201-.487-.256-.741-.902-.103-1.771-.527-2.332-1.259z"/></svg>