<svg id="Layer_1" viewBox="0 0 24 24" xmlns="http://www.w3.org/2000/svg" data-name="Layer 1"><path d="m3.476 5.524c.066-.424.18-.679.528-.892.139-.08 3.231-1.826 6.996-2.49v-.142c0-.552.448-1 1-1s1 .448 1 1v.142c3.765.664 6.857 2.41 6.996 2.49.349.214.462.467.528.892-1.623.193-4.652.476-8.524.476s-6.898-.283-8.524-.476zm19.505 16.698c-.105.545-.647.896-1.175.787-.05-.01-5.028-.981-9.806-.981s-9.756.971-9.806.981c-.544.11-1.068-.246-1.175-.787-.107-.542.246-1.068.787-1.175.069-.014.66-.129 1.59-.276-.151-1.301-.396-3.988-.396-7.771 0-2.452.105-4.247.22-5.491 1.676.202 4.773.491 8.78.491s7.103-.289 8.78-.491c.116 1.244.22 3.039.22 5.491 0 3.783-.245 6.47-.396 7.771.93.147 1.521.262 1.59.276.542.107.894.633.787 1.175zm-15.981-10.222c0 .552.448 1 1 1s1-.448 1-1v-1.5c0-.552-.448-1-1-1s-1 .448-1 1zm4 5c0-.538-.111-1.057-.124-1.114-.083-.381-.381-.679-.762-.762-.057-.013-.577-.124-1.114-.124s-1.057.111-1.114.124c-.381.083-.679.381-.762.762-.013.057-.124.577-.124 1.114s.111 1.057.124 1.114c.083.381.381.679.762.762.057.013.577.124 1.114.124s1.057-.111 1.114-.124c.381-.083.679-.381.762-.762.013-.057.124-.577.124-1.114zm2-6.5c0-.552-.448-1-1-1s-1 .448-1 1v1.5c0 .552.448 1 1 1s1-.448 1-1zm4 0c0-.552-.448-1-1-1s-1 .448-1 1v1.5c0 .552.448 1 1 1s1-.448 1-1z"/></svg>