<svg id="Layer_1" viewBox="0 0 24 24" xmlns="http://www.w3.org/2000/svg" data-name="Layer 1"><path d="m2.997 12.476c0-1.785.769-2.335 2.562-2.435 0 0 1.231-.008 2.4-.018.574-.005 1.035-.472 1.035-1.045 0-.575-.428-1.05-1.003-1.053h-1c-1.385-.08-1.996-.517-1.996-1.945s.615-1.868 2.05-1.948c-.056-.018 1.36.02 2.448-.051 1.498 0 1.499-.075 1.499-1.995 0-.559.463-1.008 1.022-1.004 1.662.012 3.193 1.388 4.107 3.039.487.006.818.01.818.01 1.435.08 2.05.52 2.05 1.948s-.615 1.868-2.05 1.948c0 0-.949.051-.949 1.05s.693 1.043 1 1.046c.838.01 1.436.017 1.436.017 1.794.1 2.562.65 2.562 2.435s-.769 2.335-2.562 2.435c0 0-.49.021-1.19.039-.379-.42-.864-.727-1.403-.874l.123-.743c.309-1.709-1.154-3.397-2.881-3.357-3.001.252-5.171 2.984-6.049 4.951-.852-.01-1.467-.017-1.467-.017-1.794-.1-2.562-.65-2.562-2.435zm12.811 3.866c-.174-.232-.446-.368-.734-.368h-1.582l.493-2.968c.099-.633-.565-1.196-1.171-.991-3.672 1.097-4.637 5.577-4.698 5.781-.184.565.285 1.177.879 1.177h1.499l-.493 2.968c-.083.545.399 1.062.946 1.024 3.685-.744 5.006-5.669 5.006-5.815.082-.277.029-.577-.144-.809zm-7.791 5.351c0-.016.133-.806.139-.845-.591-.179-1.121-.543-1.499-1.048-.605-.802-.72-1.848-.404-2.774-1.24.014-2.18.025-2.18.025-2.152.12-3.075.781-3.075 2.922s.923 2.802 3.075 2.922c0 0 2.033.024 4.075.045-.127-.397-.185-.819-.131-1.247zm11.895-4.643s-.816-.023-1.93-.045c-.009.239-.042.477-.111.709-.25.938-1.055 3.394-2.942 5.235 2.3-.023 4.983-.054 4.983-.054 2.152-.12 3.075-.781 3.075-2.922s-.923-2.802-3.075-2.922z"/></svg>