<?xml version="1.0" encoding="UTF-8"?>
<svg xmlns="http://www.w3.org/2000/svg" id="Layer_1" data-name="Layer 1" viewBox="0 0 24 24">
  <path d="M10.007,9.889l.674,13.049c0,.01,0,.019,0,.029,.413,.021,.852,.033,1.318,.033s.905-.012,1.318-.033c0-.01,0-.019,0-.029l.674-13.049c-.64-.049-1.308-.078-1.993-.078s-1.353,.029-1.993,.078Z"/>
  <path d="M3.922,10.986c-.485,.152-.778,.645-.682,1.144l1.758,9.081c.057,.296,.244,.55,.51,.692,.059,.031,1.063,.555,3.162,.867l-.654-12.662c-2.348,.338-3.991,.846-4.093,.878Z"/>
  <path d="M20.078,10.986c-.102-.032-1.745-.54-4.093-.878l-.654,12.662c2.098-.312,3.103-.836,3.162-.867,.266-.142,.453-.396,.51-.692l1.758-9.081c.097-.5-.196-.992-.682-1.144Z"/>
  <path d="M20.452,5.725c.176-.412,.271-.862,.271-1.326,0-1.874-1.524-3.399-3.398-3.399-1.052,0-2.012,.49-2.641,1.264-1.21-.866-3.015-.905-4.276-.044-.407-.208-.86-.318-1.332-.318-1.082,0-2.048,.606-2.555,1.503-1.549-.2-3.008,.917-3.259,2.422-1.104,.466-1.861,1.556-1.861,2.816,0,.552,.148,1.07,.405,1.518,.366-.498,.888-.886,1.518-1.084,.418-.13,4.189-1.267,8.677-1.267s8.259,1.137,8.674,1.266c.631,.198,1.154,.587,1.521,1.085,.257-.448,.405-.966,.405-1.518,0-1.369-.904-2.531-2.147-2.919Zm-11.409,.627c-.795,0-1.44-.647-1.44-1.446s.645-1.446,1.44-1.446,1.44,.647,1.44,1.446-.645,1.446-1.44,1.446Zm4.146,.664c-.795,0-1.44-.647-1.44-1.446s.645-1.446,1.44-1.446,1.44,.647,1.44,1.446-.645,1.446-1.44,1.446Z"/>
</svg>
