<svg id="Layer_1" viewBox="0 0 24 24" xmlns="http://www.w3.org/2000/svg" data-name="Layer 1"><path d="m12.221 17.238c.443.696.246 1.616-.449 2.062-1.114.679-2.456.709-3.325.699h-1.939c-.42 2.002-1.171 3.001-2.509 3.001-2.551 0-3-3.547-3-11s.45-11 3.001-11 3 3.547 3 11c0 1.086-.011 2.079-.036 3h-.964c-.552 0-1 .448-1 1s.448 1 1 1h2.5c.658.02 1.438-.09 1.65-.223.7-.44 1.628-.236 2.071.461zm5.779-11.237c1.127-.007 1.972-.487 2-2-.025-1.453-.877-1.993-2-2-1.127.007-1.974.516-2 2 .028 1.509.877 1.993 2 2zm4.295 5.727-.965-.604-1.459-2.423c-.636-1.057-1.787-1.696-3.041-1.696-3.73.035-5.611.226-5.69.233-.376.039-.723.219-.973.503-.81.923-1.426 1.941-1.452 1.984-.427.709-.199 1.629.51 2.057.708.428 1.63.201 2.059-.508.004-.007.321-.528.765-1.101.359-.025.887-.057 1.564-.087-.374.519-.668.94-1.069 1.608-.565.955-.696 1.96-.368 2.832.212.564.755 1.306 1.917 1.79.524.36 1.233.918 1.882 1.679-.137 1.431-.799 2.795-.818 2.836-.369.74-.068 1.64.672 2.01.725.367 1.64.078 2.013-.671.047-.095 1.158-2.344 1.158-4.671 0-.325-.105-.64-.3-.9-.709-.946-1.508-1.683-2.212-2.237.527-.766 1.156-1.803 1.641-2.739l.816 1.356c.122.203.29.373.49.499l1.27.794c.691.435 1.625.232 2.066-.477.439-.703.227-1.628-.477-2.067z"/></svg>