<svg id="Layer_1" viewBox="0 0 24 24" xmlns="http://www.w3.org/2000/svg" data-name="Layer 1"><path d="m23 21.298c0 .94-.762 1.702-1.702 1.702h-3.238c-2.6 0-4.779-1.985-4.985-4.577-.125-2.008-.104-4.286.366-6.285.165-.703.663-1.129 1.418-1.129.629 0 1.049.409 1.293.981.308.738.727 2.755.848 4.01.049.513.485.877.985.888.584.057 1.067-.509 1.006-1.079-.117-1.217-.552-3.554-.985-4.572-.23-.58-.593-1.056-1.036-1.426-1.196-3.831-3.008-5.1-3.035-5.118-.905-.602-1.186-1.828-.605-2.747.58-.92 1.77-1.221 2.701-.66.584.35 5.53 3.727 5.971 14.715 0 2.387.62 4.015.884 4.679.078.197.116.406.116.618zm-22 0c0 .94.762 1.702 1.702 1.702h3.238c2.6 0 4.779-1.985 4.985-4.577.125-2.008.104-4.286-.366-6.285-.165-.703-.663-1.129-1.418-1.129-.629 0-1.049.409-1.293.981-.308.738-.727 2.755-.848 4.01-.049.513-.485.877-.985.888-.584.057-1.067-.509-1.006-1.079.117-1.217.552-3.554.985-4.572.23-.58.593-1.056 1.036-1.426 1.196-3.831 3.008-5.1 3.035-5.118.905-.602 1.186-1.828.605-2.747-.58-.92-1.77-1.221-2.701-.66-.584.35-5.53 3.727-5.971 14.715 0 2.387-.62 4.015-.884 4.679-.078.197-.116.406-.116.618z"/></svg>