<?xml version="1.0" encoding="UTF-8"?>
<svg xmlns="http://www.w3.org/2000/svg" id="Layer_1" data-name="Layer 1" viewBox="0 0 24 24">
  <path d="M21.502,13.719H2.498c-.829,0-1.5,.671-1.5,1.5s.671,1.5,1.5,1.5H10.5v1.097c-.669,.044-1.336,.118-2.001,.221-.565,.088-1.031,.489-1.202,1.035l-.065,.207c-.231,.732-.384,1.216-.361,2.217,.019,.829,.736,1.503,1.534,1.465,.828-.019,1.484-.706,1.465-1.534-.005-.235,0-.388,.028-.547,1.397-.149,2.806-.149,4.203,0,.028,.159,.034,.312,.028,.547-.019,.828,.637,1.515,1.465,1.534,.012,0,.023,0,.035,0,.812,0,1.48-.649,1.499-1.465,.023-1-.129-1.484-.361-2.217l-.065-.207c-.17-.546-.636-.947-1.202-1.035-.665-.103-1.333-.177-2.001-.221v-1.097h8.002c.829,0,1.5-.671,1.5-1.5s-.671-1.5-1.5-1.5Z"/>
  <path d="M21.958,11.725c.387-2.642,.272-5.295-.349-7.923-.285-1.205-1.274-2.123-2.463-2.283-4.742-.639-9.551-.64-14.291,0-1.189,.161-2.179,1.078-2.464,2.283-.621,2.628-.736,5.282-.349,7.923H21.958Z"/>
</svg>
