<svg id="Layer_1" viewBox="0 0 24 24" xmlns="http://www.w3.org/2000/svg" data-name="Layer 1"><path d="m22.561 20.439c.586.585.586 1.536 0 2.121-.586.586-1.535.586-2.121 0l-1.926-1.926c-.584.234-1.253.366-2.013.366-2.817 0-4.5-1.682-4.5-4.5s1.683-4.5 4.5-4.5 4.5 1.682 4.5 4.5c0 .76-.132 1.429-.366 2.013zm-10.999-8.439c1.136-1.272 2.836-2 4.938-2 3.541 0 5.952 2.056 6.413 5.328.05-.57.087-1.169.087-1.828 0-3.899-1.041-6.303-1.085-6.404-.136-.308-.418-.527-.751-.583-.126-.021-3.15-.514-9.164-.514s-9.039.493-9.165.514c-.332.055-.614.274-.75.583-.044.101-1.085 2.504-1.085 6.404s1.041 6.303 1.085 6.404c.114.258.332.456.599.545.039.013.614.196 1.593.348-.149-.759-.277-1.711-.277-2.796 0-2.228.281-3.488.337-3.718.337-1.348 1.534-2.282 2.913-2.282h4.312zm6.316-7.824c-.161-1.212-.426-1.951-.442-1.994-.104-.276-.324-.492-.602-.591-.068-.024-1.698-.591-4.835-.591s-4.767.567-4.835.591c-.278.099-.498.315-.602.591-.016.043-.281.781-.442 1.994 1.491-.097 3.44-.176 5.878-.176s4.387.079 5.878.176zm-7.878 12.324c0-.914.142-1.75.402-2.5h-3.152c-.459 0-.859.312-.97.757-.011.046-.28 1.144-.28 3.243 0 2.154.59 3.778.616 3.846.093.253.285.458.532.567.135.06 1.418.586 4.853.586 1.231 0 2.177-.069 2.901-.158-3.023-.604-4.901-2.957-4.901-6.342z"/></svg>