<svg id="Layer_1" viewBox="0 0 24 24" xmlns="http://www.w3.org/2000/svg" data-name="Layer 1"><path d="m21.977 2.786c-.083-.381-.381-.679-.762-.762-.19-.042-4.714-1.023-9.215-1.023s-9.024.98-9.214 1.022c-.381.083-.679.381-.762.762-.042.19-1.023 4.713-1.023 9.214s.981 9.024 1.023 9.214c.083.381.381.679.762.762.19.042 4.713 1.023 9.214 1.023s9.024-.981 9.215-1.023c.381-.083.679-.381.762-.762.042-.19 1.023-4.713 1.023-9.214s-.981-9.024-1.023-9.214zm-11.277 7.314c-.218-.291-.455-.566-.7-.835v7.735c0 .552-.448 1-1 1s-1-.448-1-1v-7.735c-.244.268-.481.544-.7.835-.332.442-.958.533-1.4.201s-.532-.958-.201-1.4c.768-1.024 1.676-1.933 2.701-2.701.355-.267.844-.267 1.199 0 1.024.768 1.933 1.676 2.701 2.701.331.442.241 1.068-.201 1.4-.18.135-.39.2-.599.2-.304 0-.604-.138-.801-.4zm7.6 5c-.768 1.024-1.677 1.932-2.7 2.7-.178.133-.389.2-.6.2s-.422-.067-.6-.2c-1.023-.768-1.932-1.676-2.7-2.7-.332-.442-.242-1.069.2-1.4.443-.332 1.07-.241 1.4.2.218.291.456.566.7.835v-7.735c0-.552.447-1 1-1s1 .448 1 1v7.735c.244-.268.482-.544.7-.835.331-.441.958-.531 1.399-.2.442.331.532.958.2 1.4z"/></svg>