<svg id="Layer_1" viewBox="0 0 24 24" xmlns="http://www.w3.org/2000/svg" data-name="Layer 1"><path d="m17.224 6.015c-.009-.042-.224-1.029-.224-2.015s.214-1.973.224-2.015c.083-.381.381-.678.762-.762.042-.009 1.029-.224 2.015-.224s1.973.214 2.015.224c.381.083.678.381.762.762.009.042.224 1.029.224 2.015s-.214 1.973-.224 2.015c-.083.381-.381.678-.762.762-.042.009-1.029.224-2.015.224s-1.973-.214-2.015-.224c-.381-.083-.678-.381-.762-.762zm4.791 3.209c-.042-.009-1.029-.224-2.015-.224s-1.973.214-2.015.224c-.381.083-.678.381-.762.762-.009.042-.224 1.029-.224 2.015s.214 1.973.224 2.015c.083.381.381.678.762.762.042.009 1.029.224 2.015.224s1.973-.214 2.015-.224c.381-.083.678-.381.762-.762.009-.042.224-1.029.224-2.015s-.214-1.973-.224-2.015c-.083-.381-.381-.678-.762-.762zm0 8c-.042-.009-1.029-.224-2.015-.224s-1.973.214-2.015.224c-.381.083-.678.381-.762.762-.009.042-.224 1.029-.224 2.015s.214 1.973.224 2.015c.083.381.381.678.762.762.042.009 1.029.224 2.015.224s1.973-.214 2.015-.224c.381-.083.678-.381.762-.762.009-.042.224-1.029.224-2.015s-.214-1.973-.224-2.015c-.083-.381-.381-.678-.762-.762zm-12.215-8.824c.294.393.745.6 1.201.6.313 0 .629-.098.899-.3 1.062-.796 2.004-1.738 2.8-2.8.4-.533.4-1.267 0-1.8-.796-1.062-1.738-2.004-2.8-2.8-.662-.496-1.604-.362-2.1.3-.44.587-.383 1.389.094 1.91-6.141.108-8.894 2.966-8.894 9.24 0 6.397 2.853 9.25 9.25 9.25h3.25c.829 0 1.5-.671 1.5-1.5s-.671-1.5-1.5-1.5h-3.25c-4.731 0-6.25-1.519-6.25-6.25 0-4.601 1.445-6.159 5.875-6.242-.461.522-.509 1.312-.075 1.892z"/></svg>