<svg id="Layer_1" viewBox="0 0 24 24" xmlns="http://www.w3.org/2000/svg" data-name="Layer 1"><path d="m6.776 1.985c.009.042.224 1.029.224 2.015s-.214 1.973-.224 2.015c-.083.381-.381.678-.762.762-.042.009-1.029.224-2.015.224s-1.973-.214-2.015-.224c-.381-.083-.678-.381-.762-.762-.009-.042-.224-1.029-.224-2.015s.214-1.973.224-2.015c.083-.381.381-.678.762-.762.042-.009 1.029-.224 2.015-.224s1.973.214 2.015.224c.381.083.678.381.762.762zm-.762 7.238c-.042-.009-1.029-.224-2.015-.224s-1.973.214-2.015.224c-.381.083-.678.381-.762.762-.009.042-.224 1.029-.224 2.015s.214 1.973.224 2.015c.083.381.381.678.762.762.042.009 1.029.224 2.015.224s1.973-.214 2.015-.224c.381-.083.678-.381.762-.762.009-.042.224-1.029.224-2.015s-.214-1.973-.224-2.015c-.083-.381-.381-.678-.762-.762zm0 8c-.042-.009-1.029-.224-2.015-.224s-1.973.214-2.015.224c-.381.083-.678.381-.762.762-.009.042-.224 1.029-.224 2.015s.214 1.973.224 2.015c.083.381.381.678.762.762.042.009 1.029.224 2.015.224s1.973-.214 2.015-.224c.381-.083.678-.381.762-.762.009-.042.224-1.029.224-2.015s-.214-1.973-.224-2.015c-.083-.381-.381-.678-.762-.762zm16.686-7.124c-.796-1.062-1.738-2.004-2.8-2.8-.533-.399-1.267-.399-1.8 0-1.062.796-2.004 1.738-2.8 2.8-.497.663-.362 1.603.3 2.1.583.436 1.379.386 1.9-.082v9.382c0 .829.671 1.5 1.5 1.5s1.5-.671 1.5-1.5v-9.389c.28.253.637.39 1.001.39.313 0 .629-.098.899-.3.663-.497.797-1.437.3-2.1zm-12.135-5.034c.908-.04 1.896-.065 2.935-.065 3.667 0 6.689.319 7.819.456.807.102 1.574-.482 1.67-1.309.1-.822-.486-1.57-1.309-1.67-1.184-.144-4.351-.478-8.181-.478-.996 0-2.027.023-3.065.068-.828.036-1.469.736-1.433 1.564.036.827.728 1.467 1.564 1.433zm-.066 8.501c.342-.011.687-.028 1.046-.037.828-.025 1.479-.716 1.455-1.544-.025-.829-.711-1.475-1.544-1.455-.349.011-.69.023-1.021.038-.828.036-1.469.736-1.433 1.564.035.806.699 1.435 1.498 1.435zm3.514 4.935-.513-.002c-.996 0-2.027.023-3.065.068-.828.036-1.469.736-1.433 1.564.034.828.743 1.471 1.564 1.433.908-.04 1.896-.065 2.935-.065l.487.002h.014c.822 0 1.492-.663 1.5-1.487.007-.828-.658-1.506-1.487-1.513z"/></svg>