<svg id="Layer_1" viewBox="0 0 24 24" xmlns="http://www.w3.org/2000/svg" data-name="Layer 1"><path d="m22.561 22.56c-.293.293-.677.439-1.061.439s-.768-.146-1.061-.439l-1.947-1.947c-.584.245-1.248.387-1.992.387-2.733 0-4.5-1.767-4.5-4.5s1.767-4.5 4.5-4.5 4.5 1.767 4.5 4.5c0 .744-.141 1.408-.387 1.992l1.947 1.947c.586.586.586 1.535 0 2.121zm-6.061-12.56c-2.442 0-4.41 1.092-5.518 2.874-.263-.23-.604-.374-.982-.374-.83 0-1.5.67-1.5 1.5-.003.849.721 1.553 1.572 1.493-.118.809-.086 1.722.078 2.506-5.418.042-8.487-.93-8.492-.965-.466-.17-.738-.654-.639-1.141.025-.121.637-3.02 3.381-7.812 2.633-4.597 4.747-6.603 4.979-6.817.383-.352.971-.352 1.353 0 .232.214 2.345 2.219 4.977 6.816.392.685.736 1.326 1.046 1.931-.086-.003-.169-.011-.256-.011zm-5.5-3c0-.553-.448-1-1-1s-1 .447-1 1v3c0 .553.448 1 1 1s1-.447 1-1z"/></svg>