<svg id="Layer_1" viewBox="0 0 24 24" xmlns="http://www.w3.org/2000/svg" data-name="Layer 1"><path d="m8.915 6.298c.097-2.748.399-4.172.414-4.241.1-.45.492-.743.931-.764 1.035-.215 2.125-.264 4.24-.293 4.231 0 6.434 1.04 6.671 1.158.741.371 1.041 1.271.671 2.013-.372.748-1.287 1.038-2.013.671-.005-.002-1.668-.761-4.889-.829.06.615.112 1.384.145 2.285-.936-.193-1.96-.298-3.085-.298s-2.148.105-3.085.298zm11.085 9.702c0 2.559-.494 5.374-.516 5.492-.067.38-.347.687-.719.789-.106.03-2.656.719-6.766.719s-6.659-.689-6.766-.719c-.372-.102-.651-.409-.719-.789-.021-.119-.516-2.934-.516-5.492 0-5.533 2.468-8 8-8s8 2.467 8 8zm-4 0c0-.552-.447-1-1-1h-2v-2c0-.552-.447-1-1-1s-1 .448-1 1v2h-2c-.553 0-1 .448-1 1s.447 1 1 1h2v2c0 .552.447 1 1 1s1-.448 1-1v-2h2c.553 0 1-.448 1-1z"/></svg>