<svg id="Layer_1" viewBox="0 0 24 24" xmlns="http://www.w3.org/2000/svg" data-name="Layer 1"><path d="m1.019 13c.111-3.255.709-6.259.738-6.398.079-.39.38-.695.769-.779.126-.027 2.577-.548 5.428-.746.564-.039 1.047.406 1.047.972v6.952h-2.785c.178-.587.285-1.172.285-1.5 0-.828-.672-1.5-1.5-1.5s-1.5.672-1.5 1.5c0 .328.106.913.285 1.5h-2.767zm7.981 7.215c-.587.178-1.172.285-1.5.285-.828 0-1.5-.672-1.5-1.5s.672-1.5 1.5-1.5c.328 0 .913.106 1.5.285v-2.785h-7.981c.111 3.255.709 6.259.738 6.398.078.389.379.693.766.778.14.031 3.19.691 6.478.805v-2.766zm7.215-5.215c.178.587.285 1.172.285 1.5 0 .828-.672 1.5-1.5 1.5s-1.5-.672-1.5-1.5c0-.328.106-.913.285-1.5h-2.785v7.977c3.239-.126 6.213-.769 6.351-.8.376-.082.671-.372.759-.746.03-.124.593-2.537.807-5.378.043-.566-.404-1.053-.971-1.053h-1.73zm5.765-6c.572 0 1.021-.479 1-1.05-.084-2.268-.411-4.422-.593-5.476-.071-.412-.385-.73-.796-.806-1.065-.197-3.253-.554-5.536-.646-.573-.023-1.055.426-1.055.999v1.763c.587-.178 1.172-.285 1.5-.285.828 0 1.5.672 1.5 1.5s-.672 1.5-1.5 1.5c-.328 0-.913-.106-1.5-.285v1.785c0 .552.448 1 1 1h1.285c-.178.587-.285 1.172-.285 1.5 0 .828.672 1.5 1.5 1.5s1.5-.672 1.5-1.5c0-.328-.106-.913-.285-1.5h2.265z"/></svg>