<svg id="Layer_1" viewBox="0 0 24 24" xmlns="http://www.w3.org/2000/svg" data-name="Layer 1"><path d="m1.014 6.257c.277-2.024.585-3.435.598-3.494.126-.576.576-1.025 1.151-1.151.059-.013 1.47-.321 3.494-.597.823-.113 1.588.466 1.701 1.292s-.466 1.588-1.292 1.701c-.926.126-1.72.261-2.293.366-.105.572-.239 1.367-.366 2.293-.11.831-.891 1.407-1.701 1.292-.826-.113-1.405-.875-1.292-1.701zm5.652 13.735c-.926-.126-1.72-.261-2.293-.366-.105-.573-.239-1.367-.366-2.293-.114-.827-.881-1.406-1.701-1.292-.826.113-1.405.875-1.292 1.701.277 2.024.585 3.435.598 3.494.126.575.576 1.025 1.151 1.151.059.013 1.47.321 3.494.598.81.115 1.592-.462 1.701-1.292.113-.826-.466-1.588-1.292-1.701zm15.028-3.951c-.824-.112-1.588.465-1.701 1.292-.126.926-.261 1.72-.366 2.293-.573.105-1.367.239-2.293.366-.826.113-1.405.875-1.292 1.701.11.831.891 1.407 1.701 1.292 2.024-.277 3.435-.585 3.494-.598.575-.126 1.025-.576 1.151-1.151.013-.059.321-1.471.598-3.494.113-.826-.466-1.588-1.292-1.701zm-4.36-12.034c.926.126 1.72.261 2.293.366.105.572.239 1.367.366 2.293.11.831.891 1.407 1.701 1.292.826-.113 1.405-.875 1.292-1.701-.277-2.024-.585-3.435-.598-3.494-.126-.576-.576-1.025-1.151-1.151-.059-.013-1.47-.321-3.494-.597-.821-.111-1.588.466-1.701 1.292s.466 1.588 1.292 1.701zm-7.168 2.139c-.035-.008-.863-.188-1.691-.188s-1.655.18-1.691.188c-.32.07-.569.32-.639.639-.008.035-.188.863-.188 1.691s.18 1.655.188 1.69c.07.32.32.569.639.639.035.008.863.188 1.691.188s1.655-.18 1.691-.188c.32-.07.569-.32.639-.639.008-.035.188-.863.188-1.69s-.18-1.655-.188-1.691c-.07-.32-.32-.569-.639-.639zm0 7.048c-.035-.008-.863-.188-1.691-.188s-1.655.18-1.691.188c-.32.07-.569.32-.639.639-.008.035-.188.863-.188 1.691s.18 1.655.188 1.69c.07.32.32.569.639.639.035.008.863.188 1.691.188s1.655-.18 1.691-.188c.32-.07.569-.32.639-.639.008-.035.188-.863.188-1.69s-.18-1.655-.188-1.691c-.07-.32-.32-.569-.639-.639zm3.668-2.389c.035.008.863.188 1.691.188s1.655-.18 1.691-.188c.32-.07.569-.32.639-.639.008-.035.188-.863.188-1.69s-.18-1.655-.188-1.691c-.07-.32-.32-.569-.639-.639-.035-.008-.863-.188-1.691-.188s-1.655.18-1.691.188c-.32.07-.569.32-.639.639-.008.035-.188.863-.188 1.691s.18 1.655.188 1.69c.07.32.32.569.639.639zm.683 2.202c-.834 0-1.51.676-1.51 1.51s.676 1.51 1.51 1.51 1.51-.676 1.51-1.51-.676-1.51-1.51-1.51z"/></svg>