<svg id="Layer_1" viewBox="0 0 24 24" xmlns="http://www.w3.org/2000/svg" data-name="Layer 1"><path d="m21.806 2.858c-.1-.325-.357-.578-.685-.67-.173-.049-4.273-1.188-9.121-1.188s-8.947 1.139-9.12 1.188c-.329.093-.588.347-.687.674-.049.161-1.193 4.007-1.193 9.139 0 5.175 1.146 8.982 1.194 9.142.1.325.357.578.685.67.173.049 4.273 1.188 9.121 1.188s8.947-1.139 9.12-1.188c.329-.093.588-.347.687-.674.049-.161 1.193-4.007 1.193-9.139 0-5.175-1.146-8.982-1.194-9.142zm-9.806 16.641c-.828 0-1.5-.672-1.5-1.5s.672-1.5 1.5-1.5 1.5.672 1.5 1.5-.672 1.5-1.5 1.5zm1-6.863v1.365c0 .552-.447 1-1 1s-1-.448-1-1v-2.275c0-.55.444-.997.994-1 1.435-.009 1.979-.574 2.006-2.087-.024-1.418-.625-2.042-2.007-2.052-1.386.009-1.968.614-1.993 2.087-.01.552-.444 1.006-1.018.982-.552-.01-.992-.465-.982-1.018.045-2.56 1.501-4.037 3.993-4.052 2.471.017 3.964 1.531 4.007 4.053-.041 2.265-1.096 3.646-3 3.997z"/></svg>