<svg id="Layer_1" viewBox="0 0 24 24" xmlns="http://www.w3.org/2000/svg" data-name="Layer 1"><path d="m7 3c0-1.429.571-2 2-2 .335 0 .619.035.864.101-.231.542-.364 1.17-.364 1.899s.133 1.357.364 1.899c-.245.067-.529.101-.864.101-1.429 0-2-.571-2-2zm-2.5 2c.335 0 .619-.035.864-.101-.231-.542-.364-1.17-.364-1.899s.133-1.357.364-1.899c-.245-.067-.529-.101-.864-.101-1.429 0-2 .571-2 2s.571 2 2 2zm14 0c1.429 0 2-.571 2-2s-.571-2-2-2-2 .571-2 2 .571 2 2 2zm4.092 2.124c-.081-.399-.396-.71-.796-.785-.073-.014-1.819-.338-3.296-.338s-3.223.325-3.296.338c-.4.075-.715.386-.796.785-.017.083-.408 2.053-.408 4.376s.392 4.293.408 4.376c.066.327.293.587.592.714v4.91c0 .829.672 1.5 1.5 1.5s1.5-.671 1.5-1.5v-4.512c.338.016.662.016 1 0v4.512c0 .829.672 1.5 1.5 1.5s1.5-.671 1.5-1.5v-4.91c.298-.127.525-.387.592-.714.017-.083.408-2.053.408-4.376s-.392-4.293-.408-4.376zm-8.092-4.124c0-.65.098-1.226.282-1.728-.312-.185-.732-.272-1.282-.272-1.429 0-2 .571-2 2s.571 2 2 2c.55 0 .97-.087 1.282-.272-.184-.502-.282-1.078-.282-1.728zm-11.116 11.828c-.066-.339-.384-2.055-.384-4.078s.317-3.739.381-4.062c.044-.219.118-.424.205-.621-.777.077-1.425.196-1.464.203-.4.075-.715.386-.796.785-.013.066-.325 1.635-.325 3.481s.312 3.415.325 3.481c.072.357.335.632.675.743v3.74c0 .829.672 1.5 1.5 1.5s1.5-.671 1.5-1.5v-1.58c-.821-.402-1.427-1.162-1.616-2.093zm4.015.929c-.042-.223-.398-2.192-.398-4.507s.356-4.284.397-4.501c.045-.237.124-.459.219-.672-.79.082-1.437.201-1.477.209-.4.075-.715.386-.796.785-.014.07-.344 1.727-.344 3.68s.33 3.61.344 3.68c.071.35.326.621.656.736v4.334c0 .829.672 1.5 1.5 1.5s1.5-.671 1.5-1.5v-1.623c-.826-.413-1.424-1.185-1.602-2.121zm4.602-4.257c0-2.462.401-4.54.447-4.769.052-.255.141-.494.25-.721-1.22.051-2.488.3-2.548.312-.399.08-.71.394-.786.794-.015.078-.363 1.939-.363 4.133s.349 4.055.363 4.133c.066.347.313.619.637.74v4.377c0 .829.672 1.5 1.5 1.5s1.5-.671 1.5-1.5v-3.004c-.268-.352-.459-.767-.552-1.221-.047-.234-.448-2.312-.448-4.774z"/></svg>