<svg id="Layer_1" viewBox="0 0 24 24" xmlns="http://www.w3.org/2000/svg" data-name="Layer 1"><path d="m9.5 3c0-1.429.571-2 2-2 .335 0 .619.035.864.101-.231.542-.364 1.17-.364 1.899s.133 1.357.364 1.899c-.245.067-.529.101-.864.101-1.429 0-2-.571-2-2zm-2.03 4.097c-.019.083-.47 2.066-.47 4.403 0 .733.046 1.422.108 2.038.454.154 1.094.279 2.026.36-.076-.714-.134-1.529-.134-2.398 0-2.497.467-4.615.52-4.848.041-.176.1-.343.169-.505-.78.086-1.362.18-1.407.187-.4.066-.721.367-.812.762zm8.53-2.097c1.429 0 2-.571 2-2s-.571-2-2-2-2 .571-2 2 .571 2 2 2zm-9 0c.335 0 .619-.035.864-.101-.231-.542-.364-1.17-.364-1.899s.133-1.357.364-1.899c-.245-.067-.529-.101-.864-.101-1.429 0-2 .571-2 2s.571 2 2 2zm5.282 1.334c-.4.066-.721.367-.812.762-.019.083-.47 2.066-.47 4.403 0 .919.07 1.777.156 2.493.267.004.547.007.844.007 4.844 0 5.612-.614 6.022-1.298.647-1.081 1.79-1.674 2.966-1.688-.055-2.117-.441-3.839-.459-3.917-.091-.395-.412-.696-.812-.762-.083-.014-2.056-.334-3.718-.334s-3.635.321-3.718.334zm-2.282 14.633v.532c0 .829.671 1.5 1.5 1.5s1.5-.671 1.5-1.5v-.507c-.332.005-.665.007-1 .007-.674 0-1.341-.009-2-.032zm12.514-6.658c-.081-.634-.556-1.147-1.181-1.278-.627-.133-1.266.149-1.595.697-1.029 1.719-2.91 2.271-7.738 2.271s-6.708-.552-7.739-2.271c-.329-.548-.966-.828-1.594-.697-.625.131-1.099.644-1.18 1.278-.481 3.766-.487 7.052-.487 7.19 0 .828.671 1.5 1.5 1.5.828 0 1.5-.671 1.5-1.5 0-.022.003-1.617.164-3.803 2.091 1.172 4.826 1.303 7.836 1.303s5.745-.13 7.836-1.303c.161 2.186.164 3.781.164 3.803 0 .828.672 1.5 1.5 1.5s1.5-.672 1.5-1.5c0-.138-.006-3.424-.486-7.19zm-17.511-2.656c0-2.497.463-4.768.517-5.001.041-.176.1-.343.169-.505-.78.086-1.362.18-1.407.187-.4.066-.721.367-.812.762-.018.078-.403 1.799-.459 3.916.711.009 1.408.226 1.992.64 0 .013 0 .026 0 0zm9.997 9.847c0 .829.672 1.5 1.5 1.5s1.5-.671 1.5-1.5v-.996c-.956.22-1.963.343-3 .412zm-9 0c0 .829.671 1.5 1.5 1.5s1.5-.671 1.5-1.5v-.584c-1.037-.069-2.044-.192-3-.412z"/></svg>