<svg id="Layer_1" viewBox="0 0 24 24" xmlns="http://www.w3.org/2000/svg" data-name="Layer 1"><path d="m16.149 13.937c.226.085.476.085.702 0 4.278-1.604 5.938-4.308 6.006-4.422.093-.156.143-.333.143-.515 0-5.458-.794-8-2.5-8-.332 0-.642.165-.828.439-.258.382-.412.732-.512 1.098-.7-.243-1.615-.466-2.66-.466s-1.96.223-2.66.466c-.1-.365-.254-.716-.512-1.098-.186-.274-.497-.439-.828-.439-1.706 0-2.5 2.542-2.5 8 0 .181.049.359.143.515.068.114 1.729 2.817 6.006 4.422zm2.351-6.937c1.071 0 3 .429 3 1.5s-1.929 1.5-3 1.5-1.5-.429-1.5-1.5.429-1.5 1.5-1.5zm-4 0c1.071 0 1.5.429 1.5 1.5s-.429 1.5-1.5 1.5-3-.429-3-1.5 1.929-1.5 3-1.5zm-10.5-3c-1.093 0-2.221-.413-2.748-.634.009-.1.019-.213.028-.292.125-1.058.938-1.891 1.978-2.027.441-.058 1.042-.058 1.484 0 1.039.136 1.852.97 1.977 2.027.009.079.019.192.028.293-.526.221-1.654.634-2.748.634zm18.974 16.223c.153.814-.383 1.598-1.197 1.751-4.085.796-7.12 1.066-12.789 1.025-5.366-.003-7.838-2.341-7.974-7.544.86.278 1.977.545 3.114.545.924 0 1.763-.162 2.452-.361-.199 1.563-.457 3.05-.743 4.108-.136.521.159 1.059.678 1.212.515.157 1.087-.142 1.242-.676.616-2.087 1.081-6.135 1.21-8.985.879 1.111 2.876 3.159 6.48 4.511.18.068.365.115.553.146v3.545c0 .553.448 1 1 1s1-.447 1-1v-3.871c.903-.368 1.702-.777 2.401-1.202.075.412.157.876.247 1.407.112.8.235 1.914.302 3.242.092-.017.18-.033.273-.051.809-.154 1.598.383 1.751 1.197zm-18.974-11.223c-1.144 0-2.309-.384-2.981-.649.02-1.002.055-2.007.098-2.898.75.263 1.802.547 2.883.547s2.133-.284 2.883-.547c.043.891.078 1.896.098 2.898-.672.265-1.837.65-2.981.65zm.127 5c-1.19 0-2.405-.391-3.127-.672v-2.858c.822.269 1.903.53 3 .53s2.173-.26 2.994-.529c-.017.858-.08 1.889-.177 2.974-.589.241-1.571.555-2.69.555z"/></svg>