<?xml version="1.0" encoding="UTF-8"?>
<svg xmlns="http://www.w3.org/2000/svg" id="Layer_1" data-name="Layer 1" viewBox="0 0 24 24">
  <path d="M20.807,3.737c-.075-.101-.386-.407-.47-.471C16.783-.017,10.863,.402,6.984,4.262c-2.052,2.044-3.23,4.772-3.23,7.488,0,1.614,.414,3.138,1.188,4.444-.235,.695-.579,1.219-1.11,1.746l-2.535,2.505c-.19,.188-.297,.443-.297,.71s.106,.523,.296,.711l.801,.794c.195,.193,.449,.29,.704,.29s.508-.096,.703-.288l2.537-2.506c.533-.528,1.065-.87,1.774-1.103,1.336,.783,2.87,1.171,4.444,1.171,2.633,0,5.38-1.082,7.511-3.203,2.052-2.044,3.23-4.772,3.23-7.488,0-2.21-.776-4.253-2.193-5.795Zm-11.325,4.952c-1.005,1.097-1.975,2.325-2.71,3.538-.012-.157-.018-.316-.018-.476,0-1.269,.373-2.551,1.054-3.703,.369,.056,.95,.253,1.674,.641Zm2.472,1.747c.28,.244,.566,.51,.858,.799,.279,.277,.537,.549,.774,.815-2.224,2.067-4.102,3.1-5.042,3.375,.285-.933,1.332-2.794,3.41-4.989Zm2.97-1.332c-.247-.245-.509-.491-.782-.735,1.802-1.513,3.289-2.299,4.092-2.536-.243,.797-1.042,2.271-2.563,4.051-.247-.273-.497-.534-.746-.78Zm-.431-5.055c.164,0,.326,.007,.488,.019-1.105,.661-2.232,1.519-3.283,2.447-.56-.352-1.131-.661-1.698-.905,1.379-1.033,2.977-1.562,4.493-1.562Zm-2.731,13.164c1.214-.722,2.455-1.683,3.595-2.717,.398,.719,.602,1.298,.662,1.666-1.355,.804-2.857,1.161-4.258,1.051Zm6.685-3.233c-.246-.56-.557-1.124-.911-1.677,.908-1.016,1.774-2.132,2.447-3.236,.011,.153,.017,.307,.017,.463,0,1.551-.557,3.121-1.553,4.45Z"/>
</svg>
