<?xml version="1.0" encoding="UTF-8"?>
<svg xmlns="http://www.w3.org/2000/svg" id="Layer_1" data-name="Layer 1" viewBox="0 0 24 24">
  <path d="M22.955,10.858c-.185,.241-.391,.474-.617,.698-1.698,1.69-4.684,2.783-7.135,3.44,1.327,.695,2.732,1.217,3.961,1.217h.01c2.35-.006,3.816-1.729,3.826-4.508,0-.303-.015-.585-.045-.847Z"/>
  <path d="M12.502,1.706c.215-.214,.437-.409,.667-.586-.254-.028-.525-.044-.818-.044h-.043c-2.779,.01-4.508,1.47-4.514,3.811-.003,1.239,.53,2.654,1.241,3.989,.657-2.429,1.765-5.476,3.467-7.169Z"/>
  <path d="M20.929,10.139c.835-.83,2.628-3.307-.541-6.475-2.187-2.187-4.615-2.391-6.476-.54-1.798,1.789-2.874,5.75-3.358,7.974-3.681-2.813-6.443-1.103-7.833,.281-3.781,3.761-.173,9.391-.018,9.628,.075,.116,.175,.215,.29,.291,.156,.102,5.945,3.623,9.634-.021,3.342-3.301,1.294-6.491,.304-7.797,2.227-.482,6.201-1.552,7.999-3.341Z"/>
</svg>
