<svg id="Layer_1" viewBox="0 0 24 24" xmlns="http://www.w3.org/2000/svg" data-name="Layer 1"><path d="m15.105 4.115c-.378.335-.741.659-1.107.97.16.556.293 1.112.399 1.667.044.232-.044.469-.23.614-.187.145-.437.175-.652.075-.568-.263-1.078-.537-1.553-.826-.475.289-.985.563-1.553.826-.215.1-.465.071-.652-.075-.186-.145-.274-.382-.23-.614.106-.555.239-1.111.399-1.667-.366-.311-.73-.635-1.107-.97-.184-.164-.256-.42-.183-.656s.276-.407.521-.438c.569-.073 1.075-.128 1.55-.163.21-.506.441-1.011.694-1.512.107-.212.325-.363.562-.345.237-.017.454.133.562.345.252.502.484 1.006.694 1.512.475.035.981.09 1.55.163.245.031.448.203.521.438s0 .492-.183.656zm-6.739 18.828c1.069.034 2.273.057 3.634.057s2.563-.022 3.634-.057c.085-.7.366-3.252.366-6.202 0-3.397-.374-6.27-.39-6.391-.048-.362-.29-.67-.631-.802-.058-.022-1.439-.549-2.979-.549s-2.921.526-2.979.549c-.342.132-.583.439-.631.802-.016.121-.39 2.993-.39 6.391 0 2.95.282 5.502.366 6.202zm14.245-6.994c-.104-.379-.42-.661-.808-.723-.058-.01-1.443-.227-2.777-.227-.335 0-.698.014-1.055.034.018.547.029 1.118.029 1.707 0 2.716-.228 5.09-.343 6.115 2.708-.149 4.077-.362 4.163-.375.39-.062.707-.349.808-.729.139-.521.372-1.571.372-2.751 0-1.616-.373-2.993-.389-3.051zm-16.611.792c0-1.827.103-3.498.206-4.711-.239-.018-.481-.031-.719-.031-1.672 0-3.287.328-3.355.342-.403.083-.714.403-.784.81-.014.082-.348 2.039-.348 4.349 0 1.906.282 3.563.404 4.188.08.412.408.729.822.797.084.013 1.43.224 4.117.372-.115-1.026-.343-3.4-.343-6.115z"/></svg>