<svg id="Layer_1" viewBox="0 0 24 24" xmlns="http://www.w3.org/2000/svg" data-name="Layer 1"><path d="m4.5 4c1.071 0 1.5.429 1.5 1.5s-.429 1.5-1.5 1.5-1.5-.429-1.5-1.5.429-1.5 1.5-1.5zm0 3.5c-1 0-2.184.416-2.473 1.393-.109.369.129.762.513.872.546.157 1.193.234 1.961.234s1.415-.078 1.961-.234c.384-.11.622-.504.513-.872-.29-.977-1.473-1.393-2.473-1.393zm13.5 1c0 1.071.429 1.5 1.5 1.5s1.5-.429 1.5-1.5-.429-1.5-1.5-1.5-1.5.429-1.5 1.5zm1.5 2c-1 0-2.184.416-2.473 1.393-.109.369.129.762.513.872.546.157 1.193.234 1.961.234s1.415-.078 1.961-.234c.384-.11.622-.504.513-.872-.29-.977-1.473-1.393-2.473-1.393zm-9-8c0 1.071.429 1.5 1.5 1.5s1.5-.429 1.5-1.5-.429-1.5-1.5-1.5-1.5.429-1.5 1.5zm1.5 2c-1 0-2.184.416-2.473 1.393-.109.369.129.762.513.872.546.157 1.193.234 1.961.234s1.415-.078 1.961-.234c.384-.11.622-.504.513-.872-.29-.977-1.473-1.393-2.473-1.393zm-3.634 18.443c1.069.034 2.273.057 3.634.057s2.563-.022 3.634-.057c.085-.7.366-3.252.366-6.202 0-3.397-.374-6.27-.39-6.391-.048-.362-.29-.67-.631-.802-.058-.022-1.439-.549-2.979-.549s-2.921.526-2.979.549c-.342.132-.583.439-.631.802-.016.121-.39 2.993-.39 6.391 0 2.95.282 5.502.366 6.202zm14.245-6.994c-.104-.379-.42-.661-.808-.723-.058-.01-1.443-.227-2.777-.227-.335 0-.698.014-1.055.034.018.547.029 1.118.029 1.707 0 2.716-.228 5.09-.343 6.115 2.708-.149 4.077-.362 4.163-.375.39-.062.707-.349.808-.729.139-.521.372-1.571.372-2.751 0-1.616-.373-2.993-.389-3.051zm-16.611.792c0-1.827.103-3.498.206-4.711-.239-.018-.481-.031-.719-.031-1.672 0-3.287.328-3.355.342-.403.083-.714.403-.784.81-.014.082-.348 2.039-.348 4.349 0 1.906.282 3.563.404 4.188.08.412.408.729.822.797.084.013 1.43.224 4.117.372-.115-1.026-.343-3.4-.343-6.115z"/></svg>