<svg id="Layer_1" viewBox="0 0 24 24" xmlns="http://www.w3.org/2000/svg" data-name="Layer 1"><path d="m13.5 12c0 .828-.672 1.5-1.5 1.5s-1.5-.672-1.5-1.5.672-1.5 1.5-1.5 1.5.672 1.5 1.5zm6.392 4.232c.451 2.76-.919 4.269-2.234 5.048-1.757 1.046-3.755 1.014-5.658-.482-1.901 1.495-3.903 1.529-5.658.482-1.271-.753-2.606-2.182-2.285-4.773-2.495-1.035-3.057-2.904-3.057-4.364 0-1.47.57-3.353 3.107-4.384-.445-2.756.924-4.262 2.235-5.039 1.329-.788 3.357-1.304 5.658.481 2.302-1.785 4.33-1.268 5.658-.481 1.269.753 2.604 2.18 2.286 4.765 2.494 1.035 3.055 2.903 3.055 4.363 0 1.471-.57 3.354-3.108 4.384zm-6.076-1.738c.462-.752 1.093-1.78 1.525-2.493-.475-.781-1.046-1.715-1.531-2.504-1.106-.004-2.513-.004-3.618 0-.463.754-1.098 1.789-1.532 2.504.468.77 1.045 1.711 1.525 2.493.08 0 3.081.002 3.631 0zm.232-9.072c.672.934 1.396 2.101 2.309 3.59.227-.473.397-.896.498-1.279.379-1.442.003-2-.727-2.434-.612-.363-1.222-.466-2.08.122zm-7.022 1.691c1.183-.104 2.62-.112 4.462-.113-.364-.492-.701-.885-1.035-1.185-1.139-1.023-1.854-.946-2.58-.515-.613.364-.971.823-.847 1.813zm-3.026 5.031c0 .498.101 1.046.968 1.483.476-.98 1.137-2.093 1.989-3.49-.453.051-.851.12-1.196.218-1.625.464-1.761 1.167-1.761 1.789zm5.953 6.434c-.673-.934-1.397-2.102-2.309-3.591-.227.473-.398.897-.498 1.28-.379 1.442-.003 2.001.727 2.434.612.362 1.221.466 2.08-.123zm7.02-1.7c-1.184.104-2.621.112-4.467.112.367.497.706.893 1.042 1.195 1.138 1.021 1.856.945 2.581.515.615-.365.973-.825.845-1.822zm3.027-5.03c0-.497-.101-1.044-.964-1.481-.475.979-1.135 2.091-1.987 3.488.45-.051.846-.12 1.189-.218 1.625-.463 1.762-1.166 1.762-1.789z"/></svg>