<?xml version="1.0" encoding="UTF-8"?>
<svg xmlns="http://www.w3.org/2000/svg" id="Layer_1" data-name="Layer 1" viewBox="0 0 24 24">
  <path d="M20.943,4.121c-.164-1.299-1.173-2.357-2.454-2.574-4.307-.728-8.672-.728-12.979,0-1.281,.216-2.29,1.275-2.454,2.575-.641,5.126-.666,10.323-.073,15.447,.077,.668,.437,1.283,.984,1.684,.401,.295,.799,.591,1.193,.885,.777,.581,1.82,.648,2.654,.172,.346-.197,.697-.402,1.052-.614,.158-.096,.359-.09,.512,.015l1.246,.862c.416,.287,.893,.43,1.368,.43s.952-.143,1.366-.429l1.249-.863c.15-.104,.349-.11,.51-.015,.358,.213,.712,.419,1.06,.617,.835,.475,1.875,.407,2.651-.171,.397-.296,.798-.593,1.2-.889,.55-.402,.91-1.017,.987-1.687,.593-5.123,.567-10.319-.073-15.445Zm-8.784,12.059h-3.659c-.553,0-1-.448-1-1s.447-1,1-1h3.659c.553,0,1,.448,1,1s-.447,1-1,1Zm3.341-4.181h-7c-.553,0-1-.448-1-1s.447-1,1-1h7c.553,0,1,.448,1,1s-.447,1-1,1Zm0-4.181h-7c-.553,0-1-.448-1-1s.447-1,1-1h7c.553,0,1,.448,1,1s-.447,1-1,1Z"/>
</svg>
