<?xml version="1.0" encoding="UTF-8"?>
<svg xmlns="http://www.w3.org/2000/svg" id="Layer_1" data-name="Layer 1" viewBox="0 0 24 24">
  <path d="M12,9.127c-1.905,0-2.873,.444-2.873,2.873s.968,2.873,2.873,2.873,2.873-.444,2.873-2.873-.968-2.873-2.873-2.873Zm0,4.379c-.828,0-1.5-.672-1.5-1.5s.672-1.5,1.5-1.5,1.5,.672,1.5,1.5-.672,1.5-1.5,1.5Z"/>
  <path d="M12,1C6.878,1,1,2.25,1,12s5.878,11,11,11,11-1.25,11-11S17.122,1,12,1Zm0,15.873c-3.279,0-4.873-1.594-4.873-4.873s1.594-4.873,4.873-4.873,4.873,1.594,4.873,4.873-1.594,4.873-4.873,4.873Z"/>
</svg>
