<?xml version="1.0" encoding="UTF-8"?>
<svg xmlns="http://www.w3.org/2000/svg" id="Layer_1" data-name="Layer 1" viewBox="0 0 24 24">
  <path d="M18.778,2.969c-.059-.319-.27-.591-.564-.727-.11-.05-2.732-1.242-6.214-1.242-3.512,0-6.109,1.193-6.218,1.244-.293,.137-.502,.407-.561,.725-.031,.17-.77,4.229-.77,9.031s.738,8.86,.77,9.031c.059,.319,.269,.591,.564,.727,.11,.05,2.732,1.242,6.214,1.242,3.512,0,6.109-1.193,6.218-1.244,.293-.137,.502-.407,.561-.725,.031-.17,.771-4.229,.771-9.031s-.739-8.86-.771-9.031Z"/>
</svg>
