<svg id="Layer_1" viewBox="0 0 24 24" xmlns="http://www.w3.org/2000/svg" data-name="Layer 1"><path d="m21.97 3.757c-.082-.332-.329-.598-.653-.706-.129-.043-3.225-1.051-9.316-1.051s-9.189 1.008-9.317 1.051c-.324.108-.571.375-.653.706-.042.168-1.03 4.167-1.03 8.243s.988 8.074 1.03 8.242c.082.332.329.599.653.706.129.043 3.225 1.052 9.316 1.052s9.187-1.009 9.316-1.052c.324-.107.571-.374.653-.706.042-.168 1.03-4.166 1.03-8.242s-.988-8.074-1.03-8.243zm-15.47 13.743c-.828 0-1.5-.672-1.5-1.5s.672-1.5 1.5-1.5 1.5.672 1.5 1.5-.672 1.5-1.5 1.5zm0-4c-.828 0-1.5-.672-1.5-1.5s.672-1.5 1.5-1.5 1.5.672 1.5 1.5-.672 1.5-1.5 1.5zm0-4c-.828 0-1.5-.672-1.5-1.5s.672-1.5 1.5-1.5 1.5.672 1.5 1.5-.672 1.5-1.5 1.5zm11.5 7.5h-7c-.553 0-1-.447-1-1s.447-1 1-1h7c.553 0 1 .447 1 1s-.447 1-1 1zm0-4h-7c-.553 0-1-.448-1-1s.447-1 1-1h7c.553 0 1 .448 1 1s-.447 1-1 1zm0-4h-7c-.553 0-1-.448-1-1s.447-1 1-1h7c.553 0 1 .448 1 1s-.447 1-1 1z"/></svg>