<?xml version="1.0" encoding="UTF-8"?>
<svg xmlns="http://www.w3.org/2000/svg" id="Layer_1" data-name="Layer 1" viewBox="0 0 24 24">
  <path d="M21.796,3.714c-.109-.32-.373-.564-.701-.647-.171-.043-4.26-1.066-9.095-1.066S3.077,3.022,2.905,3.066c-.33,.083-.595,.329-.703,.651-.049,.146-1.203,3.635-1.203,8.283,0,4.688,1.154,8.141,1.204,8.286,.109,.32,.373,.564,.701,.647,.171,.043,4.26,1.066,9.095,1.066s8.923-1.022,9.095-1.066c.33-.083,.595-.329,.703-.651,.049-.146,1.203-3.635,1.203-8.283,0-4.688-1.154-8.141-1.204-8.286ZM10.655,15.868c-.496,.732-1.213,.42-1.378,.317-2.425-1.519-3.626-3.604-3.676-3.691-.174-.306-.174-.681,0-.987,.05-.088,1.251-2.173,3.676-3.691,.468-.293,1.085-.151,1.378,.317s.151,1.085-.317,1.378c-1.327,.831-2.219,1.882-2.665,2.49,.446,.607,1.337,1.659,2.665,2.49,.468,.293,.627,.921,.317,1.378Zm7.749-3.375c-.05,.088-1.251,2.173-3.676,3.691-.165,.103-.882,.415-1.378-.317-.31-.457-.151-1.085,.317-1.378,1.328-.831,2.219-1.883,2.665-2.49-.446-.608-1.338-1.659-2.665-2.49-.468-.293-.61-.91-.317-1.378s.91-.61,1.378-.317c2.425,1.519,3.626,3.604,3.676,3.691,.174,.306,.174,.681,0,.987Z"/>
</svg>
