<svg id="Layer_1" viewBox="0 0 24 24" xmlns="http://www.w3.org/2000/svg" data-name="Layer 1"><path d="m23 12c0 6.032-.659 9.314-.688 9.451-.064.314-.276.579-.569.71-.075.035-1.895.838-4.743.838s-4.668-.804-4.744-.838c-.293-.132-.505-.396-.569-.711-.028-.137-.687-3.418-.687-9.451s.659-9.314.687-9.451c.064-.315.276-.58.569-.711.076-.034 1.895-.838 4.744-.838s4.668.804 4.743.838c.293.131.505.396.569.71.028.137.688 3.419.688 9.451zm-14.859-8.987c-.826-.112-1.575.471-1.683 1.292-.209 1.595-.458 4.224-.458 7.695s.25 6.101.458 7.695c.104.825.877 1.402 1.683 1.292.821-.108 1.4-.861 1.292-1.683-.198-1.506-.433-3.995-.433-7.305s.235-5.799.433-7.305c.108-.822-.471-1.575-1.292-1.683zm-5.292 1.993c-.835-.063-1.551.542-1.622 1.367-.151 1.771-.228 3.665-.228 5.627s.077 3.856.228 5.627c.068.828.809 1.44 1.622 1.367.825-.07 1.438-.796 1.367-1.622-.144-1.687-.217-3.494-.217-5.373s.073-3.686.217-5.373c.07-.826-.542-1.552-1.367-1.622z"/></svg>