<svg id="Layer_1" viewBox="0 0 24 24" xmlns="http://www.w3.org/2000/svg" data-name="Layer 1"><path d="m20 10.5v3c0 .878-.121 1-1 1s-1-.122-1-1v-3c0-.878.121-1 1-1s1 .122 1 1zm-6.991.192c0-.594 0-1.075-1.818-1.174-.092.515-.19 1.333-.19 2.473 2.009-.081 2.009-.7 2.009-1.299zm-8.818-1.174c-.092.515-.19 1.333-.19 2.473 2.009-.081 2.009-.7 2.009-1.299 0-.594 0-1.075-1.818-1.174zm18.81 2.481c0 4.043-.734 8.161-.766 8.334-.073.404-.387.723-.79.803-.177.035-4.404.863-9.444.863s-9.268-.828-9.444-.863c-.403-.08-.717-.399-.79-.803-.031-.173-.766-4.291-.766-8.334s.733-8.16.765-8.333c.073-.404.387-.723.79-.803.177-.035 4.404-.863 9.444-.863s9.268.828 9.444.863c.403.08.717.399.79.803.031.173.766 4.291.766 8.334zm-14.991-1.308c-.029-3.241-3.209-3.188-4.633-3.189-.406.013-.764.271-.905.651-.048.129-.471 1.339-.471 3.845 0 2.482.264 3.672.274 3.721.105.464.517.777.974.777.629.007 1.121-.601.979-1.216-.002-.007-.091-.426-.157-1.29 1.456-.048 3.939-.42 3.939-3.3zm6.026 2.39c.572-.489.974-1.236.974-2.39-.029-3.241-3.209-3.188-4.633-3.189-.406.013-.764.271-.905.651-.048.129-.471 1.339-.471 3.845 0 2.324.259 3.642.27 3.696.095.475.512.803.979.803.621.008 1.11-.584.982-1.193 0-.007-.089-.466-.156-1.313.297-.01.638-.035.99-.091.076.045.685.447.955 1.794.095.476.513.804.979.804.622.007 1.111-.585.981-1.196-.204-1.023-.574-1.727-.945-2.221zm7.965-2.583c0-1.991-1.01-3-3-3s-3 1.009-3 3v3c0 1.991 1.01 3 3 3s3-1.009 3-3z"/></svg>