<?xml version="1.0" encoding="UTF-8"?>
<svg xmlns="http://www.w3.org/2000/svg" id="Layer_1" data-name="Layer 1" viewBox="0 0 24 24">
  <path d="M11.84,4.472c.047-.04,.13-.038,.179,.004,1.219,1.031,2.488,2.443,3.699,4.103-.388,.084-.742,.32-.966,.686-.431,.708-.207,1.63,.501,2.062,1.453,.885,2.686,1.046,3.392,1.046,.294,0,.497-.028,.585-.043,.382-.066,.725-.277,.955-.59,.111-.151,1.078-1.55,.808-4.043-.09-.824-.836-1.418-1.653-1.33-.447,.048-.826,.289-1.066,.63-1.394-1.934-2.879-3.594-4.318-4.811-1.175-.994-2.88-.996-4.055-.002l-.09,.077c-.625,.543-.661,1.464-.118,2.089,.543,.626,1.522,.666,2.147,.123Z"/>
  <path d="M22.817,15.39c-.291-.775-1.164-1.16-1.941-.87-.775,.291-1.179,1.163-.888,1.939-.018,.034-.056,.078-.112,.095-1.745,.547-3.548,.788-5.259,.89,.118-.355,.105-.753-.069-1.118-.356-.747-1.25-1.065-1.999-.71-2.18,1.036-2.894,2.498-3.015,2.78-.153,.358-.162,.763-.023,1.127,.067,.176,.719,1.744,2.963,2.873,.216,.109,.446,.16,.673,.16,.549,0,1.078-.302,1.341-.826,.209-.415,.207-.881,.034-1.276,1.99-.103,4.129-.372,6.251-1.038,.817-.256,1.506-.842,1.892-1.606,.378-.749,.438-1.591,.151-2.42Z"/>
  <path d="M7.502,6.06c-.181-.049-1.832-.45-4.071,.685-.739,.375-1.034,1.277-.66,2.016,.227,.447,.646,.73,1.104,.803-1.088,1.794-2.017,3.651-2.67,5.364-.306,.804-.273,1.676,.092,2.454,.365,.778,1.046,1.387,1.866,1.666,.38,.13,.761,.251,1.144,.364,.141,.041,.284,.061,.424,.061,.648,0,1.246-.423,1.438-1.076,.234-.795-.221-1.629-1.016-1.863-.341-.1-.68-.207-1.02-.324-.072-.024-.105-.069-.121-.103-.023-.049-.013-.086-.004-.11,.549-1.441,1.317-2.999,2.219-4.524,.216,.269,.525,.465,.89,.534,.094,.018,.188,.026,.279,.026,.708,0,1.337-.502,1.473-1.223,.449-2.383-.321-3.815-.48-4.078-.199-.329-.517-.57-.888-.671Z"/>
</svg>
