<?xml version="1.0" encoding="UTF-8"?>
<svg xmlns="http://www.w3.org/2000/svg" id="Layer_1" data-name="Layer 1" viewBox="0 0 24 24">
  <path d="M21.705,8.806l-4.2-4.206c-1.719-1.719-4.429-1.847-6.172-.291-.945,.843-1.453,2.008-1.475,3.202h-.571c-2.213,0-4.295,.863-5.86,2.429-1.565,1.567-2.427,3.649-2.427,5.865v2.486c0,1.038,.629,1.946,1.603,2.315,.293,.11,.595,.165,.893,.165,.698,0,1.374-.296,1.859-.845l1.452-1.646c.566-.643,1.154-1.11,1.747-1.389,.415-.195,.856-.34,1.308-.43,.05,1.155,.556,2.274,1.472,3.092,1.745,1.555,4.458,1.427,6.174-.293l4.198-4.203c.834-.834,1.294-1.944,1.294-3.125s-.46-2.292-1.295-3.125Z"/>
</svg>
