<svg id="Layer_1" viewBox="0 0 24 24" xmlns="http://www.w3.org/2000/svg" data-name="Layer 1"><path d="m5 13h12.491s.006 0 .009 0c2.5 0 2.5-.695 2.5-1.5 0-.828.672-1.5 1.5-1.5s1.5.672 1.5 1.5c0 2.986-1.851 4.5-5.5 4.5-.003 0-.006 0-.009 0s-12.364 0-12.364 0c-.063-.884-.109-1.88-.127-3zm13.854-5h-13.727c-.063.884-.109 1.88-.127 3h13.981c-.018-1.12-.064-2.116-.127-3zm-15.927-3.112c.016-.005.902-.256 2.624-.491-.079.448-.16.98-.236 1.603h13.35c-.076-.624-.157-1.157-.236-1.606 2.291.307 2.275.481 3.071.556.645 0 1.241-.419 1.436-1.069.238-.793-.212-1.629-1.006-1.867-.138-.042-3.452-1.014-9.931-1.014s-9.792.972-9.93 1.014c-.792.237-1.24 1.07-1.005 1.863s1.074 1.247 1.862 1.011zm18.146 14.225c-.016.005-.909.258-2.643.493.079-.448.16-.982.236-1.606h-13.351c.075.623.157 1.155.236 1.603-1.722-.234-2.608-.486-2.624-.491-.793-.239-1.626.213-1.863 1.007-.238.793.212 1.629 1.006 1.867.138.042 3.452 1.014 9.931 1.014s9.793-.972 9.931-1.014c.792-.237 1.24-1.07 1.005-1.863s-1.075-1.245-1.862-1.011z"/></svg>