<svg id="Layer_1" viewBox="0 0 24 24" xmlns="http://www.w3.org/2000/svg" data-name="Layer 1"><path d="m14.085 12.5c0-2.355 1.145-3.5 3.5-3.5s3.5 1.145 3.5 3.5-1.145 3.5-3.5 3.5-3.5-1.145-3.5-3.5zm3.5 4.5c-3.465 0-5.5 1.5-5.579 4.999-.006.258.061.512.235.702s.42.299.678.299h9.167c.258 0 .504-.109.678-.299.174-.191.229-.445.235-.702.087-3.499-1.948-4.999-5.413-4.999zm-11.5-10c1.991 0 3-1.009 3-3s-1.009-3-3-3-3 1.009-3 3 1.009 3 3 3zm0 1c-3.036 0-4.669 1.268-4.992 3.877-.036.285.053.57.243.785s.463.338.75.338h8c.287 0 .56-.123.75-.338.189-.215.286-.377.25-.662-.323-2.609-1.964-4-5-4zm1.6 7.2c-.304-.228-.708-.265-1.047-.095-.339.169-.553.516-.553.895v1.5h-.478c-.304-.009-1.399-.131-1.636-1.299-.165-.812-.956-1.334-1.769-1.17-.812.165-1.336.957-1.17 1.769.596 2.927 3.268 3.701 4.554 3.701h.5v1.5c0 .379.214.725.553.895.338.169.744.133 1.047-.095 1.214-.911 2.291-1.987 3.2-3.2.266-.355.266-.844 0-1.199-.909-1.213-1.986-2.29-3.2-3.2z"/></svg>