<svg id="Layer_1" viewBox="0 0 24 24" xmlns="http://www.w3.org/2000/svg" data-name="Layer 1"><path d="m2.498 9c.026-1.484.874-1.993 2.001-2 1.123.007 1.976.547 2.001 2-.028 1.513-.874 1.993-2.001 2-1.123-.007-1.973-.491-2.001-2zm3.47 3.092c-.965-.121-1.973-.121-2.934 0-.844.105-1.571.665-1.946 1.497-.139.31-.112.669.072.954s.5.457.84.457h5c.34 0 .655-.172.84-.457s.211-.645.072-.954c-.375-.832-1.103-1.392-1.944-1.497zm13.533-7.092c1.127-.007 1.973-.487 2.001-2-.025-1.453-.878-1.993-2.001-2-1.127.007-1.974.516-2.001 2 .028 1.509.878 1.993 2.001 2zm-2.501 4h5c.34 0 .655-.172.84-.457s.211-.645.072-.954c-.375-.832-1.103-1.392-1.944-1.497-.965-.121-1.973-.121-2.934 0-.842.104-1.569.664-1.945 1.496-.14.31-.113.669.071.954s.5.458.84.458zm.5 8c.028 1.509.878 1.993 2.001 2 1.127-.007 1.973-.487 2.001-2-.025-1.453-.878-1.993-2.001-2-1.127.007-1.974.516-2.001 2zm3.468 3.092c-.965-.121-1.973-.121-2.934 0-.842.104-1.569.664-1.945 1.496-.14.31-.113.669.071.954s.5.458.84.458h5c.34 0 .655-.172.84-.457s.211-.645.072-.954c-.375-.832-1.103-1.392-1.944-1.497zm-5.269-9.492c-.495-.662-1.437-.798-2.1-.299-.849.637-1.596 1.389-2.279 2.199h-.821c-.828 0-1.5.672-1.5 1.5s.672 1.5 1.5 1.5h.821c.682.81 1.43 1.562 2.279 2.199.27.203.586.301.899.301.456 0 .906-.207 1.2-.6.498-.662.363-1.603-.299-2.1-.521-.391-1.004-.826-1.447-1.301.443-.475.927-.91 1.447-1.301.662-.497.797-1.438.299-2.1z"/></svg>