<svg id="Layer_1" viewBox="0 0 24 24" xmlns="http://www.w3.org/2000/svg" data-name="Layer 1"><path d="m20.989 11c.006.325.011.656.011 1 0 6.102-1.078 9.206-1.124 9.335-.099.278-.315.498-.591.602-.116.043-2.887 1.063-7.285 1.063s-7.169-1.02-7.285-1.063c-.276-.104-.492-.324-.591-.602-.046-.129-1.124-3.233-1.124-9.335 0-.344.004-.675.011-1h12.973c.007.332.016.66.016 1 0 1.728-.091 3.371-.27 4.882-.065.549.327 1.046.875 1.111.538.067 1.048-.325 1.111-.875.188-1.589.283-3.312.283-5.118 0-.339-.01-.668-.016-1h3.005zm-5.086-2c-.067-.999-.167-1.952-.302-2.851-.082-.546.294-1.056.84-1.138.546-.083 1.055.293 1.138.84.149.992.256 2.047.326 3.149h3.002c-.262-4.119-.993-6.229-1.031-6.335-.099-.278-.315-.498-.591-.602-.116-.043-2.887-1.063-7.285-1.063s-7.169 1.02-7.285 1.063c-.276.104-.492.324-.591.602-.038.106-.768 2.216-1.031 6.335h12.809z"/></svg>