<svg id="Layer_1" viewBox="0 0 24 24" xmlns="http://www.w3.org/2000/svg" data-name="Layer 1"><path d="m11.863 22.998c-4.944-.02-9.868-1.087-10.077-1.133-.459-.101-.786-.507-.786-.977 0-2.229.241-4.675.489-6.599 3.821 3.944 7.831 6.959 10.374 8.708zm-9.954-11.174c3.467 3.782 7.312 6.826 10.026 8.774 1.351-.651 6.109-3.058 10.536-6.612-.237-1.784-.468-3.06-.488-3.167-.073-.396-.376-.71-.769-.796-.106-.025-1.112-.223-1.712-.342-1.289 3.662-4.702 6.846-5.513 7.564-.553.487-1.258.754-1.99.754s-1.437-.267-1.985-.751c-.814-.721-4.229-3.906-5.517-7.568-.663.132-1.592.314-1.712.342-.393.086-.696.4-.769.796-.01.054-.074.407-.164.964.017.016.04.023.057.041zm11.906 10.075c.711.475 1.225.799 1.486.959 3.692-.295 6.749-.957 6.913-.993.459-.101.786-.507.786-.977 0-1.503-.11-3.101-.258-4.575-3.528 2.686-7.03 4.618-8.927 5.586zm4.185-14.899c0 3.908-4.791 8.265-5.337 8.749-.189.167-.426.251-.663.251s-.474-.084-.663-.251c-.546-.484-5.337-4.841-5.337-8.749 0-4.149 1.851-6 6-6s6 1.851 6 6zm-4 0c0-1.429-.571-2-2-2s-2 .571-2 2 .571 2 2 2 2-.571 2-2z"/></svg>