<svg id="Layer_1" viewBox="0 0 24 24" xmlns="http://www.w3.org/2000/svg" data-name="Layer 1"><path d="m10.5 12c-.206 0-.361-.004-.5-.012 0-1.768.184-3.179.321-3.989h.287c3.392.012 3.392 1.004 3.392 1.88 0 .741 0 2.12-3.5 2.12zm12.5 0c0 7.71-3.29 11-11 11s-11-3.29-11-11 3.29-11 11-11 11 3.29 11 11zm-8.632 1.105c1.278-.825 1.632-2.089 1.632-3.225 0-3.861-3.913-3.875-5.39-3.88-.551.002-.734-.019-1.177.002-.489.027-.874.403-.931.876-.11.49-.501 2.414-.501 5.122 0 3.088.508 5.156.53 5.242.132.54.69.863 1.211.728.536-.133.862-.676.729-1.211-.003-.015-.26-1.07-.393-2.766.776.031 1.692-.033 2.327-.159.315.366 1.258 1.576 1.615 3.362.106.545.649.894 1.177.784.542-.108.893-.635.784-1.177-.334-1.673-1.068-2.938-1.613-3.699z"/></svg>