<svg id="Layer_1" viewBox="0 0 24 24" xmlns="http://www.w3.org/2000/svg" data-name="Layer 1"><path d="m16.985 1c-4.149 0-6 1.851-6 6s1.851 6 6 6 6-1.851 6-6-1.851-6-6-6zm2.767 5.773c-.79.941-1.687 1.792-2.667 2.526-.356.267-.845.267-1.2 0-.559-.42-1.097-.882-1.599-1.373-.396-.387-.401-1.02-.016-1.414.388-.395 1.021-.401 1.414-.016.258.252.525.495.801.727.626-.525 1.207-1.107 1.733-1.735.355-.421.985-.479 1.409-.124.423.355.479.985.124 1.409zm3.202 11.408c.066.339.065.593.057.725-.011 1.109-.364 1.982-1.105 2.635-1.338 1.037-3.603 1.46-7.817 1.46-2.63 0-6.027-.35-8.166-1.112 1.005-.251 2.063-1.011 2.063-3.102 0-.456-.054-.923-.11-1.303 2.144.242 4.863.517 7.661.517 2.137.004 4.307-.273 6.246-.612.012-.002.023-.003.035-.005.529-.084 1.034.27 1.137.798zm-16.969.605c0 .855-.327 1.214-1.02 1.214-.686 0-1.063-.162-1.326-1.049-.26-1.674.12-4.421.496-7.097.104-.922.244-1.728.379-2.507.242-1.398.471-2.72.471-4.347 0-.794-.206-1-1-1-.39 0-.675.07-.803.199s-.198.412-.197.798c0 .866.179 2.721.179 2.721s-.315.159-.857.263c-.547.105-1.068-.25-1.172-.791-.075-.386-.15-1.262-.15-2.19.004-1.175.374-2.018 1.229-2.564 1.976-1.289 6.771-1.436 8.797-1.436h.053c-1.372 1.346-2.079 3.357-2.079 5.999 0 5.233 2.767 8 8 8 .629 0 1.221-.042 1.779-.122-.036.316-.079.642-.107.944-.991.108-2.001.178-2.995.178-3.358-.002-6.357-.367-8.887-.655-.643-.092-1.234.539-1.096 1.177.124.734.294 1.447.306 2.265z"/></svg>