<svg id="Layer_1" viewBox="0 0 24 24" xmlns="http://www.w3.org/2000/svg" data-name="Layer 1"><path d="m1.269 16.453c-.153-1.372-.269-2.911-.269-4.453 0-4.501.981-9.024 1.023-9.215.083-.381.381-.679.762-.762.101-.022 1.421-.308 3.308-.572-.924 5.326-1.068 10.889-1.09 12.552-.632.476-2.036 1.487-3.735 2.45zm17.721.793c-.553.487-1.258.754-1.99.754s-1.437-.267-1.985-.751c-1.008-.894-6.015-5.568-6.015-10.249 0-2.633.701-4.639 2.063-5.985-.996.028-1.976.099-2.897.19-1.004 5.403-1.144 11.428-1.164 12.936 1.001 1.187 5.183 6.009 9.053 8.634 2.829-.292 5.027-.769 5.158-.798.381-.083.679-.381.762-.762.04-.181.929-4.29 1.015-8.567-1.514 2.308-3.423 4.084-4.002 4.598zm-13.143-1.377c-.888.651-2.457 1.729-4.297 2.707.232 1.521.455 2.55.474 2.639.083.381.381.679.762.762.19.042 4.713 1.023 9.214 1.023.333 0 .666-.007.998-.017-3.07-2.498-5.927-5.689-7.151-7.114zm17.153-8.869c0 3.908-4.791 8.265-5.337 8.749-.189.167-.426.251-.663.251s-.474-.084-.663-.251c-.546-.484-5.337-4.841-5.337-8.749 0-4.149 1.851-6 6-6s6 1.851 6 6zm-4 0c0-1.429-.571-2-2-2s-2 .571-2 2 .571 2 2 2 2-.571 2-2z"/></svg>