<svg id="Layer_1" viewBox="0 0 24 24" xmlns="http://www.w3.org/2000/svg" data-name="Layer 1"><path d="m22.582 11.603c-.039-.193-.134-.37-.273-.509-.975-.973-2.065-1.789-2.828-2.316.078-5.164-2.261-7.801-7.498-7.76-1.419 0-5.603.011-6.995 4.057-2.706.301-3.987 1.882-3.987 4.929 0 .841 0 3.232 2.021 4.359-.01.192-.019.392-.024.607-.007.28.104.551.306.745.22.213.457.478.601.667-.139.187-.373.447-.587.645-.205.19-.321.459-.319.738.001.28.12.547.327.735.227.206.476.484.607.669-.107.144-.307.358-.599.642-.225.219-.334.531-.295.842.136 1.062.735 2.329 2.823 2.329 1.223 0 2.736-.5 3.005-2.91.009-.113.217-2.62.061-5.688 2.055-1.118 2.055-3.532 2.055-4.381 0-2.577-.912-4.108-2.83-4.703.498-.735 1.5-1.287 3.828-1.287 3.571-.058 4.55 1.279 4.503 4.8-.761.528-1.824 1.329-2.777 2.282-.138.139-.234.315-.273.508-.017.084-.419 2.104-.419 4.882s.483 5.158.503 5.258c.075.366.349.66.709.76.07.02 1.74.48 3.78.48s3.716-.47 3.786-.49c.357-.102.629-.394.704-.758.02-.099.502-2.461.502-5.242s-.402-4.805-.418-4.89zm-16.59-1.1c-.827 0-1.498-.671-1.498-1.498s.67-1.498 1.498-1.498 1.498.67 1.498 1.498-.67 1.498-1.498 1.498z"/></svg>