<svg id="Layer_1" viewBox="0 0 24 24" xmlns="http://www.w3.org/2000/svg" data-name="Layer 1"><path d="m5.131 14.35c0 .388-.014.753-1.251.818.035-.689.105-1.204.171-1.546 1.074.079 1.081.37 1.081.728zm17.869 1.65c0 3.343-.78 5.463-.813 5.551-.116.309-.377.541-.697.62-.138.034-3.438.829-9.489.829s-9.352-.795-9.489-.829c-.32-.079-.581-.311-.697-.62-.033-.088-.813-2.208-.813-5.551s.78-5.463.813-5.551c.116-.309.377-.541.697-.62.05-.012.526-.126 1.397-.265 1.708-2.255 3.802-4.136 6.203-5.651-.075-.254-.111-.556-.111-.912 0-1.429.571-2 2-2s2 .571 2 2c0 .356-.036.658-.111.912 2.401 1.515 4.495 3.396 6.203 5.651.871.139 1.347.253 1.397.265.32.079.581.311.697.62.033.088.813 2.208.813 5.551zm-14.674-6.895c1.083-.063 2.304-.105 3.674-.105s2.591.042 3.674.105c-1.11-1.083-2.327-2.054-3.674-2.872-1.346.818-2.564 1.789-3.674 2.872zm-1.591 9.938c-.26-1.302-.657-2.149-1.042-2.717.583-.34 1.038-.934 1.038-1.977 0-2.338-2.296-2.346-3.276-2.35-.338-.002-.656.198-.774.523-.043.117-.424 1.205-.424 3.477 0 2.114.234 3.308.244 3.357.085.435.517.713.939.627.433-.086.715-.507.63-.94-.003-.009-.157-.821-.201-2.271.181.141.931.749 1.298 2.583.085.437.518.715.941.628.433-.087.714-.508.627-.941zm2.587-3.874c.03-.591.084-1.112.13-1.466.231-.042.561-.085.994-.104.441-.018.784-.391.767-.833-.02-.442-.396-.772-.833-.766-1.234.051-1.838.275-1.946.32-.254.104-.437.331-.484.601-.01.058-.25 1.438-.25 3.079s.24 3.021.25 3.079c.048.27.23.497.484.601.108.044.712.269 1.946.32.437.019.815-.324.833-.766.018-.441-.325-.814-.767-.833-.435-.018-.764-.061-.994-.103-.047-.367-.104-.911-.133-1.529h.765c.441 0 .8-.358.8-.8s-.358-.8-.8-.8zm7.345.831c0-1.959-.201-3.269-.21-3.324-.068-.437-.477-.741-.913-.667-.437.068-.735.477-.667.913 0 .012.18 1.181.189 2.92l-1.478-3.365c-.144-.325-.48-.518-.836-.472-.353.046-.632.319-.687.67-.009.055-.21 1.364-.21 3.324s.201 3.269.21 3.324c.067.436.47.737.913.667.437-.068.735-.477.667-.913 0-.012-.18-1.181-.189-2.92l1.478 3.365c.142.327.488.517.836.472.353-.046.632-.319.687-.67.009-.055.21-1.364.21-3.324zm4.672-3.692c-.11-.051-.718-.308-1.839-.308s-1.729.257-1.839.308c-.395.185-.562.648-.385 1.046.178.399.647.578 1.049.41.002 0 .136-.05.375-.095v5.531c0 .442.358.8.8.8s.8-.358.8-.8v-5.531c.231.043.364.09.361.09.392.185.876.018 1.063-.387.188-.4.014-.876-.386-1.063z"/></svg>