<svg id="Layer_1" viewBox="0 0 24 24" xmlns="http://www.w3.org/2000/svg" data-name="Layer 1"><path d="m18.977 9.184c-.231-5.722-2.95-8.187-8.977-8.187-6.309 0-9 2.691-9 9 0 .675.007 1.343.02 2h17.989c-.009-.206.031-2.685-.031-2.813zm-13.477.313c-.828 0-1.5-.672-1.5-1.5s.672-1.5 1.5-1.5 1.5.672 1.5 1.5-.672 1.5-1.5 1.5zm4.5 0c-.828 0-1.5-.672-1.5-1.5s.672-1.5 1.5-1.5 1.5.672 1.5 1.5-.672 1.5-1.5 1.5zm4.5 0c-.828 0-1.5-.672-1.5-1.5s.672-1.5 1.5-1.5 1.5.672 1.5 1.5-.672 1.5-1.5 1.5zm8.5 9.003v1c0 1.93-1.57 3.5-3.5 3.5-1.759 0-3.205-1.309-3.45-3.002h-1.124c-.144.992-.406 2.079-.445 2.238-.109.447-.511.762-.971.762h-3c-.457 0-.856-.31-.969-.753-.041-.159-.313-1.247-.455-2.247h-2.165c-.143.996-.411 2.083-.45 2.242-.111.445-.511.758-.97.758h-3.001c-.516 0-.947-.393-.996-.906-.004-.04-.291-4.125-.43-8.095h17.932l-.005 5.508c.003.273.225.496.499.496.276 0 .5-.225.5-.5v-1c0-.828.671-1.5 1.5-1.5s1.5.672 1.5 1.5z"/></svg>