<svg id="Layer_1" viewBox="0 0 24 24" xmlns="http://www.w3.org/2000/svg" data-name="Layer 1"><path d="m20.069 19c.72 0 1.344.043 2.006-.007.519-.039.921-.47.925-.99v-15.177c0-.386-.219-.747-.572-.904-1.715-.767-3.087-.887-3.093-.89-.845-.155-1.71.272-2.102 1.038-.349.68-.296 1.437.096 2.082.611.719 1.587 1.582 2.712 2.393l-7.526-.039c-.734-.005-1.43.31-1.91.866s-.691 1.294-.576 2.028c.185 1.191 1.276 2.095 2.538 2.105l4.412.033c.341 2.329 1.159 5 2.122 6.963.167.34.588.5.967.5zm-4.754-5.476-2.762-.021c-2.232-.016-4.167-1.648-4.5-3.798-.206-1.311.173-2.64 1.04-3.643.854-.99 2.096-1.558 3.406-1.558l2.788.015c-.341-.874-.363-1.821-.087-2.706-1.015-.32-3.002-.814-5.7-.814-3.894 0-6.357 1.037-6.46 1.081-.27.115-.475.343-.562.622-.04.128-.979 3.215-.979 9.297s.938 9.169.979 9.297c.087.279.292.507.562.622.103.044 2.566 1.081 6.46 1.081s6.357-1.037 6.46-1.081c.27-.115.475-.343.562-.622.02-.065.274-.904.518-2.513-.708-1.573-1.325-3.438-1.725-5.259zm-4.814 6.476h-2c-.553 0-1-.447-1-1s.447-1 1-1h2c.553 0 1 .447 1 1s-.447 1-1 1z"/></svg>