<svg id="Layer_1" viewBox="0 0 24 24" xmlns="http://www.w3.org/2000/svg" data-name="Layer 1"><path d="m19.908 2.581c-.107-.232-.299-.415-.537-.51-.109-.043-2.732-1.071-7.372-1.071s-7.262 1.028-7.372 1.071c-.379.152-.628.52-.628.929 0 10.583 2.955 17.601 3.081 17.894.129.303.4.522.723.586.106.021 2.649.52 7.196.52 4.639 0 7.262-1.028 7.372-1.071.379-.152.628-.52.628-.929 0-10.598-2.966-17.146-3.092-17.419zm-11.408 5.419c0-.552.448-1 1-1h7c.552 0 1 .448 1 1s-.448 1-1 1h-7c-.552 0-1-.448-1-1zm.692 4c0-.552.448-1 1-1h7c.552 0 1 .448 1 1s-.448 1-1 1h-7c-.552 0-1-.448-1-1zm8.808 5h-7c-.552 0-1-.448-1-1s.448-1 1-1h7c.552 0 1 .448 1 1s-.448 1-1 1zm-12.644 5c-2.256-.16-3.493-.421-3.566-.437-.461-.099-.79-.506-.79-.978 0-4.777.603-8.933 1.275-11.959.762 7.823 2.86 12.927 2.967 13.177.03.07.079.129.114.196z"/></svg>