<svg id="Layer_1" viewBox="0 0 24 24" xmlns="http://www.w3.org/2000/svg" data-name="Layer 1"><path d="m1.005 11.469c.15-7.24 3.541-10.469 10.995-10.469 3.501 0 6.213.788 8.103 2.346l1.052-1.053c.268-.267.664-.362 1.023-.242.358.12.62.432.674.807.197 1.375.197 2.771 0 4.146-.063.439-.409.785-.849.848-.688.099-1.38.147-2.072.147s-1.385-.049-2.073-.147c-.375-.053-.688-.314-.807-.673-.12-.359-.026-.756.241-1.023l.662-.662c-1.352-.988-3.339-1.494-5.955-1.494-5.788 0-7.88 1.971-7.996 7.531-.016.829-.706 1.486-1.531 1.469-.828-.018-1.485-.703-1.468-1.531zm20.521-.469c-.824-.013-1.514.64-1.531 1.469-.114 5.561-2.207 7.531-7.995 7.531-2.615 0-4.602-.506-5.955-1.494l.662-.662c.268-.268.361-.664.241-1.023-.119-.359-.432-.62-.807-.673-1.377-.197-2.771-.197-4.146 0-.439.062-.785.408-.849.848-.197 1.376-.197 2.771 0 4.146.054.375.315.688.674.807.356.119.755.027 1.023-.242l1.052-1.053c1.89 1.557 4.602 2.346 8.103 2.346 7.454 0 10.845-3.229 10.995-10.469.017-.828-.641-1.514-1.469-1.531zm-4.51-2.683c.021.075.483 1.86.483 3.683s-.463 3.607-.483 3.683c-.092.352-.368.626-.721.716-.097.024-2.393.602-4.296.602s-4.199-.577-4.296-.602c-.353-.09-.629-.364-.721-.716-.02-.075-.483-1.86-.483-3.683s.463-3.607.483-3.683c.092-.352.369-.626.721-.716.097-.024 2.393-.602 4.296-.602s4.199.577 4.296.602c.353.09.629.364.721.716zm-3.017 2.683c0-.553-.447-1-1-1h-2c-.552 0-1 .447-1 1s.448 1 1 1h2c.553 0 1-.447 1-1z"/></svg>