<svg id="Layer_1" viewBox="0 0 24 24" xmlns="http://www.w3.org/2000/svg"><path d="m4.836 21.193c.169.811-.351 1.605-1.162 1.775-.791.17-1.609-.346-1.775-1.162-.232-1.111-.784-4.142-.899-8.265-.023-.828.63-1.519 1.458-1.541.834-.053 1.518.629 1.541 1.457.108 3.882.621 6.703.836 7.735zm3.643-9.193c0-.501.007-.987.021-1.458.023-.828-.629-1.518-1.457-1.541-.829-.053-1.519.628-1.542 1.457-.014.498-.021 1.012-.021 1.542 0 4.875.644 8.482.92 9.807.166.817.984 1.332 1.775 1.162.811-.17 1.331-.965 1.162-1.775-.258-1.233-.857-4.598-.857-9.193zm4.5 0c0-1.464.062-2.936.184-4.373.07-.825-.542-1.552-1.368-1.621-.828-.072-1.551.542-1.622 1.367-.129 1.522-.195 3.079-.195 4.627 0 4.875.644 8.482.92 9.807.166.817.984 1.332 1.775 1.162.811-.17 1.331-.965 1.162-1.775-.258-1.233-.857-4.598-.857-9.193zm3.059-1c.796 0 1.46-.626 1.498-1.43.078-1.673.234-3.305.464-4.85.122-.819-.444-1.583-1.263-1.704-.816-.127-1.583.443-1.705 1.263-.244 1.645-.41 3.378-.493 5.15-.042.853.646 1.572 1.5 1.57zm5.757-9.969c-.813-.172-1.606.352-1.775 1.162-.187.894-.553 3.482-.747 6.2-.059.826.563 1.544 1.389 1.603.816.062 1.547-.561 1.603-1.39.191-2.673.544-5.097.691-5.8.169-.812-.351-1.605-1.162-1.775zm-2.17 12.969c.765 0 1.104.251 1.346.996.17.525.733.814 1.26.643.525-.17.813-.734.643-1.26-.512-1.578-1.605-2.379-3.248-2.379-2.247 0-3.1 1.482-3.425 3h-.2c-.552 0-1 .447-1 1s.448 1 1 1h.004c-.005.371-.005.629 0 1h-.004c-.552 0-1 .447-1 1s.448 1 1 1h.2c.325 1.518 1.177 3 3.425 3 1.643 0 2.736-.801 3.248-2.379.17-.525-.117-1.09-.643-1.26-.527-.169-1.089.117-1.26.643-.242.745-.581.996-1.346.996-.451 0-1.009-.007-1.34-1h.715c.552 0 1-.447 1-1s-.448-1-1-1h-.991c-.011-.313-.011-.687 0-1h.991c.552 0 1-.447 1-1s-.448-1-1-1h-.715c.331-.993.89-1 1.34-1z"/></svg>