<svg id="Layer_1" viewBox="0 0 24 24" xmlns="http://www.w3.org/2000/svg" data-name="Layer 1"><path d="m15 18.872c0 1.329-.833 2.459-2 2.912v.216c0 .553-.448 1-1 1s-1-.447-1-1v-.13c-1.018-.286-1.876-1.042-2.226-2.04-.183-.521.092-1.092.613-1.274.524-.181 1.092.093 1.274.614.166.473.691.83 1.223.83.615 0 1.115-.506 1.115-1.128s-.506-1.128-1.128-1.128c-1.616 0-2.878-1.3-2.872-2.867 0-1.278.844-2.352 2-2.726v-.151c0-.552.448-1 1-1s1 .448 1 1v.238c.726.31 1.316.906 1.589 1.68.184.521-.089 1.092-.61 1.276-.52.181-1.092-.089-1.276-.61-.124-.35-.456-.584-.827-.584-.483 0-.876.394-.876.877-.001.455.365.862.821.868 1.777 0 3.179 1.403 3.179 3.127zm-6.4-12.672c.583.436 1.379.386 1.9-.082v1.382c0 .829.671 1.5 1.5 1.5s1.5-.671 1.5-1.5v-1.39c.528.481 1.326.523 1.9.091.663-.497.797-1.437.3-2.1-.796-1.062-1.738-2.004-2.8-2.8-.264-.182-.573-.296-.9-.3-.327.004-.636.118-.9.3-1.062.796-2.004 1.738-2.8 2.8-.497.663-.362 1.603.3 2.1zm.1 3.9c-.796-1.062-1.738-2.004-2.8-2.8-.264-.182-.573-.296-.9-.3-.327.004-.636.118-.9.3-1.062.796-2.004 1.738-2.8 2.8-.497.663-.362 1.603.3 2.1.583.437 1.378.386 1.9-.083v9.382c0 .828.671 1.5 1.5 1.5s1.5-.672 1.5-1.5v-9.39c.528.481 1.326.523 1.9.091.663-.497.797-1.437.3-2.1zm14 0c-.796-1.062-1.738-2.004-2.8-2.8-.264-.182-.573-.296-.9-.3-.327.004-.636.118-.9.3-1.062.796-2.004 1.738-2.8 2.8-.497.663-.362 1.603.3 2.1.583.437 1.379.386 1.9-.082v9.382c0 .828.671 1.5 1.5 1.5s1.5-.672 1.5-1.5v-9.39c.528.481 1.326.523 1.9.091.663-.497.797-1.437.3-2.1z"/></svg>