<svg id="Layer_1" viewBox="0 0 24 24" xmlns="http://www.w3.org/2000/svg" data-name="Layer 1"><path d="m4.842 21.192c.169.811-.352 1.605-1.162 1.775-.791.172-1.609-.345-1.775-1.162-.231-1.111-.783-4.14-.897-8.264-.023-.828.63-1.518 1.457-1.541.816-.015 1.518.629 1.541 1.458.108 3.882.621 6.702.837 7.734zm3.643-9.192c0-.5.007-.987.02-1.457.023-.828-.629-1.518-1.457-1.542-.014 0-.028 0-.043 0-.809 0-1.475.644-1.498 1.457-.015.498-.021 1.013-.021 1.542 0 4.879.643 8.483.919 9.806.167.816.985 1.334 1.775 1.162.811-.169 1.331-.964 1.162-1.775-.258-1.232-.856-4.593-.856-9.192zm4.5 0c0-1.465.062-2.936.184-4.373.069-.826-.543-1.551-1.369-1.621-.814-.08-1.551.542-1.621 1.368-.128 1.521-.193 3.077-.193 4.626 0 4.879.643 8.483.919 9.806.167.816.985 1.334 1.775 1.162.811-.169 1.331-.964 1.162-1.775-.258-1.232-.856-4.593-.856-9.192zm4.519-1.458c.056-2.006.224-3.963.5-5.82.122-.819-.443-1.582-1.263-1.704-.823-.116-1.583.444-1.704 1.263-.294 1.975-.473 4.054-.531 6.179-.023.828.63 1.518 1.458 1.541.823.024 1.518-.629 1.54-1.458zm2.314 5.203c-.458-.006-.826-.412-.825-.869 0-.483.394-.876.877-.876.371 0 .703.235.827.584.184.52.759.796 1.275.609.521-.184.794-.755.609-1.276-.274-.774-.863-1.37-1.589-1.68v-.238c0-.552-.447-1-1-1s-1 .448-1 1v.151c-1.156.373-2 1.447-2 2.725-.006 1.568 1.205 2.868 2.872 2.868.622 0 1.128.506 1.128 1.127s-.5 1.128-1.115 1.128c-.531 0-1.057-.357-1.222-.83-.183-.521-.75-.794-1.274-.614-.521.182-.796.752-.614 1.274.349.998 1.208 1.753 2.225 2.04v.13c0 .552.447 1 1 1s1-.448 1-1v-.216c1.167-.452 2-1.583 2-2.911 0-1.723-1.402-3.126-3.174-3.126zm.849-6.75c.813.073 1.555-.54 1.622-1.368.197-2.334.506-4.022.673-4.82.169-.811-.352-1.605-1.162-1.774-.815-.172-1.606.351-1.775 1.162-.18.864-.514 2.687-.726 5.179-.069.825.543 1.551 1.368 1.621z"/></svg>