<?xml version="1.0" encoding="UTF-8"?>
<svg xmlns="http://www.w3.org/2000/svg" id="Layer_1" data-name="Layer 1" viewBox="0 0 24 24">
  <path d="M21.897,4.682c-.71-.532-1.607-.695-2.457-.444-1.092,.318-2.794,.947-4.703,2.129-.065,.04-.131,.081-.196,.122-.101-.716-.48-1.36-1.075-1.807-.71-.531-1.606-.696-2.457-.444-1.093,.319-2.796,.948-4.702,2.129-2.313,1.432-3.799,2.884-4.638,3.851-.898,1.033-.898,2.533,0,3.566,.839,.967,2.325,2.419,4.637,3.851,1.907,1.181,3.61,1.81,4.703,2.129,.854,.25,1.747,.088,2.457-.444,.595-.446,.975-1.091,1.075-1.807,.065,.041,.131,.082,.196,.122,1.909,1.182,3.611,1.811,4.703,2.129,.262,.077,.528,.114,.792,.114,.593,0,1.174-.19,1.665-.559,.7-.525,1.103-1.325,1.103-2.195V6.877c0-.87-.402-1.67-1.103-2.195Zm-1.897,12.116c-.912-.289-2.22-.809-3.685-1.715-.814-.505-1.583-1.058-2.284-1.645-.275-.231-.617-.351-.963-.351-.216,0-.432,.046-.635,.141-.527,.247-.865,.776-.865,1.359v2.21c-.913-.29-2.221-.81-3.684-1.715-1.847-1.144-3.062-2.278-3.789-3.083,.728-.805,1.942-1.939,3.79-3.083,1.462-.906,2.77-1.426,3.683-1.715v2.21c0,.583,.338,1.112,.865,1.359,.527,.246,1.149,.166,1.598-.21,.701-.587,1.47-1.14,2.284-1.645,1.465-.906,2.771-1.426,3.685-1.715v9.596Z"/>
</svg>
