<svg id="Layer_1" viewBox="0 0 24 24" xmlns="http://www.w3.org/2000/svg" data-name="Layer 1"><path d="m13 22c-.422.004-.82-.281-.949-.685-.022-.066-.5-1.526-.803-4.369-.708.035-1.377.054-1.998.054-3.255 0-6.744-.489-6.89-.51-.338-.048-.629-.266-.77-.576-.061-.133-.59-1.37-.59-3.914s.529-3.781.59-3.914c.141-.311.432-.528.77-.576.146-.021 3.635-.51 6.89-.51.621 0 1.29.019 1.998.054.303-2.844.781-4.303.803-4.369.098-.295.327-.527.62-.629.292-.101.617-.062.876.107 3.818 2.498 6.945 5.626 9.295 9.298.21.329.21.75 0 1.078-2.351 3.673-5.479 6.801-9.295 9.298-.165.107-.355.163-.548.163z"/></svg>