<svg id="Layer_1" viewBox="0 0 24 24" xmlns="http://www.w3.org/2000/svg" data-name="Layer 1"><path d="m23 21.5c0 .829-.671 1.5-1.5 1.5h-4c-.829 0-1.5-.671-1.5-1.5 0-.712.497-1.305 1.162-1.458-.055-.737-.11-1.632-.139-2.596.673.356 1.493.554 2.477.554s1.807-.198 2.48-.555c-.026.963-.076 1.861-.126 2.602.657.16 1.146.747 1.146 1.454zm-9.859-15.52c.118.008.23.02.359.02 1.786 0 2.5-.714 2.5-2.5s-.714-2.5-2.5-2.5-2.5.714-2.5 2.5c0 .129.012.241.02.359l-4.548 4.548c-1.399-.754-2.831-.459-4.202.913-.51.509-.896 1.064-1.147 1.648-.328.761.024 1.644.785 1.971.76.326 1.644-.023 1.971-.785.069-.161.214-.415.513-.713.395-.395.578-.439.577-.442.013.002.196.047.591.441s.439.577.442.577c-.002.013-.047.196-.441.591-.299.298-.553.444-.714.513-.761.328-1.112 1.21-.785 1.971.328.769 1.229 1.109 1.971.785.584-.252 1.139-.638 1.649-1.147 1.37-1.371 1.666-2.803.912-4.202l4.549-4.549zm3.859 7.52c0 1.786.714 2.5 2.5 2.5s2.5-.714 2.5-2.5-.714-2.5-2.5-2.5-2.5.714-2.5 2.5zm2.5-4.5c.367 0 .712.026 1.036.077-.886-1.35-1.807-2.569-2.807-3.749-.556 1.763-2.142 2.742-4.365 2.662.579.923 1.429 2.107 2.167 3.081.686-1.342 2.028-2.071 3.969-2.071z"/></svg>