<svg id="Layer_1" viewBox="0 0 24 24" xmlns="http://www.w3.org/2000/svg" data-name="Layer 1"><path d="m22.435 12.326c-.358-.285-.826-.39-1.271-.288-.021.005-1.785.39-3.164-.684 1.341-1.059 3.101-2.865 3.101-5.054 0-2.873-2.427-5.3-5.3-5.3s-5.3 2.427-5.3 5.3c0 1.978 1.436 3.643 2.702 4.727-2.296 1.269-4.406 1.165-5.762.529-1.551-.727-2.44-2.205-2.44-4.056 0-.749-.552-1.382-1.293-1.486-.743-.106-1.445.356-1.65 1.076-.043.152-1.057 3.765-1.057 7.76 0 4.079 1.044 7.033 1.088 7.157.22.612.795.992 1.41.992.167 0 .338-.028.505-.088.779-.278 1.186-1.135.909-1.915-.009-.026-.913-2.618-.913-6.146 0-.694.035-1.379.092-2.033.415.419.886.788 1.408 1.1v1.083c0 4.058 1.051 6.907 1.095 7.026.226.603.797.974 1.405.974.175 0 .353-.031.526-.096.776-.291 1.169-1.156.878-1.931-.009-.024-.905-2.454-.905-5.974v-.052c.653.085 1.323.094 2 .027v6.525c0 .829.671 1.5 1.5 1.5s1.5-.671 1.5-1.5v-7.297c.678-.284 1.348-.64 2-1.066v1.864c0 3.478-.895 5.945-.906 5.977-.288.774.105 1.637.88 1.928.173.065.352.096.526.096.607 0 1.179-.372 1.404-.974.045-.119 1.096-2.969 1.096-7.026v-.135c.516.136 1.024.208 1.498.234-.041 3.376-.903 5.877-.912 5.9-.276.781.132 1.638.912 1.915.166.059.335.087.502.087.617 0 1.195-.384 1.414-.999.044-.125 1.086-3.107 1.086-7.151v-1.35c0-.457-.208-.889-.565-1.174zm-6.635-8.326c1.086 0 2.3.983 2.3 2.3 0 1-1.273 2.207-2.3 2.956-1.027-.75-2.3-1.956-2.3-2.956 0-1.316 1.214-2.3 2.3-2.3z"/></svg>