<?xml version="1.0" encoding="UTF-8"?>
<svg xmlns="http://www.w3.org/2000/svg" id="Layer_1" data-name="Layer 1" viewBox="0 0 24 24">
  <path d="M4.659,11.858c1.166-.533,1.613-.896,2.432-1.861,.535-.632,.457-1.579-.175-2.114-.251-.214-.552-.329-.857-.352,.841-2.038,2.691-2.854,6.018-2.854,4.155,0,5.896,1.179,6.425,4.352,.136,.817,.916,1.371,1.726,1.233,.817-.136,1.369-.909,1.233-1.726C20.438,2.388,15.615,1.677,12.077,1.677c-1.962,0-7.393,0-9.075,5.572-.373-.132-.797-.118-1.18,.075-.738,.374-1.035,1.276-.66,2.016,.568,1.123,.929,1.562,1.933,2.345,.269,.21,.859,.496,1.564,.174Z"/>
  <path d="M22.838,14.66c-.568-1.123-.929-1.562-1.933-2.345-.446-.349-1.052-.416-1.564-.174-1.159,.548-1.613,.896-2.432,1.861-.535,.632-.457,1.579,.175,2.114,.251,.213,.552,.329,.857,.351-.841,2.039-2.691,2.855-6.019,2.855-4.155,0-5.896-1.179-6.425-4.352-.137-.817-.915-1.376-1.726-1.233-.817,.136-1.369,.909-1.233,1.726,1.022,6.148,5.846,6.859,9.384,6.859,1.963,0,7.393,0,9.075-5.572,.457,.194,.962,.035,1.18-.075,.738-.374,1.035-1.276,.66-2.016Z"/>
</svg>
