<?xml version="1.0" encoding="UTF-8"?>
<svg xmlns="http://www.w3.org/2000/svg" id="Layer_1" data-name="Layer 1" viewBox="0 0 24 24">
  <path d="M12.805,1.874c-3.585,0-8.212,.7-9.706,6.078-.394-.171-.858-.173-1.272,.034-.741,.371-1.04,1.272-.668,2.013,.601,1.198,.965,1.69,2.046,2.503,.684,.514,1.369,.273,1.575,.175,1.228-.586,1.709-.958,2.577-1.989,.533-.634,.452-1.58-.182-2.114-.297-.25-.663-.364-1.023-.35,.882-2.397,2.915-3.351,6.654-3.351,4.557,0,7.195,1.166,7.195,7.126s-2.753,7.126-7.195,7.126c-4.017,0-5.979-1.081-6.775-3.73-.238-.793-1.073-1.246-1.868-1.005-.793,.238-1.243,1.075-1.005,1.868,1.579,5.258,6.263,5.867,9.648,5.867,4.376,0,10.195-1.05,10.195-10.126S17.182,1.874,12.805,1.874Z"/>
</svg>
