<svg id="Layer_1" viewBox="0 0 24 24" xmlns="http://www.w3.org/2000/svg" data-name="Layer 1"><path d="m17.985 10.857c.159.095.336.143.515.143s.356-.047.515-.143c.408-.245 3.985-2.475 3.985-5.357 0-2.439-2.061-4.5-4.5-4.5s-4.5 2.061-4.5 4.5c0 2.883 3.578 5.113 3.985 5.357z"/><path d="m5.5 13c-2.439 0-4.5 2.061-4.5 4.5 0 2.883 3.578 5.113 3.985 5.357.159.095.336.143.515.143s.356-.047.515-.143c.408-.245 3.985-2.475 3.985-5.357 0-2.439-2.061-4.5-4.5-4.5z"/><path d="m18.25 13.5h-4.25c-.276 0-.5-.224-.5-.5s.224-.5.5-.5c.829 0 1.5-.671 1.5-1.5s-.671-1.5-1.5-1.5c-1.93 0-3.5 1.57-3.5 3.5s1.57 3.5 3.5 3.5h4.25c.965 0 1.75.785 1.75 1.75s-.785 1.75-1.75 1.75h-7.25c-.829 0-1.5.671-1.5 1.5s.671 1.5 1.5 1.5h7.25c2.619 0 4.75-2.131 4.75-4.75s-2.131-4.75-4.75-4.75z"/></svg>