<svg id="Layer_1" viewBox="0 0 24 24" xmlns="http://www.w3.org/2000/svg" data-name="Layer 1"><path d="m21.977 2.785c-.083-.381-.381-.679-.762-.762-.19-.042-4.714-1.023-9.215-1.023s-9.024.981-9.215 1.023c-.381.083-.679.381-.762.762-.042.19-1.023 4.714-1.023 9.215s.981 9.024 1.023 9.215c.083.381.381.679.762.762.19.042 4.714 1.023 9.215 1.023s9.024-.981 9.215-1.023c.381-.083.679-.381.762-.762.042-.19 1.023-4.714 1.023-9.215s-.981-9.024-1.023-9.215zm-14.977 15.715c-.828 0-1.5-.672-1.5-1.5s.672-1.5 1.5-1.5 1.5.672 1.5 1.5-.672 1.5-1.5 1.5zm5-.5c-.553 0-1-.447-1-1 0-3.028-.972-4-4-4-.553 0-1-.447-1-1s.447-1 1-1c4.149 0 6 1.851 6 6 0 .553-.447 1-1 1zm5 0c-.553 0-1-.447-1-1 0-6.561-2.439-9-9-9-.553 0-1-.447-1-1s.447-1 1-1c7.71 0 11 3.29 11 11 0 .553-.447 1-1 1z"/></svg>