<svg id="Layer_1" viewBox="0 0 24 24" xmlns="http://www.w3.org/2000/svg" data-name="Layer 1"><path d="m21.848 13.969c-.159-.254-.425-.424-.723-.461-.05-.006-.45-.056-1.125-.122v3.614c0 .552-.447 1-1 1s-1-.448-1-1v-3.783c-.6-.043-1.272-.084-2-.119v3.902c0 .552-.447 1-1 1s-1-.448-1-1v-3.975c-.641-.016-1.31-.025-2-.025v4c0 .552-.448 1-1 1s-1-.448-1-1v-3h-3c-.552 0-1-.448-1-1s.448-1 1-1h4c0-.691-.009-1.36-.025-2h-3.975c-.552 0-1-.448-1-1s.448-1 1-1h3.903c-.035-.729-.076-1.4-.119-2h-3.784c-.552 0-1-.448-1-1s.448-1 1-1h3.615c-.067-.677-.117-1.077-.124-1.126-.038-.297-.207-.562-.46-.721-.075-.047-1.862-1.153-4.031-1.153s-3.956 1.105-4.031 1.152c-.254.159-.424.424-.461.722-.021.164-.508 4.078-.508 9.125 0 5.083.501 9.568.506 9.612.053.464.418.83.882.881.045.005 4.571.506 9.611.506 5.09 0 8.964-.487 9.127-.508.297-.038.561-.207.72-.46.048-.075 1.153-1.862 1.153-4.031s-1.105-3.956-1.152-4.031z"/></svg>