<svg id="Layer_1" viewBox="0 0 24 24" xmlns="http://www.w3.org/2000/svg" data-name="Layer 1"><path d="m14 19c-.552 0-1-.448-1-1s.448-1 1-1h3.713c.069-.628.13-1.298.178-2h-3.891c-.552 0-1-.448-1-1s.448-1 1-1h3.987c.008-.33.013-.664.013-1s-.005-.67-.013-1h-3.987c-.552 0-1-.448-1-1s.448-1 1-1h3.891c-.049-.702-.11-1.372-.178-2h-3.713c-.552 0-1-.448-1-1s.448-1 1-1h3.457c-.235-1.591-.461-2.629-.481-2.717-.082-.37-.366-.662-.733-.753-.087-.021-2.144-.53-4.243-.53s-4.156.508-4.243.53c-.367.092-.651.383-.733.753-.042.188-1.024 4.665-1.024 9.717s.982 9.529 1.024 9.717c.082.37.366.662.733.753.087.021 2.144.53 4.243.53s4.156-.508 4.243-.53c.367-.092.651-.383.733-.753.02-.088.246-1.126.481-2.717z"/></svg>