<svg id="Layer_1" viewBox="0 0 24 24" xmlns="http://www.w3.org/2000/svg" data-name="Layer 1"><path d="m20.186 2.827c-.067-.381-.348-.689-.721-.792-.154-.042-3.816-1.036-7.465-1.036-3 0-5 .506-5 .506-1.89.394-3.311 1.92-3.549 3.848-.206 1.662-.451 4.164-.451 6.646 0 1.753.123 3.51.267 4.979.937-.721 2.031-.979 2.733-.979h14.824c.103-1.253.176-2.627.176-4 0-4.48-.781-8.983-.814-9.173zm-5.979 8.966c.391.391.391 1.023 0 1.414s-1.023.391-1.414 0l-.793-.793-.793.793c-.391.391-1.023.391-1.414 0s-.391-1.023 0-1.414l.793-.793-.793-.793c-.391-.391-.391-1.023 0-1.414s1.023-.391 1.414 0l.793.793.793-.793c.391-.391 1.023-.391 1.414 0s.391 1.023 0 1.414l-.793.793zm1.06-7.021c-.789.942-1.686 1.793-2.667 2.528-.356.266-.845.266-1.2 0-.559-.42-1.097-.882-1.599-1.373-.396-.387-.401-1.02-.016-1.414.388-.394 1.021-.401 1.414-.016.258.252.525.495.801.727.627-.525 1.207-1.106 1.733-1.734.353-.423.985-.481 1.408-.125.424.354.479.985.125 1.408zm-9.267 13.228h14.627c-.206 1.812-.424 3.075-.441 3.173-.067.381-.348.689-.721.792-.154.042-3.816 1.036-7.465 1.036-1.465 0-3.103-.159-4.868-.472-1.601-.284-2.87-1.386-3.417-2.857.556-1.573 2.103-1.668 2.285-1.672z"/></svg>