<svg id="Layer_1" viewBox="0 0 24 24" xmlns="http://www.w3.org/2000/svg" data-name="Layer 1"><path d="m20.618 11.568c-1.616-2.809-3.933-4.335-6.539-4.852.817-.548 1.81-1.507 2.789-3.22.261-.456.124-1.036-.313-1.328-.071-.048-1.784-1.168-4.555-1.168s-4.483 1.12-4.555 1.168c-.438.292-.574.872-.313 1.328.979 1.713 1.972 2.673 2.789 3.22-2.607.517-4.924 2.042-6.539 4.852-1.234 2.146-1.614 4.514-1.071 6.668.854 3.384 3.661 4.764 9.688 4.764s8.835-1.38 9.688-4.763c.543-2.154.163-4.522-1.07-6.669z"/></svg>