<?xml version="1.0" encoding="UTF-8"?>
<svg xmlns="http://www.w3.org/2000/svg" id="Layer_1" data-name="Layer 1" viewBox="0 0 24 24">
  <path d="M11.994,1C4.929,1.044,1,4.841,1,11.982c0,4.375,1.529,7.561,4.394,9.351-.124-.849-.269-2.12-.269-3.421,0-2.248,.425-4.363,.443-4.452,.111-.545,.646-.897,1.188-.787,.545,.111,.898,.643,.787,1.188-.004,.02-.403,2.013-.403,4.051,0,1.596,.328,3.643,.467,4.439,1.291,.419,2.76,.639,4.398,.648,1.643-.01,3.102-.212,4.38-.605,.143-.822,.474-2.896,.474-4.483,0-2.039-.399-4.031-.403-4.051-.11-.545,.242-1.077,.787-1.188,.542-.11,1.077,.242,1.188,.787,.018,.089,.443,2.205,.443,4.452,0,1.345-.155,2.657-.282,3.505,2.846-1.732,4.323-4.882,4.406-9.434-.122-7.037-4.026-10.938-11.006-10.983Zm-3.264,8.076c-.109,.028-.482,.475-.482,1.312,0,.552-.448,1-1,1s-1-.448-1-1c0-1.857,1.093-3.312,2.487-3.312s2.487,1.455,2.487,3.312c0,.552-.448,1-1,1s-1-.448-1-1c0-.837-.373-1.285-.492-1.312Zm3.271,9.965c-1.375,0-2.495-1.282-2.495-2.858s1.119-2.858,2.495-2.858,2.495,1.282,2.495,2.858-1.119,2.858-2.495,2.858Zm4.753-7.652c-.552,0-1-.448-1-1,0-.837-.374-1.285-.492-1.312-.109,.028-.482,.475-.482,1.312,0,.552-.448,1-1,1s-1-.448-1-1c0-1.857,1.092-3.312,2.487-3.312s2.487,1.455,2.487,3.312c0,.552-.448,1-1,1Z"/>
</svg>
