<?xml version="1.0" encoding="UTF-8"?>
<svg xmlns="http://www.w3.org/2000/svg" id="Layer_1" data-name="Layer 1" viewBox="0 0 24 24">
  <path d="M5.67,15.373c0-1.471,.174-2.765,.524-3.895h-1.806c.13-.188,.275-.359,.433-.512,.892-.856,1.463-2.088,1.609-3.469,.01-.096,.022-.195,.034-.297h1.806c-.111-.315-.17-.652-.17-1,0-1.002,.487-1.894,1.248-2.439,.358-1.021,.809-1.825,1.307-2.459-.548-.232-1.08-.302-1.519-.302-1.289,0-3.39,.599-4.33,4.205-.505,.051-.898,.477-.898,.995,0,.392,.226,.731,.554,.895-.007,.064-.015,.127-.022,.192-.096,.912-.453,1.707-1.005,2.236-1.318,1.266-1.958,3.179-1.958,5.849,0,6.482,3.929,7.529,7.14,7.62-2.319-1.926-2.948-4.931-2.948-7.62Z"/>
  <path d="M21.032,9.515h0c-.552-.53-.91-1.324-1.006-2.237-.007-.062-.014-.122-.021-.183,.328-.164,.553-.503,.553-.894,0-.517-.393-.942-.896-.995-.938-3.607-3.042-4.206-4.333-4.206s-3.39,.599-4.33,4.205c-.504,.051-.898,.477-.898,.995,0,.392,.225,.731,.553,.895-.007,.064-.015,.128-.022,.193-.096,.912-.453,1.707-1.005,2.236-1.317,1.266-1.958,3.179-1.958,5.849,0,6.836,4.371,7.627,7.659,7.627s7.66-.791,7.66-7.627c0-2.68-.64-4.596-1.958-5.858Zm-10.018,1.452c.892-.856,1.463-2.088,1.609-3.469,.01-.096,.022-.195,.034-.297h5.347c.012,.096,.023,.192,.033,.287,.146,1.383,.718,2.615,1.611,3.472,.161,.154,.307,.328,.439,.52H10.58c.13-.188,.274-.359,.433-.512Zm4.313,6.411c-.828,0-1.5-.672-1.5-1.5s.672-1.5,1.5-1.5,1.5,.672,1.5,1.5-.672,1.5-1.5,1.5Zm1.96,3.532c-.828,0-1.5-.672-1.5-1.5s.672-1.5,1.5-1.5,1.5,.672,1.5,1.5-.672,1.5-1.5,1.5Zm2.1-3.532c-.828,0-1.5-.672-1.5-1.5s.672-1.5,1.5-1.5,1.5,.672,1.5,1.5-.672,1.5-1.5,1.5Z"/>
</svg>
