<svg id="Layer_1" viewBox="0 0 24 24" xmlns="http://www.w3.org/2000/svg" data-name="Layer 1"><path d="m10.778 7.97c.81-.81 1.594-1.562 2.331-2.249 1.338-1.239 2.717-2.439 4.216-3.672 1.222-.999 2.717-1.77 4.551.065 1.888 1.888 1.021 3.431.054 4.563-.795.968-2.083 2.49-3.638 4.171-.688.74-1.462 1.553-2.271 2.363-.327.326-1.597 1.59-2.621 2.604-.461-1.022-1.182-2.037-2.181-3.036-1.014-1.015-2.022-1.739-3.039-2.198 1.015-1.024 2.272-2.286 2.598-2.612zm-2.26-6.402c-.68-.321-1.129-.491-1.178-.509-.203-.074-.428-.08-.637-.015-.144.045-.821.302-1.919 1.249l1.504 1.504 2.23-2.23zm-4.825 7.653c.351.557.76 1.164 1.234 1.797.662-.672 1.867-1.884 2.867-2.887l-1.505-1.505-2.595 2.595zm-1.032-1.796 2.213-2.213-1.509-1.509c-.978 1.115-1.225 1.788-1.278 1.99-.055.212-.039.437.045.639.019.046.2.46.529 1.094zm6.544-.71c.866-.87 1.741-1.713 2.541-2.458.167-.154.343-.305.511-.459-.664-.486-1.304-.898-1.894-1.247l-2.661 2.661zm8.08 8.135 1.503 1.503 2.661-2.661c-.349-.59-.761-1.23-1.247-1.894-.154.168-.305.344-.459.511-.745.799-1.589 1.675-2.458 2.541zm5.655 1.865c-.018-.049-.187-.498-.509-1.178l-2.23 2.23 1.504 1.504c.948-1.098 1.204-1.774 1.249-1.919.065-.209.06-.434-.015-.637zm-7.072-.453c-1.003.999-2.216 2.204-2.887 2.867.633.474 1.24.883 1.797 1.234l2.595-2.595-1.505-1.505zm.707 5.132c.633.33 1.048.51 1.094.529.202.084.427.1.639.045.201-.053.875-.299 1.99-1.278l-1.509-1.509-2.213 2.213zm-15.282-7.2c-.391.391-.391 1.023 0 1.414l2.489 2.489-.342.342c-.586.586-.586 1.535 0 2.121s1.535.586 2.121 0l.342-.342 2.489 2.489c.391.391 1.023.391 1.414 0 2.943-2.943 2.943-5.569 0-8.513-2.941-2.942-5.567-2.944-8.513 0z"/></svg>