<svg id="Layer_1" viewBox="0 0 24 24" xmlns="http://www.w3.org/2000/svg" data-name="Layer 1"><path d="m18.206 18.01c.391.391.391 1.023 0 1.414-2.39 2.391-4.605 3.585-6.82 3.585s-4.43-1.194-6.82-3.585c-4.78-4.78-4.78-8.86.001-13.64.391-.391 1.023-.391 1.414 0l5.062 5.062.415-.415c.586-.586 1.535-.586 2.121 0s.586 1.535 0 2.121l-.415.415 5.043 5.043zm-4.688-13.019c-.829 0-1.5.672-1.5 1.5s.671 1.5 1.5 1.5c2.033 0 2.5.468 2.5 2.5 0 .828.671 1.5 1.5 1.5s1.5-.672 1.5-1.5c0-3.701-1.799-5.5-5.5-5.5zm0-4c-.829 0-1.5.672-1.5 1.5s.671 1.5 1.5 1.5c4.86 0 6.5 1.641 6.5 6.5 0 .828.671 1.5 1.5 1.5s1.5-.672 1.5-1.5c0-6.57-2.929-9.5-9.5-9.5z"/></svg>