<?xml version="1.0" encoding="UTF-8"?>
<svg xmlns="http://www.w3.org/2000/svg" id="Layer_1" data-name="Layer 1" viewBox="0 0 24 24">
  <path d="M16.916,8.09c-.04-.517-.101-1.023-.175-1.428-.079-.43-.431-.758-.866-.805-.342-.037-.677-.07-1.009-.098-.642-3.257-2.099-4.431-2.274-4.561-.351-.263-.833-.263-1.184,0-.175,.13-1.632,1.304-2.275,4.562-.331,.028-.667,.06-1.008,.098-.434,.047-.786,.374-.866,.803-.075,.404-.136,.912-.176,1.431,1.273-.188,3.02-.377,4.917-.377,1.908,0,3.656,.189,4.916,.375Z"/>
  <path d="M19.112,10.984c-.112-.298-.367-.519-.677-.59-.121-.028-3.015-.679-6.435-.679s-6.312,.651-6.434,.678c-.312,.071-.567,.295-.679,.594-.035,.096-.869,2.362-.869,5.37,0,3.033,.834,5.279,.87,5.374,.112,.298,.367,.519,.677,.59,.121,.028,3.015,.679,6.435,.679s6.312-.651,6.434-.678c.312-.071,.567-.295,.679-.594,.036-.095,.87-2.363,.87-5.37,0-3.033-.835-5.279-.871-5.374Zm-3.345,7.21c-.062,.454-.425,.808-.88,.858-1.009,.111-1.98,.168-2.887,.168s-1.88-.057-2.888-.168c-.456-.051-.819-.405-.881-.859-.083-.614-.126-1.231-.126-1.835s.043-1.22,.127-1.836c.062-.455,.426-.809,.882-.858,2.029-.221,3.743-.221,5.772,0,.457,.05,.821,.405,.883,.861,.083,.617,.125,1.234,.125,1.833,0,.603-.043,1.22-.128,1.836Z"/>
  <path d="M10.133,15.575c-.019,.264-.028,.524-.028,.782s.009,.52,.027,.783c1.294,.105,2.436,.105,3.735,0,.018-.264,.027-.525,.027-.783s-.009-.519-.027-.782c-1.303-.105-2.431-.105-3.734,0Z"/>
</svg>
