<svg id="Layer_1" viewBox="0 0 24 24" xmlns="http://www.w3.org/2000/svg" data-name="Layer 1"><path d="m23 2.5c0 .828-.671 1.5-1.5 1.5-.616 0-1.425.071-2.341.205-.328.093-.433.253-.395.614.544 2.238 1.226 4.394 1.231 7.181h.005c-.008.242-.012.483-.028.726-.289 6.75-4.569 10.274-10.511 10.274h-.461c-3.533 0-6-2.673-6-6.5 0-4.033-1.75-6.2-1.767-6.222-.433-.496-.22-1.342.397-1.57.229-.092 2.422-.698 5.366-.708 2.951.01 5.144.616 5.373.708.616.223.831 1.067.407 1.559-.203.316-1.297 2.318-1.782 4.638-.106.506.022 1.029.353 1.437.34.419.845.659 1.384.659.043 0 3.715.43 4.21-3.973.039-.332.057-.656.058-1.027h.005c.001-.165 0-.33-.006-.495-.19.051-.421.117-.615.11-.667 0-1.275-.447-1.451-1.122-.208-.802.272-1.621 1.074-1.829l.576-.15c-.08-.365-.165-.723-.252-1.075l-.69.065c-.811.081-1.56-.525-1.634-1.352-.078-.825.527-1.557 1.352-1.635l.418-.039c.039-.622.224-1.232.58-1.755.546-.806 1.41-1.348 2.37-1.487 1.071-.157 2.005-.236 2.775-.236.829 0 1.5.672 1.5 1.5z"/></svg>