<svg id="Layer_1" viewBox="0 0 24 24" xmlns="http://www.w3.org/2000/svg" data-name="Layer 1"><path d="m17 21.5c0 .829-.672 1.5-1.5 1.5h-1c-.828 0-1.5-.671-1.5-1.5s.672-1.5 1.5-1.5h1c.828 0 1.5.671 1.5 1.5zm4.5-1.5h-1c-.828 0-1.5.671-1.5 1.5s.672 1.5 1.5 1.5h1c.828 0 1.5-.671 1.5-1.5s-.672-1.5-1.5-1.5zm-9.192-7.809c-1.154-1.154-2.841-1.575-3.323-1.675-2.639 2.858-5.659 6.568-7.881 11.039-.154.31-.137.678.045.972.183.294.504.473.85.473 3.975 0 11.322-1.642 11.939-7.684-.158-.649-.604-2.098-1.631-3.124zm10.68-7.825c-.021-.136-.233-1.358-1.114-2.239-.882-.883-2.104-1.094-2.24-1.115-.268-.042-.544.028-.761.194.002-.022-3.501 2.749-6.612 5.926-.516.515-1.107 1.112-1.724 1.745.939.322 2.184.9 3.185 1.901.777.777 1.298 1.702 1.644 2.516.457-.488 1.037-1.09 1.77-1.823 3.396-3.395 5.567-6.225 5.658-6.344.165-.216.235-.491.193-.761z"/></svg>