<svg id="Layer_1" viewBox="0 0 24 24" xmlns="http://www.w3.org/2000/svg" data-name="Layer 1"><path d="m5.019 4.793c-.107-.542.246-1.067.787-1.174.051-.01.564-.11 1.348-.226.08-.66.163-1.049.17-1.079.072-.319.294-.582.596-.706.061-.025 1.512-.608 4.08-.608s4.019.583 4.08.608c.302.124.524.387.596.706.007.03.09.419.17 1.079.784.116 1.298.216 1.348.226.542.107.894.633.787 1.174-.105.545-.646.896-1.175.788-.029-.006-2.981-.581-5.806-.581s-5.777.575-5.806.581c-.541.107-1.068-.246-1.175-.788zm16.352 5.278c-.073-.029-1.177-.463-2.916-.86-.958 2.463-3.165 3.789-6.454 3.789s-5.496-1.326-6.454-3.789c-1.74.398-2.843.831-2.916.86-.38.151-.629.52-.629.929v3.5c0 .475.333.884.798.979.046.009.97.199 2.271.396.185 1.896.534 3.639.55 3.722.079.389.379.694.766.779.102.022 2.238.486 4.614.599v1.025c0 .552.448 1 1 1s1-.448 1-1v-1.025c2.377-.113 4.513-.576 4.614-.599.387-.085.688-.39.766-.779.017-.083.365-1.825.55-3.722 1.301-.198 2.225-.387 2.271-.396.465-.096.798-.505.798-.979v-3.5c0-.409-.25-.777-.629-.929zm-14.246-2.649c.416 2.423 1.985 3.578 4.875 3.578s4.459-1.155 4.875-3.578c-1.099-.172-3.012-.422-4.875-.422s-3.776.25-4.875.422z"/></svg>