<?xml version="1.0" encoding="UTF-8"?>
<svg xmlns="http://www.w3.org/2000/svg" id="Layer_1" data-name="Layer 1" viewBox="0 0 24 24">
  <rect x="5.986" y="6.549" width="2.984" height="3.878"/>
  <path d="M15.988,10.427h4.218c.01-1.432-.052-2.745-.142-3.878h-4.076v3.878Z"/>
  <path d="M14.96,20.19c.28,1.395,1.513,2.449,2.989,2.449,1.665,0,3.022-1.342,3.047-3.002-1.003,.156-2.641,.362-4.895,.489l-1.141,.064Z"/>
  <path d="M22.7,12.428h-6.712v5.759c3.684-.208,5.628-.689,5.734-.713,.271-.06,.504-.23,.645-.469,.065-.11,.633-.614,.633-2.426,0-.932-.147-1.653-.3-2.151Z"/>
  <path d="M10.97,18.187c.266,.003,2.328,.019,3.016,0V6.549h-3.016v11.638Z"/>
  <path d="M3.47,19.667c.042,1.645,1.392,2.971,3.046,2.971,1.468,0,2.696-1.043,2.984-2.427l-.612-.025c-2.571-.103-4.336-.331-5.419-.519Z"/>
  <path d="M8.969,12.428H1.001c.127,3.62,.995,4.434,1.18,4.676,.13,.17,.311,.294,.516,.353,.091,.027,1.962,.556,6.273,.729v-5.759Z"/>
  <path d="M3.984,6.549H1.317c-.155,1.089-.276,2.381-.317,3.878H3.984v-3.878Z"/>
  <path d="M19.516,3.148c-.076-.365-.349-.657-.708-.758-.149-.042-3.696-1.028-7.887-1.028s-7.737,.986-7.886,1.028c-.287,.081-.523,.285-.643,.557-.023,.052-.255,.585-.524,1.601H19.754c-.123-.842-.226-1.343-.238-1.4Z"/>
</svg>
