<?xml version="1.0" encoding="UTF-8"?>
<svg xmlns="http://www.w3.org/2000/svg" id="Layer_1" data-name="Layer 1" viewBox="0 0 24 24">
  <g>
    <path d="M13.082,19.547c0-.594-.485-1.078-1.082-1.078s-1.082,.483-1.082,1.078v3.437c.355,.01,.716,.016,1.082,.016s.727-.006,1.082-.016v-3.437Z"/>
    <path d="M18.833,12.439c-1.749,0-3.404-.847-4.427-2.265l-1.134-1.323c-.336-.394-.826-.62-1.345-.62s-1.009,.226-1.346,.621l-1.184,1.387c-.973,1.355-2.628,2.201-4.377,2.201H1.777c-.067,.668-.108,1.385-.108,2.139,0,3.916,1.094,6.808,1.14,6.929,.12,.311,.387,.542,.713,.615,.122,.027,2.357,.521,5.403,.756v-3.331c0-1.693,1.379-3.071,3.075-3.071s3.075,1.378,3.075,3.071v3.331c3.043-.235,5.281-.729,5.403-.756,.327-.073,.596-.306,.715-.619,.047-.122,1.139-3.043,1.139-6.925,0-.755-.041-1.472-.107-2.139h-3.392Zm-11.68,6.658h-.973c-.55,0-.997-.446-.997-.997s.446-.997,.997-.997h.973c.55,0,.997,.446,.997,.997s-.446,.997-.997,.997Zm0-3.496h-.973c-.55,0-.997-.446-.997-.997s.446-.997,.997-.997h.973c.55,0,.997,.446,.997,.997s-.446,.997-.997,.997Zm4.847-.762c-1.111,0-2.015-.9-2.015-2.007s.904-2.007,2.015-2.007,2.015,.901,2.015,2.007-.904,2.007-2.015,2.007Zm5.82,4.258h-.972c-.551,0-.997-.446-.997-.997s.446-.997,.997-.997h.972c.551,0,.997,.446,.997,.997s-.446,.997-.997,.997Zm0-3.496h-.972c-.551,0-.997-.446-.997-.997s.446-.997,.997-.997h.972c.551,0,.997,.446,.997,.997s-.446,.997-.997,.997Z"/>
  </g>
  <path d="M21.191,7.65c-.12-.312-.387-.542-.713-.615-.116-.026-2.882-.64-6.488-.826-.016-.001,1.449-.825,1.449-.825,.461-.253,.737-.719,.737-1.245s-.275-.992-.737-1.246l-3.115-1.713c-.448-.247-.977-.238-1.415,.021-.438,.259-.699,.716-.699,1.224v3.89s0,.003,0,.004l-.05-.042c-.118-.04-.245-.06-.378-.055-3.491,.201-6.15,.789-6.261,.813-.327,.073-.595,.306-.714,.619-.028,.073-.424,1.131-.742,2.792h2.953c1.11,0,2.161-.537,2.81-1.438l1.234-1.451c.553-.665,1.382-1.043,1.382-1.043,.431-.196,.923-.308,1.448-.308,.499,0,.969,.101,1.384,.279l-.002,.002c.019,.007,.918,.406,1.512,1.07l1.184,1.387c.7,.964,1.75,1.502,2.861,1.502h3.104c-.318-1.668-.717-2.723-.745-2.795Z"/>
</svg>
