<svg id="Layer_1" viewBox="0 0 24 24" xmlns="http://www.w3.org/2000/svg" data-name="Layer 1"><path d="m22.938 3.635c-.452-1.151-1.302-2.009-2.526-2.55-.312-.137-.669-.108-.951.078l-3.827 2.5c-.23.15-.389.389-.438.66-.167.928-.21 1.748-.156 2.523l-5.248 5.248c-.448-.23-.95-.415-1.516-.555-.34-.083-.7.016-.949.264-.732.732-1.431 1.467-2.055 2.137-1.418 1.534-2.578 2.905-3.289 3.771-.901 1.056-1.709 2.493.053 4.255 1.445 1.499 2.896 1.221 4.241.065 1.353-1.111 2.6-2.197 3.813-3.321.667-.622 1.376-1.302 2.109-2.034.247-.248.347-.606.263-.946-.139-.564-.323-1.065-.552-1.512l5.247-5.247c.846.077 1.607 0 2.525-.158.271-.049.51-.207.66-.438l2.5-3.827c.178-.271.212-.611.094-.912z"/></svg>