<svg id="Layer_1" viewBox="0 0 24 24" xmlns="http://www.w3.org/2000/svg" data-name="Layer 1"><path d="m20.417 18.462c-.015.016-1.508 1.538-3.192 1.538-.378 0-.861-.291-1.435-.865-.566-.566-.865-1.041-.865-1.374s.299-.809.875-1.385l5.933-6.044c.854-.853 1.268-1.706 1.268-2.607s-.415-1.754-1.268-2.607c-1.681-1.682-3.533-1.681-5.221.007 0 0-8.56 8.666-11.2 11.329-.213.215-.56.217-.776.005l-.186-.183c-.22-.217-.219-.572.003-.787 2.225-2.156 8.268-7.922 8.355-8.006 1.681-1.681 1.681-3.533 0-5.214-1.682-1.681-3.534-1.682-5.195-.019 0 0-3.55 3.424-6.049 5.816-.599.573-.619 1.522-.046 2.121.572.598 1.522.617 2.121.047 1.825-1.747 4.766-4.601 6.235-6.028.216-.21.559-.207.772.006.061.061.124.124.186.187.218.218.214.572-.009.785-2.206 2.11-7.563 7.24-8.453 8.131-1.681 1.681-1.681 3.532 0 5.215 1.681 1.682 3.533 1.682 5.215 0 .901-.902 8.452-8.542 11.209-11.331.213-.215.56-.218.776-.006l.198.195c.217.213.22.562.007.778l-6.003 6.099c-2.32 2.319-2.32 4.672 0 6.991 1.173 1.174 2.336 1.744 3.557 1.744 2.935 0 5.123-2.215 5.363-2.467.568-.599.543-1.542-.052-2.113s-1.544-.551-2.119.042z"/></svg>