<svg id="Layer_1" viewBox="0 0 24 24" xmlns="http://www.w3.org/2000/svg" data-name="Layer 1"><path d="m22.842 12.539c-.038.059-.9 1.401-2.205 3.039-.235 2.08-.575 3.639-.59 3.707-.083.382-.381.68-.762.763-.068.016-1.628.354-3.708.59-1.637 1.305-2.98 2.167-3.039 2.205-.165.104-.352.157-.539.157s-.375-.053-.539-.157c-.059-.038-1.401-.9-3.039-2.205-2.08-.235-3.64-.574-3.708-.59-.381-.083-.679-.381-.762-.763-.015-.068-.354-1.627-.59-3.707-1.305-1.638-2.167-2.98-2.205-3.039-.21-.329-.21-.75 0-1.078.038-.059.9-1.401 2.205-3.039.235-2.08.575-3.64.59-3.708.083-.381.381-.679.762-.762.068-.015 1.628-.354 3.708-.59 1.637-1.305 2.979-2.167 3.039-2.205.328-.21.75-.21 1.078 0 .059.038 1.401.9 3.039 2.205 2.08.235 3.64.575 3.708.59.381.083.679.381.762.762.015.068.354 1.628.59 3.708 1.305 1.637 2.167 2.979 2.205 3.039.21.329.21.75 0 1.078z"/></svg>