<?xml version="1.0" encoding="UTF-8"?>
<svg xmlns="http://www.w3.org/2000/svg" id="Layer_1" data-name="Layer 1" viewBox="0 0 24 24">
  <path d="M9.765,17.754v-.11c.07-3.862,2.611-6.373,6.474-6.396,2.104,.013,3.813,.752,4.952,2.036,.019-.491,.029-.998,.029-1.519,0-5.039-.963-8.745-1.005-8.9-.086-.329-.331-.59-.647-.694-.146-.048-3.633-1.171-7.754-1.171s-7.607,1.123-7.754,1.17c-.318,.104-.563,.366-.649,.697-.041,.157-1.003,3.9-1.003,8.897,0,5.039,.962,8.744,1.003,8.9,.087,.33,.332,.591,.648,.695,.146,.047,3.562,1.146,7.626,1.169-1.198-1.109-1.882-2.744-1.92-4.773Zm-1.529-10.161c0-.564,.457-1.021,1.021-1.021h4.485c.564,0,1.021,.457,1.021,1.021s-.457,1.021-1.021,1.021h-4.485c-.564,0-1.021-.457-1.021-1.021Z"/>
  <path d="M21.289,21.252l-1.115-1.101c.362-.667,.557-1.493,.575-2.47-.05-2.799-1.685-4.415-4.499-4.433-2.8,.017-4.435,1.633-4.486,4.432,0,0-.345,4.469,4.498,4.469,.972,0,1.798-.194,2.466-.554l1.124,1.11c.633,.562,1.245,.194,1.445-.009,.396-.401,.392-1.048-.009-1.444Z"/>
</svg>
