<svg id="Layer_1" viewBox="0 0 24 24" xmlns="http://www.w3.org/2000/svg" data-name="Layer 1"><path d="m18.429 2.45c-.008-1.071.417-1.503 1.489-1.511 1.071-.008 1.503.417 1.511 1.489.008 1.071-.417 1.503-1.489 1.511-1.071.008-1.503-.417-1.511-1.489zm-14.489 1.608c1.071-.008 1.497-.44 1.489-1.511s-.44-1.497-1.511-1.489-1.497.44-1.489 1.511.44 1.497 1.511 1.489zm18.413 3.661c-.655.188-1.462.213-2.383.22-.781.006-1.439-.071-2.028-.202-.071 1.348-.396 2.843-1.547 3.891-.388-1.821-1.845-3.289-3.688-3.575-1.31-.205-2.639.172-3.643 1.039-.783.677-1.29 1.595-1.474 2.594-1.16-1.03-1.506-2.517-1.597-3.859-.587.139-1.243.226-2.024.232-.921.007-1.698-.08-2.355-.263-.462-.129-.715-.68-.583-1.123.348-1.173 1.217-1.601 2.916-1.614.922-.007 1.609.141 2.108.459.41-3.08 2.263-4.492 5.862-4.519s5.474 1.357 5.929 4.431c.494-.325 1.179-.484 2.1-.491 1.699-.013 2.673.561 3.021 1.734.131.442-.154.915-.615 1.047zm-8.902-2.232c-.008-1.071-.44-1.497-1.511-1.489s-1.497.44-1.489 1.511.44 1.497 1.511 1.489 1.497-.44 1.489-1.511zm8.049 13.615c-1.962-.963-4.634-1.781-6.963-2.122l-.033-4.412c-.009-1.262-.914-2.354-2.105-2.538-.734-.115-1.472.096-2.028.576s-.871 1.176-.866 1.91l.039 7.526c-.812-1.125-1.674-2.101-2.393-2.712-.645-.392-1.402-.444-2.082-.096-.766.393-1.193 1.258-1.038 2.102.003.006.123 1.377.89 3.093.158.353.518.572.904.572h15.177c.521-.004.951-.406.99-.925.05-.662.007-1.286.007-2.006 0-.379-.16-.8-.5-.967z"/></svg>