<svg id="Layer_1" viewBox="0 0 24 24" xmlns="http://www.w3.org/2000/svg" data-name="Layer 1"><path d="m16.439 7.561c-.586-.586-.586-1.535 0-2.121l1.724-1.724-.871-.871c-.268-.268-.361-.664-.242-1.023.12-.358.432-.62.807-.674 1.375-.197 2.77-.197 4.146 0 .439.063.785.409.848.849.197 1.375.197 2.77 0 4.146-.062.484-.503.864-.99.858-.261 0-.517-.103-.707-.293l-.871-.871-1.724 1.724c-.293.293-.677.439-1.061.439s-.768-.146-1.061-.439zm6.329 1.296c.15.956.232 1.995.232 3.143 0 7.71-3.29 11-11 11s-11-3.29-11-11 3.29-11 11-11c1.148 0 2.187.083 3.143.232-.261.822-.156 1.691.265 2.411l-.382.382c-1.365 1.364-1.365 3.585 0 4.949.661.661 1.54 1.025 2.475 1.025s1.813-.364 2.475-1.025l.391-.391c.454.262.969.416 1.497.416.312 0 .619-.051.905-.143zm-7.64 5.015c0-1.724-1.401-3.127-3.178-3.127-.456-.006-.823-.413-.822-.868 0-.483.394-.877.877-.877.371 0 .703.234.827.584.185.521.757.791 1.276.61.521-.185.794-.756.61-1.276-.29-.82-.932-1.441-1.717-1.733v-.185c0-.553-.448-1-1-1s-1 .447-1 1v.191c-1.09.41-1.872 1.455-1.872 2.686 0 1.52 1.188 2.781 2.704 2.871.676-.079 1.301.43 1.296 1.124 0 .622-.5 1.128-1.115 1.128-.531 0-1.057-.356-1.222-.83-.182-.521-.751-.795-1.274-.614-.521.183-.796.753-.614 1.274.334.956 1.135 1.696 2.097 2.008v.162c0 .553.448 1 1 1s1-.447 1-1v-.176c1.232-.417 2.128-1.576 2.128-2.952z"/></svg>