<svg id="Layer_1" viewBox="0 0 24 24" xmlns="http://www.w3.org/2000/svg" data-name="Layer 1"><path d="m5.5 10c-1.646 0-3.295-.358-3.365-.374-.381-.083-.679-.381-.762-.762-.016-.069-.373-1.719-.373-3.364s.357-3.295.373-3.364c.083-.381.381-.679.762-.762.07-.016 1.72-.374 3.365-.374s3.295.358 3.365.374c.381.083.679.381.762.762.016.069.373 1.719.373 3.364s-.357 3.295-.373 3.364c-.083.381-.381.679-.762.762-.07.016-1.72.374-3.365.374zm13 13c-1.646 0-3.295-.358-3.365-.374-.381-.083-.679-.381-.762-.762-.016-.069-.373-1.719-.373-3.364s.357-3.295.373-3.364c.083-.381.381-.679.762-.762.07-.016 1.72-.374 3.365-.374s3.295.358 3.365.374c.381.083.679.381.762.762.016.069.373 1.719.373 3.364s-.357 3.295-.373 3.364c-.083.381-.381.679-.762.762-.07.016-1.72.374-3.365.374zm-6.5-4.5c0-1.909.418-3.785.422-3.804.246-1.127 1.144-2.026 2.284-2.276.096-.048 2.715-.524 4.294-.408 0-.004 0-.008 0-.012 0-2.743-.598-5.498-.623-5.614-.083-.381-.381-.679-.762-.762-.116-.025-2.871-.624-5.615-.624-.004 0-.008 0-.013 0 .116 1.595-.398 4.389-.409 4.304-.246 1.127-1.144 2.026-2.284 2.276.032.019-2.715.524-4.294.408v.012c0 2.743.598 5.498.623 5.614.083.381.381.679.762.762.116.025 2.871.624 5.615.624h.013c-.006-.166-.013-.332-.013-.5z"/></svg>