<svg id="Layer_1" viewBox="0 0 24 24" xmlns="http://www.w3.org/2000/svg" data-name="Layer 1"><path d="m5.948 19.359c0-1.881.951-3.616 2.464-4.653.486-3.436 3.464-6.087 7.053-6.087 3.33 0 6.181 2.315 6.931 5.444.181.124.353.258.518.4.054-.777.086-1.602.086-2.463 0-5.175-1.146-8.982-1.194-9.142-.1-.325-.358-.578-.686-.67-.172-.049-4.272-1.188-9.121-1.188s-8.947 1.139-9.119 1.188c-.329.093-.588.347-.687.674-.049.161-1.193 4.007-1.193 9.139 0 5.175 1.146 8.982 1.194 9.142.1.325.358.578.686.67.107.03 1.738.484 4.124.821-.664-.924-1.055-2.054-1.055-3.274zm4.052-14.859c.828 0 1.5.672 1.5 1.5s-.672 1.5-1.5 1.5-1.5-.672-1.5-1.5.672-1.5 1.5-1.5zm-6.011 1.5c0-.828.672-1.5 1.5-1.5s1.5.672 1.5 1.5-.672 1.5-1.5 1.5-1.5-.672-1.5-1.5z"/><path d="m20.575 15.332c-.19-2.63-2.409-4.712-5.11-4.712-2.825 0-5.123 2.278-5.123 5.079 0 .082.002.163.006.244-1.407.514-2.4 1.855-2.4 3.417 0 2.007 1.646 3.641 3.669 3.641h7.351c2.223 0 4.032-1.794 4.032-4 0-1.611-.981-3.044-2.425-3.668z"/></svg>