<svg id="Layer_1" viewBox="0 0 24 24" xmlns="http://www.w3.org/2000/svg" data-name="Layer 1"><path d="m22.516 2.321c-.636-.383-3.356-1.321-5.516-1.321-.323.02-.677.02-1 0-2.159 0-4.88.938-5.516 1.321-.301.181-.484.506-.484.857s.184.676.484.856c.387.233.882.487 1.564.689-.079.521-.041 2.222-.049 2.777 0 3.07 1.43 4.5 4.5 4.5s4.5-1.43 4.5-4.5c-.008-.566.03-2.246-.049-2.777.683-.202 1.177-.456 1.564-.689.301-.181.484-.506.484-.856s-.184-.676-.484-.857zm-.155 8.416c.419.657.639 1.517.639 2.612 0 1.958-.662 3.202-2.02 3.773.012.129.02.258.02.378 0 1.753-.673 2.851-2 3.286v.214c0 1.271-.729 2-2 2s-1.993-.724-1.999-1.986c-.848.874-2.049.986-3.001.986s-2.153-.112-3.001-.986c-.005 1.263-.732 1.986-1.999 1.986s-2-.729-2-2v-.214c-1.327-.435-2-1.533-2-3.286 0-.072 0-.145.004-.215-1.331-.429-2.004-1.529-2.004-3.285s.674-2.853 2.005-3.281c.09-2.501 1.399-3.719 3.995-3.719h3v.5c0 4.191 2.309 6.5 6.5 6.5 2.931 0 4.917-1.152 5.861-3.264z"/></svg>