<svg id="Layer_1" viewBox="0 0 24 24" xmlns="http://www.w3.org/2000/svg" data-name="Layer 1"><path d="m21.029 18.746c-1.981 2.103-6.268 3.675-8.019 4.254v-10.874h9.091c.115 2.879-.091 5.578-1.072 6.62zm.038-15.235c-.058-.282-.233-.525-.481-.671-.123-.072-2.881-1.651-7.573-1.84v9.099s8.964 0 8.964 0c-.234-2.79-.672-5.431-.91-6.588zm-18.096 15.235c1.978 2.101 6.258 3.672 8.013 4.252v-10.872s-9.085 0-9.085 0c-.115 2.879.091 5.578 1.073 6.62zm-.038-15.235c-.238 1.158-.676 3.798-.91 6.588h8.962v-9.099c-4.675.187-7.448 1.769-7.571 1.84-.248.145-.423.389-.481.671z"/></svg>