<svg id="Layer_1" viewBox="0 0 24 24" xmlns="http://www.w3.org/2000/svg" data-name="Layer 1"><path d="m13 10c0 .878-.122 1-1 1s-1-.122-1-1 .122-1 1-1 1 .122 1 1zm7.912 8.534c-2.348 2.493-7.987 4.234-8.622 4.424-.188.057-.392.055-.58 0-.635-.19-6.275-1.932-8.621-4.424-2.132-2.263-.572-12.437-.038-15.037.057-.278.23-.519.475-.662.009-.057 3.574-1.925 8.565-1.835 5.183 0 8.254 1.759 8.383 1.835.245.143.418.384.475.662.534 2.6 2.094 12.772-.037 15.037zm-5.912-8.534c0-1.991-1.009-3-3-3s-3 1.009-3 3c0 1.619.679 2.578 2 2.883v2.117c0 .552.448 1 1 1s1-.448 1-1v-2.117c1.321-.306 2-1.264 2-2.883z"/></svg>