<svg id="Layer_1" viewBox="0 0 24 24" xmlns="http://www.w3.org/2000/svg" data-name="Layer 1"><path d="m14 11c0 1.589-.411 2-2 2s-2-.411-2-2 .411-2 2-2 2 .411 2 2zm6.916 7.534c-2.352 2.495-7.994 4.234-8.63 4.424-.187.057-.391.055-.578 0-.636-.19-6.278-1.929-8.629-4.424-2.135-2.265-.573-12.437-.038-15.037.058-.278.23-.519.476-.662.129-.075 3.203-1.835 8.397-1.835 4.988-.09 8.555 1.778 8.563 1.835.245.144.418.384.476.663.534 2.6 2.096 12.773-.037 15.037zm-2.916-7.534c0-.552-.447-1-1-1h-1.074c-.057-.375-.158-.704-.284-1.008.962-.039 1.358-.472 1.358-1.492 0-1.071-.429-1.5-1.5-1.5-1.02 0-1.453.396-1.492 1.358-.304-.126-.633-.227-1.008-.284v-1.074c0-.552-.447-1-1-1s-1 .448-1 1v1.074c-.375.057-.704.158-1.008.284-.039-.962-.472-1.358-1.492-1.358-1.071 0-1.5.429-1.5 1.5 0 1.02.396 1.453 1.358 1.492-.126.304-.227.633-.284 1.008h-1.074c-.553 0-1 .448-1 1s.447 1 1 1h1.074c.057.375.158.704.284 1.008-.962.039-1.358.472-1.358 1.492 0 1.071.429 1.5 1.5 1.5 1.02 0 1.453-.396 1.492-1.358.304.126.633.227 1.008.284v1.074c0 .552.447 1 1 1s1-.448 1-1v-1.074c.375-.057.704-.158 1.008-.284.039.962.472 1.358 1.492 1.358 1.071 0 1.5-.429 1.5-1.5 0-1.02-.396-1.453-1.358-1.492.126-.304.227-.633.284-1.008h1.074c.553 0 1-.448 1-1z"/></svg>