<svg id="Layer_1" viewBox="0 0 24 24" xmlns="http://www.w3.org/2000/svg" data-name="Layer 1"><path d="m4.06 20.594c1.327.148 3.28.313 5.765.377-.406 1.176-1.512 2.029-2.825 2.029-1.451 0-2.664-1.035-2.94-2.406zm14.911-7.594h3.998c-.116-2.005-.529-3.65-.549-3.729-.095-.369-.391-.652-.764-.731-.068-.014-1.289-.266-2.862-.422.119 1.214.207 2.555.207 3.883 0 .325-.012.661-.029 1zm-17.971-6c0-4.149 1.851-6 6-6s6 1.851 6 6-1.851 6-6 6-6-1.851-6-6zm5 0c0 .265.105.52.293.707l1 1c.391.391 1.023.391 1.414 0s.391-1.023 0-1.414l-.707-.707v-1.586c0-.552-.447-1-1-1s-1 .448-1 1zm11 5c-.025-2.96-.374-5.555-.721-7.451-.078-.382-.371-.684-.751-.773-.045-.01-.431-.1-1.036-.214.337.991.508 2.138.508 3.437 0 5.233-2.767 8-8 8-2.593 0-4.579-.681-5.924-2.004.18 2.47.621 4.34.645 4.454.128.432.415.856.897.936.896.144 4.22.614 9.382.614 1.533 0 2.897-.042 4.093-.103.414-1.917.907-4.663.907-6.897zm1.169 6.759c1.93-.159 3.128-.35 3.475-.41.402-.069.741-.464.827-.863.107-.494.388-1.157.49-2.486h-4.166c-.162 1.335-.397 2.646-.626 3.759zm-1.169 4.241c1.451 0 2.664-1.035 2.94-2.406-1.327.148-3.28.313-5.765.377.406 1.176 1.512 2.029 2.825 2.029z"/></svg>