<svg id="Layer_1" viewBox="0 0 24 24" xmlns="http://www.w3.org/2000/svg" data-name="Layer 1"><path d="m4.683 21.027c-.209-1.061-.683-4.016-.683-8.944 0-.92.021-1.347.047-2.117.016-.489.385-.895.87-.957.515-.067 2.083-.271 2.083-3.509v-3c0-.828.671-1.5 1.5-1.5s1.5.672 1.5 1.5v2.394c.063.626.409 1.106 2 1.106s1.937-.479 2-1.106v-2.394c0-.828.672-1.5 1.5-1.5s1.5.672 1.5 1.5v3c0 3.107 1.442 3.42 2.013 3.499-3.939 5.026-8.642 8.975-14.33 12.028zm15.304-10.039c-3.8 4.645-8.39 8.474-13.677 11.423 1.054.241 3.023.589 5.69.589 3.978 0 6.452-.78 6.556-.813.33-.106.582-.375.665-.712.032-.128.779-3.216.779-9.392 0-.469-.005-.787-.013-1.095z"/></svg>