<svg id="Layer_1" viewBox="0 0 24 24" xmlns="http://www.w3.org/2000/svg" data-name="Layer 1"><path d="m18 7c-5 0-5 4.4-5 5.846 0 1.239.293 2.118.552 2.893.029.088.058.175.086.261h8.868c.468-1.308.494-3.536.494-4 0-2.417-1.313-5-5-5z"/><path d="m18 23c1.825 0 4-.868 4-5h-8c0 3.318 1.346 5 4 5z"/><path d="m6 1c-3.687 0-5 2.583-5 5 0 .464.026 2.693.493 4h8.869c.028-.086.057-.173.086-.261.259-.775.552-1.654.552-2.893 0-1.446 0-5.846-5-5.846z"/><path d="m6 17c2.654 0 4-1.682 4-5h-8c0 4.132 2.175 5 4 5z"/></svg>