<svg id="Layer_1" viewBox="0 0 24 24" xmlns="http://www.w3.org/2000/svg" data-name="Layer 1"><path d="m22.196 9.02c-.093-.019-1.131-.224-2.696-.445v-.075c0-4.136-3.364-7.5-7.5-7.5s-7.5 3.364-7.5 7.5v.075c-1.565.221-2.603.426-2.696.445-.467.094-.804.504-.804.98v3c0 10 4.854 10 11 10s11 0 11-10v-3c0-.477-.336-.887-.804-.98zm-15.196 7.98c0 .553-.448 1-1 1s-1-.447-1-1v-4c0-.553.448-1 1-1s1 .447 1 1zm4 1c0 .553-.448 1-1 1s-1-.447-1-1v-5c0-.553.448-1 1-1s1 .447 1 1zm-3.472-9.779c.147-2.349 2.086-4.221 4.472-4.221s4.324 1.871 4.472 4.221c-1.393-.128-2.927-.221-4.472-.221s-3.079.092-4.472.221zm7.472 9.779c0 .553-.448 1-1 1s-1-.447-1-1v-5c0-.553.448-1 1-1s1 .447 1 1zm4-1c0 .553-.448 1-1 1s-1-.447-1-1v-4c0-.553.448-1 1-1s1 .447 1 1z"/></svg>