<svg id="Layer_1" viewBox="0 0 24 24" xmlns="http://www.w3.org/2000/svg" data-name="Layer 1"><path d="m22.561 20.439-.905-.905c.176-1.348.388-3.57.388-6.459 0-1.146-.069-2.282-.189-3.391.762-.334 1.014-.867 1.098-1.283.012-.133.04-.259.041-.398-.146-2.899-1.311-5.566-2.187-5.955-.132-.042-3.312-1.048-8.807-1.048-4.009 0-6.779.534-8.039.84l-.401-.401c-.586-.586-1.535-.586-2.121 0-.586.585-.586 1.536 0 2.121l19 19.001c.586.586 1.535.586 2.121 0 .586-.585.586-1.536 0-2.121zm-3.65-3.65-6.794-6.794c2.753-.042 2.861-1.492 2.883-2.012-.001-.917-.116-1.852-.117-1.86-.068-.548.32-1.048.868-1.116.55-.063 1.048.32 1.116.868.006.043.13 1.055.132 2.095.018.437.087 1.585 1.863 1.928.116 1.035.181 2.1.181 3.176 0 1.425-.057 2.669-.133 3.715zm-8.822-1.751 4.732 4.732c-.076.774-.184 1.604-.341 2.395-.09.455-.48.788-.944.805-.494.019-1.003.03-1.542.03-5.468 0-8.455-.771-8.579-.804-.363-.097-.642-.389-.721-.756-.438-2.032-.553-4.036-.583-4.745-.068-1.043-.117-2.256-.117-3.621 0-1.142.069-2.273.188-3.378-.8-.336-1.057-.885-1.138-1.296-.065-.328-.035-.664-.018-.992.033-.425.107-.837.194-1.24l3.937 3.937c-.102.971-.163 1.964-.163 2.969 0 .735.016 1.422.041 2.063 1.023-.072 2.285-.138 3.459-.138.577 0 1.099.016 1.596.039z"/></svg>