<svg id="Layer_1" viewBox="0 0 24 24" xmlns="http://www.w3.org/2000/svg" data-name="Layer 1"><path d="m12.997 17.527c-.049.828-.773 1.457-1.591 1.403-1.44-.09-2.907-.273-3.926-.491-.446-.095-.826-.39-1.029-.799-1.03-2.07-1.463-5.214-1.882-8.254-.28-2.041-.57-4.142-.992-5.315-.317-.054-.724-.081-1.027-.073-.823.03-1.523-.621-1.549-1.449-.027-.828.621-1.521 1.449-1.549.302-.009 1.847-.032 2.909.517.264.136.48.346.624.605.206.37.381.805.535 1.295 2.188-.216 5.186-.423 7.663-.417v.002c3.542.011 5.382.318 7.553.636.422.062.759.386.838.806.206 1.102.42 2.274.42 3.562 0 1.873-.334 3.488-.667 4.422-.835-1.482-2.386-2.417-4.343-2.428-2.594.015-4.455 1.581-4.884 3.982-1.857-.042-3.509-.165-4.79-.307.159.725.336 1.399.546 1.967.706.113 1.658.228 2.739.295.827.052 1.455.764 1.403 1.591zm-3.498 2.473c-.832.008-1.509.691-1.499 1.499.01.828.671 1.499 1.499 1.499s1.499-.671 1.499-1.499-.671-1.507-1.499-1.499zm5.5-5.019v.037c.035 1.884 1.126 2.97 3.007 2.981 1.869-.012 2.96-1.098 2.995-3.018-.032-1.828-1.18-2.972-3.007-2.982-1.842.011-2.961 1.126-2.995 2.981zm7.941 6.422c-.454-1.257-1.367-2.025-2.639-2.225-1.518-.236-3.086-.236-4.603 0-1.272.199-2.185.968-2.639 2.225-.1.277-.073.584.074.84.147.255.4.433.69.484.062.011 1.554.272 4.176.272s4.114-.262 4.176-.272c.29-.052.542-.229.69-.484.147-.256.174-.562.074-.84z"/></svg>