<?xml version="1.0" encoding="UTF-8"?>
<svg xmlns="http://www.w3.org/2000/svg" id="Layer_1" data-name="Layer 1" viewBox="0 0 24 24">
  <path d="M20.204,8.377c-.237-1.076-1.086-1.92-2.161-2.153-.372-.08-.745-.153-1.118-.219-.034-.612-.079-1.231-.133-1.808-.147-1.569-1.343-2.824-2.907-3.051-1.355-.196-2.412-.196-3.768,0-1.563,.227-2.759,1.481-2.907,3.05-.055,.577-.099,1.196-.133,1.809-.373,.065-.746,.138-1.118,.219-1.076,.232-1.925,1.078-2.161,2.153-.875,3.977-.875,7.843,0,11.82,.236,1.076,1.085,1.921,2.161,2.153,2.005,.433,4.024,.649,6.042,.649s4.038-.216,6.042-.649c1.076-.232,1.924-1.077,2.161-2.153,.875-3.977,.875-7.843,0-11.821Zm-10.101-2.738c.026-.398,.057-.791,.092-1.159,.017-.181,.168-.337,.351-.364,1.061-.153,1.849-.153,2.907,0,.184,.027,.334,.183,.352,.365,.035,.369,.066,.76,.092,1.158-1.264-.085-2.529-.085-3.794,0Z"/>
</svg>
