<svg id="Layer_1" viewBox="0 0 24 24" xmlns="http://www.w3.org/2000/svg" data-name="Layer 1"><path d="m22.137 7.358c-.724.35-1.627.051-1.989-.692-.01-.019-.097-.174-.274-.421l-5.638 5.638c1.921 2.124 2.6 3.528 2.632 3.596.124.265.127.572.005.839-.033.073-.829 1.798-2.807 3.776-1.979 1.978-3.703 2.775-3.775 2.808-.268.122-.577.119-.843-.007-.053-.026-.946-.469-2.351-1.581l3.611-3.611c.39-.39.39-1.023 0-1.413s-1.023-.39-1.413 0l-3.718 3.718c-.267-.248-.54-.504-.827-.791-.275-.275-.52-.536-.759-.793l3.718-3.718c.39-.39.39-1.023 0-1.413s-1.023-.39-1.413 0l-3.615 3.615c-1.128-1.42-1.571-2.321-1.596-2.374-.124-.265-.127-.572-.005-.839.033-.072.829-1.797 2.807-3.775 1.979-1.978 3.703-2.775 3.775-2.807.268-.122.576-.12.842.007.069.032 1.484.723 3.61 2.647l5.638-5.638c-.266-.192-.42-.272-.423-.274-.729-.373-1.033-1.268-.67-2.002.363-.736 1.239-1.047 1.977-.696.172.081 1.089.552 2.372 1.836 1.284 1.284 1.755 2.201 1.836 2.372.355.747.038 1.642-.709 1.997z"/></svg>