<svg id="Layer_1" viewBox="0 0 24 24" xmlns="http://www.w3.org/2000/svg" data-name="Layer 1"><path d="m9.524 18c-.842 0-1.524-.682-1.524-1.524 0-.681.587-1.669 1.027-2.238.242-.314.709-.317.956-.007.454.569 1.066 1.561 1.066 2.245 0 .842-.682 1.524-1.524 1.524zm5.459-3.77c-.247-.31-.714-.307-.956.007-.44.57-1.027 1.557-1.027 2.238 0 .842.682 1.524 1.524 1.524s1.524-.682 1.524-1.524c0-.684-.611-1.676-1.066-2.245zm-9.005 5.007c-.44.57-1.027 1.557-1.027 2.238 0 .842.682 1.524 1.524 1.524s1.524-.682 1.524-1.524c0-.684-.611-1.676-1.066-2.245-.247-.31-.714-.307-.956.007zm11.049 0c-.44.57-1.027 1.557-1.027 2.238 0 .842.682 1.524 1.524 1.524s1.524-.682 1.524-1.524c0-.684-.611-1.676-1.066-2.245-.247-.31-.714-.307-.956.007zm-5.5 0c-.44.57-1.027 1.557-1.027 2.238 0 .842.682 1.524 1.524 1.524s1.524-.682 1.524-1.524c0-.684-.611-1.676-1.066-2.245-.247-.31-.714-.307-.956.007zm1.973-16.186v-.551c0-.828-.672-1.5-1.5-1.5s-1.5.672-1.5 1.5v.551c-5.933.378-8.5 3.113-8.5 8.949 0 .553.447 1 1 1h18c.553 0 1-.447 1-1 0-5.836-2.567-8.572-8.5-8.949z"/></svg>