<svg id="Layer_1" viewBox="0 0 24 24" xmlns="http://www.w3.org/2000/svg" data-name="Layer 1"><path d="m21.011 10c.828 0 1.5.672 1.5 1.5s-.672 1.5-1.5 1.5-1.5-.672-1.5-1.5.672-1.5 1.5-1.5zm0 5c-.828 0-1.5.672-1.5 1.5s.672 1.5 1.5 1.5 1.5-.672 1.5-1.5-.672-1.5-1.5-1.5zm0 5c-.828 0-1.5.672-1.5 1.5s.672 1.5 1.5 1.5 1.5-.672 1.5-1.5-.672-1.5-1.5-1.5zm-5-5c-.828 0-1.5.672-1.5 1.5s.672 1.5 1.5 1.5 1.5-.672 1.5-1.5-.672-1.5-1.5-1.5zm0 5c-.828 0-1.5.672-1.5 1.5s.672 1.5 1.5 1.5 1.5-.672 1.5-1.5-.672-1.5-1.5-1.5zm-5 0c-.828 0-1.5.672-1.5 1.5s.672 1.5 1.5 1.5 1.5-.672 1.5-1.5-.672-1.5-1.5-1.5zm-.672-5.293c.372.387 1.042.387 1.414 0l9.465-9.465c.391-.391.391-1.023 0-1.414-1.929-1.93-3.657-2.828-5.439-2.828-1.493 0-2.95.641-4.517 1.98-1.089-.934-2.745-1.98-4.75-1.98-3.145 0-5.023 2.131-5.023 5.703l.022 14.8c0 .828.673 1.498 1.5 1.498.83 0 1.501-.673 1.5-1.502l-.022-14.797c0-2.492 1.044-2.7 2.022-2.7 1.029 0 1.984.582 2.663 1.138-2.54 3.246-2.155 6.25 1.165 9.57z"/></svg>