<svg id="Layer_1" viewBox="0 0 24 24" xmlns="http://www.w3.org/2000/svg" data-name="Layer 1"><path d="m12 4c-2.438 0-4.387.079-5.878.176.161-1.212.426-1.951.442-1.994.104-.276.324-.492.602-.591.068-.024 1.699-.591 4.835-.591s4.767.567 4.835.591c.277.099.498.315.602.591.016.043.281.781.442 1.994-1.491-.097-3.44-.176-5.878-.176zm9.915 3.096c-.136-.308-.418-.527-.751-.583-.126-.021-3.15-.514-9.164-.514s-9.039.493-9.165.514c-.332.055-.614.274-.75.583-.02-.269-1.264 3.615-1.078 6.928.015.544.458.975 1.003.975h19.981c.535 0 .981-.42.999-.954.15-3.365-.992-7.115-1.076-6.95zm-17.415 9.904c-.828 0-1.5.671-1.5 1.5v3c0 .829.672 1.5 1.5 1.5s1.5-.671 1.5-1.5v-3c0-.829-.672-1.5-1.5-1.5zm5 0c-.828 0-1.5.671-1.5 1.5v3c0 .829.672 1.5 1.5 1.5s1.5-.671 1.5-1.5v-3c0-.829-.672-1.5-1.5-1.5zm5 0c-.828 0-1.5.671-1.5 1.5v3c0 .829.672 1.5 1.5 1.5s1.5-.671 1.5-1.5v-3c0-.829-.672-1.5-1.5-1.5zm5 0c-.828 0-1.5.671-1.5 1.5v3c0 .829.672 1.5 1.5 1.5s1.5-.671 1.5-1.5v-3c0-.829-.672-1.5-1.5-1.5z"/></svg>