<?xml version="1.0" encoding="UTF-8"?>
<svg xmlns="http://www.w3.org/2000/svg" id="Layer_1" data-name="Layer 1" viewBox="0 0 24 24">
  <g>
    <path d="M8.591,9.179c.993-.049,2.025-.081,3.069-.087V1.727c-.278-.007-.563-.011-.857-.011-.797,0-1.535,.029-2.211,.078v7.385Z"/>
    <path d="M13.66,9.11c3.648,.091,6.791,.466,8.47,.704-1.419-3.787-3.261-6.528-3.34-6.646-.112-.165-.271-.293-.456-.367-.086-.035-1.709-.673-4.675-.955v7.263Z"/>
    <path d="M6.591,9.301V2.012c-2.093,.312-3.23,.761-3.302,.789-.252,.102-.452,.302-.553,.554-.049,.122-1.171,2.931-1.541,6.492,1.164-.153,3.102-.381,5.396-.547Z"/>
    <path d="M12.06,11.09c-4.669,0-9.301,.564-11.023,.798-.021,.455-.037,.987-.037,1.566,0,1.981,.807,3.461,.841,3.522,.146,.264,.403,.447,.7,.5,.179,.032,4.429,.776,9.46,.776s9.281-.744,9.459-.776c.299-.053,.558-.238,.704-.505,.034-.062,.835-1.554,.835-3.518,0-.547-.061-1.056-.151-1.508-1.057-.17-5.629-.857-10.789-.857Z"/>
  </g>
  <path d="M3.31,19.622c.194,1.5,1.473,2.662,3.019,2.662,1.347,0,2.491-.882,2.892-2.1-2.553-.123-4.684-.385-5.911-.562Z"/>
  <path d="M14.778,20.183c.401,1.219,1.546,2.101,2.893,2.101,1.546,0,2.826-1.163,3.019-2.664-1.231,.176-3.376,.438-5.912,.562Z"/>
</svg>
