<svg id="Layer_1" viewBox="0 0 24 24" xmlns="http://www.w3.org/2000/svg" data-name="Layer 1"><path d="m12 23.003c-5.387 0-8.797-1.025-8.939-1.069-.468-.143-.836-.506-.987-.971s-.065-.975.229-1.366c2.354-3.122 4.578-5.672 7.326-7.597-2.748-1.925-4.973-4.476-7.326-7.597-.294-.391-.38-.901-.229-1.367.152-.466.521-.828.99-.971.143-.043 3.552-1.062 8.937-1.062s8.815.966 8.959 1.007c.677.193 1.127.831 1.085 1.533-.013.207-.154 2.076-1.296 3.789-.46.69-1.392.875-2.08.416-.689-.459-.876-1.391-.416-2.08.235-.353.402-.729.521-1.072-1.384-.259-3.751-.592-6.772-.592-2.444 0-4.448.229-5.847.46 2.173 2.678 4.327 4.776 7.046 6.209.492.26.801.771.801 1.327s-.309 1.067-.801 1.327c-2.721 1.433-4.875 3.532-7.049 6.212 1.398.233 3.403.464 5.85.464 3.021 0 5.39-.333 6.774-.593-.118-.346-.286-.724-.522-1.079-.46-.689-.273-1.621.416-2.08.688-.459 1.62-.274 2.08.416 1.142 1.712 1.283 3.588 1.296 3.796.042.702-.409 1.339-1.085 1.532-.144.041-3.587 1.007-8.959 1.007z"/></svg>