<svg id="Layer_1" viewBox="0 0 24 24" xmlns="http://www.w3.org/2000/svg" data-name="Layer 1"><path d="m4 12c0-2.319 1.052-4.597 2.963-6.413.601-.571.625-1.52.054-2.121-.572-.602-1.521-.625-2.121-.054-2.512 2.388-3.896 5.438-3.896 8.588s1.384 6.2 3.896 8.587c.29.276 1.203.829 2.121-.054.576-.555.546-1.55-.054-2.121-1.911-1.816-2.963-4.093-2.963-6.413z"/><path d="m19.105 3.413c-.599-.571-1.549-.547-2.121.054-.571.601-.546 1.55.054 2.121 1.911 1.816 2.963 4.093 2.963 6.413s-1.052 4.597-2.963 6.413c-.601.571-.63 1.566-.054 2.121.918.883 1.831.33 2.121.054 2.513-2.388 3.896-5.438 3.896-8.587s-1.384-6.2-3.896-8.587z"/><path d="m9.769 15.233c-1.029-.978-1.573-2.096-1.573-3.233s.544-2.255 1.573-3.233c.601-.571.625-1.52.054-2.121-.572-.602-1.521-.625-2.121-.054-1.616 1.536-2.506 3.457-2.506 5.408s.89 3.872 2.506 5.408c.29.276 1.197.799 2.121-.054.609-.562.546-1.55-.054-2.121z"/><path d="m16.305 6.592c-.599-.571-1.549-.547-2.121.054-.571.601-.546 1.55.054 2.121 1.029.978 1.573 2.096 1.573 3.233s-.544 2.255-1.573 3.233c-.601.571-.663 1.558-.054 2.121.924.853 1.831.33 2.121.054 1.616-1.536 2.506-3.457 2.506-5.408s-.89-3.872-2.506-5.408z"/><ellipse cx="12" cy="12" rx="2.448" ry="2.436"/></svg>