<svg id="Layer_1" viewBox="0 0 24 24" xmlns="http://www.w3.org/2000/svg" data-name="Layer 1"><path d="m21.921 2.061c-.148-.043-3.684-1.061-8.921-1.061-5.268 0-9.558 1.163-9.738 1.213-.503.139-.898.528-1.043 1.029-.05.173-1.219 4.273-1.219 9.232 0 4.912.998 9.19 1.04 9.37.163.69.779 1.155 1.458 1.155.114 0 .23-.013.347-.04.806-.19 1.305-.999 1.115-1.805-.01-.041-.96-4.114-.96-8.681 0-3.274.573-6.196.892-7.57.509-.113 1.23-.26 2.108-.402v1.576c-.046.012-.074.019-.084.022-.328.088-.589.336-.693.659-.038.117-.923 2.902-.923 6.191s.885 6.073.922 6.19c.104.325.367.574.697.661.123.032 3.064.798 6.981.798 3.951 0 6.862-.766 6.984-.799.328-.088.589-.336.693-.659.038-.117.923-2.903.923-6.191s-.885-6.073-.922-6.19c-.092-.285-.305-.512-.578-.622v-1.22c.049.013.077.021.081.022.796.232 1.626-.225 1.859-1.02s-.223-1.628-1.018-1.86zm-3.921 3.509c-1.134-.148-2.54-.27-4.1-.27-1.475 0-2.806.107-3.9.243v-1.412c.94-.08 1.951-.131 3-.131 1.96 0 3.667.157 5 .342z"/></svg>