<svg id="Layer_1" viewBox="0 0 24 24" xmlns="http://www.w3.org/2000/svg" data-name="Layer 1"><path d="m21.729 16.188c-.725-.402-1.638-.141-2.04.583-.891 1.604-1.785 2.229-3.168 2.229-1.35-.019-1.943-1.372-2.566-3.864-.168-.673-.747-1.146-1.47-1.136-.693.007-1.292.488-1.447 1.164-.436 1.9-1.717 3.836-2.538 3.836-.348 0-.729-.282-1.118-.775 2.357-4.095 2.597-10.144 2.618-11.751 0-2.927-1.558-4.474-4.505-4.474s-4.495 1.547-4.495 4.494c.038 2.708.926 7.933 2.79 11.564-.49.494-1.038.836-1.645.984-.805.196-1.298 1.008-1.102 1.812.167.686.78 1.145 1.456 1.145 1.146-.12 2.182-.733 3.011-1.434.864.892 1.858 1.434 2.99 1.434 1.624 0 2.936-1.104 3.884-2.508.807 1.353 2.067 2.479 4.116 2.508 2.501 0 4.402-1.234 5.812-3.772.402-.725.141-1.638-.583-2.04zm-16.069-1.386c-.918-2.511-1.623-5.711-1.659-8.328 0-1.281.196-1.474 1.495-1.474 1.308 0 1.505.192 1.505 1.454-.037 2.866-.474 5.943-1.341 8.348zm16.25-.858c-.776.225-1.629-.23-1.852-1.035-.268-.944-.671-1.797-1.199-2.534-.482-.674-.328-1.61.345-2.093.673-.485 1.611-.328 2.093.345.731 1.021 1.285 2.186 1.647 3.466.226.797-.238 1.626-1.035 1.852z"/></svg>