<svg id="Layer_1" viewBox="0 0 24 24" xmlns="http://www.w3.org/2000/svg" data-name="Layer 1"><path d="m15.192 23c-.712 0-1.18-.228-1.267-.274-.31-.164-.512-.478-.532-.829-.002-.036-.202-3.652-.202-7.897s.2-7.895.202-7.931c.021-.384.261-.722.616-.869.081-.034.517-.2 1.182-.2s1.102.167 1.182.2c.355.147.596.484.616.869.002.036.202 3.686.202 7.931s-.2 7.862-.202 7.897c-.02.351-.221.665-.531.829-.087.046-.555.274-1.267.274zm-3.719-.275c.316-.162.524-.479.544-.833.001-.03.175-3.059.175-5.891s-.2-5.87-.203-5.9c-.022-.339-.215-.643-.512-.808-.088-.049-.562-.292-1.285-.292-.714 0-1.184.231-1.271.278-.305.163-.504.471-.527.816-.002.03-.202 3.069-.202 5.906s.19 5.828.192 5.858c.02.311.184.595.444.768.094.062.6.374 1.364.374.705 0 1.19-.229 1.281-.275zm-6.377.275c-.728 0-1.211-.203-1.301-.244-.322-.146-.542-.452-.58-.804-.009-.082-.215-2.03-.215-3.952s.216-3.914.225-3.998c.042-.387.305-.714.674-.838.081-.027.519-.164 1.197-.164.683 0 1.125.143 1.208.171.363.127.622.452.664.834.009.083.225 2.07.225 3.994s-.187 3.884-.194 3.967c-.037.385-.293.715-.658.846-.087.031-.557.187-1.244.187z"/></svg>