<?xml version="1.0" encoding="UTF-8"?>
<svg xmlns="http://www.w3.org/2000/svg" id="Layer_1" data-name="Layer 1" viewBox="0 0 24 24">
  <path d="M7.335,21.446c-.268-.939-.408-3.565-.408-7.595,0-2.07,.039-3.589,.095-4.701-.515-.366-1.271-.748-2.184-.748-1.664,0-2.797,1.257-2.921,1.4-.159,.185-.271,.406-.326,.644-.034,.147-.331,1.546-.331,5.255s.297,5.105,.331,5.253c.055,.241,.169,.466,.332,.652,.125,.143,1.265,1.393,2.915,1.393,1.257,0,2.21-.716,2.655-1.128-.063-.138-.117-.28-.158-.426Z"/>
  <path d="M14.503,21.447c-.271-.944-.409-4.123-.409-9.447,0-2.145,.024-4.622,.112-6.539-.515-.37-1.278-.76-2.201-.76-1.664,0-2.797,1.256-2.921,1.399-.15,.175-.26,.383-.317,.607-.057,.221-.34,1.603-.34,7.143s.269,6.894,.351,7.182c.061,.211,.167,.408,.312,.573,.124,.143,1.263,1.394,2.915,1.394,1.257,0,2.211-.717,2.656-1.129-.063-.137-.116-.279-.158-.423Zm-2.113-1.595c-.231,.152-.5,.174-.77,0-.074-.683-.193-2.35-.193-6.001s.122-5.323,.194-6.002c.245-.157,.499-.17,.763-.003,.073,.707,.189,2.397,.189,6.005,0,3.681-.117,5.347-.184,6.002Z"/>
  <path d="M19.172,23c-1.652,0-2.791-1.251-2.915-1.394-.145-.166-.251-.36-.312-.572-.224-.777-.352-4.07-.352-9.034,0-7.203,.266-8.725,.347-9.02,.06-.214,.165-.412,.311-.58,.123-.144,1.256-1.4,2.921-1.4,1.652,0,2.791,1.251,2.915,1.394,.152,.174,.263,.381,.321,.605,.078,.297,.332,1.825,.332,9,0,7.044-.236,8.655-.338,9.021-.06,.213-.165,.411-.31,.579-.124,.143-1.257,1.399-2.921,1.399Zm-.375-3.142c.26,.164,.51,.155,.752,0,.065-.743,.191-2.813,.191-7.857,0-4.968-.124-7.059-.197-7.861-.266-.167-.522-.143-.75,.004-.068,.745-.199,2.82-.199,7.856,0,4.994,.128,7.071,.203,7.858Z"/>
</svg>
