<?xml version="1.0" encoding="UTF-8"?>
<svg xmlns="http://www.w3.org/2000/svg" id="Layer_1" data-name="Layer 1" viewBox="0 0 24 24">
  <path d="M4.535,12c0,.829,.672,1.5,1.5,1.5h7.807c-.617,.514-1.431,1.065-2.493,1.576-.746,.359-1.061,1.255-.701,2.002,.258,.537,.794,.85,1.353,.85,.218,0,.439-.048,.649-.149,4.313-2.075,5.584-4.887,5.715-5.201,.15-.363,.153-.772,.007-1.137-.126-.313-1.355-3.12-5.722-5.22-.749-.361-1.644-.044-2.002,.701-.359,.747-.045,1.643,.701,2.002,1.062,.511,1.876,1.061,2.493,1.576H6.035c-.828,0-1.5,.671-1.5,1.5Z"/>
  <path d="M21.631,3.157c-.148-.488-.535-.868-1.025-1.007-.166-.047-4.103-1.15-8.75-1.15C7.292,1,3.282,2.101,3.113,2.147c-.497,.139-.889,.523-1.035,1.018-.021,.07-.513,1.74-.846,4.287-.107,.821,.472,1.574,1.293,1.682,.827,.109,1.574-.472,1.682-1.293,.169-1.291,.383-2.335,.539-3.004,1.338-.302,4.125-.836,7.109-.836,3.034,0,5.791,.532,7.111,.833,.299,1.272,.813,3.936,.813,7.167,0,3.208-.517,5.887-.815,7.167-1.319,.302-4.071,.833-7.109,.833-2.937,0-5.756-.537-7.11-.839-.155-.669-.369-1.712-.538-3.001-.107-.821-.868-1.407-1.682-1.293-.821,.107-1.4,.86-1.293,1.682,.333,2.547,.824,4.217,.846,4.287,.147,.498,.542,.883,1.043,1.02,.172,.047,4.254,1.146,8.734,1.146,4.637,0,8.583-1.103,8.749-1.149,.492-.14,.88-.521,1.027-1.012,.047-.156,1.148-3.885,1.148-8.838,0-4.996-1.103-8.688-1.149-8.843Z"/>
</svg>
