<svg id="Layer_1" viewBox="0 0 24 24" xmlns="http://www.w3.org/2000/svg" data-name="Layer 1"><path d="m19.939 4.939.5-.5c.586-.586 1.535-.586 2.121 0 .586.585.586 1.536 0 2.121l-.5.5c-.586.586-1.535.586-2.121 0-.586-.585-.586-1.536 0-2.121zm-2.847-.402c.739.335 1.643.005 1.981-.759l.297-.667c.337-.757-.003-1.644-.759-1.981-.757-.338-1.644.003-1.981.759l-.297.667c-.337.757.003 1.644.759 1.981zm-15.153 2.524c.586.586 1.535.586 2.121 0 .586-.585.586-1.536 0-2.121l-.5-.5c-.586-.586-1.535-.586-2.121 0-.586.585-.586 1.536 0 2.121zm2.988-3.283c.338.764 1.242 1.094 1.981.759.756-.337 1.097-1.224.759-1.981l-.297-.667c-.338-.756-1.223-1.097-1.981-.759-.756.337-1.097 1.224-.759 1.981zm15.141 14.546c-1.586-.148-4.272-.324-8.068-.324s-6.482.176-8.069.324c-1.659.156-2.919 1.502-2.931 3.176 0 .344.038.936 1.051 1.09 1.736.183 4.446.41 9.949.41s8.277-.201 10.013-.385c.936-.141.987-.772.987-1.115-.012-1.63-1.271-3.02-2.932-3.176zm-8.068-13.324c5.98 0 6.745 2.886 7.678 8.417l.383 2.899c-1.647-.148-4.329-.316-8.061-.316s-6.407.168-8.057.316l.373-2.819c.943-5.596 1.711-8.497 7.684-8.497zm-2.53 7.977c.525.12 1.076-.217 1.192-.76.129-.582.232-.944.306-1.165.22-.027.553-.052 1.032-.052.552 0 1-.448 1-1s-.448-1-1-1c-.93 0-1.648.083-2.078.239-.2.073-.371.207-.489.383-.17.253-.406.729-.723 2.162-.12.539.221 1.073.76 1.193z"/></svg>