<svg id="Layer_1" viewBox="0 0 24 24" xmlns="http://www.w3.org/2000/svg" data-name="Layer 1"><path d="m22.843 9c-.28-2.844-.842-5.117-.873-5.243-.082-.332-.329-.598-.653-.706-.129-.043-3.225-1.051-9.316-1.051s-9.189 1.008-9.317 1.051c-.324.108-.571.375-.654.706-.031.126-.593 2.398-.873 5.243zm-13.343-5c.83 0 1.5.67 1.5 1.5s-.67 1.5-1.5 1.5-1.5-.671-1.5-1.5.67-1.5 1.5-1.5zm-4 0c.83 0 1.5.67 1.5 1.5s-.67 1.5-1.5 1.5-1.5-.671-1.5-1.5.67-1.5 1.5-1.5zm-4.479 7c-.012.332-.021.665-.021 1 0 4.076.988 8.074 1.03 8.242.083.332.33.599.654.706.129.043 3.224 1.052 9.316 1.052s9.187-1.009 9.316-1.052c.324-.107.571-.374.653-.706.042-.168 1.03-4.166 1.03-8.242 0-.335-.009-.668-.021-1zm6.926 7.236c-.08.15-.231.251-.401.265-.169.015-.336-.059-.439-.196-.019-.023-.3-.4-.597-1.084-.297.684-.578 1.061-.597 1.084-.104.137-.271.207-.439.196-.17-.014-.322-.113-.401-.265-.039-.074-.95-1.827-1.053-4.212-.012-.276.202-.509.478-.521.286-.006.509.202.521.478.051 1.172.322 2.187.561 2.87.155-.353.32-.809.443-1.358.051-.229.253-.391.488-.391s.437.162.488.391c.123.55.288 1.006.443 1.358.238-.684.509-1.698.56-2.87.012-.275.249-.482.521-.478.276.012.49.245.478.521-.103 2.385-1.014 4.138-1.052 4.212zm5.5 0c-.08.15-.231.251-.401.265-.169.015-.336-.059-.439-.196-.019-.023-.3-.4-.597-1.084-.297.684-.578 1.061-.597 1.084-.104.137-.27.207-.439.196-.17-.014-.322-.113-.401-.265-.039-.074-.95-1.827-1.053-4.212-.012-.276.202-.509.478-.521.273-.006.509.202.521.478.051 1.172.322 2.187.561 2.87.155-.353.32-.809.443-1.358.051-.229.253-.391.488-.391s.437.162.488.391c.123.55.288 1.006.443 1.358.238-.684.51-1.698.56-2.87.012-.275.235-.513.521-.478.276.012.49.245.479.521-.104 2.385-1.014 4.138-1.053 4.212zm5.481 0c-.08.15-.231.251-.401.265-.169.015-.337-.059-.439-.196-.019-.023-.3-.4-.597-1.084-.297.684-.578 1.061-.597 1.084-.103.137-.271.208-.439.196-.17-.014-.321-.114-.401-.265-.039-.074-.949-1.827-1.053-4.212-.012-.276.202-.509.479-.521.268-.036.509.203.521.478.05 1.172.321 2.187.56 2.87.155-.353.32-.809.442-1.358.052-.229.254-.391.488-.391s.437.162.488.391c.122.55.287 1.006.442 1.358.238-.684.51-1.698.56-2.87.012-.275.243-.513.521-.478.276.012.49.245.479.521-.104 2.385-1.014 4.138-1.053 4.212z"/></svg>