<svg id="Layer_1" viewBox="0 0 24 24" xmlns="http://www.w3.org/2000/svg" data-name="Layer 1"><path d="m12 1c-7.607 0-11 3.393-11 11s3.393 11 11 11 11-3.393 11-11-3.393-11-11-11zm0 19c-.63 0-1.234-1.157-1.601-3h3.25c-.229 1.243-.718 3-1.649 3zm-7.944-9.554c-.012-.142-.03-.278-.036-.425-.006-.137.044-.263.129-.357.087-.096.21-.158.349-.164.273-.014.509.202.521.478.051 1.172.322 2.187.561 2.871.155-.353.32-.809.443-1.358.051-.229.254-.391.488-.391s.437.163.488.391c.123.549.288 1.005.443 1.357.238-.684.509-1.699.56-2.87.012-.276.254-.49.521-.478.276.012.49.245.478.521-.103 2.385-1.014 4.138-1.052 4.212-.085.163-.258.267-.442.267-.156 0-.303-.072-.398-.198-.019-.023-.3-.4-.597-1.084-.297.684-.578 1.061-.597 1.084-.104.137-.268.212-.439.196-.17-.014-.322-.113-.401-.265-.036-.07-.833-1.626-1.017-3.787zm7.944-6.446c.931 0 1.42 1.758 1.649 3h-3.251c.367-1.843.972-3 1.602-3zm1.447 10.233c-.085.163-.258.267-.442.267-.156 0-.303-.072-.398-.198-.019-.023-.3-.4-.597-1.084-.297.684-.578 1.061-.597 1.084-.104.137-.268.212-.439.196-.17-.014-.322-.113-.401-.265-.039-.074-.95-1.827-1.053-4.212-.012-.276.202-.509.478-.521.278-.014.509.202.521.478.051 1.172.322 2.187.561 2.871.155-.353.32-.809.443-1.358.051-.229.254-.391.488-.391s.437.163.488.391c.123.549.288 1.005.443 1.357.238-.684.509-1.699.56-2.87.012-.276.259-.49.521-.478.276.012.49.245.478.521-.103 2.385-1.014 4.138-1.052 4.212zm3.048.267c-.185 0-.357-.104-.442-.267-.039-.074-.949-1.827-1.052-4.212-.012-.276.202-.509.478-.521.285-.014.509.202.521.478.051 1.171.322 2.187.56 2.87.155-.353.32-.809.443-1.357.051-.229.254-.391.488-.391s.437.163.488.391c.123.549.288 1.005.443 1.358.238-.684.51-1.699.561-2.871.013-.276.247-.49.521-.478.139.006.262.069.349.164.085.094.135.22.129.357-.006.147-.024.283-.036.424-.184 2.161-.98 3.718-1.017 3.787-.08.151-.231.251-.401.265-.169.014-.336-.06-.439-.196-.019-.023-.3-.4-.597-1.084-.297.684-.578 1.061-.597 1.084-.095.126-.243.198-.398.198zm2.633-7.5h-2.446c-.144-.936-.336-1.775-.587-2.493 1.433.461 2.414 1.26 3.033 2.493zm-11.144-2.505c-.254.696-.469 1.524-.632 2.505h-2.454c.629-1.24 1.623-2.05 3.085-2.505zm-3.105 12.505h2.473c.164.988.381 1.82.637 2.519-1.477-.456-2.479-1.266-3.11-2.519zm11.22 2.484c.249-.715.44-1.552.583-2.484h2.419c-.618 1.218-1.583 2.024-3.002 2.484z"/></svg>