<?xml version="1.0" encoding="UTF-8"?>
<svg xmlns="http://www.w3.org/2000/svg" id="Layer_1" data-name="Layer 1" viewBox="0 0 24 24">
  <path d="M20.327,2.62c-.22-.521-.656-.938-1.333-1.272-1.969-.974-2.965,.307-3.385,1.155-.39,.788-.455,1.501-.194,2.119,.221,.521,.656,.938,1.332,1.271,.501,.247,.939,.35,1.321,.35,1.117,0,1.751-.872,2.064-1.505,.39-.787,.455-1.5,.194-2.118Z"/>
  <path d="M17.266,7.049l-3.103-1.533c-.223-.118-.49-.151-.751-.074-.002,0-.982,.321-.982,.321-1.261,.396-2.619,.224-3.73-.474-.467-.292-1.085-.151-1.379,.316-.293,.468-.151,1.085,.316,1.379,1.016,.636,2.173,.969,3.349,.985-.775,1.092-1.4,2.289-1.85,3.554-.014,.036-.026,.074-.035,.113-.068,.273-.017,.573,.14,.808,.056,.084,.124,.158,.201,.222,.816,.663,1.488,1.463,1.996,2.377,.951,1.713,1.258,3.713,.848,5.717l-.026,.218-.785-.007h-.009c-.548,0-.995,.442-1,.991-.005,.552,.438,1.004,.991,1.009l3.323,.029h.021c1.303,0,2.368-1.054,2.38-2.359,.005-.552-.438-1.004-.991-1.009h-.009c-.548,0-.995,.441-1,.991-.002,.209-.172,.377-.38,.377h-.004l-.524-.005c.418-2.121,.151-4.316-.755-6.266,.283-.334,.546-.687,.783-1.052l3.359-5.188c.154-.24,.2-.534,.124-.81-.075-.274-.265-.505-.521-.631Z"/>
  <path d="M7.409,19.175c-.144,.073-.309,.045-.422-.054l3.573-2.129c-.354-.256-.656-.59-.873-.981-.116-.208-.243-.408-.381-.6l-3.242,1.932-.655-1.307c-.247-.493-.848-.692-1.342-.445-.493,.247-.693,.848-.445,1.342l1.488,2.971c.417,.83,1.26,1.312,2.133,1.312,.357,0,.72-.081,1.061-.251,.494-.247,.694-.848,.447-1.342-.248-.494-.847-.692-1.342-.447Z"/>
</svg>
