<?xml version="1.0" encoding="UTF-8"?>
<svg xmlns="http://www.w3.org/2000/svg" id="Layer_1" data-name="Layer 1" viewBox="0 0 24 24">
  <ellipse cx="17.114" cy="3.519" rx="2.339" ry="2.369"/>
  <path d="M22.227,18.747c-.536-.129-1.076,.208-1.201,.747-.109,.466-.389,.859-.789,1.105-.386,.237-.838,.309-1.276,.204l-5.099-1.23v-1.245c0-1.442-.496-2.817-1.384-3.889l1.757-1.887-4.692-1.682c.048,.007,.096,.011,.144,.011,.415,0,.802-.26,.945-.674,.161-.465-.042-.968-.457-1.199l5.547,1.947,.389-.418,.319,.389c.721,.877,1.781,1.381,2.907,1.381h.929c.552,0,1-.448,1-1s-.448-1-1-1h-.929c-.526,0-1.022-.237-1.362-.65l-2.465-3.001c-.217-.265-.554-.399-.896-.358-1.988,.246-3.568,1.296-4.602,2.638l-4.072-1.407,.183-.464c.203-.514-.05-1.094-.563-1.297-.513-.204-1.095,.05-1.297,.563l-.214,.544-.927-.32c-.524-.18-1.092,.097-1.272,.619s.097,1.091,.619,1.272l.846,.292-.236,.598c-.203,.514,.048,1.098,.563,1.297,.637,.246,1.142-.17,1.297-.563l.267-.678,3.815,1.318c-.241,.654-.38,1.355-.38,1.995,0,.241,.087,.474,.245,.656l1.874,2.155c.71,.76,1.101,1.759,1.101,2.813v.763l-9.628-2.322c-.535-.129-1.077,.201-1.207,.738-.129,.537,.201,1.077,.738,1.207l16.726,4.035c.289,.07,.581,.104,.87,.104,.673,0,1.335-.186,1.924-.549,.857-.528,1.457-1.364,1.688-2.354,.125-.538-.208-1.076-.747-1.201Z"/>
</svg>
