<svg id="Layer_1" viewBox="0 0 24 24" xmlns="http://www.w3.org/2000/svg" data-name="Layer 1"><path d="m23 17.5c0 3.701-1.799 5.5-5.5 5.5-.829 0-1.5-.672-1.5-1.5s.671-1.5 1.5-1.5c2.033 0 2.5-.468 2.5-2.5 0-.828.671-1.5 1.5-1.5s1.5.672 1.5 1.5zm-9.527-4.027c-2.346 2.345-4.988 3.424-5.1 3.469-.373.151-.806.062-1.09-.23-2.05-2.106-2.973-3.593-4.561-6.189-1.312-2.159-.643-3.951.374-5.305l-1.657-1.657c-.586-.585-.586-1.536 0-2.121.586-.586 1.535-.586 2.121 0l1.657 1.657c1.354-1.016 3.145-1.685 5.302-.375 2.599 1.589 4.085 2.512 6.192 4.562.291.283.382.713.23 1.09-.044.111-1.123 2.754-3.469 5.1zm-3.473-4.973c0-.828-.672-1.5-1.5-1.5s-1.5.672-1.5 1.5.672 1.5 1.5 1.5 1.5-.672 1.5-1.5zm9.928 5.275c.122-.303.088-.646-.09-.918-.196-.301-.993-1.346-1.814-2.167-.632 1.135-1.661 2.721-3.138 4.196-1.489 1.489-3.07 2.516-4.205 3.145.989.989 1.869 1.611 2.183 1.811.273.174.612.206.911.085.08-.032 1.982-.808 3.663-2.489 1.682-1.681 2.457-3.583 2.489-3.663z"/></svg>