<svg id="Layer_1" viewBox="0 0 24 24" xmlns="http://www.w3.org/2000/svg" data-name="Layer 1"><path d="m8.5 18.5c0 .828-.672 1.5-1.5 1.5s-1.5-.672-1.5-1.5.672-1.5 1.5-1.5 1.5.672 1.5 1.5zm-6 1.5c-.828 0-1.5.672-1.5 1.5s.672 1.5 1.5 1.5 1.5-.672 1.5-1.5-.672-1.5-1.5-1.5zm9.5 0c-.828 0-1.5.672-1.5 1.5s.672 1.5 1.5 1.5 1.5-.672 1.5-1.5-.672-1.5-1.5-1.5zm9.5 0c-.828 0-1.5.672-1.5 1.5s.672 1.5 1.5 1.5 1.5-.672 1.5-1.5-.672-1.5-1.5-1.5zm-4.5-3c-.828 0-1.5.672-1.5 1.5s.672 1.5 1.5 1.5 1.5-.672 1.5-1.5-.672-1.5-1.5-1.5zm5.243-6.97c-.168-.042-4.189-1.03-10.243-1.03s-10.074.988-10.243 1.03c-.445.111-.757.511-.757.97v3.615c0 .31.143.602.388.791 1.021.789 2.5.789 3.52 0 .687-.531 1.695-.531 2.382 0 1.021.789 2.5.789 3.52 0 .688-.531 1.696-.531 2.382 0 .51.395 1.135.592 1.76.592s1.25-.197 1.759-.592c.688-.531 1.695-.531 2.382 0 1.019.788 2.5.789 3.52 0 .245-.189.388-.481.388-.791v-3.615c0-.459-.312-.859-.757-.97zm-16.343-2.23c.178.134.39.2.6.2s.423-.066.601-.2c1.023-.768 1.932-1.676 2.699-2.699.5-.624 0-1.627-.8-1.601h-1v-1c0-.829-.671-1.5-1.5-1.5s-1.5.671-1.5 1.5v1h-1c-.8-.026-1.3.976-.8 1.601.768 1.023 1.676 1.932 2.699 2.699zm11 0c.178.134.39.2.601.2s.423-.066.601-.2c1.023-.768 1.932-1.676 2.699-2.699.5-.624 0-1.627-.8-1.601h-1v-1c0-.829-.671-1.5-1.5-1.5s-1.5.671-1.5 1.5v1h-1c-.8-.026-1.3.976-.8 1.601.768 1.023 1.676 1.932 2.699 2.699z"/></svg>