<svg id="Layer_1" viewBox="0 0 24 24" xmlns="http://www.w3.org/2000/svg" data-name="Layer 1"><path d="m7.53 5.36c-.527-2.101-.53-3.312-.53-3.362 0-.552.449-.998 1-.998h.003c.551.001.997.448.997.999-.016-.097.056 1.35.5 2.993.446-1.706.516-3.025.5-2.994.003-.55.45-.997 1-.997.551 0 .998.445.999.996 0 .05-.003 1.261-.53 3.362-.496 1.983-.998 2.949-1.094 3.123-.176.319-.512.518-.876.518s-.7-.198-.876-.518c-.096-.173-.598-1.14-1.094-3.123zm14.712 7.67c-.168-.042-4.188-1.03-10.242-1.03s-10.074.988-10.242 1.03c-.445.111-.758.511-.758.97v3.616c0 .31.144.602.388.791 1.02.788 2.5.788 3.52 0 .688-.532 1.696-.533 2.382 0 1.02.789 2.5.789 3.521 0 .684-.531 1.694-.532 2.38 0 .51.395 1.135.591 1.76.591s1.251-.197 1.762-.592c.684-.531 1.693-.531 2.381 0 1.02.788 2.5.788 3.52 0 .244-.189.388-.481.388-.791v-3.616c0-.459-.313-.859-.758-.97zm-18.747-4.03c2.5 0 2.5-2.906 2.5-4 0-1.529-.139-3.03-.145-3.093-.052-.55-.547-.951-1.089-.902-.55.051-.954.539-.903 1.089.002.015.137 1.474.137 2.907 0 2-.376 2-.5 2s-.5 0-.5-2c0-1.433.135-2.892.137-2.907.051-.55-.354-1.038-.903-1.089-.542-.049-1.037.353-1.089.902-.006.063-.145 1.564-.145 3.093 0 1.094 0 4 2.5 4zm10.194 1.762c.511.328 1.169.316 1.668-.031 1.694-1.18 3.366-2.735 5.073-4.709l.936.757c.296.239.701.289 1.044.132.345-.157.57-.495.584-.874.052-1.435-.101-2.866-.451-4.254-.109-.431-.489-.738-.934-.754-1.432-.05-2.864.101-4.255.453-.367.093-.65.385-.731.755s.054.754.348.992l1.126.909c-1.195 1.374-2.359 2.513-3.515 3.432-.539-.561-1.428-.622-2.036-.118-.64.527-.73 1.472-.203 2.111.218.264.746.814 1.347 1.2zm-11.189 9.238c-.828 0-1.5.672-1.5 1.5s.672 1.5 1.5 1.5 1.5-.672 1.5-1.5-.672-1.5-1.5-1.5zm9.5 0c-.828 0-1.5.672-1.5 1.5s.672 1.5 1.5 1.5 1.5-.672 1.5-1.5-.672-1.5-1.5-1.5zm9.5 0c-.828 0-1.5.672-1.5 1.5s.672 1.5 1.5 1.5 1.5-.672 1.5-1.5-.672-1.5-1.5-1.5z"/></svg>