<svg id="Layer_1" viewBox="0 0 24 24" xmlns="http://www.w3.org/2000/svg" data-name="Layer 1"><path d="m12 11c-2.691 0-4-1.309-4-4 0-2.5 2.972-5.401 3.311-5.724.386-.368.993-.368 1.379 0 .339.323 3.311 3.225 3.311 5.724 0 2.691-1.309 4-4 4zm10.242-.97c-.107-.027-1.797-.44-4.58-.735-.738 2.374-2.701 3.705-5.662 3.705s-4.924-1.331-5.662-3.705c-2.784.295-4.473.708-4.581.735-.445.111-.757.511-.757.97v3.615c0 .31.143.602.388.791 1.021.789 2.5.789 3.52 0 .687-.531 1.695-.531 2.382 0 1.021.789 2.5.789 3.52 0 .688-.531 1.696-.531 2.382 0 .51.395 1.135.592 1.76.592s1.251-.197 1.761-.592c.686-.531 1.696-.531 2.382 0 1.02.789 2.5.789 3.52 0 .244-.189.388-.481.388-.791v-3.615c0-.459-.313-.859-.758-.97zm-15.242 6.97c-.828 0-1.5.672-1.5 1.5s.672 1.5 1.5 1.5 1.5-.672 1.5-1.5-.672-1.5-1.5-1.5zm-4.5 3c-.828 0-1.5.672-1.5 1.5s.672 1.5 1.5 1.5 1.5-.672 1.5-1.5-.672-1.5-1.5-1.5zm9.5 0c-.828 0-1.5.672-1.5 1.5s.672 1.5 1.5 1.5 1.5-.672 1.5-1.5-.672-1.5-1.5-1.5zm9.5 0c-.828 0-1.5.672-1.5 1.5s.672 1.5 1.5 1.5 1.5-.672 1.5-1.5-.672-1.5-1.5-1.5zm-4.5-3c-.828 0-1.5.672-1.5 1.5s.672 1.5 1.5 1.5 1.5-.672 1.5-1.5-.672-1.5-1.5-1.5z"/></svg>