<svg id="Layer_1" viewBox="0 0 24 24" xmlns="http://www.w3.org/2000/svg" data-name="Layer 1"><path d="m17.799 7h-16.598c.701-4.121 3.335-6 8.299-6s7.598 1.879 8.299 6zm-5.799 7v-5h-5v5zm9-12.998c-1.127.007-1.973.516-2 1.999.012.677.197 1.138.491 1.452-.042 2.918-.262 5.128-.387 6.162-.246.115-.525.309-1.014.372-.001-.373-.083-1.634-.105-1.988h-3.985v5s3.999.023 4 0c2.276-.159 3.391-1.279 3.528-1.408.242-.228.401-.53.453-.859.02-.125.452-2.927.511-7.258.304-.313.494-.781.507-1.473-.025-1.453-.877-1.992-2-1.999zm-16 7.998h-3.985c-.022.347-.013 1.54-.015 1.906 0 1.081.036 2.119.094 3.094h3.906zm-2.977 12.278c.073.331.309.602.625.721.109.041 2.718 1.001 6.852 1.001s6.742-.96 6.852-1.001c.316-.119.552-.39.625-.721.028-.127.479-2.21.773-5.278h-16.5c.294 3.068.745 5.151.773 5.278z"/></svg>