<svg id="Layer_1" viewBox="0 0 24 24" xmlns="http://www.w3.org/2000/svg" data-name="Layer 1"><path d="m17.215 14.097c-.056-.125-.137-.238-.238-.331-.03-.028-3.358-2.766-4.977-2.766s-4.946 2.738-4.977 2.766c-.102.093-.183.206-.238.331-.247.554-.762 1.708-.785 4.168.021 1.439.318 2.491.535 3.261.089.316.327.568.638.675.888.306 2.23.768 4.839.799 2.585-.031 3.928-.493 4.815-.799.311-.106.569-.433.658-.749.196-.696.493-1.749.515-3.212-.023-2.436-.538-3.589-.785-4.144zm-5.215 7.503c-.552 0-1-.448-1-1s.448-1 1-1 1 .448 1 1-.448 1-1 1zm1.865-2.938c-.156.156-.36.234-.565.234s-.41-.078-.566-.234c-.604-.604-.863-.604-1.467 0-.312.312-.819.313-1.132 0-.312-.312-.312-.819 0-1.131 1.254-1.253 2.479-1.253 3.732 0 .312.312.312.819 0 1.131zm1.747-1.648c-.15.125-.332.185-.513.185-.229 0-.456-.098-.614-.288-.736-.883-1.549-1.312-2.485-1.312-.845 0-1.712.463-2.508 1.338-.3.328-.805.35-1.13.054-.327-.297-.351-.803-.054-1.13 1.107-1.218 2.384-1.861 3.691-1.861 1.421 0 2.67.635 3.714 1.887.283.339.237.844-.102 1.127zm7.388-2.264c0 2.331-1.285 4.364-3.181 5.438.094-.568.17-1.21.181-1.967-.027-2.851-.656-4.261-.958-4.938-.169-.38-.41-.714-.712-.99-.036-.033-3.787-3.293-6.33-3.293s-6.294 3.26-6.325 3.289c-.308.281-.549.616-.717.994-.302.677-.931 2.087-.958 5.012.016 1.037.155 1.885.312 2.593-1.892-.429-3.312-2.117-3.312-4.138 0-1.336.629-2.573 1.661-3.366-.434-1.071-.661-2.225-.661-3.384 0-4.963 4.038-9 9-9 4.767 0 8.68 3.726 8.981 8.418 1.876 1.129 3.019 3.12 3.019 5.332z"/></svg>