<?xml version="1.0" encoding="UTF-8"?>
<svg xmlns="http://www.w3.org/2000/svg" id="Layer_1" data-name="Layer 1" viewBox="0 0 24 24">
  <path d="M11.994,1C4.819,1,1,5.106,1,12.019c0,6.859,3.851,10.981,11.006,10.981s10.861-3.737,10.994-11.017c-.122-7.037-4.026-10.983-11.006-10.983ZM6.087,9.708c0-.552,.448-1,1-1h2.037c.552,0,1,.448,1,1s-.448,1-1,1h-2.037c-.552,0-1-.448-1-1Zm10.073,6.608c-1.355,1.308-2.771,1.962-4.181,1.962s-2.817-.656-4.147-1.971c-.393-.388-.397-1.021-.009-1.414,.389-.392,1.021-.396,1.414-.009,1.889,1.866,3.596,1.864,5.534-.008,.397-.383,1.032-.371,1.414,.025,.384,.397,.373,1.03-.025,1.414Zm-.259-4.694h-.013c-1.236-.008-1.989-.717-2.012-1.898,.024-1.215,.777-1.92,2.015-1.927,1.229,.007,1.999,.735,2.022,1.899-.024,1.214-.776,1.919-2.012,1.927Z"/>
</svg>
