<svg id="Layer_1" viewBox="0 0 24 24" xmlns="http://www.w3.org/2000/svg" data-name="Layer 1"><path d="m9 7c-5.533 0-8 2.468-8 8s2.467 8 8 8 8-2.468 8-8-2.467-8-8-8zm-2.5 4c.828 0 1.5.672 1.5 1.5s-.672 1.5-1.5 1.5-1.5-.672-1.5-1.5.672-1.5 1.5-1.5zm6.213 6.701c-.86.874-2.074 1.299-3.713 1.299s-2.853-.425-3.713-1.299c-.387-.394-.382-1.026.012-1.414.395-.387 1.027-.383 1.414.012.471.479 1.197.701 2.287.701s1.816-.223 2.287-.701c.388-.395 1.021-.398 1.414-.012.394.388.399 1.021.012 1.414zm-1.213-3.701c-.828 0-1.5-.672-1.5-1.5s.672-1.5 1.5-1.5 1.5.672 1.5 1.5-.672 1.5-1.5 1.5zm11.5-8.5c0 .828-.671 1.5-1.5 1.5h-1.5v1.5c0 .828-.671 1.5-1.5 1.5s-1.5-.672-1.5-1.5v-1.5h-1.5c-.829 0-1.5-.672-1.5-1.5s.671-1.5 1.5-1.5h1.5v-1.5c0-.828.671-1.5 1.5-1.5s1.5.672 1.5 1.5v1.5h1.5c.829 0 1.5.672 1.5 1.5z"/></svg>