<svg id="Layer_1" viewBox="0 0 24 24" xmlns="http://www.w3.org/2000/svg" data-name="Layer 1"><path d="m13.428 12.014c2.372.044 3.972.197 4.784.297.414.051.739.295.824.623.069.268.131.629.131 1.066s-.062.798-.131 1.066c-.085.328-.41.572-.824.623-.254.031-.593.068-1.004.104l3.838 3.838c1.332-1.773 1.954-4.285 1.954-7.632 0-7.71-3.29-11-11-11-3.347 0-5.858.622-7.632 1.954zm.072-7.014c3.446 0 4.138 1.895 4.595 3.148.173.476.323.886.569 1.104.413.367.45.999.083 1.412-.368.414-1.001.449-1.412.083-.623-.554-.887-1.276-1.119-1.914-.417-1.143-.669-1.833-2.716-1.833-.552 0-1-.448-1-1s.448-1 1-1zm-10.546-.632c-1.332 1.773-1.954 4.285-1.954 7.632 0 7.71 3.29 11 11 11 3.347 0 5.858-.622 7.632-1.954zm3.001 11.321c-.414-.051-.739-.295-.824-.623-.069-.268-.131-.629-.131-1.066s.062-.798.131-1.066c.085-.328.41-.572.824-.623.429-.053 1.089-.12 1.954-.179l3.866 3.866c-2.949-.012-4.896-.194-5.821-.308z"/></svg>