<svg id="Layer_1" viewBox="0 0 24 24" xmlns="http://www.w3.org/2000/svg" data-name="Layer 1"><path d="m23.5 18c0 .607-.048 1.197-.144 1.753-.125.731-.759 1.248-1.477 1.248-.919.008-1.645-.848-1.48-1.753.067-.39.101-.81.101-1.247s-.034-.857-.101-1.247c-.14-.816.409-1.592 1.226-1.731.815-.14 1.591.409 1.731 1.226.095.556.144 1.146.144 1.753zm-22.063-2.775c-.044.111-.437 1.128-.437 2.775s.392 2.664.437 2.775c.122.301.382.524.698.598.093.022 2.044.47 5.866.594v-7.934c-3.822.125-5.772.572-5.866.594-.316.074-.576.297-.698.598zm16.429-.598c-.108-.026-2.718-.627-7.866-.627v8c5.148 0 7.757-.601 7.866-.627.316-.074.576-.297.698-.598.044-.111.437-1.128.437-2.775s-.392-2.664-.437-2.775c-.122-.301-.382-.524-.698-.598zm3.634-1.627c.829 0 1.5-.671 1.5-1.5 0-3.175-2.438-3.842-3.747-4.201-.446-.122-1.001-.274-1.165-.437-.177-.177-.327-.641-.473-1.09-.463-1.429-1.24-3.822-5.06-3.822-.829 0-1.5.671-1.5 1.5s.671 1.5 1.5 1.5c1.639 0 1.793.476 2.206 1.748.243.75.519 1.599 1.206 2.285.725.726 1.665.983 2.494 1.209 1.395.382 1.539.504 1.539 1.308 0 .829.671 1.5 1.5 1.5zm-10.177-2.546c.212.653.476 1.466 1.117 2.107.586.586 1.535.586 2.121 0 .586-.585.586-1.536 0-2.121-.131-.131-.266-.546-.384-.912-.4-1.233-1.145-3.528-4.676-3.528-.829 0-1.5.671-1.5 1.5s.671 1.5 1.5 1.5c1.351 0 1.46.337 1.823 1.454z"/></svg>