<?xml version="1.0" encoding="UTF-8"?>
<svg xmlns="http://www.w3.org/2000/svg" id="Layer_1" data-name="Layer 1" viewBox="0 0 24 24">
  <path d="M9.021,18.771c-.732-.388-1.64-.109-2.029,.62-.199,.375-.589,.608-1.017,.608-.633,0-1.147-.51-1.147-1.136s.515-1.136,1.147-1.136h1.491c.829,0,1.5-.672,1.5-1.5s-.671-1.5-1.5-1.5h-1.491c-2.287,0-4.147,1.855-4.147,4.136s1.86,4.136,4.147,4.136c1.54,0,2.945-.843,3.667-2.2,.389-.731,.111-1.64-.621-2.028Z"/>
  <path d="M8.67,10.904v-.467c.359-.124,.687-.314,.971-.554l.403,.237c.016,.574,.21,1.363,.936,2.181,.198,.223,.472,.336,.748,.336,.236,0,.473-.083,.664-.252,.413-.367,.45-.999,.083-1.412-.311-.35-.406-.646-.431-.833,.18-.073,.484-.134,.94-.032,.542,.119,1.074-.219,1.194-.758,.121-.539-.219-1.074-.758-1.194-1.067-.239-1.852-.025-2.362,.24l-.397-.234c.039-.194,.06-.395,.06-.601s-.021-.406-.06-.601l.397-.234c.354,.184,.841,.343,1.463,.343,.273,0,.573-.031,.899-.104,.539-.121,.879-.655,.758-1.194-.12-.539-.652-.874-1.194-.758-.456,.104-.762,.042-.938-.027,.023-.194,.118-.489,.428-.837,.367-.413,.33-1.045-.083-1.412-.413-.367-1.044-.33-1.412,.083-.727,.818-.92,1.607-.936,2.181l-.403,.237c-.284-.24-.612-.429-.971-.553v-.467c.487-.305,1.069-.872,1.406-1.914,.17-.526-.119-1.089-.644-1.259-.528-.169-1.089,.119-1.259,.644-.144,.446-.352,.678-.5,.794-.156-.118-.362-.35-.505-.794-.17-.525-.729-.813-1.259-.644-.525,.17-.814,.733-.644,1.259,.336,1.041,.919,1.608,1.406,1.914v.467c-.359,.124-.687,.313-.971,.553l-.403-.237c-.016-.574-.21-1.363-.936-2.182-.367-.413-.998-.45-1.412-.083-.413,.367-.45,.999-.083,1.412,.311,.35,.405,.646,.431,.832-.181,.074-.484,.135-.941,.032-.539-.115-1.073,.219-1.194,.758-.12,.539,.219,1.074,.758,1.194,.327,.073,.626,.104,.9,.104,.622,0,1.109-.159,1.463-.343l.397,.234c-.039,.194-.06,.395-.06,.601s.021,.406,.06,.601l-.396,.233c-.51-.265-1.295-.479-2.364-.239-.539,.121-.878,.655-.758,1.194,.121,.539,.658,.876,1.194,.758,.458-.102,.763-.041,.938,.027-.023,.194-.118,.489-.428,.837-.367,.413-.33,1.045,.083,1.412,.19,.169,.427,.252,.664,.252,.276,0,.55-.113,.748-.336,.727-.818,.92-1.607,.936-2.182l.403-.237c.284,.24,.612,.429,.971,.554v.467c-.487,.305-1.069,.872-1.406,1.914-.17,.525,.119,1.09,.644,1.259,.53,.171,1.089-.119,1.259-.644,.144-.446,.352-.678,.5-.794,.156,.118,.362,.35,.505,.794,.137,.423,.529,.692,.952,.692,.102,0,.205-.016,.308-.049,.525-.169,.814-.733,.644-1.259-.336-1.041-.919-1.608-1.406-1.914Z"/>
  <path d="M17.644,9.458c-1.649,0-3.143,.975-3.803,2.483-.332,.759,.014,1.643,.772,1.976,.764,.33,1.645-.015,1.976-.773,.183-.417,.597-.686,1.055-.686,.633,0,1.147,.509,1.147,1.135s-.515,1.136-1.147,1.136h-5.322c-.829,0-1.5,.672-1.5,1.5s.671,1.5,1.5,1.5h5.322c2.287,0,4.147-1.855,4.147-4.136s-1.86-4.135-4.147-4.135Z"/>
  <path d="M19.359,1.306c-.955,0-1.848,.376-2.513,1.06-.578,.593-.565,1.543,.027,2.121,.595,.579,1.544,.566,2.121-.028,.056-.057,.177-.152,.364-.152,.278,0,.504,.222,.504,.495s-.226,.495-.504,.495h-2.675c-.828,0-1.5,.671-1.5,1.5s.672,1.5,1.5,1.5h2.675c1.932,0,3.504-1.568,3.504-3.495s-1.572-3.495-3.504-3.495Z"/>
</svg>
