<?xml version="1.0" encoding="UTF-8"?>
<svg xmlns="http://www.w3.org/2000/svg" id="Layer_1" data-name="Layer 1" viewBox="0 0 24 24">
  <path d="M21.665,13.22c-1.819-.412-3.129-.019-3.955,.437l-1.401-.835c.048-.251,.078-.525,.078-.816,0-.296-.031-.573-.081-.826l1.404-.837c.582,.321,1.402,.61,2.471,.61,.45,0,.944-.051,1.483-.173,.808-.183,1.315-.986,1.132-1.794-.183-.809-.99-1.317-1.794-1.132-.926,.209-1.514,.036-1.816-.116,.009-.363,.144-.978,.786-1.708,.546-.623,.485-1.57-.138-2.117-.622-.546-1.57-.485-2.117,.138-1.239,1.411-1.527,2.761-1.53,3.707l-1.695,1.01-.992-.64v-1.956c.808-.486,1.81-1.425,2.381-3.216,.252-.789-.184-1.633-.973-1.885-.788-.255-1.633,.183-1.885,.973-.292,.915-.734,1.343-1.019,1.534-.299-.195-.738-.624-1.028-1.534-.252-.79-1.1-1.228-1.885-.973-.789,.251-1.225,1.096-.973,1.885,.572,1.791,1.574,2.73,2.381,3.216v1.956l-.992,.64-1.695-1.01c-.002-.946-.291-2.296-1.53-3.707-.547-.623-1.494-.685-2.117-.138-.623,.546-.685,1.494-.138,2.117,.645,.735,.778,1.352,.791,1.7-.312,.164-.896,.334-1.821,.125-.806-.185-1.611,.323-1.794,1.132-.183,.808,.324,1.611,1.132,1.794,.539,.122,1.033,.173,1.483,.173,1.069,0,1.89-.29,2.471-.61l1.405,.837c-.05,.253-.081,.53-.081,.825,0,.291,.031,.565,.079,.816l-1.401,.835c-.826-.456-2.135-.848-3.955-.437-.808,.183-1.315,.986-1.132,1.794,.183,.808,.987,1.314,1.794,1.132,.928-.208,1.515-.036,1.816,.116-.009,.363-.144,.978-.786,1.708-.546,.623-.485,1.57,.138,2.117,.285,.25,.637,.373,.989,.373,.417,0,.832-.173,1.128-.511,1.239-1.411,1.527-2.761,1.53-3.707l1.677-.999,1.01,.64v1.945c-.808,.486-1.81,1.425-2.381,3.216-.252,.789,.184,1.633,.973,1.885,.787,.253,1.633-.183,1.885-.973,.292-.915,.734-1.343,1.019-1.534,.299,.195,.738,.624,1.028,1.534,.204,.638,.793,1.044,1.429,1.044,.151,0,.305-.023,.457-.072,.789-.251,1.225-1.096,.973-1.885-.572-1.791-1.574-2.73-2.381-3.216v-1.945l1.01-.64,1.677,.999c.002,.946,.291,2.296,1.53,3.707,.296,.338,.711,.511,1.128,.511,.352,0,.704-.123,.989-.373,.623-.546,.685-1.494,.138-2.117-.645-.735-.778-1.352-.791-1.7,.313-.163,.898-.332,1.821-.125,.804,.184,1.611-.324,1.794-1.132,.183-.808-.324-1.611-1.132-1.794Z"/>
</svg>
