<svg id="Layer_1" viewBox="0 0 24 24" xmlns="http://www.w3.org/2000/svg" data-name="Layer 1"><path d="m16 12c-2.691 0-4-1.309-4-4s1.309-4 4-4 4 1.309 4 4-1.309 4-4 4zm5.585-1.426c-.801 2.205-2.738 3.426-5.585 3.426-3.778 0-5.952-2.152-5.992-5.9-1.338.105-2.378.264-2.472.28-4.052.863-6.535 1.668-6.535 7.119s2.483 6.256 6.581 7.128c.092.015 2.284.372 4.419.372s4.327-.357 4.465-.381c4.052-.863 6.535-1.668 6.535-7.119 0-2.281-.424-3.84-1.415-4.926zm-11.961 3.562c-.88.11-1.732.293-2.593.559-.018.197-.031.46-.031.806 0 .348.014.613.031.81.437.141.826.25 1.198.338.538.127.871.666.744 1.203-.109.46-.52.77-.973.77-.721-.094-1.345-.338-2.186-.61-.306-.106-.542-.355-.632-.667-.12-.417-.184-1.054-.184-1.844s.063-1.428.184-1.844c.09-.312.326-.561.633-.667 1.185-.413 2.35-.687 3.56-.837.553-.068 1.048.321 1.116.868.068.548-.32 1.048-.868 1.116zm-1.624-7.136c-1.99 0-3-1.009-3-3s1.01-3 3-3 3 1.009 3 3-1.01 3-3 3zm13.5-6c-1.071 0-1.5.429-1.5 1.5s.429 1.5 1.5 1.5 1.5-.429 1.5-1.5-.429-1.5-1.5-1.5z"/></svg>