<svg id="Layer_1" viewBox="0 0 24 24" xmlns="http://www.w3.org/2000/svg" data-name="Layer 1"><path d="m12 8c-.917 0-1.776.008-2.584.022.293-3.638.657-6.121.796-6.996.583-.015 1.177-.026 1.788-.026s1.205.011 1.788.026c.139.875.503 3.358.796 6.996-.808-.014-1.667-.022-2.584-.022zm-10.862 2.48c-.257 2.861-.08 4.639-.071 4.73.04.38.318.699.706.809.1.029 1.845.51 5.239.788.03-2.478.124-4.731.249-6.728-3.199.109-5.247.304-6.123.402zm21.485-2.039c-.555-4.025-2.041-6.386-2.186-6.569-.158-.23-.414-.384-.701-.422-.947-.125-2.317-.254-3.909-.342.178 1.164.509 3.573.774 6.963 2.92.093 4.921.257 6.022.37zm.239 2.039c-.876-.098-2.924-.293-6.123-.402.125 1.998.219 4.251.249 6.728 3.393-.278 5.138-.759 5.239-.788.388-.11.667-.429.706-.809.01-.091.186-1.869-.071-4.73zm-14.688-9.372c-1.593.088-2.962.217-3.909.342-.288.038-.543.192-.701.422-.143.176-1.633 2.55-2.186 6.569 1.101-.113 3.103-.277 6.022-.37.266-3.39.596-5.799.774-6.963zm7.734 18.949c-.763-.231-1.577-.381-2.408-.468v-2.607c.518-.012 1.015-.029 1.489-.05-.03-2.544-.129-4.864-.261-6.907-.849-.016-1.756-.025-2.728-.025s-1.879.009-2.728.025c-.132 2.043-.231 4.363-.261 6.907.474.022.971.039 1.489.05v2.607c-.831.086-1.645.237-2.408.468-.793.24-1.254 1.081-1.015 1.873.237.801 1.085 1.245 1.856 1.007.962-.292 2.017-.436 3.065-.437h.001s0 0 .001 0c1.048 0 2.103.144 3.065.437.771.238 1.618-.206 1.856-1.007.239-.792-.222-1.633-1.015-1.873z"/></svg>