<svg id="Layer_1" viewBox="0 0 24 24" xmlns="http://www.w3.org/2000/svg" data-name="Layer 1"><path d="m7.247 12h-5.806c.228-1.284.477-2.303.56-2.633.101-.399.437-.696.846-.747 1.084-.135 2.79-.322 4.737-.456-.139 1.335-.248 2.606-.337 3.835zm7.501 0c-.084-1.262-.225-2.575-.342-3.946-.791-.032-1.598-.054-2.406-.054s-1.615.021-2.406.054c-.117 1.371-.258 2.684-.342 3.946zm2.005 0h5.806c-.228-1.284-.477-2.303-.56-2.633-.101-.399-.437-.696-.846-.747-1.084-.135-2.79-.322-4.737-.456.139 1.335.248 2.606.337 3.835zm-9.634 2h-5.974c-.087.757-.145 1.53-.145 2.259 0 .496.364.918.855.989.137.02 2.296.332 5.148.547.004-1.183.046-2.457.116-3.795zm15.735 0h-5.975c.07 1.339.112 2.613.116 3.795 2.853-.216 5.012-.527 5.148-.547.491-.071.855-.493.855-.989 0-.728-.058-1.502-.145-2.259zm-7.355 6h-2v-2.04c.501-.014 1.012-.016 1.499-.04-.002-1.214-.046-2.532-.12-3.921h-5.756c-.075 1.388-.119 2.706-.12 3.921.487.024.997.026 1.498.04v2.04s-1.999 0-1.999 0c-.829 0-1.5.672-1.5 1.5s.671 1.5 1.5 1.5h7c.829 0 1.5-.672 1.5-1.5s-.671-1.5-1.5-1.5zm-8.248-14.201.564.325s1.685-.121 4.185-.121 4.186.121 4.186.121l.564-.325c.718-.414.964-1.331.55-2.049-.414-.717-1.331-.963-2.049-.549l-.731.422c-.295-.19-.637-.334-1.02-.438v-.685c0-.828-.671-1.5-1.5-1.5s-1.5.672-1.5 1.5v.685c-.383.104-.725.247-1.02.437l-.731-.422c-.715-.414-1.634-.168-2.049.549-.414.718-.168 1.635.55 2.049z"/></svg>