<svg id="Layer_1" viewBox="0 0 24 24" xmlns="http://www.w3.org/2000/svg" data-name="Layer 1"><path d="m10.7 5.1c.498.663.363 1.603-.3 2.1-.656.494-1.6.367-2.1-.3-.25-.333-.526-.645-.8-.957v15.557c0 .829-.671 1.5-1.5 1.5s-1.5-.671-1.5-1.5v-15.557c-.275.312-.55.623-.8.957-.497.664-1.438.797-2.1.3-.663-.497-.797-1.437-.3-2.1 1.081-1.441 2.359-2.719 3.8-3.8.533-.4 1.267-.4 1.8 0 1.441 1.081 2.719 2.359 3.8 3.8zm11.316 10.251c-.108-.036-1.109-.351-3.016-.351s-2.908.315-3.016.351c-.334.111-.585.39-.661.734-.013.06-.323 1.489-.323 2.915s.31 2.854.323 2.915c.075.344.326.623.661.734.108.036 1.109.351 3.016.351s2.908-.315 3.016-.351c.334-.111.585-.39.661-.734.013-.06.323-1.489.323-2.915s-.31-2.854-.323-2.915c-.075-.344-.326-.623-.661-.734zm-.1-4.802c.334-.111.585-.39.661-.734.018-.079.423-1.95.423-3.814s-.406-3.736-.423-3.814c-.075-.344-.326-.623-.661-.734-.138-.046-1.426-.451-3.916-.451s-3.778.405-3.916.451c-.334.111-.585.39-.661.734-.018.079-.423 1.95-.423 3.814s.406 3.736.423 3.814c.075.344.326.623.661.734.138.046 1.426.451 3.916.451s3.778-.405 3.916-.451z"/></svg>