<?xml version="1.0" encoding="UTF-8"?>
<svg xmlns="http://www.w3.org/2000/svg" id="Layer_1" data-name="Layer 1" viewBox="0 0 24 24">
  <g>
    <path d="M12.794,4.001h-1.964c-.829,0-1.5-.671-1.5-1.5s.671-1.5,1.5-1.5h1.964c.829,0,1.5,.671,1.5,1.5s-.671,1.5-1.5,1.5Z"/>
    <path d="M15.62,7.938h-4.79c-.829,0-1.5-.671-1.5-1.5s.671-1.5,1.5-1.5h4.79c.829,0,1.5,.671,1.5,1.5s-.671,1.5-1.5,1.5Z"/>
    <path d="M18.446,11.876h-7.616c-.829,0-1.5-.671-1.5-1.5s.671-1.5,1.5-1.5h7.616c.829,0,1.5,.671,1.5,1.5s-.671,1.5-1.5,1.5Z"/>
    <path d="M21.272,15.813H10.831c-.829,0-1.5-.671-1.5-1.5s.671-1.5,1.5-1.5h10.441c.829,0,1.5,.671,1.5,1.5s-.671,1.5-1.5,1.5Z"/>
  </g>
  <path d="M10.181,16.571c-.737-.376-1.641-.083-2.018,.655-.179,.351-.364,.663-.55,.938V2.503c0-.829-.671-1.5-1.5-1.5s-1.5,.671-1.5,1.5v15.661c-.185-.275-.37-.586-.549-.937-.376-.739-1.28-1.031-2.018-.655-.738,.376-1.031,1.279-.655,2.018,1.674,3.285,3.936,4.225,4.19,4.316,.483,.174,.893,.065,1.064,0,.252-.096,2.516-1.031,4.19-4.316,.376-.738,.083-1.641-.655-2.018Z"/>
</svg>
