<?xml version="1.0" encoding="UTF-8"?>
<svg xmlns="http://www.w3.org/2000/svg" id="Layer_1" data-name="Layer 1" viewBox="0 0 24 24">
  <path d="M11.896,7.43c.737,.376,1.641,.083,2.018-.655,.179-.351,.364-.663,.55-.938v15.661c0,.829,.671,1.5,1.5,1.5s1.5-.671,1.5-1.5V5.838c.185,.275,.37,.586,.549,.937,.376,.739,1.28,1.031,2.018,.655,.738-.376,1.031-1.279,.655-2.018-1.674-3.285-3.936-4.225-4.19-4.316-.483-.174-.893-.065-1.064,0-.252,.096-2.516,1.031-4.19,4.316-.376,.738-.083,1.641,.655,2.018Z"/>
  <path d="M12.104,16.57c-.737-.376-1.641-.083-2.018,.655-.179,.351-.364,.663-.55,.938V2.502c0-.829-.671-1.5-1.5-1.5s-1.5,.671-1.5,1.5v15.661c-.185-.275-.37-.586-.549-.937-.376-.739-1.28-1.031-2.018-.655-.738,.376-1.031,1.279-.655,2.018,1.674,3.285,3.936,4.225,4.19,4.316,.483,.174,.893,.065,1.064,0,.252-.096,2.516-1.031,4.19-4.316,.376-.738,.083-1.641-.655-2.018Z"/>
</svg>
