<svg id="Layer_1" viewBox="0 0 24 24" xmlns="http://www.w3.org/2000/svg" data-name="Layer 1"><path d="m7.171 1.158c-.422-.211-.92-.211-1.342 0-.25.125-2.495 1.32-4.171 4.671-.37.741-.07 1.642.671 2.013.742.369 1.643.07 2.013-.671.124-.247.253-.455.381-.671h.277v15c0 .829.672 1.5 1.5 1.5s1.5-.671 1.5-1.5v-15h.277c.128.215.258.424.381.671.263.525.793.83 1.343.83.226 0 .454-.051.67-.159.741-.371 1.041-1.271.671-2.013-1.676-3.35-3.921-4.545-4.171-4.671z"/><path d="m12.915 8.729c.072.052 1.794 1.271 4.59 1.271 2.767 0 4.479-1.121 4.55-1.168.352-.234.518-.665.415-1.075-.995-3.98-3.798-6.149-4.376-6.562-.339-.25-.799-.261-1.148-.027-.136.09-3.332 2.262-4.414 6.503-.102.398.051.818.384 1.058z"/><path d="m21.997 14.171c-.099-.327-.357-.581-.687-.674-.072-.02-1.794-.497-3.811-.497s-3.739.477-3.811.498c-.328.092-.586.345-.686.67-.021.067-.504 1.673-.504 3.832 0 2.14.482 3.761.503 3.829.099.327.357.581.687.674.072.02 1.794.497 3.811.497s3.739-.477 3.811-.498c.328-.092.586-.345.686-.67.021-.067.504-1.673.504-3.832 0-2.14-.482-3.761-.503-3.829z"/></svg>