<svg id="Layer_1" viewBox="0 0 24 24" xmlns="http://www.w3.org/2000/svg" data-name="Layer 1"><path d="m12 1c-7.71 0-11 3.29-11 11s3.29 11 11 11 11-3.29 11-11-3.29-11-11-11zm4.813 14c-1.115 1.557-2.523 2.82-4.308 3.863-.312.182-.698.182-1.01 0-1.786-1.044-3.195-2.308-4.31-3.863-.418-.551-.09-1.421.589-1.557.078-.018 1.949-.443 4.226-.443s4.146.426 4.224.443c.679.136 1.007 1.006.589 1.557zm-.588-4.443c-.078.018-1.947.443-4.224.443s-4.147-.426-4.226-.443c-.679-.136-1.007-1.006-.589-1.557 1.114-1.556 2.523-2.819 4.31-3.863.312-.182.697-.182 1.01 0 1.784 1.043 3.192 2.307 4.308 3.863.418.551.09 1.421-.589 1.557zm-2.119 4.568c-.615.63-1.313 1.193-2.105 1.702-.793-.509-1.492-1.073-2.106-1.701 1.21-.141 3-.14 4.212 0z"/></svg>