<svg id="Layer_1" viewBox="0 0 24 24" xmlns="http://www.w3.org/2000/svg" data-name="Layer 1"><path d="m12 1c-7.71 0-11 3.29-11 11s3.29 11 11 11 11-3.29 11-11-3.29-11-11-11zm4.813 14c-1.114 1.556-2.522 2.819-4.307 3.863-.313.182-.697.182-1.01 0-1.787-1.045-3.196-2.309-4.309-3.863-.419-.551-.09-1.42.588-1.557.079-.018 1.95-.443 4.226-.443s4.146.426 4.224.443c.678.136 1.007 1.006.588 1.557zm.123-5.064c-.118.312-.385.546-.71.621-.079.018-1.948.443-4.224.443s-4.147-.426-4.226-.443c-.678-.136-1.008-1.006-.588-1.557 1.113-1.555 2.522-2.818 4.309-3.863.312-.182.697-.182 1.01 0 1.785 1.044 3.193 2.308 4.307 3.863.195.271.241.623.123.936z"/></svg>