<svg id="Layer_1" viewBox="0 0 24 24" xmlns="http://www.w3.org/2000/svg" data-name="Layer 1"><path d="m2.015 6.999c1.496-3.453 4.702-4.999 9.985-4.999s8.489 1.546 9.985 4.999c-2.718.503-6.827 1.016-9.985 1.001-3.154.016-7.272-.499-9.985-1.001zm2.985 6.001c0-1.301.094-2.443.277-3.469-1.617-.207-2.982-.44-3.872-.608-.269 1.193-.405 2.544-.405 4.077v6.889c0 .47.327.876.786.977.104.023 1.368.297 3.214.569zm2.266-3.246c-.178.938-.266 2.008-.266 3.246v8.694c.638.072 1.308.136 2 .187v-3.882c0-1.991 1.009-3 3-3s3 1.009 3 3v3.882c.692-.051 1.362-.115 2-.187v-8.694c0-1.238-.088-2.308-.266-3.246-1.498.145-3.115.246-4.734.246s-3.236-.102-4.734-.246zm11.456-.223c.184 1.026.278 2.168.278 3.469v8.435c1.847-.273 3.111-.547 3.215-.57.458-.101.785-.507.785-.977v-6.889c0-1.533-.136-2.884-.405-4.077-.89.167-2.255.401-3.872.608zm-5.722 8.469c0-.878-.122-1-1-1s-1 .122-1 1v3.985c.333.009.666.015 1 .015s.667-.006 1-.015z"/></svg>