<svg id="Layer_1" viewBox="0 0 24 24" xmlns="http://www.w3.org/2000/svg" data-name="Layer 1"><path d="m21.994 17.616c-.074.827-.82 1.435-1.632 1.356-1.224-.113-2.62-.669-3.14-2.418-.386.209-.793.381-1.18.543.021 2.381.77 2.816 2.533 2.905.828.042 1.465.746 1.423 1.574-.04.801-.703 1.424-1.497 1.424-.025 0-.051 0-.076-.002-3.316-.167-5.055-1.842-5.33-5.073-.366.045-.73.075-1.094.075s-.729-.03-1.094-.075c-.275 3.231-2.014 4.906-5.33 5.073-.025.001-.051.002-.076.002-.794 0-1.457-.623-1.497-1.424-.042-.828.595-1.532 1.423-1.574 1.763-.089 2.511-.524 2.533-2.905-.387-.162-.794-.335-1.18-.543-.52 1.75-1.916 2.306-3.14 2.418-.813.079-1.558-.528-1.632-1.356-.075-.825.531-1.555 1.356-1.631.54-.05.638-.059.638-.985v-3.007c0-.919-.085-.927-.638-.978-.825-.076-1.432-.806-1.356-1.631s.804-1.432 1.632-1.356c1.222.112 2.616.666 3.138 2.406.619-.33 1.274-.599 1.882-.816-.516-.71-.955-1.405-1.306-1.973-.151-.245-.283-.458-.408-.648-1.951-.02-2.944-1.025-2.944-2.996 0-1.991 1.01-3 3-3s3 1.009 3 3c0 .667-.124 1.214-.349 1.66.082.13.165.264.255.41.547.886 1.227 1.989 2.085 2.904.003.004.004.009.008.012h.004s.004-.009.008-.012c.858-.916 1.538-2.018 2.085-2.904.09-.146.173-.279.255-.41-.226-.446-.349-.993-.349-1.66 0-1.991 1.01-3 3-3s3 1.009 3 3c0 1.971-.993 2.976-2.944 2.996-.124.19-.257.404-.408.648-.351.568-.79 1.264-1.306 1.973.608.217 1.263.486 1.882.816.522-1.74 1.916-2.293 3.138-2.406.828-.081 1.555.531 1.632 1.356.075.825-.531 1.555-1.356 1.631-.553.051-.638.059-.638.978v3.007c0 .926.098.935.638.985.825.076 1.432.806 1.356 1.631z"/></svg>