<svg id="Layer_1" viewBox="0 0 24 24" xmlns="http://www.w3.org/2000/svg" data-name="Layer 1"><path d="m22.379 2.572c-.057-.396-.346-.722-.733-.825-.115-.03-2.841-.747-5.146-.747s-5.03.717-5.146.747c-.388.104-.676.429-.733.825-.025.179-.622 4.414-.622 9.428s.596 9.249.622 9.428c.057.396.345.722.733.825.115.03 2.841.747 5.146.747s5.03-.717 5.146-.747c.388-.104.677-.429.733-.825.025-.179.621-4.414.621-9.428s-.596-9.249-.621-9.428zm-5.879 3.428c1.429 0 2 .571 2 2s-.571 2-2 2-2-.571-2-2 .571-2 2-2zm0 12c-1.99 0-3-1.01-3-3s1.01-3 3-3 3 1.01 3 3-1.01 3-3 3zm1-3c0 .879-.121 1-1 1s-1-.121-1-1 .121-1 1-1 1 .121 1 1zm-10-1c.223 0 .396.008.532.034.02.662.048 1.299.081 1.908-.146.043-.339.058-.613.058-.879 0-1-.121-1-1s.121-1 1-1zm1.588 8.906c-.528.057-1.068.094-1.588.094-2.305 0-5.03-.717-5.146-.747-.388-.104-.676-.429-.733-.825-.025-.179-.622-4.414-.622-9.428s.597-9.249.623-9.428c.057-.396.345-.722.733-.825.115-.03 2.841-.747 5.146-.747.52 0 1.06.038 1.588.094-.228.355-.384.76-.446 1.197-.015.105-.222 1.584-.397 3.786-.219-.048-.46-.077-.745-.077-1.429 0-2 .571-2 2s.571 2 2 2c.194 0 .369-.013.532-.034-.02.659-.032 1.339-.032 2.034v.034c-.162-.016-.323-.034-.5-.034-1.99 0-3 1.01-3 3s1.01 3 3 3c.268 0 .514-.022.746-.058.175 2.192.38 3.663.395 3.769.062.435.219.84.447 1.195z"/></svg>