<svg id="Layer_1" viewBox="0 0 24 24" xmlns="http://www.w3.org/2000/svg" data-name="Layer 1"><path d="m12 1c-7.71 0-11 3.29-11 11 0 2.44.332 4.434 1.027 6.025.062-1.217.224-2.119.314-2.537.247-1.424 1.5-2.486 2.953-2.486.6 0 1.16.189 1.642.505.476-.318 1.048-.505 1.662-.505.586 0 1.13.176 1.592.467.051-.032.107-.056.16-.085-.236-.32-.35-.768-.35-1.385 0-1.429.571-2 2-2 .201 0 .38.014.548.038l3.245-3.245c.391-.391 1.023-.391 1.414 0s.391 1.023 0 1.414l-3.245 3.245c.023.168.038.347.038.548 0 .455-.066.815-.191 1.105.987.144 1.756.437 2.342.821.182-.188.379-.361.609-.498.688-.41 1.494-.529 2.27-.336 1.599.4 2.579 2.029 2.183 3.631 0 0-.212.928-.212 2.277 0 .24.008.461.019.672 1.352-1.776 1.981-4.301 1.981-7.672 0-7.71-3.29-11-11-11zm.926 6.032c-.293-.021-.602-.032-.926-.032-3.41 0-4.759 1.05-4.97 4.071-.036.521-.469.929-.991.929-.583 0-1.044-.504-.999-1.086.314-4.079 2.497-5.914 6.96-5.914.376 0 .734.013 1.074.038.551.041.964.521.923 1.071-.041.551-.527.96-1.071.923zm-.462 7.97s-.601-.006-.726.002c-.483.026-.867.393-.932.856-.076.344-.306 1.519-.306 3.14 0 1.9.316 3.187.33 3.24.132.54.689.86 1.21.728.535-.133.862-.675.73-1.21-.002-.007-.106-.439-.185-1.16 3.049-.068 3.511-1.817 3.511-2.868 0-2.714-2.73-2.725-3.633-2.728zm.042 3.597c.017-.646.074-1.192.13-1.595 1.462.028 1.462.353 1.462.726 0 .339 0 .848-1.592.869zm6.765-2.356c-.003.012-.271 1.121-.271 2.758s.268 2.746.271 2.758c.131.535-.195 1.077-.73 1.21-.521.132-1.078-.188-1.21-.728-.013-.054-.33-1.34-.33-3.24s.316-3.187.33-3.24c.151-.531.679-.864 1.281-.695.496.139.76.693.66 1.178zm-9.673-.24c0 .986-.382 2.24-1.174 3.139.431.585.916 1.464 1.154 2.661.108.542-.243 1.068-.785 1.177-.528.11-1.071-.24-1.176-.784-.193-.966-.591-1.612-.901-1.995-.207.051-.428.08-.658.09.079.899.211 1.46.213 1.468.131.535-.195 1.077-.73 1.21-.521.132-1.078-.188-1.21-.728-.013-.054-.33-1.34-.33-3.24 0-1.622.23-2.798.306-3.14.068-.485.483-.858.987-.858h.007c.308 0 .599.142.788.385.189.242.257.559.182.857-.002.008-.192.805-.251 2.036 1.096-.103 1.578-1.53 1.578-2.279 0-.553.448-1 1-1s1 .447 1 1z"/></svg>