<svg id="Layer_1" viewBox="0 0 24 24" xmlns="http://www.w3.org/2000/svg" data-name="Layer 1"><path d="m23.449 11.527c-1.21-3.645-2.999-6.845-5.317-9.512-.218-.25-.512-.422-.838-.486-.108-.021-2.675-.529-5.294-.529s-5.186.508-5.294.529c-.326.064-.62.236-.838.486-2.319 2.668-4.107 5.868-5.317 9.512-.102.307-.102.639 0 .945 1.21 3.645 2.999 6.845 5.317 9.512.218.25.512.422.838.486.108.021 2.675.529 5.294.529s5.186-.508 5.294-.529c.326-.064.62-.236.838-.486 2.319-2.667 4.107-5.867 5.317-9.512.102-.307.102-.639 0-.945zm-5.5-.564c-.539-1.403-1.248-2.67-2.116-3.785l1.059-1.887c1.269 1.693 2.308 3.571 3.138 5.672zm-7.656 0h-2.096c.3-.672.646-1.298 1.04-1.883l1.057 1.883zm.661-2.909c.331-.031.688-.054 1.047-.054s.716.024 1.047.054l-1.047 1.865zm-.661 4.909-1.078 1.921c-.398-.596-.746-1.234-1.047-1.921h2.126zm1.708 1.042 1.087 1.937c-.342.032-.714.057-1.087.057s-.746-.025-1.087-.057zm1.708-1.042h2.126c-.302.686-.649 1.325-1.047 1.921l-1.078-1.921zm0-2 1.057-1.883c.394.585.74 1.21 1.04 1.883h-2.096zm1.485-6.731-1.084 1.932c-.541-.077-1.315-.164-2.108-.164s-1.567.086-2.108.164l-1.084-1.932c.883-.117 2.041-.232 3.192-.232s2.309.115 3.192.232zm-8.084 1.058 1.059 1.887c-.869 1.115-1.577 2.382-2.117 3.785h-2.082c.83-2.102 1.869-3.979 3.138-5.672zm-3.168 7.672h2.082c.538 1.419 1.247 2.701 2.12 3.828l-1.059 1.887c-1.273-1.705-2.314-3.596-3.143-5.714zm4.827 6.8 1.085-1.932c.542.079 1.336.169 2.147.169s1.605-.091 2.147-.169l1.085 1.932c-.888.118-2.063.237-3.232.237s-2.344-.119-3.232-.237zm8.148-1.085-1.059-1.887c.873-1.127 1.583-2.409 2.12-3.828h2.082c-.83 2.118-1.87 4.01-3.143 5.715z"/></svg>