<svg id="Layer_1" viewBox="0 0 24 24" xmlns="http://www.w3.org/2000/svg" data-name="Layer 1"><path d="m23 21.241v.259c0 .829-.672 1.5-1.5 1.5s-1.5-.671-1.5-1.5v-.262c.003-3.245-.158-5.534-2.076-6.488.044.395.076.803.076 1.25 0 4.15-1.851 6-6 6s-6-1.85-6-6c0-.447.032-.855.076-1.25-1.916.954-2.077 3.242-2.075 6.486v.264c0 .829-.672 1.5-1.5 1.5s-1.5-.671-1.5-1.5v-.261c-.002-2.788.006-6.76 3.01-8.761-.664-.102-1.365-.283-2.102-.599-.762-.327-1.114-1.208-.788-1.97.327-.762 1.208-1.115 1.97-.788.646.277 1.251.407 1.798.446-1.97-1.363-2.947-3.702-2.947-7.067 0-.829.672-1.5 1.5-1.5s1.5.671 1.5 1.5c0 3.722 1.228 5.238 4.593 5.465-.349-.487-.534-1.136-.534-1.965 0-1.991 1.009-3 3-3s3 1.009 3 3c0 .83-.186 1.479-.534 1.965 3.365-.228 4.593-1.743 4.593-5.465 0-.829.672-1.5 1.5-1.5s1.5.671 1.5 1.5c0 3.365-.977 5.705-2.948 7.067.547-.039 1.152-.168 1.799-.446.761-.326 1.643.027 1.97.788.326.761-.026 1.643-.788 1.97-.736.316-1.437.497-2.102.599 3.005 2.001 3.013 5.975 3.011 8.763z"/></svg>