<svg id="Layer_1" viewBox="0 0 24 24" xmlns="http://www.w3.org/2000/svg" data-name="Layer 1"><path d="m21.977 2.786c-.083-.381-.381-.679-.762-.762-.19-.042-4.713-1.023-9.214-1.023s-9.025.98-9.215 1.022c-.381.083-.679.381-.762.762-.042.19-1.023 4.713-1.023 9.214s.981 9.024 1.023 9.215c.083.381.381.679.762.762.19.042 4.713 1.023 9.214 1.023s9.024-.981 9.214-1.023c.381-.083.679-.381.762-.762.042-.19 1.023-4.714 1.023-9.215s-.981-9.024-1.023-9.214zm-7.124 5.38c-.74-.11-1.448-.166-2.103-.166-.973 0-1.898.123-2.49.222-.086.647-.202 1.705-.243 2.91 1.024-.091 2.568-.177 4.063-.058.55.044.961.526.917 1.077-.044.55-.511.96-1.077.917-1.451-.116-2.974-.017-3.893.071.081 1.968.334 3.693.337 3.713.082.547-.294 1.056-.841 1.138-.534.082-1.057-.291-1.137-.841-.016-.105-.386-2.604-.386-5.148 0-2.558.375-4.708.39-4.799.069-.394.367-.708.756-.8.07-.016 1.731-.401 3.604-.401.753 0 1.56.063 2.397.188.546.082.923.59.842 1.136-.082.547-.595.919-1.136.842z"/></svg>