<svg id="Layer_1" viewBox="0 0 24 24" xmlns="http://www.w3.org/2000/svg" data-name="Layer 1"><path d="m21.977 2.786c-.083-.381-.381-.679-.762-.762-.19-.042-4.714-1.023-9.215-1.023s-9.024.98-9.214 1.022c-.381.083-.679.381-.762.762-.042.19-1.023 4.713-1.023 9.214s.981 9.024 1.023 9.214c.083.381.381.679.762.762.19.042 4.713 1.023 9.214 1.023s9.024-.981 9.215-1.023c.381-.083.679-.381.762-.762.042-.19 1.023-4.713 1.023-9.214s-.981-9.024-1.023-9.214zm-5.807 14.865c-1.347.232-2.722.348-4.115.348s-2.798-.115-4.215-.346c-.395-.064-.713-.357-.81-.745s.046-.795.364-1.038c3.96-3.016 6.557-6.085 6.606-6.874 0-.51 0-.996-2-.996-1.716 0-2.148.521-2.152.527-.248.493-.825.653-1.318.407-.494-.247-.671-.887-.424-1.381.13-.259.927-1.553 3.895-1.553.989 0 4 0 4 3 0 1.918-3.334 5.075-5.527 6.945 1.822.123 3.617.033 5.357-.265.555-.097 1.062.272 1.155.816.094.544-.271 1.062-.815 1.155z"/></svg>