<svg id="Layer_1" viewBox="0 0 24 24" xmlns="http://www.w3.org/2000/svg" data-name="Layer 1"><path d="m21.977 2.786c-.083-.381-.381-.679-.762-.762-.19-.042-4.713-1.023-9.214-1.023s-9.025.98-9.215 1.022c-.381.083-.679.381-.762.762-.042.19-1.023 4.713-1.023 9.214s.981 9.024 1.023 9.215c.083.381.381.679.762.762.19.042 4.713 1.023 9.214 1.023s9.024-.981 9.214-1.023c.381-.083.679-.381.762-.762.042-.19 1.023-4.714 1.023-9.215s-.981-9.024-1.023-9.214zm-9.977 15.214c-4.481 0-5-3.424-5-6s.519-6 5-6c2.375 0 3.863.918 4.549 2.806.188.519-.08 1.093-.599 1.281-.52.189-1.093-.08-1.281-.599-.324-.894-.902-1.488-2.669-1.488-1.99 0-3 .619-3 4s1.01 4 3 4c1.672 0 2.452-.491 2.792-1.881-.518-.064-1.143-.119-1.792-.119-.552 0-1-.447-1-1s.448-1 1-1c1.301 0 2.507.188 3.11.301.492.092.84.533.815 1.033-.248 3.072-1.928 4.695-4.926 4.666z"/></svg>