<svg id="Layer_1" viewBox="0 0 24 24" xmlns="http://www.w3.org/2000/svg" data-name="Layer 1"><path d="m21.977 2.785c-.075-.344-.326-.622-.66-.733-.129-.043-3.224-1.052-9.316-1.052s-9.189 1.009-9.317 1.052c-.334.111-.585.39-.66.733-.042.19-1.023 4.714-1.023 9.215s.981 9.024 1.023 9.215c.075.344.326.622.66.733.129.043 3.224 1.052 9.316 1.052s9.188-1.009 9.316-1.052c.334-.111.585-.39.66-.733.042-.19 1.023-4.714 1.023-9.215s-.981-9.024-1.023-9.215zm-9.977 2.215c.828 0 1.5.672 1.5 1.5s-.672 1.5-1.5 1.5-1.5-.672-1.5-1.5.672-1.5 1.5-1.5zm2 13c0 .553-.448 1-1 1s-1-.447-1-1v-5.891c-.852.195-1.281.587-1.304.609-.399.373-1.03.362-1.408-.029-.379-.393-.38-1.011.005-1.396.132-.133 1.36-1.293 3.707-1.293.552 0 1 .447 1 1z"/></svg>