<svg id="Layer_1" viewBox="0 0 24 24" xmlns="http://www.w3.org/2000/svg" data-name="Layer 1"><path d="m21.977 2.786c-.083-.381-.381-.679-.762-.762-.19-.042-4.714-1.023-9.215-1.023s-9.024.98-9.215 1.022c-.381.083-.679.381-.762.762-.042.19-1.023 4.713-1.023 9.214s.981 9.024 1.023 9.215c.083.381.381.679.762.762.19.042 4.714 1.023 9.215 1.023s9.024-.981 9.215-1.023c.381-.083.679-.381.762-.762.042-.19 1.023-4.714 1.023-9.215s-.981-9.024-1.023-9.214zm-10.372 15.214c-2.152 0-3.479-.882-4.058-2.696-.167-.526.124-1.089.649-1.257.529-.169 1.089.124 1.257.649.256.805.705 1.304 2.151 1.304 1.311 0 2.396-.264 2.396-3.5 0-2.408-.354-5.35-.357-5.379-.066-.548.324-1.047.873-1.113.551-.066 1.046.324 1.113.872.015.125.371 3.089.371 5.621 0 1.36 0 5.5-4.396 5.5z"/></svg>