<svg id="Layer_1" viewBox="0 0 24 24" xmlns="http://www.w3.org/2000/svg" data-name="Layer 1"><path d="m21.977 2.785c-.083-.381-.381-.679-.762-.762-.19-.042-4.714-1.023-9.215-1.023s-9.024.981-9.214 1.023c-.381.083-.679.381-.762.762-.042.19-1.023 4.714-1.023 9.215s.981 9.024 1.023 9.215c.083.381.381.679.762.762.19.042 4.713 1.023 9.214 1.023s9.024-.981 9.215-1.023c.381-.083.679-.381.762-.762.042-.19 1.023-4.714 1.023-9.215s-.981-9.024-1.023-9.215zm-4.934 15.214c-.547.025-1.019-.404-1.042-.956-.145-3.312-.99-6.128-1.634-7.832-.465.95-1.009 2.304-1.392 4.008-.103.457-.508.781-.976.781s-.873-.324-.976-.781c-.383-1.704-.926-3.057-1.392-4.008-.644 1.704-1.49 4.52-1.634 7.832-.024.552-.51.995-1.042.956-.552-.024-.979-.49-.956-1.042.257-5.908 2.519-10.243 2.615-10.425.16-.302.462-.501.802-.529.337-.024.67.12.877.391.05.066.893 1.188 1.705 3.222.812-2.034 1.654-3.155 1.705-3.222.207-.271.54-.414.877-.391.34.028.643.228.802.529.096.182 2.358 4.517 2.615 10.425.024.552-.404 1.018-.956 1.042z"/></svg>