<svg id="Layer_1" viewBox="0 0 24 24" xmlns="http://www.w3.org/2000/svg" data-name="Layer 1"><path d="m21.977 2.786c-.083-.381-.381-.679-.762-.762-.19-.042-4.714-1.023-9.215-1.023s-9.024.98-9.215 1.022c-.381.083-.679.381-.762.762-.042.19-1.023 4.713-1.023 9.214s.981 9.024 1.023 9.214c.083.381.381.679.762.762.19.042 4.714 1.023 9.215 1.023s9.024-.981 9.215-1.023c.381-.083.679-.381.762-.762.042-.19 1.023-4.713 1.023-9.214s-.981-9.024-1.023-9.214zm-9.336 15.982c-.423.352-1.053.298-1.409-.128-.353-.423-.296-1.053.126-1.407.023-.02 2.072-1.772 2.546-4.233h-4.903c-.553 0-1-.448-1-1 0-3.923 3.223-6.654 3.359-6.768.427-.354 1.056-.295 1.409.128.354.424.296 1.055-.128 1.408-.022.019-2.07 1.771-2.544 4.232h4.903c.553 0 1 .448 1 1 0 3.923-3.223 6.654-3.359 6.768z"/></svg>