<svg id="Layer_1" viewBox="0 0 24 24" xmlns="http://www.w3.org/2000/svg" data-name="Layer 1"><path d="m21.977 2.786c-.083-.381-.381-.679-.762-.762-.19-.042-4.713-1.023-9.214-1.023s-9.025.98-9.215 1.022c-.381.083-.679.381-.762.762-.042.19-1.023 4.713-1.023 9.214s.981 9.024 1.023 9.214c.083.381.381.679.762.762.19.042 4.713 1.023 9.214 1.023s9.024-.981 9.214-1.023c.381-.083.679-.381.762-.762.042-.19 1.023-4.713 1.023-9.214s-.981-9.024-1.023-9.214zm-6.477 15.214h-.003c-.553-.002-.999-.451-.997-1.003 0-.008-.01-.708-.289-1.997h-4.423c-.278 1.289-.289 1.99-.289 2.001-.003.55-.45.996-1 .996h-.001c-.55 0-.997-.444-.999-.995 0-.083.008-2.065 1.223-5.529 1.168-3.331 2.354-4.917 2.486-5.086.379-.49 1.203-.49 1.582 0 .131.169 1.318 1.755 2.486 5.086 1.215 3.463 1.223 5.446 1.223 5.529-.002.551-.449.997-1 .997zm-2.11-5.864c.107.305.196.586.283.864h-3.346c.087-.278.176-.559.283-.864.502-1.431.998-2.496 1.39-3.231.392.736.888 1.8 1.39 3.231z"/></svg>