<svg id="Layer_1" viewBox="0 0 24 24" xmlns="http://www.w3.org/2000/svg" data-name="Layer 1"><path d="m21.977 2.785c-.083-.381-.381-.679-.762-.762-.19-.042-4.714-1.023-9.215-1.023s-9.024.981-9.214 1.023c-.381.083-.679.381-.762.762-.042.19-1.023 4.714-1.023 9.215s.981 9.024 1.023 9.215c.083.381.381.679.762.762.19.042 4.713 1.023 9.214 1.023s9.024-.981 9.215-1.023c.381-.083.679-.381.762-.762.042-.19 1.023-4.714 1.023-9.215s-.981-9.024-1.023-9.215zm-3.666 11.62c-.789.789-2.069.789-2.858 0-.491-.494-.659-1.132-.567-1.782.021-.298-1.934-.624-2.886-.624s-2.908.328-2.886.626c.092.65-.076 1.288-.567 1.782-.789.789-2.069.789-2.858 0-.401-.401-.689-1.033-.689-1.746 0-2.662 3.5-3.662 7-3.662s7 1 7 3.66c0 .713-.288 1.345-.689 1.746z"/></svg>