<svg id="Layer_1" viewBox="0 0 24 24" xmlns="http://www.w3.org/2000/svg" data-name="Layer 1"><path d="m13.664 11.069c.561.042 1.154.104 1.81.185-.442.393-.872.771-1.304 1.14-.299.255-.421.661-.312 1.038.189.657.351 1.319.482 1.97-.637-.304-1.234-.626-1.82-.982-.16-.097-.34-.146-.52-.146s-.36.049-.52.146c-.585.355-1.182.678-1.82.982.131-.651.293-1.312.482-1.97.108-.377-.014-.783-.312-1.038-.432-.368-.862-.747-1.304-1.14.655-.081 1.249-.143 1.81-.185.376-.027.705-.266.85-.614.246-.594.52-1.197.814-1.795.295.599.569 1.201.814 1.795.145.349.473.587.85.614zm9.336.931c0 4.501-.981 9.024-1.023 9.215-.083.381-.381.679-.762.762-.19.042-4.713 1.023-9.214 1.023s-9.024-.981-9.214-1.023c-.381-.083-.679-.381-.762-.762-.042-.19-1.023-4.714-1.023-9.215s.979-9.024 1.021-9.215c.083-.381.381-.679.762-.762.19-.042 4.713-1.023 9.214-1.023s9.024.981 9.214 1.023c.381.083.679.381.762.762.042.19 1.023 4.714 1.023 9.215zm-5.439-1.392c-.217-.699-.825-1.211-1.548-1.303-.569-.073-1.094-.133-1.59-.18-.233-.531-.484-1.066-.752-1.599-.329-.65-.982-1.064-1.67-1.028-.687-.031-1.341.378-1.671 1.03-.267.53-.518 1.065-.751 1.597-.496.047-1.021.106-1.588.18-.725.092-1.333.604-1.55 1.303-.216.698-.003 1.464.544 1.95.362.322.715.636 1.066.941-.156.595-.291 1.189-.403 1.776-.132.693.131 1.393.687 1.826.558.435 1.302.519 1.937.222.603-.279 1.173-.572 1.729-.891.556.317 1.125.611 1.727.89.639.298 1.382.213 1.941-.222.555-.433.818-1.132.686-1.826-.112-.586-.247-1.181-.403-1.775.351-.306.704-.619 1.066-.941.547-.486.761-1.252.544-1.95z"/></svg>