<svg id="Layer_1" viewBox="0 0 24 24" xmlns="http://www.w3.org/2000/svg" data-name="Layer 1"><path d="m21.977 2.786c-.083-.381-.381-.679-.762-.762-.19-.042-4.713-1.023-9.214-1.023s-9.025.98-9.215 1.022c-.381.083-.679.381-.762.762-.042.19-1.023 4.713-1.023 9.214s.981 9.024 1.023 9.215c.083.381.381.679.762.762.19.042 4.713 1.023 9.214 1.023s9.024-.981 9.214-1.023c.381-.083.679-.381.762-.762.042-.19 1.023-4.714 1.023-9.215s-.981-9.024-1.023-9.214zm-9.977 15.214c-2.771 0-4.483-1.12-4.555-1.168-.459-.307-.583-.927-.277-1.387.305-.458.921-.585 1.381-.281.028.019 1.331.836 3.451.836 2.785 0 3-.829 3-2s-.215-2-3-2c-1.114-.018-2.049.136-2.94.276-.491.077-.965-.218-1.111-.694-.504-1.637-.451-4.008-.448-4.108.011-.449.321-.836.757-.945.087-.021 2.138-.53 3.743-.53 2.214 0 3.651.276 3.711.288.542.106.895.63.789 1.172-.105.542-.628.9-1.171.791-.013-.002-1.324-.25-3.329-.25-.813 0-1.817.167-2.493.303.016.513.058 1.208.165 1.859.693-.094 1.45-.178 2.337-.162 2.138 0 4.992.415 4.992 4s-2.854 4-5 4z"/></svg>