<svg id="Layer_1" viewBox="0 0 24 24" xmlns="http://www.w3.org/2000/svg" data-name="Layer 1"><path d="m21.977 2.786c-.083-.381-.381-.679-.762-.762-.19-.042-4.713-1.023-9.214-1.023s-9.025.98-9.215 1.022c-.381.083-.679.381-.762.762-.042.19-1.023 4.713-1.023 9.214s.981 9.024 1.023 9.214c.083.381.381.679.762.762.19.042 4.713 1.023 9.214 1.023s9.024-.981 9.214-1.023c.381-.083.679-.381.762-.762.042-.19 1.023-4.713 1.023-9.214s-.981-9.024-1.023-9.214zm-7.977 14.214c0 .552-.448 1-1 1s-1-.448-1-1v-8.471c-.447.34-.852.865-1.021 1.676-.113.541-.643.884-1.184.774-.541-.113-.887-.643-.774-1.184.579-2.77 2.822-3.56 3.759-3.771.297-.067.607.005.844.195.237.189.375.477.375.781v10z"/></svg>