<svg id="Layer_1" viewBox="0 0 24 24" xmlns="http://www.w3.org/2000/svg" data-name="Layer 1"><path d="m14 6.5v-.441c0-3.059 1.79-4.568 2.905-5.005.527-.207 1.095.215 1.095.781v1.207c.48.041.921.122 1.295.286.841.278 1.758.843 2.371 1.478.771.8 1.612 1.864 1.269 3.011-.343 1.146-1.631 1.572-2.715 1.815-1.247.279-1.69.368-2.719.368-2.322 0-3.5-1.178-3.5-3.5zm7.5 6.498c-1.635-.063-2.408-.339-2.672-1.073-.442.053-.852.074-1.328.075-2.563 0-4.354-1.142-5.104-3.144-1.098.544-2.23 1.365-3.449 2.537-1.229 1.18-2.138 2.215-2.778 3.166-.311.461-.936.577-1.388.271-.458-.309-.58-.93-.271-1.388.721-1.07 1.719-2.213 3.052-3.492 1.183-1.136 2.28-1.98 3.378-2.599.06-.48.054-.859.06-1.35 0-3.411-1.589-5-5-5s-5 1.588-5 4.999c0 7.533 1.559 12.216 5.18 14.716 2.565 1.664 5.255 2.243 9.32 2.284 1.82.116 4.587-.542 4.474-.577.784-.261 1.207-1.106.948-1.892s-1.104-1.21-1.892-.956c-.007.003-.417.131-1.061.246.018-.234.031-.506.031-.821 0-1.5-.665-1.901-2.062-1.987l-1.938.002c-.552 0-1-.447-1-1s.448-1.015 1-1.015h3.42c.85.53 2.138.998 4.08.998.827 0 1.5-.673 1.5-1.5s-.673-1.5-1.5-1.5z"/></svg>