<svg id="Layer_1" viewBox="0 0 24 24" xmlns="http://www.w3.org/2000/svg" data-name="Layer 1"><path d="m21.791 20.027c-.111-.022-1.617-.364-3.741-.624-1.212-1.964-2.742-3.676-4.55-5.114v-7.244c.848-.439 1.806-.871 2.844-1.245.344.131.731.198 1.156.2 1.408-.008 2.465-.609 2.5-2.499-.031-1.816-1.097-2.49-2.5-2.499-1.294.008-2.282.558-2.461 2.082-4.409 1.649-7.377 4.159-7.515 4.277-.628.539-.701 1.483-.164 2.112.54.632 1.487.702 2.114.167.011-.009.38-.318 1.025-.775v5.424c-1.809 1.438-3.338 3.15-4.55 5.114-2.124.26-3.63.602-3.741.624-.812.161-1.341.95-1.181 1.762.161.812.946 1.344 1.762 1.181.047-.01 4.728-.971 9.209-.971 4.776.005 9.112.997 9.501.999.702 0 1.329-.495 1.471-1.209.16-.812-.368-1.602-1.181-1.762zm-11.925-.968c.645-.777 1.354-1.499 2.134-2.153.78.654 1.489 1.376 2.134 2.153-.702-.036-1.417-.059-2.134-.059s-1.432.023-2.134.059z"/></svg>