<svg id="Layer_1" viewBox="0 0 24 24" xmlns="http://www.w3.org/2000/svg" data-name="Layer 1"><path d="m21.958 7.246c-.05-.167-.144-.319-.271-.439-2.388-2.26-5.52-4.189-9.31-5.733-.242-.099-.513-.099-.755 0-3.79 1.544-6.922 3.473-9.31 5.733-.127.12-.22.271-.271.439-.042.142-1.042 3.522-1.042 7.754-.047 2.034.314 5.965.52 6.926.132.822.926 1.373 1.725 1.235.817-.135 1.37-.906 1.235-1.724-.042-.252-.1-.642-.161-1.128 1.844-.133 4.238-.269 6.681-.3v-5.009c0-.178.048-.354.138-.507.053-.09.545-.899 1.372-1.364.48-.27 1.091-.101 1.362.381.271.481.1 1.091-.381 1.362-.194.109-.37.294-.49.444v4.694c2.443.031 4.837.167 6.681.3-.061.486-.119.876-.161 1.128-.135.818.418 1.589 1.235 1.724.799.138 1.593-.413 1.725-1.235.206-.963.567-4.891.52-6.926 0-4.231-1-7.612-1.042-7.754zm-2.957 2.084c-.319-.018-.644-.053-1.001-.077v.751c0 .552-.449 1-1 1-.552 0-1-.448-1-1v-.882c-.948-.053-1.965-.095-3-.112v.995c0 .552-.448 1-1 1-.552 0-1-.448-1-1v-.994c-1.034.017-2.051.059-2.999.112v.883c-.001.552-.449 1-1.001 1-.552 0-1-.448-1-1v-.75c-.322.025-.633.049-.914.073-.55.056-1.035-.361-1.082-.911s.361-1.035.911-1.082c1.773-.152 4.442-.333 7.085-.333 2.643 0 5.312.182 7.085.333.55.047.958.532.911 1.082-.045.521-.482.915-.996.915z"/></svg>