<svg id="Layer_1" viewBox="0 0 24 24" xmlns="http://www.w3.org/2000/svg" data-name="Layer 1"><path d="m12 18c-7.081 0-10.188-1.009-10.316-1.052-.408-.136-.684-.518-.684-.948v-3.022c0-.431.276-.813.686-.949.101-.033 2.377-.77 7.417-.988-.584-3.137-.958-6.096-1.066-7.665-.068-.977.573-1.851 1.523-2.077 1.083-.368 3.8-.368 4.883 0 .947.228 1.588 1.1 1.521 2.076-.108 1.565-.482 4.524-1.066 7.666 5.041.219 7.315.955 7.417.988.409.136.686.519.686.949v3.022c0 .431-.275.812-.684.948-.129.043-3.235 1.052-10.316 1.052zm8.87 4.325c.803-.204 1.288-1.021 1.083-1.823-.204-.803-1.018-1.292-1.823-1.083-.848.216-3.515.581-8.13.581s-7.282-.365-8.129-.581c-.805-.211-1.62.28-1.824 1.083-.205.803.28 1.619 1.083 1.823 1.279.326 4.281.675 8.871.675s7.591-.349 8.87-.675z"/></svg>