<svg id="Layer_1" viewBox="0 0 24 24" xmlns="http://www.w3.org/2000/svg" data-name="Layer 1"><path d="m17 12c0 3-1.087 3-2 3v-6c.913 0 2 0 2 3zm6 0c0 4.341-.742 7.325-.773 7.45-.091.359-.373.639-.732.727-.138.033-3.443.823-9.494.823s-9.356-.79-9.494-.823c-.359-.088-.642-.368-.732-.727-.031-.125-.773-3.109-.773-7.45s.742-7.325.773-7.45c.091-.359.373-.639.732-.727.138-.033 3.443-.823 9.494-.823s9.356.79 9.494.823c.359.088.642.368.732.727.031.125.773 3.109.773 7.45zm-11.5 1.818c0-1.754-1.428-3.182-3.182-3.182-.451 0-.818-.367-.818-.818s.367-.818.818-.818c.325 0 .62.193.751.492.221.504.809.736 1.317.515.506-.222.736-.812.515-1.317-.449-1.026-1.464-1.689-2.583-1.689-1.554 0-2.818 1.264-2.818 2.818s1.265 2.818 2.818 2.818c.651 0 1.182.53 1.182 1.182s-.53 1.182-1.182 1.182c-.501 0-.948-.316-1.114-.787-.185-.521-.757-.795-1.275-.61-.521.184-.795.754-.611 1.275.447 1.269 1.653 2.122 3.001 2.122 1.754 0 3.182-1.427 3.182-3.182zm7.5-1.818c0-2.146-.399-5-3.857-5h-1.143c-.553 0-1 .448-1 1v8c0 .552.447 1 1 1h1.143c3.458 0 3.857-2.854 3.857-5z"/></svg>