<svg id="Layer_1" viewBox="0 0 24 24" xmlns="http://www.w3.org/2000/svg" data-name="Layer 1"><path d="m22.695 8.655c-.538-1.258-1.852-2.085-3.269-2.026-.953.034-1.901.049-2.804.073-.202.012-.333-.148-.381-.307-.282-.918-.567-2.072-.854-2.977-.462-1.469-1.792-2.418-3.388-2.418s-2.926.949-3.386 2.415c-.288.906-.573 2.06-.854 2.978-.05.161-.187.324-.382.309-.903-.025-1.851-.04-2.804-.073-1.417-.068-2.73.769-3.268 2.026-.667 1.557-.207 3.368 1.129 4.41.767.588 1.532 1.167 2.3 1.74.16.118.192.144.119.472l-.789 3.198c-.461 1.529-.066 2.958 1.053 3.818 1.227.951 2.96.944 4.312-.019l2.275-1.993c.22-.145.369-.145.589 0l2.275 1.993c.681.485 1.459.728 2.22.728.749 0 1.481-.235 2.088-.705 1.124-.864 1.52-2.293 1.078-3.748l-.801-3.243c-.081-.357-.048-.383.114-.502.766-.572 1.531-1.151 2.308-1.747 1.326-1.035 1.786-2.845 1.119-4.402zm-2.955 2.029c-.757.58-1.513 1.151-2.267 1.714-.801.596-1.667 1.699-1.239 3.597l.829 3.347c.023.076.137.468-.072.623-.195.145-.391.08-.631-.1-.108-.081-2.114-1.873-2.224-1.953-.612-.463-1.374-.694-2.136-.694v-13.218c.426 0 .501.239.527.321.147.465.292.995.438 1.521.137.5.274.996.411 1.439.477 1.536 1.876 2.522 3.447 2.414.865-.015 1.787-.039 2.7-.069.169-.012.437.094.516.311.117.319-.052.554-.299.747z"/></svg>