<svg id="Layer_1" viewBox="0 0 24 24" xmlns="http://www.w3.org/2000/svg" data-name="Layer 1"><path d="m12 23c-.351 0-.676-.184-.856-.484-.985-1.636-2.087-3.71-2.885-6.773-3.066-.8-5.14-1.901-6.774-2.886-.3-.181-.484-.506-.484-.856s.184-.676.484-.856c1.634-.984 3.708-2.086 6.774-2.886.798-3.063 1.9-5.138 2.885-6.773.361-.602 1.352-.602 1.713 0 .984 1.635 2.086 3.709 2.886 6.773 3.064.8 5.139 1.901 6.773 2.886.301.181.484.506.484.856s-.184.676-.484.856c-1.635.984-3.709 2.086-6.773 2.886-.8 3.064-1.901 5.139-2.886 6.773-.181.301-.506.484-.856.484zm-6.955-15.82c.501-.188 1.026-.37 1.593-.543.172-.567.355-1.092.543-1.593-1.44-1.043-2.587-1.85-2.605-1.863-.398-.279-.939-.231-1.282.111-.344.344-.391.885-.111 1.282.013.018.82 1.165 1.862 2.605zm12.318-.543c.567.172 1.092.355 1.593.543 1.043-1.44 1.85-2.588 1.863-2.606.279-.397.232-.938-.111-1.282s-.885-.391-1.282-.111c-.018.013-1.165.82-2.606 1.863.188.501.371 1.026.543 1.593zm1.593 10.182c-.501.188-1.026.371-1.593.543-.172.567-.355 1.092-.543 1.593 1.44 1.043 2.588 1.85 2.606 1.863.396.278.938.233 1.282-.111s.391-.885.111-1.282c-.013-.018-.82-1.165-1.863-2.606zm-12.318.543c-.567-.172-1.092-.355-1.593-.543-1.043 1.44-1.85 2.587-1.862 2.605-.28.397-.233.938.111 1.282.345.345.886.39 1.282.111.018-.013 1.165-.82 2.605-1.863-.188-.501-.37-1.026-.543-1.593z"/></svg>