<svg id="Layer_1" viewBox="0 0 24 24" xmlns="http://www.w3.org/2000/svg" data-name="Layer 1"><path d="m10.911 16.826c.113.378-.006.788-.306 1.046-.553.491-1.089.967-1.627 1.425.229.795.438 1.655.646 2.45.1.375-.027.773-.324 1.022-.298.249-.711.304-1.063.141-.844-.391-1.623-.805-2.381-1.266-.632.384-1.28.736-1.94 1.094-.414.276-.964.453-1.401.11-.312-.228-.465-.615-.393-.995.161-.845.367-1.705.612-2.557-.528-.449-1.687-1.399-1.688-1.4-.308-.253-.437-.666-.326-1.049.109-.384.438-.665.833-.716.872-.112 1.648-.196 2.377-.25.31-.748.657-1.505 1.033-2.254.17-.338.516-.551.894-.551h.002c.378 0 .724.215.893.554.38.76.726 1.518 1.029 2.251.707.053 1.457.133 2.3.24.392.05.717.326.831.704zm11.812-14.196c-.481-.675-1.417-.833-2.092-.353-1.222.869-3.499 2.535-5.02 3.927-1.854 1.698-3.445 3.419-4.229 4.294-.552.617-.499 1.566.118 2.118.616.552 1.563.501 2.118-.117.746-.834 2.26-2.473 4.019-4.083 1.455-1.332 3.795-3.028 4.732-3.696.676-.48.833-1.417.354-2.092zm-3.132 7.677c-.634.482-1.851 1.451-2.883 2.508-.952.975-1.824 2.04-2.389 2.76-.511.652-.396 1.595.256 2.106.647.508 1.593.399 2.105-.256.425-.542 1.271-1.59 2.174-2.515.898-.92 1.986-1.784 2.555-2.217.659-.502.786-1.443.284-2.102-.504-.659-1.444-.786-2.103-.284zm-12.011-.623c.65.505 1.594.392 2.105-.266.418-.54 1.256-1.583 2.162-2.511.898-.921 1.988-1.781 2.558-2.211.66-.5.791-1.44.291-2.101-.501-.662-1.439-.791-2.102-.292-.636.481-1.858 1.448-2.894 2.508-1.01 1.034-1.929 2.178-2.387 2.768-.508.654-.389 1.597.266 2.104z"/></svg>