<?xml version="1.0" encoding="UTF-8"?>
<svg xmlns="http://www.w3.org/2000/svg" id="Layer_1" data-name="Layer 1" viewBox="0 0 24 24">
  <path d="M22.871,11.509c-.038-.066-.899-1.581-2.311-3.036-.036-2.152-.512-3.725-.533-3.793-.1-.325-.359-.577-.687-.669-.073-.021-1.76-.487-3.797-.523-1.557-1.498-3.013-2.275-3.077-2.309-.299-.158-.658-.154-.954,.011-.067,.037-1.592,.893-3.057,2.298-2.166,.035-3.75,.509-3.818,.529-.326,.099-.579,.357-.671,.684-.021,.073-.489,1.748-.527,3.772-1.505,1.546-2.288,2.993-2.322,3.056-.161,.302-.157,.665,.011,.963,.038,.066,.899,1.581,2.311,3.036,.036,2.152,.512,3.725,.533,3.793,.1,.325,.359,.577,.687,.669,.073,.021,1.76,.487,3.797,.523,1.557,1.498,3.011,2.279,3.077,2.309,.467,.217,.803,.074,.954-.011,.067-.037,1.592-.893,3.057-2.298,2.166-.035,3.75-.509,3.818-.529,.326-.099,.579-.357,.671-.684,.021-.073,.489-1.749,.527-3.772,1.505-1.546,2.288-2.993,2.322-3.056,.161-.302,.157-.665-.011-.963Z"/>
</svg>
