<svg id="Layer_1" viewBox="0 0 24 24" xmlns="http://www.w3.org/2000/svg" data-name="Layer 1"><path d="m20.597 12c1.301-2.632 1.661-4.177 1.681-4.266.17-.764-.274-1.529-1.021-1.761-.092-.028-1.725-.517-4.871-.791-1.875-2.494-3.227-3.669-3.42-3.831-.558-.469-1.373-.469-1.931 0-.193.162-1.546 1.337-3.421 3.831-3.146.274-4.778.763-4.871.791-.748.231-1.192.997-1.021 1.761.02.089.38 1.633 1.681 4.265-1.301 2.633-1.661 4.177-1.681 4.266-.17.764.274 1.529 1.021 1.761.092.028 1.725.517 4.871.791 1.875 2.494 3.227 3.669 3.42 3.831.279.234.622.352.965.352s.687-.117.965-.352c.193-.162 1.545-1.337 3.42-3.831 3.146-.274 4.779-.763 4.871-.791.748-.231 1.192-.997 1.021-1.761-.02-.089-.38-1.633-1.681-4.266zm-4.63 2.127c-.411.655-.808 1.253-1.186 1.796-.837.047-1.757.077-2.78.077s-1.943-.031-2.78-.077c-.379-.543-.776-1.141-1.187-1.797-.48-.766-.888-1.471-1.247-2.126.359-.655.767-1.361 1.247-2.127.411-.655.808-1.253 1.186-1.796.837-.047 1.757-.077 2.78-.077s1.943.031 2.78.077c.379.543.776 1.14 1.186 1.796.48.766.888 1.472 1.247 2.127-.359.655-.767 1.361-1.247 2.126z"/></svg>