<?xml version="1.0" encoding="UTF-8"?>
<svg xmlns="http://www.w3.org/2000/svg" id="Layer_1" data-name="Layer 1" viewBox="0 0 24 24">
  <g>
    <path d="M12.015,8.782h-.013c-1.949,.006-3.638,1.172-4.345,2.986v8.532c0,.396,.233,.754,.595,.914,.063,.028,1.57,.685,3.748,.685,2.202,0,3.69-.659,3.753-.687,.359-.162,.59-.519,.59-.912V11.767c-.707-1.819-2.388-2.985-4.328-2.985Z"/>
    <path d="M11.997,6.782h.018c1.632,0,3.134,.573,4.301,1.572-.341-4.744-3.802-6.128-3.958-6.187-.232-.088-.489-.09-.721,.002-.155,.06-3.614,1.465-3.953,6.195,1.169-1,2.677-1.576,4.313-1.581Z"/>
  </g>
  <path d="M5.657,10.265c-.075-.002-.151-.004-.229-.004-.942,0-1.773,.18-2.429,.394v-2.711c0-.553-.448-1-1-1s-1,.447-1,1v9.498c0,.553,.448,1,1,1,.402,0,.749-.238,.908-.581l2.749,1.914V10.265Z"/>
  <path d="M22,6.944c-.553,0-1,.447-1,1v2.711c-.656-.214-1.487-.393-2.429-.393-.077,0-.153,.001-.229,.004v9.51l2.749-1.914c.158,.343,.505,.581,.908,.581,.553,0,1-.447,1-1V7.944c0-.553-.447-1-1-1Z"/>
</svg>
