<svg id="Layer_1" viewBox="0 0 24 24" xmlns="http://www.w3.org/2000/svg" data-name="Layer 1"><path d="m13 8.5c0 .828.672 1.5 1.5 1.5h7c.828 0 1.5-.672 1.5-1.5 0-.652-.419-1.201-1-1.408v-1.592c.405-.001.77-.247.922-.623.153-.377.063-.809-.228-1.093-1.123-1.096-2.535-1.982-4.317-2.71-.241-.1-.513-.1-.756 0-1.785.729-3.198 1.615-4.32 2.71-.291.284-.381.716-.228 1.093s.52.623.926.623v1.591c-.581.207-1 .756-1 1.408zm6-3v1.5h-2v-1.5zm-9 14.592v-1.592c.405-.001.77-.247.922-.623.153-.377.063-.809-.228-1.093-1.123-1.096-2.535-1.982-4.317-2.71-.241-.1-.513-.1-.756 0-1.785.729-3.198 1.615-4.32 2.71-.291.284-.381.716-.228 1.093s.52.623.926.623v1.591c-.581.207-1 .756-1 1.408 0 .828.672 1.5 1.5 1.5h7c.828 0 1.5-.672 1.5-1.5 0-.652-.419-1.201-1-1.408zm-3-1.592v1.5h-2v-1.5zm15.61 1.991c.557.613.512 1.562-.102 2.119-.611.555-1.561.513-2.119-.102l-.497-.547c-1.495.1-2.97-.004-4.395-.316-.572-.125-1.019-.571-1.144-1.144-.314-1.435-.42-2.92-.313-4.427l-6.688-6.5c-.334-.324-.498-.786-.444-1.248.127-1.091.119-2.168-.021-3.215-1.048-.142-2.123-.15-3.215-.021-.476.056-.957-.124-1.283-.481l-1-1.101c-.557-.613-.512-1.562.102-2.119.612-.555 1.562-.513 2.119.102l.497.547c1.495-.098 2.97.004 4.395.316.572.125 1.019.571 1.144 1.144.314 1.435.42 2.92.313 4.427l6.688 6.5c.334.324.498.786.444 1.248-.127 1.091-.119 2.168.021 3.215 1.046.141 2.122.149 3.215.021.479-.056.958.124 1.283.481z"/></svg>