<?xml version="1.0" encoding="UTF-8"?>
<svg xmlns="http://www.w3.org/2000/svg" id="Layer_1" data-name="Layer 1" viewBox="0 0 24 24">
  <path d="M18.227,4.223c-1.982-1.997-4.318-3.052-6.754-3.052-2.596,0-5.208,1.191-7.355,3.354C.295,8.376,.299,13.704,2.494,16.431c1.498,1.859,3.601,3.102,5.922,3.497,.782,.134,1.536,.527,2.305,1.226,1.265,1.127,2.754,1.682,4.294,1.682,1.976,0,4.036-.913,5.811-2.701,4.935-4.972,.281-13.008-2.599-15.911ZM5.747,10.436c-.255,0-.509-.097-.705-.29-.392-.389-.394-1.022-.005-1.415l2.884-2.905c.389-.392,1.022-.394,1.415-.005,.392,.389,.394,1.022,.005,1.415l-2.884,2.905c-.196,.197-.453,.295-.71,.295Zm3.113,3.75c-.196,.197-.453,.296-.71,.296-.255,0-.509-.097-.705-.29-.392-.39-.394-1.022-.005-1.415l5.304-5.343c.389-.393,1.022-.394,1.415-.005,.392,.389,.394,1.022,.005,1.415l-5.304,5.343Zm4.017,2.422c-.196,.197-.453,.296-.71,.296-.255,0-.509-.097-.705-.29-.392-.39-.394-1.022-.005-1.414l4.497-4.532c.389-.392,1.021-.395,1.415-.005,.392,.389,.394,1.022,.005,1.415l-4.497,4.531Zm6.093,.328l-1.27,1.28c-.195,.197-.453,.296-.71,.296-.254,0-.509-.097-.704-.29-.392-.389-.395-1.022-.006-1.414l1.27-1.28c.388-.394,1.021-.396,1.414-.006,.392,.389,.395,1.022,.006,1.414Z"/>
</svg>
