<?xml version="1.0" encoding="UTF-8"?>
<svg xmlns="http://www.w3.org/2000/svg" id="Layer_1" data-name="Layer 1" viewBox="0 0 24 24">
  <path d="M22.853,10.862c0-2.2-1.247-3.461-3.42-3.461s-3.419,1.262-3.419,3.461c0,1.621,.677,2.732,1.903,3.204-.018,.663-.051,1.331-.099,1.997-.157,2.192-1.849,3.937-3.998,3.937-2.106,0-3.852-1.718-4.009-3.876-.019-.266-.037-.542-.052-.826,3.732-.484,5.552-2.86,5.552-7.224,0-3.894-1.501-6.258-4.463-7.026-.803-.208-1.621,.273-1.829,1.076-.208,.802,.274,1.621,1.076,1.829,1.151,.298,2.216,1.004,2.216,4.122,0,3.649-1.375,4.317-4.082,4.317s-4.082-.667-4.082-4.317c0-3.11,1.066-3.818,2.219-4.12,.801-.21,1.281-1.03,1.071-1.831-.21-.801-1.028-1.279-1.831-1.071C2.648,1.827,1.147,4.189,1.147,8.074c0,4.385,1.838,6.763,5.607,7.231,.018,.358,.04,.703,.064,1.035,.269,3.708,3.315,6.66,6.99,6.66,3.697,0,6.734-2.979,7.001-6.722,.053-.733,.088-1.468,.107-2.198,1.246-.465,1.936-1.581,1.936-3.217Z"/>
</svg>
