<svg id="Layer_1" viewBox="0 0 24 24" xmlns="http://www.w3.org/2000/svg" data-name="Layer 1"><path d="m5 2.5c0-.828.672-1.5 1.5-1.5s1.5.672 1.5 1.5c0 .229.032.321.039.337.002 0 .158.085.687.132 2.078.016 6.086.031 6.086.031 4.506 0 6.851 2.7 7.152 8.236-.432-.149-.899-.242-1.389-.236-1.273 0-2.316.637-3.236 1.198-.675.412-1.313.802-1.839.802s-1.164-.39-1.84-.802c-.92-.562-1.963-1.198-3.224-1.198-.509-.006-.991.094-1.437.251v-5.251s-.001-.004-.001-.007c-1.391-.046-3.999-.422-3.999-3.493zm15.607 10.5h-.02c-.724 0-1.444.439-2.207.905-.881.538-1.793 1.095-2.881 1.095s-2-.557-2.882-1.095c-.763-.466-1.482-.905-2.194-.905-.515-.005-1.021.215-1.545.507-.17 1.17-.512 1.948-.931 2.485-1.3-.002-1.378.009-1.475.025-3.01.448-4.473 2.242-4.473 5.483 0 .828.672 1.5 1.5 1.5s1.5-.672 1.5-1.5c0-1.738.432-2.224 1.596-2.456 1.569 1.98 4.32 2.956 8.404 2.956 5.806 0 6.859-4.641 6.984-8.566-.467-.249-.924-.434-1.376-.434z"/></svg>