<svg id="Layer_1" viewBox="0 0 24 24" xmlns="http://www.w3.org/2000/svg" data-name="Layer 1"><path d="m12 1c-7.71 0-11 3.29-11 11s3.29 11 11 11 11-3.29 11-11-3.29-11-11-11zm3.677 13.915c-.083.381-.381.679-.763.762-.06.013-1.489.323-2.914.323s-2.854-.31-2.914-.323c-.382-.083-.68-.381-.763-.762-.014-.06-.323-1.489-.323-2.915s.31-2.854.323-2.915c.083-.381.381-.679.763-.762.06-.013 1.489-.323 2.914-.323s2.854.31 2.914.323c.382.083.68.381.763.762.014.06.323 1.489.323 2.915s-.31 2.854-.323 2.915zm-1.837-4.754c.076.483.16 1.171.16 1.84s-.084 1.357-.16 1.84c-.965.151-2.715.151-3.68 0-.076-.483-.16-1.171-.16-1.84s.084-1.357.16-1.84c.965-.151 2.715-.151 3.68 0z"/></svg>