<?xml version="1.0" encoding="UTF-8"?>
<svg xmlns="http://www.w3.org/2000/svg" id="Layer_1" data-name="Layer 1" viewBox="0 0 24 24">
  <path d="M20.002,7.422c.608,.542,1.22,.196,1.415,0,.391-.39,.391-1.023,0-1.414l-1.786-1.789c-.391-.392-1.024-.391-1.415,0-.391,.39-.391,1.023,0,1.414l.187,.187-.488,.489c-.933-.692-2.058-1.18-3.366-1.455,.134-.327,.208-.684,.208-1.058,0-1.542-1.254-2.796-2.795-2.796s-2.795,1.254-2.795,2.796c0,.375,.075,.733,.209,1.06-1.286,.274-2.395,.755-3.319,1.426l-.461-.462,.187-.187c.39-.391,.39-1.024,0-1.414-.391-.39-1.024-.391-1.415,0l-1.786,1.789c-.39,.391-.39,1.024,0,1.414,.195,.195,.767,.553,1.415,0l.185-.186,.431,.431c-1.213,1.538-1.849,3.608-1.849,6.111,0,5.859,3.288,9.187,9.203,9.221,5.904-.035,9.082-3.211,9.191-9.221-.044-2.517-.666-4.554-1.821-6.065l.477-.478,.185,.186ZM11.963,3c.438,0,.795,.357,.795,.796s-.356,.796-.795,.796-.795-.357-.795-.796,.356-.796,.795-.796Zm0,12.735c-1.069,0-1.938-.87-1.938-1.938,0-.704,.376-1.321,.938-1.661v-2.133c0-.552,.447-1,1-1s1,.448,1,1v2.133c.562,.34,.938,.957,.938,1.661,0,1.069-.869,1.938-1.938,1.938Z"/>
</svg>
