<svg id="Layer_1" viewBox="0 0 24 24" xmlns="http://www.w3.org/2000/svg" data-name="Layer 1"><path d="m3.992 10c-2.291 0-2.82-.947-2.952-1.599-.051-.301-.046-.616-.023-.922.17-2.552 1.555-4.888 1.618-4.994.124-.207.32-.362.551-.438.132-.042 3.311-1.047 8.803-1.048s.004 0 .004 0c5.492 0 8.671 1.006 8.803 1.048.23.075.427.23.551.438.063.105 1.448 2.442 1.618 4.994.022.306.027.621-.023.922-.132.651-.661 1.599-2.952 1.599-2.896 0-2.979-1.513-3-2.029-.002-1.04-.127-2.053-.132-2.095-.068-.548-.566-.932-1.116-.868-.548.068-.937.568-.868 1.116 0 .009.116.944.117 1.86-.022.527-.127 2.014-2.996 2.015s-.001 0-.002 0-.001 0-.002 0c-2.87-.001-2.974-1.489-2.996-2.016.001-.917.116-1.852.117-1.86.068-.548-.32-1.048-.868-1.116-.55-.063-1.048.32-1.116.868-.006.043-.13 1.055-.132 2.095-.021.516-.104 2.029-3 2.029zm14.014 8c-1.88-.012-2.972-1.098-3.007-2.981.014-1.865 1.14-3.012 2.995-3.019 1.827.011 2.975 1.154 3.007 2.982-.035 1.92-1.126 3.006-2.995 3.018zm4.17 4.728c.29-.052.542-.229.69-.484.147-.256.174-.562.074-.84-.454-1.257-1.367-2.025-2.639-2.225-1.518-.236-3.086-.236-4.603 0-1.272.199-2.185.968-2.639 2.225-.1.277-.073.584.074.84.147.255.4.433.69.484.062.011 1.554.272 4.176.272s4.114-.262 4.176-.272zm-10.997-2.006c.493-1.364 1.378-2.376 2.546-2.975-.444-.749-.707-1.652-.727-2.691-.007-1.337.437-2.523 1.171-3.383-.636.208-1.359.326-2.177.327-1.777 0-3.154-.507-4.01-1.423-.857.922-2.228 1.423-3.991 1.423-.769 0-1.414-.092-1.963-.243-.021 1.037-.033 2.076-.033 2.493h-.004c0 4.181.497 6.827.518 6.938.068.359.328.652.676.765.118.038 3.471.951 8.106 1.039-.329-.716-.382-1.524-.111-2.27z"/></svg>