<svg id="Layer_1" viewBox="0 0 24 24" xmlns="http://www.w3.org/2000/svg" data-name="Layer 1"><path d="m22.484 14.573c-.085-.244-.26-.442-.484-.558v-1.265c0-2.206-1.794-4-4-4s-4 1.794-4 4v1.265c-.225.117-.401.316-.485.562-.021.061-.515 1.513-.515 3.423 0 1.927.495 3.367.516 3.427.111.319.377.561.705.641.071.018 1.774.432 3.779.432s3.707-.414 3.779-.432c.329-.081.596-.324.706-.645.021-.061.515-1.513.515-3.423 0-1.927-.495-3.367-.516-3.427zm-5.484-1.823c0-.551.448-1 1-1s1 .449 1 1v.783c-.32-.02-.656-.033-1-.033s-.68.012-1 .033zm1 6.75c-.828 0-1.5-.672-1.5-1.5s.672-1.5 1.5-1.5 1.5.672 1.5 1.5-.672 1.5-1.5 1.5z"/><path d="m11 18c0-1.748.349-3.162.531-3.78-.194.023-.39.035-.588.035-1.334 0-2.582-.531-3.495-1.443-.915.912-2.163 1.443-3.496 1.443-.729 0-1.417-.159-2.034-.448-.025.402.073 1.044.085 1.246.184 3.378.935 5.734.967 5.833.109.339.392.595.74.67.161.035 4.334.773 8.086.918-.064-.125-.121-.255-.168-.39-.108-.317-.627-1.943-.627-4.085z"/><path d="m18 6.75c1.091 0 2.116.293 2.998.804.004-.067 0-.136-.01-.205-.332-2.183-1.578-4.276-1.631-4.364-.126-.21-.326-.367-.561-.44-.09-.028-1.55-.476-3.797-.776v4.231c0 .552-.447 1-1 1s-1-.448-1-1v-4.432c-.633-.043-1.302-.068-2-.068s-1.367.025-2 .068v4.432c0 .552-.447 1-1 1s-1-.448-1-1v-4.23c-2.244.3-3.706.747-3.797.775-.234.073-.435.23-.561.44-.067.112-1.643 2.769-1.643 5.515 0 1.072.337 2.045.908 2.81.526.552 1.243.886 2.044.886 1.097 0 2.098-.604 2.612-1.575.173-.328.514-.532.884-.532s.711.205.884.533c.514.971 1.514 1.575 2.611 1.575.387 0 .761-.076 1.107-.216.378-2.947 2.903-5.231 5.951-5.231z"/></svg>