<svg id="Layer_1" viewBox="0 0 24 24" xmlns="http://www.w3.org/2000/svg" data-name="Layer 1"><path d="m13.54 2.785.968-.277.277-.968c.206-.719 1.225-.719 1.431 0l.277.968.968.277c.72.206.72 1.225 0 1.431l-.968.277-.277.968c-.206.72-1.225.72-1.431 0l-.277-.968-.968-.277c-.72-.206-.72-1.225 0-1.431zm-6 4.43.968.277.277.968c.206.72 1.225.72 1.431 0l.277-.968.968-.277c.72-.206.72-1.225 0-1.431l-.968-.277-.277-.968c-.206-.719-1.225-.719-1.431 0l-.277.968-.968.277c-.72.206-.72 1.225 0 1.431zm4.245 3.325-.277.968-.968.277c-.72.206-.72 1.225 0 1.431l.968.277.277.968c.206.72 1.225.72 1.431 0l.277-.968.968-.277c.72-.206.72-1.225 0-1.431l-.968-.277-.277-.968c-.206-.719-1.225-.719-1.431 0zm-10.662-6.424c-.091.669-.216 1.585.212 2.603.408.969 1.119 1.573 1.691 2.06.396.336.738.627.868.936.078.186.076.455.066.879-.02.906-.051 2.276 1.155 3.828.51.657 1.456.769 2.104.264.654-.509.772-1.451.264-2.105-.551-.709-.541-1.19-.524-1.919.013-.591.029-1.325-.301-2.11-.408-.968-1.119-1.572-1.69-2.058-.396-.337-.739-.628-.869-.938-.105-.25-.074-.526-.005-1.034.091-.67.216-1.586-.212-2.603-.322-.764-1.201-1.123-1.965-.801-.763.322-1.122 1.202-.8 1.965.105.249.074.526.005 1.034zm15.917 6.544c.017.729.027 1.21-.524 1.919-.509.654-.391 1.597.264 2.105.648.506 1.594.393 2.104-.264 1.206-1.552 1.175-2.922 1.155-3.828-.01-.424-.011-.693.066-.879.13-.309.472-.6.868-.936.572-.486 1.283-1.091 1.691-2.06.428-1.018.304-1.934.212-2.603-.069-.508-.1-.785.005-1.034.322-.763-.037-1.643-.8-1.965-.764-.32-1.643.038-1.965.801-.428 1.017-.304 1.933-.212 2.603.069.508.1.784-.005 1.034-.13.31-.473.601-.869.938-.571.485-1.282 1.09-1.69 2.058-.331.785-.314 1.52-.301 2.11zm.46 6.34c-2.526 0-4.5 2-5.5 3.939-1-1.939-2.974-3.939-5.5-3.939-3 0-4.933 1.075-5.098 1.198-.253.188-.402.486-.402.802v2c0 .478.338.889.806.981.21.041 5.215 1.019 10.194 1.019s9.983-.978 10.194-1.019c.468-.093.806-.504.806-.981v-2c0-.315-.149-.613-.402-.802-.165-.123-2.098-1.198-5.098-1.198z"/></svg>