<svg id="Layer_1" viewBox="0 0 24 24" xmlns="http://www.w3.org/2000/svg" data-name="Layer 1"><path d="m6.583 11.532 11.077 11.077c-1.44.211-3.342.391-5.664.391-5.494 0-8.675-1.006-8.807-1.048-.348-.112-.607-.405-.676-.765-.021-.11-.518-2.757-.518-6.938 0-.834.049-1.661.121-2.477.562.143 1.184.227 1.879.227 1.008 0 1.864-.171 2.586-.468zm-1.603-1.603-3.764-3.763c-.088.404-.161.817-.194 1.243-.017.328-.047.665.018.992.124.631.639 1.599 2.956 1.599.373 0 .698-.026.983-.071zm17.581 10.51-.853-.853c.139-1.204.289-3.036.289-5.336 0-.834-.049-1.661-.121-2.477-.562.143-1.184.227-1.879.227-1.787 0-3.151-.487-4-1.391-.516.549-1.242.923-2.117 1.148l-1.762-1.762c2.75-.043 2.857-1.492 2.879-2.011-.001-.917-.116-1.852-.117-1.86-.068-.548.32-1.048.868-1.116.55-.063 1.048.32 1.116.868.006.043.13 1.055.132 2.095.021.516.104 2.029 3 2.029 2.291 0 2.82-.947 2.952-1.599.051-.301.046-.616.023-.922-.17-2.552-1.555-4.888-1.618-4.994-.124-.207-.32-.362-.551-.438-.132-.042-3.312-1.048-8.807-1.048-4.006 0-6.775.534-8.036.84l-.4-.4c-.586-.586-1.535-.586-2.121 0-.586.585-.586 1.536 0 2.121l19.001 19.001c.586.586 1.535.586 2.121 0 .586-.585.586-1.536 0-2.121z"/></svg>