<svg id="Layer_1" viewBox="0 0 24 24" xmlns="http://www.w3.org/2000/svg" data-name="Layer 1"><path d="m13.46 12.785c.72.206.72 1.225 0 1.431l-.968.277-.277.968c-.206.72-1.225.72-1.431 0l-.277-.968-.968-.277c-.72-.206-.72-1.225 0-1.431l.968-.277.277-.968c.206-.719 1.225-.719 1.431 0l.277.968zm-11.92-5.57.968.277.277.968c.206.72 1.225.72 1.431 0l.277-.968.968-.277c.72-.206.72-1.225 0-1.431l-.968-.277-.277-.968c-.206-.719-1.225-.719-1.431 0l-.277.968-.968.277c-.72.206-.72 1.225 0 1.431zm17-3 .968.277.277.968c.206.72 1.225.72 1.431 0l.277-.968.968-.277c.72-.206.72-1.225 0-1.431l-.968-.277-.277-.968c-.206-.719-1.225-.719-1.431 0l-.277.968-.968.277c-.72.206-.72 1.225 0 1.431zm-9.611.998c-.312.504-.628 1.053-.971 1.679-.148.269-.124.599.059.845.184.246.494.361.794.296.614-.134 1.206-.263 1.787-.404.443.568.904 1.11 1.385 1.622.201.214.504.299.787.218s.496-.312.552-.602c.032-.16.052-.309.079-.465l7.267 4.844c.68.456 1.618.278 2.08-.416.459-.689.273-1.62-.416-2.08l-7.172-4.781c.146-.077.288-.145.437-.228.258-.142.412-.416.402-.711-.01-.294-.184-.556-.45-.682-.636-.3-1.293-.573-1.97-.82-.045-.596-.104-1.199-.165-1.825-.03-.305-.235-.566-.525-.665s-.612-.02-.822.203c-.491.519-.916.988-1.299 1.441-.663-.16-1.34-.296-2.03-.41-.292-.047-.603.061-.759.312-.191.226-.199.555-.064.818.32.621.658 1.224 1.014 1.806zm8.571 11.787c-2.526 0-4.5 2-5.5 3.939-1-1.939-2.974-3.939-5.5-3.939-3 0-4.933 1.075-5.098 1.198-.253.188-.402.486-.402.802v2c0 .478.338.889.806.981.21.041 5.215 1.019 10.194 1.019s9.983-.978 10.194-1.019c.468-.093.806-.504.806-.981v-2c0-.315-.149-.613-.402-.802-.165-.123-2.098-1.198-5.098-1.198z"/></svg>