<?xml version="1.0" encoding="UTF-8"?>
<svg xmlns="http://www.w3.org/2000/svg" id="Layer_1" data-name="Layer 1" viewBox="0 0 24 24">
  <path d="M22.775,8.361c-.387-.733-1.297-1.012-2.027-.623-.826,.436-1.774,.387-2.58,.193l.675-.68c.584-.588,.58-1.537-.008-2.121-.587-.584-1.538-.58-2.121,.008l-.651,.656c-.189-.812-.233-1.767,.201-2.606,.38-.736,.091-1.642-.645-2.021-.736-.378-1.641-.091-2.021,.645-.599,1.16-.732,2.362-.641,3.454-2.953-1.522-5.811-1.049-8.22,1.377C.761,10.643-.205,18.132,2.853,21.21c1.145,1.154,3.031,1.79,5.308,1.79h.002c3.406,0,6.924-1.411,9.182-3.684,1.529-1.54,3.366-4.416,1.379-8.271,.195,.016,.393,.025,.594,.025,.919,0,1.894-.183,2.835-.682,.732-.388,1.011-1.296,.623-2.027ZM6.761,19.086c-.549,.538-1.356,.429-1.404,.424-.439-.046-.787-.393-.834-.832-.023-.209-.059-.926,.417-1.405,.245-.248,.991-.709,1.813,.003,.516,.446,.512,1.317,.008,1.81Zm1.516-4.88c-.549,.538-1.356,.429-1.404,.424-.439-.046-.787-.393-.834-.832-.023-.209-.059-.926,.416-1.405,.245-.248,.991-.709,1.813,.003,.516,.446,.512,1.317,.008,1.81Zm.335-4.728c-.439-.046-.787-.393-.834-.832-.023-.209-.059-.926,.416-1.405,.245-.248,.991-.709,1.813,.003,.516,.446,.512,1.317,.008,1.81-.549,.538-1.356,.429-1.404,.424Zm3.031,8.094c-.549,.538-1.356,.429-1.404,.424-.439-.046-.787-.393-.834-.832-.023-.209-.059-.926,.416-1.405,.245-.248,.991-.709,1.813,.003,.516,.446,.512,1.317,.008,1.81Zm1.753-5.137c-.549,.538-1.356,.429-1.404,.424-.439-.046-.787-.393-.834-.832-.023-.209-.059-.926,.416-1.405,.245-.248,.991-.709,1.813,.003,.516,.446,.512,1.317,.008,1.81Zm3.366,3.366c-.549,.538-1.356,.429-1.404,.424-.439-.046-.787-.393-.834-.832-.023-.209-.059-.926,.416-1.405,.245-.248,.991-.709,1.813,.003,.516,.446,.512,1.317,.008,1.81Z"/>
</svg>
