<svg id="Layer_1" viewBox="0 0 24 24" xmlns="http://www.w3.org/2000/svg" data-name="Layer 1"><path d="m20 17c-.442 0-.828.058-1.173.157-.514-.323-1.225-.799-2.056-1.433 2.416-2.315 3.827-4.168 4.008-4.456.763-.181 1.176-.335 1.278-.376.765-.306 1.134-1.169.834-1.937-.299-.768-1.167-1.146-1.938-.854-.023.01-2.414.897-7.954.897-2.601 0-4.158-.322-5.511-.62-.44-.537-.982-1.271-1.396-1.897-1.51-2.287-2.149-4.39-2.156-4.41-.236-.793-1.068-1.247-1.863-1.011-.794.234-1.248 1.069-1.013 1.863.03.103.759 2.531 2.528 5.21.594.901 1.403 1.972 1.967 2.603.211.235.491.398.8.466.694.151 1.31.294 2.121.434.476.624 1.812 2.307 3.676 4.086-.822.627-1.525 1.099-2.037 1.421-.332-.089-.697-.144-1.116-.144-1.991 0-3 1.01-3 3s1.009 3 3 3 3-1.01 3-3c0-.17-.018-.323-.032-.479.659-.424 1.515-1.021 2.494-1.797 1.016.805 1.9 1.417 2.568 1.844-.012.142-.029.278-.029.431 0 1.99 1.009 3 3 3s3-1.01 3-3-1.009-3-3-3zm-7-5c1.261 0 2.367-.044 3.344-.112-.541.584-1.181 1.23-1.881 1.882-.655-.613-1.249-1.219-1.759-1.775.101 0 .193.005.297.005z"/></svg>