<svg id="Layer_1" viewBox="0 0 24 24" xmlns="http://www.w3.org/2000/svg" data-name="Layer 1"><path d="m23 12c0 .828-.672 1.5-1.5 1.5h-3.74c.47.898.74 1.918.74 3 0 3.584-2.916 6.5-6.5 6.5-3.079 0-5.758-2.188-6.37-5.201-.165-.812.359-1.604 1.171-1.769.804-.167 1.604.358 1.769 1.171.33 1.622 1.772 2.799 3.431 2.799 1.93 0 3.5-1.57 3.5-3.5 0-1.28-.698-2.39-1.726-3h-11.275c-.828 0-1.5-.672-1.5-1.5s.672-1.5 1.5-1.5h4.636c-.712-.986-1.136-2.193-1.136-3.5 0-3.309 2.691-6 6-6 2.294 0 4.354 1.277 5.375 3.332.369.742.066 1.643-.675 2.011-.742.372-1.643.067-2.011-.675-.512-1.029-1.542-1.668-2.689-1.668-1.654 0-3 1.346-3 3s1.346 3 3 3c.884 0 1.727.179 2.496.5h7.004c.828 0 1.5.672 1.5 1.5z"/></svg>