<svg id="Layer_1" viewBox="0 0 24 24" xmlns="http://www.w3.org/2000/svg" data-name="Layer 1"><path d="m2.667 16.014c.053.008 4.839.816 8.333.962v5.05c-3.493.146-8.28.955-8.333.963-.457.07-.907-.147-1.088-.52-.023-.049-.58-1.213-.58-2.967s.556-2.918.58-2.967c.182-.373.631-.591 1.088-.52zm16.333-4.933c-2.068.891-4.251 1.527-6.539 1.883-.311.048-.608.048-.916 0-2.292-.356-4.476-.993-6.545-1.884v3.266c2.006.288 4.952.653 7 .653s5.012-.367 7-.652zm4-5.081c-.012-.311-.17-.639-.426-.819-3.113-2.153-6.605-3.583-10.42-4.169-.103-.016-.205-.016-.308 0-3.811.592-7.317 1.995-10.42 4.169-.256.18-.414.508-.426.819.012.311.17.639.426.819 3.103 2.174 6.609 3.577 10.42 4.169.103.016.205.016.308 0 2.793-.434 5.42-1.308 7.846-2.597v3.109c0 .829.671 1.5 1.5 1.5s1.5-.671 1.5-1.5c.003-.245-.004-5.282 0-5.5zm-1.667 10.014c-.053.008-4.839.816-8.333.962v5.05c3.493.146 8.28.955 8.333.963.435.07.91-.143 1.088-.52.023-.049.58-1.213.58-2.967s-.556-2.918-.58-2.967c-.182-.373-.636-.592-1.088-.52z"/></svg>