<svg id="Layer_1" viewBox="0 0 24 24" xmlns="http://www.w3.org/2000/svg" data-name="Layer 1"><path d="m21 9.5c0 .829-.671 1.5-1.5 1.5s-1.5-.671-1.5-1.5v-2.988c-1.835.72-3.795 1.228-5.879 1.481-.08.01-.161.01-.241 0-3.054-.371-5.866-1.251-8.359-2.616-.321-.175-.52-.512-.52-.877s.199-.702.52-.877c2.493-1.365 5.306-2.245 8.359-2.616.08-.01.161-.01.241 0 3.054.371 5.866 1.251 8.359 2.616.321.175.52.512.52.877zm-4-.5s0-.004 0-.006c-1.48.456-3.028.789-4.638.984-.24.029-.484.029-.725 0-1.61-.196-3.157-.528-4.637-.985v.006c0 3.411 1.589 5 5 5s5-1.589 5-5zm-5 7c-2.887 0-6.835.55-7.792 5.303-.119.533.267 1.098.805 1.182.119.021 2.945.516 6.987.516s6.868-.495 6.987-.516c.539-.084.924-.649.805-1.182-.957-4.753-4.905-5.303-7.792-5.303z"/></svg>