<svg id="Layer_1" viewBox="0 0 24 24" xmlns="http://www.w3.org/2000/svg" data-name="Layer 1"><path d="m21.948 6.684c-.099-.299-.333-.533-.632-.632-.092-.031-1.699-.551-4.816-.848v-.204c0-2.481-2.019-4.5-4.5-4.5s-4.5 2.019-4.5 4.5v.204c-3.117.297-4.725.817-4.816.848-.299.099-.533.333-.632.632-.043.129-1.052 3.201-1.052 7.316s1.009 7.188 1.052 7.316c.099.299.333.533.632.632.076.025 1.185.384 3.316.675v-12.623c0-.553.447-1 1-1s1 .447 1 1v12.842c1.147.095 2.48.158 4 .158s2.853-.063 4-.158v-12.842c0-.553.447-1 1-1s1 .447 1 1v12.623c2.132-.292 3.241-.65 3.316-.675.299-.099.533-.333.632-.632.043-.129 1.052-3.201 1.052-7.316s-1.009-7.188-1.052-7.316zm-11.448-1.66v-.023c0-.827.673-1.5 1.5-1.5s1.5.673 1.5 1.5v.023c-.481-.014-.975-.023-1.5-.023s-1.019.01-1.5.023z"/></svg>