<?xml version="1.0" encoding="UTF-8"?>
<svg xmlns="http://www.w3.org/2000/svg" id="Layer_1" data-name="Layer 1" viewBox="0 0 24 24">
  <path d="M21.5,10.5h-2.205c-.133-1.138-.421-2.057-.82-2.797l1.297-1.284c.589-.583,.594-1.533,.011-2.122-.583-.589-1.533-.594-2.122-.011l-1.305,1.291c-.888-.479-1.883-.707-2.857-.808V2.601c0-.829-.671-1.5-1.5-1.5s-1.5,.671-1.5,1.5v2.17c-.975,.101-1.97,.329-2.857,.807l-1.305-1.291c-.588-.582-1.538-.577-2.122,.011-.583,.589-.578,1.539,.011,2.122l1.297,1.283c-.399,.74-.687,1.658-.82,2.797H2.5c-.829,0-1.5,.671-1.5,1.5s.671,1.5,1.5,1.5h2.205c.133,1.138,.421,2.057,.82,2.797l-1.297,1.283c-.589,.583-.594,1.533-.011,2.122,.293,.296,.68,.445,1.066,.445,.381,0,.763-.145,1.055-.434l1.305-1.291c.888,.479,1.883,.707,2.857,.808v2.17c0,.829,.671,1.5,1.5,1.5s1.5-.671,1.5-1.5v-2.17c.975-.101,1.97-.329,2.858-.808l1.305,1.291c.292,.289,.674,.434,1.055,.434,.386,0,.773-.148,1.066-.445,.583-.589,.578-1.539-.011-2.122l-1.297-1.284c.399-.74,.687-1.658,.82-2.797h2.205c.829,0,1.5-.671,1.5-1.5s-.671-1.5-1.5-1.5Z"/>
</svg>
