<svg id="Layer_1" viewBox="0 0 24 24" xmlns="http://www.w3.org/2000/svg"><path d="m11 20.454c0 1.404-1.142 2.546-2.545 2.546-1.077 0-2.042-.682-2.4-1.697-.147-.417.071-.874.488-1.021.416-.147.873.071 1.021.487.133.377.491.631.892.631.521 0 .946-.425.946-.946s-.424-.945-.946-.945c-1.243 0-2.254-1.011-2.254-2.254s1.011-2.255 2.254-2.255c.896 0 1.707.53 2.066 1.353.177.404-.008.876-.413 1.054-.404.173-.876-.008-1.053-.413-.104-.239-.34-.394-.601-.394-.361 0-.655.294-.655.655s.294.654.655.654c1.404 0 2.545 1.142 2.545 2.545zm11.668-12.149c-.294-2.112-.681-3.489-.707-3.58-.095-.332-.354-.592-.687-.687-.06-.017-.689-.192-1.775-.392v-1.146c0-.828-.671-1.5-1.5-1.5s-1.5.672-1.5 1.5v.724c-1.286-.13-2.797-.224-4.5-.224s-3.214.093-4.5.224v-.724c0-.828-.671-1.5-1.5-1.5s-1.5.672-1.5 1.5v1.146c-1.087.201-1.715.375-1.775.393-.332.095-.592.354-.687.687-.026.091-.413 1.469-.707 3.58 1.794-.488 5.558-1.305 10.668-1.305s8.874.818 10.668 1.305zm-6.821 6.699c-.439.047-.758.44-.711.88.001.016.165 1.58.165 3.116 0 2.4-.578 2.4-1 2.4s-1 0-1-2.4c0-1.536.163-3.101.165-3.116.046-.439-.272-.833-.711-.88-.447-.049-.833.272-.879.712-.007.067-.173 1.661-.173 3.284 0 1.094 0 4 2.6 4s2.6-2.906 2.6-4c0-1.623-.166-3.217-.173-3.284-.046-.44-.434-.762-.879-.712zm6.916.657c-.077-.435-.495-.725-.926-.649-.435.076-.726.491-.65.926 0-.098.246 1.688.212 3.281l-1.857-3.772c-.153-.312-.488-.491-.831-.438-.342.049-.615.312-.675.653-.01.056-.236 1.372-.236 3.339s.227 3.283.236 3.339c.077.435.487.725.926.649.435-.076.726-.49.65-.926 0 .099-.245-1.686-.212-3.28l1.856 3.771c.152.312.494.487.831.438.343-.049.615-.312.675-.653.009-.056.237-1.372.237-3.339s-.228-3.283-.237-3.339zm-2.359-2.18c.318-.216.686-.369 1.088-.439.526-.091 1.04-.02 1.505.164.012-.944-.032-1.896-.097-2.75-1.03-.321-5.078-1.456-10.9-1.456s-9.871 1.135-10.9 1.456c-.061.797-.1 1.649-.1 2.544 0 4.587.996 8.126 1.039 8.275.095.332.354.592.687.687.057.016.619.173 1.6.36-.053-.117-.113-.23-.157-.353-.249-.707-.208-1.468.116-2.144.107-.222.24-.427.396-.609-.306-.587-.479-1.254-.479-1.961 0-2.346 1.909-4.255 4.254-4.255.857 0 1.672.259 2.356.715.571-.547 1.377-.785 2.159-.699.497.053.95.235 1.331.509.381-.274.835-.456 1.334-.509.609-.068 1.217.078 1.741.396.316-.192.669-.329 1.053-.384.706-.108 1.408.063 1.975.453z"/></svg>