<?xml version="1.0" encoding="UTF-8"?>
<svg xmlns="http://www.w3.org/2000/svg" id="Layer_1" data-name="Layer 1" viewBox="0 0 24 24">
  <path d="M3.897,12.134H20.103c.829,0,1.5-.672,1.5-1.5s-.671-1.5-1.5-1.5h-1.209c-.121-.96-.367-1.79-.739-2.493l.631-.626c.588-.584,.592-1.533,.009-2.122-.584-.586-1.533-.592-2.121-.009l-.644,.639c-.712-.374-1.555-.62-2.53-.741v-1.187c0-.828-.671-1.5-1.5-1.5s-1.5,.672-1.5,1.5v1.187c-.975,.121-1.818,.367-2.53,.741l-.643-.638c-.588-.585-1.538-.58-2.121,.008-.584,.588-.58,1.538,.008,2.121l.631,.627c-.372,.703-.618,1.534-.739,2.493h-1.209c-.829,0-1.5,.672-1.5,1.5s.671,1.5,1.5,1.5Z"/>
  <path d="M21.5,19.905c-.473,0-.922-.207-1.263-.584-.568-.629-1.656-.629-2.225,0-.682,.754-1.844,.754-2.525,0-.568-.629-1.656-.629-2.225,0-.681,.755-1.844,.754-2.525,0-.284-.314-.688-.494-1.112-.494h0c-.424,0-.828,.18-1.112,.494-.682,.754-1.844,.754-2.525,0-.568-.629-1.656-.629-2.225,0-.341,.377-.79,.584-1.263,.584-.829,0-1.5,.672-1.5,1.5s.671,1.5,1.5,1.5c.837,0,1.657-.232,2.375-.66,1.436,.854,3.312,.856,4.75,0,1.437,.855,3.313,.855,4.75,0,1.437,.855,3.313,.855,4.75,0,.718,.428,1.538,.66,2.375,.66,.829,0,1.5-.672,1.5-1.5s-.671-1.5-1.5-1.5Z"/>
  <path d="M2.5,17.789c.837,0,1.657-.232,2.375-.66,1.436,.855,3.312,.855,4.75,0,1.437,.855,3.313,.855,4.75,0,1.437,.855,3.313,.855,4.75,0,.718,.428,1.538,.66,2.375,.66,.829,0,1.5-.672,1.5-1.5s-.671-1.5-1.5-1.5c-.473,0-.922-.207-1.263-.584-.568-.629-1.656-.629-2.225,0-.682,.754-1.844,.754-2.525,0-.568-.629-1.656-.629-2.225,0-.681,.754-1.844,.754-2.525,0-.284-.314-.688-.494-1.112-.494h0c-.424,0-.828,.18-1.112,.494-.682,.754-1.844,.754-2.525,0-.568-.629-1.656-.629-2.225,0-.341,.377-.79,.584-1.263,.584-.829,0-1.5,.672-1.5,1.5s.671,1.5,1.5,1.5Z"/>
</svg>
