<svg id="Layer_1" viewBox="0 0 24 24" xmlns="http://www.w3.org/2000/svg" data-name="Layer 1"><path d="m22.517 14.317c-.092-.352-.369-.626-.721-.716-.097-.024-2.393-.602-4.296-.602s-4.199.577-4.296.602c-.353.09-.629.364-.721.716-.02.075-.483 1.86-.483 3.683s.463 3.607.483 3.683c.092.352.369.626.721.716.097.024 2.393.602 4.296.602s4.199-.577 4.296-.602c.353-.09.629-.364.721-.716.02-.075.483-1.86.483-3.683s-.463-3.607-.483-3.683zm-4.017 3.683h-2c-.552 0-1-.447-1-1s.448-1 1-1h2c.552 0 1 .447 1 1s-.448 1-1 1zm-9-6c-3.752 0-5.5-1.748-5.5-5.5s1.748-5.5 5.5-5.5 5.5 1.748 5.5 5.5-1.748 5.5-5.5 5.5zm1.406 11h-8.906c-.269 0-.526-.108-.714-.3s-.291-.452-.286-.721c.009-4.418 1.72-7.176 5.328-7.96.345-.08.709.05.943.316.86.974 1.802 2.11 2.756 2.845-.016.27-.027.544-.027.82 0 2.021.491 3.97.548 4.19.077.292.204.56.358.81z"/></svg>