<svg id="Layer_1" viewBox="0 0 24 24" xmlns="http://www.w3.org/2000/svg" data-name="Layer 1"><path d="m23 4.5c0 .829-.671 1.5-1.5 1.5h-3v1c.011.539-.464 1.01-1 1-.212 0-.423-.067-.6-.2-1.024-.768-1.933-1.676-2.701-2.701-.266-.355-.266-.844 0-1.199.768-1.024 1.676-1.933 2.701-2.701.303-.228.708-.264 1.047-.094.339.169.553.516.553.895v1h3c.829 0 1.5.671 1.5 1.5zm-3.602 7.612c-1.283-.927-3.953-2.081-7.641-2.55-.103-2.924-.433-5.111-.85-6.584-.314-1.112-1.275-1.992-2.43-1.98-1.59.016-2.71 1.441-2.436 2.932.296 1.607.808 4.126.808 6.995 0 1.018-.06 2.451-.252 3.955-1.035-1.453-2.01-2.327-2.01-2.327-.705-.611-1.663-.71-2.469-.29-.835.436-1.251 1.358-1.082 2.237 0 0 1.226 4.693 5.457 7.95 0 0 1.256.55 5.656.55 1.892 0 3.528-.158 4.445-.293.659-.097 1.223-.524 1.507-1.127 1.013-2.15 1.81-4.282 1.898-8.242.011-.481-.212-.945-.602-1.227z"/></svg>