<svg id="Layer_1" viewBox="0 0 24 24" xmlns="http://www.w3.org/2000/svg" data-name="Layer 1"><path d="m4.5 10c-.829 0-1.5-.671-1.5-1.5v-3h-1c-.539.011-1.01-.464-1-1 0-.212.067-.423.2-.6.768-1.024 1.676-1.933 2.701-2.701.355-.266.844-.266 1.199 0 1.024.768 1.933 1.676 2.701 2.701.228.303.264.708.094 1.047-.169.339-.516.553-.895.553h-1v3c0 .829-.671 1.5-1.5 1.5zm17.898 2.114c-1.286-.93-3.99-2.137-7.695-2.607-.092-3.044-.368-5.013-.796-6.527-.314-1.112-1.275-1.992-2.43-1.98-1.59.016-2.71 1.441-2.436 2.932.296 1.607.808 4.126.808 6.995 0 1.018-.06 2.451-.252 3.955-1.035-1.453-2.01-2.327-2.01-2.327-.705-.611-1.663-.71-2.469-.29-.835.436-1.251 1.358-1.082 2.237 0 0 1.226 4.693 5.457 7.95 0 0 1.256.55 5.656.55 1.892 0 3.528-.158 4.445-.293.659-.097 1.223-.524 1.507-1.127 1.013-2.15 1.81-4.282 1.898-8.242.011-.481-.212-.945-.602-1.227z"/></svg>