<svg id="Layer_1" viewBox="0 0 24 24" xmlns="http://www.w3.org/2000/svg" data-name="Layer 1"><path d="m23 12.483c0 4.004-.485 8.608-.506 8.802-.048.448-.389.809-.834.881-.103.017-1.358.217-3.138.418.075-1.447.302-6.147.414-11.485.28-.281.57-.562.884-.844.381-.341.955-.341 1.336 0 .484.435 1.052.96 1.589 1.561.164.184.255.42.255.667zm-18.82-2.228c-.381-.341-.955-.341-1.336 0-.484.435-1.052.96-1.589 1.561-.164.184-.255.42-.255.667 0 4.004.485 8.608.506 8.802.048.448.389.809.834.881.103.017 1.358.217 3.138.418-.075-1.447-.302-6.147-.414-11.485-.28-.281-.57-.562-.884-.844zm8.82 8.745c0-.878-.121-1-1-1s-1 .122-1 1v3.986c.335.008.669.014 1 .014s.665-.006 1-.014zm4-14.191c.068 4.668-.35 15.976-.49 17.975-.49.042-.994.081-1.51.113v-3.897c0-1.991-1.01-3-3-3s-3 1.009-3 3v3.897c-.516-.032-1.021-.071-1.51-.113-.141-2.033-.557-13.278-.49-17.975 0-.246.091-.483.254-.667 1.938-2.169 4.305-3.046 4.404-3.082.221-.08.463-.08.684 0 .1.036 2.466.913 4.404 3.082.163.184.254.421.254.667zm-3.081 4.71.495-.824c.183-.305-.037-.694-.393-.694h-1.013l-.624-1.04c-.178-.297-.608-.297-.786 0l-.624 1.04h-1.013c-.356 0-.576.389-.393.694l.495.824-.495.825c-.183.305.037.694.393.694h1.013l.624 1.04c.178.297.608.297.786 0l.624-1.04h1.013c.356 0 .576-.389.393-.694z"/></svg>