<svg id="Layer_1" viewBox="0 0 24 24" xmlns="http://www.w3.org/2000/svg" data-name="Layer 1"><path d="m17 5c0-1.822 1.984-3.474 2.382-3.786.362-.285.873-.285 1.235 0 .398.312 2.382 1.964 2.382 3.786 0 1.99-1.009 3-3 3s-3-1.01-3-3zm5.538 15.417c.598.573.618 1.522.045 2.121-.574.599-1.523.617-2.121.045l-1.628-1.596c-.252.011-.52.02-.812.02-1.407 0-3.159-.175-4.135-.935-2.542-1.978-5.304-4.44-7.987-7.123-.569-.569-.887-1.323-.896-2.124-.008-.811.302-1.572.875-2.145l.341-.34-1.583-1.583c-.762.644-1.305.992-1.337 1.012-.691.437-1.625.237-2.069-.471-.44-.699-.231-1.624.467-2.065.008-.006.875-.562 1.923-1.612 1.05-1.05 1.607-1.916 1.612-1.924.445-.698 1.371-.907 2.069-.462.698.442.908 1.364.467 2.064-.02.032-.368.574-1.012 1.336l1.585 1.585.347-.346c1.17-1.165 3.082-1.155 4.262.021.125.125.243.247.366.372l-2.025 2.025c-.391.391-.391 1.023 0 1.414s1.023.391 1.414 0l2.005-2.005c.536.561 1.054 1.111 1.536 1.635l-1.956 1.956c-.391.391-.391 1.023 0 1.414s1.023.391 1.414 0l1.882-1.882c.549.621 1.043 1.194 1.469 1.703l-1.765 1.765c-.391.391-.391 1.023 0 1.414s1.023.391 1.414 0l1.595-1.595c.766 1.305.788 3.492.713 4.845l1.523 1.46z"/></svg>