<?xml version="1.0" encoding="UTF-8"?>
<svg xmlns="http://www.w3.org/2000/svg" id="Layer_1" data-name="Layer 1" viewBox="0 0 24 24">
  <path d="M21.571,16.064c.12-1.208,.205-2.582,.205-4.064,0-5.157-1.001-8.95-1.044-9.109-.088-.328-.337-.589-.66-.693-.152-.049-3.781-1.198-8.071-1.198S4.082,2.149,3.93,2.198c-.325,.104-.574,.366-.662,.696-.042,.161-1.043,3.992-1.043,9.106,0,1.486,.083,2.859,.203,4.064H21.571Z"/>
  <path d="M13,18.064v.777c0,.552-.447,1-1,1s-1-.448-1-1v-.777H2.674c.272,1.827,.571,2.959,.594,3.045,.088,.328,.337,.589,.66,.693,.152,.049,3.781,1.198,8.071,1.198s7.918-1.149,8.07-1.198c.325-.104,.574-.366,.662-.696,.022-.086,.319-1.222,.59-3.042H13Z"/>
</svg>
