<svg id="Layer_1" viewBox="0 0 24 24" xmlns="http://www.w3.org/2000/svg" data-name="Layer 1"><path d="m15.694 6.115c.21 1.19.46 3.172.46 5.884s-.249 4.695-.459 5.883c-.914.181-2.172.348-3.695.348s-2.781-.166-3.694-.347c-.21-1.19-.46-3.172-.46-5.884s.249-4.695.459-5.883c.914-.181 2.172-.348 3.695-.348s2.78.166 3.694.347zm5.652 5.884c0 .884-.023 1.751-.071 2.652-.029.58-.535 1.018-1.112.983-.056.676-.124 1.281-.198 1.823l.565.565c.238.237.346.576.29.908-.302 1.787-.626 2.721-.64 2.76-.102.29-.327.52-.615.629-.039.014-.981.364-2.606.664-.333.062-.681-.044-.923-.287l-.566-.566c-.976.144-2.132.254-3.47.254s-2.494-.11-3.47-.254l-.565.565c-.241.243-.59.349-.923.287-1.626-.3-2.568-.65-2.607-.664-.288-.109-.513-.339-.615-.629-.014-.039-.338-.974-.639-2.761-.056-.331.052-.669.289-.907l.565-.566c-.074-.542-.142-1.147-.198-1.823-.577.036-1.083-.403-1.112-.983-.048-.901-.071-1.768-.071-2.652s.023-1.751.071-2.652c.029-.58.535-1.018 1.112-.983.056-.675.124-1.281.198-1.823l-.565-.566c-.237-.237-.345-.576-.289-.907.301-1.787.626-2.722.639-2.761.102-.29.327-.52.615-.629.039-.014.981-.364 2.607-.664.335-.058.682.045.923.287l.565.565c.976-.144 2.132-.254 3.47-.254s2.494.11 3.47.254l.565-.565c.242-.242.586-.346.923-.287 1.626.3 2.567.65 2.606.664.288.109.513.338.615.628.014.04.339.974.64 2.762.056.331-.052.669-.289.907l-.565.566c.074.542.142 1.147.198 1.823.577-.035 1.083.403 1.112.983.048.901.071 1.768.071 2.652zm-3.115 0c0-3.305-.343-5.613-.632-6.968-.083-.39-.383-.699-.771-.793-1.029-.249-2.702-.547-4.828-.547s-3.8.298-4.829.548c-.388.094-.688.403-.771.793-.288 1.353-.631 3.66-.631 6.967s.343 5.613.632 6.968c.083.39.383.699.771.793 1.027.249 2.699.547 4.828.547s3.8-.298 4.829-.548c.388-.094.688-.403.771-.793.288-1.353.631-3.66.631-6.967z"/></svg>