<svg id="Layer_1" viewBox="0 0 24 24" xmlns="http://www.w3.org/2000/svg" data-name="Layer 1"><path d="m22.926 14h-13.926v-4h13.926c.045.654.074 1.325.074 2s-.029 1.346-.074 2zm-13.926 2v5.912c.904.054 1.901.088 3 .088 6.092 0 9.188-1.009 9.316-1.052.324-.107.571-.374.654-.706.028-.111.464-1.884.76-4.242zm0-8h13.73c-.296-2.359-.732-4.132-.76-4.242-.083-.332-.33-.599-.654-.706-.129-.043-3.224-1.052-9.316-1.052-1.099 0-2.096.034-3 .088zm-2 2h-5.926c-.045.654-.074 1.325-.074 2s.029 1.346.074 2h5.926zm0 6h-5.73c.296 2.359.732 4.132.76 4.242.083.332.33.599.654.706.087.029 1.526.496 4.316.798zm0-8v-5.746c-2.79.302-4.23.769-4.316.798-.324.107-.571.374-.654.706-.028.111-.464 1.884-.76 4.242z"/></svg>