<svg id="Layer_1" viewBox="0 0 24 24" xmlns="http://www.w3.org/2000/svg" data-name="Layer 1"><path d="m8 9v3h2c.553 0 1 .447 1 1s-.447 1-1 1h-2v2h4c.553 0 1 .447 1 1s-.447 1-1 1h-5c-.553 0-1-.447-1-1v-8h-4.843c-.094.955-.157 1.975-.157 3 0 4.076.988 8.074 1.03 8.242.082.332.329.599.653.706.129.043 3.225 1.052 9.316 1.052s9.188-1.009 9.316-1.052c.324-.107.571-.374.653-.706.042-.168 1.03-4.166 1.03-8.242 0-1.025-.063-2.045-.157-3zm4 4c0-.553.447-1 1-1h2c.553 0 1 .447 1 1s-.447 1-1 1h-2c-.553 0-1-.447-1-1zm5 5h-2c-.553 0-1-.447-1-1s.447-1 1-1h2c.553 0 1 .447 1 1s-.447 1-1 1zm-15.593-11c.278-1.845.6-3.148.623-3.242.082-.332.329-.599.653-.706.129-.043 3.225-1.052 9.316-1.052s9.188 1.009 9.316 1.052c.324.107.571.374.653.706.024.094.346 1.397.623 3.242z"/></svg>