<svg id="Layer_1" viewBox="0 0 24 24" xmlns="http://www.w3.org/2000/svg" data-name="Layer 1"><path d="m3.093 15c-.058-.904-.093-1.902-.093-3 0-6.103 1.078-9.206 1.124-9.335.099-.277.315-.498.591-.602.116-.043 2.888-1.063 7.285-1.063s7.169 1.021 7.285 1.063c.275.104.492.324.591.602.046.129 1.124 3.232 1.124 9.335 0 1.098-.036 2.096-.093 3zm17.636 2c-.323 2.802-.823 4.248-.854 4.335-.099.277-.315.498-.591.602-.116.043-2.888 1.063-7.285 1.063s-7.169-1.021-7.285-1.063c-.275-.104-.492-.324-.591-.602-.031-.087-.531-1.533-.854-4.335h17.459zm-6.729 3c0-.553-.447-1-1-1h-2c-.553 0-1 .447-1 1s.447 1 1 1h2c.553 0 1-.447 1-1z"/></svg>