<?xml version="1.0" encoding="UTF-8"?>
<svg xmlns="http://www.w3.org/2000/svg" id="Layer_1" data-name="Layer 1" viewBox="0 0 24 24">
  <path d="M12,1.988C6.878,1.988,1,3.238,1,12.988c0,2.446,.366,4.785,1.03,6.584,.355,.96,1.096,1.738,2.035,2.136,.945,.4,1.982,.392,2.92-.022l1.896-.836h6.237l1.884,.834c1.487,.608,2.457,.221,2.918,.026,.938-.396,1.682-1.172,2.039-2.13,.671-1.802,1.042-4.143,1.042-6.592C23,3.238,17.122,1.988,12,1.988Zm0,13.578c-1.22,0-2.213-.993-2.213-2.213,0-.237,.038-.465,.107-.679l-2.588-2.525c-.396-.386-.403-1.019-.018-1.414,.388-.396,1.02-.401,1.414-.018l2.599,2.536c.219-.073,.454-.113,.697-.113,1.22,0,2.213,.993,2.213,2.213s-.993,2.213-2.213,2.213Z"/>
</svg>
