<?xml version="1.0" encoding="UTF-8"?>
<svg xmlns="http://www.w3.org/2000/svg" id="Layer_1" data-name="Layer 1" viewBox="0 0 24 24">
  <path d="M12,1.798C6.879,1.798,1,3.048,1,12.798c0,3.87,.905,6.631,2.767,8.44,.123,.12,.274,.205,.44,.25,.109,.028,2.742,.714,7.793,.714s7.697-.685,7.808-.714c.167-.044,.319-.131,.442-.251,1.851-1.806,2.75-4.565,2.75-8.439C23,3.048,17.121,1.798,12,1.798Zm-5.248,15.387c-.104,.034-.209,.05-.312,.05-.42,0-.812-.267-.95-.688-.324-.986-.489-2.248-.489-3.749,0-.553,.447-1,1-1s1,.447,1,1c0,1.271,.135,2.351,.39,3.124,.173,.524-.113,1.09-.638,1.263Zm5.248-2.174c-1.22,0-2.213-.993-2.213-2.213,0-.222,.033-.437,.095-.64l-2.915-2.566c-.414-.365-.454-.997-.09-1.412,.367-.415,.997-.454,1.412-.09l2.977,2.621c.23-.081,.477-.126,.734-.126,1.22,0,2.213,.993,2.213,2.213s-.993,2.213-2.213,2.213Zm6.518,1.532c-.138,.423-.529,.691-.951,.691-.103,0-.206-.016-.309-.049-.525-.171-.813-.734-.643-1.26,.252-.775,.385-1.856,.385-3.128,0-4.509-1.012-5-5-5-.553,0-1-.447-1-1s.447-1,1-1c4.743,0,7,1.048,7,7,0,1.499-.162,2.76-.482,3.745Z"/>
</svg>
