<?xml version="1.0" encoding="UTF-8"?>
<svg xmlns="http://www.w3.org/2000/svg" id="Layer_1" data-name="Layer 1" viewBox="0 0 24 24">
  <path d="M12,1.988C6.878,1.988,1,3.238,1,12.988c0,2.446,.366,4.785,1.03,6.584,.355,.96,1.096,1.738,2.035,2.136,.945,.4,1.982,.392,2.92-.022l1.896-.836h6.237l1.884,.834c1.487,.608,2.457,.221,2.918,.026,.938-.396,1.682-1.172,2.039-2.13,.671-1.802,1.042-4.143,1.042-6.592C23,3.238,17.122,1.988,12,1.988Zm0,13.578c-.631,0-1.202-.267-1.605-.693l-3.314,.939c-.091,.026-.183,.038-.273,.038-.436,0-.837-.287-.961-.728-.15-.531,.158-1.084,.689-1.234l3.287-.931c.187-1.031,1.092-1.817,2.177-1.817,1.22,0,2.213,.993,2.213,2.213s-.993,2.213-2.213,2.213Z"/>
</svg>
