<svg id="Layer_1" viewBox="0 0 24 24" xmlns="http://www.w3.org/2000/svg" data-name="Layer 1"><path d="m15.727 4.715c-.45.4-.884.786-1.32 1.157.19.663.35 1.326.476 1.988.053.276-.053.559-.274.732-.223.173-.521.208-.777.089-.677-.314-1.285-.64-1.851-.985-.566.344-1.174.671-1.851.985-.256.12-.555.084-.777-.089s-.327-.456-.274-.732c.126-.662.285-1.325.476-1.988-.436-.371-.87-.757-1.32-1.157-.22-.195-.306-.501-.219-.782s.329-.485.621-.522c.679-.087 1.282-.152 1.848-.194.25-.603.526-1.205.827-1.803.128-.253.387-.432.67-.412.282-.021.542.159.67.412.301.598.577 1.2.827 1.803.566.042 1.17.107 1.848.194.292.037.534.242.621.522s0 .586-.219.782zm-.702 18.285h-9.462c-.64 0-1.236-.318-1.601-.843-1.984-2.847-2.94-6.798-2.94-10.657 0-1.883.282-3.835.847-5.815.169-.595.56-1.089 1.101-1.39.619-.345 1.348-.391 2.016-.116 1.089.448 1.634 1.722 1.317 2.857-.368 1.318-.626 2.807-.544 4.422-.632.846-.88 1.925-.656 2.999.277.967.823 1.864 1.49 2.914.265.436.571.879.942 1.315.35.37.93.421 1.34.102.436-.339.514-.967.175-1.403-.905-1.163-1.641-2.422-1.99-3.337-.125-.599.04-1.191.489-1.616.507-.479 1.282-.571 1.885-.224.005.005 1.436.676 2.918 2.458 1.489 1.791 2.811 4.744 3.58 7.1.199.61-.266 1.233-.907 1.233zm-1.134-9.612c.707.85 1.331 1.852 1.868 2.855.522-.797.945-1.575 1.181-2.194.125-.599-.04-1.191-.489-1.616-.507-.479-1.282-.571-1.885-.224-.003.003-.45.22-1.093.706.139.152.279.304.419.473zm8.241-7.702c-.169-.595-.56-1.089-1.101-1.39-.619-.345-1.348-.391-2.016-.116-1.089.448-1.634 1.722-1.317 2.857.368 1.318.626 2.807.544 4.422.632.846.88 1.925.656 2.999-.277.967-.823 1.864-1.49 2.914-.19.312-.412.628-.652.942.543 1.253.911 2.319 1.079 2.833.199.609.173 1.258-.029 1.853h.633c.64 0 1.236-.318 1.601-.843 1.984-2.847 2.94-6.798 2.94-10.657 0-1.883-.282-3.835-.847-5.815z"/></svg>