<svg id="Layer_1" viewBox="0 0 24 24" xmlns="http://www.w3.org/2000/svg" data-name="Layer 1"><path d="m15 12c0 1.99-1.01 3-3 3s-3-1.01-3-3 1.01-3 3-3 3 1.009 3 3zm7.171-1.842c-.742-.368-1.642-.07-2.013.671-1.389 2.778-4.193 4.695-5.315 5.381-.746-.095-1.846-.211-2.843-.211s-2.098.115-2.843.211c-1.121-.686-3.926-2.603-5.315-5.381-.37-.741-1.27-1.039-2.013-.671-.741.371-1.041 1.271-.671 2.013 1.604 3.208 4.546 5.398 6.089 6.385-.121.934-.248 2.201-.248 3.444 0 .553.447 1 1 1h8c.553 0 1-.447 1-1 0-1.243-.127-2.51-.248-3.444 1.544-.987 4.485-3.177 6.089-6.385.37-.741.07-1.642-.671-2.013zm-12.363-4.758c-.172.599-.316 1.198-.429 1.795-.048.25.048.505.248.661.201.157.471.188.702.08.612-.283 1.161-.578 1.672-.889.511.311 1.06.606 1.672.889.231.108.501.076.702-.08.2-.157.295-.412.248-.661-.114-.597-.257-1.196-.429-1.795.394-.335.786-.683 1.192-1.045.198-.176.276-.452.198-.706s-.297-.438-.561-.472c-.613-.079-1.158-.138-1.669-.176-.226-.545-.475-1.088-.747-1.628-.116-.228-.35-.39-.605-.372-.255-.019-.489.143-.605.372-.272.54-.521 1.083-.747 1.628-.512.038-1.056.097-1.669.176-.264.034-.482.218-.561.472s0 .53.198.706c.407.361.798.709 1.192 1.045z"/></svg>