<?xml version="1.0" encoding="UTF-8"?>
<svg xmlns="http://www.w3.org/2000/svg" id="Layer_1" data-name="Layer 1" viewBox="0 0 24 24">
  <path d="M19.028,12c0-.553,.448-1.002,1.002-1.002h2.966C22.629,2.741,17.682,1.173,13.002,1V3.971c0,.553-.448,1.002-1.002,1.002s-1.002-.448-1.002-1.002V1C6.318,1.173,1.371,2.741,1.004,10.998H3.971c.554,0,1.002,.448,1.002,1.002s-.448,1.002-1.002,1.002H1.004c.367,8.257,5.314,9.826,9.994,9.998v-2.971c0-.553,.448-1.002,1.002-1.002s1.002,.448,1.002,1.002v2.971c4.68-.173,9.628-1.741,9.994-9.998h-2.966c-.554,0-1.002-.448-1.002-1.002Zm-4.755,1.002h-1.272v1.272c0,.553-.448,1.002-1.002,1.002s-1.002-.448-1.002-1.002v-1.272h-1.272c-.554,0-1.002-.448-1.002-1.002s.448-1.002,1.002-1.002h1.272v-1.272c0-.553,.448-1.002,1.002-1.002s1.002,.448,1.002,1.002v1.272h1.272c.554,0,1.002,.448,1.002,1.002s-.448,1.002-1.002,1.002Z"/>
</svg>
