<svg id="Layer_1" viewBox="0 0 24 24" xmlns="http://www.w3.org/2000/svg" data-name="Layer 1"><path d="m1.09 6.297c.275-2.01.581-3.412.594-3.471.125-.571.572-1.018 1.143-1.143.059-.013 1.46-.319 3.47-.594.815-.115 1.577.462 1.689 1.283s-.462 1.577-1.283 1.689c-.919.125-1.708.259-2.277.363-.104.568-.238 1.358-.363 2.277-.103.752-.746 1.297-1.484 1.297-.9.008-1.617-.811-1.488-1.703zm5.613 13.641c-.919-.125-1.708-.259-2.277-.363-.104-.568-.238-1.358-.363-2.277-.112-.821-.871-1.399-1.689-1.283-.821.112-1.395.868-1.283 1.689.275 2.01.581 3.412.594 3.471.125.571.572 1.018 1.143 1.143.059.013 1.46.319 3.47.594.804.115 1.581-.458 1.689-1.283.112-.821-.462-1.577-1.283-1.689zm14.924-3.924c-.828-.118-1.577.463-1.689 1.283-.125.919-.259 1.709-.363 2.277-.568.104-1.358.238-2.277.363-.82.112-1.396.868-1.283 1.689.108.825.885 1.398 1.689 1.283 2.01-.274 3.412-.581 3.471-.594.571-.125 1.018-.571 1.143-1.143.013-.059.319-1.461.594-3.471.112-.821-.463-1.577-1.283-1.689zm-4.33-11.951c.919.125 1.709.259 2.277.363.104.568.238 1.358.363 2.277.103.752.746 1.297 1.484 1.297.9.008 1.618-.811 1.488-1.703-.274-2.01-.581-3.412-.594-3.471-.125-.571-.571-1.018-1.143-1.143-.059-.013-1.461-.319-3.471-.594-.827-.116-1.577.463-1.689 1.283-.112.821.463 1.577 1.283 1.689zm-8.247 7.919c.015 1.893 1.113 3.011 3.007 3.019 1.869-.012 2.96-1.099 2.995-3.017-.031-1.829-1.178-2.973-3.006-2.983-1.842.011-2.961 1.126-2.995 2.981zm6.88 5.542c-.434-.801-1.243-1.338-2.167-1.436-1.135-.117-2.289-.118-3.428 0-.921.097-1.73.634-2.164 1.435-.168.311-.16.686.02.988.181.303.507.488.859.488h6c.353 0 .679-.186.859-.488.18-.303.188-.678.02-.988zm1.002-6.646c1.293-.322 2.04-1.323 2.068-2.894-.031-1.829-1.178-2.973-3.006-2.983-1.528.009-2.548.787-2.874 2.109 1.982.386 3.408 1.798 3.813 3.769zm.779 1.21c-.222-.023-.447-.021-.671-.035-.038 1.163-.352 2.158-.89 2.947h2.849c.353 0 .679-.186.859-.488.18-.303.188-.678.02-.988-.434-.801-1.243-1.338-2.167-1.436zm-12.711-4.105c.028 1.571.775 2.572 2.068 2.894.405-1.97 1.831-3.382 3.813-3.769-.326-1.322-1.346-2.1-2.874-2.109-1.829.011-2.975 1.154-3.006 2.983zm1.288 4.104c-.924.098-1.733.635-2.167 1.436-.168.311-.16.686.02.988.181.303.507.488.859.488h2.849c-.539-.789-.852-1.784-.89-2.947-.224.014-.449.012-.671.035z"/></svg>