<svg id="Layer_1" viewBox="0 0 24 24" xmlns="http://www.w3.org/2000/svg" data-name="Layer 1"><path d="m14.748 6.733c-.122-.895-.293-2.691-.232-5.326.137.082.268.174.383.287 1.191 1.167 4.157 4.074 5.347 5.255.015.015.027.033.042.049-2.329.099-4.478-.124-5.54-.265zm6.252 5.267c0 2.97-.338 6.092-.999 9.185-.085.399-.406.718-.804.806-3.01.668-5.796 1.008-8.196 1.008s-5.186-.34-8.196-1.008c-.399-.088-.719-.407-.804-.806-.661-3.093-1-6.216-1-9.185s.338-6.092.999-9.185c.085-.399.405-.718.804-.806 3.01-.668 5.796-1.008 8.197-1.008.492 0 1.004.018 1.527.047-.129 4.393.355 6.688.376 6.784.087.396.404.7.804.771.124.021 2.458.424 5.381.424.578 0 1.183-.024 1.795-.061.071 1.03.117 2.068.117 3.036zm-13.85 1.867c.317 0 .618-.19.743-.503.164-.41-.035-.875-.445-1.04-.083-.033-.851-.324-2.297-.324s-2.215.291-2.297.324c-.407.163-.603.622-.444 1.03s.621.614 1.031.458c.004-.002.317-.111.911-.173v5.56c0 .442.358.8.8.8s.8-.358.8-.8v-5.56c.9.095.751.185 1.2.227zm6.337 5.336c0-.054-.005-1.348-.777-3.588-.725-2.102-1.448-3.116-1.585-3.298-.302-.399-.974-.399-1.275 0-.138.182-.861 1.196-1.585 3.298-.772 2.24-.777 3.534-.777 3.588 0 .44.357.794.798.795h.002c.439 0 .796-.356.8-.796 0-.007.008-.428.169-1.202h2.463c.161.773.168 1.194.169 1.198-.001.442.355.801.797.802h.002c.441 0 .799-.356.8-.797zm5.634-.529c-.008-.008-.638-.743-1.417-2.072 1.046-1.965 1.509-3.51 1.528-3.575.125-.424-.116-.868-.539-.994-.42-.124-.869.116-.995.539-.004.012-.295.965-.912 2.282-.617-1.318-.908-2.271-.912-2.282-.126-.423-.57-.663-.995-.539-.423.126-.665.57-.539.994.02.065.483 1.61 1.529 3.575-.779 1.329-1.41 2.064-1.417 2.072-.29.333-.255.838.078 1.128.332.289.835.258 1.127-.076.028-.031.496-.577 1.129-1.561.633.984 1.101 1.529 1.128 1.561.291.334.796.365 1.127.076.333-.29.367-.795.078-1.128zm-8.634-4.279c-.229.466-.568 1.275-.796 2.005h1.591c-.227-.732-.566-1.538-.796-2.005z"/></svg>