<svg id="Layer_1" viewBox="0 0 24 24" xmlns="http://www.w3.org/2000/svg" data-name="Layer 1"><g><path d="m8.312 9.667c.39-.778 1.087-1.345 1.917-1.566.1-.026.443-.113.982-.213.149-.373.374-.715.667-1.008.174-.174.607-.56 1.293-.879h-10.539c-.028.34-.054.697-.075 1.067-.612.189-1.057.759-1.057 1.433 0 .66.426 1.22 1.018 1.42.008.197.018.39.03.58h5.414c.172-.464.31-.753.35-.833z"/><path d="m6.509 17.5c.026-.709.1-1.24.126-1.408.064-.394.199-.762.396-1.089.058-.936.19-1.778.349-2.503h-4.628c.195 1.376.433 2.271.45 2.333.089.327.337.587.66.691.048.015.454.355 1.638.476v.5c0 .432.5 1 1 1z"/><g><path d="m15.5 15c2.696 0 4.95.157 6.482.305-.138-2.844-1.048-4.674-1.09-4.757-.129-.254-.36-.441-.636-.515-.054-.014-.909-.238-2.257-.392v-.642c0-.265-.105-.52-.293-.707-.081-.081-.832-.793-2.207-.793s-2.126.712-2.207.793c-.188.188-.293.442-.293.707v.642c-1.346.153-2.203.377-2.256.391-.277.074-.51.263-.638.52-.042.083-.949 1.931-1.088 4.752 1.532-.149 3.786-.305 6.482-.305z"/><path d="m19 17.092v.408c0 .552-.447 1-1 1s-1-.448-1-1v-.483c-.483-.011-.983-.017-1.5-.017s-1.017.006-1.5.017v.483c0 .552-.447 1-1 1s-1-.448-1-1v-.408c-1.449.076-2.643.186-3.483.278-.01.192-.017.404-.017.63 0 .901.108 1.578.113 1.606.057.35.295.644.625.772.035.013.308.118.761.258v.229c0 1.177.897 2.135 2 2.135.921 0 1.699-.669 1.93-1.576.504.048 1.03.076 1.57.076s1.066-.029 1.57-.076c.231.907 1.008 1.576 1.93 1.576 1.103 0 2-.958 2-2.135v-.23c.452-.14.725-.244.76-.257.332-.128.57-.422.627-.773.005-.029.113-.712.113-1.605 0-.226-.007-.438-.017-.63-.84-.092-2.033-.202-3.483-.278z"/></g></g><path d="m16.002 2.831c-.059-.343-.292-.63-.614-.76-.109-.043-2.388-1.071-5.888-1.071s-5.762 1.028-5.872 1.071c-.323.129-.555.417-.614.76-.008.046-.081.48-.17 1.169h13.328c-.089-.689-.163-1.123-.17-1.169z"/></svg>