<svg id="Layer_1" viewBox="0 0 24 24" xmlns="http://www.w3.org/2000/svg" data-name="Layer 1"><path d="m11 9.013c-1.021.025-2.03.085-3 .166v-.679c0-1.233.267-1.5 1.5-1.5s1.5.267 1.5 1.5zm5-.513c0-1.233-.267-1.5-1.5-1.5s-1.5.267-1.5 1.5v.513c1.021.025 2.03.085 3 .166zm-8 7c0 1.233.267 1.5 1.5 1.5s1.5-.267 1.5-1.5v-.513c-1.019-.024-2.027-.082-3-.16v.674zm5 0c0 1.233.267 1.5 1.5 1.5s1.5-.267 1.5-1.5v-.674c-.973.079-1.981.137-3 .16v.513zm-10-1.271v.771c0 1.233.267 1.5 1.5 1.5s1.5-.267 1.5-1.5v-.368c-1.103-.125-2.122-.266-3-.404zm18-4.43v-.799c0-1.233-.267-1.5-1.5-1.5s-1.5.267-1.5 1.5v.38c1.123.131 2.14.279 3 .419zm-9 1.201c-3.998 0-8.107.655-10.08 1.018 2.195.388 6.189.982 10.08.982s7.885-.594 10.08-.982c-1.973-.363-6.082-1.018-10.08-1.018zm-7.5-5.5c.93 0 1.667.198 2.228.573.579-.705 1.497-1.073 2.772-1.073 1.09 0 1.918.27 2.5.785.582-.515 1.41-.785 2.5-.785 1.275 0 2.193.368 2.772 1.073.561-.375 1.298-.573 2.228-.573 1.662 0 2.727.614 3.204 1.808-.293-2.516-.701-4.402-.728-4.523-.083-.381-.381-.679-.762-.762-.19-.042-4.713-1.023-9.214-1.023s-9.024.981-9.214 1.023c-.381.083-.679.381-.762.762-.027.121-.435 2.007-.728 4.523.477-1.194 1.542-1.808 3.204-1.808zm15 13c-.93 0-1.667-.198-2.228-.573-.579.705-1.497 1.073-2.772 1.073-1.09 0-1.918-.27-2.5-.785-.582.515-1.41.785-2.5.785-1.275 0-2.193-.368-2.772-1.073-.561.375-1.298.573-2.228.573-1.662 0-2.727-.614-3.204-1.808.293 2.516.701 4.402.728 4.523.083.381.381.679.762.762.19.042 4.713 1.023 9.214 1.023s9.024-.981 9.214-1.023c.381-.083.679-.381.762-.762.027-.121.435-2.007.728-4.523-.477 1.194-1.542 1.808-3.204 1.808zm0-2c1.233 0 1.5-.267 1.5-1.5v-.771c-.878.138-1.897.279-3 .404v.368c0 1.233.267 1.5 1.5 1.5zm-15-9c-1.233 0-1.5.267-1.5 1.5v.799c.86-.14 1.877-.288 3-.419v-.38c0-1.233-.267-1.5-1.5-1.5z"/></svg>