<svg id="Layer_1" viewBox="0 0 24 24" xmlns="http://www.w3.org/2000/svg" data-name="Layer 1"><path d="m22.999 9.046c-.024.536-.467.954-.998.954-.016 0-.031 0-.047 0-.552-.025-.979-.493-.953-1.045 0-.002.001-.087-.006-.229-1.068.65-3.176 1.842-6.464 3.321 3.044 4.135 4.36 8.853 4.416 9.059.218.798-.253 1.622-1.051 1.841-.778.218-1.626-.245-1.843-1.05-.011-.04-.966-3.443-3.053-6.77-2.087 3.327-3.042 6.73-3.053 6.77-.217.805-1.065 1.269-1.843 1.05-.798-.219-1.269-1.042-1.051-1.841.049-.177 1.027-3.687 3.232-7.295-2.305.868-3.553 1.175-3.629 1.193-.3.073-.621.001-.863-.195-.052-.042-.356-.302-.721-.789l-2.048.864c-.745.319-1.643-.028-1.965-.799-.322-.764.036-1.643.799-1.965l1.994-.841c-.113-.573-.106-.958-.104-1.024.014-.311.172-.597.428-.775.095-.066 2.398-1.656 7.375-3.89 3.329-1.494 5.641-2.284 6.845-2.653-.103-.103-.169-.159-.172-.161-.423-.351-.485-.98-.136-1.405.35-.424.974-.491 1.4-.145.059.047 1.45 1.192 2.517 3.569 1.068 2.377.999 4.178.996 4.253z"/></svg>