<?xml version="1.0" encoding="UTF-8"?>
<svg xmlns="http://www.w3.org/2000/svg" id="Layer_1" data-name="Layer 1" viewBox="0 0 24 24">
  <path d="M18.438,1.015c-2.682,0-3.245,1.763-3.245,3.242s.563,3.241,3.245,3.241,3.244-1.763,3.244-3.241-.563-3.242-3.244-3.242Zm0,4.483c-.964,0-1.245-.163-1.245-1.241s.28-1.242,1.245-1.242,1.244,.163,1.244,1.242-.28,1.241-1.244,1.241Z"/>
  <path d="M13.61,10.101c-.011-1.732-.039-4.556-.081-5.199-.142-2.188-2.005-3.901-4.241-3.901s-4.099,1.714-4.241,3.901c-.041,.643-.07,3.5-.081,5.2-1.78,1.069-2.648,3.03-2.648,5.969,0,6.211,3.978,6.93,6.97,6.93s6.971-.719,6.971-6.93c0-2.939-.868-4.9-2.648-5.97Zm-4.322,8.911c-1.629,0-2.954-1.319-2.954-2.941,0-1.273,.816-2.359,1.954-2.768V5.933c0-.553,.448-1,1-1s1,.447,1,1v7.37c1.139,.409,1.955,1.495,1.955,2.768,0,1.622-1.325,2.941-2.955,2.941Z"/>
</svg>
