<svg id="Layer_1" viewBox="0 0 24 24" xmlns="http://www.w3.org/2000/svg" data-name="Layer 1"><path d="m2.046 3.729c-.205-.803.28-1.619 1.083-1.823 1.328-.339 4.245-.906 8.871-.906s7.543.567 8.871.906c.803.204 1.288 1.021 1.083 1.823-.202.809-1.043 1.289-1.824 1.083-.959-.244-3.671-.812-8.129-.812s-7.17.568-8.129.812c-.804.209-1.619-.28-1.824-1.083zm18.824 3.177c-1.328-.339-4.245-.906-8.871-.906s-7.543.567-8.871.906c-.803.204-1.288 1.021-1.083 1.823.205.803 1.021 1.293 1.824 1.083.846-.215 3.06-.682 6.629-.789v12.477c0 .828.671 1.5 1.5 1.5s1.5-.672 1.5-1.5v-12.477c3.569.107 5.784.574 6.629.789.781.206 1.623-.274 1.824-1.083.205-.803-.28-1.619-1.083-1.823z"/></svg>