<svg id="Layer_1" viewBox="0 0 24 24" xmlns="http://www.w3.org/2000/svg" data-name="Layer 1"><path d="m22.955 21.314c-.198.81-1.036 1.292-1.819 1.091-.014-.003-1.68-.405-4.136-.405s-4.123.402-4.139.406c-.806.196-1.616-.293-1.815-1.096s.288-1.615 1.091-1.815c.081-.021 2.012-.495 4.864-.495s4.783.475 4.864.495c.804.201 1.292 1.016 1.091 1.819zm-10.691-10.123c-2.262-3.535-5.27-6.545-8.943-8.946-.692-.454-1.623-.259-2.076.434-.454.693-.259 1.623.435 2.076 3.03 1.982 5.556 4.416 7.519 7.245-1.963 2.829-4.488 5.263-7.519 7.245-.693.453-.888 1.383-.435 2.076.456.698 1.393.884 2.076.434 3.673-2.401 6.682-5.411 8.943-8.946.315-.493.315-1.124 0-1.617z"/></svg>