<?xml version="1.0" encoding="UTF-8"?>
<svg xmlns="http://www.w3.org/2000/svg" id="Layer_1" data-name="Layer 1" viewBox="0 0 24 24">
  <path d="M21.806,2.858c-.1-.326-.357-.578-.685-.671-.173-.048-4.273-1.188-9.121-1.188S3.053,2.14,2.88,2.188c-.329,.093-.588,.347-.687,.674-.049,.161-1.193,4.007-1.193,9.139,0,5.175,1.146,8.982,1.194,9.142,.1,.326,.357,.578,.685,.671,.173,.048,4.273,1.188,9.121,1.188s8.947-1.14,9.12-1.188c.329-.093,.588-.347,.687-.674,.049-.161,1.193-4.007,1.193-9.139,0-5.175-1.146-8.982-1.194-9.142Zm-4.87,8.695c-.566,.041-1.03-.376-1.068-.926-.073-1.022-.23-1.86-.345-2.37-.551-.12-1.466-.288-2.522-.36v8.24h2.319c.553,0,1,.447,1,1s-.447,1-1,1h-6.639c-.553,0-1-.447-1-1s.447-1,1-1h2.319V7.898c-1.055,.072-1.971,.24-2.522,.36-.114,.512-.271,1.353-.345,2.37-.037,.527-.477,.929-.996,.929-.024,0-.048,0-.072-.003-.552-.039-.966-.518-.926-1.068,.139-1.936,.543-3.291,.561-3.348,.099-.327,.357-.581,.687-.674,.088-.024,2.171-.602,4.614-.602s4.526,.577,4.614,.602c.327,.093,.586,.346,.685,.671,.018,.057,.424,1.402,.562,3.351,.04,.551-.375,1.029-.926,1.068Z"/>
</svg>
