<svg id="Layer_1" viewBox="0 0 24 24" xmlns="http://www.w3.org/2000/svg" data-name="Layer 1"><path d="m11.5 4.037v17.463c0 .829-.671 1.5-1.5 1.5s-1.5-.671-1.5-1.5v-17.463c-1.988.091-3.459.342-4.293.526-.101.542-.207 1.268-.207 1.938 0 .829-.671 1.5-1.5 1.5s-1.5-.671-1.5-1.5c0-1.676.469-3.468.489-3.544.13-.491.5-.883.983-1.042.114-.037 2.842-.915 7.528-.915s7.414.877 7.528.915c.483.158.853.55.983 1.042.02.076.489 1.868.489 3.544 0 .829-.671 1.5-1.5 1.5s-1.5-.671-1.5-1.5c0-.67-.106-1.396-.207-1.938-.833-.183-2.303-.434-4.293-.525zm11.25 9.584c-.107-.528-.49-.958-1.002-1.126-.154-.051-1.571-.495-3.748-.495s-3.593.444-3.748.495c-.513.168-.895.598-1.002 1.126-.059.288-.25 1.275-.25 1.879 0 .829.671 1.5 1.5 1.5s1.5-.671 1.5-1.5c0-.071.012-.193.031-.34.14-.024.299-.046.469-.067v6.408c0 .829.671 1.5 1.5 1.5s1.5-.671 1.5-1.5v-6.408c.17.021.329.044.469.067.02.148.031.27.031.341 0 .829.671 1.5 1.5 1.5s1.5-.671 1.5-1.5c0-.604-.191-1.591-.25-1.879z"/></svg>