<svg id="Layer_1" viewBox="0 0 24 24" xmlns="http://www.w3.org/2000/svg" data-name="Layer 1"><path d="m22.187 6.448c-.116-.309-.377-.541-.697-.619-.087-.022-1.457-.35-3.989-.586v-.243c0-.953.047-1 1-1 .828 0 1.5-.672 1.5-1.5s-.672-1.5-1.5-1.5c-1.03 0-1.861.222-2.5.642-.639-.419-1.47-.642-2.5-.642-.829 0-1.5.672-1.5 1.5s.671 1.5 1.5 1.5c.986-.018.995.098 1.005 1.049-.776-.03-1.606-.049-2.505-.049-6.052 0-9.352.795-9.489.829-.321.078-.582.311-.698.619-.033.089-.813 2.209-.813 5.552s.78 5.463.813 5.552c.116.309.377.541.698.619.137.034 3.437.829 9.489.829.899 0 1.729-.019 2.505-.049-.01.951-.019 1.067-1.005 1.049-.829 0-1.5.672-1.5 1.5s.671 1.5 1.5 1.5c1.03 0 1.861-.222 2.5-.642.639.419 1.47.642 2.5.642.828 0 1.5-.672 1.5-1.5s-.672-1.5-1.5-1.5c-.953 0-1-.047-1-1v-.243c2.533-.237 3.902-.565 3.989-.586.32-.078.581-.311.697-.619.033-.089.813-2.209.813-5.552s-.78-5.463-.813-5.552zm-12.239 3.091c-.14.419-.53.684-.948.684-.414-.03-.286-.088-1-.166v4.943c0 .553-.448 1-1 1s-1-.447-1-1v-4.943c-.44.051-.69.117-.693.118-.527.158-1.086-.126-1.253-.647s.11-1.079.63-1.253c.084-.028.863-.274 2.317-.274s2.233.246 2.317.274c.524.175.807.741.631 1.265zm7.052 6.461c0 .553-.447 1-1 1s-1-.447-1-1v-8c0-.553.447-1 1-1s1 .447 1 1z"/></svg>