<svg id="Layer_1" viewBox="0 0 24 24" xmlns="http://www.w3.org/2000/svg" data-name="Layer 1"><path d="m22.561 20.439-9.061-9.06v-6.354c2.644.083 4.417.368 5.418.591-.076.652-.222 1.527-.502 2.446-.242.792.204 1.631.996 1.873.771.242 1.633-.197 1.873-.996.707-2.313.715-4.353.715-4.438 0-.613-.374-1.165-.943-1.393-.283-.113-2.945-1.107-9.057-1.107-3.301 0-5.731.294-7.304.575l-1.135-1.135c-.586-.586-1.535-.586-2.121 0-.586.585-.586 1.536 0 2.121l18.999 18.999c.586.586 1.535.586 2.121 0 .586-.585.586-1.536 0-2.121zm-12.061-15.415v3.354l-3.147-3.147c.898-.095 1.945-.171 3.147-.207zm3 13.476v2c0 .829-.671 1.5-1.5 1.5s-1.5-.671-1.5-1.5v-2c0-.829.671-1.5 1.5-1.5s1.5.671 1.5 1.5z"/></svg>