<svg id="Layer_1" viewBox="0 0 24 24" xmlns="http://www.w3.org/2000/svg" data-name="Layer 1"><path d="m16.532 10.017v-4.537c0-3.066-1.428-4.494-4.494-4.494s-4.494 1.428-4.494 4.494v4.537c-2.224 1.418-2.496 4.039-2.496 5.948 0 4.834 2.156 6.99 6.99 6.99s6.99-2.156 6.99-6.99c0-1.908-.273-4.53-2.496-5.948zm-4.493 8.943c-1.988 0-2.996-1.008-2.996-2.996 0-1.617.678-2.574 1.997-2.879v-2.114c0-.552.447-.999.999-.999s.999.447.999.999v2.114c1.319.305 1.997 1.262 1.997 2.879 0 1.987-1.008 2.996-2.996 2.996zm.998-2.996c0 .878-.121.999-.999.999s-.999-.121-.999-.999.121-.999.999-.999.999.121.999.999z"/></svg>