<svg id="Layer_1" viewBox="0 0 24 24" xmlns="http://www.w3.org/2000/svg" data-name="Layer 1"><path d="m12.998 15.953c0 .877-.121.998-.998.998s-.998-.121-.998-.998.121-.998.998-.998.998.121.998.998zm5.986 0c0 4.83-2.154 6.984-6.984 6.984s-6.984-2.154-6.984-6.984c0-1.907.273-4.526 2.494-5.943v-4.533c0-3.063 1.426-4.49 4.49-4.49s4.49 1.426 4.49 4.49v4.533c2.222 1.418 2.494 4.036 2.494 5.943zm-3.991 0c0-1.615-.678-2.571-1.996-2.876v-7.6c0-.551-.446-.998-.998-.998s-.998.447-.998.998v7.6c-1.317.305-1.996 1.261-1.996 2.876 0 1.986 1.008 2.993 2.993 2.993s2.993-1.008 2.993-2.993z"/></svg>