<svg id="Layer_1" viewBox="0 0 24 24" xmlns="http://www.w3.org/2000/svg" data-name="Layer 1"><path d="m13.019 15.984c0 .878-.121.999-.999.999s-.999-.121-.999-.999.121-.999.999-.999.999.121.999.999zm5.995 0c0 4.836-2.157 6.994-6.994 6.994s-6.994-2.157-6.994-6.994c0-1.909.273-4.532 2.498-5.951v-4.54c0-3.068 1.428-4.496 4.496-4.496s4.496 1.428 4.496 4.496v4.54c2.225 1.419 2.498 4.041 2.498 5.951zm-3.997 0c0-1.617-.679-2.575-1.998-2.88v-6.111c0-.552-.447-.999-.999-.999s-.999.447-.999.999v6.111c-1.319.305-1.998 1.263-1.998 2.88 0 1.988 1.008 2.997 2.997 2.997s2.997-1.009 2.997-2.997z"/></svg>