<?xml version="1.0" encoding="UTF-8"?>
<svg xmlns="http://www.w3.org/2000/svg" id="Layer_1" data-name="Layer 1" viewBox="0 0 24 24">
  <path d="M15.14,18.702c-1.15,0-3.966-.319-6.708-3.087-3.49-3.524-3.008-7.211-2.986-7.366,.044-.301,.181-.581,.394-.799l1.503-1.539c1.012-1.033,3.372-2.311,6.279-1.227l.017-.017c.091-.778,.349-1.792,1.047-2.504,.734-.75,1.723-1.163,2.785-1.163h0c1.298,0,2.606,.604,3.68,1.701,2.002,2.044,2.222,4.785,.525,6.518-.697,.712-1.691,.981-2.46,1.078l-.032,.033c1.077,2.957-.169,5.363-1.175,6.388l-1.5,1.537c-.223,.229-.518,.377-.835,.42-.033,.004-.222,.028-.534,.028Z"/>
  <path d="M7.012,17.022c-.34-.343-.648-.689-.928-1.033L1.596,20.56c-.555,.565-.546,1.474,.019,2.029,.279,.274,.642,.411,1.005,.411,.372,0,.743-.143,1.024-.43l4.467-4.549c-.366-.299-.734-.631-1.098-.999Z"/>
</svg>
