<?xml version="1.0" encoding="UTF-8"?>
<svg xmlns="http://www.w3.org/2000/svg" id="Layer_1" data-name="Layer 1" viewBox="0 0 24 24">
  <path d="M18.266,20.352c-1.298-5.297-5.379-9.502-5.552-9.679-.377-.383-1.051-.383-1.428,0-.173,.177-4.254,4.382-5.552,9.679-.128,.525,.185,1.059,.706,1.202,1.818,.502,3.688,.753,5.56,.753s3.741-.251,5.56-.753c.521-.144,.834-.677,.706-1.202Zm-7.266-6.161c0-.553,.447-1,1-1s1,.447,1,1v2.642c0,.553-.447,1-1,1s-1-.447-1-1v-2.642Zm1,6.993c-.553,0-1.001-.448-1.001-1.001s.448-1.001,1.001-1.001,1.001,.448,1.001,1.001-.448,1.001-1.001,1.001Z"/>
  <path d="M19.303,8.977c-.089-4.032-3.336-7.284-7.315-7.284-4.035,0-7.318,3.344-7.318,7.454,0,.27,.015,.539,.043,.808-2.151,.613-3.712,2.628-3.712,5.034,.017,1.864,1.285,3.451,3.029,4.021,1.583-5.281,5.379-9.274,5.828-9.734,.558-.566,1.337-.889,2.144-.889s1.586,.322,2.139,.884c.453,.463,4.239,4.446,5.825,9.715,1.433-.501,2.559-1.714,2.887-3.246,.1-.46,.149-.921,.149-1.368,0-2.429-1.513-4.575-3.697-5.395Z"/>
</svg>
