<?xml version="1.0" encoding="UTF-8"?>
<svg xmlns="http://www.w3.org/2000/svg" id="Layer_1" data-name="Layer 1" viewBox="0 0 24 24">
  <path d="M5.691,15.652c.451-.747,1.066-1.392,1.806-1.878,.449-3.619,3.512-6.441,7.241-6.526,.038-.218,.027-.445-.035-.665l.567-.571c.583-.588,.58-1.538-.007-2.122-.589-.583-1.537-.579-2.122,.007l-.53,.533c-.594-.291-1.208-.448-1.755-.532v-.966c0-.828-.671-1.5-1.5-1.5s-1.5,.672-1.5,1.5v.978c-.653,.103-1.236,.278-1.748,.526l-.537-.54c-.585-.588-1.535-.591-2.121-.006-.588,.584-.591,1.533-.007,2.121l.546,.549c-.249,.518-.425,1.11-.529,1.773h-.962c-.829,0-1.5,.672-1.5,1.5s.671,1.5,1.5,1.5h.962c.103,.662,.279,1.253,.528,1.773l-.546,.549c-.584,.588-.581,1.538,.007,2.121,.292,.291,.675,.437,1.057,.437,.385,0,.771-.147,1.064-.442l.119-.12Z"/>
  <path d="M20.373,14.357c-.175-2.849-2.558-5.112-5.461-5.112-3.017,0-5.471,2.444-5.471,5.448,0,.11,.003,.221,.01,.33-1.524,.531-2.607,1.977-2.607,3.664,0,2.14,1.747,3.88,3.895,3.88h3.349c.367-.587,.917-1.51,1.127-2.047,.034-.088,.064-.176,.092-.262h-1.96c-.271,0-.53-.109-.718-.304-.188-.194-.29-.457-.282-.728,.003-.099,.041-.992,.42-1.961,.422-1.076,1.018-1.733,1.084-1.805,.378-.404,1.01-.425,1.414-.049,.403,.377,.425,1.01,.049,1.414,0,0-.402,.447-.686,1.17-.034,.088-.064,.176-.092,.262h1.96c.271,0,.529,.109,.718,.304s.29,.457,.282,.728c-.004,.099-.041,.992-.421,1.961-.151,.385-.401,.864-.657,1.316h2.292c2.365,0,4.289-1.916,4.289-4.271,0-1.739-1.065-3.284-2.627-3.938Z"/>
</svg>
