<svg id="Layer_1" viewBox="0 0 24 24" xmlns="http://www.w3.org/2000/svg" data-name="Layer 1"><path d="m21.839 13.502c-.256.04-1.009.062-1.434-.303-.27-.23-.405-.634-.405-1.2s.136-.969.404-1.199c.426-.363 1.181-.342 1.427-.302.32.051.643-.048.871-.273.229-.226.336-.549.286-.867-.351-2.241-1.008-3.864-1.035-3.932-.126-.308-.397-.533-.723-.601-.163-.034-4.044-.826-9.23-.826-5.231 0-9.071.792-9.232.827-.324.068-.594.292-.72.599-.028.068-.687 1.688-1.036 3.932-.049.315.06.634.285.86s.545.332.864.28c.256-.041 1.009-.062 1.434.303.27.23.405.634.405 1.2s-.136.969-.404 1.199c-.426.363-1.182.343-1.427.302-.323-.054-.643.048-.871.273-.229.226-.336.549-.286.867.351 2.241 1.008 3.864 1.035 3.932.126.308.397.533.723.601.163.034 4.044.826 9.23.826 5.231 0 9.071-.792 9.232-.827.324-.068.594-.292.72-.599.028-.068.687-1.688 1.036-3.932.049-.315-.06-.634-.285-.86s-.543-.331-.864-.28z"/></svg>