<svg id="Layer_1" viewBox="0 0 24 24" xmlns="http://www.w3.org/2000/svg" data-name="Layer 1"><path d="m16.917 19c-3.916 0-5.222-3.527-6.003-5.634-.22-.607-.439-1.129-.659-1.734-.916-2.469-1.528-3.632-3.172-3.632-2.478 0-3.083.589-3.083 3v1.5c0 .828-.672 1.5-1.5 1.5s-1.5-.672-1.5-1.5v-1.5c0-4.094 1.933-6 6.083-6 3.91 0 5.158 3.362 5.984 5.588.221.605.438 1.126.66 1.736.848 2.287 1.484 3.676 3.189 3.676 2.478 0 3.083-.589 3.083-3v-1.5c0-.828.672-1.5 1.5-1.5s1.5.672 1.5 1.5v1.5c0 4.094-1.933 6-6.083 6z"/></svg>