<svg id="Layer_1" viewBox="0 0 24 24" xmlns="http://www.w3.org/2000/svg" data-name="Layer 1"><path d="m3.899 8.813 12.703 12.703c-1.421.909-3.024 1.469-4.647 1.483-4.785-.086-9.482-4.792-9.482-9.5 0-1.632.575-3.219 1.425-4.687zm18.661 11.626-2.479-2.479c.83-1.36 1.345-2.883 1.392-4.43-.104-6.246-8.82-12.295-8.909-12.355-.17-.116-.368-.175-.565-.175-.195 0-.389.057-.558.17-.432.289-2.438 1.681-4.445 3.706l-3.435-3.437c-.586-.586-1.535-.586-2.121 0-.586.585-.586 1.536 0 2.121l18.999 19.001c.586.586 1.535.586 2.121 0 .586-.585.586-1.536 0-2.121z"/></svg>