<?xml version="1.0" encoding="UTF-8"?>
<svg xmlns="http://www.w3.org/2000/svg" id="Layer_1" data-name="Layer 1" viewBox="0 0 24 24">
  <g>
    <path d="M12,11.168c.828,0,1.5-.672,1.5-1.5v-3.842c0-.828-.672-1.5-1.5-1.5s-1.5,.672-1.5,1.5v3.842c0,.828,.672,1.5,1.5,1.5Z"/>
    <path d="M20.635,5.169c-.329-.408-.363-.942-.087-1.393,.433-.706,.211-1.63-.496-2.062-.704-.432-1.629-.211-2.062,.496-.943,1.539-.821,3.44,.312,4.844,2.871,3.557,1.678,7.723-.701,10.231-.683,.162-2.515,.513-5.613,.514-3.097,0-4.93-.352-5.613-.514-2.379-2.509-3.572-6.675-.701-10.231,1.133-1.403,1.255-3.305,.312-4.844-.434-.707-1.358-.928-2.062-.496-.707,.433-.929,1.356-.496,2.062,.276,.45,.242,.984-.087,1.393-3.973,4.92-2.399,11.036,1.209,14.535,.139,.135,.303,.241,.482,.314v.536c0,.828,.672,1.5,1.5,1.5,.814,0,1.476-.649,1.499-1.457,.204,.023,.42,.044,.648,.065v.346c0,.828,.672,1.5,1.5,1.5s1.5-.672,1.5-1.5v-.209c.098,0,.196,.001,.297,.001h0s.009,0,.013,0,.009,0,.013,0h0c.109,0,.217,0,.323-.002v.21c0,.828,.672,1.5,1.5,1.5s1.5-.672,1.5-1.5v-.348c.227-.02,.443-.042,.648-.065,.021,.81,.684,1.46,1.499,1.46,.828,0,1.5-.672,1.5-1.5v-.547c.169-.072,.324-.174,.456-.302,3.608-3.499,5.182-9.615,1.209-14.535Z"/>
  </g>
  <circle cx="12" cy="14.375" r="1.495"/>
</svg>
