<?xml version="1.0" encoding="UTF-8"?>
<svg xmlns="http://www.w3.org/2000/svg" id="Layer_1" data-name="Layer 1" viewBox="0 0 24 24">
  <path d="M22.271,9.506c-.158-.25-.419-.417-.712-.456l-.712-1.723c.178-.234,.244-.536,.18-.823-.03-.136-.323-1.355-1.248-2.281-.924-.922-2.144-1.217-2.279-1.247-.295-.066-.591,0-.825,.18l-1.723-.712c-.039-.292-.206-.553-.455-.711-.118-.075-1.188-.73-2.496-.73s-2.377,.654-2.495,.729c-.249,.158-.417,.419-.456,.712l-1.721,.714c-.234-.18-.538-.247-.825-.182-.136,.03-1.356,.323-2.281,1.248s-1.218,2.143-1.248,2.278c-.065,.289,.002,.593,.182,.828l-.718,1.721c-.291,.04-.55,.206-.707,.454-.075,.118-.73,1.188-.73,2.495s.655,2.376,.729,2.494c.158,.25,.419,.417,.712,.456l.712,1.723c-.178,.234-.244,.536-.18,.823,.03,.136,.323,1.355,1.248,2.281,.924,.922,2.144,1.217,2.279,1.247,.293,.067,.592-.002,.825-.18l1.723,.712c.039,.292,.206,.553,.455,.711,.118,.075,1.188,.73,2.496,.73s2.377-.654,2.495-.729c.249-.158,.417-.419,.456-.712l1.721-.714c.235,.181,.538,.248,.825,.182,.136-.03,1.356-.323,2.281-1.248s1.218-2.143,1.248-2.278c.065-.289-.002-.593-.182-.828l.718-1.721c.291-.04,.55-.206,.707-.454,.075-.118,.73-1.188,.73-2.495s-.655-2.376-.729-2.494Zm-10.271,10.417c-3.401,0-7.923-.821-7.923-7.923s4.521-7.923,7.923-7.923,7.923,.821,7.923,7.923-4.521,7.923-7.923,7.923Z"/>
  <path d="M12,6.077c-3.656,0-5.923,.991-5.923,5.923s2.267,5.923,5.923,5.923,5.923-.991,5.923-5.923-2.267-5.923-5.923-5.923Zm0,1.668c.825,0,1.495,.669,1.495,1.495s-.669,1.495-1.495,1.495-1.495-.669-1.495-1.495,.669-1.495,1.495-1.495Zm-2.761,5.75c-.825,0-1.495-.669-1.495-1.495s.669-1.495,1.495-1.495,1.495,.669,1.495,1.495-.669,1.495-1.495,1.495Zm2.761,2.761c-.825,0-1.495-.669-1.495-1.495s.669-1.495,1.495-1.495,1.495,.669,1.495,1.495-.669,1.495-1.495,1.495Zm2.761-2.761c-.825,0-1.495-.669-1.495-1.495s.669-1.495,1.495-1.495,1.495,.669,1.495,1.495-.669,1.495-1.495,1.495Z"/>
</svg>
