<svg id="Layer_1" viewBox="0 0 24 24" xmlns="http://www.w3.org/2000/svg" data-name="Layer 1"><path d="m16.495 14c2.5 0 2.851-1.15 3.307-3.733l.193-2.767-.193-2.767c-.456-2.583-.807-3.733-3.307-3.733s-2.851 1.15-3.307 3.733c0 0-.193 1.417-.193 2.767s.193 2.767.193 2.767c.456 2.583.807 3.733 3.307 3.733zm0-8c.552 0 1 .672 1 1.5s-.448 1.5-1 1.5-1-.672-1-1.5.448-1.5 1-1.5zm6.5 16c0 .553-.448 1-1 1h-10c-2.691 0-4-1.309-4-4v-3h8.5c1.65 0 2.747-.454 3.5-1.14v4.14c0 1.589.411 2 2 2 .552 0 1 .447 1 1zm-11.776-11.386c-.013-.092-.104-.764-.165-1.626-.048.031-1.002.002-1.058.012-.552 0-1-.447-1-1s.448-1 1-1h1s.005.002.008.002c.036-1.293.196-2.482.204-2.539.197-1.122.43-2.415 1.086-3.463h-7.336c-3.081 0-3.438 2.026-3.79 4.023-.006.044-.129.96-.163 1.977h.991c.552 0 1 .447 1 1s-.448 1-1 1h-.93c.047.555.101.965.109 1.015.346 1.959.703 3.985 3.783 3.985h7.331c-.649-1.036-.878-2.305-1.069-3.386zm-4.724-1.614h-1c-.552 0-1-.447-1-1s.448-1 1-1h1c.552 0 1 .447 1 1s-.448 1-1 1z"/></svg>