<svg id="Layer_1" viewBox="0 0 24 24" xmlns="http://www.w3.org/2000/svg" data-name="Layer 1"><path d="m11.047 16 7 7h-6.047c-2.691 0-4-1.309-4-4v-3zm-9.979-9.979c-.036.434-.068.957-.068 1.479 0 1.196.166 2.425.179 2.515.346 1.959.703 3.985 3.783 3.985h4.086zm21.493 16.54c-.586.586-1.535.586-2.121 0l-19.001-19c-.586-.586-.586-1.535 0-2.121.512-.512 1.289-.549 1.871-.166.44-.173.978-.274 1.651-.274h7.336c-.656 1.048-.889 2.341-1.086 3.463-.009.063-.212 1.568-.212 3.037 0 .493.024.986.055 1.434l2.332 2.332c-.066-.308-.13-.636-.194-1 0 0-.193-1.417-.193-2.767s.193-2.767.193-2.767c.456-2.583.807-3.733 3.307-3.733s2.851 1.15 3.307 3.733l.193 2.767-.193 2.767c-.456 2.583-.807 3.733-3.307 3.733-.151 0-.27-.018-.405-.026l1.866 1.866c.866-.186 1.539-.524 2.039-.98v3.019l2.561 2.561c.586.586.586 1.535 0 2.121zm-7.061-15.061c0 .828.448 1.5 1 1.5s1-.672 1-1.5-.448-1.5-1-1.5-1 .672-1 1.5z"/></svg>