<svg id="Layer_1" viewBox="0 0 24 24" xmlns="http://www.w3.org/2000/svg" data-name="Layer 1"><path d="m4 8.949 11.083 11.083c-.121 1.94-1.564 2.981-3.847 2.968h-9.236c-.553 0-1-.447-1-1s.447-1 1-1c1.589 0 2-.411 2-2zm18.561 11.49c.586.586.586 1.535 0 2.121s-1.535.586-2.121 0l-19.001-18.999c-.586-.586-.586-1.535 0-2.121s1.535-.586 2.121 0l1.395 1.395c.543-1.077 1.515-1.834 3.545-1.834h6.879c-.729 1.176-.962 2.698-1.172 4.072-.008.072-.207 1.771-.207 3.428.008 1.794.187 3.308.236 3.615l2.839 2.839c-.453-.704-.655-1.777-.882-3.262 0 0-.193-1.635-.193-3.192s.193-3.192.193-3.192c.456-2.981.807-4.308 3.307-4.308s2.851 1.327 3.307 4.308c0 0 .193 1.635.193 3.192s-.193 3.192-.193 3.192c-.456 2.981-.807 4.308-3.307 4.308-.827 0-1.403-.161-1.842-.463l4.902 4.902zm-4.061-11.939c0 .828.448 1.5 1 1.5s1-.672 1-1.5-.448-1.5-1-1.5-1 .672-1 1.5z"/></svg>