<svg id="Layer_1" viewBox="0 0 24 24" xmlns="http://www.w3.org/2000/svg" data-name="Layer 1"><path d="m22.122 17.407c-.037-.005-.311-.037-.81-.081-.198-1.228-.312-2.507-.312-3.826 0-1.462.123-2.887.366-4.234.015-.084.018-.166.019-.248.971-.66 1.607-1.755 1.615-3.018 0-2.801-1.631-5.007-1.7-5.1-.223-.297-.59-.445-.96-.387-.288.047-.538.217-.688.458-.195.156-1.566 1.029-7.651 1.029-3.558 0-6.13.188-7.661.345-1.861.191-3.328 1.794-3.339 3.631-.038 1.56.932 2.92 2.32 3.461-.199 1.313-.321 2.668-.321 4.064 0 1.308.113 2.578.288 3.814-.586.05-.904.088-.944.093-.264.033-.505.169-.668.38-.069.089-.675.908-.675 2.213s.606 2.124.675 2.213c.163.21.404.347.668.38.136.017 3.391.407 9.889.407h9.768c.553 0 1-.448 1-1v-3.6c0-.505-.377-.931-.878-.993zm-5.846-.352c-.17-1.147-.276-2.332-.276-3.555 0-1.239.107-2.439.282-3.599.742-.036 1.412-.077 1.993-.122-.166 1.209-.275 2.448-.275 3.721 0 1.241.105 2.448.263 3.628-.592-.027-1.256-.052-1.986-.073zm-10.276-3.555c0-1.264.11-2.489.292-3.669.592.037 1.247.07 1.964.098-.153 1.161-.256 2.349-.256 3.571 0 1.216.102 2.398.253 3.554-.72.02-1.38.044-1.968.071-.177-1.167-.286-2.376-.286-3.624zm5.27 3.504c-.165-1.131-.27-2.298-.27-3.504s.104-2.374.27-3.505c.242.002.479.005.73.005.43 0 .845-.003 1.247-.008-.147 1.143-.247 2.309-.247 3.508s.099 2.363.246 3.504c-.33-.002-.665-.004-1.014-.004-.331 0-.648.002-.963.004z"/></svg>