<svg id="Layer_1" viewBox="0 0 24 24" xmlns="http://www.w3.org/2000/svg" data-name="Layer 1"><path d="m23.002 4.573c-.011.334-.117.656-.291.948-.184.309-.537.479-.896.479h-2.651c-.364 0-.721-.173-.902-.489-.163-.285-.258-.598-.258-.923 0-.841.229-1.435.552-1.908.144-.211.453-.217.607-.014l.505.838v-.417c0-.545.011-1.36.431-1.842.195-.224.523-.28.782-.135.891.526 2.138 1.391 2.122 3.461zm-15.502 5.427c3.07 0 4.5-1.43 4.5-4.5s-1.43-4.5-4.5-4.5-4.5 1.43-4.5 4.5 1.43 4.5 4.5 4.5zm13.5-3h-1c-.552 0-1 .448-1 1 0 .865.186 2.199.336 3.128-.614.242-1.852 1.676-4.667 1.869-.815-.194-4.845-1.099-7.371-.977-4.345.207-6.297 2.381-6.297 6.98v2.5c0 .459.312.859.757.97.087.021 2.155.53 5.243.53s5.156-.508 5.243-.53c.445-.111.757-.511.757-.97v-2.5c0-1.295-.193-2.433-.564-3.414.995.195 1.684.365 1.7.369.119.03.241.045.363.045 3.499 0 6.262-2.248 6.378-2.343.397-.328.581-.816.537-1.292.117-.268.558-2.791.585-4.365 0-.552-.448-1-1-1z"/></svg>