<svg id="Layer_1" viewBox="0 0 24 24" xmlns="http://www.w3.org/2000/svg" data-name="Layer 1"><path d="m12 23c-4.945 0-7.868-.99-7.99-1.032-.404-.14-.729-.444-.894-.839-.165-.394-.154-.84.03-1.225 1.384-2.9 3.489-5.5 6.408-7.904-2.919-2.404-5.024-5.004-6.408-7.904-.184-.385-.195-.831-.03-1.225.165-.395.49-.699.894-.839.122-.042 3.045-1.032 7.99-1.032 4.993 0 7.499 1.022 7.603 1.066.325.136.591.381.753.693.085.163.514 1.057.639 2.62.066.826-.549 1.549-1.375 1.615-.828.062-1.549-.549-1.615-1.375-.032-.402-.093-.728-.152-.972-.904-.245-2.845-.648-5.853-.648-2.259 0-4.042.228-5.246.449 1.415 2.279 3.436 4.367 6.132 6.341.386.282.614.731.614 1.21s-.228.928-.614 1.21c-2.696 1.974-4.717 4.062-6.132 6.341 1.202.222 2.986.449 5.246.449 3.015 0 4.958-.405 5.863-.652.055-.231.112-.55.141-.955.06-.827.779-1.45 1.604-1.389.827.06 1.448.777 1.389 1.604-.119 1.649-.578 2.526-.668 2.686-.164.288-.419.514-.725.641-.104.044-2.61 1.066-7.603 1.066z"/></svg>