<svg id="Layer_1" viewBox="0 0 24 24" xmlns="http://www.w3.org/2000/svg" data-name="Layer 1"><path d="m4 3c0-1.43.57-2 2-2s2 .57 2 2-.57 2-2 2-2-.57-2-2zm8.67 6.28c.49.03.97-.17 1.28-.56.31-.38.41-.9.27-1.38 0 0-.18-.64-.22-1.87.98-.52 1.75-1.25 1.78-1.3.28-.31.29-.79 0-1.11-.05-.06-.54-.59-1.67-1.25-.85-.49-1.46-.7-1.74-.79-.25-.07-.51-.02-.72.13s-.66 1.3-.66 2.76c.02.73-.02 1.56.04 2.25-1.32-.08-3.16-.16-4.88-.16-1.57 0-3.43.3-3.51.32-.29.05-.54.18-.74.36-.21.13-.37.33-.43.58-.02.08-.48 1.9-.48 4.25s.45 4.32.47 4.4c.07.3.27.54.53.67v4.93c0 .83.67 1.5 1.5 1.5s1.5-.67 1.5-1.5v-4.53c.33.02.67.03 1 .03v4.5c0 .83.67 1.5 1.5 1.5s1.5-.67 1.5-1.5v-12.44c2 .08 3.65.21 3.67.21zm.33 2.72c0 1.43.57 2 2 2s2-.57 2-2-.57-2-2-2-2 .57-2 2zm3.92 3.15s-1.06-.15-1.92-.15-1.88.15-1.92.15c-.4.06-.72.35-.82.74-.01.04-.25.99-.25 2.11s.24 2.07.25 2.11c.1.39.43.68.82.74.02 0 .18.03.42.05v1.05c0 .49.35.91.84.99 0 0 .41.06.66.06s.66-.06.66-.06c.49-.08.84-.49.84-.99v-1.05c.24-.03.41-.05.42-.05.4-.06.72-.35.82-.74.01-.04.25-.99.25-2.11s-.24-2.07-.25-2.11c-.1-.39-.43-.68-.82-.74zm5.08-4.15c0-1.43-.57-2-2-2s-2 .57-2 2 .57 2 2 2 2-.57 2-2zm.75 3.89c-.1-.39-.43-.68-.82-.74-.04 0-1.06-.15-1.92-.15-.36 0-.74.03-1.07.06.35.36.62.82.76 1.33.05.21.32 1.31.32 2.61s-.26 2.4-.32 2.6c-.12.47-.35.88-.65 1.22.09.05.19.09.3.11 0 0 .41.07.67.07s.67-.07.67-.07c.48-.08.83-.5.83-.99v-1.05c.24-.03.41-.05.42-.05.4-.06.72-.35.82-.74.01-.04.25-.99.25-2.11s-.24-2.07-.25-2.11z"/></svg>