<?xml version="1.0" encoding="UTF-8"?>
<svg xmlns="http://www.w3.org/2000/svg" id="Layer_1" data-name="Layer 1" viewBox="0 0 24 24">
  <g>
    <path d="M17.216,15.647c-2.437,0-3.672,1.233-3.672,3.665s1.235,3.665,3.672,3.665,3.672-1.233,3.672-3.665-1.235-3.665-3.672-3.665Z"/>
    <path d="M14.068,5.193l-.867-2.783c-.086-.276-.288-.502-.553-.618-.072-.031-1.785-.77-4.366-.77-2.558,0-4.414,.726-4.492,.756-.381,.151-.631,.52-.631,.93v3.273c1.635-.312,4.927-.802,9.489-.802,.491,0,.964,.005,1.419,.015Z"/>
    <path d="M10.575,16.701h-.236c-.072-.471-.198-.888-.377-1.252l.063-.063c.391-.39,.392-1.022,.002-1.414s-1.023-.392-1.414-.002l-.066,.066c-.366-.18-.786-.306-1.26-.378v-.233c0-.553-.448-1-1-1s-1,.447-1,1v.233c-.474,.072-.893,.198-1.26,.378l-.066-.066c-.392-.391-1.025-.391-1.414,.002-.39,.392-.389,1.024,.002,1.414l.063,.063c-.18,.365-.306,.782-.377,1.252h-.236c-.552,0-1,.447-1,1s.448,1,1,1h.236c.072,.471,.198,.888,.377,1.253l-.064,.063c-.391,.39-.392,1.023-.002,1.414,.195,.196,.452,.294,.708,.294s.511-.098,.706-.292l.066-.066c.366,.18,.786,.306,1.259,.378v.232c0,.553,.448,1,1,1s1-.447,1-1v-.232c.473-.071,.893-.198,1.259-.378l.066,.066c.195,.194,.451,.292,.707,.292s.512-.098,.708-.294c.39-.391,.39-1.023,0-1.414l-.064-.064c.18-.365,.306-.782,.377-1.253h.236c.552,0,1-.447,1-1s-.448-1-1-1Zm-4.288,2.511c-.834,0-1.511-.676-1.511-1.511s.676-1.511,1.511-1.511,1.511,.676,1.511,1.511-.676,1.511-1.511,1.511Z"/>
  </g>
  <path d="M22.263,8.072c-.071-.019-1.016-.271-2.827-.502v-1.442c0-.828-.671-1.5-1.5-1.5s-1.5,.672-1.5,1.5v1.163c-1.106-.068-2.368-.113-3.788-.113-6.258,0-9.995,.949-10.151,.99-.441,.114-.749,.512-.749,.968,0,.367,.003,1.476,.009,2.517,1.165-.805,2.689-1.229,4.529-1.229,3.633,0,6.035,1.652,6.87,4.62,.97-.906,2.348-1.398,4.059-1.398,1.827,0,3.274,.56,4.25,1.587,.414-1.512,1.505-5.959,1.505-5.959,.129-.526-.185-1.061-.708-1.203Z"/>
</svg>
