<?xml version="1.0" encoding="UTF-8"?>
<svg xmlns="http://www.w3.org/2000/svg" id="Layer_1" data-name="Layer 1" viewBox="0 0 24 24">
  <path d="M11.985,10.1c3.192,0,5.704-2.863,6.974-4.675-.202-1.311-.428-2.067-.445-2.123-.071-.232-.224-.431-.43-.559-.114-.071-2.844-1.743-6.085-1.743s-5.97,1.672-6.084,1.742c-.208,.129-.361,.329-.432,.563-.017,.056-.239,.81-.44,2.106,1.282,1.813,3.809,4.688,6.941,4.688Zm-1.665-6.666h3.359c.553,0,1,.447,1,1s-.447,1-1,1h-3.359c-.553,0-1-.447-1-1s.447-1,1-1Z"/>
  <path d="M21.54,20.89c-.793-1.782-1.96-3.139-3.047-4.114,.013-.035,.787-3.128,.787-6.991,0-.526-.013-1.026-.036-1.497-1.673,1.869-4.158,3.812-7.259,3.812-3.066,0-5.551-1.955-7.228-3.829-.024,.477-.035,.982-.038,1.514-.02,3.987,.774,6.957,.787,6.991-1.087,.975-2.252,2.332-3.047,4.115-.337,.757-.017,1.693,.76,1.98,1.019,.377,1.731-.201,1.98-.76,.824-1.85,2.215-3.113,3.241-3.85,.935,.231,2.123,.41,3.559,.41s2.631-.178,3.564-.407c1.024,.737,2.414,2.001,3.236,3.847,.248,.559,1.043,1.156,1.98,.76,.763-.322,1.097-1.224,.76-1.98Zm-9.54-4.086c-.828,0-1.5-.672-1.5-1.5s.672-1.5,1.5-1.5,1.5,.672,1.5,1.5-.672,1.5-1.5,1.5Z"/>
</svg>
