<svg id="Layer_1" viewBox="0 0 24 24" xmlns="http://www.w3.org/2000/svg" data-name="Layer 1"><path d="m11 9.542c-1.542.125-2.928.502-3.641.724-.139.725-.359 2.127-.359 3.733v.074c.63.107 2.17.339 4 .407v-4.939z"/><path d="m15.5 16.3v.7c0 .552-.447 1-1 1s-1-.448-1-1v-.539c-.479.024-.983.039-1.5.039s-1.021-.014-1.5-.038v.538c0 .552-.447 1-1 1s-1-.448-1-1v-.699c-.574-.063-1.061-.131-1.43-.189.08 1.185.21 2.093.302 2.626.868.271 2.711.762 4.628.762s3.757-.492 4.627-.762c.091-.535.222-1.445.302-2.626-.369.057-.856.125-1.429.188z"/><path d="m12 1c-6.065 0-11 4.935-11 11v10c0 .552.447 1 1 1h4.335l.925-2.208c-.658-.187-1.071-.341-1.115-.357-.312-.118-.545-.384-.62-.71-.021-.093-.525-2.313-.525-5.725 0-2.593.508-4.656.53-4.743.079-.318.31-.577.616-.693.115-.043 2.852-1.064 5.854-1.064s5.739 1.021 5.854 1.065c.306.116.536.375.615.692.022.087.53 2.149.53 4.743 0 3.383-.504 5.628-.525 5.723-.074.327-.308.594-.621.713-.043.016-.456.17-1.114.357l.925 2.208h4.335c.553 0 1-.448 1-1v-10.001c0-6.065-4.935-11-11-11z"/><path d="m17 14c0-1.615-.22-3.012-.358-3.734-.712-.222-2.097-.599-3.642-.724v4.939c1.827-.068 3.368-.3 4-.407 0-.025 0-.049 0-.074z"/><path d="m12 21.5c-.977 0-1.924-.108-2.762-.255l-.735 1.755h6.995l-.735-1.755c-.839.147-1.786.255-2.762.255z"/></svg>