<svg id="Layer_1" viewBox="0 0 24 24" xmlns="http://www.w3.org/2000/svg" data-name="Layer 1"><path d="m12 14c3.993-.054 7.074.465 10 1-.122 3.795-.899 6.363-.934 6.47-.095.28-.308.504-.583.611-.061.024-1.525.589-4.351.912-.283.035-.566-.058-.779-.247s-.334-.461-.334-.746v-2c0-2.299-.719-3-3.018-3s-3 .701-3 3v2c0 .285-.122.557-.334.746s-.496.282-.779.247c-2.826-.323-4.29-.888-4.351-.912-.275-.107-.488-.331-.583-.611-.036-.106-.812-2.675-.934-6.47 2.926-.535 5.99-1.053 9.982-1zm10.726-1.312c-.245.261-.617.369-.961.284-2.626-.636-6.003-.972-9.765-.972s-7.139.336-9.765.972c-.348.087-.715-.023-.961-.284-.246-.26-.334-.632-.232-.975.634-2.112 2.077-3.666 2.138-3.73.117-.125.264-.217.427-.269.114-.036 1.087-.327 3.426-.526.201-2.347 1.334-3.652 3.467-4.045v-.642c0-.828.671-1.5 1.5-1.5s1.5.672 1.5 1.5v.642c2.133.394 3.267 1.698 3.467 4.046 2.34.199 3.312.49 3.426.526.163.052.31.144.427.269.062.064 1.505 1.618 2.139 3.73.103.343.015.715-.232.975zm-9.226-5.188c0-1.071-.429-1.5-1.5-1.5s-1.5.429-1.5 1.5.429 1.5 1.5 1.5 1.5-.429 1.5-1.5z"/></svg>