<svg id="Layer_1" viewBox="0 0 24 24" xmlns="http://www.w3.org/2000/svg" data-name="Layer 1"><path d="m11 10.016c-3.208.098-5.959.632-6.948.846-.033.503-.051 1.709-.051 1.744 1.476.321 4.078.789 7 .879v-3.469z"/><path d="m13 10.015v3.468c2.931-.095 5.54-.57 7-.889 0-.031-.019-1.242-.052-1.749-1.071-.225-3.806-.735-6.948-.83z"/><path d="m16 16.5c0 .552-.447 1-1 1s-1-.448-1-1v-1.06c-.646.037-1.314.059-1.995.059-.002 0-.003 0-.005 0-.001 0-.002 0-.003 0-.007 0-.015 0-.022 0-.674 0-1.335-.021-1.975-.056v1.056c0 .552-.447 1-1 1s-1-.448-1-1v-1.221c-1.557-.167-2.909-.403-3.918-.609.206 2.764.735 4.644.762 4.741.094.327.347.584.673.683.029.009.213.063.523.142l-.287.431c-.46.689-.273 1.621.416 2.08.256.17.545.252.831.252.484 0 .96-.234 1.249-.668l1-1.5s.001-.002.002-.003c.84.101 1.774.171 2.75.171s1.909-.07 2.75-.171c0 .001.001.002.002.003l1 1.5c.289.434.765.668 1.249.668.286 0 .575-.082.831-.252.689-.459.876-1.391.416-2.08l-.287-.431c.309-.079.493-.133.522-.142.327-.099.582-.357.675-.686.027-.098.555-1.997.761-4.749-1.004.206-2.357.444-3.918.614v1.227z"/><path d="m5.498 4.5c.061 0 .121-.003.183-.011.032-.004 2.629-.317 4.819-.44v1.003c-2.748.189-4.879.821-4.982.853-.282.085-.512.29-.629.559-.022.051-.348.818-.599 2.305 1.521-.299 4.434-.769 7.71-.769 3.238 0 6.151.457 7.71.756-.251-1.489-.579-2.247-.601-2.298-.118-.267-.347-.469-.626-.553-.105-.031-2.231-.664-4.983-.853v-1.003c2.189.123 4.787.436 4.819.44.818.099 1.569-.486 1.67-1.309.1-.822-.486-1.57-1.309-1.669-.173-.021-4.246-.511-6.681-.511s-6.508.49-6.681.511c-.822.1-1.408.847-1.309 1.669.093.761.739 1.32 1.487 1.32z"/></svg>