<svg id="Layer_1" viewBox="0 0 24 24" xmlns="http://www.w3.org/2000/svg" data-name="Layer 1"><path d="m22.998 12.748c-.037 2.64-.624 3.946-.694 4.089-.134.275-.386.474-.685.539-.031.007-.256.055-.614.122v.002c0 .828-.671 1.5-1.5 1.5-.688 0-1.262-.466-1.439-1.098-.659.059-1.36.098-2.062.098s-1.403-.039-2.062-.098c-.177.632-.75 1.098-1.439 1.098-.829 0-1.5-.672-1.5-1.5v-.002c-.358-.066-.583-.115-.614-.122-.299-.065-.551-.264-.685-.539-.07-.143-.657-1.449-.694-4.089.499-.099 1.616-.304 2.994-.476v.726c0 .553.448 1 1 1s1-.447 1-1v-.922c.656-.046 1.329-.078 2-.078s1.345.031 2 .078v.922c0 .553.448 1 1 1s1-.447 1-1v-.726c1.378.171 2.495.377 2.994.476zm-9.994-8.75v-1.996c.013-.586-.545-1.074-1.123-.992-4.157.067-8.583.93-8.753.967-.577.126-1.026.58-1.147 1.158-.04.191-.979 4.732-.979 8.84 0 4.585.851 9.254.887 9.45.118.516.341.968 1.062 1.216.256.09 1.525.359 4.052.359.552 0 1-.447 1-1v-4c0-.477-.336-.887-.804-.981-1.063-.215-2.947-.487-2.947-.487-.14-1.401-.249-2.995-.249-4.558 0-2.718.466-5.744.733-7.256.571-.104 1.368-.236 2.287-.359.03.545.551.971 1.09.9 1.391-.154 2.706-.242 3.907-.262.546-.009.984-.454.984-1zm9.673 4.806c-.216-1.262-1.219-2.244-2.493-2.444-.82-.13-1.967-.276-3.18-.334v3.992c2.437.087 4.742.459 5.914.677-.065-.74-.156-1.398-.241-1.892zm-13.346-.001c-.085.494-.176 1.153-.241 1.893 1.172-.218 3.477-.59 5.914-.677v-3.992c-1.212.058-2.36.204-3.179.333-1.276.2-2.278 1.183-2.494 2.444zm10.998 10.938c-.022.002-2.222.259-4.325.259s-4.303-.257-4.325-.259c-.82-.11-1.568.491-1.666 1.314-.097.822.491 1.569 1.314 1.665.097.012 2.392.28 4.677.28s4.58-.269 4.677-.28c.823-.097 1.411-.843 1.314-1.665-.098-.822-.846-1.425-1.666-1.314z"/></svg>