<?xml version="1.0" encoding="UTF-8"?>
<svg xmlns="http://www.w3.org/2000/svg" id="Layer_1" data-name="Layer 1" viewBox="0 0 24 24">
  <path d="M20.244,8.651c-.095-.02-1.545-.321-3.667-.544v7.839h5.493c.003-.139,.005-.28,.005-.422,0-3.538-1.057-6.156-1.102-6.266-.128-.311-.401-.539-.729-.607Z"/>
  <path d="M3.314,21.789c.128,.311,.401,.539,.73,.607,.153,.033,3.794,.786,8.1,.786s7.947-.753,8.1-.786c.329-.069,.604-.298,.731-.611,.033-.083,.634-1.587,.934-3.813H2.378c.299,2.238,.903,3.734,.937,3.817Z"/>
  <path d="M7.71,8.107c-2.119,.223-3.571,.523-3.666,.544-.33,.069-.605,.298-.732,.611-.045,.111-1.1,2.754-1.1,6.262,0,.142,.002,.283,.005,.422H7.71v-7.838Z"/>
  <path d="M9.599,6.429c.028,0,.056,0,.083-.002l.062,9.514,4.807,.004V7.939c-.764-.046-1.573-.074-2.407-.074-.129,0-.258,0-.386,.002h-.076v-3.482s0-.009,0-.013c0-.004,0-.008,0-.013,0-1.141-.935-2.068-2.083-2.068s-2.083,.928-2.083,2.068,.935,2.069,2.083,2.069Z"/>
  <path d="M16.102,5.269c1.148,0,2.083-.928,2.083-2.068s-.935-2.068-2.083-2.068-2.084,.928-2.084,2.068,.935,2.068,2.084,2.068Z"/>
  <path d="M22.981,1.629c-.105-.543-.632-.896-1.171-.794l-1.443,.277c-.543,.104-.928,.636-.794,1.171,.229,.917,1.107,.806,1.171,.794l1.443-.277c.543-.104,.897-.629,.794-1.171Z"/>
  <path d="M5.231,5.224c-.104-.542-.628-.893-1.17-.794l-2.249,.432c-.542,.104-.899,.629-.793,1.171,.167,.856,1.016,.832,1.17,.794l2.249-.432c.542-.104,.897-.629,.793-1.171Z"/>
</svg>
