<svg id="Layer_1" viewBox="0 0 24 24" xmlns="http://www.w3.org/2000/svg" data-name="Layer 1"><path d="m3.141 18.12-.332-1.162-1.162-.332c-.863-.247-.863-1.47 0-1.717l1.162-.332.332-1.162c.247-.863 1.47-.863 1.717 0l.332 1.162 1.162.332c.863.247.863 1.47 0 1.717l-1.162.332-.332 1.162c-.247.863-1.47.863-1.717 0zm19.319-15.568-.968-.277-.277-.968c-.206-.719-1.225-.719-1.431 0l-.277.968-.968.277c-.72.206-.72 1.225 0 1.431l.968.277.277.968c.206.72 1.225.72 1.431 0l.277-.968.968-.277c.72-.206.72-1.225 0-1.431zm-3.751 17.694c-.139-.02-3.432-.479-6.709-.479s-6.571.459-6.709.479c-.82.115-1.391.874-1.276 1.694.116.82.873 1.388 1.694 1.276.032-.005 3.229-.449 6.291-.449s6.259.444 6.291.449c.803.118 1.583-.453 1.694-1.276.115-.82-.456-1.579-1.276-1.694zm-1.724-8.02c.115-.82-.456-1.578-1.276-1.694-.077-.011-1.896-.265-3.709-.265s-3.633.254-3.709.265c-.82.116-1.391.874-1.276 1.694.116.82.872 1.389 1.694 1.276.017-.002 1.694-.235 3.291-.235s3.274.233 3.291.235c.803.118 1.582-.453 1.694-1.276zm-9.276-3.152c.022-.003 2.206-.307 4.291-.307s4.269.304 4.291.307c.803.118 1.583-.453 1.694-1.276.115-.82-.456-1.578-1.276-1.694-.097-.014-2.409-.336-4.709-.336s-4.612.322-4.709.336c-.82.116-1.391.874-1.276 1.694s.874 1.389 1.694 1.276zm4.291 5.693c-1.325 0-2.654.186-2.71.193-.82.116-1.391.874-1.275 1.694.115.819.867 1.39 1.694 1.276.012-.002 1.183-.164 2.291-.164s2.279.162 2.291.164c.803.118 1.582-.453 1.694-1.276.116-.82-.455-1.578-1.275-1.694-.056-.008-1.385-.193-2.71-.193zm-2.291-10.835c.012-.002 1.183-.164 2.291-.164s2.279.162 2.291.164c.803.118 1.582-.453 1.694-1.276.116-.82-.455-1.578-1.275-1.694-.056-.008-1.385-.193-2.71-.193s-2.654.186-2.71.193c-.82.116-1.391.874-1.275 1.694.115.819.867 1.388 1.694 1.276z"/></svg>