<svg id="Layer_1" viewBox="0 0 24 24" xmlns="http://www.w3.org/2000/svg" data-name="Layer 1"><path d="m22.352 4.608-1.162.332-.332 1.162c-.247.863-1.47.863-1.717 0l-.332-1.162-1.162-.332c-.863-.247-.863-1.47 0-1.717l1.162-.332.332-1.162c.247-.863 1.47-.863 1.717 0l.332 1.162 1.162.332c.863.247.863 1.47 0 1.717zm-18.137 2.602.277-.968.968-.277c.72-.206.72-1.225 0-1.431l-.968-.277-.277-.968c-.206-.719-1.225-.719-1.431 0l-.277.968-.968.277c-.72.206-.72 1.225 0 1.431l.968.277.277.968c.206.72 1.225.72 1.431 0zm7.785-2.459c1.127-.007 1.972-.487 2-2-.025-1.453-.877-1.993-2-2-1.127.007-1.974.516-2 2 .028 1.509.877 1.993 2 2zm8.261 6.686c.448.696.248 1.623-.447 2.072-.696.448-1.623.25-2.073-.446-.012-.018-.722-1.106-1.741-2.266-.003 2.104-.36 3.885-.375 3.96-.065.32-.114.61-.124.669v4.478c1.799.147 3.138.349 3.226.362.818.125 1.382.889 1.257 1.708-.12.823-.906 1.385-1.707 1.258-.032-.005-3.223-.483-6.275-.483s-6.243.478-6.275.483c-.801.125-1.583-.438-1.707-1.258-.125-.819.438-1.583 1.257-1.708.087-.013 1.427-.214 3.226-.362v-4.537c-.023-.113-.071-.351-.124-.611-.015-.074-.356-1.786-.373-3.833-1.029 1.133-1.763 2.17-1.775 2.187-.479.683-1.419.838-2.089.366-.678-.476-.843-1.41-.367-2.088.098-.139 2.422-3.434 4.986-5.144.136-.091.286-.159.444-.201.112-.03 1.148-.294 2.798-.294s2.866.269 2.917.28c.181.041.352.114.505.216 2.589 1.727 4.748 5.051 4.839 5.192zm-7.761 8.317v-4.016c-.174.007-.343.012-.5.012s-.326-.005-.5-.012v4.017c.167-.002.333-.005.5-.005s.333.002.5.005z"/></svg>