<svg id="Layer_1" viewBox="0 0 24 24" xmlns="http://www.w3.org/2000/svg" data-name="Layer 1"><path d="m22.852 6.142c-.054.375-.315.687-.674.807-.356.119-.755.027-1.023-.242l-.871-.871-4.501 4.501c.14.479.216 1.028.216 1.663 0 2.161-.812 3.395-2.5 3.82v2.18h.5c.828 0 1.5.671 1.5 1.5s-.672 1.5-1.5 1.5h-.5v.5c0 .829-.671 1.5-1.5 1.5s-1.5-.671-1.5-1.5v-.5h-.5c-.829 0-1.5-.671-1.5-1.5s.671-1.5 1.5-1.5h.5v-2.18c-1.688-.425-2.5-1.658-2.5-3.82 0-.635.076-1.183.216-1.663l-1.216-1.216-.439.439c-.586.586-1.535.586-2.121 0-.586-.585-.586-1.536 0-2.121l.439-.439-1.164-1.164-.871.871c-.268.269-.668.361-1.023.242-.359-.12-.62-.432-.673-.807-.197-1.375-.197-2.77 0-4.146.062-.44.408-.786.848-.848 1.375-.197 2.769-.197 4.146 0 .375.053.687.314.807.673s.026.756-.242 1.023l-.871.871 1.164 1.164.439-.439c.586-.586 1.535-.586 2.121 0 .586.585.586 1.536 0 2.121l-.439.439 1.216 1.216c.479-.14 1.028-.216 1.663-.216s1.183.076 1.663.216l4.501-4.501-.871-.871c-.268-.268-.361-.664-.241-1.023.119-.359.432-.62.807-.673 1.375-.197 2.77-.197 4.145 0 .439.062.785.408.849.848.197 1.376.197 2.771 0 4.146z"/></svg>