<svg id="Layer_1" viewBox="0 0 24 24" xmlns="http://www.w3.org/2000/svg" data-name="Layer 1"><path d="m22.352 16.626-1.162.332-.332 1.162c-.247.863-1.47.863-1.717 0l-.332-1.162-1.162-.332c-.863-.247-.863-1.47 0-1.717l1.162-.332.332-1.162c.247-.863 1.47-.863 1.717 0l.332 1.162 1.162.332c.863.247.863 1.47 0 1.717zm-18.137-11.398.277-.968.968-.277c.72-.206.72-1.225 0-1.431l-.968-.277-.277-.968c-.206-.719-1.225-.719-1.431 0l-.277.968-.968.277c-.72.206-.72 1.225 0 1.431l.968.277.277.968c.206.72 1.225.72 1.431 0zm14.494 15.018c-.138-.02-3.432-.479-6.709-.479s-6.571.459-6.709.479c-.82.115-1.391.874-1.276 1.694.116.82.871 1.388 1.694 1.276.032-.005 3.229-.449 6.291-.449s6.259.444 6.291.449c.803.118 1.583-.453 1.694-1.276.115-.82-.456-1.579-1.276-1.694zm-6.709-9.979c-1.813 0-3.633.254-3.709.265-.82.116-1.391.874-1.276 1.694.116.82.871 1.389 1.694 1.276.017-.002 1.694-.235 3.291-.235s3.274.233 3.291.235c.803.118 1.583-.453 1.694-1.276.115-.82-.456-1.578-1.275-1.694-.077-.011-1.896-.265-3.71-.265zm-4.291-1.193c.022-.003 2.206-.307 4.291-.307s4.269.304 4.291.307c.803.118 1.583-.452 1.694-1.276.115-.82-.456-1.578-1.275-1.694-.098-.014-2.408-.336-4.71-.336s-4.612.322-4.709.336c-.82.116-1.391.874-1.276 1.694s.873 1.389 1.694 1.276zm2-5.143c.012-.002 1.183-.164 2.291-.164s2.279.162 2.291.164c.803.118 1.583-.453 1.694-1.276.115-.82-.456-1.578-1.275-1.694-.057-.008-1.386-.193-2.71-.193s-2.654.186-2.71.193c-.82.116-1.391.874-1.275 1.694.115.819.869 1.388 1.694 1.276z"/></svg>