<svg id="Layer_1" viewBox="0 0 24 24" xmlns="http://www.w3.org/2000/svg" data-name="Layer 1"><path d="m16 15.5c0 5.187-2.313 7.5-7.5 7.5s-7.5-2.313-7.5-7.5 2.313-7.5 7.5-7.5 7.5 2.313 7.5 7.5zm-.5-14.5c-4.264 0-6.586 1.564-7.277 5.002.092-.001.184-.002.277-.002 2.684 0 4.804.58 6.354 1.732l1.217-1.217-.707-.707c-.268-.268-.361-.664-.241-1.023.119-.359.432-.62.807-.674 1.033-.146 2.078-.146 3.111 0 .439.063.785.409.849.849.147 1.032.147 2.079 0 3.111-.054.375-.314.688-.674.807-.355.12-.755.028-1.023-.241l-.707-.707-1.217 1.217c1.152 1.55 1.732 3.671 1.732 6.354 0 .093 0 .185-.002.277 3.438-.691 5.002-3.013 5.002-7.277 0-5.187-2.313-7.5-7.5-7.5z"/></svg>