<svg id="Layer_1" viewBox="0 0 24 24" xmlns="http://www.w3.org/2000/svg" data-name="Layer 1"><path d="m21.389 4.703c-.108-.045-1.83-.756-4.479-1.245-.306-1.135-.638-1.639-.739-1.771-.146-.19-.354-.322-.589-.371-.062-.013-1.534-.316-3.582-.316s-3.489.305-3.549.317c-.232.05-.439.181-.583.369-.101.132-.432.633-.738 1.765-2.671.489-4.41 1.206-4.518 1.252-.509.215-.747.8-.533 1.309.168.397.591.667 1.002.597.075 1.452.198 2.958.406 4.528.852 6.453 2.304 9.902 2.586 10.528.112.249.321.44.578.531.533.188 2.493.804 5.349.804s4.816-.615 5.349-.804c.258-.091.467-.282.578-.531.283-.626 1.734-4.075 2.587-10.528.208-1.569.331-3.075.406-4.529.418.033.83-.187 1.002-.596.213-.509-.025-1.094-.533-1.309zm-5.789 8.097c-.437.329-1.067.245-1.399-.2-.368-.489-.774-.945-1.2-1.381v5.782c0 .553-.448 1-1 1s-1-.447-1-1v-5.782c-.427.436-.833.892-1.2 1.382-.33.442-.956.532-1.4.2-.442-.331-.531-.958-.2-1.399.911-1.215 1.987-2.291 3.2-3.2.355-.268.844-.268 1.2 0 1.213.91 2.29 1.986 3.2 3.2.332.441.242 1.068-.2 1.399z"/></svg>