<svg id="Layer_1" viewBox="0 0 24 24" xmlns="http://www.w3.org/2000/svg" data-name="Layer 1"><path d="m21.389 4.703c-.108-.045-1.83-.756-4.479-1.245-.306-1.135-.638-1.639-.739-1.771-.146-.19-.354-.322-.589-.371-.062-.013-1.534-.316-3.582-.316s-3.488.305-3.549.317c-.232.05-.44.182-.585.37-.1.132-.43.633-.737 1.764-2.671.489-4.409 1.206-4.518 1.252-.508.215-.746.8-.533 1.309.191.454.675.672 1.137.569-.141 1.503-.215 3.346-.215 5.419 0 6.103 1.078 9.206 1.124 9.335.099.277.315.498.591.602.116.043 2.888 1.063 7.285 1.063s7.169-1.021 7.285-1.063c.275-.104.492-.324.591-.602.046-.129 1.124-3.232 1.124-9.335 0-2.073-.074-3.915-.215-5.418.451.147.949-.126 1.137-.57.213-.509-.025-1.094-.533-1.309zm-5.789 8.097c-.437.329-1.067.245-1.399-.2-.368-.489-.774-.945-1.2-1.381v5.782c0 .553-.447 1-1 1s-1-.447-1-1v-5.782c-.427.436-.833.892-1.2 1.381-.33.443-.957.532-1.399.2-.442-.331-.532-.958-.2-1.399.91-1.214 1.986-2.29 3.2-3.2.355-.268.844-.268 1.199 0 1.214.91 2.29 1.986 3.2 3.2.332.441.242 1.068-.2 1.399z"/></svg>