<svg id="Layer_1" viewBox="0 0 24 24" xmlns="http://www.w3.org/2000/svg" data-name="Layer 1"><path d="m3.186 8.138 14.085 14.085c-.613.21-2.518.777-5.271.777-2.854 0-4.816-.614-5.35-.803-.258-.091-.467-.284-.579-.533-.282-.629-1.735-4.093-2.585-10.527-.136-1.027-.227-2.02-.301-2.999zm19.375 12.301-3.195-3.195c.405-1.603.821-3.629 1.149-6.107.208-1.575.331-3.079.406-4.528.411.07.833-.2 1.002-.597.213-.509-.025-1.094-.533-1.308-.108-.046-1.83-.756-4.479-1.245-.307-1.135-.637-1.639-.738-1.771-.146-.191-.355-.323-.591-.373-.062-.013-1.533-.315-3.581-.315s-3.488.304-3.549.317c-.232.05-.439.181-.584.37-.101.132-.432.633-.737 1.765-.463.085-.886.177-1.287.27l-2.283-2.283c-.586-.586-1.535-.586-2.121 0-.586.585-.586 1.536 0 2.121l18.999 19.001c.586.586 1.535.586 2.121 0 .586-.585.586-1.536 0-2.121z"/></svg>