<svg id="Layer_1" viewBox="0 0 24 24" xmlns="http://www.w3.org/2000/svg" data-name="Layer 1"><path d="m21.389 4.704c-.108-.046-1.83-.756-4.479-1.245-.307-1.135-.637-1.639-.738-1.771-.146-.191-.355-.323-.591-.373-.062-.013-1.533-.315-3.581-.315s-3.488.304-3.549.317c-.232.05-.439.181-.584.37-.101.132-.432.633-.737 1.765-2.671.489-4.41 1.206-4.518 1.252-.509.214-.747.799-.533 1.308.19.453.674.673 1.137.57-.141 1.504-.215 3.346-.215 5.418 0 6.103 1.079 9.206 1.125 9.335.099.278.315.498.591.602.116.043 2.887 1.063 7.284 1.063s7.168-1.021 7.285-1.063c.275-.104.492-.324.591-.601.046-.129 1.125-3.233 1.125-9.335 0-2.071-.074-3.913-.216-5.419.451.147.95-.125 1.138-.57.213-.509-.025-1.094-.533-1.308zm-6.389 9.296h-2v2c0 .552-.448 1-1 1s-1-.448-1-1v-2h-2c-.552 0-1-.448-1-1s.448-1 1-1h2v-2c0-.552.448-1 1-1s1 .448 1 1v2h2c.553 0 1 .448 1 1s-.447 1-1 1z"/></svg>