<svg id="Layer_1" viewBox="0 0 24 24" xmlns="http://www.w3.org/2000/svg" data-name="Layer 1"><path d="m21.389 4.704c-.108-.046-1.83-.756-4.479-1.245-.307-1.135-.637-1.639-.738-1.771-.146-.191-.355-.323-.591-.373-.062-.013-1.533-.315-3.581-.315s-3.488.304-3.549.317c-.232.05-.439.181-.584.37-.101.132-.432.633-.737 1.765-2.671.489-4.41 1.206-4.518 1.252-.509.214-.747.799-.533 1.308.171.409.583.63 1.002.596.075 1.451.198 2.956.406 4.529.852 6.45 2.304 9.902 2.586 10.529.112.249.321.44.578.532.533.188 2.492.803 5.349.803s4.817-.614 5.349-.803c.258-.091.467-.284.579-.533.283-.629 1.736-4.096 2.586-10.527.208-1.575.331-3.079.406-4.528.411.07.833-.2 1.002-.597.213-.509-.025-1.094-.533-1.308zm-6.389 9.296h-2v2c0 .552-.448 1-1 1s-1-.448-1-1v-2h-2c-.552 0-1-.448-1-1s.448-1 1-1h2v-2c0-.552.448-1 1-1s1 .448 1 1v2h2c.553 0 1 .448 1 1s-.447 1-1 1z"/></svg>