<svg id="Layer_1" viewBox="0 0 24 24" xmlns="http://www.w3.org/2000/svg" data-name="Layer 1"><path d="m4.329 9.35c-.281-.248-.393-.659-.284-1.017.018-.059.438-1.455 1.787-3.731 1.317-2.223 2.39-3.202 2.508-3.307.377-.335.947-.335 1.323 0 .071.063.496.453 1.108 1.238-.215.322-.434.664-.663 1.05-1.405 2.372-1.897 3.895-1.979 4.169-.157.516-.167 1.054-.047 1.559l-.329.681c-1.519-.108-2.671-.393-3.425-.642zm1.321 7.529c-1.504-.166-2.585-.442-3.53-.722-.806 1.785-1.07 2.821-1.085 2.883-.125.51.166 1.031.667 1.19.073.023 1.36.414 3.776.641-.421-.668-.588-1.491-.388-2.308.021-.085.175-.68.559-1.684zm1.233-4.959c-1.526-.169-2.696-.49-3.467-.766-.593 1.228-.841 1.941-.857 1.987-.158.44.043.966.452 1.19.92.261 1.975.494 3.459.615l.212-.47c-.228-.634-.246-1.344-.008-2.01.019-.056.088-.247.209-.547zm16.081 7.12c-.02-.082-.466-1.853-2.036-4.825.265-.233.399-.597.322-.96-.015-.068-.33-1.499-1.599-3.883.291-.25.415-.67.303-1.038-.018-.059-.438-1.455-1.787-3.731-1.317-2.223-2.389-3.202-2.507-3.307-.377-.335-.947-.335-1.323 0-.118.104-1.191 1.083-2.508 3.307-1.348 2.276-1.769 3.673-1.787 3.731-.109.358.002.768.284 1.017.949.313 2.52.689 4.673.689.552 0 .999.447.999.999s-.447.999-.999.999c-2.602 0-4.489-.492-5.586-.884-.593 1.228-.841 1.941-.857 1.987-.158.44.043.966.452 1.19 1.337.379 2.932.705 5.761.705.411 0 .802-.012 1.172-.034.546-.023 1.024.389 1.055.94.032.551-.388 1.023-.94 1.056-.407.023-.835.037-1.287.037-3.327 0-5.155-.435-6.651-.878-.806 1.785-1.07 2.821-1.085 2.883-.107.435.1.864.471 1.083v1.41c0 .828.671 1.499 1.499 1.499s1.499-.671 1.499-1.499v-.765c.822.104 1.82.192 2.998.235v.529c0 .828.671 1.499 1.499 1.499s1.499-.671 1.499-1.499v-.529c3.745-.137 5.709-.744 5.8-.773.501-.16.793-.68.667-1.19z"/></svg>