<?xml version="1.0" encoding="UTF-8"?>
<svg xmlns="http://www.w3.org/2000/svg" id="Layer_1" data-name="Layer 1" viewBox="0 0 24 24">
  <path d="M20.885,17.898l-.733-2.129c-.367-1.067-.959-2.087-1.766-3.049,.214-.081,.396-.234,.513-.436,.144-.25,.173-.551,.079-.825l-.367-1.065c-.422-1.226-1.149-2.267-1.915-3.1,.119-.083,.22-.192,.294-.321,.144-.25,.173-.551,.079-.825-1.088-3.157-4.46-4.958-4.603-5.034-.292-.153-.639-.153-.931,0-.131,.069-2.985,1.594-4.293,4.287,.778,.176,2.652,.387,3.659,.441,.551,.029,.975,.5,.945,1.052-.028,.533-.47,.947-.998,.947-.018,0-.036,0-.054-.001-.027-.002-2.162-.143-3.609-.414-.721,.811-1.395,1.806-1.796,2.968l-.193,.56c1.708,.282,5.559,.561,6.803,.561,.552,0,1,.448,1,1s-.448,1-1,1c-1.144,0-4.54-.224-6.614-.512-.691,.878-1.206,1.803-1.537,2.766l-.733,2.129c-.094,.273-.065,.574,.079,.825,.145,.251,.39,.427,.674,.482l2.972,.583c1.362,.267,2.757,.428,4.16,.479v1.733c0,.552,.448,1,1,1s1-.448,1-1v-1.733c1.403-.052,2.799-.212,4.16-.479l2.972-.583c.284-.056,.53-.231,.674-.482,.144-.25,.173-.551,.079-.825Z"/>
</svg>
