<?xml version="1.0" encoding="UTF-8"?>
<svg xmlns="http://www.w3.org/2000/svg" id="Layer_1" data-name="Layer 1" viewBox="0 0 24 24">
  <path d="M22.436,9.879c-.139-.312-.427-.532-.765-.584-.183-.027-4.53-.675-9.677-.675s-9.493,.647-9.677,.675c-.347,.053-.641,.283-.774,.607-.022,.054-.543,1.332-.543,2.956,0,1.651,.532,2.854,.555,2.905,.137,.304,.416,.521,.746,.576,.183,.03,4.538,.756,9.693,.756s9.51-.726,9.693-.756c.332-.057,.614-.275,.75-.584,.022-.053,.563-1.301,.563-2.937,0-1.65-.541-2.889-.564-2.94Z"/>
  <path d="M3.509,18.535c.122,1.522,1.392,2.723,2.937,2.723,1.371,0,2.526-.946,2.854-2.223-2.4-.106-4.463-.329-5.791-.5Z"/>
  <path d="M14.7,19.034c.328,1.278,1.483,2.224,2.854,2.224,1.545,0,2.816-1.202,2.937-2.726-1.329,.172-3.395,.395-5.791,.502Z"/>
  <path d="M20.503,7.127c-1.049-1.939-2.1-3.228-2.159-3.3-.121-.147-.281-.257-.462-.315-.078-.026-1.941-.627-4.362-.769-.271-.009-1.022,.125-1.059,.998v2.882c3.375,.024,6.344,.305,8.042,.505Z"/>
</svg>
