<svg id="Layer_1" viewBox="0 0 24 24" xmlns="http://www.w3.org/2000/svg" data-name="Layer 1"><path d="m11.517 2.317c-.092-.352-.369-.626-.721-.716-.097-.024-2.393-.602-4.296-.602s-4.199.578-4.296.603c-.353.09-.629.364-.721.716-.02.075-.483 1.86-.483 3.683s.463 3.607.483 3.683c.092.352.369.626.721.716.097.024 2.393.602 4.296.602s4.199-.577 4.296-.602c.353-.09.629-.364.721-.716.02-.075.483-1.86.483-3.683s-.463-3.607-.483-3.683zm-4.017 3.683h-2c-.552 0-1-.447-1-1s.448-1 1-1h2c.552 0 1 .447 1 1s-.448 1-1 1zm-3.424 14.594c1.327.148 3.28.313 5.765.377-.406 1.176-1.512 2.029-2.825 2.029-1.451 0-2.664-1.035-2.94-2.406zm14.941-8.593c0-1.328-.088-2.669-.207-3.883 1.573.156 2.794.408 2.862.422.373.079.669.362.764.731.02.079.433 1.724.549 3.729h-3.997c.017-.339.029-.674.029-.999zm-.206 2.999h4.166c-.102 1.329-.383 1.992-.49 2.486-.086.399-.425.794-.827.863-.347.06-1.545.251-3.475.41.229-1.113.464-2.424.626-3.759zm-2.702 3.878c-2.259.068-4.253.122-4.775.122-4.829 0-7.939-.471-8.778-.616-.409-.07-.732-.387-.812-.795-.11-.565-.606-2.86-.719-5.53.216.117.445.216.69.278.269.068 2.684.663 4.785.663s4.517-.595 4.79-.664c1.055-.269 1.884-1.09 2.163-2.151.057-.215.547-2.163.547-4.186 0-.926-.104-1.828-.221-2.564 1.012.169 1.689.326 1.749.34.379.089.672.391.75.773.03.144.721 3.555.721 6.951 0 2.743-.633 5.831-.892 7.378zm-1.918 2.093c2.485-.064 4.438-.229 5.765-.377-.276 1.371-1.489 2.406-2.94 2.406-1.313 0-2.419-.853-2.825-2.029z"/></svg>