<svg id="Layer_1" viewBox="0 0 24 24" xmlns="http://www.w3.org/2000/svg" data-name="Layer 1"><path d="m19.024 11.001c0-1.328-.088-2.669-.207-3.883 1.573.156 2.794.408 2.862.422.373.079.669.362.764.731.02.079.433 1.724.549 3.729h-3.997c.017-.339.029-.674.029-.999zm-.029 1s0 0 0 0zm-11.972 9.999c1.313 0 2.419-.853 2.825-2.029-2.485-.064-4.438-.229-5.765-.377.276 1.371 1.489 2.406 2.94 2.406zm11.169-4.241c1.93-.159 3.128-.35 3.475-.41.402-.069.741-.464.827-.863.107-.494.388-1.157.49-2.486h-4.166c-.162 1.335-.397 2.646-.626 3.759zm-1.169 4.241c1.451 0 2.664-1.035 2.94-2.406-1.327.148-3.28.313-5.765.377.406 1.176 1.512 2.029 2.825 2.029zm-.907-4.122c-2.259.068-4.253.122-4.775.122-4.829 0-7.939-.471-8.778-.616-.409-.07-.732-.387-.812-.795-.125-.639-.744-3.486-.744-6.589 0-3.396.691-6.307.721-6.451.078-.382.371-.684.75-.773.135-.032 3.338-.776 6.529-.776s6.394.745 6.529.776c.379.089.672.391.75.773.03.144.721 3.555.721 6.951 0 2.743-.633 5.831-.892 7.378zm-5.108-7.878c0-.552-.448-1-1-1h-5.782c.436-.427.892-.833 1.382-1.2.442-.331.531-.958.2-1.4-.331-.44-.957-.532-1.4-.2-1.213.91-2.29 1.986-3.2 3.2-.267.355-.267.845 0 1.2.91 1.213 1.986 2.29 3.2 3.2.18.135.391.2.599.2.304 0 .604-.138.801-.4.332-.442.242-1.069-.2-1.4-.49-.367-.946-.773-1.382-1.2h5.782c.552 0 1-.448 1-1z"/></svg>