<?xml version="1.0" encoding="UTF-8"?>
<svg xmlns="http://www.w3.org/2000/svg" id="Layer_1" data-name="Layer 1" viewBox="0 0 24 24">
  <path d="M22.069,3.961l.576-.274c.748-.356,1.065-1.252,.709-1.999-.355-.748-1.252-1.063-1.999-.71l-.577,.274c-1.63,.777-2.695,2.382-2.779,4.188l-.506,10.793c-.063,.017-.126,.039-.188,.065-1.305,.553-3.891,1.557-6.556,2.073-3.764,.728-8.665,.623-8.714,.619-.833-.039-1.516,.636-1.536,1.464s.635,1.516,1.463,1.536c.05,0,.366,.008,.874,.008,1.657,0,5.354-.076,8.483-.682,1.654-.32,3.268-.807,4.615-1.277,.189,1.759,1.678,3.128,3.486,3.128,1.937,0,3.507-1.57,3.507-3.507,0-1.563-1.023-2.887-2.436-3.34l.503-10.741c.032-.698,.443-1.318,1.072-1.618Z"/>
</svg>
