<?xml version="1.0" encoding="UTF-8"?>
<svg xmlns="http://www.w3.org/2000/svg" id="Layer_1" data-name="Layer 1" viewBox="0 0 24 24">
  <path d="M16.673,3.228c-.098-.326-.354-.581-.681-.676-.127-.036-3.147-.899-6.714-.899s-6.585,.863-6.712,.899c-.329,.095-.586,.352-.682,.679-.036,.122-.878,3.031-.878,6.903,0,3.905,.843,6.785,.878,6.906,.104,.351,.392,.616,.749,.692,.125,.027,3.113,.66,6.645,.66s6.52-.633,6.645-.66c.359-.076,.647-.344,.75-.695,.036-.122,.878-3.031,.878-6.903,0-3.905-.843-6.785-.878-6.906Z"/>
  <path d="M3.693,19.953c.226,1.357,1.407,2.395,2.828,2.395,1.262,0,2.336-.82,2.718-1.955-2.243-.003-4.254-.241-5.545-.44Z"/>
  <g>
    <path d="M19.53,11.217h3.434c-.133-2.03-.533-3.433-.553-3.503-.095-.327-.35-.583-.676-.681-.058-.017-1.027-.301-2.401-.481,.126,1.051,.217,2.264,.217,3.582,0,.37-.007,.731-.02,1.083Z"/>
    <path d="M19.389,13.217c-.266,2.564-.769,4.291-.798,4.388-.043,.146-.097,.288-.16,.424h3.019c.446,0,.839-.296,.961-.725,.022-.077,.497-1.761,.583-4.087h-3.605Z"/>
  </g>
  <path d="M14.909,20.028c.257,1.32,1.42,2.319,2.813,2.319s2.558-1,2.815-2.319h-5.628Z"/>
</svg>
