<svg id="Layer_1" viewBox="0 0 24 24" xmlns="http://www.w3.org/2000/svg" data-name="Layer 1"><path d="m12.911 9c-.088-1.5-.225-3.066-.342-3.854-.043-.292.045-.589.241-.81.195-.222.48-.334.774-.337 1.501.04 2.977.217 3.95.358 1.329.193 2.348 1.216 2.535 2.543.083.589.174 1.319.253 2.099h-7.412zm-6.91 13c1.327 0 2.442-.872 2.837-2.068-2.499-.105-4.54-.309-5.789-.46.228 1.429 1.46 2.528 2.952 2.528zm12 0c1.502 0 2.738-1.113 2.955-2.556-1.104.158-3.074.385-5.79.493.396 1.194 1.51 2.063 2.835 2.063zm4.2-10.035c-.456-.495-1.069-.857-1.726-.965h-7.482c.003.172.007.348.007.5 0 1.28-.109 2.483-.245 3.491-.254.003-.491.009-.755.009-4.637 0-8.281-.47-9.287-.614-.814-.112-1.58.453-1.698 1.272-.117.82.453 1.58 1.272 1.698 1.057.15 4.878.644 9.713.644 5.864-.048 8.244-.434 9.931-.766.421-.076.748-.412.812-.836.104-.689.188-1.427.247-2.133.069-.843-.219-1.682-.789-2.301z"/></svg>