<svg id="Layer_1" viewBox="0 0 24 24" xmlns="http://www.w3.org/2000/svg" data-name="Layer 1"><path d="m14.962 10c-.076-1.75-.25-3.888-.393-4.854-.089-.598.383-1.169 1.017-1.147 1.564.043 3.265.232 4.416.384 1.329.175 2.387 1.226 2.574 2.556.119.852.252 1.943.337 3.061h-7.952zm8.037 2h-8.009c-.024 1.207-.128 2.216-.232 2.953-.865.027-1.787.045-2.769.047-5.056.005-8.642-.383-9.25-.48-.818-.136-1.589.425-1.72 1.241-.132.818.424 1.588 1.241 1.72.98.171 5.153.54 9.737.52 4.473-.014 7.706-.356 9.229-.457.612-.041 1.184-.533 1.336-1.25.148-.676.452-2.125.437-4.293zm-21.985 7.136c.073 1.59 1.379 2.864 2.986 2.864 1.044 0 1.962-.537 2.5-1.348.538.811 1.456 1.348 2.5 1.348 1.302 0 2.402-.839 2.816-2.001-5.858-.015-10.254-.722-10.298-.73-.174-.028-.341-.076-.505-.133zm16.986 2.864c1.492 0 2.724-1.098 2.952-2.527-1.127.149-3.111.363-5.787.466.397 1.193 1.51 2.061 2.835 2.061z"/></svg>