<svg id="Layer_1" viewBox="0 0 24 24" xmlns="http://www.w3.org/2000/svg" data-name="Layer 1"><path d="m21.799 4.634c-.262-.732-1.34-.857-1.756-.198-.035.051-2.739 3.943-6.043 5.706.067-.875-.614-1.646-1.5-1.641-.828 0-1.5.672-1.5 1.5v.5h-1v-.5c0-.828-.672-1.5-1.5-1.5s-1.5.672-1.5 1.5v.5h-1v-.5c0-.828-.672-1.5-1.5-1.5s-1.5.672-1.5 1.5v.5h-.5c-.828 0-1.5.672-1.5 1.5s.672 1.5 1.5 1.5h.634c-.08.384-.134.792-.134 1.25 0 2.82 1.514 4.25 4.5 4.25h2c2.986 0 4.5-1.43 4.5-4.25 0-.437-.049-.829-.122-1.199 3.962 1.544 6.062 5.826 6.087 5.879.346.74 1.504.688 1.829-.052.777-1.586 1.194-4.136 1.205-7.383-.011-3.239-.428-5.789-1.201-7.362zm-12.299 11.366h-2c-1.5 0-1.5-.29-1.5-1.25s0-1.25 1.5-1.25h2c1.5 0 1.5.29 1.5 1.25s0 1.25-1.5 1.25z"/></svg>