<?xml version="1.0" encoding="UTF-8"?>
<svg xmlns="http://www.w3.org/2000/svg" id="Layer_1" data-name="Layer 1" viewBox="0 0 24 24">
  <path d="M21.387,12.756c-.404,1.362-1.047,2.504-1.928,3.412-1.464,1.402-3.137,2.115-4.891,2.115-1.858,0-3.631-.793-5.126-2.292-2.929-2.94-3.039-7.033-.27-9.952,.2-.196,.411-.38,.633-.553C5.77,6.051,1.684,8.732,1.05,13.888c-.215,1.749,.267,3.347,1.393,4.619,1.743,1.97,5.017,3.1,8.981,3.1,3.376,0,7.805-.542,9.728-3.125,.964-1.295,1.169-2.896,.611-4.759-.091-.303-.218-.628-.376-.966Z"/>
  <path d="M22.466,4.106c-.205-.205-.454-.349-.722-.433-.085-.272-.234-.528-.449-.743-.689-.692-1.896-.692-2.586,0-.671,.673-.708,1.744-.112,2.463l-.995,.999-.569-.571c-.189-.191-.457-.303-.716-.294-2.478,.019-4.437,.664-5.692,1.891-2.045,2.155-1.952,4.966,.235,7.163,1.129,1.133,2.422,1.704,3.709,1.704,1.204,0,2.401-.5,3.454-1.507,1.205-1.244,1.834-3.149,1.869-5.66,.004-.269-.102-.529-.292-.719l-.588-.59,.995-.999c.327,.272,.734,.42,1.164,.42,.489,0,.948-.191,1.294-.538,.71-.713,.71-1.873,0-2.585Z"/>
</svg>
