<svg id="Layer_1" viewBox="0 0 24 24" xmlns="http://www.w3.org/2000/svg" data-name="Layer 1"><path d="m10 14.77v5.196c-.206.016-.413.034-.625.034-1.028 0-1.886-.15-2.612-.424-1.105.958-2.11 1.292-2.522 1.395-.337.084-.7-.015-.948-.264-.248-.248-.348-.607-.264-.948.103-.412.436-1.417 1.394-2.522-.274-.726-.424-1.584-.424-2.612 0-.213.018-.419.034-.625h5.196l.77.77zm9.862-5.75c.001.009.002.02.003.029-.135-.856-.374-1.591-.709-2.223.857.372 1.664.105 2.6-.831 1.34-1.34 1.649-3.449.673-4.425s-3.085-.666-4.425.673c-.936.936-1.203 1.743-.831 2.6-.632-.335-1.367-.574-2.223-.709.009.001.02.002.029.003-.239-2.108-1.569-3.138-4.075-3.138h-1.011c-1.011 0-2.893 0-2.893 1.466 0 .958.905 1.846 1.936 2.415.011-.006.025-.01.036-.016-.593.324-1.098.739-1.516 1.259-.821 1.021-1.789 2.545-2.439 4.041-1.711-.484-2.529.535-3.34 1.565l-.491.688c-.218.305-.247.706-.075 1.039s.515.542.889.542h2.034c.057-.721.204-1.384.366-2h4.133l.584-2.177c.092-.346.362-.614.707-.707l2.177-.583v-4.483c.349-.029.709-.048 1.094-.048l.906.033v5.197l.77.77h5.197c.02.291.033.591.033.906 0 .385-.02.745-.048 1.094h-4.435l-.594 2.216c-.092.345-.362.614-.707.707l-2.217.595v4.083c-.617.161-1.281.309-2 .366v2.034c-.011.539.464 1.01 1 1 .423.044.979-.498 1.309-.706.995-.786 2.008-1.602 1.526-3.311 1.495-.65 3.019-1.617 4.042-2.439.52-.418.934-.923 1.258-1.516-.006.011-.01.025-.016.036.57 1.031 1.458 1.936 2.415 1.936 1.466 0 1.466-1.882 1.466-2.893v-1.011c0-2.506-1.031-3.836-3.138-4.075zm-6.311 2.589-1.121-1.121-1.532.41-.411 1.531 1.122 1.122 1.532-.411z"/></svg>