<svg id="Layer_1" viewBox="0 0 24 24" xmlns="http://www.w3.org/2000/svg" data-name="Layer 1"><path d="m12.671 11.247s.329 1.253.329 2.753c0 2-.329 2.754-.329 2.754-.773.135-1.765.246-3.171.246s-2.394-.111-3.171-.247c0 0-.329-.753-.329-2.753s.329-2.754.329-2.754c.774-.135 1.765-.246 3.171-.246s2.394.111 3.171.247zm10.329 2.753c0 4.397-1.02 7.169-1.063 7.285-.104.275-.324.492-.602.591-.129.046-3.233 1.124-9.335 1.124s-9.206-1.078-9.335-1.124c-.278-.099-.498-.315-.602-.591-.043-.116-1.063-2.888-1.063-7.285s1.02-7.169 1.063-7.285c.104-.275.324-.492.602-.591.103-.037 2.108-.73 6.013-1.008-.478-.526-.948-1.095-1.409-1.759-.473-.68-.305-1.615.375-2.088.679-.474 1.615-.305 2.088.375.744 1.069 1.48 1.888 2.269 2.52.789-.632 1.525-1.451 2.269-2.52.473-.68 1.406-.85 2.088-.375.68.473.848 1.408.375 2.088-.462.664-.931 1.233-1.409 1.759 3.905.279 5.91.972 6.013 1.008.278.099.498.315.602.591.043.116 1.063 2.888 1.063 7.285zm-8 0c-.002-1.477-.284-2.507-.458-3.726-.054-.421-.367-.763-.782-.852-.97-.209-2.235-.423-4.26-.423s-3.296.214-4.262.423c-.414.09-.727.431-.78.852-.175 1.217-.456 2.248-.458 3.726.002 1.477.284 2.507.458 3.726.054.421.367.763.782.852.97.209 2.235.423 4.26.423s3.296-.214 4.262-.423c.414-.09.727-.432.78-.852.033-.265.086-.556.143-.87.141-.784.315-1.761.315-2.855zm5 4.5c0-.828-.672-1.5-1.5-1.5s-1.5.672-1.5 1.5.672 1.5 1.5 1.5 1.5-.672 1.5-1.5zm0-4.5c0-.828-.672-1.5-1.5-1.5s-1.5.672-1.5 1.5.672 1.5 1.5 1.5 1.5-.672 1.5-1.5zm0-4.5c0-.828-.672-1.5-1.5-1.5s-1.5.672-1.5 1.5.672 1.5 1.5 1.5 1.5-.672 1.5-1.5z"/></svg>