<svg id="Layer_1" viewBox="0 0 24 24" xmlns="http://www.w3.org/2000/svg" data-name="Layer 1"><path d="m12 7c-3.403 0-5.107-1.059-5.844-1.728.504-2.893 2.384-4.272 5.844-4.272s5.34 1.379 5.844 4.273c-.736.669-2.439 1.727-5.844 1.727zm11 2.374c0-2.208-1.586-3.216-2.899-3.703-1.202 1.753-3.685 3.329-8.101 3.329s-6.898-1.576-8.101-3.329c-1.313.487-2.899 1.495-2.899 3.703 0 3.839 4.397 4.626 11 4.626s11-.787 11-4.626zm-2.176 6.42c-.39-.73-1.298-1.009-2.03-.617-.731.39-1.007 1.298-.618 2.029 1.23 2.307 1.868 4.658 1.875 4.682.212.806 1.058 1.277 1.836 1.061.8-.214 1.275-1.034 1.062-1.835-.029-.108-.727-2.697-2.125-5.319zm-15.618-.617c-.733-.392-1.64-.113-2.03.617-1.398 2.622-2.097 5.211-2.125 5.319-.213.801.262 1.621 1.062 1.835.778.216 1.625-.255 1.836-1.061.006-.023.644-2.375 1.875-4.682.39-.731.113-1.64-.618-2.029z"/></svg>