<svg id="Layer_1" viewBox="0 0 24 24" xmlns="http://www.w3.org/2000/svg" data-name="Layer 1"><path d="m21.9 19.8c-.178-.134-1.131-.8-2.4-.8-.743 0-1.474.257-2.055.723l-.265.212c-.134.107-.226.108-.361 0l-.263-.21c-1.165-.934-2.948-.933-4.111 0l-.265.212c-.134.107-.226.108-.361 0l-.263-.21c-.217-.174-.455-.315-.706-.424l2.25-6.773c2.968.758 6.512 1.146 6.686 1.165.036.004.072.006.108.006.426 0 .812-.272.949-.685 1.822-5.484-.208-9.512-5.716-11.342-1.341-.445-2.526-.671-3.522-.671-3.808 0-6.447 2.132-7.844 6.338-.149.447.035.937.439 1.176.151.089 3.223 1.899 6.054 3.068l-2.671 8.037c-.047.033-.093.068-.138.104l-.265.212c-.134.107-.226.108-.361 0l-.263-.21c-.583-.467-1.313-.724-2.056-.724-1.112 0-2.123.617-2.314.74-.696.449-.896 1.378-.446 2.074.449.695 1.377.895 2.074.446.138-.089.513-.26.686-.26.045 0 .113.011.181.066l.263.21c1.165.934 2.948.933 4.111 0l.265-.212c.134-.107.226-.108.361 0l.263.21c1.165.934 2.948.933 4.111 0l.265-.212c.134-.107.226-.108.361 0l.263.21c.583.467 1.313.724 2.056.724s1.474-.257 2.055-.723l.265-.212c.067-.054.135-.065.18-.065.254 0 .54.159.6.2.664.497 1.604.363 2.1-.3.497-.663.362-1.603-.3-2.1z"/></svg>