<?xml version="1.0" encoding="UTF-8"?>
<svg xmlns="http://www.w3.org/2000/svg" id="Layer_1" data-name="Layer 1" viewBox="0 0 24 24">
  <path d="M19.382,20H4.618c-.829,0-1.5,.672-1.5,1.5s.671,1.5,1.5,1.5h14.764c.828,0,1.5-.672,1.5-1.5s-.672-1.5-1.5-1.5Z"/>
  <path d="M12,18.431c6.286,0,7.516-4.525,7.516-12.342,0-1.371-.06-2.632-.179-3.747-.087-.824-.83-1.427-1.649-1.333-.824,.087-1.421,.825-1.333,1.649,.106,1.011,.161,2.165,.161,3.431,0,9.342-2.093,9.342-4.516,9.342s-4.515,0-4.515-9.342c0-1.269,.055-2.422,.163-3.429,.089-.824-.507-1.563-1.331-1.651-.83-.093-1.563,.507-1.651,1.331-.12,1.112-.18,2.374-.18,3.749,0,7.816,1.229,12.342,7.515,12.342Z"/>
</svg>
