<svg id="Layer_1" viewBox="0 0 24 24" xmlns="http://www.w3.org/2000/svg" data-name="Layer 1"><path d="m16.05 22c-.227 0-.451-.077-.633-.226-.158-.129-3.913-3.199-6.2-5.487-.439-.44-.9-.926-1.375-1.451-2.226 1.796-3.595 2.49-3.658 2.521-.561.301-1.312-.064-1.426-.689-.935-4.467-.934-8.89.002-13.147.084-.381.381-.679.762-.762 4.26-.937 8.682-.936 13.148-.002.626.114.988.866.689 1.427-.032.063-.727 1.433-2.522 3.658.529.479 1.016.939 1.451 1.375 2.288 2.288 5.357 6.043 5.486 6.202.226.276.287.65.162.983-.051.137-.552 1.387-2.351 3.185s-3.049 2.299-3.186 2.351c-.113.042-.232.063-.351.063z"/></svg>