<svg id="Layer_1" viewBox="0 0 24 24" xmlns="http://www.w3.org/2000/svg" data-name="Layer 1"><path d="m22.898 14.611c-.248 3.342-.857 6.143-.883 6.261-.125.571-.572 1.018-1.144 1.144-.183.04-4.537.985-8.872.985s-8.688-.945-8.872-.985c-.571-.125-1.018-.572-1.144-1.144-.04-.183-.985-4.537-.985-8.872s.947-8.688.987-8.872c.125-.571.572-1.018 1.144-1.144.118-.025 2.918-.635 6.261-.883.831-.056 1.546.559 1.607 1.385s-.559 1.545-1.385 1.607c-2.005.148-3.825.441-4.882.634-.268 1.471-.729 4.418-.729 7.272s.461 5.8.729 7.271c1.471.268 4.418.729 7.271.729s5.8-.461 7.271-.729c.193-1.06.486-2.883.634-4.882.061-.826.787-1.443 1.607-1.385.826.062 1.446.781 1.385 1.607zm-8.091-10.287c1.029-.215 2.049-.31 3.057-.309l-8.425 8.424c-.586.585-.586 1.536 0 2.121.293.293.677.439 1.061.439s.768-.146 1.061-.439l8.424-8.424c0 1.008-.094 2.029-.309 3.057-.169.811.35 1.605 1.161 1.775.791.172 1.609-.345 1.775-1.161.516-2.468.515-4.915-.003-7.273-.125-.571-.572-1.018-1.143-1.143-2.358-.518-4.805-.519-7.273-.003-.811.17-1.331.964-1.161 1.775s.965 1.333 1.775 1.161z"/></svg>