<svg id="Layer_1" viewBox="0 0 24 24" xmlns="http://www.w3.org/2000/svg" data-name="Layer 1"><path d="m12 23c-2.544 0-3.781-.529-3.914-.59-.311-.141-.528-.432-.576-.77-.021-.146-.51-3.635-.51-6.89 0-.621.019-1.29.054-1.998-2.843-.303-4.303-.781-4.369-.803-.61-.185-.884-.973-.521-1.496 2.496-3.819 5.625-6.946 9.297-9.295.328-.21.75-.21 1.078 0 3.671 2.348 6.8 5.476 9.298 9.295.362.523.088 1.312-.521 1.496-.066.022-1.526.5-4.369.803.035.708.054 1.377.054 1.998 0 3.255-.489 6.744-.51 6.89-.048.338-.266.629-.576.77-.133.061-1.37.59-3.914.59z"/></svg>