<svg id="Layer_1" viewBox="0 0 24 24" xmlns="http://www.w3.org/2000/svg" data-name="Layer 1"><path d="m4.001 6.5c0-3.752 1.747-5.5 5.5-5.5s5.5 1.748 5.5 5.5-1.747 5.5-5.5 5.5-5.5-1.748-5.5-5.5zm18.163 5.158c-.135-.067-1.355-.658-2.671-.658-3.1 0-4.816 1.778-5.342 2.829-.104.208-.158.438-.158.671v3.527c-1.415.133-2 .867-2 2.472 0 1.786.714 2.5 2.5 2.5s2.5-.714 2.5-2.5v-5.538c.307-.355 1.045-.962 2.5-.962.162 0 .334.024.5.061v2.966c-1.415.133-2 .867-2 2.472 0 1.786.714 2.5 2.5 2.5s2.5-.714 2.5-2.5v-6.5c0-.568-.321-1.087-.829-1.342zm-10.171 4.906v-2.065c0-.1.026-.198.035-.297-.766-.131-1.602-.203-2.528-.203-5.727 0-8.347 2.459-8.493 7.974-.007.27.095.53.283.724.188.193.447.303.716.303h8.551c-.364-.677-.565-1.506-.565-2.501 0-1.907.703-3.238 2-3.935z"/></svg>