<svg id="Layer_1" viewBox="0 0 24 24" xmlns="http://www.w3.org/2000/svg" data-name="Layer 1"><path d="m12 9.964c2.491 0 4.939-.311 5.984-.462-.166 3.764-2.017 5.476-5.984 5.476s-5.818-1.712-5.984-5.476c1.045.151 3.493.462 5.984.462zm-5.762-2.486c.118.02 2.913.48 5.762.48s5.645-.461 5.762-.48c.819-.137 1.372-.911 1.236-1.73-.11-.663-.641-1.145-1.272-1.235-.594-2.171-2.124-3.289-4.724-3.513v2.948c0 .554-.449 1.003-1.003 1.003s-1.003-.449-1.003-1.003v-2.948c-2.6.223-4.129 1.342-4.724 3.512-.632.09-1.162.573-1.272 1.236-.136.819.417 1.594 1.236 1.73zm5.762 8.503c-5.097 0-7.869 1.844-8.724 5.805-.064.296.01.606.2.841.19.236.477.373.78.373h15.487c.303 0 .59-.137.78-.373s.263-.545.2-.841c-.855-3.961-3.627-5.805-8.724-5.805z"/></svg>