<svg id="Layer_1" viewBox="0 0 24 24" xmlns="http://www.w3.org/2000/svg" data-name="Layer 1"><path d="m21 4.5v5.5c0 .553-.448 1-1 1s-1-.447-1-1v-3.907c-2.112.952-4.412 1.601-6.879 1.901-.08.009-.161.009-.241 0-3.054-.371-5.866-1.251-8.359-2.616-.321-.175-.52-.512-.52-.877s.199-.702.52-.877c2.493-1.365 5.306-2.245 8.359-2.616.08-.01.161-.01.241 0 3.054.371 5.866 1.251 8.359 2.616.321.175.52.512.52.877zm-4.882 10.604c-.451-.171-.957.012-1.205.424-1.096 1.831-2.285 2.842-2.913 3.29-.63-.45-1.819-1.461-2.914-3.29-.248-.412-.753-.591-1.205-.424-2.363.873-3.737 3.13-3.871 6.355-.02.474.296.896.755 1.011.086.021 2.168.53 7.233.53s7.147-.509 7.233-.53c.459-.115.775-.537.755-1.011-.133-3.226-1.508-5.482-3.871-6.355zm-4.118-1.104c3.411 0 5-1.589 5-5 0-.002 0-.004 0-.006-1.48.456-3.028.789-4.638.984-.24.029-.484.029-.725 0-1.61-.196-3.157-.528-4.637-.985v.006c0 3.411 1.589 5 5 5z"/></svg>