<svg id="Layer_1" viewBox="0 0 24 24" xmlns="http://www.w3.org/2000/svg" data-name="Layer 1"><path d="m17 5c1.429 0 2 .571 2 2s-.571 2-2 2h-10c-1.429 0-2-.571-2-2s.571-2 2-2zm-.018-2c-.945-1.348-2.562-2-4.982-2s-4.037.652-4.982 2h9.965zm-9.964 8c.945 1.348 2.562 2 4.982 2s4.037-.652 4.982-2zm13.956 10.947c.014.273-.085.542-.273.741s-.451.312-.726.312h-15.95c-.274 0-.537-.112-.726-.312s-.287-.468-.273-.741c.291-5.496 3.059-7.947 8.974-7.947s8.683 2.451 8.974 7.947zm-2.981-1.385c-.105-.503-.253-.97-.472-1.49-.272-.666-.66-1.321-1.132-1.887-.216-.26-.61-.258-.825.002-.479.579-.873 1.268-1.146 2.075-.168.529-.315 1.133-.414 1.818-.048.332.338.548.595.332.532-.446 1.251-.97 1.726-.97.361 0 .785.205 1.15.462.248.175.58-.046.518-.343z"/></svg>