<svg id="Layer_1" viewBox="0 0 24 24" xmlns="http://www.w3.org/2000/svg" data-name="Layer 1"><path d="m19 23h-14c-.552 0-1-.447-1-1 0-3.522 1.378-5.972 3.882-6.896.453-.17.957.012 1.205.424 1.095 1.829 2.284 2.84 2.914 3.29.628-.448 1.817-1.459 2.913-3.29.247-.412.751-.594 1.205-.424 2.503.925 3.882 3.374 3.882 6.896 0 .553-.448 1-1 1zm-12.741-16.45c.795.196 2.454.45 5.741.45s4.946-.254 5.741-.45c.547-.428.939-.816.966-.843.188-.188.293-.441.293-.707v-1c0-.266-.105-.52-.293-.707-.094-.094-2.343-2.293-6.707-2.293s-6.613 2.199-6.707 2.293c-.188.188-.293.441-.293.707v1c0 .266.105.52.293.707.027.027.419.414.966.843zm4.546-3.795s.441-.258 1.195-.255c.754-.003 1.195.255 1.195.255.145.706.245 1.897.032 2.122-.274.291-.938.536-1.227.623-.289-.087-.953-.331-1.227-.623-.213-.226-.113-1.416.032-2.122zm1.195 6.245c-2.251 0-3.852-.115-5-.281v.281c0 3.411 1.589 5 5 5s5-1.589 5-5v-.281c-1.148.165-2.749.281-5 .281z"/></svg>