<svg id="Layer_1" viewBox="0 0 24 24" xmlns="http://www.w3.org/2000/svg" data-name="Layer 1"><path d="m6.509 15.143c1.33 2.157 3.196 5.043 5.274 7.857h-7.758c-.274 0-.537-.112-.726-.312s-.288-.468-.273-.741c.178-3.367 1.291-5.586 3.482-6.804zm5.491-1.143c-1.366 0-2.557.137-3.595.406.932 1.502 2.1 3.317 3.409 5.204 1.511-1.954 2.817-3.76 3.765-5.208-1.035-.266-2.22-.402-3.579-.402zm8.949-5.108c.199.542-.211 1.117-.788 1.108-.761-.018-1.799-.144-2.42-.75-.62 2.559-2.445 3.75-5.74 3.75-4.149 0-6-1.851-6-6s1.85-6 5.999-6c3.296 0 5.12 1.191 5.74 3.75.622-.607 1.66-.733 2.42-.75.578-.009.987.565.788 1.108-.24.647-.646 1.457-1.308 1.892.663.435 1.069 1.245 1.308 1.892zm-5.949-2.392c0-.829-.672-1.5-1.5-1.5h-3c-.828 0-1.5.671-1.5 1.5s.672 1.5 1.5 1.5h3c.828 0 1.5-.671 1.5-1.5zm2.483 8.638c-1.068 1.67-2.607 3.803-4.459 6.174.414.569.835 1.131 1.263 1.688h5.687c.274 0 .537-.112.726-.312s.288-.468.273-.741c-.178-3.371-1.294-5.592-3.49-6.809z"/></svg>