<svg id="Layer_1" viewBox="0 0 24 24" xmlns="http://www.w3.org/2000/svg" data-name="Layer 1"><path d="m19.969 21.938c.017.275-.08.546-.27.746-.188.201-.452.315-.729.315h-4.971c-.5-3-.881-4.614-1.315-5.828.503-.358 1.106-1.144 1.513-2.013 3.712.566 5.52 2.716 5.771 6.779zm-14.864-16.991c-.174-.349-.13-.768.114-1.072 2.274-2.843 6.598-2.875 6.781-2.875s4.507.032 6.781 2.875c.244.305.288.724.114 1.072-.058.114-.395.572-1.895 1.572-1.084.218-2.835.481-5 .481s-3.916-.263-5-.481c-1.5-1-1.837-1.458-1.895-1.572zm5.271-.165c.626.499 1.315.673 1.392.69.151.037.311.037.462 0 .077-.018.766-.191 1.392-.69.432-.344.503-.973.159-1.405-.344-.433-.974-.503-1.405-.159-.126.101-.264.174-.377.224-.113-.05-.25-.123-.377-.224-.431-.344-1.061-.273-1.405.159-.344.433-.273 1.062.159 1.405zm6.623 4.218v-.442c-1.192.219-2.913.442-5 .442s-3.808-.223-5-.442v.442c0 3.411 1.589 5 5 5s5-1.589 5-5zm-7.198 6.159c-3.712.566-5.52 2.716-5.771 6.779-.017.275.08.546.27.746.188.201.452.315.729.315h4.971c.5-3 .881-4.614 1.315-5.828-.502-.356-1.108-1.145-1.513-2.013z"/></svg>