<svg id="Layer_1" viewBox="0 0 24 24" xmlns="http://www.w3.org/2000/svg" data-name="Layer 1"><path d="m19.989 21.854c.043.288-.044.579-.235.799-.193.221-.472.347-.767.347h-13.974c-.294 0-.574-.126-.767-.346-.192-.221-.278-.512-.235-.799.593-3.995 3.131-5.855 7.989-5.855s7.396 1.86 7.989 5.854zm2.895-17.93c-.317-.764-1.192-1.128-1.961-.809-.029.012-1.981.812-4.539 1.365-.627-1.767-1.622-3.481-2.44-3.481-.524 0-1.152.094-1.944.677-.792-.583-1.419-.677-1.944-.677-.819 0-1.813 1.712-2.44 3.479-2.555-.554-4.511-1.352-4.541-1.364-.766-.318-1.643.046-1.96.811s.044 1.642.809 1.959c.208.086 5.142 2.115 10.076 2.115s9.868-2.029 10.076-2.115c.765-.318 1.127-1.196.809-1.961zm-5.916 5.576c-1.547.29-3.257.5-4.969.5s-3.421-.21-4.969-.5c.158 3.052 1.736 4.5 4.969 4.5s4.81-1.447 4.969-4.5z"/></svg>