<svg id="Layer_1" viewBox="0 0 24 24" xmlns="http://www.w3.org/2000/svg" data-name="Layer 1"><path d="m6 7c-1.991 0-3-1.009-3-3s1.009-3 3-3 3 1.009 3 3-1.009 3-3 3zm8 0c-1.991 0-3-1.009-3-3s1.009-3 3-3 3 1.009 3 3-1.009 3-3 3zm8.64 10.984-.669-.393c.018-.188.029-.384.029-.592s-.011-.403-.029-.592l.669-.393c.714-.419.954-1.339.534-2.053-.419-.714-1.339-.954-2.053-.534l-.469.275c-.323-.233-.71-.404-1.153-.52v-.684c0-.828-.672-1.5-1.5-1.5s-1.5.672-1.5 1.5v.684c-.443.116-.83.286-1.153.52l-.469-.275c-.714-.419-1.634-.18-2.053.534s-.18 1.634.534 2.053l.669.393c-.018.188-.029.384-.029.592s.011.403.029.592l-.669.393c-.714.419-.954 1.339-.534 2.053.419.714 1.339.954 2.053.534l.469-.275c.323.233.71.404 1.153.52v.684c0 .828.672 1.5 1.5 1.5s1.5-.672 1.5-1.5v-.684c.443-.116.83-.286 1.153-.52l.469.275c.714.419 1.634.18 2.053-.534s.18-1.634-.534-2.053zm-4.64.516c-1.192 0-1.5-.308-1.5-1.5s.308-1.5 1.5-1.5 1.5.308 1.5 1.5-.308 1.5-1.5 1.5zm-13-7.5c0-1.184.287-2.191.809-2.988-3.272.062-4.809 1.645-4.809 4.988 0 .552.448 1 1 1h3.819c-.528-.799-.819-1.81-.819-3zm5 3c.253 0 .489-.017.71-.049.305-1.81.983-2.947 2.245-3.616-.211-1.549-1.201-2.334-2.955-2.334-1.991 0-3 1.009-3 3s1.009 3 3 3zm.5 3c0-.718.024-1.369.074-1.964-.192-.012-.369-.036-.574-.036-3.411 0-5 1.589-5 5 0 .552.448 1 1 1h4.927c-.301-1.036-.427-2.342-.427-4z"/></svg>