<svg id="Layer_1" viewBox="0 0 24 24" xmlns="http://www.w3.org/2000/svg" data-name="Layer 1"><path d="m22.561 22.561c-.586.586-1.535.586-2.121 0l-19.001-19c-.586-.585-.586-1.536 0-2.121.586-.586 1.535-.586 2.121 0l1.439 1.439v-.379c0-.829.671-1.5 1.5-1.5s1.5.671 1.5 1.5v3.379l.992.992c-.038-2.165-.25-4.189-.252-4.211-.088-.823.507-1.563 1.331-1.651.812-.093 1.563.507 1.651 1.331.012.105.278 2.609.278 5.161 0 .809-.093 1.503-.26 2.119l3.263 3.263c.017-6.262.145-9.414 1.102-11.329.126-.252.353-.439.624-.515.272-.076.562-.034.801.114.183.114 4.47 2.857 4.47 8.348 0 3.347-1.632 5.926-2.93 7.449l3.491 3.491c.586.585.586 1.536 0 2.121zm-16.992-12.12c-.948-.14-1.569-.385-1.569-2.44 0-.829-.671-1.5-1.5-1.5s-1.5.671-1.5 1.5c0 3.134 1.346 4.946 4 5.388v8.112c0 .829.671 1.5 1.5 1.5s1.5-.671 1.5-1.5v-8.193c0-1.431-1.045-2.664-2.431-2.868zm10.931 12.56c.828 0 1.5-.672 1.5-1.5s-.672-1.5-1.5-1.5-1.5.672-1.5 1.5.672 1.5 1.5 1.5z"/></svg>