<svg id="Layer_1" viewBox="0 0 24 24" xmlns="http://www.w3.org/2000/svg" data-name="Layer 1"><path d="m21.5 1.5c-.828 0-1.5.672-1.5 1.5v.645c-.297-.053-.638-.106-1-.16v-.985c0-.828-.672-1.5-1.5-1.5s-1.5.672-1.5 1.5v.653c-.767-.059-1.599-.105-2.5-.13v-.522c0-.828-.672-1.5-1.5-1.5s-1.5.672-1.5 1.5v.522c-.901.025-1.733.071-2.5.13v-.653c0-.828-.672-1.5-1.5-1.5s-1.5.672-1.5 1.5v.985c-.362.054-.703.107-1 .16v-.645c0-.828-.672-1.5-1.5-1.5s-1.5.672-1.5 1.5v2.5c-.025.966.989 1.725 1.909 1.443.015-.004.718-.197 2-.407 1.614 2.127 3.496 4.027 5.59 5.68v9.283c0 .828.672 1.5 1.5 1.5s1.5-.672 1.5-1.5v-9.283c2.094-1.653 3.976-3.553 5.59-5.68 1.281.21 1.983.402 1.997.406.919.291 1.939-.476 1.912-1.442v-2.5c0-.828-.672-1.5-1.5-1.5zm-13.06 4.629c.638-.047 1.326-.082 2.06-.104v2.25c-.723-.679-1.411-1.395-2.06-2.146zm5.06 2.146v-2.25c.734.022 1.423.058 2.06.104-.649.751-1.337 1.467-2.06 2.146z"/></svg>