<svg id="Layer_1" viewBox="0 0 24 24" xmlns="http://www.w3.org/2000/svg" data-name="Layer 1"><path d="m20.99 2.458c-.022-.829-.718-1.477-1.541-1.457-.828.023-1.48.713-1.457 1.541 0 .057.146 5.771-.888 9.001-1.432 4.474-3.862 7.009-5.104 8.074-1.246-1.067-3.674-3.603-5.105-8.075-1.034-3.23-.889-8.943-.887-9 .023-.828-.63-1.518-1.458-1.541-.836-.038-1.518.628-1.542 1.457-.007.254-.162 6.28 1.029 9.999 2.336 7.301 6.984 10.203 7.181 10.323.24.146.511.22.781.22s.542-.073.781-.22c.197-.12 4.844-3.022 7.181-10.323 1.19-3.719 1.036-9.745 1.028-9.999z"/></svg>