<svg id="Layer_1" viewBox="0 0 24 24" xmlns="http://www.w3.org/2000/svg" data-name="Layer 1"><path d="m12 6c-1.189 0-2.143.206-2.899.602.113-2.473.295-4.382.416-5.464.773-.089 1.595-.138 2.483-.138s1.712.049 2.484.138c.12 1.082.302 2.991.415 5.464-.756-.396-1.71-.602-2.899-.602zm9.499-.936c.425-.437.887-1.034 1.326-1.861.388-.731.109-1.64-.622-2.028-.732-.389-1.64-.109-2.028.622-.255.481-.502.817-.706 1.052-.823-.583-1.796-1.023-2.93-1.325.194 1.889.461 5.255.461 9.476 0 3.411-1.589 5-5 5s-5-1.589-5-5c0-4.221.268-7.587.462-9.477-1.134.302-2.107.742-2.929 1.325-.208-.237-.454-.574-.708-1.051-.389-.731-1.294-1.011-2.028-.622-.731.389-1.01 1.297-.622 2.028.439.827.9 1.423 1.326 1.861-1.018 1.714-1.501 4.002-1.501 6.936 0 7.71 3.29 11 11 11s11-3.29 11-11c0-2.934-.482-5.222-1.501-6.936zm-9.499 8.936c2.299 0 3-.701 3-3s-.701-3-3-3-3 .701-3 3 .701 3 3 3z"/></svg>