<svg id="Layer_1" viewBox="0 0 24 24" xmlns="http://www.w3.org/2000/svg" data-name="Layer 1"><path d="m23 12c0 5.166-.638 9.536-.666 9.72-.118.823-.902 1.389-1.703 1.264-.82-.121-1.386-.884-1.265-1.703.006-.043.633-4.345.633-9.28s-.627-9.237-.633-9.28c-.121-.819.445-1.582 1.264-1.703.817-.129 1.583.444 1.704 1.264.027.184.666 4.554.666 9.72zm-19.631-10.983c-.813-.129-1.582.444-1.703 1.264-.027.184-.666 4.554-.666 9.72s.638 9.536.666 9.72c.118.823.902 1.389 1.704 1.264.819-.121 1.385-.884 1.264-1.703-.006-.043-.633-4.333-.633-9.28s.627-9.237.633-9.28c.121-.819-.445-1.582-1.265-1.703zm12.192 7.423c-.586-.586-1.535-.586-2.121 0l-1.439 1.439-1.439-1.439c-.586-.586-1.535-.586-2.121 0s-.586 1.535 0 2.121l1.439 1.439-1.439 1.439c-.586.586-.586 1.535 0 2.121s1.535.586 2.121 0l1.439-1.439 1.439 1.439c.586.586 1.535.586 2.121 0s.586-1.535 0-2.121l-1.439-1.439 1.439-1.439c.586-.586.586-1.535 0-2.121z"/></svg>