<?xml version="1.0" encoding="UTF-8"?>
<svg xmlns="http://www.w3.org/2000/svg" id="Layer_1" data-name="Layer 1" viewBox="0 0 24 24">
  <path d="M9.416,1.842c-.806,.078-1.623,.185-2.438,.319-.46-.67-1.27-1.151-2.646-1.161h-.042c-.963,0-1.692,.226-2.228,.69-.643,.559-.959,1.396-.967,2.56-.007,1.167,.299,2.009,.935,2.573,.05,.044,.101,.086,.152,.125-.132,.814-.236,1.646-.311,2.482-.074,.825,.535,1.554,1.36,1.628,.045,.004,.091,.006,.136,.006,.768,0,1.422-.587,1.492-1.366,.067-.747,.16-1.491,.277-2.219,.579-.095,1.049-.303,1.424-.628,.479-.415,.776-.985,.9-1.729,.75-.124,1.503-.222,2.243-.294,.824-.079,1.429-.812,1.35-1.637s-.807-1.437-1.637-1.35Z"/>
  <path d="M9.703,19.172c-.739-.071-1.49-.17-2.239-.293-.119-.728-.406-1.289-.87-1.702-.446-.397-.973-.576-1.459-.656-.116-.727-.209-1.471-.276-2.218-.073-.825-.804-1.438-1.628-1.36-.825,.074-1.434,.803-1.36,1.628,.075,.836,.18,1.668,.312,2.483-.041,.031-.081,.063-.119,.097-.644,.559-.96,1.396-.968,2.56h0c-.009,1.492,.538,3.273,3.195,3.291h.042c.963,0,1.692-.226,2.228-.69,.16-.139,.3-.295,.42-.47,.814,.134,1.631,.241,2.435,.318,.049,.005,.098,.007,.146,.007,.764,0,1.417-.581,1.491-1.356,.079-.824-.525-1.558-1.35-1.637Z"/>
  <path d="M19.709,1h-.042c-.963,0-1.692,.226-2.228,.69-.16,.139-.3,.295-.42,.47-.814-.134-1.631-.241-2.436-.318-.826-.086-1.558,.525-1.637,1.35s.525,1.558,1.35,1.637c.739,.071,1.49,.17,2.239,.293,.119,.728,.406,1.289,.87,1.702,.446,.397,.973,.576,1.459,.656,.116,.727,.209,1.471,.276,2.218,.069,.779,.725,1.366,1.492,1.366,.045,0,.09-.002,.136-.006,.825-.074,1.434-.803,1.36-1.628-.075-.836-.18-1.668-.312-2.483,.041-.031,.081-.063,.119-.097,.644-.559,.96-1.396,.968-2.56h0c.009-1.492-.538-3.273-3.195-3.291Z"/>
  <path d="M21.97,17.177c-.05-.044-.101-.086-.152-.125,.132-.814,.236-1.646,.311-2.482,.074-.825-.535-1.554-1.36-1.628-.816-.077-1.554,.535-1.628,1.36-.067,.747-.16,1.491-.277,2.219-.579,.095-1.049,.303-1.424,.628-.479,.415-.776,.985-.9,1.729-.75,.124-1.503,.222-2.243,.294-.824,.079-1.429,.812-1.35,1.637,.074,.775,.728,1.356,1.491,1.356,.048,0,.097-.002,.146-.007,.806-.078,1.623-.185,2.438-.319,.46,.67,1.27,1.151,2.646,1.161h.042c.963,0,1.692-.226,2.228-.69,.643-.559,.959-1.396,.967-2.56,.007-1.167-.299-2.009-.935-2.573Z"/>
</svg>
