<svg id="Layer_1" viewBox="0 0 24 24" xmlns="http://www.w3.org/2000/svg" data-name="Layer 1"><path d="m12 1c-1.342 0-2.587.105-3.68.242.929 3.192 2.695 5.663 3.68 6.867.985-1.204 2.751-3.674 3.68-6.865-1.095-.138-2.341-.244-3.68-.244z"/><path d="m20 8.597v-5.712c0-.456-.309-.854-.751-.969-.405-.104-.94-.23-1.58-.354-1.205 4.371-3.792 7.49-4.669 8.456v12.982c4.171-.144 7.152-1.149 7.286-1.194.321-.109.564-.373.648-.701.043-.172 1.065-4.261 1.065-9.096 0-1.155-1.229-2.611-2-3.412zm-.737 6.049c-.189.225-.47.354-.764.354h-2c-.294 0-.574-.13-.764-.354-.19-.225-.271-.522-.223-.812.312-1.84 1.304-2.576 1.415-2.654.344-.238.799-.238 1.143 0 .111.078 1.104.814 1.415 2.654.049.29-.032.588-.223.812z"/><path d="m4.75 1.913c-.442.114-.75.513-.75.969v5.715c-.771.801-2 2.256-2 3.412 0 4.824 1.022 8.923 1.065 9.095.083.33.329.595.651.703.136.045 3.143 1.048 7.283 1.193v-12.982c-.877-.966-3.465-4.087-4.669-8.459-.641.124-1.176.25-1.58.354zm1.75 18.087c-1.103 0-2-.897-2-2s.897-2 2-2 2 .897 2 2-.897 2-2 2zm2-8v2c0 .553-.447 1-1 1h-2c-.553 0-1-.447-1-1v-2c0-.553.447-1 1-1h2c.553 0 1 .447 1 1z"/></svg>