<svg id="Layer_1" viewBox="0 0 24 24" xmlns="http://www.w3.org/2000/svg" data-name="Layer 1"><path d="m23 7v10c.021.72-.813 1.236-1.447.895-.647-.324-1.291-.757-1.922-1.256.195-1.178.37-2.742.37-4.639 0-1.868-.171-3.417-.364-4.593.562-.431 1.16-.851 1.849-1.264.635-.407 1.538.104 1.515.857zm-5 5c0 3.846-.766 6.271-.798 6.372-.09.279-.298.506-.569.618-.099.041-2.487 1.01-7.133 1.01s-7.034-.969-7.133-1.01c-.271-.112-.479-.339-.569-.618-.032-.101-.798-2.526-.798-6.372s.765-6.271.798-6.373c.09-.279.298-.505.569-.618.1-.041 2.488-1.009 7.133-1.009s7.034.968 7.133 1.009c.271.112.479.338.569.618.032.102.798 2.527.798 6.373zm-5.293-3.707c-.391-.391-1.023-.391-1.414 0l-4.27 4.27c-.008-.809.024-1.618.139-2.42.078-.547-.302-1.054-.849-1.132-.543-.073-1.053.302-1.132.848-.243 1.696-.243 3.416 0 5.113.063.439.409.785.849.848 1.696.242 3.415.242 5.111 0 .547-.078.927-.584.849-1.131s-.587-.929-1.132-.849c-.804.114-1.613.145-2.421.138l4.27-4.269c.391-.391.391-1.023 0-1.414z"/></svg>