<svg id="Layer_1" viewBox="0 0 24 24" xmlns="http://www.w3.org/2000/svg"><path d="m23 10.5c0 .193-.004.382-.008.571-1.346-1.367-3.355-2.071-5.992-2.071-.901 0-1.723.088-2.476.25-.365-.294-.868-.66-1.549-1.063-1.561-.925-2.527-1.146-2.633-1.168-.433-.092-.874.16-1.013.585-.033.103-.329 1.06-.329 2.896.077 2.205.172 2.608.478 3.166-.315.968-.478 2.078-.478 3.335 0 1.084.126 2.056.36 2.926-4.026-.222-6.5-.882-6.624-.915-.331-.09-.592-.343-.693-.671-.042-.139-1.044-3.447-1.044-7.84s1.001-7.701 1.044-7.84c.101-.328.362-.581.693-.671.148-.041 3.693-.989 9.263-.989s9.115.949 9.263.989c.331.09.592.343.693.671.042.139 1.044 3.447 1.044 7.84zm0 6.5c0 4.149-1.851 6-6 6s-6-1.851-6-6 1.851-6 6-6 6 1.851 6 6zm-4.293.293-.707-.707v-1.586c0-.552-.447-1-1-1s-1 .448-1 1v2c0 .265.105.52.293.707l1 1c.391.391 1.023.391 1.414 0s.391-1.023 0-1.414z"/></svg>