<svg id="Layer_1" viewBox="0 0 24 24" xmlns="http://www.w3.org/2000/svg" data-name="Layer 1"><path d="m15.983 20.911c.014.275.017.488.017.589 0 .828-.671 1.498-1.498 1.499h-.002c-.827 0-1.498-.67-1.5-1.497 0-.407-.042-1.012-.127-1.527-.283.015-.572.025-.873.025s-.59-.011-.873-.025c-.084.515-.126 1.12-.127 1.527-.002.827-.673 1.497-1.5 1.497h-.002c-.827 0-1.498-.671-1.498-1.499 0-.246.013-1.129.175-2.062-.438-.154-.843-.338-1.209-.559.023.191.034.397.034.621 0 1.786-.714 2.5-2.5 2.5s-2.5-.714-2.5-2.5.714-2.5 2.5-2.5c.223 0 .43.011.621.034-.221-.366-.405-.771-.559-1.209-.933.162-1.816.175-2.062.175-.828 0-1.498-.671-1.499-1.498 0-.828.67-1.5 1.497-1.502.407 0 1.012-.042 1.527-.127-.015-.283-.025-.572-.025-.873s.011-.59.025-.873c-.515-.084-1.12-.126-1.527-.127-.827-.002-1.498-.674-1.497-1.502 0-.827.671-1.498 1.499-1.498.101 0 .313.003.589.017l12.895 12.895zm6.599 1.649c-.586.586-1.535.586-2.121 0l-19-18.999c-.586-.586-.586-1.535 0-2.121s1.535-.586 2.121 0l.579.579c.112-.007.217-.019.339-.019 1.786 0 2.5.714 2.5 2.5 0 .122-.012.227-.019.339l.192.192c.31-.174.646-.324 1.005-.453-.165-.939-.178-1.83-.178-2.077 0-.828.671-1.498 1.498-1.499h.002c.827 0 1.498.67 1.5 1.497 0 .407.042 1.013.127 1.528.283-.015.571-.026.873-.026s.59.011.873.025c.084-.515.126-1.12.127-1.527.002-.827.673-1.497 1.5-1.497h.002c.827 0 1.498.671 1.498 1.499 0 .246-.013 1.129-.175 2.062.438.154.843.338 1.209.559-.023-.191-.034-.397-.034-.621 0-1.786.714-2.5 2.5-2.5s2.5.714 2.5 2.5-.714 2.5-2.5 2.5c-.223 0-.43-.011-.621-.034.221.366.405.771.559 1.209.933-.162 1.816-.175 2.062-.175.828 0 1.498.671 1.499 1.498 0 .828-.67 1.5-1.497 1.502-.407 0-1.012.042-1.527.127.015.283.025.572.025.873s-.011.59-.026.873c.515.084 1.121.126 1.528.127.827.002 1.498.674 1.497 1.502 0 .827-.671 1.498-1.499 1.498-.247 0-1.138-.013-2.077-.178-.13.358-.279.695-.453 1.005l.192.192c.112-.007.217-.019.339-.019 1.786 0 2.5.714 2.5 2.5 0 .122-.012.227-.019.339l.601.601c.586.586.586 1.535 0 2.121zm-7.082-12.061c-1.023 0-1.455.397-1.493 1.365l1.628 1.628c.967-.038 1.365-.47 1.365-1.493 0-1.071-.429-1.5-1.5-1.5zm-4.993-2.135 1.628 1.628c.967-.038 1.365-.47 1.365-1.493 0-1.071-.429-1.5-1.5-1.5-1.023 0-1.455.397-1.493 1.365z"/></svg>