<svg id="Layer_1" viewBox="0 0 24 24" xmlns="http://www.w3.org/2000/svg" data-name="Layer 1"><path d="m21.502 13c-.407 0-1.012-.042-1.527-.127.015-.283.025-.572.025-.873s-.011-.59-.025-.873c.515-.084 1.12-.126 1.527-.127.827-.002 1.498-.674 1.497-1.502 0-.827-.671-1.498-1.499-1.498-.246 0-1.129.013-2.062.175-.154-.438-.338-.843-.559-1.209.191.023.397.034.621.034 1.786 0 2.5-.714 2.5-2.5s-.714-2.5-2.5-2.5-2.5.714-2.5 2.5c0 .223.011.43.034.621-.366-.221-.771-.405-1.209-.559.162-.933.175-1.816.175-2.062 0-.828-.671-1.498-1.498-1.499h-.002c-.827 0-1.498.67-1.5 1.497 0 .407-.042 1.012-.127 1.527-.283-.015-.572-.025-.873-.025s-.59.011-.873.025c-.084-.515-.126-1.12-.127-1.527-.002-.827-.673-1.497-1.5-1.497h-.002c-.827 0-1.498.671-1.498 1.499 0 .246.013 1.129.175 2.062-.438.154-.843.338-1.209.559.023-.191.034-.397.034-.621 0-1.786-.714-2.5-2.5-2.5s-2.5.714-2.5 2.5.714 2.5 2.5 2.5c.223 0 .43-.011.621-.034-.221.366-.405.771-.559 1.209-.933-.162-1.816-.175-2.062-.175-.828 0-1.498.671-1.499 1.498 0 .828.67 1.5 1.497 1.502.407 0 1.012.042 1.527.127-.015.283-.025.572-.025.873s.011.59.025.873c-.515.084-1.12.126-1.527.127-.827.002-1.498.674-1.497 1.502 0 .827.671 1.498 1.499 1.498.246 0 1.129-.013 2.062-.175.154.438.338.843.559 1.209-.191-.023-.397-.034-.621-.034-1.786 0-2.5.714-2.5 2.5s.714 2.5 2.5 2.5 2.5-.714 2.5-2.5c0-.223-.011-.43-.034-.621.366.221.771.405 1.209.559-.162.933-.175 1.816-.175 2.062 0 .828.671 1.498 1.498 1.499h.002c.827 0 1.498-.67 1.5-1.497 0-.407.042-1.012.127-1.527.283.015.572.025.873.025s.59-.011.873-.025c.084.515.126 1.12.127 1.527.002.827.673 1.497 1.5 1.497h.002c.827 0 1.498-.671 1.498-1.499 0-.246-.013-1.129-.175-2.062.438-.154.843-.338 1.209-.559-.023.191-.034.397-.034.621 0 1.786.714 2.5 2.5 2.5s2.5-.714 2.5-2.5-.714-2.5-2.5-2.5c-.223 0-.43.011-.621.034.221-.366.405-.771.559-1.209.933.162 1.816.175 2.062.175.828 0 1.498-.671 1.499-1.498 0-.828-.67-1.5-1.497-1.502zm-8.002-4.5c0 1.071-.429 1.5-1.5 1.5s-1.5-.429-1.5-1.5.429-1.5 1.5-1.5 1.5.429 1.5 1.5zm-6.5 3.5c0-1.071.429-1.5 1.5-1.5s1.5.429 1.5 1.5-.429 1.5-1.5 1.5-1.5-.429-1.5-1.5zm3.5 3.5c0-1.071.429-1.5 1.5-1.5s1.5.429 1.5 1.5-.429 1.5-1.5 1.5-1.5-.429-1.5-1.5zm5-2c-1.071 0-1.5-.429-1.5-1.5s.429-1.5 1.5-1.5 1.5.429 1.5 1.5-.429 1.5-1.5 1.5z"/></svg>