<?xml version="1.0" encoding="UTF-8"?>
<svg xmlns="http://www.w3.org/2000/svg" id="Layer_1" data-name="Layer 1" viewBox="0 0 24 24">
  <path d="M20.447,6.344c-.585-.585-1.536-.583-2.121,.003-.585,.587-.583,1.537,.004,2.122,1.124,1.12,1.67,2.279,1.67,3.542,0,1.232-.562,2.418-1.67,3.523-.586,.585-.588,1.535-.002,2.122,.293,.293,.677,.44,1.062,.44,.383,0,.767-.146,1.06-.438,1.692-1.688,2.551-3.588,2.551-5.647,0-2.072-.858-3.979-2.553-5.667Z"/>
  <path d="M17.381,9.134c-.587-.585-1.537-.583-2.122,.003s-.583,1.536,.003,2.121c.404,.403,.512,.663,.512,.753,0,.023-.015,.237-.512,.733-.586,.585-.588,1.535-.003,2.121,.293,.294,.678,.441,1.062,.441,.383,0,.767-.146,1.06-.438,.937-.935,1.393-1.869,1.393-2.857s-.469-1.956-1.393-2.877Z"/>
  <path d="M11.185,4.334c-.475-.225-.985-.177-1.364,.132-.053,.043-.1,.092-.142,.145-1.19,1.532-2.614,3.01-2.966,3.15l-3.741,.282c-.266,.02-.51,.157-.665,.375-.849,1.191-1.308,2.115-1.307,3.581,0,1.483,.479,2.447,1.307,3.61,.155,.218,.399,.355,.665,.375l3.662,.269c.43,.151,1.854,1.617,3.047,3.138,.041,.053,.088,.101,.14,.143,.221,.18,.488,.272,.765,.272,.198,0,.401-.047,.599-.14,1.282-.609,2.578-3.437,2.578-7.668s-1.297-7.054-2.578-7.663Z"/>
</svg>
