<svg id="Layer_1" viewBox="0 0 24 24" xmlns="http://www.w3.org/2000/svg" data-name="Layer 1"><path d="m15.058 11.998c0 4.879-1.488 8.142-2.959 8.842-.575.279-1.287.198-1.698-.303-1.174-1.494-2.831-3.276-3.469-3.609l-3.703-.353c-.289-.027-.552-.179-.72-.415-.956-1.343-1.509-2.454-1.509-4.16 0-1.684.529-2.748 1.508-4.123.17-.238.435-.391.727-.416l3.754-.354c.567-.307 2.267-2.17 3.409-3.639.403-.485 1.089-.593 1.692-.309 1.477.703 2.968 3.964 2.968 8.839zm3.896-4.059c-.586-.586-1.535-.586-2.121 0s-.586 1.536 0 2.121c.775.775 1.168 1.428 1.168 1.939s-.393 1.164-1.168 1.939c-.586.585-.586 1.535 0 2.121s1.535.586 2.121 0c1.378-1.377 2.047-2.705 2.047-4.061s-.669-2.684-2.047-4.061z"/></svg>