<svg id="Layer_1" viewBox="0 0 24 24" xmlns="http://www.w3.org/2000/svg" data-name="Layer 1"><path d="m18 10.567c0 1.233-.267 1.5-1.5 1.5s-1.5-.267-1.5-1.5.267-1.5 1.5-1.5 1.5.267 1.5 1.5zm-10.5-1.5c-1.233 0-1.5.267-1.5 1.5s.267 1.5 1.5 1.5 1.5-.267 1.5-1.5-.267-1.5-1.5-1.5zm15.5 3c0 4.397-1.021 7.169-1.063 7.285-.104.276-.325.493-.604.592-.08.028-2.003.694-5.745.986-.389.031-.766-.171-.954-.516-.695-1.264-1.381-2.281-2.098-3.11-.26-.303-.812-.302-1.072 0-.717.83-1.402 1.848-2.098 3.111-.188.344-.549.546-.954.516-3.742-.292-5.665-.958-5.745-.986-.278-.099-.5-.315-.604-.592-.043-.116-1.063-2.888-1.063-7.285s1.021-7.169 1.063-7.285c.104-.275.324-.492.602-.591.129-.046 3.232-1.124 9.335-1.124s9.206 1.078 9.335 1.124c.277.099.498.315.602.591.043.116 1.063 2.888 1.063 7.285zm-12-1.5c0-2.322-1.178-3.5-3.5-3.5s-3.5 1.178-3.5 3.5 1.178 3.5 3.5 3.5 3.5-1.178 3.5-3.5zm9 0c0-2.322-1.178-3.5-3.5-3.5s-3.5 1.178-3.5 3.5 1.178 3.5 3.5 3.5 3.5-1.178 3.5-3.5z"/></svg>