<svg id="Layer_1" viewBox="0 0 24 24" xmlns="http://www.w3.org/2000/svg" data-name="Layer 1"><path d="m20.5 1h-.003c-.828.001-1.498.674-1.497 1.502 0 .051-.002 5.191-.908 9.164-.692 3.031-1.658 5.146-2.478 6.53l-2.166-8.022c-.177-.654-.771-1.109-1.448-1.109s-1.271.455-1.448 1.109l-2.165 8.021c-.821-1.385-1.787-3.5-2.479-6.529-.904-3.963-.908-9.112-.908-9.164 0-.828-.67-1.5-1.498-1.502h-.002c-.827 0-1.499.67-1.5 1.498 0 .224.002 5.536.984 9.836 1.694 7.425 4.968 10.207 5.106 10.322.393.325.926.427 1.411.274.486-.154.861-.546.994-1.039l1.504-5.57 1.504 5.57c.133.493.611 1.109 1.448 1.109.345 0 .685-.119.957-.345.139-.115 3.412-2.896 5.106-10.321.982-4.301.984-9.612.984-9.836 0-.828-.673-1.498-1.5-1.498z"/></svg>