<?xml version="1.0" encoding="UTF-8"?>
<svg xmlns="http://www.w3.org/2000/svg" id="Layer_1" data-name="Layer 1" viewBox="0 0 24 24">
  <path d="M17.888,16.587c-1.786,0-3.239,1.438-3.239,3.206s1.453,3.207,3.239,3.207,3.238-1.438,3.238-3.207-1.453-3.206-3.238-3.206Z"/>
  <path d="M17.888,14.587c1.096,0,2.114,.336,2.956,.91,.001-.073-.447-3.988-.466-4.056-.1-.354-.401-.614-.766-.664-.144-.019-3.561-.473-7.606-.473s-7.461,.455-7.605,.473c-.364,.049-.664,.308-.766,.661-.019,.068-.48,3.986-.479,4.059,.842-.574,1.861-.911,2.957-.911,2.889,0,5.239,2.335,5.239,5.206,0,.153-.007,.304-.02,.453,.226,.003,.451,.004,.674,.004,.219,0,.44-.002,.663-.004-.013-.149-.02-.3-.02-.453,0-2.871,2.351-5.206,5.239-5.206Z"/>
  <path d="M6.113,16.587c-1.786,0-3.239,1.438-3.239,3.206s1.453,3.207,3.239,3.207,3.239-1.438,3.239-3.207-1.453-3.206-3.239-3.206Z"/>
  <path d="M4.134,8.795c.647-.084,3.976-.491,7.871-.491s7.228,.407,7.854,.489c.196,.027,.386,.072,.567,.134l-.004-4.739c0-.742-.323-1.443-.886-1.925-.6-.513-1.401-.733-2.21-.609-.475,.081-.984-.017-1.43-.276-.874-.503-1.917-.505-2.793,0-.693,.401-1.513,.401-2.206,0-.875-.504-1.919-.505-2.794,0-.446,.258-.933,.36-1.436,.274-.8-.123-1.605,.096-2.204,.61-.563,.482-.886,1.184-.886,1.925l.004,4.737c.178-.061,.363-.105,.554-.13ZM13.617,3.924c0-.511,.414-.925,.925-.925s.925,.414,.925,.925v1.858c0,.511-.414,.925-.925,.925s-.925-.414-.925-.925v-1.858Zm-5.074,0c0-.511,.414-.925,.925-.925s.925,.414,.925,.925v1.858c0,.511-.414,.925-.925,.925s-.925-.414-.925-.925v-1.858Z"/>
</svg>
