<svg id="Layer_1" viewBox="0 0 24 24" xmlns="http://www.w3.org/2000/svg" data-name="Layer 1"><circle cx="12.5" cy="3.5" r="2.5"/><path d="m18.047 11.001c-.015-.001-1.522-.188-3.152-3.449-.031-.063-.131-.199-.147-.217-.189-.213-.461-.335-.747-.335h-3.5c-.033 0-.174.014-.22.024-.497.112-3.027.725-4.016 1.798-.106.115-.183.253-.226.403l-1 3.5c-.152.531.156 1.084.687 1.236.092.026.185.039.275.039.435 0 .835-.287.961-.726l.922-3.226c.224-.166.591-.343 1.013-.51-.419 1.555-.549 3.197-.393 5.045.033.387.288.721.652.855.017.006 1.702.635 3.222 1.844 1.196.952 2.623 2.542 2.623 4.717 0 .552.448 1 1 1s1-.448 1-1c0-2.19-1.024-4.219-2.945-5.907l.611-5.194c1.667 2.018 3.129 2.1 3.334 2.1.552 0 1.023-.447 1.023-.999s-.424-1-.977-1z"/><path d="m9.686 17.919-2.5 3.5c-.321.449-.217 1.074.233 1.395.176.125.379.186.58.186.312 0 .62-.146.815-.419l2.5-3.5c.321-.449.217-1.074-.233-1.395-.449-.32-1.074-.218-1.395.233z"/></svg>