<svg id="Layer_1" viewBox="0 0 24 24" xmlns="http://www.w3.org/2000/svg" data-name="Layer 1"><path d="m15.932 9.133c.038.252.068.554.068.867s-.03.613-.067.865c-.857.056-2.354.135-3.933.135s-3.075-.079-3.932-.135c-.038-.252-.068-.553-.068-.865s.031-.615.068-.867c.831-.056 2.282-.133 3.932-.133s3.102.077 3.932.133zm5.068.867c0 3.483-.845 5.494-.881 5.578-.113.265-.334.467-.606.557-.014.004-.238.077-.65.179-.23 3.049-.669 4.931-.688 5.016-.071.303-.279.555-.563.683-.089.04-2.234.988-5.61.988s-5.521-.948-5.611-.988c-.283-.128-.491-.38-.562-.683-.02-.085-.458-1.967-.688-5.016-.413-.102-.637-.175-.65-.179-.273-.09-.494-.292-.607-.557-.036-.084-.881-2.095-.881-5.578s.846-5.483.882-5.566c.111-.258.326-.457.591-.549.026-.009.202-.069.527-.153v-1.732c0-.553.448-1 1-1s1 .447 1 1v1.344c.573-.086 1.231-.164 2-.226v-1.118c0-.553.448-1 1-1s1 .447 1 1v1.021c.33-.008.645-.021 1-.021 4.911 0 7.423.849 7.527.885.265.092.479.291.591.549.036.083.882 2.081.882 5.566zm-10 6.5c0-.828-.672-1.5-1.5-1.5s-1.5.672-1.5 1.5.672 1.5 1.5 1.5 1.5-.672 1.5-1.5zm5 0c0-.828-.672-1.5-1.5-1.5s-1.5.672-1.5 1.5.672 1.5 1.5 1.5 1.5-.672 1.5-1.5zm2-6.5c0-1.089-.267-2.041-.278-2.081-.113-.397-.459-.685-.871-.723-.089-.008-2.191-.196-4.851-.196s-4.762.188-4.85.196c-.412.038-.759.325-.872.723-.011.04-.278.992-.278 2.081s.267 2.041.278 2.081c.114.399.463.688.877.723.094.009 2.331.196 4.845.196s4.751-.188 4.845-.196c.414-.035.764-.323.877-.723.012-.04.278-.992.278-2.081z"/></svg>