<svg id="Layer_1" viewBox="0 0 24 24" xmlns="http://www.w3.org/2000/svg" data-name="Layer 1"><path d="m15.933 21.767c.199.61-.266 1.233-.908 1.233h-9.463c-.64 0-1.236-.318-1.602-.843-1.984-2.848-2.941-6.799-2.941-10.657 0-1.883.282-3.835.847-5.815.169-.595.56-1.089 1.101-1.39.619-.345 1.348-.391 2.017-.116 1.089.448 1.634 1.722 1.317 2.857-.368 1.318-.626 2.807-.544 4.423-.633.846-.88 1.925-.656 3 .277.967.823 1.864 1.49 2.915.265.436.571.879.942 1.315.35.37.93.421 1.34.102.436-.339.514-.967.175-1.403-.905-1.164-1.641-2.422-1.99-3.338-.125-.599.04-1.191.49-1.616.507-.479 1.282-.571 1.885-.224.005.005 1.436.676 2.918 2.458 1.489 1.791 2.811 4.744 3.58 7.1zm-1.368-9.558s-.45.22-1.093.706c.139.152.279.304.419.473.707.85 1.332 1.852 1.868 2.855.522-.797.945-1.575 1.181-2.194.125-.599-.04-1.191-.49-1.616-.507-.479-1.282-.571-1.885-.224zm7.568-6.524c-.169-.595-.56-1.089-1.101-1.39-.619-.345-1.348-.391-2.017-.116-1.089.448-1.634 1.722-1.317 2.857.368 1.318.626 2.807.544 4.423.633.846.88 1.925.656 3-.277.967-.823 1.864-1.49 2.915-.19.312-.412.628-.652.942.544 1.253.912 2.319 1.079 2.833.199.609.173 1.258-.029 1.853h.633c.64 0 1.236-.318 1.602-.843 1.984-2.848 2.941-6.799 2.941-10.657 0-1.883-.282-3.835-.847-5.815zm-11.238 2.082c.245.155.523.233.803.233.267 0 .534-.071.771-.214 2.029-1.217 3.351-3.033 4.274-4.479.446-.698.242-1.626-.456-2.071-.695-.445-1.625-.243-2.071.456-.867 1.356-1.651 2.293-2.506 2.976-.403-.328-.738-.677-1.027-1.065-.496-.664-1.435-.802-2.1-.306-.664.495-.802 1.435-.307 2.099.677.907 1.533 1.683 2.618 2.371z"/></svg>