<svg id="Layer_1" viewBox="0 0 24 24" xmlns="http://www.w3.org/2000/svg" data-name="Layer 1"><path d="m18.184 6.091c-.123-.32-.401-.555-.737-.622-.096-.019-1.394-.47-5.446-.47-3.915 0-5.335.448-5.436.468-.341.064-.623.3-.748.624-.033.086-.816 2.166-.816 5.909s.783 5.822.816 5.909c.125.324.407.56.748.624.101.02 1.521.468 5.436.468s5.335-.448 5.436-.468c.341-.064.623-.3.748-.624.033-.086.816-2.166.816-5.909s-.783-5.822-.816-5.909zm-9.269 1.037c2.012-.171 4.22-.168 6.168-.005.551.046.96.529.913 1.08-.046.55-.519.958-1.079.914-1.839-.154-3.932-.158-5.832.005-.542.048-1.037-.36-1.081-.911-.047-.55.36-1.035.911-1.082zm.089 9.875c-.552 0-1-.448-1-1s.448-1 1-1 1 .448 1 1-.448 1-1 1zm0-4c-.552 0-1-.448-1-1s.448-1 1-1 1 .448 1 1-.448 1-1 1zm3 4c-.552 0-1-.448-1-1s.448-1 1-1 1 .448 1 1-.448 1-1 1zm0-4c-.552 0-1-.448-1-1s.448-1 1-1 1 .448 1 1-.448 1-1 1zm3 4c-.552 0-1-.448-1-1s.448-1 1-1 1 .448 1 1-.448 1-1 1zm0-4c-.552 0-1-.448-1-1s.448-1 1-1 1 .448 1 1-.448 1-1 1zm-8.003-9.667v-.969c-.002-.493.357-.913.844-.99 1.095-.172 1.879-.377 4.155-.377 1.871 0 2.605.125 4.157.371.484.077.842.495.843.986v.973c-1.245-.215-2.942-.33-5-.33-2.021 0-3.717.116-4.999.336zm9.999 17.328v.969c.002.493-.357.913-.844.99-1.095.172-1.879.377-4.155.377-1.871 0-2.605-.125-4.157-.371-.484-.077-.842-.495-.843-.986v-.973c1.245.215 2.942.33 5 .33 2.021 0 3.717-.116 4.999-.336z"/></svg>