<svg id="Layer_1" viewBox="0 0 24 24" xmlns="http://www.w3.org/2000/svg" data-name="Layer 1"><path d="m17 20.664v.969c.002.493-.357.913-.844.99-1.095.172-1.879.377-4.155.377-1.871 0-2.605-.125-4.157-.371-.484-.077-.842-.495-.843-.986v-.973c1.245.215 2.942.33 5 .33 2.021 0 3.717-.116 4.999-.336zm-5-17.664c2.058 0 3.755.114 5.001.33v-.973c-.002-.491-.359-.909-.844-.986-1.552-.246-2.286-.371-4.157-.371-2.276 0-3.061.205-4.155.377-.487.077-.846.497-.845.99v.969c1.283-.22 2.979-.336 5-.336zm7 9c0 3.743-.783 5.822-.816 5.909-.125.324-.407.56-.748.624-.101.02-1.521.468-5.436.468s-5.335-.448-5.436-.468c-.341-.064-.623-.3-.748-.624-.033-.086-.816-2.166-.816-5.909s.783-5.822.816-5.909c.125-.324.407-.56.748-.624.101-.02 1.521-.468 5.436-.468 4.053 0 5.351.451 5.446.47.336.067.614.302.737.622.033.086.816 2.166.816 5.909zm-4.293 1.293-1.707-1.707v-3.586c0-.552-.447-1-1-1s-1 .448-1 1v4c0 .265.105.52.293.707l2 2c.391.391 1.023.391 1.414 0s.391-1.023 0-1.414z"/></svg>