<svg id="Layer_1" viewBox="0 0 24 24" xmlns="http://www.w3.org/2000/svg" data-name="Layer 1"><path d="m12 4c-5.608 0-8 2.392-8 8s2.392 8 8 8 8-2.392 8-8-2.392-8-8-8zm2.707 10.707c-.391.391-1.023.391-1.414 0l-2-2c-.188-.188-.293-.441-.293-.707v-4c0-.553.448-1 1-1s1 .447 1 1v3.586l1.707 1.707c.391.391.391 1.023 0 1.414zm-8.707-11.38v-1.327c0-.553.448-1 1-1h10c.552 0 1 .447 1 1v1.327c-1.545-.884-3.539-1.327-6-1.327s-4.455.443-6 1.327zm12 17.346v1.327c0 .553-.448 1-1 1h-10c-.552 0-1-.447-1-1v-1.327c1.545.884 3.539 1.327 6 1.327s4.455-.443 6-1.327z"/></svg>