<?xml version="1.0" encoding="UTF-8"?>
<svg xmlns="http://www.w3.org/2000/svg" id="Layer_1" data-name="Layer 1" viewBox="0 0 24 24">
  <path d="M21.5,19.178c-.474,0-.923-.207-1.264-.583-.568-.629-1.654-.629-2.223,0-.682,.752-1.846,.752-2.527,0-.568-.629-1.654-.629-2.223,0-.682,.752-1.847,.752-2.526,0-.285-.313-.688-.493-1.112-.493h0c-.423,0-.828,.179-1.112,.493-.681,.752-1.846,.752-2.526,0-.568-.629-1.655-.629-2.224,0-.34,.376-.789,.583-1.263,.583-.829,0-1.5,.672-1.5,1.5s.671,1.5,1.5,1.5c.837,0,1.657-.232,2.375-.659,1.437,.854,3.312,.854,4.75,0,1.437,.854,3.312,.854,4.75,0,1.438,.854,3.312,.854,4.75,0,.719,.427,1.538,.659,2.375,.659,.828,0,1.5-.672,1.5-1.5s-.672-1.5-1.5-1.5Z"/>
  <path d="M21.5,13.751c-.474,0-.923-.207-1.264-.583-.568-.627-1.654-.627-2.223,0-.682,.752-1.846,.752-2.527,0-.568-.627-1.654-.627-2.223,0-.682,.752-1.847,.752-2.527,0-.284-.313-.688-.492-1.111-.492h0c-.423,0-.827,.179-1.111,.492-.683,.752-1.846,.752-2.528,0-.568-.627-1.653-.627-2.222,0-.341,.376-.79,.583-1.264,.583-.829,0-1.5,.672-1.5,1.5s.671,1.5,1.5,1.5c.836,0,1.656-.232,2.375-.659,1.438,.854,3.312,.854,4.75,0,1.436,.854,3.312,.854,4.75,0,1.438,.854,3.312,.854,4.75,0,.719,.427,1.538,.659,2.375,.659,.828,0,1.5-.672,1.5-1.5s-.672-1.5-1.5-1.5Z"/>
  <path d="M21.5,8.324c-.475,0-.923-.207-1.264-.582-.568-.629-1.654-.629-2.223,0-.682,.75-1.846,.75-2.527,0-.568-.629-1.654-.629-2.223,0-.681,.751-1.848,.749-2.526,0-.285-.313-.688-.493-1.112-.493h0c-.423,0-.828,.179-1.112,.493-.68,.75-1.847,.75-2.526,0-.568-.629-1.655-.629-2.224,0-.34,.375-.789,.582-1.263,.582-.829,0-1.5,.672-1.5,1.5s.671,1.5,1.5,1.5c.837,0,1.657-.232,2.375-.658,1.437,.852,3.313,.852,4.75,0,1.436,.853,3.315,.853,4.75,0,1.436,.852,3.314,.852,4.75,0,.718,.426,1.538,.658,2.375,.658,.828,0,1.5-.672,1.5-1.5s-.672-1.5-1.5-1.5Z"/>
  <path d="M2.5,5.898c.837,0,1.657-.232,2.375-.659,1.437,.854,3.312,.854,4.75,0,1.437,.854,3.312,.854,4.75,0,1.438,.854,3.312,.854,4.75,0,.719,.427,1.538,.659,2.375,.659,.828,0,1.5-.672,1.5-1.5s-.672-1.5-1.5-1.5c-.474,0-.923-.207-1.264-.583-.568-.629-1.654-.629-2.223,0-.682,.752-1.846,.752-2.527,0-.568-.629-1.654-.629-2.223,0-.682,.752-1.847,.752-2.526,0-.285-.313-.688-.493-1.112-.493h0c-.423,0-.828,.179-1.112,.493-.681,.752-1.846,.752-2.526,0-.568-.629-1.655-.629-2.224,0-.34,.376-.789,.583-1.263,.583-.829,0-1.5,.672-1.5,1.5s.671,1.5,1.5,1.5Z"/>
</svg>
