<svg id="Layer_1" viewBox="0 0 24 24" xmlns="http://www.w3.org/2000/svg" data-name="Layer 1"><path d="m22.999 19.531c-.045 2.128-1.527 3.457-3.868 3.469-.944-.005-1.74-.229-2.367-.623-.625.396-1.423.619-2.381.623-.965-.005-1.767-.228-2.395-.625-.625.395-1.417.62-2.356.625-.952-.005-1.752-.233-2.381-.634-.627.4-1.423.629-2.368.634-2.357-.012-3.839-1.341-3.884-3.469-.017-.828.641-1.514 1.469-1.531.803-.006 1.514.641 1.531 1.469.006.317.011.526.884.531.856-.005.86-.181.867-.531.012-.791.703-1.479 1.499-1.466.805-.01 1.486.674 1.499 1.466.006.306.011.526.884.531.857-.005.861-.181.868-.531.009-.794.698-1.476 1.493-1.465.825-.02 1.481.678 1.506 1.464.008.374.012.528.884.533.8-.005.855-.142.865-.463-.023-.821.68-1.543 1.501-1.537.832 0 1.52.714 1.5 1.537.01.269.076.458.881.463.857-.005.861-.181.868-.531.018-.828.692-1.476 1.531-1.469.828.018 1.486.703 1.469 1.531zm-18.999-4.031v-10c0-2.986 1.514-4.5 4.5-4.5.828 0 1.5.672 1.5 1.5s-.672 1.5-1.5 1.5c-1.317 0-1.5.183-1.5 1.5v.798c1.077-.154 2.58-.298 4.5-.298s3.423.144 4.5.298v-.798c0-2.986 1.514-4.5 4.5-4.5.828 0 1.5.672 1.5 1.5s-.672 1.5-1.5 1.5c-1.317 0-1.5.183-1.5 1.5v10c0 .828-.672 1.5-1.5 1.5-.898.005-1.576-.784-1.5-1.667-.934-.154-2.444-.333-4.5-.333s-3.566.179-4.5.333c.076.883-.602 1.672-1.5 1.667-.828 0-1.5-.672-1.5-1.5zm3-6.167v2.965c1.077-.154 2.58-.298 4.5-.298s3.423.144 4.5.298v-2.965c-.934-.154-2.444-.333-4.5-.333s-3.566.179-4.5.333z"/></svg>