<svg id="Layer_1" viewBox="0 0 24 24" xmlns="http://www.w3.org/2000/svg"><path d="m12 7c-5.111 0-8.874.818-10.668 1.305.294-2.112.681-3.489.707-3.58.095-.332.354-.592.687-.687.06-.017.688-.192 1.775-.393v-1.146c0-.829.671-1.5 1.5-1.5s1.5.671 1.5 1.5v.724c1.286-.13 2.797-.224 4.5-.224s3.214.093 4.5.224v-.724c0-.829.672-1.5 1.5-1.5s1.5.671 1.5 1.5v1.146c1.086.201 1.715.375 1.775.392.332.095.592.354.687.687.026.091.413 1.469.707 3.58-1.794-.488-5.558-1.305-10.668-1.305zm-.67 8c-.438.005-.812.328-.829.77-.063 1.697-.375 3.189-.678 4.273-.175-.509-.35-1.123-.487-1.834-.073-.377-.402-.648-.786-.648s-.713.271-.786.648c-.137.711-.312 1.325-.487 1.834-.303-1.084-.614-2.576-.678-4.273-.017-.441-.39-.77-.829-.77-.441.017-.786.389-.77.83.142 3.794 1.393 6.585 1.446 6.701.121.266.376.444.667.467.299.02.571-.115.73-.359.023-.035.343-.53.706-1.431.363.9.683 1.396.706 1.431.159.244.442.381.73.359.291-.022.546-.201.667-.467.053-.116 1.305-2.907 1.446-6.701.017-.442-.328-.813-.77-.83zm5.27 1.589c.441 0 .8-.358.8-.8s-.358-.8-.8-.8c-1.501 0-2.802.267-2.856.278-.32.066-.567.321-.625.645-.01.058-.251 1.442-.251 3.088s.241 3.012.252 3.069c.058.321.305.575.625.642.055.012 1.355.277 2.855.277.441 0 .8-.358.8-.8s-.358-.8-.8-.8c-.78 0-1.513-.083-1.986-.152-.043-.339-.091-.819-.12-1.363.355-.033.805-.066 1.284-.08.441-.013.79-.381.777-.822s-.333-.777-.822-.777c-.458.013-.888.042-1.247.073.027-.61.082-1.151.13-1.526.475-.069 1.206-.153 1.985-.153zm0-3.6c.458 0 .884.121 1.265.316.166-.063.336-.117.516-.148.299-.05 1.015-.157 1.705-.157.713 0 1.882.142 2.901.893.008-.293.013-.59.013-.893 0-.894-.039-1.746-.1-2.544-1.03-.321-5.078-1.456-10.9-1.456s-9.871 1.135-10.9 1.456c-.061.797-.1 1.649-.1 2.544 0 4.587.996 8.126 1.039 8.275.095.332.354.592.687.687.055.016.576.161 1.488.339-.446-1.273-1.107-3.59-1.211-6.396-.058-1.542 1.15-2.845 2.693-2.903h.003c1.45 0 2.604.969 2.852 2.271.248-1.289 1.387-2.257 2.757-2.272.569.021 1.081.199 1.511.477.166-.07.337-.13.518-.167.049-.011 1.514-.32 3.263-.32zm6.4 6.011c0 1.094 0 4-2.914 4-.632 0-1.348-.141-1.378-.147-.309-.062-.553-.298-.623-.604-.012-.051-.285-1.26-.285-3.248s.272-3.211.284-3.262c.071-.315.325-.556.643-.611.03-.005.736-.127 1.359-.127 2.914 0 2.914 2.906 2.914 4zm-1.6 0c0-2.4-.698-2.4-1.314-2.4-.169 0-.357.014-.532.03-.069.496-.154 1.314-.154 2.37s.085 1.875.155 2.365c.17.02.358.035.531.035.616 0 1.314 0 1.314-2.4z"/></svg>