<svg id="Layer_1" viewBox="0 0 24 24" xmlns="http://www.w3.org/2000/svg" data-name="Layer 1"><path d="m15.5 8c-3.579 0-6.273.545-8.326 1.702-.163-1.099-.151-3.652-.161-3.752 2.532-.237 3.743-1.431 3.984-3.959.053-.557-.426-1.042-.983-.987-4.013.397-4.013 3.104-4.013 3.104s0-2.705-4.012-3.103c-.557-.055-1.037.429-.984.987.229 2.406 1.344 3.598 3.634 3.912-1.276 1.166-3.638 3.771-3.638 7.096 0 8.453 4.883 10 14.5 10 5.187 0 7.5-2.313 7.5-7.5s-2.313-7.5-7.5-7.5zm1 11c-.828 0-1.5-.672-1.5-1.5s.672-1.5 1.5-1.5 1.5.672 1.5 1.5-.672 1.5-1.5 1.5z"/></svg>