<svg id="Layer_1" viewBox="0 0 24 24" xmlns="http://www.w3.org/2000/svg" data-name="Layer 1"><path d="m18.503 5.998c1.408-.008 2.465-.609 2.5-2.499-.031-1.816-1.097-2.49-2.5-2.499-1.408.009-2.467.645-2.5 2.499.034 1.885 1.097 2.491 2.5 2.499z"/><path d="m20.987 14.1c-1.54-.529-3.313-.809-4.695-.958.54-.892 1.073-1.918 1.571-3.448.35-1.072.033-2.244-.805-2.985-.525-.465-1.176-.692-1.891-.704-2.796.005-4.727.24-5.172.331-.536.074-1.022.312-1.405.688-.389.378-.648.77-.858 1.107-3.89.542-5.728 2.926-5.728 7.406-.016 5.173 2.356 7.477 7.476 7.461 4.058-.02 6.21-1.678 6.97-4.858-.839-.132-2.609-.132-2.843-.14-1.753-.082-3.184-.862-4.017-2.406-.835-1.545-.757-3.346.096-4.882.272-.486.573-1.021.898-1.433.283-.047.964-.137 2.196-.204-.391.897-.812 1.614-1.361 2.542-.534.901-.555 1.99-.057 2.912s1.526 1.417 2.571 1.466c.003 0 .198.005.515.006.881.049 2.678.193 4.359.593-.474 2.341-1.345 4.258-1.355 4.28-.345.752-.016 1.643.736 1.989.203.093.417.138.626.138.567 0 1.109-.323 1.362-.872.057-.124 1.406-3.077 1.813-6.429.085-.702-.333-1.369-1.002-1.6z"/></svg>