<svg id="Layer_1" viewBox="0 0 24 24" xmlns="http://www.w3.org/2000/svg" data-name="Layer 1"><path d="m22.559 7.547c-1.614-1.606-3.447-2.813-5.449-3.587-.769-.297-1.641.085-1.939.859-.298.773.086 1.641.859 1.94 1.61.622 3.096 1.603 4.412 2.914.293.292 1.255.806 2.121-.004.605-.567.583-1.537-.004-2.122z"/><path d="m8.834 4.819c-.299-.773-1.171-1.156-1.939-.859-2.002.773-3.835 1.98-5.449 3.587-.587.584-.609 1.555-.004 2.122.866.81 1.828.296 2.121.004 1.316-1.312 2.802-2.292 4.412-2.914.773-.299 1.157-1.167.859-1.94z"/><path d="m17.363 11.188c-.673-.483-1.609-.331-2.094.342-.483.672-.33 1.61.342 2.093.355.255.702.551 1.031.878.293.291 1.224.835 2.122-.007.604-.566.58-1.537-.007-2.121-.442-.439-.911-.838-1.395-1.186z"/><path d="m6.641 11.188c-.483.348-.952.747-1.395 1.186-.587.584-.611 1.555-.007 2.121.899.842 1.829.298 2.122.007.329-.327.676-.623 1.031-.878.672-.483.825-1.421.342-2.093-.484-.673-1.421-.825-2.094-.342z"/><path d="m12 15.181c-1.831 0-2.925 1.087-2.925 2.909s1.094 2.91 2.925 2.91 2.925-1.088 2.925-2.91-1.094-2.909-2.925-2.909z"/><path d="m12 13.438c.828 0 1.5-.671 1.5-1.5v-7.438c0-.829-.672-1.5-1.5-1.5s-1.5.671-1.5 1.5v7.438c0 .829.672 1.5 1.5 1.5z"/></svg>