<svg id="Layer_1" viewBox="0 0 24 24" xmlns="http://www.w3.org/2000/svg" data-name="Layer 1"><path d="m22.56 7.537c-6.119-6.111-15.001-6.111-21.12 0-.586.585-.587 1.535-.001 2.122s1.535.587 2.122.001c4.891-4.885 11.989-4.885 16.88 0 .293.292 1.188.819 2.122-.001.623-.547.584-1.536-.001-2.122z"/><path d="m5.24 12.381c-.586.585-.587 1.535-.001 2.122s1.535.587 2.122.001c2.818-2.815 6.462-2.815 9.28 0 .293.292 1.243.818 2.122-.001.606-.565.584-1.536-.001-2.122-3.98-3.975-9.54-3.975-13.521 0z"/><path d="m12 15.196c-1.832 0-2.925 1.089-2.925 2.915s1.093 2.914 2.925 2.914 2.925-1.089 2.925-2.914-1.093-2.915-2.925-2.915z"/></svg>