<?xml version="1.0" encoding="UTF-8"?>
<svg xmlns="http://www.w3.org/2000/svg" id="Layer_1" data-name="Layer 1" viewBox="0 0 24 24">
  <path d="M23,9.166c0-2.456-1.999-4.454-4.456-4.454-1.79,0-3.399,1.063-4.101,2.71-.325,.762,.03,1.644,.792,1.968,.762,.326,1.644-.029,1.968-.792,.229-.538,.756-.886,1.341-.886,.803,0,1.456,.652,1.456,1.454s-.653,1.455-1.456,1.455H6.886c-.829,0-1.5,.672-1.5,1.5s.671,1.5,1.5,1.5H15.397c.803,0,1.456,.652,1.456,1.454s-.653,1.454-1.456,1.454c-.614,0-1.165-.388-1.372-.964-.279-.779-1.139-1.185-1.917-.906-.78,.279-1.186,1.138-.907,1.918,.632,1.766,2.318,2.952,4.196,2.952,2.457,0,4.456-1.998,4.456-4.454,0-.553-.102-1.083-.287-1.572,1.966-.463,3.434-2.232,3.434-4.337Z"/>
  <path d="M2.5,9.192h7.472c2.061,0,3.737-1.676,3.737-3.735s-1.676-3.736-3.737-3.736c-1.084,0-2.114,.47-2.825,1.289-.543,.626-.476,1.573,.15,2.116,.625,.542,1.574,.477,2.116-.149,.083-.096,.266-.256,.559-.256,.406,0,.737,.33,.737,.736s-.331,.735-.737,.735H2.5c-.829,0-1.5,.672-1.5,1.5s.671,1.5,1.5,1.5Z"/>
  <path d="M8.251,14.808h-3.514c-2.061,0-3.737,1.676-3.737,3.735s1.677,3.736,3.737,3.736c1.225,0,2.374-.601,3.072-1.607,.472-.681,.303-1.615-.377-2.088s-1.616-.304-2.087,.377c-.138,.199-.365,.318-.607,.318-.407,0-.737-.33-.737-.736s.331-.735,.737-.735h3.514c.829,0,1.5-.672,1.5-1.5s-.671-1.5-1.5-1.5Z"/>
</svg>
