<svg id="Layer_1" viewBox="0 0 24 24" xmlns="http://www.w3.org/2000/svg" data-name="Layer 1"><path d="m23 8.5c0 2.974-.698 5.891-.729 6.013-.08.332-.324.6-.646.71-.057.02-.937.315-2.629.536.001-.086.004-.172.004-.258 0-3.281-.779-6.462-.784-6.481-.242-1.002-.968-1.8-1.929-2.128-.259-.092-2.669-.891-7.287-.891-.672 0-1.283.02-1.862.05.205-1.95.569-3.475.59-3.562.08-.332.324-.6.646-.71.092-.032 2.308-.777 6.625-.777s6.533.745 6.625.777c.322.11.566.378.646.71.03.122.729 3.039.729 6.013zm-6.267 3.5c-.201-1.423-.444-2.442-.461-2.513-.08-.332-.324-.6-.646-.71-.092-.032-2.308-.777-6.625-.777s-6.533.745-6.625.777c-.322.11-.566.378-.646.71-.017.071-.26 1.09-.461 2.513h15.466zm-15.678 2c-.034.49-.055.993-.055 1.5 0 2.974.699 5.891.729 6.013.08.332.324.6.646.71.092.032 2.308.777 6.625.777s6.533-.745 6.625-.777c.322-.11.566-.378.646-.71.03-.122.729-3.039.729-6.013 0-.507-.021-1.01-.055-1.5z"/></svg>