<svg id="Layer_1" viewBox="0 0 24 24" xmlns="http://www.w3.org/2000/svg" data-name="Layer 1"><path d="m21.618 14.946c-1.316-1.91-3.204-3.918-5.614-5.971-.892-3.026-1.958-5.561-3.169-7.539-.356-.581-1.314-.581-1.67 0-1.211 1.977-2.277 4.512-3.169 7.539-2.41 2.053-4.298 4.061-5.614 5.971-.423.575-.023 1.463.688 1.528 2.101.254 4.619.185 7.461-.167v3.346c-1.175.132-1.826.323-2.311.452-.787.195-1.268.991-1.073 1.779.195.787.989 1.27 1.779 1.073.656-.169 1.454-.432 3.074-.447 1.894.001 2.401.364 3.428.49.66 0 1.259-.447 1.425-1.116.195-.788-.285-1.583-1.073-1.779-.484-.129-1.137-.321-2.311-.452v-3.332c1.659.206 3.203.313 4.617.313 1.015 0 1.964-.054 2.844-.16.711-.065 1.111-.953.688-1.528zm-9.618-2.228c-.811 0-1.469-.658-1.469-1.469s.658-1.469 1.469-1.469 1.469.658 1.469 1.469-.658 1.469-1.469 1.469z"/></svg>