<svg id="Layer_1" viewBox="0 0 24 24" xmlns="http://www.w3.org/2000/svg" data-name="Layer 1"><path d="m19.957 11h-6.957v-9.98c3.812.136 6.178 1.004 6.285 1.044.275.104.492.324.591.602.04.114.881 2.537 1.081 7.282.024.572-.427 1.053-.999 1.053zm-15.914 0h6.957v-9.98c-3.812.136-6.178 1.004-6.284 1.044-.276.104-.492.323-.591.602-.04.114-.881 2.537-1.081 7.282-.024.572.427 1.053.999 1.053zm16.932 9.077c-.033-.011-.275-.089-.713-.196.295-1.35.663-3.637.727-6.881h-17.978c.065 3.243.432 5.531.727 6.881-.438.107-.68.185-.713.196-.783.261-1.206 1.106-.947 1.891.258.785 1.105 1.21 1.891.957.027-.009 2.736-.869 8.031-.869 5.993.033 7.542.862 8.5.944.628 0 1.214-.397 1.423-1.025.262-.786-.162-1.636-.948-1.897z"/></svg>