<svg id="Layer_1" viewBox="0 0 24 24" xmlns="http://www.w3.org/2000/svg" data-name="Layer 1"><path d="m16 20h-2.5v-4.083c4.027-.481 5.5-3.13 5.5-9.417 0-1.151-.061-2.204-.18-3.128-.033-.252-.161-.483-.357-.645-.065-.054-1.277-1.024-3.748-1.486l-2.845 4.259h2.13c.356 0 .686.19.865.498s.18.688.003.998l-2 3.5c-.185.323-.521.504-.869.504-.168 0-.339-.042-.495-.132-.479-.274-.646-.885-.372-1.364l1.145-2.004h-2.276c-.369 0-.708-.203-.882-.528-.174-.326-.154-.72.05-1.027l3.297-4.938c-.152-.004-.307-.007-.466-.007-4.309 0-6.373 1.657-6.459 1.728-.195.161-.322.39-.355.641-.123.93-.186 1.983-.186 3.131 0 6.287 1.473 8.936 5.5 9.417v4.083h-2.5c-.828 0-1.5.671-1.5 1.5s.672 1.5 1.5 1.5h8c.828 0 1.5-.671 1.5-1.5s-.672-1.5-1.5-1.5z"/></svg>