<svg id="Layer_1" viewBox="0 0 24 24" xmlns="http://www.w3.org/2000/svg" data-name="Layer 1"><path d="m9.051 4c.035-.563.087-1.129.158-1.694.093-.744.734-1.306 1.489-1.306h2.604c.755 0 1.396.562 1.489 1.306.071.565.123 1.131.158 1.694zm10.027 7.01c-.241-.512-1.15-1.968-4.078-3.191v-1.818h-6v1.818c-2.928 1.224-3.837 2.68-4.078 3.191-.175.268-.495.881-.709 1.99h10.786c.552 0 1 .447 1 1s-.448 1-1 1h-10.985c-.005.166-.014.322-.014.5 0 3.116.811 5.753.845 5.864.068.219.209.407.4.534.276.184 1.898 1.102 6.755 1.102s6.479-.918 6.755-1.102c.19-.127.332-.315.4-.534.035-.111.845-2.748.845-5.864 0-2.778-.644-4.064-.922-4.49z"/></svg>