<svg id="Layer_1" viewBox="0 0 24 24" xmlns="http://www.w3.org/2000/svg" data-name="Layer 1"><path d="m21.543 7.232c-.445-2.804-2.499-5.056-5.208-5.717-1.39-.339-2.849-.513-4.338-.519-1.491.005-2.953.179-4.345.519-2.708.661-4.764 2.913-5.207 5.716-.664 4.004-.594 8.237.205 12.89.172 1.4 1.134 2.492 2.439 2.777 1.28.294 2.524-.102 3.328-1.064.646-.775 3.088-3.58 3.165-3.669.06-.056.26-.166.411-.166s.351.11.425.184c.063.072 2.505 2.876 3.152 3.652.804.976 2.102 1.358 3.316 1.066 1.316-.289 2.279-1.38 2.443-2.733.807-4.7.877-8.932.213-12.937zm-5.675 2.6c-.465.413-.912.811-1.363 1.194.197.684.361 1.369.491 2.052.054.285-.054.577-.283.756-.23.179-.538.215-.802.092-.699-.324-1.327-.661-1.911-1.016-.584.355-1.212.692-1.911 1.016-.264.123-.573.087-.802-.092s-.338-.471-.283-.756c.13-.683.294-1.367.491-2.052-.451-.383-.898-.781-1.363-1.194-.227-.202-.315-.517-.226-.807.09-.29.34-.501.641-.539.701-.09 1.323-.157 1.908-.201.258-.623.543-1.244.854-1.861.132-.261.4-.446.691-.425.292-.021.559.164.691.425.31.617.596 1.238.854 1.861.585.043 1.208.11 1.908.201.301.038.551.25.641.539.09.29.001.605-.226.807z"/></svg>