<svg id="Layer_1" viewBox="0 0 24 24" xmlns="http://www.w3.org/2000/svg" data-name="Layer 1"><path d="m9.885 4.091c1.608.065 3.057.148 3.833.196 1.926.119 3.396 1.784 3.276 3.71-.114 1.841-1.648 3.283-3.492 3.283-.691-.027-1.4-.083-2.501-.133v2.755c.876.058 1.866.098 3 .098 4.884 0 7.372-.696 7.476-.726.301-.086.544-.308.657-.6.036-.091.868-2.27.868-5.174s-.832-5.083-.868-5.174c-.113-.292-.356-.514-.657-.6-.104-.03-2.592-.726-7.476-.726-1.749 0-3.178.091-4.313.207.201.518.313 1.113.313 1.793 0 .393-.047.751-.115 1.091zm8.063 5.91c.693-.035.817-.029 1.459-.1.537-.064 1.043.335 1.103.884.061.549-.335 1.043-.884 1.104-.683.076-.84.073-1.576.11-.547.03-1.023-.396-1.05-.948s.396-1.021.948-1.049zm1.052 4.999c1.429 0 2 .571 2 2s-.571 2-2 2-2-.571-2-2 .571-2 2-2zm3.862 6.493c.182.31.184.692.006 1.004-.179.311-.51.503-.868.503h-20c-.358 0-.689-.191-.868-.503-.178-.311-.176-.693.005-1.003.462-.788 1.312-1.313 2.272-1.405 1.206-.117 2.472-.117 3.681 0 .525.05 1.017.23 1.43.512.437-.283.957-.463 1.511-.513 1.29-.117 2.643-.117 3.936 0 .555.05 1.074.229 1.512.513.413-.281.905-.462 1.43-.512 1.209-.117 2.475-.117 3.682 0 .959.092 1.809.617 2.271 1.404zm-17.862-6.493c1.429 0 2 .571 2 2s-.571 2-2 2-2-.571-2-2 .571-2 2-2zm7 0c1.429 0 2 .571 2 2s-.571 2-2 2-2-.571-2-2 .571-2 2-2zm-10.672.176c-.139-.795-.328-2.155-.328-3.676 0-2.363.479-3.923.5-4 .162-.619.602-1.159 1.296-1.247.846-.116 2.088-.253 3.204-.253 2.745 0 6.225.198 7.593.283.827.051 1.455.763 1.404 1.59-.049.795-.71 1.407-1.496 1.407-.956-.051-2.602-.155-4.501-.22v5.045c-.198.208-.36.449-.5.711-.622-1.17-1.818-1.817-3.5-1.817-1.848 0-3.113.779-3.672 2.176zm2.672-12.176c0-1.429.571-2 2-2s2 .571 2 2-.571 2-2 2-2-.571-2-2z"/></svg>