<svg id="Layer_1" viewBox="0 0 24 24" xmlns="http://www.w3.org/2000/svg" data-name="Layer 1"><path d="m12 15c.994 0 1.915.049 2.737.146.426.05.761.414.763.881 0 .136-.002.453-1.042.903-.492.212-1.563.57-2.458.57s-1.966-.358-2.457-.57c-1.041-.45-1.042-.768-1.043-.956.002-.414.337-.778.763-.828.822-.097 1.743-.146 2.737-.146zm10.942 4.889c.227.797-.235 1.625-1.032 1.852-.181.052-4.488 1.26-9.91 1.26s-9.729-1.208-9.91-1.26c-.797-.227-1.259-1.055-1.032-1.852.192-.675.817-1.102 1.486-1.084-.277-1.554-.544-3.812-.544-6.804s.267-5.251.544-6.805c-.67.017-1.295-.409-1.486-1.084-.227-.797.235-1.625 1.032-1.852.181-.052 4.488-1.26 9.91-1.26s9.729 1.208 9.91 1.26c.797.227 1.259 1.055 1.032 1.852-.188.66-.789 1.091-1.442 1.091-.015 0-.029-.006-.044-.006.277 1.554.544 3.812.544 6.804s-.267 5.25-.544 6.804c.668-.018 1.295.409 1.486 1.085zm-4.948-14.257c-.062-.549-.551-.941-1.104-.885-3.061.336-6.721.336-9.781 0-.556-.058-1.043.336-1.104.885-.061.55.336 1.043.885 1.104 1.297.142 2.685.212 4.109.239v2c-.995-.025-1.979-.075-2.891-.175-.556-.059-1.043.336-1.104.885-.061.55.336 1.043.885 1.104.984.108 2.034.162 3.109.188v2.052c-.689.023-1.364.061-1.97.132-1.437.169-2.524 1.375-2.53 2.875.008 1.762 1.695 2.491 2.251 2.731.284.123 1.777.734 3.249.734s2.965-.611 3.25-.734c.555-.24 2.242-.97 2.25-2.8-.006-1.432-1.094-2.638-2.53-2.807-.606-.071-1.281-.109-1.97-.132v-2.052c1.076-.026 2.126-.08 3.109-.188.549-.061.945-.554.885-1.104-.061-.549-.551-.942-1.104-.885-.911.1-1.895.15-2.891.175v-2c1.424-.027 2.812-.097 4.109-.239.549-.061.945-.554.885-1.104z"/></svg>