<svg id="Layer_1" viewBox="0 0 24 24" xmlns="http://www.w3.org/2000/svg" data-name="Layer 1"><path d="m20.801 20.753c-.107-.188-2.679-4.643-6.846-10.142-.015-.02-.03-.039-.045-.059 3.475-4.244 6.531-6.884 6.566-6.914.628-.54.701-1.486.162-2.115s-1.485-.701-2.114-.163c-.144.124-3.066 2.642-6.524 6.792-3.459-4.149-6.38-6.668-6.524-6.791-.628-.538-1.577-.465-2.114.163-.539.629-.467 1.576.163 2.115.034.03 3.082 2.658 6.566 6.913-.015.02-.03.039-.045.059-4.167 5.499-6.738 9.954-6.846 10.142-.412.718-.163 1.632.554 2.048.921.534 1.771-.07 2.048-.554.024-.042 2.408-4.169 6.199-9.245 3.792 5.076 6.175 9.203 6.199 9.245.277.483 1.091 1.07 2.048.554.73-.393.966-1.33.554-2.048z"/></svg>