<svg id="Layer_1" viewBox="0 0 24 24" xmlns="http://www.w3.org/2000/svg" data-name="Layer 1"><path d="m12.306 23c-5.133 0-8.508-2.251-8.649-2.347-.37-.252-.609-.655-.651-1.102-.042-.445.118-.887.436-1.203l13.566-13.502c-1.057-.42-2.638-.846-4.702-.846-3.495 0-5.839 1.528-5.862 1.544-.685.467-1.619.289-2.084-.396-.466-.685-.289-1.618.396-2.084.124-.084 3.084-2.063 7.549-2.063 5.171 0 8.01 2.214 8.128 2.309.334.266.54.663.563 1.09.024.428-.136.845-.439 1.146l-13.519 13.456c1.224.483 3.048.998 5.268.998 3.712 0 6.293-1.795 6.319-1.812.677-.479 1.612-.317 2.091.358.478.677.317 1.613-.359 2.091-.136.097-3.396 2.363-8.051 2.363z"/></svg>