<svg id="Layer_1" viewBox="0 0 24 24" xmlns="http://www.w3.org/2000/svg"><path d="m14.778 6.983c-.082.416-.231.968-1.677.895.007-.718.076-1.303.135-1.677 1.468-.013 1.569.394 1.542.782zm2.113 10.29c-.123.916-.295 2.772-.203 5.511l5.742-5.742c-2.305-.126-4.47.092-5.539.232zm6.109-5.273c0 .949-.06 1.987-.148 3.062-3.597-.241-6.859.318-7.003.343-.399.07-.716.374-.804.77-.021.095-.503 2.359-.355 6.709-.94.069-1.85.116-2.69.116-4.501 0-9.024-.981-9.214-1.023-.381-.083-.679-.381-.762-.762-.042-.19-1.023-4.713-1.023-9.214s.98-9.025 1.022-9.215c.083-.381.381-.679.762-.762.19-.042 4.713-1.023 9.214-1.023s9.024.981 9.214 1.023c.381.083.679.381.762.762.042.19 1.023 4.713 1.023 9.214zm-16.665-2.137 2.217-3.716c.166-.277.082-.636-.189-.812-.065-.042-.666-.414-1.564-.43-.92.003-1.511.335-1.578.376-.282.168-.373.531-.207.815.165.283.531.38.818.217.004-.002.389-.239.946-.208.138.002.265.018.377.041l-2.217 3.716c-.166.277-.082.636.189.812.065.042.666.414 1.563.43.816.03 1.541-.34 1.579-.376.282-.169.373-.532.207-.816-.167-.284-.532-.38-.818-.217-.004.002-.382.231-.945.208-.138-.002-.265-.018-.377-.041zm4.265-1.863c0-1.338.22-2.246.223-2.255.079-.321-.117-.646-.438-.727-.317-.076-.646.115-.727.437-.011.042-.258 1.049-.258 2.545s.248 2.503.258 2.545c.079.324.414.516.727.437.321-.08.517-.405.438-.727-.002-.009-.223-.917-.223-2.255zm5.378-1.017c0-1.972-1.964-1.979-2.706-1.982-.16 0-.42-.007-.571 0-.292.016-.522.239-.559.52-.056.251-.242 1.18-.242 2.478 0 1.496.247 2.502.258 2.544.079.324.414.516.727.437.321-.08.517-.405.438-.727-.002-.006-.109-.451-.174-1.175 2.252.049 2.861-1.124 2.83-2.096z"/></svg>