<svg id="Layer_1" viewBox="0 0 24 24" xmlns="http://www.w3.org/2000/svg" data-name="Layer 1"><g opacity=".5"><path d="m0 8v10c0 2.757 2.243 5 5 5h14c2.757 0 5-2.243 5-5v-10l-12-1z"/></g><path d="m18 14h-12c-.553 0-1-.448-1-1s.447-1 1-1h12c.553 0 1 .448 1 1s-.447 1-1 1z"/><path d="m14 18h-8c-.553 0-1-.448-1-1s.447-1 1-1h8c.553 0 1 .448 1 1s-.447 1-1 1z"/><path d="m19 1h-14c-2.757 0-5 2.243-5 5v2h24v-2c0-2.757-2.243-5-5-5zm-15 5c-.552 0-1-.448-1-1s.448-1 1-1 1 .448 1 1-.448 1-1 1zm3 0c-.552 0-1-.448-1-1s.448-1 1-1 1 .448 1 1-.448 1-1 1zm3 0c-.552 0-1-.448-1-1s.448-1 1-1 1 .448 1 1-.448 1-1 1z"/></svg>