<svg id="Layer_1" viewBox="0 0 24 24" xmlns="http://www.w3.org/2000/svg" data-name="Layer 1"><path d="m20.692 8.376c-.727-4.202-4.365-7.301-8.692-7.301s-7.965 3.099-8.692 7.301c-1.13.47-1.897 1.581-1.897 2.846 0 1.634 1.276 2.975 2.883 3.081 1.241 2.704 4.294 5.303 7.705 5.303s6.465-2.599 7.705-5.303c1.607-.106 2.883-1.448 2.883-3.081 0-1.265-.767-2.376-1.897-2.846z" opacity=".5"/><g><path d="m24 11.5c0-1.434-.869-2.692-2.149-3.226-.825-4.761-4.947-8.274-9.851-8.274s-9.026 3.513-9.851 8.274c-1.28.533-2.149 1.792-2.149 3.226 0 1.852 1.446 3.372 3.268 3.492.475 1.036 1.19 2.056 2.071 2.955-1.25 1.372-2.037 3.064-2.271 4.928-.036.285.053.571.242.786.189.216.463.339.75.339h15.859c.287 0 .56-.123.75-.338.189-.216.278-.502.242-.786-.233-1.858-1.015-3.546-2.261-4.918.886-.902 1.605-1.926 2.082-2.966 1.821-.12 3.268-1.641 3.268-3.492zm-3.752 1.473c-.485-.09-.954.19-1.117.651-.916 2.598-4.001 5.378-7.131 5.378s-6.215-2.78-7.131-5.378c-.163-.461-.635-.741-1.117-.651-.082.014-.166.027-.252.027-.827 0-1.5-.673-1.5-1.5 0-.723.518-1.342 1.23-1.472.437-.079.77-.437.815-.878.308-2.913 2.146-5.307 4.665-6.44-.497 1.268-.236 2.765.789 3.79 1.381 1.381 3.619 1.381 5 0 1.025-1.025 1.285-2.521.789-3.79 2.52 1.133 4.358 3.527 4.665 6.44.046.441.379.799.815.878.713.13 1.23.749 1.23 1.472 0 .827-.673 1.5-1.5 1.5-.086 0-.17-.014-.252-.027z"/><circle cx="9.5" cy="11.5" r="1.5"/><circle cx="14.5" cy="11.5" r="1.5"/></g></svg>