<svg id="Layer_1" viewBox="0 0 24 24" xmlns="http://www.w3.org/2000/svg" data-name="Layer 1"><path d="m17.339 7.518c-.658-3.719-3.831-6.518-7.57-6.518-4.247 0-7.702 3.565-7.702 7.948 0 1.354.338 2.683.967 3.855-1.8.854-3.035 2.734-3.035 4.846 0 2.95 2.331 5.351 5.197 5.351h11.275c4.151 0 7.528-3.484 7.528-7.767 0-3.98-2.917-7.27-6.661-7.715z" opacity=".5"/><path d="m18.746 17.334c-.367-.414-1.001-.447-1.411-.081l-1.335 1.192v-7.445c0-.552-.447-1-1-1s-1 .448-1 1v7.444l-1.335-1.19c-.41-.366-1.043-.333-1.411.081-.368.412-.332 1.044.081 1.412l1.544 1.375c.59.59 1.366.882 2.136.882.756 0 1.506-.283 2.064-.843l1.586-1.414c.413-.368.449-1 .081-1.412z"/></svg>