<svg id="Layer_1" viewBox="0 0 24 24" xmlns="http://www.w3.org/2000/svg" data-name="Layer 1"><path d="m19 5h-3l-1.005-.862-.995.862h-4l-1.069-.862-.931.862h-3c-2.757 0-5 2.243-5 5v8c0 2.757 2.243 5 5 5h14c2.757 0 5-2.243 5-5v-8c0-2.757-2.243-5-5-5z" opacity=".5"/><path d="m10 4c0-.551.448-1 1-1h2c.552 0 1 .449 1 1v1h2v-1c0-1.654-1.346-3-3-3h-2c-1.654 0-3 1.346-3 3v1h2z"/><path d="m15 13h-2v-2c0-.552-.447-1-1-1s-1 .448-1 1v2h-2c-.553 0-1 .448-1 1s.447 1 1 1h2v2c0 .552.447 1 1 1s1-.448 1-1v-2h2c.553 0 1-.448 1-1s-.447-1-1-1z"/></svg>