<svg id="Layer_1" viewBox="0 0 24 24" xmlns="http://www.w3.org/2000/svg" data-name="Layer 1"><path d="m12 .024c-.161-.011-.322-.024-.485-.024h-4.515c-2.757 0-5 2.243-5 5v14c0 2.757 2.243 5 5 5h10c2.757 0 5-2.243 5-5v-8.515c0-.163-.013-.324-.024-.485z" opacity=".5"/><path d="m14 19c0-.552-.447-1-1-1h-5c-.552 0-1 .448-1 1s.448 1 1 1h5c.553 0 1-.448 1-1z"/><path d="m17 15c0-.552-.447-1-1-1h-8c-.552 0-1 .448-1 1s.448 1 1 1h8c.553 0 1-.448 1-1z"/><path d="m21.54 8c-.347-.913-.879-1.753-1.591-2.464l-3.485-3.485c-.712-.711-1.551-1.244-2.464-1.591-.636-.242-1.308-.389-2-.436v6.976c0 1.654 1.346 3 3 3h6.976c-.047-.692-.195-1.364-.436-2z"/></svg>