<svg id="Layer_1" viewBox="0 0 24 24" xmlns="http://www.w3.org/2000/svg" data-name="Layer 1"><g opacity=".5"><path d="m23.24.435c-.481-.382-1.099-.522-1.696-.383-1.804.419-3.25 1.73-4.144 3.73-1.161-.312-3.266-.782-5.4-.782s-4.24.47-5.401.782c-.894-1.999-2.34-3.31-4.143-3.729-.595-.139-1.216 0-1.696.382-.484.384-.76.956-.76 1.572v7.852c0 2.938 1.144 5.701 3.222 7.778l4.656 4.657c1.102 1.101 2.565 1.707 4.122 1.707s3.02-.606 4.121-1.707l4.656-4.657c2.078-2.078 3.223-4.84 3.223-7.778v-7.852c0-.615-.277-1.188-.76-1.571z"/></g><path d="m22.89 8.007c-.099.011-9.89 1.212-9.89 10.994v.184c-.314-.112-.648-.184-1-.184s-.685.072-1 .184v-.184c0-9.782-9.791-10.984-9.89-10.994-.544-.068-1.041.333-1.103.881-.062.548.332 1.043.88 1.106.136.016 1.524.201 3.112.951v.056s.469 2.757 3.601 2.978c.829 1.252 1.4 2.878 1.4 5.021v2.771c0 .027.013.049.015.075-.003.052-.016.101-.016.154 0 .552.448 1 1 1h4c.552 0 1-.448 1-1 0-.052-.013-.1-.015-.151.002-.027.016-.05.016-.078v-2.771c0-2.144.571-3.77 1.4-5.021 3.131-.222 3.6-2.978 3.6-2.978v-.055c1.586-.749 2.972-.935 3.113-.952.548-.062.942-.556.882-1.104-.061-.548-.547-.951-1.104-.883z"/></svg>