<svg id="Layer_1" viewBox="0 0 24 24" xmlns="http://www.w3.org/2000/svg" data-name="Layer 1"><path d="m12 15c-1.119 0-2.129.464-2.855 1.207.202.299-.347 1.374-.347 1.374s1.202.773 1.202 1.419c0-1.103.897-2 2-2s2 .897 2 2c0-.627.907-1.263.907-1.263s-.264-1.217-.052-1.531c-.727-.742-1.736-1.207-2.855-1.207z" opacity=".5"/><path d="m2 15.026v-11.026c0-1.103.897-2 2-2s2 .897 2 2c0 .552.448 1 1 1s1-.448 1-1c0-2.206-1.795-4-4-4s-4 1.794-4 4v15c1.24 0 2.006-1.527 2-3.974z" opacity=".5"/><path d="m20 0c-2.206 0-4 1.794-4 4 0 .552.447 1 1 1s1-.448 1-1c0-1.103.897-2 2-2s2 .897 2 2v11.026c.016 2.208-.128 2.831 2 3.974v-15c0-2.206-1.794-4-4-4z" opacity=".5"/><path d="m9.145 16.207c-.899-1.33-2.422-2.207-4.145-2.207-1.13 0-2.162.391-3 1.026-1.207.913-2 2.347-2 3.974 0 2.757 2.243 5 5 5s5-2.243 5-5c0-1.034-.315-1.995-.855-2.793z"/><path d="m22 15.026c-.838-.635-1.87-1.026-3-1.026-1.723 0-3.245.876-4.145 2.207-.54.798-.855 1.76-.855 2.793 0 2.757 2.243 5 5 5s5-2.243 5-5c0-1.627-.793-3.061-2-3.974z"/></svg>