<svg id="Layer_1" viewBox="0 0 24 24" xmlns="http://www.w3.org/2000/svg" data-name="Layer 1"><path d="m22.606 13.383c-.456-.312-1.078-.196-1.391.26-1.869 2.729-4.956 4.357-8.257 4.357-5.514 0-10-4.486-10-10 0-2.319.812-4.579 2.285-6.364.352-.426.292-1.056-.134-1.408-.426-.351-1.056-.291-1.408.134-1.768 2.143-2.742 4.855-2.742 7.638 0 6.279 4.851 11.438 11 11.949v2.051h-4c-.552 0-1 .448-1 1s.448 1 1 1h10c.553 0 1-.448 1-1s-.447-1-1-1h-4v-2.061c3.576-.3 6.856-2.171 8.907-5.165.312-.456.195-1.078-.26-1.391z" opacity=".5"/><circle cx="12.959" cy="8" r="8"/></svg>