<svg id="Layer_1" viewBox="0 0 24 24" xmlns="http://www.w3.org/2000/svg" data-name="Layer 1"><path d="m22.057 5.241-7.374-3.513c-1.629-.978-3.735-.979-5.282-.045l-7.458 3.558c-.029.014-.057.029-.084.045-1.164.7-1.859 1.898-1.859 3.206s.695 2.505 1.943 3.25l2.057.98 4.66 3.194c.825.495 2.406 1.291 3.34 1.291.912 0 2.726-1.021 3.489-1.482l4.511-3.005 2.141-1.023c1.164-.699 1.859-1.897 1.859-3.205s-.695-2.506-1.943-3.25z" opacity=".5"/><path d="m12 17.205-8-3.46v3.881c0 2.189 1.447 4.153 3.518 4.778 1.337.403 2.845.607 4.482.607s3.145-.204 4.481-.607c2.072-.625 3.519-2.589 3.519-4.778v-4.073z" opacity=".5"/><path d="m23 21.011c-.552 0-1-.448-1-1v-12c0-.552.448-1 1-1s1 .448 1 1v12c0 .552-.448 1-1 1z"/><path d="m12.022 15.994c-.935 0-1.881-.245-2.706-.74l-5.317-2.533v2.21l4.377 2.091c1.096.636 2.354.972 3.646.972 1.26 0 2.475-.321 3.519-.929l4.459-2.13v-2.216l-5.401 2.58c-.764.461-1.664.695-2.576.695z"/></svg>