<svg id="Layer_1" viewBox="0 0 24 24" xmlns="http://www.w3.org/2000/svg" data-name="Layer 1"><circle cx="12" cy="12" opacity=".5" r="12"/><path d="m8 8c1.105 0 2 .895 2 2 0 1-.895 1-2 1s-2 0-2-1c0-1.105.895-2 2-2z"/><path d="m17.666 15.746c-.103.092-2.559 2.254-5.666 2.254s-5.563-2.162-5.666-2.254c-.412-.368-.448-1-.08-1.412.367-.412 1-.448 1.412-.08.018.016 2.003 1.746 4.334 1.746s4.316-1.73 4.336-1.748c.414-.365 1.045-.327 1.411.084.366.412.331 1.042-.081 1.409z"/><path d="m16 11c-1.105 0-2 0-2-1 0-1.105.895-2 2-2s2 .895 2 2c0 1-.895 1-2 1z"/></svg>