<svg id="Layer_1" viewBox="0 0 24 24" xmlns="http://www.w3.org/2000/svg" data-name="Layer 1"><path d="m15.989 12.703v-2.703c0-.552.448-1 1-1h1c.552 0 1-.448 1-1v-1c0-.552.448-1 1-1h2.685c.397 0 .757-.235.922-.597.332-.728.469-1.541.376-2.378-.193-1.745-1.75-3.025-3.506-3.025-1.203 0-2.357.478-3.208 1.329l-7.908 7.907c-1.281-.332-2.582-.315-3.881.047-2.937.824-5.118 3.407-5.429 6.427-.232 2.269.554 4.49 2.157 6.093 1.417 1.417 3.317 2.196 5.308 2.196.26 0 .522-.013.784-.041 3.021-.31 5.604-2.491 6.428-5.429.364-1.296.38-2.599.047-3.88l.65-.65c.35-.35.546-.808.575-1.297zm-10.489 7.297c-.828 0-1.5-.672-1.5-1.5s.672-1.5 1.5-1.5 1.5.672 1.5 1.5-.672 1.5-1.5 1.5z" opacity=".5"/></svg>