<svg id="Layer_1" viewBox="0 0 24 24" xmlns="http://www.w3.org/2000/svg" data-name="Layer 1"><path d="m12 4c-.553 0-1-.447-1-1v-2c0-.553.447-1 1-1s1 .447 1 1v2c0 .553-.447 1-1 1z" opacity=".5"/><path d="m13 23v-2c0-.553-.447-1-1-1s-1 .447-1 1v2c0 .553.447 1 1 1s1-.447 1-1z" opacity=".5"/><path d="m4 12c0-.553-.447-1-1-1h-2c-.553 0-1 .447-1 1s.447 1 1 1h2c.553 0 1-.447 1-1z" opacity=".5"/><path d="m24 12c0-.553-.447-1-1-1h-2c-.553 0-1 .447-1 1s.447 1 1 1h2c.553 0 1-.447 1-1z" opacity=".5"/><path d="m17.379 4.715 1.003-1.73c.277-.478.114-1.089-.364-1.366-.478-.279-1.09-.114-1.366.364l-1.003 1.73c-.277.478-.114 1.089.364 1.366.157.092.33.135.5.135.345 0 .681-.179.866-.499z" opacity=".5"/><path d="m7.349 22.018 1.003-1.73c.277-.478.114-1.089-.364-1.366-.477-.279-1.09-.114-1.366.364l-1.003 1.73c-.277.478-.114 1.089.364 1.366.157.092.33.135.5.135.345 0 .681-.179.866-.499z" opacity=".5"/><path d="m5.079 7.987c.277-.478.114-1.089-.364-1.366l-1.73-1.003c-.477-.279-1.089-.114-1.366.364s-.114 1.089.364 1.366l1.73 1.003c.157.092.33.135.5.135.345 0 .681-.179.866-.499z" opacity=".5"/><path d="m22.382 18.018c.277-.478.114-1.089-.364-1.366l-1.73-1.003c-.477-.278-1.089-.115-1.366.364-.277.478-.114 1.089.364 1.366l1.73 1.003c.157.092.33.135.5.135.345 0 .681-.179.866-.499z" opacity=".5"/><path d="m7.987 5.079c.479-.277.642-.889.364-1.366l-1.003-1.73c-.277-.478-.89-.643-1.366-.364-.479.277-.642.889-.364 1.366l1.003 1.73c.186.32.521.499.866.499.17 0 .343-.043.5-.135z" opacity=".5"/><path d="m18.018 22.382c.479-.277.642-.889.364-1.366l-1.003-1.73c-.276-.478-.889-.642-1.366-.364-.479.277-.642.889-.364 1.366l1.003 1.73c.186.32.521.499.866.499.17 0 .343-.043.5-.135z" opacity=".5"/><path d="m20.287 8.352 1.73-1.003c.479-.277.642-.889.364-1.366-.276-.478-.889-.642-1.366-.364l-1.73 1.003c-.479.277-.642.889-.364 1.366.186.32.521.499.866.499.17 0 .343-.043.5-.135z" opacity=".5"/><path d="m2.984 18.382 1.73-1.003c.479-.277.642-.889.364-1.366-.276-.479-.889-.641-1.366-.364l-1.73 1.003c-.479.277-.642.889-.364 1.366.186.32.521.499.866.499.17 0 .343-.043.5-.135z" opacity=".5"/></svg>