<svg id="Layer_1" viewBox="0 0 24 24" xmlns="http://www.w3.org/2000/svg" data-name="Layer 1"><path d="m12 16c-2.39 0-4.533-1.059-6-2.726v8.223c0 .97.543 1.833 1.417 2.253.349.167.72.25 1.088.25.554 0 1.102-.187 1.557-.551l1.626-1.3c.184-.147.441-.147.625 0l1.625 1.301c.759.605 1.771.722 2.646.301.874-.42 1.417-1.283 1.417-2.253v-8.225c-1.467 1.667-3.61 2.726-6 2.726z"/><path d="m12 0c-4.411 0-8 3.589-8 8 0 2.021.759 3.864 2 5.274 1.467 1.667 3.61 5.363 6 5.363s4.533-3.696 6-5.363c1.241-1.41 2-3.253 2-5.274 0-4.411-3.589-8-8-8z" opacity=".5"/></svg>