<svg id="Layer_1" viewBox="0 0 24 24" xmlns="http://www.w3.org/2000/svg" data-name="Layer 1"><circle cx="19.989" cy="3.5" r="3"/><path d="m23.693 19.764-4.433-7.954c-.45-.809-1.312-1.31-2.248-1.31s-1.799.501-2.25 1.31l-4.434 7.958c-.435.779-.424 1.702.027 2.471.464.789 1.295 1.261 2.222 1.261h8.863c.929 0 1.76-.472 2.225-1.262.451-.77.462-1.694.027-2.474z"/><path d="m15.503 10.986-2.569-4.73c-.595-1.1-1.694-1.756-2.942-1.756s-2.349.656-2.943 1.756l-6.653 12.299c-.567 1.049-.541 2.286.069 3.311.609 1.023 1.684 1.634 2.874 1.634h9.239s3.919-4.372 3.9-4.649l-.976-7.865z" opacity=".5"/></svg>