<svg id="Layer_1" viewBox="0 0 24 24" xmlns="http://www.w3.org/2000/svg" data-name="Layer 1"><g opacity=".5"><path d="m23 22h-9c-.553 0-1-.448-1-1s.447-1 1-1h9c.553 0 1 .448 1 1s-.447 1-1 1z"/></g><g opacity=".5"><path d="m10 22h-9c-.553 0-1-.448-1-1s.447-1 1-1h9c.553 0 1 .448 1 1s-.447 1-1 1z"/></g><g opacity=".5"><path d="m12 20c-.553 0-1-.448-1-1v-6c0-.552.447-1 1-1s1 .448 1 1v6c0 .552-.447 1-1 1z"/></g><circle cx="12" cy="21" r="3"/><path d="m17.306 4.172-.176-.042c-.3-.068-.451-.102-.588-.429-1.053-2.54-3.701-4.037-6.438-3.636-2.378.347-4.358 2.152-4.929 4.492-.219.896-.233 1.799-.058 2.732-1.607.689-2.446 2.432-1.995 4.143.309 1.176 1.268 2.135 2.444 2.445.276.073.557.113.835.121.653.018 2.549.026 4.521.026 2.109 0 4.308-.009 5.173-.025.354-.007.712-.051 1.064-.132 1.831-.417 3.285-1.868 3.705-3.696.61-2.66-.954-5.295-3.561-5.999z"/></svg>