<svg id="Layer_1" viewBox="0 0 24 24" xmlns="http://www.w3.org/2000/svg" data-name="Layer 1"><path d="m14.707 7.293c-.391-.391-1.023-.391-1.414 0l-1.293 1.293-1.293-1.293c-.391-.391-1.023-.391-1.414 0s-.391 1.023 0 1.414l1.293 1.293-1.293 1.293c-.391.391-.391 1.023 0 1.414.195.195.451.293.707.293s.512-.098.707-.293l1.293-1.293 1.293 1.293c.195.195.451.293.707.293s.512-.098.707-.293c.391-.391.391-1.023 0-1.414l-1.293-1.293 1.293-1.293c.391-.391.391-1.023 0-1.414z" opacity=".5"/><path d="m21.414 10 1.293-1.293c.391-.391.391-1.023 0-1.414s-1.023-.391-1.414 0l-1.293 1.293-1.293-1.293c-.391-.391-1.023-.391-1.414 0s-.391 1.023 0 1.414l1.293 1.293-1.293 1.293c-.391.391-.391 1.023 0 1.414.195.195.451.293.707.293s.512-.098.707-.293l1.293-1.293 1.293 1.293c.195.195.451.293.707.293s.512-.098.707-.293c.391-.391.391-1.023 0-1.414z" opacity=".5"/><path d="m6.707 7.293c-.391-.391-1.023-.391-1.414 0l-1.293 1.293-1.293-1.293c-.391-.391-1.023-.391-1.414 0s-.391 1.023 0 1.414l1.293 1.293-1.293 1.293c-.391.391-.391 1.023 0 1.414.195.195.451.293.707.293s.512-.098.707-.293l1.293-1.293 1.293 1.293c.195.195.451.293.707.293s.512-.098.707-.293c.391-.391.391-1.023 0-1.414l-1.293-1.293 1.293-1.293c.391-.391.391-1.023 0-1.414z" opacity=".5"/><path d="m15 17c0 .553-.448 1-1 1h-4c-.552 0-1-.447-1-1s.448-1 1-1h4c.552 0 1 .447 1 1z"/><path d="m22 16h-4c-.552 0-1 .447-1 1s.448 1 1 1h4c.552 0 1-.447 1-1s-.448-1-1-1z"/><path d="m6 16h-4c-.552 0-1 .447-1 1s.448 1 1 1h4c.552 0 1-.447 1-1s-.448-1-1-1z"/></svg>