<svg id="Layer_1" viewBox="0 0 24 24" xmlns="http://www.w3.org/2000/svg" data-name="Layer 1"><path d="m8.164 8c-.555 0-1.096-.203-1.579-.594-.843-.683-1.425-1.902-1.557-3.262-.243-2.493 1.117-3.963 2.586-4.127.704-.082 1.41.131 1.981.594.766.621 1.254 1.65 1.376 2.897.228 2.326-1.009 4.492-2.807 4.492z"/><path d="m2.853 14c-.5 0-.988-.203-1.423-.594-.76-.683-1.285-1.902-1.404-3.261-.219-2.493 1.007-3.964 2.331-4.128.632-.082 1.271.131 1.786.594.69.621 1.131 1.65 1.241 2.897.205 2.326-1.025 4.492-2.531 4.492z"/><path d="m15.836 8c-1.811 0-3.035-2.167-2.807-4.492.122-1.248.61-2.277 1.376-2.897.57-.462 1.273-.674 1.981-.594 1.469.164 2.829 1.635 2.585 4.128-.132 1.359-.714 2.579-1.557 3.262-.483.391-1.023.594-1.578.594z"/><path d="m21.053 14c-1.886 0-2.827-2.167-2.615-4.492.113-1.248.569-2.277 1.282-2.897.531-.462 1.186-.676 1.846-.594 1.368.164 2.635 1.635 2.409 4.128-.123 1.359-.666 2.579-1.451 3.262-.45.391-.953.594-1.47.594z"/><g opacity=".5"><path d="m16 24c-1.236 0-1.908-.336-2.447-.605-.712-.512-2.393-.512-3.105 0-3.014 1.688-6.526-.168-6.447-4.395 0-4.636 4.507-9 8-9s8 4.364 8 9c0 2.944-1.645 5-4 5z"/></g></svg>