<svg id="Layer_1" viewBox="0 0 24 24" xmlns="http://www.w3.org/2000/svg" data-name="Layer 1"><g opacity=".5"><path d="m19 1h-14c-2.757 0-5 2.243-5 5v8c0 2.757 2.243 5 5 5h6l1 1.255 1-1.255h6c2.757 0 5-2.243 5-5v-8c0-2.757-2.243-5-5-5z"/></g><path d="m11 21h-4c-.553 0-1 .448-1 1s.447 1 1 1h10c.553 0 1-.448 1-1s-.447-1-1-1h-4v-2h-2z"/><path d="m13.5 14c-.021 0-.041 0-.062-.002-.355-.022-.673-.232-.832-.551l-2.229-4.459-1.044 1.566c-.186.278-.498.445-.832.445h-3.5c-.553 0-1-.448-1-1s.447-1 1-1h2.965l1.703-2.555c.198-.296.521-.473.895-.443.355.022.673.232.832.551l2.229 4.459 1.044-1.566c.186-.278.498-.445.832-.445h3.5c.553 0 1 .448 1 1s-.447 1-1 1h-2.965l-1.703 2.555c-.187.279-.499.445-.832.445z"/></svg>