<svg id="Layer_1" viewBox="0 0 24 24" xmlns="http://www.w3.org/2000/svg" data-name="Layer 1"><g opacity=".5"><path d="m13 24c-3.309 0-6-2.691-6-6 0-1.56 1.195-4.045 3.552-7.388 1.114-1.673 3.782-1.673 4.896 0 2.356 3.343 3.552 5.828 3.552 7.388 0 3.309-2.691 6-6 6z"/></g><g opacity=".5"><path d="m5 10.998c-2.757 0-5-2.243-5-5 0-1.26.842-2.855 2.574-4.877 1.206-1.481 3.646-1.481 4.852 0 1.732 2.021 2.574 3.616 2.574 4.876 0 2.757-2.243 5-5 5z"/></g><g opacity=".5"><path d="m19.5 9.964c-2.481 0-4.5-2.019-4.5-4.5 0-1.091.702-2.506 2.146-4.326 1.129-1.503 3.579-1.503 4.707 0 1.444 1.819 2.146 3.234 2.146 4.325 0 2.481-2.019 4.5-4.5 4.5z"/></g></svg>