<svg id="Layer_1" viewBox="0 0 24 24" xmlns="http://www.w3.org/2000/svg" data-name="Layer 1"><path d="m10.357 2.921-1.416 2.301c-.29.47-.904.617-1.376.328-.47-.289-.616-.905-.327-1.375l1.416-2.301c1.411-2.47 5.28-2.469 6.691 0l4.205 6.835.441-2.366c.102-.543.613-.906 1.167-.8.543.101.9.624.8 1.166l-.498 2.67c-.148.794-.598 1.48-1.266 1.933-.669.454-1.48.616-2.264.46l-2.63-.518c-1.284-.258-.895-2.211.387-1.962l2.133.42-4.177-6.791c-.692-1.218-2.593-1.218-3.285 0z" opacity=".5"/><path d="m23.409 14.98-.968-1.573c-.289-.471-.904-.617-1.376-.328-.47.29-.616.905-.327 1.375l.968 1.573c.376.612.392 1.353.041 1.98-.348.621-.978.992-1.685.992h-7.387l1.271-1.269c.923-.928-.484-2.335-1.412-1.416l-1.692 1.688c-.521.521-.818 1.209-.841 1.942v.009c0 .009 0 .018-.001.026v.016.01c-.008.777.304 1.533.858 2.078l1.682 1.652c.395.387 1.027.381 1.415-.013.387-.394.381-1.027-.013-1.414l-1.334-1.31h7.454c1.442 0 2.725-.753 3.43-2.016.71-1.269.679-2.766-.083-4.004z" opacity=".5"/><path d="m8.047 9.146c-.148-.793-.598-1.48-1.267-1.933-.667-.452-1.471-.616-2.264-.46l-2.629.518c-.542.106-.895.632-.788 1.174s.634.895 1.175.788l2.107-.415-3.79 6.162c-.762 1.238-.793 2.735-.083 4.004.705 1.262 1.987 2.016 3.43 2.016h3.143c1.308-.006 1.307-1.995 0-2h-3.144c-.707 0-1.337-.371-1.685-.992-.351-.627-.335-1.368.041-1.98l3.838-6.238.446 2.394c.099.546.637.902 1.167.799.543-.101.9-.624.8-1.167l-.498-2.67z" opacity=".5"/></svg>