<svg id="Layer_1" viewBox="0 0 24 24" xmlns="http://www.w3.org/2000/svg" data-name="Layer 1"><path d="m20 12h-1l-1.213-1 1.213-1v-3l-1.915-.947 1.915-1.053c0-2.206-1.794-4-4-4h-11c-2.206 0-4 1.794-4 4l1.543 1.053-1.543.947v4l2.596 1-2.596 1v3c0 1.328.873 2.444 2.071 2.838.294.097.603.162.929.162h5l1-.947 1 .947h3l1.085-.979.915.979h6c.326 0 .635-.065.929-.162 1.198-.394 2.071-1.51 2.071-2.838 0-2.206-1.794-4-4-4z" opacity=".5"/><path d="m19 12v-2h-4v-3h4v-2h-19v2h4v4h-4v2h8v6h2v-12h3v12h2v-7zm-11-1h-2v-4h2z"/><path d="m3 19c-.326 0-.635-.065-.929-.162-.043.217-.071.438-.071.662 0 1.93 1.57 3.5 3.5 3.5s3.5-1.57 3.5-3.5c0-.169-.017-.335-.041-.5z"/><path d="m15.041 19c-.024.165-.041.331-.041.5 0 1.93 1.57 3.5 3.5 3.5s3.5-1.57 3.5-3.5c0-.225-.028-.445-.071-.662-.294.097-.603.162-.929.162z"/></svg>