<svg id="Layer_1" viewBox="0 0 24 24" xmlns="http://www.w3.org/2000/svg" data-name="Layer 1"><g opacity=".5"><path d="m10.081 3.495c.27.27.585.469.919.602v3.903c0 .553.448 1 1 1s1-.447 1-1v-3.904c.335-.132.649-.331.919-.601l1.788-1.788c.391-.391.391-1.023 0-1.414s-1.023-.391-1.414 0l-1.788 1.788c-.278.276-.732.277-1.01 0l-1.788-1.788c-.391-.391-1.023-.391-1.414 0s-.391 1.023 0 1.414z"/><path d="m13.919 20.505c-.27-.27-.584-.47-.919-.602v-3.903c0-.553-.448-1-1-1s-1 .447-1 1v3.903c-.335.132-.649.332-.919.602l-1.788 1.788c-.391.391-.391 1.023 0 1.414s1.023.391 1.414 0l1.788-1.788c.278-.278.731-.278 1.01 0l1.788 1.788c.195.195.451.293.707.293s.512-.098.707-.293c.391-.391.391-1.023 0-1.414z"/><path d="m9.046 14.875c.477-.277.639-.89.361-1.367-.278-.479-.891-.639-1.367-.361l-3.374 1.963c-.287-.226-.618-.396-.982-.492l-2.444-.646c-.538-.141-1.081.178-1.223.711-.141.534.177 1.081.711 1.223l2.444.646c.185.049.339.167.435.332.096.164.122.356.073.541l-.646 2.444c-.141.534.177 1.081.711 1.223.086.022.172.033.256.033.443 0 .848-.296.966-.744l.646-2.444c.096-.364.112-.736.058-1.098l3.374-1.963z"/><path d="m14.955 9.124c-.478.277-.64.89-.361 1.367.186.319.521.497.865.497.171 0 .344-.044.502-.136l3.374-1.962c.287.226.618.396.982.492l2.444.646c.086.022.172.033.257.033.442 0 .848-.296.966-.744.142-.534-.177-1.081-.711-1.223l-2.444-.646c-.185-.049-.339-.166-.435-.331s-.122-.357-.073-.542l.646-2.444c.142-.534-.177-1.081-.711-1.223-.531-.137-1.082.177-1.223.711l-.646 2.444c-.096.364-.112.736-.058 1.098l-3.374 1.962z"/><path d="m22.761 13.971-2.444.646c-.364.096-.695.266-.982.492l-3.374-1.963c-.478-.276-1.09-.116-1.367.361s-.116 1.09.361 1.367l3.374 1.963c-.055.362-.039.733.058 1.098l.646 2.444c.118.448.523.744.966.744.085 0 .171-.011.257-.033.534-.142.853-.688.711-1.223l-.646-2.444c-.049-.185-.022-.377.073-.542s.25-.282.435-.331l2.444-.646c.534-.142.853-.688.711-1.223s-.689-.852-1.223-.711z"/><path d="m.983 10.062c.084 0 .17-.011.256-.033l2.444-.646c.364-.096.695-.266.982-.492l3.375 1.962c.158.092.331.136.501.136.345 0 .68-.178.865-.497.278-.478.116-1.09-.362-1.367l-3.374-1.962c.055-.362.039-.733-.058-1.098l-.646-2.444c-.142-.534-.688-.854-1.223-.711-.534.142-.852.688-.711 1.223l.646 2.444c.049.185.023.377-.073.541-.096.165-.25.283-.435.332l-2.444.646c-.534.142-.852.688-.711 1.223.119.448.523.744.966.744z"/></g><circle cx="12" cy="12" r="5"/></svg>