<svg id="Layer_1" viewBox="0 0 24 24" xmlns="http://www.w3.org/2000/svg" data-name="Layer 1"><path d="m16.375 7.655c-.119-.049-.246-.073-.375-.073h-8c-.129 0-.256.024-.375.073-3.417 1.383-5.625 4.658-5.625 8.345v2c0 3.309 2.691 6 6 6h8c3.309 0 6-2.691 6-6v-2c0-3.687-2.208-6.962-5.625-8.345z" opacity=".5"/><path d="m19 0h-7c-1.654 0-3 1.346-3 3v1.184c-1.161.414-2 1.514-2 2.816v2c0 .553.447 1 1 1h8c.553 0 1-.447 1-1v-2c0-1.302-.839-2.402-2-2.816v-2.184h4c.553 0 1-.447 1-1s-.447-1-1-1z"/><path d="m15 14h-6c-1.654 0-3 1.346-3 3s1.346 3 3 3h6c1.654 0 3-1.346 3-3s-1.346-3-3-3z"/></svg>