<svg id="Layer_1" viewBox="0 0 24 24" xmlns="http://www.w3.org/2000/svg" data-name="Layer 1"><path d="m21.246 17 2.55-3.4c.332-.442.242-1.069-.2-1.4-.442-.332-1.068-.241-1.4.2l-2.2 2.934-2.2-2.934c-.331-.441-.957-.532-1.4-.2-.442.331-.531.958-.2 1.4l2.55 3.4-2.55 3.4c-.332.442-.242 1.069.2 1.4.18.135.391.2.599.2.304 0 .604-.138.801-.4l2.2-2.934 2.2 2.934c.196.262.497.4.801.4.208 0 .419-.065.599-.2.442-.331.531-.958.2-1.4z" opacity=".5"/><path d="m7.496 22c-.829 0-1.412-.582-1.622-1.158l-2.793-7.681c-.395-1.085-1.302-1.944-2.312-2.189-.537-.13-.867-.67-.736-1.207s.672-.866 1.207-.736c1.669.404 3.095 1.726 3.722 3.449l2.474 6.805 3.784-13.621c.599-2.156 2.58-3.662 4.817-3.662h6.96c.552 0 1 .448 1 1s-.448 1-1 1h-6.96c-1.342 0-2.531.903-2.891 2.197l-4.047 14.571c-.165.593-.736 1.232-1.602 1.232z"/></svg>