<svg id="Layer_1" viewBox="0 0 24 24" xmlns="http://www.w3.org/2000/svg" data-name="Layer 1"><g opacity=".5"><path d="m18.749 5.263s-.93-.145-1.132-.294c-.853-.629-1.88-.969-2.96-.969-1.336 0-2.591.52-3.535 1.464l-.622.622.026 1.253-1.44.161-1.586 1.586.07 1.421-1.484-.007-1.035 1.035c-.185.185-.359.379-.521.581l.289 1.466-1.325.322c-.321.81-.494 1.684-.494 2.581v3.101l-.606 1.864 2.02-.449h3.101c1.871 0 3.629-.728 4.95-2.05l6.071-6.071c1.767-1.767 1.932-4.54.495-6.496-.148-.201-.282-1.12-.282-1.12z"/></g><path d="m23.707 5.293-5-5c-.391-.391-1.023-.391-1.414 0s-.391 1.023 0 1.414l1.793 1.793-1.482 1.482c.203.15.406.301.588.483l.344.343c.183.183.332.387.481.589l1.483-1.483 1.793 1.793c.195.195.451.293.707.293s.512-.098.707-.293c.391-.391.391-1.023 0-1.414z"/><path d="m3 20v-.414l-2.707 2.707c-.391.391-.391 1.023 0 1.414.195.195.451.293.707.293s.512-.098.707-.293l2.707-2.707h-.414c-.553 0-1-.448-1-1z"/><path d="m7 17c.256 0 .512-.098.707-.293.391-.391.391-1.023 0-1.414l-3.174-3.174c-.438.546-.786 1.148-1.04 1.788l2.8 2.8c.195.195.451.293.707.293z"/><path d="m10 14c.256 0 .512-.098.707-.293.391-.391.391-1.023 0-1.414l-3.207-3.207-1.414 1.414 3.207 3.207c.195.195.451.293.707.293z"/><path d="m13 11c.256 0 .512-.098.707-.293.391-.391.391-1.023 0-1.414l-3.207-3.207-1.414 1.414 3.207 3.207c.195.195.451.293.707.293z"/></svg>