<svg id="Layer_1" viewBox="0 0 24 24" xmlns="http://www.w3.org/2000/svg" data-name="Layer 1"><g opacity=".5"><path d="m16 2h-.171c-.413-1.164-1.525-2-2.829-2h-2c-1.304 0-2.416.836-2.829 2h-.171c-2.757 0-5 2.243-5 5v12c0 2.757 2.243 5 5 5h8c2.757 0 5-2.243 5-5v-12c0-2.757-2.243-5-5-5z"/></g><path d="m14 8h-1v-1c0-.552-.447-1-1-1s-1 .448-1 1v1h-1c-.553 0-1 .448-1 1s.447 1 1 1h1v1c0 .552.447 1 1 1s1-.448 1-1v-1h1c.553 0 1-.448 1-1s-.447-1-1-1z"/><path d="m16 16h-8c-.553 0-1-.448-1-1s.447-1 1-1h8c.553 0 1 .448 1 1s-.447 1-1 1z"/><path d="m12 20h-4c-.553 0-1-.448-1-1s.447-1 1-1h4c.553 0 1 .448 1 1s-.447 1-1 1z"/></svg>