<svg id="Layer_1" viewBox="0 0 24 24" xmlns="http://www.w3.org/2000/svg" data-name="Layer 1"><path d="m16.5 0c-1.687 0-3.241.567-4.495 1.51-1.294-.976-2.862-1.51-4.505-1.51-4.136 0-7.5 3.364-7.5 7.5 0 3.622 2.581 6.652 6 7.349.485.099.883 1.359.883 1.359s.95-1.237 1.117-1.248c1.458-.098 2.844-.594 4.005-1.47 1.128.849 2.504 1.368 3.995 1.469.167.011 1 1.137 1 1.137s.515-1.148 1-1.247c3.419-.697 6-3.727 6-7.349 0-4.136-3.364-7.5-7.5-7.5zm-5.94 12.061c-.9.606-1.955.939-3.06.939-3.033 0-5.5-2.467-5.5-5.5s2.467-5.5 5.5-5.5c1.104 0 2.16.334 3.06.939-.974 1.265-1.56 2.844-1.56 4.561s.586 3.295 1.56 4.561zm5.94.939c-3.032 0-5.5-2.467-5.5-5.5s2.468-5.5 5.5-5.5 5.5 2.467 5.5 5.5-2.468 5.5-5.5 5.5z" opacity=".5"/><path d="m6 14.849v4.151h-2c-.552 0-1 .448-1 1s.448 1 1 1h2v2c0 .552.448 1 1 1s1-.448 1-1v-2h2c.552 0 1-.448 1-1s-.448-1-1-1h-2v-4.041c-.167.011-.331.041-.5.041-.514 0-1.015-.052-1.5-.151z"/><path d="m16.5 15c-.17 0-.333-.03-.5-.042v4.042h-2c-.553 0-1 .448-1 1s.447 1 1 1h2v2c0 .552.447 1 1 1s1-.448 1-1v-2h2c.553 0 1-.448 1-1s-.447-1-1-1h-2v-4.151c-.485.099-.986.151-1.5.151z"/></svg>