<svg id="Layer_1" viewBox="0 0 24 24" xmlns="http://www.w3.org/2000/svg" data-name="Layer 1"><g opacity=".5"><path d="m11 0c-2.206 0-4 1.794-4 4 0 1.869 1.288 3.443 3.024 3.88.313.079.64 1.253.976 1.253s.664-1.175.976-1.253c1.735-.437 3.024-2.01 3.024-3.88 0-2.206-1.794-4-4-4z"/></g><path d="m23 21h-1.279l-1.316-3.949c-.409-1.227-1.553-2.051-2.846-2.051h-3.559c-1.103 0-2-.897-2-2h6c.553 0 1-.447 1-1s-.447-1-1-1h-6v-3c0-.047-.021-.088-.027-.134-.313.079-.636.134-.973.134s-.66-.055-.973-.134c-.006.046-.027.086-.027.134v5c0 2.176 1.747 3.942 3.911 3.991-.475 2.838-2.941 5.009-5.911 5.009-3.309 0-6-2.691-6-6 0-2.967 2.21-5.52 5.142-5.938.547-.078.927-.585.849-1.132s-.587-.931-1.132-.849c-3.91.56-6.858 3.964-6.858 7.919 0 4.411 3.589 8 8 8 4.072 0 7.436-3.06 7.931-7h1.628c.431 0 .812.274.949.684l1.544 4.633c.136.408.518.684.948.684h2c.553 0 1-.447 1-1s-.447-1-1-1z"/></svg>