<svg id="Layer_1" enable-background="new 0 0 24 24" viewBox="0 0 24 24" xmlns="http://www.w3.org/2000/svg"><g><path d="m0 12c0-.6.4-1 1-1h6c1.3 0 1.3 2 0 2h-6c-.6 0-1-.4-1-1z" opacity=".5"/><path d="m20.9 11.1c2.6-3.1.2-8.2-3.9-8.1-2.8 0-5 2.2-5 5 0 .6.4 1 1 1s1-.4 1-1c0-1.7 1.3-3 3-3 4 .1 4 5.9 0 6h-6c-1.3 0-1.3 2 0 2h9c1.1 0 2 .9 2 2 0 2.3-3.3 2.6-4.1.7-.2-.5-.8-.8-1.3-.6s-.8.8-.6 1.3c1.6 4.1 7.9 3.2 7.9-1.3.1-2-1.2-3.6-3-4z" opacity=".5"/><path d="m11 16h-10c-1.3 0-1.3 2 0 2h10c1.1 0 2 .9 2 2 0 2.3-3.3 2.6-4.1.7-.2-.5-.8-.8-1.3-.6s-.8.8-.6 1.3c1.6 4 8 3.2 8-1.4 0-2.2-1.8-4-4-4z" opacity=".5"/><path d="m1 8h6c2.2 0 4-1.8 4-4 0-4.6-6.4-5.4-7.9-1.3-.2.5 0 1.1.6 1.2.5.2 1.1-.1 1.3-.6.7-1.9 4-1.6 4 .7 0 1.1-.9 2-2 2h-6c-1.3 0-1.3 2 0 2z" opacity=".5"/></g></svg>