<svg id="Layer_1" viewBox="0 0 24 24" xmlns="http://www.w3.org/2000/svg" data-name="Layer 1"><g opacity=".5"><path d="m20.732 8.409c-.731-4.221-4.385-7.335-8.732-7.335s-8.001 3.114-8.732 7.335c-1.135.473-.623 5.848.991 5.955 1.247 2.716 4.314 5.327 7.741 5.327s6.494-2.611 7.741-5.327c1.614-.106 2.897-1.454 2.897-3.096 0-1.271-.77-2.387-1.905-2.859z"/></g><g><path d="m23.176 13.829c-.005-.028-.022-.049-.029-.075.544-.629.854-1.413.854-2.257 0-1.433-.871-2.689-2.15-3.223-.824-4.761-4.946-8.274-9.851-8.274-6.904 0-8.876 4.674-10.181 7.767-.44 1.042-.895 2.12-1.322 2.369-.371.216-.477.615-.477 1.064 0 .043 0 5.247.044 7.035.036 1.445.179 2.876 1.112 3.984.952 1.132 2.346 1.78 3.823 1.78h3.001c.265 0 .52-.104.707-.292s.293-.441.293-.707v-2.598c.985.388 2.004.599 3 .599 1.041 0 2.05-.219 3-.591v2.589c0 .553.448 1 1 1h3c1.479 0 2.872-.648 3.824-1.779.953-1.133 1.354-2.618 1.101-4.076l-.75-4.314zm-1.612-1.285c-.281.276-.638.421-1.042.42l-.433-.007c-.399-.007-.815.262-.958.667-.917 2.597-4 5.376-7.13 5.376h-.001c-2.591 0-5.024-1.876-6.286-3.734-.032-.047-.075-.08-.109-.125-.712-1.09-1.217-2.305-1.533-3.213 1.178-.145 2.583-.444 4.061-1.04-.084.187-.133.393-.133.612 0 .828.672 1.5 1.5 1.5s1.5-.672 1.5-1.5c0-.705-.488-1.291-1.142-1.452 1.728-.967 3.463-2.375 4.956-4.467.209-.293.837-1.585 1.128-2.541 2.18 1.232 3.732 3.455 4.012 6.109.047.442.379.8.816.879.712.13 1.23.748 1.23 1.474 0 .395-.155.765-.436 1.042z"/><circle cx="14.5" cy="11.5" r="1.5"/></g></svg>