<svg id="Layer_1" viewBox="0 0 24 24" xmlns="http://www.w3.org/2000/svg" data-name="Layer 1"><path d="m14.932 10.463c1.457-.602 2.594-1.848 2.594-4.384 0-4.501-2.954-5.079-5.527-5.079-3.035 0-5.998.348-5.998 4.5 0 .276.224.5.5.5s.5-.224.5-.5c0-2.958 1.684-3.5 4.998-3.5 3.258 0 4.527 1.144 4.527 4.079 0 2.785-1.456 3.921-5.025 3.921-.276 0-.5.224-.5.5s.224.5.5.5c4.435 0 6.5 1.772 6.5 5.579 0 3.851-1.739 5.421-6.002 5.421s-5.998-1.593-5.998-5.5c0-.276-.224-.5-.5-.5s-.5.224-.5.5c0 5.761 3.74 6.5 6.998 6.5s7.002-.73 7.002-6.421c0-3.211-1.365-5.258-4.068-6.116z"/></svg>