<svg id="Layer_1" viewBox="0 0 24 24" xmlns="http://www.w3.org/2000/svg" data-name="Layer 1"><path d="m11.442 9.039c-1.203 0-2.743.249-3.583.404.059-3.276.573-5.8.742-6.546.833-.362 4.194-1.608 8.674-.335.264.076.542-.08.618-.344.076-.266-.079-.542-.344-.618-5.542-1.575-9.446.417-9.61.503-.125.065-.217.181-.252.318-.034.132-.806 3.278-.832 7.629-.002.37.358.551.604.489.024-.006 2.382-.501 3.984-.501 4.597 0 6.558 1.865 6.558 6.237 0 4.868-1.942 5.725-6.024 5.725-3.798 0-5.662-.674-5.978-4.507-.023-.275-.264-.47-.54-.458-.275.023-.48.264-.458.54.373 4.518 2.945 5.425 6.975 5.425 4.449 0 7.024-1.101 7.024-6.725 0-4.938-2.401-7.237-7.558-7.237z"/></svg>