<svg id="Layer_1" viewBox="0 0 24 24" xmlns="http://www.w3.org/2000/svg" data-name="Layer 1"><path d="m18.968 7.557c-.012-5.81-3.737-6.557-6.984-6.557s-6.984.749-6.984 6.583 3.732 6.583 6.984 6.583c2.071 0 4.613-.328 5.987-2.474-.001.125-.002.237-.002.318 0 6.749-2.77 9.737-9.262 9.991-.276.011-.491.243-.48.519.01.27.232.48.499.48h.02c7.07-.276 10.223-3.666 10.223-10.99 0-.203.046-3.955-.001-4.452zm-6.984 5.609c-3.592 0-5.984-.949-5.984-5.583 0-3.966 1.734-5.583 5.984-5.583 3.592 0 5.985.95 5.985 5.583 0 3.965-1.734 5.583-5.985 5.583z"/></svg>