<svg id="Layer_1" viewBox="0 0 24 24" xmlns="http://www.w3.org/2000/svg" data-name="Layer 1"><path d="m9.119 5.564c-.174-1.118-.12-2.056-.118-2.095.01-.299.321-.532.61-.457 1.425.325 2.131.558 3.01 1.039.317-1.17.702-1.872 1.349-2.831.157-.245.523-.293.74-.101.847.725 1.5 1.447 2.036 2.656.978-.502 2.211-.757 3.748-.776.278 0 .498.212.506.483.041 1.257-.237 2.575-.772 3.707 1.003.363 1.951 1.07 2.669 2.005.154.2.134.483-.045.66-.843.833-1.583 1.378-2.478 1.811.375.411.848 1.013 1.093 1.655.099.258-.03.547-.288.646-.251.098-.547-.027-.646-.288-.347-.906-1.352-1.793-1.362-1.803-.281-.23-.195-.72.147-.842.976-.382 1.688-.825 2.499-1.572-.684-.751-1.563-1.29-2.42-1.473-.326-.06-.502-.462-.328-.742.552-.943.881-2.098.929-3.23-1.373.072-2.43.367-3.218.898-.256.181-.646.056-.748-.241-.419-1.133-.889-1.787-1.546-2.412-.497.793-.781 1.457-1.048 2.666-.062.328-.468.498-.748.32-.95-.577-1.517-.822-2.695-1.116.009.34.037.793.112 1.278.042.273-.144.528-.417.571-.275.041-.529-.144-.571-.417zm-2.12 4.444v-.018c.022-1.258.75-1.984 1.997-1.991 1.235.009 1.981.753 2.003 1.991-.024 1.295-.733 2.002-1.997 2.009-1.271-.008-1.979-.715-2.003-1.991zm1-.009c.015.715.297.996 1.003 1 .712-.004.983-.277.997-1.009-.012-.685-.312-.986-1.003-.991-.7.004-.981.284-.997 1zm14.813 12.11c.215.173.25.487.078.703-.174.216-.488.249-.703.078-.021-.018-2.16-1.71-4.784-2.451-.917.233-1.982.655-3.167 1.254-1.473.783-3.446.115-4.142-1.402l-2.871-6.28c-.004-.008-.003-.016-.006-.024-1.932-.034-3.639-.153-4.334-.56-.066-.039-.124-.093-.166-.157l-1.637-2.495c-.151-.231-.087-.541.144-.692.23-.152.542-.088.692.144l1.564 2.385c.901.39 4.115.39 5.518.39s4.617 0 5.518-.39l1.564-2.385c.151-.231.462-.295.692-.144.231.151.295.461.144.692l-1.637 2.495c-.042.064-.099.118-.166.157-.445.261-1.307.403-2.376.481l2.379 5.137c.692-.995 1.651-1.965 2.366-2.57.057-.048.125-.083.197-.103 2.541-.658 4.816-.238 4.911-.222.271.052.449.312.398.584s-.312.45-.584.398c-.021-.003-2.091-.38-4.364.18-.735.635-1.692 1.64-2.296 2.614.547-.209 1.066-.375 1.546-.49.083-.019.167-.019.247.004 2.888.777 5.176 2.593 5.272 2.669zm-8.172-1.718-2.977-6.428c-.841.03-1.751.037-2.664.037-.228 0-.455-.001-.682-.002l2.682 5.867c.464 1.01 1.802 1.464 2.786.936.292-.148.576-.282.855-.409z"/></svg>