<svg id="Layer_1" viewBox="0 0 24 24" xmlns="http://www.w3.org/2000/svg" data-name="Layer 1"><path d="m13 7.5c0 1.71.79 2.5 2.5 2.5s2.5-.79 2.5-2.5-.79-2.5-2.5-2.5-2.5.79-2.5 2.5zm4 0c0 1.15-.35 1.5-1.5 1.5s-1.5-.35-1.5-1.5.35-1.5 1.5-1.5 1.5.35 1.5 1.5zm-2 13.83c.02.28-.18.52-.46.54-1.07.09-2.09.13-3.04.13-4.45 0-8.92-.97-9.11-1.01s-.34-.19-.38-.38-1.01-4.66-1.01-9.11.97-8.92 1.01-9.11.19-.34.38-.38 4.66-1.01 9.11-1.01 8.92.97 9.11 1.01.34.19.38.38 1.01 4.66 1.01 9.11c0 .95-.04 1.97-.13 3.04-.02.28-.28.48-.54.46-.28-.02-.48-.26-.46-.54.09-1.04.13-2.04.13-2.96 0-3.67-.7-7.48-.92-8.58-1.1-.22-4.9-.92-8.58-.92s-7.48.7-8.58.92c-.22 1.1-.92 4.9-.92 8.58 0 1.59.13 3.21.3 4.62 2.44-2.81 5.52-4.56 6.47-5.06.11-.06.24-.07.37-.04 1.74.49 3.52 1.36 5.28 2.57.23.16.29.47.13.7s-.47.29-.69.13c-1.61-1.1-3.22-1.9-4.8-2.38-1.17.63-4.32 2.51-6.58 5.44.17 1.2.35 2.14.44 2.6 1.1.22 4.9.92 8.58.92.92 0 1.92-.04 2.96-.13.25-.03.52.18.54.46zm8-3.83c0 .28-.22.5-.5.5h-4.5v4.5c0 .28-.22.5-.5.5s-.5-.22-.5-.5v-4.5h-4.5c-.28 0-.5-.22-.5-.5s.22-.5.5-.5h4.5v-4.5c0-.28.22-.5.5-.5s.5.22.5.5v4.5h4.5c.28 0 .5.22.5.5z"/></svg>