<svg id="Layer_1" viewBox="0 0 24 24" xmlns="http://www.w3.org/2000/svg" data-name="Layer 1"><path d="m9.5 12c3.855 0 5.5-1.645 5.5-5.5s-1.645-5.5-5.5-5.5-5.5 1.645-5.5 5.5 1.645 5.5 5.5 5.5zm0-10c3.28 0 4.5 1.22 4.5 4.5s-1.22 4.5-4.5 4.5-4.5-1.22-4.5-4.5 1.22-4.5 4.5-4.5zm.5 12.5c0 .276-.224.5-.5.5-5.467 0-7.5 2.032-7.5 7.5 0 .276-.224.5-.5.5s-.5-.224-.5-.5c0-5.958 2.542-8.5 8.5-8.5.276 0 .5.224.5.5zm12.133 3.519-.656-.392c.015-.198.023-.407.023-.627s-.008-.429-.023-.627l.656-.392c.854-.51 1.029-1.202.519-2.057-.509-.854-1.201-1.029-2.057-.519l-.426.254c-.325-.226-.712-.392-1.168-.499v-.661c0-.995-.505-1.5-1.5-1.5s-1.5.505-1.5 1.5v.661c-.457.107-.844.273-1.168.499l-.426-.254c-.854-.511-1.546-.336-2.057.519s-.336 1.547.519 2.057l.656.392c-.015.198-.023.407-.023.627s.008.429.023.627l-.656.392c-.854.51-1.029 1.202-.519 2.057.511.854 1.203 1.029 2.057.519l.426-.254c.325.226.712.392 1.168.499v.661c0 .995.505 1.5 1.5 1.5s1.5-.505 1.5-1.5v-.661c.457-.107.844-.273 1.168-.499l.426.254c.854.511 1.546.336 2.057-.519s.336-1.547-.519-2.057zm-.34 1.544c-.225.377-.309.398-.686.173l-.724-.432c-.19-.114-.435-.087-.597.063-.311.29-.755.474-1.359.563-.245.036-.427.247-.427.495v1.074c0 .439-.061.5-.5.5s-.5-.061-.5-.5v-1.074c0-.248-.182-.458-.427-.495-.604-.089-1.048-.273-1.359-.563-.163-.152-.407-.177-.597-.063l-.724.432c-.376.226-.461.205-.686-.173-.225-.377-.204-.461.173-.686l.929-.555c.17-.102.264-.294.24-.491-.032-.255-.049-.531-.049-.832s.017-.576.049-.832c.024-.197-.069-.39-.24-.491l-.929-.555c-.377-.225-.398-.309-.173-.686.225-.376.31-.398.686-.173l.724.432c.192.114.436.088.597-.063.311-.29.755-.474 1.359-.563.245-.036.427-.247.427-.495v-1.074c0-.439.061-.5.5-.5s.5.061.5.5v1.074c0 .248.182.458.427.495.604.089 1.048.273 1.359.563.163.152.407.177.597.063l.724-.432c.376-.226.46-.204.686.173.225.377.204.461-.173.686l-.929.555c-.17.102-.264.294-.24.491.032.255.049.531.049.832s-.017.576-.049.832c-.024.197.069.39.24.491l.929.555c.377.225.398.309.173.686zm-4.293-4.563c-1.346 0-2 .654-2 2s.654 2 2 2 2-.654 2-2-.654-2-2-2zm0 3c-.794 0-1-.206-1-1s.206-1 1-1 1 .206 1 1-.206 1-1 1z"/></svg>