<svg id="Layer_1" viewBox="0 0 24 24" xmlns="http://www.w3.org/2000/svg" data-name="Layer 1"><path d="m18.921 22.444c.03.274-.168.521-.442.552-.27.031-.522-.167-.552-.442-.361-3.277-2.023-4.554-5.927-4.554s-5.566 1.277-5.927 4.554c-.03.274-.271.478-.552.442-.274-.03-.473-.277-.442-.552.415-3.765 2.55-5.445 6.921-5.445s6.506 1.68 6.921 5.445zm-6.921-7.445c-2.766 0-4-1.233-4-4s1.233-4 4-4 4 1.233 4 4-1.233 4-4 4zm0-1c2.215 0 3-.785 3-3s-.785-3-3-3-3 .785-3 3 .785 3 3 3zm7.672 3.216c.366-.766.234-1.569-.405-2.457-.106-.147-.113-.344-.016-.498.12-.19.229-.38.329-.568.064-.122.178-.205.313-.229 1.41-.259 2.099-1.063 2.106-2.466-.008-1.396-.697-2.201-2.107-2.46-.135-.024-.249-.107-.312-.229-.1-.188-.209-.378-.329-.568-.097-.154-.09-.351.016-.498.867-1.206.798-2.282-.21-3.291-1.011-1.012-2.086-1.08-3.289-.212-.148.105-.342.111-.495.017-.189-.118-.377-.227-.565-.326-.122-.063-.206-.178-.23-.314-.258-1.423-1.069-2.114-2.476-2.114s-2.218.691-2.477 2.115c-.024.136-.108.25-.232.314-.186.099-.374.207-.563.326-.153.095-.346.089-.494-.018-1.202-.868-2.278-.8-3.29.212-1.008 1.009-1.077 2.085-.21 3.291.106.147.113.344.016.498-.12.19-.229.38-.329.568-.064.122-.178.205-.313.229-1.41.259-2.099 1.063-2.106 2.466.008 1.396.697 2.201 2.107 2.46.135.024.249.107.312.229.1.188.209.378.329.568.097.154.09.351-.016.498-.639.888-.771 1.691-.405 2.457.119.249.418.353.667.235.249-.119.354-.418.235-.667-.143-.298-.217-.702.315-1.441.344-.479.364-1.113.05-1.613-.106-.169-.203-.337-.291-.504-.208-.395-.58-.667-1.018-.747-.945-.173-1.282-.561-1.287-1.476.005-.921.342-1.309 1.286-1.481.439-.08.811-.353 1.019-.747.088-.167.185-.335.291-.504.314-.5.294-1.134-.051-1.613-.585-.813-.557-1.337.105-2 .667-.666 1.189-.692 1.997-.108.48.347 1.112.367 1.61.054.167-.104.335-.201.498-.287.398-.208.672-.581.751-1.021.172-.943.576-1.294 1.493-1.294s1.321.351 1.493 1.293c.08.441.353.814.749 1.021.165.087.333.184.499.287.498.314 1.131.293 1.612-.053.81-.584 1.332-.556 1.997.108.663.663.69 1.186.105 2-.344.479-.364 1.113-.05 1.613.106.169.203.337.291.504.208.395.58.667 1.018.747.945.173 1.282.561 1.287 1.476-.005.921-.342 1.309-1.286 1.481-.439.08-.811.353-1.019.747-.088.167-.185.335-.291.504-.314.5-.294 1.134.051 1.613.532.739.457 1.144.314 1.441-.119.249-.014.548.235.667.243.118.547.016.667-.235z"/></svg>