<svg id="Layer_1" viewBox="0 0 24 24" xmlns="http://www.w3.org/2000/svg" data-name="Layer 1"><path d="m21.735 1.975c-.073-.14-.207-.236-.362-.262-.043-.007-4.385-.713-9.373-.713s-9.33.706-9.373.713c-.156.025-.291.123-.363.264-.051.1-1.264 2.481-1.264 5.661 0 3.207 1.213 5.564 1.265 5.663.068.131.192.225.337.257.043.009 4.397.943 9.398.943s9.354-.934 9.398-.943c.146-.032.27-.126.338-.259.051-.1 1.264-2.481 1.264-5.661 0-3.207-1.213-5.564-1.265-5.663zm-.789 10.654c-.966.19-4.724.872-8.946.872s-7.983-.682-8.947-.872c-.279-.621-1.053-2.561-1.053-4.991 0-2.394.763-4.337 1.047-4.978.998-.148 4.748-.66 8.953-.66s7.96.512 8.954.66c.284.633 1.046 2.555 1.046 4.978s-.774 4.365-1.054 4.991z"/><path d="m8 16.5c-.276 0-.5.224-.5.5v3c0 .983-.759 2-2.029 2-1.217 0-1.971-1.038-1.971-2 0-1.051.998-1.396 1.593-1.509.271-.051.45-.312.398-.584-.051-.271-.311-.446-.584-.398-1.507.284-2.407 1.216-2.407 2.491 0 1.443 1.136 3 2.971 3 1.896 0 3.029-1.525 3.029-3v-3c0-.276-.224-.5-.5-.5z"/><path d="m19.093 17.509c-.27-.048-.533.128-.584.398-.051.271.127.533.398.584.595.112 1.593.458 1.593 1.509 0 .962-.753 2-1.971 2-1.27 0-2.029-1.017-2.029-2v-3c0-.276-.224-.5-.5-.5s-.5.224-.5.5v3c0 1.475 1.133 3 3.029 3 1.835 0 2.971-1.557 2.971-3 0-1.275-.9-2.207-2.407-2.491z"/><path d="m12 16.525c-.276 0-.5.224-.5.5v5.475c0 .276.224.5.5.5s.5-.224.5-.5v-5.475c0-.276-.224-.5-.5-.5z"/><path d="m17 8.5h-10c-.276 0-.5.224-.5.5s.224.5.5.5h10c.276 0 .5-.224.5-.5s-.224-.5-.5-.5z"/></svg>