<svg id="Layer_1" viewBox="0 0 24 24" xmlns="http://www.w3.org/2000/svg" data-name="Layer 1"><path d="m12.287 12.091c-.172-.121-.402-.121-.574 0-3.178 2.229-5.678 4.917-7.645 8.214-.17.27-.015.661.296.737.142.04 3.512.958 7.635.958s7.49-.919 7.631-.958c.311-.076.467-.468.296-.737-1.967-3.3-4.466-5.986-7.641-8.214zm-.287 8.909c-2.947 0-5.549-.5-6.717-.763 1.774-2.813 3.979-5.151 6.717-7.124 2.735 1.971 4.938 4.309 6.713 7.124-1.167.264-3.767.763-6.713.763zm11-10.5c0 3.587-1.026 7.104-1.07 7.253-.077.268-.363.416-.621.338-.265-.078-.416-.356-.338-.621.01-.035 1.029-3.531 1.029-6.97 0-2.882-.716-5.806-.954-6.696-.881-.203-3.919-.804-9.046-.804s-8.166.601-9.046.804c-.237.891-.954 3.814-.954 6.696 0 3.438 1.019 6.935 1.029 6.97.078.265-.073.543-.338.621-.265.077-.543-.073-.621-.338-.044-.148-1.07-3.666-1.07-7.253s1.026-7.104 1.07-7.253c.049-.165.178-.293.344-.34.131-.037 3.29-.907 9.586-.907s9.455.87 9.586.907c.166.047.295.175.344.34.044.148 1.07 3.666 1.07 7.253z"/></svg>