<svg id="Layer_1" viewBox="0 0 24 24" xmlns="http://www.w3.org/2000/svg" data-name="Layer 1"><path d="m9.59 16.93c-.24-.03-.53-.05-.87-.08-.23-.01-.43-.02-.62-.03-.84-1.44-1.85-2.89-3.14-2.81-.34.01-.66.21-.83.52-.19.34-.24.88.51 2.41-.28.03-.55.06-.79.1-.33-.54-.87-.92-1.55-1.01h-.33c-.29-.05-.57.06-.76.28s-.25.52-.17.79l.53 1.76c.16.54.63.95 1.2 1.04.54.08 1.25.15 1.85.2-.74 1.51-.68 2.05-.5 2.39.18.33.53.53.9.52 1.26 0 2.24-1.41 3.07-2.82.19 0 .4-.02.65-.03.33-.02.62-.05.85-.08.8-.09 1.41-.76 1.41-1.57s-.61-1.49-1.41-1.57zm-.11 2.15c-.23.02-.51.05-.81.07-.35.02-.64.03-.9.04-.17 0-.33.1-.42.25-.48.84-1.48 2.57-2.34 2.57h-.02s-.09-.42.84-2.13c.18-.3-.05-.72-.4-.74-.7-.05-1.76-.13-2.53-.25-.19-.03-.34-.16-.39-.34l-.47-1.56h.15c.3.05.56.21.73.46l.25.37c.11.16.29.24.48.21.47-.06 1.17-.15 1.79-.21.17-.01.32-.11.4-.26s.08-.33 0-.47c-.92-1.7-.84-2.11-.86-2.12.89-.04 1.89 1.71 2.37 2.55.09.15.24.24.42.25.25 0 .53.02.87.04.31.02.59.05.82.08.3.03.52.28.52.58s-.22.55-.52.58zm9.52-13.33c-.41 0-.75-.34-.75-.75s.34-.75.75-.75.75.34.75.75-.34.75-.75.75zm4 11.25c0 2.08-.92 3-3 3h-6.5c-.28 0-.5-.22-.5-.5s.22-.5.5-.5h6.5c1.51 0 2-.49 2-2s-.49-2-2-2h-7s0 0 0 0c-1.05 0-1.77-.23-2.27-.73s-.73-1.22-.73-2.27c0-2.07.92-3 3-3h1.5c.28 0 .5.22.5.5s-.22.5-.5.5h-1.5c-1.51 0-2 .49-2 2s.49 2 2 2h7c2.08 0 3 .92 3 3zm-4.33-6.03c.19.17.47.17.66 0 .15-.13 3.67-3.28 3.67-5.97s-1.23-4-4-4-4 1.23-4 4 3.52 5.84 3.67 5.97zm.33-8.97c2.21 0 3 .79 3 3 0 1.67-1.93 3.88-3 4.92-1.07-1.03-3-3.25-3-4.92 0-2.21.79-3 3-3z"/></svg>