<svg id="Layer_1" viewBox="0 0 24 24" xmlns="http://www.w3.org/2000/svg" data-name="Layer 1"><path d="m12.75 12c0 .414-.336.75-.75.75s-.75-.336-.75-.75.336-.75.75-.75.75.336.75.75zm7.25 0c0 5.607-2.393 8-8 8s-8-2.393-8-8 2.393-8 8-8 8 2.393 8 8zm-1 0c0-5.103-1.897-7-7-7s-7 1.897-7 7 1.897 7 7 7 7-1.897 7-7zm4 0c0 4.667-1.051 9.509-1.062 9.558-.042.19-.19.339-.381.381-.049.011-4.891 1.062-9.558 1.062s-9.509-1.051-9.557-1.062c-.191-.042-.34-.19-.381-.381-.011-.049-1.062-4.891-1.062-9.558s1.052-9.509 1.063-9.558c.042-.19.19-.339.381-.381.048-.011 4.891-1.062 9.557-1.062s9.509 1.051 9.558 1.062c.19.042.339.19.381.381.011.049 1.062 4.891 1.062 9.558zm-1 0c0-3.879-.745-7.891-.973-9.027-1.137-.228-5.148-.973-9.027-.973s-7.891.745-9.027.973c-.228 1.137-.973 5.148-.973 9.027s.745 7.891.973 9.027c1.136.228 5.148.973 9.027.973s7.891-.745 9.027-.973c.228-1.137.973-5.148.973-9.027z"/></svg>