<svg id="Layer_1" viewBox="0 0 24 24" xmlns="http://www.w3.org/2000/svg" data-name="Layer 1"><path d="m22.914 8.719c-.042-.062-1.043-1.53-2.429-2.966-.173-.316-.377-.578-.581-.811l2.503-3.35c.113-.14.106-.342-.016-.474-.117-.127-.306-.154-.454-.066l-2.918 1.738-.005-.668c0-.372-.184-.719-.493-.93-.298-.202-.673-.247-1.004-.117-.946.371-2.117 1.467-2.396 3.351-.718.606-1.541 1.663-1.942 3.458-2.547-2.708-6.164-4.989-8.506-5.853-.154-.056-.325-.035-.459.059-.134.093-.214.247-.214.41 0 1.286 0 4.22 1.296 7.005-.292.262-.514.578-.692.934-2.031.993-3.577 2.233-3.604 6.06 0 .276.224.5.5.5s.5-.224.5-.5c0-2.765.84-3.819 2.173-4.687-.116.648-.163 1.377-.173 2.187 0 .95.257 2.186.483 3.275.133.64.26 1.248.305 1.668-.488 1.538-.398 2.989-.395 3.052.009.131.069.254.167.341.031.027.764.664 1.939.664 1.185 0 1.885-.646 1.914-.674.075-.071.126-.163.147-.265.012-.056.281-1.387.412-3.022.033-.416.113-1.588.164-2.319.512.129 1.279.28 2.068.28.71 0 1.342-.14 1.795-.278.004 2.347.026 4.933.026 4.933 0 .069.015.137.043.199.038.086.412.844 1.77 1.088 1.371.247 1.953-.359 2.015-.43.04-.045.071-.096.092-.151.038-.099.919-2.446 1.051-7.283.124-.434.799-2.879.971-5.057.388.051.534.188.718.363.458.435.922.757 2.362.615.138-.014.264-.083.348-.194.053-.068.514-.699.602-1.763.009-.114-.021-.228-.085-.322zm-1.208 1.303c-.89.053-1.086-.132-1.331-.365-.392-.371-.805-.674-1.884-.657-.265.005-.479.215-.49.479-.117 2.502-.977 5.257-1 5.508-.105 4.074-.768 6.351-.944 6.89-.126.07-.44.188-1.041.08-.625-.112-.896-.35-.99-.456-.005-.646-.026-3.32-.026-5.501 0-.173-.089-.332-.235-.424-.147-.092-.33-.1-.485-.025-.009.005-.934.449-2.075.449-1.178 0-2.35-.401-2.361-.406-.146-.051-.31-.029-.44.056-.13.086-.212.228-.223.384 0 0-.155 2.307-.205 2.927-.099 1.231-.284 2.308-.36 2.722-.18.119-.563.318-1.116.318-.524 0-.912-.179-1.115-.301-.003-.45.035-1.493.384-2.541.021-.063.03-.132.024-.198-.039-.483-.175-1.135-.331-1.889-.217-1.042-.462-2.224-.462-3.065.024-1.905.243-2.947.783-3.572.771 1.313 1.876 2.545 3.46 3.495.237.144.543.064.686-.172.142-.236.065-.544-.171-.686-4.245-2.547-4.703-7.444-4.752-9.826 2.479 1.096 5.972 3.508 8.11 6.075.128.153.337.216.528.159.192-.058.331-.225.353-.424.199-1.794.856-3.167 1.899-3.971.108-.083.177-.206.192-.341.226-2.065 1.635-2.675 1.87-2.726.014.009.057.043.057.107l.016 2.281c.001.177.096.34.249.429.004-.048 1.012.716 1.44 1.565 1.099 1.13 1.973 2.322 2.264 2.732-.057.408-.186.713-.277.89z"/></svg>