<svg id="Layer_1" viewBox="0 0 24 24" xmlns="http://www.w3.org/2000/svg" data-name="Layer 1"><path d="m16.617 8.014c-.826.045-1.957.246-2.657.946s-.901 1.831-.946 2.656c-.021.373.118.737.381 1s.63.403 1 .381c.826-.045 1.957-.246 2.657-.946s.901-1.831.946-2.656c.021-.373-.118-.737-.381-1-.264-.264-.631-.404-1-.381zm.383 1.326c-.05.921-.283 1.632-.655 2.004s-1.083.604-2.005.655c-.229-.025-.307-.096-.328-.328.051-.921.283-1.632.655-2.004s1.083-.604 2.005-.655c.222.018.31.1.328.328zm-9.604-1.338c-.382-.023-.737.118-1 .381s-.402.627-.381 1c.045.825.246 1.957.946 2.656.7.7 1.831.901 2.656.946.37.022.737-.118 1-.381s.402-.627.381-1c-.045-.826-.246-1.957-.946-2.657s-1.831-.901-2.656-.946zm2.514 3.895c-.036.037-.108.089-.238.09-.921-.051-1.632-.283-2.004-.655s-.604-1.083-.655-2.004c.018-.228.106-.311.328-.328.921.05 1.632.283 2.004.655s.604 1.083.655 2.005c.006.121-.054.201-.09.237zm2.09-10.897c-6.309 0-9 2.691-9 9 0 6.248 8.343 12.63 8.698 12.899.089.067.196.101.302.101s.212-.034.302-.101c.355-.269 8.698-6.651 8.698-12.899 0-6.309-2.691-9-9-9zm0 20.863c-1.492-1.203-8-6.746-8-11.863 0-5.832 2.168-8 8-8s8 2.168 8 8c0 5.117-6.508 10.66-8 11.863z"/></svg>