<?xml version="1.0" encoding="UTF-8"?>
<svg xmlns="http://www.w3.org/2000/svg" id="Layer_1" data-name="Layer 1" viewBox="0 0 24 24">
  <path d="M1.625,6.503c.04-.011,4.1-1.037,10.375-1.037,6.236,0,10.336,1.026,10.376,1.037,.308,.079,.55-.135,.608-.361,.068-.268-.093-.54-.36-.608-.171-.043-4.252-1.068-10.624-1.068-6.413,0-10.456,1.024-10.625,1.068-.267,.069-.428,.342-.359,.609,.069,.267,.34,.428,.609,.359Z"/>
  <path d="M1.625,15.429c.04-.011,4.1-1.037,10.375-1.037,6.236,0,10.336,1.026,10.376,1.037,.308,.079,.55-.135,.608-.361,.068-.268-.093-.54-.36-.608-.171-.043-4.252-1.068-10.624-1.068-6.413,0-10.456,1.024-10.625,1.068-.267,.069-.428,.342-.359,.609,.069,.267,.34,.428,.609,.359Z"/>
  <path d="M6.069,9.275c-.274,.029-.474,.275-.444,.55,.029,.275,.276,.48,.55,.444,3.764-.399,7.873-.4,11.649,.002,.018,.002,.464,.047,.55-.444,.042-.239-.169-.521-.444-.55-3.846-.41-8.027-.409-11.861-.002Z"/>
  <path d="M6.069,18.535c-.274,.029-.474,.275-.444,.55,.029,.275,.276,.48,.55,.444,3.764-.399,7.873-.4,11.649,.002,.018,.002,.464,.047,.55-.444,.042-.239-.169-.521-.444-.55-3.846-.41-8.027-.409-11.861-.002Z"/>
</svg>
