<svg id="Layer_1" viewBox="0 0 24 24" xmlns="http://www.w3.org/2000/svg" data-name="Layer 1"><path d="m15.584 19.119 1.09 1.09c-1.357-.122-2.929-.209-4.674-.209-5.86 0-9.839.975-9.879.985-.271.065-.539-.097-.606-.364-.067-.268.096-.539.364-.606.166-.042 4.128-1.015 10.121-1.015 1.298 0 2.494.047 3.584.119zm-13.463-8.134c.022-.006 1.76-.431 4.609-.721l-.909-.909c-2.419.284-3.858.638-3.942.659-.268.067-.431.338-.364.606.066.27.345.431.606.364zm-.606 4.636c.057.227.26.379.485.379.288-.028 3.716-.924 9.47-.995l-.982-.982c-5.136.142-8.458.954-8.609.992-.268.067-.431.338-.364.606zm21.338 6.525-7.006-7.006c3.684.269 6.006.838 6.031.844.261.068.54-.094.606-.364.067-.268-.096-.539-.364-.606-.116-.029-2.897-.715-7.324-.943-.006 0-.011.002-.017.002l-4.057-4.057c.415-.01.839-.016 1.276-.016 5.86 0 9.839.975 9.879.985.261.066.54-.094.606-.364.067-.268-.096-.539-.364-.606-.166-.042-4.128-1.015-10.121-1.015-.785 0-1.534.017-2.246.047l-3.703-3.703c1.928-.224 3.922-.344 5.949-.344 5.86 0 9.839.975 9.879.985.261.066.54-.094.606-.364.067-.268-.096-.539-.364-.606-.166-.042-4.128-1.015-10.121-1.015-2.341 0-4.643.152-6.85.443l-3.294-3.297c-.195-.195-.512-.195-.707 0s-.195.512 0 .707l20.999 21.001c.195.195.512.195.707 0s.195-.512 0-.707z"/></svg>