<?xml version="1.0" encoding="UTF-8"?>
<svg xmlns="http://www.w3.org/2000/svg" id="Layer_1" data-name="Layer 1" viewBox="0 0 24 24">
  <path d="M22.726,11.468l-4.333-6.383c-.074-.109-.188-.184-.317-.21-.106-.021-1.707-.334-3.74-.57v-1.076c0-1.229-1.002-2.23-2.251-2.23-1.232,0-2.234,1-2.234,2.23v.819c-3.325,.067-6.918,.795-7.076,.828-.16,.033-.294,.142-.359,.291-.05,.116-1.229,2.882-1.229,6.578,0,3.727,1.179,6.465,1.229,6.58,.065,.15,.201,.258,.361,.29,.015,.003,.53,.103,1.4,.233-.181,.382-.275,.799-.275,1.233,0,1.609,1.323,2.919,2.948,2.919s2.948-1.31,2.948-2.919c0-.233-.027-.462-.081-.684,.737,.036,1.504,.057,2.288,.057,.778,0,1.54-.021,2.273-.056-.054,.222-.081,.45-.081,.683,0,1.609,1.323,2.919,2.948,2.919s2.948-1.31,2.948-2.919c0-.432-.094-.849-.274-1.231,.878-.131,1.399-.232,1.414-.235,.176-.035,.32-.161,.378-.332,.043-.129,1.062-3.196,1.198-6.514,.004-.107-.026-.213-.086-.301Zm-1.357-.219h-5.192c-.755,0-1.37-.604-1.37-1.347V5.373c1.353,.173,2.443,.366,2.875,.446l3.686,5.43ZM12.102,2c.681,0,1.234,.552,1.234,1.23v.971c-.81-.076-1.658-.133-2.485-.151v-.82c0-.678,.554-1.23,1.251-1.23Zm-3.301,18.081c0,1.058-.874,1.919-1.948,1.919s-1.948-.861-1.948-1.919c0-.392,.118-.765,.341-1.084,.944,.122,2.109,.249,3.402,.337,.101,.236,.154,.487,.154,.747Zm10.295,0c0,1.058-.874,1.919-1.948,1.919s-1.948-.861-1.948-1.919c0-.259,.052-.51,.153-.746,1.292-.089,2.458-.215,3.404-.337,.222,.319,.34,.692,.34,1.083Zm1.657-2.394c-1.03,.182-4.667,.767-8.745,.767-4.116,0-7.775-.595-8.77-.771-.275-.728-1.049-3.029-1.049-5.937,0-2.88,.778-5.209,1.052-5.941,.943-.179,4.24-.761,7.087-.761,1.139,0,2.359,.091,3.479,.211v4.647c0,1.294,1.063,2.347,2.37,2.347h5.607c-.17,2.422-.798,4.67-1.031,5.438Z"/>
  <path d="M10.096,11.249h-1.257v-1.237c0-.276-.224-.5-.5-.5s-.5,.224-.5,.5v1.237h-1.257c-.276,0-.5,.224-.5,.5s.224,.5,.5,.5h1.257v1.236c0,.276,.224,.5,.5,.5s.5-.224,.5-.5v-1.236h1.257c.276,0,.5-.224,.5-.5s-.224-.5-.5-.5Z"/>
</svg>
