<?xml version="1.0" encoding="UTF-8"?>
<svg xmlns="http://www.w3.org/2000/svg" id="Layer_1" data-name="Layer 1" viewBox="0 0 24 24">
  <path d="M21.533,16.294c-.192-.366-.467-.669-.793-.889,.771-.677,1.052-1.811,.614-2.677h0c-.492-.975-1.251-1.816-1.971-2.426,.2-.065,.36-.119,.395-.133,1.22-.487,1.906-1.782,1.595-3.011-.317-1.261-1.464-2.015-2.782-1.836-1.172,.16-3.592,.91-4.856,1.318,.079-.263,.195-.528,.359-.7l.78-.815c.837-.874,.949-2.227,.261-3.147-.431-.576-1.082-.932-1.788-.975-.706-.045-1.371,.221-1.852,.723l-1.444,1.511c-.793,.755-1.228,1.871-1.464,2.809-.543-1.038-1.721-1.592-2.788-1.293-.677,.189-1.232,.66-1.523,1.292-.294,.64-.291,1.375,.017,2.034,.809,1.577,1.229,2.395,1.447,2.819l-3.043,1.543c-.12,.061-.211,.168-.251,.297-.028,.09-.68,2.25,.188,5.208,.917,3.13,3.2,4.578,3.297,4.638,.116,.072,.257,.093,.388,.06l2.971-.761,4.912,.992c.411,.083,.822,.124,1.229,.124,2.242,0,4.34-1.227,5.457-3.287l.654-1.207c.367-.677,.364-1.504-.008-2.213Zm-.871,1.736l-.654,1.207c-1.109,2.045-3.362,3.117-5.61,2.66l-5.024-1.015c-.032-.006-.065-.01-.099-.01-.042,0-.083,.005-.124,.016l-2.858,.732c-.506-.377-2.03-1.667-2.7-3.953-.635-2.169-.363-3.876-.239-4.436l3.288-1.668c.119-.061,.209-.168,.249-.297,.041-.128,.027-.269-.036-.387-.062-.118-1.663-3.24-1.663-3.24-.175-.375-.178-.803-.006-1.176,.17-.37,.483-.635,.883-.747,.641-.174,1.354,.192,1.659,.845l.623,1.448c.092,.214,.317,.338,.548,.294,.229-.041,.398-.235,.41-.467,.002-.026,.148-2.651,1.449-3.891l1.461-1.527c.277-.289,.671-.436,1.068-.417,.418,.025,.79,.23,1.048,.575,.399,.533,.32,1.332-.183,1.857l-.78,.815c-.677,.708-.771,1.958-.779,2.099-.01,.166,.062,.326,.195,.427,.132,.102,.307,.128,.463,.077,.04-.014,3.976-1.334,5.476-1.539,.929-.13,1.518,.455,1.679,1.089,.206,.818-.345,1.577-.995,1.836-.107,.041-1.092,.358-1.215,.39-.197,.043-.349,.201-.385,.4-.035,.199,.052,.4,.222,.509,.749,.481,1.835,1.461,2.431,2.64,.258,.511,.01,1.241-.541,1.595-.656,.421-1.458,.13-2.198-.797-1.088-1.367-2.986-1.708-4.41-.793-.749,.48-1.246,1.267-1.364,2.157-.119,.896,.145,1.804,.763,2.456,1.034,1.091,2.242,.985,2.258,.985,.83-.013,1.613-.38,2.149-1.009,1.573-1.845,2.056-1.796,2.485-1.749,.437,.047,.826,.322,1.044,.736,.217,.413,.223,.888,.015,1.271Zm-2.708-2.489c-.441,.325-.93,.817-1.598,1.582-1.098,1.259-2.519,.427-2.905,0-.405-.446-.592-1.048-.512-1.652,.079-.599,.412-1.126,.912-1.447,.38-.243,.8-.361,1.218-.361,.695,0,1.385,.324,1.872,.936,.334,.418,.676,.726,1.013,.941Z"/>
</svg>
