<svg id="Layer_1" viewBox="0 0 24 24" xmlns="http://www.w3.org/2000/svg" data-name="Layer 1"><path d="m22.815 11.112c-.117-.095-.269-.133-.418-.101-.012.002-1.201.249-2.969.505-.273.04-.463.293-.424.566.04.274.304.465.566.423 1.055-.152 1.896-.3 2.423-.398-.14 7.022-2.779 9.751-9.494 9.88v-8.997c.966-.011 1.976-.049 3.036-.125.275-.02.482-.259.463-.535-.021-.276-.265-.489-.535-.462-1.037.075-2.004.11-2.964.121v-3.02c2.403-.15 3.5-1.382 3.5-3.97 0-2.767-1.233-4-4-4s-4 1.233-4 4c0 2.588 1.097 3.819 3.5 3.97v3.02c-.96-.011-1.927-.047-2.964-.121-.268-.017-.515.187-.535.462s.187.515.462.535c1.059.076 2.07.114 3.036.125v8.997c-6.715-.129-9.354-2.858-9.494-9.879.526.098 1.368.245 2.422.397.271.04.527-.15.566-.423.04-.273-.15-.527-.423-.566-1.769-.256-2.958-.503-2.97-.505-.298-.071-.611.182-.602.489 0 8.276 3.084 11.5 11 11.5s11-3.224 11-11.5c0-.15-.067-.293-.185-.388zm-13.815-6.112c0-2.215.785-3 3-3s3 .785 3 3-.785 3-3 3-3-.785-3-3z"/></svg>