<svg id="Layer_1" viewBox="0 0 24 24" xmlns="http://www.w3.org/2000/svg" data-name="Layer 1"><path d="m8.701 2.85c-.193-.197-.19-.514.006-.707.764-.749 1.871-1.134 3.29-1.143 1.556.01 2.622.377 3.364 1.155.191.2.184.516-.017.707-.199.191-.516.184-.706-.017-.543-.568-1.382-.837-2.642-.845-1.145.007-2.018.295-2.589.857-.198.193-.514.191-.707-.007zm3.296 1.15c1.235.008 1.981.752 2.003 1.992-.023 1.294-.732 2.001-1.997 2.008-1.27-.007-1.979-.714-2.003-1.991v-.018c.022-1.257.75-1.983 1.997-1.991zm0 1c-.7.004-.982.285-.997.999.016.716.297.997 1.003 1 .712-.004.984-.278.997-1.009-.012-.685-.312-.986-1.003-.991zm11.003 10.503c0 1.631-.578 2.358-2.031 2.478-.162 1.176-.951 1.842-2.351 1.987.139.56.271 1.118.374 1.661.05.266-.119.522-.383.581-1.073.237-3.865.789-6.608.789s-5.535-.552-6.608-.789c-.264-.059-.433-.315-.383-.581.101-.535.232-1.085.368-1.636-1.538-.03-2.238-.608-2.357-2.013-1.444-.123-2.019-.852-2.019-2.481-.002-.245-.02-6.119 2.054-10.225.111-.221.366-.329.604-.249 3.933 1.311 5.865 3.688 6.519 4.658.522.204 1.135.311 1.826.316.636-.004 1.201-.105 1.697-.279.458-.71 2.352-3.265 6.642-4.695.236-.08.493.028.604.249 2.073 4.107 2.056 9.981 2.054 10.229zm-17.365 3.524c.516-1.849 1.196-3.73 2.012-5.484.553-1.186 1.124-2.282 1.701-3.294-.549-.804-2.231-2.892-5.591-4.13-1.772 3.875-1.757 9.32-1.757 9.377 0 1.251.252 1.503 1.5 1.503.276 0 .5.224.5.5 0 1.248.387 1.527 1.635 1.527zm12.279 2.309c-.5-2.414-1.369-5.012-2.468-7.37-.537-1.154-1.091-2.233-1.648-3.213-.54.16-1.142.243-1.795.247-.656-.004-1.255-.092-1.795-.252-.56.984-1.116 2.062-1.654 3.218-1.099 2.358-1.968 4.956-2.468 7.37 1.255.257 3.607.664 5.914.664s4.659-.407 5.914-.664zm4.086-5.836c0-.06.016-5.505-1.757-9.381-3.506 1.283-5.17 3.372-5.636 4.048.591 1.031 1.178 2.157 1.745 3.375.81 1.74 1.484 3.605 1.999 5.44 1.345-.085 1.648-.653 1.648-1.483 0-.276.224-.5.5-.5 1.248 0 1.5-.252 1.5-1.5z"/></svg>