<svg id="Layer_1" viewBox="0 0 24 24" xmlns="http://www.w3.org/2000/svg" data-name="Layer 1"><path d="m22.607 21.882c-.051.011-5.145 1.117-10.055 1.117s-10.004-1.106-10.055-1.117c-.19-.042-.339-.19-.381-.381-.012-.051-1.117-5.145-1.117-10.055s1.106-10.002 1.118-10.054c.059-.27.33-.438.596-.381.27.059.44.326.381.596-.003.016-.117.542-.269 1.402 1.278.022 2.551.169 3.786.449.27.062.438.329.377.599-.06.271-.335.438-.598.377-1.218-.277-2.474-.414-3.733-.425-.305 1.91-.656 4.704-.656 7.439 0 4.108.792 8.352 1.028 9.524 1.173.236 5.42 1.028 9.524 1.028 2.739 0 5.534-.352 7.443-.657-.012-1.339-.171-2.669-.482-3.955-.064-.269.101-.539.369-.603.271-.066.539.101.604.369.316 1.31.481 2.661.504 4.022.86-.153 1.386-.266 1.402-.27.274-.058.537.112.596.381.06.27-.111.537-.381.596zm-12.815-16.295c1.322.607 2.57 1.381 3.708 2.302.214.173.529.142.703-.074.174-.215.141-.529-.074-.703-1.202-.973-2.521-1.791-3.921-2.434-.249-.113-.547-.005-.662.246s-.006.548.246.663zm8.622 8.621c.115.253.418.36.663.245.251-.115.36-.412.245-.663-.643-1.399-1.462-2.718-2.434-3.919-.174-.214-.488-.248-.703-.074s-.248.488-.074.703c.919 1.136 1.694 2.384 2.303 3.708z"/></svg>