<?xml version="1.0" encoding="UTF-8"?>
<svg xmlns="http://www.w3.org/2000/svg" id="Layer_1" data-name="Layer 1" viewBox="0 0 24 24">
  <path d="M11.785,15.438c-2.01-.914-3.235-2.793-3.609-3.438,.374-.645,1.599-2.523,3.609-3.438,.251-.114,.362-.411,.248-.662-.114-.251-.408-.364-.662-.248-2.768,1.258-4.156,4.009-4.214,4.125-.069,.14-.069,.304,0,.444,.058,.117,1.445,2.869,4.214,4.127,.067,.031,.138,.045,.207,.045,.19,0,.372-.109,.456-.293,.114-.251,.003-.548-.248-.662Z"/>
  <path d="M16.602,14.808c-1.91-.868-3.112-2.231-3.561-2.808,.449-.577,1.65-1.939,3.561-2.807,.251-.114,.362-.411,.248-.662-.114-.251-.409-.363-.662-.248-2.74,1.246-4.128,3.356-4.186,3.446-.107,.165-.107,.378,0,.543,.058,.089,1.446,2.201,4.186,3.447,.067,.031,.138,.045,.207,.045,.19,0,.372-.109,.456-.293,.114-.251,.003-.548-.248-.662Z"/>
</svg>
