<?xml version="1.0" encoding="UTF-8"?>
<svg xmlns="http://www.w3.org/2000/svg" id="Layer_1" data-name="Layer 1" viewBox="0 0 24 24">
  <path d="M16.349,11.371c-1.259-2.769-4.01-4.156-4.126-4.214-.141-.069-.304-.069-.444,0-.117,.058-2.869,1.445-4.127,4.214-.114,.251-.003,.548,.248,.662,.253,.116,.548,.002,.662-.248,.914-2.011,2.795-3.235,3.439-3.609,.644,.372,2.52,1.591,3.438,3.609,.084,.184,.266,.293,.455,.293,.069,0,.14-.014,.207-.045,.251-.114,.362-.411,.248-.662Z"/>
  <path d="M12.272,12.002c-.165-.106-.378-.106-.543,0-.089,.058-2.201,1.446-3.447,4.186-.114,.251-.003,.548,.248,.662,.253,.115,.548,.002,.662-.248,.868-1.91,2.231-3.112,2.808-3.561,.577,.449,1.939,1.65,2.807,3.561,.084,.184,.266,.293,.455,.293,.069,0,.14-.014,.207-.045,.251-.114,.362-.411,.248-.662-1.245-2.74-3.356-4.128-3.446-4.186Z"/>
</svg>
