<?xml version="1.0" encoding="UTF-8"?>
<svg xmlns="http://www.w3.org/2000/svg" id="Layer_1" data-name="Layer 1" viewBox="0 0 24 24">
  <path d="M21.712,2.583c-.046-.176-.183-.312-.357-.358C15.147,.6,8.853,.6,2.646,2.225c-.175,.046-.312,.183-.357,.358-1.613,6.249-1.613,12.585,0,18.834,.046,.176,.183,.312,.357,.358,3.104,.812,6.229,1.219,9.354,1.219s6.251-.406,9.354-1.219c.175-.046,.312-.183,.357-.358,1.613-6.249,1.613-12.585,0-18.834Zm-.896,18.299c-5.852,1.482-11.781,1.482-17.633,0C1.71,14.986,1.71,9.014,3.184,3.118c5.852-1.482,11.781-1.482,17.633,0,1.474,5.896,1.474,11.868,0,17.764Z"/>
  <path d="M12.089,8.847c-.059-.01-.119-.01-.178,0-.126,.023-3.11,.607-4.449,4.78-.084,.263,.061,.544,.324,.629,.264,.082,.545-.061,.629-.324,1.035-3.229,3.12-3.956,3.584-4.079,.455,.123,2.554,.858,3.586,4.079,.068,.213,.265,.348,.477,.348,.051,0,.102-.008,.152-.023,.264-.085,.408-.366,.324-.629-1.339-4.173-4.323-4.757-4.449-4.78Z"/>
</svg>
