<?xml version="1.0" encoding="UTF-8"?>
<svg xmlns="http://www.w3.org/2000/svg" id="Layer_1" data-name="Layer 1" viewBox="0 0 24 24">
  <path d="M21.712,2.583c-.045-.176-.182-.312-.357-.358C15.147,.6,8.853,.6,2.646,2.225c-.176,.046-.312,.183-.357,.358-1.614,6.249-1.614,12.585,0,18.834,.045,.176,.182,.312,.357,.358,3.104,.812,6.229,1.219,9.354,1.219s6.251-.406,9.354-1.219c.176-.046,.312-.183,.357-.358,1.614-6.249,1.614-12.585,0-18.834Zm-.896,18.299c-5.852,1.482-11.781,1.482-17.633,0C1.709,14.986,1.709,9.014,3.184,3.118c5.852-1.482,11.781-1.482,17.633,0,1.474,5.896,1.474,11.868,0,17.764Z"/>
  <path d="M16.214,9.744c-.265-.081-.545,.062-.629,.324-1.036,3.23-3.122,3.956-3.584,4.079-.468-.125-2.551-.852-3.585-4.079-.084-.263-.364-.405-.629-.324-.263,.085-.408,.366-.323,.629,1.337,4.173,4.322,4.757,4.448,4.78,.029,.005,.059,.008,.089,.008s.06-.003,.089-.008c.126-.023,3.111-.607,4.448-4.78,.084-.263-.061-.544-.323-.629Z"/>
</svg>
