<?xml version="1.0" encoding="UTF-8"?>
<svg xmlns="http://www.w3.org/2000/svg" id="Layer_1" data-name="Layer 1" viewBox="0 0 24 24">
  <path d="M6.265,23c-.184,0-.36-.102-.448-.278-.122-.247-.021-.547,.227-.67,7.97-3.947,10.666-9.026,11.145-10.051-.481-1.024-3.199-6.117-11.145-10.053-.248-.123-.349-.423-.227-.67,.123-.249,.425-.348,.67-.227,8.896,4.406,11.446,10.116,11.697,10.724,.033,.067,.052,.144,.052,.223,0,.068-.014,.135-.039,.194-.158,.396-2.625,6.256-11.71,10.756-.071,.035-.146,.052-.222,.052Z"/>
</svg>
