<svg id="Layer_1" viewBox="0 0 24 24" xmlns="http://www.w3.org/2000/svg" data-name="Layer 1"><path d="m21.766 2.433c-.054-.161-.187-.283-.351-.325-.179-.045-4.426-1.108-9.415-1.108s-9.236 1.063-9.415 1.108c-.165.042-.296.164-.351.325-.051.149-1.234 3.715-1.234 8.567s1.184 8.417 1.234 8.567c.054.161.186.283.351.325.119.031 2.922.736 6.661 1.005.814.938 2.316 2.071 2.798 2.102.399-.031 1.897-1.164 2.71-2.102 3.739-.269 6.542-.974 6.661-1.005.165-.042.297-.164.351-.325.051-.149 1.234-3.715 1.234-8.567s-1.184-8.417-1.234-8.567zm-.868 16.555c-.802.186-3.287.716-6.425.926-.141.01-.271.078-.358.188-.623.785-1.685 1.574-2.115 1.841-.431-.267-1.492-1.057-2.115-1.841-.088-.11-.218-.178-.358-.188-3.137-.209-5.623-.74-6.425-.926-.266-.897-1.101-4.026-1.101-7.988s.835-7.09 1.101-7.988c1.012-.235 4.679-1.012 8.899-1.012s7.887.777 8.898 1.012c.267.897 1.102 4.027 1.102 7.988s-.835 7.09-1.102 7.988zm-8.495-12.784c-.188-.257-.617-.257-.806 0-.109.148-1.094 1.536-2.072 4.462-1.019 3.049-1.025 4.764-1.025 4.835 0 .275.225.498.5.498.275 0 .499-.224.5-.5 0-.009.011-.541.184-1.5h4.632c.173.958.184 1.49.184 1.5 0 .276.224.5.5.5.275 0 .499-.223.5-.498 0-.071-.007-1.786-1.025-4.835-.978-2.927-1.962-4.314-2.072-4.462zm-2.509 6.796c.139-.582.324-1.251.58-2.017.578-1.73 1.156-2.89 1.526-3.542.371.652.948 1.812 1.525 3.542.256.765.441 1.435.58 2.017h-4.212z"/></svg>