<svg id="Layer_1" viewBox="0 0 24 24" xmlns="http://www.w3.org/2000/svg" data-name="Layer 1"><path d="m23 11.486c-.003-.105-.007-1.062 0-1.498-.051-2.885-1.209-4.763-3.372-5.555.121-.085.24-.179.356-.294.688-.688.934-1.652 1.019-2.338.072-.44-.347-.868-.795-.795-.688.085-1.65.332-2.337 1.019-.317.317-.504.659-.624.996-.469-1.26-1.408-1.902-1.46-1.937-.23-.153-.537-.091-.69.137-.154.228-.094.539.134.693.047.032 1.041.738 1.238 2.116-2.024.127-3.542.897-4.455 2.263-.562-.861-1.359-1.487-2.389-1.863.119-.084.237-.177.351-.291.689-.688.935-1.653 1.021-2.344.066-.447-.351-.858-.796-.79-.688.085-1.651.332-2.338 1.019-.317.317-.504.659-.624.996-.469-1.26-1.408-1.902-1.46-1.937-.23-.153-.537-.091-.69.137-.154.228-.094.539.134.693.047.032 1.045.742 1.239 2.127-3.495.215-5.392 2.247-5.458 5.967.007.423.002 1.372 0 1.477-.102 3.622.027 6.184 1.015 10.135.044.173.176.311.348.36.146.042 3.637 1.019 9.638 1.019s9.492-.978 9.638-1.019c.172-.049.304-.187.348-.36.987-3.952 1.116-6.514 1.015-10.135zm-4.423-8.754c.376-.376.901-.57 1.368-.669-.098.465-.291.992-.669 1.369-.363.363-.789.471-1.219.52.049-.431.156-.856.52-1.22zm-1.579 2.268c3.307.021 4.942 1.658 5.002 4.991-.005.31-.03.604-.063.889-1.37-.254-4.736-.792-8.938-.87 0-.008 0-.014 0-.022-.018-.996-.171-1.869-.447-2.623.739-1.55 2.23-2.351 4.446-2.365zm-8.43-2.268c.375-.375.899-.569 1.369-.669-.099.465-.292.991-.67 1.369-.363.363-.789.471-1.219.52.049-.431.156-.856.52-1.22zm-1.568 2.268c3.305.022 4.939 1.659 4.999 4.991v.009c-4.662 0-8.458.606-9.935.88-.033-.281-.057-.571-.063-.874.06-3.347 1.695-4.984 4.999-5.006zm14.086 16.09c-.932.225-4.175.91-9.086.91s-8.154-.685-9.086-.91c-.181-.743-.324-1.428-.445-2.09h16.031c.276 0 .5-.224.5-.5s-.224-.5-.5-.5h-16.198c-.155-1.03-.247-2.009-.292-3h16.49c.276 0 .5-.224.5-.5s-.224-.5-.5-.5h-16.521c-.011-.67-.007-1.357.01-2.089 1.201-.233 5.118-.911 10.011-.911s8.809.678 10.011.911c.076 3.237-.064 5.645-.925 9.179z"/></svg>