<?xml version="1.0" encoding="UTF-8"?>
<svg xmlns="http://www.w3.org/2000/svg" id="Layer_1" data-name="Layer 1" viewBox="0 0 24 24">
  <path d="M22.968,11.824c-.07-.186-1.793-4.586-8.352-7.945-.242-.126-.546-.029-.673,.217-.126,.246-.028,.547,.218,.673,4.735,2.425,6.807,5.411,7.54,6.732H1.5c-.276,0-.5,.224-.5,.5s.224,.5,.5,.5H21.695c-.742,1.322-2.833,4.323-7.534,6.73-.246,.125-.344,.427-.218,.673,.089,.173,.264,.272,.445,.272,.077,0,.155-.018,.228-.055,6.479-3.318,8.275-7.749,8.349-7.936,.045-.115,.047-.245,.003-.361Z"/>
</svg>
