<svg id="Layer_1" viewBox="0 0 24 24" xmlns="http://www.w3.org/2000/svg" data-name="Layer 1"><path d="m22.941 14.77c-1.554 2.429-3.623 4.497-6.147 6.148-.228.151-.54.088-.692-.145-.151-.23-.086-.541.145-.691 2.13-1.393 3.899-3.109 5.306-5.082h-10.053c-7.458 0-10.5-3.042-10.5-10.5 0-.347.007-1.693.021-2.021.011-.275.226-.482.52-.479.276.012.49.244.479.521-.013.319-.02 1.641-.02 1.979 0 6.837 2.664 9.5 9.5 9.5h10.052c-1.407-1.973-3.176-3.689-5.306-5.082-.231-.15-.296-.461-.145-.691.152-.229.461-.297.692-.145 2.525 1.651 4.593 3.72 6.147 6.148.105.164.105.375 0 .539z"/></svg>