<?xml version="1.0" encoding="UTF-8"?>
<svg xmlns="http://www.w3.org/2000/svg" id="Layer_1" data-name="Layer 1" viewBox="0 0 24 24">
  <path d="M1.036,12.186c.031,.078,.803,1.931,3.677,3.314,.248,.119,.547,.014,.667-.234,.12-.249,.015-.548-.234-.667-1.475-.709-2.309-1.532-2.75-2.1H21.596c-.447,.571-1.285,1.398-2.743,2.1-.249,.12-.354,.418-.234,.667,.12,.248,.419,.353,.667,.234,2.787-1.341,3.591-3.109,3.674-3.306,.051-.122,.052-.259,.003-.381-.031-.078-.803-1.931-3.677-3.314-.07-.034-.144-.049-.216-.049-.186,0-.365,.104-.451,.283-.12,.249-.015,.548,.234,.667,1.475,.709,2.309,1.532,2.75,2.1H2.404c.447-.571,1.285-1.398,2.743-2.1,.249-.12,.354-.418,.234-.667-.086-.179-.265-.283-.451-.283-.073,0-.146,.016-.216,.049-2.787,1.341-3.591,3.109-3.674,3.306-.051,.122-.052,.259-.003,.381Z"/>
</svg>
