<svg id="Layer_1" viewBox="0 0 24 24" xmlns="http://www.w3.org/2000/svg" data-name="Layer 1"><path d="m10.75 22c0 .414-.336.75-.75.75s-.75-.336-.75-.75.336-.75.75-.75.75.336.75.75zm3.25-.75c-.414 0-.75.336-.75.75s.336.75.75.75.75-.336.75-.75-.336-.75-.75-.75zm4 0c-.414 0-.75.336-.75.75s.336.75.75.75.75-.336.75-.75-.336-.75-.75-.75zm4 0c-.414 0-.75.336-.75.75s.336.75.75.75.75-.336.75-.75-.336-.75-.75-.75zm-16 0c-.414 0-.75.336-.75.75s.336.75.75.75.75-.336.75-.75-.336-.75-.75-.75zm-4 0c-.414 0-.75.336-.75.75s.336.75.75.75.75-.336.75-.75-.336-.75-.75-.75zm16-13.25c.383.011.641-.455.418-.773-1.653-2.527-3.722-4.596-6.149-6.147-.164-.105-.375-.105-.539 0-2.427 1.552-4.496 3.62-6.149 6.147-.151.23-.086.541.145.691.231.152.541.087.692-.145 1.394-2.131 3.109-3.9 5.082-5.306v16.033c0 .276.224.5.5.5s.5-.224.5-.5v-16.032c1.973 1.406 3.688 3.175 5.082 5.306.096.146.256.227.419.227z"/></svg>