<svg id="Layer_1" viewBox="0 0 24 24" xmlns="http://www.w3.org/2000/svg" data-name="Layer 1"><path d="m21 7c1.346 0 2-.654 2-2s-.654-2-2-2-2 .654-2 2 .654 2 2 2zm0-3c.794 0 1 .206 1 1s-.206 1-1 1-1-.206-1-1 .206-1 1-1zm-4.1 14.7c.125.181.125.419 0 .6-1.024 1.366-2.236 2.577-3.6 3.601-.219.164-.534.121-.7-.101-.166-.221-.121-.534.1-.7 1.008-.756 1.905-1.641 2.721-2.6h-7.921c-.276 0-.5-.224-.5-.5s.224-.5.5-.5h7.921c-.816-.958-1.713-1.844-2.721-2.6-.221-.166-.266-.479-.1-.7s.48-.266.7-.101c1.364 1.023 2.576 2.234 3.6 3.601zm4.1-1.7c-1.346 0-2 .654-2 2s.654 2 2 2 2-.654 2-2-.654-2-2-2zm0 3c-.794 0-1-.206-1-1s.206-1 1-1 1 .206 1 1-.206 1-1 1zm-3.5-7.5-12.5-.002c-2.766 0-4-1.233-4-4s1.234-4 4-4l10.421.002c-.816-.958-1.713-1.844-2.721-2.599-.221-.166-.266-.479-.1-.7s.48-.266.7-.101c1.364 1.023 2.576 2.234 3.6 3.601.125.182.125.418 0 .6-1.024 1.366-2.236 2.577-3.6 3.601-.219.164-.534.121-.7-.101-.166-.221-.121-.534.1-.7 1.008-.756 1.905-1.641 2.721-2.6l-10.421-.002c-2.215 0-3 .785-3 3s.785 3 3 3l12.5.002c2.389 0 3.638.931 3.929 2.928.04.273-.149.527-.422.567-.268.039-.528-.148-.567-.423-.182-1.244-.751-2.072-2.94-2.072zm-14.5 4.5c-1.346 0-2 .654-2 2s.654 2 2 2 2-.654 2-2-.654-2-2-2zm0 3c-.794 0-1-.206-1-1s.206-1 1-1 1 .206 1 1-.206 1-1 1z"/></svg>