<?xml version="1.0" encoding="UTF-8"?>
<svg xmlns="http://www.w3.org/2000/svg" id="Layer_1" data-name="Layer 1" viewBox="0 0 24 24">
  <path d="M21.735,8.624c-.118-.25-.419-.356-.666-.237-.249,.119-.355,.417-.236,.666,1.808,3.806,1.11,6.528,.646,7.654l-7.1-7.076c-.699-.698-1.597-1.063-2.567-1.021-.959,.04-1.842,.48-2.485,1.24-.462,.544-1.089,.859-1.766,.888-.668,.025-1.318-.231-1.782-.688L1.891,5.188c-.172-.215-.485-.25-.703-.078-.216,.172-.25,.487-.078,.703l3.926,4.903c.7,.699,1.642,1.063,2.566,1.021,.959-.041,1.843-.481,2.486-1.241,.462-.544,1.089-.859,1.766-.888,.688-.034,1.319,.232,1.82,.73l7.128,7.105c-1.028,.492-3.528,1.241-7.03-.691-.239-.133-.545-.046-.679,.197-.134,.242-.046,.546,.196,.679,1.895,1.044,3.542,1.379,4.876,1.379,2.297,0,3.663-.992,3.751-1.059,.048-.035,.088-.079,.12-.129,.096-.148,2.313-3.693-.302-9.196Z"/>
</svg>
