<?xml version="1.0" encoding="UTF-8"?>
<svg xmlns="http://www.w3.org/2000/svg" id="Layer_1" data-name="Layer 1" viewBox="0 0 24 24">
  <path d="M22.5,11.5H1.5c-.276,0-.5,.224-.5,.5s.224,.5,.5,.5H22.5c.276,0,.5-.224,.5-.5s-.224-.5-.5-.5Z"/>
  <path d="M8.443,5.203c.243,.128,.546,.034,.676-.211,.759-1.449,1.74-2.259,2.382-2.668v6.526c0,.276,.224,.5,.5,.5s.5-.224,.5-.5V2.325c.642,.409,1.623,1.219,2.382,2.668,.09,.17,.363,.38,.676,.211,.242-.131,.339-.43,.211-.675-1.418-2.707-3.515-3.469-3.603-3.5-.107-.038-.225-.038-.332,0-.088,.031-2.185,.793-3.603,3.5-.128,.245-.033,.547,.211,.675Z"/>
  <path d="M15.557,18.797c-.243-.128-.546-.034-.676,.211-.759,1.449-1.74,2.259-2.382,2.668v-6.526c0-.276-.224-.5-.5-.5s-.5,.224-.5,.5v6.525c-.642-.409-1.623-1.219-2.382-2.668-.09-.17-.363-.38-.676-.211-.242,.131-.339,.43-.211,.675,1.418,2.707,3.515,3.469,3.603,3.5,.107,.038,.225,.038,.332,0,.088-.031,2.185-.793,3.603-3.5,.128-.245,.033-.547-.211-.675Z"/>
</svg>
