<?xml version="1.0" encoding="UTF-8"?>
<svg xmlns="http://www.w3.org/2000/svg" id="Layer_1" data-name="Layer 1" viewBox="0 0 24 24">
  <path d="M20.399,9.65c-2.167-4.218-4.791-6.512-6.482-7.65h5.979c.276,0,.5-.224,.5-.5s-.224-.5-.5-.5h-7.882c-.008,0-.016,0-.024,0H4.104c-.276,0-.5,.224-.5,.5s.224,.5,.5,.5h5.961c-1.686,1.131-4.286,3.412-6.463,7.65-.126,.246-.029,.547,.216,.673,.247,.128,.547,.029,.673-.216,2.532-4.929,5.653-7.067,7.01-7.811V22.5c0,.276,.224,.5,.5,.5s.5-.224,.5-.5V2.303c1.358,.754,4.495,2.912,7.008,7.805,.089,.172,.264,.271,.445,.271,.077,0,.155-.018,.228-.055,.246-.126,.342-.428,.216-.673Z"/>
</svg>
