<svg id="Layer_1" viewBox="0 0 24 24" xmlns="http://www.w3.org/2000/svg" data-name="Layer 1"><path d="m8.2 5.4c-.221-.166-.266-.479-.1-.7 1.024-1.365 2.235-2.576 3.6-3.6.178-.134.422-.134.6 0 1.365 1.024 2.576 2.235 3.6 3.6.166.221.121.534-.1.7-.219.165-.534.122-.7-.1-.757-1.008-1.642-1.905-2.6-2.721v13.421c0 .276-.224.5-.5.5s-.5-.224-.5-.5v-13.421c-.958.815-1.843 1.713-2.6 2.721-.166.222-.479.266-.7.1zm6.301 4.185c-.021.275.184.516.459.537 2.819.221 5.295.682 6.148.852.181.894.687 3.573.892 6.561.018.276.261.484.533.465.275-.02.483-.258.465-.533-.256-3.727-.972-6.991-.979-7.024-.042-.19-.191-.339-.382-.38-.03-.007-3.049-.658-6.599-.936-.275-.034-.516.184-.538.459zm-13.035 8.414c.272.019.515-.189.533-.465.205-2.984.711-5.666.892-6.561.853-.17 3.329-.631 6.148-.852.275-.021.481-.262.459-.537s-.265-.474-.538-.459c-3.549.277-6.568.929-6.599.936-.19.041-.339.189-.382.38-.007.033-.723 3.298-.979 7.024-.019.275.189.514.465.533zm21.046 2.001c-.293-.013-.505.212-.512.488-.015.645-.252 1.503-2.124 1.512-1.976-.009-2.111-1.016-2.127-1.441v-.047c.004-.135-.048-.265-.143-.361-.188-.191-.529-.191-.717 0-.094.097-.146.227-.143.361v.041c-.031.722-.334 1.439-2.12 1.447-1.855-.009-2.111-.812-2.127-1.512-.006-.271-.229-.488-.5-.488s-.494.217-.5.488v.023s0 .004 0 .006c-.022.641-.28 1.474-2.123 1.482-2.095-.01-2.119-1.14-2.126-1.511-.006-.271-.228-.489-.5-.489-.271 0-.494.217-.5.488v.022h-.001v.022c-.025.639-.293 1.458-2.122 1.467-2.095-.01-2.12-1.14-2.128-1.512-.006-.271-.229-.488-.5-.488h-.011c-.276.006-.495.235-.489.512.036 1.572 1.174 2.479 3.128 2.488 1.412-.007 2.198-.444 2.628-.992.517.638 1.413.986 2.622.992 1.397-.007 2.182-.436 2.615-.975.44.557 1.239.968 2.636.975 1.399-.007 2.198-.421 2.636-.98.519.63 1.412.975 2.613.98 2.667-.013 3.102-1.564 3.124-2.488.006-.276-.212-.505-.488-.512z"/></svg>