<?xml version="1.0" encoding="UTF-8"?>
<svg xmlns="http://www.w3.org/2000/svg" id="Layer_1" data-name="Layer 1" viewBox="0 0 24 24">
  <path d="M2.001,19.5v-7H13.704c.166,2.174,1.28,4.134,1.331,4.222,.111,.192,.335,.289,.55,.237,4.499-1.08,7.208-4.5,7.312-4.652,.244-.358-.026-.645-.026-.645-.489-.587-3.145-3.569-7.378-4.62-.222-.055-.452,.047-.561,.248-.048,.088-1.093,2.048-1.233,4.21H2.001V4.5c0-.276-.224-.5-.5-.5s-.5,.224-.5,.5v15c0,.276,.224,.5,.5,.5s.5-.224,.5-.5Zm19.839-7.496c-.731,.812-2.93,2.997-6.114,3.885-.335-.678-1.037-2.287-1.044-3.896-.028-1.594,.64-3.187,.958-3.877,3.228,.919,5.403,3.015,6.2,3.888Z"/>
</svg>
