<svg id="Layer_1" viewBox="0 0 24 24" xmlns="http://www.w3.org/2000/svg" data-name="Layer 1"><path d="m23.02 4.5c0 7.458-3.042 10.5-10.5 10.5h-10.052c1.407 1.973 3.175 3.688 5.306 5.082.231.15.296.461.145.691-.151.233-.465.295-.691.145-2.526-1.652-4.595-3.721-6.147-6.148-.105-.164-.105-.375 0-.539 1.553-2.428 3.621-4.496 6.147-6.148.229-.151.54-.087.691.145.151.23.087.541-.145.691-2.13 1.394-3.899 3.109-5.306 5.082h10.052c6.837 0 9.5-2.663 9.5-9.5 0-.339-.006-1.659-.02-1.979-.011-.276.203-.51.479-.521.307-.008.509.203.521.479.014.327.02 1.675.02 2.021z"/></svg>