<?xml version="1.0" encoding="UTF-8"?>
<svg xmlns="http://www.w3.org/2000/svg" id="Layer_1" data-name="Layer 1" viewBox="0 0 24 24">
  <path d="M21.963,6.205c-.662-1.984-2.233-3.567-4.205-4.233-3.821-1.291-7.695-1.291-11.517,0-1.971,.666-3.543,2.249-4.204,4.233-1.282,3.845-1.282,7.745,0,11.59,.662,1.984,2.233,3.567,4.205,4.233,1.911,.646,3.834,.969,5.758,.969,1.924,0,3.848-.323,5.758-.969,1.971-.666,3.543-2.249,4.204-4.233,1.282-3.845,1.282-7.745,0-11.59Zm-.949,11.273c-.562,1.689-1.899,3.036-3.576,3.602-3.608,1.22-7.268,1.22-10.876,0-1.676-.566-3.013-1.913-3.576-3.602-1.211-3.635-1.211-7.322,0-10.957,.562-1.689,1.899-3.036,3.576-3.602,1.804-.61,3.621-.915,5.438-.915s3.634,.305,5.438,.915c1.676,.566,3.013,1.913,3.576,3.602,1.211,3.635,1.211,7.322,0,10.957Z"/>
  <path d="M12.19,7.899c-.119-.048-.253-.05-.372-.003-.077,.03-1.909,.772-3.276,3.54-.123,.248-.021,.548,.227,.67,.25,.124,.549,.021,.67-.227,.696-1.409,1.503-2.208,2.062-2.633v6.393c0,.276,.224,.5,.5,.5s.5-.224,.5-.5v-6.384c.562,.43,1.372,1.233,2.06,2.624,.087,.176,.264,.278,.449,.278,.074,0,.15-.017,.221-.052,.248-.122,.349-.422,.227-.67-1.325-2.683-3.072-3.457-3.267-3.537Z"/>
</svg>
