<svg id="Layer_1" viewBox="0 0 24 24" xmlns="http://www.w3.org/2000/svg" data-name="Layer 1"><path d="m16.099 5.799c-.165-.221-.12-.534.101-.7.22-.165.533-.121.7.101.613.818 1.33 1.547 2.099 2.218v-5.918c0-.276.224-.5.5-.5s.5.224.5.5v5.918c.77-.67 1.486-1.4 2.099-2.218.167-.222.48-.265.7-.101.221.166.266.479.101.7-.882 1.176-1.925 2.219-3.1 3.1-.178.133-.422.133-.6 0-1.176-.882-2.219-1.925-3.1-3.1zm-11.898 3.101c.178.133.422.133.6 0 1.176-.882 2.219-1.925 3.1-3.1.165-.221.12-.534-.101-.7-.22-.164-.533-.121-.7.101-.613.818-1.33 1.547-2.099 2.218v-5.919c0-.276-.224-.5-.5-.5s-.5.224-.5.5v5.918c-.77-.67-1.486-1.4-2.099-2.218-.167-.222-.48-.266-.7-.101-.221.166-.266.479-.101.7.882 1.176 1.925 2.219 3.1 3.1zm5.799.099c0-1.346.654-2 2-2s2 .654 2 2-.654 2-2 2-2-.654-2-2zm1 0c0 .794.206 1 1 1s1-.206 1-1-.206-1-1-1-1 .206-1 1zm-5.999 5c1.346 0 2 .654 2 2s-.654 2-2 2-2-.654-2-2 .654-2 2-2zm0 1c-.794 0-1 .206-1 1s.206 1 1 1 1-.206 1-1-.206-1-1-1zm13.998-1c1.346 0 2 .654 2 2s-.654 2-2 2-2-.654-2-2 .654-2 2-2zm0 1c-.794 0-1 .206-1 1s.206 1 1 1 1-.206 1-1-.206-1-1-1zm-3.499 0c.324.005.574-.323.481-.635-.594-2.12-2.556-2.365-3.981-2.365s-3.387.245-3.981 2.365c-.074.266.081.542.347.616.271.076.543-.081.616-.347.237-.849.768-1.635 3.018-1.635s2.781.786 3.018 1.635c.062.221.263.365.481.365zm-10.499 4c-2.607 0-3.836 1.07-3.984 3.468-.017.276.192.514.468.53.293.029.514-.193.53-.468.114-1.846.924-2.531 2.986-2.531s2.872.685 2.986 2.531c.017.265.236.469.499.469.287.001.517-.244.499-.531-.148-2.398-1.377-3.468-3.984-3.468zm13.998 0c-2.607 0-3.836 1.07-3.984 3.468-.017.276.192.514.468.53.297.029.513-.193.53-.468.114-1.846.924-2.531 2.986-2.531s2.872.685 2.986 2.531c.017.265.236.469.499.469.287.001.517-.244.499-.531-.148-2.398-1.377-3.468-3.984-3.468z"/></svg>