<svg id="Layer_1" viewBox="0 0 24 24" xmlns="http://www.w3.org/2000/svg" data-name="Layer 1"><path d="m11.773 18.418c-.227.151-.54.088-.691-.145-.151-.23-.087-.541.145-.691 2.13-1.394 3.899-3.109 5.306-5.082h-15.033c-.276 0-.5-.224-.5-.5s.224-.5.5-.5h15.032c-1.407-1.973-3.175-3.688-5.306-5.082-.231-.15-.296-.461-.145-.691.151-.231.464-.296.691-.145 2.526 1.652 4.595 3.721 6.147 6.148.105.164.105.375 0 .539-1.553 2.428-3.621 4.496-6.147 6.148zm10.216-16.021c-.038-.183-.175-.329-.354-.379-.104-.029-2.586-.715-6.092-1.017-.266-.02-.517.18-.541.455-.023.275.18.518.455.541 2.728.235 4.859.72 5.613.907.215 1.115.93 5.136.93 9.095s-.715 7.979-.93 9.095c-.754.188-2.886.672-5.613.907-.275.023-.479.266-.455.541.022.261.241.457.497.457.015 0 .029 0 .044-.002 3.506-.302 5.987-.987 6.092-1.017.18-.05.316-.196.354-.379.01-.048 1.011-4.862 1.011-9.603s-1.001-9.555-1.011-9.603z"/></svg>