<?xml version="1.0" encoding="UTF-8"?>
<svg xmlns="http://www.w3.org/2000/svg" id="Layer_1" data-name="Layer 1" viewBox="0 0 24 24">
  <path d="M12.186,22.964c.078-.031,1.931-.803,3.314-3.677,.119-.248,.014-.547-.234-.667-.249-.12-.548-.015-.667,.234-.709,1.475-1.532,2.309-2.1,2.75V2.405c.571,.447,1.398,1.285,2.1,2.743,.12,.249,.418,.354,.667,.234,.248-.12,.353-.419,.234-.667-1.341-2.787-3.109-3.591-3.306-3.674-.122-.051-.259-.052-.381-.003-.078,.031-1.931,.803-3.314,3.677-.034,.07-.049,.144-.049,.216,0,.186,.104,.365,.283,.451,.249,.12,.548,.015,.667-.234,.709-1.475,1.532-2.309,2.1-2.75V21.596c-.571-.447-1.398-1.285-2.1-2.743-.12-.249-.418-.354-.667-.234-.179,.086-.283,.265-.283,.451,0,.073,.016,.146,.049,.216,1.341,2.787,3.109,3.591,3.306,3.674,.122,.051,.259,.052,.381,.003Z"/>
</svg>
