<?xml version="1.0" encoding="UTF-8"?>
<svg xmlns="http://www.w3.org/2000/svg" id="Layer_1" data-name="Layer 1" viewBox="0 0 24 24">
  <path d="M22.037,6.18c-.032-.05-.072-.094-.12-.129-.14-.105-3.473-2.524-8.627,.32-.242,.133-.33,.438-.196,.679,.133,.242,.439,.329,.679,.197,3.562-1.963,6.086-1.158,7.08-.667l-7.178,7.081c-.501,.498-1.136,.757-1.82,.73-.677-.028-1.304-.344-1.766-.888-.644-.76-1.527-1.2-2.486-1.241-.945-.043-1.866,.323-2.604,1.062l-3.888,4.862c-.172,.216-.146,.542,.078,.703,.314,.225,.604,.045,.703-.078l3.85-4.82c.502-.499,1.15-.757,1.82-.729,.677,.028,1.304,.344,1.766,.888,.644,.76,1.526,1.2,2.485,1.24,.972,.037,1.868-.323,2.566-1.019l7.122-7.025c.464,1.158,1.112,3.854-.667,7.601-.119,.249-.018,.559,.236,.666,.338,.142,.581-.057,.666-.237,2.615-5.503,.397-9.048,.302-9.196Z"/>
</svg>
