<svg id="Layer_1" viewBox="0 0 24 24" xmlns="http://www.w3.org/2000/svg" data-name="Layer 1"><path d="m21.854 2.853-17.77 17.831c2.69.465 5.465.409 8.271-.181.265-.062.535.115.592.387.057.27-.116.535-.387.592-1.636.345-3.266.517-4.875.517s-3.203-.172-4.765-.518c-.19-.042-.339-.191-.38-.382-.686-3.14-.686-6.403 0-9.7.057-.271.324-.447.591-.388.271.056.444.32.388.591-.592 2.852-.643 5.676-.166 8.408.007-.008.009-.018.016-.025l17.777-17.838c.195-.197.512-.195.707-.002.196.195.196.512.002.707z"/></svg>