<?xml version="1.0" encoding="UTF-8"?>
<svg xmlns="http://www.w3.org/2000/svg" id="Layer_1" data-name="Layer 1" viewBox="0 0 24 24">
  <path d="M2.332,3.039L13.334,14.041c.098,.098,.408,.281,.707,0,.201-.189,.195-.512,0-.707L3.037,2.329c1.064-.297,3.264-.658,6.097,.246,.266,.085,.545-.062,.628-.325,.083-.263-.062-.544-.325-.628-4.396-1.398-7.405-.013-7.531,.046-.104,.049-.188,.133-.237,.237-.06,.126-1.447,3.134-.046,7.531,.068,.212,.265,.365,.477,.348,.439-.034,.56-.389,.477-.652-.897-2.817-.539-5.025-.243-6.094Z"/>
  <path d="M13.688,4.375c-1.317,0-2.437,.108-3.422,.331-.269,.061-.438,.329-.377,.598,.062,.269,.331,.438,.598,.377,.912-.207,1.959-.307,3.202-.307,5.905,0,8.313,2.408,8.313,8.313s-2.408,8.313-8.313,8.313-8.312-2.408-8.312-8.313c0-1.197,.107-2.269,.319-3.187,.062-.269-.106-.538-.375-.6-.268-.061-.538,.106-.6,.375-.229,.992-.345,2.14-.345,3.412,0,8.254,4.977,9.313,9.312,9.313s9.313-1.059,9.313-9.313S18.024,4.375,13.688,4.375Z"/>
</svg>
