<?xml version="1.0" encoding="UTF-8"?>
<svg xmlns="http://www.w3.org/2000/svg" id="Layer_1" data-name="Layer 1" viewBox="0 0 24 24">
  <path d="M19.904,13.944c-.247-.125-.547-.029-.673,.217-2.426,4.736-5.411,6.808-6.732,7.54V2h7.122c.276,0,.5-.224,.5-.5s-.224-.5-.5-.5H4.379c-.276,0-.5,.224-.5,.5s.224,.5,.5,.5h7.12V21.695c-1.322-.742-4.323-2.833-6.73-7.534-.126-.246-.426-.344-.673-.217-.246,.125-.343,.427-.217,.673,3.318,6.479,7.749,8.275,7.936,8.348,.059,.023,.122,.035,.185,.035,.06,0,.12-.01,.176-.032,.186-.07,4.586-1.792,7.945-8.351,.126-.246,.029-.547-.217-.673Z"/>
</svg>
