<?xml version="1.0" encoding="UTF-8"?>
<svg xmlns="http://www.w3.org/2000/svg" id="Layer_1" data-name="Layer 1" viewBox="0 0 24 24">
  <path d="M22.028,6.242c-.667-1.972-2.249-3.543-4.233-4.204-3.845-1.282-7.743-1.282-11.59,0-1.984,.661-3.566,2.233-4.233,4.205-1.291,3.821-1.291,7.696,0,11.517,.667,1.972,2.249,3.543,4.233,4.204,1.923,.641,3.858,.961,5.795,.961s3.872-.32,5.795-.961c1.984-.661,3.566-2.233,4.233-4.205,1.291-3.821,1.291-7.696,0-11.517Zm-.947,11.196c-.567,1.676-1.914,3.013-3.603,3.576-3.635,1.211-7.322,1.211-10.957,0-1.688-.562-3.035-1.899-3.603-3.576-1.219-3.608-1.219-7.268,0-10.876,.567-1.676,1.914-3.013,3.603-3.576,3.635-1.211,7.322-1.211,10.957,0,1.688,.562,3.035,1.899,3.603,3.576,1.219,3.608,1.219,7.268,0,10.876Z"/>
  <path d="M15.639,11.499h-6.384c.43-.562,1.233-1.372,2.624-2.06,.247-.122,.349-.422,.227-.67-.123-.249-.425-.348-.67-.227-2.683,1.325-3.457,3.072-3.537,3.267-.048,.119-.05,.252-.003,.372,.03,.077,.772,1.909,3.54,3.276,.071,.035,.146,.052,.222,.052,.184,0,.361-.102,.448-.278,.122-.248,.021-.548-.227-.67-1.409-.696-2.208-1.503-2.633-2.062h6.393c.276,0,.5-.224,.5-.5s-.224-.5-.5-.5Z"/>
</svg>
