<?xml version="1.0" encoding="UTF-8"?>
<svg xmlns="http://www.w3.org/2000/svg" id="Layer_1" data-name="Layer 1" viewBox="0 0 24 24">
  <path d="M21.712,2.583c-.046-.175-.183-.313-.357-.359C15.147,.6,8.853,.6,2.646,2.224c-.176,.046-.312,.184-.357,.359-1.614,6.249-1.614,12.585,0,18.834,.045,.175,.182,.313,.357,.359,3.104,.812,6.229,1.219,9.354,1.219s6.251-.406,9.354-1.219c.175-.046,.312-.184,.357-.359,1.613-6.249,1.613-12.585,0-18.834Zm-.896,18.299c-5.85,1.483-11.78,1.483-17.632,0C1.709,14.986,1.709,9.014,3.184,3.118c5.852-1.483,11.782-1.483,17.632,0,1.475,5.896,1.475,11.868,0,17.764Z"/>
  <path d="M12.19,7.899c-.12-.049-.252-.05-.372-.003-.077,.03-1.909,.772-3.276,3.54-.123,.248-.021,.548,.227,.67,.25,.123,.548,.021,.67-.227,.696-1.409,1.503-2.208,2.062-2.633v6.393c0,.276,.224,.5,.5,.5s.5-.224,.5-.5v-6.384c.562,.43,1.372,1.232,2.059,2.624,.087,.177,.265,.279,.448,.279,.075,0,.15-.017,.222-.052,.247-.122,.349-.422,.227-.669-1.325-2.683-3.072-3.458-3.267-3.537Z"/>
</svg>
