<?xml version="1.0" encoding="UTF-8"?>
<svg xmlns="http://www.w3.org/2000/svg" id="Layer_1" data-name="Layer 1" viewBox="0 0 24 24">
  <path d="M22.726,7.264c-.033-.274-.28-.472-.556-.438-.274,.033-.47,.282-.438,.556,.178,1.488,.268,2.987,.268,4.455,0,4.465-.855,8.046-1.114,9.027-1.009,.26-4.72,1.136-8.886,1.136s-7.88-.876-8.887-1.136c-.259-.973-1.113-4.52-1.113-9.027,0-1.45,.089-2.938,.266-4.424,.033-.274-.164-.523-.438-.556-.277-.037-.523,.164-.556,.438-.181,1.524-.273,3.053-.273,4.542,0,5.434,1.179,9.414,1.229,9.581,.049,.163,.178,.29,.341,.337,.178,.051,4.413,1.246,9.43,1.246s9.251-1.195,9.429-1.246c.164-.047,.293-.175,.342-.338,.05-.168,1.229-4.191,1.229-9.579,0-1.507-.092-3.046-.274-4.573Z"/>
  <path d="M5.937,7.743c.245,.126,.547,.03,.674-.215,1.62-3.133,3.804-4.641,4.889-5.236v13.908c0,.276,.224,.5,.5,.5s.5-.224,.5-.5V2.292c1.085,.595,3.27,2.103,4.889,5.236,.089,.172,.349,.374,.674,.215,.248-.121,.341-.429,.215-.674C15.858,2.388,12.317,1.083,12.168,1.029c-.108-.038-.228-.038-.336,0-.149,.054-3.69,1.359-6.11,6.04-.126,.245-.031,.547,.215,.674Z"/>
</svg>
