<?xml version="1.0" encoding="UTF-8"?>
<svg xmlns="http://www.w3.org/2000/svg" id="Layer_1" data-name="Layer 1" viewBox="0 0 24 24">
  <path d="M7.765,16.085c.31-1.175,.483-2.379,.521-3.586l7.428,.002c.038,1.207,.211,2.41,.521,3.584,.07,.266,.341,.425,.607,.356,3.949-1.012,6.066-4.147,6.085-4.178,.116-.186,.083-.39,0-.527-.019-.031-2.136-3.166-6.085-4.178-.266-.068-.538,.091-.607,.356-.31,1.175-.483,2.379-.521,3.586l-7.428-.002c-.038-1.207-.211-2.41-.521-3.584-.07-.266-.341-.425-.607-.356-3.949,1.012-6.066,4.147-6.085,4.178-.116,.186-.083,.39,0,.527,.019,.031,2.136,3.166,6.085,4.178,.266,.068,.538-.091,.607-.356Zm9.315-7.419c2.62,.83,4.264,2.659,4.8,3.334-.539,.677-2.183,2.504-4.8,3.334-.499-2.191-.499-4.477,0-6.668ZM2.12,12c.539-.677,2.183-2.504,4.8-3.334,.499,2.191,.499,4.477,0,6.668-2.62-.83-4.264-2.659-4.8-3.334Z"/>
</svg>
