<svg id="Layer_1" viewBox="0 0 24 24" xmlns="http://www.w3.org/2000/svg" data-name="Layer 1"><path d="m9.9 5.2c.166.221.121.534-.1.7-.219.164-.534.121-.7-.101-.903-1.204-1.948-2.289-3.1-3.252v19.953c0 .276-.224.5-.5.5s-.5-.224-.5-.5v-19.953c-1.152.963-2.197 2.049-3.1 3.252-.165.221-.479.267-.7.101s-.266-.479-.1-.7c1.166-1.555 2.546-2.934 4.1-4.1.178-.133.422-.133.6 0 1.555 1.166 2.934 2.545 4.1 4.101zm5.461 3.058c-.015-.067-.361-1.666-.361-3.258s.347-3.19.361-3.258c.042-.19.19-.339.381-.381.067-.015 1.666-.361 3.258-.361s3.19.347 3.258.361c.19.042.339.19.381.381.015.067.361 1.666.361 3.258s-.347 3.19-.361 3.258c-.042.19-.19.339-.381.381-.067.015-1.666.361-3.258.361s-3.19-.347-3.258-.361c-.19-.042-.339-.19-.381-.381zm.639-3.258c0 1.079.178 2.193.275 2.725.531.098 1.646.275 2.725.275s2.193-.178 2.725-.275c.098-.531.275-1.646.275-2.725s-.178-2.193-.275-2.725c-.531-.098-1.646-.275-2.725-.275s-2.193.178-2.725.275c-.098.531-.275 1.646-.275 2.725zm6.538 8.843c.019.086.462 2.126.462 4.157s-.443 4.071-.462 4.157c-.042.19-.19.339-.381.381-.086.019-2.126.462-4.157.462s-4.071-.443-4.157-.462c-.19-.042-.339-.19-.381-.381-.019-.086-.462-2.126-.462-4.157s.443-4.071.462-4.157c.042-.19.19-.339.381-.381.086-.019 2.126-.462 4.157-.462s4.071.443 4.157.462c.19.042.339.19.381.381zm-.538 4.157c0-1.467-.254-2.982-.375-3.625-.643-.121-2.158-.375-3.625-.375s-2.982.254-3.625.375c-.121.643-.375 2.158-.375 3.625s.254 2.982.375 3.625c.643.121 2.158.375 3.625.375s2.982-.254 3.625-.375c.121-.643.375-2.158.375-3.625z"/></svg>