<?xml version="1.0" encoding="UTF-8"?>
<svg xmlns="http://www.w3.org/2000/svg" id="Layer_1" data-name="Layer 1" viewBox="0 0 24 24">
  <path d="M22.5,3.879c-.276,0-.5,.224-.5,.5v7.12H2.305c.742-1.322,2.833-4.323,7.534-6.73,.246-.125,.343-.427,.217-.673s-.427-.344-.673-.217C2.905,7.197,1.108,11.628,1.035,11.815c-.045,.115-.047,.245-.003,.361,.07,.186,1.792,4.586,8.351,7.945,.073,.038,.151,.055,.228,.055,.182,0,.357-.099,.445-.272,.126-.246,.029-.547-.217-.673-4.736-2.426-6.808-5.411-7.54-6.732H22v7.122c0,.276,.224,.5,.5,.5s.5-.224,.5-.5V4.379c0-.276-.224-.5-.5-.5Z"/>
</svg>
