<?xml version="1.0" encoding="UTF-8"?>
<svg xmlns="http://www.w3.org/2000/svg" id="Layer_1" data-name="Layer 1" viewBox="0 0 24 24">
  <path d="M21.428,9.109c-.084,.263,.055,.639,.477,.652,.212,.007,.409-.136,.477-.348,1.396-4.385,.014-7.385-.046-7.51-.05-.104-.134-.188-.238-.237-.125-.061-3.126-1.444-7.51-.046-.264,.084-.409,.365-.325,.628,.084,.263,.365,.41,.628,.325,2.805-.893,5.006-.536,6.074-.243L1.146,22.146c-.195,.195-.201,.518,0,.707,.294,.277,.609,.098,.707,0L21.674,3.034c.296,1.061,.653,3.253-.246,6.076Z"/>
  <path d="M21.753,14.262c-.264,.084-.409,.365-.325,.628,.894,2.806,.537,5.006,.243,6.073l-6.167-6.168c-.195-.195-.512-.195-.707,0s-.195,.512,0,.707l6.169,6.17c-1.062,.296-3.254,.654-6.076-.245-.263-.085-.544,.062-.628,.325-.084,.263,.062,.544,.325,.628,1.46,.465,2.767,.622,3.865,.622,2.198,0,3.562-.628,3.645-.668,.104-.049,.188-.133,.238-.237,.06-.125,1.442-3.125,.046-7.51-.083-.262-.367-.409-.628-.325Z"/>
  <path d="M8.497,9.204c.098,.098,.39,.28,.707,0,.207-.183,.195-.512,0-.707L1.854,1.146c-.195-.195-.512-.195-.707,0s-.195,.512,0,.707l7.35,7.35Z"/>
</svg>
