<svg id="Layer_1" viewBox="0 0 24 24" xmlns="http://www.w3.org/2000/svg" data-name="Layer 1"><path d="m22.208 8.798c-.512-.515-1.192-.798-1.916-.798-.724 0-1.405.284-1.913.796l-4.918 4.865c-.844.856-1.338 2-1.391 3.22l-.068 1.597c-.019.285.237.54.521.521l1.578-.07c1.208-.054 2.339-.556 3.181-1.41l4.929-4.875c1.053-1.061 1.052-2.786-.001-3.846zm-.705 3.139-4.93 4.876c-.668.678-1.563 1.075-2.518 1.118l-1.032.046.045-1.052c.042-.972.434-1.881 1.1-2.557l4.917-4.864c.322-.325.75-.503 1.207-.504.456 0 .884.179 1.207.503.667.671.667 1.765.004 2.434zm-9.503-5.437c0-3.855-1.645-5.5-5.5-5.5s-5.5 1.645-5.5 5.5 1.645 5.5 5.5 5.5 5.5-1.645 5.5-5.5zm-10 0c0-3.28 1.22-4.5 4.5-4.5s4.5 1.22 4.5 4.5-1.22 4.5-4.5 4.5-4.5-1.22-4.5-4.5zm4.167 1.9c-.178.133-.422.134-.6 0-.686-.514-1.341-1.077-1.95-1.674-.197-.193-.2-.51-.007-.707.193-.198.51-.201.707-.007.488.479 1.008.935 1.55 1.358 1.018-.797 1.953-1.701 2.782-2.691.177-.211.492-.241.704-.062.212.177.24.493.062.704-.959 1.146-2.052 2.182-3.248 3.079zm14.627 9.153c-.251 2.347-.64 4.129-.656 4.204-.042.19-.19.339-.381.381-.161.035-3.969.862-7.757.862s-7.597-.827-7.757-.862c-.19-.042-.339-.19-.381-.381-.035-.161-.862-3.969-.862-7.757 0-.276.224-.5.5-.5s.5.224.5.5c0 3.068.577 6.234.773 7.227.993.197 4.162.773 7.227.773s6.235-.577 7.227-.773c.122-.613.389-2.054.574-3.78.029-.274.27-.474.55-.444.274.029.473.276.444.55zm-6.793-11.985c.022-.275.273-.476.539-.458 1.633.133 3.102.359 4.046.526.272.048.454.307.405.579-.046.273-.313.454-.579.405-.923-.163-2.359-.384-3.954-.514-.275-.022-.48-.264-.458-.539z"/></svg>