<svg id="Layer_1" viewBox="0 0 24 24" xmlns="http://www.w3.org/2000/svg" data-name="Layer 1"><path d="m8 6.5c0 .276-.224.5-.5.5h-2c-.276 0-.5-.224-.5-.5s.224-.5.5-.5h2c.276 0 .5.224.5.5zm-.5 7.5h-2c-.276 0-.5.224-.5.5s.224.5.5.5h2c.276 0 .5-.224.5-.5s-.224-.5-.5-.5zm8.5-7.5c0-.276-.224-.5-.5-.5h-5c-.276 0-.5.224-.5.5s.224.5.5.5h5c.276 0 .5-.224.5-.5zm-5.5 3.5c-.276 0-.5.224-.5.5s.224.5.5.5h3c.276 0 .5-.224.5-.5s-.224-.5-.5-.5zm-3 0h-2c-.276 0-.5.224-.5.5s.224.5.5.5h2c.276 0 .5-.224.5-.5s-.224-.5-.5-.5zm15.354 12.854c-.195.195-.512.195-.707 0l-2.719-2.719c-.742.555-1.718.865-2.928.865-2.859 0-4.5-1.641-4.5-4.5s1.641-4.5 4.5-4.5 4.5 1.641 4.5 4.5c0 1.21-.31 2.186-.865 2.928l2.719 2.719c.195.195.195.512 0 .707zm-6.354-2.854c2.322 0 3.5-1.178 3.5-3.5s-1.178-3.5-3.5-3.5-3.5 1.178-3.5 3.5 1.178 3.5 3.5 3.5zm2.249-4.934c-.237-.137-.544-.056-.683.185-.473.823-1.208 1.607-2.003 2.148-.402-.302-.8-.711-1.162-1.198-.166-.223-.479-.266-.7-.103-.222.165-.268.479-.103.7.513.688 1.096 1.249 1.687 1.624.16.1.362.104.524.006 1.052-.631 2.008-1.607 2.624-2.68.138-.239.055-.545-.185-.683zm-5.303 6.766c-1.038.111-2.029.168-2.946.168-3.273 0-6.591-.726-7.578-.961-.221-1.039-.922-4.695-.922-9.039s.701-8 .922-9.039c.987-.235 4.301-.961 7.578-.961s6.591.726 7.579.961c.186.877.716 3.617.875 7.062.013.275.249.502.522.476.275-.013.488-.246.476-.522-.196-4.274-.935-7.411-.966-7.543-.043-.179-.181-.32-.359-.367-.166-.044-4.108-1.066-8.127-1.066s-7.961 1.021-8.127 1.065c-.179.047-.316.188-.359.367-.041.174-1.014 4.318-1.014 9.566s.973 9.393 1.014 9.566c.043.179.181.32.359.367.166.044 4.108 1.066 8.127 1.066.952 0 1.979-.059 3.054-.174.274-.029.473-.276.443-.551s-.279-.469-.551-.443z"/></svg>