<svg id="Layer_1" viewBox="0 0 24 24" xmlns="http://www.w3.org/2000/svg" data-name="Layer 1"><path d="m21.8 14.406c-.031-.167-.145-.307-.301-.372l-1.516-.627c.011-.452.017-.921.017-1.408 0-6.377-1.007-9.734-1.122-10.096-.056-.176-.204-.307-.386-.34-.919-.169-3.392-.563-6.492-.563-5.057 0-8.455 1.028-8.598 1.072-.154.048-.275.167-.327.32-.044.132-1.075 3.3-1.075 9.608s1.031 9.477 1.075 9.608c.052.153.173.272.327.32.143.043 3.541 1.072 8.598 1.072s8.602-1.051 8.75-1.096c.118-.035.219-.113.283-.219.032-.054.799-1.342.939-3.903.085-1.543-.047-2.688-.173-3.376zm-17.849 6.637c-.233-.853-.951-3.891-.951-9.043s.718-8.19.951-9.043c.874-.233 3.92-.957 8.049-.957.678 0 1.324.019 1.93.051.202.696 1.07 4.038 1.07 9.949s-.861 9.224-1.068 9.941c-.618.034-1.256.059-1.932.059-4.129 0-7.175-.724-8.049-.957zm17.024-3.315c-.099 1.793-.53 2.884-.713 3.274-.608.163-2.558.64-5.273.87.316-1.208 1.011-4.474 1.011-9.872s-.697-8.673-1.013-9.877c1.327.107 2.385.262 3.021.37.264.96.991 4.1.991 9.507 0 .602-.009 1.175-.026 1.722-.007.208.116.398.309.478l1.578.653c.1.648.184 1.616.114 2.875zm-8.975-8.228c0 .276-.224.5-.5.5h-5c-.276 0-.5-.224-.5-.5s.224-.5.5-.5h5c.276 0 .5.224.5.5zm1-3c0 .276-.224.5-.5.5h-7c-.276 0-.5-.224-.5-.5s.224-.5.5-.5h7c.276 0 .5.224.5.5z"/></svg>