<svg id="Layer_1" viewBox="0 0 24 24" xmlns="http://www.w3.org/2000/svg" data-name="Layer 1"><path d="m13.457 21.894c-.809.07-1.605.106-2.367.106-3.775 0-7.136-.867-8.076-1.132-.239-.937-1.014-4.318-1.014-8.868s.77-8.201 1.014-9.247c.99-.189 4.262-.753 7.986-.753.747 0 1.435.037 2.047.104-.17 3.696.231 5.615.249 5.697.044.198.202.35.401.385.098.017 1.828.315 3.99.315.661 0 1.365-.037 2.073-.109.091.711.164 1.425.202 2.135.015.275.259.49.525.473.275-.015.487-.25.473-.526-.053-1.016-.161-2.042-.319-3.051-.018-.109-.069-.209-.149-.285l-6.04-5.745c-.068-.065-.153-.109-.246-.128-.873-.176-1.952-.265-3.206-.265-4.561 0-8.343.802-8.501.836-.184.04-.331.179-.378.361-.046.173-1.12 4.302-1.12 9.803s1.078 9.252 1.124 9.409c.047.16.171.286.33.336.163.051 4.042 1.254 8.636 1.254.791 0 1.616-.037 2.453-.11.275-.024.479-.266.455-.542-.023-.275-.272-.486-.541-.455zm5.89-14.464c-2.194.182-4.322-.061-5.133-.176-.1-.661-.283-2.313-.181-4.878l5.313 5.054zm-8.847 4.57h-5c-.276 0-.5-.224-.5-.5s.224-.5.5-.5h5c.276 0 .5.224.5.5s-.224.5-.5.5zm-1 3c.276 0 .5.224.5.5s-.224.5-.5.5h-4c-.276 0-.5-.224-.5-.5s.224-.5.5-.5zm1.5-7.5c0 .276-.224.5-.5.5h-5c-.276 0-.5-.224-.5-.5s.224-.5.5-.5h5c.276 0 .5.224.5.5zm11.854 14.646-2.719-2.719c.555-.741.865-1.718.865-2.928 0-2.86-1.641-4.5-4.5-4.5s-4.5 1.64-4.5 4.5 1.641 4.5 4.5 4.5c1.21 0 2.186-.31 2.928-.865l2.719 2.719c.195.195.512.195.707 0s.195-.512 0-.707zm-9.854-5.646c0-2.322 1.178-3.5 3.5-3.5s3.5 1.178 3.5 3.5-1.178 3.5-3.5 3.5-3.5-1.178-3.5-3.5zm5.934-.751c-.616 1.072-1.572 2.049-2.624 2.68-.162.097-.365.095-.524-.006-.592-.375-1.175-.937-1.687-1.624-.165-.221-.119-.535.103-.699.221-.165.533-.121.7.103.362.486.76.896 1.162 1.198.795-.541 1.529-1.326 2.003-2.149.138-.241.444-.322.683-.185.239.138.322.443.185.683z"/></svg>