<svg id="Layer_1" viewBox="0 0 24 24" xmlns="http://www.w3.org/2000/svg" data-name="Layer 1"><path d="m22.5 15h-2.598c-.342-1.026-.706-2.024-1.094-3h3.692c.276 0 .5-.224.5-.5s-.224-.5-.5-.5h-4.103c-1.515-3.571-3.419-6.817-6.019-9.827-.189-.219-.566-.219-.756 0-2.601 3.01-4.504 6.256-6.019 9.827h-4.103c-.276 0-.5.224-.5.5s.224.5.5.5h3.692c-.388.976-.752 1.974-1.094 3h-2.598c-.276 0-.5.224-.5.5s.224.5.5.5h2.275c-.64 2.024-1.214 4.145-1.76 6.381-.065.269.099.539.366.604.273.065.539-.099.604-.366.569-2.328 1.168-4.527 1.841-6.619h14.348c.673 2.092 1.272 4.291 1.841 6.619.064.269.343.433.604.366.268-.065.432-.336.366-.604-.546-2.236-1.12-4.357-1.76-6.381h2.275c.276 0 .5-.224.5-.5s-.224-.5-.5-.5zm-10.5-12.728c2.238 2.684 3.93 5.574 5.304 8.728h-10.608c1.374-3.154 3.065-6.044 5.304-8.728zm-6.843 12.728c.349-1.026.72-2.026 1.117-3h11.452c.397.974.768 1.974 1.117 3z"/></svg>