<?xml version="1.0" encoding="UTF-8"?>
<svg xmlns="http://www.w3.org/2000/svg" id="Layer_1" data-name="Layer 1" viewBox="0 0 24 24">
  <path d="M12,10.861c-1.619,0-3.771,.388-3.771,3.74,0,2.517,1.234,3.739,3.771,3.739,1.619,0,3.771-.388,3.771-3.739s-2.152-3.74-3.771-3.74Zm0,6.479c-1.995,0-2.771-.768-2.771-2.739,0-2.282,1.061-2.74,2.771-2.74s2.771,.458,2.771,2.74-1.061,2.739-2.771,2.739Z"/>
  <path d="M20.67,14.2c-.319-1.764-.931-2.784-1.471-3.686-.507-.847-.907-1.516-.907-2.613,0-4.321-2.352-6.901-6.292-6.901S5.708,3.58,5.708,7.901c0,1.098-.4,1.767-.907,2.613-.54,.901-1.151,1.922-1.471,3.686-.445,2.458-.022,4.48,1.257,6.012,1.502,1.798,4.135,2.788,7.413,2.788s5.911-.99,7.413-2.788c1.279-1.531,1.702-3.554,1.257-6.012Zm-2.024,5.37c-1.309,1.566-3.668,2.43-6.646,2.43s-5.337-.863-6.646-2.43c-1.08-1.293-1.43-3.04-1.04-5.192,.286-1.584,.848-2.521,1.344-3.35,.54-.901,1.049-1.753,1.049-3.127,0-3.806,1.879-5.901,5.292-5.901s5.292,2.096,5.292,5.901c0,1.374,.51,2.226,1.049,3.127,.496,.828,1.058,1.766,1.344,3.35,.39,2.152,.04,3.899-1.04,5.192Z"/>
</svg>
