<svg id="Layer_1" viewBox="0 0 24 24" xmlns="http://www.w3.org/2000/svg" data-name="Layer 1"><path d="m14.96 10.562c1.736-.638 3.014-1.927 3.014-4.484 0-4.501-3.958-5.079-7.407-5.079-2.431 0-4.115.322-5.299 1.015-.121.07-.206.188-.236.325-.042.193-1.029 4.766-.939 9.264-.367 5.377.473 10.416.482 10.466.032.188.169.342.353.396 1.503.441 3.896.534 5.64.534 4.391 0 9.432-.73 9.432-6.421 0-3.795-2.244-5.379-5.04-6.016zm-8.996-7.789c1.021-.527 2.493-.773 4.604-.773 4.55 0 6.407 1.182 6.407 4.079s-1.856 4.078-6.407 4.078c-2.289 0-4.089.24-5.479.727.017-3.608.692-7.2.875-8.11zm4.604 19.227c-2.164 0-3.938-.146-5.055-.413-.169-1.146-.705-5.243-.439-9.633 1.314-.536 3.116-.797 5.495-.797 5.989 0 8.432 1.571 8.432 5.422s-2.443 5.421-8.432 5.421z"/></svg>