<svg id="Layer_1" viewBox="0 0 24 24" xmlns="http://www.w3.org/2000/svg" data-name="Layer 1"><path d="m21.979 7.832c-.051-.396-.315-1.175-.985-1.579-.356-.215-.964-.401-1.837-.074.081-.094-1.573.927-2.018 1.192-.01.005-.729.355-1.997.531.574-.654.858-1.603.858-2.901 0-2.767-1.233-4-4-4s-4 1.233-4 4c0 1.301.284 2.251.861 2.905-1.292-.174-2.026-.531-2.037-.535-.432-.265-2.059-1.287-1.981-1.192-.875-.327-1.482-.141-1.837.074-1.31.976-1.26 2.41-.393 3.539 1.315 1.639 3.043 2.333 4.389 2.623-.029.354.058.708.004 1.011-.213.146-2.954 2.077-3.006 4.933.033 1.916 1.493 3.261 2.064 3.848.471.505 1.137.795 1.829.795.4 0 1.206-.163 1.691-.775.258-.325.521-.904.308-1.813-.038-.163-.225-.589-.656-1.545-.076-.168-.145-.319-.192-.425.149-.214.502-.599.883-.885.329.194.963.444 2.074.444 1.136 0 1.773-.261 2.077-.441.382.288.736.673.88.878-.285.63-.884 1.96-.849 1.974-.213.909.049 1.488.308 1.813.485.612 1.292.775 1.691.775.692 0 1.358-.29 1.828-.794.571-.586 2.032-1.933 2.065-3.849-.053-2.857-2.794-4.786-3.006-4.932-.054-.303.033-.658.004-1.011 1.346-.29 3.078-.988 4.425-2.668.442-.53.645-1.229.556-1.915zm-9.979-5.832c2.215 0 3 .785 3 3s-.785 3-3 3-3-.785-3-3 .785-3 3-3zm-3.991 16.304c-.021.083-.02.17.003.253.11.302.839 1.859.906 2.083.098.417.059.741-.117.963-.229.29-.679.397-.908.397-.421 0-.811-.169-1.097-.478-.513-.532-1.755-1.646-1.795-3.165 0-1.868 1.684-3.403 2.3-3.902.261.659.748 1.536 1.818 2.467-.458.386-1.008.971-1.11 1.382zm5.65-1.669s-.437.365-1.659.365-1.655-.362-1.7-.4c-1.353-1.015-1.851-1.932-2.104-2.6h7.609c-.255.669-.759 1.592-2.145 2.635zm5.341 1.723c-.042 1.522-1.282 2.632-1.796 3.166-.286.308-.675.477-1.096.477-.229 0-.679-.107-.908-.397-.176-.222-.215-.546-.12-.952.07-.235.797-1.787.909-2.094.023-.083.024-.17.003-.253-.102-.41-.651-.995-1.108-1.381 1.073-.943 1.556-1.814 1.817-2.468.615.499 2.3 2.034 2.3 3.902zm1.607-9.192c-1.258 1.568-2.973 2.139-4.189 2.342-.223.037-.393.219-.416.443-.023.341.012.716-.015 1.05h-7.974c-.027-.334.007-.709-.015-1.05-.023-.224-.193-.406-.416-.443-1.217-.203-2.932-.774-4.237-2.4-.269-.322-.387-.73-.333-1.148.029-.227.193-.659.509-.85.241-.147.568-.145.959.001.139.062.862.516 1.25.759.351.22.639.393.645.394.06.03 1.485.736 3.91.736h3.394c2.424 0 3.85-.706 3.875-.721.04-.017.33-.188.684-.406.398-.245 1.14-.701 1.27-.759.402-.15.729-.152.97-.006.316.191.48.623.509.85.054.417-.064.825-.38 1.206z"/></svg>