<svg id="Layer_1" viewBox="0 0 24 24" xmlns="http://www.w3.org/2000/svg" data-name="Layer 1"><path d="m15.508 14c-.288-.019-.499.211-.508.484-.075 2.351-2.202 3.501-6.498 3.516-4.295-.014-6.422-1.161-6.502-3.508v-1.403c1.162 1.257 3.331 1.901 6.502 1.911 1.658-.005 3.054-.181 4.146-.521.264-.082.411-.362.329-.626-.081-.263-.358-.412-.626-.329-.998.311-2.294.471-3.85.476-4.3-.014-6.427-1.164-6.502-3.516v-1.395c1.162 1.257 3.331 1.901 6.501 1.911.35 0 .691-.009 1.023-.026.276-.014.488-.249.475-.524s-.255-.492-.523-.475c-.318.016-.645.024-.974.025-4.3-.015-6.427-1.165-6.502-3.484.072-2.317 2.26-3.5 6.498-3.516.693.002 1.348.04 1.943.11.258.036.523-.162.555-.438.033-.274-.163-.523-.438-.556-.633-.075-1.325-.115-2.061-.117-6.058.022-7.423 2.431-7.496 4.491 0 .003-.002.006-.002.009v12.016c.095 2.96 2.618 4.469 7.502 4.484 4.881-.017 7.403-1.525 7.498-4.5v-4c0-.273-.219-.495-.492-.5zm-.508 4.484c-.075 2.351-2.202 3.501-6.498 3.516-4.3-.014-6.427-1.164-6.502-3.5v-1.399c1.164 1.252 3.337 1.89 6.502 1.899 3.162-.011 5.335-.648 6.498-1.9v1.385zm-2.955-13.03c.284-3.081 1.967-4.454 5.455-4.454 2.16 0 3.62.542 4.491 1.667-.011-.367-.037-.733-.089-1.097-.039-.273.151-.526.425-.565.265-.041.526.151.565.425.144 1.008.144 2.03 0 3.038-.031.22-.204.393-.425.425-1.008.144-2.03.144-3.038 0-.273-.039-.464-.292-.425-.566.039-.273.298-.464.565-.424.671.096 1.347.107 2.023.061-.576-1.365-1.83-1.963-4.094-1.963-2.974 0-4.224.994-4.459 3.546-.024.259-.242.454-.497.454-.293.002-.528-.255-.499-.546zm10.91 2.092c-.284 3.081-1.967 4.454-5.455 4.454-2.16 0-3.62-.542-4.491-1.668.011.367.037.733.089 1.097.039.273-.151.526-.425.565-.267.04-.528-.15-.565-.425-.144-1.008-.144-2.03 0-3.038.031-.22.204-.393.425-.425 1.007-.144 2.029-.145 3.038 0 .273.039.464.292.425.566-.04.273-.299.461-.565.424-.671-.096-1.348-.107-2.023-.061.576 1.365 1.83 1.963 4.094 1.963 2.974 0 4.224-.994 4.459-3.546.025-.275.272-.48.544-.452.275.025.478.269.452.544z"/></svg>