<?xml version="1.0" encoding="UTF-8"?>
<svg xmlns="http://www.w3.org/2000/svg" id="Layer_1" data-name="Layer 1" viewBox="0 0 24 24">
  <path d="M19.568,13.112c-.02-.497-.05-1.052-.09-1.625-.198-2.81-1.952-5.182-4.378-6.293v-.92c0-1.71-1.389-3.102-3.104-3.102s-3.096,1.392-3.096,3.102v.921c-2.423,1.11-4.175,3.479-4.375,6.284-.041,.576-.072,1.133-.093,1.633-1.92,.161-3.433,1.778-3.433,3.752,0,2.071,1.682,3.755,3.748,3.755h.326c.04,.165,.067,.26,.072,.278,.025,.088,.074,.167,.141,.229,.075,.07,1.895,1.703,6.719,1.703,4.909,0,6.654-1.641,6.727-1.711,.062-.061,.108-.137,.132-.221,.005-.018,.032-.113,.072-.278h.316c2.066,0,3.748-1.685,3.748-3.765,0-1.964-1.513-3.581-3.432-3.742ZM9.9,4.273c0-1.159,.94-2.102,2.104-2.102,1.155,0,2.096,.943,2.096,2.102v.547c-.668-.196-1.372-.302-2.099-.302s-1.432,.106-2.101,.303v-.547Zm-4.377,7.276c.241-3.382,3.086-6.032,6.478-6.032s6.24,2.652,6.479,6.038c.071,1.023,.114,2.023,.114,2.675,0,1.61-.115,2.971-.252,4.018-1-2.477-3.501-4.283-6.342-4.283s-5.328,1.785-6.342,4.24c-.137-1.045-.252-2.393-.252-3.975,0-.654,.044-1.656,.117-2.682Zm-.775,8.069c-1.516,0-2.748-1.236-2.748-2.765,0-1.404,1.052-2.564,2.407-2.733,0,.038,0,.075,0,.111,0,2.389,.248,4.246,.457,5.387h-.115Zm1.429,.926c.042-3.031,2.691-5.578,5.823-5.578s5.778,2.561,5.805,5.603c-.581,.381-2.3,1.259-5.799,1.259s-5.264-.915-5.829-1.284Zm13.075-.926h-.107c.206-1.136,.449-2.986,.449-5.387,0-.036,0-.073,0-.111,1.355,.169,2.407,1.331,2.407,2.743,0,1.52-1.232,2.755-2.748,2.755Z"/>
  <path d="M10.37,10.37h3.26c.276,0,.5-.224,.5-.5s-.224-.5-.5-.5h-3.26c-.276,0-.5,.224-.5,.5s.224,.5,.5,.5Z"/>
</svg>
