<svg id="Layer_1" viewBox="0 0 24 24" xmlns="http://www.w3.org/2000/svg" data-name="Layer 1"><path d="m9.166 12.773c.624-.522 1.239-1.088 1.879-1.729.4-.4.764-.79 1.114-1.179l.709.709c.195.195.512.195.707 0s.195-.512 0-.707l-.758-.758c.488-.603.809-1.124.992-1.609h1.691c.276 0 .5-.224.5-.5s-.224-.5-.5-.5h-1.526c-.047-.593-.364-1.174-.943-1.823l1.073-1.073c.195-.195.195-.512 0-.707s-.512-.195-.707 0l-1.072 1.072c-.655-.588-1.234-.91-1.824-.955v-1.514c0-.276-.224-.5-.5-.5s-.5.224-.5.5v1.687c-.48.187-.999.512-1.605 1.001l-1.042-1.042c-.195-.195-.512-.195-.707 0s-.195.512 0 .707l.99.99c-.421.373-.822.741-1.187 1.106s-.732.765-1.106 1.187l-.99-.99c-.195-.195-.512-.195-.707 0s-.195.512 0 .707l1.042 1.042c-.49.606-.815 1.125-1.002 1.605h-1.687c-.276 0-.5.224-.5.5s.224.5.5.5h1.513c.045.591.367 1.169.955 1.824l-1.072 1.072c-.195.195-.195.512 0 .707s.512.195.707 0l1.073-1.073c.649.578 1.23.894 1.823.94v1.53c0 .276.224.5.5.5s.5-.224.5-.5v-1.691c.501-.189 1.038-.522 1.666-1.035zm-4.168-4.292c.567-.677 1.125-1.291 1.658-1.825.534-.534 1.148-1.091 1.82-1.654.84-.687 1.393-1.002 1.882-1.002.523 0 .974.359 1.625 1.011 1.271 1.271 1.438 1.782.023 3.514-.503.601-1.049 1.194-1.669 1.813-.619.62-1.212 1.166-1.809 1.665-1.734 1.418-2.247 1.251-3.518-.019-1.263-1.262-1.428-1.772-.013-3.503zm3.252-.481c0-.414.336-.75.75-.75s.75.336.75.75-.336.75-.75.75-.75-.336-.75-.75zm14.25 5.5h-1.513c-.045-.591-.367-1.169-.955-1.824l1.072-1.072c.195-.195.195-.512 0-.707s-.512-.195-.707 0l-1.073 1.073c-.649-.579-1.23-.897-1.823-.943v-1.526c0-.276-.224-.5-.5-.5s-.5.224-.5.5v1.691c-.501.189-1.038.521-1.666 1.035-.624.522-1.239 1.088-1.879 1.729-.4.4-.764.79-1.114 1.179l-.709-.709c-.195-.195-.512-.195-.707 0s-.195.512 0 .707l.758.758c-.488.603-.809 1.124-.992 1.609h-1.691c-.276 0-.5.224-.5.5s.224.5.5.5h1.526c.047.593.364 1.174.943 1.823l-1.073 1.073c-.195.195-.195.512 0 .707s.512.195.707 0l1.072-1.072c.655.588 1.234.908 1.824.953v1.516c0 .276.224.5.5.5s.5-.224.5-.5v-1.687c.48-.187.999-.512 1.605-1.002l1.042 1.042c.195.195.512.195.707 0s.195-.512 0-.707l-.99-.99c.421-.373.822-.741 1.187-1.106s.732-.765 1.106-1.187l.99.99c.195.195.512.195.707 0s.195-.512 0-.707l-1.042-1.042c.49-.606.815-1.125 1.002-1.605h1.687c.276 0 .5-.224.5-.5s-.224-.5-.5-.5zm-3.498 2.019c-.567.677-1.125 1.291-1.658 1.825-.534.534-1.148 1.091-1.82 1.654-1.737 1.421-2.246 1.254-3.508-.009-1.271-1.271-1.438-1.782-.023-3.514.503-.601 1.049-1.194 1.669-1.813.619-.62 1.212-1.166 1.809-1.665.838-.685 1.39-1 1.881-1 .525 0 .98.362 1.637 1.02 1.263 1.262 1.428 1.772.013 3.503zm-3.252.481c0 .414-.336.75-.75.75s-.75-.336-.75-.75.336-.75.75-.75.75.336.75.75z"/></svg>