<svg id="Layer_1" viewBox="0 0 24 24" xmlns="http://www.w3.org/2000/svg" data-name="Layer 1"><path d="m22.5 8.5h-1.523c-.117-.964-.7-1.909-1.749-3.021l1.361-1.361c.195-.195.195-.512 0-.707s-.512-.195-.707 0l-1.361 1.361c-1.111-1.049-2.056-1.631-3.021-1.745v-1.527c0-.276-.224-.5-.5-.5s-.5.224-.5.5v1.574c-.884.178-1.839.717-2.993 1.617l-.802-1.204c-.153-.229-.463-.292-.693-.139s-.292.463-.139.693l.858 1.286c-.9.766-1.712 1.503-2.461 2.234l-1.136-1.136c-.195-.195-.512-.195-.707 0s-.195.512 0 .707l1.136 1.136c-.729.747-1.464 1.556-2.227 2.452l-1.303-.869c-.231-.154-.541-.091-.693.139-.153.23-.091.54.139.693l1.22.813c-.904 1.158-1.446 2.116-1.625 3.002h-1.574c-.276 0-.5.224-.5.5s.224.5.5.5h1.526c.114.965.695 1.91 1.745 3.021l-1.37 1.37c-.195.195-.195.512 0 .707s.512.195.707 0l1.371-1.371c1.112 1.049 2.057 1.633 3.021 1.751v1.521c0 .276.224.5.5.5s.5-.224.5-.5v-1.566c.901-.179 1.875-.732 3.056-1.659l.759 1.139c.155.232.467.29.693.139.229-.153.292-.463.139-.693l-.82-1.231c.79-.679 1.581-1.408 2.391-2.203l1.175 1.174c.195.195.512.195.707 0s.195-.512 0-.707l-1.175-1.174c.814-.828 1.558-1.638 2.252-2.448l1.227.818c.227.152.539.093.693-.139.153-.23.091-.54-.139-.693l-1.139-.759c.9-1.155 1.438-2.111 1.614-2.997h1.566c.276 0 .5-.224.5-.5s-.224-.5-.5-.5zm-16.721 3.242c.969-1.157 1.925-2.208 2.84-3.124.925-.926 1.947-1.854 3.119-2.836 1.492-1.22 2.509-1.787 3.423-1.787.972 0 1.826.643 3.009 1.825 2.308 2.307 2.574 3.37.061 6.445-.861 1.027-1.796 2.043-2.858 3.106-1.062 1.062-2.079 1.998-3.101 2.854-3.081 2.518-4.142 2.251-6.45-.056-2.293-2.293-2.557-3.353-.042-6.428zm9.721-1.742c.995 0 1.5-.505 1.5-1.5s-.505-1.5-1.5-1.5-1.5.505-1.5 1.5.505 1.5 1.5 1.5zm0-2c.439 0 .5.061.5.5s-.061.5-.5.5-.5-.061-.5-.5.061-.5.5-.5zm-7 9c.995 0 1.5-.505 1.5-1.5s-.505-1.5-1.5-1.5-1.5.505-1.5 1.5.505 1.5 1.5 1.5zm0-2c.439 0 .5.061.5.5s-.061.5-.5.5-.5-.061-.5-.5.061-.5.5-.5zm.75-3c0-.414.336-.75.75-.75s.75.336.75.75-.336.75-.75.75-.75-.336-.75-.75zm4 0c0-.414.336-.75.75-.75s.75.336.75.75-.336.75-.75.75-.75-.336-.75-.75z"/></svg>