<svg id="Layer_1" viewBox="0 0 24 24" xmlns="http://www.w3.org/2000/svg" data-name="Layer 1"><path d="m22.162 11.026c-.058-.163-.196-.284-.364-.32-.104-.023-2.077-.444-4.859-.625-.187-2.358-.751-3.984-.776-4.055-.056-.156-.186-.274-.346-.316-.069-.017-1.101-.278-2.808-.479v-.257c0-2.191-1.786-3.975-4.008-3.975-2.197 0-3.984 1.783-3.984 3.974v.268c-1.613.185-2.728.411-2.806.427-.171.035-.312.157-.371.323-.034.097-.839 2.414-.839 5.508 0 3.12.805 5.414.84 5.51.059.164.199.286.37.321.071.015 1.667.337 3.846.529.177 2.401.755 4.068.785 4.149.06.169.206.293.383.324.152.027 3.773.666 7.277.666 4.002 0 7.153-.605 7.285-.631.174-.034.317-.158.376-.325.034-.097.839-2.414.839-5.508 0-3.12-.805-5.414-.84-5.51zm-16.145-6.051c0-1.641 1.338-2.975 3.008-2.975 1.646 0 2.984 1.334 2.984 2.974v.156c-.884-.077-1.892-.13-3.007-.13-1.052 0-2.07.058-2.985.14zm-3.318 11.432c-.203-.675-.696-2.56-.696-4.906 0-2.329.495-4.227.697-4.906.412-.076 1.248-.217 2.314-.343l-.004 1.319c0 .275.223.5.499.501h.001c.275 0 .499-.223.5-.499l.004-1.427c.917-.084 1.94-.145 2.988-.145 1.116 0 2.124.057 3.004.136l-.004 1.363c0 .275.223.5.499.501h.001c.275 0 .499-.223.5-.499l.004-1.261c1.107.135 1.909.292 2.296.377.156.516.489 1.775.632 3.411-.462-.018-.94-.028-1.432-.028-3.504 0-7.125.639-7.277.666-.177.031-.324.156-.384.326-.034.097-.839 2.414-.839 5.508 0 .123.008.235.011.355-1.538-.142-2.78-.35-3.315-.448zm18.607 5.032c-.868.148-3.584.562-6.804.562-2.85 0-5.867-.449-6.806-.601-.204-.682-.694-2.562-.694-4.899 0-2.32.491-4.213.695-4.899.94-.151 3.956-.601 6.805-.601 3.226 0 5.946.464 6.803.627.202.673.697 2.56.697 4.909 0 2.324-.493 4.22-.696 4.902zm-3.304-7.94.007 2.018c0 1.922-1.565 3.484-3.489 3.484-1.945 0-3.511-1.562-3.511-3.482l-.007-2.077c0-.276.222-.501.499-.502h.001c.275 0 .499.223.5.498l.007 2.079c0 1.371 1.117 2.484 2.489 2.484 1.394 0 2.511-1.113 2.511-2.482l-.007-2.016c0-.276.222-.501.499-.502h.001c.275 0 .499.223.5.498z"/></svg>