<?xml version="1.0" encoding="UTF-8"?>
<svg xmlns="http://www.w3.org/2000/svg" id="Layer_1" data-name="Layer 1" viewBox="0 0 24 24">
  <path d="M22.94,12.388c.084-.156,.078-.344-.011-.493-.157-.278-.997-1.664-2.753-2.908,.641-2.543,.067-4.374,.041-4.454-.055-.168-.193-.294-.362-.333-.344-.089-2.099-.479-4.417,.068-1.41-2.182-3.13-3.104-3.206-3.143-.148-.078-.322-.076-.467,0-.337,.169-2,1.079-3.299,3.12-2.262-.511-3.97-.136-4.322-.047-.169,.04-.309,.165-.363,.333-.024,.075-.564,1.793-.017,4.213-1.891,1.237-2.671,2.66-2.706,2.723-.084,.156-.078,.343,.011,.493,.158,.281,.735,1.218,1.877,2.218-.954,2.21-.769,3.942-.76,4.019,.021,.176,.132,.327,.292,.398,.28,.134,1.694,.761,3.757,.804,.231,2.027,1.002,3.246,1.038,3.301,.096,.149,.256,.25,.437,.229,.355-.003,2.174-.081,4.289-1.221,2.37,1.266,4.299,1.221,4.305,1.221,.168,0,.327-.085,.42-.229,.035-.055,.809-1.274,1.039-3.301,2.055-.043,3.464-.664,3.758-.805,.158-.071,.271-.222,.291-.398,.008-.071,.181-1.679-.657-3.771,1.232-1.03,1.762-1.997,1.785-2.041Zm-2.697,1.491c-.184,.141-.246,.389-.152,.6,.674,1.51,.746,2.788,.74,3.33-.547,.22-1.782,.634-3.514,.593h-.011c-.263,0-.481,.204-.499,.467-.101,1.513-.56,2.593-.791,3.05-.637-.047-2.105-.261-3.768-1.214-.153-.089-.344-.089-.497,0-1.663,.953-3.132,1.167-3.769,1.214-.231-.458-.689-1.537-.79-3.05-.018-.263-.236-.467-.499-.467h-.011c-1.717,.043-2.966-.374-3.513-.594-.006-.567,.074-1.944,.841-3.55,.1-.208,.043-.458-.136-.603-.958-.78-1.529-1.551-1.787-1.945,.305-.447,1.094-1.452,2.507-2.304,.19-.115,.282-.341,.225-.556-.468-1.771-.272-3.176-.153-3.741,.621-.118,2.076-.287,3.908,.194,.219,.055,.446-.038,.559-.232,1-1.713,2.293-2.602,2.854-2.928,.503,.323,1.769,1.249,2.79,2.956,.115,.193,.349,.283,.56,.226,1.876-.508,3.361-.336,3.994-.217,.124,.587,.331,2.082-.211,3.952-.061,.21,.022,.436,.205,.557,1.45,.956,2.26,2.031,2.586,2.531-.238,.35-.773,1.042-1.669,1.732Z"/>
</svg>
