<svg id="Layer_1" viewBox="0 0 24 24" xmlns="http://www.w3.org/2000/svg" data-name="Layer 1"><path d="m19 15c-.186 0-.35.021-.523.034.683-.663 1.023-1.669 1.023-3.034 0-2.691-1.309-4-4-4-.186 0-.35.021-.523.034.683-.663 1.023-1.669 1.023-3.034 0-2.691-1.309-4-4-4s-4 1.309-4 4c0 1.365.34 2.371 1.023 3.034-.173-.013-.336-.034-.523-.034-2.691 0-4 1.309-4 4 0 1.365.34 2.371 1.023 3.034-.173-.013-.336-.034-.523-.034-2.691 0-4 1.309-4 4s1.309 4 4 4c1.743 0 2.897-.558 3.5-1.676.603 1.118 1.757 1.676 3.5 1.676s2.897-.558 3.5-1.676c.603 1.118 1.757 1.676 3.5 1.676 2.691 0 4-1.309 4-4s-1.309-4-4-4zm-.5-3c0 2.131-.869 3-3 3s-3-.869-3-3 .869-3 3-3 3 .869 3 3zm-6.5-10c2.131 0 3 .869 3 3s-.869 3-3 3-3-.869-3-3 .869-3 3-3zm-3.5 7c2.131 0 3 .869 3 3s-.869 3-3 3-3-.869-3-3 .869-3 3-3zm-3.5 13c-2.131 0-3-.869-3-3s.869-3 3-3 3 .869 3 3-.869 3-3 3zm7 0c-2.131 0-3-.869-3-3s.869-3 3-3 3 .869 3 3-.869 3-3 3zm7 0c-2.131 0-3-.869-3-3s.869-3 3-3 3 .869 3 3-.869 3-3 3z"/></svg>