<svg id="Layer_1" viewBox="0 0 24 24" xmlns="http://www.w3.org/2000/svg" data-name="Layer 1"><path d="m21 13.5v2c0 5.257-2.243 7.5-7.5 7.5s-7.5-2.243-7.5-7.5v-5.491c-1.303.043-2.399.237-2.411.24-.276.045-.532-.133-.581-.403-.049-.271.132-.532.403-.581.054-.01 1.201-.212 2.589-.255v-4.51c0-1.869-.631-2.5-2.5-2.5-.276 0-.5-.224-.5-.5s.224-.5.5-.5c2.42 0 3.5 1.079 3.5 3.5v4.509c1.388.043 2.535.246 2.589.255.271.049.452.31.403.581-.044.241-.254.411-.492.411-.125-.002-1.102-.201-2.5-.247v5.491c0 4.738 1.762 6.5 6.5 6.5s6.5-1.762 6.5-6.5v-2c0-1.869-.631-2.5-2.5-2.5-.276 0-.5-.224-.5-.5s.224-.5.5-.5c2.42 0 3.5 1.079 3.5 3.5z"/></svg>