<svg id="Layer_1" viewBox="0 0 24 24" xmlns="http://www.w3.org/2000/svg" data-name="Layer 1"><path d="m22.103 17.482c-.456-.629-.917-1.267-1.413-1.91.32-.283.731-.67 1.134-1.047.339-.319.65-.61.833-.771.251-.218.377-.547.336-.883-.043-.33-.247-.616-.545-.765-.018-.009-2.085-.888-4.447-1.081v-.525c0-4.556-1.794-6.5-6-6.5s-6 1.944-6 6.5v.525c-2.362.193-4.429 1.072-4.447 1.081-.298.149-.502.435-.545.769-.041.332.085.661.335.878.184.162.495.453.834.772.402.377.813.764 1.134 1.047-.496.644-.957 1.281-1.413 1.91l-.571.787c-.118.161-.479.653-.224 1.17.165.344.526.56.906.56.395 0 2.723-.43 4.066-.975.562-.228.925-.772.925-1.39.223-3.259 1.624-4.635 5-4.635s4.777 1.376 5 4.635c0 .617.363 1.162.925 1.389 1.344.546 3.498.976 4.069.976.377 0 .738-.215.901-.555.257-.521-.104-1.014-.222-1.176zm-16.103.152c0 .207-.117.389-.3.463-1.243.504-3.106.812-3.686.967.003-.021.693-.996.693-.996.537-.742 1.083-1.496 1.685-2.258.083-.104.12-.238.104-.371s-.086-.254-.191-.335c-.27-.207-.92-.817-1.443-1.309-.35-.328-.67-.629-.882-.786.019-.008 1.892-.793 4.021-.983v5.608zm11-3.576c-.949-1.404-2.578-2.059-5-2.059s-4.051.655-5 2.059v-3.559c0-4.009 1.355-5.5 5-5.5s5 1.491 5 5.5zm1.3 4.038c-.183-.073-.3-.255-.3-.462v-5.608c2.129.19 4 .974 3.999.974-.19.166-.511.467-.86.795-.523.491-1.174 1.102-1.443 1.309-.105.081-.175.202-.191.335s.021.267.104.371c.602.762 1.147 1.516 1.685 2.258 0 0 .682.962.656.924-.542-.083-2.405-.391-3.648-.896z"/></svg>