<svg id="Layer_1" viewBox="0 0 24 24" xmlns="http://www.w3.org/2000/svg" data-name="Layer 1"><path d="m22.451 1.35c-.065-.208-.259-.35-.477-.35-13.014 0-19.961 1.105-20.029 1.117-.163.026-.302.131-.372.28-.023.05-.573 1.244-.573 4.099s.549 4.05.573 4.099c.054.095.936 1.603 3.005 3.577-1.514 4.039-1.553 6.124-1.553 6.209.013.087.037.176.072.258.044.073 1.106 1.803 3.282 2.347.171.043.354-.009.479-.137.124-.127.171-.311.124-.482-.002-.007-.195-.723-.447-2.382 1.996-.924 3.269-2.176 3.344-2.25.045-.045.109-.161.11-.165.811-1.981.972-4.643 1.004-5.657 2.247.122 4.366.165 6.095.165 2.604 0 4.345-.084 4.389-.086.198-.01.372-.137.442-.323.044-.117 1.082-2.894 1.082-5.728s-.526-4.52-.549-4.591zm-18.018 19.364c.4-.094.784-.207 1.15-.338.088.56.168 1.008.234 1.349-.612-.292-1.073-.686-1.384-1.011zm-.355-.942c.104-.815.412-2.453 1.293-4.876.914.805 2.018 1.667 3.332 2.54-.776.641-2.469 1.861-4.625 2.335zm5.192-3.153c-3.306-2.193-5.23-4.347-6.147-5.538 2.233.38 4.596.627 6.869.775-.027.836-.151 3.002-.722 4.763zm11.819-5.613c-1.883.074-11.302.351-18.692-1.062-.136-.437-.398-1.524-.398-3.449 0-1.906.257-2.992.394-3.435 1.412-.201 7.983-1.042 19.195-1.061.146.613.411 2.001.411 3.94 0 2.124-.648 4.282-.91 5.065z"/></svg>