<svg id="Layer_1" viewBox="0 0 24 24" xmlns="http://www.w3.org/2000/svg" data-name="Layer 1"><path d="m21.166 9.529c.687-.713 1.224-1.322 1.604-1.912.106-.164.268-.41.224-.745-.043-.332-.246-.618-.545-.768-.091-.045-2.484-1.102-4.672-1.102-.229.007-.652.107-.916.689-.38.836-.823 2.418-.856 4.171-1.143.076-2.532.138-4.008.136-1.472.007-2.86-.055-4.002-.131-.032-1.755-.475-3.339-.855-4.175-.265-.583-.688-.683-.919-.691-2.188 0-4.579 1.057-4.672 1.103-.297.148-.5.435-.543.766-.044.335.117.582.243.774.363.564.898 1.17 1.585 1.883-.591.768-1.178 1.789-1.666 2.912-.089.188-.274.581-.066 1.001.166.335.512.553.95.553h.014c.144-.019.98-.187 1.95-.417-.005.14-.016.285-.016.422 0 2.039.527 4.133.55 4.221.05.198.216.346.419.373.031.004 3.129.407 6.747.407h.287c3.74-.022 6.996-.487 7.028-.492.198-.029.359-.173.412-.365.022-.085.557-2.101.557-4.143 0-.137-.011-.282-.016-.422.972.231 1.818.399 2.017.422.377 0 .729-.219.896-.557.208-.421.022-.813-.096-1.065-.463-1.069-1.047-2.083-1.636-2.849zm-3.664-2.703c.445 1.029.721 2.188.853 2.838-.323.034-.782.079-1.346.126.035-1.269.285-2.314.493-2.964zm-11.004 0c.208.65.459 1.696.493 2.967-.564-.047-1.023-.093-1.346-.128.132-.65.408-1.809.853-2.839zm-1.934 3.176c-.228.887-.38 1.729-.47 2.528-1.083.266-2.038.461-2.088.505.5-1.156 1.253-2.49 1.874-3.208.17-.197.161-.491-.021-.677-.794-.812-1.459-1.545-1.852-2.155.185-.09 1.946-.916 3.764-.983-.821 1.664-1.173 3.771-1.208 3.99zm13.991 7.56c-.911.115-3.577.42-6.558.438-2.987.025-5.634-.251-6.555-.356-.145-.658-.442-2.188-.442-3.644 0-1.009.146-2.135.434-3.351 1.017.114 3.665.361 6.566.351 2.9.005 5.552-.238 6.569-.351.286 1.21.431 2.335.431 3.351 0 1.449-.299 2.928-.445 3.562zm1.352-5.032c-.09-.81-.243-1.661-.474-2.556 0-.001-.001-.002-.002-.004-.059-.356-.416-2.363-1.203-3.958 1.886.072 3.722.994 3.777.936-.371.575-1.071 1.39-1.865 2.201-.182.186-.19.48-.021.677.621.718 1.42 2.017 1.92 3.173-.203-.035-1.113-.22-2.132-.469z"/></svg>