<svg id="Layer_1" viewBox="0 0 24 24" xmlns="http://www.w3.org/2000/svg" data-name="Layer 1"><path d="m22.106 17.488c-.457-.632-.92-1.271-1.417-1.916.32-.284 1.784-1.658 1.967-1.818.251-.22.377-.549.334-.883-.043-.33-.247-.616-.544-.765-.005.006-1.68-.839-3.462-1.017-.044-1.346-.225-2.716-.539-3.943-.021-.081-.061-.155-.118-.216-1.207-1.304-2.262-1.917-3.322-1.929-1.271-.003-2.312.512-3.374 1.66-.915.988-1.96 1.34-2.634 1.34-.727 0-1.373-.319-2.016-.961l.139-.417c.131-.393.093-.827-.106-1.191-.201-.368-.55-.638-.958-.741-1.458-.369-3.181-.593-3.858-.671-.442-.087-.904.138-1.096.537-.257.521.103 1.013.222 1.175l.569.783c.456.63.919 1.27 1.415 1.914-.32.284-.732.67-1.135 1.048-.339.318-.649.609-.833.77-.252.22-.377.549-.334.883.043.33.247.616.544.765-.022-.017 1.745.864 3.493 1.019.056 1.289.224 2.627.503 3.922.019.088.061.168.122.234 1.207 1.304 2.262 1.917 3.323 1.93h.051c1.217 0 2.274-.528 3.323-1.66.914-.988 1.959-1.34 2.633-1.34.744 0 1.223.098 2.072.863l-.125.418c-.228.768.181 1.576.929 1.842 1.387.493 3.362.783 3.924.857.064.013.129.02.193.02.377 0 .738-.216.902-.556.257-.521-.103-1.014-.222-1.176l-.568-.78zm-16.17-10.465c-.63 1.449-.904 2.923-.913 4.891-1.612-.228-3.011-.908-3.022-.915.189-.166.509-.466.858-.793.524-.492 1.176-1.103 1.445-1.31.106-.082.175-.202.191-.335s-.021-.267-.104-.372c-.603-.763-1.149-1.518-1.688-2.261l-.64-.902c.653.077 2.347.28 3.748.634.142.036.257.125.327.251.067.123.079.263.035.395l-.238.715s0 .001 0 .002zm11.483 8.817c-.873-.702-1.523-.841-2.418-.841-.43 0-1.942.12-3.367 1.66-1.114 1.203-2.025 1.335-2.628 1.34-.744-.009-1.542-.489-2.508-1.51-.313-1.494-.478-3.044-.478-4.49 0-1.572.176-2.793.578-3.938.741.63 1.532.938 2.401.938.429 0 1.941-.12 3.367-1.66 1.114-1.203 1.993-1.34 2.628-1.34.745.009 1.545.491 2.514 1.516.345 1.402.519 2.995.491 4.5-.031 1.69-.235 2.771-.581 3.824zm.792 2.34c-.247-.087-.381-.357-.305-.614l.209-.701c.512-1.348.838-2.627.883-4.776 1.603.231 2.99.905 3.001.912-.19.166-2.034 1.896-2.304 2.104-.106.081-.175.202-.191.335s.021.267.104.371c.603.764 1.15 1.52 1.688 2.264 0 0 .685.966.648.918-1.129-.152-2.703-.445-3.733-.812z"/></svg>