<svg id="Layer_1" viewBox="0 0 24 24" xmlns="http://www.w3.org/2000/svg" data-name="Layer 1"><path d="m22.994 3.314c-.043.275-.306.458-.573.415-.046-.008-4.627-.729-10.421-.729s-10.375.722-10.421.729c-.274.037-.53-.143-.573-.415s.142-.529.415-.573c.046-.007 4.701-.741 10.579-.741s10.532.734 10.579.741c.272.044.458.301.415.573zm-3.424 8.727c-5.085-.719-10.054-.719-15.14 0-.273.039-.464.292-.425.565.039.272.292.46.565.425 4.993-.705 9.868-.705 14.86 0 .268.039.528-.15.565-.425.038-.273-.151-.526-.425-.565zm-3.021 9.186c-3.068-.301-6.03-.301-9.098 0-.275.027-.476.272-.449.547.025.258.243.451.497.451.016 0 .033 0 .049-.002 3.002-.294 5.898-.295 8.902 0 .274.018.521-.174.547-.449.026-.274-.175-.52-.449-.547z"/></svg>