<svg id="Layer_1" viewBox="0 0 24 24" xmlns="http://www.w3.org/2000/svg" data-name="Layer 1"><path d="m22.994 3.314c-.043.275-.306.458-.573.415-.046-.008-4.627-.729-10.421-.729s-10.375.722-10.421.729c-.268.037-.529-.143-.573-.415-.043-.272.143-.529.415-.573.047-.007 4.701-.741 10.579-.741s10.532.734 10.579.741c.272.044.458.301.415.573zm-6.424 8.727c-5.086-.719-10.055-.719-15.141 0-.273.039-.463.292-.425.565.038.272.283.459.565.425 4.992-.705 9.867-.705 14.859 0 .268.039.528-.15.565-.425.038-.273-.151-.526-.425-.565zm-6.021 9.186c-3.068-.301-6.029-.301-9.098 0-.274.027-.476.272-.449.547s.278.468.547.449c3.004-.295 5.898-.295 8.902 0 .27.027.521-.173.547-.449.026-.274-.175-.52-.449-.547z"/></svg>