<?xml version="1.0" encoding="UTF-8"?>
<svg xmlns="http://www.w3.org/2000/svg" id="Layer_1" data-name="Layer 1" viewBox="0 0 24 24">
  <path d="M11.963,1c-3.785-.007-6.555,.84-8.327,2.612-1.764,1.764-2.579,4.417-2.564,8.351,.019,5.12,1.282,11.001,10.965,11.037h.095c3.781,0,6.475-.854,8.232-2.612,1.764-1.764,2.579-4.417,2.564-8.351-.019-5.12-1.282-11.001-10.965-11.037Zm8.02,18.327l-7.277-7.327,2.129-2.144c1.634,1.453,3.975,2.208,7.094,2.341-.007,3.301-.628,5.587-1.945,7.131ZM2.093,12.89c2.792,.108,4.879,.742,6.348,1.984l-4.359,4.389c-1.238-1.464-1.869-3.556-1.989-6.373Zm1.925-8.218l7.277,7.327-2.134,2.149c-1.645-1.418-3.984-2.148-7.088-2.26-.004-3.347,.617-5.66,1.945-7.216Zm5.134,10.906c1.268,1.47,1.92,3.575,2.046,6.404-2.839-.112-4.944-.748-6.411-2.008l4.365-4.395Zm.72-.725l2.129-2.143,7.273,7.323c-1.554,1.314-3.854,1.963-7.074,1.967-.131-3.143-.882-5.5-2.328-7.146Zm4.984-6.438c-1.232-1.48-1.86-3.582-1.967-6.394,2.796,.121,4.873,.757,6.326,2.005l-4.359,4.389Zm.699,.716l4.365-4.395c1.25,1.479,1.881,3.599,1.992,6.459-2.808-.128-4.898-.786-6.357-2.064Zm-3.667-7.132c.111,3.128,.837,5.485,2.248,7.141l-2.134,2.149L4.727,3.967c1.569-1.322,3.912-1.967,7.14-1.967h.019Z"/>
</svg>
