<svg id="Layer_1" viewBox="0 0 24 24" xmlns="http://www.w3.org/2000/svg" data-name="Layer 1"><path d="m22.647 9.1c-.072-.022-.96-.288-2.67-.553-.237-4.2-3.719-7.547-7.977-7.547s-7.74 3.347-7.977 7.547c-1.71.265-2.598.531-2.67.553-.212.064-.356.262-.353.484.045 3.48.885 10.523 3.786 12.291.097.046 2.431 1.125 7.214 1.125s7.117-1.079 7.261-1.15c2.855-1.742 3.694-8.785 3.739-12.266.003-.223-.141-.42-.353-.484zm-10.647-7.1c3.659 0 6.667 2.824 6.97 6.406-1.717-.219-4.031-.406-6.97-.406s-5.253.187-6.97.406c.303-3.582 3.311-6.406 6.97-6.406zm6.787 18.971c-.021.01-2.258 1.029-6.787 1.029-4.496 0-6.732-1.004-6.74-1.004-1.98-1.209-3.135-6.507-3.252-11.037 3.01-.661 5.636-.922 9.992-.959 4.353.037 6.985.298 9.992.959-.117 4.53-1.271 9.827-3.205 11.012z"/></svg>