<svg id="Layer_1" viewBox="0 0 24 24" xmlns="http://www.w3.org/2000/svg" data-name="Layer 1"><path d="m14.248 18.866c-1.102.089-2.179.134-3.202.134-3.766 0-7.118-.606-8.071-.795-.255-.762-.975-3.175-.975-6.205 0-3.006.721-5.437.976-6.205.077-.016.17-.033.276-.054.271-.051.45-.313.398-.584-.051-.272-.319-.447-.584-.398-.371.07-.576.115-.576.115-.164.036-.299.152-.359.309-.046.12-1.131 2.986-1.131 6.816 0 3.863 1.085 6.7 1.132 6.818.061.156.194.271.357.307.162.036 4.005.875 8.557.875 1.05 0 2.154-.046 3.282-.137.275-.022.48-.263.458-.539-.021-.275-.265-.479-.538-.458z"/><path d="m22.334 8.581c-.067-.147-.201-.253-.36-.284 0 0-.472-.091-1.243-.189-.325-1.767-.752-2.876-.771-2.926-.061-.156-.194-.271-.357-.307-.162-.036-4.005-.875-8.556-.875-1.675 0-3.449.115-5.274.341l-1.669-2.148c-.17-.22-.485-.258-.701-.088-.218.169-.258.484-.088.702l14.766 19c.099.127.384.313.701.088.225-.159.258-.484.088-.702l-1.323-1.703c1.249-.188 2.019-.357 2.056-.365.164-.036.299-.152.359-.309.019-.049.443-1.165.768-2.924.773-.098 1.246-.189 1.246-.189.159-.031.295-.138.361-.286.027-.061.665-1.502.665-3.417 0-1.932-.639-3.359-.666-3.419zm-.818 6.188c-.262.043-.704.111-1.272.176-.222.025-.399.194-.437.414-.229 1.371-.541 2.396-.691 2.847-.396.079-1.205.229-2.276.377l-10.351-13.319c1.575-.175 3.105-.264 4.557-.264 3.766 0 7.118.607 8.07.795.15.449.463 1.471.692 2.846.037.22.215.39.437.415.568.065 1.01.132 1.271.176.164.449.483 1.492.483 2.768 0 1.267-.32 2.315-.484 2.768z"/></svg>