<svg id="Layer_1" viewBox="0 0 24 24" xmlns="http://www.w3.org/2000/svg" data-name="Layer 1"><path d="m22.334 8.581c-.067-.147-.201-.253-.36-.284 0 0-.472-.091-1.243-.189-.325-1.767-.752-2.876-.771-2.926-.061-.156-.194-.271-.357-.307-.162-.036-4.005-.875-8.556-.875s-8.395.839-8.556.875c-.164.036-.299.152-.359.309-.046.12-1.131 2.986-1.131 6.816 0 3.863 1.085 6.7 1.132 6.818.061.156.194.271.357.307.162.036 4.005.875 8.557.875s8.394-.839 8.555-.875c.164-.036.299-.152.359-.309.019-.049.443-1.165.768-2.924.773-.098 1.246-.189 1.246-.189.159-.031.295-.138.361-.286.027-.061.665-1.502.665-3.417 0-1.932-.639-3.359-.666-3.419zm-.818 6.188c-.262.043-.704.111-1.272.176-.222.025-.399.194-.437.414-.229 1.371-.541 2.396-.691 2.847-.954.189-4.309.795-8.069.795s-7.118-.606-8.071-.795c-.255-.762-.975-3.175-.975-6.205 0-3.006.721-5.437.976-6.205.955-.189 4.309-.795 8.07-.795s7.118.607 8.07.795c.15.449.463 1.471.692 2.846.037.22.215.39.437.415.568.065 1.01.132 1.271.176.164.449.483 1.492.483 2.768 0 1.267-.32 2.315-.484 2.768z"/><path d="m14.54 7.664-.526-.042c-1.004-.081-1.987-.122-2.923-.122-1.59 0-3.286.116-5.041.345l-.724.095c-.216.028-.389.192-.428.406l-.131.719c-.178.986-.268 1.973-.268 2.935s.089 1.949.265 2.931l.129.722c.038.215.211.38.428.408l.726.095c1.755.229 3.452.345 5.044.345.929 0 1.912-.041 2.923-.122l.526-.042c.26-.021.46-.238.46-.499v-7.675c0-.261-.2-.478-.46-.499zm-.54 7.711-.066.005c-.984.079-1.94.119-2.843.119-1.549 0-3.202-.113-4.915-.336l-.362-.047-.064-.361c-.165-.924-.249-1.851-.249-2.755s.085-1.83.252-2.756l.065-.36.361-.047c1.713-.223 3.365-.336 4.912-.336.909 0 1.865.04 2.843.119l.066.005v6.751z"/></svg>