<svg id="Layer_1" viewBox="0 0 24 24" xmlns="http://www.w3.org/2000/svg" data-name="Layer 1"><path d="m15.265 11.652c-.095-.097-.224-.152-.359-.152h-7.179c.072-.675.269-1.923.784-3.21.848-2.113 1.99-3.449 2.002-3.462.181-.208.158-.524-.051-.705-.209-.18-.523-.158-.705.05-.051.059-1.261 1.467-2.174 3.745-.825 2.058-.895 3.986-.897 4.067-.004.135.047.267.141.364.095.097.224.152.359.152h7.179c-.072.675-.269 1.923-.784 3.21-.845 2.105-2.059 3.437-2.07 3.45-.188.203-.18.526.028.707.288.25.607.079.706-.027.055-.059 1.348-1.471 2.264-3.757.825-2.058.895-3.986.897-4.067.004-.135-.047-.267-.141-.364z"/><path d="m22.334 8.581c-.067-.147-.201-.253-.36-.284 0 0-.472-.091-1.243-.189-.325-1.766-.752-2.876-.771-2.926-.059-.15-.186-.264-.343-.303-.105-.027-2.622-.66-5.998-.877-.271-.009-.513.191-.531.467-.018.275.191.513.467.531 2.674.172 4.838.624 5.56.788.149.444.465 1.47.695 2.855.037.22.215.39.437.415.568.065 1.01.132 1.271.176.164.449.483 1.492.483 2.768 0 1.267-.32 2.315-.484 2.768-.262.043-.704.111-1.272.176-.222.025-.399.194-.437.414-.234 1.403-.556 2.444-.702 2.878-.486.147-1.724.487-3.365.697-.274.035-.467.286-.433.56.058.468.538.435.56.433 2.229-.286 3.727-.793 3.789-.815.14-.048.252-.156.305-.294.019-.049.443-1.165.768-2.924.773-.098 1.246-.189 1.246-.189.159-.031.295-.138.361-.286.027-.061.665-1.502.665-3.417 0-1.932-.639-3.359-.666-3.419z"/><path d="m8.503 19.001c-2.658-.173-4.807-.624-5.524-.787-.253-.751-.979-3.172-.979-6.214s.744-5.518.988-6.242c.449-.145 1.562-.472 3.042-.68.273-.039.464-.291.426-.564-.039-.274-.298-.468-.564-.426-2.053.288-3.41.784-3.467.805-.136.05-.242.156-.294.29-.046.12-1.131 2.986-1.131 6.816 0 3.863 1.085 6.7 1.132 6.818.059.15.186.263.342.303.105.027 2.604.658 5.965.877.011 0 .492 0 .531-.466.023-.276-.19-.514-.467-.532z"/></svg>