<svg id="Layer_1" viewBox="0 0 24 24" xmlns="http://www.w3.org/2000/svg" data-name="Layer 1"><path d="m17.117 8.349c-.039-.215-.211-.379-.427-.408l-.726-.095c-3.56-.464-6.346-.467-9.915 0l-.726.095c-.216.028-.389.193-.427.407l-.129.72c-.177.988-.267 1.975-.267 2.933s.089 1.946.265 2.93l.128.722c.038.215.211.38.428.408l.727.095c1.779.232 3.399.345 4.953.345s3.182-.113 4.961-.345l.726-.095c.216-.028.389-.193.427-.407l.129-.72c.17-.947.256-1.934.256-2.933s-.085-1.989-.254-2.931l-.129-.72zm-.858 6.407-.064.36-.363.047c-3.466.451-6.178.453-9.656 0l-.363-.047-.064-.361c-.165-.927-.249-1.854-.249-2.755s.084-1.826.251-2.756l.064-.36.363-.047c3.482-.453 6.184-.452 9.656 0l.363.048.064.36c.158.884.238 1.811.238 2.755 0 .939-.081 1.867-.241 2.756z"/><path d="m22.333 8.581c-.067-.147-.202-.253-.36-.284 0 0-.471-.091-1.243-.189-.326-1.767-.752-2.876-.772-2.926-.061-.156-.195-.271-.358-.307-.161-.036-4.003-.875-8.555-.875s-8.393.839-8.555.875c-.164.036-.298.152-.359.309-.046.12-1.131 2.986-1.131 6.817 0 3.863 1.086 6.7 1.132 6.818.061.156.195.271.358.307.161.036 4.003.875 8.555.875s8.393-.839 8.555-.875c.164-.036.298-.152.359-.309.019-.049.443-1.165.769-2.924.773-.098 1.245-.189 1.245-.189.16-.031.294-.138.361-.286.027-.061.666-1.501.666-3.417 0-1.932-.639-3.36-.667-3.419zm-.818 6.188c-.262.043-.705.111-1.272.176-.222.025-.399.194-.437.414-.229 1.371-.541 2.396-.692 2.847-.954.189-4.308.795-8.069.795s-7.119-.607-8.07-.795c-.256-.76-.975-3.166-.975-6.205 0-3.006.721-5.437.977-6.205.954-.189 4.308-.795 8.069-.795s7.118.607 8.07.795c.151.449.464 1.471.693 2.847.037.22.215.389.437.414.568.065 1.01.132 1.271.176.164.447.483 1.483.483 2.768 0 1.267-.321 2.316-.484 2.768z"/></svg>