<svg id="Layer_1" viewBox="0 0 24 24" xmlns="http://www.w3.org/2000/svg" data-name="Layer 1"><path d="m22.592 21.009c-.052-.01-5.08-.943-10.092-1.003v-2c4.399.057 8.817.833 9.685.994.268.055.55-.143.585-.416.14-.906.229-2.312.229-3.584 0-7.64-3.06-10.848-10.5-10.987v-1.513c0-.276-.224-.5-.5-.5s-.5.224-.5.5v1.513c-7.439.139-10.499 3.347-10.499 10.987 0 1.271.09 2.678.229 3.584.036.273.316.47.585.416.868-.161 5.286-.937 9.685-.994v2c-5.012.06-10.041.993-10.092 1.003-.271.051-.45.312-.399.583.051.272.314.451.583.399.053-.01 5.332-.991 10.408-.991s10.355.981 10.408.991c.265.052.534-.126.583-.399.051-.271-.127-.533-.399-.583zm-20.592-6.009c0-7.196 2.804-10 10-10s10 2.804 10 10c0 .988-.059 2.091-.151 2.923-1.738-.303-5.802-.923-9.849-.923s-8.11.621-9.849.923c-.093-.833-.151-1.936-.151-2.923z"/></svg>