<svg id="Layer_1" viewBox="0 0 24 24" xmlns="http://www.w3.org/2000/svg" data-name="Layer 1"><path d="m12.68 15.93c.054-.032 1.32-.801 1.32-2.38 0-1.486-.901-2.597-.94-2.643-.078-.095-.188-.157-.309-.176-.061-.009-1.524-.23-5.251-.23s-5.204.221-5.265.23c-.12.018-.229.08-.307.172-.038.045-.928 1.119-.928 2.598 0 1.56 1.083 2.37 1.13 2.404.085.062.189.096.295.096h.456c-.005.022-.01.044-.015.066-.171.763-.366 1.628-.366 2.434v.5h-1c-.276 0-.5.224-.5.5s.224.5.5.5h1v2.5c0 .276.224.5.5.5s.5-.224.5-.5v-2.5h8v2.5c0 .276.224.5.5.5s.5-.224.5-.5v-2.5h1c.276 0 .5-.224.5-.5s-.224-.5-.5-.5h-1v-.5c0-.806-.195-1.671-.366-2.434-.005-.022-.01-.044-.015-.066h.306c.09 0 .178-.024.255-.07zm-1.521.355c.16.712.342 1.52.342 2.215v.5h-8.001v-.5c0-.695.182-1.502.342-2.215.022-.097.044-.193.064-.285h7.188c.02.093.042.188.064.285zm-8.545-1.285c-.201-.2-.613-.708-.613-1.5 0-.833.392-1.518.586-1.806.512-.058 2.035-.194 4.914-.194s4.39.136 4.898.194c.199.296.602 1.001.602 1.856 0 .797-.509 1.278-.731 1.45h-9.657z"/><path d="m22.15 8.884c.165-.327.35-.819.35-1.384 0-1.159-.86-2.698-2.023-3.213-.059-.544-.271-1.572-1.028-2.346-.612-.625-1.436-.941-2.449-.941s-1.837.317-2.449.941c-.757.773-.969 1.802-1.028 2.346-1.163.515-2.022 2.054-2.022 3.213 0 .998.577 1.77.602 1.802.167.22.478.262.698.097s.265-.479.101-.699c-.004-.005-.4-.546-.4-1.2 0-.94.847-2.177 1.618-2.364.224-.054.382-.258.382-.488 0-.271.075-2.648 2.5-2.648s2.499 2.377 2.5 2.639c-.005.235.154.441.382.497.771.187 1.619 1.424 1.619 2.364 0 .654-.396 1.194-.398 1.198-.115.152-.134.356-.048.527.04.078.153.186.226.234.496.329.738 1.004.72 2.007-.026 1.444-1.1 2.534-2.499 2.534-.876 0-1.587-.376-2.013-1.061-.05-.223-.249-.389-.487-.389s-.437.167-.487.39c-.28.451-.673.763-1.171.93-.262.087-.403.371-.315.633s.371.404.633.315c.305-.102.587-.245.841-.427v8.109c0 .276.224.5.5.5s.5-.224.5-.5v-8.111c.557.396 1.243.611 2 .611 1.927 0 3.463-1.544 3.499-3.516.021-1.162-.26-2.032-.849-2.6z"/></svg>