<svg id="Layer_1" viewBox="0 0 24 24" xmlns="http://www.w3.org/2000/svg" data-name="Layer 1"><path d="m22.963 12.17c-.115-.685-.49-1.284-1.056-1.687-1.166-.832-2.794-.559-3.626.609-1.367 1.919-2.723 3.54-4.257 4.731.038-1.119-.699-2.142-1.833-2.478-.087-.014-2.158-.346-4.692-.346-3.093 0-5.491.565-5.591.589-.182.043-.324.184-.369.365-.022.088-.54 2.184-.54 4.321 0 2.155.527 3.788.55 3.856.056.171.2.299.377.334.109.022 2.71.535 5.873.535 5.562 0 10.514-2.991 14.717-8.891.403-.565.562-1.254.446-1.939zm-1.26 1.359c-4.005 5.621-8.682 8.471-13.903 8.471-2.458 0-4.614-.329-5.38-.461-.142-.532-.419-1.767-.419-3.264 0-1.556.302-3.134.441-3.778.729-.147 2.705-.497 5.058-.497 2.452 0 4.484.322 4.469.318.623.187 1.058.773 1.058 1.425 0 .565-.385.954-.711 1.181-1.15.594-2.414.966-3.853 1.077-.275.021-.481.261-.46.537s.27.478.537.46c4.714-.296 7.995-3.653 10.558-7.326.512-.718 1.513-.886 2.231-.375.348.248.579.617.649 1.038.071.421-.027.845-.274 1.193zm-19.703-6.029c0-.276.224-.5.5-.5h2.5v-2.5c0-.276.224-.5.5-.5s.5.224.5.5v2.5h2.5c.276 0 .5.224.5.5s-.224.5-.5.5h-2.5v2.5c0 .276-.224.5-.5.5s-.5-.224-.5-.5v-2.5h-2.5c-.276 0-.5-.224-.5-.5zm8-3c0-.276.224-.5.5-.5h2.5v-2.5c0-.276.224-.5.5-.5s.5.224.5.5v2.5h2.5c.276 0 .5.224.5.5s-.224.5-.5.5h-2.5v2.5c0 .276-.224.5-.5.5s-.5-.224-.5-.5v-2.5h-2.5c-.276 0-.5-.224-.5-.5z"/></svg>