<svg id="Layer_1" viewBox="0 0 24 24" xmlns="http://www.w3.org/2000/svg" data-name="Layer 1"><path d="m22.963 12.171c-.114-.685-.49-1.284-1.056-1.687-1.167-.832-2.794-.558-3.626.609-1.367 1.919-2.722 3.54-4.257 4.732.04-1.12-.699-2.143-1.832-2.479-.087-.014-2.157-.346-4.692-.346-3.092 0-5.49.565-5.591.589-.182.043-.324.184-.369.365-.022.088-.54 2.184-.54 4.32 0 2.155.527 3.787.55 3.856.056.171.2.299.377.334.109.022 2.71.535 5.872.535 5.562 0 10.514-2.991 14.716-8.89.403-.565.561-1.254.446-1.939zm-1.261 1.359c-4.004 5.621-8.682 8.47-13.902 8.47-2.458 0-4.614-.329-5.38-.461-.142-.532-.419-1.767-.419-3.263 0-1.556.302-3.134.441-3.777.729-.147 2.704-.497 5.058-.497 2.451 0 4.494.32 4.468.318.622.187 1.058.773 1.058 1.425 0 .566-.385.954-.711 1.182-1.149.594-2.413.966-3.853 1.076-.275.021-.481.261-.46.537s.268.476.537.46c4.714-.296 7.995-3.652 10.558-7.325.512-.719 1.514-.886 2.231-.375.349.248.579.617.649 1.038.071.421-.026.845-.274 1.193zm-20.501-6.63c-.221-.166-.266-.479-.1-.7.881-1.176 1.924-2.219 3.1-3.1.178-.134.422-.134.6 0 1.176.881 2.219 1.924 3.1 3.1.166.221.121.534-.1.7-.219.165-.533.122-.7-.1-.614-.818-1.33-1.548-2.1-2.218v5.917c0 .276-.224.5-.5.5s-.5-.224-.5-.5v-5.917c-.77.67-1.486 1.399-2.1 2.218-.165.222-.478.267-.7.1zm8.999-2c-.221-.166-.266-.479-.1-.7.881-1.176 1.924-2.219 3.1-3.1.178-.134.422-.134.6 0 1.177.882 2.22 1.925 3.1 3.1.165.221.12.534-.101.7-.219.165-.533.123-.7-.1-.613-.818-1.329-1.547-2.099-2.217v5.917c0 .276-.224.5-.5.5s-.5-.224-.5-.5v-5.918c-.77.67-1.486 1.399-2.1 2.217-.166.222-.478.266-.7.1z"/></svg>