<svg id="Layer_1" viewBox="0 0 24 24" xmlns="http://www.w3.org/2000/svg" data-name="Layer 1"><path d="m22.963 12.168c-.114-.685-.49-1.284-1.056-1.687-1.166-.832-2.794-.557-3.626.609-1.367 1.919-2.723 3.54-4.258 4.732.04-1.12-.699-2.143-1.832-2.479-.087-.014-2.158-.346-4.692-.346-3.093 0-5.49.565-5.591.589-.182.043-.323.184-.369.365-.021.088-.54 2.185-.54 4.321 0 2.155.528 3.788.551 3.856.056.171.2.299.377.334.108.022 2.71.535 5.872.535 5.562 0 10.514-2.991 14.717-8.891.403-.565.562-1.254.446-1.939zm-1.26 1.359c-4.005 5.621-8.682 8.471-13.903 8.471-2.457 0-4.613-.329-5.38-.461-.142-.533-.42-1.773-.42-3.264 0-1.556.303-3.134.442-3.778.728-.147 2.703-.497 5.057-.497 2.408 0 4.441.318 4.469.318.623.187 1.058.773 1.058 1.425 0 .565-.384.953-.71 1.181-1.15.594-2.415.966-3.854 1.077-.275.021-.481.261-.461.537.021.275.284.471.537.46 4.714-.296 7.995-3.653 10.558-7.326.512-.718 1.515-.885 2.231-.375.349.248.579.617.649 1.038.071.421-.026.845-.274 1.193zm-19.194-4.117c.091.024 2.249.589 5.491.589s5.4-.565 5.491-.589c.2-.054.348-.226.368-.433.006-.056.141-1.393.141-3.478 0-2.324-.134-3.969-.14-4.038-.021-.258-.235-.457-.494-.459h-.004c-.693 0-2.254 1.508-3.234 2.59-.636-1.149-1.698-2.361-1.753-2.423-.189-.215-.561-.215-.75 0-.055.062-1.117 1.274-1.753 2.423-.98-1.082-2.54-2.589-3.234-2.589h-.004c-.259.002-.473.201-.494.459-.006.069-.14 1.713-.14 4.037 0 2.085.135 3.423.141 3.478.021.207.168.379.368.433zm.577-7.092c.607.465 1.605 1.385 2.529 2.499.115.139.296.207.472.173.178-.031.324-.155.384-.325.271-.763 1.056-1.802 1.529-2.388.474.585 1.258 1.624 1.529 2.388.06.169.206.293.384.325.175.033.356-.035.472-.173.936-1.129 1.947-2.058 2.528-2.515.039.702.087 1.839.087 3.196 0 1.418-.065 2.497-.105 3.023-.716.153-2.514.477-4.894.477s-4.179-.324-4.894-.477c-.04-.526-.105-1.604-.105-3.023 0-1.348.047-2.478.086-3.181z"/></svg>