<svg id="Layer_1" viewBox="0 0 24 24" xmlns="http://www.w3.org/2000/svg" data-name="Layer 1"><path d="m21.919 4.46c-.051-.138-.161-.247-.3-.297-.132-.047-3.305-1.163-9.619-1.163s-9.487 1.116-9.619 1.163c-.139.05-.249.159-.3.297-.044.119-1.081 2.97-1.081 7.54s1.037 7.421 1.081 7.54c.051.138.161.247.3.297.132.047 3.305 1.163 9.619 1.163s9.487-1.116 9.619-1.163c.139-.05.249-.159.3-.297.044-.119 1.081-2.97 1.081-7.54s-1.037-7.421-1.081-7.54zm-9.919-.46c5.195 0 8.238.788 9.057 1.033.103.326.295 1.012.479 1.967h-19.072c.184-.955.376-1.641.479-1.967.818-.245 3.861-1.033 9.057-1.033zm9.057 14.967c-.818.245-3.861 1.033-9.057 1.033s-8.238-.788-9.057-1.033c-.235-.747-.943-3.299-.943-6.967 0-1.557.13-2.898.295-4h19.41c.165 1.102.295 2.443.295 4 0 3.668-.708 6.22-.943 6.967zm-13.56-8.965c-2.215.014-3.457 1.254-3.497 3.49v.018c.041 2.271 1.251 3.478 3.503 3.49 2.247-.013 3.456-1.22 3.497-3.508-.038-2.203-1.312-3.475-3.503-3.49zm.006 5.998c-1.697-.01-2.469-.781-2.503-2.499.033-1.694.829-2.488 2.496-2.499 1.656.012 2.476.832 2.504 2.49-.031 1.725-.803 2.498-2.497 2.508zm11.997-6h-6c-.276 0-.5.224-.5.5v6c0 .276.224.5.5.5h6c.276 0 .5-.224.5-.5v-6c0-.276-.224-.5-.5-.5zm-.5 6h-5v-5h5z"/></svg>