<svg id="Layer_1" viewBox="0 0 24 24" xmlns="http://www.w3.org/2000/svg" data-name="Layer 1"><path d="m23 16.98c0 2.08-.92 3-3 3h-6.5c-.28 0-.5-.22-.5-.5s.22-.5.5-.5h6.5c1.51 0 2-.49 2-2s-.49-2-2-2h-7s0 0 0 0c-1.05 0-1.77-.23-2.27-.73s-.73-1.22-.73-2.27c0-2.07.92-3 3-3h1.5c.28 0 .5.22.5.5s-.22.5-.5.5h-1.5c-1.51 0-2 .49-2 2s.49 2 2 2h7c2.08 0 3 .92 3 3zm-12 4.02c0 1.35-.65 2-2 2s-2-.65-2-2c0-.86.27-1.44.82-1.74l-.58-1.17c-.57.17-1.7.61-2.66 1.49.28.33.43.8.43 1.42 0 1.35-.65 2-2 2s-2-.65-2-2 .65-2 2-2c.24 0 .45.03.65.07.31-.31.63-.57.96-.8-.17-.15-.35-1.22-1.61-1.27h-.5c-.28 0-.5-.22-.5-.5s.22-.5.5-.5h.5c1.63 0 2.29 1.38 2.44 1.75.52-.28.99-.45 1.34-.57l-.23-.46c-.03-.07-.05-.15-.05-.22 0-1 .5-1.5 1.5-1.5h.5c.28 0 .5.22.5.5s-.22.5-.5.5h-.5c-.4 0-.49.05-.5.39l1.31 2.63c1.38-.1 2.21.57 2.18 1.99zm-7 0c0-.79-.21-1-1-1s-1 .21-1 1 .21 1 1 1 1-.21 1-1zm6 0c0-.79-.21-1-1-1s-1 .21-1 1 .21 1 1 1 1-.21 1-1zm7.52-11.33c-.02-.06-.52-1.45-.52-4.19 0-2.51.42-3.89.5-4.14s.35-.39.6-.33c.4.11 1.25.38 2.44 1.02 1.56.83 2.24 1.5 2.31 1.58.19.2.19.51 0 .7-.12.12-.79.77-2.31 1.58-1.27.68-2.15.94-2.49 1.03.12 1.59.4 2.41.41 2.42.12.32-.13.67-.47.67-.2 0-.4-.13-.47-.33zm.48-4.19v.41c.38-.11 1.09-.37 2.07-.89.79-.42 1.33-.79 1.66-1.04-.33-.25-.86-.62-1.66-1.04-.75-.4-1.35-.64-1.75-.78-.13.59-.32 1.7-.32 3.35z"/></svg>