<?xml version="1.0" encoding="UTF-8"?>
<svg xmlns="http://www.w3.org/2000/svg" id="Layer_1" data-name="Layer 1" viewBox="0 0 24 24">
  <path d="M18.506,11.8c-.259-.331-.973-1.38-1.62-3.556-.562-1.89-.55-3.232-.523-3.691,.22-.183,.712-.543,1.379-.743,.689-.206,1.203-.018,1.22-.011,.256,.102,.547-.022,.65-.279s-.022-.547-.279-.65c-.084-.034-.859-.322-1.878-.019-1.168,.35-1.898,1.078-1.929,1.108-.076,.077-.125,.176-.14,.283-.009,.062-.189,1.434,.36,3.627-.631,.725-1.347,1.399-2.133,2.007-1.704,1.318-3.313,2.398-4.184,2.884l-2.96-6.099h1.922c.276,0,.5-.224,.5-.5s-.224-.5-.5-.5H3.59c-.276,0-.5,.224-.5,.5s.224,.5,.5,.5h1.769l2.646,5.452c-.718-.253-1.512-.316-2.268-.316-2.033,0-4.736,.492-4.736,4.744,0,4.205,2.531,4.744,4.736,4.744,2.033,0,4.736-.492,4.736-4.744,0-1.262-.228-2.193-.607-2.879,1.002-.552,2.739-1.739,4.36-2.994,.665-.514,1.283-1.073,1.847-1.67,.441,1.361,.903,2.273,1.251,2.843-1.837,.186-3.797,1.08-3.797,4.7,0,4.205,2.531,4.744,4.736,4.744,2.033,0,4.736-.492,4.736-4.744,0-4.051-2.35-4.699-4.494-4.741ZM5.736,20.285c-2.243,0-3.736-.637-3.736-3.744s1.494-3.744,3.736-3.744,3.736,.637,3.736,3.744-1.494,3.744-3.736,3.744Zm12.527,0c-2.243,0-3.736-.637-3.736-3.744s1.494-3.744,3.736-3.744,3.736,.637,3.736,3.744-1.494,3.744-3.736,3.744Z"/>
</svg>
