<svg id="Layer_1" viewBox="0 0 24 24" xmlns="http://www.w3.org/2000/svg" data-name="Layer 1"><path d="m14.561 3.276c.614-1.229 1.654-2.056 2.852-2.269.141-.024.295.014.409.109.113.095.179.235.179.383v9.001c0 .276-.224.5-.5.5s-.5-.224-.5-.5v-8.324c-.633.285-1.187.833-1.544 1.548-.124.246-.424.349-.671.224-.247-.124-.347-.424-.224-.671zm-6.148 9.731c-1.198.213-2.237 1.04-2.852 2.269-.124.247-.023.547.224.671.248.125.547.023.671-.224.357-.715.912-1.263 1.544-1.548v8.324c0 .276.224.5.5.5s.5-.224.5-.5v-8.999c0-.147-.065-.288-.179-.383-.114-.096-.266-.136-.409-.109zm3.587-7.008c0 2.473-.416 5-3.5 5s-3.5-2.527-3.5-5 .416-5 3.5-5 3.5 2.527 3.5 5zm-1 0c0-3.331-.957-4-2.5-4s-2.5.669-2.5 4 .957 4 2.5 4 2.5-.669 2.5-4zm8 12c0 2.473-.416 5-3.5 5s-3.5-2.527-3.5-5 .416-5 3.5-5 3.5 2.527 3.5 5zm-1 0c0-3.331-.957-4-2.5-4s-2.5.669-2.5 4 .957 4 2.5 4 2.5-.669 2.5-4z"/></svg>