<svg id="Layer_1" viewBox="0 0 24 24" xmlns="http://www.w3.org/2000/svg" data-name="Layer 1"><path d="m23.001 10.5c0-1.906-1.116-3.744-2.714-4.47-.245-.112-.508-.228-.786-.346v-2.184c0-1.183-1.027-2.5-2.5-2.5-1.332 0-2.5 1.168-2.5 2.5v.7c-.797-.125-1.633-.2-2.5-.2s-1.705.073-2.5.197v-.697c0-1.332-1.168-2.5-2.5-2.5-1.473 0-2.5 1.317-2.5 2.5v2.176c-.281.119-.545.237-.792.349-1.594.727-2.708 2.567-2.708 4.475 0 0-.004 7.851 0 7.876.044 2.472 2.248 4.624 4.75 4.624s4.699-2.152 4.744-4.624c.004-.025.006-5.424.006-5.424 0-.828.645-1.452 1.5-1.452.841 0 1.5.659 1.5 1.5 0 0 .003 5.351.006 5.376.044 2.472 2.242 4.624 4.744 4.624s4.699-2.152 4.744-4.624c.004-.025.006-7.876.006-7.876zm-7.5-7c0-.694.655-1.5 1.5-1.5.858 0 1.5.792 1.5 1.5v1.783c-.891-.337-1.9-.659-3-.896v-.886zm-10 0c0-.708.642-1.5 1.5-1.5.845 0 1.5.806 1.5 1.5v.882c-1.102.236-2.11.557-3 .892zm.25 18.5c-1.96 0-3.745-1.764-3.745-3.7s1.785-3.7 3.745-3.7 3.745 1.763 3.745 3.7-1.785 3.7-3.745 3.7zm6.25-11.5c-1.402 0-2.5 1.077-2.5 2.452v2.544c-.884-1.136-2.263-1.896-3.75-1.896s-2.866.76-3.75 1.896v-4.996c0-1.505.893-3.004 2.123-3.565 1.822-.831 4.622-1.935 7.877-1.935 3.23 0 6.04 1.107 7.872 1.94 1.233.561 2.128 2.058 2.128 3.56v4.996c-.884-1.136-2.263-1.896-3.75-1.896s-2.866.76-3.75 1.896v-2.496c0-1.402-1.098-2.5-2.5-2.5zm6.25 11.5c-1.96 0-3.745-1.764-3.745-3.7s1.785-3.7 3.745-3.7 3.745 1.763 3.745 3.7-1.785 3.7-3.745 3.7z"/></svg>