<svg id="Layer_1" viewBox="0 0 24 24" xmlns="http://www.w3.org/2000/svg" data-name="Layer 1"><path d="m12.996 23c-4.381 0-7.787-.326-7.82-.329-1.641-.18-2.603-.81-2.965-1.965-.05-.159-1.211-3.971-1.211-9.755 0-1.718.139-3.501.413-5.302.346-2.795 1.181-3.738 3.722-4.19.069-.016 2.163-.458 6.746-.458h.12c4.666 0 9.508 1.051 9.557 1.062.19.042.339.19.381.381.011.049 1.062 4.891 1.062 9.558 0 1.827-.26 4.93-.271 5.061-.016.273-.284.492-.555.455-.045-.005-4.5-.51-9.125-.516-4.533-.015-7.213.315-7.239.318-2.376.302-2.76.896-2.76 2.2.016 1.318.453 1.944 2.229 2.159.027.002 3.389.324 7.718.324 4.652 0 7.323-.505 7.35-.51 1.129-.191 1.129-.369 1.129-.593 0-.252 0-.491-1.433-.631-.024-.002-3.381-.267-6.992-.267s-6.472.283-6.5.286c-.273.023-.521-.173-.547-.448-.028-.274.173-.52.447-.547.029-.003 2.942-.291 6.6-.291s7.047.268 7.081.271c.882.086 2.344.229 2.344 1.627 0 1.246-1.221 1.453-1.95 1.577-.101.019-2.77.526-7.528.526zm-1.111-21c-4.462 0-6.536.435-6.557.439-2.114.377-2.631.97-2.925 3.346-.269 1.765-.403 3.498-.403 5.166 0 2.742.274 5.051.558 6.701.595-.814 1.685-1.142 3.127-1.325-.029-.007 2.996-.342 7.366-.326 3.759.005 7.406.335 8.722.468.075-.972.228-3.115.228-4.468 0-3.879-.745-7.891-.973-9.027-1.147-.23-5.222-.991-9.143-.973z"/></svg>