<svg id="Layer_1" viewBox="0 0 24 24" xmlns="http://www.w3.org/2000/svg" data-name="Layer 1"><path d="m21.069 18.066c.248-1.739.534-4.075.534-6.066 0-5.348-1.101-9.265-1.147-9.429s-.173-.292-.336-.341c-.166-.05-4.127-1.229-8.818-1.229s-8.652 1.178-8.819 1.228c-.164.049-.291.179-.337.343-.046.166-1.146 4.125-1.146 9.428 0 5.348 1.1 9.265 1.146 9.429.047.164.173.292.336.341.167.05 4.127 1.229 8.818 1.229.748 0 1.527-.031 2.318-.092.275-.021.48-.262.459-.537-.021-.276-.262-.475-.537-.46-.764.059-1.518.089-2.24.089-3.862 0-7.301-.851-8.263-1.112-.243-.967-1.038-4.463-1.038-8.888 0-.299.004-.594.011-.885h13.983c.276 0 .5-.224.5-.5v-8.16c1.476.246 2.586.527 3.07.658.244.967 1.039 4.463 1.039 8.888 0 1.973-.294 4.32-.541 6.039-1.17.208-2.061 1.232-2.061 2.461 0 1.378 1.121 2.5 2.5 2.5s2.5-1.122 2.5-2.5c0-1.183-.826-2.176-1.931-2.434zm-19.021-7.951c.067-1.329.196-2.541.343-3.578.016.002.032.002.048.002h13.054v3.575h-13.445zm13.445-4.575h-12.949c.196-1.171.393-2.021.495-2.428.963-.261 4.403-1.112 8.262-1.112 1.502 0 2.939.129 4.192.301v3.238zm5.007 16.46c-.827 0-1.5-.673-1.5-1.5 0-.822.664-1.491 1.484-1.5h.044c.814.015 1.472.682 1.472 1.499 0 .827-.673 1.5-1.5 1.5z"/></svg>