<svg id="Layer_1" viewBox="0 0 24 24" xmlns="http://www.w3.org/2000/svg" data-name="Layer 1"><path d="m21.771 2.562c-.05-.163-.179-.289-.343-.335-.178-.05-4.412-1.227-9.428-1.227s-9.249 1.177-9.428 1.227c-.164.046-.294.173-.343.337-.051.166-1.229 4.129-1.229 9.437 0 5.353 1.18 9.274 1.229 9.438.05.163.179.289.343.335.178.05 4.412 1.227 9.428 1.227s9.249-1.177 9.428-1.227c.164-.046.294-.173.343-.337.051-.166 1.229-4.129 1.229-9.437 0-5.353-1.18-9.274-1.229-9.438zm-9.271 13.938v-4h9.496c-.021 1.462-.134 2.817-.282 4zm-10.217 0c-.147-1.18-.258-2.534-.279-4h9.496v4zm13.717-9v4h-8v-4zm5.996 4h-4.996v-4h4.717c.147 1.18.258 2.534.279 4zm-14.996 0h-4.996c.021-1.462.134-2.817.282-4h4.714zm14.579-5h-9.079v-4.496c3.964.064 7.421.869 8.389 1.114.136.506.436 1.711.69 3.381zm-18.467-3.381c.97-.246 4.432-1.05 8.388-1.114v4.495h-9.076c.254-1.665.552-2.873.688-3.381zm-.691 14.381h4.579v4.131c-1.889-.267-3.32-.605-3.889-.749-.136-.506-.436-1.711-.69-3.381zm5.579 4.259v-4.259h8v4.259c-1.223.142-2.586.241-4 .241s-2.778-.1-4-.241zm12.888-.878c-.57.144-2.001.482-3.888.749v-4.13h4.576c-.254 1.665-.552 2.873-.688 3.381z"/></svg>