<svg id="Layer_1" viewBox="0 0 24 24" xmlns="http://www.w3.org/2000/svg" data-name="Layer 1"><path d="m1.015 5.671c-.066-.268.097-.539.364-.606.174-.043 4.332-1.065 10.621-1.065s10.447 1.021 10.621 1.065c.268.067.431.338.364.606-.066.27-.345.431-.606.364-.042-.011-4.223-1.035-10.379-1.035s-10.337 1.024-10.379 1.035c-.271.063-.54-.097-.606-.364zm21.606 14.393c-.174-.043-4.332-1.064-10.621-1.064-2.217 0-4.424.129-6.559.383-.274.032-.471.281-.438.555.033.276.293.473.555.438 2.097-.249 4.264-.375 6.441-.375 6.156 0 10.337 1.024 10.379 1.035.261.066.541-.094.606-.364.066-.268-.097-.539-.364-.606zm-21.121-8.064c-.276 0-.5.224-.5.5v8.05c0 .276.224.5.5.5s.5-.224.5-.5v-8.05c0-.276-.224-.5-.5-.5zm21.121.565c-.174-.043-4.332-1.065-10.621-1.065-2.225 0-4.432.129-6.56.383-.273.033-.47.282-.437.556.033.275.287.47.556.438 2.088-.25 4.255-.376 6.44-.376 6.156 0 10.337 1.024 10.379 1.035.261.066.541-.094.606-.364.066-.268-.097-.539-.364-.606z"/></svg>