<svg id="Layer_1" viewBox="0 0 24 24" xmlns="http://www.w3.org/2000/svg" data-name="Layer 1"><path d="m21.938 2.442c-.042-.19-.19-.339-.381-.381-.048-.011-4.891-1.062-9.557-1.062s-9.509 1.052-9.557 1.063c-.191.042-.34.19-.381.381-.011.049-1.062 4.891-1.062 9.558s1.051 9.509 1.062 9.558c.042.19.19.339.381.381.048.011 4.891 1.062 9.557 1.062s9.509-1.051 9.557-1.062c.191-.042.34-.19.381-.381.011-.049 1.062-4.891 1.062-9.558s-1.051-9.509-1.062-9.558zm-.911 18.585c-1.136.228-5.148.973-9.027.973s-7.891-.745-9.027-.973c-.228-1.137-.973-5.148-.973-9.027s.745-7.891.973-9.027c1.136-.228 5.148-.973 9.027-.973s7.891.745 9.027.973c.228 1.137.973 5.148.973 9.027s-.745 7.891-.973 9.027zm-14.277-3.027c0 .414-.336.75-.75.75s-.75-.336-.75-.75.336-.75.75-.75.75.336.75.75zm0-12c0 .414-.336.75-.75.75s-.75-.336-.75-.75.336-.75.75-.75.75.336.75.75zm12 0c0 .414-.336.75-.75.75s-.75-.336-.75-.75.336-.75.75-.75.75.336.75.75zm0 12c0 .414-.336.75-.75.75s-.75-.336-.75-.75.336-.75.75-.75.75.336.75.75zm-6 0c0 .414-.336.75-.75.75s-.75-.336-.75-.75.336-.75.75-.75.75.336.75.75zm3.25-8c0 1.458-.794 2.801-2.072 3.505-.651.359-1.428.997-1.428 1.995 0 .276-.224.5-.5.5s-.5-.224-.5-.5c0-1.159.691-2.179 1.946-2.87.958-.529 1.554-1.536 1.554-2.63 0-2.215-.785-3-3-3-2.063 0-2.873.686-2.986 2.531-.017.275-.25.5-.53.468-.276-.017-.485-.254-.468-.53.148-2.398 1.377-3.469 3.984-3.469 2.766 0 4 1.233 4 4z"/></svg>