<svg id="Layer_1" viewBox="0 0 24 24" xmlns="http://www.w3.org/2000/svg" data-name="Layer 1"><path d="m21.937 3.883c-.063-.289-.398-.464-.672-.348-2.327.931-5.721 1.464-9.312 1.464-2.096 0-3.441-.088-4.778-.322.085-.999.201-1.973.345-2.89.047-.272-.16-.547-.436-.574-.068-.008-1.681-.199-2.219-.199-1.197 0-1.915.292-2.388.959-1.063 1.372-1.478 3.855-1.478 8.855 0 3.011.417 7.157 1.328 9.569.363 1.069 1.002 1.548 2.366 1.952 1.976.432 3.641.65 7.259.65 3.562 0 7.316-.617 9.8-1.611.154-.062.268-.195.303-.357.039-.176.944-4.353.944-8.507s-1.021-8.46-1.063-8.641zm-19.382 13.433c-.377-2.084-.555-4.529-.555-6.487 0-4.692.393-7.061 1.281-8.26.25-.337.592-.554 1.584-.554.289 0 1.032.074 1.589.134-.307 2.149-.467 4.561-.453 6.854.012 2.137.159 4.492.448 7.181-.423-.092-.962-.184-1.422-.184-.906 0-1.933.267-2.473 1.316zm18.578 3.241c-2.372.893-5.855 1.443-9.18 1.443-3.527 0-5.14-.211-7.015-.62-1.379-.375-1.765-.963-1.763-2.202 0-1.527.554-2.179 1.852-2.179.749 0 1.846.32 1.856.323.33.109.687-.193.639-.536-.338-2.954-.509-5.502-.521-7.79-.007-1.093.027-2.213.099-3.317 1.365.231 2.744.32 4.854.32 3.443 0 6.728-.481 9.134-1.33.273 1.298.913 4.666.913 7.854 0 3.465-.67 7.052-.867 8.033zm-1.348-11.904c.124.961.215 2.521.215 3.709 0 2.054-.243 3.966-.454 5.403-.03.205-.183.369-.385.415-2.312.525-5.09.838-7.428.838-.691 0-1.282-.011-1.83-.026-.257-.007-.466-.207-.485-.463-.234-3.145-.376-6.178-.418-9.015-.004-.276.217-.503.492-.507h.008c.272 0 .496.219.5.493.04 2.681.169 5.54.383 8.503.412.009.854.015 1.351.015.72 0 1.488-.041 2.267-.099v-4.001c-.502.036-1.008.074-1.485.088-.275.008-.507-.209-.515-.485s.21-.506.485-.515c1.27-.037 2.675-.159 3.957-.344.265-.045.526.149.566.423.039.273-.15.527-.424.566-.512.074-1.05.129-1.585.182v4.003c1.231-.127 2.468-.315 3.605-.558.193-1.357.395-3.084.395-4.916 0-.927-.06-2.126-.146-3.03-1.701.361-4.092.597-5.326.667-.3.028-.512-.195-.527-.471-.016-.275.195-.512.471-.527 1.34-.075 4.07-.35 5.692-.768.282-.077.59.128.621.42z"/></svg>