<?xml version="1.0" encoding="UTF-8"?>
<svg xmlns="http://www.w3.org/2000/svg" id="Layer_1" data-name="Layer 1" viewBox="0 0 24 24">
  <path d="M20.165,16.216c-.288-2.756-2.717-4.982-5.75-5.453,.552-.339,1.043-.767,1.445-1.269,.988-1.234,1.345-2.755,1.004-4.284-.546-2.44-2.996-4.21-5.826-4.21H5.21c-.243,0-.45,.174-.492,.414-1.132,6.465-1.215,13.036-.246,19.529l.244,1.632c.036,.245,.247,.426,.494,.426h.002s6.572-.025,8.273-.025c2.01,0,3.897-.815,5.178-2.237,1.142-1.267,1.675-2.873,1.502-4.522ZM5.632,2h5.406c2.366,0,4.406,1.442,4.85,3.428,.274,1.227-.013,2.449-.808,3.441-.904,1.128-2.362,1.802-3.964,1.802-.001,0-.002,0-.003,0s-.002,0-.003,0H4.816c.061-2.9,.333-5.796,.816-8.671Zm12.288,18.069c-1.091,1.211-2.707,1.906-4.435,1.906-1.438,0-6.354,.018-7.845,.023l-.181-1.204c-.452-3.03-.67-6.078-.657-9.123H13.221c3.063,0,5.677,2.042,5.95,4.649,.143,1.364-.302,2.695-1.251,3.749Z"/>
</svg>
