<svg id="Layer_1" viewBox="0 0 24 24" xmlns="http://www.w3.org/2000/svg" data-name="Layer 1"><path d="m22.854 22.146-5.754-5.754c1.975-2.956 2.871-5.724 2.88-5.75.1-.308-.155-.651-.479-.643h-4.932l1.077-8.436c.053-.347-.304-.651-.64-.543-2.813.842-5.337 2.787-7.518 5.761l-5.634-5.635c-.195-.195-.512-.195-.707 0s-.195.512 0 .707l20.999 21.001c.195.195.512.195.707 0s.195-.512 0-.707zm-8.301-19.915-1.049 8.205c-.044.289.204.57.496.563h4.788c-.358.925-1.144 2.737-2.412 4.669l-8.174-8.173c1.875-2.595 4.005-4.368 6.351-5.263zm.292 16.275c.2.19.208.507.017.706-1.782 1.868-3.756 3.135-5.868 3.767-.332.109-.694-.196-.64-.543l1.078-8.437h-4.932c-.325.009-.581-.336-.479-.645.004-.015.486-1.538 1.586-3.592.131-.243.435-.336.677-.204.243.13.335.433.204.677-.623 1.164-1.041 2.155-1.276 2.764h4.788c.292-.007.54.274.496.563l-1.049 8.205c1.668-.639 3.243-1.729 4.691-3.245.189-.201.507-.207.706-.017z"/></svg>