<?xml version="1.0" encoding="UTF-8"?>
<svg xmlns="http://www.w3.org/2000/svg" id="Layer_1" data-name="Layer 1" viewBox="0 0 24 24">
  <path d="M19.915,9.158c-.095-.126-.243-.201-.401-.201h-5.084l1.313-5.833c.042-.185-.024-.378-.172-.498-.082-.066-2.029-1.626-4.348-1.626-2.375,0-4.312,1.561-4.393,1.627-.083,.068-.143,.162-.169,.267l-2.661,10.688c-.037,.149-.003,.307,.091,.429,.095,.121,.24,.192,.394,.192h4.86l-.984,8.239c-.02,.167,.05,.328,.174,.441,.185,.169,.418,.111,.465,.097,7.594-2.263,10.856-12.927,10.992-13.379,.045-.151,.016-.315-.078-.442Zm-10.465,12.61l.957-8.007c.017-.142-.028-.284-.123-.391-.095-.107-.231-.168-.374-.168H5.126L7.59,3.306c.433-.316,1.925-1.306,3.633-1.306,1.528,0,2.925,.846,3.473,1.224l-1.379,6.123c-.034,.148,.002,.304,.097,.422s.238,.188,.391,.188h5.014c-.792,2.231-3.785,9.616-9.368,11.811Z"/>
</svg>
