<svg id="Layer_1" viewBox="0 0 24 24" xmlns="http://www.w3.org/2000/svg" data-name="Layer 1"><path d="m5.947 8.224c.122-.244.223-.483.312-.721.133-.353.391-.611.742-.744.24-.089.48-.19.724-.312.169-.084.276-.257.276-.447s-.107-.362-.276-.447c-.244-.122-.483-.223-.721-.312-.354-.133-.611-.391-.744-.743-.089-.239-.19-.479-.312-.723-.169-.338-.725-.338-.894 0-.122.244-.223.483-.312.721-.133.353-.391.611-.742.744-.24.089-.48.19-.724.312-.169.084-.276.257-.276.447s.107.362.276.447c.244.122.483.223.721.312.354.133.611.391.744.743.089.239.19.479.312.723.084.169.257.276.447.276s.362-.107.447-.276z"/><path d="m10.219 3.45c1.977-.962 4.006-1.45 6.031-1.45 2.784 0 3.74 2.56 3.779 2.668.073.204.266.331.471.331.056 0 .113-.01.168-.029.26-.093.396-.377.303-.637-.012-.033-1.221-3.333-4.721-3.333-2.178 0-4.354.521-6.469 1.55-.249.121-.352.42-.231.668.121.249.421.354.668.231z"/><path d="m19.919 12.19.498-.496c.037-.048.886-1.209-.797-2.885-1.678-1.67-2.856-.826-2.958-.744l-.458.453c-2.848-1.86-5.43-1.316-8.558 1.775-1.597 1.578-2.374 3.126-2.374 4.733 0 1.71.899 3.43 2.75 5.259 1.826 1.805 3.593 2.706 5.326 2.706 1.611 0 3.193-.779 4.769-2.335 3.14-3.103 3.694-5.658 1.803-8.466zm-2.506 7.755c-2.874 2.84-5.554 2.727-8.688-.371-1.65-1.631-2.453-3.119-2.453-4.547 0-1.326.68-2.642 2.077-4.022 1.872-1.85 3.359-2.561 4.68-2.561 1.048 0 1.992.446 2.941 1.126.198.142.47.12.643-.051l.683-.687c.024-.015.586-.342 1.618.685 1.014 1.009.702 1.548.751 1.519l-.75.741c-.177.175-.198.453-.05.653 1.56 2.107 1.909 4.192-1.452 7.514z"/></svg>