<svg id="Layer_1" viewBox="0 0 24 24" xmlns="http://www.w3.org/2000/svg" data-name="Layer 1"><path d="m8 23c-2.442 0-3.672-.95-3.934-3.066-2.116-.262-3.066-1.491-3.066-3.934 0-2.767 1.233-4 4-4 .845 0 1.535.114 2.095.346.76-1.019 1.576-1.967 2.431-2.82.855-.856 1.803-1.672 2.821-2.43-.233-.56-.347-1.25-.347-2.095 0-2.767 1.233-4 4-4 2.442 0 3.672.95 3.934 3.066 2.116.262 3.066 1.491 3.066 3.934 0 2.767-1.233 4-4 4-.845 0-1.535-.114-2.095-.346-.76 1.019-1.576 1.967-2.431 2.82-.855.856-1.803 1.672-2.821 2.43.233.56.347 1.25.347 2.095 0 2.767-1.233 4-4 4zm-3-10c-2.215 0-3 .785-3 3 0 2.056.692 2.862 2.557 2.975.252.015.454.216.469.469.112 1.864.918 2.557 2.975 2.557 2.215 0 3-.785 3-3 0-.879-.135-1.531-.41-1.993-.134-.223-.074-.511.137-.663 1.104-.796 2.128-1.663 3.041-2.577.911-.911 1.778-1.934 2.578-3.041.151-.211.44-.269.662-.137.461.276 1.112.41 1.992.41 2.215 0 3-.785 3-3 0-2.056-.692-2.862-2.557-2.975-.252-.015-.454-.216-.469-.469-.112-1.864-.918-2.557-2.975-2.557-2.215 0-3 .785-3 3 0 .879.135 1.531.41 1.993.134.223.074.511-.137.663-1.104.796-2.128 1.663-3.041 2.577-.911.911-1.778 1.934-2.578 3.041-.151.211-.44.269-.662.137-.461-.276-1.112-.41-1.992-.41z"/></svg>