<svg id="Layer_1" viewBox="0 0 24 24" xmlns="http://www.w3.org/2000/svg" data-name="Layer 1"><path d="m22.777 15.787c-.272.566-.775.999-1.566 1.342.48 1.795-.178 2.909-2.088 3.577-2.072.723-3.316.123-4.039-1.945-.167-.479-.26-.908-.279-1.303-.938-.29-1.88-.64-2.805-1.045-.925.405-1.866.755-2.805 1.045-.02.395-.112.825-.279 1.303-.528 1.512-1.336 2.239-2.54 2.239-.443 0-.941-.099-1.499-.294-1.91-.668-2.568-1.782-2.088-3.577-.791-.344-1.294-.776-1.566-1.342-.32-.666-.298-1.467.071-2.521.723-2.069 1.97-2.668 4.039-1.946.489.171.892.374 1.217.613.903-.592 2.443-1.458 3.792-1.907.263-.085.545.054.633.316.087.262-.055.545-.316.632-1.26.42-2.925 1.341-3.853 1.994-.196.139-.465.118-.638-.051-.263-.257-.644-.471-1.165-.653-1.532-.535-2.229-.199-2.766 1.332-.271.777-.309 1.352-.113 1.758s.668.735 1.445 1.007c.125.044.228.136.285.255.058.119.065.257.021.382-.535 1.531-.199 2.229 1.331 2.765 1.531.535 2.229.199 2.766-1.331.179-.514.251-.939.219-1.299-.021-.238.129-.458.358-.524 1.085-.316 2.178-.72 3.246-1.198.129-.058.279-.058.408 0 1.068.479 2.161.882 3.246 1.198.229.067.38.287.358.524-.032.36.04.785.219 1.299.536 1.532 1.235 1.868 2.766 1.331 1.53-.536 1.866-1.233 1.331-2.765-.044-.125-.036-.263.021-.382.058-.12.16-.211.285-.255.777-.271 1.25-.601 1.445-1.007s.158-.981-.113-1.758c-.536-1.531-1.232-1.867-2.766-1.332-.521.182-.902.396-1.165.653-.173.168-.441.19-.638.051-.928-.653-2.593-1.574-3.853-1.994-.262-.087-.403-.37-.316-.632.088-.262.372-.401.633-.316 1.349.449 2.889 1.315 3.792 1.907.325-.239.728-.441 1.217-.613 2.067-.724 3.315-.124 4.039 1.945.369 1.054.392 1.855.071 2.521zm-10.777-8.787c.276 0 .5-.224.5-.5v-3c0-.276-.224-.5-.5-.5s-.5.224-.5.5v3c0 .276.224.5.5.5zm3.5 1c.128 0 .256-.049.354-.146l2-2c.195-.195.195-.512 0-.707s-.512-.195-.707 0l-2 2c-.195.195-.195.512 0 .707.098.098.226.146.354.146zm-7.354-.146c.195.195.512.195.707 0s.195-.512 0-.707l-2-2c-.195-.195-.512-.195-.707 0s-.195.512 0 .707z"/></svg>