<svg id="Layer_1" viewBox="0 0 24 24" xmlns="http://www.w3.org/2000/svg" data-name="Layer 1"><path d="m20.152 2.463c-.033-.191-.175-.346-.363-.396-.163-.043-4.033-1.066-7.789-1.066-2.056 0-4.087.306-5.115.487-1.817.321-3.189 1.77-3.416 3.603-.214 1.733-.469 4.34-.469 6.91s.255 5.177.469 6.91c.227 1.833 1.599 3.281 3.416 3.603 1.028.182 3.06.487 5.115.487 3.756 0 7.626-1.023 7.789-1.066.188-.051.33-.205.363-.396.009-.049.848-4.881.848-9.537s-.839-9.488-.848-9.537zm-15.691 2.75c.172-1.395 1.216-2.496 2.598-2.741.996-.176 2.962-.472 4.941-.472 3.027 0 6.229.715 7.221.955.183 1.141.779 5.158.779 9.045 0 1.73-.118 3.484-.266 5h-11.484c-.982 0-2.801.526-3.674 2.324-.052-.173-.092-.352-.115-.537-.21-1.705-.461-4.268-.461-6.787s.251-5.082.461-6.787zm7.539 16.787c-1.979 0-3.945-.296-4.941-.472-.742-.132-1.38-.515-1.844-1.053.586-2.421 2.936-2.474 3.036-2.475h11.38c-.159 1.418-.326 2.528-.409 3.045-.991.241-4.19.955-7.221.955zm-2.49-9.157c.088 1.546.811 2.157 2.49 2.157s2.402-.611 2.49-2.157c1.424-.14 2.01-1.126 2.01-3.343 0-3.238-1.262-4.5-4.5-4.5s-4.5 1.262-4.5 4.5c0 2.217.586 3.203 2.01 3.343zm2.49-6.843c2.683 0 3.5.817 3.5 3.5 0 2.308-.668 2.334-1.258 2.357l-.263.011c-.268.012-.479.231-.479.5v.132c0 1.262-.238 1.5-1.5 1.5s-1.5-.238-1.5-1.5v-.132c0-.269-.212-.488-.479-.5l-.264-.011c-.589-.023-1.257-.05-1.257-2.357 0-2.683.817-3.5 3.5-3.5zm-2.2 3.5c0-.387.313-.7.7-.7s.7.313.7.7-.313.7-.7.7-.7-.313-.7-.7zm2.95 0c0-.414.336-.75.75-.75s.75.336.75.75-.336.75-.75.75-.75-.336-.75-.75z"/></svg>