<svg id="Layer_1" viewBox="0 0 24 24" xmlns="http://www.w3.org/2000/svg" data-name="Layer 1"><path d="m2 12c0-1.088.068-2.104.163-3.028.502-.134 3.831-.972 8.837-.972s8.335.838 8.837.972c.095.924.163 1.94.163 3.028 0 1.443-.111 2.933-.332 4.427-.04.273.148.527.422.568.271.029.527-.149.567-.422.227-1.543.342-3.081.342-4.573 0-4.271-.935-7.557-.975-7.694-.048-.165-.177-.295-.343-.342-.072-.021-1.029-.288-2.683-.536v-1.928c0-.276-.224-.5-.5-.5s-.5.224-.5.5v1.792c-1.351-.163-3.038-.292-5-.292s-3.649.129-5 .292v-1.792c0-.276-.224-.5-.5-.5s-.5.224-.5.5v1.928c-1.654.248-2.61.515-2.683.536-.166.047-.295.177-.343.342-.04.138-.975 3.423-.975 7.694s.935 7.557.975 7.694c.076.268.361.418.619.342.265-.077.418-.354.342-.619-.009-.032-.936-3.294-.936-7.417zm.863-7.145c.883-.216 3.865-.855 8.137-.855s7.254.64 8.137.855c.122.482.373 1.587.574 3.052-1.137-.274-4.249-.907-8.711-.907s-7.573.634-8.711.907c.201-1.465.452-2.57.574-3.052zm20.063 15.606c0 .728-.028 1.447-.081 2.08-.022.274-.255.471-.54.456-.275-.022-.48-.265-.457-.54.043-.515.069-1.092.075-1.684-2.395-1.128-5.151-1.554-7.043-1.778-.252-.029-.441-.242-.441-.496v-5.393c0-.789-.535-1.471-1.245-1.587-.448-.072-.885.046-1.227.336-.336.286-.529.702-.529 1.144v8.5c0 .21-.13.396-.327.469-.197.074-.417.016-.553-.145-1.214-1.425-2.433-2.472-2.445-2.482-.418-.361-.98-.43-1.466-.174-.468.244-.726.777-.626 1.296 0 0 .188.86.596 1.845.105.256-.016.548-.271.653-.248.105-.548-.013-.653-.271-.444-1.074-.644-1.99-.652-2.028-.187-.975.274-1.927 1.144-2.382.845-.44 1.858-.322 2.581.303.038.032.767.658 1.673 1.614v-7.198c0-.734.321-1.43.881-1.905.56-.476 1.302-.68 2.035-.561 1.188.193 2.083 1.3 2.083 2.573v4.95c2.019.257 4.795.749 7.21 1.957.169.085.276.258.276.447z"/></svg>