<?xml version="1.0" encoding="UTF-8"?>
<svg xmlns="http://www.w3.org/2000/svg" id="Layer_1" data-name="Layer 1" viewBox="0 0 24 24">
  <path d="M22.35,3.594c-.031-.162-.14-.297-.291-.363-.097-.042-2.408-1.039-5.13-1.039-2.239,0-4.187,1.211-4.93,1.739-.742-.528-2.691-1.739-4.93-1.739-2.722,0-5.033,.997-5.13,1.039-.151,.066-.259,.201-.291,.363-.027,.137-.65,3.396-.65,7.764,0,2.485,.203,4.607,.373,5.949,.16,1.266,1.1,2.31,2.338,2.596l8.176,1.891c.038,.008,.075,.013,.113,.013s.075-.005,.111-.013c0,0,.001,0,.002,0l8.176-1.891c1.238-.287,2.178-1.33,2.338-2.596,.17-1.342,.373-3.464,.373-5.949,0-4.368-.623-7.627-.65-7.764ZM2.365,17.182c-.167-1.313-.365-3.39-.365-5.823,0-3.569,.438-6.445,.584-7.308,.639-.243,2.458-.858,4.486-.858s3.858,1.199,4.43,1.612v15.874l-7.563-1.75c-.833-.192-1.464-.895-1.572-1.748Zm19.27,0c-.108,.853-.739,1.555-1.572,1.748l-7.563,1.749V4.804c.57-.414,2.394-1.612,4.43-1.612,2.021,0,3.845,.615,4.486,.858,.146,.864,.584,3.739,.584,7.308,0,2.433-.199,4.51-.365,5.823Z"/>
</svg>
