<svg id="Layer_1" viewBox="0 0 24 24" xmlns="http://www.w3.org/2000/svg" data-name="Layer 1"><path d="m20.531 5.09c-.227-1.833-1.6-3.281-3.416-3.603-1.026-.182-3.055-.487-5.116-.487-3.756 0-7.626 1.023-7.789 1.067-.188.05-.33.205-.364.396-.008.048-.847 4.88-.847 9.537s.839 9.488.847 9.537c.034.192.176.346.364.396.163.043 4.033 1.067 7.789 1.067 2.061 0 4.089-.305 5.116-.487 1.816-.322 3.189-1.77 3.416-3.603.214-1.734.469-4.34.469-6.91s-.255-5.176-.469-6.91zm-3.59 16.438c-.994.176-2.957.472-4.941.472-3.027 0-6.229-.714-7.22-.955-.083-.517-.251-1.627-.409-3.045h11.377c.102 0 2.452.054 3.038 2.475-.465.539-1.103.922-1.845 1.054zm2.598-2.741c-.023.185-.063.364-.115.537-.872-1.798-2.691-2.324-3.674-2.324h-11.484c-.147-1.517-.266-3.271-.266-5 0-3.886.597-7.904.78-9.045.991-.241 4.19-.955 7.22-.955 1.984 0 3.947.295 4.941.472 1.381.245 2.425 1.346 2.598 2.741.21 1.707.461 4.269.461 6.788s-.251 5.081-.461 6.787zm-2.75-12.28c-.05-.016-.961-.294-2.74-.431-.947-1.269-1.627-1.872-1.724-1.956-.187-.159-.463-.159-.649 0-.098.084-.777.687-1.724 1.956-1.779.137-2.69.415-2.74.431-.248.077-.395.331-.339.584.01.048.21.918.96 2.409-.749 1.491-.949 2.36-.96 2.409-.056.253.091.507.339.584.05.016.961.294 2.74.431.947 1.269 1.627 1.872 1.724 1.956.187.159.463.159.649 0 .098-.084.777-.687 1.724-1.956 1.779-.137 2.69-.415 2.74-.431.248-.077.395-.331.339-.584-.01-.048-.21-.918-.96-2.409.749-1.491.949-2.36.96-2.409.056-.253-.091-.507-.339-.584zm-4.789-1.318c.182.185.435.46.735.826-.24-.006-.474-.014-.735-.014s-.496.008-.735.014c.301-.366.553-.641.735-.826zm2.332 3.083c.276.447.504.851.706 1.229-.202.378-.43.782-.706 1.229-.286.463-.558.867-.813 1.227-.456.026-.959.044-1.519.044s-1.062-.017-1.519-.044c-.255-.36-.526-.764-.813-1.227-.276-.447-.504-.851-.706-1.229.202-.378.43-.782.706-1.229.286-.463.558-.867.813-1.227.456-.026.959-.044 1.519-.044s1.063.017 1.519.044c.255.36.526.764.813 1.227zm-6.339-.925c.28-.058.687-.128 1.206-.19-.126.191-.25.378-.381.589-.144.234-.268.449-.392.665-.197-.438-.346-.811-.433-1.064zm0 4.309c.087-.253.236-.626.433-1.064.125.216.248.432.392.665.13.211.255.398.381.589-.519-.062-.927-.132-1.206-.19zm4.008 2.157c-.182-.185-.435-.46-.735-.826.24.006.474.014.735.014s.496-.008.735-.014c-.301.366-.553.641-.735.826zm4.008-2.157c-.279.058-.687.128-1.206.19.125-.191.25-.378.381-.589.144-.233.268-.449.392-.665.197.438.346.811.433 1.064zm-.826-3.91c-.13-.211-.255-.398-.381-.589.519.062.927.132 1.206.19-.087.253-.236.626-.433 1.064-.125-.216-.248-.432-.392-.665z"/></svg>