<?xml version="1.0" encoding="UTF-8"?>
<svg xmlns="http://www.w3.org/2000/svg" id="Layer_1" data-name="Layer 1" viewBox="0 0 24 24">
  <path d="M20.225,2.628c-.039-.167-.166-.305-.329-.36-.381-.13-3.841-1.269-7.896-1.269-2.276,0-4.378,.37-5.741,.679-1.516,.345-2.662,1.616-2.919,3.24-.266,1.679-.583,4.324-.583,7.389,0,2.943,.29,5.474,.533,7.079,.267,1.763,1.642,3.125,3.344,3.31,1.852,.201,3.658,.303,5.367,.303,4.153,0,7.788-.628,7.824-.635,.196-.035,.353-.181,.399-.374,.042-.17,1.021-4.236,1.021-9.683,0-5.288-.914-9.243-1.02-9.68Zm-2.597,2.108c0,3.481-.598,3.836-.598,3.837-.199,0-.661-.388-.94-.734-.189-.235-.59-.235-.779,0-.279,.347-.74,.734-.933,.735-.007-.002-.604-.357-.604-3.838,0-.462,.065-1.991,.11-2.654,1.417,.122,2.699,.358,3.693,.586,.03,.545,.051,1.591,.051,2.067Zm-4.742-2.718c-.049,.724-.112,2.259-.112,2.718,0,3.3,.508,4.837,1.598,4.837,.5,0,.995-.368,1.329-.686,.335,.318,.831,.686,1.33,.686,1.09,0,1.598-1.537,1.598-4.837,0-.374-.014-1.201-.039-1.815,.299,.081,.544,.153,.724,.207,.228,1.028,.931,4.58,.931,9.179,0,1.461-.074,2.828-.182,4.045H8.111V2.335c1.13-.186,2.475-.335,3.889-.335,.298,0,.594,.007,.885,.019ZM4.327,5.076c.193-1.217,1.039-2.168,2.154-2.421,.195-.044,.406-.09,.631-.135v13.93c-1.241,.284-2.311,1.179-2.895,2.371-.223-1.575-.46-3.874-.46-6.511,0-3,.31-5.588,.57-7.232Zm14.998,16.357c-.971,.15-3.975,.567-7.324,.567-1.649,0-3.468-.103-5.258-.297-.813-.088-1.524-.547-1.979-1.217,.176-1.739,1.58-3.132,3.186-3.132h12.014c-.219,1.995-.507,3.463-.639,4.08Z"/>
</svg>
