<svg id="Layer_1" viewBox="0 0 24 24" xmlns="http://www.w3.org/2000/svg" data-name="Layer 1"><path d="m20.429 2.558c-.055-.137-.168-.243-.307-.289-.155-.052-3.847-1.269-8.122-1.269-2.34 0-4.502.369-5.903.679-1.555.343-2.731 1.615-2.997 3.238-.297 1.823-.6 4.09-.6 7.083 0 3.586.42 6.562.548 7.39.275 1.763 1.686 3.123 3.431 3.307 1.905.201 3.762.303 5.521.303 4.272 0 8.011-.628 8.048-.635.198-.034.357-.183.403-.379.011-.044 1.049-4.542 1.049-9.986 0-5.62-1.061-9.416-1.071-9.442zm-16.342 2.52c.198-1.217 1.072-2.168 2.225-2.423 1.353-.299 3.438-.655 5.688-.655 3.535 0 6.648.862 7.548 1.136.225.929.952 4.289.952 8.864 0 1.821-.118 3.534-.275 5h-12.725c-1.705 0-2.925.659-3.52 1.853-.162-1.139-.48-3.763-.48-6.853 0-2.922.297-5.139.587-6.922zm15.461 16.354c-.995.149-4.092.568-7.548.568-2.146 0-4.13-.162-5.416-.297-.82-.087-1.541-.526-2.011-1.17.002-.015.004-.031.005-.047.109-1.65 1.093-2.486 2.921-2.486h12.609c-.208 1.648-.445 2.877-.56 3.432z"/><path d="m12 15.5c3.252 0 6-2.748 6-6s-2.748-6-6-6-6 2.748-6 6 2.748 6 6 6zm-4.974-5.5h2.088c.064 1.547.419 3.072 1.016 4.123-1.667-.695-2.911-2.279-3.104-4.123zm4.974-5.5c.824 0 1.774 1.93 1.885 4.5h-3.77c.111-2.57 1.061-4.5 1.885-4.5zm1.885 5.5c-.111 2.57-1.061 4.5-1.885 4.5s-1.774-1.93-1.885-4.5zm-.016 4.123c.597-1.051.952-2.576 1.016-4.123h2.088c-.193 1.844-1.437 3.427-3.104 4.123zm3.104-5.123h-2.088c-.064-1.547-.419-3.072-1.016-4.123 1.667.695 2.911 2.279 3.104 4.123zm-6.843-4.123c-.597 1.051-.952 2.576-1.016 4.123h-2.088c.193-1.844 1.437-3.427 3.104-4.123z"/></svg>