<svg id="Layer_1" viewBox="0 0 24 24" xmlns="http://www.w3.org/2000/svg" data-name="Layer 1"><path d="m10.488 21.994c-2.151.05-4.352-.275-5.429-.466-.742-.132-1.38-.516-1.845-1.054.586-2.42 2.936-2.473 3.036-2.474h3.25c.276 0 .5-.224.5-.5s-.224-.5-.5-.5h-3.25c-.075 0-.166.012-.25.019v-14.699c1.064-.156 2.527-.32 4-.32 3.027 0 6.229.715 7.22.955.145.899.546 3.584.709 6.572.014.275.25.49.526.472.275-.015.487-.25.472-.526-.202-3.719-.769-6.977-.774-7.01-.034-.191-.176-.346-.364-.396-.163-.043-4.033-1.066-7.789-1.066-2.056 0-4.087.306-5.116.487-1.816.321-3.189 1.77-3.416 3.603-.214 1.733-.469 4.34-.469 6.91s.255 5.177.469 6.91c.227 1.833 1.6 3.281 3.416 3.603 1.028.182 3.06.487 5.115.487.17 0 .341-.002.512-.006.276-.007.495-.235.488-.512-.007-.276-.266-.518-.512-.488zm-8.027-16.781c.17-1.374 1.188-2.46 2.539-2.726v14.74c-.885.292-1.853.921-2.423 2.097-.052-.173-.093-.352-.116-.537-.21-1.705-.461-4.268-.461-6.787s.251-5.082.461-6.787zm15.039 6.787c-3.855 0-5.5 1.645-5.5 5.5s1.645 5.5 5.5 5.5 5.5-1.645 5.5-5.5-1.645-5.5-5.5-5.5zm0 10c-3.28 0-4.5-1.22-4.5-4.5s1.22-4.5 4.5-4.5 4.5 1.22 4.5 4.5-1.22 4.5-4.5 4.5zm.3-6.9c-.178-.133-.422-.133-.6 0-.796.597-1.502 1.304-2.1 2.101-.114.151-.132.354-.047.523s.258.276.447.276h1.5v1.5c0 .276.224.5.5.5s.5-.224.5-.5v-1.5h1.5c.189 0 .362-.107.447-.276.084-.169.066-.372-.047-.523-.598-.797-1.304-1.504-2.1-2.101zm-1.228 1.9c.29-.309.6-.598.928-.865.329.268.639.557.928.865z"/></svg>