<svg id="Layer_1" viewBox="0 0 24 24" xmlns="http://www.w3.org/2000/svg" data-name="Layer 1"><path d="m20.153 2.463c-.034-.192-.176-.346-.364-.396-.163-.043-4.033-1.067-7.789-1.067-2.061 0-4.089.305-5.116.487-1.816.322-3.189 1.77-3.416 3.603-.214 1.734-.469 4.34-.469 6.91s.255 5.176.469 6.91c.227 1.833 1.6 3.281 3.416 3.603 1.026.182 3.055.487 5.116.487 3.756 0 7.626-1.023 7.789-1.067.188-.05.33-.205.364-.396.008-.048.847-4.88.847-9.537s-.839-9.488-.847-9.537zm-15.692 2.75c.173-1.395 1.217-2.497 2.598-2.741.994-.176 2.957-.472 4.941-.472 3.027 0 6.229.714 7.22.955.183 1.141.78 5.159.78 9.045 0 1.729-.118 3.483-.266 5h-11.484c-.983 0-2.802.526-3.674 2.324-.052-.173-.092-.352-.115-.536-.21-1.707-.461-4.269-.461-6.788s.251-5.081.461-6.787zm7.539 16.787c-1.984 0-3.947-.295-4.941-.472-.742-.131-1.38-.515-1.845-1.054.586-2.421 2.936-2.474 3.036-2.475h11.38c-.159 1.418-.326 2.528-.409 3.045-.991.241-4.19.955-7.22.955zm-.196-8.69c.125.053.266.053.392 0 .155-.066 3.804-1.654 3.804-4.87 0-1.318-1.009-2.39-2.25-2.39-.764 0-1.357.305-1.75.72-.394-.416-.987-.72-1.75-.72-1.241 0-2.25 1.072-2.25 2.39 0 3.216 3.649 4.804 3.804 4.87zm-1.554-6.26c.801 0 1.177.514 1.273.818.066.208.259.349.477.349s.411-.142.477-.35c.096-.303.472-.817 1.273-.817.689 0 1.25.624 1.25 1.39 0 2.177-2.304 3.505-3 3.856-.696-.351-3-1.679-3-3.856 0-.767.561-1.39 1.25-1.39z"/></svg>