<svg id="Layer_1" viewBox="0 0 24 24" xmlns="http://www.w3.org/2000/svg" data-name="Layer 1"><path d="m17.599 16c-.376-.171-2.267-1.178-3.597-4.614.007-.473 0-1.027-.002-1.509 0-5.509-.661-8.282-.689-8.397-.048-.2-.215-.35-.418-.377-.097-.015-2.416-.316-5.89.181-3.52.505-4.937 1.459-4.996 1.499-.104.071-.177.18-.205.303-.032.145-.801 3.644-.801 10.987 0 3.099.181 6.328.359 8.151.019.185.138.345.31.414.091.037.945.362 2.831.362 1.874 0 2.731-.177 2.766-.185.183-.039.328-.176.378-.355.011-.038.246-.899.339-2.602.65.286 1.23.621 1.822.962 1.859 1.071 3.781 2.18 8.037 2.18 1.651 0 3.819-.572 4.881-1.102.169-.085.276-.258.276-.447 0-3.99-1.415-5.425-5.4-5.449zm-10.85 5.884c-.38.049-1.116.116-2.249.116-1.111 0-1.82-.124-2.177-.209-.068-.763-.136-1.724-.19-2.791h1.367c1.456 0 2.566.188 3.5.484-.048 1.193-.173 1.995-.251 2.399zm11.093.115c-3.988 0-5.793-1.04-7.538-2.046-1.665-.96-3.387-1.953-6.804-1.953h-1.414c-.053-1.25-.086-2.6-.086-3.927 0-6.232.574-9.706.735-10.559.398-.214 1.545-.741 3.667-1.117-.186 1.722-.385 4.414-.385 8.104 0 .276.224.5.5.5s.5-.224.5-.5c0-3.841.217-6.585.407-8.261 2.427-.322 4.257-.24 4.985-.18.171.893.59 3.519.59 7.818.029.575-.044 1.216.032 1.774 1.658 4.367 4.198 5.284 4.304 5.321.053.019.107.027.163.027 3.381 0 4.433.935 4.497 4.13-1.036.44-2.825.869-4.154.869z"/></svg>