<svg id="Layer_1" viewBox="0 0 24 24" xmlns="http://www.w3.org/2000/svg" data-name="Layer 1"><path d="m2.269 17.25c-.414 0-.75-.336-.75-.75s.336-.75.75-.75.75.336.75.75-.336.75-.75.75zm0-9c.414 0 .75-.336.75-.75s-.336-.75-.75-.75-.75.336-.75.75.336.75.75.75zm9.731 8c-.414 0-.75.336-.75.75s.336.75.75.75.75-.336.75-.75-.336-.75-.75-.75zm0-8.5c.414 0 .75-.336.75-.75s-.336-.75-.75-.75-.75.336-.75.75.336.75.75.75zm-9-4c.414 0 .75-.336.75-.75s-.336-.75-.75-.75-.75.336-.75.75.336.75.75.75zm0 16.5c-.414 0-.75.336-.75.75s.336.75.75.75.75-.336.75-.75-.336-.75-.75-.75zm18.731-4.5c-.414 0-.75.336-.75.75s.336.75.75.75.75-.336.75-.75-.336-.75-.75-.75zm-.75-8.25c0 .414.336.75.75.75s.75-.336.75-.75-.336-.75-.75-.75-.75.336-.75.75zm.019-3.75c.414 0 .75-.336.75-.75s-.336-.75-.75-.75-.75.336-.75.75.336.75.75.75zm0 16.5c-.414 0-.75.336-.75.75s.336.75.75.75.75-.336.75-.75-.336-.75-.75-.75zm-13.5-17.231c.414 0 .75-.336.75-.75s-.336-.75-.75-.75-.75.336-.75.75.336.75.75.75zm4.5-.269c.414 0 .75-.336.75-.75s-.336-.75-.75-.75-.75.336-.75.75.336.75.75.75zm4.5.269c.414 0 .75-.336.75-.75s-.336-.75-.75-.75-.75.336-.75.75.336.75.75.75zm-9 17.962c-.414 0-.75.336-.75.75s.336.75.75.75.75-.336.75-.75-.336-.75-.75-.75zm4.5.269c-.414 0-.75.336-.75.75s.336.75.75.75.75-.336.75-.75-.336-.75-.75-.75zm4.5-.269c-.414 0-.75.336-.75.75s.336.75.75.75.75-.336.75-.75-.336-.75-.75-.75zm6-9.481h-21c-.276 0-.5.224-.5.5s.224.5.5.5h21c.276 0 .5-.224.5-.5s-.224-.5-.5-.5z"/></svg>