<svg id="Layer_1" viewBox="0 0 24 24" xmlns="http://www.w3.org/2000/svg" data-name="Layer 1"><path d="m1.519 7.5c0-.414.336-.75.75-.75s.75.336.75.75-.336.75-.75.75-.75-.336-.75-.75zm1.231 4.5c0-.414-.336-.75-.75-.75s-.75.336-.75.75.336.75.75.75.75-.336.75-.75zm.269 4.5c0-.414-.336-.75-.75-.75s-.75.336-.75.75.336.75.75.75.75-.336.75-.75zm-.019-12.75c.414 0 .75-.336.75-.75s-.336-.75-.75-.75-.75.336-.75.75.336.75.75.75zm4.5-.731c.414 0 .75-.336.75-.75s-.336-.75-.75-.75-.75.336-.75.75.336.75.75.75zm4.5-.269c.414 0 .75-.336.75-.75s-.336-.75-.75-.75-.75.336-.75.75.336.75.75.75zm4.5.269c.414 0 .75-.336.75-.75s-.336-.75-.75-.75-.75.336-.75.75.336.75.75.75zm5.489-.621c-.057-.27-.326-.448-.591-.387-.271.056-.444.321-.387.591.01.047.989 4.802.989 9.372 0 3.89-.748 7.913-.976 9.051-1.138.229-5.161.976-9.051.976-4.57 0-9.324-.979-9.372-.989-.271-.063-.536.117-.591.388-.057.27.117.534.387.591.048.011 4.9 1.011 9.576 1.011s9.532-1.054 9.581-1.064c.19-.042.339-.19.381-.381.011-.049 1.064-4.902 1.064-9.581s-1-9.527-1.011-9.576z"/></svg>