<?xml version="1.0" encoding="UTF-8"?>
<svg xmlns="http://www.w3.org/2000/svg" id="Layer_1" data-name="Layer 1" viewBox="0 0 24 24">
  <path d="M21.572,11.998l-.021-.049c-.311-.683-.705-1.366-1.122-2.089l-.099-.172c-.668-1.161-.761-2.475-.248-3.517,.35-.709,.452-1.505,.298-2.301-.274-1.405-1.45-2.561-2.86-2.812-1.066-.19-2.138,.095-2.952,.777-.816,.684-1.284,1.687-1.284,2.751,0,.51,.104,1.002,.312,1.464,.528,1.18,.486,2.457-.113,3.501l-.186,.322c-.414,.718-.805,1.396-1.136,2.124-.058,.126-.111,.252-.16,.38-.049-.127-.102-.254-.16-.38l-.022-.049c-.308-.677-.698-1.354-1.111-2.07l-.11-.191c-.667-1.16-.76-2.475-.247-3.517,.35-.709,.452-1.505,.297-2.301-.274-1.405-1.45-2.561-2.861-2.812-1.06-.191-2.136,.095-2.951,.777-.816,.684-1.284,1.687-1.284,2.751,0,.51,.104,1.002,.311,1.464,.528,1.18,.487,2.457-.113,3.501l-.185,.322c-.414,.718-.805,1.396-1.136,2.124-1.331,2.9-.382,6.231,.611,9.125,.024,.069,.062,.132,.113,.185,1.051,1.091,2.465,1.692,3.982,1.692s2.932-.601,3.983-1.692c.05-.052,.089-.115,.113-.185,.277-.806,.55-1.647,.771-2.502,.221,.855,.494,1.696,.771,2.502,.024,.069,.062,.132,.113,.185,1.051,1.091,2.465,1.692,3.982,1.692s2.933-.601,3.983-1.692c.051-.052,.089-.115,.112-.185,.993-2.895,1.941-6.226,.61-9.125ZM5.477,2.602c.596-.499,1.353-.696,2.134-.56,1.013,.18,1.857,1.01,2.054,2.019,.113,.579,.039,1.156-.213,1.668-.393,.798-.515,1.711-.374,2.625-1.075,.956-2.814,.956-3.888,0,.118-.892-.019-1.825-.415-2.711-.149-.333-.224-.688-.224-1.056,0-.768,.338-1.492,.927-1.985Zm4.843,18.089c-.852,.845-1.979,1.309-3.187,1.309s-2.334-.464-3.186-1.309c-.958-2.804-1.773-5.745-.588-8.329,.289-.635,.668-1.293,1.07-1.989,0,0,.405-.741,.489-.958,.645,.446,1.41,.686,2.215,.686,.81,0,1.578-.243,2.226-.694,.101,.264,.48,.97,.48,.97,.401,.695,.779,1.352,1.075,2.002,0,.002,.012,.025,.016,.035,1.162,2.532,.346,5.473-.611,8.277ZM15.21,2.602c.596-.5,1.355-.699,2.134-.56,1.013,.18,1.857,1.01,2.054,2.019,.113,.579,.04,1.156-.212,1.667-.393,.798-.516,1.711-.375,2.625-1.075,.954-2.812,.956-3.888,0,.118-.892-.019-1.825-.416-2.712-.148-.333-.224-.688-.224-1.056,0-.768,.338-1.492,.927-1.985Zm4.843,18.089c-.852,.845-1.979,1.309-3.187,1.309s-2.334-.464-3.186-1.309c-.958-2.804-1.773-5.746-.588-8.329,.289-.635,.668-1.293,1.07-1.989,0,0,.405-.741,.489-.958,.645,.446,1.409,.686,2.214,.686,.81,0,1.578-.243,2.226-.694,.101,.264,.47,.951,.47,.951,.405,.702,.787,1.365,1.085,2.02,.002,.003,.012,.026,.017,.036,1.162,2.532,.347,5.473-.611,8.277Z"/>
</svg>
