<svg id="Layer_1" viewBox="0 0 24 24" xmlns="http://www.w3.org/2000/svg" data-name="Layer 1"><path d="m10.754 6.911c0 .413-.335.748-.748.748s-.748-.335-.748-.748.335-.748.748-.748.748.335.748.748zm3.24 1.745c.413 0 .748-.335.748-.748s-.335-.748-.748-.748-.748.335-.748.748.335.748.748.748zm8.972 3.083v3.646c0 4.123-3.354 7.477-7.477 7.477h-6.979c-4.123 0-7.477-3.354-7.477-7.477v-3.646c0-.204.126-.388.315-.463.04-.016.342-.13.896-.285-.142-.441-.214-.963-.214-1.587 0-2.246.932-3.334 3.006-3.474.111-2.148 1.402-3.084 3.669-3.002.53-1.78 2.112-1.998 3.294-1.998s2.764.218 3.294 1.998c2.267-.082 3.558.854 3.669 3.002 2.075.14 3.006 1.228 3.006 3.474 0 .625-.072 1.147-.215 1.587.554.155.857.269.897.285.19.075.315.259.315.463zm-19.749-.992c1.71-.388 4.605-.845 8.783-.845s7.074.458 8.784.845c.125-.347.189-.787.189-1.344 0-1.863-.629-2.492-2.492-2.492-.276 0-.498-.223-.498-.498 0-1.863-.629-2.492-2.492-2.492-.195 0-.368.015-.54.03-.254.018-.49-.156-.534-.41-.171-.969-.647-1.614-2.414-1.614s-2.243.645-2.414 1.614c-.045.254-.276.428-.534.41-.172-.016-.346-.03-.54-.03-1.863 0-2.492.629-2.492 2.492 0 .276-.223.498-.498.498-1.863 0-2.492.629-2.492 2.492 0 .555.064.996.189 1.344zm18.752 1.348c-.987-.312-4.286-1.197-9.969-1.197s-8.982.885-9.969 1.197v3.29c0 3.573 2.907 6.48 6.48 6.48h6.979c3.573 0 6.48-2.907 6.48-6.48v-3.29z"/></svg>