<svg id="Layer_1" viewBox="0 0 24 24" xmlns="http://www.w3.org/2000/svg" data-name="Layer 1"><path d="m22.684 11.378c-.144-.057-3.579-1.378-10.684-1.378s-10.541 1.321-10.683 1.378c-.191.075-.317.26-.317.465v3.657c0 4.136 3.364 7.5 7.5 7.5h7c4.136 0 7.5-3.364 7.5-7.5v-3.657c0-.205-.126-.39-.316-.465zm-.684 4.122c0 3.584-2.916 6.5-6.5 6.5h-7c-3.584 0-6.5-2.916-6.5-6.5v-3.3c.99-.312 4.299-1.2 10-1.2s9.01.888 10 1.2zm-18.997-8.447c-.029-.275.17-.521.445-.55 6.339-.668 12.765-.668 19.105 0 .274.028.474.274.444.55-.028.276-.28.475-.55.444-6.267-.66-12.624-.66-18.895 0-.27.027-.521-.17-.549-.444zm.016-3.416c-.076-.265.078-.542.344-.617 6.531-1.863 13.036-2.02 19.137-2.02.276 0 .5.224.5.5s-.224.5-.5.5c-6.031 0-12.456.153-18.863 1.98-.259.077-.543-.076-.618-.344z"/></svg>