<svg id="Layer_1" viewBox="0 0 24 24" xmlns="http://www.w3.org/2000/svg" data-name="Layer 1"><path d="m1 15.436c0 3.145 1.213 5.5 1.265 5.598.073.139.208.236.363.262.043.007 4.396.704 9.372.704s9.329-.697 9.372-.704c.155-.025.289-.122.362-.26.052-.098 1.266-2.429 1.266-5.6s-1.213-5.5-1.265-5.599c-.073-.14-.208-.236-.363-.262-.044-.007-1.014-.163-2.57-.328l1.127-6.382c.033-.188-.043-.379-.198-.491-.154-.113-.359-.127-.529-.037-.444.236-.769.554-1.082.862-.521.51-.932.913-1.804.913s-1.285-.403-1.805-.914c-.574-.562-1.224-1.199-2.506-1.199s-1.933.637-2.507 1.199c-.521.51-.933.914-1.807.914s-1.286-.403-1.807-.914c-.315-.308-.641-.627-1.087-.863-.167-.09-.373-.075-.528.038-.154.112-.231.303-.198.491l1.127 6.383c-1.557.165-2.526.321-2.57.328-.155.025-.289.122-.362.26-.052.098-1.266 2.429-1.266 5.601zm17.71-11.415-1.42 8.042c-.493.088-1.505.25-2.79.358v-3.422c0-.276-.224-.5-.5-.5s-.5.224-.5.5v3.49c-.478.025-.982.04-1.5.04s-1.021-.015-1.5-.04v-4.489c0-.276-.224-.5-.5-.5s-.5.224-.5.5v4.421c-1.284-.108-2.296-.27-2.79-.358l-1.42-8.046c.55.534 1.197 1.096 2.401 1.096 1.282 0 1.933-.637 2.506-1.199.521-.51.933-.914 1.808-.914s1.285.403 1.806.914c.574.562 1.224 1.199 2.505 1.199 1.2 0 1.846-.559 2.394-1.092zm-16.523 13.479h19.63c-.243 1.383-.665 2.416-.861 2.848-.992.146-4.739.652-8.956.652s-7.958-.506-8.954-.652c-.195-.435-.615-1.475-.859-2.848zm-.136-1c-.032-.342-.05-.698-.05-1.064 0-2.38.761-4.284 1.045-4.912.393-.058 1.219-.173 2.327-.289l.414 2.343c.035.201.19.361.39.402.107.022 2.665.55 5.825.55s5.718-.527 5.825-.55c.2-.042.354-.201.39-.402l.414-2.343c1.107.116 1.932.231 2.326.289.284.634 1.046 2.551 1.046 4.913 0 .367-.018.723-.049 1.064h-19.904z"/></svg>