<svg id="Layer_1" viewBox="0 0 24 24" xmlns="http://www.w3.org/2000/svg" data-name="Layer 1"><path d="m10.52 20.471c-3.748-.145-5.983-.815-6.658-1.049-.212-.78-.861-3.492-.861-7.395 0-1.181.063-2.532.16-3.58 1.643-.409 4.604-.947 8.84-.947s7.197.538 8.84.947c.044.476.083 1.004.111 1.577.013.268.233.476.499.476h.024c.275-.013.488-.247.475-.523-.021-.44-.049-.853-.08-1.244.235.074.393.129.456.153.321.13.702-.146.674-.493-.161-3.344-.641-5.276-.661-5.356-.042-.167-.166-.3-.329-.354-.148-.048-3.702-1.182-10.008-1.182s-9.862 1.133-10.01 1.181c-.163.054-.287.187-.329.354-.021.08-.5 2.013-.661 5.356-.027.348.35.621.674.493.063-.023.221-.079.455-.153-.081 1.015-.13 2.209-.13 3.295 0 4.807.934 7.802.974 7.927.044.14.147.253.283.31.1.042 2.487 1.023 7.223 1.207.274.01.509-.204.52-.48s-.205-.509-.48-.52zm-7.949-16.916c.933-.256 4.256-1.055 9.429-1.055s8.497.799 9.429 1.055c.121.574.388 2.026.529 4.159-2.282-.622-4.879-1.17-9.959-1.214-5.082.044-7.672.591-9.959 1.214.142-2.133.408-3.585.529-4.159zm14.929 7.945c-3.855 0-5.5 1.644-5.5 5.5s1.644 5.5 5.5 5.5 5.5-1.644 5.5-5.5-1.644-5.5-5.5-5.5zm0 10c-3.28 0-4.5-1.22-4.5-4.5s1.22-4.5 4.5-4.5 4.5 1.22 4.5 4.5-1.22 4.5-4.5 4.5zm2.946-6.344c.212.177.239.492.062.704-.947 1.132-2.027 2.154-3.208 3.04-.089.066-.194.1-.3.1s-.211-.033-.3-.1c-.674-.505-1.322-1.061-1.926-1.654-.196-.193-.199-.51-.006-.707.192-.195.51-.199.707-.006.481.473.993.921 1.524 1.337 1.003-.785 1.924-1.676 2.742-2.652.177-.212.492-.239.704-.062z"/></svg>