<svg id="Layer_1" viewBox="0 0 24 24" xmlns="http://www.w3.org/2000/svg" data-name="Layer 1"><path d="m22.338 3.535c-.042-.167-.166-.3-.329-.354-.148-.048-3.702-1.182-10.009-1.182s-9.86 1.135-10.009 1.183c-.163.054-.287.187-.329.354-.021.08-.5 2.013-.661 5.356-.027.348.35.621.674.493.063-.023.221-.079.455-.153-.081 1.015-.13 2.209-.13 3.295 0 4.808.934 7.803.974 7.928.044.14.147.253.283.31.12.051 3.008 1.235 8.743 1.235s8.623-1.185 8.743-1.235c.136-.057.239-.17.283-.31.04-.125.974-3.12.974-7.928 0-1.081-.049-2.276-.13-3.295.235.073.393.129.456.153.322.13.702-.146.674-.493-.161-3.344-.641-5.276-.661-5.356zm-1.338 8.992c0 3.903-.649 6.615-.861 7.396-.759.262-3.492 1.077-8.139 1.077s-7.38-.815-8.139-1.077c-.212-.78-.861-3.492-.861-7.396 0-1.181.063-2.532.16-3.58 1.643-.409 4.605-.947 8.84-.947s7.197.538 8.84.947c.097 1.056.16 2.408.16 3.58zm.495-4.442c-1.787-.475-4.817-1.075-9.495-1.085-5.081.045-7.667.59-9.959 1.214.142-2.133.408-3.585.529-4.159.933-.256 4.256-1.055 9.43-1.055s8.497.799 9.43 1.055c.121.574.388 2.026.529 4.159-.132-.039-.298-.084-.464-.128zm-9.495.915h.002c.276 0 .499.227.498.502l-.003.544c.851.156 1.573.734 1.87 1.54.096.259-.037.547-.296.642-.256.098-.546-.036-.642-.296-.206-.558-.765-.932-1.392-.932-.812 0-1.473.622-1.473 1.388 0 .745.602 1.285 1.43 1.285 1.469 0 2.664 1.195 2.664 2.664 0 1.3-.937 2.381-2.17 2.613l.002.548c0 .277-.21.492-.5.502-.275 0-.499-.223-.5-.498l-.002-.551c-1.166-.226-2.073-1.217-2.152-2.441-.018-.275.191-.514.467-.531.249-.018.513.19.531.467.057.872.786 1.555 1.66 1.555.918 0 1.664-.746 1.664-1.663s-.746-1.664-1.664-1.664c-1.385 0-2.43-.982-2.43-2.285 0-1.137.829-2.087 1.932-2.326l.003-.563c0-.275.225-.498.5-.498z"/></svg>