<svg id="Layer_1" viewBox="0 0 24 24" xmlns="http://www.w3.org/2000/svg" data-name="Layer 1"><path d="m21.773 2.573c-.046-.165-.173-.294-.337-.343-.166-.05-4.129-1.229-9.437-1.229-5.352-.001-9.273 1.179-9.437 1.229-.163.05-.289.179-.335.342-.05.178-1.227 4.412-1.227 9.428s1.177 9.249 1.227 9.427c.046.165.173.294.337.343.166.05 4.129 1.229 9.437 1.229 5.353 0 9.274-1.18 9.438-1.23.163-.05.289-.179.335-.342.05-.178 1.227-4.412 1.227-9.428s-1.177-9.249-1.227-9.427zm-.892 18.315c-.964.26-4.458 1.112-8.881 1.112-4.389 0-7.91-.853-8.881-1.112-.256-1.01-1.119-4.726-1.119-8.888s.863-7.881 1.119-8.888c.964-.26 4.458-1.112 8.881-1.112 4.389 0 7.91.853 8.881 1.112.256 1.01 1.119 4.726 1.119 8.888s-.863 7.881-1.119 8.888z"/><path d="m16.149 7.523c-.097-.03-.201-.03-.298 0-.073.022-1.604.521-2.851 2.463-1.247-1.942-2.778-2.44-2.851-2.463-.097-.03-.201-.03-.298 0-.082.025-2.007.652-3.299 3.255-.123.247-.022.547.226.67s.547.023.67-.226c.66-1.33 1.488-2.048 2.052-2.412v5.19c0 .276.224.5.5.5s.5-.224.5-.5v-5.189c.565.365 1.392 1.082 2.052 2.412.169.341.727.341.896 0 .66-1.33 1.488-2.048 2.052-2.412v5.19c0 .276.224.5.5.5s.5-.224.5-.5v-5.189c.565.365 1.392 1.082 2.052 2.412.087.176.348.384.67.226.248-.122.349-.423.226-.67-1.292-2.603-3.217-3.229-3.299-3.255z"/><path d="m17 17.5h-8c-.276 0-.5.224-.5.5s.224.5.5.5h8c.276 0 .5-.224.5-.5s-.224-.5-.5-.5z"/></svg>