<svg id="Layer_1" viewBox="0 0 24 24" xmlns="http://www.w3.org/2000/svg" data-name="Layer 1"><path d="m22.337 3.536c-.042-.166-.166-.3-.329-.354-.148-.048-3.702-1.182-10.008-1.182s-9.86 1.134-10.008 1.183c-.163.053-.287.187-.329.354-.021.081-.5 2.012-.661 5.356-.027.347.35.623.674.492.063-.023.221-.079.455-.153-.081 1.015-.13 2.209-.13 3.296 0 4.807.934 7.802.974 7.927.044.14.147.253.283.31.12.05 3.008 1.235 8.743 1.235s8.623-1.185 8.743-1.235c.136-.057.239-.17.283-.31.04-.125.974-3.119.974-7.927 0-1.081-.049-2.276-.131-3.296.235.073.393.129.456.153.321.132.702-.146.674-.492-.161-3.345-.641-5.276-.661-5.356zm-2.199 16.386c-.759.262-3.492 1.078-8.138 1.078s-7.38-.815-8.138-1.078c-.212-.78-.861-3.491-.861-7.394 0-1.181.063-2.533.16-3.581 1.643-.408 4.604-.947 8.84-.947s7.197.538 8.84.947c.097 1.055.16 2.408.16 3.581 0 3.903-.649 6.614-.861 7.394zm-8.138-12.922c-5.084 0-7.677.593-9.959 1.214.142-2.132.408-3.584.529-4.159.933-.256 4.256-1.055 9.429-1.055s8.497.799 9.429 1.055c.121.575.388 2.026.529 4.159-2.831-.701-4.831-1.214-9.959-1.214zm2 3.5c-.854 0-1.559.316-2 .845-.441-.529-1.145-.845-2-.845-1.379 0-2.5 1.193-2.5 2.66 0 3.607 4.101 5.699 4.276 5.787.141.07.306.07.447 0 .175-.087 4.276-2.18 4.276-5.787 0-1.467-1.121-2.66-2.5-2.66zm-2.001 7.429c-.805-.464-3.499-2.208-3.499-4.769 0-.915.673-1.66 1.5-1.66.692 0 1.5.337 1.5 1.286 0 .276.224.5.5.5s.5-.224.5-.5c0-.949.808-1.286 1.5-1.286.827 0 1.5.745 1.5 1.66 0 2.554-2.696 4.304-3.501 4.769z"/></svg>