<svg id="Layer_1" viewBox="0 0 24 24" xmlns="http://www.w3.org/2000/svg" data-name="Layer 1"><path d="m22.996 9.068-.663-5.535c-.024-.208-.177-.378-.38-.427-.047-.011-4.71-1.106-9.952-1.106s-9.902 1.095-9.948 1.106c-.204.048-.355.218-.381.426l-.668 5.484c-.02.161.039.32.158.429.12.109.279.155.442.121.125-.027.266-.056.424-.088-.064.842-.098 1.688-.098 2.521 0 4.851 1.077 8.405 1.123 8.554.05.163.179.289.343.334.162.045 4.028 1.111 8.605 1.111s8.442-1.066 8.605-1.111c.164-.046.294-.172.344-.336.046-.15 1.122-3.743 1.122-8.553 0-.819-.032-1.647-.093-2.47.138.028.276.057.415.087.035.008.262.045.441-.12.119-.109.179-.269.159-.429zm-20.375-5.064c1.148-.244 5.065-1.004 9.38-1.004s8.233.76 9.382 1.004l.538 4.493c-4.172-.833-7.673-1.013-9.92-1.013-4.293 0-8.02.595-9.921.965l.541-4.445zm18.452 7.996c0 3.926-.761 7.083-1.005 7.996-.954.238-4.312 1.004-8.066 1.004s-7.115-.766-8.067-1.004c-.244-.905-1.004-4.039-1.004-7.996 0-.897.039-1.809.117-2.713 2.004-.355 5.265-.802 8.954-.802 2.063 0 5.206.156 8.961.848.074.888.111 1.784.111 2.668z"/><path d="m9.011 14.358c-.163-.223-.477-.272-.699-.11-.223.163-.271.476-.109.699 1.004 1.376 2.754 2.406 2.828 2.45.078.045.294.117.478.014.101-.057 2.555-1.323 4.33-4.776.127-.246.03-.547-.216-.673-.245-.125-.548-.03-.673.216-1.311 2.548-3.038 3.809-3.659 4.203-.49-.318-1.606-1.098-2.279-2.022z"/></svg>