<svg id="Layer_1" viewBox="0 0 24 24" xmlns="http://www.w3.org/2000/svg" data-name="Layer 1"><path d="m11 6.5h2c.276 0 .5-.224.5-.5s-.224-.5-.5-.5h-2c-.276 0-.5.224-.5.5s.224.5.5.5z"/><path d="m8 14.5h-2.5c-.276 0-.5.224-.5.5s.224.5.5.5h2.5c.276 0 .5-.224.5-.5s-.224-.5-.5-.5z"/><path d="m22.373 11.719c-.051-.162-.181-.288-.345-.333-.087-.023-2.062-.557-4.461-.602.135-.793.266-1.877.266-3.094 0-2.686-.611-4.661-.637-4.744-.051-.162-.181-.287-.345-.333-.092-.025-2.273-.615-4.853-.615s-4.76.59-4.852.615c-.165.045-.295.171-.346.334-.026.084-.636 2.079-.636 4.742 0 1.224.13 2.304.265 3.094-2.394.045-4.372.578-4.458.602-.165.045-.295.171-.346.334-.025.083-.626 2.048-.626 4.67 0 2.645.602 4.59.627 4.671.051.162.181.287.345.333.09.024 2.238.605 4.778.605 2.207 0 4.567-.424 5.194-.545.366.07 2.92.545 5.306.545 2.535 0 4.688-.581 4.778-.605.165-.045.295-.171.346-.334.025-.083.626-2.047.626-4.67 0-2.645-.602-4.59-.627-4.671zm-14.689-8.207c.652-.153 2.39-.512 4.316-.512s3.667.359 4.317.512c.158.606.517 2.196.517 4.179 0 1.245-.146 2.344-.284 3.106-1.983.081-3.93.472-4.499.594-.379-.081-2.467-.511-4.603-.595-.138-.758-.282-1.852-.282-3.105 0-1.961.359-3.566.518-4.179zm-5.177 16.985c-.157-.6-.507-2.161-.507-4.106 0-1.924.352-3.5.508-4.106.645-.151 2.351-.502 4.242-.502 1.871 0 3.912.355 4.75.518v8.22c-.844.152-2.885.48-4.75.48-1.896 0-3.6-.352-4.243-.503zm18.984 0c-.644.151-2.351.503-4.242.503-1.868 0-3.904-.314-4.75-.461v-8.22c.836-.168 2.881-.538 4.75-.538 1.896 0 3.6.352 4.243.502.156.6.507 2.161.507 4.106 0 1.924-.352 3.5-.508 4.106z"/><path d="m18.5 14.5h-2.5c-.276 0-.5.224-.5.5s.224.5.5.5h2.5c.276 0 .5-.224.5-.5s-.224-.5-.5-.5z"/></svg>