<svg id="Layer_1" viewBox="0 0 24 24" xmlns="http://www.w3.org/2000/svg" data-name="Layer 1"><path d="m14.501 23c-2.752-.284-4.077-.833-4.057-.835-.146-.065-.251-.197-.283-.353-.008-.035-.717-3.458-.971-7.253-.854-.663-1.563-1.432-2.111-2.289-.105-.165-.105-.375 0-.539.548-.857 1.258-1.626 2.111-2.289.254-3.796.963-7.218.971-7.253.032-.156.138-.288.283-.353.046-.021 1.154-.51 4-.832.253-.032.521.166.553.441.031.274-.167.522-.441.553-1.956.221-3.033.521-3.47.666-.173.892-.715 3.869-.912 7.07-.009.147-.083.283-.201.371-.746.552-1.374 1.189-1.871 1.896.497.708 1.125 1.344 1.871 1.896.118.088.192.224.201.371.197 3.204.739 6.179.912 7.07.435.144 1.513.444 3.47.666.274.031.473.279.441.553-.029.255-.245.444-.496.444z"/></svg>