<svg id="Layer_1" viewBox="0 0 24 24" xmlns="http://www.w3.org/2000/svg" data-name="Layer 1"><path d="m22.921 12.27c-.549.858-1.259 1.627-2.111 2.289-.254 3.796-.963 7.218-.971 7.253-.032.156-.138.287-.283.354-.046.021-1.154.511-4 .832-.019.002-.037.003-.057.003-.251 0-.467-.188-.496-.444-.031-.273.167-.521.441-.553 1.956-.221 3.033-.521 3.47-.666.173-.892.715-3.868.912-7.07.009-.147.083-.283.202-.371.744-.551 1.372-1.188 1.87-1.896-.498-.708-1.126-1.345-1.87-1.896-.119-.088-.193-.224-.202-.371-.197-3.202-.739-6.18-.912-7.071-.435-.144-1.513-.444-3.47-.665-.274-.031-.473-.279-.441-.553.031-.275.296-.467.553-.441 2.846.321 3.954.811 4 .831.146.066.251.197.283.354.008.035.717 3.458.971 7.254.853.662 1.562 1.431 2.111 2.289.105.164.105.375 0 .539zm-21.842-.54c.549-.858 1.259-1.627 2.111-2.289.254-3.796.963-7.219.971-7.254.032-.156.138-.287.283-.354.046-.021 1.154-.51 4-.831.257-.025.521.166.553.441.031.273-.167.521-.441.553-1.957.221-3.035.521-3.47.665-.173.892-.715 3.869-.912 7.071-.009.147-.083.283-.202.371-.744.551-1.372 1.188-1.87 1.896.498.708 1.126 1.345 1.87 1.896.119.088.193.224.202.371.197 3.202.739 6.179.912 7.07.437.145 1.514.445 3.47.666.274.031.473.279.441.553-.029.256-.245.444-.496.444-.02 0-.038 0-.057-.003-2.846-.321-3.954-.812-4-.832-.146-.066-.251-.197-.283-.354-.008-.035-.717-3.457-.971-7.253-.853-.662-1.563-1.431-2.111-2.289-.105-.164-.105-.375 0-.539z"/></svg>