<svg id="Layer_1" viewBox="0 0 24 24" xmlns="http://www.w3.org/2000/svg" data-name="Layer 1"><path d="m2.024 12.007c0 5.442 1.437 8.539 4.656 10.04.251.116.359.414.242.664-.117.253-.42.358-.664.242-3.571-1.664-5.234-5.143-5.234-10.946s1.673-9.303 5.266-10.961c.251-.116.547-.006.664.245.115.25.006.548-.244.664-3.24 1.494-4.686 4.595-4.686 10.052zm15.686-10.961c-.251-.116-.548-.006-.664.245-.115.25-.006.548.244.664 3.24 1.495 4.686 4.596 4.686 10.053s-1.437 8.539-4.656 10.04c-.251.116-.359.414-.242.664.117.253.42.358.664.242 3.571-1.664 5.234-5.143 5.234-10.946s-1.673-9.303-5.266-10.961z"/></svg>