<?xml version="1.0" encoding="UTF-8"?>
<svg xmlns="http://www.w3.org/2000/svg" id="Layer_1" data-name="Layer 1" viewBox="0 0 24 24">
  <path d="M7.312,23c-1.315,0-3.064-.317-3.064-3.056,0-2.056,1.002-3.056,3.064-3.056,1.315,0,3.064,.317,3.064,3.056,0,2.056-1.002,3.056-3.064,3.056Zm0-5.111c-1.308,0-2.064,.336-2.064,2.056s.757,2.056,2.064,2.056,2.064-.336,2.064-2.056-.757-2.056-2.064-2.056Z"/>
  <g>
    <g>
      <path d="M16.688,15.056c-1.315,0-3.064-.317-3.064-3.056,0-2.056,1.002-3.056,3.064-3.056,1.315,0,3.064,.317,3.064,3.056,0,2.056-1.002,3.056-3.064,3.056Zm0-5.111c-1.307,0-2.064,.336-2.064,2.056s.757,2.056,2.064,2.056,2.064-.336,2.064-2.056-.757-2.056-2.064-2.056Z"/>
      <path d="M16.688,23c-1.315,0-3.064-.317-3.064-3.056,0-2.056,1.002-3.056,3.064-3.056,1.315,0,3.064,.317,3.064,3.056,0,2.056-1.002,3.056-3.064,3.056Zm0-5.111c-1.307,0-2.064,.336-2.064,2.056s.757,2.056,2.064,2.056,2.064-.336,2.064-2.056-.757-2.056-2.064-2.056Z"/>
    </g>
    <g>
      <path d="M7.312,8.944c-2.062,0-3.064,1-3.064,3.056,0,2.739,1.749,3.056,3.064,3.056,2.062,0,3.064-1,3.064-3.056,0-2.739-1.749-3.056-3.064-3.056Zm0,1c.465,0,.857,.047,1.174,.179l-3.046,3.036c-.122-.291-.192-.662-.192-1.16,0-1.719,.757-2.056,2.064-2.056Zm0,4.111c-.466,0-.858-.047-1.174-.179l3.046-3.036c.122,.291,.192,.662,.192,1.16,0,1.719-.757,2.056-2.064,2.056Z"/>
      <path d="M7.312,1c-2.062,0-3.064,1-3.064,3.056,0,2.739,1.749,3.056,3.064,3.056,2.062,0,3.064-1,3.064-3.056,0-2.739-1.749-3.056-3.064-3.056Zm0,1c.466,0,.858,.047,1.174,.179l-3.046,3.036c-.122-.291-.192-.662-.192-1.16,0-1.719,.757-2.056,2.064-2.056Zm0,4.111c-.466,0-.858-.047-1.174-.179l3.046-3.036c.122,.291,.192,.662,.192,1.16,0,1.719-.757,2.056-2.064,2.056Z"/>
      <path d="M16.688,1c-2.062,0-3.064,1-3.064,3.056,0,2.739,1.749,3.056,3.064,3.056,2.062,0,3.064-1,3.064-3.056,0-2.739-1.749-3.056-3.064-3.056Zm0,1c.466,0,.858,.047,1.174,.179l-3.046,3.036c-.122-.291-.192-.662-.192-1.16,0-1.719,.757-2.056,2.064-2.056Zm0,4.111c-.465,0-.857-.047-1.174-.179l3.046-3.036c.122,.291,.192,.662,.192,1.16,0,1.719-.757,2.056-2.064,2.056Z"/>
    </g>
  </g>
</svg>
