<?xml version="1.0" encoding="UTF-8"?>
<svg xmlns="http://www.w3.org/2000/svg" id="Layer_1" data-name="Layer 1" viewBox="0 0 24 24">
  <path d="M23,13.16c-.031-1.467-.465-2.606-1.291-3.39,.098-.354,.152-.745,.16-1.176-.036-1.677-.767-2.826-2.121-3.345-.151-1.549-1.026-3.233-4.114-3.249-2.018,.01-3.092,.735-3.634,1.674-.543-.939-1.618-1.663-3.639-1.674-3.083,.016-3.958,1.7-4.109,3.249-1.354,.52-2.085,1.67-2.121,3.366,.008,.415,.062,.802,.16,1.155-.826,.784-1.26,1.924-1.291,3.41,.037,1.882,.805,3.259,2.228,4.008-.027,.213-.043,.439-.048,.681,.052,2.647,1.706,4.114,4.663,4.131,2.354-.013,3.567-.885,4.157-1.996,.59,1.11,1.804,1.983,4.164,1.996,2.951-.017,4.604-1.484,4.657-4.151-.005-.229-.021-.451-.048-.661,1.423-.749,2.191-2.127,2.228-4.028Zm-15.157,7.84c-2.389-.014-3.622-1.073-3.663-3.13,.006-.314,.038-.607,.092-.871,.048-.234-.075-.469-.295-.562-1.298-.548-1.944-1.62-1.977-3.256,.028-1.324,.413-2.258,1.178-2.856,.173-.136,.238-.369,.158-.575-.128-.33-.197-.718-.206-1.134,.029-1.387,.581-2.187,1.736-2.519,.208-.06,.355-.247,.362-.464,.06-1.811,1.027-2.623,3.132-2.633,2.102,.011,3.099,.865,3.139,2.688v12.161c-.043,2.136-1.208,3.138-3.657,3.151Zm12.18-4.563c-.22,.093-.344,.328-.295,.562,.055,.263,.086,.556,.092,.851-.041,2.077-1.273,3.137-3.657,3.15-2.456-.013-3.62-1.015-3.663-3.141V5.688c.04-1.823,1.038-2.677,3.134-2.688,2.11,.011,3.078,.823,3.137,2.633,.007,.217,.153,.404,.362,.464,1.155,.332,1.707,1.131,1.736,2.498-.009,.437-.078,.825-.206,1.155-.08,.206-.015,.439,.158,.575,.765,.598,1.15,1.533,1.178,2.836-.033,1.657-.679,2.729-1.977,3.277Z"/>
</svg>
