<svg id="Layer_1" viewBox="0 0 24 24" xmlns="http://www.w3.org/2000/svg" data-name="Layer 1"><path d="m22.938 13.224c-.063-.115-1.588-2.852-5.08-6.343-3.494-3.492-5.77-4.756-5.865-4.808-.074-.04-.156-.061-.24-.061-3.568 0-7.073.748-8.06.976l-1.839-1.839c-.195-.195-.511-.195-.707 0s-.195.511 0 .707l1.843 1.843c-.231.997-.974 4.49-.974 8.047 0 .083.021.166.061.24.052.095 1.306 2.36 4.8 5.852 3.493 3.491 6.252 5.034 6.368 5.098.152.084.336.083.487-.002.109-.061 2.694-1.528 5.191-4.023 2.497-2.496 3.955-5.092 4.016-5.201.084-.15.085-.333.002-.484zm-4.724 4.979c-1.963 1.962-4.032 3.291-4.729 3.714-.742-.452-3.099-1.985-5.903-4.787-2.963-2.962-4.281-5.038-4.568-5.519.016-2.844.526-5.684.816-7.072l2.379 2.379c-.137.291-.213.645-.213 1.079 0 1.345.654 1.999 1.999 1.999s1.999-.654 1.999-1.999-.654-1.999-1.999-1.999c-.434 0-.788.076-1.079.213l-2.383-2.383c1.385-.289 4.231-.801 7.085-.817.483.289 2.569 1.614 5.533 4.576 2.803 2.802 4.322 5.142 4.769 5.878-.419.696-1.738 2.77-3.706 4.737zm-10.219-11.205c.794 0 .999.205.999.999s-.205.999-.999.999-.999-.205-.999-.999.205-.999.999-.999zm6.769 3.028c-.161-.059-.337-.03-.471.072-.815.618-1.57 1.272-2.244 1.945-.669.667-1.326 1.417-1.951 2.231-.1.13-.13.301-.08.457-.051-.001.452.883 1.39 1.828 1.163 1.16 1.734 1.377 1.837 1.409.154.048.322.018.452-.08.82-.627 1.573-1.281 2.238-1.944.676-.673 1.332-1.426 1.952-2.237.101-.133.13-.308.075-.466-.034-.099-.263-.65-1.42-1.802-1.152-1.15-1.683-1.377-1.777-1.412zm.464 5.21c-.565.564-1.198 1.122-1.885 1.662-.214-.138-.589-.418-1.142-.96-.518-.559-1.006-1.104-1.113-1.309.538-.681 1.098-1.312 1.666-1.879.57-.568 1.2-1.123 1.879-1.653.222.153.614.46 1.204 1.048.597.596.905.995 1.054 1.214-.532.677-1.09 1.307-1.662 1.877z"/></svg>