<?xml version="1.0" encoding="UTF-8"?>
<svg xmlns="http://www.w3.org/2000/svg" id="Layer_1" data-name="Layer 1" viewBox="0 0 24 24">
  <path d="M23,4.762c0-1.737-1.554-3.353-3.324-3.459-1.813-.108-4.616-.237-7.676-.237s-5.862,.129-7.676,.237c-1.771,.106-3.324,1.722-3.324,3.459,0,1.584,.917,2.472,1.64,2.851-.248,1.381-.51,3.376-.51,5.638,0,4.652,1.057,8.063,1.102,8.206,.05,.159,.176,.283,.335,.33s3.947,1.147,8.434,1.147,8.274-1.101,8.434-1.147,.285-.17,.335-.33c.045-.143,1.102-3.554,1.102-8.206,0-2.262-.262-4.257-.51-5.638,.723-.379,1.64-1.267,1.64-2.851Zm-2.343,2.065c-.249,.071-.402,.321-.354,.575,.259,1.337,.566,3.437,.566,5.848,0,3.78-.74,6.775-.98,7.648-.929,.245-4.208,1.035-7.89,1.035s-6.961-.79-7.89-1.035c-.24-.873-.98-3.868-.98-7.648,0-2.412,.308-4.511,.566-5.848,.048-.251-.104-.5-.35-.574-.055-.017-1.347-.429-1.347-2.066,0-1.213,1.137-2.386,2.385-2.461,1.799-.107,4.58-.235,7.615-.235s5.816,.128,7.615,.235c1.248,.075,2.385,1.248,2.385,2.461,0,1.637-1.292,2.05-1.343,2.065Z"/>
  <g>
    <circle cx="16.28" cy="13.009" r=".75"/>
    <circle cx="16.28" cy="17.265" r=".75"/>
    <circle cx="12.045" cy="17.265" r=".75"/>
  </g>
</svg>
