<svg id="Layer_1" viewBox="0 0 24 24" xmlns="http://www.w3.org/2000/svg" data-name="Layer 1"><path d="m23 5.99c-.026-1.494-.716-2.603-1.817-2.956-.108-.042-2.707-1.035-8.683-1.035-2.798-.102-8.432.51-9.653 1.024-1.131.364-1.821 1.473-1.847 2.985.022 1.212.58 2.258 1.453 2.777-.208 1.431-.453 3.33-.453 4.713 0 3.138.795 6.412 1.137 7.673.043.161.164.289.321.343.465.158 2.309.484 5.042.484h4c6.048 0 8.138-1.01 8.224-1.053.119-.06.209-.164.25-.289.042-.125 1.026-3.124 1.026-7.158 0-1.383-.244-3.282-.452-4.712.872-.518 1.43-1.566 1.452-2.797zm-14.5 15.01c-2.237 0-3.834-.228-4.472-.367-.359-1.379-1.028-4.322-1.028-7.133 0-1.603.372-4.104.495-4.926.034-.231-.095-.455-.312-.54-.532-.208-1.161-.868-1.182-2.026.019-1.062.438-1.802 1.157-2.033.02-.007 1.395-.45 4.234-.736 3.439-.256 6.42.725 6.456.737.714.229 1.134.97 1.153 2.014-.02 1.096-.609 1.817-1.185 2.046-.215.085-.336.358-.302.587.17 1.168.487 3.343.487 4.877 0 3.462-.713 6.205-.963 7.059-.561.143-2.133.441-4.537.441zm12.319-12.966c-.218.084-.348.309-.314.54.123.822.495 3.323.495 4.926 0 3.266-.689 5.879-.909 6.626-.549.2-2.355.739-6.136.853.217-.715 1.045-3.691 1.045-7.479 0-1.462-.269-3.434-.453-4.715.873-.523 1.431-1.571 1.453-2.795-.026-1.491-.714-2.599-1.834-2.962 4.582.158 6.633.931 6.682.948.714.229 1.134.97 1.153 2.014-.021 1.18-.649 1.838-1.181 2.044z"/></svg>