<?xml version="1.0" encoding="UTF-8"?>
<svg xmlns="http://www.w3.org/2000/svg" id="Layer_1" data-name="Layer 1" viewBox="0 0 24 24">
  <path d="M20.647,3.362c-1.453-1.445-6.818-5.538-14.87,2.471C2.607,8.986,1,12.11,1,15.117c0,2.086,.814,4.045,2.293,5.516,.785,.781,2.713,2.335,5.589,2.335,2.447,0,5.581-1.125,9.281-4.807,3.209-3.192,4.837-6.311,4.837-9.269,0-2.057-.835-4.021-2.353-5.53Zm-3.189,14.09c-7.397,7.36-12.172,3.753-13.46,2.472-.746-.742-1.998-2.354-1.998-4.807,0-2.73,1.508-5.616,4.482-8.575,3.468-3.448,6.357-4.488,8.584-4.488,2.522,0,4.192,1.337,4.876,2.018,.938,.934,2.058,2.528,2.058,4.821,0,2.682-1.528,5.562-4.542,8.56Z"/>
  <path d="M13.951,7.085c-.261,.089-.4,.373-.311,.635,.088,.26,.372,.401,.635,.311,1.693-.579,2.804,.183,3.313,.689,.098,.097,.225,.146,.353,.146,.129,0,.257-.049,.354-.147,.194-.196,.193-.513-.002-.707-.544-.539-2.054-1.714-4.343-.926Z"/>
  <path d="M9.895,11.121c-.262,.089-.4,.374-.311,.635,.09,.262,.372,.4,.635,.311,1.693-.579,2.802,.182,3.312,.689,.098,.097,.225,.146,.353,.146,.129,0,.257-.049,.354-.147,.194-.196,.193-.513-.002-.707-.543-.539-2.053-1.713-4.342-.926Z"/>
  <path d="M5.837,15.157c-.262,.089-.4,.374-.311,.635,.09,.262,.373,.401,.635,.311,1.697-.583,2.803,.183,3.312,.689,.098,.097,.225,.146,.353,.146s.257-.049,.354-.147c.194-.195,.194-.512-.002-.707-.543-.54-2.053-1.712-4.342-.926Z"/>
</svg>
