<svg id="Layer_1" viewBox="0 0 24 24" xmlns="http://www.w3.org/2000/svg" data-name="Layer 1"><path d="m21.912 6.404c-.05-.147-.164-.264-.311-.314-.098-.034-1.919-.647-5.602-.938.081-2.257-1.737-4.156-4-4.151-2.263-.005-4.081 1.894-4 4.151-3.682.291-5.503.905-5.602.938-.146.051-.261.167-.311.314-.044.134-1.088 3.313-1.088 7.596s1.044 7.462 1.088 7.596c.05.147.164.264.311.314.129.044 3.216 1.09 9.602 1.09s9.473-1.046 9.602-1.09c.146-.051.261-.167.311-.314.044-.134 1.088-3.313 1.088-7.596s-1.044-7.462-1.088-7.596zm-12.912-1.404c0-1.654 1.346-3 3-3 1.685-.003 3.046 1.401 3 3.084-.906-.052-1.9-.084-3-.084s-2.094.033-3 .084zm12.037 16.036c-.826.235-3.814.964-9.037.964s-8.211-.729-9.037-.964c-.237-.812-.963-3.58-.963-7.036s.726-6.224.963-7.036c.826-.235 3.814-.964 9.037-.964s8.211.729 9.037.964c.237.812.963 3.58.963 7.036s-.726 6.224-.963 7.036zm-4.137-7.336c.133.178.133.422 0 .6-1.024 1.365-2.235 2.576-3.601 3.601-.219.164-.533.122-.7-.101-.165-.221-.12-.534.101-.7 1.008-.756 1.905-1.642 2.721-2.6h-7.921c-.276 0-.5-.224-.5-.5s.224-.5.5-.5h7.922c-.816-.958-1.713-1.844-2.721-2.6-.221-.166-.266-.479-.101-.7.167-.222.481-.265.7-.101 1.365 1.024 2.576 2.235 3.601 3.601z"/></svg>