<?xml version="1.0" encoding="UTF-8"?>
<svg xmlns="http://www.w3.org/2000/svg" id="Layer_1" data-name="Layer 1" viewBox="0 0 24 24">
  <path d="M21.202,6.309c-.057-.159-.189-.279-.354-.319-.127-.031-2.449-.587-5.621-.853v-.926c0-1.771-1.443-3.211-3.237-3.211-1.774,0-3.218,1.44-3.218,3.211v.926c-3.167,.266-5.493,.822-5.62,.852-.165,.04-.298,.161-.354,.32-.048,.136-1.163,3.366-1.163,7.688,0,4.359,1.116,7.557,1.164,7.69,.056,.159,.189,.279,.353,.319,.167,.041,4.141,.992,8.849,.992s8.681-.952,8.848-.992c.165-.04,.299-.161,.354-.32,.048-.136,1.163-3.366,1.163-7.689,0-4.359-1.116-7.556-1.163-7.69Zm-11.43-2.097c0-1.219,.995-2.211,2.238-2.211,1.223,0,2.218,.992,2.218,2.211v.854c-.714-.042-1.461-.068-2.228-.068s-1.513,.025-2.228,.068v-.854ZM3.658,6.9c.976-.212,4.452-.903,8.342-.903s7.37,.691,8.343,.903c.193,.624,.669,2.33,.897,4.61-1.094,.232-4.938,.976-9.239,.976s-8.143-.743-9.238-.975c.229-2.269,.704-3.983,.896-4.611Zm16.684,14.197c-.976,.212-4.451,.903-8.342,.903s-7.371-.691-8.343-.903c-.258-.833-1.022-3.598-1.022-7.099,0-.51,.017-1.006,.046-1.483,1.232,.256,4.782,.916,8.819,.967v1.439c0,.276,.224,.5,.5,.5s.5-.224,.5-.5v-1.439c4.031-.052,7.587-.712,8.82-.967,.029,.477,.045,.972,.045,1.483,0,3.465-.766,6.258-1.023,7.099Z"/>
</svg>
