<svg id="Layer_1" viewBox="0 0 24 24" xmlns="http://www.w3.org/2000/svg" data-name="Layer 1"><path d="m21.912 6.404c-.049-.147-.164-.264-.31-.314-.098-.034-1.919-.647-5.602-.938.081-2.257-1.738-4.156-4-4.151-2.262-.005-4.081 1.894-4 4.151-3.683.291-5.504.905-5.602.938-.146.051-.261.167-.31.314-.044.134-1.088 3.313-1.088 7.596s1.044 7.462 1.088 7.596c.049.147.164.264.31.314.128.044 3.216 1.09 9.602 1.09s9.473-1.046 9.602-1.09c.146-.051.261-.167.31-.314.044-.134 1.088-3.313 1.088-7.596s-1.044-7.462-1.088-7.596zm-12.912-1.404c0-1.654 1.346-3 3-3 1.685-.003 3.046 1.401 3 3.084-.906-.052-1.9-.084-3-.084s-2.094.033-3 .084zm12.037 16.036c-.826.235-3.814.964-9.037.964s-8.211-.729-9.037-.964c-.237-.812-.963-3.58-.963-7.036s.726-6.224.963-7.036c.826-.235 3.814-.964 9.037-.964s8.211.729 9.037.964c.237.812.963 3.58.963 7.036s-.726 6.224-.963 7.036z"/></svg>