<svg id="Layer_1" viewBox="0 0 24 24" xmlns="http://www.w3.org/2000/svg" data-name="Layer 1"><path d="m11.5 3.5v-2c0-.276.224-.5.5-.5s.5.224.5.5v2c0 .276-.224.5-.5.5s-.5-.224-.5-.5zm.5 16.5c-.276 0-.5.224-.5.5v2c0 .276.224.5.5.5s.5-.224.5-.5v-2c0-.276-.224-.5-.5-.5zm10.5-8.5h-2c-.276 0-.5.224-.5.5s.224.5.5.5h2c.276 0 .5-.224.5-.5s-.224-.5-.5-.5zm-19 0h-2c-.276 0-.5.224-.5.5s.224.5.5.5h2c.276 0 .5-.224.5-.5s-.224-.5-.5-.5zm15.571-7.278-1.415 1.415c-.195.195-.195.512 0 .707s.512.195.707 0l1.415-1.415c.195-.195.195-.512 0-.707s-.512-.195-.707 0zm-13.435 13.435-1.415 1.415c-.195.195-.195.512 0 .707s.512.195.707 0l1.415-1.415c.195-.195.195-.512 0-.707s-.512-.195-.707 0zm12.728 0c-.195-.195-.512-.195-.707 0s-.195.512 0 .707l1.415 1.415c.195.195.512.195.707 0s.195-.512 0-.707zm-13.435-13.435c-.195-.195-.512-.195-.707 0s-.195.512 0 .707l1.415 1.415c.195.195.512.195.707 0s.195-.512 0-.707zm12.071 7.778c0 3.505-1.495 5-5 5s-5-1.495-5-5 1.495-5 5-5 5 1.495 5 5zm-1 0c0-2.953-1.047-4-4-4s-4 1.047-4 4 1.047 4 4 4 4-1.047 4-4z"/></svg>