<svg id="Layer_1" viewBox="0 0 24 24" xmlns="http://www.w3.org/2000/svg" data-name="Layer 1"><path d="m12 6c-2.075 0-3 .925-3 3 0 1.896.784 2.823 2.5 2.97v10.53c0 .276.224.5.5.5s.5-.224.5-.5v-10.53c1.716-.147 2.5-1.074 2.5-2.97 0-2.075-.925-3-3-3zm0 5c-1.514 0-2-.486-2-2s.486-2 2-2 2 .486 2 2-.486 2-2 2zm-8.11-9.187c-1.271 1.584-1.89 3.936-1.89 7.187s.618 5.603 1.89 7.187c.173.215.139.53-.077.703-.213.172-.529.139-.702-.077-1.42-1.769-2.11-4.325-2.11-7.813s.689-6.044 2.109-7.813c.174-.215.488-.249.702-.077.216.173.25.488.077.703zm19.11 7.187c0 3.488-.69 6.044-2.11 7.813-.173.216-.489.249-.702.077-.216-.173-.25-.488-.077-.703 1.271-1.584 1.89-3.936 1.89-7.187s-.618-5.603-1.89-7.187c-.173-.215-.139-.53.077-.703.214-.171.529-.138.702.077 1.42 1.769 2.11 4.325 2.11 7.813zm-16.101-4.234c-.605.962-.899 2.347-.899 4.234s.294 3.271.899 4.234c.147.233.077.542-.156.689-.23.145-.542.079-.689-.157-.709-1.126-1.054-2.686-1.054-4.766s.345-3.64 1.054-4.766c.147-.235.457-.302.689-.157.233.147.304.456.156.689zm11.047-.532c.709 1.126 1.054 2.686 1.054 4.766s-.345 3.64-1.054 4.766c-.148.237-.459.302-.689.157-.233-.147-.304-.456-.156-.689.605-.962.899-2.347.899-4.234s-.294-3.271-.899-4.234c-.147-.233-.077-.542.156-.689.234-.145.543-.078.689.157z"/></svg>