<?xml version="1.0" encoding="UTF-8"?>
<svg xmlns="http://www.w3.org/2000/svg" id="Layer_1" data-name="Layer 1" viewBox="0 0 24 24">
  <path d="M20.723,7.604c.132-.446,.199-.907,.199-1.378,0-2.664-2.163-4.831-4.822-4.831-1.068,0-2.091,.35-2.929,.993-.992-.993-2.37-1.497-3.787-1.368-2.498,.232-4.369,2.377-4.301,4.852-2.32,.407-3.981,2.545-3.761,4.935,.113,1.219,.692,2.319,1.632,3.102,.86,.716,1.927,1.081,3.035,1.054l1.963,6.545c.019,.062,.048,.119,.089,.169,.043,.054,1.09,1.323,3.792,1.323,2.496,0,3.711-1.237,3.761-1.29,.056-.057,.096-.126,.118-.202l1.63-5.422c.213,.029,.429,.045,.646,.045,2.598,0,4.711-2.108,4.711-4.7,0-1.519-.748-2.949-1.976-3.826Zm-5.93,13.484c-.272,.229-1.226,.911-2.961,.911-1.889,0-2.742-.685-2.956-.891l-1.884-6.283c.117-.029,.233-.063,.347-.101,1.046,1.105,2.476,1.753,3.997,1.808v2.024c0,.276,.224,.5,.5,.5s.5-.224,.5-.5v-2.073c1.056-.143,2.049-.574,2.879-1.253,.356,.259,.745,.465,1.155,.615l-1.577,5.244Zm3.194-5.958c-.906,0-1.779-.329-2.457-.928-.194-.172-.487-.166-.676,.013-.896,.852-2.07,1.321-3.306,1.321-1.424,0-2.766-.628-3.684-1.724-.097-.116-.239-.179-.383-.179-.066,0-.134,.014-.197,.041-.341,.146-.705,.238-1.08,.273-.943,.094-1.877-.198-2.611-.81s-1.188-1.473-1.275-2.425c-.169-1.827,1.069-3.466,2.897-3.841,.23,.95,.747,1.806,1.494,2.458,.095,.082,.212,.123,.329,.123,.139,0,.278-.058,.377-.171,.181-.209,.16-.524-.048-.706-.729-.636-1.148-1.409-1.269-2.482-.22-1.949,1.325-3.889,3.379-4.079,1.247-.115,2.469,.399,3.259,1.382,.088,.108,.217,.176,.356,.186,.14,.009,.276-.041,.378-.137,.713-.678,1.647-1.052,2.63-1.052,2.107,0,3.822,1.719,3.822,3.831,0,.483-.089,.954-.265,1.401-.09,.229,0,.489,.212,.613,1.128,.664,1.829,1.886,1.829,3.189,0,2.04-1.665,3.7-3.711,3.7Z"/>
</svg>
