<svg id="Layer_1" viewBox="0 0 24 24" xmlns="http://www.w3.org/2000/svg" data-name="Layer 1"><path d="m19 18c-1.682 0-2.5.818-2.5 2.5s.818 2.5 2.5 2.5 2.5-.818 2.5-2.5-.818-2.5-2.5-2.5zm0 4c-.995 0-1.5-.232-1.5-1.5 0-1.261.527-1.5 1.5-1.5.995 0 1.5.232 1.5 1.5 0 1.261-.527 1.5-1.5 1.5z"/><path d="m22.854 1.146c-.195-.195-.512-.195-.707 0l-8.539 8.539c-1.891-1.785-3.015-1.997-3.143-2.016-.152-.022-.306.026-.418.133 0 0-.536.512-1.23 1.206-.771.771-1.132 1.862-1.147 1.908-.013.039-.02.079-.023.119-.026-.003-.052-.006-.078-.009-3.921-.395-6.096 2.925-6.502 6.395-.28 2.389.42 4.644.45 4.738.049.156.171.277.327.327.079.025 1.66.516 3.569.516.38 0 .773-.02 1.169-.066 3.47-.406 6.793-2.575 6.395-6.502-.003-.026-.006-.052-.009-.078.04-.003.081-.011.12-.023.046-.016 1.142-.382 1.906-1.147.7-.7 1.206-1.23 1.206-1.23.106-.111.155-.266.133-.418-.019-.129-.231-1.253-2.016-3.143l8.537-8.541c.195-.195.195-.512 0-.707zm-16.39 20.795c-1.732.204-3.436-.175-4.066-.339-.165-.629-.542-2.33-.339-4.066.35-2.983 2.16-5.851 5.408-5.516.392.04.777.125 1.146.253.013.005.027.008.04.012l3.062 3.062c.003.012.006.023.01.035.13.372.216.759.255 1.151.33 3.251-2.533 5.059-5.516 5.409zm7.821-7.465c-.39.389-.916.656-1.233.794l-4.322-4.322c.137-.317.404-.843.794-1.233.424-.424.789-.779 1.004-.988.403.156 1.351.633 2.732 2.014s1.861 2.334 2.014 2.731c-.208.215-.562.578-.989 1.005z"/></svg>