<svg id="Layer_1" viewBox="0 0 24 24" xmlns="http://www.w3.org/2000/svg" data-name="Layer 1"><path d="m21.936 3.435c-.042-.166-.165-.299-.327-.354-.132-.044-3.3-1.082-9.609-1.082s-9.477 1.039-9.609 1.083c-.162.054-.285.188-.327.354-.043.175-1.064 4.33-1.064 8.565s1.021 8.391 1.064 8.565c.042.165.165.299.327.353.132.045 3.3 1.082 9.609 1.082s9.477-1.037 9.609-1.082c.162-.054.285-.188.327-.353.043-.175 1.064-4.33 1.064-8.565s-1.021-8.39-1.064-8.565zm-18.966.518c.871-.239 3.904-.953 9.03-.953s8.159.714 9.03.953c.137.606.464 2.149.7 4.047h-19.46c.236-1.898.563-3.441.7-4.047zm18.06 16.094c-.871.238-3.904.953-9.03.953s-8.159-.715-9.03-.953c-.227-1-.97-4.547-.97-8.047 0-1.018.064-2.038.159-3h19.683c.095.962.159 1.982.159 3 0 3.5-.744 7.047-.97 8.047zm-14.283-14.547c0-.415.335-.75.75-.75s.75.335.75.75-.335.75-.75.75-.75-.335-.75-.75zm-2.997.003c0-.415.335-.75.75-.75s.75.335.75.75-.335.75-.75.75-.75-.335-.75-.75zm9.014 5.952c.01.107.236 2.645.236 4.115 0 2.372-.925 3.43-3 3.43s-3-1.058-3-3.43c0-1.471.227-4.008.236-4.115.025-.275.272-.482.543-.453.275.025.478.268.453.543-.002.026-.232 2.6-.232 4.025 0 2.043.703 2.43 2 2.43s2-.387 2-2.43c0-1.426-.23-4-.232-4.025-.025-.275.178-.518.453-.543.272-.028.518.178.543.453zm3.955-.042c.012.065.281 1.61.281 3.45s-.267 3.635-.278 3.711c-.04.274-.301.463-.569.42-.273-.041-.461-.295-.42-.568.003-.018.268-1.805.268-3.562s-.263-3.261-.265-3.276c-.048-.272.133-.531.405-.579.268-.051.531.133.579.405z"/></svg>