<svg id="Layer_1" viewBox="0 0 24 24" xmlns="http://www.w3.org/2000/svg" data-name="Layer 1"><path d="m17.5 12c-3.855 0-5.5 1.645-5.5 5.5s1.645 5.5 5.5 5.5 5.5-1.645 5.5-5.5-1.645-5.5-5.5-5.5zm0 10c-3.28 0-4.5-1.22-4.5-4.5s1.22-4.5 4.5-4.5 4.5 1.22 4.5 4.5-1.22 4.5-4.5 4.5zm-5.5-13.5c0 .276-.224.5-.5.5h-1c-.276 0-.5-.224-.5-.5s.224-.5.5-.5h1c.276 0 .5.224.5.5zm0-3c0 .276-.224.5-.5.5h-1c-.276 0-.5-.224-.5-.5s.224-.5.5-.5h1c.276 0 .5.224.5.5zm-1.001 16.873c.022.275-.182.517-.457.54-.703.058-1.389.087-2.042.087-3.291 0-6.236-.734-6.36-.765-.192-.048-.337-.206-.371-.401-.007-.045-.769-4.602-.769-9.833s.762-9.789.769-9.834c.033-.195.179-.353.371-.401.124-.031 3.069-.765 6.36-.765s6.236.734 6.36.765c.192.048.337.206.371.401.005.032.54 3.226.714 7.312.012.276-.202.509-.479.521-.25.026-.509-.202-.521-.479-.139-3.27-.512-5.955-.649-6.86-.844-.187-3.242-.661-5.796-.661s-4.953.475-5.796.661c-.17 1.124-.704 4.994-.704 9.339s.533 8.215.704 9.339c.844.187 3.242.661 5.796.661.625 0 1.284-.028 1.958-.084.275-.018.517.183.54.457zm-3.999-4.873c0 .276-.224.5-.5.5h-1c-.276 0-.5-.224-.5-.5s.224-.5.5-.5h1c.276 0 .5.224.5.5zm0-3c0 .276-.224.5-.5.5h-1c-.276 0-.5-.224-.5-.5s.224-.5.5-.5h1c.276 0 .5.224.5.5zm5-3c0 .276-.224.5-.5.5h-1c-.276 0-.5-.224-.5-.5s.224-.5.5-.5h1c.276 0 .5.224.5.5zm-5 0c0 .276-.224.5-.5.5h-1c-.276 0-.5-.224-.5-.5s.224-.5.5-.5h1c.276 0 .5.224.5.5zm10.8 3.6c-.152-.114-.355-.132-.523-.047-.169.085-.276.258-.276.447v1.5h-1.5c-.276 0-.5.224-.5.5s.224.5.5.5h1.5v1.5c0 .189.107.362.276.447.169.084.372.067.523-.047.797-.597 1.503-1.303 2.1-2.1.133-.178.133-.422 0-.6-.597-.797-1.303-1.503-2.1-2.1zm.2 3.329v-1.857c.309.29.598.6.866.929-.268.329-.557.639-.866.929zm-11-12.929c0 .276-.224.5-.5.5h-1c-.276 0-.5-.224-.5-.5s.224-.5.5-.5h1c.276 0 .5.224.5.5zm0 3c0 .276-.224.5-.5.5h-1c-.276 0-.5-.224-.5-.5s.224-.5.5-.5h1c.276 0 .5.224.5.5z"/></svg>