<?xml version="1.0" encoding="UTF-8"?>
<svg xmlns="http://www.w3.org/2000/svg" id="Layer_1" data-name="Layer 1" viewBox="0 0 24 24">
  <g>
    <path d="M22.45,10.355c-.033-.162-.146-.297-.299-.36-.082-.034-2.03-.826-4.334-.826-.724,0-1.482,.079-2.261,.234-.216-3.512-.682-5.888-.688-5.919-.032-.161-.141-.296-.291-.361-.118-.051-2.924-1.25-6.246-1.25S2.206,3.071,2.088,3.122c-.151,.065-.261,.201-.292,.362-.009,.041-.796,4.107-.796,9.391,0,4.215,.487,7.583,.696,8.835,.04,.241,.249,.417,.493,.417H22.125c.248,0,.458-.181,.494-.426,.174-1.164,.381-3.007,.381-5.178,0-3.497-.527-6.06-.55-6.167ZM2.615,21.127c-.227-1.462-.615-4.517-.615-8.252,0-4.417,.559-7.959,.729-8.932,.736-.28,3.04-1.07,5.604-1.07s4.87,.791,5.604,1.07c.17,.967,.729,4.481,.729,8.932,0,3.702-.39,6.777-.617,8.252H2.615Zm19.076,0h-6.632c.234-1.558,.606-4.609,.606-8.252,0-.859-.021-1.683-.055-2.463,.764-.161,1.505-.243,2.207-.243,1.647,0,3.133,.458,3.704,.659,.133,.74,.479,2.941,.479,5.695,0,1.861-.156,3.474-.309,4.604Z"/>
    <path d="M6.46,6.342h-1.046c-.276,0-.5,.224-.5,.5s.224,.5,.5,.5h1.046c.276,0,.5-.224,.5-.5s-.224-.5-.5-.5Z"/>
    <path d="M11.25,6.342h-1.046c-.276,0-.5,.224-.5,.5s.224,.5,.5,.5h1.046c.276,0,.5-.224,.5-.5s-.224-.5-.5-.5Z"/>
    <path d="M6.46,10.105h-1.046c-.276,0-.5,.224-.5,.5s.224,.5,.5,.5h1.046c.276,0,.5-.224,.5-.5s-.224-.5-.5-.5Z"/>
    <path d="M11.25,10.105h-1.046c-.276,0-.5,.224-.5,.5s.224,.5,.5,.5h1.046c.276,0,.5-.224,.5-.5s-.224-.5-.5-.5Z"/>
    <path d="M6.46,13.868h-1.046c-.276,0-.5,.224-.5,.5s.224,.5,.5,.5h1.046c.276,0,.5-.224,.5-.5s-.224-.5-.5-.5Z"/>
    <path d="M11.25,13.868h-1.046c-.276,0-.5,.224-.5,.5s.224,.5,.5,.5h1.046c.276,0,.5-.224,.5-.5s-.224-.5-.5-.5Z"/>
    <path d="M6.46,17.631h-1.046c-.276,0-.5,.224-.5,.5s.224,.5,.5,.5h1.046c.276,0,.5-.224,.5-.5s-.224-.5-.5-.5Z"/>
    <path d="M11.25,17.631h-1.046c-.276,0-.5,.224-.5,.5s.224,.5,.5,.5h1.046c.276,0,.5-.224,.5-.5s-.224-.5-.5-.5Z"/>
  </g>
  <circle cx="18.33" cy="13.769" r=".745"/>
  <circle cx="18.33" cy="17.53" r=".745"/>
</svg>
