<svg id="Layer_1" viewBox="0 0 24 24" xmlns="http://www.w3.org/2000/svg" data-name="Layer 1"><path d="m13.146 10.146c-.195.195-.195.512 0 .707s.512.195.707 0l3.854-3.854c2.751 0 3.068-.016 3.699-.648.449-.448.42-.414.608-.598 1.162-1.161 1.136-2.127.724-2.644-.313-.393-.918-.466-1.406-.44.021-.491-.047-1.091-.438-1.404-.25-.201-1.183-.744-2.645.718-.185.189-.15.16-.601.611-.568.569-.646.972-.649 3.697l-3.854 3.854zm5.21-6.844c.375-.375.478-.482.6-.61.528-.529.937-.694 1.157-.694.066 0 .115.015.146.039.093.119.098.667.01 1.108-.079.337.254.668.59.588.435-.089.973-.084 1.103.007.106.151.022.631-.72 1.37-.062.059-.17.162-.543.535-.308.308-.351.351-2.698.354.011-2.353.105-2.447.355-2.697zm4.644 8.698c0 7.813-3.187 11-11 11s-11-3.187-11-11 3.187-11 11-11c1.354 0 2.528.093 3.589.286.272.049.452.31.403.582-.05.272-.314.447-.581.403-1.002-.182-2.117-.27-3.411-.27-7.196-.001-10 2.803-10 9.999s2.804 10 10 10 10-2.804 10-10c0-1.275-.091-2.423-.27-3.411-.049-.271.132-.532.403-.581.266-.046.531.131.581.403.191 1.062.285 2.235.285 3.589zm-8.609-5.773c-.682-.153-1.463-.227-2.391-.227-4.374 0-6 1.626-6 6s1.626 6 6 6 6-1.626 6-6c0-.927-.074-1.709-.228-2.391-.06-.27.109-.537.379-.597.273-.06.537.109.598.378.169.754.251 1.607.251 2.609 0 4.907-2.094 7-7 7s-7-2.093-7-7 2.093-7 7-7c1.002 0 1.855.082 2.609.251.27.061.438.328.379.597-.062.27-.325.44-.598.378zm-4.391 5.773c0 1.514.486 2 2 2 1.537 0 1.891-.567 1.98-1.546.026-.275.271-.475.544-.452.275.025.478.269.452.544-.154 1.674-1.101 2.454-2.977 2.454-2.075 0-3-.925-3-3 0-1.876.78-2.822 2.454-2.977.278-.026.519.177.544.452s-.177.519-.452.544c-.979.09-1.546.443-1.546 1.98z"/></svg>