<svg id="Layer_1" viewBox="0 0 24 24" xmlns="http://www.w3.org/2000/svg" data-name="Layer 1"><path d="m23 17.5c-.019-.726.011-1.486-.058-2.106-.154-2.051-1.696-3.732-3.733-4.087-.665-.138-1.54-.226-2.473-.268.241-1.895.408-7.128-.009-8.624-.05-.133-.153-.239-.285-.291-.116-.046-2.899-1.124-7.442-1.124s-7.326 1.078-7.442 1.124c-.144.057-.253.176-.296.324-.473 2.125-.19 7.844.19 10.012.792 5.876 2.131 8.997 2.392 9.563.057.123.161.219.29.264.342.118 2.184.713 4.866.713 1.016 0 2.019-.089 2.985-.257 2.195.35 6.326.327 8.158-.239 1.408-.327 2.45-1.458 2.654-2.881.112-.616.137-1.39.202-2.123zm-1.055-2.025c.041.458.051.987.046 1.525h-12.982c-.005-.54.005-1.071.046-1.532.119-1.593 1.321-2.9 2.94-3.183 1.775-.37 5.247-.367 7.024.003 1.603.279 2.805 1.587 2.925 3.187zm-2.757 2.525-1.472 1.244c-.458.345-1.098.339-1.55-.012l-1.561-1.232zm-17.018-15.032c.76-.252 3.237-.968 6.83-.968s6.084.721 6.837.97c.079.501.131 1.673.137 3.03h-13.95c0-1.328.051-2.462.146-3.032zm2.494 18.439c-.382-.889-1.516-3.847-2.225-9.102-.244-1.373-.372-3.433-.406-5.306h13.937c-.018 1.427-.09 2.924-.237 4.012-1.452-.012-2.927.083-3.925.292-2.054.357-3.596 2.039-3.749 4.083-.11 1.263-.055 2.985.143 4.231.14.984.685 1.82 1.458 2.353-.22.009-.438.029-.659.029-2.174 0-3.774-.421-4.336-.593zm17.146-1.938s0 .006 0 .009c-.145 1.013-.887 1.818-1.927 2.062-1.608.5-5.475.572-7.768.213-.003 0-.005 0-.008-.001-.392-.062-.743-.134-1.022-.221-1.005-.233-1.747-1.039-1.893-2.061-.07-.436-.115-.946-.146-1.469h3.947l2.559 2.02c.819.636 1.956.632 2.788.007l2.398-2.026h1.22c-.031.523-.076 1.033-.147 1.469z"/></svg>