<svg id="Layer_1" viewBox="0 0 24 24" xmlns="http://www.w3.org/2000/svg" data-name="Layer 1"><path d="m23 17.5c-.019-.727.011-1.488-.059-2.106-.153-2.051-1.695-3.732-3.733-4.087-.399-.104-.545-.203-1.723-.475.632-2.079 1.521-4.049 1.519-4.049.111-.193.081-.438-.076-.599-.569-.583-1.245-.956-2.009-1.11-.212-.045-.431.057-.536.249-.085.152-1.153 2.475-1.873 4.974-.105-.014-.213-.027-.321-.04.58-3.472 1.814-6.396 1.87-6.528.083-.197.032-.427-.129-.568-.554-.49-1.261-.796-2.104-.908-.219-.032-.447.118-.537.323-.182.417-.537 1.267-.869 2.268-.087.262.055.545.317.632.261.089.545-.055.632-.317.245-.736.502-1.388.694-1.848.353.082.66.211.928.388-.374.94-1.305 3.482-1.794 6.454-.387-.036-.786-.068-1.203-.092-.057-4.103-.883-7.626-1.15-8.664-.05-.205-.225-.357-.435-.379-.758-.083-1.582.121-2.26.547-.187.117-.274.342-.217.555.01.038.987 3.715 1.06 7.897-.076.002-.148.006-.224.008-.629-3.915-2.066-7.343-2.232-7.732-.091-.212-.317-.336-.544-.296-.762.131-1.453.427-2.055.881-.185.14-.249.389-.157.601.015.033 1.377 3.239 1.984 6.769-.107.013-.207.026-.31.039-.739-2.609-1.758-4.664-1.768-4.682-.109-.196-.335-.297-.555-.242-.794.192-1.463.565-1.99 1.106-.148.152-.182.384-.088.574.009.017.814 1.711 1.433 3.775-.669.161-1.051.286-1.096.301-.187.062-.319.229-.338.424-.023.229-.533 5.66 2.023 10.584.07.135.198.23.347.26 1.413.281 3.702.615 6.578.615 1.026 0 2.049-.042 3.042-.126.004 0 .007-.003.012-.003.77.069 1.615.105 2.463.105 1.814 0 3.621-.158 4.627-.472 1.388-.322 2.454-1.48 2.655-2.882.112-.618.136-1.391.202-2.122zm-1.055-2.024c.041.457.051.986.046 1.524h-12.982c-.005-.54.005-1.072.046-1.532.119-1.593 1.322-2.9 2.94-3.183 1.776-.37 5.247-.367 7.024.003 1.603.279 2.805 1.587 2.925 3.188zm-2.757 2.524-1.472 1.244c-.461.344-1.098.339-1.549-.012l-1.562-1.232zm-2.091-11.844c.315.11.604.276.872.5-.308.708-.971 2.318-1.466 3.966-.305-.06-.638-.119-.991-.177.532-1.813 1.257-3.55 1.586-4.289zm-8.101-3.916c.31-.141.644-.224.97-.239.309 1.274.966 4.411 1.023 8.014-.323-.009-.652-.015-.989-.015-.004 0-.008 0-.012 0-.061-3.558-.734-6.692-.993-7.76zm-4.142 1.22c.286-.173.591-.304.92-.395.403 1.009 1.466 3.87 1.985 7.004-.346.021-.681.046-1.002.074-.498-2.946-1.51-5.691-1.903-6.684zm-2.749 3.478c.256-.209.546-.371.876-.49.304.664.955 2.177 1.476 3.979-.361.058-.689.118-.99.177-.481-1.624-1.075-3.027-1.363-3.666zm-.08 5.033c.925-.261 3.823-.971 7.975-.971 1.059 0 2.05.054 2.962.136-.421.045-.82.098-1.154.168-2.054.357-3.596 2.039-3.749 4.082-.111 1.263-.055 2.985.142 4.232.14.984.712 1.841 1.505 2.378-2.5-.021-4.523-.295-5.851-.546-1.958-3.931-1.893-8.269-1.829-9.479zm19.785 7.498v.009c-.143.998-.903 1.822-1.929 2.062-1.883.586-6.878.588-8.797-.01-.99-.229-1.75-1.054-1.894-2.061-.07-.437-.114-.947-.146-1.469h3.946l2.56 2.02c.819.636 1.956.633 2.789.007l2.398-2.026h1.22c-.031.522-.076 1.032-.146 1.469z"/></svg>