<?xml version="1.0" encoding="UTF-8"?>
<svg xmlns="http://www.w3.org/2000/svg" id="Layer_1" data-name="Layer 1" viewBox="0 0 24 24">
  <path d="M18.72,7.819c-.029-.093-.084-.173-.156-.233,.609-.513,.998-1.289,.998-2.156,0-1.527-1.229-2.77-2.738-2.77-.229,0-.453,.028-.67,.083-.405-1.038-1.398-1.743-2.545-1.743-.587,0-1.144,.185-1.608,.527-.464-.342-1.021-.527-1.608-.527-1.147,0-2.14,.706-2.545,1.743-.217-.056-.441-.083-.67-.083-1.51,0-2.738,1.243-2.738,2.77,0,.867,.389,1.643,.998,2.156-.072,.061-.128,.141-.156,.233-.039,.123-.942,3.059-.942,6.976,0,4.015,1.797,6.959,1.874,7.083,.047,.076,.114,.138,.194,.18,.073,.038,1.842,.938,5.595,.943,3.751-.005,5.521-.905,5.594-.943,.08-.042,.146-.104,.194-.18,.077-.124,1.874-3.068,1.874-7.083,0-3.917-.903-6.853-.942-6.976ZM7.177,3.66c.273,0,.536,.063,.779,.188,.143,.073,.312,.074,.454,0,.143-.072,.242-.208,.268-.367,.138-.858,.859-1.481,1.715-1.481,.474,0,.916,.19,1.246,.537,.188,.197,.535,.197,.724,0,.33-.346,.772-.537,1.246-.537,.856,0,1.577,.623,1.715,1.481,.025,.158,.125,.294,.268,.367,.142,.073,.312,.072,.454,0,.244-.125,.506-.188,.779-.188,.958,0,1.738,.794,1.738,1.77,0,.985-.774,1.788-1.727,1.793-1.698-.127-3.414,.267-4.822,1.133-1.376-.857-3.108-1.281-4.883-1.133-.937-.025-1.692-.819-1.692-1.792s.78-1.77,1.738-1.77Zm9.834,17.565c-.44,.185-2.069,.771-5.01,.775-2.945-.004-4.575-.592-5.012-.775-.328-.584-1.65-3.144-1.65-6.43,0-3.101,.604-5.613,.821-6.412,3.191-.73,6.581,.801,7.496,3.437,.041,.117,.079,.234,.116,.352,.082,.264,.361,.412,.626,.329,.264-.082,.411-.362,.329-.626-.04-.127-.082-.254-.126-.382-.337-.972-.934-1.813-1.708-2.488,1.469-.779,3.262-1.009,4.95-.621,.216,.797,.82,3.304,.82,6.412,0,3.274-1.323,5.843-1.651,6.43Z"/>
  <g>
    <circle cx="9.8" cy="15.689" r=".751"/>
    <circle cx="11.65" cy="18.491" r=".751"/>
    <circle cx="8.62" cy="18.491" r=".751"/>
  </g>
</svg>
