<?xml version="1.0" encoding="UTF-8"?>
<svg xmlns="http://www.w3.org/2000/svg" id="Layer_1" data-name="Layer 1" viewBox="0 0 24 24">
  <path d="M9.015,6.298c.045,0,.091-.006,.136-.019,.013-.004,1.332-.37,2.849-.37s2.836,.366,2.849,.37c.264,.076,.542-.08,.616-.346,.075-.266-.08-.542-.345-.616-.059-.017-1.462-.408-3.12-.408s-3.061,.391-3.12,.407c-.266,.075-.421,.351-.346,.617,.062,.221,.263,.365,.481,.365Z"/>
  <path d="M22.717,8.905c-.049-.163-.179-.289-.342-.335-.049-.014-1.351-.349-2.805-.248-.22-3.002-.703-5.273-.73-5.395-.034-.156-.14-.287-.287-.352-.124-.055-3.067-1.34-6.553-1.34s-6.429,1.285-6.553,1.339c-.147,.065-.254,.196-.287,.353-.026,.123-.509,2.407-.729,5.395-1.455-.1-2.758,.234-2.806,.248-.164,.046-.293,.173-.342,.335-.012,.038-.283,.94-.283,2.156,0,1.206,.271,2.117,.283,2.155,.049,.164,.179,.291,.343,.337,.041,.011,1.01,.28,2.146,.28,0,0,.64,.008,.655,.008,.219,2.866,.711,4.788,.738,4.891,.042,.164,.166,.295,.327,.349,.027,.009,.195,.064,.477,.143,0,.007-.001,.013-.001,.02v1.306c0,1.221,.991,2.215,2.208,2.215s2.208-.994,2.208-2.215v-.54c.519,.042,1.06,.066,1.616,.066s1.097-.025,1.616-.066v.541c0,1.221,.991,2.215,2.208,2.215s2.208-.994,2.208-2.215v-1.306c0-.007,0-.014-.001-.021,.281-.079,.449-.134,.476-.143,.162-.053,.285-.185,.328-.35,.026-.103,.517-2.039,.736-4.889,.015,0,.656-.008,.656-.008,1.136,0,2.106-.269,2.146-.28,.165-.046,.294-.173,.343-.337,.012-.038,.283-.949,.283-2.155,0-1.216-.271-2.119-.283-2.156ZM4.365,12.842c-.104,0-.592-.009-.592-.009-.658,0-1.263-.105-1.6-.178-.071-.323-.173-.907-.173-1.594,0-.692,.102-1.273,.172-1.594,.434-.093,1.274-.218,2.197-.148-.029,.592-.047,1.204-.047,1.826,0,.589,.015,1.156,.041,1.697ZM6.086,3.394c.75-.293,3.193-1.158,5.914-1.158s5.166,.865,5.914,1.158c.133,.685,.491,2.673,.665,5.114H5.422c.175-2.428,.531-4.425,.664-5.114Zm-.65,10.502c-.068-.842-.113-1.768-.113-2.751,0-.554,.014-1.103,.039-1.638h6.089v4.389H5.436Zm3.948,6.654c0,.67-.542,1.215-1.208,1.215s-1.208-.545-1.208-1.215v-1.072c.649,.149,1.477,.311,2.417,.429v.643Zm7.649,0c0,.67-.542,1.215-1.208,1.215s-1.208-.545-1.208-1.215v-.643c.939-.118,1.768-.279,2.417-.429v1.072Zm.897-2.338c-.785,.229-3.214,.864-5.93,.864s-5.147-.636-5.931-.864c-.115-.506-.359-1.697-.537-3.315h2.904v1.244c0,.276,.224,.5,.5,.5s.5-.224,.5-.5v-1.244h5.129v1.244c0,.276,.224,.5,.5,.5s.5-.224,.5-.5v-1.244h2.902c-.178,1.612-.422,2.807-.536,3.315Zm.632-4.315h-6.11v-4.389h6.163c.008,0,.015,0,.023-.001,.025,.534,.039,1.083,.039,1.639,0,.981-.045,1.907-.114,2.751Zm3.265-1.24c-.336,.072-.942,.178-1.6,.178,0,0-.489,.008-.593,.009,.027-.542,.042-1.109,.042-1.697,0-.623-.017-1.234-.046-1.826,.925-.07,1.763,.055,2.197,.148,.071,.321,.172,.902,.172,1.594,0,.688-.102,1.271-.173,1.594Z"/>
</svg>
