<?xml version="1.0" encoding="UTF-8"?>
<svg xmlns="http://www.w3.org/2000/svg" id="Layer_1" data-name="Layer 1" viewBox="0 0 24 24">
  <path d="M22.717,8.561c-.049-.163-.179-.289-.343-.335-.049-.014-1.366-.347-2.811-.247-.224-2.805-.702-4.69-.728-4.792-.039-.148-.142-.271-.282-.332-.124-.055-3.067-1.34-6.553-1.34s-6.429,1.285-6.553,1.339c-.141,.062-.245,.185-.283,.334-.026,.103-.503,2.001-.727,4.791-1.446-.1-2.763,.234-2.812,.247-.164,.046-.293,.172-.343,.335-.012,.038-.283,.941-.283,2.157,0,1.206,.271,2.117,.283,2.155,.049,.164,.179,.291,.343,.337,.041,.011,1.01,.28,2.146,.28,0,0,.64,.008,.655,.008,.219,2.866,.711,4.789,.738,4.891,.042,.164,.166,.295,.327,.349,.028,.009,.198,.065,.483,.145-.005,.027-.008,.055-.008,.083v1.306c0,1.221,.991,2.215,2.208,2.215s2.208-.994,2.208-2.215v-.605c.519,.042,1.06,.066,1.616,.066s1.097-.025,1.616-.066v.605c0,1.221,.991,2.215,2.208,2.215s2.208-.994,2.208-2.215v-1.306c0-.029-.003-.056-.008-.084,.285-.08,.455-.136,.483-.145,.162-.053,.285-.185,.328-.35,.026-.103,.517-2.039,.736-4.89,.015,0,.656-.008,.656-.008,1.136,0,2.105-.269,2.146-.28,.165-.046,.294-.173,.343-.337,.012-.038,.283-.95,.283-2.155,0-1.216-.271-2.119-.283-2.157Zm-10.265,4.991V7.95h6.104c.073,.869,.121,1.83,.121,2.851,0,.981-.045,1.907-.114,2.751h-6.11Zm-7.016,0c-.068-.842-.113-1.768-.113-2.751,0-1.018,.049-1.979,.122-2.851h6.007v5.602H5.436ZM12,2.514c2.739,0,5.187,.873,5.924,1.162,.109,.483,.353,1.662,.534,3.273H5.544c.181-1.605,.424-2.789,.533-3.273,.739-.29,3.191-1.162,5.923-1.162ZM3.772,12.489c-.658,0-1.263-.105-1.6-.177-.071-.324-.173-.907-.173-1.595,0-.692,.102-1.273,.172-1.595,.435-.092,1.283-.216,2.199-.148-.03,.581-.048,1.192-.048,1.826,0,.589,.015,1.157,.041,1.698-.104,0-.592-.009-.592-.009Zm5.611,7.782c0,.67-.542,1.215-1.208,1.215s-1.208-.545-1.208-1.215v-1.136c.649,.149,1.477,.311,2.417,.429v.708Zm-3.314-2.403c-.115-.506-.359-1.698-.537-3.316h2.904v1.245c0,.276,.224,.5,.5,.5s.5-.224,.5-.5v-1.245h5.129v1.245c0,.276,.224,.5,.5,.5s.5-.224,.5-.5v-1.245h2.902c-.178,1.612-.422,2.807-.536,3.316-.785,.229-3.214,.864-5.93,.864s-5.147-.636-5.931-.864Zm10.963,2.403c0,.67-.542,1.215-1.208,1.215s-1.208-.545-1.208-1.215v-.708c.939-.118,1.768-.279,2.417-.429v1.137Zm4.794-7.958c-.335,.072-.938,.177-1.6,.177,0,0-.488,.008-.593,.009,.027-.542,.042-1.109,.042-1.697,0-.635-.018-1.246-.048-1.826,.916-.069,1.764,.055,2.199,.148,.071,.322,.172,.903,.172,1.595,0,.688-.102,1.271-.173,1.595Z"/>
</svg>
