<svg id="Layer_1" viewBox="0 0 24 24" xmlns="http://www.w3.org/2000/svg" data-name="Layer 1"><path d="m21.47 6.529c-.034-.071-.086-.133-.148-.18-.065-.048-.174-.13-.321-.238v-3.611c0-.276-.224-.5-.5-.5s-.5.224-.5.5v2.887c-2.195-1.564-6.382-4.387-8-4.387-2.111 0-8.59 4.802-9.321 5.35-.063.047-.114.108-.149.18-.062.126-1.531 3.165-1.531 8.471 0 2.212.506 7.333.528 7.55.025.256.241.45.498.45h6.3c.148 0 .289-.066.384-.18s.134-.265.107-.411c-.132-.718-.517-3.381-.517-5.159 0-2.117.389-4.623.493-5.25h6.424c.117.73.484 3.198.484 5.25 0 1.779-.385 4.441-.517 5.159-.027.146.012.297.106.411.096.113.236.18.385.18h6.301c.257 0 .473-.195.498-.451.021-.217.526-5.347.526-7.549 0-5.306-1.468-8.345-1.53-8.471zm-4.837 8.971h5.36c-.019.701-.071 1.592-.135 2.5h-5.175c.011-.26.018-.512.018-.75 0-.571-.026-1.168-.068-1.75zm-13.252-8.426c2.678-1.995 7.297-5.074 8.619-5.074s5.941 3.079 8.62 5.074c.163.372.713 1.737 1.067 3.926h-19.374c.355-2.188.905-3.553 1.068-3.926zm3.937 10.926h-5.175c-.065-.907-.117-1.798-.135-2.5h5.36c-.041.579-.068 1.175-.068 1.75 0 .238.006.49.018.75zm-4.839 4c-.058-.609-.164-1.76-.261-3h5.164c.091 1.128.241 2.267.354 3zm4.975-7.5h-5.449c.017-.908.079-1.743.168-2.5h5.606c-.076.471-.216 1.406-.325 2.5zm14.373-2.5c.089.757.151 1.592.168 2.5h-5.448c-.105-1.072-.24-2.002-.318-2.5h5.597zm-5.562 10c.112-.734.263-1.872.354-3h5.164c-.097 1.24-.203 2.391-.261 3z"/><path d="m12 9c1.103 0 2-.897 2-2s-.897-2-2-2-2 .897-2 2 .897 2 2 2zm0-3c.551 0 1 .448 1 1s-.449 1-1 1-1-.448-1-1 .449-1 1-1z"/></svg>