<svg id="Layer_1" viewBox="0 0 24 24" xmlns="http://www.w3.org/2000/svg" data-name="Layer 1"><path d="m12.75 6c0 .414-.336.75-.75.75s-.75-.336-.75-.75.336-.75.75-.75.75.336.75.75zm-.75 3.25c-.414 0-.75.336-.75.75s.336.75.75.75.75-.336.75-.75-.336-.75-.75-.75zm0 4c-.414 0-.75.336-.75.75s.336.75.75.75.75-.336.75-.75-.336-.75-.75-.75zm0 4c-.414 0-.75.336-.75.75s.336.75.75.75.75-.336.75-.75-.336-.75-.75-.75zm11-5.75c0 .106-.012 2.626-1.036 5.186-.124.251-.839 1.314-4.464 1.314h-.713c-.137 2.216-.289 4.004-.289 4.004-.018.214-.171.393-.379.443-.092.022-2.28.553-4.119.553s-4.026-.53-4.119-.553c-.208-.051-.36-.228-.379-.439-.004-.052-.45-4.95-.498-8.008h-.504c-3.625 0-4.341-1.063-4.447-1.276-1.041-2.598-1.053-5.117-1.053-5.224 0-1.706.794-2.5 2.5-2.5s2.499.793 2.5 2.496c.004 0 .092.598.26 1.504h.794c.037-1.128.091-2.261.158-3.305.196-3.597 1.315-4.695 4.788-4.695s4.591 1.099 4.788 4.7c.141 2.177.212 4.298.212 6.3 0 .33-.003.664-.008 1h.748c.176-.948.265-1.565.265-1.57-.005-1.636.79-2.43 2.495-2.43s2.5.794 2.5 2.5zm-1 0c0-1.149-.351-1.5-1.5-1.5s-1.5.351-1.5 1.5c-.005.07-.122.888-.355 2.095-.045.235-.251.405-.491.405h-1.671c-.134 0-.263-.054-.357-.15s-.146-.226-.143-.36c.011-.5.018-1 .018-1.489 0-1.98-.071-4.08-.21-6.24-.178-3.267-1.012-3.76-3.79-3.76s-3.611.493-3.79 3.755c-.077 1.187-.136 2.485-.171 3.759-.008.271-.229.486-.5.486h-1.693c-.239 0-.445-.17-.491-.405-.234-1.207-.351-2.024-.351-2.024-.005-1.22-.355-1.57-1.505-1.57s-1.5.351-1.5 1.5c0 .023.014 2.438.963 4.812t0 0c.021 0 .666.689 3.536.689h1c.276 0 .5.224.5.5 0 2.501.356 6.788.466 8.055.679.146 2.23.445 3.534.445s2.852-.299 3.532-.445c.056-.69.179-2.282.286-4.084.016-.265.234-.471.499-.471h1.184c2.993 0 3.566-.75 3.572-.758.914-2.303.928-4.719.928-4.742z"/></svg>