<?xml version="1.0" encoding="UTF-8"?>
<svg xmlns="http://www.w3.org/2000/svg" id="Layer_1" data-name="Layer 1" viewBox="0 0 24 24">
  <path d="M22.5,21.975h-.632c.118-1.146,.177-2.291,.177-3.413,0-4.858-1.075-8.419-1.121-8.568-.05-.163-.179-.289-.342-.335-.156-.044-3.739-1.037-8.083-1.109v-2.215c1.056-.229,1.85-1.169,1.85-2.29,0-1.581-1.87-2.808-2.083-2.942-.165-.104-.375-.104-.537,.002-.213,.137-2.08,1.379-2.08,2.94,0,1.121,.794,2.061,1.85,2.29v2.215c-4.335,.073-7.926,1.066-8.082,1.109-.165,.046-.294,.173-.344,.336-.046,.151-1.12,3.75-1.12,8.567,0,1.122,.059,2.268,.175,3.413h-.63c-.276,0-.5,.224-.5,.5s.224,.5,.5,.5H22.5c.276,0,.5-.224,.5-.5s-.224-.5-.5-.5ZM10.65,4.044c0-.724,.82-1.503,1.352-1.909,.53,.401,1.348,1.175,1.348,1.909,0,.741-.605,1.344-1.35,1.344s-1.35-.603-1.35-1.344ZM3.957,10.552c.951-.239,4.294-1.006,8.043-1.006s7.094,.768,8.044,1.006c.166,.62,.574,2.285,.815,4.544-.713,.725-1.637,1.122-2.62,1.122-1.042,0-2.018-.446-2.747-1.257-.191-.211-.555-.211-.744,0-.729,.811-1.704,1.257-2.747,1.257s-2.018-.446-2.748-1.257c-.189-.211-.554-.211-.743,0-.729,.811-1.705,1.257-2.748,1.257-.982,0-1.905-.396-2.618-1.12,.241-2.25,.648-3.923,.814-4.546Zm-.822,11.423c-.12-1.145-.18-2.291-.18-3.413,0-.781,.03-1.532,.08-2.24,.796,.583,1.737,.896,2.727,.896,1.158,0,2.249-.428,3.119-1.215,1.743,1.575,4.499,1.574,6.238,0,.871,.787,1.961,1.215,3.119,1.215,.991,0,1.932-.313,2.729-.897,.049,.708,.079,1.458,.079,2.241,0,1.121-.062,2.267-.183,3.413H3.135Z"/>
</svg>
