<svg id="Layer_1" viewBox="0 0 24 24" xmlns="http://www.w3.org/2000/svg" data-name="Layer 1"><path d="m20 15.5c0 .276-.224.5-.5.5h-1c-.276 0-.5-.224-.5-.5s.224-.5.5-.5h1c.276 0 .5.224.5.5zm-.5 2.5h-1c-.276 0-.5.224-.5.5s.224.5.5.5h1c.276 0 .5-.224.5-.5s-.224-.5-.5-.5zm0-6h-1c-.276 0-.5.224-.5.5s.224.5.5.5h1c.276 0 .5-.224.5-.5s-.224-.5-.5-.5zm-3 3h-1c-.276 0-.5.224-.5.5s.224.5.5.5h1c.276 0 .5-.224.5-.5s-.224-.5-.5-.5zm0 3h-1c-.276 0-.5.224-.5.5s.224.5.5.5h1c.276 0 .5-.224.5-.5s-.224-.5-.5-.5zm0-6h-1c-.276 0-.5.224-.5.5s.224.5.5.5h1c.276 0 .5-.224.5-.5s-.224-.5-.5-.5zm3.5-6.5c0-.276-.224-.5-.5-.5h-11c-.276 0-.5.224-.5.5s.224.5.5.5h10.5v3h-4c-.276 0-.5.224-.5.5s.224.5.5.5h4.5c.276 0 .5-.224.5-.5zm-7 5.998s0 .002 0 .002v8c-.078 2.316-2.096 3.488-5.999 3.5-3.906-.012-5.924-1.184-6.001-3.483v-8.017s.002-.008.002-.013c.062-1.606 1.159-3.47 5.995-3.487 4.868.017 5.95 1.904 6.001 3.484v.014zm-11 3.997c.021.629.11 2.49 5.001 2.505 4.901-.016 4.978-1.887 4.999-2.511v-1.792c-.968.854-2.631 1.295-4.999 1.302-2.37-.007-4.033-.448-5.001-1.302v1.797zm0-3.983v.015c.021.597.11 2.458 5.001 2.473 4.87-.016 4.977-1.864 4.998-2.5-.064-1.648-1.747-2.489-5.001-2.5-2.24.008-4.928.45-4.998 2.512zm10 7.971v-1.786c-.968.854-2.631 1.295-4.999 1.303-2.37-.007-4.033-.448-5.001-1.302v1.802c.021.602.083 2.484 5.001 2.5 4.915-.016 4.978-1.898 4.999-2.517zm10.043-17.043c-.041-.18-.176-.323-.354-.372-.157-.043-3.887-1.068-7.689-1.068s-7.533 1.024-7.689 1.068c-.178.049-.313.192-.354.372-.011.047-.262 1.172-.506 2.994-.037.273.155.525.429.562.277.034.525-.155.562-.429.167-1.243.34-2.166.429-2.611.949-.238 4.061-.956 7.129-.956s6.18.717 7.129.956c.208 1.041.871 4.699.871 9.044s-.663 8.004-.871 9.044c-.899.226-3.738.881-6.641.95-.276.007-.495.236-.488.512.006.272.229.488.5.488h.012c3.625-.085 7.034-1.022 7.178-1.062.178-.049.313-.192.354-.372.01-.043.957-4.315.957-9.56s-.947-9.517-.957-9.56z"/></svg>