<?xml version="1.0" encoding="UTF-8"?>
<svg xmlns="http://www.w3.org/2000/svg" id="Layer_1" data-name="Layer 1" viewBox="0 0 24 24">
  <path d="M21.928,4.5c-.053-.168-.19-.297-.362-.337-.022-.005-1.095-.255-2.766-.511V1.5c0-.276-.224-.5-.5-.5s-.5,.224-.5,.5V3.508c-1.643-.219-3.677-.408-5.8-.408s-4.155,.19-5.8,.409V1.5c0-.276-.224-.5-.5-.5s-.5,.224-.5,.5V3.652c-1.669,.256-2.743,.506-2.765,.511-.172,.041-.311,.17-.363,.339-.044,.142-1.072,3.521-1.072,8.356,0,4.869,1.025,8.572,1.068,8.728,.049,.175,.189,.31,.367,.352,.045,.01,4.56,1.063,9.565,1.063s9.52-1.053,9.564-1.063c.178-.042,.318-.177,.367-.353,.044-.157,1.068-3.898,1.068-8.726,0-4.876-1.029-8.218-1.072-8.357ZM2.95,5.074c1.055-.225,4.887-.974,9.05-.974s7.998,.749,9.051,.974c.144,.532,.456,1.808,.684,3.594-1.496-.421-5.344-1.368-9.734-1.368s-8.233,.946-9.732,1.367c.227-1.778,.539-3.059,.682-3.594Zm18.092,15.954c-1.066,.227-4.889,.972-9.042,.972s-7.979-.746-9.043-.972c-.236-.955-.957-4.194-.957-8.17,0-1.124,.059-2.17,.148-3.113,1.007-.299,5.174-1.445,9.852-1.445s8.851,1.147,9.853,1.445c.088,.941,.147,1.987,.147,3.113,0,3.938-.722,7.207-.958,8.17Z"/>
  <path d="M15.908,12.375c-.263-.071-.539,.089-.61,.356-.004,.015-.391,1.446-1.384,2.59-.946,1.089-2.231,1.877-2.714,2.152-.296-.129-.893-.435-1.474-.992-.724-.693-1.047-1.404-1.05-1.411-.113-.251-.408-.365-.66-.253-.252,.112-.366,.406-.255,.658,.016,.036,.399,.892,1.273,1.729,.987,.945,2.003,1.282,2.045,1.296,.051,.016,.103,.024,.155,.024,.079,0,.157-.019,.229-.055,.077-.04,1.894-.984,3.206-2.493,1.15-1.326,1.578-2.925,1.596-2.992,.07-.267-.09-.54-.356-.61Z"/>
</svg>
