<?xml version="1.0" encoding="UTF-8"?>
<svg xmlns="http://www.w3.org/2000/svg" id="Layer_1" data-name="Layer 1" viewBox="0 0 24 24">
  <path d="M21.928,4.5c-.053-.168-.19-.297-.362-.337-.022-.005-1.095-.255-2.766-.511V1.5c0-.276-.224-.5-.5-.5s-.5,.224-.5,.5V3.508c-1.643-.219-3.677-.408-5.8-.408s-4.155,.19-5.8,.409V1.5c0-.276-.224-.5-.5-.5s-.5,.224-.5,.5V3.652c-1.669,.256-2.743,.506-2.765,.511-.173,.041-.311,.17-.363,.339-.044,.142-1.072,3.521-1.072,8.356,0,4.869,1.024,8.572,1.068,8.728,.049,.175,.189,.31,.366,.352,.045,.01,4.562,1.063,9.565,1.063s9.52-1.053,9.564-1.063c.178-.042,.318-.177,.367-.353,.044-.157,1.068-3.898,1.068-8.726,0-4.876-1.029-8.218-1.072-8.357Zm-.886,16.527c-1.066,.227-4.889,.972-9.042,.972s-7.979-.746-9.043-.972c-.236-.956-.957-4.194-.957-8.17,0-1.124,.059-2.171,.148-3.114,.608-.181,2.363-.67,4.674-1.027,.273-.042,.46-.297,.418-.57s-.303-.455-.57-.418c-1.996,.308-3.567,.706-4.402,.94,.228-1.779,.539-3.06,.682-3.594,1.055-.225,4.887-.974,9.05-.974s7.998,.749,9.051,.974c.144,.532,.456,1.809,.684,3.595-.835-.234-2.407-.633-4.409-.941-.267-.042-.528,.146-.57,.418-.042,.273,.146,.528,.418,.57,2.317,.357,4.075,.848,4.681,1.029,.089,.941,.147,1.987,.147,3.113,0,3.938-.722,7.207-.958,8.17Z"/>
  <path d="M12,14.608c.276,0,.5-.224,.5-.5v-6.031c0-.276-.224-.5-.5-.5s-.5,.224-.5,.5v6.031c0,.276,.224,.5,.5,.5Z"/>
  <circle cx="12" cy="17.64" r=".75"/>
</svg>
