<svg id="Layer_1" viewBox="0 0 24 24" xmlns="http://www.w3.org/2000/svg"><path d="m12 8c5.495 0 9.162.911 9.765 1.072.136 1.166.235 2.499.235 3.928l-.004.491c-.005.276.215.504.491.509.263-.009.504-.215.509-.491l.004-.509c0-4.765-1.031-8.428-1.075-8.582-.047-.166-.176-.295-.341-.343-.074-.022-.989-.281-2.584-.54v-2.035c0-.276-.224-.5-.5-.5s-.5.224-.5.5v1.889c-1.565-.211-3.591-.389-6-.389s-4.435.178-6 .389v-1.889c0-.276-.224-.5-.5-.5s-.5.224-.5.5v2.036c-1.595.259-2.51.518-2.584.54-.165.048-.294.177-.341.343-.044.153-1.075 3.816-1.075 8.582s1.031 8.428 1.075 8.582c.047.166.176.295.341.343.109.032 2.719.777 7.058 1.009.273.014.512-.197.525-.473.015-.276-.196-.511-.473-.526-3.436-.183-5.795-.708-6.562-.899-.234-.93-.965-4.139-.965-8.035 0-1.429.099-2.762.235-3.928.603-.161 4.27-1.072 9.765-1.072zm-9.035-3.035c.938-.234 4.259-.965 9.035-.965s8.097.731 9.035.965c.121.479.372 1.569.588 3.039-1.247-.301-4.686-1.004-9.623-1.004s-8.376.703-9.623 1.004c.216-1.47.468-2.56.588-3.039zm15.969 9.202c.266-.277.557-.644.839-1.139.296-.52.139-1.185-.357-1.515-.127-.086-.819-.513-1.916-.513s-1.789.427-1.914.512c-.498.331-.655.997-.359 1.516.283.495.574.862.839 1.139-1.424.342-2.584 1.206-3.339 2.521-.684 1.189-.894 2.499-.593 3.689.469 1.862 2.023 2.622 5.366 2.622s4.897-.76 5.366-2.622c.301-1.191.091-2.501-.593-3.69-.756-1.315-1.915-2.18-3.339-2.521zm-1.492-.179c-.007-.003-.689-.305-1.347-1.456-.037-.064-.018-.146.045-.188.006-.003.521-.343 1.359-.343s1.354.34 1.361.345c.061.041.08.123.043.187-.657 1.151-1.34 1.453-1.351 1.458-.031.017-.079.007-.111-.001zm4.455 6.146c-.229.903-.774 1.866-4.397 1.866s-4.169-.963-4.397-1.867c-.236-.938-.062-1.984.491-2.947.822-1.43 2.173-2.187 3.906-2.187s3.084.756 3.906 2.187c.554.963.728 2.009.491 2.947z"/></svg>