<?xml version="1.0" encoding="UTF-8"?>
<svg xmlns="http://www.w3.org/2000/svg" id="Layer_1" data-name="Layer 1" viewBox="0 0 24 24">
  <path d="M11.349,8.146c5.044,0,9.489,1.132,9.533,1.144,.158,.041,.329,.001,.453-.107,.124-.108,.188-.271,.169-.434-.325-2.83-.939-4.684-.966-4.761-.054-.161-.186-.283-.35-.325-.072-.019-.87-.221-2.137-.443V1.5c0-.276-.224-.5-.5-.5s-.5,.224-.5,.5v1.557c-1.551-.233-3.55-.443-5.703-.443s-4.15,.211-5.702,.444V1.5c0-.276-.224-.5-.5-.5s-.5,.224-.5,.5v1.72c-1.266,.222-2.065,.423-2.138,.442-.165,.042-.297,.166-.351,.327-.047,.143-1.158,3.547-1.158,8.104,0,4.595,1.111,7.964,1.159,8.105,.054,.161,.186,.283,.35,.326,.094,.024,2.337,.594,5.451,.885,.017,.001,.032,.002,.048,.002,.255,0,.473-.194,.497-.454,.025-.275-.177-.519-.451-.544-2.424-.226-4.343-.635-5.027-.793-.254-.867-1.026-3.805-1.026-7.526,0-1.03,.061-2.004,.153-2.892,1.049-.243,4.888-1.055,9.195-1.055ZM3.027,4.566c.974-.224,4.437-.953,8.321-.953s7.352,.729,8.322,.953c.155,.528,.502,1.824,.749,3.588-1.475-.326-5.045-1.008-9.071-1.008-4.06,0-7.634,.684-9.066,1,.248-1.756,.592-3.05,.745-3.579Z"/>
  <path d="M22.237,12.959c-.982-.986-2.704-.981-3.677-.005l-5.072,4.938c-.821,.822-1.301,1.914-1.352,3.076l-.065,1.511c-.006,.14,.048,.276,.146,.375,.094,.094,.222,.146,.354,.146,.007,0,.015,0,.021,0l1.507-.066h0c1.159-.051,2.249-.532,3.064-1.349l5.072-4.938c1.015-1.017,1.015-2.671,0-3.688Zm-.702,2.977l-5.072,4.938c-.644,.645-1.498,1.021-2.406,1.062l-.962,.042,.042-.966c.039-.911,.415-1.768,1.054-2.407l5.072-4.938c.303-.303,.706-.47,1.134-.47s.831,.167,1.133,.47c.626,.627,.626,1.648,.006,2.271Z"/>
</svg>
