<svg id="Layer_1" viewBox="0 0 24 24" xmlns="http://www.w3.org/2000/svg" data-name="Layer 1"><path d="m21.925 4.418c-.047-.166-.176-.295-.341-.343-.074-.022-.989-.281-2.584-.54v-2.035c0-.276-.224-.5-.5-.5s-.5.224-.5.5v1.889c-1.565-.211-3.591-.389-6-.389s-4.435.178-6 .389v-1.889c0-.276-.224-.5-.5-.5s-.5.224-.5.5v2.036c-1.595.259-2.51.518-2.584.54-.165.048-.294.177-.341.343-.044.153-1.075 3.816-1.075 8.582s1.031 8.428 1.075 8.582c.047.166.176.295.341.343.151.044 3.774 1.076 9.584 1.076s9.433-1.032 9.584-1.076c.165-.048.294-.177.341-.343.044-.153 1.075-3.816 1.075-8.582s-1.031-8.428-1.075-8.582zm-18.96.547c.938-.234 4.259-.965 9.035-.965s8.097.731 9.035.965c.121.479.372 1.569.588 3.039-1.247-.301-4.686-1.004-9.623-1.004s-8.376.703-9.623 1.004c.216-1.47.468-2.56.588-3.039zm18.07 16.07c-.938.234-4.259.965-9.035.965s-8.097-.731-9.035-.965c-.234-.93-.965-4.139-.965-8.035 0-1.429.099-2.762.235-3.928.603-.161 4.27-1.072 9.765-1.072s9.162.911 9.765 1.072c.136 1.166.235 2.499.235 3.928 0 3.896-.73 7.104-.965 8.035zm-7.035-10.035c-.797 0-1.535.418-2 1.04-.465-.622-1.203-1.04-2-1.04-1.379 0-2.5 1.193-2.5 2.66 0 3.604 4.097 5.75 4.271 5.84.143.073.314.073.457 0 .175-.09 4.271-2.237 4.271-5.84 0-1.467-1.121-2.66-2.5-2.66zm-2 7.481c-.812-.481-3.5-2.27-3.5-4.821 0-.916.673-1.66 1.5-1.66.845 0 1.5.806 1.5 1.5 0 .276.224.5.5.5s.5-.224.5-.5c0-.694.655-1.5 1.5-1.5.827 0 1.5.745 1.5 1.66 0 2.552-2.688 4.34-3.5 4.821z"/></svg>