<svg id="Layer_1" viewBox="0 0 24 24" xmlns="http://www.w3.org/2000/svg"><path d="m22.854 22.146-3.153-3.153c1.033-1.077 1.799-2.062 2.18-2.582.109.19.172.311.174.316.126.249.432.342.673.218.245-.125.344-.426.218-.672-.036-.07-.895-1.742-2.186-3.033s-2.962-2.15-3.033-2.186c-.243-.125-.547-.029-.672.218-.125.246-.027.547.218.672.004.002.126.066.316.174-.578.424-1.73 1.315-2.942 2.527-1.213 1.212-2.104 2.364-2.527 2.942-.109-.19-.172-.311-.174-.316-.125-.247-.426-.342-.673-.218-.245.125-.344.426-.218.672.036.07.895 1.742 2.186 3.033s2.962 2.15 3.033 2.186c.24.124.547.03.672-.218.125-.246.027-.547-.218-.672-.004-.002-.126-.066-.316-.174.52-.382 1.505-1.147 2.582-2.18l3.153 3.153c.195.195.512.195.707 0s.195-.512 0-.707zm-2.801-8.199c.494.494.919 1.056 1.254 1.549-.049.071-.258.368-.601.809-.349-.51-.812-1.118-1.352-1.659-.541-.54-1.149-1.003-1.659-1.352.44-.342.736-.551.809-.601.492.334 1.055.759 1.549 1.254zm-4.699 1.407c.535-.535 1.059-1.002 1.528-1.398.511.333 1.183.817 1.765 1.398.581.581 1.064 1.254 1.398 1.765-.396.469-.863.993-1.398 1.528s-1.059 1.002-1.528 1.398c-.512-.334-1.185-.818-1.765-1.398-.581-.581-1.064-1.254-1.398-1.765.396-.469.863-.993 1.398-1.528zm-1.407 4.699c-.494-.494-.919-1.056-1.254-1.549.049-.071.258-.368.601-.809.349.51.812 1.118 1.352 1.659.539.54 1.148 1.002 1.659 1.352-.44.342-.736.551-.809.601-.492-.334-1.055-.759-1.549-1.254zm-2.442 1.945c-4.509-.047-7.635-.737-8.54-.963-.234-.93-.965-4.139-.965-8.035 0-1.429.099-2.762.235-3.928.603-.161 4.27-1.072 9.765-1.072s9.164.912 9.765 1.072c.088.755.162 1.574.201 2.45.012.276.217.501.521.477.276-.013.489-.246.477-.522-.182-4.018-1.005-6.937-1.04-7.059-.047-.166-.176-.295-.341-.343-.074-.022-.989-.281-2.584-.54v-2.035c0-.276-.224-.5-.5-.5s-.5.224-.5.5v1.889c-1.565-.211-3.591-.389-6-.389s-4.435.178-6 .389v-1.889c0-.276-.224-.5-.5-.5s-.5.224-.5.5v2.036c-1.595.259-2.51.518-2.584.54-.165.048-.294.177-.341.343-.044.153-1.075 3.816-1.075 8.582s1.031 8.428 1.075 8.582c.047.166.176.295.341.343.144.042 3.561 1.015 9.079 1.073.275.003.502-.218.505-.495.003-.276-.219-.502-.495-.505zm-8.54-17.033c.938-.234 4.259-.965 9.035-.965s8.097.731 9.035.965c.121.479.373 1.571.589 3.039-1.247-.301-4.686-1.004-9.624-1.004s-8.376.703-9.623 1.004c.216-1.47.468-2.56.588-3.039z"/></svg>