<svg id="Layer_1" viewBox="0 0 24 24" xmlns="http://www.w3.org/2000/svg" data-name="Layer 1"><path d="m22.97 14.352c.018-.44.03-.889.03-1.352 0-4.766-1.031-8.428-1.075-8.582-.047-.165-.176-.295-.342-.343-.074-.022-.989-.281-2.583-.54v-2.035c0-.276-.224-.5-.5-.5s-.5.224-.5.5v1.889c-1.565-.211-3.591-.389-6-.389s-4.435.178-6 .389v-1.889c0-.276-.224-.5-.5-.5s-.5.224-.5.5v2.036c-1.595.259-2.509.518-2.583.54-.166.048-.294.178-.342.343-.043.154-1.075 3.816-1.075 8.582-.173 2.758 1.031 8.925 1.075 8.582.047.165.176.295.342.343.151.044 3.773 1.075 9.583 1.075s9.432-1.031 9.583-1.075c.166-.048.294-.178.342-.343.012.024.961-3.665 1.045-7.23zm-1.347 3.648h-3.623v-3h3.931c-.068 1.105-.179 2.124-.308 3zm-19.554-3h3.931v3h-3.623c-.129-.876-.24-1.895-.308-3zm-.069-2c0-.695.029-1.357.069-2h3.931v3h-3.978c-.01-.33-.022-.658-.022-1zm9.5-2v3h-4.5v-3zm5.5 0v3h-4.5v-3zm-10 4h4.5v3h-4.5zm4.5 4v2.991c-1.717-.019-3.232-.126-4.5-.27v-2.721zm1 0h4.5v2.721c-1.268.144-2.783.251-4.5.27zm0-1v-3h4.5v3zm5.5-4v-3h3.931c.04.643.069 1.305.069 2 0 .342-.012.67-.022 1zm-15.035-9.035c.938-.233 4.258-.965 9.035-.965s8.097.731 9.035.965c.171.676.6 2.564.824 5.035h-19.718c.223-2.471.653-4.359.824-5.035zm-.427 14.035h3.462v2.599c-1.519-.211-2.571-.448-3.035-.563-.091-.362-.258-1.077-.427-2.035zm15.462 2.599v-2.599h3.462c-.169.958-.335 1.673-.427 2.035-.464.116-1.516.353-3.035.563z"/></svg>