<svg id="Layer_1" viewBox="0 0 24 24" xmlns="http://www.w3.org/2000/svg" data-name="Layer 1"><path d="m15.854 11.881-3.146 3.146 3.146 3.146c.195.195.195.512 0 .707s-.512.195-.707 0l-3.146-3.146-3.146 3.146c-.195.195-.512.195-.707 0s-.195-.512 0-.707l3.146-3.146-3.146-3.146c-.195-.195-.195-.512 0-.707s.512-.195.707 0l3.146 3.146 3.146-3.146c.195-.195.512-.195.707 0s.195.512 0 .707zm7.146 1.119c0 4.766-1.031 8.428-1.075 8.582-.047.165-.176.295-.342.343-.151.044-3.773 1.075-9.583 1.075s-9.432-1.031-9.583-1.075c-.166-.048-.294-.178-.342-.343-.043-.154-1.075-3.816-1.075-8.582s1.031-8.428 1.075-8.582c.047-.166.176-.295.342-.343.074-.022.989-.281 2.583-.54v-2.035c0-.276.224-.5.5-.5s.5.224.5.5v1.889c1.565-.211 3.591-.389 6-.389s4.435.178 6 .389v-1.889c0-.276.224-.5.5-.5s.5.224.5.5v2.036c1.595.259 2.509.518 2.583.54.166.048.294.177.342.343.043.153 1.075 3.816 1.075 8.582zm-20.624-4.996c1.247-.301 4.686-1.004 9.624-1.004s8.377.703 9.624 1.004c-.216-1.47-.468-2.56-.589-3.039-.938-.234-4.258-.965-9.035-.965s-8.097.731-9.035.965c-.121.479-.372 1.569-.589 3.039zm19.624 4.996c0-1.429-.099-2.762-.235-3.928-.601-.16-4.268-1.072-9.765-1.072s-9.165.912-9.765 1.072c-.136 1.166-.235 2.499-.235 3.928 0 3.896.73 7.104.965 8.035.938.233 4.258.965 9.035.965s8.097-.731 9.035-.965c.235-.931.965-4.14.965-8.035z"/></svg>