<svg id="Layer_1" viewBox="0 0 24 24" xmlns="http://www.w3.org/2000/svg" data-name="Layer 1"><path d="m21.925 4.418c-.047-.166-.176-.295-.342-.343-.074-.022-.989-.281-2.583-.54v-2.035c0-.276-.224-.5-.5-.5s-.5.224-.5.5v1.889c-1.565-.211-3.591-.389-6-.389s-4.435.178-6 .389v-1.889c0-.276-.224-.5-.5-.5s-.5.224-.5.5v2.036c-1.595.259-2.509.518-2.583.54-.166.048-.294.177-.342.343-.043.153-1.075 3.816-1.075 8.582s1.031 8.428 1.075 8.582c.047.165.176.295.342.343.151.044 3.773 1.075 9.583 1.075s9.432-1.031 9.583-1.075c.166-.048.294-.178.342-.343.043-.154 1.075-3.816 1.075-8.582s-1.031-8.428-1.075-8.582zm-18.96.547c.938-.234 4.258-.965 9.035-.965s8.097.731 9.035.965c.121.479.372 1.569.589 3.039-1.247-.301-4.686-1.004-9.624-1.004s-8.377.703-9.624 1.004c.216-1.47.468-2.56.589-3.039zm18.07 16.07c-.938.233-4.258.965-9.035.965-2.807 0-5.091-.253-6.705-.509.874-1.119 2.237-2.582 2.861-3.191 3.366-3.283 6.333-4.675 8.288-5.264.838.458 3.019 1.761 5.303 4.043-.234 1.935-.567 3.381-.712 3.955zm.841-5.211c-2.35-2.208-4.504-3.431-5.144-3.767-.114-.06-.246-.073-.369-.038-2.06.585-5.276 2.027-8.905 5.566-.725.707-2.409 2.527-3.27 3.715-.558-.108-.977-.204-1.223-.265-.235-.931-.965-4.14-.965-8.035 0-1.429.099-2.763.235-3.928.6-.16 4.257-1.072 9.765-1.072s9.164.912 9.765 1.072c.136 1.166.235 2.499.235 3.928 0 .996-.048 1.945-.123 2.824zm-14.876-5.824c-1.346 0-2 .654-2 2s.654 2 2 2 2-.654 2-2-.654-2-2-2zm0 3c-.794 0-1-.206-1-1s.206-1 1-1 1 .206 1 1-.206 1-1 1z"/></svg>