<svg id="Layer_1" viewBox="0 0 24 24" xmlns="http://www.w3.org/2000/svg" data-name="Layer 1"><path d="m11.1 13.46c-.1-.02-2.35-.46-4.6-.46s-4.5.44-4.6.46c-.19.04-.34.18-.39.37-.02.09-.51 2.13-.51 4.17s.49 4.08.51 4.17c.05.19.2.33.39.37.1.02 2.35.46 4.6.46s4.5-.44 4.6-.46c.19-.04.34-.18.39-.37.02-.09.51-2.13.51-4.17s-.49-4.08-.51-4.17c-.05-.19-.2-.33-.39-.37zm-4.6.54c1.67 0 3.39.26 4.08.38.07.34.18.93.27 1.62h-8.71c.09-.69.2-1.28.27-1.62.69-.12 2.41-.38 4.08-.38zm4.08 7.62c-.69.12-2.41.38-4.08.38s-3.39-.26-4.08-.38c-.13-.64-.42-2.15-.42-3.62 0-.33.02-.67.04-1h8.92c.02.33.04.67.04 1 0 1.46-.28 2.98-.42 3.62zm11.52-11.08c.19-.04.34-.18.39-.37.02-.09.51-2.13.51-4.17s-.49-4.08-.51-4.17c-.05-.19-.2-.33-.39-.37-.1-.02-2.35-.46-4.6-.46s-4.5.44-4.6.46c-.19.04-.34.18-.39.37-.02.09-.51 2.13-.51 4.17s.49 4.08.51 4.17c.05.19.2.33.39.37.1.02 2.35.46 4.6.46s4.5-.44 4.6-.46zm-4.6-8.54c1.67 0 3.39.26 4.08.38.07.34.18.93.27 1.62h-8.71c.09-.69.2-1.28.27-1.62.69-.12 2.41-.38 4.08-.38zm-4.5 4c0-.33.02-.67.04-1h8.92c.02.33.04.67.04 1 0 1.46-.28 2.98-.42 3.62-.69.12-2.41.38-4.08.38s-3.39-.26-4.08-.38c-.13-.64-.42-2.15-.42-3.62zm-11.9 1.8c-.17-.22-.12-.53.1-.7s.53-.12.7.1c.61.82 1.33 1.55 2.1 2.22v-1.42c0-2.51.39-5.07.41-5.18.03-.18.15-.33.32-.39.05-.02 1.22-.43 4.27-.43h.5c.28 0 .5.22.5.5s-.22.5-.5.5h-.5c-2.04 0-3.17.19-3.65.3-.1.77-.35 2.78-.35 4.7v1.42c.77-.67 1.49-1.4 2.1-2.22.17-.22.48-.27.7-.1s.27.48.1.7c-.88 1.18-1.93 2.22-3.1 3.1-.18.13-.42.13-.6 0-1.17-.88-2.22-1.92-3.1-3.1zm21.8 8.4c.17.22.12.53-.1.7-.22.16-.53.12-.7-.1-.61-.82-1.33-1.55-2.1-2.22v1.42c0 2.51-.39 5.07-.41 5.18-.03.21-.19.38-.4.42-.08.01-1.94.37-4.69.41-.27 0-.5-.22-.5-.49 0-.28.22-.5.49-.51 1.98-.03 3.51-.23 4.16-.33.11-.79.34-2.77.34-4.67v-1.42c-.77.67-1.49 1.4-2.1 2.22-.17.22-.48.27-.7.1s-.27-.48-.1-.7c.88-1.18 1.93-2.22 3.1-3.1.18-.13.42-.13.6 0 1.17.88 2.22 1.92 3.1 3.1z"/></svg>