<?xml version="1.0" encoding="UTF-8"?>
<svg xmlns="http://www.w3.org/2000/svg" id="Layer_1" data-name="Layer 1" viewBox="0 0 24 24">
  <path d="M22.185,5.629c-.25-1.006-1.05-1.772-2.038-1.953-.497-.091-1-.173-1.506-.247V1.973c0-.276-.224-.5-.5-.5s-.5,.224-.5,.5v1.322c-3.703-.453-7.579-.453-11.282,0V1.973c0-.276-.224-.5-.5-.5s-.5,.224-.5,.5v1.456c-.506,.074-1.008,.156-1.506,.247-.987,.181-1.787,.947-2.038,1.953-1.094,4.387-1.094,9.836,0,14.223,.25,1.006,1.05,1.772,2.037,1.953,2.627,.481,5.387,.722,8.147,.722s5.521-.241,8.147-.722c.987-.181,1.787-.947,2.038-1.953,1.094-4.387,1.094-9.836,0-14.223Zm-19.398,.241c.156-.625,.645-1.101,1.247-1.211,2.569-.47,5.268-.706,7.967-.706s5.398,.235,7.967,.706c.602,.11,1.091,.585,1.247,1.211,.145,.579,.268,1.183,.373,1.802H2.413c.104-.62,.228-1.223,.373-1.803Zm18.428,13.74c-.156,.625-.645,1.101-1.247,1.211h0c-5.137,.94-10.796,.94-15.934,0-.602-.11-1.091-.585-1.247-1.211-.82-3.286-.994-7.329-.522-10.937H21.736c.472,3.608,.298,7.65-.522,10.937Z"/>
  <circle cx="7.484" cy="13.051" r=".75"/>
  <circle cx="11.999" cy="13.051" r=".75"/>
  <circle cx="16.525" cy="13.051" r=".75"/>
  <circle cx="7.484" cy="16.97" r=".75"/>
  <circle cx="11.999" cy="16.97" r=".75"/>
  <circle cx="16.525" cy="16.97" r=".75"/>
</svg>
