<svg id="Layer_1" viewBox="0 0 24 24" xmlns="http://www.w3.org/2000/svg"><path d="m17.5 12c3.855 0 5.5-1.645 5.5-5.5s-1.645-5.5-5.5-5.5-5.5 1.645-5.5 5.5 1.645 5.5 5.5 5.5zm0-10c3.28 0 4.5 1.22 4.5 4.5s-1.22 4.5-4.5 4.5-4.5-1.22-4.5-4.5 1.22-4.5 4.5-4.5zm-.354 4.854c-.094-.094-.146-.221-.146-.354v-2c0-.276.224-.5.5-.5s.5.224.5.5v1.793l.854.854c.195.195.195.512 0 .707s-.512.195-.707 0l-1-1zm1.354 6.146c-1.225 0-2.37.483-3.227 1.363l-.502.512c-.732-.29-2.227-.937-3.468-2.178s-1.889-2.735-2.178-3.468l.513-.503c.878-.855 1.361-2 1.361-3.225 0-2.481-2.019-4.5-4.5-4.5-2.283-.001-5.499 1.946-5.499 6.274 0 2.333 2.216 7.149 5.396 10.329 3.181 3.18 7.996 5.396 10.328 5.396 4.328 0 6.275-3.216 6.275-5.5 0-2.481-2.019-4.5-4.5-4.5zm-1.775 9c-1.886 0-6.459-1.941-9.621-5.104-3.162-3.162-5.104-7.735-5.104-9.622 0-3.843 2.76-5.275 4.5-5.275 1.93 0 3.5 1.57 3.5 3.5 0 .953-.376 1.844-1.058 2.508l-.753.739c-.183.172-.18.437-.072.649.239.617.966 2.495 2.479 4.008 1.513 1.514 3.391 2.24 4.008 2.479.212.107.477.11.649-.072l.737-.751c.665-.683 1.557-1.06 2.509-1.06 1.93 0 3.5 1.57 3.5 3.5 0 1.74-1.433 4.5-5.275 4.5z"/></svg>