<svg id="Layer_1" viewBox="0 0 24 24" xmlns="http://www.w3.org/2000/svg" data-name="Layer 1"><path d="m23 14c-.021-8.894-2.485-12.129-2.591-12.251-.052-.066-.121-.118-.198-.15-.06-.025-1.469-.599-4.011-.599s-3.952.574-4.01.599c-.1.041-.183.113-.238.206-.034.058-.804 1.36-1.339 3.217-1.854.058-3.386.228-4.613.428v-.95c0-.276-.224-.5-.5-.5s-.5.224-.5.5v1.13c-1.697.342-2.575.701-2.644.729-.127.053-.227.156-.275.286-.03 0-1.105 3.16-1.082 7.456 0 4.519 1.038 7.337 1.082 7.456.052.138.162.246.301.295.132.047 3.304 1.149 9.618 1.149s9.485-1.102 9.618-1.149c.139-.049.248-.158.3-.295.032-.015 1.122-3.181 1.082-7.556zm-10.274-11.532c.407-.134 1.607-.468 3.474-.468 1.908 0 3.12.349 3.5.477.177.269.646 1.061 1.113 2.523h-8.813c-.113 0-.225 0-.336.001.387-1.235.87-2.18 1.062-2.534zm-9.779 4.737c.783-.276 3.808-1.205 9.053-1.205h9.103c.455 1.746.845 4.204.889 7.5h-5.021c-.147-3.132-1.645-4.5-4.971-4.5s-4.824 1.368-4.971 4.5h-5.015c.073-3.315.715-5.616.933-6.295zm13.053 6.795c0 2.953-1.047 4-4 4s-4-1.047-4-4 1.047-4 4-4 4 1.047 4 4zm5.058 6.979c-.819.242-3.862 1.021-9.058 1.021s-8.238-.779-9.058-1.021c-.227-.712-.883-3.081-.933-6.479h5.02c.147 3.132 1.645 4.5 4.971 4.5s4.824-1.368 4.971-4.5h5.02c-.05 3.398-.706 5.767-.933 6.479z"/></svg>