<svg id="Layer_1" viewBox="0 0 24 24" xmlns="http://www.w3.org/2000/svg" data-name="Layer 1"><path d="m17.572 16.225c.024-.095.579-2.338.579-4.225s-.555-4.13-.579-4.225c-.047-.188-.195-.333-.383-.376-.053-.012-.79-.173-1.911-.314-.43-1.211-.766-1.777-.781-1.801-.075-.124-.198-.21-.34-.237-.047-.009-1.159-.224-2.156-.224s-2.109.215-2.156.224c-.142.028-.265.114-.34.237-.015.024-.351.589-.781 1.801-1.121.141-1.858.302-1.911.314-.188.043-.337.188-.383.376-.024.095-.579 2.338-.579 4.225s.555 4.13.579 4.225c.047.188.195.333.383.376.095.021 2.344.525 5.188.525s5.093-.504 5.188-.525c.188-.043.337-.188.383-.376zm-7.296-10.212c.363-.06 1.084-.163 1.724-.163s1.361.104 1.724.163c.092.183.24.501.416.954-.652-.054-1.371-.093-2.141-.093s-1.489.038-2.141.093c.176-.454.324-.772.416-.954zm6.374 9.651c-.704.134-2.522.436-4.65.436s-3.946-.302-4.65-.436c-.149-.671-.476-2.299-.476-3.664s.327-2.993.476-3.664c.704-.134 2.522-.436 4.65-.436s3.946.302 4.65.436c.149.671.476 2.299.476 3.664s-.327 2.993-.476 3.664zm-4.65-6.227c-1.748 0-2.563.814-2.563 2.563s.814 2.563 2.563 2.563 2.563-.814 2.563-2.563-.814-2.563-2.563-2.563zm0 4.101c-1.178 0-1.538-.359-1.538-1.538s.359-1.538 1.538-1.538 1.538.359 1.538 1.538-.359 1.538-1.538 1.538zm-10.997-6.209c.318-2.876.804-5.106.809-5.128.043-.195.195-.348.39-.39.023-.005 2.252-.491 5.128-.809.29-.025.535.173.566.453.031.282-.172.535-.453.566-2.189.242-3.989.581-4.698.724-.142.709-.482 2.511-.724 4.698-.03.282-.289.485-.566.453-.281-.031-.484-.284-.453-.566zm6.894 15.213c-.03.282-.289.485-.566.453-2.876-.318-5.106-.804-5.128-.809-.195-.043-.348-.195-.39-.39-.005-.023-.491-2.251-.809-5.128-.031-.282.172-.535.453-.566.295-.026.535.173.566.453.242 2.186.581 3.988.724 4.697.709.143 2.511.483 4.698.724.281.031.484.284.453.566zm15.1-5.874c-.318 2.876-.804 5.105-.809 5.128-.043.195-.195.347-.39.39-.023.005-2.252.491-5.128.809-.277.032-.536-.171-.566-.453-.031-.282.172-.535.453-.566 2.186-.242 3.988-.582 4.698-.724.143-.709.482-2.511.724-4.697.032-.28.281-.477.566-.453.281.031.484.284.453.566zm-6.894-15.213c.031-.28.279-.476.566-.453 2.876.318 5.106.804 5.128.809.195.043.348.195.39.39.005.023.491 2.252.809 5.128.031.282-.172.535-.453.566-.277.032-.536-.171-.566-.453-.242-2.189-.581-3.989-.724-4.698-.709-.142-2.511-.482-4.698-.724-.281-.031-.484-.284-.453-.566z"/></svg>