<svg id="Layer_1" viewBox="0 0 24 24" xmlns="http://www.w3.org/2000/svg" data-name="Layer 1"><path d="m22.786 12.09c-.02-.014-.474-.324-1.291-.798.318-.939.482-1.661.493-1.709.044-.197-.035-.402-.2-.519-.111-.077-2.766-1.935-7.691-4.439-4.926-2.506-7.985-3.555-8.113-3.599-.193-.064-.408-.006-.541.149-.052.062-1.292 1.522-2.141 3.225s-1.272 3.579-1.29 3.658c-.044.197.035.401.2.518.106.074 2.544 1.777 7.064 4.116-.636 3.278-2.638 4.696-6.789 4.797-.063-2.09-.48-4.012-.499-4.098-.06-.27-.325-.439-.597-.38-.27.06-.439.327-.38.597.005.021.488 2.226.488 4.392s-.483 4.37-.488 4.392c-.06.27.11.537.38.597.263.06.538-.108.597-.38.019-.087.439-2.021.5-4.12 4.505-.111 6.918-1.771 7.712-5.324 4.75 2.395 7.689 3.407 7.815 3.45.192.065.408.008.541-.149.031-.036.487-.575 1.027-1.36.863.372 1.38.551 1.403.559.189.065.404.007.537-.146.022-.026.553-.644.914-1.362.362-.719.544-1.512.551-1.545.045-.198-.034-.404-.201-.521zm-4.774 3.461c-.915-.337-3.701-1.415-7.655-3.426-3.963-2.016-6.481-3.638-7.288-4.176.156-.598.535-1.913 1.128-3.103.59-1.183 1.407-2.271 1.792-2.757.915.337 3.701 1.415 7.655 3.426 3.962 2.016 6.48 3.638 7.287 4.176-.156.598-.536 1.915-1.127 3.103-.59 1.183-1.408 2.271-1.792 2.757zm3.531-1.846c-.174.347-.401.674-.565.892-.199-.075-.486-.189-.846-.342.196-.323.39-.661.567-1.015.165-.331.309-.666.442-.996.327.193.608.363.784.476-.078.262-.205.64-.381.986z"/></svg>