<?xml version="1.0" encoding="UTF-8"?>
<svg xmlns="http://www.w3.org/2000/svg" id="Layer_1" data-name="Layer 1" viewBox="0 0 24 24">
  <path d="M21.758,6.403c-.062-.156-.195-.271-.358-.306-.02-.005-1.001-.217-2.555-.441-.493-1.999-1.665-3.338-1.715-3.396-.053-.06-.12-.107-.195-.136-.07-.026-1.752-.655-4.934-.655s-4.862,.628-4.933,.655c-.076,.029-.145,.076-.198,.138-.052,.059-1.218,1.408-1.711,3.394-1.555,.223-2.536,.436-2.557,.44-.163,.036-.298,.151-.358,.308-.051,.131-1.242,3.255-1.242,7.433,0,4.213,1.191,7.304,1.242,7.434,.062,.155,.195,.27,.358,.306,.043,.01,4.399,.955,9.399,.955s9.355-.945,9.399-.955c.163-.036,.298-.151,.358-.308,.051-.131,1.242-3.254,1.242-7.432,0-4.213-1.191-7.305-1.242-7.434ZM7.541,3.02c.421-.132,1.947-.55,4.459-.55s4.042,.418,4.46,.551c.232,.292,.914,1.22,1.307,2.493-1.615-.198-3.632-.371-5.767-.371s-4.149,.172-5.765,.371c.395-1.266,1.074-2.198,1.306-2.493Zm13.374,17.636c-1.013,.2-4.735,.876-8.915,.876s-7.906-.677-8.916-.877c-.274-.805-1.084-3.467-1.084-6.817,0-3.325,.811-6.007,1.085-6.819,1.013-.2,4.735-.876,8.915-.876s7.906,.676,8.916,.876c.274,.804,1.084,3.458,1.084,6.819,0,3.324-.811,6.006-1.085,6.818Z"/>
  <path d="M12,9.272c-1.955,0-4.554,.473-4.554,4.564,0,4.045,2.434,4.563,4.554,4.563,1.955,0,4.554-.473,4.554-4.563,0-4.045-2.434-4.564-4.554-4.564Zm0,8.128c-2.194,0-3.554-.596-3.554-3.563s1.421-3.564,3.554-3.564c2.194,0,3.554,.596,3.554,3.564s-1.421,3.563-3.554,3.563Z"/>
</svg>
