<?xml version="1.0" encoding="UTF-8"?>
<svg xmlns="http://www.w3.org/2000/svg" id="Layer_1" data-name="Layer 1" viewBox="0 0 24 24">
  <path d="M19.938,4.044c-2.083-2.087-3.941-3.059-5.848-3.06-1.923,0-3.856,1.001-5.911,3.06-4.987,4.996-2.934,8.707-.349,11.42L1.146,22.163c-.195,.195-.195,.512,0,.707,.098,.097,.225,.146,.353,.146s.256-.049,.354-.147l6.685-6.697c1.939,1.846,3.693,2.709,5.489,2.709,1.923,0,3.856-1.001,5.911-3.059,5.21-5.22,2.737-9.036,0-11.777Zm-.708,11.071c-1.857,1.86-3.559,2.765-5.203,2.765-1.624,0-3.257-.879-5.14-2.765-3.675-3.681-3.675-6.684,0-10.365,1.857-1.861,3.559-2.766,5.203-2.766,1.624,0,3.257,.879,5.14,2.766,.092,.093,.182,.185,.27,.276,1.708,2.229-1.051,5.6-2.9,7.453-1.046,1.048-1.688,1.476-2.215,1.476-.629,0-1.35-.606-2.542-1.8-2.254-2.259-2.46-2.629-.325-4.77,1.046-1.048,1.688-1.476,2.215-1.476,.58,0,1.236,.514,2.267,1.528-.286,.428-.925,1.215-1.992,1.668-.254,.108-.373,.401-.265,.656,.109,.254,.402,.372,.656,.265,1.87-.793,2.648-2.386,2.681-2.454,.091-.191,.052-.419-.097-.569-1.224-1.227-2.173-2.095-3.25-2.095-.963,0-1.833,.677-2.923,1.77-2.579,2.584-2.27,3.583,.325,6.182,1.224,1.227,2.174,2.094,3.25,2.094,.963,0,1.833-.677,2.923-1.77,2.337-2.341,3.588-4.473,3.713-6.255,1.731,2.755,1.134,5.255-1.79,8.185Z"/>
</svg>
