<svg id="Layer_1" viewBox="0 0 24 24" xmlns="http://www.w3.org/2000/svg" data-name="Layer 1"><path d="m10.773 8.096c-.104-.074-.232-.106-.359-.088-.135.019-3.332.494-6.123 3.29-2.792 2.796-3.268 5.997-3.286 6.131-.018.127.014.255.088.359 3.269 4.592 9.379 5.221 12.484 5.221 1.082 0 1.8-.076 1.904-.088.231-.026.414-.21.44-.441.045-.405 1.043-9.979-5.148-14.384zm-8.743 9.282c.143-.698.783-3.186 2.968-5.373 2.174-2.177 4.665-2.825 5.364-2.971.947.707 1.698 1.564 2.302 2.495-.681.133-3.1.734-5.249 2.884-2.164 2.165-2.76 4.605-2.887 5.268-.932-.603-1.79-1.355-2.499-2.303zm12.292-2.009c-.316.052-2.195.425-3.861 2.092-1.681 1.682-2.045 3.582-2.092 3.871-.996-.265-2.006-.632-2.964-1.137.194-.274.321-2.649 2.718-5.075 2.408-2.385 4.811-2.539 5.062-2.707.505.956.871 1.962 1.138 2.956zm.637 6.592c-.893.054-3.138.115-5.621-.399.003-.012.01-.022.012-.034.003-.018.28-1.82 1.818-3.359s3.34-1.816 3.357-1.819c.01-.001.018-.008.027-.01.518 2.483.461 4.729.406 5.622zm2.894-6.107c-.195.195-.512.195-.707 0s-.195-.512 0-.707c.636-.636 1.938-2.058 3.033-3.96-.463-.298-2.019-1.187-4.178-1.187-.328 0-.642.021-.94.057-.271.028-.523-.163-.556-.437s.162-.523.437-.556c.336-.04.69-.063 1.06-.063h.002c2.34 0 4.024.906 4.652 1.303.426-.858.791-1.792 1.032-2.784-.992-.583-3-1.519-5.682-1.519h-.004c-1.301 0-2.59.225-3.833.666-.259.091-.546-.044-.638-.304-.093-.26.043-.546.304-.639 1.35-.479 2.752-.723 4.167-.724h.004c2.662 0 4.716.851 5.878 1.483.129-.898.152-1.832.012-2.79-.597-.391-2.814-1.693-5.888-1.693h-.007c-3.077.002-5.3 1.309-5.896 1.701-.085.583-.113 1.179-.085 1.774.014.276-.199.51-.475.524-.3.01-.511-.2-.523-.475-.036-.738.007-1.477.129-2.197.021-.126.09-.239.192-.315.108-.082 2.707-2.01 6.658-2.012h.008c3.947 0 6.54 1.922 6.648 2.003.103.077.171.19.192.316 1.009 5.987-3.568 11.107-4.995 12.534z"/></svg>