<svg id="Layer_1" viewBox="0 0 24 24" xmlns="http://www.w3.org/2000/svg" data-name="Layer 1"><path d="m22.972 14.079c-.056-.157-.186-.276-.347-.318-.107-.028-2.364-.593-4.927.028.177-.247.35-.499.513-.76 2.188-3.501 2.761-7.296 2.784-7.456.026-.181-.048-.361-.193-.471-.146-.11-.339-.133-.506-.057-.141.063-3.077 1.4-5.309 4.003-.134-4.853-2.5-7.745-2.604-7.869-.189-.227-.576-.227-.766 0-.104.124-2.471 3.016-2.604 7.869-2.231-2.604-5.168-3.94-5.309-4.003-.167-.076-.359-.053-.506.057-.146.11-.22.291-.193.471.023.16.597 3.955 2.784 7.456.163.261.336.513.513.76-2.563-.621-4.82-.057-4.927-.028-.161.042-.291.161-.347.318s-.028.332.071.465c.076.102 1.899 2.514 4.897 3.693 1.564.615 3.121.766 4.271.766.303 0 .573-.011.812-.026-.488.618-1.372 1.503-2.765 2.06-.257.103-.381.394-.278.65.102.259.4.38.649.279 1.296-.518 2.21-1.284 2.814-1.942v2.477c0 .276.224.5.5.5s.5-.224.5-.5v-2.477c.605.658 1.518 1.423 2.814 1.942.25.101.547-.019.649-.279.103-.256-.021-.547-.278-.65-1.382-.553-2.269-1.44-2.76-2.059.238.015.507.026.807.026 1.148 0 2.706-.15 4.271-.766 2.998-1.179 4.821-3.591 4.897-3.693.1-.133.127-.308.071-.465zm-3.167-7.649c-.31 1.336-1.021 3.796-2.441 6.069-.994 1.614-2.654 3.29-3.978 4.357.627-1.446 1.356-3.603 1.557-6.095 1.443-2.165 3.64-3.63 4.863-4.33zm-7.805-4.066c.674 1.048 2 3.559 2 7.104 0 3.522-1.305 6.595-2 7.983-.696-1.386-2-4.453-2-7.983s1.326-6.057 2-7.104zm-7.805 4.065c1.223.7 3.42 2.166 4.863 4.33.2 2.492.93 4.649 1.557 6.095-1.325-1.068-2.984-2.741-3.978-4.357-1.42-2.272-2.132-4.733-2.441-6.069zm2.167 10.876c-1.818-.715-3.189-1.963-3.905-2.72 1.048-.154 3.271-.17 5.005.649 1.054 1.182 2.152 2.125 2.974 2.761-1.069.014-2.58-.103-4.073-.69zm11.275 0c-1.493.588-3.005.705-4.074.691.822-.636 1.92-1.579 2.974-2.762 1.737-.819 3.957-.801 5.007-.649-.714.756-2.082 2.002-3.907 2.72z"/></svg>