<?xml version="1.0" encoding="UTF-8"?>
<svg xmlns="http://www.w3.org/2000/svg" id="Layer_1" data-name="Layer 1" viewBox="0 0 24 24">
  <path d="M22.711,14.539c-.038-.155-.146-.282-.293-.343-.031-.013-.644-.265-1.419-.218-.319-1.853-.882-3.071-.916-3.141-.05-.108-.138-.194-.246-.243-.067-.03-1.682-.75-4.162-.75s-4.096,.719-4.163,.75c-.109,.049-.197,.136-.247,.245-.033,.071-.594,1.296-.913,3.141-.789-.056-1.416,.203-1.447,.216-.146,.061-.255,.188-.293,.343-.004,.02-.116,.488-.116,1.1,0,.618,.112,1.082,.117,1.102,.049,.201,.218,.351,.423,.377,.022,.003,.291,.036,.61,.069-.029,.273-.065,.725-.065,1.259,0,.869,.096,1.511,.1,1.538,.031,.211,.194,.379,.404,.417,.026,.005,.196,.036,.482,.079v.682c0,1.012,.782,1.835,1.743,1.835s1.743-.823,1.743-1.835v-.331c.516,.026,1.061,.042,1.622,.042s1.106-.016,1.621-.043v.332c0,1.012,.782,1.835,1.743,1.835s1.744-.823,1.744-1.835v-.682c.285-.044,.455-.074,.481-.079,.21-.038,.373-.207,.404-.418,.005-.027,.1-.676,.1-1.538,0-.538-.037-.989-.066-1.261,.308-.032,.563-.064,.584-.066,.205-.026,.374-.176,.423-.377,.005-.02,.117-.484,.117-1.102,0-.612-.112-1.081-.116-1.1Zm-10.614-3.104c.452-.169,1.76-.591,3.578-.591s3.126,.424,3.579,.593c.231,.561,.915,2.419,.959,4.798-1.037-.218-2.7-.49-4.538-.49s-3.501,.272-4.539,.49c.044-2.354,.73-4.233,.961-4.8Zm-2.602,4.204c0-.234,.021-.442,.041-.596,.169-.041,.41-.081,.677-.071-.042,.399-.07,.819-.077,1.255-.198-.016-.419-.038-.609-.059-.018-.144-.032-.327-.032-.529Zm3.558,5.522c0,.46-.333,.835-.743,.835s-.743-.375-.743-.835v-.545c.427,.052,.93,.104,1.486,.149v.397Zm-2.425-1.685c-.023-.25-.048-.614-.048-1.032,0-.436,.027-.815,.051-1.067,.428-.106,1.256-.293,2.301-.436v.81c0,.276,.224,.5,.5,.5s.5-.224,.5-.5v-.924c.551-.05,1.139-.082,1.743-.082s1.191,.032,1.742,.082v.924c0,.276,.224,.5,.5,.5s.5-.224,.5-.5v-.81c1.044,.143,1.873,.33,2.301,.436,.023,.251,.051,.629,.051,1.067,0,.416-.024,.78-.048,1.032-.8,.124-2.814,.396-5.046,.396s-4.249-.272-5.047-.396Zm9.155,1.685c0,.46-.334,.835-.744,.835s-.743-.375-.743-.835v-.397c.557-.044,1.06-.097,1.487-.149v.546Zm2.012-4.993c-.182,.02-.391,.041-.582,.057-.008-.436-.035-.855-.076-1.253,.256-.007,.487,.031,.65,.071,.021,.154,.041,.362,.041,.596,0,.203-.015,.385-.032,.529Z"/>
  <path d="M13.476,5.57c0,.276,.224,.5,.5,.5s.5-.224,.5-.5V2.518c0-.19-.108-.364-.278-.448-.089-.044-2.214-1.07-6.373-1.07S1.541,2.026,1.452,2.069c-.171,.084-.279,.258-.279,.449V22.5c0,.276,.224,.5,.5,.5H6.549c.276,0,.5-.224,.5-.5s-.224-.5-.5-.5H2.173V2.851c.675-.257,2.566-.851,5.651-.851s4.975,.595,5.651,.852v2.718Z"/>
  <path d="M6.718,4.928h-2.136c-.276,0-.5,.224-.5,.5v2.367c0,.276,.224,.5,.5,.5h2.136c.276,0,.5-.224,.5-.5v-2.367c0-.276-.224-.5-.5-.5Zm-.5,2.367h-1.136v-1.367h1.136v1.367Z"/>
  <path d="M8.931,8.295h2.136c.276,0,.5-.224,.5-.5v-2.367c0-.276-.224-.5-.5-.5h-2.136c-.276,0-.5,.224-.5,.5v2.367c0,.276,.224,.5,.5,.5Zm.5-2.367h1.136v1.367h-1.136v-1.367Z"/>
  <path d="M6.718,10.033h-2.136c-.276,0-.5,.224-.5,.5v2.367c0,.276,.224,.5,.5,.5h2.136c.276,0,.5-.224,.5-.5v-2.367c0-.276-.224-.5-.5-.5Zm-.5,2.367h-1.136v-1.367h1.136v1.367Z"/>
  <path d="M6.718,15.137h-2.136c-.276,0-.5,.224-.5,.5v2.367c0,.276,.224,.5,.5,.5h2.136c.276,0,.5-.224,.5-.5v-2.367c0-.276-.224-.5-.5-.5Zm-.5,2.367h-1.136v-1.367h1.136v1.367Z"/>
</svg>
