<?xml version="1.0" encoding="UTF-8"?>
<svg xmlns="http://www.w3.org/2000/svg" id="Layer_1" data-name="Layer 1" viewBox="0 0 24 24">
  <path d="M6.23,11.437H3.142c-.056-.645-.093-1.35-.093-2.098,0-1.182,.092-2.372,.211-3.414h5.175v1.426c0,.276,.224,.5,.5,.5s.5-.224,.5-.5v-1.426h5.707c.144,0,.28-.062,.375-.169,.095-.107,.139-.25,.121-.393-.213-1.694-.471-2.883-.482-2.933-.036-.163-.15-.297-.305-.358-.111-.043-2.75-1.071-5.873-1.071S3.217,2.027,3.106,2.071c-.155,.061-.27,.196-.306,.359-.03,.141-.751,3.497-.751,6.909,0,3.458,.729,5.995,.76,6.102,.047,.163,.175,.291,.338,.339,0,0,.279,.083,.763,.195l-.002,1.45c0,.276,.223,.5,.499,.501h0c.276,0,.5-.223,.5-.499l.003-1.852c0-.237-.165-.441-.396-.49-.351-.074-.629-.143-.815-.191-.103-.414-.299-1.287-.449-2.457h2.98c.276,0,.5-.224,.5-.5s-.224-.5-.5-.5ZM3.723,2.911c.715-.247,2.865-.911,5.255-.911s4.542,.665,5.256,.911c.073,.368,.208,1.092,.337,2.014H3.388c.129-.922,.263-1.645,.335-2.014Z"/>
  <path d="M21.83,16.092c-.031-.194-.173-.352-.363-.403-.017-.005-.085-.023-.199-.051,.002-.016,.003-.033,.003-.05,0-3.653-1.328-6.336-1.385-6.448-.053-.106-.143-.189-.251-.236-.082-.035-2.037-.849-5.055-.849s-4.971,.814-5.053,.849c-.11,.046-.2,.131-.253,.238-.057,.114-1.384,2.825-1.384,6.446,0,.017,0,.033,.003,.05-.113,.028-.181,.046-.198,.051-.19,.052-.333,.209-.363,.404-.005,.031-.122,.773-.122,1.758,0,.994,.117,1.729,.122,1.76,.034,.211,.199,.377,.41,.413,.034,.006,.276,.047,.68,.103v.841c0,1.121,.91,2.032,2.027,2.032s2.027-.912,2.027-2.032v-.46c.666,.034,1.374,.054,2.105,.054s1.439-.021,2.105-.055v.46c0,1.121,.91,2.032,2.027,2.032s2.027-.912,2.027-2.032v-.841c.404-.057,.646-.097,.68-.103,.211-.036,.376-.203,.41-.414,.005-.031,.121-.773,.121-1.759,0-.994-.116-1.728-.121-1.759Zm-11.74-6.333c.524-.187,2.188-.704,4.49-.704s3.97,.518,4.491,.704c.273,.616,1.163,2.834,1.198,5.656-1.252-.253-3.355-.588-5.69-.588s-4.436,.336-5.689,.588c.036-2.799,.926-5.034,1.199-5.656Zm1.385,11.209c0,.569-.461,1.032-1.027,1.032s-1.027-.463-1.027-1.032v-.714c.575,.067,1.273,.136,2.055,.193v.521Zm8.265,0c0,.569-.461,1.032-1.027,1.032s-1.027-.463-1.027-1.032v-.521c.781-.056,1.479-.126,2.055-.193v.714Zm1.146-1.874c-.923,.136-3.473,.468-6.307,.468s-5.386-.333-6.307-.468c-.03-.289-.064-.731-.064-1.244,0-.53,.037-.988,.068-1.277,.521-.123,1.633-.363,3.049-.537v1.192c0,.276,.224,.5,.5,.5s.5-.224,.5-.5v-1.298c.71-.063,1.471-.103,2.254-.103s1.544,.04,2.254,.103v1.298c0,.276,.224,.5,.5,.5s.5-.224,.5-.5v-1.192c1.416,.175,2.528,.414,3.049,.537,.031,.288,.068,.744,.068,1.277,0,.51-.034,.954-.064,1.244Z"/>
</svg>
