<?xml version="1.0" encoding="UTF-8"?>
<svg xmlns="http://www.w3.org/2000/svg" id="Layer_1" data-name="Layer 1" viewBox="0 0 24 24">
  <path d="M20.211,15.907c-.033-.203-.187-.366-.388-.409-.018-.004-.085-.018-.193-.041,.003-.023,.006-.047,.006-.072,0-3.772-1.378-6.178-1.437-6.278-.063-.109-.165-.189-.286-.227-.114-.035-2.843-.854-5.913-.854s-5.798,.82-5.913,.854c-.122,.037-.225,.119-.288,.229-.058,.102-1.434,2.535-1.434,6.276,0,.024,.002,.048,.006,.071-.108,.022-.175,.037-.194,.041-.201,.044-.355,.207-.387,.411-.005,.032-.124,.794-.124,1.807,0,1.021,.119,1.776,.124,1.808,.035,.217,.208,.386,.425,.416,.01,.001,.263,.036,.695,.087v.897c0,1.145,.928,2.077,2.069,2.077s2.069-.932,2.069-2.077v-.527c.951,.057,1.961,.095,2.952,.095s2-.039,2.952-.095v.528c0,1.145,.929,2.077,2.069,2.077s2.069-.932,2.069-2.077v-.898c.431-.051,.684-.085,.694-.087,.218-.03,.391-.199,.426-.417,.005-.032,.124-.794,.124-1.808,0-1.022-.119-1.777-.124-1.808ZM6.576,9.781c.674-.184,2.969-.755,5.424-.755s4.756,.573,5.426,.756c.291,.579,1.186,2.593,1.209,5.486-1.471-.261-4.09-.651-6.635-.651s-5.162,.39-6.635,.651c.024-2.855,.92-4.898,1.211-5.486Zm1.472,11.142c0,.594-.479,1.077-1.069,1.077s-1.069-.483-1.069-1.077v-.786c.604,.063,1.336,.132,2.139,.192v.595Zm10.042,0c0,.594-.479,1.077-1.069,1.077s-1.069-.483-1.069-1.077v-.595c.802-.06,1.534-.129,2.139-.192v.787Zm1.178-1.926c-1.079,.134-4.275,.494-7.269,.494s-6.19-.36-7.269-.494c-.031-.297-.066-.753-.066-1.282,0-.543,.038-1.013,.069-1.311,.555-.109,1.729-.326,3.16-.504v.912c0,.276,.224,.5,.5,.5s.5-.224,.5-.5v-1.025c.994-.1,2.062-.17,3.105-.17s2.111,.07,3.104,.17v1.025c0,.276,.224,.5,.5,.5s.5-.224,.5-.5v-.912c1.432,.178,2.607,.395,3.161,.505,.031,.296,.069,.765,.069,1.311,0,.526-.035,.983-.066,1.282Z"/>
  <path d="M6.123,6.21c.923-.013,1.819-.916,1.819-1.807,0-1.122-1.347-2.328-1.499-2.459-.191-.164-.473-.163-.661,.006-.246,.221-1.474,1.375-1.492,2.452,.028,.933,.895,1.794,1.833,1.807Zm-.003-3.188c.372,.393,.806,.96,.821,1.364-.02,.397-.443,.819-.818,.825-.393-.005-.821-.436-.833-.813,.006-.36,.421-.936,.83-1.375Z"/>
  <path d="M17.891,6.21c.923-.013,1.819-.916,1.819-1.807,0-1.122-1.347-2.328-1.499-2.459-.191-.164-.473-.163-.661,.006-.246,.221-1.474,1.375-1.492,2.452,.028,.933,.895,1.794,1.833,1.807Zm-.003-3.188c.372,.393,.806,.96,.821,1.364-.02,.397-.443,.819-.818,.825-.393-.005-.821-.436-.833-.813,.006-.36,.421-.936,.83-1.375Z"/>
  <path d="M12.007,5.387c.923-.013,1.819-.916,1.819-1.807,0-1.122-1.347-2.328-1.499-2.459-.191-.164-.473-.163-.661,.006-.246,.221-1.474,1.375-1.492,2.452,.028,.933,.895,1.794,1.833,1.807Zm-.003-3.188c.372,.393,.806,.96,.821,1.364-.02,.397-.443,.819-.818,.825-.393-.005-.821-.436-.833-.813,.006-.36,.421-.936,.83-1.375Z"/>
</svg>
