<svg id="Layer_1" viewBox="0 0 24 24" xmlns="http://www.w3.org/2000/svg" data-name="Layer 1"><path d="m10.784 3c3.263 0 5.577.776 6.2 1.01.174.368.585 1.281.874 2.229.081.263.361.415.624.332.265-.081.413-.36.333-.624-.398-1.305-.992-2.502-1.018-2.553-.052-.106-.141-.189-.249-.236s-2.722-1.158-6.765-1.158-6.654 1.111-6.764 1.158c-.116.05-.209.142-.26.258-.075.171-1.815 4.193-1.876 9.022-.215.053-.34.087-.362.094-.189.052-.331.211-.361.405-.007.042-.161 1.051-.161 2.396 0 1.356.154 2.355.161 2.397.031.199.18.36.376.408.045.011.566.136 1.463.287v1.074c0 1.449 1.052 2.5 2.5 2.5 1.472 0 2.5-1.028 2.5-2.5v-1.087c0-.266-.207-.485-.473-.499-2.672-.147-4.665-.516-5.421-.674-.044-.388-.106-1.082-.106-1.907s.063-1.531.107-1.919c.552-.136 1.782-.417 3.393-.656v1.242c0 .276.224.5.5.5s.5-.224.5-.5v-1.378c.422-.052.862-.099 1.317-.139.274-.024.479-.267.454-.542s-.279-.484-.542-.454c-2.015.177-3.727.486-4.84.722.1-3.953 1.38-7.381 1.71-8.204.646-.24 2.954-1.005 6.185-1.005zm-6.784 15.579c.829.115 1.843.229 3 .305v.616c0 .911-.589 1.5-1.5 1.5s-1.5-.589-1.5-1.5z"/><path d="m17 10c-3.309 0-6 2.691-6 6s2.691 6 6 6 6-2.691 6-6-2.691-6-6-6zm0 11c-2.757 0-5-2.243-5-5s2.243-5 5-5 5 2.243 5 5-2.243 5-5 5z"/><path d="m18.217 15.5h-1.862c.035-.168.087-.362.165-.559.243-.615.57-1.005.574-1.009.178-.21.152-.525-.057-.704-.21-.178-.523-.155-.703.054-.018.021-.436.512-.744 1.29-.282.711-.306 1.384-.307 1.412-.004.135.047.266.141.363.095.097.224.152.359.152h1.862c-.035.168-.087.362-.165.559-.24.607-.585.993-.589.997-.185.205-.169.521.034.706.096.087.217.13.337.13.135 0 .27-.054.367-.162.02-.021.469-.516.78-1.302.282-.711.306-1.384.307-1.412.004-.135-.047-.266-.141-.363-.095-.097-.224-.152-.359-.152z"/></svg>