<?xml version="1.0" encoding="UTF-8"?>
<svg xmlns="http://www.w3.org/2000/svg" id="Layer_1" data-name="Layer 1" viewBox="0 0 24 24">
  <path d="M18.859,15.343c-.017-.005-.085-.023-.197-.051,.002-.016,.002-.032,.002-.049,0-3.643-1.322-6.319-1.378-6.431-.054-.106-.143-.19-.252-.236-.081-.034-2.029-.846-5.035-.846s-4.953,.812-5.034,.846c-.11,.046-.2,.131-.254,.238-.056,.113-1.377,2.816-1.377,6.429,0,.016,0,.032,.002,.048-.112,.028-.18,.046-.197,.05-.189,.052-.332,.21-.363,.405-.005,.031-.12,.771-.12,1.753,0,.991,.115,1.724,.12,1.755,.034,.211,.199,.378,.41,.414,.034,.006,.274,.046,.676,.103v.838c0,1.118,.906,2.028,2.021,2.028s2.021-.91,2.021-2.028v-.457c.663,.033,1.367,.054,2.095,.054s1.432-.021,2.095-.054v.458c0,1.118,.907,2.028,2.021,2.028s2.021-.91,2.021-2.028v-.838c.402-.056,.642-.097,.676-.102,.211-.036,.376-.203,.41-.415,.005-.031,.12-.771,.12-1.754,0-.991-.115-1.724-.12-1.754-.031-.194-.174-.352-.363-.403ZM7.529,9.432c.522-.186,2.179-.702,4.471-.702s3.952,.516,4.472,.702c.273,.613,1.157,2.815,1.192,5.637-1.248-.252-3.341-.586-5.664-.586s-4.415,.335-5.664,.586c.036-2.79,.92-5.017,1.193-5.638Zm1.376,11.177c0,.567-.458,1.028-1.021,1.028s-1.021-.461-1.021-1.028v-.71c.572,.066,1.265,.135,2.042,.191v.519Zm8.231,0c0,.567-.458,1.028-1.021,1.028s-1.021-.461-1.021-1.028v-.519c.776-.056,1.47-.125,2.042-.192v.711Zm1.142-1.869c-.919,.135-3.455,.466-6.278,.466s-5.36-.331-6.279-.466c-.029-.288-.063-.729-.063-1.24,0-.528,.037-.984,.067-1.272,.519-.122,1.626-.361,3.032-.535v.887c0,.276,.224,.5,.5,.5s.5-.224,.5-.5v-.993c.707-.063,1.464-.103,2.243-.103s1.536,.04,2.243,.103v.994c0,.276,.224,.5,.5,.5s.5-.224,.5-.5v-.887c1.407,.174,2.513,.413,3.032,.535,.03,.287,.067,.741,.067,1.272,0,.508-.034,.95-.064,1.24Z"/>
  <path d="M22.884,9.547c-.856-1.026-2.251-2.552-4.029-3.995C15.735,3.022,12.361,1.473,12.219,1.408c-.128-.059-.276-.06-.406-.003-.135,.059-3.337,1.465-6.645,4.148-1.872,1.519-3.237,3.012-4.053,3.997-.177,.212-.146,.528,.065,.704,.094,.077,.207,.115,.319,.115,.144,0,.286-.062,.385-.181,.787-.95,2.105-2.39,3.914-3.858,2.731-2.217,5.456-3.562,6.209-3.915,.775,.375,3.627,1.814,6.216,3.915,1.717,1.393,3.064,2.867,3.893,3.859,.177,.212,.491,.239,.704,.063,.212-.177,.24-.492,.063-.704Z"/>
</svg>
