<?xml version="1.0" encoding="UTF-8"?>
<svg xmlns="http://www.w3.org/2000/svg" id="Layer_1" data-name="Layer 1" viewBox="0 0 24 24">
  <path d="M22.796,12.888c-.031-.194-.174-.352-.364-.402-.037-.01-.232-.062-.562-.139,.045-.075,.071-.162,.071-.256,0-5.443-2-9.432-2.085-9.599-.054-.105-.143-.188-.252-.234-.123-.051-3.057-1.257-7.604-1.257s-7.479,1.206-7.603,1.257c-.11,.046-.201,.13-.254,.236-.085,.169-2.083,4.2-2.083,9.597,0,.094,.026,.182,.071,.257-.33,.077-.526,.129-.563,.139-.19,.051-.333,.209-.365,.404-.007,.046-.181,1.145-.181,2.609,0,1.478,.174,2.565,.181,2.61,.035,.211,.2,.377,.411,.413,.015,.002,.471,.078,1.255,.182v1.488c0,1.548,1.269,2.807,2.829,2.807s2.829-1.259,2.829-2.807v-.961c1.096,.06,2.267,.098,3.473,.098s2.376-.038,3.473-.098v.962c0,1.548,1.27,2.807,2.83,2.807s2.829-1.259,2.829-2.807v-1.489c.783-.104,1.239-.18,1.254-.182,.211-.036,.376-.202,.41-.414,.008-.046,.183-1.145,.183-2.61,0-1.477-.175-2.565-.183-2.61Zm-19.736-.798c0-4.546,1.525-8.165,1.896-8.977,.684-.249,3.325-1.114,7.044-1.114s6.365,.865,7.045,1.114c.371,.803,1.896,4.381,1.896,8.977,0,.018,0,.035,.003,.052-1.843-.382-5.196-.946-8.943-.946s-7.098,.564-8.943,.946c.002-.017,.003-.035,.003-.053Zm4.467,8.103c0,.997-.82,1.807-1.829,1.807s-1.829-.811-1.829-1.807v-1.363c.984,.116,2.239,.243,3.658,.34v1.023Zm12.605,0c0,.997-.82,1.807-1.829,1.807s-1.83-.811-1.83-1.807v-1.023c1.419-.097,2.674-.224,3.659-.341v1.364Zm1.725-2.601c-1.212,.182-5.293,.737-9.856,.737s-8.647-.555-9.857-.737c-.05-.422-.121-1.185-.121-2.094,0-.927,.075-1.709,.125-2.126,1.153-.276,5.254-1.175,9.853-1.175s8.702,.898,9.853,1.175c.051,.415,.126,1.193,.126,2.126,0,.903-.072,1.669-.122,2.094Z"/>
  <circle cx="7.8" cy="15.267" r=".745"/>
  <circle cx="16.2" cy="15.267" r=".745"/>
</svg>
