<svg id="Layer_1" viewBox="0 0 24 24" xmlns="http://www.w3.org/2000/svg" data-name="Layer 1"><path d="m14.075 9.697c-.842-.983-1.762-1.59-1.801-1.616-.164-.107-.375-.109-.539-.005-.037.023-.916.578-1.809 1.621-.898 1.047-1.361 2.053-1.381 2.095-.062.135-.06.291.004.424.021.045.535 1.105 1.376 2.086.842.983 1.762 1.59 1.801 1.616.083.054.179.082.274.082.092 0 .184-.025.265-.076.037-.023.916-.578 1.809-1.621.898-1.047 1.361-2.053 1.381-2.095.062-.135.06-.291-.004-.424-.021-.045-.535-1.106-1.376-2.086zm-.76 3.955c-.508.592-1.014 1.01-1.312 1.234-.309-.234-.833-.667-1.318-1.234-.542-.632-.941-1.318-1.124-1.656.171-.324.549-.978 1.124-1.648.508-.592 1.014-1.01 1.312-1.234.309.234.833.667 1.319 1.234.542.632.941 1.318 1.124 1.656-.171.324-.549.978-1.124 1.648z"/><path d="m20.007 2.588c-.041-.164-.161-.296-.321-.352-.145-.05-3.598-1.236-7.687-1.236s-7.541 1.185-7.686 1.236c-.16.056-.281.188-.322.354s-.992 4.117-.992 9.411c0 5.339.952 9.248.993 9.412s.161.296.321.352c.145.05 3.598 1.236 7.687 1.236s7.541-1.185 7.686-1.236c.16-.056.281-.188.322-.354s.992-4.117.992-9.411c0-5.339-.952-9.248-.993-9.412zm-.91 18.316c-.871.27-3.807 1.096-7.097 1.096s-6.228-.827-7.098-1.097c-.212-.97-.902-4.472-.902-8.903 0-4.397.691-7.926.903-8.904.871-.27 3.807-1.096 7.097-1.096s6.228.827 7.098 1.097c.212.97.902 4.472.902 8.903 0 4.397-.691 7.926-.903 8.904z"/></svg>