<svg id="Layer_1" viewBox="0 0 24 24" xmlns="http://www.w3.org/2000/svg" data-name="Layer 1"><path d="m15.092 9.561c-.903-.754-2.221-.744-2.983.005l-.109.097-.09-.081c-.78-.767-2.098-.776-3.001-.022-.44.367-.941 1.115-.907 2.012.036.937.617 1.812 1.725 2.602.241.171.822.479.83.482.452.229.948.342 1.444.342s.992-.114 1.444-.342c.438-.222.801-.448 1.108-.691.949-.752 1.436-1.578 1.447-2.453.011-.872-.482-1.596-.908-1.952zm-1.16 3.621c-.254.201-.561.392-.938.583-.623.314-1.366.313-1.98.003-.004-.002-.501-.261-.707-.407-.831-.592-1.283-1.223-1.306-1.826-.022-.572.334-1.027.548-1.206.261-.218.578-.329.884-.329.295 0 .58.103.793.312l.441.394c.189.169.477.169.666 0l.458-.41c.417-.41 1.146-.396 1.66.032.207.173.556.614.549 1.171-.007.56-.366 1.125-1.068 1.682z"/><path d="m20.008 2.588c-.041-.164-.161-.296-.321-.352-.145-.05-3.599-1.236-7.687-1.236s-7.541 1.185-7.686 1.236c-.16.056-.281.188-.322.354s-.992 4.117-.992 9.411c0 5.339.952 9.248.993 9.412s.161.296.321.352c.145.05 3.598 1.236 7.687 1.236s7.541-1.185 7.687-1.236c.16-.056.281-.188.321-.354.041-.166.992-4.117.992-9.411 0-5.339-.951-9.248-.992-9.412zm-.91 18.315c-.872.27-3.813 1.097-7.098 1.097s-6.228-.827-7.098-1.097c-.212-.97-.902-4.472-.902-8.903 0-4.397.691-7.926.903-8.904.871-.27 3.807-1.096 7.097-1.096s6.229.827 7.099 1.097c.212.97.901 4.471.901 8.903 0 4.397-.69 7.926-.902 8.903z"/></svg>