<svg id="Layer_1" viewBox="0 0 24 24" xmlns="http://www.w3.org/2000/svg" data-name="Layer 1"><path d="m20.007 2.588c-.041-.164-.161-.296-.321-.352-.145-.05-3.598-1.236-7.687-1.236s-7.541 1.185-7.686 1.236c-.16.056-.281.188-.322.354s-.992 4.117-.992 9.411c0 5.339.952 9.248.993 9.412s.161.296.321.352c.145.05 3.598 1.236 7.687 1.236s7.541-1.185 7.686-1.236c.16-.056.281-.188.322-.354s.992-4.117.992-9.411c0-5.339-.952-9.248-.993-9.412zm-.91 18.316c-.871.27-3.807 1.096-7.097 1.096s-6.228-.827-7.098-1.097c-.212-.97-.902-4.472-.902-8.903 0-4.397.691-7.926.903-8.904.871-.27 3.807-1.096 7.097-1.096s6.228.827 7.098 1.097c.212.97.902 4.472.902 8.903 0 4.397-.691 7.926-.903 8.904z"/><path d="m15.128 10.431c-.327-.243-.693-.375-1.068-.391.152-.559.039-1.134-.323-1.624-.41-.557-1.092-.916-1.737-.916s-1.327.359-1.737.916c-.362.491-.475 1.065-.323 1.624-.375.016-.741.148-1.068.391-.538.4-.872 1.031-.872 1.646s.334 1.246.872 1.646c.505.376 1.101.486 1.682.313.316-.095.616-.289.879-.512-.069.729-.227 1.687-.659 1.976h-.421c-.276 0-.5.224-.5.5s.224.5.5.5h3.294c.276 0 .5-.224.5-.5s-.224-.5-.5-.5h-.421c-.425-.286-.585-1.241-.657-1.974.263.222.562.415.877.51.179.054.359.08.539.08.401 0 .794-.133 1.143-.393.538-.4.872-1.03.872-1.646s-.334-1.246-.872-1.646zm-.597 2.49c-.173.13-.452.263-.797.157-.462-.139-1.054-.821-1.317-1.219-.093-.139-.25-.223-.417-.223s-.324.084-.417.223c-.264.398-.855 1.081-1.317 1.219-.347.104-.625-.027-.797-.157-.28-.208-.469-.547-.469-.843s.188-.635.469-.844c.174-.129.454-.258.797-.158.13.04.289.135.458.276.198.165.487.154.67-.027.183-.18.201-.469.041-.669-.367-.459-.483-.728-.52-.847-.106-.344.025-.625.154-.799.221-.3.604-.509.932-.509s.711.209.932.509c.129.175.26.456.154.8-.037.119-.153.388-.52.847-.16.2-.143.489.041.669.182.18.472.191.67.027.169-.141.328-.236.458-.275.347-.104.623.028.797.157.28.208.469.547.469.844s-.188.635-.469.843z"/></svg>