<svg id="Layer_1" viewBox="0 0 24 24" xmlns="http://www.w3.org/2000/svg" data-name="Layer 1"><path d="m14.236 8.392c-.238-.185-.745-.476-.81-.512-.893-.49-1.961-.49-2.854 0-.427.234-.78.475-1.082.735-.915.79-1.385 1.651-1.396 2.56-.012.905.462 1.661.872 2.034.444.404.991.605 1.521.605.333 0 .659-.079.949-.237-.099 1.068-.268 1.713-.506 1.924h-.43c-.276 0-.5.224-.5.5s.224.5.5.5h3c.276 0 .5-.224.5-.5s-.224-.5-.5-.5h-.45c-.231-.21-.395-.857-.489-1.93.76.414 1.75.294 2.474-.363.424-.386.906-1.167.869-2.102-.038-.972-.599-1.885-1.667-2.714zm.125 4.076c-.426.386-1.129.504-1.583.018l-.43-.417c-.195-.188-.502-.188-.697 0l-.446.435c-.438.47-1.141.352-1.566-.035-.206-.188-.553-.668-.544-1.28.008-.61.361-1.221 1.051-1.816.247-.214.545-.415.908-.615.594-.326 1.301-.326 1.885-.004.005.002.486.275.685.43.824.64 1.256 1.3 1.281 1.963.025.631-.33 1.128-.543 1.322z"/><path d="m20.008 2.588c-.041-.164-.161-.296-.321-.352-.145-.05-3.599-1.236-7.687-1.236s-7.541 1.185-7.687 1.236c-.16.056-.281.188-.321.354-.041.166-.992 4.117-.992 9.411 0 5.339.951 9.248.992 9.412s.161.296.321.352c.145.05 3.599 1.236 7.687 1.236s7.541-1.185 7.687-1.236c.16-.056.281-.188.321-.354.041-.166.992-4.117.992-9.411 0-5.339-.951-9.248-.992-9.412zm-.91 18.315c-.872.27-3.813 1.097-7.098 1.097s-6.229-.827-7.099-1.097c-.212-.97-.901-4.471-.901-8.903 0-4.397.69-7.926.902-8.903.872-.27 3.813-1.097 7.098-1.097s6.229.827 7.099 1.097c.212.97.901 4.471.901 8.903 0 4.397-.69 7.926-.902 8.903z"/></svg>