<?xml version="1.0" encoding="UTF-8"?>
<svg xmlns="http://www.w3.org/2000/svg" id="Layer_1" data-name="Layer 1" viewBox="0 0 24 24">
  <path d="M13.689,16.722c-.359,0-.718-.095-1.04-.283-2.789-1.635-4.397-4.062-4.464-4.165-.109-.166-.109-.381,0-.547,.067-.103,1.675-2.53,4.464-4.165,.601-.352,1.332-.376,1.954-.067,.618,.307,1.036,.898,1.118,1.582,.232,1.94,.232,3.907,0,5.848-.082,.684-.5,1.275-1.118,1.582-.29,.144-.603,.216-.915,.216Zm-4.472-4.722c.491,.659,1.884,2.372,3.938,3.575h0c.313,.185,.68,.196,1.003,.035,.32-.159,.527-.452,.569-.806,.223-1.861,.223-3.748,0-5.609-.042-.354-.25-.646-.569-.806-.324-.161-.69-.149-1.003,.035-2.06,1.207-3.449,2.915-3.938,3.575Z"/>
  <path d="M12,22.969c-3.146,0-6.293-.405-9.417-1.216-.176-.046-.312-.183-.358-.358C.599,15.161,.599,8.839,2.224,2.605c.046-.176,.183-.312,.358-.358,6.249-1.621,12.586-1.621,18.835,0,.176,.046,.312,.183,.358,.358,1.625,6.233,1.625,12.556,0,18.789-.046,.176-.183,.312-.358,.358-3.125,.811-6.271,1.216-9.417,1.216Zm-8.881-2.111c5.895,1.48,11.868,1.48,17.763,0,1.484-5.879,1.484-11.836,0-17.715C14.987,1.662,9.013,1.662,3.119,3.143c-1.484,5.879-1.484,11.836,0,17.715Z"/>
</svg>
