<?xml version="1.0" encoding="UTF-8"?>
<svg xmlns="http://www.w3.org/2000/svg" id="Layer_1" data-name="Layer 1" viewBox="0 0 24 24">
  <path d="M22.028,6.217c-.666-1.979-2.249-3.558-4.233-4.222-3.844-1.287-7.745-1.287-11.591,0-1.983,.664-3.566,2.243-4.232,4.223-1.291,3.836-1.291,7.728,0,11.564,.666,1.979,2.249,3.558,4.232,4.223,1.923,.644,3.859,.965,5.796,.965s3.873-.321,5.796-.965c1.983-.665,3.566-2.243,4.232-4.223,1.291-3.837,1.291-7.728,0-11.565Zm-.947,11.247c-.567,1.684-1.914,3.027-3.604,3.592-3.635,1.217-7.32,1.217-10.955,0-1.689-.564-3.036-1.908-3.604-3.592-1.219-3.626-1.219-7.302,0-10.927,.567-1.685,1.914-3.028,3.603-3.593,3.637-1.216,7.323-1.216,10.956,0,1.689,.565,3.036,1.909,3.604,3.593,1.219,3.625,1.219,7.302,0,10.928Z"/>
  <path d="M11.508,7.562h0c-.601-.352-1.334-.378-1.955-.068-.618,.307-1.036,.898-1.117,1.582-.231,1.94-.231,3.908,0,5.848,.081,.684,.499,1.274,1.117,1.582,.29,.144,.603,.216,.915,.216,.359,0,.719-.095,1.04-.283,2.788-1.635,4.396-4.062,4.463-4.165,.109-.167,.109-.381,0-.548-.066-.103-1.675-2.53-4.463-4.164Zm-.506,8.013c-.311,.185-.679,.198-1.005,.035-.319-.159-.527-.452-.569-.806-.222-1.861-.222-3.749,0-5.61,.042-.353,.25-.646,.569-.805,.151-.075,.312-.112,.472-.112,.184,0,.366,.049,.533,.147h0c2.053,1.203,3.446,2.915,3.938,3.575-.491,.66-1.885,2.372-3.938,3.575Z"/>
</svg>
