<?xml version="1.0" encoding="UTF-8"?>
<svg xmlns="http://www.w3.org/2000/svg" id="Layer_1" data-name="Layer 1" viewBox="0 0 24 24">
  <path d="M22.028,6.218h0c-.666-1.98-2.249-3.559-4.233-4.223-3.844-1.287-7.745-1.287-11.591,0-1.983,.664-3.566,2.243-4.232,4.223-1.291,3.836-1.291,7.728,0,11.564,.666,1.979,2.249,3.558,4.232,4.223,1.923,.644,3.859,.965,5.796,.965s3.873-.321,5.796-.965c1.983-.665,3.566-2.243,4.232-4.223,1.291-3.837,1.291-7.728,0-11.564Zm-.947,11.246c-.567,1.684-1.914,3.027-3.604,3.592-3.635,1.217-7.32,1.217-10.955,0-1.689-.564-3.036-1.908-3.604-3.592-1.219-3.626-1.219-7.302,0-10.927,.567-1.685,1.914-3.028,3.603-3.593,1.818-.608,3.648-.912,5.479-.912s3.661,.304,5.478,.912c1.689,.565,3.036,1.909,3.604,3.593,1.219,3.625,1.219,7.302,0,10.928Z"/>
  <path d="M14.447,7.494c-.622-.311-1.354-.286-1.955,.068-2.788,1.634-4.396,4.062-4.463,4.164-.109,.167-.109,.381,0,.548,.066,.103,1.675,2.53,4.463,4.165,.321,.188,.681,.283,1.04,.283,.312,0,.625-.072,.915-.216,.618-.308,1.036-.898,1.117-1.582,.231-1.94,.231-3.907,0-5.848-.081-.684-.499-1.275-1.117-1.582Zm.125,7.311c-.042,.354-.25,.646-.569,.806-.326,.162-.693,.149-1.005-.035-2.053-1.203-3.446-2.915-3.938-3.575,.491-.66,1.885-2.373,3.938-3.575,.312-.184,.68-.197,1.005-.035,.319,.159,.527,.452,.569,.805,.222,1.862,.222,3.75,0,5.61Z"/>
</svg>
