<?xml version="1.0" encoding="UTF-8"?>
<svg xmlns="http://www.w3.org/2000/svg" id="Layer_1" data-name="Layer 1" viewBox="0 0 24 24">
  <path d="M10.391,16.53c-.3,0-.602-.069-.88-.207-.597-.297-1-.868-1.078-1.529-.222-1.854-.222-3.734,0-5.589,.078-.66,.481-1.231,1.078-1.528,.602-.297,1.307-.272,1.883,.067h0c2.661,1.562,4.195,3.885,4.26,3.982,.108,.166,.108,.381,0,.547-.064,.098-1.599,2.42-4.26,3.982-.31,.183-.655,.274-1.003,.274Zm0-8.062c-.147,0-.296,.034-.437,.104-.298,.147-.491,.421-.53,.75-.212,1.776-.212,3.577,0,5.353,.039,.33,.232,.604,.53,.751,.304,.152,.642,.138,.933-.032,1.938-1.139,3.258-2.757,3.733-3.395-.476-.638-1.796-2.256-3.733-3.395h0c-.156-.091-.325-.137-.496-.137Z"/>
</svg>
