<?xml version="1.0" encoding="UTF-8"?>
<svg xmlns="http://www.w3.org/2000/svg" id="Layer_1" data-name="Layer 1" viewBox="0 0 24 24">
  <path d="M14.924,8.278c-1.941-.232-3.906-.232-5.848,0-.684,.081-1.274,.499-1.582,1.117-.31,.623-.284,1.354,.067,1.955,1.635,2.788,4.062,4.396,4.165,4.463,.083,.055,.178,.082,.273,.082s.19-.027,.273-.082c.103-.066,2.53-1.675,4.165-4.463,.352-.601,.377-1.332,.067-1.955-.308-.618-.898-1.036-1.582-1.117Zm.651,2.566c-1.203,2.053-2.915,3.446-3.575,3.938-.66-.491-2.372-1.885-3.575-3.938-.184-.313-.196-.68-.035-1.005,.159-.319,.452-.527,.806-.569,.931-.11,1.867-.166,2.805-.166s1.875,.056,2.805,.166c.354,.042,.646,.25,.806,.569,.161,.325,.148,.691-.035,1.005Z"/>
  <path d="M21.753,2.582c-.046-.175-.183-.312-.358-.357C15.16,.6,8.84,.6,2.605,2.225c-.176,.045-.312,.183-.358,.357-1.621,6.249-1.621,12.587,0,18.836,.046,.175,.183,.312,.358,.357,3.117,.812,6.256,1.219,9.395,1.219s6.277-.406,9.395-1.219c.176-.045,.312-.183,.358-.357,1.621-6.249,1.621-12.587,0-18.836Zm-.896,18.299c-5.879,1.484-11.836,1.484-17.715,0C1.661,14.986,1.661,9.014,3.143,3.119c5.879-1.484,11.836-1.484,17.715,0,1.481,5.895,1.481,11.867,0,17.762Z"/>
</svg>
