<?xml version="1.0" encoding="UTF-8"?>
<svg xmlns="http://www.w3.org/2000/svg" id="Layer_1" data-name="Layer 1" viewBox="0 0 24 24">
  <path d="M12.274,8.187c-.167-.109-.381-.109-.548,0-.103,.066-2.53,1.675-4.164,4.463h0c-.352,.601-.377,1.332-.067,1.955,.307,.618,.898,1.036,1.582,1.117,.97,.116,1.947,.174,2.924,.174s1.953-.058,2.924-.174c.684-.081,1.274-.499,1.582-1.117,.31-.623,.284-1.354-.067-1.955-1.635-2.788-4.062-4.396-4.165-4.463Zm3.336,5.974c-.159,.319-.452,.527-.806,.569-1.861,.221-3.749,.221-5.61,0-.353-.042-.646-.25-.805-.569-.161-.325-.148-.691,.035-1.005h0c1.203-2.053,2.916-3.446,3.576-3.938,.66,.491,2.372,1.885,3.575,3.938,.184,.313,.196,.68,.035,1.005Z"/>
  <path d="M21.753,2.582c-.046-.175-.183-.312-.358-.357C15.16,.6,8.839,.6,2.605,2.224c-.176,.045-.312,.183-.358,.357-1.621,6.249-1.621,12.587,0,18.836,.045,.175,.182,.312,.358,.357,3.117,.812,6.256,1.219,9.395,1.219s6.277-.406,9.395-1.219c.176-.045,.312-.183,.358-.357,1.621-6.249,1.621-12.587,0-18.836Zm-.896,18.299c-5.879,1.484-11.836,1.484-17.715,0C1.661,14.986,1.661,9.013,3.142,3.119c5.878-1.484,11.834-1.485,17.715,0,1.481,5.895,1.481,11.867,0,17.762Z"/>
</svg>
