<?xml version="1.0" encoding="UTF-8"?>
<svg xmlns="http://www.w3.org/2000/svg" id="Layer_1" data-name="Layer 1" viewBox="0 0 24 24">
  <path d="M12,15.733c-.934,0-1.867-.055-2.795-.166-.66-.078-1.231-.481-1.528-1.078-.298-.601-.273-1.305,.067-1.883h0c1.562-2.661,3.885-4.195,3.982-4.26,.166-.107,.381-.107,.547,0,.098,.064,2.42,1.599,3.982,4.26,.341,.578,.365,1.282,.067,1.883-.297,.597-.868,1-1.529,1.078-.927,.111-1.86,.166-2.794,.166Zm-3.395-2.621c-.17,.291-.183,.631-.032,.933,.147,.298,.421,.491,.75,.53,1.777,.211,3.577,.211,5.353,0,.33-.039,.604-.232,.751-.53,.15-.302,.138-.642-.032-.933-1.139-1.938-2.757-3.258-3.395-3.733-.638,.476-2.256,1.796-3.395,3.733h0Z"/>
</svg>
