<svg id="Layer_1" viewBox="0 0 24 24" xmlns="http://www.w3.org/2000/svg" data-name="Layer 1"><path d="m7.407 12.489c-2.618.491-4.154.578-4.73.592-.146-.265-.386-.775-.542-1.499-.156-.725-.146-1.289-.122-1.589.534-.225 1.984-.781 4.603-1.414.269-.064.434-.335.369-.603-.064-.269-.338-.434-.603-.369-1.726.417-2.951.799-3.766 1.086-.092-2.285.035-4.085.088-4.691.475-.316 1.921-1.185 4.134-1.66.894-.192 1.792-.295 2.668-.306.276-.003.497-.23.494-.506-.003-.274-.227-.494-.5-.494h-.006c-.942.012-1.906.123-2.865.329-2.964.635-4.637 1.91-4.706 1.963-.107.083-.176.206-.191.34-.011.095-.251 2.332-.101 5.399-.184.078-.284.126-.299.133-.137.068-.236.195-.268.345-.008.037-.189.928.094 2.246s.814 2.055.836 2.085c.134.173.287.214.514.207.185 0 .584-.01 1.186-.06l.169.786c.151.795 1.004 1.343 1.788 1.156.812-.174 1.33-.977 1.155-1.788l-.117-.547c.288-.049.583-.1.902-.16.271-.051.45-.312.399-.584-.051-.271-.309-.451-.584-.399zm-1.577 1.899c.059.272-.115.542-.388.601-.265.063-.549-.121-.601-.388l-.146-.678c.303-.036.639-.081 1.005-.134l.129.6zm-.028-3.573c.087.405-.171.804-.576.891s-.804-.171-.891-.576.171-.804.576-.891.804.171.891.576zm16.82 4.98c-.063-.14-.186-.243-.334-.281-.017-.004-.124-.03-.317-.067-.495-3.012-1.195-5.137-1.225-5.226-.042-.128-.136-.234-.258-.292-.079-.038-1.972-.929-4.988-.929s-4.909.891-4.988.929c-.122.059-.215.164-.258.292-.03.09-.731 2.214-1.225 5.226-.193.037-.299.063-.317.067-.148.038-.271.141-.334.281-.016.035-.378.863-.378 2.204s.363 2.169.378 2.204c.063.14.186.243.334.281.036.009.444.11 1.288.219v.796c0 .827.673 1.5 1.5 1.5s1.5-.673 1.5-1.5v-.552c.731.032 1.559.052 2.5.052s1.769-.02 2.5-.052v.552c0 .827.673 1.5 1.5 1.5s1.5-.673 1.5-1.5v-.796c.843-.11 1.251-.21 1.288-.219.148-.038.271-.141.334-.281.016-.035.378-.863.378-2.204s-.363-2.169-.378-2.204zm-11.486-5.045c.528-.209 2.115-.751 4.364-.751s3.836.542 4.364.751c.179.579.677 2.299 1.064 4.537-1.084-.138-2.848-.287-5.429-.287s-4.345.149-5.429.287c.387-2.238.885-3.958 1.064-4.537zm.864 10.75c0 .276-.224.5-.5.5s-.5-.224-.5-.5v-.686c.302.028.634.055 1 .079zm8 0c0 .276-.224.5-.5.5s-.5-.224-.5-.5v-.607c.366-.024.698-.051 1-.079zm1.787-1.932c-.666.126-2.658.432-6.287.432s-5.621-.306-6.287-.432c-.086-.288-.213-.834-.213-1.568s.126-1.281.213-1.568c.666-.126 2.657-.432 6.287-.432s5.621.306 6.287.432c.086.288.213.834.213 1.568s-.126 1.28-.213 1.568zm-9.037-1.568c0 .414-.336.75-.75.75s-.75-.336-.75-.75.336-.75.75-.75.75.336.75.75zm7 0c0 .414-.336.75-.75.75s-.75-.336-.75-.75.336-.75.75-.75.75.336.75.75zm-8.493-11.595c-.508-1.028-.74-2.022-.708-3.02.003-.283.27-.513.55-.481 1.051.106 1.768.301 2.579.725.341-.866.738-1.611 1.276-2.408.158-.244.521-.294.74-.1.777.666 1.365 1.471 1.821 2.504.889-.47 1.901-.708 3.077-.723.247-.009.497.212.506.484.032.998-.2 1.991-.708 3.02.943.289 1.764.752 2.448 1.383.203.187.216.503.029.707-.188.204-.504.215-.707.029-.71-.654-1.566-1.081-2.617-1.305-.325-.061-.502-.461-.328-.742.519-.887.806-1.727.871-2.551-.983.081-1.817.358-2.537.842-.257.182-.646.055-.748-.241-.343-.924-.774-1.651-1.339-2.248-.432.707-.756 1.403-1.047 2.239-.094.294-.472.429-.731.263-.761-.46-1.32-.681-2.12-.809.072.811.358 1.635.867 2.505.175.28-.002.681-.328.742-1.05.224-1.907.65-2.617 1.305-.202.188-.519.175-.707-.029-.187-.203-.174-.52.029-.707.684-.63 1.505-1.094 2.448-1.382z"/></svg>