<svg id="Layer_1" viewBox="0 0 24 24" xmlns="http://www.w3.org/2000/svg" data-name="Layer 1"><path d="m10.75 22c0 .414-.336.75-.75.75s-.75-.336-.75-.75.336-.75.75-.75.75.336.75.75zm7.25-.75c-.414 0-.75.336-.75.75s.336.75.75.75.75-.336.75-.75-.336-.75-.75-.75zm-1.5-17.25h6c.276 0 .5-.224.5-.5s-.224-.5-.5-.5h-6c-.276 0-.5.224-.5.5s.224.5.5.5zm6.419 2.448c-.028-.275-.279-.479-.549-.445-.274.028-.474.273-.445.549.107 1.039.101 2.076-.02 3.245-.378 2.756-.629 3.459-1.105 4.569-1.588.294-3.453.607-7.052.636-2.958-.023-4.807-.22-6.672-.508-.018-.003-.035.003-.053.003-.312-1.586-.554-3.329-.79-5.046-.242-1.763-.48-3.461-.787-4.9 2.362-.266 4.935-.516 8.058-.547.276-.003.498-.229.495-.505s-.256-.5-.505-.495c-3.224.033-5.862.294-8.283.567-.199-.746-.424-1.398-.697-1.891-.048-.087-.12-.157-.208-.202-1.027-.529-2.752-.476-2.824-.478-.275.01-.492.24-.483.517s.242.466.517.483c.387-.019 1.515.021 2.198.305.725 1.44 1.115 4.281 1.528 7.282.487 3.545.991 7.209 2.134 9.504.067.137.194.234.343.267 1.373.293 3.606.642 6.461.642 2.725-.026 4.652-.188 6.444-.54.271-.053.447-.315.394-.587-.053-.271-.312-.451-.587-.394-1.219.239-2.917.488-6.256.521-2.602 0-4.669-.299-6.008-.57-.373-.81-.673-1.801-.926-2.899 1.804.269 3.648.45 6.506.473 3.895-.03 5.809-.387 7.497-.702.163-.03.333-.215.399-.367.533-1.233.827-1.912 1.253-5.017.13-1.256.137-2.357.021-3.468z"/></svg>