<svg id="Layer_1" viewBox="0 0 24 24" xmlns="http://www.w3.org/2000/svg" data-name="Layer 1"><path d="m22.495 11.918c-.037-.223-.219-.393-.443-.415-.05-.006-5.083-.503-10.05-.503-1.365 0-2.73.038-4 .093v-4.098c2.826-.048 5.465-.483 5.582-.502.241-.04.418-.249.418-.493v-4c0-.244-.177-.453-.418-.493-.124-.021-3.075-.507-6.082-.507s-5.958.486-6.082.507c-.241.04-.418.249-.418.493v4c0 .244.177.453.418.493.117.019 2.756.454 5.582.502v4.145c-2.866.148-5.017.359-5.05.363-.225.022-.406.192-.443.415-.021.124-.507 3.063-.507 5.082s.486 4.958.507 5.082c.037.223.219.393.443.415.05.006 5.083.503 10.05.503s10-.497 10.05-.503c.225-.022.406-.192.443-.415.021-.124.507-3.063.507-5.082s-.486-4.958-.507-5.082zm-20.493-9.488c.92-.134 3.222-.43 5.5-.43s4.579.296 5.5.43v3.141c-.92.134-3.222.43-5.5.43s-4.579-.296-5.5-.43zm.434 10.032c1.263-.114 5.438-.462 9.566-.462s8.304.348 9.566.462c.131.863.434 3.016.434 4.538 0 .312-.015.652-.036 1h-19.928c-.021-.348-.036-.688-.036-1 0-1.522.302-3.675.434-4.538zm9.566 9.538c-4.128 0-8.304-.348-9.566-.462-.079-.519-.219-1.505-.319-2.538h19.77c-.1 1.034-.24 2.019-.319 2.538-1.263.114-5.438.462-9.566.462zm-2.75-7c0-.414.336-.75.75-.75s.75.336.75.75-.336.75-.75.75-.75-.336-.75-.75zm-4 0c0-.414.336-.75.75-.75s.75.336.75.75-.336.75-.75.75-.75-.336-.75-.75zm8 0c0-.414.336-.75.75-.75s.75.336.75.75-.336.75-.75.75-.75-.336-.75-.75zm4 0c0-.414.336-.75.75-.75s.75.336.75.75-.336.75-.75.75-.75-.336-.75-.75z"/></svg>