<svg id="Layer_1" viewBox="0 0 24 24" xmlns="http://www.w3.org/2000/svg" data-name="Layer 1"><path d="m3.647 4.858 1.162.332.332 1.162c.112.394.449.648.858.648s.746-.254.858-.647l.332-1.162 1.162-.332c.394-.112.648-.449.648-.858s-.254-.746-.647-.858l-1.162-.332-.332-1.162c-.112-.394-.449-.648-.858-.648s-.746.254-.858.647l-.332 1.162-1.162.332c-.394.112-.648.449-.648.858s.254.746.647.858zm1.438-1.087c.333-.096.589-.353.686-.687l.229-.8.229.802c.096.333.353.589.687.686l.8.229-.802.229c-.333.096-.589.353-.686.687l-.229.8-.229-.802c-.096-.333-.353-.589-.687-.686l-.8-.229zm17.314 17.239c-.017.004-.662.135-1.686.3.165-1.623.287-3.426.287-4.31 0-1.933-.152-3.264-.282-4.051 1.53-1.024 2.282-2.807 2.282-5.449 0-4.435-2.065-6.5-6.5-6.5s-6.5 2.065-6.5 6.5c0 1.232.177 2.262.502 3.135-3.797 1.35-5.502 4.562-5.502 10.365v.315c-.788-.266-1.48-.624-1.992-1.134-.678-.676-1.008-1.553-1.008-2.682 0-1.486.78-2.575 1.535-3.628.72-1.005 1.465-2.044 1.465-3.372 0-2.388-1.112-3.5-3.5-3.5-.276 0-.5.224-.5.5s.224.5.5.5c1.846 0 2.5.654 2.5 2.5 0 1.007-.592 1.833-1.278 2.79-.807 1.126-1.722 2.403-1.722 4.21 0 1.389.438 2.529 1.302 3.39 1.979 1.971 5.794 2.114 9.094 2.114.488 0 1.117-.003 1.604-.004 4.664 0 9.552-1 9.601-1.01.271-.056.444-.321.389-.591-.056-.271-.321-.444-.591-.389zm-2.708.456c-.79.114-1.705.229-2.691.324v-.79c0-3.458-1.696-5-5.5-5-.276 0-.5.224-.5.5s.224.5.5.5c3.238 0 4.5 1.122 4.5 4v.876c-1.215.099-2.523.133-3.767.126-2.01.009-4.317.013-6.233-.407v-.595c0-5.424 1.478-8.266 4.92-9.453 1.001 1.656 2.834 2.453 5.58 2.453 1.302 0 2.376-.201 3.277-.565.111.771.223 1.929.223 3.565 0 .888-.136 2.829-.309 4.466zm-3.191-8.466c-3.855 0-5.5-1.645-5.5-5.5s1.645-5.5 5.5-5.5 5.5 1.645 5.5 5.5-1.645 5.5-5.5 5.5zm2.825-9.072c-.125-.214-.35-.342-.6-.342-.247 0-.476.129-.6.338-.155.262-.353.634-.506 1.195-.39-.074-.771-.131-1.108-.119-.357-.004-.743.047-1.129.119-.152-.558-.35-.932-.506-1.196-.239-.401-.949-.419-1.211.021-.439.663-.664 1.556-.664 3.999 0 2.426 1.112 3.557 3.5 3.557s3.5-1.13 3.5-3.557c0-2.443-.212-3.318-.675-4.016zm-2.825 6.572c-1.822 0-2.5-.693-2.5-2.557 0-1.918.126-2.666.259-3.026.101.227.209.656.28.917.069.256.326.413.587.357.374-.079.933-.203 1.384-.191.421-.012.989.112 1.363.191.258.056.517-.101.587-.357.072-.261.18-.69.281-.917.136.363.259 1.106.259 3.026 0 1.864-.678 2.557-2.5 2.557z"/></svg>