<svg id="Layer_1" viewBox="0 0 24 24" xmlns="http://www.w3.org/2000/svg" data-name="Layer 1"><path d="m10.357 13.262c-.049-.011-1.205-.262-2.357-.262s-2.309.251-2.357.262c-.19.042-.339.19-.381.381-.011.049-.262 1.205-.262 2.357s.251 2.309.262 2.357c.042.19.19.339.381.381.049.011 1.205.262 2.357.262s2.309-.251 2.357-.262c.19-.042.339-.19.381-.381.011-.049.262-1.205.262-2.357s-.251-2.309-.262-2.357c-.042-.19-.19-.339-.381-.381zm-.534 4.561c-.402.07-1.124.177-1.823.177s-1.421-.106-1.823-.177c-.07-.402-.177-1.124-.177-1.823s.106-1.421.177-1.823c.402-.07 1.124-.177 1.823-.177s1.421.106 1.823.177c.07.402.177 1.124.177 1.823s-.106 1.421-.177 1.823zm.534-12.561c-.049-.011-1.205-.262-2.357-.262s-2.309.251-2.357.262c-.19.042-.339.19-.381.381-.011.049-.262 1.205-.262 2.357s.251 2.309.262 2.357c.042.19.19.339.381.381.049.011 1.205.262 2.357.262s2.309-.251 2.357-.262c.19-.042.339-.19.381-.381.011-.049.262-1.205.262-2.357s-.251-2.309-.262-2.357c-.042-.19-.19-.339-.381-.381zm-.534 4.561c-.402.071-1.124.177-1.823.177s-1.421-.106-1.823-.177c-.07-.402-.177-1.124-.177-1.823s.106-1.421.177-1.823c.402-.071 1.124-.177 1.823-.177s1.421.106 1.823.177c.07.402.177 1.124.177 1.823s-.106 1.421-.177 1.823zm12.115-7.38c-.042-.191-.19-.34-.381-.381-.049-.011-4.891-1.062-9.558-1.062s-9.508 1.051-9.557 1.062c-.19.042-.339.19-.381.381-.011.048-1.062 4.891-1.062 9.557s1.051 9.509 1.062 9.558c.042.19.19.339.381.381.049.011 4.891 1.062 9.558 1.062s9.509-1.051 9.558-1.062c.19-.042.339-.19.381-.381.011-.049 1.062-4.891 1.062-9.558s-1.051-9.509-1.062-9.557zm-.911 18.584c-1.137.228-5.148.973-9.027.973s-7.891-.745-9.027-.973c-.228-1.137-.973-5.148-.973-9.027s.745-7.891.973-9.027c1.137-.228 5.148-.973 9.027-.973s7.891.745 9.027.973c.228 1.136.973 5.148.973 9.027s-.745 7.891-.973 9.027zm-2.67-15.765c-.049-.011-1.205-.262-2.357-.262s-2.309.251-2.357.262c-.19.042-.339.19-.381.381-.011.049-.262 1.205-.262 2.357s.251 2.309.262 2.357c.042.19.19.339.381.381.049.011 1.205.262 2.357.262s2.309-.251 2.357-.262c.19-.042.339-.19.381-.381.011-.049.262-1.205.262-2.357s-.251-2.309-.262-2.357c-.042-.19-.19-.339-.381-.381zm-.534 4.561c-.402.071-1.124.177-1.823.177s-1.421-.106-1.823-.177c-.07-.402-.177-1.124-.177-1.823s.106-1.421.177-1.823c.402-.071 1.124-.177 1.823-.177s1.421.106 1.823.177c.07.402.177 1.124.177 1.823s-.106 1.421-.177 1.823zm.534 3.439c-.049-.011-1.205-.262-2.357-.262s-2.309.251-2.357.262c-.19.042-.339.19-.381.381-.011.049-.262 1.205-.262 2.357s.251 2.309.262 2.357c.042.19.19.339.381.381.049.011 1.205.262 2.357.262s2.309-.251 2.357-.262c.19-.042.339-.19.381-.381.011-.049.262-1.205.262-2.357s-.251-2.309-.262-2.357c-.042-.19-.19-.339-.381-.381zm-.534 4.561c-.402.07-1.124.177-1.823.177s-1.421-.106-1.823-.177c-.07-.402-.177-1.124-.177-1.823s.106-1.421.177-1.823c.402-.07 1.124-.177 1.823-.177s1.421.106 1.823.177c.07.402.177 1.124.177 1.823s-.106 1.421-.177 1.823z"/></svg>