<svg id="Layer_1" viewBox="0 0 24 24" xmlns="http://www.w3.org/2000/svg" data-name="Layer 1"><path d="m9.207 1.412c-.077-.017-1.896-.412-3.707-.412s-3.63.395-3.707.412c-.19.042-.339.19-.381.381-.017.077-.412 1.896-.412 3.708s.396 3.631.412 3.708c.042.19.19.339.381.381.077.017 1.896.412 3.707.412s3.63-.395 3.707-.412c.19-.042.339-.19.381-.381.017-.077.412-1.896.412-3.708s-.396-3.631-.412-3.708c-.042-.19-.19-.339-.381-.381zm-.532 7.263c-.589.11-1.903.325-3.175.325s-2.586-.215-3.175-.325c-.109-.588-.325-1.903-.325-3.175s.216-2.586.325-3.175c.589-.11 1.903-.325 3.175-.325s2.586.215 3.175.325c.109.588.325 1.903.325 3.175s-.216 2.586-.325 3.175zm4.118.913c.077.017 1.896.412 3.707.412s3.63-.395 3.707-.412c.19-.042.339-.19.381-.381.017-.077.412-1.896.412-3.708s-.396-3.631-.412-3.708c-.042-.19-.19-.339-.381-.381-.077-.017-1.896-.412-3.707-.412s-3.63.395-3.707.412c-.19.042-.339.19-.381.381-.017.077-.412 1.896-.412 3.708s.396 3.631.412 3.708c.042.19.19.339.381.381zm.532-7.263c.589-.11 1.903-.325 3.175-.325s2.586.215 3.175.325c.109.588.325 1.903.325 3.175s-.216 2.586-.325 3.175c-.589.11-1.903.325-3.175.325s-2.586-.215-3.175-.325c-.109-.588-.325-1.903-.325-3.175s.216-2.586.325-3.175zm-4.118 10.087c-.077-.017-1.896-.412-3.707-.412s-3.63.395-3.707.412c-.19.042-.339.19-.381.381-.017.077-.412 1.897-.412 3.708s.396 3.63.412 3.707c.042.19.19.339.381.381.077.017 1.896.412 3.707.412s3.63-.396 3.707-.412c.19-.042.339-.19.381-.381.017-.077.412-1.896.412-3.707s-.396-3.631-.412-3.708c-.042-.19-.19-.339-.381-.381zm-.532 7.263c-.589.109-1.903.325-3.175.325s-2.586-.216-3.175-.325c-.109-.589-.325-1.903-.325-3.175s.216-2.586.325-3.175c.589-.11 1.903-.325 3.175-.325s2.586.215 3.175.325c.109.588.325 1.9.325 3.175s-.216 2.586-.325 3.175zm14.179 2.471-2.719-2.719c.556-.742.865-1.718.865-2.928 0-2.859-1.641-4.5-4.5-4.5s-4.5 1.641-4.5 4.5 1.641 4.5 4.5 4.5c1.21 0 2.186-.31 2.928-.865l2.719 2.719c.195.195.512.195.707 0s.195-.512 0-.707zm-9.854-5.646c0-2.322 1.178-3.5 3.5-3.5s3.5 1.178 3.5 3.5-1.178 3.5-3.5 3.5-3.5-1.178-3.5-3.5z"/></svg>