<svg id="Layer_1" viewBox="0 0 24 24" xmlns="http://www.w3.org/2000/svg" data-name="Layer 1"><path d="m8.25 2c0-.414.336-.75.75-.75s.75.336.75.75-.336.75-.75.75-.75-.336-.75-.75zm6.75 2.75c.414 0 .75-.336.75-.75s-.336-.75-.75-.75-.75.336-.75.75.336.75.75.75zm8 17.75c0 .276-.224.5-.5.5s-.5-.224-.5-.5c0-.846-.433-1.588-1.125-1.984-1.834 1.97-4.827 2.484-8.875 2.484s-7.041-.514-8.875-2.484c-.692.396-1.125 1.138-1.125 1.984 0 .276-.224.5-.5.5s-.5-.224-.5-.5c0-1.159.571-2.196 1.504-2.786-.989-1.498-1.504-3.631-1.504-6.665 0-2.127.909-4.376 1.792-5.857-.524-.089-1.004-.176-1.389-.252-.271-.054-.447-.316-.394-.587s.318-.447.587-.394c1.972.389 5.946 1.041 10.403 1.041s8.432-.652 10.403-1.041c.264-.051.534.123.587.394.054.271-.123.534-.394.587-.376.074-.844.159-1.353.245 1.089 1.623 1.756 3.809 1.756 5.864 0 3.034-.515 5.167-1.504 6.665.932.59 1.504 1.626 1.504 2.786zm-1-9.45c0-2.033-.711-4.203-1.856-5.688-2.152.324-5.022.638-8.144.638s-5.985-.313-8.137-.637c-.872 1.337-1.863 3.59-1.863 5.687 0 6.859 2.336 8.95 10 8.95s10-2.091 10-8.95z"/></svg>