<svg id="Layer_1" viewBox="0 0 24 24" xmlns="http://www.w3.org/2000/svg" data-name="Layer 1"><path d="m20.092 15.778c-.261-.093-.546.046-.637.307-.914 2.614-2.998 3.787-6.868 3.894-.28-1.831-.587-4.605-.587-7.979s.308-6.148.587-7.979c3.869.107 5.953 1.28 6.868 3.894.091.261.375.399.637.307.261-.091.398-.376.307-.637-1.047-2.996-3.436-4.407-7.648-4.555.158-.89.281-1.394.284-1.408.066-.268-.097-.539-.364-.606-.271-.067-.54.096-.606.364-.015.062-.156.638-.329 1.629-6.101.082-8.718 2.781-8.718 8.992s2.617 8.91 8.718 8.992c.173.991.314 1.567.329 1.629.066.27.345.43.606.364.268-.067.431-.339.364-.606-.004-.014-.126-.519-.284-1.408 4.211-.148 6.6-1.56 7.648-4.555.092-.261-.046-.546-.307-.637zm-16.074-3.778c0-5.678 2.065-7.877 7.556-7.989-.279 1.861-.573 4.614-.573 7.989s.294 6.128.573 7.989c-5.491-.112-7.556-2.311-7.556-7.989z"/></svg>