<svg id="Layer_1" viewBox="0 0 24 24" xmlns="http://www.w3.org/2000/svg" data-name="Layer 1"><path d="m22.854 1.854c.195-.195.195-.512 0-.707s-.512-.195-.707 0l-5.645 5.645c-1.442-1.214-3.521-1.791-6.502-1.791-.784 0-1.517.041-2.178.122-.228.027-.408.208-.436.436-.443 3.643-2.186 5.386-5.829 5.829-.228.028-.408.208-.436.436-.08.662-.121 1.395-.121 2.178 0 2.89.6 5.008 1.819 6.474l-1.672 1.672c-.195.195-.195.512 0 .707s.512.195.707 0l1.672-1.672c1.462 1.217 3.581 1.818 6.475 1.818.784 0 1.517-.041 2.178-.122.228-.027.408-.208.436-.436.443-3.643 2.186-5.386 5.829-5.829.228-.028.408-.208.436-.436.081-.662.122-1.395.122-2.178 0-2.981-.577-5.06-1.791-6.502zm-4.854 12.146c0 .595-.024 1.156-.073 1.675-3.689.564-5.688 2.562-6.251 6.251-.519.049-1.081.073-1.675.073-2.604 0-4.494-.505-5.766-1.527l1.62-1.62c.195-.195.195-.512 0-.707s-.512-.195-.707 0l-1.619 1.619c-1.023-1.276-1.527-3.165-1.527-5.766 0-.594.024-1.156.073-1.675 3.689-.564 5.688-2.562 6.251-6.251.519-.049 1.081-.073 1.675-.073 2.684 0 4.539.482 5.794 1.499l-5.647 5.647c-.195.195-.195.512 0 .707s.512.195.707 0l5.647-5.647c1.017 1.254 1.5 3.11 1.5 5.793zm0-12c0-.552.448-1 1-1s1 .448 1 1-.448 1-1 1-1-.448-1-1zm5 3c0 .552-.448 1-1 1s-1-.448-1-1 .448-1 1-1 1 .448 1 1zm-7-1c0-.552.448-1 1-1s1 .448 1 1-.448 1-1 1-1-.448-1-1zm5 3c0 .552-.448 1-1 1s-1-.448-1-1 .448-1 1-1 1 .448 1 1z"/></svg>