<svg id="Layer_1" viewBox="0 0 24 24" xmlns="http://www.w3.org/2000/svg" data-name="Layer 1"><path d="m20.993 17.915c-.322-1.871-1.261-3.328-2.746-4.325.001-.004.003-.008.004-.012.264-1.084.397-2.394.397-3.893 0-6.006-2.05-8.685-6.648-8.685s-6.648 2.678-6.648 8.685c0 1.49.128 2.791.382 3.866.004.016.008.031.013.047-1.479.997-2.416 2.451-2.74 4.318-.025.146.015.294.11.407s.235.178.383.178h2v4c0 .276.224.5.5.5s.5-.224.5-.5v-4h11v4c0 .276.224.5.5.5s.5-.224.5-.5v-4h2c.147 0 .287-.065.382-.178s.135-.262.11-.407zm-3.345-8.23c0 1.296-.104 2.433-.308 3.387-.823-.399-1.772-.688-2.84-.859v-9.835c1.811.695 3.148 2.567 3.148 7.306zm-4.148-7.574v9.978c-.48-.042-.98-.064-1.5-.064s-1.02.022-1.5.064v-9.978c.485-.082.989-.111 1.5-.111s1.015.028 1.5.111zm-7.148 7.574c0-4.739 1.337-6.611 3.148-7.306v9.834c-1.07.172-2.022.462-2.846.864-.2-.953-.301-2.092-.301-3.392zm-2.231 7.815c.987-3.68 4.785-4.475 7.879-4.475s6.899.795 7.88 4.475z"/></svg>