<?xml version="1.0" encoding="UTF-8"?>
<svg xmlns="http://www.w3.org/2000/svg" id="Layer_1" data-name="Layer 1" viewBox="0 0 24 24">
  <path d="M22.984,21.053c-.069-.267-.34-.432-.609-.358-6.363,1.648-12.816,1.672-19.184,.073-1.604-6.338-1.58-12.761,.073-19.096,.07-.268-.09-.541-.357-.61-.271-.067-.54,.091-.609,.357-1.723,6.598-1.723,13.289,0,19.887,.045,.175,.183,.312,.358,.357,3.312,.858,6.648,1.287,9.984,1.287s6.672-.429,9.984-1.287c.268-.069,.429-.342,.359-.609Z"/>
  <path d="M5.678,15.093c.128,0,.255-.048,.353-.146l3.279-3.265c.491-.488,1.29-.49,1.783,0l1.255,1.25c.882,.877,2.314,.876,3.196-.003l4.832-4.89c.099,.704,.115,1.862-.385,3.358-.087,.262,.054,.545,.316,.633,.052,.018,.105,.026,.158,.026,.209,0,.404-.132,.475-.341,.946-2.83,.258-4.636,.177-4.832-.05-.119-.144-.216-.261-.268-.078-.033-1.904-.812-4.835,.171-.262,.088-.402,.372-.314,.633s.372,.402,.633,.315c1.471-.495,2.614-.486,3.318-.391l-4.821,4.88c-.492,.488-1.291,.49-1.783,0l-1.255-1.25c-.882-.878-2.315-.875-3.193,0l-3.279,3.265c-.196,.195-.196,.512-.002,.707,.098,.098,.227,.147,.354,.147Z"/>
</svg>
