<svg id="Layer_1" viewBox="0 0 24 24" xmlns="http://www.w3.org/2000/svg" data-name="Layer 1"><path d="m22.829 1.888c-1.305 1.063-2.913 2.481-4.944 4.932-.182.238-.571.227-.76.011-1.588-1.8-2.897-3.107-5.133-4.729-2.702 1.697-4.996 3.913-7.007 6.764-.178.268-.6.282-.797.027-.876-1.08-1.942-2.147-3.003-3.003-.215-.174-.248-.488-.074-.703.174-.216.488-.249.703-.075.949.767 1.902 1.693 2.732 2.653 2.07-2.81 4.434-5.002 7.206-6.691.171-.102.389-.095.55.02 2.291 1.634 3.652 2.936 5.187 4.643 1.911-2.246 3.446-3.595 4.707-4.623.216-.174.529-.143.704.072.175.214.143.529-.071.704zm.685 20.515c-.005-.027-.526-2.698-.526-7.402s.521-7.375.526-7.402c.054-.271-.122-.534-.393-.588-.266-.051-.533.121-.588.392-.022.111-.546 2.783-.546 7.598s.523 7.487.546 7.598c.048.238.256.402.489.402.311.003.555-.293.491-.598zm-10.497.038c-.005-.026-.529-2.711-.529-7.44 0-2.964.2-5.115.368-6.396.035-.274-.157-.525-.432-.561-.259-.037-.524.156-.561.431-.171 1.312-.376 3.508-.376 6.526 0 4.84.526 7.525.549 7.637.048.238.256.402.489.402.311.003.555-.293.491-.598zm5.499-.106c-.005-.015-.528-1.586-.528-6.334 0-1.248.041-3.521.093-4.473.016-.275-.196-.511-.472-.526-.297-.014-.511.197-.526.473-.053.967-.095 3.267-.095 4.527 0 4.98.562 6.603.586 6.669.073.204.265.33.47.33.335.006.589-.348.473-.665zm-15.989.061c-.006-.025-.539-2.569-.539-7.395 0-1.178.032-2.476.086-3.473.016-.275-.196-.511-.472-.526-.301-.014-.511.197-.526.473-.055 1.014-.088 2.332-.088 3.527 0 4.947.538 7.499.561 7.605.051.234.258.395.488.395.314.004.56-.298.49-.605zm5.022.007c-.006-.028-.562-2.879-.562-7.902 0-.276-.224-.5-.5-.5s-.5.224-.5.5c0 5.133.558 7.979.581 8.098.048.238.256.402.489.402.311.003.555-.293.491-.598z"/></svg>