<svg id="Layer_1" viewBox="0 0 24 24" xmlns="http://www.w3.org/2000/svg" data-name="Layer 1"><path d="m10.157 1.462c-.086-.019-2.126-.462-4.157-.462s-4.071.443-4.157.462c-.19.042-.339.19-.381.381-.019.086-.462 2.126-.462 4.157s.443 4.071.462 4.157c.042.19.19.339.381.381.086.019 2.126.462 4.157.462s4.071-.443 4.157-.462c.19-.042.339-.19.381-.381.019-.086.462-2.126.462-4.157s-.443-4.071-.462-4.157c-.042-.19-.19-.339-.381-.381zm-.532 8.163c-.643.121-2.158.375-3.625.375s-2.982-.254-3.625-.375c-.121-.643-.375-2.158-.375-3.625s.254-2.982.375-3.625c.643-.121 2.158-.375 3.625-.375s2.982.254 3.625.375c.121.643.375 2.158.375 3.625s-.254 2.982-.375 3.625zm.532 3.837c-.086-.019-2.126-.462-4.157-.462s-4.071.443-4.157.462c-.19.042-.339.19-.381.381-.019.086-.462 2.126-.462 4.157s.443 4.071.462 4.157c.042.19.19.339.381.381.086.019 2.126.462 4.157.462s4.071-.443 4.157-.462c.19-.042.339-.19.381-.381.019-.086.462-2.126.462-4.157s-.443-4.071-.462-4.157c-.042-.19-.19-.339-.381-.381zm-.532 8.163c-.643.121-2.158.375-3.625.375s-2.982-.254-3.625-.375c-.121-.643-.375-2.158-.375-3.625s.254-2.982.375-3.625c.643-.121 2.158-.375 3.625-.375s2.982.254 3.625.375c.121.643.375 2.158.375 3.625s-.254 2.982-.375 3.625zm3.918-15.138c.093.021 2.299.513 4.457.513s4.364-.491 4.457-.513c.192-.043.342-.194.381-.388.007-.033.162-.814.162-2.1s-.155-2.066-.162-2.1c-.039-.193-.188-.345-.381-.388-.093-.021-2.299-.513-4.457-.513s-4.364.491-4.457.513c-.192.043-.342.194-.381.388-.007.033-.162.814-.162 2.1s.155 2.066.162 2.1c.039.193.188.345.381.388zm.551-4.067c.687-.135 2.335-.42 3.906-.42s3.22.285 3.906.42c.042.319.094.865.094 1.58s-.052 1.261-.094 1.58c-.687.135-2.335.42-3.906.42s-3.22-.285-3.906-.42c-.042-.319-.094-.865-.094-1.58s.052-1.261.094-1.58zm8.363 7.093c-.093-.021-2.299-.513-4.457-.513s-4.364.491-4.457.513c-.192.043-.342.194-.381.388-.007.033-.162.814-.162 2.1s.155 2.066.162 2.1c.039.193.188.345.381.388.093.021 2.299.513 4.457.513s4.364-.491 4.457-.513c.192-.043.342-.194.381-.388.007-.033.162-.814.162-2.1s-.155-2.066-.162-2.1c-.039-.193-.188-.345-.381-.388zm-.551 4.067c-.687.135-2.335.42-3.906.42s-3.22-.285-3.906-.42c-.042-.319-.094-.865-.094-1.58s.052-1.261.094-1.58c.687-.135 2.335-.42 3.906-.42s3.22.285 3.906.42c.042.319.094.865.094 1.58s-.052 1.261-.094 1.58zm.551 3.933c-.093-.021-2.299-.513-4.457-.513s-4.364.491-4.457.513c-.192.043-.342.194-.381.388-.007.033-.162.814-.162 2.1s.155 2.066.162 2.1c.039.193.188.345.381.388.093.021 2.299.513 4.457.513s4.364-.491 4.457-.513c.192-.043.342-.194.381-.388.007-.033.162-.814.162-2.1s-.155-2.066-.162-2.1c-.039-.193-.188-.345-.381-.388zm-.551 4.067c-.687.135-2.335.42-3.906.42s-3.22-.285-3.906-.42c-.042-.319-.094-.865-.094-1.58s.052-1.261.094-1.58c.687-.135 2.335-.42 3.906-.42s3.22.285 3.906.42c.042.319.094.865.094 1.58s-.052 1.261-.094 1.58z"/></svg>