<svg id="Layer_1" viewBox="0 0 24 24" xmlns="http://www.w3.org/2000/svg" data-name="Layer 1"><path d="m16.25 2c0-.414.336-.75.75-.75s.75.336.75.75-.336.75-.75.75-.75-.336-.75-.75zm5.75 5.75c.414 0 .75-.336.75-.75s-.336-.75-.75-.75-.75.336-.75.75.336.75.75.75zm-13 12.5c-.414 0-.75.336-.75.75s.336.75.75.75.75-.336.75-.75-.336-.75-.75-.75zm6 1c-.414 0-.75.336-.75.75s.336.75.75.75.75-.336.75-.75-.336-.75-.75-.75zm-8-13.5c.414 0 .75-.336.75-.75s-.336-.75-.75-.75-.75.336-.75.75.336.75.75.75zm-5-5c.414 0 .75-.336.75-.75s-.336-.75-.75-.75-.75.336-.75.75.336.75.75.75zm2 11c.414 0 .75-.336.75-.75s-.336-.75-.75-.75-.75.336-.75.75.336.75.75.75zm15-1c.414 0 .75-.336.75-.75s-.336-.75-.75-.75-.75.336-.75.75.336.75.75.75zm3.905 9.446c-2.806-3.865-6.308-7.038-10.405-9.445v-11.261c0-.276-.224-.5-.5-.5s-.5.224-.5.5v11.261c-4.097 2.407-7.599 5.58-10.405 9.445-.162.224-.112.536.111.699.224.162.535.112.699-.111 2.724-3.752 6.119-6.838 10.095-9.175 3.976 2.337 7.372 5.422 10.095 9.175.164.225.477.272.699.111.223-.163.273-.475.111-.699z"/></svg>