<svg id="Layer_1" viewBox="0 0 24 24" xmlns="http://www.w3.org/2000/svg" data-name="Layer 1"><path d="m23 8.5c0 3.539-.85 6.171-.886 6.281-.049.149-.166.267-.315.317-.108.037-2.723.901-7.914.901-.376 0-.739-.005-1.088-.013-.276-.007-.495-.235-.489-.512.006-.274.21-.507.511-.488.342.008.697.013 1.066.013 4.137 0 6.605-.574 7.352-.778.205-.722.763-2.953.763-5.722s-.559-5-.763-5.722c-.747-.204-3.215-.778-7.352-.778s-6.607.574-7.353.778c-.06.209-.149.544-.246.982-.06.27-.325.437-.596.381-.27-.06-.44-.326-.38-.596.182-.823.339-1.307.346-1.326.049-.15.166-.268.315-.318.108-.037 2.722-.901 7.914-.901s7.806.864 7.914.901c.149.051.266.168.315.317.036.11.886 2.742.886 6.281zm-9.646 1.146c-.195-.195-.512-.195-.707 0s-.195.512 0 .707l1 1c.195.195.512.195.707 0l3.61-3.61c.036.73.025 1.461-.079 2.186-.045.298.194.573.496.57.245 0 .459-.18.495-.43.167-1.168.167-2.353 0-3.521-.032-.221-.205-.394-.424-.425-1.169-.166-2.353-.166-3.521 0-.273.039-.463.292-.424.565s.289.459.566.425c.725-.104 1.456-.115 2.186-.079l-3.257 3.257-.646-.646zm-10.354 1.354c0-2.767 1.233-4 4-4s4 1.233 4 4-1.233 4-4 4-4-1.233-4-4zm1 0c0 2.215.785 3 3 3s3-.785 3-3-.785-3-3-3-3 .785-3 3zm3 5c-4.206 0-6 1.794-6 6v.5c0 .276.224.5.5.5s.5-.224.5-.5v-.5c0-3.645 1.355-5 5-5s5 1.355 5 5v.5c0 .276.224.5.5.5s.5-.224.5-.5v-.5c0-4.206-1.794-6-6-6z"/></svg>