<?xml version="1.0" encoding="UTF-8"?>
<svg xmlns="http://www.w3.org/2000/svg" id="Layer_1" data-name="Layer 1" viewBox="0 0 24 24">
  <path d="M9.356,10.43h-1.946c.037-.196,.094-.43,.184-.667,.25-.661,.606-1.068,.608-1.071,.185-.205,.168-.521-.037-.706s-.521-.168-.706,.037c-.02,.021-.481,.54-.801,1.386-.287,.759-.311,1.476-.312,1.505-.004,.135,.047,.266,.141,.363,.094,.097,.224,.152,.359,.152h1.946c-.037,.197-.094,.431-.184,.667-.247,.653-.599,1.059-.61,1.072-.183,.205-.166,.521,.039,.705,.096,.086,.215,.128,.334,.128,.137,0,.273-.056,.372-.166,.02-.022,.481-.541,.801-1.386,.287-.759,.311-1.476,.312-1.506,.004-.135-.047-.266-.141-.363-.094-.097-.224-.152-.359-.152Z"/>
  <path d="M22.5,2.059c-.276,0-.5,.224-.5,.5v1.414h-3.308v-1.414c0-.276-.224-.5-.5-.5s-.5,.224-.5,.5V6.675c0,.868,.706,1.573,1.573,1.573h.577c.002,.218,.004,.439,.004,.663,0,4.133-.449,7.466-.602,8.484-.684,.16-2.418,.516-4.372,.547,.173-1.567,.332-3.631,.332-5.937,0-5.1-.738-8.833-.77-8.989-.038-.19-.184-.341-.373-.387-.112-.027-2.79-.667-5.959-.667s-5.847,.64-5.96,.667c-.189,.045-.335,.197-.373,.389-.008,.039-.769,3.931-.769,8.988,0,5.1,.738,8.833,.769,8.989,.039,.191,.185,.342,.375,.388,.112,.027,2.789,.656,5.958,.656s5.845-.629,5.958-.656c.19-.045,.336-.197,.375-.389,.003-.017,.152-.776,.318-2.049,2.702-.021,4.97-.634,5.067-.66,.188-.051,.328-.206,.361-.397,.007-.039,.667-3.925,.667-8.975,0-.224-.001-.445-.003-.663h.585c.868,0,1.573-.706,1.573-1.573V2.559c0-.276-.224-.5-.5-.5ZM13.511,20.478c-.793,.163-2.977,.561-5.41,.561s-4.618-.397-5.411-.561c-.177-1.008-.69-4.3-.691-8.456h1.362c.276,0,.5-.224,.5-.5s-.224-.5-.5-.5h-1.352c.071-3.667,.52-6.557,.682-7.49,.793-.166,2.98-.57,5.41-.57s4.619,.405,5.41,.57c.162,.927,.611,3.794,.682,7.49h-1.352c-.276,0-.5,.224-.5,.5s.224,.5,.5,.5h1.362c-.001,4.119-.516,7.44-.692,8.456ZM22,6.675c0,.316-.257,.573-.573,.573h-2.162c-.316,0-.573-.257-.573-.573v-1.703h3.308v1.703Z"/>
</svg>
