<svg id="Layer_1" viewBox="0 0 24 24" xmlns="http://www.w3.org/2000/svg" data-name="Layer 1"><path d="m22.949 9.968c-.017-.263-.235-.468-.499-.468h-.523c-.227-3.02-.918-5.269-.926-5.293-.055-.16-.187-.282-.351-.323-.285-.072-4.374-.814-8.15-.877v-1.506c0-.276-.224-.5-.5-.5s-.5.224-.5.5v1.506c-3.777.063-7.866.806-8.15.877-.164.042-.296.163-.351.323-.008.024-.69 2.291-.921 5.293h-.528c-.264 0-.482.205-.499.468-.032.494-.051 1.007-.051 1.532 0 .822.046 1.681.138 2.552.026.255.241.448.497.448h.533c.272 2.762.785 5.16.831 5.294.055.161.188.282.353.323.301.074 4.775.883 8.649.883.533 0 2.854-.079 3.528-.103 1.383 1.086 3.039 2.077 3.853 2.077.111 0 .206-.018.283-.057.384-.253 1.683-3.997 2.159-8.418h.542c.256 0 .471-.193.497-.448.092-.871.138-1.73.138-2.552 0-.525-.019-1.038-.051-1.532zm-3.844 11.961c-.484-.182-1.577-.708-3.099-1.928-.089-.07-.199-.109-.312-.109-.015-.001-3.06.109-3.694.108-3.253 0-6.997-.592-8.114-.796-.225-1.061-.886-4.648-.886-7.788 0-3.113.642-5.774.868-6.614 1.032-.185 4.75-.803 8.132-.803s7.108.619 8.133.803c.227.832.867 3.46.867 6.543 0 5.007-1.432 9.409-1.895 10.583zm-3.131-7.974c.086.262-.055.544-.316.631-.051.017-1.271.414-3.658.414s-3.607-.397-3.658-.414c-.261-.087-.402-.369-.316-.631s.369-.402.631-.318c.011.003 1.139.363 3.343.363s3.332-.36 3.343-.363c.262-.084.544.057.631.318zm-1.725-3.956c0-.414.336-.75.75-.75s.75.336.75.75-.336.75-.75.75-.75-.336-.75-.75zm-5.998 0c0-.414.336-.75.75-.75s.75.336.75.75-.336.75-.75.75-.75-.336-.75-.75z"/></svg>