<svg id="Layer_1" viewBox="0 0 24 24" xmlns="http://www.w3.org/2000/svg" data-name="Layer 1"><path d="m22.19 2.156c-.052-.169-.19-.299-.363-.339-.142-.034-3.542-.817-9.827-.817s-9.686.783-9.827.817c-.172.04-.311.17-.363.339-.033.107-.81 2.674-.81 6.844s.777 6.736.81 6.844c.053.169.191.299.363.339.138.033 3.367.773 9.327.814v4.422c-.77-.67-1.486-1.399-2.1-2.218-.166-.222-.48-.268-.7-.101-.221.166-.266.479-.1.7.882 1.177 1.925 2.22 3.1 3.101.178.133.422.133.6 0 1.176-.882 2.219-1.925 3.101-3.101.165-.221.12-.534-.101-.7-.219-.164-.533-.12-.7.101-.614.818-1.33 1.547-2.1 2.218v-4.422c5.96-.04 9.189-.78 9.327-.814.173-.04.312-.17.363-.339.033-.107.81-2.674.81-6.844s-.776-6.736-.81-6.844zm-.879 13.114c-.941.185-4.167.73-9.311.73s-8.369-.546-9.311-.73c-.193-.761-.689-3.028-.689-6.27s.496-5.509.689-6.27c.941-.185 4.167-.73 9.311-.73s8.369.546 9.311.73c.193.761.689 3.028.689 6.27s-.496 5.509-.689 6.27zm-9.311-10.27c-2.767 0-4 1.233-4 4s1.233 4 4 4 4-1.233 4-4-1.233-4-4-4zm0 7c-2.215 0-3-.785-3-3s.785-3 3-3 3 .785 3 3-.785 3-3 3zm6.75-6c0 .414-.336.75-.75.75s-.75-.336-.75-.75.336-.75.75-.75.75.336.75.75zm0 6c0 .414-.336.75-.75.75s-.75-.336-.75-.75.336-.75.75-.75.75.336.75.75zm-12-6c0 .414-.336.75-.75.75s-.75-.336-.75-.75.336-.75.75-.75.75.336.75.75zm0 6c0 .414-.336.75-.75.75s-.75-.336-.75-.75.336-.75.75-.75.75.336.75.75z"/></svg>