<svg id="Layer_1" viewBox="0 0 24 24" xmlns="http://www.w3.org/2000/svg" data-name="Layer 1"><path d="m22.9 19.8c-.882 1.177-1.925 2.22-3.1 3.101-.178.133-.422.133-.6 0-1.175-.881-2.218-1.924-3.1-3.101-.166-.221-.121-.534.1-.7.22-.167.534-.121.7.101.614.819 1.331 1.548 2.1 2.218v-19.919c0-.276.224-.5.5-.5s.5.224.5.5v19.918c.77-.67 1.486-1.399 2.1-2.218.167-.221.479-.266.7-.101.221.166.266.479.1.7zm-8.9-13.313s0 .005 0 .008v.005 12c-.082 2.974-2.268 4.482-6.498 4.5-4.234-.016-6.42-1.525-6.502-4.486v-12.028c.055-2.035 1.227-4.465 6.498-4.486 4.12.018 6.427 1.611 6.502 4.487zm-12 7.999c.064 2.351 1.864 3.5 5.502 3.514 4.842-.02 5.457-2.015 5.498-3.514v-1.236c-1.036 1.151-2.871 1.739-5.498 1.75-2.629-.01-4.466-.598-5.502-1.749v1.236zm11-4v-1.243c-1.036 1.157-2.871 1.745-5.498 1.756-2.629-.01-4.466-.598-5.502-1.749v1.236c.064 2.351 1.864 3.5 5.502 3.514 4.842-.02 5.457-2.015 5.498-3.514zm-11-3.987c.071 2.342 1.871 3.487 5.502 3.501 4.842-.02 5.457-2.015 5.498-3.514-.06-2.289-1.911-3.471-5.502-3.486-5.376.021-5.474 2.622-5.498 3.499zm11 11.987v-1.236c-1.036 1.151-2.871 1.739-5.498 1.75-2.629-.01-4.466-.598-5.502-1.749v1.249c.064 2.337 1.864 3.486 5.502 3.5 4.842-.02 5.457-2.015 5.498-3.514z"/></svg>