<svg id="Layer_1" viewBox="0 0 24 24" xmlns="http://www.w3.org/2000/svg" data-name="Layer 1"><path d="m22.446 10.335c-.022-.029-.031-.061-.045-.095-.175-.289-4.377-7.086-11.293-9.218-.086-.026-.178-.03-.266-.008-5.672 1.375-9.695 6.444-9.781 12.325-.036 1.802-.126 4.217.081 5.951.155 1.591 1.368 2.878 2.948 3.13 1.654.265 4.37.58 7.91.58 6.294 0 9.953-.976 10.105-1.018.159-.043.287-.162.341-.317.022-.064.554-1.626.554-5.665s-.531-5.601-.554-5.665zm-11.501-8.316c4.93 1.574 8.471 5.777 9.9 7.722-1.586-.302-4.618-.742-8.845-.742-3.537 0-6.254.315-7.91.58-.585.093-1.119.33-1.568.67 1.136-3.989 4.292-7.177 8.423-8.23zm10.625 19.065c-.956.221-4.375.916-9.57.916-3.475 0-6.134-.309-7.752-.568-1.132-.18-2-1.101-2.11-2.238-.092-.945-.138-2.02-.138-3.193s.046-2.249.138-3.193c.11-1.138.979-2.059 2.11-2.24 1.62-.259 4.28-.567 7.752-.567 5.195 0 8.614.695 9.57.916.137.568.43 2.132.43 5.084s-.294 4.518-.43 5.084z"/></svg>