<?xml version="1.0" encoding="UTF-8"?>
<svg xmlns="http://www.w3.org/2000/svg" id="Layer_1" data-name="Layer 1" viewBox="0 0 24 24">
  <path d="M22.005,22h-.822c-1.606-.653-3.218-2.679-4.227-5.319-.71-1.862-.995-3.573-.831-4.968h.817c.276,0,.5-.224,.5-.5s-.224-.5-.5-.5h-1.148c.151-.111,.292-.232,.423-.362,.868-.868,1.269-2.138,1.261-3.999-.014-3.688-1.708-5.338-5.493-5.352h-.045c-1.907,0-3.267,.432-4.154,1.321-.868,.868-1.269,2.138-1.261,3.999,.008,2.101,.562,3.541,1.737,4.393h-1.202c-.276,0-.5,.224-.5,.5s.224,.5,.5,.5h.817c.164,1.395-.121,3.106-.831,4.968-1.008,2.64-2.621,4.666-4.227,5.319h-.822c-.276,0-.5,.224-.5,.5s.224,.5,.5,.5H22.005c.276,0,.5-.224,.5-.5s-.224-.5-.5-.5ZM7.523,6.316c-.007-1.576,.301-2.621,.968-3.288,.691-.692,1.818-1.028,3.446-1.028h.042c3.719,.014,4.487,1.751,4.497,4.356,.007,1.576-.301,2.621-.968,3.288-.697,.698-1.836,1.068-3.488,1.028-3.719-.013-4.487-1.75-4.497-4.355Zm.454,10.722c.76-1.991,1.063-3.779,.904-5.325h6.236c-.158,1.545,.145,3.334,.904,5.325,.815,2.136,1.982,3.878,3.282,4.962H4.696c1.3-1.085,2.467-2.826,3.282-4.962Z"/>
</svg>
