<?xml version="1.0" encoding="UTF-8"?>
<svg xmlns="http://www.w3.org/2000/svg" id="Layer_1" data-name="Layer 1" viewBox="0 0 24 24">
  <path d="M15.384,9.025c-1.358-.019-2.303,.305-2.946,.949-.177,.177-.328,.378-.454,.604-.507-.878-1.494-1.545-3.389-1.552-1.337,.037-2.303,.306-2.947,.949-.645,.645-.942,1.59-.937,2.975,.006,1.688,.417,3.933,3.905,3.946h.032c1.322,0,2.275-.311,2.914-.949,.177-.177,.328-.378,.454-.604,.507,.878,1.494,1.545,3.389,1.552h.032c1.322,0,2.275-.311,2.914-.949,.645-.645,.942-1.59,.938-2.975-.007-1.688-.418-3.933-3.905-3.946Zm-6.735,6.871h-.029c-2.414-.009-2.903-1.136-2.909-2.95-.004-1.101,.201-1.82,.644-2.264,.442-.441,1.164-.656,2.207-.656h.029c2.176,.008,2.787,.925,2.892,2.435h-1.827c-.276,0-.5,.224-.5,.5s.224,.5,.5,.5h1.831c-.052,.833-.257,1.404-.632,1.779-.441,.441-1.163,.656-2.206,.656Zm9.303-1.078l-1.76-1.765c-.197-.196-.513-.195-.708,0-.195,.195-.195,.512,0,.707l1.768,1.774c-.439,.243-1.041,.357-1.844,.364-2.413-.009-2.902-1.136-2.909-2.95-.004-1.101,.201-1.82,.645-2.264,.441-.441,1.163-.656,2.206-.656h.029c2.413,.009,2.902,1.136,2.909,2.95,.003,.804-.105,1.404-.337,1.842Z"/>
  <path d="M21.748,6.425c-.066-.149-.202-.256-.361-.287-.012-.002-.353-.067-.944-.159v-1.597c0-.229-.225-.447-.448-.502-2.294-.57-4.647-.692-6.991-.364-.247,.035-.431,.246-.431,.495v1.3c-.19-.002-.38-.004-.572-.004-1.988,0-3.876,.131-5.431,.289V3.29h1.51c.276,0,.5-.224,.5-.5s-.224-.5-.5-.5H4.058c-.276,0-.5,.224-.5,.5s.224,.5,.5,.5h1.511v2.416c-1.783,.211-2.933,.429-2.955,.433-.161,.031-.296,.139-.363,.289-.051,.115-1.251,2.862-1.251,6.533,0,3.702,1.201,6.421,1.252,6.535,.066,.149,.202,.256,.362,.287,.015,.003,.548,.104,1.447,.235v1.194c0,.276,.224,.5,.5,.5s.5-.224,.5-.5v-1.057c1.744,.222,4.248,.461,6.939,.461s5.194-.24,6.939-.462v1.058c0,.276,.224,.5,.5,.5s.5-.224,.5-.5v-1.194c.898-.13,1.431-.231,1.446-.234,.161-.031,.297-.139,.363-.289,.051-.115,1.251-2.862,1.251-6.533,0-3.702-1.201-6.421-1.252-6.535Zm-8.176-1.974c1.95-.225,3.904-.119,5.87,.326v1.057c-1.431-.195-3.528-.425-5.87-.501v-.882Zm7.359,14.396c-1.007,.174-4.74,.767-8.932,.767s-7.928-.593-8.933-.767c-.28-.724-1.067-3.013-1.067-5.887,0-2.851,.788-5.158,1.068-5.887,1.007-.174,4.74-.767,8.932-.767s7.929,.593,8.934,.767c.28,.721,1.066,3.003,1.066,5.886,0,2.851-.788,5.158-1.068,5.887Z"/>
</svg>
