<?xml version="1.0" encoding="UTF-8"?>
<svg xmlns="http://www.w3.org/2000/svg" id="Layer_1" data-name="Layer 1" viewBox="0 0 24 24">
  <path d="M18.224,22h-.191c-.098-1.358-.666-2.569-.762-2.764l-.176-.467c-.792-2.103-1.327-4.3-1.588-6.532l-.467-3.992h.372c.276,0,.5-.224,.5-.5s-.224-.5-.5-.5h-1.128c1.221-1.195,1.186-3.129-.124-4.805-.176-.225-.37-.462-.564-.694-.793-.947-2.399-.947-3.192,0-.194,.232-.388,.47-.564,.695-1.309,1.675-1.345,3.609-.124,4.804h-1.128c-.276,0-.5,.224-.5,.5s.224,.5,.5,.5h.372l-.467,3.993c-.261,2.231-.795,4.429-1.588,6.531l-.177,.468c-.096,.197-.663,1.413-.761,2.763h-.191c-.276,0-.5,.224-.5,.5s.224,.5,.5,.5h12.448c.276,0,.5-.224,.5-.5s-.224-.5-.5-.5ZM10.627,3.057c.17-.217,.356-.446,.543-.669,.412-.492,1.247-.492,1.659,0,.187,.223,.374,.452,.543,.668,.866,1.107,1.225,2.649,.076,3.598-.812,.672-2.085,.672-2.896,0-1.149-.948-.791-2.49,.075-3.597Zm-1.141,9.297l.481-4.109h4.066l.481,4.109c.257,2.195,.769,4.359,1.523,6.437-3.012-.505-5.063-.505-8.075,0,.754-2.078,1.266-4.241,1.523-6.437Zm-1.951,7.526c3.424-.621,5.51-.618,8.932,0,.166,.384,.486,1.22,.564,2.12H6.97c.078-.892,.399-1.734,.565-2.12Z"/>
</svg>
