<?xml version="1.0" encoding="UTF-8"?>
<svg xmlns="http://www.w3.org/2000/svg" id="Layer_1" data-name="Layer 1" viewBox="0 0 24 24">
  <path d="M15.384,9.025c-1.348,.037-2.303,.306-2.946,.949-.177,.177-.328,.377-.454,.603-.507-.878-1.493-1.545-3.389-1.552-1.345,.037-2.303,.306-2.946,.949s-.942,1.59-.938,2.975c.007,1.688,.418,3.933,3.905,3.946h.032c1.322,0,2.275-.311,2.914-.949,.177-.177,.328-.377,.454-.603,.507,.878,1.493,1.545,3.389,1.552h.032c1.322,0,2.275-.311,2.914-.949,.645-.645,.942-1.59,.938-2.975-.007-1.688-.418-3.933-3.905-3.946Zm-4.528,6.214c-.445,.445-1.158,.647-2.235,.656-.823-.003-1.422-.136-1.854-.382l1.723-1.729c.194-.196,.194-.512-.002-.707-.193-.194-.512-.195-.707,0l-1.718,1.723c-.265-.483-.349-1.112-.352-1.856-.004-1.101,.2-1.82,.645-2.264,.441-.441,1.163-.656,2.206-.656h.029c2.413,.009,2.902,1.136,2.909,2.95,.004,1.101-.2,1.82-.645,2.264Zm6.789,0c-.445,.445-1.156,.647-2.235,.656-2.132-.008-2.762-.889-2.885-2.346h1.82c.276,0,.5-.224,.5-.5s-.224-.5-.5-.5h-1.836c.043-.881,.247-1.48,.636-1.869,.441-.441,1.163-.656,2.206-.656h.029c2.413,.009,2.902,1.136,2.909,2.95,.004,1.101-.2,1.82-.645,2.264Z"/>
  <path d="M21.749,6.427c-.066-.15-.202-.258-.363-.289-.022-.004-1.171-.221-2.954-.433V3.29h1.511c.276,0,.5-.224,.5-.5s-.224-.5-.5-.5h-4.021c-.276,0-.5,.224-.5,.5s.224,.5,.5,.5h1.511v2.306c-1.555-.158-3.443-.289-5.432-.289-.192,0-.383,.001-.572,.004v-1.3c0-.25-.184-.46-.431-.495-2.345-.329-4.696-.206-7.061,.382-.223,.056-.379,.255-.379,.485v1.597c-.591,.092-.932,.157-.944,.159-.159,.031-.295,.138-.361,.287-.051,.114-1.252,2.833-1.252,6.535,0,3.671,1.2,6.418,1.251,6.533,.066,.15,.202,.258,.363,.289,.015,.003,.548,.104,1.446,.234v1.194c0,.276,.224,.5,.5,.5s.5-.224,.5-.5v-1.058c1.745,.222,4.251,.462,6.939,.462s5.196-.239,6.939-.461v1.057c0,.276,.224,.5,.5,.5s.5-.224,.5-.5v-1.194c.898-.131,1.432-.232,1.447-.235,.159-.031,.295-.138,.361-.287,.051-.114,1.252-2.833,1.252-6.535,0-3.67-1.2-6.417-1.251-6.533ZM4.558,4.776c1.933-.443,3.902-.552,5.87-.325v.882c-2.342,.076-4.44,.306-5.87,.501v-1.058Zm16.375,14.071c-1.005,.174-4.735,.767-8.933,.767s-7.924-.592-8.932-.767c-.28-.729-1.068-3.036-1.068-5.887,0-2.874,.787-5.163,1.067-5.887,1.005-.174,4.735-.767,8.933-.767s7.925,.593,8.933,.767c.28,.728,1.067,3.027,1.067,5.887s-.787,5.164-1.067,5.887Z"/>
</svg>
