<?xml version="1.0" encoding="UTF-8"?>
<svg xmlns="http://www.w3.org/2000/svg" id="Layer_1" data-name="Layer 1" viewBox="0 0 24 24">
  <path d="M20.363,18.176c-.339-.063-.679-.123-1.021-.178,.191-1.295,.402-3.225,.402-5.422,0-1.3-.071-2.625-.212-3.946,.455-.016,1.009-.024,1.011-.024,.156-.003,.303-.079,.396-.206,.043-.06,1.068-1.487,1.068-3.396,0-1.924-1.026-3.338-1.07-3.397-.085-.115-.215-.188-.357-.201-.046-.004-4.574-.405-8.579-.405S3.467,1.401,3.421,1.405c-.144,.013-.274,.087-.359,.204-.043,.06-1.068,1.487-1.068,3.395,0,1.924,1.026,3.338,1.07,3.398,.093,.125,.238,.201,.394,.203,0,0,.557,.009,1.013,.025-.142,1.325-.214,2.65-.214,3.945,0,2.204,.21,4.129,.399,5.423-.341,.055-.68,.115-1.018,.178-.135,.025-.253,.104-.327,.219-.047,.072-1.156,1.8-1.156,4.105,0,.276,.224,.5,.5,.5H21.347c.276,0,.5-.224,.5-.5,0-2.325-1.11-4.036-1.158-4.108-.074-.113-.191-.191-.325-.216ZM5.256,12.575c0-1.428,.09-2.894,.267-4.356,.017-.133-.021-.268-.105-.373s-.207-.172-.341-.185c-.238-.024-.944-.042-1.335-.051-.243-.406-.748-1.396-.748-2.606,0-1.217,.521-2.224,.76-2.623,.658-.055,2.576-.205,4.796-.3v3.146c0,.276,.224,.5,.5,.5s.5-.224,.5-.5V2.043c.811-.027,1.643-.043,2.451-.043s1.64,.017,2.451,.043v3.184c0,.276,.224,.5,.5,.5s.5-.224,.5-.5V2.081c2.224,.095,4.143,.246,4.799,.3,.238,.392,.757,1.386,.757,2.623,0,1.2-.506,2.196-.749,2.606-.391,.009-1.095,.027-1.331,.05-.135,.013-.257,.08-.341,.185-.085,.105-.123,.239-.106,.373,.176,1.457,.265,2.922,.265,4.357,0,2.136-.206,4.013-.39,5.273-4.191-.586-8.519-.585-12.71,0-.185-1.259-.388-3.131-.388-5.273Zm-2.082,9.425c.11-1.375,.643-2.469,.87-2.882,5.211-.945,10.702-.946,15.913,0,.228,.409,.76,1.497,.87,2.882H3.174Z"/>
  <path d="M14.344,13.932c.227-.052,.388-.254,.388-.487v-2.867c0-1.494-1.226-2.709-2.731-2.709s-2.731,1.215-2.731,2.709v2.867c0,.233,.161,.435,.388,.487,.767,.176,1.556,.264,2.344,.264s1.577-.088,2.344-.264Zm-4.075-3.354c0-.942,.776-1.709,1.731-1.709s1.731,.767,1.731,1.709v2.46c-1.141,.211-2.322,.211-3.463,0v-2.46Z"/>
</svg>
