<?xml version="1.0" encoding="UTF-8"?>
<svg xmlns="http://www.w3.org/2000/svg" id="Layer_1" data-name="Layer 1" viewBox="0 0 24 24">
  <path d="M12.32,18.406c-.019-.003-.123-.02-.299-.044l-1.834-11.474c.651-.12,1.068-.236,1.103-.246,.266-.075,.42-.351,.346-.617-.075-.266-.346-.419-.617-.346-.005,.001-.15,.042-.4,.098,.568-2.481,.565-2.578,.563-2.65-.008-.232-.175-.429-.403-.474-.591-.116-1.837-.273-3.005-.311v-.842c0-.276-.224-.5-.5-.5s-.5,.224-.5,.5v.843c-1.162,.038-2.404,.195-2.995,.311-.229,.045-.396,.242-.403,.474-.002,.072-.005,.169,.556,2.65-.252-.057-.397-.097-.402-.099-.271-.075-.542,.08-.617,.346-.074,.266,.08,.542,.346,.617,.036,.01,.454,.126,1.108,.247l-1.835,11.472c-.178,.025-.284,.042-.303,.044-.155,.025-.289,.121-.362,.259-.029,.054-.704,1.348-.704,3.064,0,.286,.019,.56,.05,.818,.029,.252,.242,.441,.496,.441H12.84c.253,0,.466-.188,.496-.439,.032-.259,.051-.534,.051-.82,0-1.731-.676-3.013-.705-3.066-.073-.137-.207-.232-.361-.257ZM4.46,3.553c.735-.108,1.846-.219,2.814-.219s2.083,.11,2.819,.219c-.121,.556-.338,1.521-.547,2.429-.639,.099-1.433,.185-2.272,.185s-1.633-.086-2.272-.185c-.208-.92-.427-1.898-.543-2.428Zm.895,3.489c.574,.072,1.229,.124,1.919,.124s1.349-.053,1.924-.125l1.789,11.195c-.93-.099-2.261-.204-3.713-.204s-2.779,.105-3.71,.204l1.79-11.194Zm7.026,14.947H2.168c-.004-.085-.006-.171-.006-.259,0-1.078,.318-1.976,.486-2.375,.67-.093,2.541-.323,4.626-.323s3.958,.23,4.627,.323c.168,.396,.485,1.288,.485,2.375,0,.088-.002,.174-.006,.259Z"/>
  <path d="M22.263,19.042c-.071-.146-.208-.25-.367-.279,.1-.743,.15-1.489,.15-2.223,0-1.566-.226-3.248-.354-4.079,.255-.029,.453-.244,.453-.507v-1.851c0-.282-.229-.511-.511-.511s-.511,.228-.511,.511v1.34h-2.839v-1.34c0-.282-.228-.511-.511-.511s-.511,.228-.511,.511v1.34h-2.84v-1.34c0-.282-.229-.511-.511-.511s-.511,.228-.511,.511v1.851c0,.263,.198,.479,.454,.507-.129,.834-.355,2.525-.355,4.079,0,.165,.003,.33,.008,.495l.056,.009,.478,.892c.057,.105,.386,.744,.628,1.712,.734-.092,1.874-.202,3.104-.202,1.62,0,3.08,.191,3.667,.279,.139,.369,.375,1.138,.375,2.083,0,.058,0,.115-.003,.172h-6.887c-.008,.261-.028,.514-.058,.755l-.032,.266h7.453c.26,0,.479-.195,.508-.454,.026-.233,.041-.481,.041-.739,0-1.56-.552-2.717-.575-2.765Zm-1.378-.425c-.762-.092-1.883-.194-3.111-.194s-2.35,.102-3.113,.195c-.092-.689-.139-1.387-.139-2.078,0-1.571,.252-3.343,.368-4.076h5.767c.116,.73,.367,2.491,.367,4.076,0,.686-.047,1.383-.14,2.078Z"/>
</svg>
