<?xml version="1.0" encoding="UTF-8"?>
<svg xmlns="http://www.w3.org/2000/svg" id="Layer_1" data-name="Layer 1" viewBox="0 0 24 24">
  <path d="M22.95,14.162C19.446,6.95,12.523,3.326,12.23,3.176c-.144-.074-.313-.074-.457,0-.293,.15-7.219,3.774-10.723,10.986-.121,.249-.017,.548,.231,.669s.547,.017,.668-.231C4.956,8.41,10.778,4.881,12.001,4.19c1.224,.689,7.038,4.211,10.049,10.409,.086,.178,.265,.281,.45,.281,.073,0,.147-.016,.218-.05,.249-.121,.352-.42,.231-.669Z"/>
  <path d="M12.26,9.191c-.159-.096-.358-.096-.518,0-.249,.15-6.141,3.774-9.637,10.97-.121,.249-.017,.548,.231,.669,.249,.12,.547,.017,.668-.231,2.956-6.085,7.824-9.6,8.996-10.384,1.171,.784,6.037,4.299,8.993,10.384,.086,.178,.265,.281,.45,.281,.073,0,.147-.016,.218-.05,.249-.121,.352-.42,.231-.669-3.496-7.195-9.385-10.819-9.634-10.97Z"/>
</svg>
