<svg id="Layer_1" viewBox="0 0 24 24" xmlns="http://www.w3.org/2000/svg" data-name="Layer 1"><path d="m1.711 7.677c.058.013 1.433.311 2.802.311s2.745-.298 2.802-.311c.191-.041.339-.19.381-.381.013-.058.311-1.433.311-2.802s-.298-2.745-.311-2.802c-.041-.191-.19-.339-.381-.381-.058-.013-1.433-.311-2.802-.311s-2.745.298-2.802.311c-.191.041-.339.19-.381.381-.013.058-.311 1.433-.311 2.802s.298 2.745.311 2.802c.041.191.19.339.381.381zm.532-5.453c.469-.084 1.384-.226 2.27-.226s1.801.141 2.27.226c.084.469.226 1.384.226 2.27s-.141 1.801-.226 2.27c-.469.084-1.384.226-2.27.226s-1.801-.141-2.27-.226c-.084-.469-.226-1.384-.226-2.27s.141-1.801.226-2.27zm5.453 13.058c.013-.058.311-1.433.311-2.802s-.298-2.745-.311-2.802c-.041-.191-.19-.339-.381-.381-.058-.013-1.433-.311-2.802-.311s-2.745.298-2.802.311c-.191.041-.339.19-.381.381-.013.058-.311 1.433-.311 2.802s.298 2.745.311 2.802c.041.191.19.339.381.381.058.013 1.433.311 2.802.311s2.745-.298 2.802-.311c.191-.041.339-.19.381-.381zm-.913-.532c-.469.084-1.384.226-2.27.226s-1.801-.141-2.27-.226c-.084-.469-.226-1.384-.226-2.27s.141-1.801.226-2.27c.469-.084 1.384-.226 2.27-.226s1.801.141 2.27.226c.084.469.226 1.384.226 2.27s-.141 1.801-.226 2.27zm2.914-7.073c.058.013 1.433.311 2.802.311s2.745-.298 2.802-.311c.191-.041.339-.19.381-.381.013-.058.311-1.433.311-2.802s-.298-2.745-.311-2.802c-.041-.191-.19-.339-.381-.381-.058-.013-1.433-.311-2.802-.311s-2.745.298-2.802.311c-.191.041-.339.19-.381.381-.013.058-.311 1.433-.311 2.802s.298 2.745.311 2.802c.041.191.19.339.381.381zm.532-5.453c.469-.084 1.384-.226 2.27-.226s1.801.141 2.27.226c.084.469.226 1.384.226 2.27s-.141 1.801-.226 2.27c-.469.084-1.384.226-2.27.226s-1.801-.141-2.27-.226c-.084-.469-.226-1.384-.226-2.27s.141-1.801.226-2.27zm1.265 3.656c.021.004.513.112 1.006.112s.985-.107 1.006-.112c.19-.042.338-.19.38-.38.004-.021.112-.513.112-1.006s-.107-.985-.112-1.006c-.042-.19-.19-.338-.38-.38-.021-.004-.513-.112-1.006-.112s-.985.107-1.006.112c-.19.042-.338.19-.38.38-.004.021-.112.513-.112 1.006s.107.985.112 1.006c.042.19.19.338.38.38zm.54-1.852c.277-.036.654-.036.931 0 .018.138.034.304.034.465s-.016.327-.034.465c-.277.036-.654.036-.931 0-.018-.138-.034-.304-.034-.465s.016-.327.034-.465zm10.947 16.438c0 .72-.028 1.438-.08 2.076-.023.275-.271.48-.539.457-.275-.023-.479-.264-.457-.539.043-.52.069-1.095.076-1.682-2.393-1.126-5.143-1.551-7.032-1.774-.252-.03-.441-.243-.441-.496v-5.921c0-.787-.534-1.468-1.242-1.583-.447-.072-.884.046-1.224.335-.335.285-.528.701-.528 1.141v9.023c0 .209-.131.396-.327.468-.196.071-.417.015-.552-.145-1.211-1.422-2.499-2.519-2.512-2.53-.418-.363-.98-.429-1.465-.175-.467.244-.725.776-.626 1.294 0 .003.189.912.595 1.896.105.254-.016.546-.271.652-.248.105-.547-.013-.652-.271-.445-1.075-.644-2.043-.652-2.084-.182-.952.289-1.925 1.143-2.372.844-.441 1.855-.323 2.577.302.039.033.814.693 1.743 1.667v-7.726c0-.733.321-1.426.879-1.901.559-.475 1.302-.676 2.032-.561 1.186.194 2.08 1.298 2.08 2.569v5.48c2.014.256 4.785.746 7.198 1.953.169.085.276.257.276.446z"/></svg>