<svg id="Layer_1" viewBox="0 0 24 24" xmlns="http://www.w3.org/2000/svg" data-name="Layer 1"><path d="m12 1c-7.813 0-11 3.187-11 11s3.187 11 11 11 11-3.187 11-11-3.187-11-11-11zm0 21c-7.196 0-10-2.804-10-10s2.804-10 10-10 10 2.804 10 10-2.804 10-10 10zm5.596-11.365c-.17-.549-.647-.95-1.216-1.022-.765-.098-1.455-.175-2.105-.229-.293-.689-.617-1.386-.964-2.078-.269-.529-.81-.849-1.273-.803-.546-.042-1.078.274-1.349.805-.347.69-.67 1.388-.963 2.077-.65.054-1.341.131-2.104.229-.569.072-1.047.474-1.217 1.023-.169.548 0 1.148.469 1.565.485.431.956.849 1.427 1.254-.211.767-.392 1.539-.537 2.3-.103.543.104 1.092.538 1.432.438.341 1.023.407 1.521.174.771-.357 1.485-.731 2.179-1.141.693.41 1.408.784 2.177 1.141.5.233 1.084.167 1.522-.174.435-.34.641-.888.538-1.433-.146-.76-.326-1.532-.537-2.299.472-.406.947-.829 1.468-1.291.429-.381.597-.981.428-1.529zm-1.133.818c-.563.5-1.107.984-1.655 1.449-.149.127-.211.33-.156.519.241.839.444 1.687.604 2.519.033.174-.032.35-.171.458-.14.109-.326.13-.485.056-.832-.386-1.597-.793-2.339-1.244-.16-.097-.359-.097-.52 0-.742.451-1.507.858-2.341 1.245-.159.075-.343.053-.483-.056-.139-.108-.204-.284-.171-.457.159-.833.362-1.681.604-2.52.055-.189-.007-.392-.156-.519-.548-.465-1.092-.949-1.696-1.485-.137-.122-.19-.313-.137-.487.055-.175.206-.303.388-.326.866-.112 1.636-.194 2.358-.248.188-.014.353-.133.425-.307.314-.759.669-1.531 1.052-2.292.078-.155.225-.259.426-.259h.029c.121-.012.299.095.38.257.384.763.738 1.535 1.053 2.294.072.174.236.293.425.307.723.054 1.492.136 2.359.248.181.023.332.151.387.326.053.174 0 .365-.178.523z"/></svg>