<?xml version="1.0" encoding="UTF-8"?>
<svg xmlns="http://www.w3.org/2000/svg" id="Layer_1" data-name="Layer 1" viewBox="0 0 24 24">
  <path d="M12.003,1h-.006C4.932,1.044,1.13,4.845,1.003,12.009c.133,7.25,3.831,10.949,10.997,10.991h10.497c.276,0,.5-.224,.5-.5V11.991c-.122-7.042-4.026-10.946-10.994-10.991Zm9.994,21H12.003c-6.606-.039-9.878-3.313-10-9.991,.117-6.599,3.481-9.967,9.997-10.009,4.483,.03,9.855,1.792,9.997,10v10Z"/>
  <path d="M16.253,8.361c-.608-.562-1.408-.869-2.191-.835-.712,.029-1.368,.333-1.848,.856l-.214,.233-.214-.233c-.479-.523-1.136-.827-1.848-.855-.782-.03-1.584,.272-2.191,.835-.567,.525-1.168,1.525-1.149,2.755,.022,1.385,.792,2.746,2.288,4.045,1.004,.872,2.052,1.314,3.115,1.315,1.062-.001,2.109-.444,3.113-1.315,1.496-1.299,2.266-2.66,2.288-4.045,.019-1.23-.582-2.23-1.149-2.755Zm-1.795,6.046c-1.634,1.42-3.284,1.417-4.916,0-1.273-1.105-1.927-2.217-1.944-3.306-.014-.902,.417-1.667,.829-2.006,1.291-1.061,2.319-.368,2.623-.038l.582,.635c.189,.207,.547,.207,.736,0l.582-.634c.304-.331,1.387-1.018,2.623,.037h0c.392,.362,.843,1.104,.829,2.006-.018,1.089-.671,2.201-1.944,3.306Z"/>
</svg>
