<svg id="Layer_1" viewBox="0 0 24 24" xmlns="http://www.w3.org/2000/svg" data-name="Layer 1"><path d="m14.417 11.27c.646-.444 1.083-1.151 1.083-2.27 0-2.675-2.616-2.992-4.586-2.998l-2.863-.002c-.229 0-.429.156-.485.379-.023.092-.565 2.297-.565 5.621s.542 5.528.565 5.621c.055.223.255.379.485.379h3.35c2.769-.008 5.6-.43 5.6-3.5 0-1.967-1.07-2.849-2.583-3.23zm-5.964-4.269h2.459c3.153.011 3.587.967 3.587 1.999 0 1.039-.414 2-3.419 2h-3.031c-.011 0-.022 0-.033 0 .066-1.917.308-3.353.436-4zm2.946 10h-2.945c-.15-.756-.454-2.584-.454-5v-.002c.392.009 3.215-.004 3.55.002 3.722 0 4.45.917 4.45 2.5 0 1.535-.77 2.489-4.601 2.5zm.601-16.001c-7.813 0-11 3.187-11 11s3.187 11 11 11 11-3.187 11-11-3.187-11-11-11zm0 21c-7.196 0-10-2.804-10-10s2.804-10 10-10 10 2.804 10 10-2.804 10-10 10z"/></svg>