<svg id="Layer_1" viewBox="0 0 24 24" xmlns="http://www.w3.org/2000/svg" data-name="Layer 1"><path d="m12 1c-7.813 0-11 3.187-11 11s3.187 11 11 11 11-3.187 11-11-3.187-11-11-11zm0 21c-7.196 0-10-2.804-10-10s2.804-10 10-10 10 2.804 10 10-2.804 10-10 10zm2.171-15.747c-.696-.166-1.425-.251-2.169-.253-.737.002-1.464.087-2.159.253-1.346.321-2.367 1.412-2.602 2.778-.344 2.013-.291 5.385.12 7.678.129.776.83 1.3 1.613 1.289.378 0 .819-.124 1.225-.548.355-.375 1.412-1.649 1.591-1.866l.01-.011c.079-.092.334-.082.398-.004.127.158 1.251 1.557 1.646 1.91.488.436 1.059.603 1.61.472.629-.154 1.087-.631 1.196-1.242.412-2.291.465-5.664.121-7.678-.233-1.365-1.254-2.456-2.601-2.778zm1.495 10.279c-.039.221-.208.389-.447.447-.227.055-.466-.028-.708-.245-.251-.225-1.072-1.218-1.537-1.797-.454-.548-1.459-.558-1.928-.022l-.019.022c-.012.015-1.199 1.45-1.553 1.824-.145.15-.339.295-.696.213-.23-.051-.392-.217-.433-.442-.394-2.196-.446-5.417-.118-7.333.166-.971.892-1.745 1.848-1.974.62-.147 1.269-.224 1.927-.226.664.002 1.315.078 1.937.226.956.229 1.682 1.004 1.847 1.975.328 1.917.275 5.137-.119 7.332z"/></svg>