<svg id="Layer_1" viewBox="0 0 24 24" xmlns="http://www.w3.org/2000/svg" data-name="Layer 1"><path d="m12 1c-7.813 0-11 3.187-11 11s3.187 11 11 11 11-3.187 11-11-3.187-11-11-11zm0 21c-7.196 0-10-2.804-10-10s2.804-10 10-10 10 2.804 10 10-2.804 10-10 10zm5.14-13.355c-.057-.016-.939-.268-2.308-.452-.166-.695-.58-1.688-.598-1.73-.063-.151-.197-.263-.359-.296-.032-.007-.803-.165-1.874-.165s-1.826.158-1.858.165c-.174.038-.316.166-.371.336-.014.041-.324 1.004-.487 1.678-1.433.185-2.368.449-2.426.466-.265.078-.417.355-.34.62.076.268.361.417.62.341.006-.002.168-.047.441-.11-.053.761-.081 1.622-.081 2.576 0 3.117.497 4.969.518 5.046.044.16.164.287.32.341.064.022 1.603.542 3.662.542s3.598-.52 3.662-.542c.156-.054.276-.181.32-.341.021-.077.518-1.929.518-5.046 0-.948-.028-1.809-.081-2.576.274.063.436.109.441.11.267.073.542-.076.619-.341s-.074-.542-.34-.62zm-6.507-1.549c.287-.041.774-.096 1.368-.096.616 0 1.125.059 1.413.101.096.244.24.625.349.978-.547-.046-1.133-.079-1.763-.079-.589 0-1.137.03-1.654.071.095-.351.209-.726.286-.975zm4.867 4.976c0 2.315-.29 3.916-.421 4.519-.497.137-1.662.41-3.079.41s-2.583-.273-3.08-.41c-.13-.603-.42-2.203-.42-4.519 0-1.05.035-1.978.1-2.779.866-.148 2.053-.292 3.4-.292s2.535.145 3.401.292c.065.809.099 1.738.099 2.779z"/></svg>