<svg id="Layer_1" viewBox="0 0 24 24" xmlns="http://www.w3.org/2000/svg" data-name="Layer 1"><path d="m12 1c-7.607 0-11 3.393-11 11 0 7.71 3.29 11 11 11 5.121 0 11-1.25 11-11 0-7.71-3.29-11-11-11zm0 21c-7.103 0-10-2.897-10-10 0-7.009 2.991-10 10-10 7.103 0 10 2.897 10 10s-2.897 10-10 10z"/><path d="m13.006 6c-.026 0-.053 0-.079 0-3.609 0-4.714 2.993-4.725 3.023-.092.26.043.543.302.637.262.093.546-.042.639-.3.034-.092.81-2.135 3.357-2.343v10.483c0 .276.224.5.5.5s.5-.224.5-.5v-11c0-.274-.22-.497-.494-.5z"/></svg>