<svg id="Layer_1" viewBox="0 0 24 24" xmlns="http://www.w3.org/2000/svg" data-name="Layer 1"><path d="m1 12c0 9.75 5.879 11 11 11 7.71 0 11-3.29 11-11 0-9.75-5.878-11-11-11-7.71 0-11 3.29-11 11zm1 0c0-7.103 2.897-10 10-10s10 2.897 10 10-2.897 10-10 10-10-2.897-10-10z"/><path d="m6.164 14.162c-.295.904-.053 1.88.632 2.552.152.17 1.361 1.47 3.292 1.128 1.846-.326 3.842-1.641 5.012-2.756 1.141-1.169 2.44-3.151 2.799-4.97.371-1.997-1.101-3.239-1.164-3.291-.64-.653-1.629-.898-2.546-.605-.795.254-1.419.885-1.67 1.689-.287.921-.045 1.917.629 2.602l.112.113c-.176.503-.648 1.198-1.04 1.598-.398.38-1.105.85-1.614 1.022l-.119-.115c-.688-.666-1.696-.902-2.616-.621-.812.247-1.449.865-1.707 1.653zm.951.311c.156-.479.548-.855 1.047-1.007.579-.177 1.203-.03 1.631.383l.319.308c.113.109.276.159.425.134.846-.134 1.912-.904 2.386-1.357.47-.479 1.248-1.536 1.385-2.377.025-.158-.026-.318-.138-.432l-.311-.315c-.415-.42-.563-1.034-.386-1.601.153-.493.634-1.091 1.488-1.108.406-.008.801.162 1.099.463.08.07 1.116.963.855 2.366-.316 1.603-1.528 3.43-2.52 4.447-1.017.969-2.865 2.169-4.492 2.484-1.438.261-2.386-.838-2.397-.85-.419-.404-.569-.994-.392-1.537z"/></svg>