<svg id="Layer_1" viewBox="0 0 24 24" xmlns="http://www.w3.org/2000/svg" data-name="Layer 1"><path d="m17.254 9.064c-.383.217-1.171.69-1.87 1.263-.131-.936-.327-1.497-.339-1.531-.05-.139-.159-.248-.298-.299-.056-.021-1.389-.497-3.997-.497s-3.941.477-3.997.497c-.139.051-.248.16-.298.299-.019.051-.455 1.271-.455 3.204s.437 3.153.455 3.204c.05.139.159.248.298.299.056.021 1.389.497 3.997.497s3.941-.477 3.997-.497c.139-.051.248-.16.298-.299.012-.034.212-.606.343-1.558.61.53 1.327 1.036 1.899 1.306.316.161.724-.097.713-.452v-5c.012-.371-.429-.629-.746-.436zm-6.504 5.936c-1.817 0-2.965-.246-3.425-.369-.114-.412-.325-1.351-.325-2.631s.211-2.219.325-2.631c.46-.123 1.608-.369 3.425-.369s2.965.246 3.425.369c.114.412.325 1.351.325 2.631s-.211 2.219-.325 2.631c-.46.123-1.608.369-3.425.369zm6.25-1.367c-.508-.339-1.077-.795-1.5-1.248v-.815c.352-.364.88-.779 1.5-1.183zm-5-12.633c-7.813 0-11 3.187-11 11s3.187 11 11 11 11-3.187 11-11-3.187-11-11-11zm0 21c-7.196 0-10-2.804-10-10s2.804-10 10-10 10 2.804 10 10-2.804 10-10 10z"/></svg>