<svg id="Layer_1" viewBox="0 0 24 24" xmlns="http://www.w3.org/2000/svg" data-name="Layer 1"><path d="m9.355 7.305c-.099.657-.314 2.3-.348 4.195h5.493c.276 0 .5.224.5.5s-.224.5-.5.5h-5.493c.034 1.894.25 3.538.348 4.195.451.111 1.478.305 3.145.305.974 0 2.324-.1 2.927-.189.268-.037.527.148.567.421.041.273-.147.527-.421.568-.718.106-2.153.2-3.073.2-2.535 0-3.713-.426-3.762-.444-.166-.062-.288-.207-.318-.382-.018-.097-.42-2.412-.42-5.174s.402-5.077.42-5.174c.03-.175.152-.32.318-.382.049-.018 1.227-.444 3.762-.444.92 0 2.355.093 3.073.2.273.041.462.295.421.568-.04.273-.299.46-.567.421-.603-.089-1.953-.189-2.927-.189-1.666 0-2.691.194-3.145.305zm13.645 4.695c0 7.813-3.187 11-11 11s-11-3.187-11-11 3.187-11 11-11 11 3.187 11 11zm-1 0c0-7.196-2.804-10-10-10s-10 2.804-10 10 2.804 10 10 10 10-2.804 10-10z"/></svg>