<svg id="Layer_1" viewBox="0 0 24 24" xmlns="http://www.w3.org/2000/svg" data-name="Layer 1"><path d="m12 1c-7.607 0-11 3.393-11 11 0 7.71 3.29 11 11 11 5.121 0 11-1.25 11-11 0-7.71-3.29-11-11-11zm0 21c-7.103 0-10-2.897-10-10 0-7.009 2.991-10 10-10 7.103 0 10 2.897 10 10s-2.897 10-10 10z"/><path d="m11.995 13.373c1.254 0 2.195-.285 2.832-.86-.129 3.056-1.47 4.366-4.531 4.487-.276.011-.491.244-.48.52.011.275.203.5.52.479 3.754-.149 5.503-2.054 5.503-5.995 0 0 .024-2.067 0-2.347-.013-3.278-2.198-3.658-3.842-3.658s-3.843.382-3.843 3.687 2.193 3.687 3.843 3.687zm0-6.373c2.072 0 2.842.728 2.843 2.685v.004c0 1.932-.798 2.685-2.843 2.685-2.072 0-2.843-.728-2.843-2.687s.771-2.687 2.843-2.687z"/></svg>