<svg id="Layer_1" viewBox="0 0 24 24" xmlns="http://www.w3.org/2000/svg" data-name="Layer 1"><path d="m12 1c-7.607 0-11 3.393-11 11 0 7.71 3.29 11 11 11 5.122 0 11-1.25 11-11 0-7.71-3.29-11-11-11zm0 21c-7.103 0-10-2.897-10-10 0-7.009 2.991-10 10-10 7.103 0 10 2.897 10 10s-2.897 10-10 10z"/><path d="m11.714 10.211c-.51 0-1.132.086-1.584.163.047-1.411.246-2.513.341-2.972.538-.216 2.119-.71 4.163-.118.267.077.542-.076.62-.34.077-.265-.075-.543-.34-.62-2.936-.853-5.024.236-5.112.283-.124.066-.214.182-.249.319-.018.07-.433 1.745-.433 4.053 0 .151.068.294.186.389.117.095.273.13.419.1.012-.002 1.194-.256 1.989-.256 2.243 0 3.117.849 3.117 3.029 0 2.376-.838 2.76-2.843 2.76-2.054 0-2.687-.48-2.82-2.142-.022-.275-.259-.48-.539-.458-.275.022-.48.264-.458.539.205 2.541 1.674 3.062 3.817 3.062 2.373 0 3.843-.629 3.843-3.76 0-2.711-1.347-4.029-4.117-4.029z"/></svg>