<svg id="Layer_1" viewBox="0 0 24 24" xmlns="http://www.w3.org/2000/svg" data-name="Layer 1"><path d="m12 1c-7.813 0-11 3.187-11 11s3.187 11 11 11 11-3.187 11-11-3.187-11-11-11zm0 21c-7.196 0-10-2.804-10-10s2.804-10 10-10 10 2.804 10 10-2.804 10-10 10zm3.576-15.563c.018.136.424 3.363.424 6.113 0 3.718-1.43 5.45-4.5 5.45-2.086 0-3.346-.728-3.966-2.292-.102-.256.023-.547.28-.649.256-.102.547.023.649.281.461 1.164 1.369 1.66 3.036 1.66 2.486 0 3.5-1.29 3.5-4.45 0-2.687-.412-5.954-.416-5.987-.035-.274.159-.524.433-.559.269-.034.524.159.56.433z"/></svg>