<svg id="Layer_1" viewBox="0 0 24 24" xmlns="http://www.w3.org/2000/svg" data-name="Layer 1"><path d="m16.992 17.025c.049.272-.132.532-.403.581-.735.131-2.052.388-3.803.394-2.064 0-3.891-.408-3.967-.425-.195-.044-.345-.201-.381-.397-.018-.097-.437-2.414-.437-5.178s.417-5.463.435-5.577c.043-.272.293-.458.571-.417.272.042.459.298.417.571-.004.027-.423 2.746-.423 5.423 0 2.076.252 3.933.366 4.666.604.114 1.965.334 3.42.334 1.662-.007 2.915-.25 3.625-.378.276-.05.532.132.581.403zm6.008-5.025c0 7.813-3.187 11-11 11s-11-3.187-11-11 3.187-11 11-11 11 3.187 11 11zm-1 0c0-7.196-2.804-10-10-10s-10 2.804-10 10 2.804 10 10 10 10-2.804 10-10z"/></svg>