<svg id="Layer_1" viewBox="0 0 24 24" xmlns="http://www.w3.org/2000/svg" data-name="Layer 1"><path d="m16 10c0-2.677-1.741-3.983-5.325-3.996-.431.001-1.323-.019-1.667 0-.253.015-.446.215-.464.462-.102.44-.545 2.53-.545 5.533 0 3.321.542 5.525.565 5.617.066.271.345.431.606.364.268-.067.431-.339.364-.606-.004-.017-.327-1.337-.469-3.43.476.036.957.055 1.434.055 1.045 0 1.893-.119 2.591-.318.292.324 1.486 1.753 1.919 3.916.053.273.324.448.588.393.271-.054.446-.317.393-.588-.406-2.031-1.39-3.457-1.915-4.105 1.517-.79 1.925-2.115 1.925-3.297zm-5.5 3c-.495 0-.993-.021-1.485-.062-.01-.302-.015-.615-.015-.938 0-2.423.306-4.255.455-5.004.243 0 .957.007 1.219.008 3.834.013 4.326 1.608 4.326 2.996 0 1.288-.467 3-4.5 3zm1.5-12c-7.813 0-11 3.187-11 11s3.187 11 11 11 11-3.187 11-11-3.187-11-11-11zm0 21c-7.196 0-10-2.804-10-10s2.804-10 10-10 10 2.804 10 10-2.804 10-10 10z"/></svg>