<svg id="Layer_1" viewBox="0 0 24 24" xmlns="http://www.w3.org/2000/svg" data-name="Layer 1"><path d="m12 1c-7.813 0-11 3.187-11 11s3.187 11 11 11 11-3.187 11-11-3.187-11-11-11zm0 21c-7.196 0-10-2.804-10-10s2.804-10 10-10 10 2.804 10 10-2.804 10-10 10zm4.422-15.624c.023.092.578 2.299.578 5.624s-.555 5.532-.578 5.624c-.048.188-.201.332-.393.367-.188.036-.385-.042-.498-.2l-7.2-10.057c-.153.944-.331 2.437-.331 4.266 0 3.189.542 5.355.547 5.376.068.268-.094.54-.361.608-.272.069-.54-.094-.607-.36-.023-.092-.578-2.299-.578-5.624s.555-5.532.578-5.624c.048-.188.201-.332.393-.367.189-.037.385.042.498.2l7.2 10.057c.153-.944.331-2.437.331-4.266 0-3.189-.542-5.355-.547-5.376-.068-.268.094-.54.361-.608.27-.072.539.094.607.36z"/></svg>