<svg id="Layer_1" viewBox="0 0 24 24" xmlns="http://www.w3.org/2000/svg" data-name="Layer 1"><path d="m15.995 6.768c-.041.273-.293.463-.568.421-.644-.096-1.955-.176-2.863-.176-1.379 0-2.639.208-3.211.319-.096.638-.291 2.127-.341 3.87.699-.083 1.936-.204 3.263-.204.722 0 1.696.034 2.265.079.275.022.481.263.459.538s-.26.483-.538.459c-.546-.043-1.486-.076-2.186-.076-1.349 0-2.633.134-3.273.213.02 2.609.401 5.189.405 5.215.041.273-.147.528-.42.569-.268.041-.529-.146-.569-.42-.017-.114-.418-2.818-.418-5.574s.403-5.077.42-5.174c.035-.197.183-.354.377-.4.072-.017 1.775-.413 3.766-.413.964 0 2.314.084 3.009.187.273.041.462.295.421.568zm7.005 5.232c0 7.813-3.187 11-11 11s-11-3.187-11-11 3.187-11 11-11 11 3.187 11 11zm-1 0c0-7.196-2.804-10-10-10s-10 2.804-10 10 2.804 10 10 10 10-2.804 10-10z"/></svg>