<svg id="Layer_1" viewBox="0 0 24 24" xmlns="http://www.w3.org/2000/svg" data-name="Layer 1"><path d="m2.476 6.081c.241.126.547.034.675-.214.645-1.244 1.573-2.153 2.839-2.779.247-.123.349-.422.227-.67-.123-.249-.424-.348-.67-.227-1.464.724-2.538 1.775-3.284 3.215-.127.245-.031.547.214.674z"/><path d="m6.005 20.919c-1.269-.624-2.2-1.53-2.848-2.772-.128-.246-.43-.339-.675-.212-.244.127-.34.43-.212.674.749 1.438 1.826 2.487 3.293 3.208.243.12.547.022.67-.228.121-.248.02-.548-.229-.669z"/><path d="m13.957 21.921c-.604.052-1.262.079-1.957.079s-1.354-.027-1.957-.079c-.272-.027-.517.18-.541.455s.18.518.455.542c.632.055 1.319.083 2.043.083s1.411-.028 2.043-.083c.275-.024.479-.266.455-.542s-.271-.489-.541-.455z"/><path d="m2.095 9.877c.026-.274-.175-.519-.45-.545-.266-.025-.519.174-.546.45-.065.68-.099 1.426-.099 2.219s.034 1.547.101 2.235c.025.258.243.452.497.452.017 0 .033 0 .05-.002.274-.027.476-.271.449-.546-.064-.656-.097-1.375-.097-2.138s.032-1.475.095-2.123z"/><path d="m22.899 9.766c-.027-.275-.276-.466-.547-.449-.274.027-.476.271-.449.546.064.656.097 1.375.097 2.138s-.032 1.475-.095 2.124c-.026.274.175.519.45.545.017.001.032.002.049.002.254 0 .472-.193.497-.452.065-.68.099-1.426.099-2.219s-.034-1.547-.101-2.234z"/><path d="m21.524 17.919c-.246-.126-.548-.032-.675.214-.645 1.245-1.573 2.153-2.839 2.778-.247.122-.349.422-.227.669.123.251.427.348.67.227 1.463-.722 2.537-1.773 3.284-3.214.127-.245.031-.547-.214-.674z"/><path d="m14.043 1.083c-.632-.055-1.319-.083-2.043-.083s-1.411.028-2.043.083c-.275.024-.479.266-.455.542.022.26.241.457.497.457.015 0 .029 0 .044-.002.604-.052 1.262-.079 1.957-.079s1.354.027 1.957.079c.015.001.029.002.044.002.256 0 .475-.196.497-.457.024-.275-.18-.518-.455-.542z"/><path d="m17.996 3.081c1.27.624 2.2 1.531 2.847 2.772.128.248.435.339.674.213.245-.127.341-.429.213-.674-.748-1.438-1.824-2.488-3.292-3.209-.247-.121-.547-.02-.67.228-.121.248-.02.548.229.669z"/></svg>