<svg id="Layer_1" viewBox="0 0 24 24" xmlns="http://www.w3.org/2000/svg" data-name="Layer 1"><path d="m12 1c-7.813 0-11 3.187-11 11s3.187 11 11 11 11-3.187 11-11-3.187-11-11-11zm0 21c-7.196 0-10-2.804-10-10s2.804-10 10-10 10 2.804 10 10-2.804 10-10 10zm3.192-15.734c.103.195 2.53 4.848 2.808 11.212.012.276-.202.509-.479.521-.007 0-.015 0-.021 0-.267 0-.488-.21-.5-.478-.199-4.59-1.597-8.33-2.296-9.938-.586 1.098-1.592 3.244-2.216 6.026-.051.229-.254.391-.488.391s-.437-.162-.488-.391c-.625-2.782-1.631-4.928-2.217-6.026-.699 1.608-2.096 5.348-2.296 9.938-.012.276-.245.509-.521.478-.276-.012-.49-.245-.478-.521.276-6.365 2.705-11.018 2.808-11.212.083-.157.242-.258.419-.266.179-.008.345.079.441.227.064.098 1.354 2.101 2.331 5.315.977-3.214 2.268-5.217 2.331-5.315.098-.148.266-.228.441-.227.177.008.337.109.42.266z"/></svg>