<svg id="Layer_1" viewBox="0 0 24 24" xmlns="http://www.w3.org/2000/svg" data-name="Layer 1"><path d="m16.499 6.531c-.405 6.404-3.952 11.078-4.103 11.273-.095.123-.241.195-.396.195s-.301-.072-.396-.195c-.151-.195-3.698-4.869-4.103-11.273-.018-.275.192-.513.467-.53.264-.027.514.191.531.468.306 4.846 2.571 8.743 3.501 10.156.93-1.413 3.195-5.311 3.501-10.156.017-.276.25-.493.531-.468.275.018.485.255.467.53zm6.501 5.469c0 7.813-3.187 11-11 11s-11-3.187-11-11 3.187-11 11-11 11 3.187 11 11zm-1 0c0-7.196-2.804-10-10-10s-10 2.804-10 10 2.804 10 10 10 10-2.804 10-10z"/></svg>