<svg id="Layer_1" viewBox="0 0 24 24" xmlns="http://www.w3.org/2000/svg" data-name="Layer 1"><path d="m12 1c-7.813 0-11 3.187-11 11s3.187 11 11 11 11-3.187 11-11-3.187-11-11-11zm0 21c-7.196 0-10-2.804-10-10s2.804-10 10-10 10 2.804 10 10-2.804 10-10 10zm5.337-14.457c-.069-.022-1.726-.543-3.137-.543-.962 0-1.713.353-2.2.627-.487-.274-1.238-.627-2.2-.627-1.411 0-3.067.521-3.137.543-.172.055-.301.197-.338.374-.003.016-.325 1.789-.325 3.805 0 1.121.101 2.078.185 2.683.118.856.804 1.561 1.706 1.752l3.895.821c.143.03.284.03.431 0l3.893-.821c.902-.189 1.589-.894 1.707-1.751.084-.605.185-1.562.185-2.684 0-2.016-.322-3.789-.325-3.805-.037-.177-.166-.319-.338-.374zm-10.162 6.724c-.08-.573-.175-1.48-.175-2.545 0-1.44.172-2.749.257-3.311.514-.142 1.613-.411 2.543-.411.728 0 1.285.262 1.7.496v7.399l-3.402-.718c-.491-.104-.861-.47-.923-.911zm9.65 0c-.062.441-.432.807-.923.91l-3.402.714v-7.396c.415-.234.973-.496 1.7-.496.93 0 2.029.27 2.543.411.086.564.257 1.872.257 3.311 0 1.064-.095 1.972-.175 2.546z"/></svg>