<svg id="Layer_1" viewBox="0 0 24 24" xmlns="http://www.w3.org/2000/svg" data-name="Layer 1"><path d="m12 1c-7.813 0-11 3.187-11 11s3.187 11 11 11 11-3.187 11-11-3.187-11-11-11zm7.32 2.973-7.32 7.32-7.32-7.32c1.606-1.361 3.987-1.973 7.32-1.973s5.714.612 7.32 1.973zm-17.32 8.027c0-3.333.612-5.714 1.973-7.32l7.32 7.32-7.32 7.32c-1.361-1.606-1.973-3.987-1.973-7.32zm2.68 8.027 7.32-7.32 7.32 7.32c-1.606 1.361-3.987 1.973-7.32 1.973s-5.714-.612-7.32-1.973zm15.348-.707-7.32-7.32 7.32-7.32c1.361 1.606 1.973 3.987 1.973 7.32s-.612 5.714-1.973 7.32z"/></svg>