<svg id="Layer_1" viewBox="0 0 24 24" xmlns="http://www.w3.org/2000/svg" data-name="Layer 1"><path d="m15.986 8.014c-.14-4.903-2.398-7.014-7.486-7.014-5.257 0-7.5 2.243-7.5 7.5 0 5.089 2.111 7.347 7.014 7.486.14 4.903 2.398 7.014 7.486 7.014 5.257 0 7.5-2.243 7.5-7.5 0-5.089-2.111-7.347-7.014-7.486zm-13.986.486c0-4.738 1.762-6.5 6.5-6.5 4.57 0 6.366 1.647 6.488 6.014-4.714.142-6.832 2.259-6.974 6.974-4.367-.122-6.014-1.918-6.014-6.488zm13.5 13.5c-4.57 0-6.366-1.647-6.488-6.014 4.714-.142 6.832-2.259 6.974-6.974 4.367.122 6.014 1.918 6.014 6.488 0 4.738-1.762 6.5-6.5 6.5z"/></svg>