<svg id="Layer_1" viewBox="0 0 24 24" xmlns="http://www.w3.org/2000/svg" data-name="Layer 1"><path d="m15.453 6.451c-.069-.019-1.711-.451-3.453-.451-2.066 0-3.465.598-3.523.624-.253.11-.369.404-.259.657.108.254.403.369.656.261.013-.005 1.28-.541 3.126-.541 1.061 0 2.106.18 2.7.303-.28.951-.968 3.103-1.952 5.016-1.878 3.647-3.26 4.777-3.271 4.787-.218.17-.257.484-.086.702.099.126.245.192.394.192.108 0 .217-.035.308-.106.062-.049 1.547-1.236 3.545-5.117 1.355-2.633 2.139-5.592 2.171-5.717.07-.267-.089-.539-.354-.61z"/><path d="m12 1c-7.607 0-11 3.393-11 11 0 7.71 3.29 11 11 11 5.121 0 11-1.25 11-11 0-7.71-3.29-11-11-11zm0 21c-7.103 0-10-2.897-10-10 0-7.009 2.99-10 10-10 7.103 0 10 2.897 10 10s-2.897 10-10 10z"/></svg>