<svg id="Layer_1" viewBox="0 0 24 24" xmlns="http://www.w3.org/2000/svg" data-name="Layer 1"><path d="m14.5 5.5h-1c-.276 0-.5.224-.5.5s.224.5.5.5h1c.276 0 .5-.224.5-.5s-.224-.5-.5-.5z"/><path d="m19 5.5h-1c-.276 0-.5.224-.5.5s.224.5.5.5h1c.276 0 .5-.224.5-.5s-.224-.5-.5-.5z"/><path d="m14.5 9.5h-1c-.276 0-.5.224-.5.5s.224.5.5.5h1c.276 0 .5-.224.5-.5s-.224-.5-.5-.5z"/><path d="m19 9.5h-1c-.276 0-.5.224-.5.5s.224.5.5.5h1c.276 0 .5-.224.5-.5s-.224-.5-.5-.5z"/><path d="m14.5 13.5h-1c-.276 0-.5.224-.5.5s.224.5.5.5h1c.276 0 .5-.224.5-.5s-.224-.5-.5-.5z"/><path d="m19 13.5h-1c-.276 0-.5.224-.5.5s.224.5.5.5h1c.276 0 .5-.224.5-.5s-.224-.5-.5-.5z"/><path d="m14.5 17.5h-1c-.276 0-.5.224-.5.5s.224.5.5.5h1c.276 0 .5-.224.5-.5s-.224-.5-.5-.5z"/><path d="m19 17.5h-1c-.276 0-.5.224-.5.5s.224.5.5.5h1c.276 0 .5-.224.5-.5s-.224-.5-.5-.5z"/><path d="m5 10h2c.276 0 .5-.224.5-.5s-.224-.5-.5-.5h-2c-.276 0-.5.224-.5.5s.224.5.5.5z"/><path d="m7 13.5h-2c-.276 0-.5.224-.5.5s.224.5.5.5h2c.276 0 .5-.224.5-.5s-.224-.5-.5-.5z"/><path d="m7 18h-2c-.276 0-.5.224-.5.5s.224.5.5.5h2c.276 0 .5-.224.5-.5s-.224-.5-.5-.5z"/><path d="m22.276 2.626c-.026-.157-.126-.293-.268-.365-.103-.051-2.542-1.261-5.8-1.261s-5.788.993-5.894 1.036c-.19.076-.314.26-.314.464v1.659c-1.081-.821-2.742-1.88-2.982-2.032-.166-.105-.378-.103-.542.004 0 0-2.386 1.563-3.164 2.109-.864.608-1.158 1.029-1.238 1.298-.154.363-1.075 2.729-1.075 7.461 0 5.01 1.028 8.452 1.071 8.596.024.079.067.15.125.208.123.123 1.291 1.196 4.554 1.196 1.945 0 3.094-.591 3.705-.983.583.212 2.903.983 5.754.983 3.265 0 5.848-1.043 5.956-1.087.168-.069.286-.224.307-.404.005-.045.528-4.533.528-9.509s-.716-9.331-.724-9.374zm-19.288 18.536c-.19-.697-.988-3.869-.988-8.162 0-4.807.995-7.071 1.027-7.159.001-.003.125-.265.86-.782.611-.43 2.223-1.491 2.866-1.914.934.601 2.723 1.791 3.247 2.309v15.665c-.498.33-1.488.881-3.25.881-2.384 0-3.47-.631-3.762-.838zm18.524-.073c-.729.257-2.832.911-5.303.911-2.403 0-4.448-.599-5.208-.853v-18.295c.753-.254 2.78-.852 5.208-.852 2.466 0 4.466.767 5.122 1.051.151 1 .669 4.745.669 8.949 0 4.178-.373 8.007-.488 9.089z"/></svg>