<?xml version="1.0" encoding="UTF-8"?>
<svg xmlns="http://www.w3.org/2000/svg" id="Layer_1" data-name="Layer 1" viewBox="0 0 24 24">
  <path d="M22.725,9.244c-.246-.125-.547-.025-.671,.222-.017,.033-1.707,3.347-5.441,7.082-3.285,3.285-6.339,5.059-7.013,5.432-4.249-.648-6.934-3.332-7.581-7.579,.373-.674,2.147-3.727,5.433-7.011,3.308-3.308,6.286-5.011,6.946-5.369,2.725,.429,4.307,2.01,4.707,4.702-.357,.659-2.072,3.65-5.37,6.948-2.412,2.411-4.312,3.269-4.942,3.506-.919-.72-1.225-1.033-1.954-1.993,.236-.627,1.094-2.529,3.509-4.945,1.049-1.048,2.162-2.033,3.308-2.927,.218-.169,.257-.484,.087-.702-.171-.219-.483-.257-.702-.086-1.178,.918-2.321,1.93-3.399,3.008-3.17,3.17-3.817,5.517-3.844,5.615-.041,.154-.004,.316,.092,.438,.961,1.278,1.268,1.589,2.503,2.546,.123,.096,.285,.127,.435,.088,.098-.026,2.445-.672,5.616-3.843,3.841-3.841,5.556-7.198,5.627-7.339,.045-.089,.062-.19,.05-.29-.422-3.247-2.46-5.287-5.74-5.743-.101-.015-.202,.003-.294,.048-.14,.07-3.482,1.77-7.34,5.627C2.921,10.505,1.13,13.936,1.056,14.08c-.047,.091-.065,.196-.051,.298,.668,4.806,3.81,7.946,8.617,8.615,.023,.003,.046,.005,.069,.005,.079,0,.158-.019,.229-.056,.144-.074,3.575-1.865,7.398-5.688,3.857-3.857,5.557-7.199,5.628-7.34,.123-.247,.023-.547-.223-.671Z"/>
</svg>
