<svg id="Layer_1" viewBox="0 0 24 24" xmlns="http://www.w3.org/2000/svg" data-name="Layer 1"><path d="m19.845 4.312c-.057-.145-.179-.255-.329-.297-.062-.018-1.491-.417-3.798-.692-.427-1.582-1.618-2.322-3.717-2.322s-3.291.74-3.717 2.322c-2.308.275-3.736.674-3.798.692-.15.042-.272.152-.329.297-.047.119-1.155 2.989-1.155 8.688s1.108 8.569 1.155 8.688c.052.132.157.235.29.285.112.042 2.794 1.027 7.555 1.027s7.443-.985 7.555-1.027c.133-.05.238-.153.29-.285.047-.119 1.155-2.989 1.155-8.688s-1.108-8.569-1.155-8.688zm-.856 16.796c-.715.223-3.171.892-6.989.892s-6.276-.668-6.989-.892c-.245-.747-1.011-3.455-1.011-8.108 0-4.593.753-7.309 1.005-8.088.53-.131 1.877-.433 3.741-.636.22-.024.397-.189.438-.407.207-1.122.765-1.869 2.816-1.869s2.61.747 2.816 1.869c.04.217.218.383.438.407 1.865.204 3.212.506 3.742.636.252.775 1.004 3.477 1.004 8.088s-.767 7.357-1.011 8.108zm-2.068-11.339c-1.283 2.007-3.105 4.521-5.837 6.16-.162.097-.365.095-.525-.006-1.466-.929-2.565-1.921-3.46-3.124-.165-.222-.119-.535.102-.7.222-.166.535-.12.7.102.767 1.029 1.704 1.895 2.933 2.708 2.391-1.52 3.991-3.715 5.245-5.678.149-.233.458-.302.69-.152.233.149.301.458.152.69z"/></svg>