<svg id="Layer_1" viewBox="0 0 24 24" xmlns="http://www.w3.org/2000/svg" data-name="Layer 1"><path d="m19.845 4.312c-.057-.145-.179-.255-.329-.297-.062-.018-1.491-.417-3.798-.692-.427-1.582-1.618-2.322-3.717-2.322s-3.291.74-3.717 2.322c-2.308.275-3.736.674-3.798.692-.15.042-.272.152-.329.297-.047.119-1.155 2.989-1.155 8.688s1.108 8.569 1.155 8.688c.052.132.157.235.29.285.112.042 2.794 1.027 7.555 1.027s7.443-.985 7.555-1.027c.133-.05.238-.153.29-.285.047-.119 1.155-2.989 1.155-8.688s-1.108-8.569-1.155-8.688zm-.856 16.797c-.715.223-3.171.892-6.989.892s-6.276-.668-6.989-.892c-.245-.747-1.011-3.455-1.011-8.108 0-4.593.753-7.309 1.005-8.088.53-.131 1.877-.433 3.741-.636.22-.024.397-.189.438-.407.207-1.122.765-1.869 2.816-1.869s2.61.747 2.816 1.869c.04.217.218.383.438.407 1.865.204 3.212.506 3.742.636.252.775 1.004 3.477 1.004 8.088s-.767 7.357-1.011 8.108zm-2.035-8.398c.116-.25.007-.547-.243-.664s-.547-.007-.664.242c-.006.013-.639 1.349-2.027 3.033-1.162-1.326-1.985-2.582-2.356-3.186.53-.457.837-1.128.837-2.136 0-2.477-1.798-2.991-4.498-3h-.002c-.205 0-.389.125-.465.315-.021.055-.535 1.38-.535 4.185 0 2.593.283 4.038.295 4.098.053.273.324.447.588.392.271-.054.446-.317.393-.588-.002-.011-.167-.861-.241-2.402 1.092-.002 2.024-.099 2.758-.368.385.633 1.303 2.038 2.565 3.453-1.18 1.29-2.142 2.004-2.153 2.012-.223.163-.271.476-.108.699.164.224.478.27.698.108.048-.035 1.023-.758 2.24-2.08 1.205 1.278 2.103 2.026 2.147 2.062.212.175.527.146.704-.068.176-.213.146-.528-.068-.704-.01-.009-.92-.766-2.119-2.043 1.502-1.781 2.244-3.326 2.255-3.36zm-8.938-.71s-.016-.329-.016-.5c0-1.833.231-2.979.368-3.495 2.637.064 3.132.733 3.132 1.995 0 1.327-.542 2-3.484 2z"/></svg>