<svg id="Layer_1" viewBox="0 0 24 24" xmlns="http://www.w3.org/2000/svg" data-name="Layer 1"><path d="m19.845 4.312c-.057-.146-.179-.255-.329-.298-.062-.018-1.491-.416-3.798-.691-.427-1.582-1.618-2.322-3.717-2.322s-3.291.74-3.717 2.322c-2.308.275-3.736.674-3.798.691-.15.043-.272.152-.329.298-.047.119-1.155 2.989-1.155 8.688s1.108 8.569 1.155 8.688c.052.132.157.235.29.284.112.042 2.794 1.027 7.555 1.027s7.443-.985 7.555-1.027c.133-.049.238-.152.29-.284.047-.119 1.155-2.989 1.155-8.688s-1.108-8.569-1.155-8.688zm-.856 16.797c-.715.224-3.171.892-6.989.892s-6.276-.669-6.989-.892c-.245-.747-1.011-3.455-1.011-8.108 0-4.593.753-7.31 1.005-8.088.531-.131 1.877-.433 3.742-.637.219-.024.397-.189.437-.406.207-1.122.765-1.869 2.816-1.869s2.61.747 2.816 1.869c.04.217.218.382.437.406 1.865.204 3.212.506 3.743.637.251.775 1.004 3.477 1.004 8.088s-.767 7.357-1.011 8.108z"/></svg>