<svg id="Layer_1" viewBox="0 0 24 24" xmlns="http://www.w3.org/2000/svg" data-name="Layer 1"><path d="m19.845 4.312c-.058-.145-.179-.255-.329-.297-.062-.018-1.49-.417-3.799-.692-.426-1.582-1.617-2.322-3.717-2.322s-3.291.74-3.717 2.322c-2.308.275-3.736.674-3.798.692-.15.042-.272.152-.329.297-.047.119-1.155 2.989-1.155 8.688s1.108 8.569 1.155 8.688c.052.132.157.235.29.285.112.042 2.794 1.027 7.555 1.027s7.443-.985 7.556-1.027c.132-.05.237-.153.289-.285.047-.119 1.155-2.989 1.155-8.688s-1.108-8.569-1.155-8.688zm-.856 16.797c-.714.223-3.171.892-6.988.892s-6.276-.668-6.989-.892c-.245-.747-1.011-3.455-1.011-8.108 0-4.593.753-7.309 1.005-8.088.53-.131 1.877-.433 3.741-.636.22-.024.397-.189.438-.407.207-1.122.765-1.869 2.816-1.869s2.609.747 2.815 1.869c.04.217.218.383.438.407 1.866.204 3.213.506 3.743.636.252.775 1.004 3.476 1.004 8.088s-.767 7.357-1.012 8.108zm-2.115-3.697c.049.271-.132.532-.403.581-.265.049-.533-.13-.581-.403-.333-1.839-1.459-2.589-3.889-2.589s-3.556.75-3.889 2.589c-.049.271-.306.453-.582.403-.271-.049-.452-.31-.403-.582.428-2.359 1.93-3.411 4.873-3.411s4.446 1.052 4.873 3.411zm-4.87-4.411c1.926-.011 2.963-1.045 2.998-3.009-.032-1.889-1.125-2.979-3.004-2.991-1.899.012-2.964 1.074-2.998 2.991v.018c.036 1.945 1.073 2.979 3.004 2.991zm-.006-5c1.344.009 1.981.647 2.004 1.991-.025 1.4-.625 2.001-1.998 2.009-1.357-.008-1.976-.625-2.004-2 .027-1.375.646-1.992 1.998-2z"/></svg>