<svg id="Layer_1" viewBox="0 0 24 24" xmlns="http://www.w3.org/2000/svg" data-name="Layer 1"><path d="m12 1c-6.309 0-9 2.691-9 9 0 5.29.94 11.452.95 11.514.03.193.17.353.359.405.157.044 3.888 1.081 7.691 1.081s7.534-1.037 7.691-1.081c.189-.053.329-.212.359-.405.01-.062.95-6.224.95-11.514 0-6.309-2.691-9-9-9zm0 1c5.832 0 8 2.168 8 8s-2.168 8-8 8-8-2.168-8-8 2.168-8 8-8zm7.109 19.038c-.97.246-4.057.962-7.109.962s-6.138-.716-7.109-.962c-.11-.765-.388-2.808-.604-5.264 1.366 2.216 3.862 3.226 7.713 3.226s6.347-1.01 7.713-3.226c-.217 2.456-.495 4.499-.604 5.264zm-9.963-8.184c-.195-.195-.195-.512 0-.707l2.354-2.354v-4.293c0-.276.224-.5.5-.5s.5.224.5.5v4.5c0 .133-.053.26-.146.354l-2.5 2.5c-.195.195-.512.195-.707 0z"/></svg>