<?xml version="1.0" encoding="UTF-8"?>
<svg xmlns="http://www.w3.org/2000/svg" id="Layer_1" data-name="Layer 1" viewBox="0 0 24 24">
  <path d="M11.997,1C4.947,1.044,1.026,5.027,1.026,11.991c0,7.03,3.823,10.967,10.977,11.009,7.147-.042,10.838-3.74,10.971-11.009-.121-7.042-4.017-10.946-10.977-10.991Zm.006,21c-6.588-.039-9.852-3.31-9.977-10,.12-6.595,3.477-9.959,9.97-10,4.474,.029,9.835,1.79,9.977,9.991-.122,6.696-3.386,9.97-9.971,10.009Z"/>
  <path d="M12.5,11.793V7.375c0-.276-.224-.5-.5-.5s-.5,.224-.5,.5v4.625c0,.132,.053,.259,.146,.353l2.006,2.011c.316,.271,.609,.098,.707,0,.196-.195,.196-.512,0-.707l-1.86-1.864Z"/>
</svg>
