<?xml version="1.0" encoding="UTF-8"?>
<svg xmlns="http://www.w3.org/2000/svg" id="Layer_1" data-name="Layer 1" viewBox="0 0 24 24">
  <path d="M12,5.5c-.276,0-.5,.224-.5,.5v5.849l-1.916,2.874c-.153,.23-.093,.543,.139,.693,.313,.203,.597,.006,.693-.139l2-3c.055-.082,.084-.179,.084-.277V6c0-.276-.224-.5-.5-.5Z"/>
  <path d="M11.997,1C4.93,1.044,1,5.043,1,12.009c0,7.086,3.833,10.949,11.003,10.991,7.164-.042,10.864-3.74,10.997-11.009-.122-7.042-4.027-10.946-11.003-10.991Zm.006,21c-6.605-.039-9.877-3.31-10.003-10,.121-6.594,3.486-9.958,9.997-10,4.485,.029,9.861,1.79,10.003,9.991-.123,6.696-3.395,9.97-9.997,10.009Z"/>
</svg>
