<svg id="Layer_1" viewBox="0 0 24 24" xmlns="http://www.w3.org/2000/svg"><path d="m22.857 17.571c-.039.275-.299.463-.566.424-.273-.039-.463-.293-.424-.566.118-.824.131-1.655.091-2.484-1.817 1.319-3.512 3.262-5.289 6.075-.172.297-.627.3-.824.031-.783-1.053-1.697-1.988-2.859-2.92-1.549 1.168-2.879 2.686-4.059 4.629-.144.238-.454.309-.687.168-.236-.144-.311-.451-.167-.688 1.328-2.186 2.843-3.868 4.634-5.145.18-.127.423-.122.596.012 1.161.899 2.099 1.795 2.905 2.782 1.741-2.656 3.436-4.525 5.264-5.828-.967-.077-1.939-.068-2.901.071-.272.029-.526-.15-.566-.424-.039-.273.15-.527.424-.566 1.33-.189 2.677-.189 4.005 0 .22.031.393.204.424.424.19 1.328.19 2.676 0 4.005zm-16.65 3.444c-2.91-1.325-4.207-4.104-4.207-9.015 0-7.196 2.804-10 10-10 6.786 0 9.578 2.392 9.957 8.531.018.274.226.497.53.468.275-.017.484-.254.468-.53-.41-6.637-3.687-9.469-10.955-9.469-7.813 0-11 3.187-11 11 0 5.282 1.523 8.436 4.793 9.925.245.113.547.006.662-.248.114-.251.003-.548-.248-.662zm6.293-9.015v-5.5c0-.276-.224-.5-.5-.5s-.5.224-.5.5v5h-4c-.276 0-.5.224-.5.5s.224.5.5.5h4.5c.276 0 .5-.224.5-.5z"/></svg>