<?xml version="1.0" encoding="UTF-8"?>
<svg xmlns="http://www.w3.org/2000/svg" id="Layer_1" data-name="Layer 1" viewBox="0 0 24 24">
  <path d="M22.867,9.25c-.112-.122-.278-.179-.439-.155-.399,.058-.835,.089-1.333,.095-1.682,.012-2.821-.273-3.592-.921-.889-.747-1.331-2.031-1.353-3.927-.009-.74,.051-1.4,.179-1.962,.037-.161-.008-.329-.12-.45-.111-.12-.27-.177-.439-.155-1.866,.271-3.098,1.098-3.766,2.525-.117,.25-.009,.548,.241,.665,.253,.117,.549,.009,.665-.241,.438-.937,1.182-1.526,2.315-1.822-.057,.449-.081,.935-.075,1.453,.025,2.203,.584,3.734,1.709,4.68,.965,.811,2.305,1.167,4.247,1.156,.245-.003,.478-.012,.7-.026-.259,.67-.65,1.178-1.185,1.541-.229,.155-.288,.466-.134,.694,.097,.143,.254,.219,.414,.219,.097,0,.194-.028,.28-.086,.911-.618,1.519-1.57,1.805-2.832,.037-.161-.008-.329-.12-.45Z"/>
  <path d="M18.668,15.234c-.003-2.589-2.106-4.695-4.692-4.695s-4.692,2.109-4.692,4.701c0,.213,.014,.426,.043,.636-1.428,.334-2.478,1.616-2.478,3.135,0,1.775,1.442,3.22,3.214,3.22h7.474c1.976,0,3.583-1.61,3.583-3.59,0-1.556-1.009-2.926-2.452-3.407Zm-1.131,5.997h-7.474c-1.221,0-2.214-.996-2.214-2.22,0-1.181,.92-2.154,2.095-2.216,.15-.008,.288-.083,.377-.204,.088-.121,.118-.275,.081-.42-.078-.303-.118-.616-.118-.931,0-2.041,1.656-3.701,3.692-3.701s3.692,1.66,3.692,3.701c0,.111-.005,.221-.015,.33-.022,.253,.149,.483,.398,.534,1.198,.243,2.068,1.31,2.068,2.538,0,1.428-1.159,2.59-2.583,2.59Z"/>
  <path d="M8.127,7.479c.984,0,1.91,.383,2.606,1.08,.195,.195,.512,.195,.707,0s.195-.512,0-.707c-.886-.885-2.062-1.373-3.313-1.373-2.587,0-4.692,2.109-4.692,4.701,0,.213,.014,.426,.043,.636-1.427,.334-2.478,1.617-2.478,3.135,0,1.775,1.442,3.22,3.214,3.22,.276,0,.5-.224,.5-.5s-.224-.5-.5-.5c-1.221,0-2.214-.996-2.214-2.22,0-1.18,.92-2.154,2.095-2.216,.15-.008,.289-.083,.377-.204,.089-.121,.118-.276,.081-.421-.078-.301-.118-.614-.118-.93,0-2.041,1.656-3.701,3.692-3.701Z"/>
</svg>
