<?xml version="1.0" encoding="UTF-8"?>
<svg xmlns="http://www.w3.org/2000/svg" id="Layer_1" data-name="Layer 1" viewBox="0 0 24 24">
  <path d="M6.28,13.531c-1.138-.645-1.667-1.915-1.667-3.998,0-3.788,1.8-4.564,4.501-4.564,2.051,0,3.254,.505,3.9,1.639,.138,.241,.443,.324,.683,.187,.239-.137,.323-.442,.187-.682-.085-.15-.177-.289-.275-.419l1.245-1.261c.194-.197,.192-.513-.004-.708-.197-.194-.514-.191-.707,.004l-1.236,1.251c-.982-.762-2.232-.962-3.294-1.003V1.823c0-.276-.224-.5-.5-.5s-.5,.224-.5,.5V3.978c-1.169,.044-2.371,.263-3.303,.994l-1.225-1.241c-.193-.197-.51-.199-.707-.005-.196,.194-.198,.511-.004,.707l1.24,1.257c-.556,.753-.925,1.824-.991,3.344H1.5c-.276,0-.5,.224-.5,.5s.224,.5,.5,.5H3.624c.061,1.424,.389,2.531,.994,3.341l-1.243,1.259c-.194,.197-.192,.513,.004,.708,.098,.096,.225,.144,.352,.144,.129,0,.258-.05,.355-.148l1.232-1.248c.147,.114,.302,.218,.468,.312,.078,.044,.163,.065,.247,.065,.174,0,.343-.091,.435-.253,.137-.24,.053-.545-.188-.682Z"/>
  <path d="M20.213,14.846v-.043c0-2.907-2.361-5.272-5.265-5.272s-5.265,2.365-5.265,5.272c0,.26,.02,.52,.057,.776-1.622,.35-2.823,1.794-2.823,3.509,0,1.979,1.607,3.589,3.584,3.589h8.495c2.208,0,4.004-1.799,4.004-4.01,0-1.755-1.149-3.298-2.787-3.821Zm-1.217,6.831H10.501c-1.425,0-2.584-1.162-2.584-2.589,0-1.378,1.074-2.514,2.445-2.586,.15-.008,.288-.083,.377-.204s.118-.276,.081-.421c-.091-.348-.137-.709-.137-1.073,0-2.356,1.913-4.272,4.265-4.272s4.265,1.917,4.265,4.272c0,.129-.006,.256-.017,.382-.021,.253,.15,.481,.398,.532,1.394,.282,2.405,1.523,2.405,2.95,0,1.66-1.348,3.01-3.004,3.01Z"/>
</svg>
