<?xml version="1.0" encoding="UTF-8"?>
<svg xmlns="http://www.w3.org/2000/svg" id="Layer_1" data-name="Layer 1" viewBox="0 0 24 24">
  <path d="M19.117,9.375c.002-.065,.003-.13,.003-.195,0-3.895-3.2-7.064-7.134-7.064s-7.134,3.169-7.134,7.064c0,.409,.035,.815,.105,1.215-2.261,.393-3.958,2.347-3.958,4.678,0,2.161,1.473,4.051,3.582,4.596,.271,.071,.54-.092,.609-.359,.068-.267-.092-.54-.359-.609-1.667-.431-2.832-1.923-2.832-3.628,0-1.994,1.577-3.639,3.59-3.744,.15-.008,.288-.083,.377-.205,.089-.121,.118-.276,.08-.421-.129-.494-.194-1.007-.194-1.523,0-3.344,2.752-6.064,6.134-6.064s6.134,2.72,6.134,6.064c0,.182-.009,.362-.024,.54-.022,.253,.15,.483,.399,.533,2.031,.407,3.505,2.19,3.505,4.242,0,2.387-1.965,4.328-4.379,4.328h-1.891c-.276,0-.5,.224-.5,.5s.224,.5,.5,.5h1.891c2.966,0,5.379-2.39,5.379-5.328,0-2.38-1.608-4.468-3.883-5.119Z"/>
  <path d="M15.418,14.059c.074,.039,.153,.057,.231,.057,.18,0,.354-.098,.443-.269,.128-.245,.033-.547-.212-.675l-.976-.51,.976-.51c.245-.128,.34-.43,.212-.675-.129-.245-.43-.339-.675-.212l-1.093,.571v-1.238c0-.276-.224-.5-.5-.5s-.5,.224-.5,.5v1.238l-1.094-.571c-.245-.126-.546-.033-.675,.212-.128,.245-.033,.547,.212,.675l.976,.51-.976,.51c-.245,.128-.34,.43-.212,.675,.09,.171,.264,.269,.443,.269,.078,0,.157-.018,.231-.057l1.094-.571v1.238c0,.276,.224,.5,.5,.5s.5-.224,.5-.5v-1.238l1.093,.571Z"/>
  <path d="M12.421,18.137c-.129-.245-.431-.34-.675-.212l-1.094,.571v-1.238c0-.276-.224-.5-.5-.5s-.5,.224-.5,.5v1.237l-1.093-.571c-.243-.127-.546-.033-.675,.212-.128,.245-.033,.547,.212,.675l.976,.51-.976,.51c-.245,.128-.34,.43-.212,.675,.09,.171,.264,.269,.443,.269,.078,0,.157-.018,.231-.057l1.093-.571v1.237c0,.276,.224,.5,.5,.5s.5-.224,.5-.5v-1.238l1.094,.571c.074,.039,.153,.057,.231,.057,.18,0,.354-.098,.443-.269,.128-.245,.033-.547-.212-.675l-.976-.51,.976-.51c.245-.128,.34-.43,.212-.675Z"/>
</svg>
