<?xml version="1.0" encoding="UTF-8"?>
<svg xmlns="http://www.w3.org/2000/svg" id="Layer_1" data-name="Layer 1" viewBox="0 0 24 24">
  <g>
    <path d="M4.815,19.203c-.111,0-.224-.037-.316-.113C1.587,16.704,.347,12.818,1.338,9.191,2.641,4.425,7.293,1.475,12.152,2.326c.214,.038,.38,.21,.409,.426,.029,.216-.085,.426-.282,.519-1.286,.608-2.205,1.979-2.81,4.189-.334,1.222-.456,2.292-.363,3.181,.029,.274-.17,.521-.445,.549-.278,.027-.521-.171-.549-.445-.108-1.027,.021-2.188,.392-3.549,.496-1.811,1.204-3.137,2.148-4.014-3.837-.063-7.304,2.443-8.351,6.272-.888,3.247,.223,6.726,2.829,8.862,.214,.175,.245,.49,.07,.704-.099,.121-.242,.183-.387,.183Z"/>
    <g>
      <g>
        <path d="M11.984,21.82c-.345,0-.625-.28-.625-.625v-.823c0-.345,.28-.625,.625-.625s.625,.28,.625,.625v.823c0,.345-.28,.625-.625,.625Z"/>
        <path d="M15.424,21.82c-.345,0-.625-.28-.625-.625v-.823c0-.345,.28-.625,.625-.625s.625,.28,.625,.625v.823c0,.345-.28,.625-.625,.625Z"/>
        <path d="M18.866,21.82c-.345,0-.625-.28-.625-.625v-.823c0-.345,.28-.625,.625-.625s.625,.28,.625,.625v.823c0,.345-.28,.625-.625,.625Z"/>
      </g>
      <path d="M8.88,20.016c-.157,0-.312-.074-.409-.212-.406-.575-.62-1.252-.62-1.958,0-1.614,1.124-2.976,2.645-3.318-.033-.232-.049-.468-.049-.704,0-2.746,2.229-4.98,4.969-4.98s4.969,2.234,4.969,4.98v.018c1.538,.501,2.614,1.957,2.614,3.61,0,.735-.211,1.448-.608,2.063-.151,.232-.461,.298-.691,.147-.232-.15-.298-.459-.148-.691,.293-.452,.448-.978,.448-1.519,0-1.326-.938-2.478-2.231-2.74-.249-.051-.421-.281-.398-.535,.011-.116,.016-.234,.016-.353,0-2.195-1.78-3.98-3.969-3.98s-3.969,1.786-3.969,3.98c0,.339,.042,.676,.126,1,.037,.146,.007,.3-.081,.421-.089,.121-.227,.195-.377,.204-1.27,.067-2.264,1.12-2.264,2.397,0,.499,.151,.977,.438,1.382,.159,.226,.105,.538-.121,.697-.087,.062-.188,.091-.288,.091Z"/>
    </g>
  </g>
  <g>
    <circle cx="19.459" cy="7.014" r=".75"/>
    <circle cx="17.989" cy="3.521" r=".75"/>
    <circle cx="14.518" cy="5.359" r=".75"/>
  </g>
</svg>
