<?xml version="1.0" encoding="UTF-8"?>
<svg xmlns="http://www.w3.org/2000/svg" id="Layer_1" data-name="Layer 1" viewBox="0 0 24 24">
  <path d="M16.613,17.39c-.265-.081-.543,.066-.625,.33l-1.128,3.646c-.082,.264,.067,.541,.33,.625,.1,.032,.485,.078,.625-.33l1.128-3.646c.082-.264-.066-.544-.33-.625Z"/>
  <path d="M12.476,17.39c-.265-.081-.543,.066-.625,.33l-1.128,3.646c-.082,.264,.067,.541,.33,.625,.1,.032,.485,.078,.625-.33l1.128-3.646c.082-.264-.066-.544-.33-.625Z"/>
  <path d="M19.117,9.271c.002-.066,.003-.132,.003-.198,0-3.908-3.2-7.088-7.134-7.088s-7.134,3.18-7.134,7.088c0,.41,.036,.818,.106,1.221-2.261,.394-3.958,2.354-3.958,4.693,0,1.879,1.116,3.587,2.843,4.353,.254,.114,.548-.002,.66-.254,.112-.252-.002-.548-.254-.66-1.366-.605-2.248-1.956-2.248-3.439,0-2.002,1.577-3.654,3.59-3.759,.15-.008,.289-.083,.377-.204,.089-.122,.118-.276,.081-.421-.129-.498-.195-1.012-.195-1.529,0-3.357,2.751-6.088,6.134-6.088s6.134,2.731,6.134,6.088c0,.182-.009,.363-.024,.542-.021,.253,.15,.483,.399,.533,2.031,.408,3.505,2.198,3.505,4.258,0,1.804-1.144,3.441-2.847,4.072-.259,.096-.391,.384-.295,.643,.075,.202,.266,.326,.469,.326,.058,0,.116-.01,.174-.031,2.093-.776,3.499-2.79,3.499-5.01,0-2.388-1.608-4.482-3.883-5.135Z"/>
  <path d="M8.338,17.39c-.265-.081-.543,.066-.625,.33l-1.128,3.646c-.082,.264,.067,.541,.33,.625,.1,.032,.485,.078,.625-.33l1.128-3.646c.082-.264-.066-.544-.33-.625Z"/>
  <path d="M14.705,10.219c-.129-.245-.431-.339-.675-.212l-1.53,.799v-1.732c0-.276-.224-.5-.5-.5s-.5,.224-.5,.5v1.732l-1.53-.799c-.244-.127-.547-.033-.675,.212-.127,.245-.033,.547,.212,.675l1.413,.738-1.413,.738c-.245,.128-.339,.43-.212,.675,.089,.171,.264,.269,.444,.269,.078,0,.157-.018,.231-.057l1.53-.799v1.732c0,.276,.224,.5,.5,.5s.5-.224,.5-.5v-1.732l1.53,.799c.074,.039,.153,.057,.231,.057,.18,0,.354-.098,.443-.269,.128-.245,.033-.547-.212-.675l-1.413-.738,1.413-.738c.245-.128,.34-.43,.212-.675Z"/>
</svg>
