<?xml version="1.0" encoding="UTF-8"?>
<svg xmlns="http://www.w3.org/2000/svg" id="Layer_1" data-name="Layer 1" viewBox="0 0 24 24">
  <path d="M19.117,8.387c.002-.065,.003-.131,.003-.197,0-3.907-3.2-7.086-7.134-7.086s-7.134,3.179-7.134,7.086c0,.41,.035,.819,.105,1.22-2.261,.394-3.958,2.354-3.958,4.692,0,1.879,1.115,3.587,2.843,4.352,.065,.029,.134,.043,.202,.043,.191,0,.374-.111,.457-.297,.112-.252-.002-.548-.255-.66-1.365-.605-2.247-1.955-2.247-3.438,0-2.001,1.577-3.652,3.59-3.758,.15-.008,.288-.083,.377-.204,.089-.122,.118-.276,.08-.421-.129-.497-.194-1.011-.194-1.528,0-3.356,2.752-6.086,6.134-6.086s6.134,2.73,6.134,6.086c0,.182-.009,.363-.024,.541-.022,.253,.15,.483,.399,.533,2.031,.408,3.505,2.199,3.505,4.258,0,1.647-.921,3.134-2.404,3.878-.246,.124-.346,.424-.223,.671,.124,.248,.426,.344,.672,.222,1.822-.916,2.955-2.744,2.955-4.772,0-2.388-1.608-4.481-3.883-5.135Z"/>
  <path d="M14.386,13.327c0-1.704-2.014-3.128-2.1-3.188-.175-.122-.409-.119-.582,.007-.214,.157-2.09,1.579-2.09,3.181,0,1.318,1.07,2.39,2.386,2.39s2.386-1.072,2.386-2.39Zm-2.386,1.39c-.764,0-1.386-.624-1.386-1.39,0-.775,.84-1.666,1.392-2.141,.549,.458,1.38,1.328,1.38,2.141,0,.767-.622,1.39-1.386,1.39Z"/>
  <path d="M15.723,17.319c-.175-.122-.409-.119-.582,.007-.214,.157-2.09,1.578-2.09,3.181,0,1.318,1.07,2.39,2.386,2.39s2.385-1.072,2.385-2.39c0-1.704-2.013-3.127-2.099-3.188Zm-.286,4.578c-.764,0-1.386-.624-1.386-1.39,0-.776,.841-1.666,1.393-2.142,.548,.457,1.378,1.324,1.378,2.142,0,.767-.621,1.39-1.385,1.39Z"/>
  <path d="M8.85,17.319c-.175-.122-.409-.119-.582,.007-.214,.157-2.089,1.578-2.089,3.181,0,1.318,1.069,2.39,2.385,2.39s2.386-1.072,2.386-2.39c0-1.704-2.014-3.128-2.1-3.188Zm-.286,4.578c-.764,0-1.385-.624-1.385-1.39,0-.775,.84-1.666,1.391-2.141,.549,.458,1.38,1.328,1.38,2.141,0,.767-.622,1.39-1.386,1.39Z"/>
</svg>
