<?xml version="1.0" encoding="UTF-8"?>
<svg xmlns="http://www.w3.org/2000/svg" id="Layer_1" data-name="Layer 1" viewBox="0 0 24 24">
  <path d="M6.828,18.471c-.276,0-.5,.224-.5,.5v3.113c0,.276,.224,.5,.5,.5s.5-.224,.5-.5v-3.113c0-.276-.224-.5-.5-.5Z"/>
  <path d="M10.276,16.366c-.276,0-.5,.224-.5,.5v3.113c0,.276,.224,.5,.5,.5s.5-.224,.5-.5v-3.113c0-.276-.224-.5-.5-.5Z"/>
  <path d="M13.724,18.471c-.276,0-.5,.224-.5,.5v3.113c0,.276,.224,.5,.5,.5s.5-.224,.5-.5v-3.113c0-.276-.224-.5-.5-.5Z"/>
  <path d="M17.172,16.366c-.276,0-.5,.224-.5,.5v3.113c0,.276,.224,.5,.5,.5s.5-.224,.5-.5v-3.113c0-.276-.224-.5-.5-.5Z"/>
  <path d="M19.117,8.7c.002-.066,.003-.132,.003-.198,0-3.907-3.2-7.086-7.133-7.086s-7.134,3.179-7.134,7.086c0,.41,.036,.818,.106,1.221-2.261,.394-3.958,2.354-3.958,4.692,0,1.6,.802,3.084,2.146,3.971,.085,.056,.18,.083,.275,.083,.163,0,.322-.079,.418-.225,.152-.23,.088-.541-.142-.693-1.062-.701-1.697-1.873-1.697-3.136,0-2.002,1.577-3.653,3.59-3.758,.15-.008,.289-.083,.377-.204,.089-.121,.118-.276,.081-.421-.129-.498-.195-1.012-.195-1.529,0-3.356,2.751-6.086,6.134-6.086s6.133,2.73,6.133,6.086c0,.182-.009,.362-.024,.541-.022,.254,.15,.484,.399,.534,2.031,.408,3.505,2.198,3.505,4.258,0,1.365-.628,2.624-1.724,3.454-.22,.167-.263,.48-.096,.701,.166,.219,.48,.262,.701,.096,1.347-1.021,2.119-2.571,2.119-4.251,0-2.388-1.609-4.482-3.883-5.135Z"/>
</svg>
