<?xml version="1.0" encoding="UTF-8"?>
<svg xmlns="http://www.w3.org/2000/svg" id="Layer_1" data-name="Layer 1" viewBox="0 0 24 24">
  <path d="M21.604,10.175c.27-.582,.41-1.219,.41-1.864,0-2.432-1.965-4.411-4.381-4.411-.532,0-1.048,.094-1.538,.28-1.477-1.314-3.36-2.035-5.341-2.035C6.303,2.146,2.681,5.794,2.681,10.279c0,.581,.062,1.158,.182,1.721-1.157,.82-1.862,2.168-1.862,3.605,0,2.427,1.961,4.402,4.371,4.402h1.345c.276,0,.5-.224,.5-.5s-.224-.5-.5-.5h-1.345c-1.858,0-3.371-1.526-3.371-3.402,0-1.209,.645-2.337,1.684-2.945,.193-.113,.287-.342,.23-.559-.154-.591-.233-1.205-.233-1.822,0-3.934,3.173-7.134,7.073-7.134,1.831,0,3.568,.704,4.891,1.981,.149,.144,.375,.181,.561,.092,.448-.211,.929-.318,1.428-.318,1.864,0,3.381,1.53,3.381,3.411,0,.594-.154,1.18-.445,1.694-.108,.191-.08,.43,.071,.59,.877,.93,1.36,2.148,1.36,3.433,0,2.684-2.08,4.869-4.736,4.976-.275,.011-.49,.244-.479,.52,.012,.276,.256,.51,.521,.479,3.193-.128,5.695-2.753,5.695-5.975,0-1.42-.493-2.775-1.396-3.853Z"/>
  <path d="M12.188,12.429c-.121-.049-.256-.049-.377,0-.077,.032-1.916,.806-3.287,3.688-.119,.25-.013,.548,.236,.667,.249,.117,.548,.013,.666-.237,.693-1.456,1.508-2.295,2.073-2.744v7.552c0,.276,.224,.5,.5,.5s.5-.224,.5-.5v-7.552c.565,.449,1.381,1.289,2.073,2.744,.085,.18,.265,.285,.451,.285,.072,0,.146-.016,.215-.048,.249-.119,.355-.417,.236-.667-1.371-2.882-3.21-3.656-3.287-3.688Z"/>
</svg>
