<svg id="Layer_1" viewBox="0 0 24 24" xmlns="http://www.w3.org/2000/svg" data-name="Layer 1"><path d="m11.9 14.2c.165.221.12.534-.101.7-.219.164-.533.122-.7-.101-.328-.436-.703-.831-1.1-1.204v7.905c0 .276-.224.5-.5.5s-.5-.224-.5-.5v-7.905c-.396.373-.772.768-1.1 1.204-.166.222-.479.266-.7.101-.221-.166-.266-.479-.101-.7.598-.797 1.304-1.503 2.101-2.1.178-.134.422-.134.6 0 .797.597 1.503 1.303 2.101 2.1zm4.199 5c-.328.436-.703.831-1.1 1.204v-7.905c0-.276-.224-.5-.5-.5s-.5.224-.5.5v7.905c-.396-.373-.772-.768-1.1-1.204-.167-.222-.48-.266-.7-.101-.221.166-.266.479-.101.7.598.797 1.304 1.503 2.101 2.101.178.133.422.133.6 0 .797-.598 1.503-1.304 2.101-2.101.165-.221.12-.534-.101-.7-.22-.164-.533-.121-.7.101zm3.87-8.808c-.313-4.729-4.201-8.393-8.97-8.393-4.962.001-8.999 4.039-8.999 9.001 0 1.165.225 2.302.669 3.388-1.053.803-1.669 2.03-1.669 3.362 0 2.344 1.906 4.25 4.25 4.25h1.25c.276 0 .5-.224.5-.5s-.224-.5-.5-.5h-1.25c-1.792 0-3.25-1.458-3.25-3.25 0-1.128.581-2.159 1.555-2.759.215-.133.298-.406.191-.636-.495-1.068-.746-2.197-.746-3.355 0-4.411 3.589-8 8-8 4.321 0 7.829 3.386 7.984 7.709.007.177.106.337.262.421 1.699.92 2.754 2.69 2.754 4.62 0 2.295-1.468 4.306-3.652 5.002-.263.084-.408.365-.324.629.084.265.372.407.629.324 2.601-.83 4.348-3.223 4.348-5.955 0-2.201-1.154-4.229-3.03-5.357z"/></svg>