<?xml version="1.0" encoding="UTF-8"?>
<svg xmlns="http://www.w3.org/2000/svg" id="Layer_1" data-name="Layer 1" viewBox="0 0 24 24">
  <path d="M19.116,9.046c.002-.073,.003-.146,.003-.219,0-4.021-3.2-7.293-7.133-7.293s-7.134,3.272-7.134,7.293c0,.428,.037,.854,.109,1.274-2.263,.404-3.961,2.419-3.961,4.824,0,2.231,1.475,4.181,3.587,4.741,.043,.011,.086,.017,.128,.017,.221,0,.423-.148,.483-.372,.071-.267-.088-.541-.355-.611-1.674-.444-2.843-1.996-2.843-3.774,0-2.074,1.577-3.783,3.591-3.892,.149-.008,.287-.083,.376-.203,.088-.12,.119-.274,.082-.419-.13-.516-.196-1.049-.196-1.584,0-3.47,2.751-6.293,6.134-6.293s6.133,2.823,6.133,6.293c0,.188-.009,.375-.024,.56-.022,.252,.148,.481,.396,.533,2.033,.421,3.508,2.274,3.508,4.407,0,.276,.224,.5,.5,.5s.5-.224,.5-.5c0-2.456-1.609-4.609-3.884-5.281Z"/>
  <path d="M18.806,15.963c-.017-2.393-1.928-4.333-4.274-4.333s-4.274,1.958-4.274,4.365c0,.187,.012,.373,.035,.557-1.285,.327-2.227,1.512-2.227,2.913,0,1.656,1.32,3.002,2.943,3.002h6.729c1.806,0,3.276-1.5,3.276-3.343,0-1.436-.906-2.702-2.208-3.161Zm-1.068,5.503h-6.729c-1.072,0-1.943-.898-1.943-2.002,0-1.065,.808-1.943,1.839-1.999,.149-.008,.287-.083,.375-.203,.089-.12,.119-.274,.083-.418-.07-.276-.105-.562-.105-.849,0-1.855,1.469-3.365,3.274-3.365s3.274,1.509,3.274,3.365c0,.101-.005,.201-.013,.3-.022,.252,.148,.481,.396,.533,1.057,.219,1.824,1.185,1.824,2.296,0,1.292-1.021,2.343-2.276,2.343Z"/>
</svg>
