<?xml version="1.0" encoding="UTF-8"?>
<svg xmlns="http://www.w3.org/2000/svg" id="Layer_1" data-name="Layer 1" viewBox="0 0 24 24">
  <path d="M19.117,8.66c.002-.064,.003-.129,.003-.193,0-3.883-3.2-7.042-7.134-7.042s-7.134,3.159-7.134,7.042c0,.407,.035,.812,.104,1.21-2.261,.392-3.957,2.34-3.957,4.664,0,2.611,2.151,4.736,4.795,4.736,.276,0,.5-.224,.5-.5s-.224-.5-.5-.5c-2.093,0-3.795-1.676-3.795-3.736,0-1.987,1.577-3.625,3.59-3.73,.149-.008,.288-.083,.377-.205,.089-.121,.118-.276,.08-.422-.129-.493-.194-1.003-.194-1.517,0-3.332,2.752-6.042,6.134-6.042s6.134,2.71,6.134,6.042c0,.181-.009,.36-.024,.537-.022,.254,.15,.484,.4,.534,2.03,.405,3.504,2.183,3.504,4.227,0,2.377-1.965,4.312-4.379,4.312-.276,0-.5,.224-.5,.5s.224,.5,.5,.5c2.966,0,5.379-2.383,5.379-5.312,0-2.374-1.608-4.455-3.883-5.104Z"/>
  <path d="M7.007,20.563c-.345,0-.625,.28-.625,.625v.763c0,.345,.28,.625,.625,.625s.625-.28,.625-.625v-.763c0-.345-.28-.625-.625-.625Z"/>
  <path d="M12,20.563c-.345,0-.625,.28-.625,.625v.763c0,.345,.28,.625,.625,.625s.625-.28,.625-.625v-.763c0-.345-.28-.625-.625-.625Z"/>
  <path d="M16.993,20.563c-.345,0-.625,.28-.625,.625v.763c0,.345,.28,.625,.625,.625s.625-.28,.625-.625v-.763c0-.345-.28-.625-.625-.625Z"/>
  <path d="M9.504,15.569c-.345,0-.625,.28-.625,.625v.763c0,.345,.28,.625,.625,.625s.625-.28,.625-.625v-.763c0-.345-.28-.625-.625-.625Z"/>
  <path d="M14.496,15.569c-.345,0-.625,.28-.625,.625v.763c0,.345,.28,.625,.625,.625s.625-.28,.625-.625v-.763c0-.345-.28-.625-.625-.625Z"/>
</svg>
