<svg id="Layer_1" viewBox="0 0 24 24" xmlns="http://www.w3.org/2000/svg" data-name="Layer 1"><path d="m11.5 18c-.276 0-.5-.224-.5-.5v-8c0-.276.224-.5.5-.5s.5.224.5.5v8c0 .276-.224.5-.5.5zm0 2.25c-.414 0-.75.336-.75.75s.336.75.75.75.75-.336.75-.75-.336-.75-.75-.75zm8.47-9.857c-.313-4.729-4.201-8.393-8.97-8.393-4.962 0-9 4.037-9 9 0 1.165.225 2.303.668 3.388-1.052.803-1.668 2.03-1.668 3.362 0 2.344 1.907 4.25 4.25 4.25h2.75c.276 0 .5-.224.5-.5s-.224-.5-.5-.5h-2.75c-1.792 0-3.25-1.458-3.25-3.25 0-1.128.581-2.159 1.554-2.759.216-.133.298-.406.191-.636-.495-1.067-.745-2.196-.745-3.355 0-4.411 3.589-8 8-8 4.322 0 7.829 3.387 7.985 7.709.006.178.105.338.261.422 1.699.92 2.754 2.69 2.754 4.619 0 2.895-2.355 5.25-5.25 5.25h-1.75c-.276 0-.5.224-.5.5s.224.5.5.5h1.75c3.446 0 6.25-2.804 6.25-6.25 0-2.201-1.154-4.229-3.03-5.357z"/></svg>