<?xml version="1.0" encoding="UTF-8"?>
<svg xmlns="http://www.w3.org/2000/svg" id="Layer_1" data-name="Layer 1" viewBox="0 0 24 24">
  <path d="M5.134,18.584c-2.606-2.137-3.717-5.616-2.83-8.863C3.351,5.892,6.846,3.404,10.655,3.448c-.944,.877-1.653,2.204-2.148,4.015-.372,1.362-.5,2.522-.392,3.549,.029,.274,.269,.474,.549,.445,.274-.029,.474-.275,.445-.549-.093-.889,.029-1.959,.363-3.181,.604-2.21,1.523-3.581,2.81-4.19,.197-.093,.311-.303,.282-.519s-.195-.388-.409-.426C7.291,1.743,2.643,4.691,1.339,9.458c-.991,3.627,.25,7.513,3.161,9.9,.093,.076,.205,.113,.316,.113,.145,0,.288-.062,.387-.183,.175-.213,.144-.528-.07-.704Z"/>
  <path d="M20.386,14.146v-.018c0-2.747-2.229-4.981-4.969-4.981s-4.969,2.234-4.969,4.981c0,.237,.017,.472,.049,.705-1.521,.342-2.645,1.704-2.645,3.318,0,1.875,1.522,3.401,3.394,3.401h7.968c2.088,0,3.787-1.703,3.787-3.796,0-1.653-1.077-3.108-2.614-3.61Zm-1.173,6.406h-7.968c-1.32,0-2.394-1.077-2.394-2.401,0-1.277,.995-2.33,2.265-2.397,.15-.008,.289-.083,.377-.204,.089-.121,.118-.275,.081-.421-.084-.324-.126-.661-.126-1,0-2.195,1.781-3.981,3.969-3.981s3.969,1.786,3.969,3.981c0,.12-.006,.238-.016,.355-.022,.253,.15,.482,.399,.533,1.292,.262,2.231,1.414,2.231,2.74,0,1.542-1.25,2.796-2.787,2.796Z"/>
</svg>
