<svg id="Layer_1" viewBox="0 0 24 24" xmlns="http://www.w3.org/2000/svg" data-name="Layer 1"><path d="m17.152 13.925c-.511-.855-1.201-1.03-2.059-.52l-.426.254c-.325-.226-.712-.391-1.168-.498v-.661c0-.995-.505-1.5-1.5-1.5s-1.5.505-1.5 1.5v.661c-.456.107-.843.272-1.168.498l-.427-.255c-.854-.509-1.547-.335-2.058.521-.51.854-.335 1.546.52 2.057l.656.392c-.016.198-.023.406-.023.627s.008.429.023.627l-.655.392c-.855.511-1.03 1.203-.521 2.057.511.855 1.202 1.03 2.059.52l.426-.254c.325.226.712.391 1.168.498v.661c0 .995.505 1.5 1.5 1.5s1.5-.505 1.5-1.5v-.661c.456-.107.843-.272 1.168-.498l.427.255c.855.509 1.547.335 2.058-.521.51-.854.335-1.546-.521-2.057l-.655-.392c.016-.198.023-.406.023-.627s-.008-.429-.023-.627l.655-.392c.855-.511 1.03-1.203.521-2.057zm-1.033 1.197-.929.555c-.17.103-.264.295-.239.491.031.256.049.531.049.832s-.018.576-.049.832c-.024.196.069.389.239.491l.929.555c.377.225.398.309.173.686s-.31.397-.686.174l-.724-.433c-.192-.116-.435-.089-.598.062-.312.29-.756.475-1.359.564-.245.036-.427.246-.427.494v1.074c0 .439-.061.5-.5.5s-.5-.061-.5-.5v-1.074c0-.248-.182-.458-.427-.494-.604-.09-1.048-.274-1.359-.564-.165-.152-.407-.177-.598-.062l-.723.432c-.378.227-.462.204-.687-.173-.226-.377-.204-.461.174-.686l.929-.555c.17-.103.264-.295.239-.491-.031-.256-.049-.531-.049-.832s.018-.576.049-.832c.024-.196-.069-.389-.239-.491l-.93-.555c-.377-.225-.398-.309-.173-.686s.31-.398.686-.174l.724.433c.191.114.433.088.598-.062.312-.29.756-.475 1.359-.564.245-.036.427-.246.427-.494v-1.074c0-.439.061-.5.5-.5s.5.061.5.5v1.074c0 .248.182.458.427.494.604.09 1.048.274 1.359.564.164.151.406.178.598.062l.723-.432c.379-.228.462-.204.687.173.226.377.204.461-.174.686zm-4.119-.122c-1.346 0-2 .654-2 2s.654 2 2 2 2-.654 2-2-.654-2-2-2zm0 3c-.794 0-1-.206-1-1s.206-1 1-1 1 .206 1 1-.206 1-1 1zm11-3.25c0 2.289-1.249 4.393-3.261 5.49-.238.13-.545.045-.679-.2-.132-.242-.042-.546.2-.679 1.689-.921 2.739-2.688 2.739-4.611s-1.055-3.699-2.754-4.619c-.155-.084-.255-.244-.262-.422-.155-4.323-3.663-7.709-7.984-7.709-4.41 0-7.999 3.589-7.999 8 0 1.158.251 2.287.746 3.355.106.229.023.503-.191.636-.974.6-1.555 1.631-1.555 2.759 0 1.539 1.093 2.879 2.6 3.185.271.056.445.319.391.59-.055.273-.326.446-.59.391-1.971-.4-3.4-2.152-3.4-4.165 0-1.332.616-2.56 1.669-3.362-.444-1.086-.669-2.223-.669-3.388-.001-4.963 4.036-9.001 8.999-9.001 4.769 0 8.656 3.664 8.97 8.393 1.876 1.129 3.03 3.156 3.03 5.357z"/></svg>