<?xml version="1.0" encoding="UTF-8"?>
<svg xmlns="http://www.w3.org/2000/svg" id="Layer_1" data-name="Layer 1" viewBox="0 0 24 24">
  <path d="M21.003,3.289c-1.669-2.017-5.486-2.289-9-2.289S4.656,1.274,2.982,3.311c-.779,.949-1.022,2.201-.722,3.722,.953,4.829,3.978,7.252,9.24,7.396v7.571H6.112c-.276,0-.5,.224-.5,.5s.224,.5,.5,.5h11.775c.276,0,.5-.224,.5-.5s-.224-.5-.5-.5h-5.388v-7.571c5.231-.146,8.342-2.634,9.247-7.399,.292-1.534,.041-2.793-.744-3.741ZM12.003,13.436c-4.978,0-7.75-2.005-8.7-6.304H20.706c-.911,4.241-3.761,6.304-8.703,6.304Zm8.854-7.304H3.145c-.062-.894,.14-1.614,.61-2.186,1.417-1.725,5.152-1.946,8.248-1.946s6.816,.219,8.229,1.926c.476,.574,.682,1.301,.624,2.206Z"/>
</svg>
