<?xml version="1.0" encoding="UTF-8"?>
<svg xmlns="http://www.w3.org/2000/svg" id="Layer_1" data-name="Layer 1" viewBox="0 0 24 24">
  <path d="M22.661,2.521c-.176-.06-4.373-1.462-10.661-1.462S1.514,2.462,1.339,2.521c-.246,.084-.387,.343-.324,.595,1.893,7.589,8.822,10.507,10.485,11.106v7.718H7.276c-.276,0-.5,.224-.5,.5s.224,.5,.5,.5h9.448c.276,0,.5-.224,.5-.5s-.224-.5-.5-.5h-4.224v-7.719c1.668-.601,8.632-3.533,10.485-11.107,.062-.252-.079-.509-.324-.593ZM12,13.338c-.841-.282-5.256-1.923-8.075-6.101H14.083c.276,0,.5-.224,.5-.5s-.224-.5-.5-.5H3.31c-.485-.87-.897-1.836-1.202-2.904,1.232-.354,4.92-1.273,9.892-1.273s8.662,.921,9.895,1.274c-1.991,7.079-8.827,9.644-9.895,10.004Z"/>
</svg>
