<?xml version="1.0" encoding="UTF-8"?>
<svg xmlns="http://www.w3.org/2000/svg" id="Layer_1" data-name="Layer 1" viewBox="0 0 24 24">
  <path d="M22.999,4.059c-.037-1.976-1.107-3.027-3.102-3.038-1.989,.011-3.06,1.062-3.097,3.056,.031,1.728,.95,2.798,2.549,3.002-.115,2.336-.578,4.035-.767,4.646-.58,.135-2.071,.451-3.938,.63-.968,.093-1.891,.457-2.644,1.036-.752-.579-1.675-.943-2.644-1.036-1.87-.179-3.36-.496-3.938-.631-.19-.606-.652-2.292-.767-4.64,2.739-.318,2.548-3.02,2.548-3.026-.037-1.976-1.107-3.027-3.102-3.038-1.989,.011-3.06,1.062-3.097,3.056,.031,1.764,.988,2.842,2.65,3.014,.147,3.149,.88,5.143,.912,5.228,.057,.152,.184,.267,.341,.308,.075,.019,1.868,.483,4.357,.721,.83,.08,1.616,.405,2.239,.922v2.683c-1.67,.174-2.567,1.208-2.601,3.029,.034,1.919,1.163,3.026,3.103,3.039,3.312,0,3.096-3.05,3.096-3.057-.033-1.802-.928-2.835-2.598-3.011v-2.683c.622-.517,1.409-.843,2.239-.923,2.486-.238,4.281-.701,4.356-.721,.158-.041,.286-.157,.343-.31,.032-.086,.762-2.098,.91-5.221,2.846-.262,2.65-3.031,2.65-3.037Zm-20.999,.019c.027-1.435,.656-2.05,2.097-2.059,1.424,.008,2.073,.64,2.102,2.049-.028,1.408-.677,2.04-2.096,2.049-1.391-.009-2.079-.682-2.103-2.04Zm12.098,15.896c-.028,1.408-.677,2.04-2.096,2.049-1.391-.009-2.079-.682-2.103-2.04,.027-1.435,.656-2.05,2.097-2.059,1.424,.008,2.073,.64,2.102,2.049Zm5.805-13.856c-1.391-.009-2.079-.682-2.103-2.04,.027-1.435,.656-2.05,2.097-2.059,1.424,.008,2.073,.64,2.102,2.049-.028,1.408-.677,2.04-2.096,2.049Z"/>
</svg>
