<?xml version="1.0" encoding="UTF-8"?>
<svg xmlns="http://www.w3.org/2000/svg" id="Layer_1" data-name="Layer 1" viewBox="0 0 24 24">
  <path d="M22.671,12.825c-.086-.031-2.098-.754-5.06-1.274-.198-3.661-2.082-5.529-5.615-5.551-3.521,.023-5.405,1.885-5.607,5.552-2.958,.52-4.973,1.242-5.059,1.273-.26,.094-.406,.385-.3,.64,.179,.434,.584,.321,.64,.3,.02-.007,1.946-.696,4.726-1.199,.24,3.487,2.212,5.41,5.607,5.434,3.438-.023,5.365-1.899,5.601-5.435,2.782,.503,4.706,1.193,4.726,1.2,.056,.02,.466,.138,.64-.3,.095-.239-.04-.546-.299-.641Zm-10.667,4.175c-3.02-.021-4.578-1.706-4.631-4.991,.058-3.397,1.53-4.989,4.625-5.009,3.099,.02,4.57,1.608,4.63,5-.058,3.344-1.572,4.979-4.624,5Z"/>
</svg>
