<?xml version="1.0" encoding="UTF-8"?>
<svg xmlns="http://www.w3.org/2000/svg" id="Layer_1" data-name="Layer 1" viewBox="0 0 24 24">
  <path d="M5.209,9.67c3.657-.248,3.386-3.825,3.386-3.831-.043-2.453-1.391-3.812-3.801-3.828-2.404,.016-3.752,1.375-3.794,3.846,.041,2.272,1.139,3.572,3.188,3.792-.108,.5-.25,1.347-.25,2.35,0,1.026,.146,1.88,.254,2.374-2.026,.226-3.153,1.555-3.192,3.811,.045,2.489,1.357,3.812,3.8,3.827,4.087,0,3.795-3.839,3.795-3.845-.041-2.306-1.235-3.646-3.38-3.81-.091-.372-.277-1.262-.277-2.357,0-1.061,.178-1.941,.271-2.33Zm-3.209-3.813c.033-1.903,.949-2.834,2.794-2.846,1.874,.012,2.764,.913,2.801,2.838-.038,1.951-.902,2.826-2.795,2.837-1.901-.012-2.765-.889-2.8-2.828Zm5.595,12.319c-.038,1.951-.902,2.826-2.795,2.837-1.901-.012-2.765-.889-2.8-2.828,.033-1.903,.949-2.834,2.794-2.846,1.874,.012,2.764,.913,2.801,2.838Z"/>
  <path d="M22.998,18.167c-.038-2.135-1.064-3.441-2.918-3.754,.112-.929,.169-1.862,.169-2.777,0-3.236-.712-5.657-.742-5.758-.049-.163-.179-.291-.343-.338-.095-.027-2.366-.665-5.15-.742-.135-.004-1.034-.006-1.503-.007,.382-.511,1.074-1.227,2.246-1.837,.244-.127,.34-.429,.212-.674-.128-.246-.43-.339-.675-.212-2.445,1.272-3.101,2.976-3.128,3.048-.042,.112-.042,.235,0,.347,.027,.072,.683,1.776,3.128,3.049,.074,.039,.462,.183,.675-.212,.131-.243,.032-.546-.212-.674-1.173-.61-1.865-1.326-2.246-1.837,.495,0,1.348,.003,1.475,.007,2.116,.058,3.962,.467,4.635,.634,.179,.703,.629,2.722,.629,5.205,0,.891-.057,1.801-.169,2.706-2.331,.059-3.636,1.413-3.677,3.843,.045,2.489,1.357,3.812,3.8,3.827,4.087,0,3.795-3.839,3.795-3.845Zm-3.795,2.846c-1.901-.012-2.765-.889-2.8-2.828,.033-1.903,.949-2.834,2.794-2.846,1.874,.012,2.764,.913,2.801,2.838-.038,1.951-.902,2.826-2.795,2.837Z"/>
</svg>
