<?xml version="1.0" encoding="UTF-8"?>
<svg xmlns="http://www.w3.org/2000/svg" id="Layer_1" data-name="Layer 1" viewBox="0 0 24 24">
  <path d="M12.79,5.456c.041-.112,.041-.235,0-.347-.026-.072-.68-1.778-3.115-3.052-.245-.129-.547-.033-.675,.211-.128,.245-.034,.547,.211,.675,1.168,.611,1.857,1.328,2.237,1.84-.523,0-1.304,.002-1.402,.004-2.815,.065-5.127,.718-5.225,.745-.164,.047-.293,.175-.342,.338-.03,.102-.739,2.525-.739,5.765,0,.906,.056,1.83,.166,2.753-1.867,.303-2.866,1.591-2.906,3.779,.042,2.455,1.385,3.816,3.787,3.832,2.396-.015,3.781-1.376,3.781-3.832,0-2.434-1.307-3.787-3.663-3.846-.109-.901-.165-1.803-.165-2.686,0-2.486,.448-4.507,.626-5.212,.68-.169,2.56-.587,4.701-.636,.096-.002,.862-.004,1.379-.004-.38,.512-1.069,1.229-2.236,1.839-.245,.128-.36,.442-.211,.675,.252,.394,.601,.25,.675,.211,2.436-1.274,3.089-2.98,3.116-3.052Zm-5.222,12.704c-.037,1.926-.922,2.829-2.781,2.841-1.843-.012-2.754-.944-2.787-2.832,.035-1.959,.895-2.837,2.781-2.849,1.89,.011,2.75,.887,2.787,2.84Z"/>
  <path d="M23,5.849c0-2.477-1.353-3.835-3.787-3.849-2.429,.015-3.736,1.34-3.781,3.849,.041,2.412,1.339,3.767,3.663,3.829,.109,.901,.165,1.803,.165,2.687,0,2.486-.448,4.508-.626,5.212-.67,.167-2.504,.576-4.614,.634-.129,.004-.992,.006-1.466,.007,.38-.512,1.069-1.229,2.236-1.839,.245-.128,.339-.43,.211-.675-.128-.244-.429-.341-.675-.211-2.436,1.274-3.089,2.98-3.116,3.052-.041,.112-.041,.235,0,.347,.026,.072,.68,1.778,3.115,3.052,.074,.039,.428,.181,.675-.211,.147-.234,.034-.547-.211-.675-1.168-.611-1.857-1.328-2.237-1.84,.42,0,1.353-.003,1.495-.007,2.773-.077,5.037-.716,5.132-.743,.164-.047,.293-.175,.342-.338,.03-.102,.739-2.525,.739-5.765,0-.907-.056-1.833-.166-2.756,1.854-.312,2.906-1.62,2.906-3.759Zm-3.781,2.832c-1.843-.012-2.754-.944-2.787-2.832,.035-1.959,.895-2.837,2.781-2.849,1.89,.011,2.75,.887,2.787,2.84-.037,1.926-.922,2.829-2.781,2.841Z"/>
</svg>
