<?xml version="1.0" encoding="UTF-8"?>
<svg xmlns="http://www.w3.org/2000/svg" id="Layer_1" data-name="Layer 1" viewBox="0 0 24 24">
  <path d="M5.593,9.37c2.421-.155,3.722-1.589,3.769-4.168,0-.006,.328-4.202-4.185-4.202C2.529,1,1.045,2.503,.999,5.202c.046,2.505,1.275,3.93,3.57,4.152-.121,.542-.29,1.501-.29,2.646s.167,2.104,.288,2.644c-2.266,.218-3.526,1.689-3.569,4.173,.05,2.72,1.494,4.167,4.185,4.183,2.684-.015,4.129-1.461,4.179-4.183,0-.006,.308-3.94-3.77-4.189-.102-.409-.313-1.403-.313-2.628,0-1.217,.212-2.219,.314-2.63ZM1.999,5.201c.036-2.141,1.078-3.188,3.179-3.201,2.131,.013,3.144,1.027,3.185,3.192-.042,2.166-1.055,3.18-3.179,3.192-2.162-.013-3.145-1-3.185-3.183Zm6.363,13.607c-.042,2.166-1.055,3.18-3.179,3.192-2.162-.013-3.145-1-3.185-3.183,.036-2.141,1.078-3.188,3.179-3.201,2.131,.013,3.144,1.027,3.185,3.192Z"/>
  <path d="M18.811,14.616c-2.648,0-4.133,1.503-4.179,4.202,.05,2.72,1.494,4.167,4.185,4.183,2.684-.015,4.129-1.461,4.179-4.183,0-.006,.328-4.202-4.185-4.202Zm.006,7.384c-2.162-.013-3.145-1-3.185-3.183,.036-2.141,1.078-3.188,3.179-3.201,2.131,.013,3.144,1.027,3.185,3.192-.042,2.166-1.055,3.18-3.179,3.192Z"/>
  <path d="M18.813,13.497h.008c1.81-.013,2.669-.869,2.702-2.711-.034-1.877-.866-2.719-2.703-2.729-1.839,.011-2.674,.841-2.709,2.71,.031,1.823,.915,2.716,2.702,2.73Zm.007-4.44c1.281,.007,1.679,.416,1.703,1.729-.023,1.269-.454,1.701-1.706,1.711-1.238-.01-1.685-.468-1.706-1.729,.024-1.304,.425-1.703,1.709-1.711Z"/>
  <path d="M18.813,7.035h.008c1.81-.014,2.669-.869,2.702-2.711-.034-1.877-.866-2.719-2.703-2.729-1.839,.011-2.674,.841-2.709,2.71,.031,1.823,.915,2.716,2.702,2.73Zm.007-4.44c1.281,.007,1.679,.416,1.703,1.729-.023,1.269-.454,1.701-1.706,1.711-1.238-.011-1.685-.468-1.706-1.729,.024-1.304,.425-1.704,1.709-1.711Z"/>
</svg>
