<?xml version="1.0" encoding="UTF-8"?>
<svg xmlns="http://www.w3.org/2000/svg" id="Layer_1" data-name="Layer 1" viewBox="0 0 24 24">
  <path d="M20.404,4.51l-3.167-.926v-.964c0-.165-.081-.318-.217-.412-.071-.049-1.791-1.208-5.028-1.208-3.191,0-4.951,1.155-5.024,1.204-.139,.093-.222,.249-.222,.416v.965l-3.15,.926c-.213,.062-.359,.258-.359,.479v3.49c0,.247,.179,.451,.414,.492l2.07,12.894c.028,.173,.145,.319,.307,.384,.075,.031,1.896,.749,5.974,.749s5.898-.718,5.974-.749c.162-.065,.278-.211,.307-.384l2.07-12.894c.235-.041,.414-.245,.414-.492v-3.49c0-.222-.146-.417-.359-.48Zm-13.018-.072c.213-.062,.359-.258,.359-.479v-1.048c.53-.276,1.994-.91,4.246-.91,2.282,0,3.727,.632,4.245,.907v1.052c0,.222,.146,.417,.359,.48l3.167,.926v2.114c-1.031-.167-4.402-.667-7.764-.667s-6.733,.5-7.764,.667v-2.114l3.15-.926Zm9.954,16.971c-.613,.182-2.329,.591-5.341,.591s-4.728-.41-5.341-.591l-.991-6.172h3.565c.224,1.409,1.379,2.486,2.767,2.486s2.542-1.077,2.767-2.486h3.565l-.991,6.172Zm-7.147-6.672c0-1.095,.811-1.986,1.807-1.986s1.807,.891,1.807,1.986-.811,1.986-1.807,1.986-1.807-.891-1.807-1.986Zm8.298-.494c-.025-.004-.05-.006-.076-.006h-3.649c-.224-1.409-1.379-2.486-2.766-2.486s-2.542,1.077-2.766,2.486h-3.725l-.931-5.8c1.174-.185,4.303-.625,7.423-.625s6.248,.44,7.423,.625l-.932,5.806Z"/>
</svg>
