<svg id="Layer_1" viewBox="0 0 24 24" xmlns="http://www.w3.org/2000/svg" data-name="Layer 1"><path d="m22.976 8.487c-.126-4.868-3.92-7.457-10.976-7.487-8.904.037-10.881 4.092-10.972 7.486v7.027c.135 4.939 3.827 7.458 10.976 7.486 7.145-.028 10.836-2.547 10.972-7.5v-7s0-.002 0-.003c0-.003 0-.006 0-.009zm-18.974 11.449c-1.269-1.062-1.922-2.537-1.974-4.436v-3.345c.484.792 1.139 1.466 1.974 2.014zm3 1.474c-.755-.21-1.419-.48-2-.804v-5.884c.6.285 1.265.523 2 .712zm3 .504c-.716-.058-1.382-.149-2-.27v-5.99c.625.116 1.292.202 2 .259zm3 .062c-.325.013-.655.023-.998.025-.345-.001-.675-.012-1.002-.025v-6.002c.328.013.658.025 1.002.027.343-.001.671-.014.998-.026v6.002zm3-.332c-.618.121-1.284.212-2 .27v-6.001c.708-.057 1.375-.143 2-.259zm3-1.038c-.581.325-1.246.593-2 .803v-5.976c.735-.189 1.4-.428 2-.713zm2.974-5.119c-.052 1.904-.705 3.383-1.974 4.447v-5.767c.835-.549 1.49-1.225 1.974-2.021zm-9.972-.486c-6.587-.026-9.85-2.152-9.976-6.5.122-4.286 3.478-6.473 9.972-6.5 4.475.02 9.837 1.165 9.976 6.486-.119 4.356-3.383 6.487-9.972 6.514z"/></svg>