<svg id="Layer_1" viewBox="0 0 24 24" xmlns="http://www.w3.org/2000/svg" data-name="Layer 1"><path d="m23 5.487c-.074-2.876-2.382-4.469-6.498-4.487h-.004c-5.256.022-6.436 2.437-6.497 4.494 0 .002-.001.004-.001.006v5c0 .276.224.5.5.5s.5-.224.5-.5v-2.286c.91 1.018 2.571 1.774 5.502 1.786 2.576-.011 4.443-.64 5.498-1.819v1.306c-.041 1.5-.656 3.495-5.498 3.514-1.123-.004-2.086-.12-2.864-.343-.264-.075-.543.077-.618.342-.076.266.077.542.343.619.866.249 1.921.377 3.14.382 2.626-.01 4.462-.598 5.498-1.749v1.236c-.041 1.5-.656 3.495-5.498 3.514-.707-.003-1.354-.05-1.925-.139-.271-.039-.528.143-.571.417-.043.273.144.529.417.572.619.097 1.317.148 2.079.151 2.626-.01 4.462-.598 5.498-1.749v1.236c-.041 1.5-.656 3.495-5.498 3.514-.908-.003-1.714-.08-2.396-.227-.271-.058-.536.113-.595.383-.058.27.114.536.384.594.75.162 1.626.245 2.607.249 4.23-.017 6.417-1.526 6.498-4.5v-12.003s0-.003 0-.005c0-.003 0-.005 0-.008zm-6.498 3.513c-5.409-.022-5.479-2.65-5.502-3.487.022-.863.093-3.49 5.5-3.513 3.59.016 5.44 1.198 5.5 3.487-.06 2.315-1.911 3.497-5.498 3.513zm-10.002 3c-3.855 0-5.5 1.645-5.5 5.5s1.645 5.5 5.5 5.5 5.5-1.645 5.5-5.5-1.645-5.5-5.5-5.5zm0 10c-3.28 0-4.5-1.22-4.5-4.5s1.22-4.5 4.5-4.5 4.5 1.22 4.5 4.5-1.22 4.5-4.5 4.5zm.3-6.9c-.178-.134-.422-.134-.6 0-.797.598-1.504 1.304-2.101 2.1-.113.151-.132.354-.047.523s.258.276.447.276h1.5v1.5c0 .276.224.5.5.5s.5-.224.5-.5v-1.5h1.5c.189 0 .362-.107.447-.276s.066-.372-.047-.523c-.597-.796-1.304-1.502-2.101-2.1zm-1.229 1.9c.29-.309.6-.598.929-.866.329.268.639.557.929.866h-1.857z"/></svg>