<svg id="Layer_1" viewBox="0 0 24 24" xmlns="http://www.w3.org/2000/svg" data-name="Layer 1"><path d="m23.002 5.487c-.074-2.876-2.382-4.47-6.502-4.487-5.272.021-6.443 2.451-6.498 4.514.007.266.041.517.084.763-.762-.174-1.619-.273-2.586-.277-5.272.021-6.443 2.451-6.498 4.486v8.027c.082 2.961 2.268 4.471 6.502 4.486 2.478-.01 4.234-.547 5.297-1.575.009.004.015.011.024.015.966.366 2.202.555 3.68.561 4.23-.018 6.417-1.526 6.498-4.5v-12s0-.003 0-.005c0-.003 0-.005 0-.008zm-21 7.764c1.036 1.152 2.873 1.74 5.502 1.749 2.626-.011 4.462-.599 5.498-1.756v1.242c-.041 1.499-.656 3.494-5.498 3.514-3.638-.014-5.438-1.163-5.502-3.514v-1.236zm12 .52c.732.148 1.569.226 2.502.229 2.626-.011 4.462-.599 5.498-1.75v1.236c-.041 1.499-.656 3.494-5.498 3.514-.956-.003-1.79-.093-2.502-.257v-2.973zm2.502-.771c-.956-.003-1.79-.093-2.502-.257v-2.243s0-.003 0-.005c0-.003 0-.005 0-.008-.007-.261-.052-.5-.096-.739.755.162 1.622.249 2.598.252 2.626-.011 4.462-.599 5.498-1.756v1.242c-.041 1.499-.656 3.494-5.498 3.514zm-5.502-7.486c.022-.864.093-3.492 5.498-3.514 3.591.016 5.442 1.197 5.502 3.486-.041 1.499-.656 3.494-5.498 3.514-1.12-.004-2.084-.119-2.864-.343-.026-.008-.051-.004-.077-.007-.45-.901-1.245-1.581-2.354-2.027-.118-.341-.195-.713-.206-1.109zm-3.502 1.486c2.556-.003 5.454.684 5.502 3.486-.041 1.499-.656 3.494-5.498 3.514-3.631-.014-5.431-1.159-5.502-3.501.023-.877.121-3.478 5.498-3.499zm.004 15c-3.638-.014-5.438-1.163-5.502-3.5v-1.249c1.036 1.152 2.873 1.74 5.502 1.749 2.626-.011 4.462-.599 5.498-1.75v1.236c-.041 1.499-.656 3.494-5.498 3.514zm9-1c-1.218-.004-2.233-.147-3.048-.41.332-.591.524-1.281.546-2.09v-.729c.732.148 1.569.226 2.502.229 2.626-.011 4.462-.599 5.498-1.75v1.236c-.041 1.499-.656 3.494-5.498 3.514z"/></svg>