<svg id="Layer_1" viewBox="0 0 24 24" xmlns="http://www.w3.org/2000/svg" data-name="Layer 1"><path d="m12 1c-5.122 0-11 1.25-11 11 0 7.71 3.29 11 11 11 3.894 0 7.271-.666 9.418-1.224.175-.045.312-.183.358-.358.812-3.125 1.224-6.293 1.224-9.418 0-7.71-3.29-11-11-11zm8.881 19.881c-2.098.527-5.26 1.119-8.881 1.119-7.103 0-10-2.897-10-10s2.897-10 10-10 10 2.897 10 10c0 2.945-.376 5.931-1.119 8.881z"/><path d="m12 13.425c.276 0 .5-.224.5-.5v-5.25c0-.276-.224-.5-.5-.5s-.5.224-.5.5v5.25c0 .276.224.5.5.5z"/><circle cx="12" cy="16.084" r=".749"/></svg>