<svg id="Layer_1" viewBox="0 0 24 24" xmlns="http://www.w3.org/2000/svg" data-name="Layer 1"><path d="m12 1c-5.121 0-11 1.25-11 11 0 7.71 3.29 11 11 11 3.894 0 7.271-.666 9.418-1.224.175-.045.312-.183.358-.358.812-3.123 1.224-6.291 1.224-9.418 0-7.71-3.29-11-11-11zm8.881 19.881c-2.098.527-5.261 1.119-8.881 1.119-7.103 0-10-2.897-10-10s2.897-10 10-10 10 2.897 10 10c0 2.947-.376 5.933-1.119 8.881z"/><path d="m14.563 9.357c-.079-.063-1.97-1.527-5.333-.464-.264.083-.409.364-.326.627.084.264.365.412.627.326 1.918-.604 3.235-.275 3.902.013l-4.779 4.779c-.195.195-.195.512 0 .707.098.098.226.146.354.146s.256-.049.354-.146l4.779-4.778c.29.669.619 1.986.014 3.902-.083.263.062.544.326.627.05.016.101.023.15.023.213 0 .409-.136.477-.35 1.062-3.363-.401-5.254-.465-5.333-.023-.029-.05-.056-.079-.08z"/></svg>