<svg id="Layer_1" viewBox="0 0 24 24" xmlns="http://www.w3.org/2000/svg" data-name="Layer 1"><path d="m12 1c-5.122 0-11 1.25-11 11 0 7.71 3.29 11 11 11 3.894 0 7.271-.666 9.418-1.224.175-.045.312-.183.358-.358.812-3.123 1.224-6.291 1.224-9.418 0-7.71-3.29-11-11-11zm8.881 19.881c-2.098.527-5.261 1.119-8.881 1.119-7.103 0-10-2.897-10-10s2.897-10 10-10 10 2.897 10 10c0 2.947-.376 5.933-1.119 8.881z"/><path d="m18.092 9.434s-2.931 3.125-3.011 3.195c-.412.359-.906.584-1.435.582-.565-.016-1.11-.277-1.495-.716-.595-.679-1.474-1.084-2.355-1.084h-.011c-.808.003-1.537.334-2.051.932-.813.943-2.806 3.926-2.89 4.053-.153.229-.099.552.139.693.318.19.597.006.693-.139.02-.03 2.043-3.058 2.816-3.955.323-.375.783-.583 1.297-.584h.008c.597 0 1.195.277 1.603.743.567.648 1.376 1.033 2.219 1.057.818.026 1.597-.29 2.177-.881.453-.461 3.002-3.185 3.029-3.214.188-.202.175-.534-.026-.707-.293-.251-.588-.102-.707.026z"/><circle cx="6.92" cy="8.325" r=".749"/></svg>