<svg id="Layer_1" viewBox="0 0 24 24" xmlns="http://www.w3.org/2000/svg" data-name="Layer 1"><path d="m12.75 12c0 .414-.336.75-.75.75s-.75-.336-.75-.75.336-.75.75-.75.75.336.75.75zm3.25-.75c-.414 0-.75.336-.75.75s.336.75.75.75.75-.336.75-.75-.336-.75-.75-.75zm-8 0c-.414 0-.75.336-.75.75s.336.75.75.75.75-.336.75-.75-.336-.75-.75-.75zm15 .75c0 3.593-.521 9.953-.526 10.016-.021.243-.213.436-.456.457-.061.005-6.155.527-10.018.527-7.813 0-11-3.187-11-11s3.187-11 11-11 11 3.187 11 11zm-1 0c0-7.196-2.804-10-10-10s-10 2.804-10 10 2.804 10 10 10c3.233 0 8.066-.371 9.51-.488.116-1.479.49-6.494.49-9.512z"/></svg>