<svg id="Layer_1" viewBox="0 0 24 24" xmlns="http://www.w3.org/2000/svg" data-name="Layer 1"><path d="m19.5 16h-2.5v-8h2.5c2.421 0 3.5-1.079 3.5-3.5s-1.079-3.5-3.5-3.5-3.5 1.079-3.5 3.5v2.5h-8v-2.5c0-2.421-1.079-3.5-3.5-3.5s-3.5 1.079-3.5 3.5 1.079 3.5 3.5 3.5h2.5v8h-2.5c-2.421 0-3.5 1.079-3.5 3.5s1.079 3.5 3.5 3.5 3.5-1.079 3.5-3.5v-2.5h8v2.5c0 2.421 1.079 3.5 3.5 3.5s3.5-1.079 3.5-3.5-1.079-3.5-3.5-3.5zm-2.5-11.5c0-1.869.631-2.5 2.5-2.5s2.5.631 2.5 2.5-.631 2.5-2.5 2.5h-2.5zm-12.5 2.5c-1.869 0-2.5-.631-2.5-2.5s.631-2.5 2.5-2.5 2.5.631 2.5 2.5v2.5zm2.5 12.5c0 1.869-.631 2.5-2.5 2.5s-2.5-.631-2.5-2.5.631-2.5 2.5-2.5h2.5zm1-11.5h8v8h-8zm11.5 14c-1.869 0-2.5-.631-2.5-2.5v-2.5h2.5c1.869 0 2.5.631 2.5 2.5s-.631 2.5-2.5 2.5z"/></svg>