<svg id="Layer_1" viewBox="0 0 24 24" xmlns="http://www.w3.org/2000/svg" data-name="Layer 1"><path d="m21.765 2.429c-.055-.16-.186-.282-.35-.323-.177-.045-4.406-1.105-9.415-1.105-4.92-.001-9.231 1.059-9.413 1.103-.167.042-.3.165-.354.328-.05.152-1.233 3.768-1.233 8.541s1.183 8.389 1.233 8.541c.054.163.188.286.354.328.125.031 3.046.753 6.572 1.043 1.372 1.292 2.529 2.01 2.579 2.042.08.049.171.074.262.074.088 0 .176-.023.254-.069.047-.028 1.153-.687 2.587-2.046 3.599-.287 6.454-1.014 6.575-1.045.165-.042.296-.166.35-.327.05-.151 1.233-3.761 1.233-8.563 0-4.845-1.185-8.374-1.235-8.521zm-.868 16.508c-.809.19-3.342.742-6.31.965-.116.009-.226.058-.31.139-1.006.97-1.864 1.588-2.274 1.863-.422-.288-1.31-.932-2.282-1.864-.083-.08-.192-.129-.308-.138-2.908-.226-5.488-.778-6.312-.967-.267-.908-1.102-4.065-1.102-7.962s.835-7.051 1.102-7.961c1.025-.231 4.794-1.011 8.898-1.011 4.177 0 7.891.78 8.9 1.011.267.891 1.1 3.989 1.1 7.939 0 3.916-.837 7.081-1.103 7.986z"/><path d="m14 5.5c-2.676 0-3.807 1.1-3.854 1.146-.094.094-.146.221-.146.354v5.013c-.419-.317-.935-.513-1.5-.513-1.378 0-2.5 1.122-2.5 2.5s1.122 2.5 2.5 2.5 2.5-1.122 2.5-2.5v-6.758c.341-.234 1.28-.742 3-.742s2.663.51 3 .742v4.78c-.419-.323-.935-.521-1.5-.521-1.378 0-2.5 1.122-2.5 2.5s1.122 2.5 2.5 2.5c1.402 0 2.5-1.08 2.5-2.458v-7.043c0-.133-.053-.26-.146-.354-.047-.047-1.177-1.146-3.854-1.146zm-5.5 10c-.827 0-1.5-.673-1.5-1.5s.673-1.5 1.5-1.5 1.5.673 1.5 1.5-.673 1.5-1.5 1.5zm7 0c-.827 0-1.5-.673-1.5-1.5s.673-1.5 1.5-1.5c.813 0 1.5.707 1.5 1.542 0 .817-.659 1.458-1.5 1.458z"/></svg>