<svg id="Layer_1" viewBox="0 0 24 24" xmlns="http://www.w3.org/2000/svg" data-name="Layer 1"><path d="m12 1c-5.122 0-11 1.25-11 11 0 7.71 3.29 11 11 11 3.894 0 7.271-.666 9.418-1.224.175-.045.312-.183.358-.358.812-3.123 1.224-6.291 1.224-9.418 0-7.71-3.29-11-11-11zm8.881 19.881c-2.098.527-5.261 1.119-8.881 1.119-7.103 0-10-2.897-10-10s2.897-10 10-10 10 2.897 10 10c0 2.947-.376 5.933-1.119 8.881z"/><path d="m15.73 12.057c-.24-.126-.546-.032-.674.212-.854 1.641-1.919 2.302-2.557 2.564v-6.33c0-.276-.224-.5-.5-.5s-.5.224-.5.5v6.33c-.639-.262-1.703-.924-2.556-2.563-.127-.245-.429-.34-.674-.213s-.34.43-.213.674c1.542 2.964 3.792 3.25 3.888 3.262.019.002.038.003.056.003s.038 0 .056-.003c.095-.011 2.346-.298 3.887-3.261.128-.245.032-.547-.213-.674z"/></svg>