<svg id="Layer_1" viewBox="0 0 24 24" xmlns="http://www.w3.org/2000/svg" data-name="Layer 1"><path d="m21.766 2.429c-.054-.16-.187-.282-.351-.324-.177-.045-4.406-1.105-9.415-1.105-4.92 0-9.231 1.06-9.413 1.104-.167.042-.3.165-.354.328-.05.152-1.233 3.768-1.233 8.541s1.183 8.389 1.233 8.541c.054.163.189.287.356.328.116.028 2.836.686 6.354.973 1.389 1.301 2.749 2.087 2.808 2.12.213.116.414.045.488.005.056-.031 1.361-.75 2.812-2.119 3.591-.285 6.25-.952 6.363-.98.165-.042.297-.165.351-.326.05-.15 1.234-3.738 1.234-8.542 0-4.844-1.184-8.395-1.234-8.543zm-.867 16.506c-.779.178-3.159.681-6.1.902-.116.009-.226.058-.31.139-1.044 1.006-2.04 1.667-2.485 1.941-.458-.289-1.492-.982-2.499-1.948-.083-.08-.192-.129-.308-.138-2.884-.224-5.303-.723-6.096-.899-.267-.91-1.102-4.066-1.102-7.96s.835-7.051 1.102-7.961c1.025-.231 4.794-1.011 8.898-1.011 4.176 0 7.889.779 8.899 1.011.267.896 1.101 4.011 1.101 7.962 0 3.913-.835 7.059-1.102 7.962z"/></svg>