<?xml version="1.0" encoding="UTF-8"?>
<svg xmlns="http://www.w3.org/2000/svg" id="Layer_1" data-name="Layer 1" viewBox="0 0 24 24">
  <path d="M22.213,9.415c-.179-.533-.438-1.033-.773-1.487-.164-.223-.478-.269-.698-.106-.223,.164-.271,.477-.106,.699,.272,.371,.484,.779,.631,1.213,.487,1.448,.734,2.913,.734,4.356,0,2.33-.297,4.693-.882,7.031-2.344,.583-4.717,.879-7.058,.879-1.449,0-2.92-.246-4.372-.731-.451-.151-.874-.372-1.258-.658-.222-.165-.535-.12-.7,.102-.165,.221-.119,.535,.102,.7,.469,.35,.986,.62,1.538,.805,1.555,.52,3.132,.783,4.689,.783,2.521,0,5.076-.331,7.594-.984,.176-.045,.313-.182,.358-.358,.655-2.513,.987-5.06,.987-7.569,0-1.551-.265-3.125-.787-4.675Z"/>
  <path d="M14.628,18.034c1.624-.543,2.919-1.833,3.465-3.452,1.044-3.102,1.044-6.248,0-9.35-.545-1.619-1.841-2.909-3.465-3.453-3.111-1.04-6.266-1.04-9.378,0-1.624,.543-2.919,1.834-3.464,3.453-.521,1.548-.786,3.121-.786,4.675,0,2.514,.332,5.06,.987,7.57,.046,.175,.183,.312,.358,.357,2.52,.653,5.075,.984,7.594,.984,1.558,0,3.136-.264,4.688-.784ZM2,9.907c0-1.445,.247-2.91,.733-4.355,.446-1.323,1.505-2.379,2.834-2.824,2.901-.969,5.842-.97,8.744,0,1.328,.445,2.388,1.5,2.834,2.824,.972,2.89,.972,5.821,0,8.711-.446,1.324-1.506,2.379-2.835,2.823-1.451,.486-2.921,.732-4.371,.732-2.34,0-4.713-.296-7.058-.879-.585-2.334-.881-4.699-.881-7.032Z"/>
</svg>
