<svg id="Layer_1" viewBox="0 0 24 24" xmlns="http://www.w3.org/2000/svg" data-name="Layer 1"><path d="m21.766 2.433c-.054-.161-.187-.283-.351-.325-.179-.045-4.426-1.108-9.415-1.108s-9.236 1.063-9.415 1.108c-.164.042-.297.164-.351.325-.051.149-1.234 3.715-1.234 8.567s1.184 8.417 1.234 8.567c.054.161.186.283.351.325.119.031 2.922.736 6.661 1.005.814.938 2.316 2.071 2.797 2.102.399-.031 1.897-1.164 2.711-2.102 3.739-.269 6.542-.974 6.661-1.005.165-.042.297-.164.351-.325.051-.149 1.234-3.715 1.234-8.567s-1.184-8.417-1.234-8.567zm-.867 16.555c-.802.186-3.287.716-6.425.926-.141.01-.271.078-.358.188-.623.785-1.685 1.574-2.115 1.841-.431-.267-1.492-1.057-2.115-1.841-.088-.11-.218-.178-.358-.188-3.138-.209-5.623-.74-6.425-.926-.267-.897-1.102-4.026-1.102-7.988s.835-7.09 1.102-7.988c1.012-.235 4.678-1.012 8.898-1.012s7.887.777 8.898 1.012c.267.897 1.102 4.027 1.102 7.988s-.835 7.09-1.102 7.988zm-4.656-12.308c-.874-.901-2.631-.899-3.489.012l-4.415 4.417c-.773.779-1.227 1.82-1.276 2.932l-.062 1.438c-.018.285.238.54.522.521l1.429-.063c1.106-.049 2.143-.506 2.915-1.286l4.413-4.416c.964-.971.958-2.555-.012-3.531-.008-.008-.017-.016-.025-.024zm-.671 2.849-4.414 4.416c-.597.602-1.396.954-2.251.992l-.884.039.038-.892c.039-.863.39-1.669.985-2.271l4.416-4.417c.506-.539 1.619-.519 2.115.031.565.589.564 1.527-.006 2.102z"/></svg>