<?xml version="1.0" encoding="UTF-8"?>
<svg xmlns="http://www.w3.org/2000/svg" id="Layer_1" data-name="Layer 1" viewBox="0 0 24 24">
  <path d="M22.005,6.205c-.664-1.984-2.243-3.566-4.222-4.233-3.838-1.291-7.728-1.291-11.565,0-1.979,.667-3.558,2.249-4.222,4.233-1.287,3.846-1.287,7.745,0,11.591,.664,1.984,2.243,3.566,4.223,4.233,1.917,.645,3.863,.972,5.782,.972,3.117,0,6.278-.412,9.395-1.224,.176-.046,.312-.183,.358-.358,.81-3.123,1.221-6.292,1.221-9.417,0-1.925-.326-3.875-.969-5.795Zm-1.147,14.677c-2.942,.742-5.921,1.119-8.858,1.119-1.811,0-3.649-.31-5.463-.92-1.685-.566-3.028-1.913-3.593-3.602-1.216-3.635-1.216-7.321,0-10.956,.565-1.689,1.909-3.036,3.593-3.602,1.812-.61,3.638-.915,5.463-.915s3.651,.305,5.463,.915c1.685,.566,3.028,1.913,3.593,3.602,.608,1.818,.917,3.661,.917,5.478,0,2.946-.375,5.933-1.116,8.881Z"/>
  <path d="M17.304,11.5H6.696c-.276,0-.5,.224-.5,.5s.224,.5,.5,.5h10.607c.276,0,.5-.224,.5-.5s-.224-.5-.5-.5Z"/>
  <path d="M16.256,14.722H7.744c-.276,0-.5,.224-.5,.5s.224,.5,.5,.5h8.513c.276,0,.5-.224,.5-.5s-.224-.5-.5-.5Z"/>
  <path d="M7.744,9.278h3.042c.276,0,.5-.224,.5-.5s-.224-.5-.5-.5h-3.042c-.276,0-.5,.224-.5,.5s.224,.5,.5,.5Z"/>
</svg>
