<?xml version="1.0" encoding="UTF-8"?>
<svg xmlns="http://www.w3.org/2000/svg" id="Layer_1" data-name="Layer 1" viewBox="0 0 24 24">
  <g>
    <path d="M14.436,9.913c.599,.096,3.579,.405,6.381-1.38,.188-.12,.278-.347,.218-.561-.021-.073-.473-1.64-1.495-2.883l3.24-3.236c.195-.195,.195-.512,0-.708s-.512-.195-.707,0l-3.237,3.232c-1.245-1.042-2.831-1.468-2.905-1.487-.215-.058-.44,.035-.554,.224-1.878,3.085-1.385,6.247-1.374,6.382,.022,.284,.296,.395,.433,.417Z"/>
    <path d="M9.564,9.913c-.599,.096-3.579,.405-6.381-1.38-.188-.12-.278-.347-.218-.561,.021-.073,.473-1.64,1.495-2.883L1.22,1.853c-.195-.195-.195-.512,0-.708s.512-.195,.707,0l3.237,3.232c1.245-1.042,2.831-1.468,2.905-1.487,.215-.058,.44,.035,.554,.224,1.878,3.085,1.385,6.247,1.374,6.382-.022,.284-.296,.395-.433,.417Z"/>
  </g>
  <g>
    <path d="M9.564,14.087c-.599-.096-3.579-.405-6.381,1.38-.188,.12-.278,.347-.218,.561,.021,.073,.473,1.64,1.495,2.883l-3.24,3.236c-.195,.195-.195,.512,0,.708s.512,.195,.707,0l3.237-3.232c1.245,1.042,2.831,1.468,2.905,1.487,.215,.058,.44-.035,.554-.224,1.878-3.085,1.385-6.247,1.374-6.382-.022-.284-.296-.395-.433-.417Z"/>
    <path d="M14.436,14.087c.599-.096,3.579-.405,6.381,1.38,.188,.12,.278,.347,.218,.561-.021,.073-.473,1.64-1.495,2.883l3.24,3.236c.195,.195,.195,.512,0,.708s-.512,.195-.707,0l-3.237-3.232c-1.245,1.042-2.831,1.468-2.905,1.487-.215,.058-.44-.035-.554-.224-1.878-3.085-1.385-6.247-1.374-6.382,.022-.284,.296-.395,.433-.417Z"/>
  </g>
</svg>
