<svg id="Layer_1" viewBox="0 0 24 24" xmlns="http://www.w3.org/2000/svg" data-name="Layer 1"><path d="m19.845 4.312c-.058-.146-.179-.255-.329-.298-.062-.018-1.49-.416-3.799-.691-.426-1.582-1.617-2.322-3.717-2.322s-3.291.74-3.717 2.322c-2.308.275-3.736.674-3.798.691-.15.043-.272.152-.329.298-.047.119-1.155 2.989-1.155 8.688s1.108 8.569 1.155 8.688c.052.132.157.235.29.284.112.042 2.794 1.027 7.555 1.027s7.443-.985 7.556-1.027c.132-.049.237-.152.289-.284.047-.119 1.155-2.989 1.155-8.688s-1.108-8.569-1.155-8.688zm-.857 16.796c-.714.224-3.171.892-6.988.892s-6.276-.669-6.989-.892c-.245-.747-1.011-3.455-1.011-8.108 0-4.593.753-7.31 1.005-8.088.531-.131 1.877-.433 3.742-.637.219-.024.397-.189.437-.406.207-1.122.765-1.869 2.816-1.869s2.609.747 2.815 1.869c.04.217.218.382.438.406 1.865.204 3.213.506 3.743.637.252.775 1.004 3.477 1.004 8.088s-.767 7.357-1.012 8.108zm-.988-5.608c0 .276-.224.5-.5.5h-4c-.276 0-.5-.224-.5-.5s.224-.5.5-.5h4c.276 0 .5.224.5.5zm0-5c0 .276-.224.5-.5.5h-4c-.276 0-.5-.224-.5-.5s.224-.5.5-.5h4c.276 0 .5.224.5.5zm-6.113-2.383c.211.177.239.492.062.704-.96 1.146-2.053 2.182-3.249 3.079-.178.133-.422.133-.6 0-.685-.514-1.341-1.077-1.95-1.674-.197-.193-.2-.51-.007-.707.192-.199.51-.199.707-.008.488.479 1.008.935 1.55 1.358 1.018-.797 1.952-1.7 2.782-2.691.178-.212.493-.24.705-.062zm0 5c.211.177.239.492.062.704-.96 1.146-2.053 2.182-3.249 3.079-.178.133-.422.133-.6 0-.685-.514-1.341-1.077-1.95-1.674-.197-.193-.2-.51-.007-.707.192-.199.51-.2.707-.008.488.479 1.008.935 1.55 1.358 1.018-.797 1.952-1.7 2.782-2.691.178-.211.493-.24.705-.062z"/></svg>