<svg id="Layer_1" viewBox="0 0 24 24" xmlns="http://www.w3.org/2000/svg" data-name="Layer 1"><path d="m21.922 2.535c-.049-.139-.156-.25-.294-.302-.132-.05-3.309-1.233-9.628-1.233s-9.496 1.183-9.628 1.233c-.138.053-.245.163-.294.302-.044.125-1.078 3.136-1.078 7.965s1.034 7.839 1.078 7.965c.049.139.156.25.294.302.032.012.247.092.639.204.056 1.669.379 2.864.394 2.916.047.169.179.301.349.348.113.031 2.832.765 8.247.765s8.134-.733 8.247-.765c.169-.047.302-.179.349-.348.015-.052.338-1.247.394-2.916.392-.112.607-.192.639-.204.138-.053.245-.163.294-.302.044-.125 1.078-3.136 1.078-7.965s-1.034-7.839-1.078-7.965zm-2.223 18.803c-.816.18-3.401.662-7.699.662s-6.883-.481-7.699-.662c-.085-.388-.221-1.159-.274-2.111 1.553.351 4.198.772 7.973.772s6.42-.422 7.973-.772c-.053.951-.189 1.723-.274 2.111zm1.351-3.431c-.814.258-3.855 1.093-9.05 1.093s-8.235-.835-9.05-1.093c-.232-.777-.95-3.495-.95-7.407s.718-6.63.95-7.407c.814-.258 3.855-1.093 9.05-1.093s8.235.835 9.05 1.093c.232.777.95 3.495.95 7.407s-.718 6.63-.95 7.407zm-13.8-2.407c0 .414-.336.75-.75.75s-.75-.336-.75-.75.336-.75.75-.75.75.336.75.75zm10.75 0c0 .276-.224.5-.5.5h-7c-.276 0-.5-.224-.5-.5s.224-.5.5-.5h7c.276 0 .5.224.5.5zm.092-9.992c-1.854-.347-3.791-.508-6.092-.508s-4.244.162-6.092.509c-.192.036-.345.181-.393.37-.515 2.06-.515 3.102-.515 5.621 0 .276.224.5.5.5h13c.276 0 .5-.224.5-.5 0-2.519 0-3.562-.515-5.621-.047-.19-.201-.334-.393-.371zm-12.092 5.492c.002-2.01.03-2.958.409-4.566 1.691-.296 3.479-.434 5.591-.434s3.894.138 5.591.434c.379 1.608.407 2.556.409 4.566z"/></svg>