<svg id="Layer_1" viewBox="0 0 24 24" xmlns="http://www.w3.org/2000/svg" data-name="Layer 1"><path d="m11 15.5v3.003c0 .276-.224.5-.5.5h-3c-.276 0-.5-.224-.5-.5s.224-.5.5-.5h2.5l-.028-2.004c-5.163-.059-7.623-.924-7.725-.96-.136-.049-.244-.154-.297-.288-.038-.099-.95-2.466-.95-6.251s.912-6.152.95-6.251c.053-.135.161-.239.297-.288.11-.039 2.748-.962 8.265-.962.002 0 .004.001.006.001 5.504.002 8.138.924 8.247.963.136.049.244.153.297.288.019.048.467 1.204.741 3.181.038.273-.152.525-.427.563-.267.039-.527-.151-.563-.427-.19-1.369-.471-2.325-.605-2.732-.728-.211-3.264-.836-7.707-.836-.001 0-.002 0-.004 0-4.433.001-6.964.624-7.692.835-.214.654-.805 2.721-.805 5.666s.591 5.013.805 5.666c.698.202 3.055.786 7.174.833h.522c.275.002.499.226.499.501zm12 0c0 3.658-.487 6.448-.508 6.564-.034.196-.183.354-.377.399-.092.022-2.278.536-4.115.536s-4.023-.514-4.115-.536c-.194-.046-.343-.203-.377-.399-.021-.116-.508-2.906-.508-6.564s.487-6.448.508-6.564c.034-.196.183-.354.377-.399.092-.022 2.278-.536 4.115-.536s4.023.514 4.115.536c.194.046.343.203.377.399.021.116.508 2.906.508 6.564zm-1 0c0-2.857-.313-5.223-.44-6.062-.666-.14-2.239-.438-3.56-.438s-2.894.298-3.56.438c-.127.84-.44 3.205-.44 6.062s.313 5.223.44 6.062c.666.14 2.239.438 3.56.438s2.894-.298 3.56-.438c.127-.84.44-3.205.44-6.062zm-1.5 2c0 1.706-.794 2.5-2.5 2.5s-2.5-.794-2.5-2.5.794-2.5 2.5-2.5 2.5.794 2.5 2.5zm-1 0c0-1.149-.351-1.5-1.5-1.5s-1.5.351-1.5 1.5.351 1.5 1.5 1.5 1.5-.351 1.5-1.5zm-1.5-4.25c.414 0 .75-.336.75-.75s-.336-.75-.75-.75-.75.336-.75.75.336.75.75.75z"/></svg>