<svg id="Layer_1" viewBox="0 0 24 24" xmlns="http://www.w3.org/2000/svg" data-name="Layer 1"><path d="m4.75 20c0 .414-.336.75-.75.75s-.75-.336-.75-.75.336-.75.75-.75.75.336.75.75zm16.5-8c0 .414.336.75.75.75s.75-.336.75-.75-.336-.75-.75-.75-.75.336-.75.75zm-10.25 9.25c-.414 0-.75.336-.75.75s.336.75.75.75.75-.336.75-.75-.336-.75-.75-.75zm-9-18.5c.414 0 .75-.336.75-.75s-.336-.75-.75-.75-.75.336-.75.75.336.75.75.75zm3 3c.414 0 .75-.336.75-.75s-.336-.75-.75-.75-.75.336-.75.75.336.75.75.75zm18 14.741c-.029 1.614-.916 2.499-2.498 2.509-1.587-.01-2.474-.895-2.504-2.49v-.019c.008-.459.095-.852.242-1.19-1.758-1.114-3.968-2.903-5.327-4.642-.379.218-.848.337-1.41.34-1.415-.009-2.269-.717-2.46-2h-3.087c-.195 1.288-1.047 1.991-2.452 2-1.588-.01-2.475-.895-2.504-2.491v-.018c.028-1.597.916-2.481 2.498-2.491 1.394.009 2.264.733 2.459 2h3.086c.167-1.129.851-1.809 1.974-1.962.068-1.135.353-2.925.697-4.14-1.084-.264-1.689-1.084-1.713-2.389v-.018c.028-1.597.915-2.481 2.496-2.491 1.393.009 2.263.732 2.458 2h3.089c.19-1.283 1.044-1.991 2.454-2 1.566.01 2.477.918 2.503 2.492-.029 1.615-.916 2.5-2.497 2.509-1.416-.009-2.269-.717-2.46-2.001h-3.089c-.183 1.213-.957 1.897-2.219 1.98-.341 1.098-.645 2.925-.719 4.062 1.245.192 1.959 1.059 1.984 2.449-.011.589-.139 1.078-.37 1.466 1.291 1.693 3.494 3.467 5.218 4.548.412-.322.96-.501 1.648-.505 1.565.01 2.477.918 2.504 2.491zm-4-16.991c.021 1.045.472 1.495 1.504 1.501 1.042-.006 1.478-.444 1.497-1.51-.018-1.006-.495-1.485-1.503-1.492-1.026.006-1.477.455-1.498 1.5zm-6.497 1.499c1.042-.006 1.478-.443 1.497-1.509-.018-1.004-.495-1.484-1.503-1.49-1.025.006-1.475.455-1.496 1.5.021 1.045.471 1.494 1.502 1.5zm-7.501 7.492c-.018-1.005-.496-1.484-1.504-1.491-1.026.006-1.477.455-1.498 1.5.021 1.045.472 1.494 1.504 1.5 1.042-.007 1.479-.443 1.498-1.509zm6.501 1.509c1.042-.007 1.479-.443 1.498-1.509-.018-1.005-.496-1.484-1.504-1.491-1.026.006-1.477.455-1.498 1.5.021 1.045.472 1.494 1.504 1.5zm10.497 6.491c-.018-1.006-.496-1.485-1.504-1.491-1.026.006-1.477.455-1.498 1.5.022 1.045.473 1.494 1.504 1.5 1.043-.007 1.479-.443 1.498-1.509z"/></svg>