<svg id="Layer_1" viewBox="0 0 24 24" xmlns="http://www.w3.org/2000/svg" data-name="Layer 1"><path d="m22.363 19.019c-.012.003-.457.125-1.31.281.331-1.126.947-3.706.947-7.3s-.617-6.174-.947-7.3c.853.156 1.298.278 1.31.281.259.075.543-.076.618-.344.076-.265-.078-.542-.343-.618-.146-.042-3.647-1.019-10.637-1.019s-10.493.978-10.638 1.019c-.266.076-.419.353-.343.618.075.266.352.418.618.344.012-.003.457-.125 1.31-.281-.331 1.126-.947 3.706-.947 7.3s.617 6.174.947 7.3c-.853-.156-1.298-.278-1.31-.281-.267-.076-.542.079-.618.344s.078.542.343.618c.146.042 3.647 1.019 10.637 1.019s10.492-.978 10.637-1.019c.266-.076.419-.353.343-.618-.076-.266-.351-.419-.618-.344zm-18.31.462c-.175-.516-1.053-3.309-1.053-7.481s.878-6.965 1.053-7.481c1.731-.254 4.38-.519 7.947-.519s6.216.265 7.947.519c.175.516 1.053 3.309 1.053 7.481s-.878 6.965-1.053 7.481c-1.731.254-4.38.519-7.947.519s-6.216-.265-7.947-.519zm12.947-11.981v9c0 .276-.224.5-.5.5s-.5-.224-.5-.5v-9c0-.276.224-.5.5-.5s.5.224.5.5zm-4.5 0v9c0 .276-.224.5-.5.5s-.5-.224-.5-.5v-9c0-.276.224-.5.5-.5s.5.224.5.5zm-4.5 0v9c0 .276-.224.5-.5.5s-.5-.224-.5-.5v-9c0-.276.224-.5.5-.5s.5.224.5.5z"/></svg>