<svg id="Layer_1" viewBox="0 0 24 24" xmlns="http://www.w3.org/2000/svg" data-name="Layer 1"><path d="m19.726 15.302c-1.689-.186-4.649-.302-7.726-.302s-6.036.116-7.725.302c-1.89.206-3.328 1.836-3.275 3.701.009 1.843 1.417 3.386 3.274 3.591.863.095 3.974.407 7.726.407s6.862-.312 7.726-.407c1.855-.204 3.263-1.745 3.274-3.585.05-1.874-1.388-3.501-3.274-3.707zm2.274 3.696c-.007 1.334-1.031 2.453-2.384 2.602-.852.094-3.915.401-7.616.401s-6.765-.307-7.616-.401c-1.353-.149-2.377-1.267-2.384-2.613-.038-1.359 1.009-2.541 2.384-2.69 1.656-.183 4.574-.296 7.616-.296s5.96.113 7.617.296c1.374.149 2.421 1.331 2.383 2.69v.012zm-15.25.002c0 .414-.336.75-.75.75s-.75-.336-.75-.75.336-.75.75-.75.75.336.75.75zm6 0c0 .414-.336.75-.75.75s-.75-.336-.75-.75.336-.75.75-.75.75.336.75.75zm6 0c0 .414-.336.75-.75.75s-.75-.336-.75-.75.336-.75.75-.75.75.336.75.75zm-3.008-6.362c.067.015 1.666.362 3.258.362s3.19-.347 3.258-.362c.19-.042.339-.19.381-.381.015-.067.361-1.666.361-3.257s-.347-3.19-.361-3.257c-.042-.191-.19-.34-.381-.381-.067-.015-1.666-.362-3.258-.362s-3.19.347-3.258.362c-.19.042-.339.19-.381.381-.015.067-.361 1.666-.361 3.257s.347 3.19.361 3.257c.042.191.19.34.381.381zm.533-6.362c.53-.098 1.644-.276 2.725-.276s2.193.178 2.725.276c.098.531.275 1.646.275 2.724s-.178 2.193-.275 2.724c-.53.098-1.644.276-2.725.276s-2.193-.178-2.725-.276c-.098-.531-.275-1.646-.275-2.724s.178-2.193.275-2.724zm-14.333 6.162c.104.023 2.588.562 5.058.562s4.953-.539 5.058-.562c.19-.042.339-.19.381-.381.023-.104.562-2.587.562-5.057s-.538-4.953-.562-5.057c-.042-.191-.19-.34-.381-.381-.104-.023-2.588-.562-5.058-.562s-4.953.539-5.058.562c-.19.042-.339.19-.381.381-.023.104-.562 2.587-.562 5.057s.538 4.953.562 5.057c.042.191.19.34.381.381zm.533-9.964c.741-.143 2.664-.474 4.525-.474s3.784.332 4.525.474c.143.742.475 2.665.475 4.526s-.332 3.784-.475 4.526c-.741.143-2.664.474-4.525.474s-3.784-.332-4.525-.474c-.143-.742-.475-2.665-.475-4.526s.332-3.784.475-4.526z"/></svg>