<svg id="Layer_1" viewBox="0 0 24 24" xmlns="http://www.w3.org/2000/svg" data-name="Layer 1"><path d="m19.726 15.302c-1.689-.186-4.649-.302-7.726-.302s-6.036.116-7.725.302c-1.89.206-3.328 1.836-3.275 3.701.009 1.843 1.417 3.386 3.274 3.591.863.095 3.974.407 7.726.407s6.862-.312 7.726-.407c1.855-.204 3.263-1.745 3.274-3.585.05-1.874-1.388-3.501-3.274-3.707zm2.274 3.696c-.007 1.334-1.031 2.453-2.384 2.602-.852.094-3.915.401-7.616.401s-6.765-.307-7.616-.401c-1.353-.149-2.377-1.267-2.384-2.613-.038-1.359 1.009-2.541 2.384-2.69 1.656-.183 4.574-.296 7.616-.296s5.96.113 7.617.296c1.374.149 2.421 1.331 2.383 2.69v.012zm-15.25.002c0 .414-.336.75-.75.75s-.75-.336-.75-.75.336-.75.75-.75.75.336.75.75zm6 0c0 .414-.336.75-.75.75s-.75-.336-.75-.75.336-.75.75-.75.75.336.75.75zm6 0c0 .414-.336.75-.75.75s-.75-.336-.75-.75.336-.75.75-.75.75.336.75.75zm-12.775-6.766c.083.031 2.079.766 6.025.766s5.942-.734 6.025-.766c.139-.052.246-.162.296-.301.027-.078.679-1.949.679-4.934s-.651-4.855-.679-4.934c-.05-.139-.157-.249-.296-.301-.083-.031-2.079-.766-6.025-.766s-5.942.734-6.025.766c-.139.052-.246.162-.296.301-.027.078-.679 1.949-.679 4.934s.651 4.855.679 4.934c.05.139.157.249.296.301zm7.591-10.187c-.093 1.157-.196 2.421-.226 2.715-.072.715-.675 1.265-1.368 1.238-.675-.004-1.238-.537-1.312-1.238-.029-.287-.139-1.554-.239-2.714.487-.027 1.004-.047 1.579-.047.569 0 1.082.02 1.566.047zm-7.015.582c.406-.12 1.372-.361 2.873-.507.101 1.169.213 2.45.242 2.741.125 1.211 1.113 2.13 2.288 2.137h.064c1.183 0 2.193-.927 2.315-2.138.03-.296.135-1.573.229-2.741 1.503.146 2.478.387 2.887.508.163.567.551 2.148.551 4.37s-.388 3.805-.551 4.371c-.604.179-2.418.629-5.449.629-3.014 0-4.842-.451-5.449-.63-.163-.567-.551-2.148-.551-4.37s.388-3.805.551-4.371z"/></svg>