<svg id="Layer_1" viewBox="0 0 24 24" xmlns="http://www.w3.org/2000/svg" data-name="Layer 1"><path d="m7.75 12.999c0 .414-.335.749-.749.749s-.749-.335-.749-.749.335-.749.749-.749.749.335.749.749zm3.246 3.245c-.414 0-.749.335-.749.749s.335.749.749.749.749-.335.749-.749-.335-.749-.749-.749zm-1.997-8.987c-.414 0-.749.335-.749.749s.335.749.749.749.749-.335.749-.749-.335-.749-.749-.749zm2.995 3.994c-.414 0-.749.335-.749.749s.335.749.749.749.749-.335.749-.749-.335-.749-.749-.749zm3.995 2.996c-.414 0-.749.335-.749.749s.335.749.749.749.749-.335.749-.749-.335-.749-.749-.749zm6.99-2.247c0 1.114-.179 2.669-1.729 3.318-.343.143-.523.466-.457.822.059.327.089.687.09 1.099 0 1.002-.373 1.925-1.048 2.601s-1.598 1.048-2.599 1.048c-.4 0-.769-.03-1.099-.089-.36-.064-.68.115-.822.456-.649 1.551-2.205 1.73-3.319 1.73s-2.669-.179-3.318-1.729c-.143-.343-.465-.521-.822-.457-.331.059-.7.09-1.1.09-1.001 0-1.923-.372-2.599-1.048s-1.048-1.599-1.048-2.6c0-.414.03-.773.09-1.1.065-.356-.114-.679-.457-.823-1.55-.648-1.729-2.203-1.729-3.317s.179-2.67 1.73-3.318c.341-.143.522-.466.456-.823-.059-.326-.089-.686-.09-1.098 0-1.002.373-1.926 1.048-2.601s1.598-1.048 2.599-1.048c.4 0 .769.03 1.099.089.359.066.68-.115.822-.456.649-1.551 2.205-1.73 3.319-1.73s2.669.179 3.318 1.729c.143.343.462.522.822.457.331-.059.7-.09 1.1-.09 1.001 0 1.923.372 2.599 1.048s1.048 1.599 1.048 2.6c0 .414-.03.773-.09 1.1-.065.356.114.679.457.823 1.55.648 1.729 2.203 1.729 3.317zm-.999 0c0-1.7-.565-2.165-1.116-2.396-.782-.328-1.205-1.101-1.055-1.924.049-.267.073-.569.074-.922 0-.732-.268-1.405-.756-1.892-.487-.487-1.159-.755-1.893-.755-.341 0-.651.025-.922.074-.811.145-1.601-.286-1.922-1.055-.23-.551-.695-1.116-2.396-1.116s-2.166.564-2.397 1.116c-.32.768-1.109 1.206-1.922 1.054-.269-.048-.579-.073-.921-.073-.733 0-1.406.268-1.893.755-.488.487-.756 1.16-.756 1.894 0 .352.025.653.074.921.149.823-.274 1.595-1.054 1.922-.552.231-1.117.696-1.117 2.397s.565 2.165 1.116 2.396c.782.328 1.205 1.101 1.055 1.924-.049.267-.073.569-.074.922 0 .732.268 1.405.756 1.892.487.487 1.159.755 1.893.755.471.015.822-.08 1.238-.102.693 0 1.327.415 1.606 1.084.23.551.695 1.116 2.396 1.116s2.166-.564 2.397-1.116c.32-.768 1.11-1.202 1.922-1.054.269.048.579.073.921.073.733 0 1.406-.268 1.893-.755.488-.487.756-1.159.756-1.893 0-.352-.025-.653-.074-.922-.15-.823.273-1.596 1.055-1.922.551-.231 1.116-.696 1.116-2.397z"/></svg>