<?xml version="1.0" encoding="UTF-8"?>
<svg xmlns="http://www.w3.org/2000/svg" id="Layer_1" data-name="Layer 1" viewBox="0 0 24 24">
  <path d="M22.48,11.478c-6.189-.274-8.952-3.345-8.958-9.958,0-.268-.212-.488-.479-.499-.341-.014-.688-.021-1.043-.021C6.582,1,1.042,2.307,1.042,12c0,7.505,3.482,11,10.958,11,5.102,0,10.958-1.25,10.958-11.022,0-.268-.211-.488-.478-.5Zm-10.48,10.522c-6.98,0-9.958-2.991-9.958-10C2.042,3.211,6.828,2,12,2c.178,0,.354,.002,.528,.005,.143,6.68,3.152,10.013,9.426,10.444-.121,6.776-3.032,9.55-9.954,9.55Z"/>
  <g>
    <circle cx="8.88" cy="10.254" r=".75"/>
    <circle cx="7.66" cy="16.365" r=".75"/>
    <circle cx="13.74" cy="15.145" r=".75"/>
    <circle cx="20.705" cy="7.521" r=".75"/>
    <circle cx="17.87" cy="3.533" r=".75"/>
  </g>
</svg>
