<?xml version="1.0" encoding="UTF-8"?>
<svg xmlns="http://www.w3.org/2000/svg" id="Layer_1" data-name="Layer 1" viewBox="0 0 24 24">
  <path d="M21.079,11.841c-.088-.097-.212-.155-.343-.163-.051,0-.692-.025-1.67,.328,.004-.084,.006-.169,.008-.256-.053-4.083-1.946-7.358-3.701-9.062-1.122-1.089-2.317-1.687-3.37-1.687-2.684,0-7.007,4.878-7.077,10.768,.002,.08,.005,.159,.008,.237-.979-.353-1.62-.329-1.67-.327-.131,.007-.255,.065-.343,.163-.736,.807-1.872,6.005,.985,9.126,1.539,1.68,3.52,2.033,4.914,2.033h.009c1.287-.001,2.52-.315,3.171-.673,.651,.358,1.884,.672,3.171,.673h.009c1.395,0,3.376-.354,4.914-2.034,2.857-3.121,1.722-8.318,.985-9.125Zm-15.114,.586c-.021-.223-.033-.451-.039-.665,.006-.463,.042-.922,.104-1.373h2.284c.276,0,.5-.224,.5-.5s-.224-.5-.5-.5h-2.103c.929-4.103,3.95-7.389,5.835-7.389,.753,0,1.71,.511,2.631,1.405,1.258,1.221,2.593,3.329,3.141,5.984h-2.132c-.276,0-.5,.224-.5,.5s.224,.5,.5,.5h2.296c.054,.44,.086,.892,.092,1.355-.006,.239-.019,.473-.04,.703,0,.008,0,.017-.001,.025-.815,.442-1.755,1.13-2.734,2.199-1.727,1.886-2.759,4.067-3.299,5.471-.54-1.404-1.572-3.584-3.299-5.471-.979-1.069-1.919-1.757-2.734-2.2,0-.015,0-.03-.002-.045Zm2.577,9.568c-1.105-.043-2.68-.374-3.897-1.704-2.356-2.573-1.484-6.641-1.08-7.597,.639,.074,2.408,.479,4.398,2.653,2.121,2.316,3.148,5.189,3.452,6.16-.463,.216-1.545,.546-2.873,.487Zm10.813-1.704c-1.218,1.33-2.792,1.661-3.897,1.704-1.323,.059-2.41-.271-2.874-.487,.303-.97,1.326-3.838,3.453-6.16,1.991-2.175,3.762-2.579,4.397-2.654,.406,.964,1.275,5.027-1.079,7.598Z"/>
  <path d="M11.455,7.661h1.09c.276,0,.5-.224,.5-.5s-.224-.5-.5-.5h-1.09c-.276,0-.5,.224-.5,.5s.224,.5,.5,.5Z"/>
  <path d="M11.455,13.118h1.09c.276,0,.5-.224,.5-.5s-.224-.5-.5-.5h-1.09c-.276,0-.5,.224-.5,.5s.224,.5,.5,.5Z"/>
</svg>
