<svg id="Layer_1" viewBox="0 0 24 24" xmlns="http://www.w3.org/2000/svg" data-name="Layer 1"><path d="m20.942 10.528c.035-.344.058-.644.058-1.228 0-3.675-.846-5.973-.882-6.068-.052-.138-.161-.247-.301-.296-.107-.038-2.69-.936-7.817-.936s-7.71.897-7.817.936c-.14.049-.249.158-.301.296-.036.096-.882 2.394-.882 6.068 0 .584.023.884.058 1.228-1.396.134-2.058.926-2.058 2.491.138 3.704.987 6.449 1.022 6.564.05.158.174.281.332.329.057.017.626.186 1.646.385v1.203c0 .276.224.5.5.5s.5-.224.5-.5v-1.024c1.642.265 4.009.524 7 .524s5.358-.259 7-.524v1.024c0 .276.224.5.5.5s.5-.224.5-.5v-1.203c1.02-.199 1.589-.368 1.646-.385.158-.048.282-.171.332-.329.035-.115.885-2.86 1.022-6.583 0-1.548-.662-2.338-2.058-2.472zm-16.199-6.72c.721-.208 3.158-.808 7.257-.808s6.536.6 7.257.808c.202.648.743 2.648.743 5.492 0 .595-.025.86-.064 1.235-1.265.166-1.869.935-1.934 2.424-.082 1.005-.193 1.955-.254 2.441-.795.177-2.98.599-5.748.599s-4.953-.422-5.748-.599c-.061-.486-.171-1.431-.252-2.423-.067-1.505-.67-2.277-1.936-2.443-.04-.376-.064-.641-.064-1.235 0-2.843.541-4.843.743-5.492zm16.355 15.217c-.905.235-4.156.975-9.098.975s-8.192-.741-9.098-.975c-.209-.759-.794-3.111-.902-6.025 0-1.149.351-1.5 1.5-1.5 1.125 0 1.448.327 1.502 1.541.119 1.469.301 2.82.303 2.834.026.2.171.364.366.417.109.029 2.706.709 6.329.709s6.22-.68 6.329-.709c.195-.052.34-.216.366-.417.002-.014.184-1.365.305-2.853.052-1.195.375-1.522 1.5-1.522 1.149 0 1.5.351 1.5 1.481-.108 2.929-.693 5.284-.902 6.043z"/></svg>