<svg id="Layer_1" viewBox="0 0 24 24" xmlns="http://www.w3.org/2000/svg" data-name="Layer 1"><path d="m14.822 21.081c-.232-.149-.541-.085-.692.146-.234.36-.689.773-2.13.773-1.705 0-2.373-.537-2.478-2.048.315.012.637.023.967.03h.012c.271 0 .493-.216.5-.488.007-.276-.212-.505-.488-.512-4.361-.104-7.44-.641-8.423-.834-.093-.818-.25-3.104.4-6.118.605-2.803 1.605-4.685 2.111-5.51 1.527-.246 3.997-.521 7.399-.521s5.872.275 7.399.521c.506.825 1.506 2.707 2.111 5.51.181.835.312 1.683.394 2.517.027.276.292.468.546.45.275-.027.477-.271.45-.546-.085-.874-.224-1.759-.413-2.632-.69-3.2-1.883-5.28-2.364-6.026-.076-.118-.198-.199-.337-.222-.836-.141-1.995-.296-3.451-.409.385-.41.664-.997.665-1.693-.003-1.183-.88-2.104-1.698-2.222-.829-.12-2.269-.248-3.302-.248s-2.473.127-3.302.247c-.818.118-1.695 1.039-1.698 2.284.002.658.278 1.229.66 1.632-1.454.113-2.611.267-3.446.409-.139.023-.261.104-.337.222-.481.746-1.674 2.827-2.364 6.026-.863 3.996-.384 6.722-.363 6.836.036.196.186.353.38.397.124.028 2.726.617 6.995.851.122 2.126 1.2 3.095 3.476 3.095 1.479 0 2.421-.39 2.968-1.227.15-.231.086-.541-.146-.692zm-5.981-16.318c-.334-.048-.84-.564-.841-1.292 0-.669.507-1.186.841-1.234.795-.115 2.172-.237 3.159-.237s2.364.122 3.159.237c.334.048.84.564.841 1.292 0 .669-.507 1.186-.841 1.234-.864.125-1.756.237-3.159.237s-2.295-.112-3.159-.237zm14.197 12.724c0 .275-.223.5-.499.501l-4.525.011.011 4.5c0 .275-.223.5-.499.501-.275 0-.499-.223-.5-.499l-.011-4.5-4.475.011c-.275 0-.499-.223-.5-.499 0-.275.223-.5.499-.501l4.474-.011-.011-4.5c0-.276.223-.501.499-.501.275 0 .499.223.5.499l.011 4.5 4.526-.011c.275 0 .499.223.5.499z"/></svg>