<svg id="Layer_1" viewBox="0 0 24 24" xmlns="http://www.w3.org/2000/svg" data-name="Layer 1"><path d="m22.487 11.82c-.69-3.2-1.883-5.28-2.364-6.026-.076-.118-.198-.199-.337-.222-.836-.141-1.995-.296-3.451-.409.385-.41.664-.997.665-1.693-.003-1.183-.88-2.104-1.698-2.222-.829-.12-2.269-.248-3.302-.248s-2.473.127-3.302.247c-.818.118-1.695 1.039-1.698 2.284.001.659.278 1.229.66 1.632-1.454.113-2.611.267-3.447.409-.138.023-.261.104-.337.223-.48.747-1.673 2.829-2.364 6.026-.863 3.996-.383 6.722-.362 6.836.036.196.185.353.379.397.134.031 2.74.618 6.995.851.122 2.126 1.2 3.095 3.476 3.095s3.353-.969 3.476-3.095c4.255-.233 6.861-.82 6.995-.851.194-.045.344-.201.38-.397.021-.114.5-2.841-.363-6.836zm-13.647-7.057c-.333-.048-.839-.564-.84-1.292.001-.669.507-1.186.84-1.234.795-.115 2.173-.237 3.16-.237s2.364.122 3.159.237c.334.048.84.564.841 1.292 0 .669-.507 1.186-.841 1.234-.864.125-1.756.237-3.159.237s-2.295-.112-3.16-.237zm3.16 17.237c-1.706 0-2.373-.537-2.478-2.049.781.03 1.605.049 2.478.049s1.697-.019 2.478-.049c-.105 1.512-.773 2.049-2.478 2.049zm9.911-3.852c-1.091.215-4.762.852-9.911.852s-8.821-.637-9.911-.852c-.093-.818-.25-3.104.4-6.118.605-2.801 1.605-4.684 2.111-5.51 1.528-.246 3.999-.521 7.4-.521s5.872.275 7.399.521c.506.825 1.506 2.707 2.111 5.51.65 3.014.493 5.298.4 6.118z"/></svg>