<?xml version="1.0" encoding="UTF-8"?>
<svg xmlns="http://www.w3.org/2000/svg" id="Layer_1" data-name="Layer 1" viewBox="0 0 24 24">
  <path d="M22.164,5.459c-.248-.941-1.034-1.664-2.002-1.841-5.264-.966-11.061-.966-16.323,0-.968,.178-1.754,.9-2.002,1.841-1.112,4.218-1.112,8.864,0,13.082,.248,.941,1.034,1.664,2.002,1.841,2.632,.483,5.396,.725,8.162,.725s5.53-.242,8.162-.725c.968-.178,1.754-.9,2.002-1.841,1.112-4.218,1.112-8.864,0-13.082Zm-19.36,.255c.15-.568,.627-1.004,1.216-1.113,2.574-.472,5.277-.708,7.981-.708s5.408,.236,7.981,.708c.589,.108,1.066,.545,1.216,1.113,.164,.62,.302,1.25,.415,1.887H2.388c.113-.637,.252-1.266,.415-1.887Zm18.394,12.572c-.15,.568-.627,1.004-1.216,1.113-5.147,.944-10.816,.944-15.962,0-.589-.108-1.066-.545-1.216-1.113-.82-3.11-1.01-6.463-.572-9.686H21.769c.438,3.223,.248,6.575-.572,9.686Z"/>
  <path d="M7.412,12.351c-1.139,0-2.065,.929-2.065,2.07s.927,2.07,2.065,2.07,2.065-.929,2.065-2.07-.926-2.07-2.065-2.07Zm0,3.14c-.587,0-1.065-.48-1.065-1.07s.478-1.07,1.065-1.07,1.065,.48,1.065,1.07-.478,1.07-1.065,1.07Z"/>
  <path d="M18.154,13.99h-3.479c-.276,0-.5,.224-.5,.5s.224,.5,.5,.5h3.479c.276,0,.5-.224,.5-.5s-.224-.5-.5-.5Z"/>
</svg>
