<?xml version="1.0" encoding="UTF-8"?>
<svg xmlns="http://www.w3.org/2000/svg" id="Layer_1" data-name="Layer 1" viewBox="0 0 24 24">
  <path d="M18.64,15.815c-.845,0-1.503,.563-1.924,.987-1.297,1.303-1.302,2.564-.015,3.857,.65,.654,1.279,.972,1.922,.972,.845,0,1.503-.563,1.925-.986,1.297-1.302,1.302-2.564,.015-3.858-.65-.654-1.279-.972-1.923-.972Zm1.199,4.124c-.47,.472-.856,.692-1.216,.692-.363,0-.76-.222-1.213-.677-1.018-1.022-.78-1.649,.015-2.447,.47-.472,.855-.692,1.215-.692,.363,0,.761,.222,1.214,.677,1.018,1.023,.78,1.649-.015,2.447Z"/>
  <path d="M22.854,3.867l-2.7-2.693c-.195-.194-.513-.195-.708,0-.194,.195-.194,.512,0,.707l.995,.992-3.963,3.953-.554,.028c-.912,.048-1.77-.343-2.337-1.036-.173-.211-.484-.243-.698-.075l-.906,.72c-4.055,3.226-7.715,6.938-10.879,11.035-.079,.103-.116,.231-.102,.36,.29,2.671,2.445,4.821,5.124,5.11,.018,.002,.036,.003,.054,.003,.11,0,.217-.036,.305-.104,4.107-3.156,7.83-6.807,11.064-10.851l.722-.902c.171-.214,.138-.527-.075-.7-.694-.565-1.082-1.436-1.038-2.328l.027-.552,3.965-3.955,.997,.994c.098,.097,.226,.146,.354,.146s.257-.049,.354-.147c.194-.195,.194-.512,0-.707ZM6.039,21.95c-2.059-.31-3.705-1.951-4.016-4.003,2.494-3.207,5.298-6.173,8.361-8.847,.598,.62,.922,1.469,.879,2.337l-.041,.816c-.007,.141,.046,.279,.146,.378,.1,.1,.236,.158,.378,.146l.818-.041c.874-.04,1.722,.28,2.344,.875-2.68,3.054-5.654,5.85-8.87,8.338Zm11.162-11.097s-1.229,1.521-1.638,2.002c-.815-.763-1.917-1.178-3.047-1.117l-.267,.013,.013-.265c.056-1.125-.356-2.225-1.119-3.039,.482-.407,2.008-1.634,2.008-1.634,.754,.708,1.767,1.092,2.822,1.04l.195-.01-.009,.193c-.053,1.042,.331,2.063,1.041,2.815Z"/>
</svg>
