<svg id="Layer_1" viewBox="0 0 24 24" xmlns="http://www.w3.org/2000/svg" data-name="Layer 1"><path d="m12 23c-1.42 0-2.646-.519-2.697-.54-.169-.073-.285-.232-.301-.416-.004-.047-.406-4.608-.487-8.669-2.337-.147-4.64-.375-4.664-.378-.195-.019-.36-.15-.424-.335-.017-.051-.427-1.262-.427-2.662s.41-2.611.427-2.662c.063-.185.229-.315.423-.335.025-.003 2.422-.242 4.832-.39.144-2.427.319-4.652.319-4.652.015-.186.131-.348.302-.421.051-.021 1.277-.54 2.697-.54s2.646.519 2.697.54c.171.073.287.235.302.421 0 0 .176 2.226.319 4.652 2.41.147 4.807.387 4.832.39.194.02.36.15.423.335.017.051.427 1.262.427 2.662s-.41 2.611-.427 2.662c-.063.185-.229.316-.424.335-.024.003-2.328.23-4.664.378-.082 4.061-.483 8.622-.487 8.669-.016.184-.132.343-.301.416-.051.021-1.277.54-2.697.54zm-2.029-1.358c.399.136 1.184.358 2.029.358s1.629-.223 2.029-.358c.095-1.146.415-5.218.464-8.744.004-.263.209-.478.471-.492 1.944-.113 3.97-.297 4.752-.371.11-.411.284-1.192.284-2.034s-.173-1.623-.284-2.035c-.798-.075-2.896-.267-4.9-.379-.254-.014-.457-.217-.471-.471-.115-2.03-.262-4.007-.319-4.758-.4-.136-1.183-.357-2.026-.357s-1.626.222-2.026.357c-.057.751-.204 2.728-.319 4.758-.014.254-.217.457-.471.471-2.004.112-4.102.304-4.9.379-.11.412-.284 1.193-.284 2.035s.173 1.623.284 2.034c.782.074 2.808.258 4.752.371.262.015.467.229.471.492.049 3.526.369 7.599.464 8.744z"/></svg>