<?xml version="1.0" encoding="UTF-8"?>
<svg xmlns="http://www.w3.org/2000/svg" id="Layer_1" data-name="Layer 1" viewBox="0 0 24 24">
  <path d="M22.948,1.246c-.141-.238-.447-.316-.685-.177-.055,.033-5.225,3.105-10.263,8.077C6.962,4.174,1.792,1.102,1.737,1.069c-.239-.14-.545-.062-.685,.177-.14,.237-.061,.544,.177,.685,.055,.032,5.123,3.047,10.066,7.925-.14,.144-.28,.289-.419,.435C5.528,15.917,2.147,22.202,2.114,22.264c-.13,.243-.038,.547,.206,.677,.075,.04,.155,.059,.235,.059,.179,0,.352-.096,.441-.265,.033-.062,3.354-6.231,8.604-11.755,.133-.14,.266-.278,.399-.415,.133,.137,.267,.275,.399,.415,5.251,5.523,8.571,11.693,8.604,11.755,.09,.169,.263,.265,.441,.265,.08,0,.16-.019,.235-.059,.244-.13,.336-.434,.206-.677-.033-.062-3.414-6.348-8.762-11.974-.139-.147-.279-.292-.419-.435C17.648,4.977,22.716,1.962,22.771,1.93c.238-.141,.317-.447,.177-.685Z"/>
</svg>
