<svg id="Layer_1" viewBox="0 0 24 24" xmlns="http://www.w3.org/2000/svg" data-name="Layer 1"><path d="m22.975 6.342c-.369-1.108-1.028-1.86-2.015-2.299-.006-.003-.012-.002-.018-.004-.273-2.093-1.519-3.039-3.942-3.039-2.767 0-4 1.233-4 4v1.255c-1.244.987-3.988 3.267-6.277 5.921-2.986 3.462-5.567 8.881-5.675 9.11-.118.25-.012.547.238.666.244.117.547.015.666-.238.018-.04 1.391-2.916 3.245-5.776 2.911.282 5.166-.341 6.697-1.867 2.531-2.524 2.122-6.534 2.106-6.648v-2.422c0-2.215.785-3 3-3s3 .785 3 3c0 1.231-.265 2.011-.834 2.456-.113.088-.183.221-.191.364-.513 8.538-4.841 12.18-14.475 12.18-.276 0-.5.224-.5.5s.224.5.5.5c1.854 0 3.526-.137 5.029-.413.219.605.384 1.263.475 1.977.034.276.291.468.56.433.273-.035.468-.286.433-.56-.095-.74-.268-1.425-.489-2.067.929-.221 1.785-.504 2.57-.848.249.445.723 1.459.926 3.042.034.276.292.468.56.433.274-.035.468-.286.433-.56-.216-1.685-.711-2.793-1.017-3.35 3.695-1.99 5.611-5.576 5.979-10.994.315-.29.543-.659.713-1.093h1.828c.161 0 .312-.077.405-.208.095-.13.12-.298.069-.451zm-11.792 7.025c-1.217 1.211-3.019 1.748-5.35 1.619.527-.762 1.081-1.5 1.648-2.156 1.91-2.216 4.151-4.166 5.527-5.294.037.472.218 3.8-1.825 5.831z"/></svg>