<svg id="Layer_1" viewBox="0 0 24 24" xmlns="http://www.w3.org/2000/svg" data-name="Layer 1"><path d="m21.294 16.915c-1.229 3.517-4.102 5.085-9.312 5.085-7.103 0-10-2.897-10-10s2.897-10 10-10c5.21 0 8.083 1.568 9.312 5.085.091.261-.046.546-.307.637-.261.095-.545-.046-.637-.307-1.082-3.095-3.584-4.415-8.368-4.415-6.476 0-9 2.523-9 9 0 5.907 2.11 8.518 7.392 8.933-.151-.837-.374-2.41-.374-4.433 0-3.026.494-5.037.515-5.121.066-.269.335-.431.606-.364.268.067.431.339.364.606-.002.008-.084.356-.18.946 1.123-1.053 2.812-1.567 5.195-1.567.276 0 .5.224.5.5s-.224.5-.5.5c-3.01 0-4.686.818-5.432 2.645-.04.561-.068 1.18-.068 1.855 0 2.154.262 3.776.401 4.485.194.005.38.015.582.015 4.784 0 7.286-1.32 8.368-4.415.091-.261.376-.4.637-.307.261.091.398.376.307.637z"/></svg>