<svg id="Layer_1" viewBox="0 0 24 24" xmlns="http://www.w3.org/2000/svg" data-name="Layer 1"><path d="m12 1c-7.813 0-11 3.187-11 11s3.187 11 11 11 11-3.187 11-11-3.187-11-11-11zm0 21c-7.196 0-10-2.804-10-10s2.804-10 10-10 10 2.804 10 10-2.804 10-10 10zm-5-10c0 3.645 1.355 5 5 5 2.505 0 3.905-.661 4.54-2.144.11-.254.401-.373.657-.263.253.108.371.402.263.656-.755 1.764-2.348 2.632-4.96 2.731v1.52c0 .276-.224.5-.5.5s-.5-.224-.5-.5v-1.529c-3.831-.148-5.5-1.945-5.5-5.971s1.669-5.823 5.5-5.971v-1.529c0-.276.224-.5.5-.5s.5.224.5.5v1.52c2.64.1 4.24.987 4.984 2.789.105.255-.016.547-.271.653-.254.107-.548-.016-.653-.271-.627-1.515-2.033-2.191-4.561-2.191-3.645 0-5 1.355-5 5z"/></svg>