<svg id="Layer_1" viewBox="0 0 24 24" xmlns="http://www.w3.org/2000/svg" data-name="Layer 1"><path d="m23 10c0 4.57-1.037 7.421-1.081 7.54-.052.14-.164.249-.305.299-.131.046-3.211 1.098-9.115 1.156v3.005h4.001c.276 0 .5.224.5.5s-.224.5-.5.5h-9c-.276 0-.5-.224-.5-.5s.224-.5.5-.5h4v-3.005c-5.977-.058-8.992-1.112-9.12-1.158-.139-.05-.249-.159-.3-.297-.044-.119-1.081-2.97-1.081-7.54s1.037-7.421 1.081-7.54c.052-.14.164-.249.305-.299.135-.047 3.379-1.161 9.615-1.161 1.225 0 2.415.043 3.537.126.275.021.482.261.462.536-.021.275-.269.476-.536.462-1.098-.082-2.263-.124-3.463-.124-5.197 0-8.241.789-9.058 1.033-.234.737-.943 3.267-.943 6.967 0 3.668.708 6.22.943 6.967.818.245 3.861 1.033 9.057 1.033s8.241-.789 9.058-1.033c.234-.737.943-3.267.943-6.967 0-.514-.014-1.005-.038-1.474-.015-.275.196-.511.473-.525.272-.025.512.197.525.473.026.484.04.993.04 1.526zm-7.189-5.422c1.032-.957 2.095-1.882 3.248-2.829 1.029-.842 1.96-1.161 3.152.033 1.043 1.043 1.051 1.959.027 3.159-.606.738-1.592 1.902-2.807 3.218-.469.504-.994 1.054-1.54 1.605.065.246.099.492.099.739 0 .967-.49 1.908-1.543 2.96-1.289 1.29-3.694 1.53-5.305 1.53-.9 0-1.554-.075-1.625-.084-.229-.027-.409-.208-.437-.437-.024-.2-.564-4.92 1.446-6.93 1.332-1.333 2.506-1.816 3.721-1.463.539-.534 1.065-1.04 1.561-1.502zm1.181 5.925c0-.685-.397-1.4-1.25-2.253-1.522-1.523-2.728-1.825-4.506 0-1.369 1.368-1.276 4.573-1.196 5.702 1.13.08 4.334.173 5.702-1.196.853-.853 1.25-1.568 1.25-2.253zm-.5-5.191c-.409.381-.843.797-1.284 1.229.403.254.812.573 1.241 1.002.433.433.748.844.996 1.249.441-.452.869-.899 1.254-1.313 1.197-1.295 2.169-2.443 2.772-3.179.699-.819.704-1.14.033-1.811-.663-.662-.967-.655-1.812.033-1.137.934-2.185 1.846-3.201 2.789z"/></svg>