<?xml version="1.0" encoding="UTF-8"?>
<svg xmlns="http://www.w3.org/2000/svg" id="Layer_1" data-name="Layer 1" viewBox="0 0 24 24">
  <path d="M12,2.016C6.878,2.016,1,3.269,1,13.043c0,3.127,.559,5.5,1.71,7.255,.063,.097,.157,.168,.267,.203,3.115,.984,6.15,1.483,9.023,1.483,3.569,0,6.869-.805,9.009-1.481,.109-.034,.204-.105,.267-.201,1.16-1.758,1.724-4.133,1.724-7.259,0-7.73-3.29-11.028-11-11.028Zm8.536,17.588c-2.075,.642-5.188,1.38-8.536,1.38-2.678,0-5.63-.478-8.549-1.383-.976-1.574-1.451-3.722-1.451-6.558C2,5.921,4.897,3.016,12,3.016s10,2.905,10,10.028c0,2.834-.479,4.983-1.464,6.561Z"/>
  <path d="M17.371,8.439c-.183-.208-.499-.228-.706-.045l-3.353,2.95c-.364-.281-.819-.449-1.312-.449-1.188,0-2.153,.968-2.153,2.158s.966,2.158,2.153,2.158,2.153-.968,2.153-2.158c0-.333-.076-.649-.211-.932l3.384-2.977c.208-.183,.228-.499,.045-.706Zm-5.371,5.771c-.636,0-1.153-.52-1.153-1.158s.518-1.158,1.153-1.158,1.153,.52,1.153,1.158-.518,1.158-1.153,1.158Z"/>
  <path d="M12,7.227c.453,0,.875,.008,1.271,.029,.274,.011,.51-.198,.525-.474,.014-.276-.198-.511-.474-.525-.411-.021-.852-.03-1.323-.03-4.795,0-6.8,.947-6.8,6.816,0,1.428,.143,2.636,.423,3.591,.064,.218,.263,.359,.479,.359,.046,0,.094-.006,.141-.021,.265-.078,.417-.355,.338-.621-.253-.864-.382-1.977-.382-3.309,0-5.053,1.307-5.816,5.8-5.816Z"/>
  <path d="M18.302,12.644h-.002c-.275,0-.499,.222-.5,.498-.006,1.287-.137,2.367-.387,3.209-.079,.265,.073,.543,.337,.622,.047,.014,.095,.021,.142,.021,.216,0,.415-.141,.479-.358,.277-.933,.42-2.107,.428-3.489,.001-.276-.221-.501-.498-.502Z"/>
</svg>
