<svg id="Layer_1" viewBox="0 0 24 24" xmlns="http://www.w3.org/2000/svg" data-name="Layer 1"><path d="m22.944 7.771c-.061-.117-1.19-2.248-3.257-3.253.894-.532 1.312-1.516 1.312-3.018 0-.276-.224-.5-.5-.5s-.5.224-.5.5c0 1.869-.631 2.5-2.5 2.5h-2.127c-.362-1.281-.373-2.487-.373-2.5 0-.276-.224-.5-.5-.5-.276 0-.5.224-.5.5 0 .055.007 1.194.336 2.5h-.836c-1.869 0-2.5-.631-2.5-2.5 0-.276-.224-.5-.5-.5s-.5.224-.5.5c0 2.42 1.08 3.5 3.5 3.5h1.727c-.813.709-1.647 1.918-2.13 4-.269-.017-5.493.028-5.597 0-4.668 0-6.446 4.27-6.464 4.312-.103.256.021.547.276.65.249.103.546-.017.651-.274.033-.082.495-1.165 1.546-2.137-.321.697-.509 1.507-.509 2.448 0 1.196.146 2.284.432 3.234.196 3.176.557 4.843.573 4.912.014.062.039.121.075.174.052.077.552.75 1.946.679 1.377-.071 1.843-.776 1.891-.856.045-.074.07-.16.072-.247 0-.022.049-2.082.166-4.192.551.135 1.409.297 2.345.297s1.794-.162 2.345-.297c.117 2.109.166 4.17.166 4.192.002.087.027.173.072.247-.055.076.738.862 1.917.862 1.238 0 1.87-.611 1.92-.685.034-.05.059-.104.073-.163.022-.091.54-2.265.669-7.052.188-.484 1.076-2.857 1.295-5.004 1.354.234 2.333.122 3.348-.124.153-.037.279-.144.341-.288.011-.025.268-.631.352-1.649.007-.093-.011-.187-.054-.271zm-1.14 1.296c-.942.205-1.845.253-3.194-.054-.144-.033-.297 0-.415.091-.118.09-.19.228-.196.376-.116 2.493-1.323 5.253-1.336 5.513-.105 4.076-.504 6.263-.615 6.798-.114.085-.414.24-1.023.211-.599-.031-.899-.213-1.02-.312-.016-.619-.077-2.705-.199-4.667-.01-.155-.091-.297-.221-.384-.128-.086-.292-.108-.439-.059-.012.005-1.253.42-2.646.42s-2.634-.415-2.646-.42c-.149-.051-.311-.028-.439.059-.129.087-.211.229-.221.384-.122 1.959-.183 4.041-.199 4.664-.127.105-.427.283-1.02.314-.612.036-.913-.128-1.02-.204-.088-.457-.368-2.058-.528-4.683-.258-.933-.438-1.934-.427-3.114 0-1.494.52-4 4-4h5.5c.238 0 .443-.168.49-.402.895-4.474 3.388-4.595 3.514-4.598 2.522.002 4.14 2.52 4.484 3.108-.046.432-.125.758-.183.958z"/></svg>