<svg id="Layer_1" viewBox="0 0 24 24" xmlns="http://www.w3.org/2000/svg" data-name="Layer 1"><path d="m21.919 3.459c-.051-.138-.161-.247-.3-.297-.083-.03-2.093-.74-6.082-1.036-.273-.025-.516.186-.536.461-.021.275.187.515.462.536 3.1.23 4.977.724 5.594.909.235.747.943 3.3.943 6.968 0 1.557-.13 2.898-.295 4h-19.41c-.165-1.102-.295-2.443-.295-4 0-3.668.708-6.221.944-6.968.616-.185 2.494-.678 5.593-.909.275-.021.482-.26.461-.536-.021-.275-.258-.49-.536-.461-3.989.296-5.999 1.006-6.083 1.036-.139.05-.248.159-.299.297-.044.119-1.081 2.97-1.081 7.541s1.037 7.421 1.081 7.541c.051.138.161.247.299.297.129.046 3.144 1.1 9.12 1.157v2.005h-4c-.276 0-.5.224-.5.5s.224.5.5.5h9c.276 0 .5-.224.5-.5s-.224-.5-.5-.5h-4v-2.005c5.976-.058 8.991-1.111 9.119-1.157.139-.05.249-.159.3-.297.044-.119 1.081-2.97 1.081-7.541s-1.037-7.421-1.081-7.541zm-9.919 15.541c-5.195 0-8.238-.788-9.056-1.033-.103-.326-.295-1.012-.479-1.967h19.071c-.184.955-.376 1.641-.479 1.967-.819.245-3.862 1.033-9.057 1.033zm-.446-9.53-.054-7.966c-.002-.276.221-.501.497-.503h.003c.274 0 .498.222.5.497l.053 7.877c.937-.804 1.805-1.684 2.546-2.673.167-.222.481-.265.7-.1.221.166.266.479.101.7-1.023 1.364-2.234 2.576-3.6 3.6-.089.067-.195.1-.3.1s-.211-.033-.3-.1c-1.365-1.024-2.576-2.235-3.6-3.6-.166-.221-.121-.534.1-.7.221-.167.534-.122.7.1.771 1.028 1.674 1.942 2.654 2.769z"/></svg>