<svg id="Layer_1" viewBox="0 0 24 24" xmlns="http://www.w3.org/2000/svg" data-name="Layer 1"><path d="m23 13.492c-.004-.273-.227-.492-.5-.492h-12c-.276 0-.5.224-.5.5 0 1.232.074 2.418.18 3.5h-1.18c-2.071 0-3.209-.196-3.675-.303-.108-.554-.325-1.888-.325-3.697v-2h17.477c.274.006.513-.24.5-.514-.147-5.308-1.015-7.982-1.052-8.094-.05-.149-.167-.268-.316-.317-.132-.044-3.3-1.075-9.608-1.075s-9.478 1.031-9.609 1.075c-.149.05-.267.168-.316.317-.037.111-.905 2.786-1.052 8.094-.013.273.227.519.5.514h2.477v2c0 2.532.398 4.153.415 4.221.04.161.158.292.314.349.048.018 1.218.431 4.271.431h1.291c.291 2.358.698 4.015.725 4.121.04.161.158.292.314.349.06.021 1.501.53 5.17.53s5.111-.509 5.171-.53c.153-.056.27-.183.312-.341.044-.166 1.087-4.119 1.017-8.637zm-20.047-10.54c.848-.232 3.888-.952 9.047-.952s8.199.72 9.047.952c.201.734.764 3.103.914 7.048h-19.921c.15-3.945.713-6.313.914-7.048zm18.131 18.646c-.53.131-1.949.402-4.584.402s-4.048-.271-4.58-.4c-.21-.934-.858-4.081-.916-7.6h10.999c-.01 3.519-.697 6.673-.918 7.598z"/></svg>