<svg id="Layer_1" viewBox="0 0 24 24" xmlns="http://www.w3.org/2000/svg" data-name="Layer 1"><path d="m1.522 11h3.978c.276 0 .5-.224.5-.5s-.224-.5-.5-.5h-1.062l7.993-7.993c1.287.01 2.433.064 3.442.143l-2.861 2.861c-.195.195-.195.512 0 .707s.512.195.707 0l3.447-3.447c1.38.154 2.408.34 3.094.492l-4.249 4.249c-.195.195-.195.512 0 .707s.512.195.707 0l4.418-4.418c.144.586.358 1.599.537 3.049l-3.797 3.797c-.143.143-.186.358-.108.545s.26.309.462.309h4.247c.274.006.513-.24.5-.514-.148-5.308-1.016-7.982-1.053-8.094-.05-.149-.167-.268-.316-.317-.132-.044-3.3-1.075-9.608-1.075s-9.477 1.03-9.608 1.074c-.149.05-.267.168-.316.317-.037.111-.904 2.786-1.053 8.094-.013.273.226.519.5.514zm20.288-3.373c.064.715.117 1.506.15 2.373h-2.523zm-19.771 2.373c.04-1.045.109-1.971.193-2.793l4.976-4.977c1.071-.108 2.35-.186 3.799-.213 0 0-7.928 7.947-7.949 7.983zm3.555-7.57-3.163 3.163c.198-1.348.413-2.243.522-2.641.397-.109 1.293-.324 2.641-.522zm16.884 10.57h-9.978v-4.418c.77.67 1.487 1.4 2.1 2.218.167.222.481.265.7.101.221-.166.266-.479.101-.7-.882-1.176-1.925-2.219-3.101-3.101-.178-.133-.422-.133-.6 0-1.176.882-2.219 1.925-3.101 3.101-.165.221-.12.534.101.7s.534.121.7-.101c.613-.818 1.33-1.547 2.1-2.218v4.418h-9.978c-.274-.006-.513.24-.5.514.148 5.308 1.016 7.982 1.053 8.094.05.149.167.268.316.317.132.044 3.3 1.075 9.608 1.075s9.477-1.031 9.608-1.075c.149-.05.267-.168.316-.317.037-.111.904-2.786 1.053-8.094.013-.273-.226-.519-.5-.514zm-1.431 8.048c-.849.232-3.888.952-9.047.952s-8.198-.72-9.047-.952c-.201-.734-.764-3.103-.914-7.048h19.922c-.15 3.945-.713 6.313-.914 7.048z"/></svg>