<svg id="Layer_1" viewBox="0 0 24 24" xmlns="http://www.w3.org/2000/svg" data-name="Layer 1"><path d="m15.5 4.5c-1.368 0-2.527.156-3.5.473-.973-.317-2.132-.473-3.5-.473-5.257 0-7.5 2.243-7.5 7.5s2.243 7.5 7.5 7.5c1.368 0 2.527-.156 3.5-.473.973.317 2.132.473 3.5.473 5.257 0 7.5-2.243 7.5-7.5s-2.243-7.5-7.5-7.5zm-6.5 7.5c0-.741.049-1.4.139-2h5.721c.091.6.139 1.259.139 2s-.049 1.4-.139 2h-5.721c-.091-.6-.139-1.259-.139-2zm5.654-3h-5.308c.428-1.501 1.279-2.456 2.654-2.984 1.376.527 2.226 1.483 2.654 2.984zm0 6c-.428 1.501-1.279 2.456-2.654 2.984-1.376-.527-2.226-1.483-2.654-2.984zm-6.154 3.5c-4.738 0-6.5-1.762-6.5-6.5s1.762-6.5 6.5-6.5c.77 0 1.453.052 2.071.15-1.764 1.154-2.571 3.211-2.571 6.35s.807 5.196 2.571 6.35c-.618.098-1.301.15-2.071.15z"/></svg>