<svg id="Layer_1" viewBox="0 0 24 24" xmlns="http://www.w3.org/2000/svg" data-name="Layer 1"><path d="m22.538 13.843c-.042-.19-.19-.339-.381-.381-.086-.019-2.126-.462-4.157-.462s-4.071.443-4.157.462c-.19.042-.339.19-.381.381-.019.086-.462 2.126-.462 4.157h-1.5c-2.771 0-4.435-.279-5.069-.412-.13-.734-.431-2.697-.431-5.088v-1.5c2.031 0 4.071-.443 4.157-.462.19-.042.339-.19.381-.381.019-.086.462-2.126.462-4.157s-.443-4.071-.462-4.157c-.042-.19-.19-.339-.381-.381-.086-.019-2.126-.462-4.157-.462s-4.071.443-4.157.462c-.19.042-.339.19-.381.381-.019.086-.462 2.126-.462 4.157s.443 4.071.462 4.157c.042.19.19.339.381.381.072.016 1.506.323 3.157.426v1.536c0 3.141.49 5.504.511 5.603.038.182.174.327.352.378.074.021 1.861.52 5.637.52h1.536c.103 1.651.41 3.086.426 3.157.042.19.19.339.381.381.086.019 2.126.462 4.157.462s4.071-.443 4.157-.462c.19-.042.339-.19.381-.381.019-.086.462-2.126.462-4.157s-.443-4.071-.462-4.157zm-20.538-7.843c0-1.467.253-2.982.375-3.625.642-.121 2.158-.375 3.625-.375s2.983.254 3.625.375c.122.643.375 2.158.375 3.625s-.253 2.982-.375 3.625c-.642.121-2.158.375-3.625.375s-2.983-.254-3.625-.375c-.122-.643-.375-2.158-.375-3.625zm19.625 15.625c-.642.121-2.158.375-3.625.375s-2.983-.254-3.625-.375c-.122-.643-.375-2.158-.375-3.625s.253-2.982.375-3.625c.642-.121 2.158-.375 3.625-.375s2.983.254 3.625.375c.122.643.375 2.158.375 3.625s-.253 2.982-.375 3.625z"/></svg>