<?xml version="1.0" encoding="UTF-8"?>
<svg xmlns="http://www.w3.org/2000/svg" id="Layer_1" data-name="Layer 1" viewBox="0 0 24 24">
  <path d="M22.586,2.244c-.05-.163-.179-.289-.343-.335-.06-.017-1.478-.409-3.152-.409s-3.092,.393-3.151,.409c-.165,.046-.294,.173-.344,.336-.015,.049-.33,1.104-.4,2.576-.591-.136-1.826-.373-3.217-.373-1.357,0-2.568,.227-3.175,.364-.071-1.478-.385-2.52-.4-2.568-.05-.163-.179-.289-.343-.334-.06-.017-1.478-.409-3.152-.409s-3.092,.393-3.151,.409c-.165,.046-.294,.173-.344,.336-.017,.056-.414,1.384-.414,3.149,0,1.781,.397,3.096,.414,3.151,.05,.163,.179,.289,.343,.335,.06,.017,1.478,.409,3.152,.409,1.133,0,2.152-.181,2.708-.302,.265,.656,.85,1.997,1.749,3.469,.986,1.613,1.98,2.813,2.382,3.276-.119,.484-.34,1.557-.34,2.874,0,1.781,.397,3.096,.414,3.15,.05,.163,.179,.289,.343,.335,.06,.017,1.478,.409,3.152,.409s3.092-.393,3.151-.409c.165-.046,.294-.173,.344-.336,.017-.056,.414-1.384,.414-3.149,0-1.781-.397-3.096-.414-3.151-.05-.163-.179-.289-.343-.335-.06-.017-1.478-.409-3.152-.409-1.232,0-2.327,.213-2.842,.332-.396-.46-1.338-1.608-2.255-3.108-.987-1.617-1.592-3.102-1.769-3.56,.097-.372,.314-1.322,.359-2.536,.426-.104,1.725-.39,3.17-.39,1.5,0,2.838,.307,3.212,.401,.058,1.546,.39,2.647,.406,2.697,.05,.163,.179,.289,.343,.334,.06,.017,1.478,.409,3.152,.409s3.092-.393,3.151-.409c.165-.046,.294-.173,.344-.336,.017-.056,.414-1.384,.414-3.149,0-1.781-.397-3.096-.414-3.15Zm-4.661,13.771c.107,.448,.3,1.414,.3,2.59,0,1.167-.193,2.139-.301,2.59-.47,.107-1.489,.305-2.608,.305s-2.139-.198-2.609-.305c-.107-.448-.3-1.414-.3-2.59,0-1.167,.193-2.14,.301-2.59,.47-.107,1.489-.305,2.608-.305s2.139,.198,2.609,.305ZM2.3,7.985c-.107-.448-.3-1.414-.3-2.59,0-1.167,.193-2.139,.301-2.59,.47-.107,1.489-.305,2.608-.305s2.14,.198,2.609,.305c.107,.447,.3,1.413,.3,2.589,0,1.167-.193,2.14-.301,2.59-.471,.107-1.489,.305-2.608,.305s-2.139-.198-2.609-.305Zm19.399,0c-.47,.107-1.489,.305-2.608,.305s-2.14-.198-2.609-.305c-.107-.447-.3-1.414-.3-2.59,0-1.167,.193-2.139,.301-2.589,.471-.107,1.489-.305,2.608-.305s2.139,.198,2.609,.305c.107,.448,.3,1.414,.3,2.59,0,1.167-.193,2.14-.301,2.59Z"/>
</svg>
