<?xml version="1.0" encoding="UTF-8"?>
<svg xmlns="http://www.w3.org/2000/svg" id="Layer_1" data-name="Layer 1" viewBox="0 0 24 24">
  <path d="M22.576,8.057l-.33-.515h0c-1.195-1.857-2.603-3.575-4.184-5.107l-.322-.313c-.442-.428-1.017-.692-1.617-.743-1.361-.117-2.748-.179-4.125-.185-1.373,.006-2.76,.068-4.12,.185-.602,.051-1.176,.315-1.618,.744l-.322,.312c-1.581,1.532-2.988,3.25-4.184,5.107l-.33,.514c-.576,.896-.565,2.047,.029,2.931l.383,.571c2.433,3.625,5.173,7.08,8.143,10.269l.159,.172c.479,.513,1.153,.808,1.873,.808,.698,0,1.373-.294,1.852-.808l.159-.171c2.97-3.189,5.71-6.645,8.143-10.27l.383-.57c.595-.884,.605-2.035,.029-2.931Zm-5.531-5.216l.322,.312c1.525,1.479,2.884,3.137,4.037,4.929l.33,.515c.111,.172,.187,.359,.228,.551h-4.981c-.009-.432-.062-.859-.161-1.239l-.141-.543c-.473-1.823-1.028-3.525-1.651-5.067,.337,.022,.674,.047,1.009,.076,.372,.032,.729,.197,1.007,.465Zm-3.122-.601l.057,.137c.657,1.579,1.24,3.342,1.733,5.241l.141,.543c.077,.299,.12,.641,.129,.987h-7.965c.008-.347,.051-.689,.128-.987l.143-.544c.492-1.899,1.075-3.662,1.732-5.24l.057-.137c.641-.027,1.283-.043,1.92-.046,.64,.003,1.283,.018,1.924,.046ZM2.596,8.083c1.153-1.792,2.512-3.451,4.037-4.93l.322-.312c.277-.269,.635-.434,1.008-.466,.335-.029,.671-.054,1.008-.076-.623,1.541-1.178,3.244-1.651,5.067l-.143,.544c-.098,.379-.151,.807-.16,1.238H2.037c.042-.193,.117-.38,.228-.552l.33-.514Zm.07,2.918l-.383-.571c-.06-.09-.111-.184-.152-.281H7.08c.028,.186,.064,.367,.11,.537l.164,.604c.894,3.294,1.883,6.452,2.947,9.411-2.776-3.026-5.344-6.286-7.634-9.699Zm9.091,10.766c-1.253-3.33-2.409-6.944-3.439-10.739l-.164-.604c-.024-.088-.044-.18-.062-.275h7.815c-.018,.095-.038,.187-.062,.275l-.164,.604c-1.029,3.795-2.186,7.408-3.438,10.738-.161,.024-.325,.024-.486,.001Zm9.577-10.766c-2.291,3.413-4.858,6.673-7.634,9.7,1.064-2.959,2.053-6.117,2.947-9.412l.164-.604c.046-.17,.082-.35,.11-.536h4.948c-.041,.097-.092,.192-.152,.282l-.383,.57Z"/>
</svg>
