<svg id="Layer_1" viewBox="0 0 24 24" xmlns="http://www.w3.org/2000/svg" data-name="Layer 1"><path d="m20.159 2.464c-.034-.192-.176-.346-.364-.397-.163-.043-4.036-1.067-7.795-1.067-2.057 0-4.09.306-5.12.488-1.817.322-3.191 1.771-3.418 3.605-.214 1.735-.469 4.343-.469 6.915s.255 5.181.469 6.915c.2 1.619 1.331 2.983 2.883 3.473.265.082.545-.063.628-.325.084-.264-.063-.545-.326-.628-.569-.18-1.061-.517-1.438-.954.586-2.422 2.938-2.475 3.038-2.476h.763l-.006 2.325c0 1.085.121 2.54 1.162 2.656.51.06.999-.334 1.339-.709.341.372.821.765 1.337.709 1.164-.126 1.164-1.964 1.164-2.656l-.006-2.325h5.633c-.159 1.419-.327 2.53-.41 3.047-.491.12-1.524.356-2.802.562-.273.043-.458.3-.414.573.043.274.307.46.574.414 1.844-.296 3.157-.645 3.212-.66.188-.051.33-.205.364-.397.008-.049.848-4.885.848-9.544s-.839-9.495-.848-9.544zm-15.586 16.869c-.053-.173-.096-.35-.118-.533-.21-1.706-.461-4.271-.461-6.792s.251-5.086.461-6.792c.17-1.375 1.189-2.462 2.541-2.728v14.751c-.885.292-1.851.92-2.423 2.094zm8.435 1.005c0 1.445-.27 1.657-.263 1.661-.155-.017-.561-.413-.821-.803-.186-.28-.648-.28-.834 0-.259.39-.666.788-.797.808-.003-.002-.287-.228-.287-1.666l.006-2.325h2.991l.006 2.325zm-4.761-3.326c-.075 0-.166.012-.25.019v-14.71c1.065-.156 2.529-.32 4.003-.32 3.029 0 6.233.715 7.226.956.183 1.141.78 5.162.78 9.052 0 1.731-.118 3.486-.266 5.004h-11.493z"/></svg>