<svg id="Layer_1" viewBox="0 0 24 24" xmlns="http://www.w3.org/2000/svg" data-name="Layer 1"><path d="m22.112 12.604c.596-.393.888-1.081.888-2.104 0-1.108-.342-1.825-1.044-2.196.362-.411.544-1.003.544-1.804 0-1.706-.794-2.5-2.5-2.5h-.614c-.13-.936-.231-1.52-.234-1.537-.033-.192-.175-.346-.363-.396-.163-.043-4.033-1.067-7.789-1.067-2.061 0-4.09.305-5.115.487-1.817.322-3.189 1.77-3.416 3.603-.214 1.734-.469 4.34-.469 6.91s.255 5.177.469 6.91c.227 1.833 1.599 3.281 3.416 3.603 1.028.182 3.06.487 5.115.487 3.756 0 7.626-1.023 7.789-1.066.188-.051.33-.205.363-.396.006-.031.339-1.955.586-4.537h.492c1.706 0 2.5-.794 2.5-2.5 0-.858-.202-1.484-.619-1.896zm-1.612-.604h-.5c0-1.009-.041-2.025-.103-3h.603c1.149 0 1.5.351 1.5 1.5s-.351 1.5-1.5 1.5zm-.5-7c1.149 0 1.5.351 1.5 1.5s-.351 1.5-1.5 1.5h-.174c-.089-1.112-.201-2.139-.308-3zm-1.779-2.045c.183 1.141.779 5.159.779 9.045 0 1.73-.118 3.484-.266 5h-11.484c-.075 0-.166.012-.25.019v-14.699c1.062-.156 2.524-.32 4-.32 3.027 0 6.229.714 7.221.955zm-14.76 2.257c.169-1.374 1.187-2.46 2.539-2.725v14.74c-.885.292-1.852.921-2.424 2.097-.052-.173-.092-.352-.115-.537-.21-1.705-.461-4.268-.461-6.787s.251-5.081.461-6.788zm7.539 16.788c-1.979 0-3.945-.296-4.941-.472-.742-.132-1.38-.515-1.844-1.053.586-2.421 2.936-2.474 3.036-2.475h11.38c-.159 1.418-.326 2.528-.409 3.045-.991.241-4.19.955-7.221.955zm9.23-6h-.405c.077-.957.136-1.973.161-3h.244c1.149 0 1.5.351 1.5 1.5s-.351 1.5-1.5 1.5z"/></svg>