<?xml version="1.0" encoding="UTF-8"?>
<svg xmlns="http://www.w3.org/2000/svg" id="Layer_1" data-name="Layer 1" viewBox="0 0 24 24">
  <circle cx="7.25" cy="7.232" r=".75"/>
  <circle cx="16.771" cy="16.753" r=".75"/>
  <path d="M12,23c-5.003,0-9.228-1.177-9.405-1.227-.164-.047-.293-.173-.343-.336-.05-.164-1.226-4.085-1.226-9.438C1.026,6.693,2.202,2.73,2.252,2.564c.049-.164,.179-.291,.343-.337,.178-.05,4.413-1.227,9.405-1.227s9.228,1.177,9.405,1.227c.164,.046,.293,.172,.343,.335,.05,.165,1.226,4.085,1.226,9.438,0,5.308-1.176,9.271-1.226,9.437-.049,.163-.179,.29-.343,.337-.178,.05-4.413,1.227-9.405,1.227Zm-8.865-2.118c1.006,.256,4.706,1.118,8.865,1.118s7.856-.862,8.864-1.118c.259-.972,1.109-4.492,1.109-8.882,0-4.431-.849-7.918-1.108-8.881-1.006-.256-4.706-1.119-8.865-1.119s-7.856,.862-8.864,1.119c-.259,.971-1.109,4.493-1.109,8.881,0,4.424,.849,7.918,1.108,8.882Z"/>
</svg>
