<?xml version="1.0" encoding="UTF-8"?>
<svg xmlns="http://www.w3.org/2000/svg" id="Layer_1" data-name="Layer 1" viewBox="0 0 24 24">
  <path d="M21.938,6.651c-.022-.112-.083-.213-.171-.286l-.321-.268c-2.665-2.22-5.689-3.894-8.985-4.972l-.295-.1c-.102-.034-.212-.035-.315-.001l-.305,.1c-3.301,1.08-6.326,2.753-8.99,4.973l-.322,.268c-.088,.073-.148,.174-.17,.286-.713,3.549-.713,7.148,0,10.697,.022,.112,.083,.212,.17,.286l.322,.268c2.665,2.22,5.689,3.894,8.99,4.973l.305,.1c.05,.017,.103,.025,.155,.025,.054,0,.108-.009,.16-.026l.29-.098c3.301-1.08,6.325-2.753,8.989-4.973l.322-.268c.088-.073,.148-.174,.171-.286,.713-3.549,.713-7.148,0-10.697ZM2.891,7.672l2.447,2.059c-1.072,1.817-1.952,3.697-2.6,5.562-.324-2.536-.273-5.089,.153-7.621ZM11.067,15.859c-1.689-1.726-3.082-3.692-4.145-5.849l1.093-.192c2.628-.463,5.293-.463,7.918,0l1.096,.192c-1.059,2.165-2.447,4.136-4.135,5.869l-.901,.925-.926-.946Zm5.041-7.026c-2.742-.481-5.522-.481-8.265,0l-.866,.152c.681-1.047,1.427-2.065,2.229-3.04l2.787-3.516,2.746,3.488c.705,.861,1.487,1.896,2.262,3.072l-.893-.157Zm-10.059,1.664c1.108,2.236,2.554,4.273,4.304,6.061l.829,.847c-1.326-.024-2.651-.111-3.969-.261l-3.887-.415c.616-2.074,1.544-4.19,2.723-6.232Zm7.563,6.08c1.757-1.805,3.205-3.859,4.309-6.112,1.085,1.845,2.089,3.96,2.766,6.263l-3.992,.417c-1.29,.146-2.588,.232-3.887,.259l.805-.827Zm1.906-11.286l-2.208-2.805c2.666,1.011,5.13,2.438,7.34,4.252l-2.555,2.101c-.88-1.374-1.777-2.57-2.577-3.547Zm-7.089,.025c-.932,1.132-1.791,2.324-2.564,3.55l-2.523-2.122c2.206-1.811,4.663-3.237,7.322-4.249l-2.235,2.821Zm-1.327,12.821c1.458,.166,2.926,.256,4.393,.272v3.394c-2.697-.925-5.197-2.265-7.452-3.993l3.059,.327Zm5.393,.271c1.44-.018,2.879-.108,4.307-.27l3.158-.33c-2.256,1.73-4.761,3.072-7.465,3.999v-3.398Zm6.131-8.713l2.48-2.039c.427,2.527,.48,5.075,.159,7.607-.71-2.04-1.648-3.916-2.639-5.568Z"/>
</svg>
