<?xml version="1.0" encoding="UTF-8"?>
<svg xmlns="http://www.w3.org/2000/svg" id="Layer_1" data-name="Layer 1" viewBox="0 0 24 24">
  <path d="M22.035,7.255c-.013-.141-.084-.272-.2-.358-3.526-2.614-5.7-3.925-9.69-5.848-.131-.062-.284-.065-.419-.007C7.518,2.899,5.284,4.152,2.169,6.407c-.125,.091-.201,.233-.207,.388,0,.003,0,10.438,0,10.438,0,.115,.04,.226,.112,.315,2.215,2.725,9.451,5.315,9.759,5.424,.054,.02,.11,.029,.167,.029,.056,0,.112-.01,.166-.029,0,0,0,0,.001,0,.308-.109,7.544-2.699,9.759-5.424,.072-.089,.112-.201,.112-.315,0,0-.001-9.967-.003-9.977ZM11.92,2.051c3.589,1.737,5.682,2.985,8.781,5.252-2.502,1.854-4.598,2.962-8.697,4.629-3.928-1.671-6.013-2.88-8.723-5.092,2.761-1.959,4.83-3.102,8.639-4.79ZM2.962,17.048V7.869c2.618,2.1,4.732,3.31,8.538,4.935v8.976c-1.805-.692-6.761-2.719-8.538-4.731Zm9.538,4.731V12.81c3.973-1.621,6.097-2.733,8.538-4.513v8.752c-1.776,2.011-6.733,4.039-8.538,4.731Z"/>
</svg>
