<?xml version="1.0" encoding="UTF-8"?>
<svg xmlns="http://www.w3.org/2000/svg" id="Layer_1" data-name="Layer 1" viewBox="0 0 24 24">
  <path d="M22.163,15.078c-2.074-4.764-5.09-9.324-8.961-13.552-.611-.668-1.793-.668-2.404,0C6.927,5.754,3.911,10.314,1.837,15.078c-.075,.171-.048,.37,.069,.515l.123,.151c2.476,3.06,5.856,5.555,9.775,7.216,.062,.026,.129,.04,.195,.04s.133-.013,.195-.04c3.919-1.662,7.3-4.157,9.775-7.216l.123-.152c.117-.145,.145-.344,.069-.515Zm-19.287,.122C4.895,10.653,7.796,6.294,11.5,2.24V21.732c-3.399-1.562-6.437-3.86-8.624-6.532Zm9.624,6.532V2.24c3.704,4.054,6.605,8.412,8.624,12.959-2.187,2.673-5.225,4.97-8.624,6.532Z"/>
</svg>
