<?xml version="1.0" encoding="UTF-8"?>
<svg xmlns="http://www.w3.org/2000/svg" id="Layer_1" data-name="Layer 1" viewBox="0 0 24 24">
  <path d="M22.995,8.954c.004-.085-.014-.169-.051-.246,0,0-1.887-3.831-2.464-4.971-.048-.095-.125-.172-.22-.221-1.133-.573-4.969-2.465-4.969-2.465-.076-.038-.162-.056-.246-.051-2.021,.098-4.068,.098-6.089,0-.084-.005-.169,.013-.246,.051,0,0-3.836,1.892-4.969,2.465-.095,.048-.172,.125-.22,.221-.577,1.141-2.464,4.971-2.464,4.971-.038,.076-.055,.161-.051,.246,.098,2.021,.098,4.071,0,6.092-.004,.085,.014,.169,.051,.246,0,0,1.887,3.831,2.464,4.971,.048,.095,.125,.172,.22,.221,1.133,.573,2.288,1.143,3.478,1.729l1.491,.736c.076,.038,.162,.058,.246,.051,2.021-.098,4.068-.098,6.089,0,.008,0,.016,0,.024,0,.077,0,.153-.018,.222-.052,0,0,3.836-1.892,4.969-2.465,.095-.048,.172-.125,.22-.221,.577-1.141,2.464-4.971,2.464-4.971,.038-.076,.055-.161,.051-.246-.098-2.021-.098-4.071,0-6.092Zm-1.082-.075l-.236,.447c-.935,1.773-2.317,3.271-4.005,4.346l-5.172-2.071V6.874c2.05-1.283,4.399-2.064,6.811-2.264l.469-.039c.51,1.015,2.133,4.307,2.133,4.307ZM9.037,2.005c1.967,.091,3.959,.091,5.926,0,0,0,2.761,1.362,3.438,1.699-2.266,.307-4.459,1.094-6.401,2.304-1.943-1.209-4.135-1.997-6.401-2.304,.677-.337,3.438-1.699,3.438-1.699Zm-4.817,2.566l.469,.039c2.412,.199,4.761,.981,6.811,2.264v4.726l-5.172,2.072c-1.688-1.075-3.07-2.573-4.005-4.346l-.236-.447s1.622-3.293,2.133-4.307Zm.119,15.094c-.55-1.09-2.329-4.701-2.329-4.701,.063-1.363,.082-2.739,.058-4.11,.968,1.465,2.236,2.714,3.723,3.661,.126,2.392,.787,4.728,1.928,6.829l-.058-.029c-1.135-.56-2.239-1.104-3.322-1.65Zm4.925,2.32l-.182-.29c-1.349-2.146-2.136-4.605-2.286-7.132l5.204-2.084,5.204,2.084c-.15,2.528-.937,4.986-2.286,7.132l-.182,.29c-.909-.039-1.822-.059-2.736-.059s-1.827,.02-2.736,.059Zm10.397-2.32c-1.083,.547-2.187,1.091-3.322,1.65l-.058,.029c1.141-2.1,1.802-4.437,1.928-6.829,1.487-.947,2.755-2.196,3.723-3.661-.024,1.371-.005,2.746,.058,4.11,0,0-1.779,3.61-2.329,4.701Z"/>
</svg>
