<svg id="Layer_1" viewBox="0 0 24 24" xmlns="http://www.w3.org/2000/svg" data-name="Layer 1"><path d="m10.5 7c.276 0 .5.224.5.5v4.5c0 .133-.053.26-.146.354l-2.5 2.5c-.195.195-.512.195-.707 0s-.195-.512 0-.707l2.354-2.354v-4.293c0-.276.224-.5.5-.5zm8.5 4.971v10.529c0 .276-.224.5-.5.5s-.5-.224-.5-.5v-10.529c-2.782-.146-4-1.496-4-4.471 0-3.235 1.392-6.5 4.5-6.5s4.5 3.265 4.5 6.5c0 2.975-1.218 4.325-4 4.471zm3-4.471c0-2.043-.737-5.5-3.5-5.5s-3.5 3.457-3.5 5.5c0 2.584.916 3.5 3.5 3.5s3.5-.916 3.5-3.5zm-6.697 12.221c-1.221.524-2.792.779-4.803.779-6.117 0-8.5-2.383-8.5-8.5s2.383-8.5 8.5-8.5c.697 0 1.353.032 1.948.094.279.026.521-.171.549-.445.029-.275-.17-.521-.445-.549-.63-.066-1.32-.1-2.052-.1-6.748 0-9.5 2.752-9.5 9.5s2.752 9.5 9.5 9.5c2.15 0 3.85-.281 5.197-.86.254-.109.371-.403.262-.657-.108-.254-.403-.37-.656-.262z"/></svg>