<?xml version="1.0" encoding="UTF-8"?>
<svg xmlns="http://www.w3.org/2000/svg" id="Layer_1" data-name="Layer 1" viewBox="0 0 24 24">
  <path d="M7.053,8.142H15.559c.276,0,.5-.224,.5-.5s-.224-.5-.5-.5H7.053c-.276,0-.5,.224-.5,.5s.224,.5,.5,.5Z"/>
  <path d="M16.059,10.781c0-.276-.224-.5-.5-.5H7.053c-.276,0-.5,.224-.5,.5s.224,.5,.5,.5H15.559c.276,0,.5-.224,.5-.5Z"/>
  <path d="M7.053,13.419c-.276,0-.5,.224-.5,.5s.224,.5,.5,.5h4.387c.276,0,.5-.224,.5-.5s-.224-.5-.5-.5H7.053Z"/>
  <path d="M20.203,12.813c.035-.628,.059-1.362,.059-2.032,0-.717-.022-1.407-.061-2.062-.214-3.668-.909-6.181-.938-6.287-.046-.164-.172-.293-.335-.343-.145-.044-3.596-1.09-7.684-1.09S3.705,2.045,3.56,2.089c-.163,.05-.29,.18-.335,.344-.041,.147-.998,3.653-.998,8.347,0,4.734,.957,8.204,.998,8.349,.046,.164,.172,.293,.335,.343,.145,.044,3.597,1.089,7.685,1.089,.354,0,1.836-.052,1.836-.052,.276-.009,.492-.24,.483-.516-.009-.276-.24-.492-.516-.483,0,0-1.58,.051-1.803,.051-3.301,0-6.246-.729-7.125-.97-.221-.895-.893-3.947-.893-7.812,0-3.828,.674-6.909,.893-7.811,.882-.241,3.826-.97,7.125-.97s6.245,.73,7.125,.97c.181,.734,.666,2.917,.834,5.807,.036,.636,.059,1.306,.059,2.004,0,.586-.019,1.222-.048,1.789-.24-.027-.477-.036-.702-.036-1.4,0-3.262,.338-3.262,3.259,0,.867,.164,1.507,.432,1.978v4.006c0,.52,.316,.971,.806,1.148,.488,.18,1.023,.034,1.355-.366l.498-.598c.115-.138,.225-.141,.343,0l.498,.598c.547,.614,1.217,.417,1.355,.366,.489-.177,.806-.628,.806-1.148v-4.008c.267-.47,.431-1.11,.431-1.976,0-1.796-.703-2.615-1.571-2.98Zm.14,8.964c0,.135-.092,.188-.146,.208-.055,.02-.158,.039-.247-.067l-.498-.598c-.466-.559-1.414-.558-1.878,0l-.498,.598c-.089,.106-.193,.086-.247,.067-.055-.02-.146-.073-.146-.208v-3.067c.577,.283,1.244,.342,1.83,.342s1.254-.059,1.831-.343v3.068Zm-1.831-3.725c-1.433,0-2.262-.37-2.262-2.259s.829-2.259,2.262-2.259,2.262,.37,2.262,2.259-.829,2.259-2.262,2.259Z"/>
</svg>
