<svg id="Layer_1" viewBox="0 0 24 24" xmlns="http://www.w3.org/2000/svg" data-name="Layer 1"><path d="m22.921 11.23c-1.048-1.639-2.444-3.035-4.148-4.149-.229-.15-.541-.085-.692.145-.151.231-.086.541.145.692 1.306.855 2.404 1.895 3.298 3.082h-3.524c-2.718 0-4.499.698-5.5 2.223v-10.747c1.187.894 2.227 1.991 3.082 3.298.096.147.256.227.419.227.094 0 .189-.026.273-.082.231-.151.296-.461.145-.692-1.114-1.704-2.51-3.1-4.149-4.148-.164-.104-.375-.104-.539 0-1.639 1.048-3.035 2.444-4.149 4.148-.151.231-.086.541.145.692.231.152.542.087.692-.145.855-1.306 1.895-2.404 3.082-3.298v15.748c-1.001-1.525-2.782-2.223-5.5-2.223h-3.525c.894-1.187 1.991-2.227 3.297-3.082.231-.151.296-.461.145-.692-.15-.231-.461-.297-.692-.145-1.704 1.114-3.1 2.51-4.148 4.149-.105.165-.105.375 0 .539 1.048 1.639 2.444 3.035 4.148 4.149.084.055.179.082.273.082.163 0 .323-.08.419-.227.151-.231.086-.541-.145-.692-1.306-.854-2.403-1.895-3.297-3.082h3.524c4.009 0 5.5 1.491 5.5 5.5 0 .276.224.5.5.5s.5-.224.5-.5v-5c0-4.009 1.491-5.5 5.5-5.5h3.524c-.894 1.187-1.991 2.227-3.298 3.082-.231.151-.296.461-.145.692.096.147.256.227.419.227.094 0 .189-.026.273-.082 1.704-1.114 3.1-2.51 4.148-4.149.105-.165.105-.375 0-.539z"/></svg>