<svg id="Layer_1" viewBox="0 0 24 24" xmlns="http://www.w3.org/2000/svg" data-name="Layer 1"><path d="m20.333 12.368c-.07-.052-.153-.084-.24-.094-1.2-.135-4.708-.259-7.593-.273v-2.003c4.756-.017 9.456-.273 9.504-.276.19-.01.357-.127.433-.302.023-.054.563-1.336.563-2.92s-.516-2.73-.538-2.778c-.075-.164-.232-.274-.412-.289-.049-.004-4.785-.403-9.55-.43v-1.503c0-.276-.224-.5-.5-.5s-.5.224-.5.5v1.501c-2.885.013-6.393.137-7.593.273-.087.01-.17.042-.24.094-.054.04-1.348 1.003-2.583 2.854-.112.168-.112.387 0 .555 1.235 1.852 2.529 2.814 2.583 2.854.07.052.153.084.24.094 1.2.135 4.708.259 7.593.273v2.004c-4.765.027-9.501.426-9.55.43-.179.015-.336.125-.412.289-.022.048-.538 1.187-.538 2.778s.54 2.866.563 2.92c.075.175.243.292.433.302.049.003 4.749.259 9.504.276v3.502c0 .276.224.5.5.5s.5-.224.5-.5v-3.501c2.885-.013 6.393-.137 7.593-.273.087-.01.17-.042.24-.094.054-.04 1.348-1.003 2.583-2.854.112-.168.112-.387 0-.555-1.235-1.852-2.529-2.814-2.583-2.854zm-18.227-5.868c.88-1.246 1.76-2.009 2.053-2.247 1.366-.135 5.007-.253 7.841-.253 4.188 0 8.485.312 9.655.404.132.38.345 1.142.345 2.096 0 .964-.236 1.816-.378 2.241-1.193.061-5.449.259-9.622.259-2.833 0-6.475-.119-7.841-.253-.292-.237-1.172-1-2.053-2.247zm17.735 11.247c-1.366.135-5.007.253-7.841.253-4.172 0-8.429-.199-9.622-.259-.142-.425-.378-1.276-.378-2.241 0-.946.214-1.713.346-2.096 1.172-.092 5.467-.404 9.654-.404 2.833 0 6.475.119 7.841.253.292.237 1.172 1 2.053 2.247-.88 1.246-1.76 2.009-2.053 2.247z"/></svg>