<svg id="Layer_1" viewBox="0 0 24 24" xmlns="http://www.w3.org/2000/svg" data-name="Layer 1"><path d="m21 19c-1.346 0-2 .654-2 2s.654 2 2 2 2-.654 2-2-.654-2-2-2zm0 3c-.794 0-1-.206-1-1s.206-1 1-1 1 .206 1 1-.206 1-1 1zm-2.273-8.187c-.141-.12-.48-.507-.79-.729.031-.348.063-.695.063-1.085s-.032-.736-.063-1.084c.31-.224.649-.609.791-.731 1.697-1.699 1.697-3.213 0-4.912-1.7-1.7-3.215-1.698-4.913 0-.12.14-.507.479-.73.79-.348-.031-.696-.063-1.085-.063s-.736.032-1.085.063c-.223-.311-.609-.651-.73-.79-1.698-1.698-3.214-1.698-4.912 0s-1.699 3.213 0 4.912c.139.122.48.507.791.732-.031.348-.063.695-.063 1.084s.032.736.063 1.085c-.311.223-.65.609-.79.73-1.699 1.699-1.699 3.214 0 4.913.849.849 1.652 1.273 2.456 1.273s1.607-.425 2.457-1.274c.121-.141.508-.479.73-.79.348.031.695.063 1.084.063s.736-.032 1.084-.063c.222.311.608.648.73.791.85.849 1.653 1.273 2.456 1.273s1.607-.425 2.457-1.273c1.698-1.699 1.698-3.214 0-4.914zm-4.206-7.833c1.307-1.307 2.188-1.309 3.499 0 1.307 1.308 1.307 2.19 0 3.498-.061.06-.159.156-.273.265-.449-1.918-1.573-3.042-3.492-3.491.109-.113.204-.211.264-.271zm-8.541 3.498c-1.308-1.308-1.308-2.19 0-3.498 1.307-1.307 2.19-1.308 3.499 0 .06.06.155.158.264.271-1.918.449-3.042 1.573-3.491 3.491-.113-.109-.211-.204-.271-.264zm3.498 8.543c-1.307 1.306-2.19 1.308-3.498 0s-1.308-2.191 0-3.499c.06-.06.158-.156.271-.264.449 1.919 1.573 3.043 3.491 3.492-.109.113-.204.211-.264.272zm-2.478-6.021c0-3.645 1.355-5 5-5s5 1.355 5 5-1.355 5-5 5-5-1.355-5-5zm11.021 6.021c-1.308 1.305-2.189 1.309-3.498 0-.06-.061-.156-.159-.265-.273 1.918-.449 3.042-1.573 3.491-3.491.113.109.211.204.272.264 1.307 1.308 1.307 2.191 0 3.499zm-15.021-13.021c1.346 0 2-.654 2-2s-.654-2-2-2-2 .654-2 2 .654 2 2 2zm0-3c.794 0 1 .206 1 1s-.206 1-1 1-1-.206-1-1 .206-1 1-1zm0 17c-1.346 0-2 .654-2 2s.654 2 2 2 2-.654 2-2-.654-2-2-2zm0 3c-.794 0-1-.206-1-1s.206-1 1-1 1 .206 1 1-.206 1-1 1zm18-17c1.346 0 2-.654 2-2s-.654-2-2-2-2 .654-2 2 .654 2 2 2zm0-3c.794 0 1 .206 1 1s-.206 1-1 1-1-.206-1-1 .206-1 1-1z"/></svg>