<svg id="Layer_1" viewBox="0 0 24 24" xmlns="http://www.w3.org/2000/svg" data-name="Layer 1"><path d="m12 5c-4.907 0-7 2.094-7 7s2.093 7 7 7 7-2.094 7-7-2.093-7-7-7zm0 13c-4.374 0-6-1.626-6-6s1.626-6 6-6 6 1.626 6 6-1.626 6-6 6zm.75-6c0 .414-.336.75-.75.75s-.75-.336-.75-.75.336-.75.75-.75.75.336.75.75zm9.188-9.558c-.042-.19-.19-.339-.381-.381-.048-.011-4.891-1.062-9.557-1.062s-9.509 1.052-9.557 1.063c-.191.042-.34.19-.381.381-.011.049-1.062 4.891-1.062 9.558s1.051 9.509 1.062 9.558c.042.19.19.339.381.381.048.011 4.891 1.062 9.557 1.062s9.509-1.051 9.557-1.062c.191-.042.34-.19.381-.381.011-.049 1.062-4.891 1.062-9.558s-1.051-9.509-1.062-9.558zm-.911 18.585c-1.136.228-5.148.973-9.027.973s-7.891-.745-9.027-.973c-.228-1.137-.973-5.148-.973-9.027s.745-7.891.973-9.027c1.136-.228 5.148-.973 9.027-.973s7.891.745 9.027.973c.228 1.137.973 5.148.973 9.027s-.745 7.891-.973 9.027z"/></svg>