<svg id="Layer_1" viewBox="0 0 24 24" xmlns="http://www.w3.org/2000/svg" data-name="Layer 1"><path d="m21.922 2.535c-.049-.139-.156-.25-.294-.302-.132-.05-3.309-1.233-9.628-1.233s-9.496 1.183-9.628 1.233c-.138.053-.245.163-.294.302-.044.125-1.078 3.136-1.078 7.965s1.034 7.839 1.078 7.965c.049.139.156.25.294.302.128.049 3.147 1.166 9.128 1.227v2.006h-4c-.276 0-.5.224-.5.5s.224.5.5.5h9c.276 0 .5-.224.5-.5s-.224-.5-.5-.5h-4v-2.006c5.981-.061 9-1.178 9.128-1.227.138-.053.245-.163.294-.302.044-.125 1.078-3.136 1.078-7.965s-1.034-7.839-1.078-7.965zm-.872 15.372c-.814.258-3.855 1.093-9.05 1.093s-8.235-.835-9.05-1.093c-.232-.777-.95-3.495-.95-7.407s.718-6.63.95-7.407c.814-.258 3.855-1.093 9.05-1.093s8.235.835 9.05 1.093c.232.777.95 3.495.95 7.407s-.718 6.63-.95 7.407zm-5.05-7.407c0 .276-.224.5-.5.5h-3v3c0 .276-.224.5-.5.5s-.5-.224-.5-.5v-3h-3c-.276 0-.5-.224-.5-.5s.224-.5.5-.5h3v-3c0-.276.224-.5.5-.5s.5.224.5.5v3h3c.276 0 .5.224.5.5z"/></svg>