<svg id="Layer_1" viewBox="0 0 24 24" xmlns="http://www.w3.org/2000/svg" data-name="Layer 1"><path d="m17 22.5c0 .276-.224.5-.5.5h-9c-.276 0-.5-.224-.5-.5s.224-.5.5-.5h4v-2.006c-5.981-.061-9-1.178-9.128-1.227-.138-.053-.245-.163-.294-.302-.044-.125-1.078-3.136-1.078-7.965 0-1.752.137-3.462.406-5.082.046-.272.308-.458.575-.411.272.045.456.303.411.575-.261 1.565-.393 3.22-.393 4.918 0 3.913.718 6.63.95 7.407.814.258 3.855 1.093 9.05 1.093 1.191 0 2.355-.044 3.461-.131.272-.014.516.184.537.459.022.275-.184.516-.459.538-.974.077-1.998.114-3.039.124v2.009h4c.276 0 .5.224.5.5zm5.854-.354c.195.195.195.512 0 .707s-.512.195-.707 0l-21.001-20.999c-.195-.195-.195-.512 0-.707s.512-.195.707 0l.954.954c.017-.007.031-.021.049-.026 1.084-.323 4.146-1.075 9.143-1.075 6.319 0 9.496 1.183 9.628 1.233.138.053.245.163.294.302.044.125 1.078 3.136 1.078 7.965s-1.034 7.839-1.078 7.965c-.049.139-.156.25-.293.302-.028.011-.596.222-1.689.466l2.913 2.913zm-19.244-19.243 15.484 15.484c.977-.19 1.64-.379 1.956-.479.232-.777.95-3.494.95-7.408s-.718-6.63-.95-7.407c-.814-.258-3.855-1.093-9.05-1.093-4.274 0-7.067.557-8.39.903z"/></svg>