<svg id="Layer_1" viewBox="0 0 24 24" xmlns="http://www.w3.org/2000/svg" data-name="Layer 1"><path d="m21.916 3.395c-.054-.137-.165-.244-.304-.292-.132-.045-3.301-1.104-9.612-1.104s-9.48 1.06-9.612 1.105c-.14.048-.25.154-.304.292-.044.113-1.084 2.83-1.084 7.18s1.04 7.066 1.084 7.18c.054.137.165.244.304.292.128.044 3.14 1.044 9.112 1.098v1.855h-4c-.276 0-.5.224-.5.5s.224.5.5.5h9c.276 0 .5-.224.5-.5s-.224-.5-.5-.5h-4v-1.855c5.972-.055 8.984-1.055 9.112-1.098.14-.048.25-.154.304-.292.044-.113 1.084-2.829 1.084-7.18s-1.04-7.067-1.084-7.18zm-.854 13.773c-.821.233-3.866.982-9.062.982s-8.241-.749-9.062-.982c-.238-.72-.938-3.133-.938-6.593s.7-5.873.938-6.593c.821-.233 3.866-.982 9.062-.982s8.241.749 9.062.982c.238.72.938 3.133.938 6.593s-.7 5.873-.938 6.593zm-2.239-10.567c.235 1.649.235 3.321 0 4.97-.038.274-.298.464-.566.424-.273-.039-.463-.292-.424-.566.18-1.262.205-2.537.093-3.804-1.621 1.164-3.284 2.685-4.543 4.195-.181.227-.572.247-.75.02-.01-.01-.904-.966-2.125-1.748-1.362.937-3.504 3.021-4.59 4.681-.152.233-.464.295-.692.145-.231-.151-.296-.461-.145-.692 1.226-1.874 3.732-4.265 5.154-5.151.157-.099.359-.102.52-.005.968.575 1.765 1.269 2.215 1.695 1.172-1.336 2.618-2.653 4.054-3.722-1.151-.077-2.309-.04-3.454.124-.274.035-.527-.152-.566-.424-.039-.273.151-.527.424-.566 1.649-.236 3.321-.236 4.97 0 .22.032.393.205.424.424z"/></svg>