<svg id="Layer_1" viewBox="0 0 24 24" xmlns="http://www.w3.org/2000/svg" data-name="Layer 1"><path d="m23 12c0 .276-.224.5-.5.5h-21c-.276 0-.5-.224-.5-.5s.224-.5.5-.5h21c.276 0 .5.224.5.5zm-13.027-6.991v-.018c.023-1.259.752-1.984 1.998-1.991 1.235.009 1.981.753 2.004 1.991-.024 1.295-.733 2.002-1.998 2.009-1.271-.008-1.98-.715-2.004-1.991zm1-.009c.016.716.298.996 1.004 1 .712-.004.984-.277.998-1.01-.013-.684-.312-.985-1.005-.99-.699.004-.981.285-.997 1zm3.002 13.991c-.024 1.295-.733 2.002-1.998 2.009-1.271-.008-1.98-.715-2.004-1.991v-.018c.023-1.259.752-1.984 1.998-1.991 1.235.009 1.981.753 2.004 1.991zm-1 0c-.013-.684-.312-.985-1.005-.99-.699.004-.981.285-.997 1 .016.716.298.996 1.004 1 .712-.004.984-.277.998-1.01z"/></svg>