<?xml version="1.0" encoding="UTF-8"?>
<svg xmlns="http://www.w3.org/2000/svg" id="Layer_1" data-name="Layer 1" viewBox="0 0 24 24">
  <path d="M11.999,12.72c-2.038,.013-3.089,1.062-3.127,3.137,.037,2.066,1.088,3.12,3.125,3.133h.006c2.064-.013,3.086-1.033,3.125-3.137-.035-2.006-1.144-3.119-3.129-3.133Zm0,5.27c-1.484-.01-2.101-.634-2.128-2.132,.027-1.509,.646-2.128,2.127-2.138,1.447,.01,2.104,.674,2.129,2.133-.028,1.527-.625,2.127-2.128,2.137Z"/>
  <path d="M17.751,7.266c-.195-.194-.512-.195-.707,0l-1.045,1.048-1.045-1.048c-.195-.196-.512-.195-.707,0-.196,.195-.196,.512,0,.707l1.047,1.05-1.047,1.05c-.195,.195-.195,.512,0,.707,.098,.097,.225,.146,.353,.146s.256-.049,.354-.147l1.045-1.048,1.045,1.048c.098,.098,.226,.147,.354,.147s.255-.049,.353-.146c.196-.195,.196-.512,0-.707l-1.047-1.05,1.047-1.05c.195-.195,.195-.512,0-.707Z"/>
  <path d="M9.046,10.779c.098,.098,.226,.147,.354,.147s.255-.049,.353-.146c.196-.195,.196-.512,0-.707l-1.047-1.05,1.047-1.05c.195-.195,.195-.512,0-.707-.195-.194-.512-.195-.707,0l-1.045,1.048-1.045-1.048c-.195-.196-.511-.196-.707,0s-.196,.512,0,.707l1.047,1.05-1.047,1.05c-.195,.195-.195,.512,0,.707,.098,.097,.225,.146,.353,.146s.256-.049,.354-.147l1.045-1.048,1.045,1.048Z"/>
  <path d="M11.997,1C4.894,1,1,5.16,1,12.009c0,6.996,3.771,10.991,11.003,10.991,7.164,0,10.864-3.74,10.997-11.009-.122-7.042-4.027-10.991-11.003-10.991Zm.006,21c-6.605-.039-9.877-3.31-10.003-10,.121-6.594,3.486-9.958,9.997-10,4.485,.029,9.861,1.79,10.003,9.991-.123,6.696-3.395,9.97-9.997,10.009Z"/>
</svg>
