<svg id="Layer_1" viewBox="0 0 24 24" xmlns="http://www.w3.org/2000/svg" data-name="Layer 1"><path d="m4 22.5c0 .276-.224.5-.5.5s-.5-.224-.5-.5c0-7.813 2.607-11 9-11 5.757 0 8-2.804 8-10 0-.276.224-.5.5-.5s.5.224.5.5c0 7.813-2.607 11-9 11-5.757 0-8 2.804-8 10zm13.8-9.453c-.22-.165-.534-.121-.7.101-.165.221-.12.535.101.7.707.529 1.273 1.241 1.707 2.152h-11.408c-.276 0-.5.224-.5.5s.224.5.5.5h11.77c.011 0 .021-.006.032-.006.281.855.466 1.864.577 3.006h-13.379c-.276 0-.5.224-.5.5s.224.5.5.5h13.461c.025.478.039.975.039 1.5 0 .276.224.5.5.5s.5-.224.5-.5c0-4.817-1.017-7.82-3.2-9.453zm-11.6-2.095c.219.164.535.122.7-.101.165-.221.12-.535-.101-.7-.707-.529-1.273-1.241-1.707-2.152h11.407c.276 0 .5-.224.5-.5s-.224-.5-.5-.5h-11.803c-.28-.853-.464-1.86-.574-3h13.379c.276 0 .5-.224.5-.5s-.224-.5-.5-.5h-13.462c-.025-.478-.039-.975-.039-1.5 0-.276-.224-.5-.5-.5s-.5.224-.5.5c0 4.817 1.017 7.82 3.2 9.453z"/></svg>