<svg id="Layer_1" viewBox="0 0 24 24" xmlns="http://www.w3.org/2000/svg" data-name="Layer 1"><path d="m12 1c-7.813 0-11 3.187-11 11s3.187 11 11 11 11-3.187 11-11-3.187-11-11-11zm0 21c-7.196 0-10-2.804-10-10s2.804-10 10-10 10 2.804 10 10-2.804 10-10 10zm6.321-12.486c-.087-.021-2.173-.514-6.321-.514s-6.235.493-6.322.514c-.158.038-.288.151-.348.303-.013.034-.33.854-.33 2.183s.317 2.149.33 2.183c.06.152.189.265.348.303.087.021 2.174.514 6.322.514s6.234-.493 6.321-.514c.158-.038.288-.151.348-.302.014-.034.331-.854.331-2.184s-.317-2.149-.331-2.184c-.06-.151-.189-.264-.348-.302zm-.508 4.056c-.681.127-2.632.43-5.813.43s-5.132-.303-5.814-.43c-.077-.295-.186-.841-.186-1.57s.109-1.275.186-1.57c.682-.127 2.632-.43 5.814-.43s5.133.303 5.813.43c.077.295.187.84.187 1.57s-.109 1.274-.187 1.57z"/></svg>