<?xml version="1.0" encoding="UTF-8"?>
<svg xmlns="http://www.w3.org/2000/svg" id="Layer_1" data-name="Layer 1" viewBox="0 0 24 24">
  <path d="M21.202,6.309c-.057-.159-.189-.279-.354-.319-.112-.027-1.947-.467-4.568-.752v-1.702c0-1.398-1.14-2.536-2.541-2.536h-3.479c-1.401,0-2.541,1.138-2.541,2.536v1.703c-2.619,.285-4.455,.724-4.567,.751-.165,.04-.299,.161-.354,.32-.048,.136-1.163,3.366-1.163,7.688,0,4.359,1.116,7.557,1.163,7.69,.057,.159,.189,.279,.354,.319,.167,.041,4.141,.992,8.849,.992s8.681-.952,8.848-.992c.165-.04,.299-.161,.354-.32,.048-.136,1.163-3.366,1.163-7.689,0-4.359-1.116-7.556-1.163-7.69ZM8.72,3.536c0-.847,.691-1.536,1.541-1.536h3.479c.85,0,1.541,.689,1.541,1.536v1.605c-1.019-.087-2.128-.144-3.28-.144s-2.26,.057-3.28,.144v-1.606Zm11.622,17.561c-.976,.212-4.451,.903-8.342,.903s-7.371-.691-8.343-.903c-.258-.833-1.022-3.598-1.022-7.099,0-3.464,.766-6.257,1.023-7.098,.976-.212,4.451-.903,8.342-.903s7.37,.691,8.343,.903c.258,.834,1.022,3.606,1.022,7.098,0,3.465-.766,6.258-1.023,7.099Z"/>
  <path d="M14.394,13.499h-1.894v-1.864c0-.276-.224-.5-.5-.5s-.5,.224-.5,.5v1.864h-1.894c-.276,0-.5,.224-.5,.5s.224,.5,.5,.5h1.894v1.864c0,.276,.224,.5,.5,.5s.5-.224,.5-.5v-1.864h1.894c.276,0,.5-.224,.5-.5s-.224-.5-.5-.5Z"/>
</svg>
