<?xml version="1.0" encoding="UTF-8"?>
<svg xmlns="http://www.w3.org/2000/svg" id="Layer_1" data-name="Layer 1" viewBox="0 0 24 24">
  <path d="M21.58,6.844c-.02-.113-.077-.215-.164-.291L15.472,1.378c-.065-.057-.145-.096-.229-.113-.887-.178-1.906-.265-3.116-.265C7.566,1,3.575,1.827,3.536,1.835c-.185,.039-.331,.177-.38,.359-.046,.169-1.12,4.201-1.12,9.603,0,5.447,1.074,9.437,1.12,9.604,.045,.164,.17,.294,.332,.345,.163,.051,4.044,1.254,8.638,1.254s8.473-1.203,8.636-1.254c.173-.054,.303-.198,.34-.375,.009-.041,.862-4.188,.862-9.574,0-1.859-.125-3.479-.384-4.953ZM15.602,2.818l4.252,3.701c-1.742,.113-3.4-.061-4.098-.152-.082-.539-.216-1.734-.154-3.549Zm4.576,18.056c-.972,.272-4.315,1.126-8.053,1.126-3.769,0-7.126-.864-8.072-1.131-.237-.979-1.018-4.544-1.018-9.072,0-4.442,.766-8.013,1.011-9.042,1.003-.188,4.345-.754,8.079-.754,.956,0,1.78,.056,2.504,.171-.168,3.089,.195,4.686,.212,4.754,.046,.196,.205,.346,.405,.379,.084,.014,1.559,.253,3.403,.253,.642,0,1.328-.03,2.016-.107,.199,1.3,.297,2.727,.297,4.346,0,4.467-.597,8.056-.785,9.077Z"/>
  <path d="M16.465,10.01H7.535c-.276,0-.5,.224-.5,.5s.224,.5,.5,.5h8.93c.276,0,.5-.224,.5-.5s-.224-.5-.5-.5Z"/>
  <path d="M16.465,13.964H7.535c-.276,0-.5,.224-.5,.5s.224,.5,.5,.5h8.93c.276,0,.5-.224,.5-.5s-.224-.5-.5-.5Z"/>
  <path d="M15.417,18.441c-.375,0-.545-.156-.802-.391-.301-.276-.713-.655-1.478-.655s-1.177,.378-1.478,.655c-.257,.235-.427,.391-.802,.391s-.534-.147-.799-.391c-.301-.276-.713-.655-1.477-.655-.276,0-.5,.224-.5,.5s.224,.5,.5,.5c.374,0,.534,.147,.799,.391,.301,.276,.713,.655,1.477,.655s1.177-.378,1.478-.655c.257-.235,.427-.391,.802-.391s.545,.156,.802,.391c.301,.276,.713,.655,1.478,.655,.276,0,.5-.224,.5-.5s-.224-.5-.5-.5Z"/>
</svg>
