<svg id="Layer_1" viewBox="0 0 24 24" xmlns="http://www.w3.org/2000/svg" data-name="Layer 1"><path d="m11 2c.747 0 1.435.037 2.047.104-.171 3.696.231 5.615.249 5.697.043.198.202.35.402.385.097.017 1.827.315 3.989.315.66 0 1.362-.037 2.068-.109.049.383.103.767.137 1.151.024.275.273.489.542.455.275-.024.479-.267.455-.542-.059-.678-.141-1.343-.248-2.034-.017-.109-.07-.209-.149-.285l-6.039-5.744c-.068-.065-.154-.109-.246-.128-.875-.176-1.953-.265-3.207-.265-4.561 0-8.343.802-8.501.836-.184.04-.331.179-.378.361-.046.173-1.12 4.302-1.12 9.803s1.078 9.252 1.124 9.409c.047.16.171.286.33.336.149.047 3.702 1.149 8.035 1.248h.011c.271 0 .494-.217.5-.488.006-.276-.212-.505-.489-.512-3.534-.08-6.605-.874-7.498-1.125-.239-.937-1.014-4.318-1.014-8.868s.77-8.201 1.014-9.247c.99-.189 4.262-.753 7.986-.753zm8.347 5.429c-2.194.181-4.321-.061-5.132-.176-.1-.661-.284-2.313-.181-4.878zm-1.847 4.571c-3.855 0-5.5 1.645-5.5 5.5s1.645 5.5 5.5 5.5 5.5-1.645 5.5-5.5-1.645-5.5-5.5-5.5zm0 10c-3.28 0-4.5-1.22-4.5-4.5s1.22-4.5 4.5-4.5 4.5 1.22 4.5 4.5-1.22 4.5-4.5 4.5zm1.768-5.561-1.061 1.061 1.061 1.061c.195.195.195.512 0 .707s-.512.195-.707 0l-1.061-1.061-1.061 1.061c-.195.195-.512.195-.707 0s-.195-.512 0-.707l1.061-1.061-1.061-1.061c-.195-.195-.195-.512 0-.707s.512-.195.707 0l1.061 1.061 1.061-1.061c.195-.195.512-.195.707 0s.195.512 0 .707z"/></svg>