<svg id="Layer_1" viewBox="0 0 24 24" xmlns="http://www.w3.org/2000/svg" data-name="Layer 1"><path d="m22.973 17.09c-.088-.261-.372-.403-.634-.313-.036.012-3.671 1.224-8.34 1.224-3.967 0-7.855-.892-8.929-1.158-.228-1.054-.972-4.788-.972-8.517 0-2.973.143-5.427.392-6.731.028-.146-.011-.298-.106-.413s-.235-.181-.385-.181h-2.499c-.276 0-.5.224-.5.5s.224.5.5.5h1.912c-.28 2-.312 5.027-.312 6.325 0 4.5 1.021 8.857 1.064 9.04.042.178.178.319.354.367.05.014.403.109.981.241v2.027c0 2.214 1.616 3 3 3 1.767 0 3-1.234 3-3v-1.102c.81.063 1.651.102 2.5.102.693 0 1.362-.025 2-.069v1.069c0 1.766 1.233 3 3 3 1.384 0 3-.786 3-3v-2.077c.394-.11.624-.187.66-.2.262-.088.402-.372.313-.634zm-12.474 2.91c0 1.215-.785 2-2 2-.602 0-2-.195-2-2v-1.812c1.051.213 2.444.454 4 .618zm10.5 0c0 1.805-1.398 2-2 2-1.215 0-2-.785-2-2v-1.153c1.632-.164 3.011-.433 4-.667v1.819z"/></svg>