<svg id="Layer_1" viewBox="0 0 24 24" xmlns="http://www.w3.org/2000/svg" data-name="Layer 1"><path d="m22.985 17.379c-.067-.268-.345-.434-.606-.364-.04.01-3.991.985-8.379.985-3.753 0-7.913-.714-9.082-.93-.224-1.065-.918-4.644-.918-8.133 0-4.157.489-7.329.494-7.36.052-.293-.195-.585-.494-.578h-2.5c-.276 0-.5.224-.5.5s.224.5.5.5h1.927c-.143 1.116-.427 3.744-.427 6.938 0 4.258.972 8.497 1.013 8.675.045.191.196.339.39.377.014.003.427.084 1.098.197v1.812c0 1.654 1.346 3 3 3s3-1.346 3-3v-1.089c.829.055 1.674.089 2.5.089.684 0 1.353-.024 2-.063v1.063c0 1.654 1.346 3 3 3s3-1.346 3-3v-1.874c.361-.078.585-.132.621-.141.269-.067.431-.338.364-.606zm-12.485 2.621c0 1.103-.897 2-2 2s-2-.897-2-2v-1.652c1.082.166 2.486.354 4 .485zm10.5 0c0 1.103-.897 2-2 2s-2-.897-2-2v-1.134c1.599-.137 2.998-.354 4-.54zm-4.357-13.262c.049.011 1.205.262 2.357.262s2.309-.251 2.357-.262c.19-.042.339-.19.381-.381.011-.049.262-1.205.262-2.357s-.251-2.309-.262-2.357c-.042-.19-.19-.339-.381-.381-.049-.011-1.205-.262-2.357-.262s-2.309.251-2.357.262c-.19.042-.339.19-.381.381-.011.049-.262 1.205-.262 2.357s.251 2.309.262 2.357c.042.19.19.339.381.381zm.534-4.561c.402-.071 1.124-.177 1.823-.177s1.421.106 1.823.177c.07.402.177 1.124.177 1.823s-.106 1.421-.177 1.823c-.402.071-1.124.177-1.823.177s-1.421-.106-1.823-.177c-.07-.402-.177-1.124-.177-1.823s.106-1.421.177-1.823zm-9.502 4.567c.068.011 1.689.256 2.825.256s2.757-.245 2.825-.256c.205-.031.369-.185.413-.387.011-.049.262-1.205.262-2.357s-.251-2.309-.262-2.357c-.044-.202-.208-.355-.413-.387-.068-.011-1.689-.256-2.825-.256s-2.757.245-2.825.256c-.205.031-.369.185-.413.387-.011.049-.262 1.205-.262 2.357s.251 2.309.262 2.357c.044.202.208.355.413.387zm.499-4.549c.532-.071 1.566-.195 2.326-.195s1.793.124 2.326.195c.07.405.174 1.116.174 1.805s-.104 1.399-.174 1.805c-.532.071-1.566.195-2.326.195s-1.793-.124-2.326-.195c-.07-.405-.174-1.116-.174-1.805s.104-1.399.174-1.805zm-.477 12.595c.027.002 2.83.21 6.803.21 1.658 0 6.588-.2 6.797-.209.228-.009.42-.171.469-.394.009-.045.234-1.105.234-2.397s-.226-2.352-.234-2.397c-.047-.216-.23-.376-.452-.393-.027-.002-2.841-.21-6.813-.21s-6.775.208-6.803.21c-.22.017-.401.174-.45.388-.011.044-.247 1.101-.247 2.402s.236 2.358.247 2.402c.049.214.23.371.45.388zm.457-4.608c.889-.055 3.259-.182 6.346-.182s5.459.126 6.354.182c.062.395.146 1.067.146 1.818 0 .742-.083 1.411-.146 1.808-1.237.049-4.988.192-6.354.192-3.087 0-5.457-.126-6.346-.182-.065-.393-.154-1.066-.154-1.818s.089-1.425.154-1.818z"/></svg>