<svg id="Layer_1" viewBox="0 0 24 24" xmlns="http://www.w3.org/2000/svg" data-name="Layer 1"><circle cx="12" cy="12" r=".751"/><path d="m20.987 21.48c-.062-.269-.334-.435-.6-.375-.013.003-.46.105-1.217.239.26-1.285.829-4.53.829-8.344 0-4.882-.895-8.534-.933-8.687-.04-.162-.158-.292-.314-.35-.056-.02-1.355-.487-3.253-.817v-1.146c0-.189-.107-.362-.276-.447-.045-.022-1.13-.553-3.224-.553-3.592 0-6.639 1.192-6.767 1.243-.156.062-.271.2-.306.365-.009.045-.928 4.608-.928 9.892 0 4.214.59 7.549.859 8.849-.774-.136-1.233-.241-1.247-.244-.27-.061-.537.106-.6.375-.062.269.105.538.375.6.163.038 4.041.92 8.612.92s8.45-.882 8.612-.92c.27-.062.437-.331.375-.6zm-2.83-16.662c.202.922.843 4.16.843 8.182 0 4.146-.71 7.693-.888 8.518-.741.112-1.63.227-2.612.316v-17.672c1.251.228 2.22.516 2.657.656zm-12.238 16.704c-.181-.814-.919-4.419-.919-9.022 0-4.449.663-8.374.856-9.42.79-.277 3.322-1.08 6.144-1.08 1.262 0 2.099.21 2.5.342v19.571c-.796.053-1.637.087-2.5.087-2.341 0-4.527-.245-6.081-.478z"/></svg>