<svg id="Layer_1" viewBox="0 0 24 24" xmlns="http://www.w3.org/2000/svg" data-name="Layer 1"><path d="m23 4.5c0-.176-.092-.338-.242-.429-.459-.276-1.05-.58-1.893-.81-.344-1.544-1.411-2.261-3.364-2.261-2.129 0-3.219.837-3.451 2.685-1.784-.976-3.816-1.729-5.5-2.337l-.876-.317c-.166-.062-.349-.031-.485.079-.137.109-.206.282-.183.456.119.889.249 1.683.397 2.445-1.735-.868-3.326-1.463-4.729-1.98-.166-.063-.349-.03-.485.078-.137.11-.206.283-.183.457.436 3.25 1.18 6.011 2.41 8.951.652 1.558 1.892 3.463 3.309 4.546-1.293.258-3.125.607-4.485.866q-2.155.41-2.227.74c-.027.246-.022 3.513 3.415 5.277.152.076.331.069.479-.017 2.136-1.263 3.513-3.429 4.135-4.997.995 1.38 2.76 3.067 5.46 3.067 4.617 0 6.5-1.999 6.5-6.9v-8.399c.77-.225 1.324-.51 1.758-.771.15-.091.242-.253.242-.429zm-14.888-2.245c1.823.655 4.02 1.455 5.856 2.525-.159 1.3-1.36 1.943-1.881 2.156-1.232-.942-2.411-1.69-3.539-2.318-.165-.752-.309-1.518-.437-2.363zm-3.481 19.67c-2.048-1.145-2.502-3.013-2.607-3.745 1.813-.348 4.604-.873 6.303-1.218-.34 1.185-1.548 3.578-3.695 4.963zm15.369-7.825c0 4.356-1.439 5.9-5.5 5.9-3.804 0-5.438-3.969-5.531-4.175-.04-.107-.115-.197-.214-.255-1.426-.848-2.771-2.895-3.418-4.439-1.089-2.604-1.786-5.062-2.222-7.87 2.513.938 5.333 2.105 8.577 4.634.127.1.296.133.451.084.117-.034 2.856-.887 2.856-3.479 0-1.869.631-2.5 2.5-2.5s2.5.631 2.5 2.5v9.6z"/></svg>