<svg id="Layer_1" viewBox="0 0 24 24" xmlns="http://www.w3.org/2000/svg" data-name="Layer 1"><path d="m21.296 7.228c-.057-.313-.433-.495-.713-.345-.068.034-1.632.827-4.183 2.942-.629-.71-1.23-1.352-1.791-1.913-2.403-2.403-6.483-5.739-6.524-5.772-.139-.113-.327-.145-.492-.081-.053.02-1.321.509-3.173 2.361s-2.341 3.12-2.361 3.173c-.062.167-.032.354.081.492.033.041 3.369 4.121 5.772 6.524.561.561 1.203 1.162 1.913 1.791-2.115 2.551-2.908 4.115-2.942 4.183-.149.281.032.656.345.713 2.325.486 4.637.729 6.923.729s4.547-.244 6.764-.73c.19-.042.339-.19.381-.381.974-4.432.974-9.036 0-13.687zm-.91 13.158c-3.981.83-8.106.852-12.277.066.431-.708 1.31-2.031 2.794-3.782.177-.208.153-.521-.053-.7-.84-.732-1.591-1.428-2.231-2.068-2.03-2.03-4.75-5.293-5.504-6.206.224-.423.794-1.352 2.012-2.569s2.147-1.789 2.569-2.012c.913.753 4.175 3.473 6.206 5.504.64.64 1.335 1.391 2.068 2.231.181.207.493.229.7.053 1.751-1.484 3.074-2.363 3.782-2.794.787 4.171.764 8.296-.066 12.277z"/></svg>