<?xml version="1.0" encoding="UTF-8"?>
<svg xmlns="http://www.w3.org/2000/svg" id="Layer_1" data-name="Layer 1" viewBox="0 0 24 24">
  <path d="M11.815,17.858c.06,.023,.122,.034,.185,.034,.059,0,.118-.01,.174-.031,.152-.057,3.761-1.455,6.506-6.764,.127-.245,.03-.547-.215-.674-.242-.125-.547-.031-.674,.215-1.878,3.632-4.171,5.303-5.292,5.948V2c0-.276-.224-.5-.5-.5s-.5,.224-.5,.5v14.58c-1.122-.652-3.426-2.336-5.29-5.942-.127-.246-.431-.34-.674-.215-.245,.127-.342,.429-.215,.674,2.707,5.237,6.342,6.701,6.495,6.761Z"/>
  <path d="M21.303,16.253c-.269-.034-.525,.156-.562,.431-.167,1.27-.414,2.553-.735,3.821-5.314,1.32-10.697,1.32-16.012,0-.321-1.268-.568-2.551-.735-3.821-.037-.275-.296-.465-.562-.431-.273,.036-.466,.287-.431,.561,.186,1.407,.466,2.83,.834,4.23,.046,.175,.184,.312,.358,.357,2.834,.729,5.688,1.094,8.541,1.094s5.707-.365,8.541-1.094c.175-.045,.312-.182,.358-.357,.368-1.4,.648-2.823,.834-4.23,.035-.273-.157-.525-.431-.561Z"/>
</svg>
