<?xml version="1.0" encoding="UTF-8"?>
<svg xmlns="http://www.w3.org/2000/svg" id="Layer_1" data-name="Layer 1" viewBox="0 0 24 24">
  <path d="M11.027,12.607c-.008,0-.017-.002-.025-.003-.661-.099-4.128-.479-7.532,1.607-.191,.117-.281,.348-.219,.564,.025,.086,.571,1.958,1.81,3.41l-3.912,3.857c-.197,.194-.199,.51-.005,.707,.098,.099,.227,.149,.356,.149,.127,0,.253-.048,.351-.144l3.917-3.861c1.476,1.254,3.492,1.82,3.621,1.804,.169-.02,.333-.087,.425-.237,2.222-3.598,1.652-7.283,1.626-7.438-.035-.212-.201-.378-.414-.413Z"/>
  <path d="M12.973,11.393c.008,0,.017,.002,.025,.003,.661,.099,4.128,.479,7.532-1.607,.191-.117,.281-.348,.219-.564-.025-.086-.571-1.958-1.81-3.41l3.912-3.857c.197-.194,.199-.51,.005-.707-.098-.099-.227-.149-.356-.149-.127,0-.253,.048-.351,.144l-3.917,3.861c-1.476-1.254-3.492-1.82-3.621-1.804-.169,.02-.333,.087-.425,.237-2.222,3.598-1.652,7.283-1.626,7.438,.035,.212,.201,.378,.414,.413Z"/>
</svg>
