<svg id="Layer_1" viewBox="0 0 24 24" xmlns="http://www.w3.org/2000/svg" data-name="Layer 1"><path d="m22.888 14.185c-.174-.214-.488-.247-.703-.072-.017.013-.825.647-2.34 1.317-1.105-2.642-2.688-5.489-4.914-7.701.04-.227.065-.468.07-.728v-1.011c-.029-1.71-.935-2.756-2.5-2.949v-1.541c0-.276-.224-.5-.5-.5s-.5.224-.5.5v1.539c-1.582.185-2.469 1.212-2.5 2.96v1.011c.005.257.029.495.068.719-2.225 2.212-3.808 5.058-4.913 7.699-1.515-.67-2.323-1.304-2.34-1.317-.215-.175-.529-.142-.703.072s-.143.528.071.703c.074.06.959.76 2.594 1.481-1.015 2.64-1.552 4.958-1.767 6.034-.055.271.121.534.393.588.264.055.535-.119.588-.393.209-1.044.729-3.295 1.71-5.852 1.684.628 3.963 1.181 6.8 1.241v1.513c0 .276.224.5.5.5s.5-.224.5-.5v-1.513c2.836-.061 5.116-.613 6.8-1.241.981 2.557 1.501 4.808 1.71 5.852.053.273.324.448.588.393.271-.054.447-.317.393-.588-.215-1.076-.752-3.393-1.767-6.034 1.635-.721 2.52-1.421 2.594-1.481.214-.175.245-.489.071-.703zm-12.888-8.177c.024-1.38.643-2 1.997-2.008 1.342.009 1.979.646 2.003 2.004v.988c-.025 1.399-.624 2-1.997 2.008-1.36-.008-1.978-.627-2.003-1.999zm2.5 10.979v-1.487c0-.276-.224-.5-.5-.5s-.5.224-.5.5v1.487c-2.671-.061-4.83-.588-6.422-1.181 1.006-2.403 2.422-4.967 4.367-7.021.479.792 1.339 1.208 2.558 1.215 1.214-.007 2.072-.422 2.551-1.216 1.946 2.055 3.362 4.618 4.368 7.022-1.592.592-3.751 1.12-6.422 1.181z"/></svg>