<svg id="Layer_1" viewBox="0 0 24 24" xmlns="http://www.w3.org/2000/svg" data-name="Layer 1"><path d="m20 5h1.191l.361.724c.085.169.258.276.447.276s.362-.107.447-.276l.5-1c.077-.155.069-.339-.021-.486-.092-.147-.253-.237-.426-.237h-2.677c-.276-.533-.961-1.5-2.323-1.5h-.376c-.767-.431-1.174-1.217-1.178-1.225-.092-.18-.272-.292-.485-.272-.201.016-.374.151-.437.343-.007.02-.115.361-.186.877-.831-.476-1.491-1.082-1.499-1.09-.146-.134-.356-.171-.54-.091-.182.08-.3.259-.3.458 0 .054.004 1.123.304 2.377-1.313-.282-1.998-.773-2.005-.778-.166-.125-.396-.132-.572-.018s-.261.327-.214.531c.01.044.095.391.292.869-1.756.535-2.814 1.634-3.162 3.279-1.271.393-2.184.879-2.9 1.311-.15.09-.242.253-.242.428s.092.338.242.428c.755.455 1.715.974 3.097 1.376.005.015.012.027.017.042-.72 1.114-.989 2.007-1.33 2.99-.058.166-.023.349.088.484.112.135.289.201.46.174.88-.134 1.96-.356 3.288-.938.076.038.163.07.242.106-.164 1.213-.1 2.15-.004 2.901.021.165.123.309.271.383.148.075.325.07.47-.011.892-.501 1.654-1.094 2.437-2.282 1.606.5 1.72.94 1.72 2.346 0 1.869-.631 2.5-2.5 2.5-7.065 0-10.5-3.271-10.5-10 0-2.243.507-3.93 1.151-5.168.705.371 1.213 1.473 1.351 1.87.072.208.243.348.492.336.22-.009.408-.16.464-.374.441-1.692.609-3.39.512-5.191-.009-.175-.109-.333-.265-.415-.155-.083-.341-.078-.491.013-.704.422-4.214 2.836-4.214 8.929 0 8.869 4.131 13 13 13h1.5c3.701 0 5.5-1.962 5.5-6s-1.419-6.48-4.339-7.472c-.262-.089-.545.051-.635.313-.089.261.052.545.312.634 2.498.848 3.661 2.921 3.661 6.525 0 3.458-1.388 5-4.5 5h-1.5c-4.266 0-7.308-.986-9.266-3.064 1.883 1.371 4.473 2.064 7.766 2.064 2.421 0 3.5-1.08 3.5-3.5 0-2.528-.945-2.973-3.868-3.69-3.012-.74-4.132-2.029-4.132-4.758 0-2.012.863-3.149 2.755-3.662.51.867 1.33 1.82 2.602 2.28-.236.606-.356 1.22-.356 1.831 0 .202.122.385.309.462.185.077.401.035.545-.108 1.798-1.798 3.14-1.853 3.146-1.854 2.247 0 3.634 1.341 3.647 1.355.098.096.226.145.354.145s.255-.049.353-.146l1-1c.164-.164.193-.419.072-.616-.123-.198-.365-.287-.584-.211l-1.255.418.36-.721c.098-.196.057-.433-.102-.585-.159-.151-.397-.183-.589-.076l-1.319.732c-.42-.129-.9-.211-1.416-.253.106-1.507.775-2.043 2.478-2.043zm-14.485 4.5c.427-.224.918-.448 1.499-.651-.034.445.007.912.056 1.32-.604-.208-1.115-.439-1.555-.669zm-.518-7.034c0 .885-.073 1.746-.217 2.598-.281-.416-.653-.833-1.116-1.092.46-.678.941-1.169 1.333-1.506zm6.078 12.069c.367.126.791.243 1.182.336-.432.598-.845.992-1.239 1.276-.028-.461-.009-1.008.058-1.613zm-2.267-1.13c-.571.211-1.091.353-1.559.452.167-.473.362-.959.64-1.465.253.374.548.718.919 1.012zm7.718-6.34c-.484.107-1.302.389-2.301 1.139.072-.209.162-.418.269-.627.07-.138.073-.301.007-.442-.066-.14-.194-.242-.347-.274-1.441-.312-2.282-1.454-2.73-2.344.514.192 1.187.379 2.016.48.166.023.34-.047.447-.18.109-.133.142-.312.088-.475-.205-.613-.321-1.232-.388-1.735.42.297.946.624 1.504.855.154.063.328.046.467-.044.139-.091.223-.246.225-.412 0-.098.005-.193.011-.284.259.262.586.527.983.726.069.035.146.053.224.053h.5c.581 0 .962.304 1.201.601-1.189.423-2.082 1.468-2.175 2.965z"/></svg>