<svg id="Layer_1" viewBox="0 0 24 24" xmlns="http://www.w3.org/2000/svg" data-name="Layer 1"><path d="m21.489 18.124c.242-1.597.511-3.871.511-6.127 0-2.27-.273-4.555-.51-6.121 1.02-.278 1.51-1.047 1.51-2.376 0-1.706-.794-2.5-2.5-2.5-1.33 0-2.099.491-2.376 1.512-1.596-.242-3.87-.512-6.127-.512s-4.554.273-6.121.511c-.277-1.021-1.046-1.511-2.376-1.511-1.706 0-2.5.794-2.5 2.5 0 1.33.49 2.099 1.512 2.376-.243 1.599-.512 3.876-.512 6.127 0 2.264.273 4.551.511 6.121-1.021.277-1.511 1.046-1.511 2.376 0 1.706.794 2.5 2.5 2.5 1.525 0 2.317-.64 2.468-1.993 1.579.235 3.815.493 6.032.493s4.454-.259 6.032-.493c.152 1.353.943 1.993 2.468 1.993 1.706 0 2.5-.794 2.5-2.5 0-1.33-.49-2.099-1.511-2.376zm-.989-16.124c1.149 0 1.5.351 1.5 1.5s-.351 1.5-1.5 1.5-1.5-.351-1.5-1.5.351-1.5 1.5-1.5zm-18.5 1.5c0-1.149.351-1.5 1.5-1.5s1.5.351 1.5 1.5-.351 1.5-1.5 1.5-1.5-.351-1.5-1.5zm1.5 18.5c-1.149 0-1.5-.351-1.5-1.5s.351-1.5 1.5-1.5 1.5.351 1.5 1.5-.351 1.5-1.5 1.5zm2.468-2.004c-.151-1.353-.941-1.994-2.465-1.995-.234-1.535-.504-3.783-.504-5.997 0-2.202.267-4.439.505-6.004 1.701-.002 2.494-.795 2.495-2.496 1.533-.234 3.779-.503 5.997-.503s4.441.266 6.003.505c.002 1.701.795 2.494 2.497 2.495.234 1.532.503 3.777.503 5.997 0 2.207-.266 4.441-.504 6.003-1.523.001-2.313.642-2.464 1.995-1.549.235-3.805.504-6.032.504s-4.482-.269-6.032-.504zm14.532 2.004c-1.149 0-1.5-.351-1.5-1.5s.351-1.5 1.5-1.5 1.5.351 1.5 1.5-.351 1.5-1.5 1.5z"/></svg>