<?xml version="1.0" encoding="UTF-8"?>
<svg xmlns="http://www.w3.org/2000/svg" id="Layer_1" data-name="Layer 1" viewBox="0 0 24 24">
  <path d="M22.812,1.146c-.195-.194-.511-.195-.708,0l-5.798,5.813c-1.598-1.493-3.521-2.653-5.663-3.366-.179-.059-.378-.012-.511,.122L3.479,10.385c-1.946,1.951-2.803,4.735-2.293,7.447l.436,2.313c.218,1.161,1.108,2.054,2.268,2.273l2.308,.437c.515,.098,1.031,.146,1.545,.146,2.187,0,4.308-.865,5.884-2.445l6.652-6.669c.133-.134,.18-.329,.122-.508-.7-2.151-1.867-4.095-3.387-5.713L22.812,1.853c.194-.195,.194-.512,0-.707ZM6.383,21.873l-2.308-.437c-.752-.143-1.33-.722-1.472-1.477l-.436-2.313c-.338-1.796,.006-3.628,.927-5.157l.953,.956c.968,.97,2.245,1.504,3.598,1.505h0c.59,0,1.166-.102,1.709-.297-.625,1.805-.219,3.892,1.217,5.332l.955,.957c-1.525,.925-3.352,1.271-5.144,.93Zm6.536-2.024c-.18,.18-.368,.35-.563,.509l-1.076-1.079c-1.612-1.616-1.613-4.247,0-5.862l1.808-1.813c.195-.195,.194-.512,0-.707-.195-.194-.512-.194-.707,0l-1.808,1.813c-.006,.006-.012,.013-.019,.019-.002,.002-.004,.003-.006,.005-.783,.784-1.812,1.216-2.901,1.216h0c-1.084,0-2.111-.431-2.89-1.211l-1.078-1.081c.159-.196,.328-.386,.509-.567l6.433-6.449c4.071,1.43,7.307,4.676,8.732,8.757l-6.433,6.449Z"/>
</svg>
