<svg id="Layer_1" viewBox="0 0 24 24" xmlns="http://www.w3.org/2000/svg" data-name="Layer 1"><path d="m12 13c4.206 0 6-1.794 6-6s-1.794-6-6-6-6 1.794-6 6 1.794 6 6 6zm0-11c3.644 0 5 1.355 5 5s-1.355 5-5 5-5-1.355-5-5 1.355-5 5-5zm8.994 20.488c.006.276-.212.505-.488.512-.275.006-.505-.212-.512-.488-.126-5.406-2.367-7.512-7.994-7.512s-7.868 2.106-7.994 7.512c-.007.276-.24.498-.512.488-.276-.006-.494-.235-.488-.512.139-5.95 2.828-8.488 8.994-8.488s8.855 2.539 8.994 8.488zm-8.994-5.488c-3.855 0-5.5 1.645-5.5 5.5 0 .276.224.5.5.5s.5-.224.5-.5c0-1.474.264-2.513.833-3.231.524.989 1.223 1.731 1.842 2.236-.112.276-.175.602-.175.995 0 .276.224.5.5.5s.5-.224.5-.5c0-.794.206-1 1-1s1 .206 1 1c0 .276.224.5.5.5s.5-.224.5-.5c0-.392-.062-.718-.174-.994.611-.5 1.316-1.243 1.842-2.236.568.718.832 1.757.832 3.23 0 .276.224.5.5.5s.5-.224.5-.5c0-3.855-1.645-5.5-5.5-5.5zm1.169 3.753c-.305-.167-.691-.253-1.169-.253s-.863.087-1.168.253c-.589-.477-1.272-1.197-1.731-2.169.698-.402 1.646-.584 2.898-.584s2.2.182 2.899.584c-.46.976-1.149 1.698-1.729 2.169z"/></svg>