<svg id="Layer_1" viewBox="0 0 24 24" xmlns="http://www.w3.org/2000/svg" data-name="Layer 1"><path d="m13.012 6.522c-.008-.168-.012-.342-.012-.522 0-3.505 1.495-5 5-5s5 1.495 5 5-1.495 5-5 5c-.18 0-.354-.004-.522-.012-.276-.013-.49-.247-.477-.522.013-.276.274-.485.522-.477.154.007.313.011.478.011 2.953 0 4-1.047 4-4s-1.047-4-4-4-4 1.047-4 4c0 .165.004.323.011.478.013.275-.201.509-.477.522-.261.022-.51-.201-.522-.477zm-7.012 4.478c.18 0 .354-.004.522-.012.276-.013.49-.247.477-.522-.013-.277-.272-.488-.522-.477-.154.007-.313.011-.478.011-2.953 0-4-1.047-4-4s1.048-4 4.001-4 4 1.047 4 4c0 .165-.004.323-.011.478-.013.275.201.509.477.522.263.025.51-.201.522-.477.008-.168.012-.342.012-.522 0-3.505-1.495-5-5-5s-5 1.494-5 4.999 1.495 5 5 5zm4.466 6c-.276.013-.49.247-.477.522.007.154.011.313.011.478 0 2.953-1.047 4-4 4s-4-1.047-4-4 1.047-4 4-4c.165 0 .323.004.478.011.252.021.509-.201.522-.477.013-.275-.201-.509-.477-.522-.168-.008-.342-.012-.522-.012-3.505 0-5 1.495-5 5s1.495 5 5 5 5-1.495 5-5c0-.18-.004-.354-.012-.522-.012-.276-.262-.492-.522-.477zm7.534-4c-.18 0-.354.004-.522.012-.276.013-.49.247-.477.522.013.276.271.495.522.477.154-.007.313-.011.478-.011 2.953 0 4 1.047 4 4s-1.047 4-4 4-4-1.047-4-4c0-.165.004-.323.011-.478.013-.275-.201-.509-.477-.522-.258-.012-.51.201-.522.477-.008.168-.012.342-.012.522 0 3.505 1.495 5 5 5s5-1.495 5-5-1.495-5-5-5zm-2.084 3.623c-2.159-2.159-5.672-2.159-7.831 0l-2.231 2.231c-.195.195-.512.195-.707 0s-.195-.512 0-.707l2.231-2.231c2.159-2.159 2.159-5.672 0-7.831l-2.231-2.231c-.195-.195-.195-.512 0-.707s.512-.195.707 0l2.231 2.231c2.159 2.159 5.672 2.159 7.831 0l2.231-2.231c.195-.195.512-.195.707 0s.195.512 0 .707l-2.231 2.231c-2.159 2.159-2.159 5.672 0 7.831l2.231 2.231c.195.195.195.512 0 .707s-.512.195-.707 0zm-1.416-2.123c-.659-1.597-.659-3.402 0-4.999-.798.329-1.649.496-2.5.496s-1.701-.166-2.5-.496c.659 1.597.658 3.402 0 4.999 1.597-.659 3.402-.659 4.999 0z"/></svg>