<svg id="Layer_1" viewBox="0 0 24 24" xmlns="http://www.w3.org/2000/svg" data-name="Layer 1"><path d="m22.5 4h-1.51c.004-.167.01-.332.01-.5 0-.276-.224-.5-.5-.5s-.5.224-.5.5c0 .168-.006.334-.01.5h-1.49c-.276 0-.5.224-.5.5s.224.5.5.5h1.443c-.107 1.501-.344 2.834-.521 3.677-1.526-.799-3.983-1.677-7.422-1.677s-5.905.881-7.423 1.674c-.177-.843-.413-2.174-.52-3.674h1.443c.276 0 .5-.224.5-.5s-.224-.5-.5-.5h-1.49c-.004-.166-.01-.332-.01-.5 0-.276-.224-.5-.5-.5s-.5.224-.5.5c0 .168.006.333.01.5h-1.51c-.276 0-.5.224-.5.5s.224.5.5.5h1.556c.14 1.786.376 3.264.626 4.194-.614.396-.931.695-.957.721-.074.057-.725.595-.725 2.085s.651 2.029.681 2.048c.073.07 1.136 1.06 3.226 1.874-.466.572-1.493 2.058-1.9 4.496-.045.272.139.53.411.575.266.046.531-.137.575-.411.532-2.93 1.798-4.116 1.916-4.312 1.361.419 3.05.73 5.091.73s3.73-.312 5.091-.731c.123.202 1.38 1.378 1.916 4.313.044.274.309.457.575.411.272-.045.457-.303.411-.575-.406-2.436-1.432-3.922-1.899-4.495 2.014-.785 3.072-1.732 3.212-1.864.15-.131.693-.698.693-2.06 0-1.49-.651-2.029-.681-2.048-.04-.038-.372-.349-1.002-.756.252-.931.487-2.409.627-4.196h1.556c.276 0 .5-.224.5-.5s-.224-.5-.5-.5zm-7.5 4.259v1.741c0 1.654-1.346 3-3 3s-3-1.346-3-3v-1.741c.894-.159 1.892-.259 3-.259s2.106.1 3 .259zm6 3.741c0 .944-.322 1.278-.346 1.302-.009.008-.019.016-.027.024-.028.026-2.88 2.674-8.627 2.674s-8.599-2.647-8.653-2.697c-.004-.003-.347-.328-.347-1.303s.343-1.3.373-1.326c.021-.019 1.559-1.437 4.627-2.2v1.526c0 2.206 1.794 4 4 4s4-1.794 4-4v-1.525c3.07.763 4.613 2.186 4.653 2.223.004.003.347.328.347 1.303z"/></svg>