<svg id="Layer_1" viewBox="0 0 24 24" xmlns="http://www.w3.org/2000/svg" data-name="Layer 1"><path d="m22.5 4h-1.507c.004-.166.007-.332.007-.5 0-.276-.224-.5-.5-.5s-.5.224-.5.5c0 .168-.008.333-.012.5h-1.488c-.276 0-.5.224-.5.5s.224.5.5.5h1.44c-.141 1.958-.504 3.659-.656 4.3-.38.101-1.201.286-2.405.44-.134-1.063-.332-1.868-.345-1.918-.042-.165-.165-.299-.328-.352-.058-.02-1.457-.47-4.206-.47s-4.148.45-4.206.47c-.163.053-.286.187-.328.352-.013.05-.211.855-.345 1.918-1.204-.154-2.024-.339-2.405-.44-.152-.641-.515-2.342-.656-4.3h1.44c.276 0 .5-.224.5-.5s-.224-.5-.5-.5h-1.488c-.004-.167-.012-.332-.012-.5 0-.276-.224-.5-.5-.5s-.5.224-.5.5c0 .168.003.334.007.5h-1.507c-.276 0-.5.224-.5.5s.224.5.5.5h1.554c.176 2.596.734 4.724.762 4.829.044.162.166.292.325.346.043.014 1.008.326 2.884.563-.015.251-.026.505-.026.762 0 1.501.301 3.128.416 3.696-1.414.142-2.015.312-2.057.325-.081.023-.153.066-.213.126-.065.065-1.619 1.649-2.14 4.771-.046.272.139.53.411.575.266.046.531-.137.575-.411.396-2.379 1.464-3.77 1.775-4.133.474-.107 2.302-.449 6.231-.449s5.758.342 6.231.449c.312.363 1.379 1.754 1.775 4.133.044.275.31.457.575.411.272-.045.457-.303.411-.575-.521-3.122-2.074-4.706-2.14-4.771-.06-.06-.132-.103-.213-.126-.042-.012-.643-.182-2.057-.325.115-.568.416-2.195.416-3.696 0-.257-.01-.511-.026-.762 1.876-.237 2.841-.549 2.884-.563.159-.054.281-.184.325-.346.028-.105.586-2.233.762-4.829h1.554c.276 0 .5-.224.5-.5s-.224-.5-.5-.5zm-14.132 10.852c-.124-.645-.368-2.075-.368-3.352 0-1.285.249-2.591.37-3.15.503-.119 1.72-.35 3.63-.35s3.127.23 3.63.35c.121.56.37 1.865.37 3.15 0 1.274-.244 2.707-.368 3.352-.555.055-1.771.148-3.632.148s-3.077-.094-3.632-.148z"/></svg>