<svg id="Layer_1" viewBox="0 0 24 24" xmlns="http://www.w3.org/2000/svg" data-name="Layer 1"><path d="m21.797 5.68c-.177-.212-.493-.24-.704-.064-.213.176-.241.492-.065.704.654.787.973 1.827.973 3.18 0 3.301-1.7 5.5-10 5.5s-10.001-2.199-10.001-5.5 1.701-5.5 10-5.5c1.52 0 2.808.069 3.937.212.271.03.523-.159.559-.434.034-.274-.159-.524-.434-.559-1.172-.148-2.501-.22-4.062-.22-7.813.001-11 1.884-11 6.501v7.225c0 4.457 3.187 6.275 11 6.275s11-1.818 11-6.275v-7.225c0-1.597-.394-2.846-1.203-3.82zm-10.297 16.312c-1.569-.017-2.891-.115-4-.284v-5.998c1.16.173 2.489.266 4 .283v6zm1-6c1.511-.017 2.84-.109 4-.282v5.998c-1.109.169-2.431.266-4 .284zm-10.5.733v-3.645c.871 1.202 2.346 1.997 4.5 2.451v5.993c-3.601-.79-4.5-2.517-4.5-4.799zm20 0c0 2.282-.898 4.01-4.5 4.799v-5.993c2.154-.454 3.629-1.249 4.5-2.451zm-9.834-6.597 9.999-9c.205-.185.521-.169.707.037.185.205.168.521-.037.706l-10.001 9.001c-.205.184-.521.169-.706-.037-.185-.205-.168-.521.037-.706z"/></svg>