<svg id="Layer_1" viewBox="0 0 24 24" xmlns="http://www.w3.org/2000/svg" data-name="Layer 1"><path d="m19.837 2.38c-.05-.139-.159-.248-.297-.299-.119-.044-2.97-1.081-7.541-1.081s-7.421 1.037-7.541 1.081c-.138.051-.247.161-.297.299-.047.132-1.163 3.305-1.163 9.62s1.115 9.487 1.163 9.62c.05.139.159.248.297.299.119.044 2.97 1.081 7.541 1.081s7.421-1.037 7.541-1.081c.138-.051.247-.161.297-.299.047-.132 1.163-3.305 1.163-9.62s-1.115-9.487-1.163-9.62zm-.87 18.676c-.748.236-3.3.944-6.967.944s-6.22-.708-6.967-.944c-.245-.818-1.033-3.861-1.033-9.056s.788-8.238 1.033-9.056c.748-.236 3.3-.944 6.967-.944s6.22.708 6.967.944c.245.818 1.033 3.861 1.033 9.056s-.788 8.238-1.033 9.056zm-6.967-12.056c-3.505 0-5 1.495-5 5s1.495 5 5 5 5-1.495 5-5-1.495-5-5-5zm0 9c-2.772 0-3.852-.944-3.975-3.5h1.475c.276 0 .5-.224.5-.5s-.224-.5-.5-.5h-1.475c.124-2.556 1.203-3.5 3.975-3.5 2.953 0 4 1.047 4 4s-1.047 4-4 4zm-4.75-13c0-.414.336-.75.75-.75s.75.336.75.75-.336.75-.75.75-.75-.336-.75-.75zm3 0c0-.414.336-.75.75-.75s.75.336.75.75-.336.75-.75.75-.75-.336-.75-.75z"/></svg>