<svg id="Layer_1" viewBox="0 0 24 24" xmlns="http://www.w3.org/2000/svg" data-name="Layer 1"><path d="m22.718 2.623c-.028-.182-.154-.333-.328-.395-.143-.05-3.567-1.229-10.39-1.229s-10.247 1.179-10.39 1.23c-.174.061-.3.213-.328.395-.02.128-.485 3.194-.179 8.081.288 4.614 1.292 7.699 1.335 7.828.042.127.133.232.253.292.038.019.434.206 1.309.425v1.252c0 1.378 1.122 2.5 2.5 2.5s2.5-1.122 2.5-2.5v-.583c.89.051 1.879.083 3 .083s2.11-.032 3-.083v.583c0 1.378 1.121 2.5 2.5 2.5s2.5-1.122 2.5-2.5v-1.252c.875-.219 1.272-.406 1.31-.425.12-.06.211-.165.253-.292.043-.129 1.046-3.214 1.335-7.828.306-4.887-.16-7.953-.18-8.081zm-.723 4.351c-.587.155-1.925.463-3.995.702v-5.313c1.963.253 3.241.569 3.77.721.07.575.204 1.944.225 3.89zm-14.995.805v-5.533c1.264-.13 2.768-.221 4.5-.237v5.986c-1.725-.014-3.225-.098-4.5-.216zm5.5-5.77c1.732.016 3.236.107 4.5.237v5.533c-1.275.118-2.775.202-4.5.216zm-6.5.354v5.313c-2.069-.239-3.407-.547-3.994-.702.021-1.946.155-3.315.224-3.89.528-.152 1.807-.468 3.77-.721zm2 18.137c0 .827-.673 1.5-1.5 1.5s-1.5-.673-1.5-1.5v-1.036c.77.145 1.759.284 3 .385zm11 0c0 .827-.673 1.5-1.5 1.5s-1.5-.673-1.5-1.5v-.651c1.241-.101 2.23-.24 3-.385zm1.68-2.499c-.666.245-3.16.999-8.68.999s-8.017-.754-8.679-.998c-.229-.774-.983-3.561-1.22-7.36-.06-.95-.088-1.83-.096-2.634 1.321.331 4.629.992 9.995.992s8.675-.662 9.996-.992c-.009.804-.037 1.684-.096 2.634-.237 3.799-.991 6.585-1.22 7.36z"/></svg>