<svg id="Layer_1" viewBox="0 0 24 24" xmlns="http://www.w3.org/2000/svg" data-name="Layer 1"><path d="m21.995 8.008c-.009.804-.037 1.684-.096 2.634-.018.277-.037.55-.06.816-.023.274.181.517.456.54.278.013.517-.182.541-.456.023-.272.044-.553.062-.838.306-4.888-.159-7.953-.179-8.081-.028-.182-.154-.333-.328-.395-.143-.05-3.567-1.229-10.39-1.229s-10.248 1.18-10.391 1.23c-.174.062-.3.213-.328.395-.02.128-.485 3.193-.179 8.081.288 4.613 1.292 7.698 1.335 7.827.042.128.133.232.252.292.036.018.429.205 1.31.425v1.251c0 1.379 1.122 2.5 2.5 2.5s2.5-1.121 2.5-2.5v-.583c.468.027.956.049 1.487.063h.014c.27 0 .492-.216.5-.487.007-.275-.211-.505-.487-.513-4.491-.117-6.593-.758-7.192-.979-.229-.774-.983-3.561-1.22-7.36-.06-.95-.088-1.829-.096-2.634 1.321.331 4.629.992 9.995.992s8.675-.661 9.995-.992zm-13.995 12.492c0 .827-.673 1.5-1.5 1.5s-1.5-.673-1.5-1.5v-1.034c.769.144 1.763.283 3 .383zm4.5-18.491c1.732.016 3.236.107 4.5.237v5.533c-1.275.118-2.775.202-4.5.216zm-1 5.986c-1.725-.014-3.225-.098-4.5-.216v-5.533c1.264-.13 2.768-.221 4.5-.237zm10.494-1.022c-.587.156-1.925.464-3.994.703v-5.314c1.963.253 3.242.569 3.77.721.069.575.203 1.944.224 3.89zm-15.994-4.611v5.313c-2.069-.239-3.407-.547-3.994-.703.021-1.946.155-3.315.224-3.89.528-.152 1.807-.468 3.77-.721zm13.314 9.724c-.578-.348-.976-.537-1.217-.578-.118-.023-.237 0-.34.062-1.206.713-1.592 1.882-1.704 3.002l-.69-.481c-.208-.145-.49-.111-.659.077-.856.961-1.692 2.081-1.692 4.267 0 2.371 2.326 4.505 4.977 4.566h.023c2.635-.06 5.035-2.249 5.035-4.595 0-2.702-1.255-4.828-3.732-6.319zm-.695 9.567c-.228.229-.44.345-.634.345-.193 0-.407-.116-.635-.345-.313-.313-.35-.513-.35-.636 0-.573.611-1.201.981-1.492.394.312.988.928.988 1.492 0 .133-.04.325-.35.636zm1.274-.182c.046-.148.077-.298.077-.453 0-1.194-1.208-2.158-1.457-2.344-.315-.229-.755-.228-1.069.004-.241.18-1.443 1.134-1.443 2.34 0 .15.029.295.072.439-1.196-.651-2.06-1.804-2.06-3.023 0-1.606.498-2.481 1.149-3.266l1.065.742c.153.106.352.12.518.033.165-.086.269-.257.269-.443 0-1.083.132-2.267 1.068-2.947.132.059.357.173.719.391 2.185 1.315 3.247 3.103 3.247 5.462 0 1.223-.917 2.407-2.153 3.065z"/></svg>