<svg id="Layer_1" viewBox="0 0 24 24" xmlns="http://www.w3.org/2000/svg" data-name="Layer 1"><path d="m12 1c-7.607 0-11 4.164-11 13.5 0 2.359.22 6.494.633 8.123.056.222.256.377.484.377h3.883c.276 0 .5-.224.5-.5v-8c0-7.171 3.139-8 5.5-8s5.5.829 5.5 8v8c0 .276.224.5.5.5h3.88c.229 0 .428-.155.484-.376.415-1.629.636-5.765.636-8.124 0-9.336-3.393-13.5-11-13.5zm7.673 4.023c.962 1.258 1.689 3.021 2.057 5.477h-3.64c-.251-1.041-.618-1.918-1.102-2.631zm-1.386 6.477h3.569c.094.912.144 1.909.144 3 0 .571-.014 1.262-.041 2h-3.459v-2c0-1.103-.071-2.102-.213-3zm-16.287 3c0-1.091.05-2.088.144-3h3.569c-.142.898-.213 1.897-.213 3v2h-3.459c-.027-.738-.041-1.429-.041-2zm3.91-4h-3.64c.366-2.44 1.085-4.196 2.038-5.452l2.703 2.823c-.484.713-.85 1.589-1.101 2.63zm-3.391 11.5c-.203-1.055-.35-2.814-.435-4.5h3.416v4.5h-2.98zm5.13-14.909-2.682-2.8c1.776-1.772 4.147-2.233 6.532-2.285v3.508c-1.612.088-2.893.61-3.851 1.577zm4.851-1.577v-3.509c2.376.052 4.736.51 6.51 2.263l-2.661 2.82c-.958-.966-2.239-1.487-3.849-1.575zm8.979 16.486h-2.979v-4.5h3.415c-.085 1.687-.233 3.445-.437 4.5z"/><path d="m12 8c-2.804 0-4 1.645-4 5.5v9c0 .276.224.5.5.5h7c.276 0 .5-.224.5-.5v-9c0-3.855-1.196-5.5-4-5.5zm1 1.092v12.908h-2v-12.908c.321-.074.659-.092 1-.092s.679.018 1 .092zm-4 4.408c0-2.16.401-3.29 1-3.878v12.378h-1zm6 8.5h-1v-12.378c.599.587 1 1.718 1 3.878z"/></svg>