<svg id="Layer_1" viewBox="0 0 24 24" xmlns="http://www.w3.org/2000/svg" data-name="Layer 1"><path d="m21.981 12.133c-.349-.349-.687-.603-1.024-.77-.147-1.281-.786-2.012-1.957-2.26v-1.104c0-4.907-2.093-7-7-7s-7 2.093-7 7v1.104c-1.171.248-1.81.979-1.957 2.26-.338.167-.676.421-1.024.77-1.338 1.339-1.351 2.587-.039 3.924-1.312 1.337-1.3 2.585.039 3.924.354.354.696.61 1.039.777.217 1.527 1.16 2.241 2.943 2.241 2.654 0 4-2.355 4-7s-1.346-7-4-7v-1c0-4.374 1.626-6 6-6s6 1.626 6 6v1c-2.654 0-4 2.355-4 7s1.346 7 4 7c1.783 0 2.726-.714 2.943-2.241.343-.167.685-.424 1.039-.777 1.338-1.339 1.351-2.587.039-3.924 1.312-1.337 1.3-2.585-.039-3.924zm-12.981 3.867c0 3.981-1.009 6-3 6-1.388 0-1.888-.41-1.979-1.626-.015-.201-.149-.373-.34-.438-.296-.099-.608-.315-.956-.662-.964-.965-.964-1.584 0-2.55.107-.107.211-.196.314-.28.241-.19.241-.584 0-.773-.103-.084-.207-.173-.315-.281-.964-.965-.964-1.584 0-2.549.345-.345.656-.561.95-.66.194-.065.329-.243.34-.448.066-1.296.567-1.733 1.984-1.733 1.991 0 3 2.019 3 6zm12.274 3.274c-.347.347-.66.563-.956.662-.191.064-.325.236-.34.438-.091 1.216-.591 1.626-1.979 1.626-1.991 0-3-2.019-3-6s1.009-6 3-6c1.417 0 1.918.437 1.984 1.733.011.205.146.382.34.448.294.099.604.315.95.66.964.965.964 1.584 0 2.55-.107.107-.211.196-.314.28-.241.19-.241.584 0 .773.103.084.207.173.315.281.964.965.964 1.584 0 2.549z"/></svg>