<svg id="Layer_1" viewBox="0 0 24 24" xmlns="http://www.w3.org/2000/svg" data-name="Layer 1"><path d="m7.512 10c-.277.006-.519-.246-.499-.524.148-3.083 1.687-4.458 4.987-4.458 3.505 0 5 1.495 5 5 0 2.362-.9 3.778-2.835 4.455-.254.09-.546-.044-.637-.307-.092-.261.046-.546.307-.637 1.518-.531 2.165-1.581 2.165-3.51 0-2.953-1.047-4-4-4-2.608 0-3.722.834-3.954 3.041 1.188.264 1.954 1.386 1.954 2.442 0 .276-.224.5-.5.5s-.5-.224-.5-.5c0-.725-.598-1.5-1.488-1.5zm4.488-9c-6.393 0-9 2.462-9 8.5 0 .276.224.5.5.5s.5-.224.5-.5c0-5.467 2.168-7.5 8-7.5 5.757 0 8 2.243 8 8 0 3.84-1.507 5.254-3.251 6.892-.919.802-1.887 1.921-2.48 2.852-.907 1.31-1.562 2.256-3.318 2.256-.82 0-1.562-.301-2.091-.847-.19-.199-.507-.203-.707-.012-.198.191-.204.508-.012.707.707.733 1.731 1.153 2.81 1.153 2.28 0 3.184-1.305 4.141-2.688.598-.935 1.464-1.92 2.343-2.691 1.834-1.722 3.566-3.348 3.566-7.621 0-6.309-2.691-9-9-9z"/></svg>