<svg id="Layer_1" viewBox="0 0 24 24" xmlns="http://www.w3.org/2000/svg" data-name="Layer 1"><path d="m12 1c-7.813 0-11 3.187-11 11s3.187 11 11 11 11-3.187 11-11-3.187-11-11-11zm9.158 5.572c-.224.254-.437.493-.438.509-1.291 1.198-2.411 1.966-3.336 1.919l-2.585.007c.128-.25.201-.534.201-.834v-.83c0-.489-.19-.948-.535-1.292l-.802-.803c-.587-.585-1.51-.708-2.154-.315 0 0-.72.35-1.546.763-.373.187-.745.259-.963.287v-.616c0-.521-.22-1.013-.584-1.331l-1.398-1.351c1.351-.462 2.993-.685 4.982-.685 4.987 0 7.861 1.35 9.158 4.572zm-5.372 5.127c.138.139.214.323.214.518v.86c0 .333-.141 1.146-1.08 2.85-.93 1.683-1.562 2.019-1.807 2.083-.003 0-.007 0-.01-.001-.117-.12-.382-.504-.549-1.117-.227-.833-.445-1.577-.445-1.577-.192-.773-.884-1.314-1.683-1.314h-1.427c-.552 0-1-.449-1-1v-.539c0-.476.162-.921.954-1.549.691-.547 1.355-.912 2.354-.912.696-.002 2.122.019 2.829.008.202.218.555.597.656.699l.993.992zm-3.786 10.301c-7.196 0-10-2.804-10-10 0-4.684 1.198-7.497 4.012-8.897l1.728 1.669c.163.143.261.365.261.595v.826c0 .445.362.808.808.808.008 0 .791-.005 1.603-.41.82-.41 1.535-.757 1.577-.78.29-.178.708-.113.97.146l.801.802c.156.156.242.363.242.584v.83c0 .456-.371.827-.827.827h-1.865c-1.366 0-2.271.57-2.975 1.128-.935.741-1.333 1.439-1.333 2.333v.539c0 1.103.897 2 2 2h1.427c.338 0 .631.229.718.576 0 .001.219.744.445 1.578.238.837.777 1.959 1.581 1.861.855-.104 1.714-.956 2.624-2.604.8-1.449 1.205-2.57 1.205-3.333v-.86c0-.462-.18-.897-.507-1.225l-.988-.988 1.88-.005c1.187 0 2.384-.644 3.878-2.086.051-.041.127-.113.252-.245.326 1.221.485 2.652.485 4.331 0 7.196-2.804 10-10 10z"/></svg>