<svg id="Layer_1" viewBox="0 0 24 24" xmlns="http://www.w3.org/2000/svg" data-name="Layer 1"><path d="m12 1c-7.813 0-11 3.187-11 11s3.187 11 11 11 11-3.187 11-11-3.187-11-11-11zm1 20.974v-1.779c0-.866-.594-1.621-1.446-1.835l-.876-.218c-.221-.053-.495-.119-1.108-.841-.594-.699-.583-1.343-.583-1.383 0-.278.125-.537.342-.71l1.26-1.008c.16-.128.362-.199.568-.199h.65c.703 0 1.359.495 1.997.976.314.238.611.462.918.625.757.402 1.841.502 2.374.388l.914.948c.331.331.769.544 1.212.597l1.756.288c-1.272 2.72-3.807 3.984-7.978 4.153zm8.354-5.104-1.991-.326c-.244-.029-.473-.14-.646-.313l-.909-.909c-.316-.361-.866-.305-1.302-.296-.354-.008-.866-.069-1.314-.308-.237-.125-.503-.327-.788-.542-.694-.523-1.559-1.175-2.596-1.175h-.65c-.432 0-.855.148-1.193.418l-1.26 1.008c-.456.364-.717.907-.717 1.478-.004.174.013 1.093.82 2.044.761.896 1.226 1.067 1.633 1.165l.871.217c.405.102.688.458.688.865v1.804c-7.196 0-10-2.804-10-10 0-6.787 2.498-9.664 8.818-9.97-.03.12-.06.24-.086.35-.176.631-.456 1.75-.35 2.162.096.396.618.488.887.479.176 0 .37-.024.577-.073.756-.176 1.58-.334 1.602-.342.172 0 .571.043.571.441 0 .436-.408.585-.494.616l-2.149.93c-.937.426-1.514 1.093-1.992 2.304-.508 1.291-.435 1.831-.168 2.245.136.162.731.781 1.333.856.316-.021.546-.088.737-.381l.834-1.116c.076-.125.231-.271.418-.271.416.037.62.496.909.707.102.142.359.385.738.4.318-.021.478-.197.545-.3.2-.307.071-.658.001-.847-.051-.174-.199-.335-.116-.595.06-.139.29-.25.524-.307l.473-.16c.25-.084.453-.261.57-.496l.583-1.166c.144-.289.434-.468.757-.468h.631c.467 0 .846.379.846.846v.308c0 .467-.379.846-.846.846h-1.263c-.491 0-.891.4-.883.98.065.359.58.91 1.3 1.174.695.254 1.523.332 1.692.346.173.03.5.173.5.5 0 .353-.414.531-.456.549l-.659.318c-.241.117-.493.39-.412.677.141.591 1.416 1.389 2.615 1.917.402.153.968.387 1.033.431-.077.342-.166.668-.267.978zm-.243-2.278c-.845-.34-1.575-.809-1.863-1.031l.208-.101c.482-.202 1.045-.706 1.045-1.46 0-.863-.689-1.375-1.428-1.497-.083-.007-.834-.073-1.419-.288-.165-.061-.299-.139-.404-.215h.906c1.018 0 1.846-.828 1.846-1.846v-.308c0-1.018-.828-1.846-1.846-1.846h-.631c-.704 0-1.336.391-1.651 1.021l-.578 1.161-.428.147c-.266.062-.911.272-1.169.874-.067.158-.099.313-.105.462-.277-.274-.658-.434-1.052-.434-.603 0-1.053.389-1.246.712l-.763 1.019c-.118-.075-.308-.218-.491-.396-.101-.241.091-.834.276-1.302.436-1.106.888-1.493 1.467-1.756l2.101-.911c.565-.19 1.136-.742 1.136-1.549 0-.833-.658-1.438-1.63-1.438-.101-.01-1.265.269-2.004.406.032-.328.316-1.409.475-2.012.048 0 .092-.004.14-.004 7.196 0 10 2.804 10 10 0 1.053-.068 2.001-.193 2.872-.199-.087-.431-.177-.696-.279zm-13.19-7.386s-.18.603-.487 1.191c-.368.887-1.562.706-1.845-.074-.075-.24-.042-.495.089-.704l.767-1.225c.22-.351.657-.49 1.038-.329.441.184.634.685.438 1.141z"/></svg>