<svg id="Layer_1" viewBox="0 0 24 24" xmlns="http://www.w3.org/2000/svg" data-name="Layer 1"><path d="m13.056 1.028c-.35-.036-.692-.009-1.056-.028-7.813 0-11 3.187-11 11s3.187 11 11 11 11-3.187 11-11c0-7.448-2.906-10.684-9.944-10.972zm8.944 10.972c0 .108-.007.205-.008.311-.909-.423-1.997-1.01-2.023-1.024-.018-.009-.439-.232-.788-1.593-.265-1.035-.102-1.255-.097-1.262.013-.006 1.26-.596 2.369-1.017.373 1.272.547 2.792.547 4.585zm-10.223-9.994c-.418.468-1.303 1.406-1.322 1.487-.395.61-.406 1.375-.031 1.998l.732 1.223-.699-.35c-.695-.349-1.53-.212-2.075.337l-.529.529c-.479.479-.631 1.163-.455 1.771h-1.78c-.179-.025-.903-.386-1.879-1.684l-.808-.949c1.314-3.025 4.108-4.322 8.846-4.362zm.223 19.994c-7.196 0-10-2.804-10-10 0-1.778.173-3.285.539-4.551l.419.491c1.141 1.52 2.135 2.06 2.639 2.06h1.949c.286 0 .566.116.769.319l.372.373c.199.198.309.463.309.745v.963c0 .387.15.751.425 1.026l1.189 1.189c.249.249.386.58.386.951.003.062.061 1.53.174 2.223.121.748.554 1.212 1.129 1.212.369 0 .713-.204 1.071-.647 1.102-1.555 1.566-2.596 2.154-4.82.199-.638.037-1.199-.471-1.622-.011-.009-.021-.017-.032-.025-.205-.155-.752-.558-1.391-.963-.72-.456-1.586-.923-2.558-.923h-1.091c-.309 0-.611-.125-.83-.343l-.592-.593c-.311-.311-.311-.817 0-1.128l.53-.53c.242-.243.613-.303.92-.148l.878.439c.361.184.798.113 1.087-.175.306-.307.365-.78.144-1.15l-.837-1.396c-.177-.293-.172-.653.009-.933.316-.388 1.396-1.533 1.81-2.014 4.263.191 6.806 1.535 8.02 4.443-1.149.435-2.459 1.053-2.507 1.079-.61.354-.734 1.091-.401 2.392.385 1.504.926 2.049 1.296 2.232.065.035 1.459.788 2.451 1.218-.359 6.166-3.248 8.608-9.959 8.608zm-2.051-11c.051.001 1.076 0 1.123 0 .716 0 1.424.388 2.022.768.674.427 1.235.85 1.324.917 0 0 .002 0 .002.001.188.16.226.3.142.569-.564 2.134-.978 3.063-1.99 4.494-.171.21-.268.249-.268.254-.034-.023-.114-.159-.149-.375-.103-.632-.16-2.082-.16-2.082 0-.618-.241-1.2-.679-1.638l-1.188-1.188c-.087-.087-.133-.197-.133-.319v-.963c0-.148-.016-.295-.046-.437z"/></svg>