<?xml version="1.0" encoding="UTF-8"?>
<svg xmlns="http://www.w3.org/2000/svg" id="Layer_1" data-name="Layer 1" viewBox="0 0 24 24">
  <path d="M15.264,11.951c-.116-.101-.273-.143-.423-.113-.212,.041-.457,.061-.746,.061-1.262,0-1.992-.327-1.992-1.999,0-.28,.022-.53,.065-.746,.03-.151-.011-.307-.111-.424-.101-.117-.247-.184-.403-.174-2.084,.098-3.098,1.224-3.098,3.443,0,3.093,1.965,3.451,3.444,3.451,1.406,0,3.292-.321,3.435-3.097,.008-.154-.056-.302-.171-.403Zm-3.264,2.5c-1.509,0-2.444-.41-2.444-2.451,0-1.629,.601-2.202,1.553-2.38-.004,.091-.006,.184-.006,.28,0,2.885,1.979,3.044,3.267,2.993-.214,1.125-.907,1.559-2.369,1.559Z"/>
  <path d="M22.474,11.5h-2.895c-.071-2.277-.634-3.836-1.487-4.9l1.668-1.672c.195-.195,.195-.512,0-.707-.195-.194-.512-.195-.707,0l-1.659,1.663c-1.355-1.135-3.16-1.439-4.893-1.484V1.5c0-.276-.224-.5-.5-.5s-.5,.224-.5,.5v2.902c-1.733,.045-3.538,.348-4.893,1.484l-1.659-1.663c-.195-.196-.511-.195-.707,0-.196,.195-.196,.512,0,.707l1.668,1.672c-.853,1.063-1.415,2.623-1.487,4.9H1.526c-.276,0-.5,.224-.5,.5s.224,.5,.5,.5h2.895c.071,2.277,.634,3.836,1.487,4.9l-1.668,1.672c-.195,.195-.195,.512,0,.707,.098,.097,.225,.146,.353,.146s.256-.049,.354-.147l1.659-1.663c1.355,1.135,3.16,1.439,4.893,1.484v2.902c0,.276,.224,.5,.5,.5s.5-.224,.5-.5v-2.902c1.733-.045,3.539-.348,4.893-1.484l1.659,1.663c.098,.098,.226,.147,.354,.147s.255-.049,.353-.146c.196-.195,.196-.512,0-.707l-1.668-1.672c.853-1.063,1.415-2.623,1.487-4.9h2.895c.276,0,.5-.224,.5-.5s-.224-.5-.5-.5Zm-10.474,7.104c-4.679,0-6.587-1.914-6.587-6.604s1.908-6.604,6.587-6.604,6.587,1.914,6.587,6.604-1.908,6.604-6.587,6.604Z"/>
</svg>
