<?xml version="1.0" encoding="UTF-8"?>
<svg xmlns="http://www.w3.org/2000/svg" id="Layer_1" data-name="Layer 1" viewBox="0 0 24 24">
  <g>
    <path d="M10.053,5.58c-2.16,0-4.639,.528-4.639,4.649,0,3.172,1.474,4.649,4.639,4.649,1.992,0,4.639-.482,4.639-4.649,0-4.121-2.479-4.649-4.639-4.649Zm0,8.299c-2.585,0-3.639-1.057-3.639-3.649,0-3.039,1.393-3.649,3.639-3.649s3.639,.61,3.639,3.649-1.455,3.649-3.639,3.649Z"/>
    <path d="M19.287,5.536c-1.333-2.852-4.181-4.208-8.629-4.212C2.133,1.359,1.019,6.557,1,11.082c-.017,4.229,.902,9.131,8.167,9.641,1.072,1.314,2.823,1.954,5.342,1.954h.061c4.499-.019,6.585-1.972,6.738-6.325,1.144-1.001,1.683-2.566,1.692-4.896,.009-2.139-.373-5.052-3.713-5.919Zm1.22,10.181c-.119,.093-.189,.234-.192,.384-.076,3.943-1.742,5.558-5.749,5.575h-.057c-2.296,0-3.828-.567-4.682-1.734-.088-.121-.226-.195-.375-.204-5.316-.301-7.475-2.808-7.452-8.653,.026-6.198,2.535-8.736,8.662-8.762h.088c4.147,0,6.603,1.221,7.722,3.838,.063,.148,.195,.257,.353,.292,2.238,.492,3.188,1.987,3.176,4.998-.01,2.151-.47,3.466-1.493,4.266Z"/>
  </g>
  <circle cx="12.324" cy="17.935" r=".75"/>
  <circle cx="16.649" cy="16.254" r=".75"/>
  <circle cx="18.49" cy="10.85" r=".75"/>
</svg>
