<svg id="Layer_1" viewBox="0 0 24 24" xmlns="http://www.w3.org/2000/svg" data-name="Layer 1"><path d="m1.359 17.952c.146.042 3.649 1.048 10.641 1.048s10.495-1.005 10.641-1.048c.255-.075.407-.336.346-.594-.031-.133-.808-3.332-4.329-8.679-3.383-5.136-6.053-7.336-6.346-7.57-.183-.146-.441-.146-.624 0-.293.234-2.962 2.434-6.345 7.57-3.521 5.347-4.299 8.545-4.33 8.679-.061.258.091.519.346.594zm4.819-8.723c2.735-4.153 5.013-6.353 5.822-7.072.809.72 3.088 2.92 5.821 7.072 2.649 4.022 3.708 6.821 4.052 7.884-1.179.267-4.491.887-9.873.887s-8.695-.62-9.873-.887c.344-1.063 1.402-3.861 4.051-7.884zm16.461 12.735c-.146.042-3.648 1.036-10.64 1.036s-10.494-.994-10.639-1.036c-.265-.077-.417-.354-.341-.619s.354-.417.619-.341c.034.01 3.532.997 10.361.997s10.326-.986 10.361-.997c.263-.075.542.076.619.341.076.265-.076.542-.341.619z"/></svg>