<svg id="Layer_1" viewBox="0 0 24 24" xmlns="http://www.w3.org/2000/svg" data-name="Layer 1"><path d="m21.97 7.328c-.054-.146-.172-.259-.32-.305-.134-.042-3.346-1.023-9.649-1.023s-9.516.981-9.649 1.023c-.148.046-.267.159-.32.305-.042.115-1.03 2.866-1.03 7.172s.988 7.057 1.03 7.172c.054.146.172.259.32.305.134.042 3.346 1.023 9.649 1.023 3.572.177 10.276-.982 9.649-1.023.148-.046.267-.159.32-.305.042-.115 1.03-2.866 1.03-7.172s-.988-7.057-1.03-7.172zm-16.97 11.964c0-1.324.169-2.524.263-3.085.492-.077 1.434-.206 2.237-.206s1.744.129 2.237.206c.093.566.263 1.787.263 3.181 0 .82 0 1.878-.046 2.573-2.047-.076-3.662-.255-4.854-.439-.056-.632-.1-1.565-.1-2.23zm9 0c0-1.324.169-2.524.263-3.085.492-.077 1.434-.206 2.237-.206s1.744.129 2.237.206c.094.562.263 1.762.263 3.085 0 .665-.044 1.597-.1 2.23-1.183.182-2.784.359-4.81.437-.058-.727-.089-1.824-.089-2.666zm7.108 1.798c-.23.06-.636.154-1.189.259.047-.639.08-1.45.08-2.057 0-1.924-.329-3.553-.343-3.621-.041-.199-.199-.354-.399-.391-.062-.011-1.526-.279-2.758-.279s-2.696.268-2.758.279c-.2.037-.358.192-.399.391-.014.068-.343 1.697-.343 3.621 0 .857.03 1.931.088 2.691-.359.007-.706.018-1.088.018-.367 0-.699-.011-1.045-.017.044-.73.045-1.761.045-2.691 0-1.924-.329-3.553-.343-3.621-.041-.199-.199-.354-.399-.391-.062-.011-1.526-.279-2.758-.279s-2.696.268-2.758.279c-.2.037-.358.192-.399.391-.014.068-.343 1.697-.343 3.621 0 .607.033 1.419.08 2.057-.552-.105-.959-.2-1.189-.259-.23-.745-.892-3.175-.892-6.589s.661-5.845.892-6.589c.852-.221 3.931-.911 9.108-.911s8.257.69 9.108.911c.23.745.892 3.175.892 6.589s-.661 5.845-.892 6.589zm-13.608-11.09c-1.346 0-2 .654-2 2s.654 2 2 2 2-.654 2-2-.654-2-2-2zm0 3c-.794 0-1-.206-1-1s.206-1 1-1 1 .206 1 1-.206 1-1 1zm9-3c-1.346 0-2 .654-2 2s.654 2 2 2 2-.654 2-2-.654-2-2-2zm0 3c-.794 0-1-.206-1-1s.206-1 1-1 1 .206 1 1-.206 1-1 1zm-3.3-8.6c-.221-.166-.266-.479-.101-.7.74-.986 1.615-1.861 2.601-2.6.178-.134.422-.134.6 0 .985.739 1.86 1.614 2.601 2.6.165.221.12.534-.101.7-.219.165-.533.123-.7-.1-.606-.809-1.312-1.537-2.1-2.167-.788.631-1.493 1.359-2.1 2.167-.167.222-.479.266-.7.1zm-8.1-2.6c-.165-.221-.12-.534.101-.7.22-.165.534-.122.7.1.606.809 1.312 1.537 2.1 2.167.788-.631 1.493-1.359 2.1-2.167.167-.221.481-.265.7-.1.221.166.266.479.101.7-.74.986-1.615 1.861-2.601 2.6-.178.134-.422.134-.6 0-.985-.739-1.86-1.614-2.601-2.6z"/></svg>