<svg id="Layer_1" viewBox="0 0 24 24" xmlns="http://www.w3.org/2000/svg" data-name="Layer 1"><path d="m7.283 15.667c.184.206.166.522-.04.706s-.522.167-.706-.04c-.252-.282-.499-.565-.742-.843-2.656.873-3.795 2.991-3.795 7.01 0 .276-.224.5-.5.5s-.5-.224-.5-.5c0-4.635 1.487-7.122 4.823-8.064.185-.053.384.006.512.152.312.358.627.72.948 1.079zm-5.797-.667c.274.008.506-.21.514-.486 0-.037.111-3.705.984-6.886.535-2.102 2.092-5.627 6.516-5.627.326 0 .639.019.939.055.274.04.523-.162.557-.436s-.161-.523-.436-.557c-.339-.042-.692-.063-1.061-.063-3.779 0-6.437 2.266-7.481 6.372-.904 3.291-1.014 6.959-1.018 7.114-.007.276.21.506.486.514zm8.74-9.548c.549-2.382 2.198-3.452 5.274-3.452 3.855 0 5.5 1.645 5.5 5.5s-1.645 5.5-5.5 5.5c-1.258 0-2.258-.196-3.065-.566-.006.004-.01.01-.017.013-.739.372-1.693.553-2.918.553-2.826.099-4.658-1.178-4.981-3.768-.076-.55.077-1.091.433-1.524.361-.44.896-.711 1.467-.744 2.065-.109 3.007-.561 3.807-1.512zm1.176 6.317c-.953-.89-1.401-2.281-1.401-4.269 0-.184.022-.339.03-.513-1.036.718-2.347.906-3.553.975-.293.017-.567.156-.752.38-.176.214-.253.481-.215.752.287 2.072 1.522 2.985 3.978 2.905.771 0 1.398-.078 1.914-.231zm-.401-4.269c0 3.28 1.22 4.5 4.5 4.5s4.5-1.22 4.5-4.5-1.22-4.5-4.5-4.5-4.5 1.22-4.5 4.5zm7.753 6.941c-.201-.066-.422.004-.551.172-.856 1.118-1.753 2.318-2.702 3.214-.95-.896-1.846-2.095-2.703-3.214-.129-.168-.35-.24-.551-.172-2.937.948-4.247 3.434-4.247 8.059 0 .276.224.5.5.5s.5-.224.5-.5c0-3.988.969-6.106 3.225-6.99.882 1.154 1.879 2.451 2.949 3.369.188.161.464.162.651 0 1.071-.918 2.068-2.214 2.95-3.369 2.256.883 3.225 3.001 3.225 6.99 0 .276.224.5.5.5s.5-.224.5-.5c0-4.625-1.31-7.11-4.247-8.059z"/></svg>