<svg id="Layer_1" viewBox="0 0 24 24" xmlns="http://www.w3.org/2000/svg"><path d="m7.75 16c0 .414-.336.75-.75.75s-.75-.336-.75-.75.336-.75.75-.75.75.336.75.75zm-.75-2.5c.276 0 .5-.224.5-.5v-6c0-.276-.224-.5-.5-.5s-.5.224-.5.5v6c0 .276.224.5.5.5zm16-2.556c0 2.217-.183 4.682-.335 6.358-.122 1.347-1.087 2.459-2.4 2.768l-8.15 1.916c-.075.018-.154.018-.229 0l-8.15-1.916c-1.313-.309-2.278-1.421-2.4-2.768-.152-1.677-.335-4.142-.335-6.358 0-3.141.523-7.407.529-7.45.018-.144.097-.273.218-.354.069-.047 1.738-1.141 5.003-1.141 2.619 0 4.537 1.03 5.25 1.48.713-.45 2.631-1.48 5.25-1.48 3.265 0 4.934 1.094 5.003 1.141.121.08.2.21.218.354.006.043.529 4.31.529 7.45zm-19.036 8.154 7.536 1.771v-16.518c-.554-.354-2.322-1.351-4.75-1.351-2.341 0-3.77.613-4.258.865-.11.951-.492 4.432-.492 7.079 0 2.179.18 4.611.331 6.269.083.917.739 1.675 1.633 1.885zm18.036-8.154c0-2.647-.382-6.128-.492-7.079-.488-.252-1.917-.865-4.258-.865-2.428 0-4.196.996-4.75 1.351v16.518l7.536-1.771c.894-.21 1.55-.968 1.633-1.885.151-1.657.331-4.09.331-6.269z"/></svg>