<svg id="Layer_1" viewBox="0 0 24 24" xmlns="http://www.w3.org/2000/svg" data-name="Layer 1"><path d="m12 12.995c4.204 0 5.998-1.794 5.998-5.998s-1.793-5.998-5.998-5.998-5.998 1.794-5.998 5.998 1.793 5.998 5.998 5.998zm0-10.995c3.643 0 4.998 1.354 4.998 4.998s-1.355 4.998-4.998 4.998-4.998-1.354-4.998-4.998 1.355-4.998 4.998-4.998zm0 11.995c-6.164 0-8.852 2.538-8.991 8.485-.006.276.212.505.488.512.278.017.505-.212.512-.488.107-4.574 1.738-6.778 5.645-7.349.373.63.787 1.239 1.243 1.81-.573 1.475-1.086 3.069-1.386 4.319-.228.849.493 1.743 1.369 1.716l2.283-.005c.88.023 1.598-.884 1.359-1.734-.433-1.716-1.086-3.469-1.432-4.352.435-.578.833-1.17 1.2-1.763 3.948.558 5.594 2.761 5.701 7.358.007.276.237.494.512.488.276-.006.494-.235.488-.512-.139-5.947-2.827-8.485-8.991-8.485zm.125 2.531c-.107.14-.134.327-.067.491.294.733 1.028 2.639 1.496 4.489.052.301-.141.473-.392.489l-2.283.005c-.25-.015-.444-.182-.394-.483.308-1.284.85-2.95 1.451-4.457.067-.17.037-.364-.08-.504-.397-.478-.755-.992-1.089-1.519.394-.026.801-.043 1.235-.043.411 0 .798.015 1.174.038-.327.503-.672 1.004-1.049 1.493z"/></svg>