<?xml version="1.0" encoding="UTF-8"?>
<svg xmlns="http://www.w3.org/2000/svg" id="Layer_1" data-name="Layer 1" viewBox="0 0 24 24">
  <path d="M21.167,8.036s-.001-.003-.002-.005c-.021-.062-.054-.122-.1-.173-.064-.073-1.615-1.812-4.133-3.75-2.152-1.656-4.591-2.991-4.693-3.047-.148-.081-.33-.081-.479,0-.103,.056-2.541,1.391-4.693,3.047-2.518,1.937-4.068,3.676-4.133,3.75-.057,.064-.094,.14-.113,.219-.311,.986-1.001,3.529-1.001,6.636,0,3.947,1.098,6.94,1.145,7.065,.06,.16,.196,.278,.362,.314,.17,.037,4.221,.907,8.672,.907,4.605,0,8.512-.871,8.676-.908s.299-.154,.357-.312c.047-.125,1.146-3.095,1.146-7.067,0-3.189-.707-5.732-1.012-6.677ZM7.677,4.901c1.707-1.313,3.655-2.45,4.323-2.829,.668,.379,2.616,1.515,4.323,2.829,1.805,1.388,3.118,2.696,3.685,3.288-.566,.592-1.88,1.9-3.685,3.289-1.707,1.313-3.655,2.45-4.323,2.829-.668-.379-2.614-1.514-4.323-2.829-1.805-1.389-3.118-2.697-3.685-3.289,.565-.592,1.877-1.897,3.685-3.288Zm12.508,16.272c-.964,.195-4.371,.827-8.185,.827-3.693,0-7.197-.634-8.185-.829-.258-.794-.994-3.334-.994-6.458,0-2.338,.408-4.339,.727-5.544,.681,.692,1.9,1.856,3.52,3.102,2.152,1.656,4.591,2.991,4.693,3.047,.074,.041,.157,.061,.239,.061s.165-.021,.239-.061c.103-.056,2.541-1.392,4.693-3.047,1.622-1.248,2.843-2.414,3.523-3.105,.317,1.193,.723,3.181,.723,5.547,0,3.137-.737,5.671-.994,6.46Z"/>
</svg>
