<svg id="Layer_1" viewBox="0 0 24 24" xmlns="http://www.w3.org/2000/svg" data-name="Layer 1"><path d="m1.014 9.616c-.063-.269.102-.538.37-.602.174-.042 4.33-1.014 10.616-1.014s10.442.972 10.616 1.014c.269.064.434.333.37.602-.063.27-.34.435-.602.371-.042-.01-4.226-.986-10.385-.986s-10.343.977-10.385.986c-.267.064-.538-.103-.602-.371zm21.603 5.398c-.174-.041-4.33-1.014-10.616-1.014s-10.442.973-10.616 1.014c-.269.063-.434.333-.37.602.063.27.335.438.602.371.042-.01 4.226-.986 10.385-.986s10.343.977 10.385.986c.261.065.539-.1.602-.371.063-.269-.102-.538-.37-.602z"/></svg>