<svg id="Layer_1" viewBox="0 0 24 24" xmlns="http://www.w3.org/2000/svg" data-name="Layer 1"><path d="m22.445 21.483c-.047.005-4.765.517-9.305.517h-1.085c1.316-1.063 3.285-2.733 5.26-4.709 1.987-1.986 3.672-3.976 4.737-5.295 1.278-1.585 1.3-3.833.052-5.466-.751-.983-1.468-1.818-2.13-2.48s-1.497-1.379-2.48-2.13c-1.633-1.248-3.881-1.227-5.466.052-1.316 1.062-3.303 2.745-5.295 4.737s-3.671 3.975-4.737 5.295c-1.279 1.585-1.3 3.833-.052 5.466.754.986 1.47 1.82 2.13 2.48s1.497 1.379 2.48 2.13c.805.615 1.758.922 2.709.922.08 0 3.877-.002 3.877-.002 4.596 0 9.367-.518 9.415-.522.274-.03.473-.277.442-.552s-.279-.473-.552-.442zm-9.79-18.733c.621-.5 1.373-.751 2.129-.751.737 0 1.477.238 2.102.716.948.725 1.749 1.411 2.38 2.042s1.318 1.432 2.042 2.381c.967 1.266.953 3.006-.036 4.23-.989 1.227-2.527 3.041-4.34 4.884l-9.161-9.162c1.848-1.817 3.66-3.354 4.884-4.34zm-7.874 16.493c-.628-.629-1.316-1.43-2.042-2.381-.967-1.266-.953-3.006.036-4.23.982-1.217 2.501-3.01 4.291-4.834l9.162 9.161c-1.831 1.796-3.621 3.313-4.834 4.291-1.226.986-2.965 1.002-4.231.035-.948-.725-1.749-1.411-2.38-2.042z"/></svg>