<?xml version="1.0" encoding="UTF-8"?>
<svg xmlns="http://www.w3.org/2000/svg" id="Layer_1" data-name="Layer 1" viewBox="0 0 24 24">
  <path d="M21.39,18.463c-2.358,2.253-4.636,3.442-6.759,3.535-3.994,.112-8.419-3.777-9.642-7.966h7.959c.276,0,.5-.224,.5-.5s-.224-.5-.5-.5H4.76c-.056-.34-.09-.681-.098-1.02,.009-.347,.044-.696,.102-1.044H12.948c.276,0,.5-.224,.5-.5s-.224-.5-.5-.5H4.993C6.208,5.825,10.534,2,14.474,2c.049,0,.099,0,.148,.002,2.132,.093,4.409,1.283,6.768,3.536,.202,.192,.518,.185,.707-.016,.191-.2,.184-.516-.016-.707-2.539-2.425-5.034-3.708-7.425-3.812-.056,0-.11-.002-.166-.002C10.072,1,5.222,5.326,3.969,9.968h-1.704c-.276,0-.5,.224-.5,.5s.224,.5,.5,.5h1.492c-.054,.348-.086,.697-.094,1.044,.008,.339,.039,.679,.091,1.02h-1.489c-.276,0-.5,.224-.5,.5s.224,.5,.5,.5h1.7c1.246,4.632,6.104,8.968,10.535,8.968,.056,0,.111,0,.166-.002,2.382-.104,4.877-1.387,7.416-3.812,.199-.19,.207-.507,.016-.707-.189-.2-.506-.208-.707-.016Z"/>
</svg>
