<?xml version="1.0" encoding="UTF-8"?>
<svg xmlns="http://www.w3.org/2000/svg" id="Layer_1" data-name="Layer 1" viewBox="0 0 24 24">
  <g>
    <path d="M12,1C6.906,1,1.06,2.25,1.06,12c0,7.71,3.271,11,10.94,11,5.094,0,10.94-1.25,10.94-11,0-7.71-3.271-11-10.94-11Zm0,21c-7.061,0-9.94-2.897-9.94-10S4.939,2,12,2s9.94,2.897,9.94,10-2.88,10-9.94,10Z"/>
    <path d="M12,13.684c.276,0,.5-.224,.5-.5V7.235c0-.276-.224-.5-.5-.5s-.5,.224-.5,.5v5.949c0,.276,.224,.5,.5,.5Z"/>
  </g>
  <circle cx="12" cy="16.765" r=".745"/>
</svg>
