<?xml version="1.0" encoding="UTF-8"?>
<svg xmlns="http://www.w3.org/2000/svg" id="Layer_1" data-name="Layer 1" viewBox="0 0 24 24">
  <path d="M21.664,17.71c-.15-.021-.306,.033-.415,.143l-1.372,1.372-7.169-7.221,7.242-7.157,1.304,1.297c.094,.094,.221,.146,.353,.146,.021,0,.041,0,.062-.004,.152-.019,.288-.106,.367-.238,1.341-2.231,.896-4.54,.891-4.562-.017-.073-.049-.139-.093-.194-.07-.092-.171-.158-.287-.185-.474-.108-2.634-.275-4.581,.885-.133,.079-.222,.215-.24,.368-.02,.153,.034,.307,.144,.416l1.373,1.367-7.238,7.153L4.83,4.068l1.298-1.299c.109-.109,.162-.262,.143-.415-.019-.153-.107-.288-.239-.367C3.81,.658,1.478,1.095,1.456,1.101c-.061,.014-.115,.039-.164,.072-.104,.069-.181,.176-.21,.302-.006,.021-.442,2.354,.887,4.576,.079,.132,.215,.221,.367,.239,.021,.003,.041,.004,.062,.004,.132,0,.259-.052,.354-.146l1.372-1.372,7.169,7.221-7.242,7.157-1.304-1.297c-.108-.108-.265-.164-.414-.142-.152,.019-.288,.106-.367,.238-1.341,2.231-.896,4.54-.891,4.562,.017,.073,.049,.139,.093,.194,.07,.092,.171,.158,.287,.185,.153,.035,.484,.076,.929,.076,.924,0,2.337-.178,3.652-.961,.133-.079,.222-.215,.24-.368,.02-.153-.034-.307-.144-.416l-1.373-1.367,7.238-7.153,7.174,7.226-1.298,1.299c-.109,.109-.162,.262-.143,.415,.019,.153,.107,.288,.239,.367,1.336,.799,2.71,.96,3.6,.96,.59,0,.967-.071,.976-.073,.061-.014,.115-.039,.164-.072,.104-.069,.181-.176,.21-.302,.006-.021,.442-2.354-.887-4.576-.079-.132-.215-.221-.367-.239Z"/>
</svg>
