<svg id="Layer_1" viewBox="0 0 24 24" xmlns="http://www.w3.org/2000/svg" data-name="Layer 1"><path d="m22.19 8.156c-.052-.169-.19-.298-.363-.339-.138-.032-3.367-.773-9.327-.813v-4.421c.77.67 1.486 1.399 2.1 2.217.167.223.481.265.7.1.221-.166.266-.479.101-.7-.881-1.175-1.924-2.218-3.101-3.1-.178-.134-.422-.134-.6 0-1.176.881-2.219 1.924-3.1 3.1-.166.221-.121.534.1.7s.535.122.7-.1c.614-.818 1.33-1.548 2.1-2.218v4.422c-5.96.04-9.189.781-9.327.813-.172.041-.311.17-.363.339-.033.107-.81 2.673-.81 6.844s.777 6.736.81 6.844c.053.169.191.298.363.339.142.033 3.541.817 9.827.817s9.685-.784 9.827-.817c.173-.041.312-.17.363-.339.033-.107.81-2.674.81-6.844s-.776-6.736-.81-6.844zm-.88 13.114c-.941.184-4.167.73-9.31.73s-8.369-.546-9.31-.73c-.193-.761-.689-3.028-.689-6.269s.496-5.509.689-6.269c.941-.184 4.167-.73 9.31-.73s8.369.546 9.31.73c.193.761.689 3.028.689 6.269s-.496 5.508-.689 6.269zm-9.31-10.27c-2.767 0-4 1.233-4 4s1.233 4 4 4 4-1.233 4-4-1.233-4-4-4zm0 7c-2.215 0-3-.785-3-3s.785-3 3-3 3 .785 3 3-.785 3-3 3zm6.75 0c0 .414-.336.75-.75.75s-.75-.336-.75-.75.336-.75.75-.75.75.336.75.75zm0-6c0 .414-.336.75-.75.75s-.75-.336-.75-.75.336-.75.75-.75.75.336.75.75zm-12 6c0 .414-.336.75-.75.75s-.75-.336-.75-.75.336-.75.75-.75.75.336.75.75zm0-6c0 .414-.336.75-.75.75s-.75-.336-.75-.75.336-.75.75-.75.75.336.75.75z"/></svg>