<svg id="Layer_1" viewBox="0 0 24 24" xmlns="http://www.w3.org/2000/svg" data-name="Layer 1"><path d="m22.774 10.542c-.047-.14-.152-.251-.289-.306-.047-.019-.412-.151-.99-.208-.022-2.416-.202-4.731-.382-5.842-.237-1.47-1.39-2.635-2.866-2.898-2.147-.383-4.561-.382-6.706 0-1.474.263-2.624 1.414-2.86 2.864-.042.257-.083.547-.123.853-3.536.058-6.147.781-6.26.813-.161.045-.289.168-.34.328-.039.122-.958 3.031-.958 7.854s.919 7.732.958 7.854c.051.159.179.282.34.328.118.034 2.942.819 6.702.819s6.584-.785 6.702-.819c.161-.045.289-.168.34-.328.039-.122.958-3.031.958-7.854s-.919-7.732-.958-7.854c-.051-.159-.179-.282-.34-.328-.112-.032-2.663-.739-6.137-.812.033-.247.067-.481.101-.693.169-1.032.992-1.852 2.05-2.041 2.03-.363 4.322-.363 6.354 0 1.06.189 1.885 1.022 2.056 2.073.174 1.072.348 3.322.369 5.682-.573.057-.934.188-.981.207-.137.055-.242.167-.289.306-.022.069-.226.712-.226 1.958s.203 1.889.226 1.958c.047.14.152.251.289.306.06.024.614.236 1.485.236s1.426-.212 1.485-.236c.137-.055.242-.167.289-.306.022-.069.226-.712.226-1.958s-.203-1.889-.226-1.958zm-7.609 10.745c-.78.19-3.194.713-6.165.713s-5.385-.522-6.165-.713c-.143-.531-.457-1.866-.657-3.809.521-.08 3.284-.478 6.822-.478s6.301.398 6.822.478c-.2 1.943-.514 3.278-.657 3.809zm.835-7.287c0 .898-.036 1.722-.09 2.48-.697-.106-3.406-.48-6.91-.48s-6.213.374-6.91.48c-.054-.758-.09-1.582-.09-2.48 0-3.853.618-6.482.835-7.287.78-.19 3.194-.713 6.165-.713s5.385.522 6.165.713c.217.805.835 3.434.835 7.287zm5.882-.098c-.387.091-1.377.091-1.764 0-.052-.26-.118-.729-.118-1.402s.067-1.143.118-1.402c.387-.091 1.377-.091 1.764 0 .051.26.118.729.118 1.402s-.067 1.143-.118 1.402zm-8.132 5.598c0 .415-.335.75-.75.75s-.75-.335-.75-.75.335-.75.75-.75.75.335.75.75zm-3 0c0 .415-.335.75-.75.75s-.75-.335-.75-.75.335-.75.75-.75.75.335.75.75z"/></svg>