<svg id="Layer_1" viewBox="0 0 24 24" xmlns="http://www.w3.org/2000/svg" data-name="Layer 1"><path d="m5.664 15.093c.85.896 2.835 3.369 3.332 7.345.034.274-.16.524-.434.558-.269.035-.526-.159-.559-.434-.504-3.814-2.271-5.925-3.142-6.871-.523-.704-1.435-.896-2.117-.444-.696.46-.891 1.405-.433 2.106.011.016 1.688 2.671 1.688 5.147 0 .276-.224.5-.5.5s-.5-.224-.5-.5c0-2.121-1.513-4.58-1.527-4.604-.756-1.156-.433-2.721.722-3.483 1.134-.748 2.624-.454 3.47.681zm16.142-.681c-1.132-.747-2.623-.454-3.489.699-.83.878-2.815 3.351-3.312 7.327-.034.274.16.524.434.558.269.035.526-.159.559-.434.505-3.815 2.27-5.926 3.143-6.872.523-.704 1.432-.896 2.116-.443.696.46.891 1.405.438 2.097-.017.025-1.693 2.68-1.693 5.156 0 .276.224.5.5.5s.5-.224.5-.5c0-2.121 1.513-4.58 1.525-4.6.758-1.161.435-2.725-.72-3.488zm-20.306-1.912c.276 0 .5-.224.5-.5 0-7.196 2.804-10 10-10s10 2.804 10 10c0 .276.224.5.5.5s.5-.224.5-.5c0-7.813-3.187-11-11-11s-11 3.187-11 11c0 .276.224.5.5.5zm10.991 9.496c-.244.004-.738.004-.982 0-.281.01-.504.216-.509.491-.005.276.215.504.491.509.253.004.765.004 1.018 0 .276-.005.496-.233.491-.509s-.22-.488-.509-.491zm2.009-7.496v2c0 1.706-.794 2.5-2.5 2.5s-2.5-.794-2.5-2.5v-2c0-1.706.794-2.5 2.5-2.5s2.5.794 2.5 2.5zm-1 0c0-1.149-.351-1.5-1.5-1.5s-1.5.351-1.5 1.5v2c0 1.149.351 1.5 1.5 1.5s1.5-.351 1.5-1.5zm-4.075-7.008c.331.372.861.999.388 1.742-.037.049-.571.666-1.242 1.336-.671.671-1.288 1.205-1.288 1.205-.611.467-1.4.058-1.79-.351-.268-.339-.767-.971-.305-1.659.037-.049.571-.666 1.242-1.336.671-.671 1.288-1.205 1.288-1.205.736-.499 1.367 0 1.707.268zm-.405 1.136c-.017-.011-.039-.1-.261-.387-.277-.215-.37-.241-.399-.241h-.002c-.007 0-.589.504-1.221 1.137-.641.641-1.152 1.23-1.156 1.235.017.011.039.1.261.387.277.215.37.241.399.241h.002c.007 0 .589-.504 1.221-1.137.641-.641 1.152-1.23 1.156-1.235zm8.551-.198c.671.671 1.205 1.287 1.205 1.287.511.795-.016 1.414-.351 1.791-.364.332-1.109.73-1.658.305-.049-.038-.666-.571-1.337-1.243-.671-.671-1.205-1.287-1.205-1.287-.499-.737 0-1.369.268-1.708.372-.331.995-.862 1.741-.388.049.038.666.571 1.337 1.243zm.431 1.928c.006 0-.502-.585-1.138-1.221-.641-.641-1.23-1.151-1.235-1.156-.012.017-.1.039-.387.261-.222.287-.243.376-.241.402-.006 0 .502.585 1.138 1.221.641.641 1.23 1.151 1.235 1.156.012-.017.1-.039.387-.261.222-.287.243-.376.241-.402z"/></svg>