<svg id="Layer_1" viewBox="0 0 24 24" xmlns="http://www.w3.org/2000/svg" data-name="Layer 1"><path d="m23 14.5c0 1.706-.794 2.5-2.5 2.5h-5.56c.035.152.06.314.06.5 0 .995-.505 1.5-1.5 1.5h-2c-.276 0-.5-.224-.5-.5s.224-.5.5-.5h2c.439 0 .5-.061.5-.5s-.061-.5-.5-.5c-.276 0-.5-.224-.5-.5s.224-.5.5-.5c.439 0 .5-.061.5-.5s-.061-.5-.5-.5h-2c-.276 0-.5-.224-.5-.5s.224-.5.5-.5h2c.995 0 1.5.505 1.5 1.5 0 .186-.025.348-.06.5h5.56c1.149 0 1.5-.351 1.5-1.5s-.351-1.5-1.5-1.5c-.564 0-.944.098-1.161.298-.203.187-.519.175-.707-.028s-.175-.519.028-.707c.416-.384 1-.563 1.84-.563 1.706 0 2.5.794 2.5 2.5zm-2.127 4.608c.217.171.253.486.082.702-1.722 2.176-4.567 3.19-8.955 3.19-7.813 0-11-3.187-11-11 .021-1.4.058-2.596.328-3.695-.065-.434-.137-.987-.218-1.709-.282-2.511.058-4.393.168-4.91.042-.194.199-.364.393-.404.532-.114 2.413-.453 4.925-.172.722.081 1.276.153 1.709.218 1.099-.27 2.295-.307 3.695-.328 6.938 0 10.187 2.525 10.865 8.443.036.295-.201.559-.497.557-.251 0-.467-.188-.496-.443-.615-5.368-3.476-7.557-9.872-7.557-.723 0-1.385.031-2.007.087.011.216-.223 2.375-2.847 5.059-2.685 2.627-4.844 2.853-5.06 2.849-.056.622-.086 1.283-.086 2.005 0 7.196 2.804 10 10 10 4.058 0 6.654-.893 8.171-2.81.171-.216.485-.253.702-.082zm-18.769-12.624c.154 1.373.271 2.08.345 2.436.705-.185 2.269-.761 3.99-2.481s2.296-3.283 2.481-3.99c-.357-.074-1.063-.191-2.436-.345-2.005-.227-3.565-.033-4.286.094-.129.74-.318 2.295-.094 4.287zm8.055 3.65c-1.266 1.182-2.052 1.182-3.317 0-.202-.188-.518-.176-.707.024-.188.202-.177.519.024.707.83.774 1.574 1.134 2.341 1.134s1.512-.36 2.341-1.134c.202-.188.213-.505.024-.707s-.504-.213-.707-.024zm7 0c-1.266 1.182-2.052 1.182-3.317 0-.203-.188-.518-.176-.707.024-.188.202-.177.519.024.707.83.774 1.574 1.134 2.341 1.134s1.512-.36 2.341-1.134c.202-.188.213-.505.024-.707s-.504-.213-.707-.024z"/></svg>