<svg id="Layer_1" viewBox="0 0 24 24" xmlns="http://www.w3.org/2000/svg" data-name="Layer 1"><path d="m12 15c-1.346 0-2 .654-2 2s.654 2 2 2 2-.654 2-2-.654-2-2-2zm0 3c-.794 0-1-.206-1-1s.206-1 1-1 1 .206 1 1-.206 1-1 1zm7-8.5c0 .276-.224.5-.5.5s-.5-.224-.5-.5c0-1.869-.631-2.5-2.5-2.5-.276 0-.5-.224-.5-.5s.224-.5.5-.5c2.421 0 3.5 1.08 3.5 3.5zm-10.5-2.5c-1.869 0-2.5.631-2.5 2.5 0 .276-.224.5-.5.5s-.5-.224-.5-.5c0-2.42 1.08-3.5 3.5-3.5.276 0 .5.224.5.5s-.224.5-.5.5zm3.5-6c-7.813 0-11 3.187-11 11s3.187 11 11 11 11-3.187 11-11-3.187-11-11-11zm0 21c-7.196 0-10-2.804-10-10s2.804-10 10-10 10 2.804 10 10-2.804 10-10 10zm-2.25-10.001c0 .414-.336.75-.75.75s-.75-.336-.75-.75.336-.75.75-.75.75.336.75.75zm6 0c0 .414-.336.75-.75.75s-.75-.336-.75-.75.336-.75.75-.75.75.336.75.75z"/></svg>