<svg id="Layer_1" viewBox="0 0 24 24" xmlns="http://www.w3.org/2000/svg" data-name="Layer 1"><path d="m8.009 16.898c-.095.574.436 1.118 1.011 1.102h5.961c.573.016 1.106-.526 1.011-1.103-.287-2.031-1.48-2.897-3.991-2.897s-3.704.867-3.991 2.898zm6.972.102-5.981.039c.187-1.322.721-2.039 3.001-2.039s2.814.716 2.98 2zm8.02-5c0 7.813-3.187 11-11 11-5.282 0-8.436-1.522-9.925-4.793-.114-.251-.004-.548.248-.662.253-.112.548-.004.662.248 1.325 2.909 4.105 4.207 9.015 4.207 7.196 0 10-2.804 10-10s-2.805-10-10.001-10c-6.233 0-9.075 2.049-9.809 7.072-.041.274-.303.454-.567.423-.273-.04-.462-.294-.423-.567.801-5.483 4.131-7.928 10.799-7.928 7.813 0 11 3.187 11 11zm-13.25 0c0 .414-.336.75-.75.75s-.75-.336-.75-.75.336-.75.75-.75.75.336.75.75zm5.25-.75c.414 0 .75.336.75.75s-.336.75-.75.75-.75-.336-.75-.75.336-.75.75-.75zm-10 2.75c0-1.107-.982-2.367-1.179-2.608-.204-.249-.493-.376-.824-.392-.318 0-.617.141-.82.387-.196.238-1.177 1.483-1.177 2.613 0 1.346.654 2 2 2s2-.654 2-2zm-3 0c0-.571.477-1.404 1.046-1.976.475.581.954 1.418.954 1.976 0 .794-.206 1-1 1s-1-.206-1-1zm7-7.5c0 2.421-1.079 3.5-3.5 3.5-.276 0-.5-.224-.5-.5s.224-.5.5-.5c1.869 0 2.5-.631 2.5-2.5 0-.276.224-.5.5-.5s.5.224.5.5zm6 0c0-.276.224-.5.5-.5s.5.224.5.5c0 1.869.631 2.5 2.5 2.5.276 0 .5.224.5.5s-.224.5-.5.5c-2.421 0-3.5-1.079-3.5-3.5z"/></svg>