<svg id="Layer_1" viewBox="0 0 24 24" xmlns="http://www.w3.org/2000/svg" data-name="Layer 1"><path d="m19 9.5c0 .276-.224.5-.5.5s-.5-.224-.5-.5c0-1.869-.631-2.5-2.5-2.5-.276 0-.5-.224-.5-.5s.224-.5.5-.5c2.421 0 3.5 1.079 3.5 3.5zm4 2.5c0 7.813-3.187 11-11 11s-11-3.187-11-11 3.187-11 11-11 11 3.187 11 11zm-1 0c0-7.196-2.804-10-10-10s-10 2.804-10 10 2.804 10 10 10 10-2.804 10-10zm-12.25-1c0-.414-.336-.75-.75-.75s-.75.336-.75.75.336.75.75.75.75-.336.75-.75zm5.25-.75c-.414 0-.75.336-.75.75s.336.75.75.75.75-.336.75-.75-.336-.75-.75-.75zm-.5 5.25v2c0 1.706-.794 2.5-2.5 2.5s-2.5-.794-2.5-2.5v-2c0-1.706.794-2.5 2.5-2.5s2.5.794 2.5 2.5zm-1 0c0-1.149-.351-1.5-1.5-1.5s-1.5.351-1.5 1.5v2c0 1.149.351 1.5 1.5 1.5s1.5-.351 1.5-1.5zm-4.5-9c0-.276-.224-.5-.5-.5-2.42 0-3.5 1.079-3.5 3.5 0 .276.224.5.5.5s.5-.224.5-.5c0-1.869.631-2.5 2.5-2.5.276 0 .5-.224.5-.5z"/></svg>