<?xml version="1.0" encoding="UTF-8"?>
<svg xmlns="http://www.w3.org/2000/svg" id="Layer_1" data-name="Layer 1" viewBox="0 0 24 24">
  <path d="M11.997,1C4.93,1.044,1.127,4.845,1,11.991c0,0-1,11.009,11.003,11.009,7.164,0,10.864-3.74,10.997-11.009-.122-7.042-4.027-10.946-11.003-10.991ZM3.634,5.736c4.478-.827,8.258-.383,11.319,1.32-4.613-1.158-9.02,.328-12.935,4.393,.111-2.334,.651-4.24,1.616-5.713ZM12.003,22c-6.3-.037-9.568-3.014-9.965-9.095,4.721-5.381,10.011-6.633,15.72-3.716,.016,.008,.032,.015,.048,.021,1.539,1.527,2.817,3.502,3.829,5.925,.005,.012,.01,.023,.016,.034-1.01,4.556-4.191,6.798-9.647,6.83ZM4.576,4.57c1.671-1.688,4.148-2.549,7.421-2.57,4.485,.029,9.861,1.79,10.003,9.991-.009,.476-.034,.933-.074,1.374C18.507,6.471,12.55,3.449,4.576,4.57Z"/>
  <path d="M7.448,17.944c-.196,.194-.198,.511-.004,.707,.098,.099,.227,.148,.355,.148,.127,0,.254-.048,.352-.145,1.831-1.808,5.021-2.579,7.702,.004,.199,.192,.516,.186,.707-.013,.192-.199,.186-.516-.013-.707-3.163-3.048-6.933-2.135-9.099,.004Z"/>
  <path d="M16.2,10.45c-.276,0-.5,.224-.5,.5v2.1c0,.276,.224,.5,.5,.5s.5-.224,.5-.5v-2.1c0-.276-.224-.5-.5-.5Z"/>
  <path d="M7.8,13.55c.276,0,.5-.224,.5-.5v-2.1c0-.276-.224-.5-.5-.5s-.5,.224-.5,.5v2.1c0,.276,.224,.5,.5,.5Z"/>
</svg>
