<svg id="Layer_1" viewBox="0 0 24 24" xmlns="http://www.w3.org/2000/svg" data-name="Layer 1"><path d="m16 16.5c0 .303.273.677.813 1.11.215.173.249.487.076.703-.174.217-.489.249-.703.077-.596-.478-.953-.93-1.103-1.39h-6.168c-.149.46-.507.911-1.103 1.39-.214.172-.529.14-.703-.077-.173-.215-.139-.53.077-.703.54-.434.813-.807.813-1.11s-.273-.677-.813-1.11c-.215-.173-.25-.488-.077-.703.173-.214.488-.249.703-.077.596.479.953.93 1.103 1.39h6.168c.149-.46.507-.911 1.103-1.39.217-.172.53-.139.703.077.173.215.139.53-.076.703-.54.434-.813.807-.813 1.11zm7-4.5c0 7.813-3.187 11-11 11s-11-3.187-11-11 3.187-11 11-11 11 3.187 11 11zm-1 0c0-7.196-2.804-10-10-10s-10 2.804-10 10 2.804 10 10 10 10-2.804 10-10zm-13.75 0c0 .414.336.75.75.75s.75-.336.75-.75-.336-.75-.75-.75-.75.336-.75.75zm6.75.75c.414 0 .75-.336.75-.75s-.336-.75-.75-.75-.75.336-.75.75.336.75.75.75zm3.5-3.75c-1.869 0-2.5-.631-2.5-2.5 0-.276-.224-.5-.5-.5s-.5.224-.5.5c0 2.42 1.079 3.5 3.5 3.5.276 0 .5-.224.5-.5s-.224-.5-.5-.5zm-9.5-2.5c0-.276-.224-.5-.5-.5s-.5.224-.5.5c0 1.869-.631 2.5-2.5 2.5-.276 0-.5.224-.5.5s.224.5.5.5c2.42 0 3.5-1.08 3.5-3.5z"/></svg>