<svg id="Layer_1" viewBox="0 0 24 24" xmlns="http://www.w3.org/2000/svg" data-name="Layer 1"><path d="m7.547 14.002c2.689.252 4.892 1.558 6.369 3.774.153.23.091.54-.139.693-.227.152-.539.093-.693-.139-1.323-1.985-3.218-3.106-5.631-3.333-.274-.026-.477-.27-.451-.545s.275-.479.545-.451zm11.453-3.502v12c0 .276-.224.5-.5.5s-.5-.224-.5-.5v-9.221c-.571.481-1.388.721-2.5.721-2.421 0-3.5-1.08-3.5-3.5s1.079-3.5 3.5-3.5 3.5 1.08 3.5 3.5zm-1 0c0-1.869-.631-2.5-2.5-2.5s-2.5.631-2.5 2.5.631 2.5 2.5 2.5 2.5-.631 2.5-2.5zm-6-9.5c-7.813 0-11 3.187-11 11s3.187 11 11 11c1.354 0 2.528-.093 3.589-.286.272-.049.452-.31.403-.582-.05-.272-.313-.452-.581-.403-1.002.182-2.117.27-3.411.27-7.196 0-10-2.804-10-10s2.804-9.999 10-9.999 10 2.804 10 10c0 2.705-.398 4.753-1.219 6.262-.132.243-.042.546.2.678.242.131.546.043.679-.201.901-1.659 1.34-3.863 1.34-6.739 0-7.813-3.187-11-11-11zm3.5 8.75c-.414 0-.75.336-.75.75s.336.75.75.75.75-.336.75-.75-.336-.75-.75-.75zm-6.75-.75c0-.414-.336-.75-.75-.75s-.75.336-.75.75.336.75.75.75.75-.336.75-.75z"/></svg>