<svg id="Layer_1" viewBox="0 0 24 24" xmlns="http://www.w3.org/2000/svg" data-name="Layer 1"><path d="m17.967 9.32c.1.257-.029.547-.286.646-.252.099-.547-.026-.647-.286-.299-.774-.675-1.244-1.183-1.479-.526-.244-1.263-.265-2.251-.063-.271.054-.535-.12-.59-.391s.12-.534.391-.589c1.223-.247 2.134-.204 2.87.137.748.347 1.303 1.009 1.696 2.026zm-7.367-2.163c-1.222-.246-2.134-.204-2.87.137-.748.347-1.303 1.009-1.696 2.026-.1.257.029.547.286.646.252.099.547-.026.647-.286.299-.774.675-1.244 1.183-1.479.525-.244 1.262-.265 2.251-.063.271.054.535-.12.59-.391s-.12-.534-.391-.589zm12.4 4.843c0 3.518-.669 6.073-2.046 7.811-.172.218-.488.252-.702.082-.217-.171-.253-.486-.081-.703 1.23-1.554 1.829-3.906 1.829-7.189 0-.475-.014-.928-.039-1.366-1.202 1.659-2.734 2.491-3.492 2.825.202.689.531 2.101.531 4.041 0 2.729-.656 4.443-.685 4.515-.054.137-.165.244-.304.292-.083.028-2.073.693-6.012.693s-5.929-.665-6.012-.693c-.139-.048-.25-.154-.304-.292-.028-.072-.685-1.786-.685-4.515 0-1.94.329-3.352.531-4.041-.758-.334-2.29-1.166-3.492-2.825-.025.437-.039.891-.039 1.366 0 3.284.599 5.635 1.829 7.189.172.217.136.531-.081.703-.216.171-.53.136-.702-.082-1.377-1.738-2.046-4.293-2.046-7.811.002-7.813 3.189-11 11.002-11s11 3.187 11 11zm-5 5.5c0-1.993-.375-3.402-.54-3.926-.61-.164-2.442-.574-5.46-.574s-4.849.41-5.46.574c-.165.527-.54 1.945-.54 3.926 0 1.993.375 3.402.54 3.926.61.164 2.442.574 5.46.574s4.849-.41 5.46-.574c.165-.527.54-1.945.54-3.926zm3.788-8.492c-.759-4.986-3.694-7.008-9.788-7.008s-9.029 2.023-9.788 7.008c1.202 2.407 3.392 3.422 3.954 3.632.555-.161 2.482-.64 5.834-.64s5.278.478 5.833.64c.563-.212 2.76-1.238 3.955-3.631z"/></svg>