<svg id="Layer_1" viewBox="0 0 24 24" xmlns="http://www.w3.org/2000/svg" data-name="Layer 1"><path d="m17.8 15.6c.221.166.266.479.1.7-1.343 1.792-3.497 2.7-6.4 2.7-.276 0-.5-.224-.5-.5s.224-.5.5-.5c2.572 0 4.456-.773 5.6-2.3.166-.221.479-.266.7-.101zm5.2-3.6c0 7.813-3.187 11-11 11s-11-3.187-11-11 3.187-11 11-11 11 3.187 11 11zm-1.437-3.713c-.493-.091-1.473-.287-3.263-.287-1.892 0-3.556.197-4.299.3.003.657.043 1.969.283 3.033.096.426.247.914.449 1.453.835.105 2.062.214 3.567.214 1.809 0 2.771-.163 3.256-.254.104-.476.29-1.436.29-2.246 0-.795-.178-1.729-.283-2.213zm-18.94-1.099c.647-.092 1.653-.188 3.077-.188 2.637 0 4.79.361 4.88.376.235.04.409.24.416.479.001.042.014.55-.015 1.243.645-.115 1.393-.115 2.038 0-.029-.693-.016-1.201-.015-1.243.007-.238.181-.438.416-.479.09-.015 2.243-.376 4.88-.376 1.425 0 2.431.096 3.078.188-1.172-3.666-4.085-5.188-9.378-5.188s-8.205 1.523-9.377 5.188zm-.469 3.312c0 .811.186 1.771.29 2.246.485.091 1.448.254 3.256.254 1.505 0 2.732-.108 3.567-.214.202-.539.353-1.027.449-1.453.239-1.064.279-2.376.283-3.032-.744-.104-2.41-.301-4.299-.301-1.795 0-2.773.201-3.264.293-.105.486-.282 1.415-.282 2.207zm19.777 3.221c-.526.103-1.701.279-3.631.279-1.748 0-3.138-.143-3.996-.262-.179-.024-.33-.144-.396-.312-.274-.697-.476-1.328-.599-1.875-.104-.46-.17-.951-.216-1.423-.63-.165-1.553-.165-2.183 0-.046.472-.113.963-.216 1.423-.123.547-.325 1.178-.599 1.875-.066.168-.218.287-.396.312-.858.119-2.248.262-3.996.262-1.93 0-3.105-.176-3.631-.279.445 5.918 3.343 8.279 9.931 8.279s9.486-2.361 9.931-8.279z"/></svg>