<svg id="Layer_1" viewBox="0 0 24 24" xmlns="http://www.w3.org/2000/svg" data-name="Layer 1"><path d="m17 16.5c0 .276-.224.5-.5.5h-9c-.276 0-.5-.224-.5-.5s.224-.5.5-.5h9c.276 0 .5.224.5.5zm-7-9c0-.276-.224-.5-.5-.5h-3c-.276 0-.5.224-.5.5s.224.5.5.5h3c.276 0 .5-.224.5-.5zm13 4.5c0 7.813-3.187 11-11 11s-11-3.187-11-11 3.187-11 11-11 11 3.187 11 11zm-1 0c0-7.196-2.804-10-10-10s-10 2.804-10 10 2.804 10 10 10 10-2.804 10-10zm-13.75-1c0 .414.336.75.75.75s.75-.336.75-.75-.336-.75-.75-.75-.75.336-.75.75zm6 .003c0 .414.336.75.75.75s.75-.336.75-.75-.336-.75-.75-.75-.75.336-.75.75zm-1.974-2.338c.242.122.547.026.671-.224.477-.953 1.051-1.397 1.864-1.438.439-.033.825.115 1.483.412.252.116.548.002.661-.25.114-.251.002-.548-.25-.661-.774-.35-1.32-.533-1.945-.5-1.183.061-2.068.712-2.708 1.99-.124.247-.023.547.224.671z"/></svg>