<svg id="Layer_1" viewBox="0 0 24 24" xmlns="http://www.w3.org/2000/svg" data-name="Layer 1"><path d="m23 9.5c0-1.24-.319-2.712-.333-2.774-.06-.254-.26-.384-.522-.405-1.405-3.679-4.534-5.32-10.145-5.32s-8.74 1.64-10.145 5.319c-.262.021-.462.151-.522.405-.014.062-.333 1.534-.333 2.774 0 .236.014.479.033.72-.001.011-.007.019-.007.03-.013.328-.025 1.403-.025 1.75 0 7.813 3.187 11 11 11s11-3.187 11-11c0-.338-.033-1.247-.047-1.596.028-.3.047-.609.047-.904zm-8.757-2.226c.642-.092 2.12-.274 3.757-.274s3.115.183 3.757.274c.091.489.243 1.429.243 2.226s-.152 1.736-.243 2.226c-.642.092-2.12.274-3.757.274s-3.115-.183-3.757-.274c-.091-.489-.243-1.429-.243-2.226s.152-1.736.243-2.226zm-2.243-5.274c4.844 0 7.628 1.304 8.967 4.167-.774-.084-1.826-.167-2.967-.167-2.267 0-4.184.326-4.264.34-.2.035-.36.188-.403.386-.008.037-.125.581-.218 1.274h-2.23c-.093-.693-.21-1.237-.218-1.274-.043-.198-.203-.351-.403-.386-.08-.014-1.997-.34-4.264-.34-1.142 0-2.193.083-2.967.167 1.339-2.863 4.123-4.167 8.967-4.167zm-10 7.5c0-.797.152-1.736.243-2.226.642-.092 2.12-.274 3.757-.274s3.115.183 3.757.274c.091.489.243 1.429.243 2.226s-.152 1.736-.243 2.226c-.642.092-2.12.274-3.757.274s-3.115-.183-3.757-.274c-.091-.489-.243-1.429-.243-2.226zm10 12.5c-6.952 0-9.797-2.63-9.982-9.296.61.091 2.177.296 3.982.296 2.267 0 4.184-.326 4.264-.34.2-.035.36-.188.403-.386.014-.062.333-1.534.333-2.774 0-.164-.006-.332-.016-.5h2.032c-.01.168-.016.336-.016.5 0 1.24.319 2.712.333 2.774.043.198.203.351.403.386.08.014 1.997.34 4.264.34 1.805 0 3.372-.205 3.982-.296-.185 6.666-3.03 9.296-9.982 9.296zm4.895-5.958c.17.218.131.532-.087.702-1.085.845-2.657 1.256-4.808 1.256s-3.723-.411-4.808-1.256c-.218-.17-.257-.484-.087-.702s.482-.257.702-.087c.902.703 2.273 1.045 4.192 1.045s3.29-.342 4.192-1.045c.219-.17.531-.131.702.087z"/></svg>