<svg id="Layer_1" viewBox="0 0 24 24" xmlns="http://www.w3.org/2000/svg" data-name="Layer 1"><path d="m17.841 10.866c-.83.774-1.574 1.134-2.341 1.134s-1.512-.36-2.341-1.134c-.202-.188-.213-.505-.024-.707s.504-.212.707-.024c1.266 1.182 2.052 1.182 3.317 0 .203-.189.518-.177.707.024.188.202.177.519-.024.707zm-7 0c.202-.188.213-.505.024-.707s-.504-.213-.707-.024c-1.266 1.182-2.052 1.182-3.317 0-.202-.188-.518-.177-.707.024-.188.202-.177.519.024.707.83.774 1.574 1.134 2.341 1.134s1.512-.36 2.341-1.134zm1.159-9.866c-7.813 0-11 3.187-11 11s3.187 11 11 11c1.812 0 3.326-.169 4.629-.517.267-.071.425-.345.354-.612s-.348-.425-.612-.354c-1.218.325-2.648.483-4.371.483-7.196 0-10-2.804-10-10s2.804-10 10-10 10 2.804 10 10c0 1.074-.064 2.059-.191 2.928-.04.273.149.527.422.567.274.04.527-.149.567-.422.134-.917.202-1.951.202-3.072 0-7.813-3.187-11-11-11zm-3.171 15.877c.677-.59 1.714-.877 3.171-.877s2.495.287 3.171.877c.207.181.523.16.706-.048.182-.208.16-.524-.048-.706-.867-.756-2.12-1.123-3.829-1.123s-2.961.367-3.829 1.123c-.208.182-.23.497-.048.706.182.208.497.229.706.048zm13.171 2.116c0 1.353-.654 2.007-2 2.007s-2-.654-2-2c0-1.427-.528-2.375-.914-3.068-.307-.521.239-1.058.782-.91 2.049.446 4.132 1.955 4.132 3.971zm-1 .007c0-1.264-1.261-2.302-2.643-2.798.33.695.643 1.606.643 2.798 0 .794.206 1 1 1s1-.206 1-1z"/></svg>