<svg id="Layer_1" viewBox="0 0 24 24" xmlns="http://www.w3.org/2000/svg" data-name="Layer 1"><path d="m12 20c2.075 0 3-.925 3-3v-2h1.5c.276 0 .5-.224.5-.5s-.224-.5-.5-.5h-9c-.276 0-.5.224-.5.5s.224.5.5.5h1.5v2c0 2.075.925 3 3 3zm2-3c0 1.514-.486 2-2 2s-2-.486-2-2v-2h4zm9-5c0 7.813-3.187 11-11 11s-11-3.187-11-11c0-2.977.471-5.239 1.439-6.917.138-.239.444-.32.683-.183.239.138.321.443.183.683-.878 1.521-1.305 3.62-1.305 6.417 0 7.196 2.804 10 10 10s10-2.804 10-10c0-2.688-.393-4.725-1.201-6.229-.131-.243-.039-.546.204-.677.242-.129.547-.04.677.204.889 1.653 1.32 3.846 1.32 6.702zm-12.5-10.462c-.011-.276.204-.509.48-.52.66-.025 1.379-.025 2.039 0 .276.011.491.243.48.52-.011.27-.232.48-.5.48h-.02c-.637-.025-1.324-.025-1.961 0-.318 0-.509-.205-.52-.48zm3.347 6.972c-.018-.275.191-.514.467-.531.306-.029.514.192.531.467.056.872.784 1.555 1.659 1.555.918 0 1.664-.746 1.664-1.663s-.746-1.664-1.664-1.664c-1.385 0-2.43-.982-2.43-2.285 0-1.137.829-2.087 1.932-2.326l.003-.563c0-.275.225-.498.5-.498h.002c.276 0 .499.227.498.502l-.003.544c.851.156 1.573.734 1.87 1.54.096.259-.037.547-.296.642-.257.097-.547-.036-.642-.296-.206-.558-.765-.932-1.392-.932-.812 0-1.473.622-1.473 1.388 0 .745.602 1.285 1.43 1.285 1.469 0 2.664 1.195 2.664 2.664 0 1.298-.935 2.378-2.166 2.613l-.002.552c0 .275-.225.498-.5.498h-.002c-.276 0-.499-.226-.498-.502l.002-.547c-1.168-.225-2.077-1.216-2.155-2.442zm-9 0c-.018-.275.191-.514.467-.531.293-.029.514.192.531.467.056.872.784 1.555 1.659 1.555.918 0 1.664-.746 1.664-1.663s-.746-1.664-1.664-1.664c-1.385 0-2.43-.982-2.43-2.285 0-1.137.829-2.087 1.932-2.326l.003-.563c0-.275.225-.498.5-.498h.002c.276 0 .499.227.498.502l-.003.544c.851.156 1.573.734 1.87 1.54.096.259-.037.547-.296.642-.257.097-.547-.036-.642-.296-.206-.558-.765-.932-1.392-.932-.812 0-1.473.622-1.473 1.388 0 .745.602 1.285 1.43 1.285 1.469 0 2.664 1.195 2.664 2.664 0 1.298-.935 2.378-2.166 2.613l-.002.552c0 .275-.225.498-.5.498h-.002c-.276 0-.499-.226-.498-.502l.002-.547c-1.168-.225-2.077-1.216-2.155-2.442z"/></svg>