<svg id="Layer_1" viewBox="0 0 24 24" xmlns="http://www.w3.org/2000/svg" data-name="Layer 1"><path d="m16.808 10.744c-1.084.845-2.657 1.256-4.808 1.256s-3.723-.411-4.808-1.256c-.218-.17-.256-.484-.087-.702s.484-.258.702-.087c.901.703 2.273 1.045 4.192 1.045s3.291-.342 4.192-1.045c.217-.171.532-.131.702.087.169.218.131.532-.087.702zm-10.808-3.244c0 .276.224.5.5.5s.5-.224.5-.5c0-1.149.351-1.5 1.5-1.5s1.5.351 1.5 1.5c0 .276.224.5.5.5s.5-.224.5-.5c0-1.706-.794-2.5-2.5-2.5s-2.5.794-2.5 2.5zm7 0c0 .276.224.5.5.5s.5-.224.5-.5c0-1.149.351-1.5 1.5-1.5s1.5.351 1.5 1.5c0 .276.224.5.5.5s.5-.224.5-.5c0-1.706-.794-2.5-2.5-2.5s-2.5.794-2.5 2.5zm9.765 10.576c-.232-.146-.542-.075-.689.158-.023.038-2.391 3.762-5.076 3.762-.613 0-1.487-.144-2.17-.826-.535-.535-.83-1.247-.83-2.004 0-.322.008-.617.017-.904 1.144-.601 3.396-2.206 4.68-4.547.133-.242.044-.546-.198-.679-.242-.134-.546-.044-.679.198-1.008 1.837-2.687 3.163-3.735 3.828.136-1.6.386-2.395.389-2.405.086-.263-.056-.545-.318-.632-.263-.083-.544.056-.631.316-.021.064-.526 1.614-.526 4.824 0 1.024.399 1.987 1.123 2.711.924.925 2.075 1.119 2.877 1.119 3.24 0 5.816-4.059 5.924-4.23.146-.234.076-.543-.159-.689zm-1.755-5.04c-.251-.125-.548-.021-.669.228-.365.743-1.262 2.229-3.164 3.842-.211.179-.237.494-.058.705.179.212.495.236.705.059 2.041-1.73 3.015-3.352 3.415-4.164.122-.248.02-.548-.228-.669zm-2.009 6.464c.104 0 .209-.032.299-.1 2.071-1.554 3.104-3.591 3.147-3.677.124-.247.023-.547-.223-.67-.246-.124-.546-.023-.671.222-.01.02-.979 1.919-2.853 3.324-.387.269-.161.918.3.9zm-9.157-5.475c-.262.087-.404.369-.318.632.003.01.253.806.389 2.405-1.047-.665-2.727-1.991-3.735-3.828-.133-.242-.436-.332-.679-.198-.242.133-.331.437-.198.679 1.284 2.341 3.536 3.946 4.68 4.547.01.287.017.582.017.904 0 .757-.295 1.469-.83 2.004-.683.683-1.557.826-2.17.826-2.685 0-5.053-3.724-5.076-3.762-.148-.234-.457-.306-.689-.158-.234.146-.305.455-.159.689.108.172 2.684 4.23 5.924 4.23.802 0 1.953-.194 2.877-1.119.724-.724 1.123-1.687 1.123-2.711 0-3.21-.504-4.76-.526-4.824-.087-.261-.366-.4-.631-.316zm-3.344 3.962c.447.017.682-.6.324-.882-1.902-1.612-2.798-3.099-3.164-3.842-.121-.247-.419-.351-.669-.228-.248.121-.35.421-.228.669.399.812 1.374 2.434 3.415 4.164.094.079.208.118.323.118zm-4.053-2.712c-.124-.245-.424-.345-.671-.222s-.347.423-.223.67c.043.086 1.077 2.123 3.147 3.677.219.164.534.121.7-.101.166-.221.121-.534-.1-.7-1.875-1.405-2.843-3.305-2.853-3.324zm-.952-3.275c.276.013.504-.216.509-.49.127-6.844 2.93-9.51 9.996-9.51s9.868 2.666 9.996 9.51c.005.272.228.49.5.49h.009c.276-.005.496-.233.491-.51-.137-7.353-3.425-10.49-10.996-10.49s-10.858 3.138-10.996 10.49c-.005.276.214.505.491.51z"/></svg>