<svg id="Layer_1" viewBox="0 0 24 24" xmlns="http://www.w3.org/2000/svg" data-name="Layer 1"><path d="m23 11.5c0 6.074-1.965 9.308-6.372 10.483-.26.07-.542-.085-.612-.354-.071-.267.087-.541.354-.612 3.946-1.053 5.629-3.898 5.629-9.517 0-7.196-2.804-10-10-10s-9.999 2.804-9.999 10c0 3.739.746 6.207 2.349 7.766.198.192.202.509.01.707-.193.198-.508.202-.707.01-1.809-1.76-2.651-4.455-2.651-8.482-.001-7.814 3.186-11.001 10.999-11.001s11 3.187 11 11zm-7.25-.5c0-.414-.336-.75-.75-.75s-.75.336-.75.75.336.75.75.75.75-.336.75-.75zm-7.5-1c0 .414.336.75.75.75s.75-.336.75-.75-.336-.75-.75-.75-.75.336-.75.75zm2.803-2.562c.124.249.429.346.671.224.247-.124.347-.424.224-.671-.64-1.279-1.525-1.93-2.708-1.99-.645-.041-1.172.151-1.945.499-.251.113-.364.41-.25.661s.407.365.662.251c.658-.297 1.038-.428 1.483-.413.812.042 1.387.485 1.864 1.439zm2.933 8.15.011 5.179c.002.877-.594 1.645-1.449 1.867-.761.196-1.467.295-2.114.295-.874 0-1.641-.179-2.294-.537-.703-.385-1.619-1.107-1.986-2.362-.283-.968-.17-2.025.309-2.902 1.546-2.827 2.737-3.948 2.787-3.994.202-.19.517-.175.705.025.188.202.177.518-.024.706-.008.008-.661.633-1.613 2.1 2.043-.152 5.481-.865 7.862-2.849.213-.178.528-.147.705.063.177.212.148.527-.064.704-.854.711-1.831 1.267-2.834 1.704zm-.999.396c-2.052.728-4.08.988-5.297 1.012-.115.199-.229.391-.35.611-.353.646-.436 1.427-.227 2.142.271.927.969 1.472 1.507 1.767.909.497 2.145.548 3.677.15.413-.106.701-.476.7-.896l-.011-4.785z"/></svg>