<svg id="Layer_1" viewBox="0 0 24 24" xmlns="http://www.w3.org/2000/svg" data-name="Layer 1"><path d="m16.816 13.265c-1.253-.121-3.106-.265-4.816-.265s-3.563.144-4.816.265c-1.281.123-2.178 1.04-2.184 2.235v.002.007c.007 1.188.904 2.104 2.184 2.227 1.253.121 3.106.265 4.816.265.662 0 1.338-.025 2-.059v1.559c0 .276.224.5.5.5s.5-.224.5-.5v-1.617c.668-.046 1.3-.098 1.816-.148.45-.043.85-.186 1.184-.402v5.167c0 .276.224.5.5.5s.5-.224.5-.5v-7.001c-.003-1.192-.901-2.111-2.184-2.234zm-10.816 2.234c.003-.771.645-1.178 1.279-1.239.491-.047 1.089-.096 1.721-.141v2.761c-.631-.044-1.23-.093-1.721-.141-.634-.061-1.276-.468-1.279-1.241zm6 1.501c-.661 0-1.338-.026-2-.06v-2.881c.662-.034 1.339-.06 2-.06s1.338.026 2 .06v2.881c-.662.034-1.339.06-2 .06zm4.721-.26c-.491.047-1.089.096-1.721.141v-2.761c.631.044 1.23.093 1.721.141.635.061 1.276.469 1.279 1.239-.003.772-.645 1.18-1.279 1.241zm6.279-4.74v8.5c0 .276-.224.5-.5.5s-.5-.224-.5-.5v-8.5c0-7.196-2.804-10-10-10s-10 2.804-10 10v7.5c0 .276-.224.5-.5.5s-.5-.224-.5-.5v-7.5c0-7.813 3.187-11 11-11s11 3.187 11 11zm-7.008 10.133c.049.272-.131.532-.403.582-1.061.192-2.235.286-3.589.286-3.621 0-6.129-.671-7.895-2.113-.214-.175-.246-.49-.071-.704.174-.214.488-.246.704-.071 1.555 1.27 3.931 1.887 7.262 1.887 1.294 0 2.41-.088 3.411-.27.276-.049.532.131.582.403zm-6.992-11.384c-.414 0-.75-.336-.75-.75s.336-.75.75-.75.75.336.75.75-.336.75-.75.75zm6 0c-.414 0-.75-.336-.75-.75s.336-.75.75-.75.75.336.75.75-.336.75-.75.75z"/></svg>