<svg id="Layer_1" viewBox="0 0 24 24" xmlns="http://www.w3.org/2000/svg" data-name="Layer 1"><path d="m17.966 10.32c.1.257-.029.547-.286.646-.252.098-.547-.026-.646-.287-.299-.773-.675-1.243-1.183-1.479-.524-.245-1.262-.266-2.251-.064-.272.06-.535-.12-.589-.392-.055-.271.121-.534.391-.589 1.224-.247 2.136-.203 2.87.137.749.347 1.303 1.01 1.695 2.027zm-9.816-1.119c.523-.245 1.26-.266 2.251-.064.271.057.535-.121.589-.392s-.121-.534-.391-.589c-1.222-.246-2.136-.203-2.87.137-.749.347-1.304 1.01-1.696 2.027-.1.257.029.547.286.646.252.098.547-.026.646-.287.299-.773.675-1.243 1.184-1.479zm3.85-8.201c-7.813 0-11 3.187-11 11 0 7.269 2.832 10.545 9.469 10.955.273.018.514-.192.53-.468.017-.276-.192-.514-.468-.53-6.139-.379-8.531-3.171-8.531-9.957 0-7.196 2.804-10 10-10s10 2.804 10 10c0 4.057-.893 6.653-2.81 8.17-.217.172-.253.486-.082.703.171.216.486.254.702.082 2.176-1.723 3.19-4.567 3.19-8.955 0-7.813-3.187-11-11-11zm4.968 14.189c-.103-.319-.511-.427-.775-.233-.901.703-2.273 1.045-4.192 1.045s-3.291-.342-4.192-1.045c-.218-.171-.533-.13-.702.087-.169.218-.131.532.087.702 1.084.845 2.657 1.256 4.808 1.256.357 0 .674-.029 1-.051v4.051c0 .276.224.5.5.5s.5-.224.5-.5v-4.166c.761-.124 1.436-.315 2-.597v6.263c0 .276.224.5.5.5s.5-.224.5-.5v-7.15c-.011-.054-.016-.108-.032-.161z"/></svg>