<svg id="Layer_1" viewBox="0 0 24 24" xmlns="http://www.w3.org/2000/svg" data-name="Layer 1"><path d="m17.033 7.68c-.299-.774-.675-1.244-1.183-1.479-.526-.244-1.263-.265-2.251-.063-.271.054-.535-.12-.59-.391s.12-.534.391-.589c1.223-.246 2.134-.205 2.87.137.748.347 1.303 1.009 1.696 2.026.1.257-.029.547-.286.646-.252.099-.547-.026-.647-.286zm-8.884-1.479c.525-.244 1.262-.265 2.251-.063.271.054.535-.12.59-.391s-.12-.534-.391-.589c-1.222-.246-2.134-.204-2.87.137-.748.347-1.303 1.009-1.696 2.026-.1.257.029.547.286.646.252.099.547-.026.647-.286.299-.774.675-1.244 1.183-1.479zm3.851-5.201c-7.813 0-11 3.187-11 11 0 5.009 1.354 8.079 4.261 9.66.243.13.547.043.679-.201.132-.243.042-.546-.2-.678-2.586-1.406-3.739-4.114-3.739-8.781-.001-7.196 2.803-10 9.999-10s10 2.804 10 10c0 5.618-1.684 8.464-5.629 9.517-.267.071-.426.345-.354.612.07.269.352.426.612.354 4.406-1.176 6.371-4.409 6.371-10.483 0-7.813-3.187-11-11-11zm-3.882 10.652c-.055.271.121.534.392.588.264.055.536-.119.589-.392.223-1.109.801-1.848 2.901-1.848 1.901 0 2.435.614 2.705 1.215.114.252.411.361.661.25.252-.114.364-.41.251-.662-.729-1.617-2.414-1.804-3.617-1.804-1.438 0-3.405.275-3.882 2.652zm8.647 6.429c-.237-.147-.544-.075-.689.158-.023.038-2.391 3.762-5.076 3.762-.613 0-1.487-.143-2.17-.826-.527-.527-.83-1.258-.83-2.004 0-.322.008-.618.017-.905 1.143-.6 3.395-2.205 4.68-4.547.133-.242.044-.546-.198-.679-.239-.133-.546-.045-.679.198-1.008 1.838-2.687 3.163-3.735 3.828.135-1.599.385-2.395.389-2.406.086-.262-.057-.544-.318-.631-.255-.083-.543.054-.631.316-.021.064-.525 1.614-.525 4.825 0 1.024.398 1.987 1.123 2.711.731.732 1.727 1.119 2.877 1.119 3.239 0 5.815-4.058 5.924-4.231.146-.234.075-.542-.158-.688zm-1.756-5.041c-.248-.121-.547-.02-.669.228-.365.743-1.263 2.229-3.164 3.842-.211.179-.236.494-.059.705.18.211.495.236.705.058 2.04-1.73 3.015-3.351 3.414-4.164.122-.248.021-.547-.228-.669zm-2.01 6.464c.104 0 .21-.033.3-.1 2.071-1.553 3.104-3.59 3.147-3.676.123-.247.023-.547-.224-.67-.242-.123-.547-.026-.671.223-.009.019-.978 1.918-2.853 3.324-.387.269-.16.918.3.9z"/></svg>