<svg id="Layer_1" viewBox="0 0 24 24" xmlns="http://www.w3.org/2000/svg" data-name="Layer 1"><path d="m22.362 6.934c.673-2.547.639-4.855.637-4.94.036-.481-.478-.992-.911-.985-.217-.041-.359-.011-2.629.992l-.74.325c-1.683-.901-3.895-1.325-6.719-1.325s-5.037.424-6.721 1.325c-.189-.082-.433-.189-.718-.315-2.114-.937-2.395-1.02-2.598-1.011-.506.004-.974.481-.962.981-.002.097-.039 2.404.636 4.956-.431 1.408-.637 3.086-.637 5.062 0 7.813 3.187 11 11 11s11-3.187 11-11c0-1.978-.206-3.658-.638-5.066zm-.363-4.933c.002.075.018 1.504-.306 3.315-.499-.943-1.141-1.727-1.953-2.347.676-.298 2.072-.918 2.259-.968zm-17.74.969c-.811.62-1.453 1.404-1.951 2.346-.317-1.77-.31-3.173-.314-3.308.352.113 1.603.669 2.265.962zm7.741 19.03c-7.196 0-10-2.804-10-10s2.804-10 10-10 10 2.804 10 10-2.804 10-10 10zm4.895-6.958c.17.218.131.532-.087.702-1.085.845-2.657 1.256-4.808 1.256s-3.723-.411-4.808-1.256c-.218-.17-.257-.484-.087-.702s.483-.257.702-.087c.902.703 2.273 1.045 4.192 1.045s3.29-.342 4.192-1.045c.219-.17.531-.131.702.087zm-9.749-7.188c-.195-.195-.195-.512 0-.707.189-.189.489-.191.686-.014 0 0 .992.891 1.707 1.606.778.778.427 1.695 0 2.122-.195.195-.512.195-.707 0s-.195-.512 0-.707c.155-.163.285-.423 0-.708-.698-.698-1.679-1.585-1.686-1.592zm9.707-.707c.195.195.195.512 0 .707-.006.006-.987.894-1.686 1.592-.285.285-.155.545.005.713.188.198.185.514-.012.704-.196.191-.506.192-.7-.002-.427-.427-.778-1.344 0-2.122.715-.715 1.707-1.606 1.707-1.606.196-.177.497-.175.686.014z"/></svg>