<svg id="Layer_1" viewBox="0 0 24 24" xmlns="http://www.w3.org/2000/svg" data-name="Layer 1"><path d="m12 6c8.122 0 11-.654 11-2.5s-2.878-2.5-11-2.5-11 .654-11 2.5 2.878 2.5 11 2.5zm0-4c6.636 0 10 .505 10 1.5s-3.364 1.5-10 1.5-10-.505-10-1.5 3.364-1.5 10-1.5zm-5 9.5c0 .276-.224.5-.5.5s-.5-.224-.5-.5c0-1.706.794-2.5 2.5-2.5s2.5.794 2.5 2.5c0 .276-.224.5-.5.5s-.5-.224-.5-.5c0-1.149-.351-1.5-1.5-1.5s-1.5.351-1.5 1.5zm10 0c0-1.149-.351-1.5-1.5-1.5s-1.5.351-1.5 1.5c0 .276-.224.5-.5.5s-.5-.224-.5-.5c0-1.706.794-2.5 2.5-2.5s2.5.794 2.5 2.5c0 .276-.224.5-.5.5s-.5-.224-.5-.5zm-9.808 4.244c-.218-.17-.256-.484-.087-.702.17-.217.484-.258.702-.087.901.703 2.273 1.045 4.192 1.045s3.291-.342 4.192-1.045c.218-.171.532-.13.702.087.169.218.131.532-.087.702-1.084.845-2.657 1.256-4.808 1.256s-3.723-.411-4.808-1.256zm15.291-8.373c.348 1.303.517 2.817.517 4.629 0 7.813-3.187 11-11 11s-11-3.187-11-11c0-1.812.169-3.326.517-4.629.071-.267.349-.417.612-.354.267.071.425.346.354.612-.325 1.218-.483 2.647-.483 4.371 0 7.196 2.804 10 10 10s10-2.804 10-10c0-1.724-.158-3.153-.483-4.371-.071-.267.087-.541.354-.612.264-.063.541.087.612.354z"/></svg>