<svg id="Layer_1" viewBox="0 0 24 24" xmlns="http://www.w3.org/2000/svg" data-name="Layer 1"><path d="m22.996 19.021c-.01.221-.164.408-.378.462-.06.015-1.109.269-2.62.414v2.6c0 .276-.224.5-.5.5s-.5-.224-.5-.5v-2.526c-.483.025-1.017.034-1.514.02-.276-.009-.493-.239-.485-.515s.255-.495.515-.485c.159.005.321.007.485.007 1.77 0 3.298-.261 3.987-.4 0-.183.006-.409.012-.693.063-2.994-.946-7.992-2.038-10.09-.193-.381-.589-.813-1.961-.813-.794 0-1.34.141-1.669.431-.206.182-.521.161-.706-.046-.182-.207-.161-.523.046-.706.527-.463 1.267-.679 2.329-.679.928 0 2.234.141 2.851 1.356 1.17 2.249 2.214 7.387 2.148 10.568-.015.672 0 1.058 0 1.095zm-7.398-8.345c.017.072.401 1.791.401 3.823s-.385 3.751-.401 3.823c-.045.198-.205.35-.405.383-.038.006-.531.087-1.193.162v3.63c0 .276-.224.5-.5.5s-.5-.224-.5-.5v-3.538c-.332.023-.673.039-1 .039s-.667-.016-1-.039v3.538c0 .276-.224.5-.5.5s-.5-.224-.5-.5v-3.63c-.662-.075-1.156-.156-1.194-.162-.2-.033-.36-.185-.405-.383-.016-.072-.401-1.791-.401-3.823s.385-3.751.401-3.823c.045-.198.205-.35.405-.383.072-.012 1.769-.293 3.193-.293s3.121.281 3.192.293c.2.033.36.185.405.383zm-.599 3.823c0-1.412-.202-2.69-.31-3.272-.559-.081-1.711-.227-2.689-.227s-2.129.146-2.689.227c-.108.582-.31 1.86-.31 3.272s.202 2.69.31 3.272c.56.081 1.712.227 2.689.227s2.129-.146 2.689-.227c.108-.582.31-1.86.31-3.272zm-4.998-7.498c0-1.345.654-1.999 1.999-1.999s1.999.654 1.999 1.999-.654 1.999-1.999 1.999-1.999-.654-1.999-1.999zm.999 0c0 .794.206 1 1 1s1-.206 1-1-.206-1-1-1-1 .206-1 1zm-6.998-3.999c0-1.345.654-1.999 1.999-1.999s1.999.654 1.999 1.999-.654 1.999-1.999 1.999-1.999-.654-1.999-1.999zm1 0c0 .794.206 1 1 1s1-.206 1-1-.206-1-1-1-1 .206-1 1zm10.997 0c0-1.345.654-1.999 1.999-1.999s1.999.654 1.999 1.999-.654 1.999-1.999 1.999-1.999-.654-1.999-1.999zm1 0c0 .794.206 1 1 1s1-.206 1-1-.206-1-1-1-1 .206-1 1zm-10.997 3.999c.794 0 1.34.141 1.669.431.206.181.523.161.705-.046s.162-.523-.045-.706c-.527-.463-1.267-.679-2.329-.679-.929 0-2.235.141-2.848 1.352-1.173 2.255-2.218 7.392-2.15 10.572.014.672 0 1.058 0 1.095.011.221.164.408.378.462.06.015 1.109.269 2.62.414v2.6c0 .276.224.5.5.5s.5-.224.5-.5v-2.526c.483.025 1.017.034 1.514.02.276-.009.493-.239.485-.515s-.254-.478-.515-.485c-.159.005-.321.007-.485.007-1.771 0-3.298-.261-3.987-.4 0-.183-.006-.409-.012-.693-.063-2.992.946-7.99 2.04-10.095.19-.376.585-.808 1.958-.808z"/></svg>