<svg id="Layer_1" viewBox="0 0 24 24" xmlns="http://www.w3.org/2000/svg" data-name="Layer 1"><path d="m15.194 10.292c-.072-.012-1.769-.292-3.194-.292s-3.122.281-3.194.292c-.2.033-.36.185-.405.383-.016.072-.401 1.792-.401 3.825s.385 3.752.401 3.825c.045.198.205.35.405.383.038.006.531.087 1.194.162v3.631c0 .276.224.5.5.5s.5-.224.5-.5v-3.539c.333.023.673.039 1 .039s.667-.016 1-.039v3.539c0 .276.224.5.5.5s.5-.224.5-.5v-3.631c.663-.075 1.156-.156 1.194-.162.2-.033.36-.185.405-.383.016-.072.401-1.792.401-3.825s-.385-3.752-.401-3.825c-.045-.198-.205-.35-.405-.383zm-.504 7.48c-.56.081-1.713.227-2.69.227s-2.13-.146-2.69-.227c-.108-.582-.31-1.861-.31-3.273s.202-2.691.31-3.273c.56-.081 1.713-.227 2.69-.227s2.13.146 2.69.227c.108.582.31 1.861.31 3.273s-.202 2.691-.31 3.273zm-2.69-8.773c1.346 0 2-.654 2-2s-.654-2-2-2-2 .654-2 2 .654 2 2 2zm0-3c.794 0 1 .206 1 1s-.206 1-1 1-1-.206-1-1 .206-1 1-1zm-6-1c1.346 0 2-.654 2-2s-.654-2-2-2-2 .654-2 2 .654 2 2 2zm0-3c.794 0 1 .206 1 1s-.206 1-1 1-1-.206-1-1 .206-1 1-1zm1.999 4.594c-.02.276-.267.484-.535.462-1.832-.134-4.184.107-5.045.239-.134.682-.419 2.352-.419 4.204s.285 3.522.419 4.204c.571.087 1.804.253 3.095.289.276.008.494.238.486.514-.008.271-.23.486-.5.486h-.014c-.165-.005-.325-.013-.486-.021v5.528c0 .276-.224.5-.5.5s-.5-.224-.5-.5v-5.598c-1.163-.105-2.038-.258-2.088-.267-.197-.035-.354-.184-.399-.378-.021-.09-.513-2.229-.513-4.757s.492-4.667.513-4.757c.045-.194.202-.343.399-.378.083-.015 2.067-.365 4.088-.365.523 0 1.047.024 1.536.06.275.02.482.259.462.535zm10.001-1.594c1.346 0 2-.654 2-2s-.654-2-2-2-2 .654-2 2 .654 2 2 2zm0-3c.794 0 1 .206 1 1s-.206 1-1 1-1-.206-1-1 .206-1 1-1zm5 9.5c0 2.528-.492 4.667-.513 4.757-.045.194-.202.343-.399.378-.05.009-.925.162-2.088.267v5.598c0 .276-.224.5-.5.5s-.5-.224-.5-.5v-5.528c-.161.008-.322.017-.486.021h-.014c-.27 0-.492-.215-.5-.486-.007-.276.21-.506.486-.514 1.293-.036 2.524-.202 3.095-.289.134-.682.419-2.352.419-4.205s-.285-3.522-.419-4.204c-.861-.131-3.214-.372-5.045-.239-.275.023-.515-.187-.535-.462s.187-.515.462-.535c.489-.036 1.013-.06 1.536-.06 2.021 0 4.004.35 4.088.365.197.035.354.184.399.378.021.09.513 2.229.513 4.757z"/></svg>