<svg id="Layer_1" viewBox="0 0 24 24" xmlns="http://www.w3.org/2000/svg" data-name="Layer 1"><path d="m22.996 19.022c-.011.221-.164.408-.378.462-.06.015-1.109.269-2.621.414v2.6c0 .276-.224.5-.5.5s-.5-.224-.5-.5v-2.526c-.483.025-1.017.034-1.514.02-.276-.009-.493-.239-.485-.515.009-.276.271-.478.515-.485.159.005.321.007.485.007 1.771 0 3.299-.261 3.988-.4 0-.183.006-.409.012-.693.063-2.993-.946-7.991-2.038-10.091-.193-.381-.588-.813-1.961-.813-.794 0-1.341.141-1.67.431-.207.182-.524.161-.705-.046-.182-.207-.162-.523.045-.706.527-.463 1.267-.679 2.33-.679.929 0 2.235.141 2.851 1.357 1.17 2.251 2.216 7.389 2.148 10.569-.014.672 0 1.058 0 1.096zm-7.399-8.346c.016.072.401 1.792.401 3.824s-.385 3.751-.401 3.824c-.045.198-.205.35-.405.383-.038.006-.531.087-1.194.162v3.63c0 .276-.224.5-.5.5s-.5-.224-.5-.5v-3.538c-.333.023-.673.039-1 .039s-.667-.016-1-.039v3.538c0 .276-.224.5-.5.5s-.5-.224-.5-.5v-3.63c-.662-.075-1.156-.156-1.194-.162-.2-.033-.36-.185-.405-.383-.016-.072-.401-1.792-.401-3.824s.385-3.751.401-3.824c.045-.198.205-.35.405-.383.072-.012 1.769-.293 3.193-.293s3.122.281 3.193.293c.2.033.36.185.405.383zm-.599 3.824c0-1.412-.202-2.69-.31-3.272-.56-.081-1.713-.228-2.69-.228s-2.13.146-2.69.228c-.108.582-.31 1.86-.31 3.272s.202 2.69.31 3.272c.56.081 1.713.228 2.69.228s2.13-.146 2.69-.228c.108-.582.31-1.86.31-3.272zm-4.999-7.499c0-1.346.654-2 2-2s2 .654 2 2-.654 2-2 2-2-.654-2-2zm1 0c0 .794.206 1 1 1s1-.206 1-1-.206-1-1-1-1 .206-1 1zm-6.999-4c0-1.346.654-2 2-2s2 .654 2 2-.654 2-2 2-2-.654-2-2zm.999 0c0 .794.206 1 1 1s1-.206 1-1-.206-1-1-1-1 .206-1 1zm10.999 0c0-1.346.654-2 2-2s2 .654 2 2-.654 2-2 2-2-.654-2-2zm1 0c0 .794.206 1 1 1s1-.206 1-1-.206-1-1-1-1 .206-1 1zm-9.463 3.058c-.489-.035-1.012-.059-1.535-.059-2.021 0-4.004.351-4.087.365-.197.035-.353.184-.399.379-.021.09-.513 2.227-.513 4.755s.492 4.665.513 4.755c.045.195.202.344.399.379.05.009.924.162 2.088.267v5.598c0 .276.224.5.5.5s.5-.224.5-.5v-5.527c.161.008.321.017.486.021.275.008.507-.209.514-.486.007-.275-.21-.506-.486-.514-1.291-.036-2.524-.202-3.095-.289-.134-.682-.419-2.351-.419-4.204s.285-3.522.419-4.204c.862-.131 3.213-.37 5.045-.239.274.02.515-.187.534-.463.02-.275-.187-.516-.463-.535z"/></svg>