<svg id="Layer_1" viewBox="0 0 24 24" xmlns="http://www.w3.org/2000/svg" data-name="Layer 1"><path d="m20.469 10.288c-1.485-1.159-3.385-1.56-5.213-1.102-.282.071-.785.282-1.172.52-.251-.224-.548-.4-.895-.517.561-.964 1.652-1.48 2.518-1.48 2.277 0 3.293-1.034 3.293-3.354s-1.016-3.355-3.293-3.355c-2.189 0-4.165.923-5.419 2.532-1.159 1.485-1.56 3.385-1.101 5.211.07.279.277.777.513 1.163-.221.253-.393.553-.509.906-.965-.56-1.481-1.652-1.481-2.519 0-2.277-1.035-3.293-3.355-3.293s-3.355 1.016-3.355 3.293c0 2.189.923 4.164 2.531 5.419 1.083.845 2.386 1.287 3.72 1.287.496 0 .997-.062 1.492-.186.276-.069.766-.272 1.149-.504.252.224.555.398.912.512-.563.956-1.648 1.469-2.51 1.469-2.277 0-3.293 1.034-3.293 3.354s1.016 3.355 3.293 3.355c2.189 0 4.164-.923 5.419-2.531 1.158-1.486 1.56-3.386 1.102-5.213-.07-.276-.274-.768-.506-1.152.22-.253.391-.556.505-.914.962.561 1.478 1.651 1.478 2.516 0 2.277 1.034 3.293 3.354 3.293s3.355-1.016 3.355-3.293c0-2.189-.923-4.164-2.531-5.419zm-9.393-6.142c1.064-1.364 2.752-2.146 4.631-2.146 1.715 0 2.293.595 2.293 2.355s-.578 2.354-2.293 2.354c-1.286 0-2.85.797-3.538 2.304-.601-.053-1.213.09-1.661.296-.154-.272-.306-.631-.351-.81-.383-1.525-.048-3.112.919-4.354zm-2.576 9.697c-1.526.386-3.113.049-4.354-.919-1.364-1.064-2.146-2.752-2.146-4.631 0-1.715.594-2.293 2.355-2.293s2.355.578 2.355 2.293c0 1.286.796 2.849 2.304 3.538-.051.601.097 1.218.293 1.663-.271.153-.628.304-.807.349zm1.5-1.843c.027-1.375.646-1.991 1.997-2 1.324.008 1.979.665 2.003 1.991-.025 1.399-.624 2-1.997 2.009-1.357-.008-1.975-.624-2.003-2zm2.923 7.854c-1.064 1.364-2.751 2.146-4.63 2.146-1.714 0-2.293-.595-2.293-2.355s.579-2.354 2.293-2.354c1.286 0 2.848-.795 3.537-2.303.604.05 1.22-.087 1.666-.289.152.27.302.623.346.802.384 1.525.049 3.112-.919 4.354zm6.722-1.854c-1.761 0-2.354-.578-2.354-2.293 0-1.287-.797-2.85-2.305-3.539.054-.596-.1-1.204-.308-1.654.273-.156.641-.312.823-.358 1.525-.385 3.113-.048 4.354.92 1.364 1.063 2.146 2.751 2.146 4.63 0 1.715-.595 2.293-2.355 2.293z"/></svg>