<svg id="Layer_1" viewBox="0 0 24 24" xmlns="http://www.w3.org/2000/svg" data-name="Layer 1"><path d="m22.449 9.217c-.014-.039-.031-.076-.053-.11l-3.675-5.775c-.059-.092-.146-.163-.249-.201-1.74-.641-5.854-2.131-6.473-2.131s-4.732 1.49-6.473 2.131c-.103.038-.19.108-.249.201l-3.673 5.774c-.021.035-.039.072-.053.11-.022.067-.551 1.689-.551 4.883 0 4.232 1.031 7.376 1.075 7.508.049.146.163.262.309.313.126.044 3.147 1.078 9.616 1.078s9.49-1.034 9.616-1.078c.146-.051.26-.167.309-.313.044-.132 1.075-3.276 1.075-7.508 0-3.194-.528-4.816-.551-4.883zm-5.743 6.342c.146.677.294 1.675.294 2.942 0 .977-.086 1.925-.262 2.883l-3.91-2.92zm-4.713 2.281-4.312-3.22c.682-.35 2.401-1.119 4.319-1.119 1.907 0 3.612.758 4.303 1.111zm-4.993.661c0-1.25.147-2.245.292-2.925l3.867 2.888-3.899 2.92c-.175-.951-.261-1.901-.261-2.884zm1.28 3.371 3.715-2.783 3.726 2.783c-1.078.079-2.317.129-3.721.129s-2.642-.051-3.72-.129zm12.77-.821c-.452.129-1.557.406-3.349.628.201-1.056.299-2.101.299-3.178 0-2.697-.621-4.262-.647-4.327-.041-.1-.112-.184-.204-.24-.096-.059-2.387-1.433-5.148-1.433s-5.052 1.375-5.148 1.433c-.093.056-.164.141-.205.242-.026.066-.646 1.651-.646 4.325 0 1.083.098 2.129.299 3.177-1.792-.222-2.897-.499-3.349-.628-.235-.807-.95-3.539-.95-6.95 0-2.699.397-4.218.483-4.514l3.548-5.575c2.653-.974 5.575-1.979 5.957-2.012.404.032 3.327 1.038 5.98 2.012l3.548 5.575c.086.296.483 1.815.483 4.514 0 3.411-.715 6.143-.95 6.95z"/><path d="m12 5.5c-1.379 0-2.5 1.122-2.5 2.5s1.121 2.5 2.5 2.5 2.5-1.122 2.5-2.5-1.121-2.5-2.5-2.5zm0 4c-.827 0-1.5-.673-1.5-1.5s.673-1.5 1.5-1.5 1.5.673 1.5 1.5-.673 1.5-1.5 1.5z"/></svg>