<svg id="Layer_1" viewBox="0 0 24 24" xmlns="http://www.w3.org/2000/svg" data-name="Layer 1"><path d="m22.987 17.121c-.023-.102-.604-2.529-3.038-6.293-.076-.118-.199-.199-.338-.222-.114-.019-2.222-.363-5.627-.524l.015-1.529c.003-.271-.212-.496-.483-.504-.777-.027-1.999-.044-3.016-.048v-2.007c2.431-.055 4.97-.482 5.084-.501.272-.046.455-.305.409-.577-.047-.273-.307-.451-.577-.41-.028.005-2.933.493-5.416.493-2.692 0-5.383-.487-5.41-.492-.273-.053-.532.13-.582.401-.05.272.13.532.401.582.107.02 2.491.451 5.09.503v2.007c-1.202.006-1.953.033-3.002.075-.498.021-.531.087-.488 1.995-2.819.091-4.528.236-4.553.238-.275.024-.479.266-.455.541s.258.476.541.455c.036-.003 3.602-.306 8.957-.306 4.588 0 7.88.435 8.73.56 1.813 2.845 2.516 4.88 2.716 5.55-.232.248-.732.72-1.518 1.166-.793.449-1.444.625-1.762.691-.396-.39-1.425-1.465-2.448-3.039-.1-.153-.264-.245-.455-.226l-.859.067c-1.198.098-2.84.231-4.404.231-5.355 0-8.921-.303-8.957-.306-.283-.033-.517.18-.541.455s.18.517.455.541c.036.003 3.641.31 9.043.31 1.605 0 3.27-.135 4.485-.234l.56-.044c1.316 1.96 2.566 3.1 2.621 3.149.103.093.242.139.379.127.042-.004 1.047-.1 2.377-.853 1.324-.751 1.952-1.577 1.979-1.612.088-.118.12-.269.087-.413zm-15.977-7.078c-.007-.367-.011-.725-.011-.986.942-.036 1.711-.057 3.001-.057.899 0 2.099.013 2.994.035l-.009 1.008c-.776-.026-1.603-.042-2.485-.042-1.272 0-2.44.017-3.49.043z"/></svg>