<svg id="Layer_1" viewBox="0 0 24 24" xmlns="http://www.w3.org/2000/svg" data-name="Layer 1"><path d="m5 6.5c0-.276.224-.5.5-.5h6c.276 0 .5.224.5.5s-.224.5-.5.5h-6c-.276 0-.5-.224-.5-.5zm.5 3.5h6c.276 0 .5-.224.5-.5s-.224-.5-.5-.5h-6c-.276 0-.5.224-.5.5s.224.5.5.5zm0 3h7c.276 0 .5-.224.5-.5s-.224-.5-.5-.5h-7c-.276 0-.5.224-.5.5s.224.5.5.5zm17.138-7.314c-.546.484-1.073.953-1.604 1.402.239.834.439 1.67.595 2.487.067.346-.064.696-.343.914-.283.22-.658.262-.978.108-.82-.381-1.577-.783-2.309-1.229-.731.445-1.488.849-2.316 1.231-.316.153-.69.108-.97-.111-.278-.219-.409-.569-.343-.916.155-.816.355-1.652.595-2.484-.53-.45-1.058-.918-1.65-1.445-.273-.242-.381-.626-.274-.977.11-.352.416-.607.779-.653.846-.109 1.601-.19 2.309-.243.305-.737.652-1.495 1.034-2.254.165-.326.532-.508.852-.517.313-.026.649.173.822.517.382.759.729 1.517 1.034 2.254.708.053 1.463.134 2.312.243.361.046.665.302.774.651.111.363-.009.744-.32 1.021zm-.721-.698c-.773-.099-1.467-.172-2.12-.22-.379-.03-.704-.266-.85-.614-.285-.69-.608-1.398-.963-2.107-.313.688-.643 1.407-.932 2.106-.146.35-.471.585-.848.614-.655.049-1.35.122-2.122.221.545.484 1.036.919 1.529 1.338.301.255.424.663.314 1.04-.219.761-.403 1.525-.55 2.274.749-.352 1.438-.721 2.104-1.125.322-.192.718-.192 1.036-.003.669.408 1.358.776 2.106 1.128-.146-.749-.331-1.514-.55-2.276-.109-.375.014-.783.313-1.038.507-.43 1.011-.876 1.53-1.338zm-1.093 11.916c.071.37.176 1.512.176 2.461 0 .961-.277 1.675-.871 2.245-1.233.959-3.775 1.39-8.039 1.39-1.382-.012-6.12-.065-8.521-1.243-1.087-.475-1.827-1.592-2.088-3.243-.373-2.354-.48-3.993-.48-7.309-.001-4.507.972-8.646 1.013-8.82.04-.169.164-.305.328-.359.126-.042 3.123-1.025 7.158-1.025 3.012 0 5.009.369 5.093.385.271.051.449.312.398.583s-.319.45-.583.399c-.021-.004-1.997-.367-4.908-.367-3.203 0-5.768.659-6.575.894-.217 1.003-.925 4.576-.925 8.312 0 3.254.105 4.858.469 7.152.296 1.873 1.204 2.764 2.677 2.645 1.319-.002 1.842-.573 1.842-1.973 0-.604-.108-1.253-.18-1.683-.135-.371.075-.839.517-.788 1.559.18 3.938.436 6.343.442.844 0 1.729-.033 2.589-.086-.157-1.324-.229-2.608-.25-4.409-.003-.276.218-.503.494-.506.272-.051.503.218.506.494.02 1.784.092 3.047.249 4.351 1.165-.094 2.228-.218 3-.339.261-.038.517.135.568.398zm-.824 2.461c0-.621-.048-1.324-.097-1.797-1.663.228-4.187.432-6.419.432-2.08 0-4.109-.202-5.619-.372.062.408.122.915.122 1.401 0 1.426-.514 2.198-1.195 2.594 1.682.27 3.644.377 5.298.377 3.92 0 6.405-.386 7.386-1.146.355-.345.524-.801.524-1.489z"/></svg>