<?xml version="1.0" encoding="UTF-8"?>
<svg xmlns="http://www.w3.org/2000/svg" id="Layer_1" data-name="Layer 1" viewBox="0 0 24 24">
  <path d="M21.155,2.741c-1.125-1.139-2.799-1.741-4.841-1.741-3.986,0-8.983,2.241-12.153,5.448-3.871,3.919-3.813,8.39,.144,12.63l-3.033,3.07c-.194,.197-.192,.513,.004,.707,.098,.097,.225,.145,.352,.145,.129,0,.258-.05,.355-.148l3.025-3.062c2.123,2.03,4.289,3.059,6.444,3.059,2.093,0,4.125-.983,6.041-2.922,4.674-4.731,7.351-13.452,3.663-17.185Zm-.711,.703c2.044,2.069,1.757,6.121,.161,9.924H11.351l3.339-3.38c.194-.197,.192-.513-.004-.707-.197-.195-.513-.192-.707,.004l-5.333,5.398V4.306c2.496-1.42,5.313-2.306,7.667-2.306,1.769,0,3.197,.5,4.13,1.444ZM4.873,7.151c.806-.816,1.751-1.57,2.774-2.236V15.695l-2.639,2.671c-3.613-3.877-3.659-7.648-.135-11.215Zm11.909,12.071c-3.508,3.552-7.291,3.464-11.071-.145l4.653-4.71h9.789c-.878,1.805-2.04,3.507-3.371,4.854Z"/>
</svg>
