<svg id="Layer_1" viewBox="0 0 24 24" xmlns="http://www.w3.org/2000/svg" data-name="Layer 1"><path d="m22.981 6.49c0 2.742-.799 4.467-.834 4.539-.068.144-.2.247-.356.277-.067.013-1.693.326-4.768.522-.011 0-.022 0-.033 0-.26 0-.481-.203-.497-.467-.018-.275.191-.512.466-.53 2.314-.148 3.808-.366 4.379-.46.2-.528.644-1.929.644-3.881s-.445-3.353-.644-3.881c-.907-.149-4.146-.611-9.338-.611s-8.431.462-9.338.611c-.199.529-.644 1.929-.644 3.881s.446 3.353.644 3.881c.571.094 2.065.312 4.379.46.275.018.484.255.466.53s-.26.478-.53.466c-3.076-.196-4.7-.509-4.768-.522-.156-.03-.288-.133-.356-.277-.034-.072-.834-1.797-.834-4.539s.8-4.466.834-4.538c.068-.144.2-.247.356-.277.141-.028 3.526-.675 9.791-.675s9.65.647 9.792.675c.156.03.288.133.356.277.034.072.834 1.797.834 4.539zm-8.718.29c-.162.144-.307.273-.447.395.066.253.123.506.171.759.062.325-.061.656-.324.862-.262.206-.616.246-.919.106-.265-.123-.511-.25-.743-.382-.232.132-.478.258-.744.382-.301.14-.653.101-.917-.105-.264-.207-.388-.538-.325-.865.048-.252.105-.505.171-.758-.136-.118-.272-.24-.412-.364-.294-.261-.395-.624-.293-.955.101-.33.389-.573.734-.617.24-.031.463-.057.674-.077.1-.228.208-.455.321-.681.162-.321.491-.51.828-.485.273-.025.592.165.754.485.114.227.221.454.322.682.212.02.434.046.676.077.341.043.63.286.732.617s.002.694-.257.924zm-.85-.581c-.243-.029-.466-.051-.679-.067-.188-.014-.351-.133-.424-.307-.096-.231-.199-.461-.31-.691-.111.229-.214.46-.31.691-.072.174-.236.292-.424.307-.213.016-.437.039-.679.067.173.153.329.29.485.423.15.127.211.33.156.518-.073.253-.136.507-.19.76.251-.123.483-.251.701-.384.079-.048.17-.073.259-.073s.18.024.259.073c.219.133.451.261.702.384-.054-.253-.117-.506-.19-.759-.055-.189.007-.392.156-.519.161-.137.322-.278.485-.423zm-9.888 1.734c.048-.252.105-.505.171-.758-.136-.118-.272-.24-.412-.364-.294-.261-.395-.624-.293-.955.101-.33.389-.573.734-.617.24-.031.463-.057.674-.077.1-.228.208-.455.321-.681.162-.321.485-.51.828-.485.274-.025.592.165.754.485.114.227.221.454.322.682.212.02.434.046.676.078.342.043.63.285.732.616s.001.694-.258.924c-.162.144-.308.273-.447.395.066.253.122.506.171.759.063.327-.061.658-.324.863-.264.206-.615.247-.919.105-.265-.123-.511-.25-.743-.381-.232.132-.478.258-.744.382-.301.14-.653.101-.917-.105-.264-.207-.388-.538-.325-.865zm.574-1.734c.173.153.329.29.485.423.15.127.211.33.156.518-.073.253-.136.507-.19.76.251-.123.483-.251.701-.384.079-.048.17-.073.259-.073s.18.024.259.073c.219.133.45.261.701.384-.054-.253-.117-.506-.19-.76-.054-.188.007-.391.156-.518.161-.137.322-.278.485-.423-.242-.029-.466-.051-.679-.067-.188-.014-.351-.133-.424-.307-.096-.231-.199-.461-.31-.691-.111.229-.214.46-.31.691-.072.174-.236.292-.424.307-.213.016-.437.039-.679.067zm16.652.581c-.162.144-.307.273-.447.395.066.253.123.506.171.759.062.325-.061.656-.324.862-.263.207-.617.246-.918.106-.265-.123-.512-.25-.744-.382-.232.132-.478.258-.743.382-.303.14-.655.1-.918-.105-.263-.207-.387-.538-.325-.865.048-.252.104-.504.171-.758-.136-.119-.274-.241-.414-.365-.292-.26-.393-.622-.291-.953s.391-.573.734-.617c.24-.031.463-.057.674-.077.1-.228.208-.455.322-.681.163-.322.487-.507.828-.485.263-.022.591.164.753.483.115.228.222.456.323.683.212.02.434.046.676.077.341.043.63.286.732.617s.002.694-.257.924zm-.85-.581c-.243-.029-.466-.051-.679-.067-.188-.014-.352-.133-.424-.307-.096-.231-.199-.461-.31-.691-.11.229-.214.46-.31.691-.072.174-.236.292-.424.307-.213.016-.437.039-.679.067.173.153.328.29.485.423.15.127.212.33.157.519-.073.253-.136.506-.19.759.251-.124.483-.251.702-.385.16-.097.359-.097.519 0 .219.133.451.261.702.384-.054-.253-.117-.506-.19-.759-.055-.189.007-.392.157-.519.161-.137.322-.278.485-.423zm1.806 13.821c-2.411-1.206-5.183-1.697-7.198-1.954v-5.479c0-1.271-.894-2.375-2.08-2.569-.731-.116-1.473.085-2.032.561s-.879 1.168-.879 1.901v7.726c-.929-.974-1.704-1.634-1.743-1.667-.72-.624-1.732-.743-2.577-.303-.868.454-1.328 1.405-1.144 2.372.008.04.208 1.009.652 2.084.105.257.404.375.652.27.255-.105.376-.397.271-.652-.406-.982-.594-1.892-.595-1.895-.099-.518.158-1.05.625-1.294.486-.253 1.047-.187 1.465.175.013.012 1.301 1.109 2.512 2.53.136.161.356.218.552.144.196-.072.327-.258.327-.468v-9.022c0-.44.193-.856.528-1.141.341-.289.777-.407 1.224-.335.708.115 1.242.796 1.242 1.583v5.921c0 .253.189.466.441.495 1.89.224 4.641.649 7.032 1.775-.007.587-.032 1.163-.075 1.682-.023.275.181.516.456.538.256.021.516-.179.538-.456.053-.637.081-1.355.081-2.075 0-.189-.107-.362-.276-.446z"/></svg>