<svg id="Layer_1" viewBox="0 0 24 24" xmlns="http://www.w3.org/2000/svg" data-name="Layer 1"><path d="m22.029 4.146c-.065-.15-.201-.26-.362-.291-.044-.009-4.606-.854-9.667-.854-5.015 0-9.663.846-9.707.854-.161.031-.297.141-.362.291-.096.218-.931 3.165-.931 6.854s.804 6.505.912 6.754c.065.151.201.26.362.291.025.005 2.88.507 6.389.739 1.094.919 2.813 2.177 3.376 2.214.469-.037 2.186-1.295 3.28-2.215 3.488-.232 6.303-.733 6.328-.738.163-.031.3-.142.365-.294.01-.023.987-2.851.987-6.751 0-3.648-.855-6.589-.971-6.854zm-.86 12.967c-.808.133-3.221.501-6.079.684-.107.007-.21.049-.293.119-1.319 1.128-2.525 1.917-2.779 2.065-.367-.187-1.546-.965-2.832-2.064-.083-.07-.186-.112-.294-.119-2.875-.182-5.317-.552-6.135-.685-.225-.821-.757-3.237-.757-6.113 0-3.026.58-5.464.78-6.215 1.088-.182 5.017-.785 9.22-.785 4.237 0 8.108.602 9.183.784.215.766.817 3.182.817 6.216s-.612 5.372-.831 6.113zm-6.212-6.93c-.113-.362-.429-.626-.802-.673-.314-.041-.604-.073-.878-.099-.128-.294-.266-.587-.412-.879-.178-.351-.539-.561-.828-.53-.38-.033-.725.181-.903.532-.146.291-.283.584-.411.878-.273.025-.562.058-.876.099-.375.047-.69.312-.805.676-.11.361 0 .756.283 1.008.2.179.396.353.591.521-.086.326-.159.651-.222.976-.068.358.067.721.355.946.288.226.675.269 1.003.115.332-.154.645-.315.947-.488.303.173.614.334.946.488.33.154.717.111 1.004-.115.288-.225.424-.588.355-.945-.062-.325-.136-.651-.222-.977.194-.169.391-.343.592-.522.281-.251.393-.647.282-1.008 0 0 0-.002 0-.003zm-1.764.98c-.149.127-.211.33-.156.519.115.4.21.799.33 1.164-.394-.183-.756-.375-1.107-.589-.158-.097-.361-.097-.52 0-.352.214-.714.407-1.063.624.076-.399.171-.798.286-1.198.055-.189-.007-.392-.156-.519-.27-.229-.539-.468-.833-.661.413-.054.781-.093 1.128-.119.188-.014.353-.133.425-.307.151-.367.319-.731.445-1.094.183.363.351.728.502 1.094.072.174.236.293.425.307.327.024.673.061 1.061.11-.26.231-.513.454-.766.669zm-4.736-.98c-.113-.362-.429-.626-.802-.673-.314-.041-.604-.073-.878-.099-.128-.294-.266-.587-.412-.879-.178-.351-.539-.561-.828-.53-.382-.033-.725.181-.903.532-.146.291-.283.584-.411.878-.273.025-.562.058-.876.099-.375.047-.69.312-.805.676-.11.361 0 .756.283 1.008.2.179.396.353.591.521-.086.326-.159.651-.222.976-.068.358.067.721.355.946.288.226.675.269 1.003.115.332-.154.645-.315.947-.488.303.173.614.334.946.488.33.154.716.111 1.004-.115.288-.225.424-.588.355-.945-.062-.325-.136-.651-.222-.977.194-.169.391-.343.592-.522.281-.251.393-.647.282-1.008 0 0 0-.002 0-.003zm-1.764.98c-.149.127-.211.33-.156.519.115.4.21.799.33 1.164-.394-.183-.756-.375-1.107-.589-.158-.097-.361-.097-.52 0-.352.214-.714.407-1.063.624.076-.399.171-.798.286-1.198.055-.189-.007-.392-.156-.519-.27-.229-.539-.468-.833-.661.413-.054.781-.093 1.128-.119.188-.014.353-.133.425-.307.151-.367.319-.731.445-1.094.183.363.351.728.502 1.094.072.174.236.293.425.307.327.024.673.061 1.061.11-.26.231-.513.454-.766.669zm13.962-1.653c-.314-.041-.604-.073-.878-.099-.128-.294-.266-.587-.412-.879-.178-.351-.538-.561-.828-.53-.379-.033-.725.181-.903.532-.146.291-.283.584-.411.878-.273.025-.562.058-.876.099-.375.047-.69.312-.805.676-.11.361 0 .756.283 1.008.2.179.396.353.591.521-.086.326-.159.651-.222.976-.068.358.067.721.355.946.288.226.675.269 1.003.115.332-.154.645-.315.947-.488.303.173.614.334.946.488.329.154.716.111 1.004-.115.288-.225.424-.588.355-.945-.062-.325-.136-.651-.222-.977.194-.169.391-.343.592-.522.281-.251.393-.647.282-1.008 0 0 0-.002 0-.003-.113-.362-.429-.626-.802-.673zm-.962 1.653c-.149.127-.211.33-.156.519.115.4.21.799.33 1.164-.394-.183-.756-.375-1.107-.589-.158-.097-.361-.097-.52 0-.352.214-.714.407-1.063.624.076-.399.171-.798.286-1.198.055-.189-.007-.392-.156-.519-.27-.229-.539-.468-.833-.661.413-.054.781-.093 1.128-.119.188-.014.353-.133.425-.307.151-.367.319-.731.445-1.094.183.363.351.728.502 1.094.072.174.236.293.425.307.327.024.673.061 1.061.11-.26.231-.513.454-.766.669z"/></svg>