<svg id="Layer_1" viewBox="0 0 24 24" xmlns="http://www.w3.org/2000/svg" data-name="Layer 1"><path d="m9.613 5.326c-.111.413-.205.823-.281 1.224-.075.394.074.79.39 1.037.191.149.421.226.653.226.152 0 .305-.033.448-.1.416-.193.805-.394 1.178-.611.373.216.761.417 1.178.61.362.169.784.12 1.102-.126.314-.247.463-.643.389-1.037-.076-.402-.17-.812-.281-1.225.248-.215.497-.436.756-.666.31-.276.432-.71.309-1.107-.123-.398-.469-.688-.88-.741-.399-.051-.764-.092-1.108-.123-.159-.369-.332-.737-.517-1.105-.194-.382-.573-.616-.912-.581-.401-.034-.791.198-.986.582-.184.366-.356.734-.516 1.103-.344.031-.709.072-1.107.123-.412.052-.757.343-.88.741-.123.396 0 .83.313 1.111.256.227.504.448.752.663zm-.059-1.521c.499-.064.943-.112 1.36-.143.188-.014.353-.133.425-.307.183-.441.385-.882.605-1.319.039-.072.075-.054.111 0 .22.437.422.878.605 1.319.072.174.237.293.425.307.416.031.86.079 1.36.143.059.017.069.054.028.112-.333.296-.655.582-.978.857-.149.127-.21.33-.156.519.14.487.256.974.346 1.446.011.083-.016.098-.087.069-.479-.223-.918-.456-1.339-.712-.159-.097-.36-.097-.519 0-.421.257-.86.49-1.339.712-.075.045-.112.002-.087-.069.09-.472.206-.959.346-1.446.054-.188-.007-.391-.156-.519-.323-.275-.644-.56-.982-.86-.055-.065-.045-.096.033-.108zm13.398 2.748c-.123-.398-.469-.688-.88-.741-.399-.051-.764-.092-1.108-.123-.159-.369-.332-.737-.517-1.105-.194-.382-.571-.613-.912-.581-.4-.037-.791.198-.986.582-.184.366-.356.734-.516 1.103-.344.031-.709.072-1.107.123-.412.052-.757.343-.88.741-.123.396 0 .83.313 1.111.256.227.504.448.752.663-.111.413-.205.823-.281 1.224-.075.394.074.79.39 1.037.191.149.421.226.653.226.152 0 .305-.033.448-.1.416-.193.805-.394 1.178-.611.373.216.761.417 1.178.61.362.169.784.12 1.102-.126.314-.247.463-.643.389-1.037-.076-.402-.17-.812-.281-1.225.248-.215.497-.436.756-.666.31-.276.432-.71.309-1.107zm-.978.363c-.333.296-.655.582-.978.857-.149.127-.21.33-.156.519.14.487.256.974.346 1.446.012.085-.015.111-.087.069-.479-.223-.918-.456-1.339-.712-.159-.097-.36-.097-.519 0-.421.257-.86.49-1.339.712-.077.05-.106.018-.087-.069.09-.472.206-.959.346-1.446.054-.188-.007-.391-.156-.519-.323-.275-.644-.56-.982-.86-.066-.063-.049-.096.033-.108.499-.064.943-.112 1.36-.143.188-.014.353-.133.425-.307.183-.441.385-.882.605-1.319.035-.052.072-.056.111 0 .22.437.422.878.605 1.319.072.174.237.293.425.307.416.031.86.079 1.36.143.083.013.097.048.028.112zm-15.194 3.672c.314-.247.463-.643.389-1.037-.076-.402-.17-.812-.281-1.225.248-.215.497-.436.756-.666.31-.276.432-.71.309-1.107-.123-.398-.469-.688-.88-.741-.399-.051-.764-.092-1.108-.123-.159-.369-.332-.737-.517-1.105-.194-.382-.576-.613-.912-.581-.403-.037-.791.198-.986.582-.184.366-.356.734-.516 1.103-.344.031-.709.072-1.107.123-.412.052-.757.343-.88.741-.123.396 0 .83.313 1.111.256.227.504.448.752.663-.111.413-.205.823-.281 1.224-.075.394.074.79.39 1.037.191.149.421.226.653.226.152 0 .305-.033.448-.1.416-.193.805-.394 1.178-.611.373.216.761.417 1.178.61.362.169.784.12 1.102-.126zm-2.539-1.493c-.421.257-.86.49-1.339.712-.066.034-.107.014-.087-.069.09-.472.206-.959.346-1.446.054-.188-.007-.391-.156-.519-.323-.275-.644-.56-.982-.86-.065-.056-.053-.101.033-.108.499-.064.943-.112 1.36-.143.188-.014.353-.133.425-.307.183-.441.385-.882.605-1.319.036-.06.073-.072.111 0 .22.437.422.878.605 1.319.072.174.237.293.425.307.416.031.86.079 1.36.143.093.008.103.046.028.112-.333.296-.655.582-.978.857-.149.127-.21.33-.156.519.14.487.256.974.346 1.446.008.065-.013.097-.087.069-.479-.223-.918-.456-1.339-.712-.159-.097-.36-.097-.519 0zm14.732 3.806c-.002-.201-.124-.381-.311-.456-1.05-.431-4.147-.443-4.497-.443-.495 0-.985.023-1.502.07.204-.543.29-.915.297-.943.148-.707-.145-1.422-.748-1.821-.613-.404-1.435-.358-2.01.121-.062.055-1.463 1.308-2.214 3.56-.54.042-1.568.135-2.57.3-.242.04-.419.248-.419.493v6.371c0 .232.16.434.386.486 1.164.274 2.541.342 2.971.357 1.75 1.007 5.154 2.004 8.424 2.004.181 0 .348-.098.436-.256 1.28-2.283 1.655-4.978 1.743-6.826.071-1.059.027-2.031.013-3.017zm-12.972 1.309c.791-.115 1.544-.184 2-.219v5.987c-.493-.029-1.269-.093-2-.23zm11.961 1.65c-.08 1.681-.405 4.079-1.477 6.137-2.895-.057-5.902-.931-7.484-1.797v-7.02c0-.006-.003-.01-.003-.016.675-1.892 1.854-2.975 1.857-2.977.228-.19.56-.209.809-.045.262.173.385.473.322.771-.001.007-.162.689-.568 1.536-.08.166-.062.362.046.511s.291.226.472.201c.807-.109 1.516-.16 2.231-.16 1.093 0 2.938.077 3.814.277l.004.223c.015.727.033 1.553-.022 2.359z"/></svg>