<?xml version="1.0" encoding="UTF-8"?>
<svg xmlns="http://www.w3.org/2000/svg" id="Layer_1" data-name="Layer 1" viewBox="0 0 24 24">
  <path d="M16.629,15.574c3.117-.433,6.371-1.712,6.371-3.574s-3.254-3.141-6.371-3.574c-1.005-1.882-2.089-3.299-3.953-4.343h3.436c.276,0,.5-.224,.5-.5s-.224-.5-.5-.5c0,0-5.938,.001-5.946,.002-.149,.012-.288,.089-.374,.218-.06,.088-1.409,2.123-1.974,5.952h-1.404c-.766-1.177-1.693-1.855-3.139-2.31-.183-.058-.378-.006-.51,.129-.072,.075-1.766,1.861-1.766,4.925,0,3.104,1.697,4.856,1.77,4.929,.132,.133,.324,.181,.506,.125,1.445-.455,2.373-1.133,3.139-2.31h1.404c.564,3.83,1.914,5.864,1.974,5.952,.095,.14,.251,.22,.414,.22h6.186c.276,0,.5-.224,.5-.5s-.224-.5-.5-.5h-3.716c1.864-1.044,2.948-2.461,3.953-4.343Zm-6.196,4.242c-.395-.722-1.303-2.645-1.683-5.634-.032-.25-.244-.437-.496-.437h-2.117c-.176,0-.339,.092-.429,.243-.516,.86-1.136,1.537-2.422,2.007-.402-.519-1.286-1.899-1.286-3.995,0-2.053,.888-3.46,1.291-3.993,1.283,.47,1.902,1.146,2.417,2.006,.09,.151,.253,.243,.429,.243h2.117c.252,0,.464-.187,.496-.437,.38-2.99,1.288-4.912,1.683-5.634,2.918,1.005,4.178,2.528,5.432,4.935,.076,.146,.219,.245,.382,.265,3.065,.381,5.754,1.603,5.754,2.616s-2.688,2.235-5.754,2.616c-.163,.02-.306,.119-.382,.265-1.254,2.406-2.514,3.93-5.432,4.935Z"/>
</svg>
