<svg id="Layer_1" viewBox="0 0 24 24" xmlns="http://www.w3.org/2000/svg" data-name="Layer 1"><path d="m21.641 7.423c-.018-.109-.069-.209-.149-.285l-6.04-5.745c-.068-.064-.153-.109-.246-.128-.872-.176-1.95-.265-3.206-.265-4.561 0-8.343.802-8.501.836-.184.04-.331.18-.378.361-.046.173-1.12 4.301-1.12 9.803s1.078 9.252 1.124 9.409c.047.159.169.284.327.335.159.052 3.953 1.256 8.55 1.256s8.557-1.202 8.724-1.253c.169-.052.297-.188.339-.359.038-.156.938-3.891.938-9.388 0-1.538-.117-3.035-.359-4.577zm-1.293.007c-2.193.184-4.32-.061-5.133-.176-.1-.661-.283-2.314-.181-4.879l5.313 5.055zm-.193 13.439c-.976.27-4.394 1.131-8.154 1.131s-7.062-.864-7.986-1.131c-.239-.934-1.014-4.316-1.014-8.869s.769-8.201 1.013-9.247c.989-.188 4.257-.753 7.986-.753.748 0 1.436.037 2.047.104-.17 3.697.231 5.615.249 5.697.044.198.202.35.401.385.098.018 1.826.315 3.987.315.659 0 1.362-.037 2.068-.109.155 1.205.248 2.395.248 3.608 0 4.53-.641 7.904-.846 8.869zm-4.201-8.159c.116-.25.008-.547-.242-.663-.249-.115-.547-.008-.664.242-.007.013-.639 1.349-2.027 3.033-1.162-1.326-1.985-2.582-2.356-3.186.53-.456.837-1.128.837-2.136 0-2.477-1.798-2.991-4.498-3h-.002c-.205 0-.389.125-.465.315-.021.055-.535 1.38-.535 4.185 0 2.593.283 4.038.295 4.099.053.272.324.446.588.392.271-.054.446-.317.393-.588-.002-.011-.167-.861-.241-2.402 1.092-.002 2.024-.099 2.758-.368.385.633 1.303 2.037 2.564 3.453-1.18 1.29-2.141 2.004-2.153 2.012-.223.163-.271.476-.108.698.164.224.478.271.698.108.048-.035 1.023-.758 2.24-2.079 1.205 1.278 2.102 2.025 2.147 2.061.212.175.527.146.704-.067.176-.213.146-.528-.067-.704-.011-.008-.921-.766-2.12-2.043 1.503-1.783 2.244-3.326 2.254-3.361zm-8.938-.71s-.016-.328-.016-.5c0-1.833.231-2.979.368-3.495 2.637.064 3.132.733 3.132 1.995 0 1.326-.542 2-3.484 2z"/></svg>