<svg id="Layer_1" viewBox="0 0 24 24" xmlns="http://www.w3.org/2000/svg" data-name="Layer 1"><path d="m21.615 6.844c-.02-.113-.078-.216-.165-.292l-5.967-5.175c-.065-.057-.145-.095-.229-.112-.89-.178-1.913-.265-3.127-.265-4.577 0-8.582.827-8.622.835-.184.039-.331.177-.38.358-.046.169-1.125 4.202-1.125 9.604 0 5.447 1.08 9.437 1.125 9.604.045.164.17.294.333.345.164.051 4.057 1.254 8.668 1.254s8.504-1.203 8.667-1.254c.173-.054.303-.197.34-.375.009-.041.866-4.188.866-9.574 0-1.854-.126-3.474-.385-4.953zm-.956.347s0 .003 0 .005c-2.369.217-4.715-.034-5.577-.148-.105-.655-.297-2.291-.178-4.83.007.001.016.002.023.004l5.731 4.97zm-.448 13.683c-.974.273-4.327 1.126-8.085 1.126-3.785 0-7.156-.865-8.104-1.131-.238-.98-1.022-4.55-1.022-9.072 0-4.442.769-8.013 1.015-9.042 1.006-.188 4.361-.755 8.111-.755.656 0 1.244.03 1.786.083-.177 3.581.239 5.443.258 5.523.046.196.207.346.406.378.1.017 1.88.304 4.106.304.676 0 1.394-.036 2.118-.104.133 1.103.2 2.295.2 3.613 0 4.467-.599 8.056-.788 9.077z"/><path d="m15.525 11.647c-.195-.196-.512-.198-.707-.002l-2.818 2.8-2.818-2.8c-.196-.195-.512-.193-.707.002-.195.196-.194.513.002.707l2.814 2.795-2.814 2.795c-.196.194-.207.473-.002.707.251.286.609.099.707.002l2.818-2.8 2.818 2.8c.098.097.393.283.707-.002.205-.186.194-.513-.002-.707l-2.814-2.795 2.814-2.795c.196-.194.197-.511.002-.707z"/></svg>