<svg id="Layer_1" viewBox="0 0 24 24" xmlns="http://www.w3.org/2000/svg" data-name="Layer 1"><path d="m21.614 6.844c-.02-.113-.078-.216-.165-.292l-5.967-5.175c-.065-.057-.144-.095-.229-.112-.89-.178-1.913-.265-3.128-.265-4.575 0-8.58.827-8.62.835-.184.039-.331.177-.38.358-.046.169-1.125 4.202-1.125 9.604 0 5.447 1.079 9.437 1.125 9.604.045.164.171.294.333.345.163.051 4.057 1.254 8.668 1.254s8.505-1.203 8.669-1.254c.173-.054.303-.197.34-.375.009-.041.865-4.188.865-9.574 0-1.859-.126-3.479-.386-4.953zm-.955.347s0 .003 0 .005c-2.367.217-4.714-.034-5.577-.148-.105-.655-.296-2.291-.177-4.83.007.001.016.002.023.004l5.73 4.97zm-.446 13.683c-.976.272-4.334 1.126-8.087 1.126-3.785 0-7.155-.865-8.104-1.131-.237-.98-1.021-4.55-1.021-9.072 0-4.442.77-8.013 1.016-9.042 1.006-.188 4.361-.755 8.11-.755.657 0 1.244.03 1.787.083-.177 3.581.239 5.443.258 5.523.046.196.206.346.405.378.1.017 1.881.304 4.106.304.675 0 1.395-.036 2.118-.104.133 1.101.199 2.292.199 3.613 0 4.466-.599 8.055-.787 9.077z"/><path d="m11.002 10.071s-.979-.003-1.354.055c-.221.034-.392.209-.42.431-.01.073-.231 1.831-.231 4.183 0 2.396.389 4.156.405 4.229.053.233.303.445.598.378.269-.061.438-.328.379-.597-.004-.014-.26-1.18-.351-2.864.334.022.662.026.974.026 1.095 0 4.001 0 4.001-2.921s-2.906-2.92-4.001-2.92zm0 4.841c-.324 0-.664-.004-1.005-.03v-.142c0-1.646.115-3.017.18-3.661.197-.01.825-.008.825-.008 2.499 0 3.001.735 3.001 1.92 0 1.153-.511 1.921-3.001 1.921z"/></svg>