<svg id="Layer_1" viewBox="0 0 24 24" xmlns="http://www.w3.org/2000/svg" data-name="Layer 1"><path d="m21.641 7.422c-.018-.109-.069-.209-.149-.285l-6.04-5.744c-.068-.065-.153-.109-.246-.128-.861-.173-1.97-.265-3.206-.265-4.562 0-8.343.802-8.502.836-.184.04-.33.179-.378.361-.046.173-1.12 4.302-1.12 9.803s1.078 9.252 1.124 9.409c.047.16.17.286.329.336.163.051 4.042 1.254 8.637 1.254s8.474-1.203 8.637-1.254c.167-.052.295-.188.336-.358.038-.156.938-3.891.938-9.388 0-1.539-.117-3.036-.359-4.578zm-1.294.008c-2.194.182-4.322-.061-5.133-.176-.1-.661-.283-2.313-.181-4.878l5.313 5.054zm-12.348 14.262c.029-2.596 1.134-3.724 4.001-3.692 2.89-.039 3.992 1.132 4 3.718-1.181.163-2.518.282-3.91.282-1.467 0-2.866-.132-4.09-.308zm12.154-.821c-.498.14-1.647.437-3.154.692-.086-3.102-1.653-4.581-4.999-4.563-3.325-.011-4.886 1.424-5 4.535-1.435-.25-2.515-.534-2.986-.668-.239-.937-1.014-4.318-1.014-8.868s.771-8.201 1.014-9.247c.99-.189 4.262-.753 7.986-.753.747 0 1.435.037 2.047.104-.17 3.696.231 5.615.249 5.697.044.198.202.35.401.385.098.017 1.828.315 3.99.315.658 0 1.36-.037 2.065-.109.155 1.205.248 2.395.248 3.608 0 4.533-.642 7.909-.847 8.871zm-8.153-10.871c-2.075 0-3 .925-3 3s.925 3 3 3 3-.925 3-3-.925-3-3-3zm0 5c-1.514 0-2-.486-2-2s.486-2 2-2 2 .486 2 2-.486 2-2 2z"/></svg>