<svg id="Layer_1" viewBox="0 0 24 24" xmlns="http://www.w3.org/2000/svg" data-name="Layer 1"><path d="m16.427 21.659c-1.497.226-2.956.341-4.335.341-3.775 0-7.136-.867-8.076-1.132-.239-.937-1.014-4.318-1.014-8.868s.77-8.201 1.014-9.247c.989-.188 4.257-.753 7.986-.753.748 0 1.436.037 2.047.104-.17 3.697.231 5.615.249 5.697.044.198.202.35.401.385.098.018 1.826.315 3.987.315.66 0 1.364-.037 2.071-.109.049.384.104.767.137 1.151.023.275.264.466.541.455.275-.023.479-.267.455-.541-.059-.681-.143-1.365-.248-2.035-.018-.108-.07-.208-.149-.284l-6.039-5.745c-.068-.064-.153-.109-.246-.128-.872-.176-1.95-.265-3.206-.265-4.561 0-8.343.802-8.502.836-.184.04-.331.18-.378.361-.046.173-1.12 4.301-1.12 9.803s1.078 9.252 1.124 9.409c.047.16.171.286.33.336.163.052 4.042 1.255 8.636 1.255 1.429 0 2.938-.118 4.485-.353.272-.041.461-.296.419-.569-.041-.272-.299-.458-.569-.419zm3.922-14.229c-2.193.184-4.32-.061-5.132-.176-.1-.661-.283-2.314-.181-4.879zm-13.269 7.57v3h8.422c.276 0 .5.224.5.5s-.224.5-.5.5h-8.922c-.276 0-.5-.224-.5-.5v-4c0-.276.224-.5.5-.5h8.922c.276 0 .5.224.5.5s-.224.5-.5.5zm-1-4.5c0-.276.224-.5.5-.5h5c.276 0 .5.224.5.5s-.224.5-.5.5h-5c-.276 0-.5-.224-.5-.5zm0-3c0-.276.224-.5.5-.5h5c.276 0 .5.224.5.5s-.224.5-.5.5h-5c-.276 0-.5-.224-.5-.5zm14.924 14.45-.002.552c0 .275-.225.498-.5.498h-.002c-.276 0-.499-.226-.498-.502l.002-.547c-1.168-.225-2.077-1.216-2.155-2.442-.018-.275.191-.514.467-.531.294-.021.514.192.531.467.056.872.784 1.555 1.659 1.555.918 0 1.664-.746 1.664-1.663s-.746-1.664-1.664-1.664c-1.385 0-2.43-.982-2.43-2.285 0-1.137.829-2.087 1.932-2.326l.003-.563c0-.275.225-.498.5-.498h.002c.276 0 .499.227.498.502l-.003.544c.851.156 1.573.734 1.87 1.54.096.259-.037.547-.296.642-.255.097-.546-.036-.642-.296-.206-.558-.765-.932-1.392-.932-.812 0-1.473.622-1.473 1.388 0 .745.602 1.285 1.43 1.285 1.469 0 2.664 1.195 2.664 2.664 0 1.298-.935 2.378-2.166 2.613z"/></svg>