<svg id="Layer_1" viewBox="0 0 24 24" xmlns="http://www.w3.org/2000/svg" data-name="Layer 1"><path d="m19.43 20.79s-3.91 1.21-8.34 1.21c-3.77 0-7.14-.87-8.08-1.13-.24-.94-1.01-4.32-1.01-8.87s.77-8.2 1.01-9.25c.99-.19 4.26-.75 7.99-.75.74 0 1.43.03 2.04.1-.17 3.71.24 5.62.25 5.7.04.2.21.35.41.39.1.02 3.4.5 6.55.21.14-.01.26-.08.35-.19.08-.11.12-.25.1-.38l-.06-.4c-.02-.11-.07-.21-.15-.29l-6.04-5.75c-.07-.06-.15-.11-.25-.13-.87-.18-1.95-.26-3.21-.26-4.55 0-8.33.8-8.49.84-.18.04-.33.18-.38.36-.05.17-1.12 4.3-1.12 9.8s1.08 9.25 1.12 9.41c.05.16.17.29.33.34s4.04 1.25 8.64 1.25 8.47-1.2 8.64-1.25c.26-.08.41-.36.33-.63-.08-.26-.36-.41-.63-.33zm-5.4-18.42 5.34 5.08c-2.14.13-4.33-.1-5.16-.21-.1-.67-.29-2.31-.18-4.88zm-7.4 15.79s.82-.9 1.79-2.5c-1.13-1.92-1.84-4.01-1.84-4.01-.08-.26.06-.54.33-.63.27-.08.54.06.63.33 0 .01.47 1.45 1.46 3.3 1-1.85 1.46-3.28 1.46-3.3.08-.26.36-.41.63-.33.26.08.41.36.33.63 0 0-.69 2.07-1.84 4.01.97 1.6 1.78 2.49 1.79 2.5.19.2.17.52-.03.71-.1.09-.22.13-.34.13-.13 0-.27-.05-.37-.16-.04-.04-.74-.81-1.63-2.22-.9 1.41-1.6 2.18-1.63 2.22-.1.11-.23.16-.37.16-.12 0-.24-.04-.34-.13-.2-.19-.22-.5-.03-.71zm16.32-1.57c0 1.33-1.08 2.41-2.41 2.41-1.02 0-1.93-.65-2.27-1.61-.09-.26.04-.55.3-.64s.55.04.64.3c.2.56.73.94 1.33.94.78 0 1.41-.63 1.41-1.41s-.63-1.41-1.41-1.41c-1.15 0-2.09-.94-2.09-2.09s.94-2.09 2.09-2.09c.83 0 1.58.49 1.92 1.25.11.25 0 .55-.26.66-.25.11-.55 0-.66-.26-.17-.4-.57-.65-1-.65-.6 0-1.09.49-1.09 1.09s.49 1.09 1.09 1.09c1.33 0 2.41 1.08 2.41 2.41zm-8.95-5.09v6.49c1.34-.05 2.37-.31 2.38-.31.26-.07.54.1.61.36.07.27-.1.54-.36.61-.06.01-1.41.35-3.12.35-.28 0-.5-.22-.5-.5v-7c0-.28.22-.5.5-.5s.5.22.5.5z"/></svg>