<?xml version="1.0" encoding="UTF-8"?>
<svg xmlns="http://www.w3.org/2000/svg" id="Layer_1" data-name="Layer 1" viewBox="0 0 24 24">
  <path d="M21.581,6.844c-.02-.113-.078-.216-.165-.291L15.472,1.378c-.065-.057-.145-.096-.229-.113-.887-.178-1.906-.265-3.116-.265C7.566,1,3.576,1.827,3.537,1.835c-.184,.039-.331,.177-.38,.358-.046,.169-1.121,4.201-1.121,9.603,0,5.447,1.076,9.437,1.121,9.604,.045,.164,.17,.294,.333,.345,.163,.051,4.042,1.254,8.637,1.254s8.473-1.203,8.636-1.254c.173-.054,.303-.198,.34-.375,.009-.041,.862-4.188,.862-9.574,0-1.856-.125-3.476-.383-4.953Zm-.956,.346s0,.004,0,.006c-2.359,.217-4.694-.034-5.553-.148-.105-.655-.296-2.291-.177-4.83,.006,.001,.013,.002,.02,.003l5.709,4.969Zm-.446,13.684c-.973,.272-4.317,1.126-8.054,1.126-3.769,0-7.125-.864-8.072-1.131-.237-.98-1.019-4.551-1.019-9.072,0-4.442,.767-8.013,1.012-9.042,1.003-.188,4.345-.754,8.079-.754,.653,0,1.238,.03,1.778,.083-.176,3.581,.239,5.443,.257,5.523,.046,.197,.206,.346,.405,.379,.1,.017,1.874,.304,4.092,.304,.672,0,1.388-.036,2.108-.104,.132,1.102,.198,2.294,.198,3.612,0,4.467-.597,8.056-.785,9.077Z"/>
</svg>
