<svg id="Layer_1" viewBox="0 0 24 24" xmlns="http://www.w3.org/2000/svg" data-name="Layer 1"><path d="m16.5 13c0 .276-.224.5-.5.5h-2v2c0 .276-.224.5-.5.5s-.5-.224-.5-.5v-2h-2c-.276 0-.5-.224-.5-.5s.224-.5.5-.5h2v-2c0-.276.224-.5.5-.5s.5.224.5.5v2h2c.276 0 .5.224.5.5zm-.061 8.837c-1.119.108-2.276.163-3.439.163-4.646 0-7.853-.881-8.706-1.145-.285-.902-1.294-4.538-1.294-10.817 0-1.553.062-3.065.184-4.496.023-.274-.181-.517-.456-.54-.25-.013-.517.181-.54.456-.124 1.458-.188 2.999-.188 4.58 0 7.482 1.374 11.235 1.433 11.392.051.138.161.246.3.295.146.053 3.646 1.275 9.268 1.275 1.195 0 2.385-.057 3.535-.167.275-.027.477-.271.45-.546s-.271-.467-.546-.45zm5.561-11.337c0 5.434-1.057 8.17-1.102 8.283-.054.137-.165.243-.305.29-.112.038-2.795.927-7.094.927s-6.981-.889-7.094-.927c-.14-.047-.251-.153-.305-.29-.045-.113-1.102-2.85-1.102-8.283s1.059-8.17 1.104-8.283c.054-.137.165-.243.305-.29.112-.038 2.795-.927 7.094-.927.872 0 1.723.037 2.601.114.115.01.223.06.306.141l5.254 5.141c.083.081.136.189.147.305.128 1.202.192 2.48.192 3.8zm-5.99-8.233c-.043 2.326.132 3.835.228 4.46.737.106 2.572.323 4.593.256zm4.99 8.233c0-.866-.039-1.703-.095-2.522-.294.011-.59.023-.873.023-2.349 0-4.22-.326-4.311-.343-.2-.035-.358-.188-.401-.386-.017-.075-.382-1.828-.304-5.21-.504-.027-1.007-.062-1.515-.062-3.427 0-5.82.599-6.545.805-.238.74-.955 3.324-.955 7.695s.717 6.955.955 7.695c.725.206 3.118.805 6.545.805s5.82-.599 6.545-.805c.238-.74.955-3.324.955-7.695z"/></svg>