<svg id="Layer_1" viewBox="0 0 24 24" xmlns="http://www.w3.org/2000/svg" data-name="Layer 1"><path d="m21.641 7.423c-.017-.109-.07-.209-.149-.285l-6.039-5.745c-.068-.064-.154-.109-.246-.128-.873-.176-1.952-.265-3.207-.265-4.561 0-8.343.802-8.501.836-.184.04-.331.18-.378.361-.046.173-1.12 4.301-1.12 9.803s1.078 9.252 1.124 9.409c.047.159.169.284.327.335.159.052 3.953 1.256 8.55 1.256s8.557-1.202 8.724-1.253c.168-.052.297-.188.339-.359.038-.156.937-3.891.937-9.388 0-1.536-.118-3.033-.359-4.577zm-1.293.007c-2.194.184-4.321-.061-5.133-.176-.1-.661-.284-2.313-.181-4.879zm-.194 13.439c-.975.27-4.393 1.131-8.154 1.131s-7.062-.864-7.986-1.131c-.239-.934-1.014-4.316-1.014-8.869s.77-8.201 1.014-9.247c.989-.188 4.257-.753 7.986-.753.748 0 1.435.037 2.047.104-.171 3.696.231 5.615.249 5.697.043.198.202.35.402.385.097.018 1.825.315 3.986.315.66 0 1.362-.037 2.068-.109.155 1.207.248 2.397.248 3.608 0 4.53-.641 7.904-.846 8.869zm-4.254-7.169c.166.221.121.534-.1.7-.219.164-.533.122-.7-.101-.757-1.009-1.643-1.906-2.6-2.721v6.922c0 .276-.224.5-.5.5s-.5-.224-.5-.5v-6.922c-.958.816-1.843 1.713-2.6 2.721-.166.221-.479.267-.7.101s-.265-.479-.1-.7c1.024-1.366 2.236-2.577 3.6-3.601.178-.133.422-.133.6 0 1.364 1.023 2.576 2.234 3.6 3.601z"/></svg>