<svg id="Layer_1" viewBox="0 0 24 24" xmlns="http://www.w3.org/2000/svg" data-name="Layer 1"><path d="m21.641 7.423c-.017-.109-.07-.209-.149-.285l-6.039-5.745c-.068-.064-.154-.109-.246-.128-.873-.176-1.952-.265-3.207-.265-4.561 0-8.343.802-8.501.836-.184.04-.331.18-.378.361-.043.163-1.054 4.044-1.117 9.297-.003.276.218.503.494.506h.006c.273 0 .497-.22.5-.494.052-4.307.776-7.745 1.011-8.753.989-.188 4.257-.753 7.986-.753.748 0 1.435.037 2.047.104-.171 3.696.231 5.615.249 5.697.043.198.202.35.402.385.097.018 1.825.315 3.986.315.66 0 1.362-.037 2.068-.109.155 1.206.248 2.396.248 3.608 0 4.53-.641 7.904-.846 8.869-.975.27-4.393 1.131-8.154 1.131s-7.062-.864-7.986-1.131c-.13-.504-.416-1.719-.649-3.437-.037-.273-.289-.476-.563-.428-.274.037-.465.289-.428.562.322 2.366.733 3.782.75 3.842.047.159.169.284.327.335.159.052 3.953 1.256 8.55 1.256s8.557-1.202 8.724-1.253c.168-.052.297-.188.339-.359.038-.156.937-3.891.937-9.388 0-1.536-.118-3.033-.359-4.577zm-6.426-.169c-.1-.661-.284-2.313-.181-4.879l5.313 5.055c-2.193.184-4.32-.061-5.132-.176zm-4.794 7.746h-8.921c-.276 0-.5-.224-.5-.5s.224-.5.5-.5h8.921c-.816-.958-1.713-1.844-2.721-2.6-.221-.166-.266-.479-.1-.7s.48-.266.7-.101c1.364 1.023 2.576 2.234 3.6 3.601.125.182.125.418 0 .6-1.024 1.366-2.236 2.577-3.6 3.601-.219.164-.534.121-.7-.101-.166-.221-.121-.534.1-.7 1.008-.756 1.905-1.641 2.721-2.6z"/></svg>