<svg id="Layer_1" viewBox="0 0 24 24" xmlns="http://www.w3.org/2000/svg" data-name="Layer 1"><path d="m21.641 7.423c-.017-.109-.07-.209-.149-.285l-6.039-5.745c-.068-.064-.154-.109-.246-.128-.873-.176-1.952-.265-3.207-.265-4.561 0-8.343.802-8.501.836-.184.04-.331.18-.378.361-.046.173-1.12 4.301-1.12 9.803s1.078 9.252 1.124 9.409c.047.16.171.286.33.336.163.052 4.042 1.255 8.636 1.255s8.474-1.203 8.637-1.254c.167-.053.294-.188.336-.358.038-.156.937-3.891.937-9.388 0-1.536-.118-3.033-.359-4.577zm-1.293.007c-2.194.184-4.321-.061-5.133-.176-.1-.661-.284-2.313-.181-4.879zm-.195 13.441c-.96.27-4.314 1.129-8.063 1.129-3.775 0-7.136-.867-8.076-1.132-.239-.937-1.014-4.318-1.014-8.868s.77-8.201 1.014-9.247c.552-.105 1.829-.326 3.486-.502v1.249c0 .276.224.5.5.5s.5-.224.5-.5v-1.344c1.074-.091 2.256-.156 3.5-.156.748 0 1.435.037 2.047.104-.171 3.696.231 5.615.249 5.697.043.198.202.35.402.385.097.018 1.825.315 3.986.315.66 0 1.362-.037 2.068-.109.155 1.207.248 2.397.248 3.608 0 4.533-.642 7.908-.847 8.871zm-12.653-14.371v-1c0-.276.224-.5.5-.5s.5.224.5.5v1c0 .276-.224.5-.5.5s-.5-.224-.5-.5zm0 3v-1c0-.276.224-.5.5-.5s.5.224.5.5v1c0 .276-.224.5-.5.5s-.5-.224-.5-.5zm.5 1.5c-1.291 0-2 3.004-2 4 0 1.346.654 2 2 2s2-.654 2-2c0-.996-.709-4-2-4zm0 5c-.794 0-1-.206-1-1 0-1.024.682-2.849.959-3.007.358.158 1.041 1.982 1.041 3.007 0 .794-.206 1-1 1z"/></svg>