<?xml version="1.0" encoding="UTF-8"?>
<svg xmlns="http://www.w3.org/2000/svg" id="Layer_1" data-name="Layer 1" viewBox="0 0 24 24">
  <path d="M21.615,6.844c-.02-.113-.078-.216-.165-.292L15.483,1.377c-.065-.057-.145-.095-.229-.112-.89-.178-1.913-.265-3.127-.265C7.55,1,3.545,1.827,3.505,1.835c-.184,.039-.331,.177-.38,.358-.046,.169-1.125,4.202-1.125,9.604,0,5.447,1.08,9.437,1.125,9.604,.045,.164,.17,.294,.333,.345,.164,.051,4.057,1.254,8.668,1.254s8.504-1.203,8.667-1.254c.173-.054,.303-.197,.34-.375,.009-.041,.866-4.188,.866-9.574,0-1.854-.126-3.474-.385-4.953ZM14.903,2.216c.009,.002,.018,.003,.026,.005l5.731,4.97s.001,.007,.002,.011c-2.369,.217-4.716-.04-5.578-.154-.106-.656-.301-2.285-.181-4.831Zm5.309,18.658c-.974,.273-4.327,1.126-8.085,1.126-3.785,0-7.156-.865-8.104-1.131-.238-.98-1.022-4.55-1.022-9.072,0-4.442,.769-8.013,1.015-9.042,1.006-.188,4.361-.755,8.111-.755,.652,0,1.242,.026,1.781,.079-.18,3.595,.244,5.448,.262,5.527,.046,.196,.207,.346,.406,.378,.1,.017,1.88,.304,4.106,.304,.677,0,1.395-.027,2.12-.096,.132,1.101,.197,2.291,.197,3.604,0,4.467-.599,8.056-.788,9.077Z"/>
  <path d="M10.153,16.871c-1.561-.972-2.525-2.243-2.884-2.771,.357-.528,1.315-1.794,2.884-2.771,.234-.146,.306-.454,.16-.688-.146-.235-.455-.307-.688-.16-2.236,1.393-3.337,3.292-3.382,3.373-.088,.153-.088,.342,0,.495,.045,.081,1.146,1.979,3.382,3.372,.082,.051,.42,.218,.688-.16,.152-.214,.074-.542-.16-.688Z"/>
  <path d="M14.377,10.48c-.233-.146-.542-.075-.688,.16-.146,.234-.074,.542,.16,.688,1.568,.977,2.527,2.243,2.884,2.771-.358,.529-1.323,1.799-2.884,2.771-.234,.146-.312,.474-.16,.688,.268,.378,.606,.211,.688,.16,2.236-1.393,3.337-3.292,3.382-3.372,.088-.153,.088-.342,0-.495-.045-.081-1.146-1.979-3.382-3.373Z"/>
</svg>
