<svg id="Layer_1" viewBox="0 0 24 24" xmlns="http://www.w3.org/2000/svg"><path d="m21.641 7.422c-.018-.109-.069-.209-.149-.285l-6.04-5.744c-.068-.065-.153-.109-.246-.128-.861-.173-1.97-.265-3.206-.265-4.562 0-8.343.802-8.502.836-.184.04-.33.179-.378.361-.046.173-1.12 4.302-1.12 9.803s1.078 9.252 1.124 9.409c.047.16.17.286.329.336.163.051 4.042 1.254 8.637 1.254s8.474-1.203 8.637-1.254c.167-.052.295-.188.336-.358.038-.156.938-3.891.938-9.388 0-1.539-.117-3.036-.359-4.578zm-1.294.007c-2.194.181-4.321-.061-5.132-.176-.1-.661-.283-2.313-.181-4.878zm-.194 13.442c-.96.27-4.313 1.129-8.063 1.129-3.775 0-7.136-.867-8.076-1.132-.239-.937-1.014-4.318-1.014-8.868s.771-8.201 1.014-9.247c.99-.189 4.262-.753 7.986-.753.747 0 1.435.037 2.047.104-.17 3.696.231 5.615.249 5.697.044.198.202.35.401.385.098.017 1.828.315 3.99.315.658 0 1.36-.037 2.065-.109.155 1.205.248 2.395.248 3.608 0 4.533-.642 7.909-.847 8.871zm-4.663-7.065c-.032-.946-.408-1.84-1.079-2.549-.756-.799-1.813-1.257-2.899-1.257h-.012c-2.206 0-4 1.794-4 4 0 .388.058.773.172 1.148-.426.419-.672.995-.672 1.602 0 1.241 1.01 2.25 2.25 2.25h5c1.517 0 2.75-1.234 2.75-2.75 0-1.04-.594-1.981-1.51-2.444zm-1.24 4.194h-5c-.689 0-1.25-.561-1.25-1.25 0-.41.203-.795.542-1.029.193-.133.269-.382.181-.599-.147-.364-.223-.742-.223-1.122 0-1.654 1.346-3 3.002-3h.008c.814 0 1.607.344 2.176.944.563.595.848 1.362.802 2.161-.013.223.124.427.335.501.704.246 1.178.906 1.178 1.644 0 .965-.785 1.75-1.75 1.75z"/></svg>