<svg id="Layer_1" viewBox="0 0 24 24" xmlns="http://www.w3.org/2000/svg" data-name="Layer 1"><path d="m22.621 2.077c-.175-.044-4.348-1.077-8.621-1.077s-8.446 1.033-8.622 1.077c-.268.067-.431.339-.363.606.067.269.341.429.606.364.007-.002.145-.036.377-.088-.001.473-.003 1.206.002 1.708.004.496.127 1.01.356 1.487 1.111 2.314 2.284 4.151 4.644 6.083v3.262c0 .133.053.26.146.354 1.881 1.881 4.26 2.809 5.195 3.121.31.112.668-.144.658-.475v-6.262c2.358-1.932 3.532-3.769 4.645-6.084.226-.472.348-.985.353-1.486.004-.503.004-1.236.004-1.708.233.052.371.086.378.088.261.066.54-.094.606-.364.066-.268-.096-.539-.364-.606zm-1.624 2.582c-.003.354-.091.723-.255 1.062-1.079 2.249-2.218 4.019-4.555 5.888-.118.095-.188.238-.188.391v5.785c-1.507-.598-2.955-1.498-4-2.496v-3.289c0-.152-.069-.296-.188-.391-2.337-1.869-3.476-3.639-4.555-5.888-.166-.345-.255-.712-.258-1.062-.005-.584-.003-1.48-.001-1.909 1.578-.31 4.295-.751 7.001-.751s5.422.441 7.001.751c0 .43.002 1.326-.003 1.909z"/><path d="m13 19.5v3c.009.331-.348.587-.658.475-.936-.312-3.315-1.24-5.195-3.121-.094-.094-.146-.221-.146-.354v-3.324c-2.359-1.932-3.533-3.769-4.644-6.083-.229-.478-.353-.991-.356-1.487-.004-.502-.003-1.236-.002-1.709-.238.054-.373.087-.377.088-.26.066-.541-.093-.606-.363-.067-.269.095-.54.363-.607.041-.01 1.029-.256 2.538-.514.272-.043.531.137.577.409s-.137.53-.409.577c-.403.069-.765.136-1.085.199-.002.429-.004 1.327.001 1.911.003.35.092.717.258 1.062 1.079 2.249 2.217 4.019 4.555 5.888.119.095.188.238.188.391v3.352c1.045.998 2.493 1.898 4 2.496v-2.285c0-.276.224-.5.5-.5s.5.224.5.5z"/></svg>