<svg id="Layer_1" viewBox="0 0 24 24" xmlns="http://www.w3.org/2000/svg" data-name="Layer 1"><path d="m20.309 12.857c-.18-.143-.438-.143-.617 0-.11.086-2.691 2.138-2.691 4.143 0 2.075.925 3 3 3s3-.925 3-3c0-2.005-2.581-4.057-2.691-4.143zm-.309 6.143c-1.514 0-2-.486-2-2 0-1.091 1.248-2.428 2-3.097.752.668 2 2.005 2 3.097 0 1.514-.486 2-2 2zm2.674-10.138c.337-.606.416-1.308.226-1.973-.393-1.378-1.832-2.182-3.193-1.795-.008.004-3.571.797-7.271.906-.181-.7-.499-1.8-.882-2.528-.615-1.176-2.079-1.77-3.151-1.31-.146.05-3.608 1.266-6.773 5.377-.046.06-.077.129-.093.203-.022.104-.536 2.593-.536 5.758s.452 5.378.472 5.471c.028.139.114.258.236.33 3.23 1.892 6.466 2.699 10.817 2.699.189 0 .362-.107.447-.276 1.856-3.713 2.33-7.655 2.504-10.765 3.095-.297 5.458-.808 5.637-.859.669-.191 1.224-.63 1.561-1.238zm-7.718 1.14c-.249.021-.443.224-.455.474-.147 2.998-.542 6.881-2.287 10.523-3.917-.037-6.879-.777-9.804-2.448-.11-.625-.41-2.548-.41-5.051 0-2.691.396-4.93.493-5.443 2.951-3.784 6.2-4.938 6.266-4.962.63-.266 1.538.134 1.91.841.297.565.56 1.421.732 2.063h-2.901c-.276 0-.5.224-.5.5s.224.5.5.5h4.018c3.95-.137 7.42-.932 7.444-.939.853-.239 1.734.255 1.976 1.104.117.409.068.84-.138 1.212-.208.374-.549.644-.957.76-.02.005-2.466.566-5.887.865z"/></svg>