<svg id="Layer_1" viewBox="0 0 24 24" xmlns="http://www.w3.org/2000/svg" data-name="Layer 1"><path d="m22.51 7.018c.364-1.481.49-2.639.49-4.518 0-.24-.171-.447-.407-.491-.054-.011-5.422-1.009-10.593-1.009s-10.539.998-10.593 1.009c-.236.044-.407.251-.407.491 0 1.886.125 3.043.492 4.53-.202 1.644-.492 4.647-.492 6.47 0 3.738.652 6.888.937 8.088-.194-.042-.304-.07-.308-.072-.27-.065-.542.088-.612.354-.07.268.088.541.354.612.079.021 1.969.517 4.629.517.299.007.55-.287.493-.582-.199-1.198-.493-3.908-.493-5.918 0-2.298.296-4.284.428-5.057.9-.127 3.378-.443 5.572-.443s4.653.314 5.562.441c.129.873.438 3.21.438 5.559 0 2.27-.378 4.721-.493 5.418-.057.295.194.589.493.582 2.663 0 4.556-.521 4.635-.544.266-.074.421-.351.347-.616-.073-.266-.351-.42-.616-.347-.004.001-.11.03-.298.073.288-1.216.933-4.35.933-8.066 0-1.816-.308-4.944-.49-6.482zm-10.51-5.018c4.258 0 8.658.69 9.997.919-.016 1.333-.114 2.23-.284 3.081h-19.426c-.169-.852-.268-1.748-.284-3.081 1.339-.229 5.738-.919 9.997-.919zm8.986 19.768c-.637.099-1.452.194-2.4.223.16-1.078.414-3.092.414-4.991 0-3.04-.486-5.96-.507-6.083-.036-.212-.203-.378-.416-.411-.132-.021-3.271-.506-6.077-.506s-5.945.485-6.077.506c-.207.032-.371.189-.413.395-.021.103-.51 2.552-.51 5.6 0 1.781.225 4.098.418 5.491-.949-.027-1.764-.117-2.402-.212-.13-.497-1.016-4.051-1.016-8.279-.01-1.835.329-4.931.492-6.502.003 0 19.008.001 19.008.001.219 1.815.498 4.811.499 6.5 0 4.204-.876 7.739-1.014 8.268z"/><path d="m13.048 14.46c-.677-.398-.901-.438-.976-.452-.142-.024-.29.012-.401.103-.674.543-.974 1.364-1.101 2.106l-.456-.539c-.184-.229-.558-.235-.751-.015-.854.937-1.363 2.371-1.363 3.837-.001 1.824 1.873 3.5 4 3.5s4.009-1.662 4-3.5c0-2.872-1.85-4.391-2.952-5.04zm-.687 7.306c-.155.155-.255.232-.354.233-.002 0-.004 0-.006 0-.1-.001-.2-.08-.355-.235-.211-.21-.233-.318-.233-.355 0-.305.308-.692.588-.968.283.275.595.663.595.968 0 .037-.022.146-.234.356zm1.217-.21c.177-1.02-1.151-2.098-1.281-2.177-.177-.132-.42-.129-.596 0-.129.077-1.452 1.165-1.27 2.181-.838-.466-1.431-1.245-1.431-2.061 0-1.125.347-2.064.753-2.701l.865 1.023c.14.167.37.224.57.141.2-.081.325-.282.311-.498-.036-.617-.005-1.622.602-2.384.102.049.244.125.439.24.919.541 2.46 1.804 2.46 4.179 0 .814-.588 1.589-1.422 2.056z"/></svg>