<svg id="Layer_1" viewBox="0 0 24 24" xmlns="http://www.w3.org/2000/svg" data-name="Layer 1"><path d="m5.5 9.492c.276 0 .5-.224.5-.5 0-1.176.414-2.043.719-2.522.833.792 2.22 1.585 3.448.674 1.072-.796.932-1.945.818-2.868-.132-1.083-.221-1.809 1.043-2.267.827.183 5.975 1.541 5.972 6.983 0 .276.224.5.5.5s.5-.224.5-.5c0-2.601-1.084-4.777-3.139-6.291-1.669-1.23-3.711-1.773-4.024-1.684-2.17.715-1.982 2.255-1.844 3.379.113.927.153 1.517-.423 1.944-1.066.792-2.484-.943-2.499-.961-.089-.111-.223-.179-.365-.186-.153-.007-.282.046-.382.148-.054.055-1.324 1.372-1.324 3.65 0 .276.224.5.5.5z"/><path d="m18.442 15.235c-.13-2.086-1.826-3.743-3.893-3.743-1.016 0-1.887.295-2.55.857-.663-.562-1.534-.857-2.55-.857-2.066 0-3.763 1.657-3.893 3.743-1.523.571-2.558 2.063-2.558 3.757 0 2.206 1.75 4 3.9 4h10.2c2.15 0 3.9-1.794 3.9-4 0-1.693-1.034-3.187-2.558-3.757zm-1.343 6.757h-10.199c-1.599 0-2.9-1.346-2.9-3 0-1.373.896-2.568 2.18-2.907.224-.059.376-.361.37-.593 0-1.654 1.301-3 2.9-3 .643 0 1.542.154 2.17.887.189.221.569.221.759 0 .628-.733 1.527-.887 2.17-.887 1.6 0 2.9 1.346 2.9 3l-.002.097c-.006.232.148.438.372.497 1.283.339 2.18 1.534 2.18 2.907 0 1.654-1.301 3-2.9 3z"/></svg>