<?xml version="1.0" encoding="UTF-8"?>
<svg xmlns="http://www.w3.org/2000/svg" id="Layer_1" data-name="Layer 1" viewBox="0 0 24 24">
  <path d="M22.874,6.974c-1.053-1.427-2.264-2.029-3.905-1.946,.083-1.663-.519-2.855-1.944-3.909-.137-.102-.375-.189-.736-.038-.79,.333-2.399,1.966-2.66,3.897-.175,1.287,.181,2.322,.568,3.022-.866-.114-1.935-.206-3.086-.193,.139-1.543-.271-2.994-.655-3.369-.374-.362-1.582-.63-2.69-.605-1.119,.022-2.712,.317-3.951,1.595-1.762,1.818-1.632,4.761-1.396,6.36-2.485,3.915-1.163,9.172-.266,10.07,.538,.539,2.638,1.14,4.79,1.14h.002c1.74,0,4.156-.37,6.148-2.051,.36,.039,.708,.058,1.041,.058,1.414,0,2.587-.345,3.494-1.029,2.611-1.968,2.299-5.819,1.808-6.47-.316-.421-1.701-1.012-3.243-1.07-.012-.978-.094-1.882-.193-2.634,1.481,.835,2.788,.601,3.019,.57,1.93-.262,3.561-1.873,3.895-2.663,.152-.361,.063-.6-.037-.737Zm-7.99,2.142c.403,2.376,.912,7.751-1.998,10.664-.601,.601-1.274,1.053-1.979,1.387-.9-4.664-3.458-7.26-8.029-8.149,.331-.676,.772-1.321,1.352-1.902,1.835-1.837,4.646-2.313,7.068-2.313,1.421,0,2.708,.164,3.586,.313ZM4.532,6.126c1.869-1.93,4.934-1.176,5.21-.986,.146,.195,.513,1.356,.358,2.707-2.323,.156-4.821,.803-6.578,2.562-.075,.075-.148,.152-.219,.229-.078-1.353,.056-3.303,1.229-4.512Zm-1.674,15.027c-.439-.444-1.454-3.975-.368-7.192,.01,.003,.02,.005,.031,.007,4.281,.784,6.645,3.191,7.438,7.574-3.183,1.03-6.656,.042-7.101-.389Zm14.166-1.974c-.874,.659-2.004,.834-2.991,.825,1.53-1.841,2.052-4.315,2.143-6.563,1.291,.066,2.306,.522,2.446,.65,.181,.333,.547,3.471-1.599,5.088Zm1.857-9.796c-2.127,.328-4.64-1.428-4.264-4.269,.201-1.516,1.486-2.794,1.971-3.069,1.172,.923,1.546,1.912,1.329,3.47-.021,.155,.031,.312,.142,.422,.11,.11,.267,.164,.422,.142,1.562-.214,2.545,.158,3.468,1.331-.274,.484-1.557,1.74-3.067,1.973Z"/>
  <circle cx="5.25" cy="18.767" r=".75"/>
</svg>
