<svg id="Layer_1" viewBox="0 0 24 24" xmlns="http://www.w3.org/2000/svg" data-name="Layer 1"><path d="m19.635 10c.987 0 1.957-.546 3.216-1.806.195-.195.195-.512 0-.707-1.892-1.892-3.247-2.311-4.077-2.271-.002-1.32-.725-2.455-2.166-3.969-.148-.295-.576-.307-.798-.096-2.184 2.184-2.386 3.723-.569 5.886-1.328-.055-2.574-.011-3.72.149-.124-.499-.534-1.671-1.844-3.032-.103-.108-.251-.165-.399-.152-.114.009-2.823.239-5.127 2.129-2.414 1.981-2.723 3.655-1.237 6.734-1.174 2.213-1.811 5.052-1.912 8.601-.041.826.705 1.571 1.531 1.531 5.275-.151 8.998-1.476 11.393-4.028.203.036.414.023.609.029 4.817 0 5.452-3.974 5.459-4.016.022-.156-.029-.313-.141-.425-1.164-1.168-2.184-1.857-3.039-2.057.162-1.152.205-2.406.148-3.742 1.027.858 1.807 1.233 2.674 1.242zm2.144-2.16c-.9.834-1.608 1.187-2.209 1.159-.671-.026-1.421-.465-2.453-1.442.068-.042 1.134-1.186 1.222-1.19.01-.008 1.002-.8 3.44 1.472zm-5.616-5.615c1.916 2.058 1.65 3.081 1.517 3.356l-1.266 1.265c-1.782-1.886-1.857-2.895-.251-4.621zm-11.377 4.68c1.688-1.385 3.673-1.779 4.339-1.877.976 1.071 1.306 1.962 1.41 2.34-2.137.438-3.93 1.271-5.337 2.526-.63.562-1.182 1.209-1.669 1.93-.967-2.248-.632-3.369 1.257-4.919zm-2.282 15.093c-.261.028-.519-.24-.502-.502.244-4.794.936-7.975 3.862-10.856 2.164-2.083 6.34-2.921 10.07-2.575.318 4.401-.544 7.782-2.565 10.054-2.193 2.464-5.747 3.733-10.864 3.88zm16.448-6.925c-.196.724-1.037 2.834-4.223 2.921.908-1.258 1.54-2.766 1.9-4.506.405.107 1.158.457 2.323 1.585zm-7.098 1.073c.195.195.195.512 0 .707s-.512.195-.707 0l-3.999-3.999c-.195-.195-.195-.512 0-.707s.512-.195.707 0zm1.999-4c.195.195.195.512 0 .707s-.512.195-.707 0l-2-2c-.195-.195-.195-.512 0-.707s.512-.195.707 0zm-5.999 5.999c.195.195.195.512 0 .707s-.512.195-.707 0l-2-2c-.195-.195-.195-.512 0-.707s.512-.195.707 0z"/></svg>