<svg id="Layer_1" viewBox="0 0 24 24" xmlns="http://www.w3.org/2000/svg" data-name="Layer 1"><path d="m16 6.637v-4.475c.369-.067.596-.121.621-.127.268-.067.431-.338.364-.606s-.338-.429-.606-.364c-.018.004-1.781.436-4.379.436s-4.361-.431-4.379-.436c-.269-.065-.54.097-.606.364-.067.268.096.539.364.606.025.006.252.06.621.127v4.475c-4.836 1.035-7 4.327-7 10.613 0 1.771.169 3.274.519 4.593.051.192.21.336.407.366 1.907.295 5.75.791 10.075.791s8.168-.496 10.075-.791c.196-.03.356-.174.407-.366.349-1.319.519-2.821.519-4.593 0-6.286-2.164-9.578-7-10.613zm-7.41.902c.237-.043.41-.25.41-.492v-4.734c.778.099 1.792.187 3 .187s2.222-.088 3-.187v4.734c0 .242.173.449.41.492 3.033.554 4.918 2.004 5.859 4.619-.527.461-2.224 1.795-4.32 1.841-1.071.09-4.351-.899-4.825-.983-.688-.141-3.916-1.12-5.138-1.013-1.882.054-3.645.991-4.667 1.655.719-3.575 2.701-5.466 6.271-6.118zm13.004 13.731c-1.969.293-5.571.729-9.594.729s-7.625-.436-9.594-.729c-.273-1.159-.406-2.479-.406-4.021 0-.795.038-1.531.109-2.22.3-.238 2.55-1.961 4.905-2.028 1.086-.099 4.371.893 4.862.982.67.137 3.887 1.109 5.095 1.014 2.079-.046 3.77-1.142 4.611-1.804.28 1.157.418 2.5.418 4.055 0 1.542-.133 2.861-.406 4.021z"/></svg>