<svg id="Layer_1" viewBox="0 0 24 24" xmlns="http://www.w3.org/2000/svg" data-name="Layer 1"><path d="m10.854 13.146c.195.195.195.512 0 .707l-1 1c-.098.098-.226.146-.354.146s-.256-.049-.354-.146c-.195-.195-.195-.512 0-.707l1-1c.195-.195.512-.195.707 0zm12-1.039c-1.974 1.974-3.715 2.893-5.48 2.893-.802 0-1.6-.201-2.417-.593l-.288.289c-.855.855-1.791 1.755-2.86 2.75-2.048 1.894-3.885 3.447-5.067 4.419-.002.001-.003.002-.005.004 0 0-.002.002-.003.002-.791.673-1.544 1.122-2.344 1.122-.693 0-1.421-.337-2.24-1.155-1.732-1.732-1.297-3.038-.034-4.584 1.489-1.813 2.945-3.484 4.451-5.11 1.002-1.078 2.01-2.116 3.029-3.128-1.236-2.613-.477-5.095 2.299-7.871.195-.195.512-.195.707 0l10.253 10.253c.195.195.195.512 0 .707zm-8.805 1.794c-.695-.452-1.408-1.047-2.155-1.794s-1.34-1.467-1.796-2.177c-2.55 2.54-4.866 5.107-7.209 7.96-1.17 1.432-1.177 2.099-.033 3.243 1.159 1.157 1.854 1.152 3.236-.027.001-.001.003-.001.005-.003.001 0 .002-.002.003-.003 1.172-.963 2.997-2.506 5.03-4.387 1.099-1.024 2.032-1.92 2.921-2.812zm7.739-2.152-9.537-9.537c-3.127 3.301-3.01 5.829.349 9.188 1.774 1.774 3.291 2.6 4.773 2.6 1.382 0 2.793-.718 4.415-2.251z"/></svg>