<svg id="Layer_1" viewBox="0 0 24 24" xmlns="http://www.w3.org/2000/svg" data-name="Layer 1"><path d="m5.918 11.266c2.6 1.486 5.776 2.654 5.91 2.704.111.04.232.04.344 0 .134-.049 3.31-1.218 5.91-2.704 2.608-1.491 4.665-3.319 4.751-3.396.221-.189.221-.558 0-.746-.086-.077-2.144-1.905-4.751-3.396-2.6-1.486-5.776-2.654-5.91-2.704-.111-.04-.232-.04-.344 0-.134.049-3.31 1.217-5.91 2.704-2.607 1.491-4.665 3.318-4.751 3.396-.221.189-.221.558 0 .746.086.077 2.144 1.905 4.751 3.396zm6.082 1.7c-.608-.231-2.725-1.056-4.707-2.09l5.814-3.569 4.761 2.923c-2.072 1.251-5.183 2.481-5.868 2.736zm9.729-5.469c-.563.467-1.623 1.307-2.909 2.144l-4.757-2.921 3.49-2.142c.011.006.022.012.033.018 1.827 1.045 3.408 2.292 4.144 2.901zm-9.729-5.469c.591.224 2.603 1.01 4.533 2.002l-5.794 3.557-4.602-2.826c2.073-1.252 5.179-2.479 5.864-2.733zm-6.816 3.323 4.599 2.823-3.459 2.128c-.009.006-.025.017-.033.023-1.774-1.029-3.302-2.232-4.02-2.828.564-.467 1.626-1.308 2.913-2.146zm17.71 8.591c.17.217.131.532-.086.702-.086.067-2.144 1.667-4.75 2.97-2.598 1.299-5.771 2.32-5.905 2.362-.099.032-.206.032-.305 0-.134-.042-3.307-1.063-5.905-2.362-2.607-1.303-4.665-2.902-4.75-2.97-.218-.17-.256-.484-.086-.702.169-.217.482-.257.702-.086.021.016 2.068 1.606 4.583 2.863 2.212 1.106 4.942 2.034 5.61 2.255.668-.221 3.398-1.149 5.61-2.255 2.519-1.259 4.562-2.847 4.583-2.863.217-.171.531-.131.702.086zm0 3c.17.217.131.532-.086.702-.086.067-2.144 1.667-4.75 2.97-2.598 1.299-5.771 2.32-5.905 2.362-.099.032-.206.032-.305 0-.134-.042-3.307-1.063-5.905-2.362-2.607-1.303-4.665-2.902-4.75-2.97-.218-.17-.256-.484-.086-.702.169-.219.482-.257.702-.086.021.016 2.068 1.606 4.583 2.863 2.212 1.106 4.942 2.034 5.61 2.255.668-.221 3.398-1.149 5.61-2.255 2.519-1.259 4.562-2.847 4.583-2.863.217-.17.531-.132.702.086zm0-6c.17.217.131.532-.086.702-.086.067-2.144 1.667-4.75 2.97-2.598 1.299-5.771 2.32-5.905 2.362-.099.032-.206.032-.305 0-.134-.042-3.307-1.063-5.905-2.362-2.607-1.303-4.665-2.902-4.75-2.97-.218-.17-.256-.484-.086-.702.169-.218.482-.258.702-.086.021.016 2.068 1.606 4.583 2.863 2.212 1.106 4.942 2.034 5.61 2.255.668-.221 3.398-1.149 5.61-2.255 2.519-1.259 4.562-2.847 4.583-2.863.217-.171.531-.132.702.086z"/></svg>