<svg id="Layer_1" viewBox="0 0 24 24" xmlns="http://www.w3.org/2000/svg" data-name="Layer 1"><path d="m22.318 12.746c-.972-.987-2.572-.998-3.548-.027l-5.413 5.412c-.781.775-1.238 1.811-1.287 2.917l-.063 1.429c-.019.285.237.54.521.521l1.438-.062c1.111-.049 2.152-.502 2.933-1.276l5.404-5.406c.92-.813.918-2.683.015-3.509zm-.711 2.791-5.413 5.415c-.603.598-1.409.948-2.271.986l-.893.038.039-.884c.038-.854.39-1.654.994-2.252l5.413-5.412c.587-.586 1.554-.57 2.132.023.514.453.523 1.628 0 2.086zm-10.101.963c0 .276-.224.5-.5.5-2.767 0-4-1.233-4-4s1.233-4 4-4 4 1.233 4 4c0 .276-.224.5-.5.5s-.5-.224-.5-.5c0-2.215-.785-3-3-3s-3 .785-3 3 .785 3 3 3c.276 0 .5.224.5.5zm-1.977 3.463c-2.958-.139-5.718-.645-6.671-.835-.237-1.207-.852-4.672-.852-8.052 0-3.502.667-7.124.881-8.196.405-.081 1.174-.226 2.162-.376.142 1.443.424 2.61.438 2.664.046.189.198.334.389.372.096.019 2.369.459 4.63.459s4.534-.441 4.63-.459c.191-.038.343-.183.389-.372.014-.056.315-1.306.451-2.819.066.009.129.014.196.023l3.44 3.44c.177 1.305.296 2.553.354 3.711.013.275.229.489.524.475.275-.014.488-.249.475-.524-.061-1.237-.191-2.571-.385-3.966-.015-.108-.064-.208-.142-.285l-3.678-3.678c-.077-.077-.178-.127-.286-.142-1.972-.269-3.785-.405-5.391-.405-4.262.002-8.546.932-8.726.971-.19.042-.339.19-.381.381-.04.181-.97 4.465-.97 8.727 0 3.863.781 7.822.937 8.576.041.194.191.346.385.387.36.077 3.618.755 7.154.922h.024c.265 0 .486-.208.499-.477.013-.276-.2-.51-.476-.523zm5.452-17.731c-.09 1.014-.26 1.927-.357 2.385-.699.12-2.436.384-4.119.384s-3.419-.264-4.119-.384c-.093-.438-.251-1.292-.344-2.252 1.483-.195 3.276-.364 5.04-.364 1.185 0 2.494.079 3.898.232z"/></svg>