<svg id="Layer_1" viewBox="0 0 24 24" xmlns="http://www.w3.org/2000/svg" data-name="Layer 1"><path d="m21 1.5c0 .276-.224.5-.5.5-3.237 0-5.033.875-5.822 2.837l-1.862 6.183c1.453.062 2.703.262 2.765.273.272.044.457.301.412.574s-.307.458-.574.412c-.015-.003-1.399-.224-2.901-.27l-2.253 7.484c-.965 2.405-3.109 3.506-6.765 3.506-.276 0-.5-.224-.5-.5s.224-.5.5-.5c3.237 0 5.033-.875 5.822-2.837l2.154-7.153c-1.578.048-2.878.277-2.977.276-.24 0-.452-.174-.492-.419-.045-.272.14-.53.412-.574.07-.012 1.669-.267 3.36-.289l1.957-6.498c.965-2.405 3.109-3.506 6.765-3.506.276 0 .5.224.5.5z"/></svg>