<?xml version="1.0" encoding="UTF-8"?>
<svg xmlns="http://www.w3.org/2000/svg" id="Layer_1" data-name="Layer 1" viewBox="0 0 24 24">
  <path d="M22.188,16.562c-.152-.113-3.765-2.769-6.718-1.66-1.398,.523-2.35,1.778-2.97,2.974v-4.7c2.562-.322,4.927-2.825,5.005-5.43v-.023c-.067-3.764-5.052-6.545-5.264-6.662-.154-.083-.339-.082-.492,.007-.212,.123-5.193,3.065-5.253,6.679,.078,2.6,2.436,5.1,5.005,5.429v4.702c-.62-1.196-1.573-2.452-2.971-2.975-2.954-1.108-6.565,1.547-6.717,1.66-.157,.117-.231,.314-.19,.506,.04,.186,1.006,4.556,3.959,5.662,.507,.19,1.034,.27,1.56,.27,2.064,0,4.106-1.22,4.859-1.722,.753,.502,2.795,1.722,4.859,1.722,.524,0,1.052-.079,1.56-.27,2.952-1.106,3.919-5.477,3.959-5.662,.041-.191-.034-.389-.19-.506ZM7.495,7.741c.032-1.919,1.915-3.727,3.302-4.802-.503,1.167-.955,2.799-.34,4.076,.086,.179,.265,.283,.451,.283,.073,0,.146-.016,.216-.05,.249-.119,.354-.418,.234-.667-.613-1.273,.336-3.367,.905-4.337,1.212,.777,4.187,2.942,4.242,5.485-.074,2.234-2.306,4.452-4.498,4.482-2.21-.031-4.445-2.257-4.512-4.471Zm-1.563,14.054c-2.031-.762-2.984-3.648-3.251-4.617,.84-.554,3.461-2.1,5.498-1.34,2.031,.761,2.984,3.648,3.251,4.617-.839,.555-3.458,2.103-5.498,1.34Zm12.135,0c-2.028,.758-4.656-.786-5.498-1.341,.266-.969,1.215-3.854,3.251-4.616,2.029-.754,4.656,.787,5.497,1.341-.268,.969-1.221,3.854-3.251,4.616Z"/>
</svg>
