<svg id="Layer_1" viewBox="0 0 24 24" xmlns="http://www.w3.org/2000/svg" data-name="Layer 1"><path d="m13.75 11c0 .414-.336.75-.75.75s-.75-.336-.75-.75.336-.75.75-.75.75.336.75.75zm-3.75 2.25c-.414 0-.75.336-.75.75s.336.75.75.75.75-.336.75-.75-.336-.75-.75-.75zm-3 3c-.414 0-.75.336-.75.75s.336.75.75.75.75-.336.75-.75-.336-.75-.75-.75zm15.9-13.072c-.02.027-2 2.709-2 5.14-.013.088-.037.177-.071.257-.074.123-1.86 3.06-6.577 7.777s-7.654 6.503-7.776 6.577c-.14.084-.313.094-.462.028-.054-.024-1.324-.602-2.846-2.124s-2.101-2.793-2.124-2.846c-.067-.149-.057-.321.027-.461.074-.123 1.86-3.061 6.576-7.777 4.717-4.717 7.655-6.503 7.777-6.577.077-.038.164-.058.25-.071 2.908 0 5.08-1.949 5.102-1.969.142-.128.342-.167.521-.096.017-.011.562.272.972.686.496.491.677.926.695.974.063.161.039.344-.064.483zm-3.076 5.113c-.226-.406-.783-1.3-1.799-2.316s-1.91-1.572-2.316-1.798c-.778.513-3.474 2.397-7.354 6.278s-5.765 6.576-6.278 7.354c.226.406.783 1.3 1.799 2.316s1.91 1.573 2.316 1.798c.777-.513 3.473-2.397 7.354-6.278s5.766-6.576 6.279-7.354zm2.087-5.445c-.073-.107-.204-.286-.35-.412-.146-.147-.282-.255-.392-.329-.587.463-2.044 1.455-3.984 1.835.447.325.979.761 1.546 1.328.584.584 1.027 1.129 1.355 1.584.408-1.782 1.402-3.387 1.824-4.006z"/></svg>