<svg id="Layer_1" viewBox="0 0 24 24" xmlns="http://www.w3.org/2000/svg" data-name="Layer 1"><path d="m8.327 8.087 3.673 2.874 3.673-2.874c.218-.17.531-.132.702.085.17.217.132.532-.085.702l-3.79 2.965v3.66c0 .276-.224.5-.5.5s-.5-.224-.5-.5v-3.66l-3.79-2.965c-.217-.17-.255-.484-.085-.702s.484-.256.702-.085zm14.673 3.913c0 4.667-1.051 9.509-1.062 9.557-.042.191-.19.34-.381.381-.049.011-4.891 1.062-9.558 1.062s-9.509-1.051-9.558-1.062c-.19-.042-.339-.19-.381-.381-.011-.048-1.062-4.891-1.062-9.557s1.053-9.509 1.064-9.557c.042-.191.19-.34.381-.381.049-.011 4.891-1.062 9.558-1.062s9.509 1.051 9.558 1.062c.19.042.339.19.381.381.011.048 1.062 4.891 1.062 9.557zm-1 0c0-3.879-.745-7.891-.973-9.027-1.137-.228-5.148-.973-9.027-.973s-7.891.745-9.027.973c-.228 1.136-.973 5.148-.973 9.027s.745 7.891.973 9.027c1.137.228 5.148.973 9.027.973s7.891-.745 9.027-.973c.228-1.136.973-5.148.973-9.027zm-6-7c-1.277 0-3.021.25-3.413 2.411-.049.271.131.532.403.582.258.045.531-.13.581-.403.173-.954.652-1.589 2.429-1.589 1.869 0 2.5.631 2.5 2.5s-.631 2.5-2.5 2.5c-.276 0-.5.224-.5.5s.224.5.5.5c2.421 0 3.5-1.08 3.5-3.5s-1.079-3.5-3.5-3.5zm-8 6c-1.869 0-2.5-.631-2.5-2.5s.631-2.5 2.5-2.5c1.776 0 2.256.635 2.429 1.589.05.272.322.449.581.403.272-.05.452-.31.403-.582-.393-2.161-2.136-2.411-3.413-2.411-2.421 0-3.5 1.08-3.5 3.5s1.079 3.5 3.5 3.5c.276 0 .5-.224.5-.5s-.224-.5-.5-.5zm6.208 2.022c-.224.161-.275.474-.114.698.273.38.406.962.406 1.78 0 1.869-.631 2.5-2.5 2.5s-2.5-.631-2.5-2.5c0-.818.133-1.4.406-1.78.161-.224.109-.537-.114-.698-.226-.163-.537-.111-.698.114-.399.556-.594 1.329-.594 2.364 0 2.42 1.079 3.5 3.5 3.5s3.5-1.08 3.5-3.5c0-1.035-.194-1.808-.594-2.364-.161-.225-.475-.275-.698-.114z"/></svg>