<svg id="Layer_1" viewBox="0 0 24 24" xmlns="http://www.w3.org/2000/svg" data-name="Layer 1"><path d="m20.536 3.441c-3.891-3.895-9.062-3.106-14.619 2.459-7.054 7.065-5.229 11.861-2.455 14.64 1.631 1.633 3.472 2.46 5.474 2.46 2.809 0 5.886-1.655 9.145-4.919 7.055-7.066 5.229-11.861 2.455-14.64zm-13.911 3.165c3.051-3.057 5.892-4.606 8.441-4.606.665 0 1.311.107 1.934.318.107.149.291.408.333.476 1.775 3.029.55 6.693-3.643 10.892-4.278 4.284-7.98 5.502-10.996 3.616-.142-.091-.354-.259-.36-.265-1.06-3.013.373-6.508 4.29-10.43zm10.748 10.767c-5.152 5.162-9.658 6.009-13.203 2.459-.372-.373-.696-.756-.973-1.148.785.327 1.602.49 2.447.49 2.645 0 5.575-1.598 8.755-4.783 4.187-4.194 5.604-7.975 4.224-11.254.414.284.816.62 1.205 1.01 3.567 3.572 2.741 8.022-2.455 13.226z"/></svg>