<svg id="Layer_1" viewBox="0 0 24 24" xmlns="http://www.w3.org/2000/svg" data-name="Layer 1"><path d="m22.437 5.508c-.033-.182-.165-.33-.34-.386-.362-.115-3.719-1.122-10.096-1.122-.487 0-.956.006-1.407.017l-.627-1.515c-.065-.157-.205-.27-.372-.3-.687-.127-1.83-.262-3.376-.174-2.561.141-3.849.908-3.903.94-.105.064-.184.165-.219.283-.045.149-1.096 3.694-1.096 8.75s1.028 8.455 1.072 8.597c.048.154.167.276.32.327.132.044 3.3 1.076 9.608 1.076s9.477-1.032 9.608-1.076c.153-.051.272-.173.32-.327.043-.142 1.072-3.54 1.072-8.597 0-3.099-.394-5.572-.563-6.492zm-19.439-1.769c.392-.185 1.482-.615 3.274-.714 1.261-.07 2.228.015 2.875.115l.653 1.578c.08.191.239.29.477.309.547-.017 1.121-.026 1.723-.026 5.407 0 8.546.728 9.507.991.109.637.263 1.695.37 3.021-1.205-.316-4.471-1.013-9.877-1.013s-8.664.695-9.872 1.011c.23-2.715.707-4.665.87-5.273zm18.045 16.309c-.853.234-3.891.952-9.043.952s-8.19-.718-9.043-.952c-.233-.874-.957-3.919-.957-8.048 0-.676.025-1.314.059-1.932.717-.207 4.057-1.068 9.941-1.068s9.252.868 9.949 1.07c.032.606.051 1.252.051 1.93 0 4.129-.724 7.175-.957 8.048zm-6.19-7.195-2.146 2.146 2.146 2.146c.195.195.195.512 0 .707s-.512.195-.707 0l-2.146-2.146-2.146 2.146c-.195.195-.512.195-.707 0s-.195-.512 0-.707l2.146-2.146-2.146-2.146c-.195-.195-.195-.512 0-.707s.512-.195.707 0l2.146 2.146 2.146-2.146c.195-.195.512-.195.707 0s.195.512 0 .707z"/></svg>