<svg id="Layer_1" viewBox="0 0 24 24" xmlns="http://www.w3.org/2000/svg" data-name="Layer 1"><path d="m10.95 22c-5.664 0-8.344-.997-8.574-1.087-.144-.05-.268-.185-.307-.331-.077-.252-1.069-3.59-1.069-8.582 0-5.082 1.052-8.599 1.096-8.746.036-.117.113-.217.218-.281.054-.032 1.342-.804 3.903-.945 1.547-.09 2.69.047 3.377.175.167.03.306.144.371.3l.622 1.503c.06-.003.165-.005.363-.005 5.143 0 8.127.782 9.172 1.119.175.056.336.214.369.396.136.738.375 2.245.494 4.213 1.061.213 1.617.394 1.672.412.21.07.35.27.342.491-.008.235-.228 5.807-3.24 10.101-.056.079-.133.141-.223.177-.111.045-2.781 1.092-8.586 1.092zm-7.545-1.812c1.098.299 3.565.812 7.545.812 4.876 0 7.482-.771 8.08-.973 2.324-3.402 2.839-7.74 2.945-9.043-1.031-.273-4.22-.984-9.475-.984-1.52 0-2.985.06-4.363.176-2.232 6.152-3.928 8.919-4.731 10.013zm-.407-16.445c-.218.808-.998 3.998-.998 8.257 0 3.379.477 6.006.781 7.336.812-1.183 2.431-3.975 4.523-9.799.066-.183.231-.312.425-.329 1.499-.138 3.104-.208 4.771-.208 3.294 0 5.782.268 7.472.544-.105-1.564-.284-2.805-.411-3.552-1.224-.36-4.015-.992-8.61-.992-.486-.003-.099.006-.673.026-.235-.011-.397-.117-.477-.309l-.653-1.578c-.646-.1-1.611-.184-2.875-.114-1.793.1-2.884.533-3.275.718z"/></svg>