<?xml version="1.0" encoding="UTF-8"?>
<svg xmlns="http://www.w3.org/2000/svg" id="Layer_1" data-name="Layer 1" viewBox="0 0 24 24">
  <path d="M12,1C6.891,1,1.026,2.25,1.026,12c0,7.71,3.282,11,10.974,11,5.109,0,10.974-1.25,10.974-11,0-7.71-3.282-11-10.974-11Zm9.411,15.56l-4.85-2.644v-3.833l4.85-2.643c.382,1.271,.562,2.784,.562,4.56s-.181,3.289-.562,4.56Zm-.344-10.071l-4.894,2.667c-1.122-.947-2.95-1.814-3.674-2.139V2.006c4.546,.092,7.277,1.461,8.568,4.483Zm-9.068,9.621c-.616-.28-2.512-1.181-3.561-2.086v-4.041c1.051-.907,2.951-1.812,3.564-2.093,.614,.273,2.508,1.153,3.558,2.057v4.077c-1.049,.905-2.945,1.806-3.561,2.086Zm-.5-14.104V7.02c-.717,.331-2.538,1.215-3.661,2.161L2.932,6.49C4.223,3.466,6.954,2.097,11.5,2.006ZM2.026,12c0-1.775,.181-3.288,.562-4.558l4.851,2.66v3.823l-4.848,2.642c-.383-1.272-.565-2.787-.565-4.567Zm.909,5.518l4.918-2.68c1.124,.941,2.932,1.815,3.647,2.143v5.013c-4.542-.092-7.273-1.459-8.565-4.476Zm9.565,4.476v-5.013c.716-.329,2.529-1.205,3.653-2.148l4.915,2.679c-1.291,3.023-4.022,4.391-8.568,4.483Z"/>
</svg>
