<svg id="Layer_1" viewBox="0 0 24 24" xmlns="http://www.w3.org/2000/svg" data-name="Layer 1"><path d="m22.558 20.002c-1.198-.117-2.106-.569-2.486-.789-.074-1.412-.358-8.451.927-14.61.057-.271-.117-.535-.387-.592-.271-.063-.536.117-.591.387-.606 2.903-.868 5.985-.969 8.611-.04-.025-2.109 0-2.154-.008-.207-1.257-.474-2.48-.863-3.791-1.513-5.101-3.478-7.251-3.56-7.34-.061-.065-.139-.113-.224-.139-.101-.029-2.495-.73-4.848-.73s-4.734.688-4.835.716c-.137.04-.25.137-.312.266-.047.099-1.059 2.288-1.222 6.697-.254 3.58.689 8.655.975 9.178v2.144c0 1.654 1.346 3 3 3s3-1.346 3-3v-1.034c.894.029 2.03.042 3 .028v1.006c0 1.654 1.346 3 3 3s3-1.346 3-3v-2.038l-.005-3.962c.016-.002 2.002.004 2.015-.002-.08 3.189.066 5.493.069 5.535.01.15.087.287.209.374.052.037 1.294.906 3.163 1.091.271.027.52-.173.546-.449.027-.274-.174-.52-.449-.547zm-19.483-17.388c.639-.167 2.52-.614 4.327-.614 1.896 0 3.889.505 4.425.65.385.468 1.986 2.587 3.248 6.844.365 1.231.617 2.372.812 3.506h-7.176c-3.452-1.119-6.039-3.691-6.673-4.363.138-3.397.799-5.407 1.036-6.022zm3.934 17.386c0 1.103-.897 2-2 2s-2-.897-2-2v-1.426c.682.099 2.028.26 4 .353v1.072zm9 0c0 1.103-.897 2-2 2s-2-.897-2-2v-1.029c2.085-.067 3.327-.239 4-.372zm0-2.422c-.649.145-2.35.422-5.846.422-3.904 0-6.39-.321-7.2-.444-.248-.824-.934-3.481-.951-7.529 1.192 1.125 3.511 3.013 6.47 3.95.049.016.1.023.151.023h7.376z"/></svg>