<svg id="Layer_1" viewBox="0 0 24 24" xmlns="http://www.w3.org/2000/svg" data-name="Layer 1"><path d="m21.965 1.361c-.077-.266-.358-.42-.619-.341-.266.077-.418.354-.342.619.009.032.853 3.037.979 8.897-.81-.944-2.169-2.356-4.239-3.98-3.66-2.872-5.869-3.511-5.961-3.537-.263-.078-.56.094-.621.362-.019.078-.424 1.765-.615 5.102-.7-.655-1.455-1.3-2.253-1.927-3.66-2.873-5.869-3.512-5.961-3.537-.263-.078-.56.093-.62.362-.029.118-.713 2.957-.713 8.62s.684 8.502.713 8.62c.06.267.358.441.62.361.092-.025 2.301-.665 5.961-3.537.799-.627 1.554-1.272 2.253-1.927.19 3.337.596 5.024.615 5.102.06.268.358.443.621.362.092-.025 2.301-.665 5.961-3.537 2.07-1.624 3.428-3.037 4.239-3.981-.126 5.861-.97 8.865-.979 8.898-.076.265.076.542.342.619.258.076.543-.073.619-.341.042-.146 1.035-3.649 1.035-10.64s-.993-10.494-1.035-10.639zm-4.838 15.296c-2.488 1.953-4.278 2.828-5.104 3.171-.154-.852-.424-2.682-.529-5.459-.002-.425-.564-.643-.854-.334-.884.891-1.88 1.772-2.963 2.622-2.489 1.953-4.279 2.829-5.104 3.172-.194-1.071-.573-3.696-.573-7.829s.379-6.758.573-7.829c.826.342 2.615 1.218 5.104 3.171 1.081.848 2.078 1.73 2.963 2.622.289.312.853.091.854-.333.104-2.778.375-4.608.529-5.46.825.343 2.615 1.218 5.104 3.171 2.791 2.19 4.25 3.975 4.759 4.657-.509.683-1.968 2.468-4.759 4.657z"/></svg>