<svg id="Layer_1" viewBox="0 0 24 24" xmlns="http://www.w3.org/2000/svg" data-name="Layer 1"><path d="m20.975 2.658c-.088.262-.37.405-.633.316-.029-.01-2.98-.975-6.967-.975-2.97 0-5.729.514-6.649.704-.176 1.022-.789 5.624-.721 9.733 1.069-.151 3.468-.437 6.255-.437 3.137 0 5.626.337 6.314.44.273.041.461.295.42.568s-.305.456-.568.42c-1.383-.207-3.729-.429-6.166-.429-2.81 0-5.266.307-6.233.446.044 1.342.141 2.651.26 3.84 1.35-.136 3.27-.286 5.213-.286.276 0 .5.224.5.5s-.224.5-.5.5c-1.903 0-3.785.147-5.108.281.275 2.4.593 4.096.599 4.126.052.271-.126.533-.397.585-.265.052-.534-.124-.585-.397-.006-.03-.33-1.758-.61-4.204-.609.07-.755.103-.9.111-.244 0-.458-.18-.494-.428-.039-.273.15-.527.423-.567.01-.001.332-.047.865-.11-.165-1.646-.295-3.608-.293-5.395 0-5.233.787-9.755.795-9.8.034-.197.184-.354.378-.399.14-.033 3.454-.801 7.202-.801 4.158 0 7.157.983 7.283 1.025.262.088.403.37.316.633z"/></svg>