<?xml version="1.0" encoding="UTF-8"?>
<svg xmlns="http://www.w3.org/2000/svg" id="Layer_1" data-name="Layer 1" viewBox="0 0 24 24">
  <path d="M22.296,5.766c-.028-.013-.696-.327-1.623-.588-.524-.147-.982-.237-1.288-.287,.159-.785,.247-1.252,.25-1.265,.042-.224-.072-.447-.277-.544-.034-.016-.846-.397-1.974-.715-1.138-.32-2.015-.415-2.052-.418-.248-.027-.455,.119-.527,.343,0,0-.086,.265-.229,.719-.042-.865-.075-1.381-.076-1.395-.015-.231-.187-.422-.415-.46-.037-.006-.915-.154-2.084-.154-1.179,0-2.049,.148-2.085,.154-.228,.04-.399,.229-.414,.46-.001,.014-.034,.53-.077,1.395-.144-.456-.229-.719-.229-.719-.072-.224-.285-.369-.527-.342-.037,.003-.914,.098-2.052,.418-1.128,.318-1.939,.699-1.974,.715-.205,.097-.319,.321-.277,.544,.002,.013,.09,.48,.25,1.265-.306,.05-.764,.139-1.288,.287-.927,.261-1.595,.575-1.623,.588-.205,.097-.319,.321-.277,.544,.005,.025,.448,2.385,1.154,5.326-.162,.031-.252,.05-.258,.051-.131,.028-.245,.107-.317,.221-.072,.113-.096,.25-.065,.381l2.163,9.38c.036,.157,.146,.287,.294,.349,.096,.04,2.406,.982,7.603,.982s7.507-.942,7.603-.982c.148-.062,.258-.192,.294-.349l2.163-9.38c.03-.13,.007-.268-.065-.381-.072-.113-.187-.192-.317-.221-.006-.001-.096-.02-.258-.051,.706-2.941,1.15-5.301,1.154-5.326,.042-.223-.072-.447-.277-.544Zm-6.668-2.767c.343,.056,.876,.158,1.484,.33,.619,.174,1.141,.372,1.464,.504-.199,1.018-.779,3.894-1.593,7.165-.694-.071-1.441-.134-2.225-.181v-.539c.001-1.519-.027-2.975-.065-4.246,.379-1.279,.761-2.491,.934-3.034Zm-3.628-.999c.633,0,1.18,.048,1.525,.087,.064,1.131,.234,4.469,.234,8.192v.489c-.575-.023-1.163-.035-1.76-.035s-1.185,.013-1.758,.035v-.489c-.001-3.729,.169-7.062,.233-8.192,.344-.04,.889-.087,1.525-.087Zm-5.112,1.329c.608-.172,1.142-.274,1.484-.33,.179,.563,.528,1.677,.932,3.047,0,.002,.001,.003,.002,.005-.037,1.265-.065,2.715-.065,4.228v.539c-.782,.047-1.529,.11-2.223,.18-.815-3.271-1.395-6.148-1.593-7.166,.323-.132,.845-.33,1.464-.504ZM2.485,6.519c.264-.105,.655-.25,1.113-.379,.504-.142,.944-.225,1.219-.269,.286,1.361,.696,3.222,1.196,5.239-.984,.118-1.82,.245-2.447,.35-.538-2.239-.925-4.147-1.081-4.94Zm16.498,14.658c-.688,.223-2.922,.823-6.983,.823s-6.295-.6-6.983-.823l-1.985-8.608c1.292-.239,4.927-.835,8.969-.835s7.677,.597,8.969,.835l-1.985,8.608Zm1.45-9.717c-.626-.105-1.463-.231-2.446-.349,.499-2.017,.909-3.878,1.195-5.239,.275,.044,.715,.127,1.219,.269,.458,.129,.85,.273,1.113,.379-.156,.793-.543,2.701-1.081,4.94Z"/>
</svg>
