<svg id="Layer_1" viewBox="0 0 24 24" xmlns="http://www.w3.org/2000/svg" data-name="Layer 1"><path d="m20.243 13.609c-.031-.05-.07-.094-.117-.13-4.566-3.567-8.882-.411-8.926-.378-.221.166-.266.479-.1.7s.479.265.7.1c.037-.027 3.692-2.697 7.631.305.135.259.569 1.215.569 2.708 0 1.969-.504 2.86-.493 2.86-1.392 1.52-3.511 2.227-6.668 2.227-4.591 0-8.839-1.211-8.839-10s4.468-10.001 8.839-10.001c2.847 0 4.917.613 6.328 1.873.206.183.522.167.706-.04.184-.206.166-.522-.04-.706-1.603-1.431-3.89-2.127-6.994-2.127-6.804 0-9.839 3.393-9.839 11 0 7.71 2.942 11 9.839 11 3.46 0 5.815-.812 7.458-2.618.072-.11.703-1.14.703-3.469 0-2.061-.726-3.254-.757-3.304z"/></svg>