<svg id="Layer_1" viewBox="0 0 24 24" xmlns="http://www.w3.org/2000/svg" data-name="Layer 1"><path d="m2.138 14.237c.135.031 3.38.763 9.862.763s9.728-.731 9.862-.763c.171-.04.309-.165.362-.331.032-.097.775-2.4.775-5.906s-.743-5.81-.775-5.906c-.054-.166-.191-.292-.362-.331-.135-.031-3.38-.763-9.862-.763s-9.728.731-9.862.763c-.171.04-.309.165-.362.331-.032.097-.775 2.4-.775 5.906s.743 5.81.775 5.906c.054.166.191.292.362.331zm.508-11.557c.919-.173 4.061-.68 9.354-.68s8.436.507 9.354.68c.188.695.646 2.657.646 5.32s-.458 4.625-.646 5.32c-.919.173-4.061.68-9.354.68s-8.436-.507-9.354-.68c-.188-.695-.646-2.657-.646-5.32s.458-4.625.646-5.32zm11.712 14.582c-.049-.011-1.205-.262-2.357-.262s-2.309.251-2.357.262c-.19.042-.339.19-.381.381-.011.049-.262 1.205-.262 2.357s.251 2.309.262 2.357c.042.19.19.339.381.381.049.011 1.205.262 2.357.262s2.309-.251 2.357-.262c.19-.042.339-.19.381-.381.011-.049.262-1.205.262-2.357s-.251-2.309-.262-2.357c-.042-.19-.19-.339-.381-.381zm-.534 4.561c-.402.071-1.124.177-1.823.177s-1.421-.106-1.823-.177c-.07-.402-.177-1.124-.177-1.823s.106-1.421.177-1.823c.402-.071 1.124-.177 1.823-.177s1.421.106 1.823.177c.07.402.177 1.124.177 1.823s-.106 1.421-.177 1.823zm8.534-4.561c-.049-.011-1.205-.262-2.357-.262s-2.309.251-2.357.262c-.19.042-.339.19-.381.381-.011.049-.262 1.205-.262 2.357s.251 2.309.262 2.357c.042.19.19.339.381.381.049.011 1.205.262 2.357.262s2.309-.251 2.357-.262c.19-.042.339-.19.381-.381.011-.049.262-1.205.262-2.357s-.251-2.309-.262-2.357c-.042-.19-.19-.339-.381-.381zm-.534 4.561c-.402.071-1.124.177-1.823.177s-1.421-.106-1.823-.177c-.07-.402-.177-1.124-.177-1.823s.106-1.421.177-1.823c.402-.071 1.124-.177 1.823-.177s1.421.106 1.823.177c.07.402.177 1.124.177 1.823s-.106 1.421-.177 1.823zm-15.466-4.561c-.049-.011-1.205-.262-2.357-.262s-2.309.251-2.357.262c-.19.042-.339.19-.381.381-.011.049-.262 1.205-.262 2.357s.251 2.309.262 2.357c.042.19.19.339.381.381.049.011 1.205.262 2.357.262s2.309-.251 2.357-.262c.19-.042.339-.19.381-.381.011-.049.262-1.205.262-2.357s-.251-2.309-.262-2.357c-.042-.19-.19-.339-.381-.381zm-.534 4.561c-.402.071-1.124.177-1.823.177s-1.421-.106-1.823-.177c-.07-.402-.177-1.124-.177-1.823s.106-1.421.177-1.823c.402-.071 1.124-.177 1.823-.177s1.421.106 1.823.177c.07.402.177 1.124.177 1.823s-.106 1.421-.177 1.823z"/></svg>