<?xml version="1.0" encoding="UTF-8"?>
<svg xmlns="http://www.w3.org/2000/svg" id="Layer_1" data-name="Layer 1" viewBox="0 0 24 24">
  <g>
    <path d="M11.997,3.712C6.889,3.712,1.646,4.783,1.5,12.313c.046,2.25,.535,5.201,1.526,6.719,.562,.86,1.553,1.319,2.613,1.203,1.042-.119,1.906-.786,2.258-1.743,.672-1.836,2.016-2.736,4.099-2.752,2.048,.017,3.402,.969,4.108,2.799,.692,1.795,2.461,1.75,2.57,1.75,.923,0,1.775-.446,2.279-1.212,1.005-1.524,1.5-4.495,1.546-6.783-.145-7.551-5.766-8.581-10.503-8.581Zm8.122,14.814c-.355,.539-.979,.829-1.66,.75-.665-.077-1.195-.481-1.417-1.083-.824-2.239-2.566-3.433-5.046-3.453-2.486,.02-4.229,1.198-5.038,3.408-.223,.608-.758,1.017-1.432,1.093-.681,.077-1.31-.214-1.662-.755-.753-1.153-1.313-3.7-1.364-6.173,.122-6.263,3.886-7.568,9.5-7.601,6.646,.04,9.397,2.242,9.5,7.581-.05,2.513-.618,5.076-1.381,6.233Z"/>
    <path d="M9.077,11.343l-.849-.849,.849-.849c.195-.195,.195-.512,0-.707s-.512-.195-.707,0l-.849,.849-.849-.849c-.195-.195-.512-.195-.707,0s-.195,.512,0,.707l.849,.849-.849,.849c-.195,.195-.195,.512,0,.707s.512,.195,.707,0l.849-.849,.849,.849c.195,.195,.512,.195,.707,0s.195-.512,0-.707Z"/>
  </g>
  <g>
    <g>
      <circle cx="16.28" cy="8.598" r=".75"/>
      <circle cx="16.28" cy="12.39" r=".75"/>
    </g>
    <g>
      <circle cx="18.176" cy="10.494" r=".75"/>
      <circle cx="14.385" cy="10.494" r=".75"/>
    </g>
  </g>
</svg>
