<?xml version="1.0" encoding="UTF-8"?>
<svg xmlns="http://www.w3.org/2000/svg" id="Layer_1" data-name="Layer 1" viewBox="0 0 24 24">
  <path d="M15.801,17.918c-.087-2.064-.716-3.543-.744-3.607-.047-.109-.132-.198-.238-.25-.046-.022-1.145-.555-2.821-.555s-2.775,.532-2.821,.555c-.107,.053-.192,.142-.24,.252-.028,.065-.655,1.556-.742,3.605-.168,.067-.287,.221-.309,.402-.003,.021-.065,.536-.065,1.217,0,.687,.062,1.196,.065,1.217,.026,.21,.182,.381,.389,.426,.031,.007,.368,.08,.903,.16v.751c0,.276,.224,.5,.5,.5s.5-.224,.5-.5v-.627c.542,.054,1.164,.094,1.82,.094s1.278-.04,1.82-.094v.627c0,.276,.224,.5,.5,.5s.5-.224,.5-.5v-.752c.534-.08,.872-.153,.902-.16,.208-.045,.363-.216,.39-.427,.003-.021,.065-.535,.065-1.216,0-.687-.062-1.196-.065-1.217-.022-.181-.141-.333-.309-.401Zm-3.804-3.412c1.077,0,1.878,.254,2.211,.382,.145,.399,.476,1.425,.574,2.746-.697-.161-1.696-.332-2.785-.332s-2.087,.172-2.785,.333c.099-1.315,.429-2.346,.574-2.747,.331-.127,1.125-.381,2.21-.381Zm3.152,5.766c-.582,.103-1.804,.286-3.152,.286s-2.57-.183-3.152-.286c-.013-.191-.025-.447-.025-.735,0-.308,.014-.58,.029-.776,.55-.158,1.784-.459,3.149-.459s2.598,.302,3.149,.459c.014,.195,.028,.467,.028,.776,0,.287-.013,.543-.025,.735Z"/>
  <path d="M21.74,7.261c-.037-.075-.092-.139-.16-.187-1.885-1.329-8.147-5.665-9.58-5.665C10.509,1.41,3.758,6.129,2.419,7.075c-.069,.048-.124,.114-.161,.189-.051,.105-1.258,2.644-1.258,7.918,0,2.143,.196,5.273,.437,6.978,.035,.247,.246,.43,.495,.43h3.287c.276,0,.5-.224,.5-.5v-4.657c0-2.737,.499-4.958,.688-5.703,.764-.191,3.049-.705,5.593-.705s4.831,.513,5.593,.705c.189,.74,.688,2.944,.688,5.703v4.657c0,.276,.224,.5,.5,.5h3.284c.249,0,.46-.183,.495-.43,.243-1.712,.44-4.843,.44-6.978,0-5.32-1.209-7.818-1.26-7.921Zm-.114,14.329h-2.346v-4.157c0-3.545-.769-6.147-.802-6.256-.049-.163-.177-.29-.341-.337-.115-.033-2.873-.814-6.138-.814s-6.022,.781-6.138,.814c-.164,.047-.293,.174-.342,.338-.033,.11-.801,2.74-.801,6.255v4.157H2.371c-.206-1.712-.371-4.508-.371-6.408,0-4.421,.891-6.843,1.11-7.371C6.896,5.142,11.226,2.41,12,2.41c.76,0,5.095,2.733,8.892,5.403,.218,.52,1.108,2.913,1.108,7.37,0,1.893-.166,4.689-.374,6.408Z"/>
</svg>
