<?xml version="1.0" encoding="UTF-8"?>
<svg xmlns="http://www.w3.org/2000/svg" id="Layer_1" data-name="Layer 1" viewBox="0 0 24 24">
  <path d="M21.621,7.048c-.035-.075-.089-.139-.155-.188-1.861-1.375-8.045-5.859-9.466-5.859-1.441,0-7.61,4.485-9.467,5.86-.066,.05-.12,.115-.155,.191-.051,.109-1.239,2.726-1.239,8.169,0,1.938,.158,5.487,.37,7.337,.029,.252,.243,.443,.497,.443h3.705c.146,0,.286-.064,.381-.176,.095-.112,.136-.259,.112-.404-.162-1.001-.294-2.904-.294-4.24,0-.682,.033-1.347,.086-1.971h12.009c.052,.623,.085,1.287,.085,1.971,0,1.333-.133,3.235-.296,4.24-.023,.145,.018,.292,.112,.404,.095,.112,.234,.176,.381,.176h3.704c.254,0,.468-.19,.497-.443,.213-1.861,.373-5.408,.373-7.337,0-5.49-1.189-8.065-1.24-8.172ZM6.099,15.208c.158-1.303,.375-2.328,.484-2.799,.759-.186,2.96-.666,5.417-.666s4.659,.48,5.418,.666c.109,.469,.327,1.492,.485,2.799H6.099Zm15.442,6.792h-2.68c.133-1.099,.229-2.646,.229-3.82,0-3.367-.743-6.19-.774-6.309-.046-.171-.178-.305-.349-.353-.112-.032-2.794-.774-5.967-.774s-5.854,.743-5.967,.774c-.171,.048-.304,.182-.349,.354-.031,.12-.774,2.969-.774,6.308,0,1.177,.095,2.724,.227,3.82H2.456c-.185-1.898-.317-5.015-.317-6.78,0-4.59,.887-7.1,1.101-7.638C6.973,4.824,11.241,2,12,2c.753,.006,5.024,2.829,8.763,5.583,.213,.53,1.099,3.01,1.099,7.637,0,1.758-.134,4.875-.32,6.78Z"/>
</svg>
