<?xml version="1.0" encoding="UTF-8"?>
<svg xmlns="http://www.w3.org/2000/svg" id="Layer_1" data-name="Layer 1" viewBox="0 0 24 24">
  <path d="M21.063,6.729c-.035-.075-.088-.139-.154-.188-1.75-1.3-7.564-5.541-8.909-5.541-1.364,0-7.164,4.242-8.909,5.542-.067,.05-.12,.115-.155,.191-.048,.103-1.166,2.58-1.166,7.727,0,2.254,.21,5.58,.449,7.117,.03,.19,.166,.346,.349,.402,.138,.042,3.441,1.021,9.432,1.021s9.292-.98,9.429-1.021c.184-.056,.32-.212,.349-.402,.24-1.548,.451-4.874,.451-7.117,0-5.191-1.119-7.629-1.167-7.73ZM7.522,21.796c-.149-.568-.563-2.346-.563-4.579,0-2.125,.381-3.86,.544-4.503,.668-.162,2.483-.551,4.497-.551s3.831,.389,4.497,.551c.163,.639,.543,2.362,.543,4.503,0,2.215-.414,4.006-.564,4.579-1.258,.119-2.757,.204-4.477,.204s-3.219-.085-4.478-.204Zm13.314-.694c-.503,.126-1.624,.376-3.3,.58,.195-.835,.504-2.475,.504-4.464,0-2.866-.632-4.973-.659-5.062-.05-.163-.179-.289-.343-.335-.095-.027-2.36-.658-5.039-.658s-4.943,.631-5.039,.658c-.164,.046-.293,.174-.343,.337-.027,.089-.659,2.217-.659,5.06,0,2.001,.308,3.632,.503,4.464-1.676-.204-2.798-.454-3.301-.579-.213-1.604-.391-4.577-.391-6.643,0-4.312,.824-6.678,1.028-7.198,3.487-2.591,7.479-5.249,8.201-5.261,.718,.019,4.712,2.676,8.203,5.263,.204,.513,1.027,2.85,1.027,7.197,0,2.019-.182,5.043-.394,6.643Z"/>
  <path d="M12.918,17.383h-1.836c-.276,0-.5,.224-.5,.5s.224,.5,.5,.5h1.836c.276,0,.5-.224,.5-.5s-.224-.5-.5-.5Z"/>
</svg>
