<?xml version="1.0" encoding="UTF-8"?>
<svg xmlns="http://www.w3.org/2000/svg" id="Layer_1" data-name="Layer 1" viewBox="0 0 24 24">
  <path d="M22.831,3.354c-.208-.182-.523-.162-.706,.044l-2.532,2.87c-.08,.092-.125,.209-.125,.331v2.062c0,4.577-.437,8.248-.569,9.262-.445,.166-1.506,.493-3.086,.541,.187-1.698,.36-3.944,.36-6.457,0-5.51-.816-9.671-.825-9.712-.038-.19-.183-.342-.372-.388-.12-.03-2.99-.721-6.39-.721S2.318,1.876,2.197,1.906c-.189,.046-.335,.197-.372,.389-.009,.042-.825,4.247-.825,9.711,0,5.51,.816,9.67,.825,9.711,.038,.191,.184,.343,.373,.389,.121,.028,2.99,.709,6.388,.709s6.268-.68,6.388-.709c.19-.046,.337-.198,.374-.39,.004-.019,.166-.853,.345-2.25,2.452-.047,3.825-.715,3.884-.745,.146-.072,.248-.212,.271-.374,.007-.042,.619-4.235,.619-9.687v-1.872l2.407-2.729c.183-.207,.163-.523-.044-.706ZM2.748,2.808c.83-.176,3.197-.622,5.838-.622s5.01,.446,5.839,.622c.165,.94,.626,3.878,.728,7.699h-3.221c.003-.081,.005-.162,.005-.247,0-1.656-.573-2.512-1.327-2.946l1.116-1.22c.187-.204,.172-.521-.031-.707-.205-.186-.521-.171-.707,.031l-1.408,1.54c-.337-.059-.677-.076-.993-.076-1.438,0-3.35,.351-3.35,3.378,0,.085,.002,.167,.005,.247H2.021c.103-3.797,.564-6.754,.728-7.699Zm3.493,7.699c-.003-.08-.005-.162-.005-.247,0-1.98,.899-2.378,2.35-2.378,1.488,0,2.351,.389,2.351,2.378,0,.085-.002,.167-.005,.247H6.241Zm2.345,11.308c-2.642,0-5.008-.439-5.839-.612-.185-1.061-.747-4.652-.747-9.196,0-.168,0-.334,.002-.499H15.17c.001,.165,.002,.331,.002,.499,0,4.503-.563,8.128-.748,9.196-.833,.173-3.203,.612-5.839,.612Z"/>
</svg>
