<svg id="Layer_1" viewBox="0 0 24 24" xmlns="http://www.w3.org/2000/svg" data-name="Layer 1"><path d="m17.5 12c-3.855 0-5.5 1.645-5.5 5.5s1.645 5.5 5.5 5.5 5.5-1.645 5.5-5.5-1.645-5.5-5.5-5.5zm0 10c-3.28 0-4.5-1.22-4.5-4.5s1.22-4.5 4.5-4.5 4.5 1.22 4.5 4.5-1.22 4.5-4.5 4.5zm2.5-4.5c0 .276-.224.5-.5.5h-1.5v1.5c0 .276-.224.5-.5.5s-.5-.224-.5-.5v-1.5h-1.5c-.276 0-.5-.224-.5-.5s.224-.5.5-.5h1.5v-1.5c0-.276.224-.5.5-.5s.5.224.5.5v1.5h1.5c.276 0 .5.224.5.5zm-7-6.5c0-1.166-.493-1.811-1.5-1.963v-3.537c0-.276-.224-.5-.5-.5s-.5.224-.5.5v3.537c-1.007.152-1.5.797-1.5 1.963 0 1.346.654 2 2 2s2-.654 2-2zm-2 1c-.794 0-1-.206-1-1s.206-1 1-1 1 .206 1 1-.206 1-1 1zm-1 5.5c0 .276-.224.5-.5.5h-1.766l-1.252 1.502c-.328.33-.747.496-1.164.496-.312 0-.623-.093-.893-.281-2.241-1.563-3.426-4.578-3.426-8.717.001-7.103 2.898-10 10.001-10 6.562 0 9.538 2.531 9.95 8.466.019.275-.188.514-.465.533-.277.015-.514-.189-.533-.465-.376-5.422-2.886-7.534-8.952-7.534-6.477 0-9 2.523-9 9 0 3.798 1.037 6.528 2.998 7.896.231.162.546.132.747-.068l1.371-1.648c.095-.114.235-.18.384-.18h2c.276 0 .5.224.5.5z"/></svg>