<svg id="Layer_1" viewBox="0 0 24 24" xmlns="http://www.w3.org/2000/svg" data-name="Layer 1"><path d="m22.695 11.119c-.186-.079-.397-.035-.537.096-.655-.877-2.194-2.842-4.362-5.01-2.182-2.182-4.135-3.711-5.009-4.363.131-.14.175-.349.096-.537-.108-.254-.4-.375-.655-.266-.097.041-2.381 1.019-4.312 2.949-1.926 1.926-2.908 4.214-2.949 4.311-.107.254.011.547.266.655.063.027.129.04.195.04.125 0 .247-.048.339-.133.616.836 2.015 2.645 3.995 4.67l-8.616 8.616c-.195.195-.195.512 0 .707.098.098.226.146.354.146s.256-.049.354-.146l8.614-8.615c2.037 1.992 3.837 3.383 4.67 3.995-.129.14-.172.347-.093.533.081.191.266.305.461.305.064 0 .13-.013.194-.04.097-.041 2.381-1.019 4.312-2.949 1.926-1.926 2.908-4.214 2.949-4.311.107-.254-.011-.547-.266-.655zm-14.072-6.423c1.113-1.113 2.38-1.897 3.183-2.332.292.209 1.446 1.053 2.959 2.376-.998.47-2.401 1.271-3.617 2.487-1.228 1.227-2.037 2.665-2.491 3.629-1.317-1.517-2.16-2.686-2.366-2.977.435-.802 1.218-2.069 2.332-3.183zm.761 6.978c.367-.854 1.164-2.433 2.47-3.74 1.312-1.311 2.91-2.111 3.726-2.464.483.442.99.924 1.509 1.442.52.519 1.004 1.029 1.448 1.516-.357.819-1.161 2.414-2.468 3.721s-2.872 2.101-3.736 2.475c-.485-.442-.994-.924-1.513-1.443-.516-.516-.996-1.022-1.436-1.506zm9.921 3.704c-1.113 1.113-2.38 1.897-3.183 2.332-.288-.203-1.45-1.039-2.971-2.359.968-.458 2.399-1.268 3.625-2.495 1.212-1.212 2.016-2.613 2.489-3.612 1.313 1.504 2.16 2.659 2.371 2.953-.435.802-1.218 2.068-2.332 3.182z"/></svg>