<svg id="Layer_1" viewBox="0 0 24 24" xmlns="http://www.w3.org/2000/svg" data-name="Layer 1"><path d="m20.038 7.607c-.024.274-.261.481-.542.454-.316-.028-.738-.061-1.042-.061-.913 0-1.769.132-2.217.216-.086.564-.256 2.067-.235 3.408.541-.07 1.659-.148 2.492-.118.276.007.495.236.488.512s-.286.488-.512.488c-.818-.031-1.944.055-2.442.123.072 1.786.263 3.8.265 3.825.03.292-.205.549-.498.547-.255 0-.473-.194-.497-.453-.012-.022-.319-3.607-.298-5.11 0-1.99.291-3.659.303-3.729.035-.197.183-.354.378-.4.054-.013 1.331-.309 2.772-.309.329 0 .788.034 1.131.064.275.024.478.267.454.542zm-7.107-.601c-.281-.045-.529.141-.574.414-.015.09-.357 2.229-.357 4.58s.342 4.49.357 4.58c.043.274.307.458.574.414.272-.044.458-.301.414-.574-.003-.021-.344-2.152-.344-4.42s.341-4.399.344-4.42c.044-.272-.141-.529-.414-.574zm-5.931.994c1.514 0 2 .486 2 2 0 .276.224.5.5.5s.5-.224.5-.5c0-2.075-.925-3-3-3s-3 .925-3 3v4c0 2.075.925 3 3 3s3-.925 3-3v-1.5c0-.276-.224-.5-.5-.5h-2c-.276 0-.5.224-.5.5s.224.5.5.5h1.5v1c0 1.514-.486 2-2 2s-2-.486-2-2v-4c0-1.514.486-2 2-2zm16 4c0 3.801-1.023 7.62-1.067 7.781-.05.187-.205.328-.395.361-.048.009-4.881.858-9.538.858s-9.489-.849-9.538-.858c-.19-.034-.345-.174-.395-.361-.044-.161-1.067-3.98-1.067-7.781s1.023-7.62 1.067-7.781c.05-.187.205-.328.395-.361.048-.009 4.881-.858 9.538-.858s9.489.849 9.538.858c.19.034.345.174.395.361.044.161 1.067 3.98 1.067 7.781zm-1 0c0-3.061-.713-6.229-.954-7.21-1.139-.185-5.159-.79-9.046-.79s-7.908.604-9.046.79c-.241.982-.954 4.149-.954 7.21s.713 6.229.954 7.21c1.139.185 5.159.79 9.046.79s7.908-.604 9.046-.79c.241-.982.954-4.149.954-7.21z"/></svg>