<?xml version="1.0" encoding="UTF-8"?>
<svg xmlns="http://www.w3.org/2000/svg" id="Layer_1" data-name="Layer 1" viewBox="0 0 24 24">
  <path d="M22.931,7.67h0s-.085-.351-.085-.351c-.256-1.011-1.124-1.783-2.16-1.92-1.057-.14-2.135-.254-3.225-.341,.105-.313,.159-.642,.159-.975,0-1.69-1.372-3.066-3.06-3.066-1.07,0-2.012,.554-2.56,1.389-.547-.836-1.49-1.389-2.56-1.389-1.687,0-3.06,1.375-3.06,3.066,0,.334,.055,.665,.16,.978-1.091,.088-2.17,.202-3.228,.343-1.036,.138-1.904,.91-2.159,1.92l-.085,.35c-.191,.824,.028,1.695,.585,2.328,.184,.209,.395,.384,.625,.521l-.035,.176c-.661,3.195-.56,6.884,.271,9.867,.275,.988,1.107,1.722,2.121,1.872,2.426,.357,4.87,.537,7.313,.539,.017,.002,.034,.003,.052,.003s.035,0,.052-.003c2.443-.003,4.886-.182,7.312-.539,1.013-.149,1.845-.884,2.12-1.872,.827-2.971,.931-6.646,.279-9.822-.004-.021-.026-.121-.049-.225,.232-.137,.445-.312,.631-.522,.558-.634,.776-1.504,.585-2.328ZM14.56,2.019c1.136,0,2.06,.927,2.06,2.066,0,.312-.071,.621-.206,.9-1.246-.08-2.506-.125-3.767-.136-.097-.243-.146-.499-.146-.763,0-1.139,.924-2.066,2.06-2.066Zm-7.179,2.066c0-1.139,.924-2.066,2.06-2.066s2.06,.927,2.06,2.066c0,.265-.05,.521-.146,.764-1.261,.012-2.52,.058-3.765,.138-.136-.28-.207-.588-.207-.902ZM2.043,7.902l.081-.331c.156-.619,.687-1.09,1.321-1.175,2.6-.346,5.324-.529,8.056-.55v3.618c-2.608,.016-5.211,.153-7.746,.41-.516,.057-1.006-.141-1.35-.531-.351-.398-.482-.923-.362-1.441Zm1.436,12.398c-.778-2.795-.875-6.396-.255-9.397l.009-.045c.116,.016,.234,.025,.353,.025,.089,0,.179-.004,.269-.014,2.502-.254,5.071-.389,7.645-.405v11.513c-2.245-.023-4.489-.198-6.719-.526-.622-.092-1.134-.543-1.302-1.15ZM20.782,10.938c.613,2.992,.514,6.579-.261,9.362-.17,.607-.681,1.059-1.304,1.151-2.229,.328-4.472,.504-6.717,.526V10.464c2.573,.015,5.143,.148,7.646,.4,.209,.02,.416,.015,.617-.012l.019,.086Zm.812-1.6c-.343,.389-.833,.586-1.349,.531-2.535-.255-5.139-.39-7.746-.405v-3.617c2.73,.019,5.455,.2,8.054,.544,.634,.084,1.166,.556,1.322,1.174l.079,.329h0c.121,.52-.011,1.046-.361,1.444Z"/>
</svg>
