<svg id="Layer_1" viewBox="0 0 24 24" xmlns="http://www.w3.org/2000/svg" data-name="Layer 1"><path d="m8.002 5.008c1.929.04 3.675.294 4.548.429.033.289.073.663.116 1.11.025.259.243.452.497.452.017 0 .032 0 .049-.002.274-.026.477-.271.45-.546-.066-.688-.126-1.207-.164-1.512-.03-.336-.365-.454-.656-.47-.247-.038-.589-.091-.995-.146.093-.265.155-.539.155-.824 0-1.379-1.121-2.5-2.5-2.5-.821 0-1.544.403-2 1.015-.456-.612-1.179-1.015-2-1.015-1.379 0-2.5 1.121-2.5 2.5 0 .285.051.563.143.826-.399.055-.736.107-.979.144-.292.016-.63.133-.66.47-.118.956-.504 4.397-.504 8.562s.386 7.603.504 8.56c.027.223.2.399.422.433.802.12 2.852.408 4.553.483h.021c.267 0 .487-.21.5-.479.012-.275-.202-.509-.479-.521-1.441-.062-3.196-.293-4.07-.417-.147-1.288-.451-4.391-.451-8.061s.305-6.776.451-8.062c.872-.135 2.62-.39 4.549-.43v5.492c0 .276.224.5.5.5s.5-.224.5-.5zm1.5-3.008c.827 0 1.5.673 1.5 1.5 0 .246-.072.481-.186.696-.824-.091-1.791-.167-2.814-.188v-.508c0-.827.673-1.5 1.5-1.5zm-5.5 1.5c0-.827.673-1.5 1.5-1.5s1.5.673 1.5 1.5v.508c-1.02.02-1.986.096-2.808.187-.115-.215-.192-.447-.192-.696zm18.259 9.403c-.06-.16-.198-.279-.366-.313-.06-.013-.823-.168-2.024-.316.081-.249.131-.508.131-.774 0-1.379-1.121-2.5-2.5-2.5-.821 0-1.544.403-2 1.015-.456-.612-1.179-1.015-2-1.015-1.379 0-2.5 1.121-2.5 2.5 0 .268.054.527.137.778-1.152.133-1.947.266-2.012.277-.176.03-.323.152-.385.319-.03.082-.74 2.029-.74 4.625 0 2.618.711 4.546.741 4.627.062.166.208.287.384.317.134.022 3.306.556 6.375.556 3.506 0 6.267-.506 6.383-.527.173-.032.316-.152.377-.317.03-.082.74-2.029.74-4.625 0-2.618-.711-4.546-.741-4.627zm-.405 2.635c-.948-.166-3.161-.496-5.854-.534v-1.997c2.553.041 4.671.376 5.409.508.112.363.309 1.083.445 2.023zm-4.354-5.539c.827 0 1.5.673 1.5 1.5 0 .233-.067.455-.17.661-.833-.079-1.792-.141-2.83-.156v-.505c0-.827.673-1.5 1.5-1.5zm-5.5 1.5c0-.827.673-1.5 1.5-1.5s1.5.673 1.5 1.5v.505c-.984.018-1.962.083-2.829.165-.105-.207-.171-.434-.171-.67zm3 1.509v1.997c-2.448.041-4.857.365-5.854.515.135-.934.33-1.656.443-2.025.802-.123 3.112-.443 5.411-.487zm-6 4.491c0-.33.016-.645.038-.951.73-.115 3.355-.498 5.962-.544v5.986c-2.299-.043-4.61-.364-5.412-.487-.184-.597-.588-2.121-.588-4.005zm12.41 4.039c-.747.119-2.863.417-5.41.454v-5.988c2.917.043 5.303.447 5.962.57.022.307.038.623.038.956 0 1.873-.406 3.409-.59 4.009z"/></svg>