<svg id="Layer_1" viewBox="0 0 24 24" xmlns="http://www.w3.org/2000/svg" data-name="Layer 1"><path d="m14.25 5c0-.414.336-.75.75-.75s.75.336.75.75-.336.75-.75.75-.75-.336-.75-.75zm3.75 5.75c.414 0 .75-.336.75-.75s-.336-.75-.75-.75-.75.336-.75.75.336.75.75.75zm4.98 11.887c-.075.268-.359.419-.618.344-.034-.01-3.533-.981-10.363-.981s-10.329.971-10.363.981c-.266.073-.542-.079-.618-.344s.078-.541.343-.618c.061-.017.724-.201 1.982-.407-.154-.512-.345-1.288-.345-1.987.005-.657.296-1.256.751-1.689-1.188-1.592-1.751-3.802-1.751-6.936.002-7.103 2.899-10 10.002-10s10 2.897 10 10c0 3.134-.563 5.344-1.751 6.936.455.433.746 1.031.751 1.686 0 .701-.191 1.478-.345 1.99 1.258.206 1.921.39 1.982.407.266.076.419.353.343.618zm-18.376-5.228c.183-.065.371-.117.571-.135 1.269-.118 3.382-.256 6.326-.271v-1.017c-.746-.03-1.423-.114-1.714-.156-.43-.062-.812-.308-1.047-.673s-.3-.814-.179-1.231c.021-.325.558-1.331 1.084-2.077-.168-.104-.316-.248-.43-.423-.216-.336-.273-.738-.158-1.104.083-.288.312-.902.86-1.667.629-.878 1.153-1.291 1.298-1.397.468-.34 1.1-.342 1.57 0 .145.105.669.519 1.298 1.397.549.765.777 1.379.864 1.678.112.355.055.758-.161 1.094-.113.176-.261.319-.43.423.502.715 1.015 1.678 1.094 2.112.108.408.041.842-.188 1.198-.235.365-.617.61-1.046.672-.291.042-.969.126-1.715.157v1.017c2.943.015 5.057.153 6.326.271.2.019.388.07.571.135 1.075-1.4 1.603-3.495 1.603-6.409 0-6.476-2.523-9-9-9s-9.001 2.52-9.001 8.997c0 2.914.528 5.009 1.603 6.409zm6.26-5.49c-.541.546-1.277 1.936-1.328 2.203-.105.374.055.652.392.718.334.048 1.205.16 2.071.16s1.737-.112 2.072-.161c.343-.042.504-.417.391-.721-.057-.276-.79-1.656-1.327-2.199-.292-.277-.107-.811.294-.848l.286-.038c.182-.015.331-.245.274-.412-.073-.248-.257-.742-.72-1.386-.568-.792-1.023-1.134-1.074-1.17-.118-.087-.275-.087-.393 0-.051.037-.506.379-1.074 1.17-.462.645-.647 1.139-.716 1.376-.063.173.085.403.261.421l.296.04c.401.036.586.571.294.848zm9.136 7.706c-.005-.692-.562-1.289-1.267-1.355-1.32-.123-3.56-.27-6.733-.27s-5.413.147-6.733.27c-.706.066-1.262.663-1.267 1.358 0 .643.207 1.399.346 1.835 1.762-.239 4.303-.463 7.654-.463s5.892.225 7.654.463c.138-.437.346-1.195.346-1.838zm-13-10.875c.414 0 .75-.336.75-.75s-.336-.75-.75-.75-.75.336-.75.75.336.75.75.75z"/></svg>