<?xml version="1.0" encoding="UTF-8"?>
<svg xmlns="http://www.w3.org/2000/svg" id="Layer_1" data-name="Layer 1" viewBox="0 0 24 24">
  <path d="M12,1C6.891,1,1.026,2.25,1.026,12c0,7.71,3.282,11,10.974,11,5.109,0,10.974-1.25,10.974-11,0-7.71-3.282-11-10.974-11Zm.065,21c-.022,0-.108,0-.13,0-1.755-.019-3.528-.84-4.143-5.757h8.417c-.616,4.917-2.388,5.738-4.143,5.757Zm-4.377-6.757c-.08-.946-.123-2.021-.123-3.242s.043-2.296,.123-3.242h8.625c.08,.946,.123,2.021,.123,3.242s-.043,2.296-.123,3.242H7.688Zm-5.661-3.242c0-1.199,.083-2.277,.253-3.242H6.682c-.079,.979-.117,2.058-.117,3.242s.039,2.263,.117,3.242H2.28c-.171-.965-.253-2.044-.253-3.242ZM11.935,2c.022,0,.108,0,.13,0,1.755,.019,3.528,.84,4.143,5.757H7.792c.616-4.917,2.388-5.738,4.143-5.757Zm5.383,6.757h4.402c.171,.965,.253,2.044,.253,3.242s-.083,2.277-.253,3.242h-4.402c.079-.979,.117-2.058,.117-3.242s-.039-2.263-.117-3.242Zm4.182-1h-4.281c-.31-2.625-.962-4.428-2.005-5.507,3.445,.608,5.445,2.348,6.286,5.507ZM8.786,2.251c-1.043,1.079-1.695,2.882-2.005,5.507H2.5c.841-3.159,2.841-4.899,6.286-5.507ZM2.5,16.242H6.78c.31,2.625,.962,4.428,2.005,5.507-3.445-.608-5.445-2.348-6.286-5.507Zm12.715,5.507c1.043-1.079,1.695-2.882,2.005-5.507h4.281c-.841,3.159-2.841,4.899-6.286,5.507Z"/>
</svg>
