<svg id="Layer_1" viewBox="0 0 24 24" xmlns="http://www.w3.org/2000/svg" data-name="Layer 1"><path d="m22.292 16.265c-.034-.209-.197-.375-.406-.411-.013-.002-.343-.06-.907-.143-.216-2.73-.782-5.624-.789-5.654-.04-.206-.205-.365-.412-.397-.011-.002-.303-.047-.785-.113-.068-3.839-.966-7.974-1.005-8.155-.06-.269-.32-.441-.596-.381-.27.059-.44.326-.381.596.004.018.166.765.357 1.894-.602-.098-1.58-.242-2.674-.351l-.197-1.708c-.031-.275-.29-.477-.555-.439-.274.031-.471.279-.439.554l.174 1.507c-.56-.039-1.128-.064-1.677-.064-.539 0-1.097.024-1.648.062l.146-1.514c.026-.275-.176-.519-.45-.545-.268-.02-.519.174-.546.45l-.163 1.695c-1.108.109-2.099.256-2.707.354.191-1.129.352-1.876.356-1.894.06-.27-.111-.537-.381-.596-.265-.057-.536.111-.596.381-.039.181-.937 4.315-1.005 8.155-.482.066-.774.111-.785.113-.207.032-.372.191-.412.397-.007.03-.573 2.923-.789 5.654-.564.084-.894.141-.907.143-.209.037-.372.202-.406.411-.006.032-.523 3.213-.707 6.204-.017.276.192.513.469.53.269.017.512-.193.529-.468.146-2.361.503-4.847.641-5.75 1.191-.19 5.23-.781 9.36-.781s8.169.591 9.36.781c.138.903.495 3.389.641 5.75.017.265.236.469.499.469h.03c.276-.017.485-.254.469-.53-.184-2.991-.701-6.172-.707-6.204zm-15.826-11.721c.825-.14 3.383-.544 5.534-.544s4.709.403 5.534.544c.213 1.423.417 3.183.457 4.875-1.072-.13-2.508-.279-3.991-.36v-1.059c0-1.346-.654-2-2-2s-2 .654-2 2v1.059c-1.484.081-2.919.23-3.991.36.04-1.691.244-3.451.457-4.875zm6.534 4.474c-.336-.01-.671-.017-1-.017s-.664.007-1 .017v-1.017c0-.794.206-1 1-1s1 .206 1 1zm-8.274 1.579c2.062-.279 4.456-.578 7.274-.596 2.821.019 5.21.317 7.274.596.149.809.511 2.915.687 4.972-1.466-.194-3.624-.43-5.962-.525v-1.043c0-1.346-.654-2-2-2s-2 .654-2 2v1.043c-2.338.095-4.496.332-5.962.525.176-2.056.539-4.163.688-4.972zm6.274 4.415v-1.011c0-.794.206-1 1-1s1 .206 1 1v1.011c-.332-.007-.665-.011-1-.011s-.668.004-1 .011zm3 4.989v2.5c0 .276-.224.5-.5.5s-.5-.224-.5-.5v-2.5c0-.794-.206-1-1-1s-1 .206-1 1v2.5c0 .276-.224.5-.5.5s-.5-.224-.5-.5v-2.5c0-1.346.654-2 2-2s2 .654 2 2z"/></svg>