<svg id="Layer_1" viewBox="0 0 24 24" xmlns="http://www.w3.org/2000/svg" data-name="Layer 1"><path d="m22.563 1.209c-1.105-.138-2.136-.208-3.062-.208s-1.957.07-3.062.208c-.273.034-.468.284-.434.558.034.275.285.464.559.434.151-.019.288-.026.436-.043-.005 1.029-.001 2.406.001 3.182 0 .624 0 2.522 1.162 2.654.517.055.997-.335 1.338-.708.341.374.83.76 1.337.708 1.163-.128 1.163-1.963 1.163-2.654 0-.168-.004-2.13-.012-3.184.152.017.294.024.449.044.269.035.526-.159.559-.434.034-.274-.16-.524-.434-.558zm-1.563 4.131c0 1.444-.271 1.655-.263 1.66-.155-.016-.562-.413-.82-.803-.186-.28-.648-.277-.834 0-.259.39-.665.788-.795.808-.003-.002-.288-.227-.288-1.665-.002-.791-.007-2.276 0-3.28.525-.038 1.03-.06 1.5-.06.467 0 .967.021 1.488.059.008 1.02.012 3.108.012 3.281zm-11.5 4.66c3.154 0 4.5-1.346 4.5-4.5s-1.346-4.5-4.5-4.5-4.5 1.346-4.5 4.5 1.346 4.5 4.5 4.5zm0-8c2.584 0 3.5.916 3.5 3.5s-.916 3.5-3.5 3.5-3.5-.916-3.5-3.5.916-3.5 3.5-3.5zm8.066 17.537c-.009-.001-.218-.028-.565-.068v-1.116c-.04-5.154-2.283-7.353-7.5-7.353s-7.46 2.199-7.5 7.356v1.113c-.348.04-.557.067-.565.068-.273.036-.467.287-.431.561s.291.466.562.43c.015-.002.562-.073 1.435-.162v2.133c0 .276.224.5.5.5s.5-.224.5-.5v-2.229c1.506-.134 3.521-.271 5.5-.271s3.994.137 5.5.271v2.229c0 .276.224.5.5.5s.5-.224.5-.5v-2.133c.872.089 1.42.16 1.435.162.268.037.527-.155.562-.43.036-.274-.157-.525-.431-.561zm-1.566-1.18v1.004c-1.182-.119-2.909-.265-4.743-.329-.319-1.773-.679-3.782-1.17-5.184.522-.454.941-1 1.313-1.725 3.281.459 4.57 2.29 4.6 6.234zm-5.679-6.337c-.244.413-.507.742-.82 1.026-.314-.284-.576-.613-.82-1.026.263-.013.536-.02.82-.02s.557.007.82.02zm-7.321 6.34c.031-3.947 1.319-5.778 4.6-6.237.372.725.791 1.271 1.313 1.725-.491 1.403-.851 3.412-1.17 5.184-1.834.064-3.561.21-4.743.329zm5.764.646c.209-1.16.45-2.487.736-3.62.286 1.132.527 2.459.736 3.62-.245-.004-.491-.006-.736-.006s-.491.002-.736.006z"/></svg>