<svg id="Layer_1" viewBox="0 0 24 24" xmlns="http://www.w3.org/2000/svg" data-name="Layer 1"><path d="m21.494 13.323c.857-.121 1.504-.869 1.506-1.739v-.002c0-.522-.221-1.013-.608-1.345-2.392-2.057-5.338-3.752-9.185-5.297 1.686-.262 2.539-1.34 2.64-1.477.206-.276.207-.647.003-.922-.046-.063-1.153-1.541-3.391-1.541-.363 0-.668.18-.816.48-.051.102-.166.345-.144 3.181-4.197 1.62-7.352 3.395-9.89 5.577-.385.333-.607.821-.607 1.34-.001.873.646 1.623 1.506 1.746.405.057.916.124 1.495.192v8.274c-1.566.11-2.533.21-2.555.212-.274.028-.474.274-.445.549.028.275.28.475.549.445.047-.005 4.8-.497 10.45-.497s10.397.492 10.445.497c.27.03.522-.169.549-.444.029-.275-.17-.521-.445-.55-.021-.002-.986-.102-2.55-.212v-8.275c.578-.068 1.088-.135 1.493-.192zm-8.962-11.321c1.337.023 2.12.703 2.398.998-.281.299-1.076.988-2.433 1.001 0-.895.015-1.725.035-1.999zm-5.03 19.594c-.911.037-1.751.082-2.5.128v-8.098c.751.078 1.589.152 2.5.214v7.755zm4-.094c-1.044.005-2.05.026-3 .057v-7.659c.949.051 1.954.085 3 .094zm3.999.057c-.95-.031-1.956-.052-3-.057v-7.508c1.046-.009 2.051-.043 3-.094v7.66zm3.5.165c-.748-.046-1.589-.091-2.5-.128v-7.756c.911-.062 1.749-.137 2.5-.215zm-6.999-8.724c-4.05 0-7.599-.417-9.353-.666-.376-.054-.648-.371-.647-.754 0-.229.095-.441.26-.584 2.478-2.13 5.577-3.868 9.74-5.461 4.164 1.593 7.261 3.331 9.739 5.46.166.143.26.356.26.587 0 .382-.272.698-.646.751-1.755.249-5.303.667-9.352.667z"/></svg>