<?xml version="1.0" encoding="UTF-8"?>
<svg xmlns="http://www.w3.org/2000/svg" id="Layer_1" data-name="Layer 1" viewBox="0 0 24 24">
  <path d="M22.8,10.346c-.073-.703-.225-1.723-.439-2.951-.001-.008-.005-.196-.205-.323-.09-.057-2.173-1.514-5.646-2.93-2.382-.971-4.641-1.389-4.735-1.406-.06-.011-.12-.011-.18,0-.095,.017-2.354,.435-4.736,1.406C3.385,5.557,1.299,7.011,1.212,7.072c-.133,.094-.212,.246-.212,.409s.079,.315,.212,.409c.06,.042,1.062,.74,2.808,1.632-.069,1.045-.108,2.02-.108,2.7,0,4.26,.727,6.916,.758,7.027,.024,.087,.071,.166,.136,.228,.077,.073,1.939,1.796,6.883,1.796,5.032,0,6.818-1.731,6.892-1.804,.061-.061,.104-.137,.128-.22,.03-.109,.746-2.732,.746-7.026,0-.682-.038-1.657-.107-2.701,.948-.484,1.676-.911,2.154-1.207,.144,.872,.247,1.601,.303,2.134,.447,4.315-.022,7.089-.027,7.117-.047,.272,.13,.548,.447,.584,.259,.029,.496-.169,.539-.411,.021-.117,.499-2.926,.036-7.392Zm-4.345,1.876c0,3.592-.528,6.015-.673,6.614-.403,.31-2.14,1.436-6.093,1.436-3.89,0-5.676-1.13-6.094-1.441-.149-.609-.683-3.042-.683-6.609,0-.56,.029-1.362,.081-2.222,.566,.268,1.189,.545,1.865,.82,2.382,.971,4.641,1.389,4.736,1.406,.03,.005,.06,.008,.09,.008s.06-.003,.09-.008c.095-.017,2.354-.435,4.736-1.406,.676-.276,1.3-.553,1.867-.821,.05,.859,.079,1.661,.079,2.223Zm-2.324-2.328c-2.023,.825-4.008,1.244-4.448,1.331-.439-.087-2.421-.504-4.448-1.331-2.275-.927-3.958-1.886-4.813-2.413,.856-.527,2.539-1.486,4.813-2.413,2.024-.825,4.009-1.244,4.448-1.331,.439,.087,2.421,.504,4.448,1.331,2.275,.927,3.958,1.886,4.813,2.413-.856,.527-2.539,1.486-4.814,2.413Z"/>
</svg>
