<?xml version="1.0" encoding="UTF-8"?>
<svg xmlns="http://www.w3.org/2000/svg" id="Layer_1" data-name="Layer 1" viewBox="0 0 24 24">
  <path d="M21.052,8.952c0-3.003-1.912-3.351-3.351-3.351-.983,0-2.187,.163-2.851,1.223-.555-.886-1.486-1.145-2.351-1.207v-1.981c0-.902,.739-1.637,1.647-1.637,.497,0,.962,.22,1.276,.603,.176,.213,.49,.244,.704,.069,.213-.176,.244-.49,.069-.704-.505-.615-1.252-.968-2.049-.968-1.345,0-2.459,1.005-2.625,2.301-.631-.712-1.513-1.155-2.489-1.155-.276,0-.5,.224-.5,.5s.224,.5,.5,.5c1.265,0,2.311,1.084,2.45,2.473-.86,.063-1.783,.325-2.334,1.205-.664-1.061-1.868-1.223-2.851-1.223-1.438,0-3.351,.348-3.351,3.351,0,2.229,1.073,3.324,3.276,3.348-.264,.481-.426,1.128-.426,2,0,2.23,1.073,3.325,3.276,3.349-.264,.481-.425,1.128-.425,2,0,2.254,1.096,3.35,3.351,3.35,1.438,0,3.351-.348,3.351-3.35,0-.871-.161-1.519-.425-1.999,1.429-.013,3.276-.399,3.276-3.35,0-.871-.161-1.519-.425-1.999,1.429-.012,3.276-.399,3.276-3.349Zm-9.052-2.351c1.489,0,2.351,.385,2.351,2.351s-.899,2.35-2.351,2.35c-1.691,0-2.351-.659-2.351-2.35,0-1.966,.862-2.351,2.351-2.351ZM3.948,8.952c0-1.966,.862-2.351,2.351-2.351s2.351,.385,2.351,2.351-.899,2.35-2.351,2.35c-1.691,0-2.351-.659-2.351-2.35Zm2.851,5.349c0-1.965,.862-2.35,2.351-2.35s2.351,.385,2.351,2.35-.899,2.351-2.351,2.351c-1.692,0-2.351-.659-2.351-2.351Zm5.202,7.699c-1.691,0-2.351-.659-2.351-2.35,0-1.966,.862-2.351,2.351-2.351s2.351,.385,2.351,2.351-.899,2.35-2.351,2.35Zm2.851-5.349c-1.691,0-2.351-.659-2.351-2.351,0-1.965,.862-2.35,2.351-2.35s2.351,.385,2.351,2.35-.899,2.351-2.351,2.351Zm2.851-5.35c-1.692,0-2.351-.659-2.351-2.35,0-1.966,.862-2.351,2.351-2.351s2.351,.385,2.351,2.351-.899,2.35-2.351,2.35Z"/>
</svg>
