<svg id="Layer_1" viewBox="0 0 24 24" xmlns="http://www.w3.org/2000/svg" data-name="Layer 1"><path d="m20.984 22.624c-.067.27-.347.43-.608.361-1.44-.368-4.444-.984-8.376-.984s-6.936.617-8.376.984c-.271.068-.54-.093-.608-.361s.093-.54.36-.608c1.486-.379 4.583-1.016 8.624-1.016s7.138.636 8.624 1.016c.268.068.429.34.36.608zm-17.982-5.083c.022.277.268.481.539.458 9.845-.806 17.012-7.845 17.312-8.145.095-.094.147-.221.147-.354s-.053-.26-.147-.354c-.3-.299-7.467-7.339-17.312-8.145-.271-.014-.517.183-.539.458s.182.516.457.539c8.232.673 14.708 6.058 16.308 7.501-1.6 1.443-8.075 6.828-16.308 7.501-.275.023-.479.264-.457.539z"/></svg>