<?xml version="1.0" encoding="UTF-8"?>
<svg xmlns="http://www.w3.org/2000/svg" id="Layer_1" data-name="Layer 1" viewBox="0 0 24 24">
  <path d="M16.309,14.358c-.062-.057-.137-.097-.219-.117-.044-.011-1.12-.266-4.09-.266s-4.045,.255-4.089,.266c-.083,.02-.159,.061-.222,.119-.036,.033-.871,.82-.871,1.899,0,1.088,.837,1.868,.873,1.901,.063,.058,.14,.098,.223,.118,.044,.011,1.119,.257,4.086,.257s4.041-.246,4.085-.256c.084-.02,.162-.062,.226-.12,.036-.033,.871-.82,.871-1.899,0-1.088-.837-1.869-.873-1.901Zm-8.491,1.901c0-.478,.308-.894,.463-1.072,.205-.035,.65-.098,1.405-.146v2.431c-.757-.047-1.202-.108-1.407-.142-.155-.177-.461-.588-.461-1.07Zm2.868,1.257v-2.522c.387-.012,.823-.019,1.314-.019s.928,.007,1.314,.019v2.522c-.387,.011-.823,.018-1.314,.018s-.927-.007-1.314-.018Zm5.034-.187c-.206,.034-.652,.095-1.406,.142v-2.431c.758,.049,1.203,.112,1.405,.147,.156,.178,.463,.59,.463,1.072,0,.477-.307,.891-.462,1.07Z"/>
  <path d="M8.437,11.368h.014c1.299-.009,2.059-.771,2.083-2.107-.023-1.295-.804-2.073-2.095-2.082-1.283,.008-2.062,.789-2.085,2.107,.024,1.313,.783,2.072,2.083,2.082Zm.002-3.188c.734,.005,1.083,.354,1.096,1.081-.014,.771-.34,1.102-1.09,1.107h-.001c-.749-.006-1.075-.335-1.089-1.082,.013-.761,.35-1.102,1.085-1.106Z"/>
  <path d="M15.551,7.179c-1.283,.008-2.063,.789-2.086,2.108,.025,1.312,.785,2.071,2.083,2.08h.014c1.301-.009,2.06-.771,2.083-2.106-.022-1.295-.803-2.073-2.095-2.082Zm.004,3.188h0c-.749-.006-1.075-.334-1.089-1.081,.014-.761,.351-1.103,1.086-1.107,.734,.005,1.083,.354,1.095,1.082-.014,.77-.34,1.101-1.091,1.106Z"/>
  <path d="M11.997,1C4.894,1,1,5.16,1,12.009c0,6.996,3.771,10.991,11.003,10.991,7.164,0,10.864-3.74,10.997-11.009-.122-7.042-4.027-10.991-11.003-10.991Zm.006,21c-6.605-.039-9.877-3.31-10.003-10,.121-6.594,3.486-9.958,9.997-10,4.485,.029,9.861,1.79,10.003,9.991-.123,6.696-3.395,9.97-9.997,10.009Z"/>
</svg>
