<?xml version="1.0" encoding="UTF-8"?>
<svg xmlns="http://www.w3.org/2000/svg" id="Layer_1" data-name="Layer 1" viewBox="0 0 24 24">
  <path d="M22.185,10.031c-.274,.031-.473,.279-.441,.553,.058,.507,.092,1.042,.101,1.571-.121,6.585-3.342,9.806-9.841,9.844-6.506-.038-9.727-3.258-9.847-9.826,.115-6.492,3.429-9.804,9.841-9.844,.673,.004,1.327,.048,1.945,.129,.266,.035,.525-.156,.562-.43,.036-.273-.157-.525-.431-.561-.659-.087-1.355-.134-2.076-.138C5.03,1.373,1.282,5.117,1.156,12.174c.131,7.142,3.778,10.784,10.847,10.826,7.062-.042,10.71-3.685,10.841-10.843-.01-.579-.046-1.146-.106-1.685-.032-.275-.297-.471-.553-.441Z"/>
  <path d="M19.97,7.344c1.46-.021,2.874-1.437,2.874-2.859,0-1.953-2.533-3.365-2.64-3.423-.153-.084-.34-.082-.493,.006-.266,.155-2.599,1.568-2.629,3.417,.044,1.476,1.414,2.838,2.888,2.859Zm0-5.257c.678,.435,1.848,1.39,1.875,2.381-.035,.919-.984,1.864-1.874,1.876-.907-.013-1.86-.965-1.888-1.865,.016-.946,1.203-1.935,1.887-2.392Z"/>
  <path d="M7.747,11.415c0-1.067,.521-1.812,.987-1.812s.987,.744,.987,1.812c0,.276,.224,.5,.5,.5s.5-.224,.5-.5c0-1.577-.873-2.812-1.987-2.812s-1.987,1.235-1.987,2.812c0,.276,.224,.5,.5,.5s.5-.224,.5-.5Z"/>
  <path d="M13.278,11.415c0,.276,.224,.5,.5,.5s.5-.224,.5-.5c0-1.067,.521-1.812,.987-1.812s.987,.744,.987,1.812c0,.276,.224,.5,.5,.5s.5-.224,.5-.5c0-1.577-.873-2.812-1.987-2.812s-1.987,1.235-1.987,2.812Z"/>
  <path d="M8.015,17.078c1.239,1.025,2.617,1.572,3.99,1.581,1.365-.009,2.741-.556,3.98-1.581,.261-.216,.69-.708,.633-1.582-.033-.545-.321-1.033-.791-1.338-.228-.148-.767-.493-1.638-.176-.965,.354-1.562,.5-2.145,.543-.637-.04-1.346-.212-2.231-.542-.556-.207-1.153-.141-1.642,.176-.469,.305-.757,.792-.79,1.335-.058,.876,.371,1.368,.633,1.584Zm.365-1.521c.014-.226,.137-.429,.337-.56,.135-.088,.289-.132,.446-.132,.101,0,.203,.018,.302,.055,.98,.364,1.78,.556,2.582,.603,.74-.049,1.438-.218,2.486-.602,.406-.148,.581-.035,.75,.075,.2,.131,.323,.335,.337,.563,.027,.411-.133,.633-.271,.748-1.061,.876-2.219,1.344-3.344,1.352-1.134-.007-2.293-.475-3.354-1.352h0c-.139-.115-.299-.337-.271-.75Z"/>
</svg>
