<?xml version="1.0" encoding="UTF-8"?>
<svg xmlns="http://www.w3.org/2000/svg" id="Layer_1" data-name="Layer 1" viewBox="0 0 24 24">
  <path d="M15.923,13.749c-.019,.004-1.941,.392-3.923,.392-1.957,0-3.905-.388-3.924-.392-.276-.057-.535,.121-.589,.391-.055,.271,.121,.535,.391,.589,.042,.008,.57,.114,1.348,.216-.073,.297-.113,.628-.119,.992,.034,1.941,1.034,2.974,2.896,2.985,1.857-.011,2.856-1.044,2.891-3.003-.006-.352-.047-.677-.122-.973,.782-.103,1.31-.209,1.352-.218,.271-.055,.445-.319,.39-.59s-.32-.446-.59-.39Zm-2.03,2.17c-.024,1.396-.592,1.995-1.891,2.003-1.305-.008-1.872-.607-1.896-1.985,.006-.336,.048-.63,.125-.88,.551,.05,1.156,.085,1.769,.085s1.217-.034,1.765-.083c.08,.25,.123,.54,.129,.862Z"/>
  <path d="M17.101,8.554c.26-.094,.394-.381,.299-.641-.094-.259-.382-.392-.641-.299-1.364,.497-2.058,1.599-2.087,1.645-.1,.161-.1,.365,0,.526,.029,.047,.723,1.149,2.087,1.646,.056,.021,.114,.03,.171,.03,.204,0,.396-.126,.47-.329,.095-.259-.039-.546-.299-.641-.667-.243-1.13-.686-1.375-.969,.245-.284,.709-.726,1.375-.969Z"/>
  <path d="M9.328,9.786c.1-.161,.1-.365,0-.526-.029-.047-.723-1.149-2.087-1.646-.257-.093-.546,.04-.641,.299s.039,.546,.299,.641c.667,.243,1.13,.686,1.375,.969-.245,.284-.709,.726-1.375,.969-.26,.094-.394,.381-.299,.641,.074,.203,.266,.329,.47,.329,.057,0,.115-.01,.171-.03,1.364-.497,2.058-1.599,2.087-1.645Z"/>
  <path d="M11.997,1C4.894,1,1,5.16,1,12.009c0,6.996,3.771,10.991,11.003,10.991,7.164,0,10.864-3.74,10.997-11.009-.122-7.042-4.027-10.991-11.003-10.991Zm.006,21c-6.605-.039-9.877-3.31-10.003-10,.121-6.594,3.486-9.958,9.997-10,4.485,.029,9.861,1.79,10.003,9.991-.123,6.696-3.395,9.97-9.997,10.009Z"/>
</svg>
