<?xml version="1.0" encoding="UTF-8"?>
<svg xmlns="http://www.w3.org/2000/svg" id="Layer_1" data-name="Layer 1" viewBox="0 0 24 24">
  <path d="M7.747,11.415c0-1.067,.521-1.812,.987-1.812s.987,.744,.987,1.812c0,.276,.224,.5,.5,.5s.5-.224,.5-.5c0-1.577-.873-2.812-1.987-2.812s-1.987,1.235-1.987,2.812c0,.276,.224,.5,.5,.5s.5-.224,.5-.5Z"/>
  <path d="M15.266,8.604c-1.114,0-1.987,1.235-1.987,2.812,0,.276,.224,.5,.5,.5s.5-.224,.5-.5c0-1.067,.521-1.812,.987-1.812s.987,.744,.987,1.812c0,.276,.224,.5,.5,.5s.5-.224,.5-.5c0-1.577-.873-2.812-1.987-2.812Z"/>
  <path d="M15.827,14.158c-.228-.148-.769-.493-1.638-.176-.965,.354-1.562,.5-2.145,.543-.637-.04-1.346-.212-2.231-.542-.555-.207-1.154-.141-1.642,.176-.469,.305-.757,.792-.79,1.335-.058,.876,.371,1.368,.633,1.584,1.239,1.025,2.617,1.572,3.99,1.581,1.365-.009,2.741-.556,3.98-1.581,.261-.216,.69-.708,.633-1.582-.033-.545-.321-1.033-.791-1.338Zm-.479,2.149c-1.061,.876-2.219,1.344-3.344,1.352-1.134-.007-2.293-.475-3.354-1.352h0c-.139-.115-.299-.337-.271-.75,.014-.226,.137-.429,.337-.56,.135-.088,.289-.132,.446-.132,.101,0,.203,.018,.302,.055,.98,.364,1.78,.556,2.582,.603,.74-.049,1.438-.218,2.486-.602,.405-.148,.581-.035,.75,.075,.2,.131,.323,.335,.337,.563,.027,.411-.133,.633-.271,.748Z"/>
  <path d="M11.997,1C4.894,1,1,5.16,1,12.009c0,6.996,3.771,10.991,11.003,10.991,7.164,0,10.864-3.74,10.997-11.009-.122-7.042-4.027-10.991-11.003-10.991Zm.006,21c-6.605-.039-9.877-3.31-10.003-10,.121-6.594,3.486-9.958,9.997-10,4.485,.029,9.861,1.79,10.003,9.991-.123,6.696-3.395,9.97-9.997,10.009Z"/>
</svg>
