<?xml version="1.0" encoding="UTF-8"?>
<svg xmlns="http://www.w3.org/2000/svg" id="Layer_1" data-name="Layer 1" viewBox="0 0 24 24">
  <path d="M17.102,8.43c.259-.094,.393-.381,.298-.641-.094-.259-.38-.393-.641-.298-1.364,.497-2.058,1.599-2.086,1.645-.1,.161-.1,.365,0,.526,.029,.047,.723,1.149,2.086,1.646,.057,.021,.115,.03,.171,.03,.204,0,.396-.126,.47-.329,.095-.26-.039-.547-.298-.641-.667-.243-1.131-.686-1.375-.97,.245-.284,.709-.726,1.375-.969Z"/>
  <path d="M9.328,9.662c.1-.161,.1-.365,0-.526-.029-.046-.723-1.148-2.086-1.646-.26-.094-.546,.04-.641,.298-.095,.26,.039,.547,.298,.641,.667,.243,1.13,.686,1.375,.969-.245,.284-.709,.727-1.375,.969-.259,.094-.393,.381-.298,.641,.074,.203,.266,.329,.47,.329,.057,0,.115-.01,.171-.03,1.364-.497,2.058-1.599,2.086-1.646Z"/>
  <path d="M15.997,14.076c-.236-.153-.791-.513-1.696-.182-1.011,.372-1.64,.526-2.254,.571-.671-.042-1.416-.224-2.345-.571-.574-.214-1.194-.146-1.699,.183-.483,.315-.781,.82-.816,1.383-.059,.907,.384,1.417,.654,1.642h0c1.294,1.073,2.732,1.645,4.165,1.654,1.423-.009,2.86-.581,4.155-1.654,.27-.224,.712-.735,.654-1.641-.035-.564-.333-1.069-.817-1.385Zm-.475,2.256c-1.115,.924-2.333,1.417-3.517,1.424-1.192-.007-2.412-.5-3.526-1.424-.15-.125-.323-.366-.294-.809,.016-.246,.148-.468,.364-.608,.238-.154,.531-.186,.805-.083,1.022,.382,1.858,.583,2.695,.632,.774-.052,1.502-.229,2.598-.631,.436-.159,.624-.037,.806,.082,.216,.141,.349,.363,.364,.61,.029,.441-.145,.683-.294,.808Z"/>
  <path d="M11.997,1C4.894,1,1,5.16,1,12.009c0,6.996,3.771,10.991,11.003,10.991,7.164,0,10.864-3.74,10.997-11.009-.122-7.042-4.027-10.991-11.003-10.991Zm.006,21c-6.605-.039-9.877-3.31-10.003-10,.121-6.594,3.486-9.958,9.997-10,4.485,.029,9.861,1.79,10.003,9.991-.123,6.696-3.395,9.97-9.997,10.009Z"/>
</svg>
