<?xml version="1.0" encoding="UTF-8"?>
<svg xmlns="http://www.w3.org/2000/svg" id="Layer_1" data-name="Layer 1" viewBox="0 0 24 24">
  <path d="M5.289,5.238c3.134-3.104,6.368-3.985,9.61-2.617,.254,.105,.547-.012,.655-.267,.107-.254-.013-.548-.267-.655C11.687,.181,7.985,1.159,4.58,4.533,1.016,8.155,.117,11.896,1.909,15.653c.085,.18,.265,.285,.452,.285,.072,0,.146-.016,.215-.049,.249-.119,.355-.417,.236-.667-1.591-3.337-.756-6.698,2.478-9.984Z"/>
  <path d="M22.98,11.872c-.005-.276-.251-.472-.509-.492-.275,.005-.496,.232-.491,.508,.038,2.262-1.045,4.48-3.309,6.778-2.14,2.124-4.298,3.237-6.416,3.31-.276,.009-.492,.241-.482,.517,.009,.27,.231,.483,.499,.483,.006,0,.012,0,.018,0,2.378-.082,4.763-1.292,7.091-3.603,2.431-2.469,3.643-4.992,3.6-7.501Z"/>
  <path d="M6.597,17.245c-.152-.09-.342-.092-.495-.006-.097,.054-2.394,1.389-2.394,3.133,0,1.357,1.293,2.609,2.643,2.628,1.336-.019,2.589-1.271,2.629-2.651-.028-1.673-2.142-2.962-2.383-3.104Zm-.246,4.755c-.786-.011-1.611-.839-1.643-1.646,.024-.86,1.026-1.694,1.63-2.089,.61,.416,1.629,1.276,1.643,2.078-.024,.81-.854,1.646-1.629,1.657Z"/>
  <path d="M20.119,8.678c1.357,0,2.609-1.293,2.628-2.643-.019-1.336-1.271-2.589-2.651-2.629-1.673,.028-2.962,2.142-3.104,2.383-.09,.152-.092,.342-.006,.495,.054,.097,1.389,2.394,3.133,2.394Zm-.029-4.272c.81,.024,1.646,.854,1.657,1.629-.011,.786-.839,1.611-1.646,1.643-.86-.024-1.694-1.026-2.089-1.63,.416-.61,1.276-1.629,2.078-1.643Z"/>
  <path d="M12.719,5.142c-.25-.116-.548-.008-.664,.242-.614,1.318-.327,2.589-.314,2.643,.043,.185,.188,.33,.372,.373,.026,.006,.343,.078,.813,.078,.492,0,1.152-.079,1.825-.394,.25-.117,.358-.415,.241-.665-.117-.251-.416-.357-.665-.241-.644,.301-1.28,.316-1.655,.29-.026-.375-.011-1.019,.289-1.663,.117-.25,.008-.548-.242-.664Z"/>
  <path d="M7.351,15.08c.068,.032,.14,.047,.21,.047,.188,0,.369-.107,.454-.289,.614-1.318,.327-2.59,.314-2.643-.043-.185-.188-.33-.373-.373-.053-.012-1.323-.3-2.639,.316-.25,.117-.358,.415-.241,.665s.414,.359,.665,.241c.643-.301,1.286-.314,1.656-.29,.027,.375,.011,1.018-.289,1.663-.117,.25-.008,.548,.242,.664Z"/>
  <path d="M12.062,17.963h0c1.673-.159,3.094-.774,4.115-1.783,1.001-1.016,1.613-2.44,1.772-4.118,.032-.349-.016-1.024-.696-1.623-.425-.375-.994-.521-1.557-.4-.276,.059-.923,.197-1.328,1.073-.453,.979-.788,1.535-1.193,2.004-.504,.445-1.159,.846-2.062,1.26-.556,.255-.947,.741-1.073,1.333-.119,.565,.026,1.132,.398,1.556,.517,.589,1.088,.706,1.46,.706,.06,0,.114-.003,.163-.008Zm-.871-1.358c-.163-.185-.225-.437-.171-.69,.059-.279,.246-.509,.512-.631,.994-.456,1.726-.907,2.352-1.465,.512-.586,.902-1.228,1.394-2.288,.195-.422,.415-.469,.629-.515,.059-.013,.117-.019,.176-.019,.189,0,.369,.066,.511,.191,.331,.292,.38,.586,.361,.78-.137,1.445-.651,2.659-1.484,3.504-.85,.841-2.061,1.357-3.501,1.495-.193,.02-.485-.029-.777-.363Z"/>
</svg>
