<?xml version="1.0" encoding="UTF-8"?>
<svg xmlns="http://www.w3.org/2000/svg" id="Layer_1" data-name="Layer 1" viewBox="0 0 24 24">
  <path d="M8.155,10.844c0-.926,.454-1.619,.859-1.619s.859,.692,.859,1.619c0,.276,.224,.5,.5,.5s.5-.224,.5-.5c0-1.468-.816-2.619-1.859-2.619s-1.859,1.15-1.859,2.619c0,.276,.224,.5,.5,.5s.5-.224,.5-.5Z"/>
  <path d="M16.845,10.844c0-1.468-.816-2.619-1.859-2.619s-1.859,1.15-1.859,2.619c0,.276,.224,.5,.5,.5s.5-.224,.5-.5c0-.926,.454-1.619,.859-1.619s.859,.692,.859,1.619c0,.276,.224,.5,.5,.5s.5-.224,.5-.5Z"/>
  <path d="M2.72,8.16c.056,.02,.112,.029,.169,.029,.205,0,.397-.127,.471-.331,1.215-3.379,4.123-5.107,8.638-5.135,4.327,.028,7.188,1.654,8.502,4.832,.105,.255,.399,.378,.653,.271,.255-.105,.376-.397,.271-.653-1.461-3.535-4.718-5.42-9.426-5.45-4.984,.031-8.207,1.981-9.579,5.797-.093,.26,.042,.546,.302,.64Z"/>
  <path d="M19.06,18.838c-1.542,1.623-3.853,2.42-7.057,2.439-2.995-.017-5.288-.76-6.814-2.207-.2-.19-.517-.182-.707,.019-.189,.2-.181,.517,.02,.707,1.717,1.627,4.238,2.462,7.502,2.481,3.448-.02,6.065-.945,7.781-2.75,.19-.2,.183-.517-.018-.707-.199-.19-.516-.183-.707,.018Z"/>
  <path d="M5.37,11.923c-.045-.17-.176-.305-.346-.354-.23-.066-2.337-.614-3.412,.461-.845,.845-.818,2.426,.015,3.277,.421,.408,1.021,.614,1.626,.614s1.222-.208,1.666-.625c1.022-1.053,.513-3.14,.451-3.374Zm-1.151,2.661c-.48,.449-1.438,.451-1.887,.016-.443-.454-.443-1.395,0-1.873,.498-.468,1.537-.382,2.134-.263,.108,.601,.19,1.669-.246,2.12Z"/>
  <path d="M22.385,12.031c-1.075-1.075-3.182-.527-3.412-.461-.17,.048-.301,.183-.346,.354-.062,.234-.571,2.321,.451,3.374,.444,.417,1.058,.625,1.666,.625s1.205-.206,1.626-.614c.833-.852,.86-2.432,.015-3.277Zm-.72,2.569c-.449,.436-1.406,.434-1.887-.016-.437-.451-.354-1.52-.246-2.12,.597-.119,1.636-.205,2.134,.263,.442,.478,.442,1.419,0,1.873Z"/>
  <path d="M7.938,16.515h0c1.239,1.025,2.616,1.571,3.99,1.581,1.365-.009,2.741-.556,3.981-1.581,.26-.216,.688-.708,.633-1.583-.034-.544-.322-1.032-.792-1.336-.228-.148-.768-.495-1.638-.176-.963,.353-1.562,.5-2.144,.543-.639-.041-1.348-.213-2.232-.542-.553-.206-1.152-.142-1.642,.176-.469,.305-.757,.792-.79,1.334-.058,.875,.371,1.368,.632,1.584Zm.366-1.521c.014-.225,.137-.429,.337-.56,.22-.144,.493-.173,.748-.077,.979,.364,1.778,.555,2.582,.603,.742-.049,1.439-.218,2.486-.602,.405-.148,.581-.034,.75,.075,.2,.131,.323,.335,.338,.562,.026,.411-.134,.634-.272,.749-1.06,.876-2.218,1.344-3.344,1.351-1.134-.007-2.294-.475-3.354-1.351-.139-.115-.299-.338-.271-.751Z"/>
</svg>
