<svg id="Layer_1" viewBox="0 0 24 24" xmlns="http://www.w3.org/2000/svg" data-name="Layer 1"><path d="m1.015 9.671c-.066-.268.097-.539.364-.606.174-.043 4.332-1.064 10.621-1.064s10.447 1.021 10.621 1.064c.268.067.431.339.364.606-.066.27-.345.43-.606.364-.042-.011-4.223-1.035-10.379-1.035s-10.337 1.024-10.379 1.035c-.272.063-.54-.097-.606-.364zm21.606 5.394c-.174-.043-4.332-1.064-10.621-1.064s-10.447 1.02-10.621 1.063c-.268.067-.431.339-.364.606s.334.428.606.364c.042-.011 4.223-1.035 10.379-1.035s10.337 1.024 10.379 1.035c.261.066.541-.094.606-.364.066-.268-.097-.539-.364-.606z"/></svg>