<svg id="Layer_1" viewBox="0 0 24 24" xmlns="http://www.w3.org/2000/svg" data-name="Layer 1"><path d="m22.947 11.275c-.017-.032-.302-.569-1.002-1.227.034-.325.055-.672.055-1.048 0-1.984-.5-3.305-1.552-4.094 1.233-.26 2.076-1.07 2.5-2.429.109-.35.044-.719-.179-1.014-.229-.302-.611-.47-.979-.464-1.148.036-2.19.353-2.79.846-.846.659-1.086 1.514-1.151 1.85-.289-.819-.906-1.46-.996-1.549-.194-.194-.51-.195-.706 0-.195.194-.196.511-.001.706.178.18.57.655.754 1.153-3.429.03-4.9 1.525-4.9 4.994-.015 0-.028.011-.042.012-.011-.205-.024-.397-.043-.56-.109-1.129-.467-1.932-.814-2.708-.425-.952-.824-1.858-.846-3.42.376.082.582.149.588.15.254.087.545-.053.631-.317.087-.262-.054-.544-.316-.632-.064-.021-1.606-.525-4.158-.525s-4.094.505-4.158.526c-.262.088-.403.37-.316.632.086.263.373.405.631.317.005-.002.202-.064.551-.142-.024 1.557-.421 2.461-.846 3.411-.346.776-.705 1.579-.812 2.699-.036.31-.06 1.086-.062 1.667-.652.63-.919 1.134-.935 1.166-.035.069-.053.146-.053.225 0 4.439 1.048 10.037 1.059 10.093.038.199.191.355.389.396.048.011 4.889 1.011 9.553 1.011s9.504-1 9.553-1.011c.198-.041.351-.197.389-.396.011-.056 1.059-5.653 1.059-10.093 0-.078-.018-.155-.053-.225zm-3.328-8.644.013-.011c.42-.349 1.279-.593 2.188-.621.121-.007.196.084.173.179-.379 1.213-1.09 1.774-2.285 1.821-.436 0-.743-.09-.876-.138.044-.214.21-.784.786-1.23zm-2.619 2.368c2.953 0 4 1.047 4 4 0 .102-.005.196-.008.294-.109-.074-.212-.148-.332-.221-.16-.096-.359-.096-.52 0-.901.548-1.487 1.129-1.84 1.557-.353-.428-.938-1.009-1.84-1.557-.16-.096-.359-.096-.52 0-.901.548-1.487 1.129-1.84 1.557-.24-.291-.598-.654-1.079-1.027-.012-.193-.021-.391-.021-.602 0-2.953 1.047-4 4-4zm-13.956 3.549c.093-.966.403-1.661.732-2.396.439-.983.937-2.099.937-3.959 0-.013-.007-.024-.008-.037.611-.086 1.383-.155 2.295-.155.893 0 1.655.066 2.26.149-.001.015-.009.028-.009.043 0 1.86.498 2.976.937 3.96.328.735.638 1.43.733 2.404.045.281.026.67.073 1.033-.489.378-.852.745-1.094 1.039-.353-.428-.939-1.009-1.84-1.557-.16-.096-.359-.096-.52 0-.901.548-1.487 1.129-1.84 1.557-.353-.428-.939-1.009-1.84-1.557-.16-.096-.359-.096-.52 0-.122.074-.226.149-.337.224.011-.325.025-.609.041-.749zm-.063 12.527c-.219-1.242-.963-5.734-.981-9.44.15-.236.623-.892 1.6-1.542 1.215.809 1.65 1.626 1.653 1.632.085.169.298.271.447.274.187 0 .358-.105.445-.271.004-.009.439-.826 1.654-1.635 1.216.809 1.65 1.626 1.653 1.632.085.169.245.263.447.273.187 0 .358-.104.445-.271.004-.009.439-.826 1.655-1.635.828.551 1.287 1.099 1.502 1.4-.006 4.031.757 8.902 1.009 10.418-.823.055-1.669.089-2.511.089-3.866 0-7.865-.705-9.019-.925zm18.037 0c-.799.152-2.966.537-5.507.76-.227-1.344-.975-6.069-1.008-10.063.078-.063.422-.827 1.697-1.679 1.215.809 1.65 1.626 1.653 1.632.084.168.256.272.444.273h.003c.187 0 .358-.105.445-.271.004-.009.439-.826 1.655-1.635.979.651 1.451 1.308 1.6 1.542-.018 3.705-.762 8.198-.981 9.44z"/></svg>