<svg id="Layer_1" viewBox="0 0 24 24" xmlns="http://www.w3.org/2000/svg" data-name="Layer 1"><path d="m10.5 13.5v5c0 .276-.224.5-.5.5s-.5-.224-.5-.5v-5c0-.276.224-.5.5-.5s.5.224.5.5zm3.5 5.5c.276 0 .5-.224.5-.5v-5c0-.276-.224-.5-.5-.5s-.5.224-.5.5v5c0 .276.224.5.5.5zm4-1c.276 0 .5-.224.5-.5v-4c0-.276-.224-.5-.5-.5s-.5.224-.5.5v4c0 .276.224.5.5.5zm-12-5c-.276 0-.5.224-.5.5v4c0 .276.224.5.5.5s.5-.224.5-.5v-4c0-.276-.224-.5-.5-.5zm17-2.5v2.23c0 10.27-4.614 10.27-11 10.27s-11 0-11-10.27v-2.23c0-.239.169-.445.404-.49.01-.002.218-.042.579-.104.003-.599.024-1.095.067-1.463.108-1.119.466-1.922.812-2.698.424-.95.822-1.855.846-3.411-.35.078-.546.14-.551.142-.259.088-.545-.055-.631-.317-.087-.262.054-.544.316-.632.064-.021 1.606-.525 4.158-.525s4.094.504 4.158.525c.262.088.403.37.316.632-.086.264-.377.404-.631.317-.005-.002-.211-.068-.588-.15.022 1.562.421 2.468.846 3.42.351.782.723 1.629.818 2.762 1.71-2.254 5.7-6.048 7.138-7.018.839-.591 1.934-.619 2.791-.07.948.606 1.375 1.773 1.037 2.837-.402 1.269-1.163 3.207-2.498 5.395 1.342.193 2.189.356 2.209.36.235.045.404.251.404.49zm-7.719-4.285c.547.523 1.368.808 1.378.812.262.088.403.371.315.632-.087.265-.377.402-.632.316-.049-.017-1.025-.355-1.745-1.037-.624.668-1.23 1.363-1.799 2.072 2.41.043 4.73.267 6.507.494 1.431-2.257 2.218-4.263 2.627-5.55.201-.633-.055-1.329-.622-1.692-.515-.329-1.172-.311-1.675.045-.499.354-1.34 1.047-2.322 1.943.548.504 1.337.775 1.346.778.262.088.403.371.315.632-.087.265-.377.402-.632.316-.047-.016-1.038-.355-1.759-1.044-.424.404-.859.83-1.302 1.284zm-12.293 3.528c1.756-.27 4.765-.657 7.969-.73-.009-.165-.021-.318-.037-.456-.095-.975-.405-1.669-.733-2.404-.439-.984-.937-2.1-.937-3.96 0-.015.007-.028.009-.043-.605-.083-1.367-.149-2.26-.149-.912 0-1.684.069-2.295.155.001.013.008.024.008.037 0 1.86-.498 2.976-.937 3.959-.329.735-.639 1.431-.732 2.396-.035.303-.05.719-.056 1.195zm19.012 1.174c-1.307-.229-5.587-.917-10-.917s-8.694.688-10 .917v1.813c0 9.27 3.552 9.27 10 9.27s10 0 10-9.27z"/></svg>