<svg id="Layer_1" viewBox="0 0 24 24" xmlns="http://www.w3.org/2000/svg" data-name="Layer 1"><path d="m4.51 5.002c1.264-.007 1.973-.714 1.997-2.008-.022-1.239-.769-1.983-2.003-1.991-1.247.008-1.974.733-1.997 1.99v.019c.024 1.276.734 1.983 2.003 1.99zm-.006-2.999c.691.004.991.306 1.004.99-.014.731-.286 1.005-.998 1.009-.706-.004-.988-.285-1.004-1 .016-.715.298-.995.998-1zm12.422 8.795c-.002-.203-.126-.384-.314-.459-.908-.344-3.221-.335-3.581-.338.148-.405.212-.679.217-.702.127-.607-.126-1.219-.641-1.559-.528-.348-1.234-.308-1.748.124-.049.048-1.127 1.123-1.739 2.875-.441.039-1.1.101-1.699.197-.243.039-.421.248-.421.493v4.413c0 .233.161.435.389.487.837.191 1.582.249 1.873.266 1.562.881 3.768 1.404 5.934 1.404.179 0 .344-.096.433-.251.819-1.424 1.261-3.008 1.351-4.832.037-.535-.053-1.906-.055-2.118zm-8.926 1.063c.358-.047.71-.082 1.006-.109v3.82c-.256-.023-.611-.065-1.006-.138zm7.983.996c-.077 1.563-.431 2.92-1.08 4.139-1.798-.041-3.569-.474-4.898-1.16v-4.58c.515-1.617 1.528-2.652 1.525-2.652.147-.123.364-.137.525-.029.175.115.257.314.216.511 0 .005-.134.568-.471 1.257-.08.164-.064.357.039.506.104.149.281.228.462.21.299-.03.463-.059.83-.059.8 0 2.125.052 2.809.186.006.111.013.224.021.339.027.419.056.853.022 1.332zm-14.96-4.507c.561-1.778 1.408-2.348 3.482-2.348 2.29 0 2.967.789 3.475 2.344.085.263-.058.545-.32.63-.256.086-.545-.055-.631-.32-.392-1.201-.712-1.655-2.525-1.655-1.834 0-2.151.452-2.529 1.65-.083.263-.363.412-.627.326-.264-.083-.409-.364-.326-.627zm18.481-3.348c1.265-.007 1.974-.714 1.997-2.008-.021-1.239-.767-1.983-2.003-1.991-1.247.008-1.974.734-1.996 1.991v.018c.023 1.276.732 1.983 2.002 1.99zm-.006-2.999c.691.004.992.306 1.004.99-.013.731-.285 1.005-.998 1.009-.706-.004-.987-.285-1.003-1 .015-.715.297-.995.997-1zm-3.48 6.347c.562-1.778 1.409-2.348 3.483-2.348 2.291 0 2.968.789 3.475 2.344.085.262-.058.544-.32.63-.256.084-.545-.055-.631-.321-.391-1.2-.711-1.654-2.524-1.654-1.834 0-2.151.452-2.53 1.65-.083.263-.361.411-.628.326-.263-.083-.408-.364-.325-.627zm-13.512 8.64v.019c.024 1.276.733 1.982 2.003 1.99 1.264-.007 1.973-.714 1.997-2.008-.022-1.238-.768-1.982-2.004-1.991-1.246.009-1.973.734-1.996 1.991zm3.001-.001c-.014.732-.286 1.006-.998 1.009-.706-.004-.988-.285-1.004-1 .016-.715.298-.995.997-1 .692.005.992.307 1.005.99zm2.474 5.352c.085.263-.058.545-.32.631-.256.085-.545-.055-.631-.32-.392-1.201-.712-1.655-2.525-1.655-1.834 0-2.151.453-2.529 1.65-.083.264-.363.41-.627.326-.264-.083-.409-.364-.326-.627.561-1.778 1.408-2.349 3.482-2.349 2.29 0 2.967.79 3.475 2.344zm9.521-5.351v.018c.023 1.276.732 1.983 2.002 1.991 1.265-.007 1.974-.715 1.997-2.008-.021-1.238-.767-1.982-2.004-1.991-1.246.009-1.973.734-1.995 1.991zm3 0c-.013.731-.285 1.005-.998 1.008-.706-.004-.987-.284-1.003-1 .015-.715.297-.995.996-1 .692.005.993.307 1.005.991zm2.473 5.351c.085.263-.058.545-.32.631-.256.084-.545-.055-.631-.32-.391-1.201-.711-1.655-2.524-1.655-1.834 0-2.151.453-2.53 1.651-.083.264-.361.407-.628.325-.263-.083-.408-.364-.325-.628.563-1.778 1.41-2.348 3.483-2.348 2.291 0 2.968.79 3.475 2.344z"/></svg>