<svg id="Layer_1" viewBox="0 0 24 24" xmlns="http://www.w3.org/2000/svg" data-name="Layer 1"><path d="m2.904 22.379c.082.31-.166.625-.485.621-.225 0-.429-.151-.485-.379-.023-.094-.577-2.338-.932-6.074-.025-.275.176-.519.451-.545.259-.03.519.175.545.45.346 3.654.9 5.904.906 5.926zm4.096-9.898c-.011-.275-.248-.499-.519-.481-.276.01-.491.242-.481.518.226 6.065 1.086 10.049 1.095 10.088.051.234.258.393.487.393.315.003.561-.3.489-.607-.009-.039-.85-3.943-1.071-9.912zm5-.981c0-.276-.224-.5-.5-.5s-.5.224-.5.5c0 6.586 1.069 10.939 1.114 11.121.057.228.261.379.485.379.319.004.567-.312.485-.621-.011-.043-1.085-4.415-1.085-10.879zm11.009 7.836c0-1.469-1.195-2.664-2.664-2.664-.828 0-1.429-.541-1.429-1.285 0-.765.66-1.388 1.473-1.388.626 0 1.185.375 1.392.932.096.259.382.392.643.295.259-.096.391-.383.295-.643-.279-.755-.932-1.306-1.712-1.502l.003-.58c0-.276-.222-.501-.498-.502h-.002c-.275 0-.499.222-.5.498l-.003.54c-1.181.179-2.09 1.16-2.09 2.35 0 1.303 1.045 2.285 2.43 2.285.917 0 1.663.746 1.663 1.664s-.746 1.664-1.663 1.664c-.875 0-1.604-.683-1.66-1.554-.018-.275-.23-.476-.531-.467-.275.018-.484.255-.467.531.082 1.28 1.072 2.295 2.315 2.457l-.002.531c0 .276.222.501.498.502h.002c.275 0 .499-.223.5-.498l.002-.594c1.15-.294 2.006-1.331 2.006-2.572zm-1.075-16.629c.104 1.24.076 2.488-.101 3.722-.039.273.15.526.424.566.267.04.528-.149.566-.424.236-1.649.236-3.321 0-4.97-.031-.22-.204-.393-.425-.424-1.647-.235-3.319-.235-4.969 0-.273.039-.464.292-.425.566.039.273.298.46.565.424 1.19-.17 2.39-.202 3.583-.112-2.346 1.94-4.793 4.388-7.135 7.147-1.319-1.688-2.541-2.871-4.223-4.104-.165-.121-.388-.13-.561-.021-2.415 1.504-6.293 5.139-8.137 7.626-.165.222-.118.535.104.7.22.163.534.119.699-.104 1.714-2.312 5.237-5.644 7.578-7.19 1.612 1.216 2.788 2.416 4.12 4.192.182.258.582.257.784.021 2.472-2.965 5.073-5.584 7.55-7.613z"/></svg>