<svg id="Layer_1" viewBox="0 0 24 24" xmlns="http://www.w3.org/2000/svg" data-name="Layer 1"><path d="m21 14c0-.691-.522-2-2.5-2h-6.5c0-3.373.307-6.147.587-7.978 3.858.11 5.937 1.283 6.85 3.893.092.261.378.4.637.307.261-.091.398-.376.307-.637-1.046-2.992-3.43-4.403-7.631-4.555.158-.89.281-1.395.284-1.409.066-.268-.096-.539-.364-.606-.271-.066-.54.096-.606.364-.016.062-.156.638-.329 1.628-6.114.077-8.736 2.775-8.736 8.993s2.621 8.916 8.736 8.993c.173.99.314 1.567.329 1.628.066.271.345.431.606.364.268-.067.431-.339.364-.606-.004-.014-.125-.515-.282-1.397 5.165-.188 7.723-2.345 8.247-6.982zm-17-2c0-5.684 2.07-7.881 7.574-7.99-.279 1.861-.574 4.614-.574 7.99s.294 6.128.574 7.99c-5.503-.108-7.574-2.305-7.574-7.99zm8.589 7.987c-.252-1.647-.526-4.06-.578-6.987h6.49c1.4 0 1.495.839 1.503.943-.47 4.133-2.637 5.911-7.415 6.044z"/></svg>