<svg id="Layer_1" viewBox="0 0 24 24" xmlns="http://www.w3.org/2000/svg" data-name="Layer 1"><path d="m11 22.482c.006.276-.212.505-.488.512-.171.004-.341.006-.512.006-2.056 0-4.087-.306-5.115-.487-1.816-.321-3.189-1.77-3.416-3.603-.214-1.733-.469-4.34-.469-6.91s.255-5.177.469-6.91c.227-1.833 1.6-3.281 3.416-3.603 1.028-.182 3.06-.487 5.116-.487 3.756 0 7.626 1.023 7.789 1.066.188.051.33.205.364.396.005.033.572 3.291.774 7.01.015.276-.196.512-.472.526-.277.019-.512-.196-.526-.472-.163-2.988-.564-5.673-.709-6.572-.992-.24-4.193-.955-7.22-.955-1.979 0-3.945.296-4.941.472-1.381.245-2.425 1.347-2.598 2.741-.21 1.705-.461 4.268-.461 6.787s.251 5.082.461 6.787c.023.185.063.364.116.537.872-1.798 2.691-2.324 3.673-2.324h3.25c.276 0 .5.224.5.5s-.224.5-.5.5h-3.25c-.1 0-2.45.054-3.036 2.474.465.538 1.103.922 1.845 1.054.996.176 2.961.472 4.941.472.163 0 .325-.002.488-.006.246-.029.505.212.512.488zm12-4.982c0 3.855-1.645 5.5-5.5 5.5s-5.5-1.645-5.5-5.5 1.645-5.5 5.5-5.5 5.5 1.645 5.5 5.5zm-1 0c0-3.28-1.22-4.5-4.5-4.5s-4.5 1.22-4.5 4.5 1.22 4.5 4.5 4.5 4.5-1.22 4.5-4.5zm-4.5 0c-.276 0-.5.224-.5.5v2c0 .276.224.5.5.5s.5-.224.5-.5v-2c0-.276-.224-.5-.5-.5zm0-2.75c-.414 0-.75.336-.75.75s.336.75.75.75.75-.336.75-.75-.336-.75-.75-.75z"/></svg>