<svg id="Layer_1" viewBox="0 0 24 24" xmlns="http://www.w3.org/2000/svg" data-name="Layer 1"><path d="m22.993 18.053c.047.272-.137.531-.408.578-1.438.247-2.973.371-4.525.371s-3.124-.124-4.64-.371c-.197-.032-.356-.178-.405-.372-.048-.193.023-.397.183-.519 3.769-2.87 7.803-7.603 7.803-10.073 0-.844-.219-1.667-2.833-1.667-2.702 0-3.165 1.561-3.184 1.627-.073.264-.344.42-.61.354-.265-.069-.425-.336-.358-.602.024-.098.636-2.379 4.152-2.379 1.646 0 3.833.276 3.833 2.667 0 2.913-3.995 7.405-7.28 10.138 2.591.31 5.283.255 7.695-.16.275-.046.531.136.578.408zm-12.296-13.036c-.267.069-.427.342-.358.609.007.024.604 2.375.656 5.886-.878-.198-2.566-.512-4.495-.512s-3.617.314-4.495.512c.052-3.511.649-5.862.656-5.886.068-.268-.092-.54-.358-.609-.271-.077-.541.092-.609.357-.028.108-.693 2.707-.693 6.626s.665 6.518.693 6.626c.067.268.349.428.609.357.267-.069.427-.342.358-.609-.007-.024-.598-2.352-.655-5.835.737-.175 2.505-.539 4.494-.539s3.758.363 4.494.539c-.057 3.483-.649 5.811-.655 5.835-.068.268.092.54.358.609.26.071.542-.089.609-.357.028-.108.693-2.707.693-6.626s-.665-6.518-.693-6.626c-.068-.266-.339-.435-.609-.357z"/></svg>