<svg id="Layer_1" viewBox="0 0 24 24" xmlns="http://www.w3.org/2000/svg" data-name="Layer 1"><path d="m23 14.5c0 3.112-1.758 4.5-5.7 4.5-1.391 0-2.98-.211-3.953-.524-.263-.084-.407-.366-.323-.629.085-.263.368-.407.629-.322.735.236 2.148.476 3.646.476 3.901 0 4.7-1.399 4.7-3.5 0-2.271-1.215-3-5-3-.276 0-.5-.224-.5-.5s.224-.5.5-.5c3.5 0 3.5-1.882 3.5-2.5 0-1.383-.462-2-3.2-2-2.279 0-2.882.776-2.888.784-.162.215-.469.273-.691.12-.221-.153-.287-.447-.142-.674.081-.126.871-1.23 3.721-1.23 2.521 0 4.2.51 4.2 3 0 .833-.237 2.024-1.421 2.78 1.824.437 2.921 1.475 2.921 3.72zm-12.302-9.483c-.268.069-.428.342-.358.609.006.024.603 2.375.656 5.886-.878-.198-2.565-.512-4.495-.512s-3.617.314-4.495.512c.052-3.511.649-5.862.656-5.886.069-.268-.091-.54-.358-.609-.268-.076-.54.091-.609.357-.028.108-.693 2.707-.693 6.626s.665 6.518.693 6.626c.068.268.35.429.609.357.268-.069.428-.342.358-.609-.006-.024-.597-2.352-.655-5.835.737-.175 2.505-.539 4.494-.539s3.757.363 4.494.539c-.057 3.483-.649 5.811-.655 5.835-.069.268.091.54.358.609.26.071.541-.089.609-.357.028-.108.693-2.707.693-6.626s-.665-6.518-.693-6.626c-.069-.267-.341-.433-.609-.357z"/></svg>