<svg id="Layer_1" viewBox="0 0 24 24" xmlns="http://www.w3.org/2000/svg" data-name="Layer 1"><path d="m23 12c0 3.268-1.28 6.546-1.335 6.684-.101.259-.398.383-.648.281-.257-.102-.383-.392-.281-.648.011-.03 1.086-2.789 1.244-5.639-.712.889-1.867 1.323-3.554 1.323-3.06 0-4.425-1.37-4.425-4.442.039-1.678.444-4.043.461-4.143.047-.272.309-.454.578-.408.272.048.455.306.408.578-.004.023-.41 2.393-.447 3.984 0 2.53.896 3.431 3.425 3.431s3.425-.9 3.425-3.442c-.112-2.028-.583-3.975-.561-3.95-.059-.27.111-.536.381-.596.267-.062.536.11.595.381.03.137.734 3.38.734 6.607zm-12.302-6.983c-.268.069-.428.342-.358.609.006.024.603 2.375.656 5.886-.878-.198-2.565-.512-4.495-.512s-3.617.314-4.495.512c.052-3.511.649-5.862.656-5.886.069-.268-.091-.54-.358-.609-.267-.076-.54.091-.609.357-.028.108-.693 2.707-.693 6.626s.665 6.518.693 6.626c.068.268.35.429.609.357.268-.069.428-.342.358-.609-.006-.024-.597-2.352-.655-5.835.737-.175 2.505-.539 4.494-.539s3.757.363 4.494.539c-.057 3.483-.649 5.811-.655 5.835-.069.268.091.54.358.609.26.071.541-.089.609-.357.028-.108.693-2.707.693-6.626s-.665-6.518-.693-6.626c-.07-.267-.343-.433-.609-.357z"/></svg>