<svg id="Layer_1" viewBox="0 0 24 24" xmlns="http://www.w3.org/2000/svg" data-name="Layer 1"><path d="m15.814 6.832c-3.433-3.219-6.023-4.256-6.132-4.298-.156-.061-.332-.04-.47.056-1.726 1.209-3.531 3.504-3.606 3.602-.144.183-.142.441.004.622.019.023 1.413 1.744 3.132 3.558-.983.785-3.543 2.865-5.212 4.528-1.186 1.181-2.53 2.519-2.53 3.95 0 .655.281 1.268.836 1.82.597.594 1.203.832 1.802.832 1.456 0 2.867-1.406 3.986-2.519 1.739-1.732 3.934-4.426 4.639-5.304 1.563 1.288 2.576 1.896 2.631 1.928.078.046.167.07.255.07.044 0 .088-.006.131-.018.068-.019 1.688-.469 2.81-1.634 1.168-1.213 1.232-2.994 1.234-3.069.002-.096-.022-.191-.073-.274-.038-.062-.959-1.556-3.438-3.849zm-8.896 11.44c-2.098 2.091-3.203 2.802-4.376 1.687-1.518-1.443.698-3.36 1.694-4.352 1.657-1.65 4.298-3.79 5.205-4.514.39.396.79.785 1.187 1.153.302.28.594.541.872.784-.676.841-2.886 3.554-4.582 5.242zm10.452-4.942c-.717.745-1.726 1.151-2.151 1.298-.504-.326-1.988-1.336-3.913-3.117-1.951-1.805-3.962-4.174-4.661-5.015.515-.621 1.737-2.032 2.916-2.924.708.332 2.881 1.467 5.571 3.989 0 0 .001.001.002.002 1.959 1.812 2.908 3.109 3.18 3.508-.041.396-.216 1.502-.944 2.257z"/><path d="m22.5 12.499h-1c-.276 0-.5.224-.5.5s.224.5.5.5h1c.276 0 .5-.224.5-.5s-.224-.5-.5-.5z"/><path d="m20.354 15.646c-.195-.195-.512-.195-.707 0s-.195.512 0 .707l1 1c.098.098.226.146.354.146s.256-.049.354-.146c.195-.195.195-.512 0-.707l-1-1z"/><path d="m17 17.499c-.276 0-.5.224-.5.5v1c0 .276.224.5.5.5s.5-.224.5-.5v-1c0-.276-.224-.5-.5-.5z"/></svg>