<svg id="Layer_1" viewBox="0 0 24 24" xmlns="http://www.w3.org/2000/svg" data-name="Layer 1"><path d="m18.989 1c-1.966 0-2.377 2.277-2.468 5.72-.363-.437-.859-.711-1.539-.72-.559.007-1.624.246-2.259 1.812-.582-1.501-1.562-1.803-2.24-1.812-.671.008-1.163.28-1.524.714-.088-3.438-.498-5.736-2.47-5.714-3.266.037-3.326 8.473-2.807 13.24-1.1.976-2.507 3.066-1.08 5.122 1.748 2.516 4.64 3.638 9.378 3.638 5.847 0 8.886-2.535 9.663-7.964.752-5.254.513-14.036-2.654-14.036zm-4.006 6c.363.004 1.471.019 1.506 4-.037 3.982-1.104 3.995-1.494 4-1.52-.018-1.77-2.521-1.783-4.003.021-2.488.688-3.982 1.771-3.997zm-4.501 0c1.077.014 1.707 1.471 1.729 3.988-.017 1.821-.33 3.996-1.717 4.012-.401-.005-1.469-.018-1.506-4 .036-3.981 1.143-3.996 1.493-4zm-3.993-5c1.482-.105 1.49 3.355 1.496 7.603 0 0 .031 2.537.098 3.116-.761-.387-1.91-.469-3.474.729-.405-4.441-.07-11.31 1.88-11.448zm14.164 12.9c-.708 4.973-3.276 7.1-8.673 7.1-4.376 0-7.016-.99-8.556-3.208-1.366-1.968.871-3.742 1.138-3.987 1.495-1.371 2.661-1.709 3.488-.886.788.822.439 2.222-.933 3.747-.186.205-.151.539.055.722.275.243.588.057.687-.053.827-.918 1.341-1.825 1.53-2.659.3.202.664.319 1.105.325.79-.01 1.682-.383 2.221-1.766.551 1.382 1.464 1.756 2.279 1.766 2.195-.026 2.475-2.863 2.494-4.996l.004-1.358c.008-4.272.014-7.644 1.496-7.646 1.923-.002 2.417 7.606 1.664 12.9z"/></svg>