<svg id="Layer_1" viewBox="0 0 24 24" xmlns="http://www.w3.org/2000/svg" data-name="Layer 1"><path d="m22.007 3.965c-.261-1.316-1.673-2.222-2.978-1.907-1.319.26-2.222 1.67-1.907 2.977.164.715.376 1.461.544 2.267-.35-.186-.743-.302-1.166-.302-.821 0-1.544.403-2 1.015-.456-.613-1.179-1.015-2-1.015-.678 0-1.292.273-1.743.713-.326-2.841-.847-4.875-.854-4.899-.341-1.299-1.803-2.113-3.087-1.717-1.324.376-2.097 1.761-1.728 3.064.008.034.786 3.746.911 7.339v.774c-.744-.602-1.259-.919-1.308-.948-.904-.506-2.008-.413-2.812.242-.812.662-1.1 1.8-.705 2.756.078.204 1.956 5.024 6.024 8.075.06.045.129.076.202.09.104.021 2.594.51 6.598.51s6.023-.433 6.107-.451c.136-.03.254-.115.324-.235 1.627-2.777 2.568-5.273 2.568-9.813 0-4.012-.715-7.269-.993-8.535zm-5.507 4.035c.701 0 1.286.485 1.45 1.135.073.569.046 1.779.05 2.365 0 .827-.673 1.5-1.5 1.5s-1.5-.673-1.5-1.5v-2c0-.827.673-1.5 1.5-1.5zm-5.5 1.5c0-.827.673-1.5 1.5-1.5s1.5.673 1.5 1.5v2c0 .827-.673 1.5-1.5 1.5s-1.5-.673-1.5-1.5zm8.683 12.112c-.606.106-2.514.388-5.683.388-3.437 0-5.772-.378-6.293-.47-3.769-2.88-5.58-7.516-5.603-7.575-.232-.563-.064-1.226.408-1.611.492-.4 1.14-.454 1.678-.153.02.012 1.997 1.219 3.919 3.622.173.216.487.251.703.078s.25-.487.078-.703c-.66-.826-1.318-1.502-1.916-2.06.265-2.933-.891-9.379-.917-9.217-.226-.795.237-1.626 1.033-1.853.769-.237 1.647.25 1.851 1.029-.018-.179 1.085 4.572 1.059 8.413 0 1.378 1.121 2.5 2.5 2.5.821 0 1.544-.403 2-1.015.456.613 1.179 1.015 2 1.015 1.379 0 2.5-1.122 2.5-2.5-.017-.404.049-2.162-.058-2.526-.154-1.613-.535-2.846-.844-4.153-.189-.784.354-1.63 1.146-1.786.806-.184 1.63.352 1.795 1.185.263 1.197.961 4.377.961 8.281 0 4.206-.848 6.56-2.317 9.112z"/></svg>