<svg id="Layer_1" viewBox="0 0 24 24" xmlns="http://www.w3.org/2000/svg" data-name="Layer 1"><path d="m5.018 8.916c.125 1.419.922 2.084 2.482 2.084s2.358-.665 2.482-2.084c1.427-.348 2.018-1.369 2.018-3.416 0-3.154-1.346-4.5-4.5-4.5s-4.5 1.346-4.5 4.5c0 2.047.591 3.068 2.018 3.416zm2.482-6.916c2.584 0 3.5.916 3.5 3.5 0 1.926-.529 2.355-1.571 2.505l-.429.062v.433c0 1.149-.351 1.5-1.5 1.5s-1.5-.351-1.5-1.5v-.433l-.429-.062c-1.042-.15-1.571-.579-1.571-2.505 0-2.584.916-3.5 3.5-3.5zm15.464 10.17c-.115-.685-.49-1.284-1.056-1.687-1.167-.831-2.794-.558-3.626.609-1.367 1.919-2.723 3.54-4.257 4.731.038-1.119-.699-2.142-1.833-2.478-.087-.014-2.158-.346-4.692-.346-3.093 0-5.491.565-5.591.589-.182.043-.324.184-.369.365-.022.088-.54 2.184-.54 4.321 0 2.155.527 3.788.55 3.856.056.171.2.299.377.334.109.022 2.71.535 5.873.535 5.562 0 10.514-2.991 14.718-8.891.403-.565.562-1.254.446-1.939zm-1.261 1.359c-4.005 5.621-8.683 8.471-13.903 8.471-2.458 0-4.614-.329-5.38-.461-.142-.532-.419-1.767-.419-3.264 0-1.556.302-3.134.441-3.778.729-.147 2.705-.497 5.059-.497 2.452 0 4.501.316 4.469.318.623.188 1.058.773 1.058 1.425 0 .565-.385.953-.711 1.181-1.149.594-2.414.966-3.854 1.077-.275.021-.481.261-.46.537.021.275.261.479.537.46 4.714-.296 7.995-3.653 10.559-7.326.512-.718 1.514-.886 2.231-.375.711.485.888 1.541.375 2.231zm-16.953-8.029c0-.414.336-.75.75-.75s.75.336.75.75-.336.75-.75.75-.75-.336-.75-.75zm4 0c0-.414.336-.75.75-.75s.75.336.75.75-.336.75-.75.75-.75-.336-.75-.75z"/></svg>