<?xml version="1.0" encoding="UTF-8"?>
<svg xmlns="http://www.w3.org/2000/svg" id="Layer_1" data-name="Layer 1" viewBox="0 0 24 24">
  <path d="M19.66,14.416l-2.888,.748c-.071-.723-.42-1.392-.962-1.833-.158-.159-3.939-3.909-9.205-4.233-3.09,0-5.604,2.519-5.604,5.614,0,2.417,1.537,4.556,3.832,5.326,2.896,.919,5.533,1.24,7.805,1.24,5.125,0,8.388-1.634,8.534-1.713,1.094-.367,1.788-1.391,1.829-2.546,.037-1.057-1-3.115-3.34-2.602Zm2.34,2.602c-.043,.724-.461,1.368-1.217,1.627-.065,.034-6.61,3.309-15.641,.441-1.88-.63-3.143-2.389-3.143-4.375,0-2.544,2.065-4.614,4.574-4.615,4.847,.299,8.491,3.903,8.564,3.973,.457,.374,.69,.927,.64,1.516-.05,.589-.373,1.093-.885,1.384-.632,.358-1.432,.288-1.992-.178l-2.254-1.878c-1.032-.86-2.272-1.458-3.586-1.73-.271-.055-.536,.118-.591,.388s.118,.535,.388,.591c1.154,.239,2.243,.764,3.149,1.519l2.254,1.878c.876,.73,2.133,.843,3.125,.279,.627-.356,1.083-.938,1.284-1.617l3.237-.838c1.469-.325,2.132,.968,2.092,1.633Z"/>
  <path d="M15.222,9.654c.303,.24,1.448,1.145,2.831,1.145,1.53,0,2.795-1.097,3.18-1.436,1.158-1.022,1.752-2.129,1.767-3.291,.015-1.151-.575-2.112-1.085-2.586-.551-.513-1.275-.778-1.988-.762-.647,.026-1.245,.305-1.682,.783l-.192,.21-.192-.21c-.437-.478-1.034-.756-1.682-.783-.707-.026-1.437,.249-1.988,.762-.529,.491-1.129,1.486-1.083,2.675,.049,1.243,.76,2.418,2.114,3.493Zm-.351-5.436c1.168-.926,1.992-.321,2.251-.037l.561,.615c.189,.208,.549,.208,.738,0l.561-.614c.259-.284,1.184-.89,2.251,.037,.298,.259,.792,.96,.766,1.841-.056,1.876-2.158,3.121-2.644,3.395-.817,.459-1.792,.459-2.601,.004-.183-.107-2.503-1.347-2.648-3.335-.066-.907,.443-1.649,.764-1.904Z"/>
</svg>
