<svg id="Layer_1" viewBox="0 0 24 24" xmlns="http://www.w3.org/2000/svg" data-name="Layer 1"><path d="m22.899 6.889c-.392-1.378-1.834-2.18-3.193-1.795-.032.008-3.451.775-7.206.906h-.064c-.18-.7-.499-1.8-.881-2.528-.617-1.175-2.077-1.768-3.153-1.31-.146.05-3.608 1.266-6.773 5.377-.046.06-.078.129-.093.203-.022.104-.536 2.593-.536 5.758s.453 5.378.472 5.471c.029.139.115.258.237.33 3.23 1.892 6.465 2.699 10.816 2.699.189 0 .362-.107.447-.276 1.857-3.713 2.331-7.655 2.504-10.765 3.095-.297 5.458-.808 5.637-.859 1.352-.355 2.199-1.876 1.786-3.21zm-1.1 1.487c-.208.374-.549.644-.957.76-.02.005-2.466.566-5.887.865-.249.021-.443.224-.455.474-.147 2.998-.542 6.881-2.287 10.523-3.917-.037-6.878-.776-9.803-2.447-.111-.625-.411-2.548-.411-5.051 0-2.691.395-4.93.493-5.443 2.951-3.783 6.201-4.938 6.267-4.962.628-.268 1.538.133 1.91.841.297.565.559 1.421.732 2.063h-2.901c-.276 0-.5.224-.5.5s.224.5.5.5h4.017c3.951-.137 7.42-.932 7.445-.939.853-.24 1.734.255 1.976 1.104.117.409.068.84-.138 1.212z"/></svg>