<svg id="Layer_1" viewBox="0 0 24 24" xmlns="http://www.w3.org/2000/svg" data-name="Layer 1"><path d="m22.22 6.062c-.105-.481-.188-.864-.221-1.106-.024-1.358-1.135-2.455-2.499-2.455-.635 0-1.215.238-1.656.63-.354-.951-1.271-1.63-2.344-1.63-.817 0-1.544.394-2 1.002-.456-.608-1.183-1.002-2-1.002-1.076 0-1.996.684-2.348 1.64-.441-.398-1.019-.64-1.652-.64-1.378 0-2.5 1.146-2.5 2.556v3.588c-.043.038-.086.077-.127.118l-3.093 3.435c-.612.698-.866 1.447-.755 2.227.269 1.895 2.648 3.416 4.223 4.422.316.202.595.38.807.531.972.692 1.445 1.55 1.445 2.623 0 .276.224.5.5.5s.5-.224.5-.5c0-1.4-.627-2.557-1.865-3.438-.223-.159-.516-.347-.849-.559-1.334-.853-3.567-2.281-3.771-3.72-.069-.485.101-.952.513-1.422l3.07-3.41c.65-.649 1.71-.648 2.361 0 .315.313.488.729.488 1.172s-.173.859-.493 1.177l-1.812 1.85c-.193.198-.19.514.007.708.198.193.515.19.708-.008l1.807-1.845c.504-.502.782-1.17.782-1.881 0-.404-.09-.794-.26-1.147.194-.247.394-.55.547-.866.453.452 1.077.733 1.766.733.817 0 1.543-.394 2-1.002.456.608 1.183 1.002 2 1.002.783 0 1.482-.362 1.941-.927.451.654 1.206 1.084 2.059 1.084.912 0 1.71-.491 2.147-1.221.193 1.083.353 2.287.353 3.424 0 4.685-1.225 6.409-1.751 6.933-.889.884-1.25 1.859-1.249 3.365 0 .276.224.5.5.5s.5-.224.5-.5c0-1.242.258-1.961.954-2.655.764-.76 2.046-2.763 2.046-7.641 0-2.028-.47-4.203-.78-5.642zm-16.22 2.023v-3.029c0-.858.673-1.556 1.5-1.556s1.5.698 1.5 1.556v2.582c0 .202-.161.599-.441 1.006-.711-.636-1.686-.824-2.559-.558zm5.5.257c-.827 0-1.5-.673-1.5-1.5v-2.842c0-.827.673-1.5 1.5-1.5s1.5.673 1.5 1.5v2.842c0 .827-.673 1.5-1.5 1.5zm4 0c-.827 0-1.5-.673-1.5-1.5v-2.842c0-.827.673-1.5 1.5-1.5s1.5.673 1.5 1.5v2.842c0 .827-.673 1.5-1.5 1.5zm4 .158c-.827 0-1.5-.673-1.5-1.5v-2c0-.827.673-1.5 1.5-1.5s1.5.673 1.5 1.5v2c0 .827-.673 1.5-1.5 1.5z"/></svg>