<svg id="Layer_1" viewBox="0 0 24 24" xmlns="http://www.w3.org/2000/svg" data-name="Layer 1"><path d="m9.979 6.52c.771.77 1.711 1.375 1.751 1.401.164.105.375.105.539 0 .04-.025.98-.631 1.751-1.401.77-.77 1.375-1.711 1.4-1.75.105-.164.105-.375 0-.539-.025-.04-.631-.98-1.4-1.75-.771-.77-1.711-1.375-1.751-1.401-.164-.105-.375-.105-.539 0-.04.025-.98.631-1.751 1.401-.77.77-1.375 1.711-1.4 1.75-.105.164-.105.375 0 .539.025.04.631.98 1.4 1.75zm.707-3.333c.457-.457.997-.86 1.313-1.083.316.223.856.626 1.313 1.083.456.457.859.997 1.082 1.313-.222.316-.624.855-1.082 1.313-.457.457-.997.86-1.313 1.083-.316-.223-.856-.626-1.313-1.083-.456-.457-.859-.997-1.082-1.313.222-.316.624-.855 1.082-1.313zm12.313 8.314c-.023 4.687-1.406 8.524-4.112 11.404-.19.202-.506.211-.707.022s-.211-.505-.021-.707c2.526-2.69 3.819-6.299 3.841-10.725.008-1.629-.16-3.376-.499-5.19-.142-.848-1.023-1.456-1.867-1.279-.866.163-1.439 1-1.278 1.867.296 1.582.632 3.375.63 5.028.006 2.53-.501 4.416-2.08 6.599-.164.225-.478.272-.698.111-.224-.162-.274-.475-.112-.698.841-1.16 1.315-2.178 1.581-3.203.062-.393.05-.925-.354-1.315-.469-.452-1.194-.545-1.762-.227-.029.015-1.13.626-2.96 3.201.967 1.43 2.093 3.336 3.348 5.888.122.248.021.547-.228.669-.243.12-.547.023-.669-.228-3.969-8.07-6.583-9.507-6.609-9.521-.586-.329-1.31-.236-1.778.217-.389.374-.416.883-.363 1.271.356 1.398 1.097 2.777 2.577 4.484.181.209.158.524-.051.706-.208.18-.524.159-.705-.05-2.338-2.754-3.105-4.702-3.122-7.904-.002-1.649.318-3.367.629-5.028.175-.844-.428-1.726-1.278-1.867-.867-.163-1.704.412-1.867 1.279-.339 1.816-.507 3.562-.498 5.19.021 4.427 1.313 8.035 3.84 10.725.189.201.18.518-.021.707s-.517.18-.707-.022c-2.707-2.879-4.09-6.716-4.114-11.404-.009-1.691.165-3.5.516-5.379.265-1.41 1.623-2.34 3.033-2.078 1.381.228 2.363 1.664 2.077 3.034-.302 1.616-.613 3.287-.611 4.843 0 .252.009.493.02.733.785-.718 1.964-.861 2.894-.338.058.028 1.196.623 3.08 3.207 1.848-2.532 2.971-3.156 3.101-3.22.909-.511 2.09-.366 2.874.354.01-.24.016-.484.016-.736.002-1.561-.324-3.305-.612-4.844-.264-1.409.669-2.77 2.077-3.034 1.365-.287 2.807.7 3.033 2.078.351 1.876.524 3.687.517 5.379z"/></svg>