<svg id="Layer_1" viewBox="0 0 24 24" xmlns="http://www.w3.org/2000/svg" data-name="Layer 1"><path d="m9.5 1c-5.872 0-8.5 1.758-8.5 3.5 0 1.628 1.141 2.446 3.489 2.5.426.008.93-.054 1.467-.122.574-.072 1.225-.153 1.844-.153 2.896 0 4.625.583 4.625 1.559 0 .85-2.448 1.401-4.804 1.491-1.265.139-2.946.521-2.946 2.225 0 .359.152.698.438.982 1.374 1.357 6.218 1.508 7.887 1.519v5.999c0 .086.022.17.064.245.052.092 1.311 2.255 5.225 2.255h.011c4.014-.004 4.658-2.276 4.683-2.373.011-.042.017-.084.017-.127v-9.5c0-6.822-4.29-10-13.5-10zm12.5 19.417c-.113.283-.792 1.581-3.701 1.583h-.01c-2.878 0-4.021-1.282-4.289-1.649v-6.351c0-.134-.054-.262-.148-.355-.095-.094-.237-.157-.357-.145-2.453.036-6.715-.278-7.678-1.229-.126-.125-.141-.214-.141-.271 0-.352 0-1.005 2.037-1.229 1.718-.065 5.713-.438 5.713-2.487 0-1.167-.976-2.559-5.625-2.559-.681 0-1.365.085-1.968.161-.501.062-.98.12-1.321.114-2.511-.058-2.511-.996-2.511-1.5 0-1.038 2.327-2.5 7.5-2.5 8.762 0 12.5 2.691 12.5 9v9.417z"/></svg>