<svg id="Layer_1" viewBox="0 0 24 24" xmlns="http://www.w3.org/2000/svg" data-name="Layer 1"><path d="m16.25 8.5c0 .414-.336.75-.75.75s-.75-.336-.75-.75.336-.75.75-.75.75.336.75.75zm-.75 6.25c-.414 0-.75.336-.75.75s.336.75.75.75.75-.336.75-.75-.336-.75-.75-.75zm6.5-5.75h.5c.276 0 .5-.224.5-.5s-.224-.5-.5-.5h-.5c-2.767 0-4 1.233-4 4s1.233 4 4 4h.5c.276 0 .5-.224.5-.5s-.224-.5-.5-.5h-.5c-2.215 0-3-.785-3-3s.785-3 3-3zm.5 10h-.5c-4.411 0-8.167-.486-9.281-.646-.106-.441-.259-1.435-.441-2.487.714-.652 1.109-1.12 1.135-1.152.71-.854.778-2.096.165-3.022-.369-.556-.917-.938-1.531-1.102.131-2.161.511-4.174.671-4.944 1.115-.16 4.87-.646 9.281-.646h.5c.276 0 .5-.224.5-.5s-.224-.5-.5-.5h-.5c-5.335 0-9.732.702-9.776.71-.2.032-.361.183-.407.38-.01.044-.11.48-.236 1.165-2.668.266-5.176 1.157-7.456 2.665-.977.646-1.968 1.385-2.944 2.195-.212.177-.242.492-.065.704.177.213.493.241.704.065.948-.788 1.91-1.505 2.857-2.131 2.065-1.366 4.327-2.192 6.73-2.474-.144.922-.287 2.055-.359 3.247-1.207.131-3.326 1.071-4.272 1.527-.247.124-.346.425-.221.672.124.245.423.344.671.221.917-.451 2.797-1.24 3.792-1.408.68-.142 1.344.126 1.728.706.371.562.33 1.314-.101 1.832-.011.014-1.152 1.381-3.211 2.743-.866.573-1.825 1.136-2.85 1.673-.01.005-1.076.508-5.082.508-.276 0-.5.224-.5.5s.224.5.5.5c4.307 0 5.442-.564 5.546-.622 1.055-.553 2.043-1.133 2.938-1.725.53-.35.998-.699 1.409-1.028.206 1.334.414 2.242.424 2.285.046.197.207.348.407.38.044.008 4.441.71 9.776.71h.5c.276 0 .5-.224.5-.5s-.224-.5-.5-.5z"/></svg>