<svg id="Layer_1" viewBox="0 0 24 24" xmlns="http://www.w3.org/2000/svg" data-name="Layer 1"><path d="m22.988 16.226c-.059-.269-.321-.439-.596-.381-.009.002-.18.039-.465.095.048-.811.073-2.12.073-2.78 0-5.78-2.008-8.775-6.488-9.685-.116-.967-.21-1.482-.221-1.537-.028-.152-.127-.283-.266-.354-.047-.023-1.178-.584-3.025-.584s-2.978.561-3.025.584c-.139.07-.237.201-.266.354-.01.055-.105.57-.221 1.537-4.48.91-6.488 3.905-6.488 9.685 0 .66.024 1.969.072 2.78-.285-.057-.456-.093-.465-.095-.271-.061-.536.111-.596.381-.059.27.111.536.381.596.012.003.298.064.774.155.48 3.078 2.961 5.5 6.06 5.816 1.344.138 2.613.208 3.773.208s2.429-.07 3.773-.208c3.099-.315 5.58-2.738 6.059-5.816.476-.091.763-.153.775-.155.27-.06.44-.326.381-.596zm-19.988-3.066c0-5.212 1.57-7.756 5.375-8.639-.184 1.862-.375 4.729-.375 8.646 0 .399.007.913.012 1.338.003.274.226.495.5.495.278 0 .503-.228.5-.505-.005-.422-.012-.932-.012-1.328 0-6.193.496-9.816.648-10.781.375-.14 1.202-.386 2.352-.386s1.979.247 2.353.385c.151.966.647 4.589.647 10.782 0 .41.004.959 0 1.328-.003.277.222.505.5.505.273 0 .497-.221.5-.495.004-.371 0-.925 0-1.338 0-3.917-.191-6.784-.375-8.646 3.804.882 5.375 3.426 5.375 8.639 0 .709-.03 2.263-.088 2.969-1.93.342-5.466.87-8.912.87s-6.983-.528-8.913-.87c-.057-.707-.087-2.261-.087-2.969zm12.672 8.638c-1.311.134-2.546.202-3.672.202s-2.361-.068-3.672-.202c-2.531-.259-4.577-2.165-5.112-4.632 2.022.348 5.439.834 8.784.834s6.762-.486 8.784-.834c-.535 2.466-2.581 4.373-5.112 4.632z"/></svg>