<?xml version="1.0" encoding="UTF-8"?>
<svg xmlns="http://www.w3.org/2000/svg" id="Layer_1" data-name="Layer 1" viewBox="0 0 24 24">
  <path d="M22.624,17.769c-.109-.028-1.816-.455-4.697-.76-.13-1.437-.222-3.123-.222-5.009,0-2.07,.113-3.905,.264-5.434,2.754,.301,4.383,.708,4.408,.714,.269,.069,.54-.094,.608-.361s-.093-.54-.361-.607c-.107-.027-1.757-.44-4.547-.744,.294-2.472,.655-3.92,.661-3.944,.068-.268-.094-.54-.361-.608-.267-.07-.54,.093-.607,.361-.026,.101-.396,1.578-.692,4.092-1.457-.13-3.163-.222-5.077-.222-2.049,0-3.856,.104-5.372,.248,.292-2.427,.646-3.847,.652-3.871,.068-.268-.094-.54-.361-.608-.266-.07-.539,.093-.607,.361-.026,.103-.409,1.63-.708,4.225-2.605,.299-4.126,.684-4.228,.71-.268,.069-.428,.341-.36,.609,.058,.226,.283,.428,.609,.36,.024-.005,1.437-.362,3.872-.655-.144,1.52-.25,3.329-.25,5.374,0,1.917,.091,3.622,.22,5.075-2.522,.297-3.991,.668-4.091,.694-.268,.069-.428,.341-.36,.609,.069,.267,.339,.427,.609,.36,.024-.006,1.463-.369,3.941-.663,.304,2.802,.716,4.444,.746,4.55,.129,.454,.567,.371,.609,.36,.267-.069,.428-.341,.36-.609-.006-.025-.415-1.646-.716-4.409,1.526-.15,3.36-.262,5.436-.262,1.881,0,3.568,.093,5.007,.224,.305,2.891,.726,4.591,.762,4.697,.155,.463,.567,.371,.609,.36,.267-.069,.428-.341,.36-.609-.006-.025-.409-1.62-.709-4.345,2.718,.301,4.323,.701,4.348,.708,.042,.011,.55-.135,.608-.361,.068-.267-.093-.54-.361-.607Zm-10.624-1.065c-2.123,0-3.986,.112-5.535,.263-.128-1.428-.218-3.099-.218-4.967,0-2.094,.115-3.947,.269-5.486,1.536-.153,3.386-.267,5.484-.267,1.865,0,3.538,.092,4.969,.22-.152,1.552-.265,3.416-.265,5.533,0,1.846,.085,3.495,.206,4.912-1.42-.122-3.069-.208-4.91-.208Z"/>
</svg>
