<svg id="Layer_1" viewBox="0 0 24 24" xmlns="http://www.w3.org/2000/svg" data-name="Layer 1"><path d="m22 17.945v-1.279c0-5.263-5.559-10.054-8.466-12.199.31-.332.466-.817.466-1.467 0-1.346-.654-2-2-2s-2 .654-2 2c0 .663.161 1.156.482 1.488-2.884 2.208-8.398 7.088-8.482 12.179v1.279c-.602.498-.994 1.238-1 2.055 0 1.374.505 2.224.527 2.259.079.129.211.216.36.236.037.005 3.789.504 10.113.504s10.076-.5 10.113-.504c.149-.021.282-.107.36-.236.021-.036.527-.885.527-2.263-.006-.814-.398-1.553-1-2.051zm-10-15.945c.794 0 1 .206 1 1s-.206 1-1 1-1-.206-1-1 .206-1 1-1zm-9 14.675c.084-5.036 6.432-10.165 8.511-11.709.152.022.314.035.489.035.184 0 .352-.015.511-.039 2.082 1.487 8.489 6.491 8.489 11.706v.746c-.154-.043-.313-.076-.477-.091-1.593-.148-4.78-.322-8.522-.322s-6.93.173-8.523.322c-.164.015-.323.048-.477.091v-.738zm18.714 4.862c-.949.11-4.411.463-9.714.463s-8.765-.353-9.714-.463c-.114-.274-.286-.81-.286-1.533.006-.864.696-1.604 1.57-1.686 1.571-.147 4.722-.318 8.43-.318s6.858.171 8.429.318c.875.082 1.564.822 1.571 1.682 0 .727-.173 1.263-.286 1.537z"/></svg>