<?xml version="1.0" encoding="UTF-8"?>
<svg xmlns="http://www.w3.org/2000/svg" id="Layer_1" data-name="Layer 1" viewBox="0 0 24 24">
  <path d="M22.381,8.537c0-2.296-1.881-4.165-4.192-4.165-.393,0-.776,.053-1.147,.158-.75-2.104-2.75-3.53-5.041-3.53s-4.291,1.427-5.041,3.53c-.371-.105-.755-.158-1.147-.158-2.312,0-4.192,1.868-4.192,4.165,0,1.695,1.01,3.187,2.553,3.834-.133,1.136-.2,2.272-.2,3.385,0,4.054,.876,5.974,.913,6.054,.061,.13,.175,.228,.312,.268,.128,.038,3.185,.922,6.803,.922s6.674-.885,6.803-.922c.139-.041,.253-.14,.313-.271,.037-.081,.912-2.032,.912-6.051,0-1.117-.066-2.254-.198-3.385,1.542-.647,2.551-2.139,2.551-3.833Zm-4.093,12.645c-.776,.202-3.38,.819-6.288,.819s-5.517-.617-6.289-.819c-.168-.466-.551-1.726-.689-3.833h13.955c-.138,2.094-.521,3.362-.689,3.833Zm.85-9.623c-.232,.072-.38,.301-.349,.542,.159,1.22,.239,2.449,.239,3.654,0,.203-.003,.4-.007,.592H4.979c-.004-.192-.007-.389-.007-.592,0-1.2,.081-2.429,.241-3.653,.031-.242-.116-.471-.349-.543-1.343-.413-2.245-1.627-2.245-3.022,0-1.745,1.432-3.165,3.192-3.165,.443,0,.873,.089,1.277,.264,.136,.059,.288,.055,.421-.011,.132-.065,.229-.186,.263-.329,.474-1.94,2.212-3.295,4.228-3.295s3.754,1.355,4.228,3.295c.034,.143,.131,.264,.263,.329,.133,.066,.286,.07,.421,.011,.404-.175,.834-.264,1.277-.264,1.761,0,3.192,1.419,3.192,3.165,0,1.395-.901,2.609-2.243,3.022Z"/>
</svg>
