<svg id="Layer_1" viewBox="0 0 24 24" xmlns="http://www.w3.org/2000/svg" data-name="Layer 1"><path d="m22.939 20.764c-.13-.242-.433-.335-.676-.205-.005.003-.102.052-.295.129-.307-5.089-3.382-10.4-4.886-12.712 1.662-3.067 2.873-6.268 2.885-6.3.062-.164.033-.349-.076-.486s-.285-.207-.456-.186c-5.272.676-10.517 3.78-13.05 7.726-1.859 2.896-4.092 7.3-4.35 11.96-.195-.078-.293-.128-.297-.13-.244-.131-.546-.042-.678.201s-.042.546.201.678c.118.063 2.964 1.561 10.739 1.561s10.621-1.497 10.739-1.561c.242-.131.331-.433.201-.675zm-19.93.252c.18-4.781 2.721-9.411 4.219-11.746 2.21-3.443 6.842-6.298 11.485-7.142-.479 1.176-1.455 3.463-2.651 5.63-.09.163-.082.363.021.518 1.408 2.126 4.705 7.624 4.907 12.74-1.469.422-4.304.984-8.99.984s-7.523-.562-8.991-.984zm14.344-4.874-1.162-.332-.332-1.162c-.112-.394-.449-.648-.858-.648s-.746.254-.858.647l-.332 1.162-1.162.332c-.394.112-.648.449-.648.858s.254.746.647.858l1.162.332.332 1.162c.112.394.449.648.858.648s.746-.254.858-.647l.332-1.162 1.162-.332c.394-.112.648-.449.648-.858s-.254-.746-.647-.858zm-1.438 1.087c-.333.096-.589.353-.686.687l-.229.8-.229-.802c-.096-.333-.353-.589-.687-.686l-.8-.229.802-.229c.333-.096.589-.353.686-.687l.229-.8.229.802c.096.333.353.589.687.686l.8.229zm-2.562-5.371c.394-.112.648-.449.648-.858s-.254-.746-.647-.858l-1.162-.332-.332-1.162c-.112-.394-.449-.648-.858-.648s-.746.254-.858.647l-.332 1.162-1.162.332c-.394.112-.648.449-.648.858s.254.746.647.858l1.162.332.332 1.162c.112.394.449.648.858.648s.746-.254.858-.647l.332-1.162zm-2.124.058-.229.8-.229-.802c-.096-.333-.353-.589-.687-.686l-.8-.229.802-.229c.333-.096.589-.353.686-.687l.229-.8.229.802c.096.333.353.589.687.686l.8.229-.802.229c-.333.096-.589.353-.686.687z"/></svg>