<svg id="Layer_1" viewBox="0 0 24 24" xmlns="http://www.w3.org/2000/svg" data-name="Layer 1"><path d="m13.25 7c-.906 0-1.743.447-2.25 1.103-.507-.656-1.344-1.103-2.25-1.103-1.491 0-2.75 1.374-2.75 3 0 3.781 4.601 5.87 4.797 5.957.129.057.277.057.406 0 .196-.087 4.797-2.176 4.797-5.957 0-1.626-1.259-3-2.75-3zm-2.25 7.944c-.841-.428-4-2.217-4-4.944 0-1.084.801-2 1.75-2 .985 0 1.75.806 1.75 1.5 0 .276.224.5.5.5s.5-.224.5-.5c0-.694.765-1.5 1.75-1.5.949 0 1.75.916 1.75 2 0 2.727-3.159 4.516-4 4.944zm11.987-1.559c-.712-3.026-1.883-5.555-3.914-8.457-2.031-2.901-4.274-3.929-8.573-3.929-6.659.001-9.5 2.842-9.5 9.501 0 3.822.974 5.217 3 7.628v3.372c0 .189.107.362.276.447.086.043 2.146 1.053 5.724 1.053s5.638-1.01 5.724-1.053c.169-.085.276-.258.276-.447v-1.538c2.225-.22 3.672-.987 3.737-1.021.124-.067.214-.183.248-.319.02-.079.458-1.856.51-4.175 1.337-.174 2.14-.463 2.177-.477.386-.143.32-.497.315-.584zm-3.037.117c-.255.025-.45.241-.45.498 0 1.93-.31 3.572-.434 4.154-.482.217-1.809.741-3.596.847-.264.016-.47.234-.47.499v1.67c-.646.254-2.399.83-5 .83s-4.354-.576-5-.83v-3.225c0-.118-.042-.232-.118-.322-1.919-2.277-2.882-3.42-2.882-7.124 0-6.116 2.383-8.499 8.5-8.499 4.014 0 5.898.851 7.754 3.502 1.849 2.642 2.95 4.962 3.641 7.657-.404.107-1.071.256-1.944.344z"/></svg>