<svg id="Layer_1" viewBox="0 0 24 24" xmlns="http://www.w3.org/2000/svg" data-name="Layer 1"><path d="m22.48 22.075c.076.266-.077.542-.343.618-.043.013-1.079.307-2.138.307-.831.011-2.139-.286-2.138-.307-.266-.076-.419-.353-.343-.618.075-.266.354-.422.618-.343.008.002.586.163 1.274.234.151-1.208.534-4.682.583-9.064-1.146-.238-4.644-.903-7.994-.903s-6.848.665-7.994.903c.048 4.382.431 7.856.582 9.064.689-.07 1.267-.232 1.274-.234.266-.077.542.077.618.343s-.077.542-.342.618c-.01.024-1.299.315-2.138.307-1.058 0-2.094-.294-2.138-.307-.265-.076-.418-.353-.342-.618.077-.265.355-.419.618-.343.008.003.683.191 1.445.249-.173-1.412-.583-5.25-.583-9.982s.409-8.57.583-9.982c-.761.058-1.437.247-1.445.249-.263.081-.542-.077-.618-.343s.077-.542.342-.618c.044-.013 1.08-.307 2.138-.307.823-.009 2.151.286 2.138.307.265.076.418.353.342.618-.075.268-.36.419-.618.343-.007-.002-.586-.164-1.274-.234-.16 1.279-.58 5.099-.587 9.848 1.344-.274 4.693-.882 7.999-.882s6.655.608 7.999.882c-.007-4.752-.428-8.57-.588-9.848-.688.071-1.266.232-1.274.234-.264.079-.543-.077-.618-.343-.076-.266.077-.542.343-.618 0-.023 1.305-.315 2.138-.307 1.059 0 2.095.294 2.138.307.266.076.419.353.343.618-.075.268-.36.419-.618.343-.008-.003-.684-.191-1.445-.249.173 1.412.583 5.25.583 9.982s-.41 8.57-.583 9.982c.761-.058 1.437-.247 1.445-.249.262-.079.542.077.618.343z"/></svg>