<?xml version="1.0" encoding="UTF-8"?>
<svg xmlns="http://www.w3.org/2000/svg" id="Layer_1" data-name="Layer 1" viewBox="0 0 24 24">
  <path d="M23,17.005c0-2.546-1.006-3.863-2.389-4.532-.031-7.51-2.611-10.718-8.611-10.718C6.081,1.755,3.422,5.062,3.389,12.473c-1.383,.669-2.389,1.986-2.389,4.532,0,4.601,3.283,5.19,6.144,5.19,.216,0,.407-.139,.475-.343,1.035-3.126,1.035-6.568,0-9.694-.068-.204-.259-.343-.475-.343-.914,0-1.871,.06-2.75,.293,.14-8.206,3.731-9.353,7.607-9.353s7.467,1.147,7.607,9.353c-.879-.232-1.836-.293-2.75-.293-.216,0-.407,.139-.475,.343-.966,2.916-1.029,6.11-.193,9.064-1.39,.046-2.715,.02-3.947-.079-.281-.019-.516,.183-.539,.458-.022,.275,.183,.517,.458,.538,.866,.07,1.774,.105,2.718,.105,.645,0,1.306-.016,1.98-.05,2.859,0,6.141-.591,6.141-5.19ZM6.779,21.191c-3.432-.077-4.779-1.272-4.779-4.187s1.347-4.108,4.779-4.186c.821,2.713,.821,5.659,0,8.372Zm10.443,0c-.821-2.714-.821-5.659,0-8.372,3.432,.077,4.779,1.271,4.779,4.186s-1.347,4.109-4.778,4.187Z"/>
</svg>
