<?xml version="1.0" encoding="UTF-8"?>
<svg xmlns="http://www.w3.org/2000/svg" id="Layer_1" data-name="Layer 1" viewBox="0 0 24 24">
  <path d="M22.001,11.195c-.604-.869-1.356-1.95-1.356-2.83,0-.694-.209-1.689-.358-2.175-1.019-3.319-4.173-5.163-8.888-5.19C4.908,1.039,1.118,4.752,1,11.207c.069,4.017,2.146,6.169,3.7,7.438,.659,.538,1.071,1.237,1.16,1.969,.138,1.134,.311,1.562,.33,1.607,.064,.151,.198,.261,.359,.294,.096,.02,2.372,.484,4.556,.484,2.137,0,4.401-.465,4.497-.484,.092-.019,.176-.063,.244-.128,.145-.139,.47-.601,.587-2.013,2.485-.049,4.878-.542,4.878-3.192v-2.004c.453-.278,1.329-.888,1.621-1.618h0c.261-.652-.266-1.408-.932-2.365Zm0,2.003c-.191,.457-.974,1.009-1.426,1.251-.162,.087-.264,.257-.264,.441v2.293c0,1.318-.739,2.196-4.349,2.196-.268,0-.488,.211-.5,.479-.044,1.042-.198,1.535-.271,1.719-.603,.113-2.414,.423-4.086,.423-1.64,0-3.387-.286-4.063-.409-.052-.208-.123-.559-.189-1.098-.12-.989-.659-1.921-1.52-2.623-1.52-1.24-3.271-3.12-3.333-6.663C2.146,3.244,7.955,2.021,11.398,2c2.453,.014,6.745,.616,7.932,4.483,.152,.495,.314,1.37,.314,1.882,0,1.194,.852,2.417,1.536,3.401,.334,.48,.837,1.203,.82,1.432Z"/>
  <path d="M14.625,9.35c1.145,0,2.075-.931,2.075-2.075s-.931-2.075-2.075-2.075-2.075,.931-2.075,2.075c0,.103,.008,.205,.022,.304-.335-.129-.71-.214-1.122-.253v-1.625c0-.276-.224-.5-.5-.5s-.5,.224-.5,.5v1.625c-.413,.039-.787,.124-1.123,.253,.015-.099,.022-.2,.022-.303,0-1.144-.931-2.075-2.075-2.075s-2.074,.931-2.074,2.075,.931,2.075,2.074,2.075c.106,0,.211-.008,.313-.024-.129,.336-.216,.711-.258,1.124h-1.629c-.276,0-.5,.224-.5,.5s.224,.5,.5,.5h1.628c.041,.414,.124,.788,.248,1.122-.099-.014-.2-.022-.302-.022-1.144,0-2.074,.931-2.074,2.075s.931,2.075,2.074,2.075,2.075-.931,2.075-2.075c0-.099-.007-.197-.021-.293,.334,.125,.708,.206,1.122,.243v1.624c0,.276,.224,.5,.5,.5s.5-.224,.5-.5v-1.624c.413-.037,.787-.118,1.121-.243-.013,.095-.021,.193-.021,.292,0,1.144,.931,2.075,2.075,2.075s2.075-.931,2.075-2.075-.931-2.075-2.075-2.075c-.104,0-.205,.008-.305,.023,.125-.334,.208-.708,.249-1.122h1.631c.276,0,.5-.224,.5-.5s-.224-.5-.5-.5h-1.63c-.042-.413-.128-.788-.257-1.124,.102,.015,.206,.023,.312,.023Zm0-3.15c.593,0,1.075,.482,1.075,1.075s-.482,1.075-1.075,1.075-1.075-.482-1.075-1.075,.482-1.075,1.075-1.075Zm-3.672,7.4c-1.798-.01-2.617-.828-2.653-2.65,.035-1.797,.879-2.639,2.647-2.65,1.754,.012,2.622,.881,2.652,2.642-.033,1.828-.851,2.648-2.646,2.659ZM6.2,7.275c0-.593,.481-1.075,1.074-1.075s1.075,.482,1.075,1.075-.482,1.075-1.075,1.075-1.074-.482-1.074-1.075Zm1.074,8.425c-.593,0-1.074-.482-1.074-1.075s.481-1.075,1.074-1.075,1.075,.482,1.075,1.075-.482,1.075-1.075,1.075Zm8.426-1.075c0,.593-.482,1.075-1.075,1.075s-1.075-.482-1.075-1.075,.482-1.075,1.075-1.075,1.075,.482,1.075,1.075Z"/>
</svg>
