<?xml version="1.0" encoding="UTF-8"?>
<svg xmlns="http://www.w3.org/2000/svg" id="Layer_1" data-name="Layer 1" viewBox="0 0 24 24">
  <path d="M20.654,4.783c-1.17-1.086-2.7-1.669-4.205-1.612-1.345,.055-2.586,.632-3.494,1.623l-.956,1.045-.956-1.045c-.908-.991-2.148-1.568-3.494-1.623-1.505-.058-3.034,.526-4.205,1.612-1.143,1.06-2.441,3.209-2.34,5.779,.107,2.723,1.7,5.321,4.734,7.724,.689,.547,3.526,2.547,6.26,2.547,3.149,0,6.183-2.442,7.057-3.211,2.583-2.275,3.91-4.715,3.943-7.25,.032-2.49-1.243-4.567-2.345-5.589Zm-5.242,14.149c-2.137,1.2-4.688,1.2-6.818,.004-.016-.009-6.254-3.233-6.589-8.413-.154-2.383,1.204-4.295,2.021-5.008,2.815-2.456,5.4-1.047,6.281-.046l1.051,1.149-1.028,1.429c-.665,.925-.669,2.171-.011,3.1l.376,.531c.412,.582,.409,1.361-.009,1.939l-1.26,1.746c-.162,.225-.105,.528,.113,.698,.279,.219,.6,.022,.698-.112l1.26-1.746c.668-.925,.674-2.172,.014-3.104l-.376-.531c-.412-.581-.409-1.359,.007-1.938l1.256-1.747,1.296-1.416c.86-.937,3.168-2.426,6.281,.046,.226,.179,2.099,1.998,2.025,4.844-.127,4.908-5.399,7.908-6.587,8.573Z"/>
</svg>
