<svg id="Layer_1" viewBox="0 0 24 24" xmlns="http://www.w3.org/2000/svg" data-name="Layer 1"><path d="m20.75 1c-.722 0-1.344.291-1.75.763-.406-.472-1.028-.763-1.75-.763-1.241 0-2.25 1.018-2.25 2.268 0 2.307 2.104 3.879 3.008 4.447.301.19.646.285.992.285s.69-.095.991-.285c.905-.568 3.009-2.141 3.009-4.447 0-1.25-1.009-2.268-2.25-2.268zm-1.292 5.869c-.278.176-.638.176-.917 0-.596-.375-2.541-1.743-2.541-3.602 0-.699.561-1.268 1.25-1.268.621 0 1.25.391 1.25 1.137 0 .276.224.5.5.5s.5-.224.5-.5c0-.746.629-1.137 1.25-1.137.689 0 1.25.568 1.25 1.268 0 1.858-1.945 3.227-2.542 3.602zm3.149 4.589c-3.4-.764-5.262-.722-7.557 1.399-2.415-1.287-5.214-1.093-7.599.633-.138-1.467-.547-2.735-.889-3.792-.615-1.904-.876-2.893.104-3.695.441 0 1.582-.008 2.262-.198.684-.189.983-.791 1.081-1.252.146-.11.628-.342.703-.52.371-.679.384-1.467.035-2.055-.265-.446-.847-.979-2.118-.979-2.265.061-4.155.898-5.401 2.396-2.1 2.504-2.725 6.989-1.908 13.709.415 3.416 3.343 5.896 6.961 5.896h1.64c4.373 0 7.569-.056 9.696-1.093 2.369-1.156 3.381-3.484 3.382-7.785v-2.177c0-.234-.162-.437-.391-.488zm-.609 2.658c0 3.919-.817 5.916-2.82 6.894-2.044.997-5.396 1.002-10.041.99h-.856c-3.105 0-5.616-2.109-5.968-5.017-.782-6.431-.231-10.665 1.682-12.944 1.066-1.28 2.646-1.98 4.635-2.039.441 0 1.018.085 1.258.488.151.255.148.62 0 .958l-.607.384c-.134.085-.221.233-.232.392 0 .005-.042.523-.388.62-.577.16-1.748.17-2.147.158-.107.004-.219.031-.308.096-1.764 1.285-1.222 2.965-.594 4.91.417 1.289.888 2.751.888 4.494 0 .197.117.377.297.457.179.08.391.046.538-.086 2.716-2.462 6.261-2.464 8.818-.011.2.192.515.186.707-.015.191-.199.185-.516-.015-.706-.291-.279-.598-.518-.909-.742 1.655-1.462 3.025-1.692 6.062-1.049z"/></svg>