<svg id="Layer_1" viewBox="0 0 24 24" xmlns="http://www.w3.org/2000/svg" data-name="Layer 1"><path d="m12.5 21h-.006l-.5-.006c-1.368 0-2.718-.358-3.9-1.034-1.248-.715-2.279-1.444-3.155-2.229-2.654-2.388-3.905-4.683-3.938-7.224.132-4.338 2.877-7.489 6.528-7.513 1.359.056 2.495.596 3.399 1.604l1.937 2.06c.087.092.136.215.136.342v13.5c.005.268-.231.505-.5.5zm-4.99-17.007c-3.118.021-5.394 2.703-5.51 6.522.029 2.22 1.175 4.284 3.607 6.471.822.737 1.798 1.426 2.983 2.105 1.031.59 2.21.902 3.41.902v-12.795l-1.809-1.924c-.736-.82-1.61-1.236-2.681-1.281z"/></svg>