<?xml version="1.0" encoding="UTF-8"?>
<svg xmlns="http://www.w3.org/2000/svg" id="Layer_1" data-name="Layer 1" viewBox="0 0 24 24">
  <path d="M22.5,19.345c-.276,0-.5,.224-.5,.5,0,.994-.809,1.802-1.803,1.802h-1.029c0-.011,.002-.022,.002-.033v-3.292c1.594-.898,2.735-2.609,2.735-5.814,0-5.994-3.992-6.763-7.47-6.763-.451,0-.946,.015-1.472,.042V3.402h5.828c.276,0,.5-.224,.5-.5s-.224-.5-.5-.5h-5.828v-.549c0-.276-.224-.5-.5-.5s-.5,.224-.5,.5v.549H6.136c-.276,0-.5,.224-.5,.5s.224,.5,.5,.5h5.827v2.448c-3.686,.269-8.337,.979-9.963,1.238v-1.884c0-.276-.224-.5-.5-.5s-.5,.224-.5,.5v3.812c0,.143,.061,.279,.168,.374,.164,.145,3.86,3.418,5.869,4.445,.304,2.658,1.564,4.037,3.166,4.74v3.071H5.437c-.276,0-.5,.224-.5,.5s.224,.5,.5,.5h14.76c1.545,0,2.803-1.257,2.803-2.802,0-.276-.224-.5-.5-.5Zm-1.595-6.837c0,.286-.009,.559-.028,.822-.602,.05-1.193,.075-1.757,.075-2.502,0-4.743-.493-5.497-.679-.188-.722-.673-2.841-.673-5.49,0-.151,.002-.299,.005-.446,.532-.029,1.031-.045,1.48-.045,4.656,0,6.47,1.616,6.47,5.763Zm-12.9,.957c-.016-.183-.129-.342-.297-.416-1.575-.69-4.92-3.571-5.707-4.258v-.689c1.427-.228,6.216-.966,9.953-1.247-.002,.126-.003,.253-.003,.381,0,3.427,.757,5.943,.79,6.048,.05,.163,.179,.289,.342,.335,.114,.032,2.827,.786,6.038,.786,.525,0,1.071-.021,1.627-.062-.537,2.765-2.476,3.928-6.312,3.928-4.275,0-6.139-1.393-6.431-4.806Zm3.198,5.458c1.043,.277,2.167,.348,3.233,.348,1.248,0,2.562-.099,3.735-.503v2.846c0,.011,0,.022,.002,.033h-6.969v-2.725Z"/>
</svg>
