<svg id="Layer_1" viewBox="0 0 24 24" xmlns="http://www.w3.org/2000/svg" data-name="Layer 1"><path d="m17.904 1.725c-.073-.083-.171-.141-.279-.162-.115-.023-2.844-.562-5.625-.562s-5.51.539-5.625.562c-.108.021-.207.079-.279.162-2.408 2.769-4.23 6.079-5.571 10.118-.034.102-.034.213 0 .314 1.34 4.039 3.163 7.349 5.571 10.118.073.083.171.141.279.162.115.023 2.844.562 5.625.562s5.51-.539 5.625-.562c.108-.021.207-.079.279-.162 2.497-2.871 4.345-6.181 5.651-10.118.034-.102.034-.213 0-.314-1.306-3.938-3.155-7.247-5.651-10.118zm-.642 19.764c-.632.116-2.963.512-5.262.512s-4.63-.396-5.262-.512c-2.233-2.605-3.939-5.712-5.21-9.488 1.271-3.776 2.978-6.883 5.21-9.488.632-.116 2.963-.512 5.262-.512s4.63.396 5.262.512c2.318 2.701 4.051 5.808 5.291 9.488-1.24 3.681-2.973 6.787-5.291 9.488z"/></svg>