<svg id="Layer_1" viewBox="0 0 24 24" xmlns="http://www.w3.org/2000/svg" data-name="Layer 1"><path d="m23 22.5c0 .276-.224.5-.5.5h-18c-.276 0-.5-.224-.5-.5s.224-.5.5-.5h18c.276 0 .5.224.5.5zm-20.115-2.678-1.032 1.032c-.195.195-.512.195-.707 0s-.195-.512 0-.707l1.036-1.036c-.325-2.075-.178-4.387.597-6.441 3.159-4.591 7.523-8.495 12.973-11.604.114-.065.252-.082.379-.048.073.02 1.801.502 3.075 1.776s1.756 3.002 1.776 3.075c.035.127.018.264-.048.379-3.109 5.45-7.013 9.814-11.604 12.973-1.931.847-4.277.955-6.445.601zm1.396-7.508c.4.477 1.474 1.733 2.573 2.832s2.355 2.172 2.832 2.572c4.013-2.971 7.469-6.919 10.271-11.777-.152-.446-.602-1.585-1.458-2.441-.86-.86-1.996-1.307-2.44-1.458-4.859 2.802-8.806 6.258-11.778 10.272zm-1.142 6.543c2.113.318 4.02.152 5.671-.494.016-.011.031-.024.048-.035-.581-.492-1.697-1.462-2.711-2.475s-1.984-2.131-2.476-2.712c-.009.013-.019.024-.027.037-.612 1.844-.788 3.844-.505 5.679z"/></svg>