<svg id="Layer_1" viewBox="0 0 24 24" xmlns="http://www.w3.org/2000/svg" data-name="Layer 1"><path d="m22.278 1.791c-.752-.746-3.841-2.622-12.013 4.59-4.752 4.194-6.072 5.598-7.005 8.211-.507 1.42-.803 5.403-.865 6.31l-1.248 1.244c-.195.195-.196.511 0 .707.098.098.226.147.354.147.127 0 .255-.049.353-.146l1.243-1.239c.94-.039 5.042-.236 6.462-.783 2.578-.993 3.804-2.285 8.085-7.067 5.724-6.393 6.08-10.439 4.635-11.974zm-18.859 18.81c.098-1.302.374-4.528.782-5.672.021-.059.043-.114.064-.171l5.093 5.076c-.054.022-.105.044-.16.065-1.042.402-4.138.623-5.78.702zm13.48-7.503c-3.445 3.848-4.849 5.363-6.574 6.288l-5.638-5.619c.829-1.671 2.226-3.093 6.239-6.635 4.337-3.828 7.364-5.151 9.144-5.151.676 0 1.172.191 1.491.508.857.91.986 4.299-4.662 10.609z"/></svg>