<?xml version="1.0" encoding="UTF-8"?>
<svg xmlns="http://www.w3.org/2000/svg" id="Layer_1" data-name="Layer 1" viewBox="0 0 24 24">
  <path d="M20.511,14.012c-.039-.022-.082-.038-.126-.049-.595-.138-1.204-.251-1.815-.337,1.501-4.478,3.646-11.116,3.674-11.202,.076-.233-.03-.488-.25-.6-1.414-.717-3.109-.726-4.529-.021l-.038,.019c-.113,.055-.201,.149-.246,.267l-4.635,11.781c-.393-.082-.788-.153-1.185-.212-.006-.029-.014-.059-.025-.088L6.82,2.088c-.045-.116-.17-.229-.281-.284-1.423-.704-3.116-.697-4.532,.021-.22,.111-.326,.366-.25,.6,.021,.068,2.178,6.743,3.674,11.203-.61,.085-1.216,.196-1.815,.336-.044,.011-.087,.026-.126,.049-1.549,.845-2.479,2.449-2.489,4.293-.01,1.845,.903,3.462,2.443,4.324,.072,.04,.153,.062,.236,.063,.111,.002,1.879,.03,3.467,.03,.825,0,1.602-.008,2.072-.031,.985-.047,1.917-.214,2.777-.492,.013,.005,.026,.01,.04,.015,.854,.271,1.776,.432,2.745,.478,.471,.023,1.247,.031,2.073,.031,1.587,0,3.354-.028,3.466-.03,.083,0,.164-.023,.236-.063,1.54-.862,2.453-2.479,2.443-4.324-.011-1.844-.94-3.448-2.489-4.293Zm-14.076-.533c-1.277-3.808-3.079-9.361-3.588-10.934,.99-.375,2.11-.349,3.116,.094l4.28,10.883c-1.262-.119-2.536-.122-3.799-.01-.003-.011-.006-.022-.009-.033Zm2.735,8.215c-1.205,.058-4.632,.012-5.344,0-1.154-.696-1.834-1.952-1.826-3.384,.008-1.451,.721-2.713,1.91-3.389,2.891-.663,5.943-.656,8.832,.016,.245,.056,.487-.073,.578-.305L18.038,2.637c.983-.441,2.11-.472,3.115-.092-.667,2.058-3.548,10.936-4.582,13.832-.356,.995-.887,1.911-1.621,2.771-1.299,1.524-3.352,2.428-5.78,2.545Zm11.004,0c-.712,.011-4.138,.056-5.344,0-.449-.022-.887-.07-1.31-.145,.858-.467,1.611-1.071,2.233-1.801,.771-.902,1.363-1.924,1.76-3.034,.19-.533,.443-1.267,.732-2.122,.621,.081,1.24,.192,1.845,.331,1.189,.676,1.902,1.938,1.91,3.389,.008,1.432-.672,2.688-1.826,3.384Z"/>
</svg>
