<svg id="Layer_1" viewBox="0 0 24 24" xmlns="http://www.w3.org/2000/svg" data-name="Layer 1"><path d="m22.692 1.038c-.257-.105-.548.014-.654.27-.057.136-4.717 11.327-7.314 16.401-1.02-.908-4.945-4-10.163-3.051-1.772.322-3.561 1.735-3.561 4.167 0 2.008 1.396 4.175 3.65 4.175h4.154c2.408 0 4.026-.734 5.412-2.454 1.85-2.296 8.465-18.179 8.746-18.854.105-.255-.015-.547-.27-.654zm-9.255 18.881c-1.19 1.478-2.532 2.081-4.632 2.081h-4.155c-1.808 0-2.65-1.895-2.65-3.175 0-1.982 1.476-2.954 2.739-3.184.603-.109 1.189-.158 1.755-.158 4.298 0 7.405 2.818 7.747 3.141-.324.592-.599 1.04-.805 1.295z"/><path d="m22.5 20h-4c-.276 0-.5.224-.5.5v2c0 .276.224.5.5.5h4c.276 0 .5-.224.5-.5v-2c0-.276-.224-.5-.5-.5zm-.5 2h-3v-1h3z"/></svg>