<?xml version="1.0" encoding="UTF-8"?>
<svg xmlns="http://www.w3.org/2000/svg" id="Layer_1" data-name="Layer 1" viewBox="0 0 24 24">
  <circle cx="14.11" cy="4.965" r=".75"/>
  <circle cx="12" cy="8.215" r=".75"/>
  <circle cx="14.11" cy="15.435" r=".75"/>
  <circle cx="14.11" cy="18.581" r=".75"/>
  <circle cx="9.9" cy="15.435" r=".75"/>
  <circle cx="9.9" cy="18.581" r=".75"/>
  <circle cx="9.9" cy="4.965" r=".75"/>
  <path d="M11.967,1c-3.418,.016-5.904,.762-7.51,2.366-1.612,1.612-2.357,4.042-2.344,7.646,.021,5.766,3.821,11.988,9.922,11.988,2.365,0,4.537-.926,6.282-2.677,2.249-2.257,3.583-5.713,3.57-9.244-.017-4.675-1.16-10.046-9.92-10.079Zm5.642,18.617c-1.553,1.559-3.48,2.383-5.574,2.383-5.486,0-8.903-5.706-8.922-10.992-.012-3.319,.64-5.522,2.051-6.934,1.396-1.396,3.593-2.074,6.717-2.074h.082c6.315,.023,8.901,2.655,8.924,9.083,.012,3.271-1.213,6.462-3.278,8.534Z"/>
  <path d="M10.139,11.117c0-1.174-1.2-2.128-2.674-2.128s-2.673,.954-2.673,2.128,1.199,2.127,2.673,2.127,2.674-.954,2.674-2.127Zm-2.674,1.127c-.907,0-1.673-.516-1.673-1.127s.766-1.128,1.673-1.128,1.674,.517,1.674,1.128-.767,1.127-1.674,1.127Z"/>
  <path d="M16.534,8.989c-1.474,0-2.673,.954-2.673,2.128s1.199,2.127,2.673,2.127,2.674-.954,2.674-2.127-1.2-2.128-2.674-2.128Zm0,3.255c-.907,0-1.673-.516-1.673-1.127s.766-1.128,1.673-1.128,1.674,.517,1.674,1.128-.767,1.127-1.674,1.127Z"/>
</svg>
