<svg id="Layer_1" viewBox="0 0 24 24" xmlns="http://www.w3.org/2000/svg"><path d="m6.673 9.418c.003-.02.327-1.995.327-4.585 0-1.071-.057-2.206-.164-3.283-.027-.275.173-.52.448-.547.28-.031.52.173.547.447.112 1.125.169 2.264.169 3.383 0 2.678-.326 4.666-.34 4.749-.044.274-.309.457-.575.411-.272-.045-.457-.303-.411-.575zm4.365.575c.266.046.531-.137.575-.411.016-.094.382-2.325.382-5.332 0-.259-.002-.513-.007-.76-.005-.272-.229-.49-.5-.49h-.01c-.276.006-.496.234-.49.51.005.241.007.487.007.74 0 2.919-.365 5.146-.368 5.168-.045.272.139.53.411.575zm-8.033 0c.266.046.531-.137.575-.411.015-.087.355-2.161.415-5.072.005-.275-.214-.504-.49-.51-.277.007-.504.214-.51.49-.058 2.833-.397 4.907-.401 4.928-.045.272.139.53.411.575zm19.513 4.115c-4.203 5.9-9.155 8.892-14.718 8.892-3.163 0-5.764-.514-5.873-.535-.177-.035-.321-.163-.377-.334-.022-.068-.55-1.701-.55-3.855 0-2.138.518-4.233.54-4.321.045-.181.187-.322.369-.365.101-.024 2.499-.589 5.591-.589 2.535 0 4.605.331 4.692.346 1.123.334 1.834 1.292 1.834 2.397 0 .027 0 .054-.001.081 1.534-1.191 2.89-2.812 4.257-4.731.833-1.168 2.46-1.44 3.626-.609.566.402.941 1.001 1.056 1.687.115.685-.043 1.373-.446 1.938zm-.54-1.773c-.07-.421-.301-.789-.649-1.037-.72-.512-1.72-.344-2.232.375-2.564 3.674-5.844 7.028-10.559 7.326-.284.016-.516-.186-.537-.461s.185-.516.46-.537c1.439-.109 2.703-.482 3.853-1.075.327-.228.712-.616.712-1.183 0-.651-.435-1.237-1.059-1.426.021-.02-2.018-.317-4.468-.317-2.354 0-4.33.35-5.059.497-.139.644-.441 2.222-.441 3.778 0 1.496.278 2.731.419 3.263.766.132 2.922.462 5.38.462 5.221 0 9.899-2.851 13.903-8.472.248-.348.345-.771.274-1.193z"/></svg>