<svg id="Layer_1" viewBox="0 0 24 24" xmlns="http://www.w3.org/2000/svg" data-name="Layer 1"><path d="m22.5 19.5c0-1.491.479-3.355.484-3.374.037-.146.007-.303-.083-.424s-.23-.195-.382-.202c-.019 0-1.892-.088-2.909-1.11-.343-.344-.68-.845-.851-1.246.833-.686 1.24-1.789 1.24-3.394 0-2.765-1.178-4.073-3.762-4.221.003-.095.012-.18.012-.279 0-2.939-1.311-4.25-4.25-4.25s-4.25 1.311-4.25 4.25c0 .099.009.185.012.279-2.584.148-3.762 1.456-3.762 4.221 0 1.541.371 2.623 1.137 3.315-.106.621-.344.895-.722 1.275-1.022 1.026-2.928 1.16-2.946 1.161-.149.01-.286.085-.373.206-.088.121-.117.274-.08.419.005.019.484 1.88.484 3.374 0 1.466-.467 2.821-.472 2.835-.063.181-.018.383.118.519.137.135.337.183.519.118.014-.005 1.369-.472 2.835-.472 1.491 0 3.355.479 3.374.484.169.043.338-.002.462-.115.125-.113.185-.282.157-.449-.002-.017-.263-1.739.711-2.718.558-.56 1.38-1.202 2.796-1.202s2.238.643 2.796 1.202c.974.979.713 2.701.711 2.718-.027.167.032.336.157.449.125.114.299.157.462.115.019-.005 1.88-.484 3.374-.484 1.466 0 2.821.467 2.835.472.183.063.383.017.519-.118.136-.136.182-.338.118-.519-.005-.014-.472-1.369-.472-2.835zm-3.5-9.75c0 2.399-.851 3.25-3.25 3.25s-3.25-.851-3.25-3.25.851-3.25 3.25-3.25 3.25.851 3.25 3.25zm-7-7.75c2.399 0 3.25.851 3.25 3.25 0 .099-.009.186-.012.281-1.615.097-2.678.654-3.238 1.743-.56-1.089-1.623-1.645-3.238-1.743-.003-.095-.012-.182-.012-.281 0-2.399.851-3.25 3.25-3.25zm-7 7.75c0-2.399.851-3.25 3.25-3.25s3.25.851 3.25 3.25-.851 3.25-3.25 3.25-3.25-.851-3.25-3.25zm3.495 9.247c-.873.878-1.034 2.098-1.036 2.865-.72-.152-1.904-.362-2.959-.362-.871 0-1.692.143-2.28.28.138-.588.28-1.409.28-2.28 0-1.113-.233-2.37-.387-3.074.764-.129 2.109-.476 3.011-1.381.399-.401.72-.791.905-1.434.602.251 1.327.389 2.221.389.409 0 .78-.032 1.127-.084l-4.23 4.23c-.195.195-.195.512 0 .707s.512.195.707 0l5.646-5.646v4.323c-1.5.141-2.427.888-3.005 1.468zm13.285 2.783c-.588-.138-1.409-.28-2.28-.28-1.055 0-2.239.21-2.959.362-.002-.768-.163-1.987-1.036-2.865-.578-.58-1.505-1.327-3.005-1.468v-4.323l5.646 5.646c.195.195.512.195.707 0s.195-.512 0-.707l-4.23-4.23c.347.052.717.084 1.127.084.854 0 1.555-.125 2.142-.354.258.552.666 1.106 1.01 1.45.896.901 2.22 1.226 2.982 1.341-.153.706-.385 1.956-.385 3.063 0 .871.143 1.692.28 2.28z"/></svg>