<svg id="Layer_1" viewBox="0 0 24 24" xmlns="http://www.w3.org/2000/svg" data-name="Layer 1"><path d="m16.998 11.497.002.503c0 6.304-.962 9.467-1.003 9.599-.045.144-.151.259-.29.315-.11.044-2.735 1.086-6.707 1.086s-6.597-1.042-6.707-1.086c-.139-.057-.245-.172-.29-.315-.041-.132-1.003-3.295-1.003-9.599s.962-9.467 1.003-9.599c.045-.144.151-.259.29-.315.11-.044 2.735-1.086 6.707-1.086 1.207 0 2.412.098 3.581.29.272.045.457.302.412.574-.045.273-.306.462-.574.412-1.115-.184-2.266-.276-3.419-.276-3.121 0-5.403.689-6.105.932-.215.831-.895 3.879-.895 9.068s.68 8.237.895 9.068c.702.242 2.984.932 6.105.932s5.403-.689 6.105-.932c.215-.831.895-3.879.895-9.068l-.002-.497c-.002-.276.221-.501.497-.503h.003c.274 0 .498.222.5.497zm-9.498 6.503c-.276 0-.5.224-.5.5s.224.5.5.5h3c.276 0 .5-.224.5-.5s-.224-.5-.5-.5zm8-13.5c-.276 0-.5.224-.5.5s.224.5.5.5c2.215 0 3 .785 3 3 0 .276.224.5.5.5s.5-.224.5-.5c0-2.767-1.233-4-4-4zm0-3.5c-.276 0-.5.224-.5.5s.224.5.5.5c4.738 0 6.5 1.762 6.5 6.5 0 .276.224.5.5.5s.5-.224.5-.5c0-5.257-2.243-7.5-7.5-7.5zm0 8.25c.414 0 .75-.336.75-.75s-.336-.75-.75-.75-.75.336-.75.75.336.75.75.75zm-5.111.243c.005.021.111.515.111 1.007s-.106.986-.111 1.007c-.041.191-.19.341-.382.382-.021.005-.515.111-1.007.111s-.986-.106-1.007-.111c-.191-.041-.341-.19-.382-.382-.005-.021-.111-.515-.111-1.007s.106-.986.111-1.007c.041-.191.19-.341.382-.382.021-.005.515-.111 1.007-.111s.986.106 1.007.111c.191.041.341.19.382.382zm-.889 1.007c0-.162-.016-.328-.034-.466-.275-.037-.656-.037-.932 0-.019.138-.034.304-.034.466s.016.328.034.466c.275.037.656.037.932 0 .019-.138.034-.304.034-.466zm2.958 3.09c-.052.017-1.305.41-3.458.41s-3.406-.394-3.458-.41c-.163-.053-.287-.184-.331-.349-.009-.033-.211-.818-.211-2.464 0-1.671.366-2.66.382-2.702.023-.062.06-.12.106-.169.848-.887 1.96-1.645 3.307-2.251.131-.059.279-.059.41 0 1.347.606 2.459 1.364 3.307 2.251.047.049.083.106.106.169.016.042.382 1.031.382 2.702 0 1.646-.202 2.431-.211 2.464-.044.165-.168.296-.331.349zm-.458-2.812c0-1.201-.21-2.001-.288-2.26-.706-.716-1.617-1.339-2.712-1.855-1.095.517-2.006 1.14-2.712 1.855-.078.259-.288 1.059-.288 2.26 0 .963.073 1.6.126 1.933.456.105 1.454.29 2.874.29s2.418-.185 2.874-.29c.053-.333.126-.97.126-1.933z"/></svg>