<svg id="Layer_1" viewBox="0 0 24 24" xmlns="http://www.w3.org/2000/svg" data-name="Layer 1"><path d="m23 12c0 2.665-1.274 5.557-3.998 9.048.936.088 2.378.333 3.722 1.004.247.124.347.424.224.671-.125.25-.429.345-.671.224-1.958-.979-4.233-.945-4.267-.947-.154-.003-.374-.106-.459-.282-.086-.176-.062-.384.062-.535 2.993-3.651 4.387-6.569 4.387-9.183 0-1.827-.178-3.327-.543-4.586-.021-.074-.025-.151-.012-.227.389-2.175.505-3.619.54-4.278-1.266-.235-5.298-.909-9.985-.909-7.196 0-10 2.804-10 10 0 2.614 1.394 5.532 4.387 9.183.124.151.148.359.062.535-.089.193-.305.298-.492.281-.289 0-2.404.033-4.233.948-.247.122-.547.023-.671-.224-.123-.247-.023-.547.224-.671 1.344-.672 2.786-.916 3.722-1.004-2.724-3.491-3.998-6.383-3.998-9.048-.001-7.813 3.186-11 10.999-11 5.761 0 10.556 1 10.604 1.011.231.049.396.253.396.489 0 .067-.006 1.666-.55 4.749.37 1.326.55 2.882.55 4.751zm-4 0c0 4.838-6.427 9.696-6.701 9.9-.088.066-.193.1-.299.1s-.211-.033-.299-.1c-.274-.204-6.701-5.062-6.701-9.9 0-4.907 2.094-7 7-7s7 2.093 7 7zm-1 0c0-4.374-1.626-6-6-6s-6 1.626-6 6c0 3.784 4.747 7.856 6 8.864 1.253-1.008 6-5.08 6-8.864z"/></svg>