<svg id="Layer_1" viewBox="0 0 24 24" xmlns="http://www.w3.org/2000/svg" data-name="Layer 1"><path d="m22.914 8.719c-.042-.062-1.043-1.53-2.429-2.966-.449-.821-1.104-1.366-1.457-1.62l-.014-2.013c0-.372-.184-.719-.493-.93-.298-.203-.673-.246-1.004-.117-.946.371-2.117 1.467-2.396 3.351-.84.68-1.964 2.28-2.121 4.735-.967-.059-2.992-.175-3.985-.175-1.923 0-3.224.469-4.025 1.451-2.646.865-3.989 2.903-3.989 6.064 0 .276.224.5.5.5s.5-.224.5-.5c0-2.285.735-3.783 2.265-4.65-.174.612-.265 1.32-.265 2.15 0 .95.257 2.186.483 3.276.133.64.259 1.248.304 1.668-.488 1.538-.398 2.988-.395 3.051.009.131.069.254.167.341.031.027.763.665 1.939.665 1.185 0 1.885-.647 1.914-.675.075-.071.126-.163.147-.264.012-.056.281-1.387.412-3.022.033-.417.113-1.588.164-2.32.512.129 1.279.281 2.068.281.71 0 1.342-.14 1.795-.278.004 2.347.026 4.933.026 4.933 0 .068.015.136.043.199.039.086.412.844 1.769 1.087 1.371.245 1.954-.359 2.016-.429.04-.044.071-.096.092-.152.038-.098.919-2.446 1.051-7.283.124-.434.799-2.879.971-5.057.388.051.534.188.718.363.458.435.922.757 2.362.615.138-.014.264-.083.348-.194.053-.068.514-.699.602-1.763.009-.114-.021-.228-.085-.322zm-1.208 1.303c-.89.05-1.086-.132-1.331-.365-.392-.372-.805-.669-1.884-.657-.265.005-.479.215-.49.479-.117 2.502-.976 5.258-1 5.508-.105 4.075-.768 6.351-.944 6.89-.125.07-.441.186-1.041.08-.625-.112-.896-.349-.99-.456-.005-.646-.026-3.321-.026-5.501 0-.172-.089-.333-.235-.424-.147-.091-.33-.1-.485-.025-.009.004-.934.449-2.075.449-1.178 0-2.35-.402-2.361-.406-.146-.05-.31-.031-.44.055s-.212.228-.223.383c0 0-.155 2.307-.205 2.927-.099 1.232-.284 2.308-.36 2.722-.178.118-.562.318-1.116.318-.524 0-.912-.179-1.115-.301-.003-.45.035-1.493.384-2.541.021-.064.03-.131.024-.199-.133-1.353-.807-3.621-.793-4.959 0-2.964 1.051-4.015 4.015-4.015 1.271 0 4.421.204 4.453.206.278.022.539-.217.532-.499l-.003-.637c.199-1.794.856-3.167 1.899-3.971.108-.083.177-.206.192-.341.226-2.065 1.635-2.675 1.87-2.726.014.009.057.043.057.107l.016 2.281c.001.177.096.34.249.429.004-.048 1.012.716 1.44 1.565 1.099 1.13 1.973 2.322 2.264 2.732-.057.408-.186.713-.277.89z"/></svg>