<svg id="Layer_1" viewBox="0 0 24 24" xmlns="http://www.w3.org/2000/svg" data-name="Layer 1"><path d="m10.998 22.373c.023.275-.182.517-.457.539-.702.059-1.389.088-2.041.088-3.291 0-6.237-.734-6.36-.766-.192-.048-.338-.205-.371-.401-.008-.045-.769-4.602-.769-9.833s.761-9.788.769-9.833c.033-.196.179-.354.371-.401.123-.031 3.069-.766 6.36-.766s6.237.734 6.36.766c.192.048.338.205.371.401.006.037.628 3.758.748 8.32.007.275-.211.505-.487.513-.255.031-.505-.211-.513-.487-.098-3.713-.532-6.857-.683-7.852-.844-.187-3.243-.661-5.797-.661s-4.953.475-5.797.661c-.17 1.124-.703 4.994-.703 9.339s.533 8.215.703 9.339c.844.187 3.243.661 5.797.661.625 0 1.284-.028 1.959-.084.246-.021.517.18.539.457zm-2.498-12.373c.276 0 .5-.224.5-.5v-1.5h1.5c.276 0 .5-.224.5-.5s-.224-.5-.5-.5h-1.5v-1.5c0-.276-.224-.5-.5-.5s-.5.224-.5.5v1.5h-1.5c-.276 0-.5.224-.5.5s.224.5.5.5h1.5v1.5c0 .276.224.5.5.5zm-2 2h-1c-.276 0-.5.224-.5.5s.224.5.5.5h1c.276 0 .5-.224.5-.5s-.224-.5-.5-.5zm0 3h-1c-.276 0-.5.224-.5.5s.224.5.5.5h1c.276 0 .5-.224.5-.5s-.224-.5-.5-.5zm0 3h-1c-.276 0-.5.224-.5.5s.224.5.5.5h1c.276 0 .5-.224.5-.5s-.224-.5-.5-.5zm5-6h-1c-.276 0-.5.224-.5.5s.224.5.5.5h1c.276 0 .5-.224.5-.5s-.224-.5-.5-.5zm0 3h-1c-.276 0-.5.224-.5.5s.224.5.5.5h1c.276 0 .5-.224.5-.5s-.224-.5-.5-.5zm0 3h-1c-.276 0-.5.224-.5.5s.224.5.5.5h1c.276 0 .5-.224.5-.5s-.224-.5-.5-.5zm6.5 1c-2.943 0-4.446 1.052-4.873 3.411-.049.271.132.531.403.581.264.041.531-.131.581-.403.333-1.839 1.459-2.589 3.889-2.589s3.556.75 3.889 2.589c.048.274.316.452.581.403.271-.05.452-.31.403-.581-.427-2.359-1.93-3.411-4.873-3.411zm-.003-7c1.879.012 2.972 1.102 3.004 2.991-.035 1.963-1.072 2.997-2.998 3.009-1.932-.011-2.969-1.045-3.004-2.991v-.018c.034-1.917 1.099-2.979 2.998-2.991zm-1.998 3c.027 1.376.646 1.992 2.004 2 1.373-.009 1.973-.609 1.998-2.009-.023-1.345-.66-1.982-2.004-1.991-1.353.009-1.971.625-1.998 2z"/></svg>