<svg id="Layer_1" viewBox="0 0 24 24" xmlns="http://www.w3.org/2000/svg" data-name="Layer 1"><path d="m22.971 10.108c-.007-.232-.172-.429-.4-.476-.893-.182-2.229-.422-3.655-.583-.19-3.882-.638-6.816-.644-6.853-.031-.199-.18-.361-.376-.408-.132-.032-3.266-.788-5.896-.788s-5.764.756-5.896.788c-.194.047-.342.206-.375.403-.006.035-.479 2.908-.66 6.86-1.421.162-2.751.4-3.641.582-.228.047-.393.243-.4.476-.018.615-.029 1.247-.029 1.892 0 5.229.699 9.781.706 9.827.036.237.249.415.489.416.607.107 4.499.757 9.805.757 5.218 0 9.068-.628 9.771-.751.252.018.486-.171.522-.422.007-.046.706-4.599.706-9.827 0-.645-.011-1.276-.029-1.892zm-20.971 1.892c0-.497.006-.985.018-1.465.809-.158 1.878-.339 3.013-.474-.019.631-.031 1.283-.031 1.951 0 4.32.462 8.255.65 9.677-1.451-.144-2.502-.301-3.008-.384-.162-1.175-.641-5.007-.641-9.305zm4.671 9.781c-.156-1.141-.671-5.238-.671-9.769 0-4.466.501-8.222.665-9.326.865-.191 3.299-.686 5.335-.686s4.464.493 5.332.685c.161 1.156.668 5.156.668 9.648s-.509 8.356-.668 9.448c-1.496.123-3.307.219-5.332.219s-3.834-.096-5.329-.219zm14.688-.476c-.505.083-1.555.239-3.003.383.191-1.37.645-5.072.645-9.355 0-.777-.016-1.537-.042-2.273 1.139.135 2.212.317 3.024.475.012.479.018.968.018 1.465 0 4.298-.479 8.13-.641 9.305zm-8.859-13.305v1.5c0 .276-.224.5-.5.5s-.5-.224-.5-.5v-1.5h-1.5c-.276 0-.5-.224-.5-.5s.224-.5.5-.5h1.5v-1.5c0-.276.224-.5.5-.5s.5.224.5.5v1.5h1.5c.276 0 .5.224.5.5s-.224.5-.5.5zm-2 4.5c0 .276-.224.5-.5.5h-1c-.276 0-.5-.224-.5-.5s.224-.5.5-.5h1c.276 0 .5.224.5.5zm0 3c0 .276-.224.5-.5.5h-1c-.276 0-.5-.224-.5-.5s.224-.5.5-.5h1c.276 0 .5.224.5.5zm0 3c0 .276-.224.5-.5.5h-1c-.276 0-.5-.224-.5-.5s.224-.5.5-.5h1c.276 0 .5.224.5.5zm5-6c0 .276-.224.5-.5.5h-1c-.276 0-.5-.224-.5-.5s.224-.5.5-.5h1c.276 0 .5.224.5.5zm0 3c0 .276-.224.5-.5.5h-1c-.276 0-.5-.224-.5-.5s.224-.5.5-.5h1c.276 0 .5.224.5.5zm0 3c0 .276-.224.5-.5.5h-1c-.276 0-.5-.224-.5-.5s.224-.5.5-.5h1c.276 0 .5.224.5.5z"/></svg>