<svg id="Layer_1" viewBox="0 0 24 24" xmlns="http://www.w3.org/2000/svg" data-name="Layer 1"><path d="m16.436 6.379c.022.092.564 2.298.564 5.621s-.542 5.529-.564 5.621c-.066.27-.345.43-.606.364-.268-.067-.431-.339-.364-.606.006-.02.472-1.965.525-4.866-.636-.152-2.317-.513-3.99-.513s-3.348.328-3.991.469c.049 2.934.521 4.889.525 4.909.067.268-.096.539-.364.606-.261.066-.54-.094-.606-.364-.023-.092-.565-2.298-.565-5.621s.542-5.529.565-5.621c.067-.269.334-.43.606-.364.268.067.431.339.364.606-.005.02-.468 1.947-.524 4.825.795-.166 2.375-.446 3.989-.446s3.19.304 3.99.486c-.053-2.909-.519-4.844-.525-4.865-.066-.268.097-.539.364-.606.271-.065.539.096.606.364zm6.564 5.621c0 7.813-3.187 11-11 11s-11-3.187-11-11 3.187-11 11-11 11 3.187 11 11zm-1 0c0-7.196-2.804-10-10-10s-10 2.804-10 10 2.804 10 10 10 10-2.804 10-10z"/></svg>