<svg id="Layer_1" viewBox="0 0 24 24" xmlns="http://www.w3.org/2000/svg" data-name="Layer 1"><path d="m11.5 18.5c0 .276-.224.5-.5.5h-1c-.276 0-.5-.224-.5-.5s.224-.5.5-.5h1c.276 0 .5.224.5.5zm-.5-3.5h-1c-.276 0-.5.224-.5.5s.224.5.5.5h1c.276 0 .5-.224.5-.5s-.224-.5-.5-.5zm-.5-7.5c0-.276-.224-.5-.5-.5h-1.5v-1.5c0-.276-.224-.5-.5-.5s-.5.224-.5.5v1.5h-1.5c-.276 0-.5.224-.5.5s.224.5.5.5h1.5v1.5c0 .276.224.5.5.5s.5-.224.5-.5v-1.5h1.5c.276 0 .5-.224.5-.5zm-4.5 10.5h-1c-.276 0-.5.224-.5.5s.224.5.5.5h1c.276 0 .5-.224.5-.5s-.224-.5-.5-.5zm0-6h-1c-.276 0-.5.224-.5.5s.224.5.5.5h1c.276 0 .5-.224.5-.5s-.224-.5-.5-.5zm0 3h-1c-.276 0-.5.224-.5.5s.224.5.5.5h1c.276 0 .5-.224.5-.5s-.224-.5-.5-.5zm17-1c0 4.19-.583 7.986-.589 8.024-.033.215-.203.384-.419.417-.148.022-3.727.559-9.992.559-5.924 0-9.164-.478-9.868-.564-.219-.031-.394-.196-.426-.415-.008-.047-.706-4.794-.706-10.021s.699-9.781.706-9.827c.031-.202.184-.364.383-.41.136-.031 3.363-.763 5.911-.763s5.775.731 5.911.763c.199.046.352.208.383.41.004.023.19 1.241.371 3.131.718-.132 1.891-.304 3.102-.304 2.142 0 4.185.537 4.271.56.191.051.334.21.365.405.006.038.598 3.845.598 8.035zm-9-2c0-4.334-.487-8.195-.646-9.334-.89-.186-3.382-.666-5.354-.666s-4.465.48-5.354.665c-.158 1.14-.646 5.001-.646 9.335 0 4.301.479 8.271.642 9.491 1.037.138 4.301.509 9.358.509.463 0 .91-.003 1.344-.009.125-.979.656-5.42.656-9.991zm8 2c0-3.404-.397-6.55-.538-7.55-.642-.146-2.162-.45-3.695-.45-1.188 0-2.345.179-3.013.304.135 1.629.246 3.608.246 5.696 0 4.43-.492 8.736-.646 9.974 3.746-.087 6.23-.359 7.121-.472.143-1.04.524-4.142.524-7.502zm-2.5-3.5h-1v-1c0-.276-.224-.5-.5-.5s-.5.224-.5.5v1h-1c-.276 0-.5.224-.5.5s.224.5.5.5h1v1c0 .276.224.5.5.5s.5-.224.5-.5v-1h1c.276 0 .5-.224.5-.5s-.224-.5-.5-.5zm-1 4.5h-1c-.276 0-.5.224-.5.5s.224.5.5.5h1c.276 0 .5-.224.5-.5s-.224-.5-.5-.5zm0 3h-1c-.276 0-.5.224-.5.5s.224.5.5.5h1c.276 0 .5-.224.5-.5s-.224-.5-.5-.5zm-7.5-6h-1c-.276 0-.5.224-.5.5s.224.5.5.5h1c.276 0 .5-.224.5-.5s-.224-.5-.5-.5z"/></svg>