<svg id="Layer_1" viewBox="0 0 24 24" xmlns="http://www.w3.org/2000/svg" data-name="Layer 1"><path d="m22 10.5c.117 0 .234-.041.329-.124.208-.182.229-.498.048-.706-.374-.427-.532-1.169-.137-1.623.462-.527.76-1.331.76-2.048 0-.276-.224-.5-.5-.5s-.5.224-.5.5c0 .474-.211 1.045-.513 1.39-.682.78-.622 2.071.136 2.939.1.113.238.171.377.171z"/><path d="m17.623 10.329c.1.113.238.171.377.171.117 0 .234-.041.329-.124.208-.182.229-.498.048-.706-.432-.493-.675-1.235-.335-1.623.496-.568.758-1.212.758-1.864 0-.887-.707-1.766-.923-2.014-.185-.208-.5-.229-.706-.047-.208.182-.229.498-.048.706.405.463.677 1.008.677 1.355 0 .412-.172.817-.511 1.206-.733.838-.387 2.113.334 2.939z"/><path d="m22.5 12.5h-9.776c-.002-.005-.004-.01-.007-.016l-.768-1.536c-.778-1.556-2.257-2.448-4.058-2.448h-.5c-2.5 0-4.588 1.738-4.867 4h-1.024c-.276 0-.5.224-.5.5 0 5.005.978 8.491 1.019 8.637.05.174.189.308.365.349.174.042 4.324 1.014 9.616 1.014 5.338 0 9.444-.973 9.617-1.014.175-.042.313-.175.363-.349.042-.146 1.02-3.621 1.02-8.638 0-.276-.224-.5-.5-.5zm-5 1v8.161c-.892.108-1.904.204-3 .267v-8.428zm-10.109-4h.5c1.429 0 2.552.673 3.164 1.896l.552 1.104h-8.073c.277-1.705 1.91-3 3.857-3zm2.109 4v8.427c-1.093-.063-2.106-.16-3-.268v-8.159zm-7.497 0h3.497v8.027c-1.241-.177-2.154-.357-2.593-.449-.219-.887-.851-3.765-.903-7.578zm8.497 8.473v-8.473h3v8.474c-.488.017-.989.026-1.5.026s-1.012-.01-1.5-.027zm10.593-.895c-.437.093-1.349.274-2.593.451v-8.029h3.497c-.053 3.821-.686 6.693-.904 7.578z"/><path d="m7 7c1.654 0 3-1.346 3-3s-1.346-3-3-3-3 1.346-3 3 1.346 3 3 3zm0-5c1.103 0 2 .897 2 2s-.897 2-2 2-2-.897-2-2 .897-2 2-2z"/></svg>