<?xml version="1.0" encoding="UTF-8"?>
<svg xmlns="http://www.w3.org/2000/svg" id="Layer_1" data-name="Layer 1" viewBox="0 0 24 24">
  <path d="M22.94,10.639c.171-.856-.021-1.725-.539-2.447-1.07-1.492-3.241-1.9-4.842-.91-1.517,.938-3.491,1.455-5.559,1.455s-4.042-.517-5.56-1.454c-1.601-.992-3.772-.583-4.842,.91-.519,.722-.71,1.591-.539,2.447,.177,.886,.716,1.647,1.518,2.143,.063,.039,.126,.076,.19,.114-1.469,1.556-1.453,4.043,.047,5.578,2.646,2.71,6.128,3.076,9.186,3.076s6.539-.365,9.185-3.075c1.501-1.535,1.516-4.022,.048-5.578,.063-.038,.127-.076,.19-.115,.802-.496,1.34-1.257,1.518-2.143Zm-2.47,7.137c-2.387,2.444-5.621,2.774-8.47,2.774s-6.083-.33-8.47-2.774c-1.14-1.166-1.14-3.063,0-4.23,.584-.599,1.225-.808,1.834-.808,.975,0,1.871,.535,2.33,.865,.718,.516,2.521,1.069,4.315,1.102,1.775-.033,3.578-.586,4.296-1.102,.746-.536,2.644-1.615,4.164-.057,0,0,0,0,0,0,1.14,1.166,1.14,3.063,0,4.23Zm.426-5.844c-.151,.093-.481,.285-.491,.292-1.344-.808-3.032-.621-4.683,.566-.506,.364-2.084,.884-3.712,.915-1.646-.03-3.225-.55-3.731-.915-1.651-1.186-3.337-1.374-4.68-.568-.167-.094-.332-.19-.494-.29-.563-.348-.941-.877-1.063-1.488-.116-.581,.016-1.173,.371-1.668,.77-1.074,2.341-1.363,3.503-.643,1.674,1.034,3.835,1.604,6.086,1.604s4.412-.57,6.085-1.604c1.163-.72,2.733-.432,3.503,.642,.355,.495,.487,1.087,.371,1.668-.122,.611-.5,1.14-1.063,1.488Z"/>
  <path d="M12,4.806c.276,0,.5-.224,.5-.5v-1.355c0-.276-.224-.5-.5-.5s-.5,.224-.5,.5v1.355c0,.276,.224,.5,.5,.5Z"/>
  <path d="M16.66,5.398c.276,0,.5-.224,.5-.5v-1.355c0-.276-.224-.5-.5-.5s-.5,.224-.5,.5v1.355c0,.276,.224,.5,.5,.5Z"/>
  <path d="M7.34,5.398c.276,0,.5-.224,.5-.5v-1.355c0-.276-.224-.5-.5-.5s-.5,.224-.5,.5v1.355c0,.276,.224,.5,.5,.5Z"/>
</svg>
