<svg id="Layer_1" viewBox="0 0 24 24" xmlns="http://www.w3.org/2000/svg" data-name="Layer 1"><path d="m15.358 12c1.788-1.342 3.527-3.277 4.625-7.371.029-.11.021-.226-.025-.331-.059-.134-1.522-3.299-7.958-3.299s-7.899 3.165-7.958 3.299c-.045.104-.054.221-.025.331 1.098 4.093 2.837 6.029 4.625 7.371-1.787 1.34-3.526 3.274-4.625 7.371-.029.11-.021.226.025.331.059.134 1.522 3.299 7.958 3.299s7.899-3.165 7.958-3.299c.045-.104.054-.221.025-.331-1.099-4.096-2.838-6.031-4.625-7.371zm-3.358 10c-4.972 0-6.611-2.02-6.963-2.566 1.136-4.079 2.951-5.787 4.747-7.021.136-.093.217-.248.217-.412s-.081-.318-.216-.412c-1.797-1.236-3.613-2.946-4.748-7.025.344-.552 1.944-2.562 6.964-2.562 4.972 0 6.611 2.02 6.963 2.566-1.135 4.077-2.951 5.786-4.747 7.021-.135.094-.216.248-.216.412s.081.319.217.412c1.796 1.235 3.611 2.943 4.748 7.025-.344.552-1.944 2.562-6.964 2.562zm4.56-16.512c.089-.233-.007-.497-.226-.617-.72-.397-2.057-.871-4.334-.871-2.2 0-3.567.455-4.328.836-.229.115-.334.385-.243.625.991 2.601 2.32 3.676 3.488 4.479.347.239.851.502.851.502.146.076.317.076.463 0 0 0 .504-.264.852-.503 1.163-.801 2.487-1.871 3.477-4.453zm-4.044 3.629c-.162.112-.363.229-.516.314-.153-.085-.354-.203-.516-.314-1.02-.702-2.083-1.56-2.943-3.573.712-.279 1.82-.544 3.458-.544 1.686 0 2.775.271 3.454.555-.859 2.006-1.92 2.861-2.938 3.562z"/></svg>