<svg id="Layer_1" viewBox="0 0 24 24" xmlns="http://www.w3.org/2000/svg" data-name="Layer 1"><path d="m21.457 6.504c-.034-.061-.08-.113-.136-.155-.065-.048-.174-.13-.321-.238v-3.611c0-.276-.224-.5-.5-.5s-.5.224-.5.5v2.888c-2.195-1.564-6.382-4.388-8-4.388-2.11 0-8.589 4.802-9.321 5.35-.056.042-.102.094-.136.155-.063.112-1.543 2.801-1.543 8.121 0 3.194 1.031 6.326 1.075 6.458.046.135.146.245.277.301.154.066 3.836 1.616 9.647 1.616s9.493-1.55 9.647-1.616c.131-.056.231-.166.277-.301.044-.132 1.075-3.264 1.075-6.458 0-5.32-1.479-8.008-1.543-8.121zm-.413 14.043c-.845.318-4.198 1.453-9.044 1.453s-8.197-1.135-9.045-1.453c-.229-.758-.955-3.355-.955-5.922 0-4.517 1.129-7.054 1.37-7.543 2.677-1.994 7.306-5.082 8.63-5.082s5.953 3.087 8.63 5.082c.241.489 1.37 3.026 1.37 7.543 0 2.562-.726 5.164-.956 5.922z"/></svg>