<svg id="Layer_1" viewBox="0 0 24 24" xmlns="http://www.w3.org/2000/svg" data-name="Layer 1"><path d="m13.607 16.527c-1.356.297-2.861.452-4.601.473-3.725-.044-5.649-.706-6.921-1.144-.198-.062-.311-.247-.348-.442-.298-1.055-.706-2.5-.736-4.532.034-3.457.748-5.06 1.091-5.83.028-.062.068-.119.119-.166.607-.554 4.986-3.887 6.79-3.887 1.133 0 3.227 1.286 4.785 2.364.227.157.284.469.126.696s-.469.283-.696.126c-1.947-1.349-3.562-2.186-4.215-2.186-1.2 0-4.987 2.637-6.04 3.557-.328.744-.93 2.228-.96 5.323.027 1.798.379 3.128.657 4.116 1.265.431 3.019.965 6.349 1.004 1.659-.02 3.098-.167 4.387-.449.268-.059.536.111.595.381s-.111.536-.381.595zm2.393-13.518v-.018c.022-1.257.75-1.982 1.996-1.99 1.235.008 1.981.751 2.003 1.99-.024 1.293-.733 2-1.997 2.007-1.27-.007-1.979-.714-2.002-1.989zm1-.009c.016.714.297.995 1.002.999.711-.004.983-.277.997-1.008-.012-.684-.312-.985-1.003-.989-.699.004-.98.285-.996.999zm-.852 14.024c-.259-.086-.545.054-.633.315-.957 2.852-2.419 4.843-2.434 4.863-.165.222-.118.535.104.699.219.164.534.12.699-.103.063-.085 1.569-2.131 2.579-5.141.088-.262-.053-.545-.315-.633zm-7.31-7.481c.007.03.162.745.162 1.457s-.155 1.427-.162 1.457c-.042.191-.19.34-.381.381-.03.007-.745.162-1.457.162s-1.427-.155-1.457-.162c-.191-.042-.34-.19-.381-.381-.007-.03-.162-.745-.162-1.457s.155-1.427.162-1.457c.042-.191.19-.34.381-.381.03-.007.745-.162 1.457-.162s1.427.155 1.457.162c.191.042.34.19.381.381zm-.838 1.457c0-.334-.042-.679-.08-.92-.482-.075-1.357-.075-1.84 0-.038.241-.08.586-.08.92s.042.679.08.92c.482.075 1.357.075 1.84 0 .038-.241.08-.586.08-.92zm14.999 11.469c.017.275-.192.513-.467.53-.272.018-.514-.191-.531-.467-.002-.028-.189-2.756-1.41-5.2-.82-.589-2.128-1.129-3.702-1.527-1.123-.284-1.906-1.282-1.906-2.427v-5.672c-.396.279-.754.64-1.078 1.087-.601.831-.905 2.078-.905 3.707 0 .276-.224.5-.5.5s-.5-.224-.5-.5c0-1.87.358-3.274 1.095-4.293 1.118-1.546 2.694-2.289 4.54-2.2 1.329.068 2.369 1.167 2.369 2.504v.369c.521.997 1.668 2.577 2.743 3.185.24.136.325.441.189.681-.136.242-.445.324-.681.189-.823-.465-1.627-1.345-2.25-2.195v5.113c.459.221.903.462 1.281.748.06.045.109.104.143.17 1.366 2.661 1.563 5.574 1.571 5.697zm-3.996-13.958c0-.803-.623-1.464-1.418-1.505-.55-.03-1.119.043-1.602.204v6.167c0 .687.474 1.286 1.151 1.458.556.141 1.212.34 1.869.586z"/></svg>