<?xml version="1.0" encoding="UTF-8"?>
<svg xmlns="http://www.w3.org/2000/svg" id="Layer_1" data-name="Layer 1" viewBox="0 0 24 24">
  <path d="M22.5,20.914c-.854,0-1.653-.369-2.252-1.038-.191-.212-.555-.212-.746,0-1.197,1.338-3.307,1.338-4.504,0-.191-.212-.555-.212-.746,0-1.197,1.338-3.31,1.338-4.504,0-.189-.213-.557-.213-.746,0-1.195,1.337-3.307,1.338-4.504,0-.191-.212-.555-.212-.746,0-.599,.669-1.398,1.038-2.252,1.038-.276,0-.5,.224-.5,.5s.224,.5,.5,.5c.972,0,1.887-.352,2.625-1.001,1.477,1.298,3.775,1.297,5.25,0,1.475,1.297,3.773,1.297,5.25,0,1.477,1.298,3.773,1.298,5.25,0,.738,.649,1.653,1.001,2.625,1.001,.276,0,.5-.224,.5-.5s-.224-.5-.5-.5Z"/>
  <path d="M4.565,17.649c.272-.044,.457-.301,.413-.573-.233-1.449-.352-2.918-.352-4.367,0-3.274,.633-5.099,.811-5.548,2.718-1.947,5.968-4.038,6.559-4.075,.594,.041,3.846,2.131,6.567,4.076,.178,.442,.81,2.247,.81,5.546,0,1.436-.119,2.905-.354,4.367-.043,.272,.143,.529,.415,.573,.026,.004,.054,.006,.08,.006,.241,0,.453-.175,.493-.421,.243-1.514,.366-3.037,.366-4.525,0-4.083-.917-6.011-.956-6.091-.036-.074-.091-.139-.158-.187-.276-.198-.68-.485-1.155-.816V3.388c0-.276-.224-.5-.5-.5s-.5,.224-.5,.5v1.539c-1.922-1.304-4.347-2.84-5.104-2.84-1.129,0-5.842,3.325-7.26,4.345-.068,.049-.123,.114-.159,.19-.039,.082-.954,2.04-.954,6.088,0,1.502,.123,3.025,.365,4.526,.043,.272,.296,.456,.573,.414Z"/>
  <path d="M14.49,17.655c.276,0,.5-.224,.5-.5v-2.497c0-1.652-1.342-2.997-2.99-2.997s-2.99,1.344-2.99,2.997v2.497c0,.276,.224,.5,.5,.5s.5-.224,.5-.5v-2.497c0-1.101,.893-1.997,1.99-1.997s1.99,.896,1.99,1.997v2.497c0,.276,.224,.5,.5,.5Z"/>
</svg>
