<svg id="Layer_1" viewBox="0 0 24 24" xmlns="http://www.w3.org/2000/svg" data-name="Layer 1"><path d="m22 1.5c0-.276-.224-.5-.5-.5s-.5.224-.5.5v1.5h-2v-1.5c0-.276-.224-.5-.5-.5s-.5.224-.5.5v1.5h-2v-1.5c0-.276-.224-.5-.5-.5s-.5.224-.5.5v1.5h-2v-1.5c0-.276-.224-.5-.5-.5s-.5.224-.5.5v4.2c0 1.081.359 2.081.96 2.676.005.005.01.009.015.014-.048.389-.112.929-.175 1.56-.028.275.172.52.447.548.017.001.033.002.051.002.253 0 .471-.192.496-.45.043-.422.085-.802.123-1.123.18.048.368.072.563.072h5.015c.205.005.401-.021.588-.076.153 1.307.39 3.664.39 5.701 0 3.109-.354 6.027-.479 6.964-.52.142-1.739.411-3.493.411-.276 0-.5.224-.5.5s.224.5.5.5c2.559 0 4.053-.532 4.115-.555.172-.062.296-.214.323-.395.006-.036.534-3.587.534-7.425 0-2.285-.279-4.885-.453-6.282.597-.611.98-1.642.98-2.643zm-1 4.2c0 .752-.287 1.541-.713 1.962-.234.231-.484.326-.787.337h-5c-.008-.001-.014 0-.021 0-.32 0-.587-.11-.815-.335-.402-.398-.663-1.169-.663-1.964v-1.7h8v1.7z"/><path d="m10.441 14.347c-.008-.002-.742-.222-1.608-.222-.826 0-1.526.198-1.604.221-.331.098-.586.358-.678.683-.002.007-.218.732-.218 1.696 0 .911.191 1.608.215 1.688.098.335.352.594.682.692.077.022.777.221 1.604.221.866 0 1.601-.22 1.604-.221.329-.098.584-.356.684-.698.035-.126.212-.799.212-1.681 0-.897-.183-1.575-.214-1.685-.096-.337-.352-.597-.678-.693zm-.289 3.798c-.007.002-.614.18-1.319.18-.698 0-1.297-.173-1.325-.19-.007-.025-.175-.622-.175-1.41s.171-1.396.178-1.419c.025-.007.624-.181 1.322-.181.707 0 1.312.178 1.318.179 0 0 .004.003.007.011 0 .001.002.007.002.009.002.006.173.606.173 1.401 0 .78-.167 1.385-.181 1.42z"/><path d="m14.573 12.649c-.729-.542-4.431-3.249-5.74-3.249s-5.011 2.706-5.74 3.249c-.056.042-.102.094-.137.155-.039.069-.956 1.727-.956 4.971 0 1.949.633 3.859.66 3.939.045.135.146.245.277.301.095.04 2.351.985 5.896.985s5.802-.945 5.896-.985c.131-.056.232-.166.277-.301.027-.081.66-1.99.66-3.939 0-3.245-.919-4.903-.958-4.972-.034-.061-.08-.113-.136-.154zm-.446 8.525c-.618.221-2.562.826-5.294.826s-4.675-.604-5.293-.825c-.159-.541-.54-1.982-.54-3.4 0-2.561.616-4.038.784-4.394 1.998-1.478 4.406-2.981 5.049-2.981s3.052 1.503 5.049 2.981c.17.359.785 1.835.785 4.394 0 1.417-.381 2.859-.54 3.399z"/></svg>