<svg id="Layer_1" viewBox="0 0 24 24" xmlns="http://www.w3.org/2000/svg" data-name="Layer 1"><path d="m9.398 14.435c-.077-.021-.771-.209-1.598-.209s-1.521.188-1.599.209c-.331.093-.587.345-.685.668-.002.007-.217.7-.217 1.622 0 .935.216 1.619.216 1.619.099.327.355.578.686.672.077.021.771.209 1.598.209s1.521-.188 1.599-.209c.331-.093.587-.345.685-.668.002-.007.217-.7.217-1.622 0-.882-.192-1.541-.216-1.619-.099-.327-.355-.578-.686-.672zm-.271 3.618c-.006.002-.622.172-1.328.172s-1.322-.17-1.329-.176c-.001-.006-.171-.568-.171-1.324 0-.75.17-1.319.172-1.328.006-.002.622-.172 1.328-.172.701 0 1.313.168 1.328.172v.003c.001.006.171.568.171 1.324 0 .75-.17 1.319-.172 1.328z"/><path d="m22.265 2.607c-.031-.154-.134-.285-.276-.352-.109-.051-2.71-1.255-5.788-1.255s-5.678 1.204-5.787 1.255c-.145.067-.248.2-.279.355-.004.021-.427 2.173-.632 4.342-.026.275.176.519.451.544.275.032.519-.175.544-.451.159-1.683.454-3.359.569-3.985.682-.281 2.79-1.062 5.133-1.062s4.451.78 5.133 1.062c.159.9.667 4.15.667 8.938 0 4.445-.521 8.006-.675 8.955-.618.283-2.499 1.045-4.825 1.045-.276 0-.5.224-.5.5s.224.5.5.5c3.089 0 5.412-1.215 5.51-1.267.136-.072.23-.202.258-.352.007-.041.732-4.103.732-9.381 0-5.76-.705-9.247-.735-9.393z"/><path d="m13.513 12.649c-.726-.542-4.41-3.25-5.713-3.25s-4.987 2.707-5.712 3.25c-.056.042-.102.094-.136.155-.039.069-.952 1.727-.952 4.971 0 1.949.629 3.858.656 3.938.045.135.146.245.277.301.094.041 2.34.985 5.867.985s5.773-.945 5.867-.985c.131-.056.231-.166.277-.301.026-.081.655-1.99.655-3.938 0-3.244-.912-4.901-.951-4.97-.034-.061-.08-.114-.136-.155zm-.449 8.526c-.617.221-2.548.825-5.264.825s-4.647-.604-5.264-.825c-.158-.54-.536-1.979-.536-3.4 0-2.562.613-4.039.781-4.395 1.986-1.477 4.38-2.98 5.019-2.98s3.033 1.503 5.019 2.98c.169.36.781 1.836.781 4.395 0 1.417-.378 2.86-.536 3.4z"/><path d="m14.5 5.5h-1.5c-.276 0-.5.224-.5.5s.224.5.5.5h1.5c.276 0 .5-.224.5-.5s-.224-.5-.5-.5z"/><path d="m18 6.5h1.5c.276 0 .5-.224.5-.5s-.224-.5-.5-.5h-1.5c-.276 0-.5.224-.5.5s.224.5.5.5z"/><path d="m18 10.5h1.5c.276 0 .5-.224.5-.5s-.224-.5-.5-.5h-1.5c-.276 0-.5.224-.5.5s.224.5.5.5z"/><path d="m18 14.5h1.5c.276 0 .5-.224.5-.5s-.224-.5-.5-.5h-1.5c-.276 0-.5.224-.5.5s.224.5.5.5z"/><path d="m18 18.5h1.5c.276 0 .5-.224.5-.5s-.224-.5-.5-.5h-1.5c-.276 0-.5.224-.5.5s.224.5.5.5z"/></svg>