<svg id="Layer_1" viewBox="0 0 24 24" xmlns="http://www.w3.org/2000/svg" data-name="Layer 1"><path d="m21.021 7.146c-.023-.067-.061-.129-.11-.181-.291-.305-.596-.602-.911-.895v-2.55c0-.276-.224-.5-.5-.5s-.5.224-.5.5v1.674c-1.908-1.581-4.182-2.972-6.794-4.15-.131-.059-.28-.059-.411 0-3.549 1.599-6.478 3.591-8.706 5.921-.049.052-.087.113-.11.181-.04.113-.979 2.842-.979 7.218 0 4.338.515 7.067.537 7.182.035.179.165.325.338.382.137.043 3.412 1.073 9.125 1.073s8.988-1.03 9.125-1.073c.175-.057.305-.203.339-.382.021-.114.536-2.844.536-7.182 0-4.376-.938-7.104-.979-7.218zm-9.021 14.854c-1.973 0-3.634-.131-4.984-.297.083-3.392 1.453-4.683 4.984-4.683s4.9 1.291 4.984 4.683c-1.35.166-3.011.297-4.984.297zm8.532-.944c-.417.112-1.3.32-2.559.512-.134-3.866-1.93-5.549-5.974-5.549s-5.84 1.682-5.974 5.549c-1.258-.193-2.141-.401-2.559-.512-.131-.819-.468-3.264-.468-6.692 0-3.741.727-6.27.89-6.789 2.085-2.157 4.813-4.015 8.11-5.525 3.298 1.511 6.025 3.369 8.11 5.525.162.52.89 3.048.89 6.789 0 3.429-.337 5.873-.468 6.692zm-8.474-14.036c-2.42 0-3.5 1.079-3.5 3.5s1.08 3.5 3.5 3.5 3.5-1.079 3.5-3.5-1.079-3.5-3.5-3.5zm0 6c-1.869 0-2.5-.631-2.5-2.5s.631-2.5 2.5-2.5 2.5.631 2.5 2.5-.631 2.5-2.5 2.5z"/></svg>