<svg id="Layer_1" viewBox="0 0 24 24" xmlns="http://www.w3.org/2000/svg" data-name="Layer 1"><path d="m21.47 6.529c-.035-.07-.086-.132-.149-.179-.065-.048-.174-.13-.321-.238v-3.612c0-.276-.224-.5-.5-.5s-.5.224-.5.5v2.888c-2.194-1.564-6.382-4.388-8-4.388-2.11 0-8.589 4.802-9.321 5.35-.063.047-.114.109-.149.179-.062.127-1.53 3.166-1.53 8.471 0 2.21.482 7.33.502 7.547.024.257.24.453.498.453h7c.229 0 .429-.156.485-.379l1-4c.038-.149.004-.308-.091-.429-.095-.122-.24-.192-.394-.192h-2.5c.047-1.686.612-7.204 5.899-8.383l-.893 5.807c-.022.145.02.291.115.402s.233.174.379.174h3.381l-1.37 6.395c-.032.148.005.302.1.419s.238.186.389.186h6.5c.258 0 .474-.196.498-.453.021-.217.502-5.346.502-7.547 0-5.306-1.468-8.344-1.53-8.471zm.074 15.471h-5.425l1.37-6.395c.032-.148-.005-.302-.1-.419s-.238-.186-.389-.186h-3.417l.911-5.924c.024-.157-.027-.315-.139-.428s-.267-.167-.426-.144c-7.708 1.101-7.433 9.927-7.429 10.016.011.268.231.479.5.479h2.359l-.75 3h-6.153c-.12-1.325-.456-5.212-.456-7 0-4.525 1.133-7.362 1.38-7.926 2.678-1.995 7.297-5.074 8.62-5.074s5.941 3.08 8.62 5.074c.247.564 1.38 3.401 1.38 7.926 0 1.781-.336 5.673-.456 7z"/></svg>