<svg id="Layer_1" viewBox="0 0 24 24" xmlns="http://www.w3.org/2000/svg" data-name="Layer 1"><path d="m22.05 12.552c-.028-.063-.069-.12-.12-.167-.529-.482-4.351-3.385-5.93-3.385s-5.401 2.903-5.929 3.386c-.051.046-.092.103-.12.166-.299.672-.921 2.07-.951 5.081.027 1.771.382 3.028.666 4.036.044.158.164.284.319.337 1.106.381 2.778.956 6.021.995 3.23-.039 4.903-.614 6.01-.995.193-.062.309-.242.346-.435.259-.917.612-2.172.639-3.95-.029-2.992-.651-4.394-.95-5.068zm-.608 8.593c-1.089.37-2.6.822-5.437.855-2.848-.034-4.36-.486-5.448-.855-.238-.849-.534-1.987-.558-3.515.026-2.649.537-3.928.821-4.573.921-.801 4.158-3.057 5.179-3.057s4.258 2.255 5.18 3.056c.284.647.794 1.93.82 4.562-.023 1.54-.32 2.678-.558 3.527zm-14.509-6.118c-.139.241-.449.319-.684.182-.159-.092-.303-.198-.444-.307l-1.461 1.461c-.195.195-.512.195-.707 0s-.195-.512 0-.707l1.465-1.465c-.671-.871-1.023-2.082-1.083-3.692h-2.519c-.276 0-.5-.224-.5-.5s.224-.5.5-.5h2.529c.061-1.588.414-2.801 1.088-3.676l-1.481-1.481c-.195-.195-.195-.512 0-.707s.512-.195.707 0l1.481 1.481c.875-.674 2.088-1.027 3.676-1.088v-2.528c0-.276.224-.5.5-.5s.5.224.5.5v2.52c1.601.061 2.823.407 3.696 1.077l1.461-1.461c.195-.195.512-.195.707 0s.195.512 0 .707l-1.468 1.468c.218.282.413.588.564.94.108.254-.01.548-.263.656-.254.111-.547-.008-.657-.263-.635-1.483-2.035-2.144-4.54-2.144-3.645 0-5 1.355-5 5 0 2.301.54 3.641 1.751 4.344.239.139.32.445.182.684zm10.496.132c-.029-.006-.73-.159-1.429-.159s-1.399.152-1.429.159c-.19.042-.339.19-.381.381-.007.029-.159.73-.159 1.429s.152 1.4.159 1.429c.042.19.19.339.381.381.029.006.73.159 1.429.159s1.399-.152 1.429-.159c.19-.042.339-.19.381-.381.007-.029.159-.73.159-1.429s-.152-1.399-.159-1.429c-.042-.19-.19-.339-.381-.381zm-.537 2.701c-.471.073-1.312.073-1.783 0-.036-.235-.077-.568-.077-.892s.041-.656.077-.891c.471-.073 1.312-.073 1.783 0 .036.235.077.568.077.891s-.041.656-.077.892z"/></svg>