<?xml version="1.0" encoding="UTF-8"?>
<svg xmlns="http://www.w3.org/2000/svg" id="Layer_1" data-name="Layer 1" viewBox="0 0 24 24">
  <path d="M21.754,19.494c-.276,0-.5,.224-.5,.5,0,.533-.374,.986-.909,1.1-1.023,.218-2.627,.51-4.603,.703v-3.326c1.117-.108,2.232-.255,3.345-.443l1.178-.198c.24-.041,.417-.249,.417-.493v-3.529c0-1.869-1.285-3.481-3.125-3.922l-4.874-1.167V1.5c0-.276-.224-.5-.5-.5h-.894c-3.179,0-6.379,.706-9.254,2.043-.176,.082-.289,.259-.289,.453v13.84c0,.239,.17,.445,.405,.491,1.501,.289,3.008,.506,4.519,.65v3.199c-1.409-.191-2.849-.476-4.287-.884-.271-.075-.543,.079-.618,.345s.079,.542,.345,.618c3.289,.933,6.585,1.243,9.515,1.243,3.943,0,7.223-.562,8.93-.926,1.001-.213,1.7-1.067,1.7-2.078,0-.276-.224-.5-.5-.5ZM2.746,3.817c2.669-1.189,5.615-1.817,8.543-1.817h.394v3.672h-2.262c-.276,0-.5,.224-.5,.5s.224,.5,.5,.5h2.262v2.209l-1.532,1.51c-.197,.194-.199,.511-.006,.707,.098,.1,.228,.149,.356,.149,.127,0,.254-.048,.351-.144l1.466-1.445,2.139,.512v1.95c0,.276,.224,.5,.5,.5s.5-.224,.5-.5v-1.711l1.867,.447c1.388,.332,2.357,1.545,2.357,2.949v3.106l-.761,.128c-5.375,.905-10.814,.866-16.175-.12V3.817ZM7.67,21.797v-3.235c1.165,.086,2.332,.13,3.5,.13,1.191,0,2.382-.045,3.572-.135v3.326c-2.089,.156-4.515,.184-7.072-.086Z"/>
</svg>
