<?xml version="1.0" encoding="UTF-8"?>
<svg xmlns="http://www.w3.org/2000/svg" id="Layer_1" data-name="Layer 1" viewBox="0 0 24 24">
  <path d="M19.508,10.68c-.015-.004-.031-.008-.046-.012,.177-.529,.264-1.151,.264-1.888,0-3.378-1.946-4.036-3.627-4.127-.195-3.267-2.422-3.652-4.099-3.652s-3.904,.385-4.099,3.652c-1.681,.091-3.628,.749-3.628,4.127,0,.734,.089,1.356,.272,1.886-.018,.005-.036,.01-.054,.014-.26,.072-.416,.338-.352,.6,1.76,7.234,7.326,11.445,7.562,11.621,.088,.066,.193,.099,.298,.099s.21-.033,.298-.099c.236-.176,5.802-4.387,7.562-11.621,.064-.262-.092-.528-.352-.6Zm-.782-1.901c0,.654-.08,1.204-.237,1.639-1.951-.464-3.939-.716-5.93-.756-.039-.268-.059-.563-.059-.883,0-2.614,1.191-3.14,3.113-3.14s3.113,.525,3.113,3.14ZM12,2c1.799,0,2.953,.452,3.098,2.653-1.15,.067-2.416,.404-3.098,1.695-.681-1.292-1.948-1.629-3.097-1.695,.145-2.2,1.298-2.653,3.097-2.653Zm-6.727,6.779c0-2.614,1.191-3.14,3.113-3.14s3.113,.525,3.113,3.14c0,.318-.019,.614-.057,.883-1.99,.04-3.976,.291-5.925,.754-.162-.437-.245-.986-.245-1.637Zm6.727,13.08c-1.139-.951-5.217-4.669-6.767-10.343,4.438-1.147,9.096-1.147,13.533,0-1.549,5.673-5.627,9.392-6.767,10.343Z"/>
</svg>
