<svg id="Layer_1" viewBox="0 0 24 24" xmlns="http://www.w3.org/2000/svg" data-name="Layer 1"><path d="m22.595 2.115c-1.718-.335-6.19-1.115-10.595-1.115s-8.878.781-10.595 1.115c-.24.047-.411.261-.404.505.145 5.252.75 9.15 2.025 13.036.116.404.72.464.908.092.615-1.073 1.295-2.734 1.822-4.374.394 3.553 1.131 7.806 2.269 11.281.128.439.793.456.942.023 1.486-3.889 2.449-8.19 3.133-11.879.521 1.811 1.253 4.04 2.141 5.914.163.376.706.353.896.016.817-1.587 1.606-3.617 2.212-5.655.382 2.36 1.046 5.481 2.182 8.596.151.446.834.424.95-.032 1.644-5.704 2.539-11.753 2.519-17.034 0-.238-.17-.443-.404-.489zm-2.646 15.683c-1.204-3.795-1.735-7.407-1.952-9.353-.048-.546-.884-.602-.985-.052-.508 2.32-1.362 4.878-2.3 6.923-1.046-2.482-1.829-5.341-2.227-6.936-.116-.512-.905-.485-.978.037-.621 3.642-1.509 8.25-2.965 12.5-1.162-4.129-1.814-9.018-2.043-12.449-.023-.57-.895-.625-.99-.062-.333 1.732-1.114 4.074-1.895 5.77-.967-3.31-1.456-6.743-1.601-11.158 1.921-.359 5.987-1.018 9.987-1.018s8.084.661 10 1.02c-.025 4.607-.746 9.784-2.051 14.778z"/></svg>