<svg id="Layer_1" viewBox="0 0 24 24" xmlns="http://www.w3.org/2000/svg" data-name="Layer 1"><path d="m12 2c-7.505 0-11 3.813-11 12 0 3.085 1.007 6.608 2.246 7.853.094.094.222.147.354.147h4.4c.276 0 .5-.224.5-.5v-1c0-5.597 1.032-6.5 3.5-6.5 2.583 0 3.5.982 3.5 6.5v1c0 .276.224.5.5.5h4.4c.133 0 .261-.053.354-.147 1.238-1.245 2.246-4.767 2.246-7.853 0-8.187-3.495-12-11-12zm4 7.5h5.523c.32 1.293.477 2.79.477 4.5 0 .166-.003.333-.009.5h-5.991zm5.229-1h-8.729v-5.493c4.645.115 7.473 1.856 8.729 5.493zm-9.729-5.493v5.493h-8.729c1.257-3.637 4.084-5.378 8.729-5.493zm-9.5 10.993c0-1.71.156-3.207.477-4.5h5.523v5h-5.991c-.006-.167-.009-.334-.009-.5zm5.5 6.5v.5h-3.678c-.735-.896-1.502-3.113-1.744-5.5h5.981c-.434 1.223-.559 2.891-.559 5zm4.5-7.5c-1.361 0-2.324.324-3 .967v-4.467h6v4.467c-.676-.643-1.639-.967-3-.967zm8.178 8h-3.678v-.5c0-2.109-.125-3.777-.559-5h5.981c-.242 2.387-1.009 4.604-1.744 5.5z"/></svg>