<?xml version="1.0" encoding="UTF-8"?>
<svg xmlns="http://www.w3.org/2000/svg" id="Layer_1" data-name="Layer 1" viewBox="0 0 24 24">
  <path d="M22.5,11.097h-5.021c-.259,0-.475,.198-.498,.456-.119,1.338-.352,2.375-.47,2.839-.669,.163-2.49,.553-4.511,.553s-3.844-.391-4.511-.553c-.118-.462-.351-1.495-.47-2.839-.023-.258-.239-.456-.498-.456H1.5c-.276,0-.5,.224-.5,.5,0,5.365,1.18,9.296,1.23,9.461,.049,.163,.178,.289,.342,.335,.178,.05,4.412,1.23,9.428,1.23s9.25-1.18,9.428-1.229c.164-.046,.293-.173,.343-.337,.05-.167,1.229-4.139,1.229-9.459,0-.276-.224-.5-.5-.5Zm-1.613,9.404c-1.01,.256-4.726,1.122-8.887,1.122s-7.881-.865-8.888-1.122c-.25-.927-1.048-4.2-1.108-8.404H6.068c.188,1.694,.521,2.803,.536,2.853,.05,.163,.179,.29,.343,.335,.095,.027,2.366,.66,5.053,.66s4.958-.633,5.053-.66c.164-.046,.293-.173,.343-.337,.016-.051,.348-1.166,.535-2.852h4.065c-.061,4.167-.859,7.469-1.109,8.404Z"/>
  <path d="M11.825,10.803c.166,.06,.294,.021,.351,0,.089-.034,2.206-.855,3.796-3.939,.126-.245,.03-.547-.215-.673-.245-.128-.546-.03-.673,.215-.873,1.692-1.916,2.616-2.583,3.074V1.877c0-.276-.224-.5-.5-.5s-.5,.224-.5,.5v7.603c-.667-.458-1.71-1.382-2.583-3.074-.127-.247-.429-.343-.673-.215-.246,.126-.342,.428-.215,.673,1.59,3.084,3.706,3.906,3.796,3.939Z"/>
</svg>
