<svg id="Layer_1" viewBox="0 0 24 24" xmlns="http://www.w3.org/2000/svg" data-name="Layer 1"><path d="m17.985 22.621c-.066.268-.337.43-.606.364.027-.006-2.369-.54-5.379-.536-2.999-.006-5.437.534-5.379.536-.261.068-.541-.094-.606-.364-.066-.268.097-.539.364-.606.087-.022 2.087-.504 5.123-.555l.054-11.906c0-2.624-.931-3.554-3.557-3.554-.276 0-.5-.224-.5-.5s.224-.5.5-.5c3.194 0 4.557 1.363 4.557 4.557l-.054 11.903c3.034.051 5.032.533 5.119.555.268.067.431.338.364.606zm-7.985-20.121c0-.953.547-1.5 1.5-1.5s1.5.547 1.5 1.5-.547 1.5-1.5 1.5-1.5-.547-1.5-1.5zm1 0c0 .397.103.5.5.5s.5-.103.5-.5-.103-.5-.5-.5-.5.103-.5.5z"/></svg>