<svg id="Layer_1" viewBox="0 0 24 24" xmlns="http://www.w3.org/2000/svg" data-name="Layer 1"><path d="m22.189 5.35c-.05-.159-.176-.282-.336-.329-.142-.042-3.554-1.021-9.853-1.021s-9.711.979-9.853 1.021c-.16.047-.286.17-.336.329-.033.105-.811 2.62-.811 6.65s.778 6.545.811 6.65c.05.159.176.282.336.329.142.042 3.554 1.021 9.853 1.021s9.711-.979 9.853-1.021c.16-.047.286-.17.336-.329.033-.105.811-2.62.811-6.65s-.778-6.545-.811-6.65zm-.881 12.739c-.909.223-4.136.911-9.308.911s-8.399-.688-9.308-.911c-.191-.73-.692-2.945-.692-6.089s.501-5.358.692-6.089c.909-.223 4.136-.911 9.308-.911s8.399.688 9.308.911c.191.73.692 2.945.692 6.089s-.501 5.358-.692 6.089zm-13.496-9.98c.119.095.188.238.188.391v7c0 .276-.224.5-.5.5s-.5-.224-.5-.5v-6.287c-.421.228-.854.64-1.011 1.39-.057.27-.325.447-.591.387-.271-.057-.444-.321-.387-.592.366-1.752 1.786-2.252 2.379-2.386.15-.031.303.003.422.098z"/></svg>