<svg id="Layer_1" viewBox="0 0 24 24" xmlns="http://www.w3.org/2000/svg" data-name="Layer 1"><path d="m22.998 10.5c0 2.274-.345 3.786-1.189 5.215-.141.24-.451.316-.685.177-.238-.141-.317-.447-.177-.685.746-1.264 1.051-2.627 1.051-4.708 0-6.117-2.383-8.5-8.5-8.5-4.014 0-5.898.851-7.754 3.502-1.849 2.642-2.95 4.962-3.641 7.657.404.108 1.071.257 1.945.344.255.025.45.24.45.497 0 1.931.31 3.572.435 4.154.482.217 1.809.741 3.595.847.264.016.47.234.47.499v1.67c.646.255 2.399.83 5 .83 3.321 0 5.258-.938 5.277-.947.249-.125.549-.021.67.225.123.247.022.547-.224.67-.086.043-2.147 1.053-5.724 1.053s-5.638-1.01-5.724-1.053c-.169-.085-.276-.258-.276-.447v-1.538c-2.224-.22-3.672-.987-3.737-1.022-.124-.066-.214-.183-.248-.319-.02-.079-.458-1.856-.51-4.175-1.337-.174-2.14-.463-2.177-.477-.229-.098-.359-.339-.315-.584.713-3.027 1.883-5.556 3.914-8.457s4.274-3.928 8.574-3.928c6.659 0 9.5 2.841 9.5 9.5zm-2.147 7.608c.195.195.195.512 0 .707s-.512.195-.707 0l-3.733-3.733c-.804.587-1.915.88-3.413.88-3.505 0-5-1.495-5-5s1.495-5 5-5 5 1.495 5 5c0 1.499-.293 2.609-.88 3.413zm-7.853-3.146c2.953 0 4-1.047 4-4s-1.047-4-4-4-4 1.047-4 4 1.047 4 4 4z"/></svg>