<svg id="Layer_1" viewBox="0 0 24 24" xmlns="http://www.w3.org/2000/svg" data-name="Layer 1"><path d="m23 19.5c0 .276-.224.5-.5.5h-4.333c-1.991 1.492-4.047 3-6.167 3-2.05 0-4.479-1.82-5.704-3h-4.796c-.276 0-.5-.224-.5-.5s.224-.5.5-.5h5c.133 0 .26.053.354.146 1.147 1.147 3.464 2.854 5.146 2.854 1.601 0 3.303-1.124 4.975-2.359-2.512-1.093-4.068-2.708-4.185-2.89-.904.652-1.888 1.108-2.72 1.227-.563.086-1.129-.075-1.526-.481-.575-.575-.708-1.476-.323-2.191.056-.09.953-1.494 2.195-2.736.14-.14.3-.272.468-.4-.309-.108-.61-.17-.883-.17-.921 0-2.265.448-3.688.923-.09.029-.216.082-.312.077h-4.501c-.276 0-.5-.224-.5-.5s.224-.5.5-.5l4.496-.025c1.502-.501 2.92-.975 4.004-.975.61 0 1.27.193 1.922.542.697-.333 1.446-.542 2.078-.542 1.094-.003 2.579.498 4.081 1h4.419c.276 0 .5.224.5.5s-.224.5-.5.5h-4.5c-.096.005-.222-.049-.312-.077-1.423-.475-2.767-.923-3.688-.923-.882 0-2.173.573-2.877 1.276-1.165 1.166-2.031 2.521-2.04 2.534-.159.298-.097.714.168.979.178.178.385.238.679.198.959-.136 2.252-.876 3.217-1.841.195-.195.512-.195.707 0s.195.512 0 .707c-.096.096-.198.187-.299.278.002.003.006.003.008.006.019.02 1.881 1.982 4.528 2.862h4.409c.276 0 .5.224.5.5zm-20.516-12.27c-.02-.061-.484-1.502-.484-2.782 0-1.134.369-2.332.482-2.672.054-.161.189-.294.354-.336.177-.045 1.781-.44 3.664-.44s3.487.395 3.664.44c.166.042.298.167.352.33.115.347.484 1.545.484 2.679 0 2.337-.927 4.253-1.235 4.462-.083.043-.182.064-.292.064-.538 0-1.347-.481-1.958-1.051-.299.03-.792.077-1.015.077-1.883 0-3.487-.395-3.664-.44-.166-.042-.299-.167-.352-.33zm.516-2.782c0 .811.232 1.755.357 2.206.532.115 1.77.346 3.143.346.281 0 1.14-.095 1.143-.096.152-.017.306.038.413.149.463.478.913.737 1.19.86.269-.553.754-1.839.754-3.465 0-.793-.222-1.661-.352-2.102-.529-.115-1.771-.347-3.148-.347s-2.619.232-3.148.347c-.132.449-.352 1.312-.352 2.102zm11.288 4.494c-.36-.241-1.288-2.157-1.288-4.494 0-1.134.369-2.332.482-2.672.054-.161.189-.294.354-.336.177-.045 1.781-.44 3.664-.44s3.487.395 3.664.44c.166.042.298.167.352.33.115.347.484 1.545.484 2.679 0 1.28-.465 2.722-.484 2.782-.053.163-.186.288-.352.33-.177.045-1.781.44-3.664.44-.223 0-.716-.046-1.015-.077-.622.581-1.447 1.07-1.954 1.07-.093 0-.175-.016-.243-.051zm-.288-4.494c0 1.626.486 2.912.754 3.465.277-.123.727-.383 1.19-.86.107-.111.261-.169.413-.149.003 0 .862.096 1.143.096 1.374 0 2.611-.23 3.143-.346.125-.451.357-1.396.357-2.206 0-.793-.222-1.661-.352-2.102-.529-.115-1.771-.347-3.148-.347s-2.619.232-3.148.347c-.132.449-.352 1.312-.352 2.102z"/></svg>