<svg id="Layer_1" viewBox="0 0 24 24" xmlns="http://www.w3.org/2000/svg" data-name="Layer 1"><path d="m10.5 22.5c0 .276-.224.5-.5.5-4.025 0-7.38-.974-7.521-1.016-.147-.043-.267-.152-.323-.296-.047-.119-1.155-2.989-1.155-8.688s1.108-8.569 1.155-8.688c.058-.145.179-.255.329-.297.062-.018 1.49-.417 3.799-.692.426-1.582 1.617-2.322 3.717-2.322s3.291.74 3.718 2.322c2.308.275 3.735.674 3.798.692.15.042.271.152.329.297.033.084.823 2.121 1.078 6.157.018.276-.192.513-.468.531-.302.013-.513-.193-.53-.467-.196-3.106-.727-4.992-.93-5.62-.53-.131-1.877-.433-3.741-.636-.219-.024-.397-.189-.438-.406-.206-1.122-.765-1.87-2.816-1.87s-2.609.747-2.815 1.869c-.04.217-.218.383-.438.407-1.865.204-3.212.505-3.742.636-.252.779-1.005 3.495-1.005 8.088 0 4.62.755 7.322 1.006 8.092.838.22 3.722.908 6.994.908.276 0 .5.224.5.5zm12.5-4.5c0 2.294-.552 4.235-.575 4.317-.055.19-.218.331-.415.357-.102.013-2.5.325-4.51.325s-4.408-.312-4.51-.325c-.197-.026-.36-.167-.415-.357-.023-.082-.575-2.023-.575-4.317s.552-4.235.575-4.317c.055-.19.218-.331.415-.357.102-.013 2.5-.325 4.51-.325s4.408.312 4.51.325c.197.026.36.167.415.357.023.082.575 2.023.575 4.317zm-1 0c0-1.628-.305-3.1-.455-3.724-.731-.086-2.53-.276-4.045-.276s-3.313.19-4.045.276c-.15.624-.455 2.096-.455 3.724s.305 3.1.455 3.724c.731.086 2.53.276 4.045.276s3.313-.19 4.045-.276c.15-.624.455-2.096.455-3.724zm-3.5-2h-2c-.276 0-.5.224-.5.5s.224.5.5.5h2c.276 0 .5-.224.5-.5s-.224-.5-.5-.5zm-8.514-8.883c-.211-.177-.526-.149-.705.062-.829.991-1.764 1.895-2.781 2.691-.542-.424-1.062-.88-1.549-1.358-.198-.194-.515-.19-.707.007-.194.197-.19.514.006.707.608.597 1.265 1.16 1.95 1.674.089.067.194.1.3.1s.211-.033.3-.1c1.195-.896 2.288-1.932 3.249-3.079.177-.211.149-.527-.062-.704zm-.705 5.062c-.829.991-1.764 1.895-2.781 2.691-.541-.424-1.062-.88-1.55-1.358-.196-.191-.513-.19-.707.008-.193.197-.189.514.008.707.608.597 1.265 1.159 1.949 1.674.089.066.194.1.3.1s.211-.033.3-.1c1.195-.896 2.288-1.933 3.249-3.08.177-.211.149-.527-.062-.704s-.526-.149-.705.062zm5.719-2.679c0-.276-.224-.5-.5-.5h-3c-.276 0-.5.224-.5.5s.224.5.5.5h3c.276 0 .5-.224.5-.5z"/></svg>