<svg id="Layer_1" viewBox="0 0 24 24" xmlns="http://www.w3.org/2000/svg" data-name="Layer 1"><path d="m18 18.008c.995 0 1.5-.505 1.5-1.5s-.505-1.5-1.5-1.5-1.5.505-1.5 1.5.505 1.5 1.5 1.5zm0-2c.439 0 .5.061.5.5s-.061.5-.5.5-.5-.061-.5-.5.061-.5.5-.5zm0-3.008c-3.505 0-5 1.495-5 5s1.495 5 5 5 5-1.495 5-5-1.495-5-5-5zm0 1c2.953 0 4 1.047 4 4 0 1.125-.155 1.97-.506 2.589-.776-1.392-2.321-1.582-3.494-1.582s-2.717.191-3.493 1.582c-.352-.619-.507-1.464-.507-2.59 0-2.953 1.047-4 4-4zm-2.764 7.364c.27-.735.875-1.356 2.764-1.356s2.494.622 2.763 1.356c-.632.435-1.52.636-2.763.636s-2.132-.201-2.764-.636zm-3.236-13.364c5.497 0 9.164.912 9.765 1.072.088.755.162 1.574.201 2.45.012.276.223.5.521.477.276-.013.489-.246.477-.522-.182-4.018-1.005-6.937-1.04-7.059-.047-.166-.176-.295-.341-.343-.074-.022-.989-.281-2.584-.54v-2.035c0-.276-.224-.5-.5-.5s-.5.224-.5.5v1.889c-1.565-.211-3.591-.389-6-.389s-4.435.178-6 .389v-1.889c0-.276-.224-.5-.5-.5s-.5.224-.5.5v2.036c-1.595.259-2.51.518-2.584.54-.165.048-.294.177-.341.343-.044.153-1.075 3.816-1.075 8.582s1.031 8.428 1.075 8.582c.047.166.176.295.341.343.144.042 3.561 1.015 9.079 1.073.275.003.502-.218.505-.495.003-.276-.219-.502-.495-.505-4.509-.047-7.635-.737-8.54-.963-.234-.93-.965-4.139-.965-8.035 0-1.429.099-2.762.235-3.928.603-.161 4.27-1.072 9.765-1.072zm-9.035-3.035c.938-.234 4.259-.965 9.035-.965s8.097.731 9.035.965c.121.479.373 1.571.589 3.039-1.247-.301-4.686-1.004-9.624-1.004s-8.376.703-9.623 1.004c.216-1.47.468-2.56.588-3.039z"/></svg>