<svg id="Layer_1" viewBox="0 0 24 24" xmlns="http://www.w3.org/2000/svg" data-name="Layer 1"><path d="m12 18c2.234 0 3.708-.433 4.638-1.362.195-.195.512-.195.707 0s.195.512 0 .707c-1.13 1.129-2.828 1.655-5.345 1.655s-4.215-.526-5.345-1.655c-.195-.195-.195-.512 0-.707s.512-.195.707 0c.93.929 2.403 1.362 4.638 1.362zm3-6c0 2.075-.925 3-3 3s-3-.925-3-3 .925-3 3-3 3 .925 3 3zm-1 0c0-1.514-.486-2-2-2s-2 .486-2 2 .486 2 2 2 2-.486 2-2zm-9.709-7.709c1.563-1.563 4.013-2.291 7.709-2.291s6.146.728 7.709 2.291c.195.195.512.195.707 0s.195-.512 0-.707c-1.763-1.763-4.438-2.584-8.416-2.584s-6.653.821-8.416 2.584c-.195.195-.195.512 0 .707s.512.195.707 0zm16.095 4.971c-.067-.027-.69-.262-1.886-.262s-1.818.235-1.886.262c-.255.102-.378.39-.278.646.101.256.391.383.646.285.004-.002.358-.122 1.019-.17v4.477c0 .276.224.5.5.5s.5-.224.5-.5v-4.477c.661.047 1.014.168 1.015.168.25.101.547-.019.649-.279.103-.256-.021-.547-.278-.65zm-3.395-1.753c.128 0 .256-.049.354-.146.195-.195.195-.512 0-.707-1.13-1.129-2.828-1.655-5.345-1.655s-4.215.526-5.345 1.655c-.195.195-.195.512 0 .707s.512.195.707 0c.93-.929 2.403-1.362 4.638-1.362s3.708.433 4.638 1.362c.098.098.226.146.354.146zm2.718 12.2c-1.563 1.563-4.013 2.291-7.709 2.291s-6.146-.728-7.709-2.291c-.195-.195-.512-.195-.707 0s-.195.512 0 .707c1.763 1.763 4.438 2.584 8.416 2.584s6.653-.821 8.416-2.584c.195-.195.195-.512 0-.707s-.512-.195-.707 0zm-14.209-10.209v5c0 .276.224.5.5.5s.5-.224.5-.5v-5c0-.276-.224-.5-.5-.5s-.5.224-.5.5z"/></svg>