<svg id="Layer_1" viewBox="0 0 24 24" xmlns="http://www.w3.org/2000/svg" data-name="Layer 1"><path d="m18.441 1.295c-2.454-.773-5.668.187-6.442.443-.776-.254-3.987-1.209-6.441-.436-4.722 1.486-4.018 5.479-4.01 5.519.033.174.156.317.323.377.106.038 1.707.598 3.654.605-1.268 3.703 1.679 5.601 1.71 5.62.081.051.173.076.265.076.072 0 .145-.016.212-.047.108-.051 1.993-.952 3.383-2.781.186 1.019.405 2.365.405 3.415 0 3.94-2.981 6.979-3.012 7.01-.004.004-.008.008-.011.013-3.981.257-5.997.881-6.101.914-.263.083-.409.364-.326.627.083.262.362.407.627.326.031-.01 3.178-.977 9.323-.977s9.292.967 9.323.977c.05.016.101.023.15.023.212 0 .41-.137.477-.35.083-.263-.062-.544-.326-.627-.083-.026-1.362-.422-3.865-.714-.012-.965-.12-4.776-1.065-8.387-.723-2.758-2.035-5.188-3.083-6.834.332.315.711.606 1.145.848 1.177.657 2.488.865 3.675.865 1.966 0 3.592-.571 3.699-.609.167-.06.289-.203.322-.377.008-.04.712-4.034-4.011-5.521zm-12.583.96c1.911-.603 4.497.035 5.524.34-.272.816-1.02 2.571-2.627 3.469-2.287 1.278-5.317.559-6.258.284-.047-.806.127-3.074 3.36-4.093zm1.686 10.157c-.587-.483-2.038-2.014-.929-4.666.882-.1 1.789-.34 2.628-.809.964-.538 1.661-1.315 2.157-2.076.187.88.276 2.006-.046 3.136-.712 2.501-3.032 3.979-3.81 4.415zm9.213 8.793c-1.316-.121-2.901-.205-4.757-.205-.758 0-1.471.014-2.138.039.967-1.219 2.638-3.783 2.638-6.952 0-1.378-.338-3.161-.54-4.228l-.082-.438s-.002-.006-.002-.009c.175-.356.325-.737.44-1.142.191-.67.258-1.335.251-1.958 1.029 1.568 2.419 4.039 3.159 6.864.872 3.329 1.009 6.942 1.031 8.029zm4.742-14.862c-.942.276-3.963 1.001-6.255-.28-1.601-.894-2.353-2.652-2.627-3.471 1.026-.305 3.611-.944 5.524-.345 3.212 1.012 3.398 3.29 3.358 4.096z"/></svg>