<svg id="Layer_1" viewBox="0 0 24 24" xmlns="http://www.w3.org/2000/svg" data-name="Layer 1"><path d="m22.854 22.146-4.974-4.974c1.387-1.595 2.12-3.834 2.12-6.673 0-6.126-3.374-9.5-9.5-9.5s-9.5 3.375-9.5 9.501 3.374 9.5 9.5 9.5c2.839 0 5.078-.733 6.673-2.12l4.974 4.974c.195.195.512.195.707 0s.195-.512 0-.707zm-12.354-3.146c-5.561 0-8.5-2.939-8.5-8.5s2.939-8.5 8.5-8.5 8.5 2.939 8.5 8.5-2.939 8.5-8.5 8.5zm.75-4c0 .414-.336.75-.75.75s-.75-.336-.75-.75.336-.75.75-.75.75.336.75.75zm2.25-6c.03.999-.255 2.459-1.744 2.849-.513.155-.756.292-.756.651 0 .276-.224.5-.5.5s-.5-.224-.5-.5c0-1.164 1.065-1.487 1.466-1.608.597-.189 1.013-.458 1.034-1.892 0-1.514-.486-2-2-2s-2 .486-2 2c0 .276-.224.5-.5.5s-.5-.224-.5-.5c0-2.075.925-3 3-3s3 .925 3 3z"/></svg>