<svg id="Layer_1" viewBox="0 0 24 24" xmlns="http://www.w3.org/2000/svg" data-name="Layer 1"><path d="m17 16c-.006 1.601-.276 3.773-2.459 4.584-.004.667-.019 1.301-.041 1.934-.01.276-.232.49-.518.482-.276-.01-.492-.242-.482-.518.026-.735.042-1.474.043-2.264 0-.225.15-.421.367-.481 1.457-.402 2.082-1.52 2.09-3.739 0-1.8-.413-2.855-1.339-3.423-.077.72-.138 1.663-.17 1.98-.146 1.467-.627 2.444-2.491 2.444-1.632 0-2.354-.711-2.493-2.455-.03-.306-.084-1.253-.121-1.945-.969.533-1.386 1.592-1.386 3.4.006 2.212.631 3.331 2.088 3.739.216.061.365.257.365.48 0 .789.021 1.533.046 2.263.01.276-.206.508-.482.518h-.018c-.268 0-.49-.213-.499-.482-.022-.628-.04-1.267-.045-1.934-2.183-.818-2.451-2.986-2.456-4.583 0-2.169.583-3.532 1.833-4.29.306-.185.678-.194.999-.025.327.173.533.494.553.86.037.676.088 1.602.119 1.911.1 1.256.379 1.543 1.497 1.543 1.091 0 1.371-.289 1.497-1.544.03-.312.089-1.235.131-1.91.021-.365.23-.685.558-.855.32-.166.695-.155.998.032 1.239.759 1.816 2.118 1.816 4.277zm6-5c0 4.235-1.021 8.391-1.064 8.565-.041.165-.164.299-.326.353-.042.015-1.038.344-3.008.637-.267.043-.529-.146-.567-.421-.041-.272.147-.527.421-.567 1.311-.195 2.173-.408 2.574-.52.227-.999.971-4.546.971-8.047 0-1.018-.064-2.038-.159-3h-19.683c-.095.962-.159 1.982-.159 3 0 3.496.742 7.039.969 8.043.415.11 1.301.323 2.604.519.273.04.461.295.421.568s-.295.465-.568.42c-1.943-.29-2.983-.615-3.027-.629-.166-.052-.293-.187-.335-.355-.043-.175-1.064-4.33-1.064-8.565s1.021-8.392 1.065-8.566c.042-.165.165-.299.327-.353.132-.045 3.3-1.082 9.609-1.082s9.477 1.037 9.609 1.082c.162.054.285.187.326.353.043.175 1.064 4.33 1.064 8.565zm-1.27-4c-.236-1.898-.563-3.441-.701-4.047-.87-.238-3.903-.953-9.029-.953s-8.159.715-9.03.953c-.137.606-.464 2.149-.7 4.047zm-17.23-3.25c-.415 0-.75.335-.75.75s.335.75.75.75.75-.335.75-.75-.335-.75-.75-.75zm3 0c-.415 0-.75.335-.75.75s.335.75.75.75.75-.335.75-.75-.335-.75-.75-.75z"/></svg>