<svg id="Layer_1" viewBox="0 0 24 24" xmlns="http://www.w3.org/2000/svg" data-name="Layer 1"><path d="m16.702 1.379c-.067-.268-.341-.429-.605-.365-.268.066-.432.337-.365.605.015.06 1.482 6.104 1.241 15.081-.018.675-.134 2.969-.881 4.116-.584.896-1.595 1.184-4.163 1.184-2.595 0-3.56-.275-4.129-1.177-.655-1.039-.799-3.318-.8-4.109 0-.276-.224-.5-.5-.5s-.5.224-.5.5c0 .128.011 3.146.954 4.642.876 1.39 2.363 1.644 4.975 1.644 2.551 0 4.104-.261 5-1.638.866-1.329 1.018-3.684 1.043-4.635.245-9.122-1.255-15.287-1.271-15.348z"/></svg>