<?xml version="1.0" encoding="UTF-8"?>
<svg xmlns="http://www.w3.org/2000/svg" id="Layer_1" data-name="Layer 1" viewBox="0 0 24 24">
  <path d="M21.333,9.626c-.011-1.461-.879-2.796-2.194-3.422V3.608c0-.121-.044-.238-.124-.329-.082-.094-2.054-2.279-6.995-2.279h-.027c-4.935,.008-6.935,2.183-7.018,2.275-.082,.092-.127,.21-.127,.333v2.578c-1.333,.633-2.199,1.992-2.188,3.489l.008,1.189c0,.172,.09,.33,.235,.421,.358,.224,.746,.382,1.147,.476v5.146c0,3.006,2.151,5.524,5.115,5.989,.437,.068,1.632,.102,2.827,.102s2.393-.033,2.828-.102c2.964-.465,5.115-2.983,5.115-5.989v-5.131c.406-.094,.801-.255,1.17-.485,.147-.093,.236-.254,.235-.428l-.008-1.238Zm-6.667,12.283c-.774,.121-4.57,.121-5.347,0-2.474-.388-4.27-2.491-4.27-5.001v-5.046c.668-.02,1.332-.211,1.916-.575,.913-.568,2.092-.568,3.005,0,1.233,.771,2.827,.77,4.066-.003,.91-.567,2.09-.567,3.012,.007,.584,.363,1.233,.557,1.887,.581v5.035c0,2.51-1.796,4.613-4.27,5.001Zm2.9-11.474c-.616-.383-1.321-.575-2.027-.575s-1.417,.193-2.036,.58c-.912,.569-2.091,.569-3.005,0-1.234-.771-2.827-.771-4.062,0-.837,.521-1.899,.562-2.771,.13l-.006-.9c-.009-1.197,.742-2.276,1.867-2.684,1.356-.49,3.527-1.084,6.168-1.127,.105-.002,1.185-.012,1.185-.012,.266-.002,.481-.219,.481-.485v-.02c0-.267-.215-.483-.481-.485,0,0-1.098,0-1.202,.003-2.383,.039-4.402,.504-5.83,.962v-1.998c.483-.426,2.356-1.816,6.146-1.822h.025c3.795,0,5.647,1.397,6.119,1.819v2.716c0,.21,.131,.397,.327,.47,1.108,.406,1.859,1.463,1.867,2.628l.006,.943c-.878,.437-1.914,.394-2.772-.141Z"/>
</svg>
