<svg id="Layer_1" viewBox="0 0 24 24" xmlns="http://www.w3.org/2000/svg" data-name="Layer 1"><path d="m15.104 1.765c-.126-.031-3.127-.765-5.604-.765s-5.478.733-5.604.765c-.204.05-.355.223-.377.431-.002.015-.053.497-.124 1.304h-1.395c-.276 0-.5.224-.5.5s.224.5.5.5h1.313c-.065.842-.135 1.865-.192 3h-1.371c-.276 0-.5.224-.5.5s.224.5.5.5h1.326c-.039.959-.066 1.972-.073 3h-1.503c-.276 0-.5.224-.5.5s.224.5.5.5h1.503c.007 1.028.034 2.041.073 3h-1.326c-.276 0-.5.224-.5.5s.224.5.5.5h1.371c.057 1.135.127 2.158.192 3h-1.313c-.276 0-.5.224-.5.5s.224.5.5.5h1.395c.07.807.122 1.289.124 1.304.022.208.173.381.377.431.126.031 3.127.765 5.604.765s5.478-.733 5.604-.765c.204-.05.355-.223.377-.431.005-.048.519-4.834.519-9.804s-.513-9.756-.519-9.804c-.022-.208-.173-.381-.377-.431zm-.581 19.578c-.852.19-3.139.657-5.023.657s-4.171-.467-5.023-.657c-.117-1.188-.477-5.203-.477-9.343s.36-8.155.477-9.343c.852-.19 3.139-.657 5.023-.657s4.171.467 5.023.657c.117 1.188.477 5.203.477 9.343s-.36 8.155-.477 9.343zm-2.523-13.843c0 .276-.224.5-.5.5h-4c-.276 0-.5-.224-.5-.5s.224-.5.5-.5h4c.276 0 .5.224.5.5zm10.71-5.605c-.01-.185-.122-.349-.29-.426-.042-.02-1.029-.469-1.92-.469-.902 0-1.843.477-1.882.498-.157.081-.26.238-.271.414-.003.056-.347 5.625-.347 10.089 0 4.916.303 8.496.316 8.646.008.096.044.189.104.265.748.961 1.687 1.903 1.727 1.942.094.094.221.146.354.146s.26-.053.354-.146c.04-.04.979-.981 1.727-1.942.06-.076.095-.169.104-.265.013-.15.316-3.73.316-8.646 0-4.957-.287-10.055-.29-10.105zm-1.01 18.518c-.416.521-.886 1.036-1.2 1.367-.313-.331-.784-.845-1.2-1.367-.058-.731-.3-4.033-.3-8.413 0-3.84.256-8.511.327-9.727.302-.123.769-.273 1.173-.273.432 0 .929.155 1.229.267.062 1.185.271 5.511.271 9.733 0 4.38-.242 7.682-.3 8.413z"/></svg>