<svg id="Layer_1" viewBox="0 0 24 24" xmlns="http://www.w3.org/2000/svg" data-name="Layer 1"><path d="m23 17c0 2.08-.93 3-3 3h-9.5c-.28 0-.5-.22-.5-.5s.22-.5.5-.5h9.5c1.51 0 2-.49 2-2s-.49-2-2-2h-8s0 0 0 0c-1.05 0-1.77-.23-2.27-.73s-.73-1.22-.73-2.27c0-2.08.93-3 3-3h.5c.28 0 .5.22.5.5s-.22.5-.5.5h-.5c-1.51 0-2 .49-2 2s.49 2 2 2h8c2.08 0 3 .93 3 3zm-8.54-11.37c-.41-.36-.55-.88-.41-1.34.14-.47.55-.81 1.04-.87.57-.07 1.08-.13 1.57-.17.22-.52.46-1.04.72-1.55.23-.45.68-.73 1.15-.69.4-.04.85.23 1.08.68.26.52.5 1.04.72 1.56.49.04 1 .1 1.57.17.48.06.89.4 1.03.87s0 .98-.36 1.3c-.39.35-.74.66-1.08.96.16.58.29 1.16.4 1.72.09.46-.09.93-.46 1.22s-.87.35-1.3.15c-.58-.27-1.12-.55-1.64-.85-.52.31-1.06.59-1.64.86-.42.2-.92.14-1.29-.15s-.55-.76-.46-1.22c.11-.57.24-1.14.4-1.72-.34-.3-.69-.6-1.04-.92zm.62-.79c.48.42.89.79 1.31 1.15.15.13.21.33.16.52-.19.65-.34 1.3-.46 1.94-.04.19.17.36.35.27.64-.3 1.23-.61 1.8-.96.16-.1.36-.1.52 0 .57.35 1.16.66 1.8.96.18.09.39-.08.35-.27-.12-.64-.28-1.29-.46-1.94-.05-.19 0-.39.16-.52.42-.36.84-.73 1.27-1.11.21-.17.14-.43-.09-.47-.67-.09-1.26-.15-1.82-.19-.19-.01-.35-.13-.42-.31-.24-.58-.52-1.18-.81-1.77-.09-.21-.38-.16-.45 0-.3.59-.57 1.18-.81 1.77-.07.17-.24.29-.42.31-.56.04-1.15.11-1.82.19-.21.02-.29.3-.13.43zm-12.58 10.67v-.02c.03-1.6.92-2.48 2.5-2.49 1.57.01 2.48.92 2.5 2.49-.03 1.61-.92 2.5-2.5 2.51-1.59 0-2.47-.89-2.5-2.49zm1-.01c.02 1.05.47 1.49 1.5 1.5 1.04 0 1.48-.44 1.5-1.51-.02-1-.5-1.48-1.5-1.49-1.03 0-1.48.46-1.5 1.5zm1.5 3.5c-2.37.02-3.74 1.21-3.97 3.45-.03.27.17.52.45.55s.52-.17.55-.45c.17-1.73 1.12-2.54 2.97-2.55 1.83.01 2.8.85 2.98 2.55.03.28.28.48.55.45s.47-.27.45-.55c-.23-2.21-1.63-3.43-3.97-3.45z"/></svg>