<svg id="Layer_1" viewBox="0 0 24 24" xmlns="http://www.w3.org/2000/svg" data-name="Layer 1"><path d="m17.494 15.018c-.936-1.63-2.375-3.003-3.637-4.068.815-.597 2.372-1.874 3.331-3.544 1.535-2.673 1.702-4.99 1.708-5.087.018-.275-.19-.513-.466-.531-.27-.014-.513.189-.532.465-.001.021-.165 2.194-1.577 4.655-1.031 1.796-2.92 3.155-3.414 3.49-.497-.006-2.017-.026-2.438.003-2.819.191-4.591.64-5.461.915.079-6.062 1.182-9.627 1.194-9.664.083-.263-.062-.544-.325-.628-.261-.082-.544.062-.628.325-.051.16-1.249 3.997-1.249 10.647 0 8.375 1.237 10.658 1.29 10.75.091.162.369.367.675.189.237-.137.327-.436.198-.677-.012-.022-1.123-2.196-1.159-9.889.595-.21 2.393-.759 5.533-.971.337-.024 1.619-.011 2.295-.002 1.279 1.051 2.842 2.457 3.795 4.119 2.129 3.708 2.372 6.984 2.374 7.017.018.264.244.491.532.465.275-.025.484-.256.466-.531-.009-.142-.253-3.528-2.505-7.449z"/></svg>