<svg id="Layer_1" viewBox="0 0 24 24" xmlns="http://www.w3.org/2000/svg" data-name="Layer 1"><path d="m22.91 3.988c-.386-.55-.831-1.078-1.322-1.569-.494-.495-1.026-.942-1.58-1.329-.159-.11-.368-.119-.535-.023-.69.396-3.238 1.925-7.055 4.958-.144-.005-.268-.024-.417-.024-4.049 0-5.845 1.687-5.975 5.564-3.426 3.241-4.865 5.136-4.925 5.215-.104.138-.129.32-.066.482.024.064.627 1.582 2.376 3.33s3.268 2.351 3.331 2.375c.161.062.344.037.483-.067.08-.06 1.97-1.506 5.203-4.924 3.884-.127 5.573-1.923 5.573-5.975 0-.152-.02-.278-.025-.424 3.028-3.809 4.561-6.358 4.959-7.051.097-.168.087-.377-.024-.536zm-16.058 17.929c-.472-.235-1.546-.846-2.734-2.034-1.189-1.188-1.8-2.263-2.035-2.734.442-.545 1.71-2.037 3.972-4.227.241 3.225 1.795 4.781 5.017 5.023-2.188 2.261-3.676 3.529-4.219 3.972zm5.148-4.917c-3.645 0-5-1.355-5-5s1.355-5 5-5 5 1.355 5 5-1.355 5-5 5zm5.832-6.862c-.408-2.299-1.673-3.563-3.973-3.97 2.919-2.263 4.97-3.557 5.835-4.071.413.308.812.653 1.188 1.03.373.373.717.768 1.023 1.178-.515.867-1.811 2.918-4.073 5.834zm-2.832 1.862c0 .276-.224.5-.5.5h-2v2c0 .276-.224.5-.5.5s-.5-.224-.5-.5v-2h-2c-.276 0-.5-.224-.5-.5s.224-.5.5-.5h2v-2c0-.276.224-.5.5-.5s.5.224.5.5v2h2c.276 0 .5.224.5.5z"/></svg>