<svg id="Layer_1" viewBox="0 0 24 24" xmlns="http://www.w3.org/2000/svg" data-name="Layer 1"><path d="m22.997 16.948c-.673-6.447-3.987-10.132-4.128-10.286-.189-.207-.549-.207-.738 0-.141.153-3.455 3.839-4.128 10.286-.029.274.171.521.445.549.271.027.521-.17.549-.445.095-.908.246-1.759.436-2.552h6.134c.189.793.341 1.644.436 2.552.026.257.243.448.496.448.018 0 .035 0 .053-.003.274-.028.475-.274.445-.549zm-7.297-3.448c.856-2.896 2.166-4.865 2.8-5.705.634.84 1.944 2.808 2.8 5.705z"/><path d="m9.995 6.986c-.008-.276-.235-.489-.515-.486-.275.008-.493.238-.485.514 0 .031.081 3.082-.486 4.832-.866 2.67-2.402 4.071-3.01 4.542-.607-.467-2.137-1.855-3.008-4.542-.566-1.747-.487-4.801-.486-4.832.008-.276-.21-.506-.485-.514-.266-.003-.507.209-.515.486-.004.132-.085 3.256.535 5.168 1.214 3.741 3.601 5.213 3.702 5.274.079.048.169.072.258.072s.179-.024.258-.072c.102-.061 2.488-1.533 3.702-5.274.62-1.912.539-5.037.535-5.168z"/><path d="m15.864 2.537c-.256-.104-.548.017-.652.274l-7.35 18c-.104.255.019.547.273.652.062.025.126.037.189.037.197 0 .384-.117.463-.311l7.351-18c.104-.255-.019-.547-.273-.652z"/></svg>