<svg id="Layer_1" viewBox="0 0 24 24" xmlns="http://www.w3.org/2000/svg" data-name="Layer 1"><path d="m13 10.5c0 .276-.224.5-.5.5h-2c-.276 0-.5-.224-.5-.5s.224-.5.5-.5h2c.276 0 .5.224.5.5zm-2.5 5.5c-.276 0-.5.224-.5.5s.224.5.5.5h1c.276 0 .5-.224.5-.5s-.224-.5-.5-.5zm12-6h-2c-.276 0-.5.224-.5.5s.224.5.5.5h2c.276 0 .5-.224.5-.5s-.224-.5-.5-.5zm-10-3h-2c-.276 0-.5.224-.5.5s.224.5.5.5h2c.276 0 .5-.224.5-.5s-.224-.5-.5-.5zm10 0h-2c-.276 0-.5.224-.5.5s.224.5.5.5h2c.276 0 .5-.224.5-.5s-.224-.5-.5-.5zm-5 3h-2c-.276 0-.5.224-.5.5s.224.5.5.5h2c.276 0 .5-.224.5-.5s-.224-.5-.5-.5zm-4.5 3.5c0-.276-.224-.5-.5-.5h-2c-.276 0-.5.224-.5.5s.224.5.5.5h2c.276 0 .5-.224.5-.5zm9.5-.5h-2c-.276 0-.5.224-.5.5s.224.5.5.5h2c.276 0 .5-.224.5-.5s-.224-.5-.5-.5zm-5 0h-2c-.276 0-.5.224-.5.5s.224.5.5.5h2c.276 0 .5-.224.5-.5s-.224-.5-.5-.5zm0-6h-2c-.276 0-.5.224-.5.5s.224.5.5.5h2c.276 0 .5-.224.5-.5s-.224-.5-.5-.5zm5 9h-8c-.276 0-.5.224-.5.5s.224.5.5.5h8c.276 0 .5-.224.5-.5s-.224-.5-.5-.5zm-17.2-7.1c.221-.166.266-.479.101-.7-.167-.221-.479-.265-.7-.1-1.366 1.024-2.577 2.236-3.601 3.6-.133.178-.133.422 0 .6 1.023 1.364 2.234 2.576 3.601 3.6.219.165.533.122.7-.1.165-.221.12-.535-.101-.7-1.188-.892-2.253-1.934-3.17-3.1.917-1.167 1.981-2.208 3.17-3.1zm17.168 11c-.939.062-2.791.1-3.968.1-5.298 0-8.655-.8-9.548-1.042-.24-.756-.952-3.304-.952-6.958s.712-6.202.952-6.958c.893-.242 4.25-1.042 9.548-1.042 1.177 0 3.028.038 3.968.1.253.018.514-.19.531-.466.018-.275-.19-.514-.467-.532-.959-.062-2.84-.102-4.032-.102-6.379 0-9.94 1.109-10.089 1.157-.146.046-.263.158-.316.301-.045.12-1.095 2.971-1.095 7.542s1.05 7.423 1.095 7.542c.054.143.17.254.316.301.148.047 3.71 1.157 10.089 1.157 1.192 0 3.073-.039 4.032-.102.276-.018.484-.256.467-.532-.018-.276-.276-.479-.531-.466z"/></svg>