<?xml version="1.0" encoding="UTF-8"?>
<svg xmlns="http://www.w3.org/2000/svg" id="Layer_1" data-name="Layer 1" viewBox="0 0 24 24">
  <path d="M21.76,6.048c-.059-.156-.193-.273-.356-.311-.042-.009-4.114-.926-8.903-.987V1.746c0-.276-.224-.5-.5-.5s-.5,.224-.5,.5v3.004c-4.78,.061-8.861,.977-8.903,.987-.164,.037-.299,.154-.357,.312-.051,.136-1.24,3.372-1.24,7.7,0,4.365,1.189,7.567,1.24,7.702,.059,.156,.193,.273,.356,.311,.043,.01,4.4,.991,9.403,.991s9.359-.981,9.403-.991c.165-.037,.299-.154,.357-.312,.051-.136,1.24-3.372,1.24-7.7,0-4.365-1.189-7.567-1.24-7.702Zm-.849,14.798c-1.014,.208-4.738,.908-8.911,.908s-7.901-.701-8.912-.908c-.272-.829-1.088-3.603-1.088-7.096,0-3.466,.817-6.26,1.089-7.096,1.013-.207,4.734-.907,8.911-.907s7.901,.7,8.912,.908c.272,.828,1.088,3.602,1.088,7.095,0,3.466-.817,6.26-1.089,7.096Z"/>
  <path d="M6.21,9.487h-.402c-.276,0-.5,.224-.5,.5s.224,.5,.5,.5h.402c.276,0,.5-.224,.5-.5s-.224-.5-.5-.5Z"/>
  <path d="M10.112,10.487h.402c.276,0,.5-.224,.5-.5s-.224-.5-.5-.5h-.402c-.276,0-.5,.224-.5,.5s.224,.5,.5,.5Z"/>
  <path d="M18.192,9.487h-3.775c-.276,0-.5,.224-.5,.5s.224,.5,.5,.5h3.775c.276,0,.5-.224,.5-.5s-.224-.5-.5-.5Z"/>
  <path d="M6.21,13.25h-.402c-.276,0-.5,.224-.5,.5s.224,.5,.5,.5h.402c.276,0,.5-.224,.5-.5s-.224-.5-.5-.5Z"/>
  <path d="M10.112,14.25h.402c.276,0,.5-.224,.5-.5s-.224-.5-.5-.5h-.402c-.276,0-.5,.224-.5,.5s.224,.5,.5,.5Z"/>
  <path d="M18.192,13.25h-3.775c-.276,0-.5,.224-.5,.5s.224,.5,.5,.5h3.775c.276,0,.5-.224,.5-.5s-.224-.5-.5-.5Z"/>
  <path d="M6.21,17.013h-.402c-.276,0-.5,.224-.5,.5s.224,.5,.5,.5h.402c.276,0,.5-.224,.5-.5s-.224-.5-.5-.5Z"/>
  <path d="M18.192,17.013h-.402c-.276,0-.5,.224-.5,.5s.224,.5,.5,.5h.402c.276,0,.5-.224,.5-.5s-.224-.5-.5-.5Z"/>
  <path d="M14.465,17.013h-4.93c-.276,0-.5,.224-.5,.5s.224,.5,.5,.5h4.93c.276,0,.5-.224,.5-.5s-.224-.5-.5-.5Z"/>
</svg>
