<svg id="Layer_1" viewBox="0 0 24 24" xmlns="http://www.w3.org/2000/svg" data-name="Layer 1"><path d="m20.57 12.536c-.037-.005-3.809-.536-8.57-.536-1.259 0-2.446.038-3.516.092 4.693-2.773 8.282-6.007 11.419-10.297.163-.223.115-.535-.108-.698-.221-.163-.535-.115-.698.108-3.442 4.704-7.616 8.128-13.094 11.056.061-.005-.06.005 0 0-.059-5.885.977-10.735.984-10.646.064-.269-.102-.538-.371-.602-.267-.063-.538.103-.602.37-.03.021-1.094 5.032-1.01 10.971-.978.099-1.56.18-1.574.182-.273.039-.463.292-.424.565s.292.453.566.425c.014-.002.543-.077 1.446-.169.124 5.519.959 9.098.997 9.259.063.27.341.435.602.37.269-.063.435-.333.371-.602-.009-.039-.853-3.662-.972-9.121 6.025 2.32 10.26 6.32 13.109 9.567.183.208.499.227.706.046.207-.183.228-.498.046-.706-2.632-2.997-6.278-6.623-11.513-9.07 1.098-.059 2.327-.1 3.637-.1 4.797.004 8.32.521 8.501.531.244 0 .458-.18.494-.43.039-.273-.151-.526-.425-.565z"/><path d=""/></svg>