<?xml version="1.0" encoding="UTF-8"?>
<svg xmlns="http://www.w3.org/2000/svg" id="Layer_1" data-name="Layer 1" viewBox="0 0 24 24">
  <path d="M14.588,21.596c-.839,.153-1.769,.234-2.757,.24-6.495-.038-9.71-3.258-9.831-9.827,.117-6.583,3.333-9.803,9.824-9.844,6.178,.04,9.478,3.126,9.808,9.173,.012,.219,.02,.442,.023,.67,.005,.276,.248,.476,.509,.492,.275-.005,.496-.232,.491-.508-.004-.242-.012-.478-.025-.709C22.177,2.975,16.507,1.195,11.825,1.165,4.869,1.208,1.125,4.952,1,12.009c.131,7.143,3.772,10.785,10.831,10.826,1.053-.006,2.041-.092,2.937-.256,.271-.049,.451-.31,.402-.582-.051-.272-.317-.453-.582-.402Z"/>
  <path d="M22.246,15.734c-.388-.36-.875-.549-1.405-.535-.459,.019-.882,.214-1.194,.55-.312-.336-.735-.531-1.194-.55-.5-.011-1.017,.175-1.405,.535-.367,.341-.785,1.03-.753,1.853,.033,.851,.513,1.648,1.425,2.371,.199,.158,1.079,.771,1.928,.771,1.013,0,1.902-.739,2.158-.964,.783-.689,1.186-1.443,1.195-2.24,.011-.796-.399-1.462-.754-1.791Zm-1.102,3.28c-.202,.178-.448,.347-.749,.517-.469,.264-1.03,.264-1.491,.004-.005-.002-.401-.231-.564-.361-.673-.533-1.025-1.08-1.046-1.626-.025-.647,.414-1.063,.434-1.081,.186-.172,.421-.27,.65-.27,.011,0,.022,0,.033,0,.138,.006,.338,.051,.506,.236l.36,.394c.095,.103,.229,.162,.369,.162s.274-.059,.369-.163l.359-.393c.168-.185,.368-.23,.507-.236,.24-.016,.489,.088,.685,.27,.164,.152,.44,.543,.434,1.044-.006,.502-.294,1.007-.855,1.502Z"/>
  <path d="M17.486,9.159c-.025-1.228-.808-1.965-2.099-1.973-1.285,.007-2.066,.748-2.09,2,.023,1.228,.804,1.965,2.088,1.974h.013c1.302-.008,2.062-.73,2.088-2.001Zm-2.095,1.001h-.003c-.752-.005-1.078-.302-1.091-.974,.013-.688,.351-.996,1.09-1,.746,.005,1.085,.311,1.099,.974-.014,.696-.341,.996-1.095,1Z"/>
  <path d="M7.194,8.673c-.276,0-.5,.224-.5,.5s.224,.5,.5,.5h2.139c.276,0,.5-.224,.5-.5s-.224-.5-.5-.5h-2.139Z"/>
  <path d="M14.154,14.314c-.008-1.356-.788-2.117-2.213-2.142-.448,.007-.839,.095-1.162,.259-.246,.125-.344,.426-.218,.672,.125,.245,.425,.343,.672,.218,.186-.095,.43-.145,.708-.15,1.002,.018,1.21,.472,1.214,1.142-.005,.811-.345,1.132-1.214,1.148-.01,0-.019,0-.028,.002,0,0,0,0,0,0-.01,0-.02,.002-.029,.004-.221,.035-.428,.238-.433,.485-.005,.276,.215,.504,.491,.509,1.002,.018,1.21,.471,1.214,1.142-.005,.811-.345,1.132-1.196,1.147-.304-.005-.551-.056-.737-.15-.246-.125-.547-.027-.672,.219-.125,.246-.027,.547,.219,.672,.322,.164,.717,.251,1.19,.259,1.408-.025,2.188-.785,2.196-2.147-.004-.754-.248-1.324-.705-1.686,.47-.296,.701-.81,.705-1.604Z"/>
</svg>
