<svg id="Layer_1" viewBox="0 0 24 24" xmlns="http://www.w3.org/2000/svg" data-name="Layer 1"><path d="m22.811 6.1c-.368-.292-.741-.584-1.12-.865-1.134-.841-2.441-1.711-3.887-2.588-1.547-.937-3.455-.857-4.867.206-.26.196-.503.402-.736.613-.568-.644-2.337-2.464-4.2-2.464-1.12 0-3 .455-3 3.5v17.024c-1.288.034-2.556.194-3.634.494-.267.074-.422.35-.348.616.073.265.344.419.615.348 2.232-.622 5.5-.622 7.732 0 .259.073.542-.079.615-.348.074-.266-.081-.542-.348-.616-1.078-.3-2.346-.459-3.634-.494v-17.026c0-2.241 1.142-2.5 2-2.5 1.5 0 3.087 1.709 3.501 2.186-.221.244-.447.481-.65.751-1.062 1.412-1.142 3.322-.205 4.866.601.991 1.537 2.471 2.588 3.886.28.379.573.753.865 1.122.132.167.356.23.554.162.571-.195 1.786-.695 3.183-1.691.524.47 1.034.719 1.543.719.571 0 1.143-.295 1.734-.887 1.119-1.119 1.166-2.167.168-3.278.996-1.397 1.496-2.612 1.691-3.183.069-.2.004-.422-.162-.554zm-2.404 6.307c-.689.688-1.142.772-1.77.259.353-.291.71-.602 1.069-.96.359-.359.67-.716.96-1.069.514.629.428 1.082-.259 1.77zm-1.408-1.408c-1.72 1.719-3.438 2.554-4.34 2.907-.211-.268-.419-.538-.622-.812-1.027-1.385-1.945-2.836-2.535-3.81-.725-1.193-.666-2.664.148-3.747.274-.364.568-.705.875-1.012.304-.304.645-.599 1.013-.875.578-.435 1.267-.654 1.964-.654.609 0 1.227.167 1.783.505 1.419.861 2.701 1.714 3.81 2.536.273.203.543.412.811.622-.353.903-1.188 2.621-2.906 4.34z"/></svg>