<svg id="Layer_1" viewBox="0 0 24 24" xmlns="http://www.w3.org/2000/svg" data-name="Layer 1"><path d="m15.964 7.475c-.351-4.468-2.666-6.475-7.464-6.475-5.327 0-7.5 2.173-7.5 7.5 0 5.983.496 13.951.501 14.031.016.276.258.486.53.468.276-.018.485-.255.468-.53-.005-.079-.499-8.017-.499-13.969 0-4.799 1.701-6.5 6.5-6.5 4.295 0 6.143 1.55 6.463 5.477-4.867.154-6.963 2.414-6.963 7.485 0 .238.168.443.402.49.089.018 1.789.35 4.626.488.134 1.397.924 2.06 2.472 2.06s2.339-.663 2.472-2.06c2.837-.138 4.537-.47 4.626-.488.233-.047.402-.252.402-.49 0-5.096-2.117-7.354-7.036-7.487zm-.464 9.525c-.968 0-1.366-.255-1.468-1.021.466.013.955.021 1.468.021s1.002-.008 1.468-.021c-.102.766-.5 1.021-1.468 1.021zm0-2c-3.255 0-5.595-.314-6.495-.458.104-4.423 1.899-6.08 6.495-6.08s6.391 1.657 6.495 6.08c-.9.144-3.24.458-6.495.458z"/></svg>