<svg id="Layer_1" viewBox="0 0 24 24" xmlns="http://www.w3.org/2000/svg" data-name="Layer 1"><path d="m5.921 11.269s0 0 0 0c2.598 1.485 5.773 2.653 5.906 2.702.111.04.233.04.344 0 .134-.049 3.308-1.217 5.906-2.702 2.608-1.491 4.665-3.318 4.751-3.396.106-.095.167-.23.167-.373s-.061-.278-.167-.373c-.086-.077-2.143-1.904-4.751-3.395-2.598-1.486-5.774-2.654-5.908-2.703-.111-.04-.232-.04-.344 0-.134.049-3.31 1.217-5.908 2.703-2.608 1.491-4.665 3.318-4.751 3.395-.106.095-.167.23-.167.373s.061.278.167.373c.086.077 2.143 1.905 4.751 3.396zm6.079 1.7c-.618-.234-2.798-1.085-4.807-2.143l4.807-2.749 4.807 2.748c-2.01 1.058-4.189 1.909-4.807 2.143zm5.827-2.712-4.82-2.756 4.82-2.756c1.722 1.013 3.198 2.174 3.899 2.756-.701.582-2.177 1.743-3.899 2.756zm-5.827-8.224c.618.234 2.798 1.085 4.807 2.144l-4.807 2.749-4.807-2.749c2.009-1.059 4.189-1.909 4.807-2.144zm-5.827 2.712 4.82 2.756-4.82 2.756c-1.722-1.013-3.198-2.174-3.899-2.756.701-.582 2.177-1.742 3.899-2.756zm16.718 9.2c.171.217.132.532-.086.701-.086.067-2.143 1.666-4.75 2.969-2.597 1.298-5.769 2.319-5.903 2.362-.099.032-.205.032-.305 0-.134-.042-3.307-1.063-5.903-2.362-2.607-1.303-4.664-2.902-4.75-2.969-.218-.17-.257-.484-.086-.701.169-.219.486-.255.701-.086.021.016 2.068 1.606 4.582 2.862 2.21 1.106 4.94 2.033 5.608 2.254.668-.221 3.397-1.149 5.608-2.254 2.514-1.256 4.561-2.846 4.582-2.862.215-.168.532-.133.701.086zm0 2.999c.171.217.132.532-.086.701-.086.067-2.143 1.666-4.75 2.969-2.597 1.298-5.769 2.319-5.903 2.362-.099.032-.205.032-.305 0-.134-.042-3.307-1.063-5.903-2.362-2.607-1.303-4.664-2.902-4.75-2.969-.218-.17-.257-.484-.086-.701.169-.219.486-.256.701-.086.021.016 2.068 1.606 4.582 2.862 2.21 1.106 4.94 2.033 5.608 2.254.668-.221 3.397-1.149 5.608-2.254 2.514-1.256 4.561-2.846 4.582-2.862.215-.168.532-.132.701.086zm0-5.998c.171.217.132.532-.086.701-.086.067-2.143 1.666-4.75 2.969-2.597 1.298-5.769 2.319-5.903 2.362-.099.032-.205.032-.305 0-.134-.042-3.307-1.063-5.903-2.362-2.607-1.303-4.664-2.902-4.75-2.969-.218-.17-.257-.484-.086-.701.169-.219.486-.255.701-.086.021.016 2.068 1.606 4.582 2.862 2.21 1.106 4.94 2.033 5.608 2.254.668-.221 3.397-1.149 5.608-2.254 2.514-1.256 4.561-2.846 4.582-2.862.215-.168.532-.132.701.086z"/></svg>