<svg id="Layer_1" viewBox="0 0 24 24" xmlns="http://www.w3.org/2000/svg" data-name="Layer 1"><path d="m3 8.5c0 2.039.269 3.651.448 4.502l5.053.005c.253 0 .466.189.495.44.022.182.05.325.075.429.201.04.633.104 1.441.124.276.007.494.236.487.513-.007.271-.229.487-.5.487h-.013c-1.485-.038-1.946-.221-2.075-.297-.092-.055-.163-.137-.205-.235-.01-.023-.072-.177-.132-.461l-6.062-.006c.064 1.231.343 2.412.474 2.913.861.261 3.911 1.087 8.013 1.087.276 0 .5.224.5.5s-.224.5-.5.5c-5.026 0-8.444-1.17-8.587-1.22-.151-.053-.269-.175-.314-.329-.024-.081-.599-2.015-.599-3.951 0-.133.053-.26.146-.354s.221-.146.354-.146h.927c-.185-.935-.427-2.528-.427-4.5 0-3.833.9-6.143.938-6.239.049-.123.145-.222.266-.274.093-.041 2.336-.987 7.796-.987s7.703.946 7.796.987c.121.052.217.151.266.273.019.048.465 1.185.735 3.172.037.273-.154.525-.428.563-.27.035-.525-.155-.562-.428-.189-1.389-.472-2.339-.603-2.733-.637-.213-2.864-.834-7.204-.834s-6.566.621-7.204.834c-.208.627-.796 2.667-.796 5.666zm20 7c0 3.501-.486 6.458-.507 6.582-.033.2-.185.36-.383.406-.092.021-2.275.512-4.11.512s-4.019-.492-4.11-.512c-.198-.045-.35-.206-.383-.406-.021-.124-.507-3.081-.507-6.582s.486-6.458.507-6.582c.033-.2.185-.36.383-.406.092-.021 2.275-.512 4.11-.512s4.019.492 4.11.512c.198.045.35.206.383.406.021.124.507 3.081.507 6.582zm-1 0c0-2.748-.316-5.209-.442-6.082-.671-.135-2.239-.418-3.558-.418s-2.887.283-3.558.418c-.126.873-.442 3.334-.442 6.082s.316 5.209.442 6.082c.671.135 2.239.418 3.558.418s2.887-.283 3.558-.418c.126-.873.442-3.334.442-6.082z"/></svg>