<svg id="Layer_1" viewBox="0 0 24 24" xmlns="http://www.w3.org/2000/svg" data-name="Layer 1"><path d="m17.995 21.079c.037.274-.156.525-.43.561-1.795.238-3.668.359-5.566.359-4.536 0-7.941-.674-9.999-1.24-.168-.046-.301-.177-.349-.345-.14-.491-.601-2.224-.651-3.9-.014-.274.226-.521.5-.515h.971c-.261-1.321-.471-3.924-.471-6.015 0-1.215.092-2.413.272-3.562.043-.273.3-.458.572-.416.273.043.459.299.416.572-.173 1.098-.26 2.245-.26 3.407 0 2.158.223 4.86.492 6.015h5.341c.252 0 .465.187.496.438.034.269.082.536.118.721.346.122 1.162.341 2.553.341.516 0 .998-.03 1.433-.089.271-.035.525.155.562.429.037.273-.155.525-.429.562-.478.065-1.006.098-1.567.098-2.177 0-3.128-.487-3.229-.542-.126-.069-.216-.189-.248-.329 0 0-.062-.274-.121-.628h-6.372c.092 1.164.357 2.291.51 2.87 2.021.532 5.233 1.13 9.461 1.13 1.854 0 3.682-.118 5.434-.351.275-.036.525.156.561.43zm4.858 1.067c.195.195.195.512 0 .707s-.512.195-.707 0l-20.999-20.999c-.195-.195-.195-.512 0-.707s.512-.195.707 0l1.818 1.818c1.341-.532 3.629-.903 8.328-.965 6.084 0 8.577.993 8.68 1.036.125.051.224.15.274.275.043.105 1.046 2.632 1.046 6.674 0 2.091-.209 4.694-.471 6.015h.971c.274-.006.514.241.5.515-.051 1.676-.512 3.409-.651 3.9-.048.167-.18.298-.348.345-.128.035-.274.073-.422.111l1.275 1.275zm-.882-5.146h-4.264l3.045 3.045c.254-.06.498-.119.709-.175.153-.579.418-1.706.511-2.87zm-17.527-13.263 12.263 12.263h3.801c.268-1.155.492-3.857.492-6.015 0-3.21-.669-5.429-.898-6.092-.688-.221-3.188-.892-8.102-.892-4.098 0-6.5.465-7.556.737z"/></svg>