<svg id="Layer_1" viewBox="0 0 24 24" xmlns="http://www.w3.org/2000/svg" data-name="Layer 1"><path d="m14.487 16.993c-.17.004-.344.007-.521.007h-1.934c-1.833 0-2.911-.299-4.031-.817-.002-.84-.069-2.952-.671-3.845-.536-.793-1.171-1.321-2.535-1.321-.254 0-.487.018-.705.05-.056-.492-.092-1.011-.092-1.568 0-5.257 2.402-7.5 8.033-7.5h1.934c5.631 0 8.033 2.243 8.033 7.5 0 1.77-.271 3.168-.83 4.275-.125.246-.025.547.221.671.241.123.547.028.671-.221.631-1.25.938-2.795.938-4.726 0-5.799-2.87-8.5-9.033-8.5h-1.934c-6.161.002-9.031 2.703-9.031 8.502 0 .668.044 1.295.12 1.879-.755.422-1.12 1.22-1.12 2.436 0 .69.13 1.245.385 1.693-.905 1.207-1.385 2.469-1.385 3.762 0 2.951 2.44 3.731 3.731 3.731.275 0 .498-.223.499-.499 0-.275-.222-.5-.498-.501-.279-.002-2.732-.095-2.732-2.731 0-1.019.376-2.03 1.076-3.014.978.656 2.623.77 3.63.77.305 0 .547-.01.698-.019 1.28.613 2.526.993 4.63.993h1.934c.185 0 .367-.002.546-.007.276-.007.494-.236.487-.513-.007-.275-.195-.487-.513-.487zm-11.034-1.706c-.306-.388-.438-.616-.453-1.473 0-1.36.437-1.797 1.797-1.797.945 0 1.303.284 1.706.88.353.523.485 2.036.5 3.125-1.215.033-2.949-.136-3.549-.735zm18.842 3.279-1.463-.467-.398-1.394c-.148-.521-.596-.705-.934-.705s-.786.185-.934.705l-.467 1.463-1.394.398c-.521.148-.705.596-.705.934s.185.786.705.934l1.463.467.398 1.394c.148.521.596.705.934.705s.786-.185.934-.705l.467-1.463 1.394-.398c.521-.148.705-.596.705-.934s-.185-.786-.705-.934zm-1.669 1.305c-.368.105-.65.387-.755.755l-.343 1.395-.399-1.395c-.105-.368-.387-.65-.755-.755l-1.395-.343 1.395-.399c.368-.105.65-.387.755-.755l.361-1.332.381 1.332c.105.368.387.65.755.755l1.395.343zm-3.274-8.013c.394-.112.648-.449.648-.858s-.254-.746-.647-.858l-1.162-.332-.332-1.162c-.112-.394-.449-.648-.858-.648s-.746.254-.858.647l-.332 1.162-1.162.332c-.394.112-.648.449-.648.858s.254.746.647.858l1.162.332.332 1.162c.112.394.449.648.858.648s.746-.254.858-.647l.332-1.162zm-2.124.058-.229.8-.229-.802c-.096-.333-.353-.589-.687-.686l-.8-.229.802-.229c.333-.096.589-.353.686-.687l.229-.8.229.802c.096.333.353.589.687.686l.8.229-.802.229c-.333.096-.589.353-.686.687z"/></svg>