<?xml version="1.0" encoding="UTF-8"?>
<svg xmlns="http://www.w3.org/2000/svg" id="Layer_1" data-name="Layer 1" viewBox="0 0 24 24">
  <path d="M12,1C7.105,1,1.486,1.878,1.486,8.725c0,2.458,.689,4.282,2.099,5.541-1.393,.827-2.099,2.162-2.099,3.979,0,2.668,1.297,4.221,3.966,4.746,.033,.006,.065,.009,.097,.009,.234,0,.443-.165,.49-.403,.053-.271-.123-.534-.394-.587-2.215-.436-3.16-1.562-3.16-3.765,0-1.594,.643-2.678,1.963-3.307,.035,.385,.146,.763,.33,1.117,.385,.739,1.042,1.283,1.852,1.531,.315,.097,.65,.138,.992,.138,1.673,0,3.504-.989,3.999-1.275h.25s.129,0,.129,0c4.895,0,10.514-.878,10.514-7.724S16.895,1,12,1Zm-5.077,15.63c-.551-.169-.997-.537-1.258-1.037-.251-.481-.297-1.03-.131-1.545,.285-.882,1.126-1.448,2.033-1.448,.212,0,.429,.031,.643,.097,1.172,.36,2.179,2.061,2.638,3.04-.939,.503-2.739,1.256-3.924,.893Zm5.077-1.181h-.132s-.055,0-.055,0c-.388-.858-1.578-3.176-3.312-3.708-1.641-.506-3.401,.393-3.919,2-.004,.013-.008,.027-.012,.04-1.401-1.07-2.085-2.731-2.085-5.056C2.486,3.948,5.242,2,12,2s9.514,1.948,9.514,6.725-2.756,6.724-9.514,6.724Z"/>
</svg>
