<?xml version="1.0" encoding="UTF-8"?>
<svg xmlns="http://www.w3.org/2000/svg" id="Layer_1" data-name="Layer 1" viewBox="0 0 24 24">
  <path d="M7.521,11.308c0-1.135,.558-1.927,1.058-1.927s1.058,.792,1.058,1.927c0,.276,.224,.5,.5,.5s.5-.224,.5-.5c0-1.641-.904-2.927-2.058-2.927s-2.058,1.286-2.058,2.927c0,.276,.224,.5,.5,.5s.5-.224,.5-.5Z"/>
  <path d="M15.419,8.381c-1.153,0-2.058,1.286-2.058,2.927,0,.276,.224,.5,.5,.5s.5-.224,.5-.5c0-1.135,.558-1.927,1.058-1.927s1.058,.792,1.058,1.927c0,.276,.224,.5,.5,.5s.5-.224,.5-.5c0-1.641-.904-2.927-2.058-2.927Z"/>
  <path d="M16.191,13.512l-.579,.068c-1.289,.152-2.504,.229-3.612,.229-1.103,0-2.317-.078-3.612-.23l-.574-.068c-.145-.021-.288,.03-.396,.127s-.167,.237-.163,.383l.016,.578c.029,1.073,.541,2.121,1.525,3.119,1.022,1.013,2.099,1.527,3.2,1.527s2.189-.515,3.252-1.543c.942-.979,1.441-2.019,1.481-3.091l.021-.583c.005-.146-.054-.287-.161-.385-.107-.099-.254-.148-.397-.129Zm-1.651,3.482c-1.711,1.655-3.385,1.653-5.036,.017-.797-.808-1.212-1.628-1.233-2.439,1.333,.157,2.588,.237,3.729,.237s2.401-.079,3.729-.235c-.03,.818-.435,1.637-1.189,2.421Z"/>
  <path d="M11.997,1C4.894,1,1,5.16,1,12.009c0,6.996,3.771,10.991,11.003,10.991,7.164,0,10.864-3.74,10.997-11.009-.122-7.042-4.027-10.991-11.003-10.991Zm.006,21c-6.605-.039-9.877-3.31-10.003-10,.121-6.594,3.486-9.958,9.997-10,4.485,.029,9.861,1.79,10.003,9.991-.123,6.696-3.395,9.97-9.997,10.009Z"/>
</svg>
