<svg id="Layer_1" viewBox="0 0 24 24" xmlns="http://www.w3.org/2000/svg" data-name="Layer 1"><path d="m5.179 15.009c3.382 2.134 6.53 3.196 6.663 3.24.051.017.105.026.158.026s.107-.009.158-.026c.132-.044 3.281-1.105 6.663-3.24 1.286-.812 2.911-2.033 2.979-2.085.221-.166.265-.479.099-.7-.166-.219-.479-.265-.7-.099-.017.012-1.661 1.248-2.912 2.038-2.856 1.802-5.609 2.839-6.288 3.082-.678-.243-3.432-1.279-6.287-3.082-1.251-.79-2.896-2.026-2.912-2.038-.222-.167-.535-.121-.7.099-.166.221-.122.534.099.7.069.052 1.694 1.273 2.98 2.085z"/><path d="m12.184 22.035c-.033-.013-3.311-1.32-6.478-3.251-1.397-.853-2.899-1.93-2.915-1.94-.225-.163-.537-.111-.698.115-.161.224-.11.537.115.698.015.011 1.547 1.109 2.977 1.981 3.24 1.976 6.597 3.314 6.63 3.327.061.024.123.035.184.035.199 0 .387-.12.465-.316.102-.257-.024-.547-.281-.649z"/><path d="m6.306 11.117c2.938 2.039 5.441 2.828 5.546 2.86.048.015.098.022.148.022s.1-.007.148-.022c.105-.033 2.608-.821 5.546-2.86 2.689-1.867 4.091-3.181 4.149-3.236.1-.095.157-.226.157-.364s-.057-.269-.157-.364c-.059-.055-1.46-1.369-4.149-3.236-2.935-2.038-5.435-2.859-5.54-2.893-.1-.032-.208-.032-.308 0-.105.034-2.605.855-5.54 2.893-2.689 1.867-4.091 3.181-4.149 3.236-.1.095-.157.226-.157.364s.057.269.157.364c.059.055 1.46 1.37 4.149 3.236zm.57-6.379c2.403-1.668 4.543-2.5 5.124-2.709.58.209 2.72 1.041 5.124 2.709 1.807 1.255 3.033 2.267 3.625 2.779-.592.512-1.818 1.524-3.625 2.779-2.409 1.672-4.552 2.478-5.124 2.677-.571-.199-2.715-1.005-5.124-2.677-1.807-1.254-3.033-2.267-3.625-2.779.592-.512 1.818-1.524 3.625-2.779z"/><path d="m21.5 19.5h-2v-2c0-.276-.224-.5-.5-.5s-.5.224-.5.5v2h-2c-.276 0-.5.224-.5.5s.224.5.5.5h2v2c0 .276.224.5.5.5s.5-.224.5-.5v-2h2c.276 0 .5-.224.5-.5s-.224-.5-.5-.5z"/></svg>