<svg id="Layer_1" viewBox="0 0 24 24" xmlns="http://www.w3.org/2000/svg" data-name="Layer 1"><path d="m5.18 15.009c3.381 2.134 6.529 3.196 6.662 3.24.052.017.104.026.158.026s.106-.009.158-.026c.133-.044 3.281-1.105 6.662-3.24 1.287-.812 2.912-2.033 2.98-2.085.221-.166.265-.479.099-.7-.168-.222-.481-.263-.7-.099-.017.012-1.66 1.248-2.912 2.038-2.855 1.802-5.609 2.839-6.287 3.082-.678-.243-3.432-1.279-6.287-3.082-1.251-.79-2.896-2.026-2.912-2.038-.219-.165-.533-.123-.7.099-.166.221-.122.534.099.7.068.052 1.693 1.273 2.98 2.085z"/><path d="m12.185 22.035c-.033-.013-3.311-1.32-6.478-3.251-1.398-.853-2.9-1.93-2.915-1.94-.225-.161-.537-.111-.698.115-.161.224-.109.537.114.698.016.011 1.547 1.109 2.978 1.981 3.239 1.976 6.597 3.314 6.63 3.327.061.024.123.035.185.035.199 0 .387-.12.465-.316.102-.257-.023-.547-.28-.649z"/><path d="m6.307 11.117c2.938 2.039 5.44 2.828 5.545 2.86.049.015.099.022.148.022s.1-.007.148-.022c.104-.033 2.607-.821 5.545-2.86 2.69-1.867 4.092-3.182 4.149-3.236.101-.095.157-.226.157-.364s-.057-.269-.157-.364c-.058-.055-1.459-1.369-4.149-3.236-2.936-2.038-5.435-2.859-5.539-2.893-.102-.032-.207-.032-.309 0-.104.034-2.604.855-5.539 2.893-2.69 1.867-4.092 3.181-4.149 3.236-.101.095-.157.226-.157.364s.057.269.157.364c.058.055 1.459 1.37 4.149 3.236zm.57-6.379c2.403-1.668 4.543-2.5 5.123-2.709.58.209 2.72 1.041 5.123 2.709 1.808 1.255 3.034 2.267 3.625 2.779-.591.512-1.817 1.524-3.625 2.779-2.408 1.672-4.552 2.478-5.123 2.677-.571-.199-2.715-1.005-5.123-2.677-1.808-1.254-3.034-2.267-3.625-2.779.591-.512 1.817-1.524 3.625-2.779z"/><path d="m21.5 20h-5.5c-.276 0-.5.224-.5.5s.224.5.5.5h5.5c.276 0 .5-.224.5-.5s-.224-.5-.5-.5z"/></svg>