<svg id="Layer_1" viewBox="0 0 24 24" xmlns="http://www.w3.org/2000/svg" data-name="Layer 1"><path d="m17 13c-1.879 0-3 1.121-3 3s1.121 3 3 3 3-1.121 3-3-1.121-3-3-3zm0 5c-1.327 0-2-.673-2-2s.673-2 2-2 2 .673 2 2-.673 2-2 2zm4.938-15.558c-.042-.19-.19-.339-.381-.381-.049-.011-4.891-1.062-9.558-1.062s-9.508 1.052-9.556 1.063c-.191.042-.34.19-.381.381-.011.049-1.062 4.891-1.062 9.558s1.051 9.509 1.062 9.558c.042.19.19.339.381.381.048.011 4.891 1.062 9.557 1.062s9.509-1.051 9.558-1.062c.19-.042.339-.19.381-.381.011-.049 1.062-4.891 1.062-9.558s-1.051-9.509-1.062-9.558zm-.911 18.585c-1.137.228-5.148.973-9.027.973s-7.891-.745-9.027-.973c-.228-1.137-.973-5.148-.973-9.027s.745-7.891.973-9.027c1.136-.228 5.148-.973 9.027-.973s7.891.745 9.027.973c.228 1.137.973 5.148.973 9.027s-.745 7.891-.973 9.027zm-13.027-14.527c0-.995-.505-1.5-1.5-1.5s-1.5.505-1.5 1.5.505 1.5 1.5 1.5 1.5-.505 1.5-1.5zm-1.5.5c-.439 0-.5-.061-.5-.5s.061-.5.5-.5.5.061.5.5-.061.5-.5.5zm0 1c-1.006 0-2.157.456-2.458 1.474-.078.264-.047.545.089.792.14.255.382.447.663.527.486.14 1.044.207 1.706.207s1.22-.067 1.706-.207c.282-.08.524-.272.664-.527.136-.247.167-.528.089-.792-.301-1.018-1.452-1.474-2.458-1.474zm1.431 1.832c-.79.227-2.071.227-2.861 0-.051-.009-.07-.037-.068-.075.154-.52.885-.757 1.499-.757s1.345.237 1.499.757c.007.035-.009.062-.068.075zm.069 4.668c0-.995-.505-1.5-1.5-1.5s-1.5.505-1.5 1.5.505 1.5 1.5 1.5 1.5-.505 1.5-1.5zm-1.5.5c-.439 0-.5-.061-.5-.5s.061-.5.5-.5.5.061.5.5-.061.5-.5.5zm0 1c-1.006 0-2.157.456-2.458 1.474-.078.264-.047.545.089.792.14.255.382.447.663.527.486.14 1.044.207 1.706.207s1.22-.067 1.706-.207c.282-.08.524-.272.664-.527.136-.247.167-.528.089-.792-.301-1.018-1.452-1.474-2.458-1.474zm1.431 1.832c-.79.227-2.071.227-2.861 0-.046-.012-.072-.035-.068-.075.154-.52.885-.757 1.499-.757s1.345.237 1.499.757c.009.043-.013.056-.068.075zm4.069-2.332c0 .276-.224.5-.5.5h-1c-.276 0-.5-.224-.5-.5s.224-.5.5-.5h1c.276 0 .5.224.5.5zm0-8c0 .276-.224.5-.5.5h-1c-.276 0-.5-.224-.5-.5s.224-.5.5-.5h1c.276 0 .5.224.5.5zm2.916 1.216c-.086.325-.159.651-.222.976-.068.359.067.722.356.948.289.223.673.267 1.001.113.332-.153.645-.313.948-.488.303.174.615.335.944.486.331.158.716.112 1.006-.113.288-.225.424-.587.355-.945-.062-.325-.136-.651-.222-.977.194-.17.391-.344.592-.522.281-.251.392-.646.282-1.008 0 0 0 0 0-.002-.112-.361-.428-.626-.802-.674-.314-.04-.604-.073-.878-.099-.128-.294-.266-.587-.413-.881-.177-.348-.541-.542-.828-.529-.386-.018-.724.182-.902.532-.146.291-.283.584-.411.878-.273.025-.562.059-.877.099-.375.048-.69.312-.804.676-.109.361 0 .757.283 1.009.2.178.396.353.591.521zm1.186-1.333c.188-.015.353-.133.425-.308.151-.366.319-.731.445-1.095.183.363.351.729.502 1.095.072.175.236.293.425.308.327.023.674.062 1.06.11-.26.231-.512.454-.765.67-.149.128-.211.331-.156.52.115.398.21.798.329 1.162-.393-.181-.754-.373-1.105-.588-.16-.098-.361-.098-.521 0-.352.215-.713.407-1.062.623.076-.399.171-.799.286-1.197.055-.188-.007-.392-.156-.52-.27-.229-.539-.469-.833-.661.413-.054.781-.094 1.128-.119z"/></svg>