<svg id="Layer_1" viewBox="0 0 24 24" xmlns="http://www.w3.org/2000/svg" data-name="Layer 1"><path d="m22.361 1.639c-1.373-1.372-11.854-.683-16.591 3.527-2.472 2.197-3.704 4.299-3.766 6.426-.061 2.06.997 4.191 3.2 6.497l-4.058 4.058c-.195.195-.195.512 0 .707s.512.195.707 0l4.057-4.057c2.318 2.197 4.368 3.247 6.497 3.2 2.127-.062 4.229-1.295 6.426-3.766 4.211-4.736 4.898-15.219 3.527-16.591zm-4.274 15.927c-2.004 2.255-3.872 3.377-5.709 3.431-1.876.066-3.882-1.008-6.124-3.251-2.243-2.242-3.306-4.246-3.251-6.124.054-1.837 1.176-3.704 3.431-5.709 3.342-2.971 9.468-3.894 12.857-3.894 1.264 0 2.147.128 2.363.327.731.794.512 10.631-3.567 15.22zm-3.841-9.53c-.905 0-1.743.441-2.249 1.089-.507-.648-1.344-1.089-2.249-1.089-1.516 0-2.749 1.314-2.749 2.929 0 4.019 4.58 6.355 4.775 6.453.141.07.307.07.447 0 .195-.098 4.775-2.434 4.775-6.453 0-1.615-1.233-2.929-2.749-2.929zm-2.249 8.365c-.873-.501-3.999-2.498-3.999-5.436 0-1.064.785-1.93 1.749-1.93 1.001 0 1.749.775 1.749 1.468 0 .276.224.5.5.5s.5-.224.5-.5c0-.693.748-1.468 1.749-1.468.965 0 1.749.865 1.749 1.93 0 2.938-3.126 4.935-3.999 5.436z"/></svg>