<svg id="Layer_1" viewBox="0 0 24 24" xmlns="http://www.w3.org/2000/svg" data-name="Layer 1"><path d="m23 5.5c0-3.154-1.346-4.5-4.5-4.5-1.616 0-2.728.365-3.461 1.144-.461-.097-.968-.144-1.539-.144-2.986 0-4.352 1.206-4.488 4.012-2.647.129-3.871 1.353-4 4-2.806.137-4.012 1.502-4.012 4.488 0 2.744 1.035 4.106 3.376 4.417l-3.229 3.229c-.195.195-.195.512 0 .707s.512.195.707 0l3.229-3.229c.311 2.341 1.673 3.376 4.417 3.376 2.986 0 4.352-1.206 4.488-4.012 2.647-.129 3.871-1.353 4-4 2.806-.137 4.012-1.502 4.012-4.488 0-.571-.047-1.078-.144-1.539.778-.733 1.144-1.845 1.144-3.461zm-2 5c0 2.584-.916 3.5-3.5 3.5-.276 0-.5.224-.5.5 0 2.584-.916 3.5-3.5 3.5-.276 0-.5.224-.5.5 0 2.584-.916 3.5-3.5 3.5-2.513 0-3.44-.879-3.49-3.303l9.844-9.844c.195-.195.195-.512 0-.707s-.512-.195-.707 0l-9.844 9.844c-2.424-.05-3.303-.978-3.303-3.49 0-2.584.916-3.5 3.5-3.5.276 0 .5-.224.5-.5 0-2.584.916-3.5 3.5-3.5.276 0 .5-.224.5-.5 0-2.584.916-3.5 3.5-3.5.613 0 1.134.061 1.591.184.2.053.405-.019.529-.18.52-.685 1.435-1.004 2.88-1.004 2.584 0 3.5.916 3.5 3.5 0 1.445-.319 2.36-1.004 2.88-.162.123-.233.332-.18.529.123.457.184.978.184 1.591z"/></svg>