<svg id="Layer_1" viewBox="0 0 24 24" xmlns="http://www.w3.org/2000/svg" data-name="Layer 1"><path d="m9 11.25c.414 0 .75.336.75.75s-.336.75-.75.75-.75-.336-.75-.75.336-.75.75-.75zm7.999 4.31c-.186 4.127-.736 6.452-.76 6.549-.044.179-.182.32-.36.367-.081.021-2.056.524-6.379.524-4.711 0-7.132-.545-7.232-.568-.185-.042-.329-.186-.374-.37-.036-.151-.894-3.774-.894-10.062s.856-9.453.894-9.584c.046-.166.173-.296.338-.345.146-.043 3.61-1.071 7.144-1.071.864 0 2.292.065 3.186.175.251.031.439.244.439.496v1.455c1.634.277 2.878.62 2.934.635.168.047.3.179.347.348.021.074.503 1.844.719 5.362.017.276-.192.513-.469.53-.01 0-.021 0-.03 0-.263 0-.482-.204-.499-.469-.161-2.632-.48-4.27-.618-4.883-.429-.11-1.322-.321-2.383-.508v17.728c1.178-.097 1.946-.223 2.332-.298.151-.751.525-2.867.669-6.056.012-.275.199-.495.521-.477.275.012.489.246.477.522zm-4.999-13.439c-.836-.077-1.922-.121-2.625-.121-2.835 0-5.703.713-6.583.952-.2.881-.792 3.92-.792 9.048s.597 8.516.8 9.517c.782.142 3.05.483 6.7.483.947 0 1.779-.025 2.5-.064zm11 10.379c.005-.116-.058-.206-.1-.3-.88-1.174-1.923-2.217-3.101-3.1-.219-.164-.532-.121-.7.1-.165.221-.12.535.101.7.819.615 1.549 1.331 2.218 2.1h-5.918c-.276 0-.5.224-.5.5s.224.5.5.5h5.918c-.669.769-1.398 1.485-2.218 2.1-.221.166-.266.479-.101.7.168.222.481.264.7.1 1.178-.883 2.221-1.926 3.101-3.1.041-.094.105-.184.1-.3z"/></svg>