<svg id="Layer_1" viewBox="0 0 24 24" xmlns="http://www.w3.org/2000/svg" data-name="Layer 1"><path d="m10.953 22c-.096 0-.191-.027-.274-.082-3.964-2.593-7.21-5.839-9.647-9.648-.105-.164-.105-.375 0-.539 2.437-3.81 5.683-7.056 9.647-9.649.13-.086.292-.104.439-.054.146.052.261.168.31.315.022.068.529 1.637.841 4.715.793-.04 1.461-.059 2.075-.059 3.618 0 7.624.562 7.664.567.169.024.314.133.385.288.025.055.607 1.368.607 4.145s-.583 4.09-.607 4.145c-.071.155-.216.264-.385.288-.04.006-4.046.567-7.664.567-.613 0-1.281-.019-2.075-.059-.312 3.078-.818 4.646-.841 4.715-.064.202-.264.346-.475.344zm-8.904-10c2.219 3.39 5.11 6.312 8.603 8.697.185-.77.478-2.22.667-4.325.024-.269.263-.479.526-.454.991.056 1.785.082 2.499.082 2.983 0 6.243-.391 7.227-.518.148-.469.43-1.608.43-3.482s-.281-3.012-.43-3.482c-.984-.127-4.244-.518-7.227-.518-.714 0-1.508.026-2.499.082-.264.025-.502-.186-.526-.454-.189-2.105-.482-3.556-.667-4.325-3.493 2.386-6.384 5.308-8.603 8.697z"/></svg>