<svg id="Layer_1" viewBox="0 0 24 24" xmlns="http://www.w3.org/2000/svg" data-name="Layer 1"><path d="m16.5 19.5c1.706 0 2.5-.794 2.5-2.5s-.794-2.5-2.5-2.5-2.5.794-2.5 2.5.794 2.5 2.5 2.5zm0-4c1.149 0 1.5.351 1.5 1.5s-.351 1.5-1.5 1.5-1.5-.351-1.5-1.5.351-1.5 1.5-1.5zm-4.879 6.514c-.026-.006-.26-.061-.634-.13-.064-1.862-.557-2.665-.617-2.753-.07-.103-.176-.176-.298-.205-.06-.014-1.238-.288-2.633-.388.469-.712 1.06-1.763 1.06-2.538 0-1.346-.654-2-2-2s-2 .654-2 2c0 .775.592 1.826 1.06 2.538-1.395.099-2.573.373-2.633.388-.122.029-.228.103-.298.205-.06.089-.553.891-.617 2.753-.374.069-.607.124-.634.13-.268.067-.431.339-.364.606.066.269.339.428.606.364.02-.005 1.984-.485 4.879-.485s4.859.48 4.879.485c.261.066.54-.094.606-.364.067-.268-.096-.539-.364-.606zm-5.121-7.014c.794 0 1 .206 1 1 0 .508-.517 1.434-1 2.147-.483-.713-1-1.638-1-2.147 0-.794.206-1 1-1zm-3.475 6.726c.056-1.005.245-1.618.355-1.875.51-.106 1.825-.351 3.12-.351s2.609.244 3.12.351c.112.261.299.874.356 1.875-.878-.117-2.059-.226-3.475-.226s-2.597.109-3.475.226zm4.975-15.226c0-.276.224-.5.5-.5h10c.276 0 .5.224.5.5s-.224.5-.5.5h-10c-.276 0-.5-.224-.5-.5zm0 4c0-.276.224-.5.5-.5h10c.276 0 .5.224.5.5s-.224.5-.5.5h-10c-.276 0-.5-.224-.5-.5zm15 1.5c0 5.248-.972 9.392-1.014 9.566-.042.179-.181.32-.359.367-.139.037-3.455.897-7.107 1.046h-.021c-.267 0-.488-.211-.499-.479-.011-.276.203-.509.479-.521 2.933-.118 5.709-.729 6.599-.94.22-1.039.921-4.695.921-9.039s-.702-8-.921-9.039c-.988-.235-4.306-.961-7.579-.961s-6.591.726-7.579.961c-.22 1.039-.921 4.695-.921 9.039 0 .276-.224.5-.5.5s-.5-.224-.5-.5c0-5.248.972-9.392 1.014-9.566.042-.179.181-.32.359-.367.166-.044 4.108-1.066 8.127-1.066s7.961 1.022 8.127 1.066c.179.047.317.188.359.367.042.174 1.014 4.318 1.014 9.566z"/></svg>