<?xml version="1.0" encoding="UTF-8"?>
<svg xmlns="http://www.w3.org/2000/svg" id="Layer_1" data-name="Layer 1" viewBox="0 0 24 24">
  <path d="M22.126,6.337c-.002-.006-.004-.013-.006-.019,1.044-1.263,.979-3.149-.198-4.333-.604-.609-1.407-.944-2.263-.944h0c-.758,0-1.475,.263-2.049,.746-.004,0-.007-.002-.011-.003C12.16,.199,7.422,1.064,4.259,4.213,1.058,7.4,.199,12.17,1.841,17.644c.002,.007,.004,.014,.006,.021-1.045,1.263-.98,3.151,.196,4.336,1.14,1.147,3.091,1.226,4.313,.198,.004,.001,.008,.002,.013,.004,1.798,.526,3.518,.786,5.128,.786,3.273,0,6.097-1.074,8.208-3.176,3.252-3.237,4.111-8.023,2.42-13.477Zm-3.125,12.768c-2.922,2.908-7.194,3.647-12.35,2.139-.181-.053-.324-.095-.451-.095-.123,0-.229,.04-.337,.148-.83,.835-2.277,.836-3.109,0-.86-.867-.86-2.277,0-3.143,.219-.22,.154-.438,.046-.797-1.553-5.178-.805-9.478,2.166-12.435,2.937-2.923,7.208-3.676,12.355-2.178,.341,.098,.564,.165,.784-.055,.416-.418,.968-.649,1.555-.649h0c.587,0,1.139,.23,1.554,.648,.86,.867,.86,2.276,0,3.144-.221,.223-.153,.44-.041,.801,1.599,5.154,.848,9.467-2.17,12.471Z"/>
  <g>
    <circle cx="18.29" cy="11.17" r=".75"/>
    <circle cx="14.24" cy="12.185" r=".75"/>
    <circle cx="16.72" cy="15.515" r=".75"/>
  </g>
</svg>
