<?xml version="1.0" encoding="UTF-8"?>
<svg xmlns="http://www.w3.org/2000/svg" id="Layer_1" data-name="Layer 1" viewBox="0 0 24 24">
  <path d="M20.538,6.892C18.312,2.349,15.322,1.089,15.196,1.037c-.119-.048-.254-.049-.373-.002-.125,.049-3.098,1.265-5.349,5.856-.121,.248-.019,.547,.229,.669,.245,.12,.547,.02,.669-.229,1.455-2.967,3.201-4.397,4.143-4.998,.039,2.348,.164,11.533-.205,16.39-.104,1.366-1.043,2.528-2.337,2.892-2.321,.651-5.918,.402-7.919-.199-.261-.08-.543,.07-.622,.335-.08,.264,.07,.543,.335,.622,1.269,.382,3.074,.629,4.86,.629,1.284,0,2.559-.128,3.615-.424,1.697-.476,2.929-1.994,3.065-3.778,.369-4.873,.248-14.028,.208-16.447,.949,.617,2.694,2.062,4.123,4.978,.087,.178,.265,.28,.449,.28,.074,0,.149-.017,.22-.051,.248-.122,.351-.421,.229-.669Z"/>
</svg>
