<?xml version="1.0" encoding="UTF-8"?>
<svg xmlns="http://www.w3.org/2000/svg" id="Layer_1" data-name="Layer 1" viewBox="0 0 24 24">
  <path d="M19.45,17.32c-.095-.121-.239-.192-.394-.192h-2.74l-.003-.898c.019-3.327-.01-7.957-.249-11.122-.133-1.744-1.334-3.229-2.989-3.695-2.472-.693-6.148-.442-8.277,.2-.265,.08-.414,.358-.334,.623,.08,.264,.36,.414,.623,.334,1.949-.588,5.454-.831,7.717-.194,1.252,.353,2.163,1.48,2.262,2.809,.237,3.131,.266,7.732,.247,11.039l.003,.905h-2.738c-.154,0-.299,.071-.394,.192s-.128,.279-.091,.429c.839,3.37,3.432,5.16,3.458,5.176,.052,.032,.108,.054,.166,.064,.034,.007,.069,.011,.104,.011,.092,0,.184-.025,.264-.075,.026-.016,2.618-1.805,3.457-5.176,.037-.149,.003-.308-.092-.429Z"/>
</svg>
