<svg id="Layer_1" viewBox="0 0 24 24" xmlns="http://www.w3.org/2000/svg" data-name="Layer 1"><path d="m22.354 4.354-1.5 1.5c-.195.195-.512.195-.707 0s-.195-.512 0-.707l1.5-1.5c.195-.195.512-.195.707 0s.195.512 0 .707zm-4.951-.397c.246.112.548.002.661-.253l.893-2c.112-.252 0-.548-.253-.66-.253-.114-.549 0-.661.253l-.893 2c-.112.252 0 .548.253.66zm-13.549 1.189-1.5-1.5c-.195-.195-.512-.195-.707 0s-.195.512 0 .707l1.5 1.5c.195.195.512.195.707 0s.195-.512 0-.707zm2.082-1.442c.113.254.414.365.66.253.252-.112.366-.408.253-.66l-.893-2c-.112-.252-.408-.368-.66-.253-.252.112-.366.408-.253.66zm14.064 7.827c0 3.402-1.436 5.776-4.151 6.863-.325.13-.534.438-.573.845-.058.592-.135 1.098-.221 1.681-.149 1.028-.946 1.83-1.982 1.995-.353.057-.714.085-1.072.085-.369 0-.739-.03-1.102-.09-1.034-.169-1.83-.975-1.982-2.004-.085-.579-.143-1.107-.205-1.653-.034-.303-.162-.698-.578-.865-2.705-1.091-4.134-3.462-4.134-6.856 0-4.786 2.916-7.531 8-7.531s8 2.745 8 7.531zm-5.721 7.611c.013-.137.052-.263.088-.389-.678.13-1.516.247-2.367.247-.856 0-1.702-.12-2.386-.252.036.127.076.253.091.392.06.536.117 1.053.2 1.621.088.596.552 1.063 1.155 1.163.61.1 1.244.101 1.855.004.602-.096 1.063-.559 1.149-1.151.083-.567.159-1.058.215-1.634zm4.721-7.611c0-5.398-3.807-6.531-7-6.531s-7 1.133-7 6.531c0 2.99 1.177 4.983 3.497 5.923.136.041 1.52.444 3.003.527v-5.045c-.559-.131-1.117-.48-1.72-1.083-.195-.195-.195-.512 0-.707s.512-.195.707 0c.586.582 1.04.862 1.535.858.462-.009.926-.293 1.491-.858.195-.195.512-.195.707 0s.195.512 0 .707c-.602.603-1.16.952-1.72 1.083v5.045c1.48-.082 2.852-.48 2.988-.521 2.33-.938 3.512-2.932 3.512-5.93z"/></svg>