<svg id="Layer_1" viewBox="0 0 24 24" xmlns="http://www.w3.org/2000/svg" data-name="Layer 1"><path d="m12 1c-5.804 0-9 3.008-9 8.469 0 3.852 1.632 6.527 4.719 7.739.305.12.604.554.616.894.041 1.139.138 1.917.236 2.589.167 1.133 1.045 2.021 2.184 2.208.408.068.827.102 1.245.102.405 0 .812-.032 1.209-.096 1.143-.183 2.021-1.066 2.187-2.2.099-.677.207-1.493.253-2.602.017-.4.258-.749.616-.888 3.098-1.208 4.735-3.886 4.735-7.745 0-5.461-3.196-8.469-9-8.469zm1.051 20.917c-.7.113-1.432.111-2.133-.005-.708-.117-1.254-.666-1.356-1.367-.077-.525-.151-1.128-.198-1.92.59.156 1.601.375 2.637.375 1.023 0 2.023-.214 2.616-.37-.052.778-.133 1.402-.211 1.929-.102.698-.646 1.244-1.354 1.357zm2.851-5.634c-.568.222-.983.698-1.158 1.274-.338.103-1.549.444-2.743.444-1.219 0-2.464-.358-2.77-.452-.191-.559-.63-1.069-1.146-1.271-2.71-1.063-4.084-3.354-4.084-6.808 0-6.173 4.351-7.469 8-7.469s8 1.296 8 7.469c0 3.46-1.379 5.753-4.099 6.813zm-3.151-2.282c0 .414-.336.75-.75.75s-.75-.336-.75-.75.336-.75.75-.75.75.336.75.75zm0 0c0 .414-.336.75-.75.75s-.75-.336-.75-.75.336-.75.75-.75.75.336.75.75zm-.75-2c-.276 0-.5-.224-.5-.5.034-1.246 1.09-1.48 1.585-1.646.476-.167.915-.506.915-1.854 0-1.514-.486-2-2-2s-2 .486-2 2c0 .276-.224.5-.5.5s-.5-.224-.5-.5c0-2.075.925-3 3-3s3 .925 3 3c0 .963-.164 2.301-1.585 2.798-.478.136-.954.303-.915.702 0 .276-.224.5-.5.5z"/></svg>