<svg id="Layer_1" viewBox="0 0 24 24" xmlns="http://www.w3.org/2000/svg" data-name="Layer 1"><path d="m12.517 6.014-.017-4.516c0-.275-.225-.498-.5-.498h-.002c-.276 0-.499.226-.498.502l.017 4.512c-7.439.142-10.498 3.423-10.498 11.256 0 .728.039 1.452.122 2.28.026.256.241.45.498.45h7.365c.018 2.072.943 3 2.996 3s2.978-.928 2.996-3h7.403c.257 0 .472-.194.498-.45.083-.831.122-1.556.122-2.302 0-7.813-3.06-11.093-10.502-11.234zm-.517 15.986c-1.493 0-1.984-.491-1.997-2h3.995c-.013 1.509-.504 2-1.997 2zm9.944-3h-19.849c-.051-.613-.076-1.176-.076-1.752 0-7.375 2.804-10.248 10-10.248s10 2.873 10 10.27c0 .558-.024 1.116-.075 1.73z"/></svg>