<svg id="Layer_1" viewBox="0 0 24 24" xmlns="http://www.w3.org/2000/svg" data-name="Layer 1"><path d="m20.008 2.588c-.041-.164-.161-.296-.321-.352-.145-.05-3.599-1.236-7.687-1.236s-7.541 1.185-7.687 1.236c-.16.056-.281.188-.321.354-.041.166-.992 4.117-.992 9.411 0 5.339.951 9.248.992 9.412s.161.296.321.352c.145.05 3.599 1.236 7.687 1.236s7.541-1.185 7.687-1.236c.16-.056.281-.188.321-.354.041-.166.992-4.117.992-9.411 0-5.339-.951-9.248-.992-9.412zm-.91 18.315c-.872.27-3.813 1.097-7.098 1.097s-6.229-.827-7.099-1.097c-.212-.97-.901-4.471-.901-8.903 0-4.397.69-7.926.902-8.903.872-.27 3.813-1.097 7.098-1.097s6.229.827 7.099 1.097c.212.97.901 4.471.901 8.903 0 4.397-.69 7.926-.902 8.903z"/><path d="m15.461 5.606c-2.411-.539-4.502-.54-6.919 0-.206.045-.361.216-.388.425-.173 1.37-.38 3.518-.38 5.969s.205 4.604.377 5.969c.026.209.182.38.388.426 1.208.269 2.373.405 3.461.405s2.251-.136 3.459-.405c.206-.046.361-.216.388-.426.173-1.374.379-3.524.379-5.969 0-1.974-.127-3.982-.377-5.969-.026-.209-.182-.379-.388-.425zm-.562.903c.194 1.644.304 3.353.323 4.991h-6.445c.023-1.993.179-3.751.326-4.991 2.025-.411 3.772-.41 5.796 0zm-5.799 10.982c-.145-1.237-.3-2.992-.323-4.991h6.445c-.023 1.989-.179 3.748-.325 4.991-2.028.411-3.771.411-5.797 0z"/></svg>