<svg id="Layer_1" viewBox="0 0 24 24" xmlns="http://www.w3.org/2000/svg" data-name="Layer 1"><path d="m11.913 2.195c-.349-.194-.752-.24-1.137-.13-.795.227-1.259 1.057-1.034 1.853.115.406 1.117 4.024 1.24 7.572.01.276-.206.507-.482.517-.274.011-.508-.206-.517-.482-.086-2.473-.613-4.979-.943-6.336-.15-.78-.977-1.307-1.812-1.157-.813.15-1.353.934-1.203 1.747.045.244.107.548.178.898.317 1.555.796 3.906.796 5.83 0 .132-.016.369-.037.618.602.56 1.263 1.239 1.927 2.07.172.216.137.53-.078.703-.216.172-.53.137-.703-.078-1.922-2.402-3.9-3.61-3.92-3.622-.539-.303-1.187-.245-1.677.153-.473.385-.641 1.048-.408 1.612.022.059 1.833 4.694 5.603 7.574.244.043.885.149 1.844.25.275.028.474.274.445.549-.027.275-.279.476-.549.445-1.291-.135-2.016-.278-2.046-.284-.073-.015-.142-.046-.202-.09-4.067-3.051-5.945-7.87-6.023-8.075-.395-.957-.106-2.095.706-2.757.803-.655 1.908-.75 2.812-.242.049.029.561.345 1.3.943-.036-1.784-.473-3.945-.77-5.399-.073-.357-.136-.668-.182-.917-.25-1.356.65-2.661 2.005-2.911.59-.108 1.165-.003 1.656.245.089-1.005.775-1.899 1.799-2.19.641-.184 1.315-.106 1.898.218.622.344 1.051.924 1.221 1.614.355-.437.836-.748 1.394-.87.65-.143 1.318-.023 1.881.337.564.36.953.918 1.097 1.57.051.235.11.526.171.839.382-.412.881-.689 1.445-.775 1.365-.209 2.64.732 2.848 2.094.265 1.733.545 4.557.545 6.377 0 .715-.024 1.4-.072 2.038-.021.262-.239.462-.498.462-.29.003-.523-.25-.5-.538.047-.612.07-1.272.07-1.962 0-1.771-.274-4.529-.533-6.226-.125-.818-.9-1.382-1.709-1.257-.396.061-.745.271-.982.594-.238.323-.336.719-.275 1.115 0 .005-.001.009 0 .014.23 1.478.438 3.194.485 4.745.008.276-.209.506-.484.515-.275.008-.507-.208-.516-.485-.08-2.662-.646-5.864-.969-7.336-.086-.391-.32-.725-.658-.942-.339-.216-.738-.289-1.128-.203-.392.086-.727.319-.943.656-.208.325-.279.709-.207 1.086.373 1.67.829 4.175.906 6.708.008.276-.209.506-.485.515-.264.013-.506-.209-.515-.485-.073-2.431-.507-4.836-.867-6.459-.211-.959-.448-1.828-.489-1.963-.112-.391-.365-.71-.715-.905zm11.013 17.956c.141.527.065 1.102-.208 1.573-.293.506-.784.848-1.347.937-.609.1-2.213.333-3.876.333-1.729 0-3.419-.258-3.897-.337-.551-.088-1.037-.429-1.329-.936-.271-.47-.346-1.045-.204-1.579.163-.628.6-1.941 1.697-3.641 1.256-1.945 2.279-2.854 2.564-3.085.651-.525 1.681-.528 2.32-.013.288.234 1.319 1.146 2.577 3.099 1.099 1.695 1.537 3.014 1.701 3.649zm-.967.258c-.15-.584-.553-1.786-1.574-3.364-1.179-1.829-2.109-2.654-2.366-2.863-.139-.111-.323-.174-.519-.174-.201 0-.395.065-.543.186-.252.206-1.176 1.028-2.354 2.852-1.021 1.581-1.422 2.778-1.569 3.352-.076.283-.038.583.102.825.142.244.368.408.624.448.461.077 2.083.324 3.735.324 1.634 0 3.258-.245 3.717-.32.267-.042.499-.206.641-.451.141-.243.18-.54.106-.813zm-4.464-1.415c.276 0 .5-.224.5-.5v-2.5c0-.276-.224-.5-.5-.5s-.5.224-.5.5v2.5c0 .276.224.5.5.5zm0 .75c-.414 0-.75.336-.75.75s.336.75.75.75.75-.336.75-.75-.336-.75-.75-.75z"/></svg>