<?xml version="1.0" encoding="UTF-8"?>
<svg xmlns="http://www.w3.org/2000/svg" id="Layer_1" data-name="Layer 1" viewBox="0 0 24 24">
  <path d="M9.41,15.326l5.887-5.948c.194-.196,.192-.513-.004-.707-.196-.194-.513-.193-.707,.004l-5.887,5.948c-.194,.196-.192,.513,.004,.707,.097,.096,.225,.145,.352,.145,.129,0,.258-.049,.355-.148Z"/>
  <path d="M15.648,17.824c-.073,.073-7.369,7.264-12.061,2.575-1.939-1.936-2.12-4.522-.537-7.686,1.228-2.455,3.098-4.339,3.117-4.358,.195-.195,.195-.512,0-.707s-.512-.195-.707,0c-.183,.183-4.473,4.518-4.472,8.98,0,1.718,.637,3.225,1.893,4.479,1.372,1.37,2.912,1.881,4.448,1.881,4.502,0,8.967-4.398,9.027-4.458,.195-.195,.195-.512,0-.707-.195-.195-.512-.195-.707,0Z"/>
  <path d="M21.117,2.893C15.725-2.491,7.721,5.39,7.641,5.469c-.195,.195-.195,.512,0,.707s.512,.195,.707,0c.073-.073,7.375-7.257,12.062-2.575,1.063,1.062,1.603,2.332,1.603,3.776,0,4.045-4.14,8.226-4.182,8.268-.195,.195-.196,.512,0,.707,.098,.098,.226,.147,.354,.147s.255-.049,.353-.146c.183-.182,4.474-4.511,4.476-8.973,0-1.72-.637-3.229-1.896-4.487Z"/>
</svg>
