<svg id="Layer_1" viewBox="0 0 24 24" xmlns="http://www.w3.org/2000/svg" data-name="Layer 1"><path d="m12.028 18.906c-2.08 2.082-3.825 3.094-5.337 3.094-1.064 0-2.056-.497-3.122-1.564-1.8-1.802-2.86-4.076 1.523-8.467l1.013-.99c.197-.193.201-.509.008-.707-.192-.197-.509-.201-.707-.008l-1.017.994c-3.941 3.947-4.411 6.995-1.527 9.885 1.248 1.25 2.501 1.857 3.829 1.857 1.79 0 3.768-1.108 6.044-3.387.195-.195.195-.512 0-.707s-.512-.195-.707 0z"/><path d="m12.976 15.875c-1.122.053-2.17-.442-3.287-1.561-.984-.986-1.479-1.893-1.559-2.855-.022-.275-.271-.478-.539-.458-.275.023-.479.264-.457.54.098 1.194.702 2.333 1.848 3.479 1.246 1.249 2.502 1.858 3.832 1.858.069 0 .14-.001.211-.005.275-.013.488-.248.475-.523-.014-.275-.217-.493-.523-.476z"/><path d="m22.848 22.142-6.726-6.727c1.082-.552 2.226-1.422 3.488-2.685 3.941-3.947 4.413-6.995 1.527-9.884-1.239-1.241-2.491-1.845-3.827-1.845-1.8 0-3.778 1.104-6.046 3.375-.195.195-.195.512 0 .707s.512.195.707 0c2.071-2.074 3.817-3.082 5.339-3.082 1.071 0 2.062.493 3.12 1.552 1.8 1.802 2.861 4.076-1.527 8.47-1.306 1.308-2.459 2.168-3.524 2.649l-5.706-5.707c1.434-.306 2.738.15 3.974 1.388.098.098.226.147.354.147s.256-.049.354-.146c.195-.195.195-.512 0-.707-1.649-1.651-3.493-2.145-5.488-1.489l-7.008-7.007c-.195-.195-.512-.195-.707 0s-.195.512 0 .707l20.989 20.991c.098.098.226.146.354.146s.256-.049.354-.146c.195-.195.195-.512 0-.707z"/></svg>