<svg id="Layer_1" viewBox="0 0 24 24" xmlns="http://www.w3.org/2000/svg" data-name="Layer 1"><path d="m14 7c-2.474 0-3.427-.107-4.436-.222-.087-.01-.237-.05-.308-.102-.046-.034-1.135-.844-2.172-2.399-.112-.168-.112-.387 0-.555 1.037-1.555 2.126-2.366 2.172-2.4.071-.052.153-.084.24-.094 1.072-.121 2.026-.229 4.503-.229 3.019 0 5.331.49 5.428.511.189.041.337.186.382.374.007.033.19.822.19 2.115s-.183 2.082-.19 2.115c-.044.188-.193.333-.382.374-.097.021-2.409.511-5.428.511zm-4.25-1.207c.993.112 1.942.207 4.25.207 2.267 0 4.159-.294 4.892-.426.047-.316.108-.86.108-1.574s-.061-1.257-.108-1.574c-.733-.132-2.625-.426-4.892-.426-2.356 0-3.296.099-4.25.207-.251.206-.943.815-1.643 1.793.704.985 1.392 1.589 1.643 1.793zm5.25 9.207c-2.173 0-4.231-.085-5.503-.229-.087-.01-.169-.042-.24-.094-.046-.034-1.135-.844-2.172-2.399-.112-.168-.112-.387 0-.555 1.037-1.555 2.126-2.366 2.172-2.4.071-.052.153-.084.24-.094 1.27-.143 3.327-.229 5.503-.229 4.129 0 7.158.486 7.285.506.174.028.32.146.385.311.013.034.33.854.33 2.183s-.317 2.149-.33 2.183c-.065.164-.211.282-.385.311-.127.021-3.156.506-7.285.506zm-5.251-1.208c.621.064 2.342.208 5.251.208 3.306 0 5.949-.327 6.819-.448.077-.299.181-.837.181-1.552s-.104-1.252-.181-1.552c-.871-.122-3.513-.448-6.819-.448-2.911 0-4.629.144-5.25.208-.252.207-.943.815-1.642 1.792.703.983 1.39 1.587 1.642 1.792zm3.751 9.208c-2.495-.007-2.733-.083-4.003-.229-.087-.01-.169-.042-.24-.094-.046-.034-1.135-.844-2.172-2.399-.112-.168-.112-.387 0-.555 1.037-1.555 2.126-2.366 2.172-2.4.071-.052.153-.084.24-.094 1.267-.146 1.509-.221 4.003-.229 2.467 0 4.878.489 4.98.51.204.042.36.205.393.41.005.032.127.804.127 2.08s-.122 2.047-.127 2.08c-.033.205-.189.368-.393.41-.102.021-2.513.51-4.98.51zm-3.749-1.206.318.038c.759.094 1.358.168 3.43.168 1.831 0 3.675-.291 4.427-.424.033-.326.073-.869.073-1.576s-.04-1.25-.073-1.576c-.752-.133-2.599-.424-4.427-.424-2.074 0-2.673.074-3.433.167l-.315.038c-.25.206-.943.814-1.645 1.795.705.987 1.395 1.591 1.644 1.794zm-6.751-15.794c-1.346 0-2-.654-2-2s.654-2 2-2 2 .654 2 2-.654 2-2 2zm0-3c-.794 0-1 .206-1 1s.206 1 1 1 1-.206 1-1-.206-1-1-1zm0 11c-1.346 0-2-.654-2-2s.654-2 2-2 2 .654 2 2-.654 2-2 2zm0-3c-.794 0-1 .206-1 1s.206 1 1 1 1-.206 1-1-.206-1-1-1zm0 11c-1.346 0-2-.654-2-2s.654-2 2-2 2 .654 2 2-.654 2-2 2zm0-3c-.794 0-1 .206-1 1s.206 1 1 1 1-.206 1-1-.206-1-1-1z"/></svg>