<svg id="Layer_1" viewBox="0 0 24 24" xmlns="http://www.w3.org/2000/svg" data-name="Layer 1"><path d="m22.5 1c-1.377 0-2.616.149-3.684.442-1.069.293-1.816 1.283-1.816 2.407v9.854c-.869-1.154-2.32-1.703-4.5-1.703-3.855 0-5.5 1.645-5.5 5.5s1.645 5.5 5.5 5.5 5.5-1.645 5.5-5.5v-13.651c0-.675.444-1.268 1.081-1.442.981-.27 2.132-.406 3.419-.406.276 0 .5-.224.5-.5s-.224-.5-.5-.5zm-10 21c-3.28 0-4.5-1.22-4.5-4.5s1.22-4.5 4.5-4.5 4.5 1.22 4.5 4.5-1.22 4.5-4.5 4.5zm.499-20.354c-.019.276-.28.474-.532.466-1.113-.075-2.279-.112-3.467-.112-3.954 0-6.297.395-7.5.56-.276 0-.5-.224-.5-.5 0-.256.195-.468.443-.497.996-.155 3.633-.563 7.557-.563 1.209 0 2.398.039 3.533.114.275.019.484.257.466.532zm0 5c-.019.276-.28.48-.532.466-1.113-.075-2.279-.112-3.467-.112-3.954.002-6.297.39-7.5.563-.276 0-.5-.224-.5-.5 0-.257.194-.471.443-.499.996-.155 3.633-.563 7.557-.563 1.209 0 2.398.039 3.533.114.275.019.484.257.466.532zm-6 4.887c.014.276-.2.51-.476.523-2.571.112-4.1.389-5.023.499-.276 0-.5-.224-.5-.5 0-.256.195-.459.444-.489v-.003s0 .002 0 .003c.834-.129 2.559-.394 5.032-.509.276-.01.511.201.522.476z"/></svg>