<svg id="Layer_1" viewBox="0 0 24 24" xmlns="http://www.w3.org/2000/svg" data-name="Layer 1"><path d="m20.658 21.975c-.126.042-3.125 1.025-7.283 1.025-3.748 0-7.063-.768-7.202-.801-.194-.045-.344-.202-.378-.399-.007-.043-.714-4.109-.788-8.99-.435.202-.86.41-1.271.63-.238.13-.546.041-.677-.204-.131-.244-.039-.547.204-.677.557-.298 1.141-.575 1.74-.841.035-5.143.996-10.26 1.006-10.312.052-.271.309-.45.585-.397.271.052.449.313.397.585-.009.049-.901 4.799-.983 9.699 2.383-.954 5.117-1.698 8.404-2.285.269-.045.532.132.58.404.049.271-.133.531-.404.58-3.392.606-6.182 1.376-8.585 2.376.03 4.184.551 7.837.723 8.927.921.19 3.68.704 6.649.704 3.986 0 6.937-.965 6.967-.975.262-.086.545.055.633.316.087.263-.055.545-.316.633z"/></svg>