<svg id="Layer_1" viewBox="0 0 24 24" xmlns="http://www.w3.org/2000/svg" data-name="Layer 1"><path d="m22.5 11.5h-1.507c-.2-7.275-4.785-8.409-8.493-8.494v-1.506c0-.276-.224-.5-.5-.5s-.5.224-.5.5v1.507c-5.554.156-8.337 2.939-8.493 8.493h-1.507c-.276 0-.5.224-.5.5s.224.5.5.5h1.507c.149 5.631 2.862 8.344 8.493 8.493v1.507c0 .276.224.5.5.5s.5-.224.5-.5v-1.506c3.708-.085 8.293-1.22 8.493-8.494h1.507c.276 0 .5-.224.5-.5s-.224-.5-.5-.5zm-10.5 8.5c-5.607 0-8-2.393-8-8 0-5.533 2.467-8 8-8 5.607 0 8 2.393 8 8s-2.393 8-8 8z"/><path d="m12 7c-3.364 0-5 1.636-5 5 0 4.482 2.854 5 5 5 2.328 0 5-.568 5-5 0-4.482-2.854-5-5-5zm0 9c-2.401 0-4-.68-4-4 0-2.841 1.159-4 4-4 2.401 0 4 .68 4 4s-1.599 4-4 4z"/></svg>