<svg id="Layer_1" viewBox="0 0 24 24" xmlns="http://www.w3.org/2000/svg" data-name="Layer 1"><path d="m22.854 22.146-4.204-4.204c2.223-2.377 3.351-4.711 3.351-6.942 0-5.327-4.673-10-10-10-2.545 0-5.187 1.176-7.133 3.16l-3.014-3.014c-.195-.195-.512-.195-.707 0s-.195.512 0 .707l20.999 21.001c.098.098.226.146.354.146s.256-.049.354-.146c.195-.195.195-.512 0-.707zm-10.854-20.146c4.248 0 9 3.849 9 9 0 1.963-1.029 4.059-3.058 6.235l-3.068-3.068c.757-.655 1.126-1.695 1.126-3.167 0-3.585-2.283-4-4-4-1.453 0-2.489.376-3.148 1.145l-3.278-3.278c1.761-1.8 4.142-2.867 6.426-2.867zm-2.438 6.855c.463-.582 1.245-.855 2.438-.855 1.853 0 3 .502 3 3 0 1.172-.262 1.968-.843 2.45l-4.594-4.594z"/><path d="m15.933 19.131c-1.701 1.432-3.333 2.438-3.933 2.792-1.456-.854-9-5.54-9-10.923 0-1.306.309-2.539.944-3.771.126-.246.03-.547-.215-.674-.248-.128-.547-.03-.674.215-.71 1.377-1.056 2.76-1.056 4.229 0 6.521 9.361 11.72 9.76 11.938.075.041.158.062.24.062.083 0 .167-.021.242-.062.086-.047 2.125-1.181 4.335-3.041.211-.178.238-.494.061-.705-.18-.211-.493-.237-.705-.061z"/></svg>