<svg id="Layer_1" viewBox="0 0 24 24" xmlns="http://www.w3.org/2000/svg" data-name="Layer 1"><path d="m20.942 10.553c.035-.343.058-.644.058-1.227 0-3.675-.846-5.973-.882-6.069-.052-.138-.161-.247-.301-.296-.107-.038-2.69-.935-7.817-.935s-7.71.897-7.817.935c-.14.049-.249.158-.301.296-.036.096-.882 2.394-.882 6.069 0 .584.023.884.058 1.227-1.396.134-2.058.926-2.058 2.491.138 3.704.987 6.45 1.022 6.564.05.158.174.281.332.329.057.017.626.186 1.646.385v1.203c0 .276.224.5.5.5s.5-.224.5-.5v-1.025c1.642.265 4.009.524 7 .524s5.358-.259 7-.524v1.025c0 .276.224.5.5.5s.5-.224.5-.5v-1.203c1.02-.199 1.589-.368 1.646-.385.158-.048.282-.171.332-.329.035-.115.885-2.861 1.022-6.583 0-1.548-.662-2.338-2.058-2.472zm-16.199-6.72c.721-.208 3.158-.808 7.257-.808s6.536.6 7.257.808c.202.649.743 2.649.743 5.492 0 .594-.025.859-.064 1.235-1.265.166-1.869.935-1.934 2.424-.082 1.001-.192 1.948-.253 2.437-.599.125-1.968.378-3.767.504-.931.003-1.579.251-1.982.743-.403-.492-1.052-.74-1.982-.743-1.799-.126-3.168-.379-3.767-.504-.061-.488-.171-1.43-.251-2.418-.067-1.505-.67-2.277-1.936-2.443-.04-.376-.064-.641-.064-1.235 0-2.843.541-4.843.743-5.492zm-2.743 9.192c0-1.149.351-1.5 1.5-1.5 1.125 0 1.448.327 1.502 1.541.119 1.469.301 2.821.303 2.834.027.203.176.369.375.418.069.017 1.747.429 4.285.606h.035c1.163 0 1.5.329 1.5 1.465v1.631c-4.66-.047-7.723-.746-8.598-.972-.209-.759-.794-3.111-.902-6.025zm19.098 6.026c-.875.227-3.938.925-8.598.972v-1.631c0-1.137.337-1.465 1.5-1.465h.035c2.538-.178 4.216-.589 4.285-.606.199-.05.348-.215.375-.418.002-.014.184-1.366.305-2.853.052-1.195.375-1.522 1.5-1.522 1.149 0 1.5.351 1.5 1.481-.108 2.929-.693 5.284-.902 6.044z"/></svg>