<svg id="Layer_1" viewBox="0 0 24 24" xmlns="http://www.w3.org/2000/svg" data-name="Layer 1"><path d="m22.854 22.117-3.611-3.611c1.701-1.476 2.961-3.611 3.739-6.37.025-.089.025-.183 0-.271-1.643-5.83-5.335-8.812-10.986-8.864-2.497.023-4.638.659-6.382 1.878l-3.76-3.762c-.195-.195-.512-.195-.707 0s-.195.512 0 .707l16.952 16.953s.002.005.004.008c.006.008.015.01.021.017l4.022 4.022c.195.195.512.195.707 0s.195-.512 0-.707zm-10.858-18.117c5.172.047 8.439 2.665 9.984 8-.734 2.531-1.896 4.473-3.446 5.797l-2.404-2.404c.579-.795.871-1.876.871-3.393 0-3.505-1.495-5-5-5-1.518 0-2.598.291-3.393.871l-2.275-2.275c1.55-1.035 3.451-1.575 5.664-1.596zm-2.675 4.584c.614-.389 1.471-.584 2.679-.584 2.953 0 4 1.047 4 4 0 1.208-.195 2.065-.584 2.679zm5.668 11.427c.195.195.195.512 0 .707s-.512.195-.707 0l-12.001-11.999c-.195-.195-.195-.512 0-.707s.512-.195.707 0l12 12zm-7.077-1.384c.195.195.195.512 0 .707s-.512.195-.707 0l-6.001-6c-.195-.195-.195-.512 0-.707s.512-.195.707 0l6 6z"/></svg>