<?xml version="1.0" encoding="UTF-8"?>
<svg xmlns="http://www.w3.org/2000/svg" id="Layer_1" data-name="Layer 1" viewBox="0 0 24 24">
  <path d="M17.849,8.365c-.276,0-.5,.224-.5,.5v1.011h-1.82c-1.223,0-2.217,.994-2.217,2.217v1.637c0,.276,.224,.5,.5,.5h2.32c1.223,0,2.217-.994,2.217-2.217v-3.147c0-.276-.224-.5-.5-.5Zm-.5,3.647c0,.671-.546,1.217-1.217,1.217h-1.82v-1.137c0-.671,.546-1.217,1.217-1.217h1.82v1.137Z"/>
  <path d="M8.472,9.876h-1.82v-1.011c0-.276-.224-.5-.5-.5s-.5,.224-.5,.5v3.147c0,1.223,.994,2.217,2.217,2.217h2.32c.276,0,.5-.224,.5-.5v-1.637c0-1.223-.994-2.217-2.217-2.217Zm1.217,3.354h-1.82c-.671,0-1.217-.546-1.217-1.217v-1.137h1.82c.671,0,1.217,.546,1.217,1.217v1.137Z"/>
  <path d="M11.987,1c-3.411-.021-5.934,.795-7.642,2.495-1.926,1.916-2.82,4.952-2.813,9.554,.007,5.285,1.201,8.041,4.122,9.512,1.432,.722,3.206,.391,4.428-.833,1.2-1.197,2.267-1.618,3.864-.015l.07,.072c.77,.795,1.785,1.217,2.799,1.217,.541,0,1.081-.12,1.582-.367,2.898-1.431,4.078-4.173,4.07-9.465-.007-5.636-1.205-12.112-10.48-12.17Zm5.967,20.738c-1.048,.519-2.342,.259-3.219-.648-.002-.002-.079-.081-.08-.082-.981-.985-1.864-1.344-2.645-1.344-1.089,0-1.978,.7-2.65,1.371-.903,.904-2.21,1.157-3.257,.633-2.53-1.274-3.565-3.772-3.571-8.621-.006-4.316,.794-7.127,2.519-8.843,1.509-1.503,3.777-2.199,6.931-2.204,6.728,.042,9.477,3.278,9.486,11.172,.007,4.849-1.011,7.331-3.514,8.566Z"/>
</svg>
