<svg id="Layer_1" viewBox="0 0 24 24" xmlns="http://www.w3.org/2000/svg" data-name="Layer 1"><path d="m10.561 20.615c-.191.806-.439 1.516-.739 2.109-.086.172-.265.279-.457.275-5.898-.126-8.364-1.261-8.364-7.963-.001-6.978 2.65-11.113 8.341-13.011.264-.087.545.056.632.316.087.262-.054.545-.316.633-5.225 1.741-7.658 5.574-7.658 12.062 0 6.061 2.049 6.821 7.062 6.955.206-.465.383-1.004.526-1.607.063-.27.333-.44.602-.371.269.063.435.333.371.602zm4.097-18.59c-.263-.087-.545.056-.632.316-.087.262.054.545.316.633 5.225 1.741 7.658 5.574 7.658 12.062 0 6.061-2.049 6.821-7.062 6.955-.206-.465-.383-1.004-.526-1.607-.063-.27-.334-.44-.602-.371-.269.063-.435.333-.371.602.191.806.439 1.516.739 2.109.086.172.265.279.457.275 5.898-.126 8.364-1.261 8.364-7.963 0-6.979-2.651-11.114-8.342-13.012zm-2.658 2.975c.276 0 .5-.224.5-.5v-3c0-.276-.224-.5-.5-.5s-.5.224-.5.5v3c0 .276.224.5.5.5zm.5 11.97v1.53c0 .276-.224.5-.5.5s-.5-.224-.5-.5v-1.53c-.584-.037-1.092-.137-1.524-.307-.059.876-.543 1.337-1.476 1.337-.995 0-1.5-.505-1.5-1.5 0-.933.461-1.417 1.337-1.476-.169-.431-.27-.94-.307-1.524h-1.53c-.276 0-.5-.224-.5-.5s.224-.5.5-.5h1.53c.037-.584.137-1.092.307-1.524-.876-.059-1.337-.543-1.337-1.476 0-.995.505-1.5 1.5-1.5.933 0 1.417.461 1.476 1.337.431-.169.94-.27 1.524-.307v-1.53c0-.276.224-.5.5-.5s.5.224.5.5v1.53c.584.037 1.092.137 1.524.307.059-.876.543-1.337 1.476-1.337.995 0 1.5.505 1.5 1.5 0 .933-.461 1.417-1.337 1.476.169.431.27.94.307 1.524h1.53c.276 0 .5.224.5.5s-.224.5-.5.5h-1.53c-.037.584-.137 1.092-.307 1.524.876.059 1.337.543 1.337 1.476 0 .995-.505 1.5-1.5 1.5-.933 0-1.417-.461-1.476-1.337-.431.169-.94.27-1.524.307zm-.5-.97c2.215 0 3-.785 3-3s-.785-3-3-3-3 .785-3 3 .785 3 3 3zm3.5 0c-.439 0-.5.061-.5.5s.061.5.5.5.5-.061.5-.5-.061-.5-.5-.5zm-.5-6.5c0 .439.061.5.5.5s.5-.061.5-.5-.061-.5-.5-.5-.5.061-.5.5zm-6.5.5c.439 0 .5-.061.5-.5s-.061-.5-.5-.5-.5.061-.5.5.061.5.5.5zm.5 6.5c0-.439-.061-.5-.5-.5s-.5.061-.5.5.061.5.5.5.5-.061.5-.5z"/></svg>