<svg id="Layer_1" viewBox="0 0 24 24" xmlns="http://www.w3.org/2000/svg" data-name="Layer 1"><path d="m20.435 1.438c-.024-.194-.16-.357-.348-.415-.187-.058-.392-.002-.521.145l-7.565 8.492-7.566-8.493c-.13-.147-.335-.203-.521-.145-.188.059-.323.221-.348.416-.006.045-.565 4.616-.565 10.562 0 6.018.976 10.562.985 10.606.059.271.329.44.595.382.27-.059.44-.325.382-.595-.01-.044-.962-4.49-.962-10.394 0-4.155.275-7.628.439-9.324l7.188 8.067c.189.213.557.213.746 0l7.188-8.067c.164 1.687.438 5.142.438 9.325 0 5.854-.953 10.35-.963 10.395-.058.27.123.605.49.605.23 0 .438-.16.488-.395.01-.046.984-4.638.984-10.605s-.56-10.518-.565-10.562z"/></svg>