<svg id="Layer_1" viewBox="0 0 24 24" xmlns="http://www.w3.org/2000/svg" data-name="Layer 1"><path d="m22.854 9.414c.171-.17.195-.438.059-.637-.025-.037-.055-.069-.087-.097-.132-.117-.612-.484-1.817-.912-.182-.556-.487-1.115-.924-1.694 1.638-1.767 2.046-3.547 2.064-3.627.057-.255-.094-.511-.345-.587-.093-.027-.187-.027-.275-.003-.334.085-1.963.559-3.594 2.067-.507-.38-1.068-.706-1.683-.906-.481-1.348-.879-1.793-.958-1.872-.171-.171-.438-.195-.637-.059-.036.025-.484.368-1.024 1.947-.532.176-1.089.464-1.672.892-1.803-1.642-3.649-2.079-3.649-2.079-.269-.052-.524.124-.58.389-.016.074-.014.148.003.217 0 0 .402 1.879 2.071 3.621-.434.585-.728 1.142-.909 1.673-1.346.481-1.791.879-1.869.957-.17.17-.195.438-.059.637.025.037.055.069.087.097.132.117.61.483 1.811.91.305.934.916 1.759 1.593 2.484l-9.314 9.314c-.195.195-.195.512 0 .707.098.098.226.146.354.146s.256-.049.354-.146l9.313-9.313c.859.797 1.665 1.313 2.467 1.577.479 1.336.874 1.778.953 1.856.097.097.225.146.354.146.099 0 .198-.029.284-.089.038-.026.603-.526 1.015-1.924.553-.185 1.111-.486 1.678-.906 1.867 1.798 3.71 2.078 3.743 2.078.221 0 .421-.147.482-.367.024-.091-.015-1.505-2.071-3.86.425-.569.73-1.129.918-1.683 1.342-.48 1.786-.877 1.864-.956zm-2.022-6.238c-.26.575-.694 1.348-1.396 2.126-.001-.001-.003-.002-.004-.004-.114-.123-.233-.247-.358-.372-.118-.118-.24-.236-.366-.353.776-.697 1.547-1.134 2.124-1.398zm-11.793-.003c.573.262 1.348.699 2.141 1.397-.002.002-.004.004-.005.006-.121.111-.243.228-.367.351-.124.124-.242.248-.354.37-.001.001-.003.002-.004.004-.718-.78-1.154-1.552-1.41-2.128zm11.786 11.787c-.576-.257-1.352-.691-2.131-1.401 0 0 0 0 .001-.001.126-.115.252-.236.379-.363.12-.12.235-.24.345-.359.002-.002.005-.004.007-.006.698.786 1.136 1.556 1.399 2.131zm-2.458-2.473c-1.322 1.322-2.513 1.923-3.672 1.833-.995-.076-2.006-.659-3.181-1.833-2.057-2.057-2.843-4.009 0-6.853 1.217-1.217 2.321-1.825 3.427-1.825s2.209.609 3.426 1.825c1.18 1.179 1.765 2.19 1.841 3.181.088 1.145-.514 2.346-1.841 3.672z"/><circle cx="15" cy="9" r="1.5"/></svg>