<svg id="Layer_1" viewBox="0 0 24 24" xmlns="http://www.w3.org/2000/svg" data-name="Layer 1"><path d="m18.006 3.003c-.993 0-1.497.504-1.497 1.497s.504 1.497 1.497 1.497 1.497-.504 1.497-1.497-.504-1.497-1.497-1.497zm0 1.996c-.438 0-.499-.06-.499-.499s.06-.499.499-.499.499.06.499.499-.06.499-.499.499zm0-3.999c-3.497 0-4.989 1.492-4.989 4.989s1.492 4.989 4.989 4.989 4.989-1.492 4.989-4.989-1.492-4.989-4.989-4.989zm0 8.98c-1.241 0-2.127-.201-2.757-.635.269-.733.873-1.353 2.757-1.353s2.489.621 2.757 1.354c-.63.434-1.517.634-2.757.634zm3.486-1.407c-.774-1.389-2.316-1.578-3.486-1.578s-2.711.19-3.486 1.578c-.351-.618-.506-1.461-.506-2.584 0-2.947 1.045-3.991 3.991-3.991s3.991 1.045 3.991 3.991c0 1.123-.155 1.966-.505 2.584zm-6.709 5.542c-.468-.468-.991-.863-1.554-1.174-.203-.112-.46-.069-.616.106-1.207 1.369-3.53 3.904-3.964 4.337-.778.778-1.262.778-2.039 0s-.775-1.223 0-1.998c.405-.404 2.889-2.69 4.335-3.965.175-.155.219-.41.106-.616-.312-.565-.707-1.088-1.174-1.554-.485-.486-1.03-.893-1.619-1.208-.166-.09-.371-.077-.525.033-1.547 1.099-2.488 1.673-4.36 3.539-3.157 3.156-3.157 5.849-.001 9.006 1.585 1.585 3.055 2.379 4.524 2.379s2.938-.793 4.523-2.379c1.867-1.873 2.44-2.815 3.539-4.361.11-.155.123-.358.033-.525-.316-.59-.722-1.134-1.208-1.619zm-7.072-4.802.339-.239c.759.459 1.442 1.127 1.924 1.875-.483.43-1.054.946-1.616 1.457-.505-.829-1.217-1.562-2.036-2.084.471-.364.917-.679 1.388-1.009zm4.003 10.603c-2.781 2.781-4.852 2.785-7.636 0-2.767-2.768-2.767-4.827 0-7.594.542-.542 1.01-.974 1.442-1.344.715.389 1.658 1.301 2.094 2.109-.806.739-1.49 1.376-1.709 1.595-.593.593-.87 1.135-.87 1.704s.277 1.111.87 1.704c1.171 1.171 2.281 1.171 3.45 0 .215-.215.856-.903 1.6-1.716.702.377 1.666 1.302 2.095 2.108-.369.43-.798.896-1.337 1.434zm3.009-3.634c-.33.471-.645.917-1.01 1.388-.523-.82-1.255-1.531-2.083-2.035.51-.561 1.025-1.131 1.455-1.615.661.407 1.455 1.198 1.876 1.923l-.239.339z"/></svg>