<svg id="Layer_1" viewBox="0 0 24 24" xmlns="http://www.w3.org/2000/svg" data-name="Layer 1"><path d="m22.189 3.364c-.081-.458-.163-.926-.246-1.421-.026-.158-.126-.293-.27-.365-.047-.023-1.175-.578-2.849-.578-1.193 0-2.107.282-2.546.45-.219.084-.351.31-.315.542.305 1.985 1.036 7.685 1.036 10.007 0 3.645-1.355 5-5 5s-5-1.355-5-5c0-2.322.731-8.022 1.036-10.007.036-.232-.096-.458-.315-.542-.438-.168-1.353-.45-2.546-.45-1.673 0-2.801.554-2.849.578-.143.072-.243.207-.27.365-.573 3.422-1.047 5.287-1.057 10.057 0 7.813 3.187 11 11 11s11-3.187 11-11c0-4.024-.376-6.161-.811-8.636zm-3.364-1.364c1.023 0 1.811.242 2.178.379.229 1.352.471 2.605.654 3.973-.443-.153-1.202-.353-2.157-.353-.833 0-1.509.151-1.964.292-.181-1.569-.379-3.064-.521-4.035.426-.126 1.05-.256 1.811-.256zm-15.828.379c.367-.138 1.155-.379 2.178-.379.761 0 1.385.13 1.811.256-.142.971-.34 2.466-.521 4.035-.455-.141-1.131-.292-1.964-.292-.955 0-1.714.199-2.157.353.183-1.368.425-2.621.654-3.973zm9.003 19.621c-7.196 0-10-2.804-10-10 0-1.848.083-3.283.214-4.545.274-.031.799-.437 2.286-.455.841 0 1.497.182 1.851.306-.197 1.818-.351 3.61-.351 4.694 0 4.206 1.794 6 6 6s6-1.794 6-6c0-1.085-.154-2.877-.351-4.695.35-.124 1.001-.305 1.851-.305 1.471.019 2.015.419 2.287.459.13 1.261.213 2.695.213 4.541 0 7.196-2.804 10-10 10z"/></svg>