<svg id="Layer_1" viewBox="0 0 24 24" xmlns="http://www.w3.org/2000/svg" data-name="Layer 1"><path d="m22.854 22.146-4.204-4.204c2.223-2.377 3.351-4.711 3.351-6.942 0-5.327-4.673-10-10-10-2.545 0-5.187 1.176-7.133 3.16l-3.014-3.014c-.195-.195-.512-.195-.707 0s-.195.512 0 .707l20.999 21.001c.098.098.226.146.354.146s.256-.049.354-.146c.195-.195.195-.512 0-.707zm-10.854-20.146c4.248 0 9 3.849 9 9 0 1.963-1.029 4.059-3.058 6.235l-12.367-12.367c1.761-1.8 4.142-2.868 6.425-2.868z"/><path d="m15.933 19.131c-1.701 1.432-3.334 2.438-3.934 2.792-1.456-.854-8.999-5.54-8.999-10.923 0-1.306.309-2.539.944-3.771.127-.246.03-.547-.215-.674-.244-.128-.547-.03-.674.215-.71 1.377-1.056 2.76-1.056 4.229 0 6.521 9.361 11.72 9.76 11.938.075.041.157.062.24.062s.167-.021.242-.062c.085-.047 2.124-1.181 4.335-3.041.211-.178.238-.494.061-.705-.179-.211-.494-.238-.705-.061z"/></svg>