<svg id="Layer_1" viewBox="0 0 24 24" xmlns="http://www.w3.org/2000/svg" data-name="Layer 1"><path d="m12.137 7.29-3.158 3.073c-.821.835-1.312 1.933-1.384 3.091l-.094 1.515c-.009.144.044.284.146.385.094.094.221.146.353.146h.032l1.488-.096c1.144-.074 2.227-.575 3.042-1.404l3.158-3.073c.525-.534.831-1.317.817-2.094-.011-.678-.257-1.28-.692-1.694-1.013-.964-2.68-.894-3.708.152zm2.877 2.928-3.158 3.073c-.65.661-1.502 1.057-2.401 1.115l-.922.06.059-.948c.057-.918.448-1.79 1.091-2.445l3.158-3.073c.348-.354.817-.535 1.271-.535.386 0 .762.131 1.042.398.239.228.376.579.382.986.009.515-.189 1.029-.522 1.369z"/><path d="m11.994 1c-5.324.07-9.994 4.743-9.994 10 0 6.521 9.361 11.72 9.76 11.938.075.041.158.062.24.062s.166-.021.24-.062c.398-.218 9.76-5.417 9.76-11.938 0-5.257-4.67-9.93-10.006-10zm.006 20.924c-1.455-.853-9-5.539-9-10.924 0-5.234 4.747-8.944 8.994-9 4.26.056 9.006 3.766 9.006 9 0 5.385-7.546 10.071-9 10.924z"/></svg>