<?xml version="1.0" encoding="UTF-8"?>
<svg xmlns="http://www.w3.org/2000/svg" id="Layer_1" data-name="Layer 1" viewBox="0 0 24 24">
  <path d="M19.845,11.823c-.026-.061-.065-.115-.113-.161-.034-.032-.794-.742-2.535-1.156,.662-1.045,1.125-2.178,1.145-3.316-.096-3.139-3.175-6.146-6.349-6.189-3.16,.043-6.239,3.051-6.335,6.189,0,0,.002,1.577,.971,3.12-1.074-.106-2.116,.056-2.165,.065-.186,.029-.339,.161-.397,.34-.03,.094-.741,2.333-.741,5.89,0,3.002,.728,4.708,.758,4.779,.026,.061,.065,.116,.113,.162,.062,.059,1.567,1.455,5.295,1.455,2.794,0,4.332-.778,4.958-1.198,.456,.314,1.337,.839,2.372,1.029,1.218,.223,2.585,.011,2.643,.002,.183-.029,.334-.157,.395-.332,.033-.097,.814-2.421,.814-5.9,0-2.849-.796-4.7-.83-4.777ZM11.993,2c2.62,.036,5.27,2.621,5.349,5.196-.052,3.071-4.222,6.375-5.349,7.213-1.128-.806-5.267-3.979-5.336-7.202,.088-2.594,2.733-5.172,5.335-5.208Zm7.009,19.884c-.434,.045-1.262,.1-1.999-.036-1.222-.225-2.235-1.053-2.245-1.062-.15-.124-.357-.144-.532-.061-.061,.028-.113,.068-.156,.116-.193,.159-1.528,1.159-4.578,1.159-2.852,0-4.215-.882-4.532-1.12-.146-.396-.635-1.903-.635-4.276,0-2.66,.423-4.573,.608-5.281,.438-.045,1.26-.098,1.992,.037,.12,.022,.236,.049,.35,.081,.044,.012,.088,.018,.131,.018,1.736,2.265,4.163,3.879,4.32,3.982,.083,.055,.179,.082,.274,.082,.099,0,.198-.029,.284-.088,.156-.108,2.559-1.782,4.291-4.039,1.426,.271,2.174,.765,2.396,.933,.157,.412,.705,2.011,.705,4.272,0,2.613-.472,4.57-.672,5.283Z"/>
  <circle cx="12" cy="7.299" r=".745"/>
</svg>
