<svg id="Layer_1" viewBox="0 0 24 24" xmlns="http://www.w3.org/2000/svg" data-name="Layer 1"><path d="m11.994 1c-5.324.07-9.994 4.743-9.994 10 0 6.521 9.361 11.72 9.76 11.938.075.041.158.062.24.062s.166-.021.24-.062c.398-.218 9.76-5.417 9.76-11.938 0-5.257-4.67-9.93-10.006-10zm.006 20.924c-1.455-.853-9-5.539-9-10.924 0-5.234 4.747-8.944 8.994-9 4.26.056 9.006 3.766 9.006 9 0 5.385-7.545 10.071-9 10.924z"/><path d="m16.229 8.556c-.245-.128-.546-.031-.673.215-1.504 2.918-3.729 4.254-4.483 4.642-.539-.451-1.863-1.606-2.668-2.708-.163-.223-.476-.272-.699-.109s-.271.476-.109.699c1.103 1.509 3.012 3.033 3.093 3.097.09.071.2.108.311.108.063 0 .126-.012.187-.036.132-.053 3.253-1.346 5.257-5.235.126-.246.03-.547-.215-.673z"/></svg>