<svg id="Layer_1" viewBox="0 0 24 24" xmlns="http://www.w3.org/2000/svg" data-name="Layer 1"><path d="m11.997 6.5c-2.216.014-3.457 1.254-3.497 3.491-.005.276.215.504.491.509.289.017.504-.215.509-.491.029-1.677.849-2.498 2.497-2.509 1.633.011 2.475.854 2.503 2.491-.03 1.69-.803 2.448-2.503 2.458-.275.001-.497.225-.497.5v1.551c0 .276.224.5.5.5s.5-.224.5-.5v-1.075c1.928-.178 2.962-1.352 3-3.434-.038-2.205-1.313-3.477-3.503-3.491z"/><path d="m11.993 1c-5.323.07-9.993 4.743-9.993 10 0 6.521 9.361 11.72 9.76 11.938.075.041.157.062.24.062s.165-.021.24-.062c.398-.218 9.76-5.417 9.76-11.938 0-5.257-4.67-9.93-10.007-10zm.007 20.924c-1.454-.853-9-5.539-9-10.924 0-5.234 4.746-8.944 8.993-9 4.261.056 9.007 3.766 9.007 9 0 5.385-7.546 10.071-9 10.924z"/><circle cx="12" cy="17" r=".75"/></svg>