<svg id="Layer_1" viewBox="0 0 24 24" xmlns="http://www.w3.org/2000/svg" data-name="Layer 1"><path d="m15.3 12.6c-.22-.164-.533-.122-.7.1-1.791 2.389-3.408 2.389-5.199 0-.166-.223-.48-.265-.7-.1-.221.166-.266.479-.101.7 1.095 1.46 2.239 2.2 3.4 2.2s2.306-.74 3.4-2.2c.165-.221.12-.534-.101-.7z"/><path d="m11.993 1c-5.323.07-9.993 4.743-9.993 10 0 6.521 9.361 11.72 9.76 11.938.075.041.157.062.24.062s.165-.021.24-.062c.398-.218 9.76-5.417 9.76-11.938 0-5.257-4.67-9.93-10.007-10zm.007 20.924c-1.454-.853-9-5.539-9-10.924 0-5.234 4.746-8.944 8.993-9 4.261.056 9.007 3.766 9.007 9 0 5.385-7.546 10.071-9 10.924z"/><circle cx="9" cy="9" r=".75"/><circle cx="15" cy="9" r=".75"/></svg>