<?xml version="1.0" encoding="UTF-8"?>
<svg xmlns="http://www.w3.org/2000/svg" id="Layer_1" data-name="Layer 1" viewBox="0 0 24 24">
  <path d="M14.167,8.364c-.195-.196-.512-.195-.707,0l-1.46,1.456-1.46-1.456c-.195-.194-.512-.195-.707,0-.195,.195-.195,.512,0,.707l1.459,1.455-1.459,1.455c-.195,.195-.195,.512,0,.707,.098,.098,.226,.147,.354,.147s.256-.049,.354-.146l1.46-1.456,1.46,1.456c.098,.097,.226,.146,.354,.146s.256-.049,.354-.147c.195-.195,.195-.512,0-.707l-1.459-1.455,1.459-1.455c.195-.195,.195-.512,0-.707Z"/>
  <path d="M11.993,1C7.182,1.065,2.349,5.793,2.349,10.369c0,6.307,9,12.304,9.378,12.55,.083,.054,.178,.081,.273,.081,.099,0,.197-.029,.282-.087,.378-.259,9.264-6.399,9.369-12.569-.147-4.737-4.834-9.278-9.658-9.344Zm0,20.891c-1.501-1.044-8.537-6.22-8.645-11.529C3.486,6.197,7.77,2.058,11.993,2c4.24,.058,8.529,4.206,8.658,8.351-.087,5.06-7.16,10.455-8.658,11.541Z"/>
</svg>
