<?xml version="1.0" encoding="UTF-8"?>
<svg xmlns="http://www.w3.org/2000/svg" id="Layer_1" data-name="Layer 1" viewBox="0 0 24 24">
  <path d="M22.497,5.668c-.016-.103-.063-.198-.136-.272-.054-.056-1.354-1.374-3.613-1.738-1.557-.251-3.282-.028-3.47-.003-.46-.063-1.987-.235-3.37,.022-1.457,.271-2.684,1.051-3.242,1.455-.559-.404-1.786-1.184-3.242-1.455-1.619-.3-3.43-.014-3.507-.002-.21,.034-.376,.198-.413,.409-.021,.119-.504,2.977-.504,7.917,0,3.021,.482,6.182,.503,6.315,.016,.103,.063,.198,.136,.272,.054,.056,1.354,1.374,3.613,1.738,.551,.089,1.123,.118,1.641,.118,.843,0,1.542-.078,1.768-.107,.228,.033,.932,.123,1.781,.123,.521,0,1.097-.034,1.649-.137,1.467-.273,2.701-1.062,3.254-1.463,.564,.406,1.784,1.177,3.23,1.447,.553,.103,1.129,.137,1.649,.137,1.004,0,1.807-.126,1.857-.135,.21-.034,.376-.198,.413-.409,.021-.119,.504-2.977,.504-7.917,0-3.021-.482-6.182-.503-6.315ZM5.412,19.338c-1.575-.254-2.617-1.06-2.946-1.346-.1-.701-.466-3.437-.466-5.992,0-3.86,.308-6.468,.436-7.384,.579-.063,1.762-.15,2.805,.044,1.341,.249,2.496,1.027,2.926,1.346v13.377c-.603,.056-1.737,.117-2.754-.045Zm6.496,.002c-1.008,.187-2.145,.113-2.742,.051V6.005c.428-.318,1.578-1.095,2.926-1.345,1.007-.188,2.144-.114,2.742-.051v13.385c-.428,.318-1.578,1.095-2.926,1.345Zm9.656,.027c-.579,.063-1.761,.15-2.805-.044-1.341-.249-2.496-1.027-2.926-1.346V4.6c.603-.056,1.736-.119,2.754,.045,1.575,.254,2.617,1.06,2.946,1.346,.1,.701,.466,3.437,.466,5.992,0,3.86-.308,6.468-.436,7.384Z"/>
</svg>
