<svg id="Layer_1" viewBox="0 0 24 24" xmlns="http://www.w3.org/2000/svg" data-name="Layer 1"><path d="m22.858 17.152c-.094-.097-.224-.152-.358-.152h-.581c.045-.884.081-1.777.081-2.681 0-1.046-.055-2.092-.164-3.11.726-.592 1.105-1.524 1.16-2.859.008-2.713-1.554-5.889-1.62-6.023-.061-.121-.167-.212-.295-.253-.136-.043-3.396-1.074-9.081-1.074s-8.945 1.031-9.081 1.074c-.128.042-.234.133-.295.253-.066.134-1.628 3.31-1.62 6.042.055 1.324.433 2.252 1.159 2.842-.108 1.018-.163 2.063-.163 3.108 0 .903.036 1.797.081 2.681h-.581c-.135 0-.265.055-.358.152-.095.097-.146.228-.142.363.051 1.68.512 3.41.652 3.901.048.167.18.298.348.344 2.058.565 5.463 1.24 10 1.24s7.942-.674 10-1.24c.168-.046.3-.177.348-.344.141-.491.602-2.221.652-3.901.004-.135-.047-.266-.142-.363zm-20.854-8.804c-.006-2.115 1.095-4.665 1.424-5.38.789-.218 3.839-.967 8.572-.967s7.784.749 8.572.967c.329.715 1.431 3.263 1.424 5.361-.08 1.972-.864 2.671-2.994 2.671-2.194 0-2.924-.612-3.002-2.521 0 0 0 0 0-.001-.002-1.012-.124-1.999-.129-2.04-.034-.274-.292-.469-.558-.434-.274.034-.469.284-.435.558 0 .01.119.971.121 1.92-.079 1.906-.809 2.518-3 2.518s-2.921-.612-3-2.518c.001-.949.12-1.911.121-1.92.034-.274-.16-.524-.435-.558-.26-.03-.524.159-.558.434-.005.042-.127 1.028-.129 2.04v.001c-.078 1.908-.808 2.521-3.002 2.521-2.13 0-2.914-.699-2.994-2.652zm.996 5.972c0-.871.047-1.738.125-2.591.523.177 1.138.272 1.873.272 1.784 0 2.912-.453 3.502-1.461.59 1.009 1.717 1.461 3.5 1.461s2.91-.453 3.5-1.461c.59 1.009 1.718 1.461 3.502 1.461.735 0 1.35-.095 1.873-.272.078.853.125 1.72.125 2.591 0 .904-.035 1.798-.081 2.681h-5.752c-.252 0-.465.188-.496.438-.034.269-.081.535-.118.721-.349.123-1.164.341-2.553.341s-2.207-.219-2.553-.341c-.036-.186-.084-.452-.118-.721-.031-.25-.244-.438-.496-.438h-5.752c-.045-.883-.081-1.777-.081-2.681zm18.461 6.55c-2.021.533-5.231 1.13-9.461 1.13s-7.44-.598-9.461-1.13c-.153-.577-.419-1.704-.511-2.87h6.373c.06.354.121.628.121.628.032.14.122.26.248.329.102.056 1.053.542 3.229.542s3.128-.487 3.229-.542c.126-.069.216-.189.248-.329 0 0 .062-.274.121-.628h6.373c-.092 1.166-.357 2.292-.511 2.87z"/></svg>