<?xml version="1.0" encoding="UTF-8"?>
<svg xmlns="http://www.w3.org/2000/svg" id="Layer_1" data-name="Layer 1" viewBox="0 0 24 24">
  <path d="M22.644,6.458c-.05-.151-.168-.269-.318-.319-.095-.032-2.068-.667-4.233-.192,.481-2.151-.149-4.12-.181-4.213-.049-.151-.167-.27-.318-.319-.107-.036-2.657-.858-5.147,.083-.258,.098-.389,.386-.291,.645,.097,.258,.385,.389,.645,.291,1.357-.512,2.773-.409,3.642-.261l-5.04,5.006c-2.794-2.458-5.583-2.346-8.307,.335-2.807,2.831-2.803,5.741,.022,8.662,.929,.895,1.885,1.496,2.849,1.804,.311,.968,.939,1.946,1.883,2.92,1.416,1.363,2.895,2.045,4.365,2.045s2.929-.68,4.312-2.04c2.651-2.675,2.759-5.531,.316-8.296l5.04-5.006c.146,.866,.245,2.279-.271,3.627-.099,.258,.03,.547,.288,.646,.059,.022,.119,.033,.179,.033,.201,0,.391-.122,.467-.321,.948-2.475,.135-5.021,.1-5.129Zm-1.47,.438l-5.041,5.007c-.831-.729-1.672-1.234-2.507-1.507-.273-.842-.779-1.682-1.515-2.512l5.04-5.006c.146,.866,.248,2.282-.268,3.631-.07,.184-.026,.392,.112,.532s.348,.184,.531,.115c1.357-.513,2.777-.408,3.647-.259ZM3.801,8.222c1.22-1.202,2.406-1.802,3.603-1.802s2.408,.605,3.67,1.815c2.388,2.471,2.392,4.839,.016,7.238-2.384,2.345-4.831,2.338-7.266-.005-2.428-2.51-2.434-4.813-.022-7.246Zm12.019,11.975c-2.382,2.344-4.83,2.338-7.265-.005-.646-.668-1.125-1.333-1.428-1.984,.119,.009,.237,.014,.356,.014,1.469,0,2.93-.68,4.312-2.04,1.486-1.5,2.172-3.056,2.061-4.619,.642,.302,1.294,.769,1.941,1.39,2.395,2.473,2.4,4.844,.022,7.245Z"/>
</svg>
