<?xml version="1.0" encoding="UTF-8"?>
<svg xmlns="http://www.w3.org/2000/svg" id="Layer_1" data-name="Layer 1" viewBox="0 0 24 24">
  <path d="M22.534,1.808c-.05-.149-.168-.267-.317-.316-.137-.045-3.382-1.093-6.545,.106-.259,.098-.389,.387-.291,.645,.098,.257,.388,.388,.645,.291,1.932-.732,3.954-.511,5.051-.295l-6.798,6.779c-3.57-3.214-7.141-3.103-10.619,.337-3.553,3.598-3.549,7.296,.026,11.005,1.795,1.735,3.669,2.603,5.533,2.603s3.709-.864,5.459-2.593c3.393-3.437,3.496-7.11,.31-10.646l6.799-6.78c.217,1.092,.441,3.11-.294,5.038-.099,.258,.03,.547,.289,.646,.059,.022,.118,.033,.178,.033,.201,0,.392-.123,.467-.322,1.204-3.158,.152-6.393,.107-6.529ZM13.971,19.662c-3.139,3.102-6.367,3.095-9.577-.009-3.201-3.321-3.208-6.371-.026-9.592,1.585-1.568,3.161-2.352,4.748-2.352s3.197,.79,4.836,2.368c3.15,3.271,3.156,6.408,.02,9.585Z"/>
</svg>
