<svg id="Layer_1" viewBox="0 0 24 24" xmlns="http://www.w3.org/2000/svg" data-name="Layer 1"><path d="m14.89 8.812c.173-.215.139-.529-.077-.702-.213-.173-.528-.139-.702.077-.825 1.028-1.771 2.076-2.809 3.114s-2.086 1.983-3.114 2.809c-.216.173-.25.487-.077.702.173.217.489.25.702.077 1.057-.848 2.132-1.816 3.196-2.881s2.033-2.14 2.881-3.196z"/><path d="m17.11 11.188c-.825 1.028-1.771 2.076-2.809 3.114s-2.086 1.983-3.114 2.809c-.216.173-.25.487-.077.702.173.217.489.25.702.077 1.057-.848 2.132-1.816 3.196-2.881s2.033-2.14 2.881-3.196c.173-.215.139-.529-.077-.702-.213-.172-.528-.139-.702.077z"/><path d="m18.822 1.001c-1.259.008-2.254.336-2.959.976-.182.165-.865.814-1.74 1.65-1.411-.394-2.895-.626-4.29-.626-2.228 0-3.986.584-5.088 1.689-2.053 2.06-2.095 5.975-1.111 9.425-.84.879-1.492 1.566-1.658 1.749-.64.705-.968 1.7-.976 2.965.018 2.646 1.497 4.127 4.174 4.173.527.018 7.37-.03 7.858 0 2.094 0 4.165-1.1 6.519-3.461 2.384-2.392 3.525-4.595 3.421-6.811.004-.01.028-7.562.028-7.562-.046-2.668-1.527-4.147-4.179-4.165zm-13.638 21c-2.128-.036-3.169-1.076-3.183-3.173.007-1.004.247-1.776.716-2.293.138-.152.622-.662 1.265-1.336.633 1.763 1.522 3.327 2.531 4.34 1.082 1.086 2.103 1.893 3.096 2.461h-4.425zm13.659-3.166c-2.152 2.16-3.999 3.166-5.81 3.166s-3.658-1.006-5.811-3.166c-3.062-3.072-4.519-10.679-1.768-13.439 1.148-1.152 3.016-1.395 4.379-1.395 3.281 0 7.238 1.392 9.009 3.168 4.184 4.197 4.184 7.469 0 11.666zm3.157-9.244c-.569-1.017-1.378-2.053-2.448-3.127-.998-1.002-2.568-1.876-4.336-2.497.667-.636 1.168-1.112 1.32-1.25.517-.469 1.289-.709 2.287-.716 2.103.014 3.143 1.055 3.179 3.174v4.415z"/></svg>