<svg id="Layer_1" viewBox="0 0 24 24" xmlns="http://www.w3.org/2000/svg" data-name="Layer 1"><path d="m15.494 8.495c-.482-.482-.656-1.088-.39-1.354s.873-.092 1.354.39c.482.482.656 1.088.39 1.354s-.873.092-1.354-.39zm5.724 4.561c-.158.158-.317.278-.475.414-3.09 2.929-6.369 4.502-9.101 4.502-1.009 0-1.931-.237-2.754-.671l-2.286 2.286c.4.486.4 1.132.4 1.387 0 1.339-.651 1.991-1.991 1.991s-1.991-.651-1.991-1.991v-.009h-.013c-1.339 0-1.991-.651-1.991-1.991s.651-1.99 1.991-1.99c.256 0 .906 0 1.392.405l2.267-2.267c-1.597-3.017-.202-7.542 3.714-11.74.168-.204.347-.408.551-.612 2.671-2.669 5.348-2.271 8.954 1.334 1.828 1.829 2.787 3.339 3.015 4.754.236 1.457-.314 2.831-1.682 4.198zm-6.759-11.032c-1.028 0-1.892.545-2.749 1.385-.186.24-.421.441-.616.667-1.416 1.737-1.434 3.631 1.876 6.941 1.65 1.65 3.026 2.545 4.208 2.736.946.155 1.844-.14 2.78-.904.212-.182.399-.405.626-.575 1.084-1.111 1.511-2.149 1.332-3.258-.192-1.181-1.086-2.558-2.736-4.208-1.996-1.996-3.478-2.784-4.721-2.784zm-6.42 14.716c-.305-.214-.58-.478-.802-.779l-2.532 2.531c-.117.115-.283.165-.444.138-.162-.031-.298-.138-.364-.289-.056-.126-.16-.361-.89-.361-.789 0-.994.204-.994.993s.204.994.994.994c.167 0 .318-.016.46-.048.344-.091.685.251.598.594-.033.146-.049.296-.049.46 0 .789.204.994.994.994s.994-.204.994-.994c0-.727-.233-.832-.357-.888-.149-.067-.256-.203-.286-.365-.029-.161.022-.327.138-.442l2.539-2.539zm9.535-1.957c-1.871-.107-3.22-1.045-5.308-3.061-2.004-2.004-3.014-3.721-3.059-5.31-2.522 3.667-2.955 7.224-.886 9.282 2.057 2.037 5.605 1.599 9.253-.911z"/></svg>