<?xml version="1.0" encoding="UTF-8"?>
<svg xmlns="http://www.w3.org/2000/svg" id="Layer_1" data-name="Layer 1" viewBox="0 0 24 24">
  <path d="M22.256,8.999h-.647c-.276,0-.5,.224-.5,.5s.224,.5,.5,.5h.647c.276,0,.5-.224,.5-.5s-.224-.5-.5-.5Z"/>
  <path d="M20.372,6.152c.128,0,.256-.049,.354-.146l.458-.458c.195-.195,.195-.512,0-.707s-.512-.195-.707,0l-.458,.458c-.195,.195-.195,.512,0,.707,.098,.098,.226,.146,.354,.146Z"/>
  <path d="M20.726,12.991c-.195-.195-.512-.195-.707,0s-.195,.512,0,.707l.458,.458c.098,.098,.226,.146,.354,.146s.256-.049,.354-.146c.195-.195,.195-.512,0-.707l-.458-.458Z"/>
  <path d="M16.14,.992c-.188-.011-.369,.085-.461,.257-.022,.033-2.354,3.306-5.702,2.935-2.942-.321-5.039,.032-6.276,.384-1.305,.371-2.26,1.547-2.376,2.924-.053,.621-.082,1.124-.082,2.006s.029,1.386,.082,2.006c.079,.942,.551,1.789,1.258,2.35,.561,2.557,1.642,5.521,2.773,7.592,.516,.944,1.491,1.554,2.485,1.554h.003c.583,0,1.107-.188,1.558-.558,.77-.631,1.135-1.723,.931-2.781-.278-1.444-.777-3.116-1.415-4.759,.34-.02,.693-.05,1.059-.09,3.347-.362,5.679,2.901,5.687,2.915,.086,.166,.258,.269,.443,.269,.008,0,.016,0,.024,0,.194-.01,.366-.131,.439-.312,.047-.116,1.148-2.909,1.148-8.186s-1.102-8.069-1.148-8.186c-.073-.181-.237-.312-.432-.321Zm-6.788,18.859c.135,.703-.094,1.417-.583,1.818-.271,.223-.574,.331-.925,.332h-.002c-.634,0-1.265-.406-1.607-1.034-.973-1.782-1.909-4.254-2.484-6.523,.917,.256,2.287,.507,4.107,.495,.679,1.692,1.209,3.43,1.495,4.913Zm6.56-3.393c-.911-.998-2.825-2.675-5.395-2.675-.211,0-.428,.012-.648,.036-2.782,.303-4.74-.023-5.894-.352-.907-.258-1.572-1.081-1.653-2.047-.051-.606-.078-1.07-.078-1.921s.026-1.315,.078-1.922c.082-.966,.746-1.789,1.653-2.047,1.153-.328,3.112-.655,5.894-.352,2.886,.315,5.036-1.542,6.041-2.645,.319,1.169,.811,3.528,.811,6.965s-.49,5.789-.809,6.959Z"/>
</svg>
