<svg id="Layer_1" viewBox="0 0 24 24" xmlns="http://www.w3.org/2000/svg" data-name="Layer 1"><path d="m22 4h-.036c-.112-1.721-.462-2.67-.509-2.787-.149-.386-.732-.392-.919-.028-.372.674-1.12.815-1.719.815-.909.004-1.843 0-2.5.188-.754.215-1.222 1.052-1.279 1.731-.022.259-.036.692-.038 1.083v.998c0 2 1.077 3.875 1.449 4.543-.175.432-.664 1.516-1.639 2.87-1.128-.354-4.718-1.414-7.31-1.414-4.556 0-6.5 1.944-6.5 6.5v4c0 .276.224.5.5.5s.5-.224.5-.5v-4c0-4.009 1.491-5.5 5.5-5.5 2.883 0 7.298 1.459 7.342 1.474.206.071.43-.001.558-.174.374-.498.685-.965.946-1.389-.201 1.328-.537 2.521-.71 3.084-1.919-.049-3.235-.467-3.249-.471-.361-.129-.743.233-.639.599.169.665.251 1.442.251 2.376v4c0 .276.224.5.5.5s.5-.224.5-.5v-4c0-.672-.04-1.274-.122-1.82.689.147 1.784.32 3.122.32.213 0 .403-.136.473-.337.047-.138 1.158-3.405 1.027-6.186-.017-.079-.039-.16-.071-.233-.01-.017-.685-1.17-1.103-2.484.574.162 1.401.241 2.529.241.562 0 1.31.142 1.714.872.202.341.753.288.887-.084.047-.117.397-1.066.509-2.787h.036c.714 0 1-.286 1-1s-.286-1-1-1zm-1.243 3.572c-.492-.374-1.142-.572-1.903-.572-1.024 0-1.786-.069-2.263-.205-.277-.079-.527-.437-.558-.797-.02-.239-.032-.641-.034-.996.001-.359.014-.76.034-.999.032-.373.297-.779.558-.854.515-.147 1.364-.149 2.226-.149.763.004 1.438-.192 1.939-.574.119.572.24 1.432.244 2.573-.004 1.141-.125 2.001-.243 2.574zm-13.257 2.428c3.112 0 4.5-1.388 4.5-4.5s-1.388-4.5-4.5-4.5-4.5 1.388-4.5 4.5 1.388 4.5 4.5 4.5zm0-8c2.584 0 3.5.916 3.5 3.5s-.916 3.5-3.5 3.5-3.5-.916-3.5-3.5.916-3.5 3.5-3.5z"/></svg>