<?xml version="1.0" encoding="UTF-8"?>
<svg xmlns="http://www.w3.org/2000/svg" id="Layer_1" data-name="Layer 1" viewBox="0 0 24 24">
  <path d="M14.932,16.33h-5.863c-.276,0-.5,.224-.5,.5s.224,.5,.5,.5h5.863c.276,0,.5-.224,.5-.5s-.224-.5-.5-.5Z"/>
  <path d="M10.597,10.267c0-1.561-.917-2.784-2.086-2.784s-2.086,1.223-2.086,2.784,.917,2.784,2.086,2.784,2.086-1.223,2.086-2.784Zm-2.086,1.784c-.589,0-1.086-.817-1.086-1.784,0-.673,.241-1.273,.586-1.576v.887c0,.276,.224,.5,.5,.5s.5-.224,.5-.5v-.887c.345,.303,.586,.903,.586,1.576,0,.967-.498,1.784-1.086,1.784Z"/>
  <path d="M15.49,7.483c-1.17,0-2.086,1.223-2.086,2.784s.917,2.784,2.086,2.784,2.086-1.223,2.086-2.784-.917-2.784-2.086-2.784Zm0,4.568c-.589,0-1.086-.817-1.086-1.784,0-.673,.241-1.273,.586-1.576v.887c0,.276,.224,.5,.5,.5s.5-.224,.5-.5v-.887c.345,.303,.586,.903,.586,1.576,0,.967-.498,1.784-1.086,1.784Z"/>
  <path d="M11.997,1C4.894,1,1,5.16,1,12.009c0,6.996,3.771,10.991,11.003,10.991,7.164,0,10.864-3.74,10.997-11.009-.122-7.042-4.027-10.991-11.003-10.991Zm.006,21c-6.605-.039-9.877-3.31-10.003-10,.121-6.594,3.486-9.958,9.997-10,4.485,.029,9.861,1.79,10.003,9.991-.123,6.696-3.395,9.97-9.997,10.009Z"/>
</svg>
