<svg id="Layer_1" viewBox="0 0 24 24" xmlns="http://www.w3.org/2000/svg" data-name="Layer 1"><path d="m18 15.5c0 .276-.224.5-.5.5h-3c-.276 0-.5-.224-.5-.5s.224-.5.5-.5h3c.276 0 .5.224.5.5zm-6.052-4.363c.134.431.002.904-.337 1.205-.326.29-.626.556-.92.811.133.49.247.984.34 1.473.081.429-.081.86-.423 1.129-.348.269-.805.32-1.2.137-.497-.23-.961-.472-1.408-.732-.447.261-.911.502-1.41.733-.156.072-.322.108-.487.108-.252 0-.502-.083-.71-.245-.343-.27-.505-.701-.424-1.129.093-.489.207-.983.34-1.474-.293-.254-.587-.515-.888-.782-.371-.329-.503-.803-.369-1.234s.51-.748.958-.805c.482-.062.923-.112 1.338-.148.191-.444.397-.888.62-1.328.212-.418.641-.668 1.069-.635.368-.035.783.216.995.634.223.441.429.885.62 1.329.415.036.855.086 1.34.148.446.057.822.373.956.806zm-.955.296c-.017-.059-.068-.102-.128-.109-.587-.076-1.105-.132-1.593-.168-.188-.015-.353-.133-.425-.308-.214-.516-.45-1.031-.708-1.544-.066-.141-.235-.093-.279 0-.258.512-.494 1.027-.708 1.543-.072.175-.236.293-.425.308-.487.036-1.006.092-1.591.168-.13.012-.184.188-.084.271.411.365.778.691 1.146 1.005.15.127.212.33.157.519-.162.563-.298 1.134-.405 1.695-.028.12.108.228.217.172.563-.261 1.077-.533 1.572-.835.158-.098.361-.098.52 0 .495.302 1.009.574 1.57.834.112.058.246-.049.219-.172-.107-.561-.243-1.131-.405-1.694-.055-.188.007-.392.157-.519.368-.313.735-.64 1.114-.977.078-.068.096-.132.078-.189zm12.007.567c0 4.17-.776 6.736-.81 6.844-.052.169-.19.299-.363.339-.142.034-3.542.817-9.827.817s-9.686-.783-9.827-.817c-.173-.04-.312-.17-.363-.339-.033-.107-.81-2.674-.81-6.844s.776-6.736.81-6.844c.052-.169.19-.299.363-.339.142-.034 3.542-.817 9.827-.817s9.686.783 9.827.817c.173.04.312.17.363.339.033.107.81 2.674.81 6.844zm-1 0c0-3.241-.496-5.509-.689-6.27-.941-.185-4.167-.73-9.311-.73s-8.369.546-9.311.73c-.193.761-.689 3.028-.689 6.27s.496 5.509.689 6.27c.941.185 4.167.73 9.311.73s8.369-.546 9.311-.73c.193-.761.689-3.028.689-6.27zm-2.5-.5h-5c-.276 0-.5.224-.5.5s.224.5.5.5h5c.276 0 .5-.224.5-.5s-.224-.5-.5-.5zm0-3.5h-5c-.276 0-.5.224-.5.5s.224.5.5.5h5c.276 0 .5-.224.5-.5s-.224-.5-.5-.5z"/></svg>