<svg id="Layer_1" viewBox="0 0 24 24" xmlns="http://www.w3.org/2000/svg" data-name="Layer 1"><path d="m14.5 11h-9c-.276 0-.5-.224-.5-.5s.224-.5.5-.5h9c.276 0 .5.224.5.5s-.224.5-.5.5zm0-5h-9c-.276 0-.5.224-.5.5s.224.5.5.5h9c.276 0 .5-.224.5-.5s-.224-.5-.5-.5zm-4.012 15.994c-3.222.079-6.618-.699-7.618-.95-.208-1.041-.871-4.699-.871-9.044s.664-8.004.872-9.044c.95-.238 4.061-.956 7.129-.956s6.18.717 7.129.956c.167.836.629 3.364.802 6.571.015.276.243.483.526.473.276-.015.487-.251.473-.526-.217-4.018-.86-6.912-.887-7.033-.041-.18-.176-.323-.354-.372-.157-.043-3.887-1.068-7.689-1.068s-7.533 1.023-7.689 1.067c-.178.049-.313.192-.354.372-.01.043-.957 4.315-.957 9.56s.947 9.517.957 9.56c.041.18.176.323.354.372.157.043 3.887 1.068 7.689 1.068.171 0 .341-.002.512-.006.276-.007.495-.236.488-.512s-.251-.487-.512-.488zm-4.988-7.994c-.276 0-.5.224-.5.5s.224.5.5.5h4c.276 0 .5-.224.5-.5s-.224-.5-.5-.5zm17.5 3.5c0 3.855-1.645 5.5-5.5 5.5s-5.5-1.645-5.5-5.5 1.645-5.5 5.5-5.5 5.5 1.645 5.5 5.5zm-1 0c0-3.28-1.22-4.5-4.5-4.5s-4.5 1.22-4.5 4.5 1.22 4.5 4.5 4.5 4.5-1.22 4.5-4.5zm-2.351-1.821c-.829.99-1.764 1.894-2.782 2.691-.542-.424-1.062-.879-1.55-1.358-.197-.194-.514-.191-.707.007-.193.197-.19.514.007.707.609.597 1.265 1.161 1.95 1.674.178.134.422.133.6 0 1.196-.897 2.289-1.933 3.248-3.079.177-.211.149-.527-.062-.704-.211-.178-.528-.149-.704.062z"/></svg>