<?xml version="1.0" encoding="UTF-8"?>
<svg xmlns="http://www.w3.org/2000/svg" id="Layer_1" data-name="Layer 1" viewBox="0 0 24 24">
  <path d="M1.612,8.603c.048-.011,4.866-1.105,10.388-1.105s10.34,1.094,10.388,1.105c.268,.063,.538-.105,.6-.375,.062-.269-.106-.538-.375-.6-.049-.011-4.966-1.131-10.612-1.131S1.437,7.617,1.388,7.628c-.269,.062-.437,.331-.375,.6,.053,.231,.291,.443,.6,.375Z"/>
  <path d="M1.612,13.046c.048-.011,4.866-1.105,10.388-1.105s10.34,1.094,10.388,1.105c.268,.063,.538-.105,.6-.375,.062-.269-.106-.538-.375-.6-.049-.011-4.966-1.131-10.612-1.131S1.437,12.06,1.388,12.071c-.269,.062-.437,.331-.375,.6,.053,.231,.291,.443,.6,.375Z"/>
  <path d="M1.612,17.49c.048-.011,4.866-1.105,10.388-1.105s10.34,1.094,10.388,1.105c.268,.063,.538-.105,.6-.375,.062-.269-.106-.538-.375-.6-.049-.011-4.966-1.131-10.612-1.131s-10.563,1.12-10.612,1.131c-.269,.062-.437,.331-.375,.6,.053,.231,.291,.443,.6,.375Z"/>
</svg>
