<svg id="Layer_1" viewBox="0 0 24 24" xmlns="http://www.w3.org/2000/svg" data-name="Layer 1"><path d="m21.766 2.433c-.054-.161-.186-.283-.351-.325-.179-.045-4.426-1.108-9.415-1.108s-9.236 1.063-9.415 1.108c-.165.042-.296.164-.351.325-.051.149-1.234 3.715-1.234 8.567s1.184 8.417 1.234 8.567c.054.161.186.283.351.325.119.031 2.922.736 6.661 1.005.814.938 2.316 2.071 2.798 2.102.399-.031 1.897-1.164 2.711-2.102 3.739-.269 6.542-.974 6.661-1.005.165-.042.296-.164.351-.325.051-.149 1.234-3.715 1.234-8.567s-1.184-8.417-1.234-8.567zm-.867 16.555c-.802.186-3.288.716-6.425.926-.141.01-.271.078-.358.188-.623.785-1.685 1.574-2.115 1.841-.431-.267-1.492-1.057-2.115-1.841-.088-.11-.218-.178-.358-.188-3.137-.209-5.623-.74-6.425-.926-.266-.897-1.101-4.026-1.101-7.988s.835-7.09 1.101-7.988c1.012-.235 4.679-1.012 8.899-1.012s7.887.777 8.899 1.012c.266.897 1.101 4.027 1.101 7.988s-.835 7.09-1.101 7.988zm-10.837-11.815c-.082-.018-.822-.173-1.562-.173-.736 0-1.48.156-1.565.174-.378.084-.677.383-.761.764-.018.082-.173.822-.173 1.562 0 .736.156 1.48.174 1.565.084.378.383.677.764.761.082.018.822.173 1.562.173.637 0 1.281-.117 1.495-.16-.061 1.563-.679 2.003-1.584 2.167-.271.049-.452.31-.403.582.048.273.316.452.582.403 2.161-.392 2.411-2.135 2.411-3.413v-2.08c0-.736-.156-1.48-.174-1.565-.084-.378-.383-.677-.764-.761zm-.062 3.667c-.252-.005-.683.158-1.5.16-.647 0-1.322-.145-1.349-.148-.006-.029-.151-.709-.151-1.352 0-.647.145-1.322.148-1.349.029-.006.709-.151 1.352-.151.647 0 1.322.145 1.349.148.006.029.151.709.151 1.352zm7.062-3.667c-.082-.018-.822-.173-1.562-.173-.736 0-1.48.156-1.565.174-.378.084-.677.383-.761.764-.018.082-.173.822-.173 1.562 0 .736.156 1.48.174 1.565.084.378.383.677.764.761.082.018.822.173 1.562.173.637 0 1.281-.117 1.495-.16-.061 1.563-.679 2.003-1.584 2.167-.271.049-.452.31-.403.582.048.273.316.452.582.403 2.161-.392 2.411-2.135 2.411-3.413v-2.08c0-.736-.156-1.48-.174-1.565-.084-.378-.383-.677-.764-.761zm-.062 3.667c-.252-.005-.683.158-1.5.16-.647 0-1.322-.145-1.349-.148-.006-.029-.151-.709-.151-1.352 0-.647.145-1.322.148-1.349.029-.006.709-.151 1.352-.151.647 0 1.322.145 1.349.148.006.029.151.709.151 1.352z"/></svg>