<svg id="Layer_1" viewBox="0 0 24 24" xmlns="http://www.w3.org/2000/svg" data-name="Layer 1"><path d="m21.766 2.433c-.054-.161-.187-.283-.351-.325-.179-.045-4.426-1.108-9.415-1.108s-9.236 1.063-9.415 1.108c-.164.042-.297.164-.351.325-.051.149-1.234 3.715-1.234 8.567s1.184 8.417 1.234 8.567c.054.161.186.283.351.325.119.031 2.922.736 6.661 1.005.814.938 2.316 2.071 2.797 2.102.399-.031 1.897-1.164 2.711-2.102 3.739-.269 6.542-.974 6.661-1.005.165-.042.297-.164.351-.325.051-.149 1.234-3.715 1.234-8.567s-1.184-8.417-1.234-8.567zm-.867 16.555c-.802.186-3.287.716-6.425.926-.141.01-.271.078-.358.188-.623.785-1.685 1.574-2.115 1.841-.431-.267-1.492-1.057-2.115-1.841-.088-.11-.218-.178-.358-.188-3.138-.209-5.623-.74-6.425-.926-.267-.897-1.102-4.026-1.102-7.988s.835-7.09 1.102-7.988c1.012-.235 4.678-1.012 8.898-1.012s7.887.777 8.898 1.012c.267.897 1.102 4.027 1.102 7.988s-.835 7.09-1.102 7.988zm-8.148-2.988c0 .414-.336.75-.75.75s-.75-.336-.75-.75.336-.75.75-.75.75.336.75.75zm2.75-7.5c0 1.125-.19 2.688-1.835 3.264-.324.113-1.165.556-1.165 1.236 0 .276-.224.5-.5.5s-.5-.224-.5-.5c0-1.215 1.153-1.942 1.835-2.181.605-.211 1.165-.639 1.165-2.319 0-1.869-.631-2.5-2.5-2.5s-2.5.631-2.5 2.5c0 .276-.224.5-.5.5s-.5-.224-.5-.5c0-2.42 1.079-3.5 3.5-3.5s3.5 1.08 3.5 3.5z"/></svg>