<svg id="Layer_1" viewBox="0 0 24 24" xmlns="http://www.w3.org/2000/svg" data-name="Layer 1"><path d="m15.819 8.605c.241 1.689.241 3.402 0 5.091-.036.249-.25.429-.495.429-.301.003-.541-.273-.496-.571.179-1.254.209-2.522.106-3.783l-6.082 6.082c-.195.195-.512.195-.707 0s-.195-.512 0-.707l6.082-6.082c-1.26-.103-2.529-.074-3.783.106-.279.036-.527-.151-.566-.424s.151-.527.424-.566c1.688-.242 3.401-.242 5.091 0 .217.041.383.207.424.424zm7.181 2.895c0 4.852-1.184 8.417-1.234 8.567-.054.161-.186.283-.351.325-.119.031-2.922.736-6.661 1.005-.814.938-2.312 2.071-2.711 2.102-.481-.031-1.983-1.164-2.798-2.102-3.739-.269-6.542-.974-6.661-1.005-.165-.042-.296-.164-.351-.325-.051-.149-1.234-3.715-1.234-8.567s1.185-8.417 1.235-8.567c.054-.161.186-.283.351-.325.179-.045 4.426-1.108 9.415-1.108s9.236 1.063 9.415 1.108c.165.042.296.164.351.325.051.149 1.234 3.715 1.234 8.567zm-1 0c0-3.961-.835-7.09-1.101-7.988-1.012-.235-4.679-1.012-8.899-1.012s-7.887.777-8.899 1.012c-.266.897-1.101 4.027-1.101 7.988s.835 7.09 1.101 7.988c.802.186 3.288.716 6.425.926.141.01.271.078.358.188.623.785 1.685 1.574 2.115 1.841.431-.267 1.492-1.057 2.115-1.841.088-.11.218-.178.358-.188 3.137-.209 5.623-.74 6.425-.926.266-.897 1.101-4.026 1.101-7.988z"/></svg>