<svg id="Layer_1" viewBox="0 0 24 24" xmlns="http://www.w3.org/2000/svg" data-name="Layer 1"><path d="m21.766 2.433c-.054-.161-.187-.283-.351-.325-.179-.045-4.426-1.108-9.415-1.108s-9.236 1.063-9.415 1.108c-.164.042-.297.164-.351.325-.051.149-1.234 3.715-1.234 8.567s1.184 8.417 1.234 8.567c.054.161.186.283.351.325.119.031 2.922.736 6.661 1.005.814.938 2.316 2.071 2.797 2.102.399-.031 1.897-1.164 2.711-2.102 3.739-.269 6.542-.974 6.661-1.005.165-.042.297-.164.351-.325.051-.149 1.234-3.715 1.234-8.567s-1.184-8.417-1.234-8.567zm-19.766 8.567c0-3.961.835-7.09 1.102-7.988 1.012-.235 4.678-1.012 8.898-1.012s7.887.777 8.898 1.012c.267.897 1.102 4.027 1.102 7.988 0 .211-.011.409-.016.615-1.141-1.075-2.805-2.413-4.988-3.558-.113-.059-.246-.072-.369-.038-2.251.64-5.768 2.215-9.737 6.087-1.695 1.657-3.087 3.356-3.915 4.43-.339-1.26-.974-4.08-.974-7.536zm18.898 7.988c-.802.186-3.287.716-6.425.926-.141.01-.271.078-.358.188-.623.785-1.685 1.574-2.115 1.841-.431-.267-1.492-1.057-2.115-1.841-.088-.11-.218-.178-.358-.188-2.524-.168-4.608-.542-5.751-.779.811-1.05 2.166-2.702 3.813-4.313 3.708-3.616 6.976-5.142 9.121-5.784 2.393 1.284 4.125 2.805 5.164 3.866.016.016.037.023.054.037-.203 3.014-.808 5.304-1.029 6.048zm-12.898-9.988c1.346 0 2-.654 2-2s-.654-2-2-2-2 .654-2 2 .654 2 2 2zm0-3c.794 0 1 .206 1 1s-.206 1-1 1-1-.206-1-1 .206-1 1-1z"/></svg>