<svg id="Layer_1" viewBox="0 0 24 24" xmlns="http://www.w3.org/2000/svg" data-name="Layer 1"><path d="m22.5 10.5h-.509c-.09-4.057-1.066-7.039-1.109-7.169-.054-.162-.187-.285-.353-.327-.162-.041-4.024-1.004-8.529-1.004s-8.368.963-8.53 1.004c-.165.042-.298.165-.352.327-.044.131-1.019 3.112-1.11 7.169h-.509c-.276 0-.5.224-.5.5s.224.5.5.5h.506c.063 4.154 1.068 7.227 1.113 7.36.054.161.186.284.351.326.108.028 2.633.664 6.016.909.721.823 2.074 1.873 2.556 1.903.404-.03 1.752-1.08 2.474-1.903 3.382-.245 5.907-.881 6.015-.909.165-.042.298-.165.352-.326.044-.133 1.049-3.206 1.112-7.36h.506c.276 0 .5-.224.5-.5s-.224-.5-.5-.5zm-2.485 7.781c-.754.172-3.009.646-5.779.831-.141.01-.271.078-.358.188-.545.686-1.477 1.386-1.877 1.639-.4-.253-1.333-.954-1.876-1.639-.087-.11-.218-.178-.358-.188-2.771-.185-5.026-.659-5.779-.831-.251-.847-.986-3.629-.986-7.186s.735-6.34.986-7.187c.952-.219 4.248-.909 8.014-.909s7.062.69 8.015.909c.25.846.985 3.629.985 7.187s-.734 6.339-.985 7.186zm-3.036-11.751c-.095-.022-2.346-.53-4.979-.53s-4.883.508-4.979.53c-.164.037-.298.154-.357.312-.027.073-.665 1.8-.665 4.158s.638 4.085.665 4.158c.059.157.193.274.357.312.095.022 2.356.53 4.979.53s4.884-.508 4.979-.53c.164-.038.298-.154.356-.312.027-.073.665-1.8.665-4.158s-.638-4.085-.665-4.158c-.059-.157-.192-.274-.356-.312zm-.495 8.022c-.665.133-2.452.447-4.483.447s-3.816-.315-4.483-.448c-.166-.538-.517-1.877-.517-3.552s.352-3.015.517-3.552c.667-.133 2.459-.448 4.483-.448s3.818.314 4.483.447c.165.538.517 1.878.517 3.553s-.352 3.015-.517 3.553zm-5.733-3.553c0 .414-.336.75-.75.75s-.75-.336-.75-.75.336-.75.75-.75.75.336.75.75zm4 0c0 .414-.336.75-.75.75s-.75-.336-.75-.75.336-.75.75-.75.75.336.75.75z"/></svg>