<svg id="Layer_1" viewBox="0 0 24 24" xmlns="http://www.w3.org/2000/svg" data-name="Layer 1"><path d="m21.766 2.433c-.054-.16-.186-.283-.351-.324-.179-.046-4.426-1.108-9.415-1.108s-9.236 1.061-9.415 1.107c-.165.041-.296.164-.351.324-.051.149-1.234 3.716-1.234 8.567s1.184 8.418 1.234 8.567c.054.16.186.282.351.324.119.03 2.922.735 6.661 1.006.815.938 2.317 2.069 2.798 2.101.399-.031 1.896-1.163 2.711-2.101 3.739-.271 6.542-.976 6.661-1.006.165-.042.296-.164.351-.324.051-.149 1.234-3.716 1.234-8.567s-1.184-8.418-1.234-8.567zm-.867 16.555c-.805.185-3.329.72-6.425.927-.141.01-.271.078-.358.188-.624.785-1.685 1.574-2.115 1.841-.431-.267-1.492-1.056-2.115-1.841-.088-.109-.218-.178-.358-.188-3.097-.207-5.62-.742-6.425-.927-.267-.898-1.101-4.027-1.101-7.987s.835-7.09 1.101-7.987c1.012-.235 4.679-1.013 8.899-1.013s7.887.777 8.899 1.013c.266.897 1.101 4.026 1.101 7.987s-.834 7.089-1.101 7.987zm-5.899-5.921c0 1.425-1.108 2.645-2.511 2.883l.002.548c0 .276-.222.501-.498.502h-.002c-.275 0-.499-.223-.5-.498l-.002-.552c-1.329-.232-2.401-1.349-2.488-2.694-.018-.275.191-.514.467-.531.275-.022.513.19.531.467.064.997.959 1.808 1.996 1.808 1.087 0 2.005-.886 2.005-1.934 0-1.081-.953-2.066-2-2.066-1.525 0-2.676-1.075-2.676-2.5 0-1.252.903-2.232 2.173-2.452l.002-.55c0-.275.225-.498.5-.498h.002c.276 0 .499.226.498.502l-.002.537c.958.157 1.774.801 2.108 1.704.096.259-.037.546-.296.642-.258.098-.547-.036-.643-.296-.24-.651-.893-1.089-1.624-1.089-.98 0-1.719.645-1.719 1.5 0 .869.705 1.5 1.676 1.5 1.598 0 3 1.433 3 3.066z"/></svg>