<svg id="Layer_1" viewBox="0 0 24 24" xmlns="http://www.w3.org/2000/svg" data-name="Layer 1"><path d="m9.5 18c3.828 0 7.066-.804 7.202-.838.165-.042.297-.164.352-.325.092-.272.946-3.844.946-7.337s-.854-7.065-.946-7.337c-.055-.161-.187-.283-.352-.325-.136-.034-3.374-.838-7.202-.838s-7.066.804-7.202.838c-.165.042-.297.164-.352.325-.092.272-.946 3.844-.946 7.337 0 5.471 1.806 10.12 2.309 10.447.063.032.146.047.243.047.738 0 2.379-.868 3.736-2.164.515.052 1.729.17 2.212.17zm-2.747-1.045c-1.2 1.201-2.407 1.796-2.952 1.984-.461-1.041-1.801-4.799-1.801-9.439 0-3.005.627-5.9.83-6.76.869-.196 3.564-.74 6.67-.74s5.8.544 6.669.74c.207.873.831 3.762.831 6.76s-.627 5.9-.83 6.76c-.869.196-3.564.74-6.67.74-.556 0-2.323-.187-2.341-.188-.149-.02-.3.037-.406.144zm16.22-3.24c-.116 5.016-1.753 8.917-2.181 9.198-.072.037-.159.053-.258.053-.719 0-2.064-.884-2.791-1.45-1.6.228-3.914.483-6.243.483-1.241 0-2.604-.073-4.05-.218-.274-.027-.476-.272-.447-.547.027-.274.274-.471.547-.448 1.413.141 2.742.213 3.95.213 2.375 0 4.744-.274 6.313-.504.14-.02.28.019.39.108.883.726 1.664 1.138 2.066 1.307.439-.947 1.607-4.073 1.703-8.208 0-3.169-.318-5.25-.453-5.991-.244-.054-.623-.134-1.108-.221-.271-.049-.452-.309-.403-.581s.308-.452.581-.404c.872.157 1.418.292 1.479.307.183.045.324.189.366.373.021.096.538 2.387.538 6.528z"/></svg>