<svg id="Layer_1" viewBox="0 0 24 24" xmlns="http://www.w3.org/2000/svg" data-name="Layer 1"><path d="m7.5 7c.276 0 .5.224.5.5v3c0 .276-.224.5-.5.5s-.5-.224-.5-.5v-3c0-.276.224-.5.5-.5zm-3.5.5v3c0 .276.224.5.5.5s.5-.224.5-.5v-3c0-.276-.224-.5-.5-.5s-.5.224-.5.5zm6 0v3c0 .276.224.5.5.5s.5-.224.5-.5v-3c0-.276-.224-.5-.5-.5s-.5.224-.5.5zm3.5-.5c-.276 0-.5.224-.5.5v3c0 .276.224.5.5.5s.5-.224.5-.5v-3c0-.276-.224-.5-.5-.5zm2.5.5v3c0 .276.224.5.5.5s.5-.224.5-.5v-3c0-.276-.224-.5-.5-.5s-.5.224-.5.5zm3 0v3c0 .276.224.5.5.5s.5-.224.5-.5v-3c0-.276-.224-.5-.5-.5s-.5.224-.5.5zm-5.53 14.457c-.469.028-.959.043-1.47.043-7.196 0-10-2.804-10-10s2.804-10 10-10 10 2.804 10 10l-.005.491c-.005.276.215.504.491.509.272-.011.504-.215.509-.491l.005-.509c0-7.813-3.187-11-11-11s-11 3.187-11 11 3.187 11 11 11c.532 0 1.042-.015 1.53-.045.276-.017.485-.254.469-.529-.018-.275-.256-.5-.529-.469zm9.53-2.957c0 2.206-1.794 4-4 4s-4-1.794-4-4c0-2.699 3.524-5.751 3.675-5.88.188-.16.463-.16.65 0 .15.129 3.675 3.181 3.675 5.88zm-1 0c0-1.669-1.936-3.828-3-4.827-1.064.999-3 3.158-3 4.827 0 1.654 1.346 3 3 3s3-1.346 3-3z"/></svg>