<svg id="Layer_1" viewBox="0 0 24 24" xmlns="http://www.w3.org/2000/svg" data-name="Layer 1"><path d="m7.5 7c.276 0 .5.224.5.5v3c0 .276-.224.5-.5.5s-.5-.224-.5-.5v-3c0-.276.224-.5.5-.5zm-3.5.5v3c0 .276.224.5.5.5s.5-.224.5-.5v-3c0-.276-.224-.5-.5-.5s-.5.224-.5.5zm6 0v3c0 .276.224.5.5.5s.5-.224.5-.5v-3c0-.276-.224-.5-.5-.5s-.5.224-.5.5zm3 0v3c0 .276.224.5.5.5s.5-.224.5-.5v-3c0-.276-.224-.5-.5-.5s-.5.224-.5.5zm3 0v3c0 .276.224.5.5.5s.5-.224.5-.5v-3c0-.276-.224-.5-.5-.5s-.5.224-.5.5zm3 0v2c0 .276.224.5.5.5s.5-.224.5-.5v-2c0-.276-.224-.5-.5-.5s-.5.224-.5.5zm-1.679 13.712c-1.389.53-3.13.788-5.321.788-7.196 0-10-2.804-10-10s2.804-10 10-10 10 2.804 10 10c0 .879-.043 1.701-.128 2.443-.031.274.166.522.44.554.271.025.522-.166.554-.44.089-.78.134-1.64.134-2.557 0-7.813-3.187-11-11-11s-11 3.187-11 11 3.187 11 11 11c2.316 0 4.173-.279 5.679-.854.258-.099.387-.388.288-.646s-.39-.386-.646-.288zm5.179-4.212h-4.477c.243-2.532 2.256-4.084 2.277-4.101.22-.166.264-.479.098-.7-.165-.22-.478-.265-.698-.1-.11.083-2.7 2.063-2.7 5.4 0 .276.224.5.5.5h4.477c-.243 2.532-2.256 4.084-2.277 4.101-.22.166-.264.479-.098.7.96.629 3.094-1.661 3.398-5.301 0-.276-.224-.5-.5-.5z"/></svg>