<svg id="Layer_1" viewBox="0 0 24 24" xmlns="http://www.w3.org/2000/svg" data-name="Layer 1"><path d="m22.916 19.723c-1.037-1.556-2.127-2.366-2.173-2.399-.071-.053-.153-.085-.24-.095-.78-.088-3.596-.168-6.02-.206.405-.401.925-.982 1.434-1.746.112-.168.112-.387 0-.555-1.037-1.556-2.127-2.366-2.173-2.399-.071-.053-.153-.085-.24-.095-1.171-.132-3.014-.214-5.001-.226.402-.4.913-.974 1.414-1.725.112-.168.112-.387 0-.555-1.037-1.556-2.127-2.366-2.173-2.399-.06-.044-.128-.074-.201-.089-.049-.009-1.224-.234-2.792-.234-1.588 0-2.917.362-2.973.377-.142.04-.259.14-.321.273-.019.04-.456 1.006-.456 2.35 0 1.063.324 2.095.468 2.5-.143.405-.468 1.437-.468 2.5s.324 2.095.468 2.5c-.143.405-.468 1.437-.468 2.5 0 1.337.457 2.421.476 2.466.076.178.248.296.44.304.06.002 5.985.23 10.083.23 2.439 0 7.423-.106 8.503-.229.087-.01.169-.042.24-.095.046-.033 1.135-.844 2.172-2.399.112-.168.112-.387 0-.555zm-8.023-4.723c-.699.978-1.39 1.586-1.642 1.793-.621.063-2.339.207-5.25.207h-5.647c-.138-.426-.354-1.221-.354-2s.217-1.574.354-2h5.646c2.912 0 4.629.144 5.25.207.252.207.944.815 1.643 1.793zm-12.61-6.717c.432-.098 1.395-.283 2.467-.283 1.196 0 2.164.143 2.486.196.24.195.944.809 1.656 1.804-.711.995-1.416 1.608-1.656 1.804-.323.054-1.291.196-2.487.196h-2.395c-.138-.426-.354-1.221-.354-2s.175-1.403.283-1.717zm17.97 13.508c-1.267.109-5.934.209-8.252.209-3.518 0-8.395-.169-9.708-.218-.118-.364-.292-1.032-.292-1.782 0-.779.217-1.574.354-2h9.645c2.319 0 6.985.1 8.252.209.254.208.943.816 1.641 1.791-.697.975-1.386 1.583-1.64 1.791zm-7.904-11.716c.51.856 1.204 1.029 2.057.521l.426-.255c.325.226.712.391 1.168.498v.661c0 .995.505 1.5 1.5 1.5s1.5-.505 1.5-1.5v-.661c.457-.107.843-.272 1.168-.498l.426.255c.854.508 1.546.334 2.057-.521s.336-1.546-.519-2.057l-.656-.392c.015-.198.023-.406.023-.627s-.008-.429-.023-.627l.656-.392c.854-.511 1.029-1.202.519-2.057-.509-.855-1.202-1.028-2.057-.521l-.426.255c-.325-.226-.712-.391-1.168-.498v-.661c0-.995-.505-1.5-1.5-1.5s-1.5.505-1.5 1.5v.661c-.457.107-.843.272-1.168.498l-.426-.255c-.854-.51-1.547-.335-2.057.521-.51.854-.336 1.546.519 2.057l.656.392c-.015.198-.023.406-.023.627s.008.429.023.627l-.656.392c-.854.511-1.029 1.202-.519 2.057zm1.031-1.197.929-.555c.17-.102.264-.295.24-.491-.032-.256-.049-.531-.049-.832s.017-.576.049-.832c.024-.196-.069-.39-.24-.491l-.929-.555c-.377-.225-.398-.308-.173-.686.226-.379.31-.399.686-.173l.724.433c.192.113.434.088.597-.063.311-.29.755-.475 1.359-.564.245-.036.427-.246.427-.494v-1.074c0-.439.061-.5.5-.5s.5.061.5.5v1.074c0 .248.182.458.427.494.604.09 1.048.274 1.359.564.164.151.407.177.597.063l.724-.433c.376-.227.46-.206.686.173.225.378.204.461-.173.686l-.929.555c-.17.102-.264.295-.24.491.032.256.049.531.049.832s-.017.576-.049.832c-.024.196.069.39.24.491l.929.555c.377.225.398.308.173.686-.226.378-.31.398-.686.173l-.724-.433c-.19-.111-.433-.086-.597.063-.311.29-.755.475-1.359.564-.245.036-.427.246-.427.494v1.074c0 .439-.061.5-.5.5s-.5-.061-.5-.5v-1.074c0-.248-.182-.458-.427-.494-.604-.09-1.048-.274-1.359-.564-.164-.152-.407-.176-.597-.063l-.724.433c-.375.226-.459.205-.686-.173-.225-.378-.204-.461.173-.686zm4.12.122c1.346 0 2-.654 2-2s-.654-2-2-2-2 .654-2 2 .654 2 2 2zm0-3c.794 0 1 .206 1 1s-.206 1-1 1-1-.206-1-1 .206-1 1-1z"/></svg>