<svg id="Layer_1" viewBox="0 0 24 24" xmlns="http://www.w3.org/2000/svg" data-name="Layer 1"><path d="m19.643 22.021c-.59-.176-1.494-.405-2.643-.602v-3.615c2.763-.543 4-2.348 4-5.803 0-3.486-1.257-5.287-4.02-5.816-.068-1.025-.471-1.675-1.241-1.976.146-.286.219-.448.219-.448.063-.146.055-.314-.025-.452-.014-.023-.286-.477-.889-1.014l.362-.501c.162-.224.111-.536-.112-.698-.224-.16-.536-.111-.698.112l-.348.482c-.824-.53-1.46-.672-1.49-.678-.156-.031-.319.011-.438.118-.065.059-1.622 1.473-4.021 4.791-2.4 3.319-3.256 5.24-3.292 5.32-.064.146-.055.314.025.453.017.029.427.723 1.392 1.419.964.697 1.75.87 1.784.877.155.033.319-.01.438-.118.065-.059 1.622-1.473 4.021-4.791.105-.145.199-.28.297-.42.389.228.899.339 1.537.339 1.453 0 2.239-.583 2.442-1.808 2.179.467 3.058 1.853 3.058 4.808 0 3.645-1.355 5-5 5h-11.501c-.276 0-.5.224-.5.5s.224.5.5.5h3.5v3.418c-1.148.198-2.052.427-2.643.602-.265.079-.416.357-.336.622.078.267.364.415.622.337 1.229-.366 3.819-.979 7.357-.979s6.129.613 7.357.979c.269.078.544-.073.622-.337.078-.265-.072-.543-.337-.622zm-11.467-9.085c-.252-.092-.678-.28-1.167-.634s-.802-.699-.968-.909c.306-.615 1.223-2.336 3.067-4.887 1.844-2.55 3.191-3.959 3.68-4.441.251.092.678.28 1.167.634s.802.7.968.91c-.05.102-.125.244-.21.405-.072-.003-.137-.013-.213-.013-1.706 0-2.5.794-2.5 2.5 0 .569.097 1.028.278 1.398-.137.195-.274.39-.423.596-1.844 2.55-3.191 3.959-3.68 4.441zm6.324-4.936c-1.149 0-1.5-.351-1.5-1.5s.351-1.5 1.5-1.5 1.5.351 1.5 1.5-.351 1.5-1.5 1.5zm-6.5 13.266v-3.266h7c.359 0 .676-.032 1-.058v3.324c-1.151-.155-2.487-.266-4-.266s-2.849.112-4 .266z"/></svg>