<svg id="Layer_1" viewBox="0 0 24 24" xmlns="http://www.w3.org/2000/svg" data-name="Layer 1"><path d="m16.157 7.462c-.086-.019-2.126-.462-4.157-.462s-4.071.443-4.157.462c-.19.042-.339.19-.381.381-.019.086-.462 2.126-.462 4.157s.443 4.071.462 4.157c.042.19.19.339.381.381.086.019 2.126.462 4.157.462s4.071-.443 4.157-.462c.19-.042.339-.19.381-.381.019-.086.462-2.126.462-4.157s-.443-4.071-.462-4.157c-.042-.19-.19-.339-.381-.381zm-.532 8.163c-.643.121-2.158.375-3.625.375s-2.982-.254-3.625-.375c-.121-.643-.375-2.158-.375-3.625s.254-2.982.375-3.625c.643-.121 2.158-.375 3.625-.375s2.982.254 3.625.375c.121.643.375 2.158.375 3.625s-.254 2.982-.375 3.625zm6.875-1.625h-1.56c.043-.654.07-1.327.07-2s-.027-1.346-.07-2h1.56c.276 0 .5-.224.5-.5s-.224-.5-.5-.5h-1.64c-.107-1.145-.253-2.184-.386-3h1.526c.276 0 .5-.224.5-.5s-.224-.5-.5-.5h-1.701c-.083-.445-.143-.717-.152-.758-.042-.19-.19-.339-.381-.381-.041-.009-.317-.069-.767-.153v-1.708c0-.276-.224-.5-.5-.5s-.5.224-.5.5v1.534c-.817-.133-1.856-.279-3-.385v-1.649c0-.276-.224-.5-.5-.5s-.5.224-.5.5v1.57c-.651-.043-1.32-.07-1.99-.07-.677 0-1.353.027-2.01.071v-1.571c0-.276-.224-.5-.5-.5s-.5.224-.5.5v1.651c-1.146.107-2.185.253-3 .386v-1.537c0-.276-.224-.5-.5-.5s-.5.224-.5.5v1.712c-.439.083-.708.141-.748.15-.19.042-.339.19-.381.381-.009.04-.068.313-.151.758h-1.72c-.276 0-.5.224-.5.5s.224.5.5.5h1.545c-.133.816-.279 1.855-.386 3h-1.658c-.276 0-.5.224-.5.5s.224.5.5.5h1.58c-.043.654-.07 1.327-.07 2s.027 1.346.07 2h-1.58c-.276 0-.5.224-.5.5s.224.5.5.5h1.66c.107 1.145.252 2.184.386 3h-1.545c-.276 0-.5.224-.5.5s.224.5.5.5h1.72c.083.445.143.717.151.758.042.19.19.339.381.381.04.009.309.067.748.15v1.712c0 .276.224.5.5.5s.5-.224.5-.5v-1.537c.815.133 1.854.28 3 .386v1.651c0 .276.224.5.5.5s.5-.224.5-.5v-1.571c.657.043 1.333.071 2.01.071.67 0 1.339-.027 1.99-.07v1.57c0 .276.224.5.5.5s.5-.224.5-.5v-1.649c1.144-.106 2.183-.252 3-.385v1.534c0 .276.224.5.5.5s.5-.224.5-.5v-1.708c.449-.084.726-.144.767-.153.19-.042.339-.19.381-.381.009-.04.068-.313.152-.758h1.701c.276 0 .5-.224.5-.5s-.224-.5-.5-.5h-1.526c.133-.816.279-1.855.386-3h1.64c.276 0 .5-.224.5-.5s-.224-.5-.5-.5zm-10.49 6c-3.065 0-6.234-.576-7.227-.773-.197-.992-.773-4.159-.773-7.227s.576-6.233.773-7.227c.992-.197 4.161-.773 7.227-.773s6.233.576 7.226.773c.197.993.774 4.162.774 7.227s-.577 6.234-.774 7.227c-.992.197-4.158.773-7.226.773z"/></svg>