<?xml version="1.0" encoding="UTF-8"?>
<svg xmlns="http://www.w3.org/2000/svg" id="Layer_1" data-name="Layer 1" viewBox="0 0 24 24">
  <path d="M12,19.273c5.144,0,7.438-2.818,7.438-9.137S17.144,1,12,1,4.563,3.818,4.563,10.137s2.293,9.137,7.437,9.137Zm0-17.273c2.819,0,5.461,.701,6.22,5.207h-2.802c-.276,0-.5,.224-.5,.5s.224,.5,.5,.5h2.933c.057,.587,.087,1.229,.087,1.93s-.03,1.342-.087,1.93h-2.933c-.276,0-.5,.224-.5,.5s.224,.5,.5,.5h2.802c-.759,4.506-3.401,5.207-6.22,5.207s-5.46-.701-6.22-5.207h2.802c.276,0,.5-.224,.5-.5s-.224-.5-.5-.5h-2.932c-.057-.587-.087-1.229-.087-1.93s.03-1.342,.087-1.93h2.932c.276,0,.5-.224,.5-.5s-.224-.5-.5-.5h-2.802c.759-4.506,3.401-5.207,6.22-5.207Z"/>
  <path d="M22.414,11.783c-.273-.018-.516,.184-.538,.459-.631,8.065-5.719,9.758-9.876,9.758S2.755,20.307,2.124,12.242c-.021-.276-.264-.478-.538-.459-.275,.021-.481,.262-.459,.538,.728,9.292,7.125,10.68,10.874,10.68s10.146-1.388,10.874-10.68c.021-.275-.184-.516-.459-.538Z"/>
</svg>
