<svg id="Layer_1" viewBox="0 0 24 24" xmlns="http://www.w3.org/2000/svg" data-name="Layer 1"><path d="m22.9 16.8c-1.023 1.364-2.234 2.576-3.601 3.6-.219.165-.533.122-.7-.1-.165-.221-.12-.535.101-.7 1.009-.757 1.906-1.643 2.721-2.6h-2.521c-.157.001-3.9.098-3.9 5.5 0 .276-.224.5-.5.5s-.5-.224-.5-.5c0-6.426 4.852-6.5 4.9-6.5h2.521c-.816-.958-1.713-1.843-2.721-2.6-.221-.166-.266-.479-.101-.7.167-.221.48-.264.7-.1 1.366 1.024 2.577 2.236 3.601 3.6.133.178.133.422 0 .6zm-7.4-7.8c-2.215 0-3 .785-3 3v7.417c0 1.626-1.069 3.019-2.601 3.387-.549.131-1.17.195-1.899.195-3.375 0-4.882-1.385-4.99-4.618-1.369-.731-2.01-2.135-2.01-4.382 0-1.746.372-2.993 1.178-3.805-.119-.495-.178-1.051-.178-1.695 0-2.77 1.087-4.154 3.509-4.433.063-.747.368-1.451.866-1.998.594-.652 1.399-1.029 2.268-1.062 1.414-.053 2.357.202 2.983.805.145.14.27.298.378.472.536-.873 1.511-1.284 2.996-1.284 2.271 0 3.361.95 3.487 3.067 2.425.278 3.513 1.662 3.513 4.433 0 .657-.061 1.227-.185 1.73.534.54.879 1.256 1.052 2.177.051.271-.128.533-.399.583-.264.052-.534-.126-.583-.399-.153-.817-.465-1.412-.953-1.817-.155-.13-.218-.341-.156-.535.151-.479.225-1.048.225-1.74 0-2.41-.821-3.352-3.029-3.474-.266-.015-.473-.233-.473-.499.002-1.896-.629-2.527-2.498-2.527s-2.5.631-2.5 2.5v4.434c.655-.632 1.64-.934 3-.934.276 0 .5.224.5.5s-.224.5-.5.5zm-4 10.417v-4.351c-.655.632-1.64.934-3 .934-.276 0-.5-.224-.5-.5s.224-.5.5-.5c2.215 0 3-.785 3-3v-7.5c0-.969-.181-1.595-.568-1.968-.375-.361-.991-.532-1.925-.532-1.371-.134-2.615 1.094-2.508 2.472.021.271-.198.537-.47.554-2.208.122-3.029 1.063-3.029 3.474 0 .4.032.748.081 1.071.752-.378 1.708-.571 2.919-.571.276 0 .5.224.5.5s-.224.5-.5.5c-1.346 0-2.279.233-2.914.749-.008.007-.009.019-.017.026-.729.606-1.068 1.631-1.068 3.225 0 1.982.525 3.095 1.703 3.607.182.079.3.258.301.456.017 2.87 1.1 3.937 3.996 3.937.641 0 1.201-.057 1.666-.168 1.063-.255 1.834-1.271 1.834-2.415z"/></svg>