<svg id="Layer_1" viewBox="0 0 24 24" xmlns="http://www.w3.org/2000/svg" data-name="Layer 1"><path d="m14.5 9.01c-2.02.16-4.29 2.25-5.32 3.46-1.7 2-1.56 3.65.43 5.35 1.03.86 1.84 1.23 2.78 1.17.88-.07 1.69-.58 2.56-1.6 1.46-1.72 3.32-5.5 1.77-7.46 2.2-2.83 4.24-5.55 6.09-8.14.16-.22.11-.54-.12-.7-.22-.16-.54-.11-.7.12-1.84 2.57-3.86 5.28-6.05 8.08-.43-.23-.91-.32-1.45-.28zm-4.56 4.11c1.2-1.42 3.17-2.99 4.64-3.11.25-.02.52 0 .73.09-1.7 2.16-3.49 4.39-5.37 6.66-1.26-1.21-1.26-2.17 0-3.64zm4.25 3.62c-.69.81-1.28 1.21-1.88 1.26-.48.04-1-.16-1.6-.59 1.87-2.27 3.66-4.48 5.35-6.64.85 1.5-.64 4.52-1.88 5.98zm8.81-4.9v3.66c0 4.14-3.36 7.5-7.5 7.5h-7c-4.14 0-7.5-3.36-7.5-7.5v-3.66c0-.21.13-.39.32-.47.03-.01.33-.13.9-.29-.14-.44-.21-.97-.21-1.59 0-2.25.94-3.34 3.02-3.48.14-2.08 1.23-3.02 3.48-3.02h.2c.53-1.79 2.12-2 3.3-2s2.77.22 3.3 2c.97-.04 1.91.15 2.47.53.23.15.3.46.15.69s-.46.3-.69.15c-.38-.25-.95-.37-1.73-.37-.19 0-.37.01-.54.03-.25.02-.49-.16-.54-.41-.17-.97-.65-1.62-2.42-1.62s-2.25.65-2.42 1.62c-.04.26-.28.43-.54.41-.17-.02-.35-.03-.54-.03-1.87 0-2.5.63-2.5 2.5 0 .28-.22.5-.5.5-1.87 0-2.5.63-2.5 2.5 0 .56.06 1 .19 1.35 1.01-.23 2.41-.48 4.26-.65.28-.03.52.18.54.45.03.27-.18.52-.45.54-3.01.28-4.85.78-5.55 1v3.3c0 3.58 2.92 6.5 6.5 6.5h7c3.58 0 6.5-2.92 6.5-6.5v-3.3c-.43-.14-1.29-.38-2.59-.61-.27-.05-.45-.31-.4-.58s.31-.45.58-.4c.46.08.86.17 1.22.25.13-.35.19-.79.19-1.35 0-.78-.12-1.35-.37-1.73-.15-.23-.09-.54.15-.69.23-.15.54-.09.69.15.36.55.53 1.29.53 2.27 0 .63-.07 1.15-.22 1.59.57.16.88.28.9.28.19.08.32.26.32.47z"/></svg>