<svg id="Layer_1" viewBox="0 0 24 24" xmlns="http://www.w3.org/2000/svg"><path d="m9.451 15.293c.057.125 1.396 3.111 1.548 7.188.01.275-.205.508-.481.519-.274.01-.509-.205-.518-.481-.094-2.515-.673-4.617-1.073-5.795-.303.686-.684 1.725-.944 3.071-.045.235-.251.405-.491.405s-.445-.17-.491-.405c-.26-1.346-.641-2.385-.944-3.07-.4 1.18-.98 3.286-1.074 5.794-.01.275-.242.489-.518.481-.276-.011-.491-.243-.481-.519.152-4.077 1.491-7.063 1.548-7.188.076-.166.235-.277.417-.292.182-.01.357.072.457.226.031.047.583.903 1.085 2.458.502-1.555 1.054-2.411 1.085-2.458.1-.153.277-.237.457-.226.182.015.341.126.417.292zm7.549 3.707c0 1.978-.297 4-2.5 4s-2.5-2.022-2.5-4 .297-4 2.5-4 2.5 2.022 2.5 4zm-1 0c0-2.769-.741-3-1.5-3s-1.5.231-1.5 3 .741 3 1.5 3 1.5-.231 1.5-3zm6.742-3.588c-.048-.271-.307-.449-.58-.404-.272.049-.453.308-.405.58.002.014.242 1.388.242 3.412 0 .665-.026 1.261-.061 1.761l-2.742-5.484c-.096-.192-.306-.3-.519-.271-.213.031-.383.195-.421.407-.011.059-.258 1.469-.258 3.588s.247 3.529.258 3.588c.048.272.31.45.58.404.272-.049.453-.308.405-.58-.002-.014-.242-1.388-.242-3.412 0-.665.026-1.261.061-1.761l2.742 5.484c.096.193.308.302.519.271.213-.031.383-.195.421-.407.011-.059.258-1.469.258-3.588s-.247-3.529-.258-3.588zm-19.705 5.895c.076.266-.078.543-.344.618-.258.076-.543-.075-.618-.343-.043-.154-1.075-3.816-1.075-8.582s1.031-8.428 1.075-8.582c.047-.166.176-.295.342-.343.074-.022.989-.281 2.583-.54v-2.035c0-.276.224-.5.5-.5s.5.224.5.5v1.889c1.565-.211 3.591-.389 6-.389s4.435.178 6 .389v-1.889c0-.276.224-.5.5-.5s.5.224.5.5v2.036c1.595.259 2.509.518 2.583.54.166.048.294.177.342.343.041.142.995 3.533 1.07 8.035.004.276-.216.503-.492.508-.275.005-.504-.215-.508-.492-.021-1.234-.114-2.376-.233-3.398-.607-.162-4.272-1.072-9.763-1.072s-9.165.912-9.765 1.072c-.136 1.166-.235 2.499-.235 3.928 0 4.618 1.026 8.271 1.037 8.307zm-.661-13.303c1.247-.301 4.686-1.004 9.624-1.004s8.375.703 9.623 1.004c-.216-1.467-.467-2.561-.587-3.039-.938-.233-4.258-.965-9.035-.965s-8.097.731-9.035.965c-.121.479-.372 1.569-.589 3.039z"/></svg>