<svg id="Layer_1" viewBox="0 0 24 24" xmlns="http://www.w3.org/2000/svg" data-name="Layer 1"><path d="m1.046 13.531c-.03-.488-.045-.998-.045-1.531 0-7.812 3.186-10.999 10.999-10.999 4.834 0 8.231 1.502 9.931 4.323.107-1.25.08-2.508-.098-3.753-.039-.273.15-.526.424-.566.268-.042.526.149.566.424.236 1.649.236 3.321 0 4.97-.031.22-.204.393-.425.424-.824.118-1.654.176-2.484.176s-1.66-.059-2.484-.176c-.273-.039-.464-.292-.425-.566s.296-.465.565-.424c1.185.169 2.38.202 3.569.114-1.492-2.575-4.62-3.947-9.139-3.947-7.196.001-9.999 2.804-9.999 10 0 .511.015 1 .043 1.469.017.276-.192.513-.469.53-.01 0-.021 0-.03 0-.263 0-.482-.204-.499-.469zm21.379-3.53c-.276.017-.485.254-.469.53.028.469.043.958.043 1.469 0 7.196-2.804 9.999-9.999 9.999-4.519 0-7.647-1.372-9.139-3.947 1.189-.088 2.384-.056 3.569.114.268.035.526-.152.565-.424.039-.273-.151-.527-.425-.566-1.648-.235-3.32-.235-4.968 0-.221.032-.394.204-.425.424-.236 1.649-.236 3.321 0 4.97.038.275.299.464.566.424.273-.04.463-.292.424-.566-.178-1.245-.205-2.503-.098-3.753 1.7 2.821 5.097 4.323 9.931 4.323 7.813 0 10.999-3.187 10.999-10.999 0-.532-.015-1.042-.045-1.531-.017-.275-.262-.485-.529-.468zm-4.425 1.999c0 4.205-1.794 6-6 6-.002 0-.004 0-.006 0 0 0-.001 0-.002 0s-.002 0-.004 0c-4.196-.004-5.987-1.798-5.987-5.999s1.794-6 6-6 0 0 0 0c4.205 0 5.998 1.795 5.998 6zm-6.51 4.974-.002-1.021c-1.04-.208-1.848-1.096-1.919-2.19-.018-.276.191-.514.467-.531.256-.013.515.19.531.467.047.73.657 1.302 1.39 1.302.769 0 1.393-.625 1.393-1.393s-.625-1.393-1.393-1.393c-1.248 0-2.188-.887-2.188-2.062 0-1.02.74-1.873 1.728-2.093l.003-1.033c-3.249.13-4.498 1.51-4.498 4.974s1.247 4.841 4.49 4.973zm5.51-4.974c0-3.465-1.25-4.844-4.501-4.974l-.003 1.05c.725.164 1.338.655 1.596 1.352.096.259-.036.546-.295.642-.262.097-.547-.036-.643-.295-.172-.463-.638-.774-1.159-.774-.677 0-1.226.517-1.226 1.152 0 .615.5 1.062 1.188 1.062 1.319 0 2.393 1.074 2.393 2.393 0 1.136-.798 2.086-1.862 2.329l.002 1.039c3.258-.127 4.51-1.507 4.51-4.974z"/></svg>