<svg id="Layer_1" viewBox="0 0 24 24" xmlns="http://www.w3.org/2000/svg" data-name="Layer 1"><path d="m20.77 7.979c.078.005.145.021.23.021 1.309 0 2-.691 2-2s-.691-2-2-2c-.085 0-.151.015-.23.021-.526-2.085-2.023-3.021-4.77-3.021s-4.245.936-4.77 3.021c-.078-.005-.145-.021-.23-.021-1.309 0-2 .691-2 2s.691 2 2 2c.085 0 .151-.015.23-.021.131.521.326.969.584 1.348-5.321 1.034-7.814 4.588-7.814 11.15v.276c-1.341-.733-2-1.806-2-3.254v-11.999c0-2.584.916-3.5 3.5-3.5.276 0 .5-.224.5-.5s-.224-.5-.5-.5c-3.112 0-4.5 1.388-4.5 4.5v12c0 2.428 1.471 4.062 4.372 4.858 2.426.66 5.237.64 7.628.642 4.454 0 8.452-.973 8.62-1.015.268-.066.432-.337.366-.604-.066-.269-.337-.429-.605-.366-.019.005-.914.221-2.297.449.277-2.489.417-4.318.417-5.438 0-2.914-.274-4.749-.457-5.651.887-.485 1.445-1.279 1.727-2.397zm.23-2.979c.757 0 1 .243 1 1s-.243 1-1 1c-.021 0-.037-.005-.058-.005.032-.316.058-.638.058-.995s-.026-.679-.058-.995c.021 0 .036-.005.058-.005zm-10 2c-.757 0-1-.243-1-1s.243-1 1-1c.021 0 .037.005.058.005-.032.316-.058.638-.058.995s.026.679.058.995c-.021 0-.036.005-.058.005zm3.089 14.978c.245-1.841.241-2.733.296-3.978 0-1.514.486-2 2-2s2 .486 2 2c.037.997-.279 2.276-.276 3.614-1.166.165-2.555.312-4.02.364zm4.406-6.385c-.488-.394-1.177-.593-2.11-.593-2.045 0-2.973.898-3 2.911-.053 1.294-.048 2.167-.308 4.088-2.533-.024-5.595.062-8.077-.812v-.709c-.009-6.368 2.386-9.485 7.654-10.306.799.553 1.89.828 3.346.828.807 0 1.496-.089 2.097-.254.163.862.374 2.45.398 4.847zm-2.495-5.593c-2.953 0-4-1.047-4-4s1.047-4 4-4 4 1.047 4 4-1.047 4-4 4z"/></svg>