<svg id="Layer_1" viewBox="0 0 24 24" xmlns="http://www.w3.org/2000/svg" data-name="Layer 1"><path d="m22.612 9.062c-.643-.147-1.79-.345-3.199-.531 2.143-2.341 3.47-4.066 3.484-4.085.083-.108.118-.246.097-.38-.008-.05-.199-1.23-1.015-2.046s-1.996-1.007-2.046-1.015c-.135-.021-.272.014-.38.097-.03.023-3.064 2.351-6.601 5.887l-1.01 1.011c-4.222.006-8.952.693-10.555 1.062-.227.052-.388.254-.388.487v4.457c0 2.477 1.658 5.024 4.52 5.774.248 1.518.554 2.183.568 2.212.058.123.163.217.291.261.089.03 2.218.747 5.622.747s5.533-.717 5.622-.747c.128-.044.233-.138.291-.26.014-.03.321-.694.568-2.213 2.969-.777 4.52-3.448 4.52-5.773v-4.457c0-.233-.161-.436-.388-.487zm-2.633-7.023c.301.079.879.275 1.293.689s.61.992.689 1.293c-.426.541-1.791 2.24-3.768 4.361-1.501-.169-3.191-.308-4.859-.36l.326-.326c2.995-2.995 5.62-5.107 6.319-5.658zm2.021 11.967c0 2.008-1.396 4.327-4.063 4.874-.207.042-.364.209-.394.418-.16 1.107-.357 1.772-.461 2.074-.605.173-2.446.627-5.082.627s-4.473-.455-5.082-.628c-.082-.236-.219-.693-.352-1.406.23.022.466.034.708.034h7.225c.276 0 .5-.224.5-.5s-.224-.5-.5-.5h-7.224c-2.928.118-5.367-2.456-5.275-4.994v-4.052c1.854-.373 6.144-.954 10-.954s8.139.582 10 .955z"/></svg>