<svg id="Layer_1" viewBox="0 0 24 24" xmlns="http://www.w3.org/2000/svg" data-name="Layer 1"><path d="m22.593 22.009c-.024-.004-1.091-.203-2.719-.422 2.094-.764 3.127-2.606 3.127-5.587 0-4.037-1.881-6-5.75-6-3.273 0-4.587-1.113-4.723-4.003.615-.007 1.206-.241 1.666-.665.163-.15.207-.391.108-.59-.099-.198-.315-.308-.535-.27-.904.181-1.776-.552-1.766-1.473 0-.417.173-.808.486-1.099.163-.15.207-.391.107-.59-.099-.198-.315-.305-.536-.269-1.192.214-2.058 1.248-2.058 2.457 0 1.017.612 1.89 1.485 2.28-.078 3.057-1.379 4.22-4.735 4.22-3.869 0-5.75 1.963-5.75 6 0 2.981 1.033 4.823 3.127 5.587-1.628.22-2.695.418-2.719.422-.271.051-.45.312-.399.584.051.271.313.45.583.398.053-.01 5.332-.991 10.408-.991s10.354.981 10.407.991c.265.052.534-.125.584-.398.051-.271-.127-.533-.398-.584zm-15.843-1.009c-3.285 0-4.75-1.542-4.75-5s1.465-5 4.75-5c2.797 0 4.481-.792 5.25-2.565.769 1.773 2.453 2.565 5.25 2.565 3.285 0 4.75 1.542 4.75 5s-1.465 5-4.75 5z"/></svg>