<svg id="Layer_1" viewBox="0 0 24 24" xmlns="http://www.w3.org/2000/svg" data-name="Layer 1"><path d="m22.987 21.306c-.324-1.487-1.387-5.519-4.248-10.835-3.414-6.342-6.095-9.041-6.39-9.329-.194-.188-.504-.188-.698 0-.294.287-2.976 2.987-6.39 9.329-2.861 5.316-3.924 9.348-4.248 10.835-.064.266.125.552.394.598 1.72.33 6.195 1.096 10.593 1.096s8.873-.766 10.593-1.096c.269-.046.458-.332.394-.598zm-10.987-19.081c.783.857 2.802 3.275 5.268 7.662-.558 1.631-1.671 3.122-2.256 3.834-.623-.797-1.117-1.57-1.567-2.448-.178-.38-.74-.35-.899.02-.567 1.239-1.15 2.32-2.07 3.459-.753-.81-2.468-2.782-3.65-5.032 2.424-4.282 4.401-6.649 5.174-7.495zm0 19.774c-3.931 0-7.935-.626-9.895-.983.422-1.734 1.513-5.383 4.036-10.072.037-.068.071-.125.107-.192 1.604 2.81 3.798 5.002 3.899 5.102.196.201.549.189.729-.027.959-1.101 1.596-2.124 2.154-3.234.452.765.96 1.477 1.585 2.226.184.229.547.235.749.021.073-.078 1.599-1.728 2.53-3.825 2.495 4.653 3.579 8.275 4 10-1.959.356-5.964.983-9.895.983z"/></svg>