<?xml version="1.0" encoding="UTF-8"?>
<svg xmlns="http://www.w3.org/2000/svg" id="Layer_1" data-name="Layer 1" viewBox="0 0 24 24">
  <path d="M16.368,7.726c2.039,0,3.03-.999,3.03-3.053s-.991-3.053-3.03-3.053-3.03,.999-3.03,3.053c0,2.737,1.729,3.053,3.03,3.053Zm0-5.106c1.286,0,2.03,.336,2.03,2.053s-.745,2.053-2.03,2.053-2.03-.336-2.03-2.053,.745-2.053,2.03-2.053Z"/>
  <path d="M12.914,11.124c.221-.166,.265-.479,.099-.7-1.662-2.209-3.277-3.511-3.345-3.566-.185-.148-.45-.146-.632,.006-.25,.208-6.156,5.192-8.024,13.744-.056,.253,.092,.507,.34,.584,2.193,.679,4.454,1.079,6.721,1.188,.008,0,.016,0,.024,0,.265,0,.486-.208,.499-.476,.013-.276-.2-.51-.476-.523-2.03-.098-4.056-.438-6.029-1.011,1.642-6.848,6.056-11.329,7.271-12.457,.542,.481,1.694,1.574,2.851,3.112,.167,.22,.479,.266,.7,.099Z"/>
  <path d="M22.988,20.935c-1.319-6.042-5.501-9.566-5.678-9.713-.186-.153-.454-.153-.639,0-.177,.147-4.353,3.671-5.673,9.713-.056,.254,.092,.508,.34,.584,1.85,.573,3.752,.859,5.655,.859s3.805-.287,5.654-.859c.248-.077,.396-.331,.34-.584Zm-10.907-.239c1.122-4.5,3.956-7.503,4.91-8.414,.956,.908,3.791,3.903,4.915,8.414-3.224,.911-6.601,.911-9.825,0Z"/>
</svg>
