<svg id="Layer_1" viewBox="0 0 24 24" xmlns="http://www.w3.org/2000/svg" data-name="Layer 1"><path d="m23 8.5c0-3.84-1.635-5.485-5.458-5.498-.623-1.37-1.912-2.002-4.042-2.002-3.154 0-4.5 1.346-4.5 4.5 0 1.675.448 2.916 1.258 3.67-4.416.641-6.35 3.493-6.234 8.975-.552.042-1.019.089-1.389.132-.83.098-1.484.734-1.591 1.547-.056.392-.056.96 0 1.353.106.812.761 1.448 1.591 1.546 1.072.126 2.903.277 5.533.277h6.333c.276 0 .5-.224.5-.5s-.224-.5-.5-.5h-6.333c-2.582 0-4.37-.147-5.416-.271-.369-.043-.67-.331-.716-.682-.046-.317-.046-.779 0-1.095.046-.352.347-.639.716-.683 1.046-.124 2.834-.271 5.416-.271h11.333c.276 0 .5-.224.5-.5s-.224-.5-.5-.5h-1.509c-.034-1.639-.224-3.057-.39-4h2.777c1.471 0 2.668-1.197 2.668-2.676l-.046-2.824zm-14.833 9.5c-1.237 0-2.29.034-3.177.082.013-5.642 1.91-7.912 7.088-8.067.374 2.467 1.789 3.715 4.499 3.936.166.892.378 2.349.415 4.049zm12.211-5h-2.878c-2.808 0-4.081-.886-4.43-3.082.611-.172.93-.639.93-1.418 0-.995-.505-1.5-1.5-1.5-.276 0-.5.224-.5.5s.224.5.5.5c.439 0 .5.061.5.5s-.061.5-.5.5c-2.066 0-2.5-1.903-2.5-3.5 0-2.584.916-3.5 3.5-3.5s3.5.916 3.5 3.5c0 .753-.082 1.353-.25 1.835-.092.261.046.546.307.637.263.091.547-.046.637-.307.206-.59.307-1.298.307-2.165 0-.556-.058-1.036-.144-1.482 2.998.093 4.144 1.33 4.144 4.49l.046 2.824c0 .92-.748 1.668-1.668 1.668z"/></svg>