<?xml version="1.0" encoding="UTF-8"?>
<svg xmlns="http://www.w3.org/2000/svg" id="Layer_1" data-name="Layer 1" viewBox="0 0 24 24">
  <path d="M19.392,6.436l.398-3.203c.032-.259-.141-.5-.396-.551-.039-.008-3.962-.796-8.445-.796S2.543,2.673,2.504,2.682c-.256,.052-.429,.292-.396,.551l1.886,15.184c.022,.181,.141,.335,.311,.403,.084,.034,2.106,.821,6.645,.821s6.561-.788,6.645-.821c.169-.068,.288-.222,.311-.403l.46-3.701c.162,.019,.327,.03,.493,.03,2.285,0,4.143-1.872,4.143-4.172,0-2.118-1.541-3.871-3.608-4.137Zm-2.441,11.543c-.671,.199-2.598,.662-6.002,.662s-5.331-.462-6.002-.662L3.158,3.577c1.142-.201,4.288-.692,7.791-.692s6.649,.491,7.791,.692l-1.789,14.402Zm1.906-4.234c-.125,0-.249-.008-.37-.022l.782-6.294c1.565,.204,2.731,1.535,2.731,3.144,0,1.749-1.41,3.172-3.143,3.172Z"/>
  <path d="M20.397,21.115H1.5c-.276,0-.5,.224-.5,.5s.224,.5,.5,.5H20.397c.276,0,.5-.224,.5-.5s-.224-.5-.5-.5Z"/>
</svg>
