<?xml version="1.0" encoding="UTF-8"?>
<svg xmlns="http://www.w3.org/2000/svg" id="Layer_1" data-name="Layer 1" viewBox="0 0 24 24">
  <path d="M10.924,3.34c.276,0,.5-.224,.5-.5V1.5c0-.276-.224-.5-.5-.5s-.5,.224-.5,.5v1.34c0,.276,.224,.5,.5,.5Z"/>
  <path d="M15.599,3.675c.276,0,.5-.224,.5-.5V1.835c0-.276-.224-.5-.5-.5s-.5,.224-.5,.5v1.34c0,.276,.224,.5,.5,.5Z"/>
  <path d="M6.249,3.675c.276,0,.5-.224,.5-.5V1.835c0-.276-.224-.5-.5-.5s-.5,.224-.5,.5v1.34c0,.276,.224,.5,.5,.5Z"/>
  <path d="M18.825,11.626c-.019,0-.039,0-.058,0,.137-1.752,.175-3.135,.184-3.53,.004-.184-.093-.354-.252-.445-.138-.079-3.438-1.935-8.328-1.935-5.058,0-8.205,1.862-8.337,1.941-.153,.092-.246,.26-.242,.439,.027,1.234,.346,12.103,3.038,13.736,1.41,.856,4.086,1.167,5.542,1.167s4.132-.311,5.542-1.167c.838-.508,1.446-1.912,1.886-3.64,.33,.104,.674,.158,1.025,.158,1.865,0,3.382-1.508,3.382-3.362s-1.517-3.363-3.382-3.363Zm-9.962-1.312l1.561,.959v2.812c-.182,.134-.639,.376-1.561,.376-.899,0-1.371-.249-1.561-.383v-2.805l1.561-.959Zm6.532,10.665c-1.161,.704-3.636,1.021-5.023,1.021s-3.863-.317-5.023-1.021c-1.638-.995-2.421-8.124-2.548-12.6,.669-.344,2.655-1.246,5.563-1.556v2.625l-1.822,1.12c-.148,.091-.238,.252-.238,.426v3.304c0,.11,.036,.216,.103,.303,.067,.088,.708,.861,2.458,.861,1.815,0,2.411-.791,2.473-.881,.057-.083,.088-.182,.088-.283v-3.304c0-.174-.09-.335-.238-.426l-1.822-1.12v-2.705c.326-.017,.662-.027,1.008-.027,3.858,0,6.722,1.25,7.572,1.669-.127,4.476-.911,11.599-2.548,12.593Zm3.43-3.627c-.275,0-.544-.046-.8-.136,.31-1.484,.517-3.113,.655-4.584,.048-.003,.096-.004,.145-.004,1.313,0,2.382,1.06,2.382,2.363s-1.069,2.362-2.382,2.362Z"/>
</svg>
