<svg id="Layer_1" viewBox="0 0 24 24" xmlns="http://www.w3.org/2000/svg" data-name="Layer 1"><path d="m8.5 6c1.706 0 2.5-.794 2.5-2.5s-.794-2.5-2.5-2.5-2.5.794-2.5 2.5.794 2.5 2.5 2.5zm0-4c1.149 0 1.5.351 1.5 1.5s-.351 1.5-1.5 1.5-1.5-.351-1.5-1.5.351-1.5 1.5-1.5zm-3 9c1.706 0 2.5-.794 2.5-2.5s-.794-2.5-2.5-2.5-2.5.794-2.5 2.5.794 2.5 2.5 2.5zm0-4c1.149 0 1.5.351 1.5 1.5s-.351 1.5-1.5 1.5-1.5-.351-1.5-1.5.351-1.5 1.5-1.5zm3.5 1.5c0 1.706.794 2.5 2.5 2.5s2.5-.794 2.5-2.5-.794-2.5-2.5-2.5-2.5.794-2.5 2.5zm2.5-1.5c1.149 0 1.5.351 1.5 1.5s-.351 1.5-1.5 1.5-1.5-.351-1.5-1.5.351-1.5 1.5-1.5zm11.464 5.168c-.115-.685-.49-1.283-1.056-1.685-1.167-.832-2.794-.557-3.626.609-1.367 1.919-2.723 3.54-4.258 4.732.039-1.135-.682-2.139-1.832-2.479-.087-.015-2.158-.346-4.692-.346-3.093 0-5.491.564-5.591.589-.182.043-.324.185-.369.365-.022.088-.54 2.184-.54 4.321 0 2.154.527 3.787.55 3.855.056.171.2.299.377.334.109.021 2.71.535 5.873.535 5.563 0 10.515-2.991 14.718-8.892.403-.566.562-1.255.446-1.94zm-1.261 1.36c-4.005 5.621-8.683 8.472-13.903 8.472-2.458 0-4.615-.33-5.38-.462-.142-.531-.419-1.767-.419-3.263 0-1.557.302-3.135.441-3.778.729-.147 2.705-.497 5.059-.497 2.45 0 4.499.306 4.468.317.623.188 1.058.774 1.058 1.426 0 .567-.386.955-.713 1.183-1.149.594-2.413.966-3.852 1.075-.275.021-.481.262-.46.537s.257.484.537.461c4.714-.298 7.995-3.652 10.559-7.326.486-.712 1.538-.888 2.231-.375.712.483.888 1.541.375 2.23z"/></svg>