<svg id="Layer_1" viewBox="0 0 24 24" xmlns="http://www.w3.org/2000/svg" data-name="Layer 1"><path d="m9.642 12.477c-.013-.275-.232-.502-.523-.476-.276.013-.489.246-.476.522.039.824.091 1.653.144 2.432-.732-.645-1.802-.956-3.287-.956-3.154 0-4.5 1.346-4.5 4.5s1.346 4.5 4.5 4.5 4.5-1.346 4.5-4.5c0-.543-.065-1.465-.147-2.632-.073-1.03-.156-2.218-.211-3.392zm-4.142 9.523c-2.584 0-3.5-.916-3.5-3.5s.916-3.5 3.5-3.5 3.5.916 3.5 3.5-.916 3.5-3.5 3.5zm15.665-1.542c1.618-.861 1.835-2.637 1.835-3.958 0-11.778-.945-14.008-1.053-14.224-.048-.097-.127-.175-.224-.224-.086-.043-2.141-1.053-5.224-1.053-5.181 0-7.303 2.578-7.391 2.688-.052.064-.086.142-.101.223-.167.914-.334 2.655-.433 3.958l-6.72-6.722c-.195-.195-.512-.195-.707 0s-.195.512 0 .707l20.999 21.001c.195.195.512.195.707 0s.195-.512 0-.707l-1.689-1.689zm-11.197-16.23c.405-.42 2.387-2.228 6.532-2.228 2.346 0 4.07.644 4.604.87.114.363.375 1.434.587 4.003-.954-.351-2.757-.873-5.121-.873-3.341 0-5.648 1.5-7.039 2.823.07-1.155.247-3.447.438-4.595zm4.574 9.607-4.305-4.305c1.258-1.19 3.333-2.53 6.332-2.53 2.657 0 4.589.719 5.203.979.088 1.355.161 3.043.199 5.138-.729-.761-1.862-1.117-3.471-1.117-1.321 0-3.097.218-3.958 1.835zm5.878 5.878-5.132-5.132c.425-1.103 1.391-1.581 3.212-1.581 2.584 0 3.5.916 3.5 3.5 0 1.821-.478 2.786-1.58 3.213zm-2.931.754c-.057.271-.331.443-.594.383-1.682-.363-2.609-1.438-2.835-3.289-.034-.274.162-.523.436-.557.281-.038.523.161.557.436.175 1.433.789 2.16 2.054 2.434.27.058.441.324.383.594z"/></svg>