<svg id="Layer_1" viewBox="0 0 24 24" xmlns="http://www.w3.org/2000/svg" data-name="Layer 1"><path d="m16.75 17c0 .414-.336.75-.75.75s-.75-.336-.75-.75.336-.75.75-.75.75.336.75.75zm6.25-1.5c0 5.257-2.243 7.5-7.5 7.5-9.824 0-14.5-1.489-14.5-9.95 0-3.11 2.24-5.475 3.639-6.65-2.507-.37-3.622-1.868-3.639-4.828-.045-.298.193-.574.495-.572 2.682 0 3.927.963 4.505 1.851.577-.888 1.82-1.851 4.5-1.851.276 0 .5.224.5.5 0 3.325-1.368 4.824-4.499 4.971 0 1.543.01 2.758.305 4.162 2.484-1.816 5.2-2.633 8.694-2.633.592 0 1.14.033 1.657.091.461-.809 2.594-4.455 4.983-6.937.153-.158.391-.197.587-.099.196.1.304.316.266.532-.487 2.77-2.107 6.423-2.616 7.528 1.801 1.147 2.624 3.215 2.624 6.385zm-4.784-7.24c.459.1.883.23 1.272.391.391-.855 1.381-3.099 2.034-5.263-1.495 1.876-2.766 3.954-3.306 4.872zm-11.716-3.948v1.164c2.394-.115 3.375-1.067 3.488-3.463-3.446.188-3.488 2.277-3.488 2.299zm-1 1.164v-1.164c-.002-.085-.086-2.112-3.488-2.299.113 2.396 1.094 3.348 3.488 3.463zm16.5 10.024c0-4.738-1.762-6.5-6.5-6.5-4.54 0-7.026 1.543-8.686 2.888-.131.106-.308.14-.469.087-.161-.052-.285-.183-.328-.346-.453-1.687-.507-3.014-.514-4.639-1.227.993-3.504 3.217-3.504 6.059 0 7.026 2.902 8.95 13.5 8.95 4.738 0 6.5-1.762 6.5-6.5z"/></svg>