<?xml version="1.0" encoding="UTF-8"?>
<svg xmlns="http://www.w3.org/2000/svg" id="Layer_1" data-name="Layer 1" viewBox="0 0 24 24">
  <path d="M22.051,11.517c-.194-.213-.425-.386-.678-.513,.363-2.508,.263-5.091-.291-7.486-.257-1.106-1.171-1.943-2.275-2.084-4.517-.575-9.097-.575-13.613,0-1.104,.141-2.018,.978-2.275,2.084-.554,2.392-.654,4.977-.29,7.486-.254,.127-.485,.3-.679,.513-.481,.531-.68,1.237-.544,1.936,.092,.474,.204,.949,.335,1.409,.256,.895,1.05,1.561,1.975,1.659,2.583,.273,5.184,.417,7.785,.433v2.095c-.705,.182-1.261,.738-1.442,1.444H2.992c-.276,0-.5,.224-.5,.5s.224,.5,.5,.5h7.066c.222,.866,1.009,1.508,1.942,1.508s1.72-.642,1.942-1.508h7.066c.276,0,.5-.224,.5-.5s-.224-.5-.5-.5h-7.066c-.181-.706-.737-1.263-1.442-1.444v-2.095c2.601-.016,5.202-.161,7.786-.433,.925-.098,1.719-.764,1.975-1.659,.131-.459,.243-.935,.335-1.409,.135-.699-.063-1.404-.544-1.936ZM3.893,3.743c.162-.7,.735-1.229,1.426-1.317,4.433-.566,8.928-.565,13.361,0,.691,.088,1.264,.618,1.426,1.317,.518,2.24,.618,4.656,.291,7.007-.103-.005-.207-.003-.311,.006-1.853,.173-3.729,.288-5.576,.34-.173,.005-.347,.127-.434,.276-.434,.749-1.21,1.196-2.077,1.196s-1.643-.447-2.091-1.221c-.086-.151-.246-.247-.42-.252-1.847-.053-3.723-.167-5.576-.34-.104-.009-.208-.01-.311-.006-.327-2.353-.227-4.77,.291-7.007ZM13.005,20.992c0,.556-.451,1.008-1.005,1.008s-1.005-.452-1.005-1.008,.451-1.007,1.005-1.007,1.005,.452,1.005,1.007Zm8.608-7.73c-.087,.446-.192,.893-.315,1.324-.145,.507-.594,.884-1.118,.94-5.43,.572-10.934,.572-16.361,0-.524-.056-.974-.433-1.118-.939-.124-.432-.229-.879-.315-1.325-.075-.386,.036-.778,.304-1.073,.258-.285,.617-.442,1-.442,.043,0,.087,.002,.131,.006,1.784,.166,3.59,.279,5.372,.336,.633,.932,1.666,1.481,2.808,1.481s2.173-.548,2.808-1.481c1.782-.057,3.587-.17,5.372-.336,.433-.04,.843,.119,1.13,.436,.268,.295,.378,.687,.304,1.073Z"/>
</svg>
