<svg id="Layer_1" viewBox="0 0 24 24" xmlns="http://www.w3.org/2000/svg" data-name="Layer 1"><path d="m22.471 3.494c-.018-.144-.097-.273-.218-.354-.069-.047-1.738-1.141-5.003-1.141-2.619 0-4.537 1.03-5.25 1.48-.713-.45-2.631-1.48-5.25-1.48-3.265 0-4.934 1.094-5.003 1.141-.121.081-.2.209-.218.354-.006.043-.529 4.309-.529 7.45 0 2.216.183 4.681.335 6.358.122 1.347 1.087 2.459 2.4 2.768l8.15 1.916c.075.018.154.018.229 0l8.15-1.916c1.313-.309 2.278-1.421 2.4-2.768.152-1.678.335-4.143.335-6.359 0-3.141-.523-7.407-.529-7.45zm-20.14 13.718c-.151-1.657-.331-4.09-.331-6.268 0-2.647.382-6.128.492-7.079.488-.253 1.917-.866 4.258-.866 2.428 0 4.196.997 4.75 1.352v16.517l-7.536-1.772c-.894-.21-1.55-.968-1.633-1.885zm19.338.001c-.083.917-.739 1.674-1.633 1.884l-7.536 1.772v-16.517c.554-.355 2.322-1.352 4.75-1.352 2.341 0 3.77.613 4.258.866.11.95.492 4.432.492 7.079 0 2.178-.18 4.611-.331 6.269zm-1.682-7.762c.062.269-.104.538-.373.601l-4 .936c-.263.063-.539-.102-.602-.373-.062-.269.104-.538.373-.601l4-.936c.28-.061.538.105.602.373zm0 6c.062.269-.104.538-.373.601l-4 .936c-.263.063-.539-.102-.602-.373-.062-.269.104-.538.373-.601l4-.936c.28-.061.538.105.602.373zm0-3c.062.269-.104.538-.373.601l-4 .936c-.263.063-.539-.102-.602-.373-.062-.269.104-.538.373-.601l4-.936c.28-.062.538.105.602.373zm-15.974-6c.063-.268.325-.436.602-.373l4 .936c.269.063.436.332.373.601-.063.271-.339.436-.602.373l-4-.936c-.269-.063-.436-.332-.373-.601zm4.974 4.163c-.063.271-.339.436-.602.373l-4-.936c-.269-.063-.436-.332-.373-.601.063-.268.325-.434.602-.373l4 .936c.269.063.436.332.373.601zm0 6c-.063.271-.339.436-.602.373l-4-.936c-.269-.063-.436-.332-.373-.601.063-.268.325-.434.602-.373l4 .936c.269.063.436.332.373.601zm0-3c-.063.271-.339.436-.602.373l-4-.936c-.269-.063-.436-.332-.373-.601.063-.268.325-.436.602-.373l4 .936c.269.063.436.332.373.601zm11-7.163c.062.269-.104.538-.373.601l-4 .936c-.263.063-.539-.102-.602-.373-.062-.269.104-.538.373-.601l4-.936c.28-.062.538.105.602.373z"/></svg>