<svg id="Layer_1" viewBox="0 0 24 24" xmlns="http://www.w3.org/2000/svg" data-name="Layer 1"><path d="m22.854 22.146-4.974-4.974c1.387-1.595 2.12-3.834 2.12-6.672 0-6.126-3.374-9.5-9.5-9.5s-9.5 3.374-9.5 9.5 3.374 9.5 9.5 9.5c2.839 0 5.078-.733 6.673-2.12l4.974 4.974c.195.195.512.195.707 0s.195-.512 0-.707zm-20.854-11.646c0-5.561 2.939-8.5 8.5-8.5s8.5 2.939 8.5 8.5-2.939 8.5-8.5 8.5-8.5-2.939-8.5-8.5zm11.854-2.646-2.646 2.646 2.646 2.646c.195.195.195.512 0 .707s-.512.195-.707 0l-2.646-2.646-2.646 2.646c-.195.195-.512.195-.707 0s-.195-.512 0-.707l2.646-2.646-2.646-2.646c-.195-.195-.195-.512 0-.707s.512-.195.707 0l2.646 2.646 2.646-2.646c.195-.195.512-.195.707 0s.195.512 0 .707z"/></svg>