<svg id="Layer_1" viewBox="0 0 24 24" xmlns="http://www.w3.org/2000/svg" data-name="Layer 1"><path d="m21.938 2.443c-.042-.191-.19-.34-.381-.381-.048-.011-4.891-1.062-9.557-1.062s-9.509 1.051-9.557 1.062c-.191.042-.34.19-.381.381-.011.048-1.062 4.891-1.062 9.557s1.051 9.509 1.062 9.557c.042.191.19.34.381.381.048.011 4.891 1.062 9.557 1.062 1.117 0 3.247-.072 4.207-.265.092-.019.178-.063.246-.128l6.039-5.745c.08-.076.132-.176.149-.285.241-1.543.359-3.041.359-4.577 0-4.667-1.051-9.509-1.062-9.557zm-18.965 18.584c-.228-1.136-.973-5.148-.973-9.027s.745-7.891.973-9.027c1.136-.228 5.148-.973 9.027-.973s7.891.745 9.027.973c.228 1.136.973 5.148.973 9.027 0 1.209-.093 2.397-.247 3.601-3.02-.308-5.928.19-6.055.213-.2.035-.358.187-.402.385-.018.082-.418 1.995-.25 5.679-.96.084-2.22.123-3.047.123-3.879 0-7.891-.745-9.027-.973zm13.062.597c-.103-2.565.08-4.217.181-4.878.811-.115 2.937-.357 5.132-.176z"/></svg>