<svg id="Layer_1" viewBox="0 0 24 24" xmlns="http://www.w3.org/2000/svg" data-name="Layer 1"><path d="m21.195 2.2c-.036-.202-.192-.362-.394-.402-.162-.033-4.019-.797-7.802-.797s-7.639.765-7.801.797c-.202.041-.358.2-.394.402-.003.014-.086.492-.199 1.3h-1.356c-.276 0-.5.224-.5.5s.224.5.5.5h1.226c-.102.833-.209 1.855-.297 3h-1.429c-.276 0-.5.224-.5.5s.224.5.5.5h1.361c-.058.946-.097 1.956-.107 3h-1.505c-.276 0-.5.224-.5.5s.224.5.5.5h1.505c.01 1.044.049 2.054.107 3h-1.361c-.276 0-.5.224-.5.5s.224.5.5.5h1.429c.087 1.145.195 2.167.297 3h-1.226c-.276 0-.5.224-.5.5s.224.5.5.5h1.356c.112.809.196 1.286.199 1.3.036.202.192.362.394.402.162.033 4.017.797 7.801.797s7.592-.765 7.752-.798c.199-.04.354-.197.392-.396.009-.045.856-4.569.856-9.806s-.797-9.755-.805-9.8zm-16.195 9.8c0-4.325.553-8.152.733-9.286.562-.102 1.784-.305 3.267-.469v19.51c-1.483-.164-2.705-.368-3.267-.469-.18-1.133-.733-4.961-.733-9.286zm15.22 9.286c-1.012.186-4.169.714-7.22.714-1.015 0-2.039-.061-3-.146v-19.708c.961-.085 1.985-.146 3-.146 3.051 0 6.242.529 7.267.714.181 1.133.733 4.961.733 9.286s-.59 8.16-.78 9.286z"/></svg>