<svg id="Layer_1" viewBox="0 0 24 24" xmlns="http://www.w3.org/2000/svg" data-name="Layer 1"><path d="m8.5 14c1.084 0 2.302-.092 3.594-.25.219.834.843 1.25 1.906 1.25 1.346 0 2-.654 2-2 0-1.056-.409-1.68-1.233-1.902.145-1.111.233-2.161.233-3.098s-.087-1.986-.233-3.098c.823-.223 1.233-.846 1.233-1.902 0-1.346-.654-2-2-2-1.064 0-1.689.416-1.907 1.252-1.292-.158-2.509-.252-3.593-.252s-2.301.093-3.593.252c-.218-.836-.843-1.252-1.907-1.252-1.346 0-2 .654-2 2 0 1.056.409 1.68 1.233 1.902-.145 1.111-.233 2.161-.233 3.098s.087 1.986.233 3.098c-.823.223-1.233.847-1.233 1.902 0 1.346.654 2 2 2 1.063 0 1.688-.415 1.906-1.25 1.292.157 2.509.25 3.594.25zm6.5-1c0 .794-.206 1-1 1s-1-.206-1-1 .206-1 1-1 1 .206 1 1zm-1-11c.794 0 1 .206 1 1s-.206 1-1 1-1-.206-1-1 .206-1 1-1zm-1.984 1.249c.075 1.096.652 1.667 1.755 1.736.144 1.086.229 2.108.229 3.015s-.085 1.929-.229 3.015c-1.103.069-1.68.641-1.755 1.739-1.269.156-2.459.247-3.516.247s-2.247-.091-3.516-.247c-.075-1.098-.652-1.669-1.755-1.739-.144-1.086-.229-2.108-.229-3.015s.085-1.929.229-3.015c1.102-.069 1.68-.64 1.755-1.736 1.27-.157 2.46-.249 3.516-.249s2.247.091 3.516.249zm-10.016-.249c0-.794.206-1 1-1s1 .206 1 1-.206 1-1 1-1-.206-1-1zm1 11c-.794 0-1-.206-1-1s.206-1 1-1 1 .206 1 1-.206 1-1 1zm18.767 5.098c.145-1.111.233-2.161.233-3.098s-.087-1.986-.233-3.098c.823-.223 1.233-.846 1.233-1.902 0-1.346-.654-2-2-2-1.06 0-1.685.413-1.905 1.244-.487-.06-1.003-.117-1.557-.16-.289-.028-.516.185-.537.46s.185.516.46.537c.554.043 1.07.1 1.554.161.073 1.101.651 1.674 1.755 1.743.144 1.086.229 2.108.229 3.015s-.085 1.929-.229 3.015c-1.103.069-1.68.641-1.755 1.739-1.269.156-2.459.247-3.516.247s-2.247-.091-3.516-.247c-.075-1.101-.655-1.672-1.764-1.739-.119-.895-.199-1.751-.22-2.528-.008-.277-.237-.48-.514-.486-.276.008-.494.238-.486.514.022.798.104 1.673.224 2.586-.818.225-1.224.848-1.224 1.9 0 1.346.654 2 2 2 1.063 0 1.688-.415 1.906-1.25 1.292.157 2.509.25 3.594.25s2.302-.092 3.594-.25c.219.834.843 1.25 1.906 1.25 1.346 0 2-.654 2-2 0-1.056-.409-1.68-1.233-1.902zm-11.767 2.902c-.794 0-1-.206-1-1s.206-1 1-1 1 .206 1 1-.206 1-1 1zm10-11c0-.794.206-1 1-1s1 .206 1 1-.206 1-1 1-1-.206-1-1zm1 11c-.794 0-1-.206-1-1s.206-1 1-1 1 .206 1 1-.206 1-1 1z"/></svg>