<svg id="Layer_1" viewBox="0 0 24 24" xmlns="http://www.w3.org/2000/svg" data-name="Layer 1"><path d="m22.46 7.679c-.022-.088-.067-.168-.131-.232l-5.775-5.775c-.064-.064-.145-.109-.232-.132-.088-.021-2.185-.54-4.322-.54s-4.233.519-4.322.54c-.087.022-.168.067-.232.132l-5.775 5.774c-.064.064-.109.145-.131.232-.022.088-.54 2.185-.54 4.321s.518 4.233.54 4.321.067.168.131.232l5.775 5.774c.064.064.145.109.232.132.088.021 2.185.54 4.322.54s4.233-.519 4.322-.54c.087-.022.168-.067.232-.132l5.775-5.774c.064-.064.109-.145.131-.232.022-.088.54-2.185.54-4.321s-.518-4.233-.54-4.321zm-.939 8.269-5.574 5.573c-.484.111-2.226.479-3.947.479s-3.462-.369-3.947-.479l-5.574-5.574c-.111-.485-.479-2.23-.479-3.947s.368-3.462.479-3.947l5.574-5.574c.484-.111 2.226-.479 3.947-.479s3.462.369 3.947.479l5.574 5.573c.111.485.479 2.23.479 3.947s-.368 3.462-.479 3.947zm-5.667-7.094-3.146 3.146 3.146 3.146c.195.195.195.512 0 .707s-.512.195-.707 0l-3.146-3.146-3.146 3.146c-.195.195-.512.195-.707 0s-.195-.512 0-.707l3.146-3.146-3.146-3.146c-.195-.195-.195-.512 0-.707s.512-.195.707 0l3.146 3.146 3.146-3.146c.195-.195.512-.195.707 0s.195.512 0 .707z"/></svg>