<?xml version="1.0" encoding="UTF-8"?>
<svg xmlns="http://www.w3.org/2000/svg" id="Layer_1" data-name="Layer 1" viewBox="0 0 24 24">
  <path d="M22.819,19.732c-.21-.175-.525-.148-.704,.064-.918,1.104-2.513,1.104-3.431,0-.096-.114-.236-.18-.385-.18s-.29,.066-.385,.181c-.916,1.104-2.513,1.103-3.431,0-.096-.114-.236-.18-.385-.18s-.29,.066-.385,.181c-.916,1.104-2.514,1.104-3.43,0-.095-.114-.236-.181-.385-.181s-.289,.066-.385,.18c-.918,1.104-2.515,1.104-3.431,0-.095-.114-.236-.181-.385-.181s-.289,.066-.385,.18c-.918,1.104-2.513,1.104-3.431,0-.179-.212-.493-.24-.704-.064-.213,.176-.241,.492-.065,.704,.653,.784,1.535,1.216,2.484,1.216,.774,0,1.505-.288,2.102-.819,1.201,1.06,3.016,1.053,4.199,0,1.191,1.062,3.008,1.062,4.199,0,1.184,1.052,2.998,1.059,4.199,0,.597,.531,1.327,.819,2.102,.819,.949,0,1.831-.432,2.484-1.216,.176-.212,.147-.528-.065-.704Z"/>
  <path d="M3.6,16.389c.949,0,1.832-.432,2.485-1.216,.176-.212,.147-.527-.064-.704-.212-.175-.527-.148-.704,.064-.919,1.103-2.513,1.104-3.432,0-.179-.212-.492-.24-.705-.064-.212,.177-.24,.492-.064,.704,.653,.784,1.535,1.216,2.484,1.216Z"/>
  <path d="M20.4,16.389c.949,0,1.831-.432,2.484-1.216,.176-.212,.147-.527-.064-.704-.212-.175-.526-.148-.705,.064-.919,1.104-2.513,1.103-3.432,0-.177-.212-.491-.24-.704-.064-.212,.177-.24,.492-.064,.704,.653,.784,1.536,1.216,2.485,1.216Z"/>
  <path d="M12,16.693c1.625,0,2.946-1.325,2.946-2.953,0-1.561-1.215-2.843-2.748-2.945-.123-.665-.246-1.556-.287-2.583h2.536c.276,0,.5-.224,.5-.5s-.224-.5-.5-.5h-2.547c.014-.82,.086-1.57,.174-2.204h2.373c.276,0,.5-.224,.5-.5s-.224-.5-.5-.5h-2.206c.124-.632,.235-1.009,.238-1.017,.079-.265-.07-.543-.335-.623-.268-.08-.543,.071-.622,.334-.025,.084-.625,2.106-.625,4.803,0,1.356,.151,2.539,.304,3.393-1.237,.35-2.147,1.491-2.147,2.841,0,1.628,1.321,2.953,2.946,2.953Zm0-4.906c1.073,0,1.946,.876,1.946,1.953s-.873,1.953-1.946,1.953-1.946-.876-1.946-1.953,.873-1.953,1.946-1.953Z"/>
</svg>
