<svg id="Layer_1" viewBox="0 0 24 24" xmlns="http://www.w3.org/2000/svg" data-name="Layer 1"><path d="m21.983 22.628c-.07.267-.345.428-.611.355-.025-.007-2.518-.654-6.91-.984-.261-.021-.462-.237-.462-.499v-2.145c0-.252.188-.465.438-.496 4.661-.578 6.562-3 6.562-8.359 0-6.117-2.523-8.5-9-8.5s-9 2.383-9 8.5c0 5.359 1.901 7.781 6.562 8.359.25.031.438.244.438.496v2.145c0 .26-.199.477-.458.498-3.917.332-6.905.983-6.935.99-.263.06-.538-.109-.596-.381-.06-.27.111-.536.381-.596.029-.007 2.847-.622 6.607-.97v-1.251c-4.836-.747-7-3.63-7-9.291.001-6.747 2.898-9.499 10.001-9.499s10 2.752 10 9.5c0 5.661-2.164 8.544-7 9.291v1.247c4.203.347 6.527.952 6.628.979.267.07.426.344.355.611z"/></svg>