<svg id="Layer_1" viewBox="0 0 24 24" xmlns="http://www.w3.org/2000/svg" data-name="Layer 1"><path d="m1 12.5v-.5c0-7.813 3.187-11 11-11 5.085 0 8.331 1.406 9.937 4.252.099-1.227.07-2.461-.104-3.681-.039-.273.151-.527.424-.566.273-.042.527.151.566.424.235 1.649.235 3.321 0 4.97-.032.22-.205.393-.424.424-.825.118-1.655.176-2.485.176s-1.66-.059-2.485-.176c-.273-.039-.463-.292-.424-.566.039-.273.294-.462.566-.424 1.197.172 2.405.202 3.609.11-1.384-2.676-4.305-3.944-9.179-3.944-7.197.001-10.001 2.805-10.001 10.001v.5c0 .276-.224.5-.5.5s-.5-.224-.5-.5zm21.5-1.5c-.276 0-.5.224-.5.5v.5c0 7.196-2.804 10-10 10-4.875 0-7.795-1.268-9.18-3.944 1.203-.092 2.412-.061 3.609.111.274.035.527-.15.566-.424s-.151-.527-.424-.566c-1.649-.236-3.322-.236-4.97 0-.22.031-.393.204-.424.425-.235 1.647-.235 3.32 0 4.969.038.276.298.464.566.425.273-.039.463-.292.424-.565-.174-1.221-.203-2.455-.104-3.681 1.606 2.846 4.853 4.252 9.937 4.252 7.813 0 11-3.186 11-11v-.5c0-.276-.224-.5-.5-.5zm-5.867-.019-.656.392c.015.198.023.407.023.627s-.008.429-.023.627l.656.392c.854.511 1.029 1.202.519 2.057-.51.854-1.203 1.028-2.057.52l-.426-.255c-.325.226-.712.391-1.168.498v.661c0 .995-.505 1.5-1.5 1.5s-1.5-.505-1.5-1.5v-.661c-.457-.107-.843-.272-1.168-.498l-.426.255c-.853.51-1.547.336-2.057-.52-.51-.854-.336-1.546.519-2.057l.656-.392c-.015-.198-.023-.407-.023-.627s.008-.429.023-.627l-.656-.392c-.854-.51-1.029-1.202-.519-2.057.511-.854 1.203-1.029 2.057-.519l.426.254c.325-.226.712-.392 1.168-.499v-.661c0-.995.505-1.5 1.5-1.5s1.5.505 1.5 1.5v.661c.457.107.844.273 1.168.499l.426-.254c.856-.51 1.546-.335 2.057.519.511.855.336 1.547-.519 2.057zm-.34-1.544c-.225-.378-.309-.398-.686-.173l-.724.432c-.191.114-.434.089-.597-.063-.311-.29-.755-.474-1.359-.563-.245-.036-.427-.247-.427-.495v-1.074c0-.439-.061-.5-.5-.5s-.5.061-.5.5v1.074c0 .248-.182.458-.427.495-.604.089-1.048.273-1.359.563-.162.152-.406.178-.597.063l-.724-.432c-.377-.225-.461-.205-.686.173-.225.377-.204.461.173.686l.929.555c.17.102.264.294.24.491-.032.255-.049.531-.049.832s.017.576.049.832c.024.197-.069.39-.24.492l-.929.555c-.377.225-.398.308-.173.686.227.378.31.398.686.173l.724-.433c.19-.113.434-.088.597.063.311.29.755.475 1.359.564.245.036.427.246.427.494v1.074c0 .439.061.5.5.5s.5-.061.5-.5v-1.074c0-.248.182-.458.427-.494.604-.09 1.048-.274 1.359-.564.164-.15.406-.175.597-.063l.724.433c.375.226.459.205.686-.173.225-.378.204-.461-.173-.686l-.929-.555c-.17-.102-.264-.295-.24-.492.032-.255.049-.531.049-.832s-.017-.576-.049-.832c-.024-.197.069-.39.24-.491l.929-.555c.377-.225.398-.309.173-.686zm-2.293 2.563c0 1.346-.654 2-2 2s-2-.654-2-2 .654-2 2-2 2 .654 2 2zm-1 0c0-.794-.206-1-1-1s-1 .206-1 1 .206 1 1 1 1-.206 1-1z"/></svg>