<svg id="Layer_1" viewBox="0 0 24 24" xmlns="http://www.w3.org/2000/svg" data-name="Layer 1"><path d="m6.905 14.479c.07.021 1.76.521 5.095.521s5.024-.5 5.095-.521c.165-.05.292-.181.338-.346.022-.085.567-2.089.567-4.133s-.545-4.048-.567-4.133c-.046-.165-.173-.296-.338-.346-.045-.014-.758-.222-2.133-.371.038-.365.042-.775.038-1.15 0-2.075-.925-3-3-3s-3 .925-3 2.995c-.004.395 0 .798.038 1.155-1.374.149-2.088.357-2.133.371-.164.05-.292.181-.337.346-.023.085-.568 2.089-.568 4.133s.544 4.048.568 4.133c.045.165.173.296.337.346zm3.095-10.479c0-1.514.486-2 2-2s2 .486 2 2.005c.003.268.007.71-.031 1.061-.579-.039-1.227-.066-1.969-.066s-1.39.027-1.969.066c-.038-.343-.034-.775-.031-1.066zm-2.538 2.412c.581-.132 2.103-.412 4.538-.412s3.957.28 4.538.412c.145.606.462 2.108.462 3.588s-.317 2.981-.462 3.588c-.581.132-2.104.412-4.538.412s-3.957-.28-4.538-.412c-.145-.606-.462-2.108-.462-3.588s.317-2.981.462-3.588zm4.038 4.588v-2c0-.276.224-.5.5-.5s.5.224.5.5v2c0 .276-.224.5-.5.5s-.5-.224-.5-.5zm3.354 6.854-2.146 2.146 2.146 2.146c.195.195.195.512 0 .707-.098.098-.226.146-.354.146s-.256-.049-.354-.146l-2.146-2.146-2.146 2.146c-.098.098-.226.146-.354.146s-.256-.049-.354-.146c-.195-.195-.195-.512 0-.707l2.146-2.146-2.146-2.146c-.195-.195-.195-.512 0-.707s.512-.195.707 0l2.146 2.146 2.146-2.146c.195-.195.512-.195.707 0s.195.512 0 .707zm8 4.293c.195.195.195.512 0 .707-.098.098-.226.146-.354.146s-.256-.049-.354-.146l-2.146-2.146-2.146 2.146c-.098.098-.226.146-.354.146s-.256-.049-.354-.146c-.195-.195-.195-.512 0-.707l2.146-2.146-2.146-2.146c-.195-.195-.195-.512 0-.707s.512-.195.707 0l2.146 2.146 2.146-2.146c.195-.195.512-.195.707 0s.195.512 0 .707l-2.146 2.146 2.146 2.146zm-16-4.293-2.146 2.146 2.146 2.146c.195.195.195.512 0 .707-.098.098-.226.146-.354.146s-.256-.049-.354-.146l-2.146-2.146-2.146 2.146c-.098.098-.226.146-.354.146s-.256-.049-.354-.146c-.195-.195-.195-.512 0-.707l2.146-2.146-2.146-2.146c-.195-.195-.195-.512 0-.707s.512-.195.707 0l2.146 2.146 2.146-2.146c.195-.195.512-.195.707 0s.195.512 0 .707z"/></svg>