<svg id="Layer_1" viewBox="0 0 24 24" xmlns="http://www.w3.org/2000/svg" data-name="Layer 1"><path d="m1.014 4.616c-.064-.269.102-.538.371-.602.174-.042 4.33-1.014 10.616-1.014s10.442.972 10.616 1.014c.269.064.434.333.37.602-.063.27-.34.435-.602.371-.042-.01-4.226-.986-10.385-.986s-10.343.976-10.384.985c-.265.066-.538-.102-.602-.371zm21.603 15.398c-.174-.042-4.33-1.014-10.616-1.014s-10.442.972-10.616 1.014c-.269.064-.435.333-.371.602s.337.436.602.371c.042-.01 4.225-.986 10.384-.986s10.343.977 10.385.986c.261.064.539-.101.602-.371.063-.269-.102-.538-.37-.602zm0-11c-.174-.042-4.33-1.014-10.616-1.014-.884 0-1.726.021-2.522.056-.276.012-.49.246-.478.521.012.276.25.503.521.478.782-.034 1.61-.055 2.478-.055 6.159 0 10.343.977 10.385.986.261.064.539-.101.602-.371.063-.269-.102-.538-.37-.602zm0 6c-.174-.042-4.33-1.014-10.616-1.014-.884 0-1.726.021-2.522.056-.276.012-.49.246-.478.521s.25.501.521.478c.782-.034 1.61-.055 2.478-.055 6.159 0 10.343.977 10.385.986.261.064.539-.101.602-.371.063-.269-.102-.538-.37-.602zm-21.536-2.742c-.107-.166-.107-.379 0-.545 1.252-1.928 2.766-3.448 4.627-4.647.273-.187.681-.026.755.296.022.085.538 2.127.538 4.623s-.516 4.539-.538 4.625c-.073.322-.481.483-.755.296-1.859-1.197-3.372-2.718-4.627-4.649zm1.02-.272c.997 1.471 2.163 2.679 3.544 3.669.149-.788.356-2.152.356-3.669s-.206-2.882-.355-3.668c-1.382.991-2.548 2.198-3.544 3.668z"/></svg>