<svg id="Layer_1" viewBox="0 0 24 24" xmlns="http://www.w3.org/2000/svg" data-name="Layer 1"><path d="m12 5.008c-5.532 0-8 2.773-8 8.992s2.468 9 8 9 8-2.776 8-9-2.468-8.992-8-8.992zm0 16.992c-3.636 0-7-.969-7-8s3.364-7.992 7-7.992 7 .968 7 7.992-3.364 8-7 8z"/><path d="m4.674 2.969c.026-.01 2.669-.969 7.326-.969s7.3.959 7.326.969c.057.021.115.031.173.031.203 0 .395-.125.47-.326.096-.259-.035-.546-.294-.643-.112-.042-2.819-1.032-7.675-1.032s-7.563.989-7.675 1.032c-.259.096-.39.384-.294.643.097.258.386.389.643.294z"/></svg>