<svg id="Layer_1" viewBox="0 0 24 24" xmlns="http://www.w3.org/2000/svg" data-name="Layer 1"><path d="m2.475 11c.275.015.511-.198.525-.474.181-3.577.853-6.813 1.07-7.786.878-.195 3.711-.74 7.931-.74.531 0 1.214.022 1.9.087-.176 3.567.223 5.239.24 5.31.046.182.19.322.373.365.109.025 2.193.498 4.675.498.511 0 1.041-.028 1.572-.076.101.739.201 1.615.242 2.344.015.266.235.472.499.472h.028c.276-.015.487-.251.471-.527-.068-1.233-.301-2.88-.432-3.628-.02-.113-.078-.216-.164-.291l-5.938-5.176c-.065-.057-.145-.096-.23-.113-1.087-.219-2.361-.265-3.237-.265-5.255 0-8.348.807-8.477.841-.177.047-.314.187-.357.365-.009.039-.944 3.906-1.166 8.269-.014.276.198.511.474.525zm18.137-3.81s0 .002 0 .003c-2.367.204-4.726-.179-5.56-.341-.099-.6-.278-2.121-.159-4.635.006.001.013.002.019.003l5.7 4.969z"/><path d="m21.55 16.002c-.272-.022-.52.173-.547.448-.195 1.938-.644 3.774-.816 4.429-.848.269-3.879 1.121-8.187 1.121s-7.182-.859-7.954-1.121c-.208-.621-.794-2.474-1.05-4.443-.036-.274-.284-.471-.56-.431-.274.035-.467.286-.431.56.327 2.52 1.143 4.78 1.178 4.875.049.134.152.241.285.294.13.052 3.248 1.267 8.533 1.267s8.632-1.21 8.772-1.262c.15-.055.265-.179.309-.332.027-.095.666-2.356.917-4.856.027-.274-.173-.52-.448-.547z"/><path d="m6 13.5c0-.276-.224-.5-.5-.5h-4c-.276 0-.5.224-.5.5s.224.5.5.5h4c.276 0 .5-.224.5-.5z"/><path d="m22.5 13h-4c-.276 0-.5.224-.5.5s.224.5.5.5h4c.276 0 .5-.224.5-.5s-.224-.5-.5-.5z"/><path d="m10 13c-.276 0-.5.224-.5.5s.224.5.5.5h4c.276 0 .5-.224.5-.5s-.224-.5-.5-.5z"/></svg>