<svg id="Layer_1" viewBox="0 0 24 24" xmlns="http://www.w3.org/2000/svg" data-name="Layer 1"><path d="m22.558 6.918c-.037-.223-.219-.393-.443-.415-.014-.002-.42-.042-1.091-.097-1.363-3.035-4.154-4.405-9.023-4.405-4.815 0-7.685 1.411-9.034 4.417-.589.05-.938.084-.951.086-.225.022-.406.192-.443.415-.021.124-.507 3.063-.507 5.082s.486 4.958.507 5.082c.037.223.219.393.443.415.013.002.364.036.955.086 1.348 3.005 4.218 4.417 9.031 4.417s7.677-1.408 9.027-4.406c.668-.056 1.073-.096 1.087-.097.225-.022.406-.192.443-.415.021-.124.507-3.063.507-5.082s-.486-4.958-.507-5.082zm-10.558-3.918c4.125 0 6.583 1.039 7.857 3.314-1.94-.143-4.873-.314-7.793-.314-2.987 0-5.989.18-7.925.324 1.272-2.282 3.726-3.324 7.861-3.324zm0 18c-4.134 0-6.589-1.042-7.862-3.324 1.936.145 4.939.324 7.926.324 2.919 0 5.851-.171 7.791-.314-1.274 2.275-3.727 3.314-7.855 3.314zm.064-4c-4.128 0-8.304-.348-9.566-.462-.131-.863-.434-3.016-.434-4.538s.303-3.675.434-4.538c1.263-.114 5.438-.462 9.566-.462s8.304.348 9.566.462c.131.863.434 3.016.434 4.538s-.303 3.675-.434 4.538c-1.263.114-5.438.462-9.566.462zm-1.986-7.771c-.059.091-1.422 2.27-1.577 5.241-.015.276.197.512.473.525.271.041.511-.197.525-.473.01-.182.041-.347.06-.522h1.882c.019.175.05.34.06.522.014.267.234.474.499.474.285 0 .515-.24.499-.526-.155-2.972-1.519-5.15-1.577-5.241-.184-.289-.66-.289-.844 0zm-.368 3.771c.211-1.005.528-1.858.791-2.427.262.568.579 1.42.789 2.427zm7.915-4c-.571 0-1.061.096-1.081.1-.206.04-.365.206-.397.414-.006.038-.146.966-.146 2.486s.141 2.437.146 2.475c.032.203.185.365.384.41.021.005.517.115 1.095.115 2.241 0 2.5-1.712 2.5-3s-.259-3-2.5-3zm0 5c-.196 0-.383-.017-.533-.035-.039-.384-.092-1.064-.092-1.965s.052-1.581.092-1.97c.15-.017.337-.03.533-.03.995 0 1.5.31 1.5 2s-.505 2-1.5 2zm-2.985-4.432c0 .01-.14.936-.14 2.432s.139 2.407.14 2.417c.042.272-.145.527-.418.57-.267.043-.53-.144-.57-.417-.006-.04-.151-.99-.151-2.57s.146-2.543.151-2.583c.042-.272.303-.457.569-.418.273.042.461.297.419.569zm-9.151-.568s-.676-.006-.774 0c-.245.015-.437.203-.464.438-.057.248-.251 1.208-.251 2.559 0 1.543.254 2.576.265 2.619.066.271.345.43.606.364.268-.067.431-.338.364-.606-.002-.007-.131-.537-.197-1.387.148.008.303.012.462.012 2.066 0 2.5-1.088 2.5-2s-.436-2-2.511-2zm.011 3c-.174 0-.341-.006-.5-.016 0-.881.093-1.583.161-1.986l.328.002c1.394 0 1.511.517 1.511 1s-.116 1-1.5 1z"/></svg>