<svg id="Layer_1" viewBox="0 0 24 24" xmlns="http://www.w3.org/2000/svg" data-name="Layer 1"><path d="m22.402 17.865c.052.085.513.888.597 2.611.013.276-.199.51-.475.524-.273.014-.511-.199-.524-.475-.049-1.005-.243-1.636-.361-1.936-1.065-.122-5.072-.551-9.14-.585v2.497c0 .276-.224.5-.5.5s-.5-.224-.5-.5v-2.497c-4.074.034-8.088.464-9.145.586-.124.301-.33.941-.355 1.924-.007.275-.196.494-.513.487-.276-.007-.494-.237-.487-.513.043-1.713.578-2.59.601-2.627.08-.128.213-.213.362-.232.05-.006 5.083-.628 10.037-.628s9.987.622 10.037.628c.151.019.286.106.365.236zm-7.04-3.608c-.015-.067-.362-1.666-.362-3.257s.347-3.19.362-3.257c.042-.19.19-.339.381-.381.067-.015 1.666-.362 3.257-.362s3.19.347 3.257.362c.19.042.339.19.381.381.015.067.362 1.666.362 3.257s-.347 3.19-.362 3.257c-.042.19-.19.339-.381.381-.067.015-1.666.362-3.257.362s-3.19-.347-3.257-.362c-.19-.042-.339-.19-.381-.381zm.638-3.257c0 1.079.178 2.193.276 2.724.531.098 1.645.276 2.724.276s2.193-.178 2.724-.276c.098-.531.276-1.645.276-2.724s-.178-2.193-.276-2.724c-.531-.098-1.645-.276-2.724-.276s-2.193.178-2.724.276c-.098.531-.276 1.645-.276 2.724zm-14.438 3.057c-.023-.104-.562-2.587-.562-5.057s.539-4.953.562-5.057c.042-.191.19-.34.381-.381.104-.023 2.587-.562 5.057-.562s4.953.539 5.057.562c.191.042.34.19.381.381.023.104.562 2.587.562 5.057s-.539 4.953-.562 5.057c-.042.191-.19.34-.381.381-.104.023-2.587.562-5.057.562s-4.953-.539-5.057-.562c-.191-.042-.34-.19-.381-.381zm.438-5.057c0 1.861.332 3.784.474 4.526.742.143 2.665.474 4.526.474s3.784-.332 4.526-.474c.143-.742.474-2.665.474-4.526s-.332-3.784-.474-4.526c-.742-.143-2.665-.474-4.526-.474s-3.784.332-4.526.474c-.143.742-.474 2.665-.474 4.526z"/></svg>