<svg id="Layer_1" viewBox="0 0 24 24" xmlns="http://www.w3.org/2000/svg" data-name="Layer 1"><path d="m22.999 13.476c.014.275-.198.51-.475.524-.008 0-.017 0-.024 0-.266 0-.486-.208-.499-.476-.05-1.005-.243-1.636-.362-1.936-1.064-.122-5.071-.551-9.139-.585v2.497c0 .276-.224.5-.5.5s-.5-.224-.5-.5v-2.497c-4.076.034-8.088.464-9.145.586-.125.301-.331.941-.355 1.924-.007.276-.238.494-.513.487-.276-.007-.494-.236-.487-.513.043-1.714.578-2.591.602-2.627.079-.128.212-.213.361-.231.051-.006 5.083-.628 10.037-.628s9.986.622 10.037.628c.151.019.285.106.364.236.053.085.513.888.598 2.611z"/></svg>