<svg id="Layer_1" viewBox="0 0 24 24" xmlns="http://www.w3.org/2000/svg" data-name="Layer 1"><path d="m23 19.5c0 .276-.224.5-.5.5h-19.918c.67.77 1.399 1.486 2.218 2.1.221.166.266.479.101.7-.167.223-.481.265-.7.1-1.177-.882-2.22-1.925-3.101-3.1-.133-.178-.133-.422 0-.6.881-1.175 1.924-2.218 3.101-3.1.22-.165.534-.123.7.1.165.221.12.534-.101.7-.819.614-1.548 1.331-2.218 2.1h19.918c.276 0 .5.224.5.5zm-20-13c0-3.785 2.409-5.481 7.812-5.5 7.668 0 9.737.55 9.821.574.267.074.422.35.348.616s-.346.422-.615.348c-.009-.003-.575-.146-2.137-.283.299 1.634.771 4.867.771 9.027 0 1.774-.085 3.546-.253 5.268-.026.276-.277.477-.547.449-.274-.027-.476-.271-.449-.546.165-1.689.249-3.429.249-5.17 0-4.34-.518-7.622-.804-9.106-1.022-.067-2.339-.125-4.011-.154.293 1.537.815 4.874.815 9.261 0 1.774-.085 3.546-.253 5.268-.026.276-.277.477-.547.449-.274-.027-.476-.271-.449-.546.146-1.493.217-3.028.234-4.567-.642.071-1.074.115-1.985.115-3.435 0-8-.57-8-5.5zm1 0c0 2.225.832 4.5 7 4.5.902 0 1.33-.048 1.994-.122-.033-4.304-.563-7.522-.831-8.872-.429-.004-.878-.006-1.348-.006-4.84.017-6.814 1.321-6.814 4.5z"/></svg>