<svg id="Layer_1" viewBox="0 0 24 24" xmlns="http://www.w3.org/2000/svg" data-name="Layer 1"><path d="m21.773 2.573c-.046-.165-.173-.294-.337-.343-.166-.05-4.129-1.229-9.437-1.229-5.352-.001-9.273 1.179-9.437 1.229-.163.05-.289.179-.335.342-.05.178-1.227 4.412-1.227 9.428s1.177 9.249 1.227 9.428c.046.164.173.294.337.343.166.051 4.129 1.229 9.437 1.229 5.353 0 9.274-1.18 9.438-1.229.163-.05.289-.179.335-.343.05-.178 1.227-4.412 1.227-9.428s-1.177-9.249-1.227-9.427zm-.892 18.316c-.964.26-4.458 1.111-8.881 1.111-4.389 0-7.91-.853-8.881-1.112-.256-1.011-1.119-4.727-1.119-8.888s.863-7.881 1.119-8.888c.964-.26 4.458-1.112 8.881-1.112 4.389 0 7.91.853 8.881 1.112.256 1.01 1.119 4.726 1.119 8.888s-.863 7.881-1.119 8.889z"/><path d="m10.605 5.501s-1.355-.004-1.867.078c-.219.035-.389.211-.417.432-.003.026-.322 2.635-.322 6.025 0 3.437.489 5.955.509 6.061.047.238.283.438.587.394.273-.04.447-.315.394-.587-.004-.021-.357-1.847-.462-4.448.498.043 1.003.054 1.576.054 2.316 0 5.395-.415 5.395-4.004 0-3.549-2.883-4.004-5.395-4.004zm0 7.008c-.59 0-1.102-.011-1.603-.06-.001-.136-.002-.273-.002-.413 0-2.568.186-4.675.271-5.513.334-.026 1.333-.022 1.333-.022 3.163 0 4.395.842 4.395 3.004s-1.232 3.004-4.395 3.004z"/></svg>