<svg id="Layer_1" viewBox="0 0 24 24" xmlns="http://www.w3.org/2000/svg" data-name="Layer 1"><path d="m14.146 8.613c1.265-1.265 1.854-2.339 1.854-3.38s-.589-2.115-1.854-3.38c-.195-.195-.195-.512 0-.707s.512-.195.707 0c1.465 1.464 2.146 2.763 2.146 4.087s-.682 2.623-2.146 4.087c-.195.195-.512.195-.707 0s-.195-.512 0-.707zm8.707 1.873c-1.973-1.973-3.734-1.973-5.707 0-.195.195-.195.512 0 .707s.512.195.707 0c1.584-1.584 2.709-1.584 4.293 0 .195.195.512.195.707 0s.195-.512 0-.707zm-4.915 6.441c.132.241.045.544-.195.678-4.705 2.612-10.447 4.527-16.168 5.39-.32.059-.627-.248-.569-.568.863-5.723 2.777-11.464 5.391-16.168.133-.24.437-.329.677-.196 4.659 2.551 8.315 6.207 10.865 10.865zm-1.121.044c-2.361-4.136-5.651-7.425-9.788-9.788-.367.681-.713 1.39-1.05 2.11 2.794 1.716 5.214 3.862 7.184 6.4.169.219.129.532-.089.702-.217.168-.531.13-.702-.089-1.87-2.41-4.167-4.451-6.812-6.092-1.592 3.625-2.792 7.645-3.46 11.684 5.204-.86 10.385-2.596 14.716-4.928zm-14.817-12.221c.414 0 .75-.336.75-.75s-.336-.75-.75-.75-.75.336-.75.75.336.75.75.75zm7-2c.414 0 .75-.336.75-.75s-.336-.75-.75-.75-.75.336-.75.75.336.75.75.75zm12 1c.414 0 .75-.336.75-.75s-.336-.75-.75-.75-.75.336-.75.75.336.75.75.75zm-4 17.5c-.414 0-.75.336-.75.75s.336.75.75.75.75-.336.75-.75-.336-.75-.75-.75zm5-5c-.414 0-.75.336-.75.75s.336.75.75.75.75-.336.75-.75-.336-.75-.75-.75z"/></svg>