<?xml version="1.0" encoding="UTF-8"?>
<svg xmlns="http://www.w3.org/2000/svg" id="Layer_1" data-name="Layer 1" viewBox="0 0 24 24">
  <path d="M20.685,9.024c-1.558,0-2.314,.841-2.314,2.571s.757,2.571,2.314,2.571,2.315-.841,2.315-2.571-.757-2.571-2.315-2.571Zm0,4.142c-.872,0-1.314-.243-1.314-1.571,0-1.453,.595-1.571,1.314-1.571s1.315,.118,1.315,1.571-.596,1.571-1.315,1.571Z"/>
  <path d="M3.315,9.024c-1.558,0-2.315,.841-2.315,2.571s.757,2.571,2.315,2.571,2.314-.841,2.314-2.571-.757-2.571-2.314-2.571Zm0,4.142c-.872,0-1.315-.243-1.315-1.571,0-1.453,.596-1.571,1.315-1.571s1.314,.118,1.314,1.571-.595,1.571-1.314,1.571Z"/>
  <path d="M15.402,3.863c-1.558,0-2.315,.841-2.315,2.57s.757,2.571,2.315,2.571,2.315-.841,2.315-2.571-.757-2.57-2.315-2.57Zm0,4.141c-.872,0-1.315-.243-1.315-1.571,0-1.452,.596-1.57,1.315-1.57s1.315,.118,1.315,1.57-.596,1.571-1.315,1.571Z"/>
  <path d="M8.598,9.004c1.558,0,2.315-.841,2.315-2.571s-.757-2.57-2.315-2.57-2.315,.841-2.315,2.57,.757,2.571,2.315,2.571Zm0-4.141c.719,0,1.315,.118,1.315,1.57s-.596,1.571-1.315,1.571c-.872,0-1.315-.243-1.315-1.571,0-1.452,.596-1.57,1.315-1.57Z"/>
  <path d="M12,10.691c-3.405,0-5.605,2.64-5.605,6.726,0,1.264,.292,2.07,.892,2.464,.884,.581,2.099,.055,3.17-.41,.579-.25,1.177-.51,1.543-.51s.964,.259,1.543,.51c.735,.318,1.536,.666,2.252,.666,.329,0,.64-.073,.918-.256,.6-.394,.892-1.2,.892-2.464,0-4.085-2.2-6.726-5.605-6.726Zm4.165,8.354c-.431,.285-1.425-.146-2.224-.491-.703-.305-1.368-.592-1.94-.592s-1.237,.288-1.94,.592c-.799,.345-1.793,.774-2.224,.491-.284-.187-.441-.765-.441-1.628,0-3.532,1.765-5.726,4.605-5.726s4.605,2.194,4.605,5.726c0,.863-.157,1.441-.441,1.628Z"/>
</svg>
