<svg id="Layer_1" viewBox="0 0 24 24" xmlns="http://www.w3.org/2000/svg" data-name="Layer 1"><path d="m21.057 20.967c-.818.245-3.861 1.033-9.057 1.033s-8.238-.788-9.057-1.033c-.235-.747-.943-3.299-.943-6.967 0-1.636.112-2.939.243-3.907 2.797 3.191 8.831 7.384 9.487 7.828.164.105.375.105.539 0-.142.186 6.671-4.544 9.417-7.813.168 1.064.313 2.367.313 3.893 0 3.668-.708 6.22-.943 6.967zm1.435-12.06c-.021-.09-.063-.189-.125-.262-.381-.447-.746-.82-1.128-1.196-.193-1.446-.424-2.287-.438-2.337-.048-.171-.183-.303-.354-.347-.04-.01-.392-.099-1.036-.213-.158-1.615-.421-2.563-.433-2.606-.048-.17-.183-.302-.354-.346-.094-.025-2.354-.603-6.621-.603s-6.527.577-6.621.603c-.169.044-.302.172-.353.339-.013.041-.282.96-.44 2.613-.641.113-.992.202-1.032.212-.169.044-.302.172-.353.339-.014.048-.25.859-.444 2.316-.453.355-.823.827-1.212 1.239-.071.069-.092.163-.124.247-.276 1.457-.422 3.218-.422 5.093 0 4.57 1.037 7.421 1.081 7.54.051.138.161.247.3.297.132.047 3.305 1.163 9.619 1.163s9.487-1.116 9.619-1.163c.139-.05.249-.159.3-.297.044-.119 1.081-2.97 1.081-7.54 0-2.134-.271-3.843-.509-5.093zm-16.579-6.4c.719-.148 2.8-.507 6.087-.507s5.361.357 6.084.506c.078.344.204 1.002.303 1.889-1.417-.196-3.55-.395-6.387-.395s-4.975.2-6.392.396c.098-.901.225-1.552.305-1.889zm-1.825 3.163c2.313-.426 3.985-.63 7.912-.67 3.924.04 5.596.243 7.909.669.139.598.446 2.117.552 4.284-2.757 3.005-7.475 6.318-8.462 6.949-.992-.616-5.67-3.955-8.465-6.926.103-2.232.411-3.724.553-4.306zm7.912 8.33c2.075 0 3-.925 3-3s-.925-3-3-3-3 .925-3 3 .925 3 3 3zm0-5c1.514 0 2 .486 2 2s-.486 2-2 2-2-.486-2-2 .486-2 2-2zm-6.25-1c0-.414.336-.75.75-.75s.75.336.75.75-.336.75-.75.75-.75-.336-.75-.75zm11 0c0-.414.336-.75.75-.75s.75.336.75.75-.336.75-.75.75-.75-.336-.75-.75z"/></svg>