<svg id="Layer_1" viewBox="0 0 24 24" xmlns="http://www.w3.org/2000/svg" data-name="Layer 1"><path d="m22.02 4.418c-.047-.166-.178-.296-.345-.344-.077-.022-1.029-.286-2.675-.547v-2.027c0-.276-.224-.5-.5-.5s-.5.224-.5.5v1.884c-1.579-.209-3.608-.384-6-.384-2.409 0-4.435.178-6 .389v-1.889c0-.276-.224-.5-.5-.5s-.5.224-.5.5v2.036c-1.595.259-2.51.518-2.584.54-.165.048-.294.178-.341.343-.044.154-1.075 3.816-1.075 8.582s1.031 8.428 1.075 8.582c.047.165.176.295.341.343.151.044 3.774 1.075 9.584 1.075 1.194 0 2.385-.045 3.538-.132.275-.021.481-.262.461-.537-.021-.275-.268-.479-.537-.461-1.128.086-2.293.13-3.462.13-4.776 0-8.097-.731-9.035-.965-.234-.931-.965-4.14-.965-8.035 0-1.429.099-2.763.235-3.928.603-.16 4.27-1.072 9.765-1.072 5.993 0 9.823 1.087 9.861 1.098.053.458.102.934.14 1.439.021.275.267.478.536.462.275-.021.482-.261.462-.536-.26-3.496-.95-5.942-.979-6.045zm-10.02 2.582c-4.937 0-8.376.703-9.623 1.004.216-1.47.468-2.56.588-3.039.938-.233 4.259-.965 9.035-.965s8.176.734 9.13.967c.122.483.375 1.583.592 3.061-1.155-.285-4.646-1.028-9.722-1.028zm10.668 12.337c0 1.298-.935 2.378-2.166 2.613l-.002.552c0 .275-.225.498-.5.498h-.002c-.276 0-.499-.226-.498-.502l.002-.547c-1.168-.225-2.077-1.216-2.155-2.442-.018-.275.191-.514.467-.531.298-.023.514.192.531.467.056.872.784 1.555 1.659 1.555.918 0 1.664-.746 1.664-1.663s-.746-1.664-1.664-1.664c-1.385 0-2.43-.982-2.43-2.285 0-1.137.829-2.087 1.932-2.326l.003-.563c0-.275.225-.498.5-.498h.002c.276 0 .499.227.498.502l-.003.544c.851.156 1.573.734 1.87 1.54.096.259-.037.547-.296.642-.256.099-.547-.036-.642-.296-.206-.558-.765-.932-1.392-.932-.812 0-1.473.622-1.473 1.388 0 .745.602 1.285 1.43 1.285 1.469 0 2.664 1.195 2.664 2.664z"/></svg>