<?xml version="1.0" encoding="UTF-8"?>
<svg xmlns="http://www.w3.org/2000/svg" id="Layer_1" data-name="Layer 1" viewBox="0 0 24 24">
  <path d="M20.559,7.047c-.534-.498-1.134-.889-1.788-1.164,.524-1.86-.036-3.828-.436-4.229-.348-.348-1.448-.635-2.506-.653-1.039-.019-2.542,.204-3.703,1.364-.575,.575-.93,1.254-1.131,1.951-.138-.227-.293-.446-.465-.654-.916-1.104-2.208-1.785-3.639-1.918-.271-.015-.519,.178-.544,.452s.177,.519,.452,.544c1.164,.107,2.215,.661,2.96,1.561,.519,.625,.846,1.367,.96,2.153-.736-.53-1.653-.854-2.674-.935-1.717-.133-3.434,.437-4.603,1.527-1.089,1.016-2.35,3.08-2.318,5.555,.032,2.52,1.343,4.944,3.898,7.206,2.396,2.119,4.745,3.193,6.979,3.193s4.582-1.074,6.979-3.194c2.554-2.261,3.865-4.686,3.897-7.205,.032-2.475-1.229-4.539-2.318-5.554Zm-7.726-3.975c.827-.825,1.953-1.068,2.914-1.068,.9,0,1.655,.214,1.878,.359,.228,.368,.964,3.136-.707,4.805-1.619,1.617-4.404,.982-4.773,.719-.213-.285-1.012-3.116,.688-4.814Zm5.484,15.984c-2.208,1.953-4.333,2.943-6.316,2.943s-4.108-.99-6.316-2.942c-2.334-2.067-3.532-4.244-3.561-6.47-.036-2.829,1.792-4.615,2-4.811,.955-.889,2.426-1.372,3.843-1.262,1.206,.095,2.22,.595,2.864,1.419,.939,1.13,1.38,2.556,1.242,4.015s-.838,2.779-1.971,3.72c-.212,.176-.242,.491-.065,.704,.175,.212,.49,.241,.704,.065,1.338-1.11,2.165-2.671,2.328-4.395,.097-1.022-.047-2.029-.408-2.957,.634,.16,1.346,.145,1.386,.145,1.04,0,2.464-.245,3.578-1.357,.326-.325,.581-.685,.778-1.061,.537,.229,1.032,.552,1.474,.965,.208,.194,2.037,1.98,2,4.81-.029,2.226-1.227,4.402-3.561,6.469Z"/>
</svg>
