<svg id="Layer_1" viewBox="0 0 24 24" xmlns="http://www.w3.org/2000/svg" data-name="Layer 1"><path d="m12 1c-7.813 0-11 3.187-11 11s3.187 11 11 11 11-3.187 11-11-3.187-11-11-11zm10 11c0 2.437-.331 4.36-1.036 5.851-3.243-5.102-7.368-7.64-8.464-8.25v-7.588c6.818.133 9.5 2.964 9.5 9.987zm-10.5-9.987v7.588c-1.099.609-5.23 3.142-8.473 8.232-.699-1.489-1.027-3.406-1.027-5.833 0-7.023 2.682-9.855 9.5-9.987zm-7.913 16.804c2.76-4.546 6.388-7.114 7.913-8.053v11.223c-3.904-.076-6.451-1.041-7.913-3.17zm8.913 3.17v-11.221c1.522.942 5.143 3.514 7.902 8.067-1.463 2.118-4.008 3.078-7.902 3.154z"/></svg>