<svg id="Layer_1" viewBox="0 0 24 24" xmlns="http://www.w3.org/2000/svg" data-name="Layer 1"><path d="m17.301 6.73c-.977-.971-2.56-.976-3.532-.01l-6.419 6.413c-.78.774-1.237 1.81-1.287 2.917l-.062 1.429c-.018.284.237.54.521.521l1.438-.062c1.11-.049 2.152-.501 2.934-1.276l6.409-6.406c.925-.82.918-2.703-.002-3.525zm-.694 2.808-6.418 6.416c-.604.598-1.41.948-2.272.986l-.893.038.038-.883c.039-.855.392-1.655.994-2.253l6.419-6.413c.58-.576 1.52-.571 2.106-.004.538.451.559 1.643.025 2.113zm-4.607-8.538c-7.813 0-11 3.187-11 11s3.187 11 11 11 11-3.187 11-11-3.187-11-11-11zm0 21c-7.196 0-10-2.804-10-10s2.804-10 10-10 10 2.804 10 10-2.804 10-10 10z"/></svg>