<svg id="Layer_1" viewBox="0 0 24 24" xmlns="http://www.w3.org/2000/svg" data-name="Layer 1"><path d="m22.986 5.069c-.015-.062-.371-1.529-1.448-2.606s-2.546-1.434-2.607-1.449c-.145-.035-.297-.002-.415.086-.029.021-1.604 1.208-3.682 2.934-1.985-.888-3.828-1.016-4.316-1.034-.124-.013-.237.035-.332.11-1.206.975-2.988 2.485-4.039 3.536-.195.195-.195.512 0 .707s.512.195.707 0c.981-.981 2.632-2.386 3.812-3.345.564.035 1.865.189 3.302.75-1.553 1.316-3.289 2.859-4.846 4.416-3.887 3.887-6.468 7.176-6.753 7.543-.056.071-.092.157-.103.247-.223 1.788-.259 3.714-.265 4.327l-.855.855c-.195.195-.195.512 0 .707s.512.195.707 0l.855-.855c.612-.006 2.53-.041 4.265-.262.46 0 5.144-4.151 7.852-6.859 4.058-4.057 8.035-9.341 8.074-9.394.09-.119.121-.271.087-.416zm-8.868 9.102c-3.651 3.651-6.744 6.118-7.343 6.586-1.438.171-2.99.222-3.77.236.016-.778.065-2.331.236-3.769.525-.668 2.986-3.742 6.587-7.343 1.658-1.658 3.521-3.3 5.144-4.662.722.379 1.444.864 2.098 1.518.797.797 1.348 1.945 1.569 2.456-1.334 1.583-2.922 3.377-4.522 4.977zm5.232-5.827c-.316-.651-.846-1.588-1.571-2.313-.62-.62-1.295-1.108-1.976-1.501 1.484-1.223 2.664-2.135 3.114-2.479.398.129 1.262.466 1.914 1.119s.989 1.515 1.118 1.913c-.355.465-1.317 1.709-2.599 3.261z"/></svg>