<svg id="Layer_1" viewBox="0 0 24 24" xmlns="http://www.w3.org/2000/svg" data-name="Layer 1"><path d="m21.297 14.719c-1.998-1.998-3.664-2.277-5.563-.873 4.348-4.51 7.133-8.134 7.163-8.174.083-.108.118-.246.097-.38-.011-.07-.279-1.725-1.42-2.866s-2.796-1.41-2.866-1.42c-.133-.02-.271.014-.38.097-.035.027-2.79 2.144-6.478 5.56-.004-.004-.005-.009-.009-.013-1.655-1.534-3.377-3.038-5.121-4.47-1.546-1.264-2.853-1.699-4.584.034-1.767 1.767-1.289 3.113-.033 4.585.973 1.159 2.555 3.106 4.466 5.091-2.444 2.578-5.291 5.739-5.288 6.055-.277 2.216-.28 4.461-.28 4.556 0 .276.224.5.5.5.095 0 2.34-.003 4.494-.276.448 0 5.174-4.336 7.786-6.899-.523.747-.78 1.46-.78 2.184 0 1.071.546 2.116 1.719 3.289 1.437 1.437 4.122 1.705 5.925 1.705 1.012 0 1.746-.084 1.827-.094.229-.028.409-.208.437-.437.027-.224.632-5.509-1.611-7.752zm-2.541-12.684c.419.099 1.405.393 2.11 1.098.7.699.997 1.689 1.097 2.111-.331.423-1.247 1.573-2.613 3.157-.226-.684-.64-1.616-1.388-2.363-.748-.748-1.68-1.162-2.364-1.388 1.585-1.367 2.735-2.283 3.158-2.614zm-15.887 4.121c-1.179-1.382-1.185-2.078-.027-3.236 1.144-1.146 1.811-1.138 3.243.033 1.689 1.387 3.427 2.905 5.033 4.392-.78.735-1.592 1.518-2.426 2.352-.42.42-.929.91-1.46 1.463-1.871-2.022-3.402-3.833-4.363-5.004zm10.727 8.444c-3.832 3.832-7.171 6.62-7.807 7.145-1.496.178-3.017.232-3.782.248.016-.766.07-2.287.248-3.782.525-.636 3.313-3.975 7.145-7.807 1.938-1.938 3.768-3.622 5.299-4.971.445.099 1.683.438 2.556 1.311s1.212 2.111 1.311 2.556c-1.349 1.531-3.032 3.361-4.971 5.299zm8.355 7.351c-1.228.092-4.943.221-6.525-1.361-.973-.973-1.426-1.794-1.426-2.582s.453-1.609 1.426-2.582 1.793-1.426 2.582-1.426 1.609.453 2.582 1.426c1.582 1.582 1.452 5.297 1.361 6.525z"/></svg>