<svg id="Layer_1" viewBox="0 0 24 24" xmlns="http://www.w3.org/2000/svg" data-name="Layer 1"><path d="m21.728 2.204c-1.037-1.018-2.492-1.193-2.554-1.2-.113-.014-.229.013-.325.075-.122.078-3.047 1.968-8.889 7.801-6.234 6.264-7.711 8.485-7.772 8.576-.044.067-.071.145-.079.225l-.406 4.103c-.015.148.038.296.143.401.094.095.222.148.355.148.015 0 .03 0 .045-.002l4.057-.371c.083-.008.164-.036.233-.083.092-.062 2.325-1.582 8.557-7.844 5.841-5.831 7.749-8.752 7.827-8.874.066-.102.093-.225.074-.346-.01-.064-.248-1.577-1.267-2.61zm-7.343 11.123c-5.426 5.452-7.814 7.289-8.308 7.649l-3.319.303.334-3.37c.347-.485 2.142-2.863 7.575-8.323 1.737-1.734 3.212-3.111 4.433-4.199.32.056 1.557.32 2.386 1.134.825.81 1.094 2.012 1.153 2.331-1.098 1.228-2.493 2.716-4.254 4.475zm5.051-5.379c-.197-.624-.565-1.469-1.248-2.141-.683-.67-1.541-1.03-2.174-1.223 1.761-1.519 2.837-2.295 3.217-2.558.355.072 1.188.295 1.791.885.602.61.859 1.492.947 1.87-.268.384-1.04 1.443-2.533 3.166z"/><path d="m4.953 10.642c.128 0 .256-.049.354-.146.195-.195.195-.512 0-.708-1.365-1.366-2.767-2.875-3.256-3.404.132-.472.504-1.553 1.308-2.356.827-.829 1.943-1.198 2.391-1.32.202.144.571.414 1.041.78l-1.165 1.167c-.195.195-.195.512 0 .707.097.097.225.146.353.146s.256-.049.354-.147l1.242-1.244c.442.363.929.779 1.443 1.248l-1.342 1.344c-.195.195-.195.512 0 .707.194.194.512.195.707 0l1.709-1.712c.095-.096.148-.226.146-.361s-.059-.264-.158-.356c-2.096-1.965-3.874-3.18-3.948-3.23-.11-.075-.247-.104-.376-.077-.074.014-1.83.368-3.105 1.644-1.271 1.273-1.626 3.034-1.641 3.108-.03.156.015.316.122.433.018.019 1.771 1.934 3.468 3.633.098.098.226.146.354.146z"/><path d="m18.988 13.908c-.093-.099-.222-.156-.357-.159-.089-.011-.266.051-.361.146l-1.709 1.711c-.195.196-.195.512 0 .708.195.194.512.195.707 0l1.341-1.343c.468.515.883 1.003 1.246 1.445l-1.243 1.246c-.195.195-.195.512 0 .707.098.097.226.146.354.146s.256-.049.354-.147l1.164-1.166c.365.47.635.84.778 1.042-.122.448-.491 1.567-1.319 2.396-.802.803-1.88 1.176-2.352 1.309-.529-.491-2.034-1.895-3.398-3.261-.195-.195-.512-.195-.707 0s-.195.512 0 .708c1.696 1.699 3.607 3.455 3.627 3.473.093.085.214.132.338.132.032 0 .064-.003.096-.009.074-.015 1.833-.37 3.104-1.644 1.275-1.277 1.628-3.035 1.643-3.109.025-.13-.003-.266-.077-.375-.051-.075-1.264-1.856-3.226-3.955z"/></svg>