<svg id="Layer_1" viewBox="0 0 24 24" xmlns="http://www.w3.org/2000/svg" data-name="Layer 1"><path d="m10.999 20.485c-.013.275-.252.489-.525.473-3.241-.17-6.11-.793-6.231-.819-.19-.042-.339-.19-.381-.381-.026-.121-.649-2.99-.819-6.231-.015-.276.197-.511.473-.525.278-.02.512.197.525.473.134 2.548.567 4.919.733 5.753.834.166 3.205.6 5.753.733.275.015.487.249.473.525zm2.475-16.445c2.548.134 4.919.567 5.753.733.166.834.6 3.205.733 5.753.014.267.234.474.499.474.285 0 .515-.24.499-.526-.17-3.241-.793-6.11-.819-6.231-.042-.19-.19-.339-.381-.381-.121-.026-2.99-.649-6.231-.819-.271-.027-.511.197-.525.473-.015.276.197.511.473.525zm-5.974.468c0 .995-.505 1.5-1.5 1.5s-1.5-.505-1.5-1.5.505-1.5 1.5-1.5 1.5.505 1.5 1.5zm-1 0c0-.439-.061-.5-.5-.5s-.5.061-.5.5.061.5.5.5.5-.061.5-.5zm4.5 1.492c0 3.505-1.495 5-5 5s-5-1.495-5-5 1.495-5 5-5 5 1.495 5 5zm-5 4c1.243 0 2.131-.201 2.763-.636-.269-.734-.872-1.357-2.763-1.357s-2.494.621-2.764 1.356c.632.435 1.52.636 2.764.636zm4-4c0-2.953-1.047-4-4-4s-4 1.047-4 4c0 1.125.155 1.97.507 2.59.776-1.391 2.321-1.582 3.493-1.582s2.718.19 3.494 1.582c.352-.619.506-1.464.506-2.59zm6.5 10.508c0-.995.505-1.5 1.5-1.5s1.5.505 1.5 1.5-.505 1.5-1.5 1.5-1.5-.505-1.5-1.5zm1 0c0 .439.061.5.5.5s.5-.061.5-.5-.061-.5-.5-.5-.5.061-.5.5zm5.5 1.492c0 3.505-1.495 5-5 5s-5-1.495-5-5 1.495-5 5-5 5 1.495 5 5zm-9 0c0 1.125.155 1.97.507 2.59.776-1.391 2.321-1.582 3.493-1.582s2.718.19 3.494 1.582c.352-.619.506-1.464.506-2.59 0-2.953-1.047-4-4-4s-4 1.047-4 4zm4 4c1.243 0 2.131-.201 2.763-.636-.269-.734-.872-1.357-2.763-1.357s-2.494.621-2.764 1.356c.632.435 1.52.636 2.764.636z"/></svg>