<?xml version="1.0" encoding="UTF-8"?>
<svg xmlns="http://www.w3.org/2000/svg" id="Layer_1" data-name="Layer 1" viewBox="0 0 24 24">
  <path d="M5.708,6.87c1.873-.011,2.881-1.022,2.916-2.944-.032-1.848-1.094-2.914-2.922-2.926-1.846,.012-2.915,1.104-2.915,2.926,0,1.859,1.069,2.934,2.921,2.944Zm-.006-4.87c1.289,.009,1.899,.626,1.922,1.926-.024,1.355-.599,1.937-1.916,1.944-1.319-.008-1.894-.587-1.921-1.936,.026-1.329,.619-1.926,1.915-1.935Z"/>
  <path d="M16.804,6.87c1.873-.011,2.881-1.022,2.916-2.944-.032-1.848-1.094-2.914-2.922-2.926-1.846,.012-2.915,1.104-2.915,2.926,0,1.859,1.069,2.934,2.921,2.944Zm-.006-4.87c1.289,.009,1.899,.626,1.922,1.926-.024,1.355-.599,1.937-1.916,1.944-1.319-.008-1.894-.587-1.921-1.936,.026-1.329,.619-1.926,1.915-1.935Z"/>
  <path d="M8.834,9.331c-.055-.02-1.375-.488-3.129-.488-1.769,0-3.076,.47-3.131,.489-.158,.058-.277,.191-.315,.355-.016,.068-.398,1.71-.398,3.649s.382,3.58,.398,3.649c.039,.165,.158,.299,.317,.356,.027,.009,.347,.123,.868,.238v4.919c0,.276,.224,.5,.5,.5s.5-.224,.5-.5v-4.748c.382,.047,.807,.079,1.261,.079s.881-.031,1.262-.078v4.747c0,.276,.224,.5,.5,.5s.5-.224,.5-.5v-4.918c.523-.116,.843-.231,.87-.24,.158-.058,.277-.191,.315-.355,.016-.068,.398-1.71,.398-3.649s-.382-3.58-.398-3.649c-.039-.165-.158-.299-.317-.356Zm-.599,7.151c-.435,.124-1.38,.349-2.531,.349-1.142,0-2.092-.225-2.53-.35-.104-.533-.314-1.775-.314-3.145s.21-2.614,.314-3.146c.433-.124,1.374-.348,2.53-.348,1.142,0,2.092,.225,2.531,.35,.104,.533,.314,1.775,.314,3.145s-.209,2.613-.314,3.146Z"/>
  <path d="M22.126,18.855l-2.2-9.17c-.035-.146-.134-.269-.269-.334-.044-.021-1.075-.509-2.855-.509-1.803,0-2.776,.494-2.817,.515-.129,.067-.222,.187-.256,.328l-2.195,9.17c-.033,.136-.006,.28,.072,.396,.079,.116,.202,.193,.341,.214,.079,.012,1.284,.19,2.594,.323v2.712c0,.276,.224,.5,.5,.5s.5-.224,.5-.5v-2.623c.454,.034,.889,.055,1.262,.055s.807-.021,1.262-.054v2.622c0,.276,.224,.5,.5,.5s.5-.224,.5-.5v-2.709c1.333-.132,2.568-.312,2.648-.324,.14-.021,.263-.099,.342-.215s.104-.261,.072-.396Zm-5.324,.076c-1.213,0-3.213-.249-4.168-.379l2.008-8.387c.329-.118,1.06-.323,2.16-.323s1.866,.21,2.212,.329l2.011,8.38c-.966,.13-2.996,.38-4.223,.38Z"/>
</svg>
