<?xml version="1.0" encoding="UTF-8"?>
<svg xmlns="http://www.w3.org/2000/svg" id="Layer_1" data-name="Layer 1" viewBox="0 0 24 24">
  <path d="M22.977,9.173c-.142-2.647-1.966-4.708-4.374-5.092,.146-.335,.226-.709,.226-1.094,0-.708-.266-1.378-.729-1.841-.195-.194-.512-.195-.708,0-.195,.196-.195,.512,0,.708,.277,.276,.436,.689,.436,1.133,0,.396-.127,.768-.351,1.039-2.72,.16-4.883,2.419-4.883,5.174,0,.318,.005,.641,.01,.964,.037,2.517-.029,4.19-1.236,4.501-1.306,.332-3.025-1.084-4.406-2.225-1.245-1.028-2.223-1.843-3.093-1.706-1.135,.178-1.684,1.311-1.466,3.033,.411,3.258,3.912,9.233,10.22,9.233,.323,0,.654-.016,.991-.048,9.068-.872,9.568-9.927,9.362-13.78Zm-5.191-4.156c1.7,0,3.139,1.022,3.805,2.549-.006,.005-.012,.01-.018,.016-2.11,2.106-5.542,2.107-7.652,0,.635-1.506,2.128-2.565,3.865-2.565Zm-4.267,16.941c-6.258,.597-9.733-5.214-10.124-8.315-.053-.419-.164-1.795,.628-1.919,.015-.002,.031-.003,.048-.003,.447,0,1.446,.824,2.254,1.492,1.638,1.352,3.492,2.885,5.292,2.422,2.06-.531,2.022-3.05,1.986-5.485-.004-.318-.009-.637-.009-.95,0-.18,.012-.358,.034-.532,1.187,.995,2.652,1.492,4.118,1.492,1.484,0,2.969-.51,4.163-1.53,.034,.194,.057,.393,.068,.596,.191,3.564-.251,11.941-8.459,12.731Z"/>
  <path d="M8.195,7.009c.429,.004,.797,.378,.805,.814,.003,.244-.112,.515-.3,.706-.151,.154-.33,.24-.504,.242-.276,.002-.498,.229-.496,.504,.002,.275,.226,.496,.5,.496h.004c.442-.004,.872-.196,1.21-.542,.373-.38,.591-.91,.585-1.42-.016-.983-.821-1.79-1.796-1.8-.162,0-.315-.069-.431-.191-.127-.135-.195-.322-.186-.513,.021-.403,.325-.8,.615-.802,.276-.001,.499-.227,.498-.502-.001-.275-.225-.498-.5-.498h-.002c-.823,.004-1.56,.806-1.609,1.751-.022,.462,.144,.918,.458,1.25,.305,.322,.713,.501,1.149,.505Z"/>
  <path d="M2.606,8.444c.442-.004,.872-.196,1.21-.542,.373-.38,.591-.91,.585-1.42-.016-.983-.821-1.79-1.796-1.8-.162,0-.315-.069-.431-.191-.127-.135-.195-.322-.186-.513,.021-.403,.325-.8,.615-.802,.276-.001,.499-.227,.498-.502-.002-.277-.225-.489-.502-.498-.823,.004-1.56,.806-1.609,1.751-.022,.462,.144,.918,.458,1.25,.305,.322,.713,.501,1.149,.505,.429,.004,.797,.378,.805,.814,.003,.244-.112,.515-.3,.706-.151,.154-.33,.24-.504,.242-.276,.002-.498,.229-.496,.504,.002,.275,.226,.496,.5,.496h.004Z"/>
</svg>
