<svg id="Layer_1" viewBox="0 0 24 24" xmlns="http://www.w3.org/2000/svg" data-name="Layer 1"><path d="m20.935 8.748-4 7c-.139.242-.447.322-.683.186-.24-.137-.323-.442-.187-.682l4-7c.138-.241.444-.324.683-.186.24.137.323.442.187.682zm-4.185.752c.414 0 .75-.336.75-.75s-.336-.75-.75-.75-.75.336-.75.75.336.75.75.75zm3.5 5c-.414 0-.75.336-.75.75s.336.75.75.75.75-.336.75-.75-.336-.75-.75-.75zm-5.75-2.5c0 1.978-.297 4-2.5 4s-2.5-2.022-2.5-4 .297-4 2.5-4 2.5 2.022 2.5 4zm-1 0c0-2.769-.741-3-1.5-3s-1.5.231-1.5 3 .741 3 1.5 3 1.5-.231 1.5-3zm-5 1.5c0 1.706-.874 2.5-2.75 2.5s-2.75-.794-2.75-2.5c0-1.018.319-1.704.968-2.098-.308-.329-.468-.791-.468-1.402 0-1.346.736-2 2.25-2s2.25.654 2.25 2c0 .612-.16 1.073-.468 1.402.649.394.968 1.08.968 2.098zm-2.75-2.5c1.076 0 1.25-.295 1.25-1s-.174-1-1.25-1-1.25.295-1.25 1 .174 1 1.25 1zm1.75 2.5c0-1.016-.262-1.5-1.75-1.5s-1.75.484-1.75 1.5.262 1.5 1.75 1.5 1.75-.484 1.75-1.5zm15.5-1.5c0 7.813-3.187 11-11 11s-11-3.187-11-11 3.187-11 11-11 11 3.187 11 11zm-1 0c0-7.196-2.804-10-10-10s-10 2.804-10 10 2.804 10 10 10 10-2.804 10-10z"/></svg>