<svg id="Layer_1" viewBox="0 0 24 24" xmlns="http://www.w3.org/2000/svg" data-name="Layer 1"><path d="m5.632 14.958c.254.029.527.033.905.042.719 0 1.239-.057 1.888-.155.275-.043.528.146.569.419.042.273-.146.528-.419.569-.696.105-1.256.167-2.036.167-.888.006-1.335-.086-2.124-.226-.193-.034-.349-.177-.398-.367-.049-.189.017-.391.168-.514 2.294-1.863 3.815-4.239 3.815-4.993 0-.422 0-.9-1.5-.9-1.236 0-1.527.434-1.529.438-.117.251-.41.345-.658.228-.25-.117-.351-.428-.234-.678.047-.101.518-.988 2.421-.988.618 0 2.5 0 2.5 1.9 0 1.127-1.475 3.298-3.368 5.059zm17.368-2.958c0 7.813-3.187 11-11 11s-11-3.187-11-11 3.187-11 11-11 11 3.187 11 11zm-1 0c0-7.196-2.804-10-10-10s-10 2.804-10 10 2.804 10 10 10 10-2.804 10-10zm-1.252-3.934c-.24-.139-.545-.054-.682.186l-4 7c-.137.24-.054.545.186.682.236.136.545.056.682-.186l4-7c.137-.24.054-.545-.186-.682zm-3.998 1.434c.414 0 .75-.336.75-.75s-.336-.75-.75-.75-.75.336-.75.75.336.75.75.75zm3.5 5c-.414 0-.75.336-.75.75s.336.75.75.75.75-.336.75-.75-.336-.75-.75-.75zm-5.25-2.5c0 1.978-.297 4-2.5 4s-2.5-2.022-2.5-4 .297-4 2.5-4 2.5 2.022 2.5 4zm-1 0c0-2.769-.741-3-1.5-3s-1.5.231-1.5 3 .741 3 1.5 3 1.5-.231 1.5-3z"/></svg>