<svg id="Layer_1" viewBox="0 0 24 24" xmlns="http://www.w3.org/2000/svg" data-name="Layer 1"><path d="m6.242 11c-.722 0-1.292.122-1.723.365.121-2.166.882-2.365 1.723-2.365.861 0 1.448.292 1.453.295.246.125.545.03.672-.214s.032-.547-.213-.674c-.032-.017-.794-.406-1.912-.406-2.431 0-2.742 2.138-2.742 4-.002.069.003 1.461 0 1.5 0 1.706.872 2.5 2.742 2.5s2.742-.794 2.742-2.5-.872-2.5-2.742-2.5zm0 4c-1.481 0-1.742-.484-1.742-1.5s.261-1.5 1.742-1.5 1.742.484 1.742 1.5-.261 1.5-1.742 1.5zm14.692-6.252-4 7c-.138.242-.447.322-.682.186-.24-.137-.323-.442-.186-.682l4-7c.137-.241.442-.324.682-.186.24.137.323.442.186.682zm-4.934.002c0-.414.336-.75.75-.75s.75.336.75.75-.336.75-.75.75-.75-.336-.75-.75zm5 6.5c0 .414-.336.75-.75.75s-.75-.336-.75-.75.336-.75.75-.75.75.336.75.75zm-8.5-7.25c-2.203 0-2.5 2.022-2.5 4s.297 4 2.5 4 2.5-2.022 2.5-4-.297-4-2.5-4zm0 7c-.759 0-1.5-.231-1.5-3s.741-3 1.5-3 1.5.231 1.5 3-.741 3-1.5 3zm-.5-14c-7.813 0-11 3.187-11 11s3.187 11 11 11 11-3.187 11-11-3.187-11-11-11zm0 21c-7.196 0-10-2.804-10-10s2.804-10 10-10 10 2.804 10 10-2.804 10-10 10z"/></svg>