<svg id="Layer_1" viewBox="0 0 24 24" xmlns="http://www.w3.org/2000/svg" data-name="Layer 1"><path d="m6.812 8.109c.118.095.188.239.188.391v7c0 .276-.224.5-.5.5s-.5-.224-.5-.5v-6.241c-.236.174-.452.447-.542.874-.057.271-.316.446-.592.387-.27-.056-.443-.321-.387-.591.294-1.409 1.435-1.81 1.911-1.917.149-.033.304.003.422.097zm11.936-.043c-.238-.137-.545-.055-.683.186l-4 7c-.137.24-.054.545.187.682.235.136.544.056.683-.186l4-7c.137-.24.054-.545-.187-.682zm-3.998 1.434c.414 0 .75-.336.75-.75s-.336-.75-.75-.75-.75.336-.75.75.336.75.75.75zm3.5 5c-.414 0-.75.336-.75.75s.336.75.75.75.75-.336.75-.75-.336-.75-.75-.75zm-5.25-2.5c0 1.978-.297 4-2.5 4s-2.5-2.022-2.5-4 .297-4 2.5-4 2.5 2.022 2.5 4zm-1 0c0-2.769-.741-3-1.5-3s-1.5.231-1.5 3 .741 3 1.5 3 1.5-.231 1.5-3zm11 0c0 7.813-3.187 11-11 11s-11-3.187-11-11 3.187-11 11-11 11 3.187 11 11zm-1 0c0-7.196-2.804-10-10-10s-10 2.804-10 10 2.804 10 10 10 10-2.804 10-10z"/></svg>