<svg id="Layer_1" viewBox="0 0 24 24" xmlns="http://www.w3.org/2000/svg" data-name="Layer 1"><path d="m8.962 8.838c-.555 2.628-1.467 4.833-2.869 6.939-.154.232-.466.292-.693.139-.23-.153-.292-.463-.139-.693 1.24-1.863 2.076-3.811 2.612-6.093-1.223-.199-2.49-.167-3.773.094-.269.054-.535-.119-.59-.39s.119-.535.39-.59c1.594-.325 3.169-.325 4.679 0 .269.058.44.323.384.592zm14.038 3.162c0 7.813-3.187 11-11 11s-11-3.187-11-11 3.187-11 11-11 11 3.187 11 11zm-1 0c0-7.196-2.804-10-10-10s-10 2.804-10 10 2.804 10 10 10 10-2.804 10-10zm-1.252-3.934c-.238-.138-.545-.055-.683.186l-4 7c-.137.24-.054.545.187.682.235.136.544.056.683-.186l4-7c.137-.24.054-.545-.187-.682zm-3.998 1.434c.414 0 .75-.336.75-.75s-.336-.75-.75-.75-.75.336-.75.75.336.75.75.75zm3.5 5c-.414 0-.75.336-.75.75s.336.75.75.75.75-.336.75-.75-.336-.75-.75-.75zm-8.25-3.5c-.354 0-.587.02-.859.042-.128-.659-.152-1.48-.154-1.944.227-.047.582-.098 1.065-.098.825 0 1.482.059 1.888.108.271.044.524-.161.557-.436.034-.274-.161-.523-.436-.557-.434-.053-1.133-.116-2.009-.116-1.121 0-1.696.232-1.758.259-.179.076-.297.25-.303.443-.003.077-.057 1.898.287 3.015.068.22.284.372.506.352.463-.024.72-.069 1.216-.07 1.711 0 2 .438 2 1.422 0 1.023-.311 1.578-1.948 1.578-.563 0-1.107-.078-1.616-.231-.267-.079-.543.071-.623.335-.08.265.07.543.335.623.603.181 1.243.273 1.904.273 1.266 0 2.948-.267 2.948-2.578 0-2.134-1.517-2.422-3-2.422z"/></svg>