<svg id="Layer_1" viewBox="0 0 24 24" xmlns="http://www.w3.org/2000/svg" data-name="Layer 1"><path d="m7.503 5.999c1.581-.01 2.468-.895 2.497-2.509-.027-1.573-.938-2.481-2.503-2.491-1.582.01-2.469.895-2.497 2.491v.018c.029 1.597.917 2.481 2.503 2.491zm-.006-4c1.007.006 1.485.485 1.503 1.491-.02 1.065-.455 1.502-1.497 1.509-1.031-.006-1.481-.455-1.503-1.5.021-1.045.471-1.494 1.497-1.5zm10.503 17.5c0 .307-.281.502-.589.501-6.932 0-9.917-.899-10.042-.938-.111-.034-.207-.106-.271-.204-.092-.143-2.292-3.544-4.356-9.199-.252-.692-.481-1.354-.687-1.98-.086-.263.057-.545.319-.631.263-.089.544.057.631.318.203.617.427 1.269.676 1.95 1.78 4.878 3.701 8.105 4.155 8.837.724.185 3.729.85 9.664.847.276 0 .5.224.5.499zm1.986-3.453c-.09-.181-.276-.29-.485-.275-.03.003-3.037.229-4.501.229l-.563.003c-.85-1.339-2.151-4.428-3.015-6.478l-.33-.782c-.44-1.036-1.451-1.705-2.575-1.705h-.414c-1.506-.046-2.582 1.614-1.895 2.955.666 1.618 1.419 3.452 2.07 4.886.517 1.127 1.573 1.883 2.825 2.021 1.105.123 2.05.115 3.055.104 1.441.022 3.949-.123 5.077-.212 1.33 2.803 1.763 5.747 1.768 5.778.038.275.298.463.566.424.273-.039.463-.293.424-.565-.02-.136-.491-3.346-2.009-6.384zm-8.771-.14c-.9-.1-1.658-.639-2.026-1.442-.642-1.415-1.393-3.24-2.054-4.852-.402-.708.148-1.603.969-1.574h.414c.722 0 1.371.43 1.654 1.096l.33.78c.825 1.957 1.918 4.552 2.779 6.096-.667-.002-1.334-.022-2.065-.104z"/></svg>