<svg id="Layer_1" viewBox="0 0 24 24" xmlns="http://www.w3.org/2000/svg" data-name="Layer 1"><path d="m12 5c1.346 0 2-.654 2-2s-.654-2-2-2-2 .654-2 2 .654 2 2 2zm0-3c.794 0 1 .206 1 1s-.206 1-1 1-1-.206-1-1 .206-1 1-1zm4.487 4.743c-.046-.194-.203-.343-.399-.378-.083-.015-2.066-.365-4.088-.365s-4.004.35-4.088.365c-.197.035-.354.184-.399.378-.021.09-.513 2.229-.513 4.757s.492 4.667.513 4.757c.045.194.202.343.399.378.055.01.928.162 2.088.267v5.598c0 .276.224.5.5.5s.5-.224.5-.5v-5.529c.328.016.661.029 1 .029s.672-.012 1-.029v5.529c0 .276.224.5.5.5s.5-.224.5-.5v-5.598c1.16-.105 2.034-.257 2.088-.267.196-.035.354-.184.399-.378.021-.09.513-2.229.513-4.757s-.492-4.667-.513-4.757zm-.906 8.961c-.643.098-2.121.296-3.581.296s-2.939-.198-3.581-.296c-.134-.682-.419-2.352-.419-4.204s.285-3.522.419-4.204c.642-.098 2.121-.296 3.581-.296s2.938.198 3.581.296c.134.682.419 2.352.419 4.204s-.285 3.522-.419 4.204z"/></svg>