<svg id="Layer_1" viewBox="0 0 24 24" xmlns="http://www.w3.org/2000/svg" data-name="Layer 1"><path d="m6.999 5c1.265-.007 1.974-.714 1.998-2.009-.021-1.238-.768-1.982-2.003-1.991-1.247.007-1.975.732-1.998 1.991v.018c.024 1.277.733 1.983 2.004 1.991zm-.006-3c.691.005.992.307 1.004.991-.014.731-.286 1.005-.998 1.009-.706-.004-.988-.285-1.004-1 .015-.716.297-.996.998-1zm-.685 15.555c-.323 2.938-1.318 5.069-1.36 5.159-.119.252-.421.354-.666.238-.25-.118-.356-.416-.239-.665.01-.021.966-2.078 1.27-4.842.03-.274.271-.472.552-.442.274.03.473.277.442.552zm13.384-11.871c-.042-.19-.19-.339-.381-.381-.058-.013-1.435-.312-2.807-.312s-2.75.299-2.807.312c-.191.042-.34.19-.381.381-.013.059-.312 1.437-.312 2.808 0 1.006.16 2.011.251 2.5h-1.116c-1.138-.679-2.707-2.245-3.384-3.581-.385-.795-1.164-1.407-2.086-1.407-1.517 0-2.675.919-2.675 2.496v4.377c0 1.146.784 2.145 1.906 2.428 1.45.367 3.68.854 4.703 1.53 1.219 2.455 1.39 5.657 1.392 5.689.013.276.251.49.524.475.276-.014.488-.248.475-.523-.007-.144-.187-3.54-1.555-6.204-.034-.066-.083-.125-.143-.17-.524-.397-1.372-.729-2.281-1.011v-5.543c.856 1.012 1.909 1.907 2.742 2.379.075.042.16.064.246.064h4.5c1.372 0 2.749-.299 2.807-.312.191-.042.339-.19.381-.381.013-.058.312-1.436.312-2.808s-.299-2.749-.312-2.808zm-11.676 9.122c-.648-.173-1.253-.316-1.869-.47-.678-.172-1.151-.771-1.151-1.459v-4.377c0-.401.158-.778.444-1.063.284-.281.658-.437 1.136-.437h.022c.795.041 1.418.701 1.418 1.505v6.3zm10.762-4.041c-.469.085-1.386.227-2.273.227s-1.805-.142-2.274-.227c-.085-.468-.226-1.383-.226-2.273s.142-1.805.226-2.273c.47-.085 1.386-.227 2.274-.227s1.804.142 2.273.227c.085.469.227 1.386.227 2.273s-.142 1.805-.227 2.273z"/></svg>