<svg id="Layer_1" viewBox="0 0 24 24" xmlns="http://www.w3.org/2000/svg" data-name="Layer 1"><path d="m14.75 11.257c-.062-.011-1.522-.257-2.75-.257s-2.689.247-2.75.257c-.2.034-.36.186-.404.384-.014.063-.345 1.574-.345 3.358s.332 3.295.345 3.358c.044.198.204.35.404.384.027.005.327.054.75.109v3.648c0 .276.224.5.5.5s.5-.224.5-.5v-3.544c.33.026.672.044 1 .044s.67-.018 1-.044v3.544c0 .276.224.5.5.5s.5-.224.5-.5v-3.648c.423-.054.724-.104.75-.109.2-.034.36-.186.404-.384.014-.063.345-1.574.345-3.358s-.332-3.295-.345-3.358c-.044-.198-.204-.35-.404-.384zm-.507 6.552c-.494.071-1.438.19-2.243.19s-1.749-.119-2.243-.19c-.094-.526-.257-1.613-.257-2.81s.164-2.284.257-2.81c.494-.071 1.438-.19 2.243-.19s1.749.119 2.243.19c.094.526.257 1.613.257 2.81s-.164 2.284-.257 2.81zm8.757-2.018c0 3.012-.223 5.346-.41 6.773-.034.275-.292.468-.561.431-.274-.036-.467-.287-.431-.561.183-1.398.401-3.685.401-6.643 0-4.194-.817-7.02-.99-7.573-2.315-2.41-5.345-4.484-9.01-6.169-3.664 1.685-6.694 3.759-9.01 6.169-.173.552-.99 3.379-.99 7.573 0 2.958.218 5.246.401 6.643.036.274-.157.525-.431.561-.279.032-.525-.157-.561-.431-.187-1.428-.41-3.762-.41-6.773 0-4.851 1.034-7.874 1.078-8 .023-.067.061-.128.11-.18 2.459-2.583 5.691-4.793 9.608-6.566.131-.06.281-.06.412 0 3.917 1.773 7.149 3.983 9.606 6.566.049.052.086.113.11.18.044.126 1.078 3.149 1.078 8zm-9-7.8c-.021-1.239-.769-1.983-2.004-1.991-1.247.008-1.975.733-1.997 1.991v.018c.023 1.276.732 1.983 2.003 1.991 1.265-.007 1.974-.714 1.998-2.009zm-3.001.009c.015-.715.297-.996.997-1 .692.004.992.306 1.004.991-.014.731-.286 1.005-.998 1.009-.706-.004-.988-.285-1.003-1z"/></svg>