<svg id="Layer_1" viewBox="0 0 24 24" xmlns="http://www.w3.org/2000/svg" data-name="Layer 1"><path d="m12 5c1.346 0 2-.654 2-2s-.654-2-2-2-2 .654-2 2 .654 2 2 2zm0-3c.794 0 1 .206 1 1s-.206 1-1 1-1-.206-1-1 .206-1 1-1zm5 15.927c.067-3.18-.978-8.318-2.148-10.57-.616-1.217-1.922-1.357-2.852-1.357s-2.236.141-2.849 1.353c-1.173 2.256-2.218 7.395-2.151 10.575.016.806.014.827 0 1.097.011.22.164.408.378.461.06.015 1.109.269 2.621.415v2.6c0 .276.224.5.5.5s.5-.224.5-.5v-2.526c.322.016.655.026 1 .026s.678-.01 1-.026v2.526c0 .276.224.5.5.5s.5-.224.5-.5v-2.6c1.512-.145 2.561-.4 2.621-.415.214-.053.368-.241.378-.461-.014-.269-.015-.291 0-1.097zm-1.012.673c-.689.139-2.217.4-3.988.4s-3.299-.261-3.988-.4c0-.183-.006-.41-.012-.694-.063-2.992.946-7.991 2.041-10.097.19-.376.585-.809 1.959-.809s1.769.432 1.961.813c1.092 2.101 2.102 7.1 2.039 10.092-.006.284-.011.511-.012.694z"/></svg>