<svg id="Layer_1" viewBox="0 0 24 24" xmlns="http://www.w3.org/2000/svg" data-name="Layer 1"><path d="m12 10c-2.767 0-4 1.233-4 4s1.233 4 4 4 4-1.233 4-4-1.233-4-4-4zm0 7c-2.215 0-3-.785-3-3s.785-3 3-3 3 .785 3 3-.785 3-3 3zm0-15c-7.17 0-11.056 1.594-11.056 10 0 .213.136.403.337.473.06.021 1.389.47 2.595.54-.897 3.806-.916 7.614-.872 7.505.008.205.14.385.334.453.118.042 2.978 1.028 8.662 1.028s8.544-.986 8.662-1.028c.194-.068.326-.248.334-.453.045.095.023-3.694-.873-7.507 1.234-.078 2.536-.518 2.595-.539.201-.069.337-.26.337-.473 0-8.406-3.886-10-11.056-10zm0 19c-4.424 0-7.108-.624-8-.872.005-.885.087-3.356.781-6.601.738-3.399 1.804-5.149 2.333-6.054.573-.128 2.364-.474 4.886-.474s4.312.346 4.886.474c.529.904 1.595 2.656 2.333 6.054.693 3.237.776 5.714.78 6.601-.891.248-3.575.872-7.999.872zm7.881-8.98c-.818-2.926-1.634-4.183-2.233-5.225-.066-.119-.179-.207-.311-.242-.085-.022-2.122-.553-5.338-.553s-5.253.53-5.338.553c-.132.035-.244.123-.311.242-.598 1.041-1.416 2.302-2.234 5.228-.769-.012-1.686-.247-2.172-.389.084-6.605 2.485-8.634 10.054-8.634s9.97 2.027 10.054 8.633c-.479.14-1.381.367-2.173.387z"/></svg>