<svg id="Layer_1" viewBox="0 0 24 24" xmlns="http://www.w3.org/2000/svg" data-name="Layer 1"><path d="m14 5.5c0-.276.224-.5.5-.5h3.5v-3.5c0-.276.224-.5.5-.5s.5.224.5.5v3.5h3.5c.276 0 .5.224.5.5s-.224.5-.5.5h-3.5v3.5c0 .276-.224.5-.5.5s-.5-.224-.5-.5v-3.5h-3.5c-.276 0-.5-.224-.5-.5zm9 12c0 2.284-1.947 5.5-6.275 5.5-2.332 0-7.147-2.216-10.328-5.396-3.181-3.18-5.397-7.996-5.397-10.329 0-4.328 3.216-6.275 5.5-6.275 2.481 0 4.5 2.019 4.5 4.5 0 1.225-.483 2.37-1.361 3.225l-.513.503c.289.732.937 2.227 2.178 3.468 1.241 1.242 2.735 1.888 3.469 2.178l.503-.513c.854-.878 2-1.361 3.225-1.361 2.481 0 4.5 2.019 4.5 4.5zm-1 0c0-1.93-1.57-3.5-3.5-3.5-.952 0-1.843.376-2.508 1.059l-.738.751c-.171.181-.437.18-.649.072-.617-.239-2.495-.966-4.008-2.479-1.514-1.513-2.24-3.391-2.479-4.008-.108-.212-.111-.477.072-.649l.752-.738c.683-.665 1.059-1.556 1.059-2.508 0-1.93-1.57-3.5-3.5-3.5-1.74 0-4.5 1.432-4.5 5.275 0 1.887 1.941 6.46 5.104 9.622 3.162 3.162 7.735 5.104 9.621 5.104 3.843 0 5.275-2.76 5.275-4.5z"/></svg>