<svg id="Layer_1" viewBox="0 0 24 24" xmlns="http://www.w3.org/2000/svg" data-name="Layer 1"><path d="m7.275 23c-4.328 0-6.275-3.216-6.275-5.5 0-2.481 2.019-4.5 4.5-4.5 1.225 0 2.371.483 3.225 1.362l.503.513c.733-.29 2.227-.937 3.468-2.178s1.888-2.735 2.178-3.468l-.513-.503c-.878-.854-1.362-2-1.362-3.225 0-2.481 2.019-4.5 4.5-4.5 2.284 0 5.5 1.947 5.5 6.275 0 2.333-2.216 7.148-5.396 10.329s-7.996 5.396-10.329 5.396zm-1.775-9c-1.93 0-3.5 1.57-3.5 3.5 0 1.74 1.432 4.5 5.275 4.5 1.887 0 6.459-1.941 9.622-5.104s5.104-7.735 5.104-9.622c0-3.843-2.76-5.275-4.5-5.275-1.93 0-3.5 1.57-3.5 3.5 0 .953.376 1.844 1.059 2.508l.752.738c.182.172.18.437.072.648-.239.617-.966 2.496-2.479 4.008-1.513 1.514-3.391 2.24-4.008 2.479-.211.107-.476.112-.648-.072l-.738-.752c-.665-.683-1.556-1.059-2.508-1.059z"/></svg>