<?xml version="1.0" encoding="UTF-8"?>
<svg xmlns="http://www.w3.org/2000/svg" id="Layer_1" data-name="Layer 1" viewBox="0 0 24 24">
  <path d="M21.143,2.677c-.195-.195-.512-.195-.707,0L10.882,12.23c-.702-.844-1.431-2.006-1.661-2.866l.379-.384c1.129-1.143,1.532-2.81,1.053-4.35-.418-1.344-1.461-2.398-2.789-2.822-1.529-.49-3.179-.08-4.273,1.032-.107,.089-2.623,2.211-1.989,5.628,.633,3.205,2.849,6.525,4.595,8.447l-3.52,3.52c-.195,.195-.195,.512,0,.707,.098,.098,.226,.146,.354,.146s.256-.049,.354-.146L21.143,3.384c.195-.195,.195-.512,0-.707ZM2.584,8.28c-.523-2.821,1.555-4.595,1.68-4.703,.867-.876,2.128-1.19,3.295-.817,1.018,.324,1.817,1.134,2.138,2.166,.37,1.188,.06,2.471-.809,3.351l-.569,.577c-.112,.113-.163,.274-.138,.431,.207,1.273,1.3,2.836,1.991,3.655l-3.267,3.267c-1.775-1.964-3.769-5.134-4.321-7.927Z"/>
  <path d="M22.296,16.089c-.429-1.314-1.495-2.346-2.852-2.76-1.551-.473-3.232-.075-4.386,1.04l-.346,.334c-.31-.147-.842-.417-1.3-.656-.246-.129-.548-.033-.675,.211-.128,.245-.034,.547,.211,.675,1.556,.814,1.712,.839,1.796,.852,.155,.025,.313-.025,.426-.134l.582-.563c.892-.861,2.195-1.167,3.4-.801,1.045,.318,1.865,1.108,2.193,2.113,.375,1.148,.059,2.392-.86,3.282-.018,.022-1.847,2.153-4.726,1.629-1.719-.332-5.105-2.06-6.764-3.269-.224-.162-.536-.113-.699,.11-.163,.223-.113,.536,.11,.699,1.776,1.295,5.292,3.08,7.169,3.443,.384,.069,.751,.101,1.102,.101,2.792,0,4.489-1.969,4.538-2.03,1.161-1.122,1.575-2.76,1.081-4.275Z"/>
</svg>
