<?xml version="1.0" encoding="UTF-8"?>
<svg xmlns="http://www.w3.org/2000/svg" id="Layer_1" data-name="Layer 1" viewBox="0 0 24 24">
  <path d="M20.746,2.847c-1.298-1.268-2.672-1.856-4.16-1.846-1.386,.024-2.893,.578-4.586,1.703-1.693-1.125-3.2-1.679-4.586-1.703-1.485-.007-2.861,.578-4.16,1.847-2.53,2.472-2.659,5.343-.246,9.153-2.414,3.81-2.284,6.681,.246,9.153,1.272,1.242,2.603,1.847,4.067,1.847,.031,0,2.1,.12,4.68-1.703,2.774,1.863,4.648,1.703,4.68,1.703,1.464,0,2.795-.605,4.066-1.847,2.53-2.472,2.659-5.343,.246-9.153,2.414-3.81,2.284-6.681-.246-9.153Zm-4.065-.847c1.205,0,2.277,.498,3.366,1.562,1.633,1.595,2.656,3.649,.333,7.528-.873-1.229-1.991-2.552-3.36-3.986-1.498-1.569-2.868-2.822-4.136-3.774,2.299-1.454,3.772-1.33,3.797-1.33Zm3.115,10c-.836,1.224-1.979,2.614-3.498,4.206-1.568,1.642-2.996,2.929-4.297,3.868-1.301-.939-2.729-2.226-4.296-3.868-1.52-1.592-2.662-2.982-3.499-4.206,.836-1.224,1.979-2.614,3.499-4.206,1.568-1.642,2.995-2.929,4.296-3.868,1.301,.939,2.729,2.226,4.297,3.868,1.52,1.592,2.662,2.982,3.498,4.206ZM3.953,3.562c1.782-1.76,3.418-1.562,3.443-1.562,1.097,.019,2.331,.459,3.72,1.329-1.268,.952-2.638,2.205-4.136,3.774-1.369,1.434-2.487,2.757-3.36,3.986-2.324-3.879-1.292-5.923,.332-7.527Zm3.443,18.437c-1.262,.013-2.331-.475-3.443-1.562-1.633-1.595-2.656-3.648-.332-7.528,.873,1.229,1.991,2.552,3.359,3.986,1.498,1.569,2.869,2.822,4.136,3.774-1.389,.871-2.623,1.31-3.72,1.329Zm12.651-1.562c-1.112,1.087-2.209,1.589-3.443,1.562-1.097-.019-2.331-.459-3.72-1.329,1.268-.952,2.638-2.205,4.136-3.774,1.369-1.434,2.487-2.757,3.36-3.986,2.324,3.879,1.301,5.933-.333,7.528Z"/>
  <circle cx="12" cy="12.058" r=".745"/>
</svg>
