<svg id="Layer_1" viewBox="0 0 24 24" xmlns="http://www.w3.org/2000/svg" data-name="Layer 1"><path d="m23 19.5c0 2.4-1.062 3.482-3.44 3.5-.02.002-.04.003-.06.003-1.17 0-2.116-.374-2.735-1.082-.704-.804-.959-1.966-.761-3.455.074-.551.168-1.145.269-1.771.204-1.277.435-2.725.543-4.209.115-1.583.177-3.262.184-4.989.006-1.519-.073-4.199-.103-5.162-4.099-.329-7.99-.336-8.047-.336-.337 0-.656.011-.965.029.047.845.123 2.557.115 4.723-.007 1.838-.073 3.624-.196 5.309-.408 5.606-1.379 10.489-1.389 10.538-.053.273-.324.447-.588.392-.271-.054-.446-.318-.392-.588.01-.048.969-4.874 1.373-10.414.121-1.662.186-3.425.193-5.24.008-2.102-.064-3.77-.11-4.618-3.405.481-4.816 2.391-4.89 6.38-.005.273-.228.491-.5.491h-.009c-.276-.005-.496-.233-.491-.509.097-5.252 2.444-7.492 7.849-7.492.345 0 8.51.012 13.748 1.06.271.054.446.317.392.588s-.319.446-.588.392c-1.35-.27-2.92-.468-4.502-.616.033 1.051.106 3.6.1 5.078-.007 1.75-.069 3.452-.187 5.058-.111 1.527-.346 2.998-.553 4.295-.099.617-.192 1.202-.265 1.746-.157 1.173.024 2.094.522 2.663.421.481 1.069.729 1.927.74 1.877.01 2.567-.605 2.556-2.503 0-.276.224-.5.5-.5s.5.224.5.5z"/></svg>