<svg id="Layer_1" viewBox="0 0 24 24" xmlns="http://www.w3.org/2000/svg" data-name="Layer 1"><path d="m22.204 4.224c-.045-.18-.186-.32-.365-.364-.143-.035-3.551-.859-9.839-.859s-9.697.823-9.839.858c-.18.044-.32.185-.365.364-.033.13-.796 3.233-.796 7.776s.763 7.646.796 7.776c.045.18.185.32.365.364.142.035 3.551.859 9.839.859s9.696-.824 9.839-.859c.18-.044.32-.185.365-.364.032-.13.796-3.233.796-7.776s-.764-7.646-.796-7.776zm-19.505.542c.955-.196 4.179-.766 9.301-.766s8.346.569 9.301.766c.188.876.699 3.604.699 7.234 0 .634-.02 1.23-.047 1.804-1.125-.228-4.514-.804-9.953-.804s-8.828.577-9.953.804c-.027-.575-.047-1.17-.047-1.804 0-3.623.512-6.356.699-7.234zm18.602 14.469c-.955.196-4.179.766-9.301.766s-8.346-.569-9.301-.766c-.134-.631-.434-2.231-.594-4.42.461-.096 1.614-.31 3.395-.496v2.182c0 .276.224.5.5.5s.5-.224.5-.5v-2.276c.882-.075 1.882-.139 3-.179v2.455c0 .276.224.5.5.5s.5-.224.5-.5v-2.483c.484-.01.979-.017 1.5-.017s1.016.007 1.5.017v2.483c0 .276.224.5.5.5s.5-.224.5-.5v-2.455c1.118.04 2.118.103 3 .179v2.276c0 .276.224.5.5.5s.5-.224.5-.5v-2.182c1.781.186 2.933.4 3.395.496-.159 2.19-.459 3.79-.594 4.42z"/></svg>