<svg id="Layer_1" viewBox="0 0 24 24" xmlns="http://www.w3.org/2000/svg" data-name="Layer 1"><path d="m18.397 8.404c-1.097-.218-1.683-.77-1.841-1.735-.652-3.974-2.956-5.669-7.706-5.669-5.502 0-7.85 2.348-7.85 7.85v2.101c0 7.322.761 10.688.793 10.828.043.184.186.328.369.372.142.035 3.55.85 9.838.85s9.696-.814 9.838-.85c.18-.044.321-.184.366-.362.032-.129.796-3.197.796-7.688 0-3.439-1.291-5.036-4.603-5.695zm-16.397.445c0-4.993 1.856-6.85 6.85-6.85 4.265 0 6.148 1.354 6.719 4.831.157.958.742 2.179 2.633 2.554 2.875.572 3.798 1.718 3.798 4.715 0 .598-.018 1.161-.043 1.706-1.121-.227-4.512-.805-9.957-.805-5.316 0-8.672.551-9.873.788-.076-1.361-.127-2.971-.127-4.838zm19.302 12.394c-.956.193-4.18.757-9.302.757s-8.326-.56-9.293-.755c-.11-.594-.346-2.062-.515-4.449.509-.103 1.629-.303 3.308-.478v2.182c0 .276.224.5.5.5s.5-.224.5-.5v-2.276c.882-.075 1.882-.139 3-.179v2.455c0 .276.224.5.5.5s.5-.224.5-.5v-2.483c.484-.01.979-.017 1.5-.017s1.016.007 1.5.017v2.483c0 .276.224.5.5.5s.5-.224.5-.5v-2.455c1.118.04 2.118.104 3 .179v2.276c0 .276.224.5.5.5s.5-.224.5-.5v-2.182c1.787.186 2.942.402 3.4.497-.158 2.194-.462 3.797-.598 4.428z"/></svg>