<?xml version="1.0" encoding="UTF-8"?>
<svg xmlns="http://www.w3.org/2000/svg" id="Layer_1" data-name="Layer 1" viewBox="0 0 24 24">
  <path d="M22.688,9.565c-.08-.033-1.063-.426-2.809-.821-.102-4.284-3.598-7.738-7.879-7.738s-7.777,3.454-7.879,7.738c-1.747,.395-2.729,.789-2.81,.822-.194,.079-.318,.271-.311,.479,.036,1.076,.452,10.555,3.947,11.967,1.794,.725,4.819,.982,7.052,.982s5.258-.258,7.053-.982c3.495-1.412,3.911-10.891,3.947-11.967,.007-.209-.117-.4-.312-.479ZM12,2.006c3.661,0,6.662,2.893,6.87,6.528-1.758-.335-4.079-.622-6.87-.622s-5.112,.287-6.87,.622c.208-3.635,3.21-6.528,6.87-6.528Zm6.674,7.516c-1.153,2.09-3.354,3.477-4.065,3.887-.774-.446-3.312-2.049-4.345-4.457,.556-.025,1.135-.039,1.736-.039,2.701,0,4.963,.283,6.674,.609Zm.004,11.562c-1.663,.672-4.637,.91-6.678,.91s-5.015-.238-6.678-.91c-2.353-.95-3.164-7.736-3.308-10.712,.866-.299,3.416-1.078,7.198-1.358,1.248,3.381,5.009,5.329,5.17,5.411,.071,.036,.148,.055,.227,.055s.155-.019,.227-.055c.142-.072,3.386-1.75,4.856-4.691,1.106,.251,1.886,.498,2.294,.638-.144,2.976-.954,9.762-3.308,10.712Z"/>
</svg>
