<svg id="Layer_1" viewBox="0 0 24 24" xmlns="http://www.w3.org/2000/svg" data-name="Layer 1"><path d="m15.975 9.987c0 2.767-1.233 4-4 4s-4-1.233-4-4 1.233-4 4-4 4 1.233 4 4zm7.025 2.013c0 4.235-1.021 8.39-1.064 8.565-.041.166-.164.299-.326.354-.132.044-3.301 1.082-9.609 1.082s-9.478-1.038-9.609-1.082c-.162-.054-.285-.188-.326-.354-.043-.175-1.064-4.33-1.064-8.565s1.019-8.39 1.062-8.565c.041-.166.164-.299.326-.354.132-.044 3.301-1.082 9.609-1.082s9.478 1.038 9.609 1.082c.162.054.285.188.326.354.043.175 1.064 4.33 1.064 8.565zm-1 0c0-3.5-.743-7.047-.971-8.047-.87-.239-3.903-.953-9.029-.953s-8.159.714-9.029.953c-.228 1-.971 4.547-.971 8.047s.743 7.047.971 8.047c.351.096 1.071.27 2.121.443.524-2.712 2.324-4.056 3.738-4.258 2.071-.324 4.215-.324 6.288 0 1.413.201 3.223 1.554 3.74 4.266 1.077-.176 1.815-.353 2.172-.45.228-1 .971-4.547.971-8.047z"/></svg>