<?xml version="1.0" encoding="UTF-8"?>
<svg xmlns="http://www.w3.org/2000/svg" id="Layer_1" data-name="Layer 1" viewBox="0 0 24 24">
  <path d="M16.155,5.61c-1.771,0-2.633,.863-2.633,2.638s.861,2.639,2.633,2.639,2.634-.863,2.634-2.639-.861-2.638-2.634-2.638Zm0,4.277c-1.059,0-1.633-.261-1.633-1.639s.574-1.638,1.633-1.638,1.634,.261,1.634,1.638-.574,1.639-1.634,1.639Z"/>
  <path d="M21.769,2.92c-.052-.162-.182-.287-.346-.331-.178-.048-4.41-1.178-9.423-1.178S2.756,2.541,2.578,2.589c-.165,.044-.295,.17-.347,.333-.05,.16-1.231,3.973-1.231,9.078,0,5.148,1.181,8.921,1.231,9.079,.052,.162,.182,.287,.346,.331,.178,.048,4.41,1.179,9.423,1.179s9.244-1.13,9.423-1.179c.164-.044,.295-.17,.346-.332,.051-.16,1.231-3.973,1.231-9.078,0-5.149-1.182-8.922-1.231-9.08ZM3.107,20.513c-.123-.439-.375-1.407-.607-2.748,2.549-3.664,5.875-5.461,6.623-5.834,.806,.228,4.485,1.415,8.193,5.042,1.333,1.304,2.413,2.663,3.15,3.64-1.403,.318-4.758,.976-8.466,.976-4.173,0-7.884-.83-8.893-1.076Zm17.975-.741c-.749-.98-1.794-2.268-3.067-3.514-4.391-4.293-8.652-5.304-8.831-5.345-.104-.023-.215-.013-.314,.03-.158,.07-3.645,1.65-6.582,5.423-.166-1.27-.289-2.753-.289-4.366,0-4.198,.846-7.569,1.108-8.514,1.011-.246,4.724-1.075,8.892-1.075s7.884,.83,8.893,1.075c.263,.937,1.107,4.275,1.107,8.514,0,3.438-.567,6.322-.917,7.772Z"/>
</svg>
