<?xml version="1.0" encoding="UTF-8"?>
<svg xmlns="http://www.w3.org/2000/svg" id="Layer_1" data-name="Layer 1" viewBox="0 0 24 24">
  <path d="M12,3.303c.276,0,.5-.224,.5-.5V1.5c0-.276-.224-.5-.5-.5s-.5,.224-.5,.5v1.303c0,.276,.224,.5,.5,.5Z"/>
  <path d="M16.531,3.954c.276,0,.5-.224,.5-.5v-1.303c0-.276-.224-.5-.5-.5s-.5,.224-.5,.5v1.303c0,.276,.224,.5,.5,.5Z"/>
  <path d="M7.469,3.954c.276,0,.5-.224,.5-.5v-1.303c0-.276-.224-.5-.5-.5s-.5,.224-.5,.5v1.303c0,.276,.224,.5,.5,.5Z"/>
  <path d="M22.265,12.551c0-3.252-4.483-7.032-10.265-7.032S1.735,9.299,1.735,12.551c0,1.087,.49,1.733,1.076,2.123,.035,7.461,5.257,8.326,9.189,8.326,4.264,0,9.156-.949,9.189-8.326,.586-.39,1.076-1.035,1.076-2.122Zm-10.265,9.449c-5.542,0-8.016-2.065-8.18-6.878,.116,.033,.228,.06,.33,.082,.161,1.656,1.56,2.956,3.257,2.956,.626,0,1.226-.175,1.744-.503,.57,1.014,1.645,1.658,2.848,1.658s2.278-.644,2.849-1.658c.518,.328,1.118,.503,1.744,.503,1.696,0,3.096-1.299,3.256-2.955,.103-.022,.215-.049,.332-.082-.157,4.876-2.562,6.878-8.181,6.878Zm7.281-7.708c-.241,.04-.417,.349-.417,.594,0,1.253-1.019,2.273-2.271,2.273-.601,0-1.166-.232-1.594-.653-.124-.123-.306-.171-.473-.129-.169,.042-.304,.17-.355,.337-.296,.957-1.168,1.6-2.171,1.6s-1.875-.643-2.171-1.6c-.052-.167-.187-.294-.355-.337-.041-.01-.082-.015-.122-.015-.129,0-.256,.05-.351,.144-.428,.421-.994,.653-1.593,.653-1.253,0-2.272-1.02-2.27-2.351,.011-.253-.169-.476-.418-.516-1.744-.286-1.984-1.006-1.984-1.741,0-2.732,4.133-6.032,9.265-6.032s9.265,3.3,9.265,6.032c0,.735-.24,1.454-1.983,1.741Z"/>
  <path d="M9.989,10.4c-.168-.016-1.677-.15-2.45,.623-.405,.405-.49,.819-.489,1.095,0,.584,.356,1.001,.508,1.153,.119,.119,.444,.404,.906,.486,.077,.014,.163,.023,.256,.023,.316,0,.708-.106,1.092-.49,.778-.777,.641-2.278,.623-2.446-.025-.235-.211-.42-.445-.444Zm-.885,2.184c-.208,.209-.366,.209-.464,.189-.149-.027-.292-.125-.376-.209-.099-.099-.215-.275-.215-.447,0-.127,.064-.254,.196-.387,.257-.256,.796-.333,1.207-.346-.014,.422-.1,.951-.348,1.2Z"/>
  <path d="M13.963,10.4c-.234,.024-.42,.209-.445,.444-.019,.168-.154,1.669,.623,2.446,.347,.347,.728,.487,1.093,.487,.442,0,.86-.207,1.161-.506,.118-.119,.403-.443,.485-.902,.062-.34,.03-.85-.467-1.346-.771-.772-2.279-.641-2.45-.623Zm1.933,1.792c-.026,.147-.125,.289-.207,.372-.196,.195-.501,.359-.841,.02-.258-.258-.335-.792-.348-1.2,.41,.013,.95,.09,1.206,.346,.207,.208,.208,.363,.189,.462Z"/>
</svg>
