<svg id="Layer_1" viewBox="0 0 24 24" xmlns="http://www.w3.org/2000/svg" data-name="Layer 1"><path d="m11.997 11.708c.031.274-.166.522-.44.553-1.393.159-2.757.239-4.057.239-2.418 0-4.515-.277-5.5-.432.003 2.712.148 4.45.15 4.468.241 4.14 1.541 5.465 5.35 5.465 1.175 0 2.097-.137 2.818-.418.258-.101.547.027.647.284s-.027.547-.284.647c-.84.327-1.88.486-3.182.486-4.355 0-6.076-1.732-6.347-6.393-.005-.059-.153-1.807-.153-4.607s.148-4.548.154-4.621c.271-4.647 1.992-6.379 6.347-6.379s6.075 1.732 6.347 6.393c.003.034.101 1.178.139 3.097.005.276-.214.504-.49.51-.275-.025-.504-.214-.51-.49-.037-1.882-.135-3.034-.136-3.045-.241-4.14-1.541-5.465-5.35-5.465s-5.108 1.325-5.349 5.451c-.002.028-.117 1.4-.145 3.604.871.141 3.034.445 5.494.445 1.262 0 2.588-.078 3.943-.232.278-.041.522.166.553.44zm11.003 5.792c0 3.855-1.645 5.5-5.5 5.5s-5.5-1.645-5.5-5.5 1.645-5.5 5.5-5.5 5.5 1.645 5.5 5.5zm-9.283 3.076 6.859-6.859c-.712-.487-1.705-.717-3.076-.717-3.28 0-4.5 1.22-4.5 4.5 0 1.371.23 2.364.717 3.076zm8.283-3.076c0-1.371-.23-2.364-.717-3.076l-6.859 6.859c.712.487 1.705.717 3.076.717 3.28 0 4.5-1.22 4.5-4.5z"/></svg>