<svg id="Layer_1" viewBox="0 0 24 24" xmlns="http://www.w3.org/2000/svg" data-name="Layer 1"><path d="m22.872 13.766c-1.698-1.894-3.721-3.593-6.014-5.053.051-1.284.101-2.645.142-4.048.004-.128-.042-.253-.128-.349-2.077-2.317-4.596-3.248-4.702-3.286-.11-.04-.23-.04-.341 0-.106.039-2.625.969-4.702 3.286-.086.096-.131.221-.128.349.042 1.404.09 2.764.142 4.048-2.295 1.461-4.317 3.16-6.014 5.053-.086.096-.131.22-.128.349.114 3.873.493 7.539.497 7.576.023.225.194.406.417.442.054.009 5.418.868 10.086.868s10.032-.859 10.086-.868c.223-.036.394-.217.417-.442.004-.037.384-3.703.497-7.576.004-.128-.042-.253-.128-.349zm-20.418 7.437c-.097-1.012-.352-3.882-.448-6.917.912-1.001 1.928-1.939 3.022-2.82.139 4.644.283 8.729.332 10.111-1.321-.147-2.375-.296-2.907-.375zm11.546.748c-.669.03-1.342.048-2 .048s-1.331-.018-2-.048v-3.959c0-1.508.486-1.992 2-1.992s2 .484 2 1.992zm3.635-.268c-.825.082-1.718.158-2.635.215v-3.907c0-2.069-.925-2.992-3-2.992s-3 .923-3 2.992v3.907c-.917-.057-1.81-.133-2.636-.215-.046-1.273-.207-5.853-.358-10.971.616-.453 1.248-.893 1.911-1.307.153-.095.242-.265.235-.445-.053-1.303-.104-2.689-.147-4.124 1.58-1.696 3.431-2.561 3.994-2.799.563.238 2.415 1.103 3.994 2.799-.043 1.434-.094 2.82-.147 4.123-.007.18.083.35.235.445.663.414 1.296.854 1.911 1.307-.151 5.118-.312 9.698-.358 10.971zm3.911-.481c-.531.079-1.585.227-2.906.375.049-1.382.192-5.467.332-10.111 1.094.88 2.11 1.818 3.022 2.82-.097 3.035-.352 5.905-.448 6.917zm-8.796-9.202c0 .414-.336.75-.75.75s-.75-.336-.75-.75.336-.75.75-.75.75.336.75.75z"/></svg>