<svg id="Layer_1" viewBox="0 0 24 24" xmlns="http://www.w3.org/2000/svg" data-name="Layer 1"><path d="m5.407 8.762c.728.203 1.533.241 2.093.239v1.499c0 .276.224.5.5.5s.5-.224.5-.5v-1.5c.572.003 1.373-.033 2.11-.239 2.36-.666 3.572-1.971 4.185-4.506.349-1.445.266-2.319-.27-2.835-.666-.643-1.803-.416-2.6-.191-2.054.579-3.238 1.645-3.914 3.583-.678-1.938-1.864-3.004-3.923-3.583-.801-.225-1.94-.45-2.605.192-.536.517-.619 1.391-.269 2.834.613 2.535 1.828 3.841 4.193 4.506zm6.789-6.57c1.136-.32 1.513-.17 1.635-.052.135.131.313.548-.009 1.881-.521 2.158-1.499 3.218-3.484 3.777-.61.172-1.335.21-1.816.201-.025-.646.031-1.342.19-2.03.522-2.158 1.499-3.218 3.484-3.777zm-10.02-.051c.405-.272.952-.118 1.641.051 1.991.56 2.97 1.619 3.493 3.778.163.684.204 1.364.19 2.029-.472.002-1.207-.028-1.822-.201-1.991-.56-2.97-1.619-3.493-3.778-.322-1.331-.144-1.749-.009-1.879zm20.788 10.029c-.115-.686-.49-1.284-1.056-1.687-1.167-.831-2.794-.559-3.626.609-1.367 1.919-2.723 3.54-4.257 4.731.037-1.135-.743-2.337-1.833-2.479-.087-.011-2.158-.346-4.692-.346-3.093 0-5.491.564-5.591.589-.182.043-.324.185-.369.365-.022.088-.54 2.184-.54 4.321 0 2.154.527 3.787.55 3.855.056.171.2.299.377.334.109.021 2.71.535 5.873.535 5.563 0 10.515-2.991 14.718-8.892.403-.565.562-1.254.446-1.938zm-1.261 1.358c-4.004 5.621-8.682 8.472-13.903 8.472-2.458 0-4.615-.33-5.38-.462-.142-.531-.419-1.767-.419-3.263 0-1.557.302-3.135.441-3.778.729-.147 2.705-.497 5.059-.497 2.45 0 4.475.298 4.468.317.624.188 1.059.774 1.059 1.426 0 .566-.386.955-.713 1.183-1.149.594-2.413.966-3.852 1.075-.275.021-.481.262-.46.537s.258.477.537.461c4.714-.298 7.995-3.652 10.559-7.326.486-.712 1.541-.889 2.232-.375.711.484.887 1.541.375 2.23z"/></svg>