<?xml version="1.0" encoding="UTF-8"?>
<svg xmlns="http://www.w3.org/2000/svg" id="Layer_1" data-name="Layer 1" viewBox="0 0 24 24">
  <path d="M20.543,9.234c-.777-.091-1.74-.189-2.829-.271-1.6-2.131-4.775-5.588-8.532-5.588-.321,0-.591,.148-.739,.408-.185,.324-.559,.98,1.779,5.066-1.106,.053-2.238,.135-3.389,.248l-.319-.473c-.662-.979-1.71-1.631-2.878-1.789l-2.068-.281c-.169-.023-.337,.041-.447,.17s-.148,.306-.099,.469l2.092,6.991c.055,.185,.212,.321,.402,.351,.031,.005,2.927,.449,6.704,.619-2.334,4.084-1.947,4.763-1.777,5.062,.148,.26,.417,.409,.739,.409,3.739,0,6.895-3.409,8.524-5.577,1.081-.076,2.038-.168,2.812-.252,1.415-.155,2.482-1.351,2.482-2.782,0-1.421-1.056-2.615-2.457-2.779ZM9.314,4.377c2.957,.078,5.626,2.751,7.06,4.499-1.044-.058-2.167-.095-3.328-.095-.556,0-1.121,.009-1.694,.026-1.782-3.048-2.018-4.113-2.037-4.429Zm11.094,9.425c-.816,.089-1.841,.187-3,.265-.146,.01-.281,.084-.368,.203-1.17,1.589-4.243,5.26-7.726,5.354,.02-.325,.268-1.44,2.186-4.682,.09-.152,.093-.341,.008-.495-.085-.155-.246-.254-.422-.26-3.382-.109-6.195-.468-7.106-.595l-1.778-5.942,1.299,.177c.886,.121,1.682,.616,2.185,1.359l.486,.72c.103,.151,.276,.234,.465,.217,2.223-.227,4.379-.342,6.409-.342,2.938,0,5.636,.243,7.382,.448,.896,.104,1.572,.872,1.572,1.785,0,.92-.685,1.688-1.592,1.788Z"/>
</svg>
