<svg id="Layer_1" viewBox="0 0 24 24" xmlns="http://www.w3.org/2000/svg" data-name="Layer 1"><path d="m22.989 20.842c-.058-.27-.323-.442-.595-.383-.048.01-4.87 1.041-10.394 1.041s-10.346-1.031-10.394-1.041c-.27-.06-.537.112-.595.382-.059.271.113.536.383.595.049.011 4.963 1.064 10.606 1.064s10.557-1.054 10.606-1.064c.27-.058.441-.324.383-.594z"/><path d="m1.188 13.391 5 4c.091.072.202.109.312.109.095 0 .189-.026.272-.081.045-.029 4.515-2.942 8.441-6.025 2.501-1.964 5.159-4.31 5.773-4.933 1.061-1.076 1.267-2.658.501-3.847-.355-.552-.896-.929-1.522-1.062-.682-.142-1.401.005-2.027.417-.832.548-1.629 1.095-2.398 1.643-2.427-.675-6.791-1.369-9.775 1.107-.26.216-.378.507-.332.819.052.348.169 1.142 4.143 2.887-1.145 1.037-2.079 1.944-2.63 2.489l-.477-.162c-1.067-.364-2.265-.202-3.306.46l-1.954 1.379c-.128.091-.207.236-.212.394-.004.156.065.307.188.405zm5.268-7.943c2.389-1.936 5.951-1.539 8.035-1.069-.915.68-1.791 1.368-2.638 2.07-.502.417-.989.835-1.452 1.243-3.162-1.349-3.814-2.044-3.945-2.244zm-2.734 6.595c.764-.483 1.648-.608 2.428-.343l.771.262c.18.06.38.016.514-.12.749-.75 2.741-2.701 5.057-4.623 1.823-1.513 3.785-2.956 5.998-4.413.402-.265.856-.363 1.27-.274.368.078.675.294.888.624.51.792.356 1.863-.373 2.604-.583.591-3.247 2.938-5.678 4.847-3.306 2.596-7.003 5.072-8.068 5.776l-4.197-3.358 1.39-.981z"/></svg>