<svg id="Layer_1" viewBox="0 0 24 24" xmlns="http://www.w3.org/2000/svg" data-name="Layer 1"><path d="m16.396 15.689c3.221-.224 6.618-1.286 6.604-3.686.013-2.067-2.2-3.369-6.403-3.771-1.821-2.275-4.567-5.188-7.804-5.232-.493 0-.927.249-1.162.665-.299.53-.46 1.711-.034 3.225l-5.743-5.744c-.195-.195-.512-.195-.707 0s-.195.512 0 .707l20.999 21.001c.195.195.512.195.707 0s.195-.512 0-.707l-6.457-6.457zm-6.877-6.892c-1.081-1.55-1.425-4.352-1.018-4.641.059-.104.156-.156.284-.156 3.219.044 6.186 3.79 7.162 5.021.085.107.211.176.349.188 1.719.149 5.717.72 5.704 2.794.028 1.721-3.368 2.634-6.541 2.749-.007-.022-5.953-5.924-5.939-5.955zm4.845 8.756c.189.201.18.518-.021.707-1.906 1.794-3.771 2.716-5.543 2.74-.5 0-.934-.249-1.169-.666-.538-.951.267-3.178 1.2-4.944-.734-.084-1.529-.189-2.137-.286-1.188 1.009-3.155 1.852-4.389 1.584-.595-.126-1.044-.506-1.227-1.042-.079-.225-.323-.914.911-3.646-1.234-2.731-.99-3.421-.909-3.651.18-.53.629-.91 1.23-1.037 1.074-.24 2.462.434 3.01.736.242.133.33.437.197.679-.133.241-.438.331-.679.197-.904-.498-1.809-.751-2.314-.635-.264.056-.43.186-.498.388-.077.218.042 1.11.967 3.111.062.133.06.29 0 .424-.924 2.001-1.044 2.894-.969 3.105.071.208.236.338.495.393.775.175 2.549-.447 3.681-1.504.115-.107.271-.155.425-.128.802.136 2.081.302 3.042.394.166.017.313.114.392.261s.08.323.002.471c-1.096 1.689-1.878 4.71-1.558 4.64.059.104.157.157.292.157 1.507-.021 3.146-.852 4.865-2.469.201-.189.517-.18.707.021z"/></svg>