<svg id="Layer_1" viewBox="0 0 24 24" xmlns="http://www.w3.org/2000/svg" data-name="Layer 1"><path d="m22.99 20.421c-.055-.271-.315-.446-.589-.392-.049.01-4.878.971-10.401.971s-10.353-.961-10.401-.971c-.275-.056-.534.121-.589.392s.12.534.391.589c.05.01 4.961.99 10.6.99s10.55-.98 10.599-.99c.271-.055.446-.318.392-.589z"/><path d="m2.278 9.448c.06.029 5.945 2.93 9.224 4.137 2.73 1.006 6.166 2.253 7.029 2.478.28.072.556.107.822.107 1.122 0 2.076-.623 2.456-1.677.449-1.249-.204-2.681-1.521-3.329-.899-.444-1.778-.858-2.642-1.246-.881-2.414-2.863-6.537-6.442-7.854-.315-.118-.631-.068-.859.137-.268.237-.807.72.151 4.986-1.411-.451-2.598-.787-3.304-.979l-.165-.534c-.335-1.083-1.135-2.016-2.197-2.561l-2.106-1.06c-.153-.079-.34-.069-.487.021-.147.091-.237.252-.237.426v6.5c0 .19.108.364.278.448zm8.711-6.397c2.767 1.096 4.5 4.265 5.36 6.3-.991-.421-1.967-.808-2.94-1.166-.614-.226-1.219-.438-1.801-.634-.744-3.129-.686-4.181-.619-4.5zm-7.989.261 1.378.692c.821.422 1.439 1.139 1.695 1.965l.246.798c.051.164.183.291.349.336.993.265 3.604.991 6.396 2.02 2.198.81 4.417 1.771 6.783 2.938.859.424 1.298 1.324 1.021 2.094-.337.936-1.289 1.148-2.085.939-.643-.167-3.105-1.036-6.936-2.446-2.823-1.04-7.644-3.371-8.848-3.959v-5.378z"/></svg>