<svg id="Layer_1" viewBox="0 0 24 24" xmlns="http://www.w3.org/2000/svg" data-name="Layer 1"><path d="m22.401 9.604c-.727-.71-1.976-.79-3.931-.255-3.528.965-5.411 2.841-6.413 6.369-1.003-3.528-2.885-5.404-6.412-6.369-1.958-.535-3.207-.453-3.932.256-.747.73-.851 2.053-.325 4.162.962 3.868 2.863 5.858 6.562 6.87 1.271.335 2.518.373 3.55.36v1.495c-.004.276.216.503.492.508h.008c.272 0 .496-.219.5-.492v-1.512c1.089.017 2.344-.013 3.665-.359 3.698-1.012 5.6-3.002 6.562-6.87.525-2.11.422-3.432-.325-4.163zm-14.188 10.068c-3.34-.914-4.981-2.637-5.854-6.146-.419-1.683-.401-2.762.054-3.206.218-.213.578-.319 1.078-.319.495 0 1.126.104 1.891.313 3.339.914 4.98 2.637 5.854 6.146.281 1.135.261 2.477.235 3.535-.743.016-2.098-.006-3.257-.323zm13.542-6.146c-.873 3.51-2.515 5.233-5.854 6.146-1.159.317-2.629.34-3.372.323-.066-1.069.031-2.398.35-3.535.874-3.51 2.516-5.233 5.855-6.146 1.538-.42 2.534-.417 2.968.006.455.444.473 1.523.054 3.206zm-13.555-8.126c-.221-.166-.266-.479-.101-.7 1.023-1.364 2.234-2.576 3.601-3.6.178-.134.422-.134.6 0 1.366 1.024 2.577 2.236 3.601 3.6.165.221.12.534-.101.7-.219.165-.533.123-.7-.1-.756-1.008-1.641-1.905-2.6-2.721v6.921c0 .276-.224.5-.5.5s-.5-.224-.5-.5v-6.921c-.958.816-1.844 1.713-2.6 2.721-.166.222-.479.266-.7.1z"/></svg>