<svg id="Layer_1" viewBox="0 0 24 24" xmlns="http://www.w3.org/2000/svg" data-name="Layer 1"><path d="m18.793 12.628c1.558-4.736 2.196-9.515 2.202-9.563.019-.143-.025-.287-.12-.395s-.232-.17-.376-.17h-2.515c-1.264 0-2.458.628-3.192 1.681-3.076 4.413-4.888 5.916-5.229 6.18-1.864-.228-3.892-.361-6.064-.361h-1.999c-.276 0-.5.224-.5.5s.224.5.5.5h2c11.591 0 18.223 3.802 18.503 4.674-.271.955-6.85 4.826-18.403 4.826-.368 0-1.915 0-2.074-.003-.284-.023-.526.214-.526.5q0 .503 2.6.503c11.871 0 19.4-4.074 19.4-5.794 0-.753-1.496-1.965-4.207-3.078zm-3.18-7.875c.547-.785 1.434-1.253 2.372-1.253h1.936c-.214 1.38-.854 5.081-2.062 8.767-1.878-.685-4.229-1.307-6.98-1.726.885-.836 2.48-2.554 4.734-5.788z"/><path d="m12 16.5c.276 0 .5-.224.5-.5s-.224-.5-.5-.5h-3.5c-.276 0-.5.224-.5.5s.224.5.5.5z"/></svg>