<svg id="Layer_1" viewBox="0 0 24 24" xmlns="http://www.w3.org/2000/svg" data-name="Layer 1"><path d="m4.011 18.032c.023-.703.103-2.065.377-3.085 6.346-.937 14.529-.947 14.612-.947.238 0 .443-.168.49-.402.021-.104.51-2.594.51-6.598v-4.418c.77.67 1.486 1.399 2.1 2.218.166.222.481.265.7.101.221-.166.266-.479.1-.7-.882-1.177-1.925-2.22-3.1-3.101-.178-.133-.422-.133-.6 0-1.175.881-2.218 1.924-3.1 3.101-.166.221-.121.534.1.7s.534.12.7-.101c.614-.819 1.331-1.548 2.1-2.218v4.418c0 2.993-.287 5.152-.421 6.003-1.802.016-9.015.135-14.655 1.003-.185.028-.339.158-.398.336-.391 1.173-.491 2.873-.517 3.689-1.363.148-2.009.939-2.009 2.469 0 1.706.794 2.5 2.5 2.5s2.5-.794 2.5-2.5c0-1.524-.639-2.315-1.989-2.468zm-.511 3.968c-1.149 0-1.5-.351-1.5-1.5s.351-1.5 1.5-1.5 1.5.351 1.5 1.5-.351 1.5-1.5 1.5zm19.354.146c.195.195.195.512 0 .707s-.512.195-.707 0l-1.646-1.646-1.646 1.646c-.195.195-.512.195-.707 0s-.195-.512 0-.707l1.646-1.646-1.646-1.646c-.195-.195-.195-.512 0-.707s.512-.195.707 0l1.646 1.646 1.646-1.646c.195-.195.512-.195.707 0s.195.512 0 .707l-1.646 1.646zm-21.708-17 1.646-1.646-1.646-1.646c-.195-.195-.195-.512 0-.707s.512-.195.707 0l1.646 1.646 1.646-1.646c.195-.195.512-.195.707 0s.195.512 0 .707l-1.646 1.646 1.646 1.646c.195.195.195.512 0 .707s-.512.195-.707 0l-1.646-1.646-1.646 1.646c-.195.195-.512.195-.707 0s-.195-.512 0-.707zm8 4 1.646-1.646-1.646-1.646c-.195-.195-.195-.512 0-.707s.512-.195.707 0l1.646 1.646 1.646-1.646c.195-.195.512-.195.707 0s.195.512 0 .707l-1.646 1.646 1.646 1.646c.195.195.195.512 0 .707s-.512.195-.707 0l-1.646-1.646-1.646 1.646c-.195.195-.512.195-.707 0s-.195-.512 0-.707z"/></svg>