<?xml version="1.0" encoding="UTF-8"?>
<svg xmlns="http://www.w3.org/2000/svg" id="Layer_1" data-name="Layer 1" viewBox="0 0 24 24">
  <path d="M20.451,10.358c-1.272-1.49-3.532-3.733-7.069-5.959-2.905-1.83-5.488-2.8-7.143-3.292-.784-.231-1.61-.085-2.267,.404-.655,.489-1.031,1.237-1.031,2.052V20.437c0,.815,.376,1.562,1.031,2.052,.452,.337,.984,.512,1.528,.512,.246,0,.494-.036,.738-.108,1.654-.492,4.237-1.461,7.143-3.291,3.537-2.227,5.797-4.47,7.07-5.96,.811-.951,.811-2.332,0-3.284Zm-.76,2.635c-1.229,1.437-3.412,3.603-6.843,5.763-2.809,1.769-5.3,2.705-6.895,3.178-.477,.143-.982,.053-1.383-.247-.4-.299-.63-.754-.63-1.25V3.563c0-.496,.229-.952,.63-1.25,.275-.206,.601-.312,.933-.312,.15,0,.302,.021,.45,.066,1.595,.473,4.086,1.409,6.895,3.179,3.431,2.159,5.614,4.326,6.842,5.762,.491,.576,.491,1.411,0,1.986Z"/>
</svg>
