<svg id="Layer_1" viewBox="0 0 24 24" xmlns="http://www.w3.org/2000/svg" data-name="Layer 1"><path d="m17.5 12c-3.855 0-5.5 1.645-5.5 5.5s1.645 5.5 5.5 5.5 5.5-1.645 5.5-5.5-1.645-5.5-5.5-5.5zm0 10c-3.28 0-4.5-1.22-4.5-4.5s1.22-4.5 4.5-4.5 4.5 1.22 4.5 4.5-1.22 4.5-4.5 4.5zm-.5-5.5v-2c0-.276.224-.5.5-.5s.5.224.5.5v2c0 .276-.224.5-.5.5s-.5-.224-.5-.5zm1.5 3c0 .552-.448 1-1 1s-1-.448-1-1 .448-1 1-1 1 .448 1 1zm-8.501-4.072c.021.275-.186.515-.461.536-.174.013-.353.022-.537.028v6.508c0 .276-.224.5-.5.5s-.5-.224-.5-.5v-6.509c-4.198-.141-6-2.112-6-6.51 0-.23.009-1.334.026-2.023-.15.022-.3.044-.449.068-.271.044-.529-.145-.571-.417s.144-.528.417-.571c1.167-.183 2.365-.318 3.577-.407v-4.631c0-.276.224-.5.5-.5s.5.224.5.5v4.568c1.66-.087 3.34-.087 5 0v-4.568c0-.276.224-.5.5-.5s.5.224.5.5v4.631c1.212.089 2.41.225 3.577.407.273.043.46.299.417.571-.042.275-.305.46-.571.417-.149-.023-.299-.046-.449-.068.017.689.027 1.793.027 2.023 0 .276-.224.5-.5.5s-.5-.224-.5-.5c0-.327-.012-1.556-.03-2.155-3.573-.431-7.367-.431-10.94 0-.018.6-.03 1.828-.03 2.155 0 4.023 1.491 5.519 5.5 5.519.337 0 .658-.011.963-.033.276-.026.515.186.536.461z"/></svg>