<svg id="Layer_1" viewBox="0 0 24 24" xmlns="http://www.w3.org/2000/svg" data-name="Layer 1"><path d="m9.999 15.428c.021.275-.186.515-.461.536-.174.013-.353.022-.537.028v6.508c0 .276-.224.5-.5.5s-.5-.224-.5-.5v-6.509c-4.198-.141-6-2.112-6-6.51 0-.23.009-1.334.026-2.023-.15.022-.3.044-.449.068-.27.044-.528-.145-.571-.417-.042-.272.144-.528.417-.571 1.167-.183 2.365-.318 3.577-.407v-4.631c0-.276.224-.5.5-.5s.5.224.5.5v4.568c1.66-.087 3.34-.087 5 0v-4.568c0-.276.224-.5.5-.5s.5.224.5.5v4.631c1.212.089 2.41.225 3.577.407.273.043.459.299.417.571-.041.274-.304.46-.571.417-.149-.023-.299-.046-.449-.068.017.689.026 1.793.026 2.023 0 .276-.224.5-.5.5s-.5-.224-.5-.5c0-.327-.012-1.556-.03-2.155-3.573-.43-7.367-.43-10.94 0-.018.6-.03 1.828-.03 2.155 0 4.023 1.491 5.519 5.5 5.519.337 0 .658-.011.963-.033.276-.026.515.186.536.461zm9.001 1.572h-2.463c.105-.714.433-1.454.978-2.207.162-.224.112-.536-.112-.698-.224-.164-.536-.112-.698.112-.8 1.104-1.205 2.212-1.205 3.293 0 .276.224.5.5.5h2.463c-.105.714-.433 1.454-.978 2.207-.162.224-.112.536.112.698.088.064.191.095.292.095.155 0 .308-.072.405-.207.8-1.104 1.205-2.212 1.205-3.293 0-.276-.224-.5-.5-.5zm4 .5c0 3.855-1.645 5.5-5.5 5.5s-5.5-1.645-5.5-5.5 1.645-5.5 5.5-5.5 5.5 1.645 5.5 5.5zm-1 0c0-3.28-1.22-4.5-4.5-4.5s-4.5 1.22-4.5 4.5 1.22 4.5 4.5 4.5 4.5-1.22 4.5-4.5z"/></svg>