<svg id="Layer_1" viewBox="0 0 24 24" xmlns="http://www.w3.org/2000/svg" data-name="Layer 1"><path d="m17 12c0 .276-.224.5-.5.5h-4v4c0 .276-.224.5-.5.5s-.5-.224-.5-.5v-4h-4c-.276 0-.5-.224-.5-.5s.224-.5.5-.5h4v-4c0-.276.224-.5.5-.5s.5.224.5.5v4h4c.276 0 .5.224.5.5zm5.975-.157c.034.103.034.212 0 .314-1.238 3.752-2.992 6.906-5.36 9.644-.072.084-.171.142-.279.163-.109.021-2.697.536-5.335.536s-5.226-.515-5.335-.536c-.108-.021-.207-.079-.279-.163-2.368-2.737-4.122-5.892-5.36-9.644-.034-.103-.034-.212 0-.314 1.238-3.752 2.992-6.906 5.36-9.644.072-.084.171-.142.279-.163.109-.021 2.697-.536 5.335-.536s5.226.515 5.335.536c.108.021.207.079.279.163 2.368 2.737 4.122 5.892 5.36 9.644zm-1.002.157c-1.173-3.495-2.811-6.448-5.001-9.015-.611-.112-2.807-.485-4.972-.485s-4.36.373-4.972.485c-2.19 2.566-3.828 5.52-5.001 9.015 1.173 3.495 2.811 6.448 5.001 9.015.611.112 2.807.485 4.972.485s4.36-.373 4.972-.485c2.19-2.566 3.828-5.52 5.001-9.015z"/></svg>