<?xml version="1.0" encoding="UTF-8"?>
<svg xmlns="http://www.w3.org/2000/svg" id="Layer_1" data-name="Layer 1" viewBox="0 0 24 24">
  <path d="M22.597,12.04c-.17-.043-4.241-1.064-10.597-1.064-.005,0-.009,0-.014,0,.102-5.657,1.011-9.314,1.021-9.353,.067-.268-.094-.54-.362-.607-.27-.07-.54,.093-.607,.361-.041,.161-.954,3.821-1.053,9.607-5.807,.099-9.425,1.015-9.585,1.056-.267,.069-.428,.342-.359,.609,.059,.226,.311,.439,.609,.359,.038-.01,3.642-.923,9.326-1.024,0,.005,0,.01,0,.015,0,6.413,1.018,10.455,1.062,10.624,.058,.226,.333,.443,.608,.36,.265-.08,.433-.322,.36-.608-.01-.041-1.03-4.088-1.03-10.376,0-.008,0-.016,0-.024,.008,0,.015,0,.023,0,6.22,0,10.31,1.023,10.35,1.033,.269,.069,.54-.094,.608-.361,.068-.268-.093-.54-.361-.608Z"/>
</svg>
