<svg id="Layer_1" viewBox="0 0 24 24" xmlns="http://www.w3.org/2000/svg" data-name="Layer 1"><path d="m23 12c0 6.074-1.965 9.308-6.371 10.483-.26.072-.542-.085-.612-.354-.071-.267.088-.541.354-.612 3.945-1.053 5.629-3.899 5.629-9.517 0-7.196-2.804-10-10-10s-10 2.804-10 10c0 5.618 1.684 8.464 5.629 9.517.267.071.426.345.354.612-.07.266-.341.427-.612.354-4.406-1.175-6.371-4.409-6.371-10.483 0-7.813 3.187-11 11-11s11 3.187 11 11zm-8.586 3.856c.47.522.658 1.248.562 2.158l-.369 2.745c-.359 1.504-1.233 2.241-2.606 2.241s-2.247-.737-2.598-2.19l-.376-2.782c-.099-.924.09-1.65.56-2.172.511-.568 1.323-.856 2.414-.856s1.903.288 2.414.856zm-.744.668c-.312-.348-.875-.524-1.67-.524s-1.357.176-1.67.524c-.272.302-.377.768-.312 1.384l.365 2.717c.231.948.718 1.374 1.616 1.374s1.385-.426 1.625-1.425l.358-2.68c.063-.603-.041-1.068-.313-1.371zm-1.67-6.524c1.346 0 2 .654 2 2s-.654 2-2 2-2-.654-2-2 .654-2 2-2zm0 1c-.794 0-1 .206-1 1s.206 1 1 1 1-.206 1-1-.206-1-1-1zm0-4.5c4.01 0 5.5 1.491 5.5 5.5 0 1.743-.297 3.003-.906 3.852-.161.224-.109.537.114.698.222.16.536.112.698-.115.736-1.024 1.094-2.476 1.094-4.435 0-4.556-1.944-6.5-6.5-6.5s-6.5 1.944-6.5 6.5c0 1.959.357 3.411 1.094 4.435.161.225.473.274.698.115.224-.161.275-.474.114-.698-.609-.849-.906-2.109-.906-3.852 0-4.009 1.49-5.5 5.5-5.5z"/></svg>