<svg id="Layer_1" viewBox="0 0 24 24" xmlns="http://www.w3.org/2000/svg" data-name="Layer 1"><path d="m22.608 11.062c-.048-.01-4.845-1.062-10.608-1.062-3.171 0-6.044.318-8 .606v-4.342c.553-.36 2.264-1.356 5.067-2.127.23 1.197 1.07 1.855 2.429 1.863h.006c1.582-.01 2.469-.894 2.498-2.509-.027-1.573-.938-2.481-2.502-2.491-1.444.009-2.301.754-2.463 2.111-3.812 1.009-5.753 2.427-5.835 2.489-.126.094-.2.243-.2.4v4.763c-.997.166-1.592.295-1.608.299-.27.06-.439.327-.38.597.059.271.334.44.597.38.015-.003.526-.115 1.395-.263.032 5.69 1.032 9.621 1.075 9.788.043.164.166.295.326.349.134.044 3.313 1.088 7.596 1.088s7.462-1.044 7.596-1.088c.16-.053.283-.185.326-.349.043-.167 1.043-4.098 1.075-9.787.868.148 1.379.259 1.395.262.272.059.537-.111.597-.38.06-.27-.11-.537-.38-.597zm-11.112-9.062c1.008.006 1.486.486 1.504 1.491-.02 1.064-.454 1.502-1.5 1.509-1.032-.007-1.481-.458-1.5-1.491.019-1.051.468-1.502 1.496-1.509zm7.521 19.043c-.837.243-3.589.957-7.018.957s-6.181-.714-7.018-.957c-.226-.99-.969-4.617-.981-9.427 1.915-.287 4.802-.616 7.999-.616s6.082.328 7.999.616c-.012 4.81-.756 8.438-.981 9.427zm-8.025-7.922c-.212.42-.408.841-.591 1.264-.394.035-.812.081-1.271.14-.437.056-.805.364-.936.788-.13.422 0 .883.329 1.177 0 0 .623.552.873.768-.128.473-.236.943-.323 1.4-.081.417.077.84.415 1.105.336.261.786.312 1.168.132.472-.218.913-.448 1.343-.698.43.25.871.479 1.341.697.383.18.832.13 1.173-.133.335-.263.493-.686.412-1.101-.087-.458-.195-.929-.323-1.402.25-.216.873-.769.873-.769.33-.293.459-.754.329-1.176-.131-.423-.499-.732-.936-.788-.458-.059-.877-.105-1.271-.14-.183-.423-.379-.845-.591-1.265-.206-.406-.614-.656-.972-.618-.429-.037-.838.211-1.044.619zm.893.451c.037-.073.165-.121.23 0 .247.491.474.984.679 1.479.072.174.236.293.425.307.467.035.964.088 1.523.16.212.051.073.257-.047.327-.334.296-.657.583-.982.86-.15.127-.212.33-.157.519.157.548.287 1.095.388 1.625.023.103-.09.184-.181.14-.532-.247-1.024-.508-1.503-.799-.16-.097-.359-.097-.52 0-.479.291-.971.553-1.505.8-.094.045-.201-.043-.179-.143.101-.528.23-1.075.388-1.623.055-.189-.007-.392-.157-.519-.325-.277-.648-.564-.982-.86-.121-.07-.258-.277-.047-.327.56-.072 1.057-.125 1.523-.16.188-.014.353-.133.425-.307.205-.495.432-.988.679-1.478z"/></svg>