<svg id="Layer_1" viewBox="0 0 24 24" xmlns="http://www.w3.org/2000/svg" data-name="Layer 1"><path d="m21.938 2.443c-.042-.191-.19-.34-.381-.381-.048-.011-4.891-1.062-9.557-1.062s-9.509 1.051-9.557 1.062c-.191.042-.34.19-.381.381-.011.048-1.062 4.891-1.062 9.557s1.051 9.509 1.062 9.557c.042.191.19.34.381.381.048.011 4.891 1.062 9.557 1.062s9.509-1.051 9.557-1.062c.191-.042.34-.19.381-.381.011-.048 1.062-4.891 1.062-9.557s-1.051-9.509-1.062-9.557zm-.911 18.584c-1.136.228-5.148.973-9.027.973s-7.891-.745-9.027-.973c-.228-1.136-.973-5.148-.973-9.027s.745-7.891.973-9.027c1.136-.228 5.148-.973 9.027-.973s7.891.745 9.027.973c.228 1.136.973 5.148.973 9.027s-.745 7.891-.973 9.027zm-16.027-10.527c0-.276.224-.5.5-.5h10c.276 0 .5.224.5.5s-.224.5-.5.5h-10c-.276 0-.5-.224-.5-.5zm14 4c0 .276-.224.5-.5.5h-13c-.276 0-.5-.224-.5-.5s.224-.5.5-.5h13c.276 0 .5.224.5.5zm-8 4c0 .276-.224.5-.5.5h-4.5c-.276 0-.5-.224-.5-.5s.224-.5.5-.5h4.5c.276 0 .5.224.5.5zm-5.5-12c0-.276.224-.5.5-.5h6.5c.276 0 .5.224.5.5s-.224.5-.5.5h-6.5c-.276 0-.5-.224-.5-.5z"/></svg>