<svg id="Layer_1" viewBox="0 0 24 24" xmlns="http://www.w3.org/2000/svg" data-name="Layer 1"><path d="m21.268 10.568c-.651-.652-1.744-1.05-2.922-1.065-1.303 0-2.478.432-3.286 1.241 0 0-.257.229-.263.236-.698.699-1.079.699-1.777 0-.689-.69-.689-1.089-.012-1.768l.249-.233c1.863-1.864 1.41-5.017.193-6.234-2.674-2.639-6.36-2.246-9.88 1.065-1.902 1.954-2.756 4.811-2.536 8.495.075 1.247.311 2.572.721 4.052.388 1.396 1.14 2.681 2.175 3.717 1.036 1.037 2.321 1.79 3.716 2.177 1.472.41 2.796.646 4.05.723.375.022.742.033 1.1.033 3.154 0 5.638-.864 7.406-2.587 3.294-3.506 3.693-7.188 1.066-9.851zm-1.779 9.149c-1.743 1.699-4.346 2.461-7.732 2.257-1.182-.072-2.439-.297-3.843-.688-1.229-.342-2.362-1.006-3.276-1.921-.914-.914-1.578-2.048-1.919-3.277-.391-1.411-.616-2.668-.687-3.844-.202-3.391.557-5.994 2.239-7.723.983-.926 2.995-2.517 5.186-2.517 1.086 0 2.216.391 3.287 1.448.912.913 1.188 3.435-.183 4.807l-.249.233c-1.089 1.089-1.089 2.104 0 3.193 1.104 1.104 2.079 1.108 3.182.01l.252-.227c.858-.859 1.997-.968 2.586-.968.91.012 1.763.308 2.225.771 3.174 3.216.299 6.988-1.069 8.444z"/></svg>