<?xml version="1.0" encoding="UTF-8"?>
<svg xmlns="http://www.w3.org/2000/svg" id="Layer_1" data-name="Layer 1" viewBox="0 0 24 24">
  <path d="M15.236,15.547c-2.203,2.158-4.319,2.162-6.468,.004-.195-.196-.512-.195-.707,0-.196,.195-.196,.511-.002,.707,1.274,1.279,2.593,1.918,3.919,1.918s2.655-.638,3.957-1.915c.197-.193,.201-.51,.008-.707-.194-.196-.511-.201-.707-.007Z"/>
  <path d="M20.965,13.618c.204-.424,.307-.88,.307-1.362,0-.874-.345-2.082-1.915-3.046,.085-.261,.128-.533,.128-.815,0-1.656-1.395-2.849-3.946-3.396,.237-.518,.398-1.152,.12-1.908-.298-.808-1.089-1.617-2.412-1.471-2.061,.23-3.874,1.497-4.896,3.406-2.476,.562-3.835,1.753-3.835,3.37,0,.285,.043,.559,.129,.821-1.571,.965-1.916,2.17-1.916,3.04,0,.485,.104,.943,.307,1.369-1.334,.891-2.035,2.064-2.035,3.419,0,3.353,4.112,5.354,11,5.354s11-2.001,11-5.354c0-1.36-.701-2.537-2.035-3.427Zm-8.965,7.781c-6.168,0-10-1.668-10-4.354,0-1.129,.659-2.076,1.959-2.814,.122-.069,.209-.187,.24-.324,.031-.137,.004-.28-.076-.396-.266-.382-.395-.792-.395-1.254,0-.965,.601-1.767,1.784-2.382,.12-.062,.21-.171,.248-.3,.039-.129,.024-.269-.042-.387-.137-.246-.203-.505-.203-.792,0-1.54,2.05-2.19,3.272-2.441,.151-.031,.28-.13,.349-.27,.845-1.722,2.423-2.87,4.221-3.071,.066-.008,.13-.011,.191-.011,.775,0,1.074,.573,1.171,.834,.226,.613-.049,1.101-.377,1.686-.08,.143-.085,.315-.014,.462s.21,.25,.372,.275c1.138,.181,3.783,.79,3.783,2.536,0,.284-.066,.542-.203,.787-.065,.118-.08,.258-.041,.387,.039,.129,.128,.238,.248,.3,1.184,.614,1.783,1.417,1.783,2.388,0,.458-.129,.866-.394,1.247-.08,.115-.108,.259-.077,.396,.031,.137,.118,.254,.24,.324,1.3,.737,1.959,1.687,1.959,2.821,0,2.686-3.832,4.354-10,4.354Z"/>
  <circle cx="8.97" cy="12" r=".75"/>
  <circle cx="15.03" cy="12" r=".75"/>
</svg>
