<svg id="Layer_1" viewBox="0 0 24 24" xmlns="http://www.w3.org/2000/svg" data-name="Layer 1"><path d="m12 1c-7.813 0-11 3.187-11 11s3.187 11 11 11 11-3.187 11-11-3.187-11-11-11zm7 8c0 5.103-1.897 7-7 7s-7-1.897-7-7c0-4.777 1.664-6.744 6.062-6.976.307-.012.613-.024.938-.024s.631.012.938.024c4.398.232 6.062 2.199 6.062 6.976zm-7 13c-7.196 0-10-2.804-10-10 0-4.356 1.037-7.093 3.443-8.583-.985 1.291-1.443 3.129-1.443 5.583 0 5.607 2.393 8 8 8s8-2.393 8-8c0-2.453-.458-4.291-1.443-5.583 2.406 1.49 3.443 4.227 3.443 8.583 0 7.196-2.804 10-10 10zm-2.5-15.5c0 .867.207 1.495.633 1.907-.773.454-1.133 1.3-1.133 2.593 0 2.075.925 3 3 3s3-.925 3-3c0-1.293-.36-2.139-1.133-2.593.425-.411.633-1.04.633-1.907 0-1.706-.794-2.5-2.5-2.5s-2.5.794-2.5 2.5zm4.5 4.5c0 1.514-.486 2-2 2s-2-.486-2-2 .486-2 2-2 2 .486 2 2zm-.5-4.5c0 1.149-.351 1.5-1.5 1.5s-1.5-.351-1.5-1.5.351-1.5 1.5-1.5 1.5.351 1.5 1.5z"/></svg>