<svg id="Layer_1" viewBox="0 0 24 24" xmlns="http://www.w3.org/2000/svg" data-name="Layer 1"><path d="m20.03 14.299c.567-.449.97-1.152.97-2.304 0-1.991-.894-2.654-2.378-2.863.31-.483.378-1.068.378-1.631 0-2.088-1.334-2.4-2.751-2.452-.645-2.026-2.418-4.062-4.249-4.062-.276 0-.5.224-.5.5 0 2.43-.289 3.514-2.007 3.514-1.137.015-1.875.051-1.877.051-1.359.072-2.616.419-2.616 2.449 0 .746.172 1.261.456 1.623-1.533.196-2.456.85-2.456 2.877 0 1.186.32 1.897.891 2.327-1.782.421-2.891 1.5-2.891 4.173 0 3.438 1.828 4.244 4.59 4.398.045 0 4.479.102 6.41.102s6.365-.101 6.427-.103c2.745-.153 4.573-.96 4.573-4.397 0-2.707-1.317-3.771-2.97-4.201zm-1.643 7.6c-.044 0-4.468.102-6.387.102s-6.343-.101-6.37-.101c-2.782-.156-3.63-.95-3.63-3.399s.848-3.244 3.613-3.398c.044 0 4.468-.102 6.387-.102.462-.001 1.063-.003 1.495 0 .242-.003.502-.219.505-.495s-.219-.502-.495-.505c-.431-.009-1.028.009-1.486-.006-1.354 0-5.8-.057-5.826-.057-1.89-.094-2.192-.543-2.192-1.937s.303-1.843 2.175-1.937c0 0 3.478-.054 5.237-.067.721.004 1.396.007 2.094.003.276-.003.497-.229.494-.506-.003-.274-.227-.494-.5-.494-.616.006-1.441-.012-2.09-.003-1.336-.011-3.721-.047-3.741-.047-1.417-.076-1.669-.445-1.669-1.45s.252-1.375 1.667-1.45c.004 0 .728-.035 1.833-.05 2.693 0 2.969-2.19 2.997-3.938 1.259.374 2.504 2.066 2.887 3.598.055.218.247.373.472.379l.486.013c1.407.077 1.658.447 1.658 1.449 0 .946-.206 1.316-.847 1.524 0 0-.002.001-.002.001-.284-.013-.563-.024-.642-.026-.278-.001-.504.215-.509.492-.005.276.216.503.491.508.173.003 1.316.057 1.316.057 1.89.094 2.192.543 2.192 1.937 0 1.15-.381 1.857-2.162 2.03l-1.329-.024c-.278.001-.504.215-.509.492-.005.276.216.503.491.508.476-.004 1.124.07 1.593.028 2.854.16 3.916 1.101 3.916 3.472 0 2.449-.848 3.244-3.613 3.398z"/></svg>