<?xml version="1.0" encoding="UTF-8"?>
<svg xmlns="http://www.w3.org/2000/svg" id="Layer_1" data-name="Layer 1" viewBox="0 0 24 24">
  <path d="M23,8.861c0-1.496-1.202-2.716-2.691-2.748,.405-.533,.639-1.193,.639-1.889,0-1.721-1.401-3.121-3.124-3.121-1.183,0-2.238,.673-2.767,1.672-.646-.663-1.537-1.049-2.497-1.049-.833,0-1.635,.299-2.264,.833-.435-.306-.951-.47-1.495-.47-1.112,0-2.087,.718-2.454,1.725-.24-.071-.49-.108-.744-.108-1.407,0-2.559,1.118-2.608,2.512-1.165,.329-1.994,1.393-1.994,2.643s.848,2.317,2.001,2.644l1.923,9.918c.029,.148,.123,.275,.256,.346,.086,.046,2.167,1.128,6.82,1.128s6.734-1.082,6.82-1.128c.133-.071,.227-.198,.256-.346l1.923-9.918c1.153-.327,2.001-1.388,2.001-2.644ZM4.07,11.763c.719-.196,2.285-.583,4.251-.839l.727,10.801c-1.742-.216-2.78-.579-3.192-.748l-1.786-9.214Zm5.987,10.062l-.742-11.015c.85-.083,1.755-.136,2.684-.136s1.834,.053,2.684,.136l-.742,11.015c-.585,.044-1.232,.071-1.942,.071s-1.357-.027-1.942-.071Zm8.086-.848c-.414,.17-1.452,.532-3.192,.748l.727-10.801c1.966,.256,3.532,.643,4.251,.839l-1.786,9.214Zm2.105-10.368h-.78c-1.521-.373-4.333-.935-7.469-.935s-5.948,.562-7.469,.935h-.78c-.966,0-1.751-.784-1.751-1.749,0-.898,.674-1.646,1.567-1.738,.135-.014,.259-.083,.343-.19,.083-.107,.12-.244,.101-.378-.012-.079-.019-.159-.019-.241,0-.886,.723-1.607,1.61-1.607,.297,0,.586,.081,.836,.233,.147,.09,.33,.097,.486,.02,.154-.078,.258-.23,.272-.403,.071-.823,.776-1.467,1.604-1.467,.44,0,.853,.175,1.159,.492,.097,.101,.228,.16,.37,.153,.139-.003,.271-.064,.363-.168,.474-.534,1.154-.84,1.866-.84,.941,0,1.792,.521,2.22,1.36,.099,.195,.309,.3,.528,.266,.215-.036,.382-.208,.412-.424,.146-1.04,1.05-1.825,2.104-1.825,1.171,0,2.124,.951,2.124,2.121,0,.831-.491,1.59-1.251,1.933-.214,.097-.332,.331-.283,.561,.05,.23,.254,.395,.489,.395h1.347c.966,0,1.751,.784,1.751,1.749s-.785,1.749-1.751,1.749Z"/>
  <g>
    <circle cx="13.59" cy="7.083" r=".75"/>
    <circle cx="9.185" cy="6.538" r=".75"/>
  </g>
</svg>
