<?xml version="1.0" encoding="UTF-8"?>
<svg xmlns="http://www.w3.org/2000/svg" id="Layer_1" data-name="Layer 1" viewBox="0 0 24 24">
  <path d="M21.747,2.562c-.05-.163-.179-.289-.343-.335-.177-.05-4.4-1.227-9.404-1.227S2.773,2.177,2.596,2.227c-.164,.046-.294,.173-.343,.337-.05,.167-1.227,4.129-1.227,9.437,0,5.353,1.177,9.273,1.227,9.438,.05,.163,.179,.289,.343,.336,.177,.05,4.4,1.227,9.404,1.227s9.227-1.177,9.404-1.227c.164-.047,.294-.174,.343-.337,.05-.166,1.227-4.129,1.227-9.437,0-5.353-1.177-9.273-1.227-9.438Zm-.883,18.32c-1.008,.256-4.709,1.118-8.864,1.118s-7.859-.862-8.864-1.118c-.26-.963-1.109-4.45-1.109-8.882,0-4.389,.851-7.911,1.109-8.881,1.008-.256,4.709-1.119,8.864-1.119s7.859,.863,8.864,1.119c.26,.962,1.109,4.45,1.109,8.881,0,4.389-.851,7.91-1.109,8.882Z"/>
  <path d="M12,13.289c-2.67,0-4.842,2.177-4.842,4.853,0,.276,.224,.5,.5,.5s.5-.224,.5-.5c0-2.124,1.724-3.853,3.842-3.853s3.842,1.729,3.842,3.853c0,.276,.224,.5,.5,.5s.5-.224,.5-.5c0-2.676-2.172-4.853-4.842-4.853Z"/>
  <path d="M10.466,11.238c.509,.171,1.021,.256,1.534,.256s1.025-.085,1.534-.257c.597-.201,1.072-.677,1.271-1.273,.341-1.021,.341-2.055,0-3.075-.2-.597-.675-1.073-1.271-1.274-1.018-.342-2.051-.342-3.068,0-.597,.201-1.071,.677-1.271,1.273-.341,1.021-.341,2.055,0,3.075,.2,.596,.675,1.072,1.271,1.273Zm-.322-4.032c.101-.301,.34-.541,.641-.642,.409-.138,.812-.207,1.216-.207s.807,.069,1.216,.207c.301,.101,.54,.341,.641,.643,.275,.821,.275,1.619,0,2.441-.101,.301-.34,.541-.641,.642-.818,.275-1.613,.275-2.432,0-.301-.102-.54-.342-.641-.643h0c-.275-.822-.275-1.62,0-2.441Z"/>
</svg>
