<svg id="Layer_1" viewBox="0 0 24 24" xmlns="http://www.w3.org/2000/svg" data-name="Layer 1"><path d="m22.623 3.572c-.221-1.052-1.084-1.864-2.147-2.021-1.701-.251-4.551-.551-8.476-.551s-6.775.299-8.475.551c-1.063.157-1.927.969-2.148 2.021-.177.838-.377 1.789-.377 2.928 0 .276.224.5.5.5h1.7c-.127 1.55-.2 3.179-.2 4.875 0 6.367.889 9.812.927 9.956.045.172.179.307.351.354.121.033 3.013.815 7.722.815s7.601-.782 7.722-.815c.172-.047.305-.182.351-.354.038-.144.927-3.589.927-9.956 0-1.696-.073-3.325-.2-4.875h1.7c.276 0 .5-.224.5-.5 0-1.139-.2-2.09-.377-2.928zm-2.623 8.303c0 5.208-.62 8.471-.828 9.416-.831.191-3.432.709-7.172.709s-6.341-.519-7.172-.709c-.208-.945-.828-4.208-.828-9.416 0-1.698.073-3.329.202-4.875h15.596c.129 1.546.202 3.177.202 4.875zm-17.986-5.875c.045-.818.195-1.53.341-2.222.135-.645.664-1.142 1.315-1.238 1.667-.247 4.466-.54 8.329-.54s6.662.293 8.33.54c.651.096 1.18.593 1.315 1.238.146.692.296 1.404.341 2.222zm5.986 8c0-.276.224-.5.5-.5h3v-3c0-.276.224-.5.5-.5s.5.224.5.5v3h3c.276 0 .5.224.5.5s-.224.5-.5.5h-3v3c0 .276-.224.5-.5.5s-.5-.224-.5-.5v-3h-3c-.276 0-.5-.224-.5-.5z"/></svg>