<svg id="Layer_1" viewBox="0 0 24 24" xmlns="http://www.w3.org/2000/svg" data-name="Layer 1"><path d="m16.63 18.506c.087-.12.17-.229.258-.354 2.11-3.015 3.04-5.372 3.078-5.471.101-.257-.027-.547-.284-.647s-.547.026-.647.284c-.009.023-.93 2.352-2.965 5.261-.019.027-.037.049-.055.076-.069-.098-.136-.186-.206-.287-1.72-2.495-2.657-4.557-2.949-5.245 2.121-.93 3.142-2.614 3.142-5.123 0-4.297-2.285-5.979-8.153-6h-2.447c-.229 0-.43.156-.485.379-.037.149-.914 3.726-.914 9.121s.977 8.984 1.019 9.134c.073.268.356.422.615.348.266-.074.422-.349.348-.615-.008-.03-.695-2.557-.915-6.479.856.08 1.587.113 2.434.113 1.753 0 3.219-.177 4.417-.534.289.69 1.246 2.828 3.069 5.47.139.201.272.379.409.569-1.75 2.32-3.206 3.604-3.222 3.618-.208.181-.23.497-.049.705.181.209.497.229.705.049.068-.059 1.458-1.284 3.185-3.535 1.72 2.246 3.088 3.473 3.156 3.533.207.182.521.163.706-.044.183-.207.163-.523-.044-.706-.016-.014-1.451-1.296-3.201-3.619zm-11.608-6.628c-.015-.445-.022-.905-.022-1.378 0-4.28.579-7.447.8-8.5h2.046c5.349.019 7.154 1.28 7.154 5 0 3.505-2.243 5-7.5 5-.858 0-1.593-.036-2.478-.122z"/></svg>