<?xml version="1.0" encoding="UTF-8"?>
<svg xmlns="http://www.w3.org/2000/svg" id="Layer_1" data-name="Layer 1" viewBox="0 0 24 24">
  <path d="M21.744,6.678c-.069-.146-.204-.25-.362-.278-.024-.005-1.335-.24-3.335-.453,0-.052,.002-.104,.002-.156,0-2.243-.646-3.897-.674-3.967-.062-.155-.196-.269-.358-.304-.095-.021-2.349-.503-5.017-.503s-4.921,.482-5.016,.503c-.164,.036-.298,.15-.359,.306-.028,.07-.673,1.741-.673,3.965,0,.053,0,.105,.001,.157-1.998,.213-3.311,.448-3.334,.453-.16,.029-.295,.133-.364,.28-.051,.109-1.255,2.727-1.255,6.223,0,3.526,1.205,6.117,1.256,6.226,.069,.146,.204,.25,.362,.278,.051,.009,1.262,.229,3.163,.437l.287,.034c.187,1.345,.536,2.246,.556,2.298,.061,.156,.196,.271,.36,.306,.095,.021,2.354,.502,5.016,.502s4.921-.481,5.016-.502c.163-.035,.298-.149,.359-.304,.02-.051,.371-.947,.558-2.3l.327-.039c1.875-.206,3.071-.422,3.122-.431,.159-.029,.295-.133,.363-.28,.051-.109,1.255-2.727,1.255-6.224,0-3.526-1.205-6.117-1.256-6.225Zm-14.792-.888c0-1.549,.35-2.826,.517-3.347,.672-.125,2.501-.427,4.531-.427s3.861,.302,4.532,.427c.167,.518,.517,1.786,.517,3.347,0,.019,0,.038,0,.058-1.476-.133-3.219-.239-5.048-.239s-3.57,.105-5.048,.239c0-.019,0-.039,0-.058Zm9.581,15.767c-.669,.125-2.493,.426-4.532,.426s-3.859-.301-4.532-.426c-.167-.521-.517-1.794-.517-3.339,0-.949,.128-1.785,.263-2.4h9.568c.136,.619,.266,1.456,.266,2.4,0,1.558-.349,2.823-.517,3.339Zm4.406-3.089c-.451,.074-1.452,.229-2.79,.376l-.117,.014c.011-.207,.018-.421,.018-.641,0-1.256-.21-2.338-.386-3.024-.057-.221-.256-.376-.484-.376H6.82c-.229,0-.428,.155-.484,.375-.175,.683-.384,1.761-.384,3.025,0,.219,.006,.433,.018,.641l-.084-.01c-1.356-.148-2.371-.306-2.825-.381-.282-.692-1.061-2.854-1.061-5.565,0-2.688,.78-4.866,1.062-5.564,1.005-.165,4.746-.729,8.938-.729s7.938,.564,8.94,.729c.281,.691,1.06,2.845,1.06,5.564,0,2.689-.78,4.867-1.062,5.565Z"/>
  <path d="M17.549,10.814h-2.166c-.276,0-.5,.224-.5,.5s.224,.5,.5,.5h2.166c.276,0,.5-.224,.5-.5s-.224-.5-.5-.5Z"/>
</svg>
