<svg id="Layer_1" viewBox="0 0 24 24" xmlns="http://www.w3.org/2000/svg" data-name="Layer 1"><path d="m20.135 19.428c.555-.741.865-1.718.865-2.928 0-2.86-1.641-4.5-4.5-4.5s-4.5 1.64-4.5 4.5 1.641 4.5 4.5 4.5c1.21 0 2.186-.31 2.928-.865l2.719 2.719c.195.195.512.195.707 0s.195-.512 0-.707zm-7.135-2.928c0-2.322 1.178-3.5 3.5-3.5s3.5 1.178 3.5 3.5-1.178 3.5-3.5 3.5-3.5-1.178-3.5-3.5zm8.921-10.216c-.058-.134-.172-.237-.312-.28-.08-.025-1.285-.389-3.625-.671-.078-2.073-.545-3.365-.566-3.421-.052-.138-.161-.247-.301-.296-.07-.025-1.77-.615-5.117-.615s-5.047.59-5.118.615c-.139.049-.249.158-.301.296-.021.056-.488 1.347-.566 3.421-2.34.283-3.545.646-3.625.671-.14.043-.253.146-.311.281-.045.104-1.092 2.593-1.092 6.575s1.047 6.47 1.092 6.574c.058.135.171.237.311.281.054.017 1.326.401 3.816.691.181 1.019.417 1.675.433 1.718.054.145.171.257.318.304.074.023 1.854.573 5.542.573.276 0 .5-.224.5-.5s-.224-.5-.5-.5c-2.767 0-4.417-.324-5-.464-.158-.519-.5-1.825-.5-3.436 0-1.451.144-2.551.234-3.1h2.266c.276 0 .5-.224.5-.5s-.224-.5-.5-.5h-2.682c-.233 0-.436.162-.488.389-.013.06-.331 1.48-.331 3.711 0 .457.029.881.069 1.283-1.658-.204-2.719-.448-3.154-.561-.242-.671-.928-2.85-.928-5.963s.686-5.291.928-5.963c.825-.213 3.877-.896 9.084-.896s8.26.683 9.085.896c.242.672.928 2.85.928 5.963 0 .2-.003.397-.008.589-.007.276.212.505.487.512h.013c.271 0 .493-.216.5-.488.005-.2.008-.405.008-.614 0-3.982-1.048-6.471-1.092-6.575zm-14.902-1.061c.064-1.345.303-2.316.427-2.733.548-.149 2.076-.49 4.555-.49s4.007.341 4.555.49c.123.417.363 1.388.427 2.733-1.358-.13-3.017-.223-4.981-.223s-3.624.093-4.982.223z"/></svg>