<svg id="Layer_1" viewBox="0 0 24 24" xmlns="http://www.w3.org/2000/svg" data-name="Layer 1"><path d="m21.938 2.443c-.042-.191-.19-.34-.381-.381-.049-.011-4.891-1.062-9.558-1.062s-9.508 1.051-9.556 1.062c-.191.042-.34.19-.381.381-.011.048-1.062 4.891-1.062 9.557s1.051 9.509 1.062 9.557c.042.191.19.34.381.381.048.011 4.891 1.062 9.557 1.062s9.509-1.051 9.558-1.062c.19-.042.339-.19.381-.381.011-.048 1.062-4.891 1.062-9.557s-1.051-9.509-1.062-9.557zm-.911 18.584c-1.137.228-5.148.973-9.027.973s-7.891-.745-9.027-.973c-.228-1.136-.973-5.148-.973-9.027s.745-7.891.973-9.027c1.136-.228 5.148-.973 9.027-.973s7.891.745 9.027.973c.228 1.136.973 5.148.973 9.027s-.745 7.891-.973 9.027zm-9.127-11.827c.166.221.121.534-.1.7-.219.165-.533.122-.7-.1-.614-.818-1.33-1.548-2.1-2.218v9.918c0 .276-.224.5-.5.5s-.5-.224-.5-.5v-9.918c-.77.67-1.486 1.399-2.1 2.218-.166.221-.479.266-.7.1s-.266-.479-.1-.7c.881-1.176 1.924-2.219 3.1-3.1.178-.134.422-.134.6 0 1.176.881 2.219 1.924 3.1 3.1zm6.9 4.9c.221.166.266.479.101.7-.881 1.175-1.924 2.218-3.101 3.1-.089.067-.194.1-.3.1s-.211-.033-.3-.1c-1.177-.882-2.22-1.925-3.1-3.1-.166-.221-.121-.534.1-.7s.534-.121.7.1c.614.818 1.33 1.547 2.1 2.217v-9.917c0-.276.224-.5.5-.5s.5.224.5.5v9.918c.77-.67 1.486-1.399 2.1-2.217.167-.222.48-.265.7-.1z"/></svg>