<svg id="Layer_1" viewBox="0 0 24 24" xmlns="http://www.w3.org/2000/svg" data-name="Layer 1"><path d="m10 17.5c-.005.273-.228.491-.5.491h-.009c-5.346-.099-8.033-.947-8.144-.983-.244-.078-.389-.329-.335-.58.027-.126.692-3.136 3.712-8.169 2.896-4.83 5.193-6.913 5.446-7.134.189-.166.471-.166.66 0 .252.222 2.55 2.305 5.447 7.135.233.388.452.766.658 1.13.136.24.052.545-.188.681-.242.139-.546.053-.682-.188-.202-.356-.417-.727-.645-1.107-2.292-3.823-4.169-5.85-4.919-6.588-.75.737-2.627 2.765-4.919 6.587-2.262 3.771-3.17 6.399-3.468 7.407.965.237 3.445.738 7.397.812.276.005.496.233.491.509zm0-11v5c0 .276.224.5.5.5s.5-.224.5-.5v-5c0-.276-.224-.5-.5-.5s-.5.224-.5.5zm.5 6.75c-.415 0-.75.335-.75.75s.335.75.75.75.75-.335.75-.75-.335-.75-.75-.75zm12.353 9.604c-.195.195-.512.195-.707 0l-2.719-2.719c-.741.555-1.718.865-2.928.865-2.86 0-4.5-1.641-4.5-4.5s1.64-4.5 4.5-4.5 4.5 1.641 4.5 4.5c0 1.21-.31 2.186-.865 2.928l2.719 2.719c.195.195.195.512 0 .707zm-6.353-2.854c2.322 0 3.5-1.178 3.5-3.5s-1.178-3.5-3.5-3.5-3.5 1.178-3.5 3.5 1.178 3.5 3.5 3.5z"/></svg>