<?xml version="1.0" encoding="UTF-8"?>
<svg xmlns="http://www.w3.org/2000/svg" id="Layer_1" data-name="Layer 1" viewBox="0 0 24 24">
  <path d="M12.5,6.363v-2.245c0-.774,.629-1.405,1.403-1.405s1.402,.63,1.402,1.405c0,.276,.224,.5,.5,.5s.5-.224,.5-.5c0-1.326-1.078-2.405-2.402-2.405-1.17,0-2.146,.841-2.359,1.951-.559-.537-1.316-.868-2.149-.868-.276,0-.5,.224-.5,.5s.224,.5,.5,.5c1.161,0,2.106,.946,2.106,2.109v.458c-5.275,.061-10.5,1.158-10.5,7.961,0,7.137,6.278,7.963,11,7.963,5.122,0,11-.905,11-7.963,0-6.802-5.225-7.9-10.5-7.961Zm-2.732,1.196c-.808,1.222-1.174,3.418-1.174,6.765,0,3.292,.376,5.494,1.181,6.732-2.791-.662-4.015-2.779-4.015-6.732,0-4.535,1.536-6.241,4.008-6.765Zm-.174,6.765c0-6.136,1.217-6.963,2.407-6.963s2.407,.827,2.407,6.963c0,6.171-1.286,6.963-2.407,6.963-1.033,0-2.407-.722-2.407-6.963Zm4.642,6.76c.806-1.223,1.171-3.417,1.171-6.76s-.366-5.537-1.171-6.76c2.263,.497,4.005,2.097,4.005,6.76s-1.742,6.262-4.005,6.76ZM2,14.324c0-3.533,1.479-5.571,4.911-6.448-1.465,1.279-2.152,3.394-2.152,6.448,0,3.023,.713,5.147,2.196,6.436-3.428-.891-4.955-2.95-4.955-6.436Zm15.088,6.447c1.465-1.279,2.152-3.394,2.152-6.447s-.687-5.169-2.152-6.448c3.433,.877,4.911,2.915,4.911,6.448s-1.479,5.571-4.912,6.447Z"/>
</svg>
