<svg id="Layer_1" viewBox="0 0 24 24" xmlns="http://www.w3.org/2000/svg" data-name="Layer 1"><path d="m22.31 9.049c-.044-.14-.148-.253-.283-.31-.072-.03-1.792-.739-4.527-.739-2.663 0-4.35.667-4.505.731-.017-2.334-.079-4.651-.174-6.483.521.082.887.164 1.059.207.261.066.54-.095.606-.365.066-.268-.097-.539-.365-.605-.457-.113-2.138-.483-4.621-.483s-4.164.37-4.621.483c-.268.066-.431.338-.365.605.066.269.338.428.606.365.172-.043.537-.124 1.057-.206-.111 2.172-.177 5.015-.177 7.752 0 .695.005 1.362.012 2.012-1.364.02-2.722.059-3.755.106.079-.49.157-.832.198-.997.066-.269-.097-.54-.365-.606-.269-.064-.539.096-.606.364-.113.456-.483 2.137-.483 4.621s.37 4.165.483 4.621c.066.27.345.43.606.364.268-.066.431-.338.365-.606-.041-.166-.119-.509-.198-1.001 1.605.075 3.783.122 5.744.122 1.283 0 2.914-.007 4.171-.044.198 1.924.5 2.935.519 2.995.044.14.148.253.283.31.072.03 1.792.739 4.527.739s4.455-.709 4.527-.739c.135-.057.238-.17.283-.31.028-.089.69-2.222.69-6.451s-.662-6.362-.69-6.451zm-20.188 8.821c-.07-.659-.122-1.454-.122-2.37s.053-1.714.123-2.374c1.033-.05 2.482-.092 3.902-.113.033 2.052.094 3.779.156 4.975-1.474-.019-2.926-.061-4.059-.117zm5.878.13c-.269 0-.542 0-.817-.003-.092-1.726-.183-4.616-.183-7.997 0-2.798.069-5.707.185-7.884.648-.067 1.426-.116 2.315-.116s1.665.049 2.313.116c.117 2.18.187 5.108.187 7.924-.015 1.842 0 2.96 0 5.46 0 .915.035 1.712.084 2.431-1.24.041-2.8.069-4.084.069zm8.5-2h5.492c-.01.738-.039 1.406-.082 2h-5.41c-.276 0-.5.224-.5.5s.224.5.5.5h5.32c-.134 1.233-.309 2.052-.401 2.419-.522.176-1.938.581-3.919.581s-3.396-.405-3.919-.581c-.162-.644-.581-2.63-.581-5.919s.419-5.275.581-5.919c.522-.176 1.938-.581 3.919-.581s3.396.405 3.919.581c.092.367.267 1.186.401 2.419h-5.32c-.276 0-.5.224-.5.5s.224.5.5.5h5.41c.043.594.072 1.262.082 2h-5.492c-.276 0-.5.224-.5.5s.224.5.5.5z"/></svg>