<svg id="Layer_1" viewBox="0 0 24 24" xmlns="http://www.w3.org/2000/svg" data-name="Layer 1"><path d="m22.132 18.019-.655-.392c.016-.198.023-.406.023-.627s-.008-.429-.023-.627l.655-.392c.855-.511 1.03-1.203.521-2.057-.51-.855-1.201-1.03-2.059-.52l-.426.254c-.325-.226-.712-.391-1.168-.498v-.661c0-.995-.505-1.5-1.5-1.5s-1.5.505-1.5 1.5v.661c-.456.107-.843.272-1.168.498l-.427-.255c-.854-.509-1.547-.335-2.058.521-.51.854-.335 1.546.52 2.057l.656.392c-.016.198-.023.406-.023.627s.008.429.023.627l-.655.392c-.855.511-1.03 1.203-.521 2.057.511.855 1.202 1.03 2.059.52l.426-.254c.325.226.712.391 1.168.498v.661c0 .995.505 1.5 1.5 1.5s1.5-.505 1.5-1.5v-.661c.456-.107.843-.272 1.168-.498l.427.255c.855.509 1.548.335 2.058-.521.51-.854.335-1.546-.521-2.057zm-.339 1.545c-.225.377-.31.397-.686.174l-.724-.433c-.192-.116-.435-.089-.598.062-.312.29-.756.475-1.359.564-.245.036-.427.246-.427.494v1.074c0 .439-.061.5-.5.5s-.5-.061-.5-.5v-1.074c0-.248-.182-.458-.427-.494-.604-.09-1.048-.274-1.359-.564-.165-.152-.407-.177-.598-.062l-.723.432c-.379.227-.462.204-.687-.173-.226-.377-.204-.461.174-.686l.929-.555c.17-.103.264-.295.239-.491-.031-.256-.049-.531-.049-.832s.018-.576.049-.832c.024-.196-.069-.389-.239-.491l-.93-.555c-.377-.225-.398-.309-.173-.686s.309-.398.686-.174l.724.433c.191.114.433.088.598-.062.312-.29.756-.475 1.359-.564.245-.036.427-.246.427-.494v-1.074c0-.439.061-.5.5-.5s.5.061.5.5v1.074c0 .248.182.458.427.494.604.09 1.048.274 1.359.564.164.151.406.178.598.062l.723-.432c.379-.228.462-.204.687.173.226.377.204.461-.174.686l-.929.555c-.17.103-.264.295-.239.491.031.256.049.531.049.832s-.018.576-.049.832c-.024.196.069.389.239.491l.929.555c.377.225.398.309.173.686zm-4.293-4.563c-1.346 0-2 .654-2 2s.654 2 2 2 2-.654 2-2-.654-2-2-2zm0 3c-.794 0-1-.206-1-1s.206-1 1-1 1 .206 1 1-.206 1-1 1zm-5-14.501c0-.827-.673-1.5-1.5-1.5s-1.5.673-1.5 1.5c0 .242.064.566.183.914.109.297-.12.643-.436.659-1.619.125-3.058.381-3.673.501-.12.616-.377 2.057-.502 3.673-.015.316-.362.546-.658.436-.348-.118-.672-.183-.914-.183-.827 0-1.5.673-1.5 1.5s.673 1.5 1.5 1.5c.242 0 .566-.064.914-.183.296-.109.643.119.658.436.125 1.616.382 3.057.502 3.673.522.102 1.639.303 2.953.437-.019-.129-.027-.25-.027-.362 0-.89.479-1.72 1.25-2.165.234-.14.543-.058.683.183.139.238.057.545-.183.683-.463.268-.75.766-.75 1.3 0 .196.051.465.146.776.108.323-.178.683-.518.645-2.195-.172-4.01-.566-4.086-.583-.19-.042-.339-.19-.381-.381-.016-.07-.346-1.591-.534-3.526-.202.041-.418.069-.628.069-1.378 0-2.5-1.121-2.5-2.5s1.122-2.5 2.5-2.5c.21 0 .426.028.628.07.188-1.936.519-3.457.534-3.527.042-.191.19-.34.382-.381.069-.016 1.59-.345 3.525-.534-.041-.202-.069-.418-.069-.628 0-1.378 1.121-2.5 2.5-2.5s2.5 1.122 2.5 2.5c0 .21-.028.426-.069.628 1.936.188 3.456.518 3.525.534.191.042.34.19.382.381.014.062.332 1.521.522 3.407.028.274-.172.52-.446.548-.273.023-.521-.171-.548-.447-.135-1.323-.338-2.45-.44-2.976-.616-.12-2.056-.377-3.673-.501-.316-.016-.545-.362-.436-.659.118-.348.183-.672.183-.914z"/></svg>