<svg id="Layer_1" viewBox="0 0 24 24" xmlns="http://www.w3.org/2000/svg" data-name="Layer 1"><path d="m1.272 7.445c.311-2.806.784-4.98.789-5.002.042-.19.19-.339.381-.381.022-.005 2.197-.479 5.002-.789.283-.024.522.168.552.442.03.275-.167.522-.442.552-2.135.236-3.891.567-4.583.706-.139.692-.47 2.45-.706 4.583-.029.275-.282.473-.552.442-.274-.03-.472-.277-.442-.552zm6.283 14.288c-2.133-.236-3.891-.567-4.583-.707-.139-.691-.47-2.449-.706-4.582-.03-.273-.265-.467-.552-.442-.274.03-.472.277-.442.552.311 2.806.784 4.98.789 5.002.042.19.19.339.381.381.022.005 2.197.479 5.002.79.27.031.523-.167.552-.442.03-.275-.167-.522-.442-.552zm14.73-5.73c-.272-.029-.521.167-.552.442-.236 2.133-.567 3.891-.706 4.582-.691.139-2.45.471-4.582.707-.274.03-.473.277-.442.552.029.275.283.473.552.442 2.806-.311 4.981-.785 5.003-.79.19-.042.339-.19.381-.381.005-.021.479-2.196.789-5.001.03-.274-.168-.522-.442-.552zm-5.84-13.736c2.132.236 3.891.567 4.582.706.139.692.47 2.45.706 4.583.029.276.283.473.552.442.274-.03.473-.278.442-.552-.311-2.806-.784-4.98-.789-5.002-.042-.191-.19-.34-.381-.381-.021-.005-2.197-.479-5.003-.789-.273-.03-.521.167-.552.442s.168.522.442.552zm6.055 9.234h-21c-.276 0-.5.224-.5.5s.224.5.5.5h21c.276 0 .5-.224.5-.5s-.224-.5-.5-.5z"/></svg>