<?xml version="1.0" encoding="UTF-8"?>
<svg xmlns="http://www.w3.org/2000/svg" id="Layer_1" data-name="Layer 1" viewBox="0 0 24 24">
  <path d="M1.853,9.785c.071,.021,1.773,.496,3.784,.496s3.712-.475,3.783-.496c.165-.046,.294-.173,.343-.337,.02-.067,.496-1.671,.496-3.808,0-2.155-.476-3.743-.496-3.81-.05-.163-.179-.29-.342-.335-.072-.021-1.773-.495-3.784-.495s-3.712,.475-3.784,.495c-.165,.046-.294,.174-.343,.337-.02,.067-.496,1.671-.496,3.808,0,2.155,.476,3.743,.496,3.809,.05,.163,.179,.289,.342,.335Zm.544-7.396c.541-.127,1.82-.389,3.24-.389s2.699,.261,3.24,.389c.127,.52,.382,1.746,.382,3.251,0,1.494-.255,2.728-.383,3.251-.542,.127-1.825,.389-3.239,.389s-2.7-.262-3.24-.389c-.127-.52-.382-1.746-.382-3.251,0-1.495,.255-2.729,.383-3.251Z"/>
  <path d="M4.657,7.084c.311,.028,.642,.046,.98,.046s.668-.018,.979-.046c.242-.022,.433-.215,.453-.457,.026-.307,.042-.639,.042-.987s-.016-.682-.042-.987c-.02-.242-.211-.435-.453-.457-.621-.056-1.338-.056-1.959,0-.242,.022-.433,.214-.453,.457-.026,.306-.042,.638-.042,.987s.016,.682,.042,.987c.02,.242,.21,.434,.452,.457Zm.517-1.922c.303-.016,.624-.016,.927,0,.007,.154,.011,.314,.011,.478s-.004,.323-.011,.478c-.304,.015-.624,.016-.927,0-.007-.154-.011-.314-.011-.478s.004-.324,.011-.478Z"/>
  <path d="M14.594,9.785c.072,.021,1.773,.496,3.784,.496s3.712-.475,3.783-.496c.164-.046,.294-.173,.343-.337,.021-.067,.496-1.671,.496-3.808,0-2.155-.476-3.743-.496-3.81-.05-.163-.179-.289-.343-.335-.071-.021-1.772-.495-3.783-.495s-3.712,.475-3.783,.495c-.164,.046-.294,.174-.343,.337-.021,.067-.496,1.671-.496,3.808,0,2.155,.476,3.743,.496,3.809,.05,.163,.179,.289,.342,.335Zm.545-7.396c.541-.127,1.82-.389,3.239-.389s2.699,.261,3.24,.389c.127,.52,.382,1.746,.382,3.251,0,1.494-.255,2.728-.383,3.251-.542,.127-1.824,.389-3.239,.389s-2.699-.262-3.24-.389c-.127-.52-.382-1.746-.382-3.251,0-1.495,.256-2.729,.383-3.251Z"/>
  <path d="M17.397,7.084c.311,.028,.643,.046,.98,.046s.669-.018,.979-.046c.241-.022,.433-.214,.453-.455,.026-.307,.043-.64,.043-.989s-.017-.682-.042-.987c-.02-.242-.211-.435-.453-.457-.618-.056-1.339-.057-1.958,0-.241,.022-.433,.214-.453,.455-.026,.307-.043,.639-.043,.989s.017,.682,.042,.987c.02,.242,.211,.434,.452,.457Zm.517-1.922c.305-.016,.625-.016,.928,0,.007,.154,.011,.314,.011,.478s-.004,.323-.011,.478c-.303,.014-.623,.015-.928,0-.007-.154-.011-.314-.011-.478s.004-.324,.011-.478Z"/>
  <path d="M9.442,14.246c-.067-.021-1.67-.496-3.805-.496-2.154,0-3.74,.476-3.807,.496-.163,.05-.289,.179-.335,.343-.021,.071-.495,1.774-.495,3.786s.475,3.714,.495,3.786c.046,.165,.174,.293,.337,.343,.067,.021,1.67,.496,3.806,.496,2.153,0,3.74-.476,3.807-.496,.163-.05,.29-.179,.335-.343,.021-.071,.495-1.774,.495-3.786s-.475-3.714-.495-3.786c-.046-.165-.174-.294-.337-.343Zm-.557,7.372c-.519,.127-1.744,.382-3.248,.382-1.493,0-2.726-.255-3.248-.383-.128-.542-.389-1.826-.389-3.242s.261-2.702,.389-3.243c.519-.127,1.744-.382,3.248-.382,1.493,0,2.726,.255,3.248,.383,.128,.542,.389,1.826,.389,3.242s-.261,2.702-.389,3.243Z"/>
  <path d="M6.624,16.942c-.615-.051-1.363-.052-1.974,0-.242,.02-.434,.21-.457,.452-.028,.311-.046,.643-.046,.981s.018,.669,.046,.979c.022,.242,.214,.433,.456,.453,.307,.026,.639,.042,.988,.042s.682-.016,.988-.042c.242-.021,.434-.212,.456-.454,.028-.311,.046-.641,.046-.979s-.018-.668-.046-.979c-.021-.242-.214-.434-.457-.454Zm-.51,1.897c-.308,.014-.646,.014-.955,0-.007-.152-.012-.307-.012-.464s.004-.312,.012-.464c.308-.014,.646-.015,.955,0,.008,.152,.012,.307,.012,.464s-.004,.312-.012,.464Z"/>
  <path d="M22.951,13.403c-.058-.624-.552-1.114-1.175-1.167-.647-.055-1.453-.056-2.105,0-.623,.053-1.117,.543-1.175,1.168-.029,.333-.049,.688-.049,1.05,0,.259,.01,.513,.027,.759-.566-.036-1.212-.036-1.781,0,.016-.245,.027-.5,.027-.758,0-.363-.02-.717-.049-1.05h0c-.058-.625-.552-1.116-1.175-1.168-.646-.055-1.453-.056-2.105,0-.623,.053-1.117,.543-1.174,1.167-.03,.333-.049,.688-.049,1.051s.019,.717,.049,1.051c.058,.623,.551,1.113,1.174,1.166,.324,.028,.688,.042,1.054,.042,.26,0,.519-.007,.765-.021-.021,.285-.033,.581-.033,.883,0,.319,.014,.629,.037,.928-.589-.034-1.262-.028-1.822,.02-.623,.053-1.117,.543-1.174,1.167-.03,.333-.049,.688-.049,1.051s.019,.717,.049,1.051c.058,.624,.551,1.114,1.174,1.167,.324,.027,.688,.041,1.054,.041,.362,0,.727-.013,1.052-.041,.623-.052,1.117-.543,1.175-1.168,.029-.333,.049-.688,.049-1.05,0-.274-.011-.544-.029-.803,.284,.018,.589,.027,.895,.027,.389,0,.778-.014,1.127-.043,.65-.055,1.167-.567,1.228-1.221,.031-.356,.053-.736,.053-1.125,0-.303-.013-.599-.034-.883,.245,.014,.505,.021,.766,.021,.363,0,.727-.014,1.052-.041,.623-.052,1.117-.543,1.175-1.167,.029-.333,.049-.688,.049-1.05s-.02-.717-.049-1.05h0Zm-9.477,2.271c-.139-.012-.249-.122-.263-.261-.027-.305-.045-.628-.045-.96s.018-.656,.045-.96c.014-.14,.124-.25,.262-.262,.3-.025,.635-.038,.969-.038,.336,0,.672,.013,.97,.038,.139,.012,.249,.122,.263,.261,.027,.305,.045,.628,.045,.96s-.018,.657-.045,.96c-.013,.14-.123,.25-.263,.262-.599,.05-1.341,.05-1.938,0Zm2.2,6.025c-.013,.14-.123,.25-.262,.261-.601,.05-1.344,.05-1.938,0-.139-.012-.249-.122-.263-.261-.027-.305-.045-.628-.045-.96s.018-.656,.045-.96c.014-.14,.124-.25,.262-.261,.3-.025,.635-.038,.969-.038,.336,0,.672,.013,.97,.038,.14,.012,.25,.122,.263,.262,.027,.305,.045,.628,.045,.959s-.018,.657-.045,.96Zm3.269-3.091c-.016,.168-.148,.301-.314,.315-.648,.054-1.448,.054-2.089,0-.168-.014-.301-.146-.315-.314-.03-.328-.049-.677-.049-1.035s.019-.707,.049-1.036c.015-.167,.147-.3,.314-.314,.323-.026,.684-.04,1.044-.04s.724,.014,1.045,.041c.167,.014,.3,.146,.315,.315,.029,.328,.049,.677,.049,1.034s-.02,.708-.049,1.034Zm3.012-3.195c-.013,.14-.123,.25-.263,.262-.599,.05-1.341,.05-1.938,0-.14-.012-.25-.122-.263-.26-.027-.305-.045-.628-.045-.961s.018-.657,.045-.96c.013-.14,.123-.25,.262-.262,.3-.025,.635-.038,.969-.038,.336,0,.672,.013,.97,.038,.139,.012,.249,.122,.263,.261,.027,.305,.045,.628,.045,.96s-.018,.657-.045,.96Z"/>
</svg>
