<svg id="Layer_1" viewBox="0 0 24 24" xmlns="http://www.w3.org/2000/svg" data-name="Layer 1"><path d="m19.773 10.919c1.878-.187 3.727-.814 3.727-2.919s-1.916-3.812-3.802-4.551c-.09-.038-1.483-.623-3.329-1.037-2.466-.67-5.957-1.411-9.369-1.411-.209 0-.396.13-.469.326s-.016.416.142.553c.386.333.829.681 1.296 1.032-.824.311-1.61.702-2.273 1.21-.125.096-.197.244-.196.401s.076.304.202.398c1.942 1.439 5.209 2.01 7.798 2.074v.006c0 .79.127 1.446.354 2h-5.854c-1.376 0-2.484.235-3.376.677-.279-.375-.768-.677-1.627-.677-1.309 0-2 .691-2 2 0 1.024.429 1.664 1.241 1.897-.144.629-.238 1.313-.238 2.103 0 4.093 1.907 6 6 6 1.149 0 1.5.351 1.5 1.5 0 .276.224.5.5.5h1.5c.146 0 3.61-.012 7.138-1.019.266-.076.419-.353.343-.618s-.351-.418-.618-.344c-1.262.361-2.53.588-3.628.733 1.15-1.915 2.449-4.369 2.969-5.468 1.179-2.481 1.771-4.248 2.07-5.366zm-12.867-6.41c1.742-1.039 4.232-1.509 6.094-1.509 2.547 0 5.211.943 6.047 1.266 1.62.575 3.449 1.991 3.453 3.734 0 1.673-1.833 2-5 2-2.131 0-3-.869-3-3h1.5c.276 0 .5-.224.5-.5s-.224-.5-.5-.5h-2c-2.244 0-5.166-.4-7.094-1.491zm-4.909 6.491c0-.757.243-1 1-1 .433 0 .656.092.784.221-.544.447-.959 1.023-1.249 1.73-.394-.102-.535-.38-.535-.951zm12.003 10.034v-.034c0-3.996-1.69-5.843-5.48-5.99-.269-.021-.508.204-.519.48s.204.508.48.519c3.252.126 4.52 1.525 4.52 4.991v.93c-.905.067-1.486.07-1.5.07h-1.025c-.148-1.361-.945-2-2.475-2-3.505 0-5-1.495-5-5s1.495-5 5-5h6.484c.664.669 1.665 1 3.016 1 .371 0 .786-.001 1.216-.015-.289.996-.849 2.625-1.916 4.87-.502 1.059-1.728 3.371-2.8 5.179z"/></svg>