<svg id="Layer_1" viewBox="0 0 24 24" xmlns="http://www.w3.org/2000/svg" data-name="Layer 1"><path d="m22.408 21.009c-.482.091-.949.173-1.41.249-.014-2.908-.264-5.311-.476-6.827-.039-.274-.294-.466-.564-.426-.273.038-.464.291-.426.564.212 1.512.463 3.922.468 6.844-.668.098-1.331.182-2.007.252-.01-1.739-.091-3.49-.255-5.213-.026-.275-.263-.481-.545-.45-.275.026-.477.27-.45.545.164 1.722.245 3.474.253 5.211-2.208.186-4.656.251-7.994.242-1.898 0-3.376-.291-4.474-.912.392-.821.772-2.923 1.048-5.192.896-2.802 2.604-4.435 5.962-4.81.995.921 2.543 2.04 4.788 2.882.113.042.238.042.352 0 4.476-1.678 6.183-4.458 6.253-4.575.141-.284.044-.632.065-.931-.059-4.949-.774-7.463-2.13-7.463-.758.165-1.1 1.252-1.25 1.756-.636-.262-1.71-.588-3.114-.588-1.388 0-2.453.319-3.091.579-.115-.533-.481-1.571-1.272-1.747-1.357 0-2.071 2.514-2.13 7.463.021.299-.075.646.065.931.023.038.221.357.625.825-2.174.399-3.777 1.331-4.837 2.822.089-1.144.141-2.21.141-3.041-.008-2.186-.088-5.375-.277-7.367-.098-.83-.734-1.484-1.546-1.59-.402-.053-.951-.053-1.354 0-.812.106-1.448.76-1.546 1.59-.19 1.996-.269 5.176-.277 7.367v5.5c-.112 5.395 3.117 7.728 8.65 7.501 5.78 0 8.88-.247 12.942-1.01.271-.051.45-.312.399-.583-.05-.271-.309-.447-.583-.399zm-5.908-8.044c-2.484-.966-4.01-2.289-4.826-3.167.909.183 2.186.21 3.326.202.67 0 1.168-.163 1.5-.492.332.329.83.492 1.5.492 1.141.007 2.417-.02 3.326-.202-.816.878-2.342 2.202-4.826 3.167zm5.495-4.464c-.087.135-.61.522-3.802.5-.81.033-1.236-.109-1.192-1 0-.794.206-1 1-1 1.249 0 3.898.986 3.994 1.461zm-9.959-6.413c.356.407.429.955.466 1.449.017.363.461.588.763.387.012-.007 1.247-.756 3.235-.756s3.223.749 3.235.756c.306.203.751-.028.764-.394.01-.155.075-.867.481-1.416.26.309.827 1.398.98 5.042-1.289-.769-3.387-1.157-3.961-1.157-.67 0-1.168.163-1.5.492-.332-.329-.83-.492-1.5-.492-.573 0-2.672.388-3.961 1.157.158-3.764.757-4.801.997-5.069zm-1.03 6.394c.063-.484 2.738-1.482 3.994-1.482.794 0 1 .206 1 1 .044.892-.383 1.033-1.192 1-3.254 0-3.727-.373-3.802-.492 0-.009 0-.017 0-.026zm-8.735-5.732c.043-.369.331-.669.683-.716.163-.021.346-.035.547-.035s.384.013.547.035c.352.046.639.347.683.716.043.362.09 1.077.133 1.961-.323.124-.849.289-1.362.289s-1.039-.165-1.362-.289c.043-.884.09-1.599.133-1.961zm-.178 3.004c.389.126.894.246 1.407.246s1.018-.12 1.407-.246c.036.928.065 1.945.081 2.906-.296.123-.899.34-1.488.34s-1.192-.217-1.488-.34c.015-.961.044-1.978.081-2.906zm-.092 3.969c.4.136.943.276 1.499.276s1.099-.14 1.499-.276c.008.934-.033 1.877-.108 2.939-.163.083-.72.337-1.391.337-.596 0-1.208-.222-1.5-.344v-2.932zm0 5.776v-1.776c.4.136.943.276 1.5.276.508 0 .958-.108 1.3-.223-.263 2.867-.735 5.771-1.101 6.716-1.164-1.054-1.699-2.69-1.699-4.994z"/></svg>