<svg id="Layer_1" viewBox="0 0 24 24" xmlns="http://www.w3.org/2000/svg" data-name="Layer 1"><path d="m9 14.5c0 .276-.224.5-.5.5h-4c-.276 0-.5-.224-.5-.5s.224-.5.5-.5h4c.276 0 .5.224.5.5zm-.5 2.5h-4c-.276 0-.5.224-.5.5s.224.5.5.5h4c.276 0 .5-.224.5-.5s-.224-.5-.5-.5zm11-1c0 2.767-1.233 4-4 4s-4-1.233-4-4 1.233-4 4-4 4 1.233 4 4zm-1 0c0-2.215-.785-3-3-3s-3 .785-3 3 .785 3 3 3 3-.785 3-3zm4.5-2c0 4.543-.764 7.646-.796 7.776-.045.18-.186.32-.365.364-.143.035-3.551.859-9.839.859s-9.696-.824-9.839-.859c-.18-.044-.32-.185-.365-.364-.032-.13-.796-3.233-.796-7.776s.764-7.646.796-7.776c.033-.128.13-.23.232-.31 4.788-2.814 10.657-4.468 17.439-4.913.271-.014.514.19.532.466s-.19.514-.466.532c-5.367.352-10.127 1.487-14.22 3.353 1.627-.186 3.864-.352 6.687-.352 6.288 0 9.696.824 9.839.859.18.044.32.185.365.364.032.13.796 3.233.796 7.776zm-11-8c-5.122 0-8.346.569-9.301.766-.104.487-.307 1.563-.468 3.031 1.034-.213 4.361-.796 9.768-.796s8.736.584 9.769.797c-.161-1.469-.364-2.544-.468-3.031-.955-.196-4.179-.766-9.301-.766zm10 8c0-1.16-.055-2.214-.132-3.159-.163-.038-3.654-.841-9.868-.841s-9.702.802-9.867.84c-.077.946-.133 2-.133 3.16 0 3.63.512 6.358.699 7.234.955.196 4.179.766 9.301.766s8.346-.569 9.301-.766c.188-.877.699-3.611.699-7.234z"/></svg>