<svg id="Layer_1" viewBox="0 0 24 24" xmlns="http://www.w3.org/2000/svg" data-name="Layer 1"><path d="m22.5 12h-8.537c-.085-.561-.323-.961-.719-1.206l4.309-7.195c.069-.116.089-.255.055-.385-.035-.131-.121-.242-.239-.308-3.275-1.837-7.463-1.837-10.738 0-.118.066-.204.177-.239.308-.034.13-.015.27.055.386l4.314 7.192c-.398.245-.638.647-.723 1.209-2.04 0-7.073 0-8.538.002-.275 0-.499.224-.499.5 0 3.793 1.924 7.271 5.147 9.303.114.073.255.095.386.063.132-.033.245-.117.312-.234l4.235-7.274c.26.092.564.141.92.141.386 0 .708-.06.981-.169l4.17 7.298c.068.119.182.204.313.237.132.032.273.011.388-.062 3.224-2.032 5.147-5.51 5.147-9.304 0-.276-.224-.5-.5-.5zm-14.925-8.463c2.748-1.357 6.102-1.357 8.85 0l-4.179 6.979c-.156-.019-.328-.019-.484 0zm-1.326 17.134c-2.534-1.782-4.085-4.589-4.236-7.671h8.024c.043.286.126.532.25.736zm4.751-8.171c0-.794.206-1 1-1s1 .206 1 1-.206 1-1 1-1-.206-1-1zm6.755 8.168-4.004-7.008c.102-.189.174-.407.213-.662 1.845 0 6.136 0 8.024.002-.151 3.079-1.701 5.885-4.232 7.667z"/></svg>