<?xml version="1.0" encoding="UTF-8"?>
<svg xmlns="http://www.w3.org/2000/svg" id="Layer_1" data-name="Layer 1" viewBox="0 0 24 24">
  <path d="M13.995,20.249h-.02c-.276-.012-.491-.244-.48-.52,0-.026,.104-2.657,.104-3.521,0-.76-.073-2.245-.111-2.978-.717-.057-2.26-.057-2.977,0-.039,.732-.112,2.218-.112,2.978,0,.864,.104,3.495,.105,3.521,.011,.275-.204,.508-.48,.52-.309,.011-.509-.205-.52-.48-.004-.108-.105-2.677-.105-3.561,0-1.057,.132-3.365,.138-3.463,.014-.243,.2-.44,.441-.469,.039-.004,.963-.109,2.021-.109s1.982,.105,2.021,.109c.241,.028,.428,.226,.441,.469,.006,.098,.137,2.406,.137,3.463,0,.884-.101,3.452-.104,3.561-.011,.27-.232,.48-.5,.48Z"/>
  <path d="M12,7.953h0c-4.957,0-6.799,2.134-6.799,7.874,0,.553,.08,3.949,.081,3.953,.011,.275,.211,.491,.52,.48,.276-.012,.491-.244,.48-.52,0-.005-.081-3.359-.081-3.914,0-5.204,1.409-6.874,5.8-6.874,4.39,0,5.8,1.67,5.8,6.874,0,.555-.08,3.909-.081,3.914-.011,.275,.204,.508,.48,.52,.309,.011,.509-.205,.52-.48,0-.004,.081-3.399,.081-3.953,0-5.74-1.874-7.874-6.799-7.874Z"/>
  <path d="M12,3.739C4.804,3.739,1,7.919,1,15.827c0,.526,.077,3.939,.077,3.941,.011,.275,.211,.491,.52,.48,.276-.012,.491-.244,.48-.52,0-.005-.077-3.375-.077-3.902,0-7.461,3.271-11.088,10-11.088s10,3.627,10,11.088c0,.527-.077,3.897-.077,3.902-.011,.275,.204,.508,.48,.52,.309,.011,.509-.205,.52-.48,0-.002,.077-3.415,.077-3.941,0-7.908-3.804-12.088-11-12.088Z"/>
</svg>
