<svg id="Layer_1" viewBox="0 0 24 24" xmlns="http://www.w3.org/2000/svg" data-name="Layer 1"><path d="m23 13.5c0-1.282-.237-3.004-2.018-3.682.004-.109.018-.204.018-.318v-2c0-.371-.025-.729-.076-1.088.686-.3 1.316-.67 1.881-1.103.131-.101.204-.259.194-.425-.009-.165-.1-.315-.241-.4-.372-.224-1.811-.881-3.747-1.241.055-.94.433-1.244 1.489-1.244.276 0 .5-.224.5-.5s-.224-.5-.5-.5c-1.563 0-2.352.676-2.475 2.098-.491-.057-.996-.098-1.525-.098s-1.034.042-1.525.098c-.123-1.423-.912-2.098-2.475-2.098-.276 0-.5.224-.5.5s.224.5.5.5c1.056 0 1.434.304 1.489 1.244-1.936.359-3.374 1.017-3.747 1.241-.142.085-.232.235-.241.4-.01.166.063.324.194.425.564.433 1.195.803 1.881 1.103-.051.358-.076.717-.076 1.088v2c0 3.154 1.346 4.5 4.5 4.5 2.656 0 4.017-.97 4.385-3.155.623.317 1.115.976 1.115 2.655 0 2.125-.799 2.625-1.662 2.848-.24.062-.398.291-.372.538.021.192.034.394.034.614 0 1.869-.631 2.5-2.5 2.5-.93 0-1.563-.177-1.936-.54-.121-.119-.297-.167-.457-.131-.165.036-.3.152-.359.311-.257.673-.784 1.36-2.748 1.36s-2.491-.688-2.748-1.36c-.06-.158-.194-.274-.359-.311-.162-.036-.336.012-.457.131-.372.363-1.006.54-1.936.54-1.869 0-2.5-.631-2.5-2.5 0-.195.015-.369.03-.542.023-.258-.155-.491-.411-.536-.972-.172-1.619-.649-1.619-2.422s.64-2.243 1.601-2.417c.256-.047.425-.324.399-.583 0-2.215.785-3 3-3h2.5c.276 0 .5-.224.5-.5s-.224-.5-.5-.5h-2.5c-2.663 0-3.906 1.144-3.995 3.697-1.787.53-2.005 2.118-2.005 3.303s.219 2.772 2.004 3.304c-.072 1.838.572 3.122 1.996 3.505v.692c0 .995.505 1.5 1.5 1.5s1.5-.505 1.5-1.5v-.692c.218-.065.423-.14.603-.239.806 1.271 2.293 1.432 3.397 1.432s2.592-.161 3.397-1.432c.18.1.385.175.603.239v.692c0 .995.505 1.5 1.5 1.5s1.5-.505 1.5-1.5v-.692c1.369-.403 2-1.464 2-3.308 0-.107-.003-.211-.008-.312 1.79-.679 2.008-2.408 2.008-3.688zm-3-4c0 2.584-.916 3.5-3.5 3.5s-3.5-.916-3.5-3.5v-2c0-.451.04-.864.126-1.301.047-.238-.083-.475-.309-.562-.468-.182-.909-.399-1.319-.647 1.01-.416 2.853-.989 5.002-.989s3.992.574 5.002.989c-.41.249-.852.465-1.319.647-.226.088-.355.325-.309.562.086.437.126.85.126 1.301zm-13 12c0 .439-.061.5-.5.5s-.5-.061-.5-.5v-.53c.164.012.321.03.5.03.177 0 .339-.01.5-.021zm11 0c0 .439-.061.5-.5.5s-.5-.061-.5-.5v-.521c.161.011.323.021.5.021.179 0 .336-.018.5-.03z"/></svg>