<svg id="Layer_1" viewBox="0 0 24 24" xmlns="http://www.w3.org/2000/svg" data-name="Layer 1"><path d="m2.5 12.5c.276 0 .5-.224.5-.5 0-4.175.781-7.889 1.013-8.899.899-.267 4.031-1.101 7.987-1.101 3.925 0 7.081.835 7.987 1.102.232 1.013 1.013 4.732 1.013 8.898 0 .276.224.5.5.5s.5-.224.5-.5c0-4.998-1.063-9.237-1.108-9.415-.042-.165-.165-.297-.326-.351-.15-.05-3.749-1.234-8.565-1.234-4.858 0-8.419 1.184-8.568 1.234-.16.054-.283.186-.324.35-.045.178-1.108 4.406-1.108 9.416 0 .276.224.5.5.5z"/><path d="m17.735 11.797c-.047-.106-.13-.193-.234-.245-.09-.045-2.254-1.102-5.5-1.102s-5.41 1.057-5.5 1.102c-.104.052-.187.138-.234.245l-4.224 9.5c-.062.14-.057.3.014.435s.199.23.349.259c.053.01 5.337 1.009 9.594 1.009 4.292 0 9.542-.999 9.594-1.009.15-.029.278-.125.349-.26.07-.135.076-.295.014-.435l-4.222-9.5zm-5.735 10.203c-3.311 0-7.276-.622-8.784-.88l3.885-8.742c.533-.228 2.375-.927 4.898-.927s4.366.7 4.898.927l3.886 8.743c-1.501.259-5.446.879-8.784.879z"/></svg>