<svg id="Layer_1" viewBox="0 0 24 24" xmlns="http://www.w3.org/2000/svg" data-name="Layer 1"><path d="m19.5 9c.995 0 1.5-.505 1.5-1.5s-.505-1.5-1.5-1.5-1.5.505-1.5 1.5.505 1.5 1.5 1.5zm0-2c.439 0 .5.061.5.5s-.061.5-.5.5-.5-.061-.5-.5.061-.5.5-.5zm-2.235 5.703c.502.135 1.295.297 2.235.297.939 0 1.733-.161 2.235-.297.537-.146.868-.723.736-1.285-.284-1.219-1.367-1.918-2.971-1.918s-2.688.699-2.971 1.918c-.131.562.199 1.14.736 1.285zm2.235-2.203c.79 0 1.777.198 1.973 1.238-.442.119-1.144.262-1.973.262s-1.567-.151-2.01-.27c.212-1.047 1.22-1.23 2.01-1.23zm-15-3.5c.995 0 1.5-.505 1.5-1.5s-.505-1.5-1.5-1.5-1.5.505-1.5 1.5.505 1.5 1.5 1.5zm0-2c.439 0 .5.061.5.5s-.061.5-.5.5-.5-.061-.5-.5.061-.5.5-.5zm7.5-1c.995 0 1.5-.505 1.5-1.5s-.505-1.5-1.5-1.5-1.5.505-1.5 1.5.505 1.5 1.5 1.5zm0-2c.439 0 .5.061.5.5s-.061.5-.5.5-.5-.061-.5-.5.061-.5.5-.5zm10.743 13.629c-.041-.21-.211-.371-.424-.399-.069-.01-1.711-.229-3.063-.229-1.528 0-2.733.118-3.275.183-.083-2.587-.42-4.246-.436-4.324-.037-.177-.167-.32-.339-.375-.062-.02-1.548-.483-3.207-.483s-3.144.464-3.207.483c-.172.055-.302.198-.339.375-.012.058-.196.973-.326 2.474-.664-.118-2.007-.333-2.967-.333-1.701 0-3.343.334-3.412.349-.18.036-.325.169-.378.345-.016.051-.372 1.263-.372 3.807 0 1.995.307 4.018.414 4.568.04.206.204.364.411.397.135.022 3.388.534 10.175.534s10.087-.517 10.224-.538c.195-.031.353-.175.404-.365.13-.486.372-1.894.372-3.097 0-2.024-.246-3.316-.257-3.371zm-20.409 5.898c-.127-.788-.334-2.414-.334-4.027 0-1.693.166-2.756.262-3.229.544-.094 1.723-.271 2.899-.271.931 0 2.315.231 2.897.336-.034.605-.058 1.266-.058 1.992 0 2.511.262 4.712.386 5.619-3.282-.102-5.291-.321-6.052-.418zm12.266.442c-.809.018-1.659.031-2.6.031s-1.792-.013-2.6-.031c-.106-.751-.4-3.057-.4-5.642 0-2.45.264-4.283.38-4.97.485-.126 1.524-.357 2.62-.357s2.135.231 2.62.357c.116.687.38 2.52.38 4.97 0 2.585-.293 4.891-.4 5.642zm7.134-.45c-.753.097-2.793.322-6.12.426.125-.907.386-3.107.386-5.618 0-.048-.002-.09-.002-.138.436-.055 1.671-.189 3.259-.189.915 0 2.004.11 2.562.175.07.501.182 1.504.182 2.825 0 .896-.149 1.936-.266 2.52zm-19.469-10.816c.502.135 1.295.297 2.235.297.939 0 1.733-.161 2.235-.297.537-.146.868-.723.736-1.285-.284-1.219-1.367-1.918-2.971-1.918s-2.688.699-2.971 1.918c-.131.562.199 1.14.736 1.285zm2.235-2.203c.79 0 1.777.198 1.973 1.238-.442.119-1.144.262-1.973.262s-1.578-.154-2.02-.273c.232-1.018 1.231-1.227 2.02-1.227zm5.265-.797c.502.135 1.295.297 2.235.297.939 0 1.733-.161 2.235-.297.537-.146.868-.723.736-1.285-.284-1.219-1.367-1.918-2.971-1.918s-2.688.699-2.971 1.918c-.131.562.199 1.14.736 1.285zm2.235-2.203c.79 0 1.777.198 1.973 1.238-.442.119-1.144.262-1.973.262s-1.587-.147-2.029-.266c.246-1.033 1.24-1.234 2.029-1.234z"/></svg>