<svg id="Layer_1" viewBox="0 0 24 24" xmlns="http://www.w3.org/2000/svg" data-name="Layer 1"><path d="m22.697 6.342c-.08-.24-.323-.384-.576-.332-.038.008-.957.204-2.451 1.072-.8.464-1.341.873-1.683 1.161-.054-1.709-.268-3.24-.278-3.313-.039-.274-.285-.468-.565-.425-.273.039-.463.292-.425.565.003.018.232 1.683.273 3.43h-1.992s-.003 0-.004 0c-.044-3.534-.538-7.035-.542-7.072-.035-.246-.246-.429-.495-.429-2.487 0-5.184.81-7.842 2.33-.957-.634-3.452-1.456-3.232-1.322-.232-.042-.469.089-.555.312-.013.035-.329.873-.329 2.482 0 .571.046 1.093.122 1.572-.755.884-1.122 1.75-1.122 2.628 0 1.263.764 2.499 2.351 3.804-1.662 4.49-2.392 8.355-2.346 8.298-.022.154.028.31.137.421.027.028.685.696 1.968 1.138.822.284 1.499.337 1.89.337.427-.018.52.016.729-.266.052-.091 1.276-2.261 2.904-6.863 1.789.692 3.625 1.089 5.314 1.13h.012c.248 0 .46-.183.495-.429.005-.037.498-3.537.542-7.072h.004 1.992c-.04 1.747-.27 3.412-.273 3.43-.038.273.151.526.425.565.268.039.528-.15.565-.425.01-.073.224-1.604.278-3.313.342.289.882.697 1.683 1.161 1.494.868 2.413 1.064 2.451 1.072.243.051.497-.09.576-.332.012-.037.303-.93.303-2.658s-.291-2.621-.303-2.658zm-19.546-3.232c.383.115 1.175.404 1.97.821-.828.53-1.526 1.045-2.097 1.55-.014-.206-.024-.426-.024-.679 0-.775.08-1.341.151-1.692zm1.837 18.89c-.302-.001-.861-.043-1.553-.282s-1.158-.551-1.395-.734c.109-.677.779-3.712 2.13-7.552.404.29.834.582 1.319.881.715.44 1.46.828 2.219 1.168-1.304 3.698-2.365 5.84-2.721 6.519zm8.534-6.019c-2.425-.152-5.134-1.058-7.509-2.52-2.7-1.662-4.014-3.121-4.014-4.458s1.313-2.797 4.014-4.459c2.545-1.566 5.13-2.438 7.507-2.534.139 1.099.479 4.09.479 6.991s-.338 5.873-.478 6.98zm8.333-5.118c-.37-.136-.947-.382-1.684-.81-.741-.43-1.236-.802-1.534-1.053.298-.25.793-.623 1.534-1.053.736-.428 1.313-.675 1.684-.81.068.389.145 1.011.145 1.863s-.076 1.475-.145 1.863z"/></svg>