<?xml version="1.0" encoding="UTF-8"?>
<svg xmlns="http://www.w3.org/2000/svg" id="Layer_1" data-name="Layer 1" viewBox="0 0 24 24">
  <path d="M20.867,3.797c-.141-1.125-1.016-2.042-2.128-2.229-4.473-.753-9.006-.753-13.479,0-1.112,.188-1.987,1.104-2.128,2.229-.67,5.337-.695,10.75-.077,16.086,.065,.551,.362,1.057,.814,1.389,.424,.311,.844,.622,1.261,.932,.644,.479,1.503,.534,2.188,.144,.362-.205,.728-.418,1.099-.64,.355-.21,.803-.196,1.138,.037h0l1.31,.904c.343,.235,.734,.353,1.126,.353s.784-.118,1.125-.352l1.312-.905c.339-.233,.784-.246,1.138-.037,.373,.222,.742,.437,1.106,.643,.686,.389,1.543,.334,2.187-.144,.419-.312,.843-.624,1.269-.937,.454-.332,.751-.838,.816-1.39,.618-5.336,.593-10.748-.077-16.083Zm-.917,15.968c-.032,.276-.183,.531-.412,.699-.43,.313-.855,.627-1.275,.941-.324,.24-.755,.27-1.097,.076-.357-.203-.721-.415-1.089-.633-.691-.411-1.562-.379-2.217,.075l-1.309,.902c-.339,.233-.778,.234-1.119,0l-1.307-.902c-.658-.456-1.528-.485-2.22-.074-.365,.217-.725,.428-1.08,.629-.343,.195-.774,.165-1.098-.076-.419-.312-.841-.624-1.268-.937-.229-.168-.379-.423-.411-.698-.61-5.257-.585-10.588,.075-15.846,.087-.69,.622-1.252,1.302-1.367,4.361-.735,8.785-.735,13.146,0,.68,.115,1.215,.677,1.302,1.368,.66,5.256,.686,10.587,.075,15.843Z"/>
  <path d="M15.685,6.436h-7.369c-.276,0-.5,.224-.5,.5s.224,.5,.5,.5h7.369c.276,0,.5-.224,.5-.5s-.224-.5-.5-.5Z"/>
  <path d="M15.685,10.449h-7.369c-.276,0-.5,.224-.5,.5s.224,.5,.5,.5h7.369c.276,0,.5-.224,.5-.5s-.224-.5-.5-.5Z"/>
  <path d="M12.168,14.415h-3.853c-.276,0-.5,.224-.5,.5s.224,.5,.5,.5h3.853c.276,0,.5-.224,.5-.5s-.224-.5-.5-.5Z"/>
</svg>
