<?xml version="1.0" encoding="UTF-8"?>
<svg xmlns="http://www.w3.org/2000/svg" id="Layer_1" data-name="Layer 1" viewBox="0 0 24 24">
  <path d="M21.766,3.433c-.054-.16-.186-.283-.35-.324-.178-.045-4.406-1.108-9.416-1.108S2.763,3.063,2.585,3.108c-.165,.042-.297,.165-.351,.326-.05,.15-1.234,3.749-1.234,8.565,0,4.857,1.184,8.418,1.234,8.567,.054,.16,.186,.283,.35,.324,.178,.045,4.406,1.108,9.416,1.108s9.237-1.063,9.415-1.108c.165-.042,.297-.165,.351-.326,.05-.15,1.234-3.749,1.234-8.565,0-4.857-1.184-8.418-1.234-8.567Zm-.868,16.554c-1.013,.232-4.732,1.013-8.898,1.013s-7.889-.781-8.899-1.013c-.267-.899-1.101-4.031-1.101-7.987,0-3.925,.835-7.081,1.102-7.987,1.013-.232,4.732-1.013,8.898-1.013s7.889,.781,8.899,1.013c.267,.899,1.101,4.031,1.101,7.987,0,3.925-.835,7.081-1.102,7.987Z"/>
  <path d="M9.963,15.099c-1.74-1.095-2.803-2.532-3.18-3.1,.375-.567,1.432-1.999,3.18-3.099,.234-.147,.304-.456,.157-.689-.147-.234-.456-.303-.689-.157-2.43,1.529-3.624,3.612-3.673,3.7-.086,.152-.086,.339,0,.491,.05,.088,1.244,2.171,3.673,3.7,.083,.052,.441,.194,.689-.157,.159-.225,.077-.542-.157-.689Z"/>
  <path d="M14.572,8.054c-.234-.146-.542-.077-.689,.157-.147,.233-.077,.542,.157,.689,1.748,1.1,2.805,2.532,3.18,3.099-.377,.568-1.44,2.004-3.18,3.1-.234,.147-.317,.464-.157,.689,.248,.351,.607,.209,.689,.157,2.43-1.529,3.624-3.612,3.673-3.7,.086-.152,.086-.339,0-.491-.05-.088-1.244-2.171-3.673-3.7Z"/>
</svg>
