<?xml version="1.0" encoding="UTF-8"?>
<svg xmlns="http://www.w3.org/2000/svg" id="Layer_1" data-name="Layer 1" viewBox="0 0 24 24">
  <path d="M21.767,3.435c-.055-.162-.187-.285-.352-.326-.178-.045-4.417-1.108-9.415-1.108S2.762,3.063,2.585,3.108c-.165,.042-.297,.164-.351,.324-.051,.149-1.234,3.71-1.234,8.567,0,4.816,1.184,8.415,1.233,8.565,.055,.162,.187,.285,.352,.326,.178,.045,4.417,1.108,9.415,1.108s9.238-1.063,9.415-1.108c.165-.042,.297-.164,.351-.324,.051-.149,1.234-3.71,1.234-8.567,0-4.816-1.184-8.415-1.233-8.565Zm-.868,16.552c-1.01,.232-4.724,1.013-8.898,1.013s-7.885-.781-8.898-1.013c-.266-.906-1.102-4.062-1.102-7.987,0-3.956,.835-7.088,1.102-7.987,1.01-.232,4.724-1.013,8.898-1.013s7.885,.781,8.898,1.013c.266,.906,1.102,4.062,1.102,7.987,0,3.956-.835,7.088-1.102,7.987Z"/>
  <g>
    <path d="M5.197,7.599c-.276,0-.5,.224-.5,.5v7.892c0,.276,.224,.5,.5,.5s.5-.224,.5-.5v-7.892c0-.276-.224-.5-.5-.5Z"/>
    <path d="M9.381,7.278c-.276,0-.5,.224-.5,.5v8.444c0,.276,.224,.5,.5,.5s.5-.224,.5-.5V7.778c0-.276-.224-.5-.5-.5Z"/>
    <path d="M18.803,7.051c-.276,0-.5,.224-.5,.5v8.898c0,.276,.224,.5,.5,.5s.5-.224,.5-.5V7.551c0-.276-.224-.5-.5-.5Z"/>
    <path d="M14.627,6.778h0c.552,0,1,.448,1,1v8.607c0,.551-.448,.999-.999,.999h0c-.552,0-1-.448-1-1V7.777c0-.551,.448-.999,.999-.999Z"/>
  </g>
</svg>
