<svg id="Layer_1" viewBox="0 0 24 24" xmlns="http://www.w3.org/2000/svg" data-name="Layer 1"><path d="m8 9.936c0-2.567-2.113-2.928-4.401-2.936l-.577.004c-.208.001-.394.131-.466.326-.022.061-.556 1.533-.556 4.67-.024 2.172.296 4.764.334 4.611.06.271.335.437.597.376.27-.061.438-.328.378-.597-.002-.012-.239-1.101-.297-3.39h.59c2.175 0 4.398-.364 4.398-3.064zm-5 2.064c0-2.125.257-3.434.4-3.999h.199c2.875.009 3.4.659 3.4 1.935 0 1.307-.556 2.064-3.398 2.064h-.602zm12-2.064c0-2.567-2.113-2.928-4.401-2.936l-.577.004c-.208.001-.394.131-.466.326-.022.061-.556 1.533-.556 4.67-.024 2.172.296 4.764.334 4.611.06.271.335.437.597.376.27-.061.438-.328.378-.597-.002-.012-.239-1.101-.297-3.39.6.004 1.266.001 1.852-.065.119.079 1.538.751 2.146 3.663.053.273.324.447.588.392.271-.054.447-.317.393-.588-.398-1.991-1.217-3.125-1.847-3.736 1.077-.373 1.857-1.141 1.857-2.73zm-4.398 2.064h-.602c0-2.125.257-3.434.4-3.999h.199c2.875.009 3.4.659 3.4 1.935 0 1.307-.556 2.064-3.398 2.064zm8.398-5c-2.075 0-3 .925-3 3v4c0 2.075.925 3 3 3s3-.925 3-3v-4c0-2.075-.925-3-3-3zm2 7c0 1.514-.486 2-2 2s-2-.486-2-2v-4c0-1.514.486-2 2-2s2 .486 2 2zm-19.99-8.601c.26-1.265.524-1.978.535-2.008.057-.151.184-.266.34-.308.165-.044 4.118-1.084 10.115-1.084s9.95 1.04 10.115 1.084c.156.042.283.156.34.308.011.03.275.743.535 2.008.066.306-.179.604-.491.601-.232 0-.44-.163-.489-.399-.157-.767-.316-1.319-.41-1.614-.968-.227-4.592-.987-9.6-.987s-8.632.76-9.6.987c-.094.295-.253.847-.41 1.614-.057.271-.326.443-.591.389-.271-.056-.444-.32-.39-.59zm21.98 13.201c-.26 1.265-.524 1.978-.535 2.008-.057.151-.184.266-.34.308-.165.044-4.118 1.084-10.115 1.084s-9.95-1.04-10.115-1.084c-.156-.042-.283-.156-.34-.308-.011-.03-.275-.743-.535-2.008-.055-.271.119-.535.39-.59.266-.052.534.118.591.389.157.767.316 1.319.41 1.614.968.227 4.592.987 9.6.987s8.632-.76 9.6-.987c.094-.295.253-.847.41-1.614.056-.271.323-.442.591-.389.271.056.444.32.39.59z"/></svg>