<?xml version="1.0" encoding="UTF-8"?>
<svg xmlns="http://www.w3.org/2000/svg" id="Layer_1" data-name="Layer 1" viewBox="0 0 24 24">
  <path d="M18.599,2.617c-.029-.16-.135-.295-.282-.363-.111-.051-2.769-1.254-6.316-1.254-3.579,0-6.208,1.204-6.318,1.254-.146,.068-.251,.204-.281,.363-.008,.043-.802,4.39-.802,9.383s.794,9.339,.802,9.383c.03,.16,.135,.295,.283,.363,.111,.051,2.767,1.254,6.316,1.254,3.578,0,6.208-1.204,6.318-1.254,.146-.068,.251-.204,.28-.363,.009-.043,.803-4.39,.803-9.383s-.794-9.339-.803-9.383Zm-.938,18.32c-.702,.281-2.902,1.062-5.661,1.062-2.737,0-4.953-.782-5.661-1.063-.167-1.005-.74-4.742-.74-8.937s.573-7.936,.74-8.938c.7-.281,2.892-1.062,5.661-1.062,2.736,0,4.953,.782,5.661,1.063,.168,1.005,.74,4.742,.74,8.937s-.572,7.935-.74,8.938Z"/>
</svg>
