<svg id="Layer_1" viewBox="0 0 24 24" xmlns="http://www.w3.org/2000/svg" data-name="Layer 1"><path d="m19 7.5c0 .276-.224.5-.5.5h-9c-.276 0-.5-.224-.5-.5s.224-.5.5-.5h9c.276 0 .5.224.5.5zm-13-.75c-.414 0-.75.336-.75.75s.336.75.75.75.75-.336.75-.75-.336-.75-.75-.75zm12.5 4.75h-9c-.276 0-.5.224-.5.5s.224.5.5.5h9c.276 0 .5-.224.5-.5s-.224-.5-.5-.5zm-12.5-.25c-.414 0-.75.336-.75.75s.336.75.75.75.75-.336.75-.75-.336-.75-.75-.75zm12.5 4.75h-9c-.276 0-.5.224-.5.5s.224.5.5.5h9c.276 0 .5-.224.5-.5s-.224-.5-.5-.5zm-12.5-.25c-.414 0-.75.336-.75.75s.336.75.75.75.75-.336.75-.75-.336-.75-.75-.75zm17-3.75c0 4.235-1.021 8.391-1.064 8.565-.041.165-.164.299-.326.353-.132.045-3.301 1.082-9.609 1.082s-9.478-1.037-9.609-1.082c-.162-.054-.285-.188-.326-.353-.043-.175-1.064-4.33-1.064-8.565s1.019-8.39 1.062-8.565c.041-.166.164-.299.326-.354.132-.044 3.301-1.082 9.609-1.082s9.478 1.038 9.609 1.082c.162.054.285.188.326.354.043.175 1.064 4.33 1.064 8.565zm-1 0c0-3.5-.743-7.047-.971-8.047-.87-.239-3.903-.953-9.029-.953s-8.159.714-9.029.953c-.228 1-.971 4.547-.971 8.047s.743 7.047.971 8.047c.87.238 3.903.953 9.029.953s8.159-.715 9.029-.953c.228-1 .971-4.547.971-8.047z"/></svg>