<svg id="Layer_1" viewBox="0 0 24 24" xmlns="http://www.w3.org/2000/svg" data-name="Layer 1"><path d="m11 22.49c0 .27-.23.49-.5.49h-.01c-5.34-.14-8.22-.97-8.34-1-.16-.05-.29-.17-.34-.33-.03-.11-.81-2.62-.81-6.65s.78-6.54.81-6.65c.05-.16.18-.28.34-.33.14-.04 3.55-1.02 9.85-1.02s9.71.98 9.85 1.02c.16.05.29.17.34.33 0 .03.24.77.45 2.07.04.27-.14.53-.41.57s-.53-.14-.57-.41c-.13-.79-.27-1.36-.35-1.67-.91-.22-4.14-.91-9.31-.91s-8.4.69-9.31.91c-.19.73-.69 2.95-.69 6.09s.5 5.36.69 6.09c.82.2 3.52.78 7.82.89.28 0 .49.24.49.51zm-6.43-17.05c1.54-.2 4.07-.44 7.43-.44s5.9.24 7.43.44h.07c.25 0 .46-.18.5-.44.04-.27-.16-.52-.43-.56-1.57-.21-4.15-.45-7.57-.45s-6 .24-7.57.45c-.27.04-.47.29-.43.56s.29.47.56.43zm1.97-3.22c3.43-.29 7.48-.29 10.92 0h.04c.26 0 .47-.2.5-.46.02-.28-.18-.52-.46-.54-3.49-.3-7.6-.3-11.08 0-.28.02-.48.27-.46.54s.28.48.54.46zm16.46 15.28c0 3.85-1.64 5.5-5.5 5.5s-5.5-1.65-5.5-5.5 1.64-5.5 5.5-5.5 5.5 1.65 5.5 5.5zm-1 0c0-3.28-1.22-4.5-4.5-4.5s-4.5 1.22-4.5 4.5 1.22 4.5 4.5 4.5 4.5-1.22 4.5-4.5zm-2.5-.5h-1.5v-1.5c0-.28-.22-.5-.5-.5s-.5.22-.5.5v1.5h-1.5c-.28 0-.5.22-.5.5s.22.5.5.5h1.5v1.5c0 .28.22.5.5.5s.5-.22.5-.5v-1.5h1.5c.28 0 .5-.22.5-.5s-.22-.5-.5-.5z"/></svg>