<svg id="Layer_1" viewBox="0 0 24 24" xmlns="http://www.w3.org/2000/svg" data-name="Layer 1"><path d="m16.889 15.667c2.705 0 3.911-1.206 3.911-3.911s-1.206-3.911-3.911-3.911-3.911 1.206-3.911 3.911 1.206 3.911 3.911 3.911zm0-6.845c2.166 0 2.933.768 2.933 2.933s-.768 2.933-2.933 2.933-2.933-.768-2.933-2.933.768-2.933 2.933-2.933zm-10.756-1.955c2.029 0 2.933-.905 2.933-2.933s-.905-2.933-2.933-2.933-2.933.905-2.933 2.933.905 2.933 2.933 2.933zm0-4.889c1.481 0 1.956.475 1.956 1.956s-.475 1.956-1.956 1.956-1.956-.475-1.956-1.956.475-1.956 1.956-1.956zm3.814 16.818c.13.174.13.413 0 .586-.862 1.15-1.882 2.169-3.031 3.031-.214.161-.522.12-.684-.098-.162-.216-.118-.522.098-.684.8-.6 1.513-1.301 2.168-2.053h-2.853c-.044 0-4.4-.062-4.4-5.378 0-.27.219-.489.489-.489s.489.219.489.489c0 4.35 3.282 4.4 3.422 4.4h2.853c-.655-.753-1.368-1.453-2.168-2.053-.216-.162-.26-.468-.098-.684.162-.217.468-.26.684-.098 1.15.862 2.169 1.882 3.031 3.031zm.951-7.617c.048.266-.128.52-.394.569-.26.048-.521-.127-.569-.394-.326-1.798-1.427-2.532-3.802-2.532s-3.477.733-3.802 2.532c-.048.265-.298.441-.569.394-.265-.048-.442-.303-.394-.569.418-2.306 1.887-3.335 4.765-3.335s4.347 1.028 4.765 3.335zm11.858 11.332c0 .27-.219.489-.489.489s-.489-.219-.489-.489c0-3.564-1.325-4.889-4.889-4.889s-4.889 1.325-4.889 4.889c0 .27-.219.489-.489.489s-.489-.219-.489-.489c0-4.112 1.755-5.867 5.867-5.867s5.867 1.755 5.867 5.867z"/></svg>