<svg id="Layer_1" viewBox="0 0 24 24" xmlns="http://www.w3.org/2000/svg" data-name="Layer 1"><path d="m19.837 2.38c-.05-.139-.159-.248-.297-.299-.119-.044-2.97-1.081-7.541-1.081s-7.421 1.037-7.541 1.081c-.138.051-.247.161-.297.299-.047.132-1.163 3.305-1.163 9.62s1.115 9.487 1.163 9.62c.05.139.159.248.297.299.119.044 2.97 1.081 7.541 1.081s7.421-1.037 7.541-1.081c.138-.051.247-.161.297-.299.047-.132 1.163-3.305 1.163-9.62s-1.115-9.487-1.163-9.62zm-14.804.564c.748-.236 3.3-.944 6.967-.944s6.22.708 6.967.944c.193.644.717 2.689.933 6.056h-3.005c-.083-1.256-.214-2.458-.403-3.583-.046-.273-.306-.456-.576-.411-.272.046-.456.304-.411.576.18 1.073.306 2.219.388 3.417h-11.794c.216-3.367.741-5.412.933-6.056zm13.934 18.112c-.748.236-3.3.944-6.967.944s-6.22-.708-6.967-.944c-.245-.818-1.033-3.861-1.033-9.056 0-.71.017-1.371.043-2h11.908c.029.668.049 1.347.049 2.045 0 1.907-.112 3.72-.333 5.389-.036.273.156.525.43.561.268.037.526-.155.561-.43.227-1.712.341-3.569.341-5.52 0-.698-.019-1.377-.048-2.045h3.005c.026.629.043 1.29.043 2 0 5.195-.788 8.238-1.033 9.056z"/></svg>