<svg id="Layer_1" viewBox="0 0 24 24" xmlns="http://www.w3.org/2000/svg" data-name="Layer 1"><path d="m21.82 10.331c-.043-.197-.2-.349-.398-.386-.499-.094-1.375-.288-1.843-.362-.272-.042-.529.142-.573.415-.044.272.142.529.415.573.393.063 1.026.197 1.49.293.153.737.295 1.547.423 2.397-4.196 3.392-8.771 5.598-9.478 5.929-2.499-1.827-5.825-4.516-8.866-7.81.034-.174.065-.356.1-.523.453-.106 1.097-.275 1.489-.338.273-.044.458-.301.415-.573-.044-.273-.299-.455-.573-.415-.46.071-1.365.319-1.843.414-.198.037-.355.188-.398.386-.684 3.132-1.18 7.76-1.18 11.002 0 .234.164.438.393.488.054.012 5.428 1.179 10.607 1.179s10.554-1.167 10.607-1.179c.229-.05.393-.254.393-.488 0-3.242-.496-7.87-1.18-11.002zm-19.818 10.595c.03-2.476.332-5.645.77-8.321 4.341 4.561 9.127 7.92 11.292 9.336-.683.037-1.375.059-2.065.059-4.266 0-8.677-.811-9.998-1.074zm13.743.895c-.062-.037-1.225-.737-2.966-1.967 1.428-.703 5.148-2.65 8.715-5.444.29 2.218.479 4.581.503 6.515-.929.185-3.39.641-6.252.895zm-4.066-5.936c.186.154.454.154.64 0 .232-.193 5.68-4.769 5.68-8.885 0-4.206-1.794-6-6-6s-6 1.794-6 6c0 4.116 5.448 8.691 5.68 8.885zm.32-13.885c3.645 0 5 1.355 5 5 0 3.119-3.851 6.806-5 7.836-1.149-1.03-5-4.717-5-7.836 0-3.645 1.355-5 5-5zm2 5c0-1.346-.654-2-2-2s-2 .654-2 2 .654 2 2 2 2-.654 2-2zm-3 0c0-.794.206-1 1-1s1 .206 1 1-.206 1-1 1-1-.206-1-1z"/></svg>