<svg id="Layer_1" viewBox="0 0 24 24" xmlns="http://www.w3.org/2000/svg" data-name="Layer 1"><path d="m22.831 16.905c-.051-.265-.301-.438-.568-.399-.808.127-1.938.256-3.167.351.074-.662.187-1.391.354-2.262.052-.271-.126-.534-.397-.586-.269-.049-.533.126-.585.396-.187.976-.309 1.783-.384 2.519-.804.046-1.624.076-2.409.076-2.44 0-4.784-.262-6.344-.442-.435-.052-.652.412-.517.78.067.405.181 1.083.181 1.69 0 1.399-.522 1.971-1.842 1.973-.5.039-1.001-.155-1.37-.466-.501-.463-.788-1.205-.788-2.036 0-1.888.459-4.008.944-6.253.519-2.397 1.056-4.877 1.056-7.247 0-1.231-.409-2.097-1.197-2.573 1.675-.28 3.597-.427 5.197-.427.276 0 .5-.224.5-.5s-.224-.5-.5-.5c-3.092.13-6.928.186-9.243 1.764-.505.507-.76 1.26-.757 2.236 0 1.098.09 2.156.174 2.595.05.259.292.439.554.401.017-.002 1.677-.211 4.077-.376-.199 1.464-.521 2.955-.837 4.416-.498 2.298-.967 4.47-.967 6.464 0 1.109.43 2.093 1.11 2.771 1.557 1.55 5.994 1.591 8.993 1.729 4.264 0 6.806-.431 8.039-1.389.595-.57.872-1.284.872-2.246 0-.945-.104-2.089-.176-2.46zm-20.743-9.959c-.049-.472-.095-1.186-.095-1.948-.002-.702.154-1.217.465-1.528.419-.378.93-.463 1.535-.47 1.402 0 2 .598 2 2 0 .529-.029 1.066-.079 1.61-1.746.116-3.13.259-3.826.336zm19.394 13.908c-.981.76-3.466 1.146-7.386 1.146-1.787 0-3.633-.168-5.18-.45.622-.415 1.078-1.178 1.078-2.521 0-.487-.061-.993-.122-1.401 1.509.17 3.54.372 5.619.372 2.2-.002 4.756-.204 6.419-.432.048.474.096 1.178.096 1.797 0 .689-.168 1.145-.524 1.489zm-3.988-8.854c3.855 0 5.5-1.645 5.5-5.5s-1.645-5.5-5.5-5.5-5.5 1.645-5.5 5.5 1.645 5.5 5.5 5.5zm0-10c3.28 0 4.5 1.22 4.5 4.5s-1.22 4.5-4.5 4.5-4.5-1.22-4.5-4.5 1.22-4.5 4.5-4.5zm-2.883 4.727c-.197-.193-.2-.51-.007-.707.193-.199.509-.199.707-.008.488.479 1.008.935 1.55 1.358 1.018-.797 1.953-1.701 2.782-2.691.177-.211.493-.24.704-.062.212.178.24.493.062.705-.959 1.146-2.052 2.182-3.248 3.079-.178.133-.422.133-.6 0-.685-.514-1.341-1.077-1.95-1.674z"/></svg>