<svg id="Layer_1" viewBox="0 0 24 24" xmlns="http://www.w3.org/2000/svg" data-name="Layer 1"><path d="m16.68 15.885c.186.154.454.154.64 0 .232-.193 5.68-4.769 5.68-8.885 0-4.206-1.794-6-6-6s-6 1.794-6 6c0 4.116 5.448 8.691 5.68 8.885zm.32-13.885c3.645 0 5 1.355 5 5 0 3.119-3.851 6.806-5 7.836-1.149-1.03-5-4.717-5-7.836 0-3.645 1.355-5 5-5zm2 5c0-1.346-.654-2-2-2s-2 .654-2 2 .654 2 2 2 2-.654 2-2zm-3 0c0-.794.206-1 1-1s1 .206 1 1-.206 1-1 1-1-.206-1-1zm6.438 7.112c-.268-.026-.515.188-.534.464-.208 2.939-.7 5.566-.877 6.451-.643.129-2.209.423-4.151.655-3.848-2.451-8.155-7.501-8.875-8.361.009-.993.101-6.314.971-11.189.331-.027.664-.052 1.002-.072.275-.016.486-.252.47-.527-.016-.276-.254-.5-.528-.471-3.912.225-7.439.991-7.475.999-.19.042-.339.19-.381.381-.011.049-1.062 4.891-1.062 9.558s1.051 9.509 1.062 9.558c.042.19.19.339.381.381.048.011 4.891 1.062 9.557 1.062s9.509-1.051 9.557-1.062c.191-.042.34-.19.381-.381.007-.032.703-3.232.963-6.911.02-.275-.188-.515-.463-.534zm-19.465-11.139c.731-.147 2.659-.506 4.968-.745-.821 4.775-.926 9.882-.938 11.026-.579.445-2.489 1.864-4.749 3.054-.146-1.346-.253-2.836-.253-4.307 0-3.879.745-7.892.973-9.027zm0 18.055c-.118-.588-.374-1.95-.594-3.662 2.306-1.173 4.255-2.578 5.046-3.176 1.036 1.225 4.473 5.156 7.915 7.652-1.076.095-2.213.159-3.34.159-3.879 0-7.891-.745-9.027-.973z"/></svg>