<svg id="Layer_1" viewBox="0 0 24 24" xmlns="http://www.w3.org/2000/svg" data-name="Layer 1"><path d="m22.503 19h-.003c-.275 0-.499.222-.5.497l-.006 1.004c0 .826-.672 1.499-1.499 1.499-.806.017-1.516-.694-1.499-1.5l.012-10.5c0-5.799-2.862-8.5-9.008-8.5s-9 2.701-9 8.5c0 5.667.497 12.469.501 12.537.019.261.237.463.499.463h3.5c.236 0 .44-.165.489-.396.015-.072.326-1.547.467-2.604h3.072c.106 1.08.479 2.552.498 2.623.056.222.256.377.484.377h3c.23 0 .431-.157.486-.381.018-.072.376-1.544.49-2.619h3.508v.5c-.015 1.342 1.151 2.528 2.501 2.5 1.378 0 2.499-1.121 2.499-2.496l.006-1.001c.001-.276-.221-.501-.497-.503zm-12.503-16.5c5.613 0 8.008 2.243 8.008 7.499l-.003 3.001h-15.965c-.025-1.007-.04-2.02-.04-3 0-5.257 2.393-7.5 8-7.5zm4.02 16.5c-.272 0-.495.218-.5.49-.013.68-.268 1.894-.407 2.51h-2.209c-.143-.612-.403-1.824-.403-2.5 0-.276-.224-.5-.5-.5h-3.99c-.259 0-.476.198-.498.457-.061.694-.294 1.915-.42 2.543h-2.627c-.081-1.181-.29-4.462-.398-8h15.936l-.006 4.981c0 .007-.004.013-.004.019h-3.975zm-4.77-11c0-.414.336-.75.75-.75s.75.336.75.75-.336.75-.75.75-.75-.336-.75-.75zm-4 0c0-.414.336-.75.75-.75s.75.336.75.75-.336.75-.75.75-.75-.336-.75-.75zm8 0c0-.414.336-.75.75-.75s.75.336.75.75-.336.75-.75.75-.75-.336-.75-.75z"/></svg>