<svg id="Layer_1" viewBox="0 0 24 24" xmlns="http://www.w3.org/2000/svg" data-name="Layer 1"><path d="m16.945 14.522c-.205 4.645-.918 6.979-.948 7.076-.045.144-.151.259-.29.315-.11.044-2.735 1.086-6.707 1.086s-6.597-1.042-6.707-1.086c-.139-.057-.245-.172-.29-.315-.041-.132-1.003-3.295-1.003-9.599s.962-9.466 1.003-9.598c.045-.144.151-.259.29-.315.11-.044 2.735-1.086 6.707-1.086s6.597 1.042 6.707 1.086c.139.057.245.172.29.315.007.021.161.521.348 1.505.052.271-.127.533-.397.585-.273.048-.533-.126-.585-.397-.104-.548-.197-.937-.256-1.162-.702-.241-2.984-.932-6.106-.932s-5.403.689-6.105.932c-.215.831-.895 3.879-.895 9.068s.68 8.237.895 9.068c.702.242 2.984.932 6.105.932s5.403-.69 6.106-.932c.178-.689.677-2.902.84-6.591.013-.268.233-.478.5-.478h.022c.275.012.489.245.477.521zm-9.945 3.978c0 .276.224.5.5.5h3c.276 0 .5-.224.5-.5s-.224-.5-.5-.5h-3c-.276 0-.5.224-.5.5zm15.459-.577c-.52.043-1.097.068-1.685.075-1.128-2.395-1.554-5.15-1.778-7.044-.029-.252-.242-.441-.496-.441h-5.394c-.788 0-1.47-.535-1.586-1.244-.073-.45.046-.886.336-1.227.286-.337.703-.529 1.144-.529h8.5c.21 0 .396-.131.469-.327s.015-.418-.145-.554c-1.419-1.208-2.463-2.494-2.484-2.52-.36-.416-.426-.978-.172-1.464.244-.468.783-.726 1.284-.629.009 0 .87.189 1.856.598.256.108.548-.016.653-.271s-.016-.548-.271-.653c-1.075-.445-1.99-.644-2.04-.654-.973-.189-1.915.277-2.37 1.146-.441.845-.322 1.858.292 2.568.034.042.668.823 1.635 1.759h-7.208c-.734 0-1.429.321-1.905.881-.476.561-.681 1.302-.561 2.035.193 1.188 1.299 2.084 2.572 2.084h4.951c.257 2.019.749 4.796 1.957 7.211.085.169.258.276.447.276.722 0 1.441-.028 2.079-.081.275-.022.48-.264.457-.539-.022-.277-.294-.477-.539-.457z"/></svg>