<?xml version="1.0" encoding="UTF-8"?>
<svg xmlns="http://www.w3.org/2000/svg" id="Layer_1" data-name="Layer 1" viewBox="0 0 24 24">
  <path d="M22.719,8.777c-.899-2.058-2.432-4.825-4.628-6.328-1.07-.732-2.508-.729-3.578,.012-.667,.46-1.316,1.064-1.935,1.801-.085-.453-.186-.906-.303-1.358-.045-.176-.182-.313-.357-.358-3.291-.858-6.626-.858-9.917,0-.175,.045-.312,.183-.357,.358-.855,3.303-.855,6.653,0,9.956,.045,.176,.182,.313,.358,.358,1.473,.384,2.966,.599,4.443,.64-.465,1.799-.398,3.616,.201,5.41,.363,1.089,1.228,1.957,2.312,2.322,1.007,.339,2.021,.509,3.034,.509s2.028-.17,3.035-.509c1.084-.365,1.949-1.233,2.312-2.322,.604-1.807,.667-3.637,.191-5.448,1.063-.078,2.108-.257,3.112-.533,.885-.244,1.624-.871,2.028-1.719,.42-.882,.438-1.898,.047-2.791ZM2.54,3.44c2.936-.718,5.907-.718,8.84,0,.557,2.295,.682,4.618,.373,6.91-.934,.025-1.867,.193-2.795,.505-.978,.33-1.777,1.069-2.192,2.01-1.401-.015-2.822-.198-4.227-.541-.716-2.949-.716-5.935,0-8.884Zm13.852,15.512c-.265,.793-.894,1.425-1.684,1.691-1.801,.607-3.627,.605-5.43,0-.79-.267-1.418-.898-1.684-1.691-.605-1.811-.605-3.647,0-5.458,.265-.793,.895-1.426,1.684-1.691,.901-.304,1.808-.455,2.715-.455s1.814,.152,2.715,.455c.789,.266,1.418,.898,1.684,1.691,.605,1.811,.605,3.647,0,5.458Zm5.377-7.814c-.279,.586-.786,1.019-1.391,1.185-1.02,.281-2.086,.454-3.17,.518-.417-.929-1.21-1.658-2.18-1.984-.754-.254-1.511-.412-2.27-.476,.205-1.581,.214-3.174,.028-4.764,.013-.014,.026-.029,.038-.045,.718-.979,1.478-1.748,2.258-2.287,.732-.505,1.715-.51,2.445-.009,2,1.369,3.43,3.966,4.276,5.903,.273,.626,.261,1.341-.034,1.96Z"/>
</svg>
