<svg id="Layer_1" viewBox="0 0 24 24" xmlns="http://www.w3.org/2000/svg" data-name="Layer 1"><path d="m1.045 13.53c-.03-.488-.045-.998-.045-1.53 0-7.813 3.187-11 11-11 4.834 0 8.231 1.502 9.931 4.323.107-1.25.08-2.507-.098-3.751-.039-.273.15-.527.424-.566.264-.034.526.149.566.424.236 1.649.236 3.321 0 4.971-.031.22-.204.393-.425.424-.824.117-1.654.177-2.484.177s-1.66-.06-2.484-.177c-.273-.039-.464-.292-.425-.565s.297-.46.565-.425c1.185.169 2.379.202 3.569.114-1.492-2.575-4.62-3.947-9.139-3.947-7.196-.002-10 2.802-10 9.998 0 .511.014 1.001.043 1.47.017.275-.193.513-.468.529-.011 0-.021 0-.031 0-.262 0-.482-.204-.499-.47zm21.381-3.529c-.276.017-.485.254-.469.529.028.469.043.959.043 1.47 0 7.196-2.804 10-10 10-4.519 0-7.647-1.372-9.138-3.947 1.189-.089 2.385-.056 3.567.114.279.036.527-.15.566-.425.039-.273-.151-.526-.424-.565-1.65-.235-3.322-.235-4.97 0-.22.031-.393.204-.424.425-.235 1.648-.235 3.32 0 4.969.038.276.298.464.566.425.273-.039.463-.292.424-.565-.178-1.245-.204-2.503-.098-3.752 1.701 2.821 5.098 4.323 9.931 4.323 7.813 0 11-3.187 11-11 0-.532-.015-1.042-.045-1.53-.018-.275-.255-.488-.529-.469zm-4.995-1.995c.023.081.569 2.019.569 3.994s-.546 3.913-.569 3.994c-.05.175-.189.309-.367.351-.114.026-2.831.655-5.063.655s-4.949-.629-5.064-.655c-.177-.042-.317-.176-.367-.351-.023-.081-.569-2.019-.569-3.994s.546-3.913.569-3.994c.05-.175.19-.309.367-.351.115-.026 2.832-.655 5.064-.655s4.949.629 5.063.655c.178.042.317.176.367.351zm-.431 3.994c0-1.409-.311-2.841-.457-3.435-.757-.16-2.838-.565-4.543-.565s-3.786.405-4.543.565c-.146.594-.457 2.025-.457 3.435s.311 2.841.457 3.435c.758.16 2.839.565 4.543.565s3.786-.405 4.543-.565c.146-.594.457-2.025.457-3.435zm-3.5-2h-3c-.276 0-.5.224-.5.5s.224.5.5.5h3c.276 0 .5-.224.5-.5s-.224-.5-.5-.5z"/></svg>