<svg id="Layer_1" viewBox="0 0 24 24" xmlns="http://www.w3.org/2000/svg" data-name="Layer 1"><path d="m3.07 22.3c.066.266-.096.535-.361.601-.259.067-.537-.093-.602-.361-.041-.162-.995-4.049-1.107-10.035-.005-.274.213-.5.487-.505h.01c.27 0 .491.216.496.487.109 5.865 1.068 9.774 1.078 9.813zm3.843-10.631c0-.74.015-1.452.04-2.132.01-.274-.204-.504-.478-.514-.305-.029-.505.204-.515.477-.025.691-.04 1.415-.04 2.168 0 6.438 1.046 10.694 1.09 10.872.065.268.343.428.602.361.266-.066.427-.336.361-.601-.011-.043-1.061-4.325-1.061-10.631zm5.004.166c0-1.761.082-3.526.246-5.246.025-.273-.174-.515-.448-.541-.255-.027-.515.173-.541.447-.166 1.751-.25 3.548-.25 5.34 0 6.34 1.029 10.531 1.073 10.706.065.268.343.428.602.361.266-.066.427-.335.361-.601-.011-.042-1.044-4.258-1.044-10.465zm5.23-8.76c-.263-.045-.525.141-.568.411-.281 1.74-.629 4.542-.693 8.009-.005.274.213.5.487.505h.009c.27 0 .491-.216.496-.487.063-3.409.404-6.161.679-7.87.044-.27-.14-.525-.411-.569zm4.168 5.946c.269.022.512-.183.532-.457.316-4.198.965-6.838.972-6.864.066-.266-.096-.535-.361-.601-.269-.067-.536.095-.602.361-.027.11-.676 2.74-.999 7.03-.02.273.185.512.458.532zm1.685 10.26c0-1.458-1.186-2.643-2.644-2.643-.822 0-1.419-.536-1.419-1.275 0-.759.655-1.377 1.461-1.377.622 0 1.177.372 1.381.925.095.257.382.388.637.294.258-.095.389-.38.294-.638-.295-.799-1.012-1.372-1.856-1.527l.003-.54c0-.274-.22-.497-.494-.499h-.002c-.273 0-.495.22-.496.494l-.003.56c-1.095.238-1.917 1.181-1.917 2.309 0 1.293 1.037 2.268 2.411 2.268.911 0 1.651.74 1.651 1.651s-.74 1.651-1.651 1.651c-.868 0-1.591-.677-1.647-1.542-.016-.273-.233-.472-.527-.464-.273.017-.481.253-.463.527.078 1.217.98 2.201 2.139 2.424l-.002.543c0 .274.22.497.494.498h.002c.273 0 .495-.221.496-.494l.002-.548c1.222-.233 2.149-1.305 2.149-2.593z"/></svg>