<svg id="Layer_1" viewBox="0 0 24 24" xmlns="http://www.w3.org/2000/svg"><path d="m3.128 22.379c.066.268-.096.539-.364.606-.261.066-.54-.094-.606-.364-.041-.163-1.004-4.079-1.116-10.111-.005-.276.215-.505.491-.51.262-.018.504.215.509.49.11 5.91 1.077 9.85 1.086 9.889zm3.872-10.712c0-.746.015-1.463.04-2.148.01-.276-.205-.508-.481-.519-.272-.007-.508.206-.518.481-.026.697-.041 1.426-.041 2.186 0 6.487 1.054 10.775 1.099 10.954.066.271.345.431.606.364.268-.067.431-.339.364-.606-.01-.043-1.068-4.357-1.068-10.712zm5.042.166c0-1.774.083-3.553.248-5.286.026-.274-.175-.519-.45-.545-.279-.013-.519.177-.545.451-.167 1.764-.252 3.574-.252 5.38 0 6.389 1.038 10.611 1.082 10.788.066.271.345.431.606.364.268-.067.431-.339.364-.606-.01-.042-1.052-4.29-1.052-10.546zm4.49.167c.275.005.504-.214.509-.491.063-3.44.408-6.211.685-7.929.044-.273-.141-.529-.414-.573-.272-.052-.529.141-.573.413-.283 1.751-.633 4.571-.698 8.071-.005.275.215.504.491.509zm6.131-10.985c-.269-.065-.539.096-.606.364-.028.11-.682 2.761-1.006 7.084-.021.275.186.515.461.536.272.02.517-.185.536-.462.318-4.229.973-6.89.979-6.916.066-.268-.096-.539-.364-.606zm-2.538 12.985c.984 0 1.512.389 1.821 1.342.085.262.366.406.63.321.263-.085.407-.367.321-.63-.444-1.368-1.351-2.033-2.772-2.033-1.995 0-2.737 1.329-2.996 3h-.629c-.276 0-.5.224-.5.5s.224.5.5.5h.526c-.019.33-.026.665-.026 1s.008.67.026 1h-.526c-.276 0-.5.224-.5.5s.224.5.5.5h.629c.259 1.671 1.001 3 2.996 3 1.422 0 2.329-.665 2.772-2.033.085-.263-.059-.545-.321-.63s-.545.059-.63.321c-.309.953-.837 1.342-1.821 1.342-.99 0-1.695-.383-1.982-2h1.357c.276 0 .5-.224.5-.5s-.224-.5-.5-.5h-1.469c-.019-.305-.031-.634-.031-1s.012-.695.031-1h1.469c.276 0 .5-.224.5-.5s-.224-.5-.5-.5h-1.357c.287-1.617.992-2 1.982-2z"/></svg>