<svg id="Layer_1" viewBox="0 0 24 24" xmlns="http://www.w3.org/2000/svg" data-name="Layer 1"><path d="m22.725 16.804c-2.189-1.102-4.168-2.29-5.874-3.417 1.134-1.421 2.115-2.85 2.149-5.587 0-4.703-2.159-6.8-7-6.8s-7 2.097-7 6.8c.057 2.823 1 4.15 2.215 5.661-2.005 1.241-4.002 2.367-5.939 3.343-.201.101-.31.323-.266.544.552 2.76 2.738 5.028 4.532 5.627.142.047.299.029.427-.053 2.033-1.293 4.059-2.839 6.028-4.588 1.672 1.488 3.7 3.102 6.035 4.588.127.081.284.099.427.053 1.794-.599 3.98-2.867 4.532-5.627.044-.22-.064-.443-.265-.544zm-4.725-9.004c-.031 2.451-.892 3.675-1.984 5.027-1.156-.792-2.166-1.54-2.993-2.188.665-.603 1.177-1.11 1.442-1.434 1.062-1.299 1.535-2.704 1.535-4.555 0-.822-.209-1.527-.589-2.096 1.82.781 2.589 2.432 2.589 5.246zm-6-5.8c1.121 0 3 .344 3 2.65 0 2.044-.662 3.13-1.309 3.923-.246.301-.777.821-1.457 1.433-.852-.697-1.432-1.223-1.671-1.467-1.096-1.118-1.563-2.281-1.563-3.889 0-1.857.897-2.65 3-2.65zm-6.359 19.944c-1.374-.576-3.009-2.328-3.565-4.426 1.897-.969 3.846-2.078 5.8-3.292.743.838 1.885 2.054 3.374 3.431-1.836 1.623-3.719 3.067-5.609 4.287zm12.718 0c-5.441-3.511-9.552-8.039-10.689-9.506-.867-1.118-1.67-2.454-1.67-4.639 0-2.748.729-4.391 2.459-5.193-.306.544-.459 1.226-.459 2.043 0 1.869.57 3.284 1.849 4.589 1.308 1.334 6.124 5.226 12.075 8.28-.556 2.098-2.192 3.85-3.565 4.426z"/></svg>