<?xml version="1.0" encoding="UTF-8"?>
<svg xmlns="http://www.w3.org/2000/svg" id="Layer_1" data-name="Layer 1" viewBox="0 0 24 24">
  <path d="M16.052,8.219c-2.092,0-4.383,.333-5.741,2.243-.458-.194-.946-.321-1.444-.401l1.36-2.437c.093-.167,.083-.371-.025-.527-.05-.072-1.243-1.771-3.108-1.771s-3.06,1.7-3.109,1.772c-.107,.156-.117,.36-.024,.526l1.36,2.437c-2.267,.364-4.321,1.691-4.321,6.005,0,5.432,3.257,6.128,6.094,6.128,1.49,0,3.096-.193,4.285-1.162,1.331,.965,3.062,1.162,4.673,1.162,3.235,0,6.948-.794,6.948-6.988s-3.713-6.987-6.948-6.987Zm-11.055-.79c.338-.383,1.106-1.104,2.096-1.104,.985,0,1.755,.722,2.096,1.105l-1.407,2.522c-.231-.011-.461-.016-.689-.016s-.458,.005-.689,.016l-1.408-2.523Zm-2.998,8.636c0-4.257,2.036-5.129,5.094-5.129,1.035,0,1.954,.1,2.716,.398-.443,.969-.704,2.231-.704,3.872,0,2.485,.598,4.101,1.523,5.145-.881,.649-2.094,.843-3.534,.843-3.058,0-5.094-.872-5.094-5.128Zm10.188,0c0,1.658-.309,2.802-.867,3.582-.779-.909-1.216-2.312-1.216-4.441,0-1.388,.184-2.507,.578-3.385,.956,.737,1.505,2.034,1.505,4.245Zm3.864,5.128c-1.604,0-2.968-.206-3.983-.884,.686-.917,1.119-2.267,1.119-4.245,0-2.723-.818-4.256-1.992-5.108,.936-1.204,2.51-1.739,4.856-1.739,3.57,0,5.948,1.018,5.948,5.987,0,4.253-1.723,5.988-5.948,5.988Z"/>
  <path d="M7.094,3.364c.276,0,.5-.224,.5-.5v-.558c0-.276-.224-.5-.5-.5s-.5,.224-.5,.5v.558c0,.276,.224,.5,.5,.5Z"/>
  <path d="M2.178,5.118c.213,.191,.495,.208,.707,.002,.198-.192,.197-.511,.002-.707l-.393-.395c-.195-.196-.511-.198-.707-.002-.196,.195-.197,.511-.002,.707l.393,.395Z"/>
  <path d="M12.01,5.118c-.213,.191-.495,.208-.707,.002-.198-.192-.197-.511-.002-.707l.393-.395c.195-.196,.511-.198,.707-.002,.196,.195,.197,.511,.002,.707l-.393,.395Z"/>
</svg>
