<svg id="Layer_1" viewBox="0 0 24 24" xmlns="http://www.w3.org/2000/svg" data-name="Layer 1"><path d="m12 3c-7.813 0-11 1.883-11 6.5v5c0 4.617 3.187 6.5 11 6.5s11-1.883 11-6.5v-5c0-4.617-3.187-6.5-11-6.5zm0 1c8.299 0 10 2.199 10 5.5 0 .452-.036.881-.113 1.289-1.503-1.943-4.561-2.789-9.887-2.789s-8.384.846-9.887 2.789c-.076-.408-.113-.837-.113-1.289 0-3.301 1.701-5.5 10-5.5zm9.474 8.005c-.97 1.859-3.518 2.995-9.474 2.995s-8.504-1.136-9.474-2.995c1.074-2.074 4.006-3.005 9.474-3.005s8.399.93 9.474 3.005zm.526 2.495c0 3.301-1.701 5.5-10 5.5s-10-2.199-10-5.5v-1.42c1.475 2.036 4.653 2.92 10 2.92s8.525-.883 10-2.92z"/></svg>