<?xml version="1.0" encoding="UTF-8"?>
<svg xmlns="http://www.w3.org/2000/svg" id="Layer_1" data-name="Layer 1" viewBox="0 0 24 24">
  <path d="M2.042,18.338c-1.181,1.28-.908,3.885-.878,4.188,.023,.241,.216,.432,.458,.45,.085,.007,.357,.026,.729,.026,.962,0,2.596-.127,3.405-.92,.835-.901,1.057-2.86,.087-3.842-1.013-1.026-3.103-.659-3.801,.097Zm2.998,3.048c-.511,.5-1.912,.629-2.906,.615-.026-.857,.05-2.348,.607-2.947,.553-.515,1.833-.66,2.391-.11,.548,.57,.398,1.912-.092,2.442Z"/>
  <path d="M15.66,11.544c1.077-1.091,1.077-2.151,0-3.243-.346-.351-.889-.817-1.603-.817-.545,0-1.074,.267-1.616,.817-1.076,1.091-1.076,2.152,0,3.243,.346,.351,.889,.817,1.603,.817,.545,0,1.074-.267,1.616-.817Zm-2.507-2.541c.34-.344,.645-.519,.904-.519,.258,0,.541,.165,.891,.519,.602,.61,.767,1.062,0,1.838-.677,.686-1.093,.71-1.795,0-.602-.61-.767-1.062,0-1.838Z"/>
  <path d="M22.525,1.678c-.048-.162-.174-.288-.335-.336-.275-.082-6.346-1.821-12.391,3.228-1.552-1.275-3.645-1.033-4.738-.519-1.657,.778-2.941,2.921-2.995,3.012-.038,.063-.061,.134-.067,.208-.011,.113-.236,2.673,1.081,4.26-.154,.402-.195,.847-.106,1.284,.147,.728,.638,1.328,1.311,1.605,1.283,.531,2.371,1.242,3.232,2.116,.859,.869,1.561,1.973,2.087,3.278,.276,.688,.876,1.185,1.604,1.331,.148,.03,.682,.123,1.256-.109,1.649,1.367,4.176,1.096,4.205,1.093,.076-.007,.149-.031,.214-.071,.09-.055,2.205-1.355,2.972-3.032,.506-1.107,.744-3.226-.518-4.795,5.013-6.147,3.272-12.278,3.19-12.554ZM2.987,7.476c.257-.405,1.3-1.957,2.499-2.52,.825-.387,2.372-.581,3.551,.288-.189,.176-.377,.36-.566,.55L3.674,10.656c-.736-1.111-.709-2.743-.687-3.18Zm8.417,12.689c-.403-.081-.721-.345-.874-.724-.576-1.43-1.351-2.644-2.303-3.608-.956-.969-2.154-1.755-3.562-2.337-.37-.153-.63-.474-.712-.88-.086-.426,.042-.862,.343-1.167l4.887-4.952C15.09,.644,21.221,2.137,21.63,2.23c.28,1.311,1.153,7.202-4.208,12.634l-4.888,4.954c-.295,.3-.721,.43-1.13,.347Zm7.54-1.555c-.554,1.212-2.078,2.267-2.483,2.531-.438,.018-2.039,.042-3.133-.703l4.807-4.871c.184-.187,.361-.374,.532-.561,.853,1.199,.66,2.767,.277,3.604Z"/>
</svg>
