<?xml version="1.0" encoding="UTF-8"?>
<svg xmlns="http://www.w3.org/2000/svg" id="Layer_1" data-name="Layer 1" viewBox="0 0 24 24">
  <path d="M22.274,1.95c-.05-.108-.137-.195-.245-.244-.066-.031-6.197-2.739-12.094,2.718-.01-.002-.019-.004-.029-.005-1.595-.21-4.508-.288-6.092,1.589-1.46,1.732-2.738,5.819-2.792,5.992-.047,.151-.02,.316,.074,.444,.094,.128,.243,.203,.401,.204l2.18,.009c.28,.731,1.064,2.479,2.712,4.251l-1.319,1.321c-.195,.195-.195,.513,0,.707,.097,.098,.225,.146,.353,.146s.256-.049,.354-.146l1.318-1.32c1.781,1.664,3.514,2.441,4.243,2.717l.008,2.183c0,.158,.076,.308,.204,.401,.087,.063,.191,.097,.296,.097,.05,0,.1-.008,.148-.022,.173-.054,4.255-1.333,5.984-2.797,1.887-1.596,1.8-4.538,1.58-6.151,5.468-5.922,2.745-12.027,2.714-12.093ZM4.579,6.652c1.072-1.271,3.025-1.416,4.448-1.318-.161,.174-.321,.354-.481,.541-.957,1.121-4.033,4.9-4.751,5.782l-1.603-.006c.416-1.211,1.381-3.806,2.387-4.999Zm.019,5.604c.762-.937,3.77-4.631,4.709-5.731C14.616,.305,20.345,2.116,21.437,2.542c.403,1.062,2.199,6.845-3.986,12.143-1.099,.94-4.778,3.962-5.712,4.729-.649-.245-2.494-1.05-4.294-2.853-1.784-1.786-2.6-3.65-2.848-4.305Zm12.737,7.175c-1.19,1.008-3.78,1.975-4.989,2.391l-.006-1.608c.877-.719,4.642-3.811,5.762-4.769,.19-.163,.372-.326,.548-.489,.1,1.439-.042,3.399-1.315,4.475Z"/>
  <g>
    <circle cx="16.72" cy="7.273" r=".745"/>
    <circle cx="13.76" cy="10.231" r=".745"/>
    <circle cx="10.81" cy="13.19" r=".745"/>
  </g>
</svg>
