<?xml version="1.0" encoding="UTF-8"?>
<svg xmlns="http://www.w3.org/2000/svg" id="Layer_1" data-name="Layer 1" viewBox="0 0 24 24">
  <path d="M22.723,8.506c-.245-.123-.547-.022-.671,.225-.343,.691-.554,1.042-.923,1.412-.136-1.144-.398-2.296-.782-3.434-.615-1.82-2.075-3.27-3.904-3.879-3.532-1.177-7.113-1.179-10.646,0-1.829,.609-3.289,2.06-3.904,3.879-1.186,3.511-1.186,7.07,0,10.581,.615,1.82,2.075,3.27,3.904,3.879,1.767,.589,3.544,.883,5.323,.883s3.557-.294,5.322-.883c1.829-.609,3.289-2.06,3.904-3.879,.113-.335,.216-.671,.308-1.007,.072-.266-.085-.541-.351-.614-.27-.074-.542,.085-.614,.351-.086,.316-.183,.633-.29,.95-.516,1.524-1.739,2.74-3.273,3.251-3.323,1.108-6.691,1.107-10.013,0-1.534-.512-2.758-1.727-3.273-3.251-1.114-3.298-1.114-6.643,0-9.94,.516-1.524,1.739-2.74,3.273-3.251,3.323-1.108,6.691-1.107,10.013,0,1.534,.512,2.758,1.727,3.273,3.251,.367,1.089,.616,2.189,.742,3.281-.501-.3-.797-.597-1.329-1.237-.178-.212-.492-.24-.705-.064-.212,.177-.24,.492-.064,.704,.852,1.022,1.24,1.326,2.445,1.908,.069,.033,.144,.05,.218,.05,.111,0,.222-.037,.312-.109,1.038-.827,1.345-1.206,1.931-2.385,.122-.248,.021-.548-.226-.67Z"/>
</svg>
