<?xml version="1.0" encoding="UTF-8"?>
<svg xmlns="http://www.w3.org/2000/svg" id="Layer_1" data-name="Layer 1" viewBox="0 0 24 24">
  <circle cx="9.649" cy="15.674" r=".75"/>
  <path d="M21.756,14.931c-.057-.132-.168-.233-.305-.277-.095-.031-2.064-.665-3.338-.838v-4.856c.683-.36,1.223-.966,1.519-1.735,.441-1.144,.252-2.382-.506-3.313-1.58-1.944-4.167-2.896-7.907-2.911-3.445-.051-5.857,.755-7.45,2.348-1.601,1.6-2.34,4.011-2.327,7.588,.021,5.735,1.177,9.056,7.026,9.056,2.71,0,5.834-1.045,6.391-1.239h2.255v2.784c0,.228,.153,.426,.374,.483l3.684,.963c.042,.012,.084,.017,.126,.017,.195,0,.378-.115,.459-.302,1.066-2.468,1.066-5.3,0-7.768Zm-.264,2.822h-3.378v-2.928c.865,.136,2.136,.5,2.812,.71,.287,.715,.476,1.461,.567,2.218Zm-4.378-3.938c-.994,.135-2.41,.55-3.031,.741l-.295-.896c-.312-1.042-.119-2.139,.529-3.009,.639-.858,1.615-1.35,2.68-1.35,.025,0,.085-.007,.11-.011,.002,0,.004,0,.006,0v4.526Zm-8.646,5.177c-5.069,0-6.007-2.714-6.026-8.06-.012-3.293,.635-5.478,2.034-6.877,1.383-1.383,3.561-2.055,6.657-2.055h.082c3.422,.013,5.756,.845,7.136,2.542,.528,.65,.658,1.518,.349,2.323-.3,.778-.952,1.315-1.702,1.436-1.383,0-2.652,.639-3.481,1.753-.839,1.126-1.089,2.545-.682,3.906l1.308,3.977c-1.017,.326-3.53,1.056-5.674,1.056Zm6.665-1.239l-.738-2.246c.695-.213,1.891-.551,2.718-.681v2.928h-1.98Zm5.865,4.152l-2.885-.754v-2.398h3.442c.007,1.069-.178,2.14-.557,3.152Z"/>
</svg>
