<svg id="Layer_1" viewBox="0 0 24 24" xmlns="http://www.w3.org/2000/svg" data-name="Layer 1"><path d="m21.874 14.36c-.077-.124-.205-.208-.35-.229-.042-.006-4.253-.63-9.524-.63h-1.5v-1.5c0-5.315-.625-9.484-.631-9.525-.021-.144-.105-.271-.229-.348-.073-.046-1.819-1.126-3.94-1.126s-3.867 1.078-3.94 1.124c-.127.08-.212.212-.231.361-.005.042-.529 4.248-.529 9.513 0 5.305.498 10.006.503 10.053.025.234.21.419.444.444.047.005 4.792.503 10.053.503 5.311 0 9.472-.523 9.514-.529.148-.019.28-.104.36-.23.046-.073 1.126-1.819 1.126-3.941s-1.08-3.867-1.126-3.94zm-.734 7.148c-.962.11-4.626.492-9.14.492-4.323 0-8.294-.339-9.543-.458-.118-1.243-.457-5.187-.457-9.542 0-4.475.382-8.171.492-9.14.482-.257 1.768-.86 3.208-.86 1.45 0 2.738.608 3.214.863.056.413.175 1.344.29 2.637h-2.705c-.276 0-.5.224-.5.5s.224.5.5.5h2.788c.068.891.128 1.903.167 3h-2.955c-.276 0-.5.224-.5.5s.224.5.5.5h2.983c.011.487.017.988.017 1.5v1.5h-3c-.276 0-.5.224-.5.5s.224.5.5.5h3v3c0 .276.224.5.5.5s.5-.224.5-.5v-3h1.5c.511 0 1.012.006 1.5.017v2.983c0 .276.224.5.5.5s.5-.224.5-.5v-2.954c1.095.039 2.108.1 3 .168v2.786c0 .276.224.5.5.5s.5-.224.5-.5v-2.703c1.289.115 2.222.233 2.637.289.255.478.863 1.767.863 3.214s-.604 2.728-.86 3.208z"/></svg>