<svg id="Layer_1" viewBox="0 0 24 24" xmlns="http://www.w3.org/2000/svg" data-name="Layer 1"><path d="m21.872 7.794c-.077-.122-.204-.204-.347-.226-.037-.006-3.778-.568-9.525-.568s-9.488.562-9.525.568c-.144.022-.271.105-.348.228-.046.073-1.127 1.818-1.127 4.204 0 2.406 1.082 4.134 1.128 4.206.077.122.204.204.347.226.037.006 3.778.568 9.525.568s9.488-.562 9.525-.568c.144-.022.271-.105.348-.228.046-.073 1.127-1.818 1.127-4.204 0-2.406-1.082-4.134-1.128-4.206zm-.736 7.683c-.405.054-1.317.165-2.636.272v-2.748c0-.276-.224-.5-.5-.5s-.5.224-.5.5v2.822c-.875.058-1.881.109-3 .142v-2.964c0-.276-.224-.5-.5-.5s-.5.224-.5.5v2.986c-.484.008-.982.014-1.5.014s-1.016-.005-1.5-.014v-2.986c0-.276-.224-.5-.5-.5s-.5.224-.5.5v2.964c-1.119-.033-2.125-.084-3-.142v-2.821c0-.276-.224-.5-.5-.5s-.5.224-.5.5v2.748c-1.319-.106-2.232-.218-2.637-.271-.254-.479-.863-1.803-.863-3.477 0-1.66.61-2.993.864-3.477.9-.12 4.285-.523 9.136-.523s8.237.404 9.137.523c.254.479.863 1.803.863 3.477 0 1.66-.61 2.993-.864 3.477z"/></svg>