<svg id="Layer_1" viewBox="0 0 24 24" xmlns="http://www.w3.org/2000/svg" data-name="Layer 1"><path d="m11.746 10.991c-1.705-.01-3.262-.637-4.271-1.718-.726-.777-1.076-1.696-1.016-2.653.165-2.451 2.635-4.61 5.281-4.62 1.619.006 3.211.793 4.257 2.105.173.217.487.251.702.08.216-.172.252-.487.079-.703-1.232-1.547-3.114-2.475-5.038-2.482-3.201.013-6.077 2.556-6.279 5.555-.077 1.223.378 2.431 1.282 3.401 1.195 1.281 3.017 2.023 4.995 2.036 3.397.025 6.206 2.145 6.261 4.722.017 1.101-.518 2.288-1.467 3.258-1.248 1.276-2.995 2.016-4.786 2.029-2.408-.017-4.794-1.423-5.801-3.417-.125-.248-.427-.347-.672-.221-.246.125-.345.425-.221.671 1.188 2.353 3.874 3.947 6.693 3.967 2.062-.015 4.067-.864 5.501-2.33 1.15-1.177 1.772-2.587 1.752-3.976-.066-3.116-3.319-5.674-7.254-5.704z"/></svg>