<?xml version="1.0" encoding="UTF-8"?>
<svg xmlns="http://www.w3.org/2000/svg" id="Layer_1" data-name="Layer 1" viewBox="0 0 24 24">
  <path d="M17.256,14.877c-1.543-.82-2.983-1.041-4.279-.654-.265,.079-.416,.357-.336,.622,.078,.265,.354,.416,.622,.336,1.037-.308,2.222-.113,3.525,.579,.074,.04,.155,.059,.234,.059,.179,0,.352-.096,.441-.266,.13-.244,.037-.546-.207-.676Z"/>
  <path d="M8.699,13.23c-.156-.085-.343-.084-.495,.006-.219,.128-2.138,1.297-2.163,2.849,.037,1.242,1.185,2.388,2.423,2.405,1.223-.018,2.409-1.203,2.409-2.429,0-1.599-1.955-2.71-2.174-2.832Zm-.235,4.26c-.685-.01-1.403-.734-1.423-1.412,.012-.694,.893-1.451,1.423-1.82,.523,.35,1.387,1.077,1.41,1.809-.029,.697-.743,1.413-1.409,1.423Z"/>
  <path d="M11.997,1C4.894,1,1,5.16,1,12.009c0,6.996,3.771,10.991,11.003,10.991,7.164,0,10.864-3.74,10.997-11.009-.122-7.042-4.027-10.991-11.003-10.991Zm.006,21c-6.605-.039-9.877-3.31-10.003-10,.121-6.594,3.486-9.958,9.997-10,4.485,.029,9.861,1.79,10.003,9.991-.123,6.696-3.395,9.97-9.997,10.009Z"/>
  <circle cx="8.457" cy="10.224" r=".75"/>
  <circle cx="15.54" cy="10.224" r=".75"/>
</svg>
