<?xml version="1.0" encoding="UTF-8"?>
<svg xmlns="http://www.w3.org/2000/svg" id="Layer_1" data-name="Layer 1" viewBox="0 0 24 24">
  <path d="M10.128,10.808c.276,0,.5-.224,.5-.5,0-1.641-.907-2.927-2.065-2.927s-2.065,1.286-2.065,2.927c0,.276,.224,.5,.5,.5s.5-.224,.5-.5c0-1.135,.561-1.927,1.065-1.927s1.065,.792,1.065,1.927c0,.276,.224,.5,.5,.5Z"/>
  <path d="M17.502,10.308c0-1.641-.907-2.927-2.065-2.927s-2.065,1.286-2.065,2.927c0,.276,.224,.5,.5,.5s.5-.224,.5-.5c0-1.135,.562-1.927,1.065-1.927s1.065,.792,1.065,1.927c0,.276,.224,.5,.5,.5s.5-.224,.5-.5Z"/>
  <path d="M17.587,13.151c-.271,.055-.445,.319-.39,.589,.004,.021,.432,2.147,.432,4.33,0,2.16-.428,4.31-.432,4.331-.054,.271,.121,.534,.392,.589,.033,.006,.066,.01,.099,.01,.233,0,.442-.164,.49-.401,.019-.091,.452-2.266,.452-4.528,0-2.288-.434-4.439-.452-4.53-.055-.271-.32-.443-.589-.39Z"/>
  <path d="M6.372,18.07c0-2.183,.428-4.309,.432-4.33,.055-.271-.119-.534-.39-.589-.269-.053-.534,.119-.589,.39-.019,.091-.452,2.242-.452,4.53,0,2.263,.433,4.437,.452,4.528,.048,.238,.256,.401,.49,.401,.033,0,.066-.003,.099-.01,.271-.055,.446-.318,.392-.589-.004-.021-.432-2.171-.432-4.331Z"/>
  <path d="M11.997,1C5.004,1.044,1.242,4.8,1.116,11.881c.039,2.144,.4,3.997,1.073,5.508,.112,.253,.409,.368,.66,.253,.252-.112,.366-.408,.253-.66-.618-1.388-.95-3.111-.986-5.102,.116-6.516,3.443-9.84,9.881-9.881,6.444,.041,9.771,3.365,9.887,9.863-.036,2.009-.368,3.732-.986,5.12-.112,.252,0,.547,.253,.66,.066,.03,.135,.043,.203,.043,.192,0,.375-.11,.457-.297,.673-1.511,1.034-3.364,1.073-5.526-.126-7.063-3.889-10.819-10.887-10.863Z"/>
  <path d="M14.147,21.601c-.652,.088-1.475,.144-2.147,.144-.723,0-1.446-.048-2.147-.144-.272-.036-.525,.155-.563,.428-.037,.274,.155,.526,.428,.563,.747,.101,1.514,.152,2.282,.152,.714,0,1.588-.059,2.282-.152,.273-.037,.465-.289,.428-.563-.037-.273-.286-.464-.563-.428Z"/>
  <path d="M12,18.843c1.143,0,2.073-1.1,2.073-2.451s-.93-2.451-2.073-2.451-2.073,1.1-2.073,2.451,.93,2.451,2.073,2.451Zm0-3.902c.582,0,1.073,.665,1.073,1.451s-.492,1.451-1.073,1.451-1.073-.665-1.073-1.451,.492-1.451,1.073-1.451Z"/>
</svg>
