<?xml version="1.0" encoding="UTF-8"?>
<svg xmlns="http://www.w3.org/2000/svg" id="Layer_1" data-name="Layer 1" viewBox="0 0 24 24">
  <path d="M8.452,12.37c1.299-.009,2.058-.73,2.083-1.998-.025-1.226-.807-1.962-2.095-1.969-1.282,.007-2.062,.747-2.086,1.997,.023,1.225,.802,1.961,2.082,1.97h.016Zm-1.098-1.97c.013-.685,.35-.993,1.086-.997,.743,.004,1.081,.31,1.095,.97-.014,.694-.34,.992-1.091,.998h-.002c-.749-.006-1.075-.302-1.088-.97Z"/>
  <path d="M15.552,8.402c-1.281,.007-2.062,.747-2.087,1.998,.025,1.224,.804,1.96,2.083,1.969h.016c1.3-.009,2.059-.73,2.082-1.998-.024-1.226-.805-1.962-2.094-1.97Zm.004,2.967h-.002c-.749-.006-1.075-.302-1.089-.969,.014-.686,.352-.994,1.087-.998,.963,.005,1.086,.567,1.094,.97-.013,.693-.339,.992-1.09,.997Z"/>
  <path d="M8.022,16.62c-.198,.192-.204,.508-.012,.707,.098,.102,.229,.152,.359,.152,.125,0,.251-.047,.348-.141,2.233-2.159,4.378-2.164,6.561-.004,.196,.194,.514,.193,.707-.004,.194-.196,.192-.513-.004-.707-2.573-2.547-5.325-2.549-7.959-.004Z"/>
  <path d="M11.997,1C4.894,1,1,5.16,1,12.009c0,6.996,3.771,10.991,11.003,10.991,7.164,0,10.864-3.74,10.997-11.009-.122-7.042-4.027-10.991-11.003-10.991Zm.006,21c-6.605-.039-9.877-3.31-10.003-10,.121-6.594,3.486-9.958,9.997-10,4.485,.029,9.861,1.79,10.003,9.991-.123,6.696-3.395,9.97-9.997,10.009Z"/>
</svg>
