<svg id="Layer_1" viewBox="0 0 24 24" xmlns="http://www.w3.org/2000/svg" data-name="Layer 1"><path d="m23 10.5c0 3.967-.788 8.213-.796 8.255-.038.203-.196.361-.399.399-.013.003-.687.128-1.805.281v1.065c0 .276-.224.5-.5.5s-.5-.224-.5-.5v-.937c-.979.118-2.162.237-3.468.32-.272.018-.514-.191-.531-.467-.018-.275.191-.513.467-.531 2.783-.178 4.996-.518 5.812-.655.183-1.072.719-4.501.719-7.731s-.537-6.658-.719-7.73c-1.133-.189-4.959-.77-9.281-.77s-8.148.58-9.281.77c-.096.559-.287 1.76-.448 3.23h1.229c.276 0 .5.224.5.5s-.224.5-.5.5c0 0-1.762.005-1.833-.002-.275-.027-.476-.272-.448-.547.233-2.354.575-4.188.578-4.206.038-.203.196-.361.399-.399.045-.009 4.569-.846 9.805-.846s9.759.837 9.805.846c.203.038.361.196.399.399.008.042.796 4.288.796 8.255zm-4 0c0-3.855-1.645-5.5-5.5-5.5-1.685 0-2.927.316-3.799.967-.221.166-.267.479-.102.7.167.221.479.267.7.102.692-.517 1.739-.769 3.201-.769 3.1 0 4.345 1.112 4.474 4h-1.474c-.276 0-.5.224-.5.5s.224.5.5.5h1.479c-.104 2.457-.982 3.578-3.056 3.902-.273.042-.459.298-.417.571.042.274.304.46.571.417 2.713-.424 3.923-2.086 3.923-5.39zm-6 .998s0 .002 0 .002v8c-.078 2.316-2.096 3.488-5.999 3.5-3.906-.012-5.924-1.184-6.001-3.483v-8.017s.002-.008.002-.013c.062-1.606 1.159-3.47 5.995-3.487 4.868.017 5.95 1.904 6.001 3.484v.014zm-11 3.997c.021.629.11 2.49 5.001 2.505 4.901-.016 4.978-1.887 4.999-2.511v-1.792c-.968.854-2.631 1.295-4.999 1.302-2.37-.007-4.033-.448-5.001-1.302v1.797zm0-3.983v.015c.021.597.11 2.458 5.001 2.473 4.87-.016 4.977-1.864 4.998-2.5-.064-1.648-1.747-2.489-5.001-2.5-2.24.008-4.928.45-4.998 2.512zm10 7.971v-1.786c-.968.854-2.631 1.295-4.999 1.303-2.37-.007-4.033-.448-5.001-1.302v1.802c.021.602.083 2.484 5.001 2.5 4.915-.016 4.978-1.898 4.999-2.517z"/></svg>