<?xml version="1.0" encoding="UTF-8"?>
<svg xmlns="http://www.w3.org/2000/svg" id="Layer_1" data-name="Layer 1" viewBox="0 0 24 24">
  <g>
    <path d="M20.598,9.787h0c-.675-.646-1.11-1.6-1.226-2.688-.025-.238-.054-.467-.087-.688h.144c.276,0,.5-.224,.5-.5s-.224-.5-.5-.5h-.328c-.847-3.792-2.887-4.41-4.123-4.41s-3.271,.618-4.12,4.41h-.33c-.276,0-.5,.224-.5,.5s.224,.5,.5,.5h.146c-.033,.224-.063,.457-.089,.7-.115,1.086-.55,2.041-1.224,2.687-1.273,1.219-1.892,3.099-1.892,5.745,0,6.611,4.013,7.458,7.51,7.458s7.51-.848,7.51-7.458c0-2.656-.619-4.539-1.891-5.755ZM14.979,2c1.773,0,2.661,1.604,3.099,3.41h-6.195c.439-1.807,1.327-3.41,3.096-3.41Zm-4.926,8.519c.845-.809,1.387-1.982,1.527-3.303,.028-.264,.063-.534,.105-.805h6.59c.042,.267,.076,.533,.104,.793,.14,1.323,.683,2.497,1.529,3.306h0c.417,.399,.75,.895,1.001,1.493H9.055c.251-.592,.582-1.085,.998-1.483Zm4.926,11.481c-3.907,0-6.51-1.098-6.51-6.458,0-.966,.089-1.809,.264-2.541l12.496,.002c.173,.731,.259,1.575,.259,2.54,0,4.587-1.886,6.458-6.51,6.458Z"/>
    <path d="M7.29,22.004c-3.305-.423-4.779-2.416-4.779-6.462,0-.835,.065-1.58,.196-2.24h2.808c.276,0,.5-.224,.5-.5s-.224-.5-.5-.5H2.98c.261-.728,.631-1.32,1.114-1.783,.845-.809,1.387-1.982,1.527-3.303,.028-.264,.063-.534,.105-.805h1.883c.276,0,.5-.224,.5-.5s-.224-.5-.5-.5h-1.685c.439-1.807,1.327-3.41,3.097-3.41,.276,0,.5-.224,.5-.5s-.224-.5-.5-.5c-1.234,0-3.271,.618-4.121,4.41h-.33c-.276,0-.5,.224-.5,.5s.224,.5,.5,.5h.146c-.033,.224-.063,.457-.089,.7-.115,1.086-.55,2.041-1.224,2.687-1.273,1.219-1.892,3.099-1.892,5.745,0,4.529,1.849,6.968,5.652,7.455,.021,.002,.043,.004,.064,.004,.248,0,.463-.184,.496-.437,.035-.274-.159-.524-.433-.56Z"/>
  </g>
  <g>
    <circle cx="15.42" cy="16.021" r=".751"/>
    <circle cx="18.11" cy="16.021" r=".751"/>
    <circle cx="16.765" cy="18.334" r=".751"/>
  </g>
</svg>
