<svg id="Layer_1" viewBox="0 0 24 24" xmlns="http://www.w3.org/2000/svg" data-name="Layer 1"><path d="m18.907 10.559c1.186-1.345 2.17-2.514 2.865-3.361 1.655-1.939 1.648-3.282-.026-4.956-1.867-1.869-3.278-1.397-4.948-.033-1.172.963-2.287 1.914-3.372 2.87-3.212-2.803-6.451-3.998-6.591-4.049-.102-.038-.212-.039-.318-.008-.1.031-1.026.35-2.614 1.938s-1.861 2.483-1.886 2.579c-.028.105-.021.218.022.318.045.109 1.051 2.482 3.161 5.198-1.313.197-2.639 1-4.054 2.415-.195.195-.195.512 0 .707l3.979 3.979-.981.992c-.194.196-.192.513.004.707s.513.192.707-.004l.977-.988 3.99 3.99c.195.195.512.195.707 0 1.415-1.415 2.217-2.741 2.414-4.054 2.717 2.11 5.09 3.117 5.199 3.162.101.043.213.051.318.022.096-.024.983-.29 2.579-1.886s1.906-2.515 1.938-2.614c.032-.104.029-.216-.008-.318-.05-.141-1.25-3.39-4.063-6.606zm1.078 3.083-2.307 2.306-1.938-1.938c.388-.407.786-.827 1.204-1.276.449-.486.877-.958 1.287-1.416.682.79 1.264 1.579 1.753 2.324zm-7.322-7.889c-.488.437-.971.876-1.449 1.32-.416.388-.828.781-1.238 1.174l-1.924-1.924 2.307-2.307c.738.485 1.52 1.062 2.305 1.738zm-5.989-3.713c.408.164 1.483.634 2.817 1.428l-2.146 2.146-2.334-2.334c.843-.783 1.416-1.117 1.663-1.24zm-3.631 3.616c.12-.249.452-.815 1.259-1.671l2.336 2.337-2.08 2.08c-.825-1.302-1.33-2.341-1.515-2.745zm2.079 3.596 2.223-2.224 1.912 1.912c-.755.73-1.513 1.487-2.234 2.231-.18-.05-.359-.087-.538-.114-.511-.618-.965-1.227-1.363-1.805zm5.048 12.535-7.957-7.957c2.727-2.553 4.826-2.435 7.609.348s2.899 4.883.348 7.609zm.359-8.316c-.86-.86-1.686-1.489-2.497-1.899.265-.27.526-.539.802-.815.988-.988 2.019-1.981 3.061-2.951 1.761-1.632 3.572-3.21 5.536-4.823 1.594-1.301 2.334-1.307 3.607-.033 1.29 1.29 1.284 2.063-.033 3.607-1.048 1.275-2.729 3.265-4.794 5.497-1.09 1.17-2.064 2.184-2.98 3.1-.274.275-.541.534-.81.797-.41-.806-1.037-1.626-1.891-2.48zm2.413 4.044c-.028-.185-.068-.37-.12-.556.75-.727 1.478-1.455 2.225-2.228l1.924 1.924-2.224 2.223c-.579-.398-1.187-.852-1.806-1.363zm5.403 3.442c-.404-.185-1.443-.69-2.746-1.515l2.08-2.079 2.336 2.336c-.86.81-1.426 1.141-1.67 1.259zm2.375-1.968-2.334-2.334 2.146-2.145c.794 1.332 1.264 2.407 1.429 2.815-.125.252-.461.824-1.24 1.664z"/></svg>