<?xml version="1.0" encoding="UTF-8"?>
<svg xmlns="http://www.w3.org/2000/svg" id="Layer_1" data-name="Layer 1" viewBox="0 0 24 24">
  <path d="M19.373,10.456c-.06-.157-.193-.273-.356-.311-.069-.016-.946-.213-2.294-.399,.006-.157,.01-.317,.01-.479,0-.871-.093-1.962-.23-2.714-.04-.217-.219-.383-.438-.406-.505-.055-.997-.1-1.481-.135-.611-3.631-2.214-4.862-2.284-4.914-.177-.131-.42-.131-.597,0-.07,.052-1.673,1.283-2.284,4.914-.483,.035-.975,.08-1.48,.135-.22,.023-.397,.188-.438,.405-.138,.743-.231,1.834-.231,2.715,0,.162,.003,.322,.009,.479-1.347,.186-2.225,.383-2.294,.398-.164,.037-.298,.154-.357,.312-.038,.102-.929,2.519-.929,5.747,0,3.255,.892,5.648,.93,5.748,.06,.157,.193,.273,.357,.311,.132,.03,3.284,.737,7.016,.737s6.883-.707,7.016-.737c.164-.037,.299-.154,.357-.312,.038-.102,.93-2.519,.93-5.747,0-3.255-.892-5.648-.93-5.748ZM12,2.209c.418,.496,1.163,1.632,1.556,3.743-1.046-.047-2.066-.047-3.112,0,.393-2.111,1.14-3.248,1.556-3.743Zm-3.731,7.059c0-.678,.061-1.513,.155-2.165,2.503-.251,4.652-.249,7.154,0,.094,.657,.155,1.494,.155,2.165,0,.12-.002,.238-.006,.355-1.087-.121-2.368-.214-3.727-.214s-2.639,.094-3.727,.215c-.003-.117-.005-.235-.005-.355Zm10.255,12.077c-.842,.169-3.527,.655-6.523,.655s-5.685-.486-6.524-.655c-.219-.682-.779-2.665-.779-5.141,0-2.457,.561-4.454,.78-5.141,.841-.169,3.527-.655,6.523-.655s5.685,.486,6.523,.655c.22,.682,.779,2.665,.779,5.141,0,2.457-.561,4.454-.779,5.141Z"/>
  <path d="M15.136,13.826c-2.209-.24-4.058-.24-6.271,0-.229,.024-.411,.202-.442,.43-.09,.656-.135,1.312-.135,1.948s.045,1.294,.134,1.947c.031,.228,.213,.404,.441,.43,1.099,.12,2.154,.182,3.137,.182s2.036-.062,3.135-.182c.228-.025,.409-.202,.44-.429,.091-.656,.137-1.312,.137-1.948,0-.633-.045-1.288-.135-1.948-.03-.228-.213-.405-.441-.43Zm-.503,3.802c-1.843,.18-3.428,.18-5.267,0-.052-.479-.078-.957-.078-1.424s.026-.943,.079-1.424c1.854-.18,3.414-.18,5.267,0,.052,.482,.078,.96,.078,1.424s-.026,.943-.079,1.424Z"/>
</svg>
