<svg id="Layer_1" viewBox="0 0 24 24" xmlns="http://www.w3.org/2000/svg" data-name="Layer 1"><path d="m22.5 1c-.795 0-2.395.099-3.264.226s-1.472.438-1.842.95c-.372.516-.482 1.217-.328 2.084v.007l.122.63-1.236.117c-.275.026-.477.271-.451.545.025.276.274.477.544.451l1.332-.126c.168.874.308 1.649.404 2.38l-1.246.324c-.267.069-.427.342-.358.609.068.269.35.429.61.357l1.099-.286c.048.689.046 1.369-.026 2.097-.538 5.947-2.747 6.635-4.361 6.635-.742 0-1.416-.326-1.896-.918-.5-.615-.708-1.417-.557-2.143.592-2.83 1.698-5.171 1.845-5.428.209-.248.099-.666-.209-.777-.241-.095-2.556-.724-5.684-.734-3.125.011-5.44.64-5.681.734-.312.114-.419.54-.199.788.019.022 1.882 2.299 1.882 6.978 0 4.191 2.131 6.5 6 6.5h.5c4.062 0 7.113-1.274 9.067-3.789 2.646-3.403 3.149-9.026 1.418-15.829-.031-.127-.008-.237.074-.357.306-.448 1.337-.872 2.507-1.029.261-.034.45-.266.433-.528s-.236-.467-.499-.467zm-4.722 17.598c-1.755 2.258-4.541 3.402-8.278 3.402h-.5c-3.318 0-5-1.851-5-5.5 0-3.669-1.062-5.964-1.684-6.993.871-.196 2.56-.5 4.682-.507 2.201.008 3.935.333 4.771.526-.532 1.122-1.301 3.293-1.702 5.208-.213 1.018.07 2.131.759 2.979.674.83 1.624 1.287 2.673 1.287 3.145 0 4.897-2.468 5.356-7.541.211-2.128-.133-3.9-.61-6.354l-.197-1.023c-.104-.59-.052-1.034.155-1.32.197-.291.659-.484 1.238-.555-.077.079-.147.164-.208.254-.242.354-.318.755-.218 1.162.958 3.766 2.071 10.718-1.237 14.975zm-15.762-11.765c.137-.89.482-2.1.943-2.798.22-.332.593-.515.992-.496.287.015.546.135.735.331.211-.84.629-1.725 1.411-2.473.433-.414 1.097-.516 1.651-.254 1.345.689 3.609 1.994 4.257 5.706.041.296-.197.567-.496.564-.248 0-.462-.184-.495-.436-.578-3.23-2.518-4.333-3.693-4.931-.179-.083-.398-.055-.533.072-1.071 1.024-1.296 2.403-1.296 3.38 0 .232-.16.434-.386.486-.228.057-.459-.057-.562-.264l-.569-1.146c-.063-.095-.151-.039-.183.011-.317.479-.649 1.488-.789 2.398-.042.273-.294.458-.57.418-.273-.042-.46-.298-.418-.57z"/></svg>