<?xml version="1.0" encoding="UTF-8"?>
<svg xmlns="http://www.w3.org/2000/svg" id="Layer_1" data-name="Layer 1" viewBox="0 0 24 24">
  <path d="M21.766,4.331c-.054-.161-.186-.283-.35-.325-.092-.023-2.272-.575-5.361-.896-.911-1.254-2.389-2.072-4.055-2.072s-3.145,.818-4.056,2.073c0,0-.001,0-.002,0-3.084,.32-5.267,.871-5.358,.895-.165,.042-.297,.165-.351,.327-.05,.151-1.233,3.762-1.233,8.594,0,4.874,1.184,8.447,1.234,8.597,.054,.161,.186,.283,.35,.325,.178,.045,4.406,1.112,9.416,1.112s9.237-1.067,9.416-1.112c.164-.042,.297-.165,.351-.327,.05-.151,1.233-3.762,1.233-8.595,0-4.874-1.184-8.446-1.234-8.596ZM12,2.039c2.209,0,4.006,1.794,4.006,4v.553c-.354,.228-1.329,.727-3.213,.84l.87-1.649c.129-.245,.035-.547-.209-.676-.241-.127-.546-.037-.676,.209l-1.126,2.134c-2.167-.055-3.275-.616-3.658-.86v-.552c0-2.206,1.797-4,4.006-4Zm8.897,18.905c-1.012,.233-4.727,1.017-8.897,1.017s-7.889-.784-8.899-1.017c-.266-.9-1.101-4.037-1.101-8.017,0-3.94,.836-7.109,1.103-8.017,.608-.14,2.19-.479,4.249-.726-.23,.574-.357,1.199-.357,1.854v.804c0,.138,.057,.27,.158,.364,.054,.051,1.37,1.249,4.848,1.249,3.504,0,4.799-1.201,4.852-1.252,.099-.094,.154-.225,.154-.361v-.804c0-.655-.127-1.281-.357-1.855,2.062,.247,3.643,.587,4.25,.727,.267,.901,1.102,4.045,1.102,8.017,0,3.941-.836,7.109-1.103,8.017Z"/>
</svg>
