<svg id="Layer_1" viewBox="0 0 24 24" xmlns="http://www.w3.org/2000/svg" data-name="Layer 1"><path d="m22.478 13.993c-3.783-4.582-10.467-8.61-17.827-10.969-.268-.084-.545.062-.628.325-.084.263.062.544.325.628 6.567 2.085 12.554 5.586 16.341 9.507-1.578-.208-4.459-.483-8.69-.483-6.657 0-9.986.682-10.125.711-.156.033-.287.137-.353.282-.021.047-.522 1.169-.522 3.007s.501 2.96.522 3.007c.065.145.196.25.353.282.139.029 3.468.711 10.125.711s9.986-.682 10.125-.711c.156-.033.287-.137.353-.282.021-.047.522-1.169.522-3.007s-.501-2.96-.522-3.007zm-.825 5.367c-.912.158-4.155.641-9.653.641s-8.741-.483-9.653-.641c-.127-.381-.347-1.21-.347-2.359s.22-1.978.347-2.359c.912-.158 4.155-.641 9.653-.641s8.741.483 9.653.641c.127.381.347 1.21.347 2.359s-.22 1.978-.347 2.359zm-15.903-2.36c0 .414-.336.75-.75.75s-.75-.336-.75-.75.336-.75.75-.75.75.336.75.75zm3 0c0 .414-.336.75-.75.75s-.75-.336-.75-.75.336-.75.75-.75.75.336.75.75z"/></svg>