<svg id="Layer_1" viewBox="0 0 24 24" xmlns="http://www.w3.org/2000/svg" data-name="Layer 1"><path d="m9.535 2.26c-.142-.532.174-1.081.706-1.225.525-.141 1.079.169 1.225.701.014.053.242.933.396 2.6-.586-.105-1.268-.195-2.036-.257-.131-1.187-.288-1.809-.291-1.82zm4.569 4.87c.037.102.896 2.539.896 7.37s-.86 7.269-.896 7.37c-.05.139-.159.248-.297.299-.092.034-2.291.831-5.807.831s-5.714-.797-5.807-.831c-.138-.051-.247-.161-.297-.299-.037-.102-.896-2.539-.896-7.37s.86-7.269.896-7.37c.05-.139.159-.248.297-.299.092-.034 2.291-.831 5.807-.831s5.714.797 5.807.831c.138.051.247.161.297.299zm-.104 7.37c0-3.826-.565-6.111-.767-6.805-.631-.193-2.534-.695-5.233-.695s-4.603.502-5.233.695c-.202.694-.767 2.979-.767 6.805s.565 6.111.767 6.805c.631.193 2.534.695 5.233.695s4.603-.502 5.233-.695c.202-.694.767-2.979.767-6.805zm-2.489-4.648c.02.064.489 1.607.489 4.648s-.469 4.584-.489 4.648c-.043.14-.146.253-.281.311-.051.022-1.283.541-3.23.541s-3.179-.519-3.23-.541c-.135-.058-.237-.171-.281-.311-.02-.064-.489-1.607-.489-4.648s.469-4.584.489-4.648c.043-.14.146-.253.281-.311.051-.022 1.283-.541 3.23-.541s3.179.519 3.23.541c.135.058.237.171.281.311zm-.511 4.648c0-2.219-.263-3.601-.385-4.119-.404-.132-1.338-.381-2.615-.381s-2.211.249-2.615.381c-.122.519-.385 1.9-.385 4.119s.263 3.601.385 4.119c.404.132 1.338.381 2.615.381s2.211-.249 2.615-.381c.122-.519.385-1.9.385-4.119zm11.465-12.763c-.145-.532-.69-.843-1.225-.701-.532.144-.848.692-.706 1.225.004.018.465 1.786.465 5.24s-.461 5.222-.465 5.237c-.145.533.169 1.083.702 1.228.519.146 1.084-.164 1.228-.702.022-.08.535-2.006.535-5.763s-.513-5.683-.535-5.763zm-3.586-.722c-.268.066-.431.338-.365.605.005.02.485 2.004.485 5.879s-.48 5.86-.485 5.879c-.066.268.097.539.365.605.261.068.54-.094.605-.364.021-.084.515-2.106.515-6.121s-.494-6.037-.515-6.121c-.067-.269-.338-.431-.605-.364zm-2 0c-.268.066-.431.338-.365.605.005.02.485 2.004.485 5.879s-.48 5.86-.485 5.879c-.066.268.097.539.365.605.261.068.54-.094.605-.364.021-.084.515-2.106.515-6.121s-.494-6.037-.515-6.121c-.067-.269-.338-.431-.605-.364zm-4.01 3.492c1.338.336 1.41.313 2.058.661-.142-2.218-.445-3.37-.462-3.431-.146-.532-.697-.842-1.225-.701-.532.144-.848.692-.706 1.225.003.011.198.775.334 2.247zm-5.017-.503c.342-.012.679.009 1.006.019-.148-1.704-.359-2.59-.373-2.645-.067-.268-.337-.433-.606-.364-.268.066-.431.338-.364.605.003.012.196.817.338 2.384z"/></svg>