<svg id="Layer_1" viewBox="0 0 24 24" xmlns="http://www.w3.org/2000/svg" data-name="Layer 1"><path d="m21.89 18.647c-.07-.099-1.518-2.151-4.881-5.687 2.478-2.776 3.882-4.888 3.887-4.892.048-.073.077-.158.082-.246.005-.081.026-.836-.724-2.546-.867-1.958-2.646-3.421-4.759-3.913-2.079-.483-4.963-.483-7.042 0-2.113.492-3.892 1.955-4.779 3.958-.73 1.665-.708 2.42-.704 2.501.005.085.032.167.078.239.066.104 1.282 1.99 3.88 4.919-3.343 3.532-4.762 5.584-4.822 5.672-.087.129-.11.291-.062.439.015.046.382 1.132 1.567 2.318s2.272 1.552 2.318 1.566c.146.049.31.026.438-.062.087-.06 2.116-1.464 5.607-4.763 3.498 3.297 5.561 4.698 5.661 4.765.128.086.29.109.435.06.046-.015 1.133-.382 2.318-1.566 1.185-1.185 1.552-2.272 1.567-2.318.049-.149.025-.314-.065-.444zm-2.532-12.926c.471 1.075.585 1.691.612 1.928-.324.47-1.548 2.188-3.65 4.594-.373-.385-.767-.785-1.182-1.2-.822-.822-1.634-1.593-2.418-2.311 2.711-2.418 4.931-4.071 5.619-4.57.413.459.763.98 1.02 1.559zm-10.677-3.384c1.935-.449 4.654-.449 6.589 0 .859.2 1.65.592 2.328 1.127-.853.626-3.023 2.268-5.624 4.592-2.606-2.329-4.778-3.973-5.628-4.598.678-.533 1.474-.921 2.335-1.122zm-4.071 3.343c.249-.561.586-1.075.992-1.525.938.681 4.776 3.543 8.83 7.596 1.648 1.647 2.942 3.047 3.951 4.191-.17.229-.263.893-1.402 2.058-1.223 1.188-1.794 1.195-2.102 1.43-1.149-.999-2.553-2.285-4.197-3.929-4.109-4.109-6.258-7.187-6.702-7.847.028-.242.145-.867.63-1.974zm1.411 16.251c-.332-.155-.994-.523-1.702-1.23-.708-.709-1.075-1.371-1.231-1.702.257-.352.852-1.135 1.805-2.26.197.421.619 1.168 1.419 1.968s1.548 1.222 1.968 1.419c-1.125.953-1.908 1.548-2.26 1.805zm3.083-2.516c-.275-.203-.888-.251-2.084-1.416-1.153-1.184-1.208-1.791-1.416-2.084.567-.646 1.229-1.377 1.996-2.188.703.77 1.493 1.601 2.373 2.481.444.444.866.856 1.276 1.251-.795.75-1.511 1.4-2.146 1.956zm10.577 1.286c-.71.709-1.374 1.077-1.705 1.231-.354-.254-1.143-.846-2.277-1.797.416-.193 1.174-.615 1.987-1.428.786-.785 1.207-1.52 1.409-1.945.953 1.114 1.553 1.89 1.814 2.24-.156.333-.523.993-1.229 1.699z"/></svg>