<?xml version="1.0" encoding="UTF-8"?>
<svg xmlns="http://www.w3.org/2000/svg" id="Layer_1" data-name="Layer 1" viewBox="0 0 24 24">
  <path d="M22.413,12.573c-.064-.11-.169-.191-.291-.227-.707-.206-1.582-.474-2.063-.622,.112-5.073-.668-8.881-.703-9.044-.038-.183-.174-.329-.354-.379-.153-.043-3.803-1.061-8.126-1.061S2.904,2.257,2.75,2.3c-.143,.041-.261,.143-.321,.279-.059,.132-1.429,3.295-1.429,9.612,0,4.446,1.024,5.918,1.141,6.072,.064,.085,.155,.147,.257,.177,.048,.014,.564,.161,1.645,.325-.235,.402-.362,.863-.362,1.34,0,1.464,1.188,2.655,2.649,2.655s2.648-1.191,2.648-2.655c0-.316-.057-.628-.165-.92,.888,.036,1.876,.057,2.973,.057,1.49,0,2.82-.038,3.991-.098-.118,.304-.18,.629-.18,.96,0,1.464,1.188,2.655,2.649,2.655s2.648-1.191,2.648-2.655c0-.498-.138-.976-.39-1.389,.998-.14,1.53-.256,1.585-.268,.135-.03,.252-.115,.322-.235,.024-.041,.587-1.019,.587-2.808,0-1.811-.563-2.792-.587-2.832Zm-6.771-.983V6.406h3.22c.135,1.433,.237,3.217,.199,5.184h-3.418ZM3.258,3.201c.875-.222,4.052-.961,7.618-.961,3.491,0,6.606,.707,7.558,.946,.071,.397,.2,1.171,.322,2.221H2.648c.241-1.13,.486-1.866,.611-2.206Zm6.978,8.389h-3.406V6.406h3.406v5.184ZM2.456,6.406h3.374v5.184H2.005c.031-2.116,.223-3.845,.452-5.184Zm-.453,6.184H10.236v5.637c-4.441-.091-6.742-.553-7.375-.701-.218-.415-.811-1.824-.858-4.936Zm5.975,7.515c0,.913-.739,1.655-1.648,1.655s-1.649-.743-1.649-1.655c0-.451,.182-.878,.503-1.189,.686,.079,1.507,.153,2.476,.211,.209,.284,.319,.62,.319,.978Zm3.257-1.865V6.406h3.406v11.785c-.876,.032-1.828,.051-2.855,.051-.187,0-.37,0-.551-.002Zm8.66,1.865c0,.913-.739,1.655-1.648,1.655s-1.649-.743-1.649-1.655c0-.375,.127-.739,.359-1.031,.913-.063,1.706-.137,2.378-.212,.357,.314,.56,.764,.56,1.243Zm1.742-2.586c-.661,.125-2.699,.464-5.995,.63v-5.558h3.83c.275,.085,1.291,.399,2.154,.653,.129,.309,.374,1.041,.374,2.162,0,1.077-.232,1.795-.363,2.113Z"/>
</svg>
