<?xml version="1.0" encoding="UTF-8"?>
<svg xmlns="http://www.w3.org/2000/svg" id="Layer_1" data-name="Layer 1" viewBox="0 0 24 24">
  <path d="M21.236,7.524c-.061-.156-.194-.272-.357-.308-.121-.027-2.954-.651-6.677-.853l-.542-.748c-.172-.237-.39-.42-.63-.565l1.123-.632c.373-.205,.604-.595,.604-1.02s-.231-.814-.604-1.019l-2.244-1.233c-.367-.201-.798-.194-1.158,.018-.358,.211-.572,.586-.572,1.001v3.452l-.547,.755c-3.639,.211-6.397,.818-6.513,.844-.164,.037-.298,.153-.358,.31-.048,.125-1.173,3.121-1.173,7.125,0,4.039,1.126,7.002,1.174,7.126,.06,.156,.194,.271,.357,.308,.167,.038,4.155,.916,8.878,.916s8.71-.878,8.878-.915c.164-.037,.299-.153,.358-.31,.048-.125,1.173-3.121,1.173-7.125,0-4.039-1.125-7.002-1.173-7.126Zm-.845,.612c.125,.374,.361,1.155,.575,2.207h-1.714c-1.356,0-2.64-.651-3.43-1.742l-.859-1.186c2.615,.192,4.708,.577,5.427,.721ZM11.262,2.024c.019-.011,.049-.024,.086-.024,.024,0,.052,.006,.081,.021l2.244,1.233c.073,.041,.085,.106,.085,.142,0,.036-.012,.102-.09,.146l-2.204,1.241c-.098,.021-.19,.057-.283,.091V2.165c0-.081,.05-.123,.081-.14ZM3.609,8.136c.706-.141,2.728-.513,5.26-.709l-.85,1.174c-.79,1.091-2.072,1.742-3.43,1.742h-1.553c.214-1.048,.449-1.831,.573-2.207Zm6.684,13.824v-2.057c0-.934,.766-1.693,1.707-1.693s1.706,.759,1.706,1.693v2.057c-.555,.025-1.125,.04-1.706,.04s-1.151-.015-1.707-.04Zm10.097-.796c-.744,.149-2.947,.554-5.685,.74v-2.002c0-1.485-1.214-2.693-2.706-2.693s-2.707,1.208-2.707,2.693v2.002c-2.74-.186-4.943-.591-5.685-.74-.262-.785-1.018-3.323-1.018-6.514,0-1.215,.112-2.338,.264-3.308h1.735c1.677,0,3.262-.806,4.24-2.155l2.164-2.986c.434-.599,1.424-.599,1.857,0l2.164,2.986c.979,1.349,2.562,2.155,4.239,2.155h1.894c.151,.967,.262,2.089,.262,3.308,0,3.166-.757,5.723-1.019,6.514Z"/>
  <path d="M18.179,13.742h-1.032c-.276,0-.5,.224-.5,.5s.224,.5,.5,.5h1.032c.276,0,.5-.224,.5-.5s-.224-.5-.5-.5Z"/>
  <path d="M18.179,17.438h-1.032c-.276,0-.5,.224-.5,.5s.224,.5,.5,.5h1.032c.276,0,.5-.224,.5-.5s-.224-.5-.5-.5Z"/>
  <path d="M6.854,13.742h-1.033c-.276,0-.5,.224-.5,.5s.224,.5,.5,.5h1.033c.276,0,.5-.224,.5-.5s-.224-.5-.5-.5Z"/>
  <path d="M6.854,17.438h-1.033c-.276,0-.5,.224-.5,.5s.224,.5,.5,.5h1.033c.276,0,.5-.224,.5-.5s-.224-.5-.5-.5Z"/>
  <path d="M11.47,12.13c-.14,.14-.22,.33-.22,.53s.08,.39,.22,.53c.14,.14,.33,.22,.53,.22s.39-.08,.53-.22c.14-.14,.22-.33,.22-.53s-.08-.39-.22-.53c-.28-.28-.78-.28-1.06,0Z"/>
</svg>
