<?xml version="1.0" encoding="UTF-8"?>
<svg xmlns="http://www.w3.org/2000/svg" id="Layer_1" data-name="Layer 1" viewBox="0 0 24 24">
  <path d="M18.902,14.575c-.877,0-1.898,.104-2.701,.658-.55-.393-1.889-1.399-3.486-2.923,.707-.714,1.447-1.52,2.184-2.412,3.331-4.034,4.867-7.717,4.931-7.872,.105-.255-.016-.547-.271-.652-.256-.106-.547,.016-.652,.271-.016,.036-1.549,3.705-4.778,7.616-.714,.865-1.437,1.65-2.128,2.347-.691-.697-1.413-1.481-2.128-2.347C6.643,5.351,5.109,1.682,5.094,1.646c-.104-.255-.395-.377-.652-.271-.256,.105-.377,.397-.271,.652,.063,.155,1.6,3.837,4.931,7.872,.737,.892,1.477,1.698,2.184,2.412-1.596,1.524-2.936,2.529-3.486,2.923-.803-.554-1.824-.658-2.701-.658-1.759,0-4.098,.419-4.098,4.044s2.339,4.044,4.098,4.044,4.097-.419,4.097-4.044c0-1.215-.263-2.069-.678-2.669,.646-.467,1.947-1.464,3.484-2.936,1.536,1.472,2.838,2.468,3.484,2.936-.415,.6-.678,1.454-.678,2.669,0,3.625,2.338,4.044,4.097,4.044s4.098-.419,4.098-4.044-2.339-4.044-4.098-4.044Zm-13.805,7.089c-1.912,0-3.098-.509-3.098-3.044s1.186-3.044,3.098-3.044,3.097,.509,3.097,3.044-1.185,3.044-3.097,3.044Zm13.805,0c-1.912,0-3.097-.509-3.097-3.044s1.185-3.044,3.097-3.044,3.098,.509,3.098,3.044-1.186,3.044-3.098,3.044Z"/>
</svg>
