<svg id="Layer_1" viewBox="0 0 24 24" xmlns="http://www.w3.org/2000/svg" data-name="Layer 1"><path d="m20.176 17.011c-.853-6.22-2.308-11.653-4.224-15.724-.082-.175-.259-.287-.452-.287-.087 0-2.142.012-4.224 1.053-.247.124-.347.424-.224.671.124.248.423.346.671.224 1.415-.708 2.849-.887 3.464-.932 1.298 2.838 2.37 6.341 3.177 10.298-1.527 2.851-4.64 4.686-7.963 4.686h-8.901c-.276 0-.5.224-.5.5s.224.5.5.5h1.009c-.337.482-.509 1.135-.509 2 0 2.075.925 3 3 3s3-.925 3-3c0-.865-.171-1.518-.509-2h2.912c3.294 0 6.402-1.636 8.24-4.247.196 1.075.374 2.179.53 3.313-1.491.234-2.173 1.162-2.173 2.934 0 2.075.925 3 3 3s3-.925 3-3c0-2.012-.879-2.935-2.824-2.989zm-13.176 2.989c0 1.514-.486 2-2 2s-2-.486-2-2 .486-2 2-2 2 .486 2 2zm13 2c-1.514 0-2-.486-2-2s.486-2 2-2 2 .486 2 2-.486 2-2 2z"/></svg>