<svg id="Layer_1" viewBox="0 0 24 24" xmlns="http://www.w3.org/2000/svg" data-name="Layer 1"><path d="m22.966 3.317c-.402-1.023-1.164-1.789-2.264-2.274-.156-.071-.334-.055-.476.038l-3.827 2.5c-.115.075-.194.195-.219.33-.222 1.234-.229 2.271-.044 3.245l-5.912 5.912c-.596-.471-1.333-.815-2.254-1.044-.171-.042-.35.008-.474.132-.765.764-1.495 1.532-2.145 2.23-1.481 1.602-2.693 3.034-3.443 3.948-1.022 1.197-1.409 2.289.027 3.725.658.659 1.24.933 1.801.933.638 0 1.25-.354 1.917-.899 1.41-1.157 2.712-2.292 3.983-3.47.697-.648 1.438-1.359 2.203-2.124.124-.124.174-.304.132-.474-.227-.919-.569-1.654-1.039-2.25l5.912-5.912c1.082.212 2.093.161 3.245-.044.135-.024.255-.104.33-.219l2.5-3.827c.088-.136.105-.306.047-.456zm-14.009 14.573c-1.255 1.163-2.543 2.285-3.937 3.43-1.079.882-1.523.889-2.377.033-.865-.865-.86-1.33.033-2.376.748-.91 1.946-2.327 3.41-3.909.583-.628 1.233-1.312 1.916-2 1.618.464 2.467 1.313 2.928 2.928-.684.679-1.346 1.312-1.972 1.895zm10.743-11.019c-.986.16-1.827.17-2.604.033-.138-.778-.127-1.618.033-2.604l3.409-2.228c.647.334 1.106.789 1.396 1.381l-2.233 3.418z"/></svg>