<?xml version="1.0" encoding="UTF-8"?>
<svg xmlns="http://www.w3.org/2000/svg" id="Layer_1" data-name="Layer 1" viewBox="0 0 24 24">
  <path d="M21.757,2.962c-.062-.155-.196-.269-.359-.304-.043-.009-4.397-.941-9.397-.941S2.646,2.649,2.603,2.658c-.164,.036-.299,.15-.36,.306-.051,.129-1.243,3.211-1.243,7.333,0,4.157,1.192,7.207,1.243,7.335,.062,.155,.196,.269,.359,.304,.042,.009,4.111,.879,8.898,.938v2.408H7.297c-.276,0-.5,.224-.5,.5s.224,.5,.5,.5h9.406c.276,0,.5-.224,.5-.5s-.224-.5-.5-.5h-4.203v-2.408c4.777-.058,8.856-.929,8.897-.938,.164-.036,.299-.15,.36-.306,.051-.129,1.242-3.211,1.242-7.333,0-4.157-1.192-7.208-1.243-7.335ZM3.083,3.581c1.012-.197,4.74-.864,8.917-.864s7.909,.667,8.918,.864c.275,.795,1.082,3.409,1.082,6.716,0,.78-.046,1.524-.12,2.215-.97,.192-5.164,.966-9.88,.966s-8.916-.774-9.882-.966c-.073-.69-.118-1.434-.118-2.215,0-3.272,.808-5.913,1.083-6.717Zm17.833,13.433c-1.013,.197-4.741,.864-8.917,.864s-7.908-.667-8.917-.864c-.176-.509-.568-1.76-.829-3.456,1.415,.266,5.353,.921,9.746,.921s8.326-.656,9.744-.921c-.261,1.689-.652,2.945-.827,3.457Z"/>
</svg>
