<svg id="Layer_1" viewBox="0 0 24 24" xmlns="http://www.w3.org/2000/svg" data-name="Layer 1"><path d="m22.845 20.862c-.091.087-2.276 2.138-5.069 2.138-1.04 0-2.029-.505-3.112-1.588-2.106-2.106-2.106-3.984 0-6.091l6.564-6.688c1.029-1.029 1.029-1.688.003-2.715-1.026-1.025-1.686-1.025-2.712 0 0 0-11.111 11.258-12.332 12.479-1.406 1.408-2.717 1.409-4.126 0-1.408-1.407-1.408-2.719 0-4.126 1.212-1.212 8.878-8.491 9.204-8.8 1.017-1.018 1.017-1.676-.009-2.703-1.026-1.025-1.686-1.025-2.712 0-.006.006-3.934 3.795-6.699 6.442-.199.191-.516.185-.707-.016-.191-.199-.184-.516.016-.707 2.764-2.644 6.689-6.431 6.689-6.431 1.401-1.402 2.712-1.401 4.12.006 1.407 1.408 1.407 2.719 0 4.126-.089.085-7.992 7.589-9.194 8.791-1.026 1.026-1.026 1.686 0 2.712 1.026 1.025 1.686 1.025 2.712 0 1.221-1.221 12.33-12.477 12.33-12.477 1.41-1.41 2.721-1.408 4.128-.002 1.407 1.407 1.407 2.718 0 4.126l-6.564 6.688c-1.73 1.729-1.73 2.953-.003 4.68.883.884 1.647 1.295 2.405 1.295 2.386 0 4.361-1.844 4.38-1.862.199-.189.516-.183.707.019.19.199.182.516-.018.706z"/></svg>