<svg id="Layer_1" viewBox="0 0 24 24" xmlns="http://www.w3.org/2000/svg" data-name="Layer 1"><path d="m22.5 16.5h-1.679c.093-1.248.179-3.078.179-4.5 0-6.653-1.139-9.521-1.188-9.639-.058-.142-.178-.25-.325-.292-.153-.043-3.797-1.069-8.537-1.069s-8.385 1.025-8.538 1.069c-.082.023-.156.068-.217.128-.049.049-1.191 1.216-1.195 2.977-.006 2.111.497 2.65.797 2.784.063.028.133.043.203.043h2v14c0 .247.181.458.425.494.137.021 3.397.506 8.625.506 3.226 0 5.669-.195 7.151-.358 1.261-.139 2.324-1.02 2.647-2.191.101-.361.151-.731.151-1.101v-2.35c0-.276-.224-.5-.5-.5zm-20.5-11.324c.003-1.097.603-1.917.824-2.183.198-.052.604-.153 1.176-.272v4.279h-1.762c-.088-.19-.241-.688-.238-1.824zm6.5 14.324c0 .778-.51 2.227-1.736 2.244-.798-.068-1.396-.136-1.764-.182v-8.062h4c.276 0 .5-.224.5-.5s-.224-.5-.5-.5h-4v-4.5h4c.276 0 .5-.224.5-.5s-.224-.5-.5-.5h-4v-4.469c1.495-.263 3.596-.531 5.95-.531 3.909 0 7.122.739 8.016.965.212.655.788 2.738.975 6.535h-3.94c-.276 0-.5.224-.5.5s.224.5.5.5h3.979c.013.476.021.976.021 1.5 0 1.41-.09 3.289-.182 4.5h-10.819c-.276 0-.5.224-.5.5zm13.5-.15c0 .279-.038.559-.115.834-.215.781-.936 1.369-1.793 1.463-1.457.161-3.862.353-7.042.353-1.693 0-3.187-.053-4.43-.125.595-.679.88-1.629.88-2.375v-2h12.5z"/></svg>