<svg id="Layer_1" viewBox="0 0 24 24" xmlns="http://www.w3.org/2000/svg" data-name="Layer 1"><path d="m19.837 2.381c-.05-.139-.159-.249-.297-.3-.119-.044-2.97-1.081-7.54-1.081-1.155 0-2.318.07-3.455.208-.109.013-.212.062-.291.141l-4.769 4.713c-.079.078-.13.181-.145.291-.226 1.745-.341 3.646-.341 5.647 0 6.314 1.116 9.487 1.163 9.619.05.139.159.249.297.3.119.044 2.97 1.081 7.54 1.081s7.421-1.037 7.54-1.081c.138-.051.247-.161.297-.3.047-.132 1.163-3.305 1.163-9.619s-1.116-9.487-1.163-9.619zm-.87 18.676c-.747.235-3.299.943-6.967.943s-6.22-.708-6.967-.943c-.245-.818-1.033-3.861-1.033-9.057 0-1.895.104-3.693.312-5.349l4.523-4.471c1.043-.12 2.106-.181 3.165-.181 3.668 0 6.22.708 6.967.943.245.818 1.033 3.861 1.033 9.057s-.788 8.238-1.033 9.057zm-1.967-16.557v2c0 .276-.224.5-.5.5s-.5-.224-.5-.5v-2c0-.276.224-.5.5-.5s.5.224.5.5zm-3 0v2c0 .276-.224.5-.5.5s-.5-.224-.5-.5v-2c0-.276.224-.5.5-.5s.5.224.5.5zm-3 0v2c0 .276-.224.5-.5.5s-.5-.224-.5-.5v-2c0-.276.224-.5.5-.5s.5.224.5.5z"/></svg>