<svg id="Layer_1" viewBox="0 0 24 24" xmlns="http://www.w3.org/2000/svg" data-name="Layer 1"><path d="m12.75 17c0 .414-.336.75-.75.75s-.75-.336-.75-.75.336-.75.75-.75.75.336.75.75zm-.75-10c-2.075 0-3 .925-3 3 0 .276.224.5.5.5s.5-.224.5-.5c0-1.514.486-2 2-2s2 .486 2 2c0 1.348-.439 1.688-.915 1.854-.441.154-1.585.84-1.585 2.146 0 .276.224.5.5.5s.5-.224.5-.5c0-.731.722-1.134.915-1.202 1.421-.497 1.585-1.835 1.585-2.798 0-2.075-.925-3-3-3zm10.921 5.27c-.04.062-.973 1.516-2.381 3.268-.244 2.234-.611 3.923-.627 3.995-.042.19-.19.339-.381.381-.072.016-1.761.383-3.995.627-1.752 1.408-3.205 2.341-3.268 2.381-.164.105-.375.105-.539 0-.062-.04-1.516-.973-3.268-2.381-2.234-.244-3.923-.611-3.995-.627-.19-.042-.339-.19-.381-.381-.016-.072-.383-1.761-.627-3.995-1.408-1.752-2.341-3.205-2.381-3.268-.105-.164-.105-.375 0-.539.04-.062.973-1.516 2.381-3.268.244-2.234.611-3.922.627-3.994.042-.191.19-.34.381-.381.072-.016 1.761-.383 3.995-.627 1.752-1.407 3.205-2.341 3.268-2.38.164-.105.375-.105.539 0 .062.04 1.516.973 3.268 2.38 2.234.244 3.923.611 3.995.627.19.042.339.19.381.381.016.072.383 1.76.627 3.994 1.408 1.752 2.341 3.206 2.381 3.268.105.165.105.375 0 .539zm-1.02-.27c-.344-.514-1.161-1.702-2.231-3.024-.061-.075-.099-.166-.108-.262-.179-1.69-.439-3.108-.561-3.715-.606-.12-2.024-.382-3.716-.561-.096-.01-.187-.048-.262-.108-1.322-1.069-2.51-1.887-3.023-2.231-.514.344-1.701 1.162-3.023 2.231-.075.061-.166.099-.262.108-1.691.179-3.109.44-3.716.561-.121.607-.382 2.025-.561 3.715-.01.096-.048.187-.108.262-1.07 1.322-1.888 2.51-2.231 3.024.344.514 1.161 1.701 2.231 3.023.061.075.099.166.108.262.179 1.691.439 3.109.561 3.716.606.121 2.024.382 3.716.561.096.01.187.048.262.108 1.324 1.071 2.51 1.888 3.023 2.231.514-.344 1.701-1.161 3.023-2.231.075-.061.166-.099.262-.108 1.691-.179 3.109-.439 3.716-.561.121-.606.382-2.024.561-3.716.01-.096.048-.187.108-.262 1.071-1.324 1.888-2.51 2.231-3.023z"/></svg>