<svg id="Layer_1" viewBox="0 0 24 24" xmlns="http://www.w3.org/2000/svg" data-name="Layer 1"><path d="m22.854 22.146-4.974-4.974c1.387-1.595 2.12-3.834 2.12-6.673 0-6.126-3.374-9.5-9.5-9.5s-9.5 3.375-9.5 9.501 3.374 9.5 9.5 9.5c2.839 0 5.078-.733 6.673-2.12l4.974 4.974c.195.195.512.195.707 0s.195-.512 0-.707zm-12.354-3.146c-5.561 0-8.5-2.939-8.5-8.5s2.939-8.5 8.5-8.5 8.5 2.939 8.5 8.5-2.939 8.5-8.5 8.5zm0-14c-2.481 0-4.5 2.019-4.5 4.5 0 3.053 4.004 6.52 4.175 6.666.187.16.464.16.65 0 .171-.146 4.175-3.613 4.175-6.666 0-2.481-2.019-4.5-4.5-4.5zm0 10.11c-.925-.866-3.5-3.473-3.5-5.61 0-1.93 1.57-3.5 3.5-3.5s3.5 1.57 3.5 3.5c0 2.138-2.575 4.744-3.5 5.61zm.75-5.61c0 .414-.336.75-.75.75s-.75-.336-.75-.75.336-.75.75-.75.75.336.75.75z"/></svg>