<?xml version="1.0" encoding="UTF-8"?>
<svg xmlns="http://www.w3.org/2000/svg" id="Layer_1" data-name="Layer 1" viewBox="0 0 24 24">
  <path d="M9.45,7.417c-.276,0-.5,.224-.5,.5s.224,.5,.5,.5h4.391c.276,0,.5-.224,.5-.5s-.224-.5-.5-.5h-4.391Z"/>
  <path d="M20.878,21.644l-1.375-1.358c.443-.624,.68-1.455,.698-2.485-.044-2.466-1.427-3.833-3.901-3.849-2.467,.015-3.85,1.382-3.895,3.849v.018c.047,2.503,1.394,3.834,3.9,3.848,1.027-.006,1.86-.234,2.488-.676l1.381,1.365c.098,.096,.225,.144,.352,.144,.129,0,.258-.05,.355-.148,.194-.197,.192-.513-.004-.708Zm-7.473-3.834c.038-1.938,.96-2.846,2.895-2.857,1.919,.012,2.868,.95,2.901,2.848-.036,1.971-.931,2.855-2.896,2.867-1.967-.011-2.861-.893-2.9-2.857Z"/>
  <path d="M9.809,20.714c-2.354-.199-4.293-.722-4.975-.924-.209-.92-.86-4.112-.86-8.144,0-4,.651-7.216,.86-8.143,.854-.251,3.67-1.003,6.812-1.003s5.961,.752,6.812,1.004c.204,.898,.831,3.963,.859,7.872,.002,.275,.226,.497,.5,.497h.004c.275-.002,.498-.228,.496-.503-.034-4.773-.918-8.239-.955-8.384-.043-.164-.166-.295-.326-.349-.14-.046-3.459-1.135-7.391-1.135s-7.25,1.089-7.39,1.135c-.162,.054-.285,.186-.327,.351-.039,.152-.955,3.79-.955,8.661,0,4.913,.916,8.512,.955,8.662,.043,.165,.166,.296,.326,.35,.098,.032,2.414,.793,5.47,1.052,.015,.001,.028,.002,.043,.002,.257,0,.476-.197,.497-.458,.023-.275-.181-.517-.456-.54Z"/>
</svg>
