<svg id="Layer_1" viewBox="0 0 24 24" xmlns="http://www.w3.org/2000/svg" data-name="Layer 1"><path d="m13.159 12.337c0 1.3-.937 2.381-2.17 2.613l.002.548c0 .276-.222.501-.498.502h-.002c-.275 0-.499-.223-.5-.498l-.002-.551c-1.166-.226-2.072-1.217-2.151-2.441-.018-.275.191-.514.467-.531.298-.021.514.192.531.467.056.872.784 1.555 1.659 1.555.918 0 1.664-.746 1.664-1.663s-.746-1.664-1.664-1.664c-1.385 0-2.43-.982-2.43-2.285 0-1.137.829-2.087 1.932-2.326l.003-.563c0-.275.225-.498.5-.498h.002c.276 0 .499.227.498.502l-.003.544c.851.156 1.573.734 1.87 1.54.096.259-.037.547-.296.642-.256.098-.546-.036-.642-.296-.206-.558-.765-.932-1.392-.932-.812 0-1.473.622-1.473 1.388 0 .745.602 1.285 1.43 1.285 1.469 0 2.664 1.195 2.664 2.664zm9.694 10.517c-.195.195-.512.195-.707 0l-4.974-4.974c-1.595 1.387-3.834 2.12-6.673 2.12-6.126 0-9.5-3.374-9.5-9.5s3.375-9.5 9.501-9.5 9.5 3.374 9.5 9.5c0 2.839-.733 5.078-2.12 6.673l4.974 4.974c.195.195.195.512 0 .707zm-3.854-12.354c0-5.561-2.939-8.5-8.5-8.5s-8.499 2.939-8.499 8.5 2.939 8.5 8.5 8.5 8.5-2.939 8.5-8.5z"/></svg>