<svg id="Layer_1" viewBox="0 0 24 24" xmlns="http://www.w3.org/2000/svg" data-name="Layer 1"><path d="m19.784 20.979c-.029.01-2.926 1.021-6.784 1.021-3.597 0-6.063-.534-7.249-.79-.152-.033-.278-.12-.354-.245-.071-.115-.091-.25-.057-.379l.76-2.913c1.231.297 3.856.827 6.9.827 3.954 0 6.797-1.105 6.916-1.153.068-.026.129-.068.179-.12.037-.039.905-.972.905-2.727 0-1.782-1.184-2.833-1.234-2.877-.091-.079-.207-.123-.328-.123-.32 0-6.975-.008-8.933-.003.001-.519 0-1.262-.003-1.826l-.002-.671c0-.168-.003-.335-.009-.5h8.009c.276 0 .5-.224.5-.5s-.224-.5-.5-.5h-8.074c-.3-3.126-1.417-5.59-1.472-5.709-.024-.054-.059-.103-.101-.145-.108-.108-.753-.646-2.854-.646-1.601 0-2.741.793-2.789.827-.133.094-.211.246-.211.408v7.665c0 5.259 1.96 7.275 2.149 7.456l-.777 2.977c-.104.396-.042.807.173 1.156.221.359.575.607.995.698 1.219.264 3.756.812 7.46.812 4.04 0 6.996-1.035 7.119-1.079.26-.093.396-.378.304-.638s-.378-.396-.639-.304zm-15.784-11.079v-7.382c.346-.188 1.085-.518 2-.518 1.358 0 1.936.242 2.097.326.258.607 1.403 3.483 1.403 6.674l.002.675c.002.799.007 1.966-.002 2.313-.003.137.049.269.146.365.097.097.234.149.365.147.444-.01 7.874-.001 9.219 0 .243.27.77.971.77 2 0 1.093-.407 1.746-.567 1.96-.563.201-3.112 1.04-6.433 1.04-3.547 0-6.582-.768-7.231-.944-.342-.396-1.769-2.305-1.769-6.656z"/></svg>