<svg id="Layer_1" viewBox="0 0 24 24" xmlns="http://www.w3.org/2000/svg" data-name="Layer 1"><path d="m21.711 20.014c-2.415-1.208-5.192-1.7-7.211-1.957v-4.951c0-.509-.148-.987-.395-1.395 1.987-.556 2.895-2.027 2.895-4.72 0-3.505-1.495-5-5-5s-5 1.495-5 5c0 2.646.927 4.151 2.878 4.714-.236.388-.378.829-.378 1.294v7.198c-.906-.956-1.635-1.582-1.673-1.614-.721-.624-1.733-.745-2.581-.303-.856.447-1.328 1.422-1.145 2.381.009.038.208.953.652 2.028.105.258.403.375.652.271.256-.105.377-.398.271-.653-.406-.985-.596-1.846-.596-1.845-.1-.519.158-1.051.627-1.295.487-.254 1.047-.188 1.466.174.013.01 1.23 1.058 2.444 2.482.137.16.356.216.554.145.196-.072.327-.26.327-.469v-8.5c-.018-.905.86-1.651 1.756-1.479.709.115 1.244.797 1.244 1.586v5.393c0 .253.189.467.441.497 1.893.224 4.649.65 7.044 1.777-.007.588-.032 1.165-.075 1.685-.023.275.182.517.457.54.258.019.517-.181.539-.458.053-.639.081-1.358.081-2.08 0-.189-.107-.362-.276-.447zm-9.711-17.022c2.953 0 4 1.047 4 4 0 1.116-.17 1.946-.527 2.559-.782-1.362-2.31-1.552-3.473-1.552s-2.691.19-3.473 1.552c-.357-.614-.527-1.443-.527-2.56 0-2.953 1.047-4 4-4zm-1.325 7.905c-.541-.142-1.059-.285-1.43-.566.274-.724.888-1.331 2.756-1.331s2.482.608 2.755 1.331c-.374.279-.885.429-1.434.564-.272-.178-.575-.308-.905-.362-.61-.098-1.226.04-1.741.363zm1.325-3.897c.995 0 1.5-.505 1.5-1.5s-.505-1.5-1.5-1.5-1.5.505-1.5 1.5.505 1.5 1.5 1.5zm0-2c.439 0 .5.061.5.5s-.061.5-.5.5-.5-.061-.5-.5.061-.5.5-.5zm-7.5 4c-1.116 0-2.06-.192-2.655-.353-.593-.161-.957-.799-.813-1.422.329-1.414 1.594-2.225 3.469-2.225.395 0 .765.035 1.101.104.271.056.445.32.389.591s-.324.44-.59.389c-.271-.056-.573-.084-.899-.084-.984 0-2.216.252-2.494 1.451-.026.111.042.215.101.231.536.145 1.388.318 2.394.318.336 0 .653-.02.947-.05.285-.031.521.17.55.445s-.17.521-.444.549c-.327.035-.68.056-1.053.056zm0-5c.995 0 1.5-.505 1.5-1.5s-.505-1.5-1.5-1.5-1.5.505-1.5 1.5.505 1.5 1.5 1.5zm0-2c.439 0 .5.061.5.5s-.061.5-.5.5-.5-.061-.5-.5.061-.5.5-.5zm17.655 6.647c-.596.161-1.539.353-2.655.353-.373 0-.726-.021-1.053-.056-.274-.029-.474-.275-.444-.549.029-.275.262-.477.55-.445.294.031.611.05.947.05 1.006 0 1.857-.173 2.394-.318.059-.016.127-.12.101-.231-.278-1.199-1.51-1.451-2.494-1.451-.326 0-.629.028-.899.084-.258.051-.535-.118-.59-.389-.057-.271.118-.535.389-.591.336-.069.706-.104 1.101-.104 1.875 0 3.14.811 3.469 2.225.144.624-.221 1.261-.813 1.422zm-2.655-4.647c.995 0 1.5-.505 1.5-1.5s-.505-1.5-1.5-1.5-1.5.505-1.5 1.5.505 1.5 1.5 1.5zm0-2c.439 0 .5.061.5.5s-.061.5-.5.5-.5-.061-.5-.5.061-.5.5-.5z"/></svg>