<svg id="Layer_1" viewBox="0 0 24 24" xmlns="http://www.w3.org/2000/svg" data-name="Layer 1"><path d="m22.538 13.843c-.042-.19-.19-.339-.381-.381-.072-.016-1.527-.328-3.193-.429.016-.344.036-.687.036-1.033 0-2.91-.635-5.834-.662-5.958-.042-.19-.19-.339-.381-.381-.123-.027-3.048-.662-5.957-.662-.346 0-.69.02-1.033.036-.1-1.666-.413-3.121-.429-3.193-.042-.19-.19-.339-.381-.381-.086-.019-2.126-.462-4.157-.462s-4.071.444-4.157.463c-.19.042-.339.19-.381.381-.019.086-.462 2.126-.462 4.157s.443 4.071.462 4.157c.042.19.19.339.381.381.072.016 1.527.328 3.193.429-.016.344-.036.687-.036 1.033 0 2.91.635 5.834.662 5.958.042.19.19.339.381.381.123.027 3.048.662 5.957.662.346 0 .69-.02 1.033-.036.1 1.666.413 3.121.429 3.193.042.19.19.339.381.381.086.019 2.126.462 4.157.462s4.071-.443 4.157-.462c.19-.042.339-.19.381-.381.019-.086.462-2.126.462-4.157s-.443-4.071-.462-4.157zm-20.538-7.843c0-1.467.254-2.983.375-3.625.643-.122 2.158-.375 3.625-.375s2.982.253 3.625.375c.121.642.375 2.158.375 3.625s-.254 2.983-.375 3.625c-.643.122-2.158.375-3.625.375s-2.982-.253-3.625-.375c-.121-.642-.375-2.158-.375-3.625zm4.574 11.426c-.162-.832-.574-3.167-.574-5.426 0-.336.019-.668.035-1.001 2.019-.005 4.036-.442 4.122-.461.19-.042.339-.19.381-.381.018-.085.456-2.103.461-4.122.333-.016.665-.035 1.001-.035 2.259 0 4.594.412 5.426.574.162.832.574 3.167.574 5.426 0 .336-.019.668-.035 1.001-2.019.005-4.036.442-4.122.461-.19.042-.339.19-.381.381-.018.085-.456 2.103-.461 4.122-.333.016-.665.035-1.001.035-2.259 0-4.594-.412-5.426-.574zm15.051 4.199c-.643.122-2.158.375-3.625.375s-2.982-.253-3.625-.375c-.121-.642-.375-2.158-.375-3.625s.254-2.983.375-3.625c.643-.122 2.158-.375 3.625-.375s2.982.253 3.625.375c.121.642.375 2.158.375 3.625s-.254 2.983-.375 3.625z"/></svg>