<svg id="Layer_1" viewBox="0 0 24 24" xmlns="http://www.w3.org/2000/svg" data-name="Layer 1"><g><path d="m5.785 21.442c-1.277-.22-2.233-.449-2.673-.561-.26-.963-1.112-4.457-1.112-8.881 0-4.389.853-7.91 1.112-8.881 1.01-.256 4.726-1.119 8.888-1.119s7.881.863 8.888 1.119c.26.964 1.112 4.458 1.112 8.881 0 .276.224.5.5.5s.5-.224.5-.5c0-5.353-1.18-9.274-1.23-9.438-.05-.163-.179-.289-.342-.335-.178-.05-4.412-1.227-9.428-1.227s-9.249 1.177-9.427 1.227c-.165.046-.294.173-.343.337-.05.166-1.229 4.129-1.229 9.437 0 5.353 1.18 9.274 1.23 9.438.05.163.179.289.342.335.049.014 1.212.339 3.043.654.029.005.484.057.578-.408.05-.245-.136-.531-.408-.578z"/><path d="m20.468 15.883c0-2.637-2.167-4.782-4.829-4.782s-4.829 2.146-4.829 4.783c0 .22.015.438.045.655-1.473.334-2.559 1.641-2.559 3.189 0 1.805 1.481 3.272 3.302 3.272h7.718c2.031 0 3.684-1.637 3.684-3.65 0-1.586-1.042-2.981-2.532-3.467zm-1.152 6.117h-7.718c-1.27 0-2.302-1.02-2.302-2.272 0-1.208.957-2.206 2.178-2.269.15-.008.289-.083.378-.204.088-.122.118-.276.08-.422-.081-.308-.122-.627-.122-.949 0-2.086 1.717-3.783 3.829-3.783s3.829 1.697 3.829 3.783c0 .113-.005.225-.015.335-.023.254.149.485.4.535 1.244.249 2.147 1.341 2.147 2.597 0 1.461-1.204 2.65-2.684 2.65z"/></g><circle cx="5.7" cy="5.7" r=".751"/><circle cx="9.9" cy="5.7" r=".751"/></svg>