<svg id="Layer_1" viewBox="0 0 24 24" xmlns="http://www.w3.org/2000/svg" data-name="Layer 1"><path d="m21.938 2.443c-.042-.191-.19-.34-.381-.381-.048-.011-4.891-1.062-9.557-1.062s-9.509 1.051-9.557 1.062c-.191.042-.34.19-.381.381-.011.048-1.062 4.891-1.062 9.557s1.051 9.509 1.062 9.557c.042.191.19.34.381.381.048.011 4.891 1.062 9.557 1.062s9.509-1.051 9.557-1.062c.191-.042.34-.19.381-.381.011-.048 1.062-4.891 1.062-9.557s-1.051-9.509-1.062-9.557zm-.911 18.584c-1.136.228-5.148.973-9.027.973s-7.891-.745-9.027-.973c-.228-1.136-.973-5.148-.973-9.027s.745-7.891.973-9.027c1.136-.228 5.148-.973 9.027-.973s7.891.745 9.027.973c.228 1.136.973 5.148.973 9.027s-.745 7.891-.973 9.027zm-5.527-11.027c1.612 0 2.5-.888 2.5-2.5s-.888-2.5-2.5-2.5-2.5.888-2.5 2.5c0 .317.044.597.111.856-1.217.681-2.377 1.404-3.472 2.155-.401-.66-1.126-1.011-2.139-1.011-1.612 0-2.5.888-2.5 2.5s.888 2.5 2.5 2.5c1.013 0 1.739-.351 2.139-1.012 1.094.748 2.255 1.466 3.476 2.139-.07.264-.115.549-.115.873 0 1.612.888 2.5 2.5 2.5s2.5-.888 2.5-2.5-.888-2.5-2.5-2.5c-.858 0-1.504.259-1.927.737-1.271-.701-2.483-1.449-3.61-2.232.021-.16.037-.326.037-.505s-.015-.345-.037-.505c1.127-.784 2.335-1.536 3.599-2.245.423.487 1.071.75 1.937.75zm0 5c1.065 0 1.5.435 1.5 1.5s-.435 1.5-1.5 1.5-1.5-.435-1.5-1.5.435-1.5 1.5-1.5zm-8-1.5c-1.065 0-1.5-.435-1.5-1.5s.435-1.5 1.5-1.5 1.5.435 1.5 1.5-.435 1.5-1.5 1.5zm8-7.5c1.065 0 1.5.435 1.5 1.5s-.435 1.5-1.5 1.5-1.5-.435-1.5-1.5.435-1.5 1.5-1.5z"/></svg>