<?xml version="1.0" encoding="UTF-8"?>
<svg xmlns="http://www.w3.org/2000/svg" id="Layer_1" data-name="Layer 1" viewBox="0 0 24 24">
  <path d="M20.805,5.487c-.04-.176-.171-.316-.344-.368l-.855-.256c-3.752-.995-7.261-3.729-7.296-3.756-.183-.144-.438-.143-.619,0-.034,.027-3.461,2.714-7.311,3.76l-.839,.251c-.173,.052-.304,.192-.344,.368-.25,1.104-2.378,10.865,.133,13.398,2.437,2.46,8.295,4.036,8.544,4.098,.067,.017,.173,.022,.256,0,.248-.066,6.107-1.638,8.544-4.098,2.511-2.534,.383-12.294,.133-13.398Zm-.843,12.694c-2.059,2.078-7.094,3.556-7.962,3.8-.868-.244-5.903-1.722-7.962-3.8-1.744-1.76-.593-9.134,.07-12.189l.545-.164c3.399-.923,6.395-2.998,7.347-3.702,.964,.71,4.011,2.818,7.333,3.698l.558,.167c.663,3.055,1.814,10.429,.07,12.189Z"/>
  <path d="M15.187,10.26c-.245-.126-.547-.03-.674,.215-1.113,2.154-2.572,3.24-3.133,3.599-.438-.285-1.367-.941-1.936-1.716-.165-.224-.477-.272-.699-.108-.223,.163-.271,.476-.108,.699,.883,1.205,2.419,2.105,2.484,2.143,.077,.045,.164,.067,.251,.067,.077,0,.154-.018,.225-.054,.091-.046,2.246-1.158,3.803-4.171,.126-.245,.031-.547-.215-.674Z"/>
</svg>
