<svg id="Layer_1" viewBox="0 0 24 24" xmlns="http://www.w3.org/2000/svg" data-name="Layer 1"><path d="m20.869 3.198c-.03-.146-.12-.272-.249-.347-.008-.058-3.382-1.851-8.62-1.851s-8.49 1.775-8.62 1.851c-.129.075-.219.201-.249.347-.906 4.403-1.864 13.409-.093 15.289 1.924 2.042 6.442 3.784 8.809 4.492.099.029.208.03.307 0 2.366-.707 6.884-2.45 8.81-4.492 1.77-1.88.812-10.885-.094-15.289zm-16.761.453c.72-.359 3.357-1.505 7.368-1.588l-.003 19.698c-2.274-.748-6.069-2.291-7.673-3.994-1.164-1.236-.783-8.659.308-14.117zm16.091 14.117c-1.605 1.704-5.405 3.249-7.678 3.996l.003-19.701c4.01.082 6.648 1.229 7.368 1.588 1.091 5.459 1.471 12.881.307 14.117z"/></svg>