<svg id="Layer_1" viewBox="0 0 24 24" xmlns="http://www.w3.org/2000/svg" data-name="Layer 1"><path d="m17.5 10.5h-1.53c-.037-.584-.137-1.092-.307-1.524.876-.059 1.337-.543 1.337-1.476 0-.995-.505-1.5-1.5-1.5-.933 0-1.417.461-1.476 1.337-.431-.169-.94-.27-1.524-.307v-1.53c0-.276-.224-.5-.5-.5s-.5.224-.5.5v1.53c-.584.037-1.092.137-1.524.307-.059-.876-.543-1.337-1.476-1.337-.995 0-1.5.505-1.5 1.5 0 .933.461 1.417 1.337 1.476-.169.431-.27.94-.307 1.524h-1.53c-.276 0-.5.224-.5.5s.224.5.5.5h1.53c.037.584.137 1.092.307 1.524-.876.059-1.337.543-1.337 1.476 0 .995.505 1.5 1.5 1.5.933 0 1.417-.461 1.476-1.337.431.169.94.27 1.524.307v1.53c0 .276.224.5.5.5s.5-.224.5-.5v-1.53c.584-.037 1.092-.137 1.524-.307.059.876.543 1.337 1.476 1.337.995 0 1.5-.505 1.5-1.5 0-.933-.461-1.417-1.337-1.476.169-.431.27-.94.307-1.524h1.53c.276 0 .5-.224.5-.5s-.224-.5-.5-.5zm-5.5 3.5c-2.215 0-3-.785-3-3s.785-3 3-3 3 .785 3 3-.785 3-3 3zm3.5-7c.439 0 .5.061.5.5s-.061.5-.5.5-.5-.061-.5-.5.061-.5.5-.5zm-7.5.5c0-.439.061-.5.5-.5s.5.061.5.5-.061.5-.5.5-.5-.061-.5-.5zm.5 7.5c-.439 0-.5-.061-.5-.5s.061-.5.5-.5.5.061.5.5-.061.5-.5.5zm7.5-.5c0 .439-.061.5-.5.5s-.5-.061-.5-.5.061-.5.5-.5.5.061.5.5zm4.898-11.317c-.028-.139-.115-.26-.238-.331-.046-.061-3.461-1.903-8.661-1.851-5.367-.027-8.533 1.775-8.665 1.851-.123.071-.21.192-.238.331-.912 4.41-1.877 13.425-.1 15.302 1.933 2.042 6.476 3.786 8.855 4.494.094.027.198.029.291 0 2.38-.708 6.923-2.452 8.856-4.494 1.776-1.878.812-10.893-.101-15.302zm-.627 14.615c-1.752 1.852-6.096 3.518-8.274 4.181-2.179-.664-6.522-2.329-8.275-4.181-1.177-1.244-.794-8.704.306-14.182.737-.367 3.562-1.615 7.885-1.615 4.185-.065 7.393 1.252 8.055 1.615 1.1 5.478 1.482 12.938.305 14.182z"/></svg>