<svg id="Layer_1" viewBox="0 0 24 24" xmlns="http://www.w3.org/2000/svg" data-name="Layer 1"><path d="m20.902 3.182c-.029-.139-.116-.26-.238-.331-.131-.076-3.247-1.851-8.571-1.851-5.093 0-8.753 1.795-8.757 1.851-.123.071-.209.192-.238.331-.911 4.41-1.876 13.426-.099 15.302 1.931 2.041 6.475 3.786 8.855 4.495.093.027.198.029.291 0 2.38-.709 6.924-2.454 8.856-4.495 1.776-1.877.811-10.893-.1-15.302zm-.627 14.615c-1.75 1.851-6.095 3.517-8.274 4.182-2.179-.665-6.524-2.331-8.275-4.182-1.177-1.244-.794-8.704.306-14.181.659-.363 3.97-1.616 8.056-1.616 4.321 0 7.146 1.248 7.883 1.616 1.1 5.478 1.482 12.938.305 14.181zm-8.275-9.797c-1.346 0-2 .654-2 2 0 1.166.493 1.811 1.5 1.963v2.537c0 .276.224.5.5.5s.5-.224.5-.5v-2.537c1.007-.152 1.5-.797 1.5-1.963 0-1.346-.654-2-2-2zm0 3c-.794 0-1-.206-1-1s.206-1 1-1 1 .206 1 1-.206 1-1 1z"/></svg>