<svg id="Layer_1" viewBox="0 0 24 24" xmlns="http://www.w3.org/2000/svg" data-name="Layer 1"><path d="m15.354 8.854-2.646 2.646 2.646 2.646c.195.195.195.512 0 .707s-.512.195-.707 0l-2.646-2.646-2.646 2.646c-.195.195-.512.195-.707 0s-.195-.512 0-.707l2.646-2.646-2.646-2.646c-.195-.195-.195-.512 0-.707s.512-.195.707 0l2.646 2.646 2.646-2.646c.195-.195.512-.195.707 0s.195.512 0 .707zm5.648 9.631c-1.933 2.041-6.477 3.786-8.856 4.495-.093.029-.198.027-.291 0-2.381-.709-6.924-2.454-8.855-4.495-1.776-1.876-.812-10.892.1-15.302.028-.139.115-.26.238-.331.008-.058 3.663-1.851 8.756-1.851 5.324 0 8.439 1.775 8.57 1.851.123.071.21.192.238.331.912 4.41 1.877 13.426.101 15.302zm-1.032-14.869c-.737-.368-3.562-1.616-7.883-1.616-4.087 0-7.393 1.252-8.057 1.616-1.1 5.478-1.482 12.938-.306 14.181 1.752 1.851 6.096 3.517 8.275 4.182 2.18-.665 6.523-2.331 8.274-4.182 1.178-1.243.795-8.703-.305-14.181z"/></svg>