<?xml version="1.0" encoding="UTF-8"?>
<svg xmlns="http://www.w3.org/2000/svg" id="Layer_1" data-name="Layer 1" viewBox="0 0 24 24">
  <path d="M20.804,5.487c-.04-.176-.171-.316-.344-.368l-.854-.256c-3.753-.995-7.262-3.729-7.297-3.756-.18-.143-.438-.143-.619,0-.034,.027-3.454,2.712-7.311,3.76l-.839,.251c-.173,.052-.304,.192-.344,.368-.251,1.104-2.378,10.865,.132,13.398,2.438,2.46,8.295,4.036,8.544,4.098,.091,.022,.181,.021,.256,0,.247-.069,6.106-1.638,8.544-4.098,2.51-2.534,.383-12.294,.132-13.398Zm-.843,12.694c-2.059,2.078-7.093,3.556-7.961,3.8-.868-.244-5.902-1.722-7.961-3.8-1.744-1.76-.593-9.134,.069-12.189l.545-.164c3.398-.923,6.396-2.998,7.348-3.702,.963,.71,4.01,2.818,7.333,3.698l.558,.167c.662,3.055,1.813,10.429,.069,12.189Z"/>
</svg>
