<svg id="Layer_1" viewBox="0 0 24 24" xmlns="http://www.w3.org/2000/svg" data-name="Layer 1"><path d="m6.5 12c3.855 0 5.5-1.645 5.5-5.5s-1.645-5.5-5.5-5.5-5.5 1.645-5.5 5.5 1.645 5.5 5.5 5.5zm0-10c3.28 0 4.5 1.22 4.5 4.5s-1.22 4.5-4.5 4.5-4.5-1.22-4.5-4.5 1.22-4.5 4.5-4.5zm-.354 4.854c-.094-.094-.146-.221-.146-.354v-2c0-.276.224-.5.5-.5s.5.224.5.5v1.793l.854.854c.195.195.195.512 0 .707s-.512.195-.707 0l-1-1zm16.854 6.766c0-2.363-.59-4.514-.62-4.583-.048-.18-.192-.318-.374-.359-.096-.022-2.298-.501-5.194-.549-.218-2.106-.551-3.713-.572-3.812-.04-.19-.187-.339-.375-.384 0 0-.487-.114-1.275-.257-.271-.049-.532.13-.581.403-.049.272.131.532.403.582.388.07.699.133.911.178.181.954.691 3.916.678 6.78-.014 2.945-.64 6.536-.806 7.433-.977.043-2.044.069-3.196.069-4.56 0-7.945-.421-9.29-.621-.119-.88-.421-3.175-.595-5.045-.025-.275-.272-.479-.544-.452-.275.026-.478.27-.452.544.222 2.379.647 5.429.651 5.459.03.217.199.39.416.424.262.042.711.11 1.316.186v.004 1c0 1.378 1.121 2.5 2.5 2.5s2.5-1.122 2.5-2.5v-.583c1.067.05 2.238.083 3.498.083 1.081 0 2.072-.026 3.002-.064v.564c0 1.378 1.121 2.5 2.5 2.5s2.5-1.122 2.5-2.5v-.96c.818-.101 1.462-.199 1.864-.269.195-.034.365-.228.412-.421.511-2.087.74-3.761.724-5.351zm-15.5 7c0 .827-.673 1.5-1.5 1.5s-1.5-.673-1.5-1.5v-.888c.83.089 1.839.179 3 .25v.637zm13.985-11.027c.135.587.417 1.973.494 3.527h-5.054c.046-.658.073-1.196.075-1.498.004-.846-.036-1.691-.098-2.493 2.142.045 3.904.335 4.583.464zm-2.485 11.027c0 .827-.673 1.5-1.5 1.5s-1.5-.673-1.5-1.5v-.612c1.144-.063 2.145-.146 3-.235zm2.371-2.16c-.953.154-2.732.392-5.171.536.267-1.118.502-3.174.648-4.876h5.144c-.023 1.223-.223 2.664-.62 4.34z"/></svg>