<svg id="Layer_1" viewBox="0 0 24 24" xmlns="http://www.w3.org/2000/svg" data-name="Layer 1"><path d="m23 12.5c0-2.295-.59-4.514-.62-4.583-.048-.18-.192-.318-.374-.359-.096-.022-2.298-.501-5.194-.549-.218-2.106-.551-3.713-.572-3.812-.04-.19-.187-.339-.375-.384-.078-.018-1.93-.448-4.258-.676-.279-.025-.519.174-.546.449s.174.52.449.546c1.714.168 3.191.456 3.813.586.181.954.691 3.916.678 6.779-.014 2.944-.64 6.536-.806 7.433-.977.043-2.044.069-3.196.069-4.574 0-7.976-.425-9.31-.623-.119-.651-.376-2.166-.54-3.923-.026-.275-.277-.478-.544-.452-.275.026-.477.27-.452.544.223 2.394.604 4.29.62 4.37.042.205.205.362.411.395.33.053.954.145 1.816.246v.943c0 1.378 1.122 2.5 2.5 2.5s2.5-1.122 2.5-2.5v-.561c.931.038 1.931.061 2.998.061 1.081 0 2.072-.026 3.002-.064v.564c0 1.378 1.121 2.5 2.5 2.5s2.5-1.122 2.5-2.5v-.96c.818-.101 1.462-.199 1.864-.269.195-.034.364-.227.412-.419.511-2.086.724-3.775.724-5.352zm-15 7c0 .827-.673 1.5-1.5 1.5s-1.5-.673-1.5-1.5v-.836c.851.084 1.861.165 3 .227zm13.485-11.026c.135.587.417 1.973.494 3.526h-5.054c.046-.658.073-1.196.075-1.498.004-.846-.036-1.691-.098-2.493 2.142.045 3.904.335 4.583.465zm-2.485 11.026c0 .827-.673 1.5-1.5 1.5s-1.5-.673-1.5-1.5v-.612c1.144-.063 2.145-.146 3-.235zm2.371-2.16c-.953.154-2.732.392-5.171.536.266-1.118.502-3.174.648-4.876h5.143c-.023 1.224-.223 2.665-.62 4.34zm-20.371-14.84c0-.276.224-.5.5-.5h7c.276 0 .5.224.5.5s-.224.5-.5.5h-7c-.276 0-.5-.224-.5-.5zm0 4c0-.276.224-.5.5-.5h5c.276 0 .5.224.5.5s-.224.5-.5.5h-5c-.276 0-.5-.224-.5-.5zm.5 4.5c-.276 0-.5-.224-.5-.5s.224-.5.5-.5h3c.276 0 .5.224.5.5s-.224.5-.5.5z"/></svg>