<svg id="Layer_1" viewBox="0 0 24 24" xmlns="http://www.w3.org/2000/svg" data-name="Layer 1"><path d="m22.479 6.383c-.303-2.6-2.31-4.661-4.88-5.014-3.595-.492-7.602-.492-11.198 0-2.57.353-4.577 2.415-4.88 5.014-.346 2.965-.521 6.326-.521 9.991 0 .765.008 1.134.022 1.801-.003.185 0 .407.147.541 1.348 1.37 3.35 1.336 4.211 1.247.162 1.242.317 1.891.331 1.945.042.168.167.303.333.355.093.03 2.33.735 5.957.735s5.863-.705 5.957-.735c.165-.053.291-.188.333-.355.013-.055.169-.703.331-1.946.189.02.425.037.706.037.997 0 2.452-.214 3.504-1.284.148-.134.15-.357.147-.541.014-.667.022-1.036.022-1.801 0-3.665-.175-7.026-.521-9.991zm-7.485-4.27c-.029 2.122-.821 2.886-2.994 2.886s-2.965-.765-2.994-2.886c1.977-.14 4.012-.14 5.989 0zm6.985 16.034c-1.041.92-2.575.888-3.244.822.143-1.391.265-3.275.265-5.678 0-2.761-.164-4.844-.261-5.841-.027-.273-.264-.463-.546-.449-.275.027-.476.271-.449.547.096.979.256 3.025.256 5.743 0 4.555-.456 7.261-.622 8.098-.686.179-2.625.61-5.378.61s-4.692-.432-5.378-.61c-.167-.837-.622-3.543-.622-8.098 0-2.718.161-4.765.256-5.743.027-.275-.174-.52-.449-.547-.277-.015-.52.175-.546.449-.098.997-.261 3.08-.261 5.841 0 2.403.122 4.288.265 5.678-.669.066-2.203.097-3.244-.823-.014-.654-.021-1.02-.021-1.772 0-3.626.173-6.949.514-9.876.25-2.146 1.904-3.848 4.022-4.139.481-.066.983-.1 1.477-.148.066 2.609 1.297 3.787 3.987 3.787s3.921-1.179 3.987-3.787c.494.048.996.082 1.476.148 2.118.291 3.772 1.993 4.022 4.139.341 2.927.514 6.25.514 9.876 0 .753-.008 1.118-.021 1.772z"/></svg>