<svg id="Layer_1" viewBox="0 0 24 24" xmlns="http://www.w3.org/2000/svg" data-name="Layer 1"><path d="m22.854 22.146-1.282-1.282c.153-1.05.429-3.377.429-6.545 0-1.051-.056-2.095-.164-3.108.726-.59 1.105-1.517 1.16-2.842 0-.003-.002-.006-.001-.009 0-.003.002-.006.002-.01.007-2.713-1.555-5.889-1.621-6.022-.06-.121-.166-.212-.294-.254-.136-.043-3.396-1.074-9.081-1.074-5.81.038-8.888.976-9.169 1.124l-.977-.977c-.195-.195-.512-.195-.707 0s-.195.512 0 .707l20.997 21c.195.195.512.195.707 0s.195-.512 0-.707zm-1.854-7.827c0 2.488-.174 4.446-.319 5.654l-8-8c1.393-.107 2.309-.562 2.819-1.435.59 1.008 1.718 1.461 3.502 1.461.734 0 1.349-.095 1.872-.271.077.849.125 1.716.125 2.591zm-9-12.319c4.733 0 7.784.749 8.572.967.329.715 1.427 3.259 1.424 5.372-.084 1.964-.868 2.661-2.994 2.661-2.193 0-2.923-.612-3.003-2.518-.001-1.013-.123-2.002-.129-2.044-.035-.274-.281-.466-.558-.434-.274.034-.468.284-.434.558 0 .01.12.974.121 1.925-.02 2.08-1.07 2.453-3.23 2.576l-2.767-2.767c.015-.885.117-1.725.118-1.734.034-.274-.16-.524-.434-.558-.277-.032-.523.16-.558.434-.003.025-.048.393-.084.9l-4.421-4.422c1.016-.265 3.962-.916 8.377-.916zm2.999 16.492c-.127 1.696-.35 3.082-.663 4.119-.062.205-.247.348-.461.355-.567.021-1.255.034-1.875.034-5.713 0-8.989-1.036-9.125-1.08-.174-.056-.304-.203-.338-.382-.022-.115-.537-2.858-.537-7.219 0-1.049.055-2.093.163-3.105-.712-.578-1.089-1.48-1.155-2.761-.04-.926.147-1.927.466-3.09.076-.266.349-.421.618-.344.266.076.42.352.344.618-.282 1.019-.446 1.9-.433 2.692.082 1.972.865 2.671 2.995 2.671.785 0 1.378-.086 1.813-.264.255-.106.547.018.652.274.104.256-.019.548-.274.652-.566.231-1.262.338-2.191.338-.735 0-1.35-.095-1.873-.272-.078.85-.125 1.717-.125 2.592 0 .698.016 1.343.039 1.954 3.132-.363 6.881-.362 10.096.015.274.032.471.28.438.555-.032.274-.272.478-.555.438-3.162-.369-6.866-.37-9.933-.007.109 1.879.292 3.215.382 3.776.908.244 3.928.95 8.532.95.48 0 1.002-.008 1.474-.022.24-.923.421-2.144.527-3.562.021-.276.257-.481.536-.461.275.021.481.261.461.536z"/></svg>