<svg id="Layer_1" viewBox="0 0 24 24" xmlns="http://www.w3.org/2000/svg" data-name="Layer 1"><path d="m22.758 6.072c-.294-.178-1.358-.858-2.665-2.165s-1.987-2.37-2.165-2.665c-.143-.237-.451-.313-.686-.17-.237.143-.313.45-.17.686.175.291.808 1.275 1.967 2.496l-7.691 7.691c-1.908-1.788-3.251-2.455-4.153-2.894-.148-.071-.395-.026-.538.054-.759.425-1.798 1.007-2.967 2.141-1.83 1.867-2.37 3.282-2.657 4.034-.022.057-.033.118-.033.179 0 .208.014 5.096 1.23 6.312 1.177 1.177 6.261 1.23 6.312 1.23.061 0 .194-.039.251-.061.68-.259 2.095-.799 3.971-2.638 1.125-1.16 1.707-2.2 2.173-3.032.08-.143.085-.316.013-.464-.439-.901-1.106-2.242-2.895-4.153l7.692-7.692c1.221 1.159 2.205 1.792 2.496 1.967.233.142.543.068.686-.17.143-.236.066-.543-.17-.686zm-8.822 10.937c-.391.694-.929 1.604-1.881 2.587-1.647 1.615-2.896 2.131-3.604 2.403-1.869-.012-4.959-.382-5.513-.937-.553-.553-.927-3.275-.937-5.513.238-.622.732-1.899 2.395-3.596.965-.936 1.854-1.471 2.596-1.89.869.429 2.023 1.063 3.65 2.587l-4.495 4.495c-.195.195-.195.512 0 .707s.512.195.707 0l4.495-4.495c1.525 1.63 2.158 2.783 2.587 3.65z"/></svg>