<?xml version="1.0" encoding="UTF-8"?>
<svg xmlns="http://www.w3.org/2000/svg" id="Layer_1" data-name="Layer 1" viewBox="0 0 24 24">
  <path d="M22.729,18.022l-.002-.006c-.423-1.146-1.041-1.626-1.483-1.827-.529-.241-1.116-.239-1.742,0-1.627,.622-3.511,3.215-4.066,4.019-1.232-.082-2.549-.738-3.572-1.792-.924-.951-1.481-2.103-1.518-3.12,.512,.309,1.092,.467,1.676,.467,.587,0,1.179-.16,1.71-.487,.235-.146,.308-.453,.163-.688-.145-.235-.452-.307-.688-.163-.86,.533-1.947,.425-2.694-.244,.332-.906,1.278-1.911,3.862-2.809,3.519-1.222,5.706-3.881,5.706-6.938v-.784l1.452,.119c.014,0,.028,.002,.042,.002,.258,0,.477-.198,.498-.459,.022-.275-.183-.517-.458-.539,0,0-6.357-.601-8.448-.601-4.376,0-7.64,1.089-9.701,3.235-1.758,1.832-2.582,4.398-2.45,7.627,.129,3.151,1.23,5.502,3.271,6.986,1.947,1.417,4.423,1.812,6.584,1.812,2.331,0,4.294-.461,4.827-.598,.515,.132,2.39,.58,4.046,.58,.652,0,1.27-.069,1.757-.256,1.391-.532,1.851-1.854,1.231-3.537ZM10.968,3.277c.694-.07,1.426-.105,2.197-.105,1.629,0,3.184,.12,5.915,.389v.873c0,2.659-1.882,4.899-5.034,5.993-.204,.071-.401,.143-.591,.218-1.716-1.283-2.737-3.33-2.737-5.51,0-.631,.084-1.256,.25-1.858Zm-6.783,2.824c1.329-1.385,3.246-2.283,5.719-2.685-.123,.562-.186,1.138-.186,1.719,0,2.306,.999,4.483,2.705,5.962-1.52,.752-2.455,1.658-2.854,2.766-2.366,.015-4.611-1.078-6.066-2.992-.426-.56-.773-1.174-1.032-1.825,.363-1.149,.935-2.133,1.715-2.945Zm.686,13.109c-1.78-1.296-2.742-3.388-2.858-6.217-.035-.85,.002-1.647,.108-2.39,.177,.302,.372,.594,.585,.874,1.601,2.106,4.056,3.346,6.65,3.386-.006,.072-.01,.144-.012,.217-.039,1.347,.618,2.817,1.801,4.035,.645,.664,1.379,1.187,2.148,1.546-2.318,.295-5.931,.366-8.423-1.45Zm16.27,1.415c-1.089,.414-3.301,.068-4.619-.221,.802-1.106,2.245-2.863,3.338-3.281,.374-.143,.691-.153,.972-.023,.27,.122,.655,.44,.958,1.263,0,0,.001,.004,.002,.005,.43,1.168,.211,1.928-.65,2.258Z"/>
  <circle cx="14.21" cy="6.181" r=".75"/>
</svg>
