<?xml version="1.0" encoding="UTF-8"?>
<svg xmlns="http://www.w3.org/2000/svg" id="Layer_1" data-name="Layer 1" viewBox="0 0 24 24">
  <path d="M22.208,10.654c-1.478-4.047-3.45-6.99-3.533-7.114-.056-.083-.135-.147-.228-.185-.112-.045-2.796-1.104-7.705-1.104S3.17,3.311,3.059,3.355c-.126,.052-.226,.151-.276,.277-.053,.132-1.306,3.278-1.627,7.181-.015,.138-.155,1.475-.155,3.244,0,1.944,.781,3.38,.814,3.44,.073,.132,.202,.224,.35,.25,.014,.002,.464,.081,1.234,.189v1.146c0,1.47,1.188,2.666,2.648,2.666s2.647-1.196,2.647-2.666v-.625c1.043,.06,2.159,.099,3.308,.099s2.262-.039,3.305-.099v.625c0,1.47,1.188,2.666,2.647,2.666s2.648-1.196,2.648-2.666v-1.146c.772-.108,1.223-.187,1.237-.189,.149-.026,.279-.12,.352-.253,.033-.061,.81-1.51,.81-3.438,0-1.802-.668-3.165-.792-3.404Zm-1.229-.422c-1.404-.205-4.379-.581-7.786-.656V3.348c2.638,.214,4.27,.721,4.741,.884,.368,.57,1.83,2.917,3.046,6ZM12.192,3.284v6.28c-.064,0-.127,0-.191,0-1.415,0-2.825,.058-4.131,.144V3.386c.845-.082,1.804-.135,2.872-.135,.508,0,.992,.012,1.45,.033Zm-8.561,.928c.426-.144,1.529-.476,3.239-.709v6.276c-2.074,.162-3.782,.376-4.658,.495,.323-2.923,1.16-5.357,1.42-6.062Zm4.062,14.871c0,.919-.739,1.666-1.647,1.666s-1.648-.747-1.648-1.666v-1.015c.9,.111,2.027,.23,3.295,.324v.691Zm11.908,0c0,.919-.739,1.666-1.648,1.666s-1.647-.747-1.647-1.666v-.691c1.268-.093,2.395-.213,3.295-.323v1.015Zm1.811-2.277c-1.015,.163-4.968,.751-9.411,.751s-8.403-.588-9.413-.752c-.192-.425-.588-1.46-.588-2.747,0-1.214,.07-2.234,.114-2.76,1.28-.181,5.562-.734,9.887-.734,4.449,0,8.399,.584,9.412,.747,.191,.428,.586,1.469,.586,2.747,0,1.268-.396,2.315-.588,2.748Z"/>
</svg>
