<svg id="Layer_1" viewBox="0 0 24 24" xmlns="http://www.w3.org/2000/svg" data-name="Layer 1"><path d="m22.99 11.037c0-7.096-2.895-9.99-9.991-9.99s-9.99 2.894-9.99 9.99c0 4.134.967 6.697 3.123 8.23-1.484 1.151-3.116 2.091-4.816 2.768-.257.103-.382.394-.28.649.102.26.399.38.649.28 2.647-1.054 5.134-2.713 7.19-4.799.164-.166.19-.425.064-.622-.009-.015-.927-1.465-.927-3.448 0-5.173 1.923-7.096 7.096-7.096 4.268 0 6.395 1.716 6.896 5.564.033.254.265.437.509.436.256-.007.466-.205.485-.461.028-.353-.008-1.284-.008-1.502zm-7.882-5.037c-5.675 0-8.096 2.421-8.096 8.096 0 1.692.569 3.025.884 3.634-.31.303-.629.596-.958.878-2.026-1.308-2.931-3.649-2.931-7.57 0-6.47 2.521-8.99 8.991-8.99 5.749 0 8.379 1.989 8.895 6.971-1.247-2.044-3.469-3.018-6.786-3.018z"/></svg>