<svg id="Layer_1" viewBox="0 0 24 24" xmlns="http://www.w3.org/2000/svg" data-name="Layer 1"><path d="m12 23.003c-5.773 0-9.476-.979-9.63-1.021-.329-.079-.481-.504-.277-.773 2.104-2.945 5.391-6.845 9.379-9.207-3.668-2.122-6.981-5.373-9.396-9.237-.18-.272-.022-.672.295-.748.154-.042 3.856-1.014 9.629-1.014s9.475.972 9.629 1.014c.213.057.363.246.371.465.002.065.042 1.606-1.084 3.295-.154.23-.465.291-.693.139-.229-.153-.292-.464-.139-.693.635-.952.83-1.849.89-2.334-1.098-.246-4.4-.885-8.974-.885-4.235 0-7.381.549-8.694.825 2.464 3.729 5.79 6.813 9.428 8.729.164.086.267.257.267.442s-.103.356-.267.442c-3.901 2.055-7.191 5.771-9.385 8.74 1.339.281 4.462.821 8.651.821 4.583 0 7.879-.644 8.975-.891-.06-.484-.255-1.382-.891-2.335-.153-.229-.091-.54.139-.693.228-.153.539-.092.693.139 1.126 1.688 1.086 3.23 1.084 3.295-.008.219-.158.408-.37.465-.154.042-3.856 1.021-9.63 1.021z"/></svg>