<svg id="Layer_1" viewBox="0 0 24 24" xmlns="http://www.w3.org/2000/svg" data-name="Layer 1"><path d="m6.5 5v4c0 .276-.224.5-.5.5s-.5-.224-.5-.5v-4c0-.276.224-.5.5-.5s.5.224.5.5zm3.997 2.604.003-.318c.002-.234-.158-.438-.386-.492-.188-.043-.675-.126-1.18-.126-.276 0-.5.224-.5.5s.224.5.5.5c.187 0 .38.015.547.034-.112.798-.42.798-.719.798-.357 0-.762 0-.762-1.5s.405-1.5.762-1.5c.4 0 .527.137.623.39.098.259.385.386.644.291.259-.098.389-.386.292-.645-.259-.688-.784-1.036-1.558-1.036-1.762 0-1.762 1.816-1.762 2.5s0 2.5 1.762 2.5c1.028 0 1.611-.623 1.735-1.896zm6.075-2.582c.023-.28-.217-.521-.496-.52-.267 0-.488.211-.502.475 0 0-.097 2.143-.097 2.772 0 1.161.512 1.75 1.523 1.75s1.523-.589 1.523-1.75c0-.63-.097-2.772-.097-2.772-.014-.264-.232-.475-.5-.475-.279-.001-.523.239-.499.52 0 0 .096 2.107.096 2.728 0 .75-.186.75-.523.75s-.523 0-.523-.75c0-.62.096-2.727.096-2.728zm1.99 15.417c.581.559.581 1.564-.002 2.122-.556.581-1.564.58-2.121 0l-2.504-2.506c-.142.864-.412 1.657-1.185 1.878-.176.061-.882.234-1.544-.428-3.829-3.829-3.174-8.234-3.145-8.42.083-.53.496-.943 1.028-1.025.187-.029 4.607-.665 8.417 3.144.449.473.585.971.424 1.533-.217.773-1.015 1.044-1.883 1.188l2.514 2.516zm-.562 1.062c0-.134-.052-.26-.146-.354l-3.231-3.233c-.135-.136-.182-.336-.119-.517s.223-.311.413-.333c.705-.086 1.944-.194 2.052-.601.049-.169.064-.308-.178-.562-3.446-3.445-7.383-2.881-7.548-2.854-.1.016-.178.094-.193.193-.027.167-.608 4.085 2.864 7.557.226.226.419.224.538.182.432-.112.535-1.314.621-2.058.022-.189.151-.351.333-.414.179-.062.382-.018.518.119l3.225 3.227c.189.189.519.19.707 0 .095-.095.147-.22.147-.353zm5-14.501c0 2.993-.752 4.964-.784 5.046-.062.16-.202.277-.371.31-.058.012-1.452.28-4.229.468-.272.019-.515-.189-.533-.466-.019-.275.19-.514.465-.532 2.01-.136 3.292-.317 3.823-.402.192-.608.628-2.233.628-4.423 0-.316-.011-.617-.027-.908-.064.597-.469 1.226-1.912 1.226h-.056c.029.938.179 1.555.181 1.561.066.269-.097.539-.365.605-.26.069-.54-.094-.605-.363-.009-.035-.215-.874-.215-2.121s.207-2.086.215-2.121c.057-.227.302-.367.495-.379h.29c1.114.004 1.757.347 1.932 1.012-.13-1.43-.414-2.475-.559-2.935-.917-.146-4.066-.577-9.373-.577s-8.455.431-9.373.577c-.191.608-.627 2.233-.627 4.423 0 .369.016.714.037 1.048.056-.109.15-.199.275-.243.262-.092.546.044.638.306.082.232.303.389.55.389.322 0 .583-.262.583-.583s-.262-.584-.583-.584c-.781 0-1.417-.635-1.417-1.416s.635-1.417 1.417-1.417c.562 0 1.072.333 1.298.85.111.253-.004.548-.257.658-.252.11-.548-.003-.659-.258-.066-.151-.217-.25-.382-.25-.229 0-.417.188-.417.417s.187.416.417.416c.873 0 1.583.711 1.583 1.584s-.71 1.583-1.583 1.583c-.621 0-1.167-.373-1.424-.929.133 1.387.41 2.4.552 2.852.448.072 1.43.213 2.929.336.275.022.48.264.458.539-.022.274-.253.478-.54.457-2.18-.179-3.275-.39-3.321-.399-.168-.032-.308-.149-.371-.31-.032-.082-.784-2.053-.784-5.046s.753-4.965.785-5.047c.062-.16.202-.277.371-.311.134-.025 3.372-.644 9.846-.644s9.711.618 9.846.644c.168.033.308.15.371.311.032.082.784 2.053.784 5.046zm-2.014-1.091c0-.155 0-.386-.873-.406-.032.203-.068.481-.09.815h.038c.925 0 .925-.246.925-.409zm-7.555 3.591c.268 0 .483-.213.496-.478 0 0 .097-2.143.097-2.772 0-1.161-.512-1.75-1.523-1.75-.279 0-.512.055-.715.145-.09-.089-.214-.145-.352-.145-.276 0-.5.224-.5.5 0 .91.134 3.896.14 4.022.012.276.249.491.522.477.276-.012.489-.246.477-.521.012-.002-.096-1.58-.096-2.728 0-.75.186-.75.523-.75s.523 0 .523.75c0 .607-.091 2.629-.095 2.713-.011.288.208.539.503.538z"/></svg>