<svg id="Layer_1" viewBox="0 0 24 24" xmlns="http://www.w3.org/2000/svg" data-name="Layer 1"><path d="m20.197 10.19c-.18-.209-.158-.524.051-.705s.524-.159.706.051c.932 1.078 1.614 2.365 2.027 3.828.075.266-.079.542-.345.617-.259.074-.543-.077-.617-.346-.374-1.32-.987-2.479-1.822-3.445zm2.758 7.517c-1.312 2.889-3.261 4.293-5.955 4.293-2.707-.038-4.24-2.844-4.975-4.773-.643 1.911-1.951 4.773-4.025 4.773-1.06 0-2.063-.863-2.961-2.211-.998 1.092-2.14 1.884-3.42 2.196-.261.067-.54-.097-.604-.367-.065-.268.099-.538.367-.604 1.138-.278 2.185-1.045 3.114-2.121-2.063-3.706-3.454-9.791-3.496-12.886 0-3.552 2.405-4.007 4.5-4.007s4.5.455 4.5 4c-.045 3.456-1.527 9.365-4.296 12.992.757 1.23 1.55 2.008 2.296 2.008 1.632 0 2.995-3.356 3.513-5.612.052-.225.251-.386.482-.388h.005c.229 0 .429.156.485.379.143.57 1.482 5.578 4.522 5.621 2.317 0 3.873-1.144 5.038-3.707.114-.251.408-.362.662-.248.251.114.362.41.248.662zm-17.787.328c2.338-3.273 3.785-8.453 3.832-12.042 0-2.18-.949-2.993-3.5-2.993s-3.5.813-3.5 3c.046 3.318 1.454 8.701 3.168 12.035z"/></svg>