<svg id="Layer_1" viewBox="0 0 24 24" xmlns="http://www.w3.org/2000/svg" data-name="Layer 1"><path d="m11.595 10.763c-.022-.155-.116-.292-.253-.368-.073-.041-.745-.395-1.842-.395s-1.766.347-1.839.387c-.139.076-.234.213-.256.37-.012.084-.216 1.558-.33 3.436-.274-.075-.821-.192-1.575-.192-1.075 0-1.743.237-1.771.247-.163.059-.283.198-.319.367-.017.08-.411 1.965-.411 3.886s.375 3.79.391 3.868c.035.169.153.308.315.369.029.011.716.263 1.794.263 1 0 1.679-.154 2.074-.468.123.109.715.442 1.926.468 1.099 0 1.836-.341 1.867-.355.156-.073.263-.222.284-.393.003-.029.35-2.918.35-5.752s-.388-5.621-.405-5.737zm-4.881 11.124c-.262.052-.687.114-1.214.114s-.937-.07-1.183-.128c-.104-.593-.317-1.988-.317-3.372s.224-2.785.332-3.382c.244-.053.646-.118 1.168-.118s.926.066 1.167.121c.108.594.333 1.995.333 3.379 0 1.375-.19 2.774-.286 3.386zm3.977-.058c-.249.076-.667.171-1.191.171s-.928-.109-1.158-.192c-.093-.775-.342-3.049-.342-5.308s.26-4.541.358-5.322c.228-.078.623-.178 1.142-.178s.915.103 1.142.181c.098.778.358 3.061.358 5.319 0 2.242-.222 4.524-.309 5.329z"/></svg>