<svg id="Layer_1" viewBox="0 0 24 24" xmlns="http://www.w3.org/2000/svg" data-name="Layer 1"><path d="m2 12c0-2.963 1.292-5.854 3.64-8.142.198-.192.202-.509.009-.707-.192-.198-.509-.201-.707-.009-2.542 2.477-3.942 5.623-3.942 8.858s1.4 6.381 3.942 8.858c.097.095.419.276.707-.009.196-.194.189-.515-.009-.707-2.348-2.288-3.64-5.179-3.64-8.142z"/><path d="m19.059 3.142c-.198-.192-.515-.189-.707.009-.193.198-.189.515.009.707 2.348 2.288 3.64 5.179 3.64 8.142s-1.292 5.854-3.64 8.142c-.198.192-.205.513-.009.707.289.285.61.104.707.009 2.542-2.477 3.942-5.623 3.942-8.858s-1.4-6.381-3.942-8.858z"/><path d="m8.6 6.551c-.191-.197-.509-.201-.707-.009-1.635 1.593-2.499 3.48-2.499 5.458s.864 3.865 2.499 5.458c.097.095.424.275.707-.009.185-.186.189-.515-.009-.707-1.438-1.401-2.197-3.041-2.197-4.742s.759-3.341 2.197-4.742c.198-.192.202-.509.009-.707z"/><path d="m16.107 6.542c-.198-.192-.516-.188-.707.009-.193.198-.189.515.009.707 1.438 1.401 2.197 3.041 2.197 4.742s-.759 3.341-2.197 4.742c-.198.192-.194.521-.009.707.283.284.61.104.707.009 1.635-1.593 2.499-3.48 2.499-5.458s-.864-3.865-2.499-5.458z"/><path d="m12 10.211c-1.177 0-1.773.602-1.773 1.789s.597 1.789 1.773 1.789c1.466 0 1.773-.973 1.773-1.789 0-1.187-.597-1.789-1.773-1.789zm0 2.577c-.58 0-.773-.114-.773-.789 0-.669.203-.789.773-.789.58 0 .773.114.773.789 0 .669-.203.789-.773.789z"/></svg>