<svg id="Layer_1" viewBox="0 0 24 24" xmlns="http://www.w3.org/2000/svg" data-name="Layer 1"><path d="m20.122 10.327c-.181-.209-.158-.525.051-.706.208-.18.525-.157.706.051.861.997 1.614 1.962 2.103 3.691.075.266-.079.542-.345.617-.258.075-.543-.077-.617-.345-.433-1.532-1.116-2.405-1.897-3.309zm2.732 12.526c-.195.195-.512.195-.707 0l-21.001-20.999c-.195-.195-.195-.512 0-.707s.512-.195.707 0l1.16 1.16c.536-.202 1.185-.306 1.987-.306 2.767 0 4 1.233 4 4-.015.661-.014 1.415-.146 2.147l11.146 11.146c.887-.77 1.578-1.758 2.032-2.968.097-.259.388-.39.644-.293.259.097.39.385.293.644-.505 1.345-1.273 2.451-2.262 3.324l2.147 2.147c.195.195.195.512 0 .707zm-19.036-19.742 4.129 4.129c.031-.43.053-.849.053-1.24 0-2.215-.785-3-3-3-.458 0-.845.04-1.182.111zm13.545 17.617c-.788.225-1.448.272-1.863.272-1.743 0-3.021-1.67-3.507-4.582-.099-.539-.888-.539-.986 0-.436 2.612-1.791 4.582-3.154 4.582-.79 0-1.627-.827-2.415-2.125 1.587-2.661 2.546-6.21 2.805-7.255.066-.268-.097-.539-.365-.605-.265-.065-.539.096-.605.365-.581 2.344-1.417 4.695-2.393 6.488-1.607-3.204-2.88-8.216-2.88-11.868 0-.163.004-.319.014-.469.017-.276-.193-.513-.468-.53-.282-.011-.513.193-.53.468-.01.169-.016.346-.016.531 0 3.509 1.281 9.32 3.264 12.889-.862 1.29-1.804 2.111-2.764 2.111-.276 0-.5.224-.5.5s.224.5.5.5c1.283 0 2.393-.909 3.326-2.19.905 1.34 1.929 2.19 3.027 2.19 1.499 0 2.863-1.39 3.64-3.531.787 2.257 2.187 3.531 4.007 3.531.479 0 1.238-.054 2.137-.311.266-.076.419-.353.344-.618-.076-.266-.354-.417-.618-.344z"/></svg>