<svg id="Layer_1" viewBox="0 0 24 24" xmlns="http://www.w3.org/2000/svg" data-name="Layer 1"><path d="m18.881 21.753c-.006.002-.526.247-1.381.247-.505 0-.894-.085-1.127-.156-.033-.422-.095-1.251-.157-2.372-.015-.275-.214-.483-.527-.471-.061.003-.277.004-.336 0-.278-.017-.515.192-.531.467-.071 1.119-.146 1.957-.188 2.38-.235.068-.626.151-1.134.151s-.899-.083-1.134-.151c-.081-.843-.296-3.318-.353-6.358-.005-.273-.228-.491-.5-.491-.289-.016-.54.221-.529.515.01.325.016.655.016.985 0 2.242-.222 4.523-.308 5.329-.249.076-.668.171-1.192.171s-.928-.109-1.158-.192c-.094-.775-.342-3.047-.342-5.308 0-1.965.195-3.94.312-4.942.031-.274-.165-.522-.439-.554-.269-.033-.522.164-.555.439-.072.623-.174 1.616-.243 2.75-.274-.075-.821-.193-1.576-.193-1.075 0-1.742.237-1.77.247-.163.059-.283.198-.319.367-.017.079-.411 1.965-.411 3.886s.376 3.79.392 3.868c.034.169.153.308.314.369.029.011.716.285 1.794.263 1.295-.026 1.628-.179 2.075-.467.115.091.704.467 1.925.467 1.09 0 1.654-.231 2.016-.478.407.248.818.478 1.984.478 1.376-.083 1.551-.205 2.008-.498.441.268.673.426 1.992.498 1.086 0 1.75-.314 1.822-.35.246-.122.346-.419.225-.666-.119-.246-.418-.35-.666-.231zm-12.166.133c-.262.052-.687.114-1.215.114s-.937-.07-1.183-.128c-.104-.592-.317-1.985-.317-3.372s.225-2.786.332-3.382c.244-.053.646-.118 1.168-.118s.925.066 1.167.121c.108.594.333 1.995.333 3.379 0 1.375-.19 2.774-.285 3.386zm16.161.284-3.083-3.077c.127-1.693.194-4.219.207-7.093 0-5.557-.398-10.265-.402-10.312-.017-.191-.14-.355-.318-.424-.028-.011-.699-.264-1.779-.264s-1.751.253-1.779.264c-.179.069-.302.233-.318.424-.002.025-.12 1.429-.228 3.589-.257-.096-.849-.278-1.674-.278-1.101 0-1.787.322-1.815.336-.156.075-.263.225-.281.397-.003.022-.208 1.937-.324 4.662l-9.244-9.224c-.195-.194-.512-.195-.707 0s-.195.512 0 .707l21.038 21.001c.196.195.512.195.707 0s.195-.512 0-.707zm-6.505-20.052c.244-.055.632-.118 1.129-.118s.885.062 1.129.118c.09 1.177.371 5.227.371 9.882 0 2.376-.073 4.55-.148 6.153l-2.806-2.801c-.027-1.053-.046-2.179-.046-3.352 0-4.654.281-8.705.371-9.882zm-4.005 4.034c.235-.068.626-.151 1.134-.151s.898.083 1.134.151c.115.889.35 4.666.391 8.181l-2.98-2.974c.08-2.499.251-4.473.322-5.207z"/></svg>