<?xml version="1.0" encoding="UTF-8"?>
<svg xmlns="http://www.w3.org/2000/svg" id="Layer_1" data-name="Layer 1" viewBox="0 0 24 24">
  <path d="M5.143,12c0,.276,.224,.5,.5,.5h11.694c-.619,.917-2.049,2.578-4.914,3.941-.249,.119-.355,.417-.236,.667,.085,.18,.265,.285,.451,.285,.072,0,.146-.016,.215-.048,4.408-2.099,5.676-4.84,5.806-5.146,.053-.122,.055-.262,.004-.385-.049-.121-1.255-2.99-5.81-5.158-.249-.116-.549-.013-.666,.237-.119,.25-.013,.548,.236,.667,2.884,1.373,4.305,3.026,4.919,3.941H5.643c-.276,0-.5,.224-.5,.5Z"/>
  <path d="M21.714,2.562c-.05-.163-.18-.289-.343-.335-.179-.05-4.423-1.227-9.45-1.227C6.983,1,2.655,2.176,2.474,2.226c-.166,.045-.297,.173-.346,.338-.03,.101-.743,2.501-1.072,6.039-.025,.275,.177,.519,.452,.544,.271,.023,.519-.176,.544-.452,.257-2.769,.768-4.859,.959-5.575,1.023-.255,4.795-1.12,8.91-1.12,4.183,0,7.902,.863,8.911,1.119,.261,.963,1.114,4.457,1.114,8.881,0,4.389-.854,7.91-1.115,8.881-1.012,.256-4.738,1.119-8.91,1.119-4.04,0-7.873-.867-8.91-1.122-.191-.716-.701-2.801-.959-5.574-.025-.275-.273-.481-.544-.452-.275,.026-.478,.27-.452,.544,.329,3.537,1.042,5.938,1.072,6.039,.05,.166,.182,.293,.349,.339,.186,.05,4.597,1.225,9.444,1.225,5.016,0,9.271-1.176,9.449-1.227,.165-.046,.294-.173,.344-.336,.051-.166,1.232-4.129,1.232-9.437,0-5.353-1.183-9.274-1.232-9.438Z"/>
</svg>
