<?xml version="1.0" encoding="UTF-8"?>
<svg xmlns="http://www.w3.org/2000/svg" id="Layer_1" data-name="Layer 1" viewBox="0 0 24 24">
  <path d="M22.963,11.812c-.051-.126-1.313-3.12-6.08-5.385-.248-.118-.548-.012-.666,.237-.119,.249-.012,.547,.237,.666,3.066,1.457,4.559,3.216,5.191,4.169H8.875c-.276,0-.5,.224-.5,.5s.224,.5,.5,.5h12.765c-.638,.954-2.14,2.721-5.186,4.169-.25,.119-.356,.417-.237,.666,.085,.18,.265,.286,.452,.286,.072,0,.145-.016,.214-.048,4.616-2.193,5.94-5.055,6.077-5.374,.052-.123,.054-.263,.003-.386Z"/>
  <path d="M12.426,15.913c-.279-.021-.516,.184-.538,.459-.15,1.903-.354,3.933-.429,4.67-.643,.266-2.433,.924-4.427,.924-1.932,0-3.78-.667-4.436-.932-.134-1.075-.596-5.059-.596-9.035s.462-7.964,.596-9.037c.646-.264,2.469-.93,4.436-.93,1.992,0,3.785,.659,4.427,.925,.076,.738,.281,2.771,.431,4.669,.022,.276,.267,.481,.538,.459,.275-.021,.481-.262,.459-.538-.187-2.376-.46-4.96-.463-4.986-.018-.172-.125-.323-.281-.398-.097-.046-2.393-1.132-5.111-1.132-2.67,0-5.009,1.084-5.107,1.13-.154,.072-.26,.217-.283,.385-.006,.047-.641,4.754-.641,9.451s.634,9.404,.641,9.451c.023,.169,.131,.315,.287,.387,.1,.046,2.482,1.129,5.104,1.129,2.712,0,5.014-1.086,5.11-1.132,.157-.075,.263-.226,.281-.399,0,0,.273-2.592,.462-4.985,.021-.275-.184-.516-.459-.538Z"/>
</svg>
