<svg id="Layer_1" viewBox="0 0 24 24" xmlns="http://www.w3.org/2000/svg" data-name="Layer 1"><path d="m7.589 14.118c-.036-.168-.155-.306-.316-.366-.028-.01-.696-.252-1.773-.252s-1.743.237-1.771.247c-.163.059-.283.198-.319.367-.017.08-.411 1.965-.411 3.886s.375 3.79.391 3.868c.035.169.153.308.315.369.029.011.716.263 1.794.263 1.064 0 1.774-.219 1.803-.228.177-.056.309-.205.342-.388.015-.08.354-1.97.354-3.884s-.394-3.803-.411-3.882zm-.875 7.268c-.262.052-.687.114-1.214.114s-.937-.07-1.183-.128c-.104-.593-.317-1.988-.317-3.372s.224-2.785.332-3.382c.244-.053.646-.118 1.168-.118s.926.066 1.167.121c.108.594.333 1.995.333 3.379 0 1.375-.19 2.774-.286 3.386z"/></svg>