<svg id="Layer_1" viewBox="0 0 24 24" xmlns="http://www.w3.org/2000/svg" data-name="Layer 1"><path d="m21.706 5.65c-.015-.111-.067-.215-.147-.294-.062-.06-4.101-4.037-4.101-4.037-.078-.077-.181-.126-.29-.14-.869-.105-2.696-.179-3.793-.179-3.929 0-6.919.883-7.044.921-.151.045-.273.16-.327.309-.041.114-1.004 2.845-1.004 8.27s.963 8.156 1.004 8.27c.054.149.176.264.327.309.125.038 3.115.921 7.044.921s7.148-.88 7.284-.918c.156-.043.281-.16.337-.312.041-.114 1.004-2.845 1.004-8.27 0-1.718-.099-3.35-.294-4.85zm-1.574 12.535c-.838.205-3.596.815-6.757.815-3.142 0-5.714-.603-6.505-.81-.225-.765-.87-3.348-.87-7.69s.646-6.925.87-7.69c.79-.207 3.356-.81 6.505-.81 1.001 0 2.62.062 3.505.153 2.264 2.229 3.312 3.261 3.846 3.719.183 1.432.274 2.989.274 4.628 0 4.332-.643 6.913-.868 7.685zm-3.133 4.211c.018.276-.191.513-.468.531-.685.043-1.738.073-2.62.073-5.521 0-9.233-1.244-10.239-1.625-.149-.057-.262-.18-.305-.333-.411-1.472-1.367-5.602-1.367-12.141 0-1.169.031-2.322.092-3.427.016-.275.268-.502.526-.472.275.015.487.251.472.526-.06 1.087-.09 2.222-.09 3.373 0 6.08.836 10.013 1.264 11.626 1.23.438 4.666 1.474 9.647 1.474.863 0 1.891-.028 2.558-.071.281-.008.514.192.53.467zm.255-14.175c-2.438-.292-5.066-.293-7.508 0-1.013.122-1.763.983-1.746 2.004.028 1.479.163 3.421.376 4.842.129.876.811 1.553 1.695 1.686 1.105.165 2.26.248 3.429.248s2.316-.083 3.425-.248c.885-.132 1.565-.81 1.693-1.686.21-1.415.356-3.362.382-4.842.017-1.021-.733-1.882-1.746-2.003zm-.119.993c.502.06.874.487.865.993-.013.636-.029 1.203-.081 1.793h-5.419v-2.97c1.555-.049 3.131.003 4.635.184zm-7.27 0c.535-.064 1.083-.11 1.635-.145v2.931h-2.421c-.049-.59-.067-1.168-.079-1.792-.009-.506.363-.934.865-.994zm.354 6.549c-.446-.066-.789-.405-.854-.842-.079-.54-.175-1.291-.213-1.921h5.348v2.964c-1.443.062-2.907.004-4.281-.201zm7.41-.842c-.063.437-.406.775-.852.842-.418.062-.847.102-1.277.14v-2.902h2.343c-.041.632-.134 1.379-.214 1.921z"/></svg>