<svg id="Layer_1" viewBox="0 0 24 24" xmlns="http://www.w3.org/2000/svg" data-name="Layer 1"><path d="m5.043 1.704c-.113-.252 0-.548.253-.66.252-.113.547 0 .66.253l.893 2c.113.252 0 .548-.253.66-.246.112-.548.002-.66-.253zm12.361 2.253c.246.112.548.002.66-.253l.893-2c.113-.252 0-.548-.253-.66-.251-.113-.548 0-.66.253l-.893 2c-.113.252 0 .548.253.66zm3.45 1.897 1.5-1.5c.195-.195.195-.512 0-.707s-.512-.195-.707 0l-1.5 1.5c-.195.195-.195.512 0 .707s.512.195.707 0zm-9.371 2.154c-1.422.048-1.853.285-1.994.403-.198.186-.447.565-.792 1.97-.065.269.099.539.367.605.261.065.54-.096.605-.367.241-.985.407-1.327.473-1.435.135-.046.525-.148 1.375-.177.276-.009.492-.24.482-.517-.009-.276-.233-.507-.517-.482zm-8.337-2.154c.195.195.512.195.707 0s.195-.512 0-.707l-1.5-1.5c-.195-.195-.512-.195-.707 0s-.195.512 0 .707zm19.854 14.142c0 1.378-.505 2.228-.527 2.263-.079.129-.211.216-.36.236-.037.005-3.789.504-10.113.504s-10.076-.5-10.113-.504c-.149-.021-.282-.107-.36-.236-.021-.036-.527-.885-.527-2.259.009-1.398 1.142-2.591 2.548-2.684l.595-4.491c1.081-6.409 2.038-8.825 7.857-8.825s6.781 2.402 7.854 8.758l.601 4.558c1.379.129 2.535 1.31 2.545 2.68zm-18.433-2.76c1.751-.122 4.402-.236 7.433-.236s5.686.114 7.436.236l-.571-4.329c-1.081-6.405-1.844-7.907-6.865-7.907-4.98 0-5.795 1.614-6.868 7.974zm17.433 2.764c-.006-.86-.696-1.6-1.571-1.682-1.571-.147-4.722-.318-8.429-.318s-6.858.171-8.429.318c-.875.082-1.564.822-1.571 1.686 0 .723.172 1.258.286 1.533.949.11 4.411.463 9.714.463s8.765-.353 9.714-.463c.113-.273.286-.81.286-1.537z"/></svg>