<svg id="Layer_1" viewBox="0 0 24 24" xmlns="http://www.w3.org/2000/svg" data-name="Layer 1"><path d="m20.719 17.359-1.028-7.785c-1.05-6.223-1.985-8.574-7.691-8.574s-6.636 2.365-7.695 8.64l-1.022 7.719c-1.284.218-2.273 1.334-2.283 2.641 0 1.374.505 2.224.526 2.259.078.129.211.216.36.237.037.005 3.789.504 10.113.504s10.076-.5 10.113-.504c.149-.021.282-.107.36-.237.021-.035.526-.885.526-2.262-.009-1.303-.997-2.418-2.281-2.637zm-8.719-15.359c4.901 0 5.646 1.467 6.702 7.723l.994 7.532c-1.741-.129-4.513-.254-7.696-.254s-5.953.125-7.694.254l.988-7.465c1.049-6.212 1.845-7.789 6.706-7.789zm9.714 19.537c-.949.11-4.411.463-9.714.463s-8.765-.353-9.714-.463c-.114-.274-.286-.81-.286-1.533.006-.863.696-1.604 1.571-1.686 1.571-.147 4.722-.318 8.429-.318s6.857.171 8.429.318c.875.082 1.565.822 1.571 1.682 0 .727-.173 1.263-.286 1.537zm-12.898-14.152c.332-1.399.566-1.784.751-1.977.029-.029.061-.055.096-.077.132-.083.572-.279 1.819-.323.26-.021.508.206.518.482s-.206.507-.482.517c-.749.027-1.123.113-1.271.158-.072.129-.231.494-.458 1.449-.063.27-.34.435-.602.371-.269-.063-.435-.333-.371-.602z"/></svg>