<svg id="Layer_1" viewBox="0 0 24 24" xmlns="http://www.w3.org/2000/svg" data-name="Layer 1"><path d="m20.968 1.263c-.096-.258-.381-.391-.643-.293-.027.01-2.838 1.031-8.325 1.031s-8.298-1.022-8.325-1.032c-.259-.097-.546.035-.643.293s.034.546.292.643c.116.043 2.821 1.029 8.176 1.089v3c-2.686-.031-4.685-.298-5.908-.527-.266-.05-.532.126-.583.399-.051.271.128.533.399.584 1.263.236 3.328.513 6.092.544v2.993c-1.358-.015-2.708-.081-3.945-.217-.274-.034-.521.167-.552.442s.168.521.442.552c1.275.14 2.643.208 4.055.223v3.019c-1.546.016-3 .104-4.318.269-1.807.227-3.175 1.827-3.182 3.727.006 1.59 1.026 2.865 3.034 3.792.268.124 2.679 1.207 4.966 1.207s4.698-1.083 4.965-1.207c2.009-.926 3.029-2.202 3.035-3.795-.007-1.896-1.375-3.496-3.182-3.723-1.318-.165-2.772-.252-4.318-.269v-3.019c1.412-.015 2.779-.084 4.055-.223.274-.03.473-.277.442-.552s-.282-.475-.552-.442c-1.238.136-2.587.202-3.945.217v-2.993c2.764-.031 4.828-.307 6.092-.544.271-.051.45-.312.399-.584s-.318-.448-.583-.399c-1.223.228-3.223.496-5.908.527v-3.001c5.355-.06 8.06-1.045 8.176-1.089.258-.097.389-.385.292-.643zm-1.968 16.735c-.004 1.184-.807 2.128-2.454 2.887-.247.114-2.473 1.115-4.546 1.115s-4.299-1-4.547-1.115c-1.646-.759-2.449-1.704-2.453-2.883.005-1.395.996-2.57 2.307-2.734 1.419-.178 2.998-.268 4.693-.268s3.274.09 4.693.268c1.311.165 2.302 1.34 2.307 2.73zm-7 .233c.332-.098 1.314-.427 2.188-1.123.215-.17.531-.137.703.08s.136.531-.08.703c-1.247.992-2.637 1.332-2.695 1.345-.076.018-.156.018-.232 0-.059-.014-1.448-.353-2.695-1.345-.216-.172-.252-.486-.08-.703.173-.216.488-.25.703-.08.874.696 1.856 1.025 2.188 1.123z"/></svg>