<?xml version="1.0" encoding="UTF-8"?>
<svg xmlns="http://www.w3.org/2000/svg" id="Layer_1" data-name="Layer 1" viewBox="0 0 24 24">
  <path d="M21.574,3.157l1.28-1.276c.195-.195,.195-.512,0-.707-.195-.196-.513-.195-.708,0l-1.284,1.28c-.921-.782-2.379-1.648-2.829-1.199-.195,.195-.195,.512,0,.707,.093,.093,.212,.141,.333,.146,.197,.051,.963,.346,1.789,1.051l-2.018,2.013c-1.453-1.364-3.26-2.494-4.973-.786h0c-.569,.568-.858,1.199-.858,1.875,0,.917,.511,1.882,1.646,3.087l-2.017,2.012c-.815-.963-1.07-1.881-1.072-1.891-.072-.266-.342-.423-.611-.354-.267,.07-.426,.342-.355,.609,.013,.052,.317,1.18,1.329,2.345l-2.139,2.134c-.815-.963-1.071-1.881-1.073-1.891-.072-.266-.342-.424-.611-.354-.267,.071-.426,.343-.355,.609,.013,.052,.318,1.18,1.329,2.345l-1.956,1.951c-.99-.852-2.415-1.48-4.242,.34-.791,.789-1.176,1.545-1.176,2.311,0,.76,.374,1.487,1.176,2.288,.575,.573,1.34,1.176,2.286,1.176,.681,0,1.456-.313,2.321-1.176,.195-.195,.195-.512,0-.707-.195-.196-.512-.195-.707,0-1.337,1.333-2.184,1.007-3.193,0-.603-.601-.883-1.103-.883-1.58,0-.486,.289-1.011,.883-1.603,1.334-1.331,2.182-1.009,3.193,0,.195,.194,.512,.194,.707,0l2.302-2.296c.747,.633,1.848,1.322,2.476,1.322,.146,0,.266-.037,.351-.121,.196-.194,.198-.511,.004-.707-.093-.094-.214-.144-.337-.148-.196-.051-.961-.345-1.787-1.051l2.143-2.138c.747,.633,1.848,1.322,2.476,1.322,.146,0,.266-.037,.351-.12,.196-.194,.198-.511,.004-.707-.093-.094-.214-.144-.337-.148-.196-.051-.961-.345-1.787-1.051l2.016-2.01c.731,.701,1.865,1.643,3.095,1.643,.616,0,1.256-.237,1.881-.86,.56-.558,.843-1.185,.843-1.862,0-.921-.52-1.914-1.63-3.1l2.017-2.012c.815,.962,1.07,1.88,1.073,1.891,.061,.223,.263,.371,.483,.371,.042,0,.085-.005,.128-.017,.267-.071,.426-.343,.355-.609-.013-.052-.318-1.18-1.329-2.344Zm-2.648,6.974c-.834,.832-1.82,.958-3.918-1.133-1.161-1.158-1.702-2.028-1.702-2.738,0-.406,.185-.788,.565-1.167,.835-.833,1.823-.958,3.919,1.133,1.135,1.131,1.686,2.031,1.686,2.751,0,.408-.18,.785-.55,1.154Z"/>
</svg>
