<?xml version="1.0" encoding="UTF-8"?>
<svg xmlns="http://www.w3.org/2000/svg" id="Layer_1" data-name="Layer 1" viewBox="0 0 24 24">
  <path d="M7.585,6.945c1.266,0,2.292-1.026,2.292-2.292s-1.026-2.292-2.292-2.292-2.292,1.026-2.292,2.292,1.026,2.292,2.292,2.292Zm0-3.584c.713,0,1.292,.578,1.292,1.292s-.578,1.292-1.292,1.292-1.292-.578-1.292-1.292,.578-1.292,1.292-1.292Z"/>
  <path d="M15.841,5.219c.152,1.642,.179,3.332,.08,5.024-.017,.275,.194,.513,.47,.528,.01,0,.02,0,.029,0,.264,0,.483-.205,.499-.471,.103-1.743,.074-3.483-.082-5.175-.095-1.029-.243-2.087-.441-3.145-.051-.272-.317-.45-.583-.399-.271,.051-.45,.312-.399,.583,.191,1.027,.336,2.055,.428,3.053Z"/>
  <path d="M4.777,17.521c.09,0,.182-.024,.264-.076,.234-.146,.306-.454,.16-.688-.02-.032-1.988-3.216-3.217-7.831-.072-.268-.345-.425-.612-.354-.267,.071-.425,.346-.354,.612,1.268,4.759,3.252,7.969,3.335,8.103,.095,.152,.258,.235,.425,.235Z"/>
  <path d="M22.912,14.739c-.071-.267-.344-.429-.612-.354-.267,.071-.426,.345-.354,.612,.11,.412,.052,.844-.163,1.214-.218,.376-.571,.645-.995,.757l-3.32,.877c-.487-1.769-1.302-3.629-1.338-3.709-.1-.225-.342-.348-.586-.282l-4.947,1.308c-.812,.229-1.695,.249-2.135,.241-.211-.438-.648-1.418-.981-2.668-.331-1.24-.44-2.313-.476-2.803,.363-.214,1.109-.612,1.98-.843,.875-.23,1.722-.257,2.141-.245,.211,.438,.649,1.419,.982,2.67,.071,.268,.346,.427,.612,.354,.267-.071,.425-.346,.354-.612-.486-1.826-1.167-3.086-1.195-3.139-.081-.147-.23-.245-.397-.259-.056-.005-1.352-.106-2.752,.264-1.397,.369-2.476,1.098-2.521,1.129-.14,.096-.222,.256-.218,.426,.001,.061,.042,1.505,.525,3.315,.486,1.825,1.166,3.086,1.195,3.139,.081,.149,.233,.247,.403,.26,.06,.003,1.453,.1,2.748-.265l4.521-1.195c.263,.636,.781,1.943,1.119,3.17l-12.648,3.342c-.267,.07-.426,.344-.355,.611,.059,.224,.262,.372,.483,.372,.042,0,.085-.005,.128-.017l16.935-4.475c.682-.181,1.252-.614,1.604-1.222,.349-.602,.443-1.303,.265-1.974Z"/>
</svg>
