<?xml version="1.0" encoding="UTF-8"?>
<svg xmlns="http://www.w3.org/2000/svg" id="Layer_1" data-name="Layer 1" viewBox="0 0 24 24">
  <path d="M15.389,5.223c.424,.208,.813,.312,1.17,.312,.729,0,1.313-.436,1.745-1.305,.328-.66,.407-1.221,.24-1.715-.218-.643-.8-.99-1.218-1.196-1.29-.633-2.272-.301-2.915,.993-.328,.66-.407,1.221-.24,1.715,.218,.643,.8,.99,1.218,1.196Zm-.083-2.466c.274-.551,.537-.761,.863-.761,.207,0,.439,.084,.716,.221,.411,.201,.637,.398,.712,.619,.076,.226,.013,.544-.188,.948-.448,.9-.866,.893-1.579,.54-.411-.201-.637-.398-.712-.619-.076-.226-.013-.544,.188-.948Z"/>
  <path d="M21.969,14.604c-.08-.265-.361-.416-.624-.331-.265,.081-.412,.36-.331,.624,.105,.346,.07,.711-.099,1.03-.172,.323-.459,.56-.81,.666l-11.312,3.445v-7.547c0-.604,.103-1.146,.303-1.612,.765-1.783,1.862-3.364,3.266-4.704l2.609,1.282-3.238,4.811c-.346,.521-.814,.966-1.354,1.283l-.585,.345v1.161s1.093-.644,1.093-.644c.669-.394,1.25-.944,1.678-1.589l3.556-5.283c.154-.229,.093-.54-.136-.694-.007-.005-3.491-1.721-3.491-1.721-.11-.054-.233-.064-.347-.034-.009,.002-1.083,.35-1.083,.35-1.549,.488-3.224,.274-4.595-.58-.231-.146-.541-.076-.688,.159-.146,.234-.075,.543,.159,.688,1.047,.653,2.243,.988,3.454,.988,.401,0,.804-.037,1.204-.111-.998,1.167-1.81,2.472-2.422,3.898-.253,.592-.382,1.267-.382,2.007v7.852s-5.514,1.679-5.514,1.679c-.265,.081-.413,.36-.333,.624,.065,.216,.264,.354,.479,.354,.048,0,.097-.007,.146-.021l17.824-5.428c.607-.186,1.104-.595,1.401-1.153,.295-.556,.356-1.192,.171-1.793Z"/>
</svg>
