<svg id="Layer_1" viewBox="0 0 24 24" xmlns="http://www.w3.org/2000/svg" data-name="Layer 1"><path d="m5.75 19c0 .414-.336.75-.75.75s-.75-.336-.75-.75.336-.75.75-.75.75.336.75.75zm-4 2.5c-.414 0-.75.336-.75.75s.336.75.75.75.75-.336.75-.75-.336-.75-.75-.75zm6.75 0c-.414 0-.75.336-.75.75s.336.75.75.75.75-.336.75-.75-.336-.75-.75-.75zm7 0c-.414 0-.75.336-.75.75s.336.75.75.75.75-.336.75-.75-.336-.75-.75-.75zm-3.5-3.25c-.414 0-.75.336-.75.75s.336.75.75.75.75-.336.75-.75-.336-.75-.75-.75zm7 0c-.414 0-.75.336-.75.75s.336.75.75.75.75-.336.75-.75-.336-.75-.75-.75zm3.25 3.25c-.414 0-.75.336-.75.75s.336.75.75.75.75-.336.75-.75-.336-.75-.75-.75zm-1.25-9.746v.746c0 2.421-1.079 3.5-3.5 3.5s-3.5-1.079-3.5-3.5c.001-.331-.008-1.141.019-1.46-1.298-.045-2.718-.045-4.018 0-.001.455-.002.957-.002 1.461 0 2.421-1.079 3.5-3.5 3.5s-3.5-1.079-3.5-3.5c0-.258.013-.5.02-.749-.891.159-1.394.283-1.399.284-.261.066-.541-.094-.606-.364-.066-.268.097-.54.364-.606.027-.007.626-.155 1.696-.339.486-6.231 3.666-9.168 10.387-9.7.225-.021.439.122.513.338s-.01.455-.201.58c-3.301 2.144-3.714 3.226-3.765 8.093 1.328-.045 2.774-.044 4.094.003.581-4.527 3.853-7.759 8.367-8.041.243-.005.425.12.5.326.077.208.009.44-.168.573-2.034 1.531-1.973 3.161-1.86 6.12.02.529.037 1.109.048 1.717 1.031.18 1.605.322 1.632.329.268.066.431.338.364.606-.066.27-.345.431-.606.364-.006-.002-.501-.123-1.379-.281zm-11.996-1.204c.029-4.512.289-6.353 2.633-8.295-5.462.928-7.637 3.936-7.637 10.245 0 1.869.631 2.5 2.5 2.5s2.5-.631 2.5-2.5c0 0 0-1.38.004-1.949zm10.996.949c0-.896-.031-1.705-.059-2.443-.094-2.467-.162-4.263 1.076-5.828-3.609.891-6.018 4.102-6.018 8.271v1c0 1.869.631 2.5 2.5 2.5s2.5-.631 2.5-2.5v-1z"/></svg>