<svg id="Layer_1" viewBox="0 0 24 24" xmlns="http://www.w3.org/2000/svg" data-name="Layer 1"><path d="m9.06 11.988c.256 1.476 1.072 2.012 2.94 2.012s2.683-.536 2.94-2.011c2.031-.167 3.06-1.845 3.06-4.989 0-4.206-1.794-6-6-6s-6 1.794-6 6c0 3.135 1.023 4.812 3.06 4.988zm2.94-9.988c3.645 0 5 1.355 5 5 0 3.503-1.296 3.961-2.25 4h-.25c-.258 0-.474.196-.498.453-.112 1.198-.389 1.547-2.002 1.547s-1.89-.349-2.002-1.547c-.024-.257-.24-.453-.498-.453h-.23c-.974-.039-2.27-.497-2.27-4 0-3.645 1.355-5 5-5zm10.918 20.773c-.152.233-.464.295-.692.145-2.97-1.939-6.724-3.556-10.227-4.814-3.502 1.258-7.257 2.875-10.227 4.814-.228.15-.54.088-.692-.145-.151-.231-.086-.541.145-.692 2.715-1.773 6.063-3.28 9.29-4.495-4.948-1.676-9.05-2.581-9.123-2.597-.27-.059-.441-.325-.382-.595s.323-.442.595-.382c.079.017 4.874 1.077 10.394 3.033 5.519-1.957 10.314-3.016 10.394-3.033.272-.061.536.113.595.382.059.27-.113.536-.382.595-.073.016-4.174.922-9.123 2.597 3.226 1.215 6.575 2.722 9.29 4.495.231.151.296.46.145.692zm-13.668-14.773c0-.414.336-.75.75-.75s.75.336.75.75-.336.75-.75.75-.75-.336-.75-.75zm4 0c0-.414.336-.75.75-.75s.75.336.75.75-.336.75-.75.75-.75-.336-.75-.75z"/></svg>