<svg id="Layer_1" viewBox="0 0 24 24" xmlns="http://www.w3.org/2000/svg" data-name="Layer 1"><path d="m9 8c-1.103 0-2 .897-2 2s.897 2 2 2 2-.897 2-2-.897-2-2-2zm0 3c-.552 0-1-.449-1-1s.448-1 1-1 1 .449 1 1-.448 1-1 1zm14-9.5c0-.276-.224-.5-.5-.5s-.5.224-.5.5c0 1.916-.584 2.5-2.5 2.5-1.126 0-2.167-.439-3.27-.905-1.276-.539-2.596-1.095-4.23-1.095s-2.954.557-4.23 1.095c-1.103.465-2.144.905-3.27.905-1.916 0-2.5-.584-2.5-2.5 0-.276-.224-.5-.5-.5s-.5.224-.5.5c0 2.486 1.014 3.5 3.5 3.5.119 0 .231-.023.347-.031-1.104 2.357-1.791 4.939-1.847 7.017-.005.191.099.368.269.457 1.577.811 3.659 1.569 4.732 3.2.029 3.145 1.031 6.186 1.074 6.315.033.098.095.184.178.244.045.033 1.102.798 2.747.798s2.702-.765 2.747-.798c.075-.055.133-.13.167-.217.044-.109 1.06-2.69 1.085-6.344 1.075-1.63 3.155-2.387 4.732-3.199.17-.088.273-.266.269-.457-.056-2.078-.743-4.66-1.847-7.017.116.008.228.031.347.031 2.486 0 3.5-1.014 3.5-3.5zm-3.013 10.199c-.159.078-.33.16-.51.245-1.445.69-3.427 1.635-4.408 3.302-.046.077-.069.165-.069.254 0 3.049-.751 5.379-.961 5.969-.273.161-1.016.531-2.039.531-1.012 0-1.747-.361-2.028-.524-.209-.681-.972-3.349-.972-5.976 0-.089-.023-.177-.069-.254-.981-1.667-2.963-2.612-4.408-3.302-.18-.085-.351-.167-.51-.245.1-2.078.908-4.635 2.01-6.919.74-.19 1.447-.473 2.136-.764 1.184-.5 2.408-1.017 3.841-1.017s2.657.517 3.841 1.017c.689.291 1.397.574 2.136.764 1.102 2.284 1.91 4.841 2.01 6.919zm-4.987-3.699c-1.103 0-2 .897-2 2s.897 2 2 2 2-.897 2-2-.897-2-2-2zm0 3c-.552 0-1-.449-1-1s.448-1 1-1 1 .449 1 1-.448 1-1 1z"/></svg>