<svg id="Layer_1" viewBox="0 0 24 24" xmlns="http://www.w3.org/2000/svg" data-name="Layer 1"><path d="m12.5 14.682v-13.182c0-.276-.224-.5-.5-.5s-.5.224-.5.5v13.182c-1.415.155-2.111.995-2.111 2.568s.696 2.412 2.111 2.568v2.682c0 .276.224.5.5.5s.5-.224.5-.5v-2.682c1.415-.155 2.111-.995 2.111-2.568s-.696-2.412-2.111-2.568zm-.5 4.168c-1.045 0-1.611-.255-1.611-1.6s.566-1.6 1.611-1.6 1.611.255 1.611 1.6-.566 1.6-1.611 1.6z"/><path d="m5.111 4.182v-2.682c0-.276-.224-.5-.5-.5s-.5.224-.5.5v2.682c-1.415.155-2.111.995-2.111 2.568s.696 2.412 2.111 2.568v13.182c0 .276.224.5.5.5s.5-.224.5-.5v-13.182c1.415-.155 2.111-.996 2.111-2.568s-.696-2.412-2.111-2.568zm-.5 4.168c-1.045 0-1.611-.255-1.611-1.6s.566-1.6 1.611-1.6 1.611.255 1.611 1.6-.566 1.6-1.611 1.6z"/><path d="m22 6.75c0-1.572-.696-2.412-2.111-2.568v-2.682c0-.276-.224-.5-.5-.5s-.5.224-.5.5v2.682c-1.415.155-2.111.996-2.111 2.568s.696 2.412 2.111 2.568v13.182c0 .276.224.5.5.5s.5-.224.5-.5v-13.182c1.415-.155 2.111-.995 2.111-2.568zm-2.611 1.6c-1.045 0-1.611-.255-1.611-1.6 0-1.338.591-1.6 1.611-1.6 1.045 0 1.611.255 1.611 1.6s-.566 1.6-1.611 1.6z"/></svg>