<?xml version="1.0" encoding="UTF-8"?>
<svg xmlns="http://www.w3.org/2000/svg" id="Layer_1" data-name="Layer 1" viewBox="0 0 24 24">
  <path d="M13.197,18.957h-2.395c-.276,0-.5,.224-.5,.5s.224,.5,.5,.5h2.395c.276,0,.5-.224,.5-.5s-.224-.5-.5-.5Z"/>
  <path d="M18.877,2.605c-.034-.162-.146-.297-.3-.36-.124-.051-3.078-1.245-6.577-1.245-3.436,0-6.447,1.193-6.574,1.244-.155,.062-.27,.199-.303,.363-.009,.041-.842,4.142-.842,9.393s.833,9.352,.842,9.393c.033,.166,.149,.302,.307,.364,.129,.051,3.197,1.243,6.57,1.243,3.491,0,6.452-1.194,6.577-1.245,.153-.063,.267-.198,.3-.361,.009-.04,.842-4.108,.842-9.394,0-5.33-.808-9.231-.842-9.395Zm-12.826,.473c.778-.278,3.255-1.078,5.949-1.078,2.736,0,5.183,.799,5.95,1.077,.18,.967,.769,4.473,.769,8.923,0,1.252-.048,2.434-.12,3.507-.767,.112-3.516,.48-6.599,.48-2.982,0-5.811-.369-6.598-.481-.073-1.074-.12-2.256-.12-3.506,0-4.382,.59-7.939,.77-8.922Zm5.949,18.922c-2.642,0-5.158-.803-5.95-1.081-.112-.611-.381-2.215-.57-4.393,1.034,.14,3.71,.461,6.52,.461,2.893,0,5.503-.318,6.521-.459-.189,2.187-.459,3.788-.571,4.395-.769,.278-3.213,1.077-5.949,1.077Z"/>
</svg>
