<svg id="Layer_1" viewBox="0 0 24 24" xmlns="http://www.w3.org/2000/svg" data-name="Layer 1"><path d="m21.021 7.145c-.023-.067-.061-.128-.11-.18-2.228-2.331-5.157-4.322-8.706-5.92-.13-.059-.28-.059-.41 0-3.549 1.598-6.478 3.59-8.706 5.92-.049.052-.087.113-.11.18-.04.114-.979 2.843-.979 7.218 0 4.338.515 7.068.537 7.182.035.18.165.326.338.382.137.044 3.412 1.074 9.125 1.074s8.988-1.03 9.125-1.074c.174-.056.304-.202.338-.382.022-.114.537-2.844.537-7.182 0-4.375-.938-7.104-.979-7.218zm-.489 13.911c-.908.243-3.928.944-8.532.944s-7.624-.701-8.532-.944c-.131-.82-.468-3.264-.468-6.693 0-3.74.727-6.269.89-6.789 2.086-2.157 4.813-4.015 8.11-5.524 3.297 1.509 6.024 3.367 8.11 5.524.163.52.89 3.049.89 6.789 0 3.43-.337 5.874-.468 6.693zm-9.032-7.556v-4c0-.276.224-.5.5-.5s.5.224.5.5v4c0 .276-.224.5-.5.5s-.5-.224-.5-.5zm5.5.5c0 3.505-1.495 5-5 5s-5-1.495-5-5c0-2.435.735-3.882 2.313-4.554.255-.109.547.009.656.264.108.254-.01.547-.264.656-1.195.509-1.705 1.596-1.705 3.634 0 2.953 1.047 4 4 4s4-1.047 4-4c0-1.987-.511-3.102-1.657-3.613-.252-.112-.366-.408-.253-.66s.408-.366.66-.253c1.535.685 2.25 2.123 2.25 4.526z"/></svg>