<svg id="Layer_1" viewBox="0 0 24 24" xmlns="http://www.w3.org/2000/svg" data-name="Layer 1"><path d="m23 14.75c0 1.753-.743 3.437-2.04 4.62-.203.187-.519.172-.706-.033-.187-.204-.172-.521.032-.707 1.089-.993 1.714-2.408 1.714-3.88 0-1.929-1.055-3.7-2.754-4.62-.155-.084-.255-.245-.262-.421-.155-4.323-3.663-7.709-7.984-7.709-4.411 0-8 3.589-8 8 0 1.159.251 2.288.746 3.355.106.229.023.503-.191.636-.974.6-1.555 1.631-1.555 2.759 0 1.208.664 2.31 1.733 2.875.244.129.338.432.209.676-.13.246-.437.336-.676.208-1.398-.739-2.267-2.18-2.267-3.759 0-1.332.616-2.56 1.669-3.362-.444-1.085-.669-2.223-.669-3.388.001-4.962 4.038-9 9.001-9 4.769 0 8.656 3.664 8.97 8.393 1.876 1.128 3.03 3.156 3.03 5.357zm-5.578-1.209c.023.067.578 1.68.578 4.248 0 2.531-.302 4.131-.314 4.198-.035.18-.164.326-.339.382-.08.026-2.007.632-5.347.632s-5.267-.606-5.347-.632c-.175-.056-.304-.202-.339-.382-.013-.067-.314-1.667-.314-4.198 0-2.568.555-4.181.578-4.248s.062-.129.11-.181c1.31-1.369 3.027-2.537 5.106-3.474.131-.059.279-.059.41 0 2.079.937 3.797 2.105 5.106 3.474.049.052.087.113.11.181zm-.422 4.248c0-2.04-.378-3.447-.491-3.82-1.166-1.195-2.682-2.229-4.509-3.077-1.827.847-3.343 1.881-4.509 3.077-.113.373-.491 1.78-.491 3.82 0 1.808.163 3.138.247 3.706.638.16 2.303.505 4.753.505s4.115-.346 4.753-.505c.084-.568.247-1.898.247-3.706zm-5-3.789c-1.221 0-2.421.61-3.47 1.764-.186.205-.171.521.034.707.204.186.521.171.706-.034.854-.94 1.798-1.437 2.729-1.437 1.031 0 1.919.464 2.716 1.42.178.214.493.24.704.064.212-.177.24-.492.063-.704-.983-1.181-2.156-1.78-3.483-1.78zm-1.653 3.343c-.195.195-.195.512 0 .707s.512.195.707 0c.74-.74 1.152-.74 1.893 0 .195.195.512.195.707 0s.195-.512 0-.707c-1.148-1.149-2.158-1.149-3.307 0zm1.653 1.907c-.414 0-.75.336-.75.75s.336.75.75.75.75-.336.75-.75-.336-.75-.75-.75z"/></svg>