<svg id="Layer_1" viewBox="0 0 24 24" xmlns="http://www.w3.org/2000/svg" data-name="Layer 1"><path d="m13.457 10.662c-.03-.007-.744-.162-1.457-.162s-1.427.155-1.457.162c-.19.042-.339.19-.381.381-.007.03-.162.745-.162 1.458s.155 1.427.162 1.458c.042.19.19.339.381.381.03.007.744.162 1.457.162s1.427-.155 1.457-.162c.19-.042.339-.19.381-.381.007-.03.162-.745.162-1.458s-.155-1.427-.162-1.458c-.042-.19-.19-.339-.381-.381zm-.537 2.758c-.482.076-1.357.076-1.84 0-.038-.241-.08-.586-.08-.92s.042-.679.08-.92c.482-.076 1.357-.076 1.84 0 .038.241.08.586.08.92s-.042.679-.08.92zm9.58.08h-1.541c.025-.495.041-.997.041-1.5s-.015-1.005-.041-1.5h1.541c.276 0 .5-.224.5-.5s-.224-.5-.5-.5h-1.607c-.089-1.113-.22-2.146-.35-3h1.457c.276 0 .5-.224.5-.5s-.224-.5-.5-.5h-1.62c-.128-.734-.23-1.203-.241-1.257-.042-.191-.19-.34-.381-.381-.054-.012-.523-.113-1.258-.242v-1.62c0-.276-.224-.5-.5-.5s-.5.224-.5.5v1.457c-.854-.13-1.887-.261-3-.35v-1.607c0-.276-.224-.5-.5-.5s-.5.224-.5.5v1.541c-.495-.025-.997-.041-1.5-.041s-1.005.015-1.5.041v-1.541c0-.276-.224-.5-.5-.5s-.5.224-.5.5v1.607c-1.113.089-2.146.22-3 .35v-1.457c0-.276-.224-.5-.5-.5s-.5.224-.5.5v1.62c-.735.129-1.204.23-1.258.242-.19.042-.339.19-.381.381-.012.054-.113.523-.241 1.257h-1.62c-.276 0-.5.224-.5.5s.224.5.5.5h1.457c-.13.854-.261 1.887-.35 3h-1.607c-.276 0-.5.224-.5.5s.224.5.5.5h1.541c-.025.495-.041.997-.041 1.5s.015 1.005.041 1.5h-1.541c-.276 0-.5.224-.5.5s.224.5.5.5h1.607c.089 1.113.22 2.146.35 3h-1.457c-.276 0-.5.224-.5.5s.224.5.5.5h1.62c.128.734.23 1.203.241 1.257.042.191.19.34.381.381.054.012.523.113 1.258.242v1.62c0 .276.224.5.5.5s.5-.224.5-.5v-1.457c.854.13 1.887.261 3 .35v1.607c0 .276.224.5.5.5s.5-.224.5-.5v-1.541c.495.025.997.041 1.5.041s1.005-.015 1.5-.041v1.541c0 .276.224.5.5.5s.5-.224.5-.5v-1.607c1.113-.089 2.146-.22 3-.35v1.457c0 .276.224.5.5.5s.5-.224.5-.5v-1.62c.735-.129 1.204-.23 1.258-.242.19-.042.339-.19.381-.381.012-.054.113-.523.241-1.257h1.62c.276 0 .5-.224.5-.5s-.224-.5-.5-.5h-1.457c.13-.854.261-1.887.35-3h1.607c.276 0 .5-.224.5-.5s-.224-.5-.5-.5zm-10.5 6.5c-3.064 0-6.233-.577-7.227-.773-.197-.993-.773-4.162-.773-7.227s.576-6.234.773-7.227c.992-.197 4.159-.773 7.227-.773s6.233.577 7.227.773c.197.993.773 4.162.773 7.227s-.576 6.234-.773 7.227c-.992.197-4.159.773-7.227.773zm4.411-10.594c-1.078-1.128-2.493-2.091-4.206-2.862-.131-.059-.279-.059-.41 0-1.713.771-3.128 1.734-4.206 2.862-.047.049-.083.106-.106.169-.02.052-.482 1.302-.482 3.425 0 2.097.256 3.089.267 3.13.044.165.168.296.33.349.066.021 1.656.521 4.403.521s4.337-.5 4.403-.521c.162-.052.286-.184.33-.349.011-.041.267-1.033.267-3.13 0-2.123-.463-3.373-.482-3.425-.023-.062-.06-.12-.106-.169zm-.59 6.194c-.547.133-1.881.399-3.821.399s-3.274-.266-3.821-.399c-.068-.405-.179-1.259-.179-2.601 0-1.615.292-2.676.388-2.981.937-.957 2.15-1.786 3.612-2.468 1.462.682 2.676 1.512 3.612 2.468.096.305.388 1.366.388 2.981 0 1.341-.11 2.196-.179 2.601z"/></svg>