<svg id="Layer_1" viewBox="0 0 24 24" xmlns="http://www.w3.org/2000/svg" data-name="Layer 1"><path d="m12.75 18c0 .414-.336.75-.75.75s-.75-.336-.75-.75.336-.75.75-.75.75.336.75.75zm-.75-9h-.003c-1.881 0-3.787.86-5.827 2.629-.208.181-.231.497-.05.706.182.209.498.231.706.05 1.851-1.605 3.542-2.385 5.172-2.385h.002c1.63 0 3.321.781 5.17 2.385.208.181.524.158.706-.05.181-.208.158-.524-.05-.706-2.039-1.768-3.944-2.628-5.825-2.629zm-3.305 5.301c-.219.168-.26.482-.092.701.168.218.482.261.701.092 1.917-1.473 3.474-1.473 5.391 0 .218.167.532.128.701-.092.168-.219.127-.533-.092-.701-2.279-1.751-4.33-1.751-6.609 0zm13.305.061c0 4.338-.515 7.068-.537 7.182-.035.18-.165.326-.338.382-.137.044-3.412 1.074-9.125 1.074s-8.988-1.03-9.125-1.074c-.174-.056-.304-.202-.338-.382-.022-.114-.537-2.844-.537-7.182 0-4.375.938-7.104.979-7.218.023-.067.061-.128.11-.18 2.228-2.33 5.157-4.322 8.706-5.92.13-.059.28-.059.41 0 3.549 1.598 6.478 3.59 8.706 5.92.049.052.087.113.11.18.04.114.979 2.843.979 7.218zm-1 0c0-3.74-.727-6.269-.89-6.789-2.086-2.157-4.813-4.015-8.11-5.524-3.297 1.509-6.024 3.367-8.11 5.524-.163.52-.89 3.049-.89 6.789 0 3.43.337 5.874.468 6.693.908.243 3.928.944 8.532.944s7.624-.701 8.532-.944c.131-.82.468-3.264.468-6.693z"/></svg>