<?xml version="1.0" encoding="UTF-8"?>
<svg xmlns="http://www.w3.org/2000/svg" id="Layer_1" data-name="Layer 1" viewBox="0 0 24 24">
  <path d="M14.857,15.13c-1.947,1.883-3.814,1.882-5.711,.004-.196-.194-.513-.192-.707,.003-.194,.196-.192,.513,.004,.708,1.15,1.139,2.341,1.709,3.537,1.709s2.397-.568,3.572-1.705c.198-.192,.204-.508,.012-.707-.19-.198-.508-.204-.707-.012Z"/>
  <path d="M9.636,11.308c0,.276,.224,.5,.5,.5s.5-.224,.5-.5c0-1.641-.904-2.927-2.058-2.927s-2.058,1.286-2.058,2.927c0,.276,.224,.5,.5,.5s.5-.224,.5-.5c0-1.135,.558-1.927,1.058-1.927s1.058,.792,1.058,1.927Z"/>
  <path d="M15.419,8.381c-1.153,0-2.058,1.286-2.058,2.927,0,.276,.224,.5,.5,.5s.5-.224,.5-.5c0-1.135,.558-1.927,1.058-1.927s1.058,.792,1.058,1.927c0,.276,.224,.5,.5,.5s.5-.224,.5-.5c0-1.641-.904-2.927-2.058-2.927Z"/>
  <path d="M11.997,1C4.894,1,1,5.16,1,12.009c0,6.996,3.771,10.991,11.003,10.991,7.164,0,10.864-3.74,10.997-11.009-.122-7.042-4.027-10.991-11.003-10.991Zm.006,21c-6.605-.039-9.877-3.31-10.003-10,.121-6.594,3.486-9.958,9.997-10,4.485,.029,9.861,1.79,10.003,9.991-.123,6.696-3.395,9.97-9.997,10.009Z"/>
</svg>
