<svg id="Layer_1" viewBox="0 0 24 24" xmlns="http://www.w3.org/2000/svg" data-name="Layer 1"><path d="m22.671 16.083c.013.038.329.942.329 2.417s-.315 2.38-.329 2.417c-.092.262-.384.395-.637.303-.26-.091-.396-.376-.306-.637.003-.008.271-.795.271-2.084s-.269-2.076-.271-2.084c-.09-.26.046-.545.306-.637.261-.093.544.043.637.303zm-3.125-.189c.019.041.454 1.017.454 2.607s-.436 2.566-.454 2.607c-.066.145-.197.25-.353.282-.119.025-2.98.611-8.693.611s-8.574-.586-8.693-.611c-.156-.033-.287-.137-.353-.282-.019-.041-.454-1.017-.454-2.607s.436-2.566.454-2.607c.066-.145.197-.25.353-.282.119-.025 2.98-.611 8.693-.611s8.574.586 8.693.611c.156.033.287.137.353.282zm-17.266 4.565c.668.113 2.599.39 5.72.496v-4.91c-3.12.106-5.052.382-5.72.496-.107.337-.28 1.022-.28 1.959s.172 1.622.28 1.959zm16.72-1.959c0-.937-.172-1.622-.28-1.959-.832-.141-3.593-.541-8.22-.541-.527 0-1.022.006-1.5.016v4.968c.478.009.973.016 1.5.016 4.627 0 7.388-.399 8.22-.541.108-.337.28-1.023.28-1.959zm3.5-5.5c.276 0 .5-.224.5-.5 0-2.903-2.005-3.458-3.617-3.903-.81-.224-1.575-.436-2.027-.893-.447-.452-.672-1.154-.911-1.897-.545-1.696-1.223-3.807-4.944-3.807-.276 0-.5.224-.5.5s.224.5.5.5c2.993 0 3.456 1.442 3.992 3.113.264.822.538 1.673 1.152 2.294.641.647 1.572.904 2.472 1.153 1.611.446 2.883.797 2.883 2.939 0 .276.224.5.5.5zm-14-7c3.299 0 3.809 1.571 4.399 3.391.287.884.583 1.798 1.248 2.462.195.195.512.195.707 0s.195-.512 0-.707c-.494-.494-.742-1.257-1.003-2.064-.59-1.819-1.325-4.083-5.35-4.083-.276 0-.5.224-.5.5s.224.5.5.5z"/></svg>