<svg id="Layer_1" viewBox="0 0 24 24" xmlns="http://www.w3.org/2000/svg" data-name="Layer 1"><path d="m18.82 10.116c.212.177.241.492.064.705-.178.213-.493.24-.705.064-.678-.565-.979-1.34-1.271-2.089-.56-1.438-1.088-2.795-4.409-2.795-.276 0-.5-.224-.5-.5s.224-.5.5-.5c4.004 0 4.745 1.903 5.34 3.433.268.688.5 1.283.98 1.683zm4.18 1.884c0 7.813-3.187 11-11 11s-11-3.187-11-11 3.187-11 11-11 11 3.187 11 11zm-11 10c3.333 0 5.714-.612 7.32-1.973l-7.171-7.171s-.005-.005-.008-.008l-8.168-8.168c-1.361 1.606-1.973 3.987-1.973 7.32 0 7.196 2.804 10 10 10zm4.565-6.142c1.121-.076 1.879-.164 2.247-.213.081-.224.188-.621.188-1.145s-.107-.919-.188-1.145c-.62-.083-2.326-.276-5.086-.336l2.84 2.84zm5.435-3.858c0-7.196-2.804-10-10-10-3.333 0-5.714.612-7.32 1.973l8.032 8.032c4.282.037 6.439.387 6.53.402.148.025.278.115.352.246.042.073.406.747.406 1.847s-.364 1.774-.406 1.847c-.074.131-.204.221-.352.246-.03.005-.613.1-1.744.197l2.53 2.53c1.361-1.606 1.973-3.987 1.973-7.32zm-9.5 3.999h-.5c-3.785.001-6.072-.255-6.812-.354-.081-.226-.188-.622-.188-1.145s.107-.921.188-1.145c.52-.07 1.805-.218 3.832-.298.276-.011.491-.244.479-.52s-.261-.514-.52-.479c-2.772.11-4.164.339-4.222.349-.148.025-.278.115-.352.246-.042.073-.406.747-.406 1.847s.364 1.774.406 1.847c.074.131.204.221.352.246.099.017 2.482.407 7.242.407h.503c.276-.003.499-.229.497-.504-.001-.275-.225-.497-.5-.497z"/></svg>