<svg id="Layer_1" viewBox="0 0 24 24" xmlns="http://www.w3.org/2000/svg" data-name="Layer 1"><path d="m22.5 8c-.505 0-1.026-.071-1.349-.125-.055-.322-.126-.843-.126-1.35 0-.276-.224-.5-.5-.5s-.5.224-.5.5c0 .672.106 1.343.168 1.673-.278.41-1.19 1.622-2.703 2.482.063-1.759-.318-3.208-1.056-4.091.044-.337.066-.699.066-1.089 0-3.112-1.388-4.5-4.5-4.5s-4.5 1.388-4.5 4.5c0 .39.022.753.066 1.089-.737.882-1.119 2.333-1.056 4.091-1.513-.86-2.425-2.073-2.703-2.482.061-.33.168-1.001.168-1.673 0-.276-.224-.5-.5-.5s-.5.224-.5.5c0 .505-.072 1.026-.126 1.35-.323.054-.844.125-1.349.125-.276 0-.5.224-.5.5s.224.5.5.5c.595 0 1.187-.083 1.546-.145.384.551 1.352 1.771 2.934 2.676-.661 1.082-.979 2.525-.979 4.469 0 4.907 2.093 7 7 7s7-2.093 7-7c0-1.944-.318-3.387-.979-4.469 1.581-.905 2.55-2.125 2.934-2.676.358.062.951.145 1.546.145.276 0 .5-.224.5-.5s-.224-.5-.5-.5zm-10.5-6c2.584 0 3.5.916 3.5 3.5s-.916 3.5-3.5 3.5-3.5-.916-3.5-3.5.916-3.5 3.5-3.5zm-4.064 5.908c.62 1.418 1.926 2.092 4.064 2.092s3.444-.674 4.064-2.092c.287.656.436 1.504.436 2.592 0 3.28-1.22 4.5-4.5 4.5s-4.5-1.22-4.5-4.5c0-1.088.15-1.936.436-2.592zm4.064 14.092c-4.374 0-6-1.626-6-6 0-1.588.219-2.785.678-3.681.494 2.543 2.15 3.681 5.322 3.681s4.828-1.138 5.322-3.681c.458.896.678 2.093.678 3.681 0 4.374-1.626 6-6 6z"/></svg>