<?xml version="1.0" encoding="UTF-8"?>
<svg xmlns="http://www.w3.org/2000/svg" id="Layer_1" data-name="Layer 1" viewBox="0 0 24 24">
  <path d="M22.731,5.632l-1.429-.745,1.429-.745c.244-.127,.34-.43,.212-.674-.128-.246-.429-.34-.675-.212l-1.549,.807v-1.747c0-.276-.224-.5-.5-.5s-.5,.224-.5,.5v1.747l-1.549-.807c-.245-.126-.547-.033-.675,.212-.128,.245-.032,.547,.212,.674l1.429,.745-1.429,.745c-.244,.127-.34,.43-.212,.674,.089,.171,.264,.269,.443,.269,.078,0,.157-.018,.231-.057l1.549-.807v1.748c0,.276,.224,.5,.5,.5s.5-.224,.5-.5v-1.748l1.549,.807c.074,.039,.153,.057,.231,.057,.18,0,.354-.098,.443-.269,.128-.245,.032-.547-.212-.674Z"/>
  <path d="M16.001,12.329c.316,0,.666-.036,1.048-.122,.27-.06,.438-.328,.379-.597-.061-.269-.323-.44-.598-.378-1.398,.314-2.152-.214-2.371-.404-.062-.291-.152-1.206,.796-2.274,.184-.207,.164-.523-.042-.706-.207-.184-.522-.166-.706,.042-1.083,1.222-1.132,2.359-1.056,2.951l-1.624,.957c-.517-.632-1.261-1.074-2.107-1.2v-1.892c.548-.235,1.503-.854,2.005-2.408,.085-.263-.06-.545-.322-.629-.262-.086-.544,.06-.629,.322-.44,1.363-1.277,1.748-1.553,1.84-.281-.094-1.115-.48-1.554-1.84-.085-.263-.366-.406-.629-.323-.263,.085-.407,.367-.322,.629,.501,1.555,1.456,2.173,2.004,2.409v1.892c-.845,.126-1.589,.568-2.106,1.2l-1.624-.956c.076-.591,.028-1.729-1.057-2.951-.184-.208-.499-.226-.706-.042-.206,.184-.226,.5-.042,.706,.95,1.071,.857,1.988,.798,2.272-.219,.188-.986,.717-2.373,.406-.271-.062-.536,.109-.598,.379-.06,.269,.109,.537,.379,.597,.383,.085,.731,.122,1.048,.122,1.004,0,1.679-.359,2.044-.627l1.621,.955c-.158,.389-.245,.813-.245,1.258s.087,.869,.245,1.257l-1.621,.955c-.481-.353-1.5-.862-3.091-.507-.27,.061-.438,.328-.379,.598,.061,.269,.319,.438,.598,.379,1.39-.315,2.152,.214,2.372,.404,.062,.29,.151,1.206-.797,2.274-.184,.206-.164,.522,.042,.706,.096,.084,.214,.126,.332,.126,.138,0,.275-.057,.374-.168,1.085-1.222,1.133-2.36,1.057-2.951l1.624-.956c.517,.632,1.261,1.074,2.106,1.2v1.891c-.548,.235-1.502,.855-2.004,2.41-.085,.263,.06,.544,.322,.629,.263,.086,.544-.06,.629-.322,.439-1.362,1.276-1.748,1.552-1.841,.281,.095,1.115,.482,1.555,1.841,.068,.212,.265,.347,.476,.347,.051,0,.103-.008,.153-.024,.263-.085,.407-.366,.322-.629-.502-1.555-1.457-2.174-2.005-2.41v-1.891c.846-.126,1.589-.567,2.107-1.2l1.624,.957c-.075,.592-.027,1.73,1.056,2.951,.099,.111,.236,.168,.374,.168,.118,0,.236-.042,.332-.126,.206-.184,.226-.499,.042-.706-.95-1.07-.856-1.988-.797-2.272,.225-.195,.981-.719,2.372-.406,.274,.06,.537-.109,.598-.379,.06-.27-.109-.537-.379-.598-1.593-.355-2.61,.154-3.091,.507l-1.62-.955c.158-.388,.245-.813,.245-1.257s-.087-.869-.245-1.258l1.62-.955c.365,.268,1.04,.627,2.043,.627Zm-6.781,3.938c-1.303,0-2.362-1.056-2.362-2.354s1.06-2.354,2.362-2.354,2.363,1.056,2.363,2.354-1.061,2.354-2.363,2.354Z"/>
</svg>
