<svg id="Layer_1" viewBox="0 0 24 24" xmlns="http://www.w3.org/2000/svg" data-name="Layer 1"><path d="m9.9 5.2c.166.221.121.534-.1.7-.09.067-.195.1-.299.1-.152 0-.302-.069-.4-.2-.903-1.204-1.948-2.289-3.1-3.253v19.953c0 .276-.224.5-.5.5s-.5-.224-.5-.5v-19.953c-1.152.964-2.197 2.049-3.1 3.253-.167.222-.479.265-.7.1-.221-.166-.266-.479-.1-.7 1.165-1.554 2.545-2.934 4.099-4.1.178-.134.422-.134.6 0 1.555 1.166 2.934 2.545 4.1 4.1zm12.738 10.542c.015.067.362 1.666.362 3.257s-.347 3.19-.362 3.257c-.042.19-.19.339-.381.381-.067.015-1.666.362-3.257.362s-3.19-.347-3.257-.362c-.19-.042-.339-.19-.381-.381-.015-.067-.362-1.666-.362-3.257s.347-3.19.362-3.257c.042-.19.19-.339.381-.381.067-.015 1.666-.362 3.257-.362s3.19.347 3.257.362c.19.042.339.19.381.381zm-.638 3.257c0-1.079-.178-2.193-.276-2.724-.531-.098-1.645-.276-2.724-.276s-2.193.178-2.724.276c-.098.531-.276 1.645-.276 2.724s.178 2.193.276 2.724c.531.098 1.645.276 2.724.276s2.193-.178 2.724-.276c.098-.531.276-1.645.276-2.724zm-4-8c-2.031 0-4.071-.443-4.157-.462-.19-.042-.339-.19-.381-.381-.019-.086-.462-2.126-.462-4.157s.443-4.071.462-4.157c.042-.19.19-.339.381-.381.086-.019 2.126-.462 4.157-.462s4.071.443 4.157.462c.19.042.339.19.381.381.019.086.462 2.126.462 4.157s-.443 4.071-.462 4.157c-.042.19-.19.339-.381.381-.086.019-2.126.462-4.157.462zm-3.625-1.375c.642.122 2.158.375 3.625.375s2.983-.253 3.625-.375c.122-.642.375-2.158.375-3.625s-.253-2.983-.375-3.625c-.642-.122-2.158-.375-3.625-.375s-2.983.253-3.625.375c-.122.642-.375 2.158-.375 3.625s.253 2.983.375 3.625z"/></svg>