<?xml version="1.0" encoding="UTF-8"?>
<svg xmlns="http://www.w3.org/2000/svg" id="Layer_1" data-name="Layer 1" viewBox="0 0 24 24">
  <g>
    <path d="M17.628,8.783c-1.834,0-3.038-.797-3.088-.831-.208-.14-.28-.414-.168-.638,.021-.042,.537-1.055,2.26-2.865,.912-.958,1.986-1.705,2.719-2.158-.436-.151-1.026-.292-1.723-.292-1.281,0-2.3,.657-2.311,.663-.229,.152-.54,.087-.691-.143s-.089-.539,.141-.691c.052-.034,1.271-.829,2.861-.829,1.823,0,3.035,.796,3.086,.83,.147,.099,.231,.268,.221,.445s-.114,.335-.272,.416c-.02,.01-1.907,.978-3.306,2.447-.979,1.028-1.541,1.777-1.831,2.206,.434,.192,1.173,.439,2.103,.439,1.333,0,2.289-.649,2.298-.656,.227-.157,.538-.101,.695,.125,.158,.226,.104,.536-.122,.694-.049,.034-1.211,.836-2.871,.836Z"/>
    <path d="M7.491,1.031c-.118-.043-.265-.039-.351,0-.18,.082-2.355,.913-4.057,4.213-.126,.245-.03,.547,.215,.673,.245,.126,.547,.031,.673-.215,.966-1.873,2.127-2.874,2.844-3.355V22.5c0,.276,.224,.5,.5,.5s.5-.224,.5-.5V2.348c.718,.481,1.878,1.482,2.843,3.354,.127,.246,.429,.344,.673,.215,.246-.126,.342-.428,.215-.673C9.846,1.944,7.587,1.067,7.491,1.031Z"/>
  </g>
  <path d="M14.729,22.997c.266,.03,.521-.168,.551-.443,.068-.626,.18-1.211,.318-1.755h4.058c.139,.544,.25,1.129,.318,1.755,.028,.256,.245,.437,.497,.446,.308,.011,.527-.28,.498-.554-.485-4.43-2.879-6.969-2.981-7.075-.188-.196-.533-.196-.722,0-.102,.106-2.495,2.646-2.98,7.075-.03,.274,.168,.521,.443,.551Zm2.898-6.495c.437,.576,1.181,1.705,1.73,3.297h-3.46c.549-1.593,1.293-2.721,1.73-3.297Z"/>
</svg>
