<?xml version="1.0" encoding="UTF-8"?>
<svg xmlns="http://www.w3.org/2000/svg" id="Layer_1" data-name="Layer 1" viewBox="0 0 24 24">
  <g>
    <path d="M11.333,18.082c-.245-.126-.547-.031-.673,.215-.966,1.873-2.127,2.874-2.844,3.355V1.5c0-.276-.224-.5-.5-.5s-.5,.224-.5,.5V21.652c-.718-.481-1.878-1.482-2.843-3.354-.127-.246-.429-.344-.673-.215-.246,.126-.342,.428-.215,.673,1.702,3.3,3.961,4.178,4.057,4.213,.118,.043,.265,.039,.351,0,.18-.082,2.355-.913,4.057-4.213,.126-.245,.03-.547-.215-.673Z"/>
    <path d="M14.541,7.953c.05,.034,1.253,.831,3.087,.831,1.661,0,2.824-.802,2.872-.836,.226-.159,.281-.47,.122-.696-.158-.226-.47-.282-.696-.122-.009,.006-.949,.655-2.298,.655-.93,0-1.668-.247-2.102-.439,.29-.428,.851-1.177,1.831-2.206,1.398-1.469,3.287-2.438,3.305-2.447,.159-.081,.262-.239,.273-.416s-.074-.347-.221-.445c-.051-.034-1.262-.83-3.086-.83-1.59,0-2.809,.795-2.86,.829-.23,.152-.293,.463-.141,.693,.152,.23,.461,.293,.693,.141,.01-.007,1.016-.663,2.309-.663,.696,0,1.288,.14,1.723,.292-.732,.453-1.807,1.2-2.719,2.158-1.724,1.811-2.238,2.823-2.259,2.865-.112,.225-.041,.498,.168,.638Z"/>
  </g>
  <path d="M14.729,22.994c.266,.03,.521-.168,.551-.443,.068-.626,.18-1.211,.318-1.755h4.058c.139,.544,.25,1.129,.318,1.755,.028,.256,.245,.437,.497,.446,.308,.011,.527-.28,.498-.554-.485-4.43-2.879-6.969-2.981-7.075-.188-.196-.533-.196-.722,0-.102,.106-2.495,2.646-2.98,7.075-.03,.274,.168,.521,.443,.551Zm2.898-6.495c.437,.576,1.181,1.705,1.73,3.297h-3.46c.549-1.593,1.293-2.721,1.73-3.297Z"/>
</svg>
