<svg id="Layer_1" viewBox="0 0 24 24" xmlns="http://www.w3.org/2000/svg" data-name="Layer 1"><path d="m17.407 9.687c.209.276.045.71-.294.778-.095.021-2.35.535-5.111.535s-5.019-.514-5.114-.535c-.339-.069-.504-.503-.294-.778 1.327-1.855 3.014-3.365 5.156-4.618.156-.092.349-.092.505 0 2.139 1.251 3.824 2.762 5.153 4.618zm-.295 3.848c-.095-.021-2.35-.535-5.111-.535s-5.019.514-5.114.535c-.339.069-.504.503-.294.778 1.327 1.855 3.014 3.365 5.156 4.618.156.091.349.091.505 0 2.139-1.251 3.824-2.762 5.153-4.618.209-.276.045-.71-.294-.778zm5.888-1.535c0 7.813-3.187 11-11 11s-11-3.187-11-11 3.187-11 11-11 11 3.187 11 11zm-1 0c0-7.196-2.804-10-10-10s-10 2.804-10 10 2.804 10 10 10 10-2.804 10-10z"/></svg>