<?xml version="1.0" encoding="UTF-8"?>
<svg xmlns="http://www.w3.org/2000/svg" id="Layer_1" data-name="Layer 1" viewBox="0 0 24 24">
  <path d="M14.733,5.291c.387,.004,.718,.345,.725,.744,.002,.226-.103,.476-.276,.652-.078,.08-.241,.215-.448,.217-.276,.002-.498,.229-.495,.505,.002,.274,.226,.495,.5,.495h.005c.421-.004,.831-.188,1.153-.517,.357-.365,.567-.875,.562-1.366-.015-.945-.784-1.721-1.716-1.73-.142,0-.276-.062-.379-.169-.116-.123-.178-.294-.169-.469,.021-.404,.316-.731,.547-.733,.276-.001,.499-.227,.497-.503-.002-.276-.224-.503-.503-.497-.788,.004-1.494,.774-1.54,1.684-.021,.446,.139,.885,.441,1.205,.291,.308,.681,.479,1.097,.483Z"/>
  <path d="M9.083,4.451c.387,.004,.718,.345,.725,.744,.002,.226-.103,.476-.276,.652-.079,.08-.241,.215-.449,.217-.276,.002-.498,.229-.495,.505,.002,.274,.226,.495,.5,.495h.005c.421-.004,.831-.188,1.153-.517,.357-.365,.567-.875,.562-1.366-.015-.945-.784-1.721-1.716-1.73-.142,0-.277-.062-.379-.17-.116-.123-.177-.293-.168-.468,.02-.405,.315-.731,.547-.733,.276-.001,.499-.227,.497-.503-.002-.276-.229-.492-.503-.497-.789,.004-1.494,.775-1.54,1.683-.022,.446,.139,.885,.44,1.205,.291,.309,.681,.48,1.098,.483Z"/>
  <path d="M22.634,11.092c-.194-.054-4.824-1.322-10.634-1.322S1.561,11.038,1.366,11.092c-.216,.061-.366,.257-.366,.482v4.335c0,3.316,3.086,7.011,7.515,7.011h6.97c4.496,0,7.515-3.625,7.515-7.011v-4.335c0-.225-.15-.421-.366-.482Zm-.634,4.817c0,2.902-2.618,6.011-6.515,6.011h-6.97c-3.839,0-6.515-3.168-6.515-6.011v-3.948c1.205-.296,5.24-1.192,10-1.192s8.794,.896,10,1.192v3.947Z"/>
</svg>
