<svg id="Layer_1" viewBox="0 0 24 24" xmlns="http://www.w3.org/2000/svg" data-name="Layer 1"><path d="m19 17c-1.907 0-3 1.093-3 3s1.093 3 3 3 3-1.093 3-3-1.093-3-3-3zm0 5c-1.346 0-2-.654-2-2s.654-2 2-2 2 .654 2 2-.654 2-2 2zm3.8-9.9c-.22-.165-.533-.122-.7.1-.328.437-.703.832-1.1 1.205v-3.748c.13-.027.221-.048.235-.052.186-.044.331-.191.372-.378.016-.072.393-1.79.393-3.728 0-.695-.067-1.488-.133-1.912-.018-.112-.072-.214-.155-.291l-2.251-2.073c-.067-.062-.15-.104-.24-.123-.335-.068-.746-.102-1.221-.102-1.565 0-3.168.378-3.235.395-.186.044-.331.191-.372.378-.016.072-.393 1.79-.393 3.728s.377 3.655.393 3.728c.042.187.186.333.372.378.067.016 1.67.395 3.235.395.71 0 1.421-.078 2-.165v3.57c-.397-.373-.773-.768-1.1-1.205-.166-.221-.479-.266-.7-.1s-.266.479-.1.7c.597.797 1.303 1.503 2.1 2.1.178.134.422.134.6 0 .797-.597 1.503-1.303 2.1-2.1.166-.221.121-.534-.1-.7zm-7.492-3.401c-.105-.568-.308-1.841-.308-3.199s.203-2.631.308-3.2c.524-.106 1.633-.3 2.692-.3.339 0 .644.02.89.059l2.012 1.854c.051.404.098 1.036.098 1.588 0 1.358-.203 2.631-.308 3.2-.524.106-1.633.3-2.692.3s-2.167-.195-2.692-.301zm-3.508 9.401c-.22-.165-.534-.12-.7.1-.166.221-.121.534.1.7.437.328.832.703 1.205 1.1h-3.475c.041-.466.07-.973.07-1.5 0-.695-.067-1.488-.133-1.912-.018-.112-.072-.214-.155-.291l-2.251-2.073c-.067-.062-.15-.104-.24-.123-.335-.068-.746-.102-1.221-.102-1.565 0-3.168.378-3.235.395-.186.044-.331.191-.372.378-.016.072-.393 1.79-.393 3.728s.377 3.655.393 3.728c.042.187.186.333.372.378.067.016 1.67.395 3.235.395s3.168-.378 3.235-.395c.186-.044.331-.191.372-.378.008-.037.111-.514.21-1.228h3.588c-.373.397-.768.773-1.205 1.1-.221.166-.266.479-.1.7.166.223.481.265.7.1.797-.597 1.503-1.303 2.1-2.1.133-.178.133-.422 0-.6-.597-.797-1.303-1.503-2.1-2.1zm-6.8 3.9c-1.057 0-2.167-.195-2.692-.301-.105-.568-.308-1.841-.308-3.199s.203-2.631.308-3.2c.524-.106 1.633-.3 2.692-.3.339 0 .644.02.89.059l2.012 1.854c.051.404.098 1.036.098 1.588 0 1.358-.203 2.631-.308 3.2-.524.106-1.633.3-2.692.3zm9.329-9.924c-.273.039-.463.292-.424.566.078.541.091 1.085.074 1.629l-5.316-5.316c.107-.56.338-1.933.338-3.455 0-.695-.067-1.488-.133-1.912-.018-.112-.072-.214-.155-.291l-2.251-2.073c-.067-.062-.15-.104-.24-.123-.335-.068-.746-.102-1.221-.102-1.565 0-3.168.378-3.235.395-.186.044-.331.191-.372.378-.016.072-.393 1.79-.393 3.728s.377 3.655.393 3.728c.042.187.186.333.372.378.067.016 1.67.395 3.235.395 1.207 0 2.429-.224 2.959-.334l5.313 5.313c-.544.016-1.089.003-1.629-.074-.274-.036-.527.151-.566.424s.151.527.424.566c.493.07.989.105 1.485.105s.992-.035 1.485-.105c.22-.032.393-.205.424-.424.141-.985.141-1.984 0-2.97-.039-.274-.297-.468-.566-.424zm-12.021-3.377c-.105-.568-.308-1.841-.308-3.199s.203-2.631.308-3.2c.524-.106 1.633-.3 2.692-.3.339 0 .644.02.89.059l2.012 1.854c.051.404.098 1.036.098 1.588 0 1.358-.203 2.631-.308 3.2-.524.106-1.633.3-2.692.3s-2.167-.195-2.692-.301z"/></svg>