<?xml version="1.0" encoding="UTF-8"?>
<svg xmlns="http://www.w3.org/2000/svg" id="Layer_1" data-name="Layer 1" viewBox="0 0 24 24">
  <path d="M16.971,14.186c2.705-.556,4.243-1.868,4.243-3.738,0-2.293-2.313-3.747-6.258-3.997,.615-.553,.96-1.321,.96-2.244,0-1.978-1.496-3.207-3.905-3.207-2.372,0-3.905,1.259-3.905,3.207,0,1.217,.567,2.151,1.565,2.689-2.231,.633-3.482,1.866-3.482,3.553,0,1.436,.907,2.543,2.554,3.232-3.781,.538-5.957,2.159-5.957,4.562,0,2.979,3.345,4.758,8.947,4.758s8.946-1.779,8.946-4.758c0-1.877-1.327-3.277-3.709-4.056ZM9.106,4.207c0-1.382,1.086-2.207,2.905-2.207,.874,0,2.905,.215,2.905,2.207,0,1.381-1.086,2.206-2.905,2.206-.874,0-2.905-.215-2.905-2.206Zm-1.917,6.241c0-1.872,2.495-3.035,6.512-3.035s6.513,1.163,6.513,3.035-2.496,3.036-6.513,3.036-6.512-1.163-6.512-3.036Zm4.544,11.552c-4.902,0-7.947-1.44-7.947-3.758s3.045-3.758,7.947-3.758,7.946,1.44,7.946,3.758-3.045,3.758-7.946,3.758Z"/>
</svg>
