<svg id="Layer_1" viewBox="0 0 24 24" xmlns="http://www.w3.org/2000/svg" data-name="Layer 1"><path d="m12 2c-7.813 0-11 3.187-11 11v7.333c0 .235.164.438.393.488.054.012 5.428 1.178 10.607 1.178s10.554-1.167 10.607-1.178c.229-.05.393-.253.393-.488v-7.333c0-7.813-3.187-11-11-11zm0 1c4.854 0 7.704 1.283 9.048 4.323-1.094.22-5.135.977-9.048.977s-7.954-.757-9.048-.977c1.344-3.039 4.194-4.323 9.048-4.323zm6 10.025v7.55c-.924.119-1.942.228-3 .307v-3.882c0-2.075-.925-3-3-3s-3 .925-3 3v3.881c-1.058-.078-2.076-.187-3-.306v-7.55c0-1.612.146-2.958.43-4.123 1.648.214 3.622.398 5.57.398s3.923-.184 5.57-.398c.284 1.164.43 2.51.43 4.123zm-16-.025c0-1.864.193-3.427.597-4.729.367.076 1.412.284 2.839.494-.287 1.22-.436 2.613-.436 4.26v7.413c-1.375-.2-2.455-.403-3-.511v-6.926zm8 7.944v-3.944c0-1.514.486-2 2-2s2 .486 2 2v3.944c-.662.034-1.332.056-2 .056s-1.338-.022-2-.056zm12-1.018c-.545.109-1.625.311-3 .511v-7.413c0-1.649-.149-3.041-.435-4.26 1.427-.211 2.471-.418 2.839-.494.404 1.302.596 2.866.596 4.729v6.926z"/></svg>