<svg id="Layer_1" viewBox="0 0 24 24" xmlns="http://www.w3.org/2000/svg" data-name="Layer 1"><path d="m22.598 13.51c-1.879-.376-3.735-.478-4.768-.504-.273-1.827-.904-3.203-1.958-4.171l1.284-1.284c1.216.986 2.97 1.449 5.344 1.449.276 0 .5-.224.5-.5s-.224-.5-.5-.5c-4.738 0-6.5-1.762-6.5-6.5 0-.276-.224-.5-.5-.5s-.5.224-.5.5c0 2.374.463 4.128 1.449 5.344l-1.38 1.38c-1.24-.774-2.912-1.16-5.069-1.212v-1.512c0-.276-.224-.5-.5-.5s-.5.224-.5.5v1.513c-5.74.132-8 2.544-8 8.487v5.833c0 .235.163.438.393.488.017.009 5.256 1.125 10.161 1.175 4.82.111 11.177-1.175 11.054-1.175.229-.05.393-.253.393-.488v-7.333c0-.238-.168-.443-.402-.49zm-11.598 5.49v2.986c-3.939-.109-7.786-.817-9-1.06v-5.426c0-5.538 1.963-7.5 7.5-7.5 4.64 0 6.739 1.419 7.32 5.01-4.069.054-5.82 1.848-5.82 5.99zm11 1.926c-1.317.263-5.73 1.074-10 1.074v-3c0-3.645 1.355-5 5.009-5 .786 0 2.679.012 4.991.414zm-14.543-5.764c-.03-.007-.744-.162-1.457-.162s-1.427.155-1.457.162c-.19.042-.339.19-.381.381-.007.03-.162.745-.162 1.458s.155 1.427.162 1.458c.042.19.19.339.381.381.03.007.744.162 1.457.162s1.427-.155 1.457-.162c.19-.042.339-.19.381-.381.007-.03.162-.745.162-1.458s-.155-1.427-.162-1.458c-.042-.19-.19-.339-.381-.381zm-.537 2.758c-.482.076-1.357.076-1.84 0-.038-.241-.08-.586-.08-.92s.042-.679.08-.92c.482-.076 1.357-.076 1.84 0 .038.241.08.586.08.92s-.042.679-.08.92z"/></svg>