<?xml version="1.0" encoding="UTF-8"?>
<svg xmlns="http://www.w3.org/2000/svg" id="Layer_1" data-name="Layer 1" viewBox="0 0 24 24">
  <path d="M22.367,11.818c-.071-.184-1.822-4.495-7.977-4.495h-1.967c-.683-2.193-1.854-4.986-3.633-6.232-.084-.06-.185-.091-.287-.091h-2.966c-.136,0-.266,.055-.36,.152-.032,.034-.806,.849-1.503,2.759-.095,.26,.039,.547,.298,.642,.259,.093,.546-.039,.641-.298,.456-1.249,.937-1.965,1.159-2.255h2.567c1.13,.868,2.196,2.741,3.034,5.323H2.847c-.198,0-.377,.116-.457,.298-.032,.072-.791,1.814-.791,4.379,0,2.592,.76,4.311,.792,4.382,.081,.18,.259,.295,.456,.295H11.374c-.838,2.583-1.903,4.455-3.034,5.323h-2.567c-.223-.291-.703-1.007-1.159-2.255-.095-.259-.382-.392-.641-.298-.259,.095-.393,.382-.298,.642,.698,1.91,1.471,2.725,1.503,2.759,.094,.098,.224,.152,.36,.152h2.966c.103,0,.203-.031,.287-.091,1.779-1.246,2.95-4.039,3.633-6.232h1.967c6.184,0,7.907-4.314,7.978-4.498,.044-.116,.044-.244,0-.36Zm-9.668,3.858H6.451v-7.354h6.248c2.606,0,3.98,1.851,3.98,3.678,0,1.233-.838,3.676-3.98,3.676ZM2.599,12c0-1.756,.393-3.105,.592-3.677h2.26v7.354H3.19c-.199-.565-.591-1.904-.591-3.677Zm13.424,3.555c.112-.093,1.656-1.268,1.656-3.557,0-1.299-.58-2.645-1.679-3.557,3.615,.55,5.016,2.876,5.353,3.558-.333,.667-1.738,2.996-5.33,3.556Z"/>
</svg>
