<?xml version="1.0" encoding="UTF-8"?>
<svg xmlns="http://www.w3.org/2000/svg" id="Layer_1" data-name="Layer 1" viewBox="0 0 24 24">
  <path d="M18.534,4.259c-2.768-2.694-5.081-3.259-6.534-3.259s-3.767,.565-6.534,3.259C2,7.632,1.28,10.579,1.285,12.458c.006,1.869,.721,3.625,1.96,4.816,1.094,1.051,2.854,1.647,4.599,1.548,1.487-.082,2.746-.652,3.551-1.605-.133,1.924-.323,3.725-2.57,4.782h-1.626c-.276,0-.5,.224-.5,.5s.224,.5,.5,.5h9.602c.276,0,.5-.224,.5-.5s-.224-.5-.5-.5h-1.699c-2.213-1.042-2.373-2.855-2.498-4.785,1.386,1.678,3.799,1.617,3.922,1.617,1.619,0,3.213-.582,4.229-1.559,1.239-1.192,1.954-2.947,1.96-4.816,.005-1.878-.715-4.826-4.181-8.198Zm-5.241,17.741h-2.646c.693-.623,1.097-1.349,1.341-2.115,.234,.767,.625,1.494,1.306,2.115Zm6.769-5.447c-.887,.851-2.395,1.344-3.85,1.271-1.217-.067-2.23-.517-2.857-1.269l-.973-1.152c-.095-.112-.234-.177-.382-.177s-.287,.065-.382,.177l-.973,1.152s-.002,.002-.002,.002c-.625,.75-1.639,1.199-2.855,1.266-1.457,.079-2.963-.419-3.85-1.271-.495-.476-1.646-1.827-1.653-4.099-.007-2.417,1.334-5.003,3.878-7.479,2.527-2.46,4.569-2.976,5.837-2.976s3.31,.516,5.837,2.976c2.544,2.476,3.885,5.062,3.878,7.479-.007,2.271-1.158,3.623-1.653,4.099Z"/>
</svg>
