<svg id="Layer_1" viewBox="0 0 24 24" xmlns="http://www.w3.org/2000/svg" data-name="Layer 1"><path d="m21.5 18c-1.961.04-2.559-.803-2.5-2.698.676-.596 1-1.181 1-1.802s-.324-1.207-1.001-1.803c-.055-1.895.539-2.737 2.501-2.697.276 0 .5-.224.5-.5s-.224-.5-.5-.5c-2.237 0-3.316.937-3.469 2.987-.276-.175-.572-.352-.912-.533-.974-.52-1.898-.889-2.802-1.13.69-.908 1.638-2.288 2.363-3.411.248.052.514.087.82.087 1.706 0 2.5-.794 2.5-2.5s-.794-2.5-2.5-2.5-2.5.794-2.5 2.5c0 .941.252 1.596.755 2.002-.893 1.376-1.94 2.864-2.523 3.588-.825-.12-1.639-.119-2.464 0-.584-.724-1.63-2.212-2.524-3.589.504-.406.755-1.06.755-2.002 0-1.706-.794-2.5-2.5-2.5s-2.5.794-2.5 2.5.794 2.5 2.5 2.5c.306 0 .572-.035.82-.087.725 1.123 1.672 2.503 2.363 3.411-.904.241-1.828.61-2.802 1.13-.339.181-.635.358-.912.533-.153-2.05-1.232-2.987-3.469-2.987-.276 0-.5.224-.5.5s.224.5.5.5c1.962-.04 2.557.802 2.501 2.697-.677.596-1.001 1.181-1.001 1.803s.324 1.207 1 1.802c.059 1.895-.539 2.738-2.5 2.698-.276 0-.5.224-.5.5s.224.5.5.5c2.237 0 3.316-.937 3.469-2.987.276.175.572.352.912.533.745.397 1.457.692 2.157.927-.003 3.3-1.233 4.528-4.538 4.528-.276 0-.5.224-.5.5s.224.5.5.5c3.779 0 5.435-1.586 5.521-5.251.666.153 1.324.251 1.979.251s1.313-.099 1.979-.251c.086 3.664 1.743 5.251 5.521 5.251.276 0 .5-.224.5-.5s-.224-.5-.5-.5c-3.305 0-4.535-1.228-4.538-4.528.7-.235 1.412-.529 2.157-.926.339-.181.635-.358.912-.533.153 2.05 1.232 2.987 3.469 2.987.276 0 .5-.224.5-.5s-.224-.5-.5-.5zm-4-16c1.149 0 1.5.351 1.5 1.5s-.351 1.5-1.5 1.5-1.5-.351-1.5-1.5.351-1.5 1.5-1.5zm-12.5 1.5c0-1.149.351-1.5 1.5-1.5s1.5.351 1.5 1.5-.351 1.5-1.5 1.5-1.5-.351-1.5-1.5zm11.648 12.164c-3.346 1.784-5.951 1.785-9.297 0-1.561-.832-2.352-1.56-2.352-2.163s.791-1.331 2.352-2.164c1.673-.892 3.16-1.338 4.648-1.338s2.976.446 4.648 1.338c1.561.833 2.352 1.56 2.352 2.164s-.791 1.331-2.352 2.164z"/></svg>