<svg id="Layer_1" viewBox="0 0 24 24" xmlns="http://www.w3.org/2000/svg" data-name="Layer 1"><path d="m6 12c0 .165.002.327.007.485.008.275-.209.506-.485.515h-.016c-.269 0-.491-.214-.5-.485-.005-.168-.007-.34-.007-.515 0-4.906 2.093-7 7-7 1.002 0 1.855.082 2.609.251.27.061.439.328.378.598s-.328.439-.597.379c-.681-.153-1.463-.228-2.391-.228-4.374 0-6 1.626-6 6zm3 3c-.276 0-.5.224-.5.5 0 1.097-.629 3.5-2.5 3.5-.217 0-.361-.007-.5-.019.002-1.994.332-3.346.335-3.36.037-.149.003-.308-.092-.429s-.24-.192-.394-.192h-.008c-.258 0-.467.195-.493.446-.071.312-.349 1.651-.349 3.554 0 2.137.35 3.562.365 3.621.066.27.345.431.605.364.268-.067.431-.338.365-.606-.003-.011-.226-.945-.306-2.392.13.008.274.013.47.013.477 0 .901-.106 1.276-.285.301.357.905 1.24 1.234 2.883.053.273.324.447.588.393.271-.054.446-.317.392-.588-.304-1.524-.876-2.624-1.396-3.266.956-.931 1.406-2.439 1.406-3.637 0-.276-.224-.5-.5-.5zm7.5 2.5c0 2.203-1.769 2.5-3.5 2.5-.197 0-.342-.005-.473-.014.079 1.451.305 2.38.308 2.391.066.269-.097.539-.365.606-.261.066-.54-.094-.605-.364-.015-.06-.365-1.483-.365-3.619 0-1.9.277-3.237.348-3.55.025-.24.218-.433.465-.446.129-.008.812 0 .812 0 1.754.006 3.374.313 3.374 2.497zm-1 0c0-.926-.16-1.489-2.375-1.497l-.368-.003c-.099.535-.256 1.606-.257 2.981.138.012.283.019.5.019 2.316 0 2.5-.65 2.5-1.5zm1.854-10.854c.195.195.195.512 0 .707l-3.567 3.567c.137.291.213.646.213 1.08 0 1.346-.654 2-2 2s-2-.654-2-2 .654-2 2-2c.434 0 .788.076 1.08.213l3.567-3.567c.195-.195.512-.195.707 0zm-4.354 5.354c0-.794-.206-1-1-1s-1 .206-1 1 .206 1 1 1 1-.206 1-1zm-1-11c-7.813 0-11 3.187-11 11 0 1.354.093 2.528.286 3.589.049.271.307.445.582.403.271-.05.452-.31.403-.581-.182-1.002-.27-2.117-.27-3.411-.001-7.196 2.803-10 9.999-10s10 2.804 10 10c0 1.294-.088 2.409-.27 3.411-.049.271.131.531.403.581.266.049.533-.129.582-.403.192-1.061.286-2.235.286-3.589 0-7.813-3.187-11-11-11zm7.838 14.559c.048-.251-.174-.535-.43-.547-.239-.046-.48.137-.543.367-.015.06-.365 1.484-.365 3.621s.35 3.562.365 3.621c.066.27.345.431.605.364.268-.067.431-.338.365-.606-.003-.014-.335-1.374-.335-3.379.003-2.086.338-3.323.338-3.441zm-.846-3.044c.005-.168.007-.34.007-.515 0-1.002-.082-1.855-.251-2.609-.06-.269-.327-.434-.597-.379-.27.061-.439.328-.378.598.153.682.227 1.463.227 2.391 0 .165-.002.327-.007.485-.008.275.209.506.485.515h.016c.269 0 .491-.214.5-.485z"/></svg>