<svg id="Layer_1" viewBox="0 0 24 24" xmlns="http://www.w3.org/2000/svg" data-name="Layer 1"><path d="m19.541 8.979c-.457-.284-.735-.777-.745-1.318-.111-6.106-1.1-6.498-1.618-6.609-1.281-.274-3.522.585-6.154 2.608-.453.354-1.065.438-1.597.222-.549-.222-1.075-.463-1.578-.694-1.988-.91-3.705-1.695-5.149-.611-.386.29-1.561 1.172.959 6.892.236.535.159 1.156-.202 1.622-1.121 1.45-2.457 3.479-2.457 4.916 0 2.582 3.006 2.666 5.658 2.741l.593.017c.483.016.934.245 1.206.613 1.688 2.282 3.575 3.621 5.043 3.621.432 0 1.744.023 2.937-5.407.133-.604.59-1.068 1.194-1.213 2.761-.659 5.369-1.281 5.369-3.379 0-1.547-1.881-3.041-3.459-4.021zm-2.143 6.428c-.98.234-1.724.99-1.938 1.971-.748 3.407-1.586 4.623-1.965 4.623-1.12 0-2.779-1.25-4.234-3.218-.453-.612-1.191-.992-1.977-1.018l-.597-.018c-2.916-.082-4.686-.24-4.686-1.741 0-.887.819-2.456 2.248-4.304.584-.756.709-1.766.326-2.637-1.511-3.431-1.72-5.354-1.273-5.689.297-.223.628-.321 1.007-.321.795 0 1.796.433 3.125 1.042.516.236 1.056.483 1.618.711.863.35 1.854.211 2.588-.36 2.614-2.039 4.647-2.714 5.295-2.355.278.187.786 1.425.862 5.584.016.882.471 1.686 1.218 2.15 1.87 1.162 2.986 2.348 2.986 3.172 0 1.218-1.822 1.744-4.602 2.407z"/></svg>