<svg id="Layer_1" viewBox="0 0 24 24" xmlns="http://www.w3.org/2000/svg" data-name="Layer 1"><path d="m15.845 10.739c-.055-.028-1.296-.63-3.345-.721v-3.748c1.808-1.097 3.259-2.407 4.405-4.01.21-.275.045-.71-.294-.778-.085-.02-2.121-.482-4.611-.482s-4.527.463-4.613.482c-.339.067-.504.503-.294.778 1.145 1.601 2.597 2.91 4.407 4.01v3.748c-2.049.091-3.29.693-3.345.721-.135.068-.232.194-.264.343-.03.144-.75 3.614-.892 11.409-.005.275.215.504.491.509.305-.005.504-.215.509-.491.119-6.531.659-10.044.823-10.969.45-.176 1.577-.54 3.177-.54s2.727.364 3.177.54c.164.925.704 4.438.823 10.969.005.273.228.491.5.491h.009c.276-.005.496-.233.491-.509-.142-7.795-.861-11.266-.892-11.409-.031-.148-.129-.274-.264-.343zm-7.458-8.429c.799-.134 2.133-.31 3.613-.31s2.813.176 3.611.31c-.979 1.209-2.169 2.231-3.611 3.108-1.444-.878-2.634-1.9-3.613-3.108zm10.363 5.69c0 .414-.336.75-.75.75s-.75-.336-.75-.75.336-.75.75-.75.75.336.75.75zm1.5-2c0-.414.336-.75.75-.75s.75.336.75.75-.336.75-.75.75-.75-.336-.75-.75zm1.5 4c0 .414-.336.75-.75.75s-.75-.336-.75-.75.336-.75.75-.75.75.336.75.75zm-15-2c0 .414-.336.75-.75.75s-.75-.336-.75-.75.336-.75.75-.75.75.336.75.75zm-3-2c0 .414-.336.75-.75.75s-.75-.336-.75-.75.336-.75.75-.75.75.336.75.75zm0 4c0 .414-.336.75-.75.75s-.75-.336-.75-.75.336-.75.75-.75.75.336.75.75z"/></svg>