<svg id="Layer_1" viewBox="0 0 24 24" xmlns="http://www.w3.org/2000/svg" data-name="Layer 1"><path d="m12.951 12.696c-.11.151-.215.283-.324.427 2.006 2.56 3.675 3.978 3.694 3.993.211.177.239.492.062.704-.178.213-.493.238-.704.062-.077-.065-1.686-1.428-3.679-3.939-1.993 2.511-3.602 3.873-3.679 3.939-.211.176-.526.15-.704-.062s-.149-.527.062-.704c.019-.016 1.688-1.433 3.694-3.993-.109-.145-.214-.276-.324-.427-2.409-3.312-3.469-5.9-3.513-6.009-.104-.256.021-.547.276-.65.254-.107.547.02.651.275-.049-.068 1.295 3.01 3.536 5.984 2.233-2.956 3.605-6.087 3.536-5.984.104-.256.395-.378.651-.276.256.104.38.396.276.651-.044.108-1.104 2.697-3.513 6.009zm10.049-.696c0 4.667-1.051 9.509-1.062 9.558-.042.19-.19.339-.381.381-.049.011-4.891 1.062-9.558 1.062s-9.509-1.051-9.558-1.062c-.19-.042-.339-.19-.381-.381-.011-.049-1.062-4.891-1.062-9.558s1.053-9.509 1.064-9.558c.042-.19.19-.339.381-.381.049-.011 4.891-1.062 9.558-1.062s9.509 1.051 9.558 1.062c.19.042.339.19.381.381.011.049 1.062 4.891 1.062 9.558zm-1 0c0-3.879-.745-7.891-.973-9.027-1.137-.228-5.148-.973-9.027-.973s-7.891.745-9.027.973c-.228 1.137-.973 5.148-.973 9.027s.745 7.891.973 9.027c1.137.228 5.148.973 9.027.973s7.891-.745 9.027-.973c.228-1.137.973-5.148.973-9.027z"/></svg>