<svg id="Layer_1" viewBox="0 0 24 24" xmlns="http://www.w3.org/2000/svg" data-name="Layer 1"><path d="m21.938 2.442c-.042-.19-.19-.339-.381-.381-.049-.011-4.891-1.062-9.558-1.062s-9.508 1.052-9.557 1.063c-.19.042-.339.19-.381.381-.011.049-1.062 4.891-1.062 9.558s1.051 9.509 1.062 9.558c.042.19.19.339.381.381.049.011 4.891 1.062 9.558 1.062s9.509-1.051 9.558-1.062c.19-.042.339-.19.381-.381.011-.049 1.062-4.891 1.062-9.558s-1.051-9.509-1.062-9.558zm-.911 18.585c-1.137.228-5.148.973-9.027.973s-7.891-.745-9.027-.973c-.228-1.137-.973-5.148-.973-9.027s.745-7.891.973-9.027c1.137-.228 5.148-.973 9.027-.973s7.891.745 9.027.973c.228 1.137.973 5.148.973 9.027s-.745 7.891-.973 9.027zm-10.965-12.854c-.083-.018-.827-.173-1.562-.173s-1.479.155-1.565.174c-.378.084-.677.383-.762.764-.018.083-.173.827-.173 1.562s.155 1.479.174 1.565c.084.378.383.677.764.762.083.018.827.173 1.562.173.637 0 1.28-.116 1.495-.159-.061 1.563-.679 2.003-1.584 2.167-.271.05-.452.31-.403.581.048.274.316.452.581.403 2.161-.392 2.411-2.135 2.411-3.413v-2.079c0-.735-.155-1.479-.174-1.565-.084-.378-.383-.677-.764-.762zm-.062 3.667c-.251-.003-.683.156-1.5.16-.644 0-1.323-.145-1.349-.148-.007-.028-.151-.708-.151-1.352s.145-1.323.148-1.349c.028-.007.708-.151 1.352-.151s1.323.145 1.349.148c.007.028.151.708.151 1.352zm7.062-3.667c-.083-.018-.827-.173-1.562-.173s-1.479.155-1.565.174c-.378.084-.677.383-.762.764-.018.083-.173.827-.173 1.562s.155 1.479.174 1.565c.084.378.383.677.764.762.083.018.827.173 1.562.173.637 0 1.28-.116 1.495-.159-.061 1.563-.679 2.003-1.584 2.167-.271.05-.452.31-.403.581.048.274.316.452.581.403 2.161-.392 2.411-2.135 2.411-3.413v-2.079c0-.735-.155-1.479-.174-1.565-.084-.378-.383-.677-.764-.762zm-.062 3.667c-.251-.003-.683.156-1.5.16-.644 0-1.323-.145-1.349-.148-.007-.028-.151-.708-.151-1.352s.145-1.323.148-1.349c.028-.007.708-.151 1.352-.151s1.323.145 1.349.148c.007.028.151.708.151 1.352z"/></svg>