<svg id="Layer_1" viewBox="0 0 24 24" xmlns="http://www.w3.org/2000/svg" data-name="Layer 1"><path d="m13.166 12.12c.805.776 2.231 2.482 2.824 5.276.057.27-.115.535-.385.593-.264.057-.536-.113-.593-.386-.603-2.84-2.138-4.423-2.771-4.98-.59.239-1.253.376-1.989.376-.395 0-.863.005-1.229-.02.096 2.639.541 4.373.546 4.392.07.267-.089.541-.355.611-.26.07-.541-.085-.611-.355-.024-.092-.6-2.301-.6-5.628 0-3.005.47-5.099.579-5.543.021-.256.23-.457.492-.457.323-.016.587.317.497.628-.006.021-.564 2.176-.566 5.35.359.027.804.022 1.25.022 3.356 0 4.75-3.582 4.75-5.5 0-.276.224-.5.5-.5s.5.224.5.5c0 1.851-.917 4.324-2.834 5.62zm9.834-.12c0 4.667-1.051 9.509-1.062 9.558-.042.19-.19.339-.381.381-.048.011-4.891 1.062-9.557 1.062s-9.509-1.051-9.557-1.062c-.191-.042-.34-.19-.381-.381-.011-.049-1.062-4.891-1.062-9.558s1.051-9.509 1.062-9.558c.042-.19.19-.339.381-.381.048-.011 4.891-1.062 9.557-1.062s9.509 1.051 9.557 1.062c.191.042.34.19.381.381.011.049 1.062 4.891 1.062 9.558zm-1 0c0-3.879-.745-7.891-.973-9.027-1.136-.228-5.148-.973-9.027-.973s-7.891.745-9.027.973c-.228 1.137-.973 5.148-.973 9.027s.745 7.891.973 9.027c1.136.228 5.148.973 9.027.973s7.891-.745 9.027-.973c.228-1.137.973-5.148.973-9.027z"/></svg>