<svg id="Layer_1" viewBox="0 0 24 24" xmlns="http://www.w3.org/2000/svg" data-name="Layer 1"><path d="m16.436 6.379c.022.092.564 2.298.564 5.621s-.542 5.529-.564 5.621c-.066.27-.345.43-.606.364-.268-.067-.431-.339-.364-.606.006-.02.472-1.965.525-4.866-.635-.152-2.316-.513-3.99-.513s-3.348.328-3.991.469c.049 2.934.521 4.889.525 4.91.067.268-.096.539-.364.606-.261.066-.54-.094-.606-.364-.023-.092-.565-2.298-.565-5.621s.542-5.529.565-5.621c.067-.268.334-.432.606-.364.268.066.431.338.364.606-.005.02-.468 1.947-.524 4.825.795-.166 2.375-.446 3.989-.446s3.19.305 3.99.486c-.053-2.909-.519-4.845-.525-4.865-.066-.268.097-.539.364-.606.271-.069.539.095.606.364zm6.564 5.621c0 4.667-1.051 9.509-1.062 9.558-.042.19-.19.339-.381.381-.049.011-4.891 1.062-9.558 1.062s-9.509-1.051-9.557-1.062c-.191-.042-.34-.19-.381-.381-.011-.049-1.062-4.891-1.062-9.558s1.052-9.509 1.063-9.557c.042-.191.19-.34.381-.381.048-.011 4.891-1.062 9.557-1.062s9.509 1.051 9.558 1.062c.19.042.339.19.381.381.011.048 1.062 4.891 1.062 9.557zm-1 0c0-3.879-.745-7.891-.973-9.027-1.137-.228-5.148-.973-9.027-.973s-7.891.745-9.027.973c-.228 1.136-.973 5.148-.973 9.027s.745 7.891.973 9.027c1.136.228 5.148.973 9.027.973s7.891-.745 9.027-.973c.228-1.137.973-5.148.973-9.027z"/></svg>