<svg id="Layer_1" viewBox="0 0 24 24" xmlns="http://www.w3.org/2000/svg" data-name="Layer 1"><path d="m12 6c-1.179 0-2.931.192-3.005.2-.204.022-.373.167-.428.365-.022.084-.567 2.106-.567 5.435s.545 5.325.568 5.409c.054.194.219.336.419.362.074.009 1.83.229 3.013.229 3.458 0 5-1.851 5-6s-1.542-6-5-6zm0 11c-.819 0-1.976-.118-2.545-.181-.146-.676-.455-2.385-.455-4.819s.308-4.156.455-4.842c.572-.056 1.727-.158 2.545-.158 2.401 0 4 .85 4 5s-1.599 5-4 5zm9.938-14.557c-.042-.191-.19-.34-.381-.381-.049-.011-4.891-1.062-9.558-1.062s-9.508 1.051-9.557 1.062c-.19.042-.339.19-.381.381-.011.048-1.062 4.891-1.062 9.557s1.051 9.509 1.062 9.557c.042.191.19.34.381.381.049.011 4.891 1.062 9.558 1.062s9.509-1.051 9.558-1.062c.19-.042.339-.19.381-.381.011-.048 1.062-4.891 1.062-9.557s-1.051-9.509-1.062-9.557zm-.911 18.584c-1.137.228-5.148.973-9.027.973s-7.891-.745-9.027-.973c-.228-1.136-.973-5.148-.973-9.027s.745-7.891.973-9.027c1.137-.228 5.148-.973 9.027-.973s7.891.745 9.027.973c.228 1.136.973 5.148.973 9.027s-.745 7.891-.973 9.027z"/></svg>