<svg id="Layer_1" viewBox="0 0 24 24" xmlns="http://www.w3.org/2000/svg" data-name="Layer 1"><path d="m12.395 6.194c-.188-.244-.602-.244-.79 0-.139.179-1.388 1.848-2.644 5.426-1.303 3.713-1.312 5.794-1.312 5.881 0 .276.225.498.5.498.276 0 .499-.224.5-.5 0-.013.015-.899.373-2.5h5.954c.358 1.6.373 2.486.373 2.5 0 .276.224.5.5.5.275 0 .499-.222.5-.498 0-.087-.008-2.168-1.312-5.881-1.255-3.578-2.505-5.248-2.644-5.426zm-3.123 7.806c.165-.614.366-1.288.633-2.049.817-2.328 1.629-3.81 2.095-4.559.466.749 1.278 2.231 2.095 4.559.267.761.468 1.435.633 2.049h-5.457zm12.666-11.557c-.042-.191-.19-.34-.381-.381-.048-.011-4.891-1.062-9.557-1.062s-9.509 1.051-9.557 1.062c-.191.042-.34.19-.381.381-.011.048-1.062 4.891-1.062 9.557s1.051 9.509 1.062 9.557c.042.191.19.34.381.381.048.011 4.891 1.062 9.557 1.062s9.509-1.051 9.557-1.062c.191-.042.34-.19.381-.381.011-.048 1.062-4.891 1.062-9.557s-1.051-9.509-1.062-9.557zm-.911 18.584c-1.136.228-5.148.973-9.027.973s-7.891-.745-9.027-.973c-.228-1.136-.973-5.148-.973-9.027s.745-7.891.973-9.027c1.136-.228 5.148-.973 9.027-.973s7.891.745 9.027.973c.228 1.136.973 5.148.973 9.027s-.745 7.891-.973 9.027z"/></svg>