<svg id="Layer_1" viewBox="0 0 24 24" xmlns="http://www.w3.org/2000/svg" data-name="Layer 1"><path d="m16.975 7.157c-.087.264-.377.404-.632.317-.014-.005-1.321-.413-3.843-.465v10.49c0 .276-.224.5-.5.5s-.5-.224-.5-.5v-10.489c-2.522.051-3.829.46-3.843.465-.263.087-.545-.056-.632-.317-.086-.262.055-.544.316-.632.064-.021 1.612-.525 4.658-.525s4.594.504 4.658.525c.262.088.402.37.316.632zm6.025 4.843c0 4.667-1.051 9.509-1.062 9.558-.042.19-.19.339-.381.381-.049.011-4.891 1.062-9.558 1.062s-9.509-1.051-9.558-1.062c-.19-.042-.339-.19-.381-.381-.011-.049-1.062-4.891-1.062-9.558s1.053-9.509 1.064-9.558c.042-.19.19-.339.381-.381.049-.011 4.891-1.062 9.558-1.062s9.509 1.051 9.558 1.062c.19.042.339.19.381.381.011.049 1.062 4.891 1.062 9.558zm-1 0c0-3.879-.745-7.891-.973-9.027-1.137-.228-5.148-.973-9.027-.973s-7.891.745-9.027.973c-.228 1.137-.973 5.148-.973 9.027s.745 7.891.973 9.027c1.137.228 5.148.973 9.027.973s7.891-.745 9.027-.973c.228-1.137.973-5.148.973-9.027z"/></svg>