<svg id="Layer_1" viewBox="0 0 24 24" xmlns="http://www.w3.org/2000/svg" data-name="Layer 1"><path d="m16.422 6.376c.023.093.578 2.3.578 5.624s-.555 5.531-.578 5.624c-.048.188-.201.331-.393.367-.188.036-.385-.042-.498-.2l-7.2-10.057c-.153.944-.331 2.437-.331 4.266 0 3.189.542 5.354.547 5.376.068.268-.094.54-.361.608-.272.07-.54-.095-.607-.36-.023-.093-.578-2.3-.578-5.624s.555-5.531.578-5.624c.048-.188.201-.331.393-.367.189-.037.385.042.498.2l7.2 10.057c.153-.944.331-2.437.331-4.266 0-3.189-.542-5.354-.547-5.376-.068-.268.094-.54.361-.608.27-.07.539.094.607.36zm6.578 5.624c0 4.667-1.051 9.509-1.062 9.558-.042.19-.19.339-.381.381-.049.011-4.891 1.062-9.558 1.062s-9.509-1.051-9.558-1.062c-.19-.042-.339-.19-.381-.381-.011-.049-1.062-4.891-1.062-9.558s1.053-9.509 1.064-9.558c.042-.19.19-.339.381-.381.049-.011 4.891-1.062 9.558-1.062s9.509 1.051 9.558 1.062c.19.042.339.19.381.381.011.049 1.062 4.891 1.062 9.558zm-1 0c0-3.879-.745-7.891-.973-9.027-1.137-.228-5.148-.973-9.027-.973s-7.891.745-9.027.973c-.228 1.137-.973 5.148-.973 9.027s.745 7.891.973 9.027c1.137.228 5.148.973 9.027.973s7.891-.745 9.027-.973c.228-1.137.973-5.148.973-9.027z"/></svg>