<svg id="Layer_1" viewBox="0 0 24 24" xmlns="http://www.w3.org/2000/svg" data-name="Layer 1"><path d="m8 12c0 4.15 1.599 5 4 5 1.502 0 2.488-.372 3.104-1.171.169-.219.483-.259.701-.091.219.168.26.482.092.701-.81 1.05-2.084 1.561-3.896 1.561-3.458 0-5-1.851-5-6s1.542-6 5-6c1.812 0 3.087.511 3.896 1.561.168.219.127.533-.092.701s-.533.128-.701-.091c-.615-.799-1.602-1.171-3.104-1.171-2.401 0-4 .85-4 5zm15 0c0 4.667-1.051 9.509-1.062 9.557-.042.191-.19.34-.381.381-.049.011-4.891 1.062-9.558 1.062s-9.509-1.051-9.557-1.062c-.191-.042-.34-.19-.381-.381-.011-.048-1.062-4.891-1.062-9.557s1.052-9.509 1.063-9.557c.042-.191.19-.34.381-.381.048-.011 4.891-1.062 9.557-1.062s9.509 1.051 9.558 1.062c.19.042.339.19.381.381.011.048 1.062 4.891 1.062 9.557zm-1 0c0-3.879-.745-7.891-.973-9.027-1.137-.228-5.148-.973-9.027-.973s-7.891.745-9.027.973c-.228 1.136-.973 5.148-.973 9.027s.745 7.891.973 9.027c1.136.228 5.148.973 9.027.973s7.891-.745 9.027-.973c.228-1.136.973-5.148.973-9.027z"/></svg>