<svg id="Layer_1" viewBox="0 0 24 24" xmlns="http://www.w3.org/2000/svg" data-name="Layer 1"><path d="m21.938 2.443c-.042-.191-.19-.34-.381-.381-.048-.011-4.891-1.062-9.557-1.062s-9.509 1.051-9.557 1.062c-.191.042-.34.19-.381.381-.011.048-1.062 4.891-1.062 9.557s1.051 9.509 1.062 9.557c.042.191.19.34.381.381.048.011 4.891 1.062 9.557 1.062s9.509-1.051 9.557-1.062c.191-.042.34-.19.381-.381.011-.048 1.062-4.891 1.062-9.557s-1.051-9.509-1.062-9.557zm-.911 18.584c-1.136.228-5.148.973-9.027.973s-7.891-.745-9.027-.973c-.228-1.136-.973-5.148-.973-9.027s.745-7.891.973-9.027c1.136-.228 5.148-.973 9.027-.973s7.891.745 9.027.973c.228 1.136.973 5.148.973 9.027s-.745 7.891-.973 9.027zm-9.027-15.027c-3.505 0-5 1.794-5 6s1.495 6 5 6 5-1.794 5-6-1.495-6-5-6zm0 11c-2.916 0-4-1.355-4-5s1.084-5 4-5 4 1.355 4 5-1.084 5-4 5z"/></svg>