<?xml version="1.0" encoding="UTF-8"?>
<svg xmlns="http://www.w3.org/2000/svg" id="Layer_1" data-name="Layer 1" viewBox="0 0 24 24">
  <path d="M21.771,2.562c-.05-.163-.179-.289-.343-.335-.178-.05-4.412-1.227-9.428-1.227S2.751,2.177,2.572,2.227c-.164,.046-.294,.173-.343,.337-.051,.166-1.229,4.129-1.229,9.437,0,5.353,1.18,9.274,1.229,9.438,.05,.163,.179,.289,.343,.335,.178,.05,4.412,1.227,9.428,1.227s9.249-1.177,9.428-1.227c.164-.046,.294-.173,.343-.337,.051-.166,1.229-4.129,1.229-9.437,0-5.353-1.18-9.274-1.229-9.438Zm-.883,18.319c-1.011,.256-4.727,1.119-8.888,1.119s-7.881-.863-8.889-1.119c-.26-.964-1.111-4.458-1.111-8.881,0-4.389,.853-7.91,1.112-8.881,1.011-.256,4.727-1.119,8.888-1.119s7.881,.863,8.889,1.119c.26,.964,1.111,4.458,1.111,8.881,0,4.389-.853,7.91-1.112,8.881Z"/>
  <path d="M9.826,15.289c-1.863-1.166-2.996-2.698-3.389-3.289,.393-.591,1.525-2.123,3.389-3.289,.233-.146,.305-.455,.158-.689-.146-.235-.455-.305-.689-.159-2.568,1.607-3.831,3.797-3.883,3.89-.087,.153-.087,.341,0,.494,.052,.092,1.314,2.282,3.883,3.89,.083,.052,.445,.183,.689-.159,.16-.225,.075-.542-.158-.689Z"/>
  <path d="M14.708,7.863c-.234-.146-.544-.076-.689,.159-.146,.234-.075,.542,.158,.689,1.863,1.166,2.996,2.698,3.389,3.289-.393,.591-1.525,2.123-3.389,3.289-.233,.146-.319,.464-.158,.689,.244,.342,.606,.21,.689,.159,2.568-1.607,3.831-3.797,3.883-3.89,.087-.153,.087-.341,0-.494-.052-.092-1.314-2.282-3.883-3.89Z"/>
</svg>
