<svg id="Layer_1" viewBox="0 0 24 24" xmlns="http://www.w3.org/2000/svg" data-name="Layer 1"><path d="m21.773 2.573c-.046-.165-.173-.294-.337-.343-.166-.05-4.129-1.229-9.437-1.229-5.352-.001-9.273 1.179-9.437 1.229-.163.05-.289.179-.335.342-.05.178-1.227 4.412-1.227 9.428s1.177 9.249 1.227 9.427c.046.165.173.294.337.343.166.05 4.129 1.229 9.437 1.229 5.353 0 9.273-1.18 9.438-1.23.162-.05.289-.179.335-.342.05-.178 1.227-4.412 1.227-9.428s-1.177-9.249-1.227-9.427zm-.893 18.315c-.964.26-4.457 1.112-8.881 1.112-4.389 0-7.91-.853-8.881-1.112-.256-1.01-1.119-4.726-1.119-8.888s.863-7.881 1.119-8.888c.964-.26 4.458-1.112 8.881-1.112 4.389 0 7.91.853 8.881 1.112.256 1.01 1.119 4.726 1.119 8.888s-.863 7.881-1.119 8.888z"/><path d="m16.398 8.265c-.621-.581-1.434-.903-2.237-.862-.727.03-1.396.343-1.885.882l-.276.304-.276-.304c-.489-.54-1.159-.853-1.885-.882-.803-.04-1.616.282-2.237.862-.597.558-1.274 1.689-1.222 3.039.056 1.416.865 2.756 2.405 3.986.345.275 1.68 1.309 3.215 1.309 1.729 0 3.175-1.255 3.613-1.644 1.316-1.169 1.992-2.431 2.01-3.752.017-1.307-.649-2.399-1.225-2.938zm-1.449 5.942c-.385.342-.847.663-1.411.983-.963.544-2.113.544-3.069.004-.211-.125-.814-.49-1.06-.685-1.303-1.041-1.986-2.132-2.03-3.244-.042-1.083.549-1.936.906-2.27.406-.38.927-.595 1.438-.595.469 0 .947.212 1.26.557l.646.712c.189.209.551.209.74 0l.646-.712c.312-.344.723-.536 1.186-.555.534-.027 1.087.195 1.513.593.344.321.922 1.145.908 2.194-.014 1.028-.576 2.043-1.674 3.017z"/></svg>