<svg id="Layer_1" viewBox="0 0 24 24" xmlns="http://www.w3.org/2000/svg" data-name="Layer 1"><path d="m16 14.75c0 2.067-1.683 3.75-3.75 3.75-1.587 0-3.008-1.005-3.537-2.5-.092-.261.045-.547.305-.639.261-.094.545.044.639.305.388 1.097 1.43 1.834 2.594 1.834 1.517 0 2.75-1.233 2.75-2.75s-1.233-2.75-2.75-2.75c-1.792 0-3.25-1.458-3.25-3.25s1.458-3.25 3.25-3.25c1.292 0 2.461.765 2.979 1.949.11.253-.005.548-.258.658-.251.11-.547-.003-.658-.258-.359-.819-1.169-1.35-2.063-1.35-1.24 0-2.25 1.01-2.25 2.25s1.01 2.25 2.25 2.25c2.067 0 3.75 1.683 3.75 3.75zm7-2.75c0 4.667-1.051 9.509-1.062 9.558-.042.19-.19.339-.381.381-.049.011-4.891 1.062-9.558 1.062s-9.509-1.051-9.558-1.062c-.19-.042-.339-.19-.381-.381-.011-.049-1.062-4.891-1.062-9.558s1.053-9.509 1.064-9.558c.042-.19.19-.339.381-.381.049-.011 4.891-1.062 9.558-1.062s9.509 1.051 9.558 1.062c.19.042.339.19.381.381.011.049 1.062 4.891 1.062 9.558zm-1 0c0-3.879-.745-7.891-.973-9.027-1.137-.228-5.148-.973-9.027-.973s-7.891.745-9.027.973c-.228 1.137-.973 5.148-.973 9.027s.745 7.891.973 9.027c1.137.228 5.148.973 9.027.973s7.891-.745 9.027-.973c.228-1.137.973-5.148.973-9.027z"/></svg>