<svg id="Layer_1" viewBox="0 0 24 24" xmlns="http://www.w3.org/2000/svg" data-name="Layer 1"><path d="m12 6c-3.505 0-5 1.794-5 6s1.495 6 5 6c1.412 0 2.483-.308 3.277-.931.301.463.569.989.744 1.574.078.267.365.415.623.335.265-.079.415-.357.335-.622-.233-.779-.603-1.451-1.005-2.031.689-.974 1.026-2.382 1.026-4.325 0-4.206-1.495-6-5-6zm1.777 8.084c-.23-.153-.54-.092-.693.139-.153.229-.091.539.138.693.012.008.72.501 1.446 1.35-.629.5-1.494.734-2.668.734-2.916 0-4-1.355-4-5s1.084-5 4-5 4 1.355 4 5c0 1.57-.217 2.693-.679 3.488-.769-.868-1.49-1.368-1.543-1.404zm8.161-11.642c-.042-.19-.19-.339-.381-.381-.048-.011-4.891-1.062-9.557-1.062s-9.509 1.052-9.557 1.063c-.191.042-.34.19-.381.381-.011.049-1.062 4.891-1.062 9.558s1.051 9.509 1.062 9.558c.042.19.19.339.381.381.048.011 4.891 1.062 9.557 1.062s9.509-1.051 9.557-1.062c.191-.042.34-.19.381-.381.011-.049 1.062-4.891 1.062-9.558s-1.051-9.509-1.062-9.558zm-.911 18.585c-1.136.228-5.148.973-9.027.973s-7.891-.745-9.027-.973c-.228-1.137-.973-5.148-.973-9.027s.745-7.891.973-9.027c1.136-.228 5.148-.973 9.027-.973s7.891.745 9.027.973c.228 1.137.973 5.148.973 9.027s-.745 7.891-.973 9.027z"/></svg>