<svg id="Layer_1" viewBox="0 0 24 24" xmlns="http://www.w3.org/2000/svg" data-name="Layer 1"><path d="m15.576 6.437c.018.136.424 3.363.424 6.113 0 3.719-1.43 5.45-4.5 5.45-2.086 0-3.347-.729-3.966-2.292-.102-.257.024-.548.28-.649.256-.104.547.023.649.28.461 1.164 1.369 1.661 3.036 1.661 2.486 0 3.5-1.289 3.5-4.45 0-2.687-.412-5.954-.416-5.987-.035-.274.159-.524.433-.559.269-.032.524.159.56.433zm7.424 5.563c0 4.667-1.051 9.509-1.062 9.558-.042.19-.19.339-.381.381-.049.011-4.891 1.062-9.558 1.062s-9.509-1.051-9.558-1.062c-.19-.042-.339-.19-.381-.381-.011-.049-1.062-4.891-1.062-9.558s1.053-9.509 1.064-9.557c.042-.191.19-.34.381-.381.049-.011 4.891-1.062 9.558-1.062s9.509 1.051 9.558 1.062c.19.042.339.19.381.381.011.048 1.062 4.891 1.062 9.557zm-1 0c0-3.879-.745-7.891-.973-9.027-1.137-.228-5.148-.973-9.027-.973s-7.891.745-9.027.973c-.228 1.136-.973 5.148-.973 9.027s.745 7.891.973 9.027c1.137.228 5.148.973 9.027.973s7.891-.745 9.027-.973c.228-1.137.973-5.148.973-9.027z"/></svg>