<svg id="Layer_1" viewBox="0 0 24 24" xmlns="http://www.w3.org/2000/svg" data-name="Layer 1"><path d="m12.5 6.99v10.02c1.262.045 2.083.245 2.121.255.268.067.431.338.364.605-.057.228-.261.38-.485.38-.217-.011-.928-.245-2.5-.25-1.412 0-2.37.232-2.379.235-.272.062-.54-.098-.606-.365s.097-.538.364-.605c.038-.01.859-.21 2.121-.255v-10.02c-1.262-.045-2.083-.245-2.121-.255-.268-.067-.431-.338-.364-.605.066-.268.335-.431.606-.365.009.002.967.235 2.379.235s2.37-.233 2.379-.235c.27-.067.54.096.606.365.066.268-.097.539-.364.605-.038.01-.859.21-2.121.255zm10.5 5.01c0 4.667-1.051 9.509-1.062 9.558-.042.19-.19.339-.381.381-.049.011-4.891 1.062-9.558 1.062s-9.509-1.051-9.558-1.062c-.19-.042-.339-.19-.381-.381-.011-.049-1.062-4.891-1.062-9.558s1.053-9.509 1.064-9.557c.042-.191.19-.34.381-.381.049-.011 4.891-1.062 9.558-1.062s9.509 1.051 9.558 1.062c.19.042.339.19.381.381.011.048 1.062 4.891 1.062 9.557zm-1 0c0-3.879-.745-7.891-.973-9.027-1.137-.228-5.148-.973-9.027-.973s-7.891.745-9.027.973c-.228 1.136-.973 5.148-.973 9.027s.745 7.891.973 9.027c1.137.228 5.148.973 9.027.973s7.891-.745 9.027-.973c.228-1.137.973-5.148.973-9.027z"/></svg>