<svg id="Layer_1" viewBox="0 0 24 24" xmlns="http://www.w3.org/2000/svg" data-name="Layer 1"><path d="m17 12c0 .276-.224.5-.5.5h-9c-.276 0-.5-.224-.5-.5s.224-.5.5-.5h9c.276 0 .5.224.5.5zm-5-3.25c.414 0 .75-.336.75-.75s-.336-.75-.75-.75-.75.336-.75.75.336.75.75.75zm0 6.5c-.414 0-.75.336-.75.75s.336.75.75.75.75-.336.75-.75-.336-.75-.75-.75zm11-3.25c0 4.667-1.051 9.509-1.062 9.558-.042.19-.19.339-.381.381-.048.011-4.891 1.062-9.557 1.062s-9.509-1.051-9.557-1.062c-.191-.042-.34-.19-.381-.381-.011-.049-1.062-4.891-1.062-9.558s1.051-9.509 1.062-9.557c.042-.191.19-.34.381-.381.048-.011 4.891-1.062 9.557-1.062s9.509 1.051 9.557 1.062c.191.042.34.19.381.381.011.048 1.062 4.891 1.062 9.557zm-1 0c0-3.879-.745-7.891-.973-9.027-1.136-.228-5.148-.973-9.027-.973s-7.891.745-9.027.973c-.228 1.136-.973 5.148-.973 9.027s.745 7.891.973 9.027c1.136.228 5.148.973 9.027.973s7.891-.745 9.027-.973c.228-1.137.973-5.148.973-9.027z"/></svg>