<svg id="Layer_1" viewBox="0 0 24 24" xmlns="http://www.w3.org/2000/svg" data-name="Layer 1"><path d="m22.593 22.009c-.033-.006-2.055-.381-4.8-.672-1.368-2.37-3.15-4.407-5.293-6.069v-9.225c1.1-.697 2.368-1.371 3.775-1.918.317.563.901.869 1.728.874 1.265-.007 1.974-.714 1.997-2.007-.021-1.239-.768-1.983-2.003-1.991-1.295-.011-2.073.86-1.983 2.152-5.371 2.053-8.747 5.852-8.89 6.017-.182.208-.161.523.047.705.207.181.523.162.706-.046.021-.024 1.355-1.524 3.624-3.121v8.56c-2.144 1.662-3.926 3.7-5.293 6.069-2.745.291-4.767.666-4.799.672-.271.051-.45.312-.399.584s.313.45.583.398c.053-.01 5.332-.991 10.408-.991s10.354.981 10.407.991c.265.052.534-.125.584-.398.051-.271-.127-.533-.398-.584zm-4.596-20.007c.691.004.991.306 1.003.99-.013.731-.285 1.004-.997 1.008-.705-.004-.986-.284-1.002-.999.015-.714.297-.995.996-.999zm-10.53 19.213c1.222-1.951 2.731-3.667 4.533-5.083 1.802 1.416 3.31 3.132 4.533 5.083-1.432-.125-2.99-.215-4.533-.215s-3.101.09-4.533.215z"/></svg>