<svg id="Layer_1" viewBox="0 0 24 24" xmlns="http://www.w3.org/2000/svg" data-name="Layer 1"><path d="m22.633 13.996c-.121-.034-2.94-.798-8.337-.979.676-3.647 1.082-8.385 1.177-10.205.037-.716-.442-1.358-1.14-1.526-.544-.131-1.39-.286-2.333-.286s-1.789.155-2.332.286c-.699.167-1.179.809-1.142 1.527.095 1.82.502 6.56 1.178 10.204-5.396.181-8.216.944-8.338.979-.217.06-.367.257-.367.481v4.022c0 .224.148.419.363.48.146.042 3.647 1.02 10.637 1.02s10.492-.978 10.638-1.02c.214-.062.362-.257.362-.48v-4.022c0-.225-.15-.422-.367-.481zm-.633 4.112c-1.057.242-4.414.892-10 .892s-8.943-.649-10-.892v-3.237c.961-.216 3.796-.76 8.319-.871.302 0 .545-.304.478-.599-.732-3.649-1.173-8.744-1.271-10.641-.013-.239.142-.446.375-.502.491-.118 1.253-.259 2.099-.259s1.607.141 2.099.259c.233.056.388.263.376.502-.122 2.341-.61 7.342-1.271 10.641-.066.294.176.598.478.599 4.523.111 7.357.655 8.319.871v3.237zm-.011 3.498c.058.27-.115.535-.386.593-1.407.299-4.527.801-9.604.801s-8.196-.502-9.604-.801c-.27-.058-.442-.323-.385-.593.058-.271.322-.44.593-.386 1.369.291 4.411.779 9.396.779s8.026-.488 9.396-.779c.26-.052.536.115.593.386z"/></svg>