<svg id="Layer_1" viewBox="0 0 24 24" xmlns="http://www.w3.org/2000/svg" data-name="Layer 1"><path d="m11 14.045c0 1.629-1.325 2.955-2.954 2.955-1.25 0-2.37-.792-2.787-1.97-.092-.26.045-.546.305-.638s.545.043.639.305c.275.779 1.017 1.303 1.844 1.303 1.077 0 1.954-.877 1.954-1.955s-.877-1.955-1.954-1.955c-1.404 0-2.546-1.142-2.546-2.545s1.142-2.545 2.546-2.545c1.011 0 1.927.599 2.333 1.526.11.253-.005.548-.258.659-.248.112-.547-.003-.658-.257-.247-.563-.803-.928-1.417-.928-.853 0-1.546.693-1.546 1.545s.693 1.545 1.546 1.545c1.629 0 2.954 1.325 2.954 2.955zm12-2.045c0 3.801-1.023 7.62-1.067 7.781-.051.187-.204.328-.395.361-.049.009-4.881.858-9.538.858s-9.489-.849-9.538-.858c-.19-.034-.344-.174-.395-.361-.044-.161-1.067-3.98-1.067-7.781s1.023-7.62 1.067-7.781c.051-.187.204-.328.395-.361.049-.009 4.881-.858 9.538-.858s9.489.849 9.538.858c.19.034.344.174.395.361.044.161 1.067 3.98 1.067 7.781zm-1 0c0-3.061-.713-6.229-.954-7.21-1.139-.185-5.158-.79-9.046-.79s-7.907.604-9.046.79c-.241.982-.954 4.149-.954 7.21s.713 6.229.954 7.21c1.139.185 5.158.79 9.046.79s7.907-.604 9.046-.79c.241-.982.954-4.149.954-7.21zm-3 0c0 3.458-1.282 5-4.156 5-.646 0-1.183-.085-1.205-.089-.22-.035-.389-.21-.417-.431-.009-.071-.222-1.78-.222-4.48s.213-4.419.222-4.491c.028-.223.201-.4.424-.432.021-.003.531-.077 1.198-.077 2.874 0 4.156 1.542 4.156 5zm-1 0c0-3.331-1.208-4-3.156-4-.258 0-.49.013-.671.026-.062.652-.173 2.075-.173 3.974s.11 3.322.173 3.968c.184.017.419.032.671.032 1.948 0 3.156-.669 3.156-4z"/></svg>