<?xml version="1.0" encoding="UTF-8"?>
<svg xmlns="http://www.w3.org/2000/svg" id="Layer_1" data-name="Layer 1" viewBox="0 0 24 24">
  <path d="M14.755,12.498c-.692,.022-1.383,.04-2.075,.054-.394-.014-.756-.245-.876-.631-.205-.658-.411-1.315-.619-1.972-.257-.812-1-1.337-1.896-1.338h0c-.896,0-1.64,.525-1.896,1.338-.209,.656-.414,1.313-.618,1.971-.121,.386-.494,.617-.878,.632-.691-.014-1.383-.031-2.068-.054-.827-.036-1.511,.431-1.8,1.218-.318,.863-.048,1.819,.675,2.382,.559,.426,1.113,.843,1.667,1.254,.328,.244,.456,.677,.318,1.077-.231,.673-.471,1.349-.722,2.025-.313,.824-.103,1.648,.547,2.152,.685,.529,1.661,.521,2.43-.024l1.763-1.26c.35-.247,.816-.247,1.164,0l1.765,1.262c.389,.275,.832,.414,1.264,.414,.418,0,.827-.131,1.164-.392,.65-.504,.86-1.328,.549-2.148-.252-.681-.492-1.356-.723-2.029-.138-.4-.01-.833,.317-1.077,.554-.41,1.109-.828,1.671-1.257,.72-.56,.99-1.516,.672-2.38-.289-.786-.964-1.24-1.793-1.217Zm.512,2.805c-.555,.424-1.106,.838-1.657,1.246-.679,.506-.947,1.392-.667,2.206,.233,.679,.476,1.362,.732,2.055,.155,.408,.073,.775-.225,1.006-.258,.2-.736,.308-1.236-.046l-1.765-1.262c-.348-.247-.754-.371-1.162-.371s-.815,.124-1.163,.371l-1.763,1.26c-.5,.354-.979,.248-1.238,.048-.298-.23-.379-.598-.223-1.01,.255-.688,.498-1.372,.731-2.051,.28-.814,.013-1.7-.667-2.206-.551-.409-1.102-.822-1.653-1.243-.433-.336-.486-.867-.347-1.244,.065-.178,.27-.604,.823-.563,.695,.022,1.391,.04,2.086,.054,.879-.026,1.598-.519,1.853-1.334,.204-.656,.409-1.312,.617-1.967,.148-.472,.584-.64,.943-.64,.358,0,.794,.169,.942,.64,0,0,0,0,0,0,.208,.654,.413,1.31,.617,1.966,.254,.815,1.012,1.315,1.852,1.334,.696-.014,1.392-.031,2.094-.055,.534-.004,.751,.387,.816,.563,.139,.377,.085,.908-.343,1.242Z"/>
  <path d="M22.013,4.17c-.2-.546-.679-.882-1.264-.858-.41,.014-.82,.024-1.231,.032-.164-.017-.28-.091-.324-.232l-.368-1.174c-.18-.569-.698-.938-1.321-.938s-1.142,.368-1.321,.937l-.369,1.175c-.044,.143-.17,.237-.325,.232-.41-.008-.821-.019-1.226-.032-.563-.006-1.068,.312-1.269,.857-.219,.597-.032,1.258,.47,1.648,.333,.254,.663,.502,.994,.747,.124,.092,.171,.258,.118,.413-.137,.398-.279,.799-.427,1.198-.216,.568-.062,1.161,.39,1.512,.479,.372,1.156,.367,1.689-.009l1.048-.749c.139-.1,.317-.1,.457,0l1.051,.751c.267,.188,.571,.283,.868,.283,.293,0,.58-.092,.817-.275,.453-.351,.606-.944,.392-1.509-.149-.403-.292-.804-.429-1.203-.053-.154-.005-.32,.118-.412,.33-.244,.661-.493,.998-.75,.498-.387,.685-1.048,.465-1.645Zm-1.075,.853c-.33,.25-.657,.497-.984,.739-.476,.354-.664,.974-.467,1.54,.139,.406,.284,.814,.438,1.229,.06,.158,.037,.285-.068,.366-.099,.077-.289,.114-.493-.031l-1.051-.751c-.242-.173-.526-.259-.81-.259s-.567,.086-.809,.259l-1.047,.749c-.208,.146-.397,.108-.496,.033-.104-.081-.128-.208-.066-.371,.151-.41,.296-.818,.436-1.224,.196-.568,.009-1.188-.467-1.541-.327-.243-.655-.489-.98-.736-.177-.138-.198-.355-.141-.512,.052-.141,.154-.232,.292-.202,.415,.014,.831,.024,1.245,.032,.609-.015,1.121-.363,1.299-.936l.367-1.17c.069-.222,.299-.238,.368-.238,.068,0,.298,.017,.367,.238,0,0,0,0,0,0l.367,1.17c.179,.572,.729,.924,1.298,.935,.415-.008,.83-.019,1.25-.032,.156-.021,.236,.062,.288,.203,.057,.155,.036,.373-.137,.508Z"/>
</svg>
