<svg id="Layer_1" viewBox="0 0 24 24" xmlns="http://www.w3.org/2000/svg" data-name="Layer 1"><path d="m11.5 13.5v-6c0-.276.224-.5.5-.5s.5.224.5.5v6c0 .276-.224.5-.5.5s-.5-.224-.5-.5zm.5 1.75c-.414 0-.75.336-.75.75s.336.75.75.75.75-.336.75-.75-.336-.75-.75-.75zm9.727-2.596c-.814.625-1.619 1.233-2.424 1.833-.381.284-.528.795-.366 1.271.078.236.992 2.567 1.225 3.174.49 1.297.14 2.653-.896 3.449-1.051.815-2.66.804-3.825-.022l-2.636-2.067c-.446-.347-1.098-.351-1.539-.008l-2.641 2.029c-.638.455-1.357.683-2.055.683-.664 0-1.307-.206-1.839-.618-1.032-.793-1.38-2.153-.885-3.463.231-.602 1.14-2.917 1.219-3.157.161-.475.015-.985-.366-1.268-.806-.602-1.61-1.21-2.412-1.825-1.195-.933-1.61-2.559-1.014-3.956.469-1.09 1.669-1.819 2.884-1.784.974.032 1.948.056 2.823.07.529.051.957-.235 1.109-.726.126-.426.837-2.948.898-3.131.408-1.297 1.591-2.137 3.013-2.137s2.604.841 3.014 2.142c.058.171.772 2.699.898 3.13.144.464.518.76.98.729 1.019-.02 2.006-.048 2.982-.077 1.254 0 2.392.712 2.851 1.782.599 1.399.188 3.022-.999 3.948zm.08-3.554c-.306-.714-1.094-1.196-1.953-1.176-.954.031-1.933.056-2.918.076-.866.061-1.699-.53-1.979-1.433-.126-.424-.835-2.94-.896-3.124-.276-.877-1.085-1.443-2.061-1.443s-1.784.564-2.06 1.438c-.06.182-.775 2.719-.896 3.125-.295.949-1.144 1.524-2.121 1.428-.85-.011-1.85-.039-2.83-.068-.833 0-1.597.47-1.901 1.178-.418.979-.128 2.12.707 2.771.795.61 1.596 1.215 2.397 1.814.729.542 1.018 1.504.715 2.393-.08.24-.988 2.56-1.228 3.182-.338.895-.118 1.804.558 2.323.74.573 1.821.543 2.688-.077l2.624-2.017c.782-.606 1.977-.603 2.767.012l2.617 2.054c.794.565 1.904.583 2.617.032.68-.522.902-1.428.569-2.309-.243-.635-1.152-2.951-1.233-3.2-.302-.889-.015-1.851.715-2.396.801-.597 1.602-1.202 2.409-1.822.826-.645 1.112-1.781.692-2.763z"/></svg>