<svg id="Layer_1" viewBox="0 0 24 24" xmlns="http://www.w3.org/2000/svg" data-name="Layer 1"><path d="m23 12c0-.175-.092-.338-.242-.429-1.426-.859-3.188-1.802-5.611-2.57 1.923-2.461 3.749-5.195 3.769-5.224.132-.198.106-.462-.062-.631s-.431-.195-.631-.062c-.029.02-2.763 1.846-5.224 3.769-.769-2.422-1.712-4.185-2.571-5.611-.181-.301-.676-.301-.856 0-.86 1.426-1.802 3.19-2.571 5.611-2.46-1.923-5.195-3.75-5.224-3.769-.197-.132-.462-.106-.631.062s-.195.433-.062.631c.019.029 1.846 2.763 3.77 5.223-2.422.769-4.185 1.712-5.611 2.57-.15.091-.242.253-.242.429s.092.338.242.429c1.428.86 3.194 1.805 5.622 2.574-1.819 2.434-3.753 5.18-3.774 5.209-.14.199-.116.47.056.642.172.173.443.194.641.056.029-.02 2.776-1.953 5.21-3.774.769 2.427 1.714 4.194 2.575 5.622.09.15.253.242.428.242s.338-.092.428-.242c.859-1.426 1.802-3.188 2.571-5.611 2.461 1.923 5.195 3.749 5.224 3.769.2.133.466.105.636-.066.168-.173.189-.44.051-.638-.02-.029-1.953-2.775-3.774-5.209 2.429-.769 4.194-1.714 5.622-2.574.15-.091.242-.254.242-.429zm-4.484-6.516c-.694.974-1.546 2.134-2.402 3.212-.212-.058-.415-.118-.637-.173-.055-.221-.115-.425-.173-.637 1.078-.856 2.239-1.708 3.212-2.402zm-13.031 0c.974.694 2.133 1.547 3.212 2.402-.058.212-.118.416-.173.637-.221.055-.425.115-.637.173-.855-1.078-1.708-2.239-2.402-3.212zm.163 12.867c.68-.942 1.478-2.034 2.241-3.048.211.058.414.118.635.173.055.22.115.424.173.635-1.014.763-2.106 1.561-3.048 2.24zm12.774.097c-.954-.681-2.075-1.506-3.119-2.335.058-.212.118-.415.173-.637.22-.055.424-.115.635-.173.789 1.049 1.616 2.182 2.311 3.144zm-3.475-3.872c-.185.044-.327.187-.371.371-.69 2.903-1.657 4.951-2.576 6.565-.92-1.615-1.886-3.663-2.576-6.565-.043-.185-.187-.327-.371-.371-2.903-.689-4.951-1.656-6.565-2.576 1.615-.92 3.662-1.887 6.565-2.576.184-.044.327-.187.371-.371.69-2.902 1.656-4.95 2.576-6.565.919 1.614 1.886 3.662 2.576 6.565.044.185.187.327.371.371 2.903.69 4.951 1.656 6.565 2.576-1.614.92-3.662 1.886-6.565 2.576z"/></svg>