<svg id="Layer_1" viewBox="0 0 24 24" xmlns="http://www.w3.org/2000/svg" data-name="Layer 1"><path d="m22.726 8.706c-.465-1.082-1.632-1.831-2.896-1.781-.96.031-1.935.055-2.938.076-.434.03-.836-.263-.98-.729-.129-.437-.839-2.952-.898-3.13-.41-1.301-1.593-2.142-3.014-2.142s-2.604.839-3.013 2.137c-.059.176-.775 2.711-.898 3.131-.152.49-.572.776-1.109.726-.875-.014-1.85-.039-2.824-.07-1.282-.018-2.415.694-2.884 1.784-.597 1.397-.181 3.023 1.014 3.956.801.615 1.605 1.223 2.412 1.826.381.282.528.792.366 1.267-.08.244-.979 2.533-1.218 3.157-.495 1.311-.147 2.671.884 3.463.532.412 1.175.618 1.839.618.697 0 1.417-.228 2.055-.683l2.641-2.028c.438-.341 1.097-.336 1.539.008l2.635 2.067c1.166.828 2.773.837 3.826.022 1.036-.797 1.387-2.152.896-3.449-.236-.615-1.144-2.931-1.225-3.175-.162-.476-.015-.986.366-1.271.805-.6 1.609-1.207 2.424-1.833 1.187-.926 1.598-2.549 1-3.948zm-1.612 3.157c-.808.62-1.608 1.225-2.409 1.822-.729.544-1.017 1.506-.715 2.396.08.244.991 2.567 1.234 3.2.333.881.11 1.786-.57 2.309-.713.551-1.821.532-2.617-.031l-2.618-2.055c-.404-.314-.914-.466-1.419-.461v-17.043c.976 0 1.784.566 2.061 1.443.059.177.773 2.705.896 3.124.28.903 1.099 1.49 1.979 1.433.984-.02 1.963-.044 2.917-.076.862.001 1.646.461 1.954 1.176.419.981.134 2.118-.693 2.763z"/></svg>