<svg id="Layer_1" viewBox="0 0 24 24" xmlns="http://www.w3.org/2000/svg" data-name="Layer 1"><path d="m10.5 22h-.5l-.002-3.034c.401-.074.729-.301.88-.644.178-.402.084-.876-.244-1.234-1.106-1.216-2.725-2.327-4.439-3.049-.125-.053-.264-.053-.389 0-1.715.722-3.333 1.833-4.439 3.049-.328.358-.422.832-.244 1.234.151.342.477.568.875.643l.002 3.034h-.5c-.276 0-.5.224-.5.5s.224.5.5.5h9c.276 0 .5-.224.5-.5s-.224-.5-.5-.5zm-5.499-3h1.997l.002 3h-1.997zm2.997 0h1l.002 3h-1zm-5.892-1.238c.971-1.067 2.382-2.05 3.894-2.717 1.513.667 2.924 1.649 3.894 2.717.063.07.08.129.067.156-.015.033-.089.082-.234.082h-7.455c-.146 0-.22-.049-.234-.082-.013-.027.004-.086.068-.156zm.892 1.238h1.003l.002 3h-1.003zm19.857 3.148c.194.196.192.513-.004.707s-.513.192-.707-.004l-1.909-1.928c-1.543.154-3.065.072-4.528-.25-.19-.042-.339-.19-.381-.381-.321-1.464-.405-2.986-.25-4.529l-7.028-6.988c-.108-.108-.162-.26-.145-.412.165-1.404.117-2.791-.141-4.126-1.335-.257-2.719-.307-4.126-.141-.144.016-.305-.036-.413-.146l-2.078-2.098c-.194-.196-.192-.513.004-.707.197-.194.514-.192.707.004l1.909 1.928c1.545-.152 3.065-.071 4.528.25.19.042.339.19.381.381.321 1.464.405 2.986.25 4.529l7.028 6.988c.108.108.162.26.145.412-.165 1.404-.117 2.791.141 4.126 1.335.257 2.718.307 4.126.141.146-.016.305.036.413.146l2.079 2.1zm-9.855-12.648c0 .276.224.5.5.5h9c.276 0 .5-.224.5-.5s-.224-.5-.5-.5h-.5l-.002-3.034c.401-.074.729-.301.88-.644.178-.402.084-.876-.244-1.234-1.106-1.216-2.725-2.327-4.439-3.049-.125-.053-.264-.053-.389 0-1.715.722-3.333 1.833-4.439 3.049-.328.358-.422.832-.244 1.234.151.342.477.568.875.643l.002 3.034h-.5c-.276 0-.5.224-.5.5zm2-.5-.002-3h1.003l.002 3zm2.002 0-.002-3h1.997l.002 3zm2.997 0-.002-3h1l.002 3zm-5.894-4.238c.971-1.067 2.382-2.05 3.894-2.717 1.513.667 2.924 1.649 3.894 2.717.063.07.08.129.067.156-.015.033-.089.082-.234.082h-7.457c-.146 0-.22-.049-.234-.082-.013-.027.004-.086.068-.156z"/></svg>