<?xml version="1.0" encoding="UTF-8"?>
<svg xmlns="http://www.w3.org/2000/svg" id="Layer_1" data-name="Layer 1" viewBox="0 0 24 24">
  <path d="M12,1C6.891,1,1.026,2.25,1.026,12c0,7.71,3.282,11,10.974,11,5.109,0,10.974-1.25,10.974-11,0-7.71-3.282-11-10.974-11Zm0,1c4.654,0,7.497,1.25,8.9,4.122-1.333,1.324-4.802,2.073-9.158,1.956-3.947-.103-7.643-.941-8.651-1.938C4.491,3.256,7.336,2,12,2ZM2.026,12c0-.069,0-.137,.001-.205,3.247,.634,6.595,3.55,6.701,9.945-4.716-.853-6.702-3.851-6.702-9.739Zm7.704,9.884c-.061-7.213-3.954-10.451-7.673-11.099,.074-1.408,.282-2.628,.638-3.674,1.662,1.235,5.562,1.878,9.021,1.968,.204,.005,.461,.009,.76,.009,2.203,0,6.669-.232,8.827-1.983,.358,1.052,.568,2.279,.641,3.697-3.697,.658-7.583,3.903-7.689,11.085-.699,.077-1.449,.115-2.254,.115-.811,0-1.567-.039-2.27-.116Zm5.528-.142c.148-6.366,3.488-9.286,6.715-9.928,0,.062,.001,.124,.001,.186,0,5.894-1.99,8.892-6.716,9.742Z"/>
</svg>
