<svg id="Layer_1" viewBox="0 0 24 24" xmlns="http://www.w3.org/2000/svg" data-name="Layer 1"><path d="m19.952 1.359c-.075-.255-.34-.407-.594-.346-.134.031-3.332.809-8.679 4.33-3.452 2.273-5.572 4.22-6.666 5.344.114-5.962.974-9.016.984-9.048.076-.265-.077-.542-.341-.619-.266-.078-.542.075-.619.341-.042.146-1.036 3.648-1.036 10.639s.994 10.494 1.036 10.639c.076.268.361.418.619.341.265-.077.417-.354.341-.619-.01-.032-.869-3.086-.984-9.048 1.094 1.124 3.215 3.071 6.666 5.344 5.347 3.521 8.545 4.299 8.679 4.33.252.061.52-.089.594-.346.042-.146 1.048-3.649 1.048-10.641s-1.005-10.495-1.048-10.641zm-.839 20.514c-1.063-.344-3.861-1.402-7.884-4.051-4.153-2.735-6.353-5.013-7.072-5.822.719-.809 2.919-3.087 7.072-5.822 4.022-2.649 6.821-3.708 7.884-4.051.267 1.178.887 4.491.887 9.873s-.62 8.695-.887 9.873z"/></svg>