<?xml version="1.0" encoding="UTF-8"?>
<svg xmlns="http://www.w3.org/2000/svg" id="Layer_1" data-name="Layer 1" viewBox="0 0 24 24">
  <path d="M22.945,10.742c0-1.795-.865-2.667-2.644-2.667s-2.644,.873-2.644,2.667c0,1.617,.702,2.485,2.142,2.642-.009,1.049-.053,2.12-.129,3.189-.219,3.022-2.634,5.427-5.65,5.427s-5.418-2.375-5.636-5.36c-.044-.591-.08-1.359-.103-2.059,4.312-.148,6.243-2.3,6.243-6.921,0-3.814-1.305-5.926-4.106-6.645-.264-.068-.539,.092-.608,.36-.068,.267,.093,.54,.36,.608,1.562,.4,3.354,1.408,3.354,5.676,0,5.211-2.756,5.929-5.734,5.929-3.442,0-5.734-1.008-5.734-5.929C2.055,3.402,3.848,2.392,5.41,1.987c.267-.069,.428-.342,.358-.609-.069-.268-.341-.429-.609-.358C2.397,1.735,1.055,3.907,1.055,7.66c0,5.811,3.221,6.829,6.224,6.921,.024,.722,.062,1.52,.107,2.131,.256,3.5,3.125,6.287,6.64,6.287,3.562,0,6.385-2.816,6.641-6.354,.079-1.094,.123-2.188,.132-3.261,1.443-.155,2.146-1.023,2.146-2.642Zm-2.644,1.668c-1.066,0-1.644-.266-1.644-1.668s.578-1.667,1.644-1.667,1.644,.266,1.644,1.667-.578,1.668-1.644,1.668Z"/>
</svg>
