<?xml version="1.0" encoding="UTF-8"?>
<svg xmlns="http://www.w3.org/2000/svg" id="Layer_1" data-name="Layer 1" viewBox="0 0 24 24">
  <path d="M12.5,12.101v-2.198c0-.276-.224-.5-.5-.5s-.5,.224-.5,.5v2.198c-.781,.219-1.356,.936-1.356,1.786,0,1.022,.833,1.854,1.856,1.854s1.856-.832,1.856-1.854c0-.849-.575-1.567-1.356-1.786Zm-.5,2.64c-.473,0-.856-.383-.856-.854s.384-.854,.856-.854,.856,.383,.856,.854-.384,.854-.856,.854Z"/>
  <path d="M19.854,6.632l.55,.549c.265,.276,.609,.097,.707,0,.195-.195,.195-.512,0-.707l-1.882-1.878c-.195-.194-.512-.195-.707,0-.195,.195-.195,.512,0,.707l.623,.622-.855,.853c-1.153-.983-2.644-1.616-4.449-1.873,.342-.413,.547-.942,.547-1.518,0-1.316-1.072-2.386-2.39-2.386s-2.39,1.07-2.39,2.386c0,.573,.204,1.1,.542,1.512-1.828,.25-3.324,.871-4.475,1.849l-.824-.822,.623-.622c.195-.195,.195-.512,0-.707-.195-.196-.512-.195-.707,0l-1.882,1.878c-.195,.195-.195,.512,0,.707,.098,.098,.404,.27,.707,0l.55-.549,.818,.816c-1.336,1.52-2.095,3.674-2.095,6.429,0,5.761,3.056,9.123,9.134,9.123,5.946,0,9.018-3.099,9.128-9.123-.047-2.717-.776-4.87-2.126-6.399l.849-.847ZM12,2c.767,0,1.39,.622,1.39,1.386s-.623,1.386-1.39,1.386-1.39-.622-1.39-1.386,.623-1.386,1.39-1.386Zm.003,20c-5.371-.031-8.031-2.686-8.134-8.114,.1-5.427,2.761-8.081,8.128-8.114,5.305,.035,8.041,2.768,8.134,8.105-.101,5.434-2.761,8.091-8.128,8.123Z"/>
</svg>
