<?xml version="1.0" encoding="UTF-8"?>
<svg xmlns="http://www.w3.org/2000/svg" id="Layer_1" data-name="Layer 1" viewBox="0 0 24 24">
  <path d="M21.793,2.562c-.05-.163-.18-.289-.343-.335-.179-.05-4.423-1.227-9.45-1.227S2.729,2.176,2.551,2.227c-.165,.046-.294,.173-.344,.336-.05,.166-1.232,4.129-1.232,9.437,0,5.353,1.183,9.274,1.233,9.438,.05,.163,.179,.289,.343,.335,.178,.05,4.422,1.227,9.449,1.227s9.271-1.176,9.449-1.227c.165-.046,.294-.173,.344-.336,.051-.166,1.232-4.129,1.232-9.437,0-5.353-1.183-9.274-1.232-9.438Zm-.883,18.319c-1.012,.256-4.738,1.119-8.91,1.119s-7.901-.863-8.911-1.119c-.261-.963-1.114-4.457-1.114-8.881,0-4.389,.854-7.91,1.115-8.881,1.012-.256,4.738-1.119,8.91-1.119s7.902,.863,8.911,1.119c.261,.963,1.114,4.457,1.114,8.881,0,4.389-.854,7.91-1.115,8.881Z"/>
</svg>
