<svg id="Layer_1" viewBox="0 0 24 24" xmlns="http://www.w3.org/2000/svg" data-name="Layer 1"><path d="m12.728 21.124c1.12-.926 3-2.124 5.272-2.124 2.532 0 4.537.494 4.621.515.268.067.431.339.364.606-.067.269-.34.428-.606.364-.02-.005-1.976-.485-4.379-.485-2.029 0-3.756 1.152-4.741 1.985 4.666-.1 9.125-.704 9.173-.71.272-.037.525.154.563.427s-.153.526-.427.563c-.053.008-5.408.735-10.567.735-5.16 0-10.515-.728-10.568-.735-.274-.037-.465-.29-.427-.563.037-.272.286-.462.563-.427.049.006 4.505.61 9.17.71-.988-.833-2.717-1.985-4.738-1.985-2.403 0-4.359.48-4.379.485-.27.064-.539-.096-.606-.364s.096-.539.364-.606c.084-.021 2.089-.515 4.621-.515 2.272 0 4.152 1.198 5.272 2.124-.547-1.028-2.002-3.124-4.798-3.124-3.147 0-4.757.682-4.773.688-.253.111-.547-.006-.658-.258-.11-.253.004-.547.256-.658.072-.031 1.793-.772 5.175-.772 3.048 0 4.771 2.129 5.526 3.399.756-1.271 2.478-3.399 5.526-3.399 3.389 0 5.115.796 5.187.83.249.117.355.414.239.664-.117.249-.412.356-.664.241-.016-.008-1.622-.735-4.762-.735-2.796 0-4.252 2.097-4.798 3.124zm5.272-17.624c0-.374.232-.682.592-.783l.928-.265.197-.862c.102-.358.41-.59.783-.59s.681.231.783.591l.266.929.861.198c.358.101.59.408.59.782s-.232.682-.592.783l-.928.265-.197.862c-.102.358-.41.59-.783.59s-.681-.231-.783-.591l-.266-.929-.861-.198c-.358-.101-.59-.408-.59-.782zm1.491 0 .303.087c.3.086.531.316.618.616l.087.306.086-.304c.088-.302.319-.532.619-.618l.304-.087-.303-.087c-.3-.086-.531-.316-.618-.616l-.087-.306-.086.304c-.088.302-.319.532-.619.618zm-18.491 3c0-.374.232-.682.592-.783l.928-.265.197-.862c.102-.358.41-.59.783-.59s.681.231.783.591l.266.929.861.198c.358.101.59.408.59.782s-.232.682-.592.783l-.928.265-.197.862c-.102.358-.41.59-.783.59s-.681-.231-.783-.591l-.266-.929-.861-.198c-.358-.101-.59-.408-.59-.782zm1.491 0 .303.087c.3.086.531.316.618.616l.087.306.086-.304c.088-.302.319-.532.619-.618l.304-.087-.303-.087c-.3-.086-.531-.316-.618-.616l-.087-.306-.086.304c-.088.302-.319.532-.619.618zm10.919 6.218c.358.101.59.408.59.782s-.232.682-.592.783l-.928.265-.197.862c-.102.358-.41.59-.783.59s-.681-.231-.783-.591l-.266-.929-.861-.198c-.358-.101-.59-.408-.59-.782s.232-.682.592-.783l.928-.265.197-.862c.102-.358.41-.59.783-.59s.681.231.783.591l.266.929zm-.901.782-.303-.087c-.3-.086-.531-.316-.618-.616l-.087-.306-.086.304c-.088.302-.319.532-.619.618l-.304.087.303.087c.3.086.531.316.618.616l.087.306.086-.304c.088-.302.319-.532.619-.618zm-4.375-9.689c-.216-.422-.17-.914.117-1.254.19-.317.642-.514 1.11-.438.501.083.994.179 1.478.289.281-.322.587-.658.931-1.021.312-.332.795-.454 1.229-.303.432.147.741.537.786.993.044.448.083.856.117 1.254.49.188.969.391 1.426.606.398.188.656.578.671 1.019.015.443-.216.85-.602 1.063-.31.172-.615.311-.922.458l8.304 5.609c.229.154.289.465.135.694-.156.23-.468.288-.694.134l-8.359-5.646c-.048.359-.09.715-.163 1.084-.084.431-.4.776-.824.899-.42.12-.876-.003-1.178-.326-.344-.366-.685-.759-1.016-1.171-.376.088-.758.172-1.15.258-.527.113-.992-.061-1.265-.425-.274-.368-.309-.864-.088-1.265.239-.438.464-.833.685-1.198-.253-.427-.496-.865-.727-1.314zm.889-.458c.268.52.551 1.025.849 1.514.099.161.098.364-.001.524-.263.424-.529.887-.818 1.414-.073.124.047.278.186.248.571-.126 1.597-.357 1.636-.357.152 0 .298.069.395.192.374.479.763.936 1.156 1.354.089.103.268.053.292-.081.122-.615.205-1.204.254-1.801.017-.186.144-.337.307-.421.549-.229 1.084-.488 1.634-.794.12-.062.114-.25-.011-.304-.523-.247-1.077-.477-1.644-.684-.185-.067-.313-.236-.328-.432-.037-.493-.086-.99-.136-1.506-.01-.193-.177-.256-.296-.147-.414.438-.772.834-1.096 1.215-.123.144-.314.202-.498.162-.556-.134-1.124-.248-1.702-.344-.162-.038-.232.157-.178.247z"/></svg>