<?xml version="1.0" encoding="UTF-8"?>
<svg xmlns="http://www.w3.org/2000/svg" id="Layer_1" data-name="Layer 1" viewBox="0 0 24 24">
  <path d="M8.37,10.023c.048,.005,.202,.02,.417,.02,.538,0,1.452-.09,1.996-.637,.755-.76,.521-1.688-.019-2.228-.151-.152-.567-.505-1.145-.505h-.003c-.272,0-.681,.086-1.078,.486-.765,.77-.632,2.252-.614,2.419,.024,.234,.21,.42,.445,.444Zm.878-2.158c.128-.129,.249-.191,.371-.191h0c.166,0,.34,.114,.437,.211,.189,.19,.346,.486,.018,.816-.247,.249-.767,.325-1.166,.338,.014-.399,.09-.922,.34-1.174Z"/>
  <path d="M7.64,11.11h0c-.272,0-.682,.085-1.08,.486-.765,.77-.631,2.253-.613,2.419,.025,.235,.211,.42,.445,.444,.047,.005,.202,.02,.416,.02,.538,0,1.452-.09,1.997-.637,.754-.76,.519-1.688-.019-2.227-.151-.152-.566-.506-1.146-.506Zm.455,2.027c-.248,.249-.768,.325-1.167,.338,.015-.414,.099-.931,.34-1.174,.128-.129,.25-.191,.372-.191,.167,0,.34,.114,.437,.211,.189,.19,.347,.486,.019,.816Z"/>
  <path d="M11.247,14.718h0c-.272,0-.682,.085-1.08,.486-.765,.77-.631,2.253-.613,2.419,.025,.235,.211,.42,.445,.444,.047,.005,.202,.02,.416,.02,.538,0,1.452-.09,1.997-.637,.755-.76,.52-1.687-.019-2.227-.151-.152-.566-.506-1.146-.506Zm.455,2.027c-.248,.249-.768,.325-1.167,.338,.015-.414,.099-.931,.34-1.174,.128-.129,.25-.191,.372-.191,.167,0,.34,.114,.437,.211,.189,.19,.347,.486,.019,.816Z"/>
  <path d="M6.63,15.738h-.002c-.272,0-.681,.085-1.079,.485-.765,.77-.632,2.253-.614,2.42,.024,.234,.21,.42,.445,.444,.047,.005,.202,.02,.416,.02,.538,0,1.453-.09,1.997-.638,.755-.76,.521-1.688-.019-2.228-.151-.151-.566-.504-1.145-.504Zm.454,2.026c-.248,.25-.767,.325-1.166,.339,.014-.4,.089-.923,.34-1.175,.128-.128,.249-.19,.371-.19h0c.167,0,.34,.113,.437,.21,.189,.19,.346,.486,.018,.816Z"/>
  <path d="M13.792,10.206c-.151-.152-.565-.505-1.146-.505h0c-.272,0-.682,.084-1.08,.485-.765,.77-.631,2.253-.613,2.419,.025,.234,.21,.42,.444,.444,.048,.005,.204,.02,.42,.02,.538,0,1.45-.09,1.994-.637,.754-.76,.519-1.688-.019-2.227Zm-.69,1.521c-.248,.25-.768,.325-1.167,.339,.015-.415,.099-.932,.34-1.175,.128-.128,.249-.19,.372-.19,.168,0,.34,.113,.437,.21,.189,.19,.347,.486,.019,.816Z"/>
  <path d="M13.995,15.648c.025,.234,.21,.42,.444,.444,.048,.005,.204,.02,.42,.02,.538,0,1.45-.09,1.994-.637,.754-.76,.519-1.688-.019-2.227-.151-.152-.565-.505-1.146-.505h0c-.272,0-.682,.084-1.08,.485-.765,.77-.631,2.253-.613,2.419Zm1.322-1.714c.128-.128,.249-.19,.372-.19,.168,0,.34,.113,.437,.21,.189,.19,.347,.486,.019,.816-.248,.25-.768,.325-1.167,.339,.015-.415,.099-.932,.34-1.175Z"/>
  <path d="M22.408,8.498c-.13-.245-.435-.337-.676-.209-1.842,.975-4.02,.18-5.03-.3l1.84-1.847c.194-.195,.194-.512-.002-.707-.195-.193-.512-.195-.707,.002l-1.838,1.844c-.478-1.008-1.264-3.181-.294-5.051,.127-.246,.031-.548-.214-.675-.246-.127-.548-.031-.675,.214-.81,1.564-.635,3.24-.266,4.514-1.609-1.217-3.19-1.832-4.717-1.833h0c-1.675,0-3.252,.729-4.687,2.168C.999,10.776,.539,18.145,3.206,20.82c1.08,1.083,2.887,1.68,5.088,1.68h0c3.368,0,6.844-1.389,9.07-3.623,1.655-1.66,3.679-4.958,.329-9.434,.612,.18,1.318,.314,2.058,.314,.8,0,1.641-.157,2.447-.583,.244-.129,.338-.432,.209-.676Zm-5.752,9.674c-2.045,2.053-5.249,3.328-8.361,3.328h0c-1.905,0-3.502-.505-4.379-1.385-2.311-2.318-1.775-9.066,1.937-12.79,1.239-1.243,2.578-1.874,3.978-1.874h0c1.78,0,3.693,1.016,5.688,3.016,3.587,3.6,3.97,6.864,1.139,9.705Z"/>
</svg>
