<svg id="Layer_1" viewBox="0 0 24 24" xmlns="http://www.w3.org/2000/svg" data-name="Layer 1"><path d="m18.84 9.108c-.195-.195-.51-.195-.705 0l-2.14 2.14-3.283-3.283 2.14-2.14c.195-.195.195-.51 0-.705s-.51-.195-.705 0l-2.14 2.14-2.14-2.14c-.195-.195-.51-.195-.705 0s-.195.51 0 .705l2.14 2.14-3.283 3.283-2.14-2.14c-.195-.195-.51-.195-.705 0s-.195.51 0 .705l2.14 2.14-2.14 2.14c-.195.195-.195.51 0 .705s.51.195.705 0l2.14-2.14 3.283 3.283-2.14 2.14c-.195.195-.195.51 0 .705s.51.195.705 0l2.14-2.14 2.14 2.14c.195.195.51.195.705 0s.195-.51 0-.705l-2.14-2.14 3.283-3.283 2.14 2.14c.195.195.51.195.705 0s.195-.51 0-.705l-2.14-2.14 2.14-2.14c.195-.195.195-.51 0-.705zm-6.833 6.128-3.283-3.283 3.283-3.283 3.283 3.283zm-.007-14.254c-7.789 0-10.966 3.176-10.966 10.966s3.177 10.966 10.966 10.966 10.966-3.177 10.966-10.966-3.177-10.966-10.966-10.966zm0 20.935c-7.174 0-9.969-2.795-9.969-9.969s2.795-9.969 9.969-9.969 9.969 2.795 9.969 9.969-2.795 9.969-9.969 9.969z"/></svg>