<svg id="Layer_1" viewBox="0 0 24 24" xmlns="http://www.w3.org/2000/svg" data-name="Layer 1"><path d="m9.843 10.939c-.229.279-.457.547-.683.812 3.586 4.071 6.596 6.322 6.629 6.346.222.165.269.478.104.7-.165.223-.479.266-.699.104-.138-.103-3.091-2.31-6.696-6.39-3.607 4.08-6.561 6.287-6.701 6.39-.22.162-.533.118-.699-.104-.164-.223-.117-.535.104-.7.033-.025 3.044-2.276 6.633-6.347-.226-.264-.453-.533-.682-.811-4.19-5.091-6.031-9.064-6.108-9.231-.114-.251-.004-.548.247-.662.248-.116.547-.006.662.246.019.039 1.87 4.029 5.971 9.013.192.234.383.457.573.681.191-.224.381-.448.574-.682 4.103-4.984 5.955-8.973 5.974-9.012.115-.251.414-.362.662-.246.251.115.361.411.246.662-.076.167-1.918 4.14-6.111 9.231zm12.97 3.17c-.118-.094-.273-.129-.422-.098-.594.134-2.014.633-2.38 2.386-.057.271.116.535.387.592.271.06.536-.116.592-.387.157-.75.59-1.162 1.011-1.39v7.287c0 .276.224.5.5.5s.5-.224.5-.5v-7.999c0-.152-.069-.296-.188-.391z"/></svg>