<svg id="Layer_1" viewBox="0 0 24 24" xmlns="http://www.w3.org/2000/svg" data-name="Layer 1"><path d="m21.912 6.404c-.05-.147-.164-.264-.311-.314-.098-.034-1.919-.647-5.602-.938v-.151c0-2.206-1.794-4-4-4s-4 1.794-4 4v.151c-3.682.291-5.503.905-5.602.938-.146.051-.261.167-.311.314-.044.134-1.088 3.313-1.088 7.596s1.044 7.462 1.088 7.596c.05.147.164.264.311.314.129.044 3.216 1.09 9.602 1.09s9.473-1.046 9.602-1.09c.146-.051.261-.167.311-.314.044-.134 1.088-3.313 1.088-7.596s-1.044-7.462-1.088-7.596zm-12.912-1.404c0-1.654 1.346-3 3-3s3 1.346 3 3v.084c-.906-.052-1.9-.084-3-.084s-2.094.033-3 .084zm12.037 16.036c-.427.122-1.444.374-3.037.591v-12.127c0-.276-.224-.5-.5-.5s-.5.224-.5.5v12.249c-1.346.144-3.008.251-5 .251s-3.654-.107-5-.251v-12.249c0-.276-.224-.5-.5-.5s-.5.224-.5.5v12.127c-1.593-.216-2.61-.469-3.037-.591-.237-.812-.963-3.58-.963-7.036s.726-6.224.963-7.036c.826-.235 3.814-.964 9.037-.964s8.211.729 9.037.964c.237.812.963 3.58.963 7.036s-.726 6.224-.963 7.036z"/></svg>