<svg id="Layer_1" viewBox="0 0 24 24" xmlns="http://www.w3.org/2000/svg"><path d="m23 19c0 2.119-.247 3.529-.258 3.588-.038.212-.208.376-.421.407-.21.03-.423-.078-.519-.271l-2.742-5.484c-.035.5-.061 1.096-.061 1.761 0 2.024.24 3.398.242 3.412.048.272-.133.531-.405.58-.267.049-.531-.133-.58-.404-.011-.059-.258-1.469-.258-3.588s.247-3.529.258-3.588c.038-.212.208-.376.421-.407.213-.027.422.079.519.271l2.742 5.484c.035-.5.061-1.096.061-1.761 0-2.024-.24-3.398-.242-3.412-.048-.272.133-.531.405-.58.271-.042.532.133.58.404.011.059.258 1.469.258 3.588zm-14.409-.818c-.602 0-1.091-.489-1.091-1.091s.489-1.091 1.091-1.091c.434 0 .827.257 1 .654.111.252.407.369.658.258.253-.11.369-.405.258-.658-.333-.762-1.085-1.254-1.917-1.254-1.153 0-2.091.938-2.091 2.091s.938 2.091 2.091 2.091c.777 0 1.409.632 1.409 1.409s-.632 1.409-1.409 1.409c-.596 0-1.13-.377-1.329-.939-.091-.26-.377-.397-.638-.305-.26.093-.396.378-.304.639.339.96 1.252 1.605 2.271 1.605 1.329 0 2.409-1.081 2.409-2.409s-1.081-2.409-2.409-2.409zm7.668-3.179c-.274.029-.473.275-.444.551.002.017.185 1.745.185 3.446 0 2.769-.741 3-1.5 3s-1.5-.231-1.5-3c0-1.701.183-3.43.185-3.446.029-.275-.169-.521-.444-.551-.284-.033-.521.17-.55.443-.008.073-.19 1.797-.19 3.554 0 1.978.297 4 2.5 4s2.5-2.022 2.5-4c0-1.757-.183-3.48-.19-3.554-.029-.273-.267-.471-.55-.443zm-11.374 6.937c-.048.274-.316.452-.582.402-1.199-.22-1.859-.41-1.886-.418-.166-.048-.294-.178-.342-.343-.043-.154-1.075-3.816-1.075-8.582s1.031-8.428 1.075-8.582c.047-.165.176-.295.342-.343.074-.022.989-.281 2.583-.54v-2.034c0-.276.224-.5.5-.5s.5.224.5.5v1.889c1.565-.211 3.591-.389 6-.389s4.435.178 6 .389v-1.889c0-.276.224-.5.5-.5s.5.224.5.5v2.036c1.595.259 2.509.518 2.583.54.166.048.294.178.342.343.041.144 1.001 3.554 1.071 8.074.004.276-.216.504-.492.508s-.504-.216-.508-.492c-.019-1.247-.113-2.404-.234-3.437-.608-.162-4.273-1.071-9.762-1.071s-9.164.912-9.765 1.072c-.136 1.166-.235 2.499-.235 3.928 0 3.896.73 7.105.965 8.035.29.073.806.193 1.519.323.271.05.451.311.401.582zm-2.509-13.936c1.247-.301 4.686-1.004 9.624-1.004s8.374.703 9.622 1.003c-.216-1.466-.466-2.56-.587-3.039-.938-.233-4.258-.965-9.035-.965s-8.097.731-9.035.965c-.121.479-.372 1.569-.588 3.039z"/></svg>