<svg id="Layer_1" viewBox="0 0 24 24" xmlns="http://www.w3.org/2000/svg" data-name="Layer 1"><path d="m20.461 1.808c-.046-.111-.13-.201-.238-.255-.113-.057-1.207-.553-4.724-.553-.276 0-.5.224-.5.5s.224.5.5.5c2.546 0 3.721.272 4.116.392.339.906 1.701 4.85 2.2 11.002-.67-.128-2.239-.393-3.815-.393-.742 0-1.574.06-2.473.178-1.071.141-1.945.902-2.253 1.91-.797-.106-1.751-.106-2.548 0-.308-1.008-1.182-1.769-2.253-1.91-.898-.118-1.73-.178-2.473-.178-1.576 0-3.146.265-3.815.393.499-6.15 1.86-10.093 2.2-11.001.401-.122 1.577-.393 4.116-.393.276 0 .5-.224.5-.5s-.224-.5-.5-.5c-3.517 0-4.61.496-4.724.553-.107.054-.192.144-.238.255-.104.249-2.539 6.207-2.539 16.192 0 .747.06 1.579.178 2.473.161 1.222 1.127 2.188 2.349 2.35.898.118 1.73.178 2.473.178s1.574-.06 2.473-.178c1.222-.161 2.188-1.128 2.349-2.35.118-.894.178-1.726.178-2.473 0-.589-.048-1.242-.122-1.925.697-.091 1.546-.091 2.243 0-.074.683-.122 1.336-.122 1.925 0 .747.06 1.579.178 2.473.161 1.222 1.127 2.188 2.349 2.35.898.118 1.73.178 2.473.178s1.574-.06 2.473-.178c1.222-.161 2.188-1.128 2.349-2.35.118-.894.178-1.726.178-2.473 0-9.985-2.435-15.943-2.539-16.192zm-10.63 18.534c-.102.774-.714 1.387-1.488 1.488-1.712.227-2.974.227-4.685 0-.774-.102-1.386-.714-1.488-1.488-.112-.851-.169-1.639-.169-2.342 0-1.258.044-2.445.114-3.573.281-.058 2.109-.427 3.886-.427.699 0 1.487.057 2.342.17.774.102 1.386.714 1.488 1.488.112.851.169 1.639.169 2.342s-.057 1.491-.169 2.342zm12 0c-.102.774-.714 1.387-1.488 1.488-1.712.227-2.974.227-4.685 0-.774-.102-1.386-.714-1.488-1.488-.112-.851-.169-1.639-.169-2.342s.057-1.491.169-2.342c.102-.774.714-1.387 1.488-1.488.856-.113 1.644-.17 2.343-.17 1.777 0 3.605.368 3.886.427.07 1.128.114 2.315.114 3.573 0 .703-.057 1.491-.169 2.342z"/></svg>