<svg id="Layer_1" viewBox="0 0 24 24" xmlns="http://www.w3.org/2000/svg" data-name="Layer 1"><path d="m12.546 1.507c-.124-.021-3.071-.507-5.565-.507s-5.443.486-5.567.507c-.233.039-.408.236-.418.473 0 .045-.175 4.495.258 8.196.404 3.448 1.537 6.536 1.747 7.086.006 3.747.327 4.876.34 4.922.046.154.164.277.317.33.058.02 1.433.485 3.322.485s3.299-.464 3.357-.483c.153-.052.272-.173.319-.327.035-.113.337-1.206.342-4.932.204-.55 1.302-3.636 1.707-7.081.433-3.701.259-8.151.258-8.196-.01-.236-.185-.434-.418-.473zm-5.566 20.493c-1.254 0-2.271-.229-2.731-.353-.079-.461-.222-1.617-.245-3.887.656.101 1.769.24 2.976.24 1.215 0 2.35-.14 3.015-.241-.022 2.286-.164 3.432-.243 3.886-.47.125-1.513.355-2.772.355zm4.731-11.941c-.352 3.009-1.282 5.812-1.584 6.666-.543.091-1.816.275-3.147.275s-2.579-.185-3.111-.274c-.309-.847-1.269-3.654-1.621-6.667-.349-2.973-.296-6.453-.265-7.628.896-.133 3.114-.431 4.997-.431s4.101.298 4.996.431c.031 1.175.084 4.655-.265 7.628zm11.288-.559c0 .276-.224.5-.5.5h-1.529c-.06 1.415-.374 2.503-.969 3.295l.852.852c.195.195.195.512 0 .707s-.512.195-.707 0l-.852-.852c-.792.595-1.88.909-3.295.969v1.529c0 .276-.224.5-.5.5s-.5-.224-.5-.5v-1.517c-.382-.016-.749-.042-1.077-.094-.272-.043-.459-.298-.417-.571.042-.274.302-.46.571-.417.419.065.898.099 1.423.099 3.28 0 4.5-1.22 4.5-4.5s-1.22-4.5-4.5-4.5c-.276 0-.5-.224-.5-.5v-2c0-.276.224-.5.5-.5s.5.224.5.5v1.529c1.415.06 2.503.374 3.295.969l.852-.852c.195-.195.512-.195.707 0s.195.512 0 .707l-.852.852c.595.792.909 1.88.969 3.295h1.529c.276 0 .5.224.5.5z"/></svg>