<svg id="Layer_1" viewBox="0 0 24 24" xmlns="http://www.w3.org/2000/svg" data-name="Layer 1"><path d="m9.843 14.939c-.229.279-.456.547-.682.811 3.586 4.071 6.595 6.322 6.628 6.348.222.164.269.477.104.699-.165.223-.479.267-.699.104-.138-.103-3.091-2.31-6.696-6.39-3.607 4.08-6.562 6.287-6.7 6.39-.22.162-.534.118-.699-.104-.164-.223-.118-.535.104-.7.033-.025 3.043-2.276 6.632-6.347-.226-.264-.453-.533-.682-.811-4.191-5.091-6.031-9.064-6.108-9.231-.115-.251-.005-.548.246-.662.254-.115.548-.004.663.246.018.039 1.87 4.029 5.971 9.013.192.233.382.457.572.681.19-.224.381-.448.574-.682 4.104-4.983 5.956-8.973 5.974-9.012.115-.25.413-.361.663-.246.251.115.361.411.246.662-.076.167-1.918 4.14-6.112 9.231zm12.969-13.83c-.12-.095-.273-.129-.422-.098-.593.134-2.014.634-2.379 2.386-.057.271.117.535.387.592.269.059.535-.117.591-.387.157-.75.589-1.162 1.011-1.39v7.287c0 .276.224.5.5.5s.5-.224.5-.5v-7.999c0-.152-.069-.296-.188-.391z"/></svg>