<svg id="Layer_1" viewBox="0 0 24 24" xmlns="http://www.w3.org/2000/svg" data-name="Layer 1"><path d="m22.688 16.692c-.042-.19-.19-.339-.381-.381-.054-.012-1.274-.273-2.559-.305.09-.487.252-1.497.252-2.506 0-1.371-.299-2.749-.312-2.808-.042-.19-.19-.339-.381-.381-.058-.013-1.435-.312-2.807-.312s-2.75.299-2.807.312c-.191.042-.34.19-.381.381-.013.059-.312 1.437-.312 2.808 0 1.01.162 2.019.252 2.506-1.285.032-2.505.293-2.559.305-.191.042-.34.19-.381.381-.013.059-.312 1.437-.312 2.808s.299 2.749.312 2.808c.042.19.19.339.381.381.058.013 1.435.312 2.807.312 1.619-.057 2.67-.21 3-.417.327.206 1.384.361 3 .417 1.372 0 2.75-.299 2.807-.312.191-.042.34-.19.381-.381.013-.059.312-1.437.312-2.808s-.299-2.749-.312-2.808zm-8.462-5.466c.47-.085 1.386-.227 2.274-.227s1.804.142 2.274.227c.084.469.226 1.386.226 2.273s-.142 1.805-.226 2.273c-.47.085-1.386.227-2.274.227s-1.804-.142-2.274-.227c-.084-.469-.226-1.386-.226-2.273s.142-1.805.226-2.273zm1.548 10.547c-.47.085-1.386.227-2.274.227s-1.804-.142-2.274-.227c-.084-.469-.226-1.386-.226-2.273s.142-1.805.226-2.273c.47-.085 1.386-.227 2.274-.227s1.804.142 2.274.227c.084.469.226 1.386.226 2.273s-.142 1.805-.226 2.273zm6 0c-.47.085-1.386.227-2.274.227s-1.804-.142-2.274-.227c-.084-.469-.226-1.386-.226-2.273s.142-1.805.226-2.273c.47-.085 1.386-.227 2.274-.227s1.804.142 2.274.227c.084.469.226 1.386.226 2.273s-.142 1.805-.226 2.273zm-16.774-16.773c1.346 0 2-.654 2-2s-.654-2-2-2-2 .654-2 2 .654 2 2 2zm0-3c.794 0 1 .206 1 1s-.206 1-1 1-1-.206-1-1 .206-1 1-1zm8.376 5.984c.266.07.54-.094.608-.36.068-.268-.093-.54-.361-.608-.789-.201-4.624-1.016-7.624-1.016-2.021 0-4.004.351-4.088.365-.197.035-.354.184-.399.379-.021.09-.513 2.228-.513 4.756s.492 4.666.513 4.756c.045.195.202.344.399.379.037.007.463.08 1.088.159v5.706c0 .276.224.5.5.5s.5-.224.5-.5v-5.598c.613.055 1.301.098 2 .098.341 0 .669-.022 1-.038v5.538c0 .276.224.5.5.5s.5-.224.5-.5v-15.396c2.257.209 4.588.679 5.376.88zm-6.376 7.98c-1.746.067-3.79-.141-4.581-.261-.134-.682-.419-2.352-.419-4.204s.285-3.522.419-4.204c.642-.098 2.121-.296 3.581-.296.321 0 .657.011 1 .029v8.937z"/></svg>