<?xml version="1.0" encoding="UTF-8"?>
<svg xmlns="http://www.w3.org/2000/svg" id="Layer_1" data-name="Layer 1" viewBox="0 0 24 24">
  <path d="M11.999,12.391c-1.907,.013-2.934,1.034-2.97,2.975,.037,1.957,1.035,2.955,2.968,2.967h.006c1.933-.012,2.931-1.006,2.968-2.975-.034-1.9-1.087-2.954-2.973-2.967Zm.001,4.941c-1.374-.009-1.945-.585-1.971-1.968,.025-1.374,.616-1.965,1.97-1.974,1.34,.009,1.949,.621,1.973,1.966-.026,1.395-.598,1.967-1.971,1.976Z"/>
  <path d="M11.997,1C4.894,1,1,5.16,1,12.009c0,6.996,3.771,10.991,11.003,10.991,7.164,0,10.864-3.74,10.997-11.009-.122-7.042-4.027-10.991-11.003-10.991Zm.006,21c-6.605-.039-9.877-3.31-10.003-10,.121-6.594,3.486-9.958,9.997-10,4.485,.029,9.861,1.79,10.003,9.991-.123,6.696-3.395,9.97-9.997,10.009Z"/>
  <circle cx="8.12" cy="10.315" r=".75"/>
  <circle cx="15.88" cy="10.315" r=".75"/>
</svg>
