<svg id="Layer_1" viewBox="0 0 24 24" xmlns="http://www.w3.org/2000/svg" data-name="Layer 1"><path d="m22.476 13.606c-.055-.217-.247-.371-.471-.378 0 0-1.685-.047-4.265-.099 1.862-1.945 3.1-3.26 3.125-3.287.153-.163.18-.407.065-.6-.045-.075-1.127-1.873-2.744-3.489-1.616-1.616-3.402-2.69-3.477-2.735-.193-.116-.439-.089-.602.067 0 0-1.294 1.238-3.23 3.114-.047-2.509-.091-4.164-.091-4.201-.006-.224-.161-.416-.378-.471-.085-.022-2.122-.528-4.407-.528s-4.309.504-4.394.524c-.217.055-.372.247-.378.472-.002.081-.229 8.213-.229 16.005 0 3.505 1.495 5 5 5 7.792 0 15.92-.213 16.001-.215.224-.006.417-.16.472-.378.021-.086.527-2.121.527-4.407s-.503-4.309-.524-4.394zm-7.96-9.527c.574.375 1.826 1.244 2.963 2.382 1.138 1.138 2.015 2.402 2.391 2.979-1.019 1.079-4.823 5.094-8.909 9.24.015-.224.04-.436.04-.679 0-3.705-.048-7.475-.099-10.431 1.729-1.679 3.06-2.958 3.615-3.49zm-12.426 4.356c.88-.18 2.39-.435 3.91-.435 1.557 0 3.121.273 3.916.435.02 1.233.038 2.583.053 3.992-.87-.172-2.42-.428-3.969-.428-1.523 0-3.029.24-3.966.426.016-1.409.035-2.759.056-3.991zm3.91-6.435c1.608 0 3.121.273 3.795.415.019.764.062 2.599.104 4.998-.881-.171-2.386-.413-3.898-.413-1.483 0-2.95.228-3.892.411.044-2.4.09-4.236.11-5 .671-.14 2.175-.411 3.782-.411zm-4 16c0-1.526.009-3.061.023-4.55.749-.156 2.371-.45 3.977-.45s3.208.289 3.978.449c.013 1.489.022 3.025.022 4.551 0 2.953-1.047 4-4 4s-4-1.047-4-4zm19.585 3.795c-1.41.035-6.456.151-11.996.191.471-.395.822-.909 1.051-1.56 2.202-2.219 4.379-4.465 6.157-6.315 2.3.044 4.051.087 4.79.106.141.672.412 2.176.412 3.782s-.273 3.121-.415 3.795zm-15.585-3.045c-.414 0-.75-.336-.75-.75s.336-.75.75-.75.75.336.75.75-.336.75-.75.75z"/></svg>