<?xml version="1.0" encoding="UTF-8"?>
<svg xmlns="http://www.w3.org/2000/svg" id="Layer_1" data-name="Layer 1" viewBox="0 0 24 24">
  <path d="M15.751,7.168c1.068,.731,1.742,.56,1.853,.539,.58-.109,1.093-.5,1.568-1.198,.938-1.377,.733-2.5-.627-3.433-.435-.299-1.105-.683-1.853-.539-.58,.109-1.093,.5-1.568,1.197-.939,1.377-.735,2.501,.627,3.434Zm.199-2.87c.313-.46,.625-.722,.926-.778,.046-.009,.459-.084,1.104,.38,.783,.564,1.071,1.012,.367,2.045-.313,.46-.625,.722-.927,.778-.29,.059-.644-.065-1.103-.38-.795-.546-1.071-1.013-.366-2.046Z"/>
  <path d="M5.973,5.683c1.202-.354,2.498-.174,3.544,.483l1.591,1.072c-2.336,1.231-3.695,2.834-4.482,5.247-.085,.263,.058,.545,.32,.631,.052,.017,.104,.024,.155,.024,.21,0,.407-.134,.476-.345,.75-2.302,2.096-3.779,4.483-4.916l5.806,3.912c.085,.058,.183,.085,.279,.085,.161,0,.318-.077,.415-.221,.154-.229,.094-.54-.135-.694L10.063,5.329c-1.302-.821-2.896-1.04-4.373-.604-.265,.078-.416,.356-.338,.621,.078,.265,.356,.418,.621,.338Z"/>
  <path d="M1.5,17.158c1.099,0,2.068-.572,2.625-1.434,.557,.862,1.526,1.434,2.625,1.434s2.068-.572,2.625-1.434c.557,.862,1.526,1.434,2.625,1.434s2.068-.572,2.625-1.434c.557,.862,1.526,1.434,2.625,1.434s2.068-.572,2.625-1.434c.557,.862,1.526,1.434,2.625,1.434,.276,0,.5-.224,.5-.5s-.224-.5-.5-.5c-1.172,0-2.125-.957-2.125-2.132,0-.276-.224-.5-.5-.5s-.5,.224-.5,.5c0,1.175-.953,2.132-2.125,2.132s-2.125-.957-2.125-2.132c0-.276-.224-.5-.5-.5s-.5,.224-.5,.5c0,1.175-.953,2.132-2.125,2.132s-2.125-.957-2.125-2.132c0-.276-.224-.5-.5-.5s-.5,.224-.5,.5c0,1.175-.953,2.132-2.125,2.132s-2.125-.957-2.125-2.132c0-.276-.224-.5-.5-.5s-.5,.224-.5,.5c0,1.175-.953,2.132-2.125,2.132-.276,0-.5,.224-.5,.5s.224,.5,.5,.5Z"/>
  <path d="M22.5,20.493c-1.172,0-2.125-.957-2.125-2.132,0-.276-.224-.5-.5-.5s-.5,.224-.5,.5c0,1.175-.953,2.132-2.125,2.132s-2.125-.957-2.125-2.132c0-.276-.224-.5-.5-.5s-.5,.224-.5,.5c0,1.175-.953,2.132-2.125,2.132s-2.125-.957-2.125-2.132c0-.276-.224-.5-.5-.5s-.5,.224-.5,.5c0,1.175-.953,2.132-2.125,2.132s-2.125-.957-2.125-2.132c0-.276-.224-.5-.5-.5s-.5,.224-.5,.5c0,1.175-.953,2.132-2.125,2.132-.276,0-.5,.224-.5,.5s.224,.5,.5,.5c1.099,0,2.068-.572,2.625-1.434,.557,.862,1.526,1.434,2.625,1.434s2.068-.572,2.625-1.434c.557,.862,1.526,1.434,2.625,1.434s2.068-.572,2.625-1.434c.557,.862,1.526,1.434,2.625,1.434s2.068-.572,2.625-1.434c.557,.862,1.526,1.434,2.625,1.434,.276,0,.5-.224,.5-.5s-.224-.5-.5-.5Z"/>
</svg>
