<svg id="Layer_1" viewBox="0 0 24 24" xmlns="http://www.w3.org/2000/svg" data-name="Layer 1"><path d="m4.5 18c.018 0 .037 0 .056-.003.274-.031.472-.278.442-.552-.112-1.011-.268-2.414-.337-3.945h11.062c.054 1.785.19 3.249.28 4.055.028.255.245.445.496.445.019 0 .037 0 .056-.003.274-.03.473-.278.442-.552-.111-1.001-.297-3.041-.297-5.445 0-4.618 1.012-8.422 1.234-9.205.182-.088.787-.295 2.466-.295.276 0 .5-.224.5-.5s-.224-.5-.5-.5c-1.91 0-3.065.262-3.338.759-.017.03-.03.061-.04.093-.035.114-.588 1.924-.968 4.649-.008 0-.016-.001-.024-.001h-11.015c.34-2.235.798-3.818.919-4.216.16-.081.729-.284 2.391-.284.276 0 .5-.224.5-.5s-.224-.5-.5-.5c-1.966 0-3.073.274-3.3.844-.057.174-1.4 4.329-1.4 9.656 0 2.149.228 4.199.378 5.555.028.256.245.445.497.445zm11.429-10c-.136 1.211-.229 2.563-.229 4 0 .169 0 .335.003.5h-11.074c-.003-.166-.004-.333-.004-.5 0-1.434.103-2.79.253-4z"/><path d="m22.844 21.137c-.074-.071-.766-.69-2.094-.69-.574 0-1.142.181-1.597.51l-.309.222c-.572.413-1.45.413-2.023 0l-.308-.222c-.911-.658-2.285-.657-3.193 0l-.309.222c-.572.414-1.451.415-2.024 0l-.307-.221c-.913-.659-2.285-.657-3.194 0l-.308.222c-.573.414-1.45.415-2.024 0l-.308-.221c-.456-.329-1.022-.51-1.597-.51-1.328 0-2.02.619-2.094.69-.199.188-.207.498-.021.699.185.202.5.214.704.032.019-.017.481-.42 1.411-.42.366 0 .726.114 1.012.321l.307.221c.912.658 2.284.658 3.194 0l.308-.222c.572-.414 1.45-.415 2.024 0l.308.221c.911.658 2.284.658 3.194 0l.309-.222c.571-.414 1.45-.414 2.023 0l.308.222c.455.329 1.022.51 1.597.51s1.143-.181 1.597-.51l.308-.222c.287-.207.647-.321 1.013-.321.931 0 1.392.403 1.406.416.2.19.516.182.707-.019.189-.201.181-.517-.02-.707z"/></svg>