<svg id="Layer_1" viewBox="0 0 24 24" xmlns="http://www.w3.org/2000/svg" data-name="Layer 1"><path d="m23 12.561c0 4.965-1.066 7.158-2.301 9.698-.065.136-.19.235-.338.269-.084.02-2.103.472-5.272.472-3.054 0-4.539-.273-5.169-.443-.232-.063-.448-.173-.638-.32-3.92-3.027-5.213-7.594-5.23-7.726-.212-1.101.32-2.2 1.286-2.705.955-.499 2.1-.364 2.916.342.043.04.703.651 1.493 1.646.217-1.243.268-2.135.268-3.026 0-3.005-.408-4.512-.706-5.613-.088-.327-.168-.623-.23-.916-.28-1.339.463-2.75 1.776-3.133 1.455-.425 2.869.451 3.294 1.977.355 1.28.767 3.122.844 6.128 4.654.604 7.022 2.272 7.837 2.975.108.093.172.232.172.374zm-1.001.237c-.912-.729-3.203-2.158-7.555-2.645-.25-.028-.44-.238-.444-.49-.045-3.152-.459-5.028-.815-6.311-.256-.92-1.047-1.476-1.875-1.327-.867.16-1.443.996-1.283 1.863.06.323.147.645.245 1.006.312 1.155.741 2.736.741 5.874 0 1.198-.086 2.394-.507 4.336-.042.195-.196.347-.392.385-.195.041-.395-.042-.508-.206-.989-1.431-2.01-2.38-2.02-2.389-.5-.434-1.189-.515-1.786-.201-.578.302-.896.958-.773 1.598.004.01 1.165 4.282 4.966 7.243.234.08 1.544.465 5.096.465 2.451 0 4.213-.286 4.819-.4 1.114-2.296 2.059-4.376 2.091-8.801zm-17.199-11.698c1.176.881 2.219 1.924 3.1 3.1.165.219.122.534-.1.7-.221.166-.534.121-.7-.1-.614-.818-1.33-1.547-2.1-2.217v6.918c0 .276-.224.5-.5.5s-.5-.224-.5-.5v-6.919c-.77.67-1.486 1.399-2.1 2.217-.166.221-.479.266-.7.1-.222-.166-.265-.479-.1-.7.881-1.176 1.924-2.219 3.1-3.1 0 0 .128-.1.3-.1.147 0 .3.1.3.1z"/></svg>