<svg id="Layer_1" viewBox="0 0 24 24" xmlns="http://www.w3.org/2000/svg" data-name="Layer 1"><path d="m22.9 4.8c-.881 1.176-1.924 2.219-3.1 3.1-.219.165-.534.122-.7-.1-.166-.221-.121-.534.1-.7.818-.614 1.547-1.33 2.217-2.1h-6.918c-.276 0-.5-.224-.5-.5s.224-.5.5-.5h6.918c-.67-.77-1.399-1.486-2.217-2.1-.221-.166-.266-.479-.1-.7.166-.222.479-.265.7-.1 1.176.881 2.219 1.924 3.1 3.1 0 0 .1.128.1.3 0 .147-.1.3-.1.3zm-3.072 7.387c.108.093.172.231.172.373 0 4.965-1.066 7.159-2.301 9.7-.066.136-.191.235-.338.269-.084.02-2.102.472-5.272.472-3.298 0-4.766-.318-5.304-.482-.154-.047-.3-.126-.428-.223-3.979-3.027-5.289-7.651-5.306-7.784-.212-1.101.32-2.2 1.286-2.705.955-.499 2.1-.364 2.916.342.043.04.703.651 1.493 1.646.217-1.243.268-2.135.268-3.026 0-3.005-.408-4.512-.706-5.613-.084-.311-.161-.596-.221-.875-.287-1.336.401-2.736 1.703-3.154 1.473-.473 2.928.406 3.359 1.957.355 1.277.767 3.117.844 6.127 4.652.604 7.022 2.272 7.837 2.975zm-.829.612c-.913-.729-3.205-2.158-7.555-2.645-.25-.028-.441-.238-.444-.49-.044-3.157-.459-5.031-.816-6.311-.256-.92-1.04-1.476-1.875-1.328-.867.16-1.443.996-1.283 1.863.06.323.147.645.245 1.006.312 1.155.741 2.736.741 5.874 0 1.198-.086 2.394-.507 4.336-.042.195-.196.347-.392.385-.195.041-.396-.042-.508-.206-.989-1.431-2.01-2.38-2.02-2.389-.5-.434-1.189-.515-1.786-.201-.578.302-.896.958-.773 1.598.004.01 1.165 4.282 4.966 7.243.234.08 1.544.465 5.096.465 2.451 0 4.213-.286 4.819-.4 1.115-2.297 2.059-4.376 2.091-8.801z"/></svg>