<?xml version="1.0" encoding="UTF-8"?>
<svg xmlns="http://www.w3.org/2000/svg" id="Layer_1" data-name="Layer 1" viewBox="0 0 24 24">
  <path d="M22.853,6.451L17.556,1.163c-.194-.194-.512-.195-.707,0-.195,.195-.195,.512,0,.707l2.294,2.29-1.903,1.9c-1.424-1.251-3.047-1.779-3.121-1.803-.098-.031-.202-.032-.299-.001-.097,.03-2.406,.766-5.836,4.192-3.41,3.406-4.165,5.732-4.197,5.834-.02,.064-.474,1.585-.516,3.097-.036,1.3,.04,2.137,.092,2.535l-2.217,2.213c-.196,.195-.196,.512,0,.707,.098,.098,.226,.147,.354,.147s.256-.049,.353-.146l2.218-2.214c.637,.127,2.305,.098,2.539,.092,1.514-.042,3.037-.496,3.105-.517,.098-.031,2.426-.784,5.836-4.19,3.43-3.426,4.168-5.733,4.198-5.83,.031-.101,.029-.21-.005-.31-.026-.076-.605-1.727-1.797-3.099l1.905-1.902,2.296,2.292c.097,.097,.225,.146,.353,.146s.256-.049,.354-.147c.195-.195,.195-.512,0-.707ZM14.844,15.301c-3.211,3.208-5.407,3.936-5.422,3.941-.015,.004-1.458,.435-2.84,.473-1.1,.029-1.844-.024-2.243-.067-.044-.398-.098-1.143-.067-2.24,.038-1.375,.468-2.821,.471-2.829,.003-.01,.164-.494,.662-1.334l1.342,1.34c.097,.097,.225,.146,.353,.146s.256-.049,.354-.147c.195-.195,.195-.512,0-.707l-1.496-1.493c.438-.636,1.02-1.39,1.787-2.235l1.723,1.72c.097,.097,.225,.146,.353,.146s.256-.049,.354-.147c.195-.195,.195-.512,0-.707l-1.743-1.74c.085-.087,.172-.175,.261-.264,.656-.655,1.268-1.206,1.828-1.669l1.668,1.665c.097,.097,.225,.146,.353,.146s.256-.049,.354-.147c.195-.195,.195-.512,0-.707l-1.584-1.581c1.368-1.026,2.316-1.458,2.661-1.597,.458,.172,1.834,.751,2.923,1.838,1.039,1.038,1.656,2.454,1.844,2.928-.22,.545-1.147,2.526-3.893,5.268Z"/>
</svg>
