<svg id="Layer_1" viewBox="0 0 24 24" xmlns="http://www.w3.org/2000/svg" data-name="Layer 1"><path d="m22.436 5.508c-.033-.182-.164-.33-.34-.386-.127-.041-.634-.192-1.504-.371-.094-.581-.194-1.16-.315-1.707-.043-.194-.197-.345-.394-.383-.723-.14-1.506-.26-2.325-.356-.271-.043-.523.164-.555.438-.033.274.163.522.438.555.674.08 1.321.176 1.929.286.066.315.118.648.174.975-1.038-.173-2.387-.343-4.054-.449-.132-.724-.262-1.299-.352-1.662-.054-.213-.24-.367-.46-.378-.9-.047-1.776-.069-2.679-.069-.276 0-.5.224-.5.5s.224.5.5.5c.76 0 1.501.017 2.255.05.062.269.133.619.207 1.004-.765-.033-1.582-.054-2.461-.054-.425 0-1.144.011-1.711.023-.104-.56-.218-1.094-.342-1.593-.057-.23-.243-.404-.508-.378-4.752.211-6.968.993-7.06 1.026-.147.054-.262.174-.308.323-.044.143-1.072 3.541-1.072 8.598s1.028 8.455 1.072 8.598c.047.154.166.275.319.327.132.044 3.3 1.075 9.608 1.075s9.477-1.031 9.608-1.075c.153-.052.272-.173.319-.327.044-.143 1.072-3.541 1.072-8.598 0-3.103-.395-5.574-.564-6.492zm-19.478-1.562c.652-.19 2.648-.689 6.114-.875.111.487.215 1.006.307 1.546.042.246.258.415.507.416.564-.016 1.578-.033 2.114-.033 5.406 0 8.546.728 9.506.991.109.636.264 1.694.371 3.021-1.205-.315-4.471-1.013-9.877-1.013s-8.664.695-9.872 1.011c.219-2.585.659-4.425.83-5.065zm18.086 16.103c-.854.233-3.892.951-9.044.951s-8.19-.718-9.044-.951c-.232-.874-.956-3.92-.956-8.049 0-.679.025-1.316.058-1.932.717-.206 4.057-1.068 9.942-1.068s9.251.868 9.949 1.07c.032.605.051 1.252.051 1.93 0 4.129-.724 7.175-.956 8.049z"/></svg>