<?xml version="1.0" encoding="UTF-8"?>
<svg xmlns="http://www.w3.org/2000/svg" id="Layer_1" data-name="Layer 1" viewBox="0 0 24 24">
  <path d="M20.658,2.578c-.044-.164-.168-.294-.33-.346-.157-.05-3.897-1.232-8.328-1.232S3.829,2.182,3.672,2.232c-.162,.052-.287,.183-.331,.348-.044,.166-1.08,4.122-1.08,9.42,0,5.344,1.036,9.258,1.081,9.422,.044,.164,.168,.294,.33,.346,.157,.05,3.897,1.232,8.328,1.232s8.171-1.182,8.328-1.232c.162-.052,.287-.183,.331-.348,.044-.166,1.08-4.122,1.08-9.42,0-5.344-1.036-9.258-1.081-9.422ZM4.241,3.105c.925-.265,4.146-1.105,7.759-1.105s6.836,.841,7.759,1.105c.23,.969,.98,4.467,.98,8.895,0,1.766-.121,3.391-.281,4.767H3.54c-.159-1.372-.279-2.995-.279-4.767,0-4.393,.751-7.918,.98-8.895Zm15.518,17.789c-.925,.265-4.146,1.105-7.759,1.105s-6.836-.841-7.759-1.105c-.115-.482-.358-1.59-.573-3.127h7.832v1.366c0,.276,.224,.5,.5,.5s.5-.224,.5-.5v-1.366h7.83c-.215,1.533-.457,2.643-.571,3.127Z"/>
</svg>
