<svg id="Layer_1" viewBox="0 0 24 24" xmlns="http://www.w3.org/2000/svg" data-name="Layer 1"><path d="m19.837 2.381c-.05-.139-.159-.249-.297-.3-.119-.044-2.97-1.081-7.54-1.081s-7.421 1.037-7.541 1.081c-.138.051-.247.161-.297.3-.047.132-1.163 3.305-1.163 9.619s1.115 9.487 1.163 9.619c.05.139.159.249.297.3.119.044 2.97 1.081 7.541 1.081s7.421-1.037 7.54-1.081c.138-.051.247-.161.297-.3.047-.132 1.163-3.305 1.163-9.619s-1.116-9.487-1.163-9.619zm-.87 18.676c-.747.235-3.299.943-6.967.943s-6.22-.708-6.967-.943c-.245-.819-1.033-3.862-1.033-9.057s.788-8.237 1.033-9.057c.748-.235 3.3-.943 6.967-.943s6.22.708 6.967.943c.245.818 1.033 3.861 1.033 9.057s-.788 8.238-1.033 9.057zm-4.967-2.557c0 .276-.224.5-.5.5h-3c-.276 0-.5-.224-.5-.5s.224-.5.5-.5h3c.276 0 .5.224.5.5z"/></svg>