<svg id="Layer_1" viewBox="0 0 24 24" xmlns="http://www.w3.org/2000/svg" data-name="Layer 1"><path d="m21.929 3.435c-.041-.165-.163-.298-.324-.353-.13-.044-3.262-1.082-9.605-1.082s-9.475 1.038-9.605 1.082c-.161.055-.283.188-.324.353-.044.175-1.071 4.33-1.071 8.565s1.027 8.391 1.071 8.565c.041.165.163.298.324.353.13.044 3.262 1.082 9.605 1.082s9.475-1.038 9.605-1.082c.161-.055.283-.188.324-.353.044-.175 1.071-4.33 1.071-8.565s-1.027-8.391-1.071-8.565zm-.905.518c.138.605.466 2.148.704 4.048h-13.728v-4.839c1.152-.095 2.47-.162 4-.162 5.151 0 8.161.714 9.024.952zm-18.048-.001c.53-.146 1.877-.471 4.024-.701v4.748h-4.728c.238-1.9.567-3.443.704-4.048zm-.976 8.048c0-1.018.064-2.038.16-3h4.84v11.748c-2.147-.23-3.494-.554-4.024-.701-.228-.998-.976-4.546-.976-8.048zm19.024 8.048c-.863.238-3.873.952-9.024.952-1.53 0-2.848-.067-4-.162v-11.838h13.84c.095.962.16 1.982.16 3 0 3.502-.749 7.05-.976 8.048zm-.124-6.848c.166.221.121.534-.1.7-.219.164-.534.121-.7-.101-.328-.437-.704-.831-1.1-1.204v2.905c0 1.379-1.122 2.5-2.5 2.5h-3.905c.374.397.768.773 1.205 1.1.221.166.266.479.1.7-.166.222-.481.265-.7.101-.777-.582-1.465-1.273-2.053-2.046-.188-.193-.188-.516 0-.709.588-.773 1.276-1.464 2.053-2.046.222-.166.535-.12.7.101.166.221.121.534-.1.7-.437.327-.831.703-1.205 1.1h3.905c.827 0 1.5-.673 1.5-1.5v-2.905c-.396.373-.772.768-1.1 1.204-.166.221-.479.268-.7.101-.221-.166-.266-.479-.1-.7.597-.797 1.304-1.503 2.1-2.101.178-.133.422-.133.6 0 .796.597 1.502 1.304 2.1 2.101z"/></svg>