<svg id="Layer_1" viewBox="0 0 24 24" xmlns="http://www.w3.org/2000/svg" data-name="Layer 1"><path d="m21.93 3.435c-.042-.165-.164-.298-.324-.353-.131-.044-3.263-1.082-9.605-1.082s-9.476 1.038-9.606 1.082c-.161.055-.283.188-.324.353-.044.175-1.071 4.33-1.071 8.565s1.027 8.391 1.071 8.565c.041.165.163.298.324.353.13.044 3.262 1.082 9.605 1.082s9.475-1.038 9.605-1.082c.16-.055.282-.188.324-.353.043-.175 1.07-4.33 1.07-8.565s-1.027-8.391-1.07-8.565zm-.905.518c.217.951.904 4.214.969 7.548h-13.994v-8.339c1.152-.095 2.47-.162 4-.162 5.15 0 8.161.714 9.024.952zm-19.025 8.047c0-3.502.749-7.05.976-8.048.53-.146 1.877-.471 4.024-.701v17.497c-2.147-.23-3.494-.554-4.024-.701-.228-.998-.976-4.546-.976-8.048zm19.024 8.048c-.863.238-3.874.952-9.024.952-1.53 0-2.848-.067-4-.162v-8.338h13.994c-.065 3.334-.752 6.597-.969 7.548z"/></svg>