<?xml version="1.0" encoding="UTF-8"?>
<svg xmlns="http://www.w3.org/2000/svg" id="Layer_1" data-name="Layer 1" viewBox="0 0 24 24">
  <path d="M12,11.648c-.309,0-.6,.08-.853,.22l-2.992-2.928c-.198-.192-.514-.189-.707,.008s-.189,.514,.008,.707l2.986,2.922c-.137,.252-.215,.541-.215,.848,0,.98,.796,1.777,1.773,1.777s1.773-.797,1.773-1.777-.796-1.776-1.773-1.776Zm0,2.554c-.427,0-.773-.349-.773-.777s.347-.776,.773-.776,.773,.349,.773,.776-.347,.777-.773,.777Z"/>
  <path d="M12,2.019C4.29,2.019,1,5.316,1,13.047c0,2.514,.376,4.909,1.059,6.745,.323,.869,.994,1.571,1.842,1.929,.849,.357,1.781,.348,2.626-.025l2.181-.968c.252-.112,.366-.407,.254-.66-.112-.254-.407-.364-.66-.254l-2.181,.968c-.588,.261-1.238,.268-1.831,.018-.604-.254-1.062-.735-1.293-1.354-.643-1.728-.996-4-.996-6.397C2,5.924,4.897,3.019,12,3.019s10,2.905,10,10.028c0,2.396-.351,4.667-.985,6.394-.229,.62-.687,1.102-1.29,1.357-.594,.251-1.245,.245-1.833-.015l-2.193-.97c-.251-.112-.548,.003-.659,.255-.112,.253,.002,.548,.255,.659l2.193,.97c.431,.19,.884,.286,1.337,.286,.437,0,.874-.089,1.291-.266,.847-.358,1.517-1.062,1.837-1.932,.676-1.835,1.048-4.228,1.048-6.739,0-9.774-5.879-11.028-11-11.028Z"/>
</svg>
