<?xml version="1.0" encoding="UTF-8"?>
<svg xmlns="http://www.w3.org/2000/svg" id="Layer_1" data-name="Layer 1" viewBox="0 0 24 24">
  <path d="M12,1.812C4.29,1.812,1,5.11,1,12.84c0,3.917,.896,6.693,2.738,8.489,.062,.06,.137,.103,.22,.125,.112,.029,2.809,.733,8.042,.733s7.945-.703,8.058-.733c.084-.022,.16-.065,.222-.126,1.831-1.79,2.721-4.567,2.721-8.488C23,3.065,17.121,1.812,12,1.812Zm7.676,18.705c-.586,.135-3.206,.67-7.676,.67s-7.077-.536-7.659-.67c-1.575-1.603-2.341-4.116-2.341-7.678C2,5.718,4.897,2.812,12,2.812s10,2.905,10,10.027c0,3.566-.761,6.08-2.324,7.678Z"/>
  <path d="M12,6.023c-4.546,0-6.604,.86-6.786,5.959-.01,.275,.206,.508,.482,.518,.277,.021,.508-.206,.518-.482,.153-4.306,1.51-4.994,5.786-4.994,4.493,0,5.8,.764,5.8,5.816,0,1.766-.232,3.172-.671,4.064-.122,.248-.021,.548,.228,.669,.071,.035,.146,.052,.221,.052,.185,0,.361-.103,.448-.279,.514-1.044,.774-2.561,.774-4.506,0-5.869-2.005-6.816-6.8-6.816Z"/>
  <path d="M12,11.063c-.978,0-1.773,.797-1.773,1.776,0,.236,.047,.461,.13,.667l-3.278,2.03c-.234,.146-.307,.453-.161,.688,.095,.152,.258,.236,.425,.236,.09,0,.182-.024,.264-.075l3.378-2.092c.288,.202,.638,.321,1.016,.321,.978,0,1.773-.797,1.773-1.776s-.796-1.776-1.773-1.776Zm0,2.553c-.427,0-.773-.349-.773-.776s.347-.776,.773-.776,.773,.349,.773,.776-.347,.776-.773,.776Z"/>
</svg>
