<?xml version="1.0" encoding="UTF-8"?>
<svg xmlns="http://www.w3.org/2000/svg" id="Layer_1" data-name="Layer 1" viewBox="0 0 24 24">
  <path d="M23,7.554c0-1.759-1.402-3.804-3.211-3.804-.323,0-.644,.049-.949,.146-.39-1.36-1.636-2.349-3.085-2.349-.722,0-1.422,.25-1.984,.696-.562-.446-1.263-.696-1.984-.696-1.449,0-2.695,.989-3.084,2.349-.306-.096-.626-.146-.949-.146-1.809,0-3.211,2.045-3.211,3.804,0,2.41,.897,3.277,1.414,3.577-.779,1.355-1.227,2.929-1.227,4.607v3.597c-1.262-.699-2.28-1.284-2.729-1.543v-3.851c0-1.118,.218-2.201,.648-3.22,.107-.254-.012-.547-.266-.655-.253-.108-.547,.011-.655,.266-.482,1.142-.727,2.356-.727,3.608v4.139c0,.178,.094,.342,.248,.432,0,0,1.641,.959,3.722,2.098,.254,.161,3.034,1.843,8.801,1.843,5.905,0,8.699-1.777,8.815-1.853,.142-.093,.227-.25,.227-.419v-4.443c0-1.679-.447-3.253-1.227-4.608,.524-.301,1.415-1.166,1.415-3.576Zm-17.458,0c0-1.262,1.021-2.804,2.211-2.804,.379,0,.753,.1,1.082,.288,.15,.085,.333,.089,.484,.007,.152-.081,.251-.235,.263-.407,.081-1.173,1.049-2.092,2.205-2.092,.618,0,1.192,.254,1.616,.715,.189,.206,.547,.206,.736,0,.424-.461,.998-.715,1.616-.715,1.155,0,2.124,.919,2.205,2.092,.012,.172,.111,.326,.264,.407,.151,.082,.335,.079,.484-.007,.328-.188,.702-.288,1.081-.288,1.19,0,2.211,1.542,2.211,2.804,0,2.098-.758,2.628-.963,2.733-1.649-2.255-4.292-3.719-7.267-3.719s-5.618,1.465-7.267,3.72c-.204-.107-.962-.647-.962-2.734Zm16.271,12.335c-.754,.395-3.383,1.563-8.042,1.563s-7.293-1.168-8.042-1.562v-4.152c0-4.505,3.607-8.17,8.042-8.17s8.042,3.665,8.042,8.17v4.151Z"/>
  <g>
    <circle cx="14.84" cy="17.721" r=".75"/>
    <circle cx="18.859" cy="17.721" r=".75"/>
    <circle cx="16.71" cy="14.375" r=".75"/>
  </g>
</svg>
