<svg id="Layer_1" viewBox="0 0 24 24" xmlns="http://www.w3.org/2000/svg" data-name="Layer 1"><path d="m12.003 8c2.247-.013 3.457-1.22 3.498-3.508-.038-2.205-1.312-3.477-3.504-3.491-2.217.014-3.459 1.254-3.498 3.491v.018c.041 2.27 1.251 3.477 3.504 3.49zm-.006-6c1.656.011 2.475.831 2.504 2.491-.031 1.725-.804 2.499-2.498 2.509-1.697-.01-2.47-.781-2.504-2.5.032-1.695.828-2.489 2.498-2.5zm-5.04 14.183c-.112-.361-.428-.626-.802-.674-.314-.04-.604-.073-.878-.099-.128-.294-.266-.587-.413-.881-.177-.348-.536-.539-.828-.529-.386-.025-.724.182-.902.532-.145.291-.283.584-.411.878-.273.025-.562.059-.877.099-.375.048-.69.312-.804.676-.109.361 0 .757.283 1.009.2.178.396.353.591.521-.086.325-.159.651-.222.976-.068.359.067.722.356.948.175.135.384.204.595.204.138 0 .276-.03.406-.091.332-.153.644-.313.948-.488.303.174.615.335.944.486.331.157.716.112 1.006-.113.288-.225.424-.587.355-.945-.062-.325-.136-.651-.222-.976.194-.17.391-.344.592-.522.281-.251.392-.646.282-1.008 0 0 0 0 0-.002zm-1.763.979c-.149.128-.211.331-.156.519.115.398.21.798.329 1.162-.393-.181-.754-.373-1.105-.588-.16-.098-.361-.098-.521 0-.352.215-.713.407-1.062.623.076-.399.171-.799.286-1.197.055-.188-.007-.392-.156-.519-.27-.229-.539-.469-.833-.661.413-.054.781-.094 1.128-.119.188-.015.353-.133.425-.308.151-.366.319-.731.445-1.095.183.363.351.728.502 1.095.072.175.236.293.425.308.327.023.674.062 1.06.11-.26.231-.512.454-.765.67zm9.763 2.178c-.112-.361-.428-.627-.802-.675-.314-.04-.604-.073-.878-.099-.128-.293-.266-.586-.412-.879-.178-.351-.531-.565-.827-.529-.365-.032-.726.179-.904.531-.145.291-.283.584-.411.877-.273.025-.562.059-.877.099-.375.048-.69.313-.803.677-.111.36 0 .756.282 1.009.2.178.396.353.591.521-.086.325-.159.65-.222.975-.068.359.067.722.355.946.175.137.384.207.596.207.139 0 .277-.03.407-.091.332-.154.644-.314.947-.488.304.174.615.334.944.486.331.157.718.113 1.006-.114.288-.225.424-.587.355-.945-.062-.325-.136-.65-.222-.976.194-.17.391-.344.592-.522.282-.252.393-.647.281-1.008v-.002zm-1.763.978c-.15.127-.212.33-.157.519.115.4.21.8.33 1.164-.393-.182-.755-.374-1.107-.589-.16-.096-.359-.096-.519 0-.353.215-.715.407-1.063.623.076-.398.171-.798.286-1.198.055-.188-.007-.392-.157-.519-.27-.229-.538-.468-.832-.661.413-.054.781-.093 1.128-.118.188-.015.353-.133.425-.308.151-.366.319-.731.445-1.095.183.363.351.728.502 1.095.072.175.236.293.425.308.327.024.674.061 1.06.109-.26.231-.512.455-.765.67zm9.763-4.133s0 0 0-.002c-.112-.361-.428-.626-.802-.674-.314-.04-.604-.073-.878-.099-.128-.294-.266-.587-.413-.881-.177-.348-.54-.539-.828-.529-.388-.025-.724.182-.902.532-.145.291-.283.584-.411.878-.273.025-.562.059-.877.099-.375.048-.69.312-.804.676-.109.361 0 .757.283 1.009.2.178.396.353.591.521-.086.325-.159.651-.222.976-.068.359.067.722.356.948.175.135.384.204.595.204.138 0 .276-.03.406-.091.332-.153.644-.313.948-.488.303.174.615.335.944.486.332.157.717.112 1.006-.113.288-.225.424-.587.355-.945-.062-.325-.136-.651-.222-.976.194-.17.391-.344.592-.522.281-.251.392-.646.282-1.008zm-1.764.977c-.149.128-.211.331-.156.519.115.398.21.798.329 1.162-.393-.181-.754-.373-1.105-.588-.16-.098-.361-.098-.521 0-.352.215-.713.407-1.062.623.076-.399.171-.799.286-1.197.055-.188-.007-.392-.156-.519-.27-.229-.539-.469-.833-.661.413-.054.781-.094 1.128-.119.188-.015.353-.133.425-.308.151-.366.319-.731.445-1.095.183.363.351.728.502 1.095.072.175.236.293.425.308.327.023.674.062 1.06.11-.26.231-.512.454-.765.67zm-4.186-3.562c-.484-2.371-2.171-3.582-5.01-3.6-2.893.018-4.534 1.194-5.008 3.596-.054.27-.324.448-.587.394-.271-.054-.447-.316-.394-.587.564-2.86 2.636-4.383 5.989-4.403 3.337.021 5.406 1.543 5.991 4.399.055.27-.119.535-.39.591-.264.055-.536-.117-.591-.39z"/></svg>