<svg id="Layer_1" viewBox="0 0 24 24" xmlns="http://www.w3.org/2000/svg" data-name="Layer 1"><path d="m3.986 1.616c-.01.042-.986 4.225-.986 10.384s.977 10.343.986 10.384c.064.269-.102.538-.371.602-.262.064-.539-.1-.602-.371-.042-.174-1.014-4.33-1.014-10.616s.973-10.441 1.015-10.615c.064-.269.337-.433.602-.371.269.064.435.333.371.602zm5.014 10.384c0-6.16.977-10.343.986-10.384.064-.269-.102-.538-.371-.602-.266-.062-.538.102-.602.371-.042.174-1.014 4.33-1.014 10.616s.972 10.442 1.014 10.616c.063.271.34.435.602.371.269-.064.435-.333.371-.602-.01-.042-.986-4.225-.986-10.384z"/></svg>