<svg id="Layer_1" viewBox="0 0 24 24" xmlns="http://www.w3.org/2000/svg" data-name="Layer 1"><path d="m12 8c2.075 0 3-.925 3-3 0-1.266-.815-2.213-1.534-3.049-.123-.143-.244-.282-.356-.421-.274-.336-.679-.529-1.111-.53h-.004c-.43 0-.834.19-1.108.523-.11.134-.228.269-.347.406-.722.831-1.539 1.773-1.539 3.07 0 2.075.925 3 3 3zm-.705-5.415c.124-.144.247-.285.362-.425.114-.139.26-.16.337-.16.077 0 .224.021.34.163.118.146.244.292.373.44.635.738 1.292 1.502 1.292 2.396 0 1.514-.486 2-2 2s-2-.486-2-2c0-.924.658-1.682 1.295-2.415zm11.702 9.355c0-4.35-1.04-9.496-1.059-9.497-.042-.19-.19-.339-.381-.381-.022-.005-2.197-.479-5.003-.789-.27-.03-.521.167-.552.442-.03.274.168.521.442.552 2.132.236 3.89.567 4.582.706.212 1.06.876 4.629.963 8.255-.05.795-.41 1.762-2.49 1.773-1.905-.009-1.99-1.06-2.001-1.466.011-.279-.199-.529-.486-.534-.291-.011-.521.238-.514.523-.025.732-.293 1.468-1.997 1.477-1.735-.009-1.986-.769-2.003-1.512-.029-.256-.211-.485-.488-.488-.271.003-.495.218-.511.489-.016.698-.258 1.502-1.999 1.511-1.916-.01-1.991-1.073-2.001-1.473 0-.273-.201-.523-.488-.527-.281 0-.517.235-.513.518-.022.691-.28 1.473-1.996 1.482-2.18-.011-2.454-1.132-2.495-1.714.081-3.646.751-7.247.964-8.313.7-.141 2.491-.478 4.658-.715.274-.03.473-.277.442-.552s-.285-.47-.552-.442c-2.843.311-5.057.793-5.079.798-.19.042-.339.19-.381.381-.022-.13-1.128 5.828-1.062 9.558 0 4.667 1.051 9.509 1.062 9.558.042.19.19.339.381.381.049.011 4.891 1.062 9.558 1.062s9.509-1.051 9.558-1.062c.19-.042.339-.19.381-.381.008-.019 1.093-5.14 1.059-9.618zm-1.97 9.087c-1.137.228-5.148.973-9.027.973s-7.891-.745-9.027-.973c-.202-1.011-.813-4.296-.946-7.739.594.455 1.426.706 2.475.711 1.341-.007 2.085-.437 2.502-.977.498.626 1.349.971 2.497.977 1.331-.007 2.076-.431 2.494-.965.425.549 1.178.958 2.507.965 1.331-.006 2.083-.418 2.507-.97.499.621 1.348.965 2.492.97 1.165-.006 1.946-.285 2.471-.685-.135 3.433-.743 6.704-.945 7.712z"/></svg>