<svg id="Layer_1" viewBox="0 0 24 24" xmlns="http://www.w3.org/2000/svg" data-name="Layer 1"><path d="m22 17.051c0 .029-.006 2.935-.509 5.544-.052.274-.321.449-.586.396-.271-.053-.448-.314-.396-.586.359-1.86.469-4.037.487-5.041-2.966-1.388-6.744-2.115-8.555-2.33-.252-.029-.441-.242-.441-.496v-6.807c0-1.437-.6-1.731-1.5-1.731s-1.5.294-1.5 1.73l-.005 10.864c0 .21-.131.397-.328.47-.194.071-.418.014-.553-.146-1.103-1.298-2.404-2.52-2.418-2.531-.497-.431-1.188-.511-1.786-.199-.63.329-1.004 1.003-.89 1.602.007.042.341 2.168 2.109 4.4.172.217.136.531-.081.702-.215.172-.531.137-.702-.081-1.946-2.455-2.298-4.759-2.312-4.856-.193-1.016.386-2.116 1.413-2.653.956-.5 2.102-.363 2.918.343.052.048.787.737 1.631 1.642l.004-9.555c0-2.256 1.359-2.73 2.5-2.73s2.5.474 2.5 2.73v6.367c2.41.329 5.971 1.153 8.721 2.504.171.085.279.259.279.449zm-16.045-4.837c.215-.174.247-.489.072-.703-.691-.85-1.027-2.162-1.027-4.011 0-4.009 1.49-5.5 5.5-5.5s5.5 1.491 5.5 5.5c0 1.903-.357 3.24-1.092 4.087-.181.208-.158.524.05.705s.523.159.706-.05c.911-1.051 1.336-2.558 1.336-4.742 0-4.556-1.944-6.5-6.5-6.5s-6.5 1.944-6.5 6.5c0 2.118.397 3.593 1.252 4.642.174.215.49.246.703.072z"/></svg>