<svg id="Layer_1" viewBox="0 0 24 24" xmlns="http://www.w3.org/2000/svg" data-name="Layer 1"><path d="m9 11h-4.861c-.073-1.321-.13-2.983-.138-5h5.499v3c0 .276.224.5.5.5s.5-.224.5-.5v-3h6c.276 0 .5-.224.5-.5 0-1.563-.504-3.094-.525-3.158-.047-.14-.152-.251-.289-.306-.105-.042-2.63-1.036-6.186-1.036s-6.08.994-6.186 1.036c-.137.055-.242.167-.289.306-.021.064-.526 1.595-.526 3.158 0 .256 0 .506.002.752-1.11.039-2.002.954-2.002 2.073 0 1.144.931 2.075 2.075 2.075h.031c.144 3.104.387 4.596.401 4.683.033.196.179.355.372.403.028.007.271.067.621.145v1.371c0 1.196.725 2 1.805 2 .786 0 1.424-.543 1.625-1.383.064-.269-.101-.539-.37-.603-.267-.061-.538.102-.603.37-.044.186-.197.617-.653.617-.7 0-.805-.626-.805-1v-1.17c.53.094 1.087.17 1.5.17.276 0 .5-.224.5-.5s-.224-.5-.5-.5c-.696 0-1.958-.271-2.553-.408-.056-.43-.155-1.288-.245-2.592h4.799c.276 0 .5-.224.5-.5s-.224-.5-.5-.5zm-4.594-8.115c.673-.231 2.821-.885 5.594-.885s4.922.654 5.594.885c.111.388.324 1.223.388 2.115h-11.963c.064-.893.276-1.728.387-2.115zm-2.406 5.44c0-.572.449-1.041 1.012-1.073.011.777.03 1.492.053 2.148-.588-.005-1.065-.485-1.065-1.074z"/><path d="m22.888 16.701c-.031-.193-.172-.35-.361-.402-.005-.001-.014-.004-.028-.007-.038-3.448-1.009-5.431-1.051-5.515-.065-.13-.185-.226-.325-.261-.059-.015-1.065-.263-2.622-.409v-1.524c0-.133-.053-.26-.146-.354-.074-.075-.767-.729-2.1-.729s-2.024.654-2.099.729c-.094.094-.146.221-.146.354v1.524c-1.559.146-2.57.394-2.629.409-.142.036-.261.131-.327.262-.042.084-1.009 2.057-1.051 5.49-.069.017-.112.028-.124.032-.191.05-.334.208-.366.404-.004.028-.112.703-.112 1.598 0 .902.107 1.571.112 1.599.028.17.141.313.299.38.045.019.482.2 1.189.419v.803c0 .985.767 1.5 1.525 1.5.715 0 1.475-.526 1.475-1.5v-.135c.689.095 1.431.156 2.2.156.806 0 1.582-.067 2.3-.171v.149c0 .974.76 1.5 1.475 1.5.758 0 1.525-.515 1.525-1.5v-.835c.648-.204 1.045-.369 1.088-.387.159-.067.272-.211.3-.381.005-.028.112-.703.112-1.598 0-.903-.107-1.571-.112-1.599zm-7.879-7.873c.204-.131.617-.328 1.245-.328s1.044.198 1.246.327v1.206c-.393-.021-.81-.033-1.246-.033s-.852.012-1.245.033zm-3.152 2.605c.599-.125 2.281-.433 4.397-.433s3.793.307 4.39.433c.224.552.789 2.175.851 4.627-1.129-.232-3.067-.549-5.244-.549-2.131 0-4.077.305-5.244.535.064-2.444.627-4.061.85-4.613zm1.144 10.067c0 .395-.299.5-.475.5-.088 0-.525-.024-.525-.5v-.524c.309.077.644.153 1 .222v.301zm7.5 0c0 .476-.438.5-.525.5-.177 0-.475-.105-.475-.5v-.322c.357-.072.692-.149 1-.228zm1.437-2.042c-.769.284-3.114 1.063-5.736 1.063s-4.969-.779-5.737-1.063c-.028-.257-.063-.673-.063-1.159 0-.456.031-.853.059-1.113.461-.106 1.379-.299 2.542-.452v1.265c0 .276.224.5.5.5s.5-.224.5-.5v-1.378c.705-.067 1.467-.111 2.25-.111.789 0 1.55.045 2.25.112v1.377c0 .276.224.5.5.5s.5-.224.5-.5v-1.261c1.121.151 1.997.34 2.441.445.027.259.059.655.059 1.116 0 .483-.035.9-.063 1.159z"/></svg>