<svg id="Layer_1" viewBox="0 0 24 24" xmlns="http://www.w3.org/2000/svg" data-name="Layer 1"><path d="m11.002 9.005c0-.414.447-.749.998-.749s.998.335.998.749-.447.749-.998.749-.998-.335-.998-.749zm11.949 7.213c-.153 1.149-1.012 2.147-2.142 2.432.118.377.175.82.175 1.336 0 2.072-.924 2.995-2.995 2.995-.585 0-1.069-.083-1.477-.235-1.488.234-3.076.203-4.713.235-1.541 0-3.035-.061-4.446-.178-.378.12-.825.178-1.344.178-2.071 0-2.995-.923-2.995-2.995 0-.515.058-.959.175-1.336-1.129-.285-1.989-1.283-2.142-2.432-.114-.793.089-1.581.569-2.221.117-.131 2.099-2.251 4.624-3.83-.141-.641-.231-1.342-.231-2.161 0-.858.096-1.59.25-2.253-.087-.065-.197-.154-.304-.261-.655-.655-.947-1.199-.947-1.765s.292-1.109.948-1.765c1.31-1.31 2.219-1.31 3.529 0 .107.106.196.216.261.303.662-.155 1.394-.25 2.252-.25s1.59.095 2.252.25c.065-.087.155-.197.262-.304 1.269-1.267 2.258-1.268 3.529 0 1.27 1.27 1.27 2.259 0 3.529-.107.107-.216.196-.303.261.155.662.25 1.395.25 2.253 0 .819-.09 1.52-.231 2.161 2.525 1.579 4.505 3.698 4.591 3.791.513.679.715 1.467.602 2.26zm-7.667-13.609c.981.436 1.678 1.132 2.113 2.113.803-.822.787-1.205-.061-2.052-.848-.848-1.23-.864-2.053-.061zm-3.284.406c-3.639 0-4.992 1.353-4.992 4.992s1.353 4.992 4.992 4.992 4.992-1.353 4.992-4.992-1.353-4.992-4.992-4.992zm-5.397 1.708c.436-.981 1.132-1.678 2.113-2.113-.843-.826-1.182-.809-2.053.061-.848.848-.863 1.23-.061 2.053zm-2.908 13.043c.423-.452 1.059-.692 1.913-.75.014-.082 2.545-3.795 2.577-3.864-.753-.457-1.284-1.127-1.639-1.993-2.306 1.494-4.143 3.455-4.163 3.476-.287.388-.422.913-.347 1.442.109.85.813 1.56 1.658 1.689zm2.315 4.217c1.512 0 1.997-.486 1.997-1.997s-.485-1.997-1.997-1.997-1.997.486-1.997 1.997.485 1.997 1.997 1.997zm9.395-.127c-.277-.467-.41-1.085-.41-1.869 0-1.809.705-2.742 2.262-2.949l-2.128-3.567c-.844.341-1.865.526-3.129.526-1.145 0-2.095-.147-2.894-.426l-2.329 3.474c1.531.218 2.228 1.147 2.228 2.942 0 .798-.141 1.422-.428 1.892 2.231.13 4.621.123 6.828-.023zm4.582-1.87c0-1.511-.485-1.997-1.997-1.997s-1.997.486-1.997 1.997.485 1.997 1.997 1.997 1.997-.486 1.997-1.997zm1.597-5.39s-1.833-1.949-4.13-3.437c-.321.783-.797 1.396-1.443 1.843.011.03 2.39 3.982 2.388 4.014.851.059 1.485.298 1.906.75.845-.128 1.548-.839 1.658-1.689.076-.528-.059-1.054-.379-1.481z"/></svg>