<svg id="Layer_1" viewBox="0 0 24 24" xmlns="http://www.w3.org/2000/svg" data-name="Layer 1"><path d="m22.74 16.417c.149-1.379.26-2.906.26-4.417.136-2.184-.814-8.855-1.062-9.558-.042-.19-.19-.339-.381-.381-.048-.011-4.891-1.062-9.557-1.062s-9.509 1.052-9.557 1.063c-.191.042-.34.19-.381.381-.252.74-1.194 7.342-1.062 9.558-.136 2.184.814 8.855 1.062 9.558.042.19.19.339.381.381.048.011 4.891 1.062 9.557 1.062s9.509-1.051 9.557-1.062c.191-.042.34-.19.381-.381-.005.057.542-2.616.801-5.14zm-10.74-2.417c-2.799.065-8.079-.659-9.986-1.094-.008-.302-.014-.604-.014-.906s.006-.604.014-.906c1.922-.437 7.172-1.157 9.986-1.094 4.484 0 9.117.914 9.986 1.094.008.302.014.604.014.906s-.006.604-.014.906c-.869.18-5.502 1.094-9.986 1.094zm9.942-3.935c-.671-.134-2.118-.403-3.942-.639v-1.063c.012-1.406.483-1.864 1.915-1.864 1.248 0 1.642.377 1.809.989.091.815.169 1.685.219 2.576zm-4.942-.759c-1.399-.157-2.948-.277-4.5-.299v-.757c0-1.683.568-2.25 2.25-2.25s2.25.567 2.25 2.25zm-5.5-.299c-1.552.022-3.101.142-4.5.299 0-.133 0-.944 0-1.056 0-1.683.568-2.25 2.25-2.25s2.25.567 2.25 2.25zm-5.5.42c-1.824.236-3.271.505-3.942.639.049-.892.127-1.762.219-2.576.167-.612.562-.989 1.809-.989 1.432 0 1.902.458 1.915 1.864v1.063zm-3.942 4.508c.671.134 2.118.403 3.942.639v1.063c-.012 1.406-.483 1.864-1.915 1.864-1.248 0-1.642-.377-1.809-.989-.091-.815-.169-1.685-.219-2.576zm4.942.759c1.399.157 2.948.277 4.5.299v.757c0 1.683-.568 2.25-2.25 2.25s-2.25-.567-2.25-2.25c0 0 0-1.007 0-1.056zm5.5.299c1.552-.022 3.101-.142 4.5-.299v1.056c0 1.683-.568 2.25-2.25 2.25s-2.25-.567-2.25-2.25zm5.5-.42c1.824-.236 3.271-.505 3.942-.639-.049.892-.127 1.762-.219 2.576-.167.612-.562.989-1.809.989-1.432 0-1.902-.458-1.915-1.864v-1.063zm-6-12.573c3.879 0 7.891.745 9.027.973.098.487.29 1.505.479 2.813-.514-.235-1.096-.285-1.591-.285-1.074 0-1.828.28-2.304.841-.476-.91-1.403-1.341-2.861-1.341-1.353 0-2.246.371-2.75 1.15-.504-.779-1.397-1.15-2.75-1.15-1.458 0-2.385.43-2.861 1.341-.476-.561-1.23-.841-2.304-.841-.496 0-1.077.051-1.591.285.188-1.307.381-2.325.479-2.813 1.136-.228 5.148-.973 9.027-.973zm0 20c-3.879 0-7.891-.745-9.027-.973-.098-.487-.29-1.505-.479-2.813.514.235 1.096.285 1.591.285 1.074 0 1.828-.28 2.304-.841.476.91 1.403 1.341 2.861 1.341 1.353 0 2.246-.371 2.75-1.15.504.779 1.397 1.15 2.75 1.15 1.458 0 2.385-.43 2.861-1.341.476.561 1.23.841 2.304.841.496 0 1.077-.051 1.591-.285-.188 1.307-.381 2.325-.479 2.813-1.136.228-5.148.973-9.027.973z"/></svg>