<?xml version="1.0" encoding="UTF-8"?>
<svg xmlns="http://www.w3.org/2000/svg" id="Layer_1" data-name="Layer 1" viewBox="0 0 24 24">
  <path d="M21.895,4.315c-.966-2.144-3.074-3.218-3.164-3.263-.141-.07-.307-.07-.447,0-.089,.045-2.199,1.119-3.164,3.263-.113,.252-.002,.551,.251,.661,.312,.136,.578-.065,.661-.251,.489-1.087,1.356-1.866,1.976-2.318v7.25c0,.276,.224,.5,.5,.5s.5-.224,.5-.5V2.408c.62,.452,1.486,1.231,1.976,2.318,.114,.253,.412,.363,.661,.251,.252-.113,.364-.409,.251-.661Z"/>
  <path d="M12.825,10.329c-.01-1.713-.04-5.038-.086-5.747-.131-2.009-1.847-3.582-3.906-3.582s-3.775,1.573-3.906,3.582c-.044,.69-.076,3.914-.086,5.747-1.869,.981-2.779,2.931-2.779,5.944,0,5.962,3.619,6.727,6.771,6.727s6.772-.765,6.772-6.727c0-3.015-.91-4.964-2.78-5.944Zm-3.992,11.671c-3.464,0-5.771-.974-5.771-5.727,0-2.77,.789-4.414,2.483-5.175,.179-.08,.294-.258,.295-.454,.009-2.041,.043-5.352,.085-5.998,.097-1.484,1.374-2.646,2.908-2.646s2.812,1.162,2.908,2.646c.041,.638,.076,3.894,.086,5.998,0,.196,.116,.374,.296,.454,1.693,.76,2.482,2.404,2.482,5.175,0,4.067-1.673,5.727-5.772,5.727Z"/>
  <path d="M9.333,13.784V6.884c0-.276-.224-.5-.5-.5s-.5,.224-.5,.5v6.901c-1.169,.232-2.053,1.26-2.053,2.489,0,1.399,1.146,2.538,2.553,2.538s2.554-1.139,2.554-2.538c0-1.229-.884-2.257-2.054-2.489Zm-.5,4.027c-.856,0-1.553-.69-1.553-1.538s.696-1.538,1.553-1.538,1.554,.69,1.554,1.538-.697,1.538-1.554,1.538Z"/>
</svg>
