<?xml version="1.0" encoding="UTF-8"?>
<svg xmlns="http://www.w3.org/2000/svg" id="Layer_1" data-name="Layer 1" viewBox="0 0 24 24">
  <path d="M10.047,7.955c0-1.305-.939-2.394-2.177-2.628v-1.267c.447-.212,1.146-.716,1.519-1.876,.084-.263-.06-.545-.323-.629-.264-.085-.544,.06-.629,.322-.3,.933-.85,1.229-1.065,1.312-.222-.085-.769-.383-1.067-1.312-.084-.263-.364-.407-.629-.322-.263,.084-.407,.366-.323,.629,.373,1.16,1.072,1.664,1.519,1.876v1.267c-.595,.113-1.121,.423-1.507,.861l-1.083-.64c.045-.493-.034-1.353-.84-2.264-.183-.207-.5-.227-.706-.044-.207,.184-.227,.499-.043,.706,.65,.735,.625,1.363,.587,1.592-.185,.148-.718,.473-1.668,.257-.267-.056-.536,.11-.597,.379-.061,.27,.109,.537,.378,.598,.299,.066,.573,.095,.822,.095,.737,0,1.255-.247,1.561-.455l1.079,.637c-.103,.284-.159,.589-.159,.908s.056,.624,.159,.908l-1.08,.638c-.409-.278-1.196-.624-2.382-.361-.27,.061-.439,.328-.378,.598,.061,.269,.324,.438,.597,.379,.953-.217,1.486,.11,1.667,.255,.04,.235,.062,.862-.585,1.594-.183,.206-.164,.522,.043,.705,.095,.085,.213,.126,.332,.126,.138,0,.275-.057,.375-.169,.807-.911,.885-1.771,.84-2.264l1.083-.64c.386,.437,.912,.748,1.507,.861v1.267c-.447,.212-1.146,.717-1.519,1.876-.084,.263,.06,.545,.323,.629,.051,.017,.103,.024,.153,.024,.211,0,.408-.135,.476-.347,.373-1.159,1.131-1.337,1.155-1.342,.238-.043,.412-.25,.412-.492v-1.616c1.238-.235,2.177-1.324,2.177-2.628Zm-2.677,1.676c-.925,0-1.677-.752-1.677-1.676s.752-1.676,1.677-1.676,1.677,.752,1.677,1.676-.752,1.676-1.677,1.676Z"/>
  <path d="M20.254,10.341c-.01-1.704-.041-5.009-.085-5.7-.128-1.994-1.826-3.557-3.865-3.557s-3.736,1.562-3.865,3.557c-.045,.701-.076,4-.085,5.701-1.847,.975-2.746,2.908-2.746,5.897,0,5.918,3.578,6.677,6.696,6.677s6.696-.759,6.696-6.677c0-2.99-.899-4.925-2.746-5.898Zm-3.95,11.575c-3.419,0-5.696-.966-5.696-5.677,0-2.746,.778-4.376,2.45-5.129,.178-.081,.293-.258,.294-.454,.009-2.089,.043-5.319,.084-5.951,.095-1.47,1.354-2.621,2.867-2.621s2.772,1.151,2.867,2.621c.042,.651,.076,3.936,.085,5.95,0,.196,.116,.373,.295,.454,1.671,.753,2.45,2.383,2.45,5.13,0,4.032-1.65,5.677-5.696,5.677Z"/>
  <path d="M16.804,13.768v-3.637c0-.276-.224-.5-.5-.5s-.5,.224-.5,.5v3.637c-1.155,.232-2.028,1.252-2.028,2.472,0,1.391,1.134,2.522,2.528,2.522s2.528-1.132,2.528-2.522c0-1.22-.873-2.24-2.028-2.472Zm-.5,3.994c-.843,0-1.528-.683-1.528-1.522s.686-1.521,1.528-1.521,1.528,.683,1.528,1.521-.686,1.522-1.528,1.522Z"/>
</svg>
