<svg id="Layer_1" viewBox="0 0 24 24" xmlns="http://www.w3.org/2000/svg" data-name="Layer 1"><path d="m2.026 2.714c-.087-.262.054-.545.316-.633.132-.044 3.316-1.081 9.658-1.081s9.526 1.037 9.658 1.081c.262.088.403.37.316.632-.086.263-.367.405-.632.317-.031-.011-3.185-1.03-9.342-1.03s-9.311 1.02-9.342 1.03c-.255.086-.545-.052-.632-.316zm19.632 2.367c-.132-.044-3.316-1.081-9.658-1.081s-9.526 1.037-9.658 1.081c-.262.088-.403.371-.316.633.087.264.377.403.632.316.03-.01 2.998-.971 8.842-1.025v17.495c0 .276.224.5.5.5s.5-.224.5-.5v-17.495c5.823.054 8.812 1.015 8.842 1.025.265.09.545-.056.632-.317.087-.262-.054-.544-.316-.632z"/></svg>