<?xml version="1.0" encoding="UTF-8"?>
<svg xmlns="http://www.w3.org/2000/svg" id="Layer_1" data-name="Layer 1" viewBox="0 0 24 24">
  <path d="M19.233,4.799h0C12.824-1.58,8.134,1.449,4.767,4.799c-2.57,2.557-3.767,4.833-3.767,7.162,0,2.35,1.232,4.718,3.767,7.24,2.738,2.725,5.162,3.733,7.303,3.733,2.871,0,5.234-1.814,7.163-3.733,2.57-2.557,3.767-4.833,3.767-7.162,0-2.35-1.232-4.718-3.767-7.24Zm2.624,5.965c-.581,.085-1.226,.128-1.922,.128-4.842,0-6.817-1.964-6.817-6.781,0-.721,.04-1.355,.122-1.93,1.699,.364,3.425,1.472,5.288,3.327,1.86,1.851,2.958,3.582,3.329,5.256ZM2.143,13.235c.574-.081,1.209-.12,1.93-.12,4.842,0,6.817,1.964,6.817,6.781,0,.696-.044,1.341-.131,1.923-1.698-.364-3.424-1.473-5.287-3.327-1.861-1.851-2.959-3.583-3.329-5.257Zm16.385,5.257c-2.41,2.398-4.589,3.549-6.777,3.455,.092-.626,.139-1.313,.139-2.051,0-6.896-4.177-7.781-7.817-7.781-.766,0-1.445,.043-2.065,.129-.005-.094-.008-.189-.008-.283,0-2.045,1.104-4.096,3.472-6.453,2.319-2.307,4.423-3.46,6.528-3.46,.083,0,.166,.002,.249,.006-.088,.619-.131,1.295-.131,2.058,0,3.623,.889,7.781,7.817,7.781,.74,0,1.431-.046,2.057-.137,.005,.095,.008,.189,.008,.284,0,2.045-1.104,4.096-3.472,6.453Z"/>
</svg>
