<svg id="Layer_1" viewBox="0 0 24 24" xmlns="http://www.w3.org/2000/svg" data-name="Layer 1"><path d="m22.985 21.171c-.067.269-.34.428-.606.364-.021-.006-2.188-.535-5.379-.535s-5.357.529-5.379.535c-.261.066-.54-.094-.606-.364-.067-.268.096-.539.364-.606.092-.022 2.298-.564 5.621-.564s5.529.542 5.621.564c.268.067.431.339.364.606zm-21.222-18.097c-.235-.143-.544-.072-.688.163-.145.235-.072.543.163.688 3.536 2.184 6.446 4.899 8.656 8.074-2.21 3.175-5.121 5.891-8.656 8.074-.235.146-.308.453-.163.688.146.237.456.306.688.163 3.76-2.323 6.839-5.231 9.151-8.646.115-.169.115-.392 0-.561-2.312-3.411-5.391-6.32-9.151-8.643z"/></svg>