<?xml version="1.0" encoding="UTF-8"?>
<svg xmlns="http://www.w3.org/2000/svg" id="Layer_1" data-name="Layer 1" viewBox="0 0 24 24">
  <path d="M21.771,2.54c-.05-.163-.179-.289-.343-.336-.178-.05-4.412-1.229-9.428-1.229S2.751,2.154,2.572,2.204c-.164,.047-.294,.174-.343,.337-.051,.167-1.229,4.139-1.229,9.459,0,5.365,1.18,9.296,1.229,9.46,.05,.163,.179,.289,.343,.336,.178,.05,4.412,1.229,9.428,1.229s9.249-1.18,9.428-1.229c.164-.047,.294-.174,.343-.337,.051-.167,1.229-4.139,1.229-9.459,0-5.365-1.18-9.296-1.229-9.46Zm-.883,18.364c-1.011,.256-4.727,1.121-8.888,1.121s-7.881-.865-8.888-1.121c-.261-.964-1.112-4.461-1.112-8.904,0-4.4,.854-7.932,1.112-8.904,1.011-.256,4.727-1.121,8.888-1.121s7.881,.865,8.888,1.121c.261,.964,1.112,4.461,1.112,8.904,0,4.4-.854,7.932-1.112,8.904Z"/>
  <path d="M17.038,7.042c-.05-.163-.179-.289-.343-.336-.088-.024-2.198-.613-4.695-.613s-4.607,.589-4.696,.613c-.164,.047-.294,.174-.343,.337-.018,.058-.425,1.426-.567,3.402-.02,.275,.188,.515,.463,.535,.272,.022,.515-.188,.535-.463,.098-1.369,.335-2.441,.455-2.918,.577-.139,2.008-.444,3.653-.498v9.806h-2.985c-.276,0-.5,.224-.5,.5s.224,.5,.5,.5h6.97c.276,0,.5-.224,.5-.5s-.224-.5-.5-.5h-2.984V7.101c1.648,.054,3.077,.359,3.653,.498,.12,.474,.357,1.542,.455,2.917,.02,.264,.238,.465,.498,.465,.013,0,.024,0,.036,0,.276-.02,.483-.259,.464-.534-.143-1.99-.552-3.348-.568-3.404Z"/>
</svg>
