<svg id="Layer_1" viewBox="0 0 24 24" xmlns="http://www.w3.org/2000/svg" data-name="Layer 1"><path d="m4.001 4.464c.091-1.253.396-2.275.409-2.318.047-.155.167-.278.32-.33.1-.034 2.502-.816 7.269-.816s7.169.782 7.269.816c.154.051.273.174.32.33.013.043.319 1.065.41 2.318.02.275-.188.515-.463.535-.271.021-.516-.186-.535-.462-.057-.785-.21-1.483-.3-1.843-.685-.181-2.776-.641-6.201-.685v13.491c0 .276-.224.5-.5.5s-.5-.224-.5-.5v-13.492c-3.425.043-5.517.503-6.201.685-.09.36-.243 1.058-.3 1.843-.02.275-.266.489-.535.462-.275-.02-.482-.259-.462-.535zm18.899 14.736c-.88-1.174-1.923-2.217-3.101-3.1-.22-.165-.533-.121-.7.1-.165.221-.12.535.101.7.819.615 1.549 1.331 2.218 2.1h-18.836c.67-.77 1.399-1.486 2.217-2.1.221-.166.266-.479.1-.7-.166-.222-.479-.266-.7-.1-1.176.881-2.219 1.924-3.1 3.1-.133.178-.133.422 0 .6.881 1.176 1.924 2.219 3.1 3.1.219.165.533.122.7-.1.166-.221.121-.534-.1-.7-.818-.614-1.547-1.33-2.217-2.1h18.836c-.669.769-1.398 1.485-2.218 2.1-.221.166-.266.479-.101.7.168.222.481.264.7.1 1.178-.883 2.221-1.926 3.101-3.1.133-.178.133-.422 0-.6z"/></svg>