<svg id="Layer_1" viewBox="0 0 24 24" xmlns="http://www.w3.org/2000/svg" data-name="Layer 1"><path d="m22.189 5.35c-.05-.159-.176-.283-.336-.33-.142-.042-3.554-1.02-9.853-1.02s-9.711.979-9.853 1.02c-.16.047-.286.171-.336.33-.033.105-.811 2.62-.811 6.65s.778 6.545.811 6.65c.05.159.176.283.336.33.142.042 3.554 1.02 9.853 1.02s9.711-.979 9.853-1.02c.16-.047.286-.171.336-.33.033-.105.811-2.62.811-6.65s-.778-6.545-.811-6.65zm-.881 12.739c-.909.223-4.136.911-9.308.911s-8.399-.688-9.308-.911c-.191-.73-.692-2.946-.692-6.089s.501-5.358.692-6.089c.909-.223 4.136-.911 9.308-.911s8.399.688 9.308.911c.191.73.692 2.946.692 6.089s-.501 5.358-.692 6.089zm-5.558-3.089c0 .414-.336.75-.75.75s-.75-.336-.75-.75.336-.75.75-.75.75.336.75.75zm-3 0c0 .414-.336.75-.75.75s-.75-.336-.75-.75.336-.75.75-.75.75.336.75.75zm-1.776-6.01c-.086.264-.375.403-.63.319-.009-.003-.804-.251-2.344-.299v6.49c0 .276-.224.5-.5.5s-.5-.224-.5-.5v-6.49c-1.54.047-2.335.296-2.344.299-.261.085-.544-.058-.63-.319-.086-.262.055-.543.316-.63.044-.015 1.101-.359 3.158-.359s3.114.345 3.158.359c.261.087.402.369.316.63z"/></svg>