<svg id="Layer_1" viewBox="0 0 24 24" xmlns="http://www.w3.org/2000/svg" data-name="Layer 1"><path d="m12.5 14.531v-4.031c0-.276-.224-.5-.5-.5s-.5.224-.5.5v4.031c-1.357.15-2 .941-2 2.469 0 1.706.794 2.5 2.5 2.5s2.5-.794 2.5-2.5c0-1.527-.643-2.319-2-2.469zm-.5 3.969c-1.149 0-1.5-.351-1.5-1.5s.351-1.5 1.5-1.5 1.5.351 1.5 1.5-.351 1.5-1.5 1.5zm4-6.546v-6.954c0-2.767-1.233-4-4-4s-4 1.233-4 4v6.954c-1.363.924-2 2.538-2 5.046 0 4.206 1.794 6 6 6s6-1.794 6-6c0-2.508-.637-4.122-2-5.046zm-4 10.046c-3.645 0-5-1.355-5-5 0-2.295.54-3.633 1.751-4.339.154-.089.249-.254.249-.432v-7.229c0-2.215.785-3 3-3s3 .785 3 3v7.229c0 .178.095.343.249.432 1.211.706 1.751 2.044 1.751 4.339 0 3.645-1.355 5-5 5z"/></svg>