<?xml version="1.0" encoding="UTF-8"?>
<svg xmlns="http://www.w3.org/2000/svg" id="Layer_1" data-name="Layer 1" viewBox="0 0 24 24">
  <path d="M16.004,10.328c-.01-1.712-.04-5.038-.086-5.746-.131-2.009-1.852-3.582-3.918-3.582s-3.787,1.573-3.918,3.581c-.046,.701-.076,3.983-.086,5.748-1.877,.981-2.79,2.93-2.79,5.944,0,5.962,3.631,6.727,6.794,6.727s6.794-.765,6.794-6.727c0-3.016-.913-4.965-2.79-5.945Zm-4.004,11.672c-3.478,0-5.794-.974-5.794-5.727,0-2.77,.792-4.414,2.492-5.175,.18-.08,.295-.258,.296-.454,.01-2.033,.043-5.347,.086-5.998,.097-1.484,1.379-2.646,2.92-2.646s2.823,1.162,2.92,2.646c.041,.638,.076,3.894,.086,5.998,0,.197,.117,.374,.296,.454,1.7,.76,2.492,2.404,2.492,5.175,0,4.067-1.679,5.727-5.794,5.727Z"/>
  <path d="M12.5,13.784v-4.175c0-.276-.224-.5-.5-.5s-.5,.224-.5,.5v4.175c-1.173,.231-2.061,1.259-2.061,2.489,0,1.399,1.148,2.538,2.561,2.538s2.561-1.139,2.561-2.538c0-1.23-.887-2.258-2.061-2.489Zm-.5,4.027c-.86,0-1.561-.69-1.561-1.538s.7-1.538,1.561-1.538,1.561,.69,1.561,1.538-.7,1.538-1.561,1.538Z"/>
</svg>
