<svg id="Layer_1" viewBox="0 0 24 24" xmlns="http://www.w3.org/2000/svg" data-name="Layer 1"><path d="m5.5 18c-.995 0-1.5.505-1.5 1.5s.505 1.5 1.5 1.5 1.5-.505 1.5-1.5-.505-1.5-1.5-1.5zm0 2c-.439 0-.5-.061-.5-.5s.061-.5.5-.5.5.061.5.5-.061.5-.5.5zm13.078-15.933c-.742-2.091-2.525-3.067-5.578-3.067-2.556 0-4.19.67-5.104 2.102-.467-.069-.918-.102-1.396-.102-3.855 0-5.5 1.645-5.5 5.5 0 3.442 1.368 5.131 4.422 5.433.742 2.091 2.525 3.067 5.578 3.067 2.556 0 4.19-.67 5.104-2.102.467.069.918.102 1.396.102 3.855 0 5.5-1.645 5.5-5.5 0-3.442-1.368-5.131-4.422-5.433zm-1.078 9.933c-.533 0-1.031-.046-1.565-.144-.211-.033-.431.065-.532.259-.687 1.304-2.045 1.885-4.403 1.885-2.771 0-4.184-.801-4.724-2.678-.059-.203-.238-.347-.449-.36-2.754-.174-3.827-1.425-3.827-4.462 0-3.28 1.22-4.5 4.5-4.5.533 0 1.031.046 1.565.144.214.037.431-.065.532-.259.687-1.304 2.045-1.885 4.403-1.885 2.771 0 4.184.801 4.724 2.678.059.203.238.347.449.36 2.754.174 3.827 1.425 3.827 4.462 0 3.28-1.22 4.5-4.5 4.5zm-14.75 8c0 .414-.336.75-.75.75s-.75-.336-.75-.75.336-.75.75-.75.75.336.75.75z"/></svg>