<?xml version="1.0" encoding="UTF-8"?>
<svg xmlns="http://www.w3.org/2000/svg" id="Layer_1" data-name="Layer 1" viewBox="0 0 24 24">
  <path d="M16.026,15.544h-2.434l.641-2.854c.042-.185-.025-.377-.172-.497-.046-.038-1.152-.926-2.477-.926-1.355,0-2.455,.889-2.501,.927-.083,.068-.143,.162-.168,.267l-1.426,5.746c-.037,.149-.003,.307,.091,.428,.095,.122,.24,.192,.394,.192h2.334l-.487,3.606c-.022,.169,.038,.341,.171,.447,.215,.173,.421,.113,.468,.1,4.179-1.25,5.967-6.554,6.041-6.779,.05-.152,.024-.319-.07-.449-.094-.13-.245-.207-.405-.207Zm-5.101,6.188l.451-3.339c.019-.143-.024-.287-.119-.396s-.232-.171-.376-.171h-2.267l1.229-4.95c.276-.189,.975-.609,1.742-.609,.656,0,1.271,.323,1.6,.53l-.704,3.138c-.033,.148,.002,.304,.098,.422,.095,.118,.238,.188,.39,.188h2.327c-.544,1.272-1.962,4.05-4.369,5.188Z"/>
  <path d="M18.954,8.313c.002-.067,.003-.135,.003-.203,0-3.921-3.127-7.11-6.971-7.11s-6.97,3.189-6.97,7.11c0,.413,.035,.824,.104,1.229-2.207,.399-3.862,2.363-3.862,4.706,0,2.154,1.424,4.051,3.462,4.613,.044,.012,.089,.018,.133,.018,.219,0,.42-.146,.481-.367,.073-.267-.083-.541-.349-.615-1.606-.442-2.728-1.942-2.728-3.648,0-2.011,1.533-3.669,3.491-3.774,.149-.008,.287-.082,.376-.202,.088-.121,.119-.274,.082-.419-.126-.5-.19-1.018-.19-1.539,0-3.369,2.678-6.11,5.97-6.11s5.971,2.741,5.971,6.11c0,.184-.008,.365-.023,.544-.022,.253,.149,.481,.397,.532,1.977,.409,3.412,2.207,3.412,4.275,0,1.813-1.114,3.457-2.773,4.09-.258,.098-.387,.387-.289,.645,.099,.26,.388,.389,.646,.289,2.043-.779,3.417-2.798,3.417-5.023,0-2.392-1.569-4.49-3.788-5.148Z"/>
</svg>
