<svg id="Layer_1" viewBox="0 0 24 24" xmlns="http://www.w3.org/2000/svg" data-name="Layer 1"><path d="m22.451 13.966c-.919-.109-1.451-.467-1.451-1.966s.532-1.856 1.451-1.966c.268-.031.462-.271.438-.54-.273-3.104-.959-4.959-.988-5.037-.051-.135-.157-.242-.293-.293-.127-.047-3.191-1.164-9.608-1.164s-9.481 1.117-9.608 1.164c-.136.051-.242.157-.293.293-.045.119-1.099 2.972-1.099 7.543s1.054 7.423 1.099 7.542c.051.136.157.242.293.293.127.047 3.191 1.165 9.608 1.165s9.481-1.118 9.608-1.165c.136-.051.242-.158.293-.293.029-.077.715-1.932.988-5.036.023-.27-.171-.509-.438-.54zm-1.411 5.003c-.796.245-3.769 1.031-9.04 1.031-1.932 0-3.548-.107-4.868-.252-.019-.051-.189-.524-.393-1.366-.065-.269-.334-.429-.604-.368-.269.065-.433.336-.368.604.102.42.194.741.269.989-1.629-.235-2.659-.51-3.076-.638-.238-.741-.96-3.295-.96-6.969s.722-6.229.96-6.97c.417-.128 1.447-.403 3.076-.638-.075.247-.167.569-.269.989-.064.269.1.539.368.604.262.064.54-.098.604-.368.204-.842.374-1.315.393-1.366 1.32-.146 2.936-.252 4.868-.252 5.271 0 8.244.786 9.04 1.03.17.529.586 1.982.81 4.099-1.259.314-1.85 1.238-1.85 2.871s.591 2.557 1.85 2.871c-.224 2.116-.64 3.568-.81 4.098zm-4.45-8.544c-.388-.046-1.057-.095-1.485-.108-.842-1.436-1.812-2.9-3.146-2.814-.34.016-.655.216-.823.522-.186.342-.241.881.506 2.405-.28.032-.554.065-.795.097-.335-.544-.873-.92-1.554-1.008l-.332-.012c-.591-.094-1.114.516-.925 1.085l.528 1.759c.163.545.634.953 1.199 1.039.537.083 1.25.148 1.85.197-.739 1.515-.683 2.05-.495 2.389.18.332.533.534.9.524 1.261 0 2.241-1.409 3.065-2.815.429-.014 1.106-.061 1.506-.109.804-.089 1.41-.766 1.41-1.575s-.606-1.486-1.41-1.575zm-.108 2.156c-.469.058-1.256.103-1.709.114-.172.006-.329.101-.416.251-.484.841-1.5 2.593-2.352 2.571-.005-.016-.087-.419.838-2.133.081-.148.08-.328 0-.477-.098-.192-.31-.271-.517-.269-.636-.048-1.699-.129-2.41-.238-.188-.029-.34-.158-.394-.338l-.467-1.555c.35-.012.688.171.884.461.166.238.376.673.734.588.474-.063 1.173-.152 1.793-.206.349-.02.571-.433.397-.735-.92-1.705-.845-2.113-.858-2.116.904.002 1.888 1.714 2.372 2.556.087.149.243.243.416.25.454.012 1.231.056 1.688.113.296.032.52.282.52.581s-.224.549-.519.581zm-10.266-3.986c-.067.581-.122 1.254-.157 1.931-.013.276-.251.489-.524.474-.276-.014-.488-.249-.474-.524.035-.7.092-1.395.161-1.995.033-.274.287-.465.555-.439.274.032.471.28.439.555zm-.157 4.88c.035.677.09 1.35.157 1.931.031.274-.165.522-.439.555-.269.032-.523-.163-.555-.439-.069-.601-.126-1.295-.161-1.995-.015-.275.197-.511.474-.524.312-.042.511.198.524.474z"/></svg>