<svg id="Layer_1" viewBox="0 0 24 24" xmlns="http://www.w3.org/2000/svg" data-name="Layer 1"><path d="m22.384 14.014c-.01.003-1.079.238-1.759-.299-.415-.328-.625-.905-.625-1.715s.209-1.384.621-1.711c.684-.542 1.755-.303 1.765-.302.162.039.333-.007.453-.121.122-.113.181-.278.155-.442-.355-2.327-1.018-4.156-1.046-4.233-.06-.162-.197-.282-.366-.318-.041-.009-4.19-.874-9.582-.874-5.437 0-9.416.838-9.583.874-.168.036-.306.156-.365.317-.028.077-.69 1.904-1.046 4.233-.025.165.033.331.155.443.123.113.292.157.455.119.011 0 1.081-.237 1.759.299.415.328.625.905.625 1.715s-.209 1.384-.621 1.711c-.683.543-1.754.304-1.765.302-.162-.037-.333.008-.453.121-.122.113-.181.278-.155.442.355 2.327 1.018 4.156 1.046 4.233.06.162.197.282.366.318.041.009 4.19.874 9.582.874 5.437 0 9.416-.838 9.583-.874.168-.036.306-.156.365-.317.028-.077.691-1.905 1.046-4.234.025-.164-.033-.331-.155-.443-.123-.113-.293-.157-.455-.119zm-1.285 4.189c-.991.188-4.564.797-9.099.797-4.494 0-8.1-.611-9.099-.798-.168-.506-.533-1.692-.799-3.136.533.004 1.283-.085 1.893-.566.667-.527 1.005-1.368 1.005-2.5s-.338-1.973-1.005-2.5c-.609-.482-1.357-.574-1.893-.566.266-1.444.632-2.631.799-3.137.992-.188 4.564-.797 9.099-.797 4.494 0 8.1.611 9.099.798.168.506.533 1.692.799 3.136-.536-.01-1.283.085-1.893.566-.667.527-1.005 1.368-1.005 2.5s.338 1.973 1.005 2.5c.609.481 1.358.572 1.893.566-.266 1.444-.631 2.631-.799 3.137z"/></svg>