<?xml version="1.0" encoding="UTF-8"?>
<svg xmlns="http://www.w3.org/2000/svg" id="Layer_1" data-name="Layer 1" viewBox="0 0 24 24">
  <path d="M20.053,3.711c-.151-1.047-.963-1.916-2.021-2.162-1.071-.248-2.155-.432-3.223-.547-.251-.029-.485,.138-.541,.386-.234,1.027-1.146,1.718-2.267,1.721-1.124-.003-2.036-.694-2.27-1.721-.056-.248-.292-.415-.541-.386-1.067,.115-2.152,.299-3.223,.547-1.058,.245-1.87,1.114-2.02,2.161-.794,5.5-.794,11.077,0,16.577,.151,1.047,.963,1.916,2.021,2.162,1.071,.248,2.155,.432,3.223,.547,.25,.029,.485-.138,.541-.386,.234-1.027,1.146-1.718,2.267-1.721,1.124,.003,2.036,.694,2.27,1.721,.052,.229,.256,.389,.487,.389,.018,0,.036,0,.054-.003,1.067-.115,2.152-.299,3.223-.547,1.058-.245,1.87-1.114,2.02-2.161,.794-5.5,.794-11.077,0-16.577Zm-.99,16.435c-.092,.643-.597,1.177-1.256,1.33-.896,.208-1.8,.369-2.696,.48-.476-1.232-1.696-2.062-3.112-2.065-1.414,.003-2.633,.833-3.109,2.065-.896-.111-1.8-.272-2.696-.48-.659-.153-1.164-.687-1.256-1.33-.219-1.516-.376-3.038-.472-4.563h2.361c.276,0,.5-.224,.5-.5s-.224-.5-.5-.5h-2.415c-.163-3.58,.013-7.171,.526-10.729,.092-.643,.597-1.177,1.256-1.33,.896-.208,1.8-.369,2.696-.48,.476,1.232,1.696,2.062,3.112,2.065,1.414-.003,2.633-.833,3.109-2.065,.896,.111,1.8,.272,2.696,.48,.659,.153,1.164,.687,1.256,1.33,.514,3.558,.689,7.149,.526,10.729h-2.415c-.276,0-.5,.224-.5,.5s.224,.5,.5,.5h2.361c-.096,1.525-.253,3.047-.472,4.563Z"/>
  <path d="M12.731,14.583h-1.462c-.276,0-.5,.224-.5,.5s.224,.5,.5,.5h1.462c.276,0,.5-.224,.5-.5s-.224-.5-.5-.5Z"/>
</svg>
