<svg id="Layer_1" viewBox="0 0 24 24" xmlns="http://www.w3.org/2000/svg" data-name="Layer 1"><path d="m16.09 8.925c-.387-.046-1.058-.095-1.486-.108-.825-1.407-1.807-2.816-3.068-2.816-.368-.009-.72.193-.9.523-.187.342-.243.881.505 2.406-.28.032-.554.065-.795.097-.334-.545-.873-.92-1.554-1.008l-.332-.012c-.592-.094-1.113.517-.925 1.085l.528 1.759c.164.545.635.953 1.2 1.039.538.083 1.25.148 1.85.197-.739 1.514-.682 2.05-.496 2.389.18.332.532.534.9.524 1.26 0 2.241-1.409 3.066-2.815.428-.014 1.106-.061 1.506-.109.804-.089 1.41-.766 1.41-1.575s-.606-1.486-1.41-1.575zm-.109 2.156c-.468.058-1.256.103-1.708.114-.173.006-.33.101-.416.25-.482.837-1.483 2.573-2.337 2.573h-.016c-.004-.017-.087-.42.838-2.134.081-.148.08-.328 0-.477-.099-.193-.312-.269-.519-.269-.635-.048-1.698-.129-2.408-.238-.189-.029-.34-.158-.394-.338l-.467-1.555c.351-.012.688.171.884.461l.255.374c.106.156.295.249.479.214.474-.063 1.172-.152 1.793-.206.167-.015.317-.112.396-.261.08-.148.08-.326 0-.475-.921-1.706-.844-2.114-.857-2.116.902-.019 1.886 1.713 2.371 2.556.086.149.243.244.416.25.455.012 1.232.056 1.688.113.296.032.519.282.519.581s-.223.549-.519.581zm2.018 10.303c.015.275-.197.511-.473.525-1.131.061-2.318.091-3.526.091-7.485 0-11.534-1.152-11.702-1.201-.171-.05-.302-.187-.346-.359-.039-.155-.952-3.885-.952-9.969 0-1.021.024-2.028.073-2.996.014-.275.241-.506.524-.474.276.014.488.248.475.524-.048.95-.072 1.941-.072 2.945 0 5.015.649 8.459.858 9.44 1.036.255 4.904 1.089 11.142 1.089 1.191 0 2.359-.03 3.474-.089.271-.035.511.197.526.473zm4.482-8.912c-.938-.104-1.481-.459-1.481-1.972s.543-1.868 1.481-1.972c.265-.029.46-.261.444-.526-.174-2.951-.597-4.691-.615-4.765-.042-.173-.174-.31-.345-.359-.122-.036-3.056-.878-8.466-.878s-8.344.842-8.466.878c-.168.049-.298.183-.343.353-.028.107-.691 2.687-.691 7.27 0 4.429.661 7.149.689 7.263.043.173.174.31.345.359.122.036 3.056.878 8.466.878s8.344-.842 8.466-.878c.171-.05.302-.187.345-.359.018-.073.441-1.813.615-4.765.016-.266-.18-.497-.444-.526zm-1.079 4.764c-.848.203-3.582.765-7.902.765s-7.055-.562-7.903-.765c-.165-.804-.597-3.242-.597-6.735 0-3.599.428-5.957.594-6.734.844-.202 3.579-.766 7.906-.766s7.055.562 7.902.765c.115.56.359 1.91.496 3.85-1.292.303-1.898 1.231-1.898 2.886s.606 2.583 1.898 2.886c-.137 1.939-.381 3.29-.496 3.85z"/></svg>