<?xml version="1.0" encoding="UTF-8"?>
<svg xmlns="http://www.w3.org/2000/svg" id="Layer_1" data-name="Layer 1" viewBox="0 0 24 24">
  <path d="M12.929,7.533c-.27-.06-.537,.108-.598,.377-.313,1.382-.415,2.785-.304,4.168,.009,.104,.049,.204,.117,.283,.673,.794,1.441,1.513,2.282,2.136,.09,.066,.194,.099,.297,.099,.153,0,.304-.07,.402-.202,.164-.222,.118-.535-.104-.699-.736-.546-1.412-1.17-2.01-1.857-.083-1.23,.016-2.477,.294-3.707,.061-.269-.108-.537-.377-.598Z"/>
  <path d="M22.107,6.709c-.615-1.819-2.074-3.27-3.905-3.879-3.532-1.178-7.113-1.178-10.645,0-1.831,.61-3.29,2.06-3.905,3.879-.384,1.138-.647,2.29-.783,3.434-.369-.37-.58-.721-.923-1.412-.123-.248-.423-.349-.67-.226-.248,.123-.349,.423-.226,.67,.585,1.18,.892,1.559,1.93,2.385,.09,.072,.201,.109,.312,.109,.074,0,.148-.017,.217-.05,1.206-.583,1.595-.886,2.446-1.908,.177-.212,.148-.527-.064-.704-.211-.176-.527-.147-.704,.064-.533,.64-.828,.937-1.33,1.237,.126-1.092,.375-2.192,.742-3.28,.515-1.524,1.739-2.74,3.274-3.251,3.321-1.107,6.69-1.107,10.012,0,1.535,.512,2.759,1.727,3.274,3.251,1.113,3.298,1.113,6.643,0,9.941-.515,1.523-1.739,2.739-3.274,3.251-3.322,1.107-6.69,1.107-10.012,0-1.535-.512-2.759-1.728-3.274-3.25-.106-.317-.204-.635-.29-.951-.073-.268-.347-.421-.615-.351-.266,.073-.423,.349-.35,.614,.092,.336,.194,.671,.308,1.007,.615,1.818,2.074,3.27,3.905,3.88,1.766,.588,3.544,.883,5.322,.883s3.556-.295,5.322-.883c1.831-.61,3.29-2.062,3.905-3.88,1.185-3.511,1.185-7.071,0-10.582Z"/>
</svg>
