<svg id="Layer_1" viewBox="0 0 24 24" xmlns="http://www.w3.org/2000/svg" data-name="Layer 1"><path d="m17.614 2.199c-.072-.084-.171-.141-.279-.163-.109-.022-2.697-.536-5.335-.536s-5.227.514-5.335.536-.207.079-.279.163c-2.369 2.738-4.122 5.892-5.361 9.644-.034.102-.034.212 0 .313 1.238 3.752 2.992 6.907 5.36 9.644.072.084.171.141.279.163.109.022 2.698.536 5.335.536s5.226-.514 5.335-.536c.108-.022.207-.079.279-.163 2.368-2.738 4.122-5.892 5.36-9.644.034-.102.034-.212 0-.313-1.238-3.752-2.992-6.906-5.36-9.644zm-.643 18.816c-.611.112-2.807.485-4.972.485s-4.36-.373-4.972-.485c-2.19-2.567-3.828-5.52-5.001-9.015 1.173-3.496 2.811-6.448 5.001-9.015.611-.112 2.807-.485 4.972-.485s4.36.373 4.972.485c2.19 2.567 3.828 5.52 5.001 9.015-1.173 3.495-2.811 6.448-5.001 9.015zm-1.118-12.162-3.146 3.146 3.146 3.146c.195.195.195.512 0 .707s-.512.195-.707 0l-3.146-3.146-3.146 3.146c-.195.195-.512.195-.707 0s-.195-.512 0-.707l3.146-3.146-3.146-3.146c-.195-.195-.195-.512 0-.707s.512-.195.707 0l3.146 3.146 3.146-3.146c.195-.195.512-.195.707 0s.195.512 0 .707z"/></svg>