<svg id="Layer_1" viewBox="0 0 24 24" xmlns="http://www.w3.org/2000/svg" data-name="Layer 1"><path d="m13.964 15.952c-.078.195-.266.314-.464.314-.347-.038-.385-.177-1.5-.251v6.484c0 .276-.224.5-.5.5s-.5-.224-.5-.5v-6.484c-.866.05-1.312.214-1.317.217-.256.1-.546-.028-.646-.284s.023-.544.278-.645c.077-.031.796-.303 2.186-.303s2.108.271 2.186.303c.257.103.381.394.278.649zm9.036 1.548c0 2.203-1.77 2.5-3.5 2.5-.25 0-.368-.008-.474-.021.079 1.455.306 2.386.309 2.396.066.269-.097.539-.364.606-.261.066-.54-.093-.606-.364-.015-.06-.364-1.482-.364-3.618 0-1.9.277-3.237.349-3.55.024-.239.216-.432.463-.446.312-.015.215.002.618 0 1.663.005 3.57.294 3.57 2.497zm-1 0c.103-.856-.503-1.567-2.743-1.498-.098.534-.254 1.597-.257 2.964.164.024.205.034.5.034 2.315 0 2.5-.65 2.5-1.5zm-6.029-2.486c-.271-.065-.539.096-.606.364-.015.06-.364 1.484-.364 3.621s.35 3.561.364 3.621c.066.271.345.43.606.364.268-.067.431-.338.364-.606-.004-.013-.335-1.374-.335-3.379s.331-3.366.335-3.379c.066-.269-.097-.539-.364-.606zm-1.164-2.12c.059.27-.113.536-.383.594-.271.06-.536-.113-.594-.383-.343-1.585-1.661-2.774-3.281-2.96-1.687-.193-3.411-.193-5.099 0-1.793.204-3.203 1.651-3.352 3.44-.065.777-.098 1.59-.098 2.414 0 2.756.374 4.773.529 5.491.682.153 2.58.509 5.471.509l.491-.004c.292.021.504.215.509.491s-.215.504-.491.509l-.509.004c-3.817 0-5.937-.59-6.025-.614-.17-.049-.302-.184-.347-.354-.026-.098-.628-2.433-.628-6.031 0-.852.034-1.692.102-2.498.117-1.397.843-2.626 1.913-3.425-.076-1.781.545-3.352.546-3.356.062-.153.196-.266.357-.301.054-.012.956-.202 2.198-.323-.075-.32-.116-.68-.116-1.097 0-2.075.925-3 3-3s3 .925 3 3c0 .537-.061.988-.186 1.367.147.028.252.05.267.053.164.035.298.15.359.306-.006-.028.628 1.653.542 3.358.906.676 1.574 1.655 1.823 2.811zm-7.661-6.872c.278-.013.562-.022.854-.022 1.059 0 2.054.1 2.797.202.132-.294.203-.681.203-1.202 0-1.514-.486-2-2-2s-2 .486-2 2c0 .428.058.749.146 1.022zm3.517 3.129c.461.053.899.178 1.312.351-.059-.971-.26-1.774-.38-2.16-.586-.108-2.035-.343-3.595-.343s-3.014.235-3.597.344c-.121.379-.322 1.176-.379 2.169.414-.175.849-.308 1.313-.361 1.762-.201 3.563-.201 5.325 0zm6.337-2.151c-2.075 0-3-.925-3-3s.925-3 3-3 3 .925 3 3-.925 3-3 3zm2-3c0-1.514-.486-2-2-2s-2 .486-2 2 .486 2 2 2 2-.486 2-2z"/></svg>