<?xml version="1.0" encoding="UTF-8"?>
<svg xmlns="http://www.w3.org/2000/svg" id="Layer_1" data-name="Layer 1" viewBox="0 0 24 24">
  <path d="M20.672,5.123c-.67-.854-.744-1.999-.171-2.947,.131-.238,.043-.532-.192-.667-.234-.137-.538-.053-.68,.18-.773,1.276-.673,2.867,.256,4.052,2.588,3.303,3.346,8.835-1.065,13.222-.479,.139-2.657,.693-6.819,.693-4.127,0-6.331-.555-6.819-.693C2.051,15.824,.395,10.383,4.107,5.732c.938-1.175,1.039-2.767,.257-4.056-.144-.234-.452-.31-.688-.168-.235,.144-.311,.451-.168,.688,.562,.926,.49,2.069-.183,2.913-3.95,4.946-2.366,11.115,1.241,14.652,.054,.053,.118,.092,.189,.116,.028,.01,.257,.085,.697,.185v1.493c0,.276,.224,.5,.5,.5s.5-.224,.5-.5v-1.299c.749,.125,1.754,.25,3.03,.326v1.48c0,.276,.224,.5,.5,.5s.5-.224,.5-.5v-1.433c.474,.016,.979,.025,1.516,.025s1.042-.009,1.516-.025v1.433c0,.276,.224,.5,.5,.5s.5-.224,.5-.5v-1.479c1.279-.075,2.283-.2,3.03-.324v1.296c0,.276,.224,.5,.5,.5s.5-.224,.5-.5v-1.491c.444-.102,.672-.178,.7-.188,.069-.024,.134-.063,.187-.115,4.946-4.831,4.109-10.975,1.239-14.639Z"/>
  <path d="M12,12.139c.276,0,.5-.224,.5-.5V6.754c0-.276-.224-.5-.5-.5s-.5,.224-.5,.5v4.885c0,.276,.224,.5,.5,.5Z"/>
  <circle cx="12" cy="14.659" r=".745"/>
</svg>
