<?xml version="1.0" encoding="UTF-8"?>
<svg xmlns="http://www.w3.org/2000/svg" id="Layer_1" data-name="Layer 1" viewBox="0 0 24 24">
  <path d="M15.986,15.434s0,0,0,0c-1.24-1.025-2.618-1.571-3.99-1.58-1.364,.009-2.74,.555-3.982,1.581-.26,.216-.688,.709-.632,1.582,.035,.547,.323,1.034,.79,1.337,.161,.104,.473,.309,.949,.309,.201,0,.431-.036,.69-.132,.965-.353,1.563-.5,2.144-.543,.638,.041,1.347,.213,2.232,.542,.553,.204,1.152,.143,1.643-.176,.469-.306,.756-.793,.789-1.335,.058-.875-.371-1.368-.632-1.584Zm-.366,1.521c-.014,.226-.137,.43-.337,.561-.222,.144-.494,.171-.748,.076-.979-.364-1.778-.556-2.582-.603-.74,.05-1.437,.218-2.487,.602-.405,.147-.58,.035-.75-.076-.203-.131-.322-.33-.337-.562-.027-.41,.133-.634,.271-.748,1.062-.877,2.22-1.345,3.344-1.352,1.133,.007,2.292,.475,3.353,1.351,.14,.115,.3,.339,.272,.751Z"/>
  <path d="M16.878,8.922c.26-.094,.394-.381,.299-.641-.094-.26-.38-.393-.641-.299-1.31,.476-1.976,1.532-2.003,1.577-.101,.161-.101,.365,0,.526,.027,.044,.693,1.102,2.003,1.578,.057,.02,.114,.03,.171,.03,.204,0,.396-.126,.47-.33,.095-.259-.039-.546-.299-.641-.62-.225-1.055-.632-1.29-.9,.235-.268,.671-.675,1.29-.9Z"/>
  <path d="M9.467,10.086c.1-.162,.1-.366,0-.527-.027-.044-.694-1.101-2.003-1.577-.26-.093-.546,.039-.641,.299-.095,.26,.04,.546,.299,.641,.62,.226,1.054,.633,1.29,.901-.236,.268-.671,.675-1.29,.9-.259,.094-.394,.381-.299,.641,.074,.203,.265,.329,.47,.329,.057,0,.114-.01,.171-.03,1.309-.476,1.976-1.532,2.003-1.576Z"/>
  <path d="M11.997,1C4.894,1,1,5.16,1,12.009c0,6.996,3.771,10.991,11.003,10.991,7.164,0,10.864-3.74,10.997-11.009-.122-7.042-4.027-10.991-11.003-10.991Zm.006,21c-6.605-.039-9.877-3.31-10.003-10,.121-6.594,3.486-9.958,9.997-10,4.485,.029,9.861,1.79,10.003,9.991-.123,6.696-3.395,9.97-9.997,10.009Z"/>
</svg>
