<?xml version="1.0" encoding="UTF-8"?>
<svg xmlns="http://www.w3.org/2000/svg" id="Layer_1" data-name="Layer 1" viewBox="0 0 24 24">
  <path d="M12,6.031c-2.772,0-5.955,.679-5.955,5.969s3.183,5.969,5.955,5.969,5.955-.679,5.955-5.969-3.183-5.969-5.955-5.969Zm0,10.938c-2.975,0-4.955-.845-4.955-4.969s1.98-4.969,4.955-4.969,4.955,.845,4.955,4.969-1.98,4.969-4.955,4.969Z"/>
  <path d="M22.298,9.676c-.079-.125-.21-.209-.356-.229,0,0-.136-.019-.384-.046-.221-.816-.545-1.6-.967-2.335,.157-.196,.24-.306,.24-.306,.09-.117,.124-.269,.092-.413-.012-.05-.287-1.249-1.161-2.126-.872-.874-2.07-1.151-2.12-1.162-.146-.036-.296,0-.414,.09,0,0-.109,.084-.305,.241-.732-.423-1.514-.747-2.329-.969-.027-.249-.046-.386-.046-.386-.02-.146-.103-.276-.227-.355-.044-.027-1.085-.681-2.321-.681s-2.277,.652-2.32,.681c-.125,.079-.208,.209-.228,.355,0,0-.019,.137-.046,.386-.814,.222-1.596,.546-2.328,.968-.197-.157-.308-.241-.308-.241-.117-.089-.267-.121-.411-.09-.051,.012-1.246,.287-2.122,1.164-.871,.874-1.148,2.074-1.16,2.125-.032,.144,0,.295,.091,.413,0,0,.084,.109,.241,.306-.423,.736-.747,1.52-.967,2.335-.248,.027-.385,.046-.385,.046-.146,.02-.276,.103-.354,.228-.028,.044-.68,1.086-.68,2.325s.651,2.281,.679,2.324c.079,.125,.21,.209,.356,.229,0,0,.136,.019,.384,.046,.221,.816,.545,1.6,.967,2.335-.157,.196-.24,.306-.24,.306-.09,.117-.124,.269-.092,.413,.012,.05,.287,1.249,1.161,2.126,.872,.874,2.07,1.151,2.12,1.162,.145,.034,.295,0,.414-.09,0,0,.109-.084,.305-.241,.732,.423,1.514,.747,2.329,.969,.027,.249,.046,.386,.046,.386,.02,.146,.103,.276,.227,.355,.044,.027,1.085,.681,2.321,.681s2.277-.652,2.32-.681c.125-.079,.208-.209,.228-.355,0,0,.019-.137,.046-.386,.813-.221,1.594-.545,2.328-.968,.197,.157,.308,.241,.308,.241,.117,.089,.267,.121,.411,.09,.051-.012,1.246-.287,2.122-1.164,.871-.874,1.148-2.074,1.16-2.125,.032-.144,0-.295-.091-.413,0,0-.084-.109-.241-.306,.423-.736,.747-1.52,.967-2.335,.248-.027,.385-.046,.385-.046,.146-.02,.276-.103,.354-.228,.028-.044,.68-1.086,.68-2.325s-.651-2.281-.679-2.324Zm-.737,3.916c-.114,.014-.267,.03-.452,.048-.214,.021-.39,.177-.438,.386-.219,.949-.593,1.854-1.112,2.688-.113,.182-.098,.415,.038,.581,.119,.145,.216,.265,.287,.354-.107,.325-.359,.951-.828,1.422-.473,.473-1.093,.724-1.417,.831-.09-.072-.21-.168-.354-.287-.166-.138-.401-.151-.583-.038-.832,.52-1.734,.895-2.682,1.114-.209,.049-.363,.225-.385,.438-.018,.186-.034,.339-.048,.453-.305,.154-.924,.417-1.587,.417-.667,0-1.283-.263-1.587-.416-.014-.115-.03-.268-.048-.454-.021-.213-.176-.39-.385-.438-.951-.222-1.854-.597-2.682-1.115-.184-.114-.418-.099-.584,.038-.144,.119-.263,.215-.353,.287-.324-.107-.947-.36-1.416-.829-.473-.474-.723-1.097-.83-1.422,.072-.091,.169-.211,.288-.356,.136-.165,.151-.398,.038-.58-.519-.834-.894-1.738-1.113-2.69-.049-.209-.226-.364-.439-.385-.185-.018-.336-.034-.45-.047-.154-.306-.416-.924-.416-1.592s.262-1.287,.416-1.592c.114-.014,.267-.03,.452-.048,.214-.021,.39-.177,.438-.386,.219-.949,.593-1.854,1.112-2.688,.113-.182,.098-.415-.038-.581-.119-.145-.216-.265-.287-.354,.107-.325,.359-.951,.828-1.422,.473-.473,1.093-.724,1.417-.831,.09,.072,.21,.168,.354,.287,.167,.139,.402,.152,.583,.038,.83-.518,1.732-.894,2.682-1.114,.209-.049,.363-.226,.385-.438,.018-.186,.034-.339,.048-.453,.305-.154,.924-.417,1.587-.417,.667,0,1.283,.263,1.587,.416,.014,.115,.03,.268,.048,.454,.021,.213,.176,.39,.385,.438,.951,.222,1.854,.597,2.682,1.115,.183,.113,.417,.098,.584-.038,.144-.119,.263-.215,.353-.287,.324,.107,.947,.36,1.416,.829,.473,.474,.723,1.097,.83,1.422-.072,.091-.169,.211-.288,.356-.136,.165-.151,.398-.038,.58,.519,.834,.894,1.738,1.113,2.69,.049,.209,.226,.364,.439,.385,.185,.018,.336,.034,.45,.047,.154,.306,.416,.924,.416,1.592s-.262,1.287-.416,1.592Z"/>
  <g>
    <circle cx="14.127" cy="12" r=".745"/>
    <circle cx="9.873" cy="12" r=".745"/>
  </g>
  <g>
    <circle cx="12" cy="14.127" r=".745"/>
    <circle cx="12" cy="9.873" r=".745"/>
  </g>
</svg>
