<svg id="Layer_1" viewBox="0 0 24 24" xmlns="http://www.w3.org/2000/svg" data-name="Layer 1"><path d="m8 18.5v4c0 .276-.224.5-.5.5s-.5-.224-.5-.5v-4c0-.276.224-.5.5-.5s.5.224.5.5zm-4-15.5c0-1.346.654-2 2-2s2 .654 2 2-.654 2-2 2-2-.654-2-2zm1 0c0 .794.206 1 1 1s1-.206 1-1-.206-1-1-1-1 .206-1 1zm1.5 12.993h-.014c-1.609.045-3.354-.18-4.067-.289-.134-.682-.419-2.352-.419-4.204s.285-3.522.419-4.204c.862-.131 3.214-.372 5.045-.239.268.022.515-.187.535-.462s-.188-.515-.463-.535c-.489-.036-1.013-.06-1.536-.06-2.021 0-4.005.35-4.088.365-.196.035-.354.184-.399.378-.021.09-.513 2.229-.513 4.757s.492 4.667.513 4.757c.046.194.203.343.399.378.054.01.928.162 2.088.267v5.598c0 .276.224.5.5.5s.5-.224.5-.5v-5.529c.328.016.661.029 1 .029.172 0 .343-.002.514-.007.275-.007.493-.237.486-.513-.008-.271-.229-.487-.5-.487zm10 2.007c-.276 0-.5.224-.5.5v4c0 .276.224.5.5.5s.5-.224.5-.5v-4c0-.276-.224-.5-.5-.5zm-.5-15c0-1.346.654-2 2-2s2 .654 2 2-.654 2-2 2-2-.654-2-2zm1 0c0 .794.206 1 1 1s1-.206 1-1-.206-1-1-1-1 .206-1 1zm5.487 3.743c-.046-.194-.203-.343-.399-.378-.083-.015-2.066-.365-4.088-.365-1.424 0-2.85.177-3.572.283-.273.04-.463.294-.423.567.04.274.296.466.567.422.696-.102 2.066-.272 3.428-.272 1.46 0 2.938.198 3.581.296.134.682.419 2.352.419 4.204s-.285 3.522-.419 4.205c-.57.087-1.802.253-3.095.289-.276.008-.494.238-.486.514.008.277.239.494.514.486.165-.005.325-.013.486-.021v5.528c0 .276.224.5.5.5s.5-.224.5-.5v-5.598c1.163-.105 2.038-.258 2.088-.267.196-.035.354-.184.399-.378.021-.09.513-2.229.513-4.757s-.492-4.667-.513-4.757zm-6.587 8.457c-.597-.796-1.304-1.502-2.101-2.1-.22-.165-.533-.122-.7.1-.165.221-.12.534.101.7.437.328.831.704 1.204 1.1h-4.905c-.276 0-.5.224-.5.5s.224.5.5.5h4.905c-.373.396-.767.772-1.204 1.1-.221.166-.266.479-.101.7.167.223.481.265.7.1.797-.598 1.504-1.304 2.101-2.1.133-.178.133-.422 0-.6zm-5.7-3.3c.219.165.533.123.7-.1.165-.221.12-.534-.101-.7-.437-.328-.831-.704-1.204-1.1h4.905c.276 0 .5-.224.5-.5s-.224-.5-.5-.5h-4.905c.373-.396.767-.772 1.204-1.1.221-.166.266-.479.101-.7-.167-.223-.48-.265-.7-.1-.797.598-1.504 1.304-2.101 2.1-.133.178-.133.422 0 .6.597.796 1.304 1.502 2.101 2.1z"/></svg>