<svg id="Layer_1" viewBox="0 0 24 24" xmlns="http://www.w3.org/2000/svg" data-name="Layer 1"><path d="m16 7c.276 0 .5.672.5 1.5s-.224 1.5-.5 1.5-.5-.672-.5-1.5.224-1.5.5-1.5zm2.5 15h-8c-1.869 0-2.5-.631-2.5-2.5v-3.5h4.5c.276 0 .5-.224.5-.5s-.224-.5-.5-.5h-7.231c-2.193 0-2.561-.73-3.065-3.588-.002-.015-.204-1.511-.204-2.912s.201-2.897.204-2.912c.037-.273-.154-.525-.428-.562-.277-.037-.526.153-.563.428-.008.063-.212 1.576-.212 3.047s.204 2.983.216 3.066c.485 2.749.94 4.434 4.053 4.434h1.731v3.5c0 2.421 1.08 3.5 3.5 3.5h8c.276 0 .5-.224.5-.5s-.224-.5-.5-.5zm4.354.854c-.195.195-.512.195-.707 0l-21.001-21c-.195-.195-.195-.512 0-.707s.512-.195.707 0l.713.713c.601-.578 1.447-.86 2.702-.86h10.731c2.926 0 3.35 1.688 3.8 4.439.011.082.2 1.592.2 3.061v10.793l2.854 2.854c.195.195.195.512 0 .707zm-3.854-8.327c-.438.806-1.128 1.304-2.331 1.435l2.331 2.331zm-3-12.527c-2.005 0-2.343.729-2.813 3.602 0 0-.187 1.496-.187 2.898.074 2.568.136 2.636.444 4.237l2.252 2.252c.099.005.197.011.304.011 2.006 0 2.344-.729 2.813-3.602 0 0 .187-1.496.187-2.898s-.188-2.901-.189-2.917c-.467-2.854-.805-3.583-2.811-3.583zm-12.742.551 8.932 8.932c-.039-.321-.19-1.664-.19-2.983 0-1.469.189-2.979.197-3.042.247-1.506.488-2.689 1.124-3.458h-8.052c-1.153 0-1.693.252-2.011.551z"/></svg>