<svg id="Layer_1" viewBox="0 0 24 24" xmlns="http://www.w3.org/2000/svg" data-name="Layer 1"><path d="m16 7c.276 0 .5.672.5 1.5s-.224 1.5-.5 1.5-.5-.672-.5-1.5.224-1.5.5-1.5zm7 15.5c0 .276-.224.5-.5.5h-12c-2.42 0-3.5-1.079-3.5-3.5v-3.5h-1.731c-3.113 0-3.568-1.685-4.053-4.434-.012-.083-.216-1.596-.216-3.066s.204-2.983.212-3.047c.488-2.769.943-4.453 4.057-4.453h10.731c2.925 0 3.349 1.688 3.8 4.439 0 .006.001.012.002.019.008.063.197 1.573.197 3.042v11c0 1.869.631 2.5 2.5 2.5.276 0 .5.224.5.5zm-7-20.5c-2.005 0-2.343.729-2.813 3.602 0 0-.187 1.496-.187 2.898s.188 2.901.189 2.917c.468 2.854.806 3.583 2.811 3.583s2.343-.729 2.813-3.602c0 0 .187-1.496.187-2.898 0-1.35-.173-2.785-.188-2.908-.469-2.864-.809-3.592-2.812-3.592zm-10.731 13h8.051c-.635-.767-.875-1.944-1.12-3.439-.009-.073-.158-1.267-.192-2.561h-1.507c-.276 0-.5-.224-.5-.5s.224-.5.5-.5h1.507c.034-1.293.183-2.486.19-2.542.247-1.506.488-2.689 1.124-3.458h-8.053c-2.193 0-2.561.73-3.069 3.607 0 0-.155 1.16-.192 2.393h1.492c.276 0 .5.224.5.5s-.224.5-.5.5h-1.492c.037 1.235.193 2.399.195 2.412.504 2.857.872 3.588 3.065 3.588zm14.43 7c-.474-.571-.699-1.396-.699-2.5v-4.974c-.514.947-1.367 1.474-3 1.474h-8v3.5c0 1.869.631 2.5 2.5 2.5zm-11.699-13.5c0-.276-.224-.5-.5-.5h-1c-.276 0-.5.224-.5.5s.224.5.5.5h1c.276 0 .5-.224.5-.5z"/></svg>