<svg id="Layer_1" viewBox="0 0 24 24" xmlns="http://www.w3.org/2000/svg" data-name="Layer 1"><path d="m19 6.875c.414 0 .75.504.75 1.125s-.336 1.125-.75 1.125-.75-.504-.75-1.125.336-1.125.75-1.125zm3.854 15.271c.195.195.195.512 0 .707s-.512.195-.707 0l-21.001-20.999c-.195-.195-.195-.512 0-.707s.512-.195.707 0l2.63 2.63c.462-1.837 1.244-2.776 3.517-2.776h11c2.92 0 3.346 1.576 3.799 4.146.012.078.201 1.485.201 2.854s-.189 2.775-.198 2.834c-.456 2.59-.882 4.166-3.802 4.166h-3.293l7.146 7.146zm-3.854-20.146c-2.023 0-2.34.629-2.814 3.32 0 0-.186 1.384-.186 2.68s.187 2.686.188 2.699c.472 2.672.788 3.301 2.812 3.301s2.34-.629 2.814-3.32c0 0 .186-1.384.186-2.68s-.187-2.686-.188-2.699c-.472-2.672-.788-3.301-2.812-3.301zm-13.685 2.608 9.685 9.685v-6.293c0-1.368.189-2.775.198-2.834.241-1.366.477-2.447 1.071-3.166h-8.269c-1.885-.004-2.28.597-2.685 2.608zm10.185 13.892c-.276 0-.5.224-.5.5v.5c0 1.869-.631 2.5-2.5 2.5h-8.198c.474-.571.698-1.396.698-2.5v-11c0-.276-.224-.5-.5-.5s-.5.224-.5.5v11c0 1.869-.631 2.5-2.5 2.5-.276 0-.5.224-.5.5s.224.5.5.5h11c2.421 0 3.5-1.079 3.5-3.5v-.5c0-.276-.224-.5-.5-.5z"/></svg>