<svg id="Layer_1" viewBox="0 0 24 24" xmlns="http://www.w3.org/2000/svg" data-name="Layer 1"><path d="m20 13c0-1.469-.788-2.101-2.06-2.443.001-.011.006-.02.007-.03.033-.579.053-1.206.053-1.876 0-1.865-.152-3.364-.319-4.474.526-.088.924-.187.944-.192.268-.069.428-.342.359-.609s-.341-.428-.609-.359c-.004.002-.376.094-.86.175-.139-.712-.258-1.119-.27-1.159-.046-.149-.158-.27-.306-.323-.078-.029-1.951-.708-4.939-.708s-4.861.679-4.94.708c-.146.054-.26.174-.305.323-.031.102-.755 2.53-.755 6.619 0 .642.024 1.28.06 1.906-1.271.342-2.06.974-2.06 2.444 0 3.564 1.713 5.747 5.094 6.496-.169.525-.353 1.168-.483 1.82-.04.202-.074.406-.105.607-.036.236.101.465.325.547.472.172 1.454.529 3.169.529s2.697-.357 3.171-.53c.225-.082.36-.311.323-.547-.031-.201-.065-.406-.105-.606-.131-.653-.313-1.296-.482-1.82 3.381-.749 5.094-2.932 5.094-6.496zm-13-4.35c0-3.203.469-5.377.646-6.081.575-.171 2.148-.569 4.354-.569s3.779.398 4.354.569c.177.704.646 2.878.646 6.081 0 .609-.018 1.176-.046 1.707-.528-.084-1.1-.15-1.72-.218-.067-.006-1.674-.14-3.234-.14s-3.167.134-3.247.141c-.613.067-1.181.133-1.705.216-.029-.533-.048-1.096-.048-1.706zm1.85 2.486c.016 0 1.631-.136 3.15-.136s3.135.135 3.138.135c3.086.338 3.862.593 3.862 1.865s-.776 1.527-3.85 1.864c-.016 0-1.632.136-3.15.136s-3.134-.135-3.138-.135c-3.085-.338-3.862-.593-3.862-1.865s.776-1.527 3.85-1.864zm5.318 7.484c-.299.042-.497.377-.39.659.204.574.502 1.526.659 2.386-.493.153-1.274.335-2.437.335s-1.944-.181-2.438-.336c.155-.858.455-1.809.659-2.385.106-.282-.091-.617-.39-.659-2.484-.411-3.966-1.529-4.547-3.461.848.408 2.059.546 3.481.702.068.006 1.674.14 3.234.14s3.167-.134 3.247-.141c1.414-.155 2.621-.292 3.468-.7-.581 1.932-2.062 3.049-4.547 3.461z"/></svg>