<svg id="Layer_1" viewBox="0 0 24 24" xmlns="http://www.w3.org/2000/svg" data-name="Layer 1"><path d="m22.593 22.009c-.018-.003-.619-.115-1.593-.261v-11.748c0-6.309-2.691-9-9-9s-9 2.691-9 9v11.747c-.973.147-1.575.258-1.592.261-.271.051-.45.312-.399.583.051.272.313.452.583.399.053-.01 5.332-.991 10.408-.991s10.354.981 10.407.991c.265.052.534-.125.584-.399.051-.271-.127-.533-.398-.583zm-18.593-.405v-11.604c0-5.832 2.168-8 8-8s8 2.168 8 8v11.604c-2.054-.281-5.057-.604-8-.604s-5.946.323-8 .604z"/></svg>