<svg id="Layer_1" viewBox="0 0 24 24" xmlns="http://www.w3.org/2000/svg" data-name="Layer 1"><path d="m18.624 14.363c-.649-.697-1.36-1.438-2.125-2.203-.124-.124-.305-.174-.473-.132-.919.227-1.655.569-2.25 1.04l-5.912-5.912c.186-.974.178-2.011-.044-3.245-.024-.135-.104-.255-.219-.33l-3.828-2.5c-.136-.089-.306-.105-.456-.047-1.023.402-1.788 1.164-2.275 2.264-.068.155-.054.334.039.476l2.5 3.827c.075.115.194.194.33.219 1.151.205 2.164.256 3.245.044l5.912 5.912c-.471.596-.815 1.333-1.044 2.254-.042.17.008.35.132.474.765.765 1.533 1.495 2.231 2.146 1.592 1.472 3.029 2.688 3.948 3.443.642.547 1.253.912 1.904.912.563 0 1.155-.273 1.821-.939 1.407-1.407 1.056-2.466.033-3.719-1.162-1.414-2.296-2.717-3.469-3.982zm-14.325-7.492-2.227-3.409c.334-.647.789-1.106 1.38-1.396l3.418 2.233c.16.986.171 1.826.033 2.604-.778.137-1.618.127-2.604-.033zm17.054 14.486c-.864.865-1.329.859-2.376-.032-.915-.753-2.336-1.955-3.909-3.41-.627-.584-1.312-1.234-2-1.916.464-1.618 1.312-2.468 2.927-2.928.679.684 1.313 1.346 1.896 1.973 1.159 1.25 2.28 2.538 3.429 3.936.881 1.079.888 1.523.034 2.378zm-11.672-15.968c-.215-.173-.249-.487-.075-.702.291-.361.618-.723 1-1.104 2.737-2.736 5.099-3.269 7.659-1.729.257.147.322.523.128.747-.726.879-1.507 1.842-2.055 2.516l-.617.758c-.922 1.081-.927 1.562-.033 2.457.883.883 1.343.877 2.458-.033l.664-.544c.676-.551 1.684-1.375 2.601-2.135.226-.196.6-.132.748.127 1.44 2.398 1.029 4.685-1.292 7.197-.188.204-.504.215-.707.028-.203-.188-.215-.504-.028-.706 1.854-2.007 2.305-3.679 1.447-5.488-.78.644-1.574 1.292-2.137 1.752l-.662.541c-1.28 1.046-2.361 1.404-3.799-.032-1.465-1.466-1.071-2.582-.027-3.806l.607-.746c.453-.558 1.065-1.312 1.673-2.053-1.924-.913-3.729-.337-5.922 1.856-.352.352-.665.696-.929 1.024-.173.216-.488.25-.703.075zm.817 11.765c.191.199.185.516-.015.707-.28.268-.555.526-.823.776-1.256 1.163-2.558 2.298-3.982 3.469-.667.545-1.278.899-1.917.899-.561 0-1.143-.273-1.801-.932-1.436-1.436-1.049-2.527-.027-3.725.751-.914 1.964-2.348 3.442-3.947.682-.733 1.476-1.564 2.271-2.356.195-.195.512-.195.707 0s.195.512 0 .707c-.788.785-1.572 1.607-2.245 2.33-1.461 1.58-2.66 2.998-3.409 3.908-.892 1.046-.897 1.511-.033 2.376.855.854 1.299.849 2.377-.034 1.408-1.157 2.695-2.279 3.935-3.428.264-.246.536-.501.812-.767.198-.19.515-.185.707.016z"/></svg>