<svg id="Layer_1" viewBox="0 0 24 24" xmlns="http://www.w3.org/2000/svg" data-name="Layer 1"><path d="m22.5 22h-10.256c-5.694 0-9.032-.353-9.934-.462-.121-.267-.31-.803-.31-1.538s.19-1.271.311-1.538c.903-.11 4.24-.462 9.934-.462 2.402-.1 10.504.404 10.184.495.265.042.526-.149.567-.422.039-.273-.149-.527-.423-.567-.065-.009-.827-.117-2.284-.231-.184-1.216-.288-2.481-.288-3.774 0-1.349.114-2.662.312-3.922 1.542-.31 2.678-1.618 2.688-3.227 0-3.022-2.059-5.116-2.146-5.204-.14-.14-.34-.228-.522-.159-.185.07-.302.197-.313.394-.006.013-.704 1.319-8.018 1.319-3.706 0-6.389.195-7.987.359-1.679.172-3.002 1.616-3.013 3.279-.036 1.485.937 2.779 2.304 3.198-.196 1.279-.304 2.607-.304 3.964 0 1.32.11 2.608.294 3.852-.865.081-1.329.146-1.378.154-.142.021-.269.102-.347.222-.023.036-.569.891-.569 2.273s.546 2.237.569 2.273c.078.12.205.201.347.222.141.021 3.533.505 10.328.505h10.256c.276 0 .5-.224.5-.5s-.224-.5-.5-.5zm-14.5-8.5c0-1.22.094-2.414.258-3.567.905.033 1.908.055 2.987.063-.152 1.138-.245 2.308-.245 3.505s.093 2.367.245 3.504c-1.095.008-2.088.028-2.988.057-.164-1.151-.257-2.344-.257-3.561zm4 0c0-1.197.092-2.368.25-3.502 1.093-.003 2.09-.022 2.998-.053-.157 1.154-.249 2.344-.249 3.555s.096 2.387.251 3.535c-.916-.021-1.91-.035-3.001-.035-.158-1.133-.25-2.304-.25-3.5zm4.26 3.562c-.163-1.152-.26-2.343-.26-3.562 0-1.227.093-2.431.259-3.594 1.202-.055 2.22-.126 3.03-.198-.179 1.226-.289 2.492-.289 3.793 0 1.266.102 2.504.273 3.702-.84-.054-1.848-.103-3.013-.14zm-14.26-10.709c.007-1.168.936-2.178 2.114-2.299 1.575-.162 4.221-.354 7.885-.354 5.549 0 7.71-.729 8.527-1.394.542.712 1.473 2.207 1.472 4.087.003 1.233-1.036 2.209-2.284 2.268-1.592.158-4.174.338-7.715.338-3.577 0-6.299-.179-7.953-.329-1.177-.107-2.076-1.121-2.046-2.318zm2 7.147c0-1.303.104-2.578.291-3.804.793.068 1.78.139 2.966.195-.162 1.17-.257 2.377-.257 3.609s.095 2.431.256 3.597c-1.189.049-2.176.11-2.966.17-.184-1.214-.29-2.474-.29-3.768z"/></svg>