<svg id="Layer_1" viewBox="0 0 24 24" xmlns="http://www.w3.org/2000/svg" data-name="Layer 1"><path d="m7.5 10c3.112 0 4.5-1.388 4.5-4.5s-1.388-4.5-4.5-4.5-4.5 1.388-4.5 4.5 1.388 4.5 4.5 4.5zm0-8c2.584 0 3.5.916 3.5 3.5s-.916 3.5-3.5 3.5-3.5-.916-3.5-3.5.916-3.5 3.5-3.5zm13.748-.758c-.432-.313-1.047-.29-1.4.126-.172.198-.281.434-.35.675-.089-.031-.184-.041-.283-.044-.256.007-.495.137-.638.348-.345.506-.577 1.318-.577 2.022.002.589.288 1.283.888 1.511.081 2.12.784 4.952 1.039 5.915-.661.462-2.601 1.675-4.849 1.703-.639-.208-4.717-1.5-7.579-1.5-4.556 0-6.5 1.944-6.5 6.5v4c0 .276.224.5.5.5s.5-.224.5-.5v-4c0-4.009 1.491-5.5 5.5-5.5 2.883 0 7.298 1.459 7.342 1.474.051.017.104.026.158.026 1.586 0 3.025-.517 4.075-1.039-1.267 1.702-2.819 2.402-3.165 2.539-2.356-.011-3.475-.458-3.483-.461-.363-.167-.79.2-.678.584.169.665.251 1.442.251 2.376v4c0 .276.224.5.5.5s.5-.224.5-.5v-4c0-.662-.039-1.256-.119-1.796.648.143 1.678.296 3.119.296.054 0 .107-.009.158-.026.131-.043 3.231-1.113 4.801-4.777.088-.285.912-3.645 1.031-6.277.658-.195.987-.923 1.008-1.548.036-1.336-.569-2.418-1.751-3.129zm-.775 8.539c-.252-1.154-.517-2.591-.579-3.781h1.095c-.056 1.19-.291 2.626-.516 3.781zm1.077-4.781h-2.121c-.336.006-.416-.387-.428-.629 0-.392.096-.796.221-1.105l.204.447c.098.213.333.33.561.281.23-.05.394-.253.394-.489v-.333c0-.311 0-.891.228-1.144.92.498 1.427 1.305 1.391 2.315-.022.247-.107.661-.45.657z"/></svg>