<?xml version="1.0" encoding="UTF-8"?>
<svg xmlns="http://www.w3.org/2000/svg" id="Layer_1" data-name="Layer 1" viewBox="0 0 24 24">
  <path d="M21.974,1.967c-.066-.166-.215-.284-.392-.31-.044-.007-4.483-.657-9.582-.657S2.462,1.65,2.418,1.657c-.177,.025-.327,.145-.392,.312-.036,.092-.882,2.277-.882,5.195,0,2.941,.847,5.105,.882,5.196,.069,.175,.231,.296,.418,.313,.044,.004,4.464,.419,9.533,.653,2.72,.126,6.493,.344,7.312,.391,.104,.13,.333,.531,.333,1.559,0,1.059-.248,1.456-.327,1.562-.645,.053-3.423,.268-7.037,.387-2.959,.1-5.549,.309-5.575,.311-.15,.012-.287,.092-.373,.216-.023,.035-.582,.869-.582,2.36,0,1.503,.56,2.329,.583,2.363,.082,.118,.209,.195,.352,.212,.026,.004,2.625,.312,5.61,.312,.276,0,.5-.224,.5-.5s-.224-.5-.5-.5c-2.385,0-4.517-.201-5.235-.276-.121-.267-.311-.812-.311-1.611,0-.786,.187-1.331,.307-1.601,.737-.056,2.875-.207,5.255-.286,4.144-.138,7.201-.399,7.231-.402,.057-.005,.112-.02,.164-.043,.156-.071,.935-.525,.935-2.504,0-1.999-.787-2.439-.944-2.507-.053-.023-.11-.037-.168-.04,0,0-4.413-.259-7.486-.4-4.265-.198-8.068-.523-9.167-.622-.217-.658-.712-2.393-.712-4.543s.503-3.908,.718-4.56c1.069-.142,4.876-.604,9.138-.604s8.074,.463,9.14,.605c.199,.598,.646,2.138,.709,4.095-1.308,.094-5.132,.343-8.639,.343-3.039,0-6.142-.371-6.173-.375-.279-.037-.523,.162-.557,.436-.033,.274,.162,.523,.437,.557,.031,.004,3.192,.383,6.293,.383,4.333,0,9.138-.377,9.186-.381,.26-.021,.46-.237,.46-.498,0-2.941-.847-5.106-.882-5.197Z"/>
</svg>
