<svg id="Layer_1" viewBox="0 0 24 24" xmlns="http://www.w3.org/2000/svg" data-name="Layer 1"><path d="m5 5c1.35 0 2-.65 2-2s-.65-2-2-2-2 .65-2 2 .65 2 2 2zm0-3c.79 0 1 .21 1 1s-.21 1-1 1-1-.21-1-1 .21-1 1-1zm7.64 5.92c.35.1.7-.24.61-.59-.07-.32-.16-.8-.21-1.42.32-.09 1-.31 1.93-.81 1.23-.66 1.78-1.18 1.88-1.28.19-.2.19-.51 0-.7-.1-.1-.65-.62-1.87-1.28-.97-.52-1.65-.74-1.98-.82-.26-.07-.52.08-.6.33-.07.2-.4 1.32-.4 3.34 0 .86.06 1.55.14 2.09-1.33-.3-3.78-.77-6.14-.77-2.02 0-4 .35-4.09.37-.2.04-.35.18-.4.38-.02.09-.51 2.23-.51 4.76s.49 4.67.51 4.76c.05.2.2.34.4.38.04 0 .46.08 1.09.16v5.71c0 .28.22.5.5.5s.5-.22.5-.5v-5.6c.61.06 1.3.1 2 .1.34 0 .67-.02 1-.04v5.54c0 .28.22.5.5.5s.5-.22.5-.5v-15.42c2.1.2 3.99.65 4.64.82zm.59-5.78c.31.12.75.3 1.28.58.55.29.94.55 1.21.75-.26.19-.66.45-1.21.75-.67.36-1.19.56-1.51.66-.02-1.14.12-2.28.23-2.74zm-6.23 13.82c-1.75.07-3.79-.14-4.58-.26-.13-.68-.42-2.35-.42-4.2s.29-3.52.42-4.2c.64-.1 2.12-.3 3.58-.3.33 0 .67.01 1 .03v8.94zm6.5-5.46c0 1 .5 1.5 1.5 1.5s1.5-.5 1.5-1.5-.5-1.5-1.5-1.5-1.5.5-1.5 1.5zm2 0c0 .44-.06.5-.5.5s-.5-.06-.5-.5.06-.5.5-.5.5.06.5.5zm1.81 2.72c-.05 0-1.28-.22-2.31-.22s-2.26.21-2.31.22c-.2.04-.36.19-.4.39-.01.05-.29 1.36-.29 2.89s.28 2.84.29 2.89c.04.2.2.35.4.39.01 0 .13.02.31.05v2.67c0 .28.22.5.5.5s.5-.22.5-.5v-2.55c.32.03.67.05 1 .05s.68-.02 1-.05v2.55c0 .28.22.5.5.5s.5-.22.5-.5v-2.67c.18-.03.29-.05.31-.05.2-.04.36-.19.4-.39.01-.05.29-1.36.29-2.89s-.28-2.84-.29-2.89c-.04-.2-.2-.35-.4-.39zm-.51 5.63c-.42.06-1.16.15-1.8.15s-1.37-.09-1.8-.15c-.08-.46-.2-1.36-.2-2.35s.13-1.88.2-2.35c.42-.06 1.16-.15 1.8-.15s1.37.09 1.8.15c.08.46.2 1.36.2 2.35s-.13 1.88-.2 2.35zm4.7-9.35c0-1-.5-1.5-1.5-1.5s-1.5.5-1.5 1.5.5 1.5 1.5 1.5 1.5-.5 1.5-1.5zm-2 0c0-.44.06-.5.5-.5s.5.06.5.5-.06.5-.5.5-.5-.06-.5-.5zm3.5 6c0 1.54-.28 2.84-.29 2.89-.04.2-.2.35-.4.39-.01 0-.13.02-.31.05v2.67c0 .28-.22.5-.5.5s-.5-.22-.5-.5v-2.55c-.32.03-.67.05-1 .05-.17 0-.35 0-.53-.02-.28-.02-.49-.25-.47-.53s.25-.5.53-.47c.16 0 .32.01.47.01.63 0 1.37-.09 1.8-.15.08-.46.2-1.36.2-2.35s-.13-1.88-.2-2.35c-.42-.06-1.16-.15-1.8-.15-.15 0-.31 0-.47.01-.28.03-.51-.19-.53-.47s.19-.51.47-.53c.18-.01.36-.02.53-.02 1.03 0 2.26.21 2.31.22.2.04.36.19.4.39.01.05.29 1.36.29 2.89z"/></svg>