<svg id="Layer_1" viewBox="0 0 24 24" xmlns="http://www.w3.org/2000/svg" data-name="Layer 1"><path d="m19.127 2.609c-.032-.162-.144-.298-.295-.362-.121-.051-2.992-1.247-6.832-1.247-3.872 0-6.715 1.197-6.834 1.248-.151.065-.261.2-.293.361-.009.043-.873 4.395-.873 9.391s.864 9.347.873 9.391c.033.162.143.298.295.362.121.051 2.993 1.247 6.832 1.247 3.871 0 6.714-1.197 6.833-1.248.151-.065.262-.2.294-.361.009-.043.873-4.395.873-9.391s-.864-9.347-.873-9.391zm-.931 18.317c-.751.278-3.164 1.073-6.196 1.073-3.008 0-5.439-.796-6.197-1.074-.183-1.011-.803-4.743-.803-8.926s.62-7.92.803-8.927c.751-.278 3.165-1.073 6.197-1.073 3.009 0 5.439.796 6.196 1.074.184 1.01.804 4.739.804 8.926s-.62 7.92-.804 8.927z"/><path d="m12 3.5c-1.378 0-2.5 1.121-2.5 2.5s1.122 2.5 2.5 2.5 2.5-1.121 2.5-2.5-1.121-2.5-2.5-2.5zm0 4c-.827 0-1.5-.673-1.5-1.5s.673-1.5 1.5-1.5 1.5.673 1.5 1.5-.673 1.5-1.5 1.5z"/><path d="m12 9.5c-1.378 0-2.5 1.121-2.5 2.5s1.122 2.5 2.5 2.5 2.5-1.121 2.5-2.5-1.121-2.5-2.5-2.5zm0 4c-.827 0-1.5-.673-1.5-1.5s.673-1.5 1.5-1.5 1.5.673 1.5 1.5-.673 1.5-1.5 1.5z"/><path d="m12 15.5c-1.378 0-2.5 1.121-2.5 2.5s1.122 2.5 2.5 2.5 2.5-1.121 2.5-2.5-1.121-2.5-2.5-2.5zm0 4c-.827 0-1.5-.673-1.5-1.5s.673-1.5 1.5-1.5 1.5.673 1.5 1.5-.673 1.5-1.5 1.5z"/><circle cx="12" cy="6" r=".75"/><circle cx="12" cy="12" r=".75"/><circle cx="12" cy="18" r=".75"/></svg>