<svg id="Layer_1" viewBox="0 0 24 24" xmlns="http://www.w3.org/2000/svg" data-name="Layer 1"><path d="m22.407 21.009c-.017.003-.569.105-1.473.243-1.21-9.494-8.222-19.605-8.525-20.039-.186-.266-.633-.266-.818 0-.303.434-7.314 10.545-8.525 20.039-.904-.137-1.456-.24-1.473-.243-.266-.049-.533.126-.584.398-.051.271.127.533.398.584.054.01 5.421 1.009 10.593 1.009s10.539-.999 10.593-1.009c.271-.051.449-.312.398-.584s-.319-.447-.584-.398zm-15.05-10.205c1.655.154 3.219.236 4.643.236s2.988-.081 4.643-.236c.688 1.499 1.346 3.1 1.902 4.75-2.375.32-4.579.488-6.545.488s-4.17-.168-6.545-.488c.556-1.65 1.214-3.251 1.902-4.75zm4.643-8.407c.773 1.178 2.517 3.957 4.19 7.437-1.486.129-2.903.205-4.19.205s-2.704-.076-4.19-.205c1.674-3.479 3.418-6.259 4.19-7.437zm-7.938 18.999c.206-1.615.589-3.257 1.086-4.873 2.486.342 4.793.519 6.852.519s4.366-.177 6.852-.519c.498 1.616.881 3.258 1.086 4.873-2.021.278-5.01.604-7.938.604s-5.917-.326-7.938-.604z"/></svg>