<svg id="Layer_1" viewBox="0 0 24 24" xmlns="http://www.w3.org/2000/svg" data-name="Layer 1"><path d="m19.127 2.609c-.032-.162-.144-.298-.295-.362-.121-.051-2.992-1.247-6.832-1.247-3.871 0-6.714 1.197-6.833 1.248-.151.065-.262.2-.294.361-.009.043-.873 4.395-.873 9.391s.864 9.347.873 9.391c.032.162.144.298.295.362.121.051 2.992 1.247 6.832 1.247 3.871 0 6.714-1.197 6.833-1.248.151-.065.262-.2.294-.361.009-.043.873-4.395.873-9.391s-.864-9.347-.873-9.391zm-.931 18.317c-.751.278-3.164 1.073-6.196 1.073-3.009 0-5.439-.796-6.196-1.074-.184-1.01-.804-4.739-.804-8.926s.62-7.92.804-8.927c.751-.278 3.164-1.073 6.196-1.073 3.009 0 5.439.796 6.196 1.074.184 1.01.804 4.739.804 8.926s-.62 7.92-.804 8.927z"/><path d="m12 3.5c-1.379 0-2.5 1.121-2.5 2.5s1.121 2.5 2.5 2.5 2.5-1.121 2.5-2.5-1.121-2.5-2.5-2.5zm0 4c-.827 0-1.5-.673-1.5-1.5s.673-1.5 1.5-1.5 1.5.673 1.5 1.5-.673 1.5-1.5 1.5z"/><path d="m12 9.5c-1.379 0-2.5 1.121-2.5 2.5s1.121 2.5 2.5 2.5 2.5-1.121 2.5-2.5-1.121-2.5-2.5-2.5zm0 4c-.827 0-1.5-.673-1.5-1.5s.673-1.5 1.5-1.5 1.5.673 1.5 1.5-.673 1.5-1.5 1.5z"/><path d="m12 15.5c-1.379 0-2.5 1.121-2.5 2.5s1.121 2.5 2.5 2.5 2.5-1.121 2.5-2.5-1.121-2.5-2.5-2.5zm0 4c-.827 0-1.5-.673-1.5-1.5s.673-1.5 1.5-1.5 1.5.673 1.5 1.5-.673 1.5-1.5 1.5z"/><circle cx="12" cy="18" r=".75"/></svg>