<svg id="Layer_1" viewBox="0 0 24 24" xmlns="http://www.w3.org/2000/svg" data-name="Layer 1"><path d="m17.677 9.532c-.111-.042-2.76-1.032-5.677-1.032s-5.565.99-5.677 1.032c-.153.058-.269.188-.309.347-.021.084-.515 2.089-.515 4.621 0 3.355.492 5.522.513 5.613.038.163.154.296.311.355.051.019.64.24 1.545.472l-.795 1.299c-.144.236-.069.543.166.688.081.05.171.074.261.074.168 0 .332-.085.427-.239l.972-1.587c.91.181 1.986.326 3.102.326s2.19-.145 3.101-.327l.972 1.588c.095.154.259.239.427.239.09 0 .18-.024.261-.074.235-.144.31-.452.166-.688l-.796-1.3c.905-.232 1.494-.452 1.546-.471.157-.059.273-.193.311-.356.021-.092.513-2.284.513-5.611 0-2.532-.494-4.537-.515-4.621-.04-.159-.155-.289-.309-.347zm-.177 4.968c0 .17-.001.336-.004.5-.031 0-.062.003-.093.009-.024.005-2.235.436-4.903.486v-5.985c2.045.084 3.916.65 4.573.87.129.608.427 2.221.427 4.12zm-10.573-4.12c.659-.22 2.531-.786 4.573-.87v5.985c-2.673-.05-4.879-.481-4.902-.485-.032-.006-.063-.01-.094-.01-.003-.164-.004-.33-.004-.5 0-1.894.298-3.51.427-4.12zm5.073 10.12c-2.229 0-4.35-.639-5.066-.878-.1-.528-.313-1.815-.398-3.606.331.061 1.239.216 2.464.335v1.15c0 .276.224.5.5.5s.5-.224.5-.5v-1.068c.623.041 1.298.068 2 .068s1.377-.027 2-.068v1.068c0 .276.224.5.5.5s.5-.224.5-.5v-1.15c1.225-.119 2.134-.274 2.464-.334-.085 1.781-.297 3.075-.397 3.606-.72.24-2.843.878-5.066.878z"/><path d="m12 1c-6.065 0-11 4.935-11 11v10.5c0 .276.224.5.5.5s.5-.224.5-.5v-10.5c0-5.514 4.486-10 10-10s10 4.486 10 10v10.5c0 .276.224.5.5.5s.5-.224.5-.5v-10.5c0-6.065-4.935-11-11-11z"/></svg>