<svg id="Layer_1" viewBox="0 0 24 24" xmlns="http://www.w3.org/2000/svg" data-name="Layer 1"><path d="m10.043 18.337c.041.009.398.086.957.184v.978c0 .276.224.5.5.5s.5-.224.5-.5v-.817c1.107.161 2.555.317 3.999.317s2.892-.157 3.999-.317v.817c0 .276.224.5.5.5s.5-.224.5-.5v-.978c.559-.098.916-.175.957-.184.184-.04.329-.181.376-.362.027-.104.666-2.597.666-5.517 0-1.56-.188-2.984-.346-3.904-.192-1.117-1.083-1.989-2.218-2.17-1.113-.175-2.786-.384-4.435-.384s-3.322.209-4.435.384c-1.135.181-2.026 1.053-2.217 2.17-.158.92-.346 2.343-.346 3.904 0 2.919.639 5.412.666 5.517.047.182.193.322.376.362zm11.392-.914c-.822.16-3.168.576-5.436.576s-4.614-.416-5.436-.576c-.138-.613-.432-2.106-.529-3.866.716-.125 3.383-.557 5.965-.557s5.249.432 5.965.557c-.097 1.759-.391 3.252-.529 3.866zm.232-8.699c.153.886.344 2.34.33 3.823-.848-.145-3.128-.496-5.497-.542v-4.99c1.418.036 2.815.206 3.779.358.711.112 1.269.655 1.388 1.351zm-11.335 0c.12-.696.678-1.239 1.388-1.351.964-.152 2.362-.322 3.78-.358v4.99c-2.369.046-4.65.397-5.497.542-.014-1.483.177-2.937.33-3.823zm12.661 13.216c.041.273-.148.527-.422.568-.033.005-3.363.49-6.572.49s-6.538-.485-6.572-.49c-.273-.041-.462-.295-.422-.568s.298-.458.567-.422c.033.005 3.292.48 6.426.48s6.393-.476 6.426-.48c.271-.031.527.149.567.422zm-16.356-4.397c-.077-.021-1.872-.52-4.431-.543-.116-1.5-.204-3.224-.204-5 0-3.871.782-7.837 1.023-8.965.511-.094 1.594-.285 2.977-.477v1.444c-.007.292.273.539.562.496 2.241-.283 4.017-.465 5.945-.496.273-.005.492-.227.492-.5v-2c.009-.264-.247-.527-.508-.5-4.72.077-9.93 1.102-9.982 1.113-.192.038-.345.186-.389.376-.046.195-1.118 4.838-1.118 9.509 0 5.23.752 10.02.76 10.067.03.19.166.346.351.401.073.021 1.814.532 4.388.532.276 0 .5-.224.5-.5v-4.476c0-.224-.148-.42-.364-.481zm.364-15.118c1.519-.19 3.279-.36 4.999-.412v1c-1.623.047-3.167.197-4.999.422zm-1 19.568c-1.573-.044-2.768-.281-3.3-.406-.083-.576-.258-1.88-.412-3.586 1.727.023 3.091.278 3.712.416v3.577zm7.749-6.494c0 .414-.336.75-.75.75s-.75-.336-.75-.75.336-.75.75-.75.75.336.75.75zm5.999 0c0 .414-.336.75-.75.75s-.75-.336-.75-.75.336-.75.75-.75.75.336.75.75z"/></svg>