<?xml version="1.0" encoding="UTF-8"?>
<svg xmlns="http://www.w3.org/2000/svg" id="Layer_1" data-name="Layer 1" viewBox="0 0 24 24">
  <g>
    <path d="M21.32,22.295c-.924-2.058-2.366-3.546-3.592-4.528,.364-.173,.558-.302,.583-.319,.101-.069,.173-.172,.203-.291,.033-.128,.8-3.184,.8-7.274,0-4.136-.773-6.707-.806-6.814-.036-.116-.112-.216-.216-.279-.119-.073-2.942-1.789-6.293-1.789s-6.173,1.716-6.292,1.789c-.104,.063-.182,.164-.217,.281-.033,.108-.806,2.712-.806,6.812,0,4.125,.768,7.149,.8,7.276,.031,.119,.104,.223,.208,.291,.025,.017,.219,.143,.581,.314-1.227,.981-2.67,2.471-3.594,4.531-.113,.252,0,.548,.251,.661,.066,.03,.137,.044,.205,.044,.19,0,.373-.109,.456-.295,.964-2.148,2.555-3.627,3.768-4.512,1.051,.347,2.598,.684,4.641,.684,2.055,0,3.598-.335,4.645-.68,1.211,.885,2.8,2.364,3.763,4.508,.083,.186,.266,.295,.456,.295,.068,0,.139-.014,.205-.044,.252-.113,.364-.409,.251-.661ZM12,2c2.626,0,4.973,1.196,5.604,1.546,.112,.425,.381,1.564,.554,3.24-.422,.742-2.807,4.65-6.169,4.65-3.293,0-5.709-3.895-6.144-4.648,.174-1.669,.442-2.815,.554-3.242,.631-.35,2.976-1.545,5.603-1.545Zm-5.594,14.71c-.167-.735-.721-3.423-.721-6.827,0-.506,.013-.989,.034-1.448,1.13,1.573,3.347,4,6.268,4,2.959,0,5.168-2.417,6.293-3.991,.021,.455,.033,.935,.033,1.438,0,3.382-.556,6.092-.722,6.829-.531,.291-2.391,1.165-5.593,1.165-3.17,0-5.054-.876-5.594-1.167Z"/>
    <path d="M10.178,5.787h3.645c.276,0,.5-.224,.5-.5s-.224-.5-.5-.5h-3.645c-.276,0-.5,.224-.5,.5s.224,.5,.5,.5Z"/>
  </g>
  <circle cx="12.001" cy="14.975" r=".745"/>
</svg>
