<svg id="Layer_1" viewBox="0 0 24 24" xmlns="http://www.w3.org/2000/svg" data-name="Layer 1"><path d="m22.353 3.374-1.163-.333-.331-1.159c-.11-.396-.447-.65-.858-.65s-.748.255-.857.647l-.333 1.163-1.159.331c-.396.11-.65.447-.65.858s.255.748.647.857l1.163.333.331 1.159c.11.396.447.65.858.65s.748-.255.857-.647l.333-1.163 1.159-.331c.396-.11.65-.447.65-.858s-.255-.748-.647-.857zm-1.44 1.087c-.331.097-.586.352-.684.686l-.229.799-.229-.802c-.097-.331-.352-.586-.686-.684l-.799-.229.802-.229c.331-.097.586-.352.684-.686l.229-.799.229.802c.097.331.352.586.686.684l.799.229zm-16.433 13.319.928-.265c.359-.102.592-.409.592-.783s-.232-.682-.59-.782l-.862-.198-.265-.928c-.102-.359-.409-.592-.783-.592s-.682.232-.782.59l-.198.862-.928.265c-.359.102-.592.409-.592.783s.232.682.59.782l.862.198.265.928c.102.359.409.592.783.592s.682-.232.782-.59zm-.894-.343-.087.304-.087-.304c-.085-.297-.321-.533-.618-.618l-.304-.087.304-.087c.297-.085.533-.321.618-.618l.087-.304.087.304c.085.297.321.533.618.618l.304.087-.304.087c-.297.085-.533.321-.618.618zm16.408 4.901c-.037.275-.297.464-.565.425-.037-.005-3.806-.531-7.43-.531s-7.393.526-7.43.531c-.283.031-.527-.152-.565-.425s.151-.526.425-.565c.039-.006 3.874-.541 7.57-.541s7.531.535 7.57.541c.273.039.463.292.425.565zm-12.989-10.216c-.038-.272.151-.525.425-.564.095-.014 2.338-.326 4.57-.326s4.476.312 4.57.326c.273.039.463.292.425.564-.037.275-.297.465-.564.426-.022-.003-2.271-.316-4.431-.316s-4.408.313-4.431.316c-.272.03-.526-.152-.564-.426zm2-10.141c-.038-.273.151-.526.425-.565.054-.008 1.315-.184 2.57-.184s2.517.176 2.57.184c.273.039.463.292.425.565-.037.275-.297.464-.565.425-.012-.002-1.247-.174-2.43-.174s-2.418.172-2.43.174c-.281.029-.527-.152-.565-.425z"/></svg>