<svg id="Layer_1" viewBox="0 0 24 24" xmlns="http://www.w3.org/2000/svg" data-name="Layer 1"><path d="m23 8.5c0 4.138-1.348 6.343-4.371 7.15-.261.07-.541-.085-.612-.354-.071-.267.088-.541.354-.612 2.544-.68 3.629-2.528 3.629-6.184 0-4.738-1.762-6.5-6.5-6.5-3.655 0-5.504 1.085-6.184 3.629-.072.267-.342.422-.612.354-.267-.071-.426-.346-.354-.612.808-3.023 3.013-4.371 7.15-4.371 5.257 0 7.5 2.243 7.5 7.5zm-4.813 1.488c-.27-.059-.44-.325-.381-.595.191-.875.241-1.746.148-2.641l-3.398 3.398c.986 1.216 1.444 2.975 1.444 5.349 0 5.257-2.243 7.5-7.5 7.5s-7.5-2.242-7.5-7.499 2.243-7.5 7.5-7.5c2.374 0 4.133.458 5.349 1.444l3.399-3.399c-.895-.093-1.765-.044-2.641.148-.267.06-.536-.112-.595-.381-.06-.271.111-.537.381-.596 1.321-.29 2.631-.291 4.005 0 .194.041.346.192.387.387.288 1.374.288 2.684 0 4.005-.057.271-.332.441-.596.381zm-3.187 5.512c0-4.738-1.762-6.5-6.5-6.5s-6.5 1.762-6.5 6.5 1.762 6.5 6.5 6.5 6.5-1.762 6.5-6.5z"/></svg>