<svg id="Layer_1" viewBox="0 0 24 24" xmlns="http://www.w3.org/2000/svg" data-name="Layer 1"><path d="m19.995 22.338c-.037.274-.297.464-.565.425-.038-.005-3.806-.531-7.43-.531s-7.393.526-7.43.531c-.271.036-.526-.152-.565-.425s.152-.526.425-.565c.038-.006 3.874-.541 7.57-.541s7.532.535 7.57.541c.273.039.464.292.425.565zm-3.495-9.785c.245 0 .459-.181.495-.431.039-.273-.152-.525-.425-.564-.094-.014-2.338-.326-4.57-.326s-4.476.312-4.57.326c-.273.039-.464.291-.425.564s.293.462.565.426c.022-.003 2.271-.316 4.43-.316 2.261.005 4.348.314 4.5.321zm-10.07-5.924c-.273.038-.464.291-.425.564.037.275.297.465.565.426.027-.004 2.78-.388 5.43-.388s5.403.384 5.43.388c.282.036.526-.152.565-.426s-.152-.526-.425-.564c-.115-.017-2.85-.397-5.57-.397s-5.455.381-5.57.397zm5.57 9.603c-1.744 0-3.496.244-3.57.255-.273.039-.464.292-.425.564.039.273.292.461.565.426.018-.003 1.759-.245 3.43-.245s3.413.242 3.43.245c.268.039.528-.151.565-.426.039-.272-.152-.525-.425-.564-.074-.011-1.826-.255-3.57-.255zm-8-9c-.41 0-.747-.255-.858-.648l-.332-1.161-1.162-.333c-.393-.11-.647-.447-.647-.857s.255-.747.649-.858l1.16-.331.332-1.163c.112-.393.449-.647.858-.647s.747.255.858.648l.332 1.161 1.162.333c.393.11.647.447.647.857s-.255.747-.649.858l-1.16.331-.332 1.163c-.112.393-.449.647-.858.647zm.912-2.771.803-.229-.799-.229c-.336-.099-.591-.354-.687-.686l-.229-.802-.229.801c-.096.332-.352.588-.684.686l-.803.229.799.229c.336.099.591.354.687.686l.229.802.229-.801c.096-.332.352-.588.684-.686zm18.088 12.271c0 .374-.232.682-.592.783l-.928.265-.197.862c-.102.358-.41.59-.783.59s-.681-.231-.783-.591l-.266-.929-.861-.198c-.358-.101-.59-.408-.59-.782s.232-.682.592-.783l.928-.265.197-.862c.102-.358.41-.59.783-.59s.681.231.783.591l.266.929.861.198c.358.101.59.408.59.782zm-1.491 0-.303-.087c-.3-.086-.531-.316-.618-.616l-.087-.306-.086.304c-.088.302-.319.532-.619.618l-.304.087.303.087c.3.086.531.316.618.616l.087.306.086-.304c.088-.302.319-.532.619-.618zm-11.509-13.491v-.018c.022-1.259.75-1.984 1.997-1.991 1.235.009 1.981.753 2.003 1.991-.024 1.295-.733 2.002-1.997 2.009-1.271-.008-1.979-.715-2.003-1.991zm1-.009c.015.716.297.996 1.003 1 .712-.004.983-.277.997-1.009-.012-.685-.312-.986-1.003-.991-.7.004-.981.284-.997 1z"/></svg>