<svg id="Layer_1" viewBox="0 0 24 24" xmlns="http://www.w3.org/2000/svg" data-name="Layer 1"><path d="m22.823 1.601c-.031-.22-.204-.393-.425-.424-1.647-.235-3.319-.235-4.969 0-.273.039-.464.292-.425.566.039.273.298.46.565.424 1.216-.174 2.442-.203 3.662-.106l-5.819 5.819c-.804-.587-1.915-.88-3.413-.88s-2.609.293-3.413.88l-1.88-1.88 1.646-1.646c.195-.195.195-.512 0-.707s-.512-.195-.707 0l-1.646 1.646-3.232-3.232c1.22-.097 2.447-.067 3.661.106.279.043.527-.151.566-.424s-.151-.527-.424-.566c-1.65-.236-3.322-.236-4.97 0-.22.032-.393.205-.424.424-.235 1.649-.235 3.321 0 4.97.036.249.25.429.495.429.301.003.541-.273.496-.571-.173-1.214-.203-2.441-.106-3.661l3.232 3.232-1.646 1.646c-.195.195-.195.512 0 .707s.512.195.707 0l1.646-1.646 1.88 1.88c-.587.804-.88 1.915-.88 3.413 0 3.325 1.368 4.824 4.5 4.971v2.529h-2c-.276 0-.5.224-.5.5s.224.5.5.5h2v2c0 .276.224.5.5.5s.5-.224.5-.5v-2h2c.276 0 .5-.224.5-.5s-.224-.5-.5-.5h-2v-2.529c3.131-.147 4.5-1.645 4.5-4.971 0-1.498-.293-2.609-.88-3.413l5.819-5.819c.098 1.22.068 2.447-.106 3.661-.045.298.194.574.496.571.244 0 .458-.18.494-.429.236-1.649.236-3.321 0-4.97zm-10.823 14.399c-2.953 0-4-1.047-4-4s1.047-4 4-4 4 1.047 4 4-1.047 4-4 4z"/></svg>