<svg id="Layer_1" viewBox="0 0 24 24" xmlns="http://www.w3.org/2000/svg" data-name="Layer 1"><path d="m14.993 12.97c0 3.328-2.583 5.304-2.693 5.387-.218.164-.531.121-.697-.099s-.121-.533.098-.698c.021-.017 2.029-1.564 2.272-4.09h-4.465c-.276 0-.499-.223-.499-.499 0-3.328 2.583-5.304 2.693-5.387.221-.166.532-.119.697.099.166.22.121.533-.098.698-.021.017-2.029 1.564-2.271 4.09h4.465c.276 0 .499.223.499.499zm6.963 9.664c-.073.268-.356.421-.614.347-.037-.01-3.8-1.034-9.342-1.034s-9.305 1.025-9.342 1.034c-.27.075-.541-.082-.614-.347-.074-.266.082-.541.347-.614.051-.014.481-.131 1.225-.282-.151-.986-.593-4.17-.593-7.654.104-4.336.321-6.44.583-8.28-.6.126-.938.216-.949.219-.27.074-.541-.082-.614-.347-.074-.266.082-.541.347-.614.054-.015.54-.146 1.373-.311.032-.204.127-.833.158-1.034.097-.647.591-1.155 1.23-1.265.273-.047.571-.096.865-.144v-.811c0-.276.223-.499.499-.499s.499.223.499.499v.664c.237-.033.471-.07.709-.096.328-.039.657.069.902.289.244.218.383.531.383.858v.874c.922-.059 1.923-.096 2.992-.096s2.07.036 2.992.096v-.874c0-.327.14-.64.384-.858.244-.22.566-.328.902-.289.238.026.475.057.709.089v-.657c0-.276.223-.499.499-.499s.499.223.499.499v.809c.278.046.548.091.793.134.71.122 1.205.63 1.3 1.278.031.202.127.828.158 1.033.833.165 1.319.296 1.373.311.265.073.421.348.347.614-.061.221-.262.365-.48.365-.044 0-.089-.006-.133-.019-.011-.003-.349-.094-.949-.219.263 1.84.48 3.942.584 8.268 0 3.494-.442 6.679-.592 7.665.744.151 1.174.268 1.225.282.265.073.421.348.347.614zm-5.966-18.47c1.262.109 2.34.256 3.209.401l-.106-.698c-.034-.224-.196-.393-.413-.43-.81-.14-1.649-.284-2.51-.379-.116 0-.165.046-.179.156v.95zm-11.189.401c.869-.144 1.947-.291 3.209-.401v-.95c-.016-.111-.058-.155-.179-.156-.861.094-1.699.239-2.439.366-.289.05-.451.218-.484.442l-.106.698zm7.199 16.384c3.158 0 5.72.317 7.403.606.151-.99.576-4.087.576-7.47-.109-4.525-.342-6.581-.623-8.478-1.643-.287-4.213-.617-7.357-.617s-5.714.33-7.357.617c-.28 1.897-.514 3.954-.623 8.49 0 3.374.425 6.469.576 7.459 1.684-.289 4.245-.606 7.404-.606z"/></svg>