<svg id="Layer_1" viewBox="0 0 24 24" xmlns="http://www.w3.org/2000/svg" data-name="Layer 1"><path d="m19.995 22.338c-.037.275-.297.464-.565.425-.037-.005-3.806-.531-7.43-.531s-7.393.526-7.43.531c-.283.031-.527-.152-.565-.425s.151-.526.425-.565c.039-.006 3.874-.541 7.57-.541s7.531.535 7.57.541c.273.039.463.292.425.565zm3.005-6.106c0 .411-.255.748-.65.858l-1.159.331-.333 1.163c-.109.393-.446.647-.857.647s-.748-.255-.858-.65l-.331-1.159-1.163-.333c-.393-.109-.647-.446-.647-.857s.255-.748.65-.858l1.159-.331.333-1.163c.109-.393.446-.647.857-.647s.748.255.858.65l.331 1.159 1.163.333c.393.109.647.446.647.857zm-1.286 0-.799-.229c-.334-.098-.589-.353-.686-.684l-.229-.802-.229.799c-.098.334-.353.589-.684.686l-.802.229.799.229c.334.098.589.353.686.684l.229.802.229-.799c.098-.334.353-.589.684-.686zm-17.432-10.59c-.101.357-.408.59-.782.59s-.682-.232-.783-.592l-.265-.928-.862-.198c-.357-.101-.59-.408-.59-.782s.232-.682.592-.783l.928-.265.198-.862c.101-.357.408-.59.782-.59s.682.232.783.592l.265.928.862.198c.357.101.59.408.59.782s-.232.682-.592.783l-.928.265zm-.077-1.823.304-.087-.304-.087c-.297-.085-.533-.321-.618-.618l-.087-.304-.087.304c-.085.297-.321.533-.618.618l-.304.087.304.087c.297.085.533.321.618.618l.087.304.087-.304c.085-.297.321-.533.618-.618z"/></svg>