<svg id="Layer_1" viewBox="0 0 24 24" xmlns="http://www.w3.org/2000/svg" data-name="Layer 1"><path d="m21.673 5.031c-.112-.041-1.913-.691-4.684-1.13 0-.002 0-.004 0-.006-.352-1.627-.757-2.247-.802-2.312-.07-.103-.177-.175-.298-.203-.067-.015-1.667-.38-3.912-.38s-3.807.365-3.872.381c-.12.028-.226.101-.296.202-.045.065-.448.682-.799 2.305v.012c-2.771.44-4.572 1.089-4.684 1.131-.259.096-.392.383-.296.642s.382.391.642.296c.007-.003.141-.05.373-.125.075 1.596.217 3.271.447 5.012.897 6.791 2.414 10.4 2.709 11.055.056.124.161.22.29.266.545.193 2.555.823 5.508.823s4.963-.629 5.509-.823c.129-.045.233-.142.289-.266.296-.658 1.814-4.282 2.709-11.054.229-1.737.373-3.413.448-5.012.232.074.365.122.372.124.252.095.547-.035.642-.296.096-.259-.037-.546-.296-.642zm-13.124-2.721c.486-.095 1.769-.31 3.429-.31s2.975.216 3.471.311c.105.217.29.683.475 1.438-1.185-.148-2.505-.249-3.924-.249s-2.741.101-3.926.249c.186-.758.372-1.224.475-1.439zm10.965 8.417c-.808 6.123-2.121 9.581-2.543 10.577-.705.227-2.469.697-4.972.697s-4.267-.47-4.972-.697c-.421-.992-1.732-4.438-2.543-10.577-.238-1.8-.386-3.531-.455-5.168 1.611-.435 4.518-1.058 7.97-1.058s6.359.623 7.97 1.058c-.069 1.64-.218 3.372-.456 5.168zm-8.415.274c.049 0 4.9.074 4.9 6.5 0 .276-.224.5-.5.5s-.5-.224-.5-.5c0-5.438-3.741-5.5-3.9-5.5h-2.521c.815.958 1.713 1.843 2.721 2.6.221.166.266.479.1.7-.166.223-.481.265-.7.1-1.365-1.024-2.576-2.235-3.6-3.6-.133-.178-.133-.422 0-.6 1.024-1.365 2.235-2.576 3.6-3.6.221-.166.534-.122.7.1.166.221.121.534-.1.7-1.008.757-1.905 1.642-2.721 2.6z"/></svg>