<svg id="Layer_1" viewBox="0 0 24 24" xmlns="http://www.w3.org/2000/svg" data-name="Layer 1"><path d="m12 9c.276 0 .5.224.5.5v3h3c.276 0 .5.224.5.5s-.224.5-.5.5h-3v3c0 .276-.224.5-.5.5s-.5-.224-.5-.5v-3h-3c-.276 0-.5-.224-.5-.5s.224-.5.5-.5h3v-3c0-.276.224-.5.5-.5zm9.991-3.328c-.096.26-.38.393-.642.297-.009-.003-.233-.083-.622-.202.176 1.648.273 3.726.273 6.107 0 6.388-1.115 9.597-1.163 9.73-.049.139-.157.249-.295.301-.119.044-2.971 1.094-7.542 1.094s-7.423-1.05-7.542-1.094c-.138-.052-.246-.162-.295-.301-.047-.133-1.162-3.342-1.162-9.73 0-2.369.096-4.446.271-6.093-.359.11-.567.184-.576.188-.253.095-.547-.035-.642-.296-.095-.259.037-.546.296-.642.112-.041 1.913-.691 4.684-1.131 0-.004 0-.008 0-.012.351-1.624.754-2.24.799-2.305.07-.102.176-.174.296-.202.065-.016 1.626-.381 3.872-.381s3.845.365 3.912.38c.121.028.228.101.299.204.045.065.448.684.8 2.311v.006c2.771.44 4.573 1.089 4.685 1.13.259.096.392.383.296.642zm-13.895-1.924c1.185-.148 2.506-.249 3.926-.249s2.74.1 3.925.249c-.186-.755-.371-1.221-.476-1.438-.496-.095-1.807-.311-3.472-.311s-2.942.214-3.429.31c-.104.215-.289.681-.475 1.439zm11.596 1.73c-1.66-.427-4.426-.979-7.67-.979-3.274 0-6.064.562-7.718.99-.198 1.661-.304 3.862-.304 6.385 0 5.264.79 8.345 1.034 9.17.747.238 3.299.955 6.966.955s6.22-.717 6.966-.955c.244-.825 1.034-3.906 1.034-9.17 0-2.537-.107-4.735-.308-6.396z"/></svg>