<svg id="Layer_1" viewBox="0 0 24 24" xmlns="http://www.w3.org/2000/svg" data-name="Layer 1"><path d="m12 11.793 2.646-2.646c.195-.195.512-.195.707 0s.195.512 0 .707l-2.646 2.646 2.646 2.646c.195.195.195.512 0 .707s-.512.195-.707 0l-2.646-2.646-2.646 2.646c-.195.195-.512.195-.707 0s-.195-.512 0-.707l2.646-2.646-2.646-2.646c-.195-.195-.195-.512 0-.707s.512-.195.707 0zm9.991-6.121c-.096.26-.381.393-.642.297-.007-.003-.141-.05-.373-.124-.075 1.592-.218 3.267-.448 5.012-.897 6.791-2.415 10.4-2.71 11.055-.057.124-.161.22-.289.266-.546.193-2.555.823-5.508.823s-4.963-.629-5.509-.823c-.128-.045-.232-.142-.289-.266-.295-.655-1.812-4.264-2.71-11.055-.23-1.739-.372-3.413-.447-5.012-.232.074-.366.122-.372.124-.252.095-.547-.035-.642-.296-.096-.259.037-.546.296-.642.112-.041 1.913-.691 4.683-1.13 0-.004 0-.008 0-.012.351-1.624.755-2.241.8-2.306.07-.101.176-.173.295-.202.065-.016 1.625-.381 3.872-.381s3.845.365 3.912.38c.121.028.228.101.299.204.045.065.448.684.8 2.311v.006c2.771.44 4.573 1.089 4.685 1.131.259.096.392.383.296.642zm-13.895-1.924c1.185-.148 2.506-.249 3.926-.249s2.74.101 3.925.249c-.186-.755-.371-1.221-.476-1.438-.496-.095-1.807-.311-3.472-.311s-2.942.214-3.429.31c-.103.214-.289.68-.475 1.439zm11.896 1.809c-1.612-.435-4.519-1.058-7.97-1.058s-6.359.623-7.97 1.058c.069 1.64.217 3.371.455 5.168.811 6.138 2.122 9.584 2.543 10.577.706.227 2.47.697 4.973.697s4.266-.47 4.972-.697c.421-.992 1.732-4.438 2.543-10.577.238-1.804.387-3.536.456-5.168z"/></svg>