<svg id="Layer_1" viewBox="0 0 24 24" xmlns="http://www.w3.org/2000/svg" data-name="Layer 1"><path d="m12.322 8.1c1.173.88 2.216 1.923 3.1 3.101.166.221.122.534-.1.699-.22.167-.534.121-.699-.1-.615-.819-1.332-1.549-2.101-2.218v7.918c0 .276-.224.5-.5.5s-.5-.224-.5-.5v-7.918c-.769.669-1.485 1.398-2.1 2.218-.167.222-.481.265-.7.101-.221-.166-.266-.479-.101-.7.883-1.178 1.927-2.221 3.101-3.101.178-.133.422-.133.6 0zm9.669-2.427c-.095.26-.382.391-.642.297-.009-.004-.233-.084-.622-.202.176 1.649.273 3.727.273 6.107 0 6.388-1.115 9.597-1.163 9.73-.049.139-.157.248-.295.3-.119.045-2.971 1.095-7.542 1.095s-7.423-1.05-7.542-1.095c-.138-.052-.246-.161-.295-.3-.048-.134-1.163-3.343-1.163-9.73 0-2.37.096-4.448.27-6.093-.359.11-.566.184-.575.188-.252.093-.547-.035-.642-.297-.096-.26.037-.547.296-.642.112-.041 1.913-.691 4.683-1.131 0-.004 0-.008 0-.012.351-1.623.755-2.241.8-2.306.07-.102.175-.174.295-.202.065-.016 1.625-.381 3.872-.381s3.845.364 3.912.38c.121.028.228.101.299.204.045.064.448.684.8 2.311v.006c2.771.44 4.573 1.09 4.685 1.131.259.095.392.382.296.642zm-13.895-1.924c1.185-.148 2.506-.249 3.926-.249s2.74.101 3.925.249c-.186-.755-.371-1.22-.476-1.438-.496-.095-1.807-.311-3.472-.311s-2.942.215-3.429.31c-.103.214-.289.681-.475 1.439zm11.595 1.73c-1.66-.427-4.426-.978-7.67-.978-3.274 0-6.065.562-7.719.991-.198 1.659-.304 3.859-.304 6.384 0 5.264.79 8.345 1.034 9.17.746.238 3.299.955 6.966.955s6.22-.717 6.966-.955c.244-.825 1.034-3.906 1.034-9.17 0-2.536-.107-4.735-.308-6.397z"/></svg>