<svg id="Layer_1" viewBox="0 0 24 24" xmlns="http://www.w3.org/2000/svg" data-name="Layer 1"><path d="m22.854 22.146-3.811-3.811c.624-2.238 1.125-4.748 1.487-7.479.229-1.745.372-3.42.448-5.012.232.074.366.122.373.124.253.094.546-.034.642-.297.096-.259-.037-.546-.296-.642-.112-.041-1.914-.691-4.685-1.131 0-.002 0-.004 0-.006-.352-1.627-.755-2.246-.8-2.311-.071-.103-.178-.175-.299-.204-.067-.015-1.667-.38-3.912-.38s-3.807.365-3.872.381c-.119.028-.225.101-.295.202-.045.065-.449.682-.8 2.306v.014c-.775.123-1.458.26-2.034.39l-3.146-3.144c-.195-.195-.512-.195-.707 0s-.195.512 0 .707l20.999 21.001c.195.195.512.195.707 0s.195-.512 0-.707zm-14.283-19.836c.486-.095 1.769-.31 3.429-.31s2.976.216 3.472.311c.105.218.289.683.476 1.438-1.185-.148-2.506-.249-3.925-.249s-2.749.104-3.927.252c.186-.761.372-1.228.476-1.443zm3.451 2.19c3.451 0 6.359.623 7.97 1.058-.069 1.632-.218 3.364-.456 5.168-.325 2.465-.77 4.736-1.313 6.791l-12.382-12.383c1.56-.318 3.726-.634 6.182-.634zm5.812 17.039c.092.261-.045.546-.305.638-.546.193-2.555.823-5.508.823s-4.963-.629-5.509-.823c-.128-.045-.232-.142-.289-.266-.295-.655-1.812-4.264-2.71-11.055-.149-1.135-.268-2.251-.351-3.318-.022-.275.184-.516.459-.538.259-.017.516.184.537.459.083 1.049.199 2.147.347 3.265.811 6.138 2.122 9.584 2.543 10.577.706.227 2.47.697 4.973.697 2.794 0 4.667-.586 5.174-.765.262-.093.546.043.639.304z"/></svg>