<svg id="Layer_1" viewBox="0 0 24 24" xmlns="http://www.w3.org/2000/svg" data-name="Layer 1"><path d="m23 14.5c0 .276-.224.5-.5.5h-7c-.276 0-.5-.224-.5-.5s.224-.5.5-.5h7c.276 0 .5.224.5.5zm-2.5 3.5h-5c-.276 0-.5.224-.5.5s.224.5.5.5h5c.276 0 .5-.224.5-.5s-.224-.5-.5-.5zm-2 4h-3c-.276 0-.5.224-.5.5s.224.5.5.5h3c.276 0 .5-.224.5-.5s-.224-.5-.5-.5zm-5.501.408c.021.275-.186.515-.461.536-.471.035-.977.056-1.515.056-2.953 0-4.962-.629-5.508-.823-.128-.045-.233-.142-.289-.266-.295-.655-1.812-4.264-2.709-11.055-.23-1.742-.373-3.416-.447-5.012-.233.074-.367.122-.373.125-.26.094-.547-.037-.642-.296s.037-.546.296-.642c.112-.041 1.913-.691 4.684-1.131 0-.004 0-.008 0-.012.351-1.624.754-2.24.799-2.305.07-.102.176-.174.296-.202.065-.016 1.626-.381 3.872-.381s3.845.365 3.912.38c.122.028.228.101.299.204.045.065.449.684.8 2.311v.006c2.771.44 4.572 1.089 4.684 1.131.259.096.392.383.296.642-.095.262-.39.391-.642.296-.007-.003-.141-.05-.373-.125-.075 1.599-.218 3.275-.448 5.012l-.098.714c-.038.275-.298.464-.566.424-.273-.039-.463-.292-.424-.566l.097-.703c.237-1.795.386-3.528.456-5.168-1.611-.435-4.519-1.058-7.971-1.058s-6.359.623-7.97 1.058c.069 1.637.217 3.368.455 5.168.811 6.138 2.122 9.584 2.543 10.577.705.227 2.469.697 4.972.697.512 0 .993-.02 1.441-.053.284-.029.515.187.536.461zm-5.903-18.659c1.185-.148 2.506-.249 3.926-.249s2.74.1 3.925.249c-.186-.755-.37-1.22-.475-1.438-.496-.095-1.807-.311-3.471-.311s-2.942.214-3.429.31c-.104.215-.289.681-.475 1.439z"/></svg>