<svg id="Layer_1" viewBox="0 0 24 24" xmlns="http://www.w3.org/2000/svg" data-name="Layer 1"><path d="m22.662 7.41c-.369-2.705-2.526-4.812-5.248-5.123-3.349-.381-7.48-.381-10.829 0-2.721.312-4.878 2.418-5.247 5.123-.224 1.644-.338 3.188-.338 4.59 0 4.235 1.027 8.391 1.071 8.565.041.165.163.298.324.353.13.044 3.262 1.082 9.605 1.082s9.475-1.038 9.605-1.082c.161-.055.283-.188.324-.353.044-.175 1.071-4.33 1.071-8.565 0-1.402-.114-2.946-.338-4.59zm-3.662-3.61c1.42.724 2.447 2.097 2.671 3.745.068.502.107.974.155 1.455h-2.826zm-13-.379c.228-.06.459-.112.699-.14 3.273-.373 7.329-.373 10.603 0 .24.027.471.08.699.14v5.579h-3.543c-.119-1.534-.465-2.605-.483-2.658-.068-.204-.259-.342-.474-.342h-3c-.215 0-.406.138-.474.342-.018.053-.364 1.125-.483 2.658h-3.543v-5.579zm7.5 6.579c0 1.345-.239 2.463-.377 3h-2.245c-.139-.537-.377-1.655-.377-3s.239-2.463.377-3h2.245c.139.537.377 1.655.377 3zm-11.171-2.455c.224-1.648 1.251-3.021 2.671-3.745v5.2h-2.826c.047-.481.086-.953.155-1.455zm18.695 12.503c-.339.094-1.022.261-2.024.429v-6.977c0-.276-.224-.5-.5-.5s-.5.224-.5.5v7.128c-1.493.202-3.487.372-6 .372s-4.507-.171-6-.372v-7.128c0-.276-.224-.5-.5-.5s-.5.224-.5.5v6.977c-1.002-.168-1.685-.335-2.024-.429-.228-.998-.976-4.546-.976-8.048 0-.635.029-1.307.077-2h7.423c0 2.058.504 3.594.526 3.658.068.204.259.342.474.342h3c.215 0 .406-.138.474-.342.021-.064.526-1.601.526-3.658h7.423c.048.693.077 1.365.077 2 0 3.502-.749 7.05-.976 8.048z"/></svg>