<svg id="Layer_1" viewBox="0 0 24 24" xmlns="http://www.w3.org/2000/svg" data-name="Layer 1"><path d="m21.5 12c0-1.877-1.435-3.428-3.273-3.628.064-.361.097-.729.097-1.097 0-3.46-2.837-6.275-6.324-6.275s-6.324 2.815-6.324 6.275c0 .369.032.736.097 1.097-1.838.2-3.273 1.75-3.273 3.628 0 2.332 1.578 5.102 9 5.221v5.279c0 .276.224.5.5.5s.5-.224.5-.5v-5.279c7.422-.119 9-2.889 9-5.221zm-9 4.221v-2.341c.496-.313 1.758-1.184 2.887-2.563.175-.214.144-.529-.07-.704-.215-.175-.529-.144-.704.07-.738.902-1.551 1.573-2.113 1.985v-3.168c0-.276-.224-.5-.5-.5s-.5.224-.5.5v3.134c-.58-.413-1.394-1.073-2.113-1.951-.175-.214-.489-.246-.704-.07-.213.175-.245.49-.07.704 1.079 1.319 2.324 2.173 2.887 2.521v2.383c-5.309-.083-8-1.502-8-4.221 0-1.461 1.201-2.65 2.676-2.65h.219c.157 0 .305-.074.399-.199.095-.125.125-.287.082-.438-.133-.467-.2-.951-.2-1.438 0-2.909 2.388-5.275 5.324-5.275s5.324 2.366 5.324 5.275c0 .488-.067.972-.2 1.438-.043.151-.013.313.082.438.094.125.242.199.399.199h.219c1.476 0 2.676 1.189 2.676 2.65 0 2.72-2.691 4.138-8 4.221z"/></svg>