<svg id="Layer_1" viewBox="0 0 24 24" xmlns="http://www.w3.org/2000/svg" data-name="Layer 1"><path d="m22.989 20.248c-.031-.148-.805-3.706-4.319-9.671-3.381-5.739-6.045-8.19-6.337-8.451-.189-.169-.476-.169-.665 0-.292.261-2.956 2.711-6.337 8.451-3.516 5.965-4.289 9.523-4.32 9.671-.052.25.091.499.333.578.146.048 3.656 1.174 10.656 1.174s10.51-1.126 10.656-1.174c.242-.08.386-.329.333-.578zm-10.989.752c-5.427 0-8.747-.705-9.893-.999.319-1.127 1.367-4.304 4.084-8.917 2.718-4.613 4.982-7.069 5.809-7.894.827.825 3.091 3.281 5.809 7.894 2.718 4.612 3.765 7.789 4.084 8.917-1.146.293-4.466.999-9.893.999zm-.5-5.5v-7c0-.276.224-.5.5-.5s.5.224.5.5v7c0 .276-.224.5-.5.5s-.5-.224-.5-.5zm1.253 2.497c0 .415-.335.75-.75.75s-.75-.335-.75-.75.335-.75.75-.75.75.335.75.75z"/></svg>