<svg id="Layer_1" viewBox="0 0 24 24" xmlns="http://www.w3.org/2000/svg" data-name="Layer 1"><path d="m22.929 21.598c-.063.106-.163.177-.273.228-.146.049-3.656 1.175-10.656 1.175s-10.51-1.126-10.656-1.175c-.242-.079-.386-.328-.333-.577.031-.148.805-3.707 4.319-9.671 3.037-5.155 5.489-7.651 6.17-8.295v-1.783c0-.276.224-.5.5-.5s.5.224.5.5v1.782c.421.399 1.482 1.469 2.943 3.418.166.221.121.534-.1.699-.218.166-.533.123-.699-.1-1.232-1.641-2.17-2.637-2.645-3.108-.826.823-3.09 3.279-5.808 7.893-2.726 4.626-3.768 7.792-4.085 8.916 1.145.293 4.465.999 9.894.999s8.752-.707 9.892-1c-.306-1.085-1.293-4.091-3.825-8.473-.139-.239-.057-.545.183-.683.235-.139.544-.058.683.183 3.292 5.697 4.027 9.079 4.057 9.221.011.12 0 .242-.06.349zm-8.686-9.315 6.844-10.064c.156-.229.469-.285.694-.132.229.155.287.466.132.694l-6.812 10.017c.607.571.899 1.456.899 2.701 0 2.421-1.079 3.5-3.5 3.5s-3.5-1.079-3.5-3.5 1.08-3.5 3.5-3.5c.693 0 1.264.1 1.743.283zm.757 3.217c0-1.869-.631-2.5-2.5-2.5s-2.5.631-2.5 2.5.631 2.5 2.5 2.5 2.5-.631 2.5-2.5z"/></svg>