<?xml version="1.0" encoding="UTF-8"?>
<svg xmlns="http://www.w3.org/2000/svg" id="Layer_1" data-name="Layer 1" viewBox="0 0 24 24">
  <path d="M12,22.578c-7.816,0-10.793-4.331-10.916-4.515-.065-.098-.094-.216-.081-.333,.016-.141,.435-3.51,4.282-9.18C9.185,2.803,11.674,1.525,11.778,1.474c.141-.069,.304-.069,.444,0,.104,.052,2.593,1.329,6.494,7.076h0c3.847,5.669,4.265,9.039,4.281,9.18,.013,.113-.014,.227-.074,.323-.117,.185-2.954,4.525-10.923,4.525ZM2.028,17.656c.589,.733,3.522,3.922,9.972,3.922,6.579,0,9.414-3.192,9.973-3.917-.144-.756-.887-3.837-4.085-8.55-3.064-4.516-5.214-6.16-5.888-6.605-.671,.443-2.821,2.087-5.888,6.605-3.19,4.701-3.938,7.778-4.084,8.544Z"/>
</svg>
