<?xml version="1.0" encoding="UTF-8"?>
<svg xmlns="http://www.w3.org/2000/svg" id="Layer_1" data-name="Layer 1" viewBox="0 0 24 24">
  <path d="M19.823,16.689l.549-11.755c.053-1.134,.719-2.141,1.738-2.628l.605-.289c.25-.119,.355-.418,.236-.667-.12-.249-.419-.354-.667-.235l-.605,.289c-1.353,.646-2.236,1.98-2.307,3.483l-.559,11.959c-.29,.096-.562,.234-.807,.406-.006,.002-.011,.004-.017,.006-.611,.26-1.484,.611-2.511,.972,.059-1.055,.076-2.728-.193-4.626-.472-3.319-1.549-5.653-1.594-5.752-.072-.154-.218-.261-.387-.283-.114-.017-2.841-.372-5.944,.07-3.097,.441-5.623,1.547-5.729,1.594-.156,.068-.266,.213-.292,.382-.017,.107-.398,2.675,.069,5.967,.28,1.977,.786,3.622,1.137,4.603-.635,.003-1.02-.006-1.034-.006-.309-.008-.505,.212-.512,.488-.006,.275,.212,.505,.488,.512,.052,0,.38,.009,.907,.009,1.706,0,5.494-.078,8.688-.698,2.139-.416,4.223-1.109,5.763-1.694-.109,.317-.168,.656-.168,1.01,0,1.721,1.395,3.116,3.116,3.116s3.116-1.395,3.116-3.116c0-1.711-1.38-3.1-3.087-3.116Zm-8.931,2.817c-2.468,.479-5.37,.625-7.285,.665-.329-.869-.905-2.596-1.207-4.73-.36-2.537-.187-4.666-.105-5.401,.71-.285,2.799-1.067,5.207-1.41,2.408-.345,4.632-.177,5.393-.101,.283,.679,1.038,2.659,1.401,5.216,.295,2.081,.231,3.881,.158,4.83-1.102,.354-2.323,.691-3.561,.932Zm8.901,2.414c-1.169,0-2.116-.947-2.116-2.116s.947-2.116,2.116-2.116,2.116,.947,2.116,2.116-.947,2.116-2.116,2.116Z"/>
  <path d="M9.691,11.599l-3.467,.495c-.273,.039-.463,.292-.424,.565,.036,.25,.25,.43,.495,.43,.023,0,.047-.002,.071-.005l3.467-.495c.273-.039,.463-.292,.424-.565-.04-.274-.294-.458-.566-.425Z"/>
</svg>
