<?xml version="1.0" encoding="UTF-8"?>
<svg xmlns="http://www.w3.org/2000/svg" id="Layer_1" data-name="Layer 1" viewBox="0 0 24 24">
  <path d="M22.397,7.387c-.048-.164-.175-.292-.338-.341-.088-.025-2.165-.635-4.623-.635-.2,0-.397,.004-.593,.011-.269,.01-.481,.23-.481,.5v9.564H1.508c-.276,0-.5,.224-.5,.5s.224,.5,.5,.5h1.047v1.021c0,1.354,1.102,2.456,2.456,2.456,.798,0,1.507-.382,1.956-.973,.449,.591,1.159,.973,1.956,.973,1.354,0,2.455-1.102,2.455-2.456v-1.021h4.18v1.021c0,1.354,1.102,2.456,2.456,2.456s2.455-1.102,2.455-2.456v-1.021h1.448c.223,0,.419-.147,.48-.362,.024-.086,.603-2.133,.603-4.868,0-2.757-.578-4.784-.603-4.869ZM6.467,18.507c0,.803-.653,1.456-1.456,1.456s-1.456-.653-1.456-1.456v-1.021h2.912v1.021Zm3.911,0c0,.803-.652,1.456-1.455,1.456s-1.456-.653-1.456-1.456v-1.021h2.911v1.021Zm6.984-11.096c1.837-.005,3.511,.361,4.144,.521,.12,.498,.364,1.652,.457,3.146h-4.601v-3.667Zm2.106,11.096c0,.803-.652,1.456-1.455,1.456s-1.456-.653-1.456-1.456v-1.021h2.911v1.021Zm2.058-2.021h-4.164v-4.408h4.637c0,.059,0,.118,0,.178,0,1.939-.313,3.542-.474,4.23Z"/>
  <path d="M2.229,14.247c.087,.067,.195,.104,.306,.104H13.689c.275,0,.499-.223,.5-.498l.033-9.264c0-.134-.052-.261-.146-.355-.122-.122-1.329-1.197-5.948-1.197s-5.795,1.076-5.924,1.207c-.123,.131-1.204,1.379-1.204,4.976,0,3.881,1.023,4.869,1.229,5.027Zm.683-9.296c.018-.016,1.093-.914,5.217-.914,3.325,0,4.683,.578,5.094,.81l-.03,8.505H2.764c-.223-.326-.764-1.4-.764-4.132,0-3.177,.914-4.269,.911-4.269Z"/>
  <path d="M5.418,10.762c.276,0,.5-.224,.5-.5v-3.062c0-.276-.224-.5-.5-.5s-.5,.224-.5,.5v3.062c0,.276,.224,.5,.5,.5Z"/>
  <path d="M9.805,10.762c.276,0,.5-.224,.5-.5v-3.062c0-.276-.224-.5-.5-.5s-.5,.224-.5,.5v3.062c0,.276,.224,.5,.5,.5Z"/>
</svg>
