<svg id="Layer_1" viewBox="0 0 24 24" xmlns="http://www.w3.org/2000/svg" data-name="Layer 1"><path d="m23 12.5c-.056-2.323-.59-4.514-.62-4.583-.048-.18-.192-.318-.374-.359-.097-.022-2.308-.511-5.222-.555-.169-1.526-.402-2.964-.571-3.917-.037-.208-.201-.371-.409-.406-1.489-.25-4.354-.67-6.802-.681-2.843-.023-5.7.46-6.806.664-.206.038-.366.2-.401.406-.297 1.706-.795 4.939-.795 7.43 0 2.586.634 6.061.906 7.435.041.206.206.365.413.397.373.058.954.139 1.681.224v.944c0 1.378 1.121 2.5 2.5 2.5s2.5-1.122 2.5-2.5v-.563c.932.037 1.926.063 2.998.063 1.081 0 2.072-.026 3.002-.064v.564c0 1.378 1.121 2.5 2.5 2.5s2.5-1.122 2.5-2.5v-.96c.818-.101 1.462-.199 1.864-.269.195-.034.365-.229.412-.421.511-2.087.74-3.76.724-5.35zm-1.515-4.026c.135.587.417 1.973.494 3.526h-5.034c.03-.505.052-1.009.054-1.498.004-.789-.042-1.643-.117-2.497 2.153.043 3.921.338 4.603.468zm-13.485 11.026c0 .827-.673 1.5-1.5 1.5s-1.5-.673-1.5-1.5v-.837c.853.085 1.861.164 3 .226v.61zm-5.181-2.104c-.291-1.517-.819-4.59-.819-6.896 0-2.259.427-5.176.721-6.914 1.254-.219 3.807-.583 6.277-.586 2.2.01 4.765.364 6.291.61.295 1.718.722 4.604.711 6.888-.014 2.949-.653 6.604-.806 7.434-.977.042-2.044.069-3.196.069-4.411 0-7.695-.388-9.179-.604zm16.181 2.104c0 .827-.673 1.5-1.5 1.5s-1.5-.673-1.5-1.5v-.612c1.144-.063 2.145-.146 3-.235zm2.371-2.16c-.952.154-2.714.394-5.15.538.153-.851.475-2.803.653-4.878h5.117c-.023 1.223-.223 2.663-.62 4.34zm-7.954-9.564c-1.634 2.464-3.179 4.006-5.167 5.156-.158.092-.355.09-.511-.006-1.309-.8-2.292-1.656-3.093-2.692-.169-.218-.129-.533.09-.701.217-.168.531-.129.701.09.673.87 1.493 1.604 2.569 2.292 1.725-1.053 3.106-2.473 4.576-4.691.154-.231.465-.292.693-.141.23.153.293.463.141.693z"/></svg>