<svg id="Layer_1" viewBox="0 0 24 24" xmlns="http://www.w3.org/2000/svg" data-name="Layer 1"><path d="m22.47 5.986c-.23-1.031-.904-1.606-2.061-1.759-1.183-.155-3.689-.183-5.338-.228-.304-.018-.559.277-.508.573.191 1.296.437 5.18.437 6.927 0 1.603-.168 3.203-.349 4.458-.831.026-1.718.042-2.651.042-4.161 0-7.831-.37-9.216-.529-.458-.052-.907.092-1.246.394-.342.305-.538.743-.538 1.203v2.433c0 1.379 1.121 2.5 2.5 2.5.821 0 1.544-.403 2-1.015.456.612 1.179 1.015 2 1.015 1.379 0 2.5-1.121 2.5-2.5v-.528c.653.017 1.321.028 2 .028 1.443 0 2.786-.039 4-.097v.597c0 1.379 1.121 2.5 2.5 2.5s2.5-1.121 2.5-2.5v-.997c.51-.061.876-.113 1.06-.145.203-.035.363-.19.404-.392.138-.665.536-3.408.536-5.897 0-1.743-.227-4.714-.53-6.082zm-18.97 15.014c-.827 0-1.5-.673-1.5-1.5v-1.118c.645.083 1.689.2 3 .31v.807c0 .827-.673 1.5-1.5 1.5zm5.5-1.5c0 .827-.673 1.5-1.5 1.5s-1.5-.673-1.5-1.5v-.729c.917.067 1.929.126 3 .168zm5.309-1.532c-.729.021-1.501.032-2.309.032-4.486 0-8.55-.434-10-.626v-.307c-.006-.354.314-.649.67-.603 1.401.161 5.117.535 9.33.535.874 0 1.708-.014 2.494-.037-.071.418-.137.761-.186 1.005zm1.689-12.946c1.502.034 3.372.076 4.28.197.748.098 1.077.365 1.215.983.231 1.041.418 3.15.482 4.797h-5.981c-.031-1.699-.202-4.471-.368-5.986zm4.002 14.478c0 .827-.673 1.5-1.5 1.5s-1.5-.673-1.5-1.5v-.651c1.17-.07 2.186-.155 3-.237zm1.546-2.079c-.818.112-3.055.386-6.211.513.214-1.114.606-3.48.655-5.934h6.009c0 .021.001.047.001.068 0 2.101-.299 4.406-.454 5.353z"/></svg>