<svg id="Layer_1" viewBox="0 0 24 24" xmlns="http://www.w3.org/2000/svg" data-name="Layer 1"><path d="m23 13.5c-.056-2.323-.59-4.514-.62-4.583-.048-.18-.192-.318-.374-.359-.097-.022-2.313-.505-5.224-.55-.169-1.527-.4-2.969-.569-3.922-.037-.208-.2-.371-.409-.406-.345-.058-.762-.125-1.231-.193-.269-.041-.526.149-.567.422-.04.273.149.527.423.567.312.046.602.091.861.133.295 1.718.722 4.603.711 6.888-.013 2.961-.656 6.623-.806 7.433-.977.043-2.044.069-3.196.069-4.411 0-7.695-.388-9.179-.604-.274-1.429-.683-3.823-.793-5.922-.014-.276-.253-.486-.525-.474-.275.015-.487.25-.473.525.122 2.341.603 5.021.878 6.409.041.206.206.365.413.397.373.058.954.139 1.681.224v.944c0 1.378 1.121 2.5 2.5 2.5s2.5-1.122 2.5-2.5v-.563c.932.037 1.926.063 2.998.063 1.081 0 2.072-.026 3.002-.064v.564c0 1.378 1.121 2.5 2.5 2.5s2.5-1.122 2.5-2.5v-.96c.818-.101 1.462-.199 1.864-.269.195-.034.365-.229.412-.421.511-2.087.74-3.76.724-5.35zm-15 7c0 .827-.673 1.5-1.5 1.5s-1.5-.673-1.5-1.5v-.837c.853.085 1.861.164 3 .226v.61zm13.485-11.026c.135.587.417 1.973.494 3.526h-5.031c.03-.505.049-1.009.052-1.498.004-.788-.046-1.641-.12-2.494 2.152.043 3.924.335 4.605.465zm-2.485 11.026c0 .827-.673 1.5-1.5 1.5s-1.5-.673-1.5-1.5v-.612c1.144-.063 2.145-.146 3-.235zm2.371-2.16c-.95.153-2.721.39-5.15.535.152-.85.477-2.796.655-4.875h5.114c-.023 1.223-.223 2.663-.62 4.34zm-19.496-7.999c.105.027 2.585.659 4.625.659s4.52-.632 4.625-.659c.176-.045.313-.183.359-.359.021-.081.516-2.013.516-3.982s-.495-3.901-.516-3.982c-.046-.176-.184-.313-.359-.359-.105-.027-2.585-.659-4.625-.659s-4.52.632-4.625.659c-.176.045-.313.183-.359.359-.021.081-.516 2.013-.516 3.982s.495 3.901.516 3.982c.046.176.184.313.359.359zm.541-7.784c.706-.164 2.562-.557 4.084-.557s3.378.394 4.084.557c.134.597.416 2.03.416 3.443s-.282 2.846-.416 3.443c-.706.164-2.562.557-4.084.557s-3.378-.394-4.084-.557c-.134-.597-.416-2.03-.416-3.443s.282-2.846.416-3.443zm2.584 1.943c0-.276.224-.5.5-.5h2c.276 0 .5.224.5.5s-.224.5-.5.5h-2c-.276 0-.5-.224-.5-.5z"/></svg>