<?xml version="1.0" encoding="UTF-8"?>
<svg xmlns="http://www.w3.org/2000/svg" id="Layer_1" data-name="Layer 1" viewBox="0 0 24 24">
  <path d="M22.692,17.92c-.921-.383-2.146-1.255-2.146-4.383s1.226-3.992,2.148-4.38c.254-.106,.374-.4,.267-.654-.107-.255-.4-.373-.655-.268-1.744,.733-2.646,2.307-2.75,4.804h-1.789c-.063-1.329-.378-2.272-.393-2.315-.058-.169-.201-.295-.376-.329-.042-.008-.359-.07-.886-.154-.003-.008-.005-.017-.008-.025-1.257-3.196-3.18-5.557-3.261-5.655-.06-.073-.14-.128-.23-.158-.078-.025-1.949-.627-5.186-.769-.131,.007-.269,.045-.368,.139-.099,.095-.154,.225-.154,.361v5.644c-2.876,.177-5.02,.594-5.133,.617-.179,.035-.325,.165-.38,.34-.016,.051-.392,1.256-.392,2.805,0,1.568,.379,2.69,.395,2.737,.057,.165,.195,.289,.366,.326,.051,.011,.523,.114,1.293,.241v1.119c0,1.325,1.07,2.403,2.385,2.403s2.385-1.078,2.385-2.403v-.619c.505,.022,1.027,.035,1.56,.035,.536,0,1.061-.013,1.57-.036v.62c0,1.325,1.07,2.403,2.385,2.403s2.385-1.078,2.385-2.403v-1.121c.764-.126,1.233-.228,1.284-.239,.171-.038,.311-.163,.367-.329,.015-.043,.316-.956,.388-2.234h1.793c.104,2.505,1.007,4.079,2.752,4.805,.062,.025,.127,.038,.192,.038,.196,0,.382-.116,.461-.308,.106-.255-.015-.548-.27-.654ZM7.904,4.661c2.308,.143,3.812,.524,4.258,.651,.37,.475,1.769,2.348,2.803,4.763-1.402-.183-3.4-.376-5.581-.376-.505,0-1,.01-1.48,.029V4.661Zm-1.08,13.302c0,.773-.621,1.403-1.385,1.403s-1.385-.63-1.385-1.403v-.968c.783,.109,1.727,.217,2.77,.291v.677Zm7.9,0c0,.773-.622,1.403-1.385,1.403s-1.385-.63-1.385-1.403v-.678c1.043-.074,1.987-.182,2.77-.291v.969Zm1.779-2.278c-.91,.178-3.84,.694-7.119,.694s-6.211-.517-7.12-.694c-.101-.391-.265-1.176-.265-2.146s.167-1.802,.269-2.219c.926-.162,3.848-.621,7.116-.621s6.202,.461,7.122,.622c.104,.401,.272,1.207,.272,2.178s-.171,1.783-.275,2.186Z"/>
</svg>
