<svg id="Layer_1" viewBox="0 0 24 24" xmlns="http://www.w3.org/2000/svg" data-name="Layer 1"><path d="m22.446 11.619c-.38-.399-.894-.619-1.445-.619h-.507c-.034-1.709-.243-3.784-.516-5.014-.229-1.031-.903-1.606-2.061-1.759-1.19-.157-1.863-.188-3.346-.228-.302-.018-.56.277-.508.573.191 1.296.437 5.18.437 6.927 0 1.614-.171 3.212-.352 4.471-.686.018-1.399.029-2.152.029-2.729.021-6.906-.254-9.335-.541-.857-.109-1.681.611-1.66 1.483 0 .753.56 1.39 1.301 1.48.213.026.457.053.699.079v.998c0 1.379 1.121 2.5 2.5 2.5s2.5-1.121 2.5-2.5v-.607c1.435.074 2.739.118 4 .107 1.46 0 2.801-.038 4-.095v.595c0 1.379 1.121 2.5 2.5 2.5s2.5-1.121 2.5-2.5v-.996c.707-.084 1.099-.145 1.11-.148.202-.034.363-.189.404-.391.11-.531.377-2.777.482-4.854.027-.551-.174-1.095-.552-1.493zm-4.659-6.399c.748.098 1.078.364 1.215.983.256 1.149.458 3.168.492 4.797h-3.993s-.004.001-.006.001c-.031-1.698-.202-4.469-.368-5.985 1.08.033 1.675.072 2.66.203zm-10.787 14.28c0 .827-.673 1.5-1.5 1.5s-1.5-.673-1.5-1.5v-.897c.92.086 1.944.166 3 .232zm4.996-1.5c-2.855.026-7.194-.274-9.572-.569-.241-.029-.423-.239-.423-.488-.008-.288.26-.526.543-.49 2.354.277 6.313.55 9.092.55.845 0 1.612-.01 2.356-.028-.073.426-.136.764-.185 1.006-.58.012-1.184.019-1.811.019zm8.004 1.5c0 .827-.673 1.5-1.5 1.5s-1.5-.673-1.5-1.5v-.648c1.187-.071 2.196-.158 3-.239zm1.592-2.078c-.868.119-3.312.414-6.761.53.214-1.105.608-3.485.658-5.954.004 0 .007.002.011.002h5.5c.275 0 .531.109.721.309.193.203.292.472.278.754-.09 1.772-.293 3.571-.407 4.359z"/></svg>