<?xml version="1.0" encoding="UTF-8"?>
<svg xmlns="http://www.w3.org/2000/svg" id="Layer_1" data-name="Layer 1" viewBox="0 0 24 24">
  <path d="M22.455,10.519c-.068-.156-.213-.267-.382-.292-.009-.001-.18-.027-.487-.068-.005-.039-.015-.079-.03-.117-1.28-3.263-3.237-5.67-3.32-5.771-.061-.073-.141-.128-.23-.157-.079-.026-1.971-.64-4.442-.784-.131-.013-.272,.041-.372,.136-.101,.094-.157,.226-.157,.363v5.702c-.343-.006-.69-.009-1.04-.009-5.352,0-10.032,.698-10.078,.705-.174,.026-.321,.142-.388,.304-.021,.052-.528,1.299-.528,2.901,0,1.622,.512,2.784,.534,2.832,.068,.152,.208,.261,.372,.289,.017,.003,.654,.109,1.717,.243v1.308c0,1.416,1.142,2.568,2.545,2.568s2.544-1.152,2.544-2.568v-.852c1.038,.055,2.144,.091,3.282,.091s2.252-.036,3.294-.091v.853c0,1.416,1.142,2.568,2.544,2.568s2.545-1.152,2.545-2.568v-1.31c1.055-.133,1.687-.238,1.704-.241,.167-.028,.308-.139,.375-.293,.022-.051,.544-1.263,.544-2.869,0-1.621-.522-2.821-.545-2.872ZM14.034,4.366c1.722,.153,3.092,.527,3.521,.654,.378,.486,1.851,2.459,2.914,5.002-1.46-.167-3.786-.387-6.435-.468V4.366Zm-6.322,13.737c0,.865-.692,1.568-1.544,1.568s-1.545-.703-1.545-1.568v-1.189c.877,.097,1.927,.198,3.089,.276v.913Zm11.665,0c0,.865-.693,1.568-1.545,1.568s-1.544-.703-1.544-1.568v-.914c1.162-.079,2.212-.18,3.089-.277v1.191Zm2.255-2.492c-1.08,.165-5.112,.73-9.638,.73s-8.562-.565-9.64-.73c-.131-.384-.354-1.186-.354-2.18s.228-1.847,.36-2.258c1.1-.15,5.121-.652,9.634-.652s8.552,.504,9.641,.652c.135,.396,.365,1.22,.365,2.217s-.233,1.824-.368,2.221Z"/>
</svg>
