<?xml version="1.0" encoding="UTF-8"?>
<svg xmlns="http://www.w3.org/2000/svg" id="Layer_1" data-name="Layer 1" viewBox="0 0 24 24">
  <path d="M19.823,16.689l.549-11.755c.053-1.134,.719-2.141,1.738-2.628l.605-.289c.25-.119,.355-.418,.236-.667s-.418-.354-.667-.235l-.605,.289c-1.353,.646-2.236,1.98-2.307,3.483l-.559,11.959c-.29,.096-.561,.233-.807,.405-.006,.002-.012,.004-.017,.006-1.41,.599-4.208,1.687-7.098,2.248-2.79,.542-6.133,.657-7.981,.676l-.047-.238c-.085-.433-.2-1.013-.217-1.114-.592-3.367-.474-6.161-.416-7.023,.417-.196,1.33-.607,2.545-1.049,.373,1.689,1.044,2.83,1.074,2.881,.091,.153,.256,.244,.43,.244,.032,0,.063-.003,.095-.009l7.331-1.424c.207-.041,.367-.206,.399-.415,.009-.058,.206-1.38-.071-3.075,.617-.022,1.232-.029,1.829-.014,.274,.03,.504-.213,.51-.49,.005-.275-.214-.504-.49-.51-.672-.012-1.364-.006-2.06,.023-.381-1.459-.947-2.42-.974-2.467-.086-.145-.24-.236-.409-.244-.074,0-1.85-.072-3.859,.317-2.004,.389-3.63,1.119-3.699,1.15-.154,.069-.262,.212-.288,.379-.008,.053-.174,1.166,.011,2.653-1.835,.656-3.022,1.25-3.074,1.276-.152,.076-.255,.226-.272,.396-.014,.136-.333,3.381,.404,7.574,.018,.103,.134,.693,.221,1.134l.009,.046c-.237-.002-.372-.005-.38-.005-.312-.008-.505,.212-.512,.488-.006,.275,.212,.505,.488,.512,.052,0,.38,.009,.907,.009,1.706,0,5.494-.078,8.688-.698,2.139-.416,4.223-1.109,5.763-1.694-.109,.317-.168,.656-.168,1.01,0,1.721,1.395,3.116,3.116,3.116s3.116-1.395,3.116-3.116c0-1.711-1.38-3.1-3.087-3.116ZM5.553,7.525c.522-.214,1.778-.689,3.218-.969,1.44-.28,2.771-.308,3.347-.306,.214,.423,.646,1.376,.882,2.608,.223,1.158,.191,2.171,.152,2.679l-6.604,1.282c-.224-.453-.626-1.376-.85-2.542-.234-1.218-.188-2.275-.146-2.753Zm14.24,14.395c-1.169,0-2.116-.947-2.116-2.116s.947-2.116,2.116-2.116,2.116,.947,2.116,2.116-.947,2.116-2.116,2.116Z"/>
</svg>
