<svg id="Layer_1" viewBox="0 0 24 24" xmlns="http://www.w3.org/2000/svg" data-name="Layer 1"><path d="m23 12.5c-.056-2.323-.59-4.514-.62-4.583-.048-.18-.192-.318-.374-.359-.097-.022-2.314-.505-5.225-.55-.169-1.527-.4-2.969-.569-3.922-.037-.208-.201-.371-.41-.406-1.489-.25-4.352-.67-6.801-.681-2.758-.018-5.723.461-6.806.664-.206.038-.366.2-.402.406-.187 1.073-.446 2.704-.617 4.379-.028.275.172.52.447.548.293.031.521-.172.548-.447.15-1.477.371-2.92.548-3.965 1.237-.218 3.84-.601 6.276-.586 2.201.01 4.765.364 6.292.61.295 1.717.721 4.601.711 6.888-.014 2.981-.657 6.626-.806 7.433-.977.043-2.043.069-3.196.069-4.415 0-7.696-.388-9.178-.604-.176-.916-.44-2.408-.621-3.954-.032-.273-.271-.469-.555-.438-.274.032-.471.28-.438.555.209 1.793.529 3.512.701 4.377.041.206.206.364.413.396.373.058.954.139 1.68.224v.944c0 1.378 1.122 2.5 2.5 2.5s2.5-1.122 2.5-2.5v-.563c.932.037 1.926.063 2.998.063 1.081 0 2.072-.026 3.002-.064v.564c0 1.378 1.122 2.5 2.5 2.5s2.5-1.122 2.5-2.5v-.959c.819-.101 1.462-.2 1.864-.269.196-.034.365-.229.413-.422.511-2.087.74-3.76.724-5.349zm-15 7c0 .827-.673 1.5-1.5 1.5s-1.5-.673-1.5-1.5v-.836c.853.085 1.86.164 3 .226zm13.486-11.026c.135.587.417 1.973.493 3.526h-5.031c.03-.507.05-1.011.052-1.498.003-.788-.046-1.641-.12-2.494 2.152.043 3.924.335 4.606.465zm-2.486 11.026c0 .827-.673 1.5-1.5 1.5s-1.5-.673-1.5-1.5v-.611c1.144-.063 2.145-.146 3-.235zm2.37-2.16c-.95.154-2.72.391-5.15.535.148-.827.474-2.788.655-4.875h5.116c-.023 1.222-.224 2.662-.621 4.34zm-19.87-6.34c-.276 0-.5-.224-.5-.5s.224-.5.5-.5h6.918c-.67-.77-1.399-1.486-2.217-2.1-.221-.166-.266-.479-.1-.7s.479-.266.7-.1c1.176.881 2.219 1.924 3.1 3.1.133.178.133.422 0 .6-.881 1.176-1.924 2.219-3.1 3.1-.219.165-.534.122-.7-.1-.166-.221-.121-.534.1-.7.818-.614 1.547-1.33 2.217-2.1z"/></svg>