<svg id="Layer_1" viewBox="0 0 24 24" xmlns="http://www.w3.org/2000/svg" data-name="Layer 1"><path d="m21.254 4.318c-.125-.349-.624-.43-.853-.136-.045.055-3.982 4.793-8.401 6.024v-.707c0-.276-.224-.5-.5-.5s-.5.224-.5.5v.923c-.333.049-.666.077-1 .077h-2v-1c0-.276-.224-.5-.5-.5s-.5.224-.5.5v1h-3v-1c0-.276-.224-.5-.5-.5s-.5.224-.5.5v1h-1.23c-.157 0-.306.074-.4.2-.037.05-.369.516-.369 1.3s.332 1.25.369 1.3c.095.126.243.2.4.2h.845c-.408.525-.614 1.255-.614 2.237 0 2.257 1.006 3.263 3.263 3.263h4.344c2.257 0 3.263-1.006 3.263-3.263 0-.805-.135-1.443-.407-1.938 5.075 1.23 7.862 5.899 7.893 5.953.207.334.761.255.913-.1.783-1.602 1.22-4.318 1.231-7.654-.012-3.332-.448-6.049-1.246-7.68zm-11.647 13.682h-4.344c-1.691 0-2.263-.571-2.263-2.263s.55-2.237 2.263-2.237h4.344c1.713 0 2.263.544 2.263 2.237s-.571 2.263-2.263 2.263zm11.079.441c-1.297-1.798-4.911-5.941-10.686-5.941h-7.922c-.04-.119-.078-.287-.078-.5s.038-.381.078-.5h7.922c4.668 0 9.128-4.412 10.64-6.071.548 1.519.851 3.812.86 6.569-.009 2.685-.296 4.926-.814 6.443z"/></svg>