<?xml version="1.0" encoding="UTF-8"?>
<svg xmlns="http://www.w3.org/2000/svg" id="Layer_1" data-name="Layer 1" viewBox="0 0 24 24">
  <path d="M20.662,6.021c.259,.26,.604,.403,.969,.403h0c.366,0,.71-.144,.968-.404,.533-.536,.532-1.407,0-1.941-.227-.229-.52-.367-.836-.398-.029-.307-.16-.605-.393-.839-.518-.521-1.423-.521-1.938,0-.532,.535-.533,1.407,0,1.942,.09,.091,.192,.168,.3,.229l-1.852,1.864-.986-.993c-.094-.094-.222-.147-.354-.147h-.004c-.774,.006-1.68,.076-2.58,.287-.856-.297-1.717-.448-2.562-.448C6.913,5.576,1.763,8.229,1.049,14.055c-.206,1.683,.255,3.217,1.334,4.437,1.728,1.951,5.012,3.07,9.013,3.07,3.416,0,7.884-.531,9.77-3.062,.906-1.216,1.095-2.739,.561-4.526-.307-1.028-1.081-2.382-2.073-3.63,.05-.438,.079-.9,.085-1.386,.002-.134-.051-.264-.146-.359l-1.005-1.012,1.852-1.864c.06,.107,.134,.208,.224,.298Zm.104,8.238c.439,1.468,.304,2.693-.403,3.643-1.277,1.716-4.463,2.66-8.968,2.66-3.714,0-6.727-.996-8.264-2.733-.896-1.013-1.264-2.241-1.091-3.652,.735-5.999,6.227-7.6,9.354-7.6,.283,0,.568,.02,.856,.059-.47,.241-.911,.544-1.296,.921-1.924,2.031-1.83,4.688,.237,6.769,1.07,1.078,2.296,1.62,3.513,1.62,1.127,0,2.246-.467,3.225-1.405,.692-.717,1.187-1.67,1.483-2.849,.65,.925,1.139,1.846,1.354,2.568Zm-3.542-.428c-1.642,1.575-3.629,1.492-5.323-.211-1.678-1.688-1.762-3.748-.233-5.363,1.205-1.18,3.163-1.482,4.668-1.517l2.397,2.412c-.06,2.129-.571,3.707-1.509,4.679Z"/>
</svg>
