<svg id="Layer_1" viewBox="0 0 24 24" xmlns="http://www.w3.org/2000/svg" data-name="Layer 1"><path d="m10 7c-3.505 0-5 1.495-5 5s1.495 5 5 5 5-1.495 5-5-1.495-5-5-5zm0 9c-2.953 0-4-1.047-4-4s1.047-4 4-4 4 1.047 4 4-1.047 4-4 4zm.75-4c0 .414-.336.75-.75.75s-.75-.336-.75-.75.336-.75.75-.75.75.336.75.75zm11.18-8.454c-.044-.15-.156-.271-.303-.327-.132-.05-3.308-1.22-9.626-1.22s-9.496 1.171-9.627 1.221c-.147.055-.259.176-.303.327-.044.148-1.07 3.687-1.07 8.454s1.026 8.306 1.07 8.454c.044.15.156.271.303.327.132.05 3.308 1.22 9.626 1.22s9.495-1.17 9.626-1.22c.147-.055.259-.176.303-.327.044-.148 1.07-3.687 1.07-8.454s-1.026-8.306-1.07-8.454zm-.892 16.376c-.835.26-3.871 1.077-9.038 1.077s-8.203-.817-9.038-1.077c-.229-.881-.962-4.008-.962-7.923s.733-7.042.962-7.923c.835-.26 3.871-1.077 9.038-1.077s8.203.817 9.038 1.077c.229.881.962 4.008.962 7.923s-.733 7.042-.962 7.923zm-2.002-11.579c.084 3.041.188 6.826-1.088 9.38-.124.25-.429.346-.671.224-.247-.124-.347-.424-.224-.671 1.165-2.33 1.064-5.976.983-8.905-.019-.676-.036-1.309-.036-1.871 0-.276.224-.5.5-.5s.5.224.5.5c0 .554.017 1.177.036 1.844z"/></svg>