<svg id="Layer_1" viewBox="0 0 24 24" xmlns="http://www.w3.org/2000/svg" data-name="Layer 1"><path d="m21.975 3.342c-.053-.156-.179-.277-.337-.323-.146-.042-3.637-1.019-9.638-1.019s-9.492.978-9.637 1.019c-.159.045-.285.167-.337.323-.042.125-1.026 3.124-1.026 7.158s.984 7.033 1.026 7.158c.052.156.178.277.337.323.141.04 3.447.961 9.137 1.014v2.505s.002.008.003.012c-2.095.062-4.024.48-4.111.499-.27.06-.439.327-.38.597.06.27.328.437.597.38.022-.005 2.226-.488 4.392-.488s4.37.483 4.392.488c.263.06.538-.109.597-.38.06-.27-.11-.537-.38-.597-.087-.019-2.016-.437-4.111-.499 0-.004.003-.008.003-.012v-2.505c5.69-.053 8.996-.974 9.138-1.014.158-.045.284-.167.337-.323.042-.125 1.025-3.124 1.025-7.158s-.983-7.033-1.025-7.158zm-.871 13.744c-.909.221-4.161.915-9.104.915s-8.195-.694-9.104-.915c-.231-.796-.896-3.369-.896-6.585s.666-5.787.896-6.585c.909-.221 4.161-.915 9.104-.915s8.195.694 9.104.915c.231.796.896 3.369.896 6.585s-.665 5.787-.896 6.585zm-7.604-11.086c-.276 0-.5.224-.5.5v4.013c-.419-.317-.935-.513-1.5-.513-1.378 0-2.5 1.122-2.5 2.5s1.122 2.5 2.5 2.5 2.5-1.122 2.5-2.5v-5.422c.503.124 1.316.445 2.146 1.275.195.195.512.195.707 0s.195-.512 0-.707c-1.628-1.628-3.284-1.646-3.354-1.646zm-2 8c-.827 0-1.5-.673-1.5-1.5s.673-1.5 1.5-1.5 1.5.673 1.5 1.5-.673 1.5-1.5 1.5z"/></svg>