<svg id="Layer_1" viewBox="0 0 24 24" xmlns="http://www.w3.org/2000/svg" data-name="Layer 1"><path d="m19.75 17c0 .414-.336.75-.75.75s-.75-.336-.75-.75.336-.75.75-.75.75.336.75.75zm-4.129-7.155c.187 1.279.37 2.144.379 4.155-.009 2.008-.193 2.876-.379 4.154-.03.212-.19.381-.399.422-.935.182-2.44.424-4.716.424-2.219 0-3.67-.227-4.687-.423-.209-.041-.37-.21-.4-.421-.199-1.321-.41-2.17-.418-4.156.008-1.985.219-2.836.417-4.154.03-.212.19-.381.399-.422 1.014-.197 2.462-.424 4.688-.424 2.269 0 3.778.241 4.715.423.209.041.37.21.4.422zm-.621 4.155c-.003-1.724-.168-2.684-.316-3.659-.908-.162-2.257-.341-4.179-.341-1.899 0-3.205.171-4.152.341-.17 1.051-.347 1.939-.353 3.659.006 1.719.183 2.609.354 3.659.95.171 2.257.341 4.151.341 1.927 0 3.274-.18 4.179-.341.13-.842.315-2.042.315-3.659zm4-.75c-.414 0-.75.336-.75.75s.336.75.75.75.75-.336.75-.75-.336-.75-.75-.75zm0-3c-.414 0-.75.336-.75.75s.336.75.75.75.75-.336.75-.75-.336-.75-.75-.75zm4 3.75c0 4.57-1.037 7.421-1.081 7.54-.051.138-.161.247-.299.297-.132.047-3.305 1.163-9.62 1.163s-9.487-1.116-9.62-1.163c-.139-.05-.248-.159-.299-.297-.044-.119-1.081-2.97-1.081-7.54s1.037-7.421 1.081-7.54c.051-.138.161-.247.299-.297.12-.043 2.759-.965 7.975-1.134-1.14-.836-2.199-1.879-3.249-3.22-.17-.218-.132-.532.085-.702s.531-.133.702.085c1.309 1.674 2.624 2.854 4.106 3.719 1.482-.865 2.797-2.045 4.106-3.719.169-.218.484-.257.702-.085.217.17.256.484.085.702-1.05 1.341-2.108 2.385-3.249 3.22 5.216.169 7.855 1.091 7.975 1.134.139.05.248.159.299.297.044.119 1.081 2.97 1.081 7.54zm-1 0c0-3.668-.708-6.22-.944-6.967-.818-.245-3.861-1.033-9.056-1.033s-8.238.788-9.056 1.033c-.236.747-.944 3.299-.944 6.967s.708 6.22.944 6.967c.818.245 3.861 1.033 9.056 1.033s8.238-.788 9.056-1.033c.236-.747.944-3.299.944-6.967z"/></svg>