<svg id="Layer_1" viewBox="0 0 24 24" xmlns="http://www.w3.org/2000/svg" data-name="Layer 1"><path d="m12.75 15c0 .414-.336.75-.75.75s-.75-.336-.75-.75.336-.75.75-.75.75.336.75.75zm-6.75-1.75c-.414 0-.75.336-.75.75s.336.75.75.75.75-.336.75-.75-.336-.75-.75-.75zm12 0c-.414 0-.75.336-.75.75s.336.75.75.75.75-.336.75-.75-.336-.75-.75-.75zm5 .883c0 3.21-4.397 3.867-11 3.867s-11-.657-11-3.867c0-2.455 2.591-3.206 5.011-3.543.113-3.958 1.869-5.59 5.989-5.59 4.152 0 5.904 1.629 5.992 5.59 2.42.337 5.008 1.089 5.008 3.543zm-16-2.96c.488.257 1.926.827 5.024.827 3.006 0 4.427-.593 4.976-.915.063-3.649-1.225-5.12-5-5.085-3.816-.036-5.058 1.411-5 5.173zm15 2.96c0-.913-.483-2.011-4.066-2.538 0 0-1.385 1.405-5.909 1.405s-5.99-1.401-5.99-1.401c-3.555.529-4.034 1.623-4.034 2.534 0 2.01 2.99 2.867 10 2.867s10-.857 10-2.867z"/></svg>