<svg id="Layer_1" viewBox="0 0 24 24" xmlns="http://www.w3.org/2000/svg" data-name="Layer 1"><path d="m21.353 21.646c-.066-.066-.68-.646-1.854-.646-.517 0-1.025.179-1.431.504l-.264.211c-.459.367-1.152.368-1.611 0l-.264-.21c-.812-.65-2.05-.65-2.861 0l-.264.211c-.459.367-1.152.368-1.611 0l-.264-.21c-.599-.48-1.429-.605-2.15-.377l2.918-9.838c3.052.915 7.345 1.386 7.536 1.406.018.002.036.003.054.003.213 0 .405-.136.474-.342.951-2.861.827-5.274-.367-7.174-.983-1.563-2.676-2.753-5.031-3.536-1.291-.429-2.422-.646-3.365-.646-3.568 0-6.048 2.017-7.37 5.996-.074.224.018.468.22.588.166.098 3.902 2.3 6.898 3.391l-3.237 10.915c-.428.179-.948.122-1.317-.174l-.264-.21c-.406-.325-.914-.504-1.431-.504-1.173 0-1.788.58-1.854.646-.193.193-.192.502-.003.698s.504.201.704.015c.016-.015.393-.359 1.152-.359.29 0 .576.101.806.285l.264.21c.812.65 2.05.65 2.861 0l.264-.211c.459-.367 1.152-.368 1.611 0l.264.21c.812.65 2.05.65 2.861 0l.264-.211c.459-.367 1.152-.368 1.611 0l.264.21c.406.325.914.504 1.431.504s1.025-.179 1.431-.504l.264-.211c.229-.184.516-.285.806-.285.759 0 1.137.345 1.146.354.195.195.512.195.707 0s.195-.512 0-.707zm-10.354-19.646c.835 0 1.861.2 3.049.595 2.13.708 3.644 1.757 4.5 3.119.975 1.551 1.104 3.548.387 5.939-1.226-.15-4.955-.651-7.41-1.467-2.453-.815-5.742-2.646-6.814-3.259 1.208-3.315 3.268-4.928 6.287-4.928z"/></svg>