<?xml version="1.0" encoding="UTF-8"?>
<svg xmlns="http://www.w3.org/2000/svg" id="Layer_1" data-name="Layer 1" viewBox="0 0 24 24">
  <path d="M21.131,12.998c-.859-7.061-3.45-10.198-8.631-10.384V1.5c0-.276-.224-.5-.5-.5s-.5,.224-.5,.5v1.114c-5.18,.186-7.772,3.323-8.631,10.384-.084,.683,.223,1.413,.808,1.825,.935,.659,1.919,.322,2.349,.132,1.56-.688,3.448-1.055,5.617-1.091,.062,.375,.164,1.374,.164,3.897s-.134,3.61-.2,3.99c-.221,.095-.713,.25-1.573,.25-.843,0-1.335-.15-1.56-.243-.055-.357-.154-1.101-.195-2.046-.013-.276-.254-.5-.521-.478-.276,.012-.49,.245-.479,.521,.062,1.414,.244,2.381,.252,2.421,.023,.121,.09,.229,.188,.303,.069,.053,.727,.522,2.315,.522,1.6,0,2.25-.471,2.319-.524,.078-.061,.136-.144,.167-.238,.029-.089,.287-.97,.287-4.477,0-2.14-.069-3.274-.154-3.89,2.046,.063,3.834,.427,5.323,1.084,1.182,.521,1.979,.142,2.349-.132,.574-.426,.892-1.142,.808-1.825Zm-1.403,1.021c-.34,.253-.808,.26-1.349,.021-1.774-.782-3.92-1.179-6.379-1.179s-4.604,.397-6.379,1.179c-.54,.241-1.008,.232-1.349-.021-.281-.208-.45-.579-.411-.9C4.683,6.361,7.041,3.605,12,3.605s7.317,2.756,8.139,9.514c.039,.322-.13,.692-.411,.9Z"/>
</svg>
