<svg id="Layer_1" viewBox="0 0 24 24" xmlns="http://www.w3.org/2000/svg" data-name="Layer 1"><path d="m22.908 11.73c-.086-.134-2.133-3.316-4.734-5.917-2.602-2.601-5.783-4.648-5.917-4.734-.164-.105-.375-.105-.539 0-.134.085-3.316 2.133-5.917 4.734-2.602 2.601-4.649 5.783-4.735 5.917-.105.165-.105.375 0 .539.086.134 2.133 3.316 4.735 5.917 2.601 2.601 5.783 4.648 5.917 4.734.164.105.375.105.539 0 .134-.085 3.315-2.133 5.917-4.734s4.648-5.783 4.734-5.917c.105-.164.105-.375 0-.539zm-5.441 5.75c-2.096 2.095-4.654 3.869-5.479 4.421-.825-.552-3.385-2.326-5.479-4.421s-3.87-4.655-4.421-5.48c.552-.825 2.326-3.384 4.421-5.48s4.654-3.869 5.479-4.421c.825.552 3.384 2.326 5.479 4.421 2.096 2.095 3.869 4.655 4.422 5.48-.553.825-2.326 3.385-4.422 5.48zm-1.074-2.468c-.005.001-.145.031-.375.074-.691-4.938-3.48-9.181-3.602-9.364-.186-.278-.646-.278-.832 0-.122.183-2.911 4.425-3.602 9.364-.23-.043-.369-.073-.375-.074-.271-.056-.537.112-.596.381-.06.27.111.536.381.595.096.021 2.356.512 4.607.512s4.512-.491 4.607-.512c.27-.059.44-.326.381-.595-.059-.27-.322-.438-.596-.381zm-6.072-4.628c.598.071 1.168.116 1.679.116s1.081-.045 1.679-.116c.244.602.473 1.257.683 1.937-1.709.234-3.015.234-4.725 0 .21-.68.439-1.335.683-1.937zm1.679-3.426c.32.55.788 1.409 1.266 2.466-.867.087-1.664.087-2.532 0 .478-1.057.946-1.916 1.266-2.466zm-3.025 8.294c.093-.67.226-1.326.39-1.965.943.156 1.849.207 2.635.213.787-.006 1.692-.057 2.635-.213.164.639.297 1.295.39 1.965-.832.123-1.939.248-3.025.248s-2.193-.125-3.025-.248z"/></svg>