<?xml version="1.0" encoding="UTF-8"?>
<svg xmlns="http://www.w3.org/2000/svg" id="Layer_1" data-name="Layer 1" viewBox="0 0 24 24">
  <path d="M22.839,12.095c-.545-2.465-2.57-4.4-5.158-4.93-4.219-.864-12.114-.685-14.897-.589,.731-.628,1.893-1.491,3.442-2.225,.25-.118,.356-.416,.238-.666-.118-.25-.416-.355-.666-.238C2.811,4.861,1.19,6.709,1.122,6.787c-.163,.188-.163,.467,0,.655,.068,.078,1.689,1.924,4.675,3.338,.069,.033,.142,.048,.213,.048,.188,0,.367-.105,.452-.286,.119-.25,.012-.547-.238-.666-1.604-.76-2.797-1.663-3.523-2.297,2.633-.09,10.661-.28,14.778,.564,2.168,.444,3.93,2.119,4.382,4.167,.183,.827,.183,1.667,0,2.494-.453,2.048-2.214,3.722-4.383,4.167-4.959,1.016-9.992,.795-14.953-.658-.265-.075-.542,.075-.621,.339-.078,.265,.075,.543,.339,.621,3.015,.883,6.056,1.325,9.092,1.325,2.12,0,4.238-.215,6.343-.647,2.589-.53,4.614-2.465,5.159-4.93,.214-.971,.214-1.955,0-2.925Z"/>
</svg>
