<svg id="Layer_1" viewBox="0 0 24 24" xmlns="http://www.w3.org/2000/svg" data-name="Layer 1"><path d="m22.914 8.719c-.042-.062-1.043-1.529-2.429-2.965-.173-.316-.377-.578-.582-.811l2.503-3.351c.113-.14.106-.342-.016-.474-.117-.127-.306-.154-.454-.066l-2.918 1.738-.005-.668c0-.372-.185-.72-.493-.93-.298-.202-.673-.244-1.004-.117-.946.37-2.118 1.466-2.397 3.352-.84.679-1.964 2.28-2.121 4.734-.967-.059-2.992-.175-3.985-.175-1.924 0-3.225.469-4.026 1.452-2.645.865-3.989 2.903-3.989 6.063 0 .276.224.5.5.5s.5-.224.5-.5c0-2.284.735-3.782 2.265-4.65-.174.612-.265 1.32-.265 2.15 0 .95.257 2.186.483 3.275.133.64.26 1.248.305 1.668-.488 1.538-.398 2.989-.395 3.052.009.131.069.254.167.341.031.027.764.664 1.939.664 1.185 0 1.885-.646 1.914-.674.075-.071.126-.163.147-.265.012-.056.281-1.387.412-3.022.033-.416.113-1.588.164-2.319.512.129 1.279.28 2.068.28.71 0 1.342-.14 1.795-.278.004 2.347.026 4.933.026 4.933 0 .069.015.137.043.199.038.086.412.844 1.77 1.088 1.371.247 1.953-.359 2.015-.43.04-.045.071-.096.092-.151.038-.099.919-2.446 1.051-7.283.124-.434.799-2.879.971-5.057.388.05.534.188.718.362.458.435.926.752 2.362.615.138-.014.264-.084.348-.194.053-.068.514-.699.602-1.763.009-.113-.021-.228-.085-.322zm-1.208 1.304c-.886.057-1.085-.132-1.331-.365-.392-.372-.791-.677-1.884-.657-.265.005-.479.215-.49.479-.117 2.502-.977 5.257-1 5.508-.105 4.074-.768 6.351-.944 6.89-.126.07-.44.188-1.041.08-.625-.112-.896-.35-.99-.456-.005-.646-.026-3.32-.026-5.501 0-.173-.089-.332-.235-.424-.147-.092-.33-.099-.485-.025-.009.005-.934.449-2.075.449-1.178 0-2.35-.401-2.361-.406-.146-.051-.31-.029-.44.056-.13.086-.212.228-.223.384 0 0-.155 2.307-.205 2.927-.099 1.231-.284 2.308-.36 2.722-.18.119-.563.318-1.116.318-.524 0-.912-.179-1.115-.301-.003-.45.035-1.493.384-2.541.021-.063.03-.132.024-.198-.133-1.354-.806-3.62-.793-4.96 0-2.964 1.051-4.015 4.015-4.015 1.271 0 4.421.204 4.453.206.136.012.273-.04.374-.134.101-.095.158-.227.158-.365l-.003-.637c.199-1.795.856-3.168 1.899-3.971.108-.083.177-.207.192-.342.184-1.679 1.214-2.511 1.871-2.726.013.009.056.043.056.107l.016 2.281c0 .175.096.338.247.428.006-.046 1.016.725 1.441 1.566 1.099 1.13 1.973 2.321 2.264 2.731-.057.408-.186.714-.277.891z"/></svg>