<svg id="Layer_1" viewBox="0 0 24 24" xmlns="http://www.w3.org/2000/svg" data-name="Layer 1"><path d="m15.971 21.915c-.041-.033-4.121-3.369-6.524-5.772-.564-.565-1.166-1.207-1.791-1.912-2.551 2.115-4.114 2.908-4.183 2.942-.277.151-.658-.032-.713-.345-.974-4.65-.974-9.255 0-13.687.042-.19.19-.339.381-.381 4.433-.973 9.037-.973 13.687 0 .313.057.494.432.345.713-.034.068-.827 1.632-2.941 4.184.708.627 1.351 1.229 1.912 1.791 2.402 2.403 5.738 6.484 5.772 6.524.112.138.143.325.08.492-.02.053-.508 1.32-2.36 3.172-1.854 1.852-3.12 2.341-3.173 2.361-.174.09-.401-.007-.492-.081zm-7.885-8.709c.727.834 1.422 1.585 2.067 2.23 2.03 2.03 5.294 4.75 6.206 5.504.422-.223 1.351-.794 2.569-2.012 1.217-1.217 1.788-2.146 2.012-2.569-.754-.913-3.475-4.176-5.504-6.206-.642-.642-1.393-1.337-2.23-2.067-.207-.18-.23-.492-.054-.7 1.485-1.751 2.363-3.074 2.795-3.782-4.173-.786-8.296-.763-12.277.066-.831 3.981-.853 8.106-.066 12.277.708-.431 2.031-1.31 3.782-2.794.278-.22.602-.061.7.053z"/></svg>