<svg id="Layer_1" viewBox="0 0 24 24" xmlns="http://www.w3.org/2000/svg" data-name="Layer 1"><path d="m22.996 12.508c-.07 4.5-1.048 9.004-1.058 9.049-.042.191-.19.34-.381.381-.049.011-4.891 1.062-9.558 1.062s-9.509-1.051-9.558-1.062c-.19-.042-.339-.19-.381-.381-.011-.049-1.062-4.891-1.062-9.558s1.053-9.508 1.064-9.557c.042-.19.19-.339.381-.381.045-.01 4.549-.988 9.049-1.058.301-.042.503.216.508.492.004.276-.216.503-.492.508-3.719.058-7.447.75-8.535.969-.228 1.136-.973 5.148-.973 9.027s.745 7.891.973 9.027c1.136.228 5.149.973 9.027.973s7.891-.745 9.027-.973c.218-1.088.911-4.816.969-8.535.004-.273.228-.492.5-.492h.008c.276.004.497.231.492.508zm-8.393-10.112c2.187-.458 4.351-.497 6.452-.157l-11.909 11.907c-.195.195-.195.512 0 .707.098.098.226.146.354.146s.256-.049.354-.146l11.908-11.908c.339 2.101.301 4.264-.157 6.452-.057.271.117.535.387.592.263.057.536-.114.592-.387.555-2.651.555-5.276 0-7.804-.042-.19-.19-.339-.381-.381-2.528-.556-5.153-.557-7.804 0-.27.057-.443.321-.387.592.056.27.315.441.592.387z"/></svg>