<svg id="Layer_1" viewBox="0 0 24 24" xmlns="http://www.w3.org/2000/svg" data-name="Layer 1"><path d="m12 23c-2.776 0-4.09-.583-4.145-.607-.155-.071-.264-.216-.288-.385-.006-.04-.567-4.046-.567-7.664 0-.613.019-1.281.059-2.075-3.078-.312-4.646-.818-4.715-.841-.305-.092-.444-.487-.262-.749 2.593-3.964 5.839-7.21 9.648-9.647.164-.104.375-.104.539 0 3.81 2.437 7.056 5.683 9.648 9.647.183.262.043.657-.262.749-.068.022-1.637.529-4.715.841.04.793.059 1.461.059 2.075 0 3.618-.562 7.624-.567 7.664-.024.169-.133.314-.288.385-.055.025-1.368.607-4.145.607zm-3.482-1.43c.469.148 1.608.43 3.482.43s3.012-.281 3.482-.43c.127-.984.518-4.244.518-7.227 0-.714-.026-1.508-.082-2.499-.016-.27.186-.502.454-.526 2.105-.189 3.556-.482 4.325-.667-2.386-3.493-5.308-6.384-8.697-8.603-3.39 2.219-6.312 5.11-8.697 8.603.77.185 2.22.478 4.325.667.269.024.47.257.454.526-.056.991-.082 1.785-.082 2.499 0 2.983.391 6.243.518 7.227z"/></svg>