<?xml version="1.0" encoding="UTF-8"?>
<svg xmlns="http://www.w3.org/2000/svg" id="Layer_1" data-name="Layer 1" viewBox="0 0 24 24">
  <path d="M5.535,8.969c.245,.125,.547,.03,.674-.215,1.878-3.632,4.172-5.303,5.292-5.948v14.586c0,.276,.224,.5,.5,.5s.5-.224,.5-.5V2.813c1.122,.652,3.426,2.336,5.291,5.942,.089,.172,.264,.271,.445,.271,.077,0,.156-.018,.229-.056,.246-.127,.341-.429,.215-.674C15.972,3.059,12.338,1.595,12.184,1.535c-.115-.045-.244-.046-.358-.003-.152,.057-3.761,1.455-6.506,6.764-.126,.245-.031,.547,.215,.674Z"/>
  <path d="M21.302,16.253c-.277-.037-.525,.156-.561,.431-.167,1.268-.413,2.551-.735,3.821-5.314,1.32-10.698,1.32-16.013,0-.322-1.27-.568-2.553-.735-3.821-.036-.274-.291-.468-.561-.431-.274,.036-.467,.287-.431,.561,.184,1.404,.464,2.827,.833,4.23,.046,.175,.183,.312,.359,.357,2.833,.729,5.688,1.094,8.541,1.094s5.708-.365,8.541-1.094c.176-.045,.313-.182,.359-.357,.369-1.403,.648-2.826,.833-4.23,.036-.274-.157-.525-.431-.561Z"/>
</svg>
