<svg id="Layer_1" viewBox="0 0 24 24" xmlns="http://www.w3.org/2000/svg" data-name="Layer 1"><path d="m12 13c4.206 0 6-1.794 6-6s-1.794-6-6-6-6 1.794-6 6 1.794 6 6 6zm4.904-7.423c-.654.114-2.625.423-4.904.423-.133 0-.26-.006-.391-.008.994-.61 2.268-1.634 3.63-3.33.951.557 1.471 1.5 1.664 2.915zm-4.904-3.577c.893 0 1.645.084 2.277.261-2.434 2.937-4.482 3.541-4.805 3.62-1.125-.101-1.984-.235-2.376-.303.351-2.572 1.784-3.577 4.904-3.577zm-4.978 4.58c.773.133 2.707.42 4.978.42s4.206-.288 4.978-.42c.005.144.022.268.022.42 0 3.645-1.355 5-5 5s-5-1.355-5-5c0-.152.017-.276.022-.42zm4.978 7.42c-5.854 0-8.529 2.231-8.942 7.461-.015.177.067.349.214.45.197.476 5.229 1.089 11.229 1.089.276 0 .5-.224.5-.5s-.224-.5-.5-.5c-.551 0-1.065-.004-1.561-.011-.464-3.654-1.45-5.906-2.025-6.958.348-.019.707-.031 1.087-.031 5.346 0 7.573 1.833 7.946 6.539.021.277.286.48.537.459.275-.021.481-.262.459-.537-.413-5.229-3.088-7.461-8.942-7.461zm-.072 7.973c-5.274-.117-7.227-.58-7.842-.786.386-3.762 2.064-5.583 5.728-6.054.405.655 1.585 2.857 2.114 6.841z"/></svg>