<svg id="Layer_1" viewBox="0 0 24 24" xmlns="http://www.w3.org/2000/svg" data-name="Layer 1"><path d="m6 7c2.075 0 3-.925 3-3s-.925-3-3-3-3 .925-3 3 .925 3 3 3zm0-5c1.514 0 2 .486 2 2s-.486 2-2 2-2-.486-2-2 .486-2 2-2zm10 5c2.075 0 3-.925 3-3s-.925-3-3-3-3 .925-3 3 .925 3 3 3zm0-5c1.514 0 2 .486 2 2s-.486 2-2 2-2-.486-2-2 .486-2 2-2zm-8 9c0 2.075.925 3 3 3s3-.925 3-3-.925-3-3-3-3 .925-3 3zm3-2c1.514 0 2 .486 2 2s-.486 2-2 2-2-.486-2-2 .486-2 2-2zm12 8.499c0 .275-.223.5-.499.501l-4.501.011v4.489c0 .276-.224.5-.5.5s-.5-.224-.5-.5v-4.486l-4.499.011h-.001c-.275 0-.5-.223-.5-.499 0-.275.223-.5.499-.501l4.501-.011v-4.514c0-.276.224-.5.5-.5s.5.224.5.5v4.511l4.499-.011h.001c.275 0 .5.223.5.499zm-16.521-8.488c-.154-.007-.314-.011-.479-.011-2.789 0-3.871.955-3.989 3.523-.012.275-.249.49-.522.476-.276-.013-.489-.246-.477-.522.144-3.096 1.682-4.477 4.988-4.477.18 0 .353.004.521.011.276.012.49.245.479.521s-.261.49-.521.479zm9.521-1.011c3.307 0 4.845 1.381 4.988 4.477.013.276-.201.51-.477.522-.273.015-.511-.2-.522-.476-.119-2.568-1.2-3.523-3.989-3.523-.165 0-.325.004-.479.011-.253.01-.509-.202-.521-.479s.203-.51.479-.521c.168-.007.341-.011.521-.011zm-4 7.532c-.012.276-.266.49-.521.479-.154-.007-.314-.011-.479-.011-2.789 0-3.871.955-3.989 3.523-.012.268-.233.477-.499.477-.284 0-.514-.238-.5-.523.144-3.096 1.682-4.477 4.988-4.477.18 0 .353.004.521.011.276.012.49.245.479.521z"/></svg>