<svg id="Layer_1" viewBox="0 0 24 24" xmlns="http://www.w3.org/2000/svg" data-name="Layer 1"><path d="m22.854 22.146-2.437-2.437c-.693-2.081-2.045-3.433-4.126-4.126l-2.699-2.699c3.065-.432 4.408-2.235 4.408-5.885 0-4.206-1.794-6-6-6-3.65 0-5.453 1.343-5.885 4.408l-4.261-4.261c-.195-.195-.512-.195-.707 0s-.195.512 0 .707l20.999 21.001c.195.195.512.195.707 0s.195-.512 0-.707zm-10.854-20.146c3.645 0 5 1.355 5 5 0 3.439-1.185 4.8-4.32 4.973l-5.653-5.653c.173-3.134 1.534-4.32 4.973-4.32zm0 13.494c.006.276-.212.505-.488.512-4.939.115-7.1 2.007-7.458 6.534-.021.262-.24.46-.498.46-.013 0-.026 0-.04-.001-.275-.022-.48-.263-.459-.538.398-5.029 2.998-7.328 8.431-7.455.276-.009.505.212.512.488z"/></svg>