<svg id="Layer_1" viewBox="0 0 24 24" xmlns="http://www.w3.org/2000/svg" data-name="Layer 1"><path d="m9 15.991v.018c.036 1.946 1.072 2.98 3.003 2.991 1.926-.012 2.962-1.046 2.997-3.009-.032-1.89-1.125-2.979-3.003-2.991-1.898.012-2.963 1.074-2.997 2.991zm5 0c-.025 1.399-.624 2-1.997 2.009-1.357-.008-1.975-.624-2.003-2 .027-1.375.646-1.991 1.997-2 1.324.008 1.979.665 2.003 1.991zm4.997-2.991c-1.898.012-2.963 1.074-2.997 2.991v.018c.035 1.946 1.071 2.98 3.003 2.991 1.926-.012 2.962-1.046 2.997-3.009-.032-1.89-1.125-2.979-3.003-2.991zm.006 5c-1.357-.008-1.976-.624-2.003-2 .027-1.375.646-1.991 1.997-2 1.324.008 1.979.665 2.003 1.991-.025 1.399-.624 2-1.997 2.009zm-17.003-2.009v.018c.036 1.946 1.072 2.98 3.003 2.991 1.925-.012 2.961-1.046 2.997-3.009-.033-1.89-1.125-2.979-3.003-2.991-1.898.012-2.963 1.074-2.997 2.991zm5 0c-.025 1.399-.625 2-1.997 2.009-1.357-.008-1.975-.624-2.003-2 .027-1.375.646-1.991 1.997-2 1.325.008 1.98.665 2.003 1.991zm-5.965-4.469c-.022-.494-.035-1.003-.035-1.522 0-4.721 1.041-7.402 1.085-7.515.052-.132.158-.234.291-.284.132-.049 3.307-1.201 9.624-1.201s9.492 1.152 9.624 1.201c.133.05.239.152.291.284.044.112 1.085 2.794 1.085 7.515 0 .52-.013 1.028-.036 1.523-.012.268-.233.477-.499.477-.008 0-.016 0-.023 0-.275-.013-.488-.246-.476-.522.021-.479.034-.973.034-1.477 0-3.778-.704-6.222-.939-6.932-.806-.249-3.85-1.068-9.061-1.068s-8.255.818-9.061 1.067c-.235.71-.939 3.153-.939 6.932 0 .504.013.997.034 1.478.012.275-.201.51-.477.521-.281.035-.509-.2-.522-.477zm21.964 10.94c.02.275-.187.516-.462.536-.272.02-.517-.185-.536-.462-.058-.789-.684-1.378-1.556-1.468-.902-.092-1.988-.092-2.891 0-.872.09-1.498.679-1.556 1.468-.061.595-.939.596-.998 0-.058-.789-.684-1.378-1.556-1.468-.901-.092-1.988-.092-2.891 0-.872.09-1.498.679-1.556 1.468-.061.594-.939.596-.997 0-.058-.789-.684-1.378-1.556-1.468-.902-.092-1.989-.092-2.892 0-.872.09-1.498.679-1.556 1.468-.02.275-.263.483-.535.462-.275-.021-.482-.261-.462-.536.093-1.268 1.102-2.25 2.451-2.388.97-.1 2.125-.1 3.095 0 .822.084 1.513.484 1.953 1.068.439-.584 1.131-.984 1.953-1.068.97-.1 2.125-.1 3.094 0 .822.084 1.514.484 1.953 1.068.439-.584 1.131-.984 1.953-1.068.969-.1 2.125-.1 3.094 0 1.35.138 2.358 1.12 2.452 2.388z"/></svg>