<svg id="Layer_1" viewBox="0 0 24 24" xmlns="http://www.w3.org/2000/svg" data-name="Layer 1"><path d="m6 7c2.075 0 3-.925 3-3s-.925-3-3-3-3 .925-3 3 .925 3 3 3zm0-5c1.514 0 2 .486 2 2s-.486 2-2 2-2-.486-2-2 .486-2 2-2zm-.477 7.011c-2.416.112-3.4 1.097-3.512 3.512-.013.268-.233.477-.499.477-.008 0-.016 0-.023 0-.276-.013-.489-.247-.477-.522.137-2.952 1.514-4.329 4.465-4.465.276-.025.51.201.522.477s-.201.51-.477.522zm4.477 6.478c.013.276-.201.51-.477.522-2.416.112-3.4 1.097-3.512 3.512-.013.268-.233.477-.499.477-.008 0-.016 0-.023 0-.276-.013-.489-.247-.477-.522.137-2.952 1.514-4.329 4.465-4.465.275-.018.509.201.522.477zm4-8.489c2.075 0 3-.925 3-3s-.925-3-3-3-3 .925-3 3 .925 3 3 3zm0-5c1.514 0 2 .486 2 2s-.486 2-2 2-2-.486-2-2 .486-2 2-2zm-1 9c0-2.075-.925-3-3-3s-3 .925-3 3 .925 3 3 3 3-.925 3-3zm-3 2c-1.514 0-2-.486-2-2s.486-2 2-2 2 .486 2 2-.486 2-2 2zm12.133 5.019-.656-.392c.015-.198.023-.407.023-.627s-.008-.429-.023-.627l.656-.392c.854-.51 1.029-1.202.519-2.057-.509-.854-1.201-1.028-2.057-.519l-.426.254c-.325-.226-.712-.392-1.168-.499v-.661c0-.995-.505-1.5-1.5-1.5s-1.5.505-1.5 1.5v.661c-.457.107-.844.273-1.168.499l-.426-.254c-.854-.51-1.546-.336-2.057.519s-.336 1.547.519 2.057l.656.392c-.015.198-.023.407-.023.627s.008.429.023.627l-.656.392c-.854.51-1.029 1.202-.519 2.057s1.203 1.03 2.057.519l.426-.254c.325.226.712.392 1.168.499v.661c0 .995.505 1.5 1.5 1.5s1.5-.505 1.5-1.5v-.661c.457-.107.844-.273 1.168-.499l.426.254c.854.51 1.546.337 2.057-.519.511-.855.336-1.547-.519-2.057zm-.34 1.544c-.225.377-.309.397-.686.173l-.724-.432c-.19-.113-.435-.088-.597.063-.311.29-.755.474-1.359.563-.245.036-.427.247-.427.495v1.074c0 .439-.061.5-.5.5s-.5-.061-.5-.5v-1.074c0-.248-.182-.458-.427-.495-.604-.089-1.048-.273-1.359-.563-.163-.152-.407-.177-.597-.063l-.724.432c-.376.225-.461.205-.686-.173-.225-.377-.204-.461.173-.686l.929-.555c.17-.102.264-.294.24-.491-.032-.255-.049-.531-.049-.832s.017-.576.049-.832c.024-.197-.069-.39-.24-.491l-.929-.555c-.377-.225-.398-.309-.173-.686s.31-.398.686-.173l.724.432c.192.114.436.088.597-.063.311-.29.755-.474 1.359-.563.245-.036.427-.247.427-.495v-1.074c0-.439.061-.5.5-.5s.5.061.5.5v1.074c0 .248.182.458.427.495.604.089 1.048.273 1.359.563.163.151.407.178.597.063l.724-.432c.376-.225.46-.204.686.173.225.377.204.461-.173.686l-.93.555c-.17.102-.265.295-.24.492.032.255.049.53.049.831s-.017.576-.049.831c-.025.197.069.39.24.492l.93.555c.377.225.398.309.173.686zm-4.293-4.563c-1.346 0-2 .654-2 2s.654 2 2 2 2-.654 2-2-.654-2-2-2zm0 3c-.794 0-1-.206-1-1s.206-1 1-1 1 .206 1 1-.206 1-1 1z"/></svg>