<svg id="Layer_1" viewBox="0 0 24 24" xmlns="http://www.w3.org/2000/svg" data-name="Layer 1"><path d="m9.494 12c3.854 0 5.498-1.645 5.498-5.498s-1.645-5.498-5.498-5.498-5.498 1.644-5.498 5.498 1.645 5.498 5.498 5.498zm0-9.997c3.279 0 4.499 1.219 4.499 4.499s-1.219 4.499-4.499 4.499-4.499-1.219-4.499-4.499 1.219-4.499 4.499-4.499zm3.84 13.526c-1.016-.357-2.272-.53-3.84-.53-5.466 0-7.498 2.032-7.498 7.498 0 .276-.224.5-.5.5s-.5-.224-.5-.5c0-5.956 2.541-8.498 8.498-8.498 1.682 0 3.046.192 4.171.587.261.091.398.377.306.637-.092.261-.378.398-.637.306zm9.387-2.976c-.045-.022-1.118-.553-2.223-.553-3.271 0-4.4 2.183-4.446 2.276-.035.069-.053.146-.053.224v4.676c-.277-.114-.605-.177-1-.177-1.345 0-1.999.654-1.999 1.999s.654 1.999 1.999 1.999 1.999-.654 1.999-1.999v-6.364c.228-.362 1.195-1.633 3.499-1.633.574 0 1.165.195 1.5.328v4.848c-.277-.114-.605-.177-1-.177-1.345 0-1.999.654-1.999 1.999s.654 1.999 1.999 1.999 1.999-.654 1.999-1.999v-6.998c0-.189-.107-.362-.276-.447zm-7.722 9.444c-.794 0-1-.206-1-1s.206-1 1-1 1 .206 1 1-.206 1-1 1zm5.998-1c-.794 0-1-.206-1-1s.206-1 1-1 1 .206 1 1-.206 1-1 1z"/></svg>