<svg id="Layer_1" viewBox="0 0 24 24" xmlns="http://www.w3.org/2000/svg" data-name="Layer 1"><path d="m12 13c4.206 0 6-1.794 6-6s-1.794-6-6-6-6 1.794-6 6 1.794 6 6 6zm0-11c3.645 0 5 1.355 5 5s-1.355 5-5 5-5-1.355-5-5 1.355-5 5-5zm0 13c-5.815 0-8.59 2.301-8.998 7.46-.022.275.184.516.459.538.255.021.516-.183.537-.459.274-3.459 1.632-5.391 4.502-6.153v1.651c-1.007.152-1.5.797-1.5 1.963 0 1.346.654 2 2 2s2-.654 2-2c0-1.166-.493-1.811-1.5-1.963v-1.857c.748-.119 1.576-.18 2.5-.18s1.752.061 2.5.18v2.891c-.86.224-1.5 1-1.5 1.929v1.5c0 .276.224.5.5.5s.5-.224.5-.5v-1.5c0-.551.448-1 1-1s1 .449 1 1v1.5c0 .276.224.5.5.5s.5-.224.5-.5v-1.5c0-.929-.64-1.705-1.5-1.929v-2.685c2.87.762 4.228 2.694 4.502 6.153.021.262.239.46.497.46.014 0 .027 0 .04-.001.275-.022.481-.263.459-.538-.408-5.16-3.183-7.46-8.998-7.46zm-2 5c0 .794-.206 1-1 1s-1-.206-1-1 .206-1 1-1 1 .206 1 1z"/></svg>