<svg id="Layer_1" viewBox="0 0 24 24" xmlns="http://www.w3.org/2000/svg" data-name="Layer 1"><path d="m11.997 14c-6.165 0-8.855 2.539-8.994 8.488-.006.276.212.505.488.512.249-.024.505-.212.512-.488.085-3.673 1.152-5.82 3.59-6.82.97 1.621 2.832 4.598 4.854 7.121.173.216.488.249.703.078.216-.173.25-.488.078-.703-.256-.32-.51-.647-.76-.979 1.735-2.213 3.117-4.159 3.923-5.522 2.446.999 3.515 3.146 3.601 6.825.006.277.237.495.512.488.276-.007.495-.235.488-.512-.139-5.949-2.829-8.488-8.994-8.488zm-.144 6.371c-1.36-1.883-2.543-3.768-3.285-4.999.968-.25 2.101-.373 3.429-.373s2.452.122 3.417.37c-.766 1.259-2.034 3.04-3.562 5.002zm8.102-13.371c.414-.324.746-.847.984-1.557.116-.347.058-.728-.156-1.02-.201-.275-.513-.414-.837-.424-.726.013-1.312.187-1.741.519-.16.123-.293.273-.415.431-.555-2.727-2.359-3.95-5.792-3.95-4.206 0-6 1.794-6 6s1.794 6 6 6c3.433 0 5.237-1.222 5.792-3.95.122.158.255.308.415.431.429.332 1.015.506 1.742.519h.016c.324 0 .622-.153.82-.424.214-.292.272-.673.156-1.021-.238-.709-.569-1.231-.984-1.555zm-7.958 5c-3.645 0-5-1.355-5-5s1.355-5 5-5 5 1.355 5 5-1.355 5-5 5zm6.818-6.69c.318-.245.8-.304 1.145-.311.071 0 .056.046.03.127-.166.519-.4.894-.657 1.092-.318.245-.823.287-1.216.28.13-.414.357-.926.698-1.188zm1.148 3.69c-.348-.006-.83-.064-1.148-.31-.34-.263-.567-.774-.698-1.187.393-.021.899.034 1.216.279.256.197.483.574.656 1.09.023.068.042.123-.027.127zm-5.966-4h-4c-.827 0-1.5.673-1.5 1.5s.673 1.5 1.5 1.5h4c.827 0 1.5-.673 1.5-1.5s-.673-1.5-1.5-1.5zm0 2h-4c-.276 0-.5-.225-.5-.5s.224-.5.5-.5h4c.276 0 .5.225.5.5s-.224.5-.5.5z"/></svg>