<svg id="Layer_1" viewBox="0 0 24 24" xmlns="http://www.w3.org/2000/svg" data-name="Layer 1"><path d="m20.999 22.461c.021.275-.184.516-.459.537-.272.024-.517-.183-.538-.459-.246-3.11-1.351-4.93-3.566-5.839-1.99 3.104-4.118 4.2-4.211 4.246-.142.072-.309.072-.449 0-.093-.046-2.221-1.143-4.211-4.246-2.215.909-3.32 2.729-3.566 5.839-.022.276-.26.479-.538.459-.275-.021-.48-.263-.459-.537.292-3.681 1.755-5.855 4.606-6.846.225-.075.469.012.591.213 1.528 2.515 3.205 3.719 3.801 4.093.597-.374 2.273-1.578 3.801-4.093.123-.201.367-.289.591-.213 2.852.99 4.315 3.166 4.606 6.846zm-9.908-17.7c.203.216.695.397.909.461.214-.064.706-.246.909-.461.157-.167.084-1.049-.024-1.572 0 0-.327-.191-.885-.189-.559-.002-.885.189-.885.189-.107.523-.181 1.405-.024 1.572zm-5.978.305c-.073-.089-.112-.2-.112-.315v-1.083c0-.133.053-.26.146-.354.094-.095 2.364-2.313 6.854-2.313s6.759 2.219 6.854 2.313c.094.094.146.221.146.354v1.083c0 .115-.04.227-.112.315-.037.046-.85 1.035-1.888 1.648v2.286c0 3.505-1.495 5-5 5s-5-1.495-5-5v-2.286c-1.038-.613-1.851-1.603-1.888-1.648zm2.888 1.878v.374c.29.295 1.38 1.183 4 1.183s3.704-.883 4-1.185v-.372c-.616.025-1.829.056-4 .056s-3.384-.032-4-.056zm8 2.056v-.433c-.741.453-1.993.933-4 .933s-3.259-.479-4-.933v.433c0 2.953 1.047 4 4 4s4-1.047 4-4zm-10.001-4.436c.256.286.916.97 1.652 1.361.325.019 1.503.074 4.348.074s4.023-.055 4.348-.074c.736-.391 1.396-1.075 1.652-1.361v-.672c-.54-.446-2.557-1.893-6-1.893s-5.46 1.446-6 1.893z"/></svg>