<svg id="Layer_1" viewBox="0 0 24 24" xmlns="http://www.w3.org/2000/svg" data-name="Layer 1"><path d="m22.854 22.147-4.883-4.883c.783-.644 4.03-3.597 4.03-8.263 0-5.217-4.062-7.816-4.235-7.924-.12-.075-.265-.094-.4-.058-.136.038-.249.132-.312.258-1.043 2.087-1.053 6.09-1.053 14.017l-5.768-5.768c.511-.716.768-1.679.768-3.025 0-2.527-.56-5.007-.584-5.111-.061-.27-.33-.442-.599-.376-.269.062-.438.33-.376.599.005.024.559 2.478.559 4.889 0 1.02-.164 1.773-.484 2.309l-2.516-2.516v-4.794c0-.276-.224-.5-.5-.5s-.5.224-.5.5v3.793l-2.652-2.651c.006-.019.017-.036.021-.057.103-.596.188-.968.189-.975.062-.269-.107-.537-.376-.598-.272-.065-.538.107-.599.376 0 0-.034.155-.084.404l-.647-.647c-.195-.195-.512-.195-.707 0s-.195.512 0 .707l21 21.001c.195.195.512.195.707 0s.195-.512 0-.707zm-5.854-6.646c0-7.204 0-11.141.715-13.217 1.016.83 3.285 3.09 3.285 6.717 0 4.361-3.264 7.167-3.74 7.552l-.26-.26v-.793zm0 4.5v2c0 .276-.224.5-.5.5s-.5-.224-.5-.5v-2c0-.276.224-.5.5-.5s.5.224.5.5zm-10-9.5v12c0 .276-.224.5-.5.5s-.5-.224-.5-.5v-11.513c-2.761-.146-4-1.547-4-4.487 0-.345.011-.689.029-1.027.015-.276.245-.5.526-.472.276.015.487.25.472.526-.018.32-.027.646-.027.973 0 2.584.916 3.5 3.5 3.5.276 0 .5.224.5.5z"/></svg>