<?xml version="1.0" encoding="UTF-8"?>
<svg xmlns="http://www.w3.org/2000/svg" id="Layer_1" data-name="Layer 1" viewBox="0 0 24 24">
  <path d="M11.265,1.004c-.274,.035-.468,.285-.434,.559,.005,.042,.528,4.199,.528,5.248,0,2.935-2.035,4.095-4.071,4.226V1.5c0-.276-.224-.5-.5-.5s-.5,.224-.5,.5V11.019c-1.964-.195-3.862-1.374-3.862-4.209,0-1.049,.522-5.206,.528-5.248,.035-.274-.16-.524-.434-.559-.279-.031-.524,.16-.559,.434-.022,.173-.536,4.262-.536,5.373,0,3.35,2.354,4.987,4.862,5.211v10.479c0,.276,.224,.5,.5,.5s.5-.224,.5-.5V12.037c2.585-.15,5.071-1.783,5.071-5.227,0-1.111-.514-5.199-.536-5.373-.035-.274-.281-.465-.559-.434Z"/>
  <path d="M18.772,2.026c-1.734-1.02-3.274-1.024-3.369-1.026-.275,0-.498,.225-.498,.5V22.5c0,.276,.224,.5,.5,.5s.5-.224,.5-.5v-3.57c3.359-.191,5.283-.935,5.366-.968,.142-.056,.25-.174,.295-.319,.041-.135,1.007-3.356,1.007-7.666,0-4.724-2.068-6.931-3.802-7.951Zm1.905,15.084c-.583,.19-2.256,.668-4.772,.818V2.048c.53,.079,1.419,.287,2.36,.84,2.196,1.291,3.309,3.676,3.309,7.088,0,3.5-.678,6.316-.897,7.134Z"/>
</svg>
