<svg id="Layer_1" viewBox="0 0 24 24" xmlns="http://www.w3.org/2000/svg" data-name="Layer 1"><path d="m22.5 15c.276 0 .5-.224.5-.5v-.5c0-4.014-1.163-6.071-4-6.743v-.757c0-3.855-1.645-5.5-5.5-5.5-2.714 0-4.291.865-5.113 2.805-.509 1.202-.874 4.704-1.296 8.759-.31 2.977-.63 6.051-1.041 8.588-.588.244-2.277.848-4.55.848-.276 0-.5.224-.5.5s.224.5.5.5c3.083 0 5.138-1.01 5.224-1.053.143-.072.243-.208.27-.365.436-2.617.77-5.818 1.092-8.915.397-3.81.772-7.409 1.223-8.473.66-1.559 1.875-2.195 4.192-2.195 3.28 0 4.5 1.22 4.5 4.5v.583c-.465-.054-.961-.083-1.5-.083-1.092 0-2.917.241-2.995.251-.197.026-.36.167-.415.358-1.078 3.774-1.09 13.411-1.09 13.819 0 .215.138.406.342.474.134.045 3.335 1.097 7.123 1.097.003 0 .005-.002.008-.002.01 0 .018.002.027.002 2.42 0 3.5-1.08 3.5-3.5s-1.08-3.5-3.5-3.5-3.5 1.08-3.5 3.5c0 .985.189 1.737.564 2.295-1.649-.221-2.969-.564-3.562-.736.013-1.772.119-9.438.966-12.857.575-.069 1.771-.201 2.532-.201 4.112 0 5.5 1.514 5.5 6v.5c0 .276.224.5.5.5zm-3 2c1.869 0 2.5.631 2.5 2.5s-.631 2.5-2.5 2.5-2.5-.631-2.5-2.5.631-2.5 2.5-2.5z"/></svg>