<svg id="Layer_1" viewBox="0 0 24 24" xmlns="http://www.w3.org/2000/svg" data-name="Layer 1"><path d="m15.854 8.854-3.146 3.146 3.146 3.146c.195.195.195.512 0 .707s-.512.195-.707 0l-3.146-3.146-3.146 3.146c-.195.195-.512.195-.707 0s-.195-.512 0-.707l3.146-3.146-3.146-3.146c-.195-.195-.195-.512 0-.707s.512-.195.707 0l3.146 3.146 3.146-3.146c.195-.195.512-.195.707 0s.195.512 0 .707zm6.423-7.427c-.04-.272-.292-.464-.568-.421-.273.04-.462.294-.421.567.007.048.712 4.873.712 10.427s-.705 10.379-.712 10.427c-.047.3.193.575.495.573.244 0 .458-.179.494-.427.007-.049.723-4.947.723-10.573s-.716-10.524-.723-10.573zm-19.986-.421c-.272-.043-.527.148-.568.421-.007.049-.723 4.947-.723 10.573s.716 10.524.723 10.573c.039.274.301.463.568.421.273-.04.462-.294.421-.567-.007-.048-.712-4.873-.712-10.427s.705-10.379.712-10.427c.041-.273-.148-.527-.421-.567z"/></svg>