<svg id="Layer_1" viewBox="0 0 24 24" xmlns="http://www.w3.org/2000/svg" data-name="Layer 1"><path d="m22.204 3.245c-.038-.203-.196-.361-.399-.399-.045-.009-4.569-.846-9.805-.846s-9.759.837-9.805.846c-.203.038-.361.196-.399.399-.008.042-.796 4.287-.796 8.255s.788 8.213.796 8.255c.038.203.196.361.399.399.017.003.691.128 1.805.28v1.066c0 .276.224.5.5.5s.5-.224.5-.5v-.938c1.804.216 4.305.438 7 .438s5.196-.222 7-.438v.938c0 .276.224.5.5.5s.5-.224.5-.5v-1.066c1.114-.152 1.787-.276 1.805-.28.203-.038.361-.196.399-.399.008-.042.796-4.287.796-8.255s-.788-8.213-.796-8.255zm-.923 15.985c-1.133.189-4.955.77-9.281.77s-8.147-.58-9.281-.77c-.095-.557-.285-1.758-.446-3.23h1.227c.276 0 .5-.224.5-.5s-.224-.5-.5-.5h-1.327c-.1-1.11-.173-2.318-.173-3.5s.073-2.39.173-3.5h1.327c.276 0 .5-.224.5-.5s-.224-.5-.5-.5h-1.227c.161-1.472.351-2.673.446-3.23 1.133-.189 4.955-.77 9.281-.77s8.147.58 9.281.77c.183 1.072.719 4.501.719 7.73s-.537 6.658-.719 7.73zm-7.781-13.23c-3.855 0-5.5 1.645-5.5 5.5s1.645 5.5 5.5 5.5 5.5-1.645 5.5-5.5-1.645-5.5-5.5-5.5zm0 10c-3.28 0-4.5-1.22-4.5-4.5s1.22-4.5 4.5-4.5c3.1 0 4.345 1.112 4.474 4h-1.474c-.276 0-.5.224-.5.5s.224.5.5.5h1.474c-.129 2.888-1.374 4-4.474 4z"/></svg>