<?xml version="1.0" encoding="UTF-8"?>
<svg xmlns="http://www.w3.org/2000/svg" id="Layer_1" data-name="Layer 1" viewBox="0 0 24 24">
  <path d="M22.148,1.608c-.05-.149-.167-.267-.317-.316-.085-.027-2.106-.683-4.08,.066-.258,.099-.388,.387-.29,.646,.098,.258,.387,.385,.645,.29,.925-.352,1.891-.324,2.557-.232l-3.649,3.644c-2.311-2.043-4.615-2.27-6.869-.677-.743-.261-1.62-.403-2.622-.422-3.821,.065-5.938,2.164-5.963,5.916,.023,3.633,1.911,5.66,5.484,5.891l-.007,3.649h-1.738c-.276,0-.5,.224-.5,.5s.224,.5,.5,.5h1.737l-.003,1.438c0,.276,.223,.5,.499,.501h0c.276,0,.5-.224,.5-.499l.003-1.439h1.731c.276,0,.5-.224,.5-.5s-.224-.5-.5-.5h-1.729l.007-3.65c1.066-.069,1.986-.296,2.743-.677,.834,.463,1.679,.695,2.519,.695,1.413,0,2.815-.655,4.14-1.966,2.55-2.589,2.641-5.365,.276-8.052l3.655-3.649c.093,.666,.123,1.636-.231,2.566-.098,.258,.031,.547,.29,.646,.059,.021,.119,.032,.178,.032,.202,0,.392-.123,.467-.322,.75-1.973,.096-3.991,.068-4.076ZM7.542,15.433c-3.332-.06-4.96-1.668-4.981-4.911,.021-3.205,1.697-4.859,4.963-4.916,.619,.011,1.183,.075,1.687,.191-.072,.067-.144,.136-.215,.207-2.699,2.738-2.683,5.565,.06,8.417,.246,.238,.493,.454,.742,.65-.64,.224-1.398,.346-2.254,.362Zm9.196-1.675c-2.275,2.251-4.626,2.232-6.975-.043-2.347-2.439-2.365-4.667-.06-7.005,1.159-1.148,2.289-1.722,3.43-1.722,1.158,0,2.328,.59,3.551,1.771,2.309,2.401,2.325,4.692,.054,6.998Z"/>
</svg>
