<?xml version="1.0" encoding="UTF-8"?>
<svg xmlns="http://www.w3.org/2000/svg" id="Layer_1" data-name="Layer 1" viewBox="0 0 24 24">
  <path d="M19.447,8.395c-.029-4.817-2.531-7.306-7.456-7.395-4.766,.082-7.408,2.708-7.438,7.401,.029,4.594,2.433,7.137,6.963,7.378l-.009,3.751h-2.343c-.276,0-.5,.224-.5,.5s.224,.5,.5,.5h2.34l-.005,1.969c0,.276,.223,.5,.499,.501h0c.275,0,.499-.223,.5-.499l.005-1.971h2.331c.276,0,.5-.224,.5-.5s-.224-.5-.5-.5h-2.329l.009-3.753c4.572-.248,6.904-2.728,6.932-7.382Zm-13.895,.006c.027-4.174,2.199-6.328,6.438-6.401,4.379,.08,6.431,2.114,6.456,6.395-.025,4.226-2.135,6.32-6.447,6.401-4.313-.079-6.421-2.173-6.447-6.395Z"/>
</svg>
