<svg id="Layer_1" viewBox="0 0 24 24" xmlns="http://www.w3.org/2000/svg" data-name="Layer 1"><path d="m15.992 18.954c.05.271-.13.532-.401.583-1.667.307-3.548.463-5.591.463-5.136 0-7.725-.992-7.833-1.034-.137-.054-.243-.165-.291-.305-.036-.105-.877-2.625-.877-6.661s.841-6.556.877-6.661c.088-.262.374-.4.634-.312.261.088.401.372.313.634-.008.024-.824 2.482-.824 6.339 0 3.185.556 5.414.754 6.109.715.229 3.148.891 7.246.891 1.982 0 3.802-.15 5.409-.447.265-.045.532.129.583.401zm2.807-3.643c-.124 1.016-.282 1.819-.411 2.37l4.465 4.465c.195.195.195.512 0 .707s-.512.195-.707 0l-21-20.999c-.195-.195-.195-.512 0-.707s.512-.195.707 0l3.208 3.208c1.505-.234 3.164-.354 4.939-.354 5.135 0 7.726.992 7.833 1.035.137.054.243.165.291.305.024.072.422 1.297.673 3.345.954-.94 2.044-1.772 3.446-2.613.318-.205.768.053.757.429v11c.011.359-.406.618-.724.447-1.179-.59-2.364-1.502-3.478-2.636zm.123-5.32c.045.623.078 1.282.078 2.009 0 .715-.028 1.382-.072 1.998.975 1.102 2.023 2.006 3.072 2.651v-9.247c-1.247.813-2.217 1.634-3.078 2.589zm-1.375 6.849c.216-1.092.453-2.757.453-4.84 0-3.184-.556-5.415-.754-6.11-.715-.228-3.148-.89-7.246-.89-1.439 0-2.794.084-4.05.243z"/></svg>