<svg id="Layer_1" viewBox="0 0 24 24" xmlns="http://www.w3.org/2000/svg" data-name="Layer 1"><path d="m12 10c1.346 0 2-.654 2-2s-.654-2-2-2-2 .654-2 2 .654 2 2 2zm0-3c.794 0 1 .206 1 1s-.206 1-1 1-1-.206-1-1 .206-1 1-1zm0 7c-1.346 0-2 .654-2 2s.654 2 2 2 2-.654 2-2-.654-2-2-2zm0 3c-.794 0-1-.206-1-1s.206-1 1-1 1 .206 1 1-.206 1-1 1zm-4-7c-1.346 0-2 .654-2 2s.654 2 2 2 2-.654 2-2-.654-2-2-2zm0 3c-.794 0-1-.206-1-1s.206-1 1-1 1 .206 1 1-.206 1-1 1zm6-1c0 1.346.654 2 2 2s2-.654 2-2-.654-2-2-2-2 .654-2 2zm3 0c0 .794-.206 1-1 1s-1-.206-1-1 .206-1 1-1 1 .206 1 1zm5.5 2c-.484 0-1.807-.072-2.584-.37.052-.512.084-1.05.084-1.63s-.032-1.118-.084-1.63c.778-.298 2.101-.37 2.584-.37.276 0 .5-.224.5-.5s-.224-.5-.5-.5c-.075 0-1.607.006-2.728.359-.176-.924-.456-1.722-.852-2.396.18.024.373.036.58.036 1.706 0 2.5-.794 2.5-2.5s-.794-2.5-2.5-2.5-2.5.794-2.5 2.5c0 .207.013.4.036.58-.673-.396-1.472-.676-2.396-.852.353-1.121.359-2.653.359-2.728 0-.276-.224-.5-.5-.5s-.5.224-.5.5c0 .484-.072 1.807-.37 2.584-.512-.052-1.05-.084-1.63-.084s-1.118.032-1.63.084c-.298-.778-.37-2.101-.37-2.584 0-.276-.224-.5-.5-.5s-.5.224-.5.5c0 .075.006 1.607.359 2.728-.924.176-1.722.456-2.396.852.024-.18.036-.373.036-.58 0-1.706-.794-2.5-2.5-2.5s-2.5.794-2.5 2.5.794 2.5 2.5 2.5c.207 0 .4-.013.58-.036-.396.673-.676 1.472-.852 2.396-1.121-.353-2.653-.359-2.728-.359-.276 0-.5.224-.5.5s.224.5.5.5c.484 0 1.807.072 2.584.37-.052.512-.084 1.05-.084 1.63s.032 1.118.084 1.63c-.778.298-2.101.37-2.584.37-.276 0-.5.224-.5.5s.224.5.5.5c.075 0 1.607-.006 2.728-.359.176.924.456 1.722.852 2.396-.18-.024-.373-.036-.58-.036-1.706 0-2.5.794-2.5 2.5s.794 2.5 2.5 2.5 2.5-.794 2.5-2.5c0-.207-.013-.4-.036-.58.673.396 1.472.676 2.396.852-.353 1.121-.359 2.653-.359 2.728 0 .276.224.5.5.5s.5-.224.5-.5c0-.484.072-1.807.37-2.584.512.052 1.05.084 1.63.084s1.118-.032 1.63-.084c.298.778.37 2.101.37 2.584 0 .276.224.5.5.5s.5-.224.5-.5c0-.075-.006-1.607-.359-2.728.924-.176 1.722-.456 2.396-.852-.024.18-.036.373-.036.58 0 1.706.794 2.5 2.5 2.5s2.5-.794 2.5-2.5-.794-2.5-2.5-2.5c-.207 0-.4.013-.58.036.396-.673.676-1.472.852-2.396 1.121.353 2.653.359 2.728.359.276 0 .5-.224.5-.5s-.224-.5-.5-.5zm-3-11c1.149 0 1.5.351 1.5 1.5s-.351 1.5-1.5 1.5-1.5-.351-1.5-1.5.351-1.5 1.5-1.5zm-16.5 1.5c0-1.149.351-1.5 1.5-1.5s1.5.351 1.5 1.5-.351 1.5-1.5 1.5-1.5-.351-1.5-1.5zm1.5 16.5c-1.149 0-1.5-.351-1.5-1.5s.351-1.5 1.5-1.5 1.5.351 1.5 1.5-.351 1.5-1.5 1.5zm16.5-1.5c0 1.149-.351 1.5-1.5 1.5s-1.5-.351-1.5-1.5.351-1.5 1.5-1.5 1.5.351 1.5 1.5zm-9-.5c-5.103 0-7-1.897-7-7s1.897-7 7-7 7 1.897 7 7-1.897 7-7 7z"/></svg>