<svg id="Layer_1" viewBox="0 0 24 24" xmlns="http://www.w3.org/2000/svg" data-name="Layer 1"><path d="m12 10.5c0-.933-.461-1.417-1.337-1.476.169-.431.27-.94.307-1.524h1.53c.276 0 .5-.224.5-.5s-.224-.5-.5-.5h-1.53c-.037-.584-.137-1.092-.307-1.524.876-.059 1.337-.543 1.337-1.476 0-.995-.505-1.5-1.5-1.5-.933 0-1.417.461-1.476 1.337-.431-.169-.94-.27-1.524-.307v-1.53c0-.276-.224-.5-.5-.5s-.5.224-.5.5v1.53c-.584.037-1.092.137-1.524.307-.059-.876-.543-1.337-1.476-1.337-.995 0-1.5.505-1.5 1.5 0 .933.461 1.417 1.337 1.476-.169.431-.27.94-.307 1.524h-1.53c-.276 0-.5.224-.5.5s.224.5.5.5h1.53c.037.584.137 1.092.307 1.524-.876.059-1.337.543-1.337 1.476 0 .995.505 1.5 1.5 1.5.933 0 1.417-.461 1.476-1.337.431.169.94.27 1.524.307v1.53c0 .276.224.5.5.5s.5-.224.5-.5v-1.53c.584-.037 1.092-.137 1.524-.307.059.876.543 1.337 1.476 1.337.995 0 1.5-.505 1.5-1.5zm-5-.5c-2.215 0-3-.785-3-3s.785-3 3-3 3 .785 3 3-.785 3-3 3zm3.5-7c.439 0 .5.061.5.5s-.061.5-.5.5-.5-.061-.5-.5.061-.5.5-.5zm-7.5.5c0-.439.061-.5.5-.5s.5.061.5.5-.061.5-.5.5-.5-.061-.5-.5zm.5 7.5c-.439 0-.5-.061-.5-.5s.061-.5.5-.5.5.061.5.5-.061.5-.5.5zm7 0c-.439 0-.5-.061-.5-.5s.061-.5.5-.5.5.061.5.5-.061.5-.5.5zm12 5.5h-1.53c-.037-.584-.137-1.092-.307-1.524.876-.059 1.337-.543 1.337-1.476 0-.995-.505-1.5-1.5-1.5-.933 0-1.417.461-1.476 1.337-.431-.169-.94-.27-1.524-.307v-1.53c0-.276-.224-.5-.5-.5s-.5.224-.5.5v1.53c-.584.037-1.092.137-1.524.307-.059-.876-.543-1.337-1.476-1.337-.995 0-1.5.505-1.5 1.5 0 .933.461 1.417 1.337 1.476-.169.431-.27.94-.307 1.524h-1.53c-.276 0-.5.224-.5.5s.224.5.5.5h1.53c.037.584.137 1.092.307 1.524-.876.059-1.337.543-1.337 1.476 0 .995.505 1.5 1.5 1.5.933 0 1.417-.461 1.476-1.337.431.169.94.27 1.524.307v1.53c0 .276.224.5.5.5s.5-.224.5-.5v-1.53c.584-.037 1.092-.137 1.524-.307.059.876.543 1.337 1.476 1.337.995 0 1.5-.505 1.5-1.5 0-.933-.461-1.417-1.337-1.476.169-.431.27-.94.307-1.524h1.53c.276 0 .5-.224.5-.5s-.224-.5-.5-.5zm-5.5 3.5c-2.215 0-3-.785-3-3s.785-3 3-3 3 .785 3 3-.785 3-3 3zm3.5-7c.439 0 .5.061.5.5s-.061.5-.5.5-.5-.061-.5-.5.061-.5.5-.5zm-7.5.5c0-.439.061-.5.5-.5s.5.061.5.5-.061.5-.5.5-.5-.061-.5-.5zm.5 7.5c-.439 0-.5-.061-.5-.5s.061-.5.5-.5.5.061.5.5-.061.5-.5.5zm7.5-.5c0 .439-.061.5-.5.5s-.5-.061-.5-.5.061-.5.5-.5.5.061.5.5z"/></svg>