<svg id="Layer_1" viewBox="0 0 24 24" xmlns="http://www.w3.org/2000/svg" data-name="Layer 1"><path d="m15.353 18.583c-.909.28-2.006.417-3.353.417-5.103 0-7-1.897-7-7 0-1.347.137-2.443.417-3.353.082-.264-.066-.544-.33-.625-.265-.084-.544.065-.625.33-.097.314-.173.653-.239 1.005-1.121-.352-2.648-.358-2.723-.358-.276 0-.5.224-.5.5s.224.5.5.5c.483 0 1.804.072 2.582.369-.05.508-.082 1.044-.082 1.631 0 .58.032 1.118.084 1.63-.778.298-2.101.37-2.584.37-.276 0-.5.224-.5.5s.224.5.5.5c.075 0 1.607-.006 2.728-.359.176.924.456 1.722.852 2.396-.18-.024-.373-.036-.58-.036-1.706 0-2.5.794-2.5 2.5s.794 2.5 2.5 2.5 2.5-.794 2.5-2.5c0-.207-.013-.4-.036-.58.673.396 1.472.676 2.396.852-.353 1.121-.359 2.653-.359 2.728 0 .276.224.5.5.5s.5-.224.5-.5c0-.484.072-1.807.37-2.584.512.052 1.05.084 1.63.084.588 0 1.123-.032 1.631-.082.297.778.369 2.099.369 2.582 0 .276.224.5.5.5s.5-.224.5-.5c0-.075-.006-1.602-.358-2.723.352-.066.692-.142 1.005-.239.264-.081.412-.361.33-.625s-.361-.412-.625-.33zm-10.853 2.417c-1.149 0-1.5-.351-1.5-1.5s.351-1.5 1.5-1.5 1.5.351 1.5 1.5-.351 1.5-1.5 1.5zm7.5-15c-1.346 0-2 .654-2 2s.654 2 2 2 2-.654 2-2-.654-2-2-2zm0 3c-.794 0-1-.206-1-1s.206-1 1-1 1 .206 1 1-.206 1-1 1zm-1 7c0 .794.206 1 1 1 .678 0 .807-.198.855-.273.151-.23.461-.294.692-.146.231.151.296.461.146.692-.319.489-.873.727-1.693.727-1.346 0-2-.654-2-2 0-.82.237-1.374.727-1.693.232-.15.542-.085.692.146s.086.541-.146.692c-.075.049-.273.178-.273.855zm-4-4c0 .794.206 1 1 1 .678 0 .807-.198.855-.273.151-.229.46-.295.692-.146.231.151.296.461.146.692-.319.489-.873.727-1.693.727-1.346 0-2-.654-2-2 0-.82.237-1.374.727-1.693.232-.149.542-.085.692.146s.086.541-.146.692c-.075.049-.273.178-.273.855zm7 0c0 1.346.654 2 2 2s2-.654 2-2-.654-2-2-2-2 .654-2 2zm3 0c0 .794-.206 1-1 1s-1-.206-1-1 .206-1 1-1 1 .206 1 1zm5.5 3c.276 0 .5-.224.5-.5s-.224-.5-.5-.5c-.482 0-1.8-.072-2.579-.367.05-.509.079-1.047.079-1.633 0-.58-.032-1.118-.084-1.63.778-.298 2.101-.37 2.584-.37.276 0 .5-.224.5-.5s-.224-.5-.5-.5c-.075 0-1.607.006-2.728.359-.176-.924-.456-1.722-.852-2.396.18.024.373.036.58.036 1.706 0 2.5-.794 2.5-2.5s-.794-2.5-2.5-2.5-2.5.794-2.5 2.5c0 .207.013.4.036.58-.673-.396-1.472-.676-2.396-.852.353-1.121.359-2.653.359-2.728 0-.276-.224-.5-.5-.5s-.5.224-.5.5c0 .484-.072 1.807-.37 2.584-.512-.052-1.05-.084-1.63-.084-.585 0-1.124.029-1.633.079-.296-.779-.367-2.097-.367-2.579 0-.276-.224-.5-.5-.5s-.5.224-.5.5c0 .075.007 1.596.356 2.716-.935.173-1.719.459-2.389.854.022-.176.033-.364.033-.569 0-1.706-.794-2.5-2.5-2.5-.624 0-1.107.1-1.485.308l-1.16-1.162c-.195-.195-.512-.195-.707 0s-.195.512 0 .707l20.999 21.001c.195.195.512.195.707 0s.195-.512 0-.707l-1.162-1.162c.209-.378.309-.861.309-1.484 0-1.706-.794-2.5-2.5-2.5-.205 0-.393.011-.569.033.394-.67.68-1.455.853-2.389 1.12.349 2.641.356 2.716.356zm-3-12c1.149 0 1.5.351 1.5 1.5s-.351 1.5-1.5 1.5-1.5-.351-1.5-1.5.351-1.5 1.5-1.5zm-15 0c1.149 0 1.5.351 1.5 1.5 0 .286-.025.523-.076.717l-2.141-2.141c.194-.051.431-.076.717-.076zm16.5 16.5c0 .285-.025.523-.076.717l-2.141-2.141c.194-.051.431-.076.717-.076 1.149 0 1.5.351 1.5 1.5zm-3.268-2.475-10.756-10.756c1.088-.85 2.729-1.269 5.024-1.269 5.103 0 7 1.897 7 7 0 2.295-.418 3.937-1.268 5.025z"/></svg>