<?xml version="1.0" encoding="UTF-8"?>
<svg xmlns="http://www.w3.org/2000/svg" id="Layer_1" data-name="Layer 1" viewBox="0 0 24 24">
  <path d="M12,1C6.891,1,1.026,2.25,1.026,12c0,7.71,3.282,11,10.974,11,5.109,0,10.974-1.25,10.974-11,0-7.71-3.282-11-10.974-11Zm-.024,11.547c1.404,.648,3.082,1.253,4.813,1.253,1.749,0,3.552-.619,5.176-2.436,.005,.208,.008,.42,.008,.636,0,.975-.055,1.871-.167,2.691-3.816,3.755-9.936,3.896-13.861,.366,.895-.974,2.227-1.79,4.03-2.51Zm9.898-2.671c-1.618,2.269-3.506,3.204-5.991,2.866,2.364-2.922,2.457-7.224,.29-10.283,3.51,.919,5.281,3.261,5.701,7.417ZM14.624,2.16c2.768,2.824,2.817,7.505,.132,10.354-.706-.188-1.456-.464-2.258-.828-.044-3.323-.849-7.55-6.237-8.668,1.478-.694,3.375-1.017,5.739-1.017,.949,0,1.823,.053,2.624,.16ZM4.939,3.822c2.284,.247,3.918,.976,4.984,2.289-3.718,.525-6.721,3.119-7.888,6.517-.005-.206-.008-.415-.008-.628,0-3.954,.896-6.605,2.913-8.178Zm-2.414,12.516c0-.008,0-.016,0-.024-.289-4.748,3.287-8.857,8.011-9.268,.62,1.181,.928,2.705,.961,4.615-3.333,1.344-6.791,3.617-5.777,9.041-1.598-.918-2.637-2.347-3.194-4.364Zm9.475,5.662c-2.056,0-3.758-.245-5.14-.765-.558-2.209-.43-3.954,.474-5.383,2.074,1.84,4.695,2.757,7.322,2.757,2.412,0,4.829-.773,6.831-2.315-1.087,4.001-4.052,5.706-9.487,5.706Z"/>
</svg>
