<svg id="Layer_1" viewBox="0 0 24 24" xmlns="http://www.w3.org/2000/svg" data-name="Layer 1"><path d="m12.189 3.118c-.418-.196-.851-.148-1.128.159-.714.888-3.068 3.542-4.064 3.956l-4.11.391c-.145.014-.276.089-.36.208-.967 1.358-1.526 2.476-1.526 4.168s.56 2.81 1.526 4.168c.084.118.215.194.36.208l4.11.391c.997.415 3.35 3.069 4.059 3.949.282.33.749.352 1.134.167 1.397-.666 2.811-3.931 2.811-8.882s-1.414-8.216-2.811-8.882zm-.408 16.906c-.464-.562-3.135-3.737-4.503-4.22-.039-.013-.079-.022-.119-.026l-3.949-.375c-.803-1.155-1.21-2.034-1.21-3.402s.407-2.247 1.21-3.402l3.949-.376c.041-.004.081-.013.119-.026 1.338-.472 3.925-3.522 4.47-4.18.004.002.008.003.013.006.782.377 2.239 3.1 2.239 7.979s-1.45 7.589-2.219 8.024zm11.073-5.377c.195.195.195.512 0 .707s-.512.195-.707 0l-2.646-2.646-2.646 2.646c-.195.195-.512.195-.707 0s-.195-.512 0-.707l2.646-2.646-2.646-2.646c-.195-.195-.195-.512 0-.707s.512-.195.707 0l2.646 2.646 2.646-2.646c.195-.195.512-.195.707 0s.195.512 0 .707l-2.646 2.646z"/></svg>