<svg id="Layer_1" viewBox="0 0 24 24" xmlns="http://www.w3.org/2000/svg" data-name="Layer 1"><path d="m16.982 9.828c-.181-.208-.158-.524.05-.705.209-.182.523-.159.706.05 1.627 1.876 1.675 3.617.148 5.479-.176.215-.491.244-.704.07-.213-.175-.244-.49-.069-.704 1.225-1.495 1.188-2.67-.131-4.19zm5.871 12.319c.195.195.195.512 0 .707s-.512.195-.707 0l-21-21c-.195-.195-.195-.512 0-.707s.512-.195.707 0l5.716 5.715c1.253-.948 3.14-3.148 3.492-3.586.277-.304.706-.353 1.123-.161 1.401.668 2.815 3.934 2.815 8.885 0 .757-.035 1.493-.1 2.193l3.867 3.867c2.201-2.234 3.234-4.163 3.233-6.057 0-1.93-1.064-3.894-3.354-6.183-.195-.195-.195-.512 0-.707s.512-.195.707 0c2.489 2.488 3.647 4.678 3.646 6.89 0 2.174-1.125 4.328-3.527 6.763l3.38 3.38zm-14.567-14.568 5.678 5.678c.022-.411.036-.829.036-1.257 0-4.883-1.46-7.607-2.241-7.98l-.007-.009c-.424.509-2.133 2.518-3.466 3.569zm5.627 9.443c-.262-.082-.543.065-.626.329-.545 1.748-1.208 2.47-1.506 2.673-.457-.553-3.133-3.736-4.504-4.22-.038-.013-.078-.022-.119-.026l-3.948-.375c-.803-1.155-1.21-2.033-1.21-3.402s.407-2.248 1.21-3.402l1.337-.127c.275-.026.477-.27.451-.545s-.286-.481-.545-.45l-1.566.149c-.145.014-.276.089-.36.208-.967 1.357-1.526 2.475-1.526 4.168s.56 2.811 1.526 4.168c.084.118.216.194.36.208l4.109.391c.998.415 3.318 3.031 4.062 3.952.283.327.747.348 1.131.164.78-.372 1.529-1.55 2.054-3.233.082-.264-.065-.544-.329-.626z"/></svg>