<?xml version="1.0" encoding="UTF-8"?>
<svg xmlns="http://www.w3.org/2000/svg" id="Layer_1" data-name="Layer 1" viewBox="0 0 24 24">
  <path d="M20.073,5.725c-.195-.195-.512-.195-.707,0s-.195,.512,0,.707c1.749,1.747,2.635,3.626,2.634,5.585,0,2.92-1.981,4.901-2.633,5.551-.195,.195-.195,.512,0,.708,.098,.098,.227,.146,.354,.146s.256-.049,.354-.146c.724-.723,2.926-2.924,2.926-6.259,0-2.234-.983-4.351-2.927-6.292Z"/>
  <path d="M17.957,8.734c-.195-.195-.512-.195-.707,0s-.195,.512,0,.707c.994,.993,1.445,1.889,1.38,2.739-.057,.738-.495,1.494-1.38,2.378-.195,.195-.195,.512,0,.707,.098,.098,.226,.146,.354,.146s.256-.049,.354-.146c1.063-1.062,1.594-2.019,1.67-3.009,.09-1.158-.457-2.31-1.67-3.522Z"/>
  <path d="M12.938,2.881c-.379-.178-.759-.148-1.047,.086-.029,.024-.056,.051-.079,.081-1.55,2-3.608,4.176-4.194,4.227l-4.718,.356c-.147,.011-.283,.088-.369,.209-1.017,1.43-1.532,2.465-1.531,4.159,0,1.714,.537,2.797,1.531,4.195,.086,.121,.222,.198,.369,.209l4.712,.355c.593,.052,2.651,2.21,4.202,4.194,.022,.029,.049,.056,.077,.079,.164,.134,.358,.201,.565,.201,.156,0,.318-.038,.481-.115,1.2-.57,2.891-3.774,2.891-9.123s-1.69-8.546-2.891-9.116Zm-.4,17.375c-.889-1.129-3.55-4.379-4.844-4.493l-4.482-.338c-.821-1.182-1.213-2.036-1.212-3.425,0-1.37,.374-2.186,1.212-3.388l4.488-.339c1.276-.112,3.897-3.324,4.812-4.494,.609,.213,2.317,2.89,2.317,8.225,0,5.452-1.788,8.127-2.291,8.252Z"/>
</svg>
