<svg id="Layer_1" viewBox="0 0 24 24" xmlns="http://www.w3.org/2000/svg" data-name="Layer 1"><path d="m13.171 3.109c-.383-.176-.76-.145-1.093.139-.481.521-3.595 3.611-4.69 4.064l-4.523.386c-.146.013-.28.089-.365.208-.949 1.334-1.499 2.432-1.499 4.094s.55 2.76 1.499 4.094c.085.119.219.195.365.208l4.523.386c1.096.453 4.208 3.542 4.662 4.03.155.19.397.284.641.285.155 0 .32-.038.485-.115 1.389-.662 2.824-4.168 2.824-8.888s-1.436-8.226-2.829-8.891zm-.401 16.924c-.55-.569-3.779-3.843-5.104-4.31-.101-.053-4.368-.374-4.485-.398-.783-1.129-1.181-1.988-1.181-3.325s.397-2.196 1.181-3.325c.119-.025 4.384-.345 4.485-.398 1.3-.459 4.434-3.618 5.07-4.275.761.363 2.264 3.176 2.264 7.999s-1.493 7.622-2.23 8.033zm7.23-8.033c0 1.092-.558 2.157-1.754 3.354-.195.195-.512.195-.707 0s-.195-.512 0-.707c.997-.996 1.461-1.838 1.461-2.646s-.464-1.65-1.461-2.646c-.195-.195-.195-.512 0-.707s.512-.195.707 0c1.196 1.196 1.754 2.262 1.754 3.354z"/></svg>