<svg id="Layer_1" viewBox="0 0 24 24" xmlns="http://www.w3.org/2000/svg" data-name="Layer 1"><path d="m22.46 12.908c-.046-.184-.191-.326-.376-.367-.053-.012-1.262-.277-3.13-.54.029-.708.046-1.497.046-2.376 0-4.868-.529-7.568-.551-7.681-.04-.198-.194-.353-.392-.393-.113-.022-2.794-.552-6.057-.552s-5.944.529-6.057.552c-.198.04-.353.194-.392.393-.022.112-.551 2.812-.551 7.681 0 .879.018 1.668.046 2.376-1.868.264-3.076.528-3.13.54-.185.041-.331.184-.376.367-.022.088-.54 2.184-.54 4.321s.518 4.252.54 4.341c.045.185.191.327.377.368.048.011 4.839 1.062 10.083 1.062s10.036-1.051 10.083-1.062c.186-.041.332-.184.377-.368.022-.089.54-2.205.54-4.341s-.518-4.233-.54-4.321zm-15.985-10.436c.814-.14 3.014-.472 5.525-.472s4.71.332 5.525.472c.138.857.475 3.347.475 7.153 0 3.905-.354 6.058-.481 6.706-1.6-.181-3.518-.331-5.519-.331s-3.918.15-5.519.331c-.127-.649-.481-2.802-.481-6.706 0-3.807.337-6.296.475-7.153zm15.083 18.555c-1.127.226-5.182.974-9.558.974s-8.431-.748-9.558-.974c-.139-.65-.442-2.241-.442-3.797s.302-3.132.441-3.776c.459-.092 1.408-.272 2.656-.451.111 1.814.289 2.937.388 3.451-.377.05-.738.099-1.06.148-.273.041-.461.295-.42.568.042.273.299.466.569.42 1.789-.269 4.528-.589 7.426-.589s5.637.32 7.426.589c.267.043.529-.146.569-.42.041-.273-.147-.527-.42-.568-.321-.048-.682-.098-1.06-.148.099-.514.277-1.637.388-3.451 1.249.179 2.197.359 2.656.451.139.645.441 2.222.441 3.776s-.303 3.146-.442 3.797zm-13.459-11.728c-.165-.222-.119-.535.102-.7s.534-.119.7.103c.681.914 1.435 1.67 2.195 2.203 1.812-1.191 3.253-3.21 3.956-4.627.123-.247.423-.347.67-.226.248.123.349.423.226.671-.797 1.605-2.481 3.933-4.603 5.206-.162.098-.365.095-.525-.007-.95-.602-1.891-1.509-2.721-2.623z"/></svg>