<svg id="Layer_1" viewBox="0 0 24 24" xmlns="http://www.w3.org/2000/svg" data-name="Layer 1"><path d="m17.287 7.243c-.024-.003-2.387-.243-5.287-.243s-5.263.24-5.287.243c-.209.021-.383.172-.434.376-.012.045-.28 1.132-.28 2.381s.268 2.336.28 2.381c.051.205.226.356.437.377.025.002 2.542.242 5.284.242s5.259-.24 5.283-.242c.211-.021.386-.172.438-.377.011-.045.279-1.132.279-2.381s-.269-2.336-.279-2.381c-.052-.204-.225-.354-.434-.376zm-.464 4.551c-.786.064-2.738.206-4.823.206s-4.037-.142-4.823-.206c-.074-.391-.177-1.068-.177-1.794s.104-1.405.178-1.796c.76-.065 2.633-.204 4.822-.204s4.062.139 4.822.204c.074.391.178 1.069.178 1.796s-.104 1.403-.177 1.794zm-6.073 4.206c0 .414-.336.75-.75.75s-.75-.336-.75-.75.336-.75.75-.75.75.336.75.75zm4 0c0 .414-.336.75-.75.75s-.75-.336-.75-.75.336-.75.75-.75.75.336.75.75zm5.36-11.797c-.055-.129-.161-.229-.294-.276-.107-.038-2.69-.927-7.816-.927-.718 0-1.381.019-2 .049v-1.549c0-.276-.224-.5-.5-.5s-.5.224-.5.5v1.611c-1.241.095-2.241.236-3 .377v-1.988c0-.276-.224-.5-.5-.5s-.5.224-.5.5v2.198c-.511.123-.783.217-.816.229-.133.047-.24.147-.294.276-.036.086-.89 2.143-.89 5.797s.854 5.711.89 5.797c.055.13.163.23.296.277.015.005.319.109.903.247.226 3.557.81 5.358.836 5.436.044.133.142.241.27.299.086.039 2.146.944 5.806.944s5.721-.905 5.807-.944c.128-.058.226-.166.27-.299.025-.078.61-1.879.835-5.436.584-.138.889-.242.903-.247.134-.047.241-.147.296-.277.037-.086.89-2.143.89-5.797s-.853-5.711-.89-5.797zm-.844 10.993c-.19.055-.504.138-.936.229-.222.047-.384.236-.396.462-.16 2.949-.584 4.742-.745 5.336-.588.214-2.4.776-5.19.776s-4.603-.562-5.19-.776c-.161-.593-.585-2.387-.745-5.336-.013-.226-.175-.415-.396-.462-.431-.092-.745-.175-.936-.229-.203-.592-.733-2.406-.733-5.196s.531-4.604.733-5.196c.71-.204 3.15-.804 7.267-.804s6.557.6 7.267.804c.203.592.733 2.406.733 5.196s-.53 4.604-.733 5.196z"/></svg>