<svg id="Layer_1" viewBox="0 0 24 24" xmlns="http://www.w3.org/2000/svg" data-name="Layer 1"><path d="m21.589 18.146c.092-.822.411-3.821.411-6.146 0-6.313-1.104-9.486-1.151-9.618-.053-.147-.171-.262-.321-.309-.139-.044-3.459-1.073-7.975-1.073-1.538 0-3.428.121-4.598.296-.151.022-.284.112-.36.245-1.158 2.017-2.648 4.836-3.906 8.779-2.658 8.331-2.689 12.027-2.689 12.18 0 .275.224.499.499.5.275 0 .499-.224.5-.499 0-.036.045-3.619 2.525-11.501h16.458c.007.332.018.648.018 1 0 2.224-.309 5.172-.402 6.006-1.723-.058-2.613.754-2.598 2.494 0 1.706.794 2.5 2.5 2.5s2.5-.794 2.5-2.5c0-1.288-.455-2.055-1.411-2.354zm-16.737-8.146c1.129-3.368 2.382-5.807 3.489-7.749 1.125-.147 2.843-.251 4.212-.251 3.672 0 6.587.724 7.429.956.213.72.815 3.08.976 7.044zm15.648 12c-1.149 0-1.5-.351-1.5-1.5s.351-1.5 1.5-1.5 1.5.351 1.5 1.5-.351 1.5-1.5 1.5z"/></svg>