<svg id="Layer_1" viewBox="0 0 24 24" xmlns="http://www.w3.org/2000/svg" data-name="Layer 1"><path d="m16.2 4.9c-.221-.166-.266-.479-.101-.7.88-1.174 1.923-2.217 3.101-3.1.178-.134.422-.134.6 0 1.178.883 2.221 1.926 3.101 3.1.165.221.12.534-.101.7-.219.165-.533.123-.7-.1-.612-.817-1.329-1.547-2.1-2.217v5.918c0 .276-.224.5-.5.5s-.5-.224-.5-.5v-5.918c-.771.671-1.487 1.4-2.1 2.217-.167.223-.479.265-.7.1zm1.05 11.1c0 .414.336.75.75.75s.75-.336.75-.75-.336-.75-.75-.75-.75.336-.75.75zm5.564-5.549c-.027-.275-.275-.466-.547-.449-.274.027-.476.271-.449.546.121 1.228.182 2.389.182 3.451 0 3.105-.527 6.243-.713 7.253-1.13.183-4.96.747-9.287.747s-8.151-.563-9.284-.747c-.185-1.039-.716-4.298-.716-7.415 0-1.464.097-3.31.224-4.873.428.309 1.016.457 1.754.536 1.728.23 4.996.5 8.522.5 1.317 0 2.672-.037 4.026-.109.276-.015.487-.25.473-.526-.014-.275-.245-.491-.525-.473-4.913.263-10.026-.071-12.376-.384-1.459-.156-1.653-.439-1.653-1.482-.008-.208.036-.41.049-.603.118-.566.5-.789 1.613-.912 1.854-.233 4.729-.511 7.893-.511.505 0 1.001.007 1.487.02.268.015.506-.211.513-.487s-.211-.506-.487-.513c-.494-.013-1-.02-1.513-.02-3.216 0-6.135.282-8.011.518-1.319.145-2.209.518-2.463 1.728-.296 1.749-.51 4.993-.527 7.591 0 3.854.764 7.782.797 7.947.039.202.198.358.4.395.046.008 4.568.82 9.803.82s9.757-.812 9.803-.82c.2-.036.359-.191.4-.391.032-.159.797-3.932.797-7.788 0-1.095-.063-2.289-.186-3.549z"/></svg>