<svg id="Layer_1" viewBox="0 0 24 24" xmlns="http://www.w3.org/2000/svg" data-name="Layer 1"><path d="m10.972 13.694c-.026-.008-.65-.194-1.472-.194-.828 0-1.447.186-1.474.194-.162.049-.288.179-.335.342-.008.028-.191.688-.191 1.463s.184 1.435.191 1.463c.047.165.173.294.337.343.026.008.65.194 1.472.194.828 0 1.447-.186 1.474-.194.162-.049.288-.179.335-.342.008-.028.191-.688.191-1.463s-.184-1.435-.191-1.463c-.047-.165-.173-.294-.337-.343zm-.563 2.719c-.424.082-1.387.083-1.816 0-.043-.223-.092-.556-.092-.912s.049-.69.092-.913c.426-.082 1.388-.082 1.816 0 .043.223.092.556.092.912s-.049.69-.092.913z"/><path d="m10.972 19.194c-.026-.008-.65-.194-1.472-.194-.828 0-1.447.186-1.474.194-.162.049-.288.179-.335.342-.008.028-.191.688-.191 1.463s.184 1.435.191 1.463c.047.165.173.294.337.343.026.008.65.194 1.472.194.828 0 1.447-.186 1.474-.194.162-.049.288-.179.335-.342.008-.028.191-.688.191-1.463s-.184-1.435-.191-1.463c-.047-.165-.173-.294-.337-.343zm-.563 2.719c-.424.083-1.387.083-1.816 0-.043-.223-.092-.556-.092-.912s.049-.69.092-.913c.426-.082 1.388-.082 1.816 0 .043.223.092.556.092.912s-.049.69-.092.913z"/><path d="m15.972 19.194c-.026-.008-.65-.194-1.472-.194-.828 0-1.447.186-1.474.194-.162.049-.288.179-.335.342-.008.028-.191.688-.191 1.463s.184 1.435.191 1.463c.047.165.173.294.337.343.026.008.65.194 1.472.194.828 0 1.447-.186 1.474-.194.162-.049.288-.179.335-.342.008-.028.191-.688.191-1.463s-.184-1.435-.191-1.463c-.047-.165-.173-.294-.337-.343zm-.563 2.719c-.424.083-1.388.083-1.816 0-.043-.223-.092-.556-.092-.912s.049-.69.092-.913c.425-.082 1.389-.082 1.816 0 .043.223.092.556.092.912s-.049.69-.092.913z"/><path d="m21.474 6.538c-.034-.074-.087-.139-.152-.188-.732-.547-7.211-5.35-9.321-5.35s-8.59 4.802-9.322 5.35c-.065.049-.118.114-.152.188-.062.133-1.526 3.312-1.526 8.612 0 2.211.481 7.188.502 7.398.025.256.24.452.498.452h3.5c.146 0 .284-.064.38-.175.095-.11.137-.257.114-.401-.003-.021-.319-2.105-.319-5.174 0-2.819.507-5.072.708-5.856.809-.122 3.087-.428 5.617-.428s4.81.306 5.618.428c.201.779.707 3.016.707 5.856 0 3.069-.316 5.153-.319 5.174-.022.144.02.291.114.401.096.111.234.175.38.175h3.5c.258 0 .473-.195.498-.452.021-.211.502-5.196.502-7.398 0-5.301-1.464-8.479-1.526-8.612zm.071 15.462h-2.476c.099-.836.256-2.529.256-4.75 0-3.688-.799-6.335-.832-6.446-.056-.18-.207-.314-.393-.346-.115-.02-2.863-.492-6.101-.492s-5.984.472-6.101.492c-.186.032-.338.167-.393.348-.034.112-.832 2.788-.832 6.445 0 2.221.157 3.914.256 4.75h-2.474c-.12-1.3-.455-5.068-.455-6.85 0-4.53 1.136-7.487 1.384-8.079 2.679-1.995 7.294-5.071 8.616-5.071s5.937 3.077 8.616 5.071c.248.592 1.384 3.549 1.384 8.079 0 1.775-.335 5.549-.455 6.85z"/></svg>