<svg id="Layer_1" viewBox="0 0 24 24" xmlns="http://www.w3.org/2000/svg" data-name="Layer 1"><path d="m19.837 2.38c-.05-.139-.159-.248-.297-.299-.119-.044-2.97-1.081-7.54-1.081s-7.421 1.037-7.541 1.081c-.138.051-.247.161-.297.299-.047.132-1.163 3.305-1.163 9.62s1.115 9.487 1.163 9.62c.05.139.159.248.297.299.119.044 2.97 1.081 7.541 1.081s7.421-1.037 7.54-1.081c.138-.051.247-.161.297-.299.047-.132 1.163-3.305 1.163-9.62s-1.116-9.487-1.163-9.62zm-.87 18.676c-.747.236-3.299.944-6.967.944s-6.22-.708-6.967-.944c-.245-.818-1.033-3.861-1.033-9.056s.788-8.238 1.033-9.056c.748-.236 3.3-.944 6.967-.944s6.22.708 6.967.944c.245.818 1.033 3.861 1.033 9.056s-.788 8.238-1.033 9.056zm-6.967-12.056c-3.505 0-5 1.495-5 5s1.495 5 5 5 5-1.495 5-5-1.495-5-5-5zm0 1c2.63 0 3.743.84 3.956 3.108-.133.053-.844 1.104-2.192.85-.354-.073-1.625-.438-1.626-.438 0 0-1.329-.38-1.698-.457-1.045-.22-1.881.167-2.42.545.098-2.638 1.169-3.608 3.98-3.608zm0 8c-2.63 0-3.743-.84-3.956-3.108.17-.094.858-1.091 2.192-.85.354.073 1.625.438 1.626.438.235.053 1.786.56 2.305.52.764 0 1.383-.303 1.813-.603-.099 2.635-1.171 3.603-3.98 3.603zm-4.75-13c0-.414.336-.75.75-.75s.75.336.75.75-.336.75-.75.75-.75-.336-.75-.75zm3 0c0-.414.336-.75.75-.75s.75.336.75.75-.336.75-.75.75-.75-.336-.75-.75z"/></svg>