<svg id="Layer_1" viewBox="0 0 24 24" xmlns="http://www.w3.org/2000/svg" data-name="Layer 1"><path d="m13.75 9c-.722 0-1.344.291-1.75.763-.406-.472-1.028-.763-1.75-.763-1.241 0-2.25 1.018-2.25 2.268 0 2.307 2.104 3.879 3.008 4.447.602.38 1.381.38 1.983 0 .904-.568 3.009-2.141 3.009-4.447 0-1.25-1.01-2.268-2.25-2.268zm-1.292 5.869c-.278.176-.638.176-.917 0-.596-.375-2.541-1.743-2.541-3.602 0-.699.561-1.268 1.25-1.268.621 0 1.25.391 1.25 1.137 0 .276.224.5.5.5s.5-.224.5-.5c0-.746.629-1.137 1.25-1.137.689 0 1.25.568 1.25 1.268 0 1.858-1.945 3.227-2.542 3.602zm6.719-10.871c-.05-.168-.183-.299-.353-.344-.05-.013-.676-.175-1.821-.335l-.004-1.821c0-.275-.225-.499-.5-.499-.276 0-.5.225-.499.501l.003 1.697c-1.058-.111-2.399-.198-4.003-.198-1.58 0-2.927.091-3.997.204l-.003-1.705c0-.275-.224-.499-.5-.499-.276 0-.5.225-.499.501l.003 1.825c-1.126.157-1.768.313-1.82.326-.173.043-.309.175-.359.346-.034.115-.824 2.89-.824 8.002s.79 7.887.824 8.002c.05.171.186.303.359.346.052.013.692.169 1.814.325l.003 1.828c0 .275.224.499.5.499.276 0 .5-.225.499-.501l-.003-1.704c1.071.114 2.42.205 4.003.205s2.926-.091 3.997-.204l.003 1.705c0 .275.225.499.5.499.276 0 .5-.225.499-.501l-.004-1.825c1.127-.157 1.769-.313 1.821-.326.173-.043.31-.175.359-.346.033-.115.823-2.89.823-8.002s-.79-7.887-.823-8.002zm-.889 15.442c-.771.158-3.043.56-6.288.56s-5.517-.401-6.288-.56c-.193-.818-.712-3.391-.712-7.44s.519-6.622.712-7.44c.771-.158 3.042-.56 6.288-.56 3.343 0 5.541.397 6.287.557.192.814.713 3.389.713 7.443s-.519 6.622-.712 7.44z"/></svg>