<svg id="Layer_1" viewBox="0 0 24 24" xmlns="http://www.w3.org/2000/svg" data-name="Layer 1"><path d="m14.854 14.146c.195.195.195.512 0 .707s-.512.195-.707 0l-2.5-2.5c-.094-.094-.146-.221-.146-.354v-4.499c0-.276.224-.5.5-.5s.5.224.5.5v4.293l2.354 2.354zm5.146-2.146c0 5.112-.79 7.887-.823 8.002-.05.171-.187.303-.359.346-.052.013-.694.17-1.821.326l.004 1.825c0 .276-.223.5-.499.501-.275 0-.499-.224-.5-.499l-.003-1.705c-1.07.114-2.417.204-3.997.204s-2.932-.091-4.003-.205l.003 1.704c0 .276-.223.5-.499.501-.275 0-.499-.224-.5-.499l-.004-1.828c-1.122-.156-1.762-.312-1.814-.325-.173-.043-.31-.175-.359-.346-.033-.115-.823-2.89-.823-8.002s.79-7.886.823-8.002c.05-.171.187-.302.359-.345.052-.013.694-.17 1.821-.327l-.004-1.825c0-.276.223-.5.499-.501.275 0 .499.223.5.499l.003 1.705c1.07-.114 2.417-.204 3.997-.204 1.604 0 2.945.087 4.003.198l-.003-1.697c0-.276.223-.5.499-.501.275 0 .499.223.5.499l.004 1.82c1.144.159 1.771.321 1.821.335.17.045.303.175.353.344.033.116.823 2.889.823 8.002zm-1 0c0-4.055-.521-6.628-.713-7.443-.746-.159-2.944-.557-6.287-.557-3.245 0-5.518.401-6.288.56-.193.818-.712 3.39-.712 7.44s.519 6.622.712 7.44c.771.158 3.043.56 6.288.56s5.518-.401 6.288-.56c.193-.818.712-3.391.712-7.44z"/></svg>