<svg id="Layer_1" viewBox="0 0 24 24" xmlns="http://www.w3.org/2000/svg" data-name="Layer 1"><path d="m19.177 3.998c-.05-.168-.183-.299-.353-.344-.05-.013-.676-.175-1.821-.335l-.004-1.82c0-.276-.225-.499-.5-.499-.276 0-.5.225-.499.501l.003 1.697c-1.058-.111-2.399-.198-4.003-.198-1.58 0-2.926.091-3.997.204l-.003-1.705c0-.276-.225-.499-.5-.499-.276 0-.5.225-.499.501l.004 1.825c-1.127.157-1.769.313-1.821.327-.173.043-.31.174-.359.345-.033.116-.823 2.889-.823 8.002s.79 7.886.823 8.002c.05.171.187.302.359.345.052.013.692.169 1.814.326l.004 1.828c0 .276.225.499.5.499.276 0 .5-.225.499-.501l-.003-1.704c1.072.114 2.42.205 4.003.205s2.926-.091 3.997-.204l.003 1.705c0 .276.225.499.5.499.276 0 .5-.225.499-.501l-.004-1.825c1.127-.157 1.769-.313 1.821-.327.173-.043.31-.174.359-.345.033-.116.823-2.889.823-8.002s-.79-7.886-.823-8.002zm-.889 15.442c-.771.158-3.043.56-6.288.56s-5.518-.401-6.288-.56c-.193-.818-.712-3.39-.712-7.44s.519-6.622.712-7.44c.771-.158 3.043-.56 6.288-.56 3.343 0 5.541.397 6.287.557.192.815.713 3.388.713 7.443s-.519 6.622-.712 7.44zm-8.534-7.437c0 .414-.336.75-.75.75s-.75-.336-.75-.75.336-.75.75-.75.75.336.75.75zm3 0c0 .414-.336.75-.75.75s-.75-.336-.75-.75.336-.75.75-.75.75.336.75.75zm3 0c0 .414-.336.75-.75.75s-.75-.336-.75-.75.336-.75.75-.75.75.336.75.75zm-6 4c0 .414-.336.75-.75.75s-.75-.336-.75-.75.336-.75.75-.75.75.336.75.75zm3 0c0 .414-.336.75-.75.75s-.75-.336-.75-.75.336-.75.75-.75.75.336.75.75zm3 0c0 .414-.336.75-.75.75s-.75-.336-.75-.75.336-.75.75-.75.75.336.75.75zm.244-8.306c-.025.275-.292.477-.543.453-2.176-.197-4.66-.203-6.909.006-.27.026-.519-.176-.544-.452-.025-.275.177-.519.452-.544 2.307-.214 4.858-.209 7.091-.006.275.025.479.269.453.543z"/></svg>