<svg id="Layer_1" viewBox="0 0 24 24" xmlns="http://www.w3.org/2000/svg" data-name="Layer 1"><path d="m23 20.512c-.022.924-.457 2.476-3.124 2.488-1.208-.005-2.103-.356-2.619-.994-.437.564-1.223.988-2.63.994-1.409-.007-2.195-.43-2.633-.994-.431.547-1.207.988-2.618.994-1.213-.005-2.111-.359-2.626-1.001-.429.551-1.206.995-2.624 1.001-1.953-.009-3.092-.916-3.128-2.488-.006-.276.213-.505.488-.512.284.015.505.213.512.488.009.372.034 1.502 2.128 1.512 1.849-.009 2.102-.846 2.122-1.487.015-.267.205-.508.488-.513.286-.006.512.241.513.518.01.396.079 1.472 2.127 1.482 1.872-.009 2.109-.867 2.124-1.512.021-.255.212-.483.487-.488.281-.009.492.224.512.488.017.699.273 1.503 2.128 1.512 1.815-.009 2.098-.75 2.122-1.482.006-.28.222-.529.514-.518.282.007.49.256.487.525.011.4.089 1.465 2.126 1.475 1.872-.009 2.109-.867 2.124-1.512.007-.276.241-.478.512-.488.276.007.495.235.488.512zm-18-3.012v-13c0-2.421 1.079-3.5 3.5-3.5.276 0 .5.224.5.5s-.224.5-.5.5c-1.869 0-2.5.631-2.5 2.5v3.03c.955-.2 2.974-.53 6-.53s5.045.33 6 .53v-3.03c0-2.421 1.079-3.5 3.5-3.5.276 0 .5.224.5.5s-.224.5-.5.5c-1.869 0-2.5.631-2.5 2.5v13c0 .276-.224.5-.5.5s-.5-.224-.5-.5v-2.947c-.778-.174-2.831-.553-6-.553s-5.222.379-6 .553v2.947c0 .276-.224.5-.5.5s-.5-.224-.5-.5zm1-8.947v4.977c.955-.2 2.974-.53 6-.53s5.045.33 6 .53v-4.977c-.778-.174-2.831-.553-6-.553s-5.222.379-6 .553z"/></svg>