<?xml version="1.0" encoding="UTF-8"?>
<svg xmlns="http://www.w3.org/2000/svg" id="Layer_1" data-name="Layer 1" viewBox="0 0 24 24">
  <path d="M18.941,7.188c-.709-.701-2.062-.582-2.214-.563-.234,.024-.42,.21-.444,.445-.017,.151-.136,1.505,.569,2.204,.32,.318,.672,.447,1.008,.447,.406,0,.789-.189,1.064-.464,.141-.14,.469-.523,.469-1.062,0-.255-.078-.636-.452-1.007Zm-.722,1.36c-.234,.217-.447,.229-.663,.016-.193-.191-.268-.604-.286-.954,.353,.018,.769,.092,.968,.289,.155,.154,.261,.391-.019,.649Z"/>
  <path d="M17.257,11.928c-.709-.701-2.062-.582-2.214-.563-.234,.024-.42,.21-.444,.445-.017,.151-.136,1.505,.569,2.204,.32,.318,.672,.447,1.008,.447,.406,0,.789-.189,1.064-.464,.141-.14,.469-.523,.469-1.062,0-.255-.078-.636-.452-1.007Zm-.722,1.36c-.234,.217-.447,.229-.663,.016-.193-.191-.268-.604-.286-.954,.353,.018,.769,.092,.968,.289,.155,.154,.261,.391-.019,.649Z"/>
  <path d="M14.05,15.141c-.709-.701-2.062-.582-2.214-.563-.234,.024-.42,.21-.444,.445-.017,.151-.136,1.505,.569,2.204,.32,.318,.672,.447,1.008,.447,.406,0,.789-.189,1.064-.464,.141-.14,.469-.523,.469-1.062,0-.255-.078-.636-.452-1.007Zm-.722,1.36c-.234,.217-.447,.229-.663,.016-.193-.191-.268-.604-.286-.954,.353,.018,.769,.092,.968,.289,.155,.154,.261,.391-.019,.649Z"/>
  <path d="M9.379,16.894c-.709-.701-2.062-.582-2.214-.563-.234,.024-.42,.21-.444,.445-.017,.151-.136,1.505,.569,2.204,.32,.318,.672,.447,1.008,.447,.406,0,.789-.189,1.064-.464,.141-.14,.469-.523,.469-1.062,0-.255-.078-.636-.452-1.007Zm-.722,1.36c-.234,.217-.447,.229-.663,.016-.193-.191-.268-.604-.286-.954,.353,.018,.769,.092,.968,.289,.155,.154,.261,.391-.019,.649Z"/>
  <path d="M19.524,1.147c-.165-.165-.423-.195-.622-.07-.046,.029-4.693,2.989-9.731,8.06C4.131,14.208,1.185,18.891,1.156,18.938c-.123,.196-.095,.452,.069,.617,2.11,2.124,5.571,3.444,9.032,3.444h0c2.415,0,5.936-.646,8.991-3.721,5.666-5.702,3.979-14.403,.274-18.132Zm-.983,17.427c-2.813,2.831-6.057,3.426-8.282,3.426h0c-3,0-6.102-1.118-8.033-2.872,.765-1.153,3.477-5.08,7.655-9.286,4.172-4.198,8.062-6.921,9.215-7.693,3.212,3.58,4.533,11.306-.554,16.426Z"/>
</svg>
