<?xml version="1.0" encoding="UTF-8"?>
<svg xmlns="http://www.w3.org/2000/svg" id="Layer_1" data-name="Layer 1" viewBox="0 0 24 24">
  <path d="M18.95,14.392c0-1.136-.47-2.006-1.398-2.6,.929-.594,1.398-1.463,1.398-2.594,0-2.225-1.755-4.038-4.235-4.451V2h.36c.276,0,.5-.224,.5-.5s-.224-.5-.5-.5h-6.15c-.276,0-.5,.224-.5,.5s.224,.5,.5,.5h.36v2.746c-2.48,.412-4.235,2.227-4.235,4.452,0,1.123,.475,1.988,1.414,2.583-.939,.594-1.414,1.468-1.414,2.61,0,1.061,.425,1.893,1.265,2.483-.84,.59-1.265,1.431-1.265,2.512,0,3.202,3.714,3.613,6.95,3.613s6.95-.411,6.95-3.613c0-1.073-.42-1.911-1.25-2.5,.83-.589,1.25-1.425,1.25-2.495ZM6.05,9.198c0-1.831,1.591-3.31,3.782-3.515,.257-.024,.453-.24,.453-.498V2h3.43v3.187c0,.258,.196,.474,.453,.498,2.191,.206,3.782,1.684,3.782,3.514,0,1.023-.502,1.669-1.622,2.085H7.721c-1.139-.416-1.671-1.081-1.671-2.085Zm11.9,10.188c0,1.832-1.779,2.613-5.95,2.613-5.273,0-5.95-1.396-5.95-2.613,0-.967,.437-1.59,1.414-2.008h9.07c.979,.419,1.417,1.04,1.417,2.008Zm-1.382-3.008H7.475c-.972-.421-1.426-1.055-1.426-1.987,0-1.043,.516-1.696,1.669-2.108h8.556c1.158,.413,1.675,1.065,1.675,2.108,0,.951-.428,1.568-1.382,1.987Z"/>
</svg>
