<?xml version="1.0" encoding="UTF-8"?>
<svg xmlns="http://www.w3.org/2000/svg" id="Layer_1" data-name="Layer 1" viewBox="0 0 24 24">
  <path d="M22.5,20.132c-.854,0-1.653-.368-2.252-1.037-.191-.213-.555-.213-.746,0-1.197,1.338-3.307,1.338-4.504,0-.191-.213-.555-.213-.746,0-1.197,1.339-3.31,1.337-4.504,0-.189-.213-.557-.213-.746,0-1.195,1.337-3.307,1.339-4.504,0-.191-.213-.555-.213-.746,0-.599,.669-1.398,1.037-2.252,1.037-.276,0-.5,.224-.5,.5s.224,.5,.5,.5c.972,0,1.887-.353,2.625-1.001,1.477,1.297,3.775,1.299,5.25,0,1.475,1.299,3.773,1.297,5.25,0,1.477,1.297,3.773,1.297,5.25,0,.738,.648,1.653,1.001,2.625,1.001,.276,0,.5-.224,.5-.5s-.224-.5-.5-.5Z"/>
  <path d="M1.5,16.805c.972,0,1.887-.353,2.625-1.001,1.477,1.297,3.775,1.299,5.25,0,1.475,1.299,3.773,1.297,5.25,0,1.477,1.297,3.773,1.297,5.25,0,.738,.648,1.653,1.001,2.625,1.001,.276,0,.5-.224,.5-.5s-.224-.5-.5-.5c-.854,0-1.653-.368-2.252-1.037-.191-.213-.555-.213-.746,0-1.197,1.338-3.307,1.338-4.504,0-.191-.213-.555-.213-.746,0-1.197,1.338-3.31,1.338-4.504,0-.189-.213-.557-.213-.746,0-1.195,1.338-3.307,1.338-4.504,0-.191-.213-.555-.213-.746,0-.599,.669-1.398,1.037-2.252,1.037-.276,0-.5,.224-.5,.5s.224,.5,.5,.5Z"/>
  <path d="M11.775,11.995c.07,.036,.147,.054,.225,.054s.154-.018,.225-.054c.089-.044,2.193-1.122,3.155-3.271,.113-.252,0-.548-.252-.66-.251-.114-.548,0-.66,.252-.487,1.087-1.35,1.868-1.968,2.321V3.368c0-.276-.224-.5-.5-.5s-.5,.224-.5,.5v7.272c-.617-.451-1.478-1.23-1.968-2.324-.113-.252-.41-.367-.66-.252-.252,.112-.365,.408-.252,.66,.962,2.148,3.066,3.227,3.155,3.271Z"/>
</svg>
