<svg id="Layer_1" viewBox="0 0 24 24" xmlns="http://www.w3.org/2000/svg" data-name="Layer 1"><path d="m12 6c-2.767 0-4 1.233-4 4s1.233 4 4 4 4-1.233 4-4-1.233-4-4-4zm0 7c-2.215 0-3-.785-3-3s.785-3 3-3 3 .785 3 3-.785 3-3 3zm9-3c0-6.309-2.691-9-9-9s-9 2.691-9 9c0 5.094 1.758 7.827 5.755 8.692-1.087.628-1.66 1.692-1.755 3.279-.014.232.134.443.356.509.071.021 1.781.521 4.643.521s4.571-.5 4.643-.521c.223-.066.371-.277.356-.509-.095-1.587-.667-2.651-1.755-3.279 3.997-.864 5.755-3.597 5.755-8.692zm-5.037 11.617c-.64.14-2.029.383-3.963.383s-3.323-.243-3.963-.383c.242-1.899 1.359-2.617 3.963-2.617s3.721.718 3.963 2.617zm-3.963-3.617c-5.832 0-8-2.168-8-8s2.168-8 8-8 8 2.168 8 8-2.168 8-8 8z"/></svg>