<svg id="Layer_1" viewBox="0 0 24 24" xmlns="http://www.w3.org/2000/svg" data-name="Layer 1"><path d="m16.75 17c0 .414-.336.75-.75.75s-.75-.336-.75-.75.336-.75.75-.75.75.336.75.75zm6.25-1.5c0 5.257-2.243 7.5-7.5 7.5-9.824 0-14.5-1.489-14.5-9.95 0-3.11 2.24-5.475 3.639-6.65-2.537-.361-3.639-1.937-3.644-4.9 0-.275.223-.499.498-.5h.002c2.682 0 3.927.963 4.505 1.851.577-.888 1.82-1.851 4.5-1.851.276 0 .5.224.5.5 0 3.325-1.368 4.824-4.499 4.971 0 1.543.01 2.758.305 4.162 2.484-1.816 5.2-2.633 8.694-2.633 5.257 0 7.5 2.243 7.5 7.5zm-16.5-11.188v1.164c2.394-.115 3.375-1.067 3.488-3.463-3.446.188-3.488 2.277-3.488 2.299zm-1 1.164v-1.164c-.002-.085-.086-2.112-3.488-2.299.113 2.396 1.094 3.348 3.488 3.463zm16.5 10.024c0-4.738-1.762-6.5-6.5-6.5-4.54 0-7.026 1.543-8.686 2.888-.131.106-.308.14-.469.087-.161-.052-.285-.183-.328-.346-.453-1.687-.507-3.014-.514-4.639-1.227.993-3.504 3.217-3.504 6.059 0 7.026 2.902 8.95 13.5 8.95 4.738 0 6.5-1.762 6.5-6.5z"/></svg>