<svg id="Layer_1" viewBox="0 0 24 24" xmlns="http://www.w3.org/2000/svg" data-name="Layer 1"><path d="m19.497.999c-1.582.01-2.469.895-2.497 2.491v.018c.029 1.597.917 2.481 2.503 2.491 1.581-.01 2.468-.895 2.497-2.509-.027-1.573-.938-2.481-2.503-2.491zm.006 4c-1.031-.006-1.481-.455-1.503-1.5.021-1.045.471-1.494 1.497-1.5 1.007.006 1.485.485 1.503 1.491-.02 1.065-.455 1.502-1.497 1.509zm1.162 11.029c-.105-.037-2.338-.799-6.363-.987 1.156-1.488 2.711-3.381 3.583-6.007.528-1.454-.699-3.092-2.213-3.034-3.539.053-4.717.27-4.765.278-.096.019-.186.064-.256.133-1.591 1.552-2.569 3.796-2.61 3.891-.109.254.007.548.261.657.256.107.547-.008.657-.261.009-.021.896-2.051 2.278-3.459.282-.039 1.013-.12 2.363-.18-.848 1.987-2.2 3.597-3.255 5.311-.983 1.547.352 3.69 2.155 3.629 1.321 0 2.477.071 3.483.171-.168 4.241-1.939 5.829-6.483 5.829-4.738 0-6.5-1.762-6.5-6.5 0-3.72 1.051-5.513 3.627-6.189.267-.07.427-.343.356-.61-.07-.267-.345-.431-.61-.356-3.024.794-4.373 3.001-4.373 7.156 0 5.327 2.173 7.5 7.5 7.5 5.018 0 7.264-2.017 7.478-6.715 1.433.19 2.448.428 2.961.569-.533 3.13-1.854 5.366-1.867 5.39-.142.237-.065.544.172.686.233.141.543.067.686-.172.063-.105 1.558-2.627 2.066-6.187.034-.236-.105-.464-.331-.542zm-9.461-1.778c-.252-.442-.251-.941.002-1.369 1.165-1.877 2.631-3.595 3.495-5.86.306-.008.634-.015.987-.02.86-.029 1.546.898 1.247 1.725-.747 2.294-2.244 4.202-3.235 5.465-.247.314-.45.58-.622.817-.191-.003-.379-.007-.576-.007-.544 0-1.029-.28-1.297-.75z"/></svg>