<?xml version="1.0" encoding="UTF-8"?>
<svg xmlns="http://www.w3.org/2000/svg" id="Layer_1" data-name="Layer 1" viewBox="0 0 24 24">
  <path d="M22.5,21.77h-2.354l-.974-5.987c-.031-.191-.169-.347-.355-.4-.07-.02-1.73-.492-3.692-.492-1.314,0-2.496,.222-3.154,.375-.114-.7-.3-1.997-.349-3.266,.527-.134,1.766-.406,3.14-.406,1.811,0,3.393,.474,3.408,.479,.264,.08,.544-.069,.624-.333,.081-.264-.068-.543-.332-.624-.07-.021-1.734-.522-3.7-.522-1.308,0-2.486,.223-3.146,.377,.047-1.548,.33-2.974,.417-3.381,1.301-.067,2.814-.568,2.814-3.176,0-2.854-1.813-3.185-3.177-3.185s-3.177,.33-3.177,3.185c0,2.415,1.298,3.023,2.523,3.153-.132,.652-.406,2.199-.406,3.829,0,2.11,.452,4.483,.471,4.583,.027,.139,.111,.26,.232,.333,.121,.074,.267,.092,.403,.051,.015-.005,1.442-.427,3.131-.47-.15,4.165-2.037,5.875-6.418,5.875-3.858,0-6.427-1.093-6.427-6.427,0-4.537,1.831-6.399,6.317-6.427,.276-.002,.499-.227,.497-.503-.002-.275-.225-.497-.5-.497h-.003c-3.404,.021-7.312,.884-7.312,7.427,0,6.583,3.969,7.427,7.427,7.427,3.352,0,7.193-.793,7.417-6.856,1.049,.064,1.946,.248,2.393,.354l.99,6.083c.04,.242,.249,.42,.494,.42h2.78c.276,0,.5-.224,.5-.5s-.224-.5-.5-.5ZM9.491,4.415c0-1.827,.798-2.185,2.177-2.185s2.177,.357,2.177,2.185-.798,2.185-2.177,2.185-2.177-.357-2.177-2.185Z"/>
</svg>
