<?xml version="1.0" encoding="UTF-8"?>
<svg xmlns="http://www.w3.org/2000/svg" id="Layer_1" data-name="Layer 1" viewBox="0 0 24 24">
  <path d="M8.803,11.322c-2.535,0-3.113,1.482-3.113,3.134,0,2.814,1.791,3.15,3.129,3.15,.66,0,3.113,.12,3.113-3.134,0-2.813-1.79-3.15-3.128-3.15Zm.019,5.284c-1.345-.004-2.132-.358-2.132-2.154,0-1.198,.269-2.13,2.109-2.13,1.346,0,2.132,.359,2.132,2.154,0,1.02-.067,2.13-2.109,2.13Z"/>
  <path d="M22.186,6.735c-.092-.081-.21-.126-.332-.126H8.795c-3.629,0-7.795,.893-7.795,7.855s4.166,7.855,7.795,7.855c3.524,0,7.572-.839,7.786-7.299,2.962-1.318,5.462-3.175,5.532-3.23,.091-.055,.887-.588,.887-2.306,0-1.969-.731-2.674-.814-2.748Zm-.631,4.227c-.026,.02-2.683,1.992-5.663,3.268-.182,.078-.3,.255-.303,.453-.062,4.713-2.029,6.636-6.793,6.636-4.827,0-6.795-1.986-6.795-6.855s1.969-6.855,6.795-6.855h12.813c.143,.236,.392,.8,.392,1.874,0,1.134-.42,1.46-.445,1.479Z"/>
  <path d="M12.352,5.059c.276,0,.5-.224,.5-.5V2.181c0-.276-.224-.5-.5-.5s-.5,.224-.5,.5v2.377c0,.276,.224,.5,.5,.5Z"/>
  <path d="M15.675,5.059c.276,0,.5-.224,.5-.5,0-.678,.545-1.229,1.215-1.229,.276,0,.5-.224,.5-.5s-.224-.5-.5-.5c-1.222,0-2.215,1-2.215,2.229,0,.276,.224,.5,.5,.5Z"/>
  <path d="M7.281,3.33c.669,0,1.214,.551,1.214,1.229,0,.276,.224,.5,.5,.5s.5-.224,.5-.5c0-1.229-.993-2.229-2.214-2.229-.276,0-.5,.224-.5,.5s.224,.5,.5,.5Z"/>
</svg>
