<svg id="Layer_1" viewBox="0 0 24 24" xmlns="http://www.w3.org/2000/svg" data-name="Layer 1"><path d="m7.635 3.696c-2.398.779-4.582 2.162-6.492 4.111-.193.197-.199.524.008.707.299.264.608.093.707-.007 1.796-1.833 3.844-3.132 6.086-3.86.263-.085.406-.367.321-.63-.085-.262-.367-.407-.63-.321z"/><path d="m16.367 3.696c2.398.779 4.582 2.162 6.492 4.111.193.197.199.524-.008.707-.299.264-.608.093-.707-.007-1.796-1.833-3.844-3.132-6.086-3.86-.263-.085-.406-.367-.321-.63.085-.262.367-.407.63-.321z"/><path d="m7.531 11.532c-.771.465-1.507 1.053-2.188 1.748-.193.197-.2.526.008.707.308.269.608.093.707-.007.622-.635 1.291-1.17 1.989-1.591.236-.143.312-.45.17-.687-.143-.236-.45-.312-.686-.17z"/><path d="m16.469 11.532c.771.465 1.507 1.053 2.188 1.748.193.197.2.526-.008.707-.308.269-.608.093-.707-.007-.622-.635-1.291-1.17-1.989-1.591-.236-.143-.312-.45-.17-.687.143-.236.45-.312.686-.17z"/><path d="m12 16.805c-1.377 0-2.075.706-2.075 2.097s.698 2.098 2.075 2.098 2.075-.706 2.075-2.098-.698-2.097-2.075-2.097zm0 3.195c-.824 0-1.075-.256-1.075-1.098 0-.759.155-1.097 1.075-1.097.824 0 1.075.256 1.075 1.097 0 .759-.155 1.098-1.075 1.098z"/><path d="m12 13.562c.276 0 .5-.224.5-.5v-9.562c0-.276-.224-.5-.5-.5s-.5.224-.5.5v9.562c0 .276.224.5.5.5z"/></svg>