<svg id="Layer_1" viewBox="0 0 24 24" xmlns="http://www.w3.org/2000/svg" data-name="Layer 1"><path d="m21.638 22.02c-.057-.016-.638-.178-1.676-.367.197-.646 1.062-4.766 1.038-9.89 0-6.171-1.049-9.271-1.094-9.4-.052-.147-.169-.264-.318-.312-.133-.043-3.292-1.051-7.588-1.051s-7.455 1.008-7.587 1.051c-.149.048-.267.164-.318.312-.044.129-1.094 3.229-1.094 9.4-.023 5.133.841 9.23 1.039 9.89-1.039.189-1.619.351-1.676.367-.266.075-.419.353-.343.617.076.266.351.422.618.344.034-.01 3.516-.98 9.363-.98s9.328.971 9.363.98c.258.077.543-.077.617-.344.076-.265-.078-.542-.343-.617zm-9.138-1.015v-8.505h7.492c-.074 5.156-.892 8.492-1.022 8.988-1.545-.233-3.734-.457-6.471-.483zm7.495-9.505h-7.495v-9.488c3.224.063 5.759.698 6.534.918.231.813.935 3.7.961 8.57zm-15.028-8.571c.773-.219 3.302-.854 6.533-.917v9.488h-7.495c.026-4.871.73-7.758.962-8.571zm-.959 9.571h7.492v8.505c-2.737.025-4.925.25-6.47.483-.13-.495-.948-3.831-1.022-8.988z"/></svg>