<svg id="Layer_1" viewBox="0 0 24 24" xmlns="http://www.w3.org/2000/svg" data-name="Layer 1"><path d="m21.936 3.435c-.042-.165-.165-.299-.327-.353-.132-.045-3.3-1.082-9.609-1.082s-9.477 1.037-9.609 1.082c-.162.054-.285.188-.327.353-.043.175-1.064 4.33-1.064 8.565s1.021 8.391 1.064 8.565c.042.165.165.299.327.353.132.045 3.3 1.082 9.609 1.082s9.477-1.037 9.609-1.082c.162-.054.285-.188.327-.353.043-.175 1.064-4.33 1.064-8.565s-1.021-8.391-1.064-8.565zm-9.936-.435c5.126 0 8.159.715 9.03.953.112.495.351 1.617.564 3.047h-19.188c.213-1.43.452-2.552.564-3.047.871-.238 3.904-.953 9.03-.953zm9.03 17.047c-.871.238-3.904.953-9.03.953s-8.159-.715-9.03-.953c-.227-1-.97-4.547-.97-8.047 0-1.38.116-2.765.27-4h19.46c.154 1.235.27 2.62.27 4 0 3.5-.744 7.047-.97 8.047z"/></svg>