<?xml version="1.0" encoding="UTF-8"?>
<svg xmlns="http://www.w3.org/2000/svg" id="Layer_1" data-name="Layer 1" viewBox="0 0 24 24">
  <path d="M22.699,10.448c-.072-.12-1.838-2.968-8.818-4.284-2.932-.552-6.444-.892-8.428-1.055,.437-.437,.707-1.034,.707-1.692,0-1.333-1.105-2.417-2.464-2.417S1.231,2.084,1.231,3.417c0,1.165,.844,2.14,1.964,2.368V22.5c0,.276,.224,.5,.5,.5s.5-.224,.5-.5v-2.845c1.234-.086,5.935-.444,9.686-1.151,6.98-1.315,8.747-4.163,8.818-4.283,.046-.077,.07-.166,.07-.256v-3.261c0-.09-.024-.179-.07-.256ZM2.231,3.417c0-.781,.657-1.417,1.464-1.417s1.464,.636,1.464,1.417-.657,1.418-1.464,1.418-1.464-.636-1.464-1.418Zm1.964,2.599c.827,.058,2.939,.22,5.299,.503v11.63c-2.359,.283-4.472,.445-5.299,.503V6.016Zm9.5,11.505c-1.025,.193-2.123,.36-3.201,.502V6.645c1.078,.142,2.176,.309,3.201,.502,.701,.132,1.345,.28,1.937,.439v9.497c-.592,.159-1.236,.307-1.937,.439Zm8.074-3.716c-.305,.393-1.632,1.861-5.138,2.983V7.879c3.512,1.124,4.837,2.595,5.138,2.983v2.943Z"/>
</svg>
