<svg id="Layer_1" viewBox="0 0 24 24" xmlns="http://www.w3.org/2000/svg" data-name="Layer 1"><path d="m19.084 11.219s-.977-1.869-4.084-3.167c-.008-.437.018-2.249-.018-2.643-.021-1.11-.089-2.237-.229-3.367-.073-.595-.585-1.043-1.191-1.043h-3.122c-.606 0-1.118.448-1.191 1.043-.14 1.13-.208 2.257-.229 3.367-.036.383-.011 2.219-.018 2.643-3.107 1.299-4.084 3.167-4.084 3.167-.212.311-.915 1.564-.915 4.528 0 2.788.84 5.761.876 5.887.035.12.114.224.221.289.072.044 1.821 1.073 6.902 1.073s6.83-1.029 6.902-1.073c.107-.065.186-.169.221-.289.036-.126.876-3.099.876-5.887 0-2.963-.703-4.216-.915-4.528zm-8.645-9.22h3.122c.102 0 .187.071.199.166.118.95.177 1.896.208 2.833h-3.937c.031-.937.09-1.884.208-2.833.012-.095.097-.166.199-.166zm7.779 19.147c-.521.226-2.319.849-6.218.849s-5.702-.626-6.218-.849c-.189-.722-.781-3.165-.781-5.399 0-.687.043-1.26.105-1.75h11.393c.276 0 .5-.224.5-.5s-.224-.5-.5-.5h-11.211c.282-1.071.408-1.081.539-1.365.006-.015.606-1.499 3.856-2.779.191-.075.317-.26.317-.465v-2.39h3.999v2.39c0 .205.125.39.317.465 3.409 1.383 3.747 2.669 3.93 2.914.007.01.752 1.042.752 3.98 0 2.234-.592 4.676-.781 5.399z"/></svg>