<svg id="Layer_1" viewBox="0 0 24 24" xmlns="http://www.w3.org/2000/svg" data-name="Layer 1"><path d="m21.522 7.065c0-.012-.002-.023-.004-.036-.455-2.704-2.445-4.863-5.07-5.501-1.424-.345-2.92-.524-4.446-.528h-.003c-1.527.005-3.023.183-4.446.528-2.625.638-4.615 2.797-5.07 5.501-.002.012-.003.023-.004.035-.693 4.144-.621 8.531.218 13.384.152 1.235.997 2.196 2.147 2.446 1.648.379 2.616-.525 2.959-.932.685-.818 3.281-3.784 3.358-3.872.089-.103.457-.351.84-.351s.751.247.866.381c.052.058 2.648 3.025 3.333 3.843.27.509 1.849 1.328 2.952.933 1.156-.252 2.001-1.212 2.15-2.423.842-4.877.914-9.263.221-13.408zm-1.209 13.261c-.101.82-.628 1.43-1.38 1.594-1.069.247-1.692-.271-1.968-.601-2.207-2.634-3.022-3.547-3.386-3.863l.019-.019c-.291-.339-.95-.698-1.597-.698s-1.306.36-1.615.719l.017.015c-.373.332-1.198 1.259-3.366 3.846-.278.33-.903.85-1.975.6-.747-.162-1.273-.773-1.378-1.616-.825-4.778-.895-9.065-.215-13.105.002-.011.003-.022.004-.034.399-2.295 2.089-4.123 4.315-4.664 1.347-.327 2.764-.495 4.212-.5 1.448.005 2.865.173 4.212.5 2.226.541 3.917 2.369 4.315 4.664 0 .011.002.023.004.034.68 4.041.61 8.328-.218 13.129zm-4.799-12.84c-.589-.076-1.124-.135-1.628-.178-.229-.536-.48-1.076-.75-1.612-.232-.459-.684-.731-1.1-.697-.482-.032-.941.238-1.174.698-.269.535-.52 1.075-.749 1.611-.504.043-1.039.102-1.628.178-.493.063-.907.411-1.054.887-.147.475-.002.996.416 1.367.367.326.725.644 1.081.952-.164.601-.303 1.2-.414 1.785-.09.471.089.947.467 1.243.38.295.886.352 1.318.15.599-.277 1.157-.568 1.7-.887.543.319 1.101.61 1.698.887.433.201.939.145 1.321-.151.377-.295.556-.771.466-1.242-.111-.585-.25-1.184-.414-1.785.358-.309.722-.633 1.126-.991.373-.331.519-.852.371-1.328-.147-.476-.561-.824-1.054-.887zm-.025 1.508c-.445.396-.876.778-1.308 1.146-.15.127-.211.33-.157.518.194.676.355 1.351.48 2.006.02.102-.019.205-.099.267-.082.064-.192.076-.285.033-.66-.305-1.268-.629-1.86-.989-.159-.097-.36-.097-.519 0-.592.361-1.2.684-1.862.99-.093.043-.202.03-.282-.033-.081-.063-.12-.166-.1-.268.124-.655.286-1.33.48-2.006.054-.188-.007-.391-.157-.518-.432-.368-.863-.75-1.353-1.186-.081-.071-.112-.183-.081-.284.032-.103.121-.178.227-.191.69-.089 1.304-.155 1.88-.198.188-.014.353-.133.425-.307.25-.605.532-1.219.837-1.825.046-.09.128-.152.265-.152h.017c.074 0 .161.059.208.151.305.607.587 1.222.838 1.827.072.174.237.293.425.307.576.042 1.19.109 1.88.198.106.014.195.088.227.191.031.101 0 .213-.125.324z"/></svg>