<svg id="Layer_1" viewBox="0 0 24 24" xmlns="http://www.w3.org/2000/svg" data-name="Layer 1"><path d="m13.998 22.265c.026.274-.174.52-.449.546-1.273.125-2.467.189-3.549.189-3.784 0-7.639-.765-7.801-.797-.202-.041-.358-.2-.394-.402-.008-.045-.805-4.566-.805-9.8s.796-9.756.805-9.801c.036-.202.192-.362.394-.402.162-.033 4.017-.797 7.802-.797s7.64.765 7.802.797c.201.041.357.2.394.402.007.037.657 3.729.783 8.287.008.276-.21.506-.486.514h-.014c-.271 0-.492-.215-.5-.486-.102-3.688-.552-6.797-.712-7.799-1.024-.186-4.216-.714-7.267-.714s-6.242.529-7.268.714c-.18 1.133-.733 4.961-.733 9.286s.553 8.152.733 9.286c1.025.186 4.215.714 7.267.714 1.049 0 2.21-.062 3.451-.184.275-.018.519.173.547.449zm-5.998-10.765c0 .995-.505 1.5-1.5 1.5s-1.5-.505-1.5-1.5.505-1.5 1.5-1.5 1.5.505 1.5 1.5zm-1 0c0-.439-.061-.5-.5-.5s-.5.061-.5.5.061.5.5.5.5-.061.5-.5zm1-5c0 .995-.505 1.5-1.5 1.5s-1.5-.505-1.5-1.5.505-1.5 1.5-1.5 1.5.505 1.5 1.5zm-1 0c0-.439-.061-.5-.5-.5s-.5.061-.5.5.061.5.5.5.5-.061.5-.5zm1 10c0 .995-.505 1.5-1.5 1.5s-1.5-.505-1.5-1.5.505-1.5 1.5-1.5 1.5.505 1.5 1.5zm-1 0c0-.439-.061-.5-.5-.5s-.5.061-.5.5.061.5.5.5.5-.061.5-.5zm7.5-10.5h-4c-.276 0-.5.224-.5.5s.224.5.5.5h4c.276 0 .5-.224.5-.5s-.224-.5-.5-.5zm0 5h-4c-.276 0-.5.224-.5.5s.224.5.5.5h4c.276 0 .5-.224.5-.5s-.224-.5-.5-.5zm8.5 4.93c0 3.989-4.542 6.873-4.735 6.994-.081.051-.173.076-.265.076s-.184-.025-.265-.076c-.193-.121-4.735-3.005-4.735-6.994 0-1.616 1.233-2.93 2.75-2.93.983 0 1.773.359 2.25.967.477-.608 1.267-.967 2.25-.967 1.517 0 2.75 1.314 2.75 2.93zm-1 0c0-1.064-.785-1.93-1.75-1.93-.41 0-1.75.108-1.75 1.5 0 .276-.224.5-.5.5s-.5-.224-.5-.5c0-1.392-1.34-1.5-1.75-1.5-.965 0-1.75.866-1.75 1.93 0 2.925 3.067 5.31 4 5.966.933-.657 4-3.041 4-5.966z"/></svg>