<svg id="Layer_1" viewBox="0 0 24 24" xmlns="http://www.w3.org/2000/svg" data-name="Layer 1"><path d="m20 16.573v-3.573h.5c.276 0 .5-.224.5-.5s-.224-.5-.5-.5h-4c-.276 0-.5.224-.5.5s.224.5.5.5h.5v3.573c-2.07.402-3 1.769-3 4.371v1.056c0 .215.138.406.342.474.064.021 1.606.526 4.158.526s4.094-.504 4.158-.526c.204-.068.342-.259.342-.474v-1.056c0-2.603-.93-3.969-3-4.371zm2 5.046c-.562.138-1.793.381-3.5.381s-2.938-.243-3.5-.381v-.675c0-2.256.718-3.223 2.561-3.448.251-.03.439-.243.439-.496v-4h1v4c0 .253.188.466.439.496 1.843.225 2.561 1.192 2.561 3.448zm-7.746-5.683c-.312-.174-.662-.325-1.045-.451v.002c-1.019 1.165-2.171 2.484-3.408 3.412-.178.134-.422.134-.6 0-1.237-.928-2.389-2.245-3.406-3.41-2.656.873-3.795 2.991-3.795 7.01 0 .276-.224.5-.5.5s-.5-.224-.5-.5c0-4.635 1.487-7.122 4.823-8.064.187-.053.386.007.512.152 1.005 1.147 2.049 2.372 3.166 3.278 1.118-.906 2.163-2.135 3.169-3.282.127-.146.326-.204.513-.152.574.163 1.098.375 1.558.63.241.134.328.439.193.68s-.441.327-.68.194zm-13.254-1.45c.005-.155.115-3.823 1.018-7.114 1.044-4.106 3.702-6.372 7.482-6.372s6.438 2.266 7.484 6.381c.169.615.324 1.301.458 2.028.051.271-.129.532-.4.583-.267.051-.532-.129-.582-.401-.13-.699-.278-1.357-.442-1.954-.537-2.111-2.094-5.637-6.518-5.637s-5.98 3.526-6.516 5.627c-.872 3.181-.983 6.85-.984 6.886-.008.271-.23.486-.5.486h-.014c-.276-.008-.494-.238-.486-.514zm4.724-6.144c-.176.214-.252.481-.215.752.287 2.072 1.522 2.955 3.979 2.905 2.966 0 4.013-1.047 4.013-4 0-.276.224-.5.5-.5s.5.224.5.5c0 3.505-1.495 5-5 5-2.825.099-4.658-1.178-4.981-3.768-.076-.551.077-1.092.433-1.524.361-.44.896-.711 1.469-.744 2.376-.137 3.493-.724 4.122-2.165.111-.253.406-.367.658-.258.253.111.368.405.258.659-.974 2.231-2.97 2.646-4.981 2.762-.294.017-.568.156-.753.38z"/></svg>