<svg id="Layer_1" viewBox="0 0 24 24" xmlns="http://www.w3.org/2000/svg" data-name="Layer 1"><path d="m22.5 13c.276 0 .5-.224.5-.5s-.224-.5-.5-.5h-.954c.707-3.056 1.286-6.61 1.454-10.478.012-.276-.202-.509-.479-.521-.29-.031-.51.203-.521.478-.17 3.9-.763 7.471-1.481 10.522h-6.775c-.464-1.463-.898-3.014-1.256-4.609-.051-.229-.254-.391-.488-.391s-.437.162-.488.391c-.358 1.595-.792 3.147-1.256 4.609h-6.776c-.717-3.05-1.311-6.62-1.48-10.521-.012-.276-.242-.494-.521-.478-.276.012-.49.245-.478.521.168 3.868.747 7.423 1.454 10.479h-.954c-.276 0-.5.224-.5.5s.224.5.5.5h1.196c.268 1.075.547 2.076.828 3h-2.025c-.276 0-.5.224-.5.5s.224.5.5.5h2.336c1.143 3.539 2.196 5.681 2.217 5.724.083.167.253.273.44.276.175.016.359-.1.448-.265.021-.04 1.22-2.308 2.585-5.735h4.947c1.365 3.427 2.564 5.696 2.585 5.735.087.163.257.265.441.265h.006c.188-.002.357-.109.441-.276.022-.044 1.074-2.185 2.217-5.724h2.336c.276 0 .5-.224.5-.5s-.224-.5-.5-.5h-2.024c.281-.924.56-1.925.828-3h1.196zm-10.5-3.404c.219.822.454 1.624.697 2.404h-1.395c.243-.781.479-1.582.697-2.404zm-5.479 11.75c-.386-.885-.992-2.384-1.638-4.346h3.566c-.778 1.922-1.488 3.444-1.928 4.346zm2.324-5.346h-4.28c-.284-.919-.569-1.92-.843-3h6.209c-.356 1.064-.724 2.069-1.085 3zm1.07 0c.357-.935.716-1.942 1.065-3h2.038c.349 1.058.708 2.065 1.065 3h-4.169zm7.563 5.345c-.44-.901-1.15-2.423-1.927-4.345h3.564c-.645 1.961-1.251 3.46-1.637 4.345zm1.955-5.345h-4.279c-.361-.931-.728-1.936-1.085-3h6.207c-.274 1.08-.559 2.081-.843 3z"/></svg>