<svg id="Layer_1" viewBox="0 0 24 24" xmlns="http://www.w3.org/2000/svg" data-name="Layer 1"><path d="m8 19.999c-.003.138-.066.257-.149.355-.73.961-1.586 1.82-2.551 2.544-.218.166-.533.123-.699-.1-.166-.221-.121-.534.1-.699.628-.472 1.189-1.018 1.712-1.6h-.912c-2.532 0-3.578-.254-3.621-.265-.121-.03-.226-.104-.295-.208-.098-.146-.584-1.028-.584-4.027s.491-3.862.59-4.003c.075-.108.188-.182.317-.206.063-.012 1.569-.291 3.592-.291h1c.276 0 .5.224.5.5s-.224.5-.5.5h-1c-1.458 0-2.653.155-3.154.232-.116.341-.346 1.268-.346 3.268s.231 2.951.353 3.308c.416.067 1.412.191 3.146.191h.912c-.523-.582-1.084-1.129-1.712-1.6-.221-.165-.266-.478-.1-.699.165-.221.479-.266.699-.1.966.724 1.822 1.583 2.551 2.544.082.098.145.217.149.355zm6.738-18.356c.011.049.262 1.205.262 2.357s-.251 2.308-.262 2.357c-.042.19-.19.339-.381.381-.049.011-1.205.262-2.357.262s-2.308-.251-2.357-.262c-.19-.042-.339-.19-.381-.381-.011-.049-.262-1.205-.262-2.357s.251-2.308.262-2.357c.042-.19.19-.339.381-.381.049-.011 1.205-.262 2.357-.262s2.308.251 2.357.262c.19.042.339.19.381.381zm-.738 2.358c0-.699-.106-1.421-.177-1.823-.402-.071-1.124-.177-1.823-.177s-1.421.106-1.823.177c-.07.402-.177 1.123-.177 1.823s.106 1.421.177 1.823c.402.071 1.124.177 1.823.177s1.421-.106 1.823-.177c.07-.402.177-1.123.177-1.823zm.738 5.642c.011.049.262 1.205.262 2.357s-.251 2.308-.262 2.357c-.042.19-.19.339-.381.381-.049.011-1.205.262-2.357.262s-2.308-.251-2.357-.262c-.19-.042-.339-.19-.381-.381-.011-.049-.262-1.205-.262-2.357s.251-2.308.262-2.357c.042-.19.19-.339.381-.381.049-.011 1.205-.262 2.357-.262s2.308.251 2.357.262c.19.042.339.19.381.381zm-.738 2.357c0-.699-.106-1.421-.177-1.823-.402-.071-1.124-.177-1.823-.177s-1.421.106-1.823.177c-.07.402-.177 1.123-.177 1.823s.106 1.421.177 1.823c.402.07 1.124.177 1.823.177s1.421-.106 1.823-.177c.07-.402.177-1.124.177-1.823zm.738 5.642c.011.049.262 1.205.262 2.357s-.251 2.308-.262 2.357c-.042.19-.19.339-.381.381-.049.011-1.205.262-2.357.262s-2.308-.251-2.357-.262c-.19-.042-.339-.19-.381-.381-.011-.049-.262-1.205-.262-2.357s.251-2.308.262-2.357c.042-.19.19-.339.381-.381.049-.011 1.205-.262 2.357-.262s2.308.251 2.357.262c.19.042.339.19.381.381zm-.738 2.357c0-.699-.106-1.421-.177-1.823-.402-.07-1.124-.177-1.823-.177s-1.421.106-1.823.177c-.07.402-.177 1.124-.177 1.823s.106 1.421.177 1.823c.402.07 1.124.177 1.823.177s1.421-.106 1.823-.177c.07-.402.177-1.124.177-1.823zm8.196-11.98-.656-.392c.016-.198.023-.407.023-.627s-.008-.429-.023-.627l.655-.392c.855-.51 1.03-1.203.52-2.057s-1.202-1.028-2.058-.519l-.426.254c-.325-.226-.712-.391-1.168-.499v-.661c0-.995-.505-1.5-1.5-1.5s-1.5.505-1.5 1.5v1.074c0 .276.224.5.5.5s.5-.224.5-.5v-1.074c0-.439.061-.5.5-.5s.5.061.5.5v1.074c0 .248.182.458.427.495.603.089 1.048.273 1.359.563.162.153.406.178.598.063l.723-.432c.378-.226.462-.204.686.173.226.377.204.46-.174.686l-.929.555c-.17.102-.264.294-.239.491.032.255.049.531.049.831s-.017.576-.049.831c-.024.197.069.39.239.491l.93.555c.377.226.398.309.173.686s-.31.398-.685.173l-.724-.432c-.193-.115-.436-.089-.598.063-.311.29-.756.474-1.359.563-.245.036-.427.247-.427.495v1.074c0 .439-.061.5-.5.5s-.5-.061-.5-.5v-1.074c0-.276-.224-.5-.5-.5s-.5.224-.5.5v1.074c0 .995.505 1.5 1.5 1.5s1.5-.505 1.5-1.5v-.661c.456-.108.843-.273 1.168-.499l.427.254c.853.511 1.547.335 2.057-.519s.335-1.547-.519-2.057zm-4.632-.019c-.36 0-.615-.056-.758-.166-.219-.169-.533-.132-.702.089-.169.218-.129.532.089.701.327.253.775.376 1.371.376 1.346 0 2-.654 2-2s-.654-2-2-2c-.596 0-1.044.123-1.371.376-.218.169-.258.483-.089.701.169.219.481.258.702.089.143-.11.397-.166.758-.166.794 0 1 .206 1 1s-.206 1-1 1z"/></svg>