<svg id="Layer_1" viewBox="0 0 24 24" xmlns="http://www.w3.org/2000/svg" data-name="Layer 1"><path d="m15.624 17c-1.603.272-3.136 1.597-3.624 2.063-.495-.471-2.02-1.789-3.624-2.063-.345 0-.667.217-.818.549-.023.049-.557 1.204-.557 2.451s.534 2.401.555 2.446c.158.346.482.556.818.556 1.601-.272 3.14-1.599 3.628-2.065.494.473 2.036 1.798 3.627 2.064.339 0 .661-.21.819-.555.057-.125.554-1.248.554-2.446 0-1.247-.534-2.402-.555-2.447-.156-.341-.471-.553-.821-.553zm-7.185 4.975c-.093-.219-.439-1.089-.439-1.975 0-.881.342-1.746.44-1.975 1.72.511 3.04 1.929 3.053 2.007-.013.015-1.329 1.427-3.054 1.942zm7.122 0c-1.721-.512-3.041-1.929-3.054-2.007.013-.015 1.333-1.433 3.054-1.943.094.22.439 1.089.439 1.976 0 .876-.339 1.739-.439 1.975zm-3.561-5.975c2.767 0 4-1.233 4-4s-1.233-4-4-4-4 1.233-4 4 1.233 4 4 4zm0-7c2.215 0 3 .785 3 3s-.785 3-3 3-3-.785-3-3 .785-3 3-3zm9.633 5.633c-.666.666-.96 1.015-.96 2.316 0 1.643-.452 2.67-1.422 3.232-.235.137-.544.06-.684-.182-.139-.239-.057-.545.182-.684.431-.249.924-.744.924-2.367 0-1.651.474-2.244 1.253-3.023 1.439-1.439 1.439-2.412 0-3.852-.779-.779-1.253-1.372-1.253-3.024 0-2.035-.688-2.723-2.723-2.723-1.652 0-2.245-.474-3.024-1.253-1.439-1.439-2.412-1.439-3.852 0-.779.779-1.372 1.253-3.024 1.253-2.036 0-2.723.688-2.723 2.723 0 1.652-.473 2.245-1.253 3.024-1.439 1.44-1.439 2.412 0 3.852.78.779 1.253 1.372 1.253 3.023 0 1.623.494 2.118.924 2.367.239.139.32.444.182.684-.139.239-.444.32-.684.182-.97-.562-1.422-1.59-1.422-3.232 0-1.302-.294-1.65-.96-2.316-1.821-1.82-1.821-3.444 0-5.266.666-.666.96-1.015.96-2.317 0-2.574 1.148-3.723 3.723-3.723 1.302 0 1.651-.294 2.317-.96 1.82-1.82 3.445-1.82 5.266 0 .666.666 1.015.96 2.317.96 2.574 0 3.723 1.148 3.723 3.723 0 1.303.294 1.651.96 2.317 1.821 1.821 1.821 3.444 0 5.266z"/></svg>