<svg id="Layer_1" viewBox="0 0 24 24" xmlns="http://www.w3.org/2000/svg" data-name="Layer 1"><path d="m22.134 5.762c-.075-.125-.201-.211-.345-.235-.142-.023-.291.015-.403.108-.936.776-1.968 1.619-2.644 2.17l-.622.509c-1.114.91-1.573.916-2.457.033-.895-.895-.889-1.376.033-2.457l.586-.72c.549-.676 1.347-1.658 2.086-2.554.092-.112.132-.259.107-.402-.024-.144-.11-.27-.235-.345-2.559-1.539-4.922-1.007-7.659 1.729-1.76 1.76-2.58 3.317-2.581 4.901 0 .771.245 1.651.696 2.516-.389.373-.788.761-1.201 1.174-.764.764-1.495 1.532-2.145 2.229-1.487 1.609-2.696 3.038-3.442 3.947-1.021 1.197-1.408 2.289.027 3.725.658.658 1.24.932 1.801.932.638 0 1.25-.354 1.917-.898 1.421-1.169 2.724-2.303 3.982-3.469.697-.649 1.438-1.36 2.202-2.125.419-.419.813-.824 1.191-1.22.854.445 1.718.688 2.463.688h.009c1.583 0 3.142-.82 4.901-2.58 2.736-2.736 3.271-5.098 1.733-7.657zm-2.44 6.95c-1.56 1.561-2.894 2.287-4.195 2.287-.694-.019-1.508-.27-2.314-.744-.2-.117-.455-.081-.615.087-.454.478-.927.969-1.44 1.481-.755.755-1.487 1.458-2.175 2.099-1.243 1.152-2.531 2.273-3.936 3.428-1.079.882-1.523.888-2.376.034-.864-.865-.859-1.33.033-2.376.744-.905 1.939-2.318 3.408-3.908.642-.688 1.364-1.447 2.119-2.203.507-.507.992-.975 1.464-1.424.168-.16.204-.416.086-.616-.478-.81-.752-1.668-.751-2.356 0-1.301.728-2.634 2.288-4.194 1.529-1.529 2.869-2.272 4.194-2.272.574 0 1.146.14 1.728.416-.622.758-1.249 1.529-1.704 2.09l-.576.709c-1.044 1.224-1.438 2.34.027 3.806 1.437 1.437 2.52 1.079 3.797.033h.001l.62-.506c.565-.462 1.38-1.127 2.179-1.786.909 1.925.331 3.727-1.86 5.918z"/></svg>