<svg id="Layer_1" viewBox="0 0 24 24" xmlns="http://www.w3.org/2000/svg" data-name="Layer 1"><path d="m17.445 4.718c-3.404.375-7.486.375-10.891 0-.271-.028-.521.168-.552.442s.168.521.442.552c1.586.175 3.291.26 5.055.275v2.001c-1.354-.012-2.702-.064-3.957-.173-.272-.017-.517.18-.541.455-.024.274.18.518.455.541 1.284.112 2.646.166 4.043.178v1.999c-1.012-.013-2.018-.055-2.953-.143-.271-.018-.52.177-.545.451-.025.275.177.519.451.545.967.09 1.994.135 3.047.147v2.019c-.959.014-1.901.068-2.729.165-1.269.149-2.267 1.268-2.271 2.552.006 1.592 1.606 2.282 2.132 2.509.181.078 1.815.767 3.368.767s3.188-.688 3.368-.767c.525-.227 2.126-.917 2.132-2.513-.005-1.28-1.003-2.398-2.271-2.548-.828-.097-1.77-.151-2.729-.165v-2.019c1.053-.013 2.08-.057 3.047-.147.274-.026.477-.27.451-.545-.026-.274-.277-.471-.545-.451-.935.088-1.941.13-2.953.143v-1.999c1.397-.012 2.759-.067 4.043-.178.275-.023.479-.267.455-.541-.024-.276-.275-.479-.541-.455-1.255.109-2.603.161-3.957.173v-2.001c1.764-.016 3.469-.101 5.055-.275.274-.03.473-.277.442-.552s-.285-.47-.552-.442zm-.945 12.003c-.002.402-.161 1.005-1.528 1.595-.162.07-1.621.685-2.972.685s-2.81-.614-2.972-.685c-1.367-.59-1.526-1.192-1.528-1.591.003-.783.612-1.468 1.389-1.559.934-.11 1.979-.166 3.111-.166s2.178.056 3.111.166c.776.091 1.386.775 1.389 1.555zm5.863 3.97c-.015.004-.489.137-1.309.316.315-1.274.946-4.397.946-9.006s-.631-7.733-.946-9.006c.82.179 1.294.312 1.309.316.258.077.543-.077.617-.344.076-.266-.078-.542-.344-.617-.193-.056-4.803-1.349-10.637-1.349s-10.442 1.292-10.636 1.348c-.266.075-.42.352-.344.617.075.265.349.422.617.344.015-.004.489-.137 1.309-.316-.315 1.274-.946 4.397-.946 9.006s.631 7.733.946 9.006c-.82-.179-1.294-.312-1.309-.316-.27-.082-.542.078-.617.344-.076.266.078.542.344.617.193.056 4.803 1.349 10.637 1.349s10.443-1.293 10.637-1.349c.266-.075.42-.352.344-.617-.075-.266-.351-.425-.617-.344zm-18.324.539c-.18-.639-1.039-3.972-1.039-9.229s.86-8.591 1.039-9.23c1.902-.361 4.764-.771 7.961-.771s6.058.41 7.961.771c.18.639 1.039 3.972 1.039 9.229s-.86 8.59-1.039 9.229c-1.902.361-4.764.771-7.961.771s-6.058-.41-7.961-.771zm9.852-4.791c.172.216.136.53-.08.703-.782.622-1.659.836-1.695.845-.076.018-.156.018-.232 0-.036-.009-.913-.223-1.695-.845-.216-.173-.252-.487-.08-.703.175-.217.488-.251.703-.08.454.362.965.551 1.188.621.225-.07.733-.259 1.188-.621.215-.171.53-.137.703.08z"/></svg>