<svg id="Layer_1" viewBox="0 0 24 24" xmlns="http://www.w3.org/2000/svg" data-name="Layer 1"><path d="m23 12c0-7.813-3.187-11-11-11-7.288-.094-11.158 3.083-11 11 0 7.813 3.187 11 11 11 7.261.104 11.166-3.077 11-11zm-21 0c0-6.982 2.652-9.821 9.381-9.984 3.346.08 4.619 1.382 4.619 4.734 0 3.079-1.21 4.5-4.044 4.752-3.381.297-4.956 2.124-4.956 5.748 0 2.079.488 3.533 1.528 4.463-4.64-.872-6.528-3.816-6.528-9.713zm10.658 9.983c-3.372-.085-4.658-1.388-4.658-4.733 0-3.123 1.172-4.5 4.044-4.752 3.381-.3 4.956-2.127 4.956-5.748 0-2.076-.482-3.529-1.508-4.46 4.626.877 6.508 3.821 6.508 9.71 0 6.968-2.642 9.81-9.342 9.983zm-1.408-14.983c0-.414.336-.75.75-.75s.75.336.75.75-.336.75-.75.75-.75-.336-.75-.75zm1.5 10c0 .414-.336.75-.75.75s-.75-.336-.75-.75.336-.75.75-.75.75.336.75.75z"/></svg>